<?xml version="1.0" encoding="UTF-8" standalone="no"?>
<svg
   xmlns:dc="http://purl.org/dc/elements/1.1/"
   xmlns:cc="http://creativecommons.org/ns#"
   xmlns:rdf="http://www.w3.org/1999/02/22-rdf-syntax-ns#"
   xmlns:svg="http://www.w3.org/2000/svg"
   xmlns="http://www.w3.org/2000/svg"
   xmlns:sodipodi="http://sodipodi.sourceforge.net/DTD/sodipodi-0.dtd"
   xmlns:inkscape="http://www.inkscape.org/namespaces/inkscape"
   id="svg2"
   height="200"
   width="900"
   version="1.2"
   inkscape:version="0.48.1 "
   sodipodi:docname="net_basic_tcppacket.svg">
  <sodipodi:namedview
     pagecolor="#ffffff"
     bordercolor="#666666"
     borderopacity="1"
     objecttolerance="10"
     gridtolerance="10"
     guidetolerance="10"
     inkscape:pageopacity="0"
     inkscape:pageshadow="2"
     inkscape:window-width="1920"
     inkscape:window-height="1033"
     id="namedview117"
     showgrid="false"
     inkscape:zoom="1.84"
     inkscape:cx="116.31004"
     inkscape:cy="100"
     inkscape:window-x="-4"
     inkscape:window-y="-4"
     inkscape:window-maximized="1"
     inkscape:current-layer="text3094-1-0" />
  <defs
     id="defs4" />
  <metadata
     id="metadata7">
    <rdf:RDF>
      <cc:Work
         rdf:about="">
        <dc:format>image/svg+xml</dc:format>
        <dc:type
           rdf:resource="http://purl.org/dc/dcmitype/StillImage" />
        <dc:title />
      </cc:Work>
    </rdf:RDF>
  </metadata>
  <g
     id="g3222"
     transform="translate(601,-466.8125)">
    <rect
       style="fill:#02d35f;fill-opacity:1;fill-rule:nonzero;stroke:none"
       id="rect4438"
       y="486.8125"
       x="-581"
       ry="10"
       rx="10"
       height="160"
       width="860" />
    <rect
       style="color:#000000;fill:#71d6e0;fill-opacity:1;fill-rule:nonzero;stroke:#ffffff;stroke-width:0;stroke-miterlimit:4;stroke-opacity:1;stroke-dasharray:none;marker:none;visibility:visible;display:inline;overflow:visible;enable-background:accumulate"
       id="rect6978-9-64-0-1-5-7"
       y="486.8125"
       x="-481"
       height="160"
       width="130" />
    <rect
       style="color:#000000;fill:#ffef8d;fill-opacity:1;fill-rule:nonzero;stroke:#ffffff;stroke-width:0;stroke-miterlimit:4;stroke-opacity:1;stroke-dasharray:none;marker:none;visibility:visible;display:inline;overflow:visible;enable-background:accumulate"
       id="rect6978-9-64-0-1-5-7-5"
       y="486.8125"
       x="-351"
       ry="0"
       height="160"
       width="130.00003" />
    <rect
       style="color:#000000;fill:#dcddde;fill-opacity:1;fill-rule:nonzero;stroke:#ffffff;stroke-width:0;stroke-miterlimit:4;stroke-opacity:1;stroke-dasharray:none;marker:none;visibility:visible;display:inline;overflow:visible;enable-background:accumulate"
       id="rect6978-9-64-0-1-5-7-5-2"
       y="486.8125"
       x="-221"
       height="160"
       width="399.99982" />
    <g
       style="font-size:22px;font-style:normal;font-weight:normal;text-align:center;line-height:125%;letter-spacing:0px;word-spacing:0px;text-anchor:middle;fill:#000000;fill-opacity:1;stroke:none;font-family:Sans"
       id="text3094">
      <path
         d="m -564.63501,554.27301 c -0.19793,1.96354 -0.47007,3.28906 -0.81641,3.97656 -0.34636,0.6875 -0.94142,1.0599 -1.78515,1.11719 -0.84376,0.0573 -3.05991,0.0859 -6.64844,0.0859 -1.45834,0 -2.34896,-0.0247 -2.67187,-0.0742 -0.32292,-0.0495 -0.61719,-0.22136 -0.88282,-0.51563 -0.26562,-0.29427 -0.39844,-0.6888 -0.39843,-1.18359 -10e-6,-1.92187 3.15884,-5.5052 9.47656,-10.75 l -8.97656,0 0,-0.84375 10.47656,0 0,0.84375 c -2.34376,1.71355 -4.61069,3.68621 -6.80078,5.91797 -2.19011,2.23177 -3.28516,3.83724 -3.28516,4.81641 0,0.4427 0.18229,0.71484 0.54688,0.8164 0.36458,0.10156 2.0677,0.15235 5.10937,0.15235 1.66666,0 2.85676,-0.0117 3.57031,-0.0352 0.71353,-0.0234 1.17186,-0.1875 1.375,-0.49219 0.20311,-0.30468 0.3828,-0.81771 0.53907,-1.53906 0.15623,-0.72135 0.25779,-1.58724 0.30468,-2.59766 z"
         style="font-size:16px;font-variant:normal;font-stretch:normal;font-family:Microsoft JhengHei;-inkscape-font-specification:Microsoft JhengHei"
         id="path3110" />
      <path
         d="m -548.15845,559.0777 -0.53906,0.8125 c -3.25522,-2.15104 -5.42709,-4.9401 -6.51562,-8.36719 -0.50522,1.75001 -1.27345,3.26563 -2.30469,4.54688 1.03124,0.93229 1.92187,1.91927 2.67187,2.96093 l -0.67187,0.55469 c -0.78126,-1.13021 -1.6224,-2.07812 -2.52344,-2.84375 -1.0573,1.15104 -2.2474,2.15365 -3.57031,3.00781 l -0.65625,-0.6875 c 3.76562,-2.3177 5.90364,-5.27864 6.41406,-8.88281 l -6.1875,0 0,-0.83594 6.28906,0 c 0.11458,-1.22915 0.18749,-2.44269 0.21875,-3.64062 l 0.86719,0 c -0.0365,1.3073 -0.11199,2.52084 -0.22656,3.64062 l 6.41406,0 0,0.83594 -6.26562,0 c 0.38019,1.79167 1.15624,3.47787 2.32812,5.05859 1.17186,1.58074 2.59113,2.86068 4.25781,3.83985 z"
         style="font-size:16px;font-variant:normal;font-stretch:normal;font-family:Microsoft JhengHei;-inkscape-font-specification:Microsoft JhengHei"
         id="path3112" />
      <path
         d="m -540.66626,554.91364 -0.76562,0.25781 c -0.0573,-0.29166 -0.13803,-0.59635 -0.24219,-0.91406 -1.61459,0.44792 -3.03386,0.78385 -4.25781,1.00781 l -0.25782,-0.89063 c 1.17708,-1.05728 2.1901,-2.26822 3.03907,-3.63281 -1.40626,0.22917 -2.30209,0.3672 -2.6875,0.41406 l -0.21875,-0.79687 c 1.01041,-1.22916 1.86718,-2.78124 2.57031,-4.65625 l 0.77344,0.25 c -0.5573,1.50001 -1.3047,2.91928 -2.24219,4.25781 0.71354,-0.0573 1.48176,-0.16926 2.30469,-0.33594 0.42187,-0.67186 0.79426,-1.35415 1.11718,-2.04687 l 0.75782,0.30469 c -1.34897,2.66146 -2.73178,4.69271 -4.14844,6.09375 0.87499,-0.13542 1.87239,-0.36979 2.99219,-0.70313 -0.13022,-0.39583 -0.27345,-0.75781 -0.42969,-1.08594 l 0.71875,-0.25781 c 0.40624,0.83855 0.73176,1.75001 0.97656,2.73438 z m 8.04688,3.58593 c -2e-5,0.27084 -0.0912,0.51433 -0.27344,0.73047 -0.18231,0.21615 -0.39585,0.34896 -0.64063,0.39844 -0.2448,0.0495 -0.72918,0.0612 -1.45312,0.0352 l -0.35156,-0.875 c 0.33852,0.0104 0.63019,0.0156 0.875,0.0156 0.47915,0 0.77081,-0.0312 0.875,-0.0937 0.10415,-0.0625 0.15623,-0.17448 0.15625,-0.33594 l 0,-11.46093 -6.07032,0 0,12.73437 -0.8125,0 0,-13.51562 7.69532,0 z m -1.28125,-7.60156 -5.13282,0 0,-0.78125 1.28125,0 c -0.17188,-0.6302 -0.4349,-1.30728 -0.78906,-2.03125 l 0.75781,-0.30469 c 0.32812,0.70835 0.62499,1.48699 0.89063,2.33594 l 0.89844,0 c 0.37498,-0.66666 0.73175,-1.45572 1.07031,-2.36719 l 0.73437,0.28907 c -0.14584,0.44271 -0.44272,1.13542 -0.89062,2.07812 l 1.17969,0 z m 0,2.91406 -3.42188,0 0,2.36719 c -1e-5,0.27604 0.12759,0.41407 0.38281,0.41406 l 2.82032,0 0,0.75 -2.89844,0 c -0.7448,0 -1.1172,-0.38281 -1.11719,-1.14843 l 0,-2.38282 -0.89844,0 0,-0.76562 2.49219,0 c -0.12501,-0.39583 -0.32814,-0.88281 -0.60937,-1.46094 l 0.78906,-0.27344 c 0.18228,0.39584 0.41144,0.97397 0.6875,1.73438 l 1.77344,0 z m -6.79688,4.50782 -0.76562,0.27343 c -0.0886,-0.76041 -0.32032,-1.71354 -0.69532,-2.85937 l 0.75782,-0.24219 c 0.34895,1.02084 0.58332,1.96354 0.70312,2.82813 z m -1.875,0.74218 -0.82812,0.15625 c -0.0469,-1.03645 -0.19272,-2.14583 -0.4375,-3.32812 l 0.77343,-0.125 c 0.24479,1.02083 0.40885,2.11979 0.49219,3.29687 z m -2.01562,-3.14062 c -0.1823,1.33333 -0.48178,2.59896 -0.89844,3.79687 l -0.79688,-0.35156 c 0.39063,-0.95312 0.70573,-2.15364 0.94532,-3.60156 z"
         style="font-size:16px;font-variant:normal;font-stretch:normal;font-family:Microsoft JhengHei;-inkscape-font-specification:Microsoft JhengHei"
         id="path3114" />
      <path
         d="m -516.20532,552.5777 -0.50781,0.75 c -1.3646,-0.51562 -2.58075,-1.12239 -3.64844,-1.82031 -0.96876,0.72917 -2.27605,1.35417 -3.92188,1.875 l -0.54687,-0.77344 c 1.5677,-0.44791 2.82291,-0.98177 3.76562,-1.60156 -0.69272,-0.59895 -1.29167,-1.32291 -1.79687,-2.17188 -0.53647,0.45313 -0.96876,0.77866 -1.29688,0.97656 l -0.65625,-0.625 c 1.64062,-0.97394 2.77864,-2.16926 3.41407,-3.58593 l 0.8125,0.25781 c -0.1771,0.41668 -0.39064,0.81772 -0.64063,1.20312 l 4.04688,0 0,0.75 c -0.72398,1.29689 -1.54429,2.34116 -2.46094,3.13282 0.97394,0.63542 2.11978,1.17969 3.4375,1.63281 z m -2.01563,-4.75 -3.63281,0 c -0.0313,0.0521 -0.0938,0.13152 -0.1875,0.23828 -0.0938,0.10678 -0.15365,0.17579 -0.17969,0.20703 0.46353,0.89584 1.08853,1.62241 1.875,2.17969 0.83332,-0.68749 1.54166,-1.56249 2.125,-2.625 z m -6.30468,9.92187 c -1.75001,0.6875 -3.58855,1.29427 -5.51563,1.82032 l -0.22656,-0.84375 c 0.375,-0.0885 0.65885,-0.16928 0.85156,-0.24219 l 0,-6.51563 0.79688,0 0,6.27344 c 0.22395,-0.0417 0.66666,-0.16927 1.32812,-0.38281 l 0,-7.08594 -2.30469,0 0,-4.54687 4.57813,0 0,4.54687 -1.46094,0 0,2.46094 1.76563,0 0,0.82031 -1.76563,0 0,3.51563 c 0.64583,-0.20313 1.29687,-0.45313 1.95313,-0.75 z m -1.32813,-7.76562 0,-2.95313 -2.90625,0 0,2.95313 z m 8.5,9.67969 -0.83594,0 0,-0.73438 -4.41406,0 0,0.73438 -0.84375,0 0,-5.86719 6.09375,0 z m -0.83594,-1.53125 0,-3.52344 -4.41406,0 0,3.52344 z"
         style="font-size:16px;font-variant:normal;font-stretch:normal;font-family:Microsoft JhengHei;-inkscape-font-specification:Microsoft JhengHei"
         id="path3116" />
      <path
         d="m -509.30688,552.67145 -0.625,0.54687 c -0.23959,-0.58332 -0.66147,-1.28124 -1.26563,-2.09375 l 0,8.53907 -0.8125,0 0,-7.77344 c -0.70313,1.56771 -1.27865,2.68229 -1.72656,3.34375 l -0.57813,-0.67188 c 0.91146,-1.30728 1.65365,-2.91666 2.22657,-4.82812 l -2.03125,0 0,-0.78906 2.10937,0 0,-3.26563 0.8125,0 0,3.26563 1.61719,0 0,0.78906 -1.61719,0 0,0.1875 c 0.8177,0.97396 1.44791,1.89063 1.89063,2.75 z m 8.97656,-5.88281 -2.92969,0 0,1.21093 2.44531,0 0,3.49219 -8.125,0 0,-3.49219 2.41407,0 0,-1.21093 -2.85938,0 0,-0.78907 9.05469,0 z m -3.74219,1.21093 0,-1.21093 -1.63281,0 0,1.21093 z m 2.46094,0.74219 -1.64844,0 0,2 1.64844,0 z m -2.46094,2 0,-2 -1.63281,0 0,2 z m -2.45312,0 0,-2 -1.59375,0 0,2 z m 5.64843,2.625 -7.9375,0 0,-0.75781 7.9375,0 z m 0.57813,2.01563 -4.125,0 0,4.28125 -0.83594,0 0,-4.28125 -4.22656,0 0,-0.77344 9.1875,0 z m -5.96875,1.42187 c -0.98959,1.10417 -1.93751,1.94531 -2.84375,2.52344 l -0.5625,-0.63281 c 0.91145,-0.55209 1.83853,-1.36459 2.78125,-2.4375 z m 6.03125,1.9375 -0.59375,0.57031 c -0.63022,-0.75 -1.50783,-1.55989 -2.63281,-2.42968 l 0.55468,-0.57813 c 1.20311,0.96875 2.09374,1.78125 2.67188,2.4375 z"
         style="font-size:16px;font-variant:normal;font-stretch:normal;font-family:Microsoft JhengHei;-inkscape-font-specification:Microsoft JhengHei"
         id="path3118" />
      <path
         d="m -491.73657,550.81989 -5.8125,0 0,-4.79688 5.8125,0 z m -0.82031,-2.83594 0,-1.22656 -4.1875,0 0,1.22656 z m 0,2.07031 0,-1.32812 -4.1875,0 0,1.32812 z m 8.01562,-3.25 -2.99219,0 c -0.0938,0.46355 -0.25782,0.97397 -0.49218,1.53125 l 2.94531,0 0,6.85156 -3.82813,0 0.48438,0.5625 c -0.96355,1.02084 -1.83855,1.79948 -2.625,2.33594 l -0.60938,-0.57812 c 0.79166,-0.46354 1.67708,-1.23698 2.65625,-2.32032 l -1.52343,0 0,-6.85156 1.67968,0 c 0.1927,-0.41145 0.35937,-0.92186 0.5,-1.53125 l -2.67187,0 0,-0.75 6.47656,0 z m -1.34375,3.58594 0,-1.26563 -3.85156,0 0,1.26563 z m 0,2.03125 0,-1.3125 -3.85156,0 0,1.3125 z m 0,2.03125 0,-1.29688 -3.85156,0 0,1.29688 z m 1.63281,4.15625 -0.20312,0.82031 -3.29688,0.0234 c -1.94792,0 -3.3724,-0.056 -4.27343,-0.16797 -0.90105,-0.11198 -1.75782,-0.33594 -2.57032,-0.67188 -0.8125,-0.33593 -1.52865,-0.79557 -2.14843,-1.3789 -0.25001,0.96354 -0.51824,1.74739 -0.80469,2.35156 l -0.6875,-0.38281 c 0.65104,-1.39063 1.07812,-3.2526 1.28125,-5.58594 l 0.78125,0.10156 c -0.10938,1.0573 -0.23698,1.92969 -0.38281,2.61719 0.42708,0.5 0.99739,0.9375 1.71093,1.3125 l 0,-4.99219 -3.39062,0 0,-0.75 7.10937,0 0,0.75 -2.89843,0 0,2.08594 2.38281,0 0,0.8125 -2.38281,0 0,2.44531 c 0.79686,0.30729 1.73567,0.4974 2.8164,0.57032 1.08072,0.0729 2.51431,0.10937 4.30078,0.10937 0.95311,0 1.83853,-0.0234 2.65625,-0.0703 z m -0.30468,-1.05469 -0.49219,0.625 c -0.6771,-0.66146 -1.45054,-1.24739 -2.32031,-1.75781 l 0.41406,-0.65625 c 0.97915,0.60938 1.77863,1.20573 2.39844,1.78906 z"
         style="font-size:16px;font-variant:normal;font-stretch:normal;font-family:Microsoft JhengHei;-inkscape-font-specification:Microsoft JhengHei"
         id="path3120" />
      <path
         d="m -568.03345,584.21832 c -0.77604,-0.97917 -1.43229,-2.125 -1.96875,-3.4375 -0.53646,-1.3125 -0.80469,-2.67187 -0.80468,-4.07812 -10e-6,-1.23958 0.20051,-2.42708 0.60156,-3.5625 0.46875,-1.3177 1.1927,-2.6302 2.17187,-3.9375 l 1.00782,0 c -0.63022,1.08334 -1.04688,1.85678 -1.25,2.32031 -0.31772,0.71876 -0.56772,1.46876 -0.75,2.25 -0.22397,0.97396 -0.33594,1.95313 -0.33594,2.9375 0,2.50521 0.77864,5.00781 2.33594,7.50781 z"
         style="font-size:16px"
         id="path3122"
         inkscape:connector-curvature="0" />
      <path
         d="m -560.47095,580.85114 -1.40625,0 0,-8.96094 c -0.33854,0.32292 -0.78255,0.64584 -1.33203,0.96875 -0.54948,0.32292 -1.04297,0.56511 -1.48047,0.72656 l 0,-1.35937 c 0.78646,-0.36979 1.47396,-0.8177 2.0625,-1.34375 0.58854,-0.52604 1.00521,-1.03645 1.25,-1.53125 l 0.90625,0 z"
         style="font-size:16px"
         id="path3124"
         inkscape:connector-curvature="0" />
      <path
         d="m -552.35376,580.85114 0,-2.74219 -4.96875,0 0,-1.28906 5.22656,-7.42188 1.14844,0 0,7.42188 1.54688,0 0,1.28906 -1.54688,0 0,2.74219 z m 0,-4.03125 0,-5.16407 -3.58594,5.16407 z"
         style="font-size:16px"
         id="path3126"
         inkscape:connector-curvature="0" />
      <path
         d="m -529.14282,581.28082 -10.28906,0 0,-0.82812 3.23437,0 c -0.27084,-2.59375 -0.86719,-5.45833 -1.78906,-8.59375 l 0.55469,-0.30469 -1.78907,0 0,-0.82812 4.75,0 c -0.22397,-0.97395 -0.54428,-1.91406 -0.96093,-2.82032 l 0.80468,-0.27343 c 0.38541,0.88022 0.73697,1.91146 1.05469,3.09375 l 4.17188,0 0,0.82812 -1.60938,0 0.50781,0.19531 c -0.46876,3.27605 -1.09897,6.17709 -1.89062,8.70313 l 3.25,0 z m -2.22656,-9.72656 -5.77344,0 c 0.86457,3.23438 1.47395,6.20052 1.82812,8.89844 l 2.0625,0 c 0.92187,-2.94792 1.54947,-5.91406 1.88282,-8.89844 z m -7.48438,-3.57031 c -0.20313,0.48439 -0.47657,1.06772 -0.82031,1.75 l -0.52344,1.00781 0,10.92188 -0.85156,0 0,-9.375 c -0.47917,0.77084 -1.07032,1.57813 -1.77344,2.42187 l -0.53125,-0.78906 c 1.48437,-1.7552 2.70052,-3.83593 3.64844,-6.24219 z"
         style="font-style:normal;font-variant:normal;font-weight:normal;font-stretch:normal;font-family:Microsoft JhengHei;-inkscape-font-specification:Microsoft JhengHei"
         id="path3128"
         inkscape:connector-curvature="0" />
      <path
         d="m -514.6272,568.86676 -10.99218,0 0,-0.84375 10.99218,0 z m 1.42188,8.60938 c -0.0156,0.72396 -0.10418,1.47005 -0.26563,2.23828 -0.16147,0.76823 -0.41147,1.2552 -0.75,1.46093 -0.33855,0.20573 -1.03126,0.3086 -2.07812,0.3086 -0.71876,0 -1.2422,-0.0169 -1.57031,-0.0508 -0.32814,-0.0339 -0.58725,-0.15756 -0.77735,-0.3711 -0.19011,-0.21354 -0.28516,-0.48698 -0.28515,-0.82031 l 0,-6.67187 -2.94532,0 c -0.0885,2.07292 -0.45964,3.73568 -1.11328,4.98828 -0.65365,1.2526 -1.83464,2.32161 -3.54297,3.20703 l -0.57812,-0.73438 c 1.19791,-0.53125 2.20703,-1.31901 3.02734,-2.36328 0.82031,-1.04427 1.25651,-2.74348 1.3086,-5.09765 l -4.04688,0 0,-0.85938 13.4375,0 0,0.85938 -4.67187,0 0,6.59375 c -10e-6,0.1927 0.0989,0.32552 0.29687,0.39843 0.19791,0.0729 0.56249,0.10938 1.09375,0.10938 1.03124,0 1.61197,-0.026 1.74219,-0.0781 0.13019,-0.0521 0.25649,-0.14062 0.3789,-0.26562 0.12239,-0.125 0.23437,-0.52083 0.33594,-1.1875 0.10155,-0.66667 0.15233,-1.32812 0.15235,-1.98438 z"
         style="font-style:normal;font-variant:normal;font-weight:normal;font-stretch:normal;font-family:Microsoft JhengHei;-inkscape-font-specification:Microsoft JhengHei"
         id="path3130"
         inkscape:connector-curvature="0" />
      <path
         d="m -505.03345,570.11676 c -1.73959,2.6823 -3.22136,4.67188 -4.44531,5.96875 0.90104,-0.16666 1.95312,-0.41927 3.15625,-0.75781 -0.0833,-0.24479 -0.21355,-0.58073 -0.39062,-1.00781 l 0.72656,-0.26563 c 0.49999,1.23959 0.79687,2.14063 0.89062,2.70313 l -0.76562,0.21875 c -0.0886,-0.40104 -0.16407,-0.69792 -0.22656,-0.89063 -1.52605,0.42188 -3.06251,0.77865 -4.60938,1.07031 l -0.23437,-0.70312 c 1.16666,-1.10937 2.26041,-2.41145 3.28125,-3.90625 -1.65626,0.26563 -2.67709,0.4323 -3.0625,0.5 l -0.17188,-0.77344 c 1.26562,-1.51561 2.23177,-3.08332 2.89844,-4.70312 l 0.79687,0.25781 c -0.69792,1.52084 -1.54167,2.9297 -2.53125,4.22656 0.69792,-0.0781 1.57292,-0.20312 2.625,-0.375 0.23958,-0.32812 0.66666,-0.97134 1.28125,-1.92969 z m 7.875,11.08594 -8.27343,0 0,-0.78125 1.125,0 0,-12.36719 5.91406,0 0,12.36719 1.23437,0 z m -2.0625,-9.20313 0,-3.13281 -4.24218,0 0,3.13281 z m 0,4.11719 0,-3.29687 -4.24218,0 0,3.29687 z m 0,4.30469 0,-3.50781 -4.24218,0 0,3.50781 z m -6.09375,-0.86719 -0.75781,0.24219 c -0.0729,-0.58854 -0.23698,-1.3151 -0.49219,-2.17969 l 0.70313,-0.23437 c 0.26041,0.76041 0.4427,1.48437 0.54687,2.17187 z m -1.9375,1.34375 -0.83593,0.14844 c -0.0521,-1.23438 -0.1797,-2.33854 -0.38282,-3.3125 l 0.78125,-0.13281 c 0.18229,0.78646 0.32812,1.88541 0.4375,3.29687 z m -2.16406,-3.02344 c -0.26563,1.69792 -0.54167,2.94532 -0.82812,3.74219 l -0.82032,-0.30469 c 0.40104,-1.07291 0.70573,-2.29427 0.91407,-3.66406 z"
         style="font-style:normal;font-variant:normal;font-weight:normal;font-stretch:normal;font-family:Microsoft JhengHei;-inkscape-font-specification:Microsoft JhengHei"
         id="path3132"
         inkscape:connector-curvature="0" />
      <path
         d="m -494.20532,584.21832 -1.00781,0 c 1.55728,-2.5 2.33593,-5.0026 2.33593,-7.50781 0,-0.97916 -0.11198,-1.95051 -0.33593,-2.91406 -0.17709,-0.78124 -0.42449,-1.53124 -0.74219,-2.25 -0.20313,-0.46874 -0.6224,-1.24999 -1.25781,-2.34375 l 1.00781,0 c 0.97916,1.3073 1.70312,2.6198 2.17187,3.9375 0.40104,1.13542 0.60156,2.32292 0.60157,3.5625 -1e-5,1.40625 -0.26954,2.76562 -0.8086,4.07812 -0.53906,1.3125 -1.19401,2.45833 -1.96484,3.4375 z"
         style="font-size:16px"
         id="path3134"
         inkscape:connector-curvature="0" />
    </g>
    <g
       style="font-size:22px;font-style:normal;font-weight:normal;text-align:center;line-height:125%;letter-spacing:0px;word-spacing:0px;text-anchor:middle;fill:#000000;fill-opacity:1;stroke:none;font-family:Sans"
       id="text3094-1">
      <path
         d="m -443.0127,560.00427 0,-11.45312 1.51563,0 0,11.45312 z"
         style="font-size:16px"
         id="path3087" />
      <path
         d="m -438.83301,560.00427 0,-11.45312 4.32031,0 c 0.76042,10e-6 1.34114,0.0365 1.74219,0.10937 0.56249,0.0938 1.03385,0.27215 1.41406,0.53516 0.3802,0.26303 0.68619,0.63152 0.91797,1.10547 0.23176,0.47397 0.34765,0.9948 0.34766,1.5625 -10e-6,0.97396 -0.30991,1.79818 -0.92969,2.47265 -0.6198,0.67449 -1.73959,1.01173 -3.35937,1.01172 l -2.9375,0 0,4.65625 z m 1.51563,-6.00781 2.96093,0 c 0.97916,1e-5 1.67448,-0.18229 2.08594,-0.54688 0.41145,-0.36457 0.61718,-0.87759 0.61719,-1.53906 -10e-6,-0.47916 -0.1211,-0.88931 -0.36328,-1.23047 -0.2422,-0.34113 -0.56121,-0.56639 -0.95703,-0.67578 -0.25522,-0.0677 -0.72657,-0.10155 -1.41407,-0.10156 l -2.92968,0 z"
         style="font-size:16px"
         id="path3089" />
      <path
         d="m -418.94238,553.82458 -0.625,0.54688 c -0.23959,-0.58333 -0.66147,-1.28124 -1.26563,-2.09375 l 0,8.53906 -0.8125,0 0,-7.77344 c -0.70313,1.56772 -1.27865,2.6823 -1.72656,3.34375 l -0.57813,-0.67187 c 0.91146,-1.30729 1.65365,-2.91666 2.22657,-4.82813 l -2.03125,0 0,-0.78906 2.10937,0 0,-3.26562 0.8125,0 0,3.26562 1.61719,0 0,0.78906 -1.61719,0 0,0.1875 c 0.81771,0.97397 1.44791,1.89064 1.89063,2.75 z m 8.97656,-5.88281 -2.92969,0 0,1.21094 2.44531,0 0,3.49219 -8.125,0 0,-3.49219 2.41407,0 0,-1.21094 -2.85938,0 0,-0.78906 9.05469,0 z m -3.74219,1.21094 0,-1.21094 -1.63281,0 0,1.21094 z m 2.46094,0.74219 -1.64844,0 0,2 1.64844,0 z m -2.46094,2 0,-2 -1.63281,0 0,2 z m -2.45312,0 0,-2 -1.59375,0 0,2 z m 5.64843,2.625 -7.9375,0 0,-0.75782 7.9375,0 z m 0.57813,2.01562 -4.125,0 0,4.28125 -0.83594,0 0,-4.28125 -4.22656,0 0,-0.77344 9.1875,0 z m -5.96875,1.42188 c -0.98959,1.10417 -1.93751,1.94531 -2.84375,2.52343 l -0.5625,-0.63281 c 0.91145,-0.55208 1.83853,-1.36458 2.78125,-2.4375 z m 6.03125,1.9375 -0.59375,0.57031 c -0.63022,-0.75 -1.50783,-1.55989 -2.63281,-2.42969 l 0.55468,-0.57812 c 1.20312,0.96875 2.09374,1.78125 2.67188,2.4375 z"
         style="font-style:normal;font-variant:normal;font-weight:normal;font-stretch:normal;font-family:Microsoft JhengHei;-inkscape-font-specification:Microsoft JhengHei"
         id="path3091" />
      <path
         d="m -401.37207,551.97302 -5.8125,0 0,-4.79687 5.8125,0 z m -0.82031,-2.83594 0,-1.22656 -4.1875,0 0,1.22656 z m 0,2.07032 0,-1.32813 -4.1875,0 0,1.32813 z m 8.01562,-3.25 -2.99219,0 c -0.0938,0.46355 -0.25782,0.97397 -0.49218,1.53125 l 2.94531,0 0,6.85156 -3.82813,0 0.48438,0.5625 c -0.96355,1.02084 -1.83855,1.79948 -2.625,2.33594 l -0.60938,-0.57813 c 0.79166,-0.46354 1.67708,-1.23697 2.65625,-2.32031 l -1.52343,0 0,-6.85156 1.67968,0 c 0.1927,-0.41145 0.35937,-0.92187 0.5,-1.53125 l -2.67187,0 0,-0.75 6.47656,0 z m -1.34375,3.58593 0,-1.26562 -3.85156,0 0,1.26562 z m 0,2.03125 0,-1.3125 -3.85156,0 0,1.3125 z m 0,2.03125 0,-1.29687 -3.85156,0 0,1.29687 z m 1.63281,4.15625 -0.20312,0.82032 -3.29688,0.0234 c -1.94792,0 -3.3724,-0.056 -4.27343,-0.16796 -0.90105,-0.11198 -1.75782,-0.33594 -2.57032,-0.67188 -0.8125,-0.33594 -1.52864,-0.79557 -2.14843,-1.37891 -0.25001,0.96355 -0.51823,1.7474 -0.80469,2.35157 l -0.6875,-0.38282 c 0.65104,-1.39062 1.07812,-3.2526 1.28125,-5.58593 l 0.78125,0.10156 c -0.10938,1.0573 -0.23698,1.92969 -0.38281,2.61719 0.42708,0.5 0.99739,0.9375 1.71093,1.3125 l 0,-4.99219 -3.39062,0 0,-0.75 7.10937,0 0,0.75 -2.89843,0 0,2.08594 2.38281,0 0,0.8125 -2.38281,0 0,2.44531 c 0.79687,0.30729 1.73567,0.4974 2.8164,0.57031 1.08072,0.0729 2.51432,0.10938 4.30078,0.10938 0.95312,0 1.83853,-0.0234 2.65625,-0.0703 z m -0.30468,-1.05468 -0.49219,0.625 c -0.6771,-0.66146 -1.45053,-1.2474 -2.32031,-1.75782 l 0.41406,-0.65625 c 0.97915,0.60938 1.77863,1.20574 2.39844,1.78907 z"
         style="font-style:normal;font-variant:normal;font-weight:normal;font-stretch:normal;font-family:Microsoft JhengHei;-inkscape-font-specification:Microsoft JhengHei"
         id="path3093" />
      <path
         d="m -455.4502,583.81478 c -0.77604,-0.97916 -1.43229,-2.125 -1.96875,-3.4375 -0.53645,-1.31249 -0.80468,-2.67187 -0.80468,-4.07812 0,-1.23958 0.20052,-2.42708 0.60156,-3.5625 0.46875,-1.3177 1.19271,-2.6302 2.17187,-3.9375 l 1.00782,0 c -0.63022,1.08334 -1.04688,1.85678 -1.25,2.32031 -0.31771,0.71876 -0.56771,1.46876 -0.75,2.25 -0.22396,0.97397 -0.33594,1.95313 -0.33594,2.9375 0,2.50521 0.77864,5.00781 2.33594,7.50781 z"
         style="font-size:16px"
         id="path3095"
         inkscape:connector-curvature="0" />
      <path
         d="m -445.79395,579.09603 0,1.35157 -7.57031,0 c -0.0104,-0.33854 0.0443,-0.66407 0.16406,-0.97657 0.19271,-0.51562 0.50131,-1.02343 0.92579,-1.52343 0.42447,-0.5 1.03775,-1.07812 1.83984,-1.73438 1.24479,-1.02083 2.08593,-1.82942 2.52344,-2.42578 0.43749,-0.59635 0.65624,-1.16015 0.65625,-1.69141 -10e-6,-0.55728 -0.19923,-1.02733 -0.59766,-1.41015 -0.39844,-0.3828 -0.91797,-0.57421 -1.55859,-0.57422 -0.67709,10e-6 -1.21876,0.20313 -1.625,0.60937 -0.40626,0.40626 -0.61198,0.96876 -0.61719,1.6875 l -1.44531,-0.14843 c 0.099,-1.07812 0.47135,-1.89973 1.11718,-2.46485 0.64584,-0.56509 1.51302,-0.84764 2.60157,-0.84765 1.09895,1e-5 1.96874,0.3047 2.60937,0.91406 0.64062,0.60938 0.96093,1.36459 0.96094,2.26562 -10e-6,0.45835 -0.0938,0.90887 -0.28125,1.35157 -0.18751,0.44271 -0.49871,0.90886 -0.93359,1.39843 -0.43491,0.48959 -1.15756,1.16147 -2.16797,2.01563 -0.84376,0.70834 -1.38542,1.1888 -1.625,1.44141 -0.23959,0.2526 -0.43751,0.50651 -0.59375,0.76171 z"
         style="font-size:16px"
         id="path3097"
         inkscape:connector-curvature="0" />
      <path
         d="m -444.27832,574.79916 c 0,-1.35416 0.13932,-2.444 0.41797,-3.26953 0.27864,-0.82551 0.6927,-1.46223 1.24219,-1.91016 0.54947,-0.4479 1.24088,-0.67186 2.07421,-0.67187 0.61458,1e-5 1.15364,0.12371 1.61719,0.37109 0.46354,0.24741 0.84635,0.60418 1.14844,1.07031 0.30208,0.46616 0.53905,1.03387 0.71094,1.70313 0.17186,0.66928 0.2578,1.57162 0.25781,2.70703 -10e-6,1.34375 -0.13803,2.42839 -0.41406,3.25391 -0.27605,0.82552 -0.68881,1.46354 -1.23828,1.91406 -0.54949,0.45052 -1.2435,0.67578 -2.08204,0.67578 -1.10417,0 -1.97135,-0.39583 -2.60156,-1.1875 -0.75521,-0.95312 -1.13281,-2.50521 -1.13281,-4.65625 z m 1.44531,0 c 0,1.88021 0.22005,3.13151 0.66016,3.75391 0.4401,0.62239 0.98307,0.93359 1.6289,0.93359 0.64583,0 1.1888,-0.3125 1.62891,-0.9375 0.4401,-0.625 0.66015,-1.875 0.66016,-3.75 -10e-6,-1.88541 -0.22006,-3.13801 -0.66016,-3.75781 -0.44011,-0.61978 -0.98829,-0.92968 -1.64453,-0.92969 -0.64584,10e-6 -1.16146,0.27345 -1.54688,0.82031 -0.48437,0.69793 -0.72656,1.98699 -0.72656,3.86719 z"
         style="font-size:16px"
         id="path3099"
         inkscape:connector-curvature="0" />
      <path
         d="m -416.55957,580.87728 -10.28906,0 0,-0.82812 3.23437,0 c -0.27084,-2.59375 -0.86719,-5.45833 -1.78906,-8.59375 l 0.55469,-0.30469 -1.78907,0 0,-0.82812 4.75,0 c -0.22396,-0.97395 -0.54428,-1.91405 -0.96093,-2.82032 l 0.80468,-0.27343 c 0.38541,0.88022 0.73697,1.91147 1.05469,3.09375 l 4.17188,0 0,0.82812 -1.60938,0 0.50781,0.19531 c -0.46876,3.27605 -1.09897,6.17709 -1.89062,8.70313 l 3.25,0 z m -2.22656,-9.72656 -5.77344,0 c 0.86458,3.23438 1.47395,6.20053 1.82812,8.89844 l 2.0625,0 c 0.92187,-2.94791 1.54947,-5.91406 1.88282,-8.89844 z m -7.48438,-3.57031 c -0.20313,0.48439 -0.47657,1.06772 -0.82031,1.75 l -0.52344,1.00781 0,10.92188 -0.85156,0 0,-9.375 c -0.47917,0.77084 -1.07031,1.57813 -1.77344,2.42187 l -0.53125,-0.78906 c 1.48437,-1.7552 2.70052,-3.83593 3.64844,-6.24219 z"
         style="font-style:normal;font-variant:normal;font-weight:normal;font-stretch:normal;font-family:Microsoft JhengHei;-inkscape-font-specification:Microsoft JhengHei"
         id="path3101"
         inkscape:connector-curvature="0" />
      <path
         d="m -402.04395,568.46322 -10.99218,0 0,-0.84375 10.99218,0 z m 1.42188,8.60938 c -0.0156,0.72396 -0.10418,1.47005 -0.26563,2.23828 -0.16147,0.76823 -0.41147,1.25521 -0.75,1.46094 -0.33855,0.20572 -1.03126,0.30859 -2.07812,0.30859 -0.71876,0 -1.2422,-0.0169 -1.57031,-0.0508 -0.32814,-0.0339 -0.58725,-0.15755 -0.77735,-0.3711 -0.19011,-0.21354 -0.28516,-0.48697 -0.28515,-0.82031 l 0,-6.67187 -2.94532,0 c -0.0885,2.07292 -0.45964,3.73568 -1.11328,4.98828 -0.65365,1.2526 -1.83464,2.32161 -3.54297,3.20703 l -0.57812,-0.73438 c 1.19791,-0.53125 2.20703,-1.319 3.02734,-2.36328 0.82031,-1.04426 1.25651,-2.74348 1.3086,-5.09765 l -4.04688,0 0,-0.85938 13.4375,0 0,0.85938 -4.67187,0 0,6.59375 c -10e-6,0.19271 0.099,0.32552 0.29687,0.39843 0.19791,0.0729 0.56249,0.10938 1.09375,0.10938 1.03124,0 1.61197,-0.026 1.74219,-0.0781 0.13019,-0.0521 0.2565,-0.14062 0.37891,-0.26562 0.12238,-0.125 0.23436,-0.52083 0.33593,-1.1875 0.10155,-0.66666 0.15233,-1.32812 0.15235,-1.98438 z"
         style="font-style:normal;font-variant:normal;font-weight:normal;font-stretch:normal;font-family:Microsoft JhengHei;-inkscape-font-specification:Microsoft JhengHei"
         id="path3103"
         inkscape:connector-curvature="0" />
      <path
         d="m -392.4502,569.71322 c -1.73958,2.6823 -3.22135,4.67188 -4.44531,5.96875 0.90104,-0.16666 1.95312,-0.41926 3.15625,-0.75781 -0.0833,-0.24479 -0.21355,-0.58072 -0.39062,-1.00781 l 0.72656,-0.26563 c 0.49999,1.23959 0.79687,2.14063 0.89062,2.70313 l -0.76562,0.21875 c -0.0885,-0.40104 -0.16407,-0.69792 -0.22656,-0.89063 -1.52605,0.42188 -3.06251,0.77865 -4.60938,1.07031 l -0.23437,-0.70312 c 1.16666,-1.10937 2.26041,-2.41145 3.28125,-3.90625 -1.65626,0.26563 -2.67709,0.4323 -3.0625,0.5 l -0.17188,-0.77344 c 1.26562,-1.51561 2.23177,-3.08332 2.89844,-4.70312 l 0.79687,0.25781 c -0.69792,1.52084 -1.54167,2.9297 -2.53125,4.22656 0.69792,-0.0781 1.57292,-0.20311 2.625,-0.375 0.23958,-0.32811 0.66667,-0.97134 1.28125,-1.92969 z m 7.875,11.08594 -8.27343,0 0,-0.78125 1.125,0 0,-12.36719 5.91406,0 0,12.36719 1.23437,0 z m -2.0625,-9.20313 0,-3.13281 -4.24218,0 0,3.13281 z m 0,4.11719 0,-3.29687 -4.24218,0 0,3.29687 z m 0,4.30469 0,-3.50781 -4.24218,0 0,3.50781 z m -6.09375,-0.86719 -0.75781,0.24219 c -0.0729,-0.58854 -0.23698,-1.3151 -0.49219,-2.17969 l 0.70313,-0.23437 c 0.26041,0.76042 0.4427,1.48437 0.54687,2.17187 z m -1.9375,1.34375 -0.83593,0.14844 c -0.0521,-1.23437 -0.17969,-2.33854 -0.38282,-3.3125 l 0.78125,-0.13281 c 0.18229,0.78646 0.32812,1.88541 0.4375,3.29687 z m -2.16406,-3.02344 c -0.26563,1.69792 -0.54167,2.94532 -0.82812,3.74219 l -0.82032,-0.30469 c 0.40104,-1.07291 0.70573,-2.29426 0.91407,-3.66406 z"
         style="font-style:normal;font-variant:normal;font-weight:normal;font-stretch:normal;font-family:Microsoft JhengHei;-inkscape-font-specification:Microsoft JhengHei"
         id="path3105"
         inkscape:connector-curvature="0" />
      <path
         d="m -381.62207,583.81478 -1.00781,0 c 1.55729,-2.5 2.33593,-5.0026 2.33593,-7.50781 0,-0.97916 -0.11198,-1.95051 -0.33593,-2.91406 -0.17709,-0.78124 -0.42448,-1.53124 -0.74219,-2.25 -0.20313,-0.46874 -0.6224,-1.24999 -1.25781,-2.34375 l 1.00781,0 c 0.97916,1.3073 1.70312,2.6198 2.17187,3.9375 0.40104,1.13542 0.60156,2.32292 0.60157,3.5625 -10e-6,1.40625 -0.26954,2.76563 -0.8086,4.07812 -0.53906,1.3125 -1.19401,2.45834 -1.96484,3.4375 z"
         style="font-size:16px"
         id="path3107"
         inkscape:connector-curvature="0" />
    </g>
    <g
       style="font-size:22px;font-style:normal;font-weight:normal;text-align:center;line-height:125%;letter-spacing:0px;word-spacing:0px;text-anchor:middle;fill:#000000;fill-opacity:1;stroke:none;font-family:Sans"
       id="text3094-1-0">
      <path
         d="m -317.91699,559.39838 0,-10.10157 -3.77344,0 0,-1.35156 9.07813,0 0,1.35156 -3.78907,0 0,10.10157 z"
         style="font-size:16px"
         id="path3062" />
      <path
         d="m -302.87793,555.38275 1.51563,0.38281 c -0.31772,1.2448 -0.88934,2.19402 -1.71485,2.84766 -0.82553,0.65365 -1.83464,0.98047 -3.02734,0.98047 -1.23438,0 -2.23829,-0.2513 -3.01172,-0.75391 -0.77344,-0.5026 -1.36198,-1.23046 -1.76563,-2.18359 -0.40364,-0.95312 -0.60547,-1.97656 -0.60546,-3.07031 -10e-6,-1.1927 0.22786,-2.23307 0.68359,-3.1211 0.45573,-0.88801 1.10416,-1.56249 1.94531,-2.02343 0.84114,-0.46093 1.76692,-0.6914 2.77735,-0.69141 1.14582,10e-6 2.10936,0.29168 2.89062,0.875 0.78124,0.58334 1.32551,1.40365 1.63281,2.46094 l -1.49218,0.35156 c -0.26564,-0.83333 -0.65105,-1.4401 -1.15625,-1.82031 -0.50522,-0.3802 -1.14064,-0.57031 -1.90625,-0.57032 -0.88022,10e-6 -1.61589,0.21095 -2.20704,0.63282 -0.59115,0.42188 -1.00651,0.98829 -1.24609,1.69922 -0.23959,0.71094 -0.35938,1.44401 -0.35937,2.19921 -10e-6,0.97397 0.14192,1.82423 0.42578,2.55079 0.28385,0.72656 0.72525,1.26953 1.32422,1.6289 0.59895,0.35938 1.24739,0.53907 1.94531,0.53906 0.84895,10e-6 1.5677,-0.24479 2.15625,-0.73437 0.58853,-0.48958 0.98697,-1.21614 1.19531,-2.17969 z"
         style="font-size:16px"
         id="path3064" />
      <path
         d="m -299.4873,559.39838 0,-11.45313 4.32031,0 c 0.76041,10e-6 1.34114,0.0365 1.74219,0.10938 0.56249,0.0938 1.03384,0.27214 1.41406,0.53515 0.3802,0.26303 0.68619,0.63152 0.91797,1.10547 0.23176,0.47397 0.34764,0.9948 0.34765,1.5625 -1e-5,0.97397 -0.3099,1.79818 -0.92968,2.47266 -0.6198,0.67448 -1.7396,1.01172 -3.35938,1.01172 l -2.9375,0 0,4.65625 z m 1.51562,-6.00782 2.96094,0 c 0.97916,10e-6 1.67447,-0.18228 2.08594,-0.54687 0.41145,-0.36458 0.61717,-0.8776 0.61718,-1.53906 -1e-5,-0.47916 -0.1211,-0.88932 -0.36328,-1.23047 -0.24219,-0.34114 -0.5612,-0.5664 -0.95703,-0.67578 -0.25521,-0.0677 -0.72657,-0.10156 -1.41406,-0.10157 l -2.92969,0 z"
         style="font-size:16px"
         id="path3066" />
      <path
         d="m -279.59668,553.21869 -0.625,0.54687 c -0.23959,-0.58332 -0.66146,-1.28124 -1.26562,-2.09375 l 0,8.53907 -0.8125,0 0,-7.77344 c -0.70313,1.56771 -1.27865,2.68229 -1.72657,3.34375 l -0.57812,-0.67188 c 0.91145,-1.30728 1.65364,-2.91666 2.22656,-4.82812 l -2.03125,0 0,-0.78906 2.10938,0 0,-3.26563 0.8125,0 0,3.26563 1.61718,0 0,0.78906 -1.61718,0 0,0.1875 c 0.8177,0.97397 1.44791,1.89063 1.89062,2.75 z m 8.97656,-5.88281 -2.92968,0 0,1.21093 2.44531,0 0,3.49219 -8.125,0 0,-3.49219 2.41406,0 0,-1.21093 -2.85937,0 0,-0.78907 9.05468,0 z m -3.74218,1.21093 0,-1.21093 -1.63282,0 0,1.21093 z m 2.46093,0.74219 -1.64843,0 0,2 1.64843,0 z m -2.46093,2 0,-2 -1.63282,0 0,2 z m -2.45313,0 0,-2 -1.59375,0 0,2 z m 5.64844,2.625 -7.9375,0 0,-0.75781 7.9375,0 z m 0.57812,2.01563 -4.125,0 0,4.28125 -0.83593,0 0,-4.28125 -4.22657,0 0,-0.77344 9.1875,0 z m -5.96875,1.42187 c -0.98959,1.10417 -1.9375,1.94531 -2.84375,2.52344 l -0.5625,-0.63281 c 0.91145,-0.55209 1.83854,-1.36459 2.78125,-2.4375 z m 6.03125,1.9375 -0.59375,0.57031 c -0.63022,-0.75 -1.50782,-1.55989 -2.63281,-2.42968 l 0.55469,-0.57813 c 1.20311,0.96875 2.09373,1.78125 2.67187,2.4375 z"
         style="font-style:normal;font-variant:normal;font-weight:normal;font-stretch:normal;font-family:Microsoft JhengHei;-inkscape-font-specification:Microsoft JhengHei"
         id="path3068" />
      <path
         d="m -262.02637,551.36713 -5.8125,0 0,-4.79688 5.8125,0 z m -0.82031,-2.83594 0,-1.22656 -4.1875,0 0,1.22656 z m 0,2.07031 0,-1.32812 -4.1875,0 0,1.32812 z m 8.01563,-3.25 -2.99219,0 c -0.0938,0.46355 -0.25783,0.97397 -0.49219,1.53125 l 2.94531,0 0,6.85156 -3.82812,0 0.48437,0.5625 c -0.96355,1.02084 -1.83855,1.79948 -2.625,2.33594 l -0.60937,-0.57812 c 0.79166,-0.46354 1.67707,-1.23698 2.65625,-2.32032 l -1.52344,0 0,-6.85156 1.67969,0 c 0.1927,-0.41145 0.35936,-0.92186 0.5,-1.53125 l -2.67188,0 0,-0.75 6.47657,0 z m -1.34375,3.58594 0,-1.26563 -3.85157,0 0,1.26563 z m 0,2.03125 0,-1.3125 -3.85157,0 0,1.3125 z m 0,2.03125 0,-1.29688 -3.85157,0 0,1.29688 z m 1.63281,4.15625 -0.20313,0.82031 -3.29687,0.0234 c -1.94793,0 -3.37241,-0.056 -4.27344,-0.16797 -0.90105,-0.11198 -1.75782,-0.33594 -2.57031,-0.67187 -0.81251,-0.33594 -1.52865,-0.79558 -2.14844,-1.37891 -0.25,0.96354 -0.51823,1.74739 -0.80469,2.35156 l -0.6875,-0.38281 c 0.65104,-1.39062 1.07813,-3.2526 1.28125,-5.58594 l 0.78125,0.10156 c -0.10938,1.0573 -0.23698,1.92969 -0.38281,2.61719 0.42708,0.5 0.99739,0.9375 1.71094,1.3125 l 0,-4.99219 -3.39063,0 0,-0.75 7.10938,0 0,0.75 -2.89844,0 0,2.08594 2.38281,0 0,0.8125 -2.38281,0 0,2.44531 c 0.79687,0.3073 1.73567,0.4974 2.81641,0.57032 1.08072,0.0729 2.51431,0.10937 4.30078,0.10937 0.95311,0 1.83853,-0.0234 2.65625,-0.0703 z m -0.30469,-1.05469 -0.49219,0.625 c -0.67709,-0.66146 -1.45053,-1.24739 -2.32031,-1.75781 l 0.41406,-0.65625 c 0.97916,0.60938 1.77863,1.20573 2.39844,1.78906 z"
         style="font-style:normal;font-variant:normal;font-weight:normal;font-stretch:normal;font-family:Microsoft JhengHei;-inkscape-font-specification:Microsoft JhengHei"
         id="path3070" />
      <path
         d="m -324.55762,583.20889 c -0.77604,-0.97917 -1.43229,-2.125 -1.96875,-3.4375 -0.53646,-1.3125 -0.80469,-2.67187 -0.80468,-4.07813 -10e-6,-1.23957 0.20051,-2.42707 0.60156,-3.5625 0.46875,-1.3177 1.1927,-2.63019 2.17187,-3.9375 l 1.00782,0 c -0.63022,1.08335 -1.04688,1.85678 -1.25,2.32032 -0.31772,0.71875 -0.56772,1.46875 -0.75,2.25 -0.22397,0.97396 -0.33594,1.95313 -0.33594,2.9375 0,2.50521 0.77864,5.00781 2.33594,7.50781 z"
         style="font-size:16px"
         id="path3072"
         inkscape:connector-curvature="0" />
      <path
         d="m -314.90137,578.49014 0,1.35156 -7.57031,0 c -0.0104,-0.33854 0.0443,-0.66406 0.16406,-0.97656 0.19271,-0.51563 0.5013,-1.02344 0.92578,-1.52344 0.42448,-0.5 1.03776,-1.07812 1.83985,-1.73437 1.24478,-1.02083 2.08593,-1.82943 2.52344,-2.42579 0.43749,-0.59634 0.65624,-1.16014 0.65625,-1.6914 -10e-6,-0.55728 -0.19923,-1.02734 -0.59766,-1.41016 -0.39844,-0.3828 -0.91797,-0.57421 -1.55859,-0.57422 -0.67709,10e-6 -1.21876,0.20314 -1.625,0.60938 -0.40626,0.40626 -0.61199,0.96876 -0.61719,1.6875 l -1.44531,-0.14844 c 0.099,-1.07811 0.47135,-1.89973 1.11718,-2.46484 0.64583,-0.5651 1.51302,-0.84765 2.60157,-0.84766 1.09895,1e-5 1.96874,0.3047 2.60937,0.91406 0.64062,0.60939 0.96093,1.3646 0.96094,2.26563 -10e-6,0.45834 -0.0938,0.90886 -0.28125,1.35156 -0.18751,0.44272 -0.49871,0.90886 -0.9336,1.39844 -0.4349,0.48959 -1.15755,1.16146 -2.16796,2.01562 -0.84376,0.70834 -1.38542,1.18881 -1.625,1.44141 -0.23959,0.25261 -0.43751,0.50651 -0.59375,0.76172 z"
         style="font-size:16px"
         id="path3074"
         inkscape:connector-curvature="0" />
      <path
         d="m -313.38574,574.19326 c 0,-1.35416 0.13932,-2.444 0.41797,-3.26953 0.27864,-0.82551 0.6927,-1.46223 1.24218,-1.91015 0.54948,-0.44791 1.24089,-0.67187 2.07422,-0.67188 0.61458,1e-5 1.15364,0.12371 1.61719,0.37109 0.46354,0.24741 0.84635,0.60418 1.14844,1.07032 0.30207,0.46615 0.53905,1.03386 0.71094,1.70312 0.17186,0.66928 0.2578,1.57162 0.25781,2.70703 -10e-6,1.34376 -0.13803,2.42839 -0.41406,3.25391 -0.27605,0.82552 -0.68881,1.46354 -1.23829,1.91406 -0.54948,0.45052 -1.24349,0.67578 -2.08203,0.67578 -1.10417,0 -1.97135,-0.39583 -2.60156,-1.1875 -0.75521,-0.95312 -1.13281,-2.5052 -1.13281,-4.65625 z m 1.44531,0 c 0,1.88022 0.22005,3.13152 0.66016,3.75391 0.4401,0.6224 0.98307,0.93359 1.6289,0.93359 0.64583,0 1.1888,-0.3125 1.62891,-0.9375 0.4401,-0.62499 0.66015,-1.87499 0.66016,-3.75 -10e-6,-1.88541 -0.22006,-3.13801 -0.66016,-3.75781 -0.44011,-0.61978 -0.98829,-0.92968 -1.64453,-0.92969 -0.64584,10e-6 -1.16146,0.27345 -1.54688,0.82032 -0.48437,0.69792 -0.72656,1.98698 -0.72656,3.86718 z"
         style="font-size:16px"
         id="path3076"
         inkscape:connector-curvature="0" />
      <path
         d="m -285.66699,580.27139 -10.28906,0 0,-0.82813 3.23437,0 c -0.27084,-2.59374 -0.86719,-5.45832 -1.78906,-8.59375 l 0.55469,-0.30468 -1.78907,0 0,-0.82813 4.75,0 c -0.22397,-0.97395 -0.54428,-1.91405 -0.96093,-2.82031 l 0.80468,-0.27344 c 0.38541,0.88022 0.73697,1.91147 1.05469,3.09375 l 4.17188,0 0,0.82813 -1.60938,0 0.50781,0.19531 c -0.46876,3.27605 -1.09897,6.17708 -1.89062,8.70312 l 3.25,0 z m -2.22656,-9.72656 -5.77344,0 c 0.86457,3.23438 1.47395,6.20052 1.82812,8.89843 l 2.0625,0 c 0.92187,-2.94791 1.54947,-5.91405 1.88282,-8.89843 z m -7.48438,-3.57032 c -0.20313,0.48439 -0.47657,1.06772 -0.82031,1.75 l -0.52344,1.00782 0,10.92187 -0.85156,0 0,-9.375 c -0.47917,0.77084 -1.07032,1.57813 -1.77344,2.42188 l -0.53125,-0.78907 c 1.48437,-1.7552 2.70052,-3.83592 3.64844,-6.24218 z"
         style="font-style:normal;font-variant:normal;font-weight:normal;font-stretch:normal;font-family:Microsoft JhengHei;-inkscape-font-specification:Microsoft JhengHei"
         id="path3078"
         inkscape:connector-curvature="0" />
      <path
         d="m -271.15137,567.85733 -10.99218,0 0,-0.84375 10.99218,0 z m 1.42188,8.60937 c -0.0156,0.72396 -0.10418,1.47005 -0.26563,2.23828 -0.16147,0.76823 -0.41147,1.25521 -0.75,1.46094 -0.33855,0.20573 -1.03126,0.30859 -2.07812,0.30859 -0.71876,0 -1.2422,-0.0169 -1.57031,-0.0508 -0.32814,-0.0339 -0.58725,-0.15755 -0.77735,-0.37109 -0.19011,-0.21354 -0.28516,-0.48698 -0.28515,-0.82031 l 0,-6.67188 -2.94532,0 c -0.0885,2.07292 -0.45964,3.73568 -1.11328,4.98828 -0.65365,1.25261 -1.83464,2.32162 -3.54297,3.20703 l -0.57812,-0.73437 c 1.19791,-0.53125 2.20703,-1.31901 3.02734,-2.36328 0.82031,-1.04427 1.25651,-2.74349 1.3086,-5.09766 l -4.04688,0 0,-0.85937 13.4375,0 0,0.85937 -4.67187,0 0,6.59375 c -10e-6,0.19271 0.0989,0.32552 0.29687,0.39844 0.19791,0.0729 0.56249,0.10937 1.09375,0.10937 1.03124,0 1.61197,-0.026 1.74219,-0.0781 0.13019,-0.0521 0.25649,-0.14063 0.3789,-0.26563 0.12239,-0.125 0.23437,-0.52083 0.33594,-1.1875 0.10155,-0.66666 0.15233,-1.32812 0.15235,-1.98437 z"
         style="font-style:normal;font-variant:normal;font-weight:normal;font-stretch:normal;font-family:Microsoft JhengHei;-inkscape-font-specification:Microsoft JhengHei"
         id="path3080"
         inkscape:connector-curvature="0" />
      <path
         d="m -261.55762,569.10733 c -1.73959,2.6823 -3.22136,4.67188 -4.44531,5.96875 0.90104,-0.16667 1.95312,-0.41927 3.15625,-0.75782 -0.0833,-0.24478 -0.21355,-0.58072 -0.39062,-1.00781 l 0.72656,-0.26562 c 0.49999,1.23958 0.79687,2.14063 0.89062,2.70312 l -0.76562,0.21875 c -0.0885,-0.40104 -0.16407,-0.69791 -0.22656,-0.89062 -1.52605,0.42188 -3.06251,0.77865 -4.60938,1.07031 l -0.23437,-0.70313 c 1.16666,-1.10937 2.26041,-2.41145 3.28125,-3.90625 -1.65626,0.26564 -2.67709,0.4323 -3.0625,0.5 l -0.17188,-0.77343 c 1.26562,-1.51562 2.23177,-3.08333 2.89844,-4.70313 l 0.79687,0.25781 c -0.69792,1.52085 -1.54167,2.9297 -2.53125,4.22657 0.69792,-0.0781 1.57292,-0.20312 2.625,-0.375 0.23958,-0.32812 0.66666,-0.97135 1.28125,-1.92969 z m 7.875,11.08593 -8.27343,0 0,-0.78125 1.125,0 0,-12.36718 5.91406,0 0,12.36718 1.23437,0 z m -2.0625,-9.20312 0,-3.13281 -4.24218,0 0,3.13281 z m 0,4.11719 0,-3.29688 -4.24218,0 0,3.29688 z m 0,4.30468 0,-3.50781 -4.24218,0 0,3.50781 z m -6.09375,-0.86718 -0.75781,0.24218 c -0.0729,-0.58854 -0.23698,-1.3151 -0.49219,-2.17968 l 0.70313,-0.23438 c 0.26041,0.76042 0.4427,1.48438 0.54687,2.17188 z m -1.9375,1.34375 -0.83593,0.14843 c -0.0521,-1.23437 -0.1797,-2.33854 -0.38282,-3.3125 l 0.78125,-0.13281 c 0.18229,0.78646 0.32812,1.88542 0.4375,3.29688 z m -2.16406,-3.02344 c -0.26563,1.69792 -0.54167,2.94531 -0.82812,3.74219 l -0.82032,-0.30469 c 0.40104,-1.07292 0.70573,-2.29427 0.91407,-3.66406 z"
         style="font-style:normal;font-variant:normal;font-weight:normal;font-stretch:normal;font-family:Microsoft JhengHei;-inkscape-font-specification:Microsoft JhengHei"
         id="path3082"
         inkscape:connector-curvature="0" />
      <path
         d="m -250.72949,583.20889 -1.00781,0 c 1.55728,-2.5 2.33593,-5.0026 2.33593,-7.50781 0,-0.97917 -0.11198,-1.95052 -0.33593,-2.91407 -0.17709,-0.78124 -0.42449,-1.53124 -0.74219,-2.25 -0.20313,-0.46874 -0.6224,-1.24999 -1.25781,-2.34375 l 1.00781,0 c 0.97916,1.30731 1.70312,2.6198 2.17187,3.9375 0.40104,1.13543 0.60156,2.32293 0.60157,3.5625 -1e-5,1.40626 -0.26954,2.76563 -0.8086,4.07813 -0.53906,1.3125 -1.19401,2.45833 -1.96484,3.4375 z"
         style="font-size:16px"
         id="path3084"
         inkscape:connector-curvature="0" />
    </g>
    <g
       style="font-size:22px;font-style:normal;font-weight:normal;text-align:center;line-height:125%;letter-spacing:0px;word-spacing:0px;text-anchor:middle;fill:#000000;fill-opacity:1;stroke:none;font-family:Sans"
       id="text3094-1-0-7">
      <path
         d="m -122.83599,556.74915 c -0.11459,0.34897 -0.32813,0.89844 -0.64062,1.64843 l -0.47656,1.10938 0,10.99219 -0.82032,0 0,-9.39844 c -0.59896,1.04688 -1.15885,1.875 -1.67968,2.48437 l -0.46094,-0.76562 c 1.11979,-1.33854 2.23437,-3.46874 3.34375,-6.39063 z m 10,2.19531 -4.71875,0 0,1.89062 3.9375,0 0,4.125 -4.01562,0 c -0.0886,1.28646 -0.35678,2.31511 -0.80469,3.08594 1.39061,0.79688 3.25259,1.34115 5.58594,1.63281 l -0.32031,0.80469 c -2.30731,-0.27604 -4.22658,-0.86458 -5.75782,-1.76562 -0.96876,1.03125 -2.3073,1.63541 -4.01562,1.8125 l -0.33594,-0.75782 c 1.65624,-0.21875 2.87239,-0.72916 3.64844,-1.53125 -0.98438,-0.72395 -1.7474,-1.48176 -2.28906,-2.27343 l 0.70312,-0.39844 c 0.44791,0.65104 1.1302,1.32292 2.04688,2.01562 0.37499,-0.5677 0.60936,-1.4427 0.70312,-2.625 l -3.95312,0 0,-4.125 4.01562,0 0,-1.89062 -4.52344,0 0,-0.78125 4.52344,0 0,-1.61719 0.85156,0 0,1.61719 4.71875,0 z m -1.61718,5.21875 0,-2.53125 -3.08594,0 c -1e-5,0.82813 -0.0156,1.67188 -0.0469,2.53125 z m -3.98438,-2.53125 -3.11719,0 0,2.53125 3.08594,0 c 0.0365,-0.92708 0.0469,-1.77083 0.0312,-2.53125 z"
         style="font-style:normal;font-variant:normal;font-weight:normal;font-stretch:normal;font-family:Microsoft JhengHei;-inkscape-font-specification:Microsoft JhengHei"
         id="path3031" />
      <path
         d="m -97.601612,569.2804 c -1.4e-5,0.43229 -0.154962,0.73437 -0.464844,0.90625 -0.309909,0.17187 -1.006523,0.25781 -2.089844,0.25781 -0.2448,0 -0.48178,-0.005 -0.71094,-0.0156 l -0.25781,-0.875 c 0.39582,0.0312 0.78124,0.0469 1.15625,0.0469 0.760404,0 1.203112,-0.0312 1.328125,-0.0937 0.124987,-0.0625 0.187487,-0.16406 0.1875,-0.30469 l 0,-3.85937 -4.523435,0 0,4.6875 -0.86719,0 0,-4.6875 -4.5625,0 c -0.25521,2.19271 -0.80469,3.87239 -1.64844,5.03906 l -0.75,-0.52344 c 1.07813,-1.59375 1.61719,-3.51562 1.61719,-5.76562 l 0,-7.34375 11.585938,0 z m -0.851563,-8.75 0,-2.91407 -4.523435,0 0,2.91407 z m -5.390625,0 0,-2.91407 -4.47656,0 0,2.91407 z m 5.390625,3.98437 0,-3.10937 -4.523435,0 0,3.10937 z m -5.390625,0 0,-3.10937 -4.47656,0 0,3.10937 z"
         style="font-style:normal;font-variant:normal;font-weight:normal;font-stretch:normal;font-family:Microsoft JhengHei;-inkscape-font-specification:Microsoft JhengHei"
         id="path3033" />
      <path
         d="m -81.12505,558.38196 c -0.54168,0.76563 -1.04168,1.3698 -1.5,1.8125 l -0.609375,-0.57813 c 0.411446,-0.41665 0.799466,-0.86978 1.164063,-1.35937 l -5.851563,0 c -0.432299,0.54688 -0.919277,1.02605 -1.460937,1.4375 l -0.554688,-0.55469 c 0.91666,-0.68749 1.690097,-1.62759 2.320313,-2.82031 l 0.78125,0.27344 -0.507813,0.88281 6.21875,0 z m -9.210937,-0.46094 -4.03125,0 0,-0.76562 4.03125,0 z m 9.546875,3.39063 -0.351563,0.78125 c -2.046887,-0.30208 -3.640636,-0.92448 -4.78125,-1.86719 -0.916675,0.88021 -2.138028,1.48699 -3.664062,1.82031 l -0.429688,-0.76562 c 1.963534,-0.30208 3.3177,-1.10156 4.0625,-2.39844 l 0.875,0.15625 c -0.03126,0.13022 -0.153656,0.33855 -0.367187,0.625 1.078113,0.88542 2.630195,1.4349 4.65625,1.64844 z m -9.421875,-0.50782 -4.476563,0 0,-0.80468 4.476563,0 z m 7.023437,7.375 -6.351562,0 0.398437,0.52344 c -1.651046,0.83333 -3.401045,1.44271 -5.25,1.82813 l -0.414062,-0.75782 c 1.713539,-0.28646 3.341141,-0.8177 4.882812,-1.59375 l -2.484375,0 0,-5.85937 9.21875,0 z m -0.828125,-4.19531 0,-0.91406 -7.539062,0 0,0.91406 z m 0,1.71094 0,-0.99219 -7.539062,0 0,0.99219 z m 0,1.72656 0,-1.00781 -7.539062,0 0,1.00781 z m 3.132813,2.39063 -0.382813,0.73437 c -1.557304,-0.58333 -3.104178,-1.03125 -4.640625,-1.34375 l 0.398438,-0.71875 c 1.661446,0.33854 3.203111,0.78125 4.625,1.32813 z"
         style="font-style:normal;font-variant:normal;font-weight:normal;font-stretch:normal;font-family:Microsoft JhengHei;-inkscape-font-specification:Microsoft JhengHei"
         id="path3035" />
      <path
         d="m -72.304737,562.42883 -2.46875,0 0,7.98438 -0.828125,0 0,-7.98438 -2.960938,0 0,-0.76562 2.960938,0 0,-5.28125 0.828125,0 0,5.28125 2.46875,0 z m 7.5,3.63282 -1.648438,0.32031 0,4.0625 -0.8125,0 0,-3.89844 -4.960937,0.92969 -0.109375,-0.80469 5.070312,-0.96094 0,-9.28125 0.8125,0 0,9.125 1.539063,-0.28906 z m -7.296875,-8.25 c -0.343758,1.1823 -0.731778,2.17969 -1.164063,2.99218 l -0.765625,-0.375 c 0.468744,-0.78645 0.867181,-1.75519 1.195313,-2.90625 z m -4.445313,2.57031 -0.796875,0.32031 c -0.182294,-0.78124 -0.572918,-1.73436 -1.171875,-2.85937 l 0.71875,-0.32032 c 0.604164,1.07293 1.020831,2.02605 1.25,2.85938 z m 8.398438,-0.58594 -0.625,0.61719 c -0.645844,-0.72916 -1.502614,-1.45832 -2.570313,-2.1875 l 0.554688,-0.59375 c 0.885407,0.56251 1.765614,1.28386 2.640625,2.16406 z m -0.273438,4.3125 -0.625,0.64063 c -0.541677,-0.80729 -1.414072,-1.69791 -2.617187,-2.67188 l 0.601562,-0.58594 c 1.036449,0.83855 1.916656,1.71095 2.640625,2.61719 z m -3.804687,1.95313 -0.835938,0.27343 c -0.125006,-0.72395 -0.455735,-1.63541 -0.992187,-2.73437 l 0.742187,-0.25781 c 0.536452,1.10417 0.89843,2.01042 1.085938,2.71875 z m -4.226563,-2.47657 c -0.375003,1.82292 -0.869794,3.32553 -1.484375,4.50782 l -0.804687,-0.35157 c 0.624998,-1.15104 1.138018,-2.61718 1.539062,-4.39843 z"
         style="font-style:normal;font-variant:normal;font-weight:normal;font-stretch:normal;font-family:Microsoft JhengHei;-inkscape-font-specification:Microsoft JhengHei"
         id="path3037" />
      <path
         d="m -56.0938,572.36633 c -1.739585,-1.98958 -2.609376,-4.44531 -2.609375,-7.36718 -10e-7,-2.9375 0.86979,-5.43229 2.609375,-7.48438 l 1.1875,0 c -1.770836,2.14064 -2.656252,4.63022 -2.65625,7.46875 -2e-6,2.82292 0.880206,5.28385 2.640625,7.38281 z"
         style="font-style:normal;font-variant:normal;font-weight:normal;font-stretch:normal;font-family:Microsoft JhengHei;-inkscape-font-specification:Microsoft JhengHei"
         id="path3039" />
      <path
         d="m -41.867237,561.42102 -0.820313,0 0,-3.82031 -8.109375,0 0,3.82031 -0.820312,0 0,-4.60156 9.75,0 z m -1.828125,-2.07812 -6.140625,0 0,-0.78125 6.140625,0 z m 0,1.75781 -6.140625,0 0,-0.76563 6.140625,0 z m 3.90625,1.9375 -7.15625,0 0,7.375 -0.796875,0 0,-1.74219 c -2.119797,0.33333 -4.054691,0.57292 -5.804688,0.71875 l -0.304687,-0.76562 c 0.249999,-0.0104 0.739582,-0.0521 1.46875,-0.125 l 0,-5.46094 -1.3125,0 0,-0.76563 13.90625,0 z m -7.953125,1.03906 0,-1.03906 -3.835938,0 0,1.03906 z m 0,1.9375 0,-1.14844 -3.835938,0 0,1.14844 z m 0,1.82813 0,-1.07813 -3.835938,0 0,1.61719 c 1.619787,-0.17708 2.898432,-0.35677 3.835938,-0.53906 z m 8.015625,1.95312 -0.414063,0.6875 c -1.067721,-0.40104 -2.039075,-0.94531 -2.914062,-1.63281 -0.958344,0.71875 -1.914072,1.23958 -2.867188,1.5625 l -0.554687,-0.58594 c 0.979157,-0.33333 1.90624,-0.82552 2.78125,-1.47656 -0.994802,-1.01562 -1.76303,-2.16667 -2.304688,-3.45313 l -0.304687,0 0,-0.78906 5.875,0 c -0.322931,1.76042 -0.994805,3.16407 -2.015625,4.21094 0.70832,0.5625 1.614569,1.05469 2.71875,1.47656 z m -1.679688,-4.89844 -3.710937,0 c 0.515615,1.14063 1.197906,2.11198 2.046875,2.91407 0.729154,-0.71354 1.283841,-1.6849 1.664062,-2.91407 z"
         style="font-style:normal;font-variant:normal;font-weight:normal;font-stretch:normal;font-family:Microsoft JhengHei;-inkscape-font-specification:Microsoft JhengHei"
         id="path3041" />
      <path
         d="m -23.664112,569.79602 -0.570313,0.71875 c -1.718762,-1.09896 -3.092459,-2.37109 -4.121093,-3.81641 -1.028656,-1.4453 -1.795582,-3.23567 -2.300782,-5.37109 -0.64584,3.7448 -2.825526,6.79167 -6.539062,9.14063 l -0.546875,-0.72657 c 0.942706,-0.59895 1.85156,-1.3177 2.726562,-2.15625 0.874996,-0.83854 1.598953,-1.72265 2.171875,-2.65234 0.572911,-0.92968 1.015618,-2.20703 1.328125,-3.83203 l -5.9375,0 0,-0.82813 6.09375,0 c 0.16666,-1.31249 0.257805,-2.60936 0.273438,-3.89062 l 0.914062,0 c -0.05209,1.39584 -0.153654,2.69272 -0.304687,3.89062 l 6.554687,0 0,0.82813 -5.929687,0 c 0.572907,2.28646 1.361969,4.07683 2.367187,5.37109 1.005196,1.29427 2.278633,2.40235 3.820313,3.32422 z"
         style="font-style:normal;font-variant:normal;font-weight:normal;font-stretch:normal;font-family:Microsoft JhengHei;-inkscape-font-specification:Microsoft JhengHei"
         id="path3043" />
      <path
         d="m -12.351612,569.61633 -1.40625,0 0,-8.96093 c -0.338546,0.32292 -0.782556,0.64584 -1.332031,0.96875 -0.549482,0.32292 -1.042971,0.56511 -1.480469,0.72656 l 0,-1.35938 c 0.786456,-0.36978 1.473955,-0.8177 2.0625,-1.34375 0.588537,-0.52603 1.005203,-1.03644 1.25,-1.53125 l 0.90625,0 z"
         style="font-size:16px"
         id="path3045" />
      <path
         d="m -4.2344246,569.61633 0,-2.74218 -4.96875,0 0,-1.28907 5.2265625,-7.42187 1.1484375,0 0,7.42187 1.546875,0 0,1.28907 -1.546875,0 0,2.74218 z m 0,-4.03125 0,-5.16406 -3.5859375,5.16406 z"
         style="font-size:16px"
         id="path3047" />
      <path
         d="m 7.4608879,560.9679 -1.3984375,0.10937 c -0.1250064,-0.55207 -0.3020896,-0.95312 -0.53125,-1.20312 -0.380214,-0.40104 -0.8489635,-0.60156 -1.40625,-0.60157 -0.4479208,1e-5 -0.8411496,0.12501 -1.1796875,0.375 -0.4427113,0.32293 -0.7916693,0.79428 -1.046875,1.41407 -0.2552105,0.6198 -0.3880228,1.50261 -0.3984375,2.64843 0.3385393,-0.51562 0.7526014,-0.89843 1.2421875,-1.14843 0.4895796,-0.25 1.0025999,-0.375 1.5390625,-0.375 0.9374943,0 1.7356706,0.34505 2.3945313,1.03515 0.6588463,0.69011 0.988273,1.58204 0.9882812,2.67578 -8.2e-6,0.71876 -0.1549559,1.38672 -0.4648437,2.00391 -0.3099033,0.61719 -0.7356841,1.08984 -1.2773438,1.41797 -0.5416725,0.32812 -1.1562553,0.49219 -1.84375,0.49219 -1.1718784,0 -2.1276066,-0.43099 -2.8671875,-1.29297 -0.7395843,-0.86198 -1.10937559,-2.28255 -1.10937499,-4.26172 -6e-7,-2.21354 0.40885316,-3.82291 1.22656249,-4.82813 0.7135391,-0.87499 1.6744757,-1.31249 2.8828125,-1.3125 0.9010361,1e-5 1.6393166,0.25262 2.2148438,0.75782 0.5755133,0.50521 0.920565,1.20313 1.0351562,2.09375 z m -5.7421875,4.9375 c -2.2e-6,0.48437 0.1028623,0.94791 0.3085938,1.39062 0.2057264,0.44271 0.4934865,0.77995 0.8632812,1.01172 0.3697879,0.23177 0.7578084,0.34766 1.1640625,0.34766 0.5937449,0 1.104161,-0.23959 1.53125,-0.71875 0.4270768,-0.47917 0.6406183,-1.13021 0.640625,-1.95313 -6.7e-6,-0.79166 -0.210944,-1.41536 -0.6328125,-1.87109 -0.4218807,-0.45573 -0.9531301,-0.68359 -1.59375,-0.6836 -0.6354205,1e-5 -1.1744825,0.22787 -1.6171875,0.6836 -0.4427108,0.45573 -0.6640647,1.05339 -0.6640625,1.79297 z"
         style="font-size:16px"
         id="path3049" />
      <path
         d="m 9.0702629,563.9679 c -7e-7,-1.35416 0.1393221,-2.44401 0.4179688,-3.26954 0.2786444,-0.82551 0.6927063,-1.46222 1.2421873,-1.91015 0.549476,-0.44791 1.240882,-0.67187 2.074219,-0.67188 0.614578,1e-5 1.15364,0.12371 1.617187,0.3711 0.463536,0.2474 0.846348,0.60417 1.148438,1.07031 0.302076,0.46615 0.539055,1.03386 0.710937,1.70312 0.171867,0.66928 0.257805,1.57163 0.257813,2.70704 -8e-6,1.34375 -0.138029,2.42838 -0.414063,3.2539 -0.276049,0.82552 -0.688809,1.46354 -1.238281,1.91406 -0.549485,0.45053 -1.243495,0.67579 -2.082031,0.67579 -1.10417,0 -1.971357,-0.39584 -2.601563,-1.1875 -0.755209,-0.95313 -1.1328128,-2.50521 -1.1328121,-4.65625 z m 1.4453121,0 c -2e-6,1.88021 0.22005,3.13151 0.660157,3.7539 0.440101,0.6224 0.983069,0.9336 1.628906,0.9336 0.645828,0 1.188796,-0.3125 1.628906,-0.9375 0.440098,-0.625 0.66015,-1.875 0.660156,-3.75 -6e-6,-1.88541 -0.220058,-3.13802 -0.660156,-3.75782 -0.44011,-0.61978 -0.988286,-0.92967 -1.644531,-0.92968 -0.645837,10e-6 -1.161462,0.27344 -1.546875,0.82031 -0.484377,0.69792 -0.726565,1.98698 -0.726563,3.86719 z"
         style="font-size:16px"
         id="path3051" />
      <path
         d="m 36.789013,570.04602 -10.289063,0 0,-0.82812 3.234375,0 c -0.270841,-2.59375 -0.867194,-5.45833 -1.789062,-8.59375 l 0.554687,-0.30469 -1.789062,0 0,-0.82813 4.75,0 c -0.223968,-0.97394 -0.54428,-1.91405 -0.960938,-2.82031 l 0.804688,-0.27344 c 0.385407,0.88022 0.736969,1.91147 1.054687,3.09375 l 4.171875,0 0,0.82813 -1.609375,0 0.507813,0.19531 c -0.468763,3.27605 -1.098971,6.17709 -1.890625,8.70313 l 3.25,0 z m -2.226563,-9.72656 -5.773437,0 c 0.864575,3.23438 1.47395,6.20052 1.828125,8.89844 l 2.0625,0 c 0.921863,-2.94792 1.549467,-5.91406 1.882812,-8.89844 z m -7.484375,-3.57031 c -0.20313,0.48438 -0.476567,1.06772 -0.820312,1.75 l -0.523438,1.00781 0,10.92187 -0.851562,0 0,-9.375 c -0.479169,0.77084 -1.070315,1.57813 -1.773438,2.42188 l -0.53125,-0.78906 c 1.484373,-1.7552 2.700518,-3.83593 3.648438,-6.24219 z"
         style="font-style:normal;font-variant:normal;font-weight:normal;font-stretch:normal;font-family:Microsoft JhengHei;-inkscape-font-specification:Microsoft JhengHei"
         id="path3053" />
      <path
         d="m 51.304638,557.63196 -10.992188,0 0,-0.84375 10.992188,0 z m 1.421875,8.60937 c -0.01564,0.72396 -0.104182,1.47006 -0.265625,2.23828 -0.161473,0.76823 -0.411473,1.25521 -0.75,1.46094 -0.338555,0.20573 -1.031263,0.30859 -2.078125,0.3086 -0.718761,-10e-6 -1.242198,-0.0169 -1.570313,-0.0508 -0.328135,-0.0339 -0.587249,-0.15755 -0.777343,-0.37109 -0.190114,-0.21354 -0.285166,-0.48698 -0.285157,-0.82031 l 0,-6.67188 -2.945312,0 c -0.08855,2.07292 -0.459641,3.73568 -1.113281,4.98828 -0.653651,1.25261 -1.834639,2.32162 -3.542969,3.20704 l -0.578125,-0.73438 c 1.197914,-0.53125 2.207028,-1.31901 3.027344,-2.36328 0.820307,-1.04427 1.256505,-2.74349 1.308593,-5.09766 l -4.046875,0 0,-0.85937 13.4375,0 0,0.85937 -4.671875,0 0,6.59375 c -10e-6,0.19271 0.09895,0.32552 0.296875,0.39844 0.197906,0.0729 0.562489,0.10938 1.09375,0.10938 1.031238,0 1.611966,-0.026 1.742188,-0.0781 0.130195,-0.0521 0.256497,-0.14062 0.378906,-0.26562 0.122382,-0.125 0.234361,-0.52084 0.335938,-1.1875 0.101548,-0.66667 0.152329,-1.32813 0.152343,-1.98438 z"
         style="font-style:normal;font-variant:normal;font-weight:normal;font-stretch:normal;font-family:Microsoft JhengHei;-inkscape-font-specification:Microsoft JhengHei"
         id="path3055" />
      <path
         d="m 60.898388,558.88196 c -1.739589,2.6823 -3.221358,4.67188 -4.445313,5.96875 0.901038,-0.16666 1.953121,-0.41927 3.15625,-0.75781 -0.08334,-0.24479 -0.213547,-0.58073 -0.390625,-1.00782 l 0.726563,-0.26562 c 0.499993,1.23959 0.796868,2.14063 0.890625,2.70312 l -0.765625,0.21875 c -0.08855,-0.40103 -0.164069,-0.69791 -0.226563,-0.89062 -1.526046,0.42188 -3.062503,0.77865 -4.609375,1.07031 L 54.99995,565.2179 c 1.166665,-1.10937 2.260414,-2.41146 3.28125,-3.90625 -1.656252,0.26563 -2.677085,0.4323 -3.0625,0.5 l -0.171875,-0.77344 c 1.265623,-1.51562 2.231768,-3.08332 2.898438,-4.70313 l 0.796875,0.25782 c -0.697921,1.52084 -1.54167,2.92969 -2.53125,4.22656 0.697913,-0.0781 1.572913,-0.20312 2.625,-0.375 0.239578,-0.32812 0.666661,-0.97135 1.28125,-1.92969 z m 7.875,11.08594 -8.273438,0 0,-0.78125 1.125,0 0,-12.36719 5.914063,0 0,12.36719 1.234375,0 z m -2.0625,-9.20313 0,-3.13281 -4.242188,0 0,3.13281 z m 0,4.11719 0,-3.29688 -4.242188,0 0,3.29688 z m 0,4.30469 0,-3.50782 -4.242188,0 0,3.50782 z m -6.09375,-0.86719 -0.757813,0.24219 c -0.07292,-0.58854 -0.236985,-1.31511 -0.492187,-2.17969 l 0.703125,-0.23438 c 0.26041,0.76042 0.442701,1.48438 0.546875,2.17188 z m -1.9375,1.34375 -0.835938,0.14844 c -0.05209,-1.23438 -0.179691,-2.33854 -0.382812,-3.3125 l 0.78125,-0.13282 c 0.182287,0.78646 0.32812,1.88542 0.4375,3.29688 z m -2.164063,-3.02344 c -0.265627,1.69792 -0.541668,2.94531 -0.828125,3.74219 l -0.820312,-0.30469 c 0.40104,-1.07292 0.705727,-2.29427 0.914062,-3.66406 z"
         style="font-style:normal;font-variant:normal;font-weight:normal;font-stretch:normal;font-family:Microsoft JhengHei;-inkscape-font-specification:Microsoft JhengHei"
         id="path3057" />
      <path
         d="m 69.960888,572.36633 c 1.755206,-2.08854 2.63281,-4.54947 2.632812,-7.38281 -2e-6,-2.84895 -0.885418,-5.33853 -2.65625,-7.46875 l 1.195313,0 c 1.749997,2.05209 2.624996,4.54688 2.625,7.48438 -4e-6,2.91666 -0.875003,5.37239 -2.625,7.36718 z"
         style="font-style:normal;font-variant:normal;font-weight:normal;font-stretch:normal;font-family:Microsoft JhengHei;-inkscape-font-specification:Microsoft JhengHei"
         id="path3059" />
    </g>
    <g
       style="font-size:22px;font-style:normal;font-weight:normal;text-align:center;line-height:125%;letter-spacing:0px;word-spacing:0px;text-anchor:middle;fill:#000000;fill-opacity:1;stroke:none;font-family:Sans"
       id="text3094-1-0-7-5">
      <path
         d="m 212.16208,552.70996 -0.45313,0.70313 c -2.03126,-1.03645 -3.51824,-2.14062 -4.46093,-3.3125 -1.38543,1.46876 -2.84637,2.59896 -4.38282,3.39062 l -0.60937,-0.64062 c 2.19791,-1.1302 3.84114,-2.46874 4.92969,-4.01563 l 0.78125,0.28906 c -0.0365,0.0833 -0.12241,0.20575 -0.25782,0.36719 0.90103,1.14064 2.38541,2.21355 4.45313,3.21875 z m -9.38281,3.07031 -0.57032,0.64063 c -0.52604,-0.84375 -0.97917,-1.47395 -1.35937,-1.89063 l 0,8.32032 -0.80469,0 0,-8.03125 c -0.32292,1.13021 -0.84375,2.35156 -1.5625,3.66406 l -0.59375,-0.60938 c 0.93229,-1.54166 1.625,-3.36978 2.07813,-5.48437 l -1.89063,0 0,-0.73438 1.96875,0 0,-2.73437 0.80469,0 0,2.73437 1.375,0 0,0.73438 -1.375,0 0,1.02344 c 0.57812,0.5625 1.22135,1.35157 1.92969,2.36718 z m 6.67187,-2.64062 -4.46094,0 0,-0.78125 4.46094,0 z m 1.63281,4.96094 -3.29687,0 0,-3.80469 3.29687,0 z m -0.78125,-0.76563 0,-2.27344 -1.72656,0 0,2.27344 z m -3.71093,0.76563 -3.3125,0 0,-3.80469 3.3125,0 z m -0.80469,-0.76563 0,-2.27344 -1.71094,0 0,2.27344 z m 6.17969,4.92969 -0.53125,0.55469 c -0.82814,-0.88542 -1.58856,-1.57813 -2.28125,-2.07813 -0.60418,0.98958 -1.14324,1.70313 -1.61719,2.14063 l -0.67188,-0.46094 c 0.93749,-0.90104 1.73697,-2.23437 2.39844,-4 l 0.73438,0.25781 c -0.16668,0.52084 -0.34897,0.98438 -0.54688,1.39063 0.85415,0.58854 1.6927,1.32031 2.51563,2.19531 z m -4.96094,-0.82031 -0.52344,0.57812 c -0.90626,-0.83854 -1.51042,-1.34635 -1.8125,-1.52344 -0.70834,1.10417 -1.39584,1.92709 -2.0625,2.46875 l -0.59375,-0.57812 c 1.16666,-0.97917 2.09374,-2.29687 2.78125,-3.95313 l 0.74219,0.30469 -0.51563,1.08594 c 0.67187,0.44271 1.33333,0.98177 1.98438,1.61719 z"
         style="font-style:normal;font-variant:normal;font-weight:normal;font-stretch:normal;font-family:Microsoft JhengHei;-inkscape-font-specification:Microsoft JhengHei"
         id="path3010" />
      <path
         d="m 228.06052,554.38965 -0.49219,0.73437 c -1.76564,-1.03645 -3.80991,-1.93749 -6.13281,-2.70312 l 0,2.30469 4.74218,0 0,5.61718 -10.25781,0 0,-5.61718 4.70313,0 0,-3.13282 c -1.33334,1.29689 -3.38022,2.48959 -6.14063,3.57813 l -0.5625,-0.73438 c 2.5625,-0.84895 4.57812,-1.9427 6.04688,-3.28125 l -5.875,0 0,-0.79687 6.53125,0 0,-1.52344 0.8125,0 0,1.52344 6.53125,0 0,0.79687 -6.53125,0 0,0.4375 c 2.49478,0.79168 4.70311,1.72397 6.625,2.79688 z m -2.73438,2.70312 0,-1.57031 -8.57812,0 0,1.57031 z m 0,2.41407 0,-1.59375 -8.57812,0 0,1.59375 z m 2.71875,3.00781 -13.98437,0 0,-0.79688 13.98437,0 z"
         style="font-style:normal;font-variant:normal;font-weight:normal;font-stretch:normal;font-family:Microsoft JhengHei;-inkscape-font-specification:Microsoft JhengHei"
         id="path3012" />
      <path
         d="m 235.6152,557.91309 -0.67187,0.25 c -0.0417,-0.18229 -0.11719,-0.41667 -0.22656,-0.70313 -1.48438,0.45834 -2.92969,0.79948 -4.33594,1.02344 l -0.28906,-0.78125 c 1.10937,-0.9375 2.14583,-2.19531 3.10937,-3.77344 -1,0.19793 -1.91406,0.34115 -2.74219,0.42969 l -0.25,-0.76563 c 1,-1.14061 1.88021,-2.72655 2.64063,-4.75781 l 0.73437,0.22656 c -0.67188,1.82293 -1.46615,3.28908 -2.38281,4.39844 0.69792,-0.0833 1.53385,-0.23176 2.50781,-0.44531 0.39062,-0.64062 0.7526,-1.33332 1.08594,-2.07813 l 0.74219,0.32032 c -1.33334,2.70313 -2.77344,4.79688 -4.32031,6.28125 0.91666,-0.14062 1.99739,-0.41146 3.24218,-0.8125 -0.0521,-0.26042 -0.1849,-0.61719 -0.39843,-1.07032 l 0.67187,-0.32031 c 0.39062,0.85938 0.68489,1.71876 0.88281,2.57813 z m 7.32813,-0.64063 -6.85156,0 0,-7.17187 1.84375,0 c 0.23436,-0.43749 0.43749,-0.84895 0.60937,-1.23438 l 0.71875,0.22656 c -0.13022,0.38022 -0.27865,0.71616 -0.44531,1.00782 l 4.125,0 z m -0.79688,-0.77344 0,-5.61718 -5.23437,0 0,5.61718 z m -0.46875,-1.29687 -0.47656,0.59375 c -0.40626,-0.46874 -0.75261,-0.84114 -1.03906,-1.11719 -0.39585,0.4948 -0.81251,0.96355 -1.25,1.40625 l -0.5625,-0.46094 c 0.47395,-0.49478 0.88541,-0.97655 1.23437,-1.44531 -0.25001,-0.26041 -0.48959,-0.46093 -0.71875,-0.60156 -0.22917,0.31251 -0.5599,0.6849 -0.99218,1.11719 l -0.54688,-0.51563 c 0.2552,-0.22916 0.5651,-0.58072 0.92969,-1.05469 -0.26564,-0.22395 -0.51563,-0.40363 -0.75,-0.53906 l 0.39844,-0.60937 c 0.2552,0.15105 0.52082,0.32032 0.79687,0.50781 0.24478,-0.3802 0.47395,-0.78385 0.6875,-1.21094 l 0.65625,0.30469 c -0.15626,0.35938 -0.40626,0.81251 -0.75,1.35937 0.23957,0.1823 0.47395,0.37762 0.70313,0.58594 0.35936,-0.55207 0.6953,-1.17447 1.00781,-1.86719 l 0.64062,0.28907 c -0.26043,0.65626 -0.6172,1.34896 -1.07031,2.07812 0.22916,0.22918 0.59634,0.6224 1.10156,1.17969 z m -0.47656,4.60937 -0.67187,0.32032 c -0.4271,-0.89583 -0.83856,-1.60938 -1.23438,-2.14063 l 0.73438,-0.32031 c 0.52082,0.74479 0.91144,1.45833 1.17187,2.14062 z m 1.19531,0.64063 c -0.0313,0.48437 -0.11329,0.91146 -0.24609,1.28125 -0.13283,0.36979 -0.32684,0.62109 -0.58203,0.7539 -0.25522,0.13282 -0.74741,0.19922 -1.47656,0.19922 -0.98439,0 -1.60027,-0.0768 -1.84766,-0.23047 -0.2474,-0.15364 -0.3711,-0.47005 -0.37109,-0.94921 l 0,-3.5 0.8125,0 0,3.58593 c -1e-5,0.17709 0.0963,0.28386 0.28906,0.32032 0.1927,0.0364 0.51301,0.0547 0.96094,0.0547 0.62498,0 1.01821,-0.0508 1.17968,-0.15234 0.16145,-0.10156 0.28254,-0.30339 0.36329,-0.60547 0.0807,-0.30208 0.13149,-0.67708 0.15234,-1.125 z m 1.78125,1.10156 -0.6875,0.5 c -0.32293,-1.02083 -0.78907,-2.10416 -1.39843,-3.25 l 0.65625,-0.47656 c 0.61977,1.19271 1.09634,2.26823 1.42968,3.22656 z m -6.97656,-2.92187 c -0.33855,1.54687 -0.77084,2.78906 -1.29687,3.72656 l -0.70313,-0.36719 c 0.59374,-1.09375 1.0026,-2.28385 1.22656,-3.57031 z m -1.79687,2.04687 -0.75,0.25781 c -0.10938,-0.64583 -0.27865,-1.30208 -0.50782,-1.96875 l 0.71875,-0.25781 c 0.22916,0.60938 0.40885,1.26563 0.53907,1.96875 z m -3.69532,-1.60156 c -0.1875,1.36979 -0.49739,2.63281 -0.92968,3.78906 l -0.76563,-0.26562 c 0.45833,-1.23438 0.76302,-2.46875 0.91406,-3.70313 z m 1.95313,3.20312 -0.78125,0.15625 c -0.0104,-0.96354 -0.17188,-2.0677 -0.48438,-3.3125 l 0.75782,-0.17187 c 0.28645,1.00521 0.45572,2.11458 0.50781,3.32812 z"
         style="font-style:normal;font-variant:normal;font-weight:normal;font-stretch:normal;font-family:Microsoft JhengHei;-inkscape-font-specification:Microsoft JhengHei"
         id="path3014" />
      <path
         d="m 259.97458,552.24902 -0.73438,0 c -0.10939,3.33855 -0.67188,5.91667 -1.6875,7.73438 0.56249,0.81771 1.35936,1.58073 2.39063,2.28906 l -0.46875,0.65625 c -1.02606,-0.64062 -1.84637,-1.39583 -2.46094,-2.26562 -0.76043,0.84895 -1.67449,1.60416 -2.74219,2.26562 l -0.48437,-0.65625 c 1.17186,-0.75 2.08853,-1.51823 2.75,-2.30469 -0.72918,-1.43749 -1.17449,-2.93228 -1.33594,-4.48437 l 0.75,-0.25781 c 0.28645,1.77083 0.66145,3.09375 1.125,3.96875 0.48957,-0.86458 0.84374,-1.96094 1.0625,-3.28907 0.15103,-0.90624 0.2604,-2.12499 0.32813,-3.65625 l -2.17969,0 c -0.51043,1.29689 -1.08855,2.34897 -1.73438,3.15625 l -0.63281,-0.46875 c 1.02603,-1.33332 1.84634,-3.36457 2.46094,-6.09375 l 0.77344,0.14063 c -0.10939,0.67189 -0.31512,1.49741 -0.61719,2.47656 l 3.4375,0 z m -5.34375,-0.0469 -1.08594,0 0,1.82812 -2.76562,0 0,0.94532 2.77343,0 0,2.45312 -2.8125,0 c -0.29688,0.47917 -0.57031,0.87761 -0.82031,1.19531 l 1.95313,0 c 0.0885,-0.15103 0.16666,-0.34114 0.23437,-0.57031 l 0.79688,0.19531 c -0.0208,0.13542 -0.0573,0.26042 -0.10938,0.375 l 1.69531,0 0,0.71094 -2.02343,0 c -0.38543,0.73959 -0.8698,1.33854 -1.45313,1.79688 0.91145,0.41145 1.67968,0.79166 2.30469,1.14062 l -0.52344,0.59375 c -0.77605,-0.4375 -1.61198,-0.84114 -2.50781,-1.21094 -1.00001,0.61459 -2.26823,1.01823 -3.80469,1.21094 l -0.29687,-0.75781 c 1.34895,-0.17188 2.40624,-0.45052 3.17187,-0.83594 -0.79167,-0.33333 -1.50261,-0.59635 -2.13281,-0.78906 0.28125,-0.29687 0.625,-0.67969 1.03125,-1.14844 l -2.21094,0 0,-0.71094 2.82813,0 c 0.32812,-0.41666 0.61718,-0.8151 0.86718,-1.19531 l -2.5625,0 0,-2.45312 2.8125,0 0,-0.94532 -2.8125,0 0,-1.82812 -1.13281,0 0,-0.74219 1.13281,0 0,-1.6875 2.8125,0 0,-0.86719 0.78907,0 0,0.86719 2.76562,0 0,1.6875 1.08594,0 z m -1.875,-0.74219 0,-0.99219 -1.97656,0 0,0.99219 z m 0,1.84375 0,-1.10156 -1.97656,0 0,1.10156 z m -2.76563,-1.84375 0,-0.99219 -2.01562,0 0,0.99219 z m 0,1.84375 0,-1.10156 -2.01562,0 0,1.10156 z m 2.76563,3.39844 0,-1 -1.97656,0 0,1 z m -2.76563,0 0,-1 -2.00781,0 0,1 z m 1.5,2.63281 -2.15625,0 c -0.11979,0.15625 -0.35417,0.44011 -0.70312,0.85156 0.45833,0.14063 0.96614,0.32553 1.52344,0.55469 0.52603,-0.33333 0.97134,-0.80208 1.33593,-1.40625 z"
         style="font-style:normal;font-variant:normal;font-weight:normal;font-stretch:normal;font-family:Microsoft JhengHei;-inkscape-font-specification:Microsoft JhengHei"
         id="path3016" />
      <path
         d="m 196.70114,585.43652 c -0.77604,-0.97917 -1.43229,-2.125 -1.96875,-3.4375 -0.53646,-1.3125 -0.80469,-2.67187 -0.80469,-4.07812 0,-1.23958 0.20052,-2.42708 0.60157,-3.5625 0.46874,-1.3177 1.1927,-2.6302 2.17187,-3.9375 l 1.00781,0 c -0.63021,1.08334 -1.04687,1.85678 -1.25,2.32031 -0.31771,0.71876 -0.56771,1.46876 -0.75,2.25 -0.22396,0.97397 -0.33594,1.95313 -0.33593,2.9375 -1e-5,2.50521 0.77864,5.00781 2.33593,7.50781 z"
         style="font-size:16px"
         id="path3018" />
      <path
         d="m 206.35739,580.71777 0,1.35157 -7.57031,0 c -0.0104,-0.33855 0.0443,-0.66407 0.16406,-0.97657 0.19271,-0.51562 0.5013,-1.02343 0.92578,-1.52343 0.42448,-0.5 1.03776,-1.07813 1.83985,-1.73438 1.24478,-1.02083 2.08593,-1.82942 2.52343,-2.42578 0.4375,-0.59635 0.65625,-1.16015 0.65625,-1.69141 0,-0.55728 -0.19922,-1.02733 -0.59765,-1.41015 -0.39845,-0.38281 -0.91798,-0.57421 -1.5586,-0.57422 -0.67708,1e-5 -1.21875,0.20313 -1.625,0.60937 -0.40625,0.40626 -0.61198,0.96876 -0.61718,1.6875 l -1.44532,-0.14843 c 0.099,-1.07812 0.47136,-1.89973 1.11719,-2.46485 0.64583,-0.56509 1.51302,-0.84764 2.60156,-0.84765 1.09896,10e-6 1.96875,0.30469 2.60938,0.91406 0.64062,0.60938 0.96093,1.36459 0.96094,2.26562 -1e-5,0.45834 -0.0938,0.90887 -0.28125,1.35157 -0.18751,0.44271 -0.49871,0.90886 -0.9336,1.39843 -0.4349,0.48959 -1.15756,1.16147 -2.16797,2.01563 -0.84375,0.70833 -1.38542,1.1888 -1.625,1.4414 -0.23958,0.25261 -0.4375,0.50652 -0.59375,0.76172 z"
         style="font-size:16px"
         id="path3020" />
      <path
         d="m 226.68552,582.49902 -10.28907,0 0,-0.82812 3.23438,0 c -0.27084,-2.59375 -0.8672,-5.45833 -1.78906,-8.59375 l 0.55468,-0.30469 -1.78906,0 0,-0.82812 4.75,0 c -0.22397,-0.97395 -0.54428,-1.91405 -0.96094,-2.82032 l 0.80469,-0.27343 c 0.38541,0.88022 0.73697,1.91147 1.05469,3.09375 l 4.17187,0 0,0.82812 -1.60937,0 0.50781,0.19531 c -0.46876,3.27605 -1.09897,6.17709 -1.89062,8.70313 l 3.25,0 z m -2.22657,-9.72656 -5.77343,0 c 0.86457,3.23438 1.47395,6.20052 1.82812,8.89844 l 2.0625,0 c 0.92186,-2.94791 1.54947,-5.91406 1.88281,-8.89844 z m -7.48437,-3.57031 c -0.20313,0.48439 -0.47657,1.06772 -0.82031,1.75 l -0.52344,1.00781 0,10.92188 -0.85156,0 0,-9.375 c -0.47917,0.77084 -1.07032,1.57813 -1.77344,2.42187 l -0.53125,-0.78906 c 1.48437,-1.7552 2.70052,-3.83593 3.64844,-6.24219 z"
         style="font-style:normal;font-variant:normal;font-weight:normal;font-stretch:normal;font-family:Microsoft JhengHei;-inkscape-font-specification:Microsoft JhengHei"
         id="path3022" />
      <path
         d="m 241.20114,570.08496 -10.99219,0 0,-0.84375 10.99219,0 z m 1.42188,8.60938 c -0.0156,0.72396 -0.10419,1.47005 -0.26563,2.23828 -0.16147,0.76823 -0.41147,1.25521 -0.75,1.46093 -0.33855,0.20573 -1.03126,0.3086 -2.07812,0.3086 -0.71876,0 -1.2422,-0.0169 -1.57032,-0.0508 -0.32813,-0.0339 -0.58725,-0.15756 -0.77734,-0.3711 -0.19011,-0.21354 -0.28517,-0.48698 -0.28516,-0.82031 l 0,-6.67187 -2.94531,0 c -0.0885,2.07292 -0.45964,3.73568 -1.11328,4.98828 -0.65365,1.2526 -1.83464,2.32161 -3.54297,3.20703 l -0.57812,-0.73438 c 1.19791,-0.53125 2.20702,-1.31901 3.02734,-2.36328 0.82031,-1.04427 1.25651,-2.74348 1.30859,-5.09765 l -4.04687,0 0,-0.85938 13.4375,0 0,0.85938 -4.67188,0 0,6.59375 c -10e-6,0.1927 0.099,0.32552 0.29688,0.39843 0.1979,0.0729 0.56249,0.10938 1.09375,0.10938 1.03124,0 1.61196,-0.026 1.74219,-0.0781 0.13019,-0.0521 0.25649,-0.14062 0.3789,-0.26562 0.12238,-0.125 0.23436,-0.52083 0.33594,-1.1875 0.10155,-0.66667 0.15233,-1.32812 0.15234,-1.98438 z"
         style="font-style:normal;font-variant:normal;font-weight:normal;font-stretch:normal;font-family:Microsoft JhengHei;-inkscape-font-specification:Microsoft JhengHei"
         id="path3024" />
      <path
         d="m 250.79489,571.33496 c -1.73959,2.6823 -3.22136,4.67188 -4.44531,5.96875 0.90104,-0.16666 1.95312,-0.41926 3.15625,-0.75781 -0.0833,-0.24479 -0.21355,-0.58072 -0.39063,-1.00781 l 0.72657,-0.26563 c 0.49999,1.23959 0.79686,2.14063 0.89062,2.70313 l -0.76562,0.21875 c -0.0885,-0.40104 -0.16407,-0.69792 -0.22657,-0.89063 -1.52604,0.42188 -3.0625,0.77865 -4.60937,1.07031 l -0.23438,-0.70312 c 1.16667,-1.10937 2.26042,-2.41145 3.28125,-3.90625 -1.65625,0.26563 -2.67708,0.4323 -3.0625,0.5 l -0.17187,-0.77344 c 1.26562,-1.51561 2.23177,-3.08332 2.89844,-4.70312 l 0.79687,0.25781 c -0.69792,1.52084 -1.54167,2.9297 -2.53125,4.22656 0.69791,-0.0781 1.57291,-0.20312 2.625,-0.375 0.23958,-0.32811 0.66666,-0.97134 1.28125,-1.92969 z m 7.875,11.08594 -8.27344,0 0,-0.78125 1.125,0 0,-12.36719 5.91407,0 0,12.36719 1.23437,0 z m -2.0625,-9.20313 0,-3.13281 -4.24219,0 0,3.13281 z m 0,4.11719 0,-3.29687 -4.24219,0 0,3.29687 z m 0,4.30469 0,-3.50781 -4.24219,0 0,3.50781 z m -6.09375,-0.86719 -0.75781,0.24219 c -0.0729,-0.58854 -0.23699,-1.3151 -0.49219,-2.17969 l 0.70313,-0.23437 c 0.26041,0.76042 0.4427,1.48437 0.54687,2.17187 z m -1.9375,1.34375 -0.83594,0.14844 c -0.0521,-1.23438 -0.17969,-2.33854 -0.38281,-3.3125 l 0.78125,-0.13281 c 0.18229,0.78646 0.32812,1.88541 0.4375,3.29687 z m -2.16406,-3.02344 c -0.26563,1.69792 -0.54167,2.94532 -0.82813,3.74219 l -0.82031,-0.30469 c 0.40104,-1.07291 0.70573,-2.29427 0.91406,-3.66406 z"
         style="font-style:normal;font-variant:normal;font-weight:normal;font-stretch:normal;font-family:Microsoft JhengHei;-inkscape-font-specification:Microsoft JhengHei"
         id="path3026" />
      <path
         d="m 261.62302,585.43652 -1.00782,0 c 1.55729,-2.5 2.33594,-5.0026 2.33594,-7.50781 0,-0.97916 -0.11198,-1.95051 -0.33594,-2.91406 -0.17708,-0.78124 -0.42448,-1.53124 -0.74218,-2.25 -0.20313,-0.46874 -0.6224,-1.24999 -1.25782,-2.34375 l 1.00782,0 c 0.97916,1.3073 1.70312,2.6198 2.17187,3.9375 0.40104,1.13542 0.60156,2.32292 0.60156,3.5625 0,1.40625 -0.26953,2.76562 -0.80859,4.07812 -0.53907,1.3125 -1.19401,2.45833 -1.96484,3.4375 z"
         style="font-size:16px"
         id="path3028" />
    </g>
  </g>
</svg>
