<?xml version="1.0" encoding="UTF-8" standalone="no"?>
<svg
   xmlns:dc="http://purl.org/dc/elements/1.1/"
   xmlns:cc="http://creativecommons.org/ns#"
   xmlns:rdf="http://www.w3.org/1999/02/22-rdf-syntax-ns#"
   xmlns:svg="http://www.w3.org/2000/svg"
   xmlns="http://www.w3.org/2000/svg"
   xmlns:sodipodi="http://sodipodi.sourceforge.net/DTD/sodipodi-0.dtd"
   xmlns:inkscape="http://www.inkscape.org/namespaces/inkscape"
   id="svg2"
   height="550"
   width="700"
   version="1.2"
   inkscape:version="0.48.1 "
   sodipodi:docname="net_basic_osi.svg">
  <sodipodi:namedview
     pagecolor="#ffffff"
     bordercolor="#666666"
     borderopacity="1"
     objecttolerance="10"
     gridtolerance="10"
     guidetolerance="10"
     inkscape:pageopacity="0"
     inkscape:pageshadow="2"
     inkscape:window-width="1920"
     inkscape:window-height="1033"
     id="namedview51"
     showgrid="false"
     inkscape:zoom="1.0824912"
     inkscape:cx="489.19069"
     inkscape:cy="275"
     inkscape:window-x="-4"
     inkscape:window-y="-4"
     inkscape:window-maximized="1"
     inkscape:current-layer="svg2" />
  <defs
     id="defs4" />
  <metadata
     id="metadata7">
    <rdf:RDF>
      <cc:Work
         rdf:about="">
        <dc:format>image/svg+xml</dc:format>
        <dc:type
           rdf:resource="http://purl.org/dc/dcmitype/StillImage" />
        <dc:title />
      </cc:Work>
    </rdf:RDF>
  </metadata>
  <rect
     width="679.81348"
     height="165.17542"
     rx="10"
     x="10.186552"
     y="109.82458"
     id="rect6978-9-64-0-1-4-0-6-1"
     style="color:#000000;display:inline;overflow:visible;visibility:visible;fill:#dcddde;fill-opacity:1;fill-rule:nonzero;stroke:none;stroke-width:1;marker:none;enable-background:accumulate"
     ry="10" />
  <rect
     width="320"
     height="145"
     rx="5"
     ry="5"
     x="20"
     y="120"
     id="rect6978-9-9-5-0-1-7"
     style="color:#000000;display:inline;overflow:visible;visibility:visible;fill:#00c081;fill-opacity:1;fill-rule:nonzero;stroke:none;stroke-width:1;marker:none;enable-background:accumulate" />
  <rect
     width="320"
     height="45"
     rx="5"
     ry="5"
     x="360"
     y="120"
     id="rect6978-9-9-5-0-1-7-7"
     style="color:#000000;display:inline;overflow:visible;visibility:visible;fill:#00b2e2;fill-opacity:1;fill-rule:nonzero;stroke:none;stroke-width:1;marker:none;enable-background:accumulate" />
  <rect
     width="320"
     height="45"
     rx="5"
     ry="5"
     x="360"
     y="170"
     id="rect6978-9-9-5-0-1-7-7-9"
     style="color:#000000;display:inline;overflow:visible;visibility:visible;fill:#00b2e2;fill-opacity:1;fill-rule:nonzero;stroke:none;stroke-width:1;marker:none;enable-background:accumulate" />
  <rect
     width="320"
     height="45"
     rx="5"
     ry="5"
     x="360"
     y="220"
     id="rect6978-9-9-5-0-1-7-7-9-6"
     style="color:#000000;display:inline;overflow:visible;visibility:visible;fill:#00b2e2;fill-opacity:1;fill-rule:nonzero;stroke:none;stroke-width:1;marker:none;enable-background:accumulate" />
  <rect
     width="680"
     height="65"
     rx="10.001314"
     x="10"
     y="280"
     id="rect6978-9-64-0-1-4-0-6-1-9"
     style="color:#000000;display:inline;overflow:visible;visibility:visible;fill:#dcddde;fill-opacity:1;fill-rule:nonzero;stroke:none;stroke-width:1;marker:none;enable-background:accumulate"
     ry="10" />
  <rect
     width="320"
     height="45"
     rx="5"
     ry="5"
     x="20"
     y="290"
     id="rect6978-9-9-5-0-1-7-7-9-6-2"
     style="color:#000000;display:inline;overflow:visible;visibility:visible;fill:#00c081;fill-opacity:1;fill-rule:nonzero;stroke:none;stroke-width:1;marker:none;enable-background:accumulate" />
  <rect
     width="320"
     height="45"
     rx="5"
     ry="5"
     x="360"
     y="290"
     id="rect6978-9-9-5-0-1-7-7-9-6-0"
     style="color:#000000;display:inline;overflow:visible;visibility:visible;fill:#00b2e2;fill-opacity:1;fill-rule:nonzero;stroke:none;stroke-width:1;marker:none;enable-background:accumulate" />
  <rect
     width="680"
     height="65"
     rx="10.001314"
     x="10"
     y="350"
     id="rect6978-9-64-0-1-4-0-6-1-9-4"
     style="color:#000000;display:inline;overflow:visible;visibility:visible;fill:#dcddde;fill-opacity:1;fill-rule:nonzero;stroke:none;stroke-width:1;marker:none;enable-background:accumulate"
     ry="10" />
  <rect
     width="320"
     height="45"
     rx="5"
     ry="5"
     x="20"
     y="360"
     id="rect6978-9-9-5-0-1-7-7-9-6-2-8"
     style="color:#000000;display:inline;overflow:visible;visibility:visible;fill:#00c081;fill-opacity:1;fill-rule:nonzero;stroke:none;stroke-width:1;marker:none;enable-background:accumulate" />
  <rect
     width="320"
     height="45"
     rx="5"
     ry="5"
     x="360"
     y="360"
     id="rect6978-9-9-5-0-1-7-7-9-6-0-3"
     style="color:#000000;display:inline;overflow:visible;visibility:visible;fill:#00b2e2;fill-opacity:1;fill-rule:nonzero;stroke:none;stroke-width:1;marker:none;enable-background:accumulate" />
  <rect
     width="680"
     height="115"
     rx="10.00515"
     x="10"
     y="425"
     id="rect6978-9-64-0-1-4-0-6-1-3"
     style="color:#000000;display:inline;overflow:visible;visibility:visible;fill:#dcddde;fill-opacity:1;fill-rule:nonzero;stroke:none;stroke-width:1;marker:none;enable-background:accumulate"
     ry="10" />
  <rect
     width="320"
     height="95"
     rx="5"
     ry="5"
     x="20"
     y="435"
     id="rect6978-9-9-5-0-1-7-5"
     style="color:#000000;display:inline;overflow:visible;visibility:visible;fill:#00c081;fill-opacity:1;fill-rule:nonzero;stroke:none;stroke-width:1;marker:none;enable-background:accumulate" />
  <rect
     width="320"
     height="45"
     rx="5"
     ry="5"
     x="360"
     y="435"
     id="rect6978-9-9-5-0-1-7-7-7"
     style="color:#000000;display:inline;overflow:visible;visibility:visible;fill:#00b2e2;fill-opacity:1;fill-rule:nonzero;stroke:none;stroke-width:1;marker:none;enable-background:accumulate" />
  <rect
     width="320"
     height="45"
     rx="5"
     ry="5"
     x="360"
     y="485"
     id="rect6978-9-9-5-0-1-7-7-9-0"
     style="color:#000000;display:inline;overflow:visible;visibility:visible;fill:#00b2e2;fill-opacity:1;fill-rule:nonzero;stroke:none;stroke-width:1;marker:none;enable-background:accumulate" />
  <text
     xml:space="preserve"
     style="font-style:normal;font-variant:normal;font-weight:normal;font-stretch:normal;font-size:40px;line-height:125%;font-family:'Open Sans';-inkscape-font-specification:'Open Sans';letter-spacing:0px;word-spacing:0px;fill:#000000;fill-opacity:1;stroke:none"
     x="-179.99081"
     y="87.715889"
     id="text4080"><tspan
       id="tspan4082"
       x="-179.99081"
       y="87.715889" /></text>
  <g
     style="font-size:22px;font-style:normal;font-weight:normal;line-height:125%;letter-spacing:0px;word-spacing:0px;fill:#000000;fill-opacity:1;stroke:none;font-family:Sans"
     id="text4084">
    <path
       d="m 146.1792,180.78461 -16.23145,0 0,6.33789 c 0,3.94597 -0.58008,7.40137 -1.74023,10.36621 l -0.94531,-0.79492 c 1.05989,-2.77865 1.58984,-5.96191 1.58984,-9.54981 l 0,-7.39062 8.22852,0 c -0.28647,-0.47264 -0.58009,-0.94172 -0.88086,-1.40723 l 1.13867,-0.26855 c 0.37238,0.46551 0.70181,1.0241 0.98828,1.67578 l 7.85254,0 z m -11.25781,0.77343 c -0.26499,0.87372 -0.71974,1.862 -1.36426,2.96485 l 0,6.88574 -1.0957,0 0,-5.31738 c -0.29363,0.41537 -0.74838,0.94174 -1.36426,1.5791 l -0.73047,-0.85938 c 1.75455,-1.86196 2.94335,-3.74543 3.56641,-5.65039 z m 11.02148,9.65723 -9.76465,0 0,-5.5 c -0.36524,0.45834 -0.86654,1.04558 -1.5039,1.76172 l -0.65528,-0.92383 c 1.74023,-1.93358 2.95767,-3.72394 3.65235,-5.37109 l 0.96679,0.37597 c -0.20053,0.50848 -0.45834,1.03485 -0.77343,1.57911 l 3.30859,0 c -0.10744,-0.28645 -0.38673,-0.78417 -0.83789,-1.49317 l 1.07422,-0.31152 c 0.32225,0.43686 0.64451,1.03842 0.96679,1.80469 l 3.50196,0 0,1.0205 -4.04981,0 0,1.26758 3.73828,0 0,1.02051 -3.73828,0 0,1.38574 3.73828,0 0,1.00977 -3.73828,0 0,1.36426 4.11426,0 z m -5.18848,-5.79004 0,-1.26758 -3.45898,0 0,1.26758 z m 0.0215,2.40625 0,-1.38574 -3.48047,0 0,1.38574 z m 0,2.37403 0,-1.36426 -3.48047,0 0,1.36426 z m -0.22559,3.93164 -0.96679,0.62304 c -0.65171,-0.94531 -1.28908,-1.70084 -1.91211,-2.2666 l 0.96679,-0.64453 c 0.66601,0.64454 1.30337,1.40723 1.91211,2.28809 z m 5.96192,1.94433 -0.94532,0.56934 c -0.8021,-1.48958 -1.69012,-2.78939 -2.66406,-3.89942 l 0.9668,-0.59082 c 1.04555,1.2461 1.92641,2.55306 2.64258,3.9209 z m -3.42676,-1.52539 c -0.0502,0.74479 -0.18084,1.31055 -0.39209,1.69727 -0.21128,0.38672 -0.53176,0.64095 -0.96143,0.76269 -0.4297,0.12175 -1.5075,0.18262 -3.23339,0.18262 -1.19598,0 -1.96584,-0.043 -2.30958,-0.12891 -0.34376,-0.0859 -0.60873,-0.26676 -0.79492,-0.54248 -0.1862,-0.27571 -0.2793,-0.67496 -0.27929,-1.19775 l 0,-3.16895 1.10644,0 0,3.2334 c -1e-5,0.35091 0.10204,0.56397 0.30615,0.63916 0.20409,0.0752 0.94709,0.1128 2.22901,0.1128 1.37498,0 2.1896,-0.034 2.44385,-0.10206 0.25421,-0.068 0.44757,-0.222 0.58007,-0.46191 0.13247,-0.23991 0.19872,-0.72152 0.19873,-1.44482 z m -9.39941,-1.93359 c -0.68035,1.60417 -1.54331,3.01139 -2.58887,4.22168 l -0.85938,-0.74121 c 0.96679,-1.06706 1.7653,-2.38119 2.39551,-3.94239 z"
       style="font-variant:normal;font-stretch:normal;font-family:Microsoft JhengHei UI;-inkscape-font-specification:Microsoft JhengHei UI"
       id="path3100" />
    <path
       d="m 167.4165,195.79144 c -2e-5,0.5944 -0.21307,1.00977 -0.63916,1.2461 -0.42612,0.23632 -1.38397,0.35449 -2.87353,0.35449 -0.33661,0 -0.66245,-0.007 -0.97754,-0.0215 l -0.35449,-1.20312 c 0.54425,0.043 1.0742,0.0644 1.58984,0.0644 1.04556,0 1.65428,-0.043 1.82617,-0.1289 0.17186,-0.0859 0.2578,-0.22559 0.25782,-0.41895 l 0,-5.30664 -6.21973,0 0,6.44531 -1.19238,0 0,-6.44531 -6.27344,0 c -0.35092,3.01498 -1.10645,5.32455 -2.2666,6.92871 l -1.03125,-0.71973 c 1.48242,-2.1914 2.22363,-4.83398 2.22363,-7.92773 l 0,-10.09766 15.93066,0 z m -1.17089,-12.03125 0,-4.00683 -6.21973,0 0,4.00683 z m -7.41211,0 0,-4.00683 -6.15528,0 0,4.00683 z m 7.41211,5.47852 0,-4.27539 -6.21973,0 0,4.27539 z m -7.41211,0 0,-4.27539 -6.15528,0 0,4.27539 z"
       style="font-variant:normal;font-stretch:normal;font-family:Microsoft JhengHei UI;-inkscape-font-specification:Microsoft JhengHei UI"
       id="path3102" />
    <path
       d="m 178.771,189.05609 -0.79493,0.88086 c -0.52995,-0.98827 -1.16016,-1.90494 -1.89062,-2.75 l 0,10.18359 -1.14941,0 0,-10.22656 c -1.03842,2.33464 -2.0267,4.14649 -2.96485,5.43555 l -0.77344,-0.90234 c 1.43945,-1.99805 2.66406,-4.34342 3.67383,-7.03614 l -3.5664,0 0,-1.10644 3.63086,0 0,-3.25489 -2.68555,0.50489 -0.59082,-1.09571 c 2.5638,-0.30076 4.68359,-0.80564 6.35937,-1.51464 l 0.67676,1.00976 c -1.07423,0.36525 -1.94434,0.64455 -2.61035,0.83789 l 0,3.5127 2.61035,0 0,1.10644 -2.61035,0 0,0.90235 c 1.33918,1.48959 2.23437,2.66049 2.68555,3.51269 z m 10.24804,-4.26465 -9.44238,0 0,-6.00488 9.44238,0 z m -1.1709,-1.11718 0,-3.792 -7.10058,0 0,3.792 z m 2.57813,13.16992 -12.38574,0 0,-1.07422 5.65039,0 0,-3.36231 -4.87696,0 0,-1.10644 4.87696,0 0,-3.19043 c -2.34897,0.1504 -3.79917,0.23275 -4.35059,0.24707 l -0.52637,-1.12793 c 4.04622,-0.0716 7.53742,-0.45832 10.47364,-1.16016 l 0.74121,0.98828 c -1.47528,0.34376 -3.19761,0.65171 -5.16699,0.92383 l 0,3.31934 4.72656,0 0,1.10644 -4.72656,0 0,3.36231 5.56445,0 z"
       style="font-variant:normal;font-stretch:normal;font-family:Microsoft JhengHei UI;-inkscape-font-specification:Microsoft JhengHei UI"
       id="path3104" />
    <path
       d="m 212.42627,192.64398 c -0.65171,3.30143 -1.58986,4.95215 -2.81445,4.95215 -0.28648,0 -0.57115,-0.0913 -0.85401,-0.27393 -0.28289,-0.18261 -0.67498,-0.63199 -1.17627,-1.34814 -0.50131,-0.71614 -0.95249,-1.60237 -1.35351,-2.65869 -0.40106,-1.05631 -0.70005,-2.55306 -0.89698,-4.49024 -0.19695,-1.93716 -0.33839,-3.8618 -0.42431,-5.77392 l -11.50488,0 0,-1.18164 11.4082,0 c -0.0573,-1.6328 -0.0788,-2.89679 -0.0644,-3.79199 l 1.14941,0 c -10e-6,1.74025 0.0215,3.00424 0.0645,3.79199 l 6.40235,0 0,1.18164 -6.35938,0 c 0.0573,1.5254 0.2399,3.57716 0.54785,6.15527 0.30793,2.57813 0.83251,4.424 1.57373,5.5376 0.7412,1.11361 1.24071,1.67041 1.49854,1.67041 0.35805,0 0.70717,-0.52458 1.04736,-1.57373 0.34015,-1.04915 0.55321,-1.98551 0.63916,-2.80908 z m -1.03125,-11.83789 -0.9668,0.66602 c -0.83074,-0.98111 -1.65431,-1.75812 -2.4707,-2.33106 l 0.94531,-0.75195 c 0.73761,0.487 1.56834,1.29266 2.49219,2.41699 z m -7.11133,12.69727 c -3.55925,0.90234 -6.90365,1.63639 -10.0332,2.20215 l -0.2793,-1.14942 c 1.1888,-0.19336 2.6927,-0.46191 4.51172,-0.80566 l 0,-6.38086 -3.89941,0 0,-1.19238 9.08789,0 0,1.19238 -4.07129,0 0,6.1123 c 1.71874,-0.36523 3.27993,-0.73762 4.68359,-1.11718 z"
       style="font-variant:normal;font-stretch:normal;font-family:Microsoft JhengHei UI;-inkscape-font-specification:Microsoft JhengHei UI"
       id="path3106" />
    <path
       d="m 233.33057,182.75043 -15.25391,0 c 0,4.49024 -0.17009,7.7308 -0.51025,9.72168 -0.34018,1.99088 -0.79314,3.58789 -1.35889,4.79101 l -0.92383,-0.76269 c 0.47266,-1.02409 0.86654,-2.41878 1.18164,-4.18408 0.3151,-1.7653 0.47266,-4.49202 0.47266,-8.18018 l 0,-5.45703 16.39258,0 z m -1.12793,-1.04199 0,-1.95508 -14.12598,0 0,1.95508 z m -7.7666,2.62109 -1.03125,0.50488 c -0.51564,-0.51561 -1.01336,-0.94172 -1.49317,-1.27832 l 1.05274,-0.50488 c 0.60871,0.47267 1.09927,0.89877 1.47168,1.27832 z m 6.14453,-0.65527 c -0.37242,0.35092 -0.96682,0.75196 -1.78321,1.20312 l -0.94531,-0.67676 c 0.64452,-0.30793 1.24608,-0.6839 1.80469,-1.12793 z m 2.48144,6.09082 -13.59961,0 0,-4.6836 13.59961,0 z m -1.11719,-1.03125 0,-2.6211 -5.15625,0 0,2.6211 z m -1.27832,-1.82618 c -0.31512,0.44402 -0.83074,0.97755 -1.54687,1.60059 l -0.84863,-0.54785 c 0.68032,-0.59439 1.1852,-1.10644 1.51464,-1.53613 z m -4.99511,1.82618 0,-2.6211 -5.05957,0 0,2.6211 z m -1.53614,-0.77344 -0.85937,0.56933 c -0.45118,-0.60871 -0.9131,-1.12076 -1.38574,-1.53613 l 0.90234,-0.56933 c 0.46549,0.41537 0.91308,0.92741 1.34277,1.53613 z m 8.27149,9.36719 -1.14942,0 0,-0.98829 -9.87207,0 0,0.98829 -1.12793,0 0,-6.57422 12.14942,0 z m -1.14942,-4.39356 0,-1.12793 -9.87207,0 0,1.12793 z m 0,2.37402 0,-1.36425 -9.87207,0 0,1.36425 z"
       style="font-variant:normal;font-stretch:normal;font-family:Microsoft JhengHei UI;-inkscape-font-specification:Microsoft JhengHei UI"
       id="path3108" />
  </g>
  <g
     style="font-size:22px;font-style:normal;font-weight:normal;line-height:125%;letter-spacing:0px;word-spacing:0px;fill:#000000;fill-opacity:1;stroke:none;font-family:Sans"
     id="text4084-7">
    <path
       d="m 482.1792,134.8597 -16.23145,0 0,6.33789 c 0,3.94596 -0.58008,7.40136 -1.74023,10.36621 l -0.94531,-0.79492 c 1.05989,-2.77865 1.58984,-5.96191 1.58984,-9.54981 l 0,-7.39062 8.22852,0 c -0.28647,-0.47264 -0.58009,-0.94172 -0.88086,-1.40723 l 1.13867,-0.26856 c 0.37238,0.46552 0.70181,1.02411 0.98828,1.67579 l 7.85254,0 z m -11.25781,0.77343 c -0.26499,0.87371 -0.71974,1.86199 -1.36426,2.96485 l 0,6.88574 -1.0957,0 0,-5.31738 c -0.29363,0.41537 -0.74838,0.94174 -1.36426,1.5791 l -0.73047,-0.85938 c 1.75455,-1.86197 2.94335,-3.74543 3.56641,-5.65039 z m 11.02148,9.65723 -9.76465,0 0,-5.5 c -0.36524,0.45834 -0.86654,1.04558 -1.5039,1.76172 l -0.65528,-0.92383 c 1.74023,-1.93358 2.95767,-3.72394 3.65235,-5.37109 l 0.96679,0.37597 c -0.20053,0.50848 -0.45834,1.03485 -0.77343,1.5791 l 3.30859,0 c -0.10744,-0.28644 -0.38673,-0.78416 -0.83789,-1.49316 l 1.07422,-0.31152 c 0.32225,0.43686 0.64451,1.03842 0.96679,1.80468 l 3.50196,0 0,1.02051 -4.04981,0 0,1.26758 3.73828,0 0,1.02051 -3.73828,0 0,1.38574 3.73828,0 0,1.00977 -3.73828,0 0,1.36425 4.11426,0 z m -5.18848,-5.79004 0,-1.26758 -3.45898,0 0,1.26758 z m 0.0215,2.40625 0,-1.38574 -3.48047,0 0,1.38574 z m 0,2.37402 0,-1.36425 -3.48047,0 0,1.36425 z m -0.22559,3.93164 -0.96679,0.62305 c -0.65171,-0.94531 -1.28908,-1.70084 -1.91211,-2.2666 l 0.96679,-0.64453 c 0.66601,0.64453 1.30337,1.40723 1.91211,2.28808 z m 5.96192,1.94434 -0.94532,0.56934 c -0.8021,-1.48959 -1.69012,-2.78939 -2.66406,-3.89942 l 0.9668,-0.59082 c 1.04555,1.2461 1.92641,2.55306 2.64258,3.9209 z m -3.42676,-1.52539 c -0.0501,0.74479 -0.18084,1.31055 -0.39209,1.69727 -0.21128,0.38671 -0.53176,0.64095 -0.96143,0.76269 -0.4297,0.12174 -1.5075,0.18262 -3.23339,0.18262 -1.19598,0 -1.96584,-0.043 -2.30958,-0.12891 -0.34376,-0.0859 -0.60873,-0.26676 -0.79492,-0.54248 -0.1862,-0.27571 -0.2793,-0.67497 -0.27929,-1.19775 l 0,-3.16895 1.10644,0 0,3.2334 c -10e-6,0.35091 0.10204,0.56397 0.30615,0.63916 0.20409,0.0752 0.94709,0.11279 2.22901,0.11279 1.37498,0 2.1896,-0.034 2.44385,-0.10205 0.25421,-0.068 0.44757,-0.222 0.58007,-0.46191 0.13247,-0.23991 0.19872,-0.72152 0.19873,-1.44483 z m -9.39941,-1.93359 c -0.68035,1.60416 -1.54331,3.01139 -2.58887,4.22168 l -0.85938,-0.74122 c 0.96679,-1.06705 1.7653,-2.38118 2.39551,-3.94238 z"
       style="font-variant:normal;font-stretch:normal;font-family:Microsoft JhengHei;-inkscape-font-specification:Microsoft JhengHei"
       id="path3129" />
    <path
       d="m 503.4165,149.86653 c -2e-5,0.5944 -0.21307,1.00977 -0.63916,1.2461 -0.42612,0.23632 -1.38397,0.35449 -2.87353,0.35449 -0.33661,0 -0.66245,-0.007 -0.97754,-0.0215 l -0.35449,-1.20312 c 0.54425,0.043 1.0742,0.0644 1.58984,0.0644 1.04556,0 1.65428,-0.043 1.82617,-0.12891 0.17186,-0.0859 0.2578,-0.22558 0.25782,-0.41894 l 0,-5.30664 -6.21973,0 0,6.44531 -1.19238,0 0,-6.44531 -6.27344,0 c -0.35092,3.01498 -1.10645,5.32454 -2.2666,6.92871 l -1.03125,-0.71973 c 1.48242,-2.1914 2.22363,-4.83398 2.22363,-7.92773 l 0,-10.09766 15.93066,0 z m -1.17089,-12.03125 0,-4.00683 -6.21973,0 0,4.00683 z m -7.41211,0 0,-4.00683 -6.15528,0 0,4.00683 z m 7.41211,5.47852 0,-4.27539 -6.21973,0 0,4.27539 z m -7.41211,0 0,-4.27539 -6.15528,0 0,4.27539 z"
       style="font-variant:normal;font-stretch:normal;font-family:Microsoft JhengHei;-inkscape-font-specification:Microsoft JhengHei"
       id="path3131" />
    <path
       d="m 514.771,143.13118 -0.79493,0.88086 c -0.52995,-0.98827 -1.16016,-1.90494 -1.89062,-2.75 l 0,10.18359 -1.14941,0 0,-10.22656 c -1.03842,2.33464 -2.0267,4.14649 -2.96485,5.43555 l -0.77344,-0.90235 c 1.43945,-1.99804 2.66406,-4.34341 3.67383,-7.03613 l -3.5664,0 0,-1.10644 3.63086,0 0,-3.25489 -2.68555,0.50489 -0.59082,-1.09571 c 2.5638,-0.30076 4.68359,-0.80564 6.35937,-1.51465 l 0.67676,1.00977 c -1.07423,0.36525 -1.94434,0.64455 -2.61035,0.83789 l 0,3.5127 2.61035,0 0,1.10644 -2.61035,0 0,0.90234 c 1.33918,1.4896 2.23437,2.66049 2.68555,3.5127 z m 10.24804,-4.26465 -9.44238,0 0,-6.00488 9.44238,0 z m -1.1709,-1.11719 0,-3.79199 -7.10058,0 0,3.79199 z m 2.57813,13.16993 -12.38574,0 0,-1.07422 5.65039,0 0,-3.36231 -4.87696,0 0,-1.10644 4.87696,0 0,-3.19043 c -2.34897,0.1504 -3.79917,0.23275 -4.35059,0.24707 l -0.52637,-1.12793 c 4.04622,-0.0716 7.53742,-0.45833 10.47364,-1.16016 l 0.74121,0.98828 c -1.47528,0.34376 -3.19761,0.6517 -5.16699,0.92383 l 0,3.31934 4.72656,0 0,1.10644 -4.72656,0 0,3.36231 5.56445,0 z"
       style="font-variant:normal;font-stretch:normal;font-family:Microsoft JhengHei;-inkscape-font-specification:Microsoft JhengHei"
       id="path3133" />
    <path
       d="m 548.42627,146.71907 c -0.65171,3.30143 -1.58986,4.95215 -2.81445,4.95215 -0.28648,0 -0.57115,-0.0913 -0.85401,-0.27393 -0.28289,-0.18261 -0.67498,-0.632 -1.17627,-1.34814 -0.50131,-0.71615 -0.95249,-1.60238 -1.35351,-2.65869 -0.40106,-1.05631 -0.70005,-2.55306 -0.89698,-4.49024 -0.19695,-1.93716 -0.33839,-3.8618 -0.42431,-5.77392 l -11.50488,0 0,-1.18164 11.4082,0 c -0.0573,-1.6328 -0.0788,-2.8968 -0.0644,-3.792 l 1.14941,0 c -1e-5,1.74025 0.0215,3.00425 0.0644,3.792 l 6.40235,0 0,1.18164 -6.35938,0 c 0.0573,1.5254 0.2399,3.57716 0.54785,6.15527 0.30793,2.57813 0.83251,4.42399 1.57373,5.5376 0.7412,1.11361 1.24071,1.67041 1.49854,1.67041 0.35805,0 0.70717,-0.52458 1.04736,-1.57373 0.34015,-1.04915 0.55321,-1.98551 0.63916,-2.80908 z m -1.03125,-11.83789 -0.9668,0.66602 c -0.83074,-0.98111 -1.65431,-1.75813 -2.4707,-2.33106 l 0.94531,-0.75195 c 0.73761,0.48699 1.56834,1.29266 2.49219,2.41699 z m -7.11133,12.69727 c -3.55925,0.90234 -6.90365,1.63639 -10.0332,2.20214 l -0.2793,-1.14941 c 1.1888,-0.19336 2.6927,-0.46191 4.51172,-0.80566 l 0,-6.38086 -3.89941,0 0,-1.19239 9.08789,0 0,1.19239 -4.07129,0 0,6.1123 c 1.71874,-0.36523 3.27993,-0.73763 4.68359,-1.11719 z"
       style="font-variant:normal;font-stretch:normal;font-family:Microsoft JhengHei;-inkscape-font-specification:Microsoft JhengHei"
       id="path3135" />
    <path
       d="m 569.33057,136.82552 -15.25391,0 c 0,4.49024 -0.17009,7.7308 -0.51025,9.72168 -0.34018,1.99088 -0.79314,3.58789 -1.35889,4.79101 l -0.92383,-0.76269 c 0.47266,-1.02409 0.86654,-2.41878 1.18164,-4.18409 0.3151,-1.76529 0.47266,-4.49201 0.47266,-8.18017 l 0,-5.45703 16.39258,0 z m -1.12793,-1.042 0,-1.95507 -14.12598,0 0,1.95507 z m -7.7666,2.6211 -1.03125,0.50488 c -0.51564,-0.51561 -1.01336,-0.94172 -1.49317,-1.27832 l 1.05274,-0.50488 c 0.60871,0.47267 1.09927,0.89877 1.47168,1.27832 z m 6.14453,-0.65528 c -0.37242,0.35093 -0.96682,0.75197 -1.78321,1.20313 l -0.94531,-0.67676 c 0.64452,-0.30793 1.24608,-0.68391 1.80469,-1.12793 z m 2.48144,6.09082 -13.59961,0 0,-4.68359 13.59961,0 z m -1.11719,-1.03125 0,-2.62109 -5.15625,0 0,2.62109 z m -1.27832,-1.82617 c -0.31512,0.44402 -0.83074,0.97755 -1.54687,1.60059 l -0.84863,-0.54785 c 0.68032,-0.5944 1.1852,-1.10644 1.51464,-1.53614 z m -4.99511,1.82617 0,-2.62109 -5.05957,0 0,2.62109 z m -1.53614,-0.77343 -0.85937,0.56933 c -0.45118,-0.60871 -0.9131,-1.12076 -1.38574,-1.53613 l 0.90234,-0.56934 c 0.46549,0.41538 0.91308,0.92742 1.34277,1.53614 z m 8.27149,9.36718 -1.14942,0 0,-0.98828 -9.87207,0 0,0.98828 -1.12793,0 0,-6.57421 12.14942,0 z m -1.14942,-4.39355 0,-1.12793 -9.87207,0 0,1.12793 z m 0,2.37402 0,-1.36425 -9.87207,0 0,1.36425 z"
       style="font-variant:normal;font-stretch:normal;font-family:Microsoft JhengHei;-inkscape-font-specification:Microsoft JhengHei"
       id="path3137" />
  </g>
  <g
     style="font-size:22px;font-style:normal;font-weight:normal;line-height:125%;letter-spacing:0px;word-spacing:0px;fill:#000000;fill-opacity:1;stroke:none;font-family:Sans"
     id="text4084-4">
    <path
       d="m 502.69922,194.06238 -11.62305,0 0,5.65039 c 1.39648,-0.22917 2.81444,-0.58724 4.25391,-1.07422 l 0.0644,1.03125 c -1.74024,0.5944 -3.57358,1.09212 -5.5,1.49316 l -0.35449,-1.0957 c 0.26497,-0.20768 0.39745,-0.41894 0.39746,-0.63379 l 0,-5.37109 -2.93262,0 c -0.52279,3.1582 -1.31413,5.55729 -2.37402,7.19726 l -0.90234,-0.79492 c 1.60416,-2.61393 2.40624,-6.15527 2.40625,-10.62402 l 0,-7.41211 15.39355,0 0,4.74805 -14.25488,0 0,2.30957 4.11426,0 0,-1.51465 1.19238,0 0,1.51465 4.72656,0 0,-1.51465 1.19238,0 0,1.51465 3.27637,0 0,1.07421 -3.27637,0 0,2.42774 4.2002,0 z m -2.38477,-8.01367 0,-2.52442 -13.04101,0 0,2.52442 z m -3.00781,6.93945 0,-2.42774 -4.72656,0 0,2.42774 z m -5.91894,0 0,-2.42774 -4.13575,0 c 0,0.78061 -0.0501,1.58986 -0.15039,2.42774 z m 12.42871,7.16504 -0.54786,1.08496 c -2.95053,-0.76628 -5.04705,-1.68652 -6.28955,-2.76074 -1.24252,-1.07422 -2.13233,-2.16634 -2.66943,-3.27637 l 1.12793,-0.30078 c 0.68033,1.11719 1.43586,2.01953 2.2666,2.70703 1.05272,-0.66601 2.01952,-1.53255 2.90039,-2.59961 l 0.92383,0.70898 c -0.82359,0.99545 -1.75457,1.85124 -2.79297,2.56739 1.28189,0.78776 2.97557,1.41081 5.08106,1.86914 z"
       style="font-variant:normal;font-stretch:normal;font-family:Microsoft JhengHei;-inkscape-font-specification:Microsoft JhengHei"
       id="path3122" />
    <path
       d="m 522.83008,183.54578 -14.41602,0 0,-1.1709 14.41602,0 z m 2.39551,5.34961 -8.9375,0 0,12.32128 -1.18164,0 0,-12.32128 -9.06641,0 0,-1.1709 19.18555,0 z m -12.71875,3.07226 c -1.89064,3.06511 -3.7741,5.44987 -5.65039,7.1543 l -0.88086,-0.83789 c 1.89062,-1.62565 3.70963,-3.93522 5.45703,-6.92871 z m 12.76171,6.54199 -0.96679,0.56934 c -1.53257,-2.59244 -3.32294,-4.9235 -5.3711,-6.99316 l 1.05274,-0.66602 c 2.51365,2.76433 4.27537,5.12761 5.28515,7.08984 z"
       style="font-variant:normal;font-stretch:normal;font-family:Microsoft JhengHei;-inkscape-font-specification:Microsoft JhengHei"
       id="path3124" />
    <path
       d="m 546.21582,186.54285 -15.25391,0 c 0,4.49024 -0.17008,7.7308 -0.51025,9.72168 -0.34017,1.99088 -0.79313,3.58789 -1.35889,4.79101 l -0.92382,-0.76269 c 0.47265,-1.02409 0.86653,-2.41878 1.18164,-4.18409 0.3151,-1.76529 0.47265,-4.49201 0.47265,-8.18017 l 0,-5.45703 16.39258,0 z m -1.12793,-1.042 0,-1.95507 -14.12598,0 0,1.95507 z m -7.7666,2.6211 -1.03125,0.50488 c -0.51564,-0.51561 -1.01336,-0.94172 -1.49317,-1.27832 l 1.05274,-0.50488 c 0.60871,0.47267 1.09927,0.89877 1.47168,1.27832 z m 6.14453,-0.65528 c -0.37241,0.35093 -0.96681,0.75197 -1.7832,1.20313 l -0.94532,-0.67676 c 0.64452,-0.30793 1.24608,-0.6839 1.80469,-1.12793 z m 2.48145,6.09083 -13.59961,0 0,-4.6836 13.59961,0 z m -1.11719,-1.03125 0,-2.6211 -5.15625,0 0,2.6211 z m -1.27832,-1.82618 c -0.31512,0.44402 -0.83075,0.97755 -1.54688,1.60059 l -0.84863,-0.54785 c 0.68032,-0.59439 1.18521,-1.10644 1.51465,-1.53614 z m -4.99512,1.82618 0,-2.6211 -5.05957,0 0,2.6211 z m -1.53613,-0.77344 -0.85938,0.56933 c -0.45118,-0.60871 -0.91309,-1.12076 -1.38574,-1.53613 l 0.90234,-0.56934 c 0.46549,0.41538 0.91308,0.92742 1.34278,1.53614 z m 8.27148,9.36719 -1.14941,0 0,-0.98829 -9.87207,0 0,0.98829 -1.12793,0 0,-6.57422 12.14941,0 z m -1.14941,-4.39356 0,-1.12793 -9.87207,0 0,1.12793 z m 0,2.37402 0,-1.36425 -9.87207,0 0,1.36425 z"
       style="font-variant:normal;font-stretch:normal;font-family:Microsoft JhengHei;-inkscape-font-specification:Microsoft JhengHei"
       id="path3126" />
  </g>
  <g
     style="font-size:22px;font-style:normal;font-weight:normal;line-height:125%;letter-spacing:0px;word-spacing:0px;fill:#000000;fill-opacity:1;stroke:none;font-family:Sans"
     id="text4084-6">
    <path
       d="m 478.56982,250.15323 -19.22851,0 0,-1.13867 9.00195,0 0,-14.98535 -8.07812,0 0,-1.21387 17.29492,0 0,1.21387 -8.02442,0 0,14.98535 9.03418,0 z"
       style="font-variant:normal;font-stretch:normal;font-family:Microsoft JhengHei;-inkscape-font-specification:Microsoft JhengHei"
       id="path3111" />
    <path
       d="m 500.4624,236.02725 -6.97168,0 0,3.83496 6.00489,0 0,1.11719 -6.00489,0 0,4.11426 6.42383,0 0,1.14941 -6.42383,0 0,4.94141 -1.1709,0 0,-15.15723 -2.04101,0 c -0.71616,1.66147 -1.75815,3.38022 -3.12598,5.15625 l -0.77344,-0.94531 c 1.81185,-2.23436 3.23697,-5.08104 4.2754,-8.54004 l 1.03125,0.44043 c -0.12892,0.487 -0.43687,1.40366 -0.92383,2.75 l 9.70019,0 z m -13.01953,-3.88867 c -0.4655,1.05275 -0.90235,2.00522 -1.31055,2.85742 l -0.6123,1.21387 0,14.97461 -1.18164,0 0,-12.86914 c -1.25326,1.76889 -2.10547,2.89324 -2.55664,3.37305 l -0.63379,-1.10645 c 2.09114,-2.44205 3.82063,-5.38182 5.18848,-8.81934 z"
       style="font-variant:normal;font-stretch:normal;font-family:Microsoft JhengHei;-inkscape-font-specification:Microsoft JhengHei"
       id="path3113" />
    <path
       d="m 522.48389,237.53116 c -0.0358,0.87371 -0.15937,1.49854 -0.37061,1.87451 -0.21128,0.37599 -0.48163,0.62127 -0.81103,0.73584 -0.32945,0.11459 -0.99547,0.17188 -1.99805,0.17188 -0.76629,0 -1.27297,-0.0197 -1.52002,-0.0591 -0.24709,-0.0394 -0.49774,-0.16828 -0.75195,-0.38672 -0.25425,-0.21841 -0.38137,-0.56395 -0.38135,-1.03662 l 0,-6.91797 1.12793,0 0,2.44922 3.88867,0 0,1.09571 -3.88867,0 0,3.21191 c -2e-5,0.22202 0.068,0.36525 0.2041,0.42969 0.13605,0.0645 0.4977,0.0967 1.08496,0.0967 0.97394,1e-5 1.56118,-0.0465 1.76172,-0.13965 0.2005,-0.0931 0.34373,-0.32763 0.42969,-0.70361 0.0859,-0.37597 0.12888,-0.75374 0.1289,-1.1333 z m -6.57422,1.51465 c -1.96225,0.83074 -3.55568,1.42514 -4.78028,1.7832 l -0.54785,-0.92383 c 0.23632,-0.19335 0.35449,-0.42251 0.3545,-0.6875 l 0,-7.30469 1.07421,0 0,2.44922 3.69532,0 0,1.09571 -3.69532,0 0,3.87793 c 0.89518,-0.25781 2.14127,-0.71972 3.73829,-1.38575 z m -8.07813,-0.31153 c 1.23893,1.72592 1.85839,3.29428 1.8584,4.70508 -10e-6,1.7474 -0.84506,2.6211 -2.53515,2.6211 -0.30795,0 -0.67677,-0.0215 -1.10645,-0.0645 l -0.33301,-1.11719 c 0.47265,0.0358 0.88086,0.0537 1.22461,0.0537 1.06705,0 1.60058,-0.41178 1.60059,-1.23536 -10e-6,-1.61132 -0.64812,-3.19042 -1.94434,-4.7373 0.7233,-2.06965 1.26757,-3.8815 1.63281,-5.43555 l -2.99707,0 0,17.61719 -1.13867,0 0,-18.71289 5.34961,0 0,1.0957 c -0.32943,1.21747 -0.86654,2.95412 -1.61133,5.20996 z m 13.1377,12.40723 -1.1709,0 0,-1.20312 -7.43359,0 0,1.20312 -1.14942,0 0,-8.96973 2.9541,0 c 0.24348,-0.42968 0.51562,-1.08137 0.81641,-1.95507 l 1.0957,0.27929 c -0.20769,0.66603 -0.42612,1.22462 -0.65527,1.67578 l 5.54297,0 z m -1.1709,-5.67187 0,-2.20215 -7.43359,0 0,2.20215 z m 0,3.3623 0,-2.28809 -7.43359,0 0,2.28809 z"
       style="font-variant:normal;font-stretch:normal;font-family:Microsoft JhengHei;-inkscape-font-specification:Microsoft JhengHei"
       id="path3115" />
    <path
       d="m 533.96729,245.34073 c -1.44663,0.40821 -3.42677,0.84147 -5.94043,1.2998 l 0,4.50098 -1.11719,0 0,-4.28613 c -0.47982,0.0859 -0.94174,0.14323 -1.38574,0.17187 l -0.24707,-1.11719 c 0.83072,-0.0859 1.37499,-0.15038 1.63281,-0.19335 l 0,-12.25684 c 2.65689,-0.3867 4.79101,-0.90949 6.40234,-1.56836 l 0.54785,1.04199 c -1.53972,0.55861 -3.48405,1.04917 -5.833,1.47168 l 0,2.59961 4.88769,0 0,1.05274 -4.88769,0 0,2.85742 4.88769,0 0,1.05273 -4.88769,0 0,3.50196 c 1.65429,-0.25065 3.63443,-0.6696 5.94043,-1.25684 z m 10.5166,-5.85449 -2.2666,0 c -0.99546,1e-5 -1.49319,-0.52636 -1.49317,-1.5791 l 0,-4.44727 -3.80273,0 c 0.0501,3.10809 -0.89878,5.36036 -2.84668,6.75684 l -1.00977,-0.79493 c 0.93098,-0.54426 1.6149,-1.28368 2.05176,-2.21826 0.43684,-0.93455 0.65526,-2.21108 0.65527,-3.82959 l 0,-0.96679 6.04785,0 0,5.40332 c -1e-5,0.38673 0.20767,0.58009 0.62305,0.58007 l 2.04102,0 z m 0.1289,10.70996 -0.76269,0.98828 c -1.87632,-0.82357 -3.49123,-1.7832 -4.84473,-2.87891 -1.54689,1.16732 -3.62013,2.11979 -6.21973,2.85742 l -0.55859,-1.0957 c 2.52082,-0.61588 4.4938,-1.45735 5.91895,-2.52441 -1.23179,-1.26042 -2.2881,-2.97916 -3.16895,-5.15625 l -0.76269,0 0,-1.13867 9.01269,0 c -0.71616,2.73568 -1.82977,4.83398 -3.34082,6.29492 1.4466,1.11719 3.02212,2.00163 4.72656,2.65332 z m -2.92187,-7.80957 -5.52149,0 c 0.71614,1.80469 1.66861,3.27279 2.85743,4.40429 1.12433,-1.11718 2.01235,-2.58528 2.66406,-4.40429 z"
       style="font-variant:normal;font-stretch:normal;font-family:Microsoft JhengHei;-inkscape-font-specification:Microsoft JhengHei"
       id="path3117" />
    <path
       d="m 565.3667,236.54288 -15.25391,0 c 0,4.49024 -0.17009,7.7308 -0.51025,9.72168 -0.34017,1.99088 -0.79314,3.58789 -1.35889,4.79101 l -0.92383,-0.76269 c 0.47266,-1.02409 0.86654,-2.41878 1.18164,-4.18408 0.31511,-1.7653 0.47266,-4.49202 0.47266,-8.18018 l 0,-5.45703 16.39258,0 z m -1.12793,-1.04199 0,-1.95508 -14.12598,0 0,1.95508 z m -7.7666,2.62109 -1.03125,0.50488 c -0.51564,-0.51561 -1.01336,-0.94172 -1.49317,-1.27832 l 1.05274,-0.50488 c 0.60871,0.47267 1.09927,0.89877 1.47168,1.27832 z m 6.14453,-0.65527 c -0.37241,0.35092 -0.96681,0.75196 -1.7832,1.20312 l -0.94532,-0.67676 c 0.64452,-0.30793 1.24608,-0.6839 1.80469,-1.12793 z m 2.48144,6.09082 -13.5996,0 0,-4.6836 13.5996,0 z m -1.11718,-1.03125 0,-2.6211 -5.15625,0 0,2.6211 z m -1.27832,-1.82618 c -0.31512,0.44402 -0.83075,0.97755 -1.54688,1.60059 l -0.84863,-0.54785 c 0.68032,-0.59439 1.1852,-1.10644 1.51465,-1.53613 z m -4.99512,1.82618 0,-2.6211 -5.05957,0 0,2.6211 z m -1.53613,-0.77344 -0.85938,0.56933 c -0.45118,-0.60871 -0.91309,-1.12076 -1.38574,-1.53613 l 0.90234,-0.56933 c 0.46549,0.41537 0.91308,0.92741 1.34278,1.53613 z m 8.27148,9.36719 -1.14941,0 0,-0.98829 -9.87207,0 0,0.98829 -1.12793,0 0,-6.57422 12.14941,0 z m -1.14941,-4.39356 0,-1.12793 -9.87207,0 0,1.12793 z m 0,2.37402 0,-1.36425 -9.87207,0 0,1.36425 z"
       style="font-variant:normal;font-stretch:normal;font-family:Microsoft JhengHei;-inkscape-font-specification:Microsoft JhengHei"
       id="path3119" />
  </g>
  <g
     style="font-size:22px;font-style:normal;font-weight:normal;line-height:125%;letter-spacing:0px;word-spacing:0px;fill:#000000;fill-opacity:1;stroke:none;font-family:Sans"
     id="text4084-5">
    <path
       d="m 503.49615,306.75812 -0.65527,1.00976 c -2.47788,-1.48241 -4.20021,-2.97199 -5.16699,-4.46875 -1.36069,1.66148 -3.07228,3.12241 -5.13477,4.38282 l -0.80566,-0.88086 c 2.72134,-1.51106 4.64061,-3.27994 5.75781,-5.30664 l 1.12793,0.37597 c -0.0501,0.10028 -0.15399,0.24709 -0.31152,0.44043 1.20311,1.86916 2.9326,3.35158 5.18847,4.44727 z m -11.67675,11.15039 -3.21192,0 0,3.01855 -1.05273,0 0,-3.01855 -3.33008,0 0,-1.0957 3.33008,0 0,-1.94434 -2.6211,0 0,-8.44336 2.6211,0 0,-1.93359 -3.08301,0 0,-1.06348 3.08301,0 0,-1.75098 1.05273,0 0,1.75098 3.08301,0 0,1.06348 -3.08301,0 0,1.93359 2.6211,0 0,8.44336 -2.6211,0 0,1.94434 3.21192,0 z m -1.6543,-7.85254 0,-2.55664 -1.55762,0 0,2.55664 z m -2.61035,0 0,-2.55664 -1.56836,0 0,2.55664 z m 2.61035,3.7168 0,-2.68555 -1.55762,0 0,2.68555 z m -2.61035,0 0,-2.68555 -1.56836,0 0,2.68555 z m 12.79394,-5.9834 -5.58593,0 0,-1.12793 5.58593,0 z m 2.15918,11.65527 c -2e-5,0.52995 -0.14862,0.90055 -0.4458,1.11182 -0.29722,0.21126 -0.88983,0.31689 -1.77783,0.31689 -0.27215,0 -0.6159,-0.007 -1.03125,-0.0215 l -0.44043,-1.11719 c 0.37238,0.0358 0.82355,0.0537 1.35352,0.0537 0.61586,0 0.97752,-0.0304 1.08496,-0.0913 0.1074,-0.0609 0.16111,-0.18799 0.16113,-0.38135 l 0,-10.87109 1.0957,0 z m -5.18847,0.043 c -2e-5,0.93815 -0.64455,1.40723 -1.9336,1.40723 -0.21485,0 -0.41537,-0.0215 -0.60156,-0.0645 l -0.44043,-1.11718 c 0.28645,0.0501 0.60155,0.0752 0.94531,0.0752 0.63736,0 0.95604,-0.15755 0.95606,-0.47266 l 0,-2.68554 -2.55664,0 c -0.21486,1.58984 -0.61232,3.00423 -1.19239,4.24316 l -0.96679,-0.65527 c 0.80923,-1.53971 1.21386,-3.3444 1.21387,-5.41406 l 0,-5.75782 4.57617,0 z m -1.07422,-7.30469 0,-2.04101 -2.38477,0 0,2.04101 z m 0,3.35156 0,-2.22363 -2.38477,0 c -10e-6,0.25066 -0.0215,0.99187 -0.0645,2.22363 z m 3.7168,1.86915 -1.14942,0 0,-7.80957 1.14942,0 z"
       style="font-variant:normal;font-stretch:normal;font-family:Microsoft JhengHei;-inkscape-font-specification:Microsoft JhengHei"
       id="path3086" />
    <path
       d="m 517.55768,304.42706 -0.98828,0.52637 c -0.37957,-0.78774 -1.01694,-1.73306 -1.91211,-2.83594 l 0.98828,-0.58008 c 0.92382,1.10289 1.56118,2.0661 1.91211,2.88965 z m -6.48828,0.36524 -0.88086,0.8164 c -0.82357,-1.16014 -1.8584,-2.23794 -3.10449,-3.23339 l 0.85937,-0.75196 c 1.27474,0.96682 2.31673,2.02313 3.12598,3.16895 z m 12.05273,-2.61035 c -0.45119,0.91668 -1.15301,1.84767 -2.10547,2.79296 l -0.94531,-0.64453 c 0.90949,-0.93097 1.59699,-1.81541 2.0625,-2.65332 z m 2.03027,8.64746 -5.96191,0 c -0.43686,3.11524 -2.35971,5.46061 -5.76855,7.03613 l -0.83789,-0.98828 c 3.27277,-1.33203 5.07746,-3.34798 5.41406,-6.04785 l -5.3711,0 0,-1.12793 5.52149,0 c 0.043,-0.60872 0.0644,-1.62206 0.0644,-3.04004 l -4.87695,0 0,-1.13867 11.04297,0 0,1.13867 -4.97364,0 c -1e-5,0.60873 -0.0358,1.62208 -0.10742,3.04004 l 5.85449,0 z m 0.52637,8.44336 -0.31152,1.23535 -8.69043,-0.0967 c -3.15105,0 -5.52507,-0.81999 -7.12207,-2.45996 -0.9668,1.23893 -1.83334,2.21289 -2.59961,2.92187 l -0.94531,-0.82715 c 2.44921,-2.21289 3.98176,-4.569 4.59765,-7.06836 l -3.9209,0 0,-1.03125 c 1.45378,-1.66861 2.66406,-3.17251 3.63086,-4.51171 l -4.11425,0 0,-1.09571 5.61816,0 0,1.09571 c -1.32488,1.70443 -2.49935,3.18685 -3.52344,4.44726 l 3.52344,0 0,1.0957 c -0.35808,1.17449 -0.91667,2.52442 -1.67578,4.04981 0.78059,0.7806 1.67935,1.34635 2.69629,1.69726 1.01692,0.35092 2.16812,0.53711 3.45361,0.5586 1.28547,0.0215 2.6551,0.0322 4.10889,0.0322 1.6686,1e-5 3.42674,-0.0143 5.27441,-0.043 z m -0.39746,-2.417 -0.75195,0.98829 c -1.4896,-1.53255 -3.2549,-2.91829 -5.2959,-4.15723 l 0.63379,-0.90235 c 2.14842,1.26759 3.9531,2.62468 5.41406,4.07129 z"
       style="font-variant:normal;font-stretch:normal;font-family:Microsoft JhengHei;-inkscape-font-specification:Microsoft JhengHei"
       id="path3088" />
    <path
       d="m 546.25006,306.25323 -15.25391,0 c 0,4.49025 -0.17008,7.7308 -0.51025,9.72168 -0.34017,1.99089 -0.79313,3.5879 -1.35889,4.79102 l -0.92382,-0.7627 c 0.47265,-1.02408 0.86653,-2.41878 1.18164,-4.18408 0.3151,-1.76529 0.47265,-4.49201 0.47265,-8.18017 l 0,-5.45703 16.39258,0 z m -1.12793,-1.04199 0,-1.95508 -14.12598,0 0,1.95508 z m -7.7666,2.6211 -1.03125,0.50488 c -0.51563,-0.51561 -1.01336,-0.94172 -1.49316,-1.27832 l 1.05273,-0.50488 c 0.60871,0.47267 1.09927,0.89877 1.47168,1.27832 z m 6.14453,-0.65528 c -0.37241,0.35093 -0.96681,0.75197 -1.7832,1.20313 l -0.94531,-0.67676 c 0.64451,-0.30793 1.24607,-0.68391 1.80468,-1.12793 z m 2.48145,6.09082 -13.59961,0 0,-4.68359 13.59961,0 z m -1.11719,-1.03125 0,-2.62109 -5.15625,0 0,2.62109 z m -1.27832,-1.82617 c -0.31512,0.44402 -0.83075,0.97755 -1.54688,1.60059 l -0.84863,-0.54785 c 0.68032,-0.5944 1.18521,-1.10644 1.51465,-1.53614 z m -4.99512,1.82617 0,-2.62109 -5.05957,0 0,2.62109 z m -1.53613,-0.77343 -0.85938,0.56933 c -0.45118,-0.60871 -0.91309,-1.12076 -1.38574,-1.53613 l 0.90235,-0.56934 c 0.46548,0.41538 0.91307,0.92742 1.34277,1.53614 z m 8.27148,9.36718 -1.14941,0 0,-0.98828 -9.87207,0 0,0.98828 -1.12793,0 0,-6.57422 12.14941,0 z m -1.14941,-4.39355 0,-1.12793 -9.87207,0 0,1.12793 z m 0,2.37402 0,-1.36426 -9.87207,0 0,1.36426 z"
       style="font-variant:normal;font-stretch:normal;font-family:Microsoft JhengHei;-inkscape-font-specification:Microsoft JhengHei"
       id="path3090" />
  </g>
  <g
     style="font-size:22px;font-style:normal;font-weight:normal;line-height:125%;letter-spacing:0px;word-spacing:0px;fill:#000000;fill-opacity:1;stroke:none;font-family:Sans"
     id="text4084-1">
    <path
       d="m 491.52563,386.74255 -1.05273,0.3545 c -0.0788,-0.40104 -0.18979,-0.81999 -0.33301,-1.25684 -2.22006,0.61589 -4.17155,1.0778 -5.85449,1.38574 l -0.35449,-1.22461 c 1.61848,-1.45377 3.01139,-3.1188 4.17871,-4.99511 -1.9336,0.31511 -3.16537,0.50489 -3.69531,0.56933 l -0.30078,-1.0957 c 1.38932,-1.69009 2.56737,-3.8242 3.53418,-6.40235 l 1.06347,0.34375 c -0.76628,2.06252 -1.79395,4.01402 -3.08301,5.8545 0.98112,-0.0788 2.03743,-0.23274 3.16895,-0.46192 0.58007,-0.92381 1.09211,-1.86196 1.53613,-2.81445 l 1.04199,0.41894 c -1.85482,3.65952 -3.75619,6.45249 -5.7041,8.37891 1.20312,-0.18619 2.57454,-0.50846 4.11426,-0.9668 -0.17904,-0.54426 -0.37598,-1.04198 -0.59082,-1.49316 l 0.98828,-0.35449 c 0.55859,1.153 1.00618,2.40625 1.34277,3.75976 z m 11.06446,4.93067 c -2e-5,0.37239 -0.12535,0.70719 -0.37598,1.00439 -0.25067,0.2972 -0.54429,0.47982 -0.88086,0.54785 -0.33661,0.068 -1.00262,0.0842 -1.99804,0.0483 l -0.4834,-1.20312 c 0.46547,0.0143 0.86652,0.0215 1.20312,0.0215 0.65884,0 1.05988,-0.043 1.20313,-0.1289 0.14321,-0.0859 0.21482,-0.23991 0.21484,-0.46192 l 0,-15.75879 -8.34668,0 0,17.50977 -1.11719,0 0,-18.58399 10.58106,0 z m -1.76172,-10.45215 -7.05762,0 0,-1.07422 1.76172,0 c -0.23634,-0.86652 -0.59799,-1.79751 -1.08496,-2.79297 l 1.04199,-0.41894 c 0.45116,0.97397 0.85936,2.04461 1.22461,3.21191 l 1.23535,0 c 0.51561,-0.91665 1.00617,-2.00161 1.47168,-3.25488 l 1.00977,0.39746 c -0.20054,0.60874 -0.60874,1.56121 -1.22461,2.85742 l 1.62207,0 z m 0,4.00684 -4.70508,0 0,3.25488 c -10e-6,0.37956 0.17544,0.56934 0.52637,0.56933 l 3.87793,0 0,1.03125 -3.98535,0 c -1.02411,10e-6 -1.53615,-0.52636 -1.53614,-1.5791 l 0,-3.27636 -1.23535,0 0,-1.05274 3.42676,0 c -0.17189,-0.54426 -0.45119,-1.21386 -0.83789,-2.00879 l 1.08496,-0.37597 c 0.25064,0.54428 0.56574,1.3392 0.94531,2.38476 l 2.43848,0 z m -9.3457,6.19824 -1.05274,0.37597 c -0.12175,-1.04557 -0.44044,-2.35611 -0.95605,-3.93164 l 1.04199,-0.333 c 0.47981,1.40364 0.80207,2.69987 0.9668,3.88867 z m -2.57813,1.02051 -1.13867,0.21484 c -0.0645,-1.42513 -0.26498,-2.95052 -0.60156,-4.57617 l 1.06347,-0.17188 c 0.33659,1.40365 0.56217,2.91472 0.67676,4.53321 z m -2.77148,-4.31836 c -0.25066,1.83333 -0.66244,3.57356 -1.23535,5.2207 l -1.09571,-0.4834 c 0.53711,-1.31055 0.97038,-2.96126 1.29981,-4.95215 z"
       style="font-variant:normal;font-stretch:normal;font-family:Microsoft JhengHei;-inkscape-font-specification:Microsoft JhengHei"
       id="path3079" />
    <path
       d="m 525.15942,383.53064 -0.69824,1.03125 c -1.87632,-0.70898 -3.54852,-1.54329 -5.0166,-2.50293 -1.33204,1.00261 -3.12957,1.86199 -5.39258,2.57812 l -0.75195,-1.06347 c 2.15559,-0.61588 3.8815,-1.34993 5.17773,-2.20215 -0.95248,-0.82356 -1.77605,-1.819 -2.4707,-2.98633 -0.73764,0.62306 -1.33204,1.07065 -1.7832,1.34278 l -0.90235,-0.85938 c 2.25585,-1.33918 3.82063,-2.98273 4.69434,-4.93066 l 1.11719,0.35449 c -0.24351,0.57293 -0.53713,1.12436 -0.88086,1.6543 l 5.56445,0 0,1.03125 c -0.99546,1.78321 -2.12339,3.21908 -3.38379,4.30761 1.33918,0.87371 2.9147,1.62208 4.72656,2.24512 z m -2.77148,-6.53125 -4.99512,0 c -0.043,0.0716 -0.12892,0.18084 -0.25781,0.32764 -0.12892,0.14682 -0.21128,0.24171 -0.24707,0.28466 0.63736,1.23179 1.49673,2.23081 2.57812,2.99707 1.14582,-0.9453 2.11978,-2.14842 2.92188,-3.60937 z m -8.66895,13.64258 c -2.40625,0.94531 -4.93425,1.77962 -7.58398,2.50293 l -0.31152,-1.16016 c 0.51562,-0.12174 0.90592,-0.23275 1.17089,-0.33301 l 0,-8.95898 1.09571,0 0,8.62598 c 0.30794,-0.0573 0.91666,-0.23275 1.82617,-0.52637 l 0,-9.74317 -3.16895,0 0,-6.25195 6.29493,0 0,6.25195 -2.00879,0 0,3.38379 2.42773,0 0,1.12793 -2.42773,0 0,4.83399 c 0.88801,-0.2793 1.78319,-0.62305 2.68554,-1.03125 z m -1.82617,-10.67774 0,-4.06054 -3.99609,0 0,4.06054 z m 11.6875,13.30957 -1.14941,0 0,-1.00976 -6.06934,0 0,1.00976 -1.16015,0 0,-8.06738 8.3789,0 z m -1.14941,-2.10547 0,-4.84472 -6.06934,0 0,4.84472 z"
       style="font-variant:normal;font-stretch:normal;font-family:Microsoft JhengHei;-inkscape-font-specification:Microsoft JhengHei"
       id="path3081" />
    <path
       d="m 545.93481,378.65369 -15.2539,0 c -1e-5,4.49024 -0.17009,7.7308 -0.51026,9.72168 -0.34017,1.99088 -0.79313,3.58789 -1.35888,4.79101 l -0.92383,-0.76269 c 0.47265,-1.02409 0.86653,-2.41878 1.18164,-4.18409 0.3151,-1.76529 0.47265,-4.49201 0.47266,-8.18017 l 0,-5.45703 16.39257,0 z m -1.12793,-1.042 0,-1.95507 -14.12597,0 0,1.95507 z m -7.7666,2.6211 -1.03125,0.50488 c -0.51563,-0.51561 -1.01335,-0.94172 -1.49316,-1.27832 l 1.05273,-0.50488 c 0.60872,0.47267 1.09928,0.89877 1.47168,1.27832 z m 6.14453,-0.65528 c -0.37241,0.35093 -0.96681,0.75197 -1.7832,1.20313 l -0.94531,-0.67676 c 0.64452,-0.30793 1.24608,-0.6839 1.80469,-1.12793 z m 2.48145,6.09082 -13.59961,0 0,-4.68359 13.59961,0 z m -1.11719,-1.03125 0,-2.62109 -5.15625,0 0,2.62109 z m -1.27832,-1.82617 c -0.31512,0.44402 -0.83074,0.97755 -1.54687,1.60059 l -0.84864,-0.54785 c 0.68033,-0.59439 1.18521,-1.10644 1.51465,-1.53614 z m -4.99512,1.82617 0,-2.62109 -5.05957,0 0,2.62109 z m -1.53613,-0.77343 -0.85937,0.56933 c -0.45118,-0.60871 -0.9131,-1.12076 -1.38575,-1.53613 l 0.90235,-0.56934 c 0.46548,0.41538 0.91307,0.92742 1.34277,1.53614 z m 8.27149,9.36718 -1.14942,0 0,-0.98828 -9.87207,0 0,0.98828 -1.12793,0 0,-6.57421 12.14942,0 z m -1.14942,-4.39355 0,-1.12793 -9.87207,0 0,1.12793 z m 0,2.37402 0,-1.36425 -9.87207,0 0,1.36425 z"
       style="font-variant:normal;font-stretch:normal;font-family:Microsoft JhengHei;-inkscape-font-specification:Microsoft JhengHei"
       id="path3083" />
  </g>
  <g
     style="font-size:22px;font-style:normal;font-weight:normal;line-height:125%;letter-spacing:0px;word-spacing:0px;fill:#000000;fill-opacity:1;stroke:none;font-family:Sans"
     id="text4084-8">
    <path
       d="m 480.38995,451.72876 c -0.74481,1.05275 -1.43231,1.88348 -2.0625,2.49219 l -0.83789,-0.79492 c 0.56574,-0.57291 1.09927,-1.19595 1.60059,-1.86915 l -8.0459,0 c -0.59441,0.75197 -1.26401,1.41083 -2.00879,1.97657 l -0.76269,-0.7627 c 1.2604,-0.9453 2.32388,-2.23794 3.19043,-3.87793 l 1.07421,0.37598 -0.69824,1.21387 8.55078,0 z m -12.66504,-0.63379 -5.54296,0 0,-1.05273 5.54296,0 z m 13.12696,4.66211 -0.4834,1.07422 c -2.81447,-0.41535 -5.00588,-1.27115 -6.57422,-2.56738 -1.26043,1.21029 -2.93979,2.0446 -5.03809,2.50293 l -0.59082,-1.05274 c 2.69986,-0.41535 4.56184,-1.51463 5.58594,-3.29785 l 1.20313,0.21484 c -0.043,0.17905 -0.21128,0.46551 -0.50489,0.85938 1.48241,1.21746 3.61652,1.97299 6.40235,2.2666 z m -12.95508,-0.69824 -6.15527,0 0,-1.10645 6.15527,0 z m 9.65723,10.14062 -8.7334,0 0.54785,0.71973 c -2.27019,1.14583 -4.67644,1.98372 -7.21875,2.51367 l -0.56934,-1.04199 c 2.35612,-0.39388 4.59407,-1.12435 6.71387,-2.19141 l -3.41602,0 0,-8.05664 12.67579,0 z m -1.13868,-5.76855 0,-1.25684 -10.36621,0 0,1.25684 z m 0,2.35254 0,-1.36426 -10.36621,0 0,1.36426 z m 0,2.37402 0,-1.38574 -10.36621,0 0,1.38574 z m 4.30762,3.28711 -0.52637,1.00977 c -2.14129,-0.80209 -4.26824,-1.41797 -6.38086,-1.84766 l 0.54786,-0.98828 c 2.28449,0.46549 4.40427,1.07422 6.35937,1.82617 z"
       style="font-variant:normal;font-stretch:normal;font-family:Microsoft JhengHei;-inkscape-font-specification:Microsoft JhengHei"
       id="path3038" />
    <path
       d="m 492.51788,457.29321 -3.39453,0 0,10.97852 -1.13867,0 0,-10.97852 -4.07129,0 0,-1.05273 4.07129,0 0,-7.26172 1.13867,0 0,7.26172 3.39453,0 z m 10.3125,4.99512 -2.2666,0.44043 0,5.58594 -1.11719,0 0,-5.36035 -6.82128,1.27832 -0.1504,-1.10645 6.97168,-1.32129 0,-12.76172 1.11719,0 0,12.54688 2.11621,-0.39746 z m -10.0332,-11.34375 c -0.47267,1.62567 -1.00619,2.99708 -1.60059,4.11426 l -1.05273,-0.51563 c 0.64452,-1.08136 1.19237,-2.41339 1.64355,-3.99609 z m -6.1123,3.53418 -1.09571,0.44043 c -0.25065,-1.07421 -0.78776,-2.38475 -1.61133,-3.93164 l 0.98829,-0.44043 c 0.83072,1.47527 1.40364,2.78582 1.71875,3.93164 z m 11.54785,-0.80566 -0.85938,0.84863 c -0.88803,-1.00259 -2.06609,-2.0052 -3.53418,-3.00781 l 0.7627,-0.81641 c 1.21743,0.77345 2.42772,1.76531 3.63086,2.97559 z m -0.37598,5.92968 -0.85937,0.88086 c -0.74481,-1.11002 -1.94435,-2.33462 -3.59864,-3.67383 l 0.82715,-0.80566 c 1.42512,1.15301 2.6354,2.35255 3.63086,3.59863 z m -5.23144,2.68555 -1.14942,0.37598 c -0.17188,-0.99544 -0.62664,-2.24869 -1.36426,-3.75977 l 1.02051,-0.35449 c 0.73762,1.51824 1.23534,2.76433 1.49317,3.73828 z m -5.81153,-3.40527 c -0.51563,2.50651 -1.19597,4.57259 -2.04101,6.19824 l -1.10645,-0.4834 c 0.85937,-1.58268 1.56478,-3.59863 2.11621,-6.04785 z"
       style="font-variant:normal;font-stretch:normal;font-family:Microsoft JhengHei;-inkscape-font-specification:Microsoft JhengHei"
       id="path3040" />
    <path
       d="m 524.74445,463.48071 -5.74707,0 0,2.43848 -1.16016,0 0,-2.43848 -5.76856,0 0,-1.07422 5.76856,0 0,-1.71875 -4.86621,0 0,-7.13281 4.86621,0 0,-1.70801 -5.54297,0 0,-1.06347 5.54297,0 0,-1.74024 1.16016,0 0,1.74024 5.5,0 0,1.06347 -5.5,0 0,1.70801 4.90918,0 0,7.13281 -4.90918,0 0,1.71875 5.74707,0 z m -1.95508,-6.95019 0,-1.86914 -3.79199,0 0,1.86914 z m -4.95215,0 0,-1.86914 -3.73828,0 0,1.86914 z m 4.95215,3.10449 0,-2.03027 -3.79199,0 0,2.03027 z m -4.95215,0 0,-2.03027 -3.73828,0 0,2.03027 z m -7.59473,-7.24023 -0.84863,0.78418 c -0.64454,-0.98111 -1.69369,-2.05891 -3.14746,-3.2334 l 0.78418,-0.78418 c 1.27473,1.03126 2.34537,2.10906 3.21191,3.2334 z m 14.65235,14.38378 -0.36524,1.10645 -8.03515,0 c -3.48048,0 -5.99415,-0.81641 -7.54102,-2.44922 -0.85938,1.21029 -1.74024,2.20215 -2.64258,2.97559 l -0.85937,-0.75196 c 2.36327,-2.06966 3.81347,-4.44368 4.35058,-7.12207 l -3.71679,0 0,-1.04199 c 1.11718,-1.26757 2.29166,-2.75357 3.52343,-4.45801 l -3.86718,0 0,-1.10644 5.18847,0 0,1.10644 c -0.70899,1.00262 -1.82975,2.46714 -3.3623,4.39356 l 3.40527,0 0,1.10644 c -0.43685,1.70444 -0.92741,3.0293 -1.47168,3.97461 1.45377,1.51107 3.67382,2.2666 6.66016,2.2666 z"
       style="font-variant:normal;font-stretch:normal;font-family:Microsoft JhengHei;-inkscape-font-specification:Microsoft JhengHei"
       id="path3042" />
    <path
       d="m 546.63702,453.21118 -5.05957,0 0,3.36231 4.35059,0 0,1.07422 -9.67871,0 0,-1.07422 4.22168,0 0,-3.36231 -4.83399,0 0,-1.06347 4.83399,0 0,-3.00782 1.10644,0 0,3.00782 5.05957,0 z m -10.93554,8.46485 -1.00977,0.52636 c -0.0788,-0.40103 -0.22559,-0.82714 -0.44043,-1.27832 -1.97657,0.50131 -4.08203,0.91309 -6.3164,1.23535 l -0.31153,-1.07421 c 1.61133,-1.15299 3.07226,-2.66406 4.38281,-4.53321 -1.71159,0.18621 -3.01855,0.30437 -3.92089,0.35449 l -0.21485,-0.99902 c 1.61133,-1.77603 2.94694,-4.02472 4.00684,-6.74609 l 1.00976,0.44043 c -0.8737,2.29884 -1.96582,4.30763 -3.27636,6.02636 1.30338,-0.0573 2.36685,-0.14679 3.19043,-0.26855 0.50129,-0.79491 0.93814,-1.57193 1.31054,-2.33106 l 1.02051,0.54786 c -1.71876,3.16537 -3.4948,5.5573 -5.32812,7.17578 1.51106,-0.23632 2.83235,-0.51562 3.96386,-0.83789 -0.12891,-0.37239 -0.33659,-0.78418 -0.62304,-1.23535 l 1.0205,-0.4834 c 0.73046,1.31055 1.24251,2.47071 1.53614,3.48047 z m 9.65722,6.5957 -1.11718,0 0,-1.2461 -6.29493,0 0,1.2461 -1.12793,0 0,-8.06738 8.54004,0 z m -1.11718,-2.37402 0,-4.59766 -6.29493,0 0,4.59766 z m -8.54004,0.64453 -1.07422,0.41894 c -0.22202,-1.1888 -0.58367,-2.4528 -1.08496,-3.79199 l 0.96679,-0.41895 c 0.5944,1.3392 0.99186,2.6032 1.19239,3.792 z m -5.79004,-3.45899 c -0.33659,2.09831 -0.79851,3.77051 -1.38574,5.0166 l -1.07422,-0.56933 c 0.61588,-1.1888 1.07779,-2.76074 1.38574,-4.71582 z m 2.83594,4.4043 -1.22461,0.17187 c 0.0286,-1.18164 -0.10385,-2.67122 -0.39746,-4.46875 l 1.05273,-0.25781 c 0.37955,1.71159 0.56933,3.22982 0.56934,4.55469 z"
       style="font-variant:normal;font-stretch:normal;font-family:Microsoft JhengHei;-inkscape-font-specification:Microsoft JhengHei"
       id="path3044" />
    <path
       d="m 567.64874,453.6731 -15.2539,0 c -1e-5,4.49024 -0.17009,7.7308 -0.51026,9.72168 -0.34017,1.99088 -0.79313,3.58789 -1.35888,4.79101 l -0.92383,-0.76269 c 0.47265,-1.02409 0.86653,-2.41878 1.18164,-4.18409 0.3151,-1.76529 0.47265,-4.49201 0.47265,-8.18017 l 0,-5.45703 16.39258,0 z m -1.12793,-1.042 0,-1.95507 -14.12597,0 0,1.95507 z m -7.7666,2.6211 -1.03125,0.50488 c -0.51563,-0.51561 -1.01335,-0.94172 -1.49316,-1.27832 l 1.05273,-0.50488 c 0.60872,0.47267 1.09928,0.89877 1.47168,1.27832 z m 6.14453,-0.65528 c -0.37241,0.35093 -0.96681,0.75197 -1.7832,1.20313 l -0.94531,-0.67676 c 0.64451,-0.30793 1.24608,-0.68391 1.80468,-1.12793 z m 2.48145,6.09082 -13.59961,0 0,-4.68359 13.59961,0 z m -1.11719,-1.03125 0,-2.62109 -5.15625,0 0,2.62109 z m -1.27832,-1.82617 c -0.31512,0.44402 -0.83075,0.97755 -1.54687,1.60059 l -0.84864,-0.54785 c 0.68033,-0.5944 1.18521,-1.10644 1.51465,-1.53614 z m -4.99512,1.82617 0,-2.62109 -5.05957,0 0,2.62109 z m -1.53613,-0.77343 -0.85937,0.56933 c -0.45119,-0.60871 -0.9131,-1.12076 -1.38575,-1.53613 l 0.90235,-0.56934 c 0.46548,0.41538 0.91307,0.92742 1.34277,1.53614 z m 8.27148,9.36718 -1.14941,0 0,-0.98828 -9.87207,0 0,0.98828 -1.12793,0 0,-6.57421 12.14941,0 z m -1.14941,-4.39355 0,-1.12793 -9.87207,0 0,1.12793 z m 0,2.37402 0,-1.36425 -9.87207,0 0,1.36425 z"
       style="font-variant:normal;font-stretch:normal;font-family:Microsoft JhengHei;-inkscape-font-specification:Microsoft JhengHei"
       id="path3046" />
  </g>
  <g
     style="font-size:22px;font-style:normal;font-weight:normal;line-height:125%;letter-spacing:0px;word-spacing:0px;fill:#000000;fill-opacity:1;stroke:none;font-family:Sans"
     id="text4084-12">
    <path
       d="m 502.91046,501.32056 -1.11719,0 0,-2.07325 -15.26464,0 0,1.98731 -1.12793,0 0,-2.93262 8.14257,0 c -0.17904,-0.37238 -0.36882,-0.68748 -0.56933,-0.94531 l 1.05273,-0.37598 c 0.18619,0.27216 0.444,0.71259 0.77344,1.32129 l 8.11035,0 z m 0.81641,2.0625 -3.50196,0 -0.19335,2.22363 -12.27833,0 0.20411,-2.22363 -3.37305,0 0,-0.83789 3.48047,0 0.23633,-2.12696 12.23535,0 -0.21485,2.12696 3.40528,0 z m -4.39356,-2.08399 -4.46875,0 -0.10742,1.2461 4.45801,0 z m -5.61816,0 -4.41504,0 -0.13965,1.2461 4.44727,0 z m 5.37109,2.08399 -4.44726,0 -0.10742,1.32129 4.44726,0 z m -5.58593,0 -4.4043,0 -0.12891,1.32129 4.42578,0 z m 7.43359,9.96875 -8.90527,0 0.48339,0.6875 c -2.39909,1.27474 -4.76953,2.05175 -7.11132,2.33105 l -0.65528,-1.02051 c 2.42773,-0.25781 4.73014,-0.92382 6.90723,-1.99804 l -4.24317,0 0,-6.61719 13.52442,0 z m -1.11719,-4.70508 0,-1.00977 -11.35449,0 0,1.00977 z m 0,1.91211 0,-1.03125 -11.35449,0 0,1.03125 z m 0,1.91211 0,-1.03125 -11.35449,0 0,1.03125 z m 3.62012,2.92187 -0.42969,0.95606 c -1.90496,-0.70899 -4.33986,-1.25326 -7.30469,-1.63282 l 0.46192,-0.88085 c 2.97915,0.37955 5.4033,0.89876 7.27246,1.55761 z"
       style="font-variant:normal;font-stretch:normal;font-family:Microsoft JhengHei;-inkscape-font-specification:Microsoft JhengHei"
       id="path3031" />
    <path
       d="m 525.00714,505.12329 -9.27051,0 0,-6.25195 2.77149,0 0,-1.80469 0.96679,0 0,1.80469 1.82618,0 0,-1.80469 0.97754,0 0,1.80469 2.72851,0 z m -0.99902,-3.60937 0,-1.66504 -1.72949,0 0,1.66504 z m -2.70703,0 0,-1.66504 -1.82618,0 0,1.66504 z m -2.79297,0 0,-1.66504 -1.80469,0 0,1.66504 z m 5.5,2.68554 0,-1.76172 -1.72949,0 0,1.76172 z m -2.70703,0 0,-1.76172 -1.82618,0 0,1.76172 z m -2.79297,0 0,-1.76172 -1.80469,0 0,1.76172 z m -3.75977,1.29981 -1.05273,0 0,-1.25684 -5.87598,0 0,1.25684 -1.07422,0 0,-2.28809 1.13867,0 0,-5.60742 6.09082,0 0,5.60742 0.77344,0 z m -1.82617,-5.20996 0,-1.6543 -4.00684,0 0,4.57617 1.34278,0 0,-2.92187 z m -0.0215,2.92187 0,-1.93359 -1.60059,0 0,1.93359 z m 0.37597,11.52637 c -10e-6,0.44401 -0.11996,0.8182 -0.35986,1.12256 -0.23992,0.30436 -0.66781,0.45654 -1.28369,0.45654 l -0.83789,0 -0.31153,-1.05273 1.40723,0 c 0.0644,0 0.13964,-0.0394 0.22559,-0.11817 0.0859,-0.0788 0.1289,-0.15039 0.1289,-0.21484 l 0,-3.0293 c -1.2819,0.70183 -2.27377,1.18522 -2.97558,1.4502 l -0.30078,-0.54785 c -0.37957,1.5039 -0.85938,2.66048 -1.43946,3.46972 l -0.87012,-0.50488 c 1.03841,-1.76172 1.55762,-3.61653 1.55762,-5.56445 l 0,-4.37207 5.05957,0 z m -1.03125,-4.09277 0,-3.80274 -3.01855,0 0,1.25684 c 0.75911,0.22917 1.63997,0.5586 2.64258,0.98828 l -0.4834,0.94531 c -0.47266,-0.22916 -1.19239,-0.51562 -2.15918,-0.85937 -0.0287,1.32487 -0.0931,2.38118 -0.19336,3.16894 1.03124,-0.44401 2.10188,-1.00976 3.21191,-1.69726 z m 13.24512,-3.04004 -10.43066,0 0,-1.00977 10.43066,0 z m 0.12891,8.25 -11.02149,0 0,-1.03125 3.36231,0 c -0.12892,-0.65886 -0.40106,-1.42871 -0.81641,-2.30957 l -1.0957,0 0,-3.63086 8.35742,0 0,3.63086 -1.29981,0 c -0.35809,0.93099 -0.67319,1.70084 -0.94531,2.30957 l 3.45899,0 z m -2.30957,-4.32911 0,-1.65429 -6.14454,0 0,1.65429 z m -1.40723,0.98829 -3.58789,0 0.8164,2.30957 1.84766,0 c 0.39386,-0.84505 0.70181,-1.61491 0.92383,-2.30957 z"
       style="font-variant:normal;font-stretch:normal;font-family:Microsoft JhengHei;-inkscape-font-specification:Microsoft JhengHei"
       id="path3033" />
    <path
       d="m 546.5882,501.67505 -15.25391,0 c 0,4.49024 -0.17009,7.7308 -0.51025,9.72168 -0.34018,1.99089 -0.79314,3.58789 -1.35889,4.79101 l -0.92383,-0.76269 c 0.47266,-1.02409 0.86653,-2.41878 1.18164,-4.18408 0.3151,-1.7653 0.47265,-4.49202 0.47266,-8.18018 l 0,-5.45703 16.39258,0 z m -1.12793,-1.04199 0,-1.95508 -14.12598,0 0,1.95508 z m -7.76661,2.62109 -1.03125,0.50488 c -0.51563,-0.51561 -1.01335,-0.94172 -1.49316,-1.27832 l 1.05273,-0.50488 c 0.60872,0.47267 1.09928,0.89878 1.47168,1.27832 z m 6.14454,-0.65527 c -0.37242,0.35092 -0.96682,0.75196 -1.78321,1.20312 l -0.94531,-0.67676 c 0.64452,-0.30793 1.24608,-0.6839 1.80469,-1.12793 z m 2.48144,6.09082 -13.59961,0 0,-4.6836 13.59961,0 z m -1.11719,-1.03125 0,-2.6211 -5.15625,0 0,2.6211 z m -1.27832,-1.82617 c -0.31512,0.44401 -0.83074,0.97754 -1.54687,1.60058 l -0.84863,-0.54785 c 0.68032,-0.59439 1.1852,-1.10644 1.51464,-1.53613 z m -4.99511,1.82617 0,-2.6211 -5.05957,0 0,2.6211 z m -1.53614,-0.77344 -0.85937,0.56934 c -0.45118,-0.60872 -0.9131,-1.12076 -1.38574,-1.53614 l 0.90234,-0.56933 c 0.46549,0.41537 0.91308,0.92741 1.34277,1.53613 z m 8.27149,9.36719 -1.14942,0 0,-0.98828 -9.87207,0 0,0.98828 -1.12793,0 0,-6.57422 12.14942,0 z m -1.14942,-4.39356 0,-1.12793 -9.87207,0 0,1.12793 z m 0,2.37403 0,-1.36426 -9.87207,0 0,1.36426 z"
       style="font-variant:normal;font-stretch:normal;font-family:Microsoft JhengHei;-inkscape-font-specification:Microsoft JhengHei"
       id="path3035" />
  </g>
  <g
     style="font-size:22px;font-style:normal;font-weight:normal;line-height:125%;letter-spacing:0px;word-spacing:0px;fill:#000000;fill-opacity:1;stroke:none;font-family:Sans"
     id="text4084-85">
    <path
       d="m 130.51888,484.7843 -1.05273,0.35449 c -0.0788,-0.40103 -0.18979,-0.81998 -0.33301,-1.25683 -2.22006,0.61589 -4.17155,1.0778 -5.85449,1.38574 l -0.35449,-1.22461 c 1.61848,-1.45377 3.01138,-3.11881 4.17871,-4.99512 -1.9336,0.31512 -3.16537,0.5049 -3.69532,0.56934 l -0.30078,-1.0957 c 1.38932,-1.69009 2.56738,-3.82421 3.53418,-6.40235 l 1.06348,0.34375 c -0.76628,2.06252 -1.79395,4.01401 -3.08301,5.85449 0.98112,-0.0788 2.03743,-0.23273 3.16895,-0.46191 0.58007,-0.92381 1.09211,-1.86196 1.53613,-2.81445 l 1.04199,0.41894 c -1.85482,3.65952 -3.75619,6.45249 -5.7041,8.37891 1.20312,-0.18619 2.57454,-0.50846 4.11426,-0.9668 -0.17905,-0.54426 -0.37599,-1.04198 -0.59082,-1.49316 l 0.98828,-0.35449 c 0.55858,1.153 1.00618,2.40625 1.34277,3.75976 z m 11.06446,4.93067 c -2e-5,0.37239 -0.12535,0.70719 -0.37598,1.00439 -0.25067,0.2972 -0.54429,0.47982 -0.88086,0.54785 -0.33661,0.068 -1.00262,0.0842 -1.99805,0.0483 l -0.4834,-1.20312 c 0.46548,0.0143 0.86652,0.0215 1.20313,0.0215 0.65884,0 1.05988,-0.043 1.20312,-0.12891 0.14321,-0.0859 0.21483,-0.2399 0.21485,-0.46191 l 0,-15.75879 -8.34668,0 0,17.50977 -1.11719,0 0,-18.58399 10.58106,0 z m -1.76172,-10.45215 -7.05762,0 0,-1.07422 1.76172,0 c -0.23634,-0.86652 -0.598,-1.79751 -1.08496,-2.79297 l 1.04199,-0.41895 c 0.45116,0.97398 0.85936,2.04461 1.22461,3.21192 l 1.23535,0 c 0.51561,-0.91666 1.00617,-2.00161 1.47168,-3.25488 l 1.00977,0.39746 c -0.20054,0.60873 -0.60875,1.56121 -1.22461,2.85742 l 1.62207,0 z m 0,4.00683 -4.70508,0 0,3.25489 c -10e-6,0.37956 0.17544,0.56934 0.52637,0.56933 l 3.87793,0 0,1.03125 -3.98536,0 c -1.0241,0 -1.53614,-0.52636 -1.53613,-1.5791 l 0,-3.27637 -1.23535,0 0,-1.05273 3.42676,0 c -0.17189,-0.54426 -0.45119,-1.21386 -0.83789,-2.00879 l 1.08496,-0.37598 c 0.25063,0.54428 0.56574,1.33921 0.94531,2.38477 l 2.43848,0 z m -9.34571,6.19825 -1.05273,0.37597 c -0.12175,-1.04557 -0.44044,-2.35612 -0.95606,-3.93164 l 1.042,-0.33301 c 0.47981,1.40365 0.80207,2.69988 0.96679,3.88868 z m -2.57812,1.0205 -1.13867,0.21485 c -0.0645,-1.42513 -0.26498,-2.95052 -0.60157,-4.57617 l 1.06348,-0.17188 c 0.33658,1.40365 0.56217,2.91472 0.67676,4.5332 z m -2.77149,-4.31836 c -0.25065,1.83334 -0.66243,3.57357 -1.23535,5.22071 l -1.0957,-0.4834 c 0.53711,-1.31055 0.97038,-2.96126 1.2998,-4.95215 z"
       style="font-variant:normal;font-stretch:normal;font-family:Microsoft JhengHei;-inkscape-font-specification:Microsoft JhengHei"
       id="path3049" />
    <path
       d="m 164.15267,481.57239 -0.69824,1.03125 c -1.87632,-0.70898 -3.54852,-1.54329 -5.0166,-2.50293 -1.33205,1.00261 -3.12957,1.86199 -5.39258,2.57812 l -0.75195,-1.06347 c 2.15558,-0.61588 3.88149,-1.34993 5.17773,-2.20215 -0.95249,-0.82356 -1.77605,-1.819 -2.4707,-2.98633 -0.73764,0.62306 -1.33204,1.07065 -1.78321,1.34277 l -0.90234,-0.85937 c 2.25585,-1.33918 3.82063,-2.98273 4.69434,-4.93067 l 1.11718,0.3545 c -0.2435,0.57293 -0.53712,1.12436 -0.88085,1.65429 l 5.56445,0 0,1.03125 c -0.99546,1.78322 -2.12339,3.21909 -3.38379,4.30762 1.33917,0.87371 2.91469,1.62208 4.72656,2.24512 z m -2.77148,-6.53125 -4.99512,0 c -0.043,0.0716 -0.12892,0.18084 -0.25781,0.32763 -0.12892,0.14683 -0.21128,0.24172 -0.24707,0.28467 0.63735,1.23179 1.49673,2.23081 2.57812,2.99707 1.14582,-0.9453 2.11978,-2.14842 2.92188,-3.60937 z m -8.66895,13.64258 c -2.40625,0.94531 -4.93425,1.77962 -7.58398,2.50293 l -0.31153,-1.16016 c 0.51563,-0.12175 0.90593,-0.23275 1.1709,-0.33301 l 0,-8.95898 1.09571,0 0,8.62597 c 0.30793,-0.0573 0.91666,-0.23274 1.82617,-0.52636 l 0,-9.74317 -3.16895,0 0,-6.25195 6.29492,0 0,6.25195 -2.00878,0 0,3.38379 2.42773,0 0,1.12793 -2.42773,0 0,4.83399 c 0.88801,-0.2793 1.78319,-0.62305 2.68554,-1.03125 z m -1.82617,-10.67774 0,-4.06055 -3.99609,0 0,4.06055 z m 11.6875,13.30957 -1.14941,0 0,-1.00976 -6.06934,0 0,1.00976 -1.16016,0 0,-8.06738 8.37891,0 z m -1.14941,-2.10547 0,-4.84472 -6.06934,0 0,4.84472 z"
       style="font-variant:normal;font-stretch:normal;font-family:Microsoft JhengHei;-inkscape-font-specification:Microsoft JhengHei"
       id="path3051" />
    <path
       d="m 186.04525,475.67493 -11.41895,0 c -0.82357,1.63998 -1.82617,3.18686 -3.00781,4.64062 l 0,11.0752 -1.19238,0 0,-9.61426 c -1.08855,1.11719 -2.1377,1.99447 -3.14746,2.63184 l -0.39746,-1.11719 c 2.74999,-2.11978 4.88411,-4.65852 6.40234,-7.61621 l -6.38086,0 0,-1.13868 6.98242,0 c 0.36523,-0.64451 0.75911,-1.4824 1.18164,-2.51367 l 1.14942,0.37598 c -0.38673,0.8952 -0.7269,1.60776 -1.02051,2.13769 l 10.84961,0 z m 0,9.65722 -5.45703,0 0,4.36133 c -2e-5,0.3724 -0.0967,0.69466 -0.29004,0.9668 -0.19337,0.27213 -0.45656,0.4637 -0.78955,0.57471 -0.33302,0.111 -0.99009,0.1665 -1.97119,0.1665 -0.58009,0 -1.16017,-0.0215 -1.74024,-0.0645 l -0.46191,-1.18164 c 0.52994,0.0501 1.11718,0.0752 1.76172,0.0752 1.15298,0 1.82974,-0.0519 2.03027,-0.15576 0.20051,-0.10384 0.30077,-0.25244 0.30078,-0.4458 l 0,-4.29688 -6.62793,0 0,-1.11718 6.62793,0 0,-1.67579 c 1.08853,-0.72329 2.25226,-1.67577 3.49121,-2.85742 l -8.60449,0 0,-1.13867 10.23731,0 0,1.13867 c -1.37502,1.37501 -2.69631,2.50294 -3.96387,3.38379 l 0,1.14942 5.45703,0 z"
       style="font-variant:normal;font-stretch:normal;font-family:Microsoft JhengHei;-inkscape-font-specification:Microsoft JhengHei"
       id="path3053" />
    <path
       d="m 199.29037,473.505 -1.80469,0 0,17.88575 -1.1709,0 0,-4.51172 c -1.89063,0.66602 -4.25033,1.31771 -7.0791,1.95508 l -0.41895,-1.07422 1.99805,-0.39746 0,-13.85743 -1.99805,0 0,-1.08496 10.47364,0 z m -2.97559,3.40528 0,-3.40528 -4.35058,0 0,3.40528 z m 0,4.66211 0,-3.5127 -4.35058,0 0,3.5127 z m 0,4.13574 0,-3.00781 -4.35058,0 0,4.3291 c 1.21744,-0.30794 2.66763,-0.74837 4.35058,-1.32129 z m 11.70899,4.75879 -0.77344,0.90234 c -1.4896,-1.24609 -2.77866,-2.5817 -3.86719,-4.00683 -1.33205,1.61133 -2.74643,2.9541 -4.24316,4.02832 l -0.77344,-0.83789 c 1.4466,-1.02409 2.88247,-2.40983 4.30762,-4.15723 -1.84051,-3.08658 -2.92547,-6.74608 -3.25489,-10.97852 l -0.69824,0 0,-1.12793 8.46484,0 c -0.0645,4.73374 -1.0993,8.74057 -3.10449,12.02051 0.27212,0.51563 0.85041,1.23357 1.73487,2.15381 0.88442,0.92025 1.62026,1.58805 2.20752,2.00342 z m -2.01954,-15.04981 -5.39257,0 c 0.18618,3.74546 1.11001,7.03614 2.77148,9.87207 1.55402,-2.75715 2.42772,-6.04784 2.62109,-9.87207 z"
       style="font-variant:normal;font-stretch:normal;font-family:Microsoft JhengHei;-inkscape-font-specification:Microsoft JhengHei"
       id="path3055" />
    <path
       d="m 228.92806,476.69543 -15.2539,0 c -1e-5,4.49025 -0.17009,7.7308 -0.51026,9.72168 -0.34017,1.99089 -0.79313,3.5879 -1.35888,4.79102 l -0.92383,-0.7627 c 0.47265,-1.02408 0.86653,-2.41878 1.18164,-4.18408 0.3151,-1.76529 0.47265,-4.49201 0.47265,-8.18017 l 0,-5.45703 16.39258,0 z m -1.12793,-1.04199 0,-1.95508 -14.12597,0 0,1.95508 z m -7.7666,2.6211 -1.03125,0.50488 c -0.51563,-0.51561 -1.01335,-0.94172 -1.49316,-1.27832 l 1.05273,-0.50488 c 0.60872,0.47266 1.09928,0.89877 1.47168,1.27832 z m 6.14453,-0.65528 c -0.37241,0.35093 -0.96681,0.75197 -1.7832,1.20313 l -0.94531,-0.67676 c 0.64451,-0.30793 1.24608,-0.68391 1.80468,-1.12793 z m 2.48145,6.09082 -13.59961,0 0,-4.68359 13.59961,0 z m -1.11719,-1.03125 0,-2.62109 -5.15625,0 0,2.62109 z m -1.27832,-1.82617 c -0.31512,0.44402 -0.83075,0.97755 -1.54688,1.60059 l -0.84863,-0.54785 c 0.68033,-0.5944 1.18521,-1.10644 1.51465,-1.53614 z m -4.99512,1.82617 0,-2.62109 -5.05957,0 0,2.62109 z m -1.53613,-0.77343 -0.85938,0.56933 c -0.45118,-0.60871 -0.91309,-1.12076 -1.38574,-1.53613 l 0.90235,-0.56934 c 0.46548,0.41538 0.91307,0.92742 1.34277,1.53614 z m 8.27148,9.36718 -1.14941,0 0,-0.98828 -9.87207,0 0,0.98828 -1.12793,0 0,-6.57422 12.14941,0 z m -1.14941,-4.39355 0,-1.12793 -9.87207,0 0,1.12793 z m 0,2.37402 0,-1.36426 -9.87207,0 0,1.36426 z"
       style="font-variant:normal;font-stretch:normal;font-family:Microsoft JhengHei;-inkscape-font-specification:Microsoft JhengHei"
       id="path3057" />
  </g>
  <g
     style="font-size:22px;font-style:normal;font-weight:normal;line-height:125%;letter-spacing:0px;word-spacing:0px;fill:#000000;fill-opacity:1;stroke:none;font-family:Sans"
     id="text4084-0">
    <path
       d="m 127.22924,391.57974 0,-15.70508 1.82617,0 0,15.70508 z"
       style="font-variant:normal;font-stretch:normal;font-family:Open Sans;-inkscape-font-specification:Open Sans"
       id="path3060" />
    <path
       d="m 141.16186,391.57974 0,-7.61621 c -1e-5,-0.95963 -0.21844,-1.67577 -0.65528,-2.14844 -0.43685,-0.47264 -1.12077,-0.70897 -2.05175,-0.70898 -1.23178,10e-6 -2.13412,0.33302 -2.70703,0.99902 -0.57293,0.66603 -0.85938,1.76531 -0.85938,3.29785 l 0,6.17676 -1.7832,0 0,-11.77344 1.45019,0 0.29004,1.61133 0.0859,0 c 0.36523,-0.58006 0.87727,-1.02945 1.53613,-1.34814 0.65885,-0.31867 1.3929,-0.47802 2.20215,-0.47803 1.41796,1e-5 2.48502,0.34197 3.20117,1.02588 0.71614,0.68393 1.07421,1.77784 1.07422,3.28174 l 0,7.68066 z"
       style="font-variant:normal;font-stretch:normal;font-family:Open Sans;-inkscape-font-specification:Open Sans"
       id="path3062" />
    <path
       d="m 150.40014,390.32291 c 0.3151,0 0.61946,-0.0233 0.91308,-0.0698 0.29362,-0.0466 0.52636,-0.0949 0.69825,-0.14502 l 0,1.36426 c -0.19337,0.0931 -0.47804,0.17009 -0.85401,0.23096 -0.37598,0.0609 -0.71436,0.0913 -1.01513,0.0913 -2.27735,0 -3.41602,-1.19955 -3.41602,-3.59864 l 0,-7.0039 -1.68652,0 0,-0.85938 1.68652,-0.74121 0.75195,-2.51367 1.03125,0 0,2.72851 3.41602,0 0,1.38575 -3.41602,0 0,6.92871 c 0,0.70899 0.16829,1.25326 0.50489,1.63281 0.33658,0.37956 0.79849,0.56934 1.38574,0.56934 z"
       style="font-variant:normal;font-stretch:normal;font-family:Open Sans;-inkscape-font-specification:Open Sans"
       id="path3064" />
    <path
       d="m 159.34838,391.79459 c -1.74024,0 -3.11345,-0.52995 -4.11963,-1.58985 -1.00618,-1.05989 -1.50928,-2.53157 -1.50928,-4.41504 0,-1.89778 0.46729,-3.40526 1.40186,-4.52246 0.93457,-1.11717 2.18961,-1.67577 3.76514,-1.67578 1.47525,1e-5 2.64257,0.4852 3.50195,1.45557 0.85936,0.97038 1.28905,2.25049 1.28906,3.84033 l 0,1.12793 -8.11035,0 c 0.0358,1.38216 0.38493,2.43132 1.04736,3.14746 0.66243,0.71615 1.59521,1.07422 2.79834,1.07422 1.26757,0 2.52083,-0.26497 3.75977,-0.79492 l 0,1.58984 c -0.63022,0.27214 -1.22641,0.46729 -1.78857,0.58545 -0.56219,0.11816 -1.24073,0.17725 -2.03565,0.17725 z m -0.4834,-10.70996 c -0.94532,10e-6 -1.69906,0.30795 -2.26123,0.92382 -0.56218,0.6159 -0.89339,1.46811 -0.99365,2.55664 l 6.15527,0 c -1e-5,-1.12434 -0.25066,-1.9855 -0.75195,-2.58349 -0.50131,-0.59797 -1.21746,-0.89696 -2.14844,-0.89697 z"
       style="font-variant:normal;font-stretch:normal;font-family:Open Sans;-inkscape-font-specification:Open Sans"
       id="path3066" />
    <path
       d="m 172.07787,379.59146 c 0.52278,1e-5 0.99186,0.043 1.40723,0.12891 l -0.24707,1.65429 c -0.48699,-0.10741 -0.91667,-0.16112 -1.28906,-0.16113 -0.95248,1e-5 -1.7671,0.38673 -2.44385,1.16016 -0.67676,0.77344 -1.01514,1.73666 -1.01514,2.88965 l 0,6.3164 -1.7832,0 0,-11.77344 1.47168,0 0.2041,2.18067 0.0859,0 c 0.43684,-0.76627 0.96321,-1.35709 1.5791,-1.77246 0.61588,-0.41535 1.29264,-0.62304 2.03027,-0.62305 z"
       style="font-variant:normal;font-stretch:normal;font-family:Open Sans;-inkscape-font-specification:Open Sans"
       id="path3068" />
    <path
       d="m 183.74389,391.57974 0,-7.61621 c -1e-5,-0.95963 -0.21844,-1.67577 -0.65527,-2.14844 -0.43686,-0.47264 -1.12078,-0.70897 -2.05176,-0.70898 -1.23178,10e-6 -2.13412,0.33302 -2.70703,0.99902 -0.57292,0.66603 -0.85938,1.76531 -0.85938,3.29785 l 0,6.17676 -1.7832,0 0,-11.77344 1.45019,0 0.29004,1.61133 0.0859,0 c 0.36523,-0.58006 0.87727,-1.02945 1.53613,-1.34814 0.65885,-0.31867 1.3929,-0.47802 2.20215,-0.47803 1.41796,1e-5 2.48502,0.34197 3.20117,1.02588 0.71614,0.68393 1.07421,1.77784 1.07422,3.28174 l 0,7.68066 z"
       style="font-variant:normal;font-stretch:normal;font-family:Open Sans;-inkscape-font-specification:Open Sans"
       id="path3070" />
    <path
       d="m 194.15307,391.79459 c -1.74024,0 -3.11345,-0.52995 -4.11963,-1.58985 -1.00619,-1.05989 -1.50928,-2.53157 -1.50928,-4.41504 0,-1.89778 0.46729,-3.40526 1.40186,-4.52246 0.93456,-1.11717 2.18961,-1.67577 3.76513,-1.67578 1.47526,1e-5 2.64257,0.4852 3.50196,1.45557 0.85936,0.97038 1.28905,2.25049 1.28906,3.84033 l 0,1.12793 -8.11035,0 c 0.0358,1.38216 0.38492,2.43132 1.04736,3.14746 0.66243,0.71615 1.59521,1.07422 2.79834,1.07422 1.26757,0 2.52083,-0.26497 3.75977,-0.79492 l 0,1.58984 c -0.63022,0.27214 -1.22641,0.46729 -1.78858,0.58545 -0.56218,0.11816 -1.24073,0.17725 -2.03564,0.17725 z m -0.4834,-10.70996 c -0.94532,10e-6 -1.69906,0.30795 -2.26123,0.92382 -0.56218,0.6159 -0.8934,1.46811 -0.99365,2.55664 l 6.15527,0 c -1e-5,-1.12434 -0.25066,-1.9855 -0.75195,-2.58349 -0.50131,-0.59797 -1.21746,-0.89696 -2.14844,-0.89697 z"
       style="font-variant:normal;font-stretch:normal;font-family:Open Sans;-inkscape-font-specification:Open Sans"
       id="path3072" />
    <path
       d="m 205.3142,390.32291 c 0.3151,0 0.61946,-0.0233 0.91309,-0.0698 0.29361,-0.0466 0.52636,-0.0949 0.69824,-0.14502 l 0,1.36426 c -0.19337,0.0931 -0.47803,0.17009 -0.854,0.23096 -0.37599,0.0609 -0.71437,0.0913 -1.01514,0.0913 -2.27735,0 -3.41602,-1.19955 -3.41602,-3.59864 l 0,-7.0039 -1.68652,0 0,-0.85938 1.68652,-0.74121 0.75196,-2.51367 1.03125,0 0,2.72851 3.41601,0 0,1.38575 -3.41601,0 0,6.92871 c -10e-6,0.70899 0.16829,1.25326 0.50488,1.63281 0.33658,0.37956 0.7985,0.56934 1.38574,0.56934 z"
       style="font-variant:normal;font-stretch:normal;font-family:Open Sans;-inkscape-font-specification:Open Sans"
       id="path3074" />
    <path
       d="m 232.65307,378.07681 -15.25391,0 c 0,4.49025 -0.17009,7.7308 -0.51025,9.72168 -0.34017,1.99089 -0.79314,3.58789 -1.35889,4.79102 l -0.92383,-0.7627 c 0.47266,-1.02409 0.86654,-2.41878 1.18164,-4.18408 0.31511,-1.76529 0.47266,-4.49202 0.47266,-8.18018 l 0,-5.45703 16.39258,0 z m -1.12793,-1.04199 0,-1.95508 -14.12598,0 0,1.95508 z m -7.7666,2.62109 -1.03125,0.50489 c -0.51564,-0.51562 -1.01336,-0.94172 -1.49317,-1.27832 l 1.05274,-0.50489 c 0.60871,0.47267 1.09927,0.89878 1.47168,1.27832 z m 6.14453,-0.65527 c -0.37241,0.35092 -0.96681,0.75197 -1.7832,1.20313 l -0.94532,-0.67676 c 0.64452,-0.30793 1.24608,-0.68391 1.80469,-1.12793 z m 2.48144,6.09082 -13.59961,0 0,-4.68359 13.59961,0 z m -1.11718,-1.03125 0,-2.62109 -5.15625,0 0,2.62109 z m -1.27832,-1.82617 c -0.31512,0.44402 -0.83075,0.97755 -1.54688,1.60059 l -0.84863,-0.54786 c 0.68032,-0.59439 1.1852,-1.10643 1.51465,-1.53613 z m -4.99512,1.82617 0,-2.62109 -5.05957,0 0,2.62109 z m -1.53613,-0.77344 -0.85938,0.56934 c -0.45118,-0.60872 -0.91309,-1.12076 -1.38574,-1.53613 l 0.90234,-0.56934 c 0.46549,0.41537 0.91308,0.92742 1.34278,1.53613 z m 8.27148,9.36719 -1.14941,0 0,-0.98828 -9.87207,0 0,0.98828 -1.12793,0 0,-6.57422 12.14941,0 z m -1.14941,-4.39355 0,-1.12793 -9.87207,0 0,1.12793 z m 0,2.37402 0,-1.36426 -9.87207,0 0,1.36426 z"
       style="font-family:Microsoft JhengHei UI;-inkscape-font-specification:Microsoft JhengHei UI"
       id="path3076" />
  </g>
  <g
     style="font-size:22px;font-style:normal;font-weight:normal;line-height:125%;letter-spacing:0px;word-spacing:0px;fill:#000000;fill-opacity:1;stroke:none;font-family:Sans"
     id="text4084-64">
    <path
       d="m 167.52887,306.68616 -0.65527,1.00976 c -2.47789,-1.48241 -4.20022,-2.97199 -5.167,-4.46875 -1.36069,1.66148 -3.07227,3.12241 -5.13476,4.38282 l -0.80567,-0.88086 c 2.72135,-1.51106 4.64062,-3.27994 5.75782,-5.30664 l 1.12793,0.37597 c -0.0502,0.10028 -0.15399,0.24709 -0.31153,0.44043 1.20311,1.86916 2.9326,3.35158 5.18848,4.44727 z m -11.67676,11.15039 -3.21191,0 0,3.01855 -1.05274,0 0,-3.01855 -3.33007,0 0,-1.09571 3.33007,0 0,-1.94433 -2.62109,0 0,-8.44336 2.62109,0 0,-1.93359 -3.083,0 0,-1.06348 3.083,0 0,-1.75098 1.05274,0 0,1.75098 3.08301,0 0,1.06348 -3.08301,0 0,1.93359 2.62109,0 0,8.44336 -2.62109,0 0,1.94433 3.21191,0 z m -1.6543,-7.85254 0,-2.55664 -1.55761,0 0,2.55664 z m -2.61035,0 0,-2.55664 -1.56836,0 0,2.55664 z m 2.61035,3.7168 0,-2.68555 -1.55761,0 0,2.68555 z m -2.61035,0 0,-2.68555 -1.56836,0 0,2.68555 z m 12.79395,-5.9834 -5.58594,0 0,-1.12793 5.58594,0 z m 2.15918,11.65527 c -2e-5,0.52995 -0.14862,0.90055 -0.4458,1.11182 -0.29722,0.21126 -0.88983,0.31689 -1.77783,0.31689 -0.27216,0 -0.61591,-0.007 -1.03125,-0.0215 l -0.44043,-1.11719 c 0.37238,0.0358 0.82355,0.0537 1.35351,0.0537 0.61587,0 0.97752,-0.0304 1.08496,-0.0913 0.10741,-0.0609 0.16112,-0.18799 0.16114,-0.38135 l 0,-10.87109 1.0957,0 z m -5.18848,0.043 c -1e-5,0.93815 -0.64454,1.40722 -1.93359,1.40723 -0.21486,-10e-6 -0.41538,-0.0215 -0.60156,-0.0645 l -0.44043,-1.11718 c 0.28644,0.0501 0.60155,0.0752 0.94531,0.0752 0.63735,0 0.95604,-0.15755 0.95605,-0.47266 l 0,-2.68554 -2.55664,0 c -0.21485,1.58984 -0.61231,3.00423 -1.19238,4.24316 l -0.9668,-0.65527 c 0.80924,-1.53971 1.21386,-3.3444 1.21387,-5.41406 l 0,-5.75782 4.57617,0 z m -1.07422,-7.30469 0,-2.04101 -2.38476,0 0,2.04101 z m 0,3.35156 0,-2.22363 -2.38476,0 c -1e-5,0.25066 -0.0215,0.99187 -0.0645,2.22363 z m 3.7168,1.86915 -1.14941,0 0,-7.80958 1.14941,0 z"
       style="font-variant:normal;font-stretch:normal;font-family:Microsoft JhengHei;-inkscape-font-specification:Microsoft JhengHei"
       id="path3093" />
    <path
       d="m 181.59039,304.3551 -0.98828,0.52637 c -0.37957,-0.78775 -1.01694,-1.73306 -1.91211,-2.83594 l 0.98828,-0.58008 c 0.92382,1.10289 1.56119,2.0661 1.91211,2.88965 z m -6.48828,0.36524 -0.88086,0.8164 c -0.82357,-1.16014 -1.8584,-2.23794 -3.10449,-3.2334 l 0.85938,-0.75195 c 1.27473,0.96682 2.31672,2.02313 3.12597,3.16895 z m 12.05274,-2.61035 c -0.45119,0.91668 -1.15302,1.84767 -2.10547,2.79296 l -0.94532,-0.64453 c 0.90949,-0.93097 1.59699,-1.81541 2.0625,-2.65332 z m 2.03027,8.64746 -5.96191,0 c -0.43687,3.11524 -2.35972,5.46061 -5.76856,7.03613 l -0.83789,-0.98828 c 3.27278,-1.33203 5.07746,-3.34798 5.41406,-6.04785 l -5.37109,0 0,-1.12793 5.52148,0 c 0.043,-0.60872 0.0644,-1.62206 0.0645,-3.04004 l -4.87696,0 0,-1.13867 11.04297,0 0,1.13867 -4.97363,0 c -2e-5,0.60873 -0.0358,1.62208 -0.10742,3.04004 l 5.85449,0 z m 0.52637,8.44336 -0.31153,1.23535 -8.69043,-0.0967 c -3.15105,0 -5.52507,-0.81999 -7.12207,-2.45996 -0.9668,1.23893 -1.83333,2.21289 -2.59961,2.92187 l -0.94531,-0.82715 c 2.44922,-2.21289 3.98177,-4.569 4.59766,-7.06836 l -3.9209,0 0,-1.03125 c 1.45377,-1.66861 2.66406,-3.17251 3.63086,-4.51171 l -4.11426,0 0,-1.09571 5.61816,0 0,1.09571 c -1.32487,1.70443 -2.49935,3.18685 -3.52343,4.44726 l 3.52343,0 0,1.0957 c -0.35807,1.17449 -0.91667,2.52442 -1.67578,4.04981 0.7806,0.7806 1.67936,1.34635 2.69629,1.69726 1.01692,0.35092 2.16812,0.53711 3.45362,0.5586 1.28546,0.0215 2.65509,0.0322 4.10888,0.0322 1.66861,0 3.42674,-0.0143 5.27442,-0.043 z m -0.39746,-2.417 -0.75196,0.98828 c -1.4896,-1.53254 -3.2549,-2.91828 -5.2959,-4.15722 l 0.63379,-0.90235 c 2.14842,1.26759 3.95311,2.62468 5.41407,4.07129 z"
       style="font-variant:normal;font-stretch:normal;font-family:Microsoft JhengHei;-inkscape-font-specification:Microsoft JhengHei"
       id="path3095" />
    <path
       d="m 210.28278,306.18127 -15.25391,0 c 0,4.49025 -0.17009,7.7308 -0.51025,9.72168 -0.34018,1.99089 -0.79314,3.58789 -1.35889,4.79102 l -0.92383,-0.7627 c 0.47266,-1.02408 0.86653,-2.41878 1.18164,-4.18408 0.3151,-1.76529 0.47265,-4.49201 0.47266,-8.18017 l 0,-5.45703 16.39258,0 z m -1.12793,-1.04199 0,-1.95508 -14.12598,0 0,1.95508 z m -7.76661,2.6211 -1.03125,0.50488 c -0.51563,-0.51561 -1.01335,-0.94172 -1.49316,-1.27832 l 1.05273,-0.50488 c 0.60872,0.47266 1.09928,0.89877 1.47168,1.27832 z m 6.14454,-0.65528 c -0.37242,0.35093 -0.96682,0.75197 -1.78321,1.20313 l -0.94531,-0.67676 c 0.64452,-0.30793 1.24608,-0.68391 1.80469,-1.12793 z m 2.48144,6.09082 -13.59961,0 0,-4.68359 13.59961,0 z m -1.11719,-1.03125 0,-2.62109 -5.15625,0 0,2.62109 z m -1.27832,-1.82617 c -0.31512,0.44402 -0.83074,0.97755 -1.54687,1.60059 l -0.84863,-0.54785 c 0.68032,-0.5944 1.1852,-1.10644 1.51464,-1.53614 z m -4.99511,1.82617 0,-2.62109 -5.05957,0 0,2.62109 z m -1.53614,-0.77343 -0.85937,0.56933 c -0.45118,-0.60871 -0.9131,-1.12076 -1.38574,-1.53613 l 0.90234,-0.56934 c 0.46549,0.41538 0.91308,0.92742 1.34277,1.53614 z m 8.27149,9.36718 -1.14942,0 0,-0.98828 -9.87207,0 0,0.98828 -1.12793,0 0,-6.57422 12.14942,0 z m -1.14942,-4.39355 0,-1.12793 -9.87207,0 0,1.12793 z m 0,2.37402 0,-1.36426 -9.87207,0 0,1.36426 z"
       style="font-variant:normal;font-stretch:normal;font-family:Microsoft JhengHei;-inkscape-font-specification:Microsoft JhengHei"
       id="path3097" />
  </g>
  <text
     xml:space="preserve"
     style="font-style:normal;font-variant:normal;font-weight:normal;font-stretch:normal;font-size:22px;line-height:125%;font-family:'Open Sans';-inkscape-font-specification:'Open Sans';letter-spacing:0px;word-spacing:0px;fill:#000000;fill-opacity:1;stroke:none"
     x="-152.29993"
     y="109.25325"
     id="text3039"><tspan
       id="tspan3041"
       x="-152.29993"
       y="109.25325" /><tspan
       id="tspan3043"
       x="-152.29993"
       y="136.75325" /></text>
  <g
     style="font-size:22px;font-style:normal;font-variant:normal;font-weight:normal;font-stretch:normal;line-height:125%;letter-spacing:0px;word-spacing:0px;fill:#00c081;fill-opacity:1;stroke:none;font-family:Open Sans;-inkscape-font-specification:Open Sans"
     id="text3045">
    <path
       d="m 86.771484,69.648437 -2.988281,0 0,-23.044921 -8.138672,0 0,-2.654297 19.265625,0 0,2.654297 -8.138672,0 z"
       style="font-size:36px;fill:#00c081"
       id="path3151" />
    <path
       d="m 109.76367,46.251953 c -2.82423,2.4e-5 -5.05372,0.940452 -6.68847,2.821289 -1.63478,1.880878 -2.45216,4.456071 -2.45215,7.725586 -1e-5,3.363291 0.78808,5.961921 2.36425,7.795899 1.57617,1.833987 3.82324,2.750978 6.74122,2.750976 1.79295,2e-6 3.83787,-0.322263 6.13476,-0.966797 l 0,2.619141 C 114.08201,69.666016 111.88475,70 109.27148,70 c -3.78516,0 -6.70606,-1.148437 -8.76269,-3.445313 -2.056645,-2.296869 -3.084964,-5.560538 -3.084962,-9.791015 -2e-6,-2.648422 0.495115,-4.968732 1.485352,-6.960938 0.990229,-1.992165 2.41992,-3.52732 4.28906,-4.605468 1.86913,-1.0781 4.06933,-1.617162 6.60059,-1.617188 2.69529,2.6e-5 5.05076,0.492213 7.0664,1.476563 l -1.26562,2.566406 c -1.94533,-0.91404 -3.89064,-1.37107 -5.83594,-1.371094 z"
       style="font-size:36px;fill:#00c081"
       id="path3153" />
    <path
       d="m 137.76562,51.4375 c -1e-5,2.601578 -0.88771,4.602553 -2.66308,6.00293 -1.77541,1.400401 -4.31544,2.100596 -7.62012,2.100586 l -3.02344,0 0,10.107421 -2.98828,0 0,-25.699218 6.66211,0 c 6.42186,2.5e-5 9.6328,2.496117 9.63281,7.488281 z m -13.30664,5.537109 2.68946,0 c 2.64842,1.3e-5 4.56444,-0.427721 5.74804,-1.283203 1.18358,-0.855454 1.77538,-2.226546 1.77539,-4.113281 -1e-5,-1.699199 -0.55665,-2.964823 -1.66992,-3.796875 -1.11329,-0.832009 -2.84767,-1.248024 -5.20312,-1.248047 l -3.33985,0 z"
       style="font-size:36px;fill:#00c081"
       id="path3155" />
    <path
       d="m 152.44336,43.949219 -9.58008,25.699218 -2.91797,0 9.58008,-25.699218 z"
       style="font-size:36px;fill:#00c081"
       id="path3157" />
    <path
       d="m 156.3457,69.648437 0,-25.699218 2.98828,0 0,25.699218 z"
       style="font-size:36px;fill:#00c081"
       id="path3159" />
    <path
       d="m 182.69531,51.4375 c -2e-5,2.601578 -0.88771,4.602553 -2.66308,6.00293 -1.77541,1.400401 -4.31545,2.100596 -7.62012,2.100586 l -3.02344,0 0,10.107421 -2.98828,0 0,-25.699218 6.66211,0 c 6.42186,2.5e-5 9.63279,2.496117 9.63281,7.488281 z m -13.30664,5.537109 2.68945,0 c 2.64843,1.3e-5 4.56444,-0.427721 5.74805,-1.283203 1.18358,-0.855454 1.77538,-2.226546 1.77539,-4.113281 -1e-5,-1.699199 -0.55665,-2.964823 -1.66992,-3.796875 -1.11329,-0.832009 -2.84767,-1.248024 -5.20312,-1.248047 l -3.33985,0 z"
       style="font-size:36px;fill:#00c081"
       id="path3161" />
    <path
       d="m 227.50195,44.669922 -5.15039,0 0,2.039062 -1.79297,0 0,-2.039062 -2.67187,0 0,-1.705078 2.67187,0 0,-2.988282 1.79297,0 0,2.988282 5.15039,0 z m -10.98633,0 -2.37304,0 0,2.039062 -1.91602,0 0,-2.039062 -5.29101,0 0,-1.705078 5.29101,0 0,-2.988282 1.91602,0 0,2.988282 2.37304,0 z m -8.96484,11.232422 -1.40625,1.177734 c -1.13673,-1.980454 -2.03321,-3.404281 -2.68945,-4.271484 l 0,18.755859 -1.84571,0 0,-17.753906 c -1.19531,2.906263 -2.5957,5.519541 -4.20117,7.839844 l -1.26562,-1.40625 c 2.17968,-3.093738 3.99023,-6.773422 5.43164,-11.039063 l -4.88672,0 0,-1.775391 4.92187,0 0,-7.453125 1.84571,0 0,7.453125 3.60351,0 0,1.775391 -3.60351,0 0,0.791016 c 1.59374,1.968767 2.95897,3.937515 4.0957,5.90625 z m 19.77539,8.173828 -10.33594,0 c -1.01955,3.808595 -4.28322,6.304687 -9.79101,7.488281 l -1.05469,-1.669922 c 4.87498,-0.878905 7.86326,-2.818357 8.96484,-5.818359 l -8.5957,0 0,-1.740235 9,0 c 0.23436,-1.300772 0.35154,-2.34374 0.35156,-3.128906 l -6.53906,0 0,-11.126953 15.87305,0 0,11.126953 -7.45313,0 c -0.0352,0.890635 -0.1465,1.933603 -0.33398,3.128906 l 9.91406,0 z m -3.90234,-11.390625 0,-2.900391 -12.33985,0 0,2.900391 z m 0,4.833984 0,-3.164062 -12.33985,0 0,3.164062 z M 227.7832,70 l -1.14258,1.476562 c -2.19143,-1.605468 -5.01565,-3.210936 -8.47265,-4.816406 l 1.19531,-1.441406 c 3.1406,1.453128 5.94724,3.046876 8.41992,4.78125 z"
       style="font-style:normal;font-variant:normal;font-weight:normal;font-stretch:normal;font-family:Microsoft JhengHei;-inkscape-font-specification:Microsoft JhengHei"
       id="path3163" />
    <path
       d="m 261.95508,56.763672 c -3e-5,0.6797 -0.19339,1.239269 -0.58008,1.678711 -0.38675,0.439464 -0.82034,0.720713 -1.30078,0.84375 -0.4805,0.123057 -1.38284,0.18458 -2.70703,0.18457 -0.70315,1e-5 -1.5762,-0.01757 -2.61914,-0.05273 l -0.79102,-1.96875 c 1.20701,0.105481 2.33201,0.158215 3.375,0.158203 0.99607,1.2e-5 1.62302,-0.03222 1.88086,-0.09668 0.25778,-0.06444 0.47165,-0.249011 0.6416,-0.553711 0.16989,-0.304674 0.25485,-0.656236 0.25488,-1.054687 l 0,-15.697266 1.84571,0 z m -10.51172,-6.275391 -5.15039,0 0,8.138672 -1.8457,0 0,-8.138672 -4.81641,0 c -0.26954,3.562516 -1.98634,6.59181 -5.15039,9.087891 l -1.51172,-1.265625 c 2.98828,-2.367174 4.5996,-4.974593 4.83398,-7.822266 l -5.29101,0 0,-1.828125 5.39648,0 c 0.11718,-2.156227 0.17578,-4.113256 0.17578,-5.871094 l -4.5,0 0,-1.757812 17.38477,0 0,1.757812 -4.67578,0 0,5.871094 5.15039,0 z m -6.99609,-1.828125 0,-5.871094 -4.5,0 c -1e-5,1.417995 -0.0703,3.375024 -0.21094,5.871094 z m 11.26757,5.150391 -1.82812,0 0,-12.023438 1.82812,0 z m 7.85743,16.875 -31.28907,0 0,-1.792969 14.80078,0 0,-5.080078 -12.46289,0 0,-1.757813 12.46289,0 0,-3.779296 1.86329,0 0,3.779296 12.21679,0 0,1.757813 -12.21679,0 0,5.080078 14.625,0 z"
       style="font-style:normal;font-variant:normal;font-weight:normal;font-stretch:normal;font-family:Microsoft JhengHei;-inkscape-font-specification:Microsoft JhengHei"
       id="path3165" />
  </g>
  <g
     style="font-size:22px;font-style:normal;font-variant:normal;font-weight:normal;font-stretch:normal;line-height:125%;letter-spacing:0px;word-spacing:0px;fill:#00b2e2;fill-opacity:1;stroke:none;font-family:Open Sans;-inkscape-font-specification:Open Sans"
     id="text3049">
    <path
       d="m 473.8916,56.763672 c -2e-5,4.11329 -1.04006,7.347662 -3.12012,9.703125 C 468.69139,68.822266 465.79979,70 462.09668,70 c -3.78517,0 -6.70606,-1.157226 -8.7627,-3.47168 -2.05664,-2.314447 -3.08496,-5.581046 -3.08496,-9.799804 0,-4.183577 1.03125,-7.426738 3.09375,-9.729493 2.0625,-2.302709 4.99218,-3.454075 8.78907,-3.454101 3.69138,2.6e-5 6.57419,1.1719 8.64843,3.515625 2.0742,2.34377 3.11131,5.578142 3.11133,9.703125 z m -20.47851,0 c -1e-5,3.480478 0.7412,6.120124 2.22363,7.918945 1.48241,1.798831 3.63573,2.698245 6.45996,2.698242 2.84764,3e-6 4.99803,-0.896481 6.45117,-2.689453 1.4531,-1.792962 2.17967,-4.435537 2.17969,-7.927734 -2e-5,-3.457015 -0.72366,-6.079083 -2.1709,-7.866211 -1.44728,-1.787087 -3.58888,-2.680641 -6.4248,-2.680664 -2.84767,2.3e-5 -5.01271,0.899436 -6.49512,2.698242 -1.48243,1.798847 -2.22364,4.415055 -2.22363,7.848633 z"
       style="font-size:36px;fill:#00b2e2"
       id="path3140" />
    <path
       d="m 494.1416,62.810547 c -2e-5,2.261723 -0.82033,4.025393 -2.46094,5.291015 C 490.04003,69.367188 487.81346,70 485.00098,70 c -3.04688,0 -5.39063,-0.392578 -7.03125,-1.177734 l 0,-2.882813 c 1.05468,0.445316 2.20312,0.796878 3.44531,1.054688 1.24218,0.257815 2.47265,0.386721 3.69141,0.386718 1.99217,3e-6 3.49217,-0.377927 4.5,-1.133789 1.00779,-0.755855 1.5117,-1.807612 1.51171,-3.155273 -10e-6,-0.890618 -0.17872,-1.620109 -0.53613,-2.188477 -0.35743,-0.56835 -0.95509,-1.092763 -1.79297,-1.573242 -0.8379,-0.480458 -2.11231,-1.025379 -3.82324,-1.634766 -2.39063,-0.855455 -4.09864,-1.869126 -5.12402,-3.041015 -1.0254,-1.171859 -1.53809,-2.701154 -1.53809,-4.587891 0,-1.980447 0.74414,-3.556617 2.23242,-4.728515 1.48828,-1.17185 3.45703,-1.757787 5.90625,-1.757813 2.55468,2.6e-5 4.90428,0.468776 7.04883,1.40625 l -0.93164,2.601563 c -2.12111,-0.890602 -4.18361,-1.335914 -6.1875,-1.335938 -1.58204,2.4e-5 -2.81837,0.339867 -3.70898,1.019531 -0.89063,0.67971 -1.33595,1.623068 -1.33594,2.830078 -1e-5,0.890644 0.16406,1.620136 0.49219,2.188477 0.32811,0.568376 0.88183,1.08986 1.66113,1.564453 0.77929,0.474625 1.97167,0.999038 3.57715,1.573242 2.6953,0.960951 4.54979,1.9922 5.56347,3.09375 1.01366,1.101573 1.52049,2.531259 1.52051,4.289063 z"
       style="font-size:36px;fill:#00b2e2"
       id="path3142" />
    <path
       d="m 499.39746,69.648437 0,-25.699218 2.98828,0 0,25.699218 z"
       style="font-size:36px;fill:#00b2e2"
       id="path3144" />
    <path
       d="m 548.89746,44.669922 -5.15039,0 0,2.039062 -1.79297,0 0,-2.039062 -2.67187,0 0,-1.705078 2.67187,0 0,-2.988282 1.79297,0 0,2.988282 5.15039,0 z m -10.98633,0 -2.37304,0 0,2.039062 -1.91602,0 0,-2.039062 -5.29102,0 0,-1.705078 5.29102,0 0,-2.988282 1.91602,0 0,2.988282 2.37304,0 z m -8.96484,11.232422 -1.40625,1.177734 c -1.13673,-1.980454 -2.03321,-3.404281 -2.68945,-4.271484 l 0,18.755859 -1.84571,0 0,-17.753906 c -1.19532,2.906263 -2.59571,5.519541 -4.20117,7.839844 l -1.26562,-1.40625 c 2.17968,-3.093738 3.99022,-6.773422 5.43164,-11.039063 l -4.88672,0 0,-1.775391 4.92187,0 0,-7.453125 1.84571,0 0,7.453125 3.60351,0 0,1.775391 -3.60351,0 0,0.791016 c 1.59373,1.968767 2.95897,3.937515 4.0957,5.90625 z m 19.77539,8.173828 -10.33594,0 c -1.01955,3.808595 -4.28322,6.304687 -9.79101,7.488281 l -1.05469,-1.669922 c 4.87498,-0.878905 7.86326,-2.818357 8.96484,-5.818359 l -8.5957,0 0,-1.740235 9,0 c 0.23435,-1.300772 0.35154,-2.34374 0.35156,-3.128906 l -6.53906,0 0,-11.126953 15.87305,0 0,11.126953 -7.45313,0 c -0.0352,0.890635 -0.14651,1.933603 -0.33398,3.128906 l 9.91406,0 z m -3.90234,-11.390625 0,-2.900391 -12.33985,0 0,2.900391 z m 0,4.833984 0,-3.164062 -12.33985,0 0,3.164062 z M 549.17871,70 l -1.14258,1.476562 c -2.19143,-1.605468 -5.01565,-3.210936 -8.47265,-4.816406 l 1.19531,-1.441406 c 3.1406,1.453128 5.94723,3.046876 8.41992,4.78125 z"
       style="font-style:normal;font-variant:normal;font-weight:normal;font-stretch:normal;font-family:Microsoft JhengHei;-inkscape-font-specification:Microsoft JhengHei"
       id="path3146" />
    <path
       d="m 583.35059,56.763672 c -4e-5,0.6797 -0.1934,1.239269 -0.58008,1.678711 -0.38675,0.439464 -0.82035,0.720713 -1.30078,0.84375 -0.4805,0.123057 -1.38284,0.18458 -2.70703,0.18457 -0.70316,1e-5 -1.5762,-0.01757 -2.61915,-0.05273 l -0.79101,-1.96875 c 1.20701,0.105481 2.332,0.158215 3.375,0.158203 0.99606,1.2e-5 1.62302,-0.03222 1.88086,-0.09668 0.25778,-0.06444 0.47165,-0.249011 0.6416,-0.553711 0.16989,-0.304674 0.25485,-0.656236 0.25488,-1.054687 l 0,-15.697266 1.84571,0 z m -10.51172,-6.275391 -5.15039,0 0,8.138672 -1.84571,0 0,-8.138672 -4.8164,0 c -0.26954,3.562516 -1.98634,6.59181 -5.15039,9.087891 l -1.51172,-1.265625 c 2.98827,-2.367174 4.5996,-4.974593 4.83398,-7.822266 l -5.29101,0 0,-1.828125 5.39648,0 c 0.11718,-2.156227 0.17577,-4.113256 0.17578,-5.871094 l -4.5,0 0,-1.757812 17.38477,0 0,1.757812 -4.67578,0 0,5.871094 5.15039,0 z m -6.9961,-1.828125 0,-5.871094 -4.5,0 c -10e-6,1.417995 -0.0703,3.375024 -0.21093,5.871094 z m 11.26758,5.150391 -1.82812,0 0,-12.023438 1.82812,0 z m 7.85742,16.875 -31.28906,0 0,-1.792969 14.80078,0 0,-5.080078 -12.46289,0 0,-1.757813 12.46289,0 0,-3.779296 1.86328,0 0,3.779296 12.2168,0 0,1.757813 -12.2168,0 0,5.080078 14.625,0 z"
       style="font-style:normal;font-variant:normal;font-weight:normal;font-stretch:normal;font-family:Microsoft JhengHei;-inkscape-font-specification:Microsoft JhengHei"
       id="path3148" />
  </g>
</svg>
