<?xml version="1.0" encoding="UTF-8" standalone="no"?>
<!-- Created with Inkscape (http://www.inkscape.org/) -->

<svg
   xmlns:dc="http://purl.org/dc/elements/1.1/"
   xmlns:cc="http://creativecommons.org/ns#"
   xmlns:rdf="http://www.w3.org/1999/02/22-rdf-syntax-ns#"
   xmlns:svg="http://www.w3.org/2000/svg"
   xmlns="http://www.w3.org/2000/svg"
   xmlns:sodipodi="http://sodipodi.sourceforge.net/DTD/sodipodi-0.dtd"
   xmlns:inkscape="http://www.inkscape.org/namespaces/inkscape"
   width="615"
   height="290"
   id="svg10908"
   version="1.1"
   inkscape:version="0.48.1 "
   sodipodi:docname="lvm.svg">
  <defs
     id="defs10910">
    <inkscape:perspective
       sodipodi:type="inkscape:persp3d"
       inkscape:vp_x="0 : 526.18109 : 1"
       inkscape:vp_y="0 : 1000 : 0"
       inkscape:vp_z="800 : 526.18109 : 1"
       inkscape:persp3d-origin="400 : 350.78739 : 1"
       id="perspective11780" />
  </defs>
  <sodipodi:namedview
     id="base"
     pagecolor="#ffffff"
     bordercolor="#666666"
     borderopacity="1.0"
     inkscape:pageopacity="1"
     inkscape:pageshadow="2"
     inkscape:zoom="2"
     inkscape:cx="344.58289"
     inkscape:cy="80.480769"
     inkscape:document-units="px"
     inkscape:current-layer="layer1"
     showgrid="true"
     inkscape:window-width="1920"
     inkscape:window-height="1033"
     inkscape:window-x="-4"
     inkscape:window-y="-4"
     inkscape:window-maximized="1">
    <inkscape:grid
       type="xygrid"
       id="grid11700"
       empspacing="5"
       visible="true"
       enabled="true"
       snapvisiblegridlinesonly="true" />
  </sodipodi:namedview>
  <metadata
     id="metadata10913">
    <rdf:RDF>
      <cc:Work
         rdf:about="">
        <dc:format>image/svg+xml</dc:format>
        <dc:type
           rdf:resource="http://purl.org/dc/dcmitype/StillImage" />
        <dc:title />
      </cc:Work>
    </rdf:RDF>
  </metadata>
  <g
     inkscape:label="Ebene 1"
     inkscape:groupmode="layer"
     id="layer1"
     transform="translate(0,-762.36218)">
    <rect
       style="opacity:0.99000005;fill:#7ac142;fill-opacity:1;fill-rule:nonzero;stroke:#464546;stroke-width:2.96099997;stroke-linecap:butt;stroke-linejoin:miter;stroke-miterlimit:4;stroke-opacity:1;stroke-dasharray:none"
       id="rect11698"
       width="207.03893"
       height="247.03891"
       x="21.480541"
       y="783.84271"
       rx="8.2815561"
       ry="8.4026842" />
    <g
       style="font-size:22px;font-style:normal;font-variant:normal;font-weight:normal;font-stretch:normal;line-height:125%;letter-spacing:0px;word-spacing:0px;fill:#000000;fill-opacity:1;stroke:none;font-family:Open Sans;-inkscape-font-specification:Open Sans"
       id="text11756">
      <path
         d="m 99.43457,815.86218 0,-12.88476 4.43848,0 c 1.00194,10e-6 1.76659,0.0615 2.29394,0.18457 0.73827,0.16993 1.36816,0.47755 1.88965,0.92285 0.67968,0.57423 1.18798,1.30811 1.5249,2.20166 0.33691,0.89356 0.50536,1.91456 0.50537,3.06299 -1e-5,0.97852 -0.11427,1.84571 -0.34277,2.60156 -0.22853,0.75586 -0.52149,1.38135 -0.87891,1.87646 -0.35743,0.49512 -0.74854,0.88477 -1.17334,1.16895 -0.42481,0.28418 -0.9375,0.49951 -1.53808,0.646 -0.60059,0.14648 -1.29054,0.21972 -2.06983,0.21972 z m 1.70508,-1.52051 2.75098,0 c 0.8496,10e-6 1.5161,-0.0791 1.99951,-0.2373 0.48339,-0.1582 0.86864,-0.38086 1.15576,-0.66797 0.40429,-0.40429 0.71923,-0.94775 0.94482,-1.63037 0.22558,-0.68261 0.33837,-1.51025 0.33838,-2.48291 -1e-5,-1.34765 -0.2212,-2.38329 -0.66357,-3.10693 -0.44239,-0.72363 -0.97999,-1.20849 -1.6128,-1.45459 -0.45703,-0.17577 -1.19239,-0.26366 -2.20605,-0.26368 l -2.70703,0 z"
         style="font-size:18px"
         id="path3075" />
      <path
         d="m 112.73242,815.86218 0,-12.88476 1.70508,0 0,12.88476 z"
         style="font-size:18px"
         id="path3077" />
      <path
         d="m 116.85449,811.72253 1.6084,-0.14062 c 0.0762,0.64453 0.25342,1.17334 0.53174,1.58642 0.27832,0.41309 0.71044,0.74708 1.29639,1.00196 0.58593,0.25488 1.24511,0.38232 1.97753,0.38232 0.65039,0 1.22461,-0.0967 1.72266,-0.29004 0.49804,-0.19335 0.86864,-0.45849 1.11182,-0.79541 0.24315,-0.33691 0.36473,-0.70458 0.36474,-1.10302 -1e-5,-0.4043 -0.11719,-0.75732 -0.35156,-1.05909 -0.23438,-0.30175 -0.6211,-0.55517 -1.16016,-0.76025 -0.34571,-0.13476 -1.11035,-0.34423 -2.29394,-0.62842 -1.1836,-0.28417 -2.0127,-0.55224 -2.48731,-0.8042 -0.61523,-0.32226 -1.07373,-0.72216 -1.37548,-1.1997 -0.30176,-0.47754 -0.45264,-1.0122 -0.45264,-1.60401 0,-0.65038 0.18457,-1.25829 0.55371,-1.82373 0.36914,-0.56542 0.9082,-0.99462 1.61719,-1.2876 0.70898,-0.29295 1.49706,-0.43944 2.36426,-0.43945 0.95507,10e-6 1.79735,0.15382 2.52685,0.46143 0.72948,0.30763 1.29052,0.76026 1.68311,1.35791 0.39256,0.59766 0.6035,1.27442 0.63281,2.03027 l -1.63477,0.12305 c -0.0879,-0.81445 -0.38526,-1.42968 -0.89209,-1.84571 -0.50684,-0.416 -1.25537,-0.62401 -2.2456,-0.62402 -1.03126,10e-6 -1.78272,0.18898 -2.2544,0.56689 -0.47168,0.37794 -0.70752,0.83351 -0.70752,1.3667 0,0.4629 0.16699,0.84376 0.50098,1.14258 0.32812,0.29884 1.18505,0.60499 2.5708,0.91846 1.38574,0.31348 2.33642,0.58741 2.85205,0.82178 0.74999,0.34571 1.3037,0.78369 1.66114,1.31396 0.35741,0.53028 0.53612,1.14112 0.53613,1.83252 -10e-6,0.68555 -0.1963,1.33155 -0.58887,1.93799 -0.39259,0.60645 -0.95655,1.07812 -1.69189,1.41504 -0.73536,0.33691 -1.563,0.50537 -2.48291,0.50537 -1.16602,0 -2.14307,-0.16992 -2.93116,-0.50977 -0.78808,-0.33984 -1.40625,-0.85107 -1.85449,-1.53369 -0.44824,-0.68261 -0.68408,-1.45458 -0.70752,-2.31592 z"
         style="font-size:18px"
         id="path3079" />
      <path
         d="m 138.65137,811.3446 1.70508,0.43067 c -0.35744,1.40039 -1.0005,2.46826 -1.9292,3.20361 -0.92872,0.73535 -2.06398,1.10303 -3.40577,1.10303 -1.38867,0 -2.51807,-0.28272 -3.38818,-0.84815 -0.87012,-0.56542 -1.53223,-1.38427 -1.98633,-2.45654 -0.4541,-1.07226 -0.68115,-2.22363 -0.68115,-3.4541 0,-1.34179 0.25635,-2.5122 0.76904,-3.51123 0.5127,-0.99901 1.24219,-1.7578 2.18848,-2.27637 0.94628,-0.51854 1.98779,-0.77782 3.12451,-0.77783 1.28906,10e-6 2.37304,0.32814 3.25195,0.98438 0.8789,0.65626 1.4912,1.57911 1.83692,2.76855 l -1.67871,0.39551 c -0.29884,-0.93749 -0.73243,-1.62011 -1.30078,-2.04785 -0.56837,-0.42773 -1.28321,-0.64159 -2.14453,-0.64161 -0.99025,2e-5 -1.81788,0.23732 -2.48291,0.71192 -0.66505,0.47462 -1.13233,1.11183 -1.40186,1.91162 -0.26953,0.79981 -0.4043,1.62452 -0.4043,2.47412 0,1.09571 0.15967,2.05225 0.47901,2.86963 0.31933,0.81739 0.81591,1.42822 1.48974,1.83252 0.67383,0.4043 1.40332,0.60645 2.18848,0.60644 0.95507,10e-6 1.76366,-0.27538 2.42578,-0.82617 0.6621,-0.55078 1.11034,-1.36816 1.34473,-2.45215 z"
         style="font-size:18px"
         id="path3081" />
      <path
         d="m 141.94727,809.58679 c -1e-5,-2.13866 0.57421,-3.81298 1.72265,-5.02295 1.14844,-1.20995 2.63086,-1.81493 4.44727,-1.81494 1.18944,10e-6 2.26171,0.28419 3.21679,0.85254 0.95507,0.56837 1.6831,1.36085 2.18409,2.37744 0.50096,1.01661 0.75145,2.16944 0.75146,3.4585 -1e-5,1.30664 -0.26368,2.47559 -0.79101,3.50683 -0.52736,1.03126 -1.27443,1.81202 -2.24122,2.34229 -0.9668,0.53027 -2.00977,0.79541 -3.1289,0.79541 -1.2129,0 -2.29688,-0.29297 -3.25195,-0.87891 -0.95509,-0.58593 -1.67872,-1.38574 -2.1709,-2.39941 -0.49219,-1.01367 -0.73829,-2.08593 -0.73828,-3.2168 z m 1.75781,0.0264 c 0,1.55274 0.41748,2.77588 1.25244,3.66943 0.83496,0.89356 1.88232,1.34034 3.14209,1.34033 1.28319,10e-6 2.33935,-0.45117 3.16846,-1.35351 0.82909,-0.90234 1.24364,-2.18261 1.24365,-3.84082 -1e-5,-1.04882 -0.17726,-1.96435 -0.53174,-2.74658 -0.3545,-0.78222 -0.87306,-1.38866 -1.55566,-1.81934 -0.68263,-0.43065 -1.44874,-0.64598 -2.29834,-0.646 -1.20704,2e-5 -2.24561,0.41457 -3.11573,1.24366 -0.87012,0.82911 -1.30517,2.21338 -1.30517,4.15283 z"
         style="font-size:18px"
         id="path3083" />
    </g>
    <path
       style="fill:none;stroke:#464546;stroke-width:2;stroke-linecap:butt;stroke-linejoin:miter;stroke-miterlimit:4;stroke-opacity:1;stroke-dasharray:none"
       d="m 21.483272,980.35374 207.806898,0"
       id="path11866"
       inkscape:connector-curvature="0" />
    <path
       style="fill:none;stroke:#464546;stroke-width:2;stroke-linecap:butt;stroke-linejoin:miter;stroke-miterlimit:4;stroke-opacity:1;stroke-dasharray:none"
       d="m 21.484175,830.3542 208.195365,0"
       id="path11874"
       inkscape:connector-curvature="0" />
    <g
       style="font-size:22px;font-style:normal;font-variant:normal;font-weight:normal;font-stretch:normal;line-height:125%;letter-spacing:0px;word-spacing:0px;fill:#000000;fill-opacity:1;stroke:none;font-family:Open Sans;-inkscape-font-specification:Open Sans"
       id="text11876">
      <path
         d="m 28.287266,915.24695 0,-12.88477 4.860351,0 c 0.855462,2e-5 1.508782,0.041 1.959961,0.12305 0.632804,0.10548 1.163077,0.30616 1.590821,0.60205 0.427724,0.29591 0.771962,0.71046 1.032714,1.24365 0.260732,0.53322 0.391102,1.11915 0.391114,1.75782 -1.2e-5,1.09571 -0.348644,2.02295 -1.045899,2.78173 -0.697275,0.7588 -1.957039,1.13819 -3.779297,1.13819 l -3.304687,0 0,5.23828 z m 1.705078,-6.75879 3.331055,0 c 1.101555,10e-6 1.88378,-0.20507 2.346679,-0.61524 0.462882,-0.41014 0.694327,-0.98729 0.694336,-1.73144 -9e-6,-0.53905 -0.13624,-1.00048 -0.408691,-1.38428 -0.27247,-0.38378 -0.631356,-0.63719 -1.07666,-0.76025 -0.287117,-0.0762 -0.81739,-0.11425 -1.590821,-0.11426 l -3.295898,0 z"
         style="font-size:18px"
         id="path3163" />
      <path
         d="m 38.895664,915.24695 4.948242,-12.88477 1.836914,0 5.273438,12.88477 -1.942383,0 -1.50293,-3.90235 -5.387695,0 -1.415039,3.90235 z m 3.717774,-5.29102 4.368164,0 -1.344727,-3.56836 c -0.410162,-1.08397 -0.71485,-1.9746 -0.914062,-2.67187 -0.164068,0.82618 -0.395514,1.64649 -0.694336,2.46094 z"
         style="font-size:18px"
         id="path3165" />
      <path
         d="m 52.360508,915.24695 0,-12.88477 5.712891,0 c 1.148429,2e-5 2.021475,0.11574 2.61914,0.34717 0.597646,0.23146 1.075185,0.64015 1.432617,1.22607 0.357411,0.58595 0.536121,1.23341 0.536133,1.94239 -1.2e-5,0.91407 -0.29591,1.68458 -0.887695,2.31152 -0.591807,0.62696 -1.505869,1.0254 -2.742188,1.19531 0.451164,0.21681 0.793937,0.43067 1.028321,0.64161 0.498037,0.45703 0.969716,1.02832 1.415039,1.71386 l 2.241211,3.50684 -2.144532,0 -1.705078,-2.68067 c -0.498055,-0.77343 -0.908211,-1.36523 -1.230468,-1.77539 -0.322273,-0.41015 -0.610847,-0.69726 -0.865723,-0.86132 -0.254889,-0.16406 -0.514167,-0.27832 -0.777832,-0.34278 -0.193365,-0.041 -0.509771,-0.0615 -0.949219,-0.0615 l -1.977539,0 0,5.72168 z m 1.705078,-7.19824 3.665039,0 c 0.779289,0 1.388664,-0.0806 1.828125,-0.2417 0.439444,-0.16113 0.773428,-0.41894 1.001953,-0.77344 0.228506,-0.35448 0.342764,-0.73974 0.342774,-1.15576 -1e-5,-0.60937 -0.221201,-1.11034 -0.663575,-1.50293 -0.442391,-0.39257 -1.141121,-0.58886 -2.096191,-0.58887 l -4.078125,0 z"
         style="font-size:18px"
         id="path3167" />
      <path
         d="m 68.620274,915.24695 0,-11.36426 -4.245118,0 0,-1.52051 10.212891,0 0,1.52051 -4.262695,0 0,11.36426 z"
         style="font-size:18px"
         id="path3169" />
      <path
         d="m 76.381016,915.24695 0,-12.88477 9.316406,0 0,1.52051 -7.611328,0 0,3.94629 7.12793,0 0,1.51172 -7.12793,0 0,4.38574 7.910156,0 0,1.52051 z"
         style="font-size:18px"
         id="path3171" />
    </g>
    <g
       style="font-size:22px;font-style:normal;font-variant:normal;font-weight:normal;font-stretch:normal;line-height:125%;letter-spacing:0px;word-spacing:0px;fill:#000000;fill-opacity:1;stroke:none;font-family:Open Sans;-inkscape-font-specification:Open Sans"
       id="text11876-6">
      <path
         d="m 98.462158,915.24695 0,-12.88477 4.860352,0 c 0.85546,2e-5 1.50878,0.041 1.95996,0.12305 0.6328,0.10548 1.16308,0.30616 1.59082,0.60205 0.42773,0.29591 0.77196,0.71046 1.03272,1.24365 0.26073,0.53322 0.3911,1.11915 0.39111,1.75782 -1e-5,1.09571 -0.34864,2.02295 -1.0459,2.78173 -0.69727,0.7588 -1.95704,1.13819 -3.7793,1.13819 l -3.30468,0 0,5.23828 z m 1.705082,-6.75879 3.33105,0 c 1.10156,10e-6 1.88378,-0.20507 2.34668,-0.61524 0.46288,-0.41014 0.69433,-0.98729 0.69434,-1.73144 -1e-5,-0.53905 -0.13624,-1.00048 -0.40869,-1.38428 -0.27247,-0.38378 -0.63136,-0.63719 -1.07666,-0.76025 -0.28712,-0.0762 -0.81739,-0.11425 -1.59083,-0.11426 l -3.29589,0 z"
         style="font-size:18px"
         id="path3152" />
      <path
         d="m 109.07056,915.24695 4.94824,-12.88477 1.83691,0 5.27344,12.88477 -1.94238,0 -1.50293,-3.90235 -5.3877,0 -1.41504,3.90235 z m 3.71777,-5.29102 4.36816,0 -1.34472,-3.56836 c -0.41016,-1.08397 -0.71485,-1.9746 -0.91406,-2.67187 -0.16407,0.82618 -0.39552,1.64649 -0.69434,2.46094 z"
         style="font-size:18px"
         id="path3154" />
      <path
         d="m 122.5354,915.24695 0,-12.88477 5.71289,0 c 1.14843,2e-5 2.02148,0.11574 2.61914,0.34717 0.59765,0.23146 1.07519,0.64015 1.43262,1.22607 0.35741,0.58595 0.53612,1.23341 0.53613,1.94239 -1e-5,0.91407 -0.29591,1.68458 -0.88769,2.31152 -0.59181,0.62696 -1.50587,1.0254 -2.74219,1.19531 0.45116,0.21681 0.79394,0.43067 1.02832,0.64161 0.49804,0.45703 0.96972,1.02832 1.41504,1.71386 l 2.24121,3.50684 -2.14453,0 -1.70508,-2.68067 c -0.49806,-0.77343 -0.90821,-1.36523 -1.23047,-1.77539 -0.32227,-0.41015 -0.61085,-0.69726 -0.86572,-0.86132 -0.25489,-0.16406 -0.51417,-0.27832 -0.77783,-0.34278 -0.19337,-0.041 -0.50977,-0.0615 -0.94922,-0.0615 l -1.97754,0 0,5.72168 z m 1.70508,-7.19824 3.66504,0 c 0.77929,0 1.38866,-0.0806 1.82812,-0.2417 0.43945,-0.16113 0.77343,-0.41894 1.00196,-0.77344 0.2285,-0.35448 0.34276,-0.73974 0.34277,-1.15576 -1e-5,-0.60937 -0.2212,-1.11034 -0.66358,-1.50293 -0.44239,-0.39257 -1.14112,-0.58886 -2.09619,-0.58887 l -4.07812,0 z"
         style="font-size:18px"
         id="path3156" />
      <path
         d="m 138.79517,915.24695 0,-11.36426 -4.24512,0 0,-1.52051 10.21289,0 0,1.52051 -4.2627,0 0,11.36426 z"
         style="font-size:18px"
         id="path3158" />
      <path
         d="m 146.55591,915.24695 0,-12.88477 9.3164,0 0,1.52051 -7.61132,0 0,3.94629 7.12793,0 0,1.51172 -7.12793,0 0,4.38574 7.91015,0 0,1.52051 z"
         style="font-size:18px"
         id="path3160" />
    </g>
    <g
       style="font-size:22px;font-style:normal;font-variant:normal;font-weight:normal;font-stretch:normal;line-height:125%;letter-spacing:0px;word-spacing:0px;fill:#000000;fill-opacity:1;stroke:none;font-family:Open Sans;-inkscape-font-specification:Open Sans"
       id="text11876-1">
      <path
         d="m 166.59062,915.24695 0,-12.88477 4.86035,0 c 0.85547,2e-5 1.50878,0.041 1.95996,0.12305 0.63281,0.10548 1.16308,0.30616 1.59082,0.60205 0.42773,0.29591 0.77197,0.71046 1.03272,1.24365 0.26073,0.53322 0.3911,1.11915 0.39111,1.75782 -1e-5,1.09571 -0.34864,2.02295 -1.0459,2.78173 -0.69727,0.7588 -1.95704,1.13819 -3.77929,1.13819 l -3.30469,0 0,5.23828 z m 1.70508,-6.75879 3.33105,0 c 1.10156,10e-6 1.88379,-0.20507 2.34668,-0.61524 0.46289,-0.41014 0.69433,-0.98729 0.69434,-1.73144 -1e-5,-0.53905 -0.13624,-1.00048 -0.40869,-1.38428 -0.27247,-0.38378 -0.63136,-0.63719 -1.07666,-0.76025 -0.28712,-0.0762 -0.81739,-0.11425 -1.59082,-0.11426 l -3.2959,0 z"
         style="font-size:18px"
         id="path3141" />
      <path
         d="m 177.19902,915.24695 4.94824,-12.88477 1.83692,0 5.27343,12.88477 -1.94238,0 -1.50293,-3.90235 -5.38769,0 -1.41504,3.90235 z m 3.71777,-5.29102 4.36817,0 -1.34473,-3.56836 c -0.41016,-1.08397 -0.71485,-1.9746 -0.91406,-2.67187 -0.16407,0.82618 -0.39551,1.64649 -0.69434,2.46094 z"
         style="font-size:18px"
         id="path3143" />
      <path
         d="m 190.66386,915.24695 0,-12.88477 5.71289,0 c 1.14843,2e-5 2.02148,0.11574 2.61915,0.34717 0.59764,0.23146 1.07518,0.64015 1.43261,1.22607 0.35741,0.58595 0.53612,1.23341 0.53614,1.94239 -2e-5,0.91407 -0.29591,1.68458 -0.8877,2.31152 -0.59181,0.62696 -1.50587,1.0254 -2.74219,1.19531 0.45117,0.21681 0.79394,0.43067 1.02832,0.64161 0.49804,0.45703 0.96972,1.02832 1.41504,1.71386 l 2.24121,3.50684 -2.14453,0 -1.70508,-2.68067 c -0.49805,-0.77343 -0.90821,-1.36523 -1.23047,-1.77539 -0.32227,-0.41015 -0.61084,-0.69726 -0.86572,-0.86132 -0.25489,-0.16406 -0.51416,-0.27832 -0.77783,-0.34278 -0.19337,-0.041 -0.50977,-0.0615 -0.94922,-0.0615 l -1.97754,0 0,5.72168 z m 1.70508,-7.19824 3.66504,0 c 0.77929,0 1.38867,-0.0806 1.82813,-0.2417 0.43944,-0.16113 0.77342,-0.41894 1.00195,-0.77344 0.22851,-0.35448 0.34276,-0.73974 0.34277,-1.15576 -1e-5,-0.60937 -0.2212,-1.11034 -0.66357,-1.50293 -0.44239,-0.39257 -1.14112,-0.58886 -2.09619,-0.58887 l -4.07813,0 z"
         style="font-size:18px"
         id="path3145" />
      <path
         d="m 206.92363,915.24695 0,-11.36426 -4.24512,0 0,-1.52051 10.21289,0 0,1.52051 -4.26269,0 0,11.36426 z"
         style="font-size:18px"
         id="path3147" />
      <path
         d="m 214.68437,915.24695 0,-12.88477 9.31641,0 0,1.52051 -7.61133,0 0,3.94629 7.12793,0 0,1.51172 -7.12793,0 0,4.38574 7.91016,0 0,1.52051 z"
         style="font-size:18px"
         id="path3149" />
    </g>
    <path
       style="fill:none;stroke:#464546;stroke-width:2;stroke-linecap:butt;stroke-linejoin:miter;stroke-miterlimit:4;stroke-opacity:1;stroke-dasharray:none"
       d="m 92.052539,830.74357 0,200.22103"
       id="path11910"
       inkscape:connector-curvature="0" />
    <path
       style="fill:none;stroke:#464546;stroke-width:2;stroke-linecap:butt;stroke-linejoin:miter;stroke-miterlimit:4;stroke-opacity:1;stroke-dasharray:none"
       d="m 162.07313,831.04273 0,199.91357"
       id="path11912"
       inkscape:connector-curvature="0" />
    <g
       style="font-size:22px;font-style:normal;font-variant:normal;font-weight:normal;font-stretch:normal;line-height:125%;letter-spacing:0px;word-spacing:0px;fill:#000000;fill-opacity:1;stroke:none;font-family:Open Sans;-inkscape-font-specification:Open Sans"
       id="text11914">
      <path
         d="m 48.777363,1013.9509 0,-12.8847 2.566406,0 3.049805,9.123 c 0.281243,0.8496 0.48632,1.4854 0.615234,1.9072 0.146477,-0.4687 0.374992,-1.1572 0.685547,-2.0654 l 3.084961,-8.9648 2.293945,0 0,12.8847 -1.643554,0 0,-10.7842 -3.744141,10.7842 -1.538086,0 -3.726562,-10.9687 0,10.9687 z"
         style="font-size:18px"
         id="path3226" />
      <path
         d="m 63.841816,1013.9509 0,-12.8847 4.860352,0 c 0.855461,0 1.508781,0.041 1.95996,0.123 0.632804,0.1055 1.163077,0.3062 1.590821,0.6021 0.427724,0.2959 0.771962,0.7104 1.032715,1.2436 0.260731,0.5332 0.391102,1.1192 0.391113,1.7578 -1.1e-5,1.0957 -0.348644,2.023 -1.045899,2.7818 -0.697275,0.7588 -1.957039,1.1382 -3.779296,1.1381 l -3.304688,0 0,5.2383 z m 1.705078,-6.7588 3.331055,0 c 1.101555,0 1.883781,-0.205 2.346679,-0.6152 0.462882,-0.4101 0.694327,-0.9873 0.694336,-1.7314 -9e-6,-0.5391 -0.136239,-1.0005 -0.408691,-1.3843 -0.27247,-0.3838 -0.631356,-0.6372 -1.07666,-0.7603 -0.287117,-0.076 -0.81739,-0.1142 -1.59082,-0.1142 l -3.295899,0 z"
         style="font-size:18px"
         id="path3228" />
    </g>
    <g
       style="font-size:22px;font-style:normal;font-variant:normal;font-weight:normal;font-stretch:normal;line-height:125%;letter-spacing:0px;word-spacing:0px;fill:#000000;fill-opacity:1;stroke:none;font-family:Open Sans;-inkscape-font-specification:Open Sans"
       id="text11918">
      <path
         d="m 116.68618,1013.7988 0,-12.8847 2.56641,0 3.0498,9.123 c 0.28124,0.8496 0.48632,1.4854 0.61524,1.9072 0.14647,-0.4687 0.37499,-1.1572 0.68554,-2.0654 l 3.08496,-8.9648 2.29395,0 0,12.8847 -1.64356,0 0,-10.7842 -3.74414,10.7842 -1.53808,0 -3.72657,-10.9687 0,10.9687 z"
         style="font-size:18px"
         id="path3221" />
      <path
         d="m 131.75063,1013.7988 0,-12.8847 4.86035,0 c 0.85547,0 1.50879,0.041 1.95997,0.123 0.6328,0.1055 1.16307,0.3062 1.59082,0.6021 0.42772,0.2959 0.77196,0.7104 1.03271,1.2436 0.26073,0.5332 0.3911,1.1192 0.39111,1.7578 -1e-5,1.0957 -0.34864,2.023 -1.04589,2.7818 -0.69728,0.7588 -1.95704,1.1382 -3.7793,1.1381 l -3.30469,0 0,5.2383 z m 1.70508,-6.7588 3.33106,0 c 1.10155,0 1.88378,-0.205 2.34668,-0.6152 0.46288,-0.4101 0.69432,-0.9873 0.69433,-1.7314 -1e-5,-0.5391 -0.13624,-1.0005 -0.40869,-1.3843 -0.27247,-0.3838 -0.63136,-0.6372 -1.07666,-0.7603 -0.28712,-0.076 -0.81739,-0.1142 -1.59082,-0.1142 l -3.2959,0 z"
         style="font-size:18px"
         id="path3223" />
    </g>
    <g
       style="font-size:22px;font-style:normal;font-variant:normal;font-weight:normal;font-stretch:normal;line-height:125%;letter-spacing:0px;word-spacing:0px;fill:#000000;fill-opacity:1;stroke:none;font-family:Open Sans;-inkscape-font-specification:Open Sans"
       id="text11922">
      <path
         d="m 182.87747,1013.316 0,-12.8848 2.56641,0 3.0498,9.1231 c 0.28125,0.8496 0.48632,1.4853 0.61524,1.9072 0.14647,-0.4688 0.37499,-1.1572 0.68554,-2.0654 l 3.08497,-8.9649 2.29394,0 0,12.8848 -1.64355,0 0,-10.7842 -3.74414,10.7842 -1.53809,0 -3.72656,-10.9688 0,10.9688 z"
         style="font-size:18px"
         id="path3216" />
      <path
         d="m 197.94193,1013.316 0,-12.8848 4.86035,0 c 0.85546,0 1.50878,0.041 1.95996,0.1231 0.6328,0.1054 1.16307,0.3061 1.59082,0.602 0.42772,0.2959 0.77196,0.7105 1.03271,1.2437 0.26073,0.5332 0.3911,1.1191 0.39112,1.7578 -2e-5,1.0957 -0.34865,2.0229 -1.0459,2.7817 -0.69728,0.7588 -1.95704,1.1382 -3.7793,1.1382 l -3.30469,0 0,5.2383 z m 1.70507,-6.7588 3.33106,0 c 1.10155,0 1.88378,-0.2051 2.34668,-0.6152 0.46288,-0.4102 0.69432,-0.9873 0.69433,-1.7315 -1e-5,-0.539 -0.13624,-1.0005 -0.40869,-1.3843 -0.27247,-0.3837 -0.63135,-0.6372 -1.07666,-0.7602 -0.28712,-0.076 -0.81739,-0.1143 -1.59082,-0.1143 l -3.2959,0 z"
         style="font-size:18px"
         id="path3218" />
    </g>
    <rect
       style="opacity:0.99000005;fill:#7ac142;fill-opacity:1;fill-rule:nonzero;stroke:#464546;stroke-width:2.91599989;stroke-linecap:butt;stroke-linejoin:miter;stroke-miterlimit:4;stroke-opacity:1;stroke-dasharray:none"
       id="rect11698-7"
       width="346.1778"
       height="246.17776"
       x="247.03612"
       y="784.27325"
       rx="13.84711"
       ry="8.373394" />
    <path
       style="fill:none;stroke:#464546;stroke-width:2.00178909;stroke-linecap:butt;stroke-linejoin:miter;stroke-miterlimit:4;stroke-opacity:1;stroke-dasharray:none"
       d="m 247.80614,830.49433 344.28821,0"
       id="path11874-8"
       inkscape:connector-curvature="0" />
    <path
       style="fill:none;stroke:#464546;stroke-width:2;stroke-linecap:butt;stroke-linejoin:miter;stroke-miterlimit:4;stroke-opacity:1;stroke-dasharray:none"
       d="m 246.80873,980.49592 345.39535,0"
       id="path11866-7"
       inkscape:connector-curvature="0" />
    <path
       style="fill:none;stroke:#464546;stroke-width:2.00178385;stroke-linecap:butt;stroke-linejoin:miter;stroke-miterlimit:4;stroke-opacity:1;stroke-dasharray:none"
       d="m 246.87135,930.99527 345.30672,0"
       id="path11866-7-6"
       inkscape:connector-curvature="0" />
    <path
       style="fill:none;stroke:#464546;stroke-width:2;stroke-linecap:butt;stroke-linejoin:miter;stroke-miterlimit:4;stroke-opacity:1;stroke-dasharray:none"
       d="m 246.8704,880.17754 345.04346,0"
       id="path11866-7-6-6"
       inkscape:connector-curvature="0" />
    <path
       style="fill:none;stroke:#464546;stroke-width:2;stroke-linecap:butt;stroke-linejoin:miter;stroke-miterlimit:4;stroke-opacity:1;stroke-dasharray:none"
       d="m 318.82523,830.47354 0,50.28872"
       id="path11912-1"
       inkscape:connector-curvature="0" />
    <path
       style="fill:none;stroke:#464546;stroke-width:2;stroke-linecap:butt;stroke-linejoin:miter;stroke-miterlimit:4;stroke-opacity:1;stroke-dasharray:none"
       d="m 388.15189,783.6664 0,97.3463"
       id="path11912-1-1"
       inkscape:connector-curvature="0" />
    <path
       style="fill:none;stroke:#464546;stroke-width:2.00931168;stroke-linecap:butt;stroke-linejoin:miter;stroke-miterlimit:4;stroke-opacity:1;stroke-dasharray:none"
       d="m 458.3724,831.37918 0,198.70862"
       id="path11912-1-1-3"
       inkscape:connector-curvature="0" />
    <path
       style="fill:none;stroke:#464546;stroke-width:2;stroke-linecap:butt;stroke-linejoin:miter;stroke-miterlimit:4;stroke-opacity:1;stroke-dasharray:none"
       d="m 528.64817,931.14591 0,98.31909"
       id="path11912-1-1-3-6"
       inkscape:connector-curvature="0" />
    <g
       style="font-size:22px;font-style:normal;font-variant:normal;font-weight:normal;font-stretch:normal;line-height:125%;letter-spacing:0px;word-spacing:0px;fill:#000000;fill-opacity:1;stroke:none;font-family:Open Sans;-inkscape-font-specification:Open Sans"
       id="text12300">
      <path
         d="m 283.25778,815.43677 0,-12.88477 4.43848,0 c 1.00194,10e-6 1.76659,0.0615 2.29394,0.18457 0.73828,0.16994 1.36816,0.47755 1.88965,0.92285 0.67968,0.57423 1.18798,1.30812 1.5249,2.20166 0.33691,0.89357 0.50536,1.91456 0.50538,3.06299 -2e-5,0.97852 -0.11427,1.84571 -0.34278,2.60156 -0.22852,0.75587 -0.52149,1.38135 -0.8789,1.87647 -0.35744,0.49512 -0.74855,0.88477 -1.17334,1.16894 -0.42482,0.28419 -0.93751,0.49952 -1.53809,0.646 -0.60059,0.14649 -1.29053,0.21973 -2.06982,0.21973 z m 1.70508,-1.52051 2.75098,0 c 0.8496,0 1.5161,-0.0791 1.99951,-0.2373 0.48339,-0.15821 0.86864,-0.38086 1.15576,-0.66797 0.40429,-0.4043 0.71923,-0.94775 0.94482,-1.63037 0.22558,-0.68262 0.33837,-1.51025 0.33838,-2.48291 -10e-6,-1.34765 -0.2212,-2.3833 -0.66357,-3.10694 -0.44239,-0.72362 -0.97999,-1.20848 -1.61279,-1.45459 -0.45704,-0.17577 -1.19239,-0.26366 -2.20606,-0.26367 l -2.70703,0 z"
         style="font-size:18px"
         id="path3062" />
      <path
         d="m 296.55563,815.43677 0,-12.88477 1.70508,0 0,12.88477 z"
         style="font-size:18px"
         id="path3064" />
      <path
         d="m 300.6777,811.29712 1.6084,-0.14063 c 0.0762,0.64454 0.25342,1.17335 0.53174,1.58643 0.27832,0.41309 0.71045,0.74707 1.29639,1.00195 0.58593,0.25489 1.24511,0.38233 1.97754,0.38233 0.65038,0 1.2246,-0.0967 1.72265,-0.29004 0.49804,-0.19336 0.86865,-0.4585 1.11182,-0.79541 0.24315,-0.33691 0.36474,-0.70459 0.36475,-1.10303 -1e-5,-0.40429 -0.1172,-0.75732 -0.35157,-1.05908 -0.23438,-0.30175 -0.6211,-0.55517 -1.16015,-0.76026 -0.34571,-0.13476 -1.11036,-0.34423 -2.29395,-0.62841 -1.1836,-0.28418 -2.0127,-0.55224 -2.4873,-0.8042 -0.61524,-0.32226 -1.07374,-0.72216 -1.37549,-1.19971 -0.30176,-0.47753 -0.45264,-1.0122 -0.45264,-1.604 0,-0.65038 0.18457,-1.25829 0.55371,-1.82373 0.36914,-0.56542 0.9082,-0.99462 1.61719,-1.2876 0.70898,-0.29296 1.49707,-0.43944 2.36426,-0.43945 0.95507,10e-6 1.79735,0.15382 2.52685,0.46142 0.72949,0.30763 1.29052,0.76027 1.68311,1.35791 0.39257,0.59767 0.6035,1.27443 0.63281,2.03027 l -1.63476,0.12305 c -0.0879,-0.81444 -0.38527,-1.42968 -0.89209,-1.8457 -0.50685,-0.41601 -1.25538,-0.62401 -2.24561,-0.62402 -1.03125,1e-5 -1.78272,0.18897 -2.25439,0.56689 -0.47169,0.37794 -0.70753,0.83351 -0.70752,1.3667 -10e-6,0.4629 0.16699,0.84376 0.50097,1.14258 0.32812,0.29883 1.18506,0.60499 2.5708,0.91845 1.38574,0.31349 2.33642,0.58741 2.85205,0.82178 0.74999,0.34571 1.3037,0.7837 1.66114,1.31397 0.35741,0.53027 0.53612,1.14111 0.53613,1.83252 -1e-5,0.68555 -0.1963,1.33154 -0.58887,1.93798 -0.39259,0.60645 -0.95655,1.07813 -1.69189,1.41504 -0.73536,0.33692 -1.563,0.50537 -2.48291,0.50537 -1.16602,0 -2.14307,-0.16992 -2.93115,-0.50976 -0.78809,-0.33984 -1.40626,-0.85107 -1.8545,-1.53369 -0.44824,-0.68262 -0.68408,-1.45459 -0.70752,-2.31592 z"
         style="font-size:18px"
         id="path3066" />
      <path
         d="m 322.47458,810.91919 1.70508,0.43066 c -0.35744,1.4004 -1.0005,2.46827 -1.9292,3.20362 -0.92872,0.73535 -2.06398,1.10302 -3.40576,1.10302 -1.38868,0 -2.51807,-0.28271 -3.38819,-0.84814 -0.87012,-0.56543 -1.53223,-1.38428 -1.98633,-2.45654 -0.4541,-1.07226 -0.68115,-2.22363 -0.68115,-3.4541 0,-1.34179 0.25635,-2.5122 0.76904,-3.51124 0.5127,-0.99901 1.24219,-1.7578 2.18848,-2.27636 0.94629,-0.51854 1.98779,-0.77782 3.12451,-0.77783 1.28906,10e-6 2.37304,0.32813 3.25196,0.98437 0.87889,0.65626 1.4912,1.57911 1.83691,2.76856 l -1.67871,0.3955 c -0.29884,-0.93749 -0.73243,-1.6201 -1.30078,-2.04785 -0.56837,-0.42772 -1.28321,-0.64159 -2.14453,-0.6416 -0.99024,1e-5 -1.81788,0.23732 -2.48291,0.71191 -0.66505,0.47462 -1.13233,1.11183 -1.40186,1.91162 -0.26953,0.79982 -0.4043,1.62452 -0.4043,2.47413 0,1.0957 0.15967,2.05225 0.47901,2.86962 0.31933,0.81739 0.81591,1.42823 1.48974,1.83252 0.67383,0.4043 1.40332,0.60645 2.18848,0.60645 0.95507,0 1.76366,-0.27539 2.42578,-0.82617 0.6621,-0.55078 1.11034,-1.36816 1.34473,-2.45215 z"
         style="font-size:18px"
         id="path3068" />
      <path
         d="m 325.77048,809.16138 c 0,-2.13867 0.57421,-3.81298 1.72265,-5.02295 1.14844,-1.20995 2.63086,-1.81493 4.44727,-1.81494 1.18944,10e-6 2.26171,0.28419 3.2168,0.85254 0.95506,0.56837 1.68309,1.36085 2.18408,2.37744 0.50096,1.01661 0.75145,2.16944 0.75146,3.45849 -10e-6,1.30665 -0.26368,2.47559 -0.79101,3.50684 -0.52736,1.03125 -1.27443,1.81201 -2.24121,2.34228 -0.96681,0.53028 -2.00978,0.79541 -3.12891,0.79541 -1.2129,0 -2.29688,-0.29296 -3.25195,-0.8789 -0.95508,-0.58594 -1.67872,-1.38574 -2.1709,-2.39942 -0.49219,-1.01366 -0.73828,-2.08593 -0.73828,-3.21679 z m 1.75781,0.0264 c 0,1.55274 0.41748,2.77589 1.25244,3.66944 0.83496,0.89355 1.88232,1.34033 3.14209,1.34033 1.2832,0 2.33935,-0.45117 3.16846,-1.35352 0.82909,-0.90234 1.24364,-2.18261 1.24365,-3.84082 -10e-6,-1.04882 -0.17726,-1.96434 -0.53174,-2.74658 -0.3545,-0.78221 -0.87305,-1.38866 -1.55566,-1.81933 -0.68263,-0.43066 -1.44874,-0.64599 -2.29834,-0.646 -1.20704,1e-5 -2.24561,0.41456 -3.11572,1.24365 -0.87012,0.82911 -1.30518,2.21339 -1.30518,4.15283 z"
         style="font-size:18px"
         id="path3070" />
      <path
         d="m 350.59079,815.43677 -1.58203,0 0,-10.08106 c -0.38087,0.36329 -0.88038,0.72657 -1.49854,1.08985 -0.61816,0.36329 -1.17334,0.63575 -1.66552,0.81738 l 0,-1.5293 c 0.88476,-0.416 1.6582,-0.91991 2.32031,-1.51172 0.6621,-0.59178 1.13085,-1.166 1.40625,-1.72265 l 1.01953,0 z"
         style="font-size:18px"
         id="path3072" />
    </g>
    <g
       style="font-size:22px;font-style:normal;font-variant:normal;font-weight:normal;font-stretch:normal;line-height:125%;letter-spacing:0px;word-spacing:0px;fill:#000000;fill-opacity:1;stroke:none;font-family:Open Sans;-inkscape-font-specification:Open Sans"
       id="text12304">
      <path
         d="m 458.07626,814.953 0,-12.88476 4.43848,0 c 1.00195,1e-5 1.76659,0.0615 2.29395,0.18457 0.73827,0.16993 1.36815,0.47755 1.88964,0.92285 0.67968,0.57423 1.18798,1.30812 1.52491,2.20166 0.3369,0.89356 0.50536,1.91456 0.50537,3.06299 -1e-5,0.97852 -0.11427,1.84571 -0.34278,2.60156 -0.22852,0.75586 -0.52149,1.38135 -0.8789,1.87646 -0.35743,0.49512 -0.74855,0.88477 -1.17334,1.16895 -0.42482,0.28418 -0.93751,0.49951 -1.53809,0.646 -0.60059,0.14648 -1.29053,0.21972 -2.06982,0.21972 z m 1.70508,-1.5205 2.75098,0 c 0.8496,0 1.5161,-0.0791 1.99951,-0.23731 0.48339,-0.1582 0.86864,-0.38086 1.15576,-0.66797 0.40429,-0.40429 0.71923,-0.94775 0.94483,-1.63037 0.22557,-0.68261 0.33836,-1.51025 0.33837,-2.48291 -1e-5,-1.34765 -0.2212,-2.38329 -0.66357,-3.10693 -0.44239,-0.72363 -0.97999,-1.20849 -1.61279,-1.45459 -0.45704,-0.17577 -1.19239,-0.26366 -2.20606,-0.26367 l -2.70703,0 z"
         style="font-size:18px"
         id="path3049" />
      <path
         d="m 471.37411,814.953 0,-12.88476 1.70508,0 0,12.88476 z"
         style="font-size:18px"
         id="path3051" />
      <path
         d="m 475.49619,810.81335 1.60839,-0.14062 c 0.0762,0.64453 0.25342,1.17334 0.53174,1.58643 0.27832,0.41308 0.71045,0.74707 1.29639,1.00195 0.58593,0.25488 1.24511,0.38232 1.97754,0.38232 0.65038,0 1.2246,-0.0967 1.72265,-0.29004 0.49804,-0.19335 0.86865,-0.45849 1.11182,-0.79541 0.24316,-0.33691 0.36474,-0.70458 0.36475,-1.10302 -10e-6,-0.4043 -0.1172,-0.75732 -0.35157,-1.05909 -0.23438,-0.30175 -0.6211,-0.55517 -1.16015,-0.76025 -0.34571,-0.13476 -1.11036,-0.34423 -2.29395,-0.62842 -1.1836,-0.28417 -2.0127,-0.55224 -2.4873,-0.8042 -0.61524,-0.32226 -1.07373,-0.72216 -1.37549,-1.1997 -0.30176,-0.47753 -0.45264,-1.0122 -0.45264,-1.60401 0,-0.65038 0.18457,-1.25829 0.55371,-1.82373 0.36914,-0.56542 0.9082,-0.99462 1.61719,-1.2876 0.70898,-0.29295 1.49707,-0.43944 2.36426,-0.43945 0.95507,10e-6 1.79735,0.15382 2.52685,0.46143 0.72949,0.30763 1.29052,0.76026 1.68311,1.35791 0.39257,0.59766 0.6035,1.27442 0.63281,2.03027 l -1.63476,0.12305 c -0.0879,-0.81445 -0.38527,-1.42968 -0.89209,-1.84571 -0.50685,-0.416 -1.25538,-0.62401 -2.24561,-0.62402 -1.03125,10e-6 -1.78272,0.18898 -2.25439,0.56689 -0.47169,0.37795 -0.70753,0.83351 -0.70752,1.3667 -1e-5,0.4629 0.16699,0.84376 0.50097,1.14258 0.32813,0.29884 1.18506,0.60499 2.5708,0.91846 1.38574,0.31348 2.33642,0.58741 2.85206,0.82178 0.74999,0.34571 1.3037,0.78369 1.66113,1.31396 0.35741,0.53028 0.53612,1.14112 0.53613,1.83252 -10e-6,0.68555 -0.1963,1.33155 -0.58887,1.93799 -0.39258,0.60645 -0.95655,1.07812 -1.69189,1.41504 -0.73536,0.33691 -1.563,0.50537 -2.48291,0.50537 -1.16602,0 -2.14307,-0.16992 -2.93115,-0.50977 -0.78809,-0.33984 -1.40625,-0.85107 -1.8545,-1.53369 -0.44824,-0.68261 -0.68408,-1.45458 -0.70751,-2.31592 z"
         style="font-size:18px"
         id="path3053" />
      <path
         d="m 497.29306,810.43542 1.70508,0.43067 c -0.35744,1.40039 -1.0005,2.46826 -1.9292,3.20361 -0.92872,0.73535 -2.06397,1.10303 -3.40576,1.10303 -1.38868,0 -2.51807,-0.28272 -3.38819,-0.84815 -0.87012,-0.56542 -1.53222,-1.38427 -1.98632,-2.45654 -0.45411,-1.07226 -0.68116,-2.22363 -0.68116,-3.4541 0,-1.34179 0.25635,-2.5122 0.76905,-3.51123 0.51269,-0.99901 1.24218,-1.7578 2.18847,-2.27637 0.94629,-0.51854 1.98779,-0.77782 3.12451,-0.77783 1.28906,10e-6 2.37304,0.32814 3.25196,0.98438 0.87889,0.65626 1.4912,1.57911 1.83691,2.76855 l -1.67871,0.39551 c -0.29884,-0.93749 -0.73243,-1.62011 -1.30078,-2.04785 -0.56837,-0.42773 -1.28321,-0.64159 -2.14453,-0.6416 -0.99024,10e-6 -1.81788,0.23731 -2.48291,0.71191 -0.66504,0.47462 -1.13233,1.11183 -1.40186,1.91162 -0.26953,0.79981 -0.4043,1.62452 -0.40429,2.47412 -10e-6,1.09571 0.15966,2.05225 0.479,2.86963 0.31933,0.81739 0.81591,1.42823 1.48975,1.83252 0.67382,0.4043 1.40331,0.60645 2.18847,0.60645 0.95507,0 1.76367,-0.27539 2.42578,-0.82618 0.6621,-0.55078 1.11034,-1.36816 1.34473,-2.45215 z"
         style="font-size:18px"
         id="path3055" />
      <path
         d="m 500.58896,808.67761 c 0,-2.13866 0.57422,-3.81298 1.72265,-5.02295 1.14844,-1.20995 2.63086,-1.81493 4.44727,-1.81494 1.18945,10e-6 2.26171,0.28419 3.2168,0.85254 0.95506,0.56837 1.68309,1.36085 2.18408,2.37744 0.50096,1.01661 0.75145,2.16944 0.75146,3.4585 -10e-6,1.30664 -0.26368,2.47559 -0.79101,3.50683 -0.52736,1.03126 -1.27443,1.81202 -2.24121,2.34229 -0.96681,0.53027 -2.00978,0.79541 -3.12891,0.79541 -1.21289,0 -2.29688,-0.29297 -3.25195,-0.87891 -0.95508,-0.58593 -1.67871,-1.38574 -2.1709,-2.39941 -0.49219,-1.01367 -0.73828,-2.08593 -0.73828,-3.2168 z m 1.75781,0.0264 c 0,1.55274 0.41748,2.77588 1.25244,3.66943 0.83496,0.89356 1.88232,1.34034 3.14209,1.34034 1.2832,0 2.33935,-0.45118 3.16846,-1.35352 0.82909,-0.90234 1.24364,-2.18261 1.24365,-3.84082 -1e-5,-1.04882 -0.17726,-1.96435 -0.53174,-2.74658 -0.3545,-0.78222 -0.87305,-1.38866 -1.55566,-1.81934 -0.68263,-0.43065 -1.44874,-0.64598 -2.29834,-0.64599 -1.20704,10e-6 -2.24561,0.41456 -3.11572,1.24365 -0.87012,0.82911 -1.30518,2.21338 -1.30518,4.15283 z"
         style="font-size:18px"
         id="path3057" />
      <path
         d="m 527.76474,813.4325 0,1.5205 -8.5166,0 c -0.0117,-0.38086 0.0498,-0.74707 0.18457,-1.09863 0.21679,-0.58008 0.56396,-1.15136 1.0415,-1.71387 0.47754,-0.56249 1.16748,-1.21288 2.06983,-1.95117 1.40038,-1.14843 2.34667,-2.0581 2.83886,-2.729 0.49218,-0.67089 0.73828,-1.30517 0.73829,-1.90283 -10e-6,-0.62695 -0.22413,-1.15576 -0.67237,-1.58643 -0.44825,-0.43065 -1.03272,-0.64599 -1.75342,-0.646 -0.76172,10e-6 -1.37109,0.22853 -1.82812,0.68555 -0.45703,0.45704 -0.68848,1.08985 -0.69434,1.89844 l -1.62597,-0.16699 c 0.11132,-1.21288 0.53027,-2.1372 1.25683,-2.77295 0.72656,-0.63573 1.70215,-0.9536 2.92676,-0.95362 1.23632,2e-5 2.21484,0.34279 2.93555,1.02832 0.72069,0.68556 1.08104,1.53517 1.08105,2.54883 -10e-6,0.51564 -0.10548,1.02247 -0.3164,1.52051 -0.21095,0.49805 -0.56105,1.02247 -1.0503,1.57324 -0.48926,0.55079 -1.30225,1.30665 -2.43896,2.26758 -0.94923,0.79688 -1.5586,1.3374 -1.82813,1.62158 -0.26953,0.28418 -0.49219,0.56983 -0.66797,0.85694 z"
         style="font-size:18px"
         id="path3059" />
    </g>
    <path
       style="fill:none;stroke:#464546;stroke-width:2;stroke-linecap:butt;stroke-linejoin:miter;stroke-miterlimit:4;stroke-opacity:1;stroke-dasharray:none"
       d="m 526.8049,831.27924 0,49.06013"
       id="path11912-1-1-3-6-5"
       inkscape:connector-curvature="0" />
    <path
       style="fill:none;stroke:#464546;stroke-width:2;stroke-linecap:butt;stroke-linejoin:miter;stroke-miterlimit:4;stroke-opacity:1;stroke-dasharray:none"
       d="m 353.86718,931.40169 0,99.39951"
       id="path11912-1-1-3-2"
       inkscape:connector-curvature="0" />
    <g
       style="font-size:22px;font-style:normal;font-variant:normal;font-weight:normal;font-stretch:normal;line-height:125%;letter-spacing:0px;word-spacing:0px;fill:#000000;fill-opacity:1;stroke:none;font-family:Open Sans;-inkscape-font-specification:Open Sans"
       id="text11914-9">
      <path
         d="m 295.02197,1012.9647 0,-12.8847 2.56641,0 3.0498,9.123 c 0.28125,0.8496 0.48632,1.4854 0.61524,1.9072 0.14647,-0.4687 0.37499,-1.1572 0.68554,-2.0654 l 3.08497,-8.9648 2.29394,0 0,12.8847 -1.64355,0 0,-10.7842 -3.74414,10.7842 -1.53809,0 -3.72656,-10.9687 0,10.9687 z"
         style="font-size:18px"
         id="path3246" />
      <path
         d="m 310.08643,1012.9647 0,-12.8847 4.86035,0 c 0.85546,0 1.50878,0.041 1.95996,0.123 0.6328,0.1055 1.16307,0.3062 1.59082,0.6021 0.42772,0.2959 0.77196,0.7104 1.03271,1.2436 0.26073,0.5332 0.39111,1.1192 0.39112,1.7578 -10e-6,1.0957 -0.34865,2.023 -1.0459,2.7818 -0.69728,0.7588 -1.95704,1.1381 -3.7793,1.1381 l -3.30469,0 0,5.2383 z m 1.70507,-6.7588 3.33106,0 c 1.10155,0 1.88378,-0.205 2.34668,-0.6152 0.46288,-0.4102 0.69432,-0.9873 0.69433,-1.7314 -10e-6,-0.5391 -0.13624,-1.0005 -0.40869,-1.3843 -0.27247,-0.3838 -0.63135,-0.6372 -1.07666,-0.7603 -0.28711,-0.076 -0.81739,-0.1142 -1.59082,-0.1142 l -3.2959,0 z"
         style="font-size:18px"
         id="path3248" />
    </g>
    <g
       style="font-size:22px;font-style:normal;font-variant:normal;font-weight:normal;font-stretch:normal;line-height:125%;letter-spacing:0px;word-spacing:0px;fill:#000000;fill-opacity:1;stroke:none;font-family:Open Sans;-inkscape-font-specification:Open Sans"
       id="text11914-5">
      <path
         d="m 398.77197,1012.7147 0,-12.88474 2.56641,0 3.0498,9.12304 c 0.28125,0.8496 0.48632,1.4854 0.61524,1.9072 0.14647,-0.4687 0.37499,-1.1572 0.68554,-2.0654 l 3.08497,-8.96484 2.29394,0 0,12.88474 -1.64355,0 0,-10.7842 -3.74414,10.7842 -1.53809,0 -3.72656,-10.9687 0,10.9687 z"
         style="font-size:18px"
         id="path3241" />
      <path
         d="m 413.83643,1012.7147 0,-12.88474 4.86035,0 c 0.85546,10e-6 1.50878,0.041 1.95996,0.12304 0.6328,0.1055 1.16307,0.3062 1.59082,0.6021 0.42772,0.2959 0.77196,0.7104 1.03271,1.2436 0.26073,0.5332 0.39111,1.1192 0.39112,1.7578 -10e-6,1.0957 -0.34865,2.023 -1.0459,2.7818 -0.69728,0.7588 -1.95704,1.1381 -3.7793,1.1381 l -3.30469,0 0,5.2383 z m 1.70507,-6.7588 3.33106,0 c 1.10155,0 1.88378,-0.205 2.34668,-0.6152 0.46288,-0.4102 0.69432,-0.9873 0.69433,-1.7314 -10e-6,-0.5391 -0.13624,-1.0005 -0.40869,-1.3843 -0.27247,-0.3838 -0.63135,-0.6372 -1.07666,-0.7603 -0.28711,-0.076 -0.81739,-0.1142 -1.59082,-0.1142 l -3.2959,0 z"
         style="font-size:18px"
         id="path3243" />
    </g>
    <g
       style="font-size:22px;font-style:normal;font-variant:normal;font-weight:normal;font-stretch:normal;line-height:125%;letter-spacing:0px;word-spacing:0px;fill:#000000;fill-opacity:1;stroke:none;font-family:Open Sans;-inkscape-font-specification:Open Sans"
       id="text11914-0">
      <path
         d="m 482.27197,1012.7147 0,-12.88474 2.56641,0 3.0498,9.12304 c 0.28125,0.8496 0.48632,1.4854 0.61524,1.9072 0.14647,-0.4687 0.37499,-1.1572 0.68554,-2.0654 l 3.08497,-8.96484 2.29394,0 0,12.88474 -1.64355,0 0,-10.7842 -3.74414,10.7842 -1.53809,0 -3.72656,-10.9687 0,10.9687 z"
         style="font-size:18px"
         id="path3236" />
      <path
         d="m 497.33643,1012.7147 0,-12.88474 4.86035,0 c 0.85546,10e-6 1.50878,0.041 1.95996,0.12304 0.6328,0.1055 1.16307,0.3062 1.59082,0.6021 0.42772,0.2959 0.77196,0.7104 1.03271,1.2436 0.26073,0.5332 0.39111,1.1192 0.39112,1.7578 -10e-6,1.0957 -0.34865,2.023 -1.0459,2.7818 -0.69728,0.7588 -1.95704,1.1381 -3.7793,1.1381 l -3.30469,0 0,5.2383 z m 1.70507,-6.7588 3.33106,0 c 1.10155,0 1.88378,-0.205 2.34668,-0.6152 0.46288,-0.4102 0.69432,-0.9873 0.69433,-1.7314 -10e-6,-0.5391 -0.13624,-1.0005 -0.40869,-1.3843 -0.27247,-0.3838 -0.63135,-0.6372 -1.07666,-0.7603 -0.28711,-0.076 -0.81739,-0.1142 -1.59082,-0.1142 l -3.2959,0 z"
         style="font-size:18px"
         id="path3238" />
    </g>
    <g
       style="font-size:22px;font-style:normal;font-variant:normal;font-weight:normal;font-stretch:normal;line-height:125%;letter-spacing:0px;word-spacing:0px;fill:#000000;fill-opacity:1;stroke:none;font-family:Open Sans;-inkscape-font-specification:Open Sans"
       id="text11914-97">
      <path
         d="m 549.52197,1013.2147 0,-12.8847 2.56641,0 3.0498,9.123 c 0.28125,0.8496 0.48632,1.4854 0.61524,1.9072 0.14647,-0.4687 0.37499,-1.1572 0.68554,-2.0654 l 3.08497,-8.9648 2.29394,0 0,12.8847 -1.64355,0 0,-10.7842 -3.74414,10.7842 -1.53809,0 -3.72656,-10.9687 0,10.9687 z"
         style="font-size:18px"
         id="path3231" />
      <path
         d="m 564.58643,1013.2147 0,-12.8847 4.86035,0 c 0.85546,0 1.50878,0.041 1.95996,0.123 0.6328,0.1055 1.16307,0.3062 1.59082,0.6021 0.42772,0.2959 0.77196,0.7104 1.03271,1.2436 0.26073,0.5332 0.39111,1.1192 0.39112,1.7578 -10e-6,1.0957 -0.34865,2.023 -1.0459,2.7818 -0.69728,0.7588 -1.95704,1.1381 -3.7793,1.1381 l -3.30469,0 0,5.2383 z m 1.70507,-6.7588 3.33106,0 c 1.10155,0 1.88378,-0.205 2.34668,-0.6152 0.46288,-0.4102 0.69432,-0.9873 0.69433,-1.7314 -1e-5,-0.5391 -0.13624,-1.0005 -0.40869,-1.3843 -0.27247,-0.3838 -0.63135,-0.6372 -1.07666,-0.7603 -0.28711,-0.076 -0.81739,-0.1142 -1.59082,-0.1142 l -3.2959,0 z"
         style="font-size:18px"
         id="path3233" />
    </g>
    <g
       style="font-size:22px;font-style:normal;font-variant:normal;font-weight:normal;font-stretch:normal;line-height:125%;letter-spacing:0px;word-spacing:0px;fill:#000000;fill-opacity:1;stroke:none;font-family:Open Sans;-inkscape-font-specification:Open Sans"
       id="text11876-17">
      <path
         d="m 254.34052,862.328 0,-12.88476 4.86035,0 c 0.85546,1e-5 1.50878,0.041 1.95996,0.12304 0.6328,0.10549 1.16307,0.30617 1.59082,0.60205 0.42772,0.29592 0.77196,0.71047 1.03271,1.24366 0.26073,0.53321 0.3911,1.11915 0.39112,1.75781 -2e-5,1.09571 -0.34865,2.02296 -1.0459,2.78174 -0.69728,0.75879 -1.95704,1.13819 -3.7793,1.13818 l -3.30469,0 0,5.23828 z m 1.70507,-6.75879 3.33106,0 c 1.10155,10e-6 1.88378,-0.20507 2.34668,-0.61523 0.46288,-0.41015 0.69432,-0.9873 0.69433,-1.73145 -1e-5,-0.53905 -0.13624,-1.00047 -0.40869,-1.38427 -0.27247,-0.38378 -0.63135,-0.6372 -1.07666,-0.76026 -0.28712,-0.0762 -0.81739,-0.11424 -1.59082,-0.11425 l -3.2959,0 z"
         style="font-size:18px"
         id="path3130" />
      <path
         d="m 264.94891,862.328 4.94825,-12.88476 1.83691,0 5.27344,12.88476 -1.94239,0 -1.50293,-3.90234 -5.38769,0 -1.41504,3.90234 z m 3.71778,-5.29101 4.36816,0 -1.34473,-3.56836 c -0.41016,-1.08398 -0.71485,-1.9746 -0.91406,-2.67188 -0.16407,0.82619 -0.39551,1.6465 -0.69433,2.46094 z"
         style="font-size:18px"
         id="path3132" />
      <path
         d="m 278.41376,862.328 0,-12.88476 5.71289,0 c 1.14843,1e-5 2.02147,0.11573 2.61914,0.34717 0.59764,0.23145 1.07518,0.64014 1.43262,1.22607 0.35741,0.58595 0.53612,1.23341 0.53613,1.94238 -10e-6,0.91407 -0.29591,1.68458 -0.8877,2.31153 -0.5918,0.62696 -1.50587,1.02539 -2.74218,1.19531 0.45116,0.2168 0.79393,0.43067 1.02832,0.6416 0.49803,0.45704 0.96971,1.02832 1.41504,1.71387 l 2.24121,3.50683 -2.14454,0 -1.70507,-2.68066 c -0.49806,-0.77344 -0.90821,-1.36523 -1.23047,-1.77539 -0.32228,-0.41015 -0.61085,-0.69726 -0.86572,-0.86133 -0.25489,-0.16406 -0.51417,-0.27831 -0.77784,-0.34277 -0.19336,-0.041 -0.50977,-0.0615 -0.94922,-0.0615 l -1.97753,0 0,5.72168 z m 1.70508,-7.19824 3.66503,0 c 0.77929,10e-6 1.38867,-0.0806 1.82813,-0.2417 0.43944,-0.16112 0.77343,-0.41894 1.00195,-0.77344 0.22851,-0.35448 0.34277,-0.73973 0.34278,-1.15576 -10e-6,-0.60936 -0.22121,-1.11034 -0.66358,-1.50293 -0.44239,-0.39256 -1.14112,-0.58885 -2.09619,-0.58886 l -4.07812,0 z"
         style="font-size:18px"
         id="path3134" />
      <path
         d="m 294.67352,862.328 0,-11.36425 -4.24511,0 0,-1.52051 10.21289,0 0,1.52051 -4.2627,0 0,11.36425 z"
         style="font-size:18px"
         id="path3136" />
      <path
         d="m 302.43427,862.328 0,-12.88476 9.3164,0 0,1.52051 -7.61133,0 0,3.94628 7.12793,0 0,1.51172 -7.12793,0 0,4.38575 7.91016,0 0,1.5205 z"
         style="font-size:18px"
         id="path3138" />
    </g>
    <g
       style="font-size:22px;font-style:normal;font-variant:normal;font-weight:normal;font-stretch:normal;line-height:125%;letter-spacing:0px;word-spacing:0px;fill:#000000;fill-opacity:1;stroke:none;font-family:Open Sans;-inkscape-font-specification:Open Sans"
       id="text11876-63">
      <path
         d="m 324.63336,863.24695 0,-12.88477 4.86035,0 c 0.85547,2e-5 1.50878,0.041 1.95996,0.12305 0.63281,0.10548 1.16308,0.30616 1.59082,0.60205 0.42773,0.29591 0.77197,0.71046 1.03272,1.24365 0.26073,0.53322 0.3911,1.11915 0.39111,1.75782 -1e-5,1.09571 -0.34864,2.02295 -1.0459,2.78173 -0.69727,0.7588 -1.95704,1.13819 -3.77929,1.13819 l -3.30469,0 0,5.23828 z m 1.70508,-6.75879 3.33105,0 c 1.10156,10e-6 1.88379,-0.20507 2.34668,-0.61524 0.46289,-0.41014 0.69433,-0.98729 0.69434,-1.73144 -10e-6,-0.53905 -0.13624,-1.00048 -0.40869,-1.38428 -0.27247,-0.38378 -0.63136,-0.63719 -1.07666,-0.76025 -0.28712,-0.0762 -0.81739,-0.11425 -1.59082,-0.11426 l -3.2959,0 z"
         style="font-size:18px"
         id="path3119" />
      <path
         d="m 335.24176,863.24695 4.94824,-12.88477 1.83692,0 5.27343,12.88477 -1.94238,0 -1.50293,-3.90235 -5.38769,0 -1.41504,3.90235 z m 3.71777,-5.29102 4.36817,0 -1.34473,-3.56836 c -0.41016,-1.08397 -0.71485,-1.9746 -0.91406,-2.67187 -0.16407,0.82618 -0.39551,1.64649 -0.69434,2.46094 z"
         style="font-size:18px"
         id="path3121" />
      <path
         d="m 348.7066,863.24695 0,-12.88477 5.71289,0 c 1.14843,2e-5 2.02148,0.11574 2.61915,0.34717 0.59764,0.23146 1.07518,0.64015 1.43261,1.22607 0.35741,0.58595 0.53612,1.23341 0.53614,1.94239 -2e-5,0.91407 -0.29591,1.68458 -0.8877,2.31152 -0.59181,0.62696 -1.50587,1.0254 -2.74219,1.19531 0.45117,0.21681 0.79394,0.43067 1.02832,0.64161 0.49804,0.45703 0.96972,1.02832 1.41504,1.71386 l 2.24121,3.50684 -2.14453,0 -1.70508,-2.68067 c -0.49805,-0.77343 -0.90821,-1.36523 -1.23047,-1.77539 -0.32227,-0.41015 -0.61084,-0.69726 -0.86572,-0.86132 -0.25489,-0.16406 -0.51416,-0.27832 -0.77783,-0.34278 -0.19337,-0.041 -0.50977,-0.0615 -0.94922,-0.0615 l -1.97754,0 0,5.72168 z m 1.70508,-7.19824 3.66504,0 c 0.77929,0 1.38866,-0.0806 1.82813,-0.2417 0.43944,-0.16113 0.77342,-0.41894 1.00195,-0.77344 0.22851,-0.35448 0.34276,-0.73974 0.34277,-1.15576 -1e-5,-0.60937 -0.2212,-1.11034 -0.66357,-1.50293 -0.44239,-0.39257 -1.14112,-0.58886 -2.09619,-0.58887 l -4.07813,0 z"
         style="font-size:18px"
         id="path3123" />
      <path
         d="m 364.96637,863.24695 0,-11.36426 -4.24512,0 0,-1.52051 10.21289,0 0,1.52051 -4.26269,0 0,11.36426 z"
         style="font-size:18px"
         id="path3125" />
      <path
         d="m 372.72711,863.24695 0,-12.88477 9.31641,0 0,1.52051 -7.61133,0 0,3.94629 7.12793,0 0,1.51172 -7.12793,0 0,4.38574 7.91016,0 0,1.52051 z"
         style="font-size:18px"
         id="path3127" />
    </g>
    <g
       style="font-size:22px;font-style:normal;font-variant:normal;font-weight:normal;font-stretch:normal;line-height:125%;letter-spacing:0px;word-spacing:0px;fill:#000000;fill-opacity:1;stroke:none;font-family:Open Sans;-inkscape-font-specification:Open Sans"
       id="text11876-4">
      <path
         d="m 395.0173,862.9491 0,-12.88477 4.86036,0 c 0.85546,10e-6 1.50878,0.041 1.95996,0.12305 0.6328,0.10548 1.16307,0.30616 1.59082,0.60205 0.42772,0.29591 0.77196,0.71046 1.03271,1.24365 0.26073,0.53321 0.3911,1.11915 0.39111,1.75781 -10e-6,1.09571 -0.34864,2.02296 -1.04589,2.78174 -0.69728,0.7588 -1.95704,1.13819 -3.7793,1.13819 l -3.30469,0 0,5.23828 z m 1.70508,-6.75879 3.33106,0 c 1.10155,0 1.88378,-0.20507 2.34668,-0.61524 0.46288,-0.41015 0.69432,-0.98729 0.69433,-1.73144 -10e-6,-0.53905 -0.13624,-1.00048 -0.40869,-1.38428 -0.27247,-0.38378 -0.63136,-0.6372 -1.07666,-0.76025 -0.28712,-0.0762 -0.81739,-0.11425 -1.59082,-0.11426 l -3.2959,0 z"
         style="font-size:18px"
         id="path3108" />
      <path
         d="m 405.6257,862.9491 4.94824,-12.88477 1.83692,0 5.27344,12.88477 -1.94239,0 -1.50293,-3.90235 -5.38769,0 -1.41504,3.90235 z m 3.71778,-5.29102 4.36816,0 -1.34473,-3.56836 c -0.41016,-1.08397 -0.71485,-1.9746 -0.91406,-2.67187 -0.16407,0.82618 -0.39551,1.64649 -0.69434,2.46093 z"
         style="font-size:18px"
         id="path3110" />
      <path
         d="m 419.09055,862.9491 0,-12.88477 5.71289,0 c 1.14843,10e-6 2.02147,0.11574 2.61914,0.34717 0.59764,0.23146 1.07518,0.64015 1.43261,1.22607 0.35741,0.58595 0.53613,1.23341 0.53614,1.94239 -10e-6,0.91407 -0.29591,1.68457 -0.8877,2.31152 -0.59181,0.62696 -1.50587,1.0254 -2.74219,1.19531 0.45117,0.2168 0.79394,0.43067 1.02832,0.6416 0.49804,0.45704 0.96972,1.02833 1.41504,1.71387 l 2.24121,3.50684 -2.14453,0 -1.70507,-2.68067 c -0.49806,-0.77343 -0.90822,-1.36523 -1.23047,-1.77539 -0.32228,-0.41015 -0.61085,-0.69726 -0.86573,-0.86133 -0.25489,-0.16405 -0.51416,-0.27831 -0.77783,-0.34277 -0.19336,-0.041 -0.50977,-0.0615 -0.94922,-0.0615 l -1.97754,0 0,5.72168 z m 1.70507,-7.19825 3.66504,0 c 0.77929,10e-6 1.38867,-0.0806 1.82813,-0.24169 0.43944,-0.16113 0.77343,-0.41894 1.00195,-0.77344 0.22851,-0.35449 0.34276,-0.73974 0.34277,-1.15576 -10e-6,-0.60937 -0.2212,-1.11035 -0.66357,-1.50293 -0.44239,-0.39257 -1.14112,-0.58886 -2.09619,-0.58887 l -4.07813,0 z"
         style="font-size:18px"
         id="path3112" />
      <path
         d="m 435.35031,862.9491 0,-11.36426 -4.24512,0 0,-1.52051 10.21289,0 0,1.52051 -4.26269,0 0,11.36426 z"
         style="font-size:18px"
         id="path3114" />
      <path
         d="m 443.11105,862.9491 0,-12.88477 9.31641,0 0,1.52051 -7.61133,0 0,3.94629 7.12793,0 0,1.51172 -7.12793,0 0,4.38574 7.91016,0 0,1.52051 z"
         style="font-size:18px"
         id="path3116" />
    </g>
    <g
       style="font-size:22px;font-style:normal;font-variant:normal;font-weight:normal;font-stretch:normal;line-height:125%;letter-spacing:0px;word-spacing:0px;fill:#000000;fill-opacity:1;stroke:none;font-family:Open Sans;-inkscape-font-specification:Open Sans"
       id="text11876-636">
      <path
         d="m 465.47278,862.92371 0,-12.88477 4.86035,0 c 0.85546,10e-6 1.50878,0.041 1.95996,0.12305 0.6328,0.10548 1.16308,0.30616 1.59082,0.60205 0.42773,0.29591 0.77196,0.71046 1.03272,1.24365 0.26073,0.53321 0.3911,1.11915 0.39111,1.75781 -1e-5,1.09571 -0.34864,2.02296 -1.0459,2.78174 -0.69727,0.7588 -1.95704,1.13819 -3.7793,1.13818 l -3.30468,0 0,5.23829 z m 1.70508,-6.75879 3.33105,0 c 1.10156,0 1.88378,-0.20507 2.34668,-0.61524 0.46288,-0.41015 0.69433,-0.98729 0.69434,-1.73144 -1e-5,-0.53906 -0.13624,-1.00048 -0.40869,-1.38428 -0.27247,-0.38378 -0.63136,-0.6372 -1.07666,-0.76025 -0.28712,-0.0762 -0.81739,-0.11425 -1.59083,-0.11426 l -3.29589,0 z"
         style="font-size:18px"
         id="path3097" />
      <path
         d="m 476.08118,862.92371 4.94824,-12.88477 1.83691,0 5.27344,12.88477 -1.94238,0 -1.50293,-3.90235 -5.3877,0 -1.41504,3.90235 z m 3.71777,-5.29102 4.36816,0 -1.34472,-3.56836 c -0.41016,-1.08397 -0.71485,-1.9746 -0.91406,-2.67187 -0.16407,0.82618 -0.39552,1.64649 -0.69434,2.46093 z"
         style="font-size:18px"
         id="path3099" />
      <path
         d="m 489.54602,862.92371 0,-12.88477 5.71289,0 c 1.14843,10e-6 2.02148,0.11574 2.61914,0.34717 0.59765,0.23146 1.07519,0.64015 1.43262,1.22607 0.35741,0.58595 0.53612,1.23341 0.53613,1.94239 -10e-6,0.91407 -0.29591,1.68457 -0.88769,2.31152 -0.59181,0.62696 -1.50587,1.0254 -2.74219,1.19531 0.45116,0.2168 0.79394,0.43067 1.02832,0.6416 0.49804,0.45704 0.96972,1.02833 1.41504,1.71387 l 2.24121,3.50684 -2.14453,0 -1.70508,-2.68067 c -0.49806,-0.77343 -0.90821,-1.36523 -1.23047,-1.77539 -0.32227,-0.41015 -0.61085,-0.69726 -0.86572,-0.86133 -0.25489,-0.16405 -0.51417,-0.27831 -0.77783,-0.34277 -0.19337,-0.041 -0.50977,-0.0615 -0.94922,-0.0615 l -1.97754,0 0,5.72168 z m 1.70508,-7.19825 3.66504,0 c 0.77929,10e-6 1.38866,-0.0806 1.82812,-0.2417 0.43945,-0.16112 0.77343,-0.41893 1.00196,-0.77343 0.2285,-0.35449 0.34276,-0.73974 0.34277,-1.15576 -1e-5,-0.60937 -0.2212,-1.11035 -0.66357,-1.50293 -0.4424,-0.39257 -1.14113,-0.58886 -2.0962,-0.58887 l -4.07812,0 z"
         style="font-size:18px"
         id="path3101" />
      <path
         d="m 505.80579,862.92371 0,-11.36426 -4.24512,0 0,-1.52051 10.21289,0 0,1.52051 -4.2627,0 0,11.36426 z"
         style="font-size:18px"
         id="path3103" />
      <path
         d="m 513.56653,862.92371 0,-12.88477 9.3164,0 0,1.52051 -7.61132,0 0,3.94629 7.12793,0 0,1.51172 -7.12793,0 0,4.38574 7.91015,0 0,1.52051 z"
         style="font-size:18px"
         id="path3105" />
    </g>
    <g
       style="font-size:22px;font-style:normal;font-variant:normal;font-weight:normal;font-stretch:normal;line-height:125%;letter-spacing:0px;word-spacing:0px;fill:#000000;fill-opacity:1;stroke:none;font-family:Open Sans;-inkscape-font-specification:Open Sans"
       id="text11876-49">
      <path
         d="m 531.5835,862.86316 0,-12.88477 4.86035,0 c 0.85546,2e-5 1.50878,0.041 1.95996,0.12305 0.6328,0.10548 1.16308,0.30617 1.59082,0.60205 0.42772,0.29591 0.77196,0.71046 1.03271,1.24365 0.26073,0.53322 0.39111,1.11915 0.39112,1.75782 -10e-6,1.09571 -0.34865,2.02295 -1.0459,2.78173 -0.69728,0.7588 -1.95704,1.13819 -3.7793,1.13819 l -3.30469,0 0,5.23828 z m 1.70507,-6.75879 3.33106,0 c 1.10155,10e-6 1.88378,-0.20507 2.34668,-0.61523 0.46288,-0.41015 0.69433,-0.9873 0.69433,-1.73145 0,-0.53905 -0.13624,-1.00048 -0.40869,-1.38428 -0.27247,-0.38378 -0.63135,-0.63719 -1.07666,-0.76025 -0.28711,-0.0762 -0.81739,-0.11425 -1.59082,-0.11426 l -3.2959,0 z"
         style="font-size:18px"
         id="path3086" />
      <path
         d="m 542.19189,862.86316 4.94825,-12.88477 1.83691,0 5.27344,12.88477 -1.94238,0 -1.50293,-3.90234 -5.3877,0 -1.41504,3.90234 z m 3.71778,-5.29102 4.36816,0 -1.34472,-3.56836 c -0.41017,-1.08397 -0.71485,-1.97459 -0.91407,-2.67187 -0.16407,0.82618 -0.39551,1.64649 -0.69433,2.46094 z"
         style="font-size:18px"
         id="path3088" />
      <path
         d="m 555.65674,862.86316 0,-12.88477 5.71289,0 c 1.14843,2e-5 2.02147,0.11574 2.61914,0.34717 0.59765,0.23146 1.07518,0.64015 1.43262,1.22608 0.35741,0.58594 0.53612,1.2334 0.53613,1.94238 -1e-5,0.91407 -0.29591,1.68458 -0.8877,2.31152 -0.5918,0.62696 -1.50586,1.0254 -2.74218,1.19531 0.45116,0.21681 0.79393,0.43067 1.02832,0.64161 0.49803,0.45703 0.96971,1.02832 1.41504,1.71386 l 2.24121,3.50684 -2.14453,0 -1.70508,-2.68066 c -0.49806,-0.77344 -0.90821,-1.36524 -1.23047,-1.7754 -0.32227,-0.41015 -0.61085,-0.69726 -0.86572,-0.86132 -0.25489,-0.16406 -0.51417,-0.27832 -0.77784,-0.34278 -0.19336,-0.041 -0.50977,-0.0615 -0.94921,-0.0615 l -1.97754,0 0,5.72168 z m 1.70508,-7.19824 3.66504,0 c 0.77928,0 1.38866,-0.0806 1.82812,-0.2417 0.43944,-0.16113 0.77343,-0.41894 1.00195,-0.77344 0.22851,-0.35448 0.34277,-0.73974 0.34278,-1.15576 -10e-6,-0.60937 -0.2212,-1.11034 -0.66358,-1.50293 -0.44239,-0.39257 -1.14112,-0.58886 -2.09619,-0.58887 l -4.07812,0 z"
         style="font-size:18px"
         id="path3090" />
      <path
         d="m 571.9165,862.86316 0,-11.36426 -4.24511,0 0,-1.52051 10.21289,0 0,1.52051 -4.2627,0 0,11.36426 z"
         style="font-size:18px"
         id="path3092" />
      <path
         d="m 579.67725,862.86316 0,-12.88477 9.3164,0 0,1.52051 -7.61133,0 0,3.94629 7.12793,0 0,1.51172 -7.12793,0 0,4.38574 7.91016,0 0,1.52051 z"
         style="font-size:18px"
         id="path3094" />
    </g>
    <g
       style="font-size:22px;font-style:normal;font-variant:normal;font-weight:normal;font-stretch:normal;line-height:125%;letter-spacing:0px;word-spacing:0px;fill:#000000;fill-opacity:1;stroke:none;font-family:Open Sans;-inkscape-font-specification:Open Sans"
       id="text12471">
      <path
         d="m 340.68585,907.71765 0,-1.51172 5.45801,-0.009 0,4.78125 c -0.8379,0.66797 -1.70216,1.17041 -2.59277,1.50733 -0.89064,0.33691 -1.8047,0.50537 -2.74219,0.50537 -1.26563,0 -2.41553,-0.271 -3.44971,-0.81299 -1.03418,-0.54199 -1.81494,-1.32568 -2.34228,-2.35107 -0.52735,-1.02539 -0.79102,-2.1709 -0.79102,-3.43653 0,-1.2539 0.26221,-2.4243 0.78662,-3.51123 0.52441,-1.0869 1.27881,-1.89403 2.26319,-2.42138 0.98437,-0.52734 2.11815,-0.79101 3.40136,-0.79102 0.93164,10e-6 1.77392,0.15089 2.52686,0.45264 0.75292,0.30177 1.34325,0.72218 1.77099,1.26123 0.42773,0.53907 0.75292,1.24219 0.97559,2.10937 l -1.53809,0.42188 c -0.19337,-0.65624 -0.4336,-1.17187 -0.7207,-1.54688 -0.28712,-0.37499 -0.69727,-0.67528 -1.23047,-0.90088 -0.53321,-0.22557 -1.12501,-0.33836 -1.77539,-0.33838 -0.7793,2e-5 -1.45313,0.11867 -2.02148,0.35596 -0.56837,0.23732 -1.02686,0.54933 -1.37549,0.93604 -0.34864,0.38673 -0.61963,0.81153 -0.81299,1.27441 -0.32813,0.79688 -0.49219,1.66114 -0.49219,2.59277 0,1.14845 0.19775,2.10938 0.59327,2.88282 0.3955,0.77344 0.97118,1.34766 1.72705,1.72265 0.75585,0.375 1.55858,0.5625 2.4082,0.5625 0.73827,0 1.45897,-0.14209 2.16211,-0.42627 0.70311,-0.28417 1.23632,-0.5874 1.59961,-0.90966 l 0,-2.39942 z"
         style="font-size:18px;-inkscape-font-specification:Sans"
         id="path3181" />
      <path
         d="m 352.33136,912.77136 -4.99219,-12.88476 1.84571,0 3.34863,9.36035 c 0.26952,0.75 0.49511,1.45313 0.67676,2.10937 0.19921,-0.70312 0.43065,-1.40624 0.69433,-2.10937 l 3.48047,-9.36035 1.74024,0 -5.04493,12.88476 z"
         style="font-size:18px;-inkscape-font-specification:Sans"
         id="path3183" />
      <path
         d="m 370.98175,912.77136 -1.58203,0 0,-10.08105 c -0.38086,0.36329 -0.88038,0.72657 -1.49854,1.08984 -0.61816,0.36329 -1.17334,0.63575 -1.66552,0.81738 l 0,-1.52929 c 0.88476,-0.41601 1.6582,-0.91991 2.32031,-1.51172 0.6621,-0.59179 1.13085,-1.166 1.40625,-1.72266 l 1.01953,0 z"
         style="font-size:18px;-inkscape-font-specification:Sans"
         id="path3185" />
    </g>
    <g
       style="font-size:22px;font-style:normal;font-variant:normal;font-weight:normal;font-stretch:normal;line-height:125%;letter-spacing:0px;word-spacing:0px;fill:#000000;fill-opacity:1;stroke:none;font-family:Open Sans;-inkscape-font-specification:Open Sans"
       id="text12475">
      <path
         d="m 510.86264,907.99011 0,-1.51172 5.45801,-0.009 0,4.78125 c -0.8379,0.66797 -1.70216,1.17042 -2.59278,1.50733 -0.89063,0.33691 -1.80469,0.50537 -2.74218,0.50537 -1.26563,0 -2.41554,-0.271 -3.44971,-0.81299 -1.03418,-0.54199 -1.81494,-1.32568 -2.34228,-2.35107 -0.52735,-1.02539 -0.79102,-2.1709 -0.79102,-3.43653 0,-1.25389 0.26221,-2.4243 0.78662,-3.51123 0.52441,-1.0869 1.27881,-1.89403 2.26318,-2.42138 0.98437,-0.52733 2.11816,-0.79101 3.40137,-0.79102 0.93163,10e-6 1.77392,0.15089 2.52686,0.45264 0.75292,0.30177 1.34325,0.72218 1.77099,1.26123 0.42773,0.53907 0.75292,1.2422 0.97559,2.10937 l -1.53809,0.42188 c -0.19337,-0.65624 -0.4336,-1.17187 -0.7207,-1.54688 -0.28712,-0.37499 -0.69728,-0.67528 -1.23047,-0.90088 -0.53321,-0.22557 -1.12501,-0.33836 -1.77539,-0.33837 -0.7793,10e-6 -1.45313,0.11866 -2.02148,0.35595 -0.56837,0.23732 -1.02686,0.54933 -1.37549,0.93604 -0.34864,0.38673 -0.61963,0.81153 -0.81299,1.27441 -0.32813,0.79688 -0.49219,1.66114 -0.49219,2.59278 0,1.14844 0.19775,2.10937 0.59326,2.88281 0.39551,0.77344 0.97119,1.34766 1.72705,1.72265 0.75586,0.37501 1.55859,0.56251 2.40821,0.5625 0.73827,10e-6 1.45897,-0.14208 2.16211,-0.42627 0.70311,-0.28417 1.23631,-0.5874 1.59961,-0.90966 l 0,-2.39942 z"
         style="font-size:18px"
         id="path3174" />
      <path
         d="m 522.50815,913.04382 -4.99219,-12.88476 1.8457,0 3.34864,9.36035 c 0.26952,0.75 0.49511,1.45313 0.67675,2.10937 0.19922,-0.70312 0.43066,-1.40624 0.69434,-2.10937 l 3.48047,-9.36035 1.74023,0 -5.04492,12.88476 z"
         style="font-size:18px"
         id="path3176" />
      <path
         d="m 543.51401,911.52332 0,1.5205 -8.5166,0 c -0.0117,-0.38086 0.0498,-0.74707 0.18457,-1.09863 0.21679,-0.58008 0.56396,-1.15136 1.0415,-1.71387 0.47754,-0.56249 1.16748,-1.21288 2.06982,-1.95117 1.40039,-1.14843 2.34668,-2.0581 2.83887,-2.729 0.49218,-0.67089 0.73828,-1.30517 0.73828,-1.90283 0,-0.62695 -0.22413,-1.15576 -0.67236,-1.58643 -0.44825,-0.43065 -1.03272,-0.64598 -1.75342,-0.646 -0.76172,2e-5 -1.3711,0.22853 -1.82812,0.68555 -0.45704,0.45704 -0.68848,1.08985 -0.69434,1.89844 l -1.62598,-0.16699 c 0.11133,-1.21288 0.53028,-2.1372 1.25684,-2.77295 0.72656,-0.63573 1.70214,-0.9536 2.92676,-0.95362 1.23632,2e-5 2.21483,0.34279 2.93554,1.02832 0.7207,0.68556 1.08105,1.53517 1.08106,2.54883 -1e-5,0.51564 -0.10548,1.02247 -0.31641,1.52051 -0.21094,0.49805 -0.56104,1.02247 -1.05029,1.57324 -0.48926,0.55079 -1.30225,1.30665 -2.43896,2.26758 -0.94923,0.79688 -1.5586,1.3374 -1.82813,1.62158 -0.26953,0.28418 -0.49219,0.56983 -0.66797,0.85694 z"
         style="font-size:18px"
         id="path3178" />
    </g>
    <g
       style="font-size:22px;font-style:normal;font-variant:normal;font-weight:normal;font-stretch:normal;line-height:125%;letter-spacing:0px;word-spacing:0px;fill:#000000;fill-opacity:1;stroke:none;font-family:Open Sans;-inkscape-font-specification:Open Sans"
       id="text12479">
      <path
         d="m 291.56589,963.0741 -4.99219,-12.88477 1.8457,0 3.34864,9.36035 c 0.26952,0.75001 0.49511,1.45313 0.67675,2.10938 0.19922,-0.70313 0.43066,-1.40625 0.69434,-2.10938 l 3.48047,-9.36035 1.74023,0 -5.04492,12.88477 z"
         style="font-size:18px"
         id="path3209" />
      <path
         d="m 299.8364,963.0741 0,-12.88477 1.70507,0 0,11.36426 6.34571,0 0,1.52051 z"
         style="font-size:18px"
         id="path3211" />
      <path
         d="m 320.23581,963.0741 -1.58203,0 0,-10.08106 c -0.38087,0.36329 -0.88038,0.72657 -1.49854,1.08985 -0.61816,0.36329 -1.17334,0.63575 -1.66552,0.81738 l 0,-1.5293 c 0.88476,-0.416 1.6582,-0.91991 2.32031,-1.51172 0.6621,-0.59178 1.13085,-1.166 1.40625,-1.72265 l 1.01953,0 z"
         style="font-size:18px"
         id="path3213" />
    </g>
    <g
       style="font-size:22px;font-style:normal;font-variant:normal;font-weight:normal;font-stretch:normal;line-height:125%;letter-spacing:0px;word-spacing:0px;fill:#000000;fill-opacity:1;stroke:none;font-family:Open Sans;-inkscape-font-specification:Open Sans"
       id="text12483">
      <path
         d="m 395.52136,963.12488 -4.99219,-12.88477 1.84571,0 3.34863,9.36035 c 0.26953,0.75001 0.49511,1.45313 0.67676,2.10938 0.19921,-0.70312 0.43066,-1.40625 0.69433,-2.10938 l 3.48047,-9.36035 1.74024,0 -5.04492,12.88477 z"
         style="font-size:18px"
         id="path3202" />
      <path
         d="m 403.79187,963.12488 0,-12.88477 1.70508,0 0,11.36426 6.3457,0 0,1.52051 z"
         style="font-size:18px"
         id="path3204" />
      <path
         d="m 426.54675,961.60437 0,1.52051 -8.5166,0 c -0.0117,-0.38086 0.0498,-0.74707 0.18457,-1.09863 0.2168,-0.58008 0.56397,-1.15137 1.04151,-1.71387 0.47753,-0.5625 1.16747,-1.21289 2.06982,-1.95117 1.40039,-1.14844 2.34667,-2.0581 2.83887,-2.72901 0.49218,-0.67089 0.73827,-1.30516 0.73828,-1.90283 -1e-5,-0.62694 -0.22413,-1.15575 -0.67237,-1.58643 -0.44824,-0.43065 -1.03272,-0.64598 -1.75341,-0.64599 -0.76173,10e-6 -1.3711,0.22853 -1.82813,0.68555 -0.45703,0.45704 -0.68848,1.08985 -0.69433,1.89843 l -1.62598,-0.16699 c 0.11133,-1.21288 0.53027,-2.1372 1.25684,-2.77295 0.72656,-0.63573 1.70214,-0.9536 2.92675,-0.95361 1.23633,1e-5 2.21484,0.34278 2.93555,1.02832 0.72069,0.68556 1.08105,1.53516 1.08105,2.54883 0,0.51563 -0.10547,1.02247 -0.3164,1.5205 -0.21095,0.49806 -0.56104,1.02247 -1.05029,1.57325 -0.48927,0.55078 -1.30226,1.30664 -2.43897,2.26757 -0.94922,0.79688 -1.5586,1.33741 -1.82812,1.62159 -0.26954,0.28418 -0.49219,0.56982 -0.66797,0.85693 z"
         style="font-size:18px"
         id="path3206" />
    </g>
    <g
       style="font-size:22px;font-style:normal;font-variant:normal;font-weight:normal;font-stretch:normal;line-height:125%;letter-spacing:0px;word-spacing:0px;fill:#000000;fill-opacity:1;stroke:none;font-family:Open Sans;-inkscape-font-specification:Open Sans"
       id="text12487">
      <path
         d="m 481.44983,963.00867 -4.99219,-12.88477 1.8457,0 3.34864,9.36035 c 0.26952,0.75001 0.49511,1.45313 0.67676,2.10938 0.19921,-0.70312 0.43065,-1.40625 0.69433,-2.10938 l 3.48047,-9.36035 1.74023,0 -5.04492,12.88477 z"
         style="font-size:18px"
         id="path3195" />
      <path
         d="m 489.72034,963.00867 0,-12.88477 1.70508,0 0,11.36426 6.3457,0 0,1.52051 z"
         style="font-size:18px"
         id="path3197" />
      <path
         d="m 504.16956,959.6073 1.58203,-0.21094 c 0.18164,0.89649 0.49072,1.54248 0.92724,1.93799 0.43652,0.39551 0.96826,0.59326 1.59522,0.59326 0.74413,0 1.37255,-0.25781 1.88525,-0.77344 0.51269,-0.51562 0.76904,-1.15429 0.76904,-1.91601 0,-0.72656 -0.23731,-1.32568 -0.71191,-1.79736 -0.47462,-0.47168 -1.07813,-0.70752 -1.81055,-0.70752 -0.29883,0 -0.6709,0.0586 -1.11621,0.17578 l 0.17578,-1.38867 c 0.10547,0.0117 0.19043,0.0176 0.25489,0.0176 0.67382,10e-6 1.28026,-0.17577 1.81933,-0.52734 0.53906,-0.35155 0.80859,-0.89355 0.8086,-1.62598 -1e-5,-0.58006 -0.1963,-1.06053 -0.58887,-1.4414 -0.39258,-0.38085 -0.89942,-0.57128 -1.52051,-0.57129 -0.61524,10e-6 -1.12793,0.19337 -1.53808,0.58008 -0.41016,0.38673 -0.67384,0.9668 -0.79102,1.74023 l -1.58203,-0.28125 c 0.19336,-1.06054 0.63281,-1.88231 1.31836,-2.46533 0.68554,-0.583 1.53808,-0.8745 2.55762,-0.87451 0.70311,10e-6 1.35058,0.15089 1.94238,0.45263 0.59179,0.30177 1.04442,0.71339 1.35791,1.23487 0.31347,0.52149 0.4702,1.0752 0.47021,1.66113 -1e-5,0.55665 -0.14942,1.06348 -0.44824,1.52051 -0.29883,0.45704 -0.74122,0.82032 -1.32715,1.08984 0.76171,0.17579 1.35351,0.54054 1.77539,1.09424 0.42187,0.55372 0.63281,1.24659 0.63282,2.07861 -1e-5,1.12501 -0.41017,2.07862 -1.23047,2.86084 -0.82032,0.78223 -1.85743,1.17334 -3.11133,1.17334 -1.13086,0 -2.06983,-0.33691 -2.8169,-1.01074 -0.74707,-0.67383 -1.17334,-1.54687 -1.2788,-2.61914 z"
         style="font-size:18px"
         id="path3199" />
    </g>
    <g
       style="font-size:22px;font-style:normal;font-variant:normal;font-weight:normal;font-stretch:normal;line-height:125%;letter-spacing:0px;word-spacing:0px;fill:#000000;fill-opacity:1;stroke:none;font-family:Open Sans;-inkscape-font-specification:Open Sans"
       id="text12491">
      <path
         d="m 546.71777,962.86218 -4.99218,-12.88476 1.8457,0 3.34863,9.36035 c 0.26953,0.75 0.49511,1.45313 0.67676,2.10937 0.19921,-0.70312 0.43066,-1.40624 0.69434,-2.10937 l 3.48046,-9.36035 1.74024,0 -5.04492,12.88476 z"
         style="font-size:18px"
         id="path3188" />
      <path
         d="m 554.98828,962.86218 0,-12.88476 1.70508,0 0,11.36425 6.3457,0 0,1.52051 z"
         style="font-size:18px"
         id="path3190" />
      <path
         d="m 574.5,962.86218 0,-3.08496 -5.58984,0 0,-1.45019 5.87988,-8.34961 1.29199,0 0,8.34961 1.74024,0 0,1.45019 -1.74024,0 0,3.08496 z m 0,-4.53515 0,-5.80957 -4.03418,5.80957 z"
         style="font-size:18px"
         id="path3192" />
    </g>
  </g>
</svg>
