<?xml version="1.0" encoding="UTF-8" standalone="no"?>
<!-- Created with Inkscape (http://www.inkscape.org/) -->

<svg
   xmlns:dc="http://purl.org/dc/elements/1.1/"
   xmlns:cc="http://creativecommons.org/ns#"
   xmlns:rdf="http://www.w3.org/1999/02/22-rdf-syntax-ns#"
   xmlns:svg="http://www.w3.org/2000/svg"
   xmlns="http://www.w3.org/2000/svg"
   xmlns:sodipodi="http://sodipodi.sourceforge.net/DTD/sodipodi-0.dtd"
   xmlns:inkscape="http://www.inkscape.org/namespaces/inkscape"
   version="1.2"
   width="700"
   height="550"
   id="svg2"
   inkscape:version="0.48.1 "
   sodipodi:docname="net_basic_osi.svg"
   inkscape:export-filename="/tmp/net_basic.png"
   inkscape:export-xdpi="90"
   inkscape:export-ydpi="90">
  <sodipodi:namedview
     pagecolor="#ffffff"
     bordercolor="#666666"
     borderopacity="1"
     objecttolerance="10"
     gridtolerance="10"
     guidetolerance="10"
     inkscape:pageopacity="1"
     inkscape:pageshadow="2"
     inkscape:window-width="1920"
     inkscape:window-height="1033"
     id="namedview138"
     showgrid="false"
     fit-margin-top="10"
     fit-margin-left="10"
     fit-margin-right="10"
     fit-margin-bottom="10"
     inkscape:zoom="1.3000663"
     inkscape:cx="391.51439"
     inkscape:cy="271.31963"
     inkscape:window-x="-4"
     inkscape:window-y="-4"
     inkscape:window-maximized="1"
     inkscape:current-layer="g3222"
     inkscape:snap-grids="true"
     showguides="true"
     inkscape:snap-global="true"
     inkscape:snap-to-guides="true"
     inkscape:snap-bbox="true">
    <inkscape:grid
       type="xygrid"
       id="grid4111"
       empspacing="5"
       visible="true"
       enabled="true"
       snapvisiblegridlinesonly="true" />
  </sodipodi:namedview>
  <defs
     id="defs4" />
  <metadata
     id="metadata7">
    <rdf:RDF>
      <cc:Work
         rdf:about="">
        <dc:format>image/svg+xml</dc:format>
        <dc:type
           rdf:resource="http://purl.org/dc/dcmitype/StillImage" />
        <dc:title />
      </cc:Work>
    </rdf:RDF>
  </metadata>
  <g
     id="g3222"
     transform="translate(16,-57)">
    <rect
       width="679.81348"
       height="165.17542"
       rx="10"
       x="-5.8134484"
       y="166.82458"
       id="rect6978-9-64-0-1-4-0-6-1"
       style="color:#000000;fill:#dcdcdc;fill-opacity:1;fill-rule:nonzero;stroke:none;stroke-width:1;marker:none;visibility:visible;display:inline;overflow:visible;enable-background:accumulate"
       ry="10" />
    <rect
       width="320"
       height="145"
       rx="5"
       ry="5"
       x="4"
       y="177"
       id="rect6978-9-9-5-0-1-7"
       style="color:#000000;fill:#7ac142;fill-opacity:1;fill-rule:nonzero;stroke:none;stroke-width:1;marker:none;visibility:visible;display:inline;overflow:visible;enable-background:accumulate" />
    <rect
       width="320"
       height="45"
       rx="5"
       ry="5"
       x="344"
       y="177"
       id="rect6978-9-9-5-0-1-7-7"
       style="color:#000000;fill:#7ac042;fill-opacity:1;fill-rule:nonzero;stroke:none;stroke-width:1;marker:none;visibility:visible;display:inline;overflow:visible;enable-background:accumulate" />
    <rect
       width="320"
       height="45"
       rx="5"
       ry="5"
       x="344"
       y="227"
       id="rect6978-9-9-5-0-1-7-7-9"
       style="color:#000000;fill:#7ac042;fill-opacity:1;fill-rule:nonzero;stroke:none;stroke-width:1;marker:none;visibility:visible;display:inline;overflow:visible;enable-background:accumulate" />
    <rect
       width="320"
       height="45"
       rx="5"
       ry="5"
       x="344"
       y="277"
       id="rect6978-9-9-5-0-1-7-7-9-6"
       style="color:#000000;fill:#7ac142;fill-opacity:1;fill-rule:nonzero;stroke:none;stroke-width:1;marker:none;visibility:visible;display:inline;overflow:visible;enable-background:accumulate" />
    <rect
       width="680"
       height="65"
       rx="10.001314"
       x="-6"
       y="337"
       id="rect6978-9-64-0-1-4-0-6-1-9"
       style="color:#000000;fill:#dcdcdc;fill-opacity:1;fill-rule:nonzero;stroke:none;stroke-width:1;marker:none;visibility:visible;display:inline;overflow:visible;enable-background:accumulate"
       ry="10" />
    <rect
       width="320"
       height="45"
       rx="5"
       ry="5"
       x="4"
       y="347"
       id="rect6978-9-9-5-0-1-7-7-9-6-2"
       style="color:#000000;fill:#7ac042;fill-opacity:1;fill-rule:nonzero;stroke:none;stroke-width:1;marker:none;visibility:visible;display:inline;overflow:visible;enable-background:accumulate" />
    <rect
       width="320"
       height="45"
       rx="5"
       ry="5"
       x="344"
       y="347"
       id="rect6978-9-9-5-0-1-7-7-9-6-0"
       style="color:#000000;fill:#7ac042;fill-opacity:1;fill-rule:nonzero;stroke:none;stroke-width:1;marker:none;visibility:visible;display:inline;overflow:visible;enable-background:accumulate" />
    <rect
       width="680"
       height="65"
       rx="10.001314"
       x="-6"
       y="407"
       id="rect6978-9-64-0-1-4-0-6-1-9-4"
       style="color:#000000;fill:#dcdcdc;fill-opacity:1;fill-rule:nonzero;stroke:none;stroke-width:1;marker:none;visibility:visible;display:inline;overflow:visible;enable-background:accumulate"
       ry="10" />
    <rect
       width="320"
       height="45"
       rx="5"
       ry="5"
       x="4"
       y="417"
       id="rect6978-9-9-5-0-1-7-7-9-6-2-8"
       style="color:#000000;fill:#7ac042;fill-opacity:1;fill-rule:nonzero;stroke:none;stroke-width:1;marker:none;visibility:visible;display:inline;overflow:visible;enable-background:accumulate" />
    <rect
       width="320"
       height="45"
       rx="5"
       ry="5"
       x="344"
       y="417"
       id="rect6978-9-9-5-0-1-7-7-9-6-0-3"
       style="color:#000000;fill:#7ac042;fill-opacity:1;fill-rule:nonzero;stroke:none;stroke-width:1;marker:none;visibility:visible;display:inline;overflow:visible;enable-background:accumulate" />
    <rect
       width="680"
       height="115"
       rx="10.00515"
       x="-6"
       y="482"
       id="rect6978-9-64-0-1-4-0-6-1-3"
       style="color:#000000;fill:#dcdcdc;fill-opacity:1;fill-rule:nonzero;stroke:none;stroke-width:1;marker:none;visibility:visible;display:inline;overflow:visible;enable-background:accumulate"
       ry="10" />
    <rect
       width="320"
       height="95"
       rx="5"
       ry="5"
       x="4"
       y="492"
       id="rect6978-9-9-5-0-1-7-5"
       style="color:#000000;fill:#7ac042;fill-opacity:1;fill-rule:nonzero;stroke:none;stroke-width:1;marker:none;visibility:visible;display:inline;overflow:visible;enable-background:accumulate" />
    <rect
       width="320"
       height="45"
       rx="5"
       ry="5"
       x="344"
       y="492"
       id="rect6978-9-9-5-0-1-7-7-7"
       style="color:#000000;fill:#7ac042;fill-opacity:1;fill-rule:nonzero;stroke:none;stroke-width:1;marker:none;visibility:visible;display:inline;overflow:visible;enable-background:accumulate" />
    <rect
       width="320"
       height="45"
       rx="5"
       ry="5"
       x="344"
       y="542"
       id="rect6978-9-9-5-0-1-7-7-9-0"
       style="color:#000000;fill:#7ac042;fill-opacity:1;fill-rule:nonzero;stroke:none;stroke-width:1;marker:none;visibility:visible;display:inline;overflow:visible;enable-background:accumulate" />
    <text
       xml:space="preserve"
       style="font-size:40px;font-style:normal;font-variant:normal;font-weight:normal;font-stretch:normal;line-height:125%;letter-spacing:0px;word-spacing:0px;fill:#000000;fill-opacity:1;stroke:none;font-family:Open Sans;-inkscape-font-specification:Open Sans"
       x="-179.99081"
       y="87.715889"
       id="text4080"
       sodipodi:linespacing="125%"
       transform="translate(-16,57)"><tspan
         sodipodi:role="line"
         id="tspan4082"
         x="-179.99081"
         y="87.715889" /></text>
    <g
       style="font-size:22px;font-style:normal;font-weight:normal;line-height:125%;letter-spacing:0px;word-spacing:0px;fill:#000000;fill-opacity:1;stroke:none;font-family:Sans"
       id="text4084">
      <path
         d="m 90.907715,237.52679 14.437495,0 -0.0859,1.46094 c -2e-5,1.43231 -0.40106,2.77866 -1.20313,4.03906 -0.97397,1.60418 -2.17709,2.8073 -3.60937,3.60938 l -1.289065,-1.28906 c 2.520825,-1.3177 3.981755,-3.3802 4.382815,-6.1875 l -12.632815,0 z m 7.734375,3.78125 0,4.89844 c -9e-6,1.66147 -0.429696,3.20834 -1.289063,4.64063 -0.859381,1.54687 -2.205734,2.77864 -4.039062,3.69531 l -1.117188,-1.54688 c 3.151036,-1.54687 4.726556,-3.80989 4.726563,-6.78906 l 0,-4.89844 z"
         style="font-variant:normal;font-stretch:normal;font-family:MS UI Gothic;-inkscape-font-specification:MS UI Gothic"
         id="path3119" />
      <path
         d="m 120.2124,235.20648 c 0.68749,2e-5 1.28905,0.28648 1.80469,0.85938 0.34373,0.40106 0.54425,0.85939 0.60156,1.375 0.0573,0.8021 -0.17189,1.46095 -0.6875,1.97656 -0.45835,0.45835 -1.00262,0.68751 -1.63281,0.6875 l 0,0.42969 c -10e-6,3.26563 -0.91668,6.15886 -2.75,8.67968 -1.77605,2.52084 -4.23959,4.41146 -7.39063,5.67188 l -1.28906,-1.71875 c 2.97916,-0.97396 5.27083,-2.52083 6.875,-4.64063 1.71874,-2.23436 2.57812,-4.89842 2.57813,-7.99218 l -10.74219,0 0,-1.89063 10.3125,0 c -0.11459,-0.22915 -0.17189,-0.54425 -0.17188,-0.94531 -10e-6,-0.63019 0.22916,-1.20311 0.6875,-1.71875 0.57291,-0.45832 1.17447,-0.71613 1.80469,-0.77344 z m 0,3.69531 c 0.34374,2e-5 0.6302,-0.11456 0.85938,-0.34375 0.22915,-0.22915 0.34373,-0.51561 0.34375,-0.85937 -2e-5,-0.34373 -0.1146,-0.63019 -0.34375,-0.85938 -0.22918,-0.22915 -0.51564,-0.37237 -0.85938,-0.42968 -0.34376,1e-5 -0.63022,0.1146 -0.85937,0.34375 -0.28647,0.28647 -0.40106,0.63022 -0.34375,1.03125 0.0573,0.34376 0.17186,0.60157 0.34375,0.77343 0.22915,0.22919 0.51561,0.34377 0.85937,0.34375 z"
         style="font-variant:normal;font-stretch:normal;font-family:MS UI Gothic;-inkscape-font-specification:MS UI Gothic"
         id="path3121" />
      <path
         d="m 134.39209,236.40961 0,9.53906 c -1e-5,2.23438 -0.54428,4.03907 -1.63281,5.41406 -0.91668,1.48959 -2.60678,2.63542 -5.07032,3.4375 l -1.28906,-1.63281 c 2.23437,-0.63021 3.80989,-1.54687 4.72656,-2.75 1.03125,-1.43229 1.54687,-2.92187 1.54688,-4.46875 l 0,-9.53906 z m -7.99219,0.6875 0,9.88281 -1.71875,0 0,-9.88281 z"
         style="font-variant:normal;font-stretch:normal;font-family:MS UI Gothic;-inkscape-font-specification:MS UI Gothic"
         id="path3123" />
      <path
         d="m 152.26709,240.19086 0,1.63281 -4.21094,0 0,3.00781 c -1e-5,2.69272 -0.51563,4.81251 -1.54687,6.35938 -0.85939,1.43229 -2.40626,2.60677 -4.64063,3.52343 l -1.28906,-1.46093 c 2.17708,-0.74479 3.66666,-1.71875 4.46875,-2.92188 0.91666,-1.20312 1.34634,-3.03645 1.28906,-5.5 l 0,-3.00781 -5.15625,0 c -0.57292,2.29168 -1.54688,4.09636 -2.92187,5.41406 l -1.28907,-1.375 c 1.26042,-1.20311 2.09115,-2.66405 2.49219,-4.38281 0.34375,-1.2604 0.48698,-2.97915 0.42969,-5.15625 l 1.89062,0 c 0,1.43231 -0.0859,2.72137 -0.25781,3.86719 z"
         style="font-variant:normal;font-stretch:normal;font-family:MS UI Gothic;-inkscape-font-specification:MS UI Gothic"
         id="path3125" />
      <path
         d="m 169.45459,244.05804 0,1.89063 -14.95313,0 0,-1.89063 z"
         style="font-variant:normal;font-stretch:normal;font-family:MS UI Gothic;-inkscape-font-specification:MS UI Gothic"
         id="path3127" />
      <path
         d="m 176.50146,236.58148 c 1.77604,0.85939 3.26562,1.8047 4.46875,2.83594 l -1.375,1.63281 c -1.20313,-1.14582 -2.60677,-2.11978 -4.21093,-2.92187 z m 6.61719,11.60156 c 1.60416,-1.77603 2.6927,-4.18228 3.26563,-7.21875 l 1.80468,1.375 c -0.80209,3.38022 -2.23439,6.04428 -4.29687,7.99219 -2.06251,2.00521 -4.92709,3.38021 -8.59375,4.125 l -0.60156,-1.89062 c 3.72395,-0.80208 6.53124,-2.26302 8.42187,-4.38282 z m -8.67969,-6.61718 c 1.77604,0.85938 3.23698,1.80469 4.38282,2.83593 l -1.375,1.71875 c -1.31772,-1.20311 -2.69271,-2.20572 -4.125,-3.00781 z"
         style="font-variant:normal;font-stretch:normal;font-family:MS UI Gothic;-inkscape-font-specification:MS UI Gothic"
         id="path3129" />
      <path
         d="m 198.84521,241.65179 0,12.28907 -1.46093,0 0,-0.85938 -7.47657,0 0,-1.375 7.47657,0 0,-3.69531 -7.13282,0 0,-1.375 7.13282,0 0,-3.60938 -7.47657,0 0,-1.375 z"
         style="font-variant:normal;font-stretch:normal;font-family:MS UI Gothic;-inkscape-font-specification:MS UI Gothic"
         id="path3131" />
      <path
         d="m 202.88428,237.61273 c 1.94791,1.08856 3.55207,2.29168 4.8125,3.60938 l -1.46094,1.80468 c -0.97396,-1.2604 -2.49219,-2.57811 -4.55469,-3.95312 z m 7.5625,10.74219 c 1.71874,-1.77604 2.89321,-4.29687 3.52343,-7.5625 l 1.80469,0.94531 c -0.91668,3.66668 -2.34897,6.44532 -4.29687,8.33594 -2.00522,1.94792 -4.95574,3.32292 -8.85157,4.125 l -0.6875,-1.89063 c 3.72396,-0.68749 6.55989,-2.0052 8.50782,-3.95312 z"
         style="font-variant:normal;font-stretch:normal;font-family:MS UI Gothic;-inkscape-font-specification:MS UI Gothic"
         id="path3133" />
      <path
         d="m 226.60303,240.19086 1.03125,1.80468 3.4375,0 0.6875,-1.89062 -10.48438,0 0,7.82031 c 0,2.63542 -0.65886,5.04167 -1.97656,7.21875 l -1.46094,-1.28906 c 1.14583,-1.77604 1.71875,-3.92448 1.71875,-6.44531 l 0,-11.42969 16.32813,0 0,4.125 -3.52344,0 1.11719,0.51562 c 0.22915,0.22918 0.14321,0.37241 -0.25782,0.42969 l -0.51562,0.94531 3.60937,0 0,5.58594 -13.75,0 0,-5.58594 3.26563,0 -0.77344,-1.03125 z m 7.99218,6.35937 0,-1.28906 -4.29687,0 0,1.28906 z m -10.3125,0 4.29688,0 0,-1.28906 -4.29688,0 z m 1.71875,8.67969 -1.71875,0 0,-6.61719 10.57032,0 0,6.35938 -1.71875,0 0,-0.77344 -7.13282,0 z m 7.13282,-2.0625 0,-1.28906 -7.13282,0 0,1.28906 z m -11.85938,-14.4375 12.89063,0 0,-1.375 -12.89063,0 z m 3.00781,5.5 4.29688,0 0,-1.20313 -4.29688,0 z m 6.01563,0 4.29687,0 0,-1.20313 -4.29687,0 z m -4.29688,6.61719 7.13282,0 0,-1.20313 -7.13282,0 z"
         style="font-variant:normal;font-stretch:normal;font-family:MS UI Gothic;-inkscape-font-specification:MS UI Gothic"
         id="path3135" />
    </g>
    <g
       style="font-size:22px;font-style:normal;font-weight:normal;line-height:125%;letter-spacing:0px;word-spacing:0px;fill:#000000;fill-opacity:1;stroke:none;font-family:Sans"
       id="text4084-7">
      <path
         d="m 428.90771,191.60188 14.4375,0 -0.0859,1.46094 c -2e-5,1.4323 -0.40106,2.77866 -1.20313,4.03906 -0.97397,1.60418 -2.17709,2.8073 -3.60937,3.60938 l -1.28907,-1.28906 c 2.52083,-1.3177 3.98176,-3.3802 4.38282,-6.1875 l -12.63282,0 z m 7.73438,3.78125 0,4.89844 c -10e-6,1.66146 -0.4297,3.20834 -1.28906,4.64063 -0.85938,1.54687 -2.20574,2.77864 -4.03907,3.69531 l -1.11718,-1.54688 c 3.15103,-1.54687 4.72655,-3.80989 4.72656,-6.78906 l 0,-4.89844 z"
         style="font-variant:normal;font-stretch:normal;font-family:MS UI Gothic;-inkscape-font-specification:MS UI Gothic"
         id="path3226" />
      <path
         d="m 458.2124,189.28157 c 0.68749,2e-5 1.28905,0.28648 1.80469,0.85938 0.34373,0.40105 0.54425,0.85939 0.60156,1.375 0.0573,0.80209 -0.17189,1.46095 -0.6875,1.97656 -0.45835,0.45834 -1.00262,0.68751 -1.63281,0.6875 l 0,0.42969 c -10e-6,3.26563 -0.91668,6.15886 -2.75,8.67968 -1.77605,2.52084 -4.23959,4.41146 -7.39063,5.67188 l -1.28906,-1.71875 c 2.97916,-0.97396 5.27083,-2.52083 6.875,-4.64063 1.71874,-2.23437 2.57812,-4.89842 2.57813,-7.99218 l -10.74219,0 0,-1.89063 10.3125,0 c -0.11459,-0.22915 -0.17189,-0.54426 -0.17188,-0.94531 -1e-5,-0.63019 0.22916,-1.20311 0.6875,-1.71875 0.57291,-0.45832 1.17447,-0.71613 1.80469,-0.77344 z m 0,3.69531 c 0.34374,2e-5 0.6302,-0.11457 0.85938,-0.34375 0.22915,-0.22915 0.34373,-0.51561 0.34375,-0.85937 -2e-5,-0.34374 -0.1146,-0.63019 -0.34375,-0.85938 -0.22918,-0.22915 -0.51564,-0.37238 -0.85938,-0.42968 -0.34376,1e-5 -0.63022,0.1146 -0.85937,0.34375 -0.28647,0.28647 -0.40106,0.63022 -0.34375,1.03125 0.0573,0.34376 0.17186,0.60157 0.34375,0.77343 0.22915,0.22918 0.51561,0.34377 0.85937,0.34375 z"
         style="font-variant:normal;font-stretch:normal;font-family:MS UI Gothic;-inkscape-font-specification:MS UI Gothic"
         id="path3228" />
      <path
         d="m 472.39209,190.4847 0,9.53906 c -10e-6,2.23438 -0.54428,4.03906 -1.63281,5.41406 -0.91668,1.48958 -2.60678,2.63542 -5.07032,3.4375 l -1.28906,-1.63281 c 2.23437,-0.63021 3.80989,-1.54688 4.72656,-2.75 1.03125,-1.43229 1.54687,-2.92187 1.54688,-4.46875 l 0,-9.53906 z m -7.99219,0.6875 0,9.88281 -1.71875,0 0,-9.88281 z"
         style="font-variant:normal;font-stretch:normal;font-family:MS UI Gothic;-inkscape-font-specification:MS UI Gothic"
         id="path3230" />
      <path
         d="m 490.26709,194.26595 0,1.63281 -4.21094,0 0,3.00781 c -10e-6,2.69271 -0.51563,4.8125 -1.54687,6.35938 -0.85939,1.43229 -2.40626,2.60677 -4.64063,3.52343 l -1.28906,-1.46093 c 2.17708,-0.7448 3.66666,-1.71875 4.46875,-2.92188 0.91666,-1.20312 1.34634,-3.03645 1.28906,-5.5 l 0,-3.00781 -5.15625,0 c -0.57292,2.29167 -1.54688,4.09636 -2.92187,5.41406 l -1.28907,-1.375 c 1.26042,-1.20312 2.09115,-2.66405 2.49219,-4.38281 0.34375,-1.26041 0.48698,-2.97915 0.42969,-5.15625 l 1.89062,0 c 0,1.43231 -0.0859,2.72137 -0.25781,3.86719 z"
         style="font-variant:normal;font-stretch:normal;font-family:MS UI Gothic;-inkscape-font-specification:MS UI Gothic"
         id="path3232" />
      <path
         d="m 507.45459,198.13313 0,1.89063 -14.95313,0 0,-1.89063 z"
         style="font-variant:normal;font-stretch:normal;font-family:MS UI Gothic;-inkscape-font-specification:MS UI Gothic"
         id="path3234" />
      <path
         d="m 514.50146,190.65657 c 1.77604,0.85939 3.26562,1.8047 4.46875,2.83594 l -1.375,1.63281 c -1.20313,-1.14582 -2.60677,-2.11978 -4.21093,-2.92187 z m 6.61719,11.60156 c 1.60416,-1.77603 2.6927,-4.18228 3.26563,-7.21875 l 1.80468,1.375 c -0.80209,3.38022 -2.23439,6.04428 -4.29687,7.99219 -2.06251,2.00521 -4.92709,3.38021 -8.59375,4.125 l -0.60156,-1.89062 c 3.72395,-0.80209 6.53124,-2.26302 8.42187,-4.38282 z m -8.67969,-6.61718 c 1.77604,0.85938 3.23698,1.80469 4.38282,2.83593 l -1.375,1.71875 c -1.31772,-1.20311 -2.69271,-2.20572 -4.125,-3.00781 z"
         style="font-variant:normal;font-stretch:normal;font-family:MS UI Gothic;-inkscape-font-specification:MS UI Gothic"
         id="path3236" />
      <path
         d="m 536.84521,195.72688 0,12.28907 -1.46093,0 0,-0.85938 -7.47657,0 0,-1.375 7.47657,0 0,-3.69531 -7.13282,0 0,-1.375 7.13282,0 0,-3.60938 -7.47657,0 0,-1.375 z"
         style="font-variant:normal;font-stretch:normal;font-family:MS UI Gothic;-inkscape-font-specification:MS UI Gothic"
         id="path3238" />
      <path
         d="m 540.88428,191.68782 c 1.94791,1.08856 3.55207,2.29168 4.8125,3.60938 l -1.46094,1.80468 c -0.97396,-1.2604 -2.49219,-2.57811 -4.55469,-3.95312 z m 7.5625,10.74219 c 1.71874,-1.77604 2.89321,-4.29687 3.52343,-7.5625 l 1.80469,0.94531 c -0.91668,3.66667 -2.34897,6.44532 -4.29687,8.33594 -2.00522,1.94792 -4.95574,3.32291 -8.85157,4.125 l -0.6875,-1.89063 c 3.72396,-0.6875 6.55989,-2.0052 8.50782,-3.95312 z"
         style="font-variant:normal;font-stretch:normal;font-family:MS UI Gothic;-inkscape-font-specification:MS UI Gothic"
         id="path3240" />
      <path
         d="m 564.60303,194.26595 1.03125,1.80468 3.4375,0 0.6875,-1.89062 -10.48438,0 0,7.82031 c 0,2.63542 -0.65886,5.04167 -1.97656,7.21875 l -1.46094,-1.28906 c 1.14583,-1.77604 1.71875,-3.92448 1.71875,-6.44531 l 0,-11.42969 16.32813,0 0,4.125 -3.52344,0 1.11719,0.51562 c 0.22915,0.22918 0.14321,0.37241 -0.25782,0.42969 l -0.51562,0.94531 3.60937,0 0,5.58594 -13.75,0 0,-5.58594 3.26563,0 -0.77344,-1.03125 z m 7.99218,6.35937 0,-1.28906 -4.29687,0 0,1.28906 z m -10.3125,0 4.29688,0 0,-1.28906 -4.29688,0 z m 1.71875,8.67969 -1.71875,0 0,-6.61719 10.57032,0 0,6.35938 -1.71875,0 0,-0.77344 -7.13282,0 z m 7.13282,-2.0625 0,-1.28906 -7.13282,0 0,1.28906 z m -11.85938,-14.4375 12.89063,0 0,-1.375 -12.89063,0 z m 3.00781,5.5 4.29688,0 0,-1.20313 -4.29688,0 z m 6.01563,0 4.29687,0 0,-1.20313 -4.29687,0 z m -4.29688,6.61719 7.13282,0 0,-1.20313 -7.13282,0 z"
         style="font-variant:normal;font-stretch:normal;font-family:MS UI Gothic;-inkscape-font-specification:MS UI Gothic"
         id="path3242" />
    </g>
    <g
       style="font-size:22px;font-style:normal;font-weight:normal;line-height:125%;letter-spacing:0px;word-spacing:0px;fill:#000000;fill-opacity:1;stroke:none;font-family:Sans"
       id="text4084-4">
      <path
         d="m 432.51172,238.9989 c 0.68748,2e-5 1.28905,0.28648 1.80469,0.85938 0.34373,0.40105 0.54425,0.85939 0.60156,1.375 0.0573,0.80209 -0.17189,1.46095 -0.6875,1.97656 -0.45835,0.45835 -1.00262,0.68751 -1.63281,0.6875 l 0,0.42969 c -2e-5,3.26563 -0.91668,6.15886 -2.75,8.67968 -1.77605,2.52084 -4.23959,4.41146 -7.39063,5.67188 l -1.28906,-1.71875 c 2.97916,-0.97396 5.27082,-2.52083 6.875,-4.64063 1.71874,-2.23436 2.57811,-4.89842 2.57812,-7.99218 l -10.74218,0 0,-1.89063 10.3125,0 c -0.1146,-0.22915 -0.17189,-0.54425 -0.17188,-0.94531 -10e-6,-0.63019 0.22916,-1.20311 0.6875,-1.71875 0.57291,-0.45832 1.17447,-0.71613 1.80469,-0.77344 z m 0,3.69531 c 0.34373,2e-5 0.63019,-0.11457 0.85937,-0.34375 0.22916,-0.22915 0.34374,-0.51561 0.34375,-0.85937 -10e-6,-0.34374 -0.11459,-0.63019 -0.34375,-0.85938 -0.22918,-0.22915 -0.51564,-0.37238 -0.85937,-0.42968 -0.34376,1e-5 -0.63022,0.1146 -0.85938,0.34375 -0.28647,0.28647 -0.40105,0.63022 -0.34375,1.03125 0.0573,0.34376 0.17187,0.60157 0.34375,0.77343 0.22916,0.22918 0.51562,0.34377 0.85938,0.34375 z"
         style="font-variant:normal;font-stretch:normal;font-family:MS UI Gothic;-inkscape-font-specification:MS UI Gothic"
         id="path3205" />
      <path
         d="m 446.00391,252.40515 c 1.66144,-1.43228 2.92186,-3.20832 3.78125,-5.32812 l 1.375,1.71875 c -1.03127,2.17709 -2.52085,4.01042 -4.46875,5.5 -2.00522,1.60416 -4.38282,2.80729 -7.13282,3.60937 l -1.11718,-1.54687 0,-16.24219 1.97656,0 0,15.38281 c 2.06249,-0.6302 3.92447,-1.66145 5.58594,-3.09375 z"
         style="font-variant:normal;font-stretch:normal;font-family:MS UI Gothic;-inkscape-font-specification:MS UI Gothic"
         id="path3207" />
      <path
         d="m 469.46484,239.17078 0,3.35156 -1.46093,0 0,-3.35156 z m -2.32031,0 0,3.35156 -1.46094,0 0,-3.35156 z m 0.25781,4.29687 0.85938,1.89063 c -0.97398,2.75001 -2.37762,4.92709 -4.21094,6.53125 l -1.54687,-1.20313 c 2.06248,-1.60416 3.35154,-3.3802 3.86718,-5.32812 l -7.99218,1.54687 0,8.25 c -1e-5,0.6875 0.51561,1.00261 1.54687,0.94531 l 7.73438,0 -0.42969,1.89063 -6.96094,0 c -1.20313,0 -2.06251,-0.17188 -2.57812,-0.51563 -0.68751,-0.51562 -1.03126,-1.28906 -1.03125,-2.32031 l 0,-7.82031 -3.35157,0.60156 -0.34375,-1.71875 3.69532,-0.6875 0,-5.07031 1.71875,0 0,4.72656 z"
         style="font-variant:normal;font-stretch:normal;font-family:MS UI Gothic;-inkscape-font-specification:MS UI Gothic"
         id="path3209" />
      <path
         d="m 472.90234,241.40515 c 1.94792,1.08856 3.55208,2.29168 4.8125,3.60938 l -1.46093,1.80468 c -0.97397,-1.2604 -2.49219,-2.57811 -4.55469,-3.95312 z m 7.5625,10.74219 c 1.71874,-1.77604 2.89322,-4.29687 3.52344,-7.5625 l 1.80469,0.94531 c -0.91668,3.66668 -2.34897,6.44532 -4.29688,8.33594 -2.00521,1.94792 -4.95573,3.32292 -8.85156,4.125 l -0.6875,-1.89063 c 3.72395,-0.68749 6.55989,-2.0052 8.50781,-3.95312 z"
         style="font-variant:normal;font-stretch:normal;font-family:MS UI Gothic;-inkscape-font-specification:MS UI Gothic"
         id="path3211" />
      <path
         d="m 489.91797,240.88953 10.57031,0 0,1.63281 -10.57031,0 z m -2.0625,5.75781 14.86719,0 0,1.89062 -6.10157,0 0,2.83594 c -10e-6,3.4948 -1.57553,5.8724 -4.72656,7.13281 l -1.11719,-1.63281 c 1.54687,-0.51562 2.63541,-1.23177 3.26563,-2.14844 0.57291,-0.85937 0.85937,-1.97655 0.85937,-3.35156 l 0,-2.83594 -7.04687,0 z"
         style="font-variant:normal;font-stretch:normal;font-family:MS UI Gothic;-inkscape-font-specification:MS UI Gothic"
         id="path3213" />
      <path
         d="m 519.73828,247.85046 0,1.89063 -14.95312,0 0,-1.89063 z"
         style="font-variant:normal;font-stretch:normal;font-family:MS UI Gothic;-inkscape-font-specification:MS UI Gothic"
         id="path3215" />
      <path
         d="m 526.78516,240.3739 c 1.77603,0.85939 3.26561,1.8047 4.46875,2.83594 l -1.375,1.63281 c -1.20314,-1.14582 -2.60678,-2.11978 -4.21094,-2.92187 z m 6.61718,11.60156 c 1.60416,-1.77603 2.6927,-4.18228 3.26563,-7.21875 l 1.80469,1.375 c -0.8021,3.38022 -2.23439,6.04428 -4.29688,7.99219 -2.06251,2.00521 -4.92709,3.38021 -8.59375,4.125 l -0.60156,-1.89062 c 3.72395,-0.80209 6.53124,-2.26302 8.42187,-4.38282 z m -8.67968,-6.61718 c 1.77603,0.85938 3.23697,1.80469 4.38281,2.83593 l -1.375,1.71875 c -1.31771,-1.20311 -2.69271,-2.20572 -4.125,-3.00781 z"
         style="font-variant:normal;font-stretch:normal;font-family:MS UI Gothic;-inkscape-font-specification:MS UI Gothic"
         id="path3217" />
      <path
         d="m 549.12891,245.44421 0,12.28907 -1.46094,0 0,-0.85938 -7.47656,0 0,-1.375 7.47656,0 0,-3.69531 -7.13281,0 0,-1.375 7.13281,0 0,-3.60938 -7.47656,0 0,-1.375 z"
         style="font-variant:normal;font-stretch:normal;font-family:MS UI Gothic;-inkscape-font-specification:MS UI Gothic"
         id="path3219" />
      <path
         d="m 553.16797,241.40515 c 1.94791,1.08856 3.55208,2.29168 4.8125,3.60938 l -1.46094,1.80468 c -0.97396,-1.2604 -2.49219,-2.57811 -4.55469,-3.95312 z m 7.5625,10.74219 c 1.71874,-1.77604 2.89321,-4.29687 3.52344,-7.5625 l 1.80468,0.94531 c -0.91668,3.66668 -2.34897,6.44532 -4.29687,8.33594 -2.00522,1.94792 -4.95574,3.32292 -8.85156,4.125 l -0.6875,-1.89063 c 3.72395,-0.68749 6.55988,-2.0052 8.50781,-3.95312 z"
         style="font-variant:normal;font-stretch:normal;font-family:MS UI Gothic;-inkscape-font-specification:MS UI Gothic"
         id="path3221" />
      <path
         d="m 576.88672,243.98328 1.03125,1.80468 3.4375,0 0.6875,-1.89062 -10.48438,0 0,7.82031 c 0,2.63542 -0.65885,5.04167 -1.97656,7.21875 l -1.46094,-1.28906 c 1.14583,-1.77604 1.71875,-3.92448 1.71875,-6.44531 l 0,-11.42969 16.32813,0 0,4.125 -3.52344,0 1.11719,0.51562 c 0.22915,0.22918 0.14321,0.37241 -0.25781,0.42969 l -0.51563,0.94531 3.60938,0 0,5.58594 -13.75,0 0,-5.58594 3.26562,0 -0.77344,-1.03125 z m 7.99219,6.35937 0,-1.28906 -4.29688,0 0,1.28906 z m -10.3125,0 4.29687,0 0,-1.28906 -4.29687,0 z m 1.71875,8.67969 -1.71875,0 0,-6.61719 10.57031,0 0,6.35938 -1.71875,0 0,-0.77344 -7.13281,0 z m 7.13281,-2.0625 0,-1.28906 -7.13281,0 0,1.28906 z m -11.85938,-14.4375 12.89063,0 0,-1.375 -12.89063,0 z m 3.00782,5.5 4.29687,0 0,-1.20313 -4.29687,0 z m 6.01562,0 4.29688,0 0,-1.20313 -4.29688,0 z m -4.29687,6.61719 7.13281,0 0,-1.20313 -7.13281,0 z"
         style="font-variant:normal;font-stretch:normal;font-family:MS UI Gothic;-inkscape-font-specification:MS UI Gothic"
         id="path3223" />
    </g>
    <g
       style="font-size:22px;font-style:normal;font-weight:normal;line-height:125%;letter-spacing:0px;word-spacing:0px;fill:#000000;fill-opacity:1;stroke:none;font-family:Sans"
       id="text4084-6">
      <path
         d="m 465.38135,293.38174 0.85937,1.89063 c -0.97397,2.75001 -2.37762,4.92709 -4.21093,6.53125 l -1.54688,-1.20313 c 2.06249,-1.66145 3.35155,-3.43749 3.86719,-5.32812 l -7.99219,1.63281 0,8.16406 c -1e-5,0.68751 0.51562,1.00261 1.54688,0.94532 l 7.73437,0 -0.42969,1.89062 -6.96093,0 c -1.20314,0 -2.06251,-0.17187 -2.57813,-0.51562 -0.6875,-0.51563 -1.03125,-1.28906 -1.03125,-2.32032 l 0,-7.82031 -3.35156,0.6875 -0.34375,-1.80469 3.69531,-0.6875 0,-5.07031 1.71875,0 0,4.72656 z"
         style="font-variant:normal;font-stretch:normal;font-family:MS UI Gothic;-inkscape-font-specification:MS UI Gothic"
         id="path3192" />
      <path
         d="m 473.9751,294.15518 c 0.80207,1.26043 1.51822,2.66407 2.14844,4.21094 l -1.63282,0.77344 c -0.6875,-1.77604 -1.34636,-3.20833 -1.97656,-4.29688 z m 2.92187,8.42188 c 1.03124,-1.71875 1.51822,-4.23958 1.46094,-7.5625 l 1.63281,0.17187 c -0.0573,3.4948 -0.65886,6.2448 -1.80468,8.25 -1.14585,2.0625 -3.12241,3.72396 -5.92969,4.98438 l -1.11719,-1.46094 c 2.80729,-0.97396 4.72655,-2.43489 5.75781,-4.38281 z m -6.70312,-6.61719 c 0.51562,0.7448 1.20312,2.17709 2.0625,4.29687 l -1.63281,0.77344 c -0.68751,-1.77603 -1.34636,-3.23697 -1.97657,-4.38281 z"
         style="font-variant:normal;font-stretch:normal;font-family:MS UI Gothic;-inkscape-font-specification:MS UI Gothic"
         id="path3194" />
      <path
         d="m 485.92041,290.37393 c 1.77603,0.85939 3.26562,1.8047 4.46875,2.83594 l -1.375,1.63281 c -1.20313,-1.14582 -2.60678,-2.11978 -4.21094,-2.92187 z m 6.61719,11.60156 c 1.60415,-1.77603 2.69269,-4.18228 3.26562,-7.21875 l 1.80469,1.375 c -0.8021,3.38022 -2.23439,6.04428 -4.29687,7.99219 -2.06252,2.00521 -4.9271,3.38021 -8.59375,4.125 l -0.60157,-1.89062 c 3.72395,-0.80208 6.53124,-2.26302 8.42188,-4.38282 z m -8.67969,-6.61718 c 1.77604,0.85938 3.23697,1.80469 4.38281,2.83593 l -1.375,1.71875 c -1.31771,-1.20311 -2.69271,-2.20572 -4.125,-3.00781 z"
         style="font-variant:normal;font-stretch:normal;font-family:MS UI Gothic;-inkscape-font-specification:MS UI Gothic"
         id="path3196" />
      <path
         d="m 508.26416,295.44424 0,12.28907 -1.46094,0 0,-0.85938 -7.47656,0 0,-1.375 7.47656,0 0,-3.69531 -7.13281,0 0,-1.375 7.13281,0 0,-3.60938 -7.47656,0 0,-1.375 z"
         style="font-variant:normal;font-stretch:normal;font-family:MS UI Gothic;-inkscape-font-specification:MS UI Gothic"
         id="path3198" />
      <path
         d="m 512.30322,291.40518 c 1.94791,1.08856 3.55208,2.29168 4.8125,3.60938 l -1.46093,1.80468 c -0.97397,-1.2604 -2.4922,-2.57811 -4.55469,-3.95312 z m 7.5625,10.74219 c 1.71874,-1.77604 2.89322,-4.29687 3.52344,-7.5625 l 1.80469,0.94531 c -0.91668,3.66668 -2.34897,6.44532 -4.29688,8.33594 -2.00522,1.94792 -4.95573,3.32292 -8.85156,4.125 l -0.6875,-1.89063 c 3.72395,-0.68749 6.55989,-2.0052 8.50781,-3.95312 z"
         style="font-variant:normal;font-stretch:normal;font-family:MS UI Gothic;-inkscape-font-specification:MS UI Gothic"
         id="path3200" />
      <path
         d="m 536.02197,293.98331 1.03125,1.80468 3.4375,0 0.6875,-1.89062 -10.48437,0 0,7.82031 c -10e-6,2.63542 -0.65886,5.04167 -1.97656,7.21875 l -1.46094,-1.28906 c 1.14583,-1.77604 1.71874,-3.92448 1.71875,-6.44531 l 0,-11.42969 16.32812,0 0,4.125 -3.52343,0 1.11718,0.51562 c 0.22915,0.22918 0.14321,0.37241 -0.25781,0.42969 l -0.51562,0.94531 3.60937,0 0,5.58594 -13.75,0 0,-5.58594 3.26563,0 -0.77344,-1.03125 z m 7.99219,6.35937 0,-1.28906 -4.29687,0 0,1.28906 z m -10.3125,0 4.29688,0 0,-1.28906 -4.29688,0 z m 1.71875,8.67969 -1.71875,0 0,-6.61719 10.57031,0 0,6.35938 -1.71875,0 0,-0.77344 -7.13281,0 z m 7.13281,-2.0625 0,-1.28906 -7.13281,0 0,1.28906 z m -11.85937,-14.4375 12.89062,0 0,-1.375 -12.89062,0 z m 3.00781,5.5 4.29688,0 0,-1.20313 -4.29688,0 z m 6.01563,0 4.29687,0 0,-1.20313 -4.29687,0 z m -4.29688,6.61719 7.13281,0 0,-1.20313 -7.13281,0 z"
         style="font-variant:normal;font-stretch:normal;font-family:MS UI Gothic;-inkscape-font-specification:MS UI Gothic"
         id="path3202" />
    </g>
    <g
       style="font-size:22px;font-style:normal;font-weight:normal;line-height:125%;letter-spacing:0px;word-spacing:0px;fill:#000000;fill-opacity:1;stroke:none;font-family:Sans"
       id="text4084-5">
      <path
         d="m 437.58502,365.8421 c 3.03645,1.03126 5.58593,2.14845 7.64844,3.35156 l -1.11719,1.89063 c -0.63022,-0.45833 -1.60418,-1.0026 -2.92187,-1.63281 -1.31772,-0.6302 -2.52084,-1.14583 -3.60938,-1.54688 l 0,10.14063 -1.71875,0 0,-18.39063 1.71875,0 z"
         style="font-variant:normal;font-stretch:normal;font-family:MS UI Gothic;-inkscape-font-specification:MS UI Gothic"
         id="path3175" />
      <path
         d="m 448.84283,361.0296 9.79688,0 0,1.63281 -9.79688,0 z m -1.54687,4.8125 12.97656,0 0,1.63281 c -10e-6,2.29168 -0.63022,4.35418 -1.89062,6.1875 -1.4896,2.17709 -3.72397,3.72396 -6.70313,4.64063 l -1.11719,-1.80469 c 2.75,-0.63021 4.78385,-1.89062 6.10157,-3.78125 1.14582,-1.48958 1.69009,-3.23697 1.63281,-5.24219 l -11,0 z"
         style="font-variant:normal;font-stretch:normal;font-family:MS UI Gothic;-inkscape-font-specification:MS UI Gothic"
         id="path3177" />
      <path
         d="m 464.22565,361.11554 c 1.94791,1.08856 3.55207,2.29168 4.8125,3.60937 l -1.46094,1.80469 c -0.97396,-1.2604 -2.49219,-2.57811 -4.55469,-3.95312 z m 7.5625,10.74219 c 1.71873,-1.77604 2.89321,-4.29687 3.52343,-7.5625 l 1.80469,0.94531 c -0.91668,3.66667 -2.34897,6.44532 -4.29687,8.33594 -2.00522,1.94791 -4.95574,3.32291 -8.85157,4.125 l -0.6875,-1.89063 c 3.72396,-0.6875 6.55989,-2.0052 8.50782,-3.95312 z"
         style="font-variant:normal;font-stretch:normal;font-family:MS UI Gothic;-inkscape-font-specification:MS UI Gothic"
         id="path3179" />
      <path
         d="m 490.86627,363.0921 c -10e-6,2.40626 -0.65886,4.72657 -1.97656,6.96094 1.9479,1.83334 3.78123,3.83854 5.5,6.01562 l -1.375,1.63282 c -2.00522,-2.92188 -3.69532,-4.98437 -5.07031,-6.1875 -2.1198,3.03646 -4.78386,5.27083 -7.99219,6.70312 l -1.03125,-1.71875 c 2.92187,-1.20312 5.35676,-3.15104 7.30469,-5.84375 1.83332,-2.46353 2.74999,-4.86978 2.75,-7.21875 l -8.67969,0 0,-1.89062 10.57031,0 0,1.54687 z"
         style="font-variant:normal;font-stretch:normal;font-family:MS UI Gothic;-inkscape-font-specification:MS UI Gothic"
         id="path3181" />
      <path
         d="m 509.34283,358.45148 c 0.74478,-0.0573 1.37499,0.17189 1.89063,0.6875 0.45832,0.40106 0.68748,0.91668 0.6875,1.54687 0.0573,0.68752 -0.14325,1.28908 -0.60156,1.80469 -0.51564,0.57293 -1.11721,0.85939 -1.80469,0.85937 -0.68751,2e-5 -1.26043,-0.22915 -1.71875,-0.6875 -0.45835,-0.45831 -0.71616,-1.05988 -0.77344,-1.80468 0.0573,-0.63019 0.31509,-1.20311 0.77344,-1.71875 0.45832,-0.45832 0.97394,-0.68748 1.54687,-0.6875 z m -1.11718,9.10937 c 1.43227,1.89063 2.6354,4.35417 3.60937,7.39063 l -1.89062,0.94531 c -0.91668,-3.26562 -2.00522,-5.8151 -3.26563,-7.64844 z m -3.60938,-3.69531 6.61719,0 0,1.63281 -6.61719,0 0,12.63281 -1.71875,0 0,-12.63281 -6.61719,0 0,-1.63281 6.61719,0 0,-4.125 1.71875,0 z m -8.50781,11.25781 c 1.48958,-1.71874 2.29166,-4.0677 2.40625,-7.04687 l 1.89062,0.25781 c -0.11458,2.97917 -0.94531,5.61459 -2.49218,7.90625 l -1.80469,-1.11719 z m 13.32031,-13.0625 c 0.34374,2e-5 0.63019,-0.0859 0.85938,-0.25781 0.28644,-0.22915 0.42967,-0.51561 0.42968,-0.85938 -10e-6,-0.40102 -0.11459,-0.71612 -0.34375,-0.94531 -0.22918,-0.22915 -0.51564,-0.34373 -0.85937,-0.34375 -0.34376,2e-5 -0.63022,0.1146 -0.85938,0.34375 -0.28647,0.28648 -0.40105,0.60158 -0.34375,0.94531 0.0573,0.34377 0.17187,0.60158 0.34375,0.77344 0.17187,0.22918 0.42968,0.34377 0.77344,0.34375 z"
         style="font-variant:normal;font-stretch:normal;font-family:MS UI Gothic;-inkscape-font-specification:MS UI Gothic"
         id="path3183" />
      <path
         d="m 529.02252,367.56085 0,1.89063 -14.95312,0 0,-1.89063 z"
         style="font-variant:normal;font-stretch:normal;font-family:MS UI Gothic;-inkscape-font-specification:MS UI Gothic"
         id="path3185" />
      <path
         d="m 537.53033,365.8421 c 3.03645,1.03126 5.58593,2.14845 7.64844,3.35156 l -1.11719,1.89063 c -0.63022,-0.45833 -1.60417,-1.0026 -2.92187,-1.63281 -1.31772,-0.6302 -2.52084,-1.14583 -3.60938,-1.54688 l 0,10.14063 -1.71875,0 0,-18.39063 1.71875,0 z"
         style="font-variant:normal;font-stretch:normal;font-family:MS UI Gothic;-inkscape-font-specification:MS UI Gothic"
         id="path3187" />
      <path
         d="m 556.26471,363.69366 1.03125,1.80469 3.4375,0 0.6875,-1.89062 -10.48438,0 0,7.82031 c 0,2.63542 -0.65885,5.04167 -1.97656,7.21875 l -1.46094,-1.28906 c 1.14584,-1.77604 1.71875,-3.92448 1.71875,-6.44532 l 0,-11.42968 16.32813,0 0,4.125 -3.52344,0 1.11719,0.51562 c 0.22915,0.22918 0.14321,0.37241 -0.25781,0.42969 l -0.51563,0.94531 3.60938,0 0,5.58594 -13.75,0 0,-5.58594 3.26562,0 -0.77344,-1.03125 z m 7.99219,6.35938 0,-1.28906 -4.29688,0 0,1.28906 z m -10.3125,0 4.29687,0 0,-1.28906 -4.29687,0 z m 1.71875,8.67969 -1.71875,0 0,-6.61719 10.57031,0 0,6.35937 -1.71875,0 0,-0.77343 -7.13281,0 z m 7.13281,-2.0625 0,-1.28907 -7.13281,0 0,1.28907 z m -11.85938,-14.4375 12.89063,0 0,-1.375 -12.89063,0 z m 3.00782,5.5 4.29687,0 0,-1.20313 -4.29687,0 z m 6.01562,0 4.29688,0 0,-1.20313 -4.29688,0 z m -4.29687,6.61718 7.13281,0 0,-1.20312 -7.13281,0 z"
         style="font-variant:normal;font-stretch:normal;font-family:MS UI Gothic;-inkscape-font-specification:MS UI Gothic"
         id="path3189" />
    </g>
    <g
       style="font-size:22px;font-style:normal;font-weight:normal;line-height:125%;letter-spacing:0px;word-spacing:0px;fill:#000000;fill-opacity:1;stroke:none;font-family:Sans"
       id="text4084-1">
      <path
         d="m 452.16821,437.42224 c 1.71874,0.91667 3.40884,2.09115 5.07032,3.52344 l -1.375,1.46094 c -1.4896,-1.43229 -3.12241,-2.69271 -4.89844,-3.78125 z m -1.97656,-5.92969 4.21094,0 0,1.89063 c -0.97397,1.48959 -2.37762,3.00782 -4.21094,4.55469 l 0,8.67968 -1.71875,0 0,-7.39062 c -1.83334,1.31771 -3.75261,2.40625 -5.75781,3.26562 l -1.11719,-1.63281 c 2.46354,-1.08854 4.64062,-2.34895 6.53125,-3.78125 1.77603,-1.3177 3.09374,-2.6354 3.95313,-3.95312 l -9.36719,0 0,-1.63282 5.75781,0 0,-3.60937 1.71875,0 z"
         style="font-variant:normal;font-stretch:normal;font-family:MS UI Gothic;-inkscape-font-specification:MS UI Gothic"
         id="path3160" />
      <path
         d="m 464.54321,432.26599 c 0.80208,1.26043 1.51822,2.66407 2.14844,4.21094 l -1.63281,0.77344 c -0.68751,-1.77604 -1.34636,-3.20833 -1.97656,-4.29688 z m 2.92188,8.42188 c 1.03124,-1.71875 1.51822,-4.23958 1.46094,-7.5625 l 1.63281,0.17187 c -0.0573,3.4948 -0.65887,6.2448 -1.80469,8.25 -1.14584,2.0625 -3.1224,3.72396 -5.92969,4.98438 l -1.11718,-1.46094 c 2.80728,-0.97396 4.72655,-2.43489 5.75781,-4.38281 z m -6.70313,-6.61719 c 0.51562,0.7448 1.20312,2.17709 2.0625,4.29687 l -1.63281,0.77344 c -0.6875,-1.77603 -1.34636,-3.23697 -1.97656,-4.38281 z"
         style="font-variant:normal;font-stretch:normal;font-family:MS UI Gothic;-inkscape-font-specification:MS UI Gothic"
         id="path3162" />
      <path
         d="m 477.94946,434.24255 c 3.03645,1.03126 5.58593,2.14845 7.64844,3.35157 l -1.11719,1.89062 c -0.63022,-0.45833 -1.60418,-1.0026 -2.92187,-1.63281 -1.31772,-0.6302 -2.52084,-1.14583 -3.60938,-1.54688 l 0,10.14063 -1.71875,0 0,-18.39063 1.71875,0 z"
         style="font-variant:normal;font-stretch:normal;font-family:MS UI Gothic;-inkscape-font-specification:MS UI Gothic"
         id="path3164" />
      <path
         d="m 501.23853,429.51599 0,5.67188 c -2e-5,2.92188 -0.68752,5.29948 -2.0625,7.13281 -1.03127,1.54687 -2.75001,2.89323 -5.15625,4.03906 l -1.20313,-1.80469 c 2.40624,-0.91666 4.15364,-2.17708 5.24219,-3.78125 0.97394,-1.43228 1.46092,-3.29426 1.46094,-5.58593 l 0,-3.78125 -9.10938,0 0,6.44531 -1.71875,0 0,-8.33594 z"
         style="font-variant:normal;font-stretch:normal;font-family:MS UI Gothic;-inkscape-font-specification:MS UI Gothic"
         id="path3166" />
      <path
         d="m 519.54321,435.9613 0,1.89063 -14.95312,0 0,-1.89063 z"
         style="font-variant:normal;font-stretch:normal;font-family:MS UI Gothic;-inkscape-font-specification:MS UI Gothic"
         id="path3168" />
      <path
         d="m 535.01196,430.71912 0,2.83593 c -1e-5,3.26564 -0.85939,6.04428 -2.57812,8.33594 -1.4896,2.11979 -3.63803,3.69531 -6.44531,4.72656 l -1.375,-1.63281 c 2.92186,-1.03125 5.09895,-2.46354 6.53125,-4.29687 1.43228,-1.89062 2.14842,-4.26822 2.14843,-7.13282 l 0,-1.20312 -6.70312,0 c -0.45834,2.75001 -1.48959,4.92709 -3.09375,6.53125 l -1.375,-1.375 c 1.20312,-1.14583 2.0052,-2.49218 2.40625,-4.03906 0.34374,-1.3177 0.48697,-3.06509 0.42969,-5.24219 l 1.89062,0 c -10e-6,0.91668 -0.0286,1.74741 -0.0859,2.49219 z"
         style="font-variant:normal;font-stretch:normal;font-family:MS UI Gothic;-inkscape-font-specification:MS UI Gothic"
         id="path3170" />
      <path
         d="m 546.44165,432.09412 1.03125,1.80468 3.4375,0 0.6875,-1.89062 -10.48437,0 0,7.82031 c -10e-6,2.63542 -0.65886,5.04167 -1.97657,7.21875 l -1.46093,-1.28906 c 1.14583,-1.77604 1.71874,-3.92448 1.71875,-6.44531 l 0,-11.42969 16.32812,0 0,4.125 -3.52344,0 1.11719,0.51562 c 0.22915,0.22918 0.14321,0.37241 -0.25781,0.42969 l -0.51563,0.94531 3.60938,0 0,5.58594 -13.75,0 0,-5.58594 3.26562,0 -0.77343,-1.03125 z m 7.99219,6.35937 0,-1.28906 -4.29688,0 0,1.28906 z m -10.3125,0 4.29687,0 0,-1.28906 -4.29687,0 z m 1.71875,8.67969 -1.71875,0 0,-6.61719 10.57031,0 0,6.35938 -1.71875,0 0,-0.77344 -7.13281,0 z m 7.13281,-2.0625 0,-1.28906 -7.13281,0 0,1.28906 z m -11.85937,-14.4375 12.89062,0 0,-1.375 -12.89062,0 z m 3.00781,5.5 4.29687,0 0,-1.20313 -4.29687,0 z m 6.01562,0 4.29688,0 0,-1.20313 -4.29688,0 z m -4.29687,6.61719 7.13281,0 0,-1.20313 -7.13281,0 z"
         style="font-variant:normal;font-stretch:normal;font-family:MS UI Gothic;-inkscape-font-specification:MS UI Gothic"
         id="path3172" />
    </g>
    <g
       style="font-size:22px;font-style:normal;font-weight:normal;line-height:125%;letter-spacing:0px;word-spacing:0px;fill:#000000;fill-opacity:1;stroke:none;font-family:Sans"
       id="text4084-8">
      <path
         d="m 459.38214,502.30103 0,3.35156 -1.46094,0 0,-3.35156 z m -2.32031,0 0,3.35156 -1.46094,0 0,-3.35156 z m -11.60156,1.80468 9.45312,0 0,1.63282 -9.45312,0 z m -2.0625,5.75782 14.86718,0 0,1.89062 -6.10156,0 0,2.83594 c -10e-6,3.49479 -1.57553,5.87239 -4.72656,7.13281 l -1.11719,-1.63281 c 1.54687,-0.45833 2.63541,-1.17448 3.26563,-2.14844 0.5729,-0.85937 0.85936,-1.97656 0.85937,-3.35156 l 0,-2.83594 -7.04687,0 z"
         style="font-variant:normal;font-stretch:normal;font-family:MS UI Gothic;-inkscape-font-specification:MS UI Gothic"
         id="path3145" />
      <path
         d="m 476.39777,510.98071 0,1.89063 -14.95313,0 0,-1.89063 z"
         style="font-variant:normal;font-stretch:normal;font-family:MS UI Gothic;-inkscape-font-specification:MS UI Gothic"
         id="path3147" />
      <path
         d="m 491.09308,507.9729 c -10e-6,2.40626 -0.45835,4.58334 -1.375,6.53125 0.68749,0.51563 1.2604,1.00261 1.71875,1.46094 l -1.28906,1.71875 c -0.22918,-0.28646 -0.65887,-0.71614 -1.28907,-1.28906 -1.60417,2.52083 -3.8099,4.29687 -6.61718,5.32812 l -1.28907,-1.46094 c 2.86458,-1.14583 5.01302,-2.86458 6.44532,-5.15625 -1.77605,-1.54687 -3.15105,-2.60676 -4.125,-3.17968 l 0.85937,-1.375 c 1.14583,0.6875 2.54947,1.63282 4.21094,2.83593 0.68749,-1.60416 1.03124,-3.40884 1.03125,-5.41406 l 0,-0.60156 -5.58594,0 c -0.63021,2.8073 -1.80469,5.01303 -3.52344,6.61719 l -1.375,-1.28907 c 2.34896,-2.17707 3.49479,-5.35676 3.4375,-9.53906 l 1.97657,0 c -10e-6,0.91668 -0.0573,1.77606 -0.17188,2.57813 l 6.96094,0 0,2.23437 z"
         style="font-variant:normal;font-stretch:normal;font-family:MS UI Gothic;-inkscape-font-specification:MS UI Gothic"
         id="path3149" />
      <path
         d="m 504.6712,503.33228 0,9.53906 c -10e-6,2.23438 -0.54428,4.03906 -1.63281,5.41406 -0.91667,1.48958 -2.60678,2.63542 -5.07031,3.4375 l -1.28906,-1.63281 c 2.23437,-0.63021 3.80988,-1.54688 4.72656,-2.75 1.03124,-1.43229 1.54686,-2.92187 1.54687,-4.46875 l 0,-9.53906 z m -7.99218,0.6875 0,9.88281 -1.71875,0 0,-9.88281 z"
         style="font-variant:normal;font-stretch:normal;font-family:MS UI Gothic;-inkscape-font-specification:MS UI Gothic"
         id="path3151" />
      <path
         d="m 508.88214,504.5354 c 1.94791,1.08856 3.55208,2.29168 4.8125,3.60938 l -1.46094,1.80468 c -0.97396,-1.2604 -2.49219,-2.57811 -4.55468,-3.95312 z m 7.5625,10.74219 c 1.71874,-1.77604 2.89322,-4.29687 3.52344,-7.5625 l 1.80469,0.94531 c -0.91669,3.66667 -2.34898,6.44532 -4.29688,8.33594 -2.00522,1.94792 -4.95573,3.32291 -8.85156,4.125 l -0.6875,-1.89063 c 3.72395,-0.6875 6.55989,-2.0052 8.50781,-3.95312 z"
         style="font-variant:normal;font-stretch:normal;font-family:MS UI Gothic;-inkscape-font-specification:MS UI Gothic"
         id="path3153" />
      <path
         d="m 536.38214,505.73853 0,2.83593 c -1e-5,3.26564 -0.85939,6.04428 -2.57812,8.33594 -1.4896,2.11979 -3.63803,3.69531 -6.44532,4.72656 l -1.375,-1.63281 c 2.92187,-1.03125 5.09895,-2.46354 6.53125,-4.29687 1.43228,-1.89062 2.14843,-4.26823 2.14844,-7.13282 l 0,-1.20312 -6.70312,0 c -0.45834,2.75001 -1.48959,4.92709 -3.09375,6.53125 l -1.375,-1.375 c 1.20312,-1.14583 2.0052,-2.49218 2.40625,-4.03906 0.34374,-1.3177 0.48697,-3.06509 0.42968,-5.24219 l 1.89063,0 c -10e-6,0.91668 -0.0286,1.74741 -0.0859,2.49219 z"
         style="font-variant:normal;font-stretch:normal;font-family:MS UI Gothic;-inkscape-font-specification:MS UI Gothic"
         id="path3155" />
      <path
         d="m 547.81183,507.11353 1.03125,1.80468 3.4375,0 0.6875,-1.89062 -10.48438,0 0,7.82031 c 0,2.63542 -0.65885,5.04167 -1.97656,7.21875 l -1.46094,-1.28906 c 1.14583,-1.77604 1.71875,-3.92448 1.71875,-6.44531 l 0,-11.42969 16.32813,0 0,4.125 -3.52344,0 1.11719,0.51562 c 0.22915,0.22918 0.14321,0.37241 -0.25781,0.42969 l -0.51563,0.94531 3.60938,0 0,5.58594 -13.75,0 0,-5.58594 3.26562,0 -0.77344,-1.03125 z m 7.99219,6.35937 0,-1.28906 -4.29688,0 0,1.28906 z m -10.3125,0 4.29687,0 0,-1.28906 -4.29687,0 z m 1.71875,8.67969 -1.71875,0 0,-6.61719 10.57031,0 0,6.35938 -1.71875,0 0,-0.77344 -7.13281,0 z m 7.13281,-2.0625 0,-1.28906 -7.13281,0 0,1.28906 z m -11.85938,-14.4375 12.89063,0 0,-1.375 -12.89063,0 z m 3.00782,5.5 4.29687,0 0,-1.20313 -4.29687,0 z m 6.01562,0 4.29688,0 0,-1.20313 -4.29688,0 z m -4.29687,6.61719 7.13281,0 0,-1.20313 -7.13281,0 z"
         style="font-variant:normal;font-stretch:normal;font-family:MS UI Gothic;-inkscape-font-specification:MS UI Gothic"
         id="path3157" />
    </g>
    <g
       style="font-size:22px;font-style:normal;font-weight:normal;line-height:125%;letter-spacing:0px;word-spacing:0px;fill:#000000;fill-opacity:1;stroke:none;font-family:Sans"
       id="text4084-12">
      <path
         d="m 468.65753,558.68579 1.375,0 0,-4.38281 1.63281,0 c 0.45833,0.0573 0.48698,0.22918 0.0859,0.51562 l 0,3.86719 2.40625,0 0,1.63281 -2.40625,0 0,4.72657 2.23438,-0.85938 0.42968,1.46094 -2.66406,1.11719 0,7.39062 -1.71875,0 0,-6.78906 -2.66406,0.85937 c -0.0573,0.40105 -0.20052,0.48699 -0.42969,0.25782 l -0.60156,-1.89063 3.69531,-1.03125 0,-5.24219 -1.46094,0 c -0.11458,1.08856 -0.34375,2.14845 -0.6875,3.17969 l -1.63281,-0.60156 c 0.6875,-2.0052 1.03125,-4.21093 1.03125,-6.61719 l 1.71875,0.25781 c 0.17187,0.17189 0.11458,0.34377 -0.17187,0.51563 z m 16.75781,-0.17187 -0.0859,10.57031 c -2e-5,3.03646 -0.8594,4.55468 -2.57813,4.55469 l -2.49219,0 -0.34375,-1.89063 2.14844,0 c 1.03123,0.11458 1.54686,-0.77344 1.54688,-2.66406 l 0.0859,-8.9375 -0.94531,0 c 0.0573,5.04167 -2.43491,9.68229 -7.47656,13.92187 l -1.11719,-1.54687 c 4.23957,-3.15104 6.55988,-7.27604 6.96094,-12.375 l -1.375,0 c -0.22918,3.4948 -1.97658,6.58855 -5.24219,9.28125 l -1.20312,-1.46094 c 2.86457,-2.23437 4.46873,-4.84114 4.8125,-7.82031 l -1.375,0 c -0.63022,1.54688 -1.43231,2.86459 -2.40625,3.95312 l -1.46094,-1.03125 c 2.0052,-2.46353 3.23697,-5.29946 3.69531,-8.50781 l 1.80469,0.34375 c 0.22915,0.22918 0.14321,0.37241 -0.25781,0.42969 -0.17189,0.97397 -0.4297,2.03387 -0.77344,3.17969 z"
         style="font-variant:normal;font-stretch:normal;font-family:MS UI Gothic;-inkscape-font-specification:MS UI Gothic"
         id="path3138" />
      <path
         d="m 495.55597,568.82642 c -2.23438,0.80208 -4.32553,1.46094 -6.27344,1.97656 -0.17188,0.45833 -0.34375,0.54427 -0.51562,0.25781 l -0.60157,-1.97656 3.00782,-0.60156 0,-4.72657 -2.32032,0 0,-1.63281 2.32032,0 0,-4.55469 -2.57813,0 0,-1.63281 6.875,0 0,1.63281 -2.57812,0 0,4.55469 2.32031,0 0,1.63281 -2.32031,0 0,4.29688 c 0.45832,-0.0573 1.28905,-0.28646 2.49218,-0.6875 z m 6.78906,-4.03907 0,2.49219 4.8125,0 0,1.63281 -4.8125,0 0,2.66407 5.67188,0 0,1.63281 -13.66407,0 0,-1.63281 6.53125,0 0,-2.66407 -4.64062,0 0,-1.63281 4.64062,0 0,-2.49219 -3.09375,0 0,1.11719 -1.46093,0 0,-10.57031 10.65625,0 0,10.22656 -1.46094,0 0,-0.77344 z m 3.17969,-3.95312 -3.17969,0 0,2.57812 3.17969,0 z m 0,-4.125 -3.17969,0 0,2.75 3.17969,0 z m -4.64063,2.75 0,-2.75 -3.09375,0 0,2.75 z m 0,1.375 -3.09375,0 0,2.57812 3.09375,0 z"
         style="font-variant:normal;font-stretch:normal;font-family:MS UI Gothic;-inkscape-font-specification:MS UI Gothic"
         id="path3140" />
      <path
         d="m 519.10284,559.11548 1.03125,1.80469 3.4375,0 0.6875,-1.89063 -10.48437,0 0,7.82031 c -10e-6,2.63542 -0.65886,5.04167 -1.97656,7.21875 l -1.46094,-1.28906 c 1.14583,-1.77604 1.71875,-3.92447 1.71875,-6.44531 l 0,-11.42969 16.32812,0 0,4.125 -3.52343,0 1.11718,0.51563 c 0.22915,0.22918 0.14322,0.3724 -0.25781,0.42968 l -0.51562,0.94532 3.60937,0 0,5.58593 -13.75,0 0,-5.58593 3.26563,0 -0.77344,-1.03125 z m 7.99219,6.35937 0,-1.28906 -4.29687,0 0,1.28906 z m -10.3125,0 4.29688,0 0,-1.28906 -4.29688,0 z m 1.71875,8.67969 -1.71875,0 0,-6.61719 10.57031,0 0,6.35938 -1.71875,0 0,-0.77344 -7.13281,0 z m 7.13281,-2.0625 0,-1.28906 -7.13281,0 0,1.28906 z m -11.85937,-14.4375 12.89062,0 0,-1.375 -12.89062,0 z m 3.00781,5.5 4.29688,0 0,-1.20312 -4.29688,0 z m 6.01563,0 4.29687,0 0,-1.20312 -4.29687,0 z m -4.29688,6.61719 7.13281,0 0,-1.20313 -7.13281,0 z"
         style="font-variant:normal;font-stretch:normal;font-family:MS UI Gothic;-inkscape-font-specification:MS UI Gothic"
         id="path3142" />
    </g>
    <g
       style="font-size:22px;font-style:normal;font-weight:normal;line-height:125%;letter-spacing:0px;word-spacing:0px;fill:#000000;fill-opacity:1;stroke:none;font-family:Sans"
       id="text4084-85">
      <path
         d="m 85.161461,537.46399 c 1.718736,0.91667 3.408839,2.09115 5.070312,3.52344 l -1.375,1.46093 c -1.489597,-1.43228 -3.122408,-2.6927 -4.898437,-3.78125 z m -1.976563,-5.92969 4.210938,0 0,1.89063 c -0.973971,1.48959 -2.377616,3.00782 -4.210938,4.55468 l 0,8.67969 -1.71875,0 0,-7.39062 c -1.833339,1.31771 -3.752608,2.40625 -5.757812,3.26562 l -1.117188,-1.63281 c 2.463538,-1.08854 4.64062,-2.34895 6.53125,-3.78125 1.776033,-1.3177 3.09374,-2.63541 3.953125,-3.95313 l -9.367187,0 0,-1.63281 5.757812,0 0,-3.60937 1.71875,0 z"
         style="font-variant:normal;font-stretch:normal;font-family:MS UI Gothic;-inkscape-font-specification:MS UI Gothic"
         id="path3062" />
      <path
         d="m 97.536461,532.30774 c 0.802076,1.26043 1.518221,2.66407 2.148437,4.21094 l -1.632812,0.77343 c -0.687506,-1.77603 -1.34636,-3.20832 -1.976563,-4.29687 z m 2.921879,8.42187 c 1.03124,-1.71874 1.51821,-4.23957 1.46093,-7.5625 l 1.63282,0.17188 c -0.0573,3.4948 -0.65887,6.2448 -1.80469,8.25 -1.14584,2.0625 -3.122405,3.72396 -5.929689,4.98437 l -1.117188,-1.46093 c 2.807286,-0.97396 4.726555,-2.4349 5.757817,-4.38282 z m -6.703129,-6.61718 c 0.515622,0.7448 1.203121,2.17709 2.0625,4.29687 l -1.632813,0.77344 c -0.687502,-1.77603 -1.346355,-3.23697 -1.976562,-4.38281 z"
         style="font-variant:normal;font-stretch:normal;font-family:MS UI Gothic;-inkscape-font-specification:MS UI Gothic"
         id="path3064" />
      <path
         d="m 110.94271,534.2843 c 3.03645,1.03126 5.58593,2.14845 7.64844,3.35156 l -1.11719,1.89063 c -0.63022,-0.45833 -1.60418,-1.0026 -2.92187,-1.63281 -1.31772,-0.6302 -2.52085,-1.14583 -3.60938,-1.54688 l 0,10.14063 -1.71875,0 0,-18.39063 1.71875,0 z"
         style="font-variant:normal;font-stretch:normal;font-family:MS UI Gothic;-inkscape-font-specification:MS UI Gothic"
         id="path3066" />
      <path
         d="m 134.23177,529.55774 0,5.67187 c -1e-5,2.92189 -0.68751,5.29949 -2.0625,7.13282 -1.03126,1.54687 -2.75001,2.89323 -5.15625,4.03906 l -1.20312,-1.80469 c 2.40624,-0.91666 4.15363,-2.17708 5.24219,-3.78125 0.97394,-1.43228 1.46092,-3.29426 1.46093,-5.58594 l 0,-3.78125 -9.10937,0 0,6.44532 -1.71875,0 0,-8.33594 z"
         style="font-variant:normal;font-stretch:normal;font-family:MS UI Gothic;-inkscape-font-specification:MS UI Gothic"
         id="path3068" />
      <path
         d="m 152.53646,536.00305 0,1.89063 -14.95312,0 0,-1.89063 z"
         style="font-variant:normal;font-stretch:normal;font-family:MS UI Gothic;-inkscape-font-specification:MS UI Gothic"
         id="path3070" />
      <path
         d="m 168.00521,530.76086 0,2.83594 c -1e-5,3.26564 -0.85939,6.04428 -2.57812,8.33594 -1.4896,2.11979 -3.63803,3.69531 -6.44532,4.72656 l -1.375,-1.63281 c 2.92187,-1.03125 5.09895,-2.46354 6.53125,-4.29688 1.43228,-1.89061 2.14843,-4.26822 2.14844,-7.13281 l 0,-1.20312 -6.70312,0 c -0.45834,2.75001 -1.48959,4.92709 -3.09375,6.53125 l -1.375,-1.375 c 1.20312,-1.14583 2.0052,-2.49218 2.40625,-4.03907 0.34374,-1.31769 0.48697,-3.06509 0.42968,-5.24218 l 1.89063,0 c -1e-5,0.91668 -0.0286,1.74741 -0.0859,2.49218 z"
         style="font-variant:normal;font-stretch:normal;font-family:MS UI Gothic;-inkscape-font-specification:MS UI Gothic"
         id="path3072" />
      <path
         d="m 170.4974,529.4718 14.4375,0 -0.0859,1.46094 c -1e-5,1.4323 -0.40106,2.77866 -1.20312,4.03906 -0.97398,1.60418 -2.1771,2.8073 -3.60938,3.60938 l -1.28906,-1.28907 c 2.52082,-1.31769 3.98176,-3.38019 4.38281,-6.1875 l -12.63281,0 z m 7.73437,3.78125 0,4.89844 c -1e-5,1.66146 -0.42969,3.20834 -1.28906,4.64062 -0.85938,1.54688 -2.20573,2.77865 -4.03906,3.69532 l -1.11719,-1.54688 c 3.15104,-1.54687 4.72656,-3.80989 4.72656,-6.78906 l 0,-4.89844 z"
         style="font-variant:normal;font-stretch:normal;font-family:MS UI Gothic;-inkscape-font-specification:MS UI Gothic"
         id="path3074" />
      <path
         d="m 199.80209,530.76086 0,2.83594 c -2e-5,3.26564 -0.85939,6.04428 -2.57813,8.33594 -1.48959,2.11979 -3.63803,3.69531 -6.44531,4.72656 l -1.375,-1.63281 c 2.92187,-1.03125 5.09895,-2.46354 6.53125,-4.29688 1.43228,-1.89061 2.14842,-4.26822 2.14844,-7.13281 l 0,-1.20312 -6.70313,0 c -0.45834,2.75001 -1.48959,4.92709 -3.09375,6.53125 l -1.375,-1.375 c 1.20312,-1.14583 2.00521,-2.49218 2.40625,-4.03907 0.34375,-1.31769 0.48698,-3.06509 0.42969,-5.24218 l 1.89062,0 c 0,0.91668 -0.0286,1.74741 -0.0859,2.49218 z"
         style="font-variant:normal;font-stretch:normal;font-family:MS UI Gothic;-inkscape-font-specification:MS UI Gothic"
         id="path3076" />
      <path
         d="m 216.73177,531.5343 0.85938,1.89063 c -0.97398,2.75001 -2.37762,4.92709 -4.21094,6.53125 l -1.54687,-1.20313 c 2.06248,-1.66145 3.35154,-3.43749 3.86718,-5.32812 l -7.99218,1.63281 0,8.16406 c -1e-5,0.6875 0.51561,1.00261 1.54687,0.94531 l 7.73438,0 -0.42969,1.89063 -6.96094,0 c -1.20313,0 -2.06251,-0.17188 -2.57812,-0.51563 -0.68751,-0.51562 -1.03126,-1.28906 -1.03125,-2.32031 l 0,-7.82031 -3.35157,0.6875 -0.34375,-1.80469 3.69532,-0.6875 0,-5.07031 1.71875,0 0,4.72656 z"
         style="font-variant:normal;font-stretch:normal;font-family:MS UI Gothic;-inkscape-font-specification:MS UI Gothic"
         id="path3078" />
      <path
         d="m 232.11459,531.5343 c -2e-5,2.40626 -0.65887,4.72657 -1.97657,6.96094 1.94791,1.83334 3.78124,3.83854 5.5,6.01562 l -1.375,1.63282 c -2.00522,-2.92188 -3.69532,-4.98437 -5.07031,-6.1875 -2.1198,3.03646 -4.78386,5.27083 -7.99219,6.70312 l -1.03125,-1.71875 c 2.92187,-1.20312 5.35677,-3.15104 7.30469,-5.84375 1.83332,-2.46353 2.74999,-4.86978 2.75,-7.21875 l -8.67969,0 0,-1.89062 10.57032,0 0,1.54687 z"
         style="font-variant:normal;font-stretch:normal;font-family:MS UI Gothic;-inkscape-font-specification:MS UI Gothic"
         id="path3080" />
      <path
         d="m 246.03646,532.13586 1.03125,1.80469 3.4375,0 0.6875,-1.89062 -10.48437,0 0,7.82031 c -1e-5,2.63542 -0.65886,5.04167 -1.97657,7.21875 l -1.46093,-1.28906 c 1.14583,-1.77604 1.71874,-3.92448 1.71875,-6.44532 l 0,-11.42968 16.32812,0 0,4.125 -3.52344,0 1.11719,0.51562 c 0.22915,0.22918 0.14321,0.37241 -0.25781,0.42969 l -0.51563,0.94531 3.60938,0 0,5.58594 -13.75,0 0,-5.58594 3.26562,0 -0.77343,-1.03125 z m 7.99219,6.35938 0,-1.28906 -4.29688,0 0,1.28906 z m -10.3125,0 4.29687,0 0,-1.28906 -4.29687,0 z m 1.71875,8.67969 -1.71875,0 0,-6.61719 10.57031,0 0,6.35937 -1.71875,0 0,-0.77343 -7.13281,0 z m 7.13281,-2.0625 0,-1.28907 -7.13281,0 0,1.28907 z m -11.85937,-14.4375 12.89062,0 0,-1.375 -12.89062,0 z m 3.00781,5.5 4.29687,0 0,-1.20313 -4.29687,0 z m 6.01562,0 4.29688,0 0,-1.20313 -4.29688,0 z m -4.29687,6.61718 7.13281,0 0,-1.20312 -7.13281,0 z"
         style="font-variant:normal;font-stretch:normal;font-family:MS UI Gothic;-inkscape-font-specification:MS UI Gothic"
         id="path3082" />
    </g>
    <g
       style="font-size:22px;font-style:normal;font-weight:normal;line-height:125%;letter-spacing:0px;word-spacing:0px;fill:#000000;fill-opacity:1;stroke:none;font-family:Sans"
       id="text4084-0">
      <path
         d="m 100.46069,435.06412 c 2.11978,-1.83332 3.6953,-3.72395 4.72656,-5.67188 l 1.80469,1.11719 c -0.91668,1.54689 -2.23439,3.12241 -3.95313,4.72656 l 0,12.71875 -1.71875,0 0,-11 c -2.177089,1.94793 -4.296878,3.40886 -6.359374,4.38281 l -1.117188,-1.71875 c 2.406247,-1.20311 4.611974,-2.72134 6.617192,-4.55468 z"
         style="font-variant:normal;font-stretch:normal;font-family:MS UI Gothic;-inkscape-font-specification:MS UI Gothic"
         id="path3085" />
      <path
         d="m 111.7185,430.93912 c 1.94791,1.08855 3.55208,2.29168 4.8125,3.60937 l -1.46094,1.80469 c -0.97396,-1.26041 -2.49219,-2.57811 -4.55469,-3.95313 z m 7.5625,10.74218 c 1.71874,-1.77603 2.89321,-4.29686 3.52344,-7.5625 l 1.80468,0.94532 c -0.91668,3.66667 -2.34897,6.44532 -4.29687,8.33593 -2.00522,1.94792 -4.95574,3.32292 -8.85156,4.125 l -0.6875,-1.89062 c 3.72395,-0.6875 6.55988,-2.00521 8.50781,-3.95313 z"
         style="font-variant:normal;font-stretch:normal;font-family:MS UI Gothic;-inkscape-font-specification:MS UI Gothic"
         id="path3087" />
      <path
         d="m 138.44506,434.37662 c -1e-5,2.40626 -0.45835,4.58334 -1.375,6.53125 0.68749,0.51563 1.2604,1.00261 1.71875,1.46093 l -1.28906,1.71875 c -0.22918,-0.28645 -0.65887,-0.71614 -1.28906,-1.28906 -1.60418,2.52084 -3.80991,4.29688 -6.61719,5.32813 l -1.28906,-1.46094 c 2.86457,-1.14583 5.01301,-2.86458 6.44531,-5.15625 -1.77605,-1.54687 -3.15105,-2.60676 -4.125,-3.17969 l 0.85937,-1.375 c 1.14583,0.68751 2.54947,1.63282 4.21094,2.83594 0.68749,-1.60416 1.03124,-3.40884 1.03125,-5.41406 l 0,-0.60157 -5.58594,0 c -0.63021,2.80731 -1.80469,5.01303 -3.52343,6.61719 l -1.375,-1.28906 c 2.34895,-2.17707 3.49478,-5.35676 3.4375,-9.53906 l 1.97656,0 c -1e-5,0.91668 -0.0573,1.77605 -0.17188,2.57812 l 6.96094,0 0,2.23438 z"
         style="font-variant:normal;font-stretch:normal;font-family:MS UI Gothic;-inkscape-font-specification:MS UI Gothic"
         id="path3089" />
      <path
         d="m 156.92162,437.38443 0,1.89062 -14.95312,0 0,-1.89062 z"
         style="font-variant:normal;font-stretch:normal;font-family:MS UI Gothic;-inkscape-font-specification:MS UI Gothic"
         id="path3091" />
      <path
         d="m 170.32787,438.84537 c 1.71874,0.91667 3.40884,2.09115 5.07032,3.52343 l -1.375,1.46094 c -1.4896,-1.43229 -3.12241,-2.6927 -4.89844,-3.78125 z m -1.97656,-5.92969 4.21094,0 0,1.89062 c -0.97397,1.4896 -2.37762,3.00783 -4.21094,4.55469 l 0,8.67969 -1.71875,0 0,-7.39063 c -1.83334,1.31772 -3.75261,2.40626 -5.75781,3.26563 l -1.11719,-1.63281 c 2.46354,-1.08854 4.64062,-2.34895 6.53125,-3.78125 1.77603,-1.3177 3.09374,-2.63541 3.95313,-3.95313 l -9.36719,0 0,-1.63281 5.75781,0 0,-3.60938 1.71875,0 z"
         style="font-variant:normal;font-stretch:normal;font-family:MS UI Gothic;-inkscape-font-specification:MS UI Gothic"
         id="path3093" />
      <path
         d="m 182.70287,433.68912 c 0.80208,1.26043 1.51822,2.66407 2.14844,4.21093 l -1.63281,0.77344 c -0.68751,-1.77603 -1.34636,-3.20832 -1.97656,-4.29687 z m 2.92188,8.42187 c 1.03124,-1.71874 1.51822,-4.23957 1.46094,-7.5625 l 1.63281,0.17188 c -0.0573,3.4948 -0.65887,6.24479 -1.80469,8.25 -1.14584,2.0625 -3.1224,3.72396 -5.92969,4.98437 l -1.11718,-1.46094 c 2.80728,-0.97395 4.72655,-2.43489 5.75781,-4.38281 z m -6.70313,-6.61719 c 0.51563,0.74481 1.20312,2.1771 2.0625,4.29688 l -1.63281,0.77344 c -0.6875,-1.77604 -1.34635,-3.23697 -1.97656,-4.38282 z"
         style="font-variant:normal;font-stretch:normal;font-family:MS UI Gothic;-inkscape-font-specification:MS UI Gothic"
         id="path3095" />
      <path
         d="m 196.10912,435.66568 c 3.03645,1.03126 5.58593,2.14845 7.64844,3.35156 l -1.11719,1.89063 c -0.63022,-0.45833 -1.60418,-1.0026 -2.92187,-1.63282 -1.31772,-0.6302 -2.52084,-1.14582 -3.60938,-1.54687 l 0,10.14062 -1.71875,0 0,-18.39062 1.71875,0 z"
         style="font-variant:normal;font-stretch:normal;font-family:MS UI Gothic;-inkscape-font-specification:MS UI Gothic"
         id="path3097" />
      <path
         d="m 214.8435,433.51724 1.03125,1.80469 3.4375,0 0.6875,-1.89063 -10.48438,0 0,7.82032 c 0,2.63542 -0.65886,5.04166 -1.97656,7.21875 l -1.46094,-1.28907 c 1.14583,-1.77604 1.71875,-3.92447 1.71875,-6.44531 l 0,-11.42969 16.32813,0 0,4.125 -3.52344,0 1.11719,0.51563 c 0.22915,0.22918 0.14321,0.37241 -0.25781,0.42969 l -0.51563,0.94531 3.60938,0 0,5.58594 -13.75,0 0,-5.58594 3.26562,0 -0.77344,-1.03125 z m 7.99219,6.35938 0,-1.28907 -4.29688,0 0,1.28907 z m -10.3125,0 4.29687,0 0,-1.28907 -4.29687,0 z m 1.71875,8.67968 -1.71875,0 0,-6.61718 10.57031,0 0,6.35937 -1.71875,0 0,-0.77344 -7.13281,0 z m 7.13281,-2.0625 0,-1.28906 -7.13281,0 0,1.28906 z m -11.85938,-14.4375 12.89063,0 0,-1.375 -12.89063,0 z m 3.00782,5.5 4.29687,0 0,-1.20312 -4.29687,0 z m 6.01562,0 4.29688,0 0,-1.20312 -4.29688,0 z m -4.29687,6.61719 7.13281,0 0,-1.20312 -7.13281,0 z"
         style="font-variant:normal;font-stretch:normal;font-family:MS UI Gothic;-inkscape-font-specification:MS UI Gothic"
         id="path3099" />
    </g>
    <g
       style="font-size:22px;font-style:normal;font-weight:normal;line-height:125%;letter-spacing:0px;word-spacing:0px;fill:#000000;fill-opacity:1;stroke:none;font-family:Sans"
       id="text4084-64">
      <path
         d="m 99.617737,365.77014 c 3.036453,1.03126 5.585923,2.14845 7.648433,3.35156 l -1.11718,1.89063 c -0.63022,-0.45833 -1.60418,-1.0026 -2.92188,-1.63281 -1.31772,-0.6302 -2.52084,-1.14583 -3.609373,-1.54688 l 0,10.14063 -1.71875,0 0,-18.39063 1.71875,0 z"
         style="font-variant:normal;font-stretch:normal;font-family:MS UI Gothic;-inkscape-font-specification:MS UI Gothic"
         id="path3102" />
      <path
         d="m 110.87555,360.95764 9.79687,0 0,1.63281 -9.79687,0 z m -1.54688,4.8125 12.97657,0 0,1.63281 c -2e-5,2.29168 -0.63022,4.35418 -1.89063,6.1875 -1.48959,2.17709 -3.72396,3.72396 -6.70312,4.64063 l -1.11719,-1.80469 c 2.74999,-0.63021 4.78384,-1.89062 6.10156,-3.78125 1.14582,-1.48958 1.69009,-3.23697 1.63281,-5.24219 l -11,0 z"
         style="font-variant:normal;font-stretch:normal;font-family:MS UI Gothic;-inkscape-font-specification:MS UI Gothic"
         id="path3104" />
      <path
         d="m 126.25836,361.04358 c 1.94791,1.08856 3.55208,2.29168 4.8125,3.60937 l -1.46094,1.80469 c -0.97396,-1.2604 -2.49219,-2.57811 -4.55468,-3.95312 z m 7.5625,10.74219 c 1.71874,-1.77604 2.89322,-4.29687 3.52344,-7.5625 l 1.80469,0.94531 c -0.91668,3.66667 -2.34897,6.44532 -4.29688,8.33594 -2.00522,1.94791 -4.95573,3.32291 -8.85156,4.125 l -0.6875,-1.89063 c 3.72395,-0.6875 6.55989,-2.0052 8.50781,-3.95312 z"
         style="font-variant:normal;font-stretch:normal;font-family:MS UI Gothic;-inkscape-font-specification:MS UI Gothic"
         id="path3106" />
      <path
         d="m 152.89899,363.02014 c -2e-5,2.40626 -0.65887,4.72657 -1.97657,6.96094 1.94791,1.83334 3.78124,3.83854 5.5,6.01562 l -1.375,1.63282 c -2.00522,-2.92188 -3.69532,-4.98437 -5.07031,-6.1875 -2.1198,3.03646 -4.78386,5.27083 -7.99219,6.70312 l -1.03125,-1.71875 c 2.92188,-1.20312 5.35677,-3.15104 7.30469,-5.84375 1.83332,-2.46353 2.74999,-4.86978 2.75,-7.21875 l -8.67969,0 0,-1.89062 10.57032,0 0,1.54687 z"
         style="font-variant:normal;font-stretch:normal;font-family:MS UI Gothic;-inkscape-font-specification:MS UI Gothic"
         id="path3108" />
      <path
         d="m 171.37555,358.37952 c 0.74478,-0.0573 1.37498,0.17189 1.89062,0.6875 0.45832,0.40106 0.68749,0.91668 0.6875,1.54687 0.0573,0.68752 -0.14324,1.28908 -0.60156,1.80469 -0.51564,0.57293 -1.1172,0.85939 -1.80469,0.85937 -0.68751,2e-5 -1.26043,-0.22915 -1.71875,-0.6875 -0.45834,-0.45831 -0.71615,-1.05988 -0.77343,-1.80468 0.0573,-0.6302 0.31509,-1.20311 0.77343,-1.71875 0.45832,-0.45832 0.97395,-0.68749 1.54688,-0.6875 z m -1.11719,9.10937 c 1.43228,1.89063 2.6354,4.35417 3.60938,7.39063 l -1.89063,0.94531 c -0.91668,-3.26562 -2.00522,-5.8151 -3.26562,-7.64844 z m -3.60937,-3.69531 6.61718,0 0,1.63281 -6.61718,0 0,12.63281 -1.71875,0 0,-12.63281 -6.61719,0 0,-1.63281 6.61719,0 0,-4.125 1.71875,0 z m -8.50782,11.25781 c 1.48958,-1.71875 2.29167,-4.0677 2.40625,-7.04687 l 1.89063,0.25781 c -0.11459,2.97917 -0.94532,5.61459 -2.49219,7.90625 l -1.80469,-1.11719 z m 13.32032,-13.0625 c 0.34373,2e-5 0.63019,-0.0859 0.85937,-0.25781 0.28644,-0.22915 0.42967,-0.51561 0.42969,-0.85938 -2e-5,-0.40102 -0.1146,-0.71613 -0.34375,-0.94531 -0.22918,-0.22915 -0.51564,-0.34373 -0.85938,-0.34375 -0.34376,2e-5 -0.63022,0.1146 -0.85937,0.34375 -0.28647,0.28648 -0.40106,0.60158 -0.34375,0.94531 0.0573,0.34377 0.17186,0.60158 0.34375,0.77344 0.17186,0.22918 0.42967,0.34377 0.77344,0.34375 z"
         style="font-variant:normal;font-stretch:normal;font-family:MS UI Gothic;-inkscape-font-specification:MS UI Gothic"
         id="path3110" />
      <path
         d="m 191.05524,367.48889 0,1.89063 -14.95313,0 0,-1.89063 z"
         style="font-variant:normal;font-stretch:normal;font-family:MS UI Gothic;-inkscape-font-specification:MS UI Gothic"
         id="path3112" />
      <path
         d="m 199.56305,365.77014 c 3.03645,1.03126 5.58592,2.14845 7.64844,3.35156 l -1.11719,1.89063 c -0.63022,-0.45833 -1.60418,-1.0026 -2.92188,-1.63281 -1.31771,-0.6302 -2.52084,-1.14583 -3.60937,-1.54688 l 0,10.14063 -1.71875,0 0,-18.39063 1.71875,0 z"
         style="font-variant:normal;font-stretch:normal;font-family:MS UI Gothic;-inkscape-font-specification:MS UI Gothic"
         id="path3114" />
      <path
         d="m 218.29742,363.6217 1.03125,1.80469 3.4375,0 0.6875,-1.89062 -10.48437,0 0,7.82031 c -1e-5,2.63542 -0.65886,5.04167 -1.97656,7.21875 l -1.46094,-1.28906 c 1.14583,-1.77604 1.71875,-3.92448 1.71875,-6.44532 l 0,-11.42968 16.32812,0 0,4.125 -3.52343,0 1.11718,0.51562 c 0.22915,0.22918 0.14322,0.37241 -0.25781,0.42969 l -0.51562,0.94531 3.60937,0 0,5.58594 -13.75,0 0,-5.58594 3.26563,0 -0.77344,-1.03125 z m 7.99219,6.35938 0,-1.28906 -4.29687,0 0,1.28906 z m -10.3125,0 4.29688,0 0,-1.28906 -4.29688,0 z m 1.71875,8.67969 -1.71875,0 0,-6.61719 10.57031,0 0,6.35937 -1.71875,0 0,-0.77343 -7.13281,0 z m 7.13281,-2.0625 0,-1.28907 -7.13281,0 0,1.28907 z m -11.85937,-14.4375 12.89062,0 0,-1.375 -12.89062,0 z m 3.00781,5.5 4.29688,0 0,-1.20313 -4.29688,0 z m 6.01563,0 4.29687,0 0,-1.20313 -4.29687,0 z m -4.29688,6.61718 7.13281,0 0,-1.20312 -7.13281,0 z"
         style="font-variant:normal;font-stretch:normal;font-family:MS UI Gothic;-inkscape-font-specification:MS UI Gothic"
         id="path3116" />
    </g>
    <text
       xml:space="preserve"
       style="font-size:22px;font-style:normal;font-variant:normal;font-weight:normal;font-stretch:normal;line-height:125%;letter-spacing:0px;word-spacing:0px;fill:#000000;fill-opacity:1;stroke:none;font-family:Open Sans;-inkscape-font-specification:Open Sans"
       x="-152.29993"
       y="109.25325"
       id="text3039"
       sodipodi:linespacing="125%"
       transform="translate(-16,57)"><tspan
         sodipodi:role="line"
         id="tspan3041"
         x="-152.29993"
         y="109.25325" /><tspan
         sodipodi:role="line"
         id="tspan3043"
         x="-152.29993"
         y="136.75325" /></text>
    <g
       style="font-size:22px;font-style:normal;font-variant:normal;font-weight:normal;font-stretch:normal;line-height:125%;letter-spacing:0px;word-spacing:0px;fill:#000000;fill-opacity:1;stroke:none;font-family:Open Sans;-inkscape-font-specification:Open Sans"
       id="text3045">
      <path
         d="m 66.3125,102.17969 19.265625,0 0,2.67187 -8.015625,0 0,21.375 -3.234375,0 0,-21.375 -8.015625,0 z"
         style="font-size:36px;font-family:MS UI Gothic;-inkscape-font-specification:MS UI Gothic"
         id="path3043" />
      <path
         d="m 88.53125,114.27344 c -2e-6,-4.12499 1.171872,-7.35936 3.515625,-9.70313 1.781243,-1.78122 4.078115,-2.67185 6.890625,-2.67187 2.81248,2e-5 5.01561,0.7969 6.60938,2.39062 1.68747,1.68752 2.5781,3.84377 2.67187,6.46875 l -3.375,0 c -0.18752,-1.96873 -0.79689,-3.46873 -1.82812,-4.5 -1.12502,-1.12498 -2.48439,-1.68748 -4.07813,-1.6875 -1.687511,2e-5 -3.187509,0.65627 -4.5,1.96875 -1.687506,1.68752 -2.531255,4.26564 -2.53125,7.73438 -5e-6,3.46876 0.843744,6.04688 2.53125,7.73437 1.218741,1.21876 2.718739,1.82813 4.5,1.82813 1.87499,0 3.32811,-0.51562 4.35938,-1.54688 1.31248,-1.31249 1.96873,-3.18749 1.96875,-5.625 l 3.375,0 c -0.0938,3.18751 -1.03128,5.67188 -2.8125,7.45313 -1.59377,1.59375 -3.89065,2.39062 -6.89063,2.39062 -2.81251,0 -5.109382,-0.89062 -6.890625,-2.67187 -2.343753,-2.34375 -3.515627,-5.53124 -3.515625,-9.5625 z"
         style="font-size:36px;font-family:MS UI Gothic;-inkscape-font-specification:MS UI Gothic"
         id="path3045" />
      <path
         d="m 112.71875,102.17969 11.25,0 c 2.06248,2e-5 3.74998,0.65627 5.0625,1.96875 1.31248,1.31252 1.96873,3.14064 1.96875,5.48437 -2e-5,2.34377 -0.60939,4.12502 -1.82813,5.34375 -1.21876,1.21876 -2.95314,1.82814 -5.20312,1.82813 l -8.01562,0 0,9.42187 -3.23438,0 z m 3.23438,2.67187 0,9.28125 7.3125,0 c 1.31248,2e-5 2.34373,-0.37498 3.09375,-1.125 0.84373,-0.84373 1.2656,-1.96873 1.26562,-3.375 -2e-5,-1.59373 -0.37502,-2.7656 -1.125,-3.51562 -0.84377,-0.84373 -1.92189,-1.26561 -3.23437,-1.26563 z"
         style="font-size:36px;font-family:MS UI Gothic;-inkscape-font-specification:MS UI Gothic"
         id="path3047" />
      <path
         d="m 133.53125,126.92969 14.90625,-26.57813 1.40625,0.84375 -14.90625,26.57813 z"
         style="font-size:36px;font-family:MS UI Gothic;-inkscape-font-specification:MS UI Gothic"
         id="path3049" />
      <path
         d="m 151.95312,102.17969 6.32813,0 0,3.09375 -1.54688,0 0,17.85937 1.54688,0 0,3.09375 -6.32813,0 0,-3.09375 1.54688,0 0,-17.85937 -1.54688,0 z"
         style="font-size:36px;font-family:MS UI Gothic;-inkscape-font-specification:MS UI Gothic"
         id="path3051" />
      <path
         d="m 161.79687,102.17969 11.25,0 c 2.06249,2e-5 3.74999,0.65627 5.0625,1.96875 1.31249,1.31252 1.96873,3.14064 1.96875,5.48437 -2e-5,2.34377 -0.60939,4.12502 -1.82812,5.34375 -1.21877,1.21876 -2.95314,1.82814 -5.20313,1.82813 l -8.01562,0 0,9.42187 -3.23438,0 z m 3.23438,2.67187 0,9.28125 7.3125,0 c 1.31249,2e-5 2.34373,-0.37498 3.09375,-1.125 0.84373,-0.84373 1.26561,-1.96873 1.26562,-3.375 -1e-5,-1.59373 -0.37501,-2.7656 -1.125,-3.51562 -0.84376,-0.84373 -1.92188,-1.26561 -3.23437,-1.26563 z"
         style="font-size:36px;font-family:MS UI Gothic;-inkscape-font-specification:MS UI Gothic"
         id="path3053" />
      <path
         d="m 194.14062,122.28906 c -1e-5,1.31251 0.56249,1.96875 1.6875,1.96875 l 11.10938,0 -0.28125,3.09375 -10.54688,0 c -1.78126,0 -3.00001,-0.375 -3.65625,-1.125 -0.75,-0.9375 -1.125,-2.29687 -1.125,-4.07812 l 0,-8.71875 -8.15625,0 0,-2.67188 8.15625,0 0,-7.45312 -5.48437,0 0,-2.67188 18.5625,0 0,2.67188 -10.26563,0 0,7.45312 12.79688,0 0,2.67188 -12.79688,0 0,8.85937 z"
         style="font-size:36px;font-family:MS UI Gothic;-inkscape-font-specification:MS UI Gothic"
         id="path3055" />
      <path
         d="m 237.17187,97.398437 0,5.484373 -2.39062,0 0,-5.484373 z m -3.79687,0 0,5.484373 -2.39063,0 0,-5.484373 z m -18.98438,2.953123 15.46875,0 0,2.67188 -15.46875,0 z m -3.375,9.42188 24.32813,0 0,3.09375 -9.98438,0 0,4.64062 c -1e-5,5.71876 -2.57813,9.60938 -7.73437,11.67188 l -1.82813,-2.67188 c 2.53125,-0.75 4.31249,-1.92187 5.34375,-3.51562 0.93749,-1.40625 1.40624,-3.23437 1.40625,-5.48438 l 0,-4.64062 -11.53125,0 z"
         style="font-size:36px;font-family:MS UI Gothic;-inkscape-font-specification:MS UI Gothic"
         id="path3057" />
      <path
         d="m 260.51562,119.33594 c 1.68748,-1.78124 3.23435,-3.98437 4.64063,-6.60938 l 1.96875,2.8125 c -1.12503,2.25001 -2.8594,4.59376 -5.20313,7.03125 -2.34377,2.4375 -4.64064,4.26563 -6.89062,5.48438 l -1.6875,-2.8125 0,-25.734378 2.8125,0 0,23.765628 c 1.12498,-0.65625 2.5781,-1.96875 4.35937,-3.9375 z m -12.375,-17.57813 0,11.53125 c 0,3.65626 -0.51563,6.60938 -1.54687,8.85938 -1.03126,2.34375 -2.71876,4.35937 -5.0625,6.04687 l -1.96875,-2.67187 c 1.96875,-1.5 3.32812,-3.14062 4.07812,-4.92188 1.125,-2.71874 1.6875,-5.15624 1.6875,-7.3125 l 0,-11.53125 z"
         style="font-size:36px;font-family:MS UI Gothic;-inkscape-font-specification:MS UI Gothic"
         id="path3059" />
    </g>
    <g
       style="font-size:22px;font-style:normal;font-variant:normal;font-weight:normal;font-stretch:normal;line-height:125%;letter-spacing:0px;word-spacing:0px;fill:#000000;fill-opacity:1;stroke:none;font-family:Open Sans;-inkscape-font-specification:Open Sans"
       id="text3049">
      <path
         d="m 430.16113,114.13281 c 0,-3.93748 1.125,-7.03123 3.375,-9.28125 1.96875,-1.96872 4.35937,-2.9531 7.17188,-2.95312 2.81248,2e-5 5.2031,0.9844 7.17187,2.95312 2.24998,2.25002 3.37498,5.34377 3.375,9.28125 -2e-5,3.93751 -1.12502,7.03126 -3.375,9.28125 -1.96877,1.96875 -4.35939,2.95313 -7.17187,2.95313 -2.81251,0 -5.20313,-0.98438 -7.17188,-2.95313 -2.25,-2.24999 -3.375,-5.34374 -3.375,-9.28125 z m 10.54688,-9.5625 c -1.78126,2e-5 -3.37501,0.70315 -4.78125,2.10938 -1.59376,1.59377 -2.39063,4.07814 -2.39063,7.45312 0,3.37501 0.79687,5.85938 2.39063,7.45313 1.40624,1.40625 2.99999,2.10938 4.78125,2.10937 1.78123,10e-6 3.37498,-0.70312 4.78125,-2.10937 1.59373,-1.59375 2.3906,-4.07812 2.39062,-7.45313 -2e-5,-3.37498 -0.79689,-5.85935 -2.39062,-7.45312 -1.40627,-1.40623 -3.00002,-2.10936 -4.78125,-2.10938 z"
         style="font-size:36px;font-family:MS UI Gothic;-inkscape-font-specification:MS UI Gothic"
         id="path3030" />
      <path
         d="m 456.17676,108.50781 c 0,-1.78123 0.65624,-3.3281 1.96875,-4.64062 1.31249,-1.31248 3.32811,-1.96873 6.04687,-1.96875 2.90624,2e-5 5.10936,0.75002 6.60938,2.25 1.31248,1.31252 1.96873,2.85939 1.96875,4.64062 l -3.23438,0 c -1e-5,-1.12498 -0.37501,-2.06248 -1.125,-2.8125 -0.84376,-0.84373 -2.15626,-1.2656 -3.9375,-1.26562 -1.96876,2e-5 -3.32813,0.37502 -4.07812,1.125 -0.65626,0.65627 -0.98438,1.40627 -0.98438,2.25 0,0.84377 0.1875,1.45314 0.5625,1.82812 0.46875,0.46877 1.3125,0.93752 2.53125,1.40625 2.15624,0.93752 4.59374,2.01564 7.3125,3.23438 0.74999,0.28126 1.45311,0.75001 2.10938,1.40625 1.03123,1.03126 1.54685,2.25001 1.54687,3.65625 -2e-5,1.875 -0.65627,3.46875 -1.96875,4.78125 -1.40626,1.40625 -3.70314,2.10937 -6.89062,2.10937 -3.09376,0 -5.48438,-0.84375 -7.17188,-2.53125 -1.21875,-1.21874 -1.82812,-2.99999 -1.82812,-5.34375 l 3.23437,0 c 0,1.68751 0.375,2.90626 1.125,3.65625 1.03125,1.03126 2.62499,1.54688 4.78125,1.54688 1.96874,0 3.42186,-0.46875 4.35938,-1.40625 0.74998,-0.75 1.12498,-1.5 1.125,-2.25 -2e-5,-0.84375 -0.28127,-1.54687 -0.84375,-2.10938 -0.46877,-0.46874 -1.21877,-0.93749 -2.25,-1.40625 -0.93751,-0.46874 -2.15626,-1.03124 -3.65625,-1.6875 -1.68751,-0.74999 -3.04688,-1.35936 -4.07813,-1.82812 -0.75,-0.28124 -1.40625,-0.70311 -1.96875,-1.26563 -0.84375,-0.84373 -1.26562,-1.96873 -1.26562,-3.375 z"
         style="font-size:36px;font-family:MS UI Gothic;-inkscape-font-specification:MS UI Gothic"
         id="path3032" />
      <path
         d="m 476.42676,102.17969 6.32812,0 0,3.09375 -1.54687,0 0,17.85937 1.54687,0 0,3.09375 -6.32812,0 0,-3.09375 1.54687,0 0,-17.85937 -1.54687,0 z"
         style="font-size:36px;font-family:MS UI Gothic;-inkscape-font-specification:MS UI Gothic"
         id="path3034" />
      <path
         d="m 496.39551,122.28906 c -10e-6,1.31251 0.56248,1.96875 1.6875,1.96875 l 11.10937,0 -0.28125,3.09375 -10.54687,0 c -1.78126,0 -3.00001,-0.375 -3.65625,-1.125 -0.75001,-0.9375 -1.12501,-2.29687 -1.125,-4.07812 l 0,-8.71875 -8.15625,0 0,-2.67188 8.15625,0 0,-7.45312 -5.48438,0 0,-2.67188 18.5625,0 0,2.67188 -10.26562,0 0,7.45312 12.79687,0 0,2.67188 -12.79687,0 0,8.85937 z"
         style="font-size:36px;font-family:MS UI Gothic;-inkscape-font-specification:MS UI Gothic"
         id="path3036" />
      <path
         d="m 539.42676,97.398437 0,5.484373 -2.39063,0 0,-5.484373 z m -3.79688,0 0,5.484373 -2.39062,0 0,-5.484373 z m -18.98437,2.953123 15.46875,0 0,2.67188 -15.46875,0 z m -3.375,9.42188 24.32812,0 0,3.09375 -9.98437,0 0,4.64062 c -2e-5,5.71876 -2.57814,9.60938 -7.73438,11.67188 l -1.82812,-2.67188 c 2.53124,-0.75 4.31249,-1.92187 5.34375,-3.51562 0.93748,-1.40625 1.40623,-3.23437 1.40625,-5.48438 l 0,-4.64062 -11.53125,0 z"
         style="font-size:36px;font-family:MS UI Gothic;-inkscape-font-specification:MS UI Gothic"
         id="path3038" />
      <path
         d="m 562.77051,119.33594 c 1.68747,-1.78124 3.23435,-3.98437 4.64062,-6.60938 l 1.96875,2.8125 c -1.12502,2.25001 -2.8594,4.59376 -5.20312,7.03125 -2.34377,2.4375 -4.64065,4.26563 -6.89063,5.48438 l -1.6875,-2.8125 0,-25.734378 2.8125,0 0,23.765628 c 1.12498,-0.65625 2.57811,-1.96875 4.35938,-3.9375 z m -12.375,-17.57813 0,11.53125 c -10e-6,3.65626 -0.51564,6.60938 -1.54688,8.85938 -1.03125,2.34375 -2.71875,4.35937 -5.0625,6.04687 l -1.96875,-2.67187 c 1.96875,-1.5 3.32812,-3.14062 4.07813,-4.92188 1.12499,-2.71874 1.68749,-5.15624 1.6875,-7.3125 l 0,-11.53125 z"
         style="font-size:36px;font-family:MS UI Gothic;-inkscape-font-specification:MS UI Gothic"
         id="path3040" />
    </g>
  </g>
</svg>
