<?xml version="1.0" encoding="UTF-8" standalone="no"?>
<svg
   xmlns:dc="http://purl.org/dc/elements/1.1/"
   xmlns:cc="http://creativecommons.org/ns#"
   xmlns:rdf="http://www.w3.org/1999/02/22-rdf-syntax-ns#"
   xmlns:svg="http://www.w3.org/2000/svg"
   xmlns="http://www.w3.org/2000/svg"
   xmlns:xlink="http://www.w3.org/1999/xlink"
   xmlns:sodipodi="http://sodipodi.sourceforge.net/DTD/sodipodi-0.dtd"
   xmlns:inkscape="http://www.inkscape.org/namespaces/inkscape"
   width="1087"
   height="395"
   version="1.1"
   id="svg2"
   inkscape:version="0.48.1 "
   sodipodi:docname="new-maintenance-model+ltss.svg">
  <metadata
     id="metadata195">
    <rdf:RDF>
      <cc:Work
         rdf:about="">
        <dc:format>image/svg+xml</dc:format>
        <dc:type
           rdf:resource="http://purl.org/dc/dcmitype/StillImage" />
      </cc:Work>
    </rdf:RDF>
  </metadata>
  <sodipodi:namedview
     pagecolor="#ffffff"
     bordercolor="#666666"
     borderopacity="1"
     objecttolerance="10"
     gridtolerance="10"
     guidetolerance="10"
     inkscape:pageopacity="0"
     inkscape:pageshadow="2"
     inkscape:window-width="1920"
     inkscape:window-height="1033"
     id="namedview193"
     showgrid="false"
     inkscape:zoom="1.1575153"
     inkscape:cx="543.5"
     inkscape:cy="197.5"
     inkscape:window-x="-4"
     inkscape:window-y="-4"
     inkscape:window-maximized="1"
     inkscape:current-layer="svg2" />
  <defs
     id="defs86">
    <linearGradient
       id="linearGradient5393">
      <stop
         style="stop-color:#ffffff;stop-"
         offset="0"
         id="stop5395" />
      <stop
         style="stop-color:#ffffff;stop-opacity:0;"
         offset="1"
         id="stop5397" />
    </linearGradient>
    <linearGradient
       xlink:href="#linearGradient5393"
       id="linearGradient5399"
       x1="1109.5564"
       y1="41.785362"
       x2="967.62579"
       y2="41.785362"
       gradientUnits="userSpaceOnUse" />
  </defs>
  <rect
     ry="3"
     rx="3"
     y="357"
     x="1"
     height="28"
     width="1037.5"
     style="fill:#71d6e0"
     id="rect9" />
  <path
     d="M 1086,371 1036,357 l 0,28 50,-14 z"
     style="fill:#71d6e0;"
     id="path11" />
  <g
     style="font-size:18.75px;font-weight:600;fill:#5f5f5f;font-family:Open Sans"
     id="text13">
    <path
       d="m 548.33355,376.83076 c -0.64393,-1.06124 -1.16731,-1.84993 -1.57013,-2.36606 l 1.45283,-1.01624 c 0.47072,0.48295 1.03034,1.25313 1.67885,2.31057 l -1.56155,1.07173 z m 2.86789,0.63916 c 0.0572,0 0.0858,-0.0347 0.0858,-0.10414 l 0,-4.05407 -6.03218,0 0,-1.73035 6.03218,0 0,-1.50089 -6.41899,0 0,6.82182 -1.62392,0 0,-0.57449 -2.03876,0 0,1.29261 -1.62335,0 0,-13.57956 5.28603,0 0,4.3087 3.97739,0 0,-1.71604 -3.08761,0 0,-1.73092 3.08761,0 0,-2.4416 1.56555,0 c 0.51765,0.0897 0.60882,0.32465 0.27352,0.70496 l 0,1.73664 3.66268,0 0,1.73092 -3.66268,0 0,1.71604 5.02682,0 0,1.73092 -2.58522,0 0,1.50089 2.15435,0 0,1.73035 -2.15435,0 0,4.55646 c -2e-5,0.88806 -0.45015,1.33209 -1.35041,1.33209 l -1.67541,0 -0.32101,-1.73034 z m -9.99584,-8.40225 2.03876,0 0,-3.2959 -2.03876,0 z m 0,5.52978 2.03876,0 0,-3.79887 -2.03876,0 z"
       style="font-style:normal;font-variant:normal;font-weight:bold;font-stretch:normal;font-family:MS UI Gothic;-inkscape-font-specification:MS UI Gothic Bold"
       id="path3109" />
    <path
       d="m 571.78364,377.39782 c 0.0572,0 0.0858,-0.0347 0.0858,-0.10414 l 0,-8.07495 -2.38381,0 -2.78663,0 0,-6.11115 7.0095,0 0,14.68907 c -10e-6,0.88806 -0.45015,1.33209 -1.3504,1.33209 l -1.62048,0 -0.16079,-1.73092 1.20678,0 z m -4.00772,-3.08075 -3.4029,0 0,1.07002 3.4029,0 z m 0,-2.72884 -3.4029,0 0,1.21364 3.4029,0 z m 1.83906,-1.5152 0,7.40375 -1.83906,0 0,-0.57449 -3.4029,0 0,1.14899 -1.83907,0 0,-7.97825 z m 2.25449,-4.66747 0,-0.78278 -3.33138,0 0,0.78278 z m 0,1.51519 -3.33138,0 0,0.78278 3.33138,0 z m -8.47378,0 -3.25985,0 0,0.78278 3.25985,0 z m 0,-1.51519 0,-0.78278 -3.25985,0 0,0.78278 z m 1.83907,3.81317 -5.09892,0 0,9.98153 -1.83906,0 0,-16.09268 6.93798,0 z"
       style="font-style:normal;font-variant:normal;font-weight:bold;font-stretch:normal;font-family:MS UI Gothic;-inkscape-font-specification:MS UI Gothic Bold"
       id="path3111" />
  </g>
  <rect
     ry="5"
     rx="5"
     y="169"
     x="1"
     height="166"
     width="968"
     style="fill:#ededed;"
     id="rect15" />
  <rect
     style="fill:#02d35f"
     width="190"
     height="26"
     x="425"
     y="213"
     id="rect17" />
  <rect
     style="fill:#02d35f"
     width="190"
     height="26"
     x="155"
     y="265"
     id="rect19" />
  <g
     style="font-size:18.75px;font-weight:600;fill:#00c081;font-family:Open Sans"
     id="text21">
    <path
       d="m 26.670044,203.12851 c -10e-6,1.2085 -0.434885,2.16065 -1.304627,2.85644 -0.869758,0.69581 -2.079779,1.04371 -3.630065,1.04371 -1.428226,0 -2.691653,-0.26856 -3.790284,-0.80567 l 0,-2.63672 c 0.903319,0.40284 1.667783,0.68665 2.293396,0.85144 0.625607,0.1648 1.197811,0.2472 1.716614,0.2472 0.622553,0 1.100153,-0.11902 1.4328,-0.35706 0.332635,-0.23803 0.498956,-0.59204 0.498963,-1.06201 -7e-6,-0.26245 -0.07325,-0.49591 -0.219727,-0.70038 -0.146491,-0.20446 -0.361639,-0.4013 -0.645447,-0.59051 -0.283819,-0.18921 -0.862126,-0.49133 -1.734924,-0.90638 -0.817874,-0.38451 -1.431277,-0.75377 -1.84021,-1.10779 -0.408937,-0.35399 -0.735475,-0.76598 -0.979614,-1.23596 -0.244142,-0.46996 -0.366212,-1.01927 -0.366211,-1.64795 -1e-6,-1.18407 0.401305,-2.11485 1.203918,-2.79235 0.80261,-0.67748 1.911923,-1.01623 3.327942,-1.01624 0.695795,1e-5 1.359552,0.0824 1.991272,0.24719 0.631706,0.16481 1.292411,0.39674 1.982117,0.6958 l -0.915527,2.20642 c -0.71412,-0.29295 -1.304634,-0.49742 -1.771546,-0.6134 -0.466925,-0.11595 -0.926214,-0.17394 -1.377868,-0.17395 -0.537115,1e-5 -0.949102,0.12513 -1.235962,0.37537 -0.286869,0.25025 -0.430302,0.57679 -0.430298,0.97961 -4e-6,0.25025 0.05798,0.46846 0.17395,0.6546 0.115963,0.18617 0.300594,0.36622 0.553894,0.54016 0.253291,0.17396 0.852961,0.48677 1.799011,0.93842 1.251213,0.59815 2.108757,1.19782 2.572632,1.79901 0.463858,0.6012 0.695791,1.3382 0.695801,2.211 z"
       style="font-size:18.75px;font-weight:600;fill:#00c081;font-family:Open Sans"
       id="path3227" />
    <path
       d="m 29.096191,206.84555 0,-13.38501 2.838135,0 0,11.04126 5.429077,0 0,2.34375 z"
       style="font-size:18.75px;font-weight:600;fill:#00c081;font-family:Open Sans"
       id="path3229" />
    <path
       d="m 47.388428,206.84555 -7.708741,0 0,-13.38501 7.708741,0 0,2.32544 -4.870606,0 0,2.93884 4.531861,0 0,2.32544 -4.531861,0 0,3.45154 4.870606,0 z"
       style="font-size:18.75px;font-weight:600;fill:#00c081;font-family:Open Sans"
       id="path3231" />
    <path
       d="m 58.090942,203.12851 c -9e-6,1.2085 -0.434884,2.16065 -1.304626,2.85644 -0.869758,0.69581 -2.079779,1.04371 -3.630066,1.04371 -1.428226,0 -2.691652,-0.26856 -3.790283,-0.80567 l 0,-2.63672 c 0.903318,0.40284 1.667783,0.68665 2.293396,0.85144 0.625606,0.1648 1.19781,0.2472 1.716614,0.2472 0.622553,0 1.100152,-0.11902 1.4328,-0.35706 0.332635,-0.23803 0.498955,-0.59204 0.498962,-1.06201 -7e-6,-0.26245 -0.07325,-0.49591 -0.219726,-0.70038 -0.146491,-0.20446 -0.36164,-0.4013 -0.645447,-0.59051 -0.283819,-0.18921 -0.862127,-0.49133 -1.734924,-0.90638 -0.817875,-0.38451 -1.431278,-0.75377 -1.84021,-1.10779 -0.408938,-0.35399 -0.735476,-0.76598 -0.979615,-1.23596 -0.244141,-0.46996 -0.366212,-1.01927 -0.366211,-1.64795 -10e-7,-1.18407 0.401305,-2.11485 1.203919,-2.79235 0.802609,-0.67748 1.911922,-1.01623 3.327942,-1.01624 0.695794,1e-5 1.359551,0.0824 1.991272,0.24719 0.631705,0.16481 1.29241,0.39674 1.982116,0.6958 l -0.915527,2.20642 c -0.714119,-0.29295 -1.304634,-0.49742 -1.771545,-0.6134 -0.466926,-0.11595 -0.926215,-0.17394 -1.377869,-0.17395 -0.537114,1e-5 -0.949101,0.12513 -1.235962,0.37537 -0.286869,0.25025 -0.430301,0.57679 -0.430298,0.97961 -3e-6,0.25025 0.05798,0.46846 0.17395,0.6546 0.115963,0.18617 0.300594,0.36622 0.553895,0.54016 0.253291,0.17396 0.85296,0.48677 1.799011,0.93842 1.251213,0.59815 2.108756,1.19782 2.572632,1.79901 0.463857,0.6012 0.695791,1.3382 0.6958,2.211 z"
       style="font-size:18.75px;font-weight:600;fill:#00c081;font-family:Open Sans"
       id="path3233" />
    <path
       d="m 71.448486,206.84555 -2.828979,0 0,-7.74536 0.02747,-1.27258 0.04578,-1.39161 c -0.469975,0.46999 -0.796513,0.77821 -0.979614,0.92469 l -1.538086,1.23596 -1.364136,-1.70288 4.312134,-3.43323 2.325439,0 z"
       style="font-size:18.75px;font-weight:600;fill:#00c081;font-family:Open Sans"
       id="path3235" />
    <path
       d="m 82.141846,206.84555 -2.82898,0 0,-7.74536 0.02747,-1.27258 0.04578,-1.39161 c -0.469975,0.46999 -0.796513,0.77821 -0.979614,0.92469 l -1.538086,1.23596 -1.364136,-1.70288 4.312134,-3.43323 2.32544,0 z"
       style="font-size:18.75px;font-weight:600;fill:#00c081;font-family:Open Sans"
       id="path3237" />
  </g>
  <rect
     style="fill:#02d35f"
     width="190"
     height="26"
     x="20"
     y="291"
     id="rect23" />
  <rect
     style="opacity:0.5;fill:#92ecba"
     width="55"
     height="52"
     x="155"
     y="265"
     id="rect25" />
  <rect
     style="fill:#02d35f"
     width="190"
     height="26"
     x="290"
     y="239"
     id="rect27" />
  <rect
     style="opacity:0.5;fill:#92ecba"
     width="55"
     height="52"
     x="290"
     y="239"
     id="rect29" />
  <rect
     style="opacity:0.5;fill:#92ecba"
     width="55"
     height="52"
     x="425"
     y="213"
     id="rect31" />
  <rect
     style="fill:#02d35f"
     width="230"
     height="26"
     x="560"
     y="187"
     id="rect33" />
  <rect
     style="opacity:0.5;fill:#92ecba"
     width="55"
     height="52"
     x="560"
     y="187"
     id="rect35" />
  <rect
     style="fill:#a5efc6"
     width="160"
     height="26"
     x="210"
     y="291"
     id="rect37" />
  <rect
     style="fill:#a5efc6"
     width="160"
     height="26"
     x="345"
     y="265"
     id="rect39" />
  <rect
     style="fill:#a5efc6"
     width="160"
     height="26"
     x="480"
     y="239"
     id="rect41" />
  <rect
     style="fill:#a5efc6"
     width="160"
     height="26"
     x="615"
     y="213"
     id="rect43" />
  <rect
     style="fill:#a5efc6"
     width="160"
     height="26"
     x="790"
     y="187"
     id="rect45" />
  <rect
     y="211"
     x="560"
     height="2"
     width="390"
     style="fill:#a7a9ac;fill-opacity:0.58823529;"
     id="rect47" />
  <rect
     y="289"
     x="155"
     height="2"
     width="350"
     style="fill:#a7a9ac;fill-opacity:0.58823529;"
     id="rect49" />
  <rect
     y="315"
     x="20"
     height="2"
     width="350"
     style="fill:#a7a9ac;fill-opacity:0.58823529;"
     id="rect51" />
  <rect
     y="263"
     x="290"
     height="2"
     width="350"
     style="fill:#a7a9ac;fill-opacity:0.58823529;"
     id="rect53" />
  <rect
     y="237"
     x="425"
     height="2"
     width="350"
     style="fill:#a7a9ac;fill-opacity:0.58823529;"
     id="rect55" />
  <rect
     style="fill:#5f5f5f"
     width="356.58939"
     height="36"
     x="406"
     y="310"
     rx="2.1395361"
     ry="3"
     id="rect57" />
  <g
     style="font-size:18.75px;fill:#00c081;font-family:Open Sans"
     id="text59">
    <path
       d="m 442.05499,334.5058 c -4.19923,-0.97656 -6.98243,-3.19824 -8.34961,-6.66504 l -2.2705,0 0,4.83398 4.10156,-0.73242 0.29297,1.24512 -7.54395,1.53808 c -0.0488,0.39063 -0.1709,0.48828 -0.36621,0.29297 l -0.51269,-1.75781 2.56347,-0.36621 0,-5.05371 -3.51562,0 0,-1.3916 3.51562,0 0,-7.91016 10.54688,0 0,1.3916 -9.08203,0 0,1.09864 8.05664,0 0,1.3916 -8.05664,0 0,1.24511 8.20312,0 0,1.39161 -8.20312,0 0,1.3916 11.27929,0 0,1.3916 -7.54394,0 c 0.29296,0.63477 0.83006,1.34278 1.61133,2.12402 l 2.34375,-1.83105 1.24511,0.8789 c 0.34178,0.24415 0.26854,0.36622 -0.21972,0.36622 l -2.27051,1.53808 c 0.97655,0.6836 2.66112,1.34278 5.05371,1.97754 z"
       style="font-style:normal;font-variant:normal;font-weight:normal;font-stretch:normal;font-family:MS UI Gothic;-inkscape-font-specification:MS UI Gothic"
       id="path3114" />
    <path
       d="m 445.20441,333.33392 c 1.12304,-0.92773 2.0996,-2.07519 2.92968,-3.44238 l 1.24512,0.80566 c 0.34179,0.24415 0.26855,0.39063 -0.21973,0.43946 -0.78125,1.26953 -1.68457,2.41699 -2.70996,3.44238 z m 14.20898,-4.6875 -2.56348,0 c -0.0977,2.5879 -1.31837,4.66309 -3.6621,6.22559 l -1.0254,-1.24512 c 2.14843,-1.31836 3.22265,-3.07617 3.22266,-5.27344 l 0,-9.52148 5.49316,0 0,14.64844 c -10e-6,0.78125 -0.39064,1.17187 -1.17187,1.17187 l -1.53809,0 -0.14648,-1.61133 1.09863,0 c 0.1953,0 0.29296,-0.0976 0.29297,-0.29296 z m -6.95801,4.24805 c -0.58594,-0.68359 -1.26954,-1.34277 -2.05078,-1.97754 l 1.09863,-1.02539 c 0.8789,0.63477 1.58691,1.24512 2.12403,1.83106 z m 6.95801,-8.42285 -2.56348,0 0,2.7832 2.56348,0 z m 0,-4.24805 -2.56348,0 0,2.85645 2.56348,0 z m -7.91016,6.5918 -2.92968,0 0,1.53808 2.92968,0 z m 0,-2.56348 -2.92968,0 0,1.3916 2.92968,0 z m 0,-2.49023 -2.92968,0 0,1.31836 2.92968,0 z m 3.07618,-1.17188 0,1.17188 -1.83106,0 0,6.59179 2.05078,0 0,1.17188 -9.81445,0 0,-1.17188 2.34375,0 0,-6.59179 -1.9043,0 0,-1.17188 1.9043,0 0,-2.49023 1.17188,0 c 0.48827,0.0488 0.51269,0.19533 0.0732,0.43945 l 0,2.05078 2.92968,0 0,-2.49023 1.17188,0 c 0.48827,0.0488 0.51269,0.19533 0.0732,0.43945 l 0,2.05078 z"
       style="font-style:normal;font-variant:normal;font-weight:normal;font-stretch:normal;font-family:MS UI Gothic;-inkscape-font-specification:MS UI Gothic"
       id="path3116" />
    <path
       d="m 474.20831,322.78705 3.00293,0 0,1.3916 -3.00293,0 0,2.12402 c -10e-6,2.19727 -0.39063,3.88184 -1.17187,5.05371 -0.83009,1.26954 -2.36817,2.27051 -4.61426,3.00293 l -0.87891,-1.46484 c 2.09961,-0.58594 3.46679,-1.34277 4.10157,-2.27051 0.73241,-0.92773 1.09862,-2.36816 1.09863,-4.32129 l 0,-2.12402 -5.05371,0 0,4.24805 -1.46485,0 0,-4.24805 -2.56347,0 0,-1.3916 2.56347,0 0,-3.95508 1.46485,0 0,3.95508 5.05371,0 0,-4.24805 1.46484,0 z"
       style="font-style:normal;font-variant:normal;font-weight:normal;font-stretch:normal;font-family:MS UI Gothic;-inkscape-font-specification:MS UI Gothic"
       id="path3118" />
    <path
       d="m 491.93292,325.27728 0,1.61133 -12.74414,0 0,-1.61133 z"
       style="font-style:normal;font-variant:normal;font-weight:normal;font-stretch:normal;font-family:MS UI Gothic;-inkscape-font-specification:MS UI Gothic"
       id="path3120" />
    <path
       d="m 505.99542,318.68549 0,2.85644 -1.24511,0 0,-2.85644 z m -1.97754,0 0,2.85644 -1.24511,0 0,-2.85644 z m -7.69043,12.59765 c 0,0.83008 0.3418,1.24512 1.02539,1.24512 l 6.95801,0 -0.29297,1.3916 -6.73828,0 c -1.61133,0 -2.41699,-0.90332 -2.41699,-2.70996 l 0,-12.23145 1.46484,0 0,4.98047 c 2.19726,-0.39061 4.54101,-1.02538 7.03125,-1.90429 l 0.80567,1.46484 c -1.85548,0.73243 -4.46778,1.3672 -7.83692,1.9043 l 0,5.85937 z"
       style="font-style:normal;font-variant:normal;font-weight:normal;font-stretch:normal;font-family:MS UI Gothic;-inkscape-font-specification:MS UI Gothic"
       id="path3122" />
    <path
       d="m 517.64093,321.46869 c -10e-6,2.05079 -0.56153,4.02833 -1.68457,5.93262 1.66015,1.5625 3.22264,3.27148 4.6875,5.12695 l -1.17188,1.3916 c -1.70899,-2.49023 -3.14942,-4.24804 -4.32128,-5.27344 -1.80665,2.5879 -4.07716,4.49219 -6.81153,5.71289 l -0.8789,-1.46484 c 2.49023,-1.02539 4.56542,-2.68554 6.22558,-4.98047 1.56249,-2.0996 2.34374,-4.15038 2.34375,-6.15234 l -7.39746,0 0,-1.61133 9.00879,0 0,1.31836 z"
       style="font-style:normal;font-variant:normal;font-weight:normal;font-stretch:normal;font-family:MS UI Gothic;-inkscape-font-specification:MS UI Gothic"
       id="path3124" />
    <path
       d="m 534.04718,317.51361 c 0.58592,-0.0488 1.09862,0.12209 1.53809,0.5127 0.48826,0.43946 0.7324,0.95216 0.73242,1.53808 -0.0489,0.63478 -0.26857,1.14748 -0.65918,1.53809 -0.39064,0.43946 -0.87892,0.63478 -1.46485,0.58594 -0.63477,10e-6 -1.14747,-0.24413 -1.53808,-0.73243 -0.39064,-0.43944 -0.56154,-0.95213 -0.5127,-1.53808 0.0488,-0.48827 0.24413,-0.92772 0.58594,-1.31836 0.39061,-0.39061 0.83007,-0.58592 1.31836,-0.58594 z m -2.63672,2.19727 c 1.07421,1.75782 1.97753,3.78419 2.70996,6.0791 0.83007,2.53907 1.36718,4.83398 1.61133,6.88476 l -1.68457,0.73243 c -0.24415,-2.29492 -0.73243,-4.61426 -1.46484,-6.95801 -0.73244,-2.4414 -1.56251,-4.41894 -2.49024,-5.93262 l 1.31836,-0.80566 z m -9.81445,12.67089 c 2.34375,-3.12499 3.51562,-7.34862 3.51562,-12.67089 l 1.61133,0.29297 c 0,5.46875 -1.24512,10.05859 -3.73535,13.76953 l -1.3916,-1.39161 z m 12.52441,-11.79199 c 0.39061,2e-5 0.68358,-0.0976 0.87891,-0.29297 0.24412,-0.1953 0.34178,-0.43944 0.29297,-0.73242 -2e-5,-0.29295 -0.0977,-0.53709 -0.29297,-0.73242 -0.19533,-0.1953 -0.46388,-0.29295 -0.80567,-0.29297 -0.29298,2e-5 -0.53712,0.0977 -0.73242,0.29297 -0.19532,0.19533 -0.29298,0.43947 -0.29297,0.73242 -10e-6,0.29298 0.0977,0.53712 0.29297,0.73242 0.1953,0.19533 0.41503,0.29299 0.65918,0.29297 z"
       style="font-style:normal;font-variant:normal;font-weight:normal;font-stretch:normal;font-family:MS UI Gothic;-inkscape-font-specification:MS UI Gothic"
       id="path3126" />
    <path
       d="m 541.81085,322.12787 c 0.68359,1.07423 1.29394,2.27052 1.83106,3.58887 l -1.3916,0.65918 c -0.58595,-1.51367 -1.14747,-2.73437 -1.68458,-3.66211 z m 2.49024,7.17773 c 0.87889,-1.46484 1.29393,-3.61327 1.24511,-6.44531 l 1.39161,0.14648 c -0.0488,2.97853 -0.56154,5.32228 -1.53809,7.03125 -0.97657,1.75782 -2.66114,3.17383 -5.05371,4.24805 l -0.95215,-1.24512 c 2.39257,-0.83007 4.02831,-2.07519 4.90723,-3.73535 z m -5.71289,-5.63965 c 0.43945,0.63478 1.02538,1.85548 1.75781,3.66211 l -1.3916,0.65918 c -0.58594,-1.51366 -1.14747,-2.75878 -1.68457,-3.73535 z"
       style="font-style:normal;font-variant:normal;font-weight:normal;font-stretch:normal;font-family:MS UI Gothic;-inkscape-font-specification:MS UI Gothic"
       id="path3128" />
    <path
       d="m 559.16925,320.80951 0,2.41699 c -1e-5,2.78321 -0.73243,5.15137 -2.19727,7.10449 -1.26953,1.80665 -3.10059,3.14942 -5.49316,4.02832 l -1.17187,-1.3916 c 2.49022,-0.8789 4.34569,-2.0996 5.5664,-3.66211 1.2207,-1.61132 1.83105,-3.63768 1.83106,-6.0791 l 0,-1.02539 -5.71289,0 c -0.39063,2.34376 -1.26954,4.19923 -2.63672,5.56641 l -1.17188,-1.17188 c 1.02539,-0.97655 1.70898,-2.12401 2.05078,-3.44238 0.29297,-1.12304 0.41504,-2.61229 0.36621,-4.46777 l 1.61133,0 c 0,0.78126 -0.0244,1.48927 -0.0732,2.12402 z"
       style="font-style:normal;font-variant:normal;font-weight:normal;font-stretch:normal;font-family:MS UI Gothic;-inkscape-font-specification:MS UI Gothic"
       id="path3130" />
    <path
       d="m 571.84015,322.78705 3.00293,0 0,1.3916 -3.00293,0 0,2.12402 c -10e-6,2.19727 -0.39064,3.88184 -1.17188,5.05371 -0.83008,1.26954 -2.36817,2.27051 -4.61425,3.00293 l -0.87891,-1.46484 c 2.0996,-0.58594 3.46679,-1.34277 4.10156,-2.27051 0.73241,-0.92773 1.09863,-2.36816 1.09864,-4.32129 l 0,-2.12402 -5.05372,0 0,4.24805 -1.46484,0 0,-4.24805 -2.56348,0 0,-1.3916 2.56348,0 0,-3.95508 1.46484,0 0,3.95508 5.05372,0 0,-4.24805 1.46484,0 z"
       style="font-style:normal;font-variant:normal;font-weight:normal;font-stretch:normal;font-family:MS UI Gothic;-inkscape-font-specification:MS UI Gothic"
       id="path3132" />
    <path
       d="m 588.09991,317.51361 c 0.63476,-0.0488 1.17187,0.1465 1.61133,0.58594 0.39061,0.34181 0.58593,0.78126 0.58594,1.31836 0.0488,0.58595 -0.12208,1.09864 -0.5127,1.53808 -0.43946,0.4883 -0.95216,0.73244 -1.53808,0.73243 -0.58595,10e-6 -1.07423,-0.19531 -1.46484,-0.58594 -0.39064,-0.39061 -0.61037,-0.90331 -0.65918,-1.53809 0.0488,-0.53709 0.26854,-1.02537 0.65918,-1.46484 0.39061,-0.39061 0.83006,-0.58592 1.31835,-0.58594 z m -0.95214,7.76367 c 1.22069,1.61134 2.24608,3.71094 3.07617,6.29883 l -1.61133,0.80566 c -0.78126,-2.78319 -1.709,-4.95604 -2.7832,-6.51855 z m -3.07618,-3.14941 5.63965,0 0,1.3916 -5.63965,0 0,10.7666 -1.46484,0 0,-10.7666 -5.63965,0 0,-1.3916 5.63965,0 0,-3.51563 1.46484,0 z m -7.25097,9.59473 c 1.26953,-1.46485 1.95312,-3.4668 2.05078,-6.00586 l 1.61133,0.21972 c -0.0977,2.53907 -0.80567,4.78516 -2.12403,6.73828 l -1.53808,-0.95214 z m 11.35254,-11.13282 c 0.29295,2e-5 0.53709,-0.0732 0.73242,-0.21972 0.24413,-0.1953 0.3662,-0.43944 0.36621,-0.73243 -10e-6,-0.34178 -0.0977,-0.61033 -0.29297,-0.80566 -0.19532,-0.1953 -0.43947,-0.29295 -0.73242,-0.29297 -0.29298,2e-5 -0.53712,0.0977 -0.73242,0.29297 -0.24416,0.24415 -0.34181,0.51271 -0.29297,0.80566 0.0488,0.29299 0.14647,0.51271 0.29297,0.65918 0.14647,0.19533 0.3662,0.29299 0.65918,0.29297 z"
       style="font-style:normal;font-variant:normal;font-weight:normal;font-stretch:normal;font-family:MS UI Gothic;-inkscape-font-specification:MS UI Gothic"
       id="path3134" />
    <path
       d="m 604.87238,325.27728 0,1.61133 -12.74415,0 0,-1.61133 z"
       style="font-style:normal;font-variant:normal;font-weight:normal;font-stretch:normal;font-family:MS UI Gothic;-inkscape-font-specification:MS UI Gothic"
       id="path3136" />
    <path
       d="m 612.12335,323.81244 c 2.58788,0.87891 4.76073,1.83106 6.51856,2.85644 l -0.95215,1.61133 c -0.53712,-0.39062 -1.3672,-0.85448 -2.49024,-1.3916 -1.12305,-0.5371 -2.14844,-0.97655 -3.07617,-1.31836 l 0,8.64258 -1.46484,0 0,-15.67383 1.46484,0 z"
       style="font-style:normal;font-variant:normal;font-weight:normal;font-stretch:normal;font-family:MS UI Gothic;-inkscape-font-specification:MS UI Gothic"
       id="path3138" />
    <path
       d="m 623.8421,334.57904 c -2.44141,-2.29492 -3.66211,-4.95605 -3.66211,-7.9834 0,-3.02733 1.2207,-5.68846 3.66211,-7.9834 l 0.80567,0.80567 c -2.2461,2.09962 -3.36915,4.49219 -3.36914,7.17773 -10e-6,2.68555 1.12304,5.07813 3.36914,7.17774 z"
       style="font-style:normal;font-variant:normal;font-weight:normal;font-stretch:normal;font-family:MS UI Gothic;-inkscape-font-specification:MS UI Gothic"
       id="path3140" />
    <path
       d="m 626.69855,320.37006 1.68457,0 0,11.13281 6.73828,0 0,1.3916 -8.42285,0 z"
       style="font-style:normal;font-variant:normal;font-weight:normal;font-stretch:normal;font-family:MS UI Gothic;-inkscape-font-specification:MS UI Gothic"
       id="path3142" />
    <path
       d="m 635.85382,320.37006 10.03418,0 0,1.3916 -4.1748,0 0,11.13281 -1.68457,0 0,-11.13281 -4.17481,0 z"
       style="font-style:normal;font-variant:normal;font-weight:normal;font-stretch:normal;font-family:MS UI Gothic;-inkscape-font-specification:MS UI Gothic"
       id="path3144" />
    <path
       d="m 647.7923,323.66595 c 0,-0.92772 0.34179,-1.73338 1.02539,-2.41699 0.68359,-0.68358 1.73339,-1.02538 3.14941,-1.02539 1.51367,1e-5 2.66113,0.39064 3.44238,1.17188 0.68359,0.6836 1.02539,1.48926 1.0254,2.41699 l -1.68457,0 c -10e-6,-0.58593 -0.19533,-1.07421 -0.58594,-1.46484 -0.43946,-0.43945 -1.12306,-0.65917 -2.05078,-0.65918 -1.0254,10e-6 -1.73341,0.19532 -2.12403,0.58593 -0.3418,0.34181 -0.5127,0.73244 -0.51269,1.17188 -10e-6,0.43946 0.0977,0.75684 0.29297,0.95215 0.24413,0.24415 0.68359,0.48829 1.31836,0.73242 1.12304,0.48829 2.39257,1.04981 3.80859,1.68457 0.39062,0.14649 0.75683,0.39063 1.09863,0.73242 0.5371,0.53711 0.80566,1.17188 0.80567,1.9043 -1e-5,0.97656 -0.34181,1.80664 -1.02539,2.49023 -0.73243,0.73242 -1.92872,1.09863 -3.58887,1.09863 -1.61133,0 -2.85645,-0.43945 -3.73535,-1.31835 -0.63477,-0.63477 -0.95215,-1.5625 -0.95215,-2.78321 l 1.68457,0 c 0,0.87891 0.19531,1.51368 0.58594,1.9043 0.5371,0.53711 1.36718,0.80566 2.49023,0.80566 1.02538,0 1.78222,-0.24414 2.27051,-0.73242 0.39062,-0.39062 0.58593,-0.78125 0.58594,-1.17187 -1e-5,-0.43945 -0.1465,-0.80566 -0.43946,-1.09864 -0.24415,-0.24413 -0.63477,-0.48827 -1.17187,-0.73242 -0.48829,-0.24413 -1.12305,-0.5371 -1.9043,-0.8789 -0.87891,-0.39062 -1.58692,-0.70801 -2.12402,-0.95215 -0.39063,-0.14648 -0.73243,-0.36621 -1.02539,-0.65918 -0.43946,-0.43945 -0.65918,-1.02538 -0.65918,-1.75782 z"
       style="font-style:normal;font-variant:normal;font-weight:normal;font-stretch:normal;font-family:MS UI Gothic;-inkscape-font-specification:MS UI Gothic"
       id="path3146" />
    <path
       d="m 659.07159,323.66595 c 0,-0.92772 0.3418,-1.73338 1.02539,-2.41699 0.6836,-0.68358 1.7334,-1.02538 3.14942,-1.02539 1.51366,1e-5 2.66112,0.39064 3.44238,1.17188 0.68359,0.6836 1.02538,1.48926 1.02539,2.41699 l -1.68457,0 c -10e-6,-0.58593 -0.19532,-1.07421 -0.58594,-1.46484 -0.43946,-0.43945 -1.12305,-0.65917 -2.05078,-0.65918 -1.02539,10e-6 -1.7334,0.19532 -2.12402,0.58593 -0.3418,0.34181 -0.5127,0.73244 -0.5127,1.17188 0,0.43946 0.0977,0.75684 0.29297,0.95215 0.24414,0.24415 0.68359,0.48829 1.31836,0.73242 1.12304,0.48829 2.39257,1.04981 3.8086,1.68457 0.39061,0.14649 0.75682,0.39063 1.09863,0.73242 0.5371,0.53711 0.80565,1.17188 0.80566,1.9043 -10e-6,0.97656 -0.3418,1.80664 -1.02539,2.49023 -0.73243,0.73242 -1.92872,1.09863 -3.58886,1.09863 -1.61134,0 -2.85645,-0.43945 -3.73536,-1.31835 -0.63476,-0.63477 -0.95215,-1.5625 -0.95214,-2.78321 l 1.68457,0 c -10e-6,0.87891 0.19531,1.51368 0.58593,1.9043 0.53711,0.53711 1.36719,0.80566 2.49024,0.80566 1.02538,0 1.78222,-0.24414 2.27051,-0.73242 0.39061,-0.39062 0.58592,-0.78125 0.58593,-1.17187 -10e-6,-0.43945 -0.14649,-0.80566 -0.43945,-1.09864 -0.24415,-0.24413 -0.63477,-0.48827 -1.17188,-0.73242 -0.48828,-0.24413 -1.12305,-0.5371 -1.90429,-0.8789 -0.87891,-0.39062 -1.58692,-0.70801 -2.12403,-0.95215 -0.39062,-0.14648 -0.73242,-0.36621 -1.02539,-0.65918 -0.43945,-0.43945 -0.65918,-1.02538 -0.65918,-1.75782 z"
       style="font-style:normal;font-variant:normal;font-weight:normal;font-stretch:normal;font-family:MS UI Gothic;-inkscape-font-specification:MS UI Gothic"
       id="path3148" />
    <path
       d="m 672.84113,326.59564 c -10e-6,-2.68554 -1.12305,-5.07811 -3.36915,-7.17773 l 0.80567,-0.80567 c 2.4414,2.29494 3.6621,4.95607 3.66211,7.9834 -10e-6,3.02735 -1.22071,5.68848 -3.66211,7.9834 l -0.80567,-0.80566 c 2.2461,-2.09961 3.36914,-4.49219 3.36915,-7.17774 z"
       style="font-style:normal;font-variant:normal;font-weight:normal;font-stretch:normal;font-family:MS UI Gothic;-inkscape-font-specification:MS UI Gothic"
       id="path3150" />
    <path
       d="m 680.16534,334.87201 c -1.17188,-1.31836 -2.39258,-2.39258 -3.66211,-3.22266 l 1.09864,-1.46484 c 1.56249,0.92774 2.85644,1.97754 3.88183,3.14941 z"
       style="font-style:normal;font-variant:normal;font-weight:normal;font-stretch:normal;font-family:MS UI Gothic;-inkscape-font-specification:MS UI Gothic"
       id="path3152" />
    <path
       d="m 700.30695,332.6015 c -1.22072,1.07422 -2.44142,1.80664 -3.66211,2.19727 l -0.80567,-1.46485 c 1.31835,-0.39062 2.4414,-0.95214 3.36914,-1.68457 -0.87891,-1.02539 -1.56251,-2.14843 -2.05078,-3.36914 l -1.09863,0 0,-1.3916 6.29883,0 0.14648,-0.29297 1.24512,0.95215 c 0.0488,0.19532 -0.0733,0.31739 -0.36621,0.36621 -0.53713,1.41602 -1.24513,2.63672 -2.12403,3.66211 0.73241,0.58594 2.00194,1.09863 3.8086,1.53809 l -0.5127,1.53808 c -1.41603,-0.29297 -2.83204,-0.97656 -4.24804,-2.05078 z m -1.75782,-4.32129 c 0.63476,1.22071 1.19628,2.02637 1.68457,2.41699 0.43944,-0.43945 0.95214,-1.24511 1.53809,-2.41699 l -3.22266,0 z m -4.32129,3.51563 0,-1.24512 -2.70996,0 0,1.46484 z m 1.24512,3.00293 -1.24512,0 0,-1.83106 -5.12695,0.73242 c -0.24414,0.3418 -0.39063,0.41504 -0.43945,0.21973 l -0.43946,-1.75781 2.05079,-0.0732 0,-6.29883 -2.27051,0 0,-1.17188 16.77246,0 0,1.17188 -9.30176,0 z m -4.6875,-11.05957 0,-5.34668 11.20606,0 0,5.34668 z m 0.73242,2.05078 0,1.17187 2.70996,0 0,-1.17187 z m 0,2.34375 0,1.24512 2.70996,0 0,-1.24512 z m 0.73243,-6.51856 0,0.95215 8.27636,0 0,-0.95215 z m 0,-2.05078 0,0.87891 8.27636,0 0,-0.87891 z"
       style="font-style:normal;font-variant:normal;font-weight:normal;font-stretch:normal;font-family:MS UI Gothic;-inkscape-font-specification:MS UI Gothic"
       id="path3154" />
    <path
       d="m 707.04523,332.74799 c 4.49218,-1.5625 6.86034,-4.56543 7.10449,-9.00879 l -6.5918,0 0,-1.61133 6.73828,0 0,-3.88184 1.61133,0 c 0.48827,0.0977 0.51269,0.29299 0.0732,0.58594 l 0,3.2959 7.03125,0 0,1.61133 -6.88476,0 c 1.02538,4.05274 3.51561,6.93359 7.4707,8.64257 l -0.95215,1.75782 c -3.41798,-1.5625 -5.83497,-4.19922 -7.25097,-7.91016 -0.83009,4.00391 -3.39356,6.7627 -7.69043,8.27637 z"
       style="font-style:normal;font-variant:normal;font-weight:normal;font-stretch:normal;font-family:MS UI Gothic;-inkscape-font-specification:MS UI Gothic"
       id="path3156" />
    <path
       d="m 725.86847,323.95892 c 0,-1.12303 0.36621,-2.05077 1.09863,-2.7832 0.63476,-0.63475 1.41601,-0.95214 2.34375,-0.95215 1.07422,1e-5 1.92871,0.3174 2.56348,0.95215 0.58593,0.58595 0.8789,1.3672 0.8789,2.34375 0,0.97657 -0.24414,1.70899 -0.73242,2.19727 -0.3418,0.3418 -0.70801,0.53711 -1.09863,0.58593 0.48827,0.14649 0.90331,0.39063 1.24512,0.73243 0.58593,0.58594 0.8789,1.36719 0.8789,2.34375 0,1.07422 -0.3418,1.95312 -1.02539,2.63671 -0.6836,0.6836 -1.63574,1.02539 -2.85644,1.02539 -1.0254,0 -1.87989,-0.34179 -2.56348,-1.02539 -0.68359,-0.68359 -1.02539,-1.48925 -1.02539,-2.41699 l 0,-0.58594 1.68457,0 0,0.5127 c 0,0.63477 0.21972,1.17188 0.65918,1.61133 0.34179,0.3418 0.75683,0.51269 1.24512,0.51269 0.63476,0 1.14745,-0.19531 1.53808,-0.58593 0.39062,-0.39063 0.58593,-1.00098 0.58594,-1.83106 -1e-5,-0.68359 -0.19532,-1.2207 -0.58594,-1.61133 -0.39063,-0.39062 -0.83008,-0.58593 -1.31836,-0.58593 l -0.58593,0 0,-1.24512 0.43945,0 c 0.43945,10e-6 0.85449,-0.19531 1.24512,-0.58594 0.39062,-0.39062 0.58593,-0.95214 0.58593,-1.68457 0,-0.63476 -0.19531,-1.14745 -0.58593,-1.53809 -0.29298,-0.29295 -0.6836,-0.43944 -1.17188,-0.43945 -0.43946,1e-5 -0.83008,0.17091 -1.17187,0.5127 -0.39063,0.39063 -0.61036,1.0254 -0.65918,1.90429 z"
       style="font-style:normal;font-variant:normal;font-weight:normal;font-stretch:normal;font-family:MS UI Gothic;-inkscape-font-specification:MS UI Gothic"
       id="path3158" />
    <path
       d="m 739.85773,321.68842 c -0.92774,1.61133 -2.0752,2.95411 -3.44239,4.02832 l -1.02539,-1.31836 c 2.00195,-1.46484 3.36914,-3.58886 4.10157,-6.37207 l 1.68457,0.43945 c 0.1953,0.19533 0.12206,0.3174 -0.21973,0.36621 l -0.58594,1.46484 10.32715,0 0,1.39161 -5.34668,0 0,2.49023 4.39453,0 0,1.3916 -4.39453,0 0,3.2959 6.15234,0 0,1.3916 -6.15234,0 0,4.39453 -1.46484,0 0,-4.39453 -8.42285,0 0,-1.3916 3.29589,0 0,-4.6875 5.12696,0 0,-2.49023 -4.02832,0 z m 0.36621,7.17773 3.66211,0 0,-3.2959 -3.66211,0 z"
       style="font-style:normal;font-variant:normal;font-weight:normal;font-stretch:normal;font-family:MS UI Gothic;-inkscape-font-specification:MS UI Gothic"
       id="path3160" />
  </g>
  <path
     d="m 419.67562,340 -47.49269,-27.41992 -0.27268,2.15197 -6.91025,-8.03109 10.27663,1.89177 -1.65121,1.35607 47.5502,27.45312 -1.5,2.59808 z"
     style="fill:#5f5f5f;stroke:none"
     id="path61" />
  <path
     d="m 427,310 0,-23.83984 -2,0.83984 3.5,-10 3.5,9.84571 -2,-0.75196 L 430,310 Z"
     style="fill:#5f5f5f;stroke:none"
     id="path63" />
  <rect
     style="fill:#5f5f5f"
     width="400.51318"
     height="36"
     x="584.1073"
     y="261"
     rx="2.4078948"
     ry="3"
     id="rect65" />
  <g
     style="font-size:18.75px;fill:#00c081;font-family:Open Sans"
     id="text67">
    <path
       d="m 613.0589,283.56509 c -1.22072,1.07422 -2.44142,1.80664 -3.66211,2.19727 l -0.80566,-1.46484 c 1.31834,-0.39063 2.44139,-0.95215 3.36914,-1.68457 -0.87892,-1.02539 -1.56251,-2.14844 -2.05079,-3.36915 l -1.09863,0 0,-1.3916 6.29883,0 0.14648,-0.29297 1.24512,0.95215 c 0.0488,0.19532 -0.0733,0.31739 -0.36621,0.36621 -0.53712,1.41602 -1.24513,2.63673 -2.12402,3.66211 0.7324,0.58594 2.00193,1.09864 3.80859,1.53809 l -0.51269,1.53809 c -1.41604,-0.29297 -2.83205,-0.97657 -4.24805,-2.05079 z m -1.75781,-4.32129 c 0.63475,1.22071 1.19627,2.02637 1.68457,2.417 0.43944,-0.43945 0.95213,-1.24512 1.53808,-2.417 l -3.22265,0 z m -4.32129,3.51563 0,-1.24512 -2.70996,0 0,1.46485 z m 1.24511,3.00293 -1.24511,0 0,-1.83106 -5.12696,0.73243 c -0.24414,0.34179 -0.39062,0.41503 -0.43945,0.21972 l -0.43945,-1.75781 2.05078,-0.0732 0,-6.29883 -2.27051,0 0,-1.17187 16.77246,0 0,1.17187 -9.30176,0 z m -4.6875,-11.05957 0,-5.34668 11.20606,0 0,5.34668 z m 0.73243,2.05078 0,1.17188 2.70996,0 0,-1.17188 z m 0,2.34375 0,1.24512 2.70996,0 0,-1.24512 z m 0.73242,-6.51855 0,0.95214 8.27637,0 0,-0.95214 z m 0,-2.05079 0,0.87891 8.27637,0 0,-0.87891 z"
       style="font-style:normal;font-variant:normal;font-weight:normal;font-stretch:normal;font-family:MS UI Gothic;-inkscape-font-specification:MS UI Gothic"
       id="path3163" />
    <path
       d="m 626.24249,284.37076 c 2.00195,-1.07422 3.00292,-2.90527 3.00293,-5.49317 l 0,-8.42285 1.53809,0.29297 3.95508,-1.24512 1.09863,1.46485 c 0.0976,0.29298 -0.0733,0.34181 -0.5127,0.14648 l -4.61425,0.87891 0,3.14941 5.78613,0 0,1.3916 -2.19727,0 0,9.15528 -1.46484,0 0,-9.15528 -2.12402,0 0,2.78321 c -2e-5,2.88086 -1.22072,5.02929 -3.66211,6.44531 z m -1.3916,1.3916 -1.46484,0 0,-4.39453 c -0.78126,1.26953 -1.63575,2.27051 -2.56348,3.00293 l -1.09863,-1.31836 c 1.36718,-0.97656 2.51464,-2.19726 3.44238,-3.66211 l -3.07617,0 0,-1.3916 3.2959,0 0,-1.61133 -3.73535,0 0,-1.3916 5.12695,0 0.80566,-2.63672 -5.41992,0 0,-1.3916 3.22266,0 0,-2.05078 1.3916,0 c 0.39062,0.0488 0.41503,0.19532 0.0732,0.43945 l 0,1.61133 3.22266,0 0,1.3916 -0.95215,0 -1.02539,2.63672 2.34375,0 0,1.3916 -3.58887,0 0,1.61133 3.22266,0 0,1.3916 -3.22266,0 0,0.65918 c 0.68359,0.19532 1.63574,0.70801 2.85645,1.53808 l -0.87891,1.46485 c -0.6836,-0.68359 -1.34278,-1.2207 -1.97754,-1.61133 z m -2.92969,-10.91309 c -0.19531,-0.68358 -0.46387,-1.34276 -0.80566,-1.97754 l 1.3916,-0.43945 c 0.39062,0.63478 0.68359,1.29396 0.87891,1.97754 l -1.46485,0.43945 z"
       style="font-style:normal;font-variant:normal;font-weight:normal;font-stretch:normal;font-family:MS UI Gothic;-inkscape-font-specification:MS UI Gothic"
       id="path3165" />
    <path
       d="m 648.87433,273.75064 3.00293,0 0,1.3916 -3.00293,0 0,2.12403 c -10e-6,2.19727 -0.39064,3.88183 -1.17188,5.05371 -0.83008,1.26953 -2.36817,2.2705 -4.61425,3.00293 l -0.87891,-1.46485 c 2.0996,-0.58593 3.46679,-1.34277 4.10156,-2.27051 0.73241,-0.92773 1.09862,-2.36815 1.09863,-4.32128 l 0,-2.12403 -5.05371,0 0,4.24805 -1.46484,0 0,-4.24805 -2.56348,0 0,-1.3916 2.56348,0 0,-3.95508 1.46484,0 0,3.95508 5.05371,0 0,-4.24805 1.46485,0 z"
       style="font-style:normal;font-variant:normal;font-weight:normal;font-stretch:normal;font-family:MS UI Gothic;-inkscape-font-specification:MS UI Gothic"
       id="path3167" />
    <path
       d="m 666.59894,276.24088 0,1.61132 -12.74414,0 0,-1.61132 z"
       style="font-style:normal;font-variant:normal;font-weight:normal;font-stretch:normal;font-family:MS UI Gothic;-inkscape-font-specification:MS UI Gothic"
       id="path3169" />
    <path
       d="m 680.66144,269.64908 0,2.85644 -1.24512,0 0,-2.85644 z m -1.97754,0 0,2.85644 -1.24512,0 0,-2.85644 z m -7.69043,12.59765 c 0,0.83008 0.34179,1.24512 1.02539,1.24512 l 6.95801,0 -0.29297,1.3916 -6.73828,0 c -1.61133,0 -2.417,-0.90332 -2.41699,-2.70996 l 0,-12.23144 1.46484,0 0,4.98047 c 2.19726,-0.39062 4.54101,-1.02538 7.03125,-1.9043 l 0.80566,1.46484 c -1.85547,0.73243 -4.46778,1.3672 -7.83691,1.9043 l 0,5.85937 z"
       style="font-style:normal;font-variant:normal;font-weight:normal;font-stretch:normal;font-family:MS UI Gothic;-inkscape-font-specification:MS UI Gothic"
       id="path3171" />
    <path
       d="m 692.30695,272.43228 c -2e-5,2.05079 -0.56154,4.02833 -1.68457,5.93262 1.66014,1.5625 3.22264,3.27149 4.6875,5.12695 l -1.17188,1.3916 c -1.709,-2.49023 -3.14942,-4.24804 -4.32129,-5.27343 -1.80665,2.58789 -4.07715,4.49218 -6.81152,5.71289 l -0.87891,-1.46485 c 2.49023,-1.02539 4.56543,-2.68554 6.22559,-4.98047 1.56249,-2.0996 2.34374,-4.15038 2.34375,-6.15234 l -7.39746,0 0,-1.61133 9.00879,0 0,1.31836 z"
       style="font-style:normal;font-variant:normal;font-weight:normal;font-stretch:normal;font-family:MS UI Gothic;-inkscape-font-specification:MS UI Gothic"
       id="path3173" />
    <path
       d="m 708.7132,268.4772 c 0.58592,-0.0488 1.09861,0.12209 1.53808,0.5127 0.48827,0.43947 0.73241,0.95216 0.73242,1.53808 -0.0488,0.63478 -0.26857,1.14748 -0.65918,1.53809 -0.39064,0.43947 -0.87892,0.63478 -1.46484,0.58594 -0.63478,10e-6 -1.14747,-0.24413 -1.53809,-0.73242 -0.39063,-0.43944 -0.56153,-0.95214 -0.51269,-1.53809 0.0488,-0.48827 0.24413,-0.92772 0.58594,-1.31836 0.39061,-0.39061 0.83006,-0.58592 1.31836,-0.58594 z m -2.63672,2.19727 c 1.0742,1.75782 1.97752,3.78419 2.70996,6.0791 0.83006,2.53907 1.36717,4.83399 1.61133,6.88477 l -1.68457,0.73242 c -0.24416,-2.29492 -0.73244,-4.61426 -1.46485,-6.95801 -0.73243,-2.4414 -1.56251,-4.41893 -2.49023,-5.93262 l 1.31836,-0.80566 z m -9.81446,12.6709 c 2.34375,-3.125 3.51562,-7.34863 3.51563,-12.6709 l 1.61133,0.29297 c -10e-6,5.46876 -1.24512,10.05859 -3.73535,13.76953 l -1.39161,-1.3916 z m 12.52442,-11.79199 c 0.39061,10e-6 0.68358,-0.0976 0.8789,-0.29297 0.24413,-0.1953 0.34179,-0.43944 0.29297,-0.73243 -10e-6,-0.29295 -0.0977,-0.53709 -0.29297,-0.73242 -0.19532,-0.1953 -0.46388,-0.29295 -0.80566,-0.29297 -0.29298,2e-5 -0.53712,0.0977 -0.73242,0.29297 -0.19533,0.19533 -0.29298,0.43947 -0.29297,0.73242 -10e-6,0.29299 0.0976,0.53713 0.29297,0.73243 0.1953,0.19532 0.41502,0.29298 0.65918,0.29297 z"
       style="font-style:normal;font-variant:normal;font-weight:normal;font-stretch:normal;font-family:MS UI Gothic;-inkscape-font-specification:MS UI Gothic"
       id="path3175" />
    <path
       d="m 716.47687,273.09146 c 0.68359,1.07423 1.29394,2.27052 1.83105,3.58887 l -1.3916,0.65918 c -0.58594,-1.51367 -1.14746,-2.73437 -1.68457,-3.66211 z m 2.49023,7.17774 c 0.8789,-1.46484 1.29394,-3.61328 1.24512,-6.44532 l 1.3916,0.14649 c -0.0488,2.97852 -0.56153,5.32227 -1.53809,7.03125 -0.97657,1.75781 -2.66113,3.17383 -5.05371,4.24804 l -0.95214,-1.24511 c 2.39257,-0.83008 4.02831,-2.0752 4.90722,-3.73535 z m -5.71289,-5.63965 c 0.43945,0.63477 1.02539,1.85547 1.75781,3.66211 l -1.3916,0.65918 c -0.58594,-1.51367 -1.14746,-2.75878 -1.68457,-3.73536 z"
       style="font-style:normal;font-variant:normal;font-weight:normal;font-stretch:normal;font-family:MS UI Gothic;-inkscape-font-specification:MS UI Gothic"
       id="path3177" />
    <path
       d="m 733.83527,271.7731 0,2.41699 c -2e-5,2.78321 -0.73244,5.15138 -2.19727,7.1045 -1.26954,1.80664 -3.10059,3.14941 -5.49316,4.02832 l -1.17188,-1.39161 c 2.49023,-0.8789 4.3457,-2.0996 5.56641,-3.6621 1.22069,-1.61133 1.83104,-3.63769 1.83105,-6.07911 l 0,-1.02539 -5.71289,0 c -0.39063,2.34376 -1.26953,4.19923 -2.63672,5.56641 l -1.17187,-1.17188 c 1.02539,-0.97655 1.70898,-2.12401 2.05078,-3.44238 0.29296,-1.12303 0.41504,-2.61229 0.36621,-4.46777 l 1.61133,0 c -10e-6,0.78126 -0.0244,1.48927 -0.0732,2.12402 z"
       style="font-style:normal;font-variant:normal;font-weight:normal;font-stretch:normal;font-family:MS UI Gothic;-inkscape-font-specification:MS UI Gothic"
       id="path3179" />
    <path
       d="m 736.10577,275.50845 1.68457,0 0,1.61133 -1.68457,0 z m 0,6.73828 1.68457,0 0,1.61133 -1.68457,0 z"
       style="font-style:normal;font-variant:normal;font-weight:normal;font-stretch:normal;font-family:MS UI Gothic;-inkscape-font-specification:MS UI Gothic"
       id="path3181" />
    <path
       d="m 761.44757,276.02115 0,1.61133 -15.4541,0 0,-1.61133 z"
       style="font-style:normal;font-variant:normal;font-weight:normal;font-stretch:normal;font-family:MS UI Gothic;-inkscape-font-specification:MS UI Gothic"
       id="path3183" />
    <path
       d="m 772.4339,278.58463 0,-1.17188 6.29883,0 0.21972,-0.21973 1.09864,0.95215 c 0.14646,0.14649 0.0732,0.31739 -0.21973,0.5127 -0.68361,1.41602 -1.51369,2.58789 -2.49023,3.51562 0.43943,0.43946 1.66014,0.97657 3.6621,1.61133 l -0.58593,1.46484 c -1.51369,-0.43945 -2.88088,-1.12304 -4.10157,-2.05078 -1.46485,1.02539 -2.83204,1.68457 -4.10156,1.97754 l -0.43945,-1.3916 c 1.66015,-0.48828 2.80761,-1.00097 3.44238,-1.53809 -1.07423,-1.26952 -1.75782,-2.49023 -2.05078,-3.6621 z m 2.05078,0 c 0.48827,1.17187 1.09862,2.07519 1.83105,2.70996 0.92773,-0.83008 1.61132,-1.7334 2.05079,-2.70996 z m 0.14648,-7.39747 0,2.19727 c -10e-6,1.51368 -0.3418,2.68555 -1.02539,3.51562 l -1.09863,-0.65917 c 0.58593,-0.97656 0.8789,-1.90429 0.87891,-2.78321 l 0,-3.44238 4.98047,0 0,4.98047 c -2e-5,0.19532 0.0732,0.29298 0.21972,0.29297 l 0.43946,0 c 0.24412,1e-5 0.41502,-0.26855 0.51269,-0.80567 l 0.14649,-0.95215 1.31835,0.36622 -0.21972,1.24511 c -0.1465,0.87892 -0.56154,1.31837 -1.24512,1.31836 l -1.31836,0 c -0.73243,10e-6 -1.09864,-0.41503 -1.09863,-1.24512 l 0,-4.02832 z m -6.00585,1.53809 c 0.5371,1.12306 0.80565,2.14845 0.80566,3.07617 l -1.17188,0.36621 c -0.19531,-0.92772 -0.46387,-1.95311 -0.80566,-3.07617 z m -1.61133,-0.58594 0,4.83399 3.07617,-0.36621 0,-4.46778 z m 0,8.93555 c -10e-6,1.61133 -0.39063,3.17383 -1.17188,4.6875 l -1.24512,-0.80566 c 0.78125,-1.5625 1.17188,-3.10059 1.17188,-4.61426 l 0,-1.9043 -0.87891,0.14649 c -0.0488,0.3418 -0.1709,0.41504 -0.36621,0.21972 l -0.29297,-1.61133 1.53809,-0.0732 0,-6.15234 1.68457,0 0.5127,-2.27051 1.53808,0.36621 c 0.19531,0.19533 0.12207,0.3174 -0.21973,0.36621 l -0.65917,1.53809 2.70996,0 0,5.49316 0.65918,-0.0732 0,1.02539 -0.65918,0.14648 0,6.66504 c -1e-5,0.78125 -0.29298,1.17188 -0.87891,1.17188 l -1.3916,0 -0.36621,-1.17188 1.09863,0 c 0.19531,0 0.29296,-0.0976 0.29297,-0.29297 l 0,-6.15234 -3.07617,0.43945 0,2.85645 z m 0.95215,1.75781 0,-4.02832 1.24511,0 c 0.39062,0.0488 0.39062,0.17091 0,0.36621 l 0,3.66211 z"
       style="font-style:normal;font-variant:normal;font-weight:normal;font-stretch:normal;font-family:MS UI Gothic;-inkscape-font-specification:MS UI Gothic"
       id="path3185" />
    <path
       d="m 793.52765,273.75064 3.00293,0 0,1.3916 -3.00293,0 0,2.12403 c -10e-6,2.19727 -0.39064,3.88183 -1.17188,5.05371 -0.83008,1.26953 -2.36817,2.2705 -4.61425,3.00293 l -0.87891,-1.46485 c 2.0996,-0.58593 3.46679,-1.34277 4.10156,-2.27051 0.73241,-0.92773 1.09863,-2.36815 1.09864,-4.32128 l 0,-2.12403 -5.05372,0 0,4.24805 -1.46484,0 0,-4.24805 -2.56348,0 0,-1.3916 2.56348,0 0,-3.95508 1.46484,0 0,3.95508 5.05372,0 0,-4.24805 1.46484,0 z"
       style="font-style:normal;font-variant:normal;font-weight:normal;font-stretch:normal;font-family:MS UI Gothic;-inkscape-font-specification:MS UI Gothic"
       id="path3187" />
    <path
       d="m 809.78741,268.4772 c 0.63476,-0.0488 1.17187,0.1465 1.61133,0.58594 0.39061,0.34181 0.58593,0.78127 0.58594,1.31836 0.0488,0.58595 -0.12208,1.09865 -0.5127,1.53809 -0.43946,0.48829 -0.95216,0.73243 -1.53808,0.73242 -0.58595,10e-6 -1.07423,-0.1953 -1.46484,-0.58594 -0.39064,-0.39061 -0.61037,-0.90331 -0.65918,-1.53809 0.0488,-0.53709 0.26854,-1.02537 0.65918,-1.46484 0.39061,-0.39061 0.83006,-0.58592 1.31835,-0.58594 z m -0.95214,7.76368 c 1.22069,1.61133 2.24608,3.71094 3.07617,6.29882 l -1.61133,0.80567 c -0.78126,-2.7832 -1.709,-4.95605 -2.7832,-6.51856 z m -3.07618,-3.14942 5.63965,0 0,1.3916 -5.63965,0 0,10.7666 -1.46484,0 0,-10.7666 -5.63965,0 0,-1.3916 5.63965,0 0,-3.51562 1.46484,0 z m -7.25097,9.59473 c 1.26953,-1.46484 1.95312,-3.46679 2.05078,-6.00586 l 1.61133,0.21972 c -0.0977,2.53907 -0.80567,4.78516 -2.12403,6.73829 l -1.53808,-0.95215 z m 11.35254,-11.13281 c 0.29295,10e-6 0.53709,-0.0732 0.73242,-0.21973 0.24413,-0.1953 0.3662,-0.43944 0.36621,-0.73242 -10e-6,-0.34179 -0.0977,-0.61034 -0.29297,-0.80567 -0.19532,-0.1953 -0.43947,-0.29295 -0.73242,-0.29297 -0.29298,2e-5 -0.53712,0.0977 -0.73242,0.29297 -0.24416,0.24416 -0.34181,0.51271 -0.29297,0.80567 0.0488,0.29298 0.14647,0.51271 0.29297,0.65918 0.14647,0.19532 0.3662,0.29298 0.65918,0.29297 z"
       style="font-style:normal;font-variant:normal;font-weight:normal;font-stretch:normal;font-family:MS UI Gothic;-inkscape-font-specification:MS UI Gothic"
       id="path3189" />
    <path
       d="m 826.55988,276.24088 0,1.61132 -12.74415,0 0,-1.61132 z"
       style="font-style:normal;font-variant:normal;font-weight:normal;font-stretch:normal;font-family:MS UI Gothic;-inkscape-font-specification:MS UI Gothic"
       id="path3191" />
    <path
       d="m 833.81085,274.77603 c 2.58788,0.87892 4.76073,1.83106 6.51856,2.85645 l -0.95215,1.61132 c -0.53712,-0.39061 -1.3672,-0.85448 -2.49024,-1.3916 -1.12305,-0.5371 -2.14844,-0.97655 -3.07617,-1.31836 l 0,8.64258 -1.46484,0 0,-15.67383 1.46484,0 z"
       style="font-style:normal;font-variant:normal;font-weight:normal;font-stretch:normal;font-family:MS UI Gothic;-inkscape-font-specification:MS UI Gothic"
       id="path3193" />
    <path
       d="m 850.43683,276.90005 c 1.07421,-0.39061 2.31932,-0.83007 3.73535,-1.31835 l 0.5127,1.68457 c -1.61134,0.43946 -2.97853,0.85449 -4.10157,1.24511 l 0,3.51563 -1.46484,0 0,-2.92969 c -1.17188,0.53711 -1.97755,1.00098 -2.41699,1.3916 -0.53712,0.48829 -0.80567,1.00098 -0.80567,1.53809 0,0.83008 0.19531,1.34277 0.58594,1.53808 0.29296,0.14649 0.90331,0.21973 1.83106,0.21973 l 4.6875,0 0,1.61133 -4.6875,0 c -1.26954,0 -2.2461,-0.21973 -2.92969,-0.65918 -0.6836,-0.43945 -1.0254,-1.12305 -1.02539,-2.05078 -10e-6,-1.17187 0.29296,-2.09961 0.8789,-2.78321 0.68359,-0.83007 1.95312,-1.63573 3.8086,-2.41699 -0.0977,-0.92772 -0.48829,-1.46483 -1.17188,-1.61133 -0.92774,-0.14647 -1.7334,0.0977 -2.41699,0.73243 -0.19532,0.19532 -0.6836,0.90332 -1.46484,2.12402 l -1.39161,-1.02539 c 1.12305,-1.41601 2.00195,-2.97851 2.63672,-4.6875 l -2.85644,0 0,-1.61133 3.36914,0 c 0.29296,-0.83006 0.48827,-1.63573 0.58594,-2.41699 l 1.53808,0.43945 c -0.0977,0.63478 -0.26856,1.29396 -0.51269,1.97754 l 5.63965,0 0,1.61133 -6.15235,0 c -0.39063,1.0254 -0.83008,1.80665 -1.31836,2.34375 0.78125,-0.63476 1.70898,-0.92773 2.78321,-0.87891 1.12303,0.0977 1.83104,0.90333 2.12402,2.41699 z"
       style="font-style:normal;font-variant:normal;font-weight:normal;font-stretch:normal;font-family:MS UI Gothic;-inkscape-font-specification:MS UI Gothic"
       id="path3195" />
    <path
       d="m 856.51593,277.63248 c 0,-2.14843 0.56152,-3.78417 1.68457,-4.90723 1.02539,-1.02538 2.2705,-1.53807 3.73535,-1.53809 1.46484,2e-5 2.66113,0.46388 3.58887,1.39161 0.78124,0.78126 1.19628,1.7334 1.24512,2.85644 l -1.75782,0 c -0.0488,-0.83007 -0.3418,-1.51366 -0.8789,-2.05078 -0.53712,-0.5371 -1.26954,-0.80565 -2.19727,-0.80566 -0.92774,10e-6 -1.70899,0.31739 -2.34375,0.95214 -0.87891,0.87892 -1.31836,2.24611 -1.31836,4.10157 0,1.75781 0.46387,3.10059 1.3916,4.02832 0.63476,0.63476 1.51367,0.95215 2.63672,0.95215 0.83007,0 1.51367,-0.26856 2.05078,-0.80567 0.5371,-0.53711 0.85449,-1.09863 0.95215,-1.68457 l 0,-1.17187 -2.12402,0 0,-1.39161 3.80859,0 0,6.44532 -1.24511,0 -0.43946,-1.24512 c -0.83008,0.83008 -1.87989,1.24512 -3.14941,1.24512 -1.56251,0 -2.83204,-0.48828 -3.8086,-1.46485 -1.2207,-1.2207 -1.83105,-2.85644 -1.83105,-4.90722 z"
       style="font-style:normal;font-variant:normal;font-weight:normal;font-stretch:normal;font-family:MS UI Gothic;-inkscape-font-specification:MS UI Gothic"
       id="path3197" />
    <path
       d="m 868.30792,283.85806 4.98047,-12.6709 1.46484,0 4.98047,12.6709 -1.75781,0 -1.53808,-3.80859 -4.83399,0 -1.53809,3.80859 z m 5.71289,-10.2539 -1.90429,5.05371 3.80859,0 z"
       style="font-style:normal;font-variant:normal;font-weight:normal;font-stretch:normal;font-family:MS UI Gothic;-inkscape-font-specification:MS UI Gothic"
       id="path3199" />
    <path
       d="m 889.76788,273.23795 1.24512,0 0,3.58886 3.58887,0 0,1.17188 -3.58887,0 0,3.58886 -1.24512,0 0,-3.58886 -3.58886,0 0,-1.17188 3.58886,0 z"
       style="font-style:normal;font-variant:normal;font-weight:normal;font-stretch:normal;font-family:MS UI Gothic;-inkscape-font-specification:MS UI Gothic"
       id="path3201" />
    <path
       d="m 905.00226,272.57877 c 0.43945,-0.43945 0.68359,-0.92773 0.73242,-1.46485 l 0.87891,0 0,12.6709 -1.68457,0 0,-9.74121 -2.19727,0 0,-0.87891 0.65918,0 c 0.68359,1e-5 1.2207,-0.1953 1.61133,-0.58593 z"
       style="font-style:normal;font-variant:normal;font-weight:normal;font-stretch:normal;font-family:MS UI Gothic;-inkscape-font-specification:MS UI Gothic"
       id="path3203" />
    <path
       d="m 910.78839,276.82681 c 0,-2.14843 0.48828,-3.71092 1.46484,-4.6875 0.6836,-0.68358 1.53809,-1.02537 2.56348,-1.02539 1.02539,2e-5 1.87988,0.34181 2.56348,1.02539 0.97655,0.97658 1.46483,2.53907 1.46484,4.6875 l 0,1.46485 c -10e-6,2.09961 -0.48829,3.63769 -1.46484,4.61425 -0.6836,0.6836 -1.53809,1.0254 -2.56348,1.02539 -1.02539,10e-6 -1.87988,-0.34179 -2.56348,-1.02539 -0.97656,-0.97656 -1.46484,-2.51464 -1.46484,-4.61425 z m 4.02832,-4.32129 c -0.48828,2e-5 -0.92774,0.19533 -1.31836,0.58594 -0.63477,0.63478 -0.95215,1.83107 -0.95215,3.58887 l 0,1.68457 c 0,1.70899 0.3418,2.90527 1.02539,3.58887 0.39063,0.39062 0.80566,0.58593 1.24512,0.58593 0.48828,0 0.92773,-0.19531 1.31836,-0.58593 0.63476,-0.63477 0.95214,-1.83105 0.95215,-3.58887 l 0,-1.68457 c -10e-6,-1.7578 -0.31739,-2.95409 -0.95215,-3.58887 -0.39063,-0.39061 -0.83008,-0.58592 -1.31836,-0.58594 z"
       style="font-style:normal;font-variant:normal;font-weight:normal;font-stretch:normal;font-family:MS UI Gothic;-inkscape-font-specification:MS UI Gothic"
       id="path3205" />
    <path
       d="m 925.36359,272.65201 c -0.92774,1.61134 -2.0752,2.95411 -3.44239,4.02832 l -1.02539,-1.31836 c 2.00195,-1.46483 3.36914,-3.58886 4.10157,-6.37207 l 1.68457,0.43945 c 0.1953,0.19533 0.12206,0.3174 -0.21973,0.36621 l -0.58594,1.46485 10.32715,0 0,1.3916 -5.34668,0 0,2.49023 4.39453,0 0,1.3916 -4.39453,0 0,3.2959 6.15234,0 0,1.3916 -6.15234,0 0,4.39454 -1.46484,0 0,-4.39454 -8.42285,0 0,-1.3916 3.29589,0 0,-4.6875 5.12696,0 0,-2.49023 -4.02832,0 z m 0.36621,7.17773 3.66211,0 0,-3.2959 -3.66211,0 z"
       style="font-style:normal;font-variant:normal;font-weight:normal;font-stretch:normal;font-family:MS UI Gothic;-inkscape-font-specification:MS UI Gothic"
       id="path3207" />
    <path
       d="m 946.75031,280.12271 c 1.7578,0.53711 3.34471,1.24512 4.76074,2.12402 l -0.95215,1.39161 c -1.12306,-0.87891 -2.39259,-1.58692 -3.80859,-2.12403 -0.0488,1.46485 -0.46388,2.46582 -1.24512,3.00293 -0.53712,0.39063 -1.34278,0.58594 -2.41699,0.58594 -1.07423,0 -1.92872,-0.29297 -2.56348,-0.87891 -0.58594,-0.53711 -0.87891,-1.2207 -0.87891,-2.05078 0.0488,-0.68359 0.31738,-1.26953 0.80567,-1.75781 0.63476,-0.58593 1.48925,-0.8789 2.56347,-0.87891 0.68359,1e-5 1.44043,0.0733 2.27051,0.21973 l 0,-2.85645 -6.00586,0 0,-1.3916 6.00586,0 0,-2.34375 -5.41992,0 0,-1.3916 5.41992,0 0,-2.63672 1.46485,0 0,2.63672 4.10156,0 0,1.3916 -4.10156,0 0,2.34375 4.6875,0 0,1.3916 -4.6875,0 z m -3.58887,3.58887 c 0.63476,0 1.09862,-0.12207 1.3916,-0.36621 0.48827,-0.39063 0.73241,-1.09863 0.73242,-2.12403 l 0,-0.14648 c -0.78125,-0.19531 -1.53809,-0.29297 -2.27051,-0.29297 -0.63477,0 -1.12305,0.14649 -1.46484,0.43945 -0.3418,0.3418 -0.53711,0.73243 -0.58594,1.17188 0,0.39063 0.19531,0.68359 0.58594,0.87891 0.43945,0.29296 0.97656,0.43945 1.61133,0.43945 z"
       style="font-style:normal;font-variant:normal;font-weight:normal;font-stretch:normal;font-family:MS UI Gothic;-inkscape-font-specification:MS UI Gothic"
       id="path3209" />
    <path
       d="m 967.11163,273.82388 0,2.85645 -1.24511,0 0,-2.85645 z m -1.97754,0 0,2.85645 -1.24511,0 0,-2.85645 z m 0.87891,-3.07617 0,1.46484 c -2.29493,0.0488 -4.1504,0.68361 -5.56641,1.9043 -1.31836,1.17189 -1.97754,2.5879 -1.97753,4.24805 -10e-6,1.61133 0.51268,2.83203 1.53808,3.66211 0.97656,0.78125 2.46581,1.17187 4.46777,1.17187 l -0.43945,1.61133 c -2.29493,0 -4.07715,-0.61035 -5.34668,-1.83105 -1.12305,-1.07422 -1.70899,-2.53906 -1.75781,-4.39453 -10e-6,-1.07422 0.31738,-2.19726 0.95215,-3.36915 0.73241,-1.31834 1.73339,-2.34373 3.00293,-3.07617 l -7.69043,0 0,-1.3916 z"
       style="font-style:normal;font-variant:normal;font-weight:normal;font-stretch:normal;font-family:MS UI Gothic;-inkscape-font-specification:MS UI Gothic"
       id="path3211" />
  </g>
  <rect
     ry="5"
     rx="5"
     y="11"
     x="510"
     height="166"
     width="574"
     style="fill:#dcddde;"
     id="rect69" />
  <rect
     style="fill:#02d35f"
     width="150"
     height="26"
     x="934"
     y="55"
     id="rect71" />
  <rect
     style="fill:#02d35f"
     width="190"
     height="26"
     x="664"
     y="107"
     id="rect73" />
  <g
     style="font-size:18.75px;font-weight:600;fill:#00c081;font-family:Open Sans"
     id="text75">
    <path
       d="m 535.67004,45.01115 c -10e-6,1.208499 -0.43488,2.160646 -1.30462,2.856446 -0.86976,0.695801 -2.07978,1.043701 -3.63007,1.043701 -1.42822,0 -2.69165,-0.268555 -3.79028,-0.805664 l 0,-2.636719 c 0.90332,0.402835 1.66778,0.686648 2.29339,0.85144 0.62561,0.164798 1.19781,0.247195 1.71662,0.247193 0.62255,2e-6 1.10015,-0.119016 1.4328,-0.357056 0.33263,-0.238034 0.49895,-0.592038 0.49896,-1.062012 -10e-6,-0.262447 -0.0733,-0.495906 -0.21973,-0.700378 -0.14649,-0.204463 -0.36164,-0.401301 -0.64544,-0.590515 -0.28382,-0.189204 -0.86213,-0.491328 -1.73493,-0.906372 -0.81787,-0.384515 -1.43127,-0.753778 -1.84021,-1.107788 -0.40893,-0.353997 -0.73547,-0.765984 -0.97961,-1.235962 -0.24414,-0.469962 -0.36621,-1.019278 -0.36621,-1.647949 0,-1.184071 0.4013,-2.114857 1.20392,-2.792359 0.80261,-0.677477 1.91192,-1.016222 3.32794,-1.016235 0.69579,1.3e-5 1.35955,0.08241 1.99127,0.247192 0.63171,0.164808 1.29241,0.396742 1.98212,0.695801 l -0.91553,2.206421 c -0.71412,-0.292958 -1.30463,-0.497426 -1.77155,-0.613403 -0.46692,-0.115956 -0.92621,-0.173939 -1.37786,-0.173951 -0.53712,1.2e-5 -0.94911,0.125134 -1.23597,0.375367 -0.28687,0.250254 -0.4303,0.576792 -0.43029,0.979614 -1e-5,0.250254 0.058,0.468454 0.17395,0.654602 0.11596,0.186166 0.30059,0.36622 0.55389,0.540161 0.25329,0.173959 0.85296,0.486764 1.79901,0.938416 1.25121,0.598151 2.10876,1.197821 2.57263,1.799011 0.46386,0.601201 0.69579,1.3382 0.6958,2.210998 z"
       style="font-size:18.75px;font-weight:600;fill:#00c081;font-family:Open Sans"
       id="path3214" />
    <path
       d="m 538.09619,48.728191 0,-13.385009 2.83814,0 0,11.041259 5.42907,0 0,2.34375 z"
       style="font-size:18.75px;font-weight:600;fill:#00c081;font-family:Open Sans"
       id="path3216" />
    <path
       d="m 556.38843,48.728191 -7.70874,0 0,-13.385009 7.70874,0 0,2.325439 -4.87061,0 0,2.938843 4.53186,0 0,2.325439 -4.53186,0 0,3.451538 4.87061,0 z"
       style="font-size:18.75px;font-weight:600;fill:#00c081;font-family:Open Sans"
       id="path3218" />
    <path
       d="m 567.09094,45.01115 c -1e-5,1.208499 -0.43488,2.160646 -1.30462,2.856446 -0.86976,0.695801 -2.07978,1.043701 -3.63007,1.043701 -1.42823,0 -2.69165,-0.268555 -3.79028,-0.805664 l 0,-2.636719 c 0.90332,0.402835 1.66778,0.686648 2.29339,0.85144 0.62561,0.164798 1.19781,0.247195 1.71662,0.247193 0.62255,2e-6 1.10015,-0.119016 1.4328,-0.357056 0.33263,-0.238034 0.49895,-0.592038 0.49896,-1.062012 -10e-6,-0.262447 -0.0732,-0.495906 -0.21973,-0.700378 -0.14649,-0.204463 -0.36164,-0.401301 -0.64544,-0.590515 -0.28382,-0.189204 -0.86213,-0.491328 -1.73493,-0.906372 -0.81787,-0.384515 -1.43128,-0.753778 -1.84021,-1.107788 -0.40894,-0.353997 -0.73547,-0.765984 -0.97961,-1.235962 -0.24414,-0.469962 -0.36621,-1.019278 -0.36621,-1.647949 0,-1.184071 0.4013,-2.114857 1.20391,-2.792359 0.80261,-0.677477 1.91193,-1.016222 3.32795,-1.016235 0.69579,1.3e-5 1.35955,0.08241 1.99127,0.247192 0.6317,0.164808 1.29241,0.396742 1.98212,0.695801 l -0.91553,2.206421 c -0.71412,-0.292958 -1.30464,-0.497426 -1.77155,-0.613403 -0.46692,-0.115956 -0.92621,-0.173939 -1.37787,-0.173951 -0.53711,1.2e-5 -0.9491,0.125134 -1.23596,0.375367 -0.28687,0.250254 -0.4303,0.576792 -0.4303,0.979614 0,0.250254 0.058,0.468454 0.17395,0.654602 0.11597,0.186166 0.3006,0.36622 0.5539,0.540161 0.25329,0.173959 0.85296,0.486764 1.79901,0.938416 1.25121,0.598151 2.10876,1.197821 2.57263,1.799011 0.46386,0.601201 0.69579,1.3382 0.6958,2.210998 z"
       style="font-size:18.75px;font-weight:600;fill:#00c081;font-family:Open Sans"
       id="path3220" />
    <path
       d="m 580.44849,48.728191 -2.82898,0 0,-7.745361 0.0275,-1.272583 0.0458,-1.391602 c -0.46998,0.469981 -0.79651,0.778208 -0.97962,0.924683 l -1.53808,1.235962 -1.36414,-1.702881 4.31214,-3.433227 2.32544,0 z"
       style="font-size:18.75px;font-weight:600;fill:#00c081;font-family:Open Sans"
       id="path3222" />
    <path
       d="m 593.50391,48.728191 -9.35669,0 0,-1.968383 3.35998,-3.396607 c 0.99487,-1.019281 1.64489,-1.725762 1.95008,-2.119446 0.30516,-0.393669 0.52489,-0.758353 0.65918,-1.094055 0.13427,-0.335684 0.2014,-0.683584 0.20141,-1.043701 -10e-6,-0.537099 -0.14802,-0.936879 -0.44403,-1.199341 -0.29603,-0.26244 -0.69123,-0.393665 -1.18561,-0.393677 -0.5188,1.2e-5 -1.02234,0.11903 -1.51062,0.357056 -0.48828,0.238048 -0.99793,0.576793 -1.52893,1.016235 l -1.53808,-1.821899 c 0.65917,-0.561511 1.20544,-0.958239 1.63879,-1.190186 0.43335,-0.23192 0.90637,-0.410448 1.41907,-0.535583 0.51269,-0.125109 1.08642,-0.18767 1.72119,-0.187683 0.83617,1.3e-5 1.5747,0.152601 2.21557,0.457764 0.64087,0.305188 1.1383,0.732434 1.49231,1.281738 0.354,0.549328 0.531,1.177989 0.53101,1.885986 -1e-5,0.616465 -0.10835,1.194772 -0.32501,1.734924 -0.21669,0.540169 -0.55238,1.094063 -1.00708,1.661683 -0.45472,0.567633 -1.25581,1.376348 -2.40326,2.426147 l -1.72119,1.620483 0,0.128174 5.83191,0 z"
       style="font-size:18.75px;font-weight:600;fill:#00c081;font-family:Open Sans"
       id="path3224" />
  </g>
  <rect
     style="fill:#02d35f"
     width="190"
     height="26"
     x="529"
     y="133"
     id="rect77" />
  <rect
     style="opacity:0.5;fill:#92ecba"
     width="55"
     height="52"
     x="664"
     y="107"
     id="rect79" />
  <rect
     style="fill:#02d35f"
     width="190"
     height="26"
     x="799"
     y="81"
     id="rect81" />
  <rect
     style="opacity:0.5;fill:#92ecba"
     width="55"
     height="52"
     x="799"
     y="81"
     id="rect83" />
  <rect
     style="opacity:0.5;fill:#92ecba"
     width="55"
     height="52"
     x="934"
     y="55"
     id="rect85" />
  <path
     d="m 331,282 0,-22.83984 -2,0.83984 3.5,-10 3.5,9.84571 -2,-0.75196 0,22.90625 -3,0 z"
     style="fill:#fd9a2b;stroke:none"
     id="path87" />
  <rect
     style="opacity:0.5;fill:#92ecba"
     width="15"
     height="52"
     x="1069"
     y="29"
     id="rect89" />
  <rect
     style="fill:#a5efc6"
     width="160"
     height="26"
     x="719"
     y="133"
     id="rect91" />
  <rect
     style="fill:#a5efc6"
     width="160"
     height="26"
     x="854"
     y="107"
     id="rect93" />
  <rect
     style="fill:#a5efc6"
     width="95"
     height="26"
     x="989"
     y="81"
     id="rect95" />
  <rect
     y="131"
     x="664"
     height="2"
     width="350"
     style="fill:#a7a9ac;fill-opacity:0.58823529;"
     id="rect97" />
  <rect
     y="157"
     x="529"
     height="2"
     width="350"
     style="fill:#a7a9ac;fill-opacity:0.58823529;"
     id="rect99" />
  <rect
     y="105"
     x="799"
     height="2"
     width="285"
     style="fill:#a7a9ac;fill-opacity:0.58823529;"
     id="rect101" />
  <rect
     y="79"
     x="934"
     height="2"
     width="150"
     style="fill:#a7a9ac;fill-opacity:0.58823529;"
     id="rect103" />
  <circle
     r="18"
     cy="120"
     cx="676"
     style="fill:#00c081"
     id="circle105" />
  <g
     style="font-size:18.75px;fill:#ffffff;font-family:Open Sans"
     id="text107">
    <path
       d="m 671.34558,123.28641 c -1e-5,1.17798 -0.42725,2.09656 -1.28174,2.75573 -0.8545,0.65918 -2.01416,0.98877 -3.479,0.98877 -1.58692,0 -2.80762,-0.20446 -3.66211,-0.6134 l 0,-1.50146 c 0.54931,0.23193 1.14746,0.41504 1.79443,0.54931 0.64697,0.13428 1.28784,0.20142 1.92261,0.20142 1.03759,0 1.81884,-0.19684 2.34375,-0.59052 0.5249,-0.39367 0.78735,-0.94146 0.78735,-1.64337 0,-0.46386 -0.0931,-0.8438 -0.27923,-1.13983 -0.18617,-0.29602 -0.49745,-0.56915 -0.93384,-0.8194 -0.43641,-0.25024 -1.10016,-0.53405 -1.99127,-0.85144 -1.24512,-0.44555 -2.13471,-0.9735 -2.66876,-1.58386 -0.53406,-0.61034 -0.80109,-1.40685 -0.80109,-2.38953 0,-1.03148 0.38757,-1.8524 1.16272,-2.46276 0.77514,-0.61034 1.80053,-0.91552 3.07617,-0.91553 1.33056,1e-5 2.55431,0.24415 3.67127,0.73242 l -0.48523,1.35498 c -1.10475,-0.46385 -2.17897,-0.69579 -3.22266,-0.6958 -0.82398,1e-5 -1.4679,0.17701 -1.93176,0.53101 -0.46387,0.35401 -0.69581,0.84534 -0.6958,1.47399 -10e-6,0.46388 0.0854,0.84383 0.25634,1.13984 0.1709,0.29603 0.45929,0.56763 0.86518,0.81482 0.40588,0.2472 1.02691,0.52033 1.8631,0.81939 1.4038,0.5005 2.36968,1.03761 2.89764,1.61133 0.52794,0.57374 0.79192,1.31836 0.79193,2.23389 z"
       style="font-size:18.75px;fill:#ffffff;font-family:Open Sans"
       id="path3264" />
    <path
       d="m 682.56995,117.36295 c -10e-6,1.35498 -0.46235,2.39716 -1.38703,3.12652 -0.92469,0.72938 -2.24762,1.09406 -3.96881,1.09406 l -1.57471,0 0,5.26428 -1.55639,0 0,-13.38501 3.46985,0 c 3.34471,1e-5 5.01708,1.30006 5.01709,3.90015 z m -6.93055,2.88391 1.40076,0 c 1.37939,0 2.37731,-0.22277 2.99378,-0.66834 0.61644,-0.44555 0.92467,-1.15966 0.92468,-2.14233 -10e-6,-0.885 -0.28993,-1.54418 -0.86975,-1.97754 -0.57984,-0.43334 -1.48316,-0.65001 -2.70996,-0.65003 l -1.73951,0 z"
       style="letter-spacing:-1px"
       id="path3266" />
    <path
       d="m 689.06812,126.84781 -1.48316,0 0,-9.5398 c 0,-0.79344 0.0244,-1.54417 0.0732,-2.25219 -0.12818,0.12818 -0.27161,0.26246 -0.43029,0.40283 -0.1587,0.14039 -0.88502,0.73548 -2.17896,1.78528 l -0.80566,-1.0437 3.54309,-2.73743 1.28174,0 z"
       style="font-size:18.75px;fill:#ffffff;font-family:Open Sans"
       id="path3268" />
  </g>
  <circle
     r="18"
     cy="94"
     cx="811"
     style="fill:#00c081"
     id="circle111" />
  <g
     style="font-size:18.75px;fill:#ffffff;font-family:Open Sans"
     id="text113">
    <path
       d="m 804.51172,97.267151 c -10e-6,1.177981 -0.42726,2.096559 -1.28174,2.755739 -0.8545,0.65918 -2.01417,0.98877 -3.479,0.98877 -1.58692,0 -2.80762,-0.20447 -3.66211,-0.61341 l 0,-1.50146 c 0.54931,0.231935 1.14746,0.41504 1.79443,0.549316 0.64697,0.134279 1.28784,0.201417 1.92261,0.201416 1.03759,1e-6 1.81884,-0.196837 2.34375,-0.590515 0.52489,-0.393675 0.78734,-0.941465 0.78735,-1.643372 -10e-6,-0.463863 -0.0931,-0.843807 -0.27923,-1.139831 -0.18617,-0.296016 -0.49745,-0.569148 -0.93384,-0.819397 -0.43641,-0.250239 -1.10017,-0.534052 -1.99127,-0.851441 -1.24512,-0.44555 -2.13471,-0.973503 -2.66877,-1.583862 -0.53406,-0.610343 -0.80108,-1.406851 -0.80108,-2.389526 0,-1.031483 0.38757,-1.852405 1.16272,-2.462769 0.77514,-0.610338 1.80053,-0.915514 3.07617,-0.915527 1.33056,1.3e-5 2.55431,0.244154 3.67126,0.732422 l -0.48523,1.35498 c -1.10474,-0.463855 -2.17896,-0.695789 -3.22265,-0.695801 -0.82398,1.2e-5 -1.4679,0.177014 -1.93176,0.531006 -0.46387,0.354015 -0.69581,0.845348 -0.69581,1.473999 0,0.463877 0.0854,0.843821 0.25635,1.139832 0.1709,0.296029 0.45929,0.567635 0.86518,0.814819 0.40587,0.2472 1.02691,0.520332 1.86309,0.819397 1.40381,0.500495 2.36969,1.037604 2.89765,1.611328 0.52794,0.573736 0.79192,1.318364 0.79193,2.233887 z"
       style="font-size:18.75px;fill:#ffffff;font-family:Open Sans"
       id="path3257" />
    <path
       d="m 815.73608,91.343689 c -10e-6,1.354989 -0.46235,2.397163 -1.38702,3.126526 -0.92469,0.729376 -2.24763,1.09406 -3.96881,1.094055 l -1.57471,0 0,5.26428 -1.55639,0 0,-13.385008 3.46984,0 c 3.34472,1.4e-5 5.01708,1.300061 5.01709,3.900147 z m -6.93054,2.883911 1.40076,0 c 1.37939,7e-6 2.37731,-0.222771 2.99377,-0.668335 0.61645,-0.445549 0.92468,-1.159659 0.92469,-2.142334 -1e-5,-0.884999 -0.28993,-1.544178 -0.86976,-1.977539 -0.57984,-0.433338 -1.48316,-0.650012 -2.70996,-0.650024 l -1.7395,0 z"
       style="letter-spacing:-0.5px"
       id="path3259" />
    <path
       d="m 825.90198,100.82855 -8.79822,0 0,-1.309202 3.52478,-3.543091 c 1.07421,-1.08642 1.78222,-1.861565 2.12402,-2.325439 0.34179,-0.46386 0.59814,-0.915519 0.76905,-1.354981 0.17089,-0.439444 0.25634,-0.912466 0.25634,-1.419067 0,-0.714101 -0.21668,-1.280201 -0.65002,-1.698303 -0.43336,-0.418079 -1.03455,-0.627124 -1.80359,-0.627136 -0.55542,1.2e-5 -1.08185,0.09156 -1.57928,0.274658 -0.49744,0.183117 -1.05134,0.515758 -1.66169,0.997925 l -0.80566,-1.034546 c 1.23291,-1.025378 2.57568,-1.538073 4.02832,-1.538086 1.25732,1.3e-5 2.24303,0.321973 2.95715,0.965881 0.71411,0.643933 1.07116,1.509105 1.07117,2.59552 -10e-6,0.848398 -0.23805,1.687631 -0.71411,2.5177 -0.47608,0.830085 -1.3672,1.879889 -2.67334,3.149414 l -2.92969,2.865601 0,0.07324 6.88477,0 z"
       style="font-size:18.75px;fill:#ffffff;font-family:Open Sans"
       id="path3261" />
  </g>
  <circle
     r="18"
     cy="146"
     cx="541"
     style="fill:#02a49c"
     id="circle117" />
  <g
     style="font-size:18.75px;font-weight:600;fill:#ffffff;font-family:Open Sans"
     id="text119">
    <path
       d="m 534.20679,145.35068 5.31006,0 0,6.93969 c -0.86061,0.28077 -1.67085,0.4776 -2.43073,0.59052 -0.7599,0.11291 -1.53657,0.16937 -2.33002,0.16937 -2.02027,0 -3.56293,-0.59356 -4.62799,-1.7807 -1.06506,-1.18713 -1.59759,-2.89153 -1.59759,-5.11322 0,-2.16063 0.61798,-3.8452 1.85394,-5.05371 1.23596,-1.20848 2.94952,-1.81273 5.14069,-1.81274 1.37328,10e-6 2.69774,0.27467 3.97339,0.82397 l -0.943,2.27051 c -0.97657,-0.48827 -1.9928,-0.73241 -3.0487,-0.73242 -1.22682,1e-5 -2.20948,0.412 -2.948,1.23596 -0.73853,0.82398 -1.10779,1.93177 -1.10779,3.32336 0,1.45265 0.29754,2.56196 0.89264,3.32795 0.59509,0.76599 1.46026,1.14898 2.59552,1.14898 0.59203,0 1.19323,-0.061 1.80359,-0.1831 l 0,-2.79236 -2.53601,0 z"
       style="font-size:18.75px;font-weight:600;fill:#ffffff;font-family:Open Sans"
       id="path3240" />
    <path
       d="m 550.90601,152.86716 -0.97046,-3.18604 -4.87976,0 -0.97046,3.18604 -3.05786,0 4.72412,-13.43994 3.46985,0 4.74243,13.43994 z m -1.64795,-5.56641 c -0.89723,-2.88695 -1.40229,-4.51964 -1.5152,-4.89807 -0.11292,-0.37841 -0.19379,-0.67748 -0.24262,-0.89722 -0.20142,0.78126 -0.7782,2.71302 -1.73034,5.79529 z"
       style="font-size:18.75px;font-weight:600;fill:#ffffff;font-family:Open Sans"
       id="path3242" />
  </g>
  <circle
     r="18"
     cy="68"
     cx="946"
     style="fill:#00c081"
     id="circle121" />
  <g
     style="font-size:18.75px;fill:#ffffff;font-family:Open Sans"
     id="text123">
    <path
       d="m 939.5575,71.247787 c -10e-6,1.177981 -0.42726,2.09656 -1.28174,2.755738 -0.8545,0.65918 -2.01417,0.988769 -3.47901,0.988769 -1.58691,0 -2.80762,-0.204467 -3.66211,-0.613403 l 0,-1.501465 c 0.54932,0.231935 1.14746,0.415041 1.79444,0.549317 0.64697,0.134278 1.28783,0.201417 1.9226,0.201416 1.0376,10e-7 1.81885,-0.196837 2.34375,-0.590516 0.5249,-0.393674 0.78735,-0.941464 0.78736,-1.643371 -10e-6,-0.463863 -0.0931,-0.843807 -0.27924,-1.139832 -0.18616,-0.296015 -0.49744,-0.569147 -0.93384,-0.819397 -0.4364,-0.250238 -1.10016,-0.534051 -1.99127,-0.85144 -1.24512,-0.44555 -2.1347,-0.973504 -2.66876,-1.583862 -0.53406,-0.610344 -0.80109,-1.406852 -0.80109,-2.389527 0,-1.031483 0.38758,-1.852405 1.16272,-2.462768 0.77515,-0.610339 1.80054,-0.915514 3.07618,-0.915528 1.33056,1.4e-5 2.55431,0.244154 3.67126,0.732422 l -0.48523,1.354981 c -1.10474,-0.463856 -2.17896,-0.695789 -3.22266,-0.695801 -0.82397,1.2e-5 -1.4679,0.177014 -1.93176,0.531006 -0.46387,0.354015 -0.6958,0.845347 -0.6958,1.473999 0,0.463877 0.0855,0.84382 0.25635,1.139831 0.17089,0.29603 0.45928,0.567636 0.86517,0.81482 0.40588,0.2472 1.02691,0.520332 1.8631,0.819397 1.4038,0.500495 2.36968,1.037604 2.89764,1.611328 0.52795,0.573735 0.79193,1.318364 0.79194,2.233886 z"
       style="font-size:18.75px;fill:#ffffff;font-family:Open Sans"
       id="path3250" />
    <path
       d="m 950.78186,65.324326 c -1e-5,1.354988 -0.46235,2.397162 -1.38702,3.126525 -0.92469,0.729376 -2.24763,1.094061 -3.96881,1.094056 l -1.57471,0 0,5.264282 -1.5564,0 0,-13.38501 3.46985,0 c 3.34472,1.3e-5 5.01708,1.300061 5.01709,3.900147 z m -6.93054,2.883911 1.40076,0 c 1.37938,6e-6 2.37731,-0.222772 2.99377,-0.668335 0.61645,-0.445549 0.92467,-1.15966 0.92468,-2.142334 -10e-6,-0.885 -0.28992,-1.544179 -0.86975,-1.977539 -0.57984,-0.433338 -1.48316,-0.650013 -2.70996,-0.650025 l -1.7395,0 z"
       style="letter-spacing:-0.5px"
       id="path3252" />
    <path
       d="m 960.44421,64.573593 c -10e-6,0.854502 -0.23957,1.553354 -0.71869,2.096558 -0.47913,0.54322 -1.15814,0.906379 -2.03704,1.089477 l 0,0.07324 c 1.07421,0.134285 1.87072,0.476081 2.38952,1.025391 0.51879,0.549322 0.77819,1.269536 0.7782,2.160645 -10e-6,1.275637 -0.44251,2.256776 -1.32751,2.94342 -0.88502,0.686646 -2.14234,1.029968 -3.77198,1.029968 -0.70801,0 -1.35651,-0.05341 -1.94549,-0.160217 -0.58899,-0.106811 -1.1612,-0.294494 -1.71662,-0.563049 l 0,-1.446533 c 0.57984,0.286866 1.19782,0.505067 1.85395,0.654602 0.65612,0.149537 1.27715,0.224305 1.8631,0.224304 2.31322,10e-7 3.46984,-0.90637 3.46984,-2.719116 0,-1.62353 -1.27564,-2.435297 -3.8269,-2.435303 l -1.31836,0 0,-1.309204 1.33667,0 c 1.0437,7e-6 1.87072,-0.2304 2.48108,-0.691223 0.61034,-0.460807 0.91552,-1.10015 0.91553,-1.91803 -10e-6,-0.653066 -0.22431,-1.16576 -0.67292,-1.538086 -0.44861,-0.372303 -1.05744,-0.55846 -1.82647,-0.558472 -0.58594,1.2e-5 -1.13831,0.07936 -1.65711,0.238037 -0.5188,0.158704 -1.11084,0.451672 -1.77612,0.878907 l -0.76904,-1.025391 c 0.54931,-0.433337 1.18255,-0.773608 1.89972,-1.020813 0.71716,-0.247179 1.47246,-0.370775 2.26593,-0.370789 1.30004,1.4e-5 2.31017,0.29756 3.03039,0.892639 0.72021,0.595105 1.08031,1.41145 1.08032,2.449036 z"
       style="font-size:18.75px;fill:#ffffff;font-family:Open Sans"
       id="path3254" />
  </g>
  <path
     style="fill:#00c081"
     d="m 1081,24 a 18,18 0 0 0 -18,18 18,18 0 0 0 18,18 18,18 0 0 0 3,-0.253906 l 0,-35.47461 A 18,18 0 0 0 1081,24 Z"
     id="path127" />
  <path
     d="m 20,53 0,-12.41211 -2,0.83984 3.5,-10 L 25,41.27344 23,40.52148 23,53 20,53 Z"
     style="fill:#fd9a2b;stroke:none"
     id="path129" />
  <g
     style="font-size:18.75px;text-align:start;text-anchor:start;fill:#000000;font-family:Open Sans"
     id="text131">
    <path
       d="m 47.407471,33.14502 c 0.585924,-0.04881 1.098618,0.122085 1.538086,0.512695 0.488266,0.439468 0.732406,0.952162 0.732422,1.538086 -0.04884,0.634778 -0.26857,1.147473 -0.65918,1.538086 -0.39064,0.439464 -0.87892,0.634777 -1.464844,0.585937 -0.634778,1.2e-5 -1.147473,-0.244129 -1.538086,-0.732422 -0.390636,-0.43944 -0.561534,-0.952135 -0.512695,-1.538086 0.04882,-0.488267 0.244129,-0.927719 0.585937,-1.318359 0.390613,-0.39061 0.830066,-0.585922 1.31836,-0.585937 z m -2.636719,2.197265 c 1.074207,1.757824 1.977527,3.784189 2.709961,6.079102 0.830064,2.539067 1.367173,4.833987 1.611328,6.884765 l -1.68457,0.732422 c -0.244154,-2.29492 -0.732435,-4.614253 -1.464844,-6.958008 -0.732433,-2.441397 -1.56251,-4.418934 -2.490234,-5.932617 l 1.318359,-0.805664 z m -9.814453,12.670899 c 2.343747,-3.124997 3.515621,-7.348625 3.515625,-12.670899 l 1.611328,0.292969 c -6e-6,5.468758 -1.245122,10.058597 -3.735352,13.769531 L 34.956299,48.013184 z M 47.480713,36.221191 c 0.390611,1.3e-5 0.68358,-0.09764 0.878906,-0.292968 0.244126,-0.1953 0.341783,-0.43944 0.292969,-0.732422 -1.4e-5,-0.292955 -0.09767,-0.537096 -0.292969,-0.732422 -0.195326,-0.195298 -0.463881,-0.292954 -0.805664,-0.292969 -0.292982,1.5e-5 -0.537122,0.09767 -0.732422,0.292969 -0.195325,0.195326 -0.292981,0.439467 -0.292969,0.732422 -1.2e-5,0.292982 0.09764,0.537122 0.292969,0.732422 0.1953,0.195325 0.415026,0.292981 0.65918,0.292968 z"
       style="font-style:normal;font-variant:normal;font-weight:normal;font-stretch:normal;font-family:MS UI Gothic;-inkscape-font-specification:MS UI Gothic"
       id="path3082" />
    <path
       d="m 60.957275,37.100098 c -1.1e-5,2.050791 -0.561534,4.028328 -1.68457,5.932617 1.660145,1.562504 3.222644,3.271487 4.6875,5.126953 L 62.78833,49.55127 c -1.708995,-2.490233 -3.149424,-4.248044 -4.321289,-5.273438 -1.806647,2.587893 -4.077153,4.492188 -6.811523,5.712891 l -0.878907,-1.464844 c 2.490231,-1.025389 4.565425,-2.685544 6.225586,-4.980469 1.562492,-2.099602 2.343741,-4.150381 2.34375,-6.152344 l -7.397461,0 0,-1.611328 9.008789,0 0,1.31836 z"
       style="font-style:normal;font-variant:normal;font-weight:normal;font-stretch:normal;font-family:MS UI Gothic;-inkscape-font-specification:MS UI Gothic"
       id="path3084" />
    <path
       d="m 72.309814,35.195801 c 2.050772,0.04884 3.662098,0.732434 4.833985,2.050781 1.025377,1.220713 1.538071,2.685556 1.538086,4.394531 -1.5e-5,1.562506 -0.317397,2.905278 -0.952149,4.028321 -0.83009,1.416017 -2.221691,2.587891 -4.174804,3.515625 l -1.171875,-1.538086 c 2.929676,-1.025389 4.443346,-2.832028 4.541015,-5.419922 0.146472,-2.050773 -0.292981,-3.515615 -1.318359,-4.394531 -0.830089,-0.732411 -2.001963,-1.098621 -3.515625,-1.098633 -1.46485,0.04884 -2.685552,0.634777 -3.662109,1.757812 -1.025394,1.220712 -1.562503,2.709969 -1.611329,4.467774 -2e-6,1.171879 0.146482,2.075199 0.439454,2.709961 0.292965,0.537112 0.634762,0.805666 1.02539,0.805664 0.781245,2e-6 1.440424,-0.756833 1.977539,-2.270508 0.537103,-1.41601 1.025384,-3.735343 1.464844,-6.958008 l 1.611328,0.146484 c -0.537118,4.443367 -1.342781,7.495121 -2.416992,9.155274 -0.6836,1.123048 -1.586919,1.684571 -2.709961,1.68457 -0.683597,1e-6 -1.293948,-0.390624 -1.831055,-1.171875 -0.878907,-1.2207 -1.245118,-2.783199 -1.098633,-4.6875 0.146484,-1.660148 0.732421,-3.173818 1.757813,-4.541015 1.416011,-1.7578 3.173822,-2.636706 5.273437,-2.636719 z"
       style="font-style:normal;font-variant:normal;font-weight:normal;font-stretch:normal;font-family:MS UI Gothic;-inkscape-font-specification:MS UI Gothic"
       id="path3086" />
    <path
       d="m 96.919189,50.503418 c -3.857435,-0.341798 -6.884776,-1.123048 -9.082031,-2.34375 -1.22071,1.02539 -3.393559,1.831053 -6.518554,2.416992 l -0.512696,-1.538086 c 2.880855,-0.488281 4.78515,-1.098632 5.712891,-1.831054 -0.634772,-0.537108 -1.269537,-1.220701 -1.904297,-2.050782 l 1.318359,-0.512695 c 0.390619,0.488285 0.927727,1.00098 1.611328,1.538086 0.390617,-0.634763 0.610343,-1.34277 0.65918,-2.124024 l -3.808594,0 0,0.585938 -1.464843,0 0,-7.470703 5.346679,0 0,-1.538086 -7.397461,0 0,-1.391602 15.820313,0 0,1.391602 -6.958008,0 0,1.538086 5.419922,0 0,7.763672 -1.464844,0 0,-0.878907 -4.02832,0 c -0.04884,0.976567 -0.341807,1.928714 -0.878906,2.856446 1.660145,0.976563 4.443345,1.635742 8.349609,1.977539 z m -12.524414,-12.158203 0,1.68457 3.881836,0 0,-1.68457 z m 5.34668,0 0,1.68457 3.955078,0 0,-1.68457 z m 0,4.541015 3.955078,0 0,-1.68457 -3.955078,0 z m -1.464844,0 0,-1.68457 -3.881836,0 0,1.68457 z"
       style="font-style:normal;font-variant:normal;font-weight:normal;font-stretch:normal;font-family:MS UI Gothic;-inkscape-font-specification:MS UI Gothic"
       id="path3088" />
    <path
       d="m 105.92798,49.038574 c 2.00194,-1.074218 3.00292,-2.905271 3.00293,-5.493164 l 0,-8.422851 1.53808,0.292968 3.95508,-1.245117 1.09864,1.464844 c 0.0976,0.292981 -0.0733,0.34181 -0.5127,0.146484 l -4.61426,0.878907 0,3.149414 5.78613,0 0,1.391601 -2.19726,0 0,9.155274 -1.46484,0 0,-9.155274 -2.12403,0 0,2.783203 c -1e-5,2.880862 -1.22071,5.029297 -3.66211,6.445313 z m -1.3916,1.391602 -1.46485,0 0,-4.394531 c -0.78125,1.269532 -1.63574,2.270508 -2.56347,3.002929 l -1.098636,-1.318359 c 1.367186,-0.976561 2.514646,-2.197263 3.442386,-3.66211 l -3.076175,0 0,-1.391601 3.295895,0 0,-1.611328 -3.735348,0 0,-1.391602 5.126948,0 0.80567,-2.636719 -5.419923,0 0,-1.391601 3.222653,0 0,-2.050781 1.3916,0 c 0.39062,0.04884 0.41504,0.195327 0.0732,0.439453 l 0,1.611328 3.22265,0 0,1.391601 -0.95215,0 -1.02539,2.636719 2.34375,0 0,1.391602 -3.58886,0 0,1.611328 3.22265,0 0,1.391601 -3.22265,0 0,0.65918 c 0.68358,0.195316 1.63573,0.708011 2.85644,1.538086 l -0.8789,1.464844 c -0.68361,-0.683592 -1.34278,-1.220701 -1.97754,-1.611328 z M 101.60669,39.51709 c -0.19532,-0.683584 -0.46387,-1.342763 -0.80566,-1.977539 l 1.3916,-0.439453 c 0.39062,0.634776 0.68359,1.293955 0.8789,1.977539 l -1.46484,0.439453 z"
       style="font-style:normal;font-variant:normal;font-weight:normal;font-stretch:normal;font-family:MS UI Gothic;-inkscape-font-specification:MS UI Gothic"
       id="path3090" />
    <path
       d="m 117.50024,48.89209 7.76368,-13.842774 0.73242,0.439454 -7.76367,13.842773 z"
       style="font-style:normal;font-variant:normal;font-weight:normal;font-stretch:normal;font-family:MS UI Gothic;-inkscape-font-specification:MS UI Gothic"
       id="path3092" />
    <path
       d="m 127.38794,35.342285 12.30469,0 -0.0733,1.245117 c -1e-5,1.220714 -0.3418,2.368174 -1.02539,3.442383 -0.83009,1.367195 -1.85547,2.392585 -3.07617,3.076172 l -1.09863,-1.098633 c 2.14843,-1.123039 3.39354,-2.88085 3.73535,-5.273437 l -10.7666,0 z m 6.5918,3.222656 0,4.174805 c -1e-5,1.41602 -0.36622,2.734378 -1.09864,3.955078 -0.73242,1.31836 -1.87988,2.368164 -3.44238,3.149414 l -0.95215,-1.318359 c 2.68554,-1.318358 4.02832,-3.247067 4.02832,-5.786133 l 0,-4.174805 z"
       style="font-style:normal;font-variant:normal;font-weight:normal;font-stretch:normal;font-family:MS UI Gothic;-inkscape-font-specification:MS UI Gothic"
       id="path3094" />
    <path
       d="m 145.84497,37.759277 c 0.68359,1.074229 1.29394,2.270517 1.83106,3.588868 l -1.39161,0.659179 c -0.58594,-1.513663 -1.14746,-2.734365 -1.68457,-3.662109 z m 2.49024,7.177735 c 0.87889,-1.464839 1.29393,-3.613274 1.24511,-6.445313 l 1.3916,0.146485 c -0.0488,2.978522 -0.56153,5.32227 -1.53808,7.03125 -0.97657,1.757813 -2.66114,3.173828 -5.05371,4.248046 l -0.95215,-1.245117 c 2.39257,-0.830077 4.02831,-2.075193 4.90723,-3.735351 z m -5.7129,-5.639649 c 0.43946,0.634775 1.02539,1.855477 1.75782,3.66211 l -1.3916,0.659179 c -0.58594,-1.513665 -1.14747,-2.758781 -1.68457,-3.735351 z"
       style="font-style:normal;font-variant:normal;font-weight:normal;font-stretch:normal;font-family:MS UI Gothic;-inkscape-font-specification:MS UI Gothic"
       id="path3096" />
    <path
       d="m 163.20337,33.364746 c 0.58592,1.5e-5 1.09862,0.244156 1.53809,0.732422 0.29295,0.341811 0.46385,0.732436 0.51269,1.171875 0.0488,0.683607 -0.1465,1.245129 -0.58594,1.68457 -0.39063,0.390637 -0.8545,0.585949 -1.3916,0.585938 l 0,0.366211 c -1e-5,2.783211 -0.78126,5.249029 -2.34375,7.397461 -1.51368,2.148438 -3.61329,3.759765 -6.29883,4.833984 l -1.09863,-1.464844 c 2.53906,-0.830077 4.49218,-2.148435 5.85938,-3.955078 1.46483,-1.904291 2.19725,-4.174796 2.19726,-6.811523 l -9.15527,0 0,-1.611328 8.78906,0 c -0.0977,-0.1953 -0.14649,-0.463855 -0.14648,-0.805664 -1e-5,-0.537096 0.1953,-1.025377 0.58593,-1.464844 0.48827,-0.39061 1.00097,-0.610336 1.53809,-0.65918 z m 0,3.149414 c 0.29296,1.2e-5 0.5371,-0.09764 0.73242,-0.292969 0.1953,-0.195299 0.29296,-0.43944 0.29297,-0.732421 -1e-5,-0.292956 -0.0977,-0.537096 -0.29297,-0.732422 -0.19532,-0.195299 -0.43946,-0.317369 -0.73242,-0.366211 -0.29298,1.4e-5 -0.53712,0.09767 -0.73242,0.292968 -0.24415,0.244155 -0.34181,0.537123 -0.29297,0.878907 0.0488,0.292981 0.14647,0.512708 0.29297,0.659179 0.1953,0.195325 0.43944,0.292981 0.73242,0.292969 z"
       style="font-style:normal;font-variant:normal;font-weight:normal;font-stretch:normal;font-family:MS UI Gothic;-inkscape-font-specification:MS UI Gothic"
       id="path3098" />
    <path
       d="m 179.38989,33.14502 0,2.856445 -1.24511,0 0,-2.856445 z m -1.97754,0 0,2.856445 -1.24511,0 0,-2.856445 z m -0.0732,3.295898 0,2.416992 c -1e-5,2.78321 -0.73243,5.151372 -2.19726,7.104492 -1.26954,1.806642 -3.1006,3.149414 -5.49317,4.028321 l -1.17187,-1.391602 c 2.49023,-0.878905 4.34569,-2.099607 5.5664,-3.662109 1.2207,-1.611323 1.83105,-3.637688 1.83106,-6.079102 l 0,-1.02539 -5.71289,0 c -0.39063,2.343758 -1.26954,4.199225 -2.63672,5.566406 l -1.17188,-1.171875 c 1.02539,-0.976555 1.70899,-2.124015 2.05078,-3.442383 0.29297,-1.123036 0.41504,-2.612292 0.36622,-4.467773 l 1.61132,0 c 0,0.781263 -0.0244,1.48927 -0.0732,2.124023 z"
       style="font-style:normal;font-variant:normal;font-weight:normal;font-stretch:normal;font-family:MS UI Gothic;-inkscape-font-specification:MS UI Gothic"
       id="path3100" />
    <path
       d="m 189.1311,44.790527 c 1.41601,-1.220698 2.49023,-2.734368 3.22266,-4.541015 l 1.17187,1.464843 c -0.87891,1.855474 -2.14844,3.417973 -3.80859,4.6875 -1.70899,1.367189 -3.73536,2.392579 -6.0791,3.076172 l -0.95215,-1.318359 0,-13.842773 1.68457,0 0,13.110351 c 1.75781,-0.537107 3.34472,-1.416013 4.76074,-2.636719 z"
       style="font-style:normal;font-variant:normal;font-weight:normal;font-stretch:normal;font-family:MS UI Gothic;-inkscape-font-specification:MS UI Gothic"
       id="path3102" />
    <path
       d="m 208.02759,40.908691 0,1.611329 -12.74414,0 0,-1.611329 z"
       style="font-style:normal;font-variant:normal;font-weight:normal;font-stretch:normal;font-family:MS UI Gothic;-inkscape-font-specification:MS UI Gothic"
       id="path3104" />
    <path
       d="m 222.09009,34.976074 0,2.856446 -1.24512,0 0,-2.856446 z m -1.97754,0 0,2.856446 -1.24512,0 0,-2.856446 z m -4.54102,4.541016 c 2.58789,0.830086 4.76073,1.75782 6.51856,2.783203 l -0.95215,1.68457 c -0.53712,-0.39062 -1.3672,-0.854486 -2.49023,-1.391601 -1.12306,-0.537103 -2.14845,-0.976556 -3.07618,-1.31836 l 0,8.642578 -1.46484,0 0,-15.673828 1.46484,0 z"
       style="font-style:normal;font-variant:normal;font-weight:normal;font-stretch:normal;font-family:MS UI Gothic;-inkscape-font-specification:MS UI Gothic"
       id="path3106" />
  </g>
  <path
     d="m 601,230 0,-22.83984 -2,0.83984 3.5,-10 3.5,9.84571 -2,-0.75196 0,22.90625 -3,0 z"
     style="fill:#fd9a2b;stroke:none"
     id="path133" />
  <path
     d="m 466,256 0,-22.83984 -2,0.83984 3.5,-10 3.5,9.84571 -2,-0.75196 0,22.90625 -3,0 z"
     style="fill:#fd9a2b;stroke:none"
     id="path135" />
  <path
     d="m 840,124 0,-22.83984 -2,0.83984 3.5,-10 3.5,9.84571 -2,-0.75196 0,22.90625 -3,0 z"
     style="fill:#fd9a2b;stroke:none"
     id="path137" />
  <path
     d="m 705,150 0,-22.83984 -2,0.83984 3.5,-10 3.5,9.84571 -2,-0.75196 0,22.90625 -3,0 z"
     style="fill:#fd9a2b;stroke:none"
     id="path139" />
  <path
     d="M 975,98 975,75.16016 973,76 976.5,66 980,75.84571 978,75.09375 978,98 l -3,0 z"
     style="fill:#fd9a2b;stroke:none"
     id="path141" />
  <path
     d="m 196,308 0,-22.83984 -2,0.83984 3.5,-10 3.5,9.84571 -2,-0.75196 0,22.90625 -3,0 z"
     style="fill:#fd9a2b;stroke:none"
     id="path143" />
  <path
     style="fill:url(#linearGradient5399);"
     d="m 969,11 0,166 110,0 c 2.77,0 5,-2.23 5,-5 l 0,-156 c 0,-2.77 -2.23,-5 -5,-5 z"
     id="path145" />
  <path
     d="m 993.47461,85 c -2.4242,0 -4.27517,0.639281 -5.55469,1.917969 C 986.64052,88.196657 986,90.03234 986,92.425781 c 0,2.360649 0.64052,4.214321 1.91992,5.558594 1.27952,1.344262 3.13049,2.015625 5.55469,2.015625 2.42431,0 4.27718,-0.671363 5.55664,-2.015625 1.31305,-1.37706 1.96875,-3.230731 1.96875,-5.558594 0,-2.295081 -0.6405,-4.098687 -1.91992,-5.410156 C 997.80056,85.671358 995.93256,85 993.47461,85 Z m 25.99999,0 c -2.4242,0 -4.2752,0.639281 -5.5547,1.917969 -1.2794,1.278688 -1.9199,3.114371 -1.9199,5.507812 0,2.360649 0.6405,4.214321 1.9199,5.558594 1.2795,1.344262 3.1305,2.015625 5.5547,2.015625 2.4243,0 4.2753,-0.671363 5.5547,-2.015625 1.3132,-1.37706 1.9707,-3.230731 1.9707,-5.558594 0,-2.295081 -0.6405,-4.098687 -1.9199,-5.410156 C 1023.8006,85.671358 1021.9326,85 1019.4746,85 Z m 26,0 c -2.4242,0 -4.2752,0.639281 -5.5547,1.917969 -1.2794,1.278688 -1.9199,3.114371 -1.9199,5.507812 0,2.360649 0.6405,4.214321 1.9199,5.558594 1.2795,1.344262 3.1305,2.015625 5.5547,2.015625 2.4243,0 4.2753,-0.671363 5.5547,-2.015625 1.3132,-1.37706 1.9707,-3.230731 1.9707,-5.558594 0,-2.295081 -0.6405,-4.098687 -1.9199,-5.410156 C 1049.8006,85.671358 1047.9325,85 1045.4746,85 Z"
     style="fill:#5f5f5f;fill-opacity:0.75"
     id="path147" />
  <path
     d="m 691,204 0,-70.83984 -2,0.83984 3.5,-10 3.5,9.84571 -2,-0.75196 L 694,204 Z"
     style="fill:#fd9a2b"
     id="path149" />
  <path
     d="m 540,230 0,-64.83984 -2,0.83984 3.5,-10 3.5,9.84571 -2,-0.75196 0,64.90625 -3,0 z"
     style="fill:#fd9a2b"
     id="path151" />
  <path
     d="m 865,150 0,-48.83984 -2,0.83984 3.5,-10 3.5,9.84571 -2,-0.75196 0,48.90625 -3,0 z"
     style="fill:#fd9a2b"
     id="path153" />
  <path
     d="m 491,282 0,-48.83984 -2,0.83984 3.5,-10 3.5,9.84571 -2,-0.75196 0,48.90625 -3,0 z"
     style="fill:#fd9a2b"
     id="path155" />
  <path
     d="m 626,256 0,-48.83984 -2,0.83984 3.5,-10 3.5,9.84571 -2,-0.75196 0,48.90625 -3,0 z"
     style="fill:#fd9a2b"
     id="path157" />
  <path
     d="m 356,308 0,-48.83984 -2,0.83984 3.5,-10 3.5,9.84571 -2,-0.75196 0,48.90625 -3,0 z"
     style="fill:#fd9a2b"
     id="path159" />
  <circle
     r="18"
     cy="304"
     cx="32"
     style="fill:#02a49c"
     id="circle161" />
  <g
     style="font-size:18.75px;font-weight:600;fill:#ffffff;font-family:Open Sans"
     id="text163">
    <path
       d="m 25.206787,303.35068 5.310059,0 0,6.93969 c -0.860607,0.28077 -1.670848,0.4776 -2.430725,0.59052 -0.759897,0.11291 -1.536569,0.16937 -2.330017,0.16937 -2.020269,0 -3.562931,-0.59356 -4.627991,-1.7807 -1.065065,-1.18713 -1.597597,-2.89153 -1.597595,-5.11322 -2e-6,-2.16063 0.617979,-3.8452 1.853942,-5.05371 1.235958,-1.20848 2.949518,-1.81273 5.140686,-1.81274 1.373282,10e-6 2.697744,0.27467 3.973389,0.82397 l -0.942993,2.27051 c -0.976573,-0.48827 -1.992807,-0.73241 -3.048706,-0.73242 -1.226814,10e-6 -2.209479,0.412 -2.947998,1.23596 -0.73853,0.82398 -1.107792,1.93177 -1.107788,3.32336 -4e-6,1.45265 0.297542,2.56196 0.892639,3.32795 0.595087,0.76599 1.46026,1.14898 2.59552,1.14898 0.592033,0 1.193229,-0.061 1.803589,-0.1831 l 0,-2.79236 -2.536011,0 z"
       style="font-size:18.75px;font-weight:600;fill:#ffffff;font-family:Open Sans"
       id="path3245" />
    <path
       d="m 41.906006,310.86716 -0.970459,-3.18604 -4.879761,0 -0.970459,3.18604 -3.057861,0 4.724121,-13.43994 3.469849,0 4.742431,13.43994 z m -1.647949,-5.56641 c -0.897224,-2.88695 -1.40229,-4.51964 -1.515198,-4.89807 -0.112922,-0.37841 -0.193793,-0.67748 -0.242615,-0.89722 -0.201422,0.78126 -0.778204,2.71302 -1.730347,5.79529 z"
       style="font-size:18.75px;font-weight:600;fill:#ffffff;font-family:Open Sans"
       id="path3247" />
  </g>
  <circle
     r="18"
     cy="278"
     cx="167"
     style="fill:#00c081"
     id="circle165" />
  <g
     style="font-size:18.75px;fill:#ffffff;font-family:Open Sans"
     id="text167">
    <path
       d="m 162.34558,281.28641 c -1e-5,1.17798 -0.42725,2.09656 -1.28174,2.75573 -0.8545,0.65918 -2.01416,0.98877 -3.479,0.98877 -1.58692,0 -2.80762,-0.20446 -3.66211,-0.6134 l 0,-1.50146 c 0.54931,0.23193 1.14746,0.41504 1.79443,0.54931 0.64697,0.13428 1.28784,0.20142 1.92261,0.20142 1.03759,0 1.81884,-0.19684 2.34375,-0.59052 0.5249,-0.39367 0.78735,-0.94146 0.78735,-1.64337 0,-0.46386 -0.0931,-0.8438 -0.27923,-1.13983 -0.18617,-0.29602 -0.49745,-0.56915 -0.93384,-0.8194 -0.43641,-0.25024 -1.10016,-0.53405 -1.99127,-0.85144 -1.24512,-0.44555 -2.13471,-0.9735 -2.66876,-1.58386 -0.53406,-0.61034 -0.80109,-1.40685 -0.80109,-2.38953 0,-1.03148 0.38757,-1.8524 1.16272,-2.46276 0.77514,-0.61034 1.80053,-0.91552 3.07617,-0.91553 1.33056,1e-5 2.55431,0.24415 3.67127,0.73242 l -0.48523,1.35498 c -1.10475,-0.46385 -2.17897,-0.69579 -3.22266,-0.6958 -0.82398,10e-6 -1.4679,0.17701 -1.93176,0.53101 -0.46387,0.35401 -0.69581,0.84534 -0.6958,1.47399 -1e-5,0.46388 0.0854,0.84383 0.25634,1.13984 0.1709,0.29603 0.45929,0.56763 0.86518,0.81482 0.40588,0.2472 1.02691,0.52033 1.8631,0.81939 1.4038,0.5005 2.36968,1.03761 2.89764,1.61133 0.52794,0.57374 0.79192,1.31836 0.79193,2.23389 z"
       style="font-size:18.75px;fill:#ffffff;font-family:Open Sans"
       id="path3292" />
    <path
       d="m 173.56995,275.36295 c -1e-5,1.35498 -0.46235,2.39716 -1.38703,3.12652 -0.92469,0.72938 -2.24762,1.09406 -3.96881,1.09406 l -1.57471,0 0,5.26428 -1.55639,0 0,-13.38501 3.46985,0 c 3.34471,10e-6 5.01708,1.30006 5.01709,3.90015 z m -6.93055,2.88391 1.40076,0 c 1.37939,0 2.37731,-0.22277 2.99378,-0.66834 0.61644,-0.44555 0.92467,-1.15966 0.92468,-2.14233 -1e-5,-0.885 -0.28993,-1.54418 -0.86975,-1.97754 -0.57984,-0.43334 -1.48316,-0.65001 -2.70996,-0.65003 l -1.73951,0 z"
       style="letter-spacing:-1px"
       id="path3294" />
    <path
       d="m 180.06812,284.84781 -1.48316,0 0,-9.5398 c 0,-0.79344 0.0244,-1.54417 0.0732,-2.25219 -0.12818,0.12818 -0.27161,0.26246 -0.43029,0.40283 -0.1587,0.14039 -0.88502,0.73548 -2.17896,1.78528 l -0.80566,-1.0437 3.54309,-2.73743 1.28174,0 z"
       style="font-size:18.75px;fill:#ffffff;font-family:Open Sans"
       id="path3296" />
  </g>
  <circle
     r="18"
     cy="252"
     cx="302"
     style="fill:#00c081"
     id="circle171" />
  <g
     style="font-size:18.75px;fill:#ffffff;font-family:Open Sans"
     id="text173">
    <path
       d="m 295.51172,255.26715 c -1e-5,1.17798 -0.42726,2.09656 -1.28174,2.75574 -0.8545,0.65918 -2.01417,0.98877 -3.479,0.98877 -1.58692,0 -2.80762,-0.20447 -3.66211,-0.61341 l 0,-1.50146 c 0.54931,0.23193 1.14746,0.41504 1.79443,0.54932 0.64697,0.13427 1.28784,0.20141 1.92261,0.20141 1.03759,0 1.81884,-0.19684 2.34375,-0.59051 0.52489,-0.39368 0.78734,-0.94147 0.78735,-1.64337 -10e-6,-0.46387 -0.0931,-0.84381 -0.27923,-1.13984 -0.18617,-0.29601 -0.49745,-0.56914 -0.93384,-0.81939 -0.43641,-0.25024 -1.10017,-0.53405 -1.99127,-0.85144 -1.24512,-0.44555 -2.13471,-0.97351 -2.66877,-1.58387 -0.53406,-0.61034 -0.80108,-1.40685 -0.80108,-2.38952 0,-1.03149 0.38757,-1.85241 1.16272,-2.46277 0.77514,-0.61034 1.80053,-0.91551 3.07617,-0.91553 1.33056,2e-5 2.55431,0.24416 3.67126,0.73242 l -0.48523,1.35498 c -1.10474,-0.46385 -2.17896,-0.69578 -3.22265,-0.6958 -0.82398,2e-5 -1.4679,0.17702 -1.93176,0.53101 -0.46387,0.35401 -0.69581,0.84535 -0.69581,1.474 0,0.46388 0.0855,0.84382 0.25635,1.13983 0.1709,0.29603 0.45929,0.56764 0.86518,0.81482 0.40587,0.2472 1.02691,0.52033 1.86309,0.8194 1.40381,0.50049 2.36969,1.0376 2.89765,1.61132 0.52794,0.57374 0.79192,1.31837 0.79193,2.23389 z"
       style="font-size:18.75px;fill:#ffffff;font-family:Open Sans"
       id="path3285" />
    <path
       d="m 306.73608,249.34369 c -1e-5,1.35499 -0.46235,2.39716 -1.38702,3.12652 -0.92469,0.72938 -2.24763,1.09407 -3.96881,1.09406 l -1.57471,0 0,5.26428 -1.55639,0 0,-13.38501 3.46984,0 c 3.34472,2e-5 5.01708,1.30006 5.01709,3.90015 z m -6.93054,2.88391 1.40076,0 c 1.37939,1e-5 2.37731,-0.22277 2.99377,-0.66833 0.61645,-0.44555 0.92468,-1.15966 0.92469,-2.14234 -10e-6,-0.885 -0.28993,-1.54418 -0.86976,-1.97754 -0.57984,-0.43334 -1.48316,-0.65001 -2.70996,-0.65002 l -1.7395,0 z"
       style="letter-spacing:-0.5px"
       id="path3287" />
    <path
       d="m 316.90198,258.82855 -8.79822,0 0,-1.3092 3.52478,-3.54309 c 1.07421,-1.08642 1.78222,-1.86157 2.12402,-2.32544 0.34179,-0.46386 0.59814,-0.91552 0.76905,-1.35498 0.17089,-0.43945 0.25634,-0.91247 0.25634,-1.41907 0,-0.7141 -0.21668,-1.2802 -0.65002,-1.6983 -0.43336,-0.41808 -1.03455,-0.62713 -1.80359,-0.62714 -0.55542,1e-5 -1.08185,0.0916 -1.57928,0.27466 -0.49744,0.18312 -1.05134,0.51576 -1.66169,0.99792 l -0.80566,-1.03454 c 1.23291,-1.02538 2.57568,-1.53807 4.02832,-1.53809 1.25732,2e-5 2.24303,0.32198 2.95715,0.96588 0.71411,0.64394 1.07116,1.50911 1.07117,2.59552 -10e-6,0.8484 -0.23805,1.68763 -0.71411,2.5177 -0.47608,0.83009 -1.3672,1.87989 -2.67334,3.14942 l -2.92969,2.8656 0,0.0732 6.88477,0 z"
       style="font-size:18.75px;fill:#ffffff;font-family:Open Sans"
       id="path3289" />
  </g>
  <circle
     r="18"
     cy="200"
     cx="572"
     style="fill:#00c081"
     id="circle177" />
  <g
     style="font-size:18.75px;fill:#ffffff;font-family:Open Sans"
     id="text179">
    <path
       d="m 565.19586,203.24779 c -1e-5,1.17798 -0.42725,2.09656 -1.28174,2.75573 -0.8545,0.65918 -2.01416,0.98877 -3.479,0.98877 -1.58692,0 -2.80762,-0.20446 -3.66211,-0.6134 l 0,-1.50146 c 0.54932,0.23193 1.14746,0.41504 1.79443,0.54931 0.64697,0.13428 1.28784,0.20142 1.92261,0.20142 1.03759,0 1.81884,-0.19684 2.34375,-0.59052 0.5249,-0.39367 0.78735,-0.94146 0.78735,-1.64337 0,-0.46386 -0.0931,-0.8438 -0.27923,-1.13983 -0.18617,-0.29602 -0.49744,-0.56915 -0.93384,-0.8194 -0.43641,-0.25024 -1.10016,-0.53405 -1.99127,-0.85144 -1.24512,-0.44555 -2.13471,-0.9735 -2.66876,-1.58386 -0.53406,-0.61034 -0.80109,-1.40685 -0.80109,-2.38953 0,-1.03148 0.38757,-1.8524 1.16272,-2.46276 0.77514,-0.61034 1.80053,-0.91552 3.07617,-0.91553 1.33056,1e-5 2.55432,0.24415 3.67127,0.73242 l -0.48523,1.35498 c -1.10475,-0.46385 -2.17896,-0.69579 -3.22266,-0.6958 -0.82398,10e-6 -1.4679,0.17701 -1.93176,0.53101 -0.46387,0.35401 -0.69581,0.84534 -0.6958,1.47399 -10e-6,0.46388 0.0854,0.84383 0.25635,1.13984 0.17089,0.29603 0.45928,0.56763 0.86517,0.81482 0.40588,0.2472 1.02691,0.52033 1.8631,0.81939 1.4038,0.5005 2.36968,1.03761 2.89764,1.61133 0.52795,0.57374 0.79192,1.31836 0.79193,2.23389 z"
       style="font-size:18.75px;fill:#ffffff;font-family:Open Sans"
       id="path3271" />
    <path
       d="m 576.42023,197.32433 c -10e-6,1.35498 -0.46235,2.39716 -1.38703,3.12652 -0.92469,0.72938 -2.24762,1.09406 -3.96881,1.09406 l -1.5747,0 0,5.26428 -1.5564,0 0,-13.38501 3.46985,0 c 3.34472,1e-5 5.01708,1.30006 5.01709,3.90015 z m -6.93054,2.88391 1.40075,0 c 1.37939,0 2.37731,-0.22277 2.99378,-0.66834 0.61644,-0.44555 0.92467,-1.15966 0.92468,-2.14233 -10e-6,-0.885 -0.28993,-1.54418 -0.86975,-1.97754 -0.57984,-0.43334 -1.48316,-0.65001 -2.70996,-0.65003 l -1.7395,0 z"
       style="letter-spacing:-0.5px"
       id="path3273" />
    <path
       d="m 587.21783,203.73302 -1.98669,0 0,3.07617 -1.45569,0 0,-3.07617 -6.5094,0 0,-1.32752 6.35376,-9.05456 1.61133,0 0,8.99963 1.98669,0 z m -3.44238,-1.38245 0,-4.44946 c -10e-6,-0.8728 0.0305,-1.85851 0.0915,-2.95716 l -0.0732,0 c -0.29297,0.58595 -0.56763,1.07118 -0.82397,1.45569 l -4.18396,5.95093 z"
       style="font-size:18.75px;fill:#ffffff;font-family:Open Sans"
       id="path3275" />
  </g>
  <circle
     r="18"
     cy="226"
     cx="437"
     style="fill:#00c081"
     id="circle183" />
  <g
     style="font-size:18.75px;fill:#ffffff;font-family:Open Sans"
     id="text185">
    <path
       d="m 430.5575,229.24779 c -1e-5,1.17798 -0.42726,2.09656 -1.28174,2.75573 -0.8545,0.65918 -2.01417,0.98877 -3.47901,0.98877 -1.58691,0 -2.80762,-0.20446 -3.66211,-0.6134 l 0,-1.50146 c 0.54932,0.23193 1.14746,0.41504 1.79444,0.54931 0.64697,0.13428 1.28783,0.20142 1.9226,0.20142 1.0376,0 1.81885,-0.19684 2.34375,-0.59052 0.5249,-0.39367 0.78735,-0.94146 0.78736,-1.64337 -1e-5,-0.46386 -0.0931,-0.8438 -0.27924,-1.13983 -0.18616,-0.29602 -0.49744,-0.56915 -0.93384,-0.8194 -0.4364,-0.25024 -1.10016,-0.53405 -1.99127,-0.85144 -1.24512,-0.44555 -2.1347,-0.9735 -2.66876,-1.58386 -0.53406,-0.61034 -0.80109,-1.40685 -0.80109,-2.38953 0,-1.03148 0.38758,-1.8524 1.16272,-2.46276 0.77515,-0.61034 1.80054,-0.91552 3.07618,-0.91553 1.33056,1e-5 2.55431,0.24415 3.67126,0.73242 l -0.48523,1.35498 c -1.10474,-0.46385 -2.17896,-0.69579 -3.22266,-0.6958 -0.82397,10e-6 -1.4679,0.17701 -1.93176,0.53101 -0.46387,0.35401 -0.6958,0.84534 -0.6958,1.47399 0,0.46388 0.0854,0.84383 0.25635,1.13984 0.17089,0.29603 0.45928,0.56763 0.86517,0.81482 0.40588,0.2472 1.02691,0.52033 1.8631,0.81939 1.4038,0.5005 2.36968,1.03761 2.89764,1.61133 0.52795,0.57374 0.79193,1.31836 0.79194,2.23389 z"
       style="font-size:18.75px;fill:#ffffff;font-family:Open Sans"
       id="path3278" />
    <path
       d="m 441.78186,223.32433 c -10e-6,1.35498 -0.46235,2.39716 -1.38702,3.12652 -0.92469,0.72938 -2.24763,1.09406 -3.96881,1.09406 l -1.57471,0 0,5.26428 -1.5564,0 0,-13.38501 3.46985,0 c 3.34472,1e-5 5.01708,1.30006 5.01709,3.90015 z m -6.93054,2.88391 1.40076,0 c 1.37938,0 2.37731,-0.22277 2.99377,-0.66834 0.61645,-0.44555 0.92467,-1.15966 0.92468,-2.14233 -10e-6,-0.885 -0.28992,-1.54418 -0.86975,-1.97754 -0.57984,-0.43334 -1.48316,-0.65001 -2.70996,-0.65003 l -1.7395,0 z"
       style="letter-spacing:-0.5px"
       id="path3280" />
    <path
       d="m 451.44421,222.57359 c -10e-6,0.8545 -0.23957,1.55336 -0.71869,2.09656 -0.47913,0.54322 -1.15814,0.90638 -2.03704,1.08948 l 0,0.0732 c 1.07421,0.13428 1.87072,0.47608 2.38952,1.02539 0.51879,0.54932 0.77819,1.26954 0.7782,2.16065 -10e-6,1.27563 -0.44251,2.25677 -1.32751,2.94342 -0.88502,0.68664 -2.14234,1.02996 -3.77198,1.02996 -0.70801,0 -1.35651,-0.0534 -1.94549,-0.16021 -0.58899,-0.10681 -1.1612,-0.2945 -1.71662,-0.56305 l 0,-1.44654 c 0.57984,0.28687 1.19782,0.50507 1.85395,0.65461 0.65612,0.14953 1.27715,0.2243 1.8631,0.2243 2.31322,0 3.46984,-0.90637 3.46984,-2.71912 0,-1.62353 -1.27564,-2.43529 -3.8269,-2.4353 l -1.31836,0 0,-1.3092 1.33667,0 c 1.0437,1e-5 1.87072,-0.2304 2.48108,-0.69123 0.61034,-0.4608 0.91552,-1.10014 0.91553,-1.91803 -10e-6,-0.65306 -0.22431,-1.16576 -0.67292,-1.53808 -0.44861,-0.3723 -1.05744,-0.55846 -1.82647,-0.55847 -0.58594,1e-5 -1.13831,0.0794 -1.65711,0.23803 -0.5188,0.15871 -1.11084,0.45168 -1.77612,0.87891 l -0.76904,-1.02539 c 0.54931,-0.43334 1.18255,-0.77361 1.89972,-1.02081 0.71716,-0.24718 1.47246,-0.37078 2.26593,-0.37079 1.30004,1e-5 2.31017,0.29756 3.03039,0.89264 0.72021,0.5951 1.08031,1.41145 1.08032,2.44903 z"
       style="font-size:18.75px;fill:#ffffff;font-family:Open Sans"
       id="path3282" />
  </g>
  <path
     d="m 782,261 0,-52.83984 -2,0.83984 3.5,-10 3.5,9.84571 -2,-0.75196 L 785,261 Z"
     style="fill:#5f5f5f;stroke:none"
     id="path189" />
  <path
     d="m 675,230 0,-91.83984 -2,0.83984 3.5,-10 3.5,9.84571 -2,-0.75196 L 678,230 Z"
     style="fill:#fd9a2b;stroke:none"
     id="path191" />
</svg>
