<?xml version="1.0" encoding="UTF-8" standalone="no"?>
<svg
   width="790"
   height="151.2"
   viewBox="0 0 209.02 40"
   version="1.1"
   id="svg88"
   sodipodi:docname="acls_map_mini.svg"
   inkscape:version="1.4 (86a8ad7, 2024-10-11)"
   xmlns:inkscape="http://www.inkscape.org/namespaces/inkscape"
   xmlns:sodipodi="http://sodipodi.sourceforge.net/DTD/sodipodi-0.dtd"
   xmlns="http://www.w3.org/2000/svg"
   xmlns:svg="http://www.w3.org/2000/svg">
  <sodipodi:namedview
     id="namedview1"
     pagecolor="#ffffff"
     bordercolor="#000000"
     borderopacity="0.25"
     inkscape:showpageshadow="2"
     inkscape:pageopacity="0.0"
     inkscape:pagecheckerboard="0"
     inkscape:deskcolor="#d1d1d1"
     inkscape:zoom="1.5842772"
     inkscape:cx="415.96256"
     inkscape:cy="75.428719"
     inkscape:window-width="1920"
     inkscape:window-height="1009"
     inkscape:window-x="-8"
     inkscape:window-y="-8"
     inkscape:window-maximized="1"
     inkscape:current-layer="svg88" />
  <defs
     id="defs20">
    <marker
       id="b"
       markerHeight="4.71"
       markerWidth="3.06"
       orient="auto"
       refX="1.53"
       refY="2.35">
      <path
         fill="#fff"
         fill-opacity="0"
         stroke="#0c322c"
         d="m2.7.35-2 2 2 2"
         id="path2" />
    </marker>
    <marker
       id="d"
       markerHeight="4.71"
       markerWidth="3.06"
       orient="auto"
       refX="1.53"
       refY="2.35">
      <path
         fill="#fff"
         fill-opacity="0"
         stroke="#0c322c"
         d="m2.7.35-2 2 2 2"
         id="path5" />
    </marker>
    <marker
       id="f"
       markerHeight="4.71"
       markerWidth="3.06"
       orient="auto"
       refX="1.53"
       refY="2.35">
      <path
         fill="#fff"
         fill-opacity="0"
         stroke="#0c322c"
         d="m2.7.35-2 2 2 2"
         id="path8" />
    </marker>
    <marker
       id="a"
       markerHeight="4.71"
       markerWidth="3.06"
       orient="auto"
       refX="1.53"
       refY="2.35">
      <path
         fill="#fff"
         fill-opacity="0"
         stroke="#0c322c"
         d="m.35.35 2 2-2 2"
         id="path11" />
    </marker>
    <marker
       id="c"
       markerHeight="4.71"
       markerWidth="3.06"
       orient="auto"
       refX="1.53"
       refY="2.35">
      <path
         fill="none"
         stroke="#0c322c"
         d="m.35.35 2 2-2 2"
         id="path14" />
    </marker>
    <marker
       id="e"
       markerHeight="4.71"
       markerWidth="3.06"
       orient="auto"
       refX="1.53"
       refY="2.35">
      <path
         fill="none"
         stroke="#0c322c"
         d="m.35.35 2 2-2 2"
         id="path17" />
    </marker>
  </defs>
  <g
     transform="translate(-9.94 -15.88)"
     id="g86">
    <path
       style="font-weight:500;font-size:4.94px;line-height:1.25;font-family:'Noto Sans SC';-inkscape-font-specification:'Noto Sans SC Medium';text-align:end;letter-spacing:0;text-anchor:end;stroke-width:0.26"
       d="m 42.118775,23.64174 h 2.1983 v 0.42484 h -2.1983 z m -0.0049,1.14114 h 2.18348 v 0.4199 h -2.18348 z m -0.01976,1.1362 h 2.22794 v 0.41496 h -2.22794 z m -0.20748,-2.27734 h 0.43966 v 1.79322 q 0,0.28158 -0.0247,0.61256 -0.01976,0.32604 -0.08398,0.66196 -0.05928,0.33098 -0.17784,0.6422 -0.11856,0.31122 -0.31616,0.55822 -0.03458,-0.03952 -0.10374,-0.0988 -0.06422,-0.05434 -0.13338,-0.10868 -0.06916,-0.05434 -0.11856,-0.07904 0.23712,-0.30628 0.3458,-0.68172 0.11362,-0.38038 0.14326,-0.77064 0.02964,-0.3952 0.02964,-0.741 z m 2.26252,0 h 0.44954 v 3.73464 q 0,0.1729 -0.04446,0.27664 -0.03952,0.10374 -0.1482,0.15808 -0.10868,0.05434 -0.27664,0.06422 -0.16796,0.01482 -0.41496,0.01482 -0.01482,-0.08398 -0.05434,-0.21242 -0.03458,-0.12844 -0.07904,-0.21736 0.15808,0.0049 0.2964,0.0049 0.13832,0 0.18772,0 0.04446,0 0.06422,-0.01976 0.01976,-0.01976 0.01976,-0.0741 z m -1.13126,0.16796 h 0.42978 v 3.98658 h -0.42978 z m -2.92942,2.08468 q 0.2964,-0.07904 0.72124,-0.1976 0.42484,-0.11856 0.84968,-0.247 l 0.06422,0.42484 q -0.3952,0.11856 -0.79534,0.247 -0.40014,0.1235 -0.73112,0.2223 z m 0.0741,-1.6055 h 1.55116 v 0.43472 h -1.55116 z m 0.58292,-0.9633 h 0.4446 v 4.01622 q 0,0.17784 -0.04446,0.28158 -0.03952,0.10374 -0.14326,0.15808 -0.0988,0.05434 -0.25688,0.0741 -0.15808,0.01976 -0.40014,0.01482 -0.0049,-0.08892 -0.04446,-0.2223 -0.03952,-0.12844 -0.08398,-0.2223 0.1482,0.0049 0.2717,0.0049 0.12844,0 0.1729,0 0.04446,0 0.06422,-0.01976 0.01976,-0.01976 0.01976,-0.06916 z m 4.45588,0.6175 h 4.36202 v 0.43966 h -4.36202 z m 1.2597,1.76852 h 2.24276 v 0.3952 h -2.24276 z m -0.33592,-0.8398 h 2.50952 v 0.41496 h -2.0501 v 2.61326 h -0.45942 z m 2.41072,0 h 0.45448 v 2.4947 q 0,0.18772 -0.0494,0.29146 -0.04446,0.10868 -0.17784,0.16796 -0.13338,0.0494 -0.35074,0.05928 -0.21242,0.01482 -0.52364,0.01482 -0.0099,-0.0988 -0.05434,-0.23218 -0.04446,-0.12844 -0.08892,-0.2223 0.1482,0.0049 0.28652,0.0099 0.13832,0.0049 0.24206,0.0049 0.10374,-0.0049 0.1482,-0.0049 0.06422,0 0.08892,-0.01976 0.0247,-0.0247 0.0247,-0.07904 z m -1.75864,-1.5561 0.47918,0.11362 q -0.16796,0.5434 -0.42484,1.08186 -0.25688,0.53846 -0.62244,1.00282 -0.36062,0.45942 -0.83486,0.7904 -0.03458,-0.0494 -0.08892,-0.11362 -0.05434,-0.06916 -0.11362,-0.13338 -0.05434,-0.06916 -0.10374,-0.10868 0.33098,-0.22724 0.60268,-0.52364 0.2717,-0.30134 0.48412,-0.64714 0.21736,-0.35074 0.3705,-0.72124 0.15808,-0.3705 0.25194,-0.741 z m -0.31616,3.22582 h 2.24276 v 0.3952 h -2.24276 z m 3.64078,-1.67466 h 4.42624 v 0.41496 h -4.42624 z m 0.43472,-0.9633 h 2.84544 v 0.41002 h -2.84544 z m 0.82992,2.64784 h 2.2724 v 0.36556 h -2.2724 z m 0,0.80522 h 2.2724 v 0.3952 h -2.2724 z m 0.39026,-4.03598 h 0.46436 v 1.77346 h -0.46436 z m 2.16866,0.15808 0.40014,0.21242 q -0.48412,0.65702 -1.13126,1.20536 -0.64714,0.5434 -1.39308,0.96824 -0.74594,0.4199 -1.53634,0.72124 -0.02964,-0.05434 -0.08398,-0.1235 -0.0494,-0.0741 -0.10868,-0.14326 -0.05434,-0.0741 -0.0988,-0.11856 0.80028,-0.2717 1.53634,-0.67184 0.73606,-0.40014 1.35356,-0.91884 0.6175,-0.5187 1.0621,-1.13126 z m -2.8158,2.2724 h 2.82568 v 2.13902 h -0.48412 v -1.74876 h -1.8772 v 1.76852 h -0.46436 z"
       id="text24"
       aria-label="拥有者" />
    <path
       style="font-weight:500;font-size:4.94px;line-height:1.25;font-family:'Noto Sans SC';-inkscape-font-specification:'Noto Sans SC Medium';text-align:end;letter-spacing:0;text-anchor:end;stroke-width:0.26"
       d="m 42.206318,36.47542 h 1.9266 v 0.44954 h -1.9266 z m 0.9386,0.31616 h 0.46436 v 2.58362 h -0.46436 z m -3.3098,-1.511641 h 0.45942 v 1.758641 q 0,0.26676 -0.01482,0.58292 -0.01482,0.31122 -0.05928,0.63232 -0.03952,0.3211 -0.12844,0.62244 -0.08398,0.2964 -0.2223,0.53846 -0.03458,-0.0494 -0.10868,-0.10868 -0.06916,-0.05434 -0.14326,-0.10868 -0.0741,-0.05434 -0.12844,-0.07904 0.16302,-0.2964 0.23218,-0.65702 0.0741,-0.36062 0.09386,-0.73112 0.01976,-0.3705 0.01976,-0.6916 z m 3.90754,-0.41002 0.31122,0.40014 q -0.25688,0.0988 -0.58292,0.177841 -0.32604,0.07904 -0.6669,0.13832 -0.34086,0.05434 -0.65702,0.0988 -0.0099,-0.08398 -0.05434,-0.1976 -0.03952,-0.11856 -0.08398,-0.197601 0.30628,-0.0494 0.62738,-0.10868 0.3211,-0.06422 0.60762,-0.14326 0.29146,-0.07904 0.49894,-0.16796 z m -3.65066,1.180661 h 1.51164 v 1.55116 h -1.51164 v -0.4199 h 1.05716 v -0.71136 h -1.05716 z m 1.4326,-1.141141 0.2964,0.3952 q -0.25194,0.09386 -0.5681,0.163021 -0.31616,0.06916 -0.65208,0.11856 -0.33098,0.04446 -0.63726,0.07904 -0.0099,-0.08398 -0.0494,-0.19266 -0.03952,-0.11362 -0.07904,-0.192661 0.2964,-0.03952 0.60762,-0.09386 0.31122,-0.05434 0.5928,-0.1235 0.28652,-0.0741 0.48906,-0.15314 z m 0.48412,0.38038 h 0.47918 v 1.605501 q 0,0.28652 -0.02964,0.62244 -0.02964,0.33592 -0.11362,0.67678 -0.07904,0.34086 -0.24206,0.65702 -0.15808,0.31122 -0.41496,0.55822 -0.03458,-0.04446 -0.10374,-0.10868 -0.06916,-0.05928 -0.14326,-0.11856 -0.06916,-0.05928 -0.11856,-0.08892 0.23712,-0.23218 0.37544,-0.50388 0.13832,-0.2717 0.20254,-0.56316 0.06916,-0.2964 0.08892,-0.58292 0.01976,-0.29146 0.01976,-0.55328 z m 2.97388,-0.2717 h 0.45942 v 1.452361 q 0,0.31616 -0.0247,0.69654 -0.01976,0.37544 -0.07904,0.77064 -0.05434,0.39026 -0.16796,0.76076 -0.11362,0.36556 -0.30628,0.67184 -0.03952,-0.03952 -0.11856,-0.08892 -0.0741,-0.04446 -0.15314,-0.08892 -0.0741,-0.03952 -0.13338,-0.05928 0.18278,-0.28652 0.28652,-0.62738 0.10374,-0.34086 0.15314,-0.69654 0.0494,-0.35568 0.06422,-0.69654 0.01976,-0.3458 0.01976,-0.6422 z m 0.28158,0 h 3.46294 V 36.1148 h -3.46294 v -0.36556 h 2.99364 v -0.36556 h -2.99364 z m 1.68454,1.388141 h 0.42484 v 2.38602 h -0.42484 z m -0.75088,0.74594 v 0.30134 h 1.94636 V 37.1522 Z m -0.4199,-0.27664 h 2.80098 v 0.85462 h -2.80098 z m -0.1976,1.09668 h 3.0381 v 0.31616 h -2.60832 v 1.1115 h -0.42978 z m 2.7911,0 h 0.42978 v 1.0374 q 0,0.13832 -0.03458,0.21242 -0.02964,0.0741 -0.12844,0.11362 -0.0988,0.03952 -0.25194,0.04446 -0.15314,0.0099 -0.37544,0.0099 -0.0099,-0.0741 -0.0494,-0.16302 -0.03458,-0.08892 -0.06422,-0.15808 0.13832,0.0049 0.25194,0.0049 0.11362,0.0049 0.15314,0 0.04446,-0.0049 0.05434,-0.01976 0.01482,-0.0099 0.01482,-0.04446 z m -2.20818,0.68666 q 0.3458,-0.0099 0.82498,-0.0247 0.47918,-0.01976 0.988,-0.03952 l -0.0049,0.30628 q -0.48412,0.02964 -0.94848,0.05434 -0.46436,0.0247 -0.82992,0.04446 z m 2.0995,-2.46506 0.2717,0.2717 q -0.2717,0.05434 -0.60268,0.09386 -0.33098,0.03952 -0.70148,0.06916 -0.36556,0.0247 -0.73606,0.03952 -0.3705,0.01482 -0.7163,0.01482 -0.0049,-0.06422 -0.03458,-0.1482 -0.0247,-0.08892 -0.05434,-0.1482 0.33592,-0.0049 0.6916,-0.01482 0.36062,-0.01482 0.70642,-0.03952 0.35074,-0.0247 0.65208,-0.05928 0.30134,-0.03952 0.52364,-0.07904 z m -0.6422,2.22794 0.2717,-0.0741 q 0.06916,0.10868 0.13832,0.23218 0.0741,0.1235 0.13338,0.24206 0.05928,0.11856 0.08892,0.20748 l -0.28652,0.09386 q -0.02964,-0.09386 -0.08892,-0.21242 -0.05434,-0.11856 -0.1235,-0.247 -0.06422,-0.12844 -0.13338,-0.24206 z m 3.52716,0.44954 h 2.8652 v 0.42484 h -2.8652 z m 0.72124,-2.55892 h 1.57092 v 0.4199 h -1.57092 z m 0.0049,1.27452 h 1.57092 v 0.41002 h -1.57092 z m -0.25194,-2.534221 h 1.976 v 4.035981 h -0.46436 v -3.6062 h -1.06704 v 3.6062 h -0.4446 z m -1.99576,3.052921 q -0.0099,-0.04446 -0.03458,-0.11362 -0.0247,-0.0741 -0.05434,-0.15314 -0.0247,-0.07904 -0.05434,-0.13338 0.08892,-0.01482 0.18278,-0.0988 0.09386,-0.08398 0.21736,-0.2223 0.06916,-0.06422 0.19266,-0.21736 0.1235,-0.15314 0.27664,-0.36062 0.15808,-0.21242 0.31616,-0.45942 0.16302,-0.247 0.2964,-0.49894 l 0.36556,0.22724 q -0.30628,0.50388 -0.67184,0.97812 -0.36556,0.47424 -0.741,0.82992 v 0.0099 q 0,0 -0.04446,0.0247 -0.04446,0.01976 -0.10374,0.05434 -0.05434,0.02964 -0.0988,0.06916 -0.04446,0.03458 -0.04446,0.06422 z m 0,0 -0.0247,-0.35568 0.20748,-0.1482 1.44742,-0.25688 q -0.0099,0.08892 -0.0099,0.20254 0,0.11362 0.0049,0.17784 -0.49894,0.0988 -0.80028,0.16302 -0.30134,0.06422 -0.46436,0.10374 -0.16302,0.03952 -0.24206,0.06422 -0.0741,0.0247 -0.11856,0.0494 z m -0.03458,-1.19548 q -0.01482,-0.04446 -0.03952,-0.11856 -0.0247,-0.07904 -0.05434,-0.16302 -0.02964,-0.08398 -0.05434,-0.14326 0.0741,-0.01482 0.14326,-0.09386 0.06916,-0.07904 0.15314,-0.20254 0.04446,-0.06422 0.12844,-0.20254 0.08398,-0.13832 0.18278,-0.33098 0.10374,-0.19266 0.20254,-0.410021 0.10374,-0.2223 0.17784,-0.4446 l 0.42484,0.1976 q -0.13338,0.2964 -0.30134,0.602681 -0.16302,0.30134 -0.34086,0.57798 -0.17784,0.2717 -0.36556,0.494 v 0.0099 q 0,0 -0.03952,0.0247 -0.03952,0.0247 -0.09386,0.05928 -0.0494,0.03458 -0.08892,0.0741 -0.03458,0.03952 -0.03458,0.06916 z m 0,0 -0.01482,-0.32604 0.20254,-0.13338 0.92872,-0.08398 q -0.01482,0.07904 -0.02964,0.19266 -0.0099,0.10868 -0.0049,0.17784 -0.31616,0.03458 -0.5187,0.06422 -0.1976,0.0247 -0.31122,0.04446 -0.10868,0.01976 -0.16796,0.03458 -0.05434,0.01482 -0.08398,0.02964 z m -0.10374,1.73888 q 0.21736,-0.03952 0.494,-0.0988 0.27664,-0.06422 0.58786,-0.13832 0.31122,-0.0741 0.62738,-0.14326 l 0.04446,0.39026 q -0.43472,0.11362 -0.87932,0.23218 -0.43966,0.11362 -0.7904,0.20748 z"
       id="text28"
       aria-label="所属组" />
    <path
       style="font-weight:500;font-size:4.94px;line-height:1.25;font-family:'Noto Sans SC';-inkscape-font-specification:'Noto Sans SC Medium';text-align:end;letter-spacing:0;text-anchor:end;stroke-width:0.26"
       d="m 44.226825,48.108139 h 4.42624 v 0.43472 h -4.42624 z m 0.1482,-2.54904 h 4.15454 v 0.43472 h -4.15454 z m 1.03246,0.84968 h 2.06986 v 0.3952 h -2.06986 z m 0,0.8398 h 2.06986 v 0.3952 h -2.06986 z m -0.2964,-2.21806 h 0.45942 v 3.29004 h -0.45942 z m 2.18348,0 h 0.47424 v 3.29004 h -0.47424 z m -0.53846,3.8779 0.32604,-0.29146 q 0.28652,0.0988 0.57798,0.21736 0.2964,0.11856 0.55822,0.23712 0.26182,0.11362 0.45448,0.21242 l -0.43966,0.30134 q -0.16796,-0.0988 -0.40508,-0.21736 -0.23712,-0.11856 -0.51376,-0.23218 -0.27664,-0.11856 -0.55822,-0.22724 z m -1.02752,-0.32604 0.40014,0.2964 q -0.2223,0.13832 -0.50882,0.2717 -0.28158,0.12844 -0.57798,0.24206 -0.2964,0.11856 -0.56316,0.20254 -0.0494,-0.0741 -0.14326,-0.17784 -0.08892,-0.10374 -0.16302,-0.1729 0.26676,-0.0741 0.55822,-0.18278 0.2964,-0.11362 0.55822,-0.23712 0.26676,-0.12844 0.43966,-0.24206 z m 6.21452,-3.54692 h 0.43966 v 3.43824 h -0.43966 z m -1.69936,1.99082 2.95906,-1.15102 0.17784,0.41002 -2.95412,1.15102 z m 0.6175,-1.48694 h 0.45942 v 3.23076 q 0,0.14326 0.02964,0.21736 0.02964,0.0741 0.11362,0.10374 0.08892,0.0247 0.25688,0.0247 0.0494,0 0.16302,0 0.11362,0 0.25688,0 0.14326,0 0.28652,0 0.1482,0 0.26676,0 0.11856,0 0.17784,0 0.15314,0 0.22724,-0.05434 0.07904,-0.05928 0.11362,-0.21242 0.03458,-0.15314 0.05434,-0.43966 0.07904,0.05928 0.20254,0.11362 0.1235,0.0494 0.2223,0.0741 -0.02964,0.35074 -0.10868,0.55822 -0.0741,0.20748 -0.23712,0.29146 -0.15808,0.08892 -0.4446,0.08892 -0.04446,0 -0.16796,0 -0.1235,0 -0.28158,0 -0.15808,0 -0.31616,0 -0.15808,0 -0.28158,0 -0.11856,0 -0.16302,0 -0.3211,0 -0.50388,-0.06422 -0.17784,-0.06422 -0.25194,-0.23712 -0.0741,-0.16796 -0.0741,-0.4693 z m 2.18348,0.42978 h -0.04446 l 0.09386,-0.0741 0.08398,-0.06916 0.3211,0.12844 -0.01482,0.0741 q 0,0.43966 -0.0099,0.80028 -0.0049,0.36062 -0.01482,0.60762 -0.0099,0.24206 -0.02964,0.35074 -0.0247,0.17784 -0.0988,0.2717 -0.0741,0.08892 -0.19266,0.12844 -0.10374,0.03952 -0.25688,0.0494 -0.1482,0.0049 -0.2717,0 -0.0049,-0.0988 -0.03458,-0.2223 -0.02964,-0.12844 -0.06916,-0.20748 0.09386,0.0049 0.1976,0.0099 0.10374,0 0.1482,0 0.05434,0 0.08892,-0.0247 0.03952,-0.0247 0.05928,-0.10868 0.01976,-0.0741 0.0247,-0.28652 0.0099,-0.21242 0.01482,-0.57304 0.0049,-0.36062 0.0049,-0.85462 z m -2.87014,-0.92872 0.42978,0.13338 q -0.15808,0.41496 -0.37544,0.82992 -0.21736,0.41002 -0.4693,0.77558 -0.247,0.36556 -0.51376,0.64714 -0.0247,-0.05434 -0.06916,-0.14326 -0.04446,-0.08892 -0.09386,-0.17784 -0.0494,-0.09386 -0.09386,-0.14326 0.23712,-0.23712 0.45448,-0.5434 0.2223,-0.30628 0.41002,-0.66196 0.18772,-0.35568 0.3211,-0.7163 z m -0.51376,1.3091 0.45448,-0.45448 0.0049,0.0049 v 3.70006 h -0.45942 z"
       id="text32"
       aria-label="其他" />
    <path
       style="font-weight:500;font-size:4.94px;line-height:1.25;font-family:'Noto Sans SC';-inkscape-font-specification:'Noto Sans SC Medium';letter-spacing:0;stroke-width:0.26"
       d="m 179.83383,23.56174 h 2.1983 v 0.42484 h -2.1983 z m -0.005,1.14114 h 2.18348 v 0.4199 h -2.18348 z m -0.0198,1.1362 h 2.22794 v 0.41496 h -2.22794 z m -0.20748,-2.27734 h 0.43966 v 1.79322 q 0,0.28158 -0.0247,0.61256 -0.0198,0.32604 -0.084,0.66196 -0.0593,0.33098 -0.17784,0.6422 -0.11856,0.31122 -0.31616,0.55822 -0.0346,-0.03952 -0.10374,-0.0988 -0.0642,-0.05434 -0.13338,-0.10868 -0.0692,-0.05434 -0.11856,-0.07904 0.23712,-0.30628 0.3458,-0.68172 0.11362,-0.38038 0.14326,-0.77064 0.0296,-0.3952 0.0296,-0.741 z m 2.26252,0 h 0.44954 v 3.73464 q 0,0.1729 -0.0445,0.27664 -0.0395,0.10374 -0.1482,0.15808 -0.10868,0.05434 -0.27664,0.06422 -0.16796,0.01482 -0.41496,0.01482 -0.0148,-0.08398 -0.0543,-0.21242 -0.0346,-0.12844 -0.079,-0.21736 0.15808,0.0049 0.2964,0.0049 0.13832,0 0.18772,0 0.0445,0 0.0642,-0.01976 0.0198,-0.01976 0.0198,-0.0741 z m -1.13126,0.16796 h 0.42978 v 3.98658 h -0.42978 z m -2.92942,2.08468 q 0.2964,-0.07904 0.72124,-0.1976 0.42484,-0.11856 0.84968,-0.247 l 0.0642,0.42484 q -0.3952,0.11856 -0.79534,0.247 -0.40014,0.1235 -0.73112,0.2223 z m 0.0741,-1.6055 h 1.55116 v 0.43472 h -1.55116 z m 0.58292,-0.9633 h 0.4446 v 4.01622 q 0,0.17784 -0.0445,0.28158 -0.0395,0.10374 -0.14326,0.15808 -0.0988,0.05434 -0.25688,0.0741 -0.15808,0.01976 -0.40014,0.01482 -0.005,-0.08892 -0.0445,-0.2223 -0.0395,-0.12844 -0.084,-0.2223 0.1482,0.0049 0.2717,0.0049 0.12844,0 0.1729,0 0.0445,0 0.0642,-0.01976 0.0198,-0.01976 0.0198,-0.06916 z m 4.45588,0.6175 h 4.36202 v 0.43966 h -4.36202 z m 1.2597,1.76852 h 2.24276 v 0.3952 h -2.24276 z m -0.33592,-0.8398 h 2.50952 v 0.41496 h -2.0501 v 2.61326 h -0.45942 z m 2.41072,0 h 0.45448 v 2.4947 q 0,0.18772 -0.0494,0.29146 -0.0445,0.10868 -0.17784,0.16796 -0.13338,0.0494 -0.35074,0.05928 -0.21242,0.01482 -0.52364,0.01482 -0.01,-0.0988 -0.0543,-0.23218 -0.0445,-0.12844 -0.0889,-0.2223 0.1482,0.0049 0.28652,0.0099 0.13832,0.0049 0.24206,0.0049 0.10374,-0.0049 0.1482,-0.0049 0.0642,0 0.0889,-0.01976 0.0247,-0.0247 0.0247,-0.07904 z m -1.75864,-1.5561 0.47918,0.11362 q -0.16796,0.5434 -0.42484,1.08186 -0.25688,0.53846 -0.62244,1.00282 -0.36062,0.45942 -0.83486,0.7904 -0.0346,-0.0494 -0.0889,-0.11362 -0.0543,-0.06916 -0.11362,-0.13338 -0.0543,-0.06916 -0.10374,-0.10868 0.33098,-0.22724 0.60268,-0.52364 0.2717,-0.30134 0.48412,-0.64714 0.21736,-0.35074 0.3705,-0.72124 0.15808,-0.3705 0.25194,-0.741 z m -0.31616,3.22582 h 2.24276 v 0.3952 h -2.24276 z m 3.64078,-1.67466 h 4.42624 v 0.41496 h -4.42624 z m 0.43472,-0.9633 h 2.84544 v 0.41002 h -2.84544 z m 0.82992,2.64784 h 2.2724 v 0.36556 h -2.2724 z m 0,0.80522 h 2.2724 v 0.3952 h -2.2724 z m 0.39026,-4.03598 h 0.46436 v 1.77346 h -0.46436 z m 2.16866,0.15808 0.40014,0.21242 q -0.48412,0.65702 -1.13126,1.20536 -0.64714,0.5434 -1.39308,0.96824 -0.74594,0.4199 -1.53634,0.72124 -0.0296,-0.05434 -0.084,-0.1235 -0.0494,-0.0741 -0.10868,-0.14326 -0.0543,-0.0741 -0.0988,-0.11856 0.80028,-0.2717 1.53634,-0.67184 0.73606,-0.40014 1.35356,-0.91884 0.6175,-0.5187 1.0621,-1.13126 z m -2.8158,2.2724 h 2.82568 v 2.13902 h -0.48412 v -1.74876 h -1.8772 v 1.76852 h -0.46436 z m 4.01128,-1.48694 h 4.28298 v 0.42978 h -4.28298 z m -0.0296,1.94636 h 4.34226 v 0.43472 h -4.34226 z m 3.32956,-2.81086 0.49894,0.14326 q -0.1482,0.19266 -0.30628,0.38532 -0.15314,0.18772 -0.28652,0.31616 l -0.38532,-0.13338 q 0.084,-0.10374 0.16796,-0.22724 0.0889,-0.1235 0.1729,-0.25194 0.084,-0.12844 0.13832,-0.23218 z m -1.4079,-0.07904 h 0.4693 v 2.30698 h -0.4693 z m -1.37332,0.27664 0.40014,-0.18278 q 0.15314,0.1482 0.30628,0.34086 0.15314,0.18772 0.2223,0.33592 l -0.42484,0.1976 q -0.0642,-0.14326 -0.20748,-0.34086 -0.14326,-0.1976 -0.2964,-0.35074 z m 1.37332,2.13408 h 0.494 q -0.0395,0.34086 -0.11362,0.63232 -0.0741,0.29146 -0.2223,0.53352 -0.14326,0.24206 -0.39026,0.43472 -0.24206,0.19266 -0.62738,0.33592 -0.38038,0.14326 -0.93366,0.23712 -0.0148,-0.06422 -0.0593,-0.14326 -0.0395,-0.07904 -0.0889,-0.15808 -0.0494,-0.07904 -0.0939,-0.13338 0.51376,-0.0741 0.85956,-0.18278 0.3458,-0.11362 0.56316,-0.26676 0.21736,-0.15314 0.34086,-0.3458 0.1235,-0.19266 0.18278,-0.42484 0.0593,-0.23712 0.0889,-0.5187 z m -0.1482,-1.26464 0.37544,0.15314 q -0.20748,0.29146 -0.51376,0.5434 -0.30628,0.247 -0.6669,0.43472 -0.36062,0.18278 -0.74594,0.29146 -0.0296,-0.05434 -0.084,-0.12844 -0.0494,-0.0741 -0.10868,-0.14326 -0.0543,-0.06916 -0.10868,-0.11362 0.3705,-0.08892 0.72618,-0.24206 0.35568,-0.15314 0.64714,-0.35568 0.29146,-0.20748 0.47918,-0.43966 z m 0.64714,1.89202 q 0.23218,0.48412 0.75088,0.75582 0.52364,0.26676 1.30416,0.35074 -0.0494,0.0494 -0.10868,0.1235 -0.0543,0.07904 -0.10374,0.16302 -0.0494,0.08398 -0.079,0.1482 -0.55822,-0.08398 -0.98306,-0.26676 -0.4199,-0.17784 -0.72124,-0.4693 -0.2964,-0.2964 -0.48412,-0.7163 z m -0.36556,-1.52152 0.21736,-0.32604 q 0.24206,0.10374 0.52364,0.23712 0.28158,0.12844 0.56316,0.26676 0.28158,0.13338 0.52858,0.26182 0.247,0.1235 0.42484,0.2223 l -0.22724,0.38038 q -0.16796,-0.10374 -0.41496,-0.23712 -0.24206,-0.13338 -0.52364,-0.2717 -0.28158,-0.14326 -0.56316,-0.28158 -0.28158,-0.13832 -0.52858,-0.25194 z m 5.61184,-0.91884 h 0.45448 v 2.76146 h -0.45448 z m 1.04234,-0.50388 h 0.46436 v 3.90754 q 0,0.21242 -0.0543,0.32604 -0.0494,0.11362 -0.1729,0.1729 -0.13338,0.05434 -0.3458,0.06916 -0.21242,0.01976 -0.53846,0.01976 -0.0148,-0.0988 -0.0642,-0.23712 -0.0445,-0.13832 -0.0939,-0.24206 0.23218,0.0099 0.42484,0.0099 0.1976,0 0.26182,0 0.0692,-0.0049 0.0939,-0.02964 0.0247,-0.0247 0.0247,-0.08892 z m -3.21594,0.53846 v 0.82992 h 1.13126 V 23.87296 Z M 197.87471,23.458 h 2.00564 v 1.66478 h -2.00564 z m -0.16302,2.15878 h 2.0007 v 0.42484 h -2.0007 z m 1.81298,0 h 0.45942 q 0,0 -0.005,0.03458 0,0.02964 0,0.0741 0,0.04446 -0.005,0.07904 -0.0198,0.58786 -0.0494,0.95342 -0.0247,0.36556 -0.0692,0.56316 -0.0395,0.19266 -0.10374,0.2717 -0.0692,0.08398 -0.14326,0.11856 -0.0741,0.03952 -0.18278,0.05434 -0.084,0.01482 -0.23218,0.01482 -0.1482,0 -0.31616,-0.0049 -0.005,-0.10868 -0.0395,-0.23218 -0.0296,-0.1235 -0.0889,-0.21242 0.1482,0.0099 0.2717,0.01482 0.1235,0.0049 0.17784,0.0049 0.0593,0 0.0889,-0.0099 0.0346,-0.01482 0.0692,-0.0494 0.0395,-0.0494 0.0692,-0.21736 0.0296,-0.16796 0.0543,-0.49894 0.0296,-0.33592 0.0445,-0.88426 z m -0.988,-0.38038 h 0.43966 q -0.0198,0.4446 -0.0692,0.83486 -0.0445,0.38532 -0.15808,0.7163 -0.11362,0.33098 -0.32604,0.59774 -0.21242,0.26676 -0.56316,0.45942 -0.0395,-0.08398 -0.1235,-0.18772 -0.084,-0.0988 -0.15808,-0.15808 0.31122,-0.16302 0.494,-0.39026 0.18278,-0.22724 0.27664,-0.51376 0.0988,-0.29146 0.13338,-0.63232 0.0395,-0.34086 0.0543,-0.72618 z"
       id="text36"
       aria-label="拥有者类别" />
    <path
       style="font-weight:500;font-size:4.94px;line-height:1.25;font-family:'Noto Sans SC';-inkscape-font-specification:'Noto Sans SC Medium';letter-spacing:0;stroke-width:0.26"
       d="m 179.58202,38.23132 h 2.8652 v 0.42484 h -2.8652 z m 0.72124,-2.55892 h 1.57092 v 0.4199 h -1.57092 z m 0.005,1.27452 h 1.57092 v 0.41002 h -1.57092 z m -0.25194,-2.53422 h 1.976 v 4.03598 h -0.46436 v -3.6062 h -1.06704 v 3.6062 h -0.4446 z m -1.99576,3.05292 q -0.01,-0.04446 -0.0346,-0.11362 -0.0247,-0.0741 -0.0543,-0.15314 -0.0247,-0.07904 -0.0543,-0.13338 0.0889,-0.01482 0.18278,-0.0988 0.0939,-0.08398 0.21736,-0.2223 0.0692,-0.06422 0.19266,-0.21736 0.1235,-0.15314 0.27664,-0.36062 0.15808,-0.21242 0.31616,-0.45942 0.16302,-0.247 0.2964,-0.49894 l 0.36556,0.22724 q -0.30628,0.50388 -0.67184,0.97812 -0.36556,0.47424 -0.741,0.82992 v 0.0099 q 0,0 -0.0445,0.0247 -0.0445,0.01976 -0.10374,0.05434 -0.0543,0.02964 -0.0988,0.06916 -0.0445,0.03458 -0.0445,0.06422 z m 0,0 -0.0247,-0.35568 0.20748,-0.1482 1.44742,-0.25688 q -0.01,0.08892 -0.01,0.20254 0,0.11362 0.005,0.17784 -0.49894,0.0988 -0.80028,0.16302 -0.30134,0.06422 -0.46436,0.10374 -0.16302,0.03952 -0.24206,0.06422 -0.0741,0.0247 -0.11856,0.0494 z m -0.0346,-1.19548 q -0.0148,-0.04446 -0.0395,-0.11856 -0.0247,-0.07904 -0.0543,-0.16302 -0.0296,-0.08398 -0.0543,-0.14326 0.0741,-0.01482 0.14326,-0.09386 0.0692,-0.07904 0.15314,-0.20254 0.0445,-0.06422 0.12844,-0.20254 0.084,-0.13832 0.18278,-0.33098 0.10374,-0.19266 0.20254,-0.41002 0.10374,-0.2223 0.17784,-0.4446 l 0.42484,0.1976 q -0.13338,0.2964 -0.30134,0.60268 -0.16302,0.30134 -0.34086,0.57798 -0.17784,0.2717 -0.36556,0.494 v 0.0099 q 0,0 -0.0395,0.0247 -0.0395,0.0247 -0.0939,0.05928 -0.0494,0.03458 -0.0889,0.0741 -0.0346,0.03952 -0.0346,0.06916 z m 0,0 -0.0148,-0.32604 0.20254,-0.13338 0.92872,-0.08398 q -0.0148,0.07904 -0.0296,0.19266 -0.01,0.10868 -0.005,0.17784 -0.31616,0.03458 -0.5187,0.06422 -0.1976,0.0247 -0.31122,0.04446 -0.10868,0.01976 -0.16796,0.03458 -0.0543,0.01482 -0.084,0.02964 z m -0.10374,1.73888 q 0.21736,-0.03952 0.494,-0.0988 0.27664,-0.06422 0.58786,-0.13832 0.31122,-0.0741 0.62738,-0.14326 l 0.0445,0.39026 q -0.43472,0.11362 -0.87932,0.23218 -0.43966,0.11362 -0.7904,0.20748 z m 5.04374,-2.89484 h 4.28298 v 0.42978 h -4.28298 z m -0.0296,1.94636 h 4.34226 v 0.43472 h -4.34226 z m 3.32956,-2.81086 0.49894,0.14326 q -0.1482,0.19266 -0.30628,0.38532 -0.15314,0.18772 -0.28652,0.31616 l -0.38532,-0.13338 q 0.084,-0.10374 0.16796,-0.22724 0.0889,-0.1235 0.1729,-0.25194 0.084,-0.12844 0.13832,-0.23218 z m -1.4079,-0.07904 h 0.4693 v 2.30698 h -0.4693 z m -1.37332,0.27664 0.40014,-0.18278 q 0.15314,0.1482 0.30628,0.34086 0.15314,0.18772 0.2223,0.33592 l -0.42484,0.1976 q -0.0642,-0.14326 -0.20748,-0.34086 -0.14326,-0.1976 -0.2964,-0.35074 z m 1.37332,2.13408 h 0.494 q -0.0395,0.34086 -0.11362,0.63232 -0.0741,0.29146 -0.2223,0.53352 -0.14326,0.24206 -0.39026,0.43472 -0.24206,0.19266 -0.62738,0.33592 -0.38038,0.14326 -0.93366,0.23712 -0.0148,-0.06422 -0.0593,-0.14326 -0.0395,-0.07904 -0.0889,-0.15808 -0.0494,-0.07904 -0.0939,-0.13338 0.51376,-0.0741 0.85956,-0.18278 0.3458,-0.11362 0.56316,-0.26676 0.21736,-0.15314 0.34086,-0.3458 0.1235,-0.19266 0.18278,-0.42484 0.0593,-0.23712 0.0889,-0.5187 z m -0.1482,-1.26464 0.37544,0.15314 q -0.20748,0.29146 -0.51376,0.5434 -0.30628,0.247 -0.6669,0.43472 -0.36062,0.18278 -0.74594,0.29146 -0.0296,-0.05434 -0.084,-0.12844 -0.0494,-0.0741 -0.10868,-0.14326 -0.0543,-0.06916 -0.10868,-0.11362 0.3705,-0.08892 0.72618,-0.24206 0.35568,-0.15314 0.64714,-0.35568 0.29146,-0.20748 0.47918,-0.43966 z m 0.64714,1.89202 q 0.23218,0.48412 0.75088,0.75582 0.52364,0.26676 1.30416,0.35074 -0.0494,0.0494 -0.10868,0.1235 -0.0543,0.07904 -0.10374,0.16302 -0.0494,0.08398 -0.079,0.1482 -0.55822,-0.08398 -0.98306,-0.26676 -0.4199,-0.17784 -0.72124,-0.4693 -0.2964,-0.2964 -0.48412,-0.7163 z m -0.36556,-1.52152 0.21736,-0.32604 q 0.24206,0.10374 0.52364,0.23712 0.28158,0.12844 0.56316,0.26676 0.28158,0.13338 0.52858,0.26182 0.247,0.1235 0.42484,0.2223 l -0.22724,0.38038 q -0.16796,-0.10374 -0.41496,-0.23712 -0.24206,-0.13338 -0.52364,-0.2717 -0.28158,-0.14326 -0.56316,-0.28158 -0.28158,-0.13832 -0.52858,-0.25194 z m 5.61184,-0.91884 h 0.45448 v 2.76146 h -0.45448 z m 1.04234,-0.50388 h 0.46436 v 3.90754 q 0,0.21242 -0.0543,0.32604 -0.0494,0.11362 -0.1729,0.1729 -0.13338,0.05434 -0.3458,0.06916 -0.21242,0.01976 -0.53846,0.01976 -0.0148,-0.0988 -0.0642,-0.23712 -0.0445,-0.13832 -0.0939,-0.24206 0.23218,0.0099 0.42484,0.0099 0.1976,0 0.26182,0 0.0692,-0.0049 0.0939,-0.02964 0.0247,-0.0247 0.0247,-0.08892 z m -3.21594,0.53846 v 0.82992 h 1.13126 V 34.80296 Z M 188.00472,34.388 h 2.00564 v 1.66478 h -2.00564 z m -0.16302,2.15878 h 2.0007 v 0.42484 h -2.0007 z m 1.81298,0 h 0.45942 q 0,0 -0.005,0.03458 0,0.02964 0,0.0741 0,0.04446 -0.005,0.07904 -0.0198,0.58786 -0.0494,0.95342 -0.0247,0.36556 -0.0692,0.56316 -0.0395,0.19266 -0.10374,0.2717 -0.0692,0.08398 -0.14326,0.11856 -0.0741,0.03952 -0.18278,0.05434 -0.084,0.01482 -0.23218,0.01482 -0.1482,0 -0.31616,-0.0049 -0.005,-0.10868 -0.0395,-0.23218 -0.0296,-0.1235 -0.0889,-0.21242 0.1482,0.0099 0.2717,0.01482 0.1235,0.0049 0.17784,0.0049 0.0593,0 0.0889,-0.0099 0.0346,-0.01482 0.0692,-0.0494 0.0395,-0.0494 0.0692,-0.21736 0.0296,-0.16796 0.0543,-0.49894 0.0296,-0.33592 0.0445,-0.88426 z m -0.988,-0.38038 h 0.43966 q -0.0198,0.4446 -0.0692,0.83486 -0.0445,0.38532 -0.15808,0.7163 -0.11362,0.33098 -0.32604,0.59774 -0.21242,0.26676 -0.56316,0.45942 -0.0395,-0.08398 -0.1235,-0.18772 -0.084,-0.0988 -0.15808,-0.15808 0.31122,-0.16302 0.494,-0.39026 0.18278,-0.22724 0.27664,-0.51376 0.0988,-0.29146 0.13338,-0.63232 0.0395,-0.34086 0.0543,-0.72618 z"
       id="text40"
       aria-label="组类别" />
    <path
       style="font-weight:500;font-size:4.94px;line-height:1.25;font-family:'Noto Sans SC';-inkscape-font-specification:'Noto Sans SC Medium';letter-spacing:0;stroke-width:0.26"
       d="m 177.93687,48.108139 h 4.42624 v 0.43472 h -4.42624 z m 0.1482,-2.54904 h 4.15454 v 0.43472 h -4.15454 z m 1.03246,0.84968 h 2.06986 v 0.3952 h -2.06986 z m 0,0.8398 h 2.06986 v 0.3952 h -2.06986 z m -0.2964,-2.21806 h 0.45942 v 3.29004 h -0.45942 z m 2.18348,0 h 0.47424 v 3.29004 h -0.47424 z m -0.53846,3.8779 0.32604,-0.29146 q 0.28652,0.0988 0.57798,0.21736 0.2964,0.11856 0.55822,0.23712 0.26182,0.11362 0.45448,0.21242 l -0.43966,0.30134 q -0.16796,-0.0988 -0.40508,-0.21736 -0.23712,-0.11856 -0.51376,-0.23218 -0.27664,-0.11856 -0.55822,-0.22724 z m -1.02752,-0.32604 0.40014,0.2964 q -0.2223,0.13832 -0.50882,0.2717 -0.28158,0.12844 -0.57798,0.24206 -0.2964,0.11856 -0.56316,0.20254 -0.0494,-0.0741 -0.14326,-0.17784 -0.0889,-0.10374 -0.16302,-0.1729 0.26676,-0.0741 0.55822,-0.18278 0.2964,-0.11362 0.55822,-0.23712 0.26676,-0.12844 0.43966,-0.24206 z m 6.21452,-3.54692 h 0.43966 v 3.43824 h -0.43966 z m -1.69936,1.99082 2.95906,-1.15102 0.17784,0.41002 -2.95412,1.15102 z m 0.6175,-1.48694 h 0.45942 v 3.23076 q 0,0.14326 0.0296,0.21736 0.0296,0.0741 0.11362,0.10374 0.0889,0.0247 0.25688,0.0247 0.0494,0 0.16302,0 0.11362,0 0.25688,0 0.14326,0 0.28652,0 0.1482,0 0.26676,0 0.11856,0 0.17784,0 0.15314,0 0.22724,-0.05434 0.079,-0.05928 0.11362,-0.21242 0.0346,-0.15314 0.0543,-0.43966 0.079,0.05928 0.20254,0.11362 0.1235,0.0494 0.2223,0.0741 -0.0296,0.35074 -0.10868,0.55822 -0.0741,0.20748 -0.23712,0.29146 -0.15808,0.08892 -0.4446,0.08892 -0.0445,0 -0.16796,0 -0.1235,0 -0.28158,0 -0.15808,0 -0.31616,0 -0.15808,0 -0.28158,0 -0.11856,0 -0.16302,0 -0.3211,0 -0.50388,-0.06422 -0.17784,-0.06422 -0.25194,-0.23712 -0.0741,-0.16796 -0.0741,-0.4693 z m 2.18348,0.42978 h -0.0445 l 0.0939,-0.0741 0.084,-0.06916 0.3211,0.12844 -0.0148,0.0741 q 0,0.43966 -0.01,0.80028 -0.005,0.36062 -0.0148,0.60762 -0.01,0.24206 -0.0296,0.35074 -0.0247,0.17784 -0.0988,0.2717 -0.0741,0.08892 -0.19266,0.12844 -0.10374,0.03952 -0.25688,0.0494 -0.1482,0.0049 -0.2717,0 -0.005,-0.0988 -0.0346,-0.2223 -0.0296,-0.12844 -0.0692,-0.20748 0.0939,0.0049 0.1976,0.0099 0.10374,0 0.1482,0 0.0543,0 0.0889,-0.0247 0.0395,-0.0247 0.0593,-0.10868 0.0198,-0.0741 0.0247,-0.28652 0.01,-0.21242 0.0148,-0.57304 0.005,-0.36062 0.005,-0.85462 z m -2.87014,-0.92872 0.42978,0.13338 q -0.15808,0.41496 -0.37544,0.82992 -0.21736,0.41002 -0.4693,0.77558 -0.247,0.36556 -0.51376,0.64714 -0.0247,-0.05434 -0.0692,-0.14326 -0.0445,-0.08892 -0.0939,-0.17784 -0.0494,-0.09386 -0.0939,-0.14326 0.23712,-0.23712 0.45448,-0.5434 0.2223,-0.30628 0.41002,-0.66196 0.18772,-0.35568 0.3211,-0.7163 z m -0.51376,1.3091 0.45448,-0.45448 0.005,0.0049 v 3.70006 h -0.45942 z m 4.52504,-0.38532 h 4.28298 v 0.42978 h -4.28298 z m -0.0296,1.94636 h 4.34226 v 0.43472 h -4.34226 z m 3.32956,-2.81086 0.49894,0.14326 q -0.1482,0.19266 -0.30628,0.38532 -0.15314,0.18772 -0.28652,0.31616 l -0.38532,-0.13338 q 0.084,-0.10374 0.16796,-0.22724 0.0889,-0.1235 0.1729,-0.25194 0.084,-0.12844 0.13832,-0.23218 z m -1.4079,-0.07904 h 0.4693 v 2.30698 h -0.4693 z m -1.37332,0.27664 0.40014,-0.18278 q 0.15314,0.1482 0.30628,0.34086 0.15314,0.18772 0.2223,0.33592 l -0.42484,0.1976 q -0.0642,-0.14326 -0.20748,-0.34086 -0.14326,-0.1976 -0.2964,-0.35074 z m 1.37332,2.13408 h 0.494 q -0.0395,0.34086 -0.11362,0.63232 -0.0741,0.29146 -0.2223,0.53352 -0.14326,0.24206 -0.39026,0.43472 -0.24206,0.19266 -0.62738,0.33592 -0.38038,0.14326 -0.93366,0.23712 -0.0148,-0.06422 -0.0593,-0.14326 -0.0395,-0.07904 -0.0889,-0.15808 -0.0494,-0.07904 -0.0939,-0.13338 0.51376,-0.0741 0.85956,-0.18278 0.3458,-0.11362 0.56316,-0.26676 0.21736,-0.15314 0.34086,-0.3458 0.1235,-0.19266 0.18278,-0.42484 0.0593,-0.23712 0.0889,-0.5187 z m -0.1482,-1.26464 0.37544,0.15314 q -0.20748,0.29146 -0.51376,0.5434 -0.30628,0.247 -0.6669,0.43472 -0.36062,0.18278 -0.74594,0.29146 -0.0296,-0.05434 -0.084,-0.12844 -0.0494,-0.0741 -0.10868,-0.14326 -0.0543,-0.06916 -0.10868,-0.11362 0.3705,-0.08892 0.72618,-0.24206 0.35568,-0.15314 0.64714,-0.35568 0.29146,-0.20748 0.47918,-0.43966 z m 0.64714,1.89202 q 0.23218,0.48412 0.75088,0.75582 0.52364,0.26676 1.30416,0.35074 -0.0494,0.0494 -0.10868,0.1235 -0.0543,0.07904 -0.10374,0.16302 -0.0494,0.08398 -0.079,0.1482 -0.55822,-0.08398 -0.98306,-0.26676 -0.4199,-0.17784 -0.72124,-0.4693 -0.2964,-0.2964 -0.48412,-0.7163 z m -0.36556,-1.52152 0.21736,-0.32604 q 0.24206,0.10374 0.52364,0.23712 0.28158,0.12844 0.56316,0.26676 0.28158,0.13338 0.52858,0.26182 0.247,0.1235 0.42484,0.2223 l -0.22724,0.38038 q -0.16796,-0.10374 -0.41496,-0.23712 -0.24206,-0.13338 -0.52364,-0.2717 -0.28158,-0.14326 -0.56316,-0.28158 -0.28158,-0.13832 -0.52858,-0.25194 z m 5.61184,-0.91884 h 0.45448 v 2.76146 h -0.45448 z m 1.04234,-0.50388 h 0.46436 v 3.90754 q 0,0.21242 -0.0543,0.32604 -0.0494,0.11362 -0.1729,0.1729 -0.13338,0.05434 -0.3458,0.06916 -0.21242,0.01976 -0.53846,0.01976 -0.0148,-0.0988 -0.0642,-0.23712 -0.0445,-0.13832 -0.0939,-0.24206 0.23218,0.0099 0.42484,0.0099 0.1976,0 0.26182,0 0.0692,-0.0049 0.0939,-0.02964 0.0247,-0.0247 0.0247,-0.08892 z m -3.21594,0.53846 v 0.82992 h 1.13126 v -0.82992 z m -0.42484,-0.41496 h 2.00564 v 1.66478 h -2.00564 z m -0.16302,2.15878 h 2.0007 v 0.42484 h -2.0007 z m 1.81298,0 h 0.45942 q 0,0 -0.005,0.03458 0,0.02964 0,0.0741 0,0.04446 -0.005,0.07904 -0.0198,0.58786 -0.0494,0.95342 -0.0247,0.36556 -0.0692,0.56316 -0.0395,0.19266 -0.10374,0.2717 -0.0692,0.08398 -0.14326,0.11856 -0.0741,0.03952 -0.18278,0.05434 -0.084,0.01482 -0.23218,0.01482 -0.1482,0 -0.31616,-0.0049 -0.005,-0.10868 -0.0395,-0.23218 -0.0296,-0.1235 -0.0889,-0.21242 0.1482,0.0099 0.2717,0.01482 0.1235,0.0049 0.17784,0.0049 0.0593,0 0.0889,-0.0099 0.0346,-0.01482 0.0692,-0.0494 0.0395,-0.0494 0.0692,-0.21736 0.0296,-0.16796 0.0543,-0.49894 0.0296,-0.33592 0.0445,-0.88426 z m -0.988,-0.38038 h 0.43966 q -0.0198,0.4446 -0.0692,0.83486 -0.0445,0.38532 -0.15808,0.7163 -0.11362,0.33098 -0.32604,0.59774 -0.21242,0.26676 -0.56316,0.45942 -0.0395,-0.08398 -0.1235,-0.18772 -0.084,-0.0988 -0.15808,-0.15808 0.31122,-0.16302 0.494,-0.39026 0.18278,-0.22724 0.27664,-0.51376 0.0988,-0.29146 0.13338,-0.63232 0.0395,-0.34086 0.0543,-0.72618 z"
       id="text44"
       aria-label="其他类别" />
    <path
       d="M 80.678222,24.73348 V 27.49 h -0.84474 v -0.37544 q -0.12844,0.18278 -0.35074,0.2964 -0.21736,0.10868 -0.48412,0.10868 -0.31616,0 -0.55822,-0.13832 -0.24206,-0.14326 -0.37544,-0.41002 -0.13338,-0.26676 -0.13338,-0.62738 v -1.61044 h 0.8398 v 1.49682 q 0,0.27664 0.14326,0.42978 0.14326,0.15314 0.38532,0.15314 0.247,0 0.39026,-0.15314 0.14326,-0.15314 0.14326,-0.42978 v -1.49682 z m 1.728999,2.79604 q -0.36062,0 -0.6422,-0.1235 -0.28158,-0.1235 -0.4446,-0.33592 -0.16302,-0.21736 -0.18278,-0.48412 h 0.83486 q 0.01482,0.14326 0.13338,0.23218 0.11856,0.08892 0.29146,0.08892 0.15808,0 0.24206,-0.05928 0.08892,-0.06422 0.08892,-0.16302 0,-0.11856 -0.1235,-0.1729 -0.1235,-0.05928 -0.40014,-0.12844 -0.2964,-0.06916 -0.494,-0.14326 -0.1976,-0.07904 -0.34086,-0.24206 -0.14326,-0.16796 -0.14326,-0.44954 0,-0.23712 0.12844,-0.42978 0.13338,-0.1976 0.38532,-0.31122 0.25688,-0.11362 0.60762,-0.11362 0.5187,0 0.8151,0.25688 0.30134,0.25688 0.3458,0.68172 h -0.78052 q -0.01976,-0.14326 -0.12844,-0.22724 -0.10374,-0.08398 -0.27664,-0.08398 -0.1482,0 -0.22724,0.05928 -0.07904,0.05434 -0.07904,0.15314 0,0.11856 0.1235,0.17784 0.12844,0.05928 0.3952,0.11856 0.30628,0.07904 0.49894,0.15808 0.19266,0.0741 0.33592,0.247 0.1482,0.16796 0.15314,0.45448 0,0.24206 -0.13832,0.43472 -0.13338,0.18772 -0.39026,0.2964 -0.25194,0.10868 -0.58786,0.10868 z m 4.233583,-1.46224 q 0,0.11856 -0.01482,0.247 h -1.91178 q 0.01976,0.25688 0.16302,0.3952 0.1482,0.13338 0.36062,0.13338 0.31616,0 0.43966,-0.26676 h 0.89908 q -0.06916,0.2717 -0.25194,0.48906 -0.17784,0.21736 -0.44954,0.34086 -0.2717,0.1235 -0.60762,0.1235 -0.40508,0 -0.72124,-0.1729 -0.31616,-0.1729 -0.494,-0.494 -0.17784,-0.3211 -0.17784,-0.75088 0,-0.42978 0.1729,-0.75088 0.17784,-0.3211 0.494,-0.494 0.31616,-0.1729 0.72618,-0.1729 0.40014,0 0.71136,0.16796 0.31122,0.16796 0.48412,0.47918 0.17784,0.31122 0.17784,0.72618 z m -0.8645,-0.2223 q 0,-0.21736 -0.1482,-0.3458 -0.1482,-0.12844 -0.3705,-0.12844 -0.21242,0 -0.36062,0.1235 -0.14326,0.1235 -0.17784,0.35074 z M 87.93014,25.1929 q 0.1482,-0.22724 0.3705,-0.35568 0.2223,-0.13338 0.494,-0.13338 v 0.89414 h -0.23218 q -0.31616,0 -0.47424,0.13832 -0.15808,0.13338 -0.15808,0.47424 V 27.49 h -0.844741 v -2.75652 h 0.844741 z m 2.712057,2.33662 q -0.2223,0 -0.36556,-0.12844 -0.13832,-0.13338 -0.13832,-0.32604 0,-0.1976 0.13832,-0.33098 0.14326,-0.13338 0.36556,-0.13338 0.21736,0 0.35568,0.13338 0.14326,0.13338 0.14326,0.33098 0,0.19266 -0.14326,0.32604 -0.13832,0.12844 -0.35568,0.12844 z m 0,-2.01058 q -0.2223,0 -0.36556,-0.12844 -0.13832,-0.13338 -0.13832,-0.32604 0,-0.1976 0.13832,-0.33098 0.14326,-0.13338 0.36556,-0.13338 0.21736,0 0.35568,0.13338 0.14326,0.13338 0.14326,0.33098 0,0.19266 -0.14326,0.32604 -0.13832,0.12844 -0.35568,0.12844 z m 2.450242,2.01058 q -0.2223,0 -0.36556,-0.12844 -0.13832,-0.13338 -0.13832,-0.32604 0,-0.1976 0.13832,-0.33098 0.14326,-0.13338 0.36556,-0.13338 0.21736,0 0.35568,0.13338 0.14326,0.13338 0.14326,0.33098 0,0.19266 -0.14326,0.32604 -0.13832,0.12844 -0.35568,0.12844 z m 0,-2.01058 q -0.2223,0 -0.36556,-0.12844 -0.13832,-0.13338 -0.13832,-0.32604 0,-0.1976 0.13832,-0.33098 0.14326,-0.13338 0.36556,-0.13338 0.21736,0 0.35568,0.13338 0.14326,0.13338 0.14326,0.33098 0,0.19266 -0.14326,0.32604 -0.13832,0.12844 -0.35568,0.12844 z M 95.99222,25.1929 q 0.1482,-0.22724 0.3705,-0.35568 0.2223,-0.13338 0.494,-0.13338 v 0.89414 h -0.23218 q -0.31616,0 -0.47424,0.13832 -0.15808,0.13338 -0.15808,0.47424 V 27.49 h -0.84474 v -2.75652 h 0.84474 z m 5.22652,-0.45942 -0.74594,2.75652 h -0.933663 l -0.43472,-1.78828 -0.44954,1.78828 h -0.92872 l -0.75088,-2.75652 h 0.84474 l 0.39026,1.97106 0.46436,-1.97106 h 0.89414 l 0.469303,1.96118 0.38532,-1.96118 z m 2.44529,0.67184 v 0.70148 h -2.1736 v -0.70148 z"
       id="text48"
       style="font-weight:bold;font-size:4.94px;line-height:1.25;font-family:Poppins;-inkscape-font-specification:'Poppins Bold';letter-spacing:0;stroke-width:0.26"
       aria-label="user : : rw-" />
    <path
       d="m 78.983557,36.18396 q 0.29146,0 0.50882,0.11856 0.2223,0.11856 0.34086,0.31122 v -0.39026 h 0.84474 v 2.75158 q 0,0.38038 -0.15314,0.68666 -0.1482,0.31122 -0.45942,0.494 -0.30628,0.18278 -0.7657,0.18278 -0.61256,0 -0.99294,-0.29146 -0.38038,-0.28652 -0.43472,-0.78052 h 0.83486 q 0.03952,0.15808 0.18772,0.247 0.1482,0.09386 0.36556,0.09386 0.26182,0 0.41496,-0.15314 0.15808,-0.1482 0.15808,-0.47918 V 38.5848 q -0.1235,0.19266 -0.34086,0.31616 -0.21736,0.11856 -0.50882,0.11856 -0.34086,0 -0.6175,-0.1729 -0.27664,-0.17784 -0.43966,-0.49894 -0.15808,-0.32604 -0.15808,-0.75088 0,-0.42484 0.15808,-0.74594 0.16302,-0.3211 0.43966,-0.494 0.27664,-0.1729 0.6175,-0.1729 z m 0.84968,1.41778 q 0,-0.31616 -0.17784,-0.49894 -0.1729,-0.18278 -0.42484,-0.18278 -0.25194,0 -0.42978,0.18278 -0.1729,0.17784 -0.1729,0.494 0,0.31616 0.1729,0.50388 0.17784,0.18278 0.42978,0.18278 0.25194,0 0.42484,-0.18278 0.17784,-0.18278 0.17784,-0.49894 z m 2.302045,-0.91884 q 0.1482,-0.22724 0.3705,-0.35568 0.2223,-0.13338 0.494,-0.13338 v 0.89414 h -0.23218 q -0.31616,0 -0.47424,0.13832 -0.15808,0.13338 -0.15808,0.47424 V 38.98 h -0.84474 v -2.75652 h 0.84474 z m 2.524337,2.33662 q -0.40508,0 -0.73112,-0.1729 -0.3211,-0.1729 -0.50882,-0.494 -0.18278,-0.3211 -0.18278,-0.75088 0,-0.42484 0.18772,-0.74594 0.18772,-0.32604 0.51376,-0.49894 0.32604,-0.1729 0.73112,-0.1729 0.40508,0 0.73112,0.1729 0.32604,0.1729 0.51376,0.49894 0.18772,0.3211 0.18772,0.74594 0,0.42484 -0.19266,0.75088 -0.18772,0.3211 -0.5187,0.494 -0.32604,0.1729 -0.73112,0.1729 z m 0,-0.73112 q 0.24206,0 0.41002,-0.17784 0.1729,-0.17784 0.1729,-0.50882 0,-0.33098 -0.16796,-0.50882 -0.16302,-0.17784 -0.40508,-0.17784 -0.247,0 -0.41002,0.17784 -0.16302,0.1729 -0.16302,0.50882 0,0.33098 0.15808,0.50882 0.16302,0.17784 0.40508,0.17784 z m 4.613956,-2.06492 V 38.98 h -0.84474 v -0.37544 q -0.12844,0.18278 -0.35074,0.2964 -0.21736,0.10868 -0.48412,0.10868 -0.31616,0 -0.55822,-0.13832 -0.24206,-0.14326 -0.37544,-0.41002 -0.13338,-0.26676 -0.13338,-0.62738 v -1.61044 h 0.8398 v 1.49682 q 0,0.27664 0.14326,0.42978 0.14326,0.15314 0.38532,0.15314 0.247,0 0.39026,-0.15314 0.14326,-0.15314 0.14326,-0.42978 v -1.49682 z m 1.452359,0.39026 q 0.1235,-0.19266 0.34086,-0.31122 0.21736,-0.11856 0.50882,-0.11856 0.34086,0 0.6175,0.1729 0.27664,0.1729 0.43472,0.494 0.16302,0.3211 0.16302,0.74594 0,0.42484 -0.16302,0.75088 -0.15808,0.3211 -0.43472,0.49894 -0.27664,0.1729 -0.6175,0.1729 -0.28652,0 -0.50882,-0.11856 -0.21736,-0.11856 -0.34086,-0.30628 v 1.69936 h -0.84474 v -4.07056 h 0.84474 z m 1.20536,0.98306 q 0,-0.31616 -0.17784,-0.494 -0.1729,-0.18278 -0.42978,-0.18278 -0.25194,0 -0.42978,0.18278 -0.1729,0.18278 -0.1729,0.49894 0,0.31616 0.1729,0.49894 0.17784,0.18278 0.42978,0.18278 0.25194,0 0.42978,-0.18278 0.17784,-0.18772 0.17784,-0.50388 z m 2.746644,1.42272 q -0.2223,0 -0.36556,-0.12844 -0.13832,-0.13338 -0.13832,-0.32604 0,-0.1976 0.13832,-0.33098 0.14326,-0.13338 0.36556,-0.13338 0.21736,0 0.35568,0.13338 0.14326,0.13338 0.14326,0.33098 0,0.19266 -0.14326,0.32604 -0.13832,0.12844 -0.35568,0.12844 z m 0,-2.01058 q -0.2223,0 -0.36556,-0.12844 -0.13832,-0.13338 -0.13832,-0.32604 0,-0.1976 0.13832,-0.33098 0.14326,-0.13338 0.36556,-0.13338 0.21736,0 0.35568,0.13338 0.14326,0.13338 0.14326,0.33098 0,0.19266 -0.14326,0.32604 -0.13832,0.12844 -0.35568,0.12844 z m 2.450241,2.01058 q -0.2223,0 -0.36556,-0.12844 -0.13832,-0.13338 -0.13832,-0.32604 0,-0.1976 0.13832,-0.33098 0.14326,-0.13338 0.36556,-0.13338 0.21736,0 0.35568,0.13338 0.14326,0.13338 0.14326,0.33098 0,0.19266 -0.14326,0.32604 -0.13832,0.12844 -0.35568,0.12844 z m 0,-2.01058 q -0.2223,0 -0.36556,-0.12844 -0.13832,-0.13338 -0.13832,-0.32604 0,-0.1976 0.13832,-0.33098 0.14326,-0.13338 0.36556,-0.13338 0.21736,0 0.35568,0.13338 0.14326,0.13338 0.14326,0.33098 0,0.19266 -0.14326,0.32604 -0.13832,0.12844 -0.35568,0.12844 z m 2.899781,-0.32604 q 0.1482,-0.22724 0.3705,-0.35568 0.2223,-0.13338 0.494,-0.13338 v 0.89414 h -0.23218 q -0.31616,0 -0.47424,0.13832 -0.15808,0.13338 -0.15808,0.47424 V 38.98 h -0.84474 v -2.75652 h 0.84474 z m 3.39378,0.21242 v 0.70148 h -2.1736 v -0.70148 z m 2.8652,0 v 0.70148 h -2.1736 v -0.70148 z"
       id="text52"
       style="font-weight:bold;font-size:4.94px;line-height:1.25;font-family:Poppins;-inkscape-font-specification:'Poppins Bold';letter-spacing:0;stroke-width:0.26"
       aria-label="group : : r--" />
    <path
       d="m 79.371038,49.229519 q -0.40508,0 -0.73112,-0.1729 -0.3211,-0.1729 -0.50882,-0.494 -0.18278,-0.3211 -0.18278,-0.75088 0,-0.42484 0.18772,-0.74594 0.18772,-0.32604 0.51376,-0.49894 0.32604,-0.1729 0.73112,-0.1729 0.40508,0 0.73112,0.1729 0.32604,0.1729 0.51376,0.49894 0.18772,0.3211 0.18772,0.74594 0,0.42484 -0.19266,0.75088 -0.18772,0.3211 -0.5187,0.494 -0.32604,0.1729 -0.73112,0.1729 z m 0,-0.73112 q 0.24206,0 0.41002,-0.17784 0.1729,-0.17784 0.1729,-0.50882 0,-0.33098 -0.16796,-0.50882 -0.16302,-0.17784 -0.40508,-0.17784 -0.247,0 -0.41002,0.17784 -0.16302,0.1729 -0.16302,0.50882 0,0.33098 0.15808,0.50882 0.16302,0.17784 0.40508,0.17784 z m 3.428355,-0.0247 v 0.7163 h -0.42978 q -0.45942,0 -0.7163,-0.2223 -0.25688,-0.22724 -0.25688,-0.73606 v -1.09668 h -0.33592 v -0.70148 h 0.33592 v -0.67184 h 0.84474 v 0.67184 h 0.55328 v 0.70148 h -0.55328 v 1.10656 q 0,0.1235 0.05928,0.17784 0.05928,0.05434 0.1976,0.05434 z m 2.163721,-2.06986 q 0.47424,0 0.76076,0.31616 0.28652,0.31122 0.28652,0.85956 v 1.61044 h -0.8398 v -1.49682 q 0,-0.27664 -0.14326,-0.42978 -0.14326,-0.15314 -0.38532,-0.15314 -0.24206,0 -0.38532,0.15314 -0.14326,0.15314 -0.14326,0.42978 v 1.49682 h -0.84474 v -3.6556 h 0.84474 v 1.26958 q 0.12844,-0.18278 0.35074,-0.29146 0.2223,-0.10868 0.49894,-0.10868 z m 4.233579,1.36344 q 0,0.11856 -0.01482,0.247 h -1.91178 q 0.01976,0.25688 0.16302,0.3952 0.1482,0.13338 0.36062,0.13338 0.31616,0 0.43966,-0.26676 h 0.89908 q -0.06916,0.2717 -0.25194,0.48906 -0.17784,0.21736 -0.44954,0.34086 -0.2717,0.1235 -0.60762,0.1235 -0.40508,0 -0.72124,-0.1729 -0.31616,-0.1729 -0.494,-0.494 -0.17784,-0.3211 -0.17784,-0.75088 0,-0.42978 0.1729,-0.75088 0.17784,-0.3211 0.494,-0.494 0.31616,-0.1729 0.72618,-0.1729 0.40014,0 0.71136,0.16796 0.31122,0.16796 0.48412,0.47918 0.17784,0.31122 0.17784,0.72618 z m -0.8645,-0.2223 q 0,-0.21736 -0.1482,-0.3458 -0.1482,-0.12844 -0.3705,-0.12844 -0.21242,0 -0.36062,0.1235 -0.14326,0.1235 -0.17784,0.35074 z m 2.153837,-0.65208 q 0.1482,-0.22724 0.3705,-0.35568 0.2223,-0.13338 0.494,-0.13338 v 0.89414 h -0.23218 q -0.31616,0 -0.47424,0.13832 -0.15808,0.13338 -0.15808,0.47424 v 1.27946 h -0.84474 v -2.75652 h 0.84474 z m 2.712057,2.33662 q -0.2223,0 -0.36556,-0.12844 -0.13832,-0.13338 -0.13832,-0.32604 0,-0.1976 0.13832,-0.33098 0.14326,-0.13338 0.36556,-0.13338 0.21736,0 0.35568,0.13338 0.14326,0.13338 0.14326,0.33098 0,0.19266 -0.14326,0.32604 -0.13832,0.12844 -0.35568,0.12844 z m 0,-2.01058 q -0.2223,0 -0.36556,-0.12844 -0.13832,-0.13338 -0.13832,-0.32604 0,-0.1976 0.13832,-0.33098 0.14326,-0.13338 0.36556,-0.13338 0.21736,0 0.35568,0.13338 0.14326,0.13338 0.14326,0.33098 0,0.19266 -0.14326,0.32604 -0.13832,0.12844 -0.35568,0.12844 z m 2.450241,2.01058 q -0.2223,0 -0.36556,-0.12844 -0.13832,-0.13338 -0.13832,-0.32604 0,-0.1976 0.13832,-0.33098 0.14326,-0.13338 0.36556,-0.13338 0.21736,0 0.35568,0.13338 0.14326,0.13338 0.14326,0.33098 0,0.19266 -0.14326,0.32604 -0.13832,0.12844 -0.35568,0.12844 z m 0,-2.01058 q -0.2223,0 -0.36556,-0.12844 -0.13832,-0.13338 -0.13832,-0.32604 0,-0.1976 0.13832,-0.33098 0.14326,-0.13338 0.36556,-0.13338 0.21736,0 0.35568,0.13338 0.14326,0.13338 0.14326,0.33098 0,0.19266 -0.14326,0.32604 -0.13832,0.12844 -0.35568,0.12844 z m 5.226522,-0.11362 v 0.70148 h -2.173602 v -0.70148 z m 2.8652,0 v 0.70148 h -2.1736 v -0.70148 z m 2.8652,0 v 0.70148 h -2.1736 v -0.70148 z"
       id="text56"
       style="font-weight:bold;font-size:4.94px;line-height:1.25;font-family:Poppins;-inkscape-font-specification:'Poppins Bold';letter-spacing:0;stroke-width:0.26"
       aria-label="other : :  ---" />
    <path
       d="m 158.37102,25.2229 q 0.1482,-0.22724 0.3705,-0.35568 0.2223,-0.13338 0.494,-0.13338 v 0.89414 h -0.23218 q -0.31616,0 -0.47424,0.13832 -0.15808,0.13338 -0.15808,0.47424 V 27.52 h -0.84474 v -2.75652 h 0.84474 z m 5.22652,-0.45942 -0.74594,2.75652 h -0.93366 l -0.43472,-1.78828 -0.44954,1.78828 h -0.92872 l -0.75088,-2.75652 h 0.84474 l 0.39026,1.97106 0.46436,-1.97106 h 0.89414 l 0.4693,1.96118 0.38532,-1.96118 z m 2.4453,0.67184 v 0.70148 h -2.1736 v -0.70148 z"
       id="text60"
       style="font-weight:bold;font-size:4.94px;line-height:1.25;font-family:Poppins;-inkscape-font-specification:'Poppins Bold';letter-spacing:0;stroke-width:0.26"
       aria-label="rw-" />
    <path
       d="m 158.37102,36.2729 q 0.1482,-0.22724 0.3705,-0.35568 0.2223,-0.13338 0.494,-0.13338 v 0.89414 h -0.23218 q -0.31616,0 -0.47424,0.13832 -0.15808,0.13338 -0.15808,0.47424 V 38.57 h -0.84474 v -2.75652 h 0.84474 z m 3.39378,0.21242 v 0.70148 h -2.1736 v -0.70148 z m 2.8652,0 v 0.70148 h -2.1736 v -0.70148 z"
       id="text64"
       style="font-weight:bold;font-size:4.94px;line-height:1.25;font-family:Poppins;-inkscape-font-specification:'Poppins Bold';letter-spacing:0;stroke-width:0.26"
       aria-label="r--" />
    <path
       d="m 159.59048,47.085318 v 0.70148 h -2.1736 v -0.70148 z m 2.8652,0 v 0.70148 h -2.1736 v -0.70148 z m 2.8652,0 v 0.70148 h -2.1736 v -0.70148 z"
       id="text68"
       style="font-weight:bold;font-size:4.94px;line-height:1.25;font-family:Poppins;-inkscape-font-specification:'Poppins Bold';letter-spacing:0;stroke-width:0.26"
       aria-label="---" />
    <rect
       width="54.98"
       height="34.08"
       x="68.85"
       y="18.84"
       fill="none"
       stroke="#90ebcd"
       stroke-linecap="square"
       stroke-width=".64"
       opacity=".99"
       paint-order="stroke fill markers"
       id="rect70" />
    <rect
       width="15.88"
       height="7.94"
       x="152.93"
       y="22.22"
       fill="none"
       stroke="#90ebcd"
       stroke-linecap="square"
       stroke-width=".64"
       opacity=".99"
       paint-order="stroke fill markers"
       id="rect72" />
    <rect
       width="15.88"
       height="7.94"
       x="152.93"
       y="32.81"
       fill="none"
       stroke="#90ebcd"
       stroke-linecap="square"
       stroke-width=".64"
       opacity=".99"
       paint-order="stroke fill markers"
       id="rect74" />
    <rect
       width="15.88"
       height="7.94"
       x="152.93"
       y="43.39"
       fill="none"
       stroke="#90ebcd"
       stroke-linecap="square"
       stroke-width=".64"
       opacity=".99"
       paint-order="stroke fill markers"
       id="rect76" />
    <g
       transform="translate(106.63 -19.06)"
       id="g84">
      <path
         fill="none"
         stroke="#0c322c"
         stroke-linecap="square"
         stroke-width=".66"
         marker-end="url(#a)"
         marker-start="url(#b)"
         d="M20.9 45.52h22.23"
         id="path78" />
      <path
         fill="none"
         stroke="#0c322c"
         stroke-linecap="square"
         stroke-width=".66"
         marker-end="url(#c)"
         marker-start="url(#d)"
         d="M20.9 56.1h22.23"
         id="path80" />
      <path
         fill="none"
         stroke="#0c322c"
         stroke-linecap="square"
         stroke-width=".66"
         marker-end="url(#e)"
         marker-start="url(#f)"
         d="M20.9 66.15h22.23"
         id="path82" />
    </g>
  </g>
</svg>
