<?xml version="1.0" encoding="UTF-8" standalone="no"?>
<svg
   width="790"
   height="205"
   viewBox="0 0 209.02 54.24"
   version="1.1"
   id="svg211"
   sodipodi:docname="acls_map_ext.svg"
   inkscape:version="1.2.2 (732a01da63, 2022-12-09)"
   xmlns:inkscape="http://www.inkscape.org/namespaces/inkscape"
   xmlns:sodipodi="http://sodipodi.sourceforge.net/DTD/sodipodi-0.dtd"
   xmlns="http://www.w3.org/2000/svg"
   xmlns:svg="http://www.w3.org/2000/svg">
  <sodipodi:namedview
     id="namedview213"
     pagecolor="#ffffff"
     bordercolor="#000000"
     borderopacity="0.25"
     inkscape:showpageshadow="2"
     inkscape:pageopacity="0.0"
     inkscape:pagecheckerboard="0"
     inkscape:deskcolor="#d1d1d1"
     showgrid="false"
     inkscape:zoom="1.8898734"
     inkscape:cx="395.52914"
     inkscape:cy="102.65238"
     inkscape:window-width="1920"
     inkscape:window-height="1009"
     inkscape:window-x="-8"
     inkscape:window-y="-8"
     inkscape:window-maximized="1"
     inkscape:current-layer="svg211" />
  <defs
     id="defs127">
    <marker
       id="b"
       markerHeight="4.71"
       markerWidth="3.06"
       orient="auto"
       refX="1.53"
       refY="2.35">
      <path
         fill="#fff"
         fill-opacity="0"
         stroke="#0c322c"
         d="m2.7.35-2 2 2 2"
         id="path112" />
    </marker>
    <marker
       id="d"
       markerHeight="4.71"
       markerWidth="3.06"
       orient="auto"
       refX="1.53"
       refY="2.35">
      <path
         fill="#fff"
         fill-opacity="0"
         stroke="#0c322c"
         d="m2.7.35-2 2 2 2"
         id="path115" />
    </marker>
    <marker
       id="e"
       markerHeight="4.71"
       markerWidth="3.06"
       orient="auto"
       refX="1.53"
       refY="2.35">
      <path
         fill="#fff"
         fill-opacity="0"
         stroke="#0c322c"
         d="m2.7.35-2 2 2 2"
         id="path118" />
    </marker>
    <marker
       id="c"
       markerHeight="4.71"
       markerWidth="3.06"
       orient="auto"
       refX="1.53"
       refY="2.35">
      <path
         fill="none"
         stroke="#000"
         d="m.35.35 2 2-2 2"
         id="path121" />
    </marker>
    <marker
       id="a"
       markerHeight="4.71"
       markerWidth="3.06"
       orient="auto"
       refX="1.53"
       refY="2.35">
      <path
         fill="#fff"
         fill-opacity="0"
         stroke="#0c322c"
         d="m.35.35 2 2-2 2"
         id="path124" />
    </marker>
  </defs>
  <rect
     width="44.98"
     height="18.52"
     x="66.15"
     y="12.17"
     fill="#90ebcd"
     opacity=".99"
     paint-order="stroke fill markers"
     id="rect129" />
  <g
     aria-label="拥有者"
     id="text133"
     style="font-weight:500;font-size:4.94px;line-height:1.25;font-family:Poppins;-inkscape-font-specification:'Poppins, Medium';letter-spacing:0;stroke-width:0.26">
    <path
       d="m 28.439422,5.8847201 -0.4693,0.13338 V 5.16348 h 0.52364 V 4.73864 h -0.52364 V 3.78522 h -0.43472 v 0.95342 h -0.57798 v 0.42484 h 0.57798 v 0.9830601 c -0.24206,0.0741 -0.4693,0.12844 -0.64714,0.17784 l 0.10374,0.4446 0.5434,-0.16796 v 1.15596 c 0,0.06916 -0.0247,0.08892 -0.08398,0.08892 -0.05434,0 -0.24206,0 -0.43966,-0.00494 0.05928,0.1235 0.11856,0.3211 0.12844,0.43472 0.31616,0.00494 0.51376,-0.01482 0.64714,-0.08892 0.13338,-0.06916 0.18278,-0.1976 0.18278,-0.42978 v -1.29428 c 0.1729,-0.0494 0.35568,-0.10868 0.52858,-0.16302 z m 1.76852,0.46436 V 5.63772 h 0.6916 v 0.7113601 z m -1.13126,0 c 0.0099,-0.16796 0.01482,-0.33098 0.01482,-0.47918 V 5.63772 h 0.6916 V 6.3490801 Z M 29.783102,4.5114 v 0.7163 h -0.6916 V 4.5114 Z m 1.11644,0.7163 h -0.6916 V 4.5114 h 0.6916 z m 0.43966,-1.13126 h -2.67748 v 1.7685201 c 0,0.68666 -0.04446,1.56598 -0.51376,2.16866 0.0988,0.05434 0.27664,0.1976 0.35074,0.28652 0.33098,-0.4199 0.48412,-1.00282 0.5434,-1.56598 h 0.741 v 1.44742 h 0.42484 v -1.44742 h 0.6916 v 1.03246 c 0,0.06916 -0.01976,0.09386 -0.08398,0.09386 -0.06422,0 -0.26182,0 -0.47918,-0.00494 0.05928,0.10868 0.11856,0.31122 0.13338,0.42484 0.3211,0 0.53846,-0.00988 0.68172,-0.08398 0.14326,-0.06916 0.18772,-0.1976 0.18772,-0.42484 z"
       style="font-family:'Noto Sans CJK SC';-inkscape-font-specification:'Noto Sans CJK SC Medium';text-align:end;text-anchor:end"
       id="path1137" />
    <path
       d="m 35.291202,6.1465401 h -1.93154 v -0.42978 h 1.93154 z m -1.93154,0.8151 v -0.42978 h 1.93154 v 0.42978 z M 36.308842,4.82262 V 4.39284 h -2.45518 c 0.06422,-0.16796 0.11856,-0.34086 0.1729,-0.50882 l -0.4693,-0.10868 c -0.05434,0.20254 -0.1235,0.41002 -0.20748,0.6175 h -1.35356 v 0.42978 h 1.16584 c -0.31122,0.60762 -0.741,1.1757201 -1.29922,1.5511601 0.09386,0.08398 0.23218,0.25688 0.30134,0.35568 0.27664,-0.19266 0.52364,-0.42484 0.741,-0.68172 v 2.26252 h 0.45448 v -0.9633 h 1.93154 v 0.42484 c 0,0.0741 -0.0247,0.0988 -0.10868,0.0988 -0.08398,0.00494 -0.38038,0.00494 -0.67184,-0.00988 0.05928,0.1235 0.12844,0.3211 0.14326,0.4446 0.41002,0 0.68666,0 0.85956,-0.0741 0.17784,-0.06916 0.22724,-0.20748 0.22724,-0.45448 V 5.31662 h -2.32674 c 0.08892,-0.15808 0.17784,-0.32604 0.25688,-0.494 z"
       style="font-family:'Noto Sans CJK SC';-inkscape-font-specification:'Noto Sans CJK SC Medium';text-align:end;text-anchor:end"
       id="path1139" />
    <path
       d="M 38.986322,5.30674 V 4.75346 h 0.96824 c -0.20254,0.19266 -0.41496,0.38038 -0.64714,0.55328 z m 1.22512,1.6647801 h -1.86238 v -0.41002 h 1.86238 z m -1.86238,0.79534 v -0.43472 h 1.86238 v 0.43472 z m 2.92448,-2.0501 V 5.30674 h -1.29428 c 0.41002,-0.35568 0.78052,-0.741 1.09174,-1.16584 l -0.3952,-0.20748 c -0.15808,0.2223 -0.34086,0.43472 -0.53846,0.63726 V 4.35332 h -1.15102 V 3.77534 h -0.45448 v 0.57798 h -1.20536 v 0.40014 h 1.20536 v 0.55328 h -1.63514 v 0.4100201 h 1.80804 c -0.5928,0.37544 -1.24982,0.68172 -1.93154,0.90896 0.08398,0.09386 0.22724,0.27664 0.28158,0.38038 0.28158,-0.10868 0.56316,-0.22724 0.8398,-0.35568 v 1.65984 h 0.45448 v -0.15314 h 1.86238 v 0.13338 h 0.47424 v -2.10938 h -1.91672 c 0.23712,-0.1482 0.4693,-0.2964 0.6916,-0.46436 z"
       style="font-family:'Noto Sans CJK SC';-inkscape-font-specification:'Noto Sans CJK SC Medium';text-align:end;text-anchor:end"
       id="path1141" />
  </g>
  <g
     aria-label="命名用户"
     id="text137"
     style="font-weight:500;font-size:4.94px;line-height:1.25;font-family:Poppins;-inkscape-font-specification:'Poppins, Medium';letter-spacing:0;stroke-width:0.26">
    <path
       d="m 23.575842,16.87558 v 0.9139 h -0.6916 v -0.9139 z m 0.42978,-0.40014 h -1.54622 v 2.11926 h 0.42484 v -0.40508 h 1.12138 z m 2.18348,0 h -1.72406 v 2.4947 h 0.44954 v -2.08468 h 0.82992 v 0.94848 c 0,0.05928 -0.01976,0.07904 -0.08892,0.07904 -0.05928,0.0049 -0.28652,0.0049 -0.52364,0 0.05434,0.11362 0.11362,0.29146 0.13338,0.41496 0.34086,0 0.57798,0 0.73112,-0.0741 0.15314,-0.06916 0.19266,-0.1976 0.19266,-0.41496 z m -2.73182,-0.7657 c 0.3211,-0.1976 0.62244,-0.42978 0.87438,-0.67184 0.22724,0.247 0.50388,0.47424 0.81016,0.67184 z m 0.87932,-1.34862 c -0.45942,0.63232 -1.41778,1.22512 -2.32674,1.4573 0.09386,0.1235 0.20748,0.30628 0.26676,0.4446 0.33592,-0.11362 0.68172,-0.26676 1.00776,-0.44954 v 0.30628 h 2.01552 v -0.31122 c 0.31122,0.18278 0.64714,0.33098 0.988,0.42978 0.06916,-0.13338 0.21736,-0.33098 0.32604,-0.43472 -0.77064,-0.18278 -1.56104,-0.60268 -2.00564,-1.06704 0.03458,-0.03952 0.06422,-0.07904 0.09386,-0.11362 z"
       style="font-family:'Noto Sans CJK SC';-inkscape-font-specification:'Noto Sans CJK SC Medium';text-align:end;text-anchor:end"
       id="path1144" />
    <path
       d="m 28.471382,18.2983 v -1.0374 h 2.03528 v 1.0374 z m 2.50952,-1.45236 h -1.79322 c 0.75582,-0.43472 1.39802,-1.02258 1.77346,-1.77346 l -0.31616,-0.18772 -0.0741,0.0247 h -1.6055 c 0.10868,-0.12844 0.20748,-0.26182 0.30134,-0.3952 l -0.52364,-0.10868 c -0.29146,0.46436 -0.84474,0.988 -1.64008,1.34862 0.10374,0.07904 0.25194,0.25194 0.31616,0.36556 0.44954,-0.23218 0.82498,-0.49894 1.14114,-0.7904 h 1.70924 c -0.27664,0.38532 -0.66196,0.72618 -1.11644,1.00776 -0.2223,-0.19266 -0.5187,-0.41496 -0.76076,-0.58786 l -0.35568,0.26676 c 0.2223,0.16796 0.48412,0.37544 0.6916,0.56316 -0.5434,0.27664 -1.14114,0.47918 -1.729,0.59774 0.08398,0.10374 0.18772,0.2964 0.23712,0.42484 0.25688,-0.06422 0.5187,-0.13832 0.77558,-0.2223 v 1.57586 h 0.45942 V 18.7182 h 2.03528 v 0.23712 h 0.47424 z"
       style="font-family:'Noto Sans CJK SC';-inkscape-font-specification:'Noto Sans CJK SC Medium';text-align:end;text-anchor:end"
       id="path1146" />
    <path
       d="m 34.458662,17.05836 v -0.73112 h 1.19548 v 0.73112 z m -1.55116,0 c 0.01482,-0.18278 0.01976,-0.36556 0.01976,-0.53352 v -0.1976 h 1.07198 v 0.73112 z m 1.09174,-1.85744 v 0.69654 h -1.07198 v -0.69654 z m 1.6549,0.69654 h -1.19548 v -0.69654 h 1.19548 z m 0.45942,-1.1362 h -3.64078 v 1.75864 c 0,0.69654 -0.0494,1.57092 -0.58786,2.16866 0.10374,0.05434 0.29146,0.21242 0.36062,0.30134 0.36062,-0.40014 0.53846,-0.95342 0.6175,-1.49682 h 1.1362 v 1.41284 h 0.45942 v -1.41284 h 1.19548 v 0.88426 c 0,0.09386 -0.03458,0.1235 -0.1235,0.1235 -0.09386,0 -0.4199,0.0049 -0.73606,-0.0099 0.05928,0.11856 0.13338,0.3211 0.15314,0.4446 0.45448,0.0049 0.741,-0.0049 0.92378,-0.07904 0.17784,-0.06916 0.24206,-0.20748 0.24206,-0.47424 z"
       style="font-family:'Noto Sans CJK SC';-inkscape-font-specification:'Noto Sans CJK SC Medium';text-align:end;text-anchor:end"
       id="path1148" />
    <path
       d="m 37.936421,16.4952 c 0.0049,-0.08398 0.0049,-0.15808 0.0049,-0.23712 v -0.65702 h 2.455181 v 0.89414 z m 1.353561,-1.32392 0.247,-0.0741 c -0.05434,-0.19266 -0.17784,-0.47918 -0.28652,-0.70148 l -0.449541,0.11856 c 0.08892,0.20254 0.197601,0.46436 0.247001,0.65702 h -1.580801 v 1.0868 c 0,0.72618 -0.05928,1.74876 -0.62738,2.45518 0.11362,0.0494 0.31616,0.19266 0.40014,0.27664 0.44954,-0.56316 0.6175,-1.36344 0.67678,-2.06492 h 2.479881 v 0.29146 h 0.4693 v -2.04516 z"
       style="font-family:'Noto Sans CJK SC';-inkscape-font-specification:'Noto Sans CJK SC Medium';text-align:end;text-anchor:end"
       id="path1150" />
  </g>
  <g
     aria-label="所属组"
     id="text141"
     style="font-weight:500;font-size:4.94px;line-height:1.25;font-family:Poppins;-inkscape-font-specification:'Poppins, Medium';letter-spacing:0;stroke-width:0.26">
    <path
       d="m 28.263545,25.695421 v 0.70642 h -0.85462 v -0.14326 -0.56316 z m 0.43966,1.12138 v -1.53634 h -1.29428 v -0.41496 c 0.52858,-0.06422 1.10656,-0.16796 1.51164,-0.32604 l -0.2964,-0.38532 c -0.3952,0.16796 -1.08186,0.29146 -1.66972,0.36556 v 1.73888 c 0,0.6422 -0.0247,1.47212 -0.34086,2.05998 0.10374,0.0494 0.2964,0.20254 0.37544,0.29146 0.28158,-0.48412 0.37544,-1.18066 0.40508,-1.79322 z m 2.50458,-1.1115 h -1.63514 v -0.82992 c 0.5434,-0.07904 1.13126,-0.1976 1.5561,-0.36062 l -0.31122,-0.3952 c -0.41002,0.17784 -1.10162,0.32604 -1.70924,0.41496 v 1.5808 c 0,0.6916 -0.05928,1.57092 -0.68172,2.17854 0.10374,0.05928 0.29146,0.2223 0.36556,0.31122 0.6669,-0.6422 0.77558,-1.68948 0.78052,-2.45518 h 0.65702 v 2.4206 h 0.45448 v -2.4206 h 0.52364 z"
       style="font-family:'Noto Sans CJK SC';-inkscape-font-specification:'Noto Sans CJK SC Medium';text-align:end;text-anchor:end"
       id="path1212" />
    <path
       d="m 35.347505,24.623441 v 0.36062 h -2.79604 v -0.36062 z m 0.45448,0.72124 v -1.08186 h -3.70006 v 1.4326 c 0,0.78052 -0.04446,1.8772 -0.5187,2.63796 0.11856,0.03952 0.31616,0.15808 0.3952,0.23218 0.49894,-0.80522 0.57304,-2.03034 0.57304,-2.87014 v -0.35074 z m -0.46436,2.88002 c -0.06422,-0.1729 -0.21736,-0.45942 -0.36062,-0.67184 l -0.2717,0.06916 c 0.03458,0.05928 0.0741,0.1235 0.10868,0.18772 l -0.35074,0.01482 v -0.33098 h 0.99294 v 0.7163 c 0,0.0494 -0.01482,0.05928 -0.06916,0.06422 -0.03458,0.0049 -0.10374,0.0049 -0.20254,0 z m -2.04022,-1.5561 v -0.2964 h 0.74594 v 0.2964 z m 1.93154,-0.2964 v 0.2964 h -0.7657 v -0.2964 z m 0.65208,0.81016 h -1.41778 v -0.23712 h 1.20042 v -0.84968 h -1.20042 v -0.25194 c 0.42978,-0.03458 0.83486,-0.08398 1.14608,-0.1482 l -0.26182,-0.2717 c -0.58786,0.11856 -1.66972,0.18278 -2.54904,0.19266 0.03952,0.08398 0.07904,0.20748 0.08892,0.29146 0.36556,0 0.7657,-0.01482 1.15596,-0.03458 v 0.2223 h -1.15596 v 0.84968 h 1.15596 v 0.23712 h -1.34862 v 1.41284 h 0.41496 v -1.10162 h 0.93366 v 0.3458 c -0.29146,0.0099 -0.55822,0.01976 -0.77558,0.0247 l 0.02964,0.33098 c 0.44954,-0.01976 1.0621,-0.0494 1.66478,-0.08892 0.02964,0.06422 0.05434,0.11362 0.0741,0.16796 l -0.05434,-0.0049 c 0.04446,0.09386 0.09386,0.21736 0.11856,0.31616 0.28652,0 0.48906,0 0.6175,-0.05434 0.12844,-0.05434 0.16302,-0.13832 0.16302,-0.3211 z"
       style="font-family:'Noto Sans CJK SC';-inkscape-font-specification:'Noto Sans CJK SC Medium';text-align:end;text-anchor:end"
       id="path1214" />
    <path
       d="m 37.382785,26.737761 c 0.37544,-0.41496 0.741,-0.92378 1.05222,-1.4326 l -0.35568,-0.2223 c -0.09386,0.1729 -0.20254,0.35074 -0.31122,0.5187 l -0.61256,0.05434 c 0.2964,-0.41002 0.58786,-0.91884 0.81016,-1.41284 l -0.41496,-0.19266 c -0.20254,0.58292 -0.5681,1.2103 -0.68172,1.36838 -0.11362,0.16302 -0.1976,0.2717 -0.2964,0.2964 0.0494,0.11856 0.11856,0.33098 0.14326,0.41496 0.07904,-0.03458 0.1976,-0.06422 0.78052,-0.13832 -0.20748,0.29146 -0.3952,0.5187 -0.48906,0.61256 -0.15808,0.17784 -0.28158,0.2964 -0.39026,0.31616 0.0494,0.11362 0.11362,0.31122 0.13338,0.3952 0.11362,-0.06422 0.30134,-0.11362 1.61044,-0.37544 -0.0099,-0.08892 -0.0049,-0.26182 0.0049,-0.37544 z m 0.92378,0.73606 c -0.62738,0.1482 -1.26958,0.2964 -1.68948,0.38532 l 0.07904,0.43472 c 0.46436,-0.11856 1.07692,-0.27664 1.6549,-0.43472 z m 0.85462,-0.26676 h 1.05716 v 0.86944 h -1.05716 z m 1.05716,-2.48976 v 0.82498 h -1.05716 v -0.82498 z m -1.05716,1.235 h 1.05716 v 0.84968 h -1.05716 z m 1.51164,2.1242 v -3.77416 h -1.94636 v 3.77416 h -0.4693 v 0.41496 h 2.82568 v -0.41496 z"
       style="font-family:'Noto Sans CJK SC';-inkscape-font-specification:'Noto Sans CJK SC Medium';text-align:end;text-anchor:end"
       id="path1216" />
  </g>
  <g
     aria-label="掩码"
     id="text145"
     style="font-weight:500;font-size:4.94px;line-height:1.25;font-family:Poppins;-inkscape-font-specification:'Poppins, Medium';letter-spacing:0;stroke-width:0.26">
    <path
       d="m 33.132745,36.96448 -0.43966,0.12844 v -0.86944 h 0.4693 v -0.42484 h -0.4693 v -0.953421 h -0.4199 v 0.953421 h -0.55822 v 0.42484 h 0.55822 v 0.99294 c -0.23218,0.06422 -0.44954,0.1235 -0.62244,0.16796 l 0.10374,0.43472 0.5187,-0.15808 v 1.15596 c 0,0.06916 -0.0247,0.08892 -0.08398,0.08892 -0.05434,0 -0.24206,0 -0.43472,-0.0049 0.05434,0.11856 0.10868,0.31616 0.1235,0.42484 0.31122,0 0.50882,-0.01482 0.6422,-0.08892 0.12844,-0.06916 0.1729,-0.19266 0.1729,-0.4199 v -1.2844 c 0.16302,-0.0494 0.33592,-0.10374 0.49894,-0.15808 z m 0.80028,1.07692 v -0.3952 h 0.5434 v 0.3952 z m 1.02258,-2.21806 c 0.1235,0.28158 0.29146,0.55328 0.48906,0.78546 h -0.55328 v -0.39026 h -0.41496 v 0.39026 h -0.5681 c 0.21242,-0.22724 0.40508,-0.48906 0.55822,-0.78546 z m -0.06422,1.14608 h 0.57798 v 0.35568 h -0.57798 z m -0.95836,0 h 0.5434 v 0.35568 h -0.5434 z m 0.95836,1.07198 v -0.3952 h 0.57798 v 0.3952 z m 0.20254,0.92378 c -0.1729,0 -0.20254,-0.03458 -0.20254,-0.21242 v -0.35568 h 0.98306 v -1.37826 c 0.03952,0.02964 0.08398,0.05434 0.1235,0.07904 0.06422,-0.10374 0.20254,-0.26182 0.2964,-0.34086 -0.35568,-0.19266 -0.68666,-0.5434 -0.89908,-0.93366 h 0.80522 v -0.40508 h -1.55116 c 0.06422,-0.163021 0.11856,-0.335921 0.16302,-0.513761 l -0.43472,-0.07904 c -0.04446,0.21242 -0.11362,0.41002 -0.19266,0.592801 h -0.9139 v 0.40508 h 0.70148 c -0.23712,0.39026 -0.55822,0.70148 -0.95342,0.92378 0.09386,0.0741 0.25194,0.25194 0.31122,0.33592 0.06916,-0.03952 0.13338,-0.08892 0.20254,-0.13832 v 1.6549 h 0.40014 v -0.20254 h 0.5434 v 0.35074 c 0,0.4693 0.11362,0.59774 0.55822,0.59774 h 0.6669 c 0.37544,0 0.48906,-0.1729 0.53846,-0.74594 -0.11856,-0.0247 -0.28158,-0.09386 -0.3705,-0.16302 -0.01976,0.42978 -0.0494,0.52858 -0.1976,0.52858 z"
       style="font-family:'Noto Sans CJK SC';-inkscape-font-specification:'Noto Sans CJK SC Medium';text-align:end;text-anchor:end"
       id="path1219" />
    <path
       d="m 37.885025,38.35756 h -0.48412 v -1.36344 h 0.48412 z m -1.19054,-2.86026 h 0.57304 c -0.13338,0.70148 -0.35074,1.3585 -0.67678,1.79816 0.06422,0.1235 0.16302,0.40014 0.18278,0.5187 0.08398,-0.10374 0.15808,-0.21242 0.23218,-0.33592 v 1.66972 h 0.3952 v -0.38532 h 0.87932 v -2.1736 h -0.87438 c 0.11856,-0.3458 0.21736,-0.7163 0.29146,-1.09174 h 0.71136 v -0.414961 h -1.71418 z m 3.61114,2.43542 h -1.82286 v 0.41002 h 1.82286 z m 0.1976,-0.9633 c 0.06916,-0.61256 0.1482,-1.32392 0.18772,-1.847561 l -0.32604,-0.03458 -0.06916,0.01976 h -1.67466 V 35.522 h 1.59562 c -0.03952,0.42484 -0.0988,0.97318 -0.15314,1.44742 h -0.89414 c 0.04446,-0.36062 0.08398,-0.79534 0.11362,-1.1609 l -0.42978,-0.02964 c -0.03458,0.50388 -0.10374,1.17572 -0.16796,1.5808 h 0.1235 v 0.0049 h 1.79816 c -0.08398,0.99788 -0.18278,1.41284 -0.30628,1.52646 -0.0494,0.05434 -0.09386,0.06422 -0.17784,0.05928 -0.09386,0 -0.2964,0 -0.5187,-0.0247 0.06916,0.11856 0.11362,0.2964 0.11856,0.41496 0.23712,0.01482 0.46436,0.01482 0.5928,0 0.15314,-0.01482 0.25688,-0.05434 0.36062,-0.16796 0.1729,-0.18278 0.28158,-0.70148 0.38532,-2.01058 0.0099,-0.05928 0.01482,-0.19266 0.01482,-0.19266 z"
       style="font-family:'Noto Sans CJK SC';-inkscape-font-specification:'Noto Sans CJK SC Medium';text-align:end;text-anchor:end"
       id="path1221" />
  </g>
  <g
     aria-label="其他"
     id="text149"
     style="font-weight:500;font-size:4.94px;line-height:1.25;font-family:Poppins;-inkscape-font-specification:'Poppins, Medium';letter-spacing:0;stroke-width:0.26">
    <path
       d="m 32.879709,47.638839 h 1.70924 v 0.46436 h -1.70924 z m 1.70924,-1.63514 v 0.41496 h -1.70924 v -0.41496 z m -1.70924,0.80522 h 1.70924 v 0.4446 h -1.70924 z m 3.04798,1.29428 h -0.87438 v -2.0995 h 0.75582 v -0.4199 h -0.75582 v -0.52858 h -0.46436 v 0.52858 h -1.70924 v -0.52858 h -0.45448 v 0.52858 h -0.72618 v 0.4199 h 0.72618 v 2.0995 h -0.86944 v 0.42484 h 4.3719 z m -2.89484,0.46436 c -0.34086,0.23218 -1.00776,0.51376 -1.5314,0.65702 0.0988,0.09386 0.23218,0.25194 0.30134,0.35074 0.52364,-0.16796 1.19054,-0.4446 1.6302,-0.71136 z m 1.01764,0.32604 c 0.56316,0.20254 1.13126,0.47424 1.46718,0.67184 l 0.42484,-0.30134 c -0.37544,-0.19266 -1.00282,-0.46436 -1.56598,-0.65702 z"
       style="font-family:'Noto Sans CJK SC';-inkscape-font-specification:'Noto Sans CJK SC Medium';text-align:end;text-anchor:end"
       id="path1224" />
    <path
       d="m 37.488729,45.065099 c -0.26676,0.72124 -0.70642,1.44248 -1.17078,1.9019 0.0741,0.10868 0.20748,0.35074 0.25194,0.45942 0.13832,-0.1482 0.27664,-0.31616 0.41002,-0.49894 v 2.64784 h 0.44954 v -3.35426 c 0.18278,-0.33098 0.35074,-0.68172 0.47918,-1.02258 z m 1.52646,4.03598 c -0.33592,0 -0.3952,-0.05928 -0.3952,-0.3458 v -1.66478 l 0.6175,-0.23712 v 1.6055 h 0.43472 v -1.7784 l 0.65208,-0.25194 c -0.0049,0.7163 -0.01482,1.1362 -0.04446,1.25476 -0.0247,0.10868 -0.06916,0.12844 -0.14326,0.12844 -0.06422,0 -0.2223,0 -0.3458,-0.0049 0.05434,0.10374 0.0988,0.2964 0.10868,0.4199 0.15314,0.0049 0.37544,0 0.52364,-0.0494 0.15314,-0.0494 0.247,-0.15808 0.27664,-0.39026 0.03952,-0.20748 0.0494,-0.8645 0.05434,-1.74382 l 0.01976,-0.06916 -0.31616,-0.12844 -0.08398,0.06422 -0.06916,0.05434 -0.63232,0.247 v -1.15102 h -0.43472 v 1.31898 l -0.6175,0.23712 v -1.05716 h -0.45448 v 1.235 l -0.61256,0.23712 0.18278,0.41002 0.42978,-0.1729 v 1.482 c 0,0.60268 0.18278,0.76076 0.82004,0.76076 h 1.20042 c 0.57304,0 0.70642,-0.22724 0.78052,-0.92872 -0.12844,-0.0247 -0.31122,-0.10868 -0.42484,-0.18278 -0.03952,0.5681 -0.09386,0.70148 -0.38532,0.70148 z"
       style="font-family:'Noto Sans CJK SC';-inkscape-font-specification:'Noto Sans CJK SC Medium';text-align:end;text-anchor:end"
       id="path1226" />
  </g>
  <g
     aria-label="拥有者类别"
     id="text153"
     style="font-weight:500;font-size:4.94px;line-height:1.25;font-family:Poppins;-inkscape-font-specification:'Poppins, Medium';letter-spacing:0;stroke-width:0.26">
    <path
       d="m 171.9843,5.7947199 -0.4693,0.13338 v -0.85462 h 0.52364 v -0.42484 H 171.515 v -0.95342 h -0.43472 v 0.95342 h -0.57798 v 0.42484 h 0.57798 v 0.98306 c -0.24206,0.0741 -0.4693,0.12844 -0.64714,0.17784 l 0.10374,0.4446 0.5434,-0.16796 v 1.15596 c 0,0.06916 -0.0247,0.08892 -0.084,0.08892 -0.0543,0 -0.24206,0 -0.43966,-0.00494 0.0593,0.1235 0.11856,0.3211 0.12844,0.43472 0.31616,0.00494 0.51376,-0.01482 0.64714,-0.08892 0.13338,-0.06916 0.18278,-0.1976 0.18278,-0.42978 v -1.29428 c 0.1729,-0.0494 0.35568,-0.10868 0.52858,-0.16302 z m 1.76852,0.46436 v -0.71136 h 0.6916 v 0.71136 z m -1.13126,0 c 0.01,-0.16796 0.0148,-0.33098 0.0148,-0.47918 v -0.23218 h 0.6916 v 0.71136 z m 0.70642,-1.83768 v 0.7163 h -0.6916 v -0.7163 z m 1.11644,0.7163 h -0.6916 v -0.7163 h 0.6916 z m 0.43966,-1.13126 h -2.67748 v 1.76852 c 0,0.68666 -0.0445,1.56598 -0.51376,2.16866 0.0988,0.05434 0.27664,0.1976 0.35074,0.28652 0.33098,-0.4199 0.48412,-1.00282 0.5434,-1.56598 h 0.741 v 1.44742 h 0.42484 v -1.44742 h 0.6916 v 1.03246 c 0,0.06916 -0.0198,0.09386 -0.084,0.09386 -0.0642,0 -0.26182,0 -0.47918,-0.00494 0.0593,0.10868 0.11856,0.31122 0.13338,0.42484 0.3211,0 0.53846,-0.00988 0.68172,-0.08398 0.14326,-0.06916 0.18772,-0.1976 0.18772,-0.42484 z"
       style="font-family:'Noto Sans CJK SC';-inkscape-font-specification:'Noto Sans CJK SC Medium'"
       id="path1229" />
    <path
       d="m 178.83608,6.0565399 h -1.93154 v -0.42978 h 1.93154 z m -1.93154,0.8151 v -0.42978 h 1.93154 v 0.42978 z m 2.94918,-2.13902 v -0.42978 h -2.45518 c 0.0642,-0.16796 0.11856,-0.34086 0.1729,-0.50882 l -0.4693,-0.10868 c -0.0543,0.20254 -0.1235,0.41002 -0.20748,0.6175 h -1.35356 v 0.42978 h 1.16584 c -0.31122,0.60762 -0.741,1.17572 -1.29922,1.55116 0.0939,0.08398 0.23218,0.25688 0.30134,0.35568 0.27664,-0.19266 0.52364,-0.42484 0.741,-0.68172 v 2.26252 h 0.45448 v -0.9633 h 1.93154 v 0.42484 c 0,0.0741 -0.0247,0.0988 -0.10868,0.0988 -0.084,0.00494 -0.38038,0.00494 -0.67184,-0.00988 0.0593,0.1235 0.12844,0.3211 0.14326,0.4446 0.41002,0 0.68666,0 0.85956,-0.0741 0.17784,-0.06916 0.22724,-0.20748 0.22724,-0.45448 v -2.46012 h -2.32674 c 0.0889,-0.15808 0.17784,-0.32604 0.25688,-0.494 z"
       style="font-family:'Noto Sans CJK SC';-inkscape-font-specification:'Noto Sans CJK SC Medium'"
       id="path1231" />
    <path
       d="m 182.5312,5.2167399 v -0.55328 h 0.96824 c -0.20254,0.19266 -0.41496,0.38038 -0.64714,0.55328 z m 1.22512,1.66478 h -1.86238 v -0.41002 h 1.86238 z m -1.86238,0.79534 v -0.43472 h 1.86238 v 0.43472 z m 2.92448,-2.0501 v -0.41002 h -1.29428 c 0.41002,-0.35568 0.78052,-0.741 1.09174,-1.16584 l -0.3952,-0.20748 c -0.15808,0.2223 -0.34086,0.43472 -0.53846,0.63726 v -0.21736 h -1.15102 v -0.57798 h -0.45448 v 0.57798 h -1.20536 v 0.40014 h 1.20536 v 0.55328 h -1.63514 v 0.41002 h 1.80804 c -0.5928,0.37544 -1.24982,0.68172 -1.93154,0.90896 0.084,0.09386 0.22724,0.27664 0.28158,0.38038 0.28158,-0.10868 0.56316,-0.22724 0.8398,-0.35568 v 1.65984 h 0.45448 v -0.15314 h 1.86238 v 0.13338 h 0.47424 v -2.10938 h -1.91672 c 0.23712,-0.1482 0.4693,-0.2964 0.6916,-0.46436 z"
       style="font-family:'Noto Sans CJK SC';-inkscape-font-specification:'Noto Sans CJK SC Medium'"
       id="path1233" />
    <path
       d="m 188.72102,3.7693199 c -0.10868,0.21242 -0.31122,0.50388 -0.47424,0.70148 l 0.38532,0.13338 c 0.16796,-0.1729 0.38532,-0.43472 0.58292,-0.6916 z m -1.38814,2.1983 h 0.45942 v -0.62738 c 0.60268,0.29146 1.30416,0.64714 1.67466,0.87932 l 0.22724,-0.3705 c -0.3705,-0.21242 -1.04728,-0.53846 -1.62032,-0.80522 h 1.62032 v -0.42484 h -1.9019 v -0.92872 h -0.45942 v 0.92872 h -0.80028 l 0.36062,-0.16302 c -0.0988,-0.20254 -0.32604,-0.47424 -0.52858,-0.67184 l -0.39026,0.17784 c 0.18772,0.19266 0.39026,0.4693 0.48412,0.65702 h -0.99788 v 0.42484 h 1.51164 c -0.3952,0.3705 -1.00282,0.6669 -1.62032,0.81016 0.10374,0.08398 0.23218,0.26182 0.30134,0.37544 0.62738,-0.18278 1.24982,-0.5434 1.6796,-0.99294 z m 2.39096,1.00776 v -0.42484 h -1.98094 c 0.0296,-0.1482 0.0543,-0.31122 0.0741,-0.47918 h -0.48412 c -0.0198,0.1729 -0.0445,0.33592 -0.079,0.47918 h -1.82286 v 0.42484 h 1.64996 c -0.24206,0.3952 -0.72618,0.6669 -1.76358,0.82004 0.0939,0.10374 0.20254,0.30134 0.23712,0.42484 1.19054,-0.20748 1.73888,-0.58292 2.01058,-1.13126 0.40014,0.63726 1.04234,0.98306 2.00564,1.13126 0.0543,-0.13832 0.18278,-0.33098 0.28158,-0.42978 -0.8645,-0.09386 -1.49188,-0.35568 -1.85744,-0.8151 z"
       style="font-family:'Noto Sans CJK SC';-inkscape-font-specification:'Noto Sans CJK SC Medium'"
       id="path1235" />
    <path
       d="m 192.0407,5.1376999 h -1.12632 v -0.82498 h 1.12632 z m 0.43966,-1.235 h -1.98588 v 1.64502 h 1.98588 z m -0.9139,2.13408 c 0.01,-0.1235 0.0148,-0.247 0.0198,-0.3705 h -0.42978 c -0.005,0.1235 -0.01,0.247 -0.0198,0.3705 h -0.80028 v 0.4199 h 0.75582 c -0.084,0.63726 -0.29146,1.1362 -0.8892,1.44248 0.0988,0.07904 0.2223,0.23218 0.27664,0.3458 0.70642,-0.38532 0.94848,-1.00776 1.04728,-1.78828 h 0.5928 c -0.0346,0.82992 -0.084,1.15596 -0.15314,1.23994 -0.0395,0.0494 -0.084,0.05928 -0.15808,0.05928 -0.079,0 -0.25194,-0.00494 -0.4446,-0.0247 0.0741,0.1235 0.11856,0.30628 0.12844,0.43966 0.21736,0.00494 0.42484,0.00494 0.5434,-0.00988 0.13832,-0.01976 0.22724,-0.05928 0.31616,-0.16796 0.12844,-0.15314 0.17784,-0.60762 0.2223,-1.76852 0.005,-0.06422 0.01,-0.18772 0.01,-0.18772 z m 1.9513,-1.75864 h -0.4446 v 2.73182 h 0.4446 z m 0.58292,-0.494 v 3.86308 c 0,0.08892 -0.0346,0.11362 -0.11856,0.11856 -0.0889,0 -0.3705,0.00494 -0.67678,-0.00988 0.0642,0.13338 0.12844,0.3458 0.1482,0.4693 0.42978,0.00494 0.70148,-0.00988 0.87438,-0.08892 0.16302,-0.0741 0.22724,-0.21242 0.22724,-0.48906 v -3.86308 z"
       style="font-family:'Noto Sans CJK SC';-inkscape-font-specification:'Noto Sans CJK SC Medium'"
       id="path1237" />
  </g>
  <g
     aria-label="组类别"
     id="text157"
     style="font-weight:500;font-size:4.94px;line-height:1.25;font-family:Poppins;-inkscape-font-specification:'Poppins, Medium';letter-spacing:0;stroke-width:0.26">
    <path
       d="m 171.30752,36.87776 c 0.37544,-0.41496 0.741,-0.92378 1.05222,-1.4326 l -0.35568,-0.2223 c -0.0939,0.1729 -0.20254,0.35074 -0.31122,0.5187 l -0.61256,0.05434 c 0.2964,-0.41002 0.58786,-0.91884 0.81016,-1.41284 l -0.41496,-0.19266 c -0.20254,0.58292 -0.5681,1.2103 -0.68172,1.36838 -0.11362,0.16302 -0.1976,0.2717 -0.2964,0.2964 0.0494,0.11856 0.11856,0.33098 0.14326,0.41496 0.079,-0.03458 0.1976,-0.06422 0.78052,-0.13832 -0.20748,0.29146 -0.3952,0.5187 -0.48906,0.61256 -0.15808,0.17784 -0.28158,0.2964 -0.39026,0.31616 0.0494,0.11362 0.11362,0.31122 0.13338,0.3952 0.11362,-0.06422 0.30134,-0.11362 1.61044,-0.37544 -0.01,-0.08892 -0.005,-0.26182 0.005,-0.37544 z m 0.92378,0.73606 c -0.62738,0.1482 -1.26958,0.2964 -1.68948,0.38532 l 0.079,0.43472 c 0.46436,-0.11856 1.07692,-0.27664 1.6549,-0.43472 z m 0.85462,-0.26676 h 1.05716 v 0.86944 h -1.05716 z m 1.05716,-2.48976 v 0.82498 h -1.05716 V 34.8573 Z m -1.05716,1.235 h 1.05716 v 0.84968 h -1.05716 z m 1.51164,2.1242 v -3.77416 h -1.94636 v 3.77416 h -0.4693 v 0.41496 h 2.82568 V 38.2165 Z"
       style="font-family:'Noto Sans CJK SC';-inkscape-font-specification:'Noto Sans CJK SC Medium'"
       id="path1240" />
    <path
       d="m 178.84102,34.27932 c -0.10868,0.21242 -0.31122,0.50388 -0.47424,0.70148 l 0.38532,0.13338 c 0.16796,-0.1729 0.38532,-0.43472 0.58292,-0.6916 z m -1.38814,2.1983 h 0.45942 v -0.62738 c 0.60268,0.29146 1.30416,0.64714 1.67466,0.87932 l 0.22724,-0.3705 c -0.3705,-0.21242 -1.04728,-0.53846 -1.62032,-0.80522 h 1.62032 V 35.129 h -1.9019 v -0.92872 h -0.45942 V 35.129 h -0.80028 l 0.36062,-0.16302 c -0.0988,-0.20254 -0.32604,-0.47424 -0.52858,-0.67184 l -0.39026,0.17784 c 0.18772,0.19266 0.39026,0.4693 0.48412,0.65702 h -0.99788 v 0.42484 h 1.51164 c -0.3952,0.3705 -1.00282,0.6669 -1.62032,0.81016 0.10374,0.08398 0.23218,0.26182 0.30134,0.37544 0.62738,-0.18278 1.24982,-0.5434 1.6796,-0.99294 z m 2.39096,1.00776 v -0.42484 h -1.98094 c 0.0296,-0.1482 0.0543,-0.31122 0.0741,-0.47918 h -0.48412 c -0.0198,0.1729 -0.0445,0.33592 -0.079,0.47918 h -1.82286 v 0.42484 h 1.64996 c -0.24206,0.3952 -0.72618,0.6669 -1.76358,0.82004 0.0939,0.10374 0.20254,0.30134 0.23712,0.42484 1.19054,-0.20748 1.73888,-0.58292 2.01058,-1.13126 0.40014,0.63726 1.04234,0.98306 2.00564,1.13126 0.0543,-0.13832 0.18278,-0.33098 0.28158,-0.42978 -0.8645,-0.09386 -1.49188,-0.35568 -1.85744,-0.8151 z"
       style="font-family:'Noto Sans CJK SC';-inkscape-font-specification:'Noto Sans CJK SC Medium'"
       id="path1242" />
    <path
       d="m 182.1607,35.6477 h -1.12632 v -0.82498 h 1.12632 z m 0.43966,-1.235 h -1.98588 v 1.64502 h 1.98588 z m -0.9139,2.13408 c 0.01,-0.1235 0.0148,-0.247 0.0198,-0.3705 h -0.42978 c -0.005,0.1235 -0.01,0.247 -0.0198,0.3705 h -0.80028 v 0.4199 h 0.75582 c -0.084,0.63726 -0.29146,1.1362 -0.8892,1.44248 0.0988,0.07904 0.2223,0.23218 0.27664,0.3458 0.70642,-0.38532 0.94848,-1.00776 1.04728,-1.78828 h 0.5928 c -0.0346,0.82992 -0.084,1.15596 -0.15314,1.23994 -0.0395,0.0494 -0.084,0.05928 -0.15808,0.05928 -0.079,0 -0.25194,-0.0049 -0.4446,-0.0247 0.0741,0.1235 0.11856,0.30628 0.12844,0.43966 0.21736,0.0049 0.42484,0.0049 0.5434,-0.0099 0.13832,-0.01976 0.22724,-0.05928 0.31616,-0.16796 0.12844,-0.15314 0.17784,-0.60762 0.2223,-1.76852 0.005,-0.06422 0.01,-0.18772 0.01,-0.18772 z m 1.9513,-1.75864 h -0.4446 v 2.73182 h 0.4446 z m 0.58292,-0.494 v 3.86308 c 0,0.08892 -0.0346,0.11362 -0.11856,0.11856 -0.0889,0 -0.3705,0.0049 -0.67678,-0.0099 0.0642,0.13338 0.12844,0.3458 0.1482,0.4693 0.42978,0.0049 0.70148,-0.0099 0.87438,-0.08892 0.16302,-0.0741 0.22724,-0.21242 0.22724,-0.48906 v -3.86308 z"
       style="font-family:'Noto Sans CJK SC';-inkscape-font-specification:'Noto Sans CJK SC Medium'"
       id="path1244" />
  </g>
  <g
     aria-label="其他类别"
     id="text161"
     style="font-weight:500;font-size:4.94px;line-height:1.25;font-family:Poppins;-inkscape-font-specification:'Poppins, Medium';letter-spacing:0;stroke-width:0.26">
    <path
       d="m 171.89044,47.638839 h 1.70924 v 0.46436 h -1.70924 z m 1.70924,-1.63514 v 0.41496 h -1.70924 v -0.41496 z m -1.70924,0.80522 h 1.70924 v 0.4446 h -1.70924 z m 3.04798,1.29428 h -0.87438 v -2.0995 h 0.75582 v -0.4199 h -0.75582 v -0.52858 h -0.46436 v 0.52858 h -1.70924 v -0.52858 h -0.45448 v 0.52858 h -0.72618 v 0.4199 h 0.72618 v 2.0995 h -0.86944 v 0.42484 h 4.3719 z m -2.89484,0.46436 c -0.34086,0.23218 -1.00776,0.51376 -1.5314,0.65702 0.0988,0.09386 0.23218,0.25194 0.30134,0.35074 0.52364,-0.16796 1.19054,-0.4446 1.6302,-0.71136 z m 1.01764,0.32604 c 0.56316,0.20254 1.13126,0.47424 1.46718,0.67184 l 0.42484,-0.30134 c -0.37544,-0.19266 -1.00282,-0.46436 -1.56598,-0.65702 z"
       style="font-family:'Noto Sans CJK SC';-inkscape-font-specification:'Noto Sans CJK SC Medium'"
       id="path1247" />
    <path
       d="m 176.49946,45.065099 c -0.26676,0.72124 -0.70642,1.44248 -1.17078,1.9019 0.0741,0.10868 0.20748,0.35074 0.25194,0.45942 0.13832,-0.1482 0.27664,-0.31616 0.41002,-0.49894 v 2.64784 h 0.44954 v -3.35426 c 0.18278,-0.33098 0.35074,-0.68172 0.47918,-1.02258 z m 1.52646,4.03598 c -0.33592,0 -0.3952,-0.05928 -0.3952,-0.3458 v -1.66478 l 0.6175,-0.23712 v 1.6055 h 0.43472 v -1.7784 l 0.65208,-0.25194 c -0.005,0.7163 -0.0148,1.1362 -0.0445,1.25476 -0.0247,0.10868 -0.0692,0.12844 -0.14326,0.12844 -0.0642,0 -0.2223,0 -0.3458,-0.0049 0.0543,0.10374 0.0988,0.2964 0.10868,0.4199 0.15314,0.0049 0.37544,0 0.52364,-0.0494 0.15314,-0.0494 0.247,-0.15808 0.27664,-0.39026 0.0395,-0.20748 0.0494,-0.8645 0.0543,-1.74382 l 0.0198,-0.06916 -0.31616,-0.12844 -0.084,0.06422 -0.0692,0.05434 -0.63232,0.247 v -1.15102 h -0.43472 v 1.31898 l -0.6175,0.23712 v -1.05716 h -0.45448 v 1.235 l -0.61256,0.23712 0.18278,0.41002 0.42978,-0.1729 v 1.482 c 0,0.60268 0.18278,0.76076 0.82004,0.76076 h 1.20042 c 0.57304,0 0.70642,-0.22724 0.78052,-0.92872 -0.12844,-0.0247 -0.31122,-0.10868 -0.42484,-0.18278 -0.0395,0.5681 -0.0939,0.70148 -0.38532,0.70148 z"
       style="font-family:'Noto Sans CJK SC';-inkscape-font-specification:'Noto Sans CJK SC Medium'"
       id="path1249" />
    <path
       d="m 183.78102,45.129319 c -0.10868,0.21242 -0.31122,0.50388 -0.47424,0.70148 l 0.38532,0.13338 c 0.16796,-0.1729 0.38532,-0.43472 0.58292,-0.6916 z m -1.38814,2.1983 h 0.45942 v -0.62738 c 0.60268,0.29146 1.30416,0.64714 1.67466,0.87932 l 0.22724,-0.3705 c -0.3705,-0.21242 -1.04728,-0.53846 -1.62032,-0.80522 h 1.62032 v -0.42484 h -1.9019 v -0.92872 h -0.45942 v 0.92872 h -0.80028 l 0.36062,-0.16302 c -0.0988,-0.20254 -0.32604,-0.47424 -0.52858,-0.67184 l -0.39026,0.17784 c 0.18772,0.19266 0.39026,0.4693 0.48412,0.65702 h -0.99788 v 0.42484 h 1.51164 c -0.3952,0.3705 -1.00282,0.6669 -1.62032,0.81016 0.10374,0.08398 0.23218,0.26182 0.30134,0.37544 0.62738,-0.18278 1.24982,-0.5434 1.6796,-0.99294 z m 2.39096,1.00776 v -0.42484 h -1.98094 c 0.0296,-0.1482 0.0543,-0.31122 0.0741,-0.47918 h -0.48412 c -0.0198,0.1729 -0.0445,0.33592 -0.079,0.47918 h -1.82286 v 0.42484 h 1.64996 c -0.24206,0.3952 -0.72618,0.6669 -1.76358,0.82004 0.0939,0.10374 0.20254,0.30134 0.23712,0.42484 1.19054,-0.20748 1.73888,-0.58292 2.01058,-1.13126 0.40014,0.63726 1.04234,0.98306 2.00564,1.13126 0.0543,-0.13832 0.18278,-0.33098 0.28158,-0.42978 -0.8645,-0.09386 -1.49188,-0.35568 -1.85744,-0.8151 z"
       style="font-family:'Noto Sans CJK SC';-inkscape-font-specification:'Noto Sans CJK SC Medium'"
       id="path1251" />
    <path
       d="m 187.1007,46.497699 h -1.12632 v -0.82498 h 1.12632 z m 0.43966,-1.235 h -1.98588 v 1.64502 h 1.98588 z m -0.9139,2.13408 c 0.01,-0.1235 0.0148,-0.247 0.0198,-0.3705 h -0.42978 c -0.005,0.1235 -0.01,0.247 -0.0198,0.3705 h -0.80028 v 0.4199 h 0.75582 c -0.084,0.63726 -0.29146,1.1362 -0.8892,1.44248 0.0988,0.07904 0.2223,0.23218 0.27664,0.3458 0.70642,-0.38532 0.94848,-1.00776 1.04728,-1.78828 h 0.5928 c -0.0346,0.82992 -0.084,1.15596 -0.15314,1.23994 -0.0395,0.0494 -0.084,0.05928 -0.15808,0.05928 -0.079,0 -0.25194,-0.0049 -0.4446,-0.0247 0.0741,0.1235 0.11856,0.30628 0.12844,0.43966 0.21736,0.0049 0.42484,0.0049 0.5434,-0.0099 0.13832,-0.01976 0.22724,-0.05928 0.31616,-0.16796 0.12844,-0.15314 0.17784,-0.60762 0.2223,-1.76852 0.005,-0.06422 0.01,-0.18772 0.01,-0.18772 z m 1.9513,-1.75864 h -0.4446 v 2.73182 h 0.4446 z m 0.58292,-0.494 v 3.86308 c 0,0.08892 -0.0346,0.11362 -0.11856,0.11856 -0.0889,0 -0.3705,0.0049 -0.67678,-0.0099 0.0642,0.13338 0.12844,0.3458 0.1482,0.4693 0.42978,0.0049 0.70148,-0.0099 0.87438,-0.08892 0.16302,-0.0741 0.22724,-0.21242 0.22724,-0.48906 v -3.86308 z"
       style="font-family:'Noto Sans CJK SC';-inkscape-font-specification:'Noto Sans CJK SC Medium'"
       id="path1253" />
  </g>
  <g
     aria-label="user : : rw-"
     id="text165"
     style="font-weight:bold;font-size:4.94px;line-height:1.25;font-family:Poppins;-inkscape-font-specification:'Poppins Bold';letter-spacing:0;stroke-width:0.26">
    <path
       d="m 73.268218,5.16348 v 2.7565201 h -0.84474 v -0.37544 q -0.12844,0.18278 -0.35074,0.2964 -0.21736,0.10868 -0.48412,0.10868 -0.31616,0 -0.55822,-0.13832 -0.24206,-0.14326 -0.37544,-0.41002 -0.13338,-0.26676 -0.13338,-0.62738 V 5.16348 h 0.8398 v 1.4968201 q 0,0.27664 0.14326,0.42978 0.14326,0.15314 0.38532,0.15314 0.247,0 0.39026,-0.15314 0.14326,-0.15314 0.14326,-0.42978 V 5.16348 Z"
       id="path1427" />
    <path
       d="m 74.997217,7.9595201 q -0.36062,0 -0.6422,-0.1235 -0.28158,-0.1235 -0.4446,-0.33592 -0.16302,-0.21736 -0.18278,-0.48412 h 0.83486 q 0.01482,0.14326 0.13338,0.23218 0.11856,0.08892 0.29146,0.08892 0.15808,0 0.24206,-0.05928 0.08892,-0.06422 0.08892,-0.16302 0,-0.11856 -0.1235,-0.1729 -0.1235,-0.05928 -0.40014,-0.12844 -0.2964,-0.06916 -0.494,-0.14326 -0.1976,-0.07904 -0.34086,-0.24206 -0.14326,-0.16796 -0.14326,-0.44954 0,-0.23712 0.12844,-0.4297801 0.13338,-0.1976 0.38532,-0.31122 0.25688,-0.11362 0.60762,-0.11362 0.5187,0 0.8151,0.25688 0.30134,0.25688 0.3458,0.6817201 h -0.78052 q -0.01976,-0.14326 -0.12844,-0.22724 -0.10374,-0.08398 -0.27664,-0.08398 -0.1482,0 -0.22724,0.05928 -0.07904,0.05434 -0.07904,0.15314 0,0.11856 0.1235,0.17784 0.12844,0.05928 0.3952,0.11856 0.30628,0.07904 0.49894,0.15808 0.19266,0.0741 0.33592,0.247 0.1482,0.16796 0.15314,0.45448 0,0.24206 -0.13832,0.43472 -0.13338,0.18772 -0.39026,0.2964 -0.25194,0.10868 -0.58786,0.10868 z"
       id="path1429" />
    <path
       d="m 79.2308,6.4972801 q 0,0.11856 -0.01482,0.247 H 77.3042 q 0.01976,0.25688 0.16302,0.3952 0.1482,0.13338 0.36062,0.13338 0.31616,0 0.43966,-0.26676 h 0.89908 q -0.06916,0.2717 -0.25194,0.48906 -0.17784,0.21736 -0.44954,0.34086 -0.2717,0.1235 -0.60762,0.1235 -0.40508,0 -0.72124,-0.1729 -0.31616,-0.1729 -0.494,-0.494 -0.17784,-0.3211 -0.17784,-0.75088 0,-0.42978 0.1729,-0.75088 0.17784,-0.3211001 0.494,-0.4940001 0.31616,-0.1729 0.72618,-0.1729 0.40014,0 0.71136,0.16796 0.31122,0.16796 0.48412,0.4791801 0.17784,0.31122 0.17784,0.72618 z m -0.8645,-0.2223 q 0,-0.21736 -0.1482,-0.3458 -0.1482,-0.12844 -0.3705,-0.12844 -0.21242,0 -0.36062,0.1235 -0.14326,0.1235 -0.17784,0.35074 z"
       id="path1431" />
    <path
       d="m 80.520136,5.6229 q 0.1482,-0.22724 0.3705,-0.35568 0.2223,-0.13338 0.494,-0.13338 v 0.8941401 h -0.23218 q -0.31616,0 -0.47424,0.13832 -0.15808,0.13338 -0.15808,0.47424 v 1.27946 h -0.84474 V 5.16348 h 0.84474 z"
       id="path1433" />
    <path
       d="m 83.232193,7.9595201 q -0.2223,0 -0.36556,-0.12844 -0.13832,-0.13338 -0.13832,-0.32604 0,-0.1976 0.13832,-0.33098 0.14326,-0.13338 0.36556,-0.13338 0.21736,0 0.35568,0.13338 0.14326,0.13338 0.14326,0.33098 0,0.19266 -0.14326,0.32604 -0.13832,0.12844 -0.35568,0.12844 z m 0,-2.01058 q -0.2223,0 -0.36556,-0.12844 -0.13832,-0.13338 -0.13832,-0.3260401 0,-0.1976 0.13832,-0.33098 0.14326,-0.13338 0.36556,-0.13338 0.21736,0 0.35568,0.13338 0.14326,0.13338 0.14326,0.33098 0,0.1926601 -0.14326,0.3260401 -0.13832,0.12844 -0.35568,0.12844 z"
       id="path1435" />
    <path
       d="m 85.682435,7.9595201 q -0.2223,0 -0.36556,-0.12844 -0.13832,-0.13338 -0.13832,-0.32604 0,-0.1976 0.13832,-0.33098 0.14326,-0.13338 0.36556,-0.13338 0.21736,0 0.35568,0.13338 0.14326,0.13338 0.14326,0.33098 0,0.19266 -0.14326,0.32604 -0.13832,0.12844 -0.35568,0.12844 z m 0,-2.01058 q -0.2223,0 -0.36556,-0.12844 -0.13832,-0.13338 -0.13832,-0.3260401 0,-0.1976 0.13832,-0.33098 0.14326,-0.13338 0.36556,-0.13338 0.21736,0 0.35568,0.13338 0.14326,0.13338 0.14326,0.33098 0,0.1926601 -0.14326,0.3260401 -0.13832,0.12844 -0.35568,0.12844 z"
       id="path1437" />
    <path
       d="m 88.582216,5.6229 q 0.1482,-0.22724 0.3705,-0.35568 0.2223,-0.13338 0.494,-0.13338 v 0.8941401 h -0.23218 q -0.31616,0 -0.47424,0.13832 -0.15808,0.13338 -0.15808,0.47424 v 1.27946 h -0.84474 V 5.16348 h 0.84474 z"
       id="path1439" />
    <path
       d="m 93.808733,5.16348 -0.74594,2.7565201 h -0.93366 l -0.43472,-1.78828 -0.44954,1.78828 h -0.92872 L 89.565273,5.16348 h 0.84474 l 0.39026,1.9710601 0.46436,-1.9710601 h 0.89414 l 0.4693,1.9611801 0.38532,-1.9611801 z"
       id="path1441" />
    <path
       d="m 96.254029,5.8353201 v 0.70148 h -2.1736 v -0.70148 z"
       id="path1443" />
  </g>
  <g
     aria-label="user : jane : rw-"
     id="text169"
     style="font-weight:bold;font-size:4.94px;line-height:1.25;font-family:Poppins;-inkscape-font-specification:'Poppins Bold';letter-spacing:0;stroke-width:0.26">
    <path
       d="M 73.268218,15.26348 V 18.02 h -0.84474 v -0.37544 q -0.12844,0.18278 -0.35074,0.2964 -0.21736,0.10868 -0.48412,0.10868 -0.31616,0 -0.55822,-0.13832 -0.24206,-0.14326 -0.37544,-0.41002 -0.13338,-0.26676 -0.13338,-0.62738 v -1.61044 h 0.8398 v 1.49682 q 0,0.27664 0.14326,0.42978 0.14326,0.15314 0.38532,0.15314 0.247,0 0.39026,-0.15314 0.14326,-0.15314 0.14326,-0.42978 v -1.49682 z"
       id="path1446" />
    <path
       d="m 74.997217,18.05952 q -0.36062,0 -0.6422,-0.1235 -0.28158,-0.1235 -0.4446,-0.33592 -0.16302,-0.21736 -0.18278,-0.48412 h 0.83486 q 0.01482,0.14326 0.13338,0.23218 0.11856,0.08892 0.29146,0.08892 0.15808,0 0.24206,-0.05928 0.08892,-0.06422 0.08892,-0.16302 0,-0.11856 -0.1235,-0.1729 -0.1235,-0.05928 -0.40014,-0.12844 -0.2964,-0.06916 -0.494,-0.14326 -0.1976,-0.07904 -0.34086,-0.24206 -0.14326,-0.16796 -0.14326,-0.44954 0,-0.23712 0.12844,-0.42978 0.13338,-0.1976 0.38532,-0.31122 0.25688,-0.11362 0.60762,-0.11362 0.5187,0 0.8151,0.25688 0.30134,0.25688 0.3458,0.68172 h -0.78052 q -0.01976,-0.14326 -0.12844,-0.22724 -0.10374,-0.08398 -0.27664,-0.08398 -0.1482,0 -0.22724,0.05928 -0.07904,0.05434 -0.07904,0.15314 0,0.11856 0.1235,0.17784 0.12844,0.05928 0.3952,0.11856 0.30628,0.07904 0.49894,0.15808 0.19266,0.0741 0.33592,0.247 0.1482,0.16796 0.15314,0.45448 0,0.24206 -0.13832,0.43472 -0.13338,0.18772 -0.39026,0.2964 -0.25194,0.10868 -0.58786,0.10868 z"
       id="path1448" />
    <path
       d="m 79.2308,16.59728 q 0,0.11856 -0.01482,0.247 H 77.3042 q 0.01976,0.25688 0.16302,0.3952 0.1482,0.13338 0.36062,0.13338 0.31616,0 0.43966,-0.26676 h 0.89908 q -0.06916,0.2717 -0.25194,0.48906 -0.17784,0.21736 -0.44954,0.34086 -0.2717,0.1235 -0.60762,0.1235 -0.40508,0 -0.72124,-0.1729 -0.31616,-0.1729 -0.494,-0.494 -0.17784,-0.3211 -0.17784,-0.75088 0,-0.42978 0.1729,-0.75088 0.17784,-0.3211 0.494,-0.494 0.31616,-0.1729 0.72618,-0.1729 0.40014,0 0.71136,0.16796 0.31122,0.16796 0.48412,0.47918 0.17784,0.31122 0.17784,0.72618 z m -0.8645,-0.2223 q 0,-0.21736 -0.1482,-0.3458 -0.1482,-0.12844 -0.3705,-0.12844 -0.21242,0 -0.36062,0.1235 -0.14326,0.1235 -0.17784,0.35074 z"
       id="path1450" />
    <path
       d="m 80.520136,15.7229 q 0.1482,-0.22724 0.3705,-0.35568 0.2223,-0.13338 0.494,-0.13338 v 0.89414 h -0.23218 q -0.31616,0 -0.47424,0.13832 -0.15808,0.13338 -0.15808,0.47424 V 18.02 h -0.84474 v -2.75652 h 0.84474 z"
       id="path1452" />
    <path
       d="m 83.232193,18.05952 q -0.2223,0 -0.36556,-0.12844 -0.13832,-0.13338 -0.13832,-0.32604 0,-0.1976 0.13832,-0.33098 0.14326,-0.13338 0.36556,-0.13338 0.21736,0 0.35568,0.13338 0.14326,0.13338 0.14326,0.33098 0,0.19266 -0.14326,0.32604 -0.13832,0.12844 -0.35568,0.12844 z m 0,-2.01058 q -0.2223,0 -0.36556,-0.12844 -0.13832,-0.13338 -0.13832,-0.32604 0,-0.1976 0.13832,-0.33098 0.14326,-0.13338 0.36556,-0.13338 0.21736,0 0.35568,0.13338 0.14326,0.13338 0.14326,0.33098 0,0.19266 -0.14326,0.32604 -0.13832,0.12844 -0.35568,0.12844 z"
       id="path1454" />
    <path
       d="m 85.707135,14.97696 q -0.2223,0 -0.36556,-0.12844 -0.13832,-0.13338 -0.13832,-0.32604 0,-0.1976 0.13832,-0.32604 0.14326,-0.13338 0.36556,-0.13338 0.21736,0 0.35568,0.13338 0.14326,0.12844 0.14326,0.32604 0,0.19266 -0.14326,0.32604 -0.13832,0.12844 -0.35568,0.12844 z m 0.42484,3.39872 q 0,0.50882 -0.25688,0.73112 -0.25688,0.22724 -0.7163,0.22724 h -0.33098 v -0.7163 h 0.20254 q 0.13832,0 0.1976,-0.05434 0.05928,-0.05434 0.05928,-0.17784 v -3.12208 h 0.84474 z"
       id="path1456" />
    <path
       d="m 86.571637,16.6368 q 0,-0.42484 0.15808,-0.74594 0.16302,-0.3211 0.43966,-0.494 0.27664,-0.1729 0.6175,-0.1729 0.29146,0 0.50882,0.11856 0.2223,0.11856 0.34086,0.31122 v -0.39026 h 0.84474 V 18.02 h -0.84474 v -0.39026 q -0.1235,0.19266 -0.3458,0.31122 -0.21736,0.11856 -0.50882,0.11856 -0.33592,0 -0.61256,-0.1729 -0.27664,-0.17784 -0.43966,-0.49894 -0.15808,-0.32604 -0.15808,-0.75088 z m 2.06492,0.0049 q 0,-0.31616 -0.17784,-0.49894 -0.1729,-0.18278 -0.42484,-0.18278 -0.25194,0 -0.42978,0.18278 -0.1729,0.17784 -0.1729,0.494 0,0.31616 0.1729,0.50388 0.17784,0.18278 0.42978,0.18278 0.25194,0 0.42484,-0.18278 0.17784,-0.18278 0.17784,-0.49894 z"
       id="path1458" />
    <path
       d="m 91.773462,15.23384 q 0.48412,0 0.77064,0.31616 0.29146,0.31122 0.29146,0.85956 V 18.02 h -0.8398 v -1.49682 q 0,-0.27664 -0.14326,-0.42978 -0.14326,-0.15314 -0.38532,-0.15314 -0.24206,0 -0.38532,0.15314 -0.14326,0.15314 -0.14326,0.42978 V 18.02 h -0.84474 v -2.75652 h 0.84474 v 0.36556 q 0.12844,-0.18278 0.3458,-0.28652 0.21736,-0.10868 0.48906,-0.10868 z"
       id="path1460" />
    <path
       d="m 96.021862,16.59728 q 0,0.11856 -0.01482,0.247 h -1.91178 q 0.01976,0.25688 0.16302,0.3952 0.1482,0.13338 0.36062,0.13338 0.31616,0 0.43966,-0.26676 h 0.89908 q -0.06916,0.2717 -0.25194,0.48906 -0.17784,0.21736 -0.44954,0.34086 -0.2717,0.1235 -0.60762,0.1235 -0.40508,0 -0.72124,-0.1729 -0.31616,-0.1729 -0.494,-0.494 -0.17784,-0.3211 -0.17784,-0.75088 0,-0.42978 0.1729,-0.75088 0.17784,-0.3211 0.494,-0.494 0.31616,-0.1729 0.72618,-0.1729 0.40014,0 0.71136,0.16796 0.31122,0.16796 0.48412,0.47918 0.17784,0.31122 0.17784,0.72618 z m -0.8645,-0.2223 q 0,-0.21736 -0.1482,-0.3458 -0.1482,-0.12844 -0.3705,-0.12844 -0.21242,0 -0.36062,0.1235 -0.14326,0.1235 -0.17784,0.35074 z"
       id="path1462" />
    <path
       d="m 97.908937,18.05952 q -0.2223,0 -0.36556,-0.12844 -0.13832,-0.13338 -0.13832,-0.32604 0,-0.1976 0.13832,-0.33098 0.14326,-0.13338 0.36556,-0.13338 0.21736,0 0.35568,0.13338 0.14326,0.13338 0.14326,0.33098 0,0.19266 -0.14326,0.32604 -0.13832,0.12844 -0.35568,0.12844 z m 0,-2.01058 q -0.2223,0 -0.36556,-0.12844 -0.13832,-0.13338 -0.13832,-0.32604 0,-0.1976 0.13832,-0.33098 0.14326,-0.13338 0.36556,-0.13338 0.21736,0 0.35568,0.13338 0.14326,0.13338 0.14326,0.33098 0,0.19266 -0.14326,0.32604 -0.13832,0.12844 -0.35568,0.12844 z"
       id="path1464" />
    <path
       d="m 100.80872,15.7229 q 0.1482,-0.22724 0.3705,-0.35568 0.2223,-0.13338 0.494,-0.13338 v 0.89414 h -0.23218 q -0.31616,0 -0.47424,0.13832 -0.15808,0.13338 -0.15808,0.47424 V 18.02 h -0.844742 v -2.75652 h 0.844742 z"
       id="path1466" />
    <path
       d="M 106.03524,15.26348 105.2893,18.02 h -0.93366 l -0.43472,-1.78828 -0.44954,1.78828 h -0.92872 l -0.75088,-2.75652 h 0.84474 l 0.39026,1.97106 0.46436,-1.97106 h 0.89414 l 0.4693,1.96118 0.38532,-1.96118 z"
       id="path1468" />
    <path
       d="m 108.48053,15.93532 v 0.70148 h -2.1736 v -0.70148 z"
       id="path1470" />
  </g>
  <g
     aria-label="group : : r--"
     id="text173"
     style="font-weight:bold;font-size:4.94px;line-height:1.25;font-family:Poppins;-inkscape-font-specification:'Poppins Bold';letter-spacing:0;stroke-width:0.26">
    <path
       d="m 71.753562,24.88396 q 0.29146,0 0.50882,0.11856 0.2223,0.11856 0.34086,0.31122 v -0.39026 h 0.84474 v 2.75158 q 0,0.38038 -0.15314,0.68666 -0.1482,0.31122 -0.45942,0.494 -0.30628,0.18278 -0.7657,0.18278 -0.61256,0 -0.99294,-0.29146 -0.38038,-0.28652 -0.43472,-0.78052 h 0.83486 q 0.03952,0.15808 0.18772,0.247 0.1482,0.09386 0.36556,0.09386 0.26182,0 0.41496,-0.15314 0.15808,-0.1482 0.15808,-0.47918 V 27.2848 q -0.1235,0.19266 -0.34086,0.31616 -0.21736,0.11856 -0.50882,0.11856 -0.34086,0 -0.6175,-0.1729 -0.27664,-0.17784 -0.43966,-0.49894 -0.15808,-0.32604 -0.15808,-0.75088 0,-0.42484 0.15808,-0.74594 0.16302,-0.3211 0.43966,-0.494 0.27664,-0.1729 0.6175,-0.1729 z m 0.84968,1.41778 q 0,-0.31616 -0.17784,-0.49894 -0.1729,-0.18278 -0.42484,-0.18278 -0.25194,0 -0.42978,0.18278 -0.1729,0.17784 -0.1729,0.494 0,0.31616 0.1729,0.50388 0.17784,0.18278 0.42978,0.18278 0.25194,0 0.42484,-0.18278 0.17784,-0.18278 0.17784,-0.49894 z"
       id="path1473" />
    <path
       d="m 74.905286,25.3829 q 0.1482,-0.22724 0.3705,-0.35568 0.2223,-0.13338 0.494,-0.13338 v 0.89414 h -0.23218 q -0.31616,0 -0.47424,0.13832 -0.15808,0.13338 -0.15808,0.47424 V 27.68 h -0.84474 v -2.75652 h 0.84474 z"
       id="path1475" />
    <path
       d="m 77.429624,27.71952 q -0.40508,0 -0.73112,-0.1729 -0.3211,-0.1729 -0.50882,-0.494 -0.18278,-0.3211 -0.18278,-0.75088 0,-0.42484 0.18772,-0.74594 0.18772,-0.32604 0.51376,-0.49894 0.32604,-0.1729 0.73112,-0.1729 0.40508,0 0.73112,0.1729 0.32604,0.1729 0.51376,0.49894 0.18772,0.3211 0.18772,0.74594 0,0.42484 -0.19266,0.75088 -0.18772,0.3211 -0.5187,0.494 -0.32604,0.1729 -0.73112,0.1729 z m 0,-0.73112 q 0.24206,0 0.41002,-0.17784 0.1729,-0.17784 0.1729,-0.50882 0,-0.33098 -0.16796,-0.50882 -0.16302,-0.17784 -0.40508,-0.17784 -0.247,0 -0.41002,0.17784 -0.16302,0.1729 -0.16302,0.50882 0,0.33098 0.15808,0.50882 0.16302,0.17784 0.40508,0.17784 z"
       id="path1477" />
    <path
       d="M 82.043579,24.92348 V 27.68 h -0.84474 v -0.37544 q -0.12844,0.18278 -0.35074,0.2964 -0.21736,0.10868 -0.48412,0.10868 -0.31616,0 -0.55822,-0.13832 -0.24206,-0.14326 -0.37544,-0.41002 -0.13338,-0.26676 -0.13338,-0.62738 v -1.61044 h 0.8398 v 1.49682 q 0,0.27664 0.14326,0.42978 0.14326,0.15314 0.38532,0.15314 0.247,0 0.39026,-0.15314 0.14326,-0.15314 0.14326,-0.42978 v -1.49682 z"
       id="path1479" />
    <path
       d="m 83.495938,25.31374 q 0.1235,-0.19266 0.34086,-0.31122 0.21736,-0.11856 0.50882,-0.11856 0.34086,0 0.6175,0.1729 0.27664,0.1729 0.43472,0.494 0.16302,0.3211 0.16302,0.74594 0,0.42484 -0.16302,0.75088 -0.15808,0.3211 -0.43472,0.49894 -0.27664,0.1729 -0.6175,0.1729 -0.28652,0 -0.50882,-0.11856 -0.21736,-0.11856 -0.34086,-0.30628 v 1.69936 h -0.84474 v -4.07056 h 0.84474 z m 1.20536,0.98306 q 0,-0.31616 -0.17784,-0.494 -0.1729,-0.18278 -0.42978,-0.18278 -0.25194,0 -0.42978,0.18278 -0.1729,0.18278 -0.1729,0.49894 0,0.31616 0.1729,0.49894 0.17784,0.18278 0.42978,0.18278 0.25194,0 0.42978,-0.18278 0.17784,-0.18772 0.17784,-0.50388 z"
       id="path1481" />
    <path
       d="m 87.447942,27.71952 q -0.2223,0 -0.36556,-0.12844 -0.13832,-0.13338 -0.13832,-0.32604 0,-0.1976 0.13832,-0.33098 0.14326,-0.13338 0.36556,-0.13338 0.21736,0 0.35568,0.13338 0.14326,0.13338 0.14326,0.33098 0,0.19266 -0.14326,0.32604 -0.13832,0.12844 -0.35568,0.12844 z m 0,-2.01058 q -0.2223,0 -0.36556,-0.12844 -0.13832,-0.13338 -0.13832,-0.32604 0,-0.1976 0.13832,-0.33098 0.14326,-0.13338 0.36556,-0.13338 0.21736,0 0.35568,0.13338 0.14326,0.13338 0.14326,0.33098 0,0.19266 -0.14326,0.32604 -0.13832,0.12844 -0.35568,0.12844 z"
       id="path1483" />
    <path
       d="m 89.898183,27.71952 q -0.2223,0 -0.36556,-0.12844 -0.13832,-0.13338 -0.13832,-0.32604 0,-0.1976 0.13832,-0.33098 0.14326,-0.13338 0.36556,-0.13338 0.21736,0 0.35568,0.13338 0.14326,0.13338 0.14326,0.33098 0,0.19266 -0.14326,0.32604 -0.13832,0.12844 -0.35568,0.12844 z m 0,-2.01058 q -0.2223,0 -0.36556,-0.12844 -0.13832,-0.13338 -0.13832,-0.32604 0,-0.1976 0.13832,-0.33098 0.14326,-0.13338 0.36556,-0.13338 0.21736,0 0.35568,0.13338 0.14326,0.13338 0.14326,0.33098 0,0.19266 -0.14326,0.32604 -0.13832,0.12844 -0.35568,0.12844 z"
       id="path1485" />
    <path
       d="m 92.797964,25.3829 q 0.1482,-0.22724 0.3705,-0.35568 0.2223,-0.13338 0.494,-0.13338 v 0.89414 h -0.23218 q -0.31616,0 -0.47424,0.13832 -0.15808,0.13338 -0.15808,0.47424 V 27.68 h -0.84474 v -2.75652 h 0.84474 z"
       id="path1487" />
    <path
       d="m 96.191743,25.59532 v 0.70148 h -2.1736 v -0.70148 z"
       id="path1489" />
    <path
       d="m 99.056943,25.59532 v 0.70148 h -2.1736 v -0.70148 z"
       id="path1491" />
  </g>
  <g
     aria-label="mask : : rw-"
     id="text177"
     style="font-weight:bold;font-size:4.94px;line-height:1.25;font-family:Poppins;-inkscape-font-specification:'Poppins Bold';letter-spacing:0;stroke-width:0.26">
    <path
       d="m 74.043561,36.19384 q 0.51376,0 0.8151,0.31122 0.30628,0.31122 0.30628,0.8645 V 38.98 h -0.8398 v -1.49682 q 0,-0.26676 -0.14326,-0.41002 -0.13832,-0.1482 -0.38532,-0.1482 -0.247,0 -0.39026,0.1482 -0.13832,0.14326 -0.13832,0.41002 V 38.98 h -0.8398 v -1.49682 q 0,-0.26676 -0.14326,-0.41002 -0.13832,-0.1482 -0.38532,-0.1482 -0.247,0 -0.39026,0.1482 -0.13832,0.14326 -0.13832,0.41002 V 38.98 h -0.84474 v -2.75652 h 0.84474 v 0.3458 q 0.12844,-0.1729 0.33592,-0.2717 0.20748,-0.10374 0.4693,-0.10374 0.31122,0 0.55328,0.13338 0.247,0.13338 0.38532,0.38038 0.14326,-0.22724 0.39026,-0.3705 0.247,-0.14326 0.53846,-0.14326 z"
       id="path1601" />
    <path
       d="m 75.589781,37.5968 q 0,-0.42484 0.15808,-0.74594 0.16302,-0.3211 0.43966,-0.494 0.27664,-0.1729 0.6175,-0.1729 0.29146,0 0.50882,0.11856 0.2223,0.11856 0.34086,0.31122 v -0.39026 h 0.84474 V 38.98 h -0.84474 v -0.39026 q -0.1235,0.19266 -0.3458,0.31122 -0.21736,0.11856 -0.50882,0.11856 -0.33592,0 -0.61256,-0.1729 -0.27664,-0.17784 -0.43966,-0.49894 -0.15808,-0.32604 -0.15808,-0.75088 z m 2.06492,0.0049 q 0,-0.31616 -0.17784,-0.49894 -0.1729,-0.18278 -0.42484,-0.18278 -0.25194,0 -0.42978,0.18278 -0.1729,0.17784 -0.1729,0.494 0,0.31616 0.1729,0.50388 0.17784,0.18278 0.42978,0.18278 0.25194,0 0.42484,-0.18278 0.17784,-0.18278 0.17784,-0.49894 z"
       id="path1603" />
    <path
       d="m 80.233385,39.01952 q -0.36062,0 -0.6422,-0.1235 -0.28158,-0.1235 -0.4446,-0.33592 -0.16302,-0.21736 -0.18278,-0.48412 h 0.83486 q 0.01482,0.14326 0.13338,0.23218 0.11856,0.08892 0.29146,0.08892 0.15808,0 0.24206,-0.05928 0.08892,-0.06422 0.08892,-0.16302 0,-0.11856 -0.1235,-0.1729 -0.1235,-0.05928 -0.40014,-0.12844 -0.2964,-0.06916 -0.494,-0.14326 -0.1976,-0.07904 -0.34086,-0.24206 -0.14326,-0.16796 -0.14326,-0.44954 0,-0.23712 0.12844,-0.42978 0.13338,-0.1976 0.38532,-0.31122 0.25688,-0.11362 0.60762,-0.11362 0.5187,0 0.8151,0.25688 0.30134,0.25688 0.3458,0.68172 h -0.78052 q -0.01976,-0.14326 -0.12844,-0.22724 -0.10374,-0.08398 -0.27664,-0.08398 -0.1482,0 -0.22724,0.05928 -0.07904,0.05434 -0.07904,0.15314 0,0.11856 0.1235,0.17784 0.12844,0.05928 0.3952,0.11856 0.30628,0.07904 0.49894,0.15808 0.19266,0.0741 0.33592,0.247 0.1482,0.16796 0.15314,0.45448 0,0.24206 -0.13832,0.43472 -0.13338,0.18772 -0.39026,0.2964 -0.25194,0.10868 -0.58786,0.10868 z"
       id="path1605" />
    <path
       d="m 83.553068,38.98 -0.8398,-1.15596 V 38.98 h -0.84474 v -3.655601 h 0.84474 v 2.020461 l 0.83486,-1.12138 h 1.04234 l -1.14608,1.3832 1.15596,1.37332 z"
       id="path1607" />
    <path
       d="m 86.363928,39.01952 q -0.2223,0 -0.36556,-0.12844 -0.13832,-0.13338 -0.13832,-0.32604 0,-0.1976 0.13832,-0.33098 0.14326,-0.13338 0.36556,-0.13338 0.21736,0 0.35568,0.13338 0.14326,0.13338 0.14326,0.33098 0,0.19266 -0.14326,0.32604 -0.13832,0.12844 -0.35568,0.12844 z m 0,-2.01058 q -0.2223,0 -0.36556,-0.12844 -0.13832,-0.13338 -0.13832,-0.32604 0,-0.1976 0.13832,-0.33098 0.14326,-0.13338 0.36556,-0.13338 0.21736,0 0.35568,0.13338 0.14326,0.13338 0.14326,0.33098 0,0.19266 -0.14326,0.32604 -0.13832,0.12844 -0.35568,0.12844 z"
       id="path1609" />
    <path
       d="m 88.81417,39.01952 q -0.2223,0 -0.36556,-0.12844 -0.13832,-0.13338 -0.13832,-0.32604 0,-0.1976 0.13832,-0.33098 0.14326,-0.13338 0.36556,-0.13338 0.21736,0 0.35568,0.13338 0.14326,0.13338 0.14326,0.33098 0,0.19266 -0.14326,0.32604 -0.13832,0.12844 -0.35568,0.12844 z m 0,-2.01058 q -0.2223,0 -0.36556,-0.12844 -0.13832,-0.13338 -0.13832,-0.32604 0,-0.1976 0.13832,-0.33098 0.14326,-0.13338 0.36556,-0.13338 0.21736,0 0.35568,0.13338 0.14326,0.13338 0.14326,0.33098 0,0.19266 -0.14326,0.32604 -0.13832,0.12844 -0.35568,0.12844 z"
       id="path1611" />
    <path
       d="m 91.713951,36.6829 q 0.1482,-0.22724 0.3705,-0.35568 0.2223,-0.13338 0.494,-0.13338 v 0.89414 h -0.23218 q -0.31616,0 -0.47424,0.13832 -0.15808,0.13338 -0.15808,0.47424 V 38.98 h -0.84474 v -2.75652 h 0.84474 z"
       id="path1613" />
    <path
       d="M 96.940468,36.22348 96.194528,38.98 h -0.93366 l -0.43472,-1.78828 -0.44954,1.78828 h -0.92872 l -0.75088,-2.75652 h 0.84474 l 0.39026,1.97106 0.46436,-1.97106 h 0.89414 l 0.4693,1.96118 0.38532,-1.96118 z"
       id="path1615" />
    <path
       d="m 99.385764,36.89532 v 0.70148 h -2.1736 v -0.70148 z"
       id="path1617" />
  </g>
  <g
     aria-label="other : :  ---"
     id="text181"
     style="font-weight:bold;font-size:4.94px;line-height:1.25;font-family:Poppins;-inkscape-font-specification:'Poppins Bold';letter-spacing:0;stroke-width:0.26">
    <path
       d="m 71.961042,49.229519 q -0.40508,0 -0.73112,-0.1729 -0.3211,-0.1729 -0.50882,-0.494 -0.18278,-0.3211 -0.18278,-0.75088 0,-0.42484 0.18772,-0.74594 0.18772,-0.32604 0.51376,-0.49894 0.32604,-0.1729 0.73112,-0.1729 0.40508,0 0.73112,0.1729 0.32604,0.1729 0.51376,0.49894 0.18772,0.3211 0.18772,0.74594 0,0.42484 -0.19266,0.75088 -0.18772,0.3211 -0.5187,0.494 -0.32604,0.1729 -0.73112,0.1729 z m 0,-0.73112 q 0.24206,0 0.41002,-0.17784 0.1729,-0.17784 0.1729,-0.50882 0,-0.33098 -0.16796,-0.50882 -0.16302,-0.17784 -0.40508,-0.17784 -0.247,0 -0.41002,0.17784 -0.16302,0.1729 -0.16302,0.50882 0,0.33098 0.15808,0.50882 0.16302,0.17784 0.40508,0.17784 z"
       id="path1620" />
    <path
       d="m 75.389397,48.473699 v 0.7163 h -0.42978 q -0.45942,0 -0.7163,-0.2223 -0.25688,-0.22724 -0.25688,-0.73606 v -1.09668 h -0.33592 v -0.70148 h 0.33592 v -0.67184 h 0.84474 v 0.67184 h 0.55328 v 0.70148 h -0.55328 v 1.10656 q 0,0.1235 0.05928,0.17784 0.05928,0.05434 0.1976,0.05434 z"
       id="path1622" />
    <path
       d="m 77.553118,46.403839 q 0.47424,0 0.76076,0.31616 0.28652,0.31122 0.28652,0.85956 v 1.61044 h -0.8398 v -1.49682 q 0,-0.27664 -0.14326,-0.42978 -0.14326,-0.15314 -0.38532,-0.15314 -0.24206,0 -0.38532,0.15314 -0.14326,0.15314 -0.14326,0.42978 v 1.49682 h -0.84474 v -3.6556 h 0.84474 v 1.26958 q 0.12844,-0.18278 0.35074,-0.29146 0.2223,-0.10868 0.49894,-0.10868 z"
       id="path1624" />
    <path
       d="m 81.786697,47.767279 q 0,0.11856 -0.01482,0.247 h -1.91178 q 0.01976,0.25688 0.16302,0.3952 0.1482,0.13338 0.36062,0.13338 0.31616,0 0.43966,-0.26676 h 0.89908 q -0.06916,0.2717 -0.25194,0.48906 -0.17784,0.21736 -0.44954,0.34086 -0.2717,0.1235 -0.60762,0.1235 -0.40508,0 -0.72124,-0.1729 -0.31616,-0.1729 -0.494,-0.494 -0.17784,-0.3211 -0.17784,-0.75088 0,-0.42978 0.1729,-0.75088 0.17784,-0.3211 0.494,-0.494 0.31616,-0.1729 0.72618,-0.1729 0.40014,0 0.71136,0.16796 0.31122,0.16796 0.48412,0.47918 0.17784,0.31122 0.17784,0.72618 z m -0.8645,-0.2223 q 0,-0.21736 -0.1482,-0.3458 -0.1482,-0.12844 -0.3705,-0.12844 -0.21242,0 -0.36062,0.1235 -0.14326,0.1235 -0.17784,0.35074 z"
       id="path1626" />
    <path
       d="m 83.076034,46.892899 q 0.1482,-0.22724 0.3705,-0.35568 0.2223,-0.13338 0.494,-0.13338 v 0.89414 h -0.23218 q -0.31616,0 -0.47424,0.13832 -0.15808,0.13338 -0.15808,0.47424 v 1.27946 h -0.84474 v -2.75652 h 0.84474 z"
       id="path1628" />
    <path
       d="m 85.788091,49.229519 q -0.2223,0 -0.36556,-0.12844 -0.13832,-0.13338 -0.13832,-0.32604 0,-0.1976 0.13832,-0.33098 0.14326,-0.13338 0.36556,-0.13338 0.21736,0 0.35568,0.13338 0.14326,0.13338 0.14326,0.33098 0,0.19266 -0.14326,0.32604 -0.13832,0.12844 -0.35568,0.12844 z m 0,-2.01058 q -0.2223,0 -0.36556,-0.12844 -0.13832,-0.13338 -0.13832,-0.32604 0,-0.1976 0.13832,-0.33098 0.14326,-0.13338 0.36556,-0.13338 0.21736,0 0.35568,0.13338 0.14326,0.13338 0.14326,0.33098 0,0.19266 -0.14326,0.32604 -0.13832,0.12844 -0.35568,0.12844 z"
       id="path1630" />
    <path
       d="m 88.238332,49.229519 q -0.2223,0 -0.36556,-0.12844 -0.13832,-0.13338 -0.13832,-0.32604 0,-0.1976 0.13832,-0.33098 0.14326,-0.13338 0.36556,-0.13338 0.21736,0 0.35568,0.13338 0.14326,0.13338 0.14326,0.33098 0,0.19266 -0.14326,0.32604 -0.13832,0.12844 -0.35568,0.12844 z m 0,-2.01058 q -0.2223,0 -0.36556,-0.12844 -0.13832,-0.13338 -0.13832,-0.32604 0,-0.1976 0.13832,-0.33098 0.14326,-0.13338 0.36556,-0.13338 0.21736,0 0.35568,0.13338 0.14326,0.13338 0.14326,0.33098 0,0.19266 -0.14326,0.32604 -0.13832,0.12844 -0.35568,0.12844 z"
       id="path1632" />
    <path
       d="m 93.464852,47.105319 v 0.70148 h -2.1736 v -0.70148 z"
       id="path1634" />
    <path
       d="m 96.330052,47.105319 v 0.70148 h -2.1736 v -0.70148 z"
       id="path1636" />
    <path
       d="m 99.195252,47.105319 v 0.70148 h -2.1736 v -0.70148 z"
       id="path1638" />
  </g>
  <g
     aria-label="rw-"
     id="text185"
     style="font-weight:bold;font-size:4.94px;line-height:1.25;font-family:Poppins;-inkscape-font-specification:'Poppins Bold';letter-spacing:0;stroke-width:0.26">
    <path
       d="m 150.96102,5.6429 q 0.1482,-0.22724 0.3705,-0.35568 0.2223,-0.13338 0.494,-0.13338 v 0.89414 h -0.23218 q -0.31616,0 -0.47424,0.13832 -0.15808,0.13338 -0.15808,0.47424 v 1.2794601 h -0.84474 V 5.18348 h 0.84474 z"
       id="path1328" />
    <path
       d="m 156.18754,5.18348 -0.74594,2.7565201 h -0.93366 L 154.07322,6.15172 153.62368,7.9400001 h -0.92872 L 151.94408,5.18348 h 0.84474 l 0.39026,1.97106 0.46436,-1.97106 h 0.89414 l 0.4693,1.96118 0.38532,-1.96118 z"
       id="path1330" />
    <path
       d="M 158.63283,5.85532 V 6.5568 h -2.1736 V 5.85532 Z"
       id="path1332" />
  </g>
  <g
     aria-label="r--"
     id="text189"
     style="font-weight:bold;font-size:4.94px;line-height:1.25;font-family:Poppins;-inkscape-font-specification:'Poppins Bold';letter-spacing:0;stroke-width:0.26">
    <path
       d="m 150.96102,36.2729 q 0.1482,-0.22724 0.3705,-0.35568 0.2223,-0.13338 0.494,-0.13338 v 0.89414 h -0.23218 q -0.31616,0 -0.47424,0.13832 -0.15808,0.13338 -0.15808,0.47424 V 38.57 h -0.84474 v -2.75652 h 0.84474 z"
       id="path1335" />
    <path
       d="m 154.3548,36.48532 v 0.70148 h -2.1736 v -0.70148 z"
       id="path1337" />
    <path
       d="m 157.21999,36.48532 v 0.70148 h -2.1736 v -0.70148 z"
       id="path1339" />
  </g>
  <g
     aria-label="---"
     id="text193"
     style="font-weight:bold;font-size:4.94px;line-height:1.25;font-family:Poppins;-inkscape-font-specification:'Poppins Bold';letter-spacing:0;stroke-width:0.26">
    <path
       d="m 152.18048,47.085318 v 0.70148 h -2.1736 v -0.70148 z"
       id="path1342" />
    <path
       d="m 155.04568,47.085318 v 0.70148 h -2.1736 v -0.70148 z"
       id="path1344" />
    <path
       d="m 157.91088,47.085318 v 0.70148 h -2.1736 v -0.70148 z"
       id="path1346" />
  </g>
  <rect
     width="55.56"
     height="50.27"
     x="60.85"
     y="2.65"
     fill="none"
     stroke="#90ebcd"
     stroke-linecap="square"
     stroke-width=".64"
     opacity=".99"
     paint-order="stroke fill markers"
     id="rect195" />
  <rect
     width="15.88"
     height="7.94"
     x="145.52"
     y="2.65"
     fill="none"
     stroke="#90ebcd"
     stroke-linecap="square"
     stroke-width=".64"
     opacity=".99"
     paint-order="stroke fill markers"
     id="rect197" />
  <rect
     width="15.88"
     height="7.94"
     x="145.52"
     y="32.81"
     fill="none"
     stroke="#90ebcd"
     stroke-linecap="square"
     stroke-width=".64"
     opacity=".99"
     paint-order="stroke fill markers"
     id="rect199" />
  <rect
     width="15.88"
     height="7.94"
     x="145.52"
     y="43.39"
     fill="none"
     stroke="#90ebcd"
     stroke-linecap="square"
     stroke-width=".64"
     opacity=".99"
     paint-order="stroke fill markers"
     id="rect201" />
  <g
     transform="translate(99.22 -19.06)"
     id="g209">
    <path
       fill="none"
       stroke="#0c322c"
       stroke-linecap="square"
       stroke-width=".66"
       marker-end="url(#a)"
       marker-start="url(#b)"
       d="M20.9 25.94h22.23"
       id="path203" />
    <path
       fill="none"
       stroke="#0c322c"
       stroke-linecap="square"
       stroke-width=".66"
       marker-end="url(#c)"
       marker-start="url(#d)"
       d="M20.9 56.1h22.23"
       id="path205" />
    <path
       fill="none"
       stroke="#0c322c"
       stroke-linecap="square"
       stroke-width=".66"
       marker-end="url(#c)"
       marker-start="url(#e)"
       d="M20.9 66.15h22.23"
       id="path207" />
  </g>
</svg>
