<?xml version="1.0" encoding="UTF-8" standalone="no"?>
<svg
   width="950"
   height="680"
   viewBox="0 0 251.35 179.92"
   version="1.1"
   id="svg2664"
   sodipodi:docname="audit_components.svg"
   inkscape:version="1.2.2 (732a01da63, 2022-12-09)"
   xmlns:inkscape="http://www.inkscape.org/namespaces/inkscape"
   xmlns:sodipodi="http://sodipodi.sourceforge.net/DTD/sodipodi-0.dtd"
   xmlns="http://www.w3.org/2000/svg"
   xmlns:svg="http://www.w3.org/2000/svg">
  <sodipodi:namedview
     id="namedview2787"
     pagecolor="#ffffff"
     bordercolor="#000000"
     borderopacity="0.25"
     inkscape:showpageshadow="2"
     inkscape:pageopacity="0.0"
     inkscape:pagecheckerboard="0"
     inkscape:deskcolor="#d1d1d1"
     showgrid="false"
     inkscape:zoom="1.1852941"
     inkscape:cx="475.40943"
     inkscape:cy="340"
     inkscape:window-width="1920"
     inkscape:window-height="1009"
     inkscape:window-x="-8"
     inkscape:window-y="-8"
     inkscape:window-maximized="1"
     inkscape:current-layer="svg2664" />
  <defs
     id="defs2658">
    <marker
       id="DotL"
       refX="0"
       refY="0"
       orient="auto"
       overflow="visible">
      <path
         d="M3.92 0a4 4 0 1 1-8 0 4 4 0 0 1 8 0z"
         id="path965"
         fill-rule="evenodd"
         stroke="#0c322c"
         stroke-width=".8pt"
         stroke-opacity="1"
         fill="#0c322c"
         fill-opacity="1" />
    </marker>
    <marker
       markerWidth="7.12"
       markerHeight="11.41"
       refX="3.56"
       refY="5.71"
       orient="auto"
       id="marker840">
      <path
         d="m.7.7 5 5-5 5"
         id="path838"
         fill="none"
         stroke="#0c322c"
         stroke-width="2"
         stroke-linecap="butt"
         stroke-linejoin="miter"
         stroke-miterlimit="4"
         stroke-dasharray="none"
         stroke-opacity="1" />
    </marker>
    <marker
       markerWidth="3.06"
       markerHeight="4.71"
       refX="1.53"
       refY="2.35"
       orient="auto"
       id="marker868">
      <path
         d="m2.7.35-2 2 2 2"
         id="path851-3"
         fill="none"
         stroke="#000"
         stroke-width="1"
         stroke-linecap="butt"
         stroke-linejoin="miter"
         stroke-opacity="1" />
    </marker>
    <marker
       markerWidth="3.06"
       markerHeight="4.71"
       refX="1.53"
       refY="2.35"
       orient="auto"
       id="marker883">
      <path
         d="m.35.35 2 2-2 2"
         id="path851"
         fill="none"
         stroke="#000"
         stroke-width="1"
         stroke-linecap="butt"
         stroke-linejoin="miter"
         stroke-opacity="1" />
    </marker>
    <marker
       markerWidth="3.06"
       markerHeight="4.71"
       refX="1.53"
       refY="2.35"
       orient="auto"
       id="marker8684506">
      <path
         d="m2.7.35-2 2 2 2"
         id="path1208"
         fill="#0c322c"
         stroke="#000"
         stroke-width="1"
         stroke-linecap="butt"
         stroke-linejoin="miter"
         stroke-opacity="1" />
    </marker>
    <marker
       markerWidth="3.06"
       markerHeight="4.71"
       refX="1.53"
       refY="2.35"
       orient="auto"
       id="marker8839976">
      <path
         d="m.35.35 2 2-2 2"
         id="path1211"
         fill="#0c322c"
         stroke="#000"
         stroke-width="1"
         stroke-linecap="butt"
         stroke-linejoin="miter"
         stroke-opacity="1" />
    </marker>
    <marker
       markerWidth="3.06"
       markerHeight="4.71"
       refX="1.53"
       refY="2.35"
       orient="auto"
       id="marker86845062245">
      <path
         d="m2.7.35-2 2 2 2"
         id="path1299"
         fill="#fff"
         stroke="#000"
         stroke-width="1"
         stroke-linecap="butt"
         stroke-linejoin="miter"
         stroke-opacity="1" />
    </marker>
    <marker
       markerWidth="3.06"
       markerHeight="4.71"
       refX="1.53"
       refY="2.35"
       orient="auto"
       id="marker88399767239">
      <path
         d="m.35.35 2 2-2 2"
         id="path1302"
         fill="#fff"
         stroke="#000"
         stroke-width="1"
         stroke-linecap="butt"
         stroke-linejoin="miter"
         stroke-opacity="1" />
    </marker>
    <marker
       markerWidth="3.06"
       markerHeight="4.71"
       refX="1.53"
       refY="2.35"
       orient="auto"
       id="marker868450622454738">
      <path
         d="m2.7.35-2 2 2 2"
         id="path1414"
         fill="#fff"
         stroke="#0c322c"
         stroke-width="1"
         stroke-linecap="butt"
         stroke-linejoin="miter"
         stroke-opacity="1" />
    </marker>
    <marker
       markerWidth="3.06"
       markerHeight="4.71"
       refX="1.53"
       refY="2.35"
       orient="auto"
       id="marker883997672393450">
      <path
         d="m.35.35 2 2-2 2"
         id="path1417"
         fill="#fff"
         stroke="#0c322c"
         stroke-width="1"
         stroke-linecap="butt"
         stroke-linejoin="miter"
         stroke-opacity="1" />
    </marker>
    <marker
       markerWidth="3.06"
       markerHeight="4.71"
       refX="1.53"
       refY="2.35"
       orient="auto"
       id="marker8684112">
      <path
         d="m2.7.35-2 2 2 2"
         id="path2096"
         fill="#fff"
         stroke="#0c322c"
         stroke-width="1"
         stroke-linecap="butt"
         stroke-linejoin="miter"
         stroke-opacity="1"
         fill-opacity="0" />
    </marker>
    <marker
       markerWidth="3.06"
       markerHeight="4.71"
       refX="1.53"
       refY="2.35"
       orient="auto"
       id="marker8834579">
      <path
         d="m.35.35 2 2-2 2"
         id="path2099"
         fill="#fff"
         stroke="#0c322c"
         stroke-width="1"
         stroke-linecap="butt"
         stroke-linejoin="miter"
         stroke-opacity="1"
         fill-opacity="0" />
    </marker>
    <marker
       markerWidth="3.06"
       markerHeight="4.71"
       refX="1.53"
       refY="2.35"
       orient="auto"
       id="marker8836481">
      <path
         d="m.35.35 2 2-2 2"
         id="path2261"
         fill="#fff"
         stroke="#0c322c"
         stroke-width="1"
         stroke-linecap="butt"
         stroke-linejoin="miter"
         stroke-opacity="1"
         fill-opacity="0" />
    </marker>
    <marker
       markerWidth="3.06"
       markerHeight="4.71"
       refX="1.53"
       refY="2.35"
       orient="auto"
       id="marker8836481-7">
      <path
         d="m.35.35 2 2-2 2"
         id="path2261-5"
         fill="#fff"
         fill-opacity="0"
         stroke="#0c322c"
         stroke-width="1"
         stroke-linecap="butt"
         stroke-linejoin="miter"
         stroke-opacity="1" />
    </marker>
  </defs>
  <g
     id="layer1">
    <rect
       id="rect3383"
       width="108.79"
       height="43.68"
       x="25.56"
       y="130.4"
       rx="0"
       ry="0"
       opacity=".97"
       fill="#c0c2c4"
       stroke-width=".56"
       stroke-linecap="square"
       stroke-dasharray="2.2225, 0.555625"
       paint-order="stroke fill markers"
       stop-color="#000" />
    <rect
       id="rect3251"
       width="38.09"
       height="13.27"
       x="92.07"
       y="74.54"
       rx="2.21"
       ry="2.26"
       opacity=".97"
       fill="#30ba78"
       stroke-width=".56"
       stroke-linecap="square"
       stroke-dasharray="2.2225, 0.555625"
       paint-order="stroke fill markers"
       stop-color="#000" />
    <g
       aria-label="auditd"
       id="text3255"
       style="font-weight:500;font-size:4.23px;line-height:1.25;font-family:Poppins;-inkscape-font-specification:'Poppins, Medium';letter-spacing:0;stroke-width:0.26">
      <path
         d="m 104.35189,81.612519 q 0,-0.35532 0.14382,-0.62181 0.14382,-0.27072 0.39339,-0.41877 0.2538,-0.14805 0.56259,-0.14805 0.30456,0 0.52875,0.13113 0.22419,0.13113 0.33417,0.32994 v -0.423 h 0.38916 v 2.31804 h -0.38916 v -0.43146 q -0.11421,0.20304 -0.34263,0.3384 -0.22419,0.13113 -0.52452,0.13113 -0.30879,0 -0.55836,-0.15228 -0.24957,-0.15228 -0.39339,-0.42723 -0.14382,-0.27495 -0.14382,-0.62604 z m 1.96272,0.0042 q 0,-0.26226 -0.10575,-0.45684 -0.10575,-0.19458 -0.28764,-0.2961 -0.17766,-0.10575 -0.39339,-0.10575 -0.21573,0 -0.39339,0.10152 -0.17766,0.10152 -0.28341,0.2961 -0.10575,0.19458 -0.10575,0.45684 0,0.26649 0.10575,0.4653 0.10575,0.19458 0.28341,0.30033 0.17766,0.10152 0.39339,0.10152 0.21573,0 0.39339,-0.10152 0.18189,-0.10575 0.28764,-0.30033 0.10575,-0.19881 0.10575,-0.46107 z"
         id="path3503" />
      <path
         d="m 109.41097,80.461959 v 2.31804 h -0.38493 v -0.34263 q -0.10998,0.17766 -0.30879,0.27918 -0.19458,0.09729 -0.43146,0.09729 -0.27072,0 -0.48645,-0.10998 -0.21573,-0.11421 -0.34263,-0.3384 -0.12267,-0.22419 -0.12267,-0.54567 v -1.35783 h 0.3807 v 1.30707 q 0,0.34263 0.17343,0.52875 0.17343,0.18189 0.47376,0.18189 0.30879,0 0.48645,-0.19035 0.17766,-0.19035 0.17766,-0.55413 v -1.27323 z"
         id="path3505" />
      <path
         d="m 109.91857,81.612519 q 0,-0.35532 0.14382,-0.62181 0.14382,-0.27072 0.39339,-0.41877 0.2538,-0.14805 0.56682,-0.14805 0.27072,0 0.50337,0.1269 0.23265,0.12267 0.35532,0.32571 v -1.2267 h 0.38916 v 3.1302 h -0.38916 v -0.43569 q -0.11421,0.20727 -0.3384,0.34263 -0.22419,0.13113 -0.52452,0.13113 -0.30879,0 -0.56259,-0.15228 -0.24957,-0.15228 -0.39339,-0.42723 -0.14382,-0.27495 -0.14382,-0.62604 z m 1.96272,0.0042 q 0,-0.26226 -0.10575,-0.45684 -0.10575,-0.19458 -0.28764,-0.2961 -0.17766,-0.10575 -0.39339,-0.10575 -0.21573,0 -0.39339,0.10152 -0.17766,0.10152 -0.28341,0.2961 -0.10575,0.19458 -0.10575,0.45684 0,0.26649 0.10575,0.4653 0.10575,0.19458 0.28341,0.30033 0.17766,0.10152 0.39339,0.10152 0.21573,0 0.39339,-0.10152 0.18189,-0.10575 0.28764,-0.30033 0.10575,-0.19881 0.10575,-0.46107 z"
         id="path3507" />
      <path
         d="m 113.12068,80.085489 q -0.10998,0 -0.18612,-0.07614 -0.0761,-0.07614 -0.0761,-0.18612 0,-0.10998 0.0761,-0.18612 0.0761,-0.07614 0.18612,-0.07614 0.10575,0 0.17766,0.07614 0.0761,0.07614 0.0761,0.18612 0,0.10998 -0.0761,0.18612 -0.0719,0.07614 -0.17766,0.07614 z m 0.18612,0.37647 v 2.31804 h -0.38493 v -2.31804 z"
         id="path3509" />
      <path
         d="m 114.43198,80.779209 v 1.36629 q 0,0.1692 0.0719,0.24111 0.0719,0.06768 0.24957,0.06768 h 0.28341 v 0.32571 h -0.34686 q -0.32148,0 -0.48222,-0.14805 -0.16074,-0.14805 -0.16074,-0.48645 v -1.36629 h -0.30033 v -0.31725 h 0.30033 v -0.58374 h 0.38493 v 0.58374 h 0.60489 v 0.31725 z"
         id="path3511" />
      <path
         d="m 115.35835,81.612519 q 0,-0.35532 0.14382,-0.62181 0.14382,-0.27072 0.39339,-0.41877 0.2538,-0.14805 0.56682,-0.14805 0.27072,0 0.50337,0.1269 0.23265,0.12267 0.35532,0.32571 v -1.2267 h 0.38916 v 3.1302 h -0.38916 v -0.43569 q -0.11421,0.20727 -0.3384,0.34263 -0.22419,0.13113 -0.52452,0.13113 -0.30879,0 -0.56259,-0.15228 -0.24957,-0.15228 -0.39339,-0.42723 -0.14382,-0.27495 -0.14382,-0.62604 z m 1.96272,0.0042 q 0,-0.26226 -0.10575,-0.45684 -0.10575,-0.19458 -0.28764,-0.2961 -0.17766,-0.10575 -0.39339,-0.10575 -0.21573,0 -0.39339,0.10152 -0.17766,0.10152 -0.28341,0.2961 -0.10575,0.19458 -0.10575,0.45684 0,0.26649 0.10575,0.4653 0.10575,0.19458 0.28341,0.30033 0.17766,0.10152 0.39339,0.10152 0.21573,0 0.39339,-0.10152 0.18189,-0.10575 0.28764,-0.30033 0.10575,-0.19881 0.10575,-0.46107 z"
         id="path3513" />
    </g>
    <rect
       id="rect3257"
       width="37.88"
       height="15.51"
       x="17.7"
       y="4.71"
       rx="0"
       ry="0"
       opacity=".97"
       fill="#0c322c"
       stroke-width=".56"
       stroke-linecap="square"
       stroke-dasharray="2.2225, 0.555625"
       paint-order="stroke fill markers"
       stop-color="#000" />
    <g
       aria-label="audit.rules"
       id="text3264"
       style="font-weight:500;font-size:4.23px;line-height:1.25;font-family:Poppins;-inkscape-font-specification:'Poppins, Medium';letter-spacing:0;stroke-width:0.26">
      <path
         d="m 25.561889,12.90252 q 0,-0.35532 0.14382,-0.62181 0.14382,-0.27072 0.39339,-0.41877 0.2538,-0.14805 0.56259,-0.14805 0.30456,0 0.52875,0.13113 0.22419,0.13113 0.33417,0.32994 v -0.423 h 0.38916 V 14.07 h -0.38916 v -0.43146 q -0.11421,0.20304 -0.34263,0.3384 -0.22419,0.13113 -0.52452,0.13113 -0.30879,0 -0.55836,-0.15228 -0.24957,-0.15228 -0.39339,-0.42723 -0.14382,-0.27495 -0.14382,-0.62604 z m 1.96272,0.0042 q 0,-0.26226 -0.10575,-0.45684 -0.10575,-0.19458 -0.28764,-0.2961 -0.17766,-0.10575 -0.39339,-0.10575 -0.21573,0 -0.39339,0.10152 -0.17766,0.10152 -0.28341,0.2961 -0.10575,0.19458 -0.10575,0.45684 0,0.26649 0.10575,0.4653 0.10575,0.19458 0.28341,0.30033 0.17766,0.10152 0.39339,0.10152 0.21573,0 0.39339,-0.10152 0.18189,-0.10575 0.28764,-0.30033 0.10575,-0.19881 0.10575,-0.46107 z"
         style="fill:#ffffff"
         id="path3338" />
      <path
         d="M 30.620972,11.75196 V 14.07 h -0.38493 v -0.34263 q -0.10998,0.17766 -0.30879,0.27918 -0.19458,0.09729 -0.43146,0.09729 -0.27072,0 -0.48645,-0.10998 -0.21573,-0.11421 -0.34263,-0.3384 -0.12267,-0.22419 -0.12267,-0.54567 v -1.35783 h 0.3807 v 1.30707 q 0,0.34263 0.17343,0.52875 0.17343,0.18189 0.47376,0.18189 0.30879,0 0.48645,-0.19035 0.17766,-0.19035 0.17766,-0.55413 v -1.27323 z"
         style="fill:#ffffff"
         id="path3340" />
      <path
         d="m 31.128569,12.90252 q 0,-0.35532 0.14382,-0.62181 0.14382,-0.27072 0.39339,-0.41877 0.2538,-0.14805 0.56682,-0.14805 0.27072,0 0.50337,0.1269 0.23265,0.12267 0.35532,0.32571 v -1.2267 h 0.38916 V 14.07 h -0.38916 v -0.43569 q -0.11421,0.20727 -0.3384,0.34263 -0.22419,0.13113 -0.52452,0.13113 -0.30879,0 -0.56259,-0.15228 -0.24957,-0.15228 -0.39339,-0.42723 -0.14382,-0.27495 -0.14382,-0.62604 z m 1.96272,0.0042 q 0,-0.26226 -0.10575,-0.45684 -0.10575,-0.19458 -0.28764,-0.2961 -0.17766,-0.10575 -0.39339,-0.10575 -0.21573,0 -0.39339,0.10152 -0.17766,0.10152 -0.28341,0.2961 -0.10575,0.19458 -0.10575,0.45684 0,0.26649 0.10575,0.4653 0.10575,0.19458 0.28341,0.30033 0.17766,0.10152 0.39339,0.10152 0.21573,0 0.39339,-0.10152 0.18189,-0.10575 0.28764,-0.30033 0.10575,-0.19881 0.10575,-0.46107 z"
         style="fill:#ffffff"
         id="path3342" />
      <path
         d="m 34.330682,11.37549 q -0.10998,0 -0.18612,-0.07614 -0.07614,-0.07614 -0.07614,-0.18612 0,-0.10998 0.07614,-0.18612 0.07614,-0.07614 0.18612,-0.07614 0.10575,0 0.17766,0.07614 0.07614,0.07614 0.07614,0.18612 0,0.10998 -0.07614,0.18612 -0.07191,0.07614 -0.17766,0.07614 z m 0.18612,0.37647 V 14.07 h -0.38493 v -2.31804 z"
         style="fill:#ffffff"
         id="path3344" />
      <path
         d="m 35.641983,12.06921 v 1.36629 q 0,0.1692 0.07191,0.24111 0.07191,0.06768 0.24957,0.06768 h 0.28341 V 14.07 h -0.34686 q -0.32148,0 -0.48222,-0.14805 -0.16074,-0.14805 -0.16074,-0.48645 v -1.36629 h -0.30033 v -0.31725 h 0.30033 v -0.58374 h 0.38493 v 0.58374 h 0.60489 v 0.31725 z"
         style="fill:#ffffff"
         id="path3346" />
      <path
         d="m 36.834844,14.09538 q -0.10998,0 -0.18612,-0.07614 -0.07614,-0.07614 -0.07614,-0.18612 0,-0.10998 0.07614,-0.18612 0.07614,-0.07614 0.18612,-0.07614 0.10575,0 0.17766,0.07614 0.07614,0.07614 0.07614,0.18612 0,0.10998 -0.07614,0.18612 -0.07191,0.07614 -0.17766,0.07614 z"
         style="fill:#ffffff"
         id="path3348" />
      <path
         d="m 37.9854,12.12843 q 0.10152,-0.19881 0.28764,-0.30879 0.19035,-0.10998 0.46107,-0.10998 v 0.39762 h -0.10152 q -0.64719,0 -0.64719,0.70218 V 14.07 h -0.38493 v -2.31804 h 0.38493 z"
         style="fill:#ffffff"
         id="path3350" />
      <path
         d="M 41.234037,11.75196 V 14.07 h -0.38493 v -0.34263 q -0.10998,0.17766 -0.30879,0.27918 -0.19458,0.09729 -0.43146,0.09729 -0.27072,0 -0.48645,-0.10998 -0.21573,-0.11421 -0.34263,-0.3384 -0.12267,-0.22419 -0.12267,-0.54567 v -1.35783 h 0.3807 v 1.30707 q 0,0.34263 0.17343,0.52875 0.17343,0.18189 0.47376,0.18189 0.30879,0 0.48645,-0.19035 0.17766,-0.19035 0.17766,-0.55413 v -1.27323 z"
         style="fill:#ffffff"
         id="path3352" />
      <path
         d="M 42.270384,10.9398 V 14.07 h -0.38493 v -3.1302 z"
         style="fill:#ffffff"
         id="path3354" />
      <path
         d="m 45.041035,12.82215 q 0,0.10998 -0.01269,0.23265 h -1.85274 q 0.02115,0.34263 0.23265,0.53721 0.21573,0.19035 0.52029,0.19035 0.24957,0 0.41454,-0.11421 0.1692,-0.11844 0.23688,-0.31302 h 0.41454 q -0.09306,0.33417 -0.37224,0.54567 -0.27918,0.20727 -0.69372,0.20727 -0.32994,0 -0.5922,-0.14805 -0.25803,-0.14805 -0.40608,-0.41877 -0.14805,-0.27495 -0.14805,-0.6345 0,-0.35955 0.14382,-0.63027 0.14382,-0.27072 0.40185,-0.41454 0.26226,-0.14805 0.60066,-0.14805 0.32994,0 0.58374,0.14382 0.2538,0.14382 0.38916,0.39762 0.13959,0.24957 0.13959,0.56682 z m -0.39762,-0.08037 q 0,-0.21996 -0.09729,-0.37647 -0.09729,-0.16074 -0.26649,-0.24111 -0.16497,-0.0846 -0.36801,-0.0846 -0.29187,0 -0.49914,0.18612 -0.20304,0.18612 -0.23265,0.51606 z"
         style="fill:#ffffff"
         id="path3356" />
      <path
         d="m 46.369259,14.10807 q -0.26649,0 -0.47799,-0.08883 -0.2115,-0.09306 -0.33417,-0.2538 -0.12267,-0.16497 -0.13536,-0.37647 h 0.39762 q 0.01692,0.17343 0.16074,0.28341 0.14805,0.10998 0.38493,0.10998 0.21996,0 0.34686,-0.09729 0.1269,-0.09729 0.1269,-0.24534 0,-0.15228 -0.13536,-0.22419 -0.13536,-0.07614 -0.41877,-0.14805 -0.25803,-0.06768 -0.423,-0.13536 -0.16074,-0.07191 -0.27918,-0.20727 -0.11421,-0.13959 -0.11421,-0.36378 0,-0.17766 0.10575,-0.32571 0.10575,-0.14805 0.30033,-0.23265 0.19458,-0.08883 0.44415,-0.08883 0.38493,0 0.62181,0.19458 0.23688,0.19458 0.2538,0.53298 h -0.38493 q -0.01269,-0.18189 -0.14805,-0.29187 -0.13113,-0.10998 -0.35532,-0.10998 -0.20727,0 -0.32994,0.08883 -0.12267,0.08883 -0.12267,0.23265 0,0.11421 0.07191,0.19035 0.07614,0.07191 0.18612,0.11844 0.11421,0.0423 0.31302,0.09729 0.24957,0.06768 0.40608,0.13536 0.15651,0.06345 0.26649,0.19458 0.11421,0.13113 0.11844,0.34263 0,0.19035 -0.10575,0.34263 -0.10575,0.15228 -0.30033,0.24111 -0.19035,0.0846 -0.43992,0.0846 z"
         style="fill:#ffffff"
         id="path3358" />
    </g>
    <rect
       id="rect3257-2"
       width="37.88"
       height="15.51"
       x="92.18"
       y="4.71"
       rx="0"
       ry="0"
       opacity=".97"
       fill="#0c322c"
       stroke-width=".56"
       stroke-linecap="square"
       stroke-dasharray="2.2225, 0.555625"
       paint-order="stroke fill markers"
       stop-color="#000" />
    <g
       aria-label="auditd.conf"
       id="text3264-8"
       style="font-weight:500;font-size:4.23px;line-height:1.25;font-family:Poppins;-inkscape-font-specification:'Poppins, Medium';letter-spacing:0;stroke-width:0.26">
      <path
         d="m 99.041891,12.91252 q 0,-0.35532 0.14382,-0.62181 0.14382,-0.27072 0.39339,-0.41877 0.2538,-0.14805 0.562589,-0.14805 0.30456,0 0.52875,0.13113 0.22419,0.13113 0.33417,0.32994 v -0.423 h 0.38916 V 14.08 h -0.38916 v -0.43146 q -0.11421,0.20304 -0.34263,0.3384 -0.22419,0.13113 -0.52452,0.13113 -0.308789,0 -0.558359,-0.15228 -0.24957,-0.15228 -0.39339,-0.42723 -0.14382,-0.27495 -0.14382,-0.62604 z m 1.962719,0.0042 q 0,-0.26226 -0.10575,-0.45684 -0.10575,-0.19458 -0.28764,-0.2961 -0.17766,-0.10575 -0.39339,-0.10575 -0.21573,0 -0.393389,0.10152 -0.17766,0.10152 -0.28341,0.2961 -0.10575,0.19458 -0.10575,0.45684 0,0.26649 0.10575,0.4653 0.10575,0.19458 0.28341,0.30033 0.177659,0.10152 0.393389,0.10152 0.21573,0 0.39339,-0.10152 0.18189,-0.10575 0.28764,-0.30033 0.10575,-0.19881 0.10575,-0.46107 z"
         style="fill:#ffffff"
         id="path3361" />
      <path
         d="M 104.10097,11.76196 V 14.08 h -0.38493 v -0.34263 q -0.10998,0.17766 -0.30879,0.27918 -0.19458,0.09729 -0.43146,0.09729 -0.27072,0 -0.48645,-0.10998 -0.21573,-0.11421 -0.34263,-0.3384 -0.12267,-0.22419 -0.12267,-0.54567 v -1.35783 h 0.3807 v 1.30707 q 0,0.34263 0.17343,0.52875 0.17343,0.18189 0.47376,0.18189 0.30879,0 0.48645,-0.19035 0.17766,-0.19035 0.17766,-0.55413 v -1.27323 z"
         style="fill:#ffffff"
         id="path3363" />
      <path
         d="m 104.60857,12.91252 q 0,-0.35532 0.14382,-0.62181 0.14382,-0.27072 0.39339,-0.41877 0.2538,-0.14805 0.56682,-0.14805 0.27072,0 0.50337,0.1269 0.23265,0.12267 0.35532,0.32571 v -1.2267 h 0.38916 V 14.08 h -0.38916 v -0.43569 q -0.11421,0.20727 -0.3384,0.34263 -0.22419,0.13113 -0.52452,0.13113 -0.30879,0 -0.56259,-0.15228 -0.24957,-0.15228 -0.39339,-0.42723 -0.14382,-0.27495 -0.14382,-0.62604 z m 1.96272,0.0042 q 0,-0.26226 -0.10575,-0.45684 -0.10575,-0.19458 -0.28764,-0.2961 -0.17766,-0.10575 -0.39339,-0.10575 -0.21573,0 -0.39339,0.10152 -0.17766,0.10152 -0.28341,0.2961 -0.10575,0.19458 -0.10575,0.45684 0,0.26649 0.10575,0.4653 0.10575,0.19458 0.28341,0.30033 0.17766,0.10152 0.39339,0.10152 0.21573,0 0.39339,-0.10152 0.18189,-0.10575 0.28764,-0.30033 0.10575,-0.19881 0.10575,-0.46107 z"
         style="fill:#ffffff"
         id="path3365" />
      <path
         d="m 107.81068,11.38549 q -0.10998,0 -0.18612,-0.07614 -0.0761,-0.07614 -0.0761,-0.18612 0,-0.10998 0.0761,-0.18612 0.0761,-0.07614 0.18612,-0.07614 0.10575,0 0.17766,0.07614 0.0761,0.07614 0.0761,0.18612 0,0.10998 -0.0761,0.18612 -0.0719,0.07614 -0.17766,0.07614 z m 0.18612,0.37647 V 14.08 h -0.38493 v -2.31804 z"
         style="fill:#ffffff"
         id="path3367" />
      <path
         d="m 109.12198,12.07921 v 1.36629 q 0,0.1692 0.0719,0.24111 0.0719,0.06768 0.24957,0.06768 h 0.28341 V 14.08 h -0.34686 q -0.32148,0 -0.48222,-0.14805 -0.16074,-0.14805 -0.16074,-0.48645 v -1.36629 h -0.30033 v -0.31725 h 0.30033 v -0.58374 h 0.38493 v 0.58374 h 0.60489 v 0.31725 z"
         style="fill:#ffffff"
         id="path3369" />
      <path
         d="m 110.04836,12.91252 q 0,-0.35532 0.14382,-0.62181 0.14382,-0.27072 0.39339,-0.41877 0.2538,-0.14805 0.56682,-0.14805 0.27072,0 0.50337,0.1269 0.23265,0.12267 0.35532,0.32571 v -1.2267 h 0.38916 V 14.08 h -0.38916 v -0.43569 q -0.11421,0.20727 -0.3384,0.34263 -0.22419,0.13113 -0.52452,0.13113 -0.30879,0 -0.56259,-0.15228 -0.24957,-0.15228 -0.39339,-0.42723 -0.14382,-0.27495 -0.14382,-0.62604 z m 1.96272,0.0042 q 0,-0.26226 -0.10575,-0.45684 -0.10575,-0.19458 -0.28764,-0.2961 -0.17766,-0.10575 -0.39339,-0.10575 -0.21573,0 -0.39339,0.10152 -0.17766,0.10152 -0.28341,0.2961 -0.10575,0.19458 -0.10575,0.45684 0,0.26649 0.10575,0.4653 0.10575,0.19458 0.28341,0.30033 0.17766,0.10152 0.39339,0.10152 0.21573,0 0.39339,-0.10152 0.18189,-0.10575 0.28764,-0.30033 0.10575,-0.19881 0.10575,-0.46107 z"
         style="fill:#ffffff"
         id="path3371" />
      <path
         d="m 113.17433,14.10538 q -0.10998,0 -0.18612,-0.07614 -0.0761,-0.07614 -0.0761,-0.18612 0,-0.10998 0.0761,-0.18612 0.0761,-0.07614 0.18612,-0.07614 0.10575,0 0.17766,0.07614 0.0761,0.07614 0.0761,0.18612 0,0.10998 -0.0761,0.18612 -0.0719,0.07614 -0.17766,0.07614 z"
         style="fill:#ffffff"
         id="path3373" />
      <path
         d="m 113.79613,12.91675 q 0,-0.35955 0.14382,-0.62604 0.14382,-0.27072 0.39762,-0.41877 0.25803,-0.14805 0.58797,-0.14805 0.42723,0 0.70218,0.20727 0.27918,0.20727 0.36801,0.57528 h -0.41454 q -0.0592,-0.2115 -0.23265,-0.33417 -0.1692,-0.12267 -0.423,-0.12267 -0.32994,0 -0.53298,0.22842 -0.20304,0.22419 -0.20304,0.63873 0,0.41877 0.20304,0.64719 0.20304,0.22842 0.53298,0.22842 0.2538,0 0.423,-0.11844 0.1692,-0.11844 0.23265,-0.3384 h 0.41454 q -0.0931,0.35532 -0.37224,0.57105 -0.27918,0.2115 -0.69795,0.2115 -0.32994,0 -0.58797,-0.14805 -0.2538,-0.14805 -0.39762,-0.41877 -0.14382,-0.27072 -0.14382,-0.6345 z"
         style="fill:#ffffff"
         id="path3375" />
      <path
         d="m 117.51854,14.11807 q -0.32571,0 -0.5922,-0.14805 -0.26226,-0.14805 -0.41454,-0.41877 -0.14805,-0.27495 -0.14805,-0.6345 0,-0.35532 0.15228,-0.62604 0.15651,-0.27495 0.423,-0.41877 0.26649,-0.14805 0.59643,-0.14805 0.32994,0 0.59643,0.14805 0.26649,0.14382 0.41877,0.41454 0.15651,0.27072 0.15651,0.63027 0,0.35955 -0.16074,0.6345 -0.15651,0.27072 -0.42723,0.41877 -0.27072,0.14805 -0.60066,0.14805 z m 0,-0.3384 q 0.20727,0 0.38916,-0.09729 0.18189,-0.09729 0.29187,-0.29187 0.11421,-0.19458 0.11421,-0.47376 0,-0.27918 -0.10998,-0.47376 -0.10998,-0.19458 -0.28764,-0.28764 -0.17766,-0.09729 -0.38493,-0.09729 -0.2115,0 -0.38916,0.09729 -0.17343,0.09306 -0.27918,0.28764 -0.10575,0.19458 -0.10575,0.47376 0,0.28341 0.10152,0.47799 0.10575,0.19458 0.27918,0.29187 0.17343,0.09306 0.3807,0.09306 z"
         style="fill:#ffffff"
         id="path3377" />
      <path
         d="m 120.34417,11.71966 q 0.423,0 0.68526,0.25803 0.26226,0.2538 0.26226,0.73602 V 14.08 h -0.3807 v -1.3113 q 0,-0.34686 -0.17343,-0.52875 -0.17343,-0.18612 -0.47376,-0.18612 -0.30456,0 -0.48645,0.19035 -0.17766,0.19035 -0.17766,0.55413 V 14.08 h -0.38493 v -2.31804 h 0.38493 v 0.32994 q 0.11421,-0.17766 0.30879,-0.27495 0.19881,-0.09729 0.43569,-0.09729 z"
         style="fill:#ffffff"
         id="path3379" />
      <path
         d="M 122.86525,12.07921 H 122.3788 V 14.08 h -0.38493 v -2.00079 h -0.30033 v -0.31725 h 0.30033 v -0.16497 q 0,-0.38916 0.19881,-0.56682 0.20304,-0.18189 0.64719,-0.18189 v 0.32148 q -0.2538,0 -0.35955,0.10152 -0.10152,0.09729 -0.10152,0.32571 v 0.16497 h 0.48645 z"
         style="fill:#ffffff"
         id="path3381" />
    </g>
    <rect
       id="rect3257-9"
       width="37.88"
       height="15.51"
       x="159.32"
       y="73.41"
       rx="0"
       ry="0"
       opacity=".97"
       fill="#0c322c"
       stroke-width=".56"
       stroke-linecap="square"
       stroke-dasharray="2.2225, 0.555625"
       paint-order="stroke fill markers"
       stop-color="#000" />
    <g
       aria-label="audit.log"
       id="text3264-9"
       style="font-weight:500;font-size:4.23px;line-height:1.25;font-family:Poppins;-inkscape-font-specification:'Poppins, Medium';letter-spacing:0;stroke-width:0.26">
      <path
         d="m 169.08188,81.052521 q 0,-0.35532 0.14382,-0.62181 0.14382,-0.27072 0.39339,-0.41877 0.2538,-0.14805 0.56259,-0.14805 0.30456,0 0.52875,0.13113 0.22419,0.13113 0.33417,0.32994 v -0.423 h 0.38916 v 2.31804 h -0.38916 v -0.43146 q -0.11421,0.20304 -0.34263,0.3384 -0.22419,0.13113 -0.52452,0.13113 -0.30879,0 -0.55836,-0.15228 -0.24957,-0.15228 -0.39339,-0.42723 -0.14382,-0.27495 -0.14382,-0.62604 z m 1.96272,0.0042 q 0,-0.26226 -0.10575,-0.45684 -0.10575,-0.19458 -0.28764,-0.2961 -0.17766,-0.10575 -0.39339,-0.10575 -0.21573,0 -0.39339,0.10152 -0.17766,0.10152 -0.28341,0.2961 -0.10575,0.19458 -0.10575,0.45684 0,0.26649 0.10575,0.4653 0.10575,0.19458 0.28341,0.30033 0.17766,0.10152 0.39339,0.10152 0.21573,0 0.39339,-0.10152 0.18189,-0.10575 0.28764,-0.30033 0.10575,-0.19881 0.10575,-0.46107 z"
         style="fill:#ffffff"
         id="path3650" />
      <path
         d="m 174.14097,79.901961 v 2.31804 h -0.38493 v -0.34263 q -0.10998,0.17766 -0.30879,0.27918 -0.19458,0.09729 -0.43146,0.09729 -0.27072,0 -0.48645,-0.10998 -0.21573,-0.11421 -0.34263,-0.3384 -0.12267,-0.22419 -0.12267,-0.54567 v -1.35783 h 0.3807 v 1.30707 q 0,0.34263 0.17343,0.52875 0.17343,0.18189 0.47376,0.18189 0.30879,0 0.48645,-0.19035 0.17766,-0.19035 0.17766,-0.55413 v -1.27323 z"
         style="fill:#ffffff"
         id="path3652" />
      <path
         d="m 174.64856,81.052521 q 0,-0.35532 0.14382,-0.62181 0.14382,-0.27072 0.39339,-0.41877 0.2538,-0.14805 0.56682,-0.14805 0.27072,0 0.50337,0.1269 0.23265,0.12267 0.35532,0.32571 v -1.2267 h 0.38916 v 3.1302 h -0.38916 v -0.43569 q -0.11421,0.20727 -0.3384,0.34263 -0.22419,0.13113 -0.52452,0.13113 -0.30879,0 -0.56259,-0.15228 -0.24957,-0.15228 -0.39339,-0.42723 -0.14382,-0.27495 -0.14382,-0.62604 z m 1.96272,0.0042 q 0,-0.26226 -0.10575,-0.45684 -0.10575,-0.19458 -0.28764,-0.2961 -0.17766,-0.10575 -0.39339,-0.10575 -0.21573,0 -0.39339,0.10152 -0.17766,0.10152 -0.28341,0.2961 -0.10575,0.19458 -0.10575,0.45684 0,0.26649 0.10575,0.4653 0.10575,0.19458 0.28341,0.30033 0.17766,0.10152 0.39339,0.10152 0.21573,0 0.39339,-0.10152 0.18189,-0.10575 0.28764,-0.30033 0.10575,-0.19881 0.10575,-0.46107 z"
         style="fill:#ffffff"
         id="path3654" />
      <path
         d="m 177.85068,79.525491 q -0.10998,0 -0.18612,-0.07614 -0.0761,-0.07614 -0.0761,-0.18612 0,-0.10998 0.0761,-0.18612 0.0761,-0.07614 0.18612,-0.07614 0.10575,0 0.17766,0.07614 0.0761,0.07614 0.0761,0.18612 0,0.10998 -0.0761,0.18612 -0.0719,0.07614 -0.17766,0.07614 z m 0.18612,0.37647 v 2.31804 h -0.38493 v -2.31804 z"
         style="fill:#ffffff"
         id="path3656" />
      <path
         d="m 179.16198,80.219211 v 1.36629 q 0,0.1692 0.0719,0.24111 0.0719,0.06768 0.24957,0.06768 h 0.28341 v 0.32571 h -0.34686 q -0.32148,0 -0.48222,-0.14805 -0.16074,-0.14805 -0.16074,-0.48645 v -1.36629 h -0.30033 v -0.31725 h 0.30033 v -0.58374 h 0.38493 v 0.58374 h 0.60489 v 0.31725 z"
         style="fill:#ffffff"
         id="path3658" />
      <path
         d="m 180.35484,82.245381 q -0.10998,0 -0.18612,-0.07614 -0.0761,-0.07614 -0.0761,-0.18612 0,-0.10998 0.0761,-0.18612 0.0761,-0.07614 0.18612,-0.07614 0.10575,0 0.17766,0.07614 0.0761,0.07614 0.0761,0.18612 0,0.10998 -0.0761,0.18612 -0.0719,0.07614 -0.17766,0.07614 z"
         style="fill:#ffffff"
         id="path3660" />
      <path
         d="m 181.50539,79.089801 v 3.1302 h -0.38493 v -3.1302 z"
         style="fill:#ffffff"
         id="path3662" />
      <path
         d="m 183.17202,82.258071 q -0.32571,0 -0.5922,-0.14805 -0.26226,-0.14805 -0.41454,-0.41877 -0.14805,-0.27495 -0.14805,-0.6345 0,-0.35532 0.15228,-0.62604 0.15651,-0.27495 0.423,-0.41877 0.26649,-0.14805 0.59643,-0.14805 0.32994,0 0.59643,0.14805 0.26649,0.14382 0.41877,0.41454 0.15651,0.27072 0.15651,0.63027 0,0.35955 -0.16074,0.6345 -0.15651,0.27072 -0.42723,0.41877 -0.27072,0.14805 -0.60066,0.14805 z m 0,-0.3384 q 0.20727,0 0.38916,-0.09729 0.18189,-0.09729 0.29187,-0.29187 0.11421,-0.19458 0.11421,-0.47376 0,-0.27918 -0.10998,-0.47376 -0.10998,-0.19458 -0.28764,-0.28764 -0.17766,-0.09729 -0.38493,-0.09729 -0.2115,0 -0.38916,0.09729 -0.17343,0.09306 -0.27918,0.28764 -0.10575,0.19458 -0.10575,0.47376 0,0.28341 0.10152,0.47799 0.10575,0.19458 0.27918,0.29187 0.17343,0.09306 0.3807,0.09306 z"
         style="fill:#ffffff"
         id="path3664" />
      <path
         d="m 185.82422,79.863891 q 0.30033,0 0.52452,0.13113 0.22842,0.13113 0.3384,0.32994 v -0.423 h 0.38916 v 2.3688 q 0,0.31725 -0.13536,0.56259 -0.13536,0.24957 -0.38916,0.38916 -0.24957,0.13959 -0.58374,0.13959 -0.45684,0 -0.7614,-0.21573 -0.30456,-0.21573 -0.35955,-0.58797 h 0.3807 q 0.0634,0.2115 0.26226,0.3384 0.19881,0.13113 0.47799,0.13113 0.31725,0 0.51606,-0.19881 0.20304,-0.19881 0.20304,-0.55836 v -0.48645 q -0.11421,0.20304 -0.3384,0.3384 -0.22419,0.13536 -0.52452,0.13536 -0.30879,0 -0.56259,-0.15228 -0.24957,-0.15228 -0.39339,-0.42723 -0.14382,-0.27495 -0.14382,-0.62604 0,-0.35532 0.14382,-0.62181 0.14382,-0.27072 0.39339,-0.41877 0.2538,-0.14805 0.56259,-0.14805 z m 0.86292,1.19286 q 0,-0.26226 -0.10575,-0.45684 -0.10575,-0.19458 -0.28764,-0.2961 -0.17766,-0.10575 -0.39339,-0.10575 -0.21573,0 -0.39339,0.10152 -0.17766,0.10152 -0.28341,0.2961 -0.10575,0.19458 -0.10575,0.45684 0,0.26649 0.10575,0.4653 0.10575,0.19458 0.28341,0.30033 0.17766,0.10152 0.39339,0.10152 0.21573,0 0.39339,-0.10152 0.18189,-0.10575 0.28764,-0.30033 0.10575,-0.19881 0.10575,-0.46107 z"
         style="fill:#ffffff"
         id="path3666" />
    </g>
    <rect
       id="rect3257-0"
       width="37.88"
       height="15.51"
       x="92.18"
       y="131.63"
       rx="0"
       ry="0"
       opacity=".97"
       fill="#0c322c"
       stroke-width=".56"
       stroke-linecap="square"
       stroke-dasharray="2.2225, 0.555625"
       paint-order="stroke fill markers"
       stop-color="#000" />
    <g
       aria-label="хобшоб"
       id="text3264-2"
       style="font-weight:500;font-size:4.23px;line-height:1.25;font-family:Poppins;-inkscape-font-specification:'Poppins, Medium';letter-spacing:0;stroke-width:0.26">
      <path
         d="m 109.80772,139.09497 v 0.39762 h -0.92214 v -0.39762 z m -0.92214,1.13364 v -0.40185 h 0.92214 v 0.40185 z m -1.33245,0 v -0.40185 h 0.92637 v 0.40185 z m 0.92637,-1.13364 v 0.39762 h -0.92637 v -0.39762 z m 0.40608,-0.72756 h -0.40608 v 0.38493 h -1.30707 v 2.03463 h 0.3807 v -0.21573 h 0.92637 v 0.74448 h 0.40608 v -0.74448 h 0.92214 v 0.19881 h 0.39339 v -2.01771 h -1.31553 z m 0.0761,-0.49914 0.0296,-0.008 c -0.0465,-0.11844 -0.14382,-0.31302 -0.21996,-0.46107 l -0.41031,0.11421 c 0.055,0.10575 0.11421,0.24534 0.16074,0.35532 h -1.59894 v 0.72756 h 0.38916 v -0.35532 h 2.73258 v 0.35532 h 0.40185 v -0.72756 z"
         style="font-family:'Noto Sans CJK SC';-inkscape-font-specification:'Noto Sans CJK SC Medium';text-align:center;text-anchor:middle;fill:#ffffff"
         id="path3525" />
      <path
         d="m 112.29919,138.1263 c -0.14382,-0.17766 -0.45261,-0.43992 -0.68949,-0.62604 l -0.24957,0.2538 c 0.23265,0.19881 0.53298,0.48222 0.67257,0.65988 z m -0.2538,2.33919 v -1.72161 h -1.04058 v 0.38916 h 0.63873 v 1.40013 c 0,0.18612 -0.1269,0.31725 -0.21573,0.36801 0.0719,0.0888 0.1692,0.26226 0.20304,0.36801 0.0719,-0.0931 0.20304,-0.19458 1.0152,-0.78255 -0.0338,-0.0761 -0.0973,-0.24111 -0.12267,-0.35532 z m 2.80872,-1.66239 h -1.02366 v -1.34514 h -0.41877 v 1.34514 h -1.04058 v 0.40608 h 1.04058 v 2.115 h 0.41877 v -2.115 h 1.02366 z"
         style="font-family:'Noto Sans CJK SC';-inkscape-font-specification:'Noto Sans CJK SC Medium';text-align:center;text-anchor:middle;fill:#ffffff"
         id="path3527" />
    </g>
    <rect
       id="rect3251-6"
       width="38.09"
       height="13.27"
       x="63.13"
       y="40.42"
       rx="2.21"
       ry="2.26"
       opacity=".97"
       fill="#30ba78"
       stroke-width=".56"
       stroke-linecap="square"
       stroke-dasharray="2.2225, 0.555625"
       paint-order="stroke fill markers"
       stop-color="#000" />
    <g
       aria-label="auditctl"
       id="text3255-1"
       style="font-weight:500;font-size:4.23px;line-height:1.25;font-family:Poppins;-inkscape-font-specification:'Poppins, Medium';letter-spacing:0;stroke-width:0.26">
      <path
         d="m 74.231893,47.49252 q 0,-0.35532 0.14382,-0.62181 0.14382,-0.27072 0.39339,-0.41877 0.2538,-0.14805 0.56259,-0.14805 0.30456,0 0.52875,0.13113 0.22419,0.13113 0.33417,0.32994 v -0.423 h 0.38916 V 48.66 h -0.38916 v -0.43146 q -0.11421,0.20304 -0.34263,0.3384 -0.22419,0.13113 -0.52452,0.13113 -0.30879,0 -0.55836,-0.15228 -0.24957,-0.15228 -0.39339,-0.42723 -0.14382,-0.27495 -0.14382,-0.62604 z m 1.96272,0.0042 q 0,-0.26226 -0.10575,-0.45684 -0.10575,-0.19458 -0.28764,-0.2961 -0.17766,-0.10575 -0.39339,-0.10575 -0.21573,0 -0.39339,0.10152 -0.17766,0.10152 -0.28341,0.2961 -0.10575,0.19458 -0.10575,0.45684 0,0.26649 0.10575,0.4653 0.10575,0.19458 0.28341,0.30033 0.17766,0.10152 0.39339,0.10152 0.21573,0 0.39339,-0.10152 0.18189,-0.10575 0.28764,-0.30033 0.10575,-0.19881 0.10575,-0.46107 z"
         id="path3384" />
      <path
         d="M 79.290976,46.34196 V 48.66 h -0.38493 v -0.34263 q -0.10998,0.17766 -0.30879,0.27918 -0.19458,0.09729 -0.43146,0.09729 -0.27072,0 -0.48645,-0.10998 -0.21573,-0.11421 -0.34263,-0.3384 -0.12267,-0.22419 -0.12267,-0.54567 v -1.35783 h 0.3807 v 1.30707 q 0,0.34263 0.17343,0.52875 0.17343,0.18189 0.47376,0.18189 0.30879,0 0.48645,-0.19035 0.17766,-0.19035 0.17766,-0.55413 v -1.27323 z"
         id="path3386" />
      <path
         d="m 79.798573,47.49252 q 0,-0.35532 0.14382,-0.62181 0.14382,-0.27072 0.39339,-0.41877 0.2538,-0.14805 0.56682,-0.14805 0.27072,0 0.50337,0.1269 0.23265,0.12267 0.35532,0.32571 v -1.2267 h 0.38916 V 48.66 h -0.38916 v -0.43569 q -0.11421,0.20727 -0.3384,0.34263 -0.22419,0.13113 -0.52452,0.13113 -0.30879,0 -0.56259,-0.15228 -0.24957,-0.15228 -0.39339,-0.42723 -0.14382,-0.27495 -0.14382,-0.62604 z m 1.96272,0.0042 q 0,-0.26226 -0.10575,-0.45684 -0.10575,-0.19458 -0.28764,-0.2961 -0.17766,-0.10575 -0.39339,-0.10575 -0.21573,0 -0.39339,0.10152 -0.17766,0.10152 -0.28341,0.2961 -0.10575,0.19458 -0.10575,0.45684 0,0.26649 0.10575,0.4653 0.10575,0.19458 0.28341,0.30033 0.17766,0.10152 0.39339,0.10152 0.21573,0 0.39339,-0.10152 0.18189,-0.10575 0.28764,-0.30033 0.10575,-0.19881 0.10575,-0.46107 z"
         id="path3388" />
      <path
         d="m 83.000686,45.96549 q -0.10998,0 -0.18612,-0.07614 -0.07614,-0.07614 -0.07614,-0.18612 0,-0.10998 0.07614,-0.18612 0.07614,-0.07614 0.18612,-0.07614 0.10575,0 0.17766,0.07614 0.07614,0.07614 0.07614,0.18612 0,0.10998 -0.07614,0.18612 -0.07191,0.07614 -0.17766,0.07614 z m 0.18612,0.37647 V 48.66 h -0.38493 v -2.31804 z"
         id="path3390" />
      <path
         d="m 84.311987,46.65921 v 1.36629 q 0,0.1692 0.07191,0.24111 0.07191,0.06768 0.24957,0.06768 h 0.28341 V 48.66 h -0.34686 q -0.32148,0 -0.48222,-0.14805 -0.16074,-0.14805 -0.16074,-0.48645 v -1.36629 h -0.30033 v -0.31725 h 0.30033 v -0.58374 h 0.38493 v 0.58374 h 0.60489 v 0.31725 z"
         id="path3392" />
      <path
         d="m 85.238358,47.49675 q 0,-0.35955 0.14382,-0.62604 0.14382,-0.27072 0.39762,-0.41877 0.25803,-0.14805 0.58797,-0.14805 0.42723,0 0.70218,0.20727 0.27918,0.20727 0.36801,0.57528 h -0.41454 q -0.05922,-0.2115 -0.23265,-0.33417 -0.1692,-0.12267 -0.423,-0.12267 -0.32994,0 -0.53298,0.22842 -0.20304,0.22419 -0.20304,0.63873 0,0.41877 0.20304,0.64719 0.20304,0.22842 0.53298,0.22842 0.2538,0 0.423,-0.11844 0.1692,-0.11844 0.23265,-0.3384 h 0.41454 q -0.09306,0.35532 -0.37224,0.57105 -0.27918,0.2115 -0.69795,0.2115 -0.32994,0 -0.58797,-0.14805 -0.2538,-0.14805 -0.39762,-0.41877 -0.14382,-0.27072 -0.14382,-0.6345 z"
         id="path3394" />
      <path
         d="m 88.41932,46.65921 v 1.36629 q 0,0.1692 0.07191,0.24111 0.07191,0.06768 0.24957,0.06768 h 0.28341 V 48.66 h -0.34686 q -0.32148,0 -0.48222,-0.14805 -0.16074,-0.14805 -0.16074,-0.48645 v -1.36629 h -0.30033 v -0.31725 h 0.30033 v -0.58374 h 0.38493 v 0.58374 h 0.60489 v 0.31725 z"
         id="path3396" />
      <path
         d="M 89.874441,45.5298 V 48.66 h -0.38493 v -3.1302 z"
         id="path3398" />
    </g>
    <rect
       id="rect3251-2"
       width="38.09"
       height="13.27"
       x="211.18"
       y="74.54"
       rx="2.21"
       ry="2.26"
       opacity=".97"
       fill="#30ba78"
       stroke-width=".56"
       stroke-linecap="square"
       stroke-dasharray="2.2225, 0.555625"
       paint-order="stroke fill markers"
       stop-color="#000" />
    <g
       aria-label="aureport"
       id="text3255-15"
       style="font-weight:500;font-size:4.23px;line-height:1.25;font-family:Poppins;-inkscape-font-specification:'Poppins, Medium';letter-spacing:0;stroke-width:0.26">
      <path
         d="m 221.08188,80.90252 q 0,-0.35532 0.14382,-0.62181 0.14382,-0.27072 0.39339,-0.41877 0.2538,-0.14805 0.56259,-0.14805 0.30456,0 0.52875,0.13113 0.22419,0.13113 0.33417,0.32994 v -0.423 h 0.38916 V 82.07 h -0.38916 v -0.43146 q -0.11421,0.20304 -0.34263,0.3384 -0.22419,0.13113 -0.52452,0.13113 -0.30879,0 -0.55836,-0.15228 -0.24957,-0.15228 -0.39339,-0.42723 -0.14382,-0.27495 -0.14382,-0.62604 z m 1.96272,0.0042 q 0,-0.26226 -0.10575,-0.45684 -0.10575,-0.19458 -0.28764,-0.2961 -0.17766,-0.10575 -0.39339,-0.10575 -0.21573,0 -0.39339,0.10152 -0.17766,0.10152 -0.28341,0.2961 -0.10575,0.19458 -0.10575,0.45684 0,0.26649 0.10575,0.4653 0.10575,0.19458 0.28341,0.30033 0.17766,0.10152 0.39339,0.10152 0.21573,0 0.39339,-0.10152 0.18189,-0.10575 0.28764,-0.30033 0.10575,-0.19881 0.10575,-0.46107 z"
         id="path3670" />
      <path
         d="M 226.14097,79.75196 V 82.07 h -0.38493 v -0.34263 q -0.10998,0.17766 -0.30879,0.27918 -0.19458,0.09729 -0.43146,0.09729 -0.27072,0 -0.48645,-0.10998 -0.21573,-0.11421 -0.34263,-0.3384 -0.12267,-0.22419 -0.12267,-0.54567 v -1.35783 h 0.3807 v 1.30707 q 0,0.34263 0.17343,0.52875 0.17343,0.18189 0.47376,0.18189 0.30879,0 0.48645,-0.19035 0.17766,-0.19035 0.17766,-0.55413 v -1.27323 z"
         id="path3672" />
      <path
         d="m 227.17731,80.12843 q 0.10152,-0.19881 0.28764,-0.30879 0.19035,-0.10998 0.46107,-0.10998 v 0.39762 h -0.10152 q -0.64719,0 -0.64719,0.70218 V 82.07 h -0.38493 v -2.31804 h 0.38493 z"
         id="path3674" />
      <path
         d="m 230.48517,80.82215 q 0,0.10998 -0.0127,0.23265 h -1.85274 q 0.0212,0.34263 0.23265,0.53721 0.21573,0.19035 0.52029,0.19035 0.24957,0 0.41454,-0.11421 0.1692,-0.11844 0.23688,-0.31302 h 0.41454 q -0.0931,0.33417 -0.37224,0.54567 -0.27918,0.20727 -0.69372,0.20727 -0.32994,0 -0.5922,-0.14805 -0.25803,-0.14805 -0.40608,-0.41877 -0.14805,-0.27495 -0.14805,-0.6345 0,-0.35955 0.14382,-0.63027 0.14382,-0.27072 0.40185,-0.41454 0.26226,-0.14805 0.60066,-0.14805 0.32994,0 0.58374,0.14382 0.2538,0.14382 0.38916,0.39762 0.13959,0.24957 0.13959,0.56682 z m -0.39762,-0.08037 q 0,-0.21996 -0.0973,-0.37647 -0.0973,-0.16074 -0.26649,-0.24111 -0.16497,-0.0846 -0.36801,-0.0846 -0.29187,0 -0.49914,0.18612 -0.20304,0.18612 -0.23265,0.51606 z"
         id="path3676" />
      <path
         d="m 231.3777,80.17919 q 0.11421,-0.19881 0.3384,-0.32994 0.22842,-0.13536 0.52875,-0.13536 0.30879,0 0.55836,0.14805 0.2538,0.14805 0.39762,0.41877 0.14382,0.26649 0.14382,0.62181 0,0.35109 -0.14382,0.62604 -0.14382,0.27495 -0.39762,0.42723 -0.24957,0.15228 -0.55836,0.15228 -0.2961,0 -0.52452,-0.13113 -0.22419,-0.13536 -0.34263,-0.33417 v 1.52703 h -0.38493 v -3.41784 h 0.38493 z m 1.57356,0.72333 q 0,-0.26226 -0.10575,-0.45684 -0.10575,-0.19458 -0.28764,-0.2961 -0.17766,-0.10152 -0.39339,-0.10152 -0.2115,0 -0.39339,0.10575 -0.17766,0.10152 -0.28764,0.30033 -0.10575,0.19458 -0.10575,0.45261 0,0.26226 0.10575,0.46107 0.10998,0.19458 0.28764,0.30033 0.18189,0.10152 0.39339,0.10152 0.21573,0 0.39339,-0.10152 0.18189,-0.10575 0.28764,-0.30033 0.10575,-0.19881 0.10575,-0.4653 z"
         id="path3678" />
      <path
         d="m 234.86323,82.10807 q -0.32571,0 -0.5922,-0.14805 -0.26226,-0.14805 -0.41454,-0.41877 -0.14805,-0.27495 -0.14805,-0.6345 0,-0.35532 0.15228,-0.62604 0.15651,-0.27495 0.423,-0.41877 0.26649,-0.14805 0.59643,-0.14805 0.32994,0 0.59643,0.14805 0.26649,0.14382 0.41877,0.41454 0.15651,0.27072 0.15651,0.63027 0,0.35955 -0.16074,0.6345 -0.15651,0.27072 -0.42723,0.41877 -0.27072,0.14805 -0.60066,0.14805 z m 0,-0.3384 q 0.20727,0 0.38916,-0.09729 0.18189,-0.09729 0.29187,-0.29187 0.11421,-0.19458 0.11421,-0.47376 0,-0.27918 -0.10998,-0.47376 -0.10998,-0.19458 -0.28764,-0.28764 -0.17766,-0.09729 -0.38493,-0.09729 -0.2115,0 -0.38916,0.09729 -0.17343,0.09306 -0.27918,0.28764 -0.10575,0.19458 -0.10575,0.47376 0,0.28341 0.10152,0.47799 0.10575,0.19458 0.27918,0.29187 0.17343,0.09306 0.3807,0.09306 z"
         id="path3680" />
      <path
         d="m 236.94438,80.12843 q 0.10152,-0.19881 0.28764,-0.30879 0.19035,-0.10998 0.46107,-0.10998 v 0.39762 h -0.10152 q -0.64719,0 -0.64719,0.70218 V 82.07 h -0.38493 v -2.31804 h 0.38493 z"
         id="path3682" />
      <path
         d="m 238.60677,80.06921 v 1.36629 q 0,0.1692 0.0719,0.24111 0.0719,0.06768 0.24957,0.06768 h 0.28341 V 82.07 h -0.34686 q -0.32148,0 -0.48222,-0.14805 -0.16074,-0.14805 -0.16074,-0.48645 v -1.36629 h -0.30033 v -0.31725 h 0.30033 v -0.58374 h 0.38493 v 0.58374 h 0.60489 v 0.31725 z"
         id="path3684" />
    </g>
    <rect
       id="rect3251-9"
       width="38.09"
       height="13.27"
       x="159.22"
       y="109.22"
       rx="2.21"
       ry="2.26"
       opacity=".97"
       fill="#30ba78"
       stroke-width=".56"
       stroke-linecap="square"
       stroke-dasharray="2.2225, 0.555625"
       paint-order="stroke fill markers"
       stop-color="#000" />
    <g
       aria-label="autrace"
       id="text3255-14"
       style="font-weight:500;font-size:4.23px;line-height:1.25;font-family:Poppins;-inkscape-font-specification:'Poppins, Medium';letter-spacing:0;stroke-width:0.26">
      <path
         d="m 170.02189,116.12252 q 0,-0.35532 0.14382,-0.62181 0.14382,-0.27072 0.39339,-0.41877 0.2538,-0.14805 0.56259,-0.14805 0.30456,0 0.52875,0.13113 0.22419,0.13113 0.33417,0.32994 v -0.423 h 0.38916 V 117.29 h -0.38916 v -0.43146 q -0.11421,0.20304 -0.34263,0.3384 -0.22419,0.13113 -0.52452,0.13113 -0.30879,0 -0.55836,-0.15228 -0.24957,-0.15228 -0.39339,-0.42723 -0.14382,-0.27495 -0.14382,-0.62604 z m 1.96272,0.004 q 0,-0.26226 -0.10575,-0.45684 -0.10575,-0.19458 -0.28764,-0.2961 -0.17766,-0.10575 -0.39339,-0.10575 -0.21573,0 -0.39339,0.10152 -0.17766,0.10152 -0.28341,0.2961 -0.10575,0.19458 -0.10575,0.45684 0,0.26649 0.10575,0.4653 0.10575,0.19458 0.28341,0.30033 0.17766,0.10152 0.39339,0.10152 0.21573,0 0.39339,-0.10152 0.18189,-0.10575 0.28764,-0.30033 0.10575,-0.19881 0.10575,-0.46107 z"
         id="path3687" />
      <path
         d="M 175.08097,114.97196 V 117.29 h -0.38493 v -0.34263 q -0.10998,0.17766 -0.30879,0.27918 -0.19458,0.0973 -0.43146,0.0973 -0.27072,0 -0.48645,-0.10998 -0.21573,-0.11421 -0.34263,-0.3384 -0.12267,-0.22419 -0.12267,-0.54567 v -1.35783 h 0.3807 v 1.30707 q 0,0.34263 0.17343,0.52875 0.17343,0.18189 0.47376,0.18189 0.30879,0 0.48645,-0.19035 0.17766,-0.19035 0.17766,-0.55413 v -1.27323 z"
         id="path3689" />
      <path
         d="m 176.20192,115.28921 v 1.36629 q 0,0.1692 0.0719,0.24111 0.0719,0.0677 0.24957,0.0677 h 0.28341 V 117.29 h -0.34686 q -0.32148,0 -0.48222,-0.14805 -0.16074,-0.14805 -0.16074,-0.48645 v -1.36629 h -0.30033 v -0.31725 h 0.30033 v -0.58374 h 0.38493 v 0.58374 h 0.60489 v 0.31725 z"
         id="path3692" />
      <path
         d="m 177.65704,115.34843 q 0.10152,-0.19881 0.28764,-0.30879 0.19035,-0.10998 0.46107,-0.10998 v 0.39762 h -0.10152 q -0.64719,0 -0.64719,0.70218 V 117.29 h -0.38493 v -2.31804 h 0.38493 z"
         id="path3694" />
      <path
         d="m 178.70607,116.12252 q 0,-0.35532 0.14382,-0.62181 0.14382,-0.27072 0.39339,-0.41877 0.2538,-0.14805 0.56259,-0.14805 0.30456,0 0.52875,0.13113 0.22419,0.13113 0.33417,0.32994 v -0.423 h 0.38916 V 117.29 h -0.38916 v -0.43146 q -0.11421,0.20304 -0.34263,0.3384 -0.22419,0.13113 -0.52452,0.13113 -0.30879,0 -0.55836,-0.15228 -0.24957,-0.15228 -0.39339,-0.42723 -0.14382,-0.27495 -0.14382,-0.62604 z m 1.96272,0.004 q 0,-0.26226 -0.10575,-0.45684 -0.10575,-0.19458 -0.28764,-0.2961 -0.17766,-0.10575 -0.39339,-0.10575 -0.21573,0 -0.39339,0.10152 -0.17766,0.10152 -0.28341,0.2961 -0.10575,0.19458 -0.10575,0.45684 0,0.26649 0.10575,0.4653 0.10575,0.19458 0.28341,0.30033 0.17766,0.10152 0.39339,0.10152 0.21573,0 0.39339,-0.10152 0.18189,-0.10575 0.28764,-0.30033 0.10575,-0.19881 0.10575,-0.46107 z"
         id="path3696" />
      <path
         d="m 181.56556,116.12675 q 0,-0.35955 0.14382,-0.62604 0.14382,-0.27072 0.39762,-0.41877 0.25803,-0.14805 0.58797,-0.14805 0.42723,0 0.70218,0.20727 0.27918,0.20727 0.36801,0.57528 h -0.41454 q -0.0592,-0.2115 -0.23265,-0.33417 -0.1692,-0.12267 -0.423,-0.12267 -0.32994,0 -0.53298,0.22842 -0.20304,0.22419 -0.20304,0.63873 0,0.41877 0.20304,0.64719 0.20304,0.22842 0.53298,0.22842 0.2538,0 0.423,-0.11844 0.1692,-0.11844 0.23265,-0.3384 h 0.41454 q -0.0931,0.35532 -0.37224,0.57105 -0.27918,0.2115 -0.69795,0.2115 -0.32994,0 -0.58797,-0.14805 -0.2538,-0.14805 -0.39762,-0.41877 -0.14382,-0.27072 -0.14382,-0.6345 z"
         id="path3698" />
      <path
         d="m 186.39199,116.04215 q 0,0.10998 -0.0127,0.23265 h -1.85274 q 0.0212,0.34263 0.23265,0.53721 0.21573,0.19035 0.52029,0.19035 0.24957,0 0.41454,-0.11421 0.1692,-0.11844 0.23688,-0.31302 h 0.41454 q -0.0931,0.33417 -0.37224,0.54567 -0.27918,0.20727 -0.69372,0.20727 -0.32994,0 -0.5922,-0.14805 -0.25803,-0.14805 -0.40608,-0.41877 -0.14805,-0.27495 -0.14805,-0.6345 0,-0.35955 0.14382,-0.63027 0.14382,-0.27072 0.40185,-0.41454 0.26226,-0.14805 0.60066,-0.14805 0.32994,0 0.58374,0.14382 0.2538,0.14382 0.38916,0.39762 0.13959,0.24957 0.13959,0.56682 z m -0.39762,-0.0804 q 0,-0.21996 -0.0973,-0.37647 -0.0973,-0.16074 -0.26649,-0.24111 -0.16497,-0.0846 -0.36801,-0.0846 -0.29187,0 -0.49914,0.18612 -0.20304,0.18612 -0.23265,0.51606 z"
         id="path3700" />
    </g>
    <rect
       id="rect3251-0"
       width="38.09"
       height="13.27"
       x="211.18"
       y="109.22"
       rx="2.21"
       ry="2.26"
       opacity=".97"
       fill="#30ba78"
       stroke-width=".56"
       stroke-linecap="square"
       stroke-dasharray="2.2225, 0.555625"
       paint-order="stroke fill markers"
       stop-color="#000" />
    <g
       aria-label="ausearch"
       id="text3255-7"
       style="font-weight:500;font-size:4.23px;line-height:1.25;font-family:Poppins;-inkscape-font-specification:'Poppins, Medium';letter-spacing:0;stroke-width:0.26">
      <path
         d="m 220.34189,116.23252 q 0,-0.35532 0.14382,-0.62181 0.14382,-0.27072 0.39339,-0.41877 0.2538,-0.14805 0.56259,-0.14805 0.30456,0 0.52875,0.13113 0.22419,0.13113 0.33417,0.32994 v -0.423 h 0.38916 V 117.4 h -0.38916 v -0.43146 q -0.11421,0.20304 -0.34263,0.3384 -0.22419,0.13113 -0.52452,0.13113 -0.30879,0 -0.55836,-0.15228 -0.24957,-0.15228 -0.39339,-0.42723 -0.14382,-0.27495 -0.14382,-0.62604 z m 1.96272,0.004 q 0,-0.26226 -0.10575,-0.45684 -0.10575,-0.19458 -0.28764,-0.2961 -0.17766,-0.10575 -0.39339,-0.10575 -0.21573,0 -0.39339,0.10152 -0.17766,0.10152 -0.28341,0.2961 -0.10575,0.19458 -0.10575,0.45684 0,0.26649 0.10575,0.4653 0.10575,0.19458 0.28341,0.30033 0.17766,0.10152 0.39339,0.10152 0.21573,0 0.39339,-0.10152 0.18189,-0.10575 0.28764,-0.30033 0.10575,-0.19881 0.10575,-0.46107 z"
         id="path3703" />
      <path
         d="M 225.40098,115.08196 V 117.4 h -0.38493 v -0.34263 q -0.10998,0.17766 -0.30879,0.27918 -0.19458,0.0973 -0.43146,0.0973 -0.27072,0 -0.48645,-0.10998 -0.21573,-0.11421 -0.34263,-0.3384 -0.12267,-0.22419 -0.12267,-0.54567 v -1.35783 h 0.3807 v 1.30707 q 0,0.34263 0.17343,0.52875 0.17343,0.18189 0.47376,0.18189 0.30879,0 0.48645,-0.19035 0.17766,-0.19035 0.17766,-0.55413 v -1.27323 z"
         id="path3705" />
      <path
         d="m 226.87301,117.43807 q -0.26649,0 -0.47799,-0.0888 -0.2115,-0.0931 -0.33417,-0.2538 -0.12267,-0.16497 -0.13536,-0.37647 h 0.39762 q 0.0169,0.17343 0.16074,0.28341 0.14805,0.10998 0.38493,0.10998 0.21996,0 0.34686,-0.0973 0.1269,-0.0973 0.1269,-0.24534 0,-0.15228 -0.13536,-0.22419 -0.13536,-0.0761 -0.41877,-0.14805 -0.25803,-0.0677 -0.423,-0.13536 -0.16074,-0.0719 -0.27918,-0.20727 -0.11421,-0.13959 -0.11421,-0.36378 0,-0.17766 0.10575,-0.32571 0.10575,-0.14805 0.30033,-0.23265 0.19458,-0.0888 0.44415,-0.0888 0.38493,0 0.62181,0.19458 0.23688,0.19458 0.2538,0.53298 h -0.38493 q -0.0127,-0.18189 -0.14805,-0.29187 -0.13113,-0.10998 -0.35532,-0.10998 -0.20727,0 -0.32994,0.0888 -0.12267,0.0888 -0.12267,0.23265 0,0.11421 0.0719,0.19035 0.0761,0.0719 0.18612,0.11844 0.11421,0.0423 0.31302,0.0973 0.24957,0.0677 0.40608,0.13536 0.15651,0.0635 0.26649,0.19458 0.11421,0.13113 0.11844,0.34263 0,0.19035 -0.10575,0.34263 -0.10575,0.15228 -0.30033,0.24111 -0.19035,0.0846 -0.43992,0.0846 z"
         id="path3707" />
      <path
         d="m 230.37545,116.15215 q 0,0.10998 -0.0127,0.23265 h -1.85274 q 0.0212,0.34263 0.23265,0.53721 0.21573,0.19035 0.52029,0.19035 0.24957,0 0.41454,-0.11421 0.1692,-0.11844 0.23688,-0.31302 h 0.41454 q -0.0931,0.33417 -0.37224,0.54567 -0.27918,0.20727 -0.69372,0.20727 -0.32994,0 -0.5922,-0.14805 -0.25803,-0.14805 -0.40608,-0.41877 -0.14805,-0.27495 -0.14805,-0.6345 0,-0.35955 0.14382,-0.63027 0.14382,-0.27072 0.40185,-0.41454 0.26226,-0.14805 0.60066,-0.14805 0.32994,0 0.58374,0.14382 0.2538,0.14382 0.38916,0.39762 0.13959,0.24957 0.13959,0.56682 z m -0.39762,-0.0804 q 0,-0.21996 -0.0973,-0.37647 -0.0973,-0.16074 -0.26649,-0.24111 -0.16497,-0.0846 -0.36801,-0.0846 -0.29187,0 -0.49914,0.18612 -0.20304,0.18612 -0.23265,0.51606 z"
         id="path3709" />
      <path
         d="m 230.73923,116.23252 q 0,-0.35532 0.14382,-0.62181 0.14382,-0.27072 0.39339,-0.41877 0.2538,-0.14805 0.56259,-0.14805 0.30456,0 0.52875,0.13113 0.22419,0.13113 0.33417,0.32994 v -0.423 h 0.38916 V 117.4 h -0.38916 v -0.43146 q -0.11421,0.20304 -0.34263,0.3384 -0.22419,0.13113 -0.52452,0.13113 -0.30879,0 -0.55836,-0.15228 -0.24957,-0.15228 -0.39339,-0.42723 -0.14382,-0.27495 -0.14382,-0.62604 z m 1.96272,0.004 q 0,-0.26226 -0.10575,-0.45684 -0.10575,-0.19458 -0.28764,-0.2961 -0.17766,-0.10575 -0.39339,-0.10575 -0.21573,0 -0.39339,0.10152 -0.17766,0.10152 -0.28341,0.2961 -0.10575,0.19458 -0.10575,0.45684 0,0.26649 0.10575,0.4653 0.10575,0.19458 0.28341,0.30033 0.17766,0.10152 0.39339,0.10152 0.21573,0 0.39339,-0.10152 0.18189,-0.10575 0.28764,-0.30033 0.10575,-0.19881 0.10575,-0.46107 z"
         id="path3711" />
      <path
         d="m 234.12747,115.45843 q 0.10152,-0.19881 0.28764,-0.30879 0.19035,-0.10998 0.46107,-0.10998 v 0.39762 h -0.10152 q -0.64719,0 -0.64719,0.70218 V 117.4 h -0.38493 v -2.31804 h 0.38493 z"
         id="path3713" />
      <path
         d="m 235.1765,116.23675 q 0,-0.35955 0.14382,-0.62604 0.14382,-0.27072 0.39762,-0.41877 0.25803,-0.14805 0.58797,-0.14805 0.42723,0 0.70218,0.20727 0.27918,0.20727 0.36801,0.57528 h -0.41454 q -0.0592,-0.2115 -0.23265,-0.33417 -0.1692,-0.12267 -0.423,-0.12267 -0.32994,0 -0.53298,0.22842 -0.20304,0.22419 -0.20304,0.63873 0,0.41877 0.20304,0.64719 0.20304,0.22842 0.53298,0.22842 0.2538,0 0.423,-0.11844 0.1692,-0.11844 0.23265,-0.3384 h 0.41454 q -0.0931,0.35532 -0.37224,0.57105 -0.27918,0.2115 -0.69795,0.2115 -0.32994,0 -0.58797,-0.14805 -0.2538,-0.14805 -0.39762,-0.41877 -0.14382,-0.27072 -0.14382,-0.6345 z"
         id="path3715" />
      <path
         d="m 239.0385,115.03966 q 0.26226,0 0.47376,0.11421 0.2115,0.10998 0.32994,0.33417 0.12267,0.22419 0.12267,0.54567 V 117.4 h -0.3807 v -1.3113 q 0,-0.34686 -0.17343,-0.52875 -0.17343,-0.18612 -0.47376,-0.18612 -0.30456,0 -0.48645,0.19035 -0.17766,0.19035 -0.17766,0.55413 V 117.4 h -0.38493 v -3.1302 h 0.38493 v 1.1421 q 0.11421,-0.17766 0.31302,-0.27495 0.20304,-0.0973 0.45261,-0.0973 z"
         id="path3717" />
    </g>
    <ellipse
       id="path3385"
       cx="36.91"
       cy="100.02"
       rx="24.8"
       ry="10.03"
       opacity=".97"
       fill="#c0c2c4"
       stroke-width=".87"
       stroke-linecap="square"
       stroke-dasharray="3.4925, 0.87312500000000004"
       paint-order="stroke fill markers"
       stop-color="#000"
       stroke="none"
       stroke-miterlimit="4"
       stroke-dashoffset="0" />
    <g
       aria-label="х║ФчФичиЛх║П"
       id="text3389"
       style="font-weight:500;font-size:4.23px;line-height:1.25;font-family:Poppins;-inkscape-font-specification:'Poppins, Medium';letter-spacing:0;stroke-width:0.26">
      <path
         d="m 31.946539,98.429326 v -0.37224 h -1.39167 c -0.05499,-0.16074 -0.15228,-0.37647 -0.24534,-0.55413 l -0.38916,0.09729 c 0.06768,0.13959 0.13536,0.30879 0.19035,0.45684 h -1.64124 v 1.13787 c 0,0.59643 -0.02961,1.446664 -0.34686,2.038864 0.09306,0.0381 0.27072,0.15228 0.34263,0.22419 0.34686,-0.63873 0.40185,-1.611634 0.40185,-2.263054 v -0.76563 z m -1.269,1.679314 c -0.06345,-0.389164 -0.21996,-0.968674 -0.36378,-1.425514 l -0.35955,0.09306 c 0.13536,0.45684 0.28764,1.05327 0.34263,1.442434 z m -0.77832,0.20304 c -0.09306,-0.389164 -0.29187,-0.968674 -0.47799,-1.421284 l -0.34263,0.13113 c 0.1692,0.45684 0.37224,1.053274 0.45261,1.446664 z m 1.00251,0.55413 c 0.37647,-0.6345 0.68526,-1.374754 0.88407,-2.060014 l -0.41454,-0.14382 c -0.16074,0.71487 -0.47376,1.565104 -0.87984,2.203834 h -1.62009 v 0.37224 h 3.12597 v -0.37224 z"
         style="font-family:'Noto Sans CJK SC';-inkscape-font-specification:'Noto Sans CJK SC Medium';text-align:center;text-anchor:middle"
         id="path3516" />
      <path
         d="m 34.535299,99.795616 v -0.62604 h 1.02366 v 0.62604 z m -1.32822,0 c 0.01269,-0.15651 0.01692,-0.31302 0.01692,-0.45684 v -0.1692 h 0.91791 v 0.62604 z m 0.93483,-1.59048 v 0.59643 h -0.91791 v -0.59643 z m 1.41705,0.59643 h -1.02366 v -0.59643 h 1.02366 z m 0.39339,-0.9729 h -3.11751 v 1.50588 c 0,0.59643 -0.0423,1.345144 -0.50337,1.856974 0.08883,0.0465 0.24957,0.18189 0.30879,0.25803 0.30879,-0.34263 0.46107,-0.81639 0.52875,-1.28169 h 0.9729 v 1.20978 h 0.39339 v -1.20978 h 1.02366 v 0.75717 c 0,0.0804 -0.02961,0.10575 -0.10575,0.10575 -0.08037,0 -0.35955,0.004 -0.63027,-0.008 0.05076,0.10152 0.11421,0.27495 0.13113,0.3807 0.38916,0.004 0.6345,-0.004 0.79101,-0.0677 0.15228,-0.0592 0.20727,-0.17766 0.20727,-0.40608 z"
         style="font-family:'Noto Sans CJK SC';-inkscape-font-specification:'Noto Sans CJK SC Medium';text-align:center;text-anchor:middle"
         id="path3518" />
      <path
         d="m 39.848179,98.623906 h -1.21824 v -0.61335 h 1.21824 z m 0.3807,-0.94752 h -1.96272 v 1.28169 h 1.96272 z m -2.11077,2.20806 c -0.07191,-0.11421 -0.40608,-0.55413 -0.52452,-0.69795 v -0.0846 h 0.49068 v -0.36378 h -0.49068 v -0.69795 c 0.16497,-0.04653 0.32571,-0.09729 0.46107,-0.15228 l -0.24111,-0.31725 c -0.27918,0.13536 -0.72756,0.2538 -1.12095,0.33417 0.03807,0.0846 0.08883,0.21573 0.10998,0.30033 0.13536,-0.02115 0.28341,-0.04653 0.42723,-0.07614 v 0.60912 h -0.56259 v 0.36378 h 0.50337 c -0.13959,0.43992 -0.3807,0.947524 -0.60912,1.239394 0.06768,0.10152 0.16074,0.27072 0.19881,0.38493 0.16497,-0.22842 0.33417,-0.57105 0.46953,-0.939064 v 1.637014 h 0.36378 v -1.768144 c 0.10998,0.19881 0.22842,0.427234 0.28341,0.558364 z m 1.3536,1.065964 v -0.49914 h 0.79947 v -0.34686 h -0.79947 v -0.477994 h 0.89676 v -0.35109 h -2.16999 v 0.35109 h 0.88407 v 0.477994 h -0.78255 v 0.34686 h 0.78255 v 0.49914 h -1.0575 v 0.36378 h 2.43648 v -0.36378 z"
         style="font-family:'Noto Sans CJK SC';-inkscape-font-specification:'Noto Sans CJK SC Medium';text-align:center;text-anchor:middle"
         id="path3520" />
      <path
         d="m 44.310829,99.672946 h -0.69372 l 0.03384,-0.03384 c -0.07191,-0.04653 -0.16497,-0.09306 -0.26649,-0.14382 0.3384,-0.19458 0.67257,-0.45684 0.91368,-0.70641 l -0.2538,-0.19458 -0.0846,0.02115 h -2.06424 v 0.31725 h 1.72161 c -0.1692,0.14382 -0.37224,0.29187 -0.56259,0.39762 -0.20304,-0.09306 -0.41454,-0.18612 -0.5922,-0.26226 l -0.23688,0.23265 c 0.23688,0.10152 0.52875,0.24534 0.77832,0.37224 h -1.32822 v 0.334174 h 1.23516 v 0.98136 c 0,0.0592 -0.02115,0.0761 -0.10152,0.0804 -0.08037,0.004 -0.37224,0.004 -0.65142,-0.008 0.05076,0.10575 0.10998,0.25803 0.1269,0.36378 0.37224,0 0.6345,0.004 0.79947,-0.055 0.17343,-0.055 0.21996,-0.15651 0.21996,-0.37224 v -0.98982 h 0.76563 c -0.10998,0.17343 -0.23688,0.34686 -0.34686,0.47376 l 0.30879,0.14382 c 0.20304,-0.21573 0.42723,-0.5499 0.62181,-0.858694 l -0.27918,-0.11421 z m -1.07442,-1.67931 c -0.05499,-0.13536 -0.14805,-0.32994 -0.22842,-0.47799 l -0.38493,0.10575 c 0.05499,0.10998 0.11844,0.2538 0.16497,0.37224 h -1.62855 v 1.15056 c 0,0.61335 -0.02961,1.472044 -0.37224,2.072704 0.0846,0.0423 0.26226,0.15228 0.32571,0.21996 0.36801,-0.64296 0.43146,-1.628554 0.43146,-2.288434 v -0.79101 h 3.11751 v -0.36378 z"
         style="font-family:'Noto Sans CJK SC';-inkscape-font-specification:'Noto Sans CJK SC Medium';text-align:center;text-anchor:middle"
         id="path3522" />
    </g>
    <path
       d="M111.12 22.02v49.53"
       id="path3655"
       fill="none"
       stroke="#000"
       stroke-width=".53"
       stroke-linecap="butt"
       stroke-linejoin="miter"
       stroke-miterlimit="4"
       stroke-dasharray="2.11666793,0.52916698"
       stroke-dashoffset="0"
       stroke-opacity="1"
       marker-end="url(#marker883)" />
    <path
       d="M131.55 81.6h25.98"
       id="path3657"
       fill="none"
       stroke="#000"
       stroke-width=".53"
       stroke-linecap="butt"
       stroke-linejoin="miter"
       stroke-miterlimit="4"
       stroke-dasharray="none"
       stroke-opacity="1"
       marker-end="url(#marker883)" />
    <path
       d="M198.99 81.6h10.59"
       id="path3659"
       fill="none"
       stroke="#000"
       stroke-width=".53"
       stroke-linecap="butt"
       stroke-linejoin="miter"
       stroke-miterlimit="4"
       stroke-dasharray="none"
       stroke-opacity="1"
       marker-end="url(#marker883)" />
    <path
       d="M198.9 115.9h9.88"
       id="path3661"
       fill="none"
       stroke="#000"
       stroke-width=".53"
       stroke-linecap="butt"
       stroke-linejoin="miter"
       stroke-miterlimit="4"
       stroke-dasharray="none"
       stroke-opacity="1"
       marker-end="url(#marker883)" />
    <path
       d="m178.4 124.47-46.73 14.2"
       id="path3663"
       fill="none"
       stroke="#000"
       stroke-width=".53"
       stroke-linecap="butt"
       stroke-linejoin="miter"
       stroke-miterlimit="4"
       stroke-dasharray="2.11667, 0.529167"
       stroke-dashoffset="0"
       stroke-opacity="1"
       marker-end="url(#marker883)" />
    <path
       d="M111.12 128.94v-39.2"
       id="path3665"
       fill="none"
       stroke="#000"
       stroke-width=".53"
       stroke-linecap="butt"
       stroke-linejoin="miter"
       stroke-miterlimit="4"
       stroke-dasharray="none"
       stroke-opacity="1"
       marker-end="url(#marker883)" />
    <path
       d="m90.65 81.6-8.48-27 16.94 73.6"
       id="path3667"
       fill="none"
       stroke="#000"
       stroke-width=".53"
       stroke-linecap="butt"
       stroke-linejoin="miter"
       stroke-miterlimit="4"
       stroke-dasharray="2.11667, 0.529167"
       stroke-dashoffset="0"
       stroke-opacity="1"
       marker-start="url(#marker86845062245)"
       marker-end="url(#marker883)" />
    <path
       d="m36.68 112.19 7.38 16.79"
       id="path3669"
       fill="none"
       stroke="#000"
       stroke-width=".53"
       stroke-linecap="butt"
       stroke-linejoin="miter"
       stroke-miterlimit="4"
       stroke-dasharray="none"
       stroke-opacity="1"
       marker-end="url(#marker883)" />
    <path
       d="m36.68 22.06 45.49 17.02"
       id="path3671"
       fill="none"
       stroke="#000"
       stroke-width=".53"
       stroke-linecap="butt"
       stroke-linejoin="miter"
       stroke-miterlimit="4"
       stroke-dasharray="2.11666793,0.52916698"
       stroke-dashoffset="0"
       stroke-opacity="1"
       marker-end="url(#marker883)" />
    <g
       aria-label="хЖЕца╕l"
       id="text3389-7"
       style="font-weight:500;font-size:4.23px;line-height:1.25;font-family:Poppins;-inkscape-font-specification:'Poppins, Medium';letter-spacing:0;stroke-width:0.26">
      <path
         d="m 65.481972,156.77167 h -1.50165 v -0.71064 h -0.40608 v 0.71064 h -1.49742 v 3.18096 h 0.39339 v -2.80026 h 1.0998 c -0.02115,0.54144 -0.16497,1.20132 -1.04481,1.66662 0.09306,0.0719 0.22842,0.2115 0.27918,0.2961 0.52029,-0.30456 0.81639,-0.6768 0.98136,-1.06173 0.35109,0.3384 0.72756,0.73602 0.92214,0.99405 l 0.32148,-0.25803 c -0.24534,-0.30033 -0.73179,-0.76563 -1.12095,-1.11672 0.03807,-0.18189 0.05922,-0.35532 0.06768,-0.52029 h 1.11672 v 2.30535 c 0,0.0761 -0.02538,0.0973 -0.10575,0.10152 -0.08037,0.004 -0.36801,0.004 -0.64296,-0.008 0.05499,0.10575 0.11844,0.28764 0.13536,0.39762 0.37224,0 0.6345,-0.004 0.79101,-0.0719 0.15651,-0.0634 0.2115,-0.18189 0.2115,-0.41454 z"
         style="font-family:'Noto Sans CJK SC';-inkscape-font-specification:'Noto Sans CJK SC Medium';text-align:end;text-anchor:end"
         id="path3530" />
      <path
         d="m 69.187452,157.27081 c -0.06345,0.12267 -0.14805,0.2538 -0.23688,0.37224 l -0.64719,0.0338 c 0.14382,-0.21573 0.31725,-0.49491 0.45261,-0.71487 h 1.17171 v -0.35955 h -0.87984 c -0.02961,-0.15651 -0.13113,-0.38916 -0.23688,-0.56682 l -0.36801,0.11421 c 0.07191,0.13959 0.14382,0.31302 0.18189,0.45261 h -1.04904 v 0.35955 h 0.76563 c -0.14382,0.22842 -0.34686,0.55836 -0.41877,0.6345 -0.07614,0.0804 -0.2115,0.10998 -0.30033,0.13113 0.02961,0.0846 0.08883,0.27072 0.10575,0.35955 0.08037,-0.0296 0.21573,-0.0508 0.91368,-0.10575 -0.30033,0.2961 -0.68103,0.5499 -1.08711,0.72756 0.06768,0.0761 0.17343,0.21573 0.21573,0.30456 0.76563,-0.35532 1.41705,-0.96021 1.78929,-1.62009 z m -1.65393,0.85023 c -0.07191,-0.11421 -0.37647,-0.58374 -0.48645,-0.74025 v -0.15651 h 0.44838 v -0.36378 h -0.44838 v -0.79524 h -0.37647 v 0.79524 h -0.53721 v 0.36378 h 0.52029 c -0.11844,0.54567 -0.36378,1.18017 -0.62604,1.51434 0.07191,0.10575 0.15651,0.27918 0.19881,0.38916 0.16074,-0.23688 0.32148,-0.60489 0.44415,-0.99828 v 1.81467 h 0.37647 v -2.07693 c 0.10152,0.19458 0.20304,0.40608 0.2538,0.52875 z m 1.93734,-0.0804 c -0.35532,0.68526 -1.15056,1.28169 -2.12769,1.57779 0.07191,0.0846 0.18189,0.23688 0.22842,0.32994 0.52029,-0.17343 0.98559,-0.41877 1.37898,-0.72333 0.27072,0.22842 0.56259,0.49914 0.71487,0.68103 l 0.30456,-0.26226 c -0.16497,-0.17766 -0.47376,-0.43992 -0.74871,-0.65565 0.26226,-0.24111 0.48222,-0.5076 0.65142,-0.8037 z"
         style="font-family:'Noto Sans CJK SC';-inkscape-font-specification:'Noto Sans CJK SC Medium';text-align:end;text-anchor:end"
         id="path3532" />
      <path
         d="m 70.968282,159.66499 c 0.11844,0 0.20304,-0.0169 0.26226,-0.0381 l -0.06345,-0.36801 c -0.0423,0.008 -0.05922,0.008 -0.08037,0.008 -0.05922,0 -0.11844,-0.0465 -0.11844,-0.17766 v -2.85102 h -0.48222 v 2.82564 c 0,0.37647 0.13113,0.60066 0.48222,0.60066 z"
         style="font-family:'Noto Sans CJK SC';-inkscape-font-specification:'Noto Sans CJK SC Medium';text-align:end;text-anchor:end"
         id="path3534" />
    </g>
    <path
       d="m73.19 157.15 17.71-17.03"
       id="path3691"
       fill="none"
       stroke="#000"
       stroke-width=".56"
       stroke-linecap="butt"
       stroke-linejoin="miter"
       stroke-miterlimit="4"
       stroke-dasharray="none"
       stroke-opacity="1"
       marker-end="url(#marker883)" />
  </g>
</svg>
