<?xml version="1.0" encoding="UTF-8" standalone="no"?>
<!-- Created with Inkscape (http://www.inkscape.org/) -->

<svg
   xmlns:dc="http://purl.org/dc/elements/1.1/"
   xmlns:cc="http://creativecommons.org/ns#"
   xmlns:rdf="http://www.w3.org/1999/02/22-rdf-syntax-ns#"
   xmlns:svg="http://www.w3.org/2000/svg"
   xmlns="http://www.w3.org/2000/svg"
   xmlns:sodipodi="http://sodipodi.sourceforge.net/DTD/sodipodi-0.dtd"
   xmlns:inkscape="http://www.inkscape.org/namespaces/inkscape"
   width="724.5"
   height="605"
   id="svg668913"
   version="1.1"
   inkscape:version="0.92.4 (5da689c313, 2019-01-14)"
   sodipodi:docname="autoyast_rules.svg">
  <defs
     id="defs668915" />
  <sodipodi:namedview
     id="base"
     pagecolor="#ffffff"
     bordercolor="#666666"
     borderopacity="1.0"
     inkscape:pageopacity="1"
     inkscape:pageshadow="2"
     inkscape:zoom="1.4"
     inkscape:cx="369.53035"
     inkscape:cy="284.50201"
     inkscape:document-units="px"
     inkscape:current-layer="layer1"
     showgrid="false"
     inkscape:window-width="1920"
     inkscape:window-height="1027"
     inkscape:window-x="-8"
     inkscape:window-y="-8"
     inkscape:window-maximized="1"
     showguides="true"
     inkscape:guide-bbox="true">
    <inkscape:grid
       type="xygrid"
       id="grid750074"
       empspacing="5"
       visible="true"
       enabled="true"
       snapvisiblegridlinesonly="true" />
  </sodipodi:namedview>
  <metadata
     id="metadata668918">
    <rdf:RDF>
      <cc:Work
         rdf:about="">
        <dc:format>image/svg+xml</dc:format>
        <dc:type
           rdf:resource="http://purl.org/dc/dcmitype/StillImage" />
        <dc:title />
      </cc:Work>
    </rdf:RDF>
  </metadata>
  <g
     inkscape:label="Ebene 1"
     inkscape:groupmode="layer"
     id="layer1"
     transform="translate(0,-447.36218)">
    <path
       d="m 384.32039,882.10658 c -20.21418,0 -37.54422,12.22996 -45.01021,29.71549 -3.76097,-2.60168 -8.33648,-4.0786 -13.25544,-4.0786 -12.09145,0 -21.99994,9.18919 -23.16059,20.97563 -0.0483,-2.3e-4 -0.0949,0 -0.1465,0 -20.59474,0 -37.29002,16.69521 -37.29002,37.29002 0,20.59458 16.69528,37.28998 37.29002,37.28998 h 125.85381 c 16.73323,0 30.29814,-13.5649 30.29814,-30.2981 0,-15.66251 -11.85057,-28.56742 -27.09353,-30.15248 0.93691,-3.7819 1.45664,-7.72765 1.45664,-11.79879 0,-27.0306 -21.91255,-48.94315 -48.94315,-48.94315 z"
       id="path10823-1-2"
       style="color:#000000;display:inline;overflow:visible;visibility:visible;fill:none;stroke:#464546;stroke-width:2;stroke-miterlimit:4;stroke-dasharray:none;stroke-opacity:1;marker:none;enable-background:accumulate"
       inkscape:connector-curvature="0" />
    <path
       inkscape:connector-curvature="0"
       id="path28548"
       style="fill:#02d35f;fill-opacity:1;fill-rule:nonzero;stroke:none"
       d="m 400.89162,919.16927 c 0,9.98125 -8.09,18.075 -18.07375,18.075 -9.98375,0 -18.0775,-8.09375 -18.0775,-18.075 0,-9.98625 8.09375,-18.08 18.0775,-18.08 9.98375,0 18.07375,8.09375 18.07375,18.08" />
    <path
       inkscape:connector-curvature="0"
       id="path28552"
       style="fill:#ffffff;fill-opacity:1;fill-rule:nonzero;stroke:none"
       d="m 389.08012,923.32077 h -15.28625 l 5.33375,5.27625 h 15.28875 z m -1.7825,-2.57625 h -11.71875 v -9.6 h 11.71875 z m 1.7825,-11.0625 h -15.28625 v 12.525 h 15.28625 z" />
    <path
       inkscape:connector-curvature="0"
       id="path30000"
       style="fill:#02d35f;fill-opacity:1;fill-rule:nonzero;stroke:none"
       d="m 325.12634,970.6833 c 0,9.9825 -8.09375,18.07875 -18.07625,18.07875 -9.985,0 -18.07875,-8.09625 -18.07875,-18.07875 0,-9.98375 8.09375,-18.07625 18.07875,-18.07625 9.9825,0 18.07625,8.0925 18.07625,18.07625" />
    <path
       d="m 315.20696,964.8898 h -16.2675 v 9.1525 h 16.2675 z m 2.41,10.5925 c 0,0.5325 -0.4325,0.96375 -0.9675,0.96375 h -19.0375 c -0.535,0 -0.9625,-0.43125 -0.9625,-0.96375 v -11.92 c 0,-0.5325 0.4275,-0.965 0.9625,-0.965 h 19.0375 c 0.535,0 0.9675,0.4325 0.9675,0.965 z"
       style="fill:#ffffff;fill-opacity:1;fill-rule:nonzero;stroke:none"
       id="path30002"
       inkscape:connector-curvature="0" />
    <path
       inkscape:connector-curvature="0"
       id="path30006"
       style="fill:#ffffff;fill-opacity:1;fill-rule:nonzero;stroke:none"
       d="m 313.05596,979.37105 c 0.205,0.43625 -0.0438,0.605 -0.45875,0.58375 l -10.68125,0.0213 c 0.0312,0.004 -0.79125,0.0388 -0.52,-0.58375 l 0.7075,-0.9475 c 0.4275,-0.43625 0.45,-0.4175 1.39625,-0.4175 h 7.305 c 0.9475,0 1.09375,-0.0387 1.41625,0.345 l 0.835,0.99875 z" />
    <path
       inkscape:connector-curvature="0"
       id="path30000-6"
       style="fill:#02d35f;fill-opacity:1;fill-rule:nonzero;stroke:none"
       d="m 426.62072,967.90604 c 0,9.9825 -8.09375,18.07875 -18.07625,18.07875 -9.985,0 -18.07875,-8.09625 -18.07875,-18.07875 0,-9.98375 8.09375,-18.07625 18.07875,-18.07625 9.9825,0 18.07625,8.0925 18.07625,18.07625" />
    <path
       d="m 416.70134,962.11254 h -16.2675 v 9.1525 h 16.2675 z m 2.41,10.5925 c 0,0.5325 -0.4325,0.96375 -0.9675,0.96375 h -19.0375 c -0.535,0 -0.9625,-0.43125 -0.9625,-0.96375 v -11.92 c 0,-0.5325 0.4275,-0.965 0.9625,-0.965 h 19.0375 c 0.535,0 0.9675,0.4325 0.9675,0.965 z"
       style="fill:#ffffff;fill-opacity:1;fill-rule:nonzero;stroke:none"
       id="path30002-0"
       inkscape:connector-curvature="0" />
    <path
       inkscape:connector-curvature="0"
       id="path30006-1"
       style="fill:#ffffff;fill-opacity:1;fill-rule:nonzero;stroke:none"
       d="m 414.55034,976.59379 c 0.205,0.43625 -0.0437,0.605 -0.45875,0.58375 l -10.68125,0.0213 c 0.0312,0.004 -0.79125,0.0387 -0.52,-0.58375 l 0.7075,-0.9475 c 0.4275,-0.43625 0.45,-0.4175 1.39625,-0.4175 h 7.305 c 0.9475,0 1.09375,-0.0388 1.41625,0.345 l 0.835,0.99875 z" />
    <path
       inkscape:connector-curvature="0"
       id="path28548-7"
       style="fill:#02d35f;fill-opacity:1;fill-rule:nonzero;stroke:none"
       d="m 370.26294,953.19968 c 0,9.98125 -8.09,18.075 -18.07375,18.075 -9.98375,0 -18.0775,-8.09375 -18.0775,-18.075 0,-9.98625 8.09375,-18.08 18.0775,-18.08 9.98375,0 18.07375,8.09375 18.07375,18.08" />
    <path
       inkscape:connector-curvature="0"
       id="path28552-1"
       style="fill:#ffffff;fill-opacity:1;fill-rule:nonzero;stroke:none"
       d="m 358.45144,957.35118 h -15.28625 l 5.33375,5.27625 h 15.28875 z m -1.7825,-2.57625 h -11.71875 v -9.6 h 11.71875 z m 1.7825,-11.0625 h -15.28625 v 12.525 h 15.28625 z" />
    <path
       inkscape:connector-curvature="0"
       id="path695198"
       style="fill:#fd9a2b;fill-opacity:1;fill-rule:nonzero;stroke:none"
       d="m 156.86824,918.34944 c 0,9.98125 -8.09,18.075 -18.07375,18.075 -9.98375,0 -18.0775,-8.09375 -18.0775,-18.075 0,-9.98625 8.09375,-18.08 18.0775,-18.08 9.98375,0 18.07375,8.09375 18.07375,18.08" />
    <path
       inkscape:connector-curvature="0"
       id="path695202"
       style="fill:#ffffff;fill-opacity:1;fill-rule:nonzero;stroke:none"
       d="m 145.05674,922.50094 h -15.28625 l 5.33375,5.27625 h 15.28875 z m -1.7825,-2.57625 h -11.71875 v -9.6 h 11.71875 z m 1.7825,-11.0625 h -15.28625 v 12.525 h 15.28625 z" />
    <path
       inkscape:connector-curvature="0"
       id="path696650"
       style="fill:#fd9a2b;fill-opacity:1;fill-rule:nonzero;stroke:none"
       d="m 81.10868,964.81271 c 0,9.9825 -8.09375,18.07875 -18.07625,18.07875 -9.985,0 -18.07875,-8.09625 -18.07875,-18.07875 0,-9.98375 8.09375,-18.07625 18.07875,-18.07625 9.9825,0 18.07625,8.0925 18.07625,18.07625" />
    <path
       d="M 71.1893,959.01921 H 54.9218 v 9.1525 h 16.2675 z m 2.41,10.5925 c 0,0.5325 -0.4325,0.96375 -0.9675,0.96375 H 53.5943 c -0.535,0 -0.9625,-0.43125 -0.9625,-0.96375 v -11.92 c 0,-0.5325 0.4275,-0.965 0.9625,-0.965 h 19.0375 c 0.535,0 0.9675,0.4325 0.9675,0.965 z"
       style="fill:#ffffff;fill-opacity:1;fill-rule:nonzero;stroke:none"
       id="path696652"
       inkscape:connector-curvature="0" />
    <path
       inkscape:connector-curvature="0"
       id="path696656"
       style="fill:#ffffff;fill-opacity:1;fill-rule:nonzero;stroke:none"
       d="m 69.0383,973.50046 c 0.205,0.43625 -0.0437,0.605 -0.45875,0.58375 l -10.68125,0.0213 c 0.0312,0.004 -0.79125,0.0388 -0.52,-0.58375 l 0.7075,-0.9475 c 0.4275,-0.43625 0.45,-0.4175 1.39625,-0.4175 h 7.305 c 0.9475,0 1.09375,-0.0387 1.41625,0.345 l 0.835,0.99875 z" />
    <path
       d="m 139.72119,881.99432 c -20.21418,0 -37.54422,12.22996 -45.01021,29.71549 -3.76097,-2.60168 -8.33648,-4.0786 -13.25544,-4.0786 -12.09145,0 -21.99994,9.18919 -23.16059,20.97563 -0.0483,-2.3e-4 -0.0949,0 -0.1465,0 -20.59474,0 -37.29002,16.69521 -37.29002,37.29002 0,20.59457 16.69528,37.29004 37.29002,37.29004 h 125.85381 c 16.73323,0 30.29814,-13.56497 30.29814,-30.29816 0,-15.66251 -11.85057,-28.56742 -27.09353,-30.15248 0.93691,-3.7819 1.45664,-7.72765 1.45664,-11.79879 0,-27.0306 -21.91255,-48.94315 -48.94315,-48.94315 z"
       id="path10823-1-2-1"
       style="color:#000000;display:inline;overflow:visible;visibility:visible;fill:none;stroke:#464546;stroke-width:2;stroke-miterlimit:4;stroke-dasharray:none;stroke-opacity:1;marker:none;enable-background:accumulate"
       inkscape:connector-curvature="0" />
    <path
       inkscape:connector-curvature="0"
       id="path696650-3"
       style="fill:#fd9a2b;fill-opacity:1;fill-rule:nonzero;stroke:none"
       d="m 127.57569,956.73149 c 0,9.9825 -8.09375,18.07875 -18.07625,18.07875 -9.985,0 -18.07875,-8.09625 -18.07875,-18.07875 0,-9.98375 8.09375,-18.07625 18.07875,-18.07625 9.9825,0 18.07625,8.0925 18.07625,18.07625" />
    <path
       d="m 117.65631,950.93799 h -16.2675 v 9.1525 h 16.2675 z m 2.41,10.5925 c 0,0.5325 -0.4325,0.96375 -0.9675,0.96375 h -19.0375 c -0.535,0 -0.9625,-0.43125 -0.9625,-0.96375 v -11.92 c 0,-0.5325 0.4275,-0.965 0.9625,-0.965 h 19.0375 c 0.535,0 0.9675,0.4325 0.9675,0.965 z"
       style="fill:#ffffff;fill-opacity:1;fill-rule:nonzero;stroke:none"
       id="path696652-5"
       inkscape:connector-curvature="0" />
    <path
       inkscape:connector-curvature="0"
       id="path696656-1"
       style="fill:#ffffff;fill-opacity:1;fill-rule:nonzero;stroke:none"
       d="m 115.50531,965.41924 c 0.205,0.43625 -0.0437,0.605 -0.45875,0.58375 l -10.68125,0.0213 c 0.0312,0.004 -0.79125,0.0388 -0.52,-0.58375 l 0.7075,-0.9475 c 0.4275,-0.43625 0.45,-0.4175 1.39625,-0.4175 h 7.305 c 0.9475,0 1.09375,-0.0387 1.41625,0.345 l 0.835,0.99875 z" />
    <path
       inkscape:connector-curvature="0"
       id="path695198-4"
       style="fill:#fd9a2b;fill-opacity:1;fill-rule:nonzero;stroke:none"
       d="m 178.08144,965.82662 c 0,9.98125 -8.09,18.075 -18.07375,18.075 -9.98375,0 -18.0775,-8.09375 -18.0775,-18.075 0,-9.98625 8.09375,-18.08 18.0775,-18.08 9.98375,0 18.07375,8.09375 18.07375,18.08" />
    <path
       inkscape:connector-curvature="0"
       id="path695202-8"
       style="fill:#ffffff;fill-opacity:1;fill-rule:nonzero;stroke:none"
       d="m 166.26994,969.97812 h -15.28625 l 5.33375,5.27625 h 15.28875 z m -1.7825,-2.57625 h -11.71875 v -9.6 h 11.71875 z m 1.7825,-11.0625 h -15.28625 v 12.525 h 15.28625 z" />
    <path
       d="m 629.94368,881.99393 c -20.21418,0 -37.54422,12.22996 -45.01021,29.71549 -3.76097,-2.60168 -8.33648,-4.0786 -13.25544,-4.0786 -12.09145,0 -21.99994,9.18919 -23.16059,20.97563 -0.0483,-2.3e-4 -0.0949,0 -0.1465,0 -20.59474,0 -37.29002,16.69521 -37.29002,37.29002 0,20.59458 16.69528,37.29003 37.29002,37.29003 h 125.85381 c 16.73323,0 30.29814,-13.56495 30.29814,-30.29815 0,-15.66251 -11.85057,-28.56742 -27.09353,-30.15248 0.93691,-3.7819 1.45664,-7.72765 1.45664,-11.79879 0,-27.0306 -21.91255,-48.94315 -48.94315,-48.94315 z"
       id="path10823-1-2-0"
       style="color:#000000;display:inline;overflow:visible;visibility:visible;fill:none;stroke:#464546;stroke-width:2;stroke-miterlimit:4;stroke-dasharray:none;stroke-opacity:1;marker:none;enable-background:accumulate"
       inkscape:connector-curvature="0" />
    <path
       inkscape:connector-curvature="0"
       id="path704110"
       style="fill:#00b2e2;fill-opacity:1;fill-rule:nonzero;stroke:none"
       d="m 648.10089,913.29891 c 0,9.98 -8.0925,18.07375 -18.07375,18.07375 -9.98375,0 -18.0775,-8.09375 -18.0775,-18.07375 0,-9.9875 8.09375,-18.08 18.0775,-18.08 9.98125,0 18.07375,8.0925 18.07375,18.08" />
    <path
       d="m 634.96202,920.04341 h -2.6475 v 1.2675 h 2.6475 z m -3.5275,0 h -2.6475 v 1.2675 h 2.6475 z m -3.53125,0 h -2.645 v 1.2675 h 2.645 z m 3.36125,-6.43875 h -2.77125 v 1.2675 h 2.77125 z m 3.70625,-7.65375 h -2.77125 v 1.2675 h 2.77125 z m 0,7.65375 h -2.77125 v 1.2675 h 2.77125 z m 1.3275,11.34 h -2.46375 v 0.98625 h 2.46375 z m -12.4725,-15.565 h 12.4725 v 6.67625 h -12.4725 z m 0,7.975 h 12.4725 v 6.91375 h -12.4725 z m 12.4725,-9.2725 h -12.4725 v -6.62875 h 12.4725 z m -10.00875,17.84875 h -2.46375 v -0.98625 h 2.46375 z"
       style="fill:#ffffff;fill-opacity:1;fill-rule:nonzero;stroke:none"
       id="path704112"
       inkscape:connector-curvature="0" />
    <path
       inkscape:connector-curvature="0"
       id="path705718"
       style="fill:#00b2e2;fill-opacity:1;fill-rule:nonzero;stroke:none"
       d="m 576.38068,965.82747 c 0,9.98 -8.09375,18.07375 -18.07375,18.07375 -9.985,0 -18.07875,-8.09375 -18.07875,-18.07375 0,-9.9875 8.09375,-18.08125 18.07875,-18.08125 9.98,0 18.07375,8.09375 18.07375,18.08125" />
    <path
       d="m 563.3643,974.46697 h -2.1025 v 1.0075 h 2.1025 z m -2.8,0 h -2.10125 v 1.0075 h 2.10125 z m -2.80375,0 h -2.1 v 1.0075 h 2.1 z m 6.81625,3.00625 h -2.46375 v 0.98625 h 2.46375 z m -12.47125,-23.48875 h 12.47125 v 22.8125 h -12.47125 z m 2.46375,24.475 h -2.46375 v -0.98625 h 2.46375 z"
       style="fill:#ffffff;fill-opacity:1;fill-rule:nonzero;stroke:none"
       id="path705720"
       inkscape:connector-curvature="0" />
    <path
       inkscape:connector-curvature="0"
       id="path705704"
       style="fill:#00b2e2;fill-opacity:1;fill-rule:nonzero;stroke:none"
       d="m 673.3547,968.8573 c 0,9.98 -8.0925,18.07375 -18.07375,18.07375 -9.98375,0 -18.0775,-8.09375 -18.0775,-18.07375 0,-9.9875 8.09375,-18.08 18.0775,-18.08 9.98125,0 18.07375,8.0925 18.07375,18.08" />
    <path
       d="m 660.3397,978.5018 h -2.1025 v -1.005 h 2.1025 z m -2.8,0 h -2.10125 v -1.005 h 2.10125 z m -2.805,0 h -2.10125 v -1.005 h 2.10125 z m -5.655,1.325 h 12.4725 v -22.8125 h -12.4725 z m 10.00875,1.6625 h 2.46375 v -0.98625 h -2.46375 z m -10.00875,0 h 2.46375 v -0.98625 h -2.46375 z"
       style="fill:#ffffff;fill-opacity:1;fill-rule:nonzero;stroke:none"
       id="path705706"
       inkscape:connector-curvature="0"
       sodipodi:nodetypes="cccccccccccccccccccccccccccccc" />
    <path
       inkscape:connector-curvature="0"
       id="path705486"
       style="fill:#00b2e2;fill-opacity:1;fill-rule:nonzero;stroke:none"
       d="m 624.86675,954.71329 c 0,9.9825 -8.09125,18.07625 -18.07375,18.07625 -9.9825,0 -18.07625,-8.09375 -18.07625,-18.07625 0,-9.985 8.09375,-18.07875 18.07625,-18.07875 9.9825,0 18.07375,8.09375 18.07375,18.07875" />
    <path
       d="m 601.8275,959.88779 h 0.9325 v 4.8475 h -0.9325 z m 1.79375,0 h 0.9325 v 4.8475 h -0.9325 z m 1.795,0 h 0.935 v 4.8475 h -0.935 z m 1.79375,0 h 0.935 v 4.8475 h -0.935 z m 1.7975,0 h 0.9325 v 4.8475 h -0.9325 z m 1.79375,0 h 0.9325 v 4.8475 h -0.9325 z m -10.21,5.7975 H 613.065 v -6.91625 h -12.47375 z"
       style="fill:#ffffff;fill-opacity:1;fill-rule:nonzero;stroke:none"
       id="path705488"
       inkscape:connector-curvature="0" />
    <path
       d="m 610.60125,967.34654 h 2.46375 v -0.98625 h -2.46375 z"
       style="fill:#ffffff;fill-opacity:1;fill-rule:nonzero;stroke:none"
       id="path705490"
       inkscape:connector-curvature="0" />
    <path
       d="m 601.8275,951.83904 h 0.9325 v 4.8475 h -0.9325 z m 1.79375,0 h 0.9325 v 4.8475 h -0.9325 z m 1.795,0 h 0.935 v 4.8475 h -0.935 z m 1.79375,0 h 0.935 v 4.8475 h -0.935 z m 1.7975,0 h 0.9325 v 4.8475 h -0.9325 z m 1.79375,0 h 0.9325 v 4.8475 h -0.9325 z m -10.21,5.6325 H 613.065 v -6.6775 h -12.47375 z"
       style="fill:#ffffff;fill-opacity:1;fill-rule:nonzero;stroke:none"
       id="path705492"
       inkscape:connector-curvature="0" />
    <path
       d="m 600.59125,967.34654 h 2.46375 v -0.98625 h -2.46375 z"
       style="fill:#ffffff;fill-opacity:1;fill-rule:nonzero;stroke:none"
       id="path705494"
       inkscape:connector-curvature="0" />
    <path
       d="m 611.735,948.63654 h -0.9325 v -4.8475 h 0.9325 z m -1.795,0 h -0.9325 v -4.8475 h 0.9325 z m -1.795,0 h -0.935 v -4.8475 h 0.935 z m -1.79375,0 h -0.935 v -4.8475 h 0.935 z m -1.7975,0 h -0.9325 v -4.8475 h 0.9325 z m -1.79375,0 h -0.9325 v -4.8475 h 0.9325 z m -2.16875,0.8625 H 613.065 v -6.62875 h -12.47375 z"
       style="fill:#ffffff;fill-opacity:1;fill-rule:nonzero;stroke:none"
       id="path705496"
       inkscape:connector-curvature="0" />
    <g
       aria-label="销售部"
       style="font-style:normal;font-variant:normal;font-weight:normal;font-stretch:normal;line-height:0%;font-family:'Open Sans';-inkscape-font-specification:'Open Sans';letter-spacing:0px;word-spacing:0px;fill:#000000;fill-opacity:1;stroke:none"
       id="text750098">
      <path
         d="m 357.96629,1013.5705 c -0.432,1.044 -1.26,2.52 -1.872,3.402 l 0.99,0.468 c 0.648,-0.846 1.422,-2.196 2.034,-3.348 z m -8.532,2.916 v -1.278 h -3.708 c 0.288,-0.576 0.54,-1.17 0.72,-1.764 l -1.152,-0.342 c -0.54,1.656 -1.458,3.24 -2.52,4.284 0.216,0.288 0.576,0.936 0.684,1.206 0.558,-0.594 1.098,-1.296 1.584,-2.106 z m -2.412,3.006 h 2.106 v -1.206 h -5.13 v 1.206 h 1.782 v 2.43 h -2.556 v 1.224 h 2.556 v 3.546 c 0,0.774 -0.522,1.26 -0.846,1.458 0.234,0.27 0.522,0.792 0.63,1.116 0.288,-0.306 0.774,-0.594 3.762,-2.268 -0.108,-0.27 -0.234,-0.792 -0.27,-1.134 l -2.034,1.062 v -3.78 h 2.502 v -1.224 h -2.502 z m 5.724,-2.574 c -0.288,-0.882 -1.062,-2.214 -1.782,-3.222 l -1.044,0.486 c 0.72,1.044 1.458,2.448 1.728,3.312 z m -1.35,7.506 v -1.926 h 5.994 v 1.926 z m 5.994,-5.004 v 1.908 h -5.994 v -1.908 z m 0,-1.278 -2.304,0.018 v -5.13 h -1.242 v 5.13 h -3.672 v 11.34 h 1.224 v -3.924 h 5.994 v 2.214 c 0,0.252 -0.09,0.324 -0.36,0.342 -0.252,0.018 -1.152,0.018 -2.16,-0.018 0.198,0.342 0.36,0.882 0.414,1.224 1.368,0 2.16,-0.018 2.682,-0.234 0.486,-0.216 0.63,-0.594 0.63,-1.296 v -9.666 z"
         style="font-style:normal;font-variant:normal;font-weight:normal;font-stretch:normal;font-size:18px;line-height:1.25;font-family:'Noto Sans CJK SC';-inkscape-font-specification:'Noto Sans CJK SC';text-align:center;text-anchor:middle"
         id="path4724"
         inkscape:connector-curvature="0" />
      <path
         d="m 373.80629,1025.1985 v 2.358 h -9.27 v -2.358 z m -10.602,4.338 h 1.332 v -0.864 h 9.27 v 0.864 h 1.35 v -5.436 h -11.952 z m 1.332,-9.126 h 4.608 v 1.332 h -4.608 z m 4.608,-3.132 h -4.608 v -1.224 h 4.608 z m 0,2.178 h -4.608 v -1.224 h 4.608 z m 1.296,2.286 v -1.332 h 4.554 v -0.954 h -4.554 v -1.224 h 4.5 v -0.954 h -4.5 v -1.224 h 5.364 v -1.008 h -5.094 c -0.252,-0.612 -0.684,-1.386 -1.062,-1.998 l -1.224,0.342 c 0.288,0.504 0.594,1.116 0.828,1.656 h -4.266 c 0.288,-0.54 0.594,-1.098 0.846,-1.638 l -1.26,-0.396 c -0.882,2.034 -2.358,4.014 -3.906,5.292 0.288,0.234 0.756,0.756 0.954,0.99 0.54,-0.486 1.08,-1.062 1.602,-1.71 v 5.922 h 1.314 v -0.72 h 11.682 v -1.044 z"
         style="font-style:normal;font-variant:normal;font-weight:normal;font-stretch:normal;font-size:18px;line-height:1.25;font-family:'Noto Sans CJK SC';-inkscape-font-specification:'Noto Sans CJK SC';text-align:center;text-anchor:middle"
         id="path4726"
         inkscape:connector-curvature="0" />
      <path
         d="m 387.97229,1015.1725 h -3.312 c -0.216,-0.612 -0.576,-1.494 -0.954,-2.196 l -1.17,0.342 c 0.252,0.558 0.54,1.26 0.738,1.854 h -3.726 v 1.224 h 8.424 z m -4.986,4.428 c -0.18,-0.846 -0.666,-2.106 -1.188,-3.042 l -1.152,0.288 c 0.486,0.972 0.954,2.25 1.116,3.078 z m 3.24,4.464 v 3.258 h -4.896 v -3.258 z m -6.174,5.31 h 1.278 v -0.864 h 4.896 v 0.72 h 1.314 v -6.372 h -7.488 z m 5.796,-12.87 c -0.288,1.008 -0.828,2.484 -1.314,3.492 h -5.508 v 1.224 h 9.36 v -1.224 h -2.556 c 0.45,-0.936 0.954,-2.16 1.35,-3.204 z m 8.28,-2.556 -0.216,0.072 h -4.608 v 15.444 h 1.206 v -14.22 h 2.862 c -0.486,1.386 -1.188,3.294 -1.854,4.806 1.602,1.638 2.052,2.934 2.052,4.068 0.018,0.612 -0.108,1.17 -0.468,1.404 -0.198,0.108 -0.45,0.162 -0.72,0.18 -0.36,0.018 -0.864,0.018 -1.386,-0.036 0.216,0.378 0.342,0.918 0.36,1.278 0.504,0.018 1.08,0.018 1.53,-0.036 0.414,-0.036 0.81,-0.162 1.116,-0.378 0.576,-0.378 0.81,-1.26 0.81,-2.286 0,-1.26 -0.396,-2.646 -1.998,-4.338 0.756,-1.656 1.584,-3.708 2.232,-5.346 z"
         style="font-style:normal;font-variant:normal;font-weight:normal;font-stretch:normal;font-size:18px;line-height:1.25;font-family:'Noto Sans CJK SC';-inkscape-font-specification:'Noto Sans CJK SC';text-align:center;text-anchor:middle"
         id="path4728"
         inkscape:connector-curvature="0" />
    </g>
    <g
       aria-label="工程部"
       style="font-style:normal;font-variant:normal;font-weight:normal;font-stretch:normal;line-height:0%;font-family:'Open Sans';-inkscape-font-specification:'Open Sans';letter-spacing:0px;word-spacing:0px;fill:#000000;fill-opacity:1;stroke:none"
       id="text750102">
      <path
         d="m 92.082422,1026.0613 v -10.332 h 6.462 v -1.368 h -14.22 v 1.368 h 6.3 v 10.332 h -7.236 v 1.332 h 16.056 v -1.332 z"
         style="font-style:normal;font-variant:normal;font-weight:normal;font-stretch:normal;font-size:18px;line-height:1.25;font-family:'Noto Sans CJK SC';-inkscape-font-specification:'Noto Sans CJK SC';text-align:center;text-anchor:middle"
         id="path4717"
         inkscape:connector-curvature="0" />
      <path
         d="m 115.21242,1017.0973 h -5.706 v -2.988 h 5.706 z m 1.296,-4.14 h -8.262 v 5.31 h 8.262 z m -9.09,9.234 c -0.306,-0.504 -1.674,-2.448 -2.178,-3.06 v -0.414 h 2.214 v -1.26 h -2.214 v -3.204 c 0.738,-0.198 1.44,-0.432 2.016,-0.702 l -0.846,-1.08 c -1.116,0.558 -3.078,1.08 -4.752,1.404 0.144,0.306 0.324,0.756 0.396,1.062 0.612,-0.108 1.278,-0.234 1.926,-0.378 v 2.898 h -2.52 v 1.26 h 2.322 c -0.612,2.034 -1.71,4.356 -2.718,5.652 0.234,0.342 0.576,0.918 0.702,1.278 0.81,-1.044 1.584,-2.718 2.214,-4.446 v 7.578 h 1.26 v -8.028 c 0.504,0.9 1.08,1.98 1.314,2.556 z m 5.724,4.86 v -2.484 h 3.6 v -1.206 h -3.6 v -2.34 h 3.996 v -1.224 h -9.234 v 1.224 h 3.924 v 2.34 h -3.492 v 1.206 h 3.492 v 2.484 h -4.716 v 1.242 h 10.422 v -1.242 z"
         style="font-style:normal;font-variant:normal;font-weight:normal;font-stretch:normal;font-size:18px;line-height:1.25;font-family:'Noto Sans CJK SC';-inkscape-font-specification:'Noto Sans CJK SC';text-align:center;text-anchor:middle"
         id="path4719"
         inkscape:connector-curvature="0" />
      <path
         d="m 128.33442,1014.4513 h -3.312 c -0.216,-0.612 -0.576,-1.494 -0.954,-2.196 l -1.17,0.342 c 0.252,0.558 0.54,1.26 0.738,1.854 h -3.726 v 1.224 h 8.424 z m -4.986,4.428 c -0.18,-0.846 -0.666,-2.106 -1.188,-3.042 l -1.152,0.288 c 0.486,0.972 0.954,2.25 1.116,3.078 z m 3.24,4.464 v 3.258 h -4.896 v -3.258 z m -6.174,5.31 h 1.278 v -0.864 h 4.896 v 0.72 h 1.314 v -6.372 h -7.488 z m 5.796,-12.87 c -0.288,1.008 -0.828,2.484 -1.314,3.492 h -5.508 v 1.224 h 9.36 v -1.224 h -2.556 c 0.45,-0.936 0.954,-2.16 1.35,-3.204 z m 8.28,-2.556 -0.216,0.072 h -4.608 v 15.444 h 1.206 v -14.22 h 2.862 c -0.486,1.386 -1.188,3.294 -1.854,4.806 1.602,1.638 2.052,2.934 2.052,4.068 0.018,0.612 -0.108,1.17 -0.468,1.404 -0.198,0.108 -0.45,0.162 -0.72,0.18 -0.36,0.018 -0.864,0.018 -1.386,-0.036 0.216,0.378 0.342,0.918 0.36,1.278 0.504,0.018 1.08,0.018 1.53,-0.036 0.414,-0.036 0.81,-0.162 1.116,-0.378 0.576,-0.378 0.81,-1.26 0.81,-2.286 0,-1.26 -0.396,-2.646 -1.998,-4.338 0.756,-1.656 1.584,-3.708 2.232,-5.346 z"
         style="font-style:normal;font-variant:normal;font-weight:normal;font-stretch:normal;font-size:18px;line-height:1.25;font-family:'Noto Sans CJK SC';-inkscape-font-specification:'Noto Sans CJK SC';text-align:center;text-anchor:middle"
         id="path4721"
         inkscape:connector-curvature="0" />
    </g>
    <g
       aria-label="服务器"
       style="font-style:normal;font-variant:normal;font-weight:normal;font-stretch:normal;line-height:0%;font-family:'Open Sans';-inkscape-font-specification:'Open Sans';letter-spacing:0px;word-spacing:0px;fill:#000000;fill-opacity:1;stroke:none"
       id="text750106">
      <path
         d="m 595.01669,1021.4299 c 0.018,-0.72 0.036,-1.422 0.036,-2.034 v -0.99 h 2.718 v 3.024 z m 2.754,-7.218 v 2.952 h -2.718 v -2.952 z m 1.242,-1.242 h -5.184 v 6.426 c 0,2.646 -0.09,6.21 -1.332,8.73 0.324,0.126 0.864,0.432 1.098,0.648 0.828,-1.692 1.188,-3.942 1.35,-6.066 h 2.826 v 4.428 c 0,0.252 -0.09,0.324 -0.342,0.342 -0.216,0.018 -0.972,0.018 -1.8,0 0.18,0.342 0.36,0.936 0.396,1.278 1.206,0 1.926,-0.018 2.376,-0.252 0.468,-0.234 0.612,-0.63 0.612,-1.35 z m 8.226,7.362 c -0.414,1.53 -1.026,2.88 -1.8,4.032 -0.828,-1.188 -1.476,-2.556 -1.962,-4.032 z m 0.684,-1.278 -0.234,0.036 h -5.832 v -4.824 h 5.04 v 2.196 c 0,0.216 -0.072,0.288 -0.36,0.288 -0.27,0.018 -1.206,0.018 -2.304,0 0.18,0.324 0.378,0.774 0.432,1.134 1.35,0 2.25,0 2.826,-0.18 0.54,-0.198 0.702,-0.54 0.702,-1.224 v -3.456 h -7.596 v 15.732 h 1.26 v -8.424 h 0.45 c 0.594,1.854 1.386,3.582 2.394,5.04 -0.828,0.972 -1.764,1.746 -2.754,2.286 0.27,0.234 0.612,0.684 0.792,0.99 0.99,-0.576 1.908,-1.35 2.718,-2.304 0.864,1.008 1.836,1.818 2.916,2.43 0.198,-0.324 0.558,-0.774 0.864,-1.026 -1.134,-0.558 -2.142,-1.368 -3.006,-2.358 1.134,-1.602 1.998,-3.618 2.466,-6.066 z"
         style="font-style:normal;font-variant:normal;font-weight:normal;font-stretch:normal;font-size:18px;line-height:1.25;font-family:'Noto Sans CJK SC';-inkscape-font-specification:'Noto Sans CJK SC';text-align:center;text-anchor:middle"
         id="path4731"
         inkscape:connector-curvature="0" />
      <path
         d="m 618.90269,1022.2939 c 0.126,-0.504 0.252,-1.08 0.342,-1.674 l -1.386,-0.108 c -0.072,0.648 -0.198,1.242 -0.342,1.782 h -5.364 v 1.17 h 4.95 c -1.026,2.304 -3.024,3.51 -6.192,4.122 0.252,0.27 0.594,0.828 0.738,1.134 3.528,-0.846 5.742,-2.358 6.876,-5.256 h 5.454 c -0.306,2.358 -0.666,3.456 -1.08,3.798 -0.198,0.144 -0.414,0.162 -0.774,0.162 -0.45,0 -1.584,-0.018 -2.718,-0.126 0.234,0.342 0.396,0.828 0.414,1.188 1.062,0.072 2.142,0.072 2.664,0.054 0.666,-0.036 1.062,-0.126 1.458,-0.486 0.612,-0.558 1.026,-1.908 1.404,-5.166 0.054,-0.18 0.072,-0.594 0.072,-0.594 z m -2.97,-6.984 h 7.272 c -1.062,1.062 -2.538,1.926 -4.23,2.61 -1.386,-0.594 -2.52,-1.368 -3.312,-2.358 z m 8.532,-1.224 -0.234,0.072 h -7.254 c 0.432,-0.522 0.81,-1.062 1.152,-1.584 l -1.404,-0.288 c -0.918,1.566 -2.7,3.42 -5.22,4.698 0.288,0.216 0.648,0.684 0.828,0.99 0.918,-0.522 1.746,-1.062 2.466,-1.656 0.738,0.846 1.638,1.548 2.682,2.124 -2.124,0.684 -4.482,1.116 -6.768,1.332 0.216,0.306 0.45,0.828 0.54,1.17 2.61,-0.324 5.31,-0.864 7.704,-1.8 2.088,0.864 4.59,1.35 7.344,1.584 0.162,-0.378 0.468,-0.9 0.738,-1.206 -2.394,-0.144 -4.626,-0.468 -6.498,-1.044 1.98,-0.972 3.654,-2.214 4.734,-3.834 z"
         style="font-style:normal;font-variant:normal;font-weight:normal;font-stretch:normal;font-size:18px;line-height:1.25;font-family:'Noto Sans CJK SC';-inkscape-font-specification:'Noto Sans CJK SC';text-align:center;text-anchor:middle"
         id="path4733"
         inkscape:connector-curvature="0" />
      <path
         d="m 642.24869,1016.8039 h -3.33 v -2.538 h 3.33 z m 1.296,-3.69 h -5.868 v 4.842 h 5.868 z m -4.698,13.932 v -2.646 h 3.186 v 2.646 z m -4.194,0 h -2.988 v -2.646 h 2.988 z m -0.18,-10.242 h -3.186 v -2.538 h 3.186 z m 10.386,4.158 v -1.188 h -3.114 l 0.432,-0.45 c -0.594,-0.468 -1.728,-1.026 -2.646,-1.332 l -0.702,0.702 c 0.72,0.27 1.548,0.684 2.142,1.08 h -5.022 c 0.414,-0.576 0.774,-1.17 1.08,-1.764 l -1.278,-0.252 v -4.644 h -5.67 v 4.842 h 5.472 c -0.288,0.594 -0.684,1.224 -1.206,1.818 h -5.544 v 1.188 h 4.392 c -1.206,1.044 -2.772,1.998 -4.716,2.718 0.252,0.216 0.612,0.702 0.72,1.008 0.432,-0.162 0.828,-0.342 1.224,-0.522 v 4.572 h 1.242 v -0.522 h 2.988 v 0.432 h 1.278 v -5.418 h -3.798 c 1.116,-0.684 2.052,-1.458 2.826,-2.268 h 3.366 c 0.81,0.846 1.854,1.638 3.006,2.268 h -3.726 v 5.508 h 1.242 v -0.522 h 3.186 v 0.432 h 1.296 v -4.5 c 0.342,0.126 0.684,0.234 1.026,0.342 0.18,-0.324 0.54,-0.81 0.846,-1.062 -1.89,-0.468 -3.852,-1.368 -5.202,-2.466 z"
         style="font-style:normal;font-variant:normal;font-weight:normal;font-stretch:normal;font-size:18px;line-height:1.25;font-family:'Noto Sans CJK SC';-inkscape-font-specification:'Noto Sans CJK SC';text-align:center;text-anchor:middle"
         id="path4735"
         inkscape:connector-curvature="0" />
    </g>
    <rect
       width="645"
       height="340"
       rx="9"
       ry="9"
       x="40"
       y="492.7193"
       id="rect6978-9-64-3-0-9-2"
       style="color:#000000;display:inline;overflow:visible;visibility:visible;fill:#000000;fill-opacity:0.00784314;fill-rule:nonzero;stroke:#666666;stroke-width:1;stroke-linecap:butt;stroke-linejoin:miter;stroke-miterlimit:4;stroke-dasharray:1.99999999, 1;stroke-dashoffset:0;stroke-opacity:1;marker:none;enable-background:accumulate" />
    <g
       aria-label="AutoYaST 目录"
       style="font-style:normal;font-variant:normal;font-weight:normal;font-stretch:normal;line-height:0%;font-family:'Open Sans';-inkscape-font-specification:'Open Sans';letter-spacing:0px;word-spacing:0px;fill:#000000;fill-opacity:1;stroke:none"
       id="text1047613">
      <path
         d="m 301.63867,480.21771 -1.95508,-4.99511 h -6.29492 l -1.93359,4.99511 h -1.84766 l 6.20899,-15.76953 h 1.53613 l 6.17676,15.76953 z m -2.52441,-6.63867 -1.82617,-4.86621 q -0.3545,-0.92383 -0.73047,-2.2666 -0.23633,1.03125 -0.67676,2.2666 l -1.84766,4.86621 z"
         style="font-size:22px;line-height:1.25;text-align:center;text-anchor:middle"
         id="path4607"
         inkscape:connector-curvature="0" />
      <path
         d="m 307.0957,468.44427 v 7.6377 q 0,1.43945 0.65528,2.14844 0.65527,0.70898 2.05175,0.70898 1.84766,0 2.69629,-1.00976 0.85938,-1.00977 0.85938,-3.29786 v -6.1875 h 1.7832 v 11.77344 h -1.47168 l -0.25781,-1.5791 h -0.0967 q -0.54785,0.87012 -1.52539,1.33203 -0.9668,0.46192 -2.21289,0.46192 -2.14844,0 -3.22266,-1.02051 -1.06347,-1.02051 -1.06347,-3.26563 v -7.70215 z"
         style="font-size:22px;line-height:1.25;text-align:center;text-anchor:middle"
         id="path4609"
         inkscape:connector-curvature="0" />
      <path
         d="m 322.71484,478.96088 q 0.47266,0 0.91309,-0.0645 0.44043,-0.0752 0.69824,-0.15039 v 1.36426 q -0.29004,0.13965 -0.85937,0.22559 -0.5586,0.0967 -1.00977,0.0967 -3.41601,0 -3.41601,-3.59864 V 469.83 h -1.68653 v -0.85938 l 1.68653,-0.74121 0.75195,-2.51367 h 1.03125 v 2.72851 h 3.41601 V 469.83 h -3.41601 v 6.92871 q 0,1.06347 0.50488,1.63281 0.50488,0.56934 1.38574,0.56934 z"
         style="font-size:22px;line-height:1.25;text-align:center;text-anchor:middle"
         id="path4611"
         inkscape:connector-curvature="0" />
      <path
         d="m 336.85156,474.32025 q 0,2.87891 -1.45019,4.50098 -1.4502,1.61133 -4.00684,1.61133 -1.5791,0 -2.80371,-0.74121 -1.22461,-0.74122 -1.89062,-2.12696 -0.66602,-1.38574 -0.66602,-3.24414 0,-2.8789 1.43945,-4.47949 1.43946,-1.61133 3.9961,-1.61133 2.4707,0 3.92089,1.64356 1.46094,1.64355 1.46094,4.44726 z m -8.96972,0 q 0,2.25586 0.90234,3.4375 0.90234,1.18164 2.65332,1.18164 1.75098,0 2.65332,-1.1709 0.91309,-1.18164 0.91309,-3.44824 0,-2.24512 -0.91309,-3.40527 -0.90234,-1.1709 -2.6748,-1.1709 -1.75098,0 -2.64258,1.14941 -0.8916,1.14942 -0.8916,3.42676 z"
         style="font-size:22px;line-height:1.25;text-align:center;text-anchor:middle"
         id="path4613"
         inkscape:connector-curvature="0" />
      <path
         d="m 344.23145,472.36517 4.18945,-7.85254 h 1.97656 l -5.24219,9.61426 v 6.09082 h -1.84765 v -6.00488 l -5.23145,-9.7002 h 1.99805 z"
         style="font-size:22px;line-height:1.25;text-align:center;text-anchor:middle"
         id="path4615"
         inkscape:connector-curvature="0" />
      <path
         d="m 359.53906,480.21771 -0.35449,-1.67578 h -0.0859 q -0.88086,1.10645 -1.76172,1.50391 -0.87011,0.38672 -2.18066,0.38672 -1.75098,0 -2.75,-0.90235 -0.98828,-0.90234 -0.98828,-2.56738 0,-3.56641 5.7041,-3.73828 l 1.99805,-0.0645 v -0.73047 q 0,-1.38575 -0.60157,-2.04102 -0.59082,-0.66601 -1.90136,-0.66601 -1.47168,0 -3.33008,0.90234 l -0.54785,-1.36426 q 0.87011,-0.47266 1.90136,-0.74121 1.042,-0.26855 2.08399,-0.26855 2.10547,0 3.11523,0.93457 1.02051,0.93457 1.02051,2.99707 v 8.03515 z m -4.02832,-1.25683 q 1.66504,0 2.61035,-0.91309 0.95606,-0.91309 0.95606,-2.55664 v -1.06348 l -1.7832,0.0752 q -2.12696,0.0752 -3.07227,0.66601 -0.93457,0.58008 -0.93457,1.81543 0,0.9668 0.58008,1.47168 0.59082,0.50489 1.64355,0.50489 z"
         style="font-size:22px;line-height:1.25;text-align:center;text-anchor:middle"
         id="path4617"
         inkscape:connector-curvature="0" />
      <path
         d="m 373.67578,476.039 q 0,2.07324 -1.50391,3.2334 -1.5039,1.16016 -4.08203,1.16016 -2.79297,0 -4.29687,-0.71973 v -1.76172 q 0.9668,0.4082 2.10547,0.64453 1.13867,0.23633 2.25586,0.23633 1.82617,0 2.75,-0.6875 0.92382,-0.69824 0.92382,-1.93359 0,-0.81641 -0.333,-1.33203 -0.32227,-0.52637 -1.09571,-0.9668 -0.76269,-0.44043 -2.33105,-0.99903 -2.19141,-0.78417 -3.13672,-1.85839 -0.93457,-1.07422 -0.93457,-2.80371 0,-1.81543 1.36426,-2.88965 1.36426,-1.07422 3.60937,-1.07422 2.3418,0 4.30762,0.85937 l -0.56934,1.58985 q -1.94433,-0.81641 -3.78125,-0.81641 -1.45019,0 -2.2666,0.62305 -0.8164,0.62304 -0.8164,1.72949 0,0.81641 0.30078,1.34277 0.30078,0.51563 1.00976,0.95606 0.71973,0.42969 2.19141,0.95605 2.4707,0.88086 3.39453,1.89063 0.93457,1.00976 0.93457,2.62109 z"
         style="font-size:22px;line-height:1.25;text-align:center;text-anchor:middle"
         id="path4619"
         inkscape:connector-curvature="0" />
      <path
         d="m 381.72168,480.21771 h -1.82617 V 466.1347 h -4.97364 v -1.62207 h 11.77344 v 1.62207 h -4.97363 z"
         style="font-size:22px;line-height:1.25;text-align:center;text-anchor:middle"
         id="path4621"
         inkscape:connector-curvature="0" />
      <path
         d="m 397.75152,478.67771 v -3.608 h 11.506 v 3.608 z m 11.506,-8.778 v 3.608 h -11.506 v -3.608 z m 0,-5.126 v 3.564 h -11.506 v -3.564 z m -13.112,-1.584 v 18.59 h 1.606 v -1.496 h 11.506 v 1.496 h 1.694 v -18.59 z"
         style="font-style:normal;font-variant:normal;font-weight:normal;font-stretch:normal;font-family:'Noto Sans CJK SC';-inkscape-font-specification:'Noto Sans CJK SC'"
         id="path4623"
         inkscape:connector-curvature="0" />
      <path
         d="m 432.37952,472.07771 c -0.99,0.99 -2.596,2.266 -3.96,3.212 -0.814,-0.946 -1.496,-2.002 -2.024,-3.124 v -0.638 h 8.822 v -1.452 h -2.992 c 0.198,-2.244 0.374,-4.95 0.418,-7.018 l -1.276,-0.088 -0.308,0.066 h -13.42 v 1.518 h 13.222 c -0.022,0.594 -0.066,1.32 -0.088,2.024 h -12.496 v 1.496 h 12.408 c -0.044,0.682 -0.088,1.364 -0.132,2.002 h -14.41 v 1.452 h 8.624 v 4.004 c -3.168,1.298 -6.468,2.64 -8.58,3.432 l 0.858,1.452 c 2.156,-0.902 5.016,-2.134 7.722,-3.344 v 3.036 c 0,0.308 -0.11,0.418 -0.484,0.44 -0.33,0.022 -1.54,0.022 -2.838,-0.044 0.22,0.418 0.484,1.012 0.572,1.452 1.694,0 2.794,0 3.476,-0.242 0.682,-0.242 0.902,-0.638 0.902,-1.584 v -5.17 c 1.892,2.86 4.62,4.994 8.03,6.094 0.242,-0.462 0.704,-1.1 1.078,-1.43 -2.376,-0.638 -4.444,-1.804 -6.094,-3.322 1.386,-0.858 3.058,-2.09 4.356,-3.212 z m -14.74,1.122 c 1.386,0.836 3.146,2.068 3.982,2.904 l 1.144,-1.122 c -0.88,-0.836 -2.662,-2.002 -4.048,-2.75 z"
         style="font-style:normal;font-variant:normal;font-weight:normal;font-stretch:normal;font-family:'Noto Sans CJK SC';-inkscape-font-specification:'Noto Sans CJK SC'"
         id="path4625"
         inkscape:connector-curvature="0" />
    </g>
    <g
       aria-label="rules.xml 文件"
       style="font-style:normal;font-variant:normal;font-weight:normal;font-stretch:normal;line-height:0%;font-family:'Open Sans';-inkscape-font-specification:'Open Sans';letter-spacing:0px;word-spacing:0px;fill:#000000;fill-opacity:1;stroke:none"
       id="text1047617">
      <path
         d="m 305.8418,505.71997 q 0.71289,0 1.27929,0.11719 l -0.22461,1.5039 q -0.66406,-0.14648 -1.17187,-0.14648 -1.29883,0 -2.22656,1.05469 -0.91797,1.05469 -0.91797,2.62695 v 5.74219 h -1.6211 v -10.70313 h 1.33789 l 0.18555,1.98243 h 0.0781 q 0.5957,-1.04493 1.43554,-1.61133 0.83985,-0.56641 1.84571,-0.56641 z"
         style="font-size:20px;line-height:1.25;text-align:center;text-anchor:middle"
         id="path4628"
         inkscape:connector-curvature="0" />
      <path
         d="m 310.64648,505.91528 v 6.94336 q 0,1.3086 0.59571,1.95313 0.5957,0.64453 1.86523,0.64453 1.67969,0 2.45117,-0.91797 0.78125,-0.91797 0.78125,-2.99805 v -5.625 h 1.6211 v 10.70313 h -1.33789 l -0.23438,-1.43555 h -0.0879 q -0.49805,0.79102 -1.38672,1.21094 -0.8789,0.41992 -2.01172,0.41992 -1.95312,0 -2.92968,-0.92773 -0.9668,-0.92774 -0.9668,-2.96875 v -7.00196 z"
         style="font-size:20px;line-height:1.25;text-align:center;text-anchor:middle"
         id="path4630"
         inkscape:connector-curvature="0" />
      <path
         d="m 323.00977,516.61841 h -1.6211 V 501.4231 h 1.6211 z"
         style="font-size:20px;line-height:1.25;text-align:center;text-anchor:middle"
         id="path4632"
         inkscape:connector-curvature="0" />
      <path
         d="m 330.98828,516.81372 q -2.37305,0 -3.75,-1.44531 -1.36719,-1.44531 -1.36719,-4.01367 0,-2.58789 1.26953,-4.11133 1.2793,-1.52344 3.42774,-1.52344 2.01172,0 3.18359,1.32813 1.17188,1.31836 1.17188,3.48632 v 1.02539 h -7.37305 q 0.0488,1.88477 0.94727,2.86133 0.9082,0.97657 2.54882,0.97657 1.72852,0 3.41797,-0.72266 v 1.44531 q -0.85937,0.3711 -1.63086,0.52735 -0.76171,0.16601 -1.8457,0.16601 z m -0.43945,-9.73633 q -1.28906,0 -2.06055,0.83985 -0.76172,0.83984 -0.89844,2.32422 h 5.59571 q 0,-1.53321 -0.6836,-2.34375 -0.68359,-0.82032 -1.95312,-0.82032 z"
         style="font-size:20px;line-height:1.25;text-align:center;text-anchor:middle"
         id="path4634"
         inkscape:connector-curvature="0" />
      <path
         d="m 344.58203,513.69849 q 0,1.49414 -1.11328,2.30468 -1.11328,0.81055 -3.125,0.81055 -2.12891,0 -3.32031,-0.67383 v -1.5039 q 0.77148,0.39062 1.65039,0.61523 0.88867,0.22461 1.70898,0.22461 1.26953,0 1.95313,-0.40039 0.68359,-0.41016 0.68359,-1.24023 0,-0.625 -0.54687,-1.06446 -0.53711,-0.44922 -2.10938,-1.05469 -1.49414,-0.55664 -2.12891,-0.96679 -0.625,-0.41992 -0.9375,-0.94727 -0.30273,-0.52734 -0.30273,-1.25976 0,-1.3086 1.06445,-2.06055 1.06446,-0.76172 2.91993,-0.76172 1.72851,0 3.3789,0.70313 l -0.57617,1.31836 q -1.61133,-0.66407 -2.91992,-0.66407 -1.15235,0 -1.73828,0.36133 -0.58594,0.36133 -0.58594,0.99609 0,0.42969 0.21484,0.73243 0.22461,0.30273 0.71289,0.57617 0.48828,0.27344 1.875,0.79101 1.9043,0.69336 2.56836,1.39649 0.67383,0.70312 0.67383,1.76758 z"
         style="font-size:20px;line-height:1.25;text-align:center;text-anchor:middle"
         id="path4636"
         inkscape:connector-curvature="0" />
      <path
         d="m 346.97461,515.58325 q 0,-0.65429 0.29297,-0.98633 0.30273,-0.34179 0.85937,-0.34179 0.56641,0 0.87891,0.34179 0.32226,0.33204 0.32226,0.98633 0,0.63477 -0.32226,0.97656 -0.32227,0.3418 -0.87891,0.3418 -0.49804,0 -0.83008,-0.30273 -0.32226,-0.3125 -0.32226,-1.01563 z"
         style="font-size:20px;line-height:1.25;text-align:center;text-anchor:middle"
         id="path4638"
         inkscape:connector-curvature="0" />
      <path
         d="m 355.09961,511.13989 -3.7207,-5.22461 h 1.8457 l 2.82226,4.10157 2.8125,-4.10157 h 1.82618 l -3.72071,5.22461 3.91602,5.47852 h -1.83594 l -2.99805,-4.33594 -3.02734,4.33594 h -1.83594 z"
         style="font-size:20px;line-height:1.25;text-align:center;text-anchor:middle"
         id="path4640"
         inkscape:connector-curvature="0" />
      <path
         d="m 376.63281,516.61841 v -6.96289 q 0,-1.2793 -0.54687,-1.91406 -0.54688,-0.64454 -1.69922,-0.64454 -1.51367,0 -2.23633,0.86914 -0.72266,0.86915 -0.72266,2.67579 v 5.97656 h -1.62109 v -6.96289 q 0,-1.2793 -0.54687,-1.91406 -0.54688,-0.64454 -1.70899,-0.64454 -1.52344,0 -2.23633,0.91797 -0.70312,0.90821 -0.70312,2.98828 v 5.61524 h -1.6211 v -10.70313 h 1.31836 l 0.26368,1.46485 h 0.0781 q 0.45898,-0.78125 1.28906,-1.22071 0.83985,-0.43945 1.875,-0.43945 2.50977,0 3.28125,1.81641 h 0.0781 q 0.47851,-0.83985 1.38672,-1.32813 0.9082,-0.48828 2.07031,-0.48828 1.81641,0 2.71484,0.9375 0.90821,0.92774 0.90821,2.97852 v 6.98242 z"
         style="font-size:20px;line-height:1.25;text-align:center;text-anchor:middle"
         id="path4642"
         inkscape:connector-curvature="0" />
      <path
         d="m 383.20508,516.61841 h -1.6211 V 501.4231 h 1.6211 z"
         style="font-size:20px;line-height:1.25;text-align:center;text-anchor:middle"
         id="path4644"
         inkscape:connector-curvature="0" />
      <path
         d="m 401.69867,502.83841 c -0.28,-0.84 -0.96,-2.12 -1.56,-3.06 l -1.54,0.44 c 0.6,0.98 1.24,2.32 1.48,3.14 z m 2.62,2.02 c -1,2.7 -2.34,4.9 -4.12,6.7 -1.88,-1.88 -3.32,-4.16 -4.36,-6.7 z m 4.82,0 v -1.46 h -17.92 v 1.46 h 3.08 c 1.16,3.02 2.74,5.62 4.8,7.74 -2.18,1.84 -4.86,3.2 -8.16,4.14 0.3,0.34 0.74,1.02 0.92,1.38 3.32,-1.06 6.08,-2.5 8.32,-4.46 2.22,2 4.94,3.46 8.2,4.38 0.24,-0.42 0.66,-1.04 1.02,-1.38 -3.18,-0.78 -5.88,-2.2 -8.08,-4.06 2,-2.06 3.54,-4.58 4.68,-7.74 z"
         style="font-style:normal;font-variant:normal;font-weight:normal;font-stretch:normal;font-family:'Noto Sans CJK SC';-inkscape-font-specification:'Noto Sans CJK SC'"
         id="path4646"
         inkscape:connector-curvature="0" />
      <path
         d="m 415.53867,499.95841 c -1.06,3.02 -2.82,6 -4.68,7.94 0.26,0.34 0.7,1.1 0.84,1.46 0.62,-0.7 1.26,-1.48 1.84,-2.34 v 11.1 h 1.42 v -13.4 c 0.76,-1.38 1.42,-2.86 1.98,-4.32 z m 13.56,9.84 h -5.42 v -4.38 h 4.56 v -1.46 h -4.56 v -3.82 h -1.48 v 3.82 h -2.66 c 0.26,-0.9 0.48,-1.84 0.66,-2.78 l -1.4,-0.3 c -0.46,2.58 -1.28,5.18 -2.46,6.82 0.38,0.18 1,0.54 1.28,0.76 0.54,-0.84 1.02,-1.88 1.44,-3.04 h 3.14 v 4.38 h -5.7 v 1.46 h 5.7 v 6.9 h 1.48 v -6.9 h 5.42 z"
         style="font-style:normal;font-variant:normal;font-weight:normal;font-stretch:normal;font-family:'Noto Sans CJK SC';-inkscape-font-specification:'Noto Sans CJK SC'"
         id="path4648"
         inkscape:connector-curvature="0" />
    </g>
    <g
       aria-label="规则 1"
       style="font-style:normal;font-variant:normal;font-weight:normal;font-stretch:normal;line-height:0%;font-family:'Open Sans';-inkscape-font-specification:'Open Sans';letter-spacing:0px;word-spacing:0px;fill:#000000;fill-opacity:1;stroke:none"
       id="text1047631">
      <path
         d="m 344.15084,544.1904 h 4.968 v 8.298 h 1.314 v -9.486 h -7.56 v 9.486 h 1.278 z m -2.016,10.728 c -0.432,-0.54 -2.25,-2.682 -2.952,-3.42 0.036,-0.342 0.072,-0.666 0.108,-0.99 h 2.718 v -1.26 h -2.664 c 0.018,-0.378 0.018,-0.774 0.018,-1.134 v -1.764 h 2.448 v -1.242 h -2.448 v -2.79 h -1.26 v 2.79 h -2.574 v 1.242 h 2.574 v 1.782 c 0,0.342 0,0.738 -0.018,1.116 h -2.952 v 1.26 h 2.898 c -0.18,2.412 -0.81,5.166 -3.006,6.948 0.324,0.198 0.774,0.648 0.936,0.918 1.71,-1.512 2.574,-3.51 2.988,-5.508 0.792,0.99 1.836,2.358 2.25,3.06 z m 6.3,2.196 c -0.468,0 -0.612,-0.108 -0.612,-0.594 v -4.554 h -0.828 c 0.216,-0.972 0.288,-1.926 0.288,-2.808 v -3.438 h -1.26 v 3.42 c 0,2.772 -0.558,6.138 -5.058,8.442 0.234,0.18 0.666,0.702 0.828,0.972 2.718,-1.422 4.122,-3.33 4.824,-5.274 v 3.366 c 0,1.206 0.468,1.53 1.638,1.53 h 1.422 c 1.476,0 1.692,-0.702 1.836,-3.492 -0.324,-0.072 -0.774,-0.27 -1.098,-0.522 -0.072,2.484 -0.162,2.952 -0.72,2.952 z"
         style="font-style:normal;font-variant:normal;font-weight:normal;font-stretch:normal;font-family:'Noto Sans CJK SC';-inkscape-font-specification:'Noto Sans CJK SC'"
         id="path4651"
         inkscape:connector-curvature="0" />
      <path
         d="m 358.13684,555.0984 c 1.116,0.936 2.538,2.232 3.222,3.042 l 0.882,-0.972 c -0.72,-0.792 -2.178,-2.016 -3.276,-2.898 z m -3.924,-12.006 v 10.854 h 1.26 v -9.648 h 5.166 v 9.612 h 1.296 v -10.818 z m 13.05,-0.828 v 14.436 c 0,0.324 -0.144,0.432 -0.468,0.45 -0.342,0 -1.458,0.018 -2.736,-0.018 0.216,0.36 0.432,0.972 0.504,1.332 1.638,0.018 2.61,-0.036 3.204,-0.252 0.558,-0.216 0.81,-0.612 0.81,-1.53 v -14.418 z m -3.312,1.476 v 10.71 h 1.26 v -10.71 z m -6.57,1.8 v 5.058 c 0,2.448 -0.45,5.166 -4.212,7.002 0.27,0.198 0.684,0.702 0.828,0.99 4.014,-1.944 4.644,-5.202 4.644,-7.956 v -5.094 z"
         style="font-style:normal;font-variant:normal;font-weight:normal;font-stretch:normal;font-family:'Noto Sans CJK SC';-inkscape-font-specification:'Noto Sans CJK SC'"
         id="path4653"
         inkscape:connector-curvature="0" />
      <path
         d="m 381.2648,557.1864 h -1.42383 v -9.1582 q 0,-1.14258 0.0703,-2.16211 -0.18457,0.18457 -0.41309,0.38672 -0.22852,0.20215 -2.0918,1.71386 l -0.77343,-1.00195 3.40136,-2.62793 h 1.23047 z"
         style="font-size:18px;line-height:1.25"
         id="path4655"
         inkscape:connector-curvature="0" />
    </g>
    <g
       aria-label="规则 2"
       style="font-style:normal;font-variant:normal;font-weight:normal;font-stretch:normal;line-height:0%;font-family:'Open Sans';-inkscape-font-specification:'Open Sans';letter-spacing:0px;word-spacing:0px;fill:#000000;fill-opacity:1;stroke:none"
       id="text1047635">
      <path
         d="m 344.18209,569.1904 h 4.968 v 8.298 h 1.314 v -9.486 h -7.56 v 9.486 h 1.278 z m -2.016,10.728 c -0.432,-0.54 -2.25,-2.682 -2.952,-3.42 0.036,-0.342 0.072,-0.666 0.108,-0.99 h 2.718 v -1.26 h -2.664 c 0.018,-0.378 0.018,-0.774 0.018,-1.134 v -1.764 h 2.448 v -1.242 h -2.448 v -2.79 h -1.26 v 2.79 h -2.574 v 1.242 h 2.574 v 1.782 c 0,0.342 0,0.738 -0.018,1.116 h -2.952 v 1.26 h 2.898 c -0.18,2.412 -0.81,5.166 -3.006,6.948 0.324,0.198 0.774,0.648 0.936,0.918 1.71,-1.512 2.574,-3.51 2.988,-5.508 0.792,0.99 1.836,2.358 2.25,3.06 z m 6.3,2.196 c -0.468,0 -0.612,-0.108 -0.612,-0.594 v -4.554 h -0.828 c 0.216,-0.972 0.288,-1.926 0.288,-2.808 v -3.438 h -1.26 v 3.42 c 0,2.772 -0.558,6.138 -5.058,8.442 0.234,0.18 0.666,0.702 0.828,0.972 2.718,-1.422 4.122,-3.33 4.824,-5.274 v 3.366 c 0,1.206 0.468,1.53 1.638,1.53 h 1.422 c 1.476,0 1.692,-0.702 1.836,-3.492 -0.324,-0.072 -0.774,-0.27 -1.098,-0.522 -0.072,2.484 -0.162,2.952 -0.72,2.952 z"
         style="font-style:normal;font-variant:normal;font-weight:normal;font-stretch:normal;font-family:'Noto Sans CJK SC';-inkscape-font-specification:'Noto Sans CJK SC'"
         id="path4658"
         inkscape:connector-curvature="0" />
      <path
         d="m 358.16809,580.0984 c 1.116,0.936 2.538,2.232 3.222,3.042 l 0.882,-0.972 c -0.72,-0.792 -2.178,-2.016 -3.276,-2.898 z m -3.924,-12.006 v 10.854 h 1.26 v -9.648 h 5.166 v 9.612 h 1.296 v -10.818 z m 13.05,-0.828 v 14.436 c 0,0.324 -0.144,0.432 -0.468,0.45 -0.342,0 -1.458,0.018 -2.736,-0.018 0.216,0.36 0.432,0.972 0.504,1.332 1.638,0.018 2.61,-0.036 3.204,-0.252 0.558,-0.216 0.81,-0.612 0.81,-1.53 v -14.418 z m -3.312,1.476 v 10.71 h 1.26 v -10.71 z m -6.57,1.8 v 5.058 c 0,2.448 -0.45,5.166 -4.212,7.002 0.27,0.198 0.684,0.702 0.828,0.99 4.014,-1.944 4.644,-5.202 4.644,-7.956 v -5.094 z"
         style="font-style:normal;font-variant:normal;font-weight:normal;font-stretch:normal;font-family:'Noto Sans CJK SC';-inkscape-font-specification:'Noto Sans CJK SC'"
         id="path4660"
         inkscape:connector-curvature="0" />
      <path
         d="m 384.33707,582.1864 h -8.44629 v -1.25683 l 3.38379,-3.40137 q 1.54687,-1.56445 2.03906,-2.23242 0.49219,-0.66797 0.73828,-1.30078 0.24609,-0.63282 0.24609,-1.36231 0,-1.02832 -0.62402,-1.62598 -0.62402,-0.60644 -1.73144,-0.60644 -0.79981,0 -1.52051,0.26367 -0.71192,0.26367 -1.59082,0.95801 l -0.77344,-0.99317 q 1.77539,-1.47656 3.86719,-1.47656 1.81054,0 2.83886,0.93164 1.02832,0.92285 1.02832,2.48731 0,1.22168 -0.68554,2.41699 -0.68555,1.19531 -2.56641,3.02344 l -2.8125,2.75097 v 0.0703 h 6.60938 z"
         style="font-size:18px;line-height:1.25"
         id="path4662"
         inkscape:connector-curvature="0" />
    </g>
    <g
       aria-label="规则 3"
       style="font-style:normal;font-variant:normal;font-weight:normal;font-stretch:normal;line-height:0%;font-family:'Open Sans';-inkscape-font-specification:'Open Sans';letter-spacing:0px;word-spacing:0px;fill:#000000;fill-opacity:1;stroke:none"
       id="text1047639">
      <path
         d="m 343.86889,595.1904 h 4.968 v 8.298 h 1.314 v -9.486 h -7.56 v 9.486 h 1.278 z m -2.016,10.728 c -0.432,-0.54 -2.25,-2.682 -2.952,-3.42 0.036,-0.342 0.072,-0.666 0.108,-0.99 h 2.718 v -1.26 h -2.664 c 0.018,-0.378 0.018,-0.774 0.018,-1.134 v -1.764 h 2.448 v -1.242 h -2.448 v -2.79 h -1.26 v 2.79 h -2.574 v 1.242 h 2.574 v 1.782 c 0,0.342 0,0.738 -0.018,1.116 h -2.952 v 1.26 h 2.898 c -0.18,2.412 -0.81,5.166 -3.006,6.948 0.324,0.198 0.774,0.648 0.936,0.918 1.71,-1.512 2.574,-3.51 2.988,-5.508 0.792,0.99 1.836,2.358 2.25,3.06 z m 6.3,2.196 c -0.468,0 -0.612,-0.108 -0.612,-0.594 v -4.554 h -0.828 c 0.216,-0.972 0.288,-1.926 0.288,-2.808 v -3.438 h -1.26 v 3.42 c 0,2.772 -0.558,6.138 -5.058,8.442 0.234,0.18 0.666,0.702 0.828,0.972 2.718,-1.422 4.122,-3.33 4.824,-5.274 v 3.366 c 0,1.206 0.468,1.53 1.638,1.53 h 1.422 c 1.476,0 1.692,-0.702 1.836,-3.492 -0.324,-0.072 -0.774,-0.27 -1.098,-0.522 -0.072,2.484 -0.162,2.952 -0.72,2.952 z"
         style="font-style:normal;font-variant:normal;font-weight:normal;font-stretch:normal;font-family:'Noto Sans CJK SC';-inkscape-font-specification:'Noto Sans CJK SC'"
         id="path4665"
         inkscape:connector-curvature="0" />
      <path
         d="m 357.85489,606.0984 c 1.116,0.936 2.538,2.232 3.222,3.042 l 0.882,-0.972 c -0.72,-0.792 -2.178,-2.016 -3.276,-2.898 z m -3.924,-12.006 v 10.854 h 1.26 v -9.648 h 5.166 v 9.612 h 1.296 v -10.818 z m 13.05,-0.828 v 14.436 c 0,0.324 -0.144,0.432 -0.468,0.45 -0.342,0 -1.458,0.018 -2.736,-0.018 0.216,0.36 0.432,0.972 0.504,1.332 1.638,0.018 2.61,-0.036 3.204,-0.252 0.558,-0.216 0.81,-0.612 0.81,-1.53 v -14.418 z m -3.312,1.476 v 10.71 h 1.26 v -10.71 z m -6.57,1.8 v 5.058 c 0,2.448 -0.45,5.166 -4.212,7.002 0.27,0.198 0.684,0.702 0.828,0.99 4.014,-1.944 4.644,-5.202 4.644,-7.956 v -5.094 z"
         style="font-style:normal;font-variant:normal;font-weight:normal;font-stretch:normal;font-family:'Noto Sans CJK SC';-inkscape-font-specification:'Noto Sans CJK SC'"
         id="path4667"
         inkscape:connector-curvature="0" />
      <path
         d="m 383.54047,598.36023 q 0,1.23047 -0.69434,2.01269 -0.68555,0.78223 -1.95117,1.0459 v 0.0703 q 1.54687,0.19336 2.29394,0.98437 0.74707,0.79102 0.74707,2.07422 0,1.83691 -1.27441,2.83008 -1.27441,0.98437 -3.62109,0.98437 -1.01953,0 -1.87207,-0.1582 -0.84375,-0.14941 -1.64356,-0.53613 v -1.38868 q 0.83496,0.41309 1.77539,0.63282 0.94922,0.21093 1.79297,0.21093 3.33106,0 3.33106,-2.61035 0,-2.33789 -3.67383,-2.33789 h -1.26563 v -1.25683 h 1.28321 q 1.50293,0 2.38183,-0.65918 0.87891,-0.66797 0.87891,-1.84571 0,-0.94043 -0.65039,-1.47656 -0.6416,-0.53613 -1.74903,-0.53613 -0.84375,0 -1.59082,0.22851 -0.74707,0.22852 -1.70507,0.84375 l -0.73829,-0.98437 q 0.79102,-0.62402 1.81934,-0.97559 1.03711,-0.36035 2.17969,-0.36035 1.87207,0 2.90918,0.86133 1.03711,0.85254 1.03711,2.34668 z"
         style="font-size:18px;line-height:1.25"
         id="path4669"
         inkscape:connector-curvature="0" />
    </g>
    <path
       style="fill:none;stroke:#464546;stroke-width:1px;stroke-linecap:butt;stroke-linejoin:miter;stroke-opacity:1"
       d="m 324.92745,526.9866 v 95 h 75 v -80 h -15 v -15 z"
       id="path1047653"
       inkscape:connector-curvature="0" />
    <path
       style="fill:none;stroke:#464546;stroke-width:1.00000012px;stroke-linecap:butt;stroke-linejoin:miter;stroke-opacity:1"
       d="m 385.07252,526.86385 15.00002,14.99999"
       id="path1047655"
       inkscape:connector-curvature="0" />
    <path
       inkscape:connector-curvature="0"
       id="path683110"
       style="fill:#5f5f5f;fill-opacity:1;fill-rule:nonzero;stroke:none"
       d="m 382.5,669.73267 c 0,11.04412 -8.95281,20.00138 -19.99931,20.00138 -11.04373,0 -20.00069,-8.95726 -20.00069,-20.00138 0,-11.04688 8.95696,-19.99862 20.00069,-19.99862 11.0465,0 19.99931,8.95174 19.99931,19.99862" />
    <path
       inkscape:connector-curvature="0"
       id="path683114"
       style="fill:#df1e26;fill-opacity:1;fill-rule:nonzero;stroke:none"
       d="m 359.90378,669.58697 h 0.001 z" />
    <path
       inkscape:connector-curvature="0"
       id="path683118"
       style="fill:#ffffff;fill-opacity:1;fill-rule:nonzero;stroke:none"
       d="m 374.12303,665.32454 c -0.60432,0.2918 -1.33172,0.0346 -1.62213,-0.57253 -0.2904,-0.60573 -0.0346,-1.33454 0.57252,-1.62357 0.60709,-0.2918 1.33172,-0.0346 1.62351,0.57253 0.2904,0.6085 0.036,1.33454 -0.5739,1.62357 m 2.07156,-1.0455 c 0.036,-1.2806 1.24184,-1.00677 1.972,-1.54474 -0.0664,-0.19499 -0.14244,-0.39137 -0.23647,-0.58359 -0.19776,-0.41074 -0.44529,-0.78275 -0.73432,-1.1105 -0.7509,0.39275 -1.21002,1.58899 -2.27899,0.94869 -1.09802,-0.65413 -0.26828,-1.57793 -0.37891,-2.47683 -0.63475,-0.12447 -1.29853,-0.1217 -1.95126,0.0194 -0.0276,0.84497 0.78687,1.831 -0.2904,2.44641 -1.11046,0.63477 -1.50873,-0.5352 -2.34676,-0.88093 -0.35679,0.42179 -0.63751,0.89476 -0.83527,1.40506 0.69698,0.48679 1.96647,0.34573 1.89041,1.58761 -0.0761,1.27507 -1.27364,0.96252 -2.0204,1.47559 0.0719,0.24893 0.16457,0.49647 0.28211,0.73987 0.17148,0.36233 0.38721,0.69147 0.62783,0.98603 0.76889,-0.36509 1.26396,-1.54473 2.31495,-0.86986 1.07312,0.69423 0.21435,1.58346 0.29318,2.48236 0.63336,0.14798 1.29576,0.17011 1.95402,0.0512 0.0512,-0.84497 -0.72879,-1.85866 0.37338,-2.43949 1.12981,-0.59605 1.4866,0.58913 2.31218,0.95975 0.44391,-0.48956 0.78272,-1.05932 0.99568,-1.67473 -0.70804,-0.46467 -1.97476,-0.27797 -1.94296,-1.52123 m -16.60017,11.96515 c -2.54313,0 -4.60224,-2.06057 -4.60224,-4.6024 0,-2.54184 2.05911,-4.60241 4.60224,-4.60241 2.54037,0 4.60087,2.06057 4.60087,4.60241 0,2.54183 -2.0605,4.6024 -4.60087,4.6024 m 9.56128,-5.61471 c -0.10095,-1.4023 2.09646,-1.08284 2.80864,-1.94441 -0.11892,-0.49786 -0.26551,-0.98327 -0.44252,-1.45623 -1.00121,-0.30286 -2.85151,1.07454 -3.47796,-0.1784 -0.63336,-1.2557 1.51703,-1.7992 1.84892,-2.8682 -0.29732,-0.4135 -0.62645,-0.80764 -0.97355,-1.18656 -1.04408,0.10925 -2.22368,2.0827 -3.27883,1.16719 -1.0662,-0.91826 0.71357,-2.2445 0.60986,-3.36053 -0.43146,-0.26137 -0.87814,-0.502 -1.33864,-0.71774 -0.92515,0.49647 -1.26257,2.7797 -2.59015,2.33578 -1.33586,-0.44254 -0.19913,-2.34684 -0.72048,-3.33841 -0.49922,-0.0802 -1.00812,-0.12861 -1.52671,-0.14797 -0.6624,0.81316 -0.0982,3.04384 -1.49213,3.14618 -1.40225,0.10095 -1.08142,-2.09515 -1.94711,-2.80874 -0.49507,0.11893 -0.98046,0.2669 -1.45341,0.437 -0.307,1.00816 1.0745,2.85853 -0.17563,3.485 -1.25704,0.62923 -1.8019,-1.51846 -2.87502,-1.85313 -0.4121,0.30562 -0.80899,0.62923 -1.18513,0.97496 0.10925,1.0455 2.08677,2.22376 1.17407,3.28171 -0.92239,1.06209 -2.24719,-0.71498 -3.36318,-0.60988 -0.26413,0.42871 -0.50614,0.8754 -0.71772,1.34007 0.49231,0.92656 2.77545,1.26123 2.33431,2.58747 -0.4439,1.3373 -2.34814,0.19637 -3.33828,0.72051 -0.0788,0.50062 -0.13138,1.00816 -0.14659,1.52676 0.8159,0.66104 3.04097,0.0996 3.14054,1.49357 0.10509,1.40367 -2.08955,1.08283 -2.80726,1.9444 0.12031,0.49648 0.26413,0.98327 0.44114,1.45623 1.00812,0.30287 2.85704,-1.07592 3.48487,0.17564 0.62783,1.25847 -1.51979,1.80058 -1.85445,2.87097 0.30423,0.41349 0.62783,0.8104 0.97355,1.18241 1.04685,-0.10511 2.22368,-2.07994 3.28159,-1.16305 1.06344,0.91827 -0.71633,2.2445 -0.60847,3.35638 0.4287,0.26829 0.87537,0.50754 1.34002,0.71913 0.92238,-0.49509 1.25843,-2.77694 2.586,-2.3344 1.33448,0.44669 0.19913,2.34823 0.72048,3.33841 0.49784,0.0788 1.00813,0.12723 1.52671,0.14935 0.66378,-0.81316 0.0996,-3.0466 1.4949,-3.14755 1.40363,-0.0996 1.08418,2.09376 1.94434,2.81012 0.49369,-0.11893 0.98323,-0.26829 1.45479,-0.44392 0.30424,-1.00125 -1.07035,-2.84885 0.1784,-3.47532 1.25704,-0.632 1.79775,1.51431 2.86672,1.84484 0.41487,-0.29733 0.81175,-0.62371 1.18652,-0.97221 -0.10649,-1.04273 -2.07986,-2.22099 -1.16578,-3.28032 0.92101,-1.06071 2.24028,0.71636 3.35627,0.61403 0.2669,-0.43286 0.50614,-0.88093 0.72048,-1.34007 -0.49369,-0.92933 -2.77822,-1.26123 -2.33569,-2.59023 0.44252,-1.33454 2.34814,-0.19776 3.34105,-0.72051 0.0774,-0.50063 0.12723,-1.01093 0.14935,-1.52953 -0.8159,-0.65689 -3.04788,-0.0968 -3.14883,-1.4908" />
    <path
       style="fill:none;stroke:#464546;stroke-width:0.8536889px;stroke-linecap:butt;stroke-linejoin:miter;stroke-opacity:1"
       d="m 85.506509,720.82844 v 81.10641 h 64.021961 v -68.30013 h -12.80439 v -12.80628 z"
       id="path1047653-4"
       inkscape:connector-curvature="0" />
    <path
       style="fill:none;stroke:#464546;stroke-width:0.85368896px;stroke-linecap:butt;stroke-linejoin:miter;stroke-opacity:1"
       d="m 136.84791,720.72364 12.80441,12.80627"
       id="path1047655-9"
       inkscape:connector-curvature="0" />
    <path
       style="fill:none;stroke:#464546;stroke-width:0.85369253px;stroke-linecap:butt;stroke-linejoin:miter;stroke-opacity:1"
       d="m 330.10543,720.85939 v 81.1064 h 64.02251 v -68.30013 h -12.8045 v -12.80627 z"
       id="path1047653-4-1"
       inkscape:connector-curvature="0" />
    <path
       style="fill:none;stroke:#464546;stroke-width:0.85369265px;stroke-linecap:butt;stroke-linejoin:miter;stroke-opacity:1"
       d="m 381.44728,720.75459 12.80452,12.80627"
       id="path1047655-9-5"
       inkscape:connector-curvature="0" />
    <path
       style="fill:none;stroke:#464546;stroke-width:0.85335582px;stroke-linecap:butt;stroke-linejoin:miter;stroke-opacity:1"
       d="m 575.72872,720.95879 v 81.04243 h 64.02251 v -68.24625 h -12.8045 v -12.79618 z"
       id="path1047653-4-9"
       inkscape:connector-curvature="0" />
    <path
       style="fill:none;stroke:#464546;stroke-width:0.85335588px;stroke-linecap:butt;stroke-linejoin:miter;stroke-opacity:1"
       d="m 627.07056,720.85408 12.80452,12.79616"
       id="path1047655-9-0"
       inkscape:connector-curvature="0" />
    <path
       style="fill:none;stroke:#464546;stroke-width:2;stroke-linecap:butt;stroke-linejoin:miter;stroke-miterlimit:4;stroke-dasharray:none;stroke-opacity:1"
       d="m 362.47461,624.406 v 21.79624"
       id="path1049739"
       inkscape:connector-curvature="0" />
    <path
       d="m 362.49131,648.11324 4.5335,-7.6931 -4.5335,2.5575 -4.534,-2.6775 z"
       id="path4730-8-3-1-2-6"
       style="fill:#464546;fill-opacity:1;stroke:none"
       inkscape:connector-curvature="0" />
    <path
       style="fill:none;stroke:#464546;stroke-width:2;stroke-linecap:butt;stroke-linejoin:miter;stroke-miterlimit:4;stroke-dasharray:none;stroke-opacity:1"
       d="m 362.47185,691.87892 v 25.18997"
       id="path1049739-3"
       inkscape:connector-curvature="0" />
    <path
       d="m 362.49131,719.03993 4.5335,-7.6931 -4.5335,2.5575 -4.534,-2.6775 z"
       id="path4730-8-3-1-2-6-2"
       style="fill:#464546;fill-opacity:1;stroke:none"
       inkscape:connector-curvature="0" />
    <path
       style="fill:none;stroke:#464546;stroke-width:1.90528655;stroke-linecap:butt;stroke-linejoin:miter;stroke-miterlimit:4;stroke-dasharray:none;stroke-opacity:1"
       d="M 337.91138,672.66648 119.87527,712.40665"
       id="path1050321-2"
       inkscape:connector-curvature="0" />
    <path
       d="m 115.52479,713.60954 6.27775,-6.35029 -1.31246,5.03695 3.74807,3.6984 z"
       id="path4730-8-3-1-2-6-2-5-0"
       style="fill:#464546;fill-opacity:1;stroke:none"
       inkscape:connector-curvature="0" />
    <path
       style="fill:none;stroke:#464546;stroke-width:2;stroke-linecap:butt;stroke-linejoin:miter;stroke-miterlimit:4;stroke-dasharray:none;stroke-opacity:1"
       d="m 362.5254,807.36218 v 65"
       id="path1050383"
       inkscape:connector-curvature="0" />
    <path
       d="m 362.49131,875.03993 4.5335,-7.6931 -4.5335,2.5575 -4.534,-2.6775 z"
       id="path4730-8-3-1-2-6-2-9"
       style="fill:#464546;fill-opacity:1;stroke:none"
       inkscape:connector-curvature="0" />
    <path
       style="fill:none;stroke:#464546;stroke-width:2;stroke-linecap:butt;stroke-linejoin:miter;stroke-miterlimit:4;stroke-dasharray:none;stroke-opacity:1"
       d="m 607.45398,807.25508 v 65"
       id="path1050383-8"
       inkscape:connector-curvature="0" />
    <path
       d="m 607.41989,874.93283 4.5335,-7.6931 -4.5335,2.5575 -4.534,-2.6775 z"
       id="path4730-8-3-1-2-6-2-9-8"
       style="fill:#464546;fill-opacity:1;stroke:none"
       inkscape:connector-curvature="0" />
    <path
       style="fill:none;stroke:#464546;stroke-width:2;stroke-linecap:butt;stroke-linejoin:miter;stroke-miterlimit:4;stroke-dasharray:none;stroke-opacity:1"
       d="m 117.33382,807.3825 v 65"
       id="path1050383-7"
       inkscape:connector-curvature="0" />
    <path
       d="m 117.29973,875.06025 4.5335,-7.6931 -4.5335,2.5575 -4.534,-2.6775 z"
       id="path4730-8-3-1-2-6-2-9-7"
       style="fill:#464546;fill-opacity:1;stroke:none"
       inkscape:connector-curvature="0" />
    <path
       style="fill:none;stroke:#464546;stroke-width:1.90528655;stroke-linecap:butt;stroke-linejoin:miter;stroke-miterlimit:4;stroke-dasharray:none;stroke-opacity:1"
       d="m 387.97745,672.66648 218.03611,39.74017"
       id="path1050321-2-8"
       inkscape:connector-curvature="0" />
    <path
       d="m 610.36404,713.60954 -6.27775,-6.35029 1.31246,5.03695 -3.74807,3.6984 z"
       id="path4730-8-3-1-2-6-2-5-0-7"
       style="fill:#464546;fill-opacity:1;stroke:none"
       inkscape:connector-curvature="0" />
    <g
       aria-label="工程部
配置文件"
       style="font-style:normal;font-variant:normal;font-weight:normal;font-stretch:normal;line-height:0%;font-family:'Open Sans';-inkscape-font-specification:'Open Sans';text-align:center;letter-spacing:0px;word-spacing:0px;text-anchor:middle;fill:#000000;fill-opacity:1;stroke:none"
       id="text1047639-8">
      <path
         d="m 105.03665,756.42025 v -7.65333 h 4.78666 v -1.01333 H 99.289979 v 1.01333 h 4.666671 v 7.65333 h -5.360004 v 0.98667 h 11.893334 v -0.98667 z"
         style="font-style:normal;font-variant:normal;font-weight:normal;font-stretch:normal;font-size:13.33333302px;line-height:1.25;font-family:'Noto Sans CJK SC';-inkscape-font-specification:'Noto Sans CJK SC';text-align:center;text-anchor:middle"
         id="path4672"
         inkscape:connector-curvature="0" />
      <path
         d="m 122.16998,749.78025 h -4.22667 v -2.21333 h 4.22667 z m 0.96,-3.06666 h -6.12 v 3.93333 h 6.12 z m -6.73333,6.84 c -0.22667,-0.37334 -1.24,-1.81334 -1.61334,-2.26667 v -0.30667 h 1.64 v -0.93333 h -1.64 v -2.37333 c 0.54667,-0.14667 1.06667,-0.32 1.49334,-0.52 l -0.62667,-0.8 c -0.82667,0.41333 -2.28,0.8 -3.52,1.04 0.10667,0.22666 0.24,0.56 0.29333,0.78666 0.45334,-0.08 0.94667,-0.17333 1.42667,-0.28 v 2.14667 h -1.86667 v 0.93333 h 1.72 c -0.45333,1.50667 -1.26666,3.22667 -2.01333,4.18667 0.17333,0.25333 0.42667,0.68 0.52,0.94667 0.6,-0.77334 1.17333,-2.01334 1.64,-3.29334 v 5.61334 h 0.93333 v -5.94667 c 0.37334,0.66667 0.8,1.46667 0.97334,1.89333 z m 4.24,3.6 v -1.84 h 2.66666 v -0.89334 h -2.66666 v -1.73333 h 2.95999 v -0.90667 h -6.83999 v 0.90667 h 2.90666 v 1.73333 h -2.58666 v 0.89334 h 2.58666 v 1.84 h -3.49333 v 0.92 h 7.72 v -0.92 z"
         style="font-style:normal;font-variant:normal;font-weight:normal;font-stretch:normal;font-size:13.33333302px;line-height:1.25;font-family:'Noto Sans CJK SC';-inkscape-font-specification:'Noto Sans CJK SC';text-align:center;text-anchor:middle"
         id="path4674"
         inkscape:connector-curvature="0" />
      <path
         d="m 131.88998,747.82025 h -2.45334 c -0.16,-0.45333 -0.42666,-1.10666 -0.70666,-1.62666 l -0.86667,0.25333 c 0.18667,0.41333 0.4,0.93333 0.54667,1.37333 h -2.76 v 0.90667 h 6.24 z m -3.69334,3.28 c -0.13333,-0.62666 -0.49333,-1.56 -0.88,-2.25333 l -0.85333,0.21333 c 0.36,0.72 0.70667,1.66667 0.82667,2.28 z m 2.4,3.30667 v 2.41333 h -3.62666 v -2.41333 z m -4.57333,3.93333 h 0.94667 v -0.64 h 3.62666 v 0.53334 h 0.97334 v -4.72 h -5.54667 z m 4.29333,-9.53333 c -0.21333,0.74667 -0.61333,1.84 -0.97333,2.58667 h -4.08 v 0.90666 h 6.93333 v -0.90666 h -1.89333 c 0.33333,-0.69334 0.70667,-1.6 1,-2.37334 z m 6.13334,-1.89333 -0.16,0.0533 h -3.41334 v 11.44 h 0.89334 v -10.53333 h 2.12 c -0.36,1.02666 -0.88,2.44 -1.37334,3.56 1.18667,1.21333 1.52,2.17333 1.52,3.01333 0.0133,0.45333 -0.08,0.86667 -0.34666,1.04 -0.14667,0.08 -0.33334,0.12 -0.53334,0.13333 -0.26666,0.0133 -0.64,0.0133 -1.02666,-0.0267 0.16,0.28 0.25333,0.68 0.26666,0.94666 0.37334,0.0133 0.8,0.0133 1.13334,-0.0267 0.30666,-0.0267 0.6,-0.12 0.82666,-0.28 0.42667,-0.28 0.6,-0.93334 0.6,-1.69334 0,-0.93333 -0.29333,-1.96 -1.48,-3.21333 0.56,-1.22667 1.17334,-2.74667 1.65334,-3.96 z"
         style="font-style:normal;font-variant:normal;font-weight:normal;font-stretch:normal;font-size:13.33333302px;line-height:1.25;font-family:'Noto Sans CJK SC';-inkscape-font-specification:'Noto Sans CJK SC';text-align:center;text-anchor:middle"
         id="path4676"
         inkscape:connector-curvature="0" />
      <path
         d="m 95.409979,765.87359 h -0.786667 v -1.54667 h 0.786667 z m 1.4,3.52 -0.05333,-0.04 c -0.01333,0.04 -0.05333,0.04 -0.186667,0.04 h -0.48 c -0.173333,0 -0.186667,-0.0133 -0.186667,-0.18667 v -2.49333 h 0.906667 z m -3.68,3.93333 v -1.37333 h 3.68 v 1.37333 z m 0.92,-6.61333 v 1.05333 c 0,0.70667 -0.133333,1.57333 -0.906667,2.25333 0.12,0.0667 0.346667,0.26667 0.44,0.38667 0.826667,-0.76 1.013334,-1.81333 1.013334,-2.62667 v -1.06666 h 0.746666 v 2.49333 c 0,0.64 0.16,0.77333 0.68,0.77333 h 0.64 c 0.05333,0 0.106667,0 0.146667,-0.0133 v 1.24 h -3.68 v -4.49333 z m -2.053333,-2.38667 h 1.92 v 1.54667 h -1.586667 v 9.17333 h 0.8 v -0.92 h 3.68 v 0.73333 h 0.813333 v -8.98666 h -1.506666 v -1.54667 h 1.813333 v -0.89333 h -5.933333 z m 8.333334,9.69333 c -0.613334,0 -0.733334,-0.0933 -0.733334,-0.58666 v -4.8 h 3.000004 v 0.89333 h 0.97333 v -6.01333 h -5.000001 v 0.96 h 4.026671 v 3.21333 h -3.973338 v 5.74667 c 0,1.21333 0.373334,1.52 1.599998,1.52 h 2.21334 c 1.21333,0 1.49333,-0.6 1.62666,-2.76 -0.28,-0.0667 -0.69333,-0.25334 -0.92,-0.42667 -0.0667,1.92 -0.17333,2.25333 -0.76,2.25333 z"
         style="font-style:normal;font-variant:normal;font-weight:normal;font-stretch:normal;font-size:13.33333302px;line-height:1.25;font-family:'Noto Sans CJK SC';-inkscape-font-specification:'Noto Sans CJK SC';text-align:center;text-anchor:middle"
         id="path4678"
         inkscape:connector-curvature="0" />
      <path
         d="m 108.03665,773.14025 h 6.25333 v 0.81334 h -6.25333 z m 6.25333,-4.08 v 0.74667 h -6.25333 v -0.74667 z m -6.25333,2.69334 h 6.25333 v 0.8 h -6.25333 z m 6.25333,-0.58667 h -6.25333 v -0.76 h 6.25333 z m -4.18667,-7.02667 h 2.18667 v 1.2 h -2.18667 z m -0.92,1.2 h -2.10666 v -1.2 h 2.10666 z m 4.01334,-1.2 h 2.24 v 1.2 h -2.24 z m 2.06666,9.81334 v -5.56 h -4.14666 c 0.0667,-0.25334 0.12,-0.50667 0.18666,-0.8 h 5.49334 v -0.77334 h -5.34667 c 0.0533,-0.25333 0.10667,-0.52 0.14667,-0.76 h 4.81333 v -2.64 h -10.28 v 2.64 h 4.46667 c -0.0267,0.24 -0.0667,0.50667 -0.10667,0.76 h -5.01333 v 0.77334 h 4.88 c -0.0533,0.29333 -0.10667,0.54666 -0.16,0.8 h -3.09334 v 5.56 h -1.76 v 0.74666 h 11.74667 v -0.74666 z"
         style="font-style:normal;font-variant:normal;font-weight:normal;font-stretch:normal;font-size:13.33333302px;line-height:1.25;font-family:'Noto Sans CJK SC';-inkscape-font-specification:'Noto Sans CJK SC';text-align:center;text-anchor:middle"
         id="path4680"
         inkscape:connector-curvature="0" />
      <path
         d="m 125.56998,764.88692 c -0.18667,-0.56 -0.64,-1.41333 -1.04,-2.04 l -1.02667,0.29333 c 0.4,0.65334 0.82667,1.54667 0.98667,2.09334 z m 1.74666,1.34667 c -0.66666,1.8 -1.56,3.26666 -2.74666,4.46666 -1.25334,-1.25333 -2.21334,-2.77333 -2.90667,-4.46666 z m 3.21334,0 v -0.97334 h -11.94667 v 0.97334 h 2.05334 c 0.77333,2.01333 1.82666,3.74666 3.19999,5.16 -1.45333,1.22666 -3.23999,2.13333 -5.43999,2.76 0.2,0.22666 0.49333,0.68 0.61333,0.92 2.21333,-0.70667 4.05333,-1.66667 5.54666,-2.97334 1.48,1.33334 3.29334,2.30667 5.46667,2.92 0.16,-0.28 0.44,-0.69333 0.68,-0.92 -2.12,-0.52 -3.92,-1.46666 -5.38667,-2.70666 1.33334,-1.37334 2.36,-3.05334 3.12,-5.16 z"
         style="font-style:normal;font-variant:normal;font-weight:normal;font-stretch:normal;font-size:13.33333302px;line-height:1.25;font-family:'Noto Sans CJK SC';-inkscape-font-specification:'Noto Sans CJK SC';text-align:center;text-anchor:middle"
         id="path4682"
         inkscape:connector-curvature="0" />
      <path
         d="m 134.79665,762.96692 c -0.70667,2.01333 -1.88,4 -3.12,5.29333 0.17333,0.22667 0.46666,0.73334 0.56,0.97334 0.41333,-0.46667 0.84,-0.98667 1.22666,-1.56 v 7.4 h 0.94667 v -8.93334 c 0.50667,-0.92 0.94667,-1.90666 1.32,-2.88 z m 9.04,6.56 h -3.61334 v -2.92 h 3.04 v -0.97333 h -3.04 v -2.54667 h -0.98666 v 2.54667 h -1.77334 c 0.17334,-0.6 0.32,-1.22667 0.44,-1.85334 l -0.93333,-0.2 c -0.30667,1.72 -0.85333,3.45334 -1.64,4.54667 0.25333,0.12 0.66667,0.36 0.85333,0.50667 0.36,-0.56 0.68,-1.25334 0.96,-2.02667 h 2.09334 v 2.92 h -3.8 v 0.97333 h 3.8 v 4.6 h 0.98666 v -4.6 h 3.61334 z"
         style="font-style:normal;font-variant:normal;font-weight:normal;font-stretch:normal;font-size:13.33333302px;line-height:1.25;font-family:'Noto Sans CJK SC';-inkscape-font-specification:'Noto Sans CJK SC';text-align:center;text-anchor:middle"
         id="path4684"
         inkscape:connector-curvature="0" />
    </g>
    <g
       aria-label="销售部
配置文件"
       style="font-style:normal;font-variant:normal;font-weight:normal;font-stretch:normal;line-height:0%;font-family:'Open Sans';-inkscape-font-specification:'Open Sans';text-align:center;letter-spacing:0px;word-spacing:0px;text-anchor:middle;fill:#000000;fill-opacity:1;stroke:none"
       id="text1047639-8-0">
      <path
         d="m 353.88951,746.92027 c -0.32,0.77333 -0.93334,1.86667 -1.38667,2.52 l 0.73333,0.34667 c 0.48,-0.62667 1.05334,-1.62667 1.50667,-2.48 z m -6.32,2.16 v -0.94667 h -2.74667 c 0.21334,-0.42666 0.4,-0.86666 0.53334,-1.30666 l -0.85334,-0.25334 c -0.4,1.22667 -1.08,2.4 -1.86666,3.17334 0.16,0.21333 0.42666,0.69333 0.50666,0.89333 0.41334,-0.44 0.81334,-0.96 1.17334,-1.56 z m -1.78667,2.22667 h 1.56 v -0.89334 h -3.8 v 0.89334 h 1.32 v 1.8 h -1.89333 v 0.90666 h 1.89333 v 2.62667 c 0,0.57333 -0.38666,0.93333 -0.62666,1.08 0.17333,0.2 0.38666,0.58667 0.46666,0.82667 0.21334,-0.22667 0.57334,-0.44 2.78667,-1.68 -0.08,-0.2 -0.17333,-0.58667 -0.2,-0.84 l -1.50667,0.78666 v -2.8 h 1.85334 v -0.90666 h -1.85334 z m 4.24,-1.90667 c -0.21333,-0.65333 -0.78666,-1.64 -1.32,-2.38667 l -0.77333,0.36 c 0.53333,0.77334 1.08,1.81334 1.28,2.45334 z m -1,5.56 v -1.42667 h 4.44 v 1.42667 z m 4.44,-3.70667 v 1.41334 h -4.44 v -1.41334 z m 0,-0.94666 -1.70667,0.0133 v -3.8 h -0.92 v 3.8 h -2.71999 v 8.4 h 0.90666 v -2.90667 h 4.44 v 1.64 c 0,0.18667 -0.0667,0.24 -0.26667,0.25334 -0.18666,0.0133 -0.85333,0.0133 -1.6,-0.0133 0.14667,0.25334 0.26667,0.65334 0.30667,0.90667 1.01333,0 1.6,-0.0133 1.98667,-0.17333 0.36,-0.16 0.46666,-0.44 0.46666,-0.96 v -7.16 z"
         style="font-style:normal;font-variant:normal;font-weight:normal;font-stretch:normal;font-size:13.33333302px;line-height:1.25;font-family:'Noto Sans CJK SC';-inkscape-font-specification:'Noto Sans CJK SC';text-align:center;text-anchor:middle"
         id="path4687"
         inkscape:connector-curvature="0" />
      <path
         d="m 365.62284,755.5336 v 1.74667 h -6.86667 v -1.74667 z m -7.85333,3.21334 h 0.98666 v -0.64 h 6.86667 v 0.64 h 1 v -4.02667 h -8.85333 z m 0.98666,-6.76 h 3.41334 v 0.98666 h -3.41334 z m 3.41334,-2.32 h -3.41334 v -0.90667 h 3.41334 z m 0,1.61333 h -3.41334 v -0.90667 h 3.41334 z m 0.96,1.69333 v -0.98666 h 3.37333 v -0.70667 h -3.37333 v -0.90667 h 3.33333 v -0.70666 h -3.33333 v -0.90667 h 3.97333 v -0.74667 h -3.77333 c -0.18667,-0.45333 -0.50667,-1.02666 -0.78667,-1.48 l -0.90667,0.25334 c 0.21334,0.37333 0.44,0.82666 0.61334,1.22666 h -3.16 c 0.21333,-0.4 0.44,-0.81333 0.62666,-1.21333 l -0.93333,-0.29333 c -0.65333,1.50666 -1.74667,2.97333 -2.89333,3.92 0.21333,0.17333 0.56,0.56 0.70666,0.73333 0.4,-0.36 0.8,-0.78667 1.18667,-1.26667 v 4.38667 h 0.97333 v -0.53333 h 8.65334 v -0.77334 z"
         style="font-style:normal;font-variant:normal;font-weight:normal;font-stretch:normal;font-size:13.33333302px;line-height:1.25;font-family:'Noto Sans CJK SC';-inkscape-font-specification:'Noto Sans CJK SC';text-align:center;text-anchor:middle"
         id="path4689"
         inkscape:connector-curvature="0" />
      <path
         d="m 376.11617,748.10694 h -2.45333 c -0.16,-0.45334 -0.42667,-1.10667 -0.70667,-1.62667 l -0.86666,0.25333 c 0.18666,0.41334 0.4,0.93334 0.54666,1.37334 h -2.76 v 0.90666 h 6.24 z m -3.69333,3.28 c -0.13333,-0.62667 -0.49333,-1.56 -0.88,-2.25334 l -0.85333,0.21334 c 0.36,0.72 0.70666,1.66666 0.82666,2.28 z m 2.4,3.30666 v 2.41334 h -3.62667 v -2.41334 z m -4.57333,3.93334 h 0.94666 v -0.64 h 3.62667 v 0.53333 h 0.97333 v -4.72 h -5.54666 z m 4.29333,-9.53334 c -0.21333,0.74667 -0.61333,1.84 -0.97333,2.58667 h -4.08 v 0.90667 h 6.93333 v -0.90667 h -1.89333 c 0.33333,-0.69333 0.70666,-1.6 1,-2.37333 z m 6.13333,-1.89333 -0.16,0.0533 h -3.41333 v 11.44 h 0.89333 v -10.53333 h 2.12 c -0.36,1.02667 -0.88,2.44 -1.37333,3.56 1.18667,1.21333 1.52,2.17333 1.52,3.01333 0.0133,0.45334 -0.08,0.86667 -0.34667,1.04 -0.14666,0.08 -0.33333,0.12 -0.53333,0.13334 -0.26667,0.0133 -0.64,0.0133 -1.02667,-0.0267 0.16,0.28 0.25334,0.68 0.26667,0.94667 0.37333,0.0133 0.8,0.0133 1.13333,-0.0267 0.30667,-0.0267 0.6,-0.12 0.82667,-0.28 0.42667,-0.28 0.6,-0.93333 0.6,-1.69333 0,-0.93334 -0.29333,-1.96 -1.48,-3.21334 0.56,-1.22666 1.17333,-2.74666 1.65333,-3.96 z"
         style="font-style:normal;font-variant:normal;font-weight:normal;font-stretch:normal;font-size:13.33333302px;line-height:1.25;font-family:'Noto Sans CJK SC';-inkscape-font-specification:'Noto Sans CJK SC';text-align:center;text-anchor:middle"
         id="path4691"
         inkscape:connector-curvature="0" />
      <path
         d="m 339.63618,766.16027 h -0.78667 v -1.54667 h 0.78667 z m 1.4,3.52 -0.0533,-0.04 c -0.0133,0.04 -0.0533,0.04 -0.18666,0.04 h -0.48 c -0.17334,0 -0.18667,-0.0133 -0.18667,-0.18667 v -2.49333 h 0.90667 z m -3.68,3.93333 v -1.37333 h 3.68 v 1.37333 z m 0.92,-6.61333 v 1.05333 c 0,0.70667 -0.13334,1.57334 -0.90667,2.25334 0.12,0.0667 0.34667,0.26666 0.44,0.38666 0.82667,-0.76 1.01333,-1.81333 1.01333,-2.62666 v -1.06667 h 0.74667 v 2.49333 c 0,0.64 0.16,0.77334 0.68,0.77334 h 0.64 c 0.0533,0 0.10667,0 0.14667,-0.0133 v 1.24 h -3.68 v -4.49333 z m -2.05334,-2.38667 h 1.92 v 1.54667 h -1.58666 v 9.17333 h 0.8 v -0.92 h 3.68 v 0.73334 h 0.81333 v -8.98667 h -1.50667 v -1.54667 h 1.81334 v -0.89333 h -5.93334 z m 8.33334,9.69334 c -0.61334,0 -0.73334,-0.0933 -0.73334,-0.58667 v -4.8 h 3 v 0.89333 h 0.97334 v -6.01333 h -5 v 0.96 h 4.02666 v 3.21333 h -3.97333 v 5.74667 c 0,1.21333 0.37333,1.52 1.6,1.52 h 2.21333 c 1.21334,0 1.49334,-0.6 1.62667,-2.76 -0.28,-0.0667 -0.69333,-0.25333 -0.92,-0.42667 -0.0667,1.92 -0.17333,2.25334 -0.76,2.25334 z"
         style="font-style:normal;font-variant:normal;font-weight:normal;font-stretch:normal;font-size:13.33333302px;line-height:1.25;font-family:'Noto Sans CJK SC';-inkscape-font-specification:'Noto Sans CJK SC';text-align:center;text-anchor:middle"
         id="path4693"
         inkscape:connector-curvature="0" />
      <path
         d="m 352.26284,773.42694 h 6.25333 v 0.81333 h -6.25333 z m 6.25333,-4.08 v 0.74666 h -6.25333 v -0.74666 z m -6.25333,2.69333 h 6.25333 v 0.8 h -6.25333 z m 6.25333,-0.58667 h -6.25333 v -0.76 h 6.25333 z m -4.18666,-7.02666 h 2.18666 v 1.2 h -2.18666 z m -0.92,1.2 h -2.10667 v -1.2 h 2.10667 z m 4.01333,-1.2 h 2.24 v 1.2 h -2.24 z m 2.06667,9.81333 v -5.56 h -4.14667 c 0.0667,-0.25333 0.12,-0.50667 0.18667,-0.8 h 5.49333 v -0.77333 h -5.34667 c 0.0533,-0.25334 0.10667,-0.52 0.14667,-0.76 h 4.81333 v -2.64 h -10.27999 v 2.64 h 4.46666 c -0.0267,0.24 -0.0667,0.50666 -0.10667,0.76 h -5.01333 v 0.77333 h 4.88 c -0.0533,0.29333 -0.10667,0.54667 -0.16,0.8 h -3.09333 v 5.56 h -1.76 v 0.74667 h 11.74666 v -0.74667 z"
         style="font-style:normal;font-variant:normal;font-weight:normal;font-stretch:normal;font-size:13.33333302px;line-height:1.25;font-family:'Noto Sans CJK SC';-inkscape-font-specification:'Noto Sans CJK SC';text-align:center;text-anchor:middle"
         id="path4695"
         inkscape:connector-curvature="0" />
      <path
         d="m 369.79617,765.1736 c -0.18666,-0.56 -0.64,-1.41333 -1.04,-2.04 l -1.02666,0.29334 c 0.4,0.65333 0.82666,1.54666 0.98666,2.09333 z m 1.74667,1.34667 c -0.66667,1.8 -1.56,3.26667 -2.74667,4.46667 -1.25333,-1.25334 -2.21333,-2.77334 -2.90666,-4.46667 z m 3.21333,0 v -0.97333 h -11.94666 v 0.97333 h 2.05333 c 0.77333,2.01333 1.82667,3.74667 3.2,5.16 -1.45333,1.22667 -3.24,2.13333 -5.44,2.76 0.2,0.22667 0.49333,0.68 0.61333,0.92 2.21334,-0.70667 4.05334,-1.66667 5.54667,-2.97333 1.48,1.33333 3.29333,2.30666 5.46667,2.92 0.16,-0.28 0.44,-0.69334 0.68,-0.92 -2.12,-0.52 -3.92,-1.46667 -5.38667,-2.70667 1.33333,-1.37333 2.36,-3.05333 3.12,-5.16 z"
         style="font-style:normal;font-variant:normal;font-weight:normal;font-stretch:normal;font-size:13.33333302px;line-height:1.25;font-family:'Noto Sans CJK SC';-inkscape-font-specification:'Noto Sans CJK SC';text-align:center;text-anchor:middle"
         id="path4697"
         inkscape:connector-curvature="0" />
      <path
         d="m 379.02284,763.2536 c -0.70666,2.01334 -1.88,4 -3.12,5.29334 0.17334,0.22666 0.46667,0.73333 0.56,0.97333 0.41334,-0.46667 0.84,-0.98667 1.22667,-1.56 v 7.4 h 0.94667 v -8.93333 c 0.50666,-0.92 0.94666,-1.90667 1.32,-2.88 z m 9.04,6.56 h -3.61333 v -2.92 h 3.04 v -0.97333 h -3.04 v -2.54667 h -0.98667 v 2.54667 h -1.77333 c 0.17333,-0.6 0.32,-1.22667 0.44,-1.85333 l -0.93333,-0.2 c -0.30667,1.72 -0.85334,3.45333 -1.64,4.54666 0.25333,0.12 0.66666,0.36 0.85333,0.50667 0.36,-0.56 0.68,-1.25333 0.96,-2.02667 h 2.09333 v 2.92 h -3.8 v 0.97334 h 3.8 v 4.6 h 0.98667 v -4.6 h 3.61333 z"
         style="font-style:normal;font-variant:normal;font-weight:normal;font-stretch:normal;font-size:13.33333302px;line-height:1.25;font-family:'Noto Sans CJK SC';-inkscape-font-specification:'Noto Sans CJK SC';text-align:center;text-anchor:middle"
         id="path4699"
         inkscape:connector-curvature="0" />
    </g>
    <g
       aria-label="服务器
配置文件"
       style="font-style:normal;font-variant:normal;font-weight:normal;font-stretch:normal;line-height:0%;font-family:'Open Sans';-inkscape-font-specification:'Open Sans';text-align:center;letter-spacing:0px;word-spacing:0px;text-anchor:middle;fill:#000000;fill-opacity:1;stroke:none"
       id="text1047639-8-0-8">
      <path
         d="m 589.87807,754.0079 c 0.0133,-0.53334 0.0267,-1.05334 0.0267,-1.50667 v -0.73333 h 2.01334 v 2.24 z m 2.04,-5.34667 v 2.18667 h -2.01334 v -2.18667 z m 0.92,-0.92 h -3.84 v 4.76 c 0,1.96 -0.0667,4.6 -0.98667,6.46667 0.24,0.0933 0.64,0.32 0.81333,0.48 0.61334,-1.25334 0.88,-2.92 1,-4.49334 h 2.09334 v 3.28 c 0,0.18667 -0.0667,0.24 -0.25334,0.25334 -0.16,0.0133 -0.72,0.0133 -1.33333,0 0.13333,0.25333 0.26667,0.69333 0.29333,0.94666 0.89334,0 1.42667,-0.0133 1.76,-0.18666 0.34667,-0.17334 0.45334,-0.46667 0.45334,-1 z m 6.09333,5.45333 c -0.30667,1.13334 -0.76,2.13334 -1.33333,2.98667 -0.61334,-0.88 -1.09334,-1.89333 -1.45334,-2.98667 z m 0.50667,-0.94666 -0.17334,0.0267 h -4.32 v -3.57333 h 3.73334 v 1.62667 c 0,0.16 -0.0533,0.21333 -0.26667,0.21333 -0.2,0.0133 -0.89333,0.0133 -1.70667,0 0.13334,0.24 0.28,0.57333 0.32,0.84 1,0 1.66667,0 2.09334,-0.13333 0.4,-0.14667 0.52,-0.4 0.52,-0.90667 v -2.56 h -5.62667 v 11.65333 h 0.93333 v -6.24 h 0.33334 c 0.44,1.37334 1.02666,2.65334 1.77333,3.73334 -0.61333,0.72 -1.30667,1.29333 -2.04,1.69333 0.2,0.17333 0.45333,0.50667 0.58667,0.73333 0.73333,-0.42666 1.41333,-1 2.01333,-1.70666 0.64,0.74666 1.36,1.34666 2.16,1.8 0.14667,-0.24 0.41333,-0.57334 0.64,-0.76 -0.84,-0.41334 -1.58667,-1.01334 -2.22667,-1.74667 0.84,-1.18667 1.48,-2.68 1.82667,-4.49333 z"
         style="font-style:normal;font-variant:normal;font-weight:normal;font-stretch:normal;font-size:13.33333302px;line-height:1.25;font-family:'Noto Sans CJK SC';-inkscape-font-specification:'Noto Sans CJK SC';text-align:center;text-anchor:middle"
         id="path4702"
         inkscape:connector-curvature="0" />
      <path
         d="m 607.5714,754.6479 c 0.0933,-0.37334 0.18667,-0.8 0.25333,-1.24 l -1.02666,-0.08 c -0.0533,0.48 -0.14667,0.92 -0.25334,1.32 h -3.97333 v 0.86666 h 3.66667 c -0.76,1.70667 -2.24,2.6 -4.58667,3.05334 0.18667,0.2 0.44,0.61333 0.54667,0.84 2.61333,-0.62667 4.25333,-1.74667 5.09333,-3.89334 h 4.04 c -0.22667,1.74667 -0.49333,2.56 -0.8,2.81334 -0.14667,0.10666 -0.30667,0.12 -0.57333,0.12 -0.33334,0 -1.17334,-0.0133 -2.01334,-0.0933 0.17334,0.25334 0.29334,0.61334 0.30667,0.88 0.78667,0.0533 1.58667,0.0533 1.97333,0.04 0.49334,-0.0267 0.78667,-0.0933 1.08,-0.36 0.45334,-0.41333 0.76,-1.41333 1.04,-3.82666 0.04,-0.13334 0.0533,-0.44 0.0533,-0.44 z m -2.2,-5.17334 h 5.38667 c -0.78667,0.78667 -1.88,1.42667 -3.13334,1.93334 -1.02666,-0.44 -1.86666,-1.01334 -2.45333,-1.74667 z m 6.32,-0.90666 -0.17333,0.0533 h -5.37334 c 0.32,-0.38667 0.6,-0.78667 0.85334,-1.17333 l -1.04,-0.21334 c -0.68,1.16 -2,2.53334 -3.86667,3.48 0.21333,0.16 0.48,0.50667 0.61333,0.73334 0.68,-0.38667 1.29334,-0.78667 1.82667,-1.22667 0.54667,0.62667 1.21333,1.14667 1.98667,1.57333 -1.57334,0.50667 -3.32,0.82667 -5.01334,0.98667 0.16,0.22667 0.33334,0.61333 0.4,0.86667 1.93334,-0.24 3.93334,-0.64 5.70667,-1.33334 1.54667,0.64 3.4,1 5.44,1.17334 0.12,-0.28 0.34667,-0.66667 0.54667,-0.89334 -1.77334,-0.10666 -3.42667,-0.34666 -4.81334,-0.77333 1.46667,-0.72 2.70667,-1.64 3.50667,-2.84 z"
         style="font-style:normal;font-variant:normal;font-weight:normal;font-stretch:normal;font-size:13.33333302px;line-height:1.25;font-family:'Noto Sans CJK SC';-inkscape-font-specification:'Noto Sans CJK SC';text-align:center;text-anchor:middle"
         id="path4704"
         inkscape:connector-curvature="0" />
      <path
         d="m 624.86473,750.58123 h -2.46666 v -1.88 h 2.46666 z m 0.96,-2.73333 h -4.34666 v 3.58666 h 4.34666 z m -3.48,10.32 v -1.96 h 2.36 v 1.96 z m -3.10666,0 h -2.21334 v -1.96 h 2.21334 z m -0.13334,-7.58667 h -2.36 v -1.88 h 2.36 z m 7.69334,3.08 v -0.88 h -2.30667 l 0.32,-0.33333 c -0.44,-0.34667 -1.28,-0.76 -1.96,-0.98667 l -0.52,0.52 c 0.53333,0.2 1.14667,0.50667 1.58667,0.8 h -3.72 c 0.30666,-0.42667 0.57333,-0.86667 0.8,-1.30667 l -0.94667,-0.18666 v -3.44 h -4.2 v 3.58666 h 4.05333 c -0.21333,0.44 -0.50666,0.90667 -0.89333,1.34667 h -4.10667 v 0.88 h 3.25334 c -0.89334,0.77333 -2.05334,1.48 -3.49334,2.01333 0.18667,0.16 0.45334,0.52 0.53334,0.74667 0.32,-0.12 0.61333,-0.25333 0.90666,-0.38667 v 3.38667 h 0.92 v -0.38667 h 2.21334 v 0.32 h 0.94666 v -4.01333 h -2.81333 c 0.82667,-0.50667 1.52,-1.08 2.09333,-1.68 h 2.49334 c 0.6,0.62667 1.37333,1.21333 2.22666,1.68 h -2.76 v 4.08 h 0.92 v -0.38667 h 2.36 v 0.32 h 0.96 v -3.33333 c 0.25334,0.0933 0.50667,0.17333 0.76,0.25333 0.13334,-0.24 0.4,-0.6 0.62667,-0.78666 -1.4,-0.34667 -2.85333,-1.01334 -3.85333,-1.82667 z"
         style="font-style:normal;font-variant:normal;font-weight:normal;font-stretch:normal;font-size:13.33333302px;line-height:1.25;font-family:'Noto Sans CJK SC';-inkscape-font-specification:'Noto Sans CJK SC';text-align:center;text-anchor:middle"
         id="path4706"
         inkscape:connector-curvature="0" />
      <path
         d="m 585.06473,766.87456 h -0.78666 v -1.54666 h 0.78666 z m 1.4,3.52 -0.0533,-0.04 c -0.0133,0.04 -0.0533,0.04 -0.18667,0.04 h -0.48 c -0.17333,0 -0.18666,-0.0133 -0.18666,-0.18666 v -2.49334 h 0.90666 z m -3.68,3.93334 v -1.37334 h 3.68 v 1.37334 z m 0.92,-6.61334 v 1.05334 c 0,0.70666 -0.13333,1.57333 -0.90666,2.25333 0.12,0.0667 0.34666,0.26667 0.44,0.38667 0.82666,-0.76 1.01333,-1.81334 1.01333,-2.62667 v -1.06667 h 0.74667 v 2.49334 c 0,0.64 0.16,0.77333 0.68,0.77333 h 0.64 c 0.0533,0 0.10666,0 0.14666,-0.0133 v 1.24 h -3.68 v -4.49334 z m -2.05333,-2.38666 h 1.92 v 1.54666 h -1.58667 v 9.17334 h 0.8 v -0.92 h 3.68 v 0.73333 h 0.81334 v -8.98667 h -1.50667 v -1.54666 h 1.81333 v -0.89334 h -5.93333 z m 8.33333,9.69333 c -0.61333,0 -0.73333,-0.0933 -0.73333,-0.58667 v -4.8 h 3 v 0.89334 h 0.97333 v -6.01334 h -5 v 0.96 h 4.02667 v 3.21334 h -3.97333 v 5.74666 c 0,1.21334 0.37333,1.52 1.6,1.52 h 2.21333 c 1.21333,0 1.49333,-0.6 1.62667,-2.76 -0.28,-0.0667 -0.69334,-0.25333 -0.92,-0.42666 -0.0667,1.92 -0.17334,2.25333 -0.76,2.25333 z"
         style="font-style:normal;font-variant:normal;font-weight:normal;font-stretch:normal;font-size:13.33333302px;line-height:1.25;font-family:'Noto Sans CJK SC';-inkscape-font-specification:'Noto Sans CJK SC';text-align:center;text-anchor:middle"
         id="path4708"
         inkscape:connector-curvature="0" />
      <path
         d="m 597.6914,774.14123 h 6.25333 v 0.81333 h -6.25333 z m 6.25333,-4.08 v 0.74667 h -6.25333 v -0.74667 z m -6.25333,2.69333 h 6.25333 v 0.8 h -6.25333 z m 6.25333,-0.58666 h -6.25333 v -0.76 h 6.25333 z m -4.18666,-7.02667 h 2.18666 v 1.2 h -2.18666 z m -0.92,1.2 h -2.10667 v -1.2 h 2.10667 z m 4.01333,-1.2 h 2.24 v 1.2 h -2.24 z m 2.06667,9.81333 v -5.56 h -4.14667 c 0.0667,-0.25333 0.12,-0.50666 0.18667,-0.8 h 5.49333 v -0.77333 h -5.34667 c 0.0533,-0.25333 0.10667,-0.52 0.14667,-0.76 h 4.81333 v -2.64 h -10.28 v 2.64 h 4.46667 c -0.0267,0.24 -0.0667,0.50667 -0.10667,0.76 h -5.01333 v 0.77333 h 4.88 c -0.0533,0.29334 -0.10667,0.54667 -0.16,0.8 h -3.09333 v 5.56 h -1.76 v 0.74667 h 11.74666 v -0.74667 z"
         style="font-style:normal;font-variant:normal;font-weight:normal;font-stretch:normal;font-size:13.33333302px;line-height:1.25;font-family:'Noto Sans CJK SC';-inkscape-font-specification:'Noto Sans CJK SC';text-align:center;text-anchor:middle"
         id="path4710"
         inkscape:connector-curvature="0" />
      <path
         d="m 615.22473,765.8879 c -0.18666,-0.56 -0.64,-1.41334 -1.04,-2.04 l -1.02666,0.29333 c 0.4,0.65333 0.82666,1.54667 0.98666,2.09333 z m 1.74667,1.34666 c -0.66667,1.8 -1.56,3.26667 -2.74667,4.46667 -1.25333,-1.25333 -2.21333,-2.77333 -2.90666,-4.46667 z m 3.21333,0 v -0.97333 h -11.94666 v 0.97333 h 2.05333 c 0.77333,2.01334 1.82667,3.74667 3.2,5.16 -1.45333,1.22667 -3.24,2.13334 -5.44,2.76 0.2,0.22667 0.49333,0.68 0.61333,0.92 2.21334,-0.70666 4.05334,-1.66666 5.54667,-2.97333 1.48,1.33333 3.29333,2.30667 5.46667,2.92 0.16,-0.28 0.44,-0.69333 0.68,-0.92 -2.12,-0.52 -3.92,-1.46667 -5.38667,-2.70667 1.33333,-1.37333 2.36,-3.05333 3.12,-5.16 z"
         style="font-style:normal;font-variant:normal;font-weight:normal;font-stretch:normal;font-size:13.33333302px;line-height:1.25;font-family:'Noto Sans CJK SC';-inkscape-font-specification:'Noto Sans CJK SC';text-align:center;text-anchor:middle"
         id="path4712"
         inkscape:connector-curvature="0" />
      <path
         d="m 624.4514,763.9679 c -0.70667,2.01333 -1.88,4 -3.12,5.29333 0.17333,0.22667 0.46667,0.73333 0.56,0.97333 0.41333,-0.46666 0.84,-0.98666 1.22667,-1.56 v 7.4 h 0.94666 v -8.93333 c 0.50667,-0.92 0.94667,-1.90667 1.32,-2.88 z m 9.04,6.56 h -3.61333 v -2.92 h 3.04 v -0.97334 h -3.04 v -2.54666 h -0.98667 v 2.54666 h -1.77333 c 0.17333,-0.6 0.32,-1.22666 0.44,-1.85333 l -0.93334,-0.2 c -0.30666,1.72 -0.85333,3.45333 -1.64,4.54667 0.25334,0.12 0.66667,0.36 0.85334,0.50666 0.36,-0.56 0.68,-1.25333 0.96,-2.02666 h 2.09333 v 2.92 h -3.8 v 0.97333 h 3.8 v 4.6 h 0.98667 v -4.6 h 3.61333 z"
         style="font-style:normal;font-variant:normal;font-weight:normal;font-stretch:normal;font-size:13.33333302px;line-height:1.25;font-family:'Noto Sans CJK SC';-inkscape-font-specification:'Noto Sans CJK SC';text-align:center;text-anchor:middle"
         id="path4714"
         inkscape:connector-curvature="0" />
    </g>
  </g>
</svg>
