<?xml version="1.0" encoding="UTF-8" standalone="no"?>
<svg
   width="704"
   height="435.2"
   viewBox="0 0 660 408"
   version="1.1"
   id="svg235"
   sodipodi:docname="cryptctl-keyretrieval.svg"
   inkscape:version="1.2.2 (732a01da63, 2022-12-09)"
   xmlns:inkscape="http://www.inkscape.org/namespaces/inkscape"
   xmlns:sodipodi="http://sodipodi.sourceforge.net/DTD/sodipodi-0.dtd"
   xmlns="http://www.w3.org/2000/svg"
   xmlns:svg="http://www.w3.org/2000/svg">
  <sodipodi:namedview
     id="namedview237"
     pagecolor="#ffffff"
     bordercolor="#000000"
     borderopacity="0.25"
     inkscape:showpageshadow="2"
     inkscape:pageopacity="0.0"
     inkscape:pagecheckerboard="0"
     inkscape:deskcolor="#d1d1d1"
     showgrid="false"
     inkscape:zoom="1.852022"
     inkscape:cx="351.77768"
     inkscape:cy="245.13748"
     inkscape:window-width="1920"
     inkscape:window-height="1009"
     inkscape:window-x="-8"
     inkscape:window-y="-8"
     inkscape:window-maximized="1"
     inkscape:current-layer="svg235" />
  <defs
     id="defs133">
    <marker
       id="c"
       markerHeight="4.7071"
       markerWidth="3.0607"
       orient="auto"
       refX="1.5303"
       refY="2.3536">
      <path
         fill="none"
         stroke="#000"
         d="m.3536.3536 2 2-2 2"
         id="path124" />
    </marker>
    <marker
       id="a"
       markerHeight="4.7071"
       markerWidth="3.0607"
       orient="auto"
       refX="1.5303"
       refY="2.3536">
      <path
         fill="none"
         stroke="#30ba2c"
         d="m.3536.3536 2 2-2 2"
         id="path127" />
    </marker>
    <marker
       id="b"
       markerHeight="4.7071"
       markerWidth="3.0607"
       orient="auto"
       refX="1.5303"
       refY="2.3536">
      <path
         fill="none"
         stroke="#fe7c3f"
         d="m.3536.3536 2 2-2 2"
         id="path130" />
    </marker>
  </defs>
  <rect
     width="4"
     height="349"
     x="26"
     y="59"
     fill="#30ba78"
     id="rect135" />
  <rect
     width="4"
     height="349"
     x="366"
     y="59"
     fill="#fe7c3f"
     id="rect137" />
  <rect
     width="320"
     height="58"
     fill="#30ba78"
     id="rect139" />
  <path
     fill="#ededee"
     d="M46 98.0019C46 107.9437 37.9348 116 28.0006 116 18.0602 116 10 107.9437 10 98.0019 10 88.0588 18.0602 80 28.0006 80 37.9348 80 46 88.0588 46 98.0019m0 280C46 387.9437 37.9348 396 28.0006 396 18.0602 396 10 387.9437 10 378.0019 10 368.0588 18.0602 360 28.0006 360 37.9348 360 46 368.0588 46 378.0019m340-140C386 247.9437 377.9348 256 368.0006 256 358.0602 256 350 247.9437 350 238.0019 350 228.0588 358.0602 220 368.0006 220 377.9348 220 386 228.0588 386 238.0019"
     id="path141" />
  <g
     aria-label="cryptctl 客户端"
     id="text145"
     style="font-size:20.625px;line-height:0%;font-family:Sans;letter-spacing:0;word-spacing:0">
    <path
       d="m 88.347718,28.566925 q 0,-1.753125 0.70125,-3.0525 0.70125,-1.32 1.93875,-2.041875 1.258125,-0.721875 2.866875,-0.721875 2.083125,0 3.42375,1.010625 1.36125,1.010625 1.794375,2.805 h -2.02125 q -0.28875,-1.03125 -1.134375,-1.629375 -0.825,-0.598125 -2.0625,-0.598125 -1.60875,0 -2.59875,1.11375 -0.99,1.093125 -0.99,3.114375 0,2.041875 0.99,3.155625 0.99,1.11375 2.59875,1.11375 1.2375,0 2.0625,-0.5775 0.825,-0.5775 1.134375,-1.65 h 2.02125 q -0.45375,1.7325 -1.815,2.784375 -1.36125,1.03125 -3.403125,1.03125 -1.60875,0 -2.866875,-0.721875 -1.2375,-0.721875 -1.93875,-2.041875 -0.70125,-1.32 -0.70125,-3.09375 z"
       style="font-weight:500;font-family:Poppins;-inkscape-font-specification:'Poppins Medium';text-align:center;text-anchor:middle"
       id="path1256" />
    <path
       d="m 103.44523,24.771925 q 0.495,-0.969375 1.4025,-1.505625 0.92812,-0.53625 2.24812,-0.53625 v 1.93875 h -0.495 q -3.15562,0 -3.15562,3.42375 v 6.14625 h -1.87688 V 22.9363 h 1.87688 z"
       style="font-weight:500;font-family:Poppins;-inkscape-font-specification:'Poppins Medium';text-align:center;text-anchor:middle"
       id="path1258" />
    <path
       d="m 118.99646,22.9363 -6.80625,16.62375 h -1.93875 l 2.2275,-5.445 -4.55813,-11.17875 h 2.08313 l 3.5475,9.1575 3.50625,-9.1575 z"
       style="font-weight:500;font-family:Poppins;-inkscape-font-specification:'Poppins Medium';text-align:center;text-anchor:middle"
       id="path1260" />
    <path
       d="m 122.7502,25.019425 q 0.55688,-0.969375 1.65,-1.60875 1.11375,-0.66 2.57813,-0.66 1.50562,0 2.7225,0.721875 1.2375,0.721875 1.93875,2.041875 0.70125,1.299375 0.70125,3.031875 0,1.711875 -0.70125,3.0525 -0.70125,1.340625 -1.93875,2.083125 -1.21688,0.7425 -2.7225,0.7425 -1.44375,0 -2.5575,-0.639375 -1.09313,-0.66 -1.67063,-1.629375 V 39.6013 h -1.87687 v -16.665 h 1.87687 z m 7.6725,3.526875 q 0,-1.27875 -0.51562,-2.2275 -0.51563,-0.94875 -1.4025,-1.44375 -0.86625,-0.495 -1.91813,-0.495 -1.03125,0 -1.91812,0.515625 -0.86625,0.495 -1.4025,1.464375 -0.51563,0.94875 -0.51563,2.206875 0,1.27875 0.51563,2.248125 0.53625,0.94875 1.4025,1.464375 0.88687,0.495 1.91812,0.495 1.05188,0 1.91813,-0.495 0.88687,-0.515625 1.4025,-1.464375 0.51562,-0.969375 0.51562,-2.26875 z"
       style="font-weight:500;font-family:Poppins;-inkscape-font-specification:'Poppins Medium';text-align:center;text-anchor:middle"
       id="path1262" />
    <path
       d="m 137.10522,24.483175 v 6.661875 q 0,0.825 0.35062,1.175625 0.35063,0.33 1.21688,0.33 h 1.38187 V 34.2388 h -1.69125 q -1.5675,0 -2.35125,-0.721875 -0.78375,-0.721875 -0.78375,-2.371875 v -6.661875 h -1.46437 V 22.9363 h 1.46437 v -2.84625 h 1.87688 v 2.84625 h 2.94937 v 1.546875 z"
       style="font-weight:500;font-family:Poppins;-inkscape-font-specification:'Poppins Medium';text-align:center;text-anchor:middle"
       id="path1264" />
    <path
       d="m 141.6221,28.566925 q 0,-1.753125 0.70125,-3.0525 0.70125,-1.32 1.93875,-2.041875 1.25812,-0.721875 2.86687,-0.721875 2.08313,0 3.42375,1.010625 1.36125,1.010625 1.79438,2.805 h -2.02125 q -0.28875,-1.03125 -1.13438,-1.629375 -0.825,-0.598125 -2.0625,-0.598125 -1.60875,0 -2.59875,1.11375 -0.99,1.093125 -0.99,3.114375 0,2.041875 0.99,3.155625 0.99,1.11375 2.59875,1.11375 1.2375,0 2.0625,-0.5775 0.825,-0.5775 1.13438,-1.65 h 2.02125 q -0.45375,1.7325 -1.815,2.784375 -1.36125,1.03125 -3.40313,1.03125 -1.60875,0 -2.86687,-0.721875 -1.2375,-0.721875 -1.93875,-2.041875 -0.70125,-1.32 -0.70125,-3.09375 z"
       style="font-weight:500;font-family:Poppins;-inkscape-font-specification:'Poppins Medium';text-align:center;text-anchor:middle"
       id="path1266" />
    <path
       d="m 157.13211,24.483175 v 6.661875 q 0,0.825 0.35062,1.175625 0.35063,0.33 1.21688,0.33 h 1.38187 V 34.2388 h -1.69125 q -1.5675,0 -2.35125,-0.721875 -0.78375,-0.721875 -0.78375,-2.371875 v -6.661875 h -1.46437 V 22.9363 h 1.46437 v -2.84625 h 1.87688 v 2.84625 h 2.94937 v 1.546875 z"
       style="font-weight:500;font-family:Poppins;-inkscape-font-specification:'Poppins Medium';text-align:center;text-anchor:middle"
       id="path1268" />
    <path
       d="m 164.22711,18.9763 v 15.2625 h -1.87687 V 18.9763 Z"
       style="font-weight:500;font-family:Poppins;-inkscape-font-specification:'Poppins Medium';text-align:center;text-anchor:middle"
       id="path1270" />
    <path
       d="m 174.849,20.4613 h 13.55062 v 2.371875 h 1.93875 V 18.7288 H 183.099 c -0.30938,-0.639375 -0.76313,-1.4025 -1.11375,-1.98 l -1.8975,0.45375 c 0.2475,0.474375 0.53625,1.010625 0.80437,1.52625 h -7.92 v 4.104375 h 1.87688 z m 2.84625,9.075 c 1.4025,-0.474375 2.7225,-1.03125 3.96,-1.69125 1.32,0.680625 2.7225,1.2375 4.26937,1.69125 z m 0.20625,4.063125 v -2.475 h 7.56937 v 2.475 z m 1.11375,-10.02375 h 5.5275 c -0.76313,0.825 -1.7325,1.546875 -2.84625,2.2275 -1.11375,-0.639375 -2.0625,-1.340625 -2.805,-2.124375 z m 7.13625,-1.5675 -0.30938,0.0825 h -5.445 c 0.28875,-0.350625 0.5775,-0.680625 0.825,-1.051875 l -2.04187,-0.391875 c -1.03125,1.546875 -2.99063,3.25875 -5.81625,4.41375 0.4125,0.309375 1.01062,0.99 1.25812,1.423125 1.09313,-0.515625 2.0625,-1.093125 2.90813,-1.711875 0.70125,0.721875 1.485,1.381875 2.33062,1.98 -2.35125,1.11375 -5.09437,1.876875 -7.73437,2.31 0.33,0.433125 0.7425,1.19625 0.9075,1.69125 0.99,-0.185625 2.00062,-0.4125 2.99062,-0.70125 v 5.795625 h 1.87688 v -0.66 h 7.56937 v 0.61875 h 1.98 v -5.878125 c 0.825,0.20625 1.67063,0.37125 2.53688,0.495 0.26812,-0.53625 0.825,-1.381875 1.2375,-1.835625 -2.805,-0.33 -5.42438,-0.94875 -7.6725,-1.876875 1.58812,-1.093125 2.94937,-2.3925 3.91875,-3.898125 z"
       style="font-weight:500;font-family:'Noto Sans CJK SC';-inkscape-font-specification:'Noto Sans CJK SC Medium';text-align:center;text-anchor:middle"
       id="path1272" />
    <path
       d="m 197.289,25.5763 c 0.0206,-0.350625 0.0206,-0.66 0.0206,-0.99 v -2.743125 h 10.25063 V 25.5763 Z m 5.65125,-5.5275 1.03125,-0.309375 c -0.22688,-0.804375 -0.7425,-2.000625 -1.19625,-2.92875 l -1.87688,0.495 c 0.37125,0.845625 0.825,1.93875 1.03125,2.743125 h -6.6 v 4.5375 c 0,3.031875 -0.2475,7.30125 -2.61937,10.250625 0.47437,0.20625 1.32,0.804375 1.67062,1.155 1.87688,-2.35125 2.57813,-5.6925 2.82563,-8.62125 h 10.35375 v 1.216875 h 1.95937 V 20.0488 Z"
       style="font-weight:500;font-family:'Noto Sans CJK SC';-inkscape-font-specification:'Noto Sans CJK SC Medium';text-align:center;text-anchor:middle"
       id="path1274" />
    <path
       d="m 231.58837,17.94505 h -1.83562 V 21.2863 H 227.154 v -4.310625 h -1.83563 V 21.2863 h -2.41312 v -3.34125 h -1.75313 v 5.011875 h 10.43625 z M 215.604,17.635675 c 0.51562,0.928125 1.0725,2.18625 1.29937,3.031875 l 1.69125,-0.598125 c -0.2475,-0.804375 -0.825,-2.02125 -1.36125,-2.92875 z m 4.90875,3.031875 h -6.86813 v 1.77375 h 6.86813 z m -4.00125,9.755625 c -0.0619,-1.959375 -0.39188,-4.82625 -0.825,-7.095 l -1.44375,0.268125 c 0.39187,2.2275 0.72187,5.15625 0.76312,7.095 z m 2.20687,0.4125 c 0.45375,-2.083125 0.92813,-5.0325 1.25813,-7.363125 l -1.65,-0.28875 c -0.18563,2.3925 -0.61875,5.81625 -1.05188,8.0025 -1.42312,0.33 -2.78437,0.61875 -3.795,0.825 l 0.4125,1.8975 c 1.91813,-0.474375 4.3725,-1.093125 6.72375,-1.69125 l -0.20625,-1.77375 z m 13.53,-4.8675 V 24.2563 H 220.3065 v 1.711875 h 4.76437 c -0.0619,0.556875 -0.18562,1.093125 -0.28875,1.60875 h -3.91875 v 8.270625 h 1.7325 V 29.2063 h 1.485 v 6.455625 h 1.485 V 29.2063 h 1.54688 v 6.414375 h 1.50562 V 29.2063 h 1.54688 v 4.95 c 0,0.185625 -0.0619,0.2475 -0.22688,0.2475 -0.165,0 -0.61875,0 -1.11375,-0.02062 0.18563,0.4125 0.4125,1.0725 0.47438,1.52625 0.88687,0 1.50562,-0.04125 1.98,-0.28875 0.45375,-0.268125 0.55687,-0.680625 0.55687,-1.423125 v -6.620625 h -5.13562 c 0.18562,-0.515625 0.37125,-1.051875 0.55687,-1.60875 z"
       style="font-weight:500;font-family:'Noto Sans CJK SC';-inkscape-font-specification:'Noto Sans CJK SC Medium';text-align:center;text-anchor:middle"
       id="path1276" />
  </g>
  <g
     aria-label="等待内核通知已挂接磁盘"
     id="text151"
     style="font-weight:500;font-size:15px;line-height:110%;font-family:Poppins;-inkscape-font-specification:'Poppins Medium';letter-spacing:0;word-spacing:0">
    <path
       d="m 100.9372,94.440298 c 0.27,0.57 0.54,1.245 0.645,1.695 l 0.975,-0.36 c -0.075,-0.345 -0.285,-0.87 -0.525,-1.335 h 2.715 v -0.945 h -3.9 c 0.18,-0.345 0.33,-0.69 0.465,-1.05 l -1.05,-0.27 c -0.51,1.305 -1.35,2.625 -2.28,3.48 0.255,0.15 0.72,0.465 0.915,0.645 0.51,-0.51 0.99,-1.155 1.41,-1.86 z m -0.12,8.430002 c 0.96,0.645 2.04,1.605 2.52,2.295 l 0.855,-0.705 c -0.495,-0.69 -1.62,-1.62 -2.565,-2.22 z m 10.89,-2.940002 v -0.975 h -6.24 v -1.335 h 4.83 v -0.945 h -4.83 v -1.035 h -0.24 c 0.33,-0.345 0.645,-0.765 0.93,-1.2 h 1.02 c 0.45,0.57 0.885,1.29 1.05,1.785 l 0.96,-0.42 c -0.165,-0.375 -0.48,-0.9 -0.825,-1.365 h 3.195 v -0.945 h -4.86 c 0.18,-0.36 0.315,-0.705 0.45,-1.08 l -1.065,-0.24 c -0.42,1.245 -1.23,2.46 -2.145,3.24 0.09,0.06 0.255,0.15 0.405,0.255 v 1.005 h -4.68 v 0.945 h 4.68 v 1.335 h -6.15 v 0.975 h 9.195 v 1.320002 h -8.715 v 0.975 h 8.715 v 2.385 c 0,0.21 -0.06,0.27 -0.33,0.27 -0.27,0.03 -1.155,0.03 -2.175,0 0.165,0.3 0.345,0.72 0.405,1.05 1.245,0 2.07,-0.015 2.565,-0.18 0.51,-0.18 0.66,-0.465 0.66,-1.125 v -2.4 h 2.805 v -0.975 h -2.805 v -1.320002 z"
       style="font-weight:normal;line-height:110%;font-family:'Noto Sans CJK SC';-inkscape-font-specification:'Noto Sans CJK SC'"
       id="path1386" />
    <path
       d="m 116.2822,92.280298 c -0.645,1.05 -1.98,2.31 -3.15,3.075 0.18,0.225 0.45,0.645 0.57,0.9 1.32,-0.885 2.76,-2.295 3.63,-3.57 z m 0.255,3.285 c -0.855,1.545 -2.295,3.075 -3.63,4.05 0.195,0.27 0.495,0.840002 0.6,1.095002 0.585,-0.465 1.17,-1.035002 1.725,-1.650002 v 6.870002 h 1.08 v -8.145002 c 0.45,-0.585 0.87,-1.2 1.2,-1.83 z m 2.145,6.165002 c 0.69,0.78 1.44,1.905 1.755,2.625 l 0.945,-0.555 c -0.33,-0.72 -1.11,-1.8 -1.8,-2.58 z m 8.13,-3.600002 v -1.035 h -4.2 v -1.905 h 3.42 v -1.02 h -3.42 v -1.86 h -1.095 v 1.86 h -3.285 v 1.02 h 3.285 v 1.905 h -4.155 v 1.035 h 6.24 v 1.65 h -6.075 v 1.020002 h 6.075 v 3.78 c 0,0.21 -0.06,0.27 -0.315,0.285 -0.225,0.015 -1.05,0.015 -1.95,-0.015 0.15,0.315 0.315,0.75 0.36,1.065 1.155,0 1.935,0 2.4,-0.18 0.465,-0.18 0.6,-0.48 0.6,-1.155 v -3.78 h 2.01 v -1.020002 h -2.01 v -1.65 z"
       style="font-weight:normal;line-height:110%;font-family:'Noto Sans CJK SC';-inkscape-font-specification:'Noto Sans CJK SC'"
       id="path1388" />
    <path
       d="m 140.9272,94.800298 h -5.43 v -2.565 h -1.11 v 2.565 h -5.43 V 105.9603 h 1.095 V 95.895298 h 4.32 c -0.09,1.965 -0.63,4.440002 -3.93,6.195002 0.255,0.195 0.63,0.6 0.795,0.84 2.01,-1.185 3.09,-2.58 3.645,-4.020002 1.38,1.290002 2.88,2.820002 3.645,3.825002 l 0.915,-0.72 c -0.915,-1.11 -2.745,-2.865002 -4.23,-4.170002 0.165,-0.675 0.24,-1.335 0.27,-1.95 h 4.35 v 8.550002 c 0,0.27 -0.09,0.36 -0.36,0.375 -0.315,0.015 -1.335,0.015 -2.385,-0.03 0.165,0.3 0.33,0.825 0.375,1.125 1.335,0 2.265,0 2.79,-0.195 0.51,-0.18 0.675,-0.54 0.675,-1.26 z"
       style="font-weight:normal;line-height:110%;font-family:'Noto Sans CJK SC';-inkscape-font-specification:'Noto Sans CJK SC'"
       id="path1390" />
    <path
       d="m 154.1722,96.570298 c -0.225,0.465 -0.54,0.945 -0.885,1.395 l -2.55,0.15 c 0.54,-0.825 1.26,-1.965 1.77,-2.805 h 4.23 v -1.035 h -3.36 l 0.15,-0.06 c -0.12,-0.555 -0.495,-1.41 -0.87,-2.04 l -1.035,0.315 c 0.3,0.555 0.585,1.245 0.75,1.785 h -3.915 v 1.035 h 2.85 c -0.51,0.87 -1.35,2.22 -1.635,2.52 -0.255,0.27 -0.675,0.375 -0.96,0.435 0.09,0.24 0.27,0.795 0.3,1.05 0.285,-0.09 0.72,-0.18 3.405,-0.36 -1.11,1.125002 -2.505,2.130002 -4.005,2.820002 0.21,0.21 0.51,0.6 0.63,0.84 2.64,-1.26 4.905,-3.390002 6.18,-5.670002 z m -6,2.835 c -0.255,-0.42 -1.35,-2.1 -1.755,-2.655 v -0.585 h 1.695 v -1.05 h -1.695 v -2.88 h -1.065 v 2.88 h -1.995 v 1.05 h 1.92 c -0.45,2.04 -1.38,4.410002 -2.31,5.655002 0.21,0.27 0.48,0.75 0.585,1.08 0.675,-0.96 1.32,-2.505 1.8,-4.125002 v 7.155002 h 1.065 v -7.815002 c 0.405,0.735 0.87,1.605 1.08,2.070002 z m 7.095,-0.165 c -1.275,2.520002 -4.125,4.665002 -7.605,5.790002 0.21,0.225 0.525,0.66 0.66,0.915 1.875,-0.645 3.555,-1.56 4.95,-2.685 0.99,0.825 2.13,1.86 2.7,2.52 l 0.855,-0.735 c -0.6,-0.675 -1.785,-1.665 -2.775,-2.46 0.945,-0.885 1.74,-1.86 2.355,-2.940002 z"
       style="font-weight:normal;line-height:110%;font-family:'Noto Sans CJK SC';-inkscape-font-specification:'Noto Sans CJK SC'"
       id="path1392" />
    <path
       d="m 166.4572,96.840298 v 1.32 h -2.505 v -1.32 z m 3.615,0 v 1.32 h -2.61 v -1.32 z m -2.61,3.510002 v -1.365002 h 2.61 v 1.365002 z m -3.51,0 v -1.365002 h 2.505 v 1.365002 z m 0,0.855 h 2.505 v 2.445 h 1.005 v -2.445 h 2.61 v 1.365 c 0,0.195 -0.06,0.255 -0.255,0.255 -0.18,0 -0.81,0.015 -1.515,-0.015 0.135,0.27 0.255,0.645 0.3,0.93 1.005,0 1.635,-0.015 2.025,-0.18 0.39,-0.165 0.51,-0.42 0.51,-0.975 v -6.600002 h -1.965 c -0.3,-0.18 -0.69,-0.39 -1.11,-0.585 1.11,-0.57 2.25,-1.35 3.06,-2.145 l -0.675,-0.525 -0.225,0.06 h -7.32 v 0.885 h 6.3 c -0.615,0.45 -1.38,0.93 -2.115,1.275 -0.735,-0.315 -1.515,-0.63 -2.175,-0.87 l -0.69,0.63 c 0.915,0.345 1.995,0.825 2.91,1.275 h -4.245 v 7.725002 h 1.065 z m -2.16,-5.910002 c -0.54,-0.675 -1.695,-1.725 -2.58,-2.46 l -0.78,0.63 c 0.9,0.78 2.025,1.875 2.55,2.565 z m -0.495,2.535 h -3.18 v 1.05 h 2.1 v 4.230002 c -0.645,0.27 -1.395,0.945 -2.16,1.755 l 0.705,0.915 c 0.75,-1.005 1.485,-1.86 1.995,-1.86 0.345,0 0.87,0.495 1.455,0.855 1.05,0.645 2.295,0.825 4.125,0.825 1.605,0 4.215,-0.09 5.25,-0.15 0.03,-0.315 0.195,-0.81 0.315,-1.095 -1.53,0.15 -3.78,0.285 -5.535,0.285 -1.665,0 -2.925,-0.12 -3.93,-0.735 -0.525,-0.315 -0.84,-0.6 -1.14,-0.765 z"
       style="font-weight:normal;line-height:110%;font-family:'Noto Sans CJK SC';-inkscape-font-specification:'Noto Sans CJK SC'"
       id="path1394" />
    <path
       d="m 177.3472,95.280298 h 2.37 v -1.035 h -4.275 c 0.18,-0.57 0.345,-1.17 0.465,-1.8 l -1.08,-0.21 c -0.36,1.815 -0.975,3.6 -1.86,4.755 0.255,0.15 0.72,0.45 0.915,0.645 0.465,-0.645 0.855,-1.455 1.215,-2.355 h 1.14 v 2.46 c 0,0.165 0,0.345 0,0.525 h -3.09 v 1.065 h 3.015 c -0.195,1.965002 -0.9,4.125002 -3.18,5.745002 0.24,0.165 0.63,0.585 0.78,0.825 1.71,-1.215 2.625,-2.835 3.105,-4.425 0.81,0.915 1.98,2.325 2.49,3.06 l 0.75,-0.945 c -0.465,-0.525 -2.28,-2.55 -2.985,-3.255 0.06,-0.33 0.12,-0.675002 0.15,-1.005002 h 2.88 v -1.065 h -2.82 c 0.015,-0.18 0.015,-0.36 0.015,-0.51 z m 4.365,7.995002 v -8.685002 h 3.165 v 8.685002 z m -1.08,-9.735002 V 105.5103 h 1.08 v -1.185 h 3.165 v 1.035 h 1.11 V 93.540298 Z"
       style="font-weight:normal;line-height:110%;font-family:'Noto Sans CJK SC';-inkscape-font-specification:'Noto Sans CJK SC'"
       id="path1396" />
    <path
       d="m 192.7372,104.4153 c -1.62,0 -1.95,-0.21 -1.95,-1.155 v -3.960002 h 7.83 v 0.750002 h 1.14 v -6.870002 h -10.89 v 1.095 h 9.75 v 3.93 h -7.83 v -2.46 h -1.125 v 7.500002 c 0,1.845 0.75,2.265 3.15,2.265 h 5.61 c 2.445,0 2.94,-0.81 3.225,-3.555 -0.33,-0.06 -0.825,-0.24 -1.125,-0.45 -0.21,2.415 -0.45,2.91 -2.085,2.91 z"
       style="font-weight:normal;line-height:110%;font-family:'Noto Sans CJK SC';-inkscape-font-specification:'Noto Sans CJK SC'"
       id="path1398" />
    <path
       d="m 216.6172,97.485298 h -3.78 v -2.19 h 3.06 v -1.02 h -3.06 v -1.95 h -1.11 v 1.95 h -3.09 v 1.02 h 3.09 v 2.19 h -3.615 v 1.05 h 8.505 z m -8.565,2.34 -0.135,-1.005 -1.68,0.465 v -2.985 h 1.65 v -1.05 h -1.65 v -3 h -1.095 v 3 h -1.875 v 1.05 h 1.875 v 3.285 c -0.765,0.21 -1.485,0.39 -2.055,0.525002 l 0.315,1.095 c 0.54,-0.15 1.125,-0.33 1.74,-0.525 v 3.84 c 0,0.21 -0.09,0.285 -0.3,0.285 -0.18,0 -0.825,0.015 -1.53,-0.015 0.135,0.3 0.3,0.75 0.345,1.035 1.02,0 1.65,-0.03 2.025,-0.21 0.39,-0.165 0.555,-0.465 0.555,-1.095 v -4.155 z m 4.785,4.530002 v -2.505 h 3.285 v -1.035 h -3.285 v -1.725002 h -1.11 v 1.725002 h -3.33 v 1.035 h 3.33 v 2.505 h -4.335 v 1.065 h 9.39 v -1.065 z"
       style="font-weight:normal;line-height:110%;font-family:'Noto Sans CJK SC';-inkscape-font-specification:'Noto Sans CJK SC'"
       id="path1400" />
    <path
       d="m 231.2722,93.810298 h -3.48 c -0.21,-0.45 -0.525,-1.02 -0.825,-1.455 l -1.035,0.18 c 0.24,0.375 0.495,0.855 0.69,1.275 h -3.42 v 0.975 h 8.07 z m -5.025,3.03 c -0.195,-0.51 -0.675,-1.305 -1.125,-1.89 l -0.84,0.345 c 0.435,0.6 0.885,1.425 1.08,1.95 z m 5.4,0.45 h -2.88 c 0.405,-0.585 0.825,-1.35 1.23,-2.04 l -1.05,-0.285 c -0.285,0.69 -0.84,1.68 -1.26,2.325 h -5.01 v 0.975 h 8.97 z m -9.255,2.58 -0.165,-1.02 -1.32,0.42 v -2.985 h 1.5 v -1.035 h -1.5 v -3 h -1.035 v 3 h -1.77 v 1.035 h 1.77 v 3.3 c -0.735,0.225 -1.425,0.435002 -1.965,0.585002 l 0.285,1.065 1.68,-0.54 v 3.915 c 0,0.195 -0.075,0.255 -0.255,0.255 -0.15,0.015 -0.69,0.015 -1.29,-0.015 0.15,0.3 0.285,0.765 0.315,1.05 0.87,0.015 1.425,-0.03 1.77,-0.21 0.345,-0.18 0.495,-0.48 0.495,-1.08 v -4.245 z m 6.48,0.990002 c -0.285,0.945 -0.735,1.695 -1.395,2.295 -0.84,-0.345 -1.695,-0.645 -2.505,-0.9 0.3,-0.405 0.615,-0.9 0.9,-1.395 z m 2.94,0 v -0.960002 h -5.4 c 0.255,-0.465 0.495,-0.93 0.69,-1.365 l -1.035,-0.21 c -0.21,0.495 -0.465,1.035 -0.78,1.575 h -2.805 v 0.960002 h 2.25 c -0.435,0.69 -0.885,1.35 -1.275,1.86 0.975,0.3 2.04,0.675 3.06,1.11 -1.035,0.57 -2.415,0.93 -4.26,1.125 0.18,0.24 0.39,0.645 0.48,0.96 2.145,-0.315 3.735,-0.81 4.92,-1.605 1.2,0.555 2.295,1.14 3.03,1.665 l 0.735,-0.855 c -0.735,-0.51 -1.77,-1.035 -2.895,-1.53 0.705,-0.705 1.17,-1.605 1.485,-2.73 z"
       style="font-weight:normal;line-height:110%;font-family:'Noto Sans CJK SC';-inkscape-font-specification:'Noto Sans CJK SC'"
       id="path1402" />
    <path
       d="m 246.7222,94.920298 h -2.67 c 0.405,-0.675 0.855,-1.56 1.215,-2.325 l -1.08,-0.36 c -0.255,0.795 -0.765,1.92 -1.185,2.685 h -2.535 l 0.84,-0.375 c -0.225,-0.615 -0.735,-1.56 -1.23,-2.25 l -0.87,0.375 c 0.435,0.69 0.93,1.62 1.14,2.25 h -2.535 v 1.02 h 8.91 z m -10.245,8.220002 h -1.47 v -4.680002 h 1.47 z m 1.095,-9.120002 v -0.93 h -4.455 v 0.93 h 1.605 c -0.3,2.52 -0.855,4.92 -1.83,6.510002 0.165,0.255 0.435,0.78 0.51,1.02 0.27,-0.405 0.495,-0.84 0.72,-1.35 v 5.055 h 0.885 v -1.215 h 2.355 v -6.495002 h -2.34 c 0.285,-1.125 0.495,-2.31 0.675,-3.525 z m 2.82,8.115002 c 0.165,0.51 0.345,1.095 0.48,1.665 l -1.995,0.285 c 1.185,-1.65 2.325,-3.78 3.24,-5.865002 l -0.93,-0.39 c -0.225,0.585 -0.48,1.185 -0.75,1.77 l -1.545,0.12 c 0.585,-0.93 1.14,-2.085 1.545,-3.21 l -0.915,-0.405 c -0.375,1.32 -1.08,2.76 -1.29,3.135 -0.21,0.36 -0.42,0.63 -0.615,0.675 0.105,0.240002 0.27,0.735002 0.315,0.930002 0.21,-0.09 0.525,-0.165 2.055,-0.33 -0.63,1.26 -1.26,2.295 -1.53,2.67 -0.42,0.645 -0.75,1.11 -1.035,1.17 0.12,0.255 0.27,0.735 0.33,0.93 0.24,-0.135 0.645,-0.225 3.315,-0.66 0.075,0.39 0.135,0.735 0.18,1.05 l 0.81,-0.165 c -0.135,-0.96 -0.495,-2.415 -0.9,-3.525 z m 6.51,3.33 c -0.15,-0.975 -0.63,-2.445 -1.14,-3.57 l -0.78,0.21 c 0.225,0.495 0.42,1.065 0.615,1.635 l -2.205,0.315 c 1.11,-1.68 2.19,-3.855 3.015,-5.940002 l -0.96,-0.39 c -0.195,0.615 -0.45,1.245 -0.705,1.845 l -1.575,0.135 c 0.54,-0.945 1.05,-2.115 1.425,-3.225 l -0.975,-0.42 c -0.285,1.32 -0.945,2.745 -1.14,3.12 -0.18,0.36 -0.36,0.63 -0.57,0.675 0.135,0.255002 0.285,0.765002 0.345,0.975002 0.18,-0.105 0.51,-0.18 2.085,-0.345 -0.57,1.245 -1.14,2.28 -1.38,2.64 -0.405,0.645 -0.69,1.11 -0.99,1.185 0.12,0.255 0.285,0.75 0.345,0.945 0.24,-0.12 0.675,-0.24 3.54,-0.69 0.105,0.405 0.195,0.78 0.24,1.11 z"
       style="font-weight:normal;line-height:110%;font-family:'Noto Sans CJK SC';-inkscape-font-specification:'Noto Sans CJK SC'"
       id="path1404" />
    <path
       d="m 250.8772,101.7603 h 1.995 v 2.76 h -1.995 z m 5.01,0 v 2.76 h -1.98 v -2.76 z m 3.045,0 v 2.76 h -2.01 v -2.76 z m 1.095,-0.9 h -10.185 v 3.66 h -1.695 v 0.99 h 13.56 v -0.99 h -1.68 z m -6.75,-2.445002 c 0.855,0.42 1.875,1.08 2.37,1.545 l 0.6,-0.69 c -0.54,-0.48 -1.575,-1.11 -2.4,-1.485 z m 2.325,-1.86 0.585,-0.675 c -0.51,-0.45 -1.455,-1.05 -2.25,-1.395 l -0.54,0.63 c 0.78,0.36 1.725,0.99 2.175,1.44 h -3.84 c 0.015,-0.195 0.015,-0.375 0.015,-0.555 v -1.71 h 6.765 v 2.265 z m 4.005,0 v -3.18 h -4.515 c 0.15,-0.315 0.315,-0.675 0.495,-1.035 l -1.215,-0.24 c -0.075,0.345 -0.285,0.87 -0.48,1.275 h -3.24 v 2.595 c 0,0.195 0,0.375 -0.015,0.585 h -2.385 v 0.99 h 2.235 c -0.21,0.93 -0.75,1.83 -1.89,2.550002 0.225,0.165 0.645,0.57 0.81,0.795 1.365,-0.900002 1.965,-2.130002 2.205,-3.345002 h 6.9 v 1.74 c 0,0.18 -0.06,0.225 -0.27,0.24 -0.18,0 -0.855,0 -1.59,-0.015 0.15,0.27 0.315,0.660002 0.36,0.945002 1.005,0 1.665,0 2.07,-0.165 0.405,-0.165 0.525,-0.450002 0.525,-1.005002 v -1.74 h 2.1 v -0.99 z"
       style="font-weight:normal;line-height:110%;font-family:'Noto Sans CJK SC';-inkscape-font-specification:'Noto Sans CJK SC'"
       id="path1406" />
  </g>
  <path
     fill="#ededee"
     d="M46 168.0019c0 9.9418-8.0652 17.998-17.9994 17.998C18.0602 186 10 177.9438 10 168.002 10 158.0588 18.0602 150 28.0006 150 37.9348 150 46 158.0588 46 168.0019"
     id="path153" />
  <g
     aria-label="发送 RPC 请求以检索加密密钥"
     id="text159"
     style="font-weight:500;font-size:15px;line-height:110%;font-family:Poppins;-inkscape-font-specification:'Poppins Medium';letter-spacing:0;word-spacing:0">
    <path
       d="m 109.7186,164.8065 c -0.42,-0.54 -1.29,-1.47 -1.935,-2.13 l -0.855,0.54 c 0.645,0.69 1.485,1.635 1.89,2.205 z m -1.755,4.8 c -0.54,1.215 -1.335,2.25 -2.295,3.09 -1.02,-0.855 -1.83,-1.905 -2.4,-3.09 z m 0.75,-1.14 -0.21,0.06 h -5.025 c 0.18,-0.51 0.36,-1.05 0.525,-1.59 h 6.75 l 0.015,-1.08 h -6.465 c 0.24,-1.02 0.435,-2.1 0.6,-3.255 l -1.245,-0.18 c -0.135,1.215 -0.345,2.355 -0.63,3.435 h -2.7 c 0.39,-0.78 0.825,-1.785 1.08,-2.745 l -1.17,-0.225 c -0.269998,1.14 -0.824998,2.355 -1.004998,2.655 -0.165,0.33 -0.33,0.54 -0.54,0.6 0.12,0.255 0.3,0.81 0.375,1.05 0.135,-0.165 0.645,-0.255 1.589998,-0.255 h 2.085 c -0.99,3.105 -2.64,5.55 -5.369998,7.215 0.27,0.195 0.66,0.6 0.825,0.855 1.934998,-1.2 3.344998,-2.73 4.379998,-4.575 0.6,1.125 1.35,2.1 2.235,2.925 -1.275,0.9 -2.775,1.53 -4.32,1.89 0.195,0.24 0.465,0.675 0.585,0.96 1.665,-0.45 3.24,-1.14 4.62,-2.13 1.335,1.005 2.97,1.725 4.875,2.145 0.15,-0.315 0.45,-0.765 0.69,-0.99 -1.83,-0.345 -3.405,-0.975 -4.71,-1.86 1.29,-1.155 2.295,-2.64 2.91,-4.53 z"
       style="font-weight:normal;font-family:'Noto Sans CJK SC';-inkscape-font-specification:'Noto Sans CJK SC'"
       id="path1409" />
    <path
       d="m 120.2636,164.7765 c -0.285,-0.585 -0.855,-1.545 -1.335,-2.25 l -0.915,0.36 c 0.45,0.735 1.005,1.74 1.26,2.325 z m 5.16,8.43 c -0.84,-0.93 -2.49,-2.475 -3.81,-3.66 l 0.015,-0.06 h 4.35 v -1.035 h -4.23 c 0.015,-0.15 0.015,-0.3 0.015,-0.42 v -1.74 h 3.765 v -1.035 h -2.22 c 0.465,-0.72 1.005,-1.635 1.44,-2.43 l -1.125,-0.36 c -0.315,0.84 -0.915,1.98 -1.44,2.79 h -5.04 v 1.035 h 3.495 v 1.725 c 0,0.135 0,0.285 -0.015,0.435 h -3.96 v 1.035 h 3.84 c -0.285,1.29 -1.17,2.7 -3.765,3.75 0.255,0.21 0.615,0.615 0.75,0.84 2.205,-0.99 3.3,-2.235 3.81,-3.495 1.245,1.17 2.61,2.535 3.33,3.39 z m -9.24,-7.935 c -0.45,-0.705 -1.44,-1.83 -2.235,-2.61 l -0.885,0.51 c 0.795,0.84 1.74,1.995 2.175,2.715 z m -0.585,2.25 h -2.97 v 1.035 h 1.89 v 4.665 c -0.66,0.24 -1.44,0.96 -2.25,1.905 l 0.81,1.065 c 0.705,-1.05 1.38,-1.98 1.86,-1.98 0.315,0 0.84,0.525 1.455,0.945 1.065,0.675 2.355,0.84 4.29,0.84 1.5,0 4.29,-0.105 5.325,-0.165 0.03,-0.345 0.21,-0.93 0.36,-1.245 -1.5,0.18 -3.81,0.315 -5.64,0.315 -1.755,0 -3.06,-0.105 -4.05,-0.75 -0.48,-0.3 -0.795,-0.57 -1.08,-0.75 z"
       style="font-weight:normal;font-family:'Noto Sans CJK SC';-inkscape-font-specification:'Noto Sans CJK SC'"
       id="path1411" />
    <path
       d="m 137.51361,175.0215 -2.49,-4.275 h -1.65 v 4.275 h -1.365 v -10.455 h 3.375 q 1.185,0 1.995,0.405 0.825,0.405 1.23,1.095 0.405,0.69 0.405,1.575 0,1.08 -0.63,1.905 -0.615,0.825 -1.86,1.095 l 2.625,4.38 z m -4.14,-5.37 h 2.01 q 1.11,0 1.665,-0.54 0.555,-0.555 0.555,-1.47 0,-0.93 -0.555,-1.44 -0.54,-0.51 -1.665,-0.51 h -2.01 z"
       style="line-height:110%"
       id="path1413" />
    <path
       d="m 148.1186,167.6265 q 0,1.305 -0.9,2.175 -0.885,0.855 -2.715,0.855 h -2.01 v 4.365 h -1.365 v -10.455 h 3.375 q 1.77,0 2.685,0.855 0.93,0.855 0.93,2.205 z m -3.615,1.905 q 1.14,0 1.68,-0.495 0.54,-0.495 0.54,-1.41 0,-1.935 -2.22,-1.935 h -2.01 v 3.84 z"
       style="line-height:110%"
       id="path1415" />
    <path
       d="m 149.30361,169.7865 q 0,-1.53 0.69,-2.745 0.69,-1.23 1.875,-1.92 1.2,-0.69 2.655,-0.69 1.71,0 2.985,0.825 1.275,0.825 1.86,2.34 h -1.635 q -0.435,-0.945 -1.26,-1.455 -0.81,-0.51 -1.95,-0.51 -1.095,0 -1.965,0.51 -0.87,0.51 -1.365,1.455 -0.495,0.93 -0.495,2.19 0,1.245 0.495,2.19 0.495,0.93 1.365,1.44 0.87,0.51 1.965,0.51 1.14,0 1.95,-0.495 0.825,-0.51 1.26,-1.455 h 1.635 q -0.585,1.5 -1.86,2.325 -1.275,0.81 -2.985,0.81 -1.455,0 -2.655,-0.675 -1.185,-0.69 -1.875,-1.905 -0.69,-1.215 -0.69,-2.745 z"
       style="line-height:110%"
       id="path1417" />
    <path
       d="m 168.87861,165.0165 c -0.465,-0.6 -1.485,-1.53 -2.265,-2.19 l -0.72,0.66 c 0.78,0.705 1.77,1.68 2.22,2.31 z m -0.645,8.535 v -6.39 h -3.315 v 1.065 h 2.235 v 5.445 c 0,0.66 -0.42,1.11 -0.705,1.275 0.195,0.225 0.48,0.69 0.585,0.945 0.225,-0.285 0.615,-0.615 3.12,-2.55 -0.12,-0.21 -0.315,-0.63 -0.39,-0.93 z m 3.42,-0.51 v -1.215 h 4.68 v 1.215 z m 4.68,-3.15 v 1.155 h -4.68 v -1.155 z m 1.065,-0.87 h -6.795 v 7.14 h 1.05 v -2.31 h 4.68 v 1.05 c 0,0.195 -0.06,0.255 -0.285,0.255 -0.18,0.015 -0.9,0.015 -1.665,-0.015 0.135,0.285 0.285,0.69 0.33,0.96 1.065,0.015 1.725,0 2.16,-0.165 0.405,-0.165 0.525,-0.45 0.525,-1.02 z m -2.865,-1.71 v -1.05 h 3.15 v -0.81 h -3.15 v -0.945 h 3.6 v -0.855 h -3.6 v -1.17 h -1.095 v 1.17 h -3.45 v 0.855 h 3.45 v 0.945 h -3.09 v 0.81 h 3.09 v 1.05 h -3.9 v 0.855 h 9.03 v -0.855 z"
       style="font-weight:normal;font-family:'Noto Sans CJK SC';-inkscape-font-specification:'Noto Sans CJK SC'"
       id="path1419" />
    <path
       d="m 191.67861,166.7415 c -0.675,0.93 -1.8,2.115 -2.73,2.97 -0.675,-1.065 -1.245,-2.235 -1.665,-3.45 v -0.195 h 6 v -1.08 h -1.845 l 0.63,-0.72 c -0.6,-0.51 -1.8,-1.215 -2.745,-1.695 l -0.66,0.705 c 0.9,0.48 2.025,1.185 2.64,1.71 h -4.02 v -2.475 h -1.125 v 2.475 h -5.895 v 1.08 h 5.895 v 4.155 c -2.265,1.29 -4.71,2.655 -6.225,3.435 l 0.72,1.005 c 1.53,-0.885 3.57,-2.1 5.505,-3.3 v 3.3 c 0,0.285 -0.105,0.36 -0.375,0.375 -0.3,0.015 -1.275,0.015 -2.295,-0.015 0.15,0.33 0.33,0.855 0.39,1.17 1.32,0 2.205,-0.03 2.7,-0.225 0.495,-0.18 0.705,-0.525 0.705,-1.305 v -5.955 c 1.29,2.76 3.165,5.04 5.58,6.21 0.195,-0.3 0.555,-0.735 0.81,-0.945 -1.62,-0.705 -3.045,-1.935 -4.17,-3.435 1.02,-0.84 2.22,-2.055 3.135,-3.12 z m -7.26,2.985 c -0.48,-0.81 -1.575,-1.965 -2.52,-2.775 l -0.84,0.585 c 0.945,0.84 1.995,2.04 2.46,2.85 z"
       style="font-weight:normal;font-family:'Noto Sans CJK SC';-inkscape-font-specification:'Noto Sans CJK SC'"
       id="path1421" />
    <path
       d="m 203.12361,167.3565 c -0.45,-0.975 -1.425,-2.415 -2.31,-3.48 l -0.945,0.495 c 0.87,1.095 1.83,2.61 2.25,3.57 z m -5.25,5.175 v -8.895 h -1.185 v 8.775 c 0,0.69 -0.585,1.17 -0.9,1.35 0.195,0.21 0.525,0.66 0.615,0.915 0.375,-0.33 0.915,-0.645 5.235,-2.715 -0.09,-0.255 -0.24,-0.72 -0.285,-1.05 z m 10.8,2.88 c -0.72,-1.05 -2.175,-2.61 -3.465,-3.84 0.99,-2.13 1.395,-4.89 1.605,-8.445 l -1.17,-0.06 c -0.345,6.63 -1.38,10.335 -6.18,12.24 0.255,0.225 0.675,0.72 0.825,0.96 2.025,-0.93 3.42,-2.115 4.395,-3.705 1.2,1.185 2.43,2.61 3.03,3.57 z"
       style="font-weight:normal;font-family:'Noto Sans CJK SC';-inkscape-font-specification:'Noto Sans CJK SC'"
       id="path1423" />
    <path
       d="m 218.57361,162.3615 c -0.99,2.115 -2.775,4.005 -4.635,5.175 0.21,0.195 0.525,0.675 0.66,0.885 1.53,-1.05 3.015,-2.55 4.125,-4.26 1.155,1.5 2.865,3.105 4.38,4.125 0.12,-0.3 0.36,-0.75 0.57,-1.005 -1.53,-0.915 -3.375,-2.565 -4.425,-4.005 0.105,-0.195 0.21,-0.375 0.3,-0.555 z m 2.745,4.74 h -5.04 v 0.96 h 5.04 z m -1.71,5.595 c -0.075,-0.945 -0.36,-2.4 -0.63,-3.54 l -0.885,0.12 c 0.27,1.14 0.525,2.625 0.6,3.585 z m -4.41,-3 c 0.45,1.14 0.84,2.61 0.975,3.6 l 0.915,-0.255 c -0.135,-0.975 -0.555,-2.445 -1.005,-3.57 z m -0.525,-0.03 c -0.24,-0.435 -1.29,-2.13 -1.68,-2.685 v -0.645 h 1.56 v -1.035 h -1.56 v -2.835 h -1.035 v 2.835 h -1.92 v 1.035 h 1.815 c -0.39,1.98 -1.23,4.29 -2.07,5.52 0.195,0.255 0.45,0.75 0.57,1.065 0.585,-0.93 1.17,-2.385 1.605,-3.93 v 7.17 h 1.035 v -7.74 c 0.39,0.72 0.825,1.575 1.005,2.04 z m 7.155,-0.51 c -0.51,1.605 -1.47,3.885 -2.25,5.31 h -5.175 v 0.99 h 8.865 v -0.99 h -2.76 c 0.78,-1.41 1.665,-3.435 2.31,-5.04 z"
       style="font-weight:normal;font-family:'Noto Sans CJK SC';-inkscape-font-specification:'Noto Sans CJK SC'"
       id="path1425" />
    <path
       d="m 228.60861,172.9515 c -0.825,0.81 -2.16,1.65 -3.39,2.19 0.255,0.18 0.675,0.54 0.855,0.735 1.185,-0.6 2.595,-1.59 3.57,-2.535 z m 7.575,-1.02 c 0.405,0.435 0.75,0.84 0.99,1.17 l 0.84,-0.585 c -0.63,-0.81 -1.965,-2.07 -3.015,-2.925 l -0.795,0.495 c 0.39,0.315 0.81,0.705 1.215,1.095 l -6.525,0.345 c 2.085,-0.78 4.2,-1.8 6.225,-3.015 l -0.78,-0.675 c -0.66,0.42 -1.38,0.84 -2.1,1.215 l -3.345,0.195 c 1.035,-0.495 2.07,-1.11 3,-1.785 l -0.45,-0.345 h 5.7 v 1.83 h 1.095 v -2.79 h -5.925 v -1.395 h 5.73 v -0.975 h -5.73 v -1.32 h -1.14 v 1.32 h -5.73 v 0.975 h 5.73 v 1.395 h -5.88 v 2.79 h 1.05 v -1.83 h 4.44 c -1.065,0.825 -2.4,1.545 -2.805,1.74 -0.435,0.225 -0.78,0.36 -1.08,0.405 0.105,0.255 0.255,0.765 0.3,0.96 0.24,-0.09 0.645,-0.15 3.405,-0.33 -1.23,0.6 -2.295,1.05 -2.76,1.215 -0.87,0.36 -1.53,0.57 -2.025,0.63 0.12,0.255 0.255,0.765 0.3,0.96 0.405,-0.12 0.975,-0.18 5.31,-0.465 v 2.61 c 0,0.18 -0.06,0.225 -0.315,0.24 -0.225,0.015 -1.02,0.015 -1.935,-0.015 0.165,0.3 0.345,0.705 0.405,1.035 1.095,0 1.83,-0.015 2.31,-0.18 0.48,-0.18 0.615,-0.465 0.615,-1.05 v -2.7 z m -2.46,1.5 c 1.275,0.69 2.88,1.725 3.645,2.4 l 0.885,-0.63 c -0.84,-0.69 -2.445,-1.68 -3.69,-2.325 z"
       style="font-weight:normal;font-family:'Noto Sans CJK SC';-inkscape-font-specification:'Noto Sans CJK SC'"
       id="path1427" />
    <path
       d="m 246.62361,165.1965 h -3.21 c 0.03,-0.915 0.045,-1.815 0.045,-2.685 h -1.11 c 0,0.855 0,1.77 -0.03,2.685 h -2.1 v 1.095 h 2.07 c -0.15,3.495 -0.645,6.975 -2.4,9.06 0.3,0.165 0.675,0.495 0.885,0.75 1.875,-2.325 2.43,-6.06 2.61,-9.81 h 2.115 c -0.24,5.625 -0.51,7.695 -0.93,8.175 -0.15,0.195 -0.285,0.255 -0.525,0.255 -0.27,0 -0.84,-0.015 -1.47,-0.075 0.18,0.315 0.3,0.795 0.33,1.14 0.63,0.045 1.245,0.045 1.635,-0.015 0.435,-0.045 0.72,-0.165 1.02,-0.57 0.54,-0.69 0.78,-2.91 1.065,-9.42 z m 2.22,8.58 v -8.355 h 2.91 v 8.355 z m -1.095,-9.435 v 11.61 h 1.095 v -1.095 h 2.91 v 0.99 h 1.14 v -11.505 z"
       style="font-weight:normal;font-family:'Noto Sans CJK SC';-inkscape-font-specification:'Noto Sans CJK SC'"
       id="path1429" />
    <path
       d="m 256.53861,164.7615 h 10.41 v 1.905 h 1.125 v -2.91 h -5.655 c -0.105,-0.435 -0.285,-0.99 -0.48,-1.44 l -1.05,0.18 c 0.15,0.375 0.285,0.855 0.375,1.26 h -5.82 v 2.91 h 1.095 z m 6.165,1.8 c -0.555,-0.525 -1.68,-1.185 -2.58,-1.575 l -0.585,0.645 c 0.93,0.42 2.04,1.11 2.58,1.65 z m -5.7,0.18 c -0.405,0.9 -1.125,2.01 -1.995,2.67 l 0.9,0.54 c 0.87,-0.72 1.53,-1.86 2.01,-2.79 z m 6.96,4.035 c 1.305,0 1.62,-0.435 1.77,-2.19 -0.285,-0.06 -0.69,-0.21 -0.93,-0.39 -0.075,1.455 -0.195,1.665 -0.915,1.665 h -3.03 c -0.24,0 -0.435,0 -0.585,-0.03 2.055,-1.005 3.915,-2.295 5.22,-3.885 l -0.96,-0.465 c -1.125,1.41 -2.805,2.565 -4.725,3.495 v -2.46 h -1.005 v 2.865 0.045 c -1.245,0.525 -2.595,0.945 -3.945,1.29 0.21,0.225 0.525,0.69 0.66,0.93 1.2,-0.345 2.4,-0.765 3.57,-1.26 0.27,0.3 0.795,0.39 1.71,0.39 z m 1.83,3.66 h -3.525 v -3.18 h -1.11 v 3.18 h -3.36 v -2.385 h -1.095 v 3.45 h 9.09 v 0.645 h 1.095 v -4.215 h -1.095 z m -0.615,-7.065 c 0.93,0.825 2.025,2.01 2.49,2.805 l 0.855,-0.615 c -0.51,-0.795 -1.62,-1.935 -2.55,-2.745 z"
       style="font-weight:normal;font-family:'Noto Sans CJK SC';-inkscape-font-specification:'Noto Sans CJK SC'"
       id="path1431" />
    <path
       d="m 271.53861,164.7615 h 10.41 v 1.905 h 1.125 v -2.91 h -5.655 c -0.105,-0.435 -0.285,-0.99 -0.48,-1.44 l -1.05,0.18 c 0.15,0.375 0.285,0.855 0.375,1.26 h -5.82 v 2.91 h 1.095 z m 6.165,1.8 c -0.555,-0.525 -1.68,-1.185 -2.58,-1.575 l -0.585,0.645 c 0.93,0.42 2.04,1.11 2.58,1.65 z m -5.7,0.18 c -0.405,0.9 -1.125,2.01 -1.995,2.67 l 0.9,0.54 c 0.87,-0.72 1.53,-1.86 2.01,-2.79 z m 6.96,4.035 c 1.305,0 1.62,-0.435 1.77,-2.19 -0.285,-0.06 -0.69,-0.21 -0.93,-0.39 -0.075,1.455 -0.195,1.665 -0.915,1.665 h -3.03 c -0.24,0 -0.435,0 -0.585,-0.03 2.055,-1.005 3.915,-2.295 5.22,-3.885 l -0.96,-0.465 c -1.125,1.41 -2.805,2.565 -4.725,3.495 v -2.46 h -1.005 v 2.865 0.045 c -1.245,0.525 -2.595,0.945 -3.945,1.29 0.21,0.225 0.525,0.69 0.66,0.93 1.2,-0.345 2.4,-0.765 3.57,-1.26 0.27,0.3 0.795,0.39 1.71,0.39 z m 1.83,3.66 h -3.525 v -3.18 h -1.11 v 3.18 h -3.36 v -2.385 h -1.095 v 3.45 h 9.09 v 0.645 h 1.095 v -4.215 h -1.095 z m -0.615,-7.065 c 0.93,0.825 2.025,2.01 2.49,2.805 l 0.855,-0.615 c -0.51,-0.795 -1.62,-1.935 -2.55,-2.745 z"
       style="font-weight:normal;font-family:'Noto Sans CJK SC';-inkscape-font-specification:'Noto Sans CJK SC'"
       id="path1433" />
    <path
       d="m 290.88861,165.2115 v -1.035 h -3.405 c 0.225,-0.45 0.42,-0.915 0.585,-1.38 l -0.99,-0.3 c -0.48,1.395 -1.32,2.73 -2.265,3.6 0.195,0.255 0.495,0.81 0.585,1.035 0.54,-0.54 1.05,-1.185 1.5,-1.92 z m -2.535,8.88 v -3.225 h 2.415 v -1.005 h -2.415 v -2.025 h 2.205 v -1.02 h -4.65 v 1.02 h 1.35 v 2.025 h -2.1 v 1.005 h 2.1 v 3.09 c 0,0.585 -0.42,0.87 -0.705,0.99 0.195,0.285 0.375,0.795 0.465,1.11 0.255,-0.255 0.69,-0.51 3.555,-2.025 -0.075,-0.21 -0.15,-0.66 -0.18,-0.945 z m 4.68,-3.81 c 0.015,-0.315 0.015,-0.6 0.015,-0.9 v -1.665 h 3.795 v 2.565 z m 3.81,-6.075 v 2.49 h -3.795 v -2.49 z m 1.095,-1.02 h -5.985 v 6.195 c 0,2.07 -0.165,4.53 -1.845,6.24 0.285,0.12 0.75,0.435 0.945,0.63 1.275,-1.335 1.755,-3.18 1.92,-4.95 h 3.87 v 3.3 c 0,0.24 -0.09,0.3 -0.315,0.315 -0.195,0 -0.93,0 -1.695,-0.015 0.135,0.3 0.3,0.795 0.345,1.095 1.11,0 1.785,-0.03 2.19,-0.21 0.42,-0.195 0.57,-0.525 0.57,-1.17 z"
       style="font-weight:normal;font-family:'Noto Sans CJK SC';-inkscape-font-specification:'Noto Sans CJK SC'"
       id="path1435" />
  </g>
  <g
     aria-label="使用密钥装入分区"
     id="text163"
     style="font-weight:500;font-size:15px;line-height:110%;font-family:Poppins;-inkscape-font-specification:'Poppins Medium';letter-spacing:0;word-spacing:0">
    <path
       d="m 100.4477,371.31151 c -0.869997,2.265 -2.324997,4.5 -3.839997,5.925 0.21,0.255 0.525,0.825 0.63,1.08 0.555,-0.555 1.125,-1.215 1.65,-1.95 v 8.745 h 1.065 v -10.35 c 0.584997,-1.005 1.124997,-2.07 1.544997,-3.12 z m 2.115,7.35 v -2.22 h 2.67 v 1.545 c 0,0.225 0,0.45 -0.015,0.675 z m 6.525,-2.22 v 2.22 h -2.775 c 0.015,-0.225 0.015,-0.45 0.015,-0.675 v -1.545 z m 1.065,3.165 v -4.11 h -3.825 v -1.47 h 4.32 v -1.02 h -4.32 v -1.605 h -1.095 v 1.605 h -4.14 v 1.02 h 4.14 v 1.47 h -3.705 v 4.11 h 3.63 c -0.105,0.825 -0.33,1.605 -0.81,2.31 -0.795,-0.555 -1.44,-1.215 -1.89,-1.995 l -0.93,0.3 c 0.555,0.96 1.29,1.77 2.175,2.445 -0.69,0.615 -1.695,1.14 -3.165,1.515 0.24,0.21 0.555,0.675 0.675,0.915 1.56,-0.465 2.64,-1.095 3.39,-1.83 1.53,0.915 3.405,1.5 5.52,1.815 0.15,-0.33 0.42,-0.765 0.66,-1.005 -2.13,-0.255 -4.02,-0.765 -5.52,-1.59 0.6,-0.87 0.87,-1.845 0.99,-2.88 z"
       style="font-weight:normal;line-height:110%;font-family:'Noto Sans CJK SC';-inkscape-font-specification:'Noto Sans CJK SC'"
       id="path1438" />
    <path
       d="m 119.3927,379.41151 v -2.49 h 4.035 v 2.49 z m -4.755,0 c 0.045,-0.555 0.06,-1.11 0.06,-1.605 v -0.885 h 3.585 v 2.49 z m 3.645,-5.94 v 2.4 h -3.585 v -2.4 z m 5.145,2.4 h -4.035 v -2.4 h 4.035 z m 1.095,-3.465 h -10.92 v 5.4 c 0,2.085 -0.15,4.725 -1.8,6.585 0.24,0.135 0.69,0.51 0.855,0.735 1.14,-1.275 1.65,-2.985 1.875,-4.65 h 3.75 v 4.425 h 1.11 v -4.425 h 4.035 v 3.045 c 0,0.285 -0.105,0.375 -0.405,0.39 -0.27,0 -1.29,0.015 -2.34,-0.03 0.15,0.3 0.33,0.78 0.375,1.08 1.41,0.015 2.28,0 2.79,-0.18 0.48,-0.195 0.675,-0.525 0.675,-1.245 z"
       style="font-weight:normal;line-height:110%;font-family:'Noto Sans CJK SC';-inkscape-font-specification:'Noto Sans CJK SC'"
       id="path1440" />
    <path
       d="m 128.5577,373.63651 h 10.41 v 1.905 h 1.125 v -2.91 h -5.655 c -0.105,-0.435 -0.285,-0.99 -0.48,-1.44 l -1.05,0.18 c 0.15,0.375 0.285,0.855 0.375,1.26 h -5.82 v 2.91 h 1.095 z m 6.165,1.8 c -0.555,-0.525 -1.68,-1.185 -2.58,-1.575 l -0.585,0.645 c 0.93,0.42 2.04,1.11 2.58,1.65 z m -5.7,0.18 c -0.405,0.9 -1.125,2.01 -1.995,2.67 l 0.9,0.54 c 0.87,-0.72 1.53,-1.86 2.01,-2.79 z m 6.96,4.035 c 1.305,0 1.62,-0.435 1.77,-2.19 -0.285,-0.06 -0.69,-0.21 -0.93,-0.39 -0.075,1.455 -0.195,1.665 -0.915,1.665 h -3.03 c -0.24,0 -0.435,0 -0.585,-0.03 2.055,-1.005 3.915,-2.295 5.22,-3.885 l -0.96,-0.465 c -1.125,1.41 -2.805,2.565 -4.725,3.495 v -2.46 h -1.005 v 2.865 0.045 c -1.245,0.525 -2.595,0.945 -3.945,1.29 0.21,0.225 0.525,0.69 0.66,0.93 1.2,-0.345 2.4,-0.765 3.57,-1.26 0.27,0.3 0.795,0.39 1.71,0.39 z m 1.83,3.66 h -3.525 v -3.18 h -1.11 v 3.18 h -3.36 v -2.385 h -1.095 v 3.45 h 9.09 v 0.645 h 1.095 v -4.215 h -1.095 z m -0.615,-7.065 c 0.93,0.825 2.025,2.01 2.49,2.805 l 0.855,-0.615 c -0.51,-0.795 -1.62,-1.935 -2.55,-2.745 z"
       style="font-weight:normal;line-height:110%;font-family:'Noto Sans CJK SC';-inkscape-font-specification:'Noto Sans CJK SC'"
       id="path1442" />
    <path
       d="m 147.9077,374.08651 v -1.035 h -3.405 c 0.225,-0.45 0.42,-0.915 0.585,-1.38 l -0.99,-0.3 c -0.48,1.395 -1.32,2.73 -2.265,3.6 0.195,0.255 0.495,0.81 0.585,1.035 0.54,-0.54 1.05,-1.185 1.5,-1.92 z m -2.535,8.88 v -3.225 h 2.415 v -1.005 h -2.415 v -2.025 h 2.205 v -1.02 h -4.65 v 1.02 h 1.35 v 2.025 h -2.1 v 1.005 h 2.1 v 3.09 c 0,0.585 -0.42,0.87 -0.705,0.99 0.195,0.285 0.375,0.795 0.465,1.11 0.255,-0.255 0.69,-0.51 3.555,-2.025 -0.075,-0.21 -0.15,-0.66 -0.18,-0.945 z m 4.68,-3.81 c 0.015,-0.315 0.015,-0.6 0.015,-0.9 v -1.665 h 3.795 v 2.565 z m 3.81,-6.075 v 2.49 h -3.795 v -2.49 z m 1.095,-1.02 h -5.985 v 6.195 c 0,2.07 -0.165,4.53 -1.845,6.24 0.285,0.12 0.75,0.435 0.945,0.63 1.275,-1.335 1.755,-3.18 1.92,-4.95 h 3.87 v 3.3 c 0,0.24 -0.09,0.3 -0.315,0.315 -0.195,0 -0.93,0 -1.695,-0.015 0.135,0.3 0.3,0.795 0.345,1.095 1.11,0 1.785,-0.03 2.19,-0.21 0.42,-0.195 0.57,-0.525 0.57,-1.17 z"
       style="font-weight:normal;line-height:110%;font-family:'Noto Sans CJK SC';-inkscape-font-specification:'Noto Sans CJK SC'"
       id="path1444" />
    <path
       d="m 165.6227,376.75651 h -3.12 v 0.99 h 7.455 v -0.99 h -3.24 v -2.37 h 3.525 v -0.99 h -3.525 v -2.055 h -1.095 v 2.055 h -3.57 v 0.99 h 3.57 z m -5.76,-3.045 c -0.39,-0.48 -1.2,-1.11 -1.86,-1.53 l -0.675,0.63 c 0.66,0.45 1.455,1.125 1.83,1.605 z m 0.495,4.65 h 1.05 v -7.02 h -1.05 v 3.765 c -1.305,0.585 -2.595,1.185 -3.495,1.53 l 0.375,0.93 c 0.915,-0.39 2.01,-0.915 3.12,-1.425 z m 8.46,2.085 c -0.645,0.465 -1.695,1.095 -2.565,1.545 -0.6,-0.525 -1.095,-1.14 -1.5,-1.815 h 5.7 v -0.915 h -5.835 c -0.165,-0.405 -0.42,-0.9 -0.69,-1.29 l -1.08,0.3 c 0.18,0.285 0.375,0.66 0.525,0.99 h -6.3 v 0.915 h 5.19 c -1.38,0.99 -3.495,1.785 -5.385,2.16 0.195,0.21 0.48,0.57 0.615,0.825 0.885,-0.21 1.815,-0.495 2.7,-0.87 v 0.99 c 0,0.6 -0.48,0.84 -0.78,0.93 0.15,0.21 0.345,0.66 0.39,0.9 0.3,-0.165 0.825,-0.315 5.085,-1.245 -0.015,-0.225 0.015,-0.645 0.045,-0.915 l -3.645,0.765 v -1.935 c 0.93,-0.465 1.755,-1.02 2.4,-1.605 1.2,2.445 3.36,4.05 6.3,4.77 0.12,-0.3 0.405,-0.705 0.645,-0.915 -1.41,-0.285 -2.67,-0.795 -3.675,-1.5 0.87,-0.405 1.89,-0.96 2.67,-1.5 z"
       style="font-weight:normal;line-height:110%;font-family:'Noto Sans CJK SC';-inkscape-font-specification:'Noto Sans CJK SC'"
       id="path1446" />
    <path
       d="m 175.7177,372.63151 c 0.975,0.675 1.74,1.515 2.385,2.43 -0.96,4.23 -2.82,7.26 -6.165,8.985 0.3,0.21 0.81,0.66 1.005,0.9 3.015,-1.77 4.92,-4.515 6.06,-8.415 1.65,3 2.685,6.45 6.105,8.355 0.075,-0.33 0.345,-0.945 0.555,-1.23 -4.965,-2.97 -4.515,-8.58 -9.27,-11.985 z"
       style="font-weight:normal;line-height:110%;font-family:'Noto Sans CJK SC';-inkscape-font-specification:'Noto Sans CJK SC'"
       id="path1448" />
    <path
       d="m 189.1577,376.98151 c 1.26,-1.35 2.4,-3.105 3.165,-5.01 l -1.185,-0.33 c -0.87,2.28 -2.385,4.35 -4.17,5.64 0.285,0.21 0.75,0.63 0.96,0.855 0.39,-0.33 0.795,-0.69 1.17,-1.095 v 1.035 h 2.88 c -0.345,2.52 -1.17,4.89 -4.695,6.075 0.24,0.21 0.555,0.66 0.705,0.945 3.765,-1.38 4.755,-4.065 5.16,-7.02 h 4.065 c -0.18,3.72 -0.39,5.19 -0.765,5.565 -0.165,0.15 -0.33,0.195 -0.645,0.195 -0.36,0 -1.26,-0.015 -2.235,-0.105 0.21,0.315 0.345,0.78 0.36,1.11 0.93,0.06 1.86,0.075 2.355,0.03 0.525,-0.03 0.84,-0.15 1.17,-0.525 0.51,-0.57 0.705,-2.28 0.915,-6.825 0.015,-0.15 0.03,-0.54 0.03,-0.54 z m 6.165,-4.95 c 1.05,2.205 2.835,4.605 4.395,5.97 0.21,-0.3 0.6,-0.72 0.9,-0.945 -1.56,-1.17 -3.36,-3.42 -4.29,-5.445 z"
       style="font-weight:normal;line-height:110%;font-family:'Noto Sans CJK SC';-inkscape-font-specification:'Noto Sans CJK SC'"
       id="path1450" />
    <path
       d="m 203.8577,383.53651 v -10.305 h 11.25 v -1.065 h -12.345 v 12.435 h 12.72 v -1.065 z m 9.84,-1.845 c -0.795,-0.96 -2.01,-2.16 -3.345,-3.39 1.08,-1.215 2.055,-2.535 2.88,-3.93 l -1.035,-0.42 c -0.72,1.26 -1.62,2.505 -2.64,3.63 -1.2,-1.08 -2.475,-2.175 -3.615,-3.09 l -0.78,0.66 c 1.17,0.96 2.445,2.085 3.66,3.21 -1.26,1.29 -2.685,2.43 -4.14,3.3 0.27,0.18 0.69,0.615 0.885,0.825 1.395,-0.9 2.775,-2.07 4.035,-3.375 1.305,1.23 2.46,2.445 3.21,3.375 z"
       style="font-weight:normal;line-height:110%;font-family:'Noto Sans CJK SC';-inkscape-font-specification:'Noto Sans CJK SC'"
       id="path1452" />
  </g>
  <g
     aria-label="在系统日记中记录请求"
     id="text169"
     style="font-weight:500;font-size:15px;line-height:110%;font-family:Poppins;-inkscape-font-specification:'Poppins Medium';letter-spacing:0;word-spacing:0">
    <path
       d="m 431.9136,238.6765 h 3.375 v -1.05 h -3.375 v -2.865 h -1.11 v 2.865 h -3.36 v 1.05 h 3.36 v 4.215 h -3.945 v 1.05 h 9.015 v -1.05 h -3.96 z m -3.765,-5.76 c 0.27,-0.675 0.525,-1.365 0.72,-2.04 l -1.14,-0.285 c -0.21,0.765 -0.48,1.56 -0.795,2.325 h -4.095 v 1.065 h 3.6 c -0.93,1.905 -2.25,3.675 -3.96,4.89 0.18,0.24 0.465,0.705 0.57,1.005 0.63,-0.45 1.215,-0.945 1.74,-1.515 v 5.88 h 1.095 v -7.2 c 0.705,-0.96 1.29,-1.98 1.815,-3.06 h 8.175 v -1.065 z"
       style="font-weight:normal;line-height:110%;font-family:'Noto Sans CJK SC';-inkscape-font-specification:'Noto Sans CJK SC'"
       id="path1455" />
    <path
       d="m 441.1686,239.7715 c -0.78,1.065 -2.01,2.175 -3.21,2.895 0.3,0.15 0.75,0.525 0.975,0.735 1.125,-0.795 2.445,-2.04 3.345,-3.24 z m 7.59,-1.23 c 0.42,0.495 0.795,0.975 1.05,1.35 l 0.885,-0.54 c -0.615,-0.9 -1.89,-2.28 -3.06,-3.3 l -0.84,0.435 c 0.39,0.375 0.81,0.78 1.2,1.215 l -6.555,0.42 c 2.25,-1.08 4.53,-2.46 6.72,-4.125 l -0.855,-0.72 c -0.75,0.615 -1.575,1.215 -2.385,1.755 l -3.63,0.18 c 1.065,-0.765 2.16,-1.74 3.135,-2.76 1.95,-0.195 3.795,-0.48 5.22,-0.825 l -0.795,-0.915 c -2.4,0.6 -6.735,0.99 -10.35,1.185 0.12,0.255 0.255,0.69 0.285,0.975 1.305,-0.06 2.7,-0.15 4.095,-0.27 -0.975,1.02 -2.07,1.905 -2.46,2.145 -0.435,0.345 -0.78,0.57 -1.095,0.6 0.12,0.285 0.27,0.795 0.33,1.005 0.285,-0.12 0.765,-0.18 3.81,-0.36 -1.29,0.78 -2.385,1.38 -2.895,1.62 -0.93,0.465 -1.59,0.75 -2.085,0.81 0.135,0.3 0.3,0.81 0.345,1.035 0.42,-0.165 1.005,-0.255 5.1,-0.555 v 3.9 c 0,0.18 -0.045,0.24 -0.3,0.255 -0.24,0 -1.05,0 -1.95,-0.03 0.18,0.315 0.375,0.765 0.42,1.095 1.095,0 1.845,0 2.325,-0.195 0.495,-0.18 0.63,-0.48 0.63,-1.11 v -4.005 z m -2.385,1.725 c 1.245,0.96 2.775,2.325 3.51,3.165 l 0.945,-0.675 c -0.795,-0.84 -2.34,-2.16 -3.57,-3.06 z"
       style="font-weight:normal;line-height:110%;font-family:'Noto Sans CJK SC';-inkscape-font-specification:'Noto Sans CJK SC'"
       id="path1457" />
    <path
       d="m 466.0236,237.7165 c -0.435,-0.84 -1.41,-2.235 -2.205,-3.285 l -0.87,0.435 c 0.33,0.435 0.675,0.93 0.99,1.41 l -4.11,0.345 c 0.66,-0.81 1.515,-1.965 2.145,-2.85 h 4.035 v -1.005 h -4.26 l 0.945,-0.3 c -0.18,-0.48 -0.57,-1.305 -0.9,-1.905 l -1.02,0.285 c 0.285,0.6 0.66,1.41 0.81,1.92 h -3.615 v 1.005 h 2.7 c -0.66,0.93 -1.725,2.295 -2.07,2.61 -0.27,0.285 -0.66,0.39 -0.93,0.465 0.105,0.225 0.315,0.81 0.375,1.08 0.405,-0.18 1.035,-0.255 6.45,-0.765 0.24,0.405 0.45,0.78 0.6,1.095 z m -11.445,1.095 c 1.125,-1.305 2.25,-2.895 3.18,-4.515 l -0.99,-0.585 c -0.285,0.54 -0.6,1.11 -0.945,1.635 l -1.815,0.195 c 0.915,-1.29 1.815,-2.91 2.52,-4.47 l -1.14,-0.525 c -0.645,1.8 -1.755,3.72 -2.115,4.215 -0.315,0.495 -0.6,0.84 -0.87,0.9 0.135,0.33 0.33,0.9 0.39,1.155 0.225,-0.12 0.57,-0.195 2.355,-0.45 -0.63,0.93 -1.215,1.68 -1.485,1.965 -0.465,0.555 -0.825,0.915 -1.125,0.99 0.12,0.3 0.3,0.84 0.36,1.065 0.315,-0.195 0.81,-0.345 4.515,-1.155 -0.045,-0.225 -0.06,-0.675 -0.03,-0.975 z m 2.79,2.1 c -1.8,0.54 -3.63,1.08 -4.83,1.395 l 0.255,1.11 c 1.335,-0.435 3.09,-0.99 4.755,-1.53 z m 2.145,-3.03 c -0.105,2.955 -0.45,4.56 -2.88,5.475 0.255,0.18 0.555,0.615 0.675,0.885 2.715,-1.095 3.18,-3 3.3,-6.36 z m 4.26,5.145 c -0.33,0 -0.375,-0.06 -0.375,-0.45 v -4.71 h -1.095 v 4.71 c 0,1.08 0.255,1.41 1.305,1.41 h 1.305 c 0.915,0 1.17,-0.54 1.26,-2.58 -0.285,-0.075 -0.735,-0.24 -0.96,-0.45 -0.045,1.785 -0.105,2.07 -0.42,2.07 z"
       style="font-weight:normal;line-height:110%;font-family:'Noto Sans CJK SC';-inkscape-font-specification:'Noto Sans CJK SC'"
       id="path1459" />
    <path
       d="m 470.6736,242.0515 v -4.185 h 7.44 v 4.185 z m 7.44,-9.33 v 4.05 h -7.44 v -4.05 z m -8.565,-1.095 v 12.495 h 1.125 v -0.975 h 7.44 v 0.915 h 1.17 v -12.435 z"
       style="font-weight:normal;line-height:110%;font-family:'Noto Sans CJK SC';-inkscape-font-specification:'Noto Sans CJK SC'"
       id="path1461" />
    <path
       d="m 486.8886,233.2765 c -0.51,-0.63 -1.56,-1.605 -2.355,-2.295 l -0.765,0.675 c 0.825,0.72 1.845,1.755 2.31,2.4 z m -0.825,8.46 v -6.45 h -3.465 v 1.08 h 2.37 v 5.355 c 0,0.735 -0.435,1.23 -0.705,1.455 0.195,0.18 0.495,0.585 0.615,0.825 v -0.015 c 0.225,-0.285 0.615,-0.585 3.105,-2.355 -0.12,-0.225 -0.285,-0.66 -0.36,-0.96 z m 4.635,1.26 c -0.96,0 -1.155,-0.135 -1.155,-0.735 v -4.665 h 4.53 v 0.78 h 1.095 v -6.72 h -7.035 v 1.095 h 5.94 v 3.78 h -5.655 v 5.73 c 0,1.44 0.525,1.815 2.205,1.815 h 3.435 c 1.635,0 1.995,-0.675 2.175,-3.105 -0.33,-0.075 -0.81,-0.27 -1.08,-0.465 -0.09,2.115 -0.24,2.49 -1.17,2.49 z"
       style="font-weight:normal;line-height:110%;font-family:'Noto Sans CJK SC';-inkscape-font-specification:'Noto Sans CJK SC'"
       id="path1463" />
    <path
       d="m 504.8886,238.3315 v -3.975 h 4.305 v 3.975 z m -5.445,0 v -3.975 h 4.29 v 3.975 z m 5.445,-5.07 v -2.67 h -1.155 v 2.67 h -5.385 v 7.095 h 1.095 v -0.93 h 4.29 v 4.86 h 1.155 v -4.86 h 4.305 v 0.855 h 1.14 v -7.02 z"
       style="font-weight:normal;line-height:110%;font-family:'Noto Sans CJK SC';-inkscape-font-specification:'Noto Sans CJK SC'"
       id="path1465" />
    <path
       d="m 516.8886,233.2765 c -0.51,-0.63 -1.56,-1.605 -2.355,-2.295 l -0.765,0.675 c 0.825,0.72 1.845,1.755 2.31,2.4 z m -0.825,8.46 v -6.45 h -3.465 v 1.08 h 2.37 v 5.355 c 0,0.735 -0.435,1.23 -0.705,1.455 0.195,0.18 0.495,0.585 0.615,0.825 v -0.015 c 0.225,-0.285 0.615,-0.585 3.105,-2.355 -0.12,-0.225 -0.285,-0.66 -0.36,-0.96 z m 4.635,1.26 c -0.96,0 -1.155,-0.135 -1.155,-0.735 v -4.665 h 4.53 v 0.78 h 1.095 v -6.72 h -7.035 v 1.095 h 5.94 v 3.78 h -5.655 v 5.73 c 0,1.44 0.525,1.815 2.205,1.815 h 3.435 c 1.635,0 1.995,-0.675 2.175,-3.105 -0.33,-0.075 -0.81,-0.27 -1.08,-0.465 -0.09,2.115 -0.24,2.49 -1.17,2.49 z"
       style="font-weight:normal;line-height:110%;font-family:'Noto Sans CJK SC';-inkscape-font-specification:'Noto Sans CJK SC'"
       id="path1467" />
    <path
       d="m 538.9686,237.5965 c -0.675,0.675 -1.77,1.545 -2.7,2.19 -0.555,-0.645 -1.02,-1.365 -1.38,-2.13 v -0.435 h 6.015 v -0.99 h -2.04 c 0.135,-1.53 0.255,-3.375 0.285,-4.785 l -0.87,-0.06 -0.21,0.045 h -9.15 v 1.035 h 9.015 c -0.015,0.405 -0.045,0.9 -0.06,1.38 h -8.52 v 1.02 h 8.46 c -0.03,0.465 -0.06,0.93 -0.09,1.365 h -9.825 v 0.99 h 5.88 v 2.73 c -2.16,0.885 -4.41,1.8 -5.85,2.34 l 0.585,0.99 c 1.47,-0.615 3.42,-1.455 5.265,-2.28 v 2.07 c 0,0.21 -0.075,0.285 -0.33,0.3 -0.225,0.015 -1.05,0.015 -1.935,-0.03 0.15,0.285 0.33,0.69 0.39,0.99 1.155,0 1.905,0 2.37,-0.165 0.465,-0.165 0.615,-0.435 0.615,-1.08 v -3.525 c 1.29,1.95 3.15,3.405 5.475,4.155 0.165,-0.315 0.48,-0.75 0.735,-0.975 -1.62,-0.435 -3.03,-1.23 -4.155,-2.265 0.945,-0.585 2.085,-1.425 2.97,-2.19 z m -10.05,0.765 c 0.945,0.57 2.145,1.41 2.715,1.98 l 0.78,-0.765 c -0.6,-0.57 -1.815,-1.365 -2.76,-1.875 z"
       style="font-weight:normal;line-height:110%;font-family:'Noto Sans CJK SC';-inkscape-font-specification:'Noto Sans CJK SC'"
       id="path1469" />
    <path
       d="m 546.4836,233.1415 c -0.465,-0.6 -1.485,-1.53 -2.265,-2.19 l -0.72,0.66 c 0.78,0.705 1.77,1.68 2.22,2.31 z m -0.645,8.535 v -6.39 h -3.315 v 1.065 h 2.235 v 5.445 c 0,0.66 -0.42,1.11 -0.705,1.275 0.195,0.225 0.48,0.69 0.585,0.945 0.225,-0.285 0.615,-0.615 3.12,-2.55 -0.12,-0.21 -0.315,-0.63 -0.39,-0.93 z m 3.42,-0.51 v -1.215 h 4.68 v 1.215 z m 4.68,-3.15 v 1.155 h -4.68 v -1.155 z m 1.065,-0.87 h -6.795 v 7.14 h 1.05 v -2.31 h 4.68 v 1.05 c 0,0.195 -0.06,0.255 -0.285,0.255 -0.18,0.015 -0.9,0.015 -1.665,-0.015 0.135,0.285 0.285,0.69 0.33,0.96 1.065,0.015 1.725,0 2.16,-0.165 0.405,-0.165 0.525,-0.45 0.525,-1.02 z m -2.865,-1.71 v -1.05 h 3.15 v -0.81 h -3.15 v -0.945 h 3.6 v -0.855 h -3.6 v -1.17 h -1.095 v 1.17 h -3.45 v 0.855 h 3.45 v 0.945 h -3.09 v 0.81 h 3.09 v 1.05 h -3.9 v 0.855 h 9.03 v -0.855 z"
       style="font-weight:normal;line-height:110%;font-family:'Noto Sans CJK SC';-inkscape-font-specification:'Noto Sans CJK SC'"
       id="path1471" />
    <path
       d="m 569.2836,234.8665 c -0.675,0.93 -1.8,2.115 -2.73,2.97 -0.675,-1.065 -1.245,-2.235 -1.665,-3.45 v -0.195 h 6 v -1.08 h -1.845 l 0.63,-0.72 c -0.6,-0.51 -1.8,-1.215 -2.745,-1.695 l -0.66,0.705 c 0.9,0.48 2.025,1.185 2.64,1.71 h -4.02 v -2.475 h -1.125 v 2.475 h -5.895 v 1.08 h 5.895 v 4.155 c -2.265,1.29 -4.71,2.655 -6.225,3.435 l 0.72,1.005 c 1.53,-0.885 3.57,-2.1 5.505,-3.3 v 3.3 c 0,0.285 -0.105,0.36 -0.375,0.375 -0.3,0.015 -1.275,0.015 -2.295,-0.015 0.15,0.33 0.33,0.855 0.39,1.17 1.32,0 2.205,-0.03 2.7,-0.225 0.495,-0.18 0.705,-0.525 0.705,-1.305 v -5.955 c 1.29,2.76 3.165,5.04 5.58,6.21 0.195,-0.3 0.555,-0.735 0.81,-0.945 -1.62,-0.705 -3.045,-1.935 -4.17,-3.435 1.02,-0.84 2.22,-2.055 3.135,-3.12 z m -7.26,2.985 c -0.48,-0.81 -1.575,-1.965 -2.52,-2.775 l -0.84,0.585 c 0.945,0.84 1.995,2.04 2.46,2.85 z"
       style="font-weight:normal;line-height:110%;font-family:'Noto Sans CJK SC';-inkscape-font-specification:'Noto Sans CJK SC'"
       id="path1473" />
  </g>
  <g
     aria-label="使用分区密钥响应 RPC 请求"
     id="text175"
     style="font-weight:500;font-size:15px;line-height:110%;font-family:Poppins;-inkscape-font-specification:'Poppins Medium';letter-spacing:0;word-spacing:0">
    <path
       d="m 426.64151,293.06151 c -0.87,2.265 -2.325,4.5 -3.84,5.925 0.21,0.255 0.525,0.825 0.63,1.08 0.555,-0.555 1.125,-1.215 1.65,-1.95 v 8.745 h 1.065 v -10.35 c 0.585,-1.005 1.125,-2.07 1.545,-3.12 z m 2.115,7.35 v -2.22 h 2.67 v 1.545 c 0,0.225 0,0.45 -0.015,0.675 z m 6.525,-2.22 v 2.22 h -2.775 c 0.015,-0.225 0.015,-0.45 0.015,-0.675 v -1.545 z m 1.065,3.165 v -4.11 h -3.825 v -1.47 h 4.32 v -1.02 h -4.32 v -1.605 h -1.095 v 1.605 h -4.14 v 1.02 h 4.14 v 1.47 h -3.705 v 4.11 h 3.63 c -0.105,0.825 -0.33,1.605 -0.81,2.31 -0.795,-0.555 -1.44,-1.215 -1.89,-1.995 l -0.93,0.3 c 0.555,0.96 1.29,1.77 2.175,2.445 -0.69,0.615 -1.695,1.14 -3.165,1.515 0.24,0.21 0.555,0.675 0.675,0.915 1.56,-0.465 2.64,-1.095 3.39,-1.83 1.53,0.915 3.405,1.5 5.52,1.815 0.15,-0.33 0.42,-0.765 0.66,-1.005 -2.13,-0.255 -4.02,-0.765 -5.52,-1.59 0.6,-0.87 0.87,-1.845 0.99,-2.88 z"
       style="font-weight:normal;font-family:'Noto Sans CJK SC';-inkscape-font-specification:'Noto Sans CJK SC'"
       id="path1501" />
    <path
       d="m 445.58651,301.16151 v -2.49 h 4.035 v 2.49 z m -4.755,0 c 0.045,-0.555 0.06,-1.11 0.06,-1.605 v -0.885 h 3.585 v 2.49 z m 3.645,-5.94 v 2.4 h -3.585 v -2.4 z m 5.145,2.4 h -4.035 v -2.4 h 4.035 z m 1.095,-3.465 h -10.92 v 5.4 c 0,2.085 -0.15,4.725 -1.8,6.585 0.24,0.135 0.69,0.51 0.855,0.735 1.14,-1.275 1.65,-2.985 1.875,-4.65 h 3.75 v 4.425 h 1.11 v -4.425 h 4.035 v 3.045 c 0,0.285 -0.105,0.375 -0.405,0.39 -0.27,0 -1.29,0.015 -2.34,-0.03 0.15,0.3 0.33,0.78 0.375,1.08 1.41,0.015 2.28,0 2.79,-0.18 0.48,-0.195 0.675,-0.525 0.675,-1.245 z"
       style="font-weight:normal;font-family:'Noto Sans CJK SC';-inkscape-font-specification:'Noto Sans CJK SC'"
       id="path1503" />
    <path
       d="m 455.35151,298.73151 c 1.26,-1.35 2.4,-3.105 3.165,-5.01 l -1.185,-0.33 c -0.87,2.28 -2.385,4.35 -4.17,5.64 0.285,0.21 0.75,0.63 0.96,0.855 0.39,-0.33 0.795,-0.69 1.17,-1.095 v 1.035 h 2.88 c -0.345,2.52 -1.17,4.89 -4.695,6.075 0.24,0.21 0.555,0.66 0.705,0.945 3.765,-1.38 4.755,-4.065 5.16,-7.02 h 4.065 c -0.18,3.72 -0.39,5.19 -0.765,5.565 -0.165,0.15 -0.33,0.195 -0.645,0.195 -0.36,0 -1.26,-0.015 -2.235,-0.105 0.21,0.315 0.345,0.78 0.36,1.11 0.93,0.06 1.86,0.075 2.355,0.03 0.525,-0.03 0.84,-0.15 1.17,-0.525 0.51,-0.57 0.705,-2.28 0.915,-6.825 0.015,-0.15 0.03,-0.54 0.03,-0.54 z m 6.165,-4.95 c 1.05,2.205 2.835,4.605 4.395,5.97 0.21,-0.3 0.6,-0.72 0.9,-0.945 -1.56,-1.17 -3.36,-3.42 -4.29,-5.445 z"
       style="font-weight:normal;font-family:'Noto Sans CJK SC';-inkscape-font-specification:'Noto Sans CJK SC'"
       id="path1505" />
    <path
       d="m 470.05151,305.28651 v -10.305 h 11.25 v -1.065 h -12.345 v 12.435 h 12.72 v -1.065 z m 9.84,-1.845 c -0.795,-0.96 -2.01,-2.16 -3.345,-3.39 1.08,-1.215 2.055,-2.535 2.88,-3.93 l -1.035,-0.42 c -0.72,1.26 -1.62,2.505 -2.64,3.63 -1.2,-1.08 -2.475,-2.175 -3.615,-3.09 l -0.78,0.66 c 1.17,0.96 2.445,2.085 3.66,3.21 -1.26,1.29 -2.685,2.43 -4.14,3.3 0.27,0.18 0.69,0.615 0.885,0.825 1.395,-0.9 2.775,-2.07 4.035,-3.375 1.305,1.23 2.46,2.445 3.21,3.375 z"
       style="font-weight:normal;font-family:'Noto Sans CJK SC';-inkscape-font-specification:'Noto Sans CJK SC'"
       id="path1507" />
    <path
       d="m 484.75151,295.38651 h 10.41 v 1.905 h 1.125 v -2.91 h -5.655 c -0.105,-0.435 -0.285,-0.99 -0.48,-1.44 l -1.05,0.18 c 0.15,0.375 0.285,0.855 0.375,1.26 h -5.82 v 2.91 h 1.095 z m 6.165,1.8 c -0.555,-0.525 -1.68,-1.185 -2.58,-1.575 l -0.585,0.645 c 0.93,0.42 2.04,1.11 2.58,1.65 z m -5.7,0.18 c -0.405,0.9 -1.125,2.01 -1.995,2.67 l 0.9,0.54 c 0.87,-0.72 1.53,-1.86 2.01,-2.79 z m 6.96,4.035 c 1.305,0 1.62,-0.435 1.77,-2.19 -0.285,-0.06 -0.69,-0.21 -0.93,-0.39 -0.075,1.455 -0.195,1.665 -0.915,1.665 h -3.03 c -0.24,0 -0.435,0 -0.585,-0.03 2.055,-1.005 3.915,-2.295 5.22,-3.885 l -0.96,-0.465 c -1.125,1.41 -2.805,2.565 -4.725,3.495 v -2.46 h -1.005 v 2.865 0.045 c -1.245,0.525 -2.595,0.945 -3.945,1.29 0.21,0.225 0.525,0.69 0.66,0.93 1.2,-0.345 2.4,-0.765 3.57,-1.26 0.27,0.3 0.795,0.39 1.71,0.39 z m 1.83,3.66 h -3.525 v -3.18 h -1.11 v 3.18 h -3.36 v -2.385 h -1.095 v 3.45 h 9.09 v 0.645 h 1.095 v -4.215 h -1.095 z m -0.615,-7.065 c 0.93,0.825 2.025,2.01 2.49,2.805 l 0.855,-0.615 c -0.51,-0.795 -1.62,-1.935 -2.55,-2.745 z"
       style="font-weight:normal;font-family:'Noto Sans CJK SC';-inkscape-font-specification:'Noto Sans CJK SC'"
       id="path1509" />
    <path
       d="m 504.10151,295.83651 v -1.035 h -3.405 c 0.225,-0.45 0.42,-0.915 0.585,-1.38 l -0.99,-0.3 c -0.48,1.395 -1.32,2.73 -2.265,3.6 0.195,0.255 0.495,0.81 0.585,1.035 0.54,-0.54 1.05,-1.185 1.5,-1.92 z m -2.535,8.88 v -3.225 h 2.415 v -1.005 h -2.415 v -2.025 h 2.205 v -1.02 h -4.65 v 1.02 h 1.35 v 2.025 h -2.1 v 1.005 h 2.1 v 3.09 c 0,0.585 -0.42,0.87 -0.705,0.99 0.195,0.285 0.375,0.795 0.465,1.11 0.255,-0.255 0.69,-0.51 3.555,-2.025 -0.075,-0.21 -0.15,-0.66 -0.18,-0.945 z m 4.68,-3.81 c 0.015,-0.315 0.015,-0.6 0.015,-0.9 v -1.665 h 3.795 v 2.565 z m 3.81,-6.075 v 2.49 h -3.795 v -2.49 z m 1.095,-1.02 h -5.985 v 6.195 c 0,2.07 -0.165,4.53 -1.845,6.24 0.285,0.12 0.75,0.435 0.945,0.63 1.275,-1.335 1.755,-3.18 1.92,-4.95 h 3.87 v 3.3 c 0,0.24 -0.09,0.3 -0.315,0.315 -0.195,0 -0.93,0 -1.695,-0.015 0.135,0.3 0.3,0.795 0.345,1.095 1.11,0 1.785,-0.03 2.19,-0.21 0.42,-0.195 0.57,-0.525 0.57,-1.17 z"
       style="font-weight:normal;font-family:'Noto Sans CJK SC';-inkscape-font-specification:'Noto Sans CJK SC'"
       id="path1511" />
    <path
       d="m 516.38651,295.55151 v 6.255 h -1.785 v -6.255 z m 0.96,-1.035 h -3.735 v 9.75 h 0.99 v -1.425 h 2.745 z m 5.955,4.59 v 3.315 h -1.755 v -3.315 z m 0.795,4.14 v -4.965 h -3.36 v 5.82 h 0.81 v -0.855 z m 2.31,-7.635 h -4.26 c 0.315,-0.69 0.66,-1.53 0.945,-2.28 l -1.245,-0.27 c -0.18,0.75 -0.51,1.77 -0.84,2.55 h -2.55 v 11.085 h 1.065 v -10.11 h 5.805 v 8.88 c 0,0.195 -0.06,0.255 -0.255,0.27 -0.18,0 -0.795,0.015 -1.455,-0.03 0.135,0.3 0.3,0.75 0.345,1.035 0.93,0.015 1.545,-0.015 1.935,-0.195 0.39,-0.18 0.51,-0.48 0.51,-1.065 z"
       style="font-weight:normal;font-family:'Noto Sans CJK SC';-inkscape-font-specification:'Noto Sans CJK SC'"
       id="path1513" />
    <path
       d="m 541.54151,296.07651 v -1.065 h -5.01 c -0.195,-0.525 -0.6,-1.38 -0.975,-2.025 l -1.08,0.27 c 0.285,0.54 0.6,1.23 0.795,1.755 h -5.955 v 4.08 c 0,2.115 -0.105,5.07 -1.245,7.2 0.24,0.105 0.765,0.42 0.945,0.615 1.215,-2.235 1.41,-5.565 1.41,-7.815 v -3.015 z m -4.575,6.21 c -0.225,-1.395 -0.78,-3.48 -1.29,-5.085 l -1.005,0.27 c 0.495,1.62 1.035,3.735 1.245,5.115 z m -2.88,0.72 c -0.315,-1.38 -1.035,-3.465 -1.695,-5.085 l -0.96,0.39 c 0.615,1.605 1.335,3.735 1.62,5.115 z m 3.6,2.025 c 1.365,-2.31 2.475,-5.025 3.195,-7.5 l -1.17,-0.42 c -0.585,2.565 -1.725,5.61 -3.165,7.92 h -5.925 v 1.065 h 11.115 v -1.065 z"
       style="font-weight:normal;font-family:'Noto Sans CJK SC';-inkscape-font-specification:'Noto Sans CJK SC'"
       id="path1515" />
    <path
       d="m 553.12152,305.64651 -2.49,-4.275 h -1.65 v 4.275 h -1.365 v -10.455 h 3.375 q 1.185,0 1.995,0.405 0.825,0.405 1.23,1.095 0.405,0.69 0.405,1.575 0,1.08 -0.63,1.905 -0.615,0.825 -1.86,1.095 l 2.625,4.38 z m -4.14,-5.37 h 2.01 q 1.11,0 1.665,-0.54 0.555,-0.555 0.555,-1.47 0,-0.93 -0.555,-1.44 -0.54,-0.51 -1.665,-0.51 h -2.01 z"
       style="line-height:110%"
       id="path1517" />
    <path
       d="m 563.72651,298.25151 q 0,1.305 -0.9,2.175 -0.885,0.855 -2.715,0.855 h -2.01 v 4.365 h -1.365 v -10.455 h 3.375 q 1.77,0 2.685,0.855 0.93,0.855 0.93,2.205 z m -3.615,1.905 q 1.14,0 1.68,-0.495 0.54,-0.495 0.54,-1.41 0,-1.935 -2.22,-1.935 h -2.01 v 3.84 z"
       style="line-height:110%"
       id="path1519" />
    <path
       d="m 564.91153,300.41151 q 0,-1.53 0.69,-2.745 0.69,-1.23 1.875,-1.92 1.2,-0.69 2.655,-0.69 1.71,0 2.985,0.825 1.275,0.825 1.86,2.34 h -1.635 q -0.435,-0.945 -1.26,-1.455 -0.81,-0.51 -1.95,-0.51 -1.095,0 -1.965,0.51 -0.87,0.51 -1.365,1.455 -0.495,0.93 -0.495,2.19 0,1.245 0.495,2.19 0.495,0.93 1.365,1.44 0.87,0.51 1.965,0.51 1.14,0 1.95,-0.495 0.825,-0.51 1.26,-1.455 h 1.635 q -0.585,1.5 -1.86,2.325 -1.275,0.81 -2.985,0.81 -1.455,0 -2.655,-0.675 -1.185,-0.69 -1.875,-1.905 -0.69,-1.215 -0.69,-2.745 z"
       style="line-height:110%"
       id="path1521" />
    <path
       d="m 584.48652,295.64151 c -0.465,-0.6 -1.485,-1.53 -2.265,-2.19 l -0.72,0.66 c 0.78,0.705 1.77,1.68 2.22,2.31 z m -0.645,8.535 v -6.39 h -3.315 v 1.065 h 2.235 v 5.445 c 0,0.66 -0.42,1.11 -0.705,1.275 0.195,0.225 0.48,0.69 0.585,0.945 0.225,-0.285 0.615,-0.615 3.12,-2.55 -0.12,-0.21 -0.315,-0.63 -0.39,-0.93 z m 3.42,-0.51 v -1.215 h 4.68 v 1.215 z m 4.68,-3.15 v 1.155 h -4.68 v -1.155 z m 1.065,-0.87 h -6.795 v 7.14 h 1.05 v -2.31 h 4.68 v 1.05 c 0,0.195 -0.06,0.255 -0.285,0.255 -0.18,0.015 -0.9,0.015 -1.665,-0.015 0.135,0.285 0.285,0.69 0.33,0.96 1.065,0.015 1.725,0 2.16,-0.165 0.405,-0.165 0.525,-0.45 0.525,-1.02 z m -2.865,-1.71 v -1.05 h 3.15 v -0.81 h -3.15 v -0.945 h 3.6 v -0.855 h -3.6 v -1.17 h -1.095 v 1.17 h -3.45 v 0.855 h 3.45 v 0.945 h -3.09 v 0.81 h 3.09 v 1.05 h -3.9 v 0.855 h 9.03 v -0.855 z"
       style="font-weight:normal;font-family:'Noto Sans CJK SC';-inkscape-font-specification:'Noto Sans CJK SC'"
       id="path1523" />
    <path
       d="m 607.28652,297.36651 c -0.675,0.93 -1.8,2.115 -2.73,2.97 -0.675,-1.065 -1.245,-2.235 -1.665,-3.45 v -0.195 h 6 v -1.08 h -1.845 l 0.63,-0.72 c -0.6,-0.51 -1.8,-1.215 -2.745,-1.695 l -0.66,0.705 c 0.9,0.48 2.025,1.185 2.64,1.71 h -4.02 v -2.475 h -1.125 v 2.475 h -5.895 v 1.08 h 5.895 v 4.155 c -2.265,1.29 -4.71,2.655 -6.225,3.435 l 0.72,1.005 c 1.53,-0.885 3.57,-2.1 5.505,-3.3 v 3.3 c 0,0.285 -0.105,0.36 -0.375,0.375 -0.3,0.015 -1.275,0.015 -2.295,-0.015 0.15,0.33 0.33,0.855 0.39,1.17 1.32,0 2.205,-0.03 2.7,-0.225 0.495,-0.18 0.705,-0.525 0.705,-1.305 v -5.955 c 1.29,2.76 3.165,5.04 5.58,6.21 0.195,-0.3 0.555,-0.735 0.81,-0.945 -1.62,-0.705 -3.045,-1.935 -4.17,-3.435 1.02,-0.84 2.22,-2.055 3.135,-3.12 z m -7.26,2.985 c -0.48,-0.81 -1.575,-1.965 -2.52,-2.775 l -0.84,0.585 c 0.945,0.84 1.995,2.04 2.46,2.85 z"
       style="font-weight:normal;font-family:'Noto Sans CJK SC';-inkscape-font-specification:'Noto Sans CJK SC'"
       id="path1525" />
  </g>
  <g
     aria-label="监听 TCP 上的 RPC 请求"
     id="text181"
     style="font-weight:500;font-size:15px;line-height:110%;font-family:Poppins;-inkscape-font-specification:'Poppins Medium';letter-spacing:0;word-spacing:0">
    <path
       d="m 435.89771,165.3553 v -1.02 h -4.395 c 0.21,-0.6 0.42,-1.215 0.585,-1.845 l -1.08,-0.225 c -0.54,2.205 -1.515,4.275 -2.775,5.58 0.27,0.165 0.72,0.51 0.915,0.675 0.735,-0.825 1.395,-1.935 1.935,-3.165 z m -4.62,1.635 c 1.065,0.75 2.355,1.8 2.97,2.49 l 0.9,-0.675 c -0.66,-0.69 -1.98,-1.71 -3.03,-2.4 z m -3.615,-4.695 h -1.095 v 7.065 h 1.095 z m -2.94,0.495 h -1.08 v 6.105 h 1.08 z m 0.54,8.43 h 2.01 v 3.3 h -2.01 z m 5.055,0 v 3.3 h -2.01 v -3.3 z m 3.075,0 v 3.3 h -2.04 v -3.3 z m 1.095,3.3 v -4.26 h -10.275 v 4.26 h -1.68 v 1.02 h 13.545 v -1.02 z"
       style="font-weight:normal;font-family:'Noto Sans CJK SC';-inkscape-font-specification:'Noto Sans CJK SC'"
       id="path1476" />
    <path
       d="m 440.99771,164.6803 v 6.525 h -1.95 v -6.525 z m 1.095,-1.08 h -4.125 v 9.84 h 1.08 v -1.155 h 3.045 z m 8.88,3.465 h -5.94 v -2.475 c 1.845,-0.345 3.84,-0.825 5.28,-1.395 l -0.93,-0.87 c -1.275,0.555 -3.51,1.125 -5.49,1.485 v 3.945 c 0,2.235 -0.165,5.28 -1.77,7.425 0.255,0.135 0.735,0.495 0.93,0.72 1.635,-2.175 1.95,-5.4 1.98,-7.74 h 2.895 v 7.755 h 1.125 v -7.755 h 1.92 z"
       style="font-weight:normal;font-family:'Noto Sans CJK SC';-inkscape-font-specification:'Noto Sans CJK SC'"
       id="path1478" />
    <path
       d="m 463.37772,164.3353 v 1.11 h -2.85 v 9.345 h -1.365 v -9.345 h -2.865 v -1.11 z"
       style="line-height:110%"
       id="path1480" />
    <path
       d="m 464.54773,169.5553 q 0,-1.53 0.69,-2.745 0.69,-1.23 1.875,-1.92 1.2,-0.69 2.655,-0.69 1.71,0 2.985,0.825 1.275,0.825 1.86,2.34 h -1.635 q -0.435,-0.945 -1.26,-1.455 -0.81,-0.51 -1.95,-0.51 -1.095,0 -1.965,0.51 -0.87,0.51 -1.365,1.455 -0.495,0.93 -0.495,2.19 0,1.245 0.495,2.19 0.495,0.93 1.365,1.44 0.87,0.51 1.965,0.51 1.14,0 1.95,-0.495 0.825,-0.51 1.26,-1.455 h 1.635 q -0.585,1.5 -1.86,2.325 -1.275,0.81 -2.985,0.81 -1.455,0 -2.655,-0.675 -1.185,-0.69 -1.875,-1.905 -0.69,-1.215 -0.69,-2.745 z"
       style="line-height:110%"
       id="path1482" />
    <path
       d="m 483.62771,167.3953 q 0,1.305 -0.9,2.175 -0.885,0.855 -2.715,0.855 h -2.01 v 4.365 h -1.365 v -10.455 h 3.375 q 1.77,0 2.685,0.855 0.93,0.855 0.93,2.205 z m -3.615,1.905 q 1.14,0 1.68,-0.495 0.54,-0.495 0.54,-1.41 0,-1.935 -2.22,-1.935 h -2.01 v 3.84 z"
       style="line-height:110%"
       id="path1484" />
    <path
       d="m 495.76272,174.1153 v -5.94 h 5.58 v -1.11 h -5.58 v -4.59 h -1.17 v 11.64 h -5.595 v 1.11 h 13.365 v -1.11 z"
       style="font-weight:normal;font-family:'Noto Sans CJK SC';-inkscape-font-specification:'Noto Sans CJK SC'"
       id="path1486" />
    <path
       d="m 508.69272,168.7753 h -3.15 v -3.135 h 3.15 z m -3.15,4.59 v -3.6 h 3.15 v 3.6 z m 1.26,-11.16 c -0.105,0.705 -0.375,1.71 -0.6,2.43 h -1.68 v 10.92 h 1.02 v -1.185 h 4.17 v -9.735 h -2.49 c 0.255,-0.645 0.525,-1.47 0.78,-2.205 z m 10.245,2.385 h -4.485 c 0.255,-0.705 0.465,-1.425 0.645,-2.16 l -1.065,-0.255 c -0.48,2.055 -1.29,4.125 -2.295,5.445 0.24,0.15 0.72,0.45 0.915,0.63 0.525,-0.705 0.99,-1.62 1.41,-2.625 h 3.81 c -0.195,5.97 -0.42,8.25 -0.915,8.775 -0.15,0.195 -0.315,0.225 -0.615,0.225 -0.345,0 -1.245,0 -2.22,-0.09 0.21,0.315 0.345,0.765 0.375,1.095 0.84,0.045 1.695,0.075 2.22,0.015 0.51,-0.045 0.855,-0.18 1.185,-0.6 0.6,-0.735 0.795,-3.045 1.035,-9.885 z m -2.37,6.75 c -0.48,-0.885 -1.515,-2.325 -2.355,-3.39 l -0.87,0.51 c 0.825,1.08 1.83,2.565 2.28,3.465 z"
       style="font-weight:normal;font-family:'Noto Sans CJK SC';-inkscape-font-specification:'Noto Sans CJK SC'"
       id="path1488" />
    <path
       d="m 528.83773,174.7903 -2.49,-4.275 h -1.65 v 4.275 h -1.365 v -10.455 h 3.375 q 1.185,0 1.995,0.405 0.825,0.405 1.23,1.095 0.405,0.69 0.405,1.575 0,1.08 -0.63,1.905 -0.615,0.825 -1.86,1.095 l 2.625,4.38 z m -4.14,-5.37 h 2.01 q 1.11,0 1.665,-0.54 0.555,-0.555 0.555,-1.47 0,-0.93 -0.555,-1.44 -0.54,-0.51 -1.665,-0.51 h -2.01 z"
       style="line-height:110%"
       id="path1490" />
    <path
       d="m 539.44272,167.3953 q 0,1.305 -0.9,2.175 -0.885,0.855 -2.715,0.855 h -2.01 v 4.365 h -1.365 v -10.455 h 3.375 q 1.77,0 2.685,0.855 0.93,0.855 0.93,2.205 z m -3.615,1.905 q 1.14,0 1.68,-0.495 0.54,-0.495 0.54,-1.41 0,-1.935 -2.22,-1.935 h -2.01 v 3.84 z"
       style="line-height:110%"
       id="path1492" />
    <path
       d="m 540.62773,169.5553 q 0,-1.53 0.69,-2.745 0.69,-1.23 1.875,-1.92 1.2,-0.69 2.655,-0.69 1.71,0 2.985,0.825 1.275,0.825 1.86,2.34 h -1.635 q -0.435,-0.945 -1.26,-1.455 -0.81,-0.51 -1.95,-0.51 -1.095,0 -1.965,0.51 -0.87,0.51 -1.365,1.455 -0.495,0.93 -0.495,2.19 0,1.245 0.495,2.19 0.495,0.93 1.365,1.44 0.87,0.51 1.965,0.51 1.14,0 1.95,-0.495 0.825,-0.51 1.26,-1.455 h 1.635 q -0.585,1.5 -1.86,2.325 -1.275,0.81 -2.985,0.81 -1.455,0 -2.655,-0.675 -1.185,-0.69 -1.875,-1.905 -0.69,-1.215 -0.69,-2.745 z"
       style="line-height:110%"
       id="path1494" />
    <path
       d="m 560.20272,164.7853 c -0.465,-0.6 -1.485,-1.53 -2.265,-2.19 l -0.72,0.66 c 0.78,0.705 1.77,1.68 2.22,2.31 z m -0.645,8.535 v -6.39 h -3.315 v 1.065 h 2.235 v 5.445 c 0,0.66 -0.42,1.11 -0.705,1.275 0.195,0.225 0.48,0.69 0.585,0.945 0.225,-0.285 0.615,-0.615 3.12,-2.55 -0.12,-0.21 -0.315,-0.63 -0.39,-0.93 z m 3.42,-0.51 v -1.215 h 4.68 v 1.215 z m 4.68,-3.15 v 1.155 h -4.68 v -1.155 z m 1.065,-0.87 h -6.795 v 7.14 h 1.05 v -2.31 h 4.68 v 1.05 c 0,0.195 -0.06,0.255 -0.285,0.255 -0.18,0.015 -0.9,0.015 -1.665,-0.015 0.135,0.285 0.285,0.69 0.33,0.96 1.065,0.015 1.725,0 2.16,-0.165 0.405,-0.165 0.525,-0.45 0.525,-1.02 z m -2.865,-1.71 v -1.05 h 3.15 v -0.81 h -3.15 v -0.945 h 3.6 v -0.855 h -3.6 v -1.17 h -1.095 v 1.17 h -3.45 v 0.855 h 3.45 v 0.945 h -3.09 v 0.81 h 3.09 v 1.05 h -3.9 v 0.855 h 9.03 v -0.855 z"
       style="font-weight:normal;font-family:'Noto Sans CJK SC';-inkscape-font-specification:'Noto Sans CJK SC'"
       id="path1496" />
    <path
       d="m 583.00272,166.5103 c -0.675,0.93 -1.8,2.115 -2.73,2.97 -0.675,-1.065 -1.245,-2.235 -1.665,-3.45 v -0.195 h 6 v -1.08 h -1.845 l 0.63,-0.72 c -0.6,-0.51 -1.8,-1.215 -2.745,-1.695 l -0.66,0.705 c 0.9,0.48 2.025,1.185 2.64,1.71 h -4.02 v -2.475 h -1.125 v 2.475 h -5.895 v 1.08 h 5.895 v 4.155 c -2.265,1.29 -4.71,2.655 -6.225,3.435 l 0.72,1.005 c 1.53,-0.885 3.57,-2.1 5.505,-3.3 v 3.3 c 0,0.285 -0.105,0.36 -0.375,0.375 -0.3,0.015 -1.275,0.015 -2.295,-0.015 0.15,0.33 0.33,0.855 0.39,1.17 1.32,0 2.205,-0.03 2.7,-0.225 0.495,-0.18 0.705,-0.525 0.705,-1.305 v -5.955 c 1.29,2.76 3.165,5.04 5.58,6.21 0.195,-0.3 0.555,-0.735 0.81,-0.945 -1.62,-0.705 -3.045,-1.935 -4.17,-3.435 1.02,-0.84 2.22,-2.055 3.135,-3.12 z m -7.26,2.985 c -0.48,-0.81 -1.575,-1.965 -2.52,-2.775 l -0.84,0.585 c 0.945,0.84 1.995,2.04 2.46,2.85 z"
       style="font-weight:normal;font-family:'Noto Sans CJK SC';-inkscape-font-specification:'Noto Sans CJK SC'"
       id="path1498" />
  </g>
  <path
     fill="#ededee"
     d="M386 168.0019c0 9.9418-8.0652 17.998-17.9994 17.998C358.0602 186 350 177.9438 350 168.002c0-9.9432 8.0602-18.002 18.0006-18.002C377.9348 150 386 158.0588 386 168.0019"
     id="path183" />
  <rect
     width="320"
     height="58"
     x="340"
     fill="#fe7c3f"
     id="rect185" />
  <g
     aria-label="cryptctl 服务器"
     id="text189"
     style="font-size:20.625px;line-height:0%;font-family:Sans;letter-spacing:0;word-spacing:0">
    <path
       d="m 425.84183,28.257526 q 0,-1.753125 0.70125,-3.0525 0.70125,-1.32 1.93875,-2.041875 1.25812,-0.721875 2.86687,-0.721875 2.08313,0 3.42375,1.010625 1.36125,1.010625 1.79438,2.805 h -2.02125 q -0.28875,-1.03125 -1.13438,-1.629375 -0.825,-0.598125 -2.0625,-0.598125 -1.60875,0 -2.59875,1.11375 -0.99,1.093125 -0.99,3.114375 0,2.041875 0.99,3.155625 0.99,1.11375 2.59875,1.11375 1.2375,0 2.0625,-0.5775 0.825,-0.5775 1.13438,-1.65 h 2.02125 q -0.45375,1.7325 -1.815,2.784375 -1.36125,1.03125 -3.40313,1.03125 -1.60875,0 -2.86687,-0.721875 -1.2375,-0.721875 -1.93875,-2.041875 -0.70125,-1.32 -0.70125,-3.09375 z"
       style="font-weight:500;font-family:Poppins;-inkscape-font-specification:'Poppins Medium';text-align:center;text-anchor:middle"
       id="path1279" />
    <path
       d="m 440.93934,24.462526 q 0.495,-0.969375 1.4025,-1.505625 0.92812,-0.53625 2.24812,-0.53625 v 1.93875 h -0.495 q -3.15562,0 -3.15562,3.42375 v 6.14625 h -1.87688 v -11.3025 h 1.87688 z"
       style="font-weight:500;font-family:Poppins;-inkscape-font-specification:'Poppins Medium';text-align:center;text-anchor:middle"
       id="path1281" />
    <path
       d="m 456.49057,22.626901 -6.80625,16.62375 h -1.93875 l 2.2275,-5.445 -4.55813,-11.17875 h 2.08313 l 3.5475,9.1575 3.50625,-9.1575 z"
       style="font-weight:500;font-family:Poppins;-inkscape-font-specification:'Poppins Medium';text-align:center;text-anchor:middle"
       id="path1283" />
    <path
       d="m 460.24431,24.710026 q 0.55688,-0.969375 1.65,-1.60875 1.11375,-0.66 2.57813,-0.66 1.50562,0 2.7225,0.721875 1.2375,0.721875 1.93875,2.041875 0.70125,1.299375 0.70125,3.031875 0,1.711875 -0.70125,3.0525 -0.70125,1.340625 -1.93875,2.083125 -1.21688,0.7425 -2.7225,0.7425 -1.44375,0 -2.5575,-0.639375 -1.09313,-0.66 -1.67063,-1.629375 v 7.445625 h -1.87687 v -16.665 h 1.87687 z m 7.6725,3.526875 q 0,-1.27875 -0.51562,-2.2275 -0.51563,-0.94875 -1.4025,-1.44375 -0.86625,-0.495 -1.91813,-0.495 -1.03125,0 -1.91812,0.515625 -0.86625,0.495 -1.4025,1.464375 -0.51563,0.94875 -0.51563,2.206875 0,1.27875 0.51563,2.248125 0.53625,0.94875 1.4025,1.464375 0.88687,0.495 1.91812,0.495 1.05188,0 1.91813,-0.495 0.88687,-0.515625 1.4025,-1.464375 0.51562,-0.969375 0.51562,-2.26875 z"
       style="font-weight:500;font-family:Poppins;-inkscape-font-specification:'Poppins Medium';text-align:center;text-anchor:middle"
       id="path1285" />
    <path
       d="m 474.59933,24.173776 v 6.661875 q 0,0.825 0.35062,1.175625 0.35063,0.33 1.21688,0.33 h 1.38187 v 1.588125 h -1.69125 q -1.5675,0 -2.35125,-0.721875 -0.78375,-0.721875 -0.78375,-2.371875 v -6.661875 h -1.46437 v -1.546875 h 1.46437 v -2.84625 h 1.87688 v 2.84625 h 2.94937 v 1.546875 z"
       style="font-weight:500;font-family:Poppins;-inkscape-font-specification:'Poppins Medium';text-align:center;text-anchor:middle"
       id="path1287" />
    <path
       d="m 479.11621,28.257526 q 0,-1.753125 0.70125,-3.0525 0.70125,-1.32 1.93875,-2.041875 1.25812,-0.721875 2.86687,-0.721875 2.08313,0 3.42375,1.010625 1.36125,1.010625 1.79438,2.805 h -2.02125 q -0.28875,-1.03125 -1.13438,-1.629375 -0.825,-0.598125 -2.0625,-0.598125 -1.60875,0 -2.59875,1.11375 -0.99,1.093125 -0.99,3.114375 0,2.041875 0.99,3.155625 0.99,1.11375 2.59875,1.11375 1.2375,0 2.0625,-0.5775 0.825,-0.5775 1.13438,-1.65 h 2.02125 q -0.45375,1.7325 -1.815,2.784375 -1.36125,1.03125 -3.40313,1.03125 -1.60875,0 -2.86687,-0.721875 -1.2375,-0.721875 -1.93875,-2.041875 -0.70125,-1.32 -0.70125,-3.09375 z"
       style="font-weight:500;font-family:Poppins;-inkscape-font-specification:'Poppins Medium';text-align:center;text-anchor:middle"
       id="path1289" />
    <path
       d="m 494.62622,24.173776 v 6.661875 q 0,0.825 0.35062,1.175625 0.35063,0.33 1.21688,0.33 h 1.38187 v 1.588125 h -1.69125 q -1.5675,0 -2.35125,-0.721875 -0.78375,-0.721875 -0.78375,-2.371875 v -6.661875 h -1.46437 v -1.546875 h 1.46437 v -2.84625 h 1.87688 v 2.84625 h 2.94937 v 1.546875 z"
       style="font-weight:500;font-family:Poppins;-inkscape-font-specification:'Poppins Medium';text-align:center;text-anchor:middle"
       id="path1291" />
    <path
       d="m 501.72122,18.666901 v 15.2625 h -1.87687 v -15.2625 z"
       style="font-weight:500;font-family:Poppins;-inkscape-font-specification:'Poppins Medium';text-align:center;text-anchor:middle"
       id="path1293" />
    <path
       d="m 512.69373,26.896276 c 0.0412,-0.763125 0.0412,-1.505625 0.0412,-2.165625 v -0.86625 h 2.64 v 3.031875 z m 2.68125,-7.755 v 2.92875 h -2.64 v -2.92875 z m 1.77375,-1.77375 h -6.14625 v 7.363125 c 0,3.01125 -0.10312,7.13625 -1.46437,9.9825 0.45375,0.165 1.2375,0.598125 1.5675,0.886875 0.9075,-1.8975 1.29937,-4.455 1.485,-6.88875 h 2.78437 v 4.640625 c 0,0.28875 -0.10312,0.37125 -0.35062,0.391875 -0.26813,0 -1.09313,0.02063 -1.93875,-0.02062 0.2475,0.474375 0.47437,1.36125 0.51562,1.835625 1.38188,0.02062 2.2275,-0.02063 2.805,-0.350625 0.5775,-0.309375 0.7425,-0.886875 0.7425,-1.815 z m 3.34125,8.806875 h 0.37125 c 0.61875,2.02125 1.46438,3.8775 2.5575,5.445 -0.86625,1.03125 -1.85625,1.876875 -2.92875,2.43375 z m 5.6925,0 c -0.4125,1.485 -1.01062,2.805 -1.7325,3.980625 -0.825,-1.19625 -1.485,-2.536875 -1.95937,-3.980625 z m 0.94875,-1.815 -0.30937,0.06188 h -6.33188 v -5.218125 h 5.32125 v 2.145 c 0,0.2475 -0.10312,0.309375 -0.43312,0.309375 -0.28875,0.02062 -1.44375,0.02062 -2.57813,-0.02062 0.22688,0.45375 0.51563,1.134375 0.59813,1.629375 1.52625,0 2.61937,0 3.34125,-0.268125 0.72187,-0.2475 0.9075,-0.7425 0.9075,-1.629375 v -3.96 h -8.97188 v 18.15 h 1.815 v -1.464375 c 0.39188,0.33 0.86625,0.94875 1.11375,1.381875 1.0725,-0.639375 2.02125,-1.44375 2.8875,-2.43375 0.9075,1.03125 1.95938,1.8975 3.135,2.536875 0.28875,-0.474375 0.80438,-1.134375 1.2375,-1.485 -1.2375,-0.5775 -2.33062,-1.44375 -3.27937,-2.475 1.2375,-1.835625 2.16562,-4.104375 2.66062,-6.868125 z"
       style="font-weight:500;font-family:'Noto Sans CJK SC';-inkscape-font-specification:'Noto Sans CJK SC Medium';text-align:center;text-anchor:middle"
       id="path1295" />
    <path
       d="m 540.02186,28.010026 c 0.165,-0.53625 0.28875,-1.134375 0.39187,-1.753125 l -2.00062,-0.165 c -0.0825,0.70125 -0.20625,1.340625 -0.37125,1.918125 h -5.98125 v 1.65 h 5.34187 c -1.19625,2.330625 -3.3825,3.609375 -6.72375,4.269375 0.35063,0.37125 0.9075,1.175625 1.09313,1.60875 3.8775,-1.010625 6.3525,-2.68125 7.69312,-5.878125 h 5.91938 c -0.35063,2.35125 -0.72188,3.50625 -1.19625,3.8775 -0.22688,0.185625 -0.47438,0.20625 -0.92813,0.20625 -0.53625,0 -1.91812,-0.02062 -3.23812,-0.144375 0.33,0.474375 0.59812,1.175625 0.61875,1.670625 1.25812,0.0825 2.51625,0.0825 3.19687,0.04125 0.84563,-0.04125 1.36125,-0.165 1.87688,-0.61875 0.7425,-0.66 1.19625,-2.248125 1.67062,-5.89875 0.0412,-0.2475 0.10313,-0.78375 0.10313,-0.78375 z m -3.52688,-7.71375 h 7.92 c -1.17562,1.0725 -2.74312,1.93875 -4.5375,2.660625 -1.52625,-0.639375 -2.76375,-1.44375 -3.60937,-2.43375 z m 9.8175,-1.711875 -0.33,0.0825 h -8.0025 c 0.43313,-0.53625 0.825,-1.093125 1.155,-1.65 l -1.95937,-0.391875 c -1.05188,1.753125 -3.03188,3.733125 -5.91938,5.15625 0.39188,0.28875 0.92813,1.010625 1.155,1.44375 0.96938,-0.495 1.83563,-1.0725 2.59875,-1.670625 0.78375,0.825 1.67063,1.52625 2.70188,2.124375 -2.28938,0.639375 -4.76438,1.0725 -7.21875,1.299375 0.28875,0.433125 0.59812,1.19625 0.7425,1.670625 2.94937,-0.350625 5.96062,-0.94875 8.64187,-1.93875 2.35125,0.928125 5.17688,1.44375 8.31188,1.69125 0.22687,-0.495 0.66,-1.27875 1.0725,-1.69125 -2.57813,-0.144375 -4.99125,-0.45375 -7.05375,-0.99 2.20687,-1.093125 4.06312,-2.536875 5.28,-4.351875 z"
       style="font-weight:500;font-family:'Noto Sans CJK SC';-inkscape-font-specification:'Noto Sans CJK SC Medium';text-align:center;text-anchor:middle"
       id="path1297" />
    <path
       d="m 562.91561,33.351901 v -2.495625 h 3.135 v 2.495625 z m -5.28,0 h -2.90813 v -2.495625 h 2.90813 z m -0.18563,-11.75625 h -3.15562 v -2.454375 h 3.15562 z m 5.54813,-2.454375 h 3.34125 v 2.454375 h -3.34125 z m 6.62062,7.651875 v -1.69125 h -3.50625 l 0.51563,-0.495 c -0.5775,-0.474375 -1.60875,-0.99 -2.5575,-1.381875 h 4.10437 v -5.713125 h -6.93 v 5.713125 h 2.16563 l -0.84563,0.804375 c 0.72188,0.268125 1.54688,0.66 2.18625,1.0725 h -5.05312 c 0.39187,-0.598125 0.76312,-1.216875 1.05187,-1.835625 l -1.485,-0.28875 v -5.465625 h -6.6825 v 5.713125 h 6.105 c -0.30937,0.61875 -0.7425,1.258125 -1.2375,1.876875 h -6.24937 v 1.69125 h 4.5375 c -1.29938,1.051875 -2.92875,2.000625 -4.95,2.743125 0.35062,0.33 0.825,1.03125 1.03125,1.485 0.4125,-0.165 0.78375,-0.33 1.155,-0.515625 v 5.0325 h 1.75312 v -0.53625 h 2.90813 v 0.433125 h 1.83562 v -6.249375 h -4.06312 c 1.11375,-0.721875 2.08312,-1.546875 2.8875,-2.3925 h 3.73312 c 0.825,0.886875 1.85625,1.711875 2.99063,2.3925 h -3.85688 v 6.3525 h 1.75313 v -0.53625 h 3.135 v 0.433125 h 1.83562 v -4.888125 c 0.33,0.103125 0.61875,0.20625 0.94875,0.309375 0.2475,-0.45375 0.78375,-1.175625 1.19625,-1.52625 -2.02125,-0.474375 -4.06312,-1.4025 -5.56875,-2.536875 z"
       style="font-weight:500;font-family:'Noto Sans CJK SC';-inkscape-font-specification:'Noto Sans CJK SC Medium';text-align:center;text-anchor:middle"
       id="path1299" />
  </g>
  <path
     fill="#ededee"
     d="M385.8988 308.055c0 9.9125-8.0425 17.945-17.9488 17.945-9.9125 0-17.95-8.0325-17.95-17.945 0-9.9138 8.0375-17.9488 17.95-17.9488 9.9063 0 17.9488 8.035 17.9488 17.9488"
     id="path191" />
  <path
     d="M361.5852 304.4064c0-1.3213 1.0725-2.3963 2.3938-2.3963 1.3213 0 2.395 1.075 2.395 2.3963 0 1.32-1.0738 2.3937-2.395 2.3937-1.3213 0-2.3937-1.0737-2.3937-2.3937zm9.5225 4.19.3675-.3688c.1413-.1412.1413-.3712 0-.5137l-1.7787-1.7788c.145-.4275.3887-1.38.1875-2.5412-.2013-1.1713-.9163-3.2988-3.4388-4.3963-1.6675-.7225-3.2737-.7487-4.7825-.0725-1.8337.82-2.9537 2.45-3.2287 3.285-.5625 1.6988-1.0213 4.8863 2.1912 7.1388 1.91 1.3387 4.1038.9662 4.7975.8012l1.795 1.795c.1413.1438.3738.1438.5138 0l.6288-.6275 1.6162 1.6163a.3614.3614 0 0 0 .2575.1062l.91-.001.0875 1.8388a.3658.3658 0 0 0 .1212.2537c.0725.065.1763.09.2638.0913l1.9225-.1162.0613 1.3862c.009.1888.16.3413.35.3475l.79.0288.6963.7275a.363.363 0 0 0 .2625.1113c.0137 0 .0275 0 .0412-.002l1.8037-.2075a.3647.3647 0 0 0 .3225-.3613v-1.6312a.3701.3701 0 0 0-.1062-.258z"
     id="path193" />
  <path
     fill="none"
     stroke="#30ba78"
     stroke-width="2.3438"
     marker-end="url(#a)"
     d="M46.875 187.5 337.5 234.375"
     id="path195" />
  <path
     fill="#fe7c3f"
     stroke="#fe7c3f"
     stroke-width="2.3437"
     marker-end="url(#b)"
     d="m337.5 309.375-281.25 56.25"
     id="path197" />
  <path
     fill="none"
     stroke="#000"
     stroke-width="2.3438"
     marker-end="url(#c)"
     d="M358.125 163.3125h18.75"
     id="path199" />
  <path
     fill="none"
     stroke="#000"
     stroke-width="2.3438"
     marker-end="url(#c)"
     d="M376.875 172.6875h-18.75"
     id="path201" />
  <path
     fill="none"
     stroke="#0c322c"
     stroke-width="2.3437"
     d="m357.598 237.7548 6.9347 6.9347 13.8693-13.8694"
     id="path203" />
  <g
     aria-label="?"
     id="text207"
     style="font-weight:500;font-size:22.5px;line-height:1.25;font-family:Poppins;-inkscape-font-specification:'Poppins, Medium';letter-spacing:0;stroke-width:0.9375">
    <path
       d="m 27.808699,159.96749 q 2.2275,0 3.6,1.26 1.3725,1.26 1.3725,3.375 0,2.3625 -1.4625,3.51 -1.4625,1.125 -3.96,1.125 l -0.0675,2.1375 h -1.7775 l -0.09,-3.555 h 0.6525 q 2.2275,0 3.4875,-0.675 1.26,-0.675 1.26,-2.5425 0,-1.35 -0.81,-2.1375 -0.81,-0.7875 -2.1825,-0.7875 -1.395,0 -2.205,0.765 -0.7875,0.7425 -0.7875,2.0475 h -1.935 q 0,-1.35 0.6075,-2.3625 0.6075,-1.035 1.71,-1.5975 1.125,-0.5625 2.5875,-0.5625 z m -1.4175,16.02 q -0.585,0 -0.99,-0.405 -0.405,-0.405 -0.405,-0.99 0,-0.585 0.405,-0.99 0.405,-0.405 0.99,-0.405 0.5625,0 0.945,0.405 0.405,0.405 0.405,0.99 0,0.585 -0.405,0.99 -0.3825,0.405 -0.945,0.405 z"
       id="path1383" />
  </g>
  <g
     stroke="#000"
     transform="translate(-92.806 -70.7873) scale(.6547)"
     id="g219">
    <path
       stroke-linecap="round"
       stroke-width="1.0222"
       d="m169.19 260.331 5.1113-15.3334h20.4446l5.1112 15.3335v10.2223h-30.6669v-10.2223"
       id="path209" />
    <rect
       width="28.125"
       height="8.4375"
       x="-79.6875"
       y="211.875"
       fill="#fff"
       stroke-linecap="round"
       stroke-width="1.621"
       opacity=".995"
       paint-order="stroke fill markers"
       transform="translate(254.5238 35.2748) scale(1.06667)"
       id="rect211" />
    <rect
       width="3.2634"
       height="3.2634"
       x="-57.1875"
       y="213.75"
       fill="none"
       stroke-linecap="square"
       stroke-width=".8156"
       opacity=".995"
       paint-order="stroke fill markers"
       transform="translate(254.5238 35.2748) scale(1.06667)"
       id="rect213" />
    <rect
       width="7.3964"
       height="5.4103"
       x="180.5153"
       y="250.7593"
       fill="#fff"
       stroke="#fff"
       stroke-miterlimit="10"
       stroke-width=".6794"
       class="st0"
       id="rect215" />
    <path
       fill="none"
       stroke="#fff"
       stroke-miterlimit="10"
       stroke-width=".7944"
       d="M184.2135 246.7045c-1.3615 0-2.4655.8096-2.4655 1.808v2.712h4.931v-2.712c0-.9984-1.104-1.808-2.4655-1.808z"
       class="st0"
       id="path217" />
  </g>
  <g
     stroke="#000"
     transform="translate(-144.991 136.3011) scale(.93749)"
     id="g227">
    <path
       stroke-linecap="round"
       stroke-width=".7139"
       d="m173.8159 259.5709 3.5693-10.708h14.2773l3.5693 10.708v7.1386h-21.416v-7.1386"
       id="path221" />
    <rect
       width="20.9501"
       height="6.285"
       x="174.0488"
       y="260.2304"
       fill="#fff"
       stroke-linecap="round"
       stroke-width="1.2075"
       opacity=".995"
       paint-order="stroke fill markers"
       id="rect223" />
    <rect
       width="2.4309"
       height="2.4309"
       x="190.8089"
       y="261.627"
       fill="none"
       stroke-linecap="square"
       stroke-width=".6076"
       opacity=".995"
       paint-order="stroke fill markers"
       id="rect225" />
  </g>
  <g
     stroke="#000"
     stroke-width="6.4669"
     transform="translate(16.4573 353.2682) scale(.0852)"
     id="g233">
    <rect
       width="54"
       height="39.5001"
       x="108.5"
       y="243.5"
       fill="#fff"
       stroke="#fff"
       stroke-width="4.9605"
       class="st0"
       id="rect229" />
    <path
       fill="none"
       stroke="#fff"
       stroke-width="5.7999"
       d="M153.5 228.0999c0-9.94-8.06-18-18-18s-18 8.06-18 18v27h36"
       class="st0"
       id="path231" />
  </g>
</svg>
