<?xml version="1.0" encoding="UTF-8" standalone="no"?>
<svg
   xmlns:dc="http://purl.org/dc/elements/1.1/"
   xmlns:cc="http://creativecommons.org/ns#"
   xmlns:rdf="http://www.w3.org/1999/02/22-rdf-syntax-ns#"
   xmlns:svg="http://www.w3.org/2000/svg"
   xmlns="http://www.w3.org/2000/svg"
   xmlns:sodipodi="http://sodipodi.sourceforge.net/DTD/sodipodi-0.dtd"
   xmlns:inkscape="http://www.inkscape.org/namespaces/inkscape"
   width="2039pt"
   height="3302pt"
   viewBox="2823 33 8090 13104"
   version="1.1"
   id="svg199"
   sodipodi:docname="fire_tables.svg"
   inkscape:version="0.92.4 (5da689c313, 2019-01-14)">
  <metadata
     id="metadata205">
    <rdf:RDF>
      <cc:Work
         rdf:about="">
        <dc:format>image/svg+xml</dc:format>
        <dc:type
           rdf:resource="http://purl.org/dc/dcmitype/StillImage" />
      </cc:Work>
    </rdf:RDF>
  </metadata>
  <defs
     id="defs203" />
  <sodipodi:namedview
     pagecolor="#ffffff"
     bordercolor="#666666"
     borderopacity="1"
     objecttolerance="10"
     gridtolerance="10"
     guidetolerance="10"
     inkscape:pageopacity="0"
     inkscape:pageshadow="2"
     inkscape:window-width="1920"
     inkscape:window-height="1027"
     id="namedview201"
     showgrid="false"
     inkscape:zoom="0.21441551"
     inkscape:cx="-63.667971"
     inkscape:cy="1013.1492"
     inkscape:window-x="-8"
     inkscape:window-y="-8"
     inkscape:window-maximized="1"
     inkscape:current-layer="g197" />
  <g
     id="g197"
     style="fill:none">
    <!-- Line -->
    <polygon
       points="10485,11004 10172,11004 10172,10260 9782,10260 9782,11004 9469,11004 9978,11513 "
       id="polygon2"
       style="fill:#e5e5e5;stroke:#ffffff;stroke-width:8px;stroke-dasharray:10, 30" />
    <!-- Line -->
    <polygon
       points="10127,1419 10127,675 9737,675 9737,1419 9424,1419 9933,1928 10440,1419 "
       id="polygon4"
       style="fill:#e5e5e5;stroke:#ffffff;stroke-width:8px;stroke-dasharray:10, 30"
       transform="translate(-59.527539)" />
    <!-- Line -->
    <polygon
       points="10440,6369 10127,6369 10127,5625 9737,5625 9737,6369 9424,6369 9933,6878 "
       id="polygon6"
       style="fill:#e5e5e5;stroke:#ffffff;stroke-width:8px;stroke-dasharray:10, 30" />
    <!-- Line -->
    <polygon
       points="5869,3849 6378,4358 6885,3849 6572,3849 6572,3105 6182,3105 6182,3849 "
       id="polygon8"
       style="fill:#e5e5e5;stroke:#ffffff;stroke-width:8px;stroke-dasharray:10, 30"
       transform="translate(0,11.905511)" />
    <!-- Line -->
    <polygon
       points="6885,8889 6572,8889 6572,8145 6182,8145 6182,8889 5869,8889 6378,9398 "
       id="polygon10"
       style="fill:#e5e5e5;stroke:#ffffff;stroke-width:8px;stroke-dasharray:10, 30" />
    <!-- Circle -->
    <circle
       cx="9900"
       cy="3510"
       r="630"
       id="circle12"
       style="stroke:#000000;stroke-width:8px" />
    <!-- Circle -->
    <circle
       cx="4050"
       cy="8190"
       r="630"
       id="circle14"
       style="stroke:#000000;stroke-width:8px" />
    <!-- Circle -->
    <circle
       cx="9900"
       cy="8235"
       r="90"
       id="circle16"
       style="stroke:#000000;stroke-width:8px" />
    <!-- Line -->
    <defs
       id="defs21">
      <clipPath
         id="cp0">
        <path
           d="m 2823,33 h 8090 V 13137 H 2823 Z m 7107,2711 h -60 l 23,143 h 14 z"
           id="path18"
           inkscape:connector-curvature="0"
           style="clip-rule:evenodd" />
      </clipPath>
    </defs>
    <polyline
       points=" 9900,2070 9900,2880"
       clip-path="url(#cp0)"
       id="polyline23"
       style="stroke:#000000;stroke-width:8px" />
    <!-- Forward arrow to point 9900,2880 -->
    <polygon
       points="9930,2744 9870,2744 9900,2864 "
       stroke-miterlimit="8"
       id="polygon25"
       style="fill:#000000;stroke:#000000;stroke-width:8px;stroke-miterlimit:8" />
    <!-- Line -->
    <defs
       id="defs30">
      <clipPath
         id="cp1">
        <path
           d="m 2823,33 h 8090 V 13137 H 2823 Z m 7107,4826 h -60 l 23,143 h 14 z"
           id="path27"
           inkscape:connector-curvature="0"
           style="clip-rule:evenodd" />
      </clipPath>
    </defs>
    <polyline
       points=" 9900,4140 9900,4995"
       clip-path="url(#cp1)"
       id="polyline32"
       style="stroke:#000000;stroke-width:8px" />
    <!-- Forward arrow to point 9900,4995 -->
    <polygon
       points="9930,4859 9870,4859 9900,4979 "
       stroke-miterlimit="8"
       id="polygon34"
       style="fill:#000000;stroke:#000000;stroke-width:8px;stroke-miterlimit:8" />
    <!-- Line -->
    <defs
       id="defs39">
      <clipPath
         id="cp2">
        <path
           d="m 2823,33 h 8090 V 13137 H 2823 Z m 4558,3507 v -60 l -143,23 v 14 z"
           id="path36"
           inkscape:connector-curvature="0"
           style="clip-rule:evenodd" />
      </clipPath>
    </defs>
    <polyline
       points=" 9270,3510 7245,3510"
       clip-path="url(#cp2)"
       id="polyline41"
       style="stroke:#000000;stroke-width:8px" />
    <!-- Forward arrow to point 7245,3510 -->
    <polygon
       points="7381,3540 7381,3480 7261,3510 "
       stroke-miterlimit="8"
       id="polygon43"
       style="fill:#000000;stroke:#000000;stroke-width:8px;stroke-miterlimit:8" />
    <!-- Line -->
    <rect
       x="2835"
       y="5265"
       width="2385"
       height="1440"
       rx="105"
       id="rect45"
       style="stroke:#000000;stroke-width:8px" />
    <!-- Line -->
    <defs
       id="defs50">
      <clipPath
         id="cp3">
        <path
           d="m 2823,33 h 8090 V 13137 H 2823 Z m 1257,5096 h -60 l 23,143 h 14 z"
           id="path47"
           inkscape:connector-curvature="0"
           style="clip-rule:evenodd" />
      </clipPath>
    </defs>
    <polyline
       points=" 5445,3555 4050,3555 4050,5265"
       clip-path="url(#cp3)"
       id="polyline52"
       style="stroke:#000000;stroke-width:8px" />
    <!-- Forward arrow to point 4050,5265 -->
    <polygon
       points="4080,5129 4020,5129 4050,5249 "
       stroke-miterlimit="8"
       id="polygon54"
       style="fill:#000000;stroke:#000000;stroke-width:8px;stroke-miterlimit:8" />
    <!-- Line -->
    <defs
       id="defs59">
      <clipPath
         id="cp4">
        <path
           d="m 2823,33 h 8090 V 13137 H 2823 Z m 1257,7391 h -60 l 23,143 h 14 z"
           id="path56"
           inkscape:connector-curvature="0"
           style="clip-rule:evenodd" />
      </clipPath>
    </defs>
    <polyline
       points=" 4050,6750 4050,7560"
       clip-path="url(#cp4)"
       id="polyline61"
       style="stroke:#000000;stroke-width:8px" />
    <!-- Forward arrow to point 4050,7560 -->
    <polygon
       points="4080,7424 4020,7424 4050,7544 "
       stroke-miterlimit="8"
       id="polygon63"
       style="fill:#000000;stroke:#000000;stroke-width:8px;stroke-miterlimit:8" />
    <!-- Line -->
    <defs
       id="defs68">
      <clipPath
         id="cp5">
        <path
           d="m 2823,33 h 8090 V 13137 H 2823 Z m 2486,8172 v 60 l 143,-23 v -14 z"
           id="path65"
           inkscape:connector-curvature="0"
           style="clip-rule:evenodd" />
      </clipPath>
    </defs>
    <polyline
       points=" 4680,8235 5445,8235"
       clip-path="url(#cp5)"
       id="polyline70"
       style="stroke:#000000;stroke-width:8px" />
    <!-- Forward arrow to point 5445,8235 -->
    <polygon
       points="5309,8205 5309,8265 5429,8235 "
       stroke-miterlimit="8"
       id="polygon72"
       style="fill:#000000;stroke:#000000;stroke-width:8px;stroke-miterlimit:8" />
    <!-- Line -->
    <defs
       id="defs77">
      <clipPath
         id="cp6">
        <path
           d="m 2823,33 h 8090 V 13137 H 2823 Z m 7107,7976 h -60 l 23,143 h 14 z"
           id="path74"
           inkscape:connector-curvature="0"
           style="clip-rule:evenodd" />
      </clipPath>
    </defs>
    <polyline
       points=" 9900,7020 9900,8145"
       clip-path="url(#cp6)"
       id="polyline79"
       style="stroke:#000000;stroke-width:8px" />
    <!-- Forward arrow to point 9900,8145 -->
    <polygon
       points="9930,8009 9870,8009 9900,8129 "
       stroke-miterlimit="8"
       id="polygon81"
       style="fill:#000000;stroke:#000000;stroke-width:8px;stroke-miterlimit:8" />
    <!-- Line -->
    <defs
       id="defs86">
      <clipPath
         id="cp7">
        <path
           d="m 2823,33 h 8090 V 13137 H 2823 Z m 7107,9461 h -60 l 23,143 h 14 z"
           id="path83"
           inkscape:connector-curvature="0"
           style="clip-rule:evenodd" />
      </clipPath>
    </defs>
    <polyline
       points=" 9900,8370 9900,9630"
       clip-path="url(#cp7)"
       id="polyline88"
       style="stroke:#000000;stroke-width:8px" />
    <!-- Forward arrow to point 9900,9630 -->
    <polygon
       points="9930,9494 9870,9494 9900,9614 "
       stroke-miterlimit="8"
       id="polygon90"
       style="fill:#000000;stroke:#000000;stroke-width:8px;stroke-miterlimit:8" />
    <!-- Line -->
    <defs
       id="defs95">
      <clipPath
         id="cp8">
        <path
           d="m 2823,33 h 8090 V 13137 H 2823 Z m 6851,8172 v 60 l 143,-23 v -14 z"
           id="path92"
           inkscape:connector-curvature="0"
           style="clip-rule:evenodd" />
      </clipPath>
    </defs>
    <polyline
       points=" 7290,8235 9810,8235"
       clip-path="url(#cp8)"
       id="polyline97"
       style="stroke:#000000;stroke-width:8px" />
    <!-- Forward arrow to point 9810,8235 -->
    <polygon
       points="9674,8205 9674,8265 9794,8235 "
       stroke-miterlimit="8"
       id="polygon99"
       style="fill:#000000;stroke:#000000;stroke-width:8px;stroke-miterlimit:8" />
    <!-- Line -->
    <defs
       id="defs104">
      <clipPath
         id="cp9">
        <path
           d="m 2823,33 h 8090 V 13137 H 2823 Z m 7107,12521 h -60 l 23,143 h 14 z"
           id="path101"
           inkscape:connector-curvature="0"
           style="clip-rule:evenodd" />
      </clipPath>
    </defs>
    <polyline
       points=" 9900,11700 9900,12690"
       clip-path="url(#cp9)"
       id="polyline106"
       style="stroke:#000000;stroke-width:8px" />
    <!-- Forward arrow to point 9900,12690 -->
    <polygon
       points="9930,12554 9870,12554 9900,12674 "
       stroke-miterlimit="8"
       id="polygon108"
       style="fill:#000000;stroke:#000000;stroke-width:8px;stroke-miterlimit:8" />
    <!-- Line -->
    <defs
       id="defs113">
      <clipPath
         id="cp10">
        <path
           d="m 2823,33 h 8090 V 13137 H 2823 Z m 6041,1062 v 60 l 143,-23 v -14 z"
           id="path110"
           inkscape:connector-curvature="0"
           style="clip-rule:evenodd" />
      </clipPath>
    </defs>
    <polyline
       points=" 6975,1125 9000,1125"
       clip-path="url(#cp10)"
       id="polyline115"
       style="stroke:#000000;stroke-width:8px" />
    <!-- Forward arrow to point 9000,1125 -->
    <polygon
       points="8864,1095 8864,1155 8984,1125 "
       stroke-miterlimit="8"
       id="polygon117"
       style="fill:#000000;stroke:#000000;stroke-width:8px;stroke-miterlimit:8" />
    <!-- Text -->
    <g
       aria-label="路由"
       style="font-style:normal;font-weight:bold;font-size:192px;font-family:Helvetica;text-anchor:middle;fill:#000000"
       id="text119">
      <path
         d="m 9818.976,3545.472 c 8.448,-5.184 16.32,-10.752 23.616,-17.472 7.296,6.528 15.168,12.288 24,17.472 z m 5.184,44.736 v -25.536 h 36.096 v 25.536 z m -32.64,-59.712 h -21.12 v -22.464 h 19.2 v -12.288 c 5.184,3.456 12.096,9.6 15.36,13.056 3.84,-4.032 7.68,-8.448 11.328,-13.248 3.456,5.568 7.296,11.328 11.904,16.896 -10.752,9.984 -23.424,18.24 -36.672,24 z m -48.384,-66.432 h 25.536 v 24.384 h -25.344 z m 112.512,10.944 c -3.84,8.064 -8.448,15.552 -14.016,22.656 -5.376,-6.528 -10.176,-13.248 -14.016,-19.776 l 1.536,-2.88 z m 13.632,-20.16 -4.032,0.768 h -26.88 c 1.728,-4.224 3.264,-8.64 4.8,-12.864 l -21.696,-5.376 c -6.336,20.928 -17.856,41.28 -31.872,54.72 v -47.616 h -66.24 v 63.552 h 26.88 v 72.192 l -9.6,1.92 v -60.672 h -18.624 v 64.512 l -8.64,1.536 4.032,21.888 c 21.696,-4.992 50.88,-11.712 77.76,-18.432 l -2.112,-20.16 -22.656,5.184 v -25.536 h 21.12 v -5.568 c 2.88,3.648 5.568,7.872 7.104,10.944 l 4.416,-1.92 v 62.4 h 21.12 v -6.528 h 36.096 v 5.952 h 21.888 v -62.784 l 0.384,0.192 c 3.072,-5.952 9.6,-14.784 14.208,-19.2 -15.36,-4.8 -28.608,-12.48 -39.744,-21.312 11.712,-14.4 20.736,-31.488 26.688,-51.648 z"
         style="font-style:normal;font-variant:normal;font-weight:bold;font-stretch:normal;font-family:'Noto Sans CJK SC';-inkscape-font-specification:'Noto Sans CJK SC Bold'"
         id="path986"
         inkscape:connector-curvature="0" />
      <path
         d="m 10006.944,3583.872 v -32.64 h 42.048 v 32.64 z m -64.32,-32.64 h 40.704 v 32.64 h -40.704 z m 40.704,-54.336 v 32.064 h -40.704 v -32.064 z m 65.664,0 v 32.064 h -42.048 v -32.064 z m -42.048,-23.04 v -36.288 h -23.616 v 36.288 h -63.552 v 142.848 h 22.848 v -10.176 h 106.368 v 9.984 h 24 v -142.656 z"
         style="font-style:normal;font-variant:normal;font-weight:bold;font-stretch:normal;font-family:'Noto Sans CJK SC';-inkscape-font-specification:'Noto Sans CJK SC Bold'"
         id="path988"
         inkscape:connector-curvature="0" />
    </g>
    <!-- Text -->
    <g
       aria-label="路由"
       style="font-style:normal;font-weight:bold;font-size:192px;font-family:Helvetica;text-anchor:middle;fill:#000000"
       id="text121">
      <path
         d="m 3968.976,8225.472 c 8.448,-5.184 16.32,-10.752 23.616,-17.472 7.296,6.528 15.168,12.288 24,17.472 z m 5.184,44.736 v -25.536 h 36.096 v 25.536 z m -32.64,-59.712 h -21.12 v -22.464 h 19.2 v -12.288 c 5.184,3.456 12.096,9.6 15.36,13.056 3.84,-4.032 7.68,-8.448 11.328,-13.248 3.456,5.568 7.296,11.328 11.904,16.896 -10.752,9.984 -23.424,18.24 -36.672,24 z m -48.384,-66.432 h 25.536 v 24.384 h -25.344 z m 112.512,10.944 c -3.84,8.064 -8.448,15.552 -14.016,22.656 -5.376,-6.528 -10.176,-13.248 -14.016,-19.776 l 1.536,-2.88 z m 13.632,-20.16 -4.032,0.768 h -26.88 c 1.728,-4.224 3.264,-8.64 4.8,-12.864 l -21.696,-5.376 c -6.336,20.928 -17.856,41.28 -31.872,54.72 v -47.616 h -66.24 v 63.552 h 26.88 v 72.192 l -9.6,1.92 v -60.672 h -18.624 v 64.512 l -8.64,1.536 4.032,21.888 c 21.696,-4.992 50.88,-11.712 77.76,-18.432 l -2.112,-20.16 -22.656,5.184 v -25.536 h 21.12 v -5.568 c 2.88,3.648 5.568,7.872 7.104,10.944 l 4.416,-1.92 v 62.4 h 21.12 v -6.528 h 36.096 v 5.952 h 21.888 v -62.784 l 0.384,0.192 c 3.072,-5.952 9.6,-14.784 14.208,-19.2 -15.36,-4.8 -28.608,-12.48 -39.744,-21.312 11.712,-14.4 20.736,-31.488 26.688,-51.648 z"
         style="font-style:normal;font-variant:normal;font-weight:bold;font-stretch:normal;font-family:'Noto Sans CJK SC';-inkscape-font-specification:'Noto Sans CJK SC Bold'"
         id="path925"
         inkscape:connector-curvature="0" />
      <path
         d="m 4156.944,8263.872 v -32.64 h 42.048 v 32.64 z m -64.32,-32.64 h 40.704 v 32.64 h -40.704 z m 40.704,-54.336 v 32.064 h -40.704 v -32.064 z m 65.664,0 v 32.064 h -42.048 v -32.064 z m -42.048,-23.04 v -36.288 h -23.616 v 36.288 h -63.552 v 142.848 h 22.848 v -10.176 h 106.368 v 9.984 h 24 v -142.656 z"
         style="font-style:normal;font-variant:normal;font-weight:bold;font-stretch:normal;font-family:'Noto Sans CJK SC';-inkscape-font-specification:'Noto Sans CJK SC Bold'"
         id="path927"
         inkscape:connector-curvature="0" />
    </g>
    <!-- Text -->
    <!-- Text -->
    <!-- Text -->
    <g
       aria-label="本地系统中的进程"
       style="font-style:normal;font-weight:bold;font-size:192px;font-family:Helvetica;text-anchor:middle;fill:#000000"
       id="text127">
      <path
         d="m 3386.7645,6006.7506 v -63.168 h 0.768 c 8.448,23.424 19.776,45.12 33.408,63.168 z m -59.52,0 c 13.824,-18.048 25.536,-39.744 33.984,-63.168 h 1.344 v 63.168 z m 131.904,-63.168 v -23.232 h -72.384 v -37.056 h -24.192 v 37.056 h -72 v 23.232 h 47.04 c -11.904,28.992 -31.488,56.448 -53.76,71.808 5.376,4.224 12.672,12.864 16.704,18.624 7.68,-6.144 14.976,-13.248 21.696,-21.12 v 17.088 h 40.32 v 32.448 h 24.192 v -32.448 h 39.552 v -16.704 c 6.336,7.488 13.056,14.208 20.352,19.776 4.032,-6.336 12.096,-15.36 18.048,-19.968 -22.464,-15.168 -41.856,-41.472 -53.952,-69.504 z"
         style="font-style:normal;font-variant:normal;font-weight:bold;font-stretch:normal;font-family:'Noto Sans CJK SC';-inkscape-font-specification:'Noto Sans CJK SC Bold'"
         id="path937"
         inkscape:connector-curvature="0" />
      <path
         d="m 3521.3565,5948.9586 h 19.392 v -21.696 h -19.392 v -41.664 h -21.312 v 41.664 h -22.464 v 21.696 h 22.464 v 53.952 c -9.6,3.84 -18.048,7.104 -24.96,9.6 l 9.216,23.04 c 17.664,-8.256 39.552,-18.432 59.904,-28.608 l -5.184,-20.16 c -5.76,2.496 -11.712,4.992 -17.664,7.488 z m 65.472,89.472 c -11.712,0 -13.44,-1.728 -13.44,-13.056 v -59.136 l 15.936,-6.912 v 58.56 h 21.312 v -67.776 l 16.512,-7.296 c 0,27.264 -0.192,41.28 -0.576,44.352 -0.768,3.456 -1.92,4.224 -4.224,4.224 -1.728,0 -5.952,0 -9.216,-0.384 2.496,4.8 4.224,13.44 4.8,19.2 6.144,0 14.4,-0.192 19.968,-2.688 5.76,-2.496 9.216,-7.104 9.792,-15.936 0.96,-7.872 1.344,-30.912 1.344,-67.392 l 0.768,-3.84 -15.936,-5.568 -4.032,2.688 -4.032,2.688 -15.168,6.528 v -43.776 h -21.312 v 52.992 l -15.936,6.72 v -41.088 h -21.888 v 50.496 l -18.816,7.872 8.448,20.352 10.368,-4.416 v 49.344 c 0,26.496 7.488,33.6 33.408,33.6 h 40.896 c 22.464,0 29.184,-9.216 32.256,-36.096 -6.336,-1.152 -15.168,-4.8 -19.968,-8.256 -1.728,19.584 -3.648,24 -14.208,24 z"
         style="font-style:normal;font-variant:normal;font-weight:bold;font-stretch:normal;font-family:'Noto Sans CJK SC';-inkscape-font-specification:'Noto Sans CJK SC Bold'"
         id="path939"
         inkscape:connector-curvature="0" />
      <path
         d="m 3709.5165,6003.8706 c -9.216,12.288 -24.576,25.344 -39.168,33.216 5.76,3.456 15.36,10.944 19.968,15.168 13.824,-9.6 30.912,-25.344 42.24,-39.936 z m 101.184,-14.4 c 4.992,6.336 9.024,12.288 11.904,17.088 l 17.856,-10.752 c -7.488,-12.288 -23.04,-30.336 -37.632,-43.584 l -17.28,9.024 c 3.648,3.456 7.296,7.296 10.944,11.328 l -57.792,4.032 c 24.768,-12.48 49.728,-27.84 72.384,-45.696 l -16.512,-14.784 c -8.448,7.296 -17.664,14.208 -27.072,20.736 l -38.4,1.92 c 11.328,-8.064 22.464,-17.088 32.256,-26.688 24.768,-2.496 48.384,-5.952 68.16,-10.752 l -16.128,-18.816 c -32.448,7.68 -85.824,12.672 -132.672,14.4 2.112,5.184 4.992,14.208 5.376,19.968 14.208,-0.384 28.8,-1.152 43.584,-2.112 -9.984,9.216 -19.776,16.512 -24,19.008 -5.568,4.032 -9.984,6.72 -14.592,7.296 2.304,5.568 5.568,15.168 6.528,19.584 4.224,-1.728 10.56,-2.88 40.704,-4.8 -12.672,7.488 -23.04,12.864 -28.8,15.552 -12.096,6.144 -19.392,9.408 -27.072,10.368 2.304,5.568 5.568,16.128 6.528,20.16 6.528,-2.496 14.784,-3.648 58.944,-7.296 v 42.048 c 0,2.304 -0.96,2.88 -4.224,3.072 -3.264,0 -14.976,0 -24.768,-0.384 3.264,5.952 7.104,15.552 8.256,22.272 14.208,0 24.96,-0.192 33.216,-3.648 8.448,-3.648 10.752,-9.408 10.752,-20.544 v -44.736 z m -29.376,25.728 c 14.976,10.944 33.6,26.88 42.048,37.056 l 20.16,-13.44 c -9.408,-10.56 -28.8,-25.536 -43.584,-35.904 z"
         style="font-style:normal;font-variant:normal;font-weight:bold;font-stretch:normal;font-family:'Noto Sans CJK SC';-inkscape-font-specification:'Noto Sans CJK SC Bold'"
         id="path941"
         inkscape:connector-curvature="0" />
      <path
         d="m 4039.7565,5975.0706 c -5.184,-11.904 -17.088,-29.952 -27.456,-43.2 l -17.472,8.64 c 2.88,4.224 5.952,8.832 9.024,13.632 l -38.016,3.072 c 7.104,-8.64 14.976,-19.392 21.888,-28.8 h 49.92 v -20.352 h -52.8 l 12.288,-3.456 c -1.728,-5.76 -5.952,-15.36 -9.6,-22.464 l -21.504,5.376 c 2.688,6.336 5.568,14.592 7.488,20.544 h -42.624 v 20.352 h 30.144 c -7.872,10.368 -17.472,22.464 -20.736,25.92 -4.416,3.648 -9.984,5.376 -14.016,6.336 1.92,4.8 5.568,16.32 6.72,21.888 6.336,-2.88 15.936,-4.224 81.408,-10.944 2.496,4.992 4.8,9.6 6.336,13.632 z m -139.776,7.104 c 11.904,-14.976 23.424,-31.872 32.832,-48.576 l -19.776,-12.48 c -3.264,6.912 -6.912,13.632 -10.752,19.968 l -13.824,1.152 c 10.56,-14.784 20.736,-33.216 27.84,-50.304 l -23.232,-10.752 c -6.528,21.888 -18.816,45.12 -22.848,51.072 -4.224,6.144 -7.296,10.176 -11.52,11.136 2.88,6.528 6.72,18.048 8.064,22.848 2.88,-1.536 7.488,-2.688 22.464,-4.416 -5.952,8.448 -10.752,14.784 -13.44,17.664 -5.952,7.104 -10.176,11.136 -15.168,12.288 2.688,5.76 6.144,16.704 7.296,21.12 5.184,-3.072 13.056,-5.76 58.752,-16.32 -0.576,-4.608 -0.768,-13.632 0,-19.968 z m 26.304,28.224 c -23.808,8.256 -48.384,17.088 -64.512,21.696 l 5.184,22.656 c 18.624,-6.912 42.048,-16.128 63.552,-25.152 z m 22.848,-30.912 c -1.152,32.64 -3.84,52.8 -32.832,65.088 4.992,4.224 11.136,13.056 13.824,18.816 34.944,-15.936 39.936,-43.584 41.472,-83.904 z m 61.632,60.48 c -2.688,0 -3.072,-0.768 -3.072,-6.72 v -53.952 h -22.464 v 54.144 c 0,19.2 4.032,25.728 21.12,25.728 h 13.248 c 14.592,0 19.584,-8.64 21.312,-38.784 -5.568,-1.536 -14.784,-5.184 -19.392,-8.832 -0.384,24.192 -1.152,28.416 -4.224,28.416 z"
         style="font-style:normal;font-variant:normal;font-weight:bold;font-stretch:normal;font-family:'Noto Sans CJK SC';-inkscape-font-specification:'Noto Sans CJK SC Bold'"
         id="path943"
         inkscape:connector-curvature="0" />
      <path
         d="m 4154.3805,5980.0626 v -41.28 h 43.392 v 41.28 z m -67.392,0 v -41.28 h 43.2 v 41.28 z m 67.392,-63.744 v -33.216 h -24.192 v 33.216 h -66.24 v 96.768 h 23.04 v -10.56 h 43.2 v 59.904 h 24.192 v -59.904 h 43.392 v 9.6 h 24 v -95.808 z"
         style="font-style:normal;font-variant:normal;font-weight:bold;font-stretch:normal;font-family:'Noto Sans CJK SC';-inkscape-font-specification:'Noto Sans CJK SC Bold'"
         id="path945"
         inkscape:connector-curvature="0" />
      <path
         d="m 4273.9965,6022.4946 v -37.632 h 30.528 v 37.632 z m 30.528,-57.408 h -30.528 v -31.104 h 30.528 z m 60.864,-52.416 c 2.88,-8.064 5.568,-16.128 7.488,-24.384 l -21.696,-4.992 c -5.568,22.464 -14.784,45.696 -25.92,61.824 v -31.104 h -29.76 c 3.264,-8.256 6.72,-17.856 9.984,-27.456 l -24.96,-3.456 c -0.768,9.024 -3.072,21.312 -5.568,30.912 h -21.696 v 142.656 h 20.736 v -14.016 h 51.264 v -89.664 c 5.184,3.456 11.712,7.872 14.784,10.752 5.952,-8.256 11.904,-18.816 16.896,-30.336 h 41.088 c -2.112,67.776 -4.608,96.576 -10.176,102.72 -2.496,2.496 -4.608,3.264 -8.448,3.264 -4.992,0 -16.32,0 -28.608,-1.152 4.032,6.336 7.104,15.936 7.488,22.272 11.328,0.384 22.848,0.576 30.144,-0.384 7.68,-1.344 13.056,-3.456 18.432,-10.56 7.872,-10.176 9.984,-40.704 12.48,-126.528 0.192,-2.688 0.192,-10.368 0.192,-10.368 z m 22.272,87.552 c -5.952,-11.136 -18.624,-29.376 -28.224,-42.624 l -17.856,10.176 c 9.408,14.016 21.312,32.832 26.688,44.352 z"
         style="font-style:normal;font-variant:normal;font-weight:bold;font-stretch:normal;font-family:'Noto Sans CJK SC';-inkscape-font-specification:'Noto Sans CJK SC Bold'"
         id="path947"
         inkscape:connector-curvature="0" />
      <path
         d="m 4542.7965,5938.0146 h 21.696 v 26.496 h -22.08 c 0.192,-4.992 0.384,-9.408 0.384,-14.016 z m 21.696,48.384 v 43.2 h 22.848 v -43.2 h 25.728 v -21.888 h -25.728 v -26.496 h 21.888 v -22.08 h -21.888 v -27.456 h -22.848 v 27.456 h -21.696 v -27.84 h -22.656 v 27.84 h -24 v 22.08 h 24 v 12.096 c 0,4.8 0,9.408 -0.384,14.4 h -25.344 v 21.888 h 21.696 c -3.264,11.136 -8.832,21.504 -19.008,29.952 4.8,3.072 13.824,11.52 16.896,16.128 14.4,-11.712 21.696,-28.8 25.344,-46.08 z m -75.072,-68.928 c -6.336,-8.64 -20.16,-21.696 -30.528,-30.72 l -16.128,12.672 c 10.176,9.6 23.424,23.616 29.184,32.448 z m -5.376,34.944 h -44.736 v 21.312 h 22.272 v 46.656 c -8.256,3.648 -17.28,10.752 -26.112,20.16 l 15.36,21.696 c 6.912,-11.52 15.36,-24 21.12,-24 4.224,0 10.752,5.952 19.584,10.56 14.016,7.872 30.144,9.984 54.528,9.984 19.584,0 51.072,-1.152 64.896,-1.92 0.192,-6.528 4.032,-17.664 6.336,-23.808 -19.2,2.88 -50.112,4.416 -70.464,4.416 -21.312,0 -38.976,-1.152 -52.032,-8.448 -4.224,-2.304 -7.68,-4.608 -10.752,-6.528 z"
         style="font-style:normal;font-variant:normal;font-weight:bold;font-stretch:normal;font-family:'Noto Sans CJK SC';-inkscape-font-specification:'Noto Sans CJK SC Bold'"
         id="path949"
         inkscape:connector-curvature="0" />
      <path
         d="m 4775.5005,5930.7186 h -48 v -23.04 h 48 z m 22.272,-42.24 h -91.584 v 61.44 h 91.584 z m -95.424,103.872 c -3.456,-4.8 -18.432,-24 -24.384,-30.528 v -3.264 h 19.968 v -21.312 h -19.968 v -28.416 c 7.104,-1.92 14.016,-4.032 19.968,-6.528 l -13.248,-18.624 c -13.632,6.528 -33.984,12.288 -52.416,15.552 2.496,4.992 5.376,12.672 6.336,17.664 5.952,-0.96 11.904,-1.92 18.24,-3.072 v 23.424 h -24.384 v 21.312 h 20.736 c -6.144,18.432 -15.936,38.976 -25.728,51.456 3.456,5.952 8.64,15.936 10.944,22.656 6.72,-9.216 12.864,-22.464 18.432,-36.48 v 66.432 h 21.12 v -73.92 c 4.416,8.256 8.64,16.896 11.136,22.656 z m 62.784,44.352 v -17.472 h 33.792 v -20.16 h -33.792 v -17.088 h 38.592 v -20.352 h -99.456 v 20.352 h 38.016 v 17.088 h -33.408 v 20.16 h 33.408 v 17.472 h -45.504 v 20.736 h 110.976 v -20.736 z"
         style="font-style:normal;font-variant:normal;font-weight:bold;font-stretch:normal;font-family:'Noto Sans CJK SC';-inkscape-font-specification:'Noto Sans CJK SC Bold'"
         id="path951"
         inkscape:connector-curvature="0" />
    </g>
    <!-- Text -->
    <g
       aria-label="传出包"
       style="font-style:normal;font-weight:bold;font-size:192px;font-family:Helvetica;text-anchor:middle;fill:#000000"
       id="text129">
      <path
         d="m 9661.8195,12860.381 c -9.6,27.456 -26.304,54.528 -43.584,71.808 3.84,5.568 10.176,18.048 12.288,23.808 4.032,-4.416 8.064,-9.216 12.096,-14.208 v 96.96 h 22.08 v -130.944 c 7.296,-13.248 13.632,-27.072 18.816,-40.512 z m 138.24,76.416 v -21.12 h -69.312 l 3.84,-14.976 h 55.488 v -20.736 h -50.304 l 3.84,-15.36 -22.656,-2.88 c -1.344,5.952 -2.688,11.904 -4.224,18.24 h -33.792 v 20.736 h 28.8 c -1.344,4.992 -2.688,9.984 -4.032,14.976 h -35.712 v 21.12 h 29.568 c -4.032,14.016 -8.256,26.88 -11.712,37.44 h 64.512 c -6.336,6.912 -13.44,14.208 -20.544,21.504 -5.376,-3.456 -10.752,-6.72 -16.128,-9.6 l -15.936,13.824 c 19.008,11.328 41.856,28.416 52.8,39.552 l 16.128,-17.28 c -4.608,-4.224 -11.136,-9.408 -18.624,-14.592 14.976,-15.36 30.528,-31.872 42.624,-45.504 l -15.936,-10.368 -3.456,1.152 h -54.912 c 1.536,-5.184 3.072,-10.56 4.608,-16.128 z"
         style="font-style:normal;font-variant:normal;font-weight:bold;font-stretch:normal;font-family:'Noto Sans CJK SC';-inkscape-font-specification:'Noto Sans CJK SC Bold'"
         id="path918"
         inkscape:connector-curvature="0" />
      <path
         d="m 9955.9635,12955.421 v 50.304 h -40.512 v -60.288 h 58.368 v -69.696 h -25.344 v 47.616 h -33.024 v -63.744 h -25.344 v 63.744 h -31.68 v -47.616 h -24.192 v 69.696 h 55.872 v 60.288 h -40.32 v -50.112 h -25.728 v 72.768 h 131.904 v 10.368 h 25.728 v -83.328 z"
         style="font-style:normal;font-variant:normal;font-weight:bold;font-stretch:normal;font-family:'Noto Sans CJK SC';-inkscape-font-specification:'Noto Sans CJK SC Bold'"
         id="path920"
         inkscape:connector-curvature="0" />
      <path
         d="m 10094.971,12940.061 v 21.12 h -36.48 v -21.12 z m -13.44,73.728 c -19.968,0 -23.04,-1.728 -23.04,-12.864 v -19.392 h 58.752 v -61.44 h -73.344 c 3.648,-4.416 7.296,-9.024 10.944,-14.016 h 91.392 c -1.344,43.584 -2.88,59.904 -5.952,63.936 -1.536,2.112 -3.264,2.88 -5.952,2.688 -3.264,0.192 -9.024,0 -15.552,-0.576 3.456,5.76 5.76,15.168 5.952,21.696 8.832,0.384 16.896,0.192 22.08,-0.768 5.76,-0.96 10.176,-2.88 14.016,-8.64 5.376,-7.488 7.104,-29.952 8.832,-90.24 0.192,-2.88 0.384,-9.6 0.384,-9.6 h -101.376 c 3.648,-6.336 6.912,-12.48 9.792,-19.008 l -23.616,-7.104 c -10.368,25.536 -29.568,49.92 -50.112,64.896 5.184,4.032 14.592,12.672 18.624,17.28 4.032,-3.456 8.256,-7.488 12.48,-11.52 v 72.192 c 0,26.88 10.368,33.792 45.696,33.792 h 62.592 c 29.568,0 37.248,-7.872 41.088,-34.944 -6.336,-0.96 -16.32,-4.416 -21.888,-7.872 -2.112,18.24 -4.992,21.504 -20.736,21.504 z"
         style="font-style:normal;font-variant:normal;font-weight:bold;font-stretch:normal;font-family:'Noto Sans CJK SC';-inkscape-font-specification:'Noto Sans CJK SC Bold'"
         id="path922"
         inkscape:connector-curvature="0" />
    </g>
    <!-- Text -->
    <g
       aria-label="传入包"
       style="font-style:normal;font-weight:bold;font-size:192px;font-family:Helvetica;text-anchor:middle;fill:#000000"
       id="text131">
      <path
         d="m 7003.464,738.144 c -9.6,27.456 -26.304,54.528 -43.584,71.808 3.84,5.568 10.176,18.048 12.288,23.808 4.032,-4.416 8.064,-9.216 12.096,-14.208 v 96.96 h 22.08 V 785.568 c 7.296,-13.248 13.632,-27.072 18.816,-40.512 z m 138.24,76.416 v -21.12 h -69.312 l 3.84,-14.976 h 55.488 v -20.736 h -50.304 l 3.84,-15.36 -22.656,-2.88 c -1.344,5.952 -2.688,11.904 -4.224,18.24 h -33.792 v 20.736 h 28.8 c -1.344,4.992 -2.688,9.984 -4.032,14.976 h -35.712 v 21.12 h 29.568 c -4.032,14.016 -8.256,26.88 -11.712,37.44 h 64.512 c -6.336,6.912 -13.44,14.208 -20.544,21.504 -5.376,-3.456 -10.752,-6.72 -16.128,-9.6 l -15.936,13.824 c 19.008,11.328 41.856,28.416 52.8,39.552 L 7112.328,900 c -4.608,-4.224 -11.136,-9.408 -18.624,-14.592 14.976,-15.36 30.528,-31.872 42.624,-45.504 l -15.936,-10.368 -3.456,1.152 h -54.912 c 1.536,-5.184 3.072,-10.56 4.608,-16.128 z"
         style="font-style:normal;font-variant:normal;font-weight:bold;font-stretch:normal;font-family:'Noto Sans CJK SC';-inkscape-font-specification:'Noto Sans CJK SC Bold'"
         id="path930"
         inkscape:connector-curvature="0" />
      <path
         d="m 7201.416,758.304 c 11.904,8.064 21.696,18.048 29.76,29.376 -11.136,51.072 -34.752,88.128 -75.648,108.288 6.144,4.416 16.704,13.824 20.928,18.624 34.56,-20.352 58.368,-52.8 73.344,-96.768 19.584,35.904 36.096,75.264 75.456,97.344 1.152,-7.104 7.296,-19.968 10.944,-26.304 -61.632,-38.976 -59.712,-105.6 -120.768,-150.336 z"
         style="font-style:normal;font-variant:normal;font-weight:bold;font-stretch:normal;font-family:'Noto Sans CJK SC';-inkscape-font-specification:'Noto Sans CJK SC Bold'"
         id="path932"
         inkscape:connector-curvature="0" />
      <path
         d="m 7436.616,817.824 v 21.12 h -36.48 v -21.12 z m -13.44,73.728 c -19.968,0 -23.04,-1.728 -23.04,-12.864 v -19.392 h 58.752 v -61.44 h -73.344 c 3.648,-4.416 7.296,-9.024 10.944,-14.016 h 91.392 c -1.344,43.584 -2.88,59.904 -5.952,63.936 -1.536,2.112 -3.264,2.88 -5.952,2.688 -3.264,0.192 -9.024,0 -15.552,-0.576 3.456,5.76 5.76,15.168 5.952,21.696 8.832,0.384 16.896,0.192 22.08,-0.768 5.76,-0.96 10.176,-2.88 14.016,-8.64 5.376,-7.488 7.104,-29.952 8.832,-90.24 0.192,-2.88 0.384,-9.6 0.384,-9.6 h -101.376 c 3.648,-6.336 6.912,-12.48 9.792,-19.008 l -23.616,-7.104 c -10.368,25.536 -29.568,49.92 -50.112,64.896 5.184,4.032 14.592,12.672 18.624,17.28 4.032,-3.456 8.256,-7.488 12.48,-11.52 v 72.192 c 0,26.88 10.368,33.792 45.696,33.792 h 62.592 c 29.568,0 37.248,-7.872 41.088,-34.944 -6.336,-0.96 -16.32,-4.416 -21.888,-7.872 -2.112,18.24 -4.992,21.504 -20.736,21.504 z"
         style="font-style:normal;font-variant:normal;font-weight:bold;font-stretch:normal;font-family:'Noto Sans CJK SC';-inkscape-font-specification:'Noto Sans CJK SC Bold'"
         id="path934"
         inkscape:connector-curvature="0" />
    </g>
    <!-- Text -->
    <g
       aria-label="filter"
       style="font-style:normal;font-weight:bold;font-size:192px;font-family:Helvetica;text-anchor:middle;fill:#000000"
       id="text133"
       transform="translate(-27.762675,-55.525413)">
      <path
         d="m 6225.5625,9726.8438 v 0 83.1562 0 h -13.4063 -13.5 v 0 -83.1562 0 H 6183.75 V 9708 h 14.9062 v 0 -8.5312 q 0,-14.7188 7.7813,-21.9375 7.875,-7.2188 23.8125,-7.2188 7.125,-0.094 12.6562,0.6563 v 21.4687 h -8.5312 q -5.3438,0 -7.125,2.1563 -1.6875,2.1562 -1.6875,8.8125 v 4.5937 0 h 17.3437 v 18.8438 z"
         style="font-style:normal;font-weight:bold;font-size:192px;font-family:Helvetica;text-anchor:middle;fill:#000000"
         id="path1051"
         inkscape:connector-curvature="0" />
      <path
         d="m 6259.5,9810 v -102 0 h 13.4062 13.5 v 0 102 0 H 6273 Z m -0.2813,-138.8437 h 27.375 v 24.9375 h -27.375 z"
         style="font-style:normal;font-weight:bold;font-size:192px;font-family:Helvetica;text-anchor:middle;fill:#000000"
         id="path1053"
         inkscape:connector-curvature="0" />
      <path
         d="m 6312.4687,9810 v -137.8125 0 h 13.4063 13.5 v 0 137.8125 0 h -13.4063 z"
         style="font-style:normal;font-weight:bold;font-size:192px;font-family:Helvetica;text-anchor:middle;fill:#000000"
         id="path1055"
         inkscape:connector-curvature="0" />
      <path
         d="m 6411.8437,9810.5625 q -6.75,0.5625 -16.5937,0.5625 -14.25,0 -20.5313,-5.0625 -6.1875,-5.1562 -6.1875,-16.7812 v -62.4375 0 H 6354.375 V 9708 h 14.1562 v 0 -27.4687 h 26.9063 V 9708 v 0 h 16.4062 v 18.8438 h -16.4062 v 0 57.9375 q 0,3.5625 2.0625,4.6875 2.1562,1.125 8.8125,1.125 h 5.5312 z"
         style="font-style:normal;font-weight:bold;font-size:192px;font-family:Helvetica;text-anchor:middle;fill:#000000"
         id="path1057"
         inkscape:connector-curvature="0" />
      <path
         d="m 6469.5,9812.625 q -23.25,0 -35.9063,-14.3437 -12.5625,-14.3438 -12.5625,-40.875 0,-24.4688 12.8438,-38.25 12.8437,-13.875 35.625,-13.875 23.3437,0 35.9062,14.1562 12.6563,14.0625 12.6563,40.125 0.1875,3 -0.4688,6.0938 v 0 h -69.4687 v 0 q 0.9375,12.0937 5.3437,18.0937 5.625,7.5 18.75,7.5 6.0938,0 11.25,-3.4687 5.25,-3.4688 6.2813,-8.3438 v 0 h 27.375 v 0 q -3.4688,15.5625 -16.125,24.375 -12.5625,8.8125 -31.5,8.8125 z m 20.5312,-64.125 v 0 q -0.9375,-9.1875 -4.875,-14.3437 -5.1562,-6.8438 -16.0312,-6.8438 -10.4063,0 -15.8438,7.9688 -3.375,5.0625 -4.875,13.2187 v 0 z"
         style="font-style:normal;font-weight:bold;font-size:192px;font-family:Helvetica;text-anchor:middle;fill:#000000"
         id="path1059"
         inkscape:connector-curvature="0" />
      <path
         d="m 6535.7812,9810 v -102 0 h 12.75 12.8438 v 0 18.2813 0 0 q 1.4062,-3 3.1875,-5.8125 9.4687,-15.1875 24.4687,-15.1875 l 6.0938,0.094 v 27.4688 q -3.5625,-0.375 -8.0625,-0.375 -12.2813,0 -18.375,6.0937 -6,6.0938 -6,18.4688 v 0 52.9687 0 h -13.4063 -13.5 z"
         style="font-style:normal;font-weight:bold;font-size:192px;font-family:Helvetica;text-anchor:middle;fill:#000000"
         id="path1061"
         inkscape:connector-curvature="0" />
    </g>
    <!-- Line -->
    <rect
       x="9045"
       y="9630"
       width="1800"
       height="2025"
       id="rect135"
       style="stroke:#000000;stroke-width:8px" />
    <!-- Line -->
    <rect
       x="9270"
       y="10350"
       width="1350"
       height="405"
       id="rect137"
       style="stroke:#000000;stroke-width:8px" />
    <!-- Line -->
    <rect
       x="9270"
       y="10980"
       width="1350"
       height="405"
       id="rect139"
       style="stroke:#000000;stroke-width:8px" />
    <!-- Line -->
    <rect
       x="9000"
       y="45"
       width="1800"
       height="2025"
       id="rect141"
       style="stroke:#000000;stroke-width:8px" />
    <!-- Line -->
    <rect
       x="9225"
       y="765"
       width="1350"
       height="405"
       id="rect143"
       style="stroke:#000000;stroke-width:8px" />
    <!-- Line -->
    <rect
       x="9225"
       y="1395"
       width="1350"
       height="405"
       id="rect145"
       style="stroke:#000000;stroke-width:8px" />
    <!-- Line -->
    <rect
       x="9000"
       y="4995"
       width="1800"
       height="2025"
       id="rect147"
       style="stroke:#000000;stroke-width:8px" />
    <!-- Line -->
    <rect
       x="9225"
       y="5715"
       width="1350"
       height="405"
       id="rect149"
       style="stroke:#000000;stroke-width:8px" />
    <!-- Line -->
    <rect
       x="9225"
       y="6345"
       width="1350"
       height="405"
       id="rect151"
       style="stroke:#000000;stroke-width:8px" />
    <!-- Line -->
    <rect
       x="5445"
       y="2475"
       width="1800"
       height="2025"
       id="rect153"
       style="stroke:#000000;stroke-width:8px" />
    <!-- Line -->
    <rect
       x="5670"
       y="3195"
       width="1350"
       height="405"
       id="rect155"
       style="stroke:#000000;stroke-width:8px" />
    <!-- Line -->
    <rect
       x="5670"
       y="3825"
       width="1350"
       height="405"
       id="rect157"
       style="stroke:#000000;stroke-width:8px" />
    <!-- Line -->
    <rect
       x="5670"
       y="8235"
       width="1350"
       height="405"
       id="rect159"
       style="stroke:#000000;stroke-width:8px" />
    <!-- Line -->
    <rect
       x="5445"
       y="7515"
       width="1800"
       height="2790"
       id="rect161"
       style="stroke:#000000;stroke-width:8px" />
    <!-- Line -->
    <rect
       x="5670"
       y="8865"
       width="1350"
       height="405"
       id="rect163"
       style="stroke:#000000;stroke-width:8px" />
    <!-- Line -->
    <rect
       x="5670"
       y="9495"
       width="1350"
       height="405"
       id="rect165"
       style="stroke:#000000;stroke-width:8px" />
    <!-- Text -->
    <!-- Text -->
    <!-- Text -->
    <g
       aria-label="POSTROUTING"
       style="font-style:normal;font-weight:bold;font-size:168px;font-family:Helvetica;text-anchor:middle;fill:#000000"
       id="text171">
      <path
         d="m 9341.5781,10035 v -120.5859 0 h 12.5508 v 0 h 37.8984 q 20.5899,0 31.336,9.6797 10.7461,9.5976 10.7461,28.0546 0,19.5235 -10.7461,29.6954 -10.7461,10.0898 -31.336,10.0898 -14.6015,-0.082 -25.2656,0.1641 v 0 42.9023 0 h -12.5508 z m 25.1836,-63.8203 v 0 h 21 q 10.5821,0 15.8321,-4.6758 5.332,-4.6758 5.332,-14.1094 0,-8.6132 -5.332,-12.8789 -5.25,-4.3476 -15.8321,-4.3476 h -21 v 0 z"
         style="font-style:normal;font-weight:bold;font-size:168px;font-family:Helvetica;text-anchor:middle;fill:#000000"
         id="path1019"
         inkscape:connector-curvature="0" />
      <path
         d="m 9506.2969,10038.281 q -26.5781,0 -42.2461,-16.98 -15.668,-16.981 -15.668,-45.9377 0,-29.5313 15.668,-46.8399 15.668,-17.3906 42.2461,-17.3906 26.7422,0 42.3281,17.3906 15.668,17.3086 15.668,46.8399 0,28.9567 -15.668,45.9377 -15.5859,16.98 -42.3281,16.98 z m 0,-21.41 q 15.4219,0 24.1172,-10.992 8.6953,-11.0743 8.6953,-30.6798 0,-20.0156 -8.6953,-31.3359 -8.6953,-11.3203 -24.1172,-11.3203 -15.3399,0 -24.0352,11.3203 -8.6953,11.3203 -8.6953,31.3359 0,19.6055 8.6133,30.6798 8.6953,10.992 24.1172,10.992 z"
         style="font-style:normal;font-weight:bold;font-size:168px;font-family:Helvetica;text-anchor:middle;fill:#000000"
         id="path1021"
         inkscape:connector-curvature="0" />
      <path
         d="m 9649.7695,9950.5898 v 0 q -0.6562,-8.6132 -7.5468,-13.6171 -6.8907,-5.086 -17.9649,-5.086 -9.5976,0 -15.0117,4.2656 -5.4141,4.1836 -5.4141,11.7305 0,5.4141 5.6602,8.3672 5.5781,2.9531 23.707,6.9727 26.3321,5.9062 35.1914,13.6171 8.8594,7.629 8.8594,24.5272 0,16.981 -13.3711,26.988 -13.3711,9.926 -36.1758,9.926 -22.8867,0 -35.7656,-10.582 -12.8789,-10.582 -13.7812,-30.1052 v 0 h 24.2812 v 0 q 0.4102,9.5972 6.9727,14.7652 6.5625,5.168 18.2929,5.168 12.0586,0 18.7852,-3.855 6.8086,-3.938 6.8086,-10.828 0,-6.8088 -4.8399,-10.0081 -4.7578,-3.1992 -20.3437,-6.6445 -28.711,-6.3984 -38.3906,-13.8633 -9.5977,-7.3828 -9.5977,-23.0508 0,-17.5546 12.7148,-27.8085 12.7149,-10.336 34.3711,-10.336 20.2618,0 32.9766,10.6641 12.7148,10.664 14.1094,28.7929 v 0 z"
         style="font-style:normal;font-weight:bold;font-size:168px;font-family:Helvetica;text-anchor:middle;fill:#000000"
         id="path1023"
         inkscape:connector-curvature="0" />
      <path
         d="m 9722.6133,10035 v -99.1758 0 h -36.4219 v 0 -10.664 -10.7461 0 h 98.0274 v 0 10.664 10.7461 0 h -36.4219 v 0 99.1758 0 h -12.5508 z"
         style="font-style:normal;font-weight:bold;font-size:168px;font-family:Helvetica;text-anchor:middle;fill:#000000"
         id="path1025"
         inkscape:connector-curvature="0" />
      <path
         d="m 9799.3125,10035 v -120.5859 0 h 12.5508 v 0 h 48.2344 q 17.2265,0 27.7265,9.2695 10.5821,9.1875 10.5821,24.2812 0,17.3907 -11.7305,25.4297 -3.1172,2.1328 -7.0547,3.6094 v 0 q 2.2148,0.9024 4.0195,1.9688 10.336,6.1523 10.7461,20.6718 l 0.5742,19.7695 q 0.1641,5.906 1.2305,8.367 1.0664,2.461 4.1016,3.938 v 3.199 h -27.8086 q -0.9844,-1.887 -1.7227,-8.039 -0.7383,-6.234 -0.8203,-13.371 l -0.1641,-11.156 q -0.164,-8.1215 -4.8398,-11.5668 -4.5937,-3.4454 -15.3398,-3.4454 h -25.1016 v 0 47.6602 0 h -12.5508 z m 25.1836,-67.9219 v 0 h 29.2031 q 9.7617,0 14.6016,-3.9375 4.9219,-4.0195 4.9219,-12.0586 0,-7.957 -4.6758,-11.8945 -4.5938,-4.0195 -13.8633,-4.0195 h -30.1875 v 0 z"
         style="font-style:normal;font-weight:bold;font-size:168px;font-family:Helvetica;text-anchor:middle;fill:#000000"
         id="path1027"
         inkscape:connector-curvature="0" />
      <path
         d="m 9973.2188,10038.281 q -26.5782,0 -42.2461,-16.98 -15.668,-16.981 -15.668,-45.9377 0,-29.5313 15.668,-46.8399 15.6679,-17.3906 42.2461,-17.3906 26.7421,0 42.3282,17.3906 15.668,17.3086 15.668,46.8399 0,28.9567 -15.668,45.9377 -15.5861,16.98 -42.3282,16.98 z m 0,-21.41 q 15.4218,0 24.1171,-10.992 8.6951,-11.0743 8.6951,-30.6798 0,-20.0156 -8.6951,-31.3359 -8.6953,-11.3203 -24.1171,-11.3203 -15.3399,0 -24.0352,11.3203 -8.6953,11.3203 -8.6953,31.3359 0,19.6055 8.6133,30.6798 8.6953,10.992 24.1172,10.992 z"
         style="font-style:normal;font-weight:bold;font-size:168px;font-family:Helvetica;text-anchor:middle;fill:#000000"
         id="path1029"
         inkscape:connector-curvature="0" />
      <path
         d="m 10147.945,9989.5547 q 0.08,25.8403 -11.402,37.3243 -11.402,11.402 -37.242,11.402 -24.774,0 -36.75,-11.894 -11.895,-11.977 -11.977,-36.8323 v -75.1406 0 h 12.551 12.633 v 0 75.9609 q 0,12.961 5.824,19.441 5.906,6.481 17.719,6.481 12.633,0 18.047,-5.906 5.414,-5.989 5.414,-20.016 v -75.9609 0 h 12.551 12.632 v 0 z"
         style="font-style:normal;font-weight:bold;font-size:168px;font-family:Helvetica;text-anchor:middle;fill:#000000"
         id="path1031"
         inkscape:connector-curvature="0" />
      <path
         d="m 10198.723,10035 v -99.1758 0 h -36.422 v 0 -10.664 -10.7461 0 h 98.027 v 0 10.664 10.7461 0 h -36.422 v 0 99.1758 0 h -12.551 z"
         style="font-style:normal;font-weight:bold;font-size:168px;font-family:Helvetica;text-anchor:middle;fill:#000000"
         id="path1033"
         inkscape:connector-curvature="0" />
      <path
         d="m 10273.371,10035 v -120.5859 0 h 12.551 12.633 v 0 120.5859 0 h -12.551 z"
         style="font-style:normal;font-weight:bold;font-size:168px;font-family:Helvetica;text-anchor:middle;fill:#000000"
         id="path1035"
         inkscape:connector-curvature="0" />
      <path
         d="m 10344.328,10035 v 0 h -11.73 -11.813 v 0 -120.5859 0 h 13.207 13.207 v 0 l 48.399,84.5742 v 0 0 -84.5742 0 h 11.73 11.813 v 0 V 10035 h -12.551 -12.551 l -49.711,-86.8711 v 0 0 z"
         style="font-style:normal;font-weight:bold;font-size:168px;font-family:Helvetica;text-anchor:middle;fill:#000000"
         id="path1037"
         inkscape:connector-curvature="0" />
      <path
         d="m 10495.266,10038.281 q -26.332,0 -41.836,-16.98 -15.422,-16.981 -15.422,-45.9377 0,-29.5313 16.078,-46.8399 16.078,-17.3906 43.477,-17.3906 21.984,0 36.175,10.9922 14.274,10.9922 16.653,29.6953 v 0 h -25.266 v 0 q -0.984,-7.875 -8.859,-13.7812 -7.875,-5.9883 -17.391,-5.9883 -16.406,0 -25.676,11.4023 -9.269,11.3203 -9.269,31.5 0,20.5078 8.859,31.2539 8.941,10.664 26.086,10.664 h -0.08 q 14.602,0 22.805,-11.156 4.511,-6.3166 6.644,-14.8478 v -0.2461 0 h -28.383 v -20.7539 h 50.532 v 65.0508 h -16.817 l -2.461,-15.586 v 0 l -1.476,1.969 q -12.715,16.98 -34.453,16.98 z"
         style="font-style:normal;font-weight:bold;font-size:168px;font-family:Helvetica;text-anchor:middle;fill:#000000"
         id="path1039"
         inkscape:connector-curvature="0" />
    </g>
    <!-- Text -->
    <g
       aria-label="PREROUTING"
       style="font-style:normal;font-weight:bold;font-size:168px;font-family:Helvetica;text-anchor:middle;fill:#000000"
       id="text173">
      <path
         d="m 9352.5234,450 v -120.58594 0 h 12.5508 v 0 h 37.8985 q 20.5898,0 31.3359,9.67969 10.7461,9.59766 10.7461,28.05469 0,19.52343 -10.7461,29.69531 -10.7461,10.08984 -31.3359,10.08984 -14.6016,-0.082 -25.2657,0.16407 v 0 V 450 v 0 h -12.5507 z m 25.1836,-63.82031 v 0 h 21 q 10.5821,0 15.8321,-4.67578 5.332,-4.67579 5.332,-14.10938 0,-8.61328 -5.332,-12.87891 -5.25,-4.34765 -15.8321,-4.34765 h -21 v 0 z"
         style="font-style:normal;font-weight:bold;font-size:168px;font-family:Helvetica;text-anchor:middle;fill:#000000"
         id="path965"
         inkscape:connector-curvature="0" />
      <path
         d="m 9464.7422,450 v -120.58594 0 h 12.5508 v 0 h 48.2343 q 17.2266,0 27.7266,9.26953 10.582,9.1875 10.582,24.28125 0,17.39063 -11.7304,25.42969 -3.1172,2.13281 -7.0547,3.60938 v 0 q 2.2148,0.90234 4.0195,1.96875 10.336,6.15234 10.7461,20.67187 l 0.5742,19.76953 q 0.1641,5.90625 1.2305,8.36719 1.0664,2.46094 4.1016,3.9375 v 3.19922 h -27.8086 q -0.9844,-1.88672 -1.7227,-8.03906 -0.7383,-6.23438 -0.8203,-13.3711 l -0.1641,-11.15625 q -0.164,-8.12109 -4.8398,-11.5664 -4.5938,-3.44532 -15.3399,-3.44532 h -25.1015 v 0 V 450 v 0 h -12.5508 z m 25.1836,-67.92188 v 0 h 29.2031 q 9.7617,0 14.6016,-3.9375 4.9218,-4.01953 4.9218,-12.05859 0,-7.95703 -4.6757,-11.89453 -4.5938,-4.01953 -13.8633,-4.01953 h -30.1875 v 0 z"
         style="font-style:normal;font-weight:bold;font-size:168px;font-family:Helvetica;text-anchor:middle;fill:#000000"
         id="path967"
         inkscape:connector-curvature="0" />
      <path
         d="m 9586.1484,450 v 0 -120.58594 0 h 88.7579 v 0 10.66406 10.7461 0 h -63.5743 v 0 25.59375 0 h 58.9805 v 10.33594 10.41796 0 h -58.9805 v 0 31.41797 0 h 66.3633 v 0 10.66407 V 450 v 0 z"
         style="font-style:normal;font-weight:bold;font-size:168px;font-family:Helvetica;text-anchor:middle;fill:#000000"
         id="path969"
         inkscape:connector-curvature="0" />
      <path
         d="m 9698.3672,450 v -120.58594 0 h 12.5508 v 0 h 48.2343 q 17.2266,0 27.7266,9.26953 10.582,9.1875 10.582,24.28125 0,17.39063 -11.7304,25.42969 -3.1172,2.13281 -7.0547,3.60938 v 0 q 2.2148,0.90234 4.0195,1.96875 10.336,6.15234 10.7461,20.67187 l 0.5742,19.76953 q 0.1641,5.90625 1.2305,8.36719 1.0664,2.46094 4.1016,3.9375 v 3.19922 h -27.8086 q -0.9844,-1.88672 -1.7227,-8.03906 -0.7383,-6.23438 -0.8203,-13.3711 l -0.1641,-11.15625 q -0.164,-8.12109 -4.8398,-11.5664 -4.5938,-3.44532 -15.3399,-3.44532 h -25.1015 v 0 V 450 450 H 9711 Z m 25.1836,-67.92188 v 0 h 29.2031 q 9.7617,0 14.6016,-3.9375 4.9218,-4.01953 4.9218,-12.05859 0,-7.95703 -4.6757,-11.89453 -4.5938,-4.01953 -13.8633,-4.01953 h -30.1875 v 0 z"
         style="font-style:normal;font-weight:bold;font-size:168px;font-family:Helvetica;text-anchor:middle;fill:#000000"
         id="path971"
         inkscape:connector-curvature="0" />
      <path
         d="m 9872.2734,453.28125 q -26.5781,0 -42.2461,-16.98047 -15.6679,-16.98047 -15.6679,-45.9375 0,-29.53125 15.6679,-46.83984 15.668,-17.39063 42.2461,-17.39063 26.7422,0 42.3282,17.39063 15.6679,17.30859 15.6679,46.83984 0,28.95703 -15.6679,45.9375 -15.586,16.98047 -42.3282,16.98047 z m 0,-21.41016 q 15.4219,0 24.1172,-10.99218 8.6953,-11.07422 8.6953,-30.67969 0,-20.01563 -8.6953,-31.33594 -8.6953,-11.32031 -24.1172,-11.32031 -15.3398,0 -24.0351,11.32031 -8.6953,11.32031 -8.6953,31.33594 0,19.60547 8.6133,30.67969 8.6953,10.99218 24.1171,10.99218 z"
         style="font-style:normal;font-weight:bold;font-size:168px;font-family:Helvetica;text-anchor:middle;fill:#000000"
         id="path973"
         inkscape:connector-curvature="0" />
      <path
         d="m 10047,404.55469 q 0.08,25.83984 -11.402,37.32422 -11.403,11.40234 -37.2425,11.40234 -24.7735,0 -36.75,-11.89453 -11.8946,-11.97656 -11.9766,-36.83203 v -75.14063 0 h 12.5508 12.6328 v 0 75.96094 q 0,12.96094 5.8242,19.44141 5.9063,6.48046 17.7188,6.48046 12.6325,0 18.0465,-5.90625 5.414,-5.98828 5.414,-20.01562 v -75.96094 0 h 12.551 12.633 v 0 z"
         style="font-style:normal;font-weight:bold;font-size:168px;font-family:Helvetica;text-anchor:middle;fill:#000000"
         id="path975"
         inkscape:connector-curvature="0" />
      <path
         d="m 10097.777,450 v -99.17578 0 h -36.422 v 0 -10.66406 -10.7461 0 h 98.028 v 0 10.66406 10.7461 0 h -36.422 v 0 V 450 v 0 h -12.551 z"
         style="font-style:normal;font-weight:bold;font-size:168px;font-family:Helvetica;text-anchor:middle;fill:#000000"
         id="path977"
         inkscape:connector-curvature="0" />
      <path
         d="m 10172.426,450 v -120.58594 0 h 12.551 12.632 v 0 V 450 v 0 h -12.55 z"
         style="font-style:normal;font-weight:bold;font-size:168px;font-family:Helvetica;text-anchor:middle;fill:#000000"
         id="path979"
         inkscape:connector-curvature="0" />
      <path
         d="m 10243.383,450 v 0 h -11.731 -11.812 v 0 -120.58594 0 h 13.207 13.207 v 0 l 48.398,84.57422 v 0 0 -84.57422 0 h 11.731 11.812 v 0 V 450 h -12.55 -12.551 l -49.711,-86.87109 v 0 0 z"
         style="font-style:normal;font-weight:bold;font-size:168px;font-family:Helvetica;text-anchor:middle;fill:#000000"
         id="path981"
         inkscape:connector-curvature="0" />
      <path
         d="m 10394.32,453.28125 q -26.332,0 -41.836,-16.98047 -15.421,-16.98047 -15.421,-45.9375 0,-29.53125 16.078,-46.83984 16.078,-17.39063 43.476,-17.39063 21.985,0 36.176,10.99219 14.273,10.99219 16.652,29.69531 v 0 h -25.265 v 0 q -0.985,-7.875 -8.86,-13.78125 -7.875,-5.98828 -17.39,-5.98828 -16.407,0 -25.676,11.40234 -9.27,11.32032 -9.27,31.5 0,20.50782 8.86,31.25391 8.941,10.66406 26.086,10.66406 h -0.08 q 14.601,0 22.804,-11.15625 4.512,-6.3164 6.645,-14.84765 v -0.2461 0 h -28.383 v -20.7539 h 50.531 v 65.05078 h -16.816 l -2.461,-15.58594 v 0 l -1.477,1.96875 q -12.714,16.98047 -34.453,16.98047 z"
         style="font-style:normal;font-weight:bold;font-size:168px;font-family:Helvetica;text-anchor:middle;fill:#000000"
         id="path983"
         inkscape:connector-curvature="0" />
    </g>
    <!-- Text -->
    <!-- Text -->
    <!-- Text -->
    <g
       aria-label="FORWARD"
       style="font-style:normal;font-weight:bold;font-size:168px;font-family:Helvetica;text-anchor:middle;fill:#000000"
       id="text179">
      <path
         d="m 9474.0938,5400 v -120.5859 0 h 85.8046 v 0 10.664 10.7461 0 h -60.6211 v 0 27.3985 0 h 52.8282 v 10.3359 10.418 0 h -52.8282 v 0 V 5400 h -12.5507 z"
         style="font-style:normal;font-weight:bold;font-size:168px;font-family:Helvetica;text-anchor:middle;fill:#000000"
         id="path991"
         inkscape:connector-curvature="0" />
      <path
         d="m 9629.2969,5403.2812 q -26.5781,0 -42.2461,-16.9804 -15.668,-16.9805 -15.668,-45.9375 0,-29.5313 15.668,-46.8399 15.668,-17.3906 42.2461,-17.3906 26.7422,0 42.3281,17.3906 15.668,17.3086 15.668,46.8399 0,28.957 -15.668,45.9375 -15.5859,16.9804 -42.3281,16.9804 z m 0,-21.4101 q 15.4219,0 24.1172,-10.9922 8.6953,-11.0742 8.6953,-30.6797 0,-20.0156 -8.6953,-31.3359 -8.6953,-11.3203 -24.1172,-11.3203 -15.3399,0 -24.0352,11.3203 -8.6953,11.3203 -8.6953,31.3359 0,19.6055 8.6133,30.6797 8.6953,10.9922 24.1172,10.9922 z"
         style="font-style:normal;font-weight:bold;font-size:168px;font-family:Helvetica;text-anchor:middle;fill:#000000"
         id="path993"
         inkscape:connector-curvature="0" />
      <path
         d="m 9707.3906,5400 v -120.5859 0 h 12.5508 v 0 h 48.2344 q 17.2265,0 27.7265,9.2695 10.5821,9.1875 10.5821,24.2812 0,17.3907 -11.7305,25.4297 -3.1172,2.1328 -7.0547,3.6094 v 0 q 2.2149,0.9023 4.0196,1.9688 10.3359,6.1523 10.746,20.6718 l 0.5743,19.7696 q 0.164,5.9062 1.2304,8.3671 1.0664,2.461 4.1016,3.9375 v 3.1993 h -27.8086 q -0.9844,-1.8868 -1.7227,-8.0391 -0.7382,-6.2344 -0.8203,-13.3711 l -0.164,-11.1562 q -0.1641,-8.1211 -4.8399,-11.5664 -4.5937,-3.4454 -15.3398,-3.4454 h -25.1016 v 0 47.6602 0 h -12.5508 z m 25.1836,-67.9219 v 0 h 29.2031 q 9.7618,0 14.6016,-3.9375 4.9219,-4.0195 4.9219,-12.0586 0,-7.957 -4.6758,-11.8945 -4.5937,-4.0195 -13.8633,-4.0195 h -30.1875 v 0 z"
         style="font-style:normal;font-weight:bold;font-size:168px;font-family:Helvetica;text-anchor:middle;fill:#000000"
         id="path995"
         inkscape:connector-curvature="0" />
      <path
         d="m 9852.2578,5400 -33.5508,-120.5859 v 0 h 13.125 13.125 v 0 l 20.0977,88.2656 v 0 0 l 17.2266,-88.2656 h 13.371 13.4532 l 17.4726,87.5273 v 0 0 l 20.0157,-87.5273 v 0 h 12.7148 12.7148 v 0 L 9938.4727,5400 h -11.9766 -11.9766 l -19.3593,-94.9102 v 0 0 L 9876.2109,5400 h -11.9765 z"
         style="font-style:normal;font-weight:bold;font-size:168px;font-family:Helvetica;text-anchor:middle;fill:#000000"
         id="path997"
         inkscape:connector-curvature="0" />
      <path
         d="m 9977.8477,5400 42.6563,-120.5859 h 14.601 14.602 L 10092.445,5400 v 0 h -13.371 -13.371 v 0 l -8.121,-24.5273 v 0 h -45.773 v 0 l -7.957,24.5273 v 0 h -12.9614 z m 56.9293,-93.7617 -15.996,48.4804 v 0 h 32.074 v 0 z"
         style="font-style:normal;font-weight:bold;font-size:168px;font-family:Helvetica;text-anchor:middle;fill:#000000"
         id="path999"
         inkscape:connector-curvature="0" />
      <path
         d="m 10108.688,5400 v -120.5859 0 h 12.55 v 0 h 48.235 q 17.226,0 27.726,9.2695 10.582,9.1875 10.582,24.2812 0,17.3907 -11.73,25.4297 -3.117,2.1328 -7.055,3.6094 v 0 q 2.215,0.9023 4.02,1.9688 10.336,6.1523 10.746,20.6718 l 0.574,19.7696 q 0.164,5.9062 1.23,8.3671 1.067,2.461 4.102,3.9375 v 3.1993 h -27.809 q -0.984,-1.8868 -1.722,-8.0391 -0.739,-6.2344 -0.821,-13.3711 l -0.164,-11.1562 q -0.164,-8.1211 -4.839,-11.5664 -4.594,-3.4454 -15.34,-3.4454 h -25.102 v 0 47.6602 0 h -12.551 z m 25.183,-67.9219 v 0 h 29.203 q 9.762,0 14.602,-3.9375 4.922,-4.0195 4.922,-12.0586 0,-7.957 -4.676,-11.8945 -4.594,-4.0195 -13.863,-4.0195 h -30.188 v 0 z"
         style="font-style:normal;font-weight:bold;font-size:168px;font-family:Helvetica;text-anchor:middle;fill:#000000"
         id="path1001"
         inkscape:connector-curvature="0" />
      <path
         d="m 10230.094,5400 v -120.5859 0 h 12.551 v 0 h 39.046 q 24.856,0 37.735,14.6015 12.961,14.6016 12.961,42.7383 0,31.0078 -13.453,47.168 -13.371,16.0781 -39.293,16.0781 h -36.996 v 0 z m 25.183,-20.7539 v 0 h 21.246 q 15.34,0 22.969,-10.3359 7.711,-10.418 7.711,-31.1719 0,-18.7852 -7.137,-28.1367 -7.136,-9.4336 -21.492,-9.4336 h -23.297 v 0 z"
         style="font-style:normal;font-weight:bold;font-size:168px;font-family:Helvetica;text-anchor:middle;fill:#000000"
         id="path1003"
         inkscape:connector-curvature="0" />
    </g>
    <!-- Text -->
    <!-- Text -->
    <!-- Text -->
    <g
       aria-label="INPUT"
       style="font-style:normal;font-weight:bold;font-size:168px;font-family:Helvetica;text-anchor:middle;fill:#000000"
       id="text185">
      <path
         d="m 6103.582,2880 v -120.5859 0 h 12.5508 12.6328 v 0 120.5859 0 h -12.5508 z"
         style="font-style:normal;font-weight:bold;font-size:168px;font-family:Helvetica;text-anchor:middle;fill:#000000"
         id="path954"
         inkscape:connector-curvature="0" />
      <path
         d="m 6174.5391,2880 v 0 h -11.7305 -11.8125 v 0 -120.5859 0 h 13.207 13.2071 v 0 l 48.3984,84.5742 v 0 0 -84.5742 0 h 11.7305 11.8125 v 0 V 2880 h -12.5508 -12.5508 l -49.7109,-86.8711 v 0 0 z"
         style="font-style:normal;font-weight:bold;font-size:168px;font-family:Helvetica;text-anchor:middle;fill:#000000"
         id="path956"
         inkscape:connector-curvature="0" />
      <path
         d="m 6273.6328,2880 v -120.5859 0 h 12.5508 v 0 h 37.8984 q 20.5899,0 31.336,9.6797 10.7461,9.5976 10.7461,28.0546 0,19.5235 -10.7461,29.6954 -10.7461,10.0898 -31.336,10.0898 -14.6015,-0.082 -25.2656,0.1641 v 0 42.9023 0 h -12.5508 z m 25.1836,-63.8203 v 0 h 21 q 10.582,0 15.832,-4.6758 5.3321,-4.6758 5.3321,-14.1094 0,-8.6132 -5.3321,-12.8789 -5.25,-4.3476 -15.832,-4.3476 h -21 v 0 z"
         style="font-style:normal;font-weight:bold;font-size:168px;font-family:Helvetica;text-anchor:middle;fill:#000000"
         id="path958"
         inkscape:connector-curvature="0" />
      <path
         d="m 6482.4844,2834.5547 q 0.082,25.8398 -11.4024,37.3242 -11.4023,11.4024 -37.2422,11.4024 -24.7734,0 -36.75,-11.8946 -11.8945,-11.9765 -11.9765,-36.832 v -75.1406 0 h 12.5508 12.6328 v 0 75.9609 q 0,12.9609 5.8242,19.4414 5.9062,6.4805 17.7187,6.4805 12.6329,0 18.0469,-5.9063 5.4141,-5.9883 5.4141,-20.0156 v -75.9609 0 h 12.5508 12.6328 v 0 z"
         style="font-style:normal;font-weight:bold;font-size:168px;font-family:Helvetica;text-anchor:middle;fill:#000000"
         id="path960"
         inkscape:connector-curvature="0" />
      <path
         d="m 6533.2617,2880 v -99.1758 0 h -36.4219 v 0 -10.664 -10.7461 0 h 98.0274 v 0 10.664 10.7461 0 h -36.4219 v 0 99.1758 0 h -12.5508 z"
         style="font-style:normal;font-weight:bold;font-size:168px;font-family:Helvetica;text-anchor:middle;fill:#000000"
         id="path962"
         inkscape:connector-curvature="0" />
    </g>
    <!-- Text -->
    <!-- Text -->
    <!-- Text -->
    <g
       aria-label="OUTPUT"
       style="font-style:normal;font-weight:bold;font-size:168px;font-family:Helvetica;text-anchor:middle;fill:#000000"
       id="text191">
      <path
         d="m 6064.7812,7923.2812 q -26.5781,0 -42.246,-16.9804 -15.668,-16.9805 -15.668,-45.9375 0,-29.5313 15.668,-46.8399 15.6679,-17.3906 42.246,-17.3906 26.7422,0 42.3282,17.3906 15.6679,17.3086 15.6679,46.8399 0,28.957 -15.6679,45.9375 -15.586,16.9804 -42.3282,16.9804 z m 0,-21.4101 q 15.4219,0 24.1172,-10.9922 8.6953,-11.0742 8.6953,-30.6797 0,-20.0156 -8.6953,-31.3359 -8.6953,-11.3203 -24.1172,-11.3203 -15.3398,0 -24.0351,11.3203 -8.6953,11.3203 -8.6953,31.3359 0,19.6055 8.6133,30.6797 8.6953,10.9922 24.1171,10.9922 z"
         style="font-style:normal;font-weight:bold;font-size:168px;font-family:Helvetica;text-anchor:middle;fill:#000000"
         id="path1006"
         inkscape:connector-curvature="0" />
      <path
         d="m 6239.5078,7874.5547 q 0.082,25.8398 -11.4023,37.3242 -11.4024,11.4023 -37.2422,11.4023 -24.7735,0 -36.75,-11.8945 -11.8946,-11.9765 -11.9766,-36.832 v -75.1406 0 h 12.5508 12.6328 v 0 75.9609 q 0,12.9609 5.8242,19.4414 5.9063,6.4805 17.7188,6.4805 12.6328,0 18.0469,-5.9063 5.414,-5.9883 5.414,-20.0156 v -75.9609 0 h 12.5508 12.6328 v 0 z"
         style="font-style:normal;font-weight:bold;font-size:168px;font-family:Helvetica;text-anchor:middle;fill:#000000"
         id="path1008"
         inkscape:connector-curvature="0" />
      <path
         d="m 6290.2852,7920 v -99.1758 0 h -36.4219 v 0 -10.664 -10.7461 0 h 98.0273 v 0 10.664 10.7461 0 h -36.4219 v 0 99.1758 0 h -12.5507 z"
         style="font-style:normal;font-weight:bold;font-size:168px;font-family:Helvetica;text-anchor:middle;fill:#000000"
         id="path1010"
         inkscape:connector-curvature="0" />
      <path
         d="m 6366.9844,7920 v -120.5859 0 h 12.5508 v 0 h 37.8984 q 20.5898,0 31.3359,9.6796 10.7461,9.5977 10.7461,28.0547 0,19.5235 -10.7461,29.6953 -10.7461,10.0899 -31.3359,10.0899 -14.6016,-0.082 -25.2656,0.1641 v 0 42.9023 0 h -12.5508 z m 25.1836,-63.8203 v 0 h 21 q 10.582,0 15.832,-4.6758 5.332,-4.6758 5.332,-14.1094 0,-8.6133 -5.332,-12.8789 -5.25,-4.3476 -15.832,-4.3476 h -21 v 0 z"
         style="font-style:normal;font-weight:bold;font-size:168px;font-family:Helvetica;text-anchor:middle;fill:#000000"
         id="path1012"
         inkscape:connector-curvature="0" />
      <path
         d="m 6575.8359,7874.5547 q 0.082,25.8398 -11.4023,37.3242 -11.4024,11.4023 -37.2422,11.4023 -24.7734,0 -36.75,-11.8945 -11.8945,-11.9765 -11.9766,-36.832 v -75.1406 0 h 12.5508 12.6328 v 0 75.9609 q 0,12.9609 5.8243,19.4414 5.9062,6.4805 17.7187,6.4805 12.6328,0 18.0469,-5.9063 5.414,-5.9883 5.414,-20.0156 v -75.9609 0 h 12.5508 12.6328 v 0 z"
         style="font-style:normal;font-weight:bold;font-size:168px;font-family:Helvetica;text-anchor:middle;fill:#000000"
         id="path1014"
         inkscape:connector-curvature="0" />
      <path
         d="m 6626.6133,7920 v -99.1758 0 h -36.4219 v 0 -10.664 -10.7461 0 h 98.0273 v 0 10.664 10.7461 0 h -36.4218 v 0 99.1758 0 h -12.5508 z"
         style="font-style:normal;font-weight:bold;font-size:168px;font-family:Helvetica;text-anchor:middle;fill:#000000"
         id="path1016"
         inkscape:connector-curvature="0" />
    </g>
    <!-- Text -->
    <!-- Text -->
    <g
       transform="translate(-17.70555,5.0739049)"
       aria-label="mangle"
       style="font-style:normal;font-weight:bold;font-size:192px;font-family:Helvetica;text-anchor:middle;fill:#000000"
       id="text187">
      <path
         d="m 6066.0937,3465 v -102 0 h 12.75 12.8438 v 0 16.4063 0 0 q 1.7812,-4.3125 4.5,-7.6875 8.9062,-11.4375 25.875,-11.4375 13.5,0 22.125,9.0937 3.375,3.4688 5.3437,7.6875 v 0 l 3.2813,-5.3437 q 8.3437,-11.4375 24.2812,-11.4375 16.5938,0 25.9688,9.8437 9.375,9.8438 9.375,27.2813 V 3465 v 0 h -13.4063 -13.5 v 0 -59.9062 q 0,-11.4375 -3.75,-16.875 -3.75,-5.5313 -11.625,-5.5313 -8.4375,0 -12.9375,5.25 -4.4062,5.1563 -4.4062,14.9063 v 0 62.1562 0 h -13.4063 -13.5 v 0 -64.3125 q 0,-9.1875 -3.9375,-13.5937 -3.9375,-4.4063 -12.0937,-4.4063 -8.1563,0 -12.5625,5.25 -4.3125,5.1563 -4.3125,14.9063 v 0 62.1562 0 h -13.4063 z"
         style="font-style:normal;font-weight:bold;font-size:192px;font-family:Helvetica;text-anchor:middle;fill:#000000"
         id="path1042"
         inkscape:connector-curvature="0" />
      <path
         d="m 6261.375,3467.625 q -14.1563,0 -22.7813,-8.0625 -8.625,-8.1562 -8.625,-21.375 0,-13.9687 7.7813,-22.3125 7.7812,-8.4375 22.6875,-10.5937 l 17.7187,-2.4375 q 6.9375,-0.9375 11.5313,-3.1875 1.9687,-0.9375 3,-3.375 1.125,-2.4375 0.8437,-4.9688 -0.5625,-4.3125 -4.4062,-6.75 -4.5938,-2.9062 -13.2188,-2.9062 -7.6875,0 -12,3.75 -4.3125,3.75 -4.5937,10.5937 v 0 h -25.7813 v 0 q 0.8438,-17.9062 12.1875,-26.8125 11.3438,-8.9062 33.2813,-8.9062 19.0312,0 30,8.0625 11.0625,7.9687 11.0625,21.8437 v 57 q 0,6.8438 1.125,9.6563 1.125,2.7187 4.5,4.3125 v 0.094 3.6563 h -14.5313 -14.5312 v 0 q -1.7813,-6.1875 -2.3438,-12.0938 l -0.094,-0.1875 q -12.6563,15 -32.8125,15 z m 32.3437,-40.3125 v -11.7187 0 q -4.6875,2.625 -12.375,4.2187 l -9.9375,1.875 q -7.0312,1.3125 -10.6875,4.875 -3.6562,3.4688 -3.6562,8.8125 0,6.0938 3.2812,9.5625 3.2813,3.4688 9.1875,3.4688 12.9375,0 20.625,-9.0938 1.5,-1.7812 2.5313,-5.25 1.0312,-3.4687 1.0312,-6.75 z"
         style="font-style:normal;font-weight:bold;font-size:192px;font-family:Helvetica;text-anchor:middle;fill:#000000"
         id="path1044"
         inkscape:connector-curvature="0" />
      <path
         d="m 6343.7812,3465 v -102 0 h 12.75 12.8438 v 0 15.0938 0 0 q 1.5937,-2.7188 3.4687,-5.1563 9.9375,-12.6562 28.875,-12.6562 16.125,0 25.2188,9.5625 9.1875,9.5625 9.1875,26.5312 v 68.625 0 h -13.4063 -13.5 v 0 -63.75 q 0,-9.4687 -4.125,-13.9687 -4.0312,-4.5938 -12.4687,-4.5938 -10.5938,0 -16.3125,6.375 -5.625,6.375 -5.625,18.375 v 0 57.5625 0 h -13.4063 z"
         style="font-style:normal;font-weight:bold;font-size:192px;font-family:Helvetica;text-anchor:middle;fill:#000000"
         id="path1046"
         inkscape:connector-curvature="0" />
      <path
         d="m 6507.1875,3486.1875 q 11.3437,0 16.3125,-5.5312 4.9687,-5.4375 4.9687,-18.0938 V 3450 v 0 l -2.1562,3.2813 q -8.9063,12.2812 -25.5938,12.2812 -19.875,0 -32.1562,-14.25 -12.1875,-14.3437 -12.1875,-37.7812 0,-24 11.9062,-38.625 11.9063,-14.625 31.3125,-14.625 17.1563,0 26.625,12.4687 1.7813,2.3438 3.2813,5.1563 v 0 -14.9063 0 h 25.3125 v 96.5625 q 0,24.1875 -12,35.625 -11.9063,11.5313 -37.2188,11.5313 -20.8125,0 -33.0937,-8.1563 -12.2813,-8.0625 -13.125,-22.4062 v 0 h 29.25 v 0 q 0.375,5.25 4.7812,7.5937 4.5,2.4375 13.7813,2.4375 z m -0.8438,-102.6562 q -10.5,0 -16.4062,8.0625 -5.9063,7.9687 -5.9063,22.2187 0,13.9688 5.9063,21.8438 5.9062,7.7812 16.3125,7.7812 10.5937,0 16.5,-7.9687 6,-7.9688 6,-22.0313 0,-14.0625 -6,-21.9375 -5.9063,-7.9687 -16.4063,-7.9687 z"
         style="font-style:normal;font-weight:bold;font-size:192px;font-family:Helvetica;text-anchor:middle;fill:#000000"
         id="path1048"
         inkscape:connector-curvature="0" />
      <path
         d="m 6579.2812,3465 v -137.8125 0 h 13.4063 13.5 v 0 137.8125 0 h -13.4063 z"
         style="font-style:normal;font-weight:bold;font-size:192px;font-family:Helvetica;text-anchor:middle;fill:#000000"
         id="path1050"
         inkscape:connector-curvature="0" />
      <path
         d="m 6672.1875,3467.625 q -23.25,0 -35.9063,-14.3437 -12.5625,-14.3438 -12.5625,-40.875 0,-24.4688 12.8438,-38.25 12.8437,-13.875 35.625,-13.875 23.3437,0 35.9062,14.1562 12.6563,14.0625 12.6563,40.125 0.1875,3 -0.4688,6.0938 v 0 h -69.4687 v 0 q 0.9375,12.0937 5.3437,18.0937 5.625,7.5 18.75,7.5 6.0938,0 11.25,-3.4687 5.25,-3.4688 6.2813,-8.3438 v 0 h 27.375 v 0 q -3.4688,15.5625 -16.125,24.375 -12.5625,8.8125 -31.5,8.8125 z m 20.5312,-64.125 v 0 q -0.9375,-9.1875 -4.875,-14.3437 -5.1562,-6.8438 -16.0312,-6.8438 -10.4063,0 -15.8438,7.9688 -3.375,5.0625 -4.875,13.2187 v 0 z"
         style="font-style:normal;font-weight:bold;font-size:192px;font-family:Helvetica;text-anchor:middle;fill:#000000"
         id="path1052"
         inkscape:connector-curvature="0" />
    </g>
    <g
       transform="translate(-46.841206,3.8606898)"
       aria-label="mangle"
       style="font-style:normal;font-weight:bold;font-size:192px;font-family:Helvetica;text-anchor:middle;fill:#000000"
       id="text177">
      <path
         d="m 9621.0938,1035 v -102 0 h 12.75 12.8437 v 0 16.40625 0 0 q 1.7813,-4.3125 4.5,-7.6875 8.9063,-11.4375 25.875,-11.4375 13.5,0 22.125,9.09375 3.375,3.46875 5.3438,7.6875 v 0 l 3.2812,-5.34375 q 8.3438,-11.4375 24.2813,-11.4375 16.5937,0 25.9687,9.84375 9.375,9.84375 9.375,27.28125 V 1035 v 0 h -13.4062 -13.5 v 0 -59.90625 q 0,-11.4375 -3.75,-16.875 -3.75,-5.53125 -11.625,-5.53125 -8.4375,0 -12.9375,5.25 -4.4063,5.15625 -4.4063,14.90625 v 0 62.15625 0 h -13.4062 -13.5 v 0 -64.3125 q 0,-9.1875 -3.9375,-13.59375 -3.9375,-4.40625 -12.0938,-4.40625 -8.1562,0 -12.5625,5.25 Q 9648,963.09375 9648,972.84375 v 0 62.15625 0 h -13.4062 z"
         style="font-style:normal;font-weight:bold;font-size:192px;font-family:Helvetica;text-anchor:middle;fill:#000000"
         id="path976"
         inkscape:connector-curvature="0" />
      <path
         d="m 9816.375,1037.625 q -14.1562,0 -22.7812,-8.0625 -8.625,-8.1563 -8.625,-21.375 0,-13.96875 7.7812,-22.3125 7.7813,-8.4375 22.6875,-10.59375 l 17.7188,-2.4375 q 6.9375,-0.9375 11.5312,-3.1875 1.9688,-0.9375 3,-3.375 1.125,-2.4375 0.8438,-4.96875 -0.5625,-4.3125 -4.4063,-6.75 -4.5937,-2.90625 -13.2187,-2.90625 -7.6875,0 -12,3.75 -4.3125,3.75 -4.5938,10.59375 v 0 h -25.7812 v 0 q 0.8437,-17.90625 12.1875,-26.8125 11.3437,-8.90625 33.2812,-8.90625 19.0313,0 30,8.0625 11.0625,7.96875 11.0625,21.84375 v 57 q 0,6.8438 1.125,9.6563 1.125,2.7187 4.5,4.3125 v 0.094 3.6563 h -14.5312 -14.5313 v 0 q -1.7812,-6.1875 -2.3437,-12.0938 l -0.094,-0.1875 q -12.6562,15 -32.8125,15 z m 32.3438,-40.3125 v -11.71875 0 q -4.6875,2.625 -12.375,4.21875 l -9.9375,1.875 q -7.0313,1.3125 -10.6875,4.875 -3.6563,3.4687 -3.6563,8.8125 0,6.0937 3.2813,9.5625 3.2812,3.4687 9.1875,3.4687 12.9375,0 20.625,-9.0937 1.5,-1.7813 2.5312,-5.25 1.0313,-3.4688 1.0313,-6.75 z"
         style="font-style:normal;font-weight:bold;font-size:192px;font-family:Helvetica;text-anchor:middle;fill:#000000"
         id="path978"
         inkscape:connector-curvature="0" />
      <path
         d="m 9898.7813,1035 v -102 0 h 12.75 12.8437 v 0 15.09375 0 0 q 1.5938,-2.71875 3.4688,-5.15625 9.9375,-12.65625 28.875,-12.65625 16.125,0 25.2187,9.5625 9.1875,9.5625 9.1875,26.53125 v 68.625 0 h -13.4062 -13.5 v 0 -63.75 q 0,-9.46875 -4.125,-13.96875 -4.0313,-4.59375 -12.4688,-4.59375 -10.5937,0 -16.3125,6.375 -5.625,6.375 -5.625,18.375 v 0 57.5625 0 h -13.4062 z"
         style="font-style:normal;font-weight:bold;font-size:192px;font-family:Helvetica;text-anchor:middle;fill:#000000"
         id="path980"
         inkscape:connector-curvature="0" />
      <path
         d="m 10062.188,1056.1875 q 11.343,0 16.312,-5.5312 4.969,-5.4375 4.969,-18.0938 V 1020 v 0 l -2.156,3.2812 q -8.907,12.2813 -25.594,12.2813 -19.875,0 -32.156,-14.25 -12.188,-14.3438 -12.188,-37.78125 0,-24 11.906,-38.625 11.907,-14.625 31.313,-14.625 17.156,0 26.625,12.46875 1.781,2.34375 3.281,5.15625 v 0 V 933 v 0 h 25.313 v 96.5625 q 0,24.1875 -12,35.625 -11.907,11.5313 -37.219,11.5313 -20.813,0 -33.094,-8.1563 -12.281,-8.0625 -13.125,-22.4062 v 0 h 29.25 v 0 q 0.375,5.25 4.781,7.5937 4.5,2.4375 13.782,2.4375 z m -0.844,-102.65625 q -10.5,0 -16.406,8.0625 -5.907,7.96875 -5.907,22.21875 0,13.96875 5.907,21.8437 5.906,7.7813 16.312,7.7813 10.594,0 16.5,-7.9688 6,-7.9687 6,-22.0312 0,-14.0625 -6,-21.9375 -5.906,-7.96875 -16.406,-7.96875 z"
         style="font-style:normal;font-weight:bold;font-size:192px;font-family:Helvetica;text-anchor:middle;fill:#000000"
         id="path982"
         inkscape:connector-curvature="0" />
      <path
         d="m 10134.281,1035 v -137.8125 0 h 13.407 13.5 v 0 137.8125 0 h -13.407 z"
         style="font-style:normal;font-weight:bold;font-size:192px;font-family:Helvetica;text-anchor:middle;fill:#000000"
         id="path984"
         inkscape:connector-curvature="0" />
      <path
         d="m 10227.188,1037.625 q -23.25,0 -35.907,-14.3438 -12.562,-14.3437 -12.562,-40.87495 0,-24.46875 12.844,-38.25 12.843,-13.875 35.625,-13.875 23.343,0 35.906,14.15625 12.656,14.0625 12.656,40.125 0.188,3 -0.469,6.09375 v 0 h -69.468 v 0 q 0.937,12.09375 5.343,18.09375 5.625,7.5 18.75,7.5 6.094,0 11.25,-3.4688 5.25,-3.4687 6.282,-8.3437 v 0 h 27.375 v 0 q -3.469,15.5625 -16.125,24.375 -12.563,8.8125 -31.5,8.8125 z m 20.531,-64.125 v 0 q -0.938,-9.1875 -4.875,-14.34375 -5.156,-6.84375 -16.031,-6.84375 -10.407,0 -15.844,7.96875 -3.375,5.0625 -4.875,13.21875 v 0 z"
         style="font-style:normal;font-weight:bold;font-size:192px;font-family:Helvetica;text-anchor:middle;fill:#000000"
         id="path987"
         inkscape:connector-curvature="0" />
    </g>
    <g
       transform="translate(-67.076108,-9.9143854)"
       aria-label="nat"
       style="font-style:normal;font-weight:bold;font-size:192px;font-family:Helvetica;text-anchor:middle;fill:#000000"
       id="text175">
      <path
         d="m 9813.2813,1665 v -102 0 h 12.75 12.8437 v 0 15.0938 0 0 q 1.5938,-2.7188 3.4688,-5.1563 9.9375,-12.6562 28.875,-12.6562 16.125,0 25.2187,9.5625 9.1875,9.5625 9.1875,26.5312 v 68.625 0 h -13.4062 -13.5 v 0 -63.75 q 0,-9.4687 -4.125,-13.9687 -4.0313,-4.5938 -12.4688,-4.5938 -10.5937,0 -16.3125,6.375 -5.625,6.375 -5.625,18.375 v 0 57.5625 0 h -13.4062 z"
         style="font-style:normal;font-weight:bold;font-size:192px;font-family:Helvetica;text-anchor:middle;fill:#000000"
         id="path1024"
         inkscape:connector-curvature="0" />
      <path
         d="m 9955.125,1667.625 q -14.1562,0 -22.7812,-8.0625 -8.625,-8.1562 -8.625,-21.375 0,-13.9687 7.7812,-22.3125 7.7813,-8.4375 22.6875,-10.5937 l 17.7188,-2.4375 q 6.9375,-0.9375 11.5312,-3.1875 1.9688,-0.9375 3,-3.375 1.125,-2.4375 0.8438,-4.9688 -0.5625,-4.3125 -4.4063,-6.75 -4.5937,-2.9062 -13.2187,-2.9062 -7.6875,0 -12,3.75 -4.3125,3.75 -4.5938,10.5937 v 0 h -25.7812 v 0 q 0.8437,-17.9062 12.1875,-26.8125 11.3437,-8.9062 33.2812,-8.9062 19.0313,0 30,8.0625 11.063,7.9687 11.063,21.8437 v 57 q 0,6.8438 1.125,9.6563 1.125,2.7187 4.5,4.3125 v 0.094 3.6563 h -14.532 -14.531 v 0 q -1.7812,-6.1875 -2.3437,-12.0938 l -0.094,-0.1875 q -12.6562,15 -32.8125,15 z m 32.3438,-40.3125 v -11.7187 0 q -4.6875,2.625 -12.375,4.2187 l -9.9375,1.875 q -7.0313,1.3125 -10.6875,4.875 -3.6563,3.4688 -3.6563,8.8125 0,6.0938 3.2813,9.5625 3.2812,3.4688 9.1875,3.4688 12.9375,0 20.625,-9.0938 1.5,-1.7812 2.5312,-5.25 1.0313,-3.4687 1.0313,-6.75 z"
         style="font-style:normal;font-weight:bold;font-size:192px;font-family:Helvetica;text-anchor:middle;fill:#000000"
         id="path1026"
         inkscape:connector-curvature="0" />
      <path
         d="m 10084.406,1665.5625 q -6.75,0.5625 -16.593,0.5625 -14.25,0 -20.532,-5.0625 -6.187,-5.1562 -6.187,-16.7812 v -62.4375 0 h -14.156 V 1563 h 14.156 v 0 -27.4687 H 10068 V 1563 v 0 h 16.406 v 18.8438 H 10068 v 0 57.9375 q 0,3.5625 2.063,4.6875 2.156,1.125 8.812,1.125 h 5.531 z"
         style="font-style:normal;font-weight:bold;font-size:192px;font-family:Helvetica;text-anchor:middle;fill:#000000"
         id="path1028"
         inkscape:connector-curvature="0" />
    </g>
    <g
       aria-label="filter"
       style="font-style:normal;font-weight:bold;font-size:192px;font-family:Helvetica;text-anchor:middle;fill:#000000"
       id="text189"
       transform="translate(-7.8734199,-11.848965)">
      <path
         d="m 6225.5625,4011.8438 v 0 83.1562 0 h -13.4063 -13.5 v 0 -83.1562 0 H 6183.75 V 3993 h 14.9062 v 0 -8.5312 q 0,-14.7188 7.7813,-21.9375 7.875,-7.2188 23.8125,-7.2188 7.125,-0.094 12.6562,0.6563 v 21.4687 h -8.5312 q -5.3438,0 -7.125,2.1563 -1.6875,2.1562 -1.6875,8.8125 v 4.5937 0 h 17.3437 v 18.8438 z"
         style="font-style:normal;font-weight:bold;font-size:192px;font-family:Helvetica;text-anchor:middle;fill:#000000"
         id="path985"
         inkscape:connector-curvature="0" />
      <path
         d="m 6259.5,4095 v -102 0 h 13.4062 13.5 v 0 102 0 H 6273 Z m -0.2813,-138.8437 h 27.375 v 24.9375 h -27.375 z"
         style="font-style:normal;font-weight:bold;font-size:192px;font-family:Helvetica;text-anchor:middle;fill:#000000"
         id="path989"
         inkscape:connector-curvature="0" />
      <path
         d="m 6312.4687,4095 v -137.8125 0 h 13.4063 13.5 v 0 137.8125 0 h -13.4063 z"
         style="font-style:normal;font-weight:bold;font-size:192px;font-family:Helvetica;text-anchor:middle;fill:#000000"
         id="path992"
         inkscape:connector-curvature="0" />
      <path
         d="m 6411.8437,4095.5625 q -6.75,0.5625 -16.5937,0.5625 -14.25,0 -20.5313,-5.0625 -6.1875,-5.1562 -6.1875,-16.7812 v -62.4375 0 H 6354.375 V 3993 h 14.1562 v 0 -27.4687 h 26.9063 V 3993 v 0 h 16.4062 v 18.8438 h -16.4062 v 0 57.9375 q 0,3.5625 2.0625,4.6875 2.1562,1.125 8.8125,1.125 h 5.5312 z"
         style="font-style:normal;font-weight:bold;font-size:192px;font-family:Helvetica;text-anchor:middle;fill:#000000"
         id="path994"
         inkscape:connector-curvature="0" />
      <path
         d="m 6469.5,4097.625 q -23.25,0 -35.9063,-14.3437 -12.5625,-14.3438 -12.5625,-40.875 0,-24.4688 12.8438,-38.25 12.8437,-13.875 35.625,-13.875 23.3437,0 35.9062,14.1562 12.6563,14.0625 12.6563,40.125 0.1875,3 -0.4688,6.0938 v 0 h -69.4687 v 0 q 0.9375,12.0937 5.3437,18.0937 5.625,7.5 18.75,7.5 6.0938,0 11.25,-3.4687 5.25,-3.4688 6.2813,-8.3438 v 0 h 27.375 v 0 q -3.4688,15.5625 -16.125,24.375 -12.5625,8.8125 -31.5,8.8125 z m 20.5312,-64.125 v 0 q -0.9375,-9.1875 -4.875,-14.3437 -5.1562,-6.8438 -16.0312,-6.8438 -10.4063,0 -15.8438,7.9688 -3.375,5.0625 -4.875,13.2187 v 0 z"
         style="font-style:normal;font-weight:bold;font-size:192px;font-family:Helvetica;text-anchor:middle;fill:#000000"
         id="path996"
         inkscape:connector-curvature="0" />
      <path
         d="m 6535.7812,4095 v -102 0 h 12.75 12.8438 v 0 18.2813 0 0 q 1.4062,-3 3.1875,-5.8125 9.4687,-15.1875 24.4687,-15.1875 l 6.0938,0.094 v 27.4688 q -3.5625,-0.375 -8.0625,-0.375 -12.2813,0 -18.375,6.0937 -6,6.0938 -6,18.4688 v 0 52.9687 0 h -13.4063 -13.5 z"
         style="font-style:normal;font-weight:bold;font-size:192px;font-family:Helvetica;text-anchor:middle;fill:#000000"
         id="path998"
         inkscape:connector-curvature="0" />
    </g>
    <g
       transform="translate(-17.077465,-16.256758)"
       aria-label="mangle"
       style="font-style:normal;font-weight:bold;font-size:192px;font-family:Helvetica;text-anchor:middle;fill:#000000"
       id="text181">
      <path
         d="m 9621.0938,5985 v -102 0 h 12.75 12.8437 v 0 16.4062 0 0 q 1.7813,-4.3125 4.5,-7.6875 8.9063,-11.4375 25.875,-11.4375 13.5,0 22.125,9.0938 3.375,3.4687 5.3438,7.6875 v 0 l 3.2812,-5.3438 q 8.3438,-11.4375 24.2813,-11.4375 16.5937,0 25.9687,9.8438 9.375,9.8437 9.375,27.2812 V 5985 v 0 h -13.4062 -13.5 v 0 -59.9063 q 0,-11.4375 -3.75,-16.875 -3.75,-5.5312 -11.625,-5.5312 -8.4375,0 -12.9375,5.25 -4.4063,5.1562 -4.4063,14.9062 v 0 62.1563 0 h -13.4062 -13.5 v 0 -64.3125 q 0,-9.1875 -3.9375,-13.5938 -3.9375,-4.4062 -12.0938,-4.4062 -8.1562,0 -12.5625,5.25 -4.3125,5.1562 -4.3125,14.9062 v 0 62.1563 0 h -13.4062 z"
         style="font-style:normal;font-weight:bold;font-size:192px;font-family:Helvetica;text-anchor:middle;fill:#000000"
         id="path1034"
         inkscape:connector-curvature="0" />
      <path
         d="m 9816.375,5987.625 q -14.1562,0 -22.7812,-8.0625 -8.625,-8.1563 -8.625,-21.375 0,-13.9688 7.7812,-22.3125 7.7813,-8.4375 22.6875,-10.5938 l 17.7188,-2.4375 q 6.9375,-0.9375 11.5312,-3.1875 1.9688,-0.9375 3,-3.375 1.125,-2.4375 0.8438,-4.9687 -0.5625,-4.3125 -4.4063,-6.75 -4.5937,-2.9063 -13.2187,-2.9063 -7.6875,0 -12,3.75 -4.3125,3.75 -4.5938,10.5938 v 0 h -25.7812 v 0 q 0.8437,-17.9063 12.1875,-26.8125 11.3437,-8.9063 33.2812,-8.9063 19.0313,0 30,8.0625 11.0625,7.9688 11.0625,21.8438 v 57 q 0,6.8437 1.125,9.6562 1.125,2.7188 4.5,4.3125 v 0.094 3.6562 h -14.5312 -14.5313 v 0 q -1.7812,-6.1875 -2.3437,-12.0937 l -0.094,-0.1875 q -12.6562,15 -32.8125,15 z m 32.3438,-40.3125 v -11.7188 0 q -4.6875,2.625 -12.375,4.2188 l -9.9375,1.875 q -7.0313,1.3125 -10.6875,4.875 -3.6563,3.4687 -3.6563,8.8125 0,6.0937 3.2813,9.5625 3.2812,3.4687 9.1875,3.4687 12.9375,0 20.625,-9.0937 1.5,-1.7813 2.5312,-5.25 1.0313,-3.4688 1.0313,-6.75 z"
         style="font-style:normal;font-weight:bold;font-size:192px;font-family:Helvetica;text-anchor:middle;fill:#000000"
         id="path1036"
         inkscape:connector-curvature="0" />
      <path
         d="m 9898.7813,5985 v -102 0 h 12.75 12.8437 v 0 15.0937 0 0 q 1.5938,-2.7187 3.4688,-5.1562 9.9375,-12.6563 28.875,-12.6563 16.125,0 25.2187,9.5625 9.1875,9.5625 9.1875,26.5313 v 68.625 0 h -13.4062 -13.5 v 0 -63.75 q 0,-9.4688 -4.125,-13.9688 -4.0313,-4.5937 -12.4688,-4.5937 -10.5937,0 -16.3125,6.375 -5.625,6.375 -5.625,18.375 v 0 57.5625 0 h -13.4062 z"
         style="font-style:normal;font-weight:bold;font-size:192px;font-family:Helvetica;text-anchor:middle;fill:#000000"
         id="path1038"
         inkscape:connector-curvature="0" />
      <path
         d="m 10062.188,6006.1875 q 11.343,0 16.312,-5.5313 4.969,-5.4375 4.969,-18.0937 V 5970 v 0 l -2.156,3.2812 q -8.907,12.2813 -25.594,12.2813 -19.875,0 -32.156,-14.25 -12.188,-14.3438 -12.188,-37.7813 0,-24 11.906,-38.625 11.907,-14.625 31.313,-14.625 17.156,0 26.625,12.4688 1.781,2.3437 3.281,5.1562 v 0 -14.9062 0 h 25.313 v 96.5625 q 0,24.1875 -12,35.625 -11.907,11.5312 -37.219,11.5312 -20.813,0 -33.094,-8.1562 -12.281,-8.0625 -13.125,-22.4063 v 0 h 29.25 v 0 q 0.375,5.25 4.781,7.5938 4.5,2.4375 13.782,2.4375 z m -0.844,-102.6563 q -10.5,0 -16.406,8.0625 -5.907,7.9688 -5.907,22.2188 0,13.9687 5.907,21.8437 5.906,7.7813 16.312,7.7813 10.594,0 16.5,-7.9688 6,-7.9687 6,-22.0312 0,-14.0625 -6,-21.9375 -5.906,-7.9688 -16.406,-7.9688 z"
         style="font-style:normal;font-weight:bold;font-size:192px;font-family:Helvetica;text-anchor:middle;fill:#000000"
         id="path1040"
         inkscape:connector-curvature="0" />
      <path
         d="m 10134.281,5985 v -137.8125 0 h 13.407 13.5 v 0 137.8125 0 h -13.407 z"
         style="font-style:normal;font-weight:bold;font-size:192px;font-family:Helvetica;text-anchor:middle;fill:#000000"
         id="path1043"
         inkscape:connector-curvature="0" />
      <path
         d="m 10227.188,5987.625 q -23.25,0 -35.907,-14.3438 -12.562,-14.3437 -12.562,-40.875 0,-24.4687 12.844,-38.25 12.843,-13.875 35.625,-13.875 23.343,0 35.906,14.1563 12.656,14.0625 12.656,40.125 0.188,3 -0.469,6.0937 v 0 h -69.468 v 0 q 0.937,12.0938 5.343,18.0938 5.625,7.5 18.75,7.5 6.094,0 11.25,-3.4688 5.25,-3.4687 6.282,-8.3437 v 0 h 27.375 v 0 q -3.469,15.5625 -16.125,24.375 -12.563,8.8125 -31.5,8.8125 z m 20.531,-64.125 v 0 q -0.938,-9.1875 -4.875,-14.3438 -5.156,-6.8437 -16.031,-6.8437 -10.407,0 -15.844,7.9687 -3.375,5.0625 -4.875,13.2188 v 0 z"
         style="font-style:normal;font-weight:bold;font-size:192px;font-family:Helvetica;text-anchor:middle;fill:#000000"
         id="path1045"
         inkscape:connector-curvature="0" />
    </g>
    <g
       transform="translate(-15.30246,-41.67588)"
       aria-label="filter"
       style="font-style:normal;font-weight:bold;font-size:192px;font-family:Helvetica;text-anchor:middle;fill:#000000"
       id="text183">
      <path
         d="m 9780.5625,6531.8437 v 0 83.1563 0 h -13.4062 -13.5 v 0 -83.1563 0 H 9738.75 V 6513 h 14.9063 v 0 -8.5313 q 0,-14.7187 7.7812,-21.9375 7.875,-7.2187 23.8125,-7.2187 7.125,-0.094 12.6563,0.6562 v 21.4688 h -8.5313 q -5.3437,0 -7.125,2.1562 -1.6875,2.1563 -1.6875,8.8125 v 4.5938 0 h 17.3438 v 18.8437 z"
         style="font-style:normal;font-weight:bold;font-size:192px;font-family:Helvetica;text-anchor:middle;fill:#000000"
         id="path1081"
         inkscape:connector-curvature="0" />
      <path
         d="m 9814.5,6615 v -102 0 h 13.4063 13.5 v 0 102 0 H 9828 Z m -0.2812,-138.8438 h 27.375 v 24.9375 h -27.375 z"
         style="font-style:normal;font-weight:bold;font-size:192px;font-family:Helvetica;text-anchor:middle;fill:#000000"
         id="path1083"
         inkscape:connector-curvature="0" />
      <path
         d="m 9867.4688,6615 v -137.8125 0 h 13.4062 13.5 v 0 137.8125 0 h -13.4062 z"
         style="font-style:normal;font-weight:bold;font-size:192px;font-family:Helvetica;text-anchor:middle;fill:#000000"
         id="path1085"
         inkscape:connector-curvature="0" />
      <path
         d="m 9966.8438,6615.5625 q -6.75,0.5625 -16.5938,0.5625 -14.25,0 -20.5312,-5.0625 -6.1875,-5.1563 -6.1875,-16.7813 v -62.4375 0 H 9909.375 V 6513 h 14.1563 v 0 -27.4688 h 26.9062 V 6513 v 0 h 16.4063 v 18.8437 h -16.4063 v 0 57.9375 q 0,3.5625 2.0625,4.6875 2.1563,1.125 8.8125,1.125 h 5.5313 z"
         style="font-style:normal;font-weight:bold;font-size:192px;font-family:Helvetica;text-anchor:middle;fill:#000000"
         id="path1087"
         inkscape:connector-curvature="0" />
      <path
         d="m 10024.5,6617.625 q -23.25,0 -35.9062,-14.3438 -12.5625,-14.3437 -12.5625,-40.875 0,-24.4687 12.8437,-38.25 12.844,-13.875 35.625,-13.875 23.344,0 35.906,14.1563 12.657,14.0625 12.657,40.125 0.187,3 -0.469,6.0937 v 0 h -69.469 v 0 q 0.938,12.0938 5.344,18.0938 5.625,7.5 18.75,7.5 6.094,0 11.25,-3.4688 5.25,-3.4687 6.281,-8.3437 v 0 h 27.375 v 0 q -3.469,15.5625 -16.125,24.375 -12.562,8.8125 -31.5,8.8125 z m 20.531,-64.125 v 0 q -0.937,-9.1875 -4.875,-14.3438 -5.156,-6.8437 -16.031,-6.8437 -10.406,0 -15.844,7.9687 -3.375,5.0625 -4.875,13.2188 v 0 z"
         style="font-style:normal;font-weight:bold;font-size:192px;font-family:Helvetica;text-anchor:middle;fill:#000000"
         id="path1089"
         inkscape:connector-curvature="0" />
      <path
         d="m 10090.781,6615 v -102 0 h 12.75 12.844 v 0 18.2812 0 0 q 1.406,-3 3.188,-5.8125 9.468,-15.1875 24.468,-15.1875 l 6.094,0.094 v 27.4687 q -3.562,-0.375 -8.062,-0.375 -12.282,0 -18.375,6.0938 -6,6.0937 -6,18.4687 v 0 52.9688 0 h -13.407 -13.5 z"
         style="font-style:normal;font-weight:bold;font-size:192px;font-family:Helvetica;text-anchor:middle;fill:#000000"
         id="path1091"
         inkscape:connector-curvature="0" />
    </g>
    <g
       transform="translate(-20.45855,-3.0039145)"
       aria-label="mangle"
       style="font-style:normal;font-weight:bold;font-size:192px;font-family:Helvetica;text-anchor:middle;fill:#000000"
       id="text169">
      <path
         d="m 9666.0938,10620 v -102 0 h 12.75 12.8437 v 0 16.406 0 0 q 1.7813,-4.312 4.5,-7.687 8.9063,-11.438 25.875,-11.438 13.5,0 22.125,9.094 3.375,3.469 5.3438,7.688 v 0 l 3.2812,-5.344 q 8.3438,-11.438 24.2813,-11.438 16.5937,0 25.9687,9.844 9.375,9.844 9.375,27.281 v 67.594 0 h -13.4062 -13.5 v 0 -59.906 q 0,-11.438 -3.75,-16.875 -3.75,-5.531 -11.625,-5.531 -8.4375,0 -12.9375,5.25 -4.4063,5.156 -4.4063,14.906 v 0 62.156 0 h -13.4062 -13.5 v 0 -64.312 q 0,-9.188 -3.9375,-13.594 -3.9375,-4.406 -12.0938,-4.406 -8.1562,0 -12.5625,5.25 -4.3125,5.156 -4.3125,14.906 v 0 62.156 0 h -13.4062 z"
         style="font-style:normal;font-weight:bold;font-size:192px;font-family:Helvetica;text-anchor:middle;fill:#000000"
         id="path1004"
         inkscape:connector-curvature="0" />
      <path
         d="m 9861.375,10622.625 q -14.1562,0 -22.7812,-8.062 -8.625,-8.157 -8.625,-21.375 0,-13.969 7.7812,-22.313 7.7813,-8.437 22.6875,-10.594 l 17.7188,-2.437 q 6.9375,-0.938 11.5312,-3.188 1.9688,-0.937 3,-3.375 1.125,-2.437 0.8438,-4.968 -0.5625,-4.313 -4.4063,-6.75 -4.5937,-2.907 -13.2187,-2.907 -7.6875,0 -12,3.75 -4.3125,3.75 -4.5938,10.594 v 0 h -25.7812 v 0 q 0.8437,-17.906 12.1875,-26.812 11.3437,-8.907 33.2812,-8.907 19.0313,0 30,8.063 11.0625,7.969 11.0625,21.844 v 57 q 0,6.843 1.125,9.656 1.125,2.719 4.5,4.312 v 0.09 3.656 h -14.5312 -14.5313 v 0 q -1.7812,-6.187 -2.3437,-12.093 l -0.094,-0.188 q -12.6562,15 -32.8125,15 z m 32.3438,-40.312 v -11.719 0 q -4.6875,2.625 -12.375,4.219 l -9.9375,1.875 q -7.0313,1.312 -10.6875,4.875 -3.6563,3.468 -3.6563,8.812 0,6.094 3.2813,9.563 3.2812,3.468 9.1875,3.468 12.9375,0 20.625,-9.093 1.5,-1.782 2.5312,-5.25 1.0313,-3.469 1.0313,-6.75 z"
         style="font-style:normal;font-weight:bold;font-size:192px;font-family:Helvetica;text-anchor:middle;fill:#000000"
         id="path1007"
         inkscape:connector-curvature="0" />
      <path
         d="m 9943.7813,10620 v -102 0 h 12.75 12.8437 v 0 15.094 0 0 q 1.5938,-2.719 3.4688,-5.156 9.9375,-12.657 28.8752,-12.657 16.125,0 25.219,9.563 9.187,9.562 9.187,26.531 v 68.625 0 h -13.406 -13.5 v 0 -63.75 q 0,-9.469 -4.125,-13.969 -4.031,-4.593 -12.469,-4.593 -10.5937,0 -16.3125,6.375 -5.625,6.375 -5.625,18.375 v 0 57.562 0 h -13.4062 z"
         style="font-style:normal;font-weight:bold;font-size:192px;font-family:Helvetica;text-anchor:middle;fill:#000000"
         id="path1009"
         inkscape:connector-curvature="0" />
      <path
         d="m 10107.188,10641.188 q 11.343,0 16.312,-5.532 4.969,-5.437 4.969,-18.093 v -12.563 0 l -2.156,3.281 q -8.907,12.282 -25.594,12.282 -19.875,0 -32.156,-14.25 -12.188,-14.344 -12.188,-37.782 0,-24 11.906,-38.625 11.907,-14.625 31.313,-14.625 17.156,0 26.625,12.469 1.781,2.344 3.281,5.156 v 0 -14.906 0 h 25.313 v 96.563 q 0,24.187 -12,35.625 -11.907,11.531 -37.219,11.531 -20.813,0 -33.094,-8.156 -12.281,-8.063 -13.125,-22.407 v 0 h 29.25 v 0 q 0.375,5.25 4.781,7.594 4.5,2.438 13.782,2.438 z m -0.844,-102.657 q -10.5,0 -16.406,8.063 -5.907,7.969 -5.907,22.219 0,13.968 5.907,21.843 5.906,7.782 16.312,7.782 10.594,0 16.5,-7.969 6,-7.969 6,-22.031 0,-14.063 -6,-21.938 -5.906,-7.969 -16.406,-7.969 z"
         style="font-style:normal;font-weight:bold;font-size:192px;font-family:Helvetica;text-anchor:middle;fill:#000000"
         id="path1011"
         inkscape:connector-curvature="0" />
      <path
         d="m 10179.281,10620 v -137.812 0 h 13.407 13.5 v 0 137.812 0 h -13.407 z"
         style="font-style:normal;font-weight:bold;font-size:192px;font-family:Helvetica;text-anchor:middle;fill:#000000"
         id="path1013"
         inkscape:connector-curvature="0" />
      <path
         d="m 10272.188,10622.625 q -23.25,0 -35.907,-14.344 -12.562,-14.343 -12.562,-40.875 0,-24.468 12.844,-38.25 12.843,-13.875 35.625,-13.875 23.343,0 35.906,14.157 12.656,14.062 12.656,40.125 0.188,3 -0.469,6.093 v 0 h -69.468 v 0 q 0.937,12.094 5.343,18.094 5.625,7.5 18.75,7.5 6.094,0 11.25,-3.469 5.25,-3.468 6.282,-8.343 v 0 h 27.375 v 0 q -3.469,15.562 -16.125,24.375 -12.563,8.812 -31.5,8.812 z m 20.531,-64.125 v 0 q -0.938,-9.187 -4.875,-14.344 -5.156,-6.843 -16.031,-6.843 -10.407,0 -15.844,7.968 -3.375,5.063 -4.875,13.219 v 0 z"
         style="font-style:normal;font-weight:bold;font-size:192px;font-family:Helvetica;text-anchor:middle;fill:#000000"
         id="path1015"
         inkscape:connector-curvature="0" />
    </g>
    <g
       transform="translate(4419.1988,-84.209556)"
       aria-label="nat"
       style="font-style:normal;font-weight:bold;font-size:192px;font-family:Helvetica;text-anchor:middle;fill:#000000"
       id="text167">
      <path
         d="m 5402.3657,11319.407 v -102 0 h 12.75 12.8438 v 0 15.094 0 0 q 1.5937,-2.719 3.4687,-5.156 9.9375,-12.657 28.875,-12.657 16.125,0 25.2188,9.563 9.1875,9.562 9.1875,26.531 v 68.625 0 h -13.4063 -13.5 v 0 -63.75 q 0,-9.469 -4.125,-13.969 -4.0312,-4.593 -12.4687,-4.593 -10.5938,0 -16.3125,6.375 -5.625,6.375 -5.625,18.375 v 0 57.562 0 h -13.4063 z"
         style="font-style:normal;font-weight:bold;font-size:192px;font-family:Helvetica;text-anchor:middle;fill:#000000"
         id="path1017"
         inkscape:connector-curvature="0" />
      <path
         d="m 5544.2095,11322.032 q -14.1563,0 -22.7813,-8.062 -8.625,-8.157 -8.625,-21.375 0,-13.969 7.7813,-22.313 7.7812,-8.437 22.6875,-10.594 l 17.7187,-2.437 q 6.9375,-0.938 11.5313,-3.188 1.9687,-0.937 3,-3.375 1.125,-2.437 0.8437,-4.968 -0.5625,-4.313 -4.4062,-6.75 -4.5938,-2.907 -13.2188,-2.907 -7.6875,0 -12,3.75 -4.3125,3.75 -4.5937,10.594 v 0 h -25.7813 v 0 q 0.8438,-17.906 12.1875,-26.812 11.3438,-8.907 33.2813,-8.907 19.0312,0 30,8.063 11.0625,7.969 11.0625,21.844 v 57 q 0,6.843 1.125,9.656 1.125,2.719 4.5,4.312 v 0.09 3.656 h -14.5313 -14.5312 v 0 q -1.7813,-6.187 -2.3438,-12.093 l -0.094,-0.188 q -12.6563,15 -32.8125,15 z m 32.3437,-40.312 v -11.719 0 q -4.6875,2.625 -12.375,4.219 l -9.9375,1.875 q -7.0312,1.312 -10.6875,4.875 -3.6562,3.468 -3.6562,8.812 0,6.094 3.2812,9.563 3.2813,3.468 9.1875,3.468 12.9375,0 20.625,-9.093 1.5,-1.782 2.5313,-5.25 1.0312,-3.469 1.0312,-6.75 z"
         style="font-style:normal;font-weight:bold;font-size:192px;font-family:Helvetica;text-anchor:middle;fill:#000000"
         id="path1020"
         inkscape:connector-curvature="0" />
      <path
         d="m 5673.4907,11319.97 q -6.75,0.562 -16.5937,0.562 -14.25,0 -20.5313,-5.062 -6.1875,-5.157 -6.1875,-16.782 v -62.437 0 h -14.1562 v -18.844 h 14.1562 v 0 -27.469 h 26.9063 v 27.469 0 h 16.4062 v 18.844 h -16.4062 v 0 57.937 q 0,3.563 2.0625,4.688 2.1562,1.125 8.8125,1.125 h 5.5312 z"
         style="font-style:normal;font-weight:bold;font-size:192px;font-family:Helvetica;text-anchor:middle;fill:#000000"
         id="path1022"
         inkscape:connector-curvature="0" />
    </g>
    <g
       transform="translate(2161.6674,-2427.207)"
       aria-label="mangle"
       style="font-style:normal;font-weight:bold;font-size:192px;font-family:Helvetica;text-anchor:middle;fill:#000000"
       id="text195">
      <path
         d="m 3886.7207,10934.237 v -102 0 h 12.75 12.8438 v 0 16.407 0 0 q 1.7812,-4.313 4.5,-7.688 8.9062,-11.437 25.875,-11.437 13.5,0 22.125,9.093 3.375,3.469 5.3437,7.688 v 0 l 3.2813,-5.344 q 8.3437,-11.437 24.2812,-11.437 16.5938,0 25.9688,9.843 9.375,9.844 9.375,27.282 v 67.593 0 h -13.4063 -13.5 v 0 -59.906 q 0,-11.437 -3.75,-16.875 -3.75,-5.531 -11.625,-5.531 -8.4375,0 -12.9375,5.25 -4.4062,5.156 -4.4062,14.906 v 0 62.156 0 h -13.4063 -13.5 v 0 -64.312 q 0,-9.188 -3.9375,-13.594 -3.9375,-4.406 -12.0937,-4.406 -8.1563,0 -12.5625,5.25 -4.3125,5.156 -4.3125,14.906 v 0 62.156 0 h -13.4063 z"
         style="font-style:normal;font-weight:bold;font-size:192px;font-family:Helvetica;text-anchor:middle;fill:#000000"
         id="path1018"
         inkscape:connector-curvature="0" />
      <path
         d="m 4082.002,10936.862 q -14.1563,0 -22.7813,-8.062 -8.625,-8.156 -8.625,-21.375 0,-13.969 7.7813,-22.313 7.7812,-8.437 22.6875,-10.593 l 17.7187,-2.438 q 6.9375,-0.937 11.5313,-3.187 1.9687,-0.938 3,-3.375 1.125,-2.438 0.8437,-4.969 -0.5625,-4.313 -4.4062,-6.75 -4.5938,-2.906 -13.2188,-2.906 -7.6875,0 -12,3.75 -4.3125,3.75 -4.5937,10.593 v 0 h -25.7813 v 0 q 0.8438,-17.906 12.1875,-26.812 11.3438,-8.906 33.2813,-8.906 19.0312,0 30,8.062 11.0625,7.969 11.0625,21.844 v 57 q 0,6.844 1.125,9.656 1.125,2.719 4.5,4.313 v 0.09 3.657 h -14.5313 -14.5312 v 0 q -1.7813,-6.188 -2.3438,-12.094 l -0.094,-0.188 q -12.6563,15 -32.8125,15 z m 32.3437,-40.312 v -11.719 0 q -4.6875,2.625 -12.375,4.219 l -9.9375,1.875 q -7.0312,1.312 -10.6875,4.875 -3.6562,3.469 -3.6562,8.812 0,6.094 3.2812,9.563 3.2813,3.469 9.1875,3.469 12.9375,0 20.625,-9.094 1.5,-1.781 2.5313,-5.25 1.0312,-3.469 1.0312,-6.75 z"
         style="font-style:normal;font-weight:bold;font-size:192px;font-family:Helvetica;text-anchor:middle;fill:#000000"
         id="path1030"
         inkscape:connector-curvature="0" />
      <path
         d="m 4164.4082,10934.237 v -102 0 h 12.75 12.8438 v 0 15.094 0 0 q 1.5937,-2.719 3.4687,-5.156 9.9375,-12.656 28.875,-12.656 16.125,0 25.2188,9.562 9.1875,9.563 9.1875,26.531 v 68.625 0 h -13.4063 -13.5 v 0 -63.75 q 0,-9.468 -4.125,-13.968 -4.0312,-4.594 -12.4687,-4.594 -10.5938,0 -16.3125,6.375 -5.625,6.375 -5.625,18.375 v 0 57.562 0 h -13.4063 z"
         style="font-style:normal;font-weight:bold;font-size:192px;font-family:Helvetica;text-anchor:middle;fill:#000000"
         id="path1032"
         inkscape:connector-curvature="0" />
      <path
         d="m 4327.8145,10955.425 q 11.3437,0 16.3125,-5.531 4.9687,-5.438 4.9687,-18.094 v -12.563 0 l -2.1562,3.282 q -8.9063,12.281 -25.5938,12.281 -19.875,0 -32.1562,-14.25 -12.1875,-14.344 -12.1875,-37.781 0,-24 11.9062,-38.625 11.9063,-14.625 31.3125,-14.625 17.1563,0 26.625,12.468 1.7813,2.344 3.2813,5.157 v 0 -14.907 0 h 25.3125 v 96.563 q 0,24.187 -12,35.625 -11.9063,11.531 -37.2188,11.531 -20.8125,0 -33.0937,-8.156 -12.2813,-8.063 -13.125,-22.406 v 0 h 29.25 v 0 q 0.375,5.25 4.7812,7.593 4.5,2.438 13.7813,2.438 z m -0.8438,-102.656 q -10.5,0 -16.4062,8.062 -5.9063,7.969 -5.9063,22.219 0,13.969 5.9063,21.844 5.9062,7.781 16.3125,7.781 10.5937,0 16.5,-7.969 6,-7.969 6,-22.031 0,-14.063 -6,-21.938 -5.9063,-7.968 -16.4063,-7.968 z"
         style="font-style:normal;font-weight:bold;font-size:192px;font-family:Helvetica;text-anchor:middle;fill:#000000"
         id="path1041"
         inkscape:connector-curvature="0" />
      <path
         d="m 4399.9082,10934.237 v -137.812 0 h 13.4063 13.5 v 0 137.812 0 h -13.4063 z"
         style="font-style:normal;font-weight:bold;font-size:192px;font-family:Helvetica;text-anchor:middle;fill:#000000"
         id="path1047"
         inkscape:connector-curvature="0" />
      <path
         d="m 4492.8145,10936.862 q -23.25,0 -35.9063,-14.343 -12.5625,-14.344 -12.5625,-40.875 0,-24.469 12.8438,-38.25 12.8437,-13.875 35.625,-13.875 23.3437,0 35.9062,14.156 12.6563,14.062 12.6563,40.125 0.1875,3 -0.4688,6.094 v 0 h -69.4687 v 0 q 0.9375,12.093 5.3437,18.093 5.625,7.5 18.75,7.5 6.0938,0 11.25,-3.468 5.25,-3.469 6.2813,-8.344 v 0 h 27.375 v 0 q -3.4688,15.562 -16.125,24.375 -12.5625,8.812 -31.5,8.812 z m 20.5312,-64.125 v 0 q -0.9375,-9.187 -4.875,-14.343 -5.1562,-6.844 -16.0312,-6.844 -10.4063,0 -15.8438,7.969 -3.375,5.062 -4.875,13.218 v 0 z"
         style="font-style:normal;font-weight:bold;font-size:192px;font-family:Helvetica;text-anchor:middle;fill:#000000"
         id="path1049"
         inkscape:connector-curvature="0" />
    </g>
    <g
       transform="translate(1209.4058,-2105.8533)"
       aria-label="nat"
       style="font-style:normal;font-weight:bold;font-size:192px;font-family:Helvetica;text-anchor:middle;fill:#000000"
       id="text193">
      <path
         d="m 5022.8403,11217.203 v -102 0 h 12.75 12.8438 v 0 15.094 0 0 q 1.5937,-2.719 3.4687,-5.156 9.9375,-12.657 28.875,-12.657 16.125,0 25.2188,9.563 9.1875,9.562 9.1875,26.531 v 68.625 0 h -13.4063 -13.5 v 0 -63.75 q 0,-9.469 -4.125,-13.969 -4.0312,-4.593 -12.4687,-4.593 -10.5938,0 -16.3125,6.375 -5.625,6.375 -5.625,18.375 v 0 57.562 0 h -13.4063 z"
         style="font-style:normal;font-weight:bold;font-size:192px;font-family:Helvetica;text-anchor:middle;fill:#000000"
         id="path1086"
         inkscape:connector-curvature="0" />
      <path
         d="m 5164.6841,11219.828 q -14.1563,0 -22.7813,-8.062 -8.625,-8.157 -8.625,-21.375 0,-13.969 7.7813,-22.313 7.7812,-8.437 22.6875,-10.594 l 17.7187,-2.437 q 6.9375,-0.938 11.5313,-3.188 1.9687,-0.937 3,-3.375 1.125,-2.437 0.8437,-4.968 -0.5625,-4.313 -4.4062,-6.75 -4.5938,-2.907 -13.2188,-2.907 -7.6875,0 -12,3.75 -4.3125,3.75 -4.5937,10.594 v 0 h -25.7813 v 0 q 0.8438,-17.906 12.1875,-26.812 11.3438,-8.907 33.2813,-8.907 19.0312,0 30,8.063 11.0625,7.969 11.0625,21.844 v 57 q 0,6.843 1.125,9.656 1.125,2.719 4.5,4.312 v 0.09 3.656 h -14.5313 -14.5312 v 0 q -1.7813,-6.187 -2.3438,-12.093 l -0.094,-0.188 q -12.6563,15 -32.8125,15 z m 32.3437,-40.312 v -11.719 0 q -4.6875,2.625 -12.375,4.219 l -9.9375,1.875 q -7.0312,1.312 -10.6875,4.875 -3.6562,3.468 -3.6562,8.812 0,6.094 3.2812,9.563 3.2813,3.468 9.1875,3.468 12.9375,0 20.625,-9.093 1.5,-1.782 2.5313,-5.25 1.0312,-3.469 1.0312,-6.75 z"
         style="font-style:normal;font-weight:bold;font-size:192px;font-family:Helvetica;text-anchor:middle;fill:#000000"
         id="path1088"
         inkscape:connector-curvature="0" />
      <path
         d="m 5293.9653,11217.766 q -6.75,0.562 -16.5937,0.562 -14.25,0 -20.5313,-5.062 -6.1875,-5.157 -6.1875,-16.782 v -62.437 0 h -14.1562 v -18.844 h 14.1562 v 0 -27.469 h 26.9063 v 27.469 0 h 16.4062 v 18.844 h -16.4062 v 0 57.937 q 0,3.563 2.0625,4.688 2.1562,1.125 8.8125,1.125 h 5.5312 z"
         style="font-style:normal;font-weight:bold;font-size:192px;font-family:Helvetica;text-anchor:middle;fill:#000000"
         id="path1090"
         inkscape:connector-curvature="0" />
    </g>
  </g>
</svg>
