<?xml version="1.0" encoding="UTF-8" standalone="no"?>
<svg
   width="737.83"
   height="433.14"
   viewBox="0 0 195.22 114.6"
   version="1.1"
   id="svg7743"
   sodipodi:docname="isns_a-2.svg"
   inkscape:version="1.2.1 (9c6d41e410, 2022-07-14)"
   xmlns:inkscape="http://www.inkscape.org/namespaces/inkscape"
   xmlns:sodipodi="http://sodipodi.sourceforge.net/DTD/sodipodi-0.dtd"
   xmlns="http://www.w3.org/2000/svg"
   xmlns:svg="http://www.w3.org/2000/svg">
  <sodipodi:namedview
     id="namedview7909"
     pagecolor="#ffffff"
     bordercolor="#000000"
     borderopacity="0.25"
     inkscape:showpageshadow="2"
     inkscape:pageopacity="0.0"
     inkscape:pagecheckerboard="0"
     inkscape:deskcolor="#d1d1d1"
     showgrid="false"
     inkscape:zoom="1.8792999"
     inkscape:cx="368.75434"
     inkscape:cy="216.57001"
     inkscape:window-width="1920"
     inkscape:window-height="1017"
     inkscape:window-x="-8"
     inkscape:window-y="-8"
     inkscape:window-maximized="1"
     inkscape:current-layer="text914" />
  <defs
     id="defs7737">
    <marker
       id="DotL"
       refX="0"
       refY="0"
       orient="auto"
       overflow="visible">
      <path
         d="M3.92 0a4 4 0 1 1-8 0 4 4 0 0 1 8 0z"
         id="path965"
         fill="#0c322c"
         fill-opacity="1"
         fill-rule="evenodd"
         stroke="#0c322c"
         stroke-width=".8pt"
         stroke-opacity="1" />
    </marker>
    <marker
       markerWidth="7.12"
       markerHeight="11.41"
       refX="3.56"
       refY="5.71"
       orient="auto"
       id="marker840">
      <path
         d="m.7.7 5 5-5 5"
         id="path838"
         fill="none"
         stroke="#0c322c"
         stroke-width="2"
         stroke-linecap="butt"
         stroke-linejoin="miter"
         stroke-miterlimit="4"
         stroke-dasharray="none"
         stroke-opacity="1" />
    </marker>
    <marker
       markerWidth="3.06"
       markerHeight="4.71"
       refX="1.53"
       refY="2.35"
       orient="auto"
       id="marker868">
      <path
         d="m2.7.35-2 2 2 2"
         id="path851-3"
         fill="none"
         stroke="#000"
         stroke-width="1"
         stroke-linecap="butt"
         stroke-linejoin="miter"
         stroke-opacity="1" />
    </marker>
    <marker
       markerWidth="3.06"
       markerHeight="4.71"
       refX="1.53"
       refY="2.35"
       orient="auto"
       id="marker883">
      <path
         d="m.35.35 2 2-2 2"
         id="path851"
         fill="none"
         stroke="#000"
         stroke-width="1"
         stroke-linecap="butt"
         stroke-linejoin="miter"
         stroke-opacity="1" />
    </marker>
    <marker
       markerWidth="3.06"
       markerHeight="4.71"
       refX="1.53"
       refY="2.35"
       orient="auto"
       id="marker8684506">
      <path
         d="m2.7.35-2 2 2 2"
         id="path1208"
         fill="#0c322c"
         stroke="#000"
         stroke-width="1"
         stroke-linecap="butt"
         stroke-linejoin="miter"
         stroke-opacity="1" />
    </marker>
    <marker
       markerWidth="3.06"
       markerHeight="4.71"
       refX="1.53"
       refY="2.35"
       orient="auto"
       id="marker8839976">
      <path
         d="m.35.35 2 2-2 2"
         id="path1211"
         fill="#0c322c"
         stroke="#000"
         stroke-width="1"
         stroke-linecap="butt"
         stroke-linejoin="miter"
         stroke-opacity="1" />
    </marker>
    <marker
       markerWidth="3.06"
       markerHeight="4.71"
       refX="1.53"
       refY="2.35"
       orient="auto"
       id="marker86845062245">
      <path
         d="m2.7.35-2 2 2 2"
         id="path1299"
         fill="#fff"
         stroke="#000"
         stroke-width="1"
         stroke-linecap="butt"
         stroke-linejoin="miter"
         stroke-opacity="1" />
    </marker>
    <marker
       markerWidth="3.06"
       markerHeight="4.71"
       refX="1.53"
       refY="2.35"
       orient="auto"
       id="marker88399767239">
      <path
         d="m.35.35 2 2-2 2"
         id="path1302"
         fill="#fff"
         stroke="#000"
         stroke-width="1"
         stroke-linecap="butt"
         stroke-linejoin="miter"
         stroke-opacity="1" />
    </marker>
    <marker
       markerWidth="3.06"
       markerHeight="4.71"
       refX="1.53"
       refY="2.35"
       orient="auto"
       id="marker868450622454738">
      <path
         d="m2.7.35-2 2 2 2"
         id="path1414"
         fill="#fff"
         stroke="#0c322c"
         stroke-width="1"
         stroke-linecap="butt"
         stroke-linejoin="miter"
         stroke-opacity="1" />
    </marker>
    <marker
       markerWidth="3.06"
       markerHeight="4.71"
       refX="1.53"
       refY="2.35"
       orient="auto"
       id="marker883997672393450">
      <path
         d="m.35.35 2 2-2 2"
         id="path1417"
         fill="#fff"
         stroke="#0c322c"
         stroke-width="1"
         stroke-linecap="butt"
         stroke-linejoin="miter"
         stroke-opacity="1" />
    </marker>
    <marker
       markerWidth="3.06"
       markerHeight="4.71"
       refX="1.53"
       refY="2.35"
       orient="auto"
       id="marker8684112">
      <path
         d="m2.7.35-2 2 2 2"
         id="path2096"
         fill="#fff"
         fill-opacity="0"
         stroke="#0c322c"
         stroke-width="1"
         stroke-linecap="butt"
         stroke-linejoin="miter"
         stroke-opacity="1" />
    </marker>
    <marker
       markerWidth="3.06"
       markerHeight="4.71"
       refX="1.53"
       refY="2.35"
       orient="auto"
       id="marker8834579">
      <path
         d="m.35.35 2 2-2 2"
         id="path2099"
         fill="#fff"
         fill-opacity="0"
         stroke="#0c322c"
         stroke-width="1"
         stroke-linecap="butt"
         stroke-linejoin="miter"
         stroke-opacity="1" />
    </marker>
    <marker
       markerWidth="3.06"
       markerHeight="4.71"
       refX="1.53"
       refY="2.35"
       orient="auto"
       id="marker8836481">
      <path
         d="m.35.35 2 2-2 2"
         id="path2261"
         fill="#fff"
         fill-opacity="0"
         stroke="#0c322c"
         stroke-width="1"
         stroke-linecap="butt"
         stroke-linejoin="miter"
         stroke-opacity="1" />
    </marker>
    <marker
       markerWidth="3.06"
       markerHeight="4.71"
       refX="1.53"
       refY="2.35"
       orient="auto"
       id="marker8836481-7">
      <path
         d="m.35.35 2 2-2 2"
         id="path2261-5"
         fill="#fff"
         fill-opacity="0"
         stroke="#0c322c"
         stroke-width="1"
         stroke-linecap="butt"
         stroke-linejoin="miter"
         stroke-opacity="1" />
    </marker>
    <marker
       markerWidth="3.06"
       markerHeight="4.71"
       refX="1.53"
       refY="2.35"
       orient="auto"
       id="marker8831574">
      <path
         d="m.35.35 2 2-2 2"
         id="path1828"
         fill="none"
         stroke="#fe7c3f"
         stroke-width="1"
         stroke-linecap="butt"
         stroke-linejoin="miter"
         stroke-opacity="1" />
    </marker>
    <marker
       markerWidth="3.06"
       markerHeight="4.71"
       refX="1.53"
       refY="2.35"
       orient="auto"
       id="marker8839258">
      <path
         d="m.35.35 2 2-2 2"
         id="path1831"
         fill="none"
         stroke="#fe7c3f"
         stroke-width="1"
         stroke-linecap="butt"
         stroke-linejoin="miter"
         stroke-opacity="1" />
    </marker>
    <marker
       markerWidth="3.06"
       markerHeight="4.71"
       refX="1.53"
       refY="2.35"
       orient="auto"
       id="marker8836999">
      <path
         d="m.35.35 2 2-2 2"
         id="path1834"
         fill="none"
         stroke="#fe7c3f"
         stroke-width="1"
         stroke-linecap="butt"
         stroke-linejoin="miter"
         stroke-opacity="1" />
    </marker>
    <marker
       markerWidth="3.06"
       markerHeight="4.71"
       refX="1.53"
       refY="2.35"
       orient="auto"
       id="marker8836252">
      <path
         d="m.35.35 2 2-2 2"
         id="path2077"
         fill="none"
         stroke="#30ba78"
         stroke-width="1"
         stroke-linecap="butt"
         stroke-linejoin="miter"
         stroke-opacity="1" />
    </marker>
    <marker
       markerWidth="3.06"
       markerHeight="4.71"
       refX="1.53"
       refY="2.35"
       orient="auto"
       id="marker8838541">
      <path
         d="m.35.35 2 2-2 2"
         id="path2080"
         fill="none"
         stroke="#30ba78"
         stroke-width="1"
         stroke-linecap="butt"
         stroke-linejoin="miter"
         stroke-opacity="1" />
    </marker>
    <marker
       markerWidth="3.06"
       markerHeight="4.71"
       refX="1.53"
       refY="2.35"
       orient="auto"
       id="marker883688">
      <path
         d="m.35.35 2 2-2 2"
         id="path2083"
         fill="none"
         stroke="#30ba78"
         stroke-width="1"
         stroke-linecap="butt"
         stroke-linejoin="miter"
         stroke-opacity="1" />
    </marker>
    <marker
       markerWidth="3.06"
       markerHeight="4.71"
       refX="1.53"
       refY="2.35"
       orient="auto"
       id="marker8839906">
      <path
         d="m.35.35 2 2-2 2"
         id="path2086"
         fill="none"
         stroke="#30ba78"
         stroke-width="1"
         stroke-linecap="butt"
         stroke-linejoin="miter"
         stroke-opacity="1" />
    </marker>
    <marker
       markerWidth="3.06"
       markerHeight="4.71"
       refX="1.53"
       refY="2.35"
       orient="auto"
       id="marker8835795">
      <path
         d="m.35.35 2 2-2 2"
         id="path2089"
         fill="none"
         stroke="#30ba78"
         stroke-width="1"
         stroke-linecap="butt"
         stroke-linejoin="miter"
         stroke-opacity="1" />
    </marker>
    <marker
       markerWidth="3.06"
       markerHeight="4.71"
       refX="1.53"
       refY="2.35"
       orient="auto"
       id="marker8831574-0">
      <path
         d="m.35.35 2 2-2 2"
         id="path1828-2"
         fill="none"
         stroke="#fe7c3f"
         stroke-width="1"
         stroke-linecap="butt"
         stroke-linejoin="miter"
         stroke-opacity="1" />
    </marker>
  </defs>
  <g
     id="layer1"
     transform="translate(-8.5 -27.8)">
    <g
       id="g1600"
       transform="translate(97.5 72.98) scale(.48106)"
       fill="#0c322c">
      <g
         id="g7898"
         transform="translate(-306.68 76.85) scale(2.52695)">
        <g
           id="g7960"
           transform="translate(0 -21.48)"
           stroke-width=".65"
           stroke-miterlimit="4"
           stroke-dasharray="none">
          <rect
             id="rect2335"
             width="16.5"
             height="16.5"
             x="50.32"
             y="27.11"
             fill="#fff"
             fill-opacity="1"
             stroke="none"
             stroke-width=".65"
             stroke-linecap="square"
             stroke-miterlimit="4"
             stroke-dasharray="none"
             paint-order="fill markers stroke"
             stop-color="#000" />
          <path
             d="M50.87 27.66v15.95Z"
             id="path939"
             fill="#fff"
             fill-opacity="1"
             stroke="#2453ff"
             stroke-width=".65"
             stroke-linecap="round"
             stroke-linejoin="round"
             stroke-miterlimit="4"
             stroke-dasharray="none"
             stroke-opacity="1" />
          <path
             d="m66.27 27.11-.02 16.5Z"
             id="path937"
             fill="#2453ff"
             fill-opacity="1"
             stroke="#2453ff"
             stroke-width=".65"
             stroke-linecap="round"
             stroke-linejoin="round"
             stroke-miterlimit="4"
             stroke-dasharray="none"
             stroke-opacity="1" />
          <path
             d="M58.57 24.91c-4.25 0-7.7 1.1-7.7 2.48 0 1.36 3.45 2.47 7.7 2.47s7.7-1.1 7.7-2.47-3.45-2.48-7.7-2.48z"
             id="path2144"
             fill="#fff"
             fill-opacity="1"
             stroke="#2453ff"
             stroke-width=".65"
             stroke-linecap="round"
             stroke-linejoin="miter"
             stroke-miterlimit="4"
             stroke-dasharray="none"
             stroke-opacity="1" />
          <path
             d="M50.87 43.61c3.3 2.75 11.55 2.75 15.4 0"
             id="path2153"
             fill="#fff"
             fill-opacity="1"
             stroke="#2453ff"
             stroke-width=".65"
             stroke-linecap="round"
             stroke-linejoin="miter"
             stroke-miterlimit="4"
             stroke-dasharray="none"
             stroke-opacity="1" />
        </g>
        <g
           id="g7946"
           transform="translate(16.17 -20.2)"
           stroke-width=".65"
           stroke-miterlimit="4"
           stroke-dasharray="none">
          <g
             id="g7953"
             transform="translate(-38.15 -5.64)"
             stroke-width=".65"
             stroke-miterlimit="4"
             stroke-dasharray="none">
            <rect
               id="rect2335-2"
               width="16.5"
               height="16.5"
               x="117.79"
               y="31.46"
               fill="#fff"
               fill-opacity="1"
               stroke="none"
               stroke-width=".65"
               stroke-linecap="square"
               stroke-miterlimit="4"
               stroke-dasharray="none"
               paint-order="fill markers stroke"
               stop-color="#000" />
            <path
               d="M118.34 32.01v15.95Z"
               id="path939-0"
               fill="#fff"
               fill-opacity="1"
               stroke="#2453ff"
               stroke-width=".65"
               stroke-linecap="round"
               stroke-linejoin="round"
               stroke-miterlimit="4"
               stroke-dasharray="none"
               stroke-opacity="1" />
            <path
               d="m133.74 31.46-.02 16.5z"
               id="path937-6"
               fill="#2453ff"
               fill-opacity="1"
               stroke="#2453ff"
               stroke-width=".65"
               stroke-linecap="round"
               stroke-linejoin="round"
               stroke-miterlimit="4"
               stroke-dasharray="none"
               stroke-opacity="1" />
            <path
               d="M126.04 29.26c-4.25 0-7.7 1.11-7.7 2.48 0 1.36 3.45 2.47 7.7 2.47 4.26 0 7.7-1.1 7.7-2.47s-3.44-2.48-7.7-2.48z"
               id="path2144-1"
               fill="#fff"
               fill-opacity="1"
               stroke="#2453ff"
               stroke-width=".65"
               stroke-linecap="round"
               stroke-linejoin="miter"
               stroke-miterlimit="4"
               stroke-dasharray="none"
               stroke-opacity="1" />
            <path
               d="M118.34 47.96c3.3 2.75 11.55 2.75 15.4 0"
               id="path2153-5"
               fill="#fff"
               fill-opacity="1"
               stroke="#2453ff"
               stroke-width=".65"
               stroke-linecap="round"
               stroke-linejoin="miter"
               stroke-miterlimit="4"
               stroke-dasharray="none"
               stroke-opacity="1" />
          </g>
        </g>
        <g
           id="g7967"
           transform="translate(-18.6 -28.01)"
           stroke-width=".65"
           stroke-miterlimit="4"
           stroke-dasharray="none">
          <rect
             id="rect2335-5"
             width="16.5"
             height="16.5"
             x="137.38"
             y="33.64"
             fill="#fff"
             fill-opacity="1"
             stroke="none"
             stroke-width=".65"
             stroke-linecap="square"
             stroke-miterlimit="4"
             stroke-dasharray="none"
             paint-order="fill markers stroke"
             stop-color="#000" />
          <path
             d="M137.93 34.19v15.95Z"
             id="path939-4"
             fill="#fff"
             fill-opacity="1"
             stroke="#2453ff"
             stroke-width=".65"
             stroke-linecap="round"
             stroke-linejoin="round"
             stroke-miterlimit="4"
             stroke-dasharray="none"
             stroke-opacity="1" />
          <path
             d="m153.33 33.64-.02 16.5z"
             id="path937-7"
             fill="#2453ff"
             fill-opacity="1"
             stroke="#2453ff"
             stroke-width=".65"
             stroke-linecap="round"
             stroke-linejoin="round"
             stroke-miterlimit="4"
             stroke-dasharray="none"
             stroke-opacity="1" />
          <path
             d="M145.63 31.44c-4.25 0-7.7 1.1-7.7 2.47s3.45 2.48 7.7 2.48 7.7-1.1 7.7-2.48c0-1.36-3.45-2.47-7.7-2.47z"
             id="path2144-6"
             fill="#fff"
             fill-opacity="1"
             stroke="#2453ff"
             stroke-width=".65"
             stroke-linecap="round"
             stroke-linejoin="miter"
             stroke-miterlimit="4"
             stroke-dasharray="none"
             stroke-opacity="1" />
          <path
             d="M137.93 50.14c3.3 2.75 11.55 2.75 15.4 0"
             id="path2153-56"
             fill="#fff"
             fill-opacity="1"
             stroke="#2453ff"
             stroke-width=".65"
             stroke-linecap="round"
             stroke-linejoin="miter"
             stroke-miterlimit="4"
             stroke-dasharray="none"
             stroke-opacity="1" />
        </g>
        <rect
           id="rect7969"
           width="21.77"
           height="15.24"
           x="69.34"
           y="6.19"
           opacity="1"
           fill="none"
           stroke="#bfcbfb"
           stroke-width=".65"
           stroke-linecap="square"
           stroke-miterlimit="4"
           stroke-dasharray="none"
           stroke-opacity="1"
           paint-order="stroke fill markers"
           stop-color="#000" />
        <rect
           id="rect7969-9"
           width="21.77"
           height="15.24"
           x="139.1"
           y="6.19"
           opacity="1"
           fill="none"
           stroke="#bfcbfb"
           stroke-width=".65"
           stroke-linecap="square"
           stroke-miterlimit="4"
           stroke-dasharray="none"
           stroke-opacity="1"
           paint-order="stroke fill markers"
           stop-color="#000" />
        <path
           d="M182.29-64.33h23.94v13.06c-13.06 0-13.06 8.7-23.94 6.53v-19.59"
           id="path862"
           fill="#fff"
           stroke="#bb5318"
           stroke-width=".65"
           stroke-linecap="square"
           stroke-linejoin="miter"
           stroke-miterlimit="4"
           stroke-dasharray="none"
           stroke-opacity="1" />
        <path
           d="M180.11-62.15h23.94v13.06c-13.05 0-13.05 8.7-23.94 6.53v-19.6"
           id="path862-3"
           fill="#fff"
           stroke="#e6644b"
           stroke-width=".65"
           stroke-linecap="square"
           stroke-linejoin="miter"
           stroke-miterlimit="4"
           stroke-dasharray="none"
           stroke-opacity="1" />
        <path
           d="M177.94-59.98h23.94v13.06c-13.06 0-13.06 8.7-23.94 6.53v-19.59"
           id="path862-6"
           fill="#fff"
           stroke="#fe7c3f"
           stroke-width=".65"
           stroke-linecap="square"
           stroke-linejoin="miter"
           stroke-miterlimit="4"
           stroke-dasharray="none"
           stroke-opacity="1" />
        <path
           d="M102.1-64.33h23.94v13.06c-13.06 0-13.06 8.7-23.94 6.53v-19.59"
           id="path862-7"
           fill="#fff"
           stroke="#257912"
           stroke-width=".65"
           stroke-linecap="square"
           stroke-linejoin="miter"
           stroke-miterlimit="4"
           stroke-dasharray="none"
           stroke-opacity="1" />
        <path
           d="M99.92-62.15h23.95v13.06c-13.06 0-13.06 8.7-23.95 6.53v-19.6"
           id="path862-7-5"
           fill="#fff"
           stroke="#30ba78"
           stroke-width=".65"
           stroke-linecap="square"
           stroke-linejoin="miter"
           stroke-miterlimit="4"
           stroke-dasharray="none"
           stroke-opacity="1" />
        <path
           d="M97.75-59.97h23.94v13.05c-13.06 0-13.06 8.71-23.94 6.53v-19.58"
           id="path862-7-3"
           fill="#fff"
           stroke="#c7f1e3"
           stroke-width=".65"
           stroke-linecap="square"
           stroke-linejoin="miter"
           stroke-miterlimit="4"
           stroke-dasharray="none"
           stroke-opacity="1" />
        <g
           aria-label="目标"
           id="text953"
           style="font-size:2.61px;line-height:1.25;font-family:Poppins;-inkscape-font-specification:'Poppins, Normal';letter-spacing:0;stroke-width:0.22">
          <path
             d="m 56.571998,14.2773 v -0.42804 h 1.36503 v 0.42804 z m 1.36503,-1.04139 v 0.42804 h -1.36503 v -0.42804 z m 0,-0.60813 v 0.42282 h -1.36503 v -0.42282 z m -1.55556,-0.18792 v 2.20545 h 0.19053 v -0.17748 h 1.36503 v 0.17748 h 0.20097 v -2.20545 z"
             style="font-family:'Noto Sans CJK SC';-inkscape-font-specification:'Noto Sans CJK SC'"
             id="path8316" />
          <path
             d="m 60.915038,12.4764 h -1.13013 v 0.1827 h 1.13013 z m -1.26846,1.044 c -0.04959,-0.06786 -0.27144,-0.34974 -0.34974,-0.4437 v -0.06786 h 0.33669 v -0.1827 h -0.33669 v -0.5481 h -0.19314 v 0.5481 h -0.39411 v 0.1827 h 0.35235 c -0.08352,0.32364 -0.25317,0.69426 -0.4176,0.89001 0.03393,0.04698 0.08613,0.12528 0.10962,0.18009 0.1305,-0.16443 0.25578,-0.43587 0.34974,-0.71514 v 1.29456 h 0.19314 v -1.3572 c 0.08613,0.12789 0.19314,0.28971 0.2349,0.37323 z m 0.20619,0.04698 c -0.06786,0.27666 -0.18531,0.55593 -0.32886,0.73863 0.04437,0.02088 0.12006,0.07569 0.15399,0.10179 0.14094,-0.19836 0.27144,-0.50112 0.35235,-0.80127 z m 1.2006,-0.28971 v -0.1827 h -1.38069 v 0.1827 h 0.55593 v 1.13274 c 0,0.03393 -0.01044,0.04176 -0.04959,0.04437 -0.03393,0.0026 -0.15399,0.0026 -0.28971,-0.0026 0.02349,0.05742 0.0522,0.14094 0.06003,0.19836 0.1827,0 0.30276,-0.0026 0.37584,-0.03915 0.07569,-0.03132 0.09657,-0.08874 0.09657,-0.19836 v -1.13535 z m -0.45414,0.33408 c 0.12267,0.25578 0.24273,0.59508 0.27927,0.79866 l 0.18009,-0.06264 c -0.04437,-0.20619 -0.17226,-0.53505 -0.29754,-0.78561 z"
             style="font-family:'Noto Sans CJK SC';-inkscape-font-specification:'Noto Sans CJK SC'"
             id="path8318" />
        </g>
        <g
           aria-label="发起端"
           id="text957"
           style="font-size:2.61px;line-height:1.25;font-family:Poppins;-inkscape-font-specification:'Poppins, Normal';letter-spacing:0;stroke-width:0.22">
          <path
             d="m 78.655312,13.12259 c -0.07308,-0.09396 -0.22446,-0.25578 -0.33669,-0.37062 l -0.14877,0.09396 c 0.11223,0.12006 0.25839,0.28449 0.32886,0.38367 z m -0.30537,0.8352 c -0.09396,0.21141 -0.23229,0.3915 -0.39933,0.53766 -0.17748,-0.14877 -0.31842,-0.33147 -0.4176,-0.53766 z m 0.1305,-0.19836 -0.03654,0.01044 h -0.87435 c 0.03132,-0.08874 0.06264,-0.1827 0.09135,-0.27666 h 1.1745 l 0.0026,-0.18792 h -1.12491 c 0.04176,-0.17748 0.07569,-0.3654 0.1044,-0.56637 l -0.21663,-0.03132 c -0.02349,0.21141 -0.06003,0.40977 -0.10962,0.59769 h -0.4698 c 0.06786,-0.13572 0.14355,-0.31059 0.18792,-0.47763 l -0.20358,-0.03915 c -0.04698,0.19836 -0.14355,0.40977 -0.17487,0.46197 -0.02871,0.05742 -0.05742,0.09396 -0.09396,0.1044 0.02088,0.04437 0.0522,0.14094 0.06525,0.1827 0.02349,-0.02871 0.11223,-0.04437 0.27666,-0.04437 h 0.36279 c -0.17226,0.54027 -0.45936,0.9657 -0.93438,1.25541 0.04698,0.03393 0.11484,0.1044 0.14355,0.14877 0.33669,-0.2088 0.58203,-0.47502 0.76212,-0.79605 0.1044,0.19575 0.2349,0.3654 0.38889,0.50895 -0.22185,0.1566 -0.48285,0.26622 -0.75168,0.32886 0.03393,0.04176 0.08091,0.11745 0.10179,0.16704 0.28971,-0.0783 0.56376,-0.19836 0.80388,-0.37062 0.23229,0.17487 0.51678,0.30015 0.84825,0.37323 0.0261,-0.05481 0.0783,-0.13311 0.12006,-0.17226 -0.31842,-0.06003 -0.59247,-0.16965 -0.81954,-0.32364 0.22446,-0.20097 0.39933,-0.45936 0.50634,-0.78822 z"
             style="font-family:'Noto Sans CJK SC';-inkscape-font-specification:'Noto Sans CJK SC'"
             id="path8309" />
          <path
             d="m 81.158302,13.55585 h -0.71775 v 0.74124 c 0,0.21402 0.07308,0.26883 0.31059,0.26883 h 0.43587 c 0.21663,0 0.271439,-0.09396 0.297539,-0.46458 -0.05481,-0.01044 -0.133109,-0.04176 -0.174869,-0.07569 -0.01044,0.31581 -0.02871,0.36279 -0.13833,0.36279 h -0.40194 c -0.12006,0 -0.14094,-0.01305 -0.14094,-0.09135 v -0.56898 h 0.71775 v -0.8874 h -0.93177 v 0.17487 h 0.74385 z m -1.27107,0.68904 h 0.42021 v -0.17226 h -0.42021 v -0.38628 h 0.44631 v -0.17487 h -0.48807 v -0.32886 h 0.42021 v -0.17226 h -0.42021 v -0.28971 h -0.18531 v 0.28971 h -0.43326 v 0.17226 h 0.43326 v 0.32886 h -0.49851 v 0.17487 h 0.54549 v 0.98658 c -0.10962,-0.08874 -0.19053,-0.21924 -0.24795,-0.40716 0.0078,-0.11484 0.01305,-0.23751 0.01566,-0.36279 l -0.1827,-0.01305 c -0.0078,0.46197 -0.03654,0.87696 -0.18792,1.13796 0.04437,0.02088 0.12789,0.07047 0.16182,0.09396 0.0783,-0.14616 0.12528,-0.32364 0.1566,-0.52983 0.19053,0.35235 0.50112,0.44109 1.05183,0.44109 h 0.994409 c 0.01305,-0.05742 0.04959,-0.14616 0.0783,-0.19314 -0.156599,0.0078 -0.950039,0.0078 -1.075319,0.0052 -0.24273,0 -0.43326,-0.01827 -0.58464,-0.07308 z"
             style="font-family:'Noto Sans CJK SC';-inkscape-font-specification:'Noto Sans CJK SC'"
             id="path8311" />
          <path
             d="m 84.034521,12.84593 h -0.18531 v 0.44631 h -0.39411 v -0.57159 h -0.18531 v 0.57159 h -0.36018 v -0.44631 h -0.18009 v 0.61857 h 1.305 z m -1.65735,0.27405 c -0.03393,-0.10179 -0.10962,-0.25839 -0.1827,-0.37584 l -0.16182,0.0522 c 0.06525,0.12006 0.14094,0.28188 0.17226,0.38628 z m 0.26883,0.08352 h -0.86913 v 0.18009 h 0.86913 z m -0.51939,1.23714 c -0.01044,-0.25839 -0.06003,-0.63423 -0.12006,-0.93177 l -0.14877,0.0261 c 0.05481,0.29493 0.1044,0.67599 0.11223,0.93177 z m 0.26622,0.06264 c 0.06264,-0.27666 0.12789,-0.67599 0.17226,-0.98658 l -0.16965,-0.03132 c -0.02871,0.31581 -0.09135,0.77517 -0.15399,1.05444 -0.18531,0.04176 -0.35235,0.08352 -0.48285,0.11223 l 0.04176,0.18792 c 0.24534,-0.05742 0.56115,-0.14094 0.86391,-0.21924 l -0.02088,-0.18009 z m 1.72782,-0.67599 v -0.17226 h -1.50336 v 0.17226 h 0.63423 c -0.01566,0.0783 -0.03132,0.16443 -0.04698,0.23751 h -0.50373 v 1.03356 h 0.17487 v -0.86652 h 0.22968 v 0.84303 h 0.15399 v -0.84303 h 0.24012 v 0.8352 h 0.15399 v -0.8352 h 0.23751 v 0.68904 c 0,0.02088 -0.0052,0.02871 -0.02871,0.02871 -0.01827,0.0026 -0.08613,0.0026 -0.15921,0 0.02349,0.04437 0.04959,0.10701 0.05742,0.1566 0.11223,0 0.18531,-0.0026 0.23751,-0.03132 0.05481,-0.02871 0.06786,-0.07047 0.06786,-0.15138 V 14.0648 h -0.67077 c 0.0261,-0.07308 0.04959,-0.1566 0.07569,-0.23751 z"
             style="font-family:'Noto Sans CJK SC';-inkscape-font-specification:'Noto Sans CJK SC'"
             id="path8313" />
        </g>
        <g
           aria-label="目标"
           id="text953-1"
           style="font-size:2.61px;line-height:1.25;font-family:Poppins;-inkscape-font-specification:'Poppins, Normal';letter-spacing:0;stroke-width:0.22">
          <path
             d="m 102.27198,14.2773 v -0.42804 h 1.36503 v 0.42804 z m 1.36503,-1.04139 v 0.42804 h -1.36503 v -0.42804 z m 0,-0.60813 v 0.42282 h -1.36503 v -0.42282 z m -1.55556,-0.18792 v 2.20545 h 0.19053 v -0.17748 h 1.36503 v 0.17748 h 0.20097 v -2.20545 z"
             style="font-family:'Noto Sans CJK SC';-inkscape-font-specification:'Noto Sans CJK SC'"
             id="path8304" />
          <path
             d="m 106.61502,12.4764 h -1.13013 v 0.1827 h 1.13013 z m -1.26846,1.044 c -0.0496,-0.06786 -0.27144,-0.34974 -0.34974,-0.4437 v -0.06786 h 0.33669 v -0.1827 h -0.33669 v -0.5481 h -0.19314 v 0.5481 h -0.39411 v 0.1827 h 0.35235 c -0.0835,0.32364 -0.25317,0.69426 -0.4176,0.89001 0.0339,0.04698 0.0861,0.12528 0.10962,0.18009 0.1305,-0.16443 0.25578,-0.43587 0.34974,-0.71514 v 1.29456 h 0.19314 v -1.3572 c 0.0861,0.12789 0.19314,0.28971 0.2349,0.37323 z m 0.20619,0.04698 c -0.0679,0.27666 -0.18531,0.55593 -0.32886,0.73863 0.0444,0.02088 0.12006,0.07569 0.15399,0.10179 0.14094,-0.19836 0.27144,-0.50112 0.35235,-0.80127 z m 1.2006,-0.28971 v -0.1827 h -1.38069 v 0.1827 h 0.55593 v 1.13274 c 0,0.03393 -0.0104,0.04176 -0.0496,0.04437 -0.0339,0.0026 -0.15399,0.0026 -0.28971,-0.0026 0.0235,0.05742 0.0522,0.14094 0.06,0.19836 0.1827,0 0.30276,-0.0026 0.37584,-0.03915 0.0757,-0.03132 0.0966,-0.08874 0.0966,-0.19836 v -1.13535 z m -0.45414,0.33408 c 0.12267,0.25578 0.24273,0.59508 0.27927,0.79866 l 0.18009,-0.06264 c -0.0444,-0.20619 -0.17226,-0.53505 -0.29754,-0.78561 z"
             style="font-family:'Noto Sans CJK SC';-inkscape-font-specification:'Noto Sans CJK SC'"
             id="path8306" />
        </g>
        <g
           aria-label="目标"
           id="text953-7"
           style="font-size:2.61px;line-height:1.25;font-family:Poppins;-inkscape-font-specification:'Poppins, Normal';letter-spacing:0;stroke-width:0.22">
          <path
             d="m 124.91198,14.2773 v -0.42804 h 1.36503 v 0.42804 z m 1.36503,-1.04139 v 0.42804 h -1.36503 v -0.42804 z m 0,-0.60813 v 0.42282 h -1.36503 v -0.42282 z m -1.55556,-0.18792 v 2.20545 h 0.19053 v -0.17748 h 1.36503 v 0.17748 h 0.20097 v -2.20545 z"
             style="font-family:'Noto Sans CJK SC';-inkscape-font-specification:'Noto Sans CJK SC'"
             id="path8292" />
          <path
             d="m 129.25502,12.4764 h -1.13013 v 0.1827 h 1.13013 z m -1.26846,1.044 c -0.0496,-0.06786 -0.27144,-0.34974 -0.34974,-0.4437 v -0.06786 h 0.33669 v -0.1827 h -0.33669 v -0.5481 h -0.19314 v 0.5481 h -0.39411 v 0.1827 h 0.35235 c -0.0835,0.32364 -0.25317,0.69426 -0.4176,0.89001 0.0339,0.04698 0.0861,0.12528 0.10962,0.18009 0.1305,-0.16443 0.25578,-0.43587 0.34974,-0.71514 v 1.29456 h 0.19314 v -1.3572 c 0.0861,0.12789 0.19314,0.28971 0.2349,0.37323 z m 0.20619,0.04698 c -0.0679,0.27666 -0.18531,0.55593 -0.32886,0.73863 0.0444,0.02088 0.12006,0.07569 0.15399,0.10179 0.14094,-0.19836 0.27144,-0.50112 0.35235,-0.80127 z m 1.2006,-0.28971 v -0.1827 h -1.38069 v 0.1827 h 0.55593 v 1.13274 c 0,0.03393 -0.0104,0.04176 -0.0496,0.04437 -0.0339,0.0026 -0.15399,0.0026 -0.28971,-0.0026 0.0235,0.05742 0.0522,0.14094 0.06,0.19836 0.1827,0 0.30276,-0.0026 0.37584,-0.03915 0.0757,-0.03132 0.0966,-0.08874 0.0966,-0.19836 v -1.13535 z m -0.45414,0.33408 c 0.12267,0.25578 0.24273,0.59508 0.27927,0.79866 l 0.18009,-0.06264 c -0.0444,-0.20619 -0.17226,-0.53505 -0.29754,-0.78561 z"
             style="font-family:'Noto Sans CJK SC';-inkscape-font-specification:'Noto Sans CJK SC'"
             id="path8294" />
        </g>
        <g
           aria-label="发起端"
           id="text957-9"
           style="font-size:2.61px;line-height:1.25;font-family:Poppins;-inkscape-font-specification:'Poppins, Normal';letter-spacing:0;stroke-width:0.22">
          <path
             d="m 148.74065,13.12259 c -0.0731,-0.09396 -0.22446,-0.25578 -0.33669,-0.37062 l -0.14877,0.09396 c 0.11223,0.12006 0.25839,0.28449 0.32886,0.38367 z m -0.30537,0.8352 c -0.094,0.21141 -0.23229,0.3915 -0.39933,0.53766 -0.17748,-0.14877 -0.31842,-0.33147 -0.4176,-0.53766 z m 0.1305,-0.19836 -0.0365,0.01044 h -0.87435 c 0.0313,-0.08874 0.0626,-0.1827 0.0914,-0.27666 h 1.1745 l 0.003,-0.18792 h -1.12491 c 0.0418,-0.17748 0.0757,-0.3654 0.1044,-0.56637 l -0.21663,-0.03132 c -0.0235,0.21141 -0.06,0.40977 -0.10962,0.59769 h -0.4698 c 0.0679,-0.13572 0.14355,-0.31059 0.18792,-0.47763 l -0.20358,-0.03915 c -0.047,0.19836 -0.14355,0.40977 -0.17487,0.46197 -0.0287,0.05742 -0.0574,0.09396 -0.094,0.1044 0.0209,0.04437 0.0522,0.14094 0.0652,0.1827 0.0235,-0.02871 0.11223,-0.04437 0.27666,-0.04437 h 0.36279 c -0.17226,0.54027 -0.45936,0.9657 -0.93438,1.25541 0.047,0.03393 0.11484,0.1044 0.14355,0.14877 0.33669,-0.2088 0.58203,-0.47502 0.76212,-0.79605 0.1044,0.19575 0.2349,0.3654 0.38889,0.50895 -0.22185,0.1566 -0.48285,0.26622 -0.75168,0.32886 0.0339,0.04176 0.0809,0.11745 0.10179,0.16704 0.28971,-0.0783 0.56376,-0.19836 0.80388,-0.37062 0.23229,0.17487 0.51678,0.30015 0.84825,0.37323 0.0261,-0.05481 0.0783,-0.13311 0.12006,-0.17226 -0.31842,-0.06003 -0.59247,-0.16965 -0.81954,-0.32364 0.22446,-0.20097 0.39933,-0.45936 0.50634,-0.78822 z"
             style="font-family:'Noto Sans CJK SC';-inkscape-font-specification:'Noto Sans CJK SC'"
             id="path8297" />
          <path
             d="m 151.24364,13.55585 h -0.71775 v 0.74124 c 0,0.21402 0.0731,0.26883 0.31059,0.26883 h 0.43587 c 0.21663,0 0.27144,-0.09396 0.29754,-0.46458 -0.0548,-0.01044 -0.13311,-0.04176 -0.17487,-0.07569 -0.0104,0.31581 -0.0287,0.36279 -0.13833,0.36279 h -0.40194 c -0.12006,0 -0.14094,-0.01305 -0.14094,-0.09135 v -0.56898 h 0.71775 v -0.8874 h -0.93177 v 0.17487 h 0.74385 z m -1.27107,0.68904 h 0.42021 v -0.17226 h -0.42021 v -0.38628 h 0.44631 v -0.17487 h -0.48807 v -0.32886 h 0.42021 v -0.17226 h -0.42021 v -0.28971 h -0.18531 v 0.28971 h -0.43326 v 0.17226 h 0.43326 v 0.32886 h -0.49851 v 0.17487 h 0.54549 v 0.98658 c -0.10962,-0.08874 -0.19053,-0.21924 -0.24795,-0.40716 0.008,-0.11484 0.013,-0.23751 0.0157,-0.36279 l -0.1827,-0.01305 c -0.008,0.46197 -0.0365,0.87696 -0.18792,1.13796 0.0444,0.02088 0.12789,0.07047 0.16182,0.09396 0.0783,-0.14616 0.12528,-0.32364 0.1566,-0.52983 0.19053,0.35235 0.50112,0.44109 1.05183,0.44109 h 0.99441 c 0.0131,-0.05742 0.0496,-0.14616 0.0783,-0.19314 -0.1566,0.0078 -0.95004,0.0078 -1.07532,0.0052 -0.24273,0 -0.43326,-0.01827 -0.58464,-0.07308 z"
             style="font-family:'Noto Sans CJK SC';-inkscape-font-specification:'Noto Sans CJK SC'"
             id="path8299" />
          <path
             d="m 154.11986,12.84593 h -0.18531 v 0.44631 h -0.39411 v -0.57159 h -0.18531 v 0.57159 h -0.36018 v -0.44631 h -0.18009 v 0.61857 h 1.305 z m -1.65735,0.27405 c -0.0339,-0.10179 -0.10962,-0.25839 -0.1827,-0.37584 l -0.16182,0.0522 c 0.0653,0.12006 0.14094,0.28188 0.17226,0.38628 z m 0.26883,0.08352 h -0.86913 v 0.18009 h 0.86913 z m -0.51939,1.23714 c -0.0104,-0.25839 -0.06,-0.63423 -0.12006,-0.93177 l -0.14877,0.0261 c 0.0548,0.29493 0.1044,0.67599 0.11223,0.93177 z m 0.26622,0.06264 c 0.0626,-0.27666 0.12789,-0.67599 0.17226,-0.98658 l -0.16965,-0.03132 c -0.0287,0.31581 -0.0914,0.77517 -0.15399,1.05444 -0.18531,0.04176 -0.35235,0.08352 -0.48285,0.11223 l 0.0418,0.18792 c 0.24534,-0.05742 0.56115,-0.14094 0.86391,-0.21924 l -0.0209,-0.18009 z m 1.72782,-0.67599 v -0.17226 h -1.50336 v 0.17226 h 0.63423 c -0.0157,0.0783 -0.0313,0.16443 -0.047,0.23751 h -0.50373 v 1.03356 h 0.17487 v -0.86652 h 0.22968 v 0.84303 h 0.15399 v -0.84303 h 0.24012 v 0.8352 h 0.15399 v -0.8352 h 0.23751 v 0.68904 c 0,0.02088 -0.005,0.02871 -0.0287,0.02871 -0.0183,0.0026 -0.0861,0.0026 -0.15921,0 0.0235,0.04437 0.0496,0.10701 0.0574,0.1566 0.11223,0 0.18531,-0.0026 0.23751,-0.03132 0.0548,-0.02871 0.0679,-0.07047 0.0679,-0.15138 V 14.0648 h -0.67077 c 0.0261,-0.07308 0.0496,-0.1566 0.0757,-0.23751 z"
             style="font-family:'Noto Sans CJK SC';-inkscape-font-specification:'Noto Sans CJK SC'"
             id="path8301" />
        </g>
        <path
           d="M58.57.97v-65.3h40.92"
           id="path1003"
           fill="none"
           stroke="#30ba78"
           stroke-width=".46"
           stroke-linecap="butt"
           stroke-linejoin="miter"
           stroke-miterlimit="4"
           stroke-dasharray="none"
           stroke-opacity="1"
           marker-end="url(#marker8835795)" />
        <path
           d="M80.34.97v-63.12h17.4"
           id="path1005"
           fill="none"
           stroke="#30ba78"
           stroke-width=".46"
           stroke-linecap="butt"
           stroke-linejoin="miter"
           stroke-miterlimit="4"
           stroke-dasharray="none"
           stroke-opacity="1"
           marker-end="url(#marker8839906)" />
        <path
           d="M104.28.97v-34.83"
           id="path1007"
           fill="none"
           stroke="#30ba78"
           stroke-width=".46"
           stroke-linecap="butt"
           stroke-linejoin="miter"
           stroke-miterlimit="4"
           stroke-dasharray="none"
           stroke-opacity="1"
           marker-end="url(#marker883688)" />
        <path
           d="M126.91.97v-43.49l-6.96-.04"
           id="path1009"
           fill="none"
           stroke="#30ba78"
           stroke-width=".46"
           stroke-linecap="butt"
           stroke-linejoin="miter"
           stroke-miterlimit="4"
           stroke-dasharray="none"
           stroke-opacity="1"
           marker-end="url(#marker8838541)" />
        <path
           d="M149.98.97v-46.14h-27.86"
           id="path1011"
           fill="none"
           stroke="#30ba78"
           stroke-width=".46"
           stroke-linecap="butt"
           stroke-linejoin="miter"
           stroke-miterlimit="4"
           stroke-dasharray="none"
           stroke-opacity="1"
           marker-end="url(#marker8836252)" />
        <path
           d="M128.22-64.33h52.24"
           id="path1013"
           fill="none"
           stroke="#fe7c3f"
           stroke-width=".46"
           stroke-linecap="butt"
           stroke-linejoin="miter"
           stroke-miterlimit="4"
           stroke-dasharray="none"
           stroke-opacity="1"
           marker-end="url(#marker8836999)" />
        <path
           d="M126.91-62.15h50.5"
           id="path1015"
           fill="none"
           stroke="#fe7c3f"
           stroke-width=".46"
           stroke-linecap="butt"
           stroke-linejoin="miter"
           stroke-miterlimit="4"
           stroke-dasharray="none"
           stroke-opacity="1"
           marker-end="url(#marker8839258)" />
        <path
           d="M97.75-59.97h23.94v13.05c-13.06 0-13.06 8.71-23.94 6.53v-19.58"
           id="path862-7-3-0"
           fill="#fff"
           stroke="#63da7f"
           stroke-width=".65"
           stroke-linecap="square"
           stroke-linejoin="miter"
           stroke-miterlimit="4"
           stroke-dasharray="none"
           stroke-opacity="1" />
        <path
           d="M95.57-57.8h23.94v13.06c-13.06 0-13.06 8.7-23.94 6.53V-57.8"
           id="path862-7-3-0-6"
           fill="#fff"
           stroke="#6ec766"
           stroke-width=".65"
           stroke-linecap="square"
           stroke-linejoin="miter"
           stroke-miterlimit="4"
           stroke-dasharray="none"
           stroke-opacity="1" />
        <path
           d="M93.4-55.62h23.94v13.06c-13.06 0-13.06 8.7-23.95 6.53v-19.6"
           id="path862-7-3-0-2"
           fill="#fff"
           stroke="#92d27f"
           stroke-width=".65"
           stroke-linecap="square"
           stroke-linejoin="miter"
           stroke-miterlimit="4"
           stroke-dasharray="none"
           stroke-opacity="1" />
        <path
           d="M91.22-53.45h23.94v13.06c-13.06 0-13.06 8.71-23.94 6.53v-19.59"
           id="path862-7-3-0-61"
           fill="#fff"
           stroke="#bfe035"
           stroke-width=".65"
           stroke-linecap="square"
           stroke-linejoin="miter"
           stroke-miterlimit="4"
           stroke-dasharray="none"
           stroke-opacity="1" />
        <path
           d="M89.04-51.27h23.94v13.06c-13.06 0-13.06 8.7-23.94 6.53v-19.59"
           id="path862-7-3-0-8"
           fill="#fff"
           stroke="#f2df4b"
           stroke-width=".65"
           stroke-linecap="square"
           stroke-linejoin="miter"
           stroke-miterlimit="4"
           stroke-dasharray="none"
           stroke-opacity="1" />
        <g
           aria-label="节点目标和发起端"
           transform="translate(-6.9650156,2.6118809)"
           id="text914"
           style="font-size:2.61px;line-height:1.25;font-family:'Noto Sans CJK SC';-inkscape-font-specification:'Noto Sans CJK SC, Normal';text-align:center;letter-spacing:0;text-anchor:middle;white-space:pre;inline-size:13.8833;stroke-width:0.22">
          <path
             d="m 103.35201,-47.368458 h -1.94445 v 0.18792 h 0.68121 v 1.27368 h 0.20097 v -1.27368 h 0.86391 v 0.67338 c 0,0.04176 -0.013,0.0522 -0.0626,0.0522 -0.0548,0.0052 -0.22968,0.0052 -0.42021,-0.0026 0.0261,0.05742 0.0548,0.14355 0.06,0.20097 0.24534,0 0.40716,0 0.50112,-0.03132 0.0966,-0.03132 0.12006,-0.09657 0.12006,-0.21402 z m -0.35496,-0.61857 v -0.29754 h -0.20097 v 0.29754 h -0.69687 v -0.29754 h -0.19575 v 0.29754 h -0.60552 v 0.18531 h 0.60552 v 0.29493 h 0.19575 v -0.29493 h 0.69687 v 0.29493 h 0.20097 v -0.29493 h 0.60552 v -0.18531 z"
             id="path8268" />
          <path
             d="m 105.73233,-46.846458 h -1.35459 v -0.46458 h 1.35459 z m 0.19575,-0.64728 h -0.79344 v -0.32886 h 0.98658 v -0.1827 h -0.98658 v -0.27927 h -0.19314 v 0.79083 h -0.74907 v 0.82998 h 1.73565 z m -1.8792,1.5921 c 0.14094,-0.13572 0.27405,-0.35496 0.36018,-0.55854 l -0.1827,-0.04698 c -0.0835,0.19314 -0.21663,0.40194 -0.35496,0.51939 z m 0.59508,-0.53505 c 0.0339,0.16704 0.0574,0.38367 0.0574,0.51417 l 0.19314,-0.0261 c -0.003,-0.12528 -0.0313,-0.3393 -0.0653,-0.50373 z m 0.53505,0.0026 c 0.0783,0.15921 0.1566,0.37584 0.1827,0.50373 l 0.18792,-0.04437 c -0.0313,-0.1305 -0.11484,-0.34191 -0.19575,-0.49851 z m 0.52983,-0.02349 c 0.1305,0.16704 0.27405,0.3915 0.33408,0.53505 l 0.1827,-0.07308 c -0.0653,-0.14616 -0.21402,-0.36279 -0.34713,-0.52722 z"
             id="path8270" />
          <path
             d="m 106.97469,-46.282698 v -0.42804 h 1.36503 v 0.42804 z m 1.36503,-1.04139 v 0.42804 h -1.36503 v -0.42804 z m 0,-0.60813 v 0.42282 h -1.36503 v -0.42282 z m -1.55556,-0.18792 v 2.20545 h 0.19053 v -0.17748 h 1.36503 v 0.17748 h 0.20097 v -2.20545 z"
             id="path8272" />
          <path
             d="m 111.31773,-48.083598 h -1.13013 v 0.1827 h 1.13013 z m -1.26846,1.044 c -0.0496,-0.06786 -0.27144,-0.34974 -0.34974,-0.4437 v -0.06786 h 0.33669 v -0.1827 h -0.33669 v -0.5481 h -0.19314 v 0.5481 h -0.39411 v 0.1827 h 0.35235 c -0.0835,0.32364 -0.25317,0.69426 -0.4176,0.89001 0.0339,0.04698 0.0861,0.12528 0.10962,0.18009 0.1305,-0.16443 0.25578,-0.43587 0.34974,-0.71514 v 1.29456 h 0.19314 v -1.3572 c 0.0861,0.12789 0.19314,0.28971 0.2349,0.37323 z m 0.20619,0.04698 c -0.0679,0.27666 -0.18531,0.55593 -0.32886,0.73863 0.0444,0.02088 0.12006,0.07569 0.15399,0.10179 0.14094,-0.19836 0.27144,-0.50112 0.35235,-0.80127 z m 1.2006,-0.28971 v -0.1827 h -1.38069 v 0.1827 h 0.55593 v 1.13274 c 0,0.03393 -0.0104,0.04176 -0.0496,0.04437 -0.0339,0.0026 -0.15399,0.0026 -0.28971,-0.0026 0.0235,0.05742 0.0522,0.14094 0.06,0.19836 0.1827,0 0.30276,-0.0026 0.37584,-0.03915 0.0757,-0.03132 0.0966,-0.08874 0.0966,-0.19836 v -1.13535 z m -0.45414,0.33408 c 0.12267,0.25578 0.24273,0.59508 0.27927,0.79866 l 0.18009,-0.06264 c -0.0444,-0.20619 -0.17226,-0.53505 -0.29754,-0.78561 z"
             id="path8274" />
          <path
             d="m 112.42437,-47.987028 c 0.16182,-0.03393 0.31581,-0.07569 0.43587,-0.12006 l -0.1305,-0.15138 c -0.22968,0.09135 -0.63684,0.16965 -0.98136,0.21663 0.0235,0.04437 0.0444,0.10701 0.0548,0.15399 0.13833,-0.01827 0.28449,-0.03915 0.43065,-0.06264 v 0.43326 h -0.50895 v 0.18009 h 0.45936 c -0.11745,0.32625 -0.32625,0.68382 -0.52461,0.88218 0.0365,0.04698 0.0861,0.12528 0.10701,0.17748 0.16704,-0.18009 0.3393,-0.47502 0.46719,-0.77778 v 1.1484 h 0.19053 v -1.14057 c 0.11223,0.14616 0.25839,0.34191 0.31842,0.44109 l 0.11745,-0.15921 c -0.0653,-0.08091 -0.33669,-0.39933 -0.43587,-0.50373 v -0.06786 h 0.45414 v -0.18009 h -0.45414 z m 0.73341,1.56861 v -1.43811 h 0.58203 v 1.43811 z m -0.19053,-1.62342 v 2.02536 h 0.19053 v -0.21402 h 0.58203 v 0.19575 h 0.19314 v -2.00709 z"
             id="path8276" />
          <path
             d="m 105.99333,-44.614908 c -0.0731,-0.09396 -0.22446,-0.25578 -0.33669,-0.37062 l -0.14877,0.09396 c 0.11223,0.12006 0.25839,0.28449 0.32886,0.38367 z m -0.30537,0.8352 c -0.094,0.21141 -0.23229,0.3915 -0.39933,0.53766 -0.17748,-0.14877 -0.31842,-0.33147 -0.4176,-0.53766 z m 0.1305,-0.19836 -0.0365,0.01044 h -0.87435 c 0.0313,-0.08874 0.0626,-0.1827 0.0913,-0.27666 h 1.1745 l 0.003,-0.18792 h -1.12491 c 0.0418,-0.17748 0.0757,-0.3654 0.1044,-0.56637 l -0.21663,-0.03132 c -0.0235,0.21141 -0.06,0.40977 -0.10962,0.59769 h -0.4698 c 0.0679,-0.13572 0.14355,-0.31059 0.18792,-0.47763 l -0.20358,-0.03915 c -0.047,0.19836 -0.14355,0.40977 -0.17487,0.46197 -0.0287,0.05742 -0.0574,0.09396 -0.094,0.1044 0.0209,0.04437 0.0522,0.14094 0.0653,0.1827 0.0235,-0.02871 0.11223,-0.04437 0.27666,-0.04437 h 0.36279 c -0.17226,0.54027 -0.45936,0.9657 -0.93438,1.255409 0.047,0.03393 0.11484,0.1044 0.14355,0.14877 0.33669,-0.208799 0.58203,-0.475019 0.76212,-0.796049 0.1044,0.19575 0.2349,0.3654 0.38889,0.50895 -0.22185,0.156599 -0.48285,0.266219 -0.75168,0.328859 0.0339,0.04176 0.0809,0.11745 0.10179,0.16704 0.28971,-0.0783 0.56376,-0.19836 0.80388,-0.370619 0.23229,0.174869 0.51678,0.300149 0.84825,0.373229 0.0261,-0.05481 0.0783,-0.13311 0.12006,-0.17226 -0.31842,-0.06003 -0.59247,-0.16965 -0.81954,-0.323639 0.22446,-0.20097 0.39933,-0.45936 0.50634,-0.78822 z"
             id="path8278" />
          <path
             d="m 108.49632,-44.181648 h -0.71775 v 0.74124 c 0,0.21402 0.0731,0.26883 0.31059,0.26883 h 0.43587 c 0.21663,0 0.27144,-0.09396 0.29754,-0.46458 -0.0548,-0.01044 -0.13311,-0.04176 -0.17487,-0.07569 -0.0104,0.31581 -0.0287,0.36279 -0.13833,0.36279 h -0.40194 c -0.12006,0 -0.14094,-0.01305 -0.14094,-0.09135 v -0.56898 h 0.71775 v -0.8874 h -0.93177 v 0.17487 h 0.74385 z m -1.27107,0.68904 h 0.42021 v -0.17226 h -0.42021 v -0.38628 h 0.44631 v -0.17487 h -0.48807 v -0.32886 h 0.42021 v -0.17226 h -0.42021 v -0.28971 h -0.18531 v 0.28971 h -0.43326 v 0.17226 h 0.43326 v 0.32886 h -0.49851 v 0.17487 h 0.54549 v 0.98658 c -0.10962,-0.08874 -0.19053,-0.21924 -0.24795,-0.40716 0.008,-0.11484 0.013,-0.23751 0.0157,-0.36279 l -0.1827,-0.01305 c -0.008,0.46197 -0.0365,0.876959 -0.18792,1.137959 0.0444,0.02088 0.12789,0.07047 0.16182,0.09396 0.0783,-0.14616 0.12528,-0.32364 0.1566,-0.529829 0.19053,0.352349 0.50112,0.441089 1.05183,0.441089 h 0.99441 c 0.013,-0.05742 0.0496,-0.14616 0.0783,-0.19314 -0.1566,0.0078 -0.95004,0.0078 -1.07532,0.0052 -0.24273,0 -0.43326,-0.01827 -0.58464,-0.07308 z"
             id="path8280" />
          <path
             d="m 111.37254,-44.891568 h -0.18531 v 0.44631 h -0.39411 v -0.57159 h -0.18531 v 0.57159 h -0.36018 v -0.44631 h -0.18009 v 0.61857 h 1.305 z m -1.65735,0.27405 c -0.0339,-0.10179 -0.10962,-0.25839 -0.1827,-0.37584 l -0.16182,0.0522 c 0.0652,0.12006 0.14094,0.28188 0.17226,0.38628 z m 0.26883,0.08352 h -0.86913 v 0.18009 h 0.86913 z m -0.51939,1.23714 c -0.0104,-0.25839 -0.06,-0.63423 -0.12006,-0.93177 l -0.14877,0.0261 c 0.0548,0.29493 0.1044,0.67599 0.11223,0.93177 z m 0.26622,0.06264 c 0.0626,-0.27666 0.12789,-0.67599 0.17226,-0.98658 l -0.16965,-0.03132 c -0.0287,0.31581 -0.0913,0.77517 -0.15399,1.05444 -0.18531,0.04176 -0.35235,0.08352 -0.48285,0.11223 l 0.0418,0.187919 c 0.24534,-0.05742 0.56115,-0.140939 0.86391,-0.219239 l -0.0209,-0.18009 z m 1.72782,-0.67599 v -0.17226 h -1.50336 v 0.17226 h 0.63423 c -0.0157,0.0783 -0.0313,0.16443 -0.047,0.23751 h -0.50373 v 1.033559 h 0.17487 v -0.866519 h 0.22968 v 0.843029 h 0.15399 v -0.843029 h 0.24012 v 0.835199 h 0.15399 v -0.835199 h 0.23751 v 0.689039 c 0,0.02088 -0.005,0.02871 -0.0287,0.02871 -0.0183,0.0026 -0.0861,0.0026 -0.15921,0 0.0235,0.04437 0.0496,0.10701 0.0574,0.1566 0.11223,0 0.18531,-0.0026 0.23751,-0.03132 0.0548,-0.02871 0.0679,-0.07047 0.0679,-0.15138 v -0.858689 h -0.67077 c 0.0261,-0.07308 0.0496,-0.1566 0.0757,-0.23751 z"
             id="path8282" />
        </g>
        <path
           d="M176.1-57.8h23.94v13.06c-13.05 0-13.05 8.7-23.94 6.53V-57.8"
           id="path862-6-7"
           fill="#fff"
           stroke="#f39b5c"
           stroke-width=".65"
           stroke-linecap="square"
           stroke-linejoin="miter"
           stroke-miterlimit="4"
           stroke-dasharray="none"
           stroke-opacity="1" />
        <path
           d="M173.93-55.62h23.94v13.06c-13.06 0-13.06 8.7-23.94 6.53v-19.6"
           id="path862-6-9"
           fill="#fff"
           stroke="#f3b292"
           stroke-width=".65"
           stroke-linecap="square"
           stroke-linejoin="miter"
           stroke-miterlimit="4"
           stroke-dasharray="none"
           stroke-opacity="1" />
        <path
           d="M171.75-53.45h23.94v13.06c-13.06 0-13.06 8.71-23.94 6.53v-19.59"
           id="path862-6-2"
           fill="#fff"
           stroke="#f9dac8"
           stroke-width=".65"
           stroke-linecap="square"
           stroke-linejoin="miter"
           stroke-miterlimit="4"
           stroke-dasharray="none"
           stroke-opacity="1" />
        <g
           aria-label="发现域"
           id="text914-5"
           style="font-size:2.61px;line-height:1.25;font-family:Poppins;-inkscape-font-specification:'Poppins, Normal';letter-spacing:0;stroke-width:0.22">
          <path
             d="m 181.52779,-45.153596 c -0.0731,-0.09396 -0.22446,-0.25578 -0.33669,-0.37062 l -0.14877,0.09396 c 0.11223,0.12006 0.25839,0.28449 0.32886,0.38367 z m -0.30537,0.8352 c -0.094,0.21141 -0.23229,0.3915 -0.39933,0.53766 -0.17748,-0.14877 -0.31842,-0.33147 -0.4176,-0.53766 z m 0.1305,-0.19836 -0.0365,0.01044 h -0.87435 c 0.0313,-0.08874 0.0626,-0.1827 0.0914,-0.27666 h 1.1745 l 0.003,-0.18792 h -1.12491 c 0.0418,-0.17748 0.0757,-0.3654 0.1044,-0.56637 l -0.21663,-0.03132 c -0.0235,0.21141 -0.06,0.40977 -0.10962,0.59769 h -0.4698 c 0.0679,-0.13572 0.14355,-0.31059 0.18792,-0.47763 l -0.20358,-0.03915 c -0.047,0.19836 -0.14355,0.40977 -0.17487,0.46197 -0.0287,0.05742 -0.0574,0.09396 -0.094,0.1044 0.0209,0.04437 0.0522,0.14094 0.0652,0.1827 0.0235,-0.02871 0.11223,-0.04437 0.27666,-0.04437 h 0.36279 c -0.17226,0.54027 -0.45936,0.9657 -0.93438,1.25541 0.047,0.03393 0.11484,0.1044 0.14355,0.14877 0.33669,-0.2088 0.58203,-0.47502 0.76212,-0.79605 0.1044,0.19575 0.2349,0.3654 0.38889,0.50895 -0.22185,0.1566 -0.48285,0.26622 -0.75168,0.32886 0.0339,0.04176 0.0809,0.11745 0.10179,0.16704 0.28971,-0.0783 0.56376,-0.19836 0.80388,-0.37062 0.23229,0.17487 0.51678,0.30015 0.84825,0.37323 0.0261,-0.05481 0.0783,-0.13311 0.12006,-0.17226 -0.31842,-0.06003 -0.59247,-0.16965 -0.81954,-0.32364 0.22446,-0.20097 0.39933,-0.45936 0.50634,-0.78822 z"
             style="font-family:'Noto Sans CJK SC';-inkscape-font-specification:'Noto Sans CJK SC'"
             id="path8285" />
          <path
             d="m 183.21124,-45.260606 h 0.78822 v 1.20582 h 0.19053 v -1.37808 h -1.16406 v 1.37808 h 0.18531 z m -0.28971,1.36242 c -0.11223,0.03393 -0.22707,0.07047 -0.33669,0.09918 v -0.65511 h 0.27144 v -0.18009 h -0.27144 v -0.56637 h 0.32364 v -0.1827 h -0.85608 v 0.1827 h 0.34452 v 0.56637 h -0.30798 v 0.18009 h 0.30798 v 0.70992 c -0.14094,0.04176 -0.27144,0.07308 -0.37584,0.10179 l 0.0418,0.18792 0.88479,-0.26361 z m 0.97092,0.50634 c -0.0731,0 -0.094,-0.01827 -0.094,-0.09135 v -0.61335 h -0.15921 c 0.0365,-0.15138 0.047,-0.29754 0.047,-0.43848 v -0.50634 h -0.1827 v 0.50112 c 0,0.40455 -0.0809,0.89523 -0.73602,1.22931 0.0392,0.02871 0.0992,0.1044 0.12267,0.14094 0.43065,-0.22185 0.63684,-0.53244 0.72819,-0.84303 v 0.5481 c 0,0.17226 0.0705,0.21924 0.24795,0.21924 h 0.23751 c 0.22446,0 0.25317,-0.10179 0.27666,-0.51156 -0.0496,-0.01044 -0.10962,-0.03915 -0.1566,-0.07308 -0.013,0.36801 -0.0261,0.43848 -0.12006,0.43848 z"
             style="font-family:'Noto Sans CJK SC';-inkscape-font-specification:'Noto Sans CJK SC'"
             id="path8287" />
          <path
             d="m 185.32795,-44.049566 c -0.0809,0.03915 -0.16443,0.08091 -0.24273,0.11745 v -0.81171 h 0.23751 v -0.1827 h -0.23751 v -0.60291 h -0.1827 v 0.60291 h -0.27405 v 0.1827 h 0.27405 v 0.89784 c -0.10962,0.04959 -0.2088,0.09396 -0.29232,0.12789 l 0.0757,0.19053 c 0.20097,-0.09918 0.45675,-0.22707 0.69426,-0.34974 z m 0.86913,0.16443 c -0.33669,0.08874 -0.68382,0.18531 -0.91872,0.23751 l 0.0522,0.1827 c 0.24795,-0.07047 0.5742,-0.16443 0.88479,-0.25578 z m -0.26622,-0.27144 h -0.33669 v -0.43848 h 0.33669 z m -0.48807,-0.59508 v 0.75168 h 0.64728 v -0.75168 z m 1.30761,0 c -0.0626,0.24534 -0.14355,0.46719 -0.25056,0.67077 -0.0365,-0.25578 -0.0626,-0.56898 -0.0731,-0.91611 h 0.5481 v -0.18009 h -0.13833 l 0.11484,-0.10701 c -0.0652,-0.08091 -0.20358,-0.19314 -0.31842,-0.26883 l -0.11223,0.09657 c 0.11223,0.08352 0.24534,0.20097 0.31059,0.27927 h -0.40977 c -0.003,-0.12267 -0.003,-0.25056 -0.003,-0.38106 h -0.18792 c 0,0.12789 0.003,0.25578 0.008,0.38106 h -0.87174 v 0.18009 h 0.87696 c 0.0157,0.44109 0.0496,0.84042 0.10962,1.15362 -0.14355,0.20619 -0.31842,0.38367 -0.52983,0.51678 0.0418,0.03132 0.11484,0.09396 0.14355,0.12789 0.16443,-0.11745 0.3132,-0.25839 0.44109,-0.42543 0.0809,0.27927 0.19314,0.44631 0.35235,0.44631 0.16443,0 0.21663,-0.10962 0.24534,-0.45675 -0.0418,-0.02088 -0.0992,-0.05742 -0.13833,-0.10179 -0.0104,0.27144 -0.0339,0.37323 -0.0835,0.37323 -0.0966,0 -0.17487,-0.16965 -0.23751,-0.45414 0.16182,-0.25839 0.2871,-0.55854 0.38106,-0.90045 z"
             style="font-family:'Noto Sans CJK SC';-inkscape-font-specification:'Noto Sans CJK SC'"
             id="path8289" />
        </g>
        <path
           d="M118.2-49.1h51.37"
           id="path1017"
           fill="none"
           stroke="#fe7c3f"
           stroke-width=".46"
           stroke-linecap="butt"
           stroke-linejoin="miter"
           stroke-miterlimit="4"
           stroke-dasharray="none"
           stroke-opacity="1"
           marker-end="url(#marker8831574)" />
        <path
           d="M120.38-53.45h49.2"
           id="path1017-3"
           fill="none"
           stroke="#fe7c3f"
           stroke-width=".46"
           stroke-linecap="butt"
           stroke-linejoin="miter"
           stroke-miterlimit="4"
           stroke-dasharray="none"
           stroke-opacity="1"
           marker-end="url(#marker8831574-0)" />
      </g>
    </g>
  </g>
</svg>
