<?xml version="1.0" encoding="UTF-8" standalone="no"?>
<svg
   width="940"
   height="440"
   id="svg10908"
   version="1.1"
   sodipodi:docname="lvm-2.svg"
   inkscape:version="1.2.1 (9c6d41e410, 2022-07-14)"
   xmlns:inkscape="http://www.inkscape.org/namespaces/inkscape"
   xmlns:sodipodi="http://sodipodi.sourceforge.net/DTD/sodipodi-0.dtd"
   xmlns="http://www.w3.org/2000/svg"
   xmlns:svg="http://www.w3.org/2000/svg">
  <defs
     id="defs8655" />
  <sodipodi:namedview
     id="namedview8653"
     pagecolor="#ffffff"
     bordercolor="#000000"
     borderopacity="0.25"
     inkscape:showpageshadow="2"
     inkscape:pageopacity="0.0"
     inkscape:pagecheckerboard="0"
     inkscape:deskcolor="#d1d1d1"
     showgrid="false"
     inkscape:zoom="1.5702128"
     inkscape:cx="469.99999"
     inkscape:cy="219.71544"
     inkscape:window-width="1920"
     inkscape:window-height="1017"
     inkscape:window-x="-8"
     inkscape:window-y="-8"
     inkscape:window-maximized="1"
     inkscape:current-layer="text1114-37" />
  <g
     id="layer1"
     transform="translate(-10 -952.36)">
    <path
       id="rect924"
       style="opacity:1;fill:#30ba78;stroke-width:2.38;stroke-linecap:square;paint-order:stroke fill markers;stop-color:#000000"
       d="m 20,1312.36 h 100 v 70 H 20 Z" />
    <path
       id="rect924-7"
       style="opacity:1;fill:#30ba78;stroke-width:2.38;stroke-linecap:square;paint-order:stroke fill markers;stop-color:#000000"
       d="m 130,1312.36 h 100 v 70 H 130 Z" />
    <path
       id="rect924-7-5"
       style="opacity:1;fill:#30ba78;stroke-width:2.38;stroke-linecap:square;paint-order:stroke fill markers;stop-color:#000000"
       d="m 240,1312.36 h 100 v 70 H 240 Z" />
    <path
       id="rect924-7-3"
       style="opacity:1;fill:#30ba78;stroke-width:4.5;stroke-linecap:square;paint-order:stroke fill markers;stop-color:#000000"
       d="m 20,1052.36 h 100 v 250 H 20 Z" />
    <path
       id="rect924-7-3-5"
       style="opacity:1;fill:#30ba78;stroke-width:4.5;stroke-linecap:square;paint-order:stroke fill markers;stop-color:#000000"
       d="m 130,1052.36 h 100 v 250 H 130 Z" />
    <path
       id="rect924-7-3-6"
       style="opacity:1;fill:#30ba78;stroke-width:4.5;stroke-linecap:square;paint-order:stroke fill markers;stop-color:#000000"
       d="m 240,1052.36 h 100 v 250 H 240 Z" />
    <path
       id="rect983"
       style="opacity:1;fill:#30ba78;stroke-width:2.38;stroke-linecap:square;paint-order:stroke fill markers;stop-color:#000000"
       d="M 20,962.35999 H 340 V 1042.36 H 20 Z" />
    <path
       id="rect985"
       style="opacity:1;fill:#0c322c;stroke-width:2.38;stroke-linecap:square;paint-order:stroke fill markers;stop-color:#000000"
       d="m 450,1052.36 h 90 v 80 h -90 z" />
    <path
       id="rect985-2"
       style="opacity:1;fill:#0c322c;stroke-width:2.38;stroke-linecap:square;paint-order:stroke fill markers;stop-color:#000000"
       d="m 550,1052.36 h 90 v 80 h -90 z" />
    <path
       id="rect985-9"
       style="opacity:1;fill:#0c322c;stroke-width:2.38;stroke-linecap:square;paint-order:stroke fill markers;stop-color:#000000"
       d="m 650,1052.36 h 90 v 80 h -90 z" />
    <path
       id="rect985-1"
       style="opacity:1;fill:#0c322c;stroke-width:2.38;stroke-linecap:square;paint-order:stroke fill markers;stop-color:#000000"
       d="m 750,1052.36 h 90 v 80 h -90 z" />
    <path
       id="rect985-27"
       style="opacity:1;fill:#0c322c;stroke-width:2.38;stroke-linecap:square;paint-order:stroke fill markers;stop-color:#000000"
       d="m 850,1052.36 h 90 v 80 h -90 z" />
    <path
       id="rect985-0"
       style="opacity:1;fill:#0c322c;stroke-width:4.27;stroke-linecap:square;paint-order:stroke fill markers;stop-color:#000000"
       d="m 450,1142.36 h 290 v 80 H 450 Z" />
    <path
       id="rect985-93"
       style="opacity:1;fill:#0c322c;stroke-width:3.46;stroke-linecap:square;paint-order:stroke fill markers;stop-color:#000000"
       d="m 750,1142.36 h 190 v 80 H 750 Z" />
    <path
       id="rect985-6"
       style="opacity:1;fill:#0c322c;stroke-width:2.78;stroke-linecap:square;paint-order:stroke fill markers;stop-color:#000000"
       d="m 450,1232.36 h 140 v 70 H 450 Z" />
    <path
       id="rect985-6-0"
       style="opacity:1;fill:#0c322c;stroke-width:2.78;stroke-linecap:square;paint-order:stroke fill markers;stop-color:#000000"
       d="m 600,1232.36 h 140 v 70 H 600 Z" />
    <path
       id="rect985-6-6"
       style="opacity:1;fill:#0c322c;stroke-width:2.23;stroke-linecap:square;paint-order:stroke fill markers;stop-color:#000000"
       d="m 750,1232.36 h 90 v 70 h -90 z" />
    <path
       id="rect985-6-2"
       style="opacity:1;fill:#0c322c;stroke-width:2.23;stroke-linecap:square;paint-order:stroke fill markers;stop-color:#000000"
       d="m 850,1232.36 h 90 v 70 h -90 z" />
    <path
       id="rect985-6-61"
       style="opacity:1;fill:#0c322c;stroke-width:2.78;stroke-linecap:square;paint-order:stroke fill markers;stop-color:#000000"
       d="m 448,1312.36 h 140 v 70 H 448 Z" />
    <path
       id="rect985-6-0-8"
       style="opacity:1;fill:#0c322c;stroke-width:2.78;stroke-linecap:square;paint-order:stroke fill markers;stop-color:#000000"
       d="m 598,1312.36 h 140 v 70 H 598 Z" />
    <path
       id="rect985-6-6-7"
       style="opacity:1;fill:#0c322c;stroke-width:2.23;stroke-linecap:square;paint-order:stroke fill markers;stop-color:#000000"
       d="m 748,1312.36 h 90 v 70 h -90 z" />
    <path
       id="rect985-6-2-9"
       style="opacity:1;fill:#0c322c;stroke-width:2.23;stroke-linecap:square;paint-order:stroke fill markers;stop-color:#000000"
       d="m 848,1312.36 h 90 v 70 h -90 z" />
    <path
       id="rect985-20"
       style="opacity:1;fill:#0c322c;stroke-width:3.46;stroke-linecap:square;paint-order:stroke fill markers;stop-color:#000000"
       d="M 450,962.35999 H 640 V 1042.36 H 450 Z" />
    <path
       id="rect985-23"
       style="opacity:1;fill:#0c322c;stroke-width:4.27;stroke-linecap:square;paint-order:stroke fill markers;stop-color:#000000"
       d="M 650,962.35999 H 940 V 1042.36 H 650 Z" />
    <g
       aria-label="磁盘"
       id="text1114"
       style="font-size:18.67px;line-height:1.25;font-family:'Noto Sans CJK SC';-inkscape-font-specification:'Noto Sans CJK SC, Normal';letter-spacing:0">
      <path
         d="m 176.71251,996.58514 h -3.32326 c 0.50409,-0.84015 1.06419,-1.94168 1.51227,-2.89385 l -1.34424,-0.44808 c -0.31739,0.98951 -0.95217,2.38976 -1.47493,3.34193 h -3.15523 l 1.04552,-0.46675 c -0.28005,-0.76547 -0.91483,-1.94168 -1.53094,-2.8005 l -1.08286,0.46675 c 0.54143,0.85882 1.15754,2.01636 1.41892,2.8005 h -3.15523 v 1.26956 h 11.08998 z m -12.75161,10.23116 h -1.82966 v -5.825 h 1.82966 z m 1.36291,-11.35136 v -1.15754 h -5.54499 v 1.15754 h 1.99769 c -0.3734,3.13656 -1.06419,6.12376 -2.27774,8.10276 0.20537,0.3174 0.54143,0.9709 0.63478,1.2696 0.33606,-0.5041 0.61611,-1.0455 0.89616,-1.6803 v 6.2918 h 1.10153 v -1.5123 h 2.93119 v -8.08411 h -2.91252 c 0.35473,-1.40025 0.61611,-2.87518 0.84015,-4.38745 z m 3.50996,10.10046 c 0.20537,0.6348 0.42941,1.3629 0.59744,2.0724 l -2.48311,0.3547 c 1.47493,-2.0537 2.89385,-4.7048 4.03272,-7.3 l -1.15754,-0.4854 c -0.28005,0.7281 -0.59744,1.4749 -0.9335,2.2031 l -1.92301,0.1493 c 0.72813,-1.1575 1.41892,-2.59509 1.92301,-3.99534 l -1.13887,-0.50409 c -0.46675,1.64296 -1.34424,3.43523 -1.60562,3.90203 -0.26138,0.4481 -0.52276,0.7841 -0.76547,0.8401 0.13069,0.2988 0.33606,0.9149 0.39207,1.1576 0.26138,-0.112 0.65345,-0.2054 2.55779,-0.4108 -0.78414,1.5683 -1.56828,2.8566 -1.90434,3.3233 -0.52276,0.8028 -0.9335,1.3816 -1.28823,1.4563 0.14936,0.3174 0.33606,0.9148 0.41074,1.1575 0.29872,-0.168 0.80281,-0.28 4.12607,-0.8215 0.0933,0.4854 0.16803,0.9149 0.22404,1.3069 l 1.00818,-0.2053 c -0.16803,-1.1949 -0.61611,-3.0059 -1.1202,-4.3875 z m 8.10278,4.1447 c -0.1867,-1.2135 -0.78414,-3.0432 -1.41892,-4.4434 l -0.97084,0.2614 c 0.28005,0.6161 0.52276,1.3255 0.76547,2.035 l -2.74449,0.3921 c 1.38158,-2.0911 2.72582,-4.7982 3.75267,-7.3934 l -1.19488,-0.4854 c -0.24271,0.7655 -0.5601,1.5496 -0.87749,2.2964 l -1.96035,0.1681 c 0.67212,-1.1762 1.3069,-2.6325 1.77365,-4.01408 l -1.21355,-0.52276 c -0.35473,1.64296 -1.17621,3.41664 -1.41892,3.88334 -0.22404,0.4481 -0.44808,0.7842 -0.70946,0.8402 0.16803,0.3174 0.35473,0.9521 0.42941,1.2135 0.22404,-0.1307 0.63478,-0.224 2.59513,-0.4294 -0.70946,1.5496 -1.41892,2.8378 -1.71764,3.2859 -0.50409,0.8028 -0.85882,1.3816 -1.23222,1.475 0.14936,0.3173 0.35473,0.9335 0.42941,1.1762 0.29872,-0.1494 0.84015,-0.2988 4.40612,-0.8589 0.13069,0.5041 0.24271,0.9709 0.29872,1.3816 z"
         id="path9091" />
      <path
         d="m 181.8841,1005.0987 h 2.48311 v 3.4352 h -2.48311 z m 6.23578,0 v 3.4352 h -2.46444 v -3.4352 z m 3.79001,0 v 3.4352 h -2.50178 v -3.4352 z m 1.36291,-1.1202 h -12.67693 v 4.5554 h -2.10971 v 1.2323 h 16.87768 v -1.2323 h -2.09104 z m -8.4015,-3.0433 c 1.06419,0.5228 2.33375,1.3443 2.94986,1.9231 l 0.7468,-0.8589 c -0.67212,-0.5974 -1.96035,-1.3815 -2.9872,-1.8483 z m 2.89385,-2.31503 0.72813,-0.84015 c -0.63478,-0.5601 -1.81099,-1.3069 -2.8005,-1.73631 l -0.67212,0.78414 c 0.97084,0.44808 2.14705,1.23222 2.70715,1.79232 h -4.77952 c 0.0187,-0.24271 0.0187,-0.46675 0.0187,-0.69079 V 995.801 h 8.42017 v 2.81917 z m 4.98489,0 v -3.95804 h -5.61967 c 0.1867,-0.39207 0.39207,-0.84015 0.61611,-1.28823 l -1.51227,-0.29872 c -0.0933,0.42941 -0.35473,1.08286 -0.59744,1.58695 h -4.03272 v 3.22991 c 0,0.24271 0,0.46675 -0.0187,0.72813 h -2.96853 v 1.23222 h 2.78183 c -0.26138,1.15751 -0.9335,2.27771 -2.35242,3.17391 0.28005,0.2054 0.80281,0.7094 1.00818,0.9895 1.69897,-1.1202 2.44577,-2.6511 2.74449,-4.16341 h 8.5882 v 2.16571 c 0,0.224 -0.0747,0.2801 -0.33606,0.2987 -0.22404,0 -1.06419,0 -1.97902,-0.019 0.1867,0.336 0.39207,0.8214 0.44808,1.1762 1.25089,0 2.07237,0 2.57646,-0.2054 0.50409,-0.2054 0.65345,-0.5601 0.65345,-1.2509 v -2.16571 h 2.6138 v -1.23222 z"
         id="path9093" />
    </g>
    <g
       aria-label="磁盘 1"
       id="text1114-7"
       style="font-size:18.67px;line-height:1.25;font-family:'Noto Sans CJK SC';-inkscape-font-specification:'Noto Sans CJK SC, Normal';letter-spacing:0;fill:#ffffff">
      <path
         d="m 536.68252,996.81512 h -3.32326 c 0.50409,-0.84015 1.06419,-1.94168 1.51227,-2.89385 l -1.34424,-0.44808 c -0.31739,0.98951 -0.95217,2.38976 -1.47493,3.34193 h -3.15523 l 1.04552,-0.46675 c -0.28005,-0.76547 -0.91483,-1.94168 -1.53094,-2.8005 l -1.08286,0.46675 c 0.54143,0.85882 1.15754,2.01636 1.41892,2.8005 h -3.15523 v 1.26956 h 11.08998 z m -12.75161,10.23118 h -1.82966 v -5.8251 h 1.82966 z m 1.36291,-11.35138 v -1.15754 h -5.54499 v 1.15754 h 1.99769 c -0.3734,3.13656 -1.06419,6.12378 -2.27774,8.10278 0.20537,0.3174 0.54143,0.9708 0.63478,1.2696 0.33606,-0.5041 0.61611,-1.0456 0.89616,-1.6803 v 6.2917 h 1.10153 v -1.5122 h 2.93119 v -8.0841 h -2.91252 c 0.35473,-1.40028 0.61611,-2.87521 0.84015,-4.38748 z m 3.50996,10.10048 c 0.20537,0.6348 0.42941,1.3629 0.59744,2.0724 l -2.48311,0.3547 c 1.47493,-2.0537 2.89385,-4.7049 4.03272,-7.3 l -1.15754,-0.4854 c -0.28005,0.7281 -0.59744,1.4749 -0.9335,2.2031 l -1.92301,0.1493 c 0.72813,-1.1575 1.41892,-2.5951 1.92301,-3.99536 l -1.13887,-0.50409 c -0.46675,1.64296 -1.34424,3.43525 -1.60562,3.90205 -0.26138,0.4481 -0.52276,0.7841 -0.76547,0.8401 0.13069,0.2987 0.33606,0.9149 0.39207,1.1576 0.26138,-0.1121 0.65345,-0.2054 2.55779,-0.4108 -0.78414,1.5683 -1.56828,2.8565 -1.90434,3.3233 -0.52276,0.8028 -0.9335,1.3816 -1.28823,1.4562 0.14936,0.3174 0.33606,0.9149 0.41074,1.1576 0.29872,-0.168 0.80281,-0.2801 4.12607,-0.8215 0.0934,0.4854 0.16803,0.9148 0.22404,1.3069 l 1.00818,-0.2054 c -0.16803,-1.1948 -0.61611,-3.0058 -1.1202,-4.3874 z m 8.10278,4.1447 c -0.1867,-1.2135 -0.78414,-3.0432 -1.41892,-4.4434 l -0.97084,0.2613 c 0.28005,0.6162 0.52276,1.3256 0.76547,2.0351 l -2.74449,0.392 c 1.38158,-2.091 2.72582,-4.7981 3.75267,-7.3933 l -1.19488,-0.4854 c -0.24271,0.7655 -0.5601,1.5496 -0.87749,2.2964 l -1.96035,0.168 c 0.67212,-1.1762 1.3069,-2.6324 1.77365,-4.014 l -1.21355,-0.52276 c -0.35473,1.64296 -1.17621,3.41656 -1.41892,3.88336 -0.22404,0.4481 -0.44808,0.7841 -0.70946,0.8401 0.16803,0.3174 0.35473,0.9522 0.42941,1.2136 0.22404,-0.1307 0.63478,-0.224 2.59513,-0.4294 -0.70946,1.5496 -1.41892,2.8378 -1.71764,3.2859 -0.50409,0.8028 -0.85882,1.3816 -1.23222,1.4749 0.14936,0.3174 0.35473,0.9335 0.42941,1.1762 0.29872,-0.1493 0.84015,-0.2987 4.40612,-0.8588 0.13069,0.5041 0.24271,0.9709 0.29872,1.3816 z"
         id="path9084" />
      <path
         d="m 541.85411,1005.3286 h 2.48311 v 3.4353 h -2.48311 z m 6.23578,0 v 3.4353 h -2.46444 v -3.4353 z m 3.79001,0 v 3.4353 h -2.50178 v -3.4353 z m 1.36291,-1.1202 h -12.67693 v 4.5555 h -2.10971 v 1.2322 h 16.87768 v -1.2322 h -2.09104 z m -8.4015,-3.0432 c 1.06419,0.5228 2.33375,1.3443 2.94986,1.923 l 0.7468,-0.8588 c -0.67212,-0.5974 -1.96035,-1.3816 -2.9872,-1.8483 z m 2.89385,-2.31505 0.72813,-0.84015 c -0.63478,-0.5601 -1.81099,-1.3069 -2.8005,-1.73631 l -0.67212,0.78414 c 0.97084,0.44808 2.14705,1.23222 2.70715,1.79232 h -4.77952 c 0.0187,-0.24271 0.0187,-0.46675 0.0187,-0.69079 v -2.12838 h 8.42017 v 2.81917 z m 4.98489,0 v -3.95804 h -5.61967 c 0.1867,-0.39207 0.39207,-0.84015 0.61611,-1.28823 l -1.51227,-0.29872 c -0.0933,0.42941 -0.35473,1.08286 -0.59744,1.58695 h -4.03272 v 3.22991 c 0,0.24271 0,0.46675 -0.0187,0.72813 h -2.96853 v 1.23225 h 2.78183 c -0.26138,1.1575 -0.9335,2.2777 -2.35242,3.1739 0.28005,0.2053 0.80281,0.7094 1.00818,0.9895 1.69897,-1.1202 2.44577,-2.6512 2.74449,-4.1634 h 8.5882 v 2.1657 c 0,0.224 -0.0747,0.28 -0.33606,0.2987 -0.22404,0 -1.06419,0 -1.97902,-0.019 0.1867,0.3361 0.39207,0.8215 0.44808,1.1762 1.25089,0 2.07237,0 2.57646,-0.2053 0.50409,-0.2054 0.65345,-0.5601 0.65345,-1.2509 v -2.1657 h 2.6138 v -1.23225 z"
         id="path9086" />
      <path
         d="m 562.05507,1009.1 h 7.50534 v -1.4189 h -2.74449 v -12.26623 h -1.3069 c -0.7468,0.42941 -1.62429,0.7468 -2.83784,0.97084 v 1.08286 h 2.4271 v 10.21253 h -3.04321 z"
         id="path9088" />
    </g>
    <g
       aria-label="磁盘 2"
       id="text1114-9"
       style="font-size:18.67px;line-height:1.25;font-family:'Noto Sans CJK SC';-inkscape-font-specification:'Noto Sans CJK SC, Normal';letter-spacing:0;fill:#ffffff">
      <path
         d="m 792.02249,996.95513 h -3.32326 c 0.50409,-0.84015 1.06419,-1.94168 1.51227,-2.89385 l -1.34424,-0.44808 c -0.31739,0.98951 -0.95217,2.38976 -1.47493,3.34193 h -3.15523 l 1.04552,-0.46675 c -0.28005,-0.76547 -0.91483,-1.94168 -1.53094,-2.8005 l -1.08286,0.46675 c 0.54143,0.85882 1.15754,2.01636 1.41892,2.8005 h -3.15523 v 1.26956 h 11.08998 z m -12.75161,10.23117 h -1.82966 v -5.825 h 1.82966 z m 1.36291,-11.35137 v -1.15754 h -5.54499 v 1.15754 h 1.99769 c -0.3734,3.13656 -1.06419,6.12377 -2.27774,8.10277 0.20537,0.3174 0.54143,0.9709 0.63478,1.2696 0.33606,-0.5041 0.61611,-1.0455 0.89616,-1.6803 v 6.2918 h 1.10153 v -1.5123 h 2.93119 v -8.0841 h -2.91252 c 0.35473,-1.40027 0.61611,-2.8752 0.84015,-4.38747 z m 3.50996,10.10047 c 0.20537,0.6348 0.42941,1.3629 0.59744,2.0724 l -2.48311,0.3547 c 1.47493,-2.0537 2.89385,-4.7048 4.03272,-7.3 l -1.15754,-0.4854 c -0.28005,0.7281 -0.59744,1.4749 -0.9335,2.2031 l -1.92301,0.1493 c 0.72813,-1.1575 1.41892,-2.5951 1.92301,-3.99535 l -1.13887,-0.50409 c -0.46675,1.64294 -1.34424,3.43524 -1.60562,3.90204 -0.26138,0.4481 -0.52276,0.7841 -0.76547,0.8401 0.13069,0.2988 0.33606,0.9149 0.39207,1.1576 0.26138,-0.112 0.65345,-0.2054 2.55779,-0.4108 -0.78414,1.5683 -1.56828,2.8566 -1.90434,3.3233 -0.52276,0.8028 -0.9335,1.3816 -1.28823,1.4563 0.14936,0.3174 0.33606,0.9148 0.41074,1.1575 0.29872,-0.168 0.80281,-0.28 4.12607,-0.8215 0.0934,0.4854 0.16803,0.9149 0.22404,1.3069 l 1.00818,-0.2053 c -0.16803,-1.1949 -0.61611,-3.0059 -1.1202,-4.3875 z m 8.10278,4.1447 c -0.1867,-1.2135 -0.78414,-3.0432 -1.41892,-4.4434 l -0.97084,0.2614 c 0.28005,0.6161 0.52276,1.3255 0.76547,2.035 l -2.74449,0.3921 c 1.38158,-2.0911 2.72582,-4.7982 3.75267,-7.3934 l -1.19488,-0.4854 c -0.24271,0.7655 -0.5601,1.5496 -0.87749,2.2964 l -1.96035,0.1681 c 0.67212,-1.1762 1.3069,-2.6325 1.77365,-4.01409 l -1.21355,-0.52276 c -0.35473,1.64295 -1.17621,3.41665 -1.41892,3.88335 -0.22404,0.4481 -0.44808,0.7842 -0.70946,0.8402 0.16803,0.3174 0.35473,0.9521 0.42941,1.2135 0.22404,-0.1307 0.63478,-0.224 2.59513,-0.4294 -0.70946,1.5496 -1.41892,2.8378 -1.71764,3.2859 -0.50409,0.8028 -0.85882,1.3816 -1.23222,1.475 0.14936,0.3173 0.35473,0.9335 0.42941,1.1762 0.29872,-0.1494 0.84015,-0.2988 4.40612,-0.8589 0.13069,0.5041 0.24271,0.9709 0.29872,1.3816 z"
         id="path9077" />
      <path
         d="m 797.19408,1005.4687 h 2.48311 v 3.4352 h -2.48311 z m 6.23578,0 v 3.4352 h -2.46444 v -3.4352 z m 3.79001,0 v 3.4352 h -2.50178 v -3.4352 z m 1.36291,-1.1202 h -12.67693 v 4.5554 h -2.10971 v 1.2323 h 16.87768 v -1.2323 h -2.09104 z m -8.4015,-3.0433 c 1.06419,0.5228 2.33375,1.3443 2.94986,1.9231 l 0.7468,-0.8589 c -0.67212,-0.5974 -1.96035,-1.3815 -2.9872,-1.8483 z m 2.89385,-2.31504 0.72813,-0.84015 c -0.63478,-0.5601 -1.81099,-1.3069 -2.8005,-1.73631 l -0.67212,0.78414 c 0.97084,0.44808 2.14705,1.23222 2.70715,1.79232 h -4.77952 c 0.0187,-0.24271 0.0187,-0.46675 0.0187,-0.69079 v -2.12838 h 8.42017 v 2.81917 z m 4.98489,0 v -3.95804 h -5.61967 c 0.1867,-0.39207 0.39207,-0.84015 0.61611,-1.28823 l -1.51227,-0.29872 c -0.0933,0.42941 -0.35473,1.08286 -0.59744,1.58695 h -4.03272 v 3.22991 c 0,0.24271 0,0.46675 -0.0187,0.72813 h -2.96853 v 1.23224 h 2.78183 c -0.26138,1.1575 -0.9335,2.2777 -2.35242,3.1739 0.28005,0.2054 0.80281,0.7094 1.00818,0.9895 1.69897,-1.1202 2.44577,-2.6511 2.74449,-4.1634 h 8.5882 v 2.1657 c 0,0.224 -0.0747,0.2801 -0.33606,0.2987 -0.22404,0 -1.06419,0 -1.97902,-0.019 0.1867,0.336 0.39207,0.8214 0.44808,1.1762 1.25089,0 2.07237,0 2.57646,-0.2054 0.50409,-0.2054 0.65345,-0.5601 0.65345,-1.2509 v -2.1657 h 2.6138 v -1.23224 z"
         id="path9079" />
      <path
         d="m 816.57356,1009.24 h 8.60687 v -1.4749 h -3.79001 c -0.69079,0 -1.53094,0.075 -2.2404,0.1307 3.21124,-3.0433 5.35829,-5.8251 5.35829,-8.55091 0,-2.44577 -1.53094,-4.05139 -3.97671,-4.05139 -1.73631,0 -2.91252,0.80281 -4.03272,2.01636 l 0.98951,0.97084 c 0.7468,-0.89616 1.71764,-1.58695 2.83784,-1.58695 1.69897,0 2.52045,1.13887 2.52045,2.70715 0,2.3524 -1.97902,5.0782 -6.27312,8.8309 z"
         id="path9081" />
    </g>
    <g
       aria-label="分区"
       id="text1114-2"
       style="font-size:18.67px;line-height:1.25;font-family:'Noto Sans CJK SC';-inkscape-font-specification:'Noto Sans CJK SC, Normal';letter-spacing:0;fill:#ffffff">
      <path
         d="m 479.05332,1090.2531 c 1.56828,-1.6803 2.9872,-3.8647 3.93937,-6.2358 l -1.47493,-0.4107 c -1.08286,2.8378 -2.96853,5.4143 -5.19026,7.0199 0.35473,0.2614 0.9335,0.7842 1.19488,1.0642 0.48542,-0.4107 0.98951,-0.8588 1.45626,-1.3629 v 1.2882 h 3.58464 c -0.42941,3.1366 -1.45626,6.0864 -5.84371,7.5614 0.29872,0.2614 0.69079,0.8215 0.87749,1.1762 4.68617,-1.7177 5.91839,-5.0596 6.42248,-8.7376 h 5.05957 c -0.22404,4.6302 -0.48542,6.4598 -0.95217,6.9266 -0.20537,0.1867 -0.41074,0.2427 -0.80281,0.2427 -0.44808,0 -1.56828,-0.019 -2.78183,-0.1307 0.26138,0.3921 0.42941,0.9709 0.44808,1.3816 1.15754,0.075 2.31508,0.093 2.93119,0.037 0.65345,-0.037 1.04552,-0.1867 1.45626,-0.6534 0.63478,-0.7095 0.87749,-2.8379 1.13887,-8.4949 0.0187,-0.1867 0.0373,-0.6721 0.0373,-0.6721 z m 7.67337,-6.1611 c 1.3069,2.7445 3.52863,5.7317 5.47031,7.4307 0.26138,-0.3734 0.7468,-0.8962 1.1202,-1.1762 -1.94168,-1.4563 -4.18208,-4.2568 -5.33962,-6.7772 z"
         id="path9072" />
      <path
         d="m 497.34992,1098.4119 v -12.8263 h 14.0025 v -1.3256 h -15.36541 v 15.4775 h 15.83216 v -1.3256 z m 12.24752,-2.2964 c -0.98951,-1.1949 -2.50178,-2.6885 -4.16341,-4.2194 1.34424,-1.5123 2.55779,-3.1553 3.58464,-4.8916 l -1.28823,-0.5227 c -0.89616,1.5683 -2.01636,3.1179 -3.28592,4.5181 -1.4936,-1.3442 -3.08055,-2.7071 -4.49947,-3.846 l -0.97084,0.8215 c 1.45626,1.1949 3.04321,2.5951 4.55548,3.9954 -1.56828,1.6056 -3.34193,3.0245 -5.15292,4.1074 0.33606,0.224 0.85882,0.7654 1.10153,1.0268 1.73631,-1.1202 3.45395,-2.5765 5.02223,-4.2007 1.62429,1.5309 3.06188,3.0432 3.99538,4.2007 z"
         id="path9074" />
    </g>
    <g
       aria-label="分区"
       id="text1114-97"
       style="font-size:18.67px;line-height:1.25;font-family:'Noto Sans CJK SC';-inkscape-font-specification:'Noto Sans CJK SC, Normal';letter-spacing:0;fill:#ffffff">
      <path
         d="m 579.05332,1090.2531 c 1.56828,-1.6803 2.9872,-3.8647 3.93937,-6.2358 l -1.47493,-0.4107 c -1.08286,2.8378 -2.96853,5.4143 -5.19026,7.0199 0.35473,0.2614 0.9335,0.7842 1.19488,1.0642 0.48542,-0.4107 0.98951,-0.8588 1.45626,-1.3629 v 1.2882 h 3.58464 c -0.42941,3.1366 -1.45626,6.0864 -5.84371,7.5614 0.29872,0.2614 0.69079,0.8215 0.87749,1.1762 4.68617,-1.7177 5.91839,-5.0596 6.42248,-8.7376 h 5.05957 c -0.22404,4.6302 -0.48542,6.4598 -0.95217,6.9266 -0.20537,0.1867 -0.41074,0.2427 -0.80281,0.2427 -0.44808,0 -1.56828,-0.019 -2.78183,-0.1307 0.26138,0.3921 0.42941,0.9709 0.44808,1.3816 1.15754,0.075 2.31508,0.093 2.93119,0.037 0.65345,-0.037 1.04552,-0.1867 1.45626,-0.6534 0.63478,-0.7095 0.87749,-2.8379 1.13887,-8.4949 0.0187,-0.1867 0.0373,-0.6721 0.0373,-0.6721 z m 7.67337,-6.1611 c 1.3069,2.7445 3.52863,5.7317 5.47031,7.4307 0.26138,-0.3734 0.7468,-0.8962 1.1202,-1.1762 -1.94168,-1.4563 -4.18208,-4.2568 -5.33962,-6.7772 z"
         id="path9067" />
      <path
         d="m 597.34992,1098.4119 v -12.8263 h 14.0025 v -1.3256 h -15.36541 v 15.4775 h 15.83216 v -1.3256 z m 12.24752,-2.2964 c -0.98951,-1.1949 -2.50178,-2.6885 -4.16341,-4.2194 1.34424,-1.5123 2.55779,-3.1553 3.58464,-4.8916 l -1.28823,-0.5227 c -0.89616,1.5683 -2.01636,3.1179 -3.28592,4.5181 -1.4936,-1.3442 -3.08055,-2.7071 -4.49947,-3.846 l -0.97084,0.8215 c 1.45626,1.1949 3.04321,2.5951 4.55548,3.9954 -1.56828,1.6056 -3.34193,3.0245 -5.15292,4.1074 0.33606,0.224 0.85882,0.7654 1.10153,1.0268 1.73631,-1.1202 3.45395,-2.5765 5.02223,-4.2007 1.62429,1.5309 3.06188,3.0432 3.99538,4.2007 z"
         id="path9069" />
    </g>
    <g
       aria-label="分区"
       id="text1114-6"
       style="font-size:18.67px;line-height:1.25;font-family:'Noto Sans CJK SC';-inkscape-font-specification:'Noto Sans CJK SC, Normal';letter-spacing:0;fill:#ffffff">
      <path
         d="m 679.05332,1090.2531 c 1.56828,-1.6803 2.9872,-3.8647 3.93937,-6.2358 l -1.47493,-0.4107 c -1.08286,2.8378 -2.96853,5.4143 -5.19026,7.0199 0.35473,0.2614 0.9335,0.7842 1.19488,1.0642 0.48542,-0.4107 0.98951,-0.8588 1.45626,-1.3629 v 1.2882 h 3.58464 c -0.42941,3.1366 -1.45626,6.0864 -5.84371,7.5614 0.29872,0.2614 0.69079,0.8215 0.87749,1.1762 4.68617,-1.7177 5.91839,-5.0596 6.42248,-8.7376 h 5.05957 c -0.22404,4.6302 -0.48542,6.4598 -0.95217,6.9266 -0.20537,0.1867 -0.41074,0.2427 -0.80281,0.2427 -0.44808,0 -1.56828,-0.019 -2.78183,-0.1307 0.26138,0.3921 0.42941,0.9709 0.44808,1.3816 1.15754,0.075 2.31508,0.093 2.93119,0.037 0.65345,-0.037 1.04552,-0.1867 1.45626,-0.6534 0.63478,-0.7095 0.87749,-2.8379 1.13887,-8.4949 0.0187,-0.1867 0.0373,-0.6721 0.0373,-0.6721 z m 7.67337,-6.1611 c 1.3069,2.7445 3.52863,5.7317 5.47031,7.4307 0.26138,-0.3734 0.7468,-0.8962 1.1202,-1.1762 -1.94168,-1.4563 -4.18208,-4.2568 -5.33962,-6.7772 z"
         id="path9062" />
      <path
         d="m 697.34992,1098.4119 v -12.8263 h 14.0025 v -1.3256 h -15.36541 v 15.4775 h 15.83216 v -1.3256 z m 12.24752,-2.2964 c -0.98951,-1.1949 -2.50178,-2.6885 -4.16341,-4.2194 1.34424,-1.5123 2.55779,-3.1553 3.58464,-4.8916 l -1.28823,-0.5227 c -0.89616,1.5683 -2.01636,3.1179 -3.28592,4.5181 -1.4936,-1.3442 -3.08055,-2.7071 -4.49947,-3.846 l -0.97084,0.8215 c 1.45626,1.1949 3.04321,2.5951 4.55548,3.9954 -1.56828,1.6056 -3.34193,3.0245 -5.15292,4.1074 0.33606,0.224 0.85882,0.7654 1.10153,1.0268 1.73631,-1.1202 3.45395,-2.5765 5.02223,-4.2007 1.62429,1.5309 3.06188,3.0432 3.99538,4.2007 z"
         id="path9064" />
    </g>
    <g
       aria-label="分区"
       id="text1114-29"
       style="font-size:18.67px;line-height:1.25;font-family:'Noto Sans CJK SC';-inkscape-font-specification:'Noto Sans CJK SC, Normal';letter-spacing:0;fill:#ffffff">
      <path
         d="m 779.05332,1090.2531 c 1.56828,-1.6803 2.9872,-3.8647 3.93937,-6.2358 l -1.47493,-0.4107 c -1.08286,2.8378 -2.96853,5.4143 -5.19026,7.0199 0.35473,0.2614 0.9335,0.7842 1.19488,1.0642 0.48542,-0.4107 0.98951,-0.8588 1.45626,-1.3629 v 1.2882 h 3.58464 c -0.42941,3.1366 -1.45626,6.0864 -5.84371,7.5614 0.29872,0.2614 0.69079,0.8215 0.87749,1.1762 4.68617,-1.7177 5.91839,-5.0596 6.42248,-8.7376 h 5.05957 c -0.22404,4.6302 -0.48542,6.4598 -0.95217,6.9266 -0.20537,0.1867 -0.41074,0.2427 -0.80281,0.2427 -0.44808,0 -1.56828,-0.019 -2.78183,-0.1307 0.26138,0.3921 0.42941,0.9709 0.44808,1.3816 1.15754,0.075 2.31508,0.093 2.93119,0.037 0.65345,-0.037 1.04552,-0.1867 1.45626,-0.6534 0.63478,-0.7095 0.87749,-2.8379 1.13887,-8.4949 0.0187,-0.1867 0.0373,-0.6721 0.0373,-0.6721 z m 7.67337,-6.1611 c 1.3069,2.7445 3.52863,5.7317 5.47031,7.4307 0.26138,-0.3734 0.7468,-0.8962 1.1202,-1.1762 -1.94168,-1.4563 -4.18208,-4.2568 -5.33962,-6.7772 z"
         id="path9057" />
      <path
         d="m 797.34992,1098.4119 v -12.8263 h 14.0025 v -1.3256 h -15.36541 v 15.4775 h 15.83216 v -1.3256 z m 12.24752,-2.2964 c -0.98951,-1.1949 -2.50178,-2.6885 -4.16341,-4.2194 1.34424,-1.5123 2.55779,-3.1553 3.58464,-4.8916 l -1.28823,-0.5227 c -0.89616,1.5683 -2.01636,3.1179 -3.28592,4.5181 -1.4936,-1.3442 -3.08055,-2.7071 -4.49947,-3.846 l -0.97084,0.8215 c 1.45626,1.1949 3.04321,2.5951 4.55548,3.9954 -1.56828,1.6056 -3.34193,3.0245 -5.15292,4.1074 0.33606,0.224 0.85882,0.7654 1.10153,1.0268 1.73631,-1.1202 3.45395,-2.5765 5.02223,-4.2007 1.62429,1.5309 3.06188,3.0432 3.99538,4.2007 z"
         id="path9059" />
    </g>
    <g
       aria-label="分区"
       id="text1114-94"
       style="font-size:18.67px;line-height:1.25;font-family:'Noto Sans CJK SC';-inkscape-font-specification:'Noto Sans CJK SC, Normal';letter-spacing:0;fill:#ffffff">
      <path
         d="m 879.05332,1090.2531 c 1.56828,-1.6803 2.9872,-3.8647 3.93937,-6.2358 l -1.47493,-0.4107 c -1.08286,2.8378 -2.96853,5.4143 -5.19026,7.0199 0.35473,0.2614 0.9335,0.7842 1.19488,1.0642 0.48542,-0.4107 0.98951,-0.8588 1.45626,-1.3629 v 1.2882 h 3.58464 c -0.42941,3.1366 -1.45626,6.0864 -5.84371,7.5614 0.29872,0.2614 0.69079,0.8215 0.87749,1.1762 4.68617,-1.7177 5.91839,-5.0596 6.42248,-8.7376 h 5.05957 c -0.22404,4.6302 -0.48542,6.4598 -0.95217,6.9266 -0.20537,0.1867 -0.41074,0.2427 -0.80281,0.2427 -0.44808,0 -1.56828,-0.019 -2.78183,-0.1307 0.26138,0.3921 0.42941,0.9709 0.44808,1.3816 1.15754,0.075 2.31508,0.093 2.93119,0.037 0.65345,-0.037 1.04552,-0.1867 1.45626,-0.6534 0.63478,-0.7095 0.87749,-2.8379 1.13887,-8.4949 0.0187,-0.1867 0.0373,-0.6721 0.0373,-0.6721 z m 7.67337,-6.1611 c 1.3069,2.7445 3.52863,5.7317 5.47031,7.4307 0.26138,-0.3734 0.7468,-0.8962 1.1202,-1.1762 -1.94168,-1.4563 -4.18208,-4.2568 -5.33962,-6.7772 z"
         id="path9052" />
      <path
         d="m 897.34992,1098.4119 v -12.8263 h 14.0025 v -1.3256 h -15.36541 v 15.4775 h 15.83216 v -1.3256 z m 12.24752,-2.2964 c -0.98951,-1.1949 -2.50178,-2.6885 -4.16341,-4.2194 1.34424,-1.5123 2.55779,-3.1553 3.58464,-4.8916 l -1.28823,-0.5227 c -0.89616,1.5683 -2.01636,3.1179 -3.28592,4.5181 -1.4936,-1.3442 -3.08055,-2.7071 -4.49947,-3.846 l -0.97084,0.8215 c 1.45626,1.1949 3.04321,2.5951 4.55548,3.9954 -1.56828,1.6056 -3.34193,3.0245 -5.15292,4.1074 0.33606,0.224 0.85882,0.7654 1.10153,1.0268 1.73631,-1.1202 3.45395,-2.5765 5.02223,-4.2007 1.62429,1.5309 3.06188,3.0432 3.99538,4.2007 z"
         id="path9054" />
    </g>
    <g
       aria-label="卷组 2"
       id="text1114-8"
       style="font-size:18.67px;line-height:1.25;font-family:'Noto Sans CJK SC';-inkscape-font-specification:'Noto Sans CJK SC, Normal';letter-spacing:0;fill:#ffffff">
      <path
         d="m 828.95494,1183.2009 c 0.69079,-0.5788 1.32557,-1.2322 1.867,-1.9043 h 4.23809 c 0.48542,0.6908 1.06419,1.3442 1.71764,1.9043 z m 12.24752,-1.9043 v -1.2509 h -9.48436 c 0.44808,-0.6535 0.80281,-1.3256 1.1202,-2.0164 h 7.0946 v -1.2135 h -2.93119 c 0.54143,-0.6721 1.10153,-1.4936 1.60562,-2.2964 l -1.28823,-0.4108 c -0.39207,0.7842 -1.10153,1.923 -1.69897,2.7072 h -2.29641 c 0.39207,-1.0269 0.65345,-2.0537 0.80281,-3.0806 l -1.41892,-0.1493 c -0.14936,1.0455 -0.42941,2.147 -0.84015,3.2299 h -2.33375 l 0.84015,-0.4854 c -0.29872,-0.6535 -1.02685,-1.587 -1.66163,-2.2591 l -1.06419,0.5601 c 0.5601,0.6721 1.19488,1.5496 1.53094,2.1844 h -3.09922 v 1.2135 h 5.24627 c -0.33606,0.6908 -0.76547,1.3629 -1.25089,2.0164 h -5.15292 v 1.2509 h 4.07006 c -1.19488,1.2509 -2.72582,2.3337 -4.59282,3.1552 0.29872,0.2614 0.70946,0.7655 0.85882,1.1015 1.21355,-0.5601 2.29641,-1.2322 3.24858,-1.979 v 4.8169 c 0,1.6616 0.69079,2.0537 3.06188,2.0537 h 5.15292 c 2.07237,0 2.52045,-0.6161 2.74449,-3.0432 -0.3734,-0.093 -0.9335,-0.2988 -1.26956,-0.5041 -0.13069,1.9603 -0.31739,2.2964 -1.53094,2.2964 h -5.07824 c -1.47493,0 -1.73631,-0.1494 -1.73631,-0.8215 v -3.958 h 5.61967 c -0.11202,1.1948 -0.24271,1.7176 -0.42941,1.9043 -0.13069,0.1307 -0.28005,0.1494 -0.63478,0.1494 -0.29872,0 -1.23222,0 -2.16572,-0.093 0.1867,0.3174 0.31739,0.7468 0.35473,1.1015 1.00818,0.056 1.96035,0.056 2.4271,0.019 0.52276,-0.019 0.85882,-0.1307 1.15754,-0.4107 0.35473,-0.3734 0.54143,-1.2696 0.69079,-3.342 0.0187,-0.1306 0.0187,-0.3173 0.0187,-0.4294 1.15754,0.9895 2.53912,1.7924 3.99538,2.2778 0.20537,-0.3361 0.61611,-0.8588 0.91483,-1.1202 -2.01636,-0.5788 -3.9207,-1.7363 -5.19026,-3.1739 z"
         id="path9045" />
      <path
         d="m 845.79528,1184.0037 c 1.51227,-1.6429 3.02454,-3.678 4.31277,-5.769 l -1.10153,-0.6535 c -0.3734,0.6535 -0.80281,1.3256 -1.23222,1.9791 l -2.68848,0.2987 c 1.17621,-1.6056 2.31508,-3.6407 3.22991,-5.6384 l -1.25089,-0.5974 c -0.84015,2.2777 -2.29641,4.6862 -2.74449,5.3023 -0.42941,0.6348 -0.76547,1.0642 -1.10153,1.1389 0.14936,0.3734 0.35473,1.0268 0.41074,1.3069 0.28005,-0.1307 0.7468,-0.2614 3.28592,-0.5788 -0.89616,1.2135 -1.71764,2.203 -2.09104,2.5764 -0.59744,0.6908 -1.08286,1.1389 -1.47493,1.2509 0.14936,0.3174 0.35473,0.9522 0.41074,1.1949 0.41074,-0.2054 1.04552,-0.3734 6.10509,-1.4002 -0.0187,-0.2801 -0.0373,-0.7842 0,-1.1576 z m 3.93937,2.6698 c -2.38976,0.5415 -4.81686,1.1389 -6.40381,1.4376 l 0.24271,1.3443 c 1.75498,-0.4481 4.07006,-1.0269 6.29179,-1.6057 z m 2.93119,-1.2882 h 4.55548 v 3.622 h -4.55548 z m 4.55548,-9.559 v 3.4726 h -4.55548 v -3.4726 z m -4.55548,4.7421 h 4.55548 v 3.566 h -4.55548 z m 5.91839,8.4389 v -14.4506 h -7.24396 v 14.4506 h -1.88567 v 1.2696 h 10.73525 v -1.2696 z"
         id="path9047" />
      <path
         d="m 866.03358,1189.25 h 8.60687 v -1.4749 h -3.79001 c -0.69079,0 -1.53094,0.075 -2.2404,0.1307 3.21124,-3.0433 5.35829,-5.8251 5.35829,-8.5509 0,-2.4458 -1.53094,-4.0514 -3.97671,-4.0514 -1.73631,0 -2.91252,0.8028 -4.03272,2.0164 l 0.98951,0.9708 c 0.7468,-0.8962 1.71764,-1.5869 2.83784,-1.5869 1.69897,0 2.52045,1.1388 2.52045,2.7071 0,2.3524 -1.97902,5.0782 -6.27312,8.8309 z"
         id="path9049" />
    </g>
    <g
       aria-label="卷组 1"
       id="text1114-5"
       style="font-size:18.67px;line-height:1.25;font-family:'Noto Sans CJK SC';-inkscape-font-specification:'Noto Sans CJK SC, Normal';letter-spacing:0;fill:#ffffff">
      <path
         d="m 575.60497,1183.0609 c 0.69079,-0.5788 1.32557,-1.2322 1.867,-1.9043 h 4.23809 c 0.48542,0.6908 1.06419,1.3442 1.71764,1.9043 z m 12.24752,-1.9043 v -1.2509 h -9.48436 c 0.44808,-0.6535 0.80281,-1.3256 1.1202,-2.0164 h 7.0946 v -1.2135 h -2.93119 c 0.54143,-0.6722 1.10153,-1.4936 1.60562,-2.2964 l -1.28823,-0.4108 c -0.39207,0.7842 -1.10153,1.923 -1.69897,2.7072 h -2.29641 c 0.39207,-1.0269 0.65345,-2.0537 0.80281,-3.0806 l -1.41892,-0.1493 c -0.14936,1.0455 -0.42941,2.147 -0.84015,3.2299 h -2.33375 l 0.84015,-0.4855 c -0.29872,-0.6534 -1.02685,-1.5869 -1.66163,-2.259 l -1.06419,0.5601 c 0.5601,0.6721 1.19488,1.5496 1.53094,2.1844 h -3.09922 v 1.2135 h 5.24627 c -0.33606,0.6908 -0.76547,1.3629 -1.25089,2.0164 h -5.15292 v 1.2509 h 4.07006 c -1.19488,1.2509 -2.72582,2.3337 -4.59282,3.1552 0.29872,0.2614 0.70946,0.7655 0.85882,1.1015 1.21355,-0.5601 2.29641,-1.2322 3.24858,-1.979 v 4.8169 c 0,1.6616 0.69079,2.0537 3.06188,2.0537 h 5.15292 c 2.07237,0 2.52045,-0.6161 2.74449,-3.0432 -0.3734,-0.093 -0.9335,-0.2988 -1.26956,-0.5041 -0.13069,1.9603 -0.31739,2.2964 -1.53094,2.2964 h -5.07824 c -1.47493,0 -1.73631,-0.1494 -1.73631,-0.8215 v -3.958 h 5.61967 c -0.11202,1.1948 -0.24271,1.7176 -0.42941,1.9043 -0.13069,0.1307 -0.28005,0.1494 -0.63478,0.1494 -0.29872,0 -1.23222,0 -2.16572,-0.093 0.1867,0.3174 0.31739,0.7468 0.35473,1.1015 1.00818,0.056 1.96035,0.056 2.4271,0.019 0.52276,-0.019 0.85882,-0.1307 1.15754,-0.4107 0.35473,-0.3734 0.54143,-1.2696 0.69079,-3.342 0.0187,-0.1307 0.0187,-0.3174 0.0187,-0.4294 1.15754,0.9895 2.53912,1.7923 3.99538,2.2778 0.20537,-0.3361 0.61611,-0.8589 0.91483,-1.1202 -2.01636,-0.5788 -3.9207,-1.7363 -5.19026,-3.1739 z"
         id="path9038" />
      <path
         d="m 592.44531,1183.8637 c 1.51227,-1.6429 3.02454,-3.678 4.31277,-5.769 l -1.10153,-0.6535 c -0.3734,0.6535 -0.80281,1.3256 -1.23222,1.9791 l -2.68848,0.2987 c 1.17621,-1.6056 2.31508,-3.6407 3.22991,-5.6384 l -1.25089,-0.5974 c -0.84015,2.2777 -2.29641,4.6862 -2.74449,5.3023 -0.42941,0.6348 -0.76547,1.0642 -1.10153,1.1388 0.14936,0.3734 0.35473,1.0269 0.41074,1.3069 0.28005,-0.1306 0.7468,-0.2613 3.28592,-0.5787 -0.89616,1.2135 -1.71764,2.203 -2.09104,2.5764 -0.59744,0.6908 -1.08286,1.1389 -1.47493,1.2509 0.14936,0.3174 0.35473,0.9522 0.41074,1.1949 0.41074,-0.2054 1.04552,-0.3734 6.10509,-1.4002 -0.0187,-0.2801 -0.0373,-0.7842 0,-1.1576 z m 3.93937,2.6698 c -2.38976,0.5415 -4.81686,1.1389 -6.40381,1.4376 l 0.24271,1.3443 c 1.75498,-0.4481 4.07006,-1.0269 6.29179,-1.6057 z m 2.93119,-1.2882 h 4.55548 v 3.622 h -4.55548 z m 4.55548,-9.559 v 3.4726 h -4.55548 v -3.4726 z m -4.55548,4.7421 h 4.55548 v 3.566 h -4.55548 z m 5.91839,8.4389 v -14.4506 h -7.24396 v 14.4506 h -1.88567 v 1.2695 h 10.73525 v -1.2695 z"
         id="path9040" />
      <path
         d="m 613.50509,1189.11 h 7.50534 v -1.4189 h -2.74449 v -12.2662 h -1.3069 c -0.7468,0.4294 -1.62429,0.7468 -2.83784,0.9708 v 1.0829 h 2.4271 v 10.2125 h -3.04321 z"
         id="path9042" />
    </g>
    <g
       aria-label="逻辑卷 1"
       id="text1114-3"
       style="font-size:18.67px;line-height:1.25;font-family:'Noto Sans CJK SC';-inkscape-font-specification:'Noto Sans CJK SC, Normal';letter-spacing:0;fill:#ffffff">
      <path
         d="m 495.7291,1262.9494 h -1.97902 v -2.6698 h 1.97902 z m 0.98951,-2.6698 h 2.07237 v 2.6698 h -2.07237 z m 3.04321,0 h 2.14705 v 2.6698 h -2.14705 z m 0.9335,6.4598 c -0.59744,1.1575 -1.43759,2.1097 -2.46444,2.9125 -0.67212,-0.5974 -1.6803,-1.3629 -2.46444,-1.9417 l -0.9335,0.7655 c 0.7468,0.5601 1.66163,1.3256 2.31508,1.923 -1.45626,0.8962 -3.11789,1.5123 -4.8542,1.8857 0.26138,0.28 0.57877,0.7468 0.72813,1.0828 4.08873,-1.0268 7.86007,-3.1925 9.44702,-7.3746 l -0.85882,-0.4481 -0.24271,0.075 h -4.81686 c 0.31739,-0.4294 0.57877,-0.9148 0.78414,-1.3816 l -0.52276,-0.1494 h 6.3478 v -4.9475 h -10.62323 v 4.9475 h 3.47262 c -0.82148,1.7177 -2.35242,3.1553 -4.05139,4.0701 0.28005,0.224 0.76547,0.6908 0.98951,0.9335 0.97084,-0.5974 1.92301,-1.4002 2.74449,-2.3524 z m -9.31633,-4.6302 c -0.61611,-0.8215 -1.88567,-2.147 -2.91252,-3.0619 l -1.02685,0.7095 c 1.02685,0.9895 2.29641,2.3151 2.85651,3.1926 z m -0.5601,2.7258 h -3.97671 v 1.2883 h 2.63247 v 5.8063 c -0.87749,0.2801 -1.92301,1.1576 -3.00587,2.3711 l 0.98951,1.3069 c 0.97084,-1.3255 1.867,-2.4644 2.53912,-2.4644 0.39207,0 1.02685,0.6534 1.79232,1.1575 1.3069,0.8589 2.87518,1.0642 5.2276,1.0642 1.82966,0 5.20893,-0.112 6.49716,-0.1867 0.0187,-0.4294 0.26138,-1.1202 0.42941,-1.5122 -1.82966,0.2053 -4.61149,0.3734 -6.87056,0.3734 -2.14705,0 -3.734,-0.1494 -4.94755,-0.9522 -0.57877,-0.3734 -0.97084,-0.6908 -1.3069,-0.9335 z"
         id="path9029" />
      <path
         d="m 519.79473,1262.0719 h -4.94755 v -1.867 h 4.94755 z m 1.34424,-2.9125 h -7.58002 v 3.958 h 7.58002 z m -8.68155,10.6232 -2.01636,0.3547 v -2.4271 h 1.69897 v -1.2695 h -1.69897 v -2.8379 h -1.28823 v 2.8379 h -1.79232 c 0.52276,-1.2696 1.04552,-2.7819 1.47493,-4.3501 h 3.43528 v -1.3256 h -3.08055 c 0.16803,-0.6348 0.29872,-1.2882 0.42941,-1.923 l -1.36291,-0.2801 c -0.0933,0.7468 -0.24271,1.475 -0.41074,2.2031 h -2.33375 v 1.3256 h 2.03503 c -0.39207,1.4749 -0.78414,2.7071 -0.97084,3.1552 -0.31739,0.8215 -0.5601,1.4002 -0.87749,1.4936 0.16803,0.336 0.35473,0.9522 0.42941,1.2322 0.14936,-0.1494 0.72813,-0.2614 1.34424,-0.2614 h 1.6803 v 2.6698 c -1.41892,0.2614 -2.76316,0.4855 -3.79001,0.6535 l 0.31739,1.3442 c 1.00818,-0.2053 2.20306,-0.4481 3.47262,-0.6908 v 3.8461 h 1.28823 v -4.1074 c 0.69079,-0.1494 1.40025,-0.2988 2.10971,-0.4295 z m 2.55779,0.9148 h 4.70484 v 1.4936 c -1.66163,0.112 -3.26725,0.2427 -4.70484,0.3361 z m 4.70484,-5.3209 v 1.6056 h -4.70484 v -1.6056 z m -4.70484,2.6511 h 4.70484 v 1.6243 h -4.70484 z m 7.39332,3.9581 -1.38158,0.112 v -6.7212 h 1.26956 v -1.1576 h -9.82042 v 1.1576 h 1.25089 v 7.2253 l -1.69897,0.112 0.22404,1.2509 c 1.97902,-0.1494 4.70484,-0.3734 7.468,-0.5975 v 2.2404 h 1.3069 v -2.3524 l 1.38158,-0.112 z"
         id="path9031" />
      <path
         d="m 528.49495,1268.121 c 0.69079,-0.5788 1.32557,-1.2323 1.867,-1.9044 h 4.23809 c 0.48542,0.6908 1.06419,1.3443 1.71764,1.9044 z m 12.24752,-1.9044 v -1.2509 h -9.48436 c 0.44808,-0.6534 0.80281,-1.3255 1.1202,-2.0163 h 7.0946 v -1.2136 h -2.93119 c 0.54143,-0.6721 1.10153,-1.4936 1.60562,-2.2964 l -1.28823,-0.4107 c -0.39207,0.7841 -1.10153,1.923 -1.69897,2.7071 h -2.29641 c 0.39207,-1.0268 0.65345,-2.0537 0.80281,-3.0805 l -1.41892,-0.1494 c -0.14936,1.0455 -0.42941,2.1471 -0.84015,3.2299 h -2.33375 l 0.84015,-0.4854 c -0.29872,-0.6534 -1.02685,-1.5869 -1.66163,-2.2591 l -1.06419,0.5601 c 0.5601,0.6722 1.19488,1.5496 1.53094,2.1844 h -3.09922 v 1.2136 h 5.24627 c -0.33606,0.6908 -0.76547,1.3629 -1.25089,2.0163 h -5.15292 v 1.2509 h 4.07006 c -1.19488,1.2509 -2.72582,2.3338 -4.59282,3.1553 0.29872,0.2613 0.70946,0.7654 0.85882,1.1015 1.21355,-0.5601 2.29641,-1.2322 3.24858,-1.979 v 4.8168 c 0,1.6617 0.69079,2.0537 3.06188,2.0537 h 5.15292 c 2.07237,0 2.52045,-0.6161 2.74449,-3.0432 -0.3734,-0.093 -0.9335,-0.2987 -1.26956,-0.5041 -0.13069,1.9604 -0.31739,2.2964 -1.53094,2.2964 h -5.07824 c -1.47493,0 -1.73631,-0.1493 -1.73631,-0.8214 v -3.9581 h 5.61967 c -0.11202,1.1949 -0.24271,1.7177 -0.42941,1.9044 -0.13069,0.1306 -0.28005,0.1493 -0.63478,0.1493 -0.29872,0 -1.23222,0 -2.16572,-0.093 0.1867,0.3174 0.31739,0.7468 0.35473,1.1015 1.00818,0.056 1.96035,0.056 2.4271,0.019 0.52276,-0.019 0.85882,-0.1307 1.15754,-0.4108 0.35473,-0.3734 0.54143,-1.2695 0.69079,-3.3419 0.0187,-0.1307 0.0187,-0.3174 0.0187,-0.4294 1.15754,0.9895 2.53912,1.7923 3.99538,2.2777 0.20537,-0.336 0.61611,-0.8588 0.91483,-1.1202 -2.01636,-0.5787 -3.9207,-1.7363 -5.19026,-3.1739 z"
         id="path9033" />
      <path
         d="m 547.72507,1274.17 h 7.50534 v -1.4189 h -2.74449 v -12.2662 h -1.3069 c -0.7468,0.4294 -1.62429,0.7468 -2.83784,0.9709 v 1.0828 h 2.4271 v 10.2125 h -3.04321 z"
         id="path9035" />
    </g>
    <g
       aria-label="逻辑卷 2"
       id="text1114-1"
       style="font-size:18.67px;line-height:1.25;font-family:'Noto Sans CJK SC';-inkscape-font-specification:'Noto Sans CJK SC, Normal';letter-spacing:0;fill:#ffffff">
      <path
         d="m 643.07908,1263.0894 h -1.97902 v -2.6698 h 1.97902 z m 0.98951,-2.6698 h 2.07237 v 2.6698 h -2.07237 z m 3.04321,0 h 2.14705 v 2.6698 h -2.14705 z m 0.9335,6.4598 c -0.59744,1.1575 -1.43759,2.1097 -2.46444,2.9125 -0.67212,-0.5974 -1.6803,-1.3629 -2.46444,-1.9417 l -0.9335,0.7655 c 0.7468,0.5601 1.66163,1.3256 2.31508,1.923 -1.45626,0.8962 -3.11789,1.5123 -4.8542,1.8857 0.26138,0.28 0.57877,0.7468 0.72813,1.0828 4.08873,-1.0268 7.86007,-3.1925 9.44702,-7.3746 l -0.85882,-0.4481 -0.24271,0.075 h -4.81686 c 0.31739,-0.4294 0.57877,-0.9148 0.78414,-1.3816 l -0.52276,-0.1493 h 6.3478 v -4.9476 h -10.62323 v 4.9476 h 3.47262 c -0.82148,1.7176 -2.35242,3.1552 -4.05139,4.07 0.28005,0.2241 0.76547,0.6908 0.98951,0.9335 0.97084,-0.5974 1.92301,-1.4002 2.74449,-2.3524 z m -9.31633,-4.6302 c -0.61611,-0.8214 -1.88567,-2.147 -2.91252,-3.0618 l -1.02685,0.7094 c 1.02685,0.9895 2.29641,2.3151 2.85651,3.1926 z m -0.5601,2.7259 h -3.97671 v 1.2882 h 2.63247 v 5.8064 c -0.87749,0.28 -1.92301,1.1575 -3.00587,2.371 l 0.98951,1.3069 c 0.97084,-1.3255 1.867,-2.4644 2.53912,-2.4644 0.39207,0 1.02685,0.6535 1.79232,1.1575 1.3069,0.8589 2.87518,1.0642 5.2276,1.0642 1.82966,0 5.20893,-0.112 6.49716,-0.1867 0.0187,-0.4294 0.26138,-1.1202 0.42941,-1.5122 -1.82966,0.2053 -4.61149,0.3734 -6.87056,0.3734 -2.14705,0 -3.734,-0.1494 -4.94755,-0.9522 -0.57877,-0.3734 -0.97084,-0.6908 -1.3069,-0.9335 z"
         id="path9020" />
      <path
         d="m 667.14471,1262.2119 h -4.94755 v -1.867 h 4.94755 z m 1.34424,-2.9125 h -7.58002 v 3.958 h 7.58002 z m -8.68155,10.6232 -2.01636,0.3547 v -2.4271 h 1.69897 v -1.2695 h -1.69897 v -2.8379 h -1.28823 v 2.8379 h -1.79232 c 0.52276,-1.2696 1.04552,-2.7819 1.47493,-4.3501 h 3.43528 v -1.3256 h -3.08055 c 0.16803,-0.6348 0.29872,-1.2882 0.42941,-1.923 l -1.36291,-0.2801 c -0.0933,0.7468 -0.24271,1.475 -0.41074,2.2031 h -2.33375 v 1.3256 h 2.03503 c -0.39207,1.4749 -0.78414,2.7071 -0.97084,3.1552 -0.31739,0.8215 -0.5601,1.4002 -0.87749,1.4936 0.16803,0.3361 0.35473,0.9522 0.42941,1.2322 0.14936,-0.1493 0.72813,-0.2614 1.34424,-0.2614 h 1.6803 v 2.6698 c -1.41892,0.2614 -2.76316,0.4855 -3.79001,0.6535 l 0.31739,1.3442 c 1.00818,-0.2053 2.20306,-0.448 3.47262,-0.6908 v 3.8461 h 1.28823 v -4.1074 c 0.69079,-0.1494 1.40025,-0.2988 2.10971,-0.4294 z m 2.55779,0.9148 h 4.70484 v 1.4936 c -1.66163,0.1121 -3.26725,0.2427 -4.70484,0.3361 z m 4.70484,-5.3209 v 1.6056 h -4.70484 v -1.6056 z m -4.70484,2.6511 h 4.70484 v 1.6243 h -4.70484 z m 7.39332,3.9581 -1.38158,0.112 v -6.7212 h 1.26956 v -1.1576 h -9.82042 v 1.1576 h 1.25089 v 7.2253 l -1.69897,0.112 0.22404,1.2509 c 1.97902,-0.1494 4.70484,-0.3734 7.468,-0.5975 v 2.2404 h 1.3069 v -2.3524 l 1.38158,-0.112 z"
         id="path9022" />
      <path
         d="m 675.84493,1268.261 c 0.69079,-0.5788 1.32557,-1.2322 1.867,-1.9044 h 4.23809 c 0.48542,0.6908 1.06419,1.3443 1.71764,1.9044 z m 12.24752,-1.9044 v -1.2509 h -9.48436 c 0.44808,-0.6534 0.80281,-1.3255 1.1202,-2.0163 h 7.0946 v -1.2136 h -2.93119 c 0.54143,-0.6721 1.10153,-1.4936 1.60562,-2.2964 l -1.28823,-0.4107 c -0.39207,0.7841 -1.10153,1.923 -1.69897,2.7071 h -2.29641 c 0.39207,-1.0268 0.65345,-2.0537 0.80281,-3.0805 l -1.41892,-0.1494 c -0.14936,1.0455 -0.42941,2.1471 -0.84015,3.2299 h -2.33375 l 0.84015,-0.4854 c -0.29872,-0.6534 -1.02685,-1.5869 -1.66163,-2.2591 l -1.06419,0.5601 c 0.5601,0.6722 1.19488,1.5497 1.53094,2.1844 h -3.09922 v 1.2136 h 5.24627 c -0.33606,0.6908 -0.76547,1.3629 -1.25089,2.0163 h -5.15292 v 1.2509 h 4.07006 c -1.19488,1.2509 -2.72582,2.3338 -4.59282,3.1553 0.29872,0.2613 0.70946,0.7654 0.85882,1.1015 1.21355,-0.5601 2.29641,-1.2322 3.24858,-1.979 v 4.8168 c 0,1.6617 0.69079,2.0537 3.06188,2.0537 h 5.15292 c 2.07237,0 2.52045,-0.6161 2.74449,-3.0432 -0.3734,-0.093 -0.9335,-0.2987 -1.26956,-0.5041 -0.13069,1.9604 -0.31739,2.2964 -1.53094,2.2964 h -5.07824 c -1.47493,0 -1.73631,-0.1493 -1.73631,-0.8214 v -3.9581 h 5.61967 c -0.11202,1.1949 -0.24271,1.7177 -0.42941,1.9044 -0.13069,0.1307 -0.28005,0.1493 -0.63478,0.1493 -0.29872,0 -1.23222,0 -2.16572,-0.093 0.1867,0.3174 0.31739,0.7468 0.35473,1.1015 1.00818,0.056 1.96035,0.056 2.4271,0.019 0.52276,-0.019 0.85882,-0.1307 1.15754,-0.4108 0.35473,-0.3734 0.54143,-1.2695 0.69079,-3.3419 0.0187,-0.1307 0.0187,-0.3174 0.0187,-0.4294 1.15754,0.9895 2.53912,1.7923 3.99538,2.2777 0.20537,-0.336 0.61611,-0.8588 0.91483,-1.1202 -2.01636,-0.5787 -3.9207,-1.7363 -5.19026,-3.1739 z"
         id="path9024" />
      <path
         d="m 694.25357,1274.3101 h 8.60687 v -1.475 h -3.79001 c -0.69079,0 -1.53094,0.075 -2.2404,0.1307 3.21124,-3.0432 5.35829,-5.825 5.35829,-8.5508 0,-2.4458 -1.53094,-4.0514 -3.97671,-4.0514 -1.73631,0 -2.91252,0.8028 -4.03272,2.0163 l 0.98951,0.9709 c 0.7468,-0.8962 1.71764,-1.587 2.83784,-1.587 1.69897,0 2.52045,1.1389 2.52045,2.7072 0,2.3524 -1.97902,5.0782 -6.27312,8.8309 z"
         id="path9026" />
    </g>
    <g
       aria-label="逻辑卷 3"
       id="text1114-32"
       style="font-size:18.67px;line-height:1.25;font-family:'Noto Sans CJK SC';-inkscape-font-specification:'Noto Sans CJK SC, Normal';letter-spacing:0;fill:#ffffff">
      <path
         d="m 768.10911,1263.0694 h -1.97902 v -2.6698 h 1.97902 z m 0.98951,-2.6698 h 2.07237 v 2.6698 h -2.07237 z m 3.04321,0 h 2.14705 v 2.6698 h -2.14705 z m 0.9335,6.4598 c -0.59744,1.1575 -1.43759,2.1097 -2.46444,2.9125 -0.67212,-0.5974 -1.6803,-1.3629 -2.46444,-1.9417 l -0.9335,0.7655 c 0.7468,0.5601 1.66163,1.3256 2.31508,1.923 -1.45626,0.8962 -3.11789,1.5123 -4.8542,1.8857 0.26138,0.28 0.57877,0.7468 0.72813,1.0828 4.08873,-1.0268 7.86007,-3.1925 9.44702,-7.3746 l -0.85882,-0.4481 -0.24271,0.075 h -4.81686 c 0.31739,-0.4294 0.57877,-0.9149 0.78414,-1.3816 l -0.52276,-0.1494 h 6.3478 v -4.9475 h -10.62323 v 4.9475 h 3.47262 c -0.82148,1.7177 -2.35242,3.1553 -4.05139,4.0701 0.28005,0.224 0.76547,0.6908 0.98951,0.9335 0.97084,-0.5974 1.92301,-1.4003 2.74449,-2.3524 z m -9.31633,-4.6302 c -0.61611,-0.8215 -1.88567,-2.147 -2.91252,-3.0619 l -1.02685,0.7095 c 1.02685,0.9895 2.29641,2.3151 2.85651,3.1926 z m -0.5601,2.7258 h -3.97671 v 1.2883 h 2.63247 v 5.8063 c -0.87749,0.2801 -1.92301,1.1576 -3.00587,2.3711 l 0.98951,1.3069 c 0.97084,-1.3255 1.867,-2.4644 2.53912,-2.4644 0.39207,0 1.02685,0.6534 1.79232,1.1575 1.3069,0.8588 2.87518,1.0642 5.2276,1.0642 1.82966,0 5.20893,-0.112 6.49716,-0.1867 0.0187,-0.4294 0.26138,-1.1202 0.42941,-1.5123 -1.82966,0.2054 -4.61149,0.3734 -6.87056,0.3734 -2.14705,0 -3.734,-0.1493 -4.94755,-0.9521 -0.57877,-0.3734 -0.97084,-0.6908 -1.3069,-0.9335 z"
         id="path9011" />
      <path
         d="m 792.17474,1262.1919 h -4.94755 v -1.867 h 4.94755 z m 1.34424,-2.9125 h -7.58002 v 3.958 h 7.58002 z m -8.68155,10.6232 -2.01636,0.3547 v -2.4271 h 1.69897 v -1.2695 h -1.69897 v -2.8379 h -1.28823 v 2.8379 h -1.79232 c 0.52276,-1.2696 1.04552,-2.7819 1.47493,-4.3502 h 3.43528 v -1.3255 h -3.08055 c 0.16803,-0.6348 0.29872,-1.2883 0.42941,-1.923 l -1.36291,-0.2801 c -0.0933,0.7468 -0.24271,1.4749 -0.41074,2.2031 h -2.33375 v 1.3255 h 2.03503 c -0.39207,1.475 -0.78414,2.7072 -0.97084,3.1553 -0.31739,0.8215 -0.5601,1.4002 -0.87749,1.4936 0.16803,0.336 0.35473,0.9521 0.42941,1.2322 0.14936,-0.1494 0.72813,-0.2614 1.34424,-0.2614 h 1.6803 v 2.6698 c -1.41892,0.2614 -2.76316,0.4854 -3.79001,0.6535 l 0.31739,1.3442 c 1.00818,-0.2054 2.20306,-0.4481 3.47262,-0.6908 v 3.846 h 1.28823 v -4.1074 c 0.69079,-0.1493 1.40025,-0.2987 2.10971,-0.4294 z m 2.55779,0.9148 h 4.70484 v 1.4936 c -1.66163,0.112 -3.26725,0.2427 -4.70484,0.3361 z m 4.70484,-5.3209 v 1.6056 h -4.70484 v -1.6056 z m -4.70484,2.6511 h 4.70484 v 1.6243 h -4.70484 z m 7.39332,3.958 -1.38158,0.1121 v -6.7212 h 1.26956 v -1.1576 h -9.82042 v 1.1576 h 1.25089 v 7.2253 l -1.69897,0.112 0.22404,1.2509 c 1.97902,-0.1494 4.70484,-0.3734 7.468,-0.5975 v 2.2404 h 1.3069 v -2.3524 l 1.38158,-0.112 z"
         id="path9013" />
      <path
         d="m 800.87496,1268.241 c 0.69079,-0.5788 1.32557,-1.2323 1.867,-1.9044 h 4.23809 c 0.48542,0.6908 1.06419,1.3443 1.71764,1.9044 z m 12.24752,-1.9044 v -1.2509 h -9.48436 c 0.44808,-0.6534 0.80281,-1.3255 1.1202,-2.0163 h 7.0946 v -1.2136 h -2.93119 c 0.54143,-0.6721 1.10153,-1.4936 1.60562,-2.2964 l -1.28823,-0.4107 c -0.39207,0.7841 -1.10153,1.923 -1.69897,2.7071 h -2.29641 c 0.39207,-1.0268 0.65345,-2.0537 0.80281,-3.0805 l -1.41892,-0.1494 c -0.14936,1.0455 -0.42941,2.1471 -0.84015,3.2299 h -2.33375 l 0.84015,-0.4854 c -0.29872,-0.6535 -1.02685,-1.587 -1.66163,-2.2591 l -1.06419,0.5601 c 0.5601,0.6721 1.19488,1.5496 1.53094,2.1844 h -3.09922 v 1.2136 h 5.24627 c -0.33606,0.6908 -0.76547,1.3629 -1.25089,2.0163 h -5.15292 v 1.2509 h 4.07006 c -1.19488,1.2509 -2.72582,2.3338 -4.59282,3.1552 0.29872,0.2614 0.70946,0.7655 0.85882,1.1016 1.21355,-0.5601 2.29641,-1.2322 3.24858,-1.979 v 4.8168 c 0,1.6616 0.69079,2.0537 3.06188,2.0537 h 5.15292 c 2.07237,0 2.52045,-0.6161 2.74449,-3.0432 -0.3734,-0.093 -0.9335,-0.2987 -1.26956,-0.5041 -0.13069,1.9604 -0.31739,2.2964 -1.53094,2.2964 h -5.07824 c -1.47493,0 -1.73631,-0.1493 -1.73631,-0.8215 v -3.958 h 5.61967 c -0.11202,1.1949 -0.24271,1.7176 -0.42941,1.9043 -0.13069,0.1307 -0.28005,0.1494 -0.63478,0.1494 -0.29872,0 -1.23222,0 -2.16572,-0.093 0.1867,0.3173 0.31739,0.7468 0.35473,1.1015 1.00818,0.056 1.96035,0.056 2.4271,0.019 0.52276,-0.019 0.85882,-0.1307 1.15754,-0.4108 0.35473,-0.3734 0.54143,-1.2695 0.69079,-3.3419 0.0187,-0.1307 0.0187,-0.3174 0.0187,-0.4294 1.15754,0.9895 2.53912,1.7923 3.99538,2.2777 0.20537,-0.336 0.61611,-0.8588 0.91483,-1.1202 -2.01636,-0.5788 -3.9207,-1.7363 -5.19026,-3.1739 z"
         id="path9015" />
      <path
         d="m 823.391,1274.5327 c 2.4271,0 4.38745,-1.4562 4.38745,-3.902 0,-1.867 -1.28823,-3.0992 -2.91252,-3.4726 v -0.075 c 1.45626,-0.5414 2.44577,-1.6429 2.44577,-3.3046 0,-2.203 -1.6803,-3.4353 -3.97671,-3.4353 -1.58695,0 -2.8005,0.6908 -3.82735,1.643 l 0.91483,1.0829 c 0.76547,-0.7655 1.73631,-1.3256 2.83784,-1.3629 1.41892,0.037 2.31508,0.8774 2.31508,2.203 0,1.4749 -0.97084,2.6138 -3.79001,2.6138 v 1.3069 c 3.15523,0 4.25676,1.1015 4.25676,2.7445 0,1.5683 -1.15754,2.5391 -2.78183,2.5391 -1.54961,0 -2.59513,-0.7281 -3.39794,-1.5683 l -0.85882,1.1202 c 0.89616,0.9709 2.2404,1.867 4.38745,1.867 z"
         id="path9017" />
    </g>
    <g
       aria-label="逻辑卷 4"
       id="text1114-55"
       style="font-size:18.67px;line-height:1.25;font-family:'Noto Sans CJK SC';-inkscape-font-specification:'Noto Sans CJK SC, Normal';letter-spacing:0;fill:#ffffff">
      <path
         d="m 869.36912,1262.8593 h -1.97902 v -2.6698 h 1.97902 z m 0.98951,-2.6698 h 2.07237 v 2.6698 h -2.07237 z m 3.04321,0 h 2.14705 v 2.6698 h -2.14705 z m 0.9335,6.4598 c -0.59744,1.1575 -1.43759,2.1097 -2.46444,2.9125 -0.67212,-0.5974 -1.6803,-1.3629 -2.46444,-1.9417 l -0.9335,0.7655 c 0.7468,0.5601 1.66163,1.3256 2.31508,1.923 -1.45626,0.8962 -3.11789,1.5123 -4.8542,1.8857 0.26138,0.28 0.57877,0.7468 0.72813,1.0828 4.08873,-1.0268 7.86007,-3.1925 9.44702,-7.3746 l -0.85882,-0.4481 -0.24271,0.075 h -4.81686 c 0.31739,-0.4294 0.57877,-0.9148 0.78414,-1.3816 l -0.52276,-0.1493 h 6.3478 v -4.9476 h -10.62323 v 4.9476 h 3.47262 c -0.82148,1.7176 -2.35242,3.1552 -4.05139,4.07 0.28005,0.2241 0.76547,0.6908 0.98951,0.9335 0.97084,-0.5974 1.92301,-1.4002 2.74449,-2.3524 z m -9.31633,-4.6302 c -0.61611,-0.8214 -1.88567,-2.147 -2.91252,-3.0618 l -1.02685,0.7094 c 1.02685,0.9895 2.29641,2.3151 2.85651,3.1926 z m -0.5601,2.7259 h -3.97671 v 1.2882 h 2.63247 v 5.8064 c -0.87749,0.28 -1.92301,1.1575 -3.00587,2.371 l 0.98951,1.3069 c 0.97084,-1.3255 1.867,-2.4644 2.53912,-2.4644 0.39207,0 1.02685,0.6535 1.79232,1.1575 1.3069,0.8589 2.87518,1.0642 5.2276,1.0642 1.82966,0 5.20893,-0.112 6.49716,-0.1867 0.0187,-0.4294 0.26138,-1.1202 0.42941,-1.5122 -1.82966,0.2053 -4.61149,0.3734 -6.87056,0.3734 -2.14705,0 -3.734,-0.1494 -4.94755,-0.9522 -0.57877,-0.3734 -0.97084,-0.6908 -1.3069,-0.9335 z"
         id="path9002" />
      <path
         d="m 893.43475,1261.9818 h -4.94755 v -1.867 h 4.94755 z m 1.34424,-2.9125 h -7.58002 v 3.958 h 7.58002 z m -8.68155,10.6232 -2.01636,0.3547 v -2.4271 h 1.69897 v -1.2695 h -1.69897 v -2.8379 h -1.28823 v 2.8379 h -1.79232 c 0.52276,-1.2696 1.04552,-2.7819 1.47493,-4.3501 h 3.43528 v -1.3256 h -3.08055 c 0.16803,-0.6348 0.29872,-1.2882 0.42941,-1.923 l -1.36291,-0.2801 c -0.0933,0.7468 -0.24271,1.475 -0.41074,2.2031 h -2.33375 v 1.3256 h 2.03503 c -0.39207,1.4749 -0.78414,2.7071 -0.97084,3.1552 -0.31739,0.8215 -0.5601,1.4002 -0.87749,1.4936 0.16803,0.3361 0.35473,0.9522 0.42941,1.2322 0.14936,-0.1493 0.72813,-0.2614 1.34424,-0.2614 h 1.6803 v 2.6698 c -1.41892,0.2614 -2.76316,0.4855 -3.79001,0.6535 l 0.31739,1.3442 c 1.00818,-0.2053 2.20306,-0.448 3.47262,-0.6908 v 3.8461 h 1.28823 v -4.1074 c 0.69079,-0.1494 1.40025,-0.2988 2.10971,-0.4294 z m 2.55779,0.9148 h 4.70484 v 1.4936 c -1.66163,0.1121 -3.26725,0.2427 -4.70484,0.3361 z m 4.70484,-5.3209 v 1.6056 h -4.70484 v -1.6056 z m -4.70484,2.6511 h 4.70484 v 1.6243 h -4.70484 z m 7.39332,3.9581 -1.38158,0.112 v -6.7212 h 1.26956 v -1.1576 h -9.82042 v 1.1576 h 1.25089 v 7.2253 l -1.69897,0.112 0.22404,1.2509 c 1.97902,-0.1494 4.70484,-0.3734 7.468,-0.5975 v 2.2404 h 1.3069 v -2.3524 l 1.38158,-0.112 z"
         id="path9004" />
      <path
         d="m 902.13497,1268.0309 c 0.69079,-0.5788 1.32557,-1.2322 1.867,-1.9044 h 4.23809 c 0.48542,0.6908 1.06419,1.3443 1.71764,1.9044 z m 12.24752,-1.9044 v -1.2509 h -9.48436 c 0.44808,-0.6534 0.80281,-1.3255 1.1202,-2.0163 h 7.0946 v -1.2136 h -2.93119 c 0.54143,-0.6721 1.10153,-1.4936 1.60562,-2.2964 l -1.28823,-0.4107 c -0.39207,0.7841 -1.10153,1.923 -1.69897,2.7071 h -2.29641 c 0.39207,-1.0268 0.65345,-2.0537 0.80281,-3.0805 l -1.41892,-0.1494 c -0.14936,1.0455 -0.42941,2.1471 -0.84015,3.2299 h -2.33375 l 0.84015,-0.4854 c -0.29872,-0.6534 -1.02685,-1.5869 -1.66163,-2.2591 l -1.06419,0.5601 c 0.5601,0.6722 1.19488,1.5497 1.53094,2.1844 h -3.09922 v 1.2136 h 5.24627 c -0.33606,0.6908 -0.76547,1.3629 -1.25089,2.0163 h -5.15292 v 1.2509 h 4.07006 c -1.19488,1.2509 -2.72582,2.3338 -4.59282,3.1553 0.29872,0.2613 0.70946,0.7654 0.85882,1.1015 1.21355,-0.5601 2.29641,-1.2322 3.24858,-1.979 v 4.8168 c 0,1.6617 0.69079,2.0537 3.06188,2.0537 h 5.15292 c 2.07237,0 2.52045,-0.6161 2.74449,-3.0432 -0.3734,-0.093 -0.9335,-0.2987 -1.26956,-0.5041 -0.13069,1.9604 -0.31739,2.2964 -1.53094,2.2964 h -5.07824 c -1.47493,0 -1.73631,-0.1493 -1.73631,-0.8214 v -3.9581 h 5.61967 c -0.11202,1.1949 -0.24271,1.7177 -0.42941,1.9044 -0.13069,0.1307 -0.28005,0.1493 -0.63478,0.1493 -0.29872,0 -1.23222,0 -2.16572,-0.093 0.1867,0.3174 0.31739,0.7468 0.35473,1.1015 1.00818,0.056 1.96035,0.056 2.4271,0.019 0.52276,-0.019 0.85882,-0.1307 1.15754,-0.4108 0.35473,-0.3734 0.54143,-1.2695 0.69079,-3.3419 0.0187,-0.1307 0.0187,-0.3174 0.0187,-0.4294 1.15754,0.9895 2.53912,1.7923 3.99538,2.2777 0.20537,-0.336 0.61611,-0.8588 0.91483,-1.1202 -2.01636,-0.5787 -3.9207,-1.7363 -5.19026,-3.1739 z"
         id="path9006" />
      <path
         d="m 921.86918,1268.9457 3.11789,-4.6675 c 0.39207,-0.6721 0.76547,-1.3442 1.10153,-2.0164 h 0.0747 c -0.0373,0.7095 -0.11202,1.811 -0.11202,2.4832 v 4.2007 z m 7.61736,0 h -1.81099 v -8.5509 h -1.88567 l -5.69435,8.7936 v 1.1202 h 5.95573 v 3.7714 h 1.62429 v -3.7714 h 1.81099 z"
         id="path9008" />
    </g>
    <g
       aria-label="挂载点"
       id="text1114-65"
       style="font-size:18.67px;line-height:1.25;font-family:'Noto Sans CJK SC';-inkscape-font-specification:'Noto Sans CJK SC, Normal';letter-spacing:0;fill:#ffffff">
      <path
         d="M 884.49184,1344.7577 H 879.787 v -2.7258 h 3.80868 v -1.2696 H 879.787 v -2.4271 h -1.38158 v 2.4271 h -3.84602 v 1.2696 h 3.84602 v 2.7258 h -4.49947 v 1.3069 h 10.58589 z m -10.66057,2.9125 -0.16803,-1.2509 -2.09104,0.5788 v -3.7153 h 2.0537 v -1.3069 h -2.0537 v -3.734 h -1.36291 v 3.734 h -2.33375 v 1.3069 h 2.33375 v 4.0887 c -0.95217,0.2614 -1.84833,0.4854 -2.55779,0.6534 l 0.39207,1.3629 c 0.67212,-0.1867 1.40025,-0.4107 2.16572,-0.6534 v 4.7795 c 0,0.2614 -0.11202,0.3547 -0.3734,0.3547 -0.22404,0 -1.02685,0.019 -1.90434,-0.019 0.16803,0.3734 0.3734,0.9335 0.42941,1.2882 1.26956,0 2.0537,-0.037 2.52045,-0.2614 0.48542,-0.2053 0.69079,-0.5787 0.69079,-1.3629 v -5.1716 z m 5.95573,5.6383 v -3.1178 h 4.08873 v -1.2883 H 879.787 v -2.147 h -1.38158 v 2.147 h -4.14474 v 1.2883 h 4.14474 v 3.1178 h -5.39563 v 1.3256 h 11.68742 v -1.3256 z"
         id="path8995" />
      <path
         d="m 902.48972,1340.9863 c -0.42941,-0.6907 -1.45626,-1.6989 -2.29641,-2.3524 l -0.98951,0.6348 c 0.84015,0.7281 1.82966,1.755 2.25907,2.4458 z m -6.08642,10.2685 c -1.10153,0.1121 -2.25907,0.2241 -3.3606,0.3174 v -1.7363 h 2.94986 v -1.1949 h -2.94986 v -1.5122 h -1.3069 v 1.5122 h -2.57646 c 0.39207,-0.6161 0.80281,-1.3442 1.19488,-2.091 h 6.03041 v -1.1389 h -5.48898 c 0.22404,-0.4667 0.42941,-0.9521 0.61611,-1.4376 l -1.36291,-0.3734 c -0.1867,0.6162 -0.42941,1.2323 -0.69079,1.811 h -2.6138 v 1.1389 h 2.10971 c -0.31739,0.6161 -0.5601,1.1202 -0.70946,1.3442 -0.29872,0.5041 -0.57877,0.8775 -0.85882,0.9335 0.16803,0.3361 0.35473,0.9896 0.42941,1.2696 0.16803,-0.1494 0.72813,-0.2614 1.4936,-0.2614 h 2.4271 v 1.8484 c -1.92301,0.168 -3.65932,0.3173 -4.98489,0.4107 l 0.14936,1.2882 c 1.34424,-0.1493 3.02454,-0.3174 4.83553,-0.5041 v 2.3338 h 1.3069 v -2.4458 c 1.1202,-0.112 2.2404,-0.224 3.3606,-0.3547 z m 4.70484,-6.7398 c -0.46675,1.755 -1.17621,3.4913 -2.03503,5.0409 -0.33606,-1.643 -0.59744,-3.678 -0.72813,-5.9931 h 4.83553 v -1.1202 h -4.91021 c -0.056,-1.3069 -0.0747,-2.7071 -0.056,-4.1634 h -1.36291 c 0,1.4189 0.0373,2.8378 0.11202,4.1634 h -4.57415 v -1.5869 h 3.28592 v -1.1202 h -3.28592 v -1.4936 h -1.32557 v 1.4936 h -3.5473 v 1.1202 h 3.5473 v 1.5869 h -4.49947 v 1.1202 h 10.4552 c 0.16803,2.9499 0.52276,5.5637 1.08286,7.5614 -0.89616,1.2882 -1.94168,2.4084 -3.13656,3.2485 0.33606,0.2427 0.7468,0.6535 0.97084,0.9522 0.98951,-0.7841 1.88567,-1.699 2.68848,-2.7258 0.69079,1.5869 1.60562,2.5204 2.81917,2.5204 1.28823,0 1.73631,-0.8401 1.96035,-3.6219 -0.33606,-0.1307 -0.80281,-0.3921 -1.08286,-0.7095 -0.11202,2.1844 -0.29872,2.9872 -0.76547,2.9872 -0.80281,0 -1.4936,-0.8962 -2.01636,-2.5018 1.21355,-1.9043 2.16572,-4.1074 2.81917,-6.4038 z"
         id="path8997" />
      <path
         d="m 918.32188,1348.5104 h -9.68973 v -3.3233 h 9.68973 z m 1.40025,-4.6302 h -5.67568 v -2.3524 h 7.05726 v -1.3069 h -7.05726 v -1.9977 h -1.38158 v 5.657 h -5.35829 v 5.9371 h 12.41555 z m -13.4424,11.3887 c 1.00818,-0.9708 1.96035,-2.5391 2.57646,-3.9954 l -1.3069,-0.336 c -0.59744,1.3815 -1.54961,2.8751 -2.53912,3.7153 z m 4.25676,-3.8274 c 0.24271,1.1949 0.41074,2.7445 0.41074,3.678 l 1.38158,-0.1867 c -0.0187,-0.8961 -0.22404,-2.4271 -0.46675,-3.6033 z m 3.82735,0.019 c 0.5601,1.1389 1.1202,2.6885 1.3069,3.6033 l 1.34424,-0.3174 c -0.22404,-0.9335 -0.82148,-2.4457 -1.40025,-3.5659 z m 3.79001,-0.168 c 0.9335,1.1949 1.96035,2.8005 2.38976,3.8273 l 1.3069,-0.5227 c -0.46675,-1.0455 -1.53094,-2.5952 -2.48311,-3.7714 z"
         id="path8999" />
    </g>
    <g
       aria-label="挂载点"
       id="text1114-37"
       style="font-size:18.67px;line-height:1.25;font-family:'Noto Sans CJK SC';-inkscape-font-specification:'Noto Sans CJK SC, Normal';letter-spacing:0;fill:#ffffff">
      <path
         d="M 784.49184,1344.7577 H 779.787 v -2.7258 h 3.80868 v -1.2696 H 779.787 v -2.4271 h -1.38158 v 2.4271 h -3.84602 v 1.2696 h 3.84602 v 2.7258 h -4.49947 v 1.3069 h 10.58589 z m -10.66057,2.9125 -0.16803,-1.2509 -2.09104,0.5788 v -3.7153 h 2.0537 v -1.3069 h -2.0537 v -3.734 h -1.36291 v 3.734 h -2.33375 v 1.3069 h 2.33375 v 4.0887 c -0.95217,0.2614 -1.84833,0.4854 -2.55779,0.6534 l 0.39207,1.3629 c 0.67212,-0.1867 1.40025,-0.4107 2.16572,-0.6534 v 4.7795 c 0,0.2614 -0.11202,0.3547 -0.3734,0.3547 -0.22404,0 -1.02685,0.019 -1.90434,-0.019 0.16803,0.3734 0.3734,0.9335 0.42941,1.2882 1.26956,0 2.0537,-0.037 2.52045,-0.2614 0.48542,-0.2053 0.69079,-0.5787 0.69079,-1.3629 v -5.1716 z m 5.95573,5.6383 v -3.1178 h 4.08873 v -1.2883 H 779.787 v -2.147 h -1.38158 v 2.147 h -4.14474 v 1.2883 h 4.14474 v 3.1178 h -5.39563 v 1.3256 h 11.68742 v -1.3256 z"
         id="path8988" />
      <path
         d="m 802.48972,1340.9863 c -0.42941,-0.6907 -1.45626,-1.6989 -2.29641,-2.3524 l -0.98951,0.6348 c 0.84015,0.7281 1.82966,1.755 2.25907,2.4458 z m -6.08642,10.2685 c -1.10153,0.1121 -2.25907,0.2241 -3.3606,0.3174 v -1.7363 h 2.94986 v -1.1949 h -2.94986 v -1.5122 h -1.3069 v 1.5122 h -2.57646 c 0.39207,-0.6161 0.80281,-1.3442 1.19488,-2.091 h 6.03041 v -1.1389 h -5.48898 c 0.22404,-0.4667 0.42941,-0.9521 0.61611,-1.4376 l -1.36291,-0.3734 c -0.1867,0.6162 -0.42941,1.2323 -0.69079,1.811 h -2.6138 v 1.1389 h 2.10971 c -0.31739,0.6161 -0.5601,1.1202 -0.70946,1.3442 -0.29872,0.5041 -0.57877,0.8775 -0.85882,0.9335 0.16803,0.3361 0.35473,0.9896 0.42941,1.2696 0.16803,-0.1494 0.72813,-0.2614 1.4936,-0.2614 h 2.4271 v 1.8484 c -1.92301,0.168 -3.65932,0.3173 -4.98489,0.4107 l 0.14936,1.2882 c 1.34424,-0.1493 3.02454,-0.3174 4.83553,-0.5041 v 2.3338 h 1.3069 v -2.4458 c 1.1202,-0.112 2.2404,-0.224 3.3606,-0.3547 z m 4.70484,-6.7398 c -0.46675,1.755 -1.17621,3.4913 -2.03503,5.0409 -0.33606,-1.643 -0.59744,-3.678 -0.72813,-5.9931 h 4.83553 v -1.1202 h -4.91021 c -0.056,-1.3069 -0.0747,-2.7071 -0.056,-4.1634 h -1.36291 c 0,1.4189 0.0373,2.8378 0.11202,4.1634 h -4.57415 v -1.5869 h 3.28592 v -1.1202 h -3.28592 v -1.4936 h -1.32557 v 1.4936 h -3.5473 v 1.1202 h 3.5473 v 1.5869 h -4.49947 v 1.1202 h 10.4552 c 0.16803,2.9499 0.52276,5.5637 1.08286,7.5614 -0.89616,1.2882 -1.94168,2.4084 -3.13656,3.2485 0.33606,0.2427 0.7468,0.6535 0.97084,0.9522 0.98951,-0.7841 1.88567,-1.699 2.68848,-2.7258 0.69079,1.5869 1.60562,2.5204 2.81917,2.5204 1.28823,0 1.73631,-0.8401 1.96035,-3.6219 -0.33606,-0.1307 -0.80281,-0.3921 -1.08286,-0.7095 -0.11202,2.1844 -0.29872,2.9872 -0.76547,2.9872 -0.80281,0 -1.4936,-0.8962 -2.01636,-2.5018 1.21355,-1.9043 2.16572,-4.1074 2.81917,-6.4038 z"
         id="path8990" />
      <path
         d="m 818.32188,1348.5104 h -9.68973 v -3.3233 h 9.68973 z m 1.40025,-4.6302 h -5.67568 v -2.3524 h 7.05726 v -1.3069 h -7.05726 v -1.9977 h -1.38158 v 5.657 h -5.35829 v 5.9371 h 12.41555 z m -13.4424,11.3887 c 1.00818,-0.9708 1.96035,-2.5391 2.57646,-3.9954 l -1.3069,-0.336 c -0.59744,1.3815 -1.54961,2.8751 -2.53912,3.7153 z m 4.25676,-3.8274 c 0.24271,1.1949 0.41074,2.7445 0.41074,3.678 l 1.38158,-0.1867 c -0.0187,-0.8961 -0.22404,-2.4271 -0.46675,-3.6033 z m 3.82735,0.019 c 0.5601,1.1389 1.1202,2.6885 1.3069,3.6033 l 1.34424,-0.3174 c -0.22404,-0.9335 -0.82148,-2.4457 -1.40025,-3.5659 z m 3.79001,-0.168 c 0.9335,1.1949 1.96035,2.8005 2.38976,3.8273 l 1.3069,-0.5227 c -0.46675,-1.0455 -1.53094,-2.5952 -2.48311,-3.7714 z"
         id="path8992" />
    </g>
    <g
       aria-label="挂载点"
       id="text1114-25"
       style="font-size:18.67px;line-height:1.25;font-family:'Noto Sans CJK SC';-inkscape-font-specification:'Noto Sans CJK SC, Normal';letter-spacing:0;fill:#ffffff">
      <path
         d="M 659.49184,1344.7577 H 654.787 v -2.7258 h 3.80868 v -1.2696 H 654.787 v -2.4271 h -1.38158 v 2.4271 h -3.84602 v 1.2696 h 3.84602 v 2.7258 h -4.49947 v 1.3069 h 10.58589 z m -10.66057,2.9125 -0.16803,-1.2509 -2.09104,0.5788 v -3.7153 h 2.0537 v -1.3069 h -2.0537 v -3.734 h -1.36291 v 3.734 h -2.33375 v 1.3069 h 2.33375 v 4.0887 c -0.95217,0.2614 -1.84833,0.4854 -2.55779,0.6534 l 0.39207,1.3629 c 0.67212,-0.1867 1.40025,-0.4107 2.16572,-0.6534 v 4.7795 c 0,0.2614 -0.11202,0.3547 -0.3734,0.3547 -0.22404,0 -1.02685,0.019 -1.90434,-0.019 0.16803,0.3734 0.3734,0.9335 0.42941,1.2882 1.26956,0 2.0537,-0.037 2.52045,-0.2614 0.48542,-0.2053 0.69079,-0.5787 0.69079,-1.3629 v -5.1716 z m 5.95573,5.6383 v -3.1178 h 4.08873 v -1.2883 H 654.787 v -2.147 h -1.38158 v 2.147 h -4.14474 v 1.2883 h 4.14474 v 3.1178 h -5.39563 v 1.3256 h 11.68742 v -1.3256 z"
         id="path8981" />
      <path
         d="m 677.48972,1340.9863 c -0.42941,-0.6907 -1.45626,-1.6989 -2.29641,-2.3524 l -0.98951,0.6348 c 0.84015,0.7281 1.82966,1.755 2.25907,2.4458 z m -6.08642,10.2685 c -1.10153,0.1121 -2.25907,0.2241 -3.3606,0.3174 v -1.7363 h 2.94986 v -1.1949 h -2.94986 v -1.5122 h -1.3069 v 1.5122 h -2.57646 c 0.39207,-0.6161 0.80281,-1.3442 1.19488,-2.091 h 6.03041 v -1.1389 h -5.48898 c 0.22404,-0.4667 0.42941,-0.9521 0.61611,-1.4376 l -1.36291,-0.3734 c -0.1867,0.6162 -0.42941,1.2323 -0.69079,1.811 h -2.6138 v 1.1389 h 2.10971 c -0.31739,0.6161 -0.5601,1.1202 -0.70946,1.3442 -0.29872,0.5041 -0.57877,0.8775 -0.85882,0.9335 0.16803,0.3361 0.35473,0.9896 0.42941,1.2696 0.16803,-0.1494 0.72813,-0.2614 1.4936,-0.2614 h 2.4271 v 1.8484 c -1.92301,0.168 -3.65932,0.3173 -4.98489,0.4107 l 0.14936,1.2882 c 1.34424,-0.1493 3.02454,-0.3174 4.83553,-0.5041 v 2.3338 h 1.3069 v -2.4458 c 1.1202,-0.112 2.2404,-0.224 3.3606,-0.3547 z m 4.70484,-6.7398 c -0.46675,1.755 -1.17621,3.4913 -2.03503,5.0409 -0.33606,-1.643 -0.59744,-3.678 -0.72813,-5.9931 h 4.83553 v -1.1202 h -4.91021 c -0.056,-1.3069 -0.0747,-2.7071 -0.056,-4.1634 h -1.36291 c 0,1.4189 0.0373,2.8378 0.11202,4.1634 h -4.57415 v -1.5869 h 3.28592 v -1.1202 h -3.28592 v -1.4936 h -1.32557 v 1.4936 h -3.5473 v 1.1202 h 3.5473 v 1.5869 h -4.49947 v 1.1202 h 10.4552 c 0.16803,2.9499 0.52276,5.5637 1.08286,7.5614 -0.89616,1.2882 -1.94168,2.4084 -3.13656,3.2485 0.33606,0.2427 0.7468,0.6535 0.97084,0.9522 0.98951,-0.7841 1.88567,-1.699 2.68848,-2.7258 0.69079,1.5869 1.60562,2.5204 2.81917,2.5204 1.28823,0 1.73631,-0.8401 1.96035,-3.6219 -0.33606,-0.1307 -0.80281,-0.3921 -1.08286,-0.7095 -0.11202,2.1844 -0.29872,2.9872 -0.76547,2.9872 -0.80281,0 -1.4936,-0.8962 -2.01636,-2.5018 1.21355,-1.9043 2.16572,-4.1074 2.81917,-6.4038 z"
         id="path8983" />
      <path
         d="m 693.32188,1348.5104 h -9.68973 v -3.3233 h 9.68973 z m 1.40025,-4.6302 h -5.67568 v -2.3524 h 7.05726 v -1.3069 h -7.05726 v -1.9977 h -1.38158 v 5.657 h -5.35829 v 5.9371 h 12.41555 z m -13.4424,11.3887 c 1.00818,-0.9708 1.96035,-2.5391 2.57646,-3.9954 l -1.3069,-0.336 c -0.59744,1.3815 -1.54961,2.8751 -2.53912,3.7153 z m 4.25676,-3.8274 c 0.24271,1.1949 0.41074,2.7445 0.41074,3.678 l 1.38158,-0.1867 c -0.0187,-0.8961 -0.22404,-2.4271 -0.46675,-3.6033 z m 3.82735,0.019 c 0.5601,1.1389 1.1202,2.6885 1.3069,3.6033 l 1.34424,-0.3174 c -0.22404,-0.9335 -0.82148,-2.4457 -1.40025,-3.5659 z m 3.79001,-0.168 c 0.9335,1.1949 1.96035,2.8005 2.38976,3.8273 l 1.3069,-0.5227 c -0.46675,-1.0455 -1.53094,-2.5952 -2.48311,-3.7714 z"
         id="path8985" />
    </g>
    <g
       aria-label="挂载点"
       id="text1114-4"
       style="font-size:18.67px;line-height:1.25;font-family:'Noto Sans CJK SC';-inkscape-font-specification:'Noto Sans CJK SC, Normal';letter-spacing:0;fill:#ffffff">
      <path
         d="m 509.49181,1344.7577 h -4.70484 v -2.7258 h 3.80868 v -1.2696 h -3.80868 v -2.4271 h -1.38158 v 2.4271 h -3.84602 v 1.2696 h 3.84602 v 2.7258 h -4.49947 v 1.3069 h 10.58589 z m -10.66057,2.9125 -0.16803,-1.2509 -2.09104,0.5788 v -3.7153 h 2.0537 v -1.3069 h -2.0537 v -3.734 h -1.36291 v 3.734 h -2.33375 v 1.3069 h 2.33375 v 4.0887 c -0.95217,0.2614 -1.84833,0.4854 -2.55779,0.6534 l 0.39207,1.3629 c 0.67212,-0.1867 1.40025,-0.4107 2.16572,-0.6534 v 4.7795 c 0,0.2614 -0.11202,0.3547 -0.3734,0.3547 -0.22404,0 -1.02685,0.019 -1.90434,-0.019 0.16803,0.3734 0.3734,0.9335 0.42941,1.2882 1.26956,0 2.0537,-0.037 2.52045,-0.2614 0.48542,-0.2053 0.69079,-0.5787 0.69079,-1.3629 v -5.1716 z m 5.95573,5.6383 v -3.1178 h 4.08873 v -1.2883 h -4.08873 v -2.147 h -1.38158 v 2.147 h -4.14474 v 1.2883 h 4.14474 v 3.1178 h -5.39563 v 1.3256 h 11.68742 v -1.3256 z"
         id="path8974" />
      <path
         d="m 527.48969,1340.9863 c -0.42941,-0.6907 -1.45626,-1.6989 -2.29641,-2.3524 l -0.98951,0.6348 c 0.84015,0.7281 1.82966,1.755 2.25907,2.4458 z m -6.08642,10.2685 c -1.10153,0.1121 -2.25907,0.2241 -3.3606,0.3174 v -1.7363 h 2.94986 v -1.1949 h -2.94986 v -1.5122 h -1.3069 v 1.5122 h -2.57646 c 0.39207,-0.6161 0.80281,-1.3442 1.19488,-2.091 h 6.03041 v -1.1389 h -5.48898 c 0.22404,-0.4667 0.42941,-0.9521 0.61611,-1.4376 l -1.36291,-0.3734 c -0.1867,0.6162 -0.42941,1.2323 -0.69079,1.811 h -2.6138 v 1.1389 h 2.10971 c -0.31739,0.6161 -0.5601,1.1202 -0.70946,1.3442 -0.29872,0.5041 -0.57877,0.8775 -0.85882,0.9335 0.16803,0.3361 0.35473,0.9896 0.42941,1.2696 0.16803,-0.1494 0.72813,-0.2614 1.4936,-0.2614 h 2.4271 v 1.8484 c -1.92301,0.168 -3.65932,0.3173 -4.98489,0.4107 l 0.14936,1.2882 c 1.34424,-0.1493 3.02454,-0.3174 4.83553,-0.5041 v 2.3338 h 1.3069 v -2.4458 c 1.1202,-0.112 2.2404,-0.224 3.3606,-0.3547 z m 4.70484,-6.7398 c -0.46675,1.755 -1.17621,3.4913 -2.03503,5.0409 -0.33606,-1.643 -0.59744,-3.678 -0.72813,-5.9931 h 4.83553 v -1.1202 h -4.91021 c -0.056,-1.3069 -0.0747,-2.7071 -0.056,-4.1634 h -1.36291 c 0,1.4189 0.0373,2.8378 0.11202,4.1634 h -4.57415 v -1.5869 h 3.28592 v -1.1202 h -3.28592 v -1.4936 h -1.32557 v 1.4936 h -3.5473 v 1.1202 h 3.5473 v 1.5869 h -4.49947 v 1.1202 h 10.4552 c 0.16803,2.9499 0.52276,5.5637 1.08286,7.5614 -0.89616,1.2882 -1.94168,2.4084 -3.13656,3.2485 0.33606,0.2427 0.7468,0.6535 0.97084,0.9522 0.98951,-0.7841 1.88567,-1.699 2.68848,-2.7258 0.69079,1.5869 1.60562,2.5204 2.81917,2.5204 1.28823,0 1.73631,-0.8401 1.96035,-3.6219 -0.33606,-0.1307 -0.80281,-0.3921 -1.08286,-0.7095 -0.11202,2.1844 -0.29872,2.9872 -0.76547,2.9872 -0.80281,0 -1.4936,-0.8962 -2.01636,-2.5018 1.21355,-1.9043 2.16572,-4.1074 2.81917,-6.4038 z"
         id="path8976" />
      <path
         d="m 543.32185,1348.5104 h -9.68973 v -3.3233 h 9.68973 z m 1.40025,-4.6302 h -5.67568 v -2.3524 h 7.05726 v -1.3069 h -7.05726 v -1.9977 h -1.38158 v 5.657 h -5.35829 v 5.9371 h 12.41555 z m -13.4424,11.3887 c 1.00818,-0.9708 1.96035,-2.5391 2.57646,-3.9954 l -1.3069,-0.336 c -0.59744,1.3815 -1.54961,2.8751 -2.53912,3.7153 z m 4.25676,-3.8274 c 0.24271,1.1949 0.41074,2.7445 0.41074,3.678 l 1.38158,-0.1867 c -0.0187,-0.8961 -0.22404,-2.4271 -0.46675,-3.6033 z m 3.82735,0.019 c 0.5601,1.1389 1.1202,2.6885 1.3069,3.6033 l 1.34424,-0.3174 c -0.22404,-0.9335 -0.82148,-2.4457 -1.40025,-3.5659 z m 3.79001,-0.168 c 0.9335,1.1949 1.96035,2.8005 2.38976,3.8273 l 1.3069,-0.5227 c -0.46675,-1.0455 -1.53094,-2.5952 -2.48311,-3.7714 z"
         id="path8978" />
    </g>
    <g
       aria-label="挂载点"
       id="text1114-78"
       style="font-size:18.67px;line-height:1.25;font-family:'Noto Sans CJK SC';-inkscape-font-specification:'Noto Sans CJK SC, Normal';letter-spacing:0">
      <path
         d="m 281.49181,1344.7577 h -4.70484 v -2.7258 h 3.80868 v -1.2696 h -3.80868 v -2.4271 h -1.38158 v 2.4271 h -3.84602 v 1.2696 h 3.84602 v 2.7258 h -4.49947 v 1.3069 h 10.58589 z m -10.66057,2.9125 -0.16803,-1.2509 -2.09104,0.5788 v -3.7153 h 2.0537 v -1.3069 h -2.0537 v -3.734 h -1.36291 v 3.734 h -2.33375 v 1.3069 h 2.33375 v 4.0887 c -0.95217,0.2614 -1.84833,0.4854 -2.55779,0.6534 l 0.39207,1.3629 c 0.67212,-0.1867 1.40025,-0.4107 2.16572,-0.6534 v 4.7795 c 0,0.2614 -0.11202,0.3547 -0.3734,0.3547 -0.22404,0 -1.02685,0.019 -1.90434,-0.019 0.16803,0.3734 0.3734,0.9335 0.42941,1.2882 1.26956,0 2.0537,-0.037 2.52045,-0.2614 0.48542,-0.2053 0.69079,-0.5787 0.69079,-1.3629 v -5.1716 z m 5.95573,5.6383 v -3.1178 h 4.08873 v -1.2883 h -4.08873 v -2.147 h -1.38158 v 2.147 h -4.14474 v 1.2883 h 4.14474 v 3.1178 h -5.39563 v 1.3256 h 11.68742 v -1.3256 z"
         id="path8967" />
      <path
         d="m 299.48969,1340.9863 c -0.42941,-0.6907 -1.45626,-1.6989 -2.29641,-2.3524 l -0.98951,0.6348 c 0.84015,0.7281 1.82966,1.755 2.25907,2.4458 z m -6.08642,10.2685 c -1.10153,0.1121 -2.25907,0.2241 -3.3606,0.3174 v -1.7363 h 2.94986 v -1.1949 h -2.94986 v -1.5122 h -1.3069 v 1.5122 h -2.57646 c 0.39207,-0.6161 0.80281,-1.3442 1.19488,-2.091 h 6.03041 v -1.1389 h -5.48898 c 0.22404,-0.4667 0.42941,-0.9521 0.61611,-1.4376 l -1.36291,-0.3734 c -0.1867,0.6162 -0.42941,1.2323 -0.69079,1.811 h -2.6138 v 1.1389 h 2.10971 c -0.31739,0.6161 -0.5601,1.1202 -0.70946,1.3442 -0.29872,0.5041 -0.57877,0.8775 -0.85882,0.9335 0.16803,0.3361 0.35473,0.9896 0.42941,1.2696 0.16803,-0.1494 0.72813,-0.2614 1.4936,-0.2614 h 2.4271 v 1.8484 c -1.92301,0.168 -3.65932,0.3173 -4.98489,0.4107 l 0.14936,1.2882 c 1.34424,-0.1493 3.02454,-0.3174 4.83553,-0.5041 v 2.3338 h 1.3069 v -2.4458 c 1.1202,-0.112 2.2404,-0.224 3.3606,-0.3547 z m 4.70484,-6.7398 c -0.46675,1.755 -1.17621,3.4913 -2.03503,5.0409 -0.33606,-1.643 -0.59744,-3.678 -0.72813,-5.9931 h 4.83553 v -1.1202 h -4.91021 c -0.056,-1.3069 -0.0747,-2.7071 -0.056,-4.1634 h -1.36291 c 0,1.4189 0.0373,2.8378 0.11202,4.1634 h -4.57415 v -1.5869 h 3.28592 v -1.1202 h -3.28592 v -1.4936 h -1.32557 v 1.4936 h -3.5473 v 1.1202 h 3.5473 v 1.5869 h -4.49947 v 1.1202 h 10.4552 c 0.16803,2.9499 0.52276,5.5637 1.08286,7.5614 -0.89616,1.2882 -1.94168,2.4084 -3.13656,3.2485 0.33606,0.2427 0.7468,0.6535 0.97084,0.9522 0.98951,-0.7841 1.88567,-1.699 2.68848,-2.7258 0.69079,1.5869 1.60562,2.5204 2.81917,2.5204 1.28823,0 1.73631,-0.8401 1.96035,-3.6219 -0.33606,-0.1307 -0.80281,-0.3921 -1.08286,-0.7095 -0.11202,2.1844 -0.29872,2.9872 -0.76547,2.9872 -0.80281,0 -1.4936,-0.8962 -2.01636,-2.5018 1.21355,-1.9043 2.16572,-4.1074 2.81917,-6.4038 z"
         id="path8969" />
      <path
         d="m 315.32185,1348.5104 h -9.68973 v -3.3233 h 9.68973 z m 1.40025,-4.6302 h -5.67568 v -2.3524 h 7.05726 v -1.3069 h -7.05726 v -1.9977 h -1.38158 v 5.657 h -5.35829 v 5.9371 h 12.41555 z m -13.4424,11.3887 c 1.00818,-0.9708 1.96035,-2.5391 2.57646,-3.9954 l -1.3069,-0.336 c -0.59744,1.3815 -1.54961,2.8751 -2.53912,3.7153 z m 4.25676,-3.8274 c 0.24271,1.1949 0.41074,2.7445 0.41074,3.678 l 1.38158,-0.1867 c -0.0187,-0.8961 -0.22404,-2.4271 -0.46675,-3.6033 z m 3.82735,0.019 c 0.5601,1.1389 1.1202,2.6885 1.3069,3.6033 l 1.34424,-0.3174 c -0.22404,-0.9335 -0.82148,-2.4457 -1.40025,-3.5659 z m 3.79001,-0.168 c 0.9335,1.1949 1.96035,2.8005 2.38976,3.8273 l 1.3069,-0.5227 c -0.46675,-1.0455 -1.53094,-2.5952 -2.48311,-3.7714 z"
         id="path8971" />
    </g>
    <g
       aria-label="挂载点"
       id="text1114-84"
       style="font-size:18.67px;line-height:1.25;font-family:'Noto Sans CJK SC';-inkscape-font-specification:'Noto Sans CJK SC, Normal';letter-spacing:0">
      <path
         d="m 171.49182,1344.7577 h -4.70484 v -2.7258 h 3.80868 v -1.2696 h -3.80868 v -2.4271 h -1.38158 v 2.4271 h -3.84602 v 1.2696 h 3.84602 v 2.7258 h -4.49947 v 1.3069 h 10.58589 z m -10.66057,2.9125 -0.16803,-1.2509 -2.09104,0.5788 v -3.7153 h 2.0537 v -1.3069 h -2.0537 v -3.734 h -1.36291 v 3.734 h -2.33375 v 1.3069 h 2.33375 v 4.0887 c -0.95217,0.2614 -1.84833,0.4854 -2.55779,0.6534 l 0.39207,1.3629 c 0.67212,-0.1867 1.40025,-0.4107 2.16572,-0.6534 v 4.7795 c 0,0.2614 -0.11202,0.3547 -0.3734,0.3547 -0.22404,0 -1.02685,0.019 -1.90434,-0.019 0.16803,0.3734 0.3734,0.9335 0.42941,1.2882 1.26956,0 2.0537,-0.037 2.52045,-0.2614 0.48542,-0.2053 0.69079,-0.5787 0.69079,-1.3629 v -5.1716 z m 5.95573,5.6383 v -3.1178 h 4.08873 v -1.2883 h -4.08873 v -2.147 h -1.38158 v 2.147 h -4.14474 v 1.2883 h 4.14474 v 3.1178 h -5.39563 v 1.3256 h 11.68742 v -1.3256 z"
         id="path8960" />
      <path
         d="m 189.4897,1340.9863 c -0.42941,-0.6907 -1.45626,-1.6989 -2.29641,-2.3524 l -0.98951,0.6348 c 0.84015,0.7281 1.82966,1.755 2.25907,2.4458 z m -6.08642,10.2685 c -1.10153,0.1121 -2.25907,0.2241 -3.3606,0.3174 v -1.7363 h 2.94986 v -1.1949 h -2.94986 v -1.5122 h -1.3069 v 1.5122 h -2.57646 c 0.39207,-0.6161 0.80281,-1.3442 1.19488,-2.091 h 6.03041 v -1.1389 h -5.48898 c 0.22404,-0.4667 0.42941,-0.9521 0.61611,-1.4376 l -1.36291,-0.3734 c -0.1867,0.6162 -0.42941,1.2323 -0.69079,1.811 h -2.6138 v 1.1389 h 2.10971 c -0.31739,0.6161 -0.5601,1.1202 -0.70946,1.3442 -0.29872,0.5041 -0.57877,0.8775 -0.85882,0.9335 0.16803,0.3361 0.35473,0.9896 0.42941,1.2696 0.16803,-0.1494 0.72813,-0.2614 1.4936,-0.2614 h 2.4271 v 1.8484 c -1.92301,0.168 -3.65932,0.3173 -4.98489,0.4107 l 0.14936,1.2882 c 1.34424,-0.1493 3.02454,-0.3174 4.83553,-0.5041 v 2.3338 h 1.3069 v -2.4458 c 1.1202,-0.112 2.2404,-0.224 3.3606,-0.3547 z m 4.70484,-6.7398 c -0.46675,1.755 -1.17621,3.4913 -2.03503,5.0409 -0.33606,-1.643 -0.59744,-3.678 -0.72813,-5.9931 h 4.83553 v -1.1202 h -4.91021 c -0.056,-1.3069 -0.0747,-2.7071 -0.056,-4.1634 h -1.36291 c 0,1.4189 0.0373,2.8378 0.11202,4.1634 h -4.57415 v -1.5869 h 3.28592 v -1.1202 h -3.28592 v -1.4936 h -1.32557 v 1.4936 h -3.5473 v 1.1202 h 3.5473 v 1.5869 h -4.49947 v 1.1202 h 10.4552 c 0.16803,2.9499 0.52276,5.5637 1.08286,7.5614 -0.89616,1.2882 -1.94168,2.4084 -3.13656,3.2485 0.33606,0.2427 0.7468,0.6535 0.97084,0.9522 0.98951,-0.7841 1.88567,-1.699 2.68848,-2.7258 0.69079,1.5869 1.60562,2.5204 2.81917,2.5204 1.28823,0 1.73631,-0.8401 1.96035,-3.6219 -0.33606,-0.1307 -0.80281,-0.3921 -1.08286,-0.7095 -0.11202,2.1844 -0.29872,2.9872 -0.76547,2.9872 -0.80281,0 -1.4936,-0.8962 -2.01636,-2.5018 1.21355,-1.9043 2.16572,-4.1074 2.81917,-6.4038 z"
         id="path8962" />
      <path
         d="m 205.32186,1348.5104 h -9.68973 v -3.3233 h 9.68973 z m 1.40025,-4.6302 h -5.67568 v -2.3524 h 7.05726 v -1.3069 h -7.05726 v -1.9977 h -1.38158 v 5.657 h -5.35829 v 5.9371 h 12.41555 z m -13.4424,11.3887 c 1.00818,-0.9708 1.96035,-2.5391 2.57646,-3.9954 l -1.3069,-0.336 c -0.59744,1.3815 -1.54961,2.8751 -2.53912,3.7153 z m 4.25676,-3.8274 c 0.24271,1.1949 0.41074,2.7445 0.41074,3.678 l 1.38158,-0.1867 c -0.0187,-0.8961 -0.22404,-2.4271 -0.46675,-3.6033 z m 3.82735,0.019 c 0.5601,1.1389 1.1202,2.6885 1.3069,3.6033 l 1.34424,-0.3174 c -0.22404,-0.9335 -0.82148,-2.4457 -1.40025,-3.5659 z m 3.79001,-0.168 c 0.9335,1.1949 1.96035,2.8005 2.38976,3.8273 l 1.3069,-0.5227 c -0.46675,-1.0455 -1.53094,-2.5952 -2.48311,-3.7714 z"
         id="path8964" />
    </g>
    <g
       aria-label="挂载点"
       id="text1114-92"
       style="font-size:18.67px;line-height:1.25;font-family:'Noto Sans CJK SC';-inkscape-font-specification:'Noto Sans CJK SC, Normal';letter-spacing:0">
      <path
         d="m 61.491822,1344.7577 h -4.70484 v -2.7258 h 3.80868 v -1.2696 h -3.80868 v -2.4271 h -1.38158 v 2.4271 h -3.84602 v 1.2696 h 3.84602 v 2.7258 h -4.49947 v 1.3069 h 10.58589 z m -10.66057,2.9125 -0.16803,-1.2509 -2.09104,0.5788 v -3.7153 h 2.0537 v -1.3069 h -2.0537 v -3.734 h -1.36291 v 3.734 h -2.33375 v 1.3069 h 2.33375 v 4.0887 c -0.95217,0.2614 -1.84833,0.4854 -2.55779,0.6534 l 0.39207,1.3629 c 0.67212,-0.1867 1.40025,-0.4107 2.16572,-0.6534 v 4.7795 c 0,0.2614 -0.11202,0.3547 -0.3734,0.3547 -0.22404,0 -1.02685,0.019 -1.90434,-0.019 0.16803,0.3734 0.3734,0.9335 0.42941,1.2882 1.26956,0 2.0537,-0.037 2.52045,-0.2614 0.48542,-0.2053 0.69079,-0.5787 0.69079,-1.3629 v -5.1716 z m 5.95573,5.6383 v -3.1178 h 4.08873 v -1.2883 h -4.08873 v -2.147 h -1.38158 v 2.147 h -4.14474 v 1.2883 h 4.14474 v 3.1178 h -5.39563 v 1.3256 h 11.68742 v -1.3256 z"
         id="path8953" />
      <path
         d="m 79.489702,1340.9863 c -0.42941,-0.6907 -1.45626,-1.6989 -2.29641,-2.3524 l -0.98951,0.6348 c 0.84015,0.7281 1.82966,1.755 2.25907,2.4458 z m -6.08642,10.2685 c -1.10153,0.1121 -2.25907,0.2241 -3.3606,0.3174 v -1.7363 h 2.94986 v -1.1949 h -2.94986 v -1.5122 h -1.3069 v 1.5122 h -2.57646 c 0.39207,-0.6161 0.80281,-1.3442 1.19488,-2.091 h 6.03041 v -1.1389 h -5.48898 c 0.22404,-0.4667 0.42941,-0.9521 0.61611,-1.4376 l -1.36291,-0.3734 c -0.1867,0.6162 -0.42941,1.2323 -0.69079,1.811 h -2.6138 v 1.1389 h 2.10971 c -0.31739,0.6161 -0.5601,1.1202 -0.70946,1.3442 -0.29872,0.5041 -0.57877,0.8775 -0.85882,0.9335 0.16803,0.3361 0.35473,0.9896 0.42941,1.2696 0.16803,-0.1494 0.72813,-0.2614 1.4936,-0.2614 h 2.4271 v 1.8484 c -1.92301,0.168 -3.65932,0.3173 -4.98489,0.4107 l 0.14936,1.2882 c 1.34424,-0.1493 3.02454,-0.3174 4.83553,-0.5041 v 2.3338 h 1.3069 v -2.4458 c 1.1202,-0.112 2.2404,-0.224 3.3606,-0.3547 z m 4.70484,-6.7398 c -0.46675,1.755 -1.17621,3.4913 -2.03503,5.0409 -0.33606,-1.643 -0.59744,-3.678 -0.72813,-5.9931 h 4.83553 v -1.1202 h -4.91021 c -0.05601,-1.3069 -0.07468,-2.7071 -0.05601,-4.1634 h -1.36291 c 0,1.4189 0.03734,2.8378 0.11202,4.1634 h -4.57415 v -1.5869 h 3.28592 v -1.1202 h -3.28592 v -1.4936 h -1.32557 v 1.4936 h -3.5473 v 1.1202 h 3.5473 v 1.5869 h -4.49947 v 1.1202 h 10.4552 c 0.16803,2.9499 0.52276,5.5637 1.08286,7.5614 -0.89616,1.2882 -1.94168,2.4084 -3.13656,3.2485 0.33606,0.2427 0.7468,0.6535 0.97084,0.9522 0.98951,-0.7841 1.88567,-1.699 2.68848,-2.7258 0.69079,1.5869 1.60562,2.5204 2.81917,2.5204 1.28823,0 1.73631,-0.8401 1.96035,-3.6219 -0.33606,-0.1307 -0.80281,-0.3921 -1.08286,-0.7095 -0.11202,2.1844 -0.29872,2.9872 -0.76547,2.9872 -0.80281,0 -1.4936,-0.8962 -2.01636,-2.5018 1.21355,-1.9043 2.16572,-4.1074 2.81917,-6.4038 z"
         id="path8955" />
      <path
         d="m 95.321862,1348.5104 h -9.68973 v -3.3233 h 9.68973 z m 1.40025,-4.6302 h -5.67568 v -2.3524 h 7.05726 v -1.3069 h -7.05726 v -1.9977 h -1.38158 v 5.657 h -5.35829 v 5.9371 h 12.41555 z m -13.4424,11.3887 c 1.00818,-0.9708 1.96035,-2.5391 2.57646,-3.9954 l -1.3069,-0.336 c -0.59744,1.3815 -1.54961,2.8751 -2.53912,3.7153 z m 4.25676,-3.8274 c 0.24271,1.1949 0.41074,2.7445 0.41074,3.678 l 1.38158,-0.1867 c -0.01867,-0.8961 -0.22404,-2.4271 -0.46675,-3.6033 z m 3.82735,0.019 c 0.5601,1.1389 1.1202,2.6885 1.3069,3.6033 l 1.34424,-0.3174 c -0.22404,-0.9335 -0.82148,-2.4457 -1.40025,-3.5659 z m 3.79001,-0.168 c 0.9335,1.1949 1.96035,2.8005 2.38976,3.8273 l 1.3069,-0.5227 c -0.46675,-1.0455 -1.53094,-2.5952 -2.48311,-3.7714 z"
         id="path8957" />
    </g>
    <g
       aria-label="分区"
       id="text1114-926"
       style="font-size:18.67px;line-height:1.25;font-family:'Noto Sans CJK SC';-inkscape-font-specification:'Noto Sans CJK SC, Normal';letter-spacing:0">
      <path
         d="m 54.053311,1175.2531 c 1.56828,-1.6803 2.9872,-3.8647 3.93937,-6.2358 l -1.47493,-0.4107 c -1.08286,2.8378 -2.96853,5.4143 -5.19026,7.0199 0.35473,0.2614 0.9335,0.7842 1.19488,1.0642 0.48542,-0.4107 0.98951,-0.8588 1.45626,-1.3629 v 1.2882 h 3.58464 c -0.42941,3.1366 -1.45626,6.0864 -5.84371,7.5614 0.29872,0.2614 0.69079,0.8215 0.87749,1.1762 4.68617,-1.7177 5.91839,-5.0596 6.42248,-8.7376 h 5.05957 c -0.22404,4.6302 -0.48542,6.4598 -0.95217,6.9266 -0.20537,0.1867 -0.41074,0.2427 -0.80281,0.2427 -0.44808,0 -1.56828,-0.019 -2.78183,-0.1307 0.26138,0.3921 0.42941,0.9709 0.44808,1.3816 1.15754,0.075 2.31508,0.093 2.93119,0.037 0.65345,-0.037 1.04552,-0.1867 1.45626,-0.6534 0.63478,-0.7095 0.87749,-2.8379 1.13887,-8.4949 0.01867,-0.1867 0.03734,-0.6721 0.03734,-0.6721 z m 7.67337,-6.1611 c 1.3069,2.7445 3.52863,5.7317 5.47031,7.4307 0.26138,-0.3734 0.7468,-0.8962 1.1202,-1.1762 -1.94168,-1.4563 -4.18208,-4.2568 -5.33962,-6.7772 z"
         id="path8948" />
      <path
         d="m 72.349911,1183.4119 v -12.8263 h 14.0025 v -1.3256 h -15.36541 v 15.4775 h 15.83216 v -1.3256 z m 12.24752,-2.2964 c -0.98951,-1.1949 -2.50178,-2.6885 -4.16341,-4.2194 1.34424,-1.5123 2.55779,-3.1553 3.58464,-4.8916 l -1.28823,-0.5227 c -0.89616,1.5683 -2.01636,3.1179 -3.28592,4.5181 -1.4936,-1.3442 -3.08055,-2.7071 -4.49947,-3.846 l -0.97084,0.8215 c 1.45626,1.1949 3.04321,2.5951 4.55548,3.9954 -1.56828,1.6056 -3.34193,3.0245 -5.15292,4.1074 0.33606,0.224 0.85882,0.7654 1.10153,1.0268 1.73631,-1.1202 3.45395,-2.5765 5.02223,-4.2007 1.62429,1.5309 3.06188,3.0432 3.99538,4.2007 z"
         id="path8950" />
    </g>
    <g
       aria-label="分区"
       id="text1114-95"
       style="font-size:18.67px;line-height:1.25;font-family:'Noto Sans CJK SC';-inkscape-font-specification:'Noto Sans CJK SC, Normal';letter-spacing:0">
      <path
         d="m 164.05331,1175.2531 c 1.56828,-1.6803 2.9872,-3.8647 3.93937,-6.2358 l -1.47493,-0.4107 c -1.08286,2.8378 -2.96853,5.4143 -5.19026,7.0199 0.35473,0.2614 0.9335,0.7842 1.19488,1.0642 0.48542,-0.4107 0.98951,-0.8588 1.45626,-1.3629 v 1.2882 h 3.58464 c -0.42941,3.1366 -1.45626,6.0864 -5.84371,7.5614 0.29872,0.2614 0.69079,0.8215 0.87749,1.1762 4.68617,-1.7177 5.91839,-5.0596 6.42248,-8.7376 h 5.05957 c -0.22404,4.6302 -0.48542,6.4598 -0.95217,6.9266 -0.20537,0.1867 -0.41074,0.2427 -0.80281,0.2427 -0.44808,0 -1.56828,-0.019 -2.78183,-0.1307 0.26138,0.3921 0.42941,0.9709 0.44808,1.3816 1.15754,0.075 2.31508,0.093 2.93119,0.037 0.65345,-0.037 1.04552,-0.1867 1.45626,-0.6534 0.63478,-0.7095 0.87749,-2.8379 1.13887,-8.4949 0.0187,-0.1867 0.0373,-0.6721 0.0373,-0.6721 z m 7.67337,-6.1611 c 1.3069,2.7445 3.52863,5.7317 5.47031,7.4307 0.26138,-0.3734 0.7468,-0.8962 1.1202,-1.1762 -1.94168,-1.4563 -4.18208,-4.2568 -5.33962,-6.7772 z"
         id="path8943" />
      <path
         d="m 182.34991,1183.4119 v -12.8263 h 14.0025 V 1169.26 H 180.987 v 15.4775 h 15.83216 v -1.3256 z m 12.24752,-2.2964 c -0.98951,-1.1949 -2.50178,-2.6885 -4.16341,-4.2194 1.34424,-1.5123 2.55779,-3.1553 3.58464,-4.8916 l -1.28823,-0.5227 c -0.89616,1.5683 -2.01636,3.1179 -3.28592,4.5181 -1.4936,-1.3442 -3.08055,-2.7071 -4.49947,-3.846 l -0.97084,0.8215 c 1.45626,1.1949 3.04321,2.5951 4.55548,3.9954 -1.56828,1.6056 -3.34193,3.0245 -5.15292,4.1074 0.33606,0.224 0.85882,0.7654 1.10153,1.0268 1.73631,-1.1202 3.45395,-2.5765 5.02223,-4.2007 1.62429,1.5309 3.06188,3.0432 3.99538,4.2007 z"
         id="path8945" />
    </g>
    <g
       aria-label="分区"
       id="text1114-87"
       style="font-size:18.67px;line-height:1.25;font-family:'Noto Sans CJK SC';-inkscape-font-specification:'Noto Sans CJK SC, Normal';letter-spacing:0">
      <path
         d="m 274.05332,1175.2531 c 1.56828,-1.6803 2.9872,-3.8647 3.93937,-6.2358 l -1.47493,-0.4107 c -1.08286,2.8378 -2.96853,5.4143 -5.19026,7.0199 0.35473,0.2614 0.9335,0.7842 1.19488,1.0642 0.48542,-0.4107 0.98951,-0.8588 1.45626,-1.3629 v 1.2882 h 3.58464 c -0.42941,3.1366 -1.45626,6.0864 -5.84371,7.5614 0.29872,0.2614 0.69079,0.8215 0.87749,1.1762 4.68617,-1.7177 5.91839,-5.0596 6.42248,-8.7376 h 5.05957 c -0.22404,4.6302 -0.48542,6.4598 -0.95217,6.9266 -0.20537,0.1867 -0.41074,0.2427 -0.80281,0.2427 -0.44808,0 -1.56828,-0.019 -2.78183,-0.1307 0.26138,0.3921 0.42941,0.9709 0.44808,1.3816 1.15754,0.075 2.31508,0.093 2.93119,0.037 0.65345,-0.037 1.04552,-0.1867 1.45626,-0.6534 0.63478,-0.7095 0.87749,-2.8379 1.13887,-8.4949 0.0187,-0.1867 0.0373,-0.6721 0.0373,-0.6721 z m 7.67337,-6.1611 c 1.3069,2.7445 3.52863,5.7317 5.47031,7.4307 0.26138,-0.3734 0.7468,-0.8962 1.1202,-1.1762 -1.94168,-1.4563 -4.18208,-4.2568 -5.33962,-6.7772 z"
         id="path8938" />
      <path
         d="m 292.34992,1183.4119 v -12.8263 h 14.0025 v -1.3256 h -15.36541 v 15.4775 h 15.83216 v -1.3256 z m 12.24752,-2.2964 c -0.98951,-1.1949 -2.50178,-2.6885 -4.16341,-4.2194 1.34424,-1.5123 2.55779,-3.1553 3.58464,-4.8916 l -1.28823,-0.5227 c -0.89616,1.5683 -2.01636,3.1179 -3.28592,4.5181 -1.4936,-1.3442 -3.08055,-2.7071 -4.49947,-3.846 l -0.97084,0.8215 c 1.45626,1.1949 3.04321,2.5951 4.55548,3.9954 -1.56828,1.6056 -3.34193,3.0245 -5.15292,4.1074 0.33606,0.224 0.85882,0.7654 1.10153,1.0268 1.73631,-1.1202 3.45395,-2.5765 5.02223,-4.2007 1.62429,1.5309 3.06188,3.0432 3.99538,4.2007 z"
         id="path8940" />
    </g>
  </g>
</svg>
