<?xml version="1.0" encoding="UTF-8" standalone="no"?>
<svg
   width="700"
   height="550"
   version="1.2"
   id="svg2090"
   sodipodi:docname="net_basic_osi.svg"
   inkscape:version="1.2.2 (732a01da63, 2022-12-09)"
   xmlns:inkscape="http://www.inkscape.org/namespaces/inkscape"
   xmlns:sodipodi="http://sodipodi.sourceforge.net/DTD/sodipodi-0.dtd"
   xmlns="http://www.w3.org/2000/svg"
   xmlns:svg="http://www.w3.org/2000/svg">
  <defs
     id="defs2094" />
  <sodipodi:namedview
     id="namedview2092"
     pagecolor="#ffffff"
     bordercolor="#000000"
     borderopacity="0.25"
     inkscape:showpageshadow="2"
     inkscape:pageopacity="0.0"
     inkscape:pagecheckerboard="0"
     inkscape:deskcolor="#d1d1d1"
     showgrid="false"
     inkscape:zoom="1.4654545"
     inkscape:cx="350.06205"
     inkscape:cy="275.00001"
     inkscape:window-width="1920"
     inkscape:window-height="1009"
     inkscape:window-x="-8"
     inkscape:window-y="-8"
     inkscape:window-maximized="1"
     inkscape:current-layer="svg2090" />
  <rect
     width="679.81"
     height="165.18"
     x="10.19"
     y="109.82"
     fill="#dedfe0"
     color="#000"
     overflow="visible"
     rx="0"
     ry="0"
     style="marker:none"
     id="rect2008" />
  <rect
     width="320"
     height="145"
     x="20"
     y="120"
     fill="#30ba78"
     color="#000"
     overflow="visible"
     rx="0"
     ry="0"
     style="marker:none"
     id="rect2010" />
  <rect
     width="320"
     height="45"
     x="360"
     y="120"
     fill="#0c322c"
     color="#000"
     overflow="visible"
     rx="0"
     ry="0"
     style="marker:none"
     id="rect2012" />
  <rect
     width="320"
     height="45"
     x="360"
     y="170"
     fill="#0c322c"
     color="#000"
     overflow="visible"
     rx="0"
     ry="0"
     style="marker:none"
     id="rect2014" />
  <rect
     width="320"
     height="45"
     x="360"
     y="220"
     fill="#0c322c"
     color="#000"
     overflow="visible"
     rx="0"
     ry="0"
     style="marker:none"
     id="rect2016" />
  <rect
     width="680"
     height="65"
     x="10"
     y="280"
     fill="#dedfe0"
     color="#000"
     overflow="visible"
     rx="0"
     ry="0"
     style="marker:none"
     id="rect2018" />
  <rect
     width="320"
     height="45"
     x="20"
     y="290"
     fill="#30ba78"
     color="#000"
     overflow="visible"
     rx="0"
     ry="0"
     style="marker:none"
     id="rect2020" />
  <rect
     width="320"
     height="45"
     x="360"
     y="290"
     fill="#0c322c"
     color="#000"
     overflow="visible"
     rx="0"
     ry="0"
     style="marker:none"
     id="rect2022" />
  <rect
     width="680"
     height="65"
     x="10"
     y="350"
     fill="#dedfe0"
     color="#000"
     overflow="visible"
     rx="0"
     ry="0"
     style="marker:none"
     id="rect2024" />
  <rect
     width="320"
     height="45"
     x="20"
     y="360"
     fill="#30ba78"
     color="#000"
     overflow="visible"
     rx="0"
     ry="0"
     style="marker:none"
     id="rect2026" />
  <rect
     width="320"
     height="45"
     x="360"
     y="360"
     fill="#0c322c"
     color="#000"
     overflow="visible"
     rx="0"
     ry="0"
     style="marker:none"
     id="rect2028" />
  <rect
     width="680"
     height="115"
     x="10"
     y="425"
     fill="#dedfe0"
     color="#000"
     overflow="visible"
     rx="0"
     ry="0"
     style="marker:none"
     id="rect2030" />
  <rect
     width="320"
     height="95"
     x="20"
     y="435"
     fill="#30ba78"
     color="#000"
     overflow="visible"
     rx="0"
     ry="0"
     style="marker:none"
     id="rect2032" />
  <rect
     width="320"
     height="45"
     x="360"
     y="435"
     fill="#0c322c"
     color="#000"
     overflow="visible"
     rx="0"
     ry="0"
     style="marker:none"
     id="rect2034" />
  <rect
     width="320"
     height="45"
     x="360"
     y="485"
     fill="#0c322c"
     color="#000"
     overflow="visible"
     rx=".69"
     ry="0"
     style="marker:none"
     id="rect2036" />
  <g
     aria-label="应用程序层"
     id="text2040"
     style="font-weight:500;font-size:22px;line-height:125%;font-family:Poppins;-inkscape-font-specification:'Poppins Medium';letter-spacing:0;word-spacing:0">
    <path
       d="m 147.39799,184.054 v -1.562 h -7.348 c -0.286,-0.77 -0.88,-2.024 -1.43,-2.97 l -1.584,0.396 c 0.418,0.792 0.88,1.804 1.166,2.574 h -8.734 v 5.984 c 0,3.102 -0.154,7.436 -1.826,10.56 0.352,0.154 1.122,0.616 1.386,0.902 1.782,-3.278 2.068,-8.162 2.068,-11.462 v -4.422 z m -6.71,9.108 c -0.33,-2.046 -1.144,-5.104 -1.892,-7.458 l -1.474,0.396 c 0.726,2.376 1.518,5.478 1.826,7.502 z m -4.224,1.056 c -0.462,-2.024 -1.518,-5.082 -2.486,-7.458 l -1.408,0.572 c 0.902,2.354 1.958,5.478 2.376,7.502 z m 5.28,2.97 c 2.002,-3.388 3.63,-7.37 4.686,-11 l -1.716,-0.616 c -0.858,3.762 -2.53,8.228 -4.642,11.616 h -8.69 v 1.562 h 16.302 v -1.562 z"
       style="font-weight:normal;font-family:'Noto Sans CJK SC';-inkscape-font-specification:'Noto Sans CJK SC';text-align:center;text-anchor:middle"
       id="path2915" />
    <path
       d="m 160.66399,191.512 v -3.652 h 5.918 v 3.652 z m -6.974,0 c 0.066,-0.814 0.088,-1.628 0.088,-2.354 v -1.298 h 5.258 v 3.652 z m 5.346,-8.712 v 3.52 h -5.258 v -3.52 z m 7.546,3.52 h -5.918 v -3.52 h 5.918 z m 1.606,-5.082 h -16.016 v 7.92 c 0,3.058 -0.22,6.93 -2.64,9.658 0.352,0.198 1.012,0.748 1.254,1.078 1.672,-1.87 2.42,-4.378 2.75,-6.82 h 5.5 v 6.49 h 1.628 v -6.49 h 5.918 v 4.466 c 0,0.418 -0.154,0.55 -0.594,0.572 -0.396,0 -1.892,0.022 -3.432,-0.044 0.22,0.44 0.484,1.144 0.55,1.584 2.068,0.022 3.344,0 4.092,-0.264 0.704,-0.286 0.99,-0.77 0.99,-1.826 z"
       style="font-weight:normal;font-family:'Noto Sans CJK SC';-inkscape-font-specification:'Noto Sans CJK SC';text-align:center;text-anchor:middle"
       id="path2917" />
    <path
       d="m 188.84599,185.506 h -6.974 v -3.652 h 6.974 z m 1.584,-5.06 h -10.098 v 6.49 h 10.098 z m -11.11,11.286 c -0.374,-0.616 -2.046,-2.992 -2.662,-3.74 v -0.506 h 2.706 v -1.54 h -2.706 v -3.916 c 0.902,-0.242 1.76,-0.528 2.464,-0.858 l -1.034,-1.32 c -1.364,0.682 -3.762,1.32 -5.808,1.716 0.176,0.374 0.396,0.924 0.484,1.298 0.748,-0.132 1.562,-0.286 2.354,-0.462 v 3.542 h -3.08 v 1.54 h 2.838 c -0.748,2.486 -2.09,5.324 -3.322,6.908 0.286,0.418 0.704,1.122 0.858,1.562 0.99,-1.276 1.936,-3.322 2.706,-5.434 v 9.262 h 1.54 v -9.812 c 0.616,1.1 1.32,2.42 1.606,3.124 z m 6.996,5.94 v -3.036 h 4.4 v -1.474 h -4.4 v -2.86 h 4.884 v -1.496 h -11.286 v 1.496 h 4.796 v 2.86 h -4.268 v 1.474 h 4.268 v 3.036 h -5.764 v 1.518 h 12.738 v -1.518 z"
       style="font-weight:normal;font-family:'Noto Sans CJK SC';-inkscape-font-specification:'Noto Sans CJK SC';text-align:center;text-anchor:middle"
       id="path2919" />
    <path
       d="m 212.07799,190.698 h -4.07 l 0.176,-0.176 c -0.44,-0.264 -1.012,-0.55 -1.65,-0.88 1.804,-0.99 3.674,-2.376 4.972,-3.718 l -1.056,-0.814 -0.374,0.088 h -10.978 v 1.364 h 9.548 c -1.012,0.88 -2.31,1.782 -3.52,2.398 -1.078,-0.528 -2.222,-1.012 -3.212,-1.43 l -0.99,0.946 c 1.452,0.638 3.212,1.474 4.62,2.222 h -7.7 v 1.408 h 6.798 v 5.764 c 0,0.308 -0.11,0.396 -0.528,0.418 -0.418,0.022 -1.892,0.044 -3.498,-0.022 0.22,0.462 0.462,1.056 0.55,1.54 1.98,0 3.3,0 4.07,-0.242 0.792,-0.264 1.034,-0.682 1.034,-1.672 v -5.786 h 4.73 c -0.726,1.012 -1.562,2.024 -2.266,2.728 l 1.298,0.66 c 1.1,-1.078 2.354,-2.838 3.476,-4.4 l -1.166,-0.506 z m -6.094,-8.558 c -0.308,-0.726 -0.88,-1.782 -1.32,-2.552 l -1.562,0.462 c 0.33,0.616 0.726,1.43 1.012,2.09 h -8.69 v 6.05 c 0,3.19 -0.154,7.612 -1.936,10.736 0.352,0.176 1.078,0.638 1.364,0.924 1.87,-3.3 2.178,-8.272 2.178,-11.66 v -4.51 h 16.544 v -1.54 z"
       style="font-weight:normal;font-family:'Noto Sans CJK SC';-inkscape-font-specification:'Noto Sans CJK SC';text-align:center;text-anchor:middle"
       id="path2921" />
    <path
       d="m 232.53799,182.162 v 2.618 h -13.178 v -2.618 z m 1.628,4.048 v -5.478 h -16.412 v 6.402 c 0,3.476 -0.198,8.36 -2.244,11.792 0.418,0.154 1.144,0.55 1.452,0.814 2.112,-3.586 2.398,-8.932 2.398,-12.628 v -0.902 z m -0.286,3.322 v -1.452 h -12.408 v 1.452 z m 1.518,3.74 v -1.452 h -15.356 v 1.452 h 4.334 c -0.968,1.65 -2.178,3.19 -2.574,3.652 -0.484,0.528 -0.902,0.924 -1.276,0.99 0.198,0.418 0.484,1.188 0.572,1.518 0.682,-0.242 1.716,-0.33 11.264,-0.99 0.352,0.594 0.638,1.1 0.858,1.54 l 1.496,-0.748 c -0.77,-1.32 -2.288,-3.63 -3.52,-5.346 l -1.408,0.616 c 0.572,0.792 1.188,1.738 1.782,2.64 l -8.448,0.506 c 1.166,-1.254 2.332,-2.794 3.366,-4.378 z"
       style="font-weight:normal;font-family:'Noto Sans CJK SC';-inkscape-font-specification:'Noto Sans CJK SC';text-align:center;text-anchor:middle"
       id="path2923" />
  </g>
  <g
     aria-label="应用程序层"
     id="text2044"
     style="font-weight:500;font-size:22px;line-height:125%;font-family:Poppins;-inkscape-font-specification:'Poppins Medium';letter-spacing:0;word-spacing:0;fill:#ffffff">
    <path
       d="m 485.39799,134.054 v -1.562 h -7.348 c -0.286,-0.77 -0.88,-2.024 -1.43,-2.97 l -1.584,0.396 c 0.418,0.792 0.88,1.804 1.166,2.574 h -8.734 v 5.984 c 0,3.102 -0.154,7.436 -1.826,10.56 0.352,0.154 1.122,0.616 1.386,0.902 1.782,-3.278 2.068,-8.162 2.068,-11.462 v -4.422 z m -6.71,9.108 c -0.33,-2.046 -1.144,-5.104 -1.892,-7.458 l -1.474,0.396 c 0.726,2.376 1.518,5.478 1.826,7.502 z m -4.224,1.056 c -0.462,-2.024 -1.518,-5.082 -2.486,-7.458 l -1.408,0.572 c 0.902,2.354 1.958,5.478 2.376,7.502 z m 5.28,2.97 c 2.002,-3.388 3.63,-7.37 4.686,-11 l -1.716,-0.616 c -0.858,3.762 -2.53,8.228 -4.642,11.616 h -8.69 v 1.562 h 16.302 v -1.562 z"
       style="font-weight:normal;font-family:'Noto Sans CJK SC';-inkscape-font-specification:'Noto Sans CJK SC';text-align:center;text-anchor:middle"
       id="path3021" />
    <path
       d="m 498.66399,141.512 v -3.652 h 5.918 v 3.652 z m -6.974,0 c 0.066,-0.814 0.088,-1.628 0.088,-2.354 v -1.298 h 5.258 v 3.652 z m 5.346,-8.712 v 3.52 h -5.258 v -3.52 z m 7.546,3.52 h -5.918 v -3.52 h 5.918 z m 1.606,-5.082 h -16.016 v 7.92 c 0,3.058 -0.22,6.93 -2.64,9.658 0.352,0.198 1.012,0.748 1.254,1.078 1.672,-1.87 2.42,-4.378 2.75,-6.82 h 5.5 v 6.49 h 1.628 v -6.49 h 5.918 v 4.466 c 0,0.418 -0.154,0.55 -0.594,0.572 -0.396,0 -1.892,0.022 -3.432,-0.044 0.22,0.44 0.484,1.144 0.55,1.584 2.068,0.022 3.344,0 4.092,-0.264 0.704,-0.286 0.99,-0.77 0.99,-1.826 z"
       style="font-weight:normal;font-family:'Noto Sans CJK SC';-inkscape-font-specification:'Noto Sans CJK SC';text-align:center;text-anchor:middle"
       id="path3023" />
    <path
       d="m 526.84599,135.506 h -6.974 v -3.652 h 6.974 z m 1.584,-5.06 h -10.098 v 6.49 h 10.098 z m -11.11,11.286 c -0.374,-0.616 -2.046,-2.992 -2.662,-3.74 v -0.506 h 2.706 v -1.54 h -2.706 v -3.916 c 0.902,-0.242 1.76,-0.528 2.464,-0.858 l -1.034,-1.32 c -1.364,0.682 -3.762,1.32 -5.808,1.716 0.176,0.374 0.396,0.924 0.484,1.298 0.748,-0.132 1.562,-0.286 2.354,-0.462 v 3.542 h -3.08 v 1.54 h 2.838 c -0.748,2.486 -2.09,5.324 -3.322,6.908 0.286,0.418 0.704,1.122 0.858,1.562 0.99,-1.276 1.936,-3.322 2.706,-5.434 v 9.262 h 1.54 v -9.812 c 0.616,1.1 1.32,2.42 1.606,3.124 z m 6.996,5.94 v -3.036 h 4.4 v -1.474 h -4.4 v -2.86 h 4.884 v -1.496 h -11.286 v 1.496 h 4.796 v 2.86 h -4.268 v 1.474 h 4.268 v 3.036 h -5.764 v 1.518 h 12.738 v -1.518 z"
       style="font-weight:normal;font-family:'Noto Sans CJK SC';-inkscape-font-specification:'Noto Sans CJK SC';text-align:center;text-anchor:middle"
       id="path3025" />
    <path
       d="m 550.07799,140.698 h -4.07 l 0.176,-0.176 c -0.44,-0.264 -1.012,-0.55 -1.65,-0.88 1.804,-0.99 3.674,-2.376 4.972,-3.718 l -1.056,-0.814 -0.374,0.088 h -10.978 v 1.364 h 9.548 c -1.012,0.88 -2.31,1.782 -3.52,2.398 -1.078,-0.528 -2.222,-1.012 -3.212,-1.43 l -0.99,0.946 c 1.452,0.638 3.212,1.474 4.62,2.222 h -7.7 v 1.408 h 6.798 v 5.764 c 0,0.308 -0.11,0.396 -0.528,0.418 -0.418,0.022 -1.892,0.044 -3.498,-0.022 0.22,0.462 0.462,1.056 0.55,1.54 1.98,0 3.3,0 4.07,-0.242 0.792,-0.264 1.034,-0.682 1.034,-1.672 v -5.786 h 4.73 c -0.726,1.012 -1.562,2.024 -2.266,2.728 l 1.298,0.66 c 1.1,-1.078 2.354,-2.838 3.476,-4.4 l -1.166,-0.506 z m -6.094,-8.558 c -0.308,-0.726 -0.88,-1.782 -1.32,-2.552 l -1.562,0.462 c 0.33,0.616 0.726,1.43 1.012,2.09 h -8.69 v 6.05 c 0,3.19 -0.154,7.612 -1.936,10.736 0.352,0.176 1.078,0.638 1.364,0.924 1.87,-3.3 2.178,-8.272 2.178,-11.66 v -4.51 h 16.544 v -1.54 z"
       style="font-weight:normal;font-family:'Noto Sans CJK SC';-inkscape-font-specification:'Noto Sans CJK SC';text-align:center;text-anchor:middle"
       id="path3027" />
    <path
       d="m 570.53799,132.162 v 2.618 h -13.178 v -2.618 z m 1.628,4.048 v -5.478 h -16.412 v 6.402 c 0,3.476 -0.198,8.36 -2.244,11.792 0.418,0.154 1.144,0.55 1.452,0.814 2.112,-3.586 2.398,-8.932 2.398,-12.628 v -0.902 z m -0.286,3.322 v -1.452 h -12.408 v 1.452 z m 1.518,3.74 v -1.452 h -15.356 v 1.452 h 4.334 c -0.968,1.65 -2.178,3.19 -2.574,3.652 -0.484,0.528 -0.902,0.924 -1.276,0.99 0.198,0.418 0.484,1.188 0.572,1.518 0.682,-0.242 1.716,-0.33 11.264,-0.99 0.352,0.594 0.638,1.1 0.858,1.54 l 1.496,-0.748 c -0.77,-1.32 -2.288,-3.63 -3.52,-5.346 l -1.408,0.616 c 0.572,0.792 1.188,1.738 1.782,2.64 l -8.448,0.506 c 1.166,-1.254 2.332,-2.794 3.366,-4.378 z"
       style="font-weight:normal;font-family:'Noto Sans CJK SC';-inkscape-font-specification:'Noto Sans CJK SC';text-align:center;text-anchor:middle"
       id="path3029" />
  </g>
  <g
     aria-label="表示层"
     id="text2048"
     style="font-weight:500;font-size:22px;line-height:125%;font-family:Poppins;-inkscape-font-specification:'Poppins Medium';letter-spacing:0;word-spacing:0;fill:#ffffff">
    <path
       d="m 502.22599,190.508 c -0.946,0.924 -2.486,2.134 -3.806,3.036 -0.968,-1.144 -1.738,-2.442 -2.332,-3.894 h 8.052 v -1.408 h -8.69 v -1.958 h 7.018 v -1.364 h -7.018 v -1.848 h 8.008 v -1.408 h -8.008 v -1.958 h -1.628 v 1.958 h -7.766 v 1.408 h 7.766 v 1.848 h -6.644 v 1.364 h 6.644 v 1.958 h -8.624 v 1.408 h 7.26 c -2.068,1.848 -5.17,3.564 -7.898,4.422 0.352,0.33 0.836,0.924 1.056,1.32 1.21,-0.462 2.53,-1.056 3.784,-1.782 v 3.256 c 0,0.858 -0.484,1.254 -0.836,1.43 0.264,0.374 0.594,1.078 0.704,1.496 0.506,-0.352 1.298,-0.616 7.392,-2.574 -0.088,-0.33 -0.22,-0.968 -0.264,-1.408 l -5.324,1.606 v -4.862 c 1.298,-0.88 2.486,-1.87 3.432,-2.904 1.672,4.598 4.752,7.898 9.262,9.416 0.242,-0.44 0.726,-1.078 1.078,-1.408 -2.178,-0.638 -4.004,-1.716 -5.522,-3.146 1.386,-0.858 2.992,-1.98 4.246,-3.058 z"
       style="font-weight:normal;font-family:'Noto Sans CJK SC';-inkscape-font-specification:'Noto Sans CJK SC';text-align:center;text-anchor:middle"
       id="path3032" />
    <path
       d="m 524.37999,181.356 h -15.356 v 1.606 h 15.356 z m -13.486,9.042 c -0.968,2.486 -2.574,4.884 -4.356,6.424 0.418,0.22 1.166,0.726 1.474,0.99 1.76,-1.672 3.476,-4.29 4.554,-6.974 z m 9.79,0.638 c 1.606,2.134 3.234,4.972 3.85,6.776 l 1.606,-0.704 c -0.638,-1.848 -2.354,-4.642 -3.96,-6.688 z m -13.618,-4.378 v 1.606 h 8.778 v 9.372 c 0,0.352 -0.132,0.462 -0.55,0.462 -0.396,0.022 -1.826,0.022 -3.322,-0.022 0.242,0.484 0.506,1.21 0.594,1.694 1.914,0 3.212,-0.022 3.982,-0.286 0.77,-0.264 1.034,-0.77 1.034,-1.804 v -9.416 h 8.734 v -1.606 z"
       style="font-weight:normal;font-family:'Noto Sans CJK SC';-inkscape-font-specification:'Noto Sans CJK SC';text-align:center;text-anchor:middle"
       id="path3034" />
    <path
       d="m 545.47799,182.192 v 2.618 h -13.178 v -2.618 z m 1.628,4.048 v -5.478 h -16.412 v 6.402 c 0,3.476 -0.198,8.36 -2.244,11.792 0.418,0.154 1.144,0.55 1.452,0.814 2.112,-3.586 2.398,-8.932 2.398,-12.628 v -0.902 z m -0.286,3.322 v -1.452 h -12.408 v 1.452 z m 1.518,3.74 v -1.452 h -15.356 v 1.452 h 4.334 c -0.968,1.65 -2.178,3.19 -2.574,3.652 -0.484,0.528 -0.902,0.924 -1.276,0.99 0.198,0.418 0.484,1.188 0.572,1.518 0.682,-0.242 1.716,-0.33 11.264,-0.99 0.352,0.594 0.638,1.1 0.858,1.54 l 1.496,-0.748 c -0.77,-1.32 -2.288,-3.63 -3.52,-5.346 l -1.408,0.616 c 0.572,0.792 1.188,1.738 1.782,2.64 l -8.448,0.506 c 1.166,-1.254 2.332,-2.794 3.366,-4.378 z"
       style="font-weight:normal;font-family:'Noto Sans CJK SC';-inkscape-font-specification:'Noto Sans CJK SC';text-align:center;text-anchor:middle"
       id="path3036" />
  </g>
  <g
     aria-label="会话层"
     id="text2052"
     style="font-weight:500;font-size:22px;line-height:125%;font-family:Poppins;-inkscape-font-specification:'Poppins Medium';letter-spacing:0;word-spacing:0;fill:#ffffff">
    <path
       d="m 485.88597,242.29 h 6.248 c -1.43,1.958 -3.08,3.696 -3.696,4.202 -0.66,0.638 -1.166,1.056 -1.628,1.144 0.176,0.484 0.44,1.342 0.55,1.694 0.814,-0.308 2.046,-0.396 13.662,-1.342 0.484,0.638 0.902,1.276 1.21,1.804 l 1.452,-0.902 c -0.968,-1.65 -3.036,-3.982 -4.994,-5.742 l -1.386,0.748 c 0.836,0.77 1.76,1.716 2.552,2.64 l -9.988,0.748 c 1.584,-1.408 3.124,-3.19 4.488,-4.994 h 9.592 v -1.584 h -18.062 z m 9.042,-12.562 c -1.958,2.948 -5.808,5.698 -10.076,7.524 0.374,0.308 0.946,0.99 1.188,1.386 1.276,-0.572 2.486,-1.232 3.63,-1.958 v 1.342 h 10.45 v -1.518 h -10.164 c 1.892,-1.21 3.586,-2.618 4.95,-4.114 2.068,2.112 5.5,4.642 8.91,6.028 0.264,-0.462 0.77,-1.122 1.144,-1.452 -3.542,-1.21 -7.106,-3.63 -9.108,-5.676 0.198,-0.286 0.418,-0.594 0.638,-0.88 z"
       style="font-weight:normal;font-family:'Noto Sans CJK SC';-inkscape-font-specification:'Noto Sans CJK SC';text-align:center;text-anchor:middle"
       id="path3039" />
    <path
       d="m 512.35197,233.402 c -0.682,-0.858 -2.09,-2.178 -3.212,-3.102 l -1.056,0.99 c 1.122,0.99 2.508,2.376 3.146,3.256 z m -0.902,12.342 v -9.152 h -4.576 v 1.562 h 3.036 v 7.634 c 0,1.034 -0.748,1.826 -1.166,2.134 0.308,0.264 0.77,0.924 0.946,1.298 0.352,-0.462 0.946,-0.946 4.664,-3.85 -0.198,-0.308 -0.506,-0.924 -0.638,-1.364 z m 12.452,1.694 h -7.26 v -4.29 h 7.26 z m 2.948,-9.438 v -1.562 h -5.764 v -4.202 c 1.716,-0.308 3.322,-0.638 4.62,-1.056 l -1.144,-1.32 c -2.486,0.814 -6.93,1.518 -10.692,1.892 0.176,0.374 0.418,0.968 0.484,1.342 1.628,-0.154 3.366,-0.352 5.104,-0.594 v 3.938 h -5.566 V 238 h 5.566 v 3.652 h -4.444 v 8.162 h 1.628 v -0.88 h 7.26 v 0.792 h 1.694 v -8.074 h -4.51 V 238 Z"
       style="font-weight:normal;font-family:'Noto Sans CJK SC';-inkscape-font-specification:'Noto Sans CJK SC';text-align:center;text-anchor:middle"
       id="path3041" />
    <path
       d="m 545.63797,232.192 v 2.618 h -13.178 v -2.618 z m 1.628,4.048 v -5.478 h -16.412 v 6.402 c 0,3.476 -0.198,8.36 -2.244,11.792 0.418,0.154 1.144,0.55 1.452,0.814 2.112,-3.586 2.398,-8.932 2.398,-12.628 v -0.902 z m -0.286,3.322 v -1.452 h -12.408 v 1.452 z m 1.518,3.74 v -1.452 h -15.356 v 1.452 h 4.334 c -0.968,1.65 -2.178,3.19 -2.574,3.652 -0.484,0.528 -0.902,0.924 -1.276,0.99 0.198,0.418 0.484,1.188 0.572,1.518 0.682,-0.242 1.716,-0.33 11.264,-0.99 0.352,0.594 0.638,1.1 0.858,1.54 l 1.496,-0.748 c -0.77,-1.32 -2.288,-3.63 -3.52,-5.346 l -1.408,0.616 c 0.572,0.792 1.188,1.738 1.782,2.64 l -8.448,0.506 c 1.166,-1.254 2.332,-2.794 3.366,-4.378 z"
       style="font-weight:normal;font-family:'Noto Sans CJK SC';-inkscape-font-specification:'Noto Sans CJK SC';text-align:center;text-anchor:middle"
       id="path3043" />
  </g>
  <g
     aria-label="传输层"
     id="text2056"
     style="font-weight:500;font-size:22px;line-height:125%;font-family:Poppins;-inkscape-font-specification:'Poppins Medium';letter-spacing:0;word-spacing:0;fill:#ffffff">
    <path
       d="m 490.48597,298.93401 c -1.232,3.344 -3.278,6.622 -5.434,8.734 0.308,0.374 0.77,1.21 0.946,1.584 0.726,-0.77 1.474,-1.65 2.156,-2.618 v 12.276 h 1.606 v -14.762 c 0.858,-1.518 1.628,-3.124 2.266,-4.73 z m 15.004,8.118 v -1.518 h -8.404 c 0.264,-0.858 0.506,-1.738 0.748,-2.618 h 6.666 v -1.518 h -6.27 c 0.22,-0.748 0.418,-1.518 0.594,-2.2 l -1.628,-0.22 c -0.176,0.77 -0.396,1.584 -0.594,2.42 h -4.29 v 1.518 h 3.872 c -0.242,0.858 -0.484,1.76 -0.726,2.618 h -4.4 v 1.518 h 3.938 c -0.462,1.562 -0.924,3.014 -1.342,4.158 h 7.81 c -0.946,1.1 -2.134,2.42 -3.256,3.63 -0.704,-0.484 -1.43,-0.946 -2.112,-1.364 l -1.188,0.99 c 2.068,1.298 4.554,3.234 5.742,4.488 l 1.21,-1.21 c -0.594,-0.594 -1.452,-1.298 -2.398,-2.002 1.672,-1.848 3.52,-3.916 4.84,-5.456 l -1.122,-0.726 -0.264,0.11 h -7.04 c 0.242,-0.792 0.506,-1.694 0.792,-2.618 z"
       style="font-weight:normal;font-family:'Noto Sans CJK SC';-inkscape-font-specification:'Noto Sans CJK SC';text-align:center;text-anchor:middle"
       id="path3046" />
    <path
       d="m 514.57597,311.98001 -1.672,0.396 v -2.706 h 1.738 v -1.496 h -1.738 v -3.278 h -1.43 v 3.278 h -1.914 c 0.55,-1.518 1.1,-3.322 1.54,-5.192 h 3.586 v -1.496 h -3.256 c 0.154,-0.792 0.308,-1.584 0.418,-2.354 l -1.518,-0.242 c -0.088,0.88 -0.22,1.738 -0.374,2.596 h -2.266 v 1.496 h 1.958 c -0.352,1.804 -0.792,3.278 -0.99,3.85 -0.308,0.968 -0.572,1.672 -0.924,1.782 0.176,0.352 0.418,1.078 0.484,1.386 0.198,-0.198 0.836,-0.33 1.54,-0.33 h 1.716 v 3.036 c -1.474,0.33 -2.816,0.66 -3.872,0.858 l 0.352,1.518 c 1.034,-0.242 2.244,-0.55 3.52,-0.88 v 4.73 h 1.43 v -5.104 l 1.804,-0.462 z m 2.508,1.144 v -1.804 h 3.014 v 1.804 z m 3.014,-4.774 v 1.716 h -3.014 v -1.716 z m 1.364,-1.32 h -5.72 v 11.836 h 1.342 v -4.51 h 3.014 v 2.86 c 0,0.198 -0.044,0.242 -0.242,0.264 -0.198,0 -0.77,0 -1.452,-0.022 0.198,0.396 0.374,0.968 0.418,1.364 0.946,0 1.628,-0.022 2.068,-0.264 0.462,-0.242 0.572,-0.638 0.572,-1.342 z m 4.026,10.054 c 0,0.264 -0.088,0.33 -0.352,0.33 -0.286,0.022 -1.144,0.022 -2.156,0 0.22,0.396 0.374,0.968 0.44,1.342 1.298,0 2.156,-0.022 2.706,-0.264 0.528,-0.22 0.682,-0.616 0.682,-1.408 v -10.45 h -1.32 z m -1.518,-9.658 h -1.276 v 7.898 h 1.276 z m -6.292,-3.19 c 1.254,-0.88 2.398,-1.936 3.388,-3.08 1.1,1.232 2.332,2.222 3.674,3.08 z m 3.366,-5.456 c -1.43,2.31 -4.136,4.466 -6.776,5.698 0.374,0.33 0.814,0.836 1.056,1.21 0.594,-0.308 1.188,-0.66 1.76,-1.034 v 0.924 h 8.096 v -1.056 c 0.55,0.33 1.122,0.638 1.716,0.946 0.22,-0.462 0.66,-0.946 1.034,-1.276 -2.288,-0.99 -4.378,-2.222 -6.028,-4.092 0.176,-0.242 0.33,-0.484 0.484,-0.704 z"
       style="font-weight:normal;font-family:'Noto Sans CJK SC';-inkscape-font-specification:'Noto Sans CJK SC';text-align:center;text-anchor:middle"
       id="path3048" />
    <path
       d="m 546.38797,301.33201 v 2.618 h -13.178 v -2.618 z m 1.628,4.048 v -5.478 h -16.412 v 6.402 c 0,3.476 -0.198,8.36 -2.244,11.792 0.418,0.154 1.144,0.55 1.452,0.814 2.112,-3.586 2.398,-8.932 2.398,-12.628 v -0.902 z m -0.286,3.322 v -1.452 h -12.408 v 1.452 z m 1.518,3.74 v -1.452 h -15.356 v 1.452 h 4.334 c -0.968,1.65 -2.178,3.19 -2.574,3.652 -0.484,0.528 -0.902,0.924 -1.276,0.99 0.198,0.418 0.484,1.188 0.572,1.518 0.682,-0.242 1.716,-0.33 11.264,-0.99 0.352,0.594 0.638,1.1 0.858,1.54 l 1.496,-0.748 c -0.77,-1.32 -2.288,-3.63 -3.52,-5.346 l -1.408,0.616 c 0.572,0.792 1.188,1.738 1.782,2.64 l -8.448,0.506 c 1.166,-1.254 2.332,-2.794 3.366,-4.378 z"
       style="font-weight:normal;font-family:'Noto Sans CJK SC';-inkscape-font-specification:'Noto Sans CJK SC';text-align:center;text-anchor:middle"
       id="path3050" />
  </g>
  <g
     aria-label="网络层"
     id="text2060"
     style="font-weight:500;font-size:22px;line-height:125%;font-family:Poppins;-inkscape-font-specification:'Poppins Medium';letter-spacing:0;word-spacing:0;fill:#ffffff">
    <path
       d="m 495.80204,383.23601 c -0.528,-0.946 -1.298,-2.134 -2.156,-3.366 0.594,-1.804 1.056,-3.806 1.408,-5.94 l -1.496,-0.154 c -0.264,1.628 -0.572,3.146 -0.99,4.598 -0.836,-1.122 -1.716,-2.266 -2.574,-3.256 l -1.012,0.902 c 0.99,1.21 2.068,2.64 3.036,4.026 -0.836,2.332 -2.002,4.29 -3.52,5.764 0.352,0.22 1.034,0.682 1.276,0.902 1.32,-1.408 2.398,-3.146 3.278,-5.214 0.66,1.034 1.254,2.002 1.672,2.794 z m 6.402,0.77 c -0.528,-1.166 -1.364,-2.618 -2.332,-4.092 0.594,-1.804 1.034,-3.784 1.364,-5.94 l -1.474,-0.154 c -0.242,1.606 -0.528,3.124 -0.946,4.554 -0.792,-1.1 -1.628,-2.2 -2.464,-3.168 l -1.056,0.814 c 0.99,1.232 2.046,2.662 2.992,4.048 -0.88,2.42 -2.046,4.444 -3.674,5.918 0.374,0.198 1.012,0.66 1.298,0.902 1.386,-1.43 2.464,-3.19 3.344,-5.28 0.748,1.232 1.364,2.398 1.804,3.344 z m 2.508,-13.288 h -18.018 v 18.722 h 1.628 v -17.182 h 14.784 v 15.048 c 0,0.374 -0.176,0.506 -0.572,0.528 -0.418,0 -1.848,0.022 -3.3,-0.044 0.22,0.462 0.528,1.166 0.616,1.628 1.98,0.022 3.168,-0.022 3.872,-0.286 0.704,-0.286 0.99,-0.792 0.99,-1.826 z"
       style="font-weight:normal;font-family:'Noto Sans CJK SC';-inkscape-font-specification:'Noto Sans CJK SC';text-align:center;text-anchor:middle"
       id="path3053" />
    <path
       d="m 508.01204,388.27401 c 2.024,-0.66 4.708,-1.474 7.282,-2.244 l -0.264,-1.43 c -2.75,0.792 -5.544,1.606 -7.37,2.046 z m 16.632,-5.544 v 4.004 h -6.204 v -4.004 z m -7.722,6.534 h 1.518 v -1.078 h 6.204 v 1.056 h 1.584 v -7.986 h -9.306 z m 2.046,-16.302 h 5.764 c -0.792,1.408 -1.914,2.596 -3.212,3.63 -1.144,-0.968 -2.068,-2.09 -2.706,-3.366 z m 6.974,-1.54 -0.308,0.044 h -5.83 c 0.308,-0.616 0.616,-1.298 0.88,-1.936 l -1.474,-0.44 c -0.924,2.42 -2.464,4.73 -4.158,6.27 l 0.242,-0.418 -1.43,-0.858 c -0.396,0.748 -0.836,1.518 -1.32,2.266 l -2.772,0.286 c 1.276,-1.826 2.574,-4.18 3.542,-6.424 l -1.54,-0.748 c -0.902,2.618 -2.53,5.39 -3.014,6.116 -0.484,0.748 -0.88,1.232 -1.254,1.342 0.198,0.44 0.44,1.232 0.528,1.584 0.308,-0.154 0.836,-0.286 3.542,-0.66 -0.968,1.386 -1.848,2.508 -2.266,2.904 -0.66,0.814 -1.188,1.342 -1.65,1.43 0.176,0.44 0.44,1.232 0.528,1.562 0.462,-0.286 1.188,-0.506 6.6,-1.826 -0.066,-0.352 -0.088,-1.012 -0.044,-1.43 l -4.026,0.88 c 1.474,-1.694 2.948,-3.74 4.224,-5.83 0.308,0.308 0.77,0.946 0.99,1.232 0.682,-0.638 1.364,-1.386 1.98,-2.244 0.66,1.056 1.474,2.068 2.442,2.948 -1.65,1.078 -3.52,1.914 -5.434,2.464 0.242,0.352 0.572,1.078 0.704,1.518 2.068,-0.704 4.136,-1.694 5.94,-2.992 1.606,1.232 3.542,2.2 5.588,2.86 0.11,-0.44 0.374,-1.1 0.66,-1.496 -1.87,-0.484 -3.608,-1.276 -5.06,-2.266 1.738,-1.518 3.212,-3.344 4.136,-5.522 z"
       style="font-weight:normal;font-family:'Noto Sans CJK SC';-inkscape-font-specification:'Noto Sans CJK SC';text-align:center;text-anchor:middle"
       id="path3055" />
    <path
       d="m 546.46804,371.86201 v 2.618 h -13.178 v -2.618 z m 1.628,4.048 v -5.478 h -16.412 v 6.402 c 0,3.476 -0.198,8.36 -2.244,11.792 0.418,0.154 1.144,0.55 1.452,0.814 2.112,-3.586 2.398,-8.932 2.398,-12.628 v -0.902 z m -0.286,3.322 v -1.452 h -12.408 v 1.452 z m 1.518,3.74 v -1.452 h -15.356 v 1.452 h 4.334 c -0.968,1.65 -2.178,3.19 -2.574,3.652 -0.484,0.528 -0.902,0.924 -1.276,0.99 0.198,0.418 0.484,1.188 0.572,1.518 0.682,-0.242 1.716,-0.33 11.264,-0.99 0.352,0.594 0.638,1.1 0.858,1.54 l 1.496,-0.748 c -0.77,-1.32 -2.288,-3.63 -3.52,-5.346 l -1.408,0.616 c 0.572,0.792 1.188,1.738 1.782,2.64 l -8.448,0.506 c 1.166,-1.254 2.332,-2.794 3.366,-4.378 z"
       style="font-weight:normal;font-family:'Noto Sans CJK SC';-inkscape-font-specification:'Noto Sans CJK SC';text-align:center;text-anchor:middle"
       id="path3057" />
  </g>
  <g
     aria-label="数据链接层"
     id="text2064"
     style="font-weight:500;font-size:22px;line-height:125%;font-family:Poppins;-inkscape-font-specification:'Poppins Medium';letter-spacing:0;word-spacing:0;fill:#ffffff">
    <path
       d="m 470.96801,445.124 c -0.374,0.88 -1.1,2.134 -1.65,2.926 l 1.056,0.506 c 0.616,-0.726 1.32,-1.826 1.958,-2.816 z m -5.148,2.97 c -0.22,-0.814 -0.814,-1.98 -1.43,-2.838 l -1.188,0.484 c 0.594,0.902 1.166,2.112 1.364,2.882 z m 1.078,6.16 h 1.518 v -3.014 c 1.056,0.748 2.42,1.826 2.948,2.332 l 0.902,-1.188 c -0.506,-0.374 -2.398,-1.606 -3.498,-2.244 h 4.136 v -1.364 h -4.488 v -4.07 h -1.518 v 4.07 h -4.532 v 1.364 h 4.026 c -1.078,1.43 -2.706,2.772 -4.246,3.432 0.308,0.308 0.704,0.858 0.88,1.232 1.342,-0.704 2.772,-1.914 3.872,-3.212 z m 3.344,3.146 c -0.484,1.144 -1.188,2.112 -2.046,2.904 -0.792,-0.396 -1.672,-0.814 -2.486,-1.166 0.308,-0.506 0.638,-1.122 0.968,-1.738 z m 1.078,4.73 c -0.484,-0.352 -1.144,-0.748 -1.848,-1.144 1.166,-1.232 2.068,-2.772 2.64,-4.664 l -0.924,-0.374 -0.242,0.066 h -3.586 c 0.176,-0.396 0.308,-0.77 0.462,-1.144 l -1.452,-0.264 c -0.154,0.462 -0.352,0.924 -0.572,1.408 h -2.97 v 1.386 h 2.288 c -0.462,0.858 -0.946,1.672 -1.408,2.332 1.078,0.396 2.266,0.946 3.366,1.518 -1.43,1.012 -3.102,1.716 -4.884,2.112 0.286,0.308 0.616,0.902 0.77,1.254 2.002,-0.528 3.872,-1.386 5.434,-2.64 0.748,0.418 1.408,0.858 1.914,1.232 z m 7.634,-11.66 c -0.33,2.53 -0.858,4.73 -1.65,6.578 -0.836,-1.958 -1.452,-4.202 -1.87,-6.578 z m 3.014,0 v -1.518 h -6.204 c 0.308,-1.232 0.572,-2.508 0.748,-3.806 l -1.496,-0.22 c -0.55,3.806 -1.54,7.48 -3.212,9.79 0.352,0.22 0.968,0.726 1.232,0.99 0.55,-0.836 1.056,-1.804 1.496,-2.882 0.484,2.178 1.1,4.158 1.936,5.874 -1.232,2.09 -2.948,3.696 -5.324,4.862 0.286,0.308 0.748,0.968 0.902,1.32 2.244,-1.21 3.916,-2.75 5.214,-4.664 1.078,1.87 2.464,3.366 4.158,4.4 0.242,-0.418 0.704,-0.968 1.078,-1.276 -1.826,-0.968 -3.256,-2.596 -4.378,-4.598 1.166,-2.266 1.892,-4.994 2.398,-8.272 z"
       style="font-weight:normal;font-family:'Noto Sans CJK SC';-inkscape-font-specification:'Noto Sans CJK SC';text-align:center;text-anchor:middle"
       id="path3060" />
    <path
       d="m 490.96601,455.772 -0.22,-1.496 -2.288,0.726 v -4.356 h 2.486 v -1.518 h -2.486 v -4.4 h -1.518 v 4.4 h -2.728 v 1.518 h 2.728 v 4.818 c -1.144,0.33 -2.178,0.638 -2.992,0.88 l 0.396,1.562 c 0.792,-0.242 1.672,-0.506 2.596,-0.814 v 5.654 c 0,0.33 -0.11,0.418 -0.374,0.418 -0.242,0 -1.122,0 -2.068,-0.022 0.22,0.462 0.418,1.122 0.484,1.518 1.386,0.022 2.222,-0.044 2.728,-0.308 0.55,-0.264 0.748,-0.682 0.748,-1.584 v -6.182 z m 2.508,-2.024 c 0.022,-0.528 0.022,-0.99 0.022,-1.474 v -0.946 h 4.246 v 2.42 z m 8.404,-6.644 v 2.794 h -8.382 v -2.794 z m 0.154,15.466 h -6.754 v -3.322 h 6.754 z m 2.156,-7.414 v -1.408 h -4.884 v -2.42 h 4.136 v -5.654 h -11.528 v 6.6 c 0,3.476 -0.198,8.25 -2.464,11.616 0.374,0.154 1.056,0.616 1.32,0.924 1.848,-2.706 2.442,-6.402 2.64,-9.658 h 4.334 v 2.706 h -3.894 v 6.974 h 1.43 v -0.902 h 6.754 v 0.814 h 1.496 v -6.886 h -4.224 v -2.706 z"
       style="font-weight:normal;font-family:'Noto Sans CJK SC';-inkscape-font-specification:'Noto Sans CJK SC';text-align:center;text-anchor:middle"
       id="path3062" />
    <path
       d="m 520.84201,461.888 h 1.562 v -3.674 h 3.674 v -1.452 h -3.674 v -2.97 h 3.124 v -1.386 h -3.124 v -2.618 h -1.562 v 2.618 h -2.266 c 0.572,-1.144 1.144,-2.486 1.672,-3.916 h 5.676 v -1.474 h -5.192 c 0.22,-0.682 0.44,-1.364 0.616,-2.046 l -1.628,-0.308 c -0.154,0.77 -0.33,1.584 -0.55,2.354 h -2.86 v 1.474 h 2.376 c -0.418,1.276 -0.836,2.31 -1.012,2.706 -0.374,0.77 -0.682,1.342 -1.012,1.43 0.198,0.418 0.418,1.144 0.506,1.474 0.198,-0.176 0.836,-0.308 1.672,-0.308 h 2.002 v 2.97 h -4.532 v 1.452 h 4.532 z m -4.994,-12.496 c -0.352,-1.034 -1.1,-2.618 -1.804,-3.828 l -1.342,0.484 c 0.682,1.188 1.408,2.838 1.738,3.894 z m -3.564,-0.726 v -1.43 h -3.234 c 0.264,-0.682 0.462,-1.408 0.638,-2.09 l -1.408,-0.374 c -0.44,2.002 -1.232,3.982 -2.266,5.302 0.264,0.33 0.704,1.1 0.836,1.43 0.594,-0.792 1.166,-1.76 1.628,-2.838 z m -2.134,12.848 v -4.532 h 2.266 v -1.43 h -2.266 v -3.036 h 1.606 v -1.408 h -4.444 v 1.408 h 1.364 v 3.036 h -2.288 v 1.43 h 2.288 v 4.356 c 0,1.056 -0.66,1.782 -1.056,2.09 0.264,0.242 0.682,0.792 0.858,1.122 0.308,-0.396 0.836,-0.814 4.136,-3.102 -0.154,-0.286 -0.374,-0.858 -0.484,-1.232 z m 5.522,-9.262 h -3.08 v 1.496 h 1.584 v 7.304 c -0.77,0.374 -1.628,1.144 -2.464,2.068 l 1.056,1.474 c 0.814,-1.188 1.694,-2.332 2.288,-2.332 0.44,0 1.056,0.528 1.804,1.056 1.166,0.726 2.508,1.034 4.356,1.034 1.364,0 3.674,-0.066 4.84,-0.132 0.022,-0.462 0.22,-1.254 0.374,-1.716 -1.452,0.198 -3.74,0.286 -5.17,0.286 -1.716,0 -3.036,-0.198 -4.136,-0.88 -0.616,-0.396 -1.034,-0.77 -1.452,-0.946 z"
       style="font-weight:normal;font-family:'Noto Sans CJK SC';-inkscape-font-specification:'Noto Sans CJK SC';text-align:center;text-anchor:middle"
       id="path3064" />
    <path
       d="m 547.50601,447.016 h -5.104 c -0.308,-0.66 -0.77,-1.496 -1.21,-2.134 l -1.518,0.264 c 0.352,0.55 0.726,1.254 1.012,1.87 h -5.016 v 1.43 h 11.836 z m -7.37,4.444 c -0.286,-0.748 -0.99,-1.914 -1.65,-2.772 l -1.232,0.506 c 0.638,0.88 1.298,2.09 1.584,2.86 z m 7.92,0.66 h -4.224 c 0.594,-0.858 1.21,-1.98 1.804,-2.992 l -1.54,-0.418 c -0.418,1.012 -1.232,2.464 -1.848,3.41 h -7.348 v 1.43 h 13.156 z m -13.574,3.784 -0.242,-1.496 -1.936,0.616 v -4.378 h 2.2 v -1.518 h -2.2 v -4.4 h -1.518 v 4.4 h -2.596 v 1.518 h 2.596 v 4.84 c -1.078,0.33 -2.09,0.638 -2.882,0.858 l 0.418,1.562 2.464,-0.792 v 5.742 c 0,0.286 -0.11,0.374 -0.374,0.374 -0.22,0.022 -1.012,0.022 -1.892,-0.022 0.22,0.44 0.418,1.122 0.462,1.54 1.276,0.022 2.09,-0.044 2.596,-0.308 0.506,-0.264 0.726,-0.704 0.726,-1.584 v -6.226 z m 9.504,1.452 c -0.418,1.386 -1.078,2.486 -2.046,3.366 -1.232,-0.506 -2.486,-0.946 -3.674,-1.32 0.44,-0.594 0.902,-1.32 1.32,-2.046 z m 4.312,0 v -1.408 h -7.92 c 0.374,-0.682 0.726,-1.364 1.012,-2.002 l -1.518,-0.308 c -0.308,0.726 -0.682,1.518 -1.144,2.31 h -4.114 v 1.408 h 3.3 c -0.638,1.012 -1.298,1.98 -1.87,2.728 1.43,0.44 2.992,0.99 4.488,1.628 -1.518,0.836 -3.542,1.364 -6.248,1.65 0.264,0.352 0.572,0.946 0.704,1.408 3.146,-0.462 5.478,-1.188 7.216,-2.354 1.76,0.814 3.366,1.672 4.444,2.442 l 1.078,-1.254 c -1.078,-0.748 -2.596,-1.518 -4.246,-2.244 1.034,-1.034 1.716,-2.354 2.178,-4.004 z"
       style="font-weight:normal;font-family:'Noto Sans CJK SC';-inkscape-font-specification:'Noto Sans CJK SC';text-align:center;text-anchor:middle"
       id="path3066" />
    <path
       d="m 566.99801,447.192 v 2.618 h -13.178 v -2.618 z m 1.628,4.048 v -5.478 h -16.412 v 6.402 c 0,3.476 -0.198,8.36 -2.244,11.792 0.418,0.154 1.144,0.55 1.452,0.814 2.112,-3.586 2.398,-8.932 2.398,-12.628 v -0.902 z m -0.286,3.322 v -1.452 h -12.408 v 1.452 z m 1.518,3.74 v -1.452 h -15.356 v 1.452 h 4.334 c -0.968,1.65 -2.178,3.19 -2.574,3.652 -0.484,0.528 -0.902,0.924 -1.276,0.99 0.198,0.418 0.484,1.188 0.572,1.518 0.682,-0.242 1.716,-0.33 11.264,-0.99 0.352,0.594 0.638,1.1 0.858,1.54 l 1.496,-0.748 c -0.77,-1.32 -2.288,-3.63 -3.52,-5.346 l -1.408,0.616 c 0.572,0.792 1.188,1.738 1.782,2.64 l -8.448,0.506 c 1.166,-1.254 2.332,-2.794 3.366,-4.378 z"
       style="font-weight:normal;font-family:'Noto Sans CJK SC';-inkscape-font-specification:'Noto Sans CJK SC';text-align:center;text-anchor:middle"
       id="path3068" />
  </g>
  <g
     aria-label="物理层"
     id="text2068"
     style="font-weight:500;font-size:22px;line-height:125%;font-family:Poppins;-inkscape-font-specification:'Poppins Medium';letter-spacing:0;word-spacing:0;fill:#ffffff">
    <path
       d="m 491.278,505.926 -0.22,-1.452 -2.552,0.792 v -4.488 h 2.266 v -1.584 h -2.266 v -4.466 h -1.518 v 4.466 h -1.694 c 0.154,-0.968 0.308,-1.98 0.418,-2.97 l -1.43,-0.242 c -0.264,2.684 -0.682,5.456 -1.518,7.326 0.352,0.132 0.968,0.528 1.254,0.726 0.396,-0.902 0.704,-2.024 0.968,-3.256 h 2.002 v 4.906 c -1.54,0.484 -2.948,0.858 -4.07,1.166 l 0.44,1.562 c 1.078,-0.33 2.332,-0.726 3.63,-1.122 v 7.524 h 1.518 v -8.008 z m 10.076,-7.546 v 0.022 h -7.04 c 0.396,-1.078 0.726,-2.222 0.99,-3.388 l -1.496,-0.308 c -0.726,3.322 -2.046,6.49 -3.85,8.448 0.33,0.22 0.99,0.682 1.254,0.946 0.946,-1.122 1.782,-2.574 2.508,-4.18 h 1.892 c -1.012,3.52 -2.97,7.194 -5.302,9.02 0.462,0.242 0.99,0.616 1.298,0.946 2.398,-2.09 4.422,-6.204 5.412,-9.966 h 1.804 c -1.144,5.522 -3.52,10.934 -7.128,13.53 0.484,0.242 1.056,0.638 1.364,0.99 3.652,-2.904 6.072,-8.756 7.172,-14.52 h 1.056 c -0.44,8.712 -0.924,11.968 -1.628,12.738 -0.242,0.286 -0.462,0.374 -0.814,0.374 -0.44,0 -1.32,-0.022 -2.31,-0.11 0.286,0.44 0.44,1.122 0.462,1.606 0.968,0.066 1.914,0.088 2.508,0 0.66,-0.066 1.1,-0.264 1.518,-0.836 0.88,-1.1 1.364,-4.51 1.848,-14.476 0.022,-0.198 0.022,-0.814 0.022,-0.814 z"
       style="font-weight:normal;font-family:'Noto Sans CJK SC';-inkscape-font-specification:'Noto Sans CJK SC';text-align:center;text-anchor:middle"
       id="path3071" />
    <path
       d="m 511.826,508.698 -2.398,0.792 v -5.434 h 2.222 v -1.54 h -2.222 v -4.774 h 2.53 v -1.54 h -6.82 v 1.54 h 2.728 v 4.774 h -2.508 v 1.54 h 2.508 v 5.918 c -1.122,0.374 -2.134,0.682 -2.948,0.924 l 0.374,1.65 c 1.958,-0.638 4.466,-1.496 6.82,-2.288 z m 2.706,-7.436 h 3.344 v 2.816 h -3.344 z m 0,-4.114 h 3.344 v 2.772 h -3.344 z m 8.118,2.772 h -3.366 v -2.772 h 3.366 z m 0,4.158 h -3.366 v -2.816 h 3.366 z m -3.234,8.514 v -3.014 h 5.126 v -1.496 h -5.126 v -2.574 h 4.796 v -9.79 h -11.176 v 9.79 h 4.73 v 2.574 h -4.994 v 1.496 h 4.994 v 3.014 h -6.688 v 1.496 h 14.168 v -1.496 z"
       style="font-weight:normal;font-family:'Noto Sans CJK SC';-inkscape-font-specification:'Noto Sans CJK SC';text-align:center;text-anchor:middle"
       id="path3073" />
    <path
       d="m 543.858,497.192 v 2.618 H 530.68 v -2.618 z m 1.628,4.048 v -5.478 h -16.412 v 6.402 c 0,3.476 -0.198,8.36 -2.244,11.792 0.418,0.154 1.144,0.55 1.452,0.814 2.112,-3.586 2.398,-8.932 2.398,-12.628 v -0.902 z m -0.286,3.322 v -1.452 h -12.408 v 1.452 z m 1.518,3.74 v -1.452 h -15.356 v 1.452 h 4.334 c -0.968,1.65 -2.178,3.19 -2.574,3.652 -0.484,0.528 -0.902,0.924 -1.276,0.99 0.198,0.418 0.484,1.188 0.572,1.518 0.682,-0.242 1.716,-0.33 11.264,-0.99 0.352,0.594 0.638,1.1 0.858,1.54 l 1.496,-0.748 c -0.77,-1.32 -2.288,-3.63 -3.52,-5.346 l -1.408,0.616 c 0.572,0.792 1.188,1.738 1.782,2.64 l -8.448,0.506 c 1.166,-1.254 2.332,-2.794 3.366,-4.378 z"
       style="font-weight:normal;font-family:'Noto Sans CJK SC';-inkscape-font-specification:'Noto Sans CJK SC';text-align:center;text-anchor:middle"
       id="path3075" />
  </g>
  <g
     aria-label="网络访问层"
     id="text2072"
     style="font-weight:500;font-size:22px;line-height:125%;font-family:Poppins;-inkscape-font-specification:'Poppins Medium';letter-spacing:0;word-spacing:0">
    <path
       d="m 133.542,483.23601 c -0.528,-0.946 -1.298,-2.134 -2.156,-3.366 0.594,-1.804 1.056,-3.806 1.408,-5.94 l -1.496,-0.154 c -0.264,1.628 -0.572,3.146 -0.99,4.598 -0.836,-1.122 -1.716,-2.266 -2.574,-3.256 l -1.012,0.902 c 0.99,1.21 2.068,2.64 3.036,4.026 -0.836,2.332 -2.002,4.29 -3.52,5.764 0.352,0.22 1.034,0.682 1.276,0.902 1.32,-1.408 2.398,-3.146 3.278,-5.214 0.66,1.034 1.254,2.002 1.672,2.794 z m 6.402,0.77 c -0.528,-1.166 -1.364,-2.618 -2.332,-4.092 0.594,-1.804 1.034,-3.784 1.364,-5.94 l -1.474,-0.154 c -0.242,1.606 -0.528,3.124 -0.946,4.554 -0.792,-1.1 -1.628,-2.2 -2.464,-3.168 l -1.056,0.814 c 0.99,1.232 2.046,2.662 2.992,4.048 -0.88,2.42 -2.046,4.444 -3.674,5.918 0.374,0.198 1.012,0.66 1.298,0.902 1.386,-1.43 2.464,-3.19 3.344,-5.28 0.748,1.232 1.364,2.398 1.804,3.344 z m 2.508,-13.288 h -18.018 v 18.722 h 1.628 v -17.182 h 14.784 v 15.048 c 0,0.374 -0.176,0.506 -0.572,0.528 -0.418,0 -1.848,0.022 -3.3,-0.044 0.22,0.462 0.528,1.166 0.616,1.628 1.98,0.022 3.168,-0.022 3.872,-0.286 0.704,-0.286 0.99,-0.792 0.99,-1.826 z"
       style="font-weight:normal;font-family:'Noto Sans CJK SC';-inkscape-font-specification:'Noto Sans CJK SC';text-align:center;text-anchor:middle"
       id="path2942" />
    <path
       d="m 145.752,488.27401 c 2.024,-0.66 4.708,-1.474 7.282,-2.244 l -0.264,-1.43 c -2.75,0.792 -5.544,1.606 -7.37,2.046 z m 16.632,-5.544 v 4.004 h -6.204 v -4.004 z m -7.722,6.534 h 1.518 v -1.078 h 6.204 v 1.056 h 1.584 v -7.986 h -9.306 z m 2.046,-16.302 h 5.764 c -0.792,1.408 -1.914,2.596 -3.212,3.63 -1.144,-0.968 -2.068,-2.09 -2.706,-3.366 z m 6.974,-1.54 -0.308,0.044 h -5.83 c 0.308,-0.616 0.616,-1.298 0.88,-1.936 l -1.474,-0.44 c -0.924,2.42 -2.464,4.73 -4.158,6.27 l 0.242,-0.418 -1.43,-0.858 c -0.396,0.748 -0.836,1.518 -1.32,2.266 l -2.772,0.286 c 1.276,-1.826 2.574,-4.18 3.542,-6.424 l -1.54,-0.748 c -0.902,2.618 -2.53,5.39 -3.014,6.116 -0.484,0.748 -0.88,1.232 -1.254,1.342 0.198,0.44 0.44,1.232 0.528,1.584 0.308,-0.154 0.836,-0.286 3.542,-0.66 -0.968,1.386 -1.848,2.508 -2.266,2.904 -0.66,0.814 -1.188,1.342 -1.65,1.43 0.176,0.44 0.44,1.232 0.528,1.562 0.462,-0.286 1.188,-0.506 6.6,-1.826 -0.066,-0.352 -0.088,-1.012 -0.044,-1.43 l -4.026,0.88 c 1.474,-1.694 2.948,-3.74 4.224,-5.83 0.308,0.308 0.77,0.946 0.99,1.232 0.682,-0.638 1.364,-1.386 1.98,-2.244 0.66,1.056 1.474,2.068 2.442,2.948 -1.65,1.078 -3.52,1.914 -5.434,2.464 0.242,0.352 0.572,1.078 0.704,1.518 2.068,-0.704 4.136,-1.694 5.94,-2.992 1.606,1.232 3.542,2.2 5.588,2.86 0.11,-0.44 0.374,-1.1 0.66,-1.496 -1.87,-0.484 -3.608,-1.276 -5.06,-2.266 1.738,-1.518 3.212,-3.344 4.136,-5.522 z"
       style="font-weight:normal;font-family:'Noto Sans CJK SC';-inkscape-font-specification:'Noto Sans CJK SC';text-align:center;text-anchor:middle"
       id="path2944" />
    <path
       d="m 182.096,472.67601 c -0.22,-0.814 -0.726,-2.2 -1.122,-3.234 l -1.54,0.396 c 0.396,1.078 0.836,2.508 1.034,3.344 z m -8.602,0.242 c -0.682,-0.814 -2.112,-2.178 -3.124,-3.168 l -1.122,0.99 c 1.034,1.034 2.398,2.464 3.058,3.322 z m -1.012,12.1 v -8.8 h -4.972 v 1.584 h 3.366 v 7.282 c 0,0.99 -0.792,1.76 -1.232,2.046 0.33,0.286 0.836,0.968 1.012,1.342 0.308,-0.462 0.858,-0.968 4.818,-3.938 -0.154,-0.286 -0.396,-0.858 -0.506,-1.298 z m 14.828,-10.208 v -1.584 h -12.65 v 1.584 h 3.19 c -0.11,5.5 -0.462,10.736 -3.96,13.574 0.396,0.242 0.902,0.77 1.166,1.144 2.728,-2.288 3.74,-5.896 4.136,-9.966 h 4.884 c -0.242,5.412 -0.55,7.48 -0.99,7.986 -0.198,0.242 -0.418,0.286 -0.792,0.264 -0.418,0 -1.496,0 -2.618,-0.11 0.264,0.44 0.418,1.078 0.44,1.562 1.122,0.066 2.244,0.088 2.86,0.022 0.638,-0.066 1.1,-0.22 1.496,-0.726 0.682,-0.792 0.946,-3.146 1.232,-9.768 0,-0.22 0.022,-0.77 0.022,-0.77 h -6.402 c 0.066,-1.056 0.11,-2.112 0.132,-3.212 z"
       style="font-weight:normal;font-family:'Noto Sans CJK SC';-inkscape-font-specification:'Noto Sans CJK SC';text-align:center;text-anchor:middle"
       id="path2946" />
    <path
       d="m 190.522,489.48401 h 1.606 v -15.158 h -1.606 z m 0.242,-19.03 c 1.1,1.144 2.552,2.728 3.256,3.674 l 1.21,-0.902 c -0.704,-0.924 -2.178,-2.442 -3.278,-3.542 z m 10.846,7.062 v 5.06 h -4.598 v -5.06 z m 1.584,6.556 v -8.052 h -7.678 v 9.482 h 1.496 v -1.43 z m 5.104,-13.442 h -12.056 v 1.518 h 10.45 v 15.026 c 0,0.396 -0.132,0.528 -0.528,0.528 -0.352,0.022 -1.672,0.044 -2.992,0 0.22,0.418 0.484,1.166 0.55,1.606 1.782,0.022 2.948,-0.022 3.652,-0.308 0.682,-0.242 0.924,-0.748 0.924,-1.804 z"
       style="font-weight:normal;font-family:'Noto Sans CJK SC';-inkscape-font-specification:'Noto Sans CJK SC';text-align:center;text-anchor:middle"
       id="path2948" />
    <path
       d="m 228.208,471.86201 v 2.618 H 215.03 v -2.618 z m 1.628,4.048 v -5.478 h -16.412 v 6.402 c 0,3.476 -0.198,8.36 -2.244,11.792 0.418,0.154 1.144,0.55 1.452,0.814 2.112,-3.586 2.398,-8.932 2.398,-12.628 v -0.902 z m -0.286,3.322 v -1.452 h -12.408 v 1.452 z m 1.518,3.74 v -1.452 h -15.356 v 1.452 h 4.334 c -0.968,1.65 -2.178,3.19 -2.574,3.652 -0.484,0.528 -0.902,0.924 -1.276,0.99 0.198,0.418 0.484,1.188 0.572,1.518 0.682,-0.242 1.716,-0.33 11.264,-0.99 0.352,0.594 0.638,1.1 0.858,1.54 l 1.496,-0.748 c -0.77,-1.32 -2.288,-3.63 -3.52,-5.346 l -1.408,0.616 c 0.572,0.792 1.188,1.738 1.782,2.64 l -8.448,0.506 c 1.166,-1.254 2.332,-2.794 3.366,-4.378 z"
       style="font-weight:normal;font-family:'Noto Sans CJK SC';-inkscape-font-specification:'Noto Sans CJK SC';text-align:center;text-anchor:middle"
       id="path2950" />
  </g>
  <g
     aria-label="因特网层"
     id="text2076"
     style="font-weight:500;font-size:22px;line-height:125%;font-family:Poppins;-inkscape-font-specification:'Poppins Medium';letter-spacing:0;word-spacing:0">
    <path
       d="m 153.02201,377.28999 v -1.496 h -5.5 c 0.11,-1.144 0.176,-2.332 0.22,-3.586 h -1.606 c -0.044,1.254 -0.11,2.464 -0.22,3.586 h -5.478 v 1.496 h 5.28 c -0.528,3.212 -1.848,5.72 -5.258,7.216 0.33,0.308 0.814,0.902 1.012,1.298 2.926,-1.342 4.422,-3.388 5.258,-5.94 1.98,1.87 4.07,4.18 5.126,5.72 l 1.166,-0.968 c -1.21,-1.694 -3.652,-4.29 -5.918,-6.204 0.088,-0.374 0.154,-0.726 0.22,-1.122 z m -13.882,9.196 v -15.202 h 15.18 v 15.202 z m -1.518,-16.698 v 19.184 h 1.518 v -1.078 h 15.18 v 1.078 h 1.584 v -19.184 z"
       style="font-weight:normal;font-family:'Noto Sans CJK SC';-inkscape-font-specification:'Noto Sans CJK SC';text-align:center;text-anchor:middle"
       id="path2933" />
    <path
       d="m 166.15601,379.18199 -2.134,0.66 v -4.884 h 2.046 v -1.562 h -2.046 v -4.488 h -1.584 v 4.488 h -1.43 c 0.132,-0.836 0.22,-1.694 0.308,-2.574 l -1.386,-0.242 c -0.198,2.728 -0.594,5.588 -1.276,7.414 0.352,0.132 0.968,0.462 1.254,0.682 0.352,-1.012 0.66,-2.31 0.88,-3.718 h 1.65 v 5.368 c -1.386,0.396 -2.64,0.77 -3.608,1.034 l 0.352,1.628 c 0.946,-0.286 2.068,-0.638 3.256,-1.034 v 7.018 h 1.584 v -7.524 l 2.266,-0.77 z m 1.65,3.432 c 1.056,1.078 2.222,2.552 2.684,3.564 l 1.276,-0.836 c -0.506,-1.012 -1.694,-2.464 -2.75,-3.498 z m 10.912,-5.522 v -1.54 h -5.324 v -2.772 h 4.312 v -1.518 h -4.312 v -2.376 h -1.562 v 2.376 h -4.268 v 1.518 h 4.268 v 2.772 h -5.5 v 1.54 h 8.162 v 2.618 h -7.832 v 1.518 h 7.832 v 5.72 c 0,0.33 -0.11,0.396 -0.44,0.418 -0.374,0.022 -1.54,0.022 -2.86,-0.022 0.22,0.462 0.44,1.166 0.506,1.628 1.65,0 2.772,-0.022 3.476,-0.286 0.682,-0.264 0.858,-0.748 0.858,-1.716 v -5.742 h 2.574 v -1.518 h -2.574 v -2.618 z"
       style="font-weight:normal;font-family:'Noto Sans CJK SC';-inkscape-font-specification:'Noto Sans CJK SC';text-align:center;text-anchor:middle"
       id="path2935" />
    <path
       d="m 190.86201,382.74599 c -0.528,-0.946 -1.298,-2.134 -2.156,-3.366 0.594,-1.804 1.056,-3.806 1.408,-5.94 l -1.496,-0.154 c -0.264,1.628 -0.572,3.146 -0.99,4.598 -0.836,-1.122 -1.716,-2.266 -2.574,-3.256 l -1.012,0.902 c 0.99,1.21 2.068,2.64 3.036,4.026 -0.836,2.332 -2.002,4.29 -3.52,5.764 0.352,0.22 1.034,0.682 1.276,0.902 1.32,-1.408 2.398,-3.146 3.278,-5.214 0.66,1.034 1.254,2.002 1.672,2.794 z m 6.402,0.77 c -0.528,-1.166 -1.364,-2.618 -2.332,-4.092 0.594,-1.804 1.034,-3.784 1.364,-5.94 l -1.474,-0.154 c -0.242,1.606 -0.528,3.124 -0.946,4.554 -0.792,-1.1 -1.628,-2.2 -2.464,-3.168 l -1.056,0.814 c 0.99,1.232 2.046,2.662 2.992,4.048 -0.88,2.42 -2.046,4.444 -3.674,5.918 0.374,0.198 1.012,0.66 1.298,0.902 1.386,-1.43 2.464,-3.19 3.344,-5.28 0.748,1.232 1.364,2.398 1.804,3.344 z m 2.508,-13.288 h -18.018 v 18.722 h 1.628 v -17.182 h 14.784 v 15.048 c 0,0.374 -0.176,0.506 -0.572,0.528 -0.418,0 -1.848,0.022 -3.3,-0.044 0.22,0.462 0.528,1.166 0.616,1.628 1.98,0.022 3.168,-0.022 3.872,-0.286 0.704,-0.286 0.99,-0.792 0.99,-1.826 z"
       style="font-weight:normal;font-family:'Noto Sans CJK SC';-inkscape-font-specification:'Noto Sans CJK SC';text-align:center;text-anchor:middle"
       id="path2937" />
    <path
       d="m 219.52801,371.37199 v 2.618 h -13.178 v -2.618 z m 1.628,4.048 v -5.478 h -16.412 v 6.402 c 0,3.476 -0.198,8.36 -2.244,11.792 0.418,0.154 1.144,0.55 1.452,0.814 2.112,-3.586 2.398,-8.932 2.398,-12.628 v -0.902 z m -0.286,3.322 v -1.452 h -12.408 v 1.452 z m 1.518,3.74 v -1.452 h -15.356 v 1.452 h 4.334 c -0.968,1.65 -2.178,3.19 -2.574,3.652 -0.484,0.528 -0.902,0.924 -1.276,0.99 0.198,0.418 0.484,1.188 0.572,1.518 0.682,-0.242 1.716,-0.33 11.264,-0.99 0.352,0.594 0.638,1.1 0.858,1.54 l 1.496,-0.748 c -0.77,-1.32 -2.288,-3.63 -3.52,-5.346 l -1.408,0.616 c 0.572,0.792 1.188,1.738 1.782,2.64 l -8.448,0.506 c 1.166,-1.254 2.332,-2.794 3.366,-4.378 z"
       style="font-weight:normal;font-family:'Noto Sans CJK SC';-inkscape-font-specification:'Noto Sans CJK SC';text-align:center;text-anchor:middle"
       id="path2939" />
  </g>
  <g
     aria-label="传输层"
     id="text2080"
     style="font-weight:500;font-size:22px;line-height:125%;font-family:Poppins;-inkscape-font-specification:'Poppins Medium';letter-spacing:0;word-spacing:0">
    <path
       d="m 154.486,298.93401 c -1.232,3.344 -3.278,6.622 -5.434,8.734 0.308,0.374 0.77,1.21 0.946,1.584 0.726,-0.77 1.474,-1.65 2.156,-2.618 v 12.276 h 1.606 v -14.762 c 0.858,-1.518 1.628,-3.124 2.266,-4.73 z m 15.004,8.118 v -1.518 h -8.404 c 0.264,-0.858 0.506,-1.738 0.748,-2.618 h 6.666 v -1.518 h -6.27 c 0.22,-0.748 0.418,-1.518 0.594,-2.2 l -1.628,-0.22 c -0.176,0.77 -0.396,1.584 -0.594,2.42 h -4.29 v 1.518 h 3.872 c -0.242,0.858 -0.484,1.76 -0.726,2.618 h -4.4 v 1.518 h 3.938 c -0.462,1.562 -0.924,3.014 -1.342,4.158 h 7.81 c -0.946,1.1 -2.134,2.42 -3.256,3.63 -0.704,-0.484 -1.43,-0.946 -2.112,-1.364 l -1.188,0.99 c 2.068,1.298 4.554,3.234 5.742,4.488 l 1.21,-1.21 c -0.594,-0.594 -1.452,-1.298 -2.398,-2.002 1.672,-1.848 3.52,-3.916 4.84,-5.456 l -1.122,-0.726 -0.264,0.11 h -7.04 c 0.242,-0.792 0.506,-1.694 0.792,-2.618 z"
       style="font-weight:normal;font-family:'Noto Sans CJK SC';-inkscape-font-specification:'Noto Sans CJK SC';text-align:center;text-anchor:middle"
       id="path2926" />
    <path
       d="m 178.576,311.98001 -1.672,0.396 v -2.706 h 1.738 v -1.496 h -1.738 v -3.278 h -1.43 v 3.278 h -1.914 c 0.55,-1.518 1.1,-3.322 1.54,-5.192 h 3.586 v -1.496 h -3.256 c 0.154,-0.792 0.308,-1.584 0.418,-2.354 l -1.518,-0.242 c -0.088,0.88 -0.22,1.738 -0.374,2.596 h -2.266 v 1.496 h 1.958 c -0.352,1.804 -0.792,3.278 -0.99,3.85 -0.308,0.968 -0.572,1.672 -0.924,1.782 0.176,0.352 0.418,1.078 0.484,1.386 0.198,-0.198 0.836,-0.33 1.54,-0.33 h 1.716 v 3.036 c -1.474,0.33 -2.816,0.66 -3.872,0.858 l 0.352,1.518 c 1.034,-0.242 2.244,-0.55 3.52,-0.88 v 4.73 h 1.43 v -5.104 l 1.804,-0.462 z m 2.508,1.144 v -1.804 h 3.014 v 1.804 z m 3.014,-4.774 v 1.716 h -3.014 v -1.716 z m 1.364,-1.32 h -5.72 v 11.836 h 1.342 v -4.51 h 3.014 v 2.86 c 0,0.198 -0.044,0.242 -0.242,0.264 -0.198,0 -0.77,0 -1.452,-0.022 0.198,0.396 0.374,0.968 0.418,1.364 0.946,0 1.628,-0.022 2.068,-0.264 0.462,-0.242 0.572,-0.638 0.572,-1.342 z m 4.026,10.054 c 0,0.264 -0.088,0.33 -0.352,0.33 -0.286,0.022 -1.144,0.022 -2.156,0 0.22,0.396 0.374,0.968 0.44,1.342 1.298,0 2.156,-0.022 2.706,-0.264 0.528,-0.22 0.682,-0.616 0.682,-1.408 v -10.45 h -1.32 z m -1.518,-9.658 h -1.276 v 7.898 h 1.276 z m -6.292,-3.19 c 1.254,-0.88 2.398,-1.936 3.388,-3.08 1.1,1.232 2.332,2.222 3.674,3.08 z m 3.366,-5.456 c -1.43,2.31 -4.136,4.466 -6.776,5.698 0.374,0.33 0.814,0.836 1.056,1.21 0.594,-0.308 1.188,-0.66 1.76,-1.034 v 0.924 h 8.096 v -1.056 c 0.55,0.33 1.122,0.638 1.716,0.946 0.22,-0.462 0.66,-0.946 1.034,-1.276 -2.288,-0.99 -4.378,-2.222 -6.028,-4.092 0.176,-0.242 0.33,-0.484 0.484,-0.704 z"
       style="font-weight:normal;font-family:'Noto Sans CJK SC';-inkscape-font-specification:'Noto Sans CJK SC';text-align:center;text-anchor:middle"
       id="path2928" />
    <path
       d="m 210.388,301.33201 v 2.618 H 197.21 v -2.618 z m 1.628,4.048 v -5.478 h -16.412 v 6.402 c 0,3.476 -0.198,8.36 -2.244,11.792 0.418,0.154 1.144,0.55 1.452,0.814 2.112,-3.586 2.398,-8.932 2.398,-12.628 v -0.902 z m -0.286,3.322 v -1.452 h -12.408 v 1.452 z m 1.518,3.74 v -1.452 h -15.356 v 1.452 h 4.334 c -0.968,1.65 -2.178,3.19 -2.574,3.652 -0.484,0.528 -0.902,0.924 -1.276,0.99 0.198,0.418 0.484,1.188 0.572,1.518 0.682,-0.242 1.716,-0.33 11.264,-0.99 0.352,0.594 0.638,1.1 0.858,1.54 l 1.496,-0.748 c -0.77,-1.32 -2.288,-3.63 -3.52,-5.346 l -1.408,0.616 c 0.572,0.792 1.188,1.738 1.782,2.64 l -8.448,0.506 c 1.166,-1.254 2.332,-2.794 3.366,-4.378 z"
       style="font-weight:normal;font-family:'Noto Sans CJK SC';-inkscape-font-specification:'Noto Sans CJK SC';text-align:center;text-anchor:middle"
       id="path2930" />
  </g>
  <g
     aria-label="TCP/IP 模型"
     id="text2084"
     style="font-size:22px;line-height:125%;font-family:'Open Sans';-inkscape-font-specification:'Open Sans';letter-spacing:0;word-spacing:0;fill:#30ba78">
    <path
       d="m 101.26598,44.558002 v 2.664 h -6.839996 v 22.428 h -3.276 v -22.428 h -6.876 v -2.664 z"
       style="font-weight:500;font-size:36px;font-family:Poppins;-inkscape-font-specification:'Poppins Medium';text-align:center;text-anchor:middle"
       id="path2887" />
    <path
       d="m 104.074,57.086002 q 0,-3.672 1.656,-6.588 1.656,-2.952 4.5,-4.608 2.88,-1.656 6.372,-1.656 4.104,0 7.164,1.98 3.06,1.98 4.464,5.616 h -3.924 q -1.044,-2.268 -3.024,-3.492 -1.944,-1.224 -4.68,-1.224 -2.628,0 -4.716,1.224 -2.088,1.224 -3.276,3.492 -1.188,2.232 -1.188,5.256 0,2.988 1.188,5.256 1.188,2.232 3.276,3.456 2.088,1.224 4.716,1.224 2.736,0 4.68,-1.188 1.98,-1.224 3.024,-3.492 h 3.924 q -1.404,3.6 -4.464,5.58 -3.06,1.944 -7.164,1.944 -3.492,0 -6.372,-1.62 -2.844,-1.656 -4.5,-4.572 -1.656,-2.916 -1.656,-6.588 z"
       style="font-weight:500;font-size:36px;font-family:Poppins;-inkscape-font-specification:'Poppins Medium';text-align:center;text-anchor:middle"
       id="path2889" />
    <path
       d="m 149.86597,51.902002 q 0,3.132 -2.16,5.22 -2.124,2.052 -6.516,2.052 h -4.824 v 10.476 h -3.276 v -25.092 h 8.1 q 4.248,0 6.444,2.052 2.232,2.052 2.232,5.292 z m -8.676,4.572 q 2.736,0 4.032,-1.188 1.296,-1.188 1.296,-3.384 0,-4.644 -5.328,-4.644 h -4.824 v 9.216 z"
       style="font-weight:500;font-size:36px;font-family:Poppins;-inkscape-font-specification:'Poppins Medium';text-align:center;text-anchor:middle"
       id="path2891" />
    <path
       d="m 166.17399,35.738002 -9.864,40.032 h -3.24 l 9.828,-40.032 z"
       style="font-weight:500;font-size:36px;font-family:Poppins;-inkscape-font-specification:'Poppins Medium';text-align:center;text-anchor:middle"
       id="path2893" />
    <path
       d="m 174.34599,44.558002 v 25.092 h -3.276 v -25.092 z"
       style="font-weight:500;font-size:36px;font-family:Poppins;-inkscape-font-specification:'Poppins Medium';text-align:center;text-anchor:middle"
       id="path2895" />
    <path
       d="m 196.702,51.902002 q 0,3.132 -2.16,5.22 -2.124,2.052 -6.516,2.052 h -4.824 v 10.476 h -3.276 v -25.092 h 8.1 q 4.248,0 6.444,2.052 2.232,2.052 2.232,5.292 z m -8.676,4.572 q 2.736,0 4.032,-1.188 1.296,-1.188 1.296,-3.384 0,-4.644 -5.328,-4.644 h -4.824 v 9.216 z"
       style="font-weight:500;font-size:36px;font-family:Poppins;-inkscape-font-specification:'Poppins Medium';text-align:center;text-anchor:middle"
       id="path2897" />
    <path
       d="m 225.86202,47.474002 h 2.556 v -2.7 h 5.472 v 2.736 h 2.592 v -2.736 h 5.004 v -2.268 h -5.004 v -2.952 h -2.592 v 2.952 h -5.472 v -2.952 h -2.556 v 2.952 h -5.22 v 2.268 h 5.22 z m -5.04,9.9 c -0.648,-1.116 -3.348,-5.652 -4.284,-7.02 v -1.404 h 3.708 v -2.52 h -3.708 v -6.912 h -2.556 v 6.912 h -4.428 v 2.52 h 4.428 c -0.972,4.86 -3.024,10.584 -5.112,13.572 0.468,0.648 1.116,1.8 1.404,2.592 1.332,-2.124 2.664,-5.4 3.708,-8.892 v 16.164 h 2.556 v -18.432 c 0.972,1.872 2.088,4.176 2.592,5.4 z m 3.78,-2.736 h 12.456 v 2.556 h -12.456 z m 0,-4.464 h 12.456 v 2.556 h -12.456 z m 16.848,14.292 v -2.268 h -9.9 c 0.18,-0.936 0.36,-1.944 0.468,-2.988 h 7.596 v -11.052 h -17.496 v 11.052 h 7.272 c -0.144,1.044 -0.288,2.088 -0.504,2.988 h -9.036 v 2.268 h 8.244 c -1.368,2.736 -3.924,4.644 -9.18,5.832 0.468,0.504 1.152,1.512 1.368,2.088 6.264,-1.512 9.144,-4.032 10.584,-7.848 1.8,3.924 5.112,6.588 9.72,7.848 0.36,-0.684 1.116,-1.692 1.692,-2.196 -4.068,-0.864 -7.128,-2.844 -8.892,-5.724 z"
       style="font-family:'Noto Sans CJK SC';-inkscape-font-specification:'Noto Sans CJK SC';text-align:center;text-anchor:middle"
       id="path2899" />
    <path
       d="m 275.65001,39.770002 h -2.556 v 15.948 c 0,0.504 -0.144,0.648 -0.684,0.648 -0.54,0.072 -2.34,0.072 -4.392,0 0.396,0.72 0.792,1.728 0.9,2.448 2.556,0 4.284,-0.036 5.364,-0.432 1.08,-0.432 1.368,-1.116 1.368,-2.592 z m -6.732,1.8 h -2.484 v 11.988 h 2.484 z m -15.732,6.516 v -4.716 h 4.428 v 4.932 h -4.428 z m 4.428,2.592 v 7.704 h 2.52 v -7.704 h 4.068 v -2.376 h -4.068 v -4.932 h 3.348 v -2.376 h -16.128 v 2.376 h 3.348 v 4.644 0.288 h -4.536 v 2.376 h 4.356 c -0.432,2.412 -1.548,4.824 -4.68,6.732 0.504,0.396 1.404,1.368 1.764,1.872 3.636,-2.304 4.968,-5.508 5.4,-8.604 z m 5.544,18 v -4.536 h 10.872 v -2.448 h -10.872 v -4.032 h -2.7 v 4.032 h -11.304 v 2.448 h 11.304 v 4.536 h -15.012 v 2.52 h 32.328 v -2.52 z"
       style="font-family:'Noto Sans CJK SC';-inkscape-font-specification:'Noto Sans CJK SC';text-align:center;text-anchor:middle"
       id="path2901" />
  </g>
  <g
     aria-label="OSI 模型"
     id="text2088"
     style="font-size:22px;line-height:125%;font-family:'Open Sans';-inkscape-font-specification:'Open Sans';letter-spacing:0;word-spacing:0;fill:#0c322c">
    <path
       d="m 464.24999,69.902002 q -3.492,0 -6.372,-1.62 -2.88,-1.656 -4.572,-4.572 -1.656,-2.952 -1.656,-6.624 0,-3.672 1.656,-6.588 1.692,-2.952 4.572,-4.572 2.88,-1.656 6.372,-1.656 3.528,0 6.408,1.656 2.88,1.62 4.536,4.536 1.656,2.916 1.656,6.624 0,3.708 -1.656,6.624 -1.656,2.916 -4.536,4.572 -2.88,1.62 -6.408,1.62 z m 0,-2.844 q 2.628,0 4.716,-1.224 2.124,-1.224 3.312,-3.492 1.224,-2.268 1.224,-5.256 0,-3.024 -1.224,-5.256 -1.188,-2.268 -3.276,-3.492 -2.088,-1.224 -4.752,-1.224 -2.664,0 -4.752,1.224 -2.088,1.224 -3.312,3.492 -1.188,2.232 -1.188,5.256 0,2.988 1.188,5.256 1.224,2.268 3.312,3.492 2.124,1.224 4.752,1.224 z"
       style="font-weight:500;font-size:36px;font-family:Poppins;-inkscape-font-specification:'Poppins Medium';text-align:center;text-anchor:middle"
       id="path2904" />
    <path
       d="m 489.12597,69.902002 q -2.484,0 -4.464,-0.864 -1.944,-0.9 -3.06,-2.448 -1.116,-1.584 -1.152,-3.636 h 3.492 q 0.18,1.764 1.44,2.988 1.296,1.188 3.744,1.188 2.34,0 3.672,-1.152 1.368,-1.188 1.368,-3.024 0,-1.44 -0.792,-2.34 -0.792,-0.9 -1.98,-1.368 -1.188,-0.468 -3.204,-1.008 -2.484,-0.648 -3.996,-1.296 -1.476,-0.648 -2.556,-2.016 -1.044,-1.404 -1.044,-3.744 0,-2.052 1.044,-3.636 1.044,-1.584 2.916,-2.448 1.908,-0.864 4.356,-0.864 3.528,0 5.76,1.764 2.268,1.764 2.556,4.68 h -3.6 q -0.18,-1.44 -1.512,-2.52 -1.332,-1.116 -3.528,-1.116 -2.052,0 -3.348,1.08 -1.296,1.044 -1.296,2.952 0,1.368 0.756,2.232 0.792,0.864 1.908,1.332 1.152,0.432 3.204,1.008 2.484,0.684 3.996,1.368 1.512,0.648 2.592,2.052 1.08,1.368 1.08,3.744 0,1.836 -0.972,3.456 -0.972,1.62 -2.88,2.628 -1.908,1.008 -4.5,1.008 z"
       style="font-weight:500;font-size:36px;font-family:Poppins;-inkscape-font-specification:'Poppins Medium';text-align:center;text-anchor:middle"
       id="path2906" />
    <path
       d="m 505.57796,44.558002 v 25.092 h -3.276 v -25.092 z"
       style="font-weight:500;font-size:36px;font-family:Poppins;-inkscape-font-specification:'Poppins Medium';text-align:center;text-anchor:middle"
       id="path2908" />
    <path
       d="m 536.24998,47.474002 h 2.556 v -2.7 h 5.472 v 2.736 h 2.592 v -2.736 h 5.004 v -2.268 h -5.004 v -2.952 h -2.592 v 2.952 h -5.472 v -2.952 h -2.556 v 2.952 h -5.22 v 2.268 h 5.22 z m -5.04,9.9 c -0.648,-1.116 -3.348,-5.652 -4.284,-7.02 v -1.404 h 3.708 v -2.52 h -3.708 v -6.912 h -2.556 v 6.912 h -4.428 v 2.52 h 4.428 c -0.972,4.86 -3.024,10.584 -5.112,13.572 0.468,0.648 1.116,1.8 1.404,2.592 1.332,-2.124 2.664,-5.4 3.708,-8.892 v 16.164 h 2.556 v -18.432 c 0.972,1.872 2.088,4.176 2.592,5.4 z m 3.78,-2.736 h 12.456 v 2.556 h -12.456 z m 0,-4.464 h 12.456 v 2.556 h -12.456 z m 16.848,14.292 v -2.268 h -9.9 c 0.18,-0.936 0.36,-1.944 0.468,-2.988 h 7.596 v -11.052 h -17.496 v 11.052 h 7.272 c -0.144,1.044 -0.288,2.088 -0.504,2.988 h -9.036 v 2.268 h 8.244 c -1.368,2.736 -3.924,4.644 -9.18,5.832 0.468,0.504 1.152,1.512 1.368,2.088 6.264,-1.512 9.144,-4.032 10.584,-7.848 1.8,3.924 5.112,6.588 9.72,7.848 0.36,-0.684 1.116,-1.692 1.692,-2.196 -4.068,-0.864 -7.128,-2.844 -8.892,-5.724 z"
       style="font-family:'Noto Sans CJK SC';-inkscape-font-specification:'Noto Sans CJK SC';text-align:center;text-anchor:middle"
       id="path2910" />
    <path
       d="m 586.03798,39.770002 h -2.556 v 15.948 c 0,0.504 -0.144,0.648 -0.684,0.648 -0.54,0.072 -2.34,0.072 -4.392,0 0.396,0.72 0.792,1.728 0.9,2.448 2.556,0 4.284,-0.036 5.364,-0.432 1.08,-0.432 1.368,-1.116 1.368,-2.592 z m -6.732,1.8 h -2.484 v 11.988 h 2.484 z m -15.732,6.516 v -4.716 h 4.428 v 4.932 h -4.428 z m 4.428,2.592 v 7.704 h 2.52 v -7.704 h 4.068 v -2.376 h -4.068 v -4.932 h 3.348 v -2.376 h -16.128 v 2.376 h 3.348 v 4.644 0.288 h -4.536 v 2.376 h 4.356 c -0.432,2.412 -1.548,4.824 -4.68,6.732 0.504,0.396 1.404,1.368 1.764,1.872 3.636,-2.304 4.968,-5.508 5.4,-8.604 z m 5.544,18 v -4.536 h 10.872 v -2.448 h -10.872 v -4.032 h -2.7 v 4.032 h -11.304 v 2.448 h 11.304 v 4.536 h -15.012 v 2.52 h 32.328 v -2.52 z"
       style="font-family:'Noto Sans CJK SC';-inkscape-font-specification:'Noto Sans CJK SC';text-align:center;text-anchor:middle"
       id="path2912" />
  </g>
</svg>
