<?xml version="1.0" encoding="UTF-8" standalone="no"?>
<svg
   width="900"
   height="200"
   version="1.2"
   id="svg1202"
   sodipodi:docname="net_basic_tcppacket.svg"
   inkscape:version="1.2.2 (732a01da63, 2022-12-09)"
   xmlns:inkscape="http://www.inkscape.org/namespaces/inkscape"
   xmlns:sodipodi="http://sodipodi.sourceforge.net/DTD/sodipodi-0.dtd"
   xmlns="http://www.w3.org/2000/svg"
   xmlns:svg="http://www.w3.org/2000/svg">
  <defs
     id="defs1206" />
  <sodipodi:namedview
     id="namedview1204"
     pagecolor="#ffffff"
     bordercolor="#000000"
     borderopacity="0.25"
     inkscape:showpageshadow="2"
     inkscape:pageopacity="0.0"
     inkscape:pagecheckerboard="0"
     inkscape:deskcolor="#d1d1d1"
     showgrid="false"
     inkscape:zoom="1.5222222"
     inkscape:cx="450.00001"
     inkscape:cy="99.854016"
     inkscape:window-width="1920"
     inkscape:window-height="1009"
     inkscape:window-x="-8"
     inkscape:window-y="-8"
     inkscape:window-maximized="1"
     inkscape:current-layer="svg1202" />
  <rect
     width="860"
     height="160"
     x="20"
     y="20"
     fill="#30ba78"
     rx="0"
     ry="0"
     id="rect1152" />
  <rect
     width="130"
     height="160"
     x="120"
     y="20"
     fill="#fe7c3f"
     color="#000"
     overflow="visible"
     style="marker:none"
     id="rect1154" />
  <rect
     width="130"
     height="160"
     x="250"
     y="20"
     fill="#90ebcd"
     color="#000"
     overflow="visible"
     ry="0"
     style="marker:none"
     id="rect1156" />
  <rect
     width="400"
     height="160"
     x="380"
     y="20"
     fill="#dedfe0"
     color="#000"
     overflow="visible"
     style="marker:none"
     id="rect1158" />
  <g
     style="line-height:125%;-inkscape-font-specification:'Open Sans';text-align:center"
     text-anchor="middle"
     transform="translate(601 -464.81)"
     word-spacing="0"
     id="g1168">
    <g
       aria-label="以太网报头
（14 字节）"
       id="text1166"
       style="font-weight:500;font-size:16px;line-height:1.25;font-family:Poppins;-inkscape-font-specification:'Poppins, Medium';letter-spacing:0">
      <path
         d="m -561.97801,552.66403 c -0.48,-1.04 -1.52,-2.576 -2.464,-3.712 l -1.008,0.528 c 0.928,1.168 1.952,2.784 2.4,3.808 z m -5.6,5.52 v -9.488 h -1.264 v 9.36 c 0,0.736 -0.624,1.248 -0.96,1.44 0.208,0.224 0.56,0.704 0.656,0.976 0.4,-0.352 0.976,-0.688 5.584,-2.896 -0.096,-0.272 -0.256,-0.768 -0.304,-1.12 z m 11.52,3.072 c -0.768,-1.12 -2.32,-2.784 -3.696,-4.096 1.056,-2.272 1.488,-5.216 1.712,-9.008 l -1.248,-0.064 c -0.368,7.072 -1.472,11.024 -6.592,13.056 0.272,0.24 0.72,0.768 0.88,1.024 2.16,-0.992 3.648,-2.256 4.688,-3.952 1.28,1.264 2.592,2.784 3.232,3.808 z"
         style="font-weight:normal;font-family:'Noto Sans CJK SC';-inkscape-font-specification:'Noto Sans CJK SC'"
         id="path1611" />
      <path
         d="m -540.41001,552.88803 v -1.2 h -6.624 c 0.176,-1.52 0.192,-2.976 0.208,-4.224 h -1.264 c -0.016,1.216 0,2.688 -0.176,4.224 h -6.16 v 1.2 h 5.968 c -0.576,3.168 -2.128,6.416 -6.336,8.192 0.336,0.24 0.704,0.672 0.88,0.976 1.872,-0.832 3.232,-1.936 4.24,-3.216 1.072,0.928 2.336,2.208 2.928,3.04 l 1.008,-0.784 c -0.656,-0.864 -2.016,-2.16 -3.12,-3.056 l -0.464,0.32 c 1.04,-1.456 1.632,-3.072 1.984,-4.704 1.216,3.872 3.264,6.896 6.448,8.432 0.208,-0.336 0.592,-0.832 0.896,-1.088 -3.184,-1.36 -5.28,-4.4 -6.368,-8.112 z"
         style="font-weight:normal;font-family:'Noto Sans CJK SC';-inkscape-font-specification:'Noto Sans CJK SC'"
         id="path1613" />
      <path
         d="m -531.35401,557.52803 c -0.384,-0.688 -0.944,-1.552 -1.568,-2.448 0.432,-1.312 0.768,-2.768 1.024,-4.32 l -1.088,-0.112 c -0.192,1.184 -0.416,2.288 -0.72,3.344 -0.608,-0.816 -1.248,-1.648 -1.872,-2.368 l -0.736,0.656 c 0.72,0.88 1.504,1.92 2.208,2.928 -0.608,1.696 -1.456,3.12 -2.56,4.192 0.256,0.16 0.752,0.496 0.928,0.656 0.96,-1.024 1.744,-2.288 2.384,-3.792 0.48,0.752 0.912,1.456 1.216,2.032 z m 4.656,0.56 c -0.384,-0.848 -0.992,-1.904 -1.696,-2.976 0.432,-1.312 0.752,-2.752 0.992,-4.32 l -1.072,-0.112 c -0.176,1.168 -0.384,2.272 -0.688,3.312 -0.576,-0.8 -1.184,-1.6 -1.792,-2.304 l -0.768,0.592 c 0.72,0.896 1.488,1.936 2.176,2.944 -0.64,1.76 -1.488,3.232 -2.672,4.304 0.272,0.144 0.736,0.48 0.944,0.656 1.008,-1.04 1.792,-2.32 2.432,-3.84 0.544,0.896 0.992,1.744 1.312,2.432 z m 1.824,-9.664 h -13.104 v 13.616 h 1.184 v -12.496 h 10.752 v 10.944 c 0,0.272 -0.128,0.368 -0.416,0.384 -0.304,0 -1.344,0.016 -2.4,-0.032 0.16,0.336 0.384,0.848 0.448,1.184 1.44,0.016 2.304,-0.016 2.816,-0.208 0.512,-0.208 0.72,-0.576 0.72,-1.328 z"
         style="font-weight:normal;font-family:'Noto Sans CJK SC';-inkscape-font-specification:'Noto Sans CJK SC'"
         id="path1615" />
      <path
         d="m -517.41801,554.37603 -1.76,0.496 v -3.04 h 1.792 v -1.168 h -1.792 v -3.2 h -1.184 v 3.2 h -2.272 v 1.168 h 2.272 v 3.376 c -0.944,0.272 -1.808,0.496 -2.496,0.656 l 0.32,1.2 c 0.656,-0.176 1.392,-0.4 2.176,-0.624 v 4.144 c 0,0.272 -0.112,0.352 -0.384,0.352 -0.224,0.016 -1.04,0.032 -1.936,0 0.176,0.32 0.352,0.816 0.384,1.136 1.264,0 2.016,-0.016 2.48,-0.224 0.448,-0.192 0.64,-0.528 0.64,-1.264 v -4.496 l 1.92,-0.576 z m 7.344,0.144 c -0.352,1.28 -0.928,2.512 -1.712,3.6 -0.864,-1.072 -1.584,-2.304 -2.096,-3.6 z m 0.64,-1.12 -0.208,0.048 h -5.856 v -4.352 h 5.088 c -0.064,1.44 -0.16,2.064 -0.368,2.256 -0.112,0.112 -0.304,0.128 -0.64,0.128 -0.32,0 -1.36,0 -2.416,-0.096 0.192,0.288 0.32,0.688 0.336,1.008 1.056,0.048 2.064,0.064 2.576,0.032 0.528,-0.032 0.864,-0.128 1.168,-0.416 0.336,-0.352 0.48,-1.264 0.576,-3.504 0.016,-0.176 0.016,-0.512 0.016,-0.512 h -7.504 v 14.048 h 1.168 v -7.52 h 0.48 c 0.608,1.68 1.44,3.216 2.496,4.528 -0.816,0.864 -1.76,1.616 -2.864,2.176 0.272,0.24 0.608,0.592 0.784,0.864 1.072,-0.576 2.032,-1.312 2.832,-2.192 0.848,0.88 1.792,1.616 2.848,2.128 0.176,-0.32 0.544,-0.768 0.832,-1.008 -1.072,-0.448 -2.048,-1.152 -2.912,-2.032 1.136,-1.52 1.92,-3.36 2.336,-5.328 z"
         style="font-weight:normal;font-family:'Noto Sans CJK SC';-inkscape-font-specification:'Noto Sans CJK SC'"
         id="path1617" />
      <path
         d="m -500.02601,550.02403 c -0.8,-0.64 -2.384,-1.408 -3.648,-1.856 l -0.656,0.864 c 1.28,0.48 2.848,1.312 3.632,1.952 z m -1.376,3.008 c -0.8,-0.672 -2.384,-1.472 -3.632,-1.936 l -0.72,0.832 c 1.28,0.512 2.848,1.376 3.6,2.032 z m 2.544,5.136 c 2.176,1.072 4.368,2.48 5.648,3.664 l 0.784,-0.896 c -1.312,-1.168 -3.6,-2.576 -5.808,-3.6 z m 0.672,-3.424 c 0.4,-2.032 0.4,-4.432 0.416,-7.12 h -1.216 c -0.016,2.768 0.016,5.152 -0.4,7.12 h -7.088 v 1.104 h 6.784 c -0.848,2.448 -2.704,4.192 -6.784,5.168 0.24,0.256 0.56,0.704 0.688,0.992 4.512,-1.136 6.48,-3.248 7.328,-6.16 h 6.096 v -1.104 z"
         style="font-weight:normal;font-family:'Noto Sans CJK SC';-inkscape-font-specification:'Noto Sans CJK SC'"
         id="path1619" />
      <path
         d="m -558.87401,582.37603 0.96,-0.496 c -1.84,-1.904 -2.976,-4.272 -2.976,-7.12 0,-2.848 1.136,-5.216 2.976,-7.12 l -0.96,-0.496 c -1.92,1.952 -3.184,4.496 -3.184,7.616 0,3.12 1.264,5.664 3.184,7.616 z"
         style="font-weight:normal;font-family:'Noto Sans CJK SC';-inkscape-font-specification:'Noto Sans CJK SC'"
         id="path1621" />
      <path
         d="m -556.57001,570.60003 v -1.328 h 3.008 v 11.568 h -1.472 v -10.24 z"
         id="path1623" />
      <path
         d="m -551.41801,578.26403 v -1.104 l 5.616,-7.776 h 1.744 v 7.616 h 1.6 v 1.264 h -1.6 v 2.576 h -1.44 v -2.576 z m 5.984,-7.36 -4.304,6.096 h 4.304 z"
         id="path1625" />
      <path
         d="m -535.22602,570.26403 h 10.944 v 2.128 h 1.216 v -3.264 h -5.648 c -0.224,-0.544 -0.656,-1.248 -1.072,-1.792 l -1.136,0.384 c 0.304,0.416 0.608,0.944 0.832,1.408 h -6.304 v 3.264 h 1.168 z m 12.32,5.76 h -6.208 v -0.592 c 1.392,-0.736 2.816,-1.808 3.824,-2.832 l -0.816,-0.624 -0.256,0.064 h -7.6 v 1.12 h 6.4 c -0.8,0.704 -1.856,1.424 -2.784,1.872 v 0.992 h -6.24 v 1.136 h 6.24 v 3.424 c 0,0.224 -0.08,0.288 -0.384,0.304 -0.272,0.016 -1.296,0.016 -2.384,-0.016 0.208,0.304 0.448,0.832 0.544,1.168 1.328,0 2.16,-0.016 2.72,-0.208 0.56,-0.176 0.736,-0.528 0.736,-1.232 v -3.44 h 6.208 z"
         style="font-weight:normal;font-family:'Noto Sans CJK SC';-inkscape-font-specification:'Noto Sans CJK SC'"
         id="path1627" />
      <path
         d="m -508.18602,573.06403 h -11.92 v 1.152 h 4.176 v 7.808 h 1.232 v -7.808 h 5.296 v 4.128 c 0,0.256 -0.08,0.32 -0.384,0.32 -0.336,0.032 -1.408,0.032 -2.576,-0.016 0.16,0.352 0.336,0.88 0.368,1.232 1.504,0 2.496,0 3.072,-0.192 0.592,-0.192 0.736,-0.592 0.736,-1.312 z m -2.176,-3.792 v -1.824 h -1.232 v 1.824 h -4.272 v -1.824 h -1.2 v 1.824 h -3.712 v 1.136 h 3.712 v 1.808 h 1.2 v -1.808 h 4.272 v 1.808 h 1.232 v -1.808 h 3.712 v -1.136 z"
         style="font-weight:normal;font-family:'Noto Sans CJK SC';-inkscape-font-specification:'Noto Sans CJK SC'"
         id="path1629" />
      <path
         d="m -504.02602,567.14403 -0.96,0.496 c 1.84,1.904 2.976,4.272 2.976,7.12 0,2.848 -1.136,5.216 -2.976,7.12 l 0.96,0.496 c 1.92,-1.952 3.184,-4.496 3.184,-7.616 0,-3.12 -1.264,-5.664 -3.184,-7.616 z"
         style="font-weight:normal;font-family:'Noto Sans CJK SC';-inkscape-font-specification:'Noto Sans CJK SC'"
         id="path1631" />
    </g>
  </g>
  <g
     style="line-height:125%;-inkscape-font-specification:'Open Sans';text-align:center"
     text-anchor="middle"
     transform="translate(716.55 -453.76)"
     word-spacing="0"
     id="g1176">
    <g
       aria-label="IP 报头
（20 字节）"
       id="text1174"
       style="font-weight:500;font-size:16px;line-height:1.25;font-family:Poppins;-inkscape-font-specification:'Poppins, Medium';letter-spacing:0">
      <path
         d="m -553.15403,537.68803 v 11.152 h -1.456 v -11.152 z"
         id="path1634" />
      <path
         d="m -543.21802,540.95203 q 0,1.392 -0.96,2.32 -0.944,0.912 -2.896,0.912 h -2.144 v 4.656 h -1.456 v -11.152 h 3.6 q 1.888,0 2.864,0.912 0.992,0.912 0.992,2.352 z m -3.856,2.032 q 1.216,0 1.792,-0.528 0.576,-0.528 0.576,-1.504 0,-2.064 -2.368,-2.064 h -2.144 v 4.096 z"
         id="path1636" />
      <path
         d="m -533.026,542.37603 -1.76,0.496 v -3.04 h 1.792 v -1.168 h -1.792 v -3.2 h -1.184 v 3.2 h -2.272 v 1.168 h 2.272 v 3.376 c -0.944,0.272 -1.808,0.496 -2.496,0.656 l 0.32,1.2 c 0.656,-0.176 1.392,-0.4 2.176,-0.624 v 4.144 c 0,0.272 -0.112,0.352 -0.384,0.352 -0.224,0.016 -1.04,0.032 -1.936,0 0.176,0.32 0.352,0.816 0.384,1.136 1.264,0 2.016,-0.016 2.48,-0.224 0.448,-0.192 0.64,-0.528 0.64,-1.264 v -4.496 l 1.92,-0.576 z m 7.344,0.144 c -0.352,1.28 -0.928,2.512 -1.712,3.6 -0.864,-1.072 -1.584,-2.304 -2.096,-3.6 z m 0.64,-1.12 -0.208,0.048 h -5.856 v -4.352 h 5.088 c -0.064,1.44 -0.16,2.064 -0.368,2.256 -0.112,0.112 -0.304,0.128 -0.64,0.128 -0.32,0 -1.36,0 -2.416,-0.096 0.192,0.288 0.32,0.688 0.336,1.008 1.056,0.048 2.064,0.064 2.576,0.032 0.528,-0.032 0.864,-0.128 1.168,-0.416 0.336,-0.352 0.48,-1.264 0.576,-3.504 0.016,-0.176 0.016,-0.512 0.016,-0.512 h -7.504 v 14.048 h 1.168 v -7.52 h 0.48 c 0.608,1.68 1.44,3.216 2.496,4.528 -0.816,0.864 -1.76,1.616 -2.864,2.176 0.272,0.24 0.608,0.592 0.784,0.864 1.072,-0.576 2.032,-1.312 2.832,-2.192 0.848,0.88 1.792,1.616 2.848,2.128 0.176,-0.32 0.544,-0.768 0.832,-1.008 -1.072,-0.448 -2.048,-1.152 -2.912,-2.032 1.136,-1.52 1.92,-3.36 2.336,-5.328 z"
         style="font-weight:normal;font-family:'Noto Sans CJK SC';-inkscape-font-specification:'Noto Sans CJK SC'"
         id="path1638" />
      <path
         d="m -515.634,538.02403 c -0.8,-0.64 -2.384,-1.408 -3.648,-1.856 l -0.656,0.864 c 1.28,0.48 2.848,1.312 3.632,1.952 z m -1.376,3.008 c -0.8,-0.672 -2.384,-1.472 -3.632,-1.936 l -0.72,0.832 c 1.28,0.512 2.848,1.376 3.6,2.032 z m 2.544,5.136 c 2.176,1.072 4.368,2.48 5.648,3.664 l 0.784,-0.896 c -1.312,-1.168 -3.6,-2.576 -5.808,-3.6 z m 0.672,-3.424 c 0.4,-2.032 0.4,-4.432 0.416,-7.12 h -1.216 c -0.016,2.768 0.016,5.152 -0.4,7.12 h -7.088 v 1.104 h 6.784 c -0.848,2.448 -2.704,4.192 -6.784,5.168 0.24,0.256 0.56,0.704 0.688,0.992 4.512,-1.136 6.48,-3.248 7.328,-6.16 h 6.096 v -1.104 z"
         style="font-weight:normal;font-family:'Noto Sans CJK SC';-inkscape-font-specification:'Noto Sans CJK SC'"
         id="path1640" />
      <path
         d="m -560.90602,570.37603 0.96,-0.496 c -1.84,-1.904 -2.976,-4.272 -2.976,-7.12 0,-2.848 1.136,-5.216 2.976,-7.12 l -0.96,-0.496 c -1.92,1.952 -3.184,4.496 -3.184,7.616 0,3.12 1.264,5.664 3.184,7.616 z"
         style="font-weight:normal;font-family:'Noto Sans CJK SC';-inkscape-font-specification:'Noto Sans CJK SC'"
         id="path1642" />
      <path
         d="m -558.39402,567.67203 q 2.032,-1.632 3.184,-2.672 1.152,-1.056 1.936,-2.192 0.8,-1.152 0.8,-2.256 0,-1.04 -0.512,-1.632 -0.496,-0.608 -1.616,-0.608 -1.088,0 -1.696,0.688 -0.592,0.672 -0.64,1.808 h -1.408 q 0.064,-1.792 1.088,-2.768 1.024,-0.976 2.64,-0.976 1.648,0 2.608,0.912 0.976,0.912 0.976,2.512 0,1.328 -0.8,2.592 -0.784,1.248 -1.792,2.208 -1.008,0.944 -2.576,2.208 h 5.504 v 1.216 h -7.696 z"
         id="path1644" />
      <path
         d="m -549.01801,562.93603 q 0,-2.752 0.896,-4.288 0.896,-1.552 3.136,-1.552 2.224,0 3.12,1.552 0.896,1.536 0.896,4.288 0,2.8 -0.896,4.352 -0.896,1.552 -3.12,1.552 -2.24,0 -3.136,-1.552 -0.896,-1.552 -0.896,-4.352 z m 6.608,0 q 0,-1.392 -0.192,-2.352 -0.176,-0.976 -0.752,-1.568 -0.56,-0.592 -1.632,-0.592 -1.088,0 -1.664,0.592 -0.56,0.592 -0.752,1.568 -0.176,0.96 -0.176,2.352 0,1.44 0.176,2.416 0.192,0.976 0.752,1.568 0.576,0.592 1.664,0.592 1.072,0 1.632,-0.592 0.576,-0.592 0.752,-1.568 0.192,-0.976 0.192,-2.416 z"
         id="path1646" />
      <path
         d="m -533.194,558.26403 h 10.944 v 2.128 h 1.216 v -3.264 h -5.648 c -0.224,-0.544 -0.656,-1.248 -1.072,-1.792 l -1.136,0.384 c 0.304,0.416 0.608,0.944 0.832,1.408 h -6.304 v 3.264 h 1.168 z m 12.32,5.76 h -6.208 v -0.592 c 1.392,-0.736 2.816,-1.808 3.824,-2.832 l -0.816,-0.624 -0.256,0.064 h -7.6 v 1.12 h 6.4 c -0.8,0.704 -1.856,1.424 -2.784,1.872 v 0.992 h -6.24 v 1.136 h 6.24 v 3.424 c 0,0.224 -0.08,0.288 -0.384,0.304 -0.272,0.016 -1.296,0.016 -2.384,-0.016 0.208,0.304 0.448,0.832 0.544,1.168 1.328,0 2.16,-0.016 2.72,-0.208 0.56,-0.176 0.736,-0.528 0.736,-1.232 v -3.44 h 6.208 z"
         style="font-weight:normal;font-family:'Noto Sans CJK SC';-inkscape-font-specification:'Noto Sans CJK SC'"
         id="path1648" />
      <path
         d="m -506.154,561.06403 h -11.92 v 1.152 h 4.176 v 7.808 h 1.232 v -7.808 h 5.296 v 4.128 c 0,0.256 -0.08,0.32 -0.384,0.32 -0.336,0.032 -1.408,0.032 -2.576,-0.016 0.16,0.352 0.336,0.88 0.368,1.232 1.504,0 2.496,0 3.072,-0.192 0.592,-0.192 0.736,-0.592 0.736,-1.312 z m -2.176,-3.792 v -1.824 h -1.232 v 1.824 h -4.272 v -1.824 h -1.2 v 1.824 h -3.712 v 1.136 h 3.712 v 1.808 h 1.2 v -1.808 h 4.272 v 1.808 h 1.232 v -1.808 h 3.712 v -1.136 z"
         style="font-weight:normal;font-family:'Noto Sans CJK SC';-inkscape-font-specification:'Noto Sans CJK SC'"
         id="path1650" />
      <path
         d="m -501.994,555.14403 -0.96,0.496 c 1.84,1.904 2.976,4.272 2.976,7.12 0,2.848 -1.136,5.216 -2.976,7.12 l 0.96,0.496 c 1.92,-1.952 3.184,-4.496 3.184,-7.616 0,-3.12 -1.264,-5.664 -3.184,-7.616 z"
         style="font-weight:normal;font-family:'Noto Sans CJK SC';-inkscape-font-specification:'Noto Sans CJK SC'"
         id="path1652" />
    </g>
  </g>
  <g
     style="line-height:125%;-inkscape-font-specification:'Open Sans';text-align:center"
     text-anchor="middle"
     transform="translate(846.22 -455.38)"
     word-spacing="0"
     id="g1184">
    <g
       aria-label="TCP 报头
（20 字节）"
       id="text1182"
       style="font-weight:500;font-size:16px;line-height:1.25;font-family:Poppins;-inkscape-font-specification:'Poppins, Medium';letter-spacing:0">
      <path
         d="m -552.62602,539.68803 v 1.184 h -3.04 v 9.968 h -1.456 v -9.968 h -3.056 v -1.184 z"
         id="path1655" />
      <path
         d="m -551.37801,545.25603 q 0,-1.632 0.736,-2.928 0.736,-1.312 2,-2.048 1.28,-0.736 2.832,-0.736 1.824,0 3.184,0.88 1.36,0.88 1.984,2.496 h -1.744 q -0.464,-1.008 -1.344,-1.552 -0.864,-0.544 -2.08,-0.544 -1.168,0 -2.096,0.544 -0.928,0.544 -1.456,1.552 -0.528,0.992 -0.528,2.336 0,1.328 0.528,2.336 0.528,0.992 1.456,1.536 0.928,0.544 2.096,0.544 1.216,0 2.08,-0.528 0.88,-0.544 1.344,-1.552 h 1.744 q -0.624,1.6 -1.984,2.48 -1.36,0.864 -3.184,0.864 -1.552,0 -2.832,-0.72 -1.264,-0.736 -2,-2.032 -0.736,-1.296 -0.736,-2.928 z"
         id="path1657" />
      <path
         d="m -531.02602,542.95203 q 0,1.392 -0.96,2.32 -0.944,0.912 -2.896,0.912 h -2.144 v 4.656 h -1.456 v -11.152 h 3.6 q 1.888,0 2.864,0.912 0.992,0.912 0.992,2.352 z m -3.856,2.032 q 1.216,0 1.792,-0.528 0.576,-0.528 0.576,-1.504 0,-2.064 -2.368,-2.064 h -2.144 v 4.096 z"
         id="path1659" />
      <path
         d="m -520.14601,544.37603 -1.76,0.496 v -3.04 h 1.792 v -1.168 h -1.792 v -3.2 h -1.184 v 3.2 h -2.272 v 1.168 h 2.272 v 3.376 c -0.944,0.272 -1.808,0.496 -2.496,0.656 l 0.32,1.2 c 0.656,-0.176 1.392,-0.4 2.176,-0.624 v 4.144 c 0,0.272 -0.112,0.352 -0.384,0.352 -0.224,0.016 -1.04,0.032 -1.936,0 0.176,0.32 0.352,0.816 0.384,1.136 1.264,0 2.016,-0.016 2.48,-0.224 0.448,-0.192 0.64,-0.528 0.64,-1.264 v -4.496 l 1.92,-0.576 z m 7.344,0.144 c -0.352,1.28 -0.928,2.512 -1.712,3.6 -0.864,-1.072 -1.584,-2.304 -2.096,-3.6 z m 0.64,-1.12 -0.208,0.048 h -5.856 v -4.352 h 5.088 c -0.064,1.44 -0.16,2.064 -0.368,2.256 -0.112,0.112 -0.304,0.128 -0.64,0.128 -0.32,0 -1.36,0 -2.416,-0.096 0.192,0.288 0.32,0.688 0.336,1.008 1.056,0.048 2.064,0.064 2.576,0.032 0.528,-0.032 0.864,-0.128 1.168,-0.416 0.336,-0.352 0.48,-1.264 0.576,-3.504 0.016,-0.176 0.016,-0.512 0.016,-0.512 h -7.504 v 14.048 h 1.168 v -7.52 h 0.48 c 0.608,1.68 1.44,3.216 2.496,4.528 -0.816,0.864 -1.76,1.616 -2.864,2.176 0.272,0.24 0.608,0.592 0.784,0.864 1.072,-0.576 2.032,-1.312 2.832,-2.192 0.848,0.88 1.792,1.616 2.848,2.128 0.176,-0.32 0.544,-0.768 0.832,-1.008 -1.072,-0.448 -2.048,-1.152 -2.912,-2.032 1.136,-1.52 1.92,-3.36 2.336,-5.328 z"
         style="font-weight:normal;font-family:'Noto Sans CJK SC';-inkscape-font-specification:'Noto Sans CJK SC'"
         id="path1661" />
      <path
         d="m -502.75401,540.02403 c -0.8,-0.64 -2.384,-1.408 -3.648,-1.856 l -0.656,0.864 c 1.28,0.48 2.848,1.312 3.632,1.952 z m -1.376,3.008 c -0.8,-0.672 -2.384,-1.472 -3.632,-1.936 l -0.72,0.832 c 1.28,0.512 2.848,1.376 3.6,2.032 z m 2.544,5.136 c 2.176,1.072 4.368,2.48 5.648,3.664 l 0.784,-0.896 c -1.312,-1.168 -3.6,-2.576 -5.808,-3.6 z m 0.672,-3.424 c 0.4,-2.032 0.4,-4.432 0.416,-7.12 h -1.216 c -0.016,2.768 0.016,5.152 -0.4,7.12 h -7.088 v 1.104 h 6.784 c -0.848,2.448 -2.704,4.192 -6.784,5.168 0.24,0.256 0.56,0.704 0.688,0.992 4.512,-1.136 6.48,-3.248 7.328,-6.16 h 6.096 v -1.104 z"
         style="font-weight:normal;font-family:'Noto Sans CJK SC';-inkscape-font-specification:'Noto Sans CJK SC'"
         id="path1663" />
      <path
         d="m -556.90602,572.37603 0.96,-0.496 c -1.84,-1.904 -2.976,-4.272 -2.976,-7.12 0,-2.848 1.136,-5.216 2.976,-7.12 l -0.96,-0.496 c -1.92,1.952 -3.184,4.496 -3.184,7.616 0,3.12 1.264,5.664 3.184,7.616 z"
         style="font-weight:normal;font-family:'Noto Sans CJK SC';-inkscape-font-specification:'Noto Sans CJK SC'"
         id="path1665" />
      <path
         d="m -554.39402,569.67203 q 2.032,-1.632 3.184,-2.672 1.152,-1.056 1.936,-2.192 0.8,-1.152 0.8,-2.256 0,-1.04 -0.512,-1.632 -0.496,-0.608 -1.616,-0.608 -1.088,0 -1.696,0.688 -0.592,0.672 -0.64,1.808 h -1.408 q 0.064,-1.792 1.088,-2.768 1.024,-0.976 2.64,-0.976 1.648,0 2.608,0.912 0.976,0.912 0.976,2.512 0,1.328 -0.8,2.592 -0.784,1.248 -1.792,2.208 -1.008,0.944 -2.576,2.208 h 5.504 v 1.216 h -7.696 z"
         id="path1667" />
      <path
         d="m -545.01801,564.93603 q 0,-2.752 0.896,-4.288 0.896,-1.552 3.136,-1.552 2.224,0 3.12,1.552 0.896,1.536 0.896,4.288 0,2.8 -0.896,4.352 -0.896,1.552 -3.12,1.552 -2.24,0 -3.136,-1.552 -0.896,-1.552 -0.896,-4.352 z m 6.608,0 q 0,-1.392 -0.192,-2.352 -0.176,-0.976 -0.752,-1.568 -0.56,-0.592 -1.632,-0.592 -1.088,0 -1.664,0.592 -0.56,0.592 -0.752,1.568 -0.176,0.96 -0.176,2.352 0,1.44 0.176,2.416 0.192,0.976 0.752,1.568 0.576,0.592 1.664,0.592 1.072,0 1.632,-0.592 0.576,-0.592 0.752,-1.568 0.192,-0.976 0.192,-2.416 z"
         id="path1669" />
      <path
         d="m -529.194,560.26403 h 10.944 v 2.128 h 1.216 v -3.264 h -5.648 c -0.224,-0.544 -0.656,-1.248 -1.072,-1.792 l -1.136,0.384 c 0.304,0.416 0.608,0.944 0.832,1.408 h -6.304 v 3.264 h 1.168 z m 12.32,5.76 h -6.208 v -0.592 c 1.392,-0.736 2.816,-1.808 3.824,-2.832 l -0.816,-0.624 -0.256,0.064 h -7.6 v 1.12 h 6.4 c -0.8,0.704 -1.856,1.424 -2.784,1.872 v 0.992 h -6.24 v 1.136 h 6.24 v 3.424 c 0,0.224 -0.08,0.288 -0.384,0.304 -0.272,0.016 -1.296,0.016 -2.384,-0.016 0.208,0.304 0.448,0.832 0.544,1.168 1.328,0 2.16,-0.016 2.72,-0.208 0.56,-0.176 0.736,-0.528 0.736,-1.232 v -3.44 h 6.208 z"
         style="font-weight:normal;font-family:'Noto Sans CJK SC';-inkscape-font-specification:'Noto Sans CJK SC'"
         id="path1671" />
      <path
         d="m -502.154,563.06403 h -11.92 v 1.152 h 4.176 v 7.808 h 1.232 v -7.808 h 5.296 v 4.128 c 0,0.256 -0.08,0.32 -0.384,0.32 -0.336,0.032 -1.408,0.032 -2.576,-0.016 0.16,0.352 0.336,0.88 0.368,1.232 1.504,0 2.496,0 3.072,-0.192 0.592,-0.192 0.736,-0.592 0.736,-1.312 z m -2.176,-3.792 v -1.824 h -1.232 v 1.824 h -4.272 v -1.824 h -1.2 v 1.824 h -3.712 v 1.136 h 3.712 v 1.808 h 1.2 v -1.808 h 4.272 v 1.808 h 1.232 v -1.808 h 3.712 v -1.136 z"
         style="font-weight:normal;font-family:'Noto Sans CJK SC';-inkscape-font-specification:'Noto Sans CJK SC'"
         id="path1673" />
      <path
         d="m -497.994,557.14403 -0.96,0.496 c 1.84,1.904 2.976,4.272 2.976,7.12 0,2.848 -1.136,5.216 -2.976,7.12 l 0.96,0.496 c 1.92,-1.952 3.184,-4.496 3.184,-7.616 0,-3.12 -1.264,-5.664 -3.184,-7.616 z"
         style="font-weight:normal;font-family:'Noto Sans CJK SC';-inkscape-font-specification:'Noto Sans CJK SC'"
         id="path1675" />
    </g>
  </g>
  <g
     style="line-height:125%;-inkscape-font-specification:'Open Sans';text-align:center"
     text-anchor="middle"
     transform="translate(1113.5 -455.52)"
     word-spacing="0"
     id="g1192">
    <g
       aria-label="使用数据
（最多 1460 字节）"
       id="text1190"
       style="font-weight:500;font-size:16px;line-height:1.25;font-family:Poppins;-inkscape-font-specification:'Poppins, Medium';letter-spacing:0">
      <path
         d="m -558.98601,537.41603 c -0.928,2.416 -2.48,4.8 -4.096,6.32 0.224,0.272 0.56,0.88 0.672,1.152 0.592,-0.592 1.2,-1.296 1.76,-2.08 v 9.328 h 1.136 v -11.04 c 0.624,-1.072 1.2,-2.208 1.648,-3.328 z m 2.256,7.84 v -2.368 h 2.848 v 1.648 c 0,0.24 0,0.48 -0.016,0.72 z m 6.96,-2.368 v 2.368 h -2.96 c 0.016,-0.24 0.016,-0.48 0.016,-0.72 v -1.648 z m 1.136,3.376 v -4.384 h -4.08 v -1.568 h 4.608 v -1.088 h -4.608 v -1.712 h -1.168 v 1.712 h -4.416 v 1.088 h 4.416 v 1.568 h -3.952 v 4.384 h 3.872 c -0.112,0.88 -0.352,1.712 -0.864,2.464 -0.848,-0.592 -1.536,-1.296 -2.016,-2.128 l -0.992,0.32 c 0.592,1.024 1.376,1.888 2.32,2.608 -0.736,0.656 -1.808,1.216 -3.376,1.616 0.256,0.224 0.592,0.72 0.72,0.976 1.664,-0.496 2.816,-1.168 3.616,-1.952 1.632,0.976 3.632,1.6 5.888,1.936 0.16,-0.352 0.448,-0.816 0.704,-1.072 -2.272,-0.272 -4.288,-0.816 -5.888,-1.696 0.64,-0.928 0.928,-1.968 1.056,-3.072 z"
         style="font-weight:normal;font-family:'Noto Sans CJK SC';-inkscape-font-specification:'Noto Sans CJK SC'"
         id="path1678" />
      <path
         d="m -538.77801,546.05603 v -2.656 h 4.304 v 2.656 z m -5.072,0 c 0.048,-0.592 0.064,-1.184 0.064,-1.712 v -0.944 h 3.824 v 2.656 z m 3.888,-6.336 v 2.56 h -3.824 v -2.56 z m 5.488,2.56 h -4.304 v -2.56 h 4.304 z m 1.168,-3.696 h -11.648 v 5.76 c 0,2.224 -0.16,5.04 -1.92,7.024 0.256,0.144 0.736,0.544 0.912,0.784 1.216,-1.36 1.76,-3.184 2,-4.96 h 4 v 4.72 h 1.184 v -4.72 h 4.304 v 3.248 c 0,0.304 -0.112,0.4 -0.432,0.416 -0.288,0 -1.376,0.016 -2.496,-0.032 0.16,0.32 0.352,0.832 0.4,1.152 1.504,0.016 2.432,0 2.976,-0.192 0.512,-0.208 0.72,-0.56 0.72,-1.328 z"
         style="font-weight:normal;font-family:'Noto Sans CJK SC';-inkscape-font-specification:'Noto Sans CJK SC'"
         id="path1680" />
      <path
         d="m -524.34601,537.75203 c -0.272,0.64 -0.8,1.552 -1.2,2.128 l 0.768,0.368 c 0.448,-0.528 0.96,-1.328 1.424,-2.048 z m -3.744,2.16 c -0.16,-0.592 -0.592,-1.44 -1.04,-2.064 l -0.864,0.352 c 0.432,0.656 0.848,1.536 0.992,2.096 z m 0.784,4.48 h 1.104 v -2.192 c 0.768,0.544 1.76,1.328 2.144,1.696 l 0.656,-0.864 c -0.368,-0.272 -1.744,-1.168 -2.544,-1.632 h 3.008 v -0.992 h -3.264 v -2.96 h -1.104 v 2.96 h -3.296 v 0.992 h 2.928 c -0.784,1.04 -1.968,2.016 -3.088,2.496 0.224,0.224 0.512,0.624 0.64,0.896 0.976,-0.512 2.016,-1.392 2.816,-2.336 z m 2.432,2.288 c -0.352,0.832 -0.864,1.536 -1.488,2.112 -0.576,-0.288 -1.216,-0.592 -1.808,-0.848 0.224,-0.368 0.464,-0.816 0.704,-1.264 z m 0.784,3.44 c -0.352,-0.256 -0.832,-0.544 -1.344,-0.832 0.848,-0.896 1.504,-2.016 1.92,-3.392 l -0.672,-0.272 -0.176,0.048 h -2.608 c 0.128,-0.288 0.224,-0.56 0.336,-0.832 l -1.056,-0.192 c -0.112,0.336 -0.256,0.672 -0.416,1.024 h -2.16 v 1.008 h 1.664 c -0.336,0.624 -0.688,1.216 -1.024,1.696 0.784,0.288 1.648,0.688 2.448,1.104 -1.04,0.736 -2.256,1.248 -3.552,1.536 0.208,0.224 0.448,0.656 0.56,0.912 1.456,-0.384 2.816,-1.008 3.952,-1.92 0.544,0.304 1.024,0.624 1.392,0.896 z m 5.552,-8.48 c -0.24,1.84 -0.624,3.44 -1.2,4.784 -0.608,-1.424 -1.056,-3.056 -1.36,-4.784 z m 2.192,0 v -1.104 h -4.512 c 0.224,-0.896 0.416,-1.824 0.544,-2.768 l -1.088,-0.16 c -0.4,2.768 -1.12,5.44 -2.336,7.12 0.256,0.16 0.704,0.528 0.896,0.72 0.4,-0.608 0.768,-1.312 1.088,-2.096 0.352,1.584 0.8,3.024 1.408,4.272 -0.896,1.52 -2.144,2.688 -3.872,3.536 0.208,0.224 0.544,0.704 0.656,0.96 1.632,-0.88 2.848,-2 3.792,-3.392 0.784,1.36 1.792,2.448 3.024,3.2 0.176,-0.304 0.512,-0.704 0.784,-0.928 -1.328,-0.704 -2.368,-1.888 -3.184,-3.344 0.848,-1.648 1.376,-3.632 1.744,-6.016 z"
         style="font-weight:normal;font-family:'Noto Sans CJK SC';-inkscape-font-specification:'Noto Sans CJK SC'"
         id="path1682" />
      <path
         d="m -509.80201,545.49603 -0.16,-1.088 -1.664,0.528 v -3.168 h 1.808 v -1.104 h -1.808 v -3.2 h -1.104 v 3.2 h -1.984 v 1.104 h 1.984 v 3.504 c -0.832,0.24 -1.584,0.464 -2.176,0.64 l 0.288,1.136 c 0.576,-0.176 1.216,-0.368 1.888,-0.592 v 4.112 c 0,0.24 -0.08,0.304 -0.272,0.304 -0.176,0 -0.816,0 -1.504,-0.016 0.16,0.336 0.304,0.816 0.352,1.104 1.008,0.016 1.616,-0.032 1.984,-0.224 0.4,-0.192 0.544,-0.496 0.544,-1.152 v -4.496 z m 1.824,-1.472 c 0.016,-0.384 0.016,-0.72 0.016,-1.072 v -0.688 h 3.088 v 1.76 z m 6.112,-4.832 v 2.032 h -6.096 v -2.032 z m 0.112,11.248 h -4.912 v -2.416 h 4.912 z m 1.568,-5.392 v -1.024 h -3.552 v -1.76 h 3.008 v -4.112 h -8.384 v 4.8 c 0,2.528 -0.144,6 -1.792,8.448 0.272,0.112 0.768,0.448 0.96,0.672 1.344,-1.968 1.776,-4.656 1.92,-7.024 h 3.152 v 1.968 h -2.832 v 5.072 h 1.04 v -0.656 h 4.912 v 0.592 h 1.088 v -5.008 h -3.072 v -1.968 z"
         style="font-weight:normal;font-family:'Noto Sans CJK SC';-inkscape-font-specification:'Noto Sans CJK SC'"
         id="path1684" />
      <path
         d="m -587.11401,572.37603 0.96,-0.496 c -1.84,-1.904 -2.976,-4.272 -2.976,-7.12 0,-2.848 1.136,-5.216 2.976,-7.12 l -0.96,-0.496 c -1.92,1.952 -3.184,4.496 -3.184,7.616 0,3.12 1.264,5.664 3.184,7.616 z"
         style="font-weight:normal;font-family:'Noto Sans CJK SC';-inkscape-font-specification:'Noto Sans CJK SC'"
         id="path1686" />
      <path
         d="m -573.38601,559.91203 h -8.048 v -1.088 h 8.048 z m 0,1.936 h -8.048 v -1.136 h 8.048 z m 1.168,-3.872 h -10.352 v 4.72 h 10.352 z m -9.744,10.56 h 2.896 v 0.992 c -1.008,0.128 -1.984,0.24 -2.896,0.336 z m 2.896,-3.968 v 1.072 h -2.896 v -1.072 z m -2.896,1.968 h 2.896 v 1.12 h -2.896 z m 4.896,3.728 v -0.96 l -0.864,0.096 v -4.832 h 7.632 v -0.992 h -14.272 v 0.992 h 1.52 v 5.392 c -0.56,0.064 -1.104,0.112 -1.568,0.16 l 0.128,1.056 c 1.488,-0.176 3.44,-0.416 5.424,-0.656 v 1.552 h 1.136 v -1.696 z m 4.944,-3.728 c -0.432,0.944 -1.056,1.76 -1.776,2.464 -0.736,-0.704 -1.312,-1.536 -1.728,-2.464 z m 0.704,-1.008 -0.224,0.032 h -5.664 v 0.976 h 0.96 l -0.32,0.096 c 0.48,1.152 1.136,2.192 1.968,3.04 -0.88,0.656 -1.872,1.152 -2.864,1.472 0.208,0.208 0.496,0.608 0.608,0.88 1.056,-0.384 2.096,-0.928 3.024,-1.648 0.912,0.736 1.968,1.28 3.168,1.648 0.16,-0.304 0.464,-0.72 0.704,-0.944 -1.152,-0.304 -2.176,-0.784 -3.04,-1.408 1.04,-1.024 1.856,-2.288 2.352,-3.856 z"
         style="font-weight:normal;font-family:'Noto Sans CJK SC';-inkscape-font-specification:'Noto Sans CJK SC'"
         id="path1688" />
      <path
         d="m -557.49801,558.79203 -0.208,0.048 h -4.144 c 0.384,-0.384 0.736,-0.752 1.04,-1.136 l -1.296,-0.272 c -1.024,1.312 -2.928,2.864 -5.472,3.936 0.256,0.192 0.624,0.56 0.8,0.832 1.44,-0.656 2.688,-1.44 3.712,-2.288 h 4.512 c -0.784,0.992 -1.888,1.856 -3.152,2.592 -0.576,-0.512 -1.376,-1.056 -2.048,-1.44 l -0.864,0.608 c 0.64,0.368 1.344,0.88 1.872,1.36 -1.696,0.816 -3.584,1.392 -5.36,1.712 0.208,0.256 0.464,0.752 0.56,1.072 4.144,-0.864 8.8,-3.008 10.816,-6.544 z m 2.336,5.584 -0.24,0.064 h -3.856 c 0.4,-0.384 0.736,-0.784 1.056,-1.184 l -1.312,-0.288 c -1.168,1.568 -3.44,3.344 -6.672,4.512 0.272,0.192 0.608,0.624 0.752,0.88 2,-0.784 3.648,-1.76 4.976,-2.832 h 4.32 c -0.8,1.248 -1.936,2.24 -3.296,3.024 -0.576,-0.528 -1.344,-1.152 -1.984,-1.616 l -0.976,0.56 c 0.624,0.48 1.344,1.088 1.872,1.6 -2.24,1.04 -4.928,1.6 -7.632,1.856 0.208,0.288 0.4,0.816 0.48,1.152 5.632,-0.672 11.088,-2.528 13.312,-7.232 z"
         style="font-weight:normal;font-family:'Noto Sans CJK SC';-inkscape-font-specification:'Noto Sans CJK SC'"
         id="path1690" />
      <path
         d="m -548.53801,560.60003 v -1.328 h 3.008 v 11.568 h -1.472 v -10.24 z"
         id="path1692" />
      <path
         d="m -543.38602,568.26403 v -1.104 l 5.616,-7.776 h 1.744 v 7.616 h 1.6 v 1.264 h -1.6 v 2.576 h -1.44 v -2.576 z m 5.984,-7.36 -4.304,6.096 h 4.304 z"
         id="path1694" />
      <path
         d="m -526.52202,562.02403 q -0.352,-1.776 -2.192,-1.776 -1.424,0 -2.128,1.104 -0.704,1.088 -0.688,3.6 0.368,-0.832 1.216,-1.296 0.864,-0.48 1.92,-0.48 1.648,0 2.624,1.024 0.992,1.024 0.992,2.832 0,1.088 -0.432,1.952 -0.416,0.864 -1.28,1.376 -0.848,0.512 -2.064,0.512 -1.648,0 -2.576,-0.736 -0.928,-0.736 -1.296,-2.032 -0.368,-1.296 -0.368,-3.2 0,-5.872 4.096,-5.872 1.568,0 2.464,0.848 0.896,0.848 1.056,2.144 z m -2.176,2.384 q -0.688,0 -1.296,0.288 -0.608,0.272 -0.992,0.848 -0.368,0.56 -0.368,1.376 0,1.216 0.704,1.984 0.704,0.752 2.016,0.752 1.12,0 1.776,-0.688 0.672,-0.704 0.672,-1.888 0,-1.248 -0.64,-1.952 -0.64,-0.72 -1.872,-0.72 z"
         id="path1696" />
      <path
         d="m -522.81002,564.93603 q 0,-2.752 0.896,-4.288 0.896,-1.552 3.136,-1.552 2.224,0 3.12,1.552 0.896,1.536 0.896,4.288 0,2.8 -0.896,4.352 -0.896,1.552 -3.12,1.552 -2.24,0 -3.136,-1.552 -0.896,-1.552 -0.896,-4.352 z m 6.608,0 q 0,-1.392 -0.192,-2.352 -0.176,-0.976 -0.752,-1.568 -0.56,-0.592 -1.632,-0.592 -1.088,0 -1.664,0.592 -0.56,0.592 -0.752,1.568 -0.176,0.96 -0.176,2.352 0,1.44 0.176,2.416 0.192,0.976 0.752,1.568 0.576,0.592 1.664,0.592 1.072,0 1.632,-0.592 0.576,-0.592 0.752,-1.568 0.192,-0.976 0.192,-2.416 z"
         id="path1698" />
      <path
         d="m -506.98601,560.26403 h 10.944 v 2.128 h 1.216 v -3.264 h -5.648 c -0.224,-0.544 -0.656,-1.248 -1.072,-1.792 l -1.136,0.384 c 0.304,0.416 0.608,0.944 0.832,1.408 h -6.304 v 3.264 h 1.168 z m 12.32,5.76 h -6.208 v -0.592 c 1.392,-0.736 2.816,-1.808 3.824,-2.832 l -0.816,-0.624 -0.256,0.064 h -7.6 v 1.12 h 6.4 c -0.8,0.704 -1.856,1.424 -2.784,1.872 v 0.992 h -6.24 v 1.136 h 6.24 v 3.424 c 0,0.224 -0.08,0.288 -0.384,0.304 -0.272,0.016 -1.296,0.016 -2.384,-0.016 0.208,0.304 0.448,0.832 0.544,1.168 1.328,0 2.16,-0.016 2.72,-0.208 0.56,-0.176 0.736,-0.528 0.736,-1.232 v -3.44 h 6.208 z"
         style="font-weight:normal;font-family:'Noto Sans CJK SC';-inkscape-font-specification:'Noto Sans CJK SC'"
         id="path1700" />
      <path
         d="m -479.94601,563.06403 h -11.92 v 1.152 h 4.176 v 7.808 h 1.232 v -7.808 h 5.296 v 4.128 c 0,0.256 -0.08,0.32 -0.384,0.32 -0.336,0.032 -1.408,0.032 -2.576,-0.016 0.16,0.352 0.336,0.88 0.368,1.232 1.504,0 2.496,0 3.072,-0.192 0.592,-0.192 0.736,-0.592 0.736,-1.312 z m -2.176,-3.792 v -1.824 h -1.232 v 1.824 h -4.272 v -1.824 h -1.2 v 1.824 h -3.712 v 1.136 h 3.712 v 1.808 h 1.2 v -1.808 h 4.272 v 1.808 h 1.232 v -1.808 h 3.712 v -1.136 z"
         style="font-weight:normal;font-family:'Noto Sans CJK SC';-inkscape-font-specification:'Noto Sans CJK SC'"
         id="path1702" />
      <path
         d="m -475.78601,557.14403 -0.96,0.496 c 1.84,1.904 2.976,4.272 2.976,7.12 0,2.848 -1.136,5.216 -2.976,7.12 l 0.96,0.496 c 1.92,-1.952 3.184,-4.496 3.184,-7.616 0,-3.12 -1.264,-5.664 -3.184,-7.616 z"
         style="font-weight:normal;font-family:'Noto Sans CJK SC';-inkscape-font-specification:'Noto Sans CJK SC'"
         id="path1704" />
    </g>
  </g>
  <g
     style="line-height:125%;-inkscape-font-specification:'Open Sans';text-align:center"
     text-anchor="middle"
     transform="translate(1377.22 -615.68)"
     word-spacing="0"
     id="g1200">
    <g
       aria-label="校验和
（2 字节）"
       id="text1198"
       style="font-weight:500;font-size:16px;line-height:1.25;font-family:Poppins;-inkscape-font-specification:'Poppins, Medium';letter-spacing:0">
      <path
         d="m -556.79399,700.52 h -4.656 l 1.04,-0.48 c -0.256,-0.56 -0.8,-1.36 -1.344,-1.952 l -0.992,0.432 c 0.496,0.592 1.008,1.44 1.264,2 h -4.032 v 1.104 h 8.72 z m -3.648,2.064 c 1.024,1.008 2.224,2.448 2.736,3.392 l 0.88,-0.736 c -0.528,-0.912 -1.76,-2.304 -2.8,-3.28 z m -2.96,-0.544 c -0.56,1.12 -1.568,2.464 -2.608,3.312 0.256,0.192 0.64,0.512 0.832,0.72 1.056,-0.928 2.128,-2.288 2.848,-3.552 z m -2.416,4.384 c -0.272,-0.48 -1.504,-2.576 -1.888,-3.12 v -0.64 h 1.792 v -1.12 h -1.792 v -3.376 h -1.088 v 3.376 h -2.08 v 1.12 h 1.856 c -0.448,2.192 -1.408,4.736 -2.384,6.064 0.224,0.288 0.512,0.8 0.64,1.136 0.736,-1.12 1.44,-2.944 1.968,-4.832 v 7.744 h 1.088 v -7.92 c 0.432,0.864 0.96,1.92 1.168,2.464 z m 6.032,-1.584 c -0.352,1.28 -0.88,2.416 -1.6,3.424 -0.784,-0.992 -1.392,-2.112 -1.84,-3.36 l -1.024,0.288 c 0.528,1.472 1.232,2.816 2.128,3.968 -1.056,1.12 -2.384,2.048 -4,2.752 0.256,0.208 0.592,0.64 0.752,0.896 1.6,-0.72 2.928,-1.648 4,-2.768 1.104,1.152 2.464,2.064 4.032,2.64 0.176,-0.32 0.528,-0.8 0.8,-1.024 -1.584,-0.528 -2.944,-1.392 -4.064,-2.512 0.864,-1.152 1.52,-2.496 1.952,-4.016 z"
         style="font-weight:normal;font-family:'Noto Sans CJK SC';-inkscape-font-specification:'Noto Sans CJK SC'"
         id="path1707" />
      <path
         d="m -551.14599,708.12 c -1.568,0.4 -3.12,0.816 -4.208,1.056 l 0.224,0.992 c 1.2,-0.32 2.656,-0.736 4.096,-1.136 z m 0.592,-2.512 c 0.208,-1.728 0.432,-4.576 0.592,-6.72 h -4.88 v 1.04 h 3.792 c -0.128,1.92 -0.336,4.16 -0.528,5.68 h -1.968 c 0.144,-1.328 0.304,-3.056 0.4,-4.448 l -1.024,-0.048 c -0.096,1.696 -0.304,4.08 -0.496,5.472 h 4.256 c -0.208,3.264 -0.448,4.56 -0.784,4.896 -0.144,0.176 -0.304,0.192 -0.56,0.192 -0.304,0 -1.04,-0.016 -1.824,-0.096 0.192,0.288 0.304,0.688 0.336,1.008 0.752,0.032 1.504,0.048 1.888,0.016 0.48,-0.032 0.768,-0.144 1.056,-0.464 0.48,-0.512 0.72,-2.016 0.976,-6.032 0.016,-0.144 0.016,-0.496 0.016,-0.496 z m 5.264,-7.552 c -0.96,2.24 -2.72,4.192 -4.608,5.408 0.192,0.224 0.56,0.72 0.704,0.944 1.504,-1.056 2.944,-2.544 4.016,-4.288 1.12,1.552 2.752,3.2 4.176,4.256 0.112,-0.336 0.384,-0.832 0.592,-1.104 -1.456,-0.96 -3.184,-2.64 -4.192,-4.144 0.112,-0.24 0.24,-0.464 0.352,-0.72 z m 2.624,5.056 h -4.736 v 1.024 h 4.736 z m -1.36,5.92 c -0.096,-1.04 -0.384,-2.576 -0.688,-3.792 l -0.944,0.128 c 0.288,1.216 0.576,2.784 0.64,3.808 z m -4.416,-3.264 c 0.448,1.216 0.896,2.784 1.008,3.824 l 0.976,-0.272 c -0.16,-1.008 -0.592,-2.576 -1.056,-3.776 z m 6.384,-0.32 c -0.528,1.68 -1.488,4.048 -2.272,5.52 h -4.624 v 1.04 h 8.096 v -1.04 h -2.448 c 0.784,-1.456 1.664,-3.552 2.336,-5.232 z"
         style="font-weight:normal;font-family:'Noto Sans CJK SC';-inkscape-font-specification:'Noto Sans CJK SC'"
         id="path1709" />
      <path
         d="m -534.77799,699.992 c 0.992,-0.208 1.936,-0.464 2.672,-0.736 l -0.8,-0.928 c -1.408,0.56 -3.904,1.04 -6.016,1.328 0.144,0.272 0.272,0.656 0.336,0.944 0.848,-0.112 1.744,-0.24 2.64,-0.384 v 2.656 h -3.12 v 1.104 h 2.816 c -0.72,2 -2,4.192 -3.216,5.408 0.224,0.288 0.528,0.768 0.656,1.088 1.024,-1.104 2.08,-2.912 2.864,-4.768 v 7.04 h 1.168 v -6.992 c 0.688,0.896 1.584,2.096 1.952,2.704 l 0.72,-0.976 c -0.4,-0.496 -2.064,-2.448 -2.672,-3.088 v -0.416 h 2.784 v -1.104 h -2.784 z m 4.496,9.616 v -8.816 h 3.568 v 8.816 z m -1.168,-9.952 v 12.416 h 1.168 v -1.312 h 3.568 v 1.2 h 1.184 v -12.304 z"
         style="font-weight:normal;font-family:'Noto Sans CJK SC';-inkscape-font-specification:'Noto Sans CJK SC'"
         id="path1711" />
      <path
         d="m -572.362,733.096 0.96,-0.496 c -1.84,-1.904 -2.976,-4.272 -2.976,-7.12 0,-2.848 1.136,-5.216 2.976,-7.12 l -0.96,-0.496 c -1.92,1.952 -3.184,4.496 -3.184,7.616 0,3.12 1.264,5.664 3.184,7.616 z"
         style="font-weight:normal;font-family:'Noto Sans CJK SC';-inkscape-font-specification:'Noto Sans CJK SC'"
         id="path1713" />
      <path
         d="m -569.85,730.392 q 2.032,-1.632 3.184,-2.672 1.152,-1.056 1.936,-2.192 0.8,-1.152 0.8,-2.256 0,-1.04 -0.512,-1.632 -0.496,-0.608 -1.616,-0.608 -1.088,0 -1.696,0.688 -0.592,0.672 -0.64,1.808 h -1.408 q 0.064,-1.792 1.088,-2.768 1.024,-0.976 2.64,-0.976 1.648,0 2.608,0.912 0.976,0.912 0.976,2.512 0,1.328 -0.8,2.592 -0.784,1.248 -1.792,2.208 -1.008,0.944 -2.576,2.208 h 5.504 v 1.216 h -7.696 z"
         id="path1715" />
      <path
         d="m -554.69798,720.984 h 10.944 v 2.128 h 1.216 v -3.264 h -5.648 c -0.224,-0.544 -0.656,-1.248 -1.072,-1.792 l -1.136,0.384 c 0.304,0.416 0.608,0.944 0.832,1.408 h -6.304 v 3.264 h 1.168 z m 12.32,5.76 h -6.208 v -0.592 c 1.392,-0.736 2.816,-1.808 3.824,-2.832 l -0.816,-0.624 -0.256,0.064 h -7.6 v 1.12 h 6.4 c -0.8,0.704 -1.856,1.424 -2.784,1.872 v 0.992 h -6.24 v 1.136 h 6.24 v 3.424 c 0,0.224 -0.08,0.288 -0.384,0.304 -0.272,0.016 -1.296,0.016 -2.384,-0.016 0.208,0.304 0.448,0.832 0.544,1.168 1.328,0 2.16,-0.016 2.72,-0.208 0.56,-0.176 0.736,-0.528 0.736,-1.232 v -3.44 h 6.208 z"
         style="font-weight:normal;font-family:'Noto Sans CJK SC';-inkscape-font-specification:'Noto Sans CJK SC'"
         id="path1717" />
      <path
         d="m -527.65798,723.784 h -11.92 v 1.152 h 4.176 v 7.808 h 1.232 v -7.808 h 5.296 v 4.128 c 0,0.256 -0.08,0.32 -0.384,0.32 -0.336,0.032 -1.408,0.032 -2.576,-0.016 0.16,0.352 0.336,0.88 0.368,1.232 1.504,0 2.496,0 3.072,-0.192 0.592,-0.192 0.736,-0.592 0.736,-1.312 z m -2.176,-3.792 v -1.824 h -1.232 v 1.824 h -4.272 v -1.824 h -1.2 v 1.824 h -3.712 v 1.136 h 3.712 v 1.808 h 1.2 v -1.808 h 4.272 v 1.808 h 1.232 v -1.808 h 3.712 v -1.136 z"
         style="font-weight:normal;font-family:'Noto Sans CJK SC';-inkscape-font-specification:'Noto Sans CJK SC'"
         id="path1719" />
      <path
         d="m -523.49798,717.864 -0.96,0.496 c 1.84,1.904 2.976,4.272 2.976,7.12 0,2.848 -1.136,5.216 -2.976,7.12 l 0.96,0.496 c 1.92,-1.952 3.184,-4.496 3.184,-7.616 0,-3.12 -1.264,-5.664 -3.184,-7.616 z"
         style="font-weight:normal;font-family:'Noto Sans CJK SC';-inkscape-font-specification:'Noto Sans CJK SC'"
         id="path1721" />
    </g>
  </g>
</svg>
