<?xml version="1.0" encoding="UTF-8" standalone="no"?>
<svg
   xmlns:dc="http://purl.org/dc/elements/1.1/"
   xmlns:cc="http://creativecommons.org/ns#"
   xmlns:rdf="http://www.w3.org/1999/02/22-rdf-syntax-ns#"
   xmlns:svg="http://www.w3.org/2000/svg"
   xmlns="http://www.w3.org/2000/svg"
   xmlns:sodipodi="http://sodipodi.sourceforge.net/DTD/sodipodi-0.dtd"
   xmlns:inkscape="http://www.inkscape.org/namespaces/inkscape"
   width="821"
   height="450"
   viewBox="0 0 821.00001 450.00001"
   id="svg2"
   version="1.1"
   sodipodi:docname="network_kerb.svg"
   inkscape:version="0.92.4 (5da689c313, 2019-01-14)">
  <metadata
     id="metadata43">
    <rdf:RDF>
      <cc:Work
         rdf:about="">
        <dc:format>image/svg+xml</dc:format>
        <dc:type
           rdf:resource="http://purl.org/dc/dcmitype/StillImage" />
      </cc:Work>
    </rdf:RDF>
  </metadata>
  <defs
     id="defs41" />
  <sodipodi:namedview
     pagecolor="#ffffff"
     bordercolor="#666666"
     borderopacity="1"
     objecttolerance="10"
     gridtolerance="10"
     guidetolerance="10"
     inkscape:pageopacity="0"
     inkscape:pageshadow="2"
     inkscape:window-width="1920"
     inkscape:window-height="1027"
     id="namedview39"
     showgrid="false"
     inkscape:zoom="1.3982948"
     inkscape:cx="420.8101"
     inkscape:cy="225"
     inkscape:window-x="-8"
     inkscape:window-y="-8"
     inkscape:window-maximized="1"
     inkscape:current-layer="text3466-1-9" />
  <path
     id="rect3407"
     d="m 99,5.00004 0,440 440,0 160,0 0,-177.14258 -2,0 0,175.14258 -158,0 0,-175.14258 -1.99414,0 0,175.16208 L 101,443.00054 100.994,6.98296 l 436.01172,0 0,165.16211 1.99414,0 0,-165.14453 158,0 0,165.14453 2,0 0,-167.14453 z"
     style="solid-color:#000000;solid-opacity:1;fill:#0d2c40;fill-opacity:1;fill-rule:nonzero;stroke:none" />
  <rect
     y="166"
     x="1"
     height="118"
     width="198"
     id="rect3411-5"
     style="fill:#f7a3d5;stroke:#0d2c40;stroke-width:2" />
  <g
     aria-label="路由器"
     style="font-size:40px;line-height:125%;font-family:sans-serif;letter-spacing:0px;word-spacing:0px"
     id="text3466">
    <path
       d="m 72.253159,226.11946 c 1.4575,-0.88 2.86,-1.98 4.125,-3.245 1.1825,1.1825 2.53,2.3375 4.07,3.245 z m 0.66,7.0675 v -5.28 h 6.875 v 5.28 z m -4.015,-8.7725 h -3.41 v -3.96 h 3.1625 v -0.825 c 0.495,0.33 1.1275,0.9075 1.43,1.21 0.88,-0.9075 1.7325,-1.9525 2.5025,-3.1625 0.6875,1.2375 1.5125,2.53 2.53,3.7675 -1.8425,1.8975 -4.015,3.355 -6.215,4.29 z m -7.315,-10.56 h 5.17 v 4.8125 h -5.17 z m 17.5175,1.65 c -0.6875,1.705 -1.65,3.245 -2.805,4.6475 -1.1275,-1.3475 -2.035,-2.7775 -2.7225,-4.125 l 0.275,-0.5225 z m 1.265,-1.87 -0.3575,0.0825 h -5.3075 c 0.3025,-0.7425 0.605,-1.54 0.88,-2.3375 l -1.9525,-0.4675 c -1.0175,3.3 -2.805,6.38 -4.9775,8.4425 v -7.2875 h -8.8825 v 8.3875 h 3.85 v 11.11 l -2.1175,0.495 v -9.02 h -1.7325 v 9.3775 l -1.4025,0.3025 0.385,1.98 c 2.8875,-0.715 6.7925,-1.65 10.5325,-2.5575 l -0.1925,-1.8425 c -1.21,0.3025 -2.42,0.5775 -3.6025,0.8525 v -4.9225 h 2.8875 c 0.385,0.4125 0.7975,0.9625 0.99,1.375 0.55,-0.2475 1.1,-0.495 1.65,-0.77 v 9.1575 h 1.8975 v -0.99 h 6.875 v 0.9075 h 1.9525 v -9.0475 c 0.3025,0.1375 0.605,0.2475 0.88,0.385 0.275,-0.495 0.8525,-1.2925 1.265,-1.6775 -2.475,-0.935 -4.565,-2.3925 -6.27,-4.0425 1.705,-2.035 3.135,-4.455 4.015,-7.315 z"
       style="font-style:normal;font-variant:normal;font-weight:normal;font-stretch:normal;font-size:27.5px;font-family:'Noto Sans CJK SC';-inkscape-font-specification:'Noto Sans CJK SC';text-align:center;text-anchor:middle;fill:#ffffff"
       id="path848"
       inkscape:connector-curvature="0" />
    <path
       d="m 99.423159,232.33446 v -6.105 h 7.562501 v 6.105 z m -9.4325,-6.105 h 7.3975 v 6.105 h -7.3975 z m 7.3975,-7.9475 v 5.94 h -7.3975 v -5.94 z m 9.597501,0 v 5.94 h -7.562501 v -5.94 z m -7.562501,-2.035 v -5.28 h -2.035 v 5.28 h -9.4325 v 19.8 h 2.035 v -1.705 h 16.995001 v 1.5675 h 2.0625 v -19.6625 z"
       style="font-style:normal;font-variant:normal;font-weight:normal;font-stretch:normal;font-size:27.5px;font-family:'Noto Sans CJK SC';-inkscape-font-specification:'Noto Sans CJK SC';text-align:center;text-anchor:middle;fill:#ffffff"
       id="path850"
       inkscape:connector-curvature="0" />
    <path
       d="m 134.26566,217.78696 h -5.0875 v -3.8775 h 5.0875 z m 1.98,-5.6375 h -8.965 v 7.3975 h 8.965 z m -7.1775,21.285 v -4.0425 h 4.8675 v 4.0425 z m -6.4075,0 h -4.565 v -4.0425 h 4.565 z m -0.275,-15.6475 h -4.8675 v -3.8775 h 4.8675 z m 15.8675,6.3525 v -1.815 h -4.7575 l 0.66,-0.6875 c -0.9075,-0.715 -2.64,-1.5675 -4.0425,-2.035 l -1.0725,1.0725 c 1.1,0.4125 2.365,1.045 3.2725,1.65 h -7.6725 c 0.6325,-0.88 1.1825,-1.7875 1.65,-2.695 l -1.9525,-0.385 v -7.095 h -8.6625 v 7.3975 h 8.36 c -0.44,0.9075 -1.045,1.87 -1.8425,2.7775 h -8.47 v 1.815 h 6.71 c -1.8425,1.595 -4.235,3.0525 -7.205,4.1525 0.385,0.33 0.935,1.0725 1.1,1.54 0.66,-0.2475 1.265,-0.5225 1.87,-0.7975 v 6.985 h 1.8975 v -0.7975 h 4.565 v 0.66 h 1.9525 v -8.2775 h -5.8025 c 1.705,-1.045 3.135,-2.2275 4.3175,-3.465 h 5.1425 c 1.2375,1.2925 2.8325,2.5025 4.5925,3.465 h -5.6925 v 8.415 h 1.8975 v -0.7975 h 4.8675 v 0.66 h 1.98 v -6.875 c 0.5225,0.1925 1.045,0.3575 1.5675,0.5225 0.275,-0.495 0.825,-1.2375 1.2925,-1.6225 -2.8875,-0.715 -5.885,-2.09 -7.9475,-3.7675 z"
       style="font-style:normal;font-variant:normal;font-weight:normal;font-stretch:normal;font-size:27.5px;font-family:'Noto Sans CJK SC';-inkscape-font-specification:'Noto Sans CJK SC';text-align:center;text-anchor:middle;fill:#ffffff"
       id="path852"
       inkscape:connector-curvature="0" />
  </g>
  <rect
     y="66"
     x="415"
     height="118"
     width="198"
     id="rect3411-5-3"
     style="fill:#00c081;fill-opacity:1;stroke:#0d2c40;stroke-width:2" />
  <rect
     y="66"
     x="622"
     height="118"
     width="198"
     id="rect3411-5-3-5"
     style="fill:#00c081;fill-opacity:1;stroke:#0d2c40;stroke-width:2" />
  <rect
     y="266"
     x="415"
     height="118"
     width="198"
     id="rect3411-5-3-6"
     style="fill:#00b2e2;fill-opacity:1;stroke:#0d2c40;stroke-width:2" />
  <rect
     y="266"
     x="622"
     height="118"
     width="198"
     id="rect3411-5-3-2"
     style="fill:#00b2e2;fill-opacity:1;stroke:#0d2c40;stroke-width:2" />
  <g
     aria-label="NTP、DNS"
     style="font-size:40px;line-height:125%;font-family:sans-serif;letter-spacing:0px;word-spacing:0px"
     id="text3466-1-9">
    <path
       d="m 466.30139,133.18422 h -2.60498 l -10.72876,-16.47583 h -0.10742 q 0.21484,2.90039 0.21484,5.31738 v 11.15845 h -2.10815 v -19.63135 h 2.57812 l 10.70191,16.40869 h 0.10742 q -0.0269,-0.36255 -0.12085,-2.32299 -0.094,-1.97388 -0.0671,-2.81983 v -11.26587 h 2.13501 z"
       style="font-size:27.5px;font-family:'Open Sans';text-align:center;text-anchor:middle;fill:#ffffff;fill-opacity:1"
       id="path1039"
       inkscape:connector-curvature="0" />
    <path
       d="m 477.74182,133.18422 h -2.28271 v -17.60376 h -6.21704 v -2.02759 h 14.71679 v 2.02759 h -6.21704 z"
       style="font-size:27.5px;font-family:'Open Sans';text-align:center;text-anchor:middle;fill:#ffffff;fill-opacity:1"
       id="path1041"
       inkscape:connector-curvature="0" />
    <path
       d="m 499.34705,119.27309 q 0,2.98095 -2.04102,4.59228 -2.02759,1.5979 -5.81421,1.5979 h -2.30957 v 7.72095 h -2.28271 v -19.63135 h 5.08911 q 7.3584,0 7.3584,5.72022 z m -10.1648,4.22973 h 2.05444 q 3.03467,0 4.39087,-0.98022 1.3562,-0.98023 1.3562,-3.14209 0,-1.94702 -1.27563,-2.90039 -1.27563,-0.95337 -3.97461,-0.95337 h -2.55127 z"
       style="font-size:27.5px;font-family:'Open Sans';text-align:center;text-anchor:middle;fill:#ffffff;fill-opacity:1"
       id="path1043"
       inkscape:connector-curvature="0" />
    <path
       d="m 510.12103,133.12922 c -1.705,-2.0075 -4.18,-4.51 -6.16,-6.105 l -1.7875,1.5675 c 1.9525,1.595 4.3175,3.9325 6.0775,6.1325 z"
       style="font-style:normal;font-variant:normal;font-weight:normal;font-stretch:normal;font-family:'Noto Sans CJK SC';-inkscape-font-specification:'Noto Sans CJK SC';fill:#e3f8f1;fill-opacity:1"
       id="path1045"
       inkscape:connector-curvature="0" />
    <path
       d="m 546.61267,123.18056 q 0,4.86084 -2.64526,7.43896 -2.63184,2.5647 -7.58667,2.5647 h -5.43824 v -19.63135 h 6.01563 q 4.57886,0 7.1167,2.53784 2.53784,2.53785 2.53784,7.08985 z m -2.41699,0.0806 q 0,-3.84033 -1.9336,-5.78735 -1.92016,-1.94702 -5.72021,-1.94702 h -3.31665 v 15.68359 h 2.77954 q 4.08203,0 6.13648,-2.00073 2.05444,-2.01416 2.05444,-5.94849 z"
       style="font-size:27.5px;font-family:'Open Sans';text-align:center;text-anchor:middle;fill:#ffffff;fill-opacity:1"
       id="path1047"
       inkscape:connector-curvature="0" />
    <path
       d="m 566.31116,133.18422 h -2.60498 L 552.97742,116.70839 H 552.87 q 0.21484,2.90039 0.21484,5.31738 v 11.15845 h -2.10816 v -19.63135 h 2.57813 l 10.7019,16.40869 h 0.10743 q -0.0269,-0.36255 -0.12085,-2.32299 -0.094,-1.97388 -0.0671,-2.81983 v -11.26587 h 2.13501 z"
       style="font-size:27.5px;font-family:'Open Sans';text-align:center;text-anchor:middle;fill:#ffffff;fill-opacity:1"
       id="path1049"
       inkscape:connector-curvature="0" />
    <path
       d="m 582.78699,127.96083 q 0,2.59155 -1.87989,4.04175 -1.87988,1.45019 -5.10253,1.45019 -3.49122,0 -5.3711,-0.89965 v -2.20215 q 1.2085,0.51025 2.63184,0.80566 1.42334,0.29541 2.81982,0.29541 2.28272,0 3.4375,-0.85937 1.15479,-0.87281 1.15479,-2.417 0,-1.0205 -0.41626,-1.66503 -0.40283,-0.65796 -1.36963,-1.2085 -0.95337,-0.55054 -2.91382,-1.24878 -2.73926,-0.98022 -3.9209,-2.323 -1.16821,-1.34277 -1.16821,-3.50464 0,-2.26928 1.70532,-3.61206 1.70532,-1.34277 4.51172,-1.34277 2.92725,0 5.38452,1.07422 l -0.71167,1.9873 q -2.43042,-1.02051 -4.72656,-1.02051 -1.81275,0 -2.83325,0.77881 -1.02051,0.77881 -1.02051,2.16187 0,1.02051 0.37598,1.67847 0.37597,0.64453 1.2622,1.19506 0.89966,0.53711 2.73926,1.19507 3.08838,1.10108 4.24316,2.36328 1.16822,1.26221 1.16822,3.27637 z"
       style="font-size:27.5px;font-family:'Open Sans';text-align:center;text-anchor:middle;fill:#ffffff;fill-opacity:1"
       id="path1051"
       inkscape:connector-curvature="0" />
  </g>
  <g
     aria-label="Kerberos"
     style="font-size:40px;line-height:125%;font-family:sans-serif;letter-spacing:0px;word-spacing:0px"
     id="text3466-1-6">
    <path
       d="m 678.79663,133.31252 h -2.68555 l -7.15698,-9.52027 -2.05444,1.82617 v 7.6941 h -2.28272 v -19.63135 h 2.28272 v 9.73511 l 8.90259,-9.73511 h 2.69897 l -7.89551,8.52661 z"
       style="font-size:27.5px;font-family:'Open Sans';fill:#ffffff;fill-opacity:1"
       id="path870"
       inkscape:connector-curvature="0" />
    <path
       d="m 687.36353,133.58107 q -3.26294,0 -5.15625,-1.9873 -1.87989,-1.98731 -1.87989,-5.5188 0,-3.55835 1.74561,-5.65308 1.75903,-2.09473 4.71313,-2.09473 2.76612,0 4.37744,1.82618 1.61133,1.81274 1.61133,4.7937 v 1.40991 h -10.13794 q 0.0671,2.59155 1.30249,3.93433 1.24878,1.34277 3.50464,1.34277 2.37671,0 4.69971,-0.99365 v 1.9873 q -1.18164,0.51025 -2.24243,0.7251 -1.04737,0.22827 -2.53784,0.22827 z m -0.60425,-13.38745 q -1.77246,0 -2.83325,1.15478 -1.04737,1.15479 -1.23536,3.1958 h 7.6941 q 0,-2.10815 -0.93995,-3.22265 -0.93994,-1.12793 -2.68554,-1.12793 z"
       style="font-size:27.5px;font-family:'Open Sans';fill:#ffffff;fill-opacity:1"
       id="path872"
       inkscape:connector-curvature="0" />
    <path
       d="m 703.27539,118.32716 q 0.98023,0 1.75903,0.16114 l -0.30883,2.06787 q -0.91309,-0.20142 -1.61133,-0.20142 -1.78589,0 -3.06153,1.4502 -1.2622,1.45019 -1.2622,3.61206 v 7.89551 h -2.22901 v -14.7168 h 1.8396 l 0.25513,2.72583 h 0.10742 q 0.81909,-1.43677 1.97388,-2.21558 1.15478,-0.77881 2.53784,-0.77881 z"
       style="font-size:27.5px;font-family:'Open Sans';fill:#ffffff;fill-opacity:1"
       id="path874"
       inkscape:connector-curvature="0" />
    <path
       d="m 714.63525,118.35402 q 2.90039,0 4.49829,1.9873 1.61133,1.97388 1.61133,5.59937 0,3.62549 -1.62475,5.63965 -1.61133,2.00073 -4.48487,2.00073 -1.43676,0 -2.63183,-0.52368 -1.18164,-0.53711 -1.98731,-1.63819 h -0.16113 l -0.46997,1.89332 h -1.5979 v -20.89356 h 2.229 v 5.07568 q 0,1.70533 -0.10742,3.06153 h 0.10742 q 1.55762,-2.20215 4.61914,-2.20215 z m -0.32226,1.86645 q -2.28272,0 -3.2898,1.31592 -1.00708,1.30249 -1.00708,4.4043 0,3.10181 1.03394,4.44458 1.03393,1.32934 3.31665,1.32934 2.05444,0 3.06152,-1.49047 1.00708,-1.50391 1.00708,-4.31031 0,-2.87353 -1.00708,-4.28344 -1.00708,-1.40992 -3.11523,-1.40992 z"
       style="font-size:27.5px;font-family:'Open Sans';fill:#ffffff;fill-opacity:1"
       id="path876"
       inkscape:connector-curvature="0" />
    <path
       d="m 730.86938,133.58107 q -3.26293,0 -5.15625,-1.9873 -1.87988,-1.98731 -1.87988,-5.5188 0,-3.55835 1.74561,-5.65308 1.75903,-2.09473 4.71313,-2.09473 2.76612,0 4.37744,1.82618 1.61133,1.81274 1.61133,4.7937 v 1.40991 h -10.13794 q 0.0671,2.59155 1.30249,3.93433 1.24878,1.34277 3.50464,1.34277 2.37671,0 4.69971,-0.99365 v 1.9873 q -1.18164,0.51025 -2.24243,0.7251 -1.04737,0.22827 -2.53785,0.22827 z m -0.60424,-13.38745 q -1.77246,0 -2.83326,1.15478 -1.04736,1.15479 -1.23535,3.1958 h 7.69409 q 0,-2.10815 -0.93994,-3.22265 -0.93994,-1.12793 -2.68554,-1.12793 z"
       style="font-size:27.5px;font-family:'Open Sans';fill:#ffffff;fill-opacity:1"
       id="path878"
       inkscape:connector-curvature="0" />
    <path
       d="m 746.78125,118.32716 q 0.98022,0 1.75903,0.16114 l -0.30883,2.06787 q -0.91309,-0.20142 -1.61133,-0.20142 -1.78589,0 -3.06153,1.4502 -1.2622,1.45019 -1.2622,3.61206 v 7.89551 h -2.22901 v -14.7168 h 1.8396 l 0.25513,2.72583 h 0.10742 q 0.81909,-1.43677 1.97388,-2.21558 1.15478,-0.77881 2.53784,-0.77881 z"
       style="font-size:27.5px;font-family:'Open Sans';fill:#ffffff;fill-opacity:1"
       id="path880"
       inkscape:connector-curvature="0" />
    <path
       d="m 763.99561,125.94069 q 0,3.59863 -1.81275,5.62622 -1.81274,2.01416 -5.00854,2.01416 -1.97388,0 -3.50464,-0.92651 -1.53076,-0.92652 -2.36328,-2.6587 -0.83252,-1.73217 -0.83252,-4.05517 0,-3.59863 1.79931,-5.59937 1.79932,-2.01416 4.99512,-2.01416 3.08838,0 4.90112,2.05445 1.82618,2.05444 1.82618,5.55908 z m -11.21216,0 q 0,2.81982 1.12793,4.29687 1.12793,1.47705 3.31665,1.47705 2.18872,0 3.31665,-1.46362 1.14136,-1.47705 1.14136,-4.3103 0,-2.8064 -1.14136,-4.25659 -1.12793,-1.46363 -3.34351,-1.46363 -2.18872,0 -3.30322,1.43677 -1.1145,1.43677 -1.1145,4.28345 z"
       style="font-size:27.5px;font-family:'Open Sans';fill:#ffffff;fill-opacity:1"
       id="path882"
       inkscape:connector-curvature="0" />
    <path
       d="m 777.38306,129.29762 q 0,2.05445 -1.53077,3.16895 -1.53076,1.1145 -4.29687,1.1145 -2.92725,0 -4.56543,-0.92651 v -2.06787 q 1.06079,0.5371 2.26929,0.84594 1.22192,0.30884 2.34985,0.30884 1.74561,0 2.68555,-0.55054 0.93994,-0.56396 0.93994,-1.70532 0,-0.85937 -0.75195,-1.46362 -0.73853,-0.61768 -2.90039,-1.4502 -2.05445,-0.76538 -2.92725,-1.32934 -0.85938,-0.5774 -1.28906,-1.30249 -0.41626,-0.7251 -0.41626,-1.73218 0,-1.79932 1.46362,-2.83325 1.46362,-1.04737 4.01489,-1.04737 2.37671,0 4.646,0.9668 l -0.79224,1.81274 q -2.21557,-0.91308 -4.01489,-0.91308 -1.58447,0 -2.39014,0.49682 -0.80566,0.49683 -0.80566,1.36963 0,0.59082 0.29541,1.00708 0.30884,0.41626 0.98022,0.79224 0.67139,0.37598 2.57813,1.08765 2.61841,0.95337 3.53149,1.92016 0.92652,0.9668 0.92652,2.43042 z"
       style="font-size:27.5px;font-family:'Open Sans';fill:#ffffff;fill-opacity:1"
       id="path884"
       inkscape:connector-curvature="0" />
  </g>
  <g
     aria-label=".1"
     style="font-size:40px;line-height:125%;font-family:sans-serif;letter-spacing:0px;word-spacing:0px"
     id="text3466-1-79">
    <path
       d="m 114.99467,313.48734 q 0,-0.89966 0.40283,-1.35621 0.41626,-0.46997 1.18164,-0.46997 0.77881,0 1.2085,0.46997 0.44311,0.45655 0.44311,1.35621 0,0.8728 -0.44311,1.34277 -0.44312,0.46997 -1.2085,0.46997 -0.68481,0 -1.14136,-0.41626 -0.44311,-0.42969 -0.44311,-1.39648 z"
       style="font-size:27.5px;font-family:'Open Sans';fill:#0d2c40"
       id="path930"
       inkscape:connector-curvature="0" />
    <path
       d="m 129.85917,314.91068 h -2.17529 v -13.9917 q 0,-1.74561 0.10742,-3.30323 -0.28198,0.28199 -0.63111,0.59082 -0.34912,0.30884 -3.1958,2.61841 l -1.18164,-1.53076 5.19654,-4.01489 h 1.87988 z"
       style="font-size:27.5px;font-family:'Open Sans';fill:#0d2c40"
       id="path932"
       inkscape:connector-curvature="0" />
  </g>
  <g
     aria-label="192.168.2.0/24"
     style="font-size:40px;line-height:125%;font-family:sans-serif;letter-spacing:0px;word-spacing:0px"
     id="text3466-1-0">
    <path
       d="m 122.0712,432.51025 h -2.1753 v -13.9917 q 0,-1.7456 0.10743,-3.30322 -0.28199,0.28198 -0.63111,0.59082 -0.34912,0.30884 -3.1958,2.61841 l -1.18164,-1.53076 5.19653,-4.01489 h 1.87989 z"
       style="font-size:27.5px;font-family:'Open Sans';fill:#0d2c40"
       id="path935"
       inkscape:connector-curvature="0" />
    <path
       d="m 142.4545,421.25781 q 0,11.521 -8.91602,11.521 -1.55761,0 -2.4707,-0.26856 v -1.92016 q 1.07422,0.34912 2.44385,0.34912 3.22265,0 4.86084,-1.98731 1.65161,-2.00073 1.79931,-6.12304 h -0.16113 q -0.73852,1.1145 -1.96045,1.70532 -1.22192,0.57739 -2.75268,0.57739 -2.60498,0 -4.13575,-1.55761 -1.53076,-1.55762 -1.53076,-4.35059 0,-3.06152 1.70532,-4.83399 1.71875,-1.77246 4.51172,-1.77246 2.00074,0 3.49121,1.03394 1.50391,1.02051 2.30957,2.99438 0.80567,1.96045 0.80567,4.63257 z m -6.60645,-6.75415 q -1.92016,0 -2.96753,1.23535 -1.04736,1.23536 -1.04736,3.4375 0,1.9336 0.9668,3.0481 0.96679,1.10107 2.94067,1.10107 1.22192,0 2.24243,-0.49682 1.03394,-0.49683 1.62476,-1.3562 0.59082,-0.85938 0.59082,-1.79932 0,-1.40991 -0.55054,-2.60498 -0.55054,-1.19507 -1.54419,-1.87988 -0.98022,-0.68482 -2.25586,-0.68482 z"
       style="font-size:27.5px;font-family:'Open Sans';fill:#0d2c40"
       id="path937"
       inkscape:connector-curvature="0" />
    <path
       d="m 158.1918,432.51025 h -12.90405 v -1.92016 l 5.16968,-5.19654 q 2.36328,-2.39013 3.11523,-3.41064 0.75196,-1.02051 1.12793,-1.9873 0.37598,-0.9668 0.37598,-2.0813 0,-1.57105 -0.95337,-2.48413 -0.95337,-0.92652 -2.64526,-0.92652 -1.22193,0 -2.323,0.40283 -1.08765,0.40284 -2.43042,1.46363 l -1.18164,-1.51734 q 2.7124,-2.25586 5.9082,-2.25586 2.76611,0 4.33716,1.42334 1.57104,1.40992 1.57104,3.80005 0,1.86646 -1.04736,3.69263 -1.04736,1.82617 -3.9209,4.61914 l -4.29687,4.20288 v 0.10742 h 10.09765 z"
       style="font-size:27.5px;font-family:'Open Sans';fill:#0d2c40"
       id="path939"
       inkscape:connector-curvature="0" />
    <path
       d="m 161.7233,431.08691 q 0,-0.89965 0.40283,-1.3562 0.41626,-0.46997 1.18164,-0.46997 0.77881,0 1.2085,0.46997 0.44311,0.45655 0.44311,1.3562 0,0.87281 -0.44311,1.34278 -0.44312,0.46997 -1.2085,0.46997 -0.68481,0 -1.14136,-0.41626 -0.44311,-0.42969 -0.44311,-1.39649 z"
       style="font-size:27.5px;font-family:'Open Sans';fill:#0d2c40"
       id="path941"
       inkscape:connector-curvature="0" />
    <path
       d="m 176.5878,432.51025 h -2.17529 v -13.9917 q 0,-1.7456 0.10742,-3.30322 -0.28198,0.28198 -0.63111,0.59082 -0.34912,0.30884 -3.1958,2.61841 l -1.18164,-1.53076 5.19654,-4.01489 h 1.87988 z"
       style="font-size:27.5px;font-family:'Open Sans';fill:#0d2c40"
       id="path943"
       inkscape:connector-curvature="0" />
    <path
       d="m 184.29532,424.11792 q 0,-5.78735 2.24243,-8.64746 2.25586,-2.87354 6.66016,-2.87354 1.51733,0 2.39013,0.25513 v 1.92017 q -1.03393,-0.3357 -2.36328,-0.3357 -3.15552,0 -4.82055,1.97388 -1.66504,1.96045 -1.82618,6.17676 h 0.16114 q 1.47705,-2.30957 4.67285,-2.30957 2.64526,0 4.1626,1.5979 1.53076,1.5979 1.53076,4.33716 0,3.06152 -1.67847,4.82055 -1.66504,1.74561 -4.51172,1.74561 -3.04809,0 -4.83398,-2.28272 -1.78589,-2.29614 -1.78589,-6.37817 z m 6.59302,6.76758 q 1.90673,0 2.9541,-1.19507 1.06079,-1.2085 1.06079,-3.47778 0,-1.94703 -0.98023,-3.06153 -0.98022,-1.1145 -2.92724,-1.1145 -1.2085,0 -2.21558,0.49683 -1.00708,0.49682 -1.61133,1.36963 -0.59082,0.8728 -0.59082,1.81274 0,1.38306 0.53711,2.57813 0.53711,1.19506 1.51734,1.89331 0.99365,0.69824 2.25586,0.69824 z"
       style="font-size:27.5px;font-family:'Open Sans';fill:#0d2c40"
       id="path945"
       inkscape:connector-curvature="0" />
    <path
       d="m 206.30338,412.59692 q 2.68554,0 4.25659,1.24878 1.57104,1.24878 1.57104,3.45093 0,1.4502 -0.89966,2.64526 -0.89965,1.19507 -2.87353,2.1753 2.39014,1.14135 3.39722,2.40356 1.00708,1.24878 1.00708,2.90039 0,2.44385 -1.70533,3.90747 -1.70532,1.4502 -4.67285,1.4502 -3.14209,0 -4.83398,-1.36963 -1.6919,-1.38306 -1.6919,-3.90747 0,-3.37036 4.10889,-5.25025 -1.85303,-1.04736 -2.65869,-2.25585 -0.80567,-1.22193 -0.80567,-2.72583 0,-2.13501 1.57105,-3.39722 1.58447,-1.27564 4.22974,-1.27564 z m -4.24317,14.9585 q 0,1.61133 1.1145,2.51099 1.12793,0.89965 3.15552,0.89965 2.00073,0 3.11524,-0.93994 1.1145,-0.93994 1.1145,-2.57812 0,-1.30249 -1.04737,-2.30957 -1.04736,-1.02051 -3.65234,-1.97388 -2.00073,0.85938 -2.90039,1.90674 -0.89966,1.03393 -0.89966,2.48413 z m 4.21631,-13.14575 q -1.67847,0 -2.63184,0.80566 -0.95337,0.80567 -0.95337,2.14844 0,1.23535 0.79224,2.12158 0.79224,0.88623 2.92725,1.77246 1.92016,-0.80566 2.7124,-1.73218 0.80566,-0.92651 0.80566,-2.16186 0,-1.3562 -0.98022,-2.14844 -0.9668,-0.80566 -2.67212,-0.80566 z"
       style="font-size:27.5px;font-family:'Open Sans';fill:#0d2c40"
       id="path947"
       inkscape:connector-curvature="0" />
    <path
       d="m 216.2399,431.08691 q 0,-0.89965 0.40283,-1.3562 0.41626,-0.46997 1.18164,-0.46997 0.77881,0 1.2085,0.46997 0.44311,0.45655 0.44311,1.3562 0,0.87281 -0.44311,1.34278 -0.44312,0.46997 -1.2085,0.46997 -0.68481,0 -1.14136,-0.41626 -0.44311,-0.42969 -0.44311,-1.39649 z"
       style="font-size:27.5px;font-family:'Open Sans';fill:#0d2c40"
       id="path949"
       inkscape:connector-curvature="0" />
    <path
       d="m 235.7504,432.51025 h -12.90406 v -1.92016 l 5.16968,-5.19654 q 2.36328,-2.39013 3.11524,-3.41064 0.75195,-1.02051 1.12793,-1.9873 0.37597,-0.9668 0.37597,-2.0813 0,-1.57105 -0.95337,-2.48413 -0.95337,-0.92652 -2.64526,-0.92652 -1.22192,0 -2.323,0.40283 -1.08764,0.40284 -2.43042,1.46363 l -1.18164,-1.51734 q 2.7124,-2.25586 5.9082,-2.25586 2.76612,0 4.33716,1.42334 1.57105,1.40992 1.57105,3.80005 0,1.86646 -1.04737,3.69263 -1.04736,1.82617 -3.92089,4.61914 l -4.29688,4.20288 v 0.10742 h 10.09766 z"
       style="font-size:27.5px;font-family:'Open Sans';fill:#0d2c40"
       id="path951"
       inkscape:connector-curvature="0" />
    <path
       d="m 239.28189,431.08691 q 0,-0.89965 0.40283,-1.3562 0.41626,-0.46997 1.18164,-0.46997 0.77881,0 1.2085,0.46997 0.44311,0.45655 0.44311,1.3562 0,0.87281 -0.44311,1.34278 -0.44312,0.46997 -1.2085,0.46997 -0.68481,0 -1.14135,-0.41626 -0.44312,-0.42969 -0.44312,-1.39649 z"
       style="font-size:27.5px;font-family:'Open Sans';fill:#0d2c40"
       id="path953"
       inkscape:connector-curvature="0" />
    <path
       d="m 258.89981,422.66772 q 0,5.08912 -1.61133,7.6001 -1.5979,2.51099 -4.90112,2.51099 -3.16895,0 -4.82056,-2.5647 -1.65161,-2.57812 -1.65161,-7.54639 0,-5.12939 1.5979,-7.61352 1.5979,-2.48413 4.87427,-2.48413 3.1958,0 4.84741,2.59155 1.66504,2.59155 1.66504,7.5061 z m -10.72876,0 q 0,4.28345 1.00708,6.2439 1.00708,1.94702 3.20923,1.94702 2.229,0 3.22266,-1.97387 1.00708,-1.98731 1.00708,-6.21705 0,-4.22973 -1.00708,-6.19018 -0.99366,-1.97388 -3.22266,-1.97388 -2.20215,0 -3.20923,1.94702 -1.00708,1.9336 -1.00708,6.21704 z"
       style="font-size:27.5px;font-family:'Open Sans';fill:#0d2c40"
       id="path955"
       inkscape:connector-curvature="0" />
    <path
       d="m 270.09854,412.87891 -7.31811,19.63134 h -2.22901 l 7.31812,-19.63134 z"
       style="font-size:27.5px;font-family:'Open Sans';fill:#0d2c40"
       id="path957"
       inkscape:connector-curvature="0" />
    <path
       d="M 284.62735,432.51025 H 271.7233 v -1.92016 l 5.16967,-5.19654 q 2.36329,-2.39013 3.11524,-3.41064 0.75195,-1.02051 1.12793,-1.9873 0.37598,-0.9668 0.37598,-2.0813 0,-1.57105 -0.95337,-2.48413 -0.95337,-0.92652 -2.64527,-0.92652 -1.22192,0 -2.323,0.40283 -1.08764,0.40284 -2.43042,1.46363 l -1.18164,-1.51734 q 2.71241,-2.25586 5.90821,-2.25586 2.76611,0 4.33716,1.42334 1.57104,1.40992 1.57104,3.80005 0,1.86646 -1.04736,3.69263 -1.04737,1.82617 -3.9209,4.61914 l -4.29688,4.20288 v 0.10742 h 10.09766 z"
       style="font-size:27.5px;font-family:'Open Sans';fill:#0d2c40"
       id="path959"
       inkscape:connector-curvature="0" />
    <path
       d="m 301.29117,427.99854 h -2.91382 v 4.51171 h -2.13501 v -4.51171 h -9.54712 v -1.94703 l 9.31885,-13.28003 h 2.36328 v 13.19947 h 2.91382 z m -5.04883,-2.02759 v -6.52588 q 0,-1.92017 0.13428,-4.33716 h -0.10742 q -0.64454,1.28906 -1.2085,2.13501 l -6.13648,8.72803 z"
       style="font-size:27.5px;font-family:'Open Sans';fill:#0d2c40"
       id="path961"
       inkscape:connector-curvature="0" />
  </g>
  <g
     aria-label=".100"
     style="font-size:40px;line-height:125%;font-family:sans-serif;letter-spacing:0px;word-spacing:0px"
     id="text3466-1-75">
    <path
       d="m 414,413.75754 q 0,-0.89966 0.40283,-1.3562 0.41626,-0.46997 1.18164,-0.46997 0.77881,0 1.2085,0.46997 0.44311,0.45654 0.44311,1.3562 0,0.8728 -0.44311,1.34277 -0.44312,0.46997 -1.2085,0.46997 -0.68481,0 -1.14135,-0.41626 Q 414,414.72433 414,413.75754 Z"
       style="font-size:27.5px;font-family:'Open Sans';fill:#0d2c40"
       id="path982"
       inkscape:connector-curvature="0" />
    <path
       d="m 428.8645,415.18088 h -2.17529 v -13.9917 q 0,-1.74561 0.10742,-3.30322 -0.28198,0.28198 -0.6311,0.59082 -0.34912,0.30883 -3.1958,2.6184 l -1.18164,-1.53076 5.19653,-4.01489 h 1.87988 z"
       style="font-size:27.5px;font-family:'Open Sans';fill:#0d2c40"
       id="path984"
       inkscape:connector-curvature="0" />
    <path
       d="m 449.35522,405.33835 q 0,5.08911 -1.61132,7.6001 -1.5979,2.51098 -4.90113,2.51098 -3.16894,0 -4.82055,-2.56469 -1.65161,-2.57813 -1.65161,-7.54639 0,-5.1294 1.5979,-7.61353 1.5979,-2.48413 4.87426,-2.48413 3.1958,0 4.84742,2.59155 1.66503,2.59156 1.66503,7.50611 z m -10.72876,0 q 0,4.28345 1.00708,6.24389 1.00708,1.94703 3.20923,1.94703 2.22901,0 3.22266,-1.97388 1.00708,-1.98731 1.00708,-6.21704 0,-4.22974 -1.00708,-6.19019 -0.99365,-1.97387 -3.22266,-1.97387 -2.20215,0 -3.20923,1.94702 -1.00708,1.93359 -1.00708,6.21704 z"
       style="font-size:27.5px;font-family:'Open Sans';fill:#0d2c40"
       id="path986"
       inkscape:connector-curvature="0" />
    <path
       d="m 465.09253,405.33835 q 0,5.08911 -1.61133,7.6001 -1.5979,2.51098 -4.90112,2.51098 -3.16895,0 -4.82056,-2.56469 -1.65161,-2.57813 -1.65161,-7.54639 0,-5.1294 1.5979,-7.61353 1.5979,-2.48413 4.87427,-2.48413 3.1958,0 4.84741,2.59155 1.66504,2.59156 1.66504,7.50611 z m -10.72876,0 q 0,4.28345 1.00708,6.24389 1.00708,1.94703 3.20923,1.94703 2.229,0 3.22265,-1.97388 1.00708,-1.98731 1.00708,-6.21704 0,-4.22974 -1.00708,-6.19019 -0.99365,-1.97387 -3.22265,-1.97387 -2.20215,0 -3.20923,1.94702 -1.00708,1.93359 -1.00708,6.21704 z"
       style="font-size:27.5px;font-family:'Open Sans';fill:#0d2c40"
       id="path988"
       inkscape:connector-curvature="0" />
  </g>
  <g
     aria-label="Venus"
     style="font-size:40px;line-height:125%;font-family:sans-serif;letter-spacing:0px;word-spacing:0px"
     id="text3466-1-7">
    <path
       d="m 696.21912,299.25229 h 2.45727 l -7.07641,19.63135 h -2.25586 l -7.03614,-19.63135 h 2.417 l 4.51171,12.70264 q 0.77881,2.18872 1.23536,4.25659 0.48339,-2.1753 1.2622,-4.33716 z"
       style="font-size:27.5px;font-family:'Open Sans';fill:#ffffff;fill-opacity:1"
       id="path1017"
       inkscape:connector-curvature="0" />
    <path
       d="m 707.27014,319.15219 q -3.26294,0 -5.15625,-1.9873 -1.87988,-1.98731 -1.87988,-5.5188 0,-3.55835 1.7456,-5.65308 1.75904,-2.09473 4.71314,-2.09473 2.76611,0 4.37744,1.82618 1.61133,1.81274 1.61133,4.7937 v 1.40991 h -10.13794 q 0.0671,2.59155 1.30249,3.93433 1.24878,1.34277 3.50464,1.34277 2.37671,0 4.69971,-0.99365 v 1.9873 q -1.18165,0.51026 -2.24244,0.7251 -1.04736,0.22827 -2.53784,0.22827 z m -0.60425,-13.38745 q -1.77246,0 -2.83325,1.15479 -1.04736,1.15478 -1.23535,3.1958 h 7.69409 q 0,-2.10816 -0.93994,-3.22266 -0.93994,-1.12793 -2.68555,-1.12793 z"
       style="font-size:27.5px;font-family:'Open Sans';fill:#ffffff;fill-opacity:1"
       id="path1019"
       inkscape:connector-curvature="0" />
    <path
       d="m 726.53894,318.88364 v -9.52027 q 0,-1.79931 -0.81909,-2.68554 -0.81909,-0.88623 -2.5647,-0.88623 -2.30957,0 -3.38379,1.24877 -1.07422,1.24878 -1.07422,4.12232 v 7.72095 h -2.229 v -14.7168 h 1.81274 l 0.36255,2.01416 h 0.10742 q 0.68482,-1.08765 1.92017,-1.67847 1.23535,-0.60425 2.75269,-0.60425 2.65869,0 4.00146,1.28907 1.34277,1.27563 1.34277,4.09546 v 9.60083 z"
       style="font-size:27.5px;font-family:'Open Sans';fill:#ffffff;fill-opacity:1"
       id="path1021"
       inkscape:connector-curvature="0" />
    <path
       d="m 735.4281,304.16684 v 9.54712 q 0,1.79932 0.81909,2.68555 0.81909,0.88623 2.5647,0.88623 2.30957,0 3.37036,-1.26221 1.07422,-1.26221 1.07422,-4.12232 v -7.73437 h 2.229 v 14.7168 h -1.8396 l -0.32226,-1.97388 h -0.12085 q -0.68482,1.08765 -1.90674,1.66504 -1.2085,0.57739 -2.76611,0.57739 -2.68555,0 -4.02832,-1.27563 -1.32935,-1.27564 -1.32935,-4.08203 v -9.62769 z"
       style="font-size:27.5px;font-family:'Open Sans';fill:#ffffff;fill-opacity:1"
       id="path1023"
       inkscape:connector-curvature="0" />
    <path
       d="m 759.69202,314.86874 q 0,2.05445 -1.53077,3.16895 -1.53076,1.1145 -4.29687,1.1145 -2.92725,0 -4.56543,-0.92651 v -2.06787 q 1.06079,0.53711 2.26929,0.84594 1.22192,0.30884 2.34985,0.30884 1.74561,0 2.68555,-0.55054 0.93994,-0.56396 0.93994,-1.70532 0,-0.85937 -0.75195,-1.46362 -0.73853,-0.61768 -2.90039,-1.4502 -2.05445,-0.76538 -2.92725,-1.32934 -0.85938,-0.57739 -1.28906,-1.30249 -0.41626,-0.7251 -0.41626,-1.73218 0,-1.79932 1.46362,-2.83325 1.46362,-1.04737 4.01489,-1.04737 2.37671,0 4.646,0.9668 l -0.79224,1.81275 q -2.21557,-0.91309 -4.01489,-0.91309 -1.58447,0 -2.39014,0.49683 -0.80566,0.49682 -0.80566,1.36963 0,0.59082 0.29541,1.00708 0.30884,0.41625 0.98022,0.79223 0.67139,0.37598 2.57813,1.08765 2.61841,0.95337 3.53149,1.92016 0.92652,0.9668 0.92652,2.43042 z"
       style="font-size:27.5px;font-family:'Open Sans';fill:#ffffff;fill-opacity:1"
       id="path1025"
       inkscape:connector-curvature="0" />
  </g>
  <g
     aria-label="（工作站）"
     style="font-size:40px;line-height:125%;font-family:sans-serif;letter-spacing:0px;word-spacing:0px"
     id="text3466-1-94">
    <path
       d="m 686.28565,349.3482 1.35,-0.6975 c -2.5875,-2.6775 -4.185,-6.0075 -4.185,-10.0125 0,-4.005 1.5975,-7.335 4.185,-10.0125 l -1.35,-0.6975 c -2.7,2.745 -4.4775,6.3225 -4.4775,10.71 0,4.3875 1.7775,7.965 4.4775,10.71 z"
       style="font-style:normal;font-variant:normal;font-weight:normal;font-stretch:normal;font-size:22.5px;font-family:'Noto Sans CJK SC';-inkscape-font-specification:'Noto Sans CJK SC';fill:#ffffff;fill-opacity:1"
       id="path1028"
       inkscape:connector-curvature="0" />
    <path
       d="m 700.77565,345.5232 v -12.915 h 8.0775 v -1.71 h -17.775 v 1.71 h 7.875 v 12.915 h -9.045 v 1.665 h 20.07 v -1.665 z"
       style="font-style:normal;font-variant:normal;font-weight:normal;font-stretch:normal;font-size:22.5px;font-family:'Noto Sans CJK SC';-inkscape-font-specification:'Noto Sans CJK SC';fill:#ffffff;fill-opacity:1"
       id="path1030"
       inkscape:connector-curvature="0" />
    <path
       d="m 717.62815,328.4457 c -1.26,3.42 -3.33,6.7725 -5.5575,8.9325 0.315,0.36 0.81,1.2825 0.9675,1.665 0.765,-0.7875 1.53,-1.6875 2.2275,-2.6775 v 12.51 h 1.665 v -15.0975 c 0.8775,-1.5525 1.6875,-3.195 2.295,-4.815 z m 15.0975,5.265 v -1.5975 h -9.36 c 0.45,-0.99 0.8775,-2.0025 1.2375,-3.0375 l -1.5975,-0.4275 c -1.1025,3.285 -2.925,6.525 -4.95,8.6175 0.3825,0.27 1.035,0.8325 1.305,1.125 1.125,-1.26 2.2275,-2.88 3.195,-4.68 h 1.5525 v 15.1875 h 1.6875 v -5.445 h 6.7275 v -1.575 h -6.7275 v -3.3975 h 6.4125 v -1.5525 h -6.4125 v -3.2175 z"
       style="font-style:normal;font-variant:normal;font-weight:normal;font-stretch:normal;font-size:22.5px;font-family:'Noto Sans CJK SC';-inkscape-font-specification:'Noto Sans CJK SC';fill:#ffffff;fill-opacity:1"
       id="path1032"
       inkscape:connector-curvature="0" />
    <path
       d="m 740.69065,331.8207 c -0.27,-0.9225 -0.9225,-2.295 -1.5975,-3.33 l -1.395,0.4275 c 0.585,1.0575 1.215,2.4975 1.485,3.42 z m 0.36,11.7675 c 0.585,-2.3625 1.1925,-5.7825 1.6425,-8.415 l -1.575,-0.2925 c -0.2925,2.7225 -0.8775,6.66 -1.4625,9.045 -1.845,0.45 -3.555,0.81 -4.86,1.1025 l 0.405,1.6425 c 2.34,-0.585 5.4675,-1.3725 8.4375,-2.1375 l -0.1575,-1.53 z m -5.1075,-8.19 c 0.5175,2.5425 0.99,5.8275 1.08,8.0325 l 1.4175,-0.27 c -0.135,-2.205 -0.63,-5.445 -1.1475,-8.01 z m -0.8775,-1.2825 h 8.685 v -1.5525 h -8.685 z m 17.4825,12.15 h -6.75 v -5.6475 h 6.75 z m 2.6325,-11.655 v -1.5975 h -5.67 v -4.6575 h -1.6875 v 10.6875 h -3.645 v 9.855 h 1.62 v -1.0575 h 6.75 v 0.9675 h 1.6875 v -9.765 h -4.725 v -4.4325 z"
       style="font-style:normal;font-variant:normal;font-weight:normal;font-stretch:normal;font-size:22.5px;font-family:'Noto Sans CJK SC';-inkscape-font-specification:'Noto Sans CJK SC';fill:#ffffff;fill-opacity:1"
       id="path1034"
       inkscape:connector-curvature="0" />
    <path
       d="m 758.55565,327.9282 -1.35,0.6975 c 2.5875,2.6775 4.185,6.0075 4.185,10.0125 0,4.005 -1.5975,7.335 -4.185,10.0125 l 1.35,0.6975 c 2.7,-2.745 4.4775,-6.3225 4.4775,-10.71 0,-4.3875 -1.7775,-7.965 -4.4775,-10.71 z"
       style="font-style:normal;font-variant:normal;font-weight:normal;font-stretch:normal;font-size:22.5px;font-family:'Noto Sans CJK SC';-inkscape-font-specification:'Noto Sans CJK SC';fill:#ffffff;fill-opacity:1"
       id="path1036"
       inkscape:connector-curvature="0" />
  </g>
  <g
     aria-label="Jupiter"
     style="font-size:40px;line-height:125%;font-family:sans-serif;letter-spacing:0px;word-spacing:0px"
     id="text3466-1">
    <path
       d="m 482.66269,324.33383 q -1.26221,0 -1.98731,-0.36255 v -1.94702 q 0.95337,0.26856 1.98731,0.26856 1.32934,0 2.01416,-0.80567 0.69824,-0.80566 0.69824,-2.323 v -19.63134 h 2.28272 v 19.44336 q 0,2.55127 -1.28907,3.94775 -1.28906,1.40991 -3.70605,1.40991 z"
       style="font-size:27.5px;font-family:'Open Sans';fill:#ffffff;fill-opacity:1"
       id="path991"
       inkscape:connector-curvature="0" />
    <path
       d="m 494.64023,304.44736 v 9.54712 q 0,1.79931 0.81909,2.68554 0.81909,0.88623 2.5647,0.88623 2.30957,0 3.37036,-1.2622 1.07422,-1.26221 1.07422,-4.12232 v -7.73437 h 2.229 v 14.71679 h -1.8396 l -0.32226,-1.97387 h -0.12085 q -0.68482,1.08764 -1.90674,1.66504 -1.2085,0.57739 -2.76612,0.57739 -2.68554,0 -4.02832,-1.27564 -1.32934,-1.27563 -1.32934,-4.08203 v -9.62768 z"
       style="font-size:27.5px;font-family:'Open Sans';fill:#ffffff;fill-opacity:1"
       id="path993"
       inkscape:connector-curvature="0" />
    <path
       d="m 516.25888,319.43271 q -1.43677,0 -2.63184,-0.52368 -1.18164,-0.53711 -1.9873,-1.63819 h -0.16113 q 0.16113,1.28907 0.16113,2.44385 v 6.05591 h -2.229 v -21.32324 h 1.81274 l 0.30884,2.01416 h 0.10742 q 0.85937,-1.2085 2.00073,-1.74561 1.14136,-0.53711 2.61841,-0.53711 2.92725,0 4.51172,2.00073 1.5979,2.00074 1.5979,5.6128 0,3.62549 -1.62476,5.63965 -1.61132,2.00073 -4.48486,2.00073 z m -0.32227,-13.3606 q -2.25585,0 -3.26293,1.24878 -1.00708,1.24878 -1.03394,3.97461 v 0.49683 q 0,3.1018 1.03394,4.44458 1.03393,1.32934 3.31665,1.32934 1.90673,0 2.98095,-1.54419 1.08765,-1.54419 1.08765,-4.25659 0,-2.75268 -1.08765,-4.21631 -1.07422,-1.47705 -3.03467,-1.47705 z"
       style="font-size:27.5px;font-family:'Open Sans';fill:#ffffff;fill-opacity:1"
       id="path995"
       inkscape:connector-curvature="0" />
    <path
       d="m 528.50497,319.16415 h -2.229 v -14.71679 h 2.229 z m -2.41699,-18.70483 q 0,-0.76538 0.37598,-1.1145 0.37598,-0.36255 0.93994,-0.36255 0.53711,0 0.92651,0.36255 0.38941,0.36255 0.38941,1.1145 0,0.75195 -0.38941,1.12793 -0.3894,0.36255 -0.92651,0.36255 -0.56396,0 -0.93994,-0.36255 -0.37598,-0.37598 -0.37598,-1.12793 z"
       style="font-size:27.5px;font-family:'Open Sans';fill:#ffffff;fill-opacity:1"
       id="path997"
       inkscape:connector-curvature="0" />
    <path
       d="m 538.01181,317.59311 q 0.59082,0 1.14136,-0.0806 0.55053,-0.094 0.8728,-0.18799 v 1.70533 q -0.36255,0.17456 -1.07422,0.28198 -0.69824,0.12085 -1.26221,0.12085 -4.27001,0 -4.27001,-4.49829 v -8.75489 h -2.10816 v -1.07421 l 2.10816,-0.92652 0.93994,-3.14209 h 1.28906 v 3.41065 h 4.27002 v 1.73217 h -4.27002 v 8.66089 q 0,1.32935 0.6311,2.04102 0.63111,0.71167 1.73218,0.71167 z"
       style="font-size:27.5px;font-family:'Open Sans';fill:#ffffff;fill-opacity:1"
       id="path999"
       inkscape:connector-curvature="0" />
    <path
       d="m 549.19711,319.43271 q -3.26294,0 -5.15625,-1.98731 -1.87988,-1.9873 -1.87988,-5.51879 0,-3.55835 1.74561,-5.65308 1.75903,-2.09473 4.71313,-2.09473 2.76611,0 4.37744,1.82617 1.61133,1.81275 1.61133,4.79371 v 1.40991 h -10.13794 q 0.0671,2.59155 1.30249,3.93432 1.24878,1.34278 3.50464,1.34278 2.37671,0 4.69971,-0.99366 v 1.98731 q -1.18164,0.51025 -2.24244,0.7251 -1.04736,0.22827 -2.53784,0.22827 z m -0.60425,-13.38745 q -1.77246,0 -2.83325,1.15478 -1.04736,1.15479 -1.23535,3.1958 h 7.69409 q 0,-2.10815 -0.93994,-3.22265 -0.93994,-1.12793 -2.68555,-1.12793 z"
       style="font-size:27.5px;font-family:'Open Sans';fill:#ffffff;fill-opacity:1"
       id="path1001"
       inkscape:connector-curvature="0" />
    <path
       d="m 565.10898,304.1788 q 0.98022,0 1.75903,0.16114 l -0.30884,2.06787 q -0.91308,-0.20142 -1.61132,-0.20142 -1.78589,0 -3.06153,1.4502 -1.26221,1.45019 -1.26221,3.61206 v 7.8955 h -2.229 v -14.71679 h 1.8396 l 0.25513,2.72583 h 0.10742 q 0.81909,-1.43677 1.97388,-2.21558 1.15478,-0.77881 2.53784,-0.77881 z"
       style="font-size:27.5px;font-family:'Open Sans';fill:#ffffff;fill-opacity:1"
       id="path1003"
       inkscape:connector-curvature="0" />
  </g>
  <g
     aria-label="（工作站）"
     style="font-size:40px;line-height:125%;font-family:sans-serif;letter-spacing:0px;word-spacing:0px"
     id="text3466-1-94-8">
    <path
       d="m 487.05735,349.61822 1.35,-0.6975 c -2.5875,-2.6775 -4.185,-6.0075 -4.185,-10.0125 0,-4.005 1.5975,-7.335 4.185,-10.0125 l -1.35,-0.6975 c -2.7,2.745 -4.4775,6.3225 -4.4775,10.71 0,4.3875 1.7775,7.965 4.4775,10.71 z"
       style="font-style:normal;font-variant:normal;font-weight:normal;font-stretch:normal;font-size:22.5px;font-family:'Noto Sans CJK SC';-inkscape-font-specification:'Noto Sans CJK SC';fill:#ffffff;fill-opacity:1"
       id="path1006"
       inkscape:connector-curvature="0" />
    <path
       d="m 501.54735,345.79322 v -12.915 h 8.0775 v -1.71 h -17.775 v 1.71 h 7.875 v 12.915 h -9.045 v 1.665 h 20.07 v -1.665 z"
       style="font-style:normal;font-variant:normal;font-weight:normal;font-stretch:normal;font-size:22.5px;font-family:'Noto Sans CJK SC';-inkscape-font-specification:'Noto Sans CJK SC';fill:#ffffff;fill-opacity:1"
       id="path1008"
       inkscape:connector-curvature="0" />
    <path
       d="m 518.39985,328.71572 c -1.26,3.42 -3.33,6.7725 -5.5575,8.9325 0.315,0.36 0.81,1.2825 0.9675,1.665 0.765,-0.7875 1.53,-1.6875 2.2275,-2.6775 v 12.51 h 1.665 v -15.0975 c 0.8775,-1.5525 1.6875,-3.195 2.295,-4.815 z m 15.0975,5.265 v -1.5975 h -9.36 c 0.45,-0.99 0.8775,-2.0025 1.2375,-3.0375 l -1.5975,-0.4275 c -1.1025,3.285 -2.925,6.525 -4.95,8.6175 0.3825,0.27 1.035,0.8325 1.305,1.125 1.125,-1.26 2.2275,-2.88 3.195,-4.68 h 1.5525 v 15.1875 h 1.6875 v -5.445 h 6.7275 v -1.575 h -6.7275 v -3.3975 h 6.4125 v -1.5525 h -6.4125 v -3.2175 z"
       style="font-style:normal;font-variant:normal;font-weight:normal;font-stretch:normal;font-size:22.5px;font-family:'Noto Sans CJK SC';-inkscape-font-specification:'Noto Sans CJK SC';fill:#ffffff;fill-opacity:1"
       id="path1010"
       inkscape:connector-curvature="0" />
    <path
       d="m 541.46235,332.09072 c -0.27,-0.9225 -0.9225,-2.295 -1.5975,-3.33 l -1.395,0.4275 c 0.585,1.0575 1.215,2.4975 1.485,3.42 z m 0.36,11.7675 c 0.585,-2.3625 1.1925,-5.7825 1.6425,-8.415 l -1.575,-0.2925 c -0.2925,2.7225 -0.8775,6.66 -1.4625,9.045 -1.845,0.45 -3.555,0.81 -4.86,1.1025 l 0.405,1.6425 c 2.34,-0.585 5.4675,-1.3725 8.4375,-2.1375 l -0.1575,-1.53 z m -5.1075,-8.19 c 0.5175,2.5425 0.99,5.8275 1.08,8.0325 l 1.4175,-0.27 c -0.135,-2.205 -0.63,-5.445 -1.1475,-8.01 z m -0.8775,-1.2825 h 8.685 v -1.5525 h -8.685 z m 17.4825,12.15 h -6.75 v -5.6475 h 6.75 z m 2.6325,-11.655 v -1.5975 h -5.67 v -4.6575 h -1.6875 v 10.6875 h -3.645 v 9.855 h 1.62 v -1.0575 h 6.75 v 0.9675 h 1.6875 v -9.765 h -4.725 v -4.4325 z"
       style="font-style:normal;font-variant:normal;font-weight:normal;font-stretch:normal;font-size:22.5px;font-family:'Noto Sans CJK SC';-inkscape-font-specification:'Noto Sans CJK SC';fill:#ffffff;fill-opacity:1"
       id="path1012"
       inkscape:connector-curvature="0" />
    <path
       d="m 559.32735,328.19822 -1.35,0.6975 c 2.5875,2.6775 4.185,6.0075 4.185,10.0125 0,4.005 -1.5975,7.335 -4.185,10.0125 l 1.35,0.6975 c 2.7,-2.745 4.4775,-6.3225 4.4775,-10.71 0,-4.3875 -1.7775,-7.965 -4.4775,-10.71 z"
       style="font-style:normal;font-variant:normal;font-weight:normal;font-stretch:normal;font-size:22.5px;font-family:'Noto Sans CJK SC';-inkscape-font-specification:'Noto Sans CJK SC';fill:#ffffff;fill-opacity:1"
       id="path1014"
       inkscape:connector-curvature="0" />
  </g>
  <g
     aria-label="192.168.1.0/24"
     style="font-size:40px;line-height:125%;font-family:sans-serif;letter-spacing:0px;word-spacing:0px"
     id="text3466-1-0-5">
    <path
       d="m 122.07108,37.061119 h -2.17529 V 23.06942 q 0,-1.745606 0.10742,-3.303223 -0.28198,0.281983 -0.6311,0.590821 -0.34912,0.308837 -3.1958,2.618408 l -1.18164,-1.530762 5.19653,-4.014893 h 1.87988 z"
       style="font-size:27.5px;font-family:'Open Sans';fill:#0d2c40"
       id="path896"
       inkscape:connector-curvature="0" />
    <path
       d="m 142.45438,25.808678 q 0,11.520996 -8.91601,11.520996 -1.55762,0 -2.4707,-0.268555 v -1.920166 q 1.07421,0.349121 2.44384,0.349121 3.22266,0 4.86084,-1.987305 1.65161,-2.000732 1.79932,-6.123046 h -0.16113 q -0.73853,1.114502 -1.96045,1.705322 -1.22193,0.577392 -2.75269,0.577392 -2.60498,0 -4.13574,-1.557617 -1.53076,-1.557617 -1.53076,-4.350586 0,-3.061523 1.70532,-4.833984 1.71875,-1.772461 4.51172,-1.772461 2.00073,0 3.49121,1.033936 1.50391,1.020507 2.30957,2.994384 0.80566,1.96045 0.80566,4.632569 z m -6.60644,-6.754151 q -1.92017,0 -2.96753,1.235352 -1.04736,1.235351 -1.04736,3.4375 0,1.933594 0.96679,3.048096 0.9668,1.101074 2.94068,1.101074 1.22192,0 2.24243,-0.496826 1.03393,-0.496827 1.62475,-1.356202 0.59082,-0.859375 0.59082,-1.799316 0,-1.409912 -0.55053,-2.60498 -0.55054,-1.195069 -1.54419,-1.879883 -0.98023,-0.684815 -2.25586,-0.684815 z"
       style="font-size:27.5px;font-family:'Open Sans';fill:#0d2c40"
       id="path898"
       inkscape:connector-curvature="0" />
    <path
       d="m 158.19169,37.061119 h -12.90405 v -1.920166 l 5.16967,-5.196533 q 2.36328,-2.390137 3.11524,-3.410645 0.75195,-1.020507 1.12793,-1.987304 0.37597,-0.966797 0.37597,-2.081299 0,-1.571045 -0.95336,-2.484131 -0.95337,-0.926514 -2.64527,-0.926514 -1.22192,0 -2.323,0.402832 -1.08764,0.402832 -2.43042,1.463623 l -1.18164,-1.517334 q 2.71241,-2.255859 5.90821,-2.255859 2.76611,0 4.33715,1.42334 1.57105,1.409912 1.57105,3.800049 0,1.866455 -1.04736,3.692627 -1.04737,1.826172 -3.9209,4.61914 l -4.29688,4.202881 v 0.107422 h 10.09766 z"
       style="font-size:27.5px;font-family:'Open Sans';fill:#0d2c40"
       id="path900"
       inkscape:connector-curvature="0" />
    <path
       d="m 161.72318,35.637779 q 0,-0.899658 0.40283,-1.356201 0.41626,-0.469971 1.18165,-0.469971 0.7788,0 1.20849,0.469971 0.44312,0.456543 0.44312,1.356201 0,0.872803 -0.44312,1.342774 -0.44311,0.46997 -1.20849,0.46997 -0.68482,0 -1.14136,-0.416259 -0.44312,-0.429688 -0.44312,-1.396485 z"
       style="font-size:27.5px;font-family:'Open Sans';fill:#0d2c40"
       id="path902"
       inkscape:connector-curvature="0" />
    <path
       d="m 176.58768,37.061119 h -2.17529 V 23.06942 q 0,-1.745606 0.10742,-3.303223 -0.28198,0.281983 -0.6311,0.590821 -0.34912,0.308837 -3.1958,2.618408 l -1.18164,-1.530762 5.19653,-4.014893 h 1.87988 z"
       style="font-size:27.5px;font-family:'Open Sans';fill:#0d2c40"
       id="path904"
       inkscape:connector-curvature="0" />
    <path
       d="m 184.2952,28.668785 q 0,-5.787353 2.24244,-8.647461 2.25586,-2.873535 6.66015,-2.873535 1.51734,0 2.39014,0.255127 v 1.920166 q -1.03394,-0.335693 -2.36328,-0.335693 -3.15552,0 -4.82056,1.973877 -1.66504,1.960449 -1.82617,6.176757 h 0.16113 q 1.47705,-2.30957 4.67285,-2.30957 2.64527,0 4.1626,1.5979 1.53076,1.597901 1.53076,4.337159 0,3.061523 -1.67846,4.820556 -1.66504,1.745606 -4.51172,1.745606 -3.0481,0 -4.83399,-2.282715 -1.78589,-2.296143 -1.78589,-6.378174 z m 6.59302,6.767578 q 1.90674,0 2.9541,-1.195068 1.06079,-1.208496 1.06079,-3.477783 0,-1.947022 -0.98022,-3.061524 -0.98022,-1.114502 -2.92725,-1.114502 -1.20849,0 -2.21557,0.496826 -1.00708,0.496827 -1.61133,1.369629 -0.59082,0.872803 -0.59082,1.812744 0,1.383057 0.53711,2.578125 0.53711,1.195069 1.51733,1.893311 0.99365,0.698242 2.25586,0.698242 z"
       style="font-size:27.5px;font-family:'Open Sans';fill:#0d2c40"
       id="path906"
       inkscape:connector-curvature="0" />
    <path
       d="m 206.30326,17.147789 q 2.68555,0 4.25659,1.248779 1.57105,1.24878 1.57105,3.450928 0,1.450195 -0.89966,2.645264 -0.89966,1.195068 -2.87354,2.175293 2.39014,1.141357 3.39722,2.403564 1.00708,1.248779 1.00708,2.900391 0,2.443847 -1.70532,3.90747 -1.70532,1.450196 -4.67285,1.450196 -3.14209,0 -4.83399,-1.369629 -1.69189,-1.383057 -1.69189,-3.907471 0,-3.370361 4.10889,-5.250244 -1.85303,-1.047363 -2.6587,-2.255859 -0.80566,-1.221924 -0.80566,-2.72583 0,-2.13501 1.57104,-3.397217 1.58448,-1.275635 4.22974,-1.275635 z m -4.24316,14.958496 q 0,1.611328 1.1145,2.510986 1.12793,0.899659 3.15552,0.899659 2.00073,0 3.11523,-0.939942 1.1145,-0.939941 1.1145,-2.578125 0,-1.30249 -1.04736,-2.30957 -1.04736,-1.020508 -3.65234,-1.973877 -2.00074,0.859375 -2.9004,1.906738 -0.89965,1.033936 -0.89965,2.484131 z m 4.21631,-13.145752 q -1.67847,0 -2.63184,0.805664 -0.95337,0.805664 -0.95337,2.148438 0,1.235351 0.79224,2.121582 0.79223,0.88623 2.92724,1.772461 1.92017,-0.805664 2.71241,-1.732178 0.80566,-0.926514 0.80566,-2.161865 0,-1.356201 -0.98023,-2.148438 -0.96679,-0.805664 -2.67211,-0.805664 z"
       style="font-size:27.5px;font-family:'Open Sans';fill:#0d2c40"
       id="path908"
       inkscape:connector-curvature="0" />
    <path
       d="m 216.23978,35.637779 q 0,-0.899658 0.40284,-1.356201 0.41626,-0.469971 1.18164,-0.469971 0.77881,0 1.20849,0.469971 0.44312,0.456543 0.44312,1.356201 0,0.872803 -0.44312,1.342774 -0.44311,0.46997 -1.20849,0.46997 -0.68482,0 -1.14136,-0.416259 -0.44312,-0.429688 -0.44312,-1.396485 z"
       style="font-size:27.5px;font-family:'Open Sans';fill:#0d2c40"
       id="path910"
       inkscape:connector-curvature="0" />
    <path
       d="m 231.10429,37.061119 h -2.1753 V 23.06942 q 0,-1.745606 0.10743,-3.303223 -0.28199,0.281983 -0.63111,0.590821 -0.34912,0.308837 -3.1958,2.618408 l -1.18164,-1.530762 5.19653,-4.014893 h 1.87989 z"
       style="font-size:27.5px;font-family:'Open Sans';fill:#0d2c40"
       id="path912"
       inkscape:connector-curvature="0" />
    <path
       d="m 239.28178,35.637779 q 0,-0.899658 0.40283,-1.356201 0.41626,-0.469971 1.18164,-0.469971 0.77881,0 1.2085,0.469971 0.44311,0.456543 0.44311,1.356201 0,0.872803 -0.44311,1.342774 -0.44312,0.46997 -1.2085,0.46997 -0.68482,0 -1.14136,-0.416259 -0.44311,-0.429688 -0.44311,-1.396485 z"
       style="font-size:27.5px;font-family:'Open Sans';fill:#0d2c40"
       id="path914"
       inkscape:connector-curvature="0" />
    <path
       d="m 258.8997,27.21859 q 0,5.089111 -1.61133,7.600097 -1.5979,2.510987 -4.90112,2.510987 -3.16895,0 -4.82056,-2.564697 -1.65161,-2.578125 -1.65161,-7.546387 0,-5.129395 1.5979,-7.613526 1.5979,-2.48413 4.87427,-2.48413 3.1958,0 4.84741,2.591552 1.66504,2.591553 1.66504,7.506104 z m -10.72876,0 q 0,4.283447 1.00708,6.243896 1.00708,1.947022 3.20923,1.947022 2.229,0 3.22265,-1.973877 1.00708,-1.987305 1.00708,-6.217041 0,-4.229737 -1.00708,-6.190186 -0.99365,-1.973877 -3.22265,-1.973877 -2.20215,0 -3.20923,1.947022 -1.00708,1.933594 -1.00708,6.217041 z"
       style="font-size:27.5px;font-family:'Open Sans';fill:#0d2c40"
       id="path916"
       inkscape:connector-curvature="0" />
    <path
       d="m 270.09843,17.429771 -7.31812,19.631348 h -2.229 l 7.31811,-19.631348 z"
       style="font-size:27.5px;font-family:'Open Sans';fill:#0d2c40"
       id="path918"
       inkscape:connector-curvature="0" />
    <path
       d="m 284.62724,37.061119 h -12.90406 v -1.920166 l 5.16968,-5.196533 q 2.36328,-2.390137 3.11523,-3.410645 0.75196,-1.020507 1.12793,-1.987304 0.37598,-0.966797 0.37598,-2.081299 0,-1.571045 -0.95337,-2.484131 -0.95337,-0.926514 -2.64526,-0.926514 -1.22193,0 -2.323,0.402832 -1.08765,0.402832 -2.43042,1.463623 l -1.18164,-1.517334 q 2.7124,-2.255859 5.9082,-2.255859 2.76612,0 4.33716,1.42334 1.57105,1.409912 1.57105,3.800049 0,1.866455 -1.04737,3.692627 -1.04736,1.826172 -3.9209,4.61914 l -4.29687,4.202881 v 0.107422 h 10.09766 z"
       style="font-size:27.5px;font-family:'Open Sans';fill:#0d2c40"
       id="path920"
       inkscape:connector-curvature="0" />
    <path
       d="m 301.29105,32.5494 h -2.91381 v 4.511719 h -2.13501 V 32.5494 h -9.54712 v -1.947021 l 9.31884,-13.280029 h 2.36329 v 13.199462 h 2.91381 z m -5.04882,-2.027588 v -6.525878 q 0,-1.920166 0.13427,-4.337159 h -0.10742 q -0.64453,1.289063 -1.20849,2.13501 l -6.13648,8.728027 z"
       style="font-size:27.5px;font-family:'Open Sans';fill:#0d2c40"
       id="path922"
       inkscape:connector-curvature="0" />
  </g>
  <g
     aria-label=".1"
     transform="scale(1.0000168,0.99998321)"
     style="font-size:40.00067139px;line-height:125%;font-family:sans-serif;letter-spacing:0px;word-spacing:0px"
     id="text3466-1-79-6">
    <path
       d="m 114.99273,152.88985 q 0,-0.89967 0.40284,-1.35622 0.41627,-0.46998 1.18166,-0.46998 0.77882,0 1.20852,0.46998 0.44312,0.45655 0.44312,1.35622 0,0.87282 -0.44312,1.3428 -0.44312,0.46998 -1.20852,0.46998 -0.68482,0 -1.14137,-0.41627 -0.44313,-0.42969 -0.44313,-1.39651 z"
       style="font-size:27.50046158px;font-family:'Open Sans';fill:#0d2c40"
       id="path925"
       inkscape:connector-curvature="0" />
    <path
       d="m 129.85748,154.31322 h -2.17533 v -13.99194 q 0,-1.74563 0.10743,-3.30328 -0.28199,0.28199 -0.63112,0.59084 -0.34912,0.30884 -3.19585,2.61845 l -1.18166,-1.53079 5.19662,-4.01496 h 1.87991 z"
       style="font-size:27.50046158px;font-family:'Open Sans';fill:#0d2c40"
       id="path927"
       inkscape:connector-curvature="0" />
  </g>
  <g
     aria-label=".116"
     style="font-size:40px;line-height:125%;font-family:sans-serif;letter-spacing:0px;word-spacing:0px"
     id="text3466-1-75-0">
    <path
       d="m 414,53.013145 q 0,-0.899658 0.40283,-1.356201 0.41626,-0.46997 1.18164,-0.46997 0.77881,0 1.2085,0.46997 0.44311,0.456543 0.44311,1.356201 0,0.872803 -0.44311,1.342774 -0.44312,0.469971 -1.2085,0.469971 -0.68481,0 -1.14135,-0.41626 Q 414,53.979942 414,53.013145 Z"
       style="font-size:27.5px;font-family:'Open Sans';fill:#0d2c40"
       id="path887"
       inkscape:connector-curvature="0" />
    <path
       d="m 428.8645,54.436485 h -2.17529 V 40.444786 q 0,-1.745605 0.10742,-3.303223 -0.28198,0.281983 -0.6311,0.590821 -0.34912,0.308838 -3.1958,2.618408 l -1.18164,-1.530762 5.19653,-4.014892 h 1.87988 z"
       style="font-size:27.5px;font-family:'Open Sans';fill:#0d2c40"
       id="path889"
       inkscape:connector-curvature="0" />
    <path
       d="m 444.60181,54.436485 h -2.1753 V 40.444786 q 0,-1.745605 0.10743,-3.303223 -0.28199,0.281983 -0.63111,0.590821 -0.34912,0.308838 -3.1958,2.618408 l -1.18164,-1.530762 5.19653,-4.014892 h 1.87989 z"
       style="font-size:27.5px;font-family:'Open Sans';fill:#0d2c40"
       id="path891"
       inkscape:connector-curvature="0" />
    <path
       d="m 452.30933,46.044151 q 0,-5.787353 2.24243,-8.647461 2.25586,-2.873535 6.66015,-2.873535 1.51734,0 2.39014,0.255127 v 1.920166 q -1.03393,-0.335693 -2.36328,-0.335693 -3.15552,0 -4.82056,1.973877 -1.66504,1.960449 -1.82617,6.176758 h 0.16113 q 1.47705,-2.309571 4.67286,-2.309571 2.64526,0 4.16259,1.597901 1.53076,1.5979 1.53076,4.337158 0,3.061523 -1.67846,4.820557 -1.66504,1.745605 -4.51172,1.745605 -3.0481,0 -4.83399,-2.282715 -1.78588,-2.296142 -1.78588,-6.378174 z m 6.59301,6.767578 q 1.90674,0 2.95411,-1.195068 1.06079,-1.208496 1.06079,-3.477783 0,-1.947022 -0.98023,-3.061524 -0.98022,-1.114502 -2.92724,-1.114502 -1.2085,0 -2.21558,0.496827 -1.00708,0.496826 -1.61133,1.369629 -0.59082,0.872802 -0.59082,1.812744 0,1.383056 0.53711,2.578125 0.53711,1.195068 1.51733,1.89331 0.99366,0.698242 2.25586,0.698242 z"
       style="font-size:27.5px;font-family:'Open Sans';fill:#0d2c40"
       id="path893"
       inkscape:connector-curvature="0" />
  </g>
  <g
     aria-label=".114"
     style="font-size:40px;line-height:125%;font-family:sans-serif;letter-spacing:0px;word-spacing:0px"
     id="text3466-1-75-3">
    <path
       d="m 769.08838,52.925865 q 0,-0.899658 0.40283,-1.356201 0.41626,-0.469971 1.18164,-0.469971 0.77881,0 1.2085,0.469971 0.44311,0.456543 0.44311,1.356201 0,0.872803 -0.44311,1.342774 -0.44312,0.46997 -1.2085,0.46997 -0.68481,0 -1.14136,-0.416259 -0.44311,-0.429688 -0.44311,-1.396485 z"
       style="font-size:27.5px;font-family:'Open Sans';fill:#0d2c40"
       id="path964"
       inkscape:connector-curvature="0" />
    <path
       d="m 783.95288,54.349205 h -2.17529 V 40.357506 q 0,-1.745606 0.10742,-3.303223 -0.28198,0.281983 -0.6311,0.59082 -0.34912,0.308838 -3.1958,2.618409 l -1.18165,-1.530762 5.19654,-4.014893 h 1.87988 z"
       style="font-size:27.5px;font-family:'Open Sans';fill:#0d2c40"
       id="path966"
       inkscape:connector-curvature="0" />
    <path
       d="m 799.69019,54.349205 h -2.1753 V 40.357506 q 0,-1.745606 0.10742,-3.303223 -0.28198,0.281983 -0.6311,0.59082 -0.34912,0.308838 -3.1958,2.618409 l -1.18164,-1.530762 5.19653,-4.014893 h 1.87989 z"
       style="font-size:27.5px;font-family:'Open Sans';fill:#0d2c40"
       id="path968"
       inkscape:connector-curvature="0" />
    <path
       d="m 821,49.837486 h -2.91382 v 4.511719 h -2.13501 v -4.511719 h -9.54712 v -1.947021 l 9.31885,-13.28003 h 2.36328 V 47.809898 H 821 Z m -5.04883,-2.027588 v -6.525879 q 0,-1.920166 0.13428,-4.337158 h -0.10742 q -0.64453,1.289063 -1.2085,2.13501 l -6.13647,8.728027 z"
       style="font-size:27.5px;font-family:'Open Sans';fill:#0d2c40"
       id="path970"
       inkscape:connector-curvature="0" />
  </g>
  <g
     aria-label=".101"
     style="font-size:40px;line-height:125%;font-family:sans-serif;letter-spacing:0px;word-spacing:0px"
     id="text3466-1-75-06">
    <path
       d="m 774.66089,413.75754 q 0,-0.89966 0.40283,-1.3562 0.41626,-0.46997 1.18164,-0.46997 0.77881,0 1.2085,0.46997 0.44311,0.45654 0.44311,1.3562 0,0.8728 -0.44311,1.34277 -0.44312,0.46997 -1.2085,0.46997 -0.68481,0 -1.14136,-0.41626 -0.44311,-0.42969 -0.44311,-1.39648 z"
       style="font-size:27.5px;font-family:'Open Sans';fill:#0d2c40"
       id="path973"
       inkscape:connector-curvature="0" />
    <path
       d="m 789.52539,415.18088 h -2.17529 v -13.9917 q 0,-1.74561 0.10742,-3.30322 -0.28198,0.28198 -0.6311,0.59082 -0.34913,0.30883 -3.1958,2.6184 l -1.18165,-1.53076 5.19654,-4.01489 h 1.87988 z"
       style="font-size:27.5px;font-family:'Open Sans';fill:#0d2c40"
       id="path975"
       inkscape:connector-curvature="0" />
    <path
       d="m 810.01611,405.33835 q 0,5.08911 -1.61132,7.6001 -1.59791,2.51098 -4.90113,2.51098 -3.16894,0 -4.82055,-2.56469 -1.65162,-2.57813 -1.65162,-7.54639 0,-5.1294 1.5979,-7.61353 1.5979,-2.48413 4.87427,-2.48413 3.1958,0 4.84741,2.59155 1.66504,2.59156 1.66504,7.50611 z m -10.72876,0 q 0,4.28345 1.00708,6.24389 1.00708,1.94703 3.20923,1.94703 2.22901,0 3.22266,-1.97388 1.00708,-1.98731 1.00708,-6.21704 0,-4.22974 -1.00708,-6.19019 -0.99365,-1.97387 -3.22266,-1.97387 -2.20215,0 -3.20923,1.94702 -1.00708,1.93359 -1.00708,6.21704 z"
       style="font-size:27.5px;font-family:'Open Sans';fill:#0d2c40"
       id="path977"
       inkscape:connector-curvature="0" />
    <path
       d="m 821,415.18088 h -2.17529 v -13.9917 q 0,-1.74561 0.10742,-3.30322 -0.28198,0.28198 -0.6311,0.59082 -0.34913,0.30883 -3.19581,2.6184 l -1.18164,-1.53076 5.19654,-4.01489 H 821 Z"
       style="font-size:27.5px;font-family:'Open Sans';fill:#0d2c40"
       id="path979"
       inkscape:connector-curvature="0" />
  </g>
</svg>
