<?xml version="1.0" encoding="UTF-8" standalone="no"?>
<svg
   width="821"
   height="450"
   version="1.1"
   id="svg2600"
   sodipodi:docname="network_kerb.svg"
   inkscape:version="1.2.2 (732a01da63, 2022-12-09)"
   xmlns:inkscape="http://www.inkscape.org/namespaces/inkscape"
   xmlns:sodipodi="http://sodipodi.sourceforge.net/DTD/sodipodi-0.dtd"
   xmlns="http://www.w3.org/2000/svg"
   xmlns:svg="http://www.w3.org/2000/svg">
  <defs
     id="defs2604" />
  <sodipodi:namedview
     id="namedview2602"
     pagecolor="#ffffff"
     bordercolor="#000000"
     borderopacity="0.25"
     inkscape:showpageshadow="2"
     inkscape:pageopacity="0.0"
     inkscape:pagecheckerboard="0"
     inkscape:deskcolor="#d1d1d1"
     showgrid="false"
     inkscape:zoom="1.2665068"
     inkscape:cx="411.76249"
     inkscape:cy="225.0284"
     inkscape:window-width="1920"
     inkscape:window-height="1009"
     inkscape:window-x="-8"
     inkscape:window-y="-8"
     inkscape:window-maximized="1"
     inkscape:current-layer="svg2600" />
  <path
     fill="#0d2c40"
     d="M99 5v440h600V267.86h-2V443H539V267.86h-2v175.16L101 443V6.98h436v165.17h2V7h158v165.15h2V5z"
     style="solid-color:#000;solid-opacity:1"
     id="path2524" />
  <rect
     width="198"
     height="118"
     x="1"
     y="166"
     fill="#fe7c3f"
     id="rect2526" />
  <g
     aria-label="路由器"
     id="text2530"
     style="font-weight:500;font-size:40px;line-height:125%;font-family:Poppins;-inkscape-font-specification:'Poppins Medium';letter-spacing:0;word-spacing:0">
    <path
       d="m 73.652499,226.53 c 1.3475,-0.7975 2.64,-1.7875 3.795,-2.915 1.1,1.0725 2.365,2.09 3.795,2.915 z m 0.6875,6.7375 v -4.565 h 6.1325 v 4.565 z m -4.2625,-8.635 h -3.2175 v -3.63 h 2.97 v -1.2375 c 0.5775,0.44 1.375,1.1 1.76,1.5125 0.715,-0.7425 1.4575,-1.6225 2.1175,-2.585 0.605,1.045 1.2925,2.1175 2.1725,3.1625 -1.7325,1.705 -3.74,3.025 -5.8025,3.905 z m -7.095,-10.065 h 4.4825 v 4.235 h -4.4825 z m 16.83,1.595 c -0.6325,1.4575 -1.4575,2.805 -2.4475,4.015 -0.99,-1.155 -1.76,-2.3375 -2.3925,-3.52 l 0.2475,-0.495 z m 1.54,-2.2825 -0.44,0.11 h -4.675 c 0.3025,-0.6875 0.5775,-1.4025 0.825,-2.1175 l -2.475,-0.605 c -0.9625,3.1625 -2.695,6.1325 -4.7575,8.14 v -7.04 h -9.075 v 8.635 h 3.8225 v 10.725 l -1.815,0.4125 v -8.8275 h -2.09 v 9.2675 c -0.4675,0.0825 -0.9075,0.165 -1.32,0.2475 l 0.44,2.475 c 2.97,-0.6875 6.9575,-1.65 10.725,-2.6125 l -0.2475,-2.255 -3.41,0.7975 v -4.345 h 3.2175 V 226.86 c 0.275,0.385 0.55,0.7975 0.715,1.1275 0.4125,-0.165 0.7975,-0.3575 1.21,-0.55 v 8.9925 h 2.3375 v -0.9625 h 6.1325 v 0.88 h 2.4475 V 227.41 l 0.55,0.22 c 0.33,-0.6325 1.0725,-1.65 1.5675,-2.1175 -2.3375,-0.825 -4.3175,-2.09 -5.995,-3.6025 1.705,-2.035 3.08,-4.4825 3.9325,-7.3425 z"
       style="font-size:27.5px;font-family:'Noto Sans CJK SC';-inkscape-font-specification:'Noto Sans CJK SC Medium';text-align:center;text-anchor:middle;fill:#ffffff"
       id="path2861" />
    <path
       d="m 100.74,232.415 v -5.4725 h 6.8475 v 5.4725 z m -9.295001,-5.4725 h 6.6825 v 5.4725 h -6.6825 z m 6.6825,-7.8375 v 5.335 h -6.6825 v -5.335 z m 9.460001,0 v 5.335 H 100.74 v -5.335 z M 100.74,216.52 v -5.225 h -2.612501 v 5.225 h -9.24 v 20.02 h 2.5575 v -1.6225 H 107.5875 v 1.5125 h 2.6675 v -19.91 z"
       style="font-size:27.5px;font-family:'Noto Sans CJK SC';-inkscape-font-specification:'Noto Sans CJK SC Medium';text-align:center;text-anchor:middle;fill:#ffffff"
       id="path2863" />
    <path
       d="m 130.385,233.57 v -3.3275 h 4.18 v 3.3275 z m -7.04,0 h -3.8775 v -3.3275 h 3.8775 z m -0.2475,-15.675 H 118.89 v -3.2725 h 4.2075 z m 7.3975,-3.2725 h 4.455 v 3.2725 h -4.455 z m 8.8275,10.2025 v -2.255 h -4.675 l 0.6875,-0.66 c -0.77,-0.6325 -2.145,-1.32 -3.41,-1.8425 h 5.4725 V 212.45 h -9.24 v 7.6175 h 2.8875 l -1.1275,1.0725 c 0.9625,0.3575 2.0625,0.88 2.915,1.43 h -6.7375 c 0.5225,-0.7975 1.0175,-1.6225 1.4025,-2.4475 l -1.98,-0.385 V 212.45 h -8.91 v 7.6175 h 8.14 c -0.4125,0.825 -0.99,1.6775 -1.65,2.5025 h -8.3325 v 2.255 h 6.05 c -1.7325,1.4025 -3.905,2.6675 -6.6,3.6575 0.4675,0.44 1.1,1.375 1.375,1.98 0.55,-0.22 1.045,-0.44 1.54,-0.6875 v 6.71 h 2.3375 v -0.715 h 3.8775 v 0.5775 h 2.4475 v -8.3325 h -5.4175 c 1.485,-0.9625 2.7775,-2.0625 3.85,-3.19 h 4.9775 c 1.1,1.1825 2.475,2.2825 3.9875,3.19 h -5.1425 v 8.47 h 2.3375 v -0.715 h 4.18 v 0.5775 h 2.4475 V 229.83 c 0.44,0.1375 0.825,0.275 1.265,0.4125 0.33,-0.605 1.045,-1.5675 1.595,-2.035 -2.695,-0.6325 -5.4175,-1.87 -7.425,-3.3825 z"
       style="font-size:27.5px;font-family:'Noto Sans CJK SC';-inkscape-font-specification:'Noto Sans CJK SC Medium';text-align:center;text-anchor:middle;fill:#ffffff"
       id="path2865" />
  </g>
  <rect
     width="198"
     height="118"
     x="415"
     y="66"
     fill="#00c081"
     id="rect2532" />
  <rect
     width="198"
     height="118"
     x="622"
     y="66"
     fill="#00c081"
     id="rect2534" />
  <rect
     width="198"
     height="118"
     x="415"
     y="266"
     fill="#0c322c"
     id="rect2536" />
  <rect
     width="198"
     height="118"
     x="622"
     y="266"
     fill="#0c322c"
     id="rect2538" />
  <g
     aria-label="NTP、DNS"
     id="text2542"
     style="font-weight:500;font-size:40px;line-height:125%;font-family:Poppins;-inkscape-font-specification:'Poppins Medium';letter-spacing:0;word-spacing:0;fill:#0c322c">
    <path
       d="M 468.2225,132.77 H 465.72 L 455.655,117.5075 V 132.77 h -2.5025 v -19.195 h 2.5025 l 10.065,15.235 v -15.235 h 2.5025 z"
       style="font-size:27.5px;text-align:center;text-anchor:middle"
       id="path3306" />
    <path
       d="m 484.28248,113.6025 v 2.035 h -5.225 V 132.77 h -2.5025 v -17.1325 h -5.2525 v -2.035 z"
       style="font-size:27.5px;text-align:center;text-anchor:middle"
       id="path3308" />
    <path
       d="m 500.17749,119.2125 q 0,2.3925 -1.65,3.9875 -1.6225,1.5675 -4.9775,1.5675 h -3.685 v 8.0025 h -2.5025 v -19.1675 h 6.1875 q 3.245,0 4.9225,1.5675 1.705,1.5675 1.705,4.0425 z m -6.6275,3.4925 q 2.09,0 3.08,-0.9075 0.99,-0.9075 0.99,-2.585 0,-3.5475 -4.07,-3.5475 h -3.685 v 7.04 z"
       style="font-size:27.5px;text-align:center;text-anchor:middle"
       id="path3310" />
    <path
       d="m 510.7925,132.4675 c -1.5675,-1.8975 -4.125,-4.4825 -6.0775,-6.0775 l -2.255,1.98 c 1.925,1.6225 4.2625,3.96 5.995,6.0775 z"
       style="font-family:'Noto Sans CJK SC';-inkscape-font-specification:'Noto Sans CJK SC Medium';text-align:center;text-anchor:middle"
       id="path3312" />
    <path
       d="m 536.7525,113.6025 q 3.135,0 5.4175,1.1825 2.31,1.155 3.52,3.3275 1.2375,2.1725 1.2375,5.115 0,2.9425 -1.2375,5.115 -1.21,2.145 -3.52,3.3 -2.2825,1.1275 -5.4175,1.1275 h -5.9675 v -19.1675 z m 0,17.105 q 3.7125,0 5.665,-1.9525 1.9525,-1.98 1.9525,-5.5275 0,-3.575 -1.98,-5.5825 -1.9525,-2.0075 -5.6375,-2.0075 h -3.465 v 15.07 z"
       style="font-size:27.5px;text-align:center;text-anchor:middle"
       id="path3314" />
    <path
       d="m 565.29752,132.77 h -2.5025 l -10.065,-15.2625 V 132.77 h -2.5025 v -19.195 h 2.5025 l 10.065,15.235 v -15.235 h 2.5025 z"
       style="font-size:27.5px;text-align:center;text-anchor:middle"
       id="path3316" />
    <path
       d="m 575.6375,132.9625 q -1.8975,0 -3.41,-0.66 -1.485,-0.6875 -2.3375,-1.87 -0.8525,-1.21 -0.88,-2.7775 h 2.6675 q 0.1375,1.3475 1.1,2.2825 0.99,0.9075 2.86,0.9075 1.7875,0 2.805,-0.88 1.045,-0.9075 1.045,-2.31 0,-1.1 -0.605,-1.7875 -0.605,-0.6875 -1.5125,-1.045 -0.9075,-0.3575 -2.4475,-0.77 -1.8975,-0.495 -3.0525,-0.99 -1.1275,-0.495 -1.9525,-1.54 -0.7975,-1.0725 -0.7975,-2.86 0,-1.5675 0.7975,-2.7775 0.7975,-1.21 2.2275,-1.87 1.4575,-0.66 3.3275,-0.66 2.695,0 4.4,1.3475 1.7325,1.3475 1.9525,3.575 h -2.75 q -0.1375,-1.1 -1.155,-1.925 -1.0175,-0.8525 -2.695,-0.8525 -1.5675,0 -2.5575,0.825 -0.99,0.7975 -0.99,2.255 0,1.045 0.5775,1.705 0.605,0.66 1.4575,1.0175 0.88,0.33 2.4475,0.77 1.8975,0.5225 3.0525,1.045 1.155,0.495 1.98,1.5675 0.825,1.045 0.825,2.86 0,1.4025 -0.7425,2.64 -0.7425,1.2375 -2.2,2.0075 -1.4575,0.77 -3.4375,0.77 z"
       style="font-size:27.5px;text-align:center;text-anchor:middle"
       id="path3318" />
  </g>
  <g
     aria-label="Kerberos"
     id="text2546"
     style="font-weight:500;font-size:40px;line-height:125%;font-family:Poppins;-inkscape-font-specification:'Poppins Medium';letter-spacing:0;word-spacing:0;fill:#0c322c">
    <path
       d="m 670.65627,135.05 -7.8925,-8.745 v 8.745 h -2.5025 v -19.1675 h 2.5025 v 8.8825 l 7.92,-8.8825 h 3.1625 l -8.69,9.5975 8.7725,9.57 z"
       style="font-size:27.5px;text-align:center;text-anchor:middle"
       id="path3321" />
    <path
       d="m 690.48379,126.9375 q 0,0.715 -0.0825,1.5125 h -12.045 q 0.1375,2.2275 1.5125,3.4925 1.4025,1.2375 3.3825,1.2375 1.6225,0 2.695,-0.7425 1.1,-0.77 1.54,-2.035 h 2.695 q -0.605,2.1725 -2.42,3.5475 -1.815,1.3475 -4.51,1.3475 -2.145,0 -3.85,-0.9625 -1.6775,-0.9625 -2.64,-2.7225 -0.9625,-1.7875 -0.9625,-4.125 0,-2.3375 0.935,-4.0975 0.935,-1.76 2.6125,-2.695 1.705,-0.9625 3.905,-0.9625 2.145,0 3.795,0.935 1.65,0.935 2.53,2.585 0.9075,1.6225 0.9075,3.685 z m -2.585,-0.5225 q 0,-1.43 -0.6325,-2.4475 -0.6325,-1.045 -1.7325,-1.5675 -1.0725,-0.55 -2.3925,-0.55 -1.8975,0 -3.245,1.21 -1.32,1.21 -1.5125,3.355 z"
       style="font-size:27.5px;text-align:center;text-anchor:middle"
       id="path3323" />
    <path
       d="m 696.28632,122.4275 q 0.66,-1.2925 1.87,-2.0075 1.2375,-0.715 2.9975,-0.715 v 2.585 h -0.66 q -4.2075,0 -4.2075,4.565 v 8.195 h -2.5025 v -15.07 h 2.5025 z"
       style="font-size:27.5px;text-align:center;text-anchor:middle"
       id="path3325" />
    <path
       d="m 706.54379,122.785 q 0.77,-1.3475 2.255,-2.2 1.485,-0.8525 3.3825,-0.8525 2.035,0 3.6575,0.9625 1.6225,0.9625 2.5575,2.7225 0.935,1.7325 0.935,4.0425 0,2.2825 -0.935,4.07 -0.935,1.7875 -2.585,2.7775 -1.6225,0.99 -3.63,0.99 -1.9525,0 -3.4375,-0.8525 -1.4575,-0.8525 -2.2,-2.1725 v 2.7775 h -2.5025 V 114.7 h 2.5025 z m 10.23,4.675 q 0,-1.705 -0.6875,-2.97 -0.6875,-1.265 -1.87,-1.925 -1.155,-0.66 -2.5575,-0.66 -1.375,0 -2.5575,0.6875 -1.155,0.66 -1.87,1.9525 -0.6875,1.265 -0.6875,2.9425 0,1.705 0.6875,2.9975 0.715,1.265 1.87,1.9525 1.1825,0.66 2.5575,0.66 1.4025,0 2.5575,-0.66 1.1825,-0.6875 1.87,-1.9525 0.6875,-1.2925 0.6875,-3.025 z"
       style="font-size:27.5px;text-align:center;text-anchor:middle"
       id="path3327" />
    <path
       d="m 736.38131,126.9375 q 0,0.715 -0.0825,1.5125 h -12.045 q 0.1375,2.2275 1.5125,3.4925 1.4025,1.2375 3.3825,1.2375 1.6225,0 2.695,-0.7425 1.1,-0.77 1.54,-2.035 h 2.695 q -0.605,2.1725 -2.42,3.5475 -1.815,1.3475 -4.51,1.3475 -2.145,0 -3.85,-0.9625 -1.6775,-0.9625 -2.64,-2.7225 -0.9625,-1.7875 -0.9625,-4.125 0,-2.3375 0.935,-4.0975 0.935,-1.76 2.6125,-2.695 1.705,-0.9625 3.905,-0.9625 2.145,0 3.795,0.935 1.65,0.935 2.53,2.585 0.9075,1.6225 0.9075,3.685 z m -2.585,-0.5225 q 0,-1.43 -0.6325,-2.4475 -0.6325,-1.045 -1.7325,-1.5675 -1.0725,-0.55 -2.3925,-0.55 -1.8975,0 -3.245,1.21 -1.32,1.21 -1.5125,3.355 z"
       style="font-size:27.5px;text-align:center;text-anchor:middle"
       id="path3329" />
    <path
       d="m 742.18383,122.4275 q 0.66,-1.2925 1.87,-2.0075 1.2375,-0.715 2.9975,-0.715 v 2.585 h -0.66 q -4.2075,0 -4.2075,4.565 v 8.195 h -2.5025 v -15.07 h 2.5025 z"
       style="font-size:27.5px;text-align:center;text-anchor:middle"
       id="path3331" />
    <path
       d="m 756.51131,135.2975 q -2.1175,0 -3.85,-0.9625 -1.705,-0.9625 -2.695,-2.7225 -0.9625,-1.7875 -0.9625,-4.125 0,-2.31 0.99,-4.07 1.0175,-1.7875 2.75,-2.7225 1.7325,-0.9625 3.8775,-0.9625 2.145,0 3.8775,0.9625 1.7325,0.935 2.7225,2.695 1.0175,1.76 1.0175,4.0975 0,2.3375 -1.045,4.125 -1.0175,1.76 -2.7775,2.7225 -1.76,0.9625 -3.905,0.9625 z m 0,-2.2 q 1.3475,0 2.53,-0.6325 1.1825,-0.6325 1.8975,-1.8975 0.7425,-1.265 0.7425,-3.08 0,-1.815 -0.715,-3.08 -0.715,-1.265 -1.87,-1.87 -1.155,-0.6325 -2.5025,-0.6325 -1.375,0 -2.53,0.6325 -1.1275,0.605 -1.815,1.87 -0.6875,1.265 -0.6875,3.08 0,1.8425 0.66,3.1075 0.6875,1.265 1.815,1.8975 1.1275,0.605 2.475,0.605 z"
       style="font-size:27.5px;text-align:center;text-anchor:middle"
       id="path3333" />
    <path
       d="m 772.87379,135.2975 q -1.7325,0 -3.1075,-0.5775 -1.375,-0.605 -2.1725,-1.65 -0.7975,-1.0725 -0.88,-2.4475 h 2.585 q 0.11,1.1275 1.045,1.8425 0.9625,0.715 2.5025,0.715 1.43,0 2.255,-0.6325 0.825,-0.6325 0.825,-1.595 0,-0.99 -0.88,-1.4575 -0.88,-0.495 -2.7225,-0.9625 -1.6775,-0.44 -2.75,-0.88 -1.045,-0.4675 -1.815,-1.3475 -0.7425,-0.9075 -0.7425,-2.365 0,-1.155 0.6875,-2.1175 0.6875,-0.9625 1.9525,-1.5125 1.265,-0.5775 2.8875,-0.5775 2.5025,0 4.0425,1.265 1.54,1.265 1.65,3.465 h -2.5025 q -0.0825,-1.1825 -0.9625,-1.8975 -0.8525,-0.715 -2.31,-0.715 -1.3475,0 -2.145,0.5775 -0.7975,0.5775 -0.7975,1.5125 0,0.7425 0.4675,1.2375 0.495,0.4675 1.21,0.77 0.7425,0.275 2.035,0.6325 1.6225,0.44 2.64,0.88 1.0175,0.4125 1.7325,1.265 0.7425,0.8525 0.77,2.2275 0,1.2375 -0.6875,2.2275 -0.6875,0.99 -1.9525,1.5675 -1.2375,0.55 -2.86,0.55 z"
       style="font-size:27.5px;text-align:center;text-anchor:middle"
       id="path3335" />
  </g>
  <g
     aria-label=".1"
     id="text2550"
     style="font-weight:500;font-size:40px;line-height:125%;font-family:Poppins;-inkscape-font-specification:'Poppins Medium';letter-spacing:0;word-spacing:0">
    <path
       d="m 115.865,315.075 q -0.715,0 -1.21,-0.495 -0.495,-0.495 -0.495,-1.21 0,-0.715 0.495,-1.21 0.495,-0.495 1.21,-0.495 0.6875,0 1.155,0.495 0.495,0.495 0.495,1.21 0,0.715 -0.495,1.21 -0.4675,0.495 -1.155,0.495 z"
       style="font-size:27.5px;fill:#0d2c40"
       id="path2989" />
    <path
       d="m 119.76997,297.31 v -2.2825 h 5.17 V 314.91 h -2.53 v -17.6 z"
       style="font-size:27.5px;fill:#0d2c40"
       id="path2991" />
  </g>
  <g
     aria-label="192.168.2.0/24"
     id="text2554"
     style="font-weight:500;font-size:40px;line-height:125%;font-family:Poppins;-inkscape-font-specification:'Poppins Medium';letter-spacing:0;word-spacing:0">
    <path
       d="m 113.515,414.91001 v -2.2825 h 5.17 v 19.8825 h -2.53 v -17.6 z"
       style="font-size:27.5px;fill:#0d2c40"
       id="path2960" />
    <path
       d="m 126.19249,427.17501 q 0.275,1.5675 1.265,2.42 1.0175,0.8525 2.7225,0.8525 2.2825,0 3.355,-1.7875 1.1,-1.7875 1.045,-6.0225 -0.5775,1.2375 -1.925,1.9525 -1.3475,0.6875 -2.9975,0.6875 -1.8425,0 -3.3,-0.7425 -1.43,-0.77 -2.255,-2.2275 -0.825,-1.4575 -0.825,-3.52 0,-2.9425 1.705,-4.73 1.705,-1.815 4.84,-1.815 3.85,0 5.39,2.5025 1.5675,2.5025 1.5675,7.4525 0,3.465 -0.6325,5.72 -0.605,2.255 -2.09,3.4375 -1.4575,1.1825 -4.015,1.1825 -2.805,0 -4.3725,-1.5125 -1.5675,-1.5125 -1.7875,-3.85 z m 3.8775,-4.015 q 1.8425,0 3.025,-1.1275 1.1825,-1.155 1.1825,-3.1075 0,-2.0625 -1.155,-3.3275 -1.155,-1.265 -3.245,-1.265 -1.925,0 -3.08,1.21 -1.1275,1.21 -1.1275,3.19 0,2.0075 1.1275,3.2175 1.1275,1.21 3.2725,1.21 z"
       style="font-size:27.5px;fill:#0d2c40"
       id="path2962" />
    <path
       d="m 139.99747,430.50251 q 3.4925,-2.805 5.4725,-4.5925 1.98,-1.815 3.3275,-3.7675 1.375,-1.98 1.375,-3.8775 0,-1.7875 -0.88,-2.805 -0.8525,-1.045 -2.7775,-1.045 -1.87,0 -2.915,1.1825 -1.0175,1.155 -1.1,3.1075 h -2.42 q 0.11,-3.08 1.87,-4.7575 1.76,-1.6775 4.5375,-1.6775 2.8325,0 4.4825,1.5675 1.6775,1.5675 1.6775,4.3175 0,2.2825 -1.375,4.455 -1.3475,2.145 -3.08,3.795 -1.7325,1.6225 -4.4275,3.795 h 9.46 v 2.09 h -13.2275 z"
       style="font-size:27.5px;fill:#0d2c40"
       id="path2964" />
    <path
       d="m 157.32249,432.67501 q -0.715,0 -1.21,-0.495 -0.495,-0.495 -0.495,-1.21 0,-0.715 0.495,-1.21 0.495,-0.495 1.21,-0.495 0.6875,0 1.155,0.495 0.495,0.495 0.495,1.21 0,0.715 -0.495,1.21 -0.4675,0.495 -1.155,0.495 z"
       style="font-size:27.5px;fill:#0d2c40"
       id="path2966" />
    <path
       d="m 161.22746,414.91001 v -2.2825 h 5.17 v 19.8825 h -2.53 v -17.6 z"
       style="font-size:27.5px;fill:#0d2c40"
       id="path2968" />
    <path
       d="m 181.76996,417.35751 q -0.605,-3.0525 -3.7675,-3.0525 -2.4475,0 -3.6575,1.8975 -1.21,1.87 -1.1825,6.1875 0.6325,-1.43 2.09,-2.2275 1.485,-0.825 3.3,-0.825 2.8325,0 4.51,1.76 1.705,1.76 1.705,4.8675 0,1.87 -0.7425,3.355 -0.715,1.485 -2.2,2.365 -1.4575,0.88 -3.5475,0.88 -2.8325,0 -4.4275,-1.265 -1.595,-1.265 -2.2275,-3.4925 -0.6325,-2.2275 -0.6325,-5.5 0,-10.0925 7.04,-10.0925 2.695,0 4.235,1.4575 1.54,1.4575 1.815,3.685 z m -3.74,4.0975 q -1.1825,0 -2.2275,0.495 -1.045,0.4675 -1.705,1.4575 -0.6325,0.9625 -0.6325,2.365 0,2.09 1.21,3.41 1.21,1.2925 3.465,1.2925 1.925,0 3.0525,-1.1825 1.155,-1.21 1.155,-3.245 0,-2.145 -1.1,-3.355 -1.1,-1.2375 -3.2175,-1.2375 z"
       style="font-size:27.5px;fill:#0d2c40"
       id="path2970" />
    <path
       d="m 191.77996,422.17001 q -1.54,-0.605 -2.365,-1.76 -0.825,-1.155 -0.825,-2.805 0,-1.485 0.7425,-2.6675 0.7425,-1.21 2.2,-1.8975 1.485,-0.715 3.575,-0.715 2.09,0 3.5475,0.715 1.485,0.6875 2.2275,1.8975 0.77,1.1825 0.77,2.6675 0,1.595 -0.8525,2.805 -0.8525,1.1825 -2.3375,1.76 1.705,0.5225 2.695,1.8425 1.0175,1.2925 1.0175,3.135 0,1.7875 -0.88,3.135 -0.88,1.32 -2.5025,2.0625 -1.595,0.715 -3.685,0.715 -2.09,0 -3.685,-0.715 -1.5675,-0.7425 -2.4475,-2.0625 -0.88,-1.3475 -0.88,-3.135 0,-1.8425 0.99,-3.1625 0.99,-1.32 2.695,-1.815 z m 7.4525,-4.2625 q 0,-1.6775 -1.1,-2.585 -1.1,-0.9075 -3.025,-0.9075 -1.8975,0 -2.9975,0.9075 -1.1,0.9075 -1.1,2.6125 0,1.54 1.1275,2.475 1.155,0.935 2.97,0.935 1.8425,0 2.97,-0.935 1.155,-0.9625 1.155,-2.5025 z m -4.125,5.3625 q -2.035,0 -3.3275,0.9625 -1.2925,0.935 -1.2925,2.8325 0,1.76 1.2375,2.8325 1.265,1.0725 3.3825,1.0725 2.1175,0 3.355,-1.0725 1.2375,-1.0725 1.2375,-2.8325 0,-1.8425 -1.265,-2.805 -1.265,-0.99 -3.3275,-0.99 z"
       style="font-size:27.5px;fill:#0d2c40"
       id="path2972" />
    <path
       d="m 206.71248,432.67501 q -0.715,0 -1.21,-0.495 -0.495,-0.495 -0.495,-1.21 0,-0.715 0.495,-1.21 0.495,-0.495 1.21,-0.495 0.6875,0 1.155,0.495 0.495,0.495 0.495,1.21 0,0.715 -0.495,1.21 -0.4675,0.495 -1.155,0.495 z"
       style="font-size:27.5px;fill:#0d2c40"
       id="path2974" />
    <path
       d="m 210.97495,430.50251 q 3.4925,-2.805 5.4725,-4.5925 1.98,-1.815 3.3275,-3.7675 1.375,-1.98 1.375,-3.8775 0,-1.7875 -0.88,-2.805 -0.8525,-1.045 -2.7775,-1.045 -1.87,0 -2.915,1.1825 -1.0175,1.155 -1.1,3.1075 h -2.42 q 0.11,-3.08 1.87,-4.7575 1.76,-1.6775 4.5375,-1.6775 2.8325,0 4.4825,1.5675 1.6775,1.5675 1.6775,4.3175 0,2.2825 -1.375,4.455 -1.3475,2.145 -3.08,3.795 -1.7325,1.6225 -4.4275,3.795 h 9.46 v 2.09 h -13.2275 z"
       style="font-size:27.5px;fill:#0d2c40"
       id="path2976" />
    <path
       d="m 228.29997,432.67501 q -0.715,0 -1.21,-0.495 -0.495,-0.495 -0.495,-1.21 0,-0.715 0.495,-1.21 0.495,-0.495 1.21,-0.495 0.6875,0 1.155,0.495 0.495,0.495 0.495,1.21 0,0.715 -0.495,1.21 -0.4675,0.495 -1.155,0.495 z"
       style="font-size:27.5px;fill:#0d2c40"
       id="path2978" />
    <path
       d="m 232.86495,422.36251 q 0,-4.73 1.54,-7.37 1.54,-2.6675 5.39,-2.6675 3.8225,0 5.3625,2.6675 1.54,2.64 1.54,7.37 0,4.8125 -1.54,7.48 -1.54,2.6675 -5.3625,2.6675 -3.85,0 -5.39,-2.6675 -1.54,-2.6675 -1.54,-7.48 z m 11.3575,0 q 0,-2.3925 -0.33,-4.0425 -0.3025,-1.6775 -1.2925,-2.695 -0.9625,-1.0175 -2.805,-1.0175 -1.87,0 -2.86,1.0175 -0.9625,1.0175 -1.2925,2.695 -0.3025,1.65 -0.3025,4.0425 0,2.475 0.3025,4.1525 0.33,1.6775 1.2925,2.695 0.99,1.0175 2.86,1.0175 1.8425,0 2.805,-1.0175 0.99,-1.0175 1.2925,-2.695 0.33,-1.6775 0.33,-4.1525 z"
       style="font-size:27.5px;fill:#0d2c40"
       id="path2980" />
    <path
       d="m 259.89746,406.60501 -7.535,30.58 h -2.475 l 7.5075,-30.58 z"
       style="font-size:27.5px;fill:#0d2c40"
       id="path2982" />
    <path
       d="m 262.92246,430.50251 q 3.4925,-2.805 5.4725,-4.5925 1.98,-1.815 3.3275,-3.7675 1.375,-1.98 1.375,-3.8775 0,-1.7875 -0.88,-2.805 -0.8525,-1.045 -2.7775,-1.045 -1.87,0 -2.915,1.1825 -1.0175,1.155 -1.1,3.1075 h -2.42 q 0.11,-3.08 1.87,-4.7575 1.76,-1.6775 4.5375,-1.6775 2.8325,0 4.4825,1.5675 1.6775,1.5675 1.6775,4.3175 0,2.2825 -1.375,4.455 -1.3475,2.145 -3.08,3.795 -1.7325,1.6225 -4.4275,3.795 h 9.46 v 2.09 h -13.2275 z"
       style="font-size:27.5px;fill:#0d2c40"
       id="path2984" />
    <path
       d="m 278.43247,428.08251 v -1.8975 l 9.6525,-13.365 h 2.9975 v 13.09 h 2.75 v 2.1725 h -2.75 v 4.4275 h -2.475 v -4.4275 z m 10.285,-12.65 -7.3975,10.4775 h 7.3975 z"
       style="font-size:27.5px;fill:#0d2c40"
       id="path2986" />
  </g>
  <g
     aria-label=".100"
     id="text2558"
     style="font-weight:500;font-size:40px;line-height:125%;font-family:Poppins;-inkscape-font-specification:'Poppins Medium';letter-spacing:0;word-spacing:0">
    <path
       d="m 414.87499,415.34499 q -0.715,0 -1.21,-0.495 -0.495,-0.495 -0.495,-1.21 0,-0.715 0.495,-1.21 0.495,-0.495 1.21,-0.495 0.6875,0 1.155,0.495 0.495,0.495 0.495,1.21 0,0.715 -0.495,1.21 -0.4675,0.495 -1.155,0.495 z"
       style="font-size:27.5px;fill:#0d2c40"
       id="path3084" />
    <path
       d="m 418.77997,397.57999 v -2.2825 h 5.17 v 19.8825 h -2.53 v -17.6 z"
       style="font-size:27.5px;fill:#0d2c40"
       id="path3086" />
    <path
       d="m 428.23996,405.03249 q 0,-4.73 1.54,-7.37 1.54,-2.6675 5.39,-2.6675 3.8225,0 5.3625,2.6675 1.54,2.64 1.54,7.37 0,4.8125 -1.54,7.48 -1.54,2.6675 -5.3625,2.6675 -3.85,0 -5.39,-2.6675 -1.54,-2.6675 -1.54,-7.48 z m 11.3575,0 q 0,-2.3925 -0.33,-4.0425 -0.3025,-1.6775 -1.2925,-2.695 -0.9625,-1.0175 -2.805,-1.0175 -1.87,0 -2.86,1.0175 -0.9625,1.0175 -1.2925,2.695 -0.3025,1.65 -0.3025,4.0425 0,2.475 0.3025,4.1525 0.33,1.6775 1.2925,2.695 0.99,1.0175 2.86,1.0175 1.8425,0 2.805,-1.0175 0.99,-1.0175 1.2925,-2.695 0.33,-1.6775 0.33,-4.1525 z"
       style="font-size:27.5px;fill:#0d2c40"
       id="path3088" />
    <path
       d="m 445.50997,405.03249 q 0,-4.73 1.54,-7.37 1.54,-2.6675 5.39,-2.6675 3.8225,0 5.3625,2.6675 1.54,2.64 1.54,7.37 0,4.8125 -1.54,7.48 -1.54,2.6675 -5.3625,2.6675 -3.85,0 -5.39,-2.6675 -1.54,-2.6675 -1.54,-7.48 z m 11.3575,0 q 0,-2.3925 -0.33,-4.0425 -0.3025,-1.6775 -1.2925,-2.695 -0.9625,-1.0175 -2.805,-1.0175 -1.87,0 -2.86,1.0175 -0.9625,1.0175 -1.2925,2.695 -0.3025,1.65 -0.3025,4.0425 0,2.475 0.3025,4.1525 0.33,1.6775 1.2925,2.695 0.99,1.0175 2.86,1.0175 1.8425,0 2.805,-1.0175 0.99,-1.0175 1.2925,-2.695 0.33,-1.6775 0.33,-4.1525 z"
       style="font-size:27.5px;fill:#0d2c40"
       id="path3090" />
  </g>
  <g
     transform="translate(-8.7 -.57)"
     id="g2568">
    <g
       aria-label="Venus"
       id="text2562"
       style="font-weight:500;font-size:40px;line-height:125%;font-family:Poppins;-inkscape-font-specification:'Poppins Medium';letter-spacing:0;word-spacing:0">
      <path
         d="M 700.2675,299.7125 693.035,318.88 h -2.8875 l -7.2325,-19.1675 h 2.6675 l 6.0225,16.5275 6.0225,-16.5275 z"
         style="font-size:27.5px;fill:#ffffff"
         id="path3338" />
      <path
         d="m 716.76751,310.7675 q 0,0.715 -0.0825,1.5125 h -12.045 q 0.1375,2.2275 1.5125,3.4925 1.4025,1.2375 3.3825,1.2375 1.6225,0 2.695,-0.7425 1.1,-0.77 1.54,-2.035 h 2.695 q -0.605,2.1725 -2.42,3.5475 -1.815,1.3475 -4.51,1.3475 -2.145,0 -3.85,-0.9625 -1.6775,-0.9625 -2.64,-2.7225 -0.9625,-1.7875 -0.9625,-4.125 0,-2.3375 0.935,-4.0975 0.935,-1.76 2.6125,-2.695 1.705,-0.9625 3.905,-0.9625 2.145,0 3.795,0.935 1.65,0.935 2.53,2.585 0.9075,1.6225 0.9075,3.685 z m -2.585,-0.5225 q 0,-1.43 -0.6325,-2.4475 -0.6325,-1.045 -1.7325,-1.5675 -1.0725,-0.55 -2.3925,-0.55 -1.8975,0 -3.245,1.21 -1.32,1.21 -1.5125,3.355 z"
         style="font-size:27.5px;fill:#ffffff"
         id="path3340" />
      <path
         d="m 727.41004,303.535 q 2.75,0 4.455,1.6775 1.705,1.65 1.705,4.785 v 8.8825 h -2.475 v -8.525 q 0,-2.255 -1.1275,-3.4375 -1.1275,-1.21 -3.08,-1.21 -1.98,0 -3.1625,1.2375 -1.155,1.2375 -1.155,3.6025 v 8.3325 h -2.5025 v -15.07 h 2.5025 v 2.145 q 0.7425,-1.155 2.0075,-1.7875 1.2925,-0.6325 2.8325,-0.6325 z"
         style="font-size:27.5px;fill:#ffffff"
         id="path3342" />
      <path
         d="m 751.03252,303.81 v 15.07 h -2.5025 v -2.2275 q -0.715,1.155 -2.0075,1.815 -1.265,0.6325 -2.805,0.6325 -1.76,0 -3.1625,-0.715 -1.4025,-0.7425 -2.2275,-2.2 -0.7975,-1.4575 -0.7975,-3.5475 V 303.81 h 2.475 v 8.4975 q 0,2.2275 1.1275,3.4375 1.1275,1.1825 3.08,1.1825 2.0075,0 3.1625,-1.2375 1.155,-1.2375 1.155,-3.6025 V 303.81 Z"
         style="font-size:27.5px;fill:#ffffff"
         id="path3344" />
      <path
         d="m 760.6025,319.1275 q -1.7325,0 -3.1075,-0.5775 -1.375,-0.605 -2.1725,-1.65 -0.7975,-1.0725 -0.88,-2.4475 h 2.585 q 0.11,1.1275 1.045,1.8425 0.9625,0.715 2.5025,0.715 1.43,0 2.255,-0.6325 0.825,-0.6325 0.825,-1.595 0,-0.99 -0.88,-1.4575 -0.88,-0.495 -2.7225,-0.9625 -1.6775,-0.44 -2.75,-0.88 -1.045,-0.4675 -1.815,-1.3475 -0.7425,-0.9075 -0.7425,-2.365 0,-1.155 0.6875,-2.1175 0.6875,-0.9625 1.9525,-1.5125 1.265,-0.5775 2.8875,-0.5775 2.5025,0 4.0425,1.265 1.54,1.265 1.65,3.465 h -2.5025 Q 763.38,307.11 762.5,306.395 q -0.8525,-0.715 -2.31,-0.715 -1.3475,0 -2.145,0.5775 -0.7975,0.5775 -0.7975,1.5125 0,0.7425 0.4675,1.2375 0.495,0.4675 1.21,0.77 0.7425,0.275 2.035,0.6325 1.6225,0.44 2.64,0.88 1.0175,0.4125 1.7325,1.265 0.7425,0.8525 0.77,2.2275 0,1.2375 -0.6875,2.2275 -0.6875,0.99 -1.9525,1.5675 -1.2375,0.55 -2.86,0.55 z"
         style="font-size:27.5px;fill:#ffffff"
         id="path3346" />
    </g>
    <g
       aria-label="（工作站）"
       id="text2566"
       style="font-weight:500;font-size:40px;line-height:125%;font-family:Poppins;-inkscape-font-specification:'Poppins Medium';letter-spacing:0;word-spacing:0">
      <path
         d="m 689.69748,355.395 1.71,-0.81 c -2.4525,-2.565 -4.14,-5.805 -4.14,-9.945 0,-4.14 1.6875,-7.38 4.14,-9.945 l -1.71,-0.81 c -2.565,2.5875 -4.455,6.1875 -4.455,10.755 0,4.5675 1.89,8.1675 4.455,10.755 z"
         style="font-size:22.5px;font-family:'Noto Sans CJK SC';-inkscape-font-specification:'Noto Sans CJK SC Medium';text-align:center;text-anchor:middle;fill:#ffffff"
         id="path3349" />
      <path
         d="m 704.77248,351.2325 v -12.33 h 7.83 v -2.16 h -17.775 v 2.16 h 7.605 v 12.33 h -8.7975 v 2.0925 h 20.1375 v -2.0925 z"
         style="font-size:22.5px;font-family:'Noto Sans CJK SC';-inkscape-font-specification:'Noto Sans CJK SC Medium';text-align:center;text-anchor:middle;fill:#ffffff"
         id="path3351" />
      <path
         d="m 721.08498,334.4025 c -1.215,3.285 -3.2175,6.57 -5.355,8.685 0.36,0.4725 0.9675,1.6425 1.17,2.16 0.63,-0.6525 1.26,-1.395 1.845,-2.205 v 11.88 h 2.115 V 339.735 c 0.855,-1.5075 1.62,-3.1275 2.2275,-4.7025 z m 15.4575,5.6025 v -2.0025 h -9.045 c 0.4275,-0.945 0.81,-1.935 1.17,-2.9025 l -2.0025,-0.54 c -1.08,3.24 -2.88,6.48 -4.86,8.55 0.4725,0.315 1.2825,1.0575 1.62,1.4175 1.08,-1.1925 2.115,-2.7675 3.06,-4.5225 h 1.26 v 14.94 h 2.1375 v -5.22 h 6.435 v -1.9575 h -6.435 v -2.9925 h 6.12 v -1.9125 h -6.12 v -2.8575 z"
         style="font-size:22.5px;font-family:'Noto Sans CJK SC';-inkscape-font-specification:'Noto Sans CJK SC Medium';text-align:center;text-anchor:middle;fill:#ffffff"
         id="path3353" />
      <path
         d="m 744.64248,337.71 c -0.27,-0.9 -0.9,-2.25 -1.53,-3.2625 l -1.8,0.5175 c 0.5625,1.0575 1.1925,2.475 1.44,3.375 z m 0.3825,11.61 c 0.5625,-2.2275 1.1475,-5.4 1.575,-7.965 l -1.9575,-0.3375 c -0.2475,2.655 -0.81,6.4125 -1.3725,8.7075 -1.7775,0.4275 -3.4425,0.765 -4.725,1.035 l 0.45,2.07 c 2.34,-0.5625 5.4675,-1.35 8.37,-2.07 l -0.2025,-1.935 z m -5.445,-7.7625 c 0.4725,2.4525 0.9,5.625 0.99,7.74 l 1.7325,-0.3375 c -0.135,-2.1375 -0.5625,-5.2425 -1.08,-7.7175 z m -0.81,-1.2375 h 8.7525 v -1.935 h -8.7525 z m 17.2125,11.61 h -6.0975 v -5.085 h 6.0975 z m 2.9925,-11.2275 V 338.7 h -5.445 v -4.41 h -2.1375 v 10.5975 h -3.5325 v 10.035 h 2.025 v -1.035 h 6.0975 v 0.945 h 2.115 v -9.945 h -4.5675 v -4.185 z"
         style="font-size:22.5px;font-family:'Noto Sans CJK SC';-inkscape-font-specification:'Noto Sans CJK SC Medium';text-align:center;text-anchor:middle;fill:#ffffff"
         id="path3355" />
      <path
         d="m 762.64248,333.885 -1.71,0.81 c 2.4525,2.565 4.14,5.805 4.14,9.945 0,4.14 -1.6875,7.38 -4.14,9.945 l 1.71,0.81 c 2.565,-2.5875 4.455,-6.1875 4.455,-10.755 0,-4.5675 -1.89,-8.1675 -4.455,-10.755 z"
         style="font-size:22.5px;font-family:'Noto Sans CJK SC';-inkscape-font-specification:'Noto Sans CJK SC Medium';text-align:center;text-anchor:middle;fill:#ffffff"
         id="path3357" />
    </g>
  </g>
  <g
     transform="translate(-18.48 .18)"
     id="g2578">
    <g
       aria-label="Jupiter"
       id="text2572"
       style="font-weight:500;font-size:40px;line-height:125%;font-family:Poppins;-inkscape-font-specification:'Poppins Medium';letter-spacing:0;word-spacing:0">
      <path
         d="m 494.59001,299.9925 v 14.1625 q 0,2.365 -1.4575,3.795 -1.4575,1.4025 -3.85,1.4025 -2.42,0 -3.8775,-1.43 -1.4575,-1.4575 -1.4575,-3.96 h 2.5025 q 0.0275,1.4025 0.715,2.2825 0.715,0.88 2.1175,0.88 1.4025,0 2.09,-0.825 0.6875,-0.8525 0.6875,-2.145 v -14.1625 z"
         style="font-size:27.5px;fill:#ffffff"
         id="path3186" />
      <path
         d="m 512.87753,304.09 v 15.07 h -2.5025 v -2.2275 q -0.715,1.155 -2.0075,1.815 -1.265,0.6325 -2.805,0.6325 -1.76,0 -3.1625,-0.715 -1.4025,-0.7425 -2.2275,-2.2 -0.7975,-1.4575 -0.7975,-3.5475 V 304.09 h 2.475 v 8.4975 q 0,2.2275 1.1275,3.4375 1.1275,1.1825 3.08,1.1825 2.0075,0 3.1625,-1.2375 1.155,-1.2375 1.155,-3.6025 V 304.09 Z"
         style="font-size:27.5px;fill:#ffffff"
         id="path3188" />
      <path
         d="m 519.61501,306.8675 q 0.7425,-1.2925 2.2,-2.145 1.485,-0.88 3.4375,-0.88 2.0075,0 3.63,0.9625 1.65,0.9625 2.585,2.7225 0.935,1.7325 0.935,4.0425 0,2.2825 -0.935,4.07 -0.935,1.7875 -2.585,2.7775 -1.6225,0.99 -3.63,0.99 -1.925,0 -3.41,-0.8525 -1.4575,-0.88 -2.2275,-2.1725 v 9.9275 h -2.5025 v -22.22 h 2.5025 z m 10.23,4.7025 q 0,-1.705 -0.6875,-2.97 -0.6875,-1.265 -1.87,-1.925 -1.155,-0.66 -2.5575,-0.66 -1.375,0 -2.5575,0.6875 -1.155,0.66 -1.87,1.9525 -0.6875,1.265 -0.6875,2.9425 0,1.705 0.6875,2.9975 0.715,1.265 1.87,1.9525 1.1825,0.66 2.5575,0.66 1.4025,0 2.5575,-0.66 1.1825,-0.6875 1.87,-1.9525 0.6875,-1.2925 0.6875,-3.025 z"
         style="font-size:27.5px;fill:#ffffff"
         id="path3190" />
      <path
         d="m 536.99503,301.6425 q -0.715,0 -1.21,-0.495 -0.495,-0.495 -0.495,-1.21 0,-0.715 0.495,-1.21 0.495,-0.495 1.21,-0.495 0.6875,0 1.155,0.495 0.495,0.495 0.495,1.21 0,0.715 -0.495,1.21 -0.4675,0.495 -1.155,0.495 z m 1.21,2.4475 v 15.07 h -2.5025 v -15.07 z"
         style="font-size:27.5px;fill:#ffffff"
         id="path3192" />
      <path
         d="m 545.52003,306.1525 v 8.8825 q 0,1.1 0.4675,1.5675 0.4675,0.44 1.6225,0.44 h 1.8425 v 2.1175 h -2.255 q -2.09,0 -3.135,-0.9625 -1.045,-0.9625 -1.045,-3.1625 v -8.8825 h -1.9525 V 304.09 h 1.9525 v -3.795 h 2.5025 v 3.795 h 3.9325 v 2.0625 z"
         style="font-size:27.5px;fill:#ffffff"
         id="path3194" />
      <path
         d="m 566.22754,311.0475 q 0,0.715 -0.0825,1.5125 h -12.045 q 0.1375,2.2275 1.5125,3.4925 1.4025,1.2375 3.3825,1.2375 1.6225,0 2.695,-0.7425 1.1,-0.77 1.54,-2.035 h 2.695 q -0.605,2.1725 -2.42,3.5475 -1.815,1.3475 -4.51,1.3475 -2.145,0 -3.85,-0.9625 -1.6775,-0.9625 -2.64,-2.7225 -0.9625,-1.7875 -0.9625,-4.125 0,-2.3375 0.935,-4.0975 0.935,-1.76 2.6125,-2.695 1.705,-0.9625 3.905,-0.9625 2.145,0 3.795,0.935 1.65,0.935 2.53,2.585 0.9075,1.6225 0.9075,3.685 z m -2.585,-0.5225 q 0,-1.43 -0.6325,-2.4475 -0.6325,-1.045 -1.7325,-1.5675 -1.0725,-0.55 -2.3925,-0.55 -1.8975,0 -3.245,1.21 -1.32,1.21 -1.5125,3.355 z"
         style="font-size:27.5px;fill:#ffffff"
         id="path3196" />
      <path
         d="m 572.03006,306.5375 q 0.66,-1.2925 1.87,-2.0075 1.2375,-0.715 2.9975,-0.715 v 2.585 h -0.66 q -4.2075,0 -4.2075,4.565 v 8.195 h -2.5025 v -15.07 h 2.5025 z"
         style="font-size:27.5px;fill:#ffffff"
         id="path3198" />
    </g>
    <g
       aria-label="（工作站）"
       id="text2576"
       style="font-weight:500;font-size:40px;line-height:125%;font-family:Poppins;-inkscape-font-specification:'Poppins Medium';letter-spacing:0;word-spacing:0">
      <path
         d="m 494.4675,353.66499 1.71,-0.81 c -2.4525,-2.565 -4.14,-5.805 -4.14,-9.945 0,-4.14 1.6875,-7.38 4.14,-9.945 l -1.71,-0.81 c -2.565,2.5875 -4.455,6.1875 -4.455,10.755 0,4.5675 1.89,8.1675 4.455,10.755 z"
         style="font-size:22.5px;font-family:'Noto Sans CJK SC';-inkscape-font-specification:'Noto Sans CJK SC Medium';text-align:center;text-anchor:middle;fill:#ffffff"
         id="path3201" />
      <path
         d="m 509.5425,349.50249 v -12.33 h 7.83 v -2.16 h -17.775 v 2.16 h 7.605 v 12.33 h -8.7975 v 2.0925 h 20.1375 v -2.0925 z"
         style="font-size:22.5px;font-family:'Noto Sans CJK SC';-inkscape-font-specification:'Noto Sans CJK SC Medium';text-align:center;text-anchor:middle;fill:#ffffff"
         id="path3203" />
      <path
         d="m 525.855,332.67249 c -1.215,3.285 -3.2175,6.57 -5.355,8.685 0.36,0.4725 0.9675,1.6425 1.17,2.16 0.63,-0.6525 1.26,-1.395 1.845,-2.205 v 11.88 h 2.115 v -15.1875 c 0.855,-1.5075 1.62,-3.1275 2.2275,-4.7025 z m 15.4575,5.6025 v -2.0025 h -9.045 c 0.4275,-0.945 0.81,-1.935 1.17,-2.9025 l -2.0025,-0.54 c -1.08,3.24 -2.88,6.48 -4.86,8.55 0.4725,0.315 1.2825,1.0575 1.62,1.4175 1.08,-1.1925 2.115,-2.7675 3.06,-4.5225 h 1.26 v 14.94 h 2.1375 v -5.22 h 6.435 v -1.9575 h -6.435 v -2.9925 h 6.12 v -1.9125 h -6.12 v -2.8575 z"
         style="font-size:22.5px;font-family:'Noto Sans CJK SC';-inkscape-font-specification:'Noto Sans CJK SC Medium';text-align:center;text-anchor:middle;fill:#ffffff"
         id="path3205" />
      <path
         d="m 549.4125,335.97999 c -0.27,-0.9 -0.9,-2.25 -1.53,-3.2625 l -1.8,0.5175 c 0.5625,1.0575 1.1925,2.475 1.44,3.375 z m 0.3825,11.61 c 0.5625,-2.2275 1.1475,-5.4 1.575,-7.965 l -1.9575,-0.3375 c -0.2475,2.655 -0.81,6.4125 -1.3725,8.7075 -1.7775,0.4275 -3.4425,0.765 -4.725,1.035 l 0.45,2.07 c 2.34,-0.5625 5.4675,-1.35 8.37,-2.07 l -0.2025,-1.935 z m -5.445,-7.7625 c 0.4725,2.4525 0.9,5.625 0.99,7.74 l 1.7325,-0.3375 c -0.135,-2.1375 -0.5625,-5.2425 -1.08,-7.7175 z m -0.81,-1.2375 h 8.7525 v -1.935 H 543.54 Z m 17.2125,11.61 h -6.0975 v -5.085 h 6.0975 z m 2.9925,-11.2275 v -2.0025 H 558.3 v -4.41 h -2.1375 v 10.5975 H 552.63 v 10.035 h 2.025 v -1.035 h 6.0975 v 0.945 h 2.115 v -9.945 H 558.3 v -4.185 z"
         style="font-size:22.5px;font-family:'Noto Sans CJK SC';-inkscape-font-specification:'Noto Sans CJK SC Medium';text-align:center;text-anchor:middle;fill:#ffffff"
         id="path3207" />
      <path
         d="m 567.4125,332.15499 -1.71,0.81 c 2.4525,2.565 4.14,5.805 4.14,9.945 0,4.14 -1.6875,7.38 -4.14,9.945 l 1.71,0.81 c 2.565,-2.5875 4.455,-6.1875 4.455,-10.755 0,-4.5675 -1.89,-8.1675 -4.455,-10.755 z"
         style="font-size:22.5px;font-family:'Noto Sans CJK SC';-inkscape-font-specification:'Noto Sans CJK SC Medium';text-align:center;text-anchor:middle;fill:#ffffff"
         id="path3209" />
    </g>
  </g>
  <g
     aria-label="192.168.1.0/24"
     id="text2582"
     style="font-weight:500;font-size:40px;line-height:125%;font-family:Poppins;-inkscape-font-specification:'Poppins Medium';letter-spacing:0;word-spacing:0">
    <path
       d="m 113.515,19.460001 v -2.2825 h 5.17 v 19.8825 h -2.53 v -17.6 z"
       style="font-size:27.5px;fill:#0d2c40"
       id="path2868" />
    <path
       d="m 126.19249,31.725001 q 0.275,1.5675 1.265,2.42 1.0175,0.8525 2.7225,0.8525 2.2825,0 3.355,-1.7875 1.1,-1.7875 1.045,-6.0225 -0.5775,1.2375 -1.925,1.9525 -1.3475,0.6875 -2.9975,0.6875 -1.8425,0 -3.3,-0.7425 -1.43,-0.77 -2.255,-2.2275 -0.825,-1.4575 -0.825,-3.52 0,-2.9425 1.705,-4.73 1.705,-1.815 4.84,-1.815 3.85,0 5.39,2.5025 1.5675,2.5025 1.5675,7.4525 0,3.465 -0.6325,5.72 -0.605,2.255 -2.09,3.4375 -1.4575,1.1825 -4.015,1.1825 -2.805,0 -4.3725,-1.5125 -1.5675,-1.5125 -1.7875,-3.85 z m 3.8775,-4.015 q 1.8425,0 3.025,-1.1275 1.1825,-1.155 1.1825,-3.1075 0,-2.0625 -1.155,-3.3275 -1.155,-1.265 -3.245,-1.265 -1.925,0 -3.08,1.21 -1.1275,1.21 -1.1275,3.19 0,2.0075 1.1275,3.2175 1.1275,1.21 3.2725,1.21 z"
       style="font-size:27.5px;fill:#0d2c40"
       id="path2870" />
    <path
       d="m 139.99747,35.052501 q 3.4925,-2.805 5.4725,-4.5925 1.98,-1.815 3.3275,-3.7675 1.375,-1.98 1.375,-3.8775 0,-1.7875 -0.88,-2.805 -0.8525,-1.045 -2.7775,-1.045 -1.87,0 -2.915,1.1825 -1.0175,1.155 -1.1,3.1075 h -2.42 q 0.11,-3.08 1.87,-4.7575 1.76,-1.6775 4.5375,-1.6775 2.8325,0 4.4825,1.5675 1.6775,1.5675 1.6775,4.3175 0,2.2825 -1.375,4.455 -1.3475,2.145 -3.08,3.795 -1.7325,1.6225 -4.4275,3.795 h 9.46 v 2.09 h -13.2275 z"
       style="font-size:27.5px;fill:#0d2c40"
       id="path2872" />
    <path
       d="m 157.32249,37.225001 q -0.715,0 -1.21,-0.495 -0.495,-0.495 -0.495,-1.21 0,-0.715 0.495,-1.21 0.495,-0.495 1.21,-0.495 0.6875,0 1.155,0.495 0.495,0.495 0.495,1.21 0,0.715 -0.495,1.21 -0.4675,0.495 -1.155,0.495 z"
       style="font-size:27.5px;fill:#0d2c40"
       id="path2874" />
    <path
       d="m 161.22746,19.460001 v -2.2825 h 5.17 v 19.8825 h -2.53 v -17.6 z"
       style="font-size:27.5px;fill:#0d2c40"
       id="path2876" />
    <path
       d="m 181.76996,21.907501 q -0.605,-3.0525 -3.7675,-3.0525 -2.4475,0 -3.6575,1.8975 -1.21,1.87 -1.1825,6.1875 0.6325,-1.43 2.09,-2.2275 1.485,-0.825 3.3,-0.825 2.8325,0 4.51,1.76 1.705,1.76 1.705,4.8675 0,1.87 -0.7425,3.355 -0.715,1.485 -2.2,2.365 -1.4575,0.88 -3.5475,0.88 -2.8325,0 -4.4275,-1.265 -1.595,-1.265 -2.2275,-3.4925 -0.6325,-2.2275 -0.6325,-5.5 0,-10.0925 7.04,-10.0925 2.695,0 4.235,1.4575 1.54,1.4575 1.815,3.685 z m -3.74,4.0975 q -1.1825,0 -2.2275,0.495 -1.045,0.4675 -1.705,1.4575 -0.6325,0.9625 -0.6325,2.365 0,2.09 1.21,3.41 1.21,1.2925 3.465,1.2925 1.925,0 3.0525,-1.1825 1.155,-1.21 1.155,-3.245 0,-2.145 -1.1,-3.355 -1.1,-1.2375 -3.2175,-1.2375 z"
       style="font-size:27.5px;fill:#0d2c40"
       id="path2878" />
    <path
       d="m 191.77996,26.720001 q -1.54,-0.605 -2.365,-1.76 -0.825,-1.155 -0.825,-2.805 0,-1.485 0.7425,-2.6675 0.7425,-1.21 2.2,-1.8975 1.485,-0.715 3.575,-0.715 2.09,0 3.5475,0.715 1.485,0.6875 2.2275,1.8975 0.77,1.1825 0.77,2.6675 0,1.595 -0.8525,2.805 -0.8525,1.1825 -2.3375,1.76 1.705,0.5225 2.695,1.8425 1.0175,1.2925 1.0175,3.135 0,1.7875 -0.88,3.135 -0.88,1.32 -2.5025,2.0625 -1.595,0.715 -3.685,0.715 -2.09,0 -3.685,-0.715 -1.5675,-0.7425 -2.4475,-2.0625 -0.88,-1.3475 -0.88,-3.135 0,-1.8425 0.99,-3.1625 0.99,-1.32 2.695,-1.815 z m 7.4525,-4.2625 q 0,-1.6775 -1.1,-2.585 -1.1,-0.9075 -3.025,-0.9075 -1.8975,0 -2.9975,0.9075 -1.1,0.9075 -1.1,2.6125 0,1.54 1.1275,2.475 1.155,0.935 2.97,0.935 1.8425,0 2.97,-0.935 1.155,-0.9625 1.155,-2.5025 z m -4.125,5.3625 q -2.035,0 -3.3275,0.9625 -1.2925,0.935 -1.2925,2.8325 0,1.76 1.2375,2.8325 1.265,1.0725 3.3825,1.0725 2.1175,0 3.355,-1.0725 1.2375,-1.0725 1.2375,-2.8325 0,-1.8425 -1.265,-2.805 -1.265,-0.99 -3.3275,-0.99 z"
       style="font-size:27.5px;fill:#0d2c40"
       id="path2880" />
    <path
       d="m 206.71248,37.225001 q -0.715,0 -1.21,-0.495 -0.495,-0.495 -0.495,-1.21 0,-0.715 0.495,-1.21 0.495,-0.495 1.21,-0.495 0.6875,0 1.155,0.495 0.495,0.495 0.495,1.21 0,0.715 -0.495,1.21 -0.4675,0.495 -1.155,0.495 z"
       style="font-size:27.5px;fill:#0d2c40"
       id="path2882" />
    <path
       d="m 210.61745,19.460001 v -2.2825 h 5.17 v 19.8825 h -2.53 v -17.6 z"
       style="font-size:27.5px;fill:#0d2c40"
       id="path2884" />
    <path
       d="m 221.28744,37.225001 q -0.715,0 -1.21,-0.495 -0.495,-0.495 -0.495,-1.21 0,-0.715 0.495,-1.21 0.495,-0.495 1.21,-0.495 0.6875,0 1.155,0.495 0.495,0.495 0.495,1.21 0,0.715 -0.495,1.21 -0.4675,0.495 -1.155,0.495 z"
       style="font-size:27.5px;fill:#0d2c40"
       id="path2886" />
    <path
       d="m 225.85242,26.912501 q 0,-4.73 1.54,-7.37 1.54,-2.6675 5.39,-2.6675 3.8225,0 5.3625,2.6675 1.54,2.64 1.54,7.37 0,4.8125 -1.54,7.48 -1.54,2.6675 -5.3625,2.6675 -3.85,0 -5.39,-2.6675 -1.54,-2.6675 -1.54,-7.48 z m 11.3575,0 q 0,-2.3925 -0.33,-4.0425 -0.3025,-1.6775 -1.2925,-2.695 -0.9625,-1.0175 -2.805,-1.0175 -1.87,0 -2.86,1.0175 -0.9625,1.0175 -1.2925,2.695 -0.3025,1.65 -0.3025,4.0425 0,2.475 0.3025,4.1525 0.33,1.6775 1.2925,2.695 0.99,1.0175 2.86,1.0175 1.8425,0 2.805,-1.0175 0.99,-1.0175 1.2925,-2.695 0.33,-1.6775 0.33,-4.1525 z"
       style="font-size:27.5px;fill:#0d2c40"
       id="path2888" />
    <path
       d="m 252.88492,11.155001 -7.535,30.58 h -2.475 l 7.5075,-30.58 z"
       style="font-size:27.5px;fill:#0d2c40"
       id="path2890" />
    <path
       d="m 255.90992,35.052501 q 3.4925,-2.805 5.4725,-4.5925 1.98,-1.815 3.3275,-3.7675 1.375,-1.98 1.375,-3.8775 0,-1.7875 -0.88,-2.805 -0.8525,-1.045 -2.7775,-1.045 -1.87,0 -2.915,1.1825 -1.0175,1.155 -1.1,3.1075 h -2.42 q 0.11,-3.08 1.87,-4.7575 1.76,-1.6775 4.5375,-1.6775 2.8325,0 4.4825,1.5675 1.6775,1.5675 1.6775,4.3175 0,2.2825 -1.375,4.455 -1.3475,2.145 -3.08,3.795 -1.7325,1.6225 -4.4275,3.795 h 9.46 v 2.09 h -13.2275 z"
       style="font-size:27.5px;fill:#0d2c40"
       id="path2892" />
    <path
       d="m 271.41995,32.632501 v -1.8975 l 9.6525,-13.365 h 2.9975 v 13.09 h 2.75 v 2.1725 h -2.75 v 4.4275 h -2.475 v -4.4275 z m 10.285,-12.65 -7.3975,10.4775 h 7.3975 z"
       style="font-size:27.5px;fill:#0d2c40"
       id="path2894" />
  </g>
  <g
     aria-label=".1"
     transform="scale(1.00002 .99998)"
     id="text2586"
     style="font-weight:500;font-size:40px;line-height:125%;font-family:Poppins;-inkscape-font-specification:'Poppins Medium';letter-spacing:0;word-spacing:0">
    <path
       d="m 115.865,154.475 q -0.715,0 -1.21,-0.495 -0.495,-0.495 -0.495,-1.21 0,-0.715 0.495,-1.21 0.495,-0.495 1.21,-0.495 0.6875,0 1.155,0.495 0.495,0.495 0.495,1.21 0,0.715 -0.495,1.21 -0.4675,0.495 -1.155,0.495 z"
       style="font-size:27.5px;fill:#0d2c40"
       id="path2897" />
    <path
       d="m 119.76997,136.71 v -2.2825 h 5.17 V 154.31 h -2.53 v -17.6 z"
       style="font-size:27.5px;fill:#0d2c40"
       id="path2899" />
  </g>
  <g
     aria-label=".116"
     id="text2590"
     style="font-weight:500;font-size:40px;line-height:125%;font-family:Poppins;-inkscape-font-specification:'Poppins Medium';letter-spacing:0;word-spacing:0">
    <path
       d="m 414.87499,54.604999 q -0.715,0 -1.21,-0.495 -0.495,-0.495 -0.495,-1.21 0,-0.715 0.495,-1.21 0.495,-0.495 1.21,-0.495 0.6875,0 1.155,0.495 0.495,0.495 0.495,1.21 0,0.715 -0.495,1.21 -0.4675,0.495 -1.155,0.495 z"
       style="font-size:27.5px;fill:#0d2c40"
       id="path3066" />
    <path
       d="m 418.77997,36.839999 v -2.2825 h 5.17 v 19.8825 h -2.53 v -17.6 z"
       style="font-size:27.5px;fill:#0d2c40"
       id="path3068" />
    <path
       d="m 427.57996,36.839999 v -2.2825 h 5.17 v 19.8825 h -2.53 v -17.6 z"
       style="font-size:27.5px;fill:#0d2c40"
       id="path3070" />
    <path
       d="m 448.12245,39.287499 q -0.605,-3.0525 -3.7675,-3.0525 -2.4475,0 -3.6575,1.8975 -1.21,1.87 -1.1825,6.1875 0.6325,-1.43 2.09,-2.2275 1.485,-0.825 3.3,-0.825 2.8325,0 4.51,1.76 1.705,1.76 1.705,4.8675 0,1.87 -0.7425,3.355 -0.715,1.485 -2.2,2.365 -1.4575,0.88 -3.5475,0.88 -2.8325,0 -4.4275,-1.265 -1.595,-1.265 -2.2275,-3.4925 -0.6325,-2.2275 -0.6325,-5.5 0,-10.0925 7.04,-10.0925 2.695,0 4.235,1.4575 1.54,1.4575 1.815,3.685 z m -3.74,4.0975 q -1.1825,0 -2.2275,0.495 -1.045,0.4675 -1.705,1.4575 -0.6325,0.9625 -0.6325,2.365 0,2.09 1.21,3.41 1.21,1.2925 3.465,1.2925 1.925,0 3.0525,-1.1825 1.155,-1.21 1.155,-3.245 0,-2.145 -1.1,-3.355 -1.1,-1.2375 -3.2175,-1.2375 z"
       style="font-size:27.5px;fill:#0d2c40"
       id="path3072" />
  </g>
  <g
     aria-label=".114"
     id="text2594"
     style="font-weight:500;font-size:40px;line-height:125%;font-family:Poppins;-inkscape-font-specification:'Poppins Medium';letter-spacing:0;word-spacing:0">
    <path
       d="m 769.96499,54.514998 q -0.715,0 -1.21,-0.495 -0.495,-0.495 -0.495,-1.21 0,-0.715 0.495,-1.21 0.495,-0.495 1.21,-0.495 0.6875,0 1.155,0.495 0.495,0.495 0.495,1.21 0,0.715 -0.495,1.21 -0.4675,0.495 -1.155,0.495 z"
       style="font-size:27.5px;fill:#0d2c40"
       id="path3075" />
    <path
       d="m 773.86996,36.749998 v -2.2825 h 5.17 v 19.8825 h -2.53 v -17.6 z"
       style="font-size:27.5px;fill:#0d2c40"
       id="path3077" />
    <path
       d="m 782.66995,36.749998 v -2.2825 h 5.17 v 19.8825 h -2.53 v -17.6 z"
       style="font-size:27.5px;fill:#0d2c40"
       id="path3079" />
    <path
       d="m 791.52495,49.922498 v -1.8975 l 9.6525,-13.365 h 2.9975 v 13.09 h 2.75 v 2.1725 h -2.75 v 4.4275 h -2.475 v -4.4275 z m 10.285,-12.65 -7.3975,10.4775 h 7.3975 z"
       style="font-size:27.5px;fill:#0d2c40"
       id="path3081" />
  </g>
  <g
     aria-label=".101"
     id="text2598"
     style="font-weight:500;font-size:40px;line-height:125%;font-family:Poppins;-inkscape-font-specification:'Poppins Medium';letter-spacing:0;word-spacing:0">
    <path
       d="m 775.535,415.34499 q -0.715,0 -1.21,-0.495 -0.495,-0.495 -0.495,-1.21 0,-0.715 0.495,-1.21 0.495,-0.495 1.21,-0.495 0.6875,0 1.155,0.495 0.495,0.495 0.495,1.21 0,0.715 -0.495,1.21 -0.4675,0.495 -1.155,0.495 z"
       style="font-size:27.5px;fill:#0d2c40"
       id="path3093" />
    <path
       d="m 779.43997,397.57999 v -2.2825 h 5.17 v 19.8825 h -2.53 v -17.6 z"
       style="font-size:27.5px;fill:#0d2c40"
       id="path3095" />
    <path
       d="m 788.89996,405.03249 q 0,-4.73 1.54,-7.37 1.54,-2.6675 5.39,-2.6675 3.8225,0 5.3625,2.6675 1.54,2.64 1.54,7.37 0,4.8125 -1.54,7.48 -1.54,2.6675 -5.3625,2.6675 -3.85,0 -5.39,-2.6675 -1.54,-2.6675 -1.54,-7.48 z m 11.3575,0 q 0,-2.3925 -0.33,-4.0425 -0.3025,-1.6775 -1.2925,-2.695 -0.9625,-1.0175 -2.805,-1.0175 -1.87,0 -2.86,1.0175 -0.9625,1.0175 -1.2925,2.695 -0.3025,1.65 -0.3025,4.0425 0,2.475 0.3025,4.1525 0.33,1.6775 1.2925,2.695 0.99,1.0175 2.86,1.0175 1.8425,0 2.805,-1.0175 0.99,-1.0175 1.2925,-2.695 0.33,-1.6775 0.33,-4.1525 z"
       style="font-size:27.5px;fill:#0d2c40"
       id="path3097" />
    <path
       d="m 805.50997,397.57999 v -2.2825 h 5.17 v 19.8825 h -2.53 v -17.6 z"
       style="font-size:27.5px;fill:#0d2c40"
       id="path3099" />
  </g>
</svg>
