<?xml version="1.0" encoding="UTF-8" standalone="no"?>
<svg
   xmlns:dc="http://purl.org/dc/elements/1.1/"
   xmlns:cc="http://creativecommons.org/ns#"
   xmlns:rdf="http://www.w3.org/1999/02/22-rdf-syntax-ns#"
   xmlns:svg="http://www.w3.org/2000/svg"
   xmlns="http://www.w3.org/2000/svg"
   xmlns:xlink="http://www.w3.org/1999/xlink"
   xmlns:sodipodi="http://sodipodi.sourceforge.net/DTD/sodipodi-0.dtd"
   xmlns:inkscape="http://www.inkscape.org/namespaces/inkscape"
   width="1153"
   height="447"
   version="1.1"
   id="svg191"
   sodipodi:docname="new-maintenance-model+ltss.svg"
   inkscape:version="0.92.4 (5da689c313, 2019-01-14)">
  <sodipodi:namedview
     pagecolor="#ffffff"
     bordercolor="#666666"
     borderopacity="1"
     objecttolerance="10"
     gridtolerance="10"
     guidetolerance="10"
     inkscape:pageopacity="0"
     inkscape:pageshadow="2"
     inkscape:window-width="1920"
     inkscape:window-height="1027"
     id="namedview118"
     showgrid="false"
     inkscape:zoom="1.4080808"
     inkscape:cx="405.45294"
     inkscape:cy="223.5"
     inkscape:window-x="-8"
     inkscape:window-y="-8"
     inkscape:window-maximized="1"
     inkscape:current-layer="svg191" />
  <metadata
     id="metadata195">
    <rdf:RDF>
      <cc:Work
         rdf:about="">
        <dc:format>image/svg+xml</dc:format>
        <dc:type
           rdf:resource="http://purl.org/dc/dcmitype/StillImage" />
        <dc:title />
      </cc:Work>
    </rdf:RDF>
  </metadata>
  <defs
     id="defs86">
    <linearGradient
       id="linearGradient5393">
      <stop
         style="stop-color:#ffffff;stop-"
         offset="0"
         id="stop5395" />
      <stop
         style="stop-color:#ffffff;stop-opacity:0;"
         offset="1"
         id="stop5397" />
    </linearGradient>
    <linearGradient
       xlink:href="#linearGradient5393"
       id="linearGradient5399"
       x1="1109.5564"
       y1="41.785362"
       x2="967.62579"
       y2="41.785362"
       gradientUnits="userSpaceOnUse"
       gradientTransform="matrix(1,0,0,1.1566265,68,-1.72289)" />
  </defs>
  <path
     style="fill:#71d6e0;stroke-width:1.03108311"
     d="M 4.1894531,409 C 2.4225269,409 1,410.338 1,412 v 22 c 0,1.662 1.4225269,3 3.1894531,3 H 1102 l 50,-14 -50,-14 z"
     id="rect7" />
  <g
     aria-label="时间"
     style="font-weight:600;font-size:18.75px;font-family:'Open Sans';fill:#5f5f5f"
     id="text11">
    <path
       d="m 542.77498,417.055 v 3.69375 h -2.79375 V 417.055 Z m -2.79375,9.1125 v -3.88125 h 2.79375 v 3.88125 z m 4.425,-10.6875 h -6.05625 v 13.74375 h 1.63125 v -1.5 h 4.425 z m 10.4625,2.08125 h -2.1 v -3.46875 h -1.78125 v 3.46875 h -5.8125 v 1.725 h 5.8125 v 9.4125 c 0,0.39375 -0.15,0.50625 -0.525,0.525 -0.4125,0 -1.8,0 -3.16875,-0.0375 0.2625,0.4875 0.525,1.275 0.61875,1.7625 1.85625,0.0187 3.09375,-0.0375 3.84375,-0.31875 0.7125,-0.2625 1.0125,-0.76875 1.0125,-1.93125 v -9.4125 h 2.1 z m -4.95,7.36875 c -0.61875,-1.0875 -1.89375,-2.925 -2.86875,-4.275 l -1.425,0.75 c 0.95625,1.40625 2.175,3.31875 2.75625,4.425 z"
       style="font-style:normal;font-variant:normal;font-weight:500;font-stretch:normal;font-family:'Noto Sans CJK SC';-inkscape-font-specification:'Noto Sans CJK SC Medium';text-align:center;text-anchor:middle"
       id="path1000"
       inkscape:connector-curvature="0" />
    <path
       d="m 557.23123,431.17375 h 1.8 v -12.9 h -1.8 z m 0.2625,-16.18125 c 0.8625,0.84375 1.81875,2.04375 2.2125,2.8125 l 1.48125,-0.9375 c -0.43125,-0.7875 -1.4625,-1.93125 -2.325,-2.7 z m 5.4375,9.24375 h 4.0875 v 2.2125 h -4.0875 z m 0,-3.58125 h 4.0875 v 2.175 h -4.0875 z m -1.575,7.2 h 7.29375 v -8.625 h -7.29375 z m 11.45625,-12.9 h -10.6875 v 1.63125 h 8.8875 v 12.6 c 0,0.24375 -0.0562,0.31875 -0.31875,0.3375 -0.20625,0 -0.91875,0.0188 -1.63125,-0.0188 0.20625,0.4125 0.45,1.14375 0.525,1.575 1.125,0 1.96875,-0.0188 2.53125,-0.3 0.525,-0.28125 0.69375,-0.7125 0.69375,-1.59375 z"
       style="font-style:normal;font-variant:normal;font-weight:500;font-stretch:normal;font-family:'Noto Sans CJK SC';-inkscape-font-specification:'Noto Sans CJK SC Medium';text-align:center;text-anchor:middle"
       id="path1002"
       inkscape:connector-curvature="0" />
  </g>
  <rect
     ry="5.7831326"
     rx="5.795455"
     y="195"
     x="1"
     height="192"
     width="1122"
     style="fill:#ededed;stroke-width:1.15785813"
     id="rect13" />
  <rect
     style="fill:#02d35f"
     width="190"
     height="26"
     x="425"
     y="265"
     id="rect15" />
  <rect
     style="fill:#02d35f"
     width="190"
     height="26"
     x="155"
     y="317"
     id="rect17" />
  <g
     aria-label="SLES 12"
     style="font-weight:600;font-size:18.75px;font-family:'Open Sans';fill:#00c081"
     id="text19">
    <path
       d="m 26.569336,229.21126 q 0,1.78528 -1.290894,2.80151 -1.290893,1.01624 -3.561401,1.01624 -2.270508,0 -3.717041,-0.70496 v -2.06909 q 0.915527,0.4303 1.940918,0.67749 1.034546,0.24719 1.922607,0.24719 1.300049,0 1.913453,-0.49438 0.622558,-0.49439 0.622558,-1.32752 0,-0.75073 -0.567627,-1.27258 -0.567627,-0.52185 -2.34375,-1.23596 -1.831055,-0.74158 -2.581787,-1.69373 -0.750732,-0.95215 -0.750732,-2.28882 0,-1.67541 1.190185,-2.63672 1.190186,-0.9613 3.195191,-0.9613 1.922607,0 3.826904,0.84229 l -0.695801,1.78527 q -1.785278,-0.75073 -3.186035,-0.75073 -1.062012,0 -1.611328,0.46692 -0.549317,0.45776 -0.549317,1.21765 0,0.52185 0.219727,0.89722 0.219727,0.36621 0.723267,0.6958 0.50354,0.32959 1.812744,0.86975 1.473999,0.6134 2.160644,1.14441 0.686646,0.53101 1.00708,1.19934 0.320435,0.66834 0.320435,1.57471 z"
       style="font-weight:600;font-size:18.75px;font-family:'Open Sans';fill:#00c081"
       id="path1062"
       inkscape:connector-curvature="0" />
    <path
       d="m 29.178589,232.8459 v -13.38501 h 2.18811 v 11.50818 h 5.667114 v 1.87683 z"
       style="font-weight:600;font-size:18.75px;font-family:'Open Sans';fill:#00c081"
       id="path1064"
       inkscape:connector-curvature="0" />
    <path
       d="m 46.930664,232.8459 h -7.571411 v -13.38501 h 7.571411 v 1.84937 h -5.383301 v 3.6438 h 5.044556 v 1.83105 h -5.044556 v 4.20227 h 5.383301 z"
       style="font-weight:600;font-size:18.75px;font-family:'Open Sans';fill:#00c081"
       id="path1066"
       inkscape:connector-curvature="0" />
    <path
       d="m 57.550781,229.21126 q 0,1.78528 -1.290893,2.80151 -1.290894,1.01624 -3.561402,1.01624 -2.270507,0 -3.717041,-0.70496 v -2.06909 q 0.915528,0.4303 1.940918,0.67749 1.034546,0.24719 1.922608,0.24719 1.300049,0 1.913452,-0.49438 0.622558,-0.49439 0.622558,-1.32752 0,-0.75073 -0.567627,-1.27258 -0.567626,-0.52185 -2.34375,-1.23596 -1.831054,-0.74158 -2.581787,-1.69373 -0.750732,-0.95215 -0.750732,-2.28882 0,-1.67541 1.190186,-2.63672 1.190185,-0.9613 3.19519,-0.9613 1.922607,0 3.826904,0.84229 l -0.695801,1.78527 q -1.785278,-0.75073 -3.186035,-0.75073 -1.062011,0 -1.611328,0.46692 -0.549316,0.45776 -0.549316,1.21765 0,0.52185 0.219726,0.89722 0.219727,0.36621 0.723267,0.6958 0.50354,0.32959 1.812744,0.86975 1.473999,0.6134 2.160645,1.14441 0.686645,0.53101 1.00708,1.19934 0.320434,0.66834 0.320434,1.57471 z"
       style="font-weight:600;font-size:18.75px;font-family:'Open Sans';fill:#00c081"
       id="path1068"
       inkscape:connector-curvature="0" />
    <path
       d="m 70.404785,232.8459 h -2.151489 v -8.64258 q 0,-1.54724 0.07324,-2.45361 -0.210571,0.21973 -0.521851,0.48523 -0.302124,0.2655 -2.050781,1.68457 l -1.080322,-1.36414 3.936768,-3.09448 h 1.794433 z"
       style="font-weight:600;font-size:18.75px;font-family:'Open Sans';fill:#00c081"
       id="path1070"
       inkscape:connector-curvature="0" />
    <path
       d="m 83.853882,232.8459 h -9.072876 v -1.62964 l 3.451538,-3.46985 q 1.528931,-1.56555 2.023315,-2.21557 0.50354,-0.65918 0.732422,-1.23596 0.228882,-0.57679 0.228882,-1.23597 0,-0.90637 -0.549316,-1.42822 -0.540161,-0.52185 -1.501465,-0.52185 -0.769043,0 -1.49231,0.28381 -0.714111,0.28382 -1.657104,1.0254 l -1.16272,-1.41907 q 1.116943,-0.943 2.1698,-1.33667 1.052856,-0.39368 2.243042,-0.39368 1.867676,0 2.993774,0.97962 1.126099,0.97045 1.126099,2.6184 0,0.90638 -0.32959,1.72119 -0.320435,0.81482 -0.997925,1.68458 -0.668335,0.86059 -2.233886,2.33459 l -2.32544,2.2522 v 0.0916 h 6.35376 z"
       style="font-weight:600;font-size:18.75px;font-family:'Open Sans';fill:#00c081"
       id="path1072"
       inkscape:connector-curvature="0" />
  </g>
  <rect
     style="fill:#02d35f"
     width="190"
     height="26"
     x="20"
     y="343"
     id="rect21" />
  <rect
     style="opacity:0.5;fill:#92ecba"
     width="55"
     height="52"
     x="155"
     y="317"
     id="rect23" />
  <rect
     style="fill:#02d35f"
     width="190"
     height="26"
     x="290"
     y="291"
     id="rect25" />
  <rect
     style="opacity:0.5;fill:#92ecba"
     width="55"
     height="52"
     x="290"
     y="291"
     id="rect27" />
  <rect
     style="opacity:0.5;fill:#92ecba"
     width="55"
     height="52"
     x="425"
     y="265"
     id="rect29" />
  <rect
     style="fill:#02d35f;stroke-width:0.90889329"
     width="190"
     height="26"
     x="560"
     y="239"
     id="rect31" />
  <rect
     style="opacity:0.5;fill:#92ecba"
     width="55"
     height="52"
     x="560"
     y="239"
     id="rect33" />
  <rect
     style="fill:#a5efc6"
     width="160"
     height="26"
     x="210"
     y="343"
     id="rect35" />
  <rect
     style="fill:#a5efc6"
     width="160"
     height="26"
     x="345"
     y="317"
     id="rect37" />
  <rect
     style="fill:#a5efc6"
     width="160"
     height="26"
     x="480"
     y="291"
     id="rect39" />
  <rect
     style="fill:#a5efc6"
     width="160"
     height="26"
     x="615"
     y="265"
     id="rect41" />
  <rect
     style="fill:#a5efc6"
     width="160"
     height="26"
     x="750"
     y="239"
     id="rect43" />
  <rect
     y="263"
     x="560"
     height="2"
     width="350"
     style="fill:#a7a9ac;fill-opacity:0.58823529;stroke-width:0.94733095"
     id="rect45" />
  <rect
     y="341"
     x="155"
     height="2"
     width="350"
     style="fill:#a7a9ac;fill-opacity:0.58823529"
     id="rect47" />
  <rect
     y="367"
     x="20"
     height="2"
     width="350"
     style="fill:#a7a9ac;fill-opacity:0.58823529"
     id="rect49" />
  <rect
     y="315"
     x="290"
     height="2"
     width="350"
     style="fill:#a7a9ac;fill-opacity:0.58823529"
     id="rect51" />
  <rect
     y="289"
     x="425"
     height="2"
     width="350"
     style="fill:#a7a9ac;fill-opacity:0.58823529"
     id="rect53" />
  <rect
     style="fill:#5f5f5f;stroke-width:0.73567623"
     width="270.60977"
     height="36"
     x="406"
     y="362"
     rx="1.6236585"
     ry="3"
     id="rect55" />
  <g
     aria-label="3 年的长期服务包支持 (LTSS)"
     style="font-size:18.75px;font-family:'Open Sans';fill:#00c081"
     id="text57"
     transform="translate(-2,2)">
    <path
       d="m 434.41949,374.8786 q 0,1.28174 -0.72326,2.09656 -0.71411,0.81482 -2.03247,1.08948 v 0.0732 q 1.61133,0.20141 2.38952,1.02539 0.7782,0.82397 0.7782,2.16064 0,1.91346 -1.32751,2.948 -1.32752,1.02539 -3.77198,1.02539 -1.06201,0 -1.95007,-0.16479 -0.8789,-0.15564 -1.71203,-0.55847 v -1.44654 q 0.86975,0.4303 1.84936,0.65918 0.98877,0.21973 1.86768,0.21973 3.46984,0 3.46984,-2.71912 0,-2.4353 -3.8269,-2.4353 h -1.31836 v -1.3092 h 1.33667 q 1.56555,0 2.48108,-0.68665 0.91553,-0.6958 0.91553,-1.92261 0,-0.97961 -0.67749,-1.53808 -0.66834,-0.55847 -1.8219,-0.55847 -0.87891,0 -1.65711,0.23803 -0.77819,0.23804 -1.77612,0.87891 l -0.76904,-1.02539 q 0.82397,-0.65003 1.89514,-1.01624 1.08032,-0.37536 2.27051,-0.37536 1.95007,0 3.03039,0.89721 1.08032,0.88806 1.08032,2.44446 z"
       style="font-size:18.75px;font-family:'Open Sans';fill:#00c081"
       id="path967"
       inkscape:connector-curvature="0" />
    <path
       d="m 446.22863,380.9142 v -3.7125 h 4.2 v 3.7125 z m 12.39375,0 h -6.7875 v -3.7125 h 5.49375 v -1.3125 h -5.49375 v -2.85 h 5.925 v -1.35 h -11.175 c 0.3,-0.6375 0.6,-1.3125 0.8625,-1.96875 l -1.40625,-0.3375 c -0.88125,2.5125 -2.45625,4.93125 -4.21875,6.46875 0.35625,0.1875 0.9375,0.65625 1.2,0.88125 1.0125,-0.975 2.00625,-2.25 2.85,-3.69375 h 4.55625 v 2.85 h -5.5875 v 5.025 h -3.075 v 1.35 h 8.6625 v 4.29375 h 1.40625 v -4.29375 h 6.7875 z"
       style="font-style:normal;font-variant:normal;font-weight:normal;font-stretch:normal;font-family:'Noto Sans CJK SC';-inkscape-font-specification:'Noto Sans CJK SC'"
       id="path969"
       inkscape:connector-curvature="0" />
    <path
       d="m 466.45988,377.59545 h -3.9375 v -3.91875 h 3.9375 z m -3.9375,5.7375 v -4.5 h 3.9375 v 4.5 z m 1.575,-13.95 c -0.13125,0.88125 -0.46875,2.1375 -0.75,3.0375 h -2.1 v 13.65 h 1.275 v -1.48125 h 5.2125 v -12.16875 h -3.1125 c 0.31875,-0.80625 0.65625,-1.8375 0.975,-2.75625 z m 12.80625,2.98125 h -5.60625 c 0.31875,-0.88125 0.58125,-1.78125 0.80625,-2.7 l -1.33125,-0.31875 c -0.6,2.56875 -1.6125,5.15625 -2.86875,6.80625 0.3,0.1875 0.9,0.5625 1.14375,0.7875 0.65625,-0.88125 1.2375,-2.025 1.7625,-3.28125 h 4.7625 c -0.24375,7.4625 -0.525,10.3125 -1.14375,10.96875 -0.1875,0.24375 -0.39375,0.28125 -0.76875,0.28125 -0.43125,0 -1.55625,0 -2.775,-0.1125 0.2625,0.39375 0.43125,0.95625 0.46875,1.36875 1.05,0.0563 2.11875,0.0937 2.775,0.0188 0.6375,-0.0562 1.06875,-0.225 1.48125,-0.75 0.75,-0.91875 0.99375,-3.80625 1.29375,-12.35625 z m -2.9625,8.4375 c -0.6,-1.10625 -1.89375,-2.90625 -2.94375,-4.2375 l -1.0875,0.6375 c 1.03125,1.35 2.2875,3.20625 2.85,4.33125 z"
       style="font-style:normal;font-variant:normal;font-weight:normal;font-stretch:normal;font-family:'Noto Sans CJK SC';-inkscape-font-specification:'Noto Sans CJK SC'"
       id="path971"
       inkscape:connector-curvature="0" />
    <path
       d="m 492.69113,369.8517 c -1.63125,1.93125 -4.33125,3.7125 -6.95625,4.8 0.3375,0.2625 0.9,0.80625 1.125,1.10625 2.55,-1.2375 5.38125,-3.15 7.21875,-5.30625 z m 3.24375,8.25 v -1.36875 h -11.49375 v -7.18125 h -1.44375 v 7.18125 h -3.58125 v 1.36875 h 3.58125 v 5.9625 c 0,0.73125 -0.45,0.99375 -0.75,1.14375 0.225,0.3 0.46875,0.88125 0.5625,1.2375 0.45,-0.3 1.14375,-0.525 6.24375,-1.875 -0.075,-0.31875 -0.13125,-0.9 -0.13125,-1.3125 l -4.48125,1.10625 v -6.2625 h 2.925 c 1.5,3.8625 4.14375,6.61875 8.025,7.89375 0.20625,-0.39375 0.61875,-0.99375 0.975,-1.275 -3.58125,-1.03125 -6.1875,-3.4125 -7.575,-6.61875 z"
       style="font-style:normal;font-variant:normal;font-weight:normal;font-stretch:normal;font-family:'Noto Sans CJK SC';-inkscape-font-specification:'Noto Sans CJK SC'"
       id="path973"
       inkscape:connector-curvature="0" />
    <path
       d="m 500.94113,378.8892 h 3.39375 v 1.875 h -3.39375 z m 3.39375,-5.7375 v 1.65 h -3.39375 v -1.65 z m -3.39375,2.775 h 3.39375 v 1.8375 h -3.39375 z m 6.05625,4.8375 h -1.36875 v -7.6125 h 1.36875 v -1.25625 h -1.36875 v -2.26875 h -1.29375 v 2.26875 h -3.39375 v -2.26875 h -1.275 v 2.26875 h -1.575 v 1.25625 h 1.575 v 7.6125 h -1.81875 v 1.25625 h 9.15 z m -6.5625,1.65 c -0.5625,1.2375 -1.5375,2.49375 -2.56875,3.3375 0.3375,0.1875 0.8625,0.58125 1.125,0.80625 1.03125,-0.91875 2.1,-2.34375 2.775,-3.7875 z m 2.6625,0.58125 c 0.75,0.88125 1.59375,2.1 1.93125,2.85 l 1.125,-0.65625 c -0.35625,-0.76875 -1.21875,-1.93125 -1.96875,-2.775 z m 6.09375,-4.0125 c 0.0188,-0.6375 0.0375,-1.275 0.0375,-1.85625 v -1.25625 h 3.825 v 3.1125 z m 3.8625,-7.35 v 2.98125 h -3.825 v -2.98125 z m 1.35,-1.275 h -6.4875 v 6.76875 c 0,2.68125 -0.15,6.225 -1.70625,8.7 0.31875,0.13125 0.88125,0.5625 1.10625,0.825 1.125,-1.8 1.59375,-4.18125 1.78125,-6.4125 h 3.95625 v 4.5 c 0,0.3 -0.1125,0.39375 -0.39375,0.39375 -0.2625,0.0188 -1.2,0.0188 -2.19375,0 0.1875,0.35625 0.375,0.95625 0.43125,1.35 1.3875,0 2.25,-0.0375 2.79375,-0.2625 0.50625,-0.225 0.7125,-0.6375 0.7125,-1.4625 z"
       style="font-style:normal;font-variant:normal;font-weight:normal;font-stretch:normal;font-family:'Noto Sans CJK SC';-inkscape-font-specification:'Noto Sans CJK SC'"
       id="path975"
       inkscape:connector-curvature="0" />
    <path
       d="m 519.12863,378.9267 c 0.0187,-0.75 0.0375,-1.48125 0.0375,-2.11875 v -1.03125 h 2.83125 v 3.15 z m 2.86875,-7.51875 v 3.075 h -2.83125 v -3.075 z m 1.29375,-1.29375 h -5.4 v 6.69375 c 0,2.75625 -0.0937,6.46875 -1.3875,9.09375 0.3375,0.13125 0.9,0.45 1.14375,0.675 0.8625,-1.7625 1.2375,-4.10625 1.40625,-6.31875 h 2.94375 v 4.6125 c 0,0.2625 -0.0937,0.3375 -0.35625,0.35625 -0.225,0.0188 -1.0125,0.0188 -1.875,0 0.1875,0.35625 0.375,0.975 0.4125,1.33125 1.25625,0 2.00625,-0.0188 2.475,-0.2625 0.4875,-0.24375 0.6375,-0.65625 0.6375,-1.40625 z m 8.56875,7.66875 c -0.43125,1.59375 -1.06875,3 -1.875,4.2 -0.8625,-1.2375 -1.5375,-2.6625 -2.04375,-4.2 z m 0.7125,-1.33125 -0.24375,0.0375 h -6.075 v -5.025 h 5.25 v 2.2875 c 0,0.225 -0.075,0.3 -0.375,0.3 -0.28125,0.0188 -1.25625,0.0188 -2.4,0 0.1875,0.3375 0.39375,0.80625 0.45,1.18125 1.40625,0 2.34375,0 2.94375,-0.1875 0.5625,-0.20625 0.73125,-0.5625 0.73125,-1.275 v -3.6 h -7.9125 v 16.3875 h 1.3125 v -8.775 h 0.46875 c 0.61875,1.93125 1.44375,3.73125 2.49375,5.25 -0.8625,1.0125 -1.8375,1.81875 -2.86875,2.38125 0.28125,0.24375 0.6375,0.7125 0.825,1.03125 1.03125,-0.6 1.9875,-1.40625 2.83125,-2.4 0.9,1.05 1.9125,1.89375 3.0375,2.53125 0.20625,-0.3375 0.58125,-0.80625 0.9,-1.06875 -1.18125,-0.58125 -2.23125,-1.425 -3.13125,-2.45625 1.18125,-1.66875 2.08125,-3.76875 2.56875,-6.31875 z"
       style="font-style:normal;font-variant:normal;font-weight:normal;font-stretch:normal;font-family:'Noto Sans CJK SC';-inkscape-font-specification:'Noto Sans CJK SC'"
       id="path977"
       inkscape:connector-curvature="0" />
    <path
       d="m 544.00988,379.8267 c 0.13125,-0.525 0.2625,-1.125 0.35625,-1.74375 l -1.44375,-0.1125 c -0.075,0.675 -0.20625,1.29375 -0.35625,1.85625 h -5.5875 v 1.21875 h 5.15625 c -1.06875,2.4 -3.15,3.65625 -6.45,4.29375 0.2625,0.28125 0.61875,0.8625 0.76875,1.18125 3.675,-0.88125 5.98125,-2.45625 7.1625,-5.475 h 5.68125 c -0.31875,2.45625 -0.69375,3.6 -1.125,3.95625 -0.20625,0.15 -0.43125,0.16875 -0.80625,0.16875 -0.46875,0 -1.65,-0.0188 -2.83125,-0.13125 0.24375,0.35625 0.4125,0.8625 0.43125,1.2375 1.10625,0.075 2.23125,0.075 2.775,0.0562 0.69375,-0.0375 1.10625,-0.13125 1.51875,-0.50625 0.6375,-0.58125 1.06875,-1.9875 1.4625,-5.38125 0.0562,-0.1875 0.075,-0.61875 0.075,-0.61875 z m -3.09375,-7.275 h 7.575 c -1.10625,1.10625 -2.64375,2.00625 -4.40625,2.71875 -1.44375,-0.61875 -2.625,-1.425 -3.45,-2.45625 z m 8.8875,-1.275 -0.24375,0.075 h -7.55625 c 0.45,-0.54375 0.84375,-1.10625 1.2,-1.65 l -1.4625,-0.3 c -0.95625,1.63125 -2.8125,3.5625 -5.4375,4.89375 0.3,0.225 0.675,0.7125 0.8625,1.03125 0.95625,-0.54375 1.81875,-1.10625 2.56875,-1.725 0.76875,0.88125 1.70625,1.6125 2.79375,2.2125 -2.2125,0.7125 -4.66875,1.1625 -7.05,1.3875 0.225,0.31875 0.46875,0.8625 0.5625,1.21875 2.71875,-0.3375 5.53125,-0.9 8.025,-1.875 2.175,0.9 4.78125,1.40625 7.65,1.65 0.16875,-0.39375 0.4875,-0.9375 0.76875,-1.25625 -2.49375,-0.15 -4.81875,-0.4875 -6.76875,-1.0875 2.0625,-1.0125 3.80625,-2.30625 4.93125,-3.99375 z"
       style="font-style:normal;font-variant:normal;font-weight:normal;font-stretch:normal;font-family:'Noto Sans CJK SC';-inkscape-font-specification:'Noto Sans CJK SC'"
       id="path979"
       inkscape:connector-curvature="0" />
    <path
       d="m 568.19738,373.2642 c -0.15,5.19375 -0.35625,7.0875 -0.7125,7.5375 -0.16875,0.225 -0.3375,0.2625 -0.61875,0.24375 -0.31875,0.0188 -1.06875,0 -1.875,-0.075 0.1875,0.375 0.3375,0.9375 0.35625,1.33125 0.88125,0.0563 1.6875,0.0563 2.175,0 0.50625,-0.0562 0.8625,-0.20625 1.18125,-0.6375 0.525,-0.675 0.7125,-2.85 0.91875,-9.075 v -0.65625 h -10.35 c 0.4125,-0.69375 0.80625,-1.425 1.14375,-2.19375 l -1.40625,-0.4125 c -1.0875,2.55 -2.925,4.96875 -4.9875,6.4875 0.35625,0.225 0.9,0.75 1.1625,1.0125 1.14375,-0.9375 2.25,-2.15625 3.24375,-3.5625 z m -4.93125,3.1875 v 3.01875 h -4.875 v -3.01875 z m -2.53125,8.38125 c -1.9875,0 -2.34375,-0.2625 -2.34375,-1.275 v -2.83125 h 6.24375 v -5.53125 h -7.6125 v 8.3625 c 0,2.08125 0.8625,2.5875 3.7875,2.5875 h 7.06875 c 2.53125,0 3.09375,-0.69375 3.375,-3.15 -0.39375,-0.075 -0.99375,-0.28125 -1.33125,-0.50625 -0.20625,1.93125 -0.46875,2.34375 -2.0625,2.34375 z"
       style="font-style:normal;font-variant:normal;font-weight:normal;font-stretch:normal;font-family:'Noto Sans CJK SC';-inkscape-font-specification:'Noto Sans CJK SC'"
       id="path981"
       inkscape:connector-curvature="0" />
    <path
       d="m 585.70988,377.89545 c -0.975,1.81875 -2.41875,3.24375 -4.2,4.36875 -1.7625,-1.14375 -3.1125,-2.60625 -4.05,-4.36875 z m 1.06875,-1.425 -0.28125,0.0562 h -4.3875 v -2.86875 h 7.14375 v -1.36875 h -7.14375 v -2.85 h -1.425 v 2.85 h -7.10625 v 1.36875 h 7.10625 v 2.86875 h -6.2625 v 1.36875 h 1.9875 l -0.4125,0.15 c 1.0125,2.025 2.4,3.675 4.18125,4.96875 -2.175,1.0875 -4.70625,1.78125 -7.36875,2.2125 0.2625,0.31875 0.6375,0.95625 0.76875,1.33125 2.83125,-0.54375 5.55,-1.3875 7.875,-2.68125 2.11875,1.275 4.725,2.11875 7.74375,2.5875 0.1875,-0.4125 0.5625,-1.0125 0.8625,-1.35 -2.79375,-0.3375 -5.2125,-1.05 -7.25625,-2.1 2.15625,-1.4625 3.8625,-3.39375 4.93125,-5.94375 z"
       style="font-style:normal;font-variant:normal;font-weight:normal;font-stretch:normal;font-family:'Noto Sans CJK SC';-inkscape-font-specification:'Noto Sans CJK SC'"
       id="path983"
       inkscape:connector-curvature="0" />
    <path
       d="m 597.20363,377.5767 -1.85625,0.58125 v -3.675 h 1.9875 v -1.29375 h -1.9875 v -3.75 h -1.29375 v 3.75 h -2.4 v 1.29375 h 2.4 v 4.05 c -1.0125,0.31875 -1.93125,0.6 -2.6625,0.80625 l 0.35625,1.33125 c 0.69375,-0.20625 1.48125,-0.45 2.30625,-0.73125 v 4.93125 c 0,0.2625 -0.0937,0.3375 -0.3375,0.3375 -0.20625,0.0188 -0.9375,0.0188 -1.74375,-0.0187 0.1875,0.39375 0.35625,0.95625 0.4125,1.3125 1.18125,0.0187 1.89375,-0.0375 2.325,-0.2625 0.46875,-0.225 0.6375,-0.6 0.6375,-1.36875 v -5.3625 l 2.04375,-0.65625 z m 2.00625,3.7125 c 0.80625,0.975 1.6875,2.38125 2.04375,3.28125 l 1.1625,-0.69375 c -0.39375,-0.9 -1.3125,-2.25 -2.1375,-3.225 z m 9.54375,-4.5 v -1.29375 h -4.89375 v -2.38125 h 3.99375 v -1.275 h -3.99375 v -2.325 h -1.33125 v 2.325 h -3.975 v 1.275 h 3.975 v 2.38125 h -4.93125 v 1.29375 h 7.40625 v 2.0625 h -7.18125 v 1.275 h 7.18125 v 4.725 c 0,0.2625 -0.0937,0.3375 -0.35625,0.35625 -0.28125,0.0188 -1.275,0.0188 -2.325,-0.0187 0.1875,0.39375 0.375,0.9375 0.43125,1.35 1.3875,0 2.2875,-0.0188 2.85,-0.24375 0.54375,-0.20625 0.7125,-0.58125 0.7125,-1.44375 v -4.725 h 2.30625 v -1.275 h -2.30625 v -2.0625 z"
       style="font-style:normal;font-variant:normal;font-weight:normal;font-stretch:normal;font-family:'Noto Sans CJK SC';-inkscape-font-specification:'Noto Sans CJK SC'"
       id="path985"
       inkscape:connector-curvature="0" />
    <path
       d="m 615.18121,379.97809 q 0,-2.42615 0.70496,-4.54102 0.71411,-2.11487 2.05078,-3.70788 h 1.48315 q -1.31835,1.76696 -1.98669,3.88183 -0.65918,2.11487 -0.65918,4.34876 0,2.19726 0.67749,4.29382 0.67749,2.09656 1.95007,3.82691 h -1.46484 q -1.34582,-1.5564 -2.05078,-3.63465 -0.70496,-2.07825 -0.70496,-4.46777 z"
       style="font-size:18.75px;font-family:'Open Sans';fill:#00c081"
       id="path987"
       inkscape:connector-curvature="0" />
    <path
       d="m 621.8371,385.1142 v -13.38501 h 1.55639 v 11.97509 h 5.90516 v 1.40992 z"
       style="font-size:18.75px;font-family:'Open Sans';fill:#00c081"
       id="path989"
       inkscape:connector-curvature="0" />
    <path
       d="m 635.69818,385.1142 h -1.5564 v -12.00257 h -4.23889 v -1.38244 h 10.03418 v 1.38244 h -4.23889 z"
       style="font-size:18.75px;font-family:'Open Sans';fill:#00c081"
       id="path991"
       inkscape:connector-curvature="0" />
    <path
       d="m 649.49518,381.5528 q 0,1.76696 -1.28174,2.75573 -1.28174,0.98877 -3.479,0.98877 -2.38038,0 -3.66211,-0.6134 v -1.50147 q 0.82397,0.3479 1.79443,0.54932 0.97046,0.20142 1.92261,0.20142 1.55639,0 2.34375,-0.58594 0.78735,-0.59509 0.78735,-1.64795 0,-0.6958 -0.28381,-1.13525 -0.27466,-0.44861 -0.93384,-0.82398 -0.65002,-0.37536 -1.98669,-0.85144 -1.86768,-0.66833 -2.67334,-1.58386 -0.79651,-0.91553 -0.79651,-2.38953 0,-1.54724 1.16272,-2.46277 1.16272,-0.91552 3.07617,-0.91552 1.99585,0 3.67126,0.73242 l -0.48523,1.35498 q -1.6571,-0.6958 -3.22265,-0.6958 -1.23596,0 -1.93177,0.531 -0.6958,0.53101 -0.6958,1.474 0,0.6958 0.25635,1.14441 0.25635,0.43946 0.8606,0.81482 0.6134,0.36621 1.86767,0.81482 2.10572,0.75073 2.89307,1.61133 0.79651,0.86059 0.79651,2.23389 z"
       style="font-size:18.75px;font-family:'Open Sans';fill:#00c081"
       id="path993"
       inkscape:connector-curvature="0" />
    <path
       d="m 659.78571,381.5528 q 0,1.76696 -1.28174,2.75573 -1.28174,0.98877 -3.47901,0.98877 -2.38037,0 -3.66211,-0.6134 v -1.50147 q 0.82398,0.3479 1.79444,0.54932 0.97046,0.20142 1.92261,0.20142 1.55639,0 2.34375,-0.58594 0.78735,-0.59509 0.78735,-1.64795 0,-0.6958 -0.28381,-1.13525 -0.27466,-0.44861 -0.93384,-0.82398 -0.65003,-0.37536 -1.9867,-0.85144 -1.86767,-0.66833 -2.67334,-1.58386 -0.79651,-0.91553 -0.79651,-2.38953 0,-1.54724 1.16272,-2.46277 1.16272,-0.91552 3.07618,-0.91552 1.99585,0 3.67126,0.73242 l -0.48523,1.35498 q -1.6571,-0.6958 -3.22266,-0.6958 -1.23596,0 -1.93176,0.531 -0.6958,0.53101 -0.6958,1.474 0,0.6958 0.25635,1.14441 0.25635,0.43946 0.86059,0.81482 0.61341,0.36621 1.86768,0.81482 2.10571,0.75073 2.89307,1.61133 0.79651,0.86059 0.79651,2.23389 z"
       style="font-size:18.75px;font-family:'Open Sans';fill:#00c081"
       id="path995"
       inkscape:connector-curvature="0" />
    <path
       d="m 665.48029,379.97809 q 0,2.40784 -0.71412,4.48608 -0.70495,2.07825 -2.04162,3.61634 h -1.46485 q 1.27259,-1.7212 1.95008,-3.81775 0.67749,-2.10572 0.67749,-4.30298 0,-2.23389 -0.66834,-4.34876 -0.65918,-2.11487 -1.97754,-3.88183 h 1.48316 q 1.34582,1.60217 2.05078,3.72619 0.70496,2.11487 0.70496,4.52271 z"
       style="font-size:18.75px;font-family:'Open Sans';fill:#00c081"
       id="path997"
       inkscape:connector-curvature="0" />
  </g>
  <path
     d="m 419.67562,392 -47.49269,-27.41992 -0.27268,2.15197 -6.91025,-8.03109 10.27663,1.89177 -1.65121,1.35607 47.5502,27.45312 z"
     style="fill:#5f5f5f;stroke:none"
     id="path59" />
  <path
     d="M 427,362 V 338.16016 L 425,339 l 3.5,-10 3.5,9.84571 -2,-0.75196 V 362 Z"
     style="fill:#5f5f5f;stroke:none"
     id="path61" />
  <rect
     ry="5.7831326"
     rx="5.5923343"
     y="11"
     x="510"
     height="192"
     width="642"
     style="fill:#dcddde;stroke-width:1.13738668"
     id="rect67" />
  <rect
     style="fill:#02d35f;stroke-width:1.12546289"
     width="190"
     height="26"
     x="934"
     y="81"
     id="rect69" />
  <rect
     style="fill:#02d35f"
     width="190"
     height="26"
     x="664"
     y="133"
     id="rect71" />
  <g
     aria-label="SLES 15"
     style="font-weight:600;font-size:18.75px;font-family:'Open Sans';fill:#00c081"
     id="text73">
    <path
       d="m 535.56934,45.093254 q 0,1.785278 -1.2909,2.801514 -1.29089,1.016235 -3.5614,1.016235 -2.27051,0 -3.71704,-0.704956 v -2.069092 q 0.91553,0.430298 1.94092,0.67749 1.03454,0.247193 1.92261,0.247193 1.30004,0 1.91345,-0.494385 0.62256,-0.494385 0.62256,-1.327515 0,-0.750732 -0.56763,-1.272583 -0.56763,-0.52185 -2.34375,-1.235961 -1.83106,-0.741578 -2.58179,-1.693726 -0.75073,-0.952148 -0.75073,-2.288818 0,-1.675415 1.19019,-2.636719 1.19018,-0.961304 3.19519,-0.961304 1.9226,0 3.8269,0.842285 l -0.6958,1.785279 q -1.78528,-0.750733 -3.18604,-0.750733 -1.06201,0 -1.61132,0.466919 -0.54932,0.457764 -0.54932,1.217652 0,0.52185 0.21973,0.897216 0.21972,0.366211 0.72326,0.695801 0.50354,0.32959 1.81275,0.869751 1.474,0.613403 2.16064,1.144409 0.68665,0.531006 1.00708,1.199341 0.32044,0.668335 0.32044,1.574707 z"
       style="font-weight:600;font-size:18.75px;font-family:'Open Sans';fill:#00c081"
       id="path1005"
       inkscape:connector-curvature="0" />
    <path
       d="m 538.17859,48.727898 v -13.38501 h 2.18811 v 11.508179 h 5.66711 v 1.876831 z"
       style="font-weight:600;font-size:18.75px;font-family:'Open Sans';fill:#00c081"
       id="path1007"
       inkscape:connector-curvature="0" />
    <path
       d="m 555.93066,48.727898 h -7.57141 v -13.38501 h 7.57141 v 1.849365 h -5.3833 v 3.643799 h 5.04456 v 1.831055 h -5.04456 v 4.20227 h 5.3833 z"
       style="font-weight:600;font-size:18.75px;font-family:'Open Sans';fill:#00c081"
       id="path1009"
       inkscape:connector-curvature="0" />
    <path
       d="m 566.55078,45.093254 q 0,1.785278 -1.29089,2.801514 -1.2909,1.016235 -3.5614,1.016235 -2.27051,0 -3.71704,-0.704956 v -2.069092 q 0.91552,0.430298 1.94091,0.67749 1.03455,0.247193 1.92261,0.247193 1.30005,0 1.91345,-0.494385 0.62256,-0.494385 0.62256,-1.327515 0,-0.750732 -0.56763,-1.272583 -0.56762,-0.52185 -2.34375,-1.235961 -1.83105,-0.741578 -2.58178,-1.693726 -0.75074,-0.952148 -0.75074,-2.288818 0,-1.675415 1.19019,-2.636719 1.19019,-0.961304 3.19519,-0.961304 1.92261,0 3.82691,0.842285 l -0.69581,1.785279 q -1.78527,-0.750733 -3.18603,-0.750733 -1.06201,0 -1.61133,0.466919 -0.54932,0.457764 -0.54932,1.217652 0,0.52185 0.21973,0.897216 0.21973,0.366211 0.72327,0.695801 0.50354,0.32959 1.81274,0.869751 1.474,0.613403 2.16065,1.144409 0.68664,0.531006 1.00708,1.199341 0.32043,0.668335 0.32043,1.574707 z"
       style="font-weight:600;font-size:18.75px;font-family:'Open Sans';fill:#00c081"
       id="path1011"
       inkscape:connector-curvature="0" />
    <path
       d="M 579.40479,48.727898 H 577.2533 V 40.08532 q 0,-1.547242 0.0732,-2.453614 -0.21057,0.219727 -0.52185,0.48523 -0.30213,0.265503 -2.05078,1.68457 l -1.08033,-1.364136 3.93677,-3.094482 h 1.79444 z"
       style="font-weight:600;font-size:18.75px;font-family:'Open Sans';fill:#00c081"
       id="path1013"
       inkscape:connector-curvature="0" />
    <path
       d="m 588.32202,40.369133 q 2.02332,0 3.20435,1.071167 1.18103,1.071167 1.18103,2.920532 0,2.142334 -1.34583,3.35083 -1.33667,1.199341 -3.80859,1.199341 -2.24304,0 -3.52478,-0.723266 v -1.950074 q 0.74158,0.421143 1.70288,0.650025 0.9613,0.228882 1.78528,0.228882 1.45569,0 2.21557,-0.650025 0.75989,-0.650024 0.75989,-1.904297 0,-2.398681 -3.05786,-2.398681 -0.4303,0 -1.06201,0.09155 -0.63172,0.0824 -1.10779,0.192261 l -0.9613,-0.567627 0.51269,-6.536865 h 6.95801 v 1.913452 h -5.06287 l -0.30212,3.314209 q 0.32043,-0.05493 0.7782,-0.128174 0.46692,-0.07324 1.13525,-0.07324 z"
       style="font-weight:600;font-size:18.75px;font-family:'Open Sans';fill:#00c081"
       id="path1015"
       inkscape:connector-curvature="0" />
  </g>
  <rect
     style="fill:#02d35f"
     width="190"
     height="26"
     x="529"
     y="159"
     id="rect75" />
  <rect
     style="opacity:0.5;fill:#92ecba"
     width="55"
     height="52"
     x="664"
     y="133"
     id="rect77" />
  <rect
     style="fill:#02d35f"
     width="190"
     height="26"
     x="799"
     y="107"
     id="rect79" />
  <rect
     style="opacity:0.5;fill:#92ecba"
     width="55"
     height="52"
     x="799"
     y="107"
     id="rect81" />
  <rect
     style="opacity:0.5;fill:#92ecba"
     width="55"
     height="52"
     x="934"
     y="81"
     id="rect83" />
  <path
     d="M 331,334 V 311.16016 L 329,312 l 3.5,-10 3.5,9.84571 -2,-0.75196 V 334 Z"
     style="fill:#fd9a2b;stroke:none"
     id="path85" />
  <rect
     style="fill:#a5efc6"
     width="160"
     height="26"
     x="719"
     y="159"
     id="rect89" />
  <rect
     style="fill:#a5efc6"
     width="160"
     height="26"
     x="854"
     y="133"
     id="rect91" />
  <rect
     style="fill:#a5efc6;stroke-width:1.29777133"
     width="160"
     height="26"
     x="989"
     y="-133"
     id="rect93"
     transform="scale(1,-1)" />
  <rect
     y="157"
     x="664"
     height="2"
     width="350"
     style="fill:#a7a9ac;fill-opacity:0.58823529"
     id="rect95" />
  <rect
     y="183"
     x="529"
     height="2"
     width="350"
     style="fill:#a7a9ac;fill-opacity:0.58823529"
     id="rect97" />
  <rect
     y="131"
     x="799"
     height="2"
     width="350"
     style="fill:#a7a9ac;fill-opacity:0.58823529;stroke-width:1.10818326"
     id="rect99" />
  <rect
     style="fill:#a5efc6;stroke-width:0.54289669"
     width="28"
     height="26"
     x="1124"
     y="81"
     id="rect93-2" />
  <circle
     r="18"
     cy="146"
     cx="676"
     style="fill:#00c081"
     id="circle103" />
  <g
     aria-label="SP1"
     style="font-size:18.75px;font-family:'Open Sans';fill:#ffffff"
     id="text107">
    <path
       d="m 671.34558,149.28641 q 0,1.76697 -1.28174,2.75573 -1.28174,0.98877 -3.479,0.98877 -2.38037,0 -3.66211,-0.6134 v -1.50146 q 0.82397,0.3479 1.79443,0.54931 0.97046,0.20142 1.92261,0.20142 1.5564,0 2.34375,-0.58594 0.78735,-0.59509 0.78735,-1.64795 0,-0.6958 -0.28381,-1.13525 -0.27466,-0.44861 -0.93384,-0.82398 -0.65002,-0.37536 -1.98669,-0.85144 -1.86768,-0.66833 -2.67334,-1.58386 -0.79651,-0.91553 -0.79651,-2.38953 0,-1.54724 1.16272,-2.46276 1.16272,-0.91553 3.07617,-0.91553 1.99585,0 3.67127,0.73242 l -0.48523,1.35498 q -1.65711,-0.6958 -3.22266,-0.6958 -1.23596,0 -1.93176,0.53101 -0.6958,0.531 -0.6958,1.47399 0,0.69581 0.25634,1.14441 0.25635,0.43946 0.8606,0.81482 0.6134,0.36621 1.86768,0.81482 2.10571,0.75074 2.89306,1.61133 0.79651,0.8606 0.79651,2.23389 z"
       style="font-size:18.75px;font-family:'Open Sans';fill:#ffffff"
       id="path1023"
       inkscape:connector-curvature="0" />
    <path
       d="m 682.56995,143.36295 q 0,2.03247 -1.39161,3.1311 -1.38244,1.08948 -3.96423,1.08948 h -1.57471 v 5.26428 h -1.55639 V 139.4628 h 3.46985 q 5.01709,0 5.01709,3.90015 z m -6.93055,2.88391 h 1.40076 q 2.06909,0 2.99378,-0.66834 0.92468,-0.66833 0.92468,-2.14233 0,-1.32752 -0.86975,-1.97754 -0.86975,-0.65003 -2.70996,-0.65003 h -1.73951 z"
       style="letter-spacing:-1px"
       id="path1025"
       inkscape:connector-curvature="0" />
    <path
       d="m 689.06812,152.84781 h -1.48316 v -9.5398 q 0,-1.19018 0.0732,-2.25219 -0.19226,0.19226 -0.43029,0.40283 -0.23804,0.21057 -2.17896,1.78528 l -0.80566,-1.0437 3.54309,-2.73743 h 1.28174 z"
       style="font-size:18.75px;font-family:'Open Sans';fill:#ffffff"
       id="path1027"
       inkscape:connector-curvature="0" />
  </g>
  <circle
     r="18"
     cy="120"
     cx="811"
     style="fill:#00c081"
     id="circle109" />
  <g
     aria-label="SP2"
     style="font-size:18.75px;font-family:'Open Sans';fill:#ffffff"
     id="text113">
    <path
       d="m 804.51172,123.26715 q 0,1.76697 -1.28174,2.75574 -1.28174,0.98877 -3.479,0.98877 -2.38037,0 -3.66211,-0.61341 v -1.50146 q 0.82397,0.3479 1.79443,0.54932 0.97046,0.20141 1.92261,0.20141 1.55639,0 2.34375,-0.58594 0.78735,-0.59509 0.78735,-1.64794 0,-0.69581 -0.28381,-1.13526 -0.27466,-0.44861 -0.93384,-0.82397 -0.65002,-0.37537 -1.98669,-0.85144 -1.86768,-0.66834 -2.67334,-1.58387 -0.79651,-0.91552 -0.79651,-2.38952 0,-1.54724 1.16272,-2.46277 1.16272,-0.91553 3.07617,-0.91553 1.99585,0 3.67126,0.73242 l -0.48523,1.35498 q -1.6571,-0.6958 -3.22265,-0.6958 -1.23596,0 -1.93176,0.53101 -0.69581,0.53101 -0.69581,1.474 0,0.6958 0.25635,1.14441 0.25635,0.43945 0.8606,0.81482 0.6134,0.36621 1.86767,0.81482 2.10572,0.75073 2.89307,1.61132 0.79651,0.8606 0.79651,2.23389 z"
       style="font-size:18.75px;font-family:'Open Sans';fill:#ffffff"
       id="path1030"
       inkscape:connector-curvature="0" />
    <path
       d="m 815.73608,117.34369 q 0,2.03247 -1.3916,3.1311 -1.38244,1.08948 -3.96423,1.08948 h -1.57471 v 5.26428 h -1.55639 v -13.38501 h 3.46984 q 5.01709,0 5.01709,3.90015 z m -6.93054,2.88391 h 1.40076 q 2.06909,0 2.99377,-0.66833 0.92469,-0.66834 0.92469,-2.14234 0,-1.32751 -0.86976,-1.97754 -0.86975,-0.65002 -2.70996,-0.65002 h -1.7395 z"
       style="letter-spacing:-0.5px"
       id="path1032"
       inkscape:connector-curvature="0" />
    <path
       d="m 825.90198,126.82855 h -8.79822 v -1.3092 l 3.52478,-3.54309 q 1.61133,-1.62964 2.12402,-2.32544 0.5127,-0.6958 0.76905,-1.35498 0.25634,-0.65918 0.25634,-1.41907 0,-1.07117 -0.65002,-1.69373 -0.65002,-0.63171 -1.80359,-0.63171 -0.83313,0 -1.58386,0.27466 -0.74158,0.27466 -1.65711,0.99792 l -0.80566,-1.03454 q 1.84937,-1.53809 4.02832,-1.53809 1.88599,0 2.95715,0.97046 1.07117,0.9613 1.07117,2.59094 0,1.27259 -0.71411,2.5177 -0.71411,1.24512 -2.67334,3.14942 l -2.92969,2.8656 v 0.0732 h 6.88477 z"
       style="font-size:18.75px;font-family:'Open Sans';fill:#ffffff"
       id="path1034"
       inkscape:connector-curvature="0" />
  </g>
  <circle
     r="18"
     cy="172"
     cx="541"
     style="fill:#02a49c"
     id="circle115" />
  <g
     aria-label="GA"
     style="font-weight:600;font-size:18.75px;font-family:'Open Sans';fill:#ffffff"
     id="text117">
    <path
       d="m 534.68286,171.60703 h 4.92554 v 6.71997 q -1.2085,0.39367 -2.32544,0.55847 -1.10779,0.16479 -2.39868,0.16479 -3.03955,0 -4.6875,-1.79443 -1.64795,-1.80359 -1.64795,-5.08118 0,-3.23181 1.85852,-5.05371 1.85852,-1.83105 5.1178,-1.83105 2.09655,0 3.97339,0.80566 l -0.76905,1.8219 q -1.62964,-0.75073 -3.25928,-0.75073 -2.14233,0 -3.38745,1.34582 -1.24511,1.34583 -1.24511,3.68042 0,2.45362 1.11694,3.73535 1.1261,1.27259 3.23181,1.27259 1.06201,0 2.27051,-0.26551 v -3.45153 h -2.77405 z"
       style="font-weight:600;font-size:18.75px;font-family:'Open Sans';fill:#ffffff"
       id="path1018"
       inkscape:connector-curvature="0" />
    <path
       d="m 551.13489,178.86716 -1.33667,-3.71704 h -5.1178 l -1.3092,3.71704 h -2.30713 l 5.00793,-13.43994 h 2.38037 l 5.00794,13.43994 z m -1.91345,-5.60303 -1.25428,-3.6438 q -0.13733,-0.36621 -0.38452,-1.15356 -0.23804,-0.78736 -0.32959,-1.15357 -0.24719,1.1261 -0.72326,2.46277 l -1.2085,3.48816 z"
       style="font-weight:600;font-size:18.75px;font-family:'Open Sans';fill:#ffffff"
       id="path1020"
       inkscape:connector-curvature="0" />
  </g>
  <circle
     r="18"
     cy="94"
     cx="946"
     style="fill:#00c081"
     id="circle119" />
  <g
     aria-label="SP3"
     style="font-size:18.75px;font-family:'Open Sans';fill:#ffffff"
     id="text123">
    <path
       d="m 939.5575,97.247787 q 0,1.766968 -1.28174,2.755733 -1.28174,0.98877 -3.47901,0.98877 -2.38037,0 -3.66211,-0.6134 v -1.501464 q 0.82398,0.347901 1.79444,0.549317 0.97046,0.201416 1.9226,0.201416 1.5564,0 2.34375,-0.585938 0.78736,-0.595093 0.78736,-1.647949 0,-0.695801 -0.28382,-1.135254 -0.27465,-0.448608 -0.93383,-0.823975 -0.65003,-0.375366 -1.9867,-0.85144 -1.86767,-0.668335 -2.67334,-1.583862 -0.79651,-0.915528 -0.79651,-2.389527 0,-1.547241 1.16272,-2.462768 1.16272,-0.915528 3.07618,-0.915528 1.99584,0 3.67126,0.732422 l -0.48523,1.354981 q -1.6571,-0.695801 -3.22266,-0.695801 -1.23596,0 -1.93176,0.531006 -0.6958,0.531006 -0.6958,1.473999 0,0.695801 0.25635,1.144409 0.25635,0.439453 0.86059,0.814819 0.61341,0.366211 1.86768,0.81482 2.10571,0.750732 2.89307,1.611328 0.79651,0.860595 0.79651,2.233886 z"
       style="font-size:18.75px;font-family:'Open Sans';fill:#ffffff"
       id="path1037"
       inkscape:connector-curvature="0" />
    <path
       d="m 950.78186,91.324326 q 0,2.03247 -1.3916,3.131103 -1.38245,1.089478 -3.96423,1.089478 h -1.57471 v 5.264283 h -1.5564 V 87.424179 h 3.46985 q 5.01709,0 5.01709,3.900147 z m -6.93054,2.883911 h 1.40076 q 2.06909,0 2.99377,-0.668335 0.92468,-0.668335 0.92468,-2.142334 0,-1.327515 -0.86975,-1.977539 -0.86975,-0.650025 -2.70996,-0.650025 h -1.7395 z"
       style="letter-spacing:-0.5px"
       id="path1039"
       inkscape:connector-curvature="0" />
    <path
       d="m 960.44421,90.573593 q 0,1.281738 -0.72326,2.096558 -0.71411,0.814819 -2.03247,1.089477 v 0.07324 q 1.61132,0.201416 2.38952,1.025391 0.7782,0.823975 0.7782,2.160645 0,1.913452 -1.32751,2.947998 -1.32752,1.025388 -3.77198,1.025388 -1.06201,0 -1.95007,-0.16479 -0.87891,-0.15564 -1.71204,-0.55847 v -1.446537 q 0.86976,0.430297 1.84937,0.659179 0.98877,0.219727 1.86768,0.219727 3.46984,0 3.46984,-2.719116 0,-2.435303 -3.8269,-2.435303 h -1.31836 v -1.309204 h 1.33667 q 1.56555,0 2.48108,-0.686646 0.91553,-0.695801 0.91553,-1.922607 0,-0.979614 -0.67749,-1.538086 -0.66834,-0.558472 -1.8219,-0.558472 -0.87891,0 -1.65711,0.238037 -0.7782,0.238037 -1.77612,0.878907 l -0.76904,-1.025391 q 0.82397,-0.650025 1.89514,-1.016235 1.08032,-0.375367 2.27051,-0.375367 1.95007,0 3.03039,0.897217 1.08032,0.888062 1.08032,2.444458 z"
       style="font-size:18.75px;font-family:'Open Sans';fill:#ffffff"
       id="path1041"
       inkscape:connector-curvature="0" />
  </g>
  <path
     d="m 20,52.999992 v -12.41211 l -2,0.83984 3.5,-10 3.5,9.84571 -2,-0.75196 v 12.47852 z"
     style="fill:#fd9a2b;stroke:none"
     id="path127" />
  <g
     aria-label="更新路径"
     style="font-size:18.75px;font-family:'Open Sans';text-align:start;text-anchor:start;fill:#000000"
     id="text129">
    <path
       d="m 38.609619,42.933105 v -1.89375 h 4.4625 v 0.75 c 0,0.375 0,0.76875 -0.0375,1.14375 z m 0,-4.875 h 4.4625 v 1.875 h -4.4625 z m 10.6125,0 v 1.875 h -4.725 v -1.875 z m 0,4.875 h -4.7625 c 0.01875,-0.35625 0.0375,-0.75 0.0375,-1.125 v -0.76875 h 4.725 z m 1.36875,1.1625 v -7.2 h -6.09375 v -1.575 h 7.275 v -1.25625 h -16.2 v 1.25625 h 7.5 v 1.575 h -5.79375 v 7.2 h 5.56875 c -0.225,0.9 -0.65625,1.74375 -1.51875,2.475 -0.88125,-0.58125 -1.63125,-1.35 -2.26875,-2.325 l -1.1625,0.46875 c 0.6375,1.0875 1.40625,1.95 2.30625,2.64375 -1.14375,0.65625 -2.7375,1.18125 -4.96875,1.6125 0.3,0.31875 0.675,0.9 0.825,1.21875 2.4375,-0.50625 4.18125,-1.2 5.4375,-2.025 2.55,1.35 5.9625,1.7625 10.29375,1.95 0.075,-0.45 0.3375,-1.03125 0.58125,-1.36875 -4.1625,-0.1125 -7.3875,-0.39375 -9.75,-1.4625 0.9375,-0.95625 1.44375,-2.025 1.66875,-3.1875 z"
       style="font-style:normal;font-variant:normal;font-weight:normal;font-stretch:normal;font-family:'Noto Sans CJK SC';-inkscape-font-specification:'Noto Sans CJK SC'"
       id="path1044"
       inkscape:connector-curvature="0" />
    <path
       d="m 62.478369,35.020605 h -3.1125 c -0.24375,-0.61875 -0.6375,-1.3875 -0.99375,-2.025 l -1.25625,0.31875 c 0.28125,0.50625 0.58125,1.14375 0.825,1.70625 h -3.675 v 1.1625 h 8.2125 z m -6.84375,9.28125 c -0.375,1.1625 -0.99375,2.30625 -1.74375,3.1125 0.28125,0.16875 0.73125,0.525 0.95625,0.7125 0.73125,-0.88125 1.5,-2.23125 1.93125,-3.525 z m -0.15,-7.725 c 0.35625,0.84375 0.65625,1.96875 0.73125,2.68125 l 1.18125,-0.31875 c -0.075,-0.7125 -0.4125,-1.81875 -0.7875,-2.625 z m 7.06875,7.03125 v -1.2 h -3.4875 v -1.96875 h 3.7125 v -1.18125 h -2.38125 c 0.3375,-0.7875 0.7125,-1.8 1.03125,-2.7 l -1.275,-0.28125 c -0.225,0.8625 -0.65625,2.11875 -1.0125,2.98125 h -5.175 v 1.18125 h 3.825 v 1.96875 h -3.73125 v 1.2 h 3.73125 v 4.74375 c 0,0.1875 -0.0375,0.24375 -0.225,0.24375 -0.20625,0.01875 -0.7875,0.01875 -1.425,0 0.1875,0.35625 0.35625,0.84375 0.4125,1.18125 0.9,0 1.5375,-0.01875 1.96875,-0.225 0.43125,-0.20625 0.54375,-0.525 0.54375,-1.18125 v -4.7625 z m -2.7375,1.10625 c 0.58125,0.9375 1.2375,2.2125 1.5375,3.01875 l 0.975,-0.5625 c -0.28125,-0.80625 -0.95625,-2.025 -1.55625,-2.94375 z m 11.1375,-5.38125 h -6.24375 v -3.5625 c 1.95,-0.3 4.10625,-0.76875 5.64375,-1.35 l -1.10625,-1.03125 c -1.35,0.5625 -3.75,1.125 -5.83125,1.4625 v 6.39375 c 0,2.49375 -0.16875,5.6625 -1.725,7.9125 0.3,0.16875 0.825,0.58125 1.06875,0.84375 1.70625,-2.41875 1.95,-6.075 1.95,-8.75625 v -0.6 h 2.83125 v 9.45 h 1.35 v -9.45 h 2.0625 z"
       style="font-style:normal;font-variant:normal;font-weight:normal;font-stretch:normal;font-family:'Noto Sans CJK SC';-inkscape-font-specification:'Noto Sans CJK SC'"
       id="path1046"
       inkscape:connector-curvature="0" />
    <path
       d="m 82.034619,43.420605 c 0.99375,-0.6 1.95,-1.35 2.8125,-2.2125 0.80625,0.80625 1.725,1.59375 2.775,2.2125 z m 0.45,4.81875 v -3.6 h 4.6875 v 3.6 z m -2.7375,-5.98125 h -2.325 v -2.7 h 2.15625 v -0.5625 c 0.3375,0.225 0.76875,0.61875 0.975,0.825 0.6,-0.61875 1.18125,-1.33125 1.70625,-2.15625 0.46875,0.84375 1.03125,1.725 1.725,2.56875 -1.25625,1.29375 -2.7375,2.2875 -4.2375,2.925 z m -4.9875,-7.2 h 3.525 v 3.28125 h -3.525 z m 11.94375,1.125 c -0.46875,1.1625 -1.125,2.2125 -1.9125,3.16875 -0.76875,-0.91875 -1.3875,-1.89375 -1.85625,-2.8125 l 0.1875,-0.35625 z m 0.8625,-1.275 -0.24375,0.05625 h -3.61875 c 0.20625,-0.50625 0.4125,-1.05 0.6,-1.59375 l -1.33125,-0.31875 c -0.69375,2.25 -1.9125,4.35 -3.39375,5.75625 v -4.96875 h -6.05625 v 5.71875 h 2.625 v 7.575 l -1.44375,0.3375 v -6.15 h -1.18125 v 6.39375 l -0.95625,0.20625 0.2625,1.35 c 1.96875,-0.4875 4.63125,-1.125 7.18125,-1.74375 l -0.13125,-1.25625 c -0.825,0.20625 -1.65,0.39375 -2.45625,0.58125 v -3.35625 h 1.96875 c 0.2625,0.28125 0.54375,0.65625 0.675,0.9375 0.375,-0.16875 0.75,-0.3375 1.125,-0.525 v 6.24375 h 1.29375 v -0.675 h 4.6875 v 0.61875 h 1.33125 v -6.16875 c 0.20625,0.09375 0.4125,0.16875 0.6,0.2625 0.1875,-0.3375 0.58125,-0.88125 0.8625,-1.14375 -1.6875,-0.6375 -3.1125,-1.63125 -4.275,-2.75625 1.1625,-1.3875 2.1375,-3.0375 2.7375,-4.9875 z"
       style="font-style:normal;font-variant:normal;font-weight:normal;font-stretch:normal;font-family:'Noto Sans CJK SC';-inkscape-font-specification:'Noto Sans CJK SC'"
       id="path1048"
       inkscape:connector-curvature="0" />
    <path
       d="m 95.403369,33.108105 c -0.7875,1.3125 -2.4,2.86875 -3.84375,3.84375 0.225,0.2625 0.58125,0.80625 0.73125,1.125 1.63125,-1.10625 3.35625,-2.85 4.44375,-4.4625 z m 0.3375,4.10625 c -1.06875,1.93125 -2.79375,3.84375 -4.44375,5.0625 0.24375,0.3375 0.61875,1.03125 0.73125,1.33125 0.65625,-0.525 1.33125,-1.18125 1.9875,-1.875 v 8.4375 h 1.3875 v -10.10625 c 0.58125,-0.76875 1.10625,-1.575 1.5375,-2.3625 z m 12.656251,3.525 c -1.03125,-0.675 -2.94375,-1.6125 -4.63125,-2.325 1.36875,-1.10625 2.53125,-2.4 3.3375,-3.825 l -0.99375,-0.6 -0.2625,0.05625 h -8.100001 v 1.29375 h 7.162501 c -1.89375,2.45625 -5.362501,4.5 -8.475001,5.53125 0.28125,0.28125 0.65625,0.7875 0.825,1.14375 1.81875,-0.675 3.712501,-1.59375 5.400001,-2.75625 1.7625,0.76875 3.8625,1.875 4.96875,2.625 z m -5.1375,3.075 h 4.03125 v -1.29375 h -9.543751 v 1.29375 h 4.106251 v 4.5375 h -5.231251 v 1.3125 h 11.775001 v -1.3125 h -5.1375 z"
       style="font-style:normal;font-variant:normal;font-weight:normal;font-stretch:normal;font-family:'Noto Sans CJK SC';-inkscape-font-specification:'Noto Sans CJK SC'"
       id="path1050"
       inkscape:connector-curvature="0" />
  </g>
  <path
     d="M 601,282 V 259.16016 L 599,260 l 3.5,-10 3.5,9.84571 -2,-0.75196 V 282 Z"
     style="fill:#fd9a2b;stroke:none"
     id="path131" />
  <path
     d="M 466,308 V 285.16016 L 464,286 l 3.5,-10 3.5,9.84571 -2,-0.75196 V 308 Z"
     style="fill:#fd9a2b;stroke:none"
     id="path133" />
  <path
     d="M 840,150 V 127.16016 L 838,128 l 3.5,-10 3.5,9.84571 -2,-0.75196 V 150 Z"
     style="fill:#fd9a2b;stroke:none"
     id="path135" />
  <path
     d="M 705,176 V 153.16016 L 703,154 l 3.5,-10 3.5,9.84571 -2,-0.75196 V 176 Z"
     style="fill:#fd9a2b;stroke:none"
     id="path137" />
  <path
     d="M 196,360 V 337.16016 L 194,338 l 3.5,-10 3.5,9.84571 -2,-0.75196 V 360 Z"
     style="fill:#fd9a2b;stroke:none"
     id="path141" />
  <path
     d="M 685,256 V 161.16016 L 683,162 l 3.5,-10 3.5,9.84571 -2,-0.75196 V 256 Z"
     style="fill:#de0080;fill-opacity:1"
     id="path147" />
  <path
     style="fill:#fd9a2b;stroke-width:1.00073278"
     d="m 593.49478,250 -3.50513,10 2.00293,-0.83984 c 0,26.27434 -9.96383,48.62586 -26.89484,58.66406 C 548.15544,327.86912 524.40738,331 497,331 v 3 c 27.61771,0 51.85768,-3.0654 69.66448,-13.61523 18.74255,-11.10423 28.33259,-34.5554 28.33259,-61.29102 L 597,259.8457 Z"
     id="path149" />
  <path
     d="M 865,176 V 127.16016 L 863,128 l 3.5,-10 3.5,9.84571 -2,-0.75196 V 176 Z"
     style="fill:#fd9a2b"
     id="path151" />
  <path
     d="M 491,334 V 285.16016 L 489,286 l 3.5,-10 3.5,9.84571 -2,-0.75196 V 334 Z"
     style="fill:#fd9a2b"
     id="path153" />
  <path
     d="M 626,308 V 259.16016 L 624,260 l 3.5,-10 3.5,9.84571 -2,-0.75196 V 308 Z"
     style="fill:#fd9a2b"
     id="path155" />
  <path
     d="M 356,360 V 311.16016 L 354,312 l 3.5,-10 3.5,9.84571 -2,-0.75196 V 360 Z"
     style="fill:#fd9a2b"
     id="path157" />
  <circle
     r="18"
     cy="356"
     cx="32"
     style="fill:#02a49c"
     id="circle159" />
  <g
     aria-label="GA"
     style="font-weight:600;font-size:18.75px;font-family:'Open Sans';fill:#ffffff"
     id="text161">
    <path
       d="m 25.682861,355.60703 h 4.925537 v 6.71997 q -1.208496,0.39367 -2.325439,0.55847 -1.107788,0.16479 -2.398682,0.16479 -3.03955,0 -4.6875,-1.79443 -1.647949,-1.80359 -1.647949,-5.08118 0,-3.23181 1.858521,-5.05371 1.85852,-1.83105 5.117797,-1.83105 2.096558,0 3.973389,0.80566 l -0.769043,1.8219 q -1.629638,-0.75073 -3.259277,-0.75073 -2.142334,0 -3.387451,1.34582 -1.245118,1.34583 -1.245118,3.68042 0,2.45362 1.116944,3.73535 1.126098,1.27259 3.231811,1.27259 1.062012,0 2.270508,-0.26551 v -3.45153 h -2.774048 z"
       style="font-weight:600;font-size:18.75px;font-family:'Open Sans';fill:#ffffff"
       id="path1075"
       inkscape:connector-curvature="0" />
    <path
       d="m 42.134888,362.86716 -1.33667,-3.71704 H 35.68042 l -1.309204,3.71704 h -2.307129 l 5.007934,-13.43994 h 2.380372 l 5.007934,13.43994 z m -1.913452,-5.60303 -1.254273,-3.6438 q -0.137329,-0.36621 -0.384521,-1.15356 -0.238038,-0.78736 -0.32959,-1.15357 -0.247193,1.1261 -0.723267,2.46277 l -1.208496,3.48816 z"
       style="font-weight:600;font-size:18.75px;font-family:'Open Sans';fill:#ffffff"
       id="path1077"
       inkscape:connector-curvature="0" />
  </g>
  <circle
     r="18"
     cy="330"
     cx="167"
     style="fill:#00c081"
     id="circle163" />
  <g
     aria-label="SP1"
     style="font-size:18.75px;font-family:'Open Sans';fill:#ffffff"
     id="text167">
    <path
       d="m 162.34558,333.28641 q 0,1.76697 -1.28174,2.75573 -1.28174,0.98877 -3.479,0.98877 -2.38037,0 -3.66211,-0.6134 v -1.50146 q 0.82397,0.3479 1.79443,0.54931 0.97046,0.20142 1.92261,0.20142 1.5564,0 2.34375,-0.58594 0.78735,-0.59509 0.78735,-1.64795 0,-0.6958 -0.28381,-1.13525 -0.27466,-0.44861 -0.93384,-0.82398 -0.65002,-0.37536 -1.98669,-0.85144 -1.86768,-0.66833 -2.67334,-1.58386 -0.79651,-0.91553 -0.79651,-2.38953 0,-1.54724 1.16272,-2.46276 1.16272,-0.91553 3.07617,-0.91553 1.99585,0 3.67127,0.73242 l -0.48523,1.35498 q -1.65711,-0.6958 -3.22266,-0.6958 -1.23596,0 -1.93176,0.53101 -0.6958,0.531 -0.6958,1.47399 0,0.69581 0.25634,1.14441 0.25635,0.43946 0.8606,0.81482 0.6134,0.36621 1.86768,0.81482 2.10571,0.75074 2.89306,1.61133 0.79651,0.8606 0.79651,2.23389 z"
       style="font-size:18.75px;font-family:'Open Sans';fill:#ffffff"
       id="path1080"
       inkscape:connector-curvature="0" />
    <path
       d="m 173.56995,327.36295 q 0,2.03247 -1.39161,3.1311 -1.38244,1.08948 -3.96423,1.08948 h -1.57471 v 5.26428 h -1.55639 V 323.4628 h 3.46985 q 5.01709,0 5.01709,3.90015 z m -6.93055,2.88391 h 1.40076 q 2.06909,0 2.99378,-0.66834 0.92468,-0.66833 0.92468,-2.14233 0,-1.32752 -0.86975,-1.97754 -0.86975,-0.65003 -2.70996,-0.65003 h -1.73951 z"
       style="letter-spacing:-1px"
       id="path1082"
       inkscape:connector-curvature="0" />
    <path
       d="m 180.06812,336.84781 h -1.48316 v -9.5398 q 0,-1.19018 0.0732,-2.25219 -0.19226,0.19226 -0.43029,0.40283 -0.23804,0.21057 -2.17896,1.78528 l -0.80566,-1.0437 3.54309,-2.73743 h 1.28174 z"
       style="font-size:18.75px;font-family:'Open Sans';fill:#ffffff"
       id="path1084"
       inkscape:connector-curvature="0" />
  </g>
  <circle
     r="18"
     cy="304"
     cx="302"
     style="fill:#00c081"
     id="circle169" />
  <g
     aria-label="SP2"
     style="font-size:18.75px;font-family:'Open Sans';fill:#ffffff"
     id="text173">
    <path
       d="m 295.51172,307.26715 q 0,1.76697 -1.28174,2.75574 -1.28174,0.98877 -3.479,0.98877 -2.38037,0 -3.66211,-0.61341 v -1.50146 q 0.82397,0.3479 1.79443,0.54932 0.97046,0.20141 1.92261,0.20141 1.55639,0 2.34375,-0.58594 0.78735,-0.59509 0.78735,-1.64794 0,-0.69581 -0.28381,-1.13526 -0.27466,-0.44861 -0.93384,-0.82397 -0.65002,-0.37537 -1.98669,-0.85144 -1.86768,-0.66834 -2.67334,-1.58387 -0.79651,-0.91552 -0.79651,-2.38952 0,-1.54724 1.16272,-2.46277 1.16272,-0.91553 3.07617,-0.91553 1.99585,0 3.67126,0.73242 l -0.48523,1.35498 q -1.6571,-0.6958 -3.22265,-0.6958 -1.23596,0 -1.93176,0.53101 -0.69581,0.53101 -0.69581,1.474 0,0.6958 0.25635,1.14441 0.25635,0.43945 0.8606,0.81482 0.6134,0.36621 1.86767,0.81482 2.10572,0.75073 2.89307,1.61132 0.79651,0.8606 0.79651,2.23389 z"
       style="font-size:18.75px;font-family:'Open Sans';fill:#ffffff"
       id="path1087"
       inkscape:connector-curvature="0" />
    <path
       d="m 306.73608,301.34369 q 0,2.03247 -1.3916,3.1311 -1.38244,1.08948 -3.96423,1.08948 h -1.57471 v 5.26428 h -1.55639 v -13.38501 h 3.46984 q 5.01709,0 5.01709,3.90015 z m -6.93054,2.88391 h 1.40076 q 2.06909,0 2.99377,-0.66833 0.92469,-0.66834 0.92469,-2.14234 0,-1.32751 -0.86976,-1.97754 -0.86975,-0.65002 -2.70996,-0.65002 h -1.7395 z"
       style="letter-spacing:-0.5px"
       id="path1089"
       inkscape:connector-curvature="0" />
    <path
       d="m 316.90198,310.82855 h -8.79822 v -1.3092 l 3.52478,-3.54309 q 1.61133,-1.62964 2.12402,-2.32544 0.5127,-0.6958 0.76905,-1.35498 0.25634,-0.65918 0.25634,-1.41907 0,-1.07117 -0.65002,-1.69373 -0.65002,-0.63171 -1.80359,-0.63171 -0.83313,0 -1.58386,0.27466 -0.74158,0.27466 -1.65711,0.99792 l -0.80566,-1.03454 q 1.84937,-1.53809 4.02832,-1.53809 1.88599,0 2.95715,0.97046 1.07117,0.9613 1.07117,2.59094 0,1.27259 -0.71411,2.5177 -0.71411,1.24512 -2.67334,3.14942 l -2.92969,2.8656 v 0.0732 h 6.88477 z"
       style="font-size:18.75px;font-family:'Open Sans';fill:#ffffff"
       id="path1091"
       inkscape:connector-curvature="0" />
  </g>
  <circle
     r="18"
     cy="252"
     cx="572"
     style="fill:#00c081"
     id="circle175" />
  <g
     aria-label="SP4"
     style="font-size:18.75px;font-family:'Open Sans';fill:#ffffff"
     id="text179">
    <path
       d="m 565.19586,255.2478 q 0,1.76697 -1.28174,2.75574 -1.28173,0.98877 -3.479,0.98877 -2.38037,0 -3.66211,-0.6134 v -1.50147 q 0.82397,0.3479 1.79443,0.54932 0.97046,0.20141 1.92261,0.20141 1.5564,0 2.34375,-0.58593 0.78735,-0.5951 0.78735,-1.64795 0,-0.6958 -0.28381,-1.13526 -0.27466,-0.44861 -0.93384,-0.82397 -0.65002,-0.37537 -1.98669,-0.85144 -1.86768,-0.66834 -2.67334,-1.58386 -0.79651,-0.91553 -0.79651,-2.38953 0,-1.54724 1.16272,-2.46277 1.16272,-0.91553 3.07617,-0.91553 1.99585,0 3.67127,0.73243 l -0.48523,1.35498 q -1.65711,-0.6958 -3.22266,-0.6958 -1.23596,0 -1.93176,0.531 -0.6958,0.53101 -0.6958,1.474 0,0.6958 0.25635,1.14441 0.25634,0.43945 0.86059,0.81482 0.6134,0.36621 1.86768,0.81482 2.10571,0.75073 2.89306,1.61133 0.79651,0.86059 0.79651,2.23388 z"
       style="font-size:18.75px;font-family:'Open Sans';fill:#ffffff"
       id="path1101"
       inkscape:connector-curvature="0" />
    <path
       d="m 576.42023,249.32434 q 0,2.03247 -1.3916,3.1311 -1.38245,1.08948 -3.96424,1.08948 h -1.5747 v 5.26428 h -1.5564 v -13.38501 h 3.46985 q 5.01709,0 5.01709,3.90015 z m -6.93054,2.88391 h 1.40075 q 2.06909,0 2.99378,-0.66833 0.92468,-0.66834 0.92468,-2.14234 0,-1.32751 -0.86975,-1.97754 -0.86975,-0.65002 -2.70996,-0.65002 h -1.7395 z"
       style="letter-spacing:-0.5px"
       id="path1103"
       inkscape:connector-curvature="0" />
    <path
       d="m 587.21783,255.73303 h -1.98669 v 3.07617 h -1.45569 v -3.07617 h -6.5094 v -1.32751 l 6.35376,-9.05457 h 1.61133 v 8.99964 h 1.98669 z m -3.44238,-1.38244 v -4.44947 q 0,-1.3092 0.0915,-2.95715 h -0.0732 q -0.43945,0.87891 -0.82397,1.45569 l -4.18396,5.95093 z"
       style="font-size:18.75px;font-family:'Open Sans';fill:#ffffff"
       id="path1105"
       inkscape:connector-curvature="0" />
  </g>
  <circle
     r="18"
     cy="278"
     cx="437"
     style="fill:#00c081"
     id="circle181" />
  <g
     aria-label="SP3"
     style="font-size:18.75px;font-family:'Open Sans';fill:#ffffff"
     id="text185">
    <path
       d="m 430.5575,281.2478 q 0,1.76697 -1.28174,2.75574 -1.28174,0.98877 -3.47901,0.98877 -2.38037,0 -3.66211,-0.6134 v -1.50147 q 0.82398,0.3479 1.79444,0.54932 0.97046,0.20141 1.9226,0.20141 1.5564,0 2.34375,-0.58593 0.78736,-0.5951 0.78736,-1.64795 0,-0.6958 -0.28382,-1.13526 -0.27465,-0.44861 -0.93383,-0.82397 -0.65003,-0.37537 -1.9867,-0.85144 -1.86767,-0.66834 -2.67334,-1.58386 -0.79651,-0.91553 -0.79651,-2.38953 0,-1.54724 1.16272,-2.46277 1.16272,-0.91553 3.07618,-0.91553 1.99584,0 3.67126,0.73243 l -0.48523,1.35498 q -1.6571,-0.6958 -3.22266,-0.6958 -1.23596,0 -1.93176,0.531 -0.6958,0.53101 -0.6958,1.474 0,0.6958 0.25635,1.14441 0.25635,0.43945 0.86059,0.81482 0.61341,0.36621 1.86768,0.81482 2.10571,0.75073 2.89307,1.61133 0.79651,0.86059 0.79651,2.23388 z"
       style="font-size:18.75px;font-family:'Open Sans';fill:#ffffff"
       id="path1094"
       inkscape:connector-curvature="0" />
    <path
       d="m 441.78186,275.32434 q 0,2.03247 -1.3916,3.1311 -1.38245,1.08948 -3.96423,1.08948 h -1.57471 v 5.26428 h -1.5564 v -13.38501 h 3.46985 q 5.01709,0 5.01709,3.90015 z m -6.93054,2.88391 h 1.40076 q 2.06909,0 2.99377,-0.66833 0.92468,-0.66834 0.92468,-2.14234 0,-1.32751 -0.86975,-1.97754 -0.86975,-0.65002 -2.70996,-0.65002 h -1.7395 z"
       style="letter-spacing:-0.5px"
       id="path1096"
       inkscape:connector-curvature="0" />
    <path
       d="m 451.44421,274.57361 q 0,1.28174 -0.72326,2.09656 -0.71411,0.81482 -2.03247,1.08947 v 0.0733 q 1.61132,0.20141 2.38952,1.02539 0.7782,0.82397 0.7782,2.16064 0,1.91345 -1.32751,2.948 -1.32752,1.02539 -3.77198,1.02539 -1.06201,0 -1.95007,-0.1648 -0.87891,-0.15564 -1.71204,-0.55847 v -1.44653 q 0.86976,0.4303 1.84937,0.65918 0.98877,0.21973 1.86768,0.21973 3.46984,0 3.46984,-2.71912 0,-2.4353 -3.8269,-2.4353 h -1.31836 v -1.30921 h 1.33667 q 1.56555,0 2.48108,-0.68664 0.91553,-0.6958 0.91553,-1.92261 0,-0.97961 -0.67749,-1.53809 -0.66834,-0.55847 -1.8219,-0.55847 -0.87891,0 -1.65711,0.23804 -0.7782,0.23804 -1.77612,0.87891 l -0.76904,-1.02539 q 0.82397,-0.65003 1.89514,-1.01624 1.08032,-0.37537 2.27051,-0.37537 1.95007,0 3.03039,0.89722 1.08032,0.88806 1.08032,2.44446 z"
       style="font-size:18.75px;font-family:'Open Sans';fill:#ffffff"
       id="path1098"
       inkscape:connector-curvature="0" />
  </g>
  <path
     d="M 675,282 V 164.16016 L 673,165 l 3.5,-10 3.5,9.84571 -2,-0.75196 V 282 Z"
     style="fill:#de0080;stroke:none;fill-opacity:1"
     id="path189" />
  <rect
     style="fill:#02d35f"
     width="230"
     height="26"
     x="695"
     y="213"
     id="rect31-6" />
  <rect
     style="opacity:0.5;fill:#92ecba"
     width="55"
     height="52"
     x="695"
     y="213"
     id="rect33-2" />
  <rect
     style="fill:#a5efc6"
     width="160"
     height="26"
     x="925"
     y="213"
     id="rect43-9" />
  <rect
     y="237"
     x="695"
     height="2"
     width="390"
     style="fill:#a7a9ac;fill-opacity:0.58823529"
     id="rect45-1" />
  <circle
     r="18"
     cy="226"
     cx="707"
     style="fill:#00c081"
     id="circle175-2" />
  <g
     aria-label="SP5"
     style="font-size:18.75px;font-family:'Open Sans';fill:#ffffff"
     id="text179-7">
    <path
       d="m 700.19586,229.2478 q 0,1.76697 -1.28174,2.75574 -1.28173,0.98877 -3.479,0.98877 -2.38037,0 -3.66211,-0.6134 v -1.50147 q 0.82397,0.3479 1.79443,0.54932 0.97046,0.20141 1.92261,0.20141 1.5564,0 2.34375,-0.58593 0.78735,-0.5951 0.78735,-1.64795 0,-0.6958 -0.28381,-1.13526 -0.27466,-0.44861 -0.93384,-0.82397 -0.65002,-0.37537 -1.98669,-0.85144 -1.86768,-0.66834 -2.67334,-1.58386 -0.79651,-0.91553 -0.79651,-2.38953 0,-1.54724 1.16272,-2.46277 1.16272,-0.91553 3.07617,-0.91553 1.99585,0 3.67127,0.73243 l -0.48523,1.35498 q -1.65711,-0.6958 -3.22266,-0.6958 -1.23596,0 -1.93176,0.531 -0.6958,0.53101 -0.6958,1.474 0,0.6958 0.25635,1.14441 0.25634,0.43945 0.86059,0.81482 0.6134,0.36621 1.86768,0.81482 2.10571,0.75073 2.89306,1.61133 0.79651,0.86059 0.79651,2.23388 z"
       style="font-size:18.75px;font-family:'Open Sans';fill:#ffffff"
       id="path1108"
       inkscape:connector-curvature="0" />
    <path
       d="m 711.42023,223.32434 q 0,2.03247 -1.3916,3.1311 -1.38245,1.08948 -3.96424,1.08948 h -1.5747 v 5.26428 h -1.5564 v -13.38501 h 3.46985 q 5.01709,0 5.01709,3.90015 z m -6.93054,2.88391 h 1.40075 q 2.06909,0 2.99378,-0.66833 0.92468,-0.66834 0.92468,-2.14234 0,-1.32751 -0.86975,-1.97754 -0.86975,-0.65002 -2.70996,-0.65002 h -1.7395 z"
       style="letter-spacing:-0.5px"
       id="path1110"
       inkscape:connector-curvature="0" />
    <path
       d="m 716.97186,224.63354 q 2.11487,0 3.32337,1.05286 1.21765,1.0437 1.21765,2.8656 0,2.07825 -1.32752,3.25928 -1.31836,1.18103 -3.6438,1.18103 -2.26135,0 -3.45153,-0.72327 v -1.46484 q 0.64087,0.41199 1.59301,0.65002 0.95215,0.22889 1.87684,0.22889 1.61132,0 2.49939,-0.75989 0.89721,-0.75989 0.89721,-2.19727 0,-2.80151 -3.43323,-2.80151 -0.86975,0 -2.32544,0.2655 l -0.78735,-0.50354 0.50354,-6.26221 h 6.65589 v 1.40076 h -5.35584 l -0.33874,4.01917 q 1.05285,-0.21058 2.09655,-0.21058 z"
       style="letter-spacing:-0.5px"
       id="path1112"
       inkscape:connector-curvature="0" />
  </g>
  <rect
     style="fill:#02d35f;stroke-width:0.74386382"
     width="83"
     height="26"
     x="1069"
     y="55"
     id="rect69-6" />
  <rect
     style="opacity:0.5;fill:#92ecba"
     width="55"
     height="52"
     x="1069"
     y="55"
     id="rect83-1" />
  <rect
     y="105"
     x="934"
     height="2"
     width="218"
     style="fill:#a7a9ac;fill-opacity:0.58823529;stroke-width:1.2055428"
     id="rect101" />
  <circle
     r="18"
     cy="68"
     cx="1081"
     style="fill:#00c081"
     id="circle119-8" />
  <path
     d="M 975,124 V 101.16016 L 973,102 l 3.5,-10 3.5,9.84571 -2,-0.75196 V 124 Z"
     style="fill:#fd9a2b;stroke:none"
     id="path139" />
  <path
     d="M 902,287 V 234.16016 L 900,235 l 3.5,-10 3.5,9.84571 -2,-0.75196 V 287 Z"
     style="fill:#5f5f5f;stroke:none"
     id="path187" />
  <path
     d="M 736,256 V 233.16016 L 734,234 l 3.5,-10 3.5,9.84571 -2,-0.75196 V 256 Z"
     style="fill:#fd9a2b;stroke:none"
     id="path131-9" />
  <path
     style="fill:#fd9a2b;stroke-width:1.00073278"
     d="m 728.49478,224 -3.50513,10 2.00293,-0.8398 c 0,26.2743 -9.96383,48.62582 -26.89484,58.66402 C 683.15544,301.86912 659.40738,305 632,305 v 3 c 27.61771,0 51.85768,-3.0654 69.66448,-13.61523 18.74255,-11.10423 28.33259,-34.5554 28.33259,-61.29097 L 732,233.8457 Z"
     id="path149-0" />
  <rect
     style="fill:#5f5f5f;stroke-width:1.02022684"
     width="346.26041"
     height="54"
     x="730.36981"
     y="285.62891"
     rx="2.0817258"
     ry="4.5"
     id="rect63" />
  <g
     id="g4289"
     transform="translate(1.5258789e-5,-1.5020294)">
    <g
       aria-label="最新服务包："
       style="font-size:18.75px;font-family:'Open Sans';fill:#00c081"
       id="text65">
      <path
         d="m 866.9952,296.65566 h -9.43125 v -1.275 h 9.43125 z m 0,2.26875 h -9.43125 v -1.33125 h 9.43125 z m 1.36875,-4.5375 H 856.2327 v 5.53125 h 12.13125 z m -11.41875,12.375 h 3.39375 v 1.1625 c -1.18125,0.15 -2.325,0.28125 -3.39375,0.39375 z m 3.39375,-4.65 v 1.25625 h -3.39375 v -1.25625 z m -3.39375,2.30625 h 3.39375 v 1.3125 h -3.39375 z m 5.7375,4.36875 v -1.125 l -1.0125,0.1125 v -5.6625 h 8.94375 v -1.1625 h -16.725 v 1.1625 h 1.78125 v 6.31875 c -0.65625,0.075 -1.29375,0.13125 -1.8375,0.1875 l 0.15,1.2375 c 1.74375,-0.20625 4.03125,-0.4875 6.35625,-0.76875 v 1.81875 h 1.33125 v -1.9875 z m 5.79375,-4.36875 c -0.50625,1.10625 -1.2375,2.0625 -2.08125,2.8875 -0.8625,-0.825 -1.5375,-1.8 -2.025,-2.8875 z m 0.825,-1.18125 -0.2625,0.0375 h -6.6375 v 1.14375 h 1.125 l -0.375,0.1125 c 0.5625,1.35 1.33125,2.56875 2.30625,3.5625 -1.03125,0.76875 -2.19375,1.35 -3.35625,1.725 0.24375,0.24375 0.58125,0.7125 0.7125,1.03125 1.2375,-0.45 2.45625,-1.0875 3.54375,-1.93125 1.06875,0.8625 2.30625,1.5 3.7125,1.93125 0.1875,-0.35625 0.54375,-0.84375 0.825,-1.10625 -1.35,-0.35625 -2.55,-0.91875 -3.5625,-1.65 1.21875,-1.2 2.175,-2.68125 2.75625,-4.51875 z"
         style="font-style:normal;font-variant:normal;font-weight:normal;font-stretch:normal;font-family:'Noto Sans CJK SC';-inkscape-font-specification:'Noto Sans CJK SC';text-align:center;text-anchor:middle"
         id="path954"
         inkscape:connector-curvature="0" />
      <path
         d="m 881.07645,295.73691 h -3.1125 c -0.24375,-0.61875 -0.6375,-1.3875 -0.99375,-2.025 l -1.25625,0.31875 c 0.28125,0.50625 0.58125,1.14375 0.825,1.70625 h -3.675 v 1.1625 h 8.2125 z m -6.84375,9.28125 c -0.375,1.1625 -0.99375,2.30625 -1.74375,3.1125 0.28125,0.16875 0.73125,0.525 0.95625,0.7125 0.73125,-0.88125 1.5,-2.23125 1.93125,-3.525 z m -0.15,-7.725 c 0.35625,0.84375 0.65625,1.96875 0.73125,2.68125 l 1.18125,-0.31875 c -0.075,-0.7125 -0.4125,-1.81875 -0.7875,-2.625 z m 7.06875,7.03125 v -1.2 h -3.4875 v -1.96875 h 3.7125 v -1.18125 h -2.38125 c 0.3375,-0.7875 0.7125,-1.8 1.03125,-2.7 l -1.275,-0.28125 c -0.225,0.8625 -0.65625,2.11875 -1.0125,2.98125 h -5.175 v 1.18125 h 3.825 v 1.96875 h -3.73125 v 1.2 h 3.73125 v 4.74375 c 0,0.1875 -0.0375,0.24375 -0.225,0.24375 -0.20625,0.0188 -0.7875,0.0188 -1.425,0 0.1875,0.35625 0.35625,0.84375 0.4125,1.18125 0.9,0 1.5375,-0.0188 1.96875,-0.225 0.43125,-0.20625 0.54375,-0.525 0.54375,-1.18125 v -4.7625 z m -2.7375,1.10625 c 0.58125,0.9375 1.2375,2.2125 1.5375,3.01875 l 0.975,-0.5625 c -0.28125,-0.80625 -0.95625,-2.025 -1.55625,-2.94375 z m 11.1375,-5.38125 h -6.24375 v -3.5625 c 1.95,-0.3 4.10625,-0.76875 5.64375,-1.35 l -1.10625,-1.03125 c -1.35,0.5625 -3.75,1.125 -5.83125,1.4625 v 6.39375 c 0,2.49375 -0.16875,5.6625 -1.725,7.9125 0.3,0.16875 0.825,0.58125 1.06875,0.84375 1.70625,-2.41875 1.95,-6.075 1.95,-8.75625 v -0.6 h 2.83125 v 9.45 h 1.35 v -9.45 h 2.0625 z"
         style="font-style:normal;font-variant:normal;font-weight:normal;font-stretch:normal;font-family:'Noto Sans CJK SC';-inkscape-font-specification:'Noto Sans CJK SC';text-align:center;text-anchor:middle"
         id="path956"
         inkscape:connector-curvature="0" />
      <path
         d="m 893.71395,303.27441 c 0.0188,-0.75 0.0375,-1.48125 0.0375,-2.11875 v -1.03125 h 2.83125 v 3.15 z m 2.86875,-7.51875 v 3.075 h -2.83125 v -3.075 z m 1.29375,-1.29375 h -5.4 v 6.69375 c 0,2.75625 -0.0937,6.46875 -1.3875,9.09375 0.3375,0.13125 0.9,0.45 1.14375,0.675 0.8625,-1.7625 1.2375,-4.10625 1.40625,-6.31875 h 2.94375 v 4.6125 c 0,0.2625 -0.0937,0.3375 -0.35625,0.35625 -0.225,0.0188 -1.0125,0.0188 -1.875,0 0.1875,0.35625 0.375,0.975 0.4125,1.33125 1.25625,0 2.00625,-0.0188 2.475,-0.2625 0.4875,-0.24375 0.6375,-0.65625 0.6375,-1.40625 z m 8.56875,7.66875 c -0.43125,1.59375 -1.06875,3 -1.875,4.2 -0.8625,-1.2375 -1.5375,-2.6625 -2.04375,-4.2 z m 0.7125,-1.33125 -0.24375,0.0375 h -6.075 v -5.025 h 5.25 v 2.2875 c 0,0.225 -0.075,0.3 -0.375,0.3 -0.28125,0.0188 -1.25625,0.0188 -2.4,0 0.1875,0.3375 0.39375,0.80625 0.45,1.18125 1.40625,0 2.34375,0 2.94375,-0.1875 0.5625,-0.20625 0.73125,-0.5625 0.73125,-1.275 v -3.6 h -7.9125 v 16.3875 h 1.3125 v -8.775 h 0.46875 c 0.61875,1.93125 1.44375,3.73125 2.49375,5.25 -0.8625,1.0125 -1.8375,1.81875 -2.86875,2.38125 0.28125,0.24375 0.6375,0.7125 0.825,1.03125 1.03125,-0.6 1.9875,-1.40625 2.83125,-2.4 0.9,1.05 1.9125,1.89375 3.0375,2.53125 0.20625,-0.3375 0.58125,-0.80625 0.9,-1.06875 -1.18125,-0.58125 -2.23125,-1.425 -3.13125,-2.45625 1.18125,-1.66875 2.08125,-3.76875 2.56875,-6.31875 z"
         style="font-style:normal;font-variant:normal;font-weight:normal;font-stretch:normal;font-family:'Noto Sans CJK SC';-inkscape-font-specification:'Noto Sans CJK SC';text-align:center;text-anchor:middle"
         id="path958"
         inkscape:connector-curvature="0" />
      <path
         d="m 918.5952,304.17441 c 0.13125,-0.525 0.2625,-1.125 0.35625,-1.74375 l -1.44375,-0.1125 c -0.075,0.675 -0.20625,1.29375 -0.35625,1.85625 h -5.5875 v 1.21875 h 5.15625 c -1.06875,2.4 -3.15,3.65625 -6.45,4.29375 0.2625,0.28125 0.61875,0.8625 0.76875,1.18125 3.675,-0.88125 5.98125,-2.45625 7.1625,-5.475 h 5.68125 c -0.31875,2.45625 -0.69375,3.6 -1.125,3.95625 -0.20625,0.15 -0.43125,0.16875 -0.80625,0.16875 -0.46875,0 -1.65,-0.0188 -2.83125,-0.13125 0.24375,0.35625 0.4125,0.8625 0.43125,1.2375 1.10625,0.075 2.23125,0.075 2.775,0.0562 0.69375,-0.0375 1.10625,-0.13125 1.51875,-0.50625 0.6375,-0.58125 1.06875,-1.9875 1.4625,-5.38125 0.0563,-0.1875 0.075,-0.61875 0.075,-0.61875 z m -3.09375,-7.275 h 7.575 c -1.10625,1.10625 -2.64375,2.00625 -4.40625,2.71875 -1.44375,-0.61875 -2.625,-1.425 -3.45,-2.45625 z m 8.8875,-1.275 -0.24375,0.075 h -7.55625 c 0.45,-0.54375 0.84375,-1.10625 1.2,-1.65 l -1.4625,-0.3 c -0.95625,1.63125 -2.8125,3.5625 -5.4375,4.89375 0.3,0.225 0.675,0.7125 0.8625,1.03125 0.95625,-0.54375 1.81875,-1.10625 2.56875,-1.725 0.76875,0.88125 1.70625,1.6125 2.79375,2.2125 -2.2125,0.7125 -4.66875,1.1625 -7.05,1.3875 0.225,0.31875 0.46875,0.8625 0.5625,1.21875 2.71875,-0.3375 5.53125,-0.9 8.025,-1.875 2.175,0.9 4.78125,1.40625 7.65,1.65 0.16875,-0.39375 0.4875,-0.9375 0.76875,-1.25625 -2.49375,-0.15 -4.81875,-0.4875 -6.76875,-1.0875 2.0625,-1.0125 3.80625,-2.30625 4.93125,-3.99375 z"
         style="font-style:normal;font-variant:normal;font-weight:normal;font-stretch:normal;font-family:'Noto Sans CJK SC';-inkscape-font-specification:'Noto Sans CJK SC';text-align:center;text-anchor:middle"
         id="path960"
         inkscape:connector-curvature="0" />
      <path
         d="m 942.7827,297.61191 c -0.15,5.19375 -0.35625,7.0875 -0.7125,7.5375 -0.16875,0.225 -0.3375,0.2625 -0.61875,0.24375 -0.31875,0.0187 -1.06875,0 -1.875,-0.075 0.1875,0.375 0.3375,0.9375 0.35625,1.33125 0.88125,0.0563 1.6875,0.0563 2.175,0 0.50625,-0.0562 0.8625,-0.20625 1.18125,-0.6375 0.525,-0.675 0.7125,-2.85 0.91875,-9.075 v -0.65625 h -10.35 c 0.4125,-0.69375 0.80625,-1.425 1.14375,-2.19375 l -1.40625,-0.4125 c -1.0875,2.55 -2.925,4.96875 -4.9875,6.4875 0.35625,0.225 0.9,0.75 1.1625,1.0125 1.14375,-0.9375 2.25,-2.15625 3.24375,-3.5625 z m -4.93125,3.1875 v 3.01875 h -4.875 v -3.01875 z m -2.53125,8.38125 c -1.9875,0 -2.34375,-0.2625 -2.34375,-1.275 v -2.83125 h 6.24375 v -5.53125 h -7.6125 v 8.3625 c 0,2.08125 0.8625,2.5875 3.7875,2.5875 h 7.06875 c 2.53125,0 3.09375,-0.69375 3.375,-3.15 -0.39375,-0.075 -0.99375,-0.28125 -1.33125,-0.50625 -0.20625,1.93125 -0.46875,2.34375 -2.0625,2.34375 z"
         style="font-style:normal;font-variant:normal;font-weight:normal;font-stretch:normal;font-family:'Noto Sans CJK SC';-inkscape-font-specification:'Noto Sans CJK SC';text-align:center;text-anchor:middle"
         id="path962"
         inkscape:connector-curvature="0" />
      <path
         d="m 951.3327,300.34941 c 0.75,0 1.425,-0.54375 1.425,-1.3875 0,-0.8625 -0.675,-1.425 -1.425,-1.425 -0.75,0 -1.40625,0.5625 -1.40625,1.425 0,0.84375 0.65625,1.3875 1.40625,1.3875 z m 0,9.1875 c 0.75,0 1.425,-0.5625 1.425,-1.40625 0,-0.8625 -0.675,-1.40625 -1.425,-1.40625 -0.75,0 -1.40625,0.54375 -1.40625,1.40625 0,0.84375 0.65625,1.40625 1.40625,1.40625 z"
         style="font-style:normal;font-variant:normal;font-weight:normal;font-stretch:normal;font-family:'Noto Sans CJK SC';-inkscape-font-specification:'Noto Sans CJK SC';text-align:center;text-anchor:middle"
         id="path964"
         inkscape:connector-curvature="0" />
    </g>
    <g
       aria-label="GA + 10 年的标准支持"
       style="font-size:18.75px;font-family:'Open Sans';fill:#00c081"
       id="text65-2">
      <path
         d="m 818.81958,323.52823 h 4.55017 v 6.5094 q -1.06201,0.33874 -2.16064,0.51269 -1.09864,0.17395 -2.54517,0.17395 -3.03955,0 -4.73328,-1.80359 -1.69372,-1.81274 -1.69372,-5.07202 0,-2.0874 0.83313,-3.65295 0.84228,-1.57471 2.41699,-2.39868 1.57471,-0.83313 3.68958,-0.83313 2.14233,0 3.99169,0.78735 l -0.60424,1.37329 q -1.81275,-0.76904 -3.48816,-0.76904 -2.44446,0 -3.81775,1.45569 -1.37329,1.45569 -1.37329,4.03747 0,2.70996 1.31836,4.11072 1.32751,1.40076 3.89099,1.40076 1.3916,0 2.71911,-0.32044 v -4.11987 h -2.99377 z"
         style="text-align:center;text-anchor:middle"
         id="path931"
         inkscape:connector-curvature="0" />
      <path
         d="m 835.0061,330.54117 -1.66626,-4.2572 h -5.36499 l -1.64795,4.2572 h -1.5747 l 5.29175,-13.43994 h 1.3092 l 5.26428,13.43994 z m -2.15149,-5.65796 -1.55639,-4.14734 q -0.30213,-0.78735 -0.62256,-1.93176 -0.20142,0.8789 -0.57678,1.93176 l -1.57471,4.14734 z"
         style="text-align:center;text-anchor:middle"
         id="path933"
         inkscape:connector-curvature="0" />
      <path
         d="m 847.46643,323.29935 h 3.77197 v 1.26342 h -3.77197 v 3.90015 h -1.27258 v -3.90015 h -3.75366 v -1.26342 h 3.75366 v -3.91846 h 1.27258 z"
         style="text-align:center;text-anchor:middle"
         id="path935"
         inkscape:connector-curvature="0" />
      <path
         d="m 863.63464,330.54117 h -1.48315 v -9.5398 q 0,-1.19018 0.0732,-2.25219 -0.19226,0.19226 -0.4303,0.40283 -0.23803,0.21057 -2.17895,1.78528 l -0.80567,-1.0437 3.5431,-2.73743 h 1.28173 z"
         style="text-align:center;text-anchor:middle"
         id="path937"
         inkscape:connector-curvature="0" />
      <path
         d="m 877.60559,323.83035 q 0,3.46985 -1.09863,5.18189 -1.08948,1.71203 -3.34168,1.71203 -2.16064,0 -3.28674,-1.74865 -1.1261,-1.75782 -1.1261,-5.14527 0,-3.49731 1.08948,-5.19104 1.08948,-1.69372 3.32336,-1.69372 2.17896,0 3.30506,1.76696 1.13525,1.76697 1.13525,5.1178 z m -7.31506,0 q 0,2.92054 0.68664,4.2572 0.68665,1.32752 2.18811,1.32752 1.51978,0 2.19727,-1.34583 0.68664,-1.35498 0.68664,-4.23889 0,-2.88391 -0.68664,-4.22058 -0.67749,-1.34582 -2.19727,-1.34582 -1.50146,0 -2.18811,1.32751 -0.68664,1.31836 -0.68664,4.23889 z"
         style="text-align:center;text-anchor:middle"
         id="path939"
         inkscape:connector-curvature="0" />
      <path
         d="m 888.83794,326.34117 v -3.7125 h 4.2 v 3.7125 z m 12.39375,0 h -6.7875 v -3.7125 h 5.49375 v -1.3125 h -5.49375 v -2.85 h 5.925 v -1.35 h -11.175 c 0.3,-0.6375 0.6,-1.3125 0.8625,-1.96875 l -1.40625,-0.3375 c -0.88125,2.5125 -2.45625,4.93125 -4.21875,6.46875 0.35625,0.1875 0.9375,0.65625 1.2,0.88125 1.0125,-0.975 2.00625,-2.25 2.85,-3.69375 h 4.55625 v 2.85 h -5.5875 v 5.025 h -3.075 v 1.35 h 8.6625 v 4.29375 h 1.40625 v -4.29375 h 6.7875 z"
         style="font-style:normal;font-variant:normal;font-weight:normal;font-stretch:normal;font-family:'Noto Sans CJK SC';-inkscape-font-specification:'Noto Sans CJK SC'"
         id="path941"
         inkscape:connector-curvature="0" />
      <path
         d="m 909.06919,323.02242 h -3.9375 v -3.91875 h 3.9375 z m -3.9375,5.7375 v -4.5 h 3.9375 v 4.5 z m 1.575,-13.95 c -0.13125,0.88125 -0.46875,2.1375 -0.75,3.0375 h -2.1 v 13.65 h 1.275 v -1.48125 h 5.2125 v -12.16875 h -3.1125 c 0.31875,-0.80625 0.65625,-1.8375 0.975,-2.75625 z m 12.80625,2.98125 h -5.60625 c 0.31875,-0.88125 0.58125,-1.78125 0.80625,-2.7 l -1.33125,-0.31875 c -0.6,2.56875 -1.6125,5.15625 -2.86875,6.80625 0.3,0.1875 0.9,0.5625 1.14375,0.7875 0.65625,-0.88125 1.2375,-2.025 1.7625,-3.28125 h 4.7625 c -0.24375,7.4625 -0.525,10.3125 -1.14375,10.96875 -0.1875,0.24375 -0.39375,0.28125 -0.76875,0.28125 -0.43125,0 -1.55625,0 -2.775,-0.1125 0.2625,0.39375 0.43125,0.95625 0.46875,1.36875 1.05,0.0563 2.11875,0.0937 2.775,0.0188 0.6375,-0.0562 1.06875,-0.225 1.48125,-0.75 0.75,-0.91875 0.99375,-3.80625 1.29375,-12.35625 z m -2.9625,8.4375 c -0.6,-1.10625 -1.89375,-2.90625 -2.94375,-4.2375 l -1.0875,0.6375 c 1.03125,1.35 2.2875,3.20625 2.85,4.33125 z"
         style="font-style:normal;font-variant:normal;font-weight:normal;font-stretch:normal;font-family:'Noto Sans CJK SC';-inkscape-font-specification:'Noto Sans CJK SC'"
         id="path943"
         inkscape:connector-curvature="0" />
      <path
         d="m 937.75669,316.29117 h -8.11875 v 1.3125 h 8.11875 z m -9.1125,7.5 c -0.35625,-0.4875 -1.95,-2.5125 -2.5125,-3.1875 v -0.4875 h 2.41875 v -1.3125 h -2.41875 v -3.9375 h -1.3875 v 3.9375 h -2.83125 v 1.3125 h 2.53125 c -0.6,2.325 -1.81875,4.9875 -3,6.39375 0.24375,0.3375 0.61875,0.9 0.7875,1.29375 0.9375,-1.18125 1.8375,-3.13125 2.5125,-5.1375 v 9.3 h 1.3875 v -9.75 c 0.61875,0.91875 1.3875,2.08125 1.6875,2.68125 z m 1.48125,0.3375 c -0.4875,1.9875 -1.33125,3.99375 -2.3625,5.30625 0.31875,0.15 0.8625,0.54375 1.10625,0.73125 1.0125,-1.425 1.95,-3.6 2.53125,-5.75625 z m 8.625,-2.08125 v -1.3125 h -9.91875 v 1.3125 h 3.99375 v 8.1375 c 0,0.24375 -0.075,0.3 -0.35625,0.31875 -0.24375,0.0188 -1.10625,0.0188 -2.08125,-0.0188 0.16875,0.4125 0.375,1.0125 0.43125,1.425 1.3125,0 2.175,-0.0188 2.7,-0.28125 0.54375,-0.225 0.69375,-0.6375 0.69375,-1.425 v -8.15625 z m -3.2625,2.4 c 0.88125,1.8375 1.74375,4.275 2.00625,5.7375 l 1.29375,-0.45 c -0.31875,-1.48125 -1.2375,-3.84375 -2.1375,-5.64375 z"
         style="font-style:normal;font-variant:normal;font-weight:normal;font-stretch:normal;font-family:'Noto Sans CJK SC';-inkscape-font-specification:'Noto Sans CJK SC'"
         id="path945"
         inkscape:connector-curvature="0" />
      <path
         d="m 944.45044,319.77867 c -0.50625,-1.06875 -1.65,-2.8125 -2.5875,-4.0875 l -1.2375,0.5625 c 0.9375,1.33125 2.04375,3.13125 2.53125,4.21875 z m -2.4,11.325 c 0.8625,-1.78125 1.89375,-4.1625 2.68125,-6.24375 l -1.25625,-0.675 c -0.825,2.19375 -1.9875,4.74375 -2.83125,6.24375 z m 5.79375,-4.25625 h 3.91875 v 2.53125 h -3.91875 z m 3.91875,-4.95 h -3.91875 v -2.475 h 3.91875 z m 0,3.7125 h -3.91875 v -2.475 h 3.91875 z m 5.71875,3.76875 h -4.35 v -2.53125 h 3.58125 v -1.2375 h -3.58125 v -2.475 h 3.6 v -1.2375 h -3.6 v -2.475 h 3.975 v -1.21875 h -4.59375 l 1.1625,-0.6 c -0.2625,-0.7125 -0.88125,-1.78125 -1.4625,-2.625 l -1.18125,0.54375 c 0.525,0.825 1.14375,1.93125 1.40625,2.68125 h -4.275 c 0.43125,-0.91875 0.84375,-1.875 1.1625,-2.85 l -1.275,-0.3375 c -0.95625,2.86875 -2.53125,5.64375 -4.3875,7.40625 0.31875,0.225 0.825,0.73125 1.03125,0.99375 0.6375,-0.675 1.275,-1.4625 1.8375,-2.34375 v 10.9125 h 1.3125 v -1.33125 h 9.6375 z"
         style="font-style:normal;font-variant:normal;font-weight:normal;font-stretch:normal;font-family:'Noto Sans CJK SC';-inkscape-font-specification:'Noto Sans CJK SC'"
         id="path947"
         inkscape:connector-curvature="0" />
      <path
         d="m 972.06919,323.32242 c -0.975,1.81875 -2.41875,3.24375 -4.2,4.36875 -1.7625,-1.14375 -3.1125,-2.60625 -4.05,-4.36875 z m 1.06875,-1.425 -0.28125,0.0562 h -4.3875 v -2.86875 h 7.14375 v -1.36875 h -7.14375 v -2.85 h -1.425 v 2.85 h -7.10625 v 1.36875 h 7.10625 v 2.86875 h -6.2625 v 1.36875 h 1.9875 l -0.4125,0.15 c 1.0125,2.025 2.4,3.675 4.18125,4.96875 -2.175,1.0875 -4.70625,1.78125 -7.36875,2.2125 0.2625,0.31875 0.6375,0.95625 0.76875,1.33125 2.83125,-0.54375 5.55,-1.3875 7.875,-2.68125 2.11875,1.275 4.725,2.11875 7.74375,2.5875 0.1875,-0.4125 0.5625,-1.0125 0.8625,-1.35 -2.79375,-0.3375 -5.2125,-1.05 -7.25625,-2.1 2.15625,-1.4625 3.8625,-3.39375 4.93125,-5.94375 z"
         style="font-style:normal;font-variant:normal;font-weight:normal;font-stretch:normal;font-family:'Noto Sans CJK SC';-inkscape-font-specification:'Noto Sans CJK SC'"
         id="path949"
         inkscape:connector-curvature="0" />
      <path
         d="m 983.56294,323.00367 -1.85625,0.58125 v -3.675 h 1.9875 v -1.29375 h -1.9875 v -3.75 h -1.29375 v 3.75 h -2.4 v 1.29375 h 2.4 v 4.05 c -1.0125,0.31875 -1.93125,0.6 -2.6625,0.80625 l 0.35625,1.33125 c 0.69375,-0.20625 1.48125,-0.45 2.30625,-0.73125 v 4.93125 c 0,0.2625 -0.0937,0.3375 -0.3375,0.3375 -0.20625,0.0187 -0.9375,0.0187 -1.74375,-0.0188 0.1875,0.39375 0.35625,0.95625 0.4125,1.3125 1.18125,0.0188 1.89375,-0.0375 2.325,-0.2625 0.46875,-0.225 0.6375,-0.6 0.6375,-1.36875 v -5.3625 l 2.04375,-0.65625 z m 2.00625,3.7125 c 0.80625,0.975 1.6875,2.38125 2.04375,3.28125 l 1.1625,-0.69375 c -0.39375,-0.9 -1.3125,-2.25 -2.1375,-3.225 z m 9.54375,-4.5 v -1.29375 h -4.89375 v -2.38125 h 3.99375 v -1.275 h -3.99375 v -2.325 h -1.33125 v 2.325 h -3.975 v 1.275 h 3.975 v 2.38125 h -4.93125 v 1.29375 h 7.40625 v 2.0625 h -7.18125 v 1.275 h 7.18125 v 4.725 c 0,0.2625 -0.0937,0.3375 -0.35625,0.35625 -0.28125,0.0187 -1.275,0.0187 -2.325,-0.0188 0.1875,0.39375 0.375,0.9375 0.43125,1.35 1.3875,0 2.2875,-0.0187 2.85,-0.24375 0.54375,-0.20625 0.7125,-0.58125 0.7125,-1.44375 v -4.725 h 2.30625 v -1.275 h -2.30625 v -2.0625 z"
         style="font-style:normal;font-variant:normal;font-weight:normal;font-stretch:normal;font-family:'Noto Sans CJK SC';-inkscape-font-specification:'Noto Sans CJK SC'"
         id="path951"
         inkscape:connector-curvature="0" />
    </g>
  </g>
  <path
     style="fill:url(#linearGradient5399);stroke-width:1.07546568"
     d="m 1037,11 v 192 h 110 c 2.77,0 5,-2.57928 5,-5.78313 V 16.78313 C 1152,13.57928 1149.77,11 1147,11 Z"
     id="path143" />
  <path
     d="m 1061.4746,99.5 c -2.4242,0 -4.2752,0.63928 -5.5547,1.91797 -1.2794,1.27869 -1.9199,3.11437 -1.9199,5.50781 0,2.36065 0.6405,4.21432 1.9199,5.55859 1.2795,1.34427 3.1305,2.01563 5.5547,2.01563 2.4243,0 4.2772,-0.67136 5.5566,-2.01563 1.3131,-1.37706 1.9688,-3.23073 1.9688,-5.55859 0,-2.29508 -0.6405,-4.09869 -1.9199,-5.41016 -1.2795,-1.34426 -3.1475,-2.01562 -5.6055,-2.01562 z m 26,0 c -2.4242,0 -4.2752,0.63928 -5.5547,1.91797 -1.2794,1.27869 -1.9199,3.11437 -1.9199,5.50781 0,2.36065 0.6405,4.21432 1.9199,5.55859 1.2795,1.34427 3.1305,2.01563 5.5547,2.01563 2.4243,0 4.2753,-0.67136 5.5547,-2.01563 1.3132,-1.37706 1.9707,-3.23073 1.9707,-5.55859 0,-2.29508 -0.6405,-4.09869 -1.9199,-5.41016 -1.2795,-1.34426 -3.1475,-2.01562 -5.6055,-2.01562 z m 26,0 c -2.4242,0 -4.2752,0.63928 -5.5547,1.91797 -1.2794,1.27869 -1.9199,3.11437 -1.9199,5.50781 0,2.36065 0.6405,4.21432 1.9199,5.55859 1.2795,1.34427 3.1305,2.01563 5.5547,2.01563 2.4243,0 4.2753,-0.67136 5.5547,-2.01563 1.3132,-1.37706 1.9707,-3.23073 1.9707,-5.55859 0,-2.29508 -0.6405,-4.09869 -1.9199,-5.41016 -1.2795,-1.34426 -3.1476,-2.01562 -5.6055,-2.01562 z"
     style="fill:#5f5f5f;fill-opacity:0.75"
     id="path145" />
  <path
     d="M 539,282 V 190.16016 L 537,191 l 3.5,-10 3.5,9.84571 -2,-0.75196 V 282 Z"
     style="fill:#de0080;fill-opacity:1"
     id="path147-3" />
  <path
     d="M 638,256 V 179.16016 L 636,180 l 3.5,-10 3.5,9.84571 -2,-0.75196 V 256 Z"
     style="fill:#de0080;fill-opacity:1"
     id="path147-36" />
  <path
     d="M 761,230 V 153.16016 L 759,154 l 3.5,-10 3.5,9.84571 -2,-0.75196 V 230 Z"
     style="fill:#de0080;fill-opacity:1"
     id="path147-36-7" />
  <path
     d="M 20,84.39699 V 71.98488 l -2,0.83984 3.5,-10 3.5,9.84571 -2,-0.75196 v 12.47852 z"
     style="fill:#de0080;stroke:none;fill-opacity:1"
     id="path127-5" />
  <g
     aria-label="升级路径"
     style="font-size:18.75px;font-family:'Open Sans';text-align:start;text-anchor:start;fill:#000000"
     id="text129-6">
    <path
       d="m 52.053369,71.967601 h -4.03125 v -7.14375 h -1.40625 v 7.14375 h -5.7 v -4.59375 c 1.3875,-0.45 2.68125,-0.9375 3.73125,-1.48125 l -1.05,-1.14375 c -1.85625,1.125 -5.15625,2.15625 -8.11875,2.85 0.20625,0.28125 0.43125,0.7875 0.50625,1.125 1.1625,-0.2625 2.3625,-0.58125 3.5625,-0.91875 v 4.1625 h -4.21875 v 1.35 h 4.2 c -0.15,2.68125 -0.91875,5.30625 -4.3875,7.25625 0.3,0.225 0.7875,0.73125 0.99375,1.05 3.80625,-2.175 4.6125,-5.2125 4.7625,-8.30625 h 5.71875 v 8.26875 h 1.40625 v -8.26875 h 4.03125 z"
       style="font-style:normal;font-variant:normal;font-weight:normal;font-stretch:normal;font-family:'Noto Sans CJK SC';-inkscape-font-specification:'Noto Sans CJK SC'"
       id="path1053"
       inkscape:connector-curvature="0" />
    <path
       d="m 56.534619,74.611351 c 1.36875,-1.63125 2.7375,-3.58125 3.88125,-5.55 l -1.14375,-0.69375 c -0.375,0.675 -0.76875,1.36875 -1.18125,2.025 l -2.5125,0.28125 c 1.14375,-1.59375 2.26875,-3.6375 3.15,-5.625 l -1.275,-0.61875 c -0.80625,2.2875 -2.23125,4.70625 -2.64375,5.325 -0.43125,0.61875 -0.76875,1.0875 -1.0875,1.1625 0.15,0.375 0.35625,1.0125 0.43125,1.3125 0.28125,-0.13125 0.73125,-0.2625 3.1125,-0.58125 -0.84375,1.25625 -1.63125,2.25 -1.9875,2.625 -0.58125,0.7125 -1.05,1.1625 -1.44375,1.2375 0.15,0.375 0.35625,0.99375 0.43125,1.275 0.4125,-0.3 1.05,-0.54375 6.01875,-2.025 -0.05625,-0.3 -0.1125,-0.80625 -0.1125,-1.18125 z m 3.75,2.175 c -2.3625,0.8625 -4.78125,1.74375 -6.375,2.25 l 0.3375,1.36875 c 1.74375,-0.65625 4.0875,-1.5375 6.28125,-2.41875 z m 6.7125,-9.80625 c -0.43125,1.74375 -0.99375,3.69375 -1.4625,5.00625 h 3.20625 c -0.46875,1.8 -1.2,3.3375 -2.11875,4.63125 -1.2375,-1.6875 -2.2125,-3.73125 -2.86875,-5.86875 0.1125,-1.18125 0.20625,-2.45625 0.2625,-3.76875 z m 2.475,3.7125 -0.24375,0.05625 h -1.93125 c 0.46875,-1.5375 1.0125,-3.46875 1.425,-5.08125 h -8.15625 v 1.3125 h 2.08125 c -0.225,5.9625 -0.8625,10.8 -3.39375,13.78125 0.31875,0.1875 0.975,0.6375 1.2,0.8625 1.6125,-2.1 2.49375,-4.8375 2.98125,-8.175 0.6375,1.55625 1.425,2.98125 2.34375,4.2375 -1.14375,1.2375 -2.45625,2.19375 -3.91875,2.86875 0.3,0.20625 0.7875,0.73125 0.975,1.06875 1.36875,-0.7125 2.6625,-1.65 3.7875,-2.8875 1.03125,1.1625 2.19375,2.1375 3.50625,2.83125 0.225,-0.375 0.65625,-0.88125 0.95625,-1.14375 -1.33125,-0.6375 -2.55,-1.575 -3.6,-2.75625 1.29375,-1.725 2.2875,-3.91875 2.85,-6.61875 z"
       style="font-style:normal;font-variant:normal;font-weight:normal;font-stretch:normal;font-family:'Noto Sans CJK SC';-inkscape-font-specification:'Noto Sans CJK SC'"
       id="path1055"
       inkscape:connector-curvature="0" />
    <path
       d="m 82.034619,74.817601 c 0.99375,-0.6 1.95,-1.35 2.8125,-2.2125 0.80625,0.80625 1.725,1.59375 2.775,2.2125 z m 0.45,4.81875 v -3.6 h 4.6875 v 3.6 z m -2.7375,-5.98125 h -2.325 v -2.7 h 2.15625 v -0.5625 c 0.3375,0.225 0.76875,0.61875 0.975,0.825 0.6,-0.61875 1.18125,-1.33125 1.70625,-2.15625 0.46875,0.84375 1.03125,1.725 1.725,2.56875 -1.25625,1.29375 -2.7375,2.2875 -4.2375,2.925 z m -4.9875,-7.2 h 3.525 v 3.28125 h -3.525 z m 11.94375,1.125 c -0.46875,1.1625 -1.125,2.2125 -1.9125,3.16875 -0.76875,-0.91875 -1.3875,-1.89375 -1.85625,-2.8125 l 0.1875,-0.35625 z m 0.8625,-1.275 -0.24375,0.05625 h -3.61875 c 0.20625,-0.50625 0.4125,-1.05 0.6,-1.59375 l -1.33125,-0.31875 c -0.69375,2.25 -1.9125,4.35 -3.39375,5.75625 v -4.96875 h -6.05625 v 5.71875 h 2.625 v 7.575 l -1.44375,0.3375 v -6.15 h -1.18125 v 6.39375 l -0.95625,0.20625 0.2625,1.35 c 1.96875,-0.4875 4.63125,-1.125 7.18125,-1.74375 l -0.13125,-1.25625 c -0.825,0.20625 -1.65,0.39375 -2.45625,0.58125 v -3.35625 h 1.96875 c 0.2625,0.28125 0.54375,0.65625 0.675,0.9375 0.375,-0.16875 0.75,-0.3375 1.125,-0.525 v 6.24375 h 1.29375 v -0.675 h 4.6875 v 0.61875 h 1.33125 v -6.16875 c 0.20625,0.09375 0.4125,0.16875 0.6,0.2625 0.1875,-0.3375 0.58125,-0.88125 0.8625,-1.14375 -1.6875,-0.6375 -3.1125,-1.63125 -4.275,-2.75625 1.1625,-1.3875 2.1375,-3.0375 2.7375,-4.9875 z"
       style="font-style:normal;font-variant:normal;font-weight:normal;font-stretch:normal;font-family:'Noto Sans CJK SC';-inkscape-font-specification:'Noto Sans CJK SC'"
       id="path1057"
       inkscape:connector-curvature="0" />
    <path
       d="m 95.403369,64.505101 c -0.7875,1.3125 -2.4,2.86875 -3.84375,3.84375 0.225,0.2625 0.58125,0.80625 0.73125,1.125 1.63125,-1.10625 3.35625,-2.85 4.44375,-4.4625 z m 0.3375,4.10625 c -1.06875,1.93125 -2.79375,3.84375 -4.44375,5.0625 0.24375,0.3375 0.61875,1.03125 0.73125,1.33125 0.65625,-0.525 1.33125,-1.18125 1.9875,-1.875 v 8.4375 h 1.3875 v -10.10625 c 0.58125,-0.76875 1.10625,-1.575 1.5375,-2.3625 z m 12.656251,3.525 c -1.03125,-0.675 -2.94375,-1.6125 -4.63125,-2.325 1.36875,-1.10625 2.53125,-2.4 3.3375,-3.825 l -0.99375,-0.6 -0.2625,0.05625 h -8.100001 v 1.29375 h 7.162501 c -1.89375,2.45625 -5.362501,4.5 -8.475001,5.53125 0.28125,0.28125 0.65625,0.7875 0.825,1.14375 1.81875,-0.675 3.712501,-1.59375 5.400001,-2.75625 1.7625,0.76875 3.8625,1.875 4.96875,2.625 z m -5.1375,3.075 h 4.03125 v -1.29375 h -9.543751 v 1.29375 h 4.106251 v 4.5375 h -5.231251 v 1.3125 h 11.775001 v -1.3125 h -5.1375 z"
       style="font-style:normal;font-variant:normal;font-weight:normal;font-stretch:normal;font-family:'Noto Sans CJK SC';-inkscape-font-specification:'Noto Sans CJK SC'"
       id="path1059"
       inkscape:connector-curvature="0" />
  </g>
</svg>
