<?xml version="1.0" encoding="UTF-8" standalone="no"?>
<svg
   xmlns:dc="http://purl.org/dc/elements/1.1/"
   xmlns:cc="http://creativecommons.org/ns#"
   xmlns:rdf="http://www.w3.org/1999/02/22-rdf-syntax-ns#"
   xmlns:svg="http://www.w3.org/2000/svg"
   xmlns="http://www.w3.org/2000/svg"
   xmlns:xlink="http://www.w3.org/1999/xlink"
   width="1153"
   height="447"
   version="1.1"
   id="svg191">
  <metadata
     id="metadata195">
    <rdf:RDF>
      <cc:Work
         rdf:about="">
        <dc:format>image/svg+xml</dc:format>
        <dc:type
           rdf:resource="http://purl.org/dc/dcmitype/StillImage" />
        <dc:title></dc:title>
      </cc:Work>
    </rdf:RDF>
  </metadata>
  <defs
     id="defs86">
    <linearGradient
       id="linearGradient5393">
      <stop
         style="stop-color:#ffffff;stop-"
         offset="0"
         id="stop5395" />
      <stop
         style="stop-color:#ffffff;stop-opacity:0;"
         offset="1"
         id="stop5397" />
    </linearGradient>
    <linearGradient
       xlink:href="#linearGradient5393"
       id="linearGradient5399"
       x1="1109.5564"
       y1="41.785362"
       x2="967.62579"
       y2="41.785362"
       gradientUnits="userSpaceOnUse"
       gradientTransform="matrix(1,0,0,1.1566265,68,-1.72289)" />
  </defs>
  <path
     style="fill:#71d6e0;stroke-width:1.03108311"
     d="M 4.1894531,409 C 2.4225269,409 1,410.338 1,412 v 22 c 0,1.662 1.4225269,3 3.1894531,3 H 1102 l 50,-14 -50,-14 z"
     id="rect7" />
  <text
     xml:space="preserve"
     style="font-weight:600;font-size:18.75px;font-family:'Open Sans';fill:#5f5f5f"
     x="537.9303"
     y="429.6925"
     id="text11">TIME</text>
  <rect
     ry="5.7831326"
     rx="5.795455"
     y="195"
     x="1"
     height="192"
     width="1122"
     style="fill:#ededed;stroke-width:1.15785813"
     id="rect13" />
  <rect
     style="fill:#02d35f"
     width="190"
     height="26"
     x="425"
     y="265"
     id="rect15" />
  <rect
     style="fill:#02d35f"
     width="190"
     height="26"
     x="155"
     y="317"
     id="rect17" />
  <text
     xml:space="preserve"
     style="font-weight:600;font-size:18.75px;font-family:'Open Sans';fill:#00c081"
     x="17.084473"
     y="232.8459"
     id="text19">SLES 12</text>
  <rect
     style="fill:#02d35f"
     width="190"
     height="26"
     x="20"
     y="343"
     id="rect21" />
  <rect
     style="opacity:0.5;fill:#92ecba"
     width="55"
     height="52"
     x="155"
     y="317"
     id="rect23" />
  <rect
     style="fill:#02d35f"
     width="190"
     height="26"
     x="290"
     y="291"
     id="rect25" />
  <rect
     style="opacity:0.5;fill:#92ecba"
     width="55"
     height="52"
     x="290"
     y="291"
     id="rect27" />
  <rect
     style="opacity:0.5;fill:#92ecba"
     width="55"
     height="52"
     x="425"
     y="265"
     id="rect29" />
  <rect
     style="fill:#02d35f;stroke-width:0.90889329"
     width="190"
     height="26"
     x="560"
     y="239"
     id="rect31" />
  <rect
     style="opacity:0.5;fill:#92ecba"
     width="55"
     height="52"
     x="560"
     y="239"
     id="rect33" />
  <rect
     style="fill:#a5efc6"
     width="160"
     height="26"
     x="210"
     y="343"
     id="rect35" />
  <rect
     style="fill:#a5efc6"
     width="160"
     height="26"
     x="345"
     y="317"
     id="rect37" />
  <rect
     style="fill:#a5efc6"
     width="160"
     height="26"
     x="480"
     y="291"
     id="rect39" />
  <rect
     style="fill:#a5efc6"
     width="160"
     height="26"
     x="615"
     y="265"
     id="rect41" />
  <rect
     style="fill:#a5efc6"
     width="160"
     height="26"
     x="750"
     y="239"
     id="rect43" />
  <rect
     y="263"
     x="560"
     height="2"
     width="350"
     style="fill:#a7a9ac;fill-opacity:0.58823529;stroke-width:0.94733095"
     id="rect45" />
  <rect
     y="341"
     x="155"
     height="2"
     width="350"
     style="fill:#a7a9ac;fill-opacity:0.58823529"
     id="rect47" />
  <rect
     y="367"
     x="20"
     height="2"
     width="350"
     style="fill:#a7a9ac;fill-opacity:0.58823529"
     id="rect49" />
  <rect
     y="315"
     x="290"
     height="2"
     width="350"
     style="fill:#a7a9ac;fill-opacity:0.58823529"
     id="rect51" />
  <rect
     y="289"
     x="425"
     height="2"
     width="350"
     style="fill:#a7a9ac;fill-opacity:0.58823529"
     id="rect53" />
  <rect
     style="fill:#5f5f5f"
     width="500"
     height="36"
     x="406"
     y="362"
     rx="3"
     ry="3"
     id="rect55" />
  <text
     xml:space="preserve"
     style="font-size:18.75px;font-family:'Open Sans';fill:#00c081"
     x="425.20929"
     y="385.1142"
     id="text57">Long Term Service Pack Support (LTSS), up to 3 years</text>
  <path
     d="m 419.67562,392 -47.49269,-27.41992 -0.27268,2.15197 -6.91025,-8.03109 10.27663,1.89177 -1.65121,1.35607 47.5502,27.45312 z"
     style="fill:#5f5f5f;stroke:none"
     id="path59" />
  <path
     d="M 427,362 V 338.16016 L 425,339 l 3.5,-10 3.5,9.84571 -2,-0.75196 V 362 Z"
     style="fill:#5f5f5f;stroke:none"
     id="path61" />
  <rect
     ry="5.7831326"
     rx="5.5923343"
     y="11"
     x="510"
     height="192"
     width="642"
     style="fill:#dcddde;stroke-width:1.13738668"
     id="rect67" />
  <rect
     style="fill:#02d35f;stroke-width:1.12546289"
     width="190"
     height="26"
     x="934"
     y="81"
     id="rect69" />
  <rect
     style="fill:#02d35f"
     width="190"
     height="26"
     x="664"
     y="133"
     id="rect71" />
  <text
     xml:space="preserve"
     style="font-weight:600;font-size:18.75px;font-family:'Open Sans';fill:#00c081"
     x="526.08447"
     y="48.727898"
     id="text73">SLES 15</text>
  <rect
     style="fill:#02d35f"
     width="190"
     height="26"
     x="529"
     y="159"
     id="rect75" />
  <rect
     style="opacity:0.5;fill:#92ecba"
     width="55"
     height="52"
     x="664"
     y="133"
     id="rect77" />
  <rect
     style="fill:#02d35f"
     width="190"
     height="26"
     x="799"
     y="107"
     id="rect79" />
  <rect
     style="opacity:0.5;fill:#92ecba"
     width="55"
     height="52"
     x="799"
     y="107"
     id="rect81" />
  <rect
     style="opacity:0.5;fill:#92ecba"
     width="55"
     height="52"
     x="934"
     y="81"
     id="rect83" />
  <path
     d="M 331,334 V 311.16016 L 329,312 l 3.5,-10 3.5,9.84571 -2,-0.75196 V 334 Z"
     style="fill:#fd9a2b;stroke:none"
     id="path85" />
  <rect
     style="fill:#a5efc6"
     width="160"
     height="26"
     x="719"
     y="159"
     id="rect89" />
  <rect
     style="fill:#a5efc6"
     width="160"
     height="26"
     x="854"
     y="133"
     id="rect91" />
  <rect
     style="fill:#a5efc6;stroke-width:1.29777133"
     width="160"
     height="26"
     x="989"
     y="-133"
     id="rect93"
     transform="scale(1,-1)" />
  <rect
     y="157"
     x="664"
     height="2"
     width="350"
     style="fill:#a7a9ac;fill-opacity:0.58823529"
     id="rect95" />
  <rect
     y="183"
     x="529"
     height="2"
     width="350"
     style="fill:#a7a9ac;fill-opacity:0.58823529"
     id="rect97" />
  <rect
     y="131"
     x="799"
     height="2"
     width="350"
     style="fill:#a7a9ac;fill-opacity:0.58823529;stroke-width:1.10818326"
     id="rect99" />
  <rect
     style="fill:#a5efc6;stroke-width:0.54289669"
     width="28"
     height="26"
     x="1124"
     y="81"
     id="rect93-2" />
  <circle
     r="18"
     cy="146"
     cx="676"
     style="fill:#00c081"
     id="circle103" />
  <text
     y="152.84781"
     x="661.95227"
     style="font-size:18.75px;font-family:'Open Sans';fill:#ffffff"
     xml:space="preserve"
     id="text107">S<tspan
   style="letter-spacing:-1px"
   id="tspan105">P</tspan>1</text>
  <circle
     r="18"
     cy="120"
     cx="811"
     style="fill:#00c081"
     id="circle109" />
  <text
     y="126.82855"
     x="795.11841"
     style="font-size:18.75px;font-family:'Open Sans';fill:#ffffff"
     xml:space="preserve"
     id="text113">S<tspan
   style="letter-spacing:-0.5px"
   id="tspan111">P</tspan>2</text>
  <circle
     r="18"
     cy="172"
     cx="541"
     style="fill:#02a49c"
     id="circle115" />
  <text
     y="178.86716"
     x="527.44104"
     style="font-weight:600;font-size:18.75px;font-family:'Open Sans';fill:#ffffff"
     xml:space="preserve"
     id="text117">GA</text>
  <circle
     r="18"
     cy="94"
     cx="946"
     style="fill:#00c081"
     id="circle119" />
  <text
     y="100.80919"
     x="930.16418"
     style="font-size:18.75px;font-family:'Open Sans';fill:#ffffff"
     xml:space="preserve"
     id="text123">S<tspan
   style="letter-spacing:-0.5px"
   id="tspan121">P</tspan>3</text>
  <path
     d="m 20,52.999992 v -12.41211 l -2,0.83984 3.5,-10 3.5,9.84571 -2,-0.75196 v 12.47852 z"
     style="fill:#fd9a2b;stroke:none"
     id="path127" />
  <text
     xml:space="preserve"
     style="font-size:18.75px;font-family:'Open Sans';text-align:start;text-anchor:start;fill:#000000"
     x="34.297119"
     y="48.745605"
     id="text129">Update path</text>
  <path
     d="M 601,282 V 259.16016 L 599,260 l 3.5,-10 3.5,9.84571 -2,-0.75196 V 282 Z"
     style="fill:#fd9a2b;stroke:none"
     id="path131" />
  <path
     d="M 466,308 V 285.16016 L 464,286 l 3.5,-10 3.5,9.84571 -2,-0.75196 V 308 Z"
     style="fill:#fd9a2b;stroke:none"
     id="path133" />
  <path
     d="M 840,150 V 127.16016 L 838,128 l 3.5,-10 3.5,9.84571 -2,-0.75196 V 150 Z"
     style="fill:#fd9a2b;stroke:none"
     id="path135" />
  <path
     d="M 705,176 V 153.16016 L 703,154 l 3.5,-10 3.5,9.84571 -2,-0.75196 V 176 Z"
     style="fill:#fd9a2b;stroke:none"
     id="path137" />
  <path
     d="M 196,360 V 337.16016 L 194,338 l 3.5,-10 3.5,9.84571 -2,-0.75196 V 360 Z"
     style="fill:#fd9a2b;stroke:none"
     id="path141" />
  <path
     d="M 685,256 V 161.16016 L 683,162 l 3.5,-10 3.5,9.84571 -2,-0.75196 V 256 Z"
     style="fill:#de0080;fill-opacity:1"
     id="path147" />
  <path
     style="fill:#fd9a2b;stroke-width:1.00073278"
     d="m 593.49478,250 -3.50513,10 2.00293,-0.83984 c 0,26.27434 -9.96383,48.62586 -26.89484,58.66406 C 548.15544,327.86912 524.40738,331 497,331 v 3 c 27.61771,0 51.85768,-3.0654 69.66448,-13.61523 18.74255,-11.10423 28.33259,-34.5554 28.33259,-61.29102 L 597,259.8457 Z"
     id="path149" />
  <path
     d="M 865,176 V 127.16016 L 863,128 l 3.5,-10 3.5,9.84571 -2,-0.75196 V 176 Z"
     style="fill:#fd9a2b"
     id="path151" />
  <path
     d="M 491,334 V 285.16016 L 489,286 l 3.5,-10 3.5,9.84571 -2,-0.75196 V 334 Z"
     style="fill:#fd9a2b"
     id="path153" />
  <path
     d="M 626,308 V 259.16016 L 624,260 l 3.5,-10 3.5,9.84571 -2,-0.75196 V 308 Z"
     style="fill:#fd9a2b"
     id="path155" />
  <path
     d="M 356,360 V 311.16016 L 354,312 l 3.5,-10 3.5,9.84571 -2,-0.75196 V 360 Z"
     style="fill:#fd9a2b"
     id="path157" />
  <circle
     r="18"
     cy="356"
     cx="32"
     style="fill:#02a49c"
     id="circle159" />
  <text
     y="362.86716"
     x="18.44104"
     style="font-weight:600;font-size:18.75px;font-family:'Open Sans';fill:#ffffff"
     xml:space="preserve"
     id="text161">GA</text>
  <circle
     r="18"
     cy="330"
     cx="167"
     style="fill:#00c081"
     id="circle163" />
  <text
     y="336.84781"
     x="152.95227"
     style="font-size:18.75px;font-family:'Open Sans';fill:#ffffff"
     xml:space="preserve"
     id="text167">S<tspan
   style="letter-spacing:-1px"
   id="tspan165">P</tspan>1</text>
  <circle
     r="18"
     cy="304"
     cx="302"
     style="fill:#00c081"
     id="circle169" />
  <text
     y="310.82855"
     x="286.11841"
     style="font-size:18.75px;font-family:'Open Sans';fill:#ffffff"
     xml:space="preserve"
     id="text173">S<tspan
   style="letter-spacing:-0.5px"
   id="tspan171">P</tspan>2</text>
  <circle
     r="18"
     cy="252"
     cx="572"
     style="fill:#00c081"
     id="circle175" />
  <text
     y="258.8092"
     x="555.80255"
     style="font-size:18.75px;font-family:'Open Sans';fill:#ffffff"
     xml:space="preserve"
     id="text179">S<tspan
   style="letter-spacing:-0.5px"
   id="tspan177">P</tspan>4</text>
  <circle
     r="18"
     cy="278"
     cx="437"
     style="fill:#00c081"
     id="circle181" />
  <text
     y="284.8092"
     x="421.16418"
     style="font-size:18.75px;font-family:'Open Sans';fill:#ffffff"
     xml:space="preserve"
     id="text185">S<tspan
   style="letter-spacing:-0.5px"
   id="tspan183">P</tspan>3</text>
  <path
     d="M 675,282 V 164.16016 L 673,165 l 3.5,-10 3.5,9.84571 -2,-0.75196 V 282 Z"
     style="fill:#de0080;stroke:none;fill-opacity:1"
     id="path189" />
  <rect
     style="fill:#02d35f"
     width="230"
     height="26"
     x="695"
     y="213"
     id="rect31-6" />
  <rect
     style="opacity:0.5;fill:#92ecba"
     width="55"
     height="52"
     x="695"
     y="213"
     id="rect33-2" />
  <rect
     style="fill:#a5efc6"
     width="160"
     height="26"
     x="925"
     y="213"
     id="rect43-9" />
  <rect
     y="237"
     x="695"
     height="2"
     width="390"
     style="fill:#a7a9ac;fill-opacity:0.58823529"
     id="rect45-1" />
  <circle
     r="18"
     cy="226"
     cx="707"
     style="fill:#00c081"
     id="circle175-2" />
  <text
     y="232.8092"
     x="690.80255"
     style="font-size:18.75px;font-family:'Open Sans';fill:#ffffff"
     xml:space="preserve"
     id="text179-7">S<tspan
   style="letter-spacing:-0.5px"
   id="tspan177-0">P5</tspan></text>
  <rect
     style="fill:#02d35f;stroke-width:0.74386382"
     width="83"
     height="26"
     x="1069"
     y="55"
     id="rect69-6" />
  <rect
     style="opacity:0.5;fill:#92ecba"
     width="55"
     height="52"
     x="1069"
     y="55"
     id="rect83-1" />
  <rect
     y="105"
     x="934"
     height="2"
     width="218"
     style="fill:#a7a9ac;fill-opacity:0.58823529;stroke-width:1.2055428"
     id="rect101" />
  <circle
     r="18"
     cy="68"
     cx="1081"
     style="fill:#00c081"
     id="circle119-8" />
  <path
     d="M 975,124 V 101.16016 L 973,102 l 3.5,-10 3.5,9.84571 -2,-0.75196 V 124 Z"
     style="fill:#fd9a2b;stroke:none"
     id="path139" />
  <path
     d="M 902,287 V 234.16016 L 900,235 l 3.5,-10 3.5,9.84571 -2,-0.75196 V 287 Z"
     style="fill:#5f5f5f;stroke:none"
     id="path187" />
  <path
     d="M 736,256 V 233.16016 L 734,234 l 3.5,-10 3.5,9.84571 -2,-0.75196 V 256 Z"
     style="fill:#fd9a2b;stroke:none"
     id="path131-9" />
  <path
     style="fill:#fd9a2b;stroke-width:1.00073278"
     d="m 728.49478,224 -3.50513,10 2.00293,-0.8398 c 0,26.2743 -9.96383,48.62582 -26.89484,58.66402 C 683.15544,301.86912 659.40738,305 632,305 v 3 c 27.61771,0 51.85768,-3.0654 69.66448,-13.61523 18.74255,-11.10423 28.33259,-34.5554 28.33259,-61.29097 L 732,233.8457 Z"
     id="path149-0" />
  <rect
     style="fill:#5f5f5f;stroke-width:1.02022684"
     width="346.26041"
     height="54"
     x="730.36981"
     y="285.62891"
     rx="2.0817258"
     ry="4.5"
     id="rect63" />
  <g
     id="g4289"
     transform="translate(1.5258789e-5,-1.5020294)">
    <text
       id="text65"
       y="309.46191"
       x="751.68268"
       style="font-size:18.75px;font-family:'Open Sans';fill:#00c081"
       xml:space="preserve">Last Service Pack: General Support</text>
    <text
       id="text65-2"
       y="328.54117"
       x="818.17743"
       style="font-size:18.75px;font-family:'Open Sans';fill:#00c081"
       xml:space="preserve">up to GA + 10 years</text>
  </g>
  <path
     style="fill:url(#linearGradient5399);stroke-width:1.07546568"
     d="m 1037,11 v 192 h 110 c 2.77,0 5,-2.57928 5,-5.78313 V 16.78313 C 1152,13.57928 1149.77,11 1147,11 Z"
     id="path143" />
  <path
     d="m 1061.4746,99.5 c -2.4242,0 -4.2752,0.63928 -5.5547,1.91797 -1.2794,1.27869 -1.9199,3.11437 -1.9199,5.50781 0,2.36065 0.6405,4.21432 1.9199,5.55859 1.2795,1.34427 3.1305,2.01563 5.5547,2.01563 2.4243,0 4.2772,-0.67136 5.5566,-2.01563 1.3131,-1.37706 1.9688,-3.23073 1.9688,-5.55859 0,-2.29508 -0.6405,-4.09869 -1.9199,-5.41016 -1.2795,-1.34426 -3.1475,-2.01562 -5.6055,-2.01562 z m 26,0 c -2.4242,0 -4.2752,0.63928 -5.5547,1.91797 -1.2794,1.27869 -1.9199,3.11437 -1.9199,5.50781 0,2.36065 0.6405,4.21432 1.9199,5.55859 1.2795,1.34427 3.1305,2.01563 5.5547,2.01563 2.4243,0 4.2753,-0.67136 5.5547,-2.01563 1.3132,-1.37706 1.9707,-3.23073 1.9707,-5.55859 0,-2.29508 -0.6405,-4.09869 -1.9199,-5.41016 -1.2795,-1.34426 -3.1475,-2.01562 -5.6055,-2.01562 z m 26,0 c -2.4242,0 -4.2752,0.63928 -5.5547,1.91797 -1.2794,1.27869 -1.9199,3.11437 -1.9199,5.50781 0,2.36065 0.6405,4.21432 1.9199,5.55859 1.2795,1.34427 3.1305,2.01563 5.5547,2.01563 2.4243,0 4.2753,-0.67136 5.5547,-2.01563 1.3132,-1.37706 1.9707,-3.23073 1.9707,-5.55859 0,-2.29508 -0.6405,-4.09869 -1.9199,-5.41016 -1.2795,-1.34426 -3.1476,-2.01562 -5.6055,-2.01562 z"
     style="fill:#5f5f5f;fill-opacity:0.75"
     id="path145" />
  <path
     d="M 539,282 V 190.16016 L 537,191 l 3.5,-10 3.5,9.84571 -2,-0.75196 V 282 Z"
     style="fill:#de0080;fill-opacity:1"
     id="path147-3" />
  <path
     d="M 638,256 V 179.16016 L 636,180 l 3.5,-10 3.5,9.84571 -2,-0.75196 V 256 Z"
     style="fill:#de0080;fill-opacity:1"
     id="path147-36" />
  <path
     d="M 761,230 V 153.16016 L 759,154 l 3.5,-10 3.5,9.84571 -2,-0.75196 V 230 Z"
     style="fill:#de0080;fill-opacity:1"
     id="path147-36-7" />
  <path
     d="M 20,84.39699 V 71.98488 l -2,0.83984 3.5,-10 3.5,9.84571 -2,-0.75196 v 12.47852 z"
     style="fill:#de0080;stroke:none;fill-opacity:1"
     id="path127-5" />
  <text
     xml:space="preserve"
     style="font-size:18.75px;font-family:'Open Sans';text-align:start;text-anchor:start;fill:#000000"
     x="34.297119"
     y="80.142601"
     id="text129-6">Upgrade path</text>
</svg>
