<?xml version="1.0" encoding="UTF-8" standalone="no"?>
<svg
   width="680"
   height="541.27"
   viewBox="0 0 179.92 143.21"
   version="1.1"
   id="svg8"
   sodipodi:docname="partitioning-keep1.svg"
   inkscape:version="1.2.2 (732a01da63, 2022-12-09)"
   xmlns:inkscape="http://www.inkscape.org/namespaces/inkscape"
   xmlns:sodipodi="http://sodipodi.sourceforge.net/DTD/sodipodi-0.dtd"
   xmlns="http://www.w3.org/2000/svg"
   xmlns:svg="http://www.w3.org/2000/svg">
  <defs
     id="defs5942" />
  <sodipodi:namedview
     id="namedview5940"
     pagecolor="#ffffff"
     bordercolor="#000000"
     borderopacity="0.25"
     inkscape:showpageshadow="2"
     inkscape:pageopacity="0.0"
     inkscape:pagecheckerboard="0"
     inkscape:deskcolor="#d1d1d1"
     showgrid="false"
     inkscape:zoom="4.2117836"
     inkscape:cx="167.15009"
     inkscape:cy="252.14971"
     inkscape:window-width="1920"
     inkscape:window-height="1009"
     inkscape:window-x="-8"
     inkscape:window-y="-8"
     inkscape:window-maximized="1"
     inkscape:current-layer="text857-9"
     showguides="false" />
  <g
     id="layer1"
     transform="translate(-13.23 -10.58)">
    <rect
       id="rect853"
       width="66.15"
       height="34.4"
       x="13.23"
       y="10.58"
       fill="#0c322c"
       stroke="none"
       stroke-width="1.85"
       stroke-linecap="round"
       paint-order="stroke markers fill"
       stop-color="#000" />
    <g
       aria-label="/dev/hda1：Windows"
       id="text857"
       style="font-size:4.5862px;line-height:1.25;font-family:Poppins;-inkscape-font-specification:Poppins;letter-spacing:0;fill:#ffffff;stroke-width:0.26">
      <path
         d="m 23.153671,25.3698 -1.256619,5.099855 H 21.484294 L 22.736326,25.3698 Z"
         style="text-align:center;text-anchor:middle"
         id="path371" />
      <path
         d="m 23.621462,28.424209 q 0,-0.385241 0.155931,-0.674171 0.155931,-0.293517 0.426517,-0.454034 0.275172,-0.160517 0.614551,-0.160517 0.293516,0 0.545757,0.137586 0.252241,0.133 0.385241,0.353137 v -1.329998 h 0.421931 v 3.393789 h -0.421931 v -0.472379 q -0.123827,0.224724 -0.366896,0.371482 -0.243068,0.142172 -0.568689,0.142172 -0.334792,0 -0.609964,-0.165103 -0.270586,-0.165103 -0.426517,-0.463206 -0.155931,-0.298103 -0.155931,-0.678758 z m 2.127997,0.0046 q 0,-0.284344 -0.114655,-0.495309 -0.114655,-0.210965 -0.311861,-0.321034 -0.192621,-0.114655 -0.426517,-0.114655 -0.233896,0 -0.426517,0.110069 -0.19262,0.110068 -0.307275,0.321034 -0.114655,0.210965 -0.114655,0.495309 0,0.288931 0.114655,0.504482 0.114655,0.210966 0.307275,0.325621 0.192621,0.110068 0.426517,0.110068 0.233896,0 0.426517,-0.110068 0.197206,-0.114655 0.311861,-0.325621 0.114655,-0.215551 0.114655,-0.499896 z"
         style="text-align:center;text-anchor:middle"
         id="path373" />
      <path
         d="m 29.170767,28.337071 q 0,0.119242 -0.01376,0.252241 h -2.008756 q 0.02293,0.371483 0.252241,0.582448 0.233896,0.206379 0.564103,0.206379 0.270585,0 0.449447,-0.123827 0.183448,-0.128414 0.256827,-0.339379 h 0.449448 q -0.100896,0.36231 -0.403586,0.59162 -0.302689,0.224723 -0.752136,0.224723 -0.357724,0 -0.642068,-0.160517 -0.279759,-0.160517 -0.440276,-0.454033 -0.160517,-0.298104 -0.160517,-0.687931 0,-0.389827 0.155931,-0.683343 0.155931,-0.293517 0.435689,-0.449448 0.284345,-0.160517 0.651241,-0.160517 0.357723,0 0.632895,0.155931 0.275172,0.155931 0.421931,0.431103 0.151344,0.270585 0.151344,0.61455 z m -0.431103,-0.08714 q 0,-0.238483 -0.105482,-0.408172 -0.105483,-0.174276 -0.288931,-0.261414 -0.178862,-0.09172 -0.398999,-0.09172 -0.316448,0 -0.541172,0.201793 -0.220137,0.201793 -0.252241,0.559517 z"
         style="text-align:center;text-anchor:middle"
         id="path375" />
      <path
         d="m 30.6567,29.30476 0.779654,-2.127997 h 0.444862 l -0.986033,2.513238 h -0.486138 l -0.986033,-2.513238 h 0.449448 z"
         style="text-align:center;text-anchor:middle"
         id="path377" />
      <path
         d="m 33.853285,25.3698 -1.256619,5.099855 H 32.183908 L 33.435941,25.3698 Z"
         style="text-align:center;text-anchor:middle"
         id="path379" />
      <path
         d="m 35.724455,27.130901 q 0.284344,0 0.513654,0.123827 0.22931,0.119241 0.357724,0.36231 0.132999,0.243069 0.132999,0.59162 v 1.481343 h -0.412758 v -1.421723 q 0,-0.376068 -0.188034,-0.573275 -0.188034,-0.201792 -0.513654,-0.201792 -0.330207,0 -0.527413,0.206379 -0.192621,0.206379 -0.192621,0.600792 v 1.389619 h -0.417344 v -3.393789 h 0.417344 v 1.238274 q 0.123828,-0.19262 0.339379,-0.298103 0.220138,-0.105482 0.490724,-0.105482 z"
         style="text-align:center;text-anchor:middle"
         id="path381" />
      <path
         d="m 37.256243,28.424209 q 0,-0.385241 0.15593,-0.674171 0.155931,-0.293517 0.426517,-0.454034 0.275172,-0.160517 0.614551,-0.160517 0.293517,0 0.545758,0.137586 0.252241,0.133 0.385241,0.353137 v -1.329998 h 0.42193 v 3.393789 h -0.42193 v -0.472379 q -0.123828,0.224724 -0.366896,0.371482 -0.243069,0.142172 -0.568689,0.142172 -0.334793,0 -0.609965,-0.165103 -0.270586,-0.165103 -0.426517,-0.463206 -0.15593,-0.298103 -0.15593,-0.678758 z m 2.127997,0.0046 q 0,-0.284344 -0.114655,-0.495309 -0.114655,-0.210965 -0.311862,-0.321034 -0.19262,-0.114655 -0.426517,-0.114655 -0.233896,0 -0.426516,0.110069 -0.192621,0.110068 -0.307276,0.321034 -0.114655,0.210965 -0.114655,0.495309 0,0.288931 0.114655,0.504482 0.114655,0.210966 0.307276,0.325621 0.19262,0.110068 0.426516,0.110068 0.233897,0 0.426517,-0.110068 0.197207,-0.114655 0.311862,-0.325621 0.114655,-0.215551 0.114655,-0.499896 z"
         style="text-align:center;text-anchor:middle"
         id="path383" />
      <path
         d="m 40.356517,28.424209 q 0,-0.385241 0.155931,-0.674171 0.15593,-0.293517 0.426516,-0.454034 0.275172,-0.160517 0.609965,-0.160517 0.330206,0 0.573275,0.142172 0.243068,0.142172 0.36231,0.357724 v -0.45862 h 0.42193 v 2.513238 h -0.42193 v -0.467793 q -0.123828,0.220138 -0.371483,0.366896 -0.243068,0.142172 -0.568688,0.142172 -0.334793,0 -0.605379,-0.165103 -0.270586,-0.165103 -0.426516,-0.463206 -0.155931,-0.298103 -0.155931,-0.678758 z m 2.127997,0.0046 q 0,-0.284344 -0.114655,-0.495309 -0.114655,-0.210965 -0.311862,-0.321034 -0.19262,-0.114655 -0.426517,-0.114655 -0.233896,0 -0.426516,0.110069 -0.192621,0.110068 -0.307276,0.321034 -0.114655,0.210965 -0.114655,0.495309 0,0.288931 0.114655,0.504482 0.114655,0.210966 0.307276,0.325621 0.19262,0.110068 0.426516,0.110068 0.233897,0 0.426517,-0.110068 0.197207,-0.114655 0.311862,-0.325621 0.114655,-0.215551 0.114655,-0.499896 z"
         style="text-align:center;text-anchor:middle"
         id="path385" />
      <path
         d="m 43.433859,26.754832 v -0.380654 h 0.862206 v 3.315823 h -0.421931 v -2.935169 z"
         style="text-align:center;text-anchor:middle"
         id="path387" />
      <path
         d="m 45.873716,27.461107 c 0.183448,0 0.348551,-0.133 0.348551,-0.339379 0,-0.210965 -0.165103,-0.348551 -0.348551,-0.348551 -0.183448,0 -0.343965,0.137586 -0.343965,0.348551 0,0.206379 0.160517,0.339379 0.343965,0.339379 z m 0,2.247238 c 0.183448,0 0.348551,-0.137586 0.348551,-0.343965 0,-0.210965 -0.165103,-0.343965 -0.348551,-0.343965 -0.183448,0 -0.343965,0.133 -0.343965,0.343965 0,0.206379 0.160517,0.343965 0.343965,0.343965 z"
         style="font-family:'Noto Sans CJK SC';-inkscape-font-specification:'Noto Sans CJK SC';text-align:center;text-anchor:middle"
         id="path389" />
      <path
         d="m 53.684015,26.493419 -0.926412,3.196582 h -0.467792 l -0.742965,-2.572859 -0.770481,2.572859 -0.463207,0.0046 -0.894309,-3.201168 h 0.444862 l 0.697102,2.710444 0.770482,-2.710444 h 0.467792 l 0.733792,2.701272 0.701689,-2.701272 z"
         style="text-align:center;text-anchor:middle"
         id="path391" />
      <path
         d="m 54.358185,26.768591 q -0.119241,0 -0.201793,-0.08255 -0.08255,-0.08255 -0.08255,-0.201792 0,-0.119242 0.08255,-0.201793 0.08255,-0.08255 0.201793,-0.08255 0.114655,0 0.19262,0.08255 0.08255,0.08255 0.08255,0.201793 0,0.119241 -0.08255,0.201792 -0.07796,0.08255 -0.19262,0.08255 z m 0.201793,0.408172 v 2.513238 h -0.417344 v -2.513238 z"
         style="text-align:center;text-anchor:middle"
         id="path393" />
      <path
         d="m 56.495357,27.130901 q 0.45862,0 0.742965,0.279758 0.284344,0.275172 0.284344,0.797999 v 1.481343 h -0.412758 v -1.421723 q 0,-0.376068 -0.188034,-0.573275 -0.188034,-0.201792 -0.513655,-0.201792 -0.330206,0 -0.527413,0.206379 -0.19262,0.206379 -0.19262,0.600792 v 1.389619 h -0.417344 v -2.513238 h 0.417344 v 0.357723 q 0.123827,-0.19262 0.334793,-0.298103 0.215551,-0.105482 0.472378,-0.105482 z"
         style="text-align:center;text-anchor:middle"
         id="path395" />
      <path
         d="m 58.050076,28.424209 q 0,-0.385241 0.155931,-0.674171 0.155931,-0.293517 0.426517,-0.454034 0.275172,-0.160517 0.614551,-0.160517 0.293516,0 0.545757,0.137586 0.252241,0.133 0.385241,0.353137 v -1.329998 h 0.421931 v 3.393789 h -0.421931 v -0.472379 q -0.123827,0.224724 -0.366896,0.371482 -0.243068,0.142172 -0.568689,0.142172 -0.334792,0 -0.609964,-0.165103 -0.270586,-0.165103 -0.426517,-0.463206 -0.155931,-0.298103 -0.155931,-0.678758 z m 2.127997,0.0046 q 0,-0.284344 -0.114655,-0.495309 -0.114655,-0.210965 -0.311861,-0.321034 -0.192621,-0.114655 -0.426517,-0.114655 -0.233896,0 -0.426517,0.110069 -0.19262,0.110068 -0.307275,0.321034 -0.114655,0.210965 -0.114655,0.495309 0,0.288931 0.114655,0.504482 0.114655,0.210966 0.307275,0.325621 0.192621,0.110068 0.426517,0.110068 0.233896,0 0.426517,-0.110068 0.197206,-0.114655 0.311861,-0.325621 0.114655,-0.215551 0.114655,-0.499896 z"
         style="text-align:center;text-anchor:middle"
         id="path397" />
      <path
         d="m 62.402382,29.731276 q -0.353137,0 -0.642068,-0.160517 -0.284344,-0.160517 -0.449447,-0.454033 -0.160517,-0.298104 -0.160517,-0.687931 0,-0.38524 0.165103,-0.678757 0.169689,-0.298103 0.45862,-0.454034 0.28893,-0.160517 0.646654,-0.160517 0.357724,0 0.646654,0.160517 0.288931,0.155931 0.454034,0.449448 0.169689,0.293516 0.169689,0.683343 0,0.389827 -0.174275,0.687931 -0.16969,0.293516 -0.463206,0.454033 -0.293517,0.160517 -0.651241,0.160517 z m 0,-0.366896 q 0.224724,0 0.421931,-0.105482 0.197206,-0.105483 0.316447,-0.316448 0.123828,-0.210965 0.123828,-0.513655 0,-0.302689 -0.119241,-0.513654 -0.119242,-0.210965 -0.311862,-0.311862 -0.19262,-0.105482 -0.417344,-0.105482 -0.22931,0 -0.421931,0.105482 -0.188034,0.100897 -0.302689,0.311862 -0.114655,0.210965 -0.114655,0.513654 0,0.307276 0.110069,0.518241 0.114655,0.210965 0.302689,0.316448 0.188034,0.100896 0.412758,0.100896 z"
         style="text-align:center;text-anchor:middle"
         id="path399" />
      <path
         d="m 67.589372,27.176763 -0.78424,2.513238 h -0.431103 l -0.605379,-1.994998 -0.605378,1.994998 h -0.431103 l -0.788826,-2.513238 h 0.426516 l 0.577862,2.109652 0.623723,-2.109652 h 0.426516 l 0.609965,2.114238 0.568689,-2.114238 z"
         style="text-align:center;text-anchor:middle"
         id="path401" />
      <path
         d="m 68.891854,29.731276 q -0.288931,0 -0.518241,-0.09631 -0.22931,-0.100896 -0.36231,-0.275172 -0.133,-0.178862 -0.146758,-0.408172 h 0.431103 q 0.01834,0.188035 0.174275,0.307276 0.160517,0.119241 0.417344,0.119241 0.238483,0 0.376069,-0.105483 0.137586,-0.105482 0.137586,-0.265999 0,-0.165104 -0.146759,-0.243069 -0.146758,-0.08255 -0.454033,-0.160517 -0.279759,-0.07338 -0.45862,-0.146758 -0.174276,-0.07797 -0.30269,-0.224724 -0.123827,-0.151345 -0.123827,-0.394413 0,-0.192621 0.114655,-0.353138 0.114655,-0.160517 0.32562,-0.252241 0.210965,-0.09631 0.481551,-0.09631 0.417344,0 0.674172,0.210965 0.256827,0.210965 0.275172,0.577861 h -0.417345 q -0.01376,-0.197206 -0.160517,-0.316447 -0.142172,-0.119242 -0.38524,-0.119242 -0.224724,0 -0.357724,0.09631 -0.133,0.09631 -0.133,0.252241 0,0.123827 0.07797,0.206379 0.08255,0.07796 0.201792,0.128413 0.123828,0.04586 0.339379,0.105483 0.270586,0.07338 0.440275,0.146758 0.16969,0.06879 0.288931,0.210965 0.123827,0.142173 0.128414,0.371483 0,0.206379 -0.114655,0.371482 -0.114655,0.165103 -0.325621,0.261413 -0.206379,0.09172 -0.476964,0.09172 z"
         style="text-align:center;text-anchor:middle"
         id="path403" />
    </g>
    <rect
       id="rect853-3"
       width="66.15"
       height="34.4"
       x="127"
       y="10.58"
       fill="#0c322c"
       stroke="none"
       stroke-width="1.85"
       stroke-linecap="round"
       paint-order="stroke markers fill"
       stop-color="#000" />
    <g
       aria-label="/dev/hda1：Windows"
       id="text857-6"
       style="font-size:4.5862px;line-height:1.25;font-family:Poppins;-inkscape-font-specification:Poppins;letter-spacing:0;fill:#ffffff;stroke-width:0.26">
      <path
         d="m 138.51121,25.3698 -1.25661,5.099855 h -0.41276 l 1.25203,-5.099855 z"
         style="text-align:center;text-anchor:middle"
         id="path406" />
      <path
         d="m 138.97901,28.424209 q 0,-0.385241 0.15593,-0.674171 0.15593,-0.293517 0.42651,-0.454034 0.27518,-0.160517 0.61455,-0.160517 0.29352,0 0.54576,0.137586 0.25224,0.133 0.38524,0.353137 v -1.329998 h 0.42193 v 3.393789 H 141.107 v -0.472379 q -0.12382,0.224724 -0.36689,0.371482 -0.24307,0.142172 -0.56869,0.142172 -0.33479,0 -0.60997,-0.165103 -0.27058,-0.165103 -0.42651,-0.463206 -0.15593,-0.298103 -0.15593,-0.678758 z m 2.12799,0.0046 q 0,-0.284344 -0.11465,-0.495309 -0.11466,-0.210965 -0.31186,-0.321034 -0.19262,-0.114655 -0.42652,-0.114655 -0.2339,0 -0.42652,0.110069 -0.19262,0.110068 -0.30727,0.321034 -0.11466,0.210965 -0.11466,0.495309 0,0.288931 0.11466,0.504482 0.11465,0.210966 0.30727,0.325621 0.19262,0.110068 0.42652,0.110068 0.2339,0 0.42652,-0.110068 0.1972,-0.114655 0.31186,-0.325621 0.11465,-0.215551 0.11465,-0.499896 z"
         style="text-align:center;text-anchor:middle"
         id="path408" />
      <path
         d="m 144.52831,28.337071 q 0,0.119242 -0.0138,0.252241 h -2.00875 q 0.0229,0.371483 0.25224,0.582448 0.23389,0.206379 0.5641,0.206379 0.27059,0 0.44945,-0.123827 0.18345,-0.128414 0.25683,-0.339379 h 0.44944 q -0.10089,0.36231 -0.40358,0.59162 -0.30269,0.224723 -0.75214,0.224723 -0.35772,0 -0.64207,-0.160517 -0.27976,-0.160517 -0.44027,-0.454033 -0.16052,-0.298104 -0.16052,-0.687931 0,-0.389827 0.15593,-0.683343 0.15593,-0.293517 0.43569,-0.449448 0.28434,-0.160517 0.65124,-0.160517 0.35772,0 0.6329,0.155931 0.27517,0.155931 0.42193,0.431103 0.15134,0.270585 0.15134,0.61455 z m -0.4311,-0.08714 q 0,-0.238483 -0.10548,-0.408172 -0.10549,-0.174276 -0.28893,-0.261414 -0.17887,-0.09172 -0.399,-0.09172 -0.31645,0 -0.54118,0.201793 -0.22013,0.201793 -0.25224,0.559517 z"
         style="text-align:center;text-anchor:middle"
         id="path410" />
      <path
         d="m 146.01424,29.30476 0.77966,-2.127997 h 0.44486 l -0.98603,2.513238 h -0.48614 l -0.98603,-2.513238 H 145.23 Z"
         style="text-align:center;text-anchor:middle"
         id="path412" />
      <path
         d="m 149.21083,25.3698 -1.25662,5.099855 h -0.41276 l 1.25203,-5.099855 z"
         style="text-align:center;text-anchor:middle"
         id="path414" />
      <path
         d="m 151.082,27.130901 q 0.28434,0 0.51365,0.123827 0.22931,0.119241 0.35773,0.36231 0.133,0.243069 0.133,0.59162 v 1.481343 h -0.41276 v -1.421723 q 0,-0.376068 -0.18804,-0.573275 -0.18803,-0.201792 -0.51365,-0.201792 -0.33021,0 -0.52741,0.206379 -0.19262,0.206379 -0.19262,0.600792 v 1.389619 h -0.41735 v -3.393789 h 0.41735 v 1.238274 q 0.12382,-0.19262 0.33938,-0.298103 0.22013,-0.105482 0.49072,-0.105482 z"
         style="text-align:center;text-anchor:middle"
         id="path416" />
      <path
         d="m 152.61379,28.424209 q 0,-0.385241 0.15593,-0.674171 0.15593,-0.293517 0.42651,-0.454034 0.27518,-0.160517 0.61455,-0.160517 0.29352,0 0.54576,0.137586 0.25224,0.133 0.38524,0.353137 v -1.329998 h 0.42193 v 3.393789 h -0.42193 v -0.472379 q -0.12382,0.224724 -0.36689,0.371482 -0.24307,0.142172 -0.56869,0.142172 -0.33479,0 -0.60997,-0.165103 -0.27058,-0.165103 -0.42651,-0.463206 -0.15593,-0.298103 -0.15593,-0.678758 z m 2.12799,0.0046 q 0,-0.284344 -0.11465,-0.495309 -0.11466,-0.210965 -0.31186,-0.321034 -0.19262,-0.114655 -0.42652,-0.114655 -0.2339,0 -0.42652,0.110069 -0.19262,0.110068 -0.30727,0.321034 -0.11466,0.210965 -0.11466,0.495309 0,0.288931 0.11466,0.504482 0.11465,0.210966 0.30727,0.325621 0.19262,0.110068 0.42652,0.110068 0.2339,0 0.42652,-0.110068 0.1972,-0.114655 0.31186,-0.325621 0.11465,-0.215551 0.11465,-0.499896 z"
         style="text-align:center;text-anchor:middle"
         id="path418" />
      <path
         d="m 155.71406,28.424209 q 0,-0.385241 0.15593,-0.674171 0.15593,-0.293517 0.42652,-0.454034 0.27517,-0.160517 0.60996,-0.160517 0.33021,0 0.57328,0.142172 0.24307,0.142172 0.36231,0.357724 v -0.45862 h 0.42193 v 2.513238 h -0.42193 v -0.467793 q -0.12383,0.220138 -0.37148,0.366896 -0.24307,0.142172 -0.56869,0.142172 -0.3348,0 -0.60538,-0.165103 -0.27059,-0.165103 -0.42652,-0.463206 -0.15593,-0.298103 -0.15593,-0.678758 z m 2.128,0.0046 q 0,-0.284344 -0.11466,-0.495309 -0.11465,-0.210965 -0.31186,-0.321034 -0.19262,-0.114655 -0.42652,-0.114655 -0.23389,0 -0.42651,0.110069 -0.19262,0.110068 -0.30728,0.321034 -0.11465,0.210965 -0.11465,0.495309 0,0.288931 0.11465,0.504482 0.11466,0.210966 0.30728,0.325621 0.19262,0.110068 0.42651,0.110068 0.2339,0 0.42652,-0.110068 0.19721,-0.114655 0.31186,-0.325621 0.11466,-0.215551 0.11466,-0.499896 z"
         style="text-align:center;text-anchor:middle"
         id="path420" />
      <path
         d="m 158.7914,26.754832 v -0.380654 h 0.86221 v 3.315823 h -0.42193 v -2.935169 z"
         style="text-align:center;text-anchor:middle"
         id="path422" />
      <path
         d="m 161.23126,27.461107 c 0.18345,0 0.34855,-0.133 0.34855,-0.339379 0,-0.210965 -0.1651,-0.348551 -0.34855,-0.348551 -0.18345,0 -0.34397,0.137586 -0.34397,0.348551 0,0.206379 0.16052,0.339379 0.34397,0.339379 z m 0,2.247238 c 0.18345,0 0.34855,-0.137586 0.34855,-0.343965 0,-0.210965 -0.1651,-0.343965 -0.34855,-0.343965 -0.18345,0 -0.34397,0.133 -0.34397,0.343965 0,0.206379 0.16052,0.343965 0.34397,0.343965 z"
         style="font-family:'Noto Sans CJK SC';-inkscape-font-specification:'Noto Sans CJK SC';text-align:center;text-anchor:middle"
         id="path424" />
      <path
         d="m 169.04156,26.493419 -0.92641,3.196582 h -0.4678 l -0.74296,-2.572859 -0.77048,2.572859 -0.46321,0.0046 -0.89431,-3.201168 h 0.44486 l 0.69711,2.710444 0.77048,-2.710444 h 0.46779 l 0.73379,2.701272 0.70169,-2.701272 z"
         style="text-align:center;text-anchor:middle"
         id="path426" />
      <path
         d="m 169.71573,26.768591 q -0.11924,0 -0.20179,-0.08255 -0.0826,-0.08255 -0.0826,-0.201792 0,-0.119242 0.0826,-0.201793 0.0825,-0.08255 0.20179,-0.08255 0.11465,0 0.19262,0.08255 0.0825,0.08255 0.0825,0.201793 0,0.119241 -0.0825,0.201792 -0.078,0.08255 -0.19262,0.08255 z m 0.20179,0.408172 v 2.513238 h -0.41734 v -2.513238 z"
         style="text-align:center;text-anchor:middle"
         id="path428" />
      <path
         d="m 171.8529,27.130901 q 0.45862,0 0.74297,0.279758 0.28434,0.275172 0.28434,0.797999 v 1.481343 h -0.41276 v -1.421723 q 0,-0.376068 -0.18803,-0.573275 -0.18804,-0.201792 -0.51366,-0.201792 -0.3302,0 -0.52741,0.206379 -0.19262,0.206379 -0.19262,0.600792 v 1.389619 h -0.41734 v -2.513238 h 0.41734 v 0.357723 q 0.12383,-0.19262 0.33479,-0.298103 0.21555,-0.105482 0.47238,-0.105482 z"
         style="text-align:center;text-anchor:middle"
         id="path430" />
      <path
         d="m 173.40762,28.424209 q 0,-0.385241 0.15593,-0.674171 0.15593,-0.293517 0.42652,-0.454034 0.27517,-0.160517 0.61455,-0.160517 0.29352,0 0.54576,0.137586 0.25224,0.133 0.38524,0.353137 v -1.329998 h 0.42193 v 3.393789 h -0.42193 v -0.472379 q -0.12383,0.224724 -0.3669,0.371482 -0.24307,0.142172 -0.56869,0.142172 -0.33479,0 -0.60996,-0.165103 -0.27059,-0.165103 -0.42652,-0.463206 -0.15593,-0.298103 -0.15593,-0.678758 z m 2.128,0.0046 q 0,-0.284344 -0.11466,-0.495309 -0.11465,-0.210965 -0.31186,-0.321034 -0.19262,-0.114655 -0.42652,-0.114655 -0.23389,0 -0.42651,0.110069 -0.19262,0.110068 -0.30728,0.321034 -0.11465,0.210965 -0.11465,0.495309 0,0.288931 0.11465,0.504482 0.11466,0.210966 0.30728,0.325621 0.19262,0.110068 0.42651,0.110068 0.2339,0 0.42652,-0.110068 0.19721,-0.114655 0.31186,-0.325621 0.11466,-0.215551 0.11466,-0.499896 z"
         style="text-align:center;text-anchor:middle"
         id="path432" />
      <path
         d="m 177.75993,29.731276 q -0.35314,0 -0.64207,-0.160517 -0.28435,-0.160517 -0.44945,-0.454033 -0.16052,-0.298104 -0.16052,-0.687931 0,-0.38524 0.16511,-0.678757 0.16969,-0.298103 0.45862,-0.454034 0.28893,-0.160517 0.64665,-0.160517 0.35772,0 0.64666,0.160517 0.28893,0.155931 0.45403,0.449448 0.16969,0.293516 0.16969,0.683343 0,0.389827 -0.17428,0.687931 -0.16969,0.293516 -0.4632,0.454033 -0.29352,0.160517 -0.65124,0.160517 z m 0,-0.366896 q 0.22472,0 0.42193,-0.105482 0.1972,-0.105483 0.31644,-0.316448 0.12383,-0.210965 0.12383,-0.513655 0,-0.302689 -0.11924,-0.513654 -0.11924,-0.210965 -0.31186,-0.311862 -0.19262,-0.105482 -0.41735,-0.105482 -0.22931,0 -0.42193,0.105482 -0.18803,0.100897 -0.30268,0.311862 -0.11466,0.210965 -0.11466,0.513654 0,0.307276 0.11007,0.518241 0.11465,0.210965 0.30269,0.316448 0.18803,0.100896 0.41276,0.100896 z"
         style="text-align:center;text-anchor:middle"
         id="path434" />
      <path
         d="m 182.94692,27.176763 -0.78424,2.513238 h -0.43111 l -0.60538,-1.994998 -0.60537,1.994998 h -0.43111 l -0.78882,-2.513238 h 0.42651 l 0.57786,2.109652 0.62373,-2.109652 h 0.42651 l 0.60997,2.114238 0.56869,-2.114238 z"
         style="text-align:center;text-anchor:middle"
         id="path436" />
      <path
         d="m 184.2494,29.731276 q -0.28893,0 -0.51824,-0.09631 -0.22931,-0.100896 -0.36231,-0.275172 -0.133,-0.178862 -0.14676,-0.408172 h 0.4311 q 0.0183,0.188035 0.17428,0.307276 0.16051,0.119241 0.41734,0.119241 0.23848,0 0.37607,-0.105483 0.13759,-0.105482 0.13759,-0.265999 0,-0.165104 -0.14676,-0.243069 -0.14676,-0.08255 -0.45404,-0.160517 -0.27975,-0.07338 -0.45862,-0.146758 -0.17427,-0.07797 -0.30269,-0.224724 -0.12382,-0.151345 -0.12382,-0.394413 0,-0.192621 0.11465,-0.353138 0.11466,-0.160517 0.32562,-0.252241 0.21097,-0.09631 0.48155,-0.09631 0.41735,0 0.67417,0.210965 0.25683,0.210965 0.27518,0.577861 h -0.41735 q -0.0138,-0.197206 -0.16051,-0.316447 -0.14218,-0.119242 -0.38525,-0.119242 -0.22472,0 -0.35772,0.09631 -0.133,0.09631 -0.133,0.252241 0,0.123827 0.078,0.206379 0.0825,0.07796 0.20179,0.128413 0.12383,0.04586 0.33938,0.105483 0.27058,0.07338 0.44027,0.146758 0.16969,0.06879 0.28893,0.210965 0.12383,0.142173 0.12842,0.371483 0,0.206379 -0.11466,0.371482 -0.11465,0.165103 -0.32562,0.261413 -0.20638,0.09172 -0.47696,0.09172 z"
         style="text-align:center;text-anchor:middle"
         id="path438" />
    </g>
    <rect
       id="rect853-5"
       width="66.15"
       height="34.4"
       x="13.23"
       y="55.56"
       fill="#30ba78"
       stroke="none"
       stroke-width="1.85"
       stroke-linecap="round"
       paint-order="stroke markers fill"
       stop-color="#000" />
    <rect
       id="rect853-35"
       width="66.15"
       height="26.46"
       x="13.23"
       y="100.54"
       fill="#30ba78"
       stroke="none"
       stroke-width="1.62"
       stroke-linecap="round"
       paint-order="stroke markers fill"
       stop-color="#000" />
    <rect
       id="rect853-35-6"
       width="66.15"
       height="34.4"
       x="127"
       y="55.56"
       fill="#0c322c"
       stroke="none"
       stroke-width="1.85"
       stroke-linecap="round"
       paint-order="stroke markers fill"
       stop-color="#000" />
    <rect
       id="rect853-35-2"
       width="66.15"
       height="26.46"
       x="127"
       y="100.54"
       fill="#0c322c"
       stroke="none"
       stroke-width="1.62"
       stroke-linecap="round"
       paint-order="stroke markers fill"
       stop-color="#000" />
    <g
       aria-label="/dev/hda1：Linux native"
       id="text857-9"
       style="font-size:4.5862px;line-height:1.25;font-family:Poppins;-inkscape-font-specification:Poppins;letter-spacing:0;fill:#ffffff;stroke-width:0.26">
      <path
         d="m 20.697515,70.349798 -1.256619,5.099854 h -0.412758 l 1.252033,-5.099854 z"
         style="text-align:center;text-anchor:middle;fill:#0c322c"
         id="path441" />
      <path
         d="m 21.165307,73.404207 q 0,-0.385241 0.155931,-0.674172 0.15593,-0.293516 0.426516,-0.454033 0.275172,-0.160517 0.614551,-0.160517 0.293517,0 0.545758,0.137586 0.252241,0.132999 0.385241,0.353137 V 71.27621 h 0.42193 v 3.393788 h -0.42193 V 74.19762 q -0.123828,0.224723 -0.366896,0.371482 -0.243069,0.142172 -0.568689,0.142172 -0.334793,0 -0.609965,-0.165103 -0.270586,-0.165103 -0.426516,-0.463206 -0.155931,-0.298103 -0.155931,-0.678758 z m 2.127997,0.0046 q 0,-0.284344 -0.114655,-0.49531 -0.114655,-0.210965 -0.311862,-0.321034 -0.19262,-0.114655 -0.426517,-0.114655 -0.233896,0 -0.426516,0.110069 -0.192621,0.110069 -0.307276,0.321034 -0.114655,0.210965 -0.114655,0.49531 0,0.288931 0.114655,0.504482 0.114655,0.210965 0.307276,0.32562 0.19262,0.110069 0.426516,0.110069 0.233897,0 0.426517,-0.110069 0.197207,-0.114655 0.311862,-0.32562 0.114655,-0.215551 0.114655,-0.499896 z"
         style="text-align:center;text-anchor:middle;fill:#0c322c"
         id="path443" />
      <path
         d="m 26.714612,73.317069 q 0,0.119241 -0.01376,0.252241 h -2.008756 q 0.02293,0.371482 0.252241,0.582448 0.233897,0.206379 0.564103,0.206379 0.270586,0 0.449448,-0.123828 0.183448,-0.128413 0.256827,-0.339379 h 0.449448 q -0.100897,0.36231 -0.403586,0.59162 -0.302689,0.224724 -0.752137,0.224724 -0.357724,0 -0.642068,-0.160517 -0.279758,-0.160517 -0.440275,-0.454034 -0.160517,-0.298103 -0.160517,-0.68793 0,-0.389827 0.155931,-0.683344 0.15593,-0.293517 0.435689,-0.449447 0.284344,-0.160517 0.65124,-0.160517 0.357724,0 0.632896,0.15593 0.275172,0.155931 0.42193,0.431103 0.151345,0.270586 0.151345,0.614551 z m -0.431103,-0.08714 q 0,-0.238482 -0.105483,-0.408172 -0.105482,-0.174275 -0.28893,-0.261413 -0.178862,-0.09172 -0.399,-0.09172 -0.316448,0 -0.541171,0.201793 -0.220138,0.201793 -0.252241,0.559516 z"
         style="text-align:center;text-anchor:middle;fill:#0c322c"
         id="path445" />
      <path
         d="m 28.200545,74.284757 0.779654,-2.127997 h 0.444861 l -0.986033,2.513238 H 27.95289 L 26.966857,72.15676 h 0.449447 z"
         style="text-align:center;text-anchor:middle;fill:#0c322c"
         id="path447" />
      <path
         d="m 31.39713,70.349798 -1.256619,5.099854 h -0.412758 l 1.252032,-5.099854 z"
         style="text-align:center;text-anchor:middle;fill:#0c322c"
         id="path449" />
      <path
         d="m 33.268299,72.110898 q 0.284344,0 0.513654,0.123828 0.22931,0.119241 0.357724,0.36231 0.133,0.243068 0.133,0.591619 v 1.481343 h -0.412758 v -1.421722 q 0,-0.376068 -0.188034,-0.573275 -0.188035,-0.201793 -0.513655,-0.201793 -0.330206,0 -0.527413,0.206379 -0.19262,0.206379 -0.19262,0.600792 v 1.389619 H 32.020853 V 71.27621 h 0.417344 v 1.238274 q 0.123827,-0.19262 0.339379,-0.298103 0.220137,-0.105483 0.490723,-0.105483 z"
         style="text-align:center;text-anchor:middle;fill:#0c322c"
         id="path451" />
      <path
         d="m 34.800087,73.404207 q 0,-0.385241 0.155931,-0.674172 0.155931,-0.293516 0.426517,-0.454033 0.275172,-0.160517 0.61455,-0.160517 0.293517,0 0.545758,0.137586 0.252241,0.132999 0.385241,0.353137 V 71.27621 h 0.42193 v 3.393788 h -0.42193 V 74.19762 q -0.123827,0.224723 -0.366896,0.371482 -0.243069,0.142172 -0.568689,0.142172 -0.334792,0 -0.609964,-0.165103 -0.270586,-0.165103 -0.426517,-0.463206 -0.155931,-0.298103 -0.155931,-0.678758 z m 2.127997,0.0046 q 0,-0.284344 -0.114655,-0.49531 -0.114655,-0.210965 -0.311862,-0.321034 -0.19262,-0.114655 -0.426516,-0.114655 -0.233896,0 -0.426517,0.110069 -0.19262,0.110069 -0.307275,0.321034 -0.114655,0.210965 -0.114655,0.49531 0,0.288931 0.114655,0.504482 0.114655,0.210965 0.307275,0.32562 0.192621,0.110069 0.426517,0.110069 0.233896,0 0.426516,-0.110069 0.197207,-0.114655 0.311862,-0.32562 0.114655,-0.215551 0.114655,-0.499896 z"
         style="text-align:center;text-anchor:middle;fill:#0c322c"
         id="path453" />
      <path
         d="m 37.900361,73.404207 q 0,-0.385241 0.155931,-0.674172 0.155931,-0.293516 0.426517,-0.454033 0.275172,-0.160517 0.609964,-0.160517 0.330207,0 0.573275,0.142172 0.243069,0.142172 0.36231,0.357723 v -0.45862 h 0.421931 v 2.513238 h -0.421931 v -0.467792 q -0.123827,0.220137 -0.371482,0.366896 -0.243069,0.142172 -0.568689,0.142172 -0.334793,0 -0.605378,-0.165103 -0.270586,-0.165103 -0.426517,-0.463206 -0.155931,-0.298103 -0.155931,-0.678758 z m 2.127997,0.0046 q 0,-0.284344 -0.114655,-0.49531 -0.114655,-0.210965 -0.311862,-0.321034 -0.19262,-0.114655 -0.426516,-0.114655 -0.233896,0 -0.426517,0.110069 -0.19262,0.110069 -0.307275,0.321034 -0.114655,0.210965 -0.114655,0.49531 0,0.288931 0.114655,0.504482 0.114655,0.210965 0.307275,0.32562 0.192621,0.110069 0.426517,0.110069 0.233896,0 0.426516,-0.110069 0.197207,-0.114655 0.311862,-0.32562 0.114655,-0.215551 0.114655,-0.499896 z"
         style="text-align:center;text-anchor:middle;fill:#0c322c"
         id="path455" />
      <path
         d="m 40.977703,71.73483 v -0.380655 h 0.862206 v 3.315823 h -0.42193 V 71.73483 Z"
         style="text-align:center;text-anchor:middle;fill:#0c322c"
         id="path457" />
      <path
         d="m 43.41756,72.441105 c 0.183449,0 0.348552,-0.133 0.348552,-0.339379 0,-0.210965 -0.165103,-0.348551 -0.348552,-0.348551 -0.183448,0 -0.343965,0.137586 -0.343965,0.348551 0,0.206379 0.160517,0.339379 0.343965,0.339379 z m 0,2.247238 c 0.183449,0 0.348552,-0.137586 0.348552,-0.343965 0,-0.210965 -0.165103,-0.343965 -0.348552,-0.343965 -0.183448,0 -0.343965,0.133 -0.343965,0.343965 0,0.206379 0.160517,0.343965 0.343965,0.343965 z"
         style="font-family:'Noto Sans CJK SC';-inkscape-font-specification:'Noto Sans CJK SC';text-align:center;text-anchor:middle;fill:#124939;fill-opacity:1"
         id="path459" />
      <path
         d="m 47.627693,74.330619 h 1.119033 v 0.339379 h -1.536377 v -3.196581 h 0.417344 z"
         style="text-align:center;text-anchor:middle;fill:#0c322c"
         id="path461" />
      <path
         d="m 49.407135,71.748589 q -0.119241,0 -0.201792,-0.08255 -0.08255,-0.08255 -0.08255,-0.201793 0,-0.119241 0.08255,-0.201793 0.08255,-0.08255 0.201792,-0.08255 0.114655,0 0.192621,0.08255 0.08255,0.08255 0.08255,0.201793 0,0.119241 -0.08255,0.201793 -0.07797,0.08255 -0.192621,0.08255 z m 0.201793,0.408171 v 2.513238 H 49.191584 V 72.15676 Z"
         style="text-align:center;text-anchor:middle;fill:#0c322c"
         id="path463" />
      <path
         d="m 51.544306,72.110898 q 0.45862,0 0.742964,0.279759 0.284345,0.275172 0.284345,0.797998 v 1.481343 h -0.412758 v -1.421722 q 0,-0.376068 -0.188035,-0.573275 -0.188034,-0.201793 -0.513654,-0.201793 -0.330206,0 -0.527413,0.206379 -0.19262,0.206379 -0.19262,0.600792 v 1.389619 H 50.31979 V 72.15676 h 0.417345 v 0.357724 q 0.123827,-0.19262 0.334792,-0.298103 0.215552,-0.105483 0.472379,-0.105483 z"
         style="text-align:center;text-anchor:middle;fill:#0c322c"
         id="path465" />
      <path
         d="m 55.483849,72.15676 v 2.513238 h -0.417344 v -0.371482 q -0.119241,0.19262 -0.334793,0.302689 -0.210965,0.105483 -0.467792,0.105483 -0.293517,0 -0.527413,-0.119241 -0.233896,-0.123828 -0.371482,-0.366896 -0.133,-0.243069 -0.133,-0.59162 V 72.15676 h 0.412758 v 1.417136 q 0,0.371483 0.188034,0.573275 0.188034,0.197207 0.513654,0.197207 0.334793,0 0.527413,-0.206379 0.192621,-0.206379 0.192621,-0.600792 V 72.15676 Z"
         style="text-align:center;text-anchor:middle;fill:#0c322c"
         id="path467" />
      <path
         d="m 57.501774,74.669998 -0.596206,-0.935585 -0.573275,0.935585 h -0.435689 l 0.811758,-1.247446 -0.811758,-1.265792 h 0.472379 l 0.596206,0.930999 0.568689,-0.930999 h 0.435689 l -0.807171,1.242861 0.811757,1.270377 z"
         style="text-align:center;text-anchor:middle;fill:#0c322c"
         id="path469" />
      <path
         d="m 60.835943,72.110898 q 0.45862,0 0.742965,0.279759 0.284344,0.275172 0.284344,0.797998 v 1.481343 h -0.412758 v -1.421722 q 0,-0.376068 -0.188034,-0.573275 -0.188034,-0.201793 -0.513655,-0.201793 -0.330206,0 -0.527413,0.206379 -0.19262,0.206379 -0.19262,0.600792 v 1.389619 H 59.611428 V 72.15676 h 0.417344 v 0.357724 q 0.123827,-0.19262 0.334793,-0.298103 0.215551,-0.105483 0.472378,-0.105483 z"
         style="text-align:center;text-anchor:middle;fill:#0c322c"
         id="path471" />
      <path
         d="m 62.390662,73.404207 q 0,-0.385241 0.155931,-0.674172 0.155931,-0.293516 0.426517,-0.454033 0.275172,-0.160517 0.609964,-0.160517 0.330207,0 0.573275,0.142172 0.243069,0.142172 0.36231,0.357723 v -0.45862 h 0.421931 v 2.513238 h -0.421931 v -0.467792 q -0.123827,0.220137 -0.371482,0.366896 -0.243069,0.142172 -0.568689,0.142172 -0.334792,0 -0.605378,-0.165103 -0.270586,-0.165103 -0.426517,-0.463206 -0.155931,-0.298103 -0.155931,-0.678758 z m 2.127997,0.0046 q 0,-0.284344 -0.114655,-0.49531 -0.114655,-0.210965 -0.311861,-0.321034 -0.192621,-0.114655 -0.426517,-0.114655 -0.233896,0 -0.426517,0.110069 -0.19262,0.110069 -0.307275,0.321034 -0.114655,0.210965 -0.114655,0.49531 0,0.288931 0.114655,0.504482 0.114655,0.210965 0.307275,0.32562 0.192621,0.110069 0.426517,0.110069 0.233896,0 0.426517,-0.110069 0.197206,-0.114655 0.311861,-0.32562 0.114655,-0.215551 0.114655,-0.499896 z"
         style="text-align:center;text-anchor:middle;fill:#0c322c"
         id="path473" />
      <path
         d="m 66.155935,72.500725 v 1.481343 q 0,0.183448 0.07797,0.261414 0.07796,0.07338 0.270586,0.07338 h 0.307275 v 0.353137 h -0.376068 q -0.348551,0 -0.522827,-0.160517 Q 65.73859,74.348964 65.73859,73.982068 V 72.500725 H 65.41297 V 72.15676 h 0.32562 v -0.632895 h 0.417345 v 0.632895 h 0.655826 v 0.343965 z"
         style="text-align:center;text-anchor:middle;fill:#0c322c"
         id="path475" />
      <path
         d="m 67.531798,71.748589 q -0.119241,0 -0.201793,-0.08255 -0.08255,-0.08255 -0.08255,-0.201793 0,-0.119241 0.08255,-0.201793 0.08255,-0.08255 0.201793,-0.08255 0.114655,0 0.19262,0.08255 0.08255,0.08255 0.08255,0.201793 0,0.119241 -0.08255,0.201793 -0.07797,0.08255 -0.19262,0.08255 z m 0.201793,0.408171 v 2.513238 H 67.316246 V 72.15676 Z"
         style="text-align:center;text-anchor:middle;fill:#0c322c"
         id="path477" />
      <path
         d="M 69.380036,74.284757 70.15969,72.15676 h 0.444861 l -0.986033,2.513238 H 69.132381 L 68.146348,72.15676 h 0.449447 z"
         style="text-align:center;text-anchor:middle;fill:#0c322c"
         id="path479" />
      <path
         d="m 73.310415,73.317069 q 0,0.119241 -0.01376,0.252241 h -2.008756 q 0.02293,0.371482 0.252241,0.582448 0.233896,0.206379 0.564103,0.206379 0.270586,0 0.449447,-0.123828 0.183448,-0.128413 0.256828,-0.339379 h 0.449447 q -0.100896,0.36231 -0.403585,0.59162 -0.30269,0.224724 -0.752137,0.224724 -0.357724,0 -0.642068,-0.160517 -0.279758,-0.160517 -0.440275,-0.454034 -0.160517,-0.298103 -0.160517,-0.68793 0,-0.389827 0.15593,-0.683344 0.155931,-0.293517 0.435689,-0.449447 0.284345,-0.160517 0.651241,-0.160517 0.357723,0 0.632895,0.15593 0.275172,0.155931 0.421931,0.431103 0.151344,0.270586 0.151344,0.614551 z m -0.431102,-0.08714 q 0,-0.238482 -0.105483,-0.408172 -0.105483,-0.174275 -0.288931,-0.261413 -0.178861,-0.09172 -0.398999,-0.09172 -0.316448,0 -0.541172,0.201793 -0.220137,0.201793 -0.252241,0.559516 z"
         style="text-align:center;text-anchor:middle;fill:#0c322c"
         id="path481" />
    </g>
    <g
       aria-label="/dev/hda3 Linux swap"
       id="text857-2"
       style="font-size:4.5862px;line-height:1.25;font-family:Poppins;-inkscape-font-specification:Poppins;letter-spacing:0;fill:#ffffff;stroke-width:0.26">
      <path
         d="m 22.530213,111.1298 -1.256619,5.09985 h -0.412758 l 1.252033,-5.09985 z"
         style="text-align:center;text-anchor:middle;fill:#0c322c"
         id="path523" />
      <path
         d="m 22.998005,114.18421 q 0,-0.38525 0.155931,-0.67418 0.155931,-0.29351 0.426516,-0.45403 0.275172,-0.16052 0.614551,-0.16052 0.293517,0 0.545758,0.13759 0.252241,0.133 0.385241,0.35314 v -1.33 h 0.42193 V 115.45 h -0.42193 v -0.47238 q -0.123827,0.22472 -0.366896,0.37148 -0.243069,0.14217 -0.568689,0.14217 -0.334793,0 -0.609965,-0.1651 -0.270585,-0.1651 -0.426516,-0.46321 -0.155931,-0.2981 -0.155931,-0.67875 z m 2.127997,0.005 q 0,-0.28434 -0.114655,-0.49531 -0.114655,-0.21096 -0.311862,-0.32103 -0.19262,-0.11466 -0.426516,-0.11466 -0.233897,0 -0.426517,0.11007 -0.19262,0.11007 -0.307275,0.32104 -0.114655,0.21096 -0.114655,0.49531 0,0.28893 0.114655,0.50448 0.114655,0.21096 0.307275,0.32562 0.19262,0.11007 0.426517,0.11007 0.233896,0 0.426516,-0.11007 0.197207,-0.11466 0.311862,-0.32562 0.114655,-0.21555 0.114655,-0.4999 z"
         style="text-align:center;text-anchor:middle;fill:#0c322c"
         id="path525" />
      <path
         d="m 28.54731,114.09707 q 0,0.11924 -0.01376,0.25224 h -2.008755 q 0.02293,0.37148 0.252241,0.58245 0.233896,0.20638 0.564102,0.20638 0.270586,0 0.449448,-0.12383 0.183448,-0.12842 0.256827,-0.33938 h 0.449448 q -0.100897,0.36231 -0.403586,0.59162 -0.302689,0.22472 -0.752137,0.22472 -0.357723,0 -0.642068,-0.16051 -0.279758,-0.16052 -0.440275,-0.45404 -0.160517,-0.2981 -0.160517,-0.68793 0,-0.38983 0.155931,-0.68334 0.155931,-0.29352 0.435689,-0.44945 0.284344,-0.16052 0.65124,-0.16052 0.357724,0 0.632896,0.15593 0.275172,0.15594 0.42193,0.43111 0.151345,0.27058 0.151345,0.61455 z m -0.431103,-0.0871 q 0,-0.23848 -0.105482,-0.40817 -0.105483,-0.17428 -0.288931,-0.26142 -0.178862,-0.0917 -0.398999,-0.0917 -0.316448,0 -0.541172,0.20179 -0.220138,0.2018 -0.252241,0.55952 z"
         style="text-align:center;text-anchor:middle;fill:#0c322c"
         id="path527" />
      <path
         d="m 30.033243,115.06476 0.779654,-2.128 h 0.444861 L 30.271725,115.45 h -0.486137 l -0.986033,-2.51324 h 0.449448 z"
         style="text-align:center;text-anchor:middle;fill:#0c322c"
         id="path529" />
      <path
         d="m 33.229828,111.1298 -1.256619,5.09985 h -0.412758 l 1.252033,-5.09985 z"
         style="text-align:center;text-anchor:middle;fill:#0c322c"
         id="path531" />
      <path
         d="m 35.100997,112.8909 q 0.284345,0 0.513655,0.12382 0.22931,0.11925 0.357723,0.36231 0.133,0.24307 0.133,0.59162 V 115.45 h -0.412758 v -1.42173 q 0,-0.37606 -0.188034,-0.57327 -0.188034,-0.20179 -0.513655,-0.20179 -0.330206,0 -0.527413,0.20638 -0.19262,0.20638 -0.19262,0.60079 V 115.45 h -0.417344 v -3.39379 h 0.417344 v 1.23827 q 0.123827,-0.19262 0.339379,-0.2981 0.220137,-0.10548 0.490723,-0.10548 z"
         style="text-align:center;text-anchor:middle;fill:#0c322c"
         id="path533" />
      <path
         d="m 36.632785,114.18421 q 0,-0.38525 0.155931,-0.67418 0.155931,-0.29351 0.426517,-0.45403 0.275172,-0.16052 0.614551,-0.16052 0.293517,0 0.545758,0.13759 0.252241,0.133 0.38524,0.35314 v -1.33 h 0.421931 V 115.45 h -0.421931 v -0.47238 q -0.123827,0.22472 -0.366896,0.37148 -0.243068,0.14217 -0.568689,0.14217 -0.334792,0 -0.609964,-0.1651 -0.270586,-0.1651 -0.426517,-0.46321 -0.155931,-0.2981 -0.155931,-0.67875 z m 2.127997,0.005 q 0,-0.28434 -0.114655,-0.49531 -0.114655,-0.21096 -0.311861,-0.32103 -0.192621,-0.11466 -0.426517,-0.11466 -0.233896,0 -0.426517,0.11007 -0.19262,0.11007 -0.307275,0.32104 -0.114655,0.21096 -0.114655,0.49531 0,0.28893 0.114655,0.50448 0.114655,0.21096 0.307275,0.32562 0.192621,0.11007 0.426517,0.11007 0.233896,0 0.426517,-0.11007 0.197206,-0.11466 0.311861,-0.32562 0.114655,-0.21555 0.114655,-0.4999 z"
         style="text-align:center;text-anchor:middle;fill:#0c322c"
         id="path535" />
      <path
         d="m 39.73306,114.18421 q 0,-0.38525 0.15593,-0.67418 0.155931,-0.29351 0.426517,-0.45403 0.275172,-0.16052 0.609965,-0.16052 0.330206,0 0.573275,0.14218 0.243068,0.14217 0.362309,0.35772 v -0.45862 h 0.421931 V 115.45 h -0.421931 v -0.4678 q -0.123827,0.22014 -0.371482,0.3669 -0.243068,0.14217 -0.568689,0.14217 -0.334792,0 -0.605378,-0.1651 -0.270586,-0.1651 -0.426517,-0.46321 -0.15593,-0.2981 -0.15593,-0.67875 z m 2.127996,0.005 q 0,-0.28434 -0.114655,-0.49531 -0.114655,-0.21096 -0.311861,-0.32103 -0.192621,-0.11466 -0.426517,-0.11466 -0.233896,0 -0.426516,0.11007 -0.192621,0.11007 -0.307276,0.32104 -0.114655,0.21096 -0.114655,0.49531 0,0.28893 0.114655,0.50448 0.114655,0.21096 0.307276,0.32562 0.19262,0.11007 0.426516,0.11007 0.233896,0 0.426517,-0.11007 0.197206,-0.11466 0.311861,-0.32562 0.114655,-0.21555 0.114655,-0.4999 z"
         style="text-align:center;text-anchor:middle;fill:#0c322c"
         id="path537" />
      <path
         d="m 42.911298,112.96886 q 0.0321,-0.42193 0.32562,-0.66041 0.293517,-0.23848 0.76131,-0.23848 0.311861,0 0.536585,0.11465 0.22931,0.11007 0.343965,0.30269 0.119241,0.19262 0.119241,0.43569 0,0.28435 -0.165103,0.49072 -0.160517,0.20638 -0.42193,0.266 v 0.0229 q 0.298103,0.0734 0.472378,0.28894 0.174276,0.21555 0.174276,0.5641 0,0.26141 -0.119241,0.47238 -0.119242,0.20638 -0.357724,0.32562 -0.238482,0.11924 -0.573275,0.11924 -0.486137,0 -0.797999,-0.25224 -0.311862,-0.25683 -0.348551,-0.72462 h 0.403585 q 0.0321,0.27517 0.224724,0.44944 0.192621,0.17428 0.513655,0.17428 0.321034,0 0.486137,-0.1651 0.169689,-0.16969 0.169689,-0.43569 0,-0.34397 -0.22931,-0.49531 -0.22931,-0.15135 -0.692516,-0.15135 h -0.105483 v -0.34855 H 43.7414 q 0.421931,-0.005 0.637482,-0.13758 0.215552,-0.13759 0.215552,-0.42193 0,-0.24307 -0.160517,-0.38983 -0.155931,-0.14676 -0.449448,-0.14676 -0.284345,0 -0.45862,0.14676 -0.174276,0.14676 -0.206379,0.39441 z"
         style="text-align:center;text-anchor:middle;fill:#0c322c"
         id="path539" />
      <path
         d="m 47.3324,115.11062 h 1.119033 V 115.45 h -1.536377 v -3.19658 H 47.3324 Z"
         style="text-align:center;text-anchor:middle;fill:#0c322c"
         id="path541" />
      <path
         d="m 49.111841,112.52859 q -0.119241,0 -0.201793,-0.0825 -0.08255,-0.0826 -0.08255,-0.2018 0,-0.11924 0.08255,-0.20179 0.08255,-0.0825 0.201793,-0.0825 0.114655,0 0.192621,0.0825 0.08255,0.0825 0.08255,0.20179 0,0.11924 -0.08255,0.2018 -0.07797,0.0825 -0.192621,0.0825 z m 0.201793,0.40817 V 115.45 H 48.89629 v -2.51324 z"
         style="text-align:center;text-anchor:middle;fill:#0c322c"
         id="path543" />
      <path
         d="m 51.249013,112.8909 q 0.45862,0 0.742965,0.27976 0.284344,0.27517 0.284344,0.79799 V 115.45 h -0.412758 v -1.42173 q 0,-0.37606 -0.188034,-0.57327 -0.188034,-0.20179 -0.513654,-0.20179 -0.330207,0 -0.527413,0.20638 -0.192621,0.20638 -0.192621,0.60079 V 115.45 h -0.417344 v -2.51324 h 0.417344 v 0.35772 q 0.123828,-0.19262 0.334793,-0.2981 0.215551,-0.10548 0.472378,-0.10548 z"
         style="text-align:center;text-anchor:middle;fill:#0c322c"
         id="path545" />
      <path
         d="M 55.188557,112.93676 V 115.45 h -0.417345 v -0.37149 q -0.119241,0.19263 -0.334792,0.30269 -0.210965,0.10549 -0.467793,0.10549 -0.293516,0 -0.527413,-0.11924 -0.233896,-0.12383 -0.371482,-0.3669 -0.133,-0.24307 -0.133,-0.59162 v -1.47217 h 0.412758 v 1.41714 q 0,0.37148 0.188035,0.57327 0.188034,0.19721 0.513654,0.19721 0.334793,0 0.527413,-0.20638 0.19262,-0.20638 0.19262,-0.60079 v -1.38045 z"
         style="text-align:center;text-anchor:middle;fill:#0c322c"
         id="path547" />
      <path
         d="m 57.206482,115.45 -0.596206,-0.93559 -0.573275,0.93559 h -0.435689 l 0.811757,-1.24745 -0.811757,-1.26579 h 0.472379 l 0.596206,0.931 0.568688,-0.931 h 0.435689 l -0.807171,1.24286 0.811758,1.27038 z"
         style="text-align:center;text-anchor:middle;fill:#0c322c"
         id="path549" />
      <path
         d="m 60.205858,115.49127 q -0.28893,0 -0.51824,-0.0963 -0.22931,-0.10089 -0.36231,-0.27517 -0.133,-0.17886 -0.146759,-0.40817 h 0.431103 q 0.01835,0.18803 0.174276,0.30727 0.160517,0.11925 0.417344,0.11925 0.238482,0 0.376068,-0.10549 0.137586,-0.10548 0.137586,-0.266 0,-0.1651 -0.146758,-0.24307 -0.146758,-0.0825 -0.454034,-0.16051 -0.279758,-0.0734 -0.45862,-0.14676 -0.174275,-0.078 -0.302689,-0.22472 -0.123827,-0.15135 -0.123827,-0.39442 0,-0.19262 0.114655,-0.35314 0.114655,-0.16051 0.32562,-0.25224 0.210965,-0.0963 0.481551,-0.0963 0.417344,0 0.674171,0.21097 0.256827,0.21096 0.275172,0.57786 h -0.417344 q -0.01376,-0.19721 -0.160517,-0.31645 -0.142172,-0.11924 -0.385241,-0.11924 -0.224724,0 -0.357723,0.0963 -0.133,0.0963 -0.133,0.25224 0,0.12383 0.07797,0.20638 0.08255,0.078 0.201793,0.12841 0.123827,0.0459 0.339379,0.10549 0.270586,0.0734 0.440275,0.14676 0.169689,0.0688 0.288931,0.21096 0.123827,0.14217 0.128413,0.37148 0,0.20638 -0.114655,0.37149 -0.114655,0.1651 -0.32562,0.26141 -0.206379,0.0917 -0.476965,0.0917 z"
         style="text-align:center;text-anchor:middle;fill:#0c322c"
         id="path551" />
      <path
         d="m 65.058055,112.93676 -0.78424,2.51324 h -0.431103 l -0.605379,-1.995 -0.605378,1.995 h -0.431103 l -0.788826,-2.51324 h 0.426516 l 0.577862,2.10965 0.623723,-2.10965 h 0.426516 l 0.609965,2.11424 0.568689,-2.11424 z"
         style="text-align:center;text-anchor:middle;fill:#0c322c"
         id="path553" />
      <path
         d="m 65.314879,114.18421 q 0,-0.38525 0.155931,-0.67418 0.155931,-0.29351 0.426516,-0.45403 0.275172,-0.16052 0.609965,-0.16052 0.330207,0 0.573275,0.14218 0.243069,0.14217 0.36231,0.35772 v -0.45862 h 0.42193 V 115.45 h -0.42193 v -0.4678 q -0.123827,0.22014 -0.371482,0.3669 -0.243069,0.14217 -0.568689,0.14217 -0.334793,0 -0.605379,-0.1651 -0.270585,-0.1651 -0.426516,-0.46321 -0.155931,-0.2981 -0.155931,-0.67875 z m 2.127997,0.005 q 0,-0.28434 -0.114655,-0.49531 -0.114655,-0.21096 -0.311862,-0.32103 -0.19262,-0.11466 -0.426516,-0.11466 -0.233896,0 -0.426517,0.11007 -0.19262,0.11007 -0.307275,0.32104 -0.114655,0.21096 -0.114655,0.49531 0,0.28893 0.114655,0.50448 0.114655,0.21096 0.307275,0.32562 0.192621,0.11007 0.426517,0.11007 0.233896,0 0.426516,-0.11007 0.197207,-0.11466 0.311862,-0.32562 0.114655,-0.21555 0.114655,-0.4999 z"
         style="text-align:center;text-anchor:middle;fill:#0c322c"
         id="path555" />
      <path
         d="m 68.988431,113.39997 q 0.123827,-0.21556 0.366896,-0.35773 0.247655,-0.14676 0.573275,-0.14676 0.334793,0 0.605379,0.16052 0.275172,0.16052 0.431102,0.45403 0.155931,0.28893 0.155931,0.67418 0,0.38065 -0.155931,0.67875 -0.15593,0.29811 -0.431102,0.46321 -0.270586,0.1651 -0.605379,0.1651 -0.321034,0 -0.568689,-0.14217 -0.243068,-0.14676 -0.371482,-0.36231 v 1.65562 h -0.417344 v -3.70565 h 0.417344 z m 1.706067,0.78424 q 0,-0.28435 -0.114655,-0.49531 -0.114655,-0.21097 -0.311862,-0.32104 -0.192621,-0.11007 -0.426517,-0.11007 -0.22931,0 -0.426516,0.11466 -0.192621,0.11007 -0.311862,0.32562 -0.114655,0.21096 -0.114655,0.49072 0,0.28435 0.114655,0.4999 0.119241,0.21096 0.311862,0.32562 0.197206,0.11007 0.426516,0.11007 0.233896,0 0.426517,-0.11007 0.197207,-0.11466 0.311862,-0.32562 0.114655,-0.21555 0.114655,-0.50448 z"
         style="text-align:center;text-anchor:middle;fill:#0c322c"
         id="path557" />
    </g>
    <g
       aria-label="/dev/hda2：/ with ext4"
       id="text857-93"
       style="font-size:4.5862px;line-height:1.25;font-family:Poppins;-inkscape-font-specification:Poppins;letter-spacing:0;fill:#ffffff;stroke-width:0.26">
      <path
         d="m 135.06888,70.349798 -1.25662,5.099854 h -0.41276 l 1.25203,-5.099854 z"
         style="text-align:center;text-anchor:middle"
         id="path484" />
      <path
         d="m 135.53667,73.404207 q 0,-0.385241 0.15593,-0.674172 0.15593,-0.293516 0.42652,-0.454033 0.27517,-0.160517 0.61455,-0.160517 0.29351,0 0.54575,0.137586 0.25225,0.132999 0.38525,0.353137 V 71.27621 h 0.42193 v 3.393788 h -0.42193 V 74.19762 q -0.12383,0.224723 -0.3669,0.371482 -0.24307,0.142172 -0.56869,0.142172 -0.33479,0 -0.60996,-0.165103 -0.27059,-0.165103 -0.42652,-0.463206 -0.15593,-0.298103 -0.15593,-0.678758 z m 2.128,0.0046 q 0,-0.284344 -0.11466,-0.49531 -0.11465,-0.210965 -0.31186,-0.321034 -0.19262,-0.114655 -0.42652,-0.114655 -0.23389,0 -0.42651,0.110069 -0.19262,0.110069 -0.30728,0.321034 -0.11465,0.210965 -0.11465,0.49531 0,0.288931 0.11465,0.504482 0.11466,0.210965 0.30728,0.32562 0.19262,0.110069 0.42651,0.110069 0.2339,0 0.42652,-0.110069 0.19721,-0.114655 0.31186,-0.32562 0.11466,-0.215551 0.11466,-0.499896 z"
         style="text-align:center;text-anchor:middle"
         id="path486" />
      <path
         d="m 141.08597,73.317069 q 0,0.119241 -0.0138,0.252241 h -2.00876 q 0.0229,0.371482 0.25224,0.582448 0.2339,0.206379 0.5641,0.206379 0.27059,0 0.44945,-0.123828 0.18345,-0.128413 0.25683,-0.339379 h 0.44945 q -0.1009,0.36231 -0.40359,0.59162 -0.30269,0.224724 -0.75214,0.224724 -0.35772,0 -0.64206,-0.160517 -0.27976,-0.160517 -0.44028,-0.454034 -0.16052,-0.298103 -0.16052,-0.68793 0,-0.389827 0.15593,-0.683344 0.15593,-0.293517 0.43569,-0.449447 0.28435,-0.160517 0.65124,-0.160517 0.35773,0 0.6329,0.15593 0.27517,0.155931 0.42193,0.431103 0.15134,0.270586 0.15134,0.614551 z m -0.4311,-0.08714 q 0,-0.238482 -0.10548,-0.408172 -0.10548,-0.174275 -0.28893,-0.261413 -0.17886,-0.09172 -0.399,-0.09172 -0.31645,0 -0.54117,0.201793 -0.22014,0.201793 -0.25224,0.559516 z"
         style="text-align:center;text-anchor:middle"
         id="path488" />
      <path
         d="m 142.57191,74.284757 0.77965,-2.127997 h 0.44486 l -0.98603,2.513238 h -0.48614 l -0.98603,-2.513238 h 0.44945 z"
         style="text-align:center;text-anchor:middle"
         id="path490" />
      <path
         d="m 145.76849,70.349798 -1.25662,5.099854 h -0.41276 l 1.25204,-5.099854 z"
         style="text-align:center;text-anchor:middle"
         id="path492" />
      <path
         d="m 147.63966,72.110898 q 0.28435,0 0.51366,0.123828 0.22931,0.119241 0.35772,0.36231 0.133,0.243068 0.133,0.591619 v 1.481343 h -0.41276 v -1.421722 q 0,-0.376068 -0.18803,-0.573275 -0.18804,-0.201793 -0.51366,-0.201793 -0.3302,0 -0.52741,0.206379 -0.19262,0.206379 -0.19262,0.600792 v 1.389619 h -0.41735 V 71.27621 h 0.41735 v 1.238274 q 0.12383,-0.19262 0.33938,-0.298103 0.22014,-0.105483 0.49072,-0.105483 z"
         style="text-align:center;text-anchor:middle"
         id="path494" />
      <path
         d="m 149.17145,73.404207 q 0,-0.385241 0.15593,-0.674172 0.15593,-0.293516 0.42652,-0.454033 0.27517,-0.160517 0.61455,-0.160517 0.29351,0 0.54576,0.137586 0.25224,0.132999 0.38524,0.353137 V 71.27621 h 0.42193 v 3.393788 h -0.42193 V 74.19762 q -0.12383,0.224723 -0.3669,0.371482 -0.24307,0.142172 -0.56869,0.142172 -0.33479,0 -0.60996,-0.165103 -0.27059,-0.165103 -0.42652,-0.463206 -0.15593,-0.298103 -0.15593,-0.678758 z m 2.128,0.0046 q 0,-0.284344 -0.11466,-0.49531 -0.11465,-0.210965 -0.31186,-0.321034 -0.19262,-0.114655 -0.42652,-0.114655 -0.23389,0 -0.42651,0.110069 -0.19262,0.110069 -0.30728,0.321034 -0.11465,0.210965 -0.11465,0.49531 0,0.288931 0.11465,0.504482 0.11466,0.210965 0.30728,0.32562 0.19262,0.110069 0.42651,0.110069 0.2339,0 0.42652,-0.110069 0.19721,-0.114655 0.31186,-0.32562 0.11466,-0.215551 0.11466,-0.499896 z"
         style="text-align:center;text-anchor:middle"
         id="path496" />
      <path
         d="m 152.27172,73.404207 q 0,-0.385241 0.15593,-0.674172 0.15593,-0.293516 0.42652,-0.454033 0.27517,-0.160517 0.60997,-0.160517 0.3302,0 0.57327,0.142172 0.24307,0.142172 0.36231,0.357723 v -0.45862 h 0.42193 v 2.513238 h -0.42193 v -0.467792 q -0.12383,0.220137 -0.37148,0.366896 -0.24307,0.142172 -0.56869,0.142172 -0.33479,0 -0.60538,-0.165103 -0.27059,-0.165103 -0.42652,-0.463206 -0.15593,-0.298103 -0.15593,-0.678758 z m 2.128,0.0046 q 0,-0.284344 -0.11465,-0.49531 -0.11466,-0.210965 -0.31187,-0.321034 -0.19262,-0.114655 -0.42651,-0.114655 -0.2339,0 -0.42652,0.110069 -0.19262,0.110069 -0.30728,0.321034 -0.11465,0.210965 -0.11465,0.49531 0,0.288931 0.11465,0.504482 0.11466,0.210965 0.30728,0.32562 0.19262,0.110069 0.42652,0.110069 0.23389,0 0.42651,-0.110069 0.19721,-0.114655 0.31187,-0.32562 0.11465,-0.215551 0.11465,-0.499896 z"
         style="text-align:center;text-anchor:middle"
         id="path498" />
      <path
         d="m 155.40869,74.335206 q 0.58244,-0.467793 0.91265,-0.765896 0.33021,-0.302689 0.55493,-0.628309 0.22931,-0.330207 0.22931,-0.646655 0,-0.298103 -0.14676,-0.467792 -0.14217,-0.174276 -0.4632,-0.174276 -0.31187,0 -0.48614,0.197207 -0.16969,0.19262 -0.18345,0.518241 h -0.40359 q 0.0183,-0.513655 0.31187,-0.793413 0.29351,-0.279758 0.75672,-0.279758 0.47238,0 0.74755,0.261413 0.27976,0.261414 0.27976,0.720034 0,0.380654 -0.22931,0.742964 -0.22473,0.357724 -0.51366,0.632896 -0.28893,0.270586 -0.73837,0.632895 h 1.57765 v 0.348552 h -2.20596 z"
         style="text-align:center;text-anchor:middle"
         id="path500" />
      <path
         d="m 158.95841,72.441105 c 0.18345,0 0.34855,-0.133 0.34855,-0.339379 0,-0.210965 -0.1651,-0.348551 -0.34855,-0.348551 -0.18345,0 -0.34397,0.137586 -0.34397,0.348551 0,0.206379 0.16052,0.339379 0.34397,0.339379 z m 0,2.247238 c 0.18345,0 0.34855,-0.137586 0.34855,-0.343965 0,-0.210965 -0.1651,-0.343965 -0.34855,-0.343965 -0.18345,0 -0.34397,0.133 -0.34397,0.343965 0,0.206379 0.16052,0.343965 0.34397,0.343965 z"
         style="font-family:'Noto Sans CJK SC';-inkscape-font-specification:'Noto Sans CJK SC'"
         id="path502" />
      <path
         d="m 164.31051,70.349798 -1.25662,5.099854 h -0.41276 l 1.25203,-5.099854 z"
         style="text-align:center;text-anchor:middle"
         id="path504" />
      <path
         d="m 169.50667,72.15676 -0.78424,2.513238 h -0.4311 l -0.60538,-1.994997 -0.60538,1.994997 h -0.4311 l -0.78883,-2.513238 h 0.42652 l 0.57786,2.109653 0.62372,-2.109653 h 0.42652 l 0.60996,2.114239 0.56869,-2.114239 z"
         style="text-align:center;text-anchor:middle"
         id="path506" />
      <path
         d="m 170.13498,71.748589 q -0.11924,0 -0.20179,-0.08255 -0.0826,-0.08255 -0.0826,-0.201793 0,-0.119241 0.0826,-0.201793 0.0825,-0.08255 0.20179,-0.08255 0.11465,0 0.19262,0.08255 0.0825,0.08255 0.0825,0.201793 0,0.119241 -0.0825,0.201793 -0.078,0.08255 -0.19262,0.08255 z m 0.20179,0.408171 v 2.513238 h -0.41734 V 72.15676 Z"
         style="text-align:center;text-anchor:middle"
         id="path508" />
      <path
         d="m 171.5567,72.500725 v 1.481343 q 0,0.183448 0.078,0.261414 0.078,0.07338 0.27058,0.07338 h 0.30728 v 0.353137 h -0.37607 q -0.34855,0 -0.52283,-0.160517 -0.17427,-0.160517 -0.17427,-0.527413 v -1.481343 h -0.32562 V 72.15676 h 0.32562 v -0.632895 h 0.41734 v 0.632895 h 0.65583 v 0.343965 z"
         style="text-align:center;text-anchor:middle"
         id="path510" />
      <path
         d="m 173.96446,72.110898 q 0.28434,0 0.51365,0.123828 0.22931,0.119241 0.35773,0.36231 0.133,0.243068 0.133,0.591619 v 1.481343 h -0.41276 v -1.421722 q 0,-0.376068 -0.18804,-0.573275 -0.18803,-0.201793 -0.51365,-0.201793 -0.33021,0 -0.52741,0.206379 -0.19262,0.206379 -0.19262,0.600792 v 1.389619 h -0.41735 V 71.27621 h 0.41735 v 1.238274 q 0.12382,-0.19262 0.33938,-0.298103 0.22013,-0.105483 0.49072,-0.105483 z"
         style="text-align:center;text-anchor:middle"
         id="path512" />
      <path
         d="m 179.1698,73.317069 q 0,0.119241 -0.0138,0.252241 h -2.00876 q 0.0229,0.371482 0.25224,0.582448 0.2339,0.206379 0.5641,0.206379 0.27059,0 0.44945,-0.123828 0.18345,-0.128413 0.25683,-0.339379 h 0.44945 q -0.1009,0.36231 -0.40359,0.59162 -0.30269,0.224724 -0.75214,0.224724 -0.35772,0 -0.64206,-0.160517 -0.27976,-0.160517 -0.44028,-0.454034 -0.16052,-0.298103 -0.16052,-0.68793 0,-0.389827 0.15594,-0.683344 0.15593,-0.293517 0.43568,-0.449447 0.28435,-0.160517 0.65124,-0.160517 0.35773,0 0.6329,0.15593 0.27517,0.155931 0.42193,0.431103 0.15135,0.270586 0.15135,0.614551 z m -0.43111,-0.08714 q 0,-0.238482 -0.10548,-0.408172 -0.10548,-0.174275 -0.28893,-0.261413 -0.17886,-0.09172 -0.399,-0.09172 -0.31645,0 -0.54117,0.201793 -0.22014,0.201793 -0.25224,0.559516 z"
         style="text-align:center;text-anchor:middle"
         id="path514" />
      <path
         d="m 181.03179,74.669998 -0.5962,-0.935585 -0.57328,0.935585 h -0.43569 l 0.81176,-1.247446 -0.81176,-1.265792 h 0.47238 l 0.59621,0.930999 0.56869,-0.930999 h 0.43569 l -0.80718,1.242861 0.81176,1.270377 z"
         style="text-align:center;text-anchor:middle"
         id="path516" />
      <path
         d="m 182.426,72.500725 v 1.481343 q 0,0.183448 0.078,0.261414 0.078,0.07338 0.27058,0.07338 h 0.30728 v 0.353137 h -0.37607 q -0.34855,0 -0.52283,-0.160517 -0.17427,-0.160517 -0.17427,-0.527413 v -1.481343 h -0.32562 V 72.15676 h 0.32562 v -0.632895 h 0.41734 v 0.632895 h 0.65583 v 0.343965 z"
         style="text-align:center;text-anchor:middle"
         id="path518" />
      <path
         d="m 183.41662,73.93162 v -0.316448 l 1.60976,-2.228893 h 0.49989 v 2.183031 h 0.45862 v 0.36231 h -0.45862 v 0.738378 h -0.41276 V 73.93162 Z m 1.71524,-2.109652 -1.23369,1.747342 h 1.23369 z"
         style="text-align:center;text-anchor:middle"
         id="path520" />
    </g>
    <g
       aria-label="/dev/hda3：swap"
       id="text857-0"
       style="font-size:4.5862px;line-height:1.25;font-family:Poppins;-inkscape-font-specification:Poppins;letter-spacing:0;fill:#ffffff;stroke-width:0.26">
      <path
         d="m 140.61979,111.1298 -1.25662,5.09985 h -0.41276 l 1.25203,-5.09985 z"
         style="text-align:center;text-anchor:middle"
         id="path560" />
      <path
         d="m 141.08758,114.18421 q 0,-0.38525 0.15593,-0.67418 0.15593,-0.29351 0.42652,-0.45403 0.27517,-0.16052 0.61455,-0.16052 0.29352,0 0.54576,0.13759 0.25224,0.133 0.38524,0.35314 v -1.33 h 0.42193 V 115.45 h -0.42193 v -0.47238 q -0.12383,0.22472 -0.3669,0.37148 -0.24307,0.14217 -0.56869,0.14217 -0.33479,0 -0.60996,-0.1651 -0.27059,-0.1651 -0.42652,-0.46321 -0.15593,-0.2981 -0.15593,-0.67875 z m 2.128,0.005 q 0,-0.28434 -0.11466,-0.49531 -0.11465,-0.21096 -0.31186,-0.32103 -0.19262,-0.11466 -0.42652,-0.11466 -0.23389,0 -0.42651,0.11007 -0.19262,0.11007 -0.30728,0.32104 -0.11465,0.21096 -0.11465,0.49531 0,0.28893 0.11465,0.50448 0.11466,0.21096 0.30728,0.32562 0.19262,0.11007 0.42651,0.11007 0.2339,0 0.42652,-0.11007 0.19721,-0.11466 0.31186,-0.32562 0.11466,-0.21555 0.11466,-0.4999 z"
         style="text-align:center;text-anchor:middle"
         id="path562" />
      <path
         d="m 146.63689,114.09707 q 0,0.11924 -0.0138,0.25224 h -2.00876 q 0.0229,0.37148 0.25224,0.58245 0.2339,0.20638 0.5641,0.20638 0.27059,0 0.44945,-0.12383 0.18345,-0.12842 0.25683,-0.33938 h 0.44945 q -0.1009,0.36231 -0.40359,0.59162 -0.30269,0.22472 -0.75214,0.22472 -0.35772,0 -0.64206,-0.16051 -0.27976,-0.16052 -0.44028,-0.45404 -0.16052,-0.2981 -0.16052,-0.68793 0,-0.38983 0.15594,-0.68334 0.15593,-0.29352 0.43568,-0.44945 0.28435,-0.16052 0.65124,-0.16052 0.35773,0 0.6329,0.15593 0.27517,0.15594 0.42193,0.43111 0.15135,0.27058 0.15135,0.61455 z m -0.43111,-0.0871 q 0,-0.23848 -0.10548,-0.40817 -0.10548,-0.17428 -0.28893,-0.26142 -0.17886,-0.0917 -0.399,-0.0917 -0.31645,0 -0.54117,0.20179 -0.22014,0.2018 -0.25224,0.55952 z"
         style="text-align:center;text-anchor:middle"
         id="path564" />
      <path
         d="m 148.12282,115.06476 0.77965,-2.128 h 0.44486 L 148.3613,115.45 h -0.48614 l -0.98603,-2.51324 h 0.44945 z"
         style="text-align:center;text-anchor:middle"
         id="path566" />
      <path
         d="m 151.3194,111.1298 -1.25662,5.09985 h -0.41275 l 1.25203,-5.09985 z"
         style="text-align:center;text-anchor:middle"
         id="path568" />
      <path
         d="m 153.19057,112.8909 q 0.28435,0 0.51366,0.12382 0.22931,0.11925 0.35772,0.36231 0.133,0.24307 0.133,0.59162 V 115.45 h -0.41276 v -1.42173 q 0,-0.37606 -0.18803,-0.57327 -0.18804,-0.20179 -0.51366,-0.20179 -0.3302,0 -0.52741,0.20638 -0.19262,0.20638 -0.19262,0.60079 V 115.45 h -0.41734 v -3.39379 h 0.41734 v 1.23827 q 0.12383,-0.19262 0.33938,-0.2981 0.22014,-0.10548 0.49072,-0.10548 z"
         style="text-align:center;text-anchor:middle"
         id="path570" />
      <path
         d="m 154.72236,114.18421 q 0,-0.38525 0.15593,-0.67418 0.15593,-0.29351 0.42652,-0.45403 0.27517,-0.16052 0.61455,-0.16052 0.29352,0 0.54576,0.13759 0.25224,0.133 0.38524,0.35314 v -1.33 h 0.42193 V 115.45 h -0.42193 v -0.47238 q -0.12383,0.22472 -0.3669,0.37148 -0.24307,0.14217 -0.56869,0.14217 -0.33479,0 -0.60996,-0.1651 -0.27059,-0.1651 -0.42652,-0.46321 -0.15593,-0.2981 -0.15593,-0.67875 z m 2.128,0.005 q 0,-0.28434 -0.11466,-0.49531 -0.11465,-0.21096 -0.31186,-0.32103 -0.19262,-0.11466 -0.42652,-0.11466 -0.23389,0 -0.42651,0.11007 -0.19262,0.11007 -0.30728,0.32104 -0.11465,0.21096 -0.11465,0.49531 0,0.28893 0.11465,0.50448 0.11466,0.21096 0.30728,0.32562 0.19262,0.11007 0.42651,0.11007 0.2339,0 0.42652,-0.11007 0.19721,-0.11466 0.31186,-0.32562 0.11466,-0.21555 0.11466,-0.4999 z"
         style="text-align:center;text-anchor:middle"
         id="path572" />
      <path
         d="m 157.82263,114.18421 q 0,-0.38525 0.15594,-0.67418 0.15593,-0.29351 0.42651,-0.45403 0.27517,-0.16052 0.60997,-0.16052 0.3302,0 0.57327,0.14218 0.24307,0.14217 0.36231,0.35772 v -0.45862 h 0.42193 V 115.45 h -0.42193 v -0.4678 q -0.12383,0.22014 -0.37148,0.3669 -0.24307,0.14217 -0.56869,0.14217 -0.33479,0 -0.60538,-0.1651 -0.27058,-0.1651 -0.42651,-0.46321 -0.15594,-0.2981 -0.15594,-0.67875 z m 2.128,0.005 q 0,-0.28434 -0.11465,-0.49531 -0.11466,-0.21096 -0.31187,-0.32103 -0.19262,-0.11466 -0.42651,-0.11466 -0.2339,0 -0.42652,0.11007 -0.19262,0.11007 -0.30727,0.32104 -0.11466,0.21096 -0.11466,0.49531 0,0.28893 0.11466,0.50448 0.11465,0.21096 0.30727,0.32562 0.19262,0.11007 0.42652,0.11007 0.23389,0 0.42651,-0.11007 0.19721,-0.11466 0.31187,-0.32562 0.11465,-0.21555 0.11465,-0.4999 z"
         style="text-align:center;text-anchor:middle"
         id="path574" />
      <path
         d="m 161.00087,112.96886 q 0.0321,-0.42193 0.32562,-0.66041 0.29352,-0.23848 0.76131,-0.23848 0.31186,0 0.53659,0.11465 0.22931,0.11007 0.34396,0.30269 0.11924,0.19262 0.11924,0.43569 0,0.28435 -0.1651,0.49072 -0.16052,0.20638 -0.42193,0.266 v 0.0229 q 0.2981,0.0734 0.47238,0.28894 0.17427,0.21555 0.17427,0.5641 0,0.26141 -0.11924,0.47238 -0.11924,0.20638 -0.35772,0.32562 -0.23848,0.11924 -0.57327,0.11924 -0.48614,0 -0.798,-0.25224 -0.31187,-0.25683 -0.34856,-0.72462 h 0.40359 q 0.0321,0.27517 0.22472,0.44944 0.19262,0.17428 0.51366,0.17428 0.32103,0 0.48614,-0.1651 0.16969,-0.16969 0.16969,-0.43569 0,-0.34397 -0.22931,-0.49531 -0.22931,-0.15135 -0.69252,-0.15135 h -0.10548 v -0.34855 h 0.11007 q 0.42193,-0.005 0.63748,-0.13758 0.21555,-0.13759 0.21555,-0.42193 0,-0.24307 -0.16052,-0.38983 -0.15593,-0.14676 -0.44945,-0.14676 -0.28434,0 -0.45862,0.14676 -0.17427,0.14676 -0.20638,0.39441 z"
         style="text-align:center;text-anchor:middle"
         id="path576" />
      <path
         d="m 164.57353,113.2211 c 0.18345,0 0.34855,-0.133 0.34855,-0.33938 0,-0.21096 -0.1651,-0.34855 -0.34855,-0.34855 -0.18345,0 -0.34397,0.13759 -0.34397,0.34855 0,0.20638 0.16052,0.33938 0.34397,0.33938 z m 0,2.24724 c 0.18345,0 0.34855,-0.13758 0.34855,-0.34396 0,-0.21097 -0.1651,-0.34397 -0.34855,-0.34397 -0.18345,0 -0.34397,0.133 -0.34397,0.34397 0,0.20638 0.16052,0.34396 0.34397,0.34396 z"
         style="font-family:'Noto Sans CJK SC';-inkscape-font-specification:'Noto Sans CJK SC'"
         id="path578" />
      <path
         d="m 169.25604,115.49127 q -0.28893,0 -0.51824,-0.0963 -0.22931,-0.10089 -0.36231,-0.27517 -0.133,-0.17886 -0.14676,-0.40817 h 0.4311 q 0.0183,0.18803 0.17428,0.30727 0.16051,0.11925 0.41734,0.11925 0.23848,0 0.37607,-0.10549 0.13759,-0.10548 0.13759,-0.266 0,-0.1651 -0.14676,-0.24307 -0.14676,-0.0825 -0.45404,-0.16051 -0.27976,-0.0734 -0.45862,-0.14676 -0.17427,-0.078 -0.30269,-0.22472 -0.12382,-0.15135 -0.12382,-0.39442 0,-0.19262 0.11465,-0.35314 0.11466,-0.16051 0.32562,-0.25224 0.21097,-0.0963 0.48155,-0.0963 0.41735,0 0.67417,0.21097 0.25683,0.21096 0.27518,0.57786 H 169.733 q -0.0138,-0.19721 -0.16052,-0.31645 -0.14217,-0.11924 -0.38524,-0.11924 -0.22472,0 -0.35772,0.0963 -0.133,0.0963 -0.133,0.25224 0,0.12383 0.078,0.20638 0.0826,0.078 0.20179,0.12841 0.12383,0.0459 0.33938,0.10549 0.27058,0.0734 0.44027,0.14676 0.16969,0.0688 0.28893,0.21096 0.12383,0.14217 0.12842,0.37148 0,0.20638 -0.11466,0.37149 -0.11465,0.1651 -0.32562,0.26141 -0.20638,0.0917 -0.47696,0.0917 z"
         style="text-align:center;text-anchor:middle"
         id="path580" />
      <path
         d="m 174.10823,112.93676 -0.78424,2.51324 h -0.4311 l -0.60538,-1.995 -0.60538,1.995 h -0.4311 l -0.78883,-2.51324 h 0.42652 l 0.57786,2.10965 0.62373,-2.10965 h 0.42651 l 0.60997,2.11424 0.56869,-2.11424 z"
         style="text-align:center;text-anchor:middle"
         id="path582" />
      <path
         d="m 174.36506,114.18421 q 0,-0.38525 0.15593,-0.67418 0.15593,-0.29351 0.42652,-0.45403 0.27517,-0.16052 0.60996,-0.16052 0.33021,0 0.57328,0.14218 0.24307,0.14217 0.36231,0.35772 v -0.45862 h 0.42193 V 115.45 h -0.42193 v -0.4678 q -0.12383,0.22014 -0.37149,0.3669 -0.24306,0.14217 -0.56868,0.14217 -0.3348,0 -0.60538,-0.1651 -0.27059,-0.1651 -0.42652,-0.46321 -0.15593,-0.2981 -0.15593,-0.67875 z m 2.128,0.005 q 0,-0.28434 -0.11466,-0.49531 -0.11465,-0.21096 -0.31186,-0.32103 -0.19262,-0.11466 -0.42652,-0.11466 -0.23389,0 -0.42651,0.11007 -0.19262,0.11007 -0.30728,0.32104 -0.11465,0.21096 -0.11465,0.49531 0,0.28893 0.11465,0.50448 0.11466,0.21096 0.30728,0.32562 0.19262,0.11007 0.42651,0.11007 0.2339,0 0.42652,-0.11007 0.19721,-0.11466 0.31186,-0.32562 0.11466,-0.21555 0.11466,-0.4999 z"
         style="text-align:center;text-anchor:middle"
         id="path584" />
      <path
         d="m 178.03861,113.39997 q 0.12383,-0.21556 0.36689,-0.35773 0.24766,-0.14676 0.57328,-0.14676 0.33479,0 0.60538,0.16052 0.27517,0.16052 0.4311,0.45403 0.15593,0.28893 0.15593,0.67418 0,0.38065 -0.15593,0.67875 -0.15593,0.29811 -0.4311,0.46321 -0.27059,0.1651 -0.60538,0.1651 -0.32104,0 -0.56869,-0.14217 -0.24307,-0.14676 -0.37148,-0.36231 v 1.65562 h -0.41735 v -3.70565 h 0.41735 z m 1.70606,0.78424 q 0,-0.28435 -0.11465,-0.49531 -0.11466,-0.21097 -0.31186,-0.32104 -0.19262,-0.11007 -0.42652,-0.11007 -0.22931,0 -0.42652,0.11466 -0.19262,0.11007 -0.31186,0.32562 -0.11465,0.21096 -0.11465,0.49072 0,0.28435 0.11465,0.4999 0.11924,0.21096 0.31186,0.32562 0.19721,0.11007 0.42652,0.11007 0.2339,0 0.42652,-0.11007 0.1972,-0.11466 0.31186,-0.32562 0.11465,-0.21555 0.11465,-0.50448 z"
         style="text-align:center;text-anchor:middle"
         id="path586" />
    </g>
    <path
       d="M79.9 55.56h47.63"
       id="path964"
       fill="none"
       stroke="#c0c2c4"
       stroke-width=".47"
       stroke-linecap="butt"
       stroke-linejoin="miter"
       stroke-miterlimit="4"
       stroke-dasharray="1.86, 1.86"
       stroke-dashoffset="0"
       stroke-opacity="1" />
    <path
       d="M79.9 89.96h47.63"
       id="path966"
       fill="none"
       stroke="#c0c2c4"
       stroke-width=".47"
       stroke-linecap="butt"
       stroke-linejoin="miter"
       stroke-miterlimit="4"
       stroke-dasharray="1.86, 1.86"
       stroke-dashoffset="0"
       stroke-opacity="1" />
    <path
       d="M79.9 100.54h47.63"
       id="path968"
       fill="none"
       stroke="#c0c2c4"
       stroke-width=".47"
       stroke-linecap="butt"
       stroke-linejoin="miter"
       stroke-miterlimit="4"
       stroke-dasharray="1.86, 1.86"
       stroke-dashoffset="0"
       stroke-opacity="1" />
    <path
       d="M79.9 127h47.63"
       id="path970"
       fill="none"
       stroke="#c0c2c4"
       stroke-width=".47"
       stroke-linecap="butt"
       stroke-linejoin="miter"
       stroke-miterlimit="4"
       stroke-dasharray="1.86, 1.86"
       stroke-dashoffset="0"
       stroke-opacity="1" />
    <path
       d="m107.1 64.82 7.95 7.94-7.94 7.94v-2.65H91.23V67.47h15.88z"
       id="path972"
       fill="none"
       stroke="#0c322c"
       stroke-width=".47"
       stroke-linecap="butt"
       stroke-linejoin="miter"
       stroke-miterlimit="4"
       stroke-dasharray="none"
       stroke-dashoffset="0"
       stroke-opacity="1" />
    <path
       d="m105.76 108.56 5.2 5.21-5.2 5.2v-1.73H95.34v-6.94h10.42z"
       id="path972-7"
       fill="none"
       stroke="#0c322c"
       stroke-width=".45"
       stroke-linecap="butt"
       stroke-linejoin="miter"
       stroke-miterlimit="4"
       stroke-dasharray="none"
       stroke-dashoffset="0"
       stroke-opacity="1" />
    <rect
       id="rect1010"
       width="66.15"
       height="5.29"
       x="13.23"
       y="137.78"
       fill="#0c322c"
       stroke="none"
       stroke-width=".45"
       stroke-linecap="round"
       stroke-miterlimit="4"
       stroke-dasharray="none"
       stroke-dashoffset="0"
       paint-order="stroke markers fill"
       stop-color="#000" />
    <rect
       id="rect1012"
       width="66.15"
       height="5.29"
       x="13.23"
       y="148.5"
       fill="#30ba78"
       stroke="none"
       stroke-width=".45"
       stroke-linecap="round"
       stroke-miterlimit="4"
       stroke-dasharray="none"
       stroke-dashoffset="0"
       paint-order="stroke markers fill"
       stop-color="#000" />
    <g
       aria-label="已分区的安装区"
       id="text1016"
       style="font-weight:500;font-size:4.23341px;line-height:1.25;font-family:Poppins;-inkscape-font-specification:'Poppins, Medium';letter-spacing:0;stroke-width:0.26">
      <path
         d="m 88.388626,141.71417 c -0.457208,0 -0.550343,-0.0593 -0.550343,-0.32597 v -1.11762 h 2.20984 v 0.21167 h 0.321739 v -1.9389 h -3.073455 v 0.30904 h 2.751716 v 1.10915 h -2.20984 v -0.69428 h -0.317506 v 2.11671 c 0,0.52071 0.211671,0.63924 0.889017,0.63924 h 1.583295 c 0.690046,0 0.829748,-0.2286 0.910183,-1.00332 -0.09314,-0.0169 -0.232838,-0.0677 -0.317506,-0.127 -0.05927,0.68158 -0.127002,0.82128 -0.588444,0.82128 z"
         style="font-weight:normal;font-family:'Noto Sans CJK SC';-inkscape-font-specification:'Noto Sans CJK SC'"
         id="path589" />
      <path
         d="m 91.940457,139.86841 c 0.355607,-0.38101 0.677346,-0.87632 0.89325,-1.41396 l -0.33444,-0.0931 c -0.245537,0.64348 -0.673112,1.22769 -1.176887,1.59176 0.08043,0.0593 0.21167,0.17781 0.270938,0.24131 0.110068,-0.0931 0.22437,-0.19474 0.330206,-0.30904 v 0.2921 h 0.812814 c -0.09737,0.71122 -0.330206,1.3801 -1.325057,1.71454 0.06773,0.0593 0.156636,0.18627 0.19897,0.2667 1.062586,-0.38947 1.341991,-1.14725 1.456293,-1.98124 h 1.147254 c -0.0508,1.04989 -0.110068,1.46476 -0.215903,1.5706 -0.04657,0.0423 -0.09314,0.055 -0.182037,0.055 -0.101602,0 -0.355606,-0.004 -0.630778,-0.0296 0.05927,0.0889 0.09737,0.22014 0.101602,0.31327 0.262471,0.0169 0.524943,0.0212 0.664645,0.008 0.148169,-0.008 0.237071,-0.0423 0.330206,-0.14817 0.143936,-0.16087 0.19897,-0.64348 0.258238,-1.9262 0.0042,-0.0423 0.0085,-0.1524 0.0085,-0.1524 z m 1.739932,-1.39703 c 0.296339,0.62231 0.800114,1.29966 1.240389,1.6849 0.05927,-0.0847 0.169336,-0.20321 0.254005,-0.26671 -0.440275,-0.3302 -0.948284,-0.96522 -1.210756,-1.53673 z"
         style="font-weight:normal;font-family:'Noto Sans CJK SC';-inkscape-font-specification:'Noto Sans CJK SC'"
         id="path591" />
      <path
         d="m 96.089199,141.71841 v -2.90836 h 3.175057 v -0.30057 H 95.78016 v 3.5095 h 3.589932 v -0.30057 z m 2.777117,-0.52071 c -0.224371,-0.27094 -0.567277,-0.60961 -0.94405,-0.95675 0.304805,-0.34291 0.579977,-0.71545 0.812814,-1.10916 l -0.292105,-0.11853 c -0.203204,0.3556 -0.457208,0.70698 -0.74508,1.02448 -0.338673,-0.3048 -0.698513,-0.61384 -1.020252,-0.87208 l -0.220137,0.18627 c 0.330206,0.27094 0.690046,0.58844 1.032952,0.90595 -0.355607,0.36407 -0.757781,0.68581 -1.168421,0.93135 0.0762,0.0508 0.194736,0.17357 0.249771,0.23284 0.393707,-0.25401 0.783181,-0.58421 1.138787,-0.95252 0.368307,0.34714 0.694279,0.69005 0.90595,0.95252 z"
         style="font-weight:normal;font-family:'Noto Sans CJK SC';-inkscape-font-specification:'Noto Sans CJK SC'"
         id="path593" />
      <path
         d="m 101.14812,140.12241 h -0.88901 v -0.88478 h 0.88901 z m -0.88901,1.29542 v -1.01601 h 0.88901 v 1.01601 z m 0.3556,-3.14965 c -0.0296,0.19897 -0.10583,0.48261 -0.16933,0.68581 h -0.474144 v 3.08192 h 0.287874 v -0.33444 h 1.17689 v -2.74748 h -0.70275 c 0.072,-0.18204 0.14817,-0.41488 0.22014,-0.62231 z m 2.89142,0.67311 h -1.26579 c 0.072,-0.19897 0.13124,-0.40218 0.18204,-0.60961 l -0.30057,-0.072 c -0.13547,0.57998 -0.36408,1.16419 -0.64771,1.53673 0.0677,0.0423 0.2032,0.127 0.25823,0.1778 0.14817,-0.19897 0.27941,-0.45721 0.39794,-0.74085 h 1.07529 c -0.055,1.6849 -0.11853,2.32838 -0.25824,2.47655 -0.0423,0.055 -0.0889,0.0635 -0.17357,0.0635 -0.0974,0 -0.35137,0 -0.62654,-0.0254 0.0593,0.0889 0.0974,0.2159 0.10583,0.30904 0.23707,0.0127 0.47838,0.0212 0.62655,0.004 0.14393,-0.0127 0.2413,-0.0508 0.33444,-0.16933 0.16933,-0.20744 0.22437,-0.85939 0.2921,-2.78982 z m -0.66888,1.90503 c -0.13546,-0.24977 -0.42757,-0.65618 -0.66464,-0.95675 l -0.24554,0.14394 c 0.23284,0.3048 0.51648,0.72391 0.64348,0.97792 z"
         style="font-weight:normal;font-family:'Noto Sans CJK SC';-inkscape-font-specification:'Noto Sans CJK SC'"
         id="path595" />
      <path
         d="m 104.54332,139.05982 h 2.78135 v 0.55458 h 0.32597 v -0.84668 h -1.50286 c -0.0635,-0.14394 -0.16087,-0.33867 -0.24554,-0.49531 l -0.32174,0.0762 c 0.0635,0.127 0.13971,0.28787 0.19897,0.41911 h -1.54942 v 0.84668 h 0.31327 z m 2.05744,1.15996 c -0.12701,0.33867 -0.31751,0.61808 -0.55458,0.84245 -0.30481,-0.11854 -0.61808,-0.23284 -0.91018,-0.32598 0.10583,-0.1524 0.22013,-0.3302 0.33444,-0.51647 z m 1.16418,0 v -0.30057 h -2.12093 c 0.1143,-0.20744 0.22013,-0.41911 0.3048,-0.60961 l -0.33867,-0.072 c -0.0847,0.21167 -0.20744,0.44874 -0.33444,0.68158 h -1.15149 v 0.30057 h 0.97369 c -0.15241,0.24554 -0.30904,0.47414 -0.44875,0.65194 l -0.004,0.004 c 0.35137,0.11007 0.73661,0.254 1.11762,0.4064 -0.41064,0.27941 -0.93982,0.45298 -1.57906,0.56305 0.0677,0.072 0.1651,0.20743 0.19897,0.28787 0.69004,-0.1524 1.25732,-0.36407 1.70606,-0.71121 0.53341,0.23283 1.02025,0.48261 1.32929,0.69428 l 0.25824,-0.27094 c -0.32174,-0.20744 -0.80011,-0.44028 -1.32082,-0.66041 0.254,-0.25401 0.45721,-0.57151 0.60538,-0.96522 z"
         style="font-weight:normal;font-family:'Noto Sans CJK SC';-inkscape-font-specification:'Noto Sans CJK SC'"
         id="path597" />
      <path
         d="m 110.6987,139.8049 h -0.88055 v 0.27941 h 2.104 v -0.27941 h -0.91441 v -0.66887 h 0.99485 v -0.27941 h -0.99485 v -0.57998 h -0.30904 v 0.57998 h -1.00755 v 0.27941 h 1.00755 z m -1.62563,-0.85938 c -0.11007,-0.13547 -0.33868,-0.31327 -0.52495,-0.43181 l -0.1905,0.17781 c 0.18627,0.127 0.41064,0.3175 0.51648,0.45297 z m 0.1397,1.31236 h 0.29634 v -1.98124 h -0.29634 v 1.06259 c -0.36831,0.1651 -0.73238,0.33444 -0.98638,0.43181 l 0.10583,0.26247 c 0.25824,-0.11007 0.56728,-0.25824 0.88055,-0.40218 z m 2.38764,0.58844 c -0.18203,0.13124 -0.47837,0.30904 -0.72391,0.43604 -0.16934,-0.14817 -0.30904,-0.32173 -0.42334,-0.51224 h 1.60869 v -0.25824 h -1.64679 c -0.0466,-0.1143 -0.11854,-0.254 -0.19474,-0.36407 l -0.3048,0.0847 c 0.0508,0.0804 0.10583,0.18627 0.14817,0.2794 h -1.77804 v 0.25824 h 1.46476 c -0.38947,0.27941 -0.98638,0.50378 -1.51979,0.60961 0.055,0.0593 0.13547,0.16087 0.17357,0.23284 0.24977,-0.0593 0.51224,-0.1397 0.76201,-0.24554 v 0.27941 c 0,0.16933 -0.13547,0.23707 -0.22014,0.26247 0.0423,0.0593 0.0974,0.18627 0.11007,0.254 0.0847,-0.0466 0.23284,-0.0889 1.43513,-0.35137 -0.004,-0.0635 0.004,-0.18204 0.0127,-0.25824 l -1.02872,0.21591 v -0.54611 c 0.26247,-0.13124 0.49531,-0.28788 0.67735,-0.45298 0.33867,0.69005 0.94828,1.14302 1.77803,1.34623 0.0339,-0.0847 0.1143,-0.19897 0.18204,-0.25824 -0.39795,-0.0804 -0.75355,-0.22437 -1.03719,-0.42334 0.24554,-0.11431 0.53341,-0.27094 0.75355,-0.42334 z"
         style="font-weight:normal;font-family:'Noto Sans CJK SC';-inkscape-font-specification:'Noto Sans CJK SC'"
         id="path599" />
      <path
         d="m 113.02284,141.71841 v -2.90836 h 3.17506 v -0.30057 h -3.4841 v 3.5095 h 3.58993 v -0.30057 z m 2.77712,-0.52071 c -0.22438,-0.27094 -0.56728,-0.60961 -0.94405,-0.95675 0.3048,-0.34291 0.57997,-0.71545 0.81281,-1.10916 l -0.29211,-0.11853 c -0.2032,0.3556 -0.4572,0.70698 -0.74508,1.02448 -0.33867,-0.3048 -0.69851,-0.61384 -1.02025,-0.87208 l -0.22013,0.18627 c 0.3302,0.27094 0.69004,0.58844 1.03295,0.90595 -0.35561,0.36407 -0.75778,0.68581 -1.16842,0.93135 0.0762,0.0508 0.19473,0.17357 0.24977,0.23284 0.3937,-0.25401 0.78318,-0.58421 1.13878,-0.95252 0.36831,0.34714 0.69428,0.69005 0.90595,0.95252 z"
         style="font-weight:normal;font-family:'Noto Sans CJK SC';-inkscape-font-specification:'Noto Sans CJK SC'"
         id="path601" />
    </g>
    <g
       aria-label="已分区的未安装区"
       id="text1020"
       style="font-weight:500;font-size:4.23341px;line-height:1.25;font-family:Poppins;-inkscape-font-specification:'Poppins, Medium';letter-spacing:0;stroke-width:0.26">
      <path
         d="m 88.388626,152.43416 c -0.457208,0 -0.550343,-0.0593 -0.550343,-0.32597 v -1.11762 h 2.20984 v 0.21167 h 0.321739 v -1.93891 h -3.073455 v 0.30904 h 2.751716 v 1.10916 h -2.20984 v -0.69428 h -0.317506 v 2.1167 c 0,0.52071 0.211671,0.63925 0.889017,0.63925 h 1.583295 c 0.690046,0 0.829748,-0.22861 0.910183,-1.00332 -0.09314,-0.0169 -0.232838,-0.0677 -0.317506,-0.127 -0.05927,0.68158 -0.127002,0.82128 -0.588444,0.82128 z"
         style="font-weight:normal;font-family:'Noto Sans CJK SC';-inkscape-font-specification:'Noto Sans CJK SC'"
         id="path604" />
      <path
         d="m 91.940457,150.58839 c 0.355607,-0.38101 0.677346,-0.87631 0.89325,-1.41396 l -0.33444,-0.0931 c -0.245537,0.64348 -0.673112,1.22769 -1.176887,1.59176 0.08043,0.0593 0.21167,0.1778 0.270938,0.2413 0.110068,-0.0931 0.22437,-0.19473 0.330206,-0.30904 v 0.29211 h 0.812814 c -0.09737,0.71121 -0.330206,1.38009 -1.325057,1.71453 0.06773,0.0593 0.156636,0.18627 0.19897,0.26671 1.062586,-0.38948 1.341991,-1.14726 1.456293,-1.98124 h 1.147254 c -0.0508,1.04989 -0.110068,1.46476 -0.215903,1.5706 -0.04657,0.0423 -0.09314,0.055 -0.182037,0.055 -0.101602,0 -0.355606,-0.004 -0.630778,-0.0296 0.05927,0.0889 0.09737,0.22013 0.101602,0.31327 0.262471,0.0169 0.524943,0.0212 0.664645,0.008 0.148169,-0.008 0.237071,-0.0423 0.330206,-0.14816 0.143936,-0.16087 0.19897,-0.64348 0.258238,-1.92621 0.0042,-0.0423 0.0085,-0.1524 0.0085,-0.1524 z m 1.739932,-1.39702 c 0.296339,0.62231 0.800114,1.29965 1.240389,1.68489 0.05927,-0.0847 0.169336,-0.2032 0.254005,-0.2667 -0.440275,-0.33021 -0.948284,-0.96522 -1.210756,-1.53673 z"
         style="font-weight:normal;font-family:'Noto Sans CJK SC';-inkscape-font-specification:'Noto Sans CJK SC'"
         id="path606" />
      <path
         d="m 96.089199,152.43839 v -2.90835 h 3.175057 v -0.30057 H 95.78016 v 3.50949 h 3.589932 v -0.30057 z m 2.777117,-0.52071 c -0.224371,-0.27094 -0.567277,-0.60961 -0.94405,-0.95675 0.304805,-0.3429 0.579977,-0.71544 0.812814,-1.10915 l -0.292105,-0.11854 c -0.203204,0.35561 -0.457208,0.70698 -0.74508,1.02449 -0.338673,-0.30481 -0.698513,-0.61385 -1.020252,-0.87208 l -0.220137,0.18627 c 0.330206,0.27093 0.690046,0.58844 1.032952,0.90595 -0.355607,0.36407 -0.757781,0.68581 -1.168421,0.93135 0.0762,0.0508 0.194736,0.17357 0.249771,0.23283 0.393707,-0.254 0.783181,-0.58421 1.138787,-0.95251 0.368307,0.34714 0.694279,0.69004 0.90595,0.95251 z"
         style="font-weight:normal;font-family:'Noto Sans CJK SC';-inkscape-font-specification:'Noto Sans CJK SC'"
         id="path608" />
      <path
         d="m 101.14812,150.8424 h -0.88901 v -0.88479 h 0.88901 z m -0.88901,1.29542 v -1.01602 h 0.88901 v 1.01602 z m 0.3556,-3.14966 c -0.0296,0.19897 -0.10583,0.48261 -0.16933,0.68581 h -0.474144 v 3.08193 h 0.287874 v -0.33444 h 1.17689 v -2.74749 h -0.70275 c 0.072,-0.18203 0.14817,-0.41487 0.22014,-0.62231 z m 2.89142,0.67311 h -1.26579 c 0.072,-0.19897 0.13124,-0.40217 0.18204,-0.60961 l -0.30057,-0.072 c -0.13547,0.57997 -0.36408,1.16418 -0.64771,1.53672 0.0677,0.0423 0.2032,0.12701 0.25823,0.17781 0.14817,-0.19897 0.27941,-0.45721 0.39794,-0.74085 h 1.07529 c -0.055,1.6849 -0.11853,2.32838 -0.25824,2.47654 -0.0423,0.055 -0.0889,0.0635 -0.17357,0.0635 -0.0974,0 -0.35137,0 -0.62654,-0.0254 0.0593,0.0889 0.0974,0.2159 0.10583,0.30903 0.23707,0.0127 0.47838,0.0212 0.62655,0.004 0.14393,-0.0127 0.2413,-0.0508 0.33444,-0.16934 0.16933,-0.20744 0.22437,-0.85938 0.2921,-2.78982 z m -0.66888,1.90504 c -0.13546,-0.24977 -0.42757,-0.65618 -0.66464,-0.95675 l -0.24554,0.14393 c 0.23284,0.30481 0.51648,0.72392 0.64348,0.97792 z"
         style="font-weight:normal;font-family:'Noto Sans CJK SC';-inkscape-font-specification:'Noto Sans CJK SC'"
         id="path610" />
      <path
         d="m 107.79881,151.03713 v -0.30904 h -1.70183 v -0.72814 h 1.40973 v -0.30904 h -1.40973 v -0.69005 h -0.32597 v 0.69005 h -1.36739 v 0.30904 h 1.36739 v 0.72814 h -1.6722 v 0.30904 h 1.49439 c -0.381,0.54611 -1.02025,1.07106 -1.60869,1.33353 0.072,0.0593 0.17357,0.18203 0.2286,0.25823 0.55458,-0.2794 1.14726,-0.78318 1.5579,-1.34622 v 1.5833 h 0.32597 v -1.60023 c 0.41064,0.56304 1.01178,1.08798 1.5706,1.36739 0.055,-0.0847 0.15663,-0.20744 0.2286,-0.26671 -0.58844,-0.25823 -1.23192,-0.78741 -1.61716,-1.32929 z"
         style="font-weight:normal;font-family:'Noto Sans CJK SC';-inkscape-font-specification:'Noto Sans CJK SC'"
         id="path612" />
      <path
         d="m 108.77673,149.77981 h 2.78135 v 0.55458 h 0.32597 v -0.84669 h -1.50286 c -0.0635,-0.14393 -0.16087,-0.33867 -0.24554,-0.4953 l -0.32174,0.0762 c 0.0635,0.127 0.13971,0.28787 0.19897,0.4191 h -1.54942 v 0.84669 h 0.31327 z m 2.05744,1.15995 c -0.12701,0.33868 -0.31751,0.61808 -0.55458,0.84245 -0.30481,-0.11853 -0.61808,-0.23283 -0.91018,-0.32597 0.10583,-0.1524 0.22013,-0.33021 0.33444,-0.51648 z m 1.16418,0 v -0.30057 h -2.12093 c 0.1143,-0.20743 0.22013,-0.41911 0.3048,-0.60961 l -0.33867,-0.072 c -0.0847,0.21167 -0.20744,0.44874 -0.33444,0.68158 h -1.15149 v 0.30057 h 0.97369 c -0.15241,0.24554 -0.30904,0.47415 -0.44875,0.65195 l -0.004,0.004 c 0.35137,0.11007 0.73661,0.25401 1.11762,0.40641 -0.41064,0.27941 -0.93982,0.45298 -1.57906,0.56304 0.0677,0.072 0.1651,0.20744 0.19897,0.28788 0.69004,-0.15241 1.25732,-0.36408 1.70606,-0.71122 0.53341,0.23284 1.02025,0.48261 1.32929,0.69428 l 0.25824,-0.27094 c -0.32174,-0.20743 -0.80011,-0.44027 -1.32082,-0.66041 0.254,-0.254 0.45721,-0.57151 0.60538,-0.96522 z"
         style="font-weight:normal;font-family:'Noto Sans CJK SC';-inkscape-font-specification:'Noto Sans CJK SC'"
         id="path614" />
      <path
         d="m 114.93211,150.52489 h -0.88055 v 0.27941 h 2.104 v -0.27941 h -0.91441 v -0.66888 h 0.99485 v -0.2794 h -0.99485 v -0.57998 h -0.30904 v 0.57998 h -1.00756 v 0.2794 h 1.00756 z m -1.62563,-0.85938 c -0.11007,-0.13547 -0.33868,-0.31327 -0.52495,-0.43181 l -0.1905,0.1778 c 0.18627,0.12701 0.41064,0.31751 0.51648,0.45298 z m 0.1397,1.31236 h 0.29634 v -1.98124 h -0.29634 v 1.06259 c -0.36831,0.1651 -0.73238,0.33443 -0.98638,0.4318 l 0.10583,0.26247 c 0.25824,-0.11006 0.56728,-0.25823 0.88055,-0.40217 z m 2.38764,0.58844 c -0.18203,0.13123 -0.47837,0.30904 -0.72391,0.43604 -0.16934,-0.14817 -0.30904,-0.32174 -0.42334,-0.51224 h 1.60869 v -0.25824 h -1.64679 c -0.0466,-0.1143 -0.11854,-0.254 -0.19474,-0.36407 l -0.3048,0.0847 c 0.0508,0.0804 0.10583,0.18627 0.14816,0.27941 h -1.77803 v 0.25824 h 1.46476 c -0.38947,0.2794 -0.98638,0.50377 -1.51979,0.60961 0.055,0.0593 0.13547,0.16087 0.17357,0.23284 0.24977,-0.0593 0.51224,-0.13971 0.76201,-0.24554 v 0.2794 c 0,0.16934 -0.13547,0.23707 -0.22014,0.26247 0.0423,0.0593 0.0974,0.18627 0.11007,0.25401 0.0847,-0.0466 0.23284,-0.0889 1.43513,-0.35137 -0.004,-0.0635 0.004,-0.18204 0.0127,-0.25824 l -1.02872,0.2159 v -0.54611 c 0.26247,-0.13123 0.49531,-0.28787 0.67735,-0.45297 0.33867,0.69004 0.94828,1.14302 1.77803,1.34622 0.0339,-0.0847 0.1143,-0.19897 0.18204,-0.25824 -0.39795,-0.0804 -0.75355,-0.22437 -1.03719,-0.42334 0.24554,-0.1143 0.53341,-0.27094 0.75355,-0.42334 z"
         style="font-weight:normal;font-family:'Noto Sans CJK SC';-inkscape-font-specification:'Noto Sans CJK SC'"
         id="path616" />
      <path
         d="m 117.25625,152.43839 v -2.90835 h 3.17506 v -0.30057 h -3.4841 v 3.50949 h 3.58993 v -0.30057 z m 2.77712,-0.52071 c -0.22438,-0.27094 -0.56728,-0.60961 -0.94406,-0.95675 0.30481,-0.3429 0.57998,-0.71544 0.81282,-1.10915 l -0.29211,-0.11854 c -0.2032,0.35561 -0.4572,0.70698 -0.74508,1.02449 -0.33867,-0.30481 -0.69851,-0.61385 -1.02025,-0.87208 l -0.22013,0.18627 c 0.3302,0.27093 0.69004,0.58844 1.03295,0.90595 -0.35561,0.36407 -0.75778,0.68581 -1.16842,0.93135 0.0762,0.0508 0.19473,0.17357 0.24977,0.23283 0.3937,-0.254 0.78318,-0.58421 1.13878,-0.95251 0.36831,0.34714 0.69428,0.69004 0.90595,0.95251 z"
         style="font-weight:normal;font-family:'Noto Sans CJK SC';-inkscape-font-specification:'Noto Sans CJK SC'"
         id="path618" />
    </g>
  </g>
</svg>
