<?xml version="1.0" encoding="UTF-8" standalone="no"?>
<svg
   width="770.7"
   height="960.73"
   viewBox="0 0 203.91 254.19"
   version="1.1"
   id="svg1011"
   sodipodi:docname="rules_flow.svg"
   inkscape:version="1.2.2 (732a01da63, 2022-12-09)"
   xmlns:inkscape="http://www.inkscape.org/namespaces/inkscape"
   xmlns:sodipodi="http://sodipodi.sourceforge.net/DTD/sodipodi-0.dtd"
   xmlns="http://www.w3.org/2000/svg"
   xmlns:svg="http://www.w3.org/2000/svg">
  <sodipodi:namedview
     id="namedview8009"
     pagecolor="#ffffff"
     bordercolor="#000000"
     borderopacity="0.25"
     inkscape:showpageshadow="2"
     inkscape:pageopacity="0.0"
     inkscape:pagecheckerboard="0"
     inkscape:deskcolor="#d1d1d1"
     showgrid="false"
     inkscape:zoom="1.186448"
     inkscape:cx="385.18334"
     inkscape:cy="730.75263"
     inkscape:window-width="1920"
     inkscape:window-height="1009"
     inkscape:window-x="-8"
     inkscape:window-y="-8"
     inkscape:window-maximized="1"
     inkscape:current-layer="svg1011" />
  <defs
     id="defs1005">
    <marker
       id="DotL"
       refX="0"
       refY="0"
       orient="auto"
       overflow="visible">
      <path
         d="M3.92 0a4 4 0 1 1-8 0 4 4 0 0 1 8 0z"
         id="path965"
         fill-rule="evenodd"
         stroke="#0c322c"
         stroke-width=".8pt"
         stroke-opacity="1"
         fill="#0c322c"
         fill-opacity="1" />
    </marker>
    <marker
       markerWidth="7.12"
       markerHeight="11.41"
       refX="3.56"
       refY="5.71"
       orient="auto"
       id="marker840">
      <path
         d="m.7.7 5 5-5 5"
         id="path838"
         fill="none"
         stroke="#0c322c"
         stroke-width="2"
         stroke-linecap="butt"
         stroke-linejoin="miter"
         stroke-miterlimit="4"
         stroke-dasharray="none"
         stroke-opacity="1" />
    </marker>
    <marker
       markerWidth="3.06"
       markerHeight="4.71"
       refX="1.53"
       refY="2.35"
       orient="auto"
       id="marker868">
      <path
         d="m2.7.35-2 2 2 2"
         id="path851-3"
         fill="none"
         stroke="#000"
         stroke-width="1"
         stroke-linecap="butt"
         stroke-linejoin="miter"
         stroke-opacity="1" />
    </marker>
    <marker
       markerWidth="3.06"
       markerHeight="4.71"
       refX="1.53"
       refY="2.35"
       orient="auto"
       id="marker883">
      <path
         d="m.35.35 2 2-2 2"
         id="path851"
         fill="none"
         stroke="#000"
         stroke-width="1"
         stroke-linecap="butt"
         stroke-linejoin="miter"
         stroke-opacity="1" />
    </marker>
    <marker
       markerWidth="3.06"
       markerHeight="4.71"
       refX="1.53"
       refY="2.35"
       orient="auto"
       id="marker8684506">
      <path
         d="m2.7.35-2 2 2 2"
         id="path1208"
         fill="#0c322c"
         stroke="#000"
         stroke-width="1"
         stroke-linecap="butt"
         stroke-linejoin="miter"
         stroke-opacity="1" />
    </marker>
    <marker
       markerWidth="3.06"
       markerHeight="4.71"
       refX="1.53"
       refY="2.35"
       orient="auto"
       id="marker8839976">
      <path
         d="m.35.35 2 2-2 2"
         id="path1211"
         fill="#0c322c"
         stroke="#000"
         stroke-width="1"
         stroke-linecap="butt"
         stroke-linejoin="miter"
         stroke-opacity="1" />
    </marker>
    <marker
       markerWidth="3.06"
       markerHeight="4.71"
       refX="1.53"
       refY="2.35"
       orient="auto"
       id="marker86845062245">
      <path
         d="m2.7.35-2 2 2 2"
         id="path1299"
         fill="#fff"
         stroke="#000"
         stroke-width="1"
         stroke-linecap="butt"
         stroke-linejoin="miter"
         stroke-opacity="1" />
    </marker>
    <marker
       markerWidth="3.06"
       markerHeight="4.71"
       refX="1.53"
       refY="2.35"
       orient="auto"
       id="marker88399767239">
      <path
         d="m.35.35 2 2-2 2"
         id="path1302"
         fill="#fff"
         stroke="#000"
         stroke-width="1"
         stroke-linecap="butt"
         stroke-linejoin="miter"
         stroke-opacity="1" />
    </marker>
    <marker
       markerWidth="3.06"
       markerHeight="4.71"
       refX="1.53"
       refY="2.35"
       orient="auto"
       id="marker868450622454738">
      <path
         d="m2.7.35-2 2 2 2"
         id="path1414"
         fill="#fff"
         stroke="#0c322c"
         stroke-width="1"
         stroke-linecap="butt"
         stroke-linejoin="miter"
         stroke-opacity="1" />
    </marker>
    <marker
       markerWidth="3.06"
       markerHeight="4.71"
       refX="1.53"
       refY="2.35"
       orient="auto"
       id="marker883997672393450">
      <path
         d="m.35.35 2 2-2 2"
         id="path1417"
         fill="#fff"
         stroke="#0c322c"
         stroke-width="1"
         stroke-linecap="butt"
         stroke-linejoin="miter"
         stroke-opacity="1" />
    </marker>
    <marker
       markerWidth="3.06"
       markerHeight="4.71"
       refX="1.53"
       refY="2.35"
       orient="auto"
       id="marker8684112">
      <path
         d="m2.7.35-2 2 2 2"
         id="path2096"
         fill="#fff"
         stroke="#0c322c"
         stroke-width="1"
         stroke-linecap="butt"
         stroke-linejoin="miter"
         stroke-opacity="1"
         fill-opacity="0" />
    </marker>
    <marker
       markerWidth="3.06"
       markerHeight="4.71"
       refX="1.53"
       refY="2.35"
       orient="auto"
       id="marker8834579">
      <path
         d="m.35.35 2 2-2 2"
         id="path2099"
         fill="#fff"
         stroke="#0c322c"
         stroke-width="1"
         stroke-linecap="butt"
         stroke-linejoin="miter"
         stroke-opacity="1"
         fill-opacity="0" />
    </marker>
    <marker
       markerWidth="3.06"
       markerHeight="4.71"
       refX="1.53"
       refY="2.35"
       orient="auto"
       id="marker8836481">
      <path
         d="m.35.35 2 2-2 2"
         id="path2261"
         fill="#fff"
         stroke="#0c322c"
         stroke-width="1"
         stroke-linecap="butt"
         stroke-linejoin="miter"
         stroke-opacity="1"
         fill-opacity="0" />
    </marker>
    <marker
       markerWidth="3.06"
       markerHeight="4.71"
       refX="1.53"
       refY="2.35"
       orient="auto"
       id="marker8836481-7">
      <path
         d="m.35.35 2 2-2 2"
         id="path2261-5"
         fill="#fff"
         fill-opacity="0"
         stroke="#0c322c"
         stroke-width="1"
         stroke-linecap="butt"
         stroke-linejoin="miter"
         stroke-opacity="1" />
    </marker>
  </defs>
  <g
     id="layer1"
     transform="translate(23.64 -.16)">
    <rect
       id="rect1319"
       width="47.63"
       height="13.23"
       x="58.45"
       y=".53"
       ry="5.29"
       rx="5.29"
       opacity=".97"
       fill="none"
       stroke="#0c322c"
       stroke-width=".71"
       stroke-linecap="square"
       stroke-miterlimit="4"
       stroke-dasharray="2.8575, 0.714375"
       stroke-dashoffset="0"
       paint-order="stroke fill markers"
       stop-color="#000" />
    <rect
       id="rect1323"
       width="58.21"
       height="18.52"
       x="53.16"
       y="24.34"
       rx="0"
       ry="0"
       opacity=".97"
       fill="none"
       stroke="#0c322c"
       stroke-width=".71"
       stroke-linecap="square"
       stroke-miterlimit="4"
       stroke-dasharray="2.8575, 0.714375"
       stroke-dashoffset="0"
       paint-order="stroke fill markers"
       stop-color="#000" />
    <rect
       id="rect1323-6"
       width="58.21"
       height="18.52"
       x="53.16"
       y="138.11"
       rx="0"
       ry="0"
       opacity=".97"
       fill="none"
       stroke="#0c322c"
       stroke-width=".71"
       stroke-linecap="square"
       stroke-miterlimit="4"
       stroke-dasharray="2.8575, 0.714375"
       stroke-dashoffset="0"
       paint-order="stroke fill markers"
       stop-color="#000" />
    <ellipse
       id="path1370"
       cx="82.26"
       cy="181.04"
       rx="14.55"
       ry="14.55"
       opacity=".97"
       fill="none"
       stroke="#0c322c"
       stroke-width=".71"
       stroke-linecap="square"
       stroke-miterlimit="4"
       stroke-dasharray="2.8575, 0.714375"
       stroke-dashoffset="0"
       paint-order="stroke fill markers"
       stop-color="#000" />
    <rect
       id="rect1323-7"
       width="58.21"
       height="18.52"
       x="53.16"
       y="206.38"
       rx="0"
       ry="0"
       opacity=".97"
       fill="none"
       stroke="#0c322c"
       stroke-width=".71"
       stroke-linecap="square"
       stroke-miterlimit="4"
       stroke-dasharray="2.8575, 0.714375"
       stroke-dashoffset="0"
       paint-order="stroke fill markers"
       stop-color="#000" />
    <rect
       id="rect1323-7-5"
       width="58.21"
       height="18.52"
       x="53.16"
       y="235.48"
       rx="0"
       ry="0"
       opacity=".97"
       fill="none"
       stroke="#0c322c"
       stroke-width=".71"
       stroke-linecap="square"
       stroke-miterlimit="4"
       stroke-dasharray="2.8575, 0.714375"
       stroke-dashoffset="0"
       paint-order="stroke fill markers"
       stop-color="#000" />
    <path
       d="m58.2 69.06 23.82-15.88 23.81 15.88-23.8 15.87L58.2 69.06"
       id="path1395"
       fill="none"
       stroke="#0c322c"
       stroke-width=".77"
       stroke-linecap="butt"
       stroke-linejoin="miter"
       stroke-miterlimit="4"
       stroke-dasharray="none"
       stroke-opacity="1" />
    <path
       d="m58.2 111.39 23.82-15.88 23.81 15.88-23.8 15.87L58.2 111.4"
       id="path1395-3"
       fill="none"
       stroke="#0c322c"
       stroke-width=".77"
       stroke-linecap="butt"
       stroke-linejoin="miter"
       stroke-miterlimit="4"
       stroke-dasharray="none"
       stroke-opacity="1" />
    <rect
       id="rect1323-6-5"
       width="58.21"
       height="18.52"
       x="121.71"
       y="59.8"
       rx="0"
       ry="0"
       opacity=".97"
       fill="none"
       stroke="#0c322c"
       stroke-width=".71"
       stroke-linecap="square"
       stroke-miterlimit="4"
       stroke-dasharray="2.8575, 0.714375"
       stroke-dashoffset="0"
       paint-order="stroke fill markers"
       stop-color="#000" />
    <rect
       id="rect1323-6-5-6"
       width="58.21"
       height="18.52"
       x="-23.28"
       y="102.13"
       opacity=".97"
       fill="none"
       stroke="#0c322c"
       stroke-width=".71"
       stroke-linecap="square"
       stroke-miterlimit="4"
       stroke-dasharray="2.8575, 0.714375"
       stroke-dashoffset="0"
       paint-order="stroke fill markers"
       stop-color="#000" />
    <g
       aria-label="启动/停止"
       id="text1452"
       style="font-weight:500;font-size:3.7px;line-height:1.25;font-family:Poppins;-inkscape-font-specification:'Poppins, Medium';letter-spacing:0;stroke-width:0.26">
      <path
         d="m 76.890084,6.0974998 v 0.5106 h -2.0757 v -0.5106 z m 0.2701,0.7696 v -1.0286 h -1.2025 l 0.1258,-0.0407 c -0.0481,-0.1332 -0.1517,-0.333 -0.2479,-0.4884 l -0.259,0.074 c 0.0777,0.1406 0.1665,0.3219 0.2146,0.4551 h -1.2506 v 0.8917 c 0,0.5291 -0.0444,1.2617 -0.4366,1.7871 0.0666,0.0296 0.1776,0.1295001 0.2257,0.1850001 0.3885,-0.5180001 0.4736,-1.2691001 0.4847,-1.8352001 z m -1.9055,1.3209 v -0.6734 h 1.6983 v 0.6734 z m -0.2701,-0.9287 v 1.4171001 h 0.2701 V 8.4395998 h 1.6983 v 0.2331001 h 0.2738 V 7.2592998 Z"
         style="font-weight:normal;font-family:'Noto Sans CJK SC';-inkscape-font-specification:'Noto Sans CJK SC';text-align:center;text-anchor:middle"
         id="path2123" />
      <path
         d="m 79.424584,5.6164998 h -1.4208 v 0.2479 h 1.4208 z m 0.1295,2.4679 c -0.0703,-0.259 -0.2331,-0.6919 -0.3774,-1.0212 l -0.2257,0.0629 c 0.074,0.1739 0.148,0.3737 0.2146,0.5624 l -0.8769,0.185 c 0.1443,-0.333 0.2812,-0.74 0.3774,-1.1285 h 0.8214 v -0.2516 h -1.6169 v 0.2516 h 0.5106 c -0.0925,0.4292 -0.2479,0.8621 -0.2997,0.9842 -0.0592,0.1369 -0.1073,0.2368 -0.1665,0.2516 0.0296,0.0703 0.074,0.1998 0.0851,0.2553 0,-0.0037 0,-0.0074 0.0037,-0.0111 v 0.0148 c 0.0851,-0.0518 0.2183,-0.0925 1.2395,-0.3182 0.0259,0.0888 0.0481,0.1739 0.0666,0.2405 z m 0.777,-1.9203 c 0.0074,-0.259 0.0111,-0.5254 0.0111,-0.7881 h -0.2701 c 0,0.2627 0,0.5291 -0.0111,0.7881 h -0.5254 v 0.2627 h 0.5143 c -0.0444,0.8399 -0.1924,1.6058 -0.6919,2.0646 0.0703,0.0407 0.1665,0.1332001 0.2146,0.1998001 0.5402,-0.5180001 0.6956,-1.3542001 0.7474,-2.2644001 h 0.5513 c -0.0407,1.3098 -0.0925,1.7945 -0.1887,1.9018 -0.037,0.0481 -0.0777,0.0592 -0.1406,0.0555 -0.0814,0 -0.2738,0 -0.481,-0.0185 0.0481,0.0777 0.0777,0.1887 0.0851,0.2701001 0.1961,0.0111 0.3959,0.0148 0.5106,0.0037 0.1184,-0.0148 0.1887,-0.0444 0.2664,-0.1406001 0.1258,-0.1628 0.1702,-0.6845 0.2183,-2.1978 0,-0.037 0.0037,-0.1369 0.0037,-0.1369 z"
         style="font-weight:normal;font-family:'Noto Sans CJK SC';-inkscape-font-specification:'Noto Sans CJK SC';text-align:center;text-anchor:middle"
         id="path2125" />
      <path
         d="m 81.400384,9.0722999 h 0.2479 l 1.1063,-3.5964001 h -0.2442 z"
         style="font-weight:normal;font-family:'Noto Sans CJK SC';-inkscape-font-specification:'Noto Sans CJK SC';text-align:center;text-anchor:middle"
         id="path2127" />
      <path
         d="m 83.790585,5.3204998 c -0.1887,0.5587 -0.5069,1.11 -0.8436,1.4689 0.0444,0.0629 0.1221,0.2035 0.148,0.2701 0.1036,-0.1221 0.2109,-0.2553 0.3108,-0.4033 v 2.0350001 h 0.2553 V 6.2417998 c 0.1443,-0.2664 0.2738,-0.555 0.3811,-0.8436 z m 0.4921,2.4235 h 0.7252 v 0.6401 c 0,0.0444 -0.0185,0.0555 -0.074,0.0592 -0.0592,0.0037 -0.259,0.0037 -0.4847,-0.0037 0.0407,0.074 0.0777,0.1665 0.0925,0.2405001 0.2849,0 0.4736,0 0.5883,-0.037 0.1147,-0.037 0.148,-0.1073001 0.148,-0.2516001 v -0.6475 h 0.6993 v -0.2257 h -1.6946 z m -0.3219,-0.1295 h 0.2405 v -0.37 h 1.8648 v 0.3737 h 0.2479 v -0.6031 h -2.3532 z m 1.7834,-1.0286 h -1.2062 v -0.3071 h 1.2062 z m -1.4578,-0.5069 v 0.7067 h 1.7242 v -0.7067 z m 1.0471,-0.4329 c -0.0407,-0.1036 -0.1184,-0.2479 -0.1924,-0.3515 l -0.2442,0.074 c 0.0518,0.0851 0.0999,0.185 0.1406,0.2775 h -1.0212 v 0.2331 h 2.3014 v -0.2331 z"
         style="font-weight:normal;font-family:'Noto Sans CJK SC';-inkscape-font-specification:'Noto Sans CJK SC';text-align:center;text-anchor:middle"
         id="path2129" />
      <path
         d="m 88.641285,8.2397998 v -1.4171 h 1.1988 v -0.2701 h -1.1988 v -1.2247 h -0.2849 v 2.9119 h -0.8584 v -2.1127 h -0.2812 v 2.1127 h -0.5106 v 0.2701 h 3.3004 v -0.2701 z"
         style="font-weight:normal;font-family:'Noto Sans CJK SC';-inkscape-font-specification:'Noto Sans CJK SC';text-align:center;text-anchor:middle"
         id="path2131" />
    </g>
    <g
       aria-label="分析命令行"
       id="text1452-2"
       style="font-weight:500;font-size:3.7px;line-height:1.25;font-family:Poppins;-inkscape-font-specification:'Poppins, Medium';letter-spacing:0;stroke-width:0.26">
      <path
         d="m 73.762188,33.304298 c 0.3108,-0.333 0.592,-0.7659 0.7807,-1.2358 l -0.2923,-0.0814 c -0.2146,0.5624 -0.5883,1.073 -1.0286,1.3912 0.0703,0.0518 0.185,0.1554 0.2368,0.2109 0.0962,-0.0814 0.1961,-0.1702 0.2886,-0.2701 v 0.2553 h 0.7104 c -0.0851,0.6216 -0.2886,1.2062 -1.1581,1.4985 0.0592,0.0518 0.1369,0.1628 0.1739,0.2331 0.9287,-0.3404 1.1729,-1.0027 1.2728,-1.7316 h 1.0027 c -0.0444,0.9176 -0.0962,1.2802 -0.1887,1.3727 -0.0407,0.037 -0.0814,0.0481 -0.1591,0.0481 -0.0888,0 -0.3108,-0.0037 -0.5513,-0.0259 0.0518,0.0777 0.0851,0.1924 0.0888,0.2738 0.2294,0.0148 0.4588,0.0185 0.5809,0.0074 0.1295,-0.0074 0.2072,-0.037 0.2886,-0.1295 0.1258,-0.1406 0.1739,-0.5624 0.2257,-1.6835 0.0037,-0.037 0.0074,-0.1332 0.0074,-0.1332 z m 1.5207,-1.221 c 0.259,0.5439 0.6993,1.1359 1.0841,1.4726 0.0518,-0.074 0.148,-0.1776 0.222,-0.2331 -0.3848,-0.2886 -0.8288,-0.8436 -1.0582,-1.3431 z"
         style="font-weight:normal;font-family:'Noto Sans CJK SC';-inkscape-font-specification:'Noto Sans CJK SC';text-align:center;text-anchor:middle"
         id="path2228" />
      <path
         d="m 78.309488,33.837098 c -0.074,-0.111 -0.3811,-0.5254 -0.5106,-0.6808 v -0.1887 h 0.5402 v -0.2627 h -0.5402 v -0.7918 h -0.2664 v 0.7918 h -0.5513 v 0.2627 h 0.5217 c -0.1221,0.5069 -0.3774,1.0841 -0.6216,1.3912 0.0444,0.0666 0.1147,0.1739 0.1443,0.2479 0.1887,-0.2479 0.37,-0.6475 0.5069,-1.0619 v 1.7464 h 0.2664 v -1.7945 c 0.1258,0.1961 0.2701,0.4292 0.333,0.5587 z m 1.961,-0.666 h -1.48 v -0.6586 c 0.444,-0.0814 0.925,-0.1998 1.2691,-0.3404 l -0.2331,-0.2146 c -0.2997,0.1369 -0.8288,0.2775 -1.295,0.3626 v 1.1322 c 0,0.5143 -0.0333,1.2025 -0.3663,1.6946 0.0629,0.0222 0.1776,0.0962 0.2257,0.1406 0.3478,-0.5106 0.3996,-1.2839 0.3996,-1.8352 v -0.0185 h 0.6734 v 1.8611 h 0.2701 v -1.8611 h 0.5365 z"
         style="font-weight:normal;font-family:'Noto Sans CJK SC';-inkscape-font-specification:'Noto Sans CJK SC';text-align:center;text-anchor:middle"
         id="path2230" />
      <path
         d="m 81.794888,33.685398 v 0.7696 h -0.6105 v -0.7696 z m 0.259,-0.2442 h -1.1248 v 1.5688 h 0.2553 v -0.3108 h 0.8695 z m 1.6317,-0.0037 h -1.2469 v 1.8611 h 0.2701 v -1.6095 h 0.7104 v 0.7844 c 0,0.0481 -0.0148,0.0629 -0.0703,0.0666 -0.0518,0 -0.2294,0.0037 -0.4366,-0.0037 0.0333,0.074 0.0703,0.1776 0.0814,0.2553 0.2812,0 0.4551,0 0.5587,-0.0481 0.1036,-0.0444 0.1332,-0.1221 0.1332,-0.2664 z m -2.109,-0.5513 c 0.2775,-0.1702 0.5328,-0.3737 0.7326,-0.5883 0.1924,0.2183 0.4329,0.4181 0.703,0.5883 z m 0.74,-1.0138 c -0.3441,0.4921 -1.0508,0.9583 -1.7279,1.1396 0.0592,0.074 0.1221,0.1887 0.1554,0.2664 0.2701,-0.0851 0.5439,-0.2183 0.8029,-0.3737 v 0.2331 h 1.4689 v -0.2516 c 0.2553,0.1591 0.5291,0.2923 0.7955,0.3737 0.0481,-0.0777 0.1332,-0.1998 0.1998,-0.259 -0.5846,-0.1517 -1.2062,-0.5106 -1.5429,-0.888 0.0259,-0.0259 0.0407,-0.0518 0.0629,-0.0814 z"
         style="font-weight:normal;font-family:'Noto Sans CJK SC';-inkscape-font-specification:'Noto Sans CJK SC';text-align:center;text-anchor:middle"
         id="path2232" />
      <path
         d="m 87.100688,33.596598 -0.0481,0.0148 h -2.2755 v 0.2664 h 2.0017 c -0.2109,0.2183 -0.481,0.4884 -0.7326,0.7289 -0.1924,-0.1258 -0.3885,-0.2553 -0.5624,-0.3552 l -0.1961,0.1961 c 0.407,0.2479 0.9324,0.6216 1.184,0.8658 l 0.2109,-0.2294 c -0.1073,-0.0925 -0.2516,-0.2072 -0.4107,-0.3219 0.3552,-0.3478 0.7548,-0.7511 1.0286,-1.0397 z m -0.703,-0.2553 c -0.1147,-0.1554 -0.37,-0.3885 -0.5698,-0.5476 l -0.1961,0.1554 c 0.2035,0.1665 0.4477,0.407 0.5587,0.5698 z m -0.3663,-1.4393 c -0.3811,0.5254 -1.073,1.0138 -1.739,1.295 0.074,0.0666 0.1517,0.1628 0.1961,0.2294 0.5513,-0.2553 1.1063,-0.6364 1.5244,-1.0767 0.4144,0.4255 1.0249,0.8436 1.517,1.0693 0.0481,-0.074 0.1369,-0.1887 0.2035,-0.2479 -0.5217,-0.1998 -1.1692,-0.6142 -1.5503,-1.0101 0.0333,-0.0444 0.0666,-0.0851 0.0999,-0.1258 z"
         style="font-weight:normal;font-family:'Noto Sans CJK SC';-inkscape-font-specification:'Noto Sans CJK SC';text-align:center;text-anchor:middle"
         id="path2234" />
      <path
         d="m 91.263188,32.138798 h -1.8056 v 0.259 h 1.8056 z m -2.4235,-0.2257 c -0.185,0.2627 -0.5402,0.5957 -0.8473,0.8029 0.0481,0.0518 0.1221,0.1591 0.1628,0.2183 0.3293,-0.2331 0.7067,-0.592 0.9472,-0.9176 z m 0.1517,0.7881 c -0.2553,0.4181 -0.6549,0.8436 -1.036,1.1137 0.0555,0.0555 0.1517,0.1739 0.1924,0.2294 0.1369,-0.1073 0.2775,-0.2405 0.4181,-0.3848 v 1.6428 h 0.2738 v -1.9462 c 0.1517,-0.1813 0.2923,-0.37 0.407,-0.5587 z m 2.3791,0.4477 h -2.072 v 0.2627 h 1.2358 v 1.5244 c 0,0.0629 -0.0222,0.0777 -0.0925,0.0814 -0.0703,0.0037 -0.3145,0.0037 -0.5772,-0.0037 0.0407,0.0777 0.0777,0.1924 0.0888,0.2664 0.3626,0 0.5698,0 0.6956,-0.0407 0.1221,-0.0444 0.1628,-0.1295 0.1628,-0.2997 v -1.5281 h 0.5587 z"
         style="font-weight:normal;font-family:'Noto Sans CJK SC';-inkscape-font-specification:'Noto Sans CJK SC';text-align:center;text-anchor:middle"
         id="path2236" />
    </g>
    <g
       aria-label="检索并处理"
       id="text1452-2-1"
       style="font-weight:500;font-size:3.7px;line-height:1.25;font-family:Poppins;-inkscape-font-specification:'Poppins, Medium';letter-spacing:0;stroke-width:0.26">
      <path
         d="m 143.7803,66.8772 c -0.2442,0.5217 -0.6845,0.9879 -1.1433,1.2765 0.0518,0.0481 0.1295,0.1665 0.1628,0.2183 0.3774,-0.259 0.7437,-0.629 1.0175,-1.0508 0.2849,0.37 0.7067,0.7659 1.0804,1.0175 0.0296,-0.074 0.0888,-0.185 0.1406,-0.2479 -0.3774,-0.2257 -0.8325,-0.6327 -1.0915,-0.9879 0.0259,-0.0481 0.0518,-0.0925 0.074,-0.1369 z m 0.6771,1.1692 h -1.2432 v 0.2368 h 1.2432 z m -0.4218,1.3801 c -0.0185,-0.2331 -0.0888,-0.592 -0.1554,-0.8732 l -0.2183,0.0296 c 0.0666,0.2812 0.1295,0.6475 0.148,0.8843 z m -1.0878,-0.74 c 0.111,0.2812 0.2072,0.6438 0.2405,0.888 l 0.2257,-0.0629 c -0.0333,-0.2405 -0.1369,-0.6031 -0.2479,-0.8806 z m -0.1295,-0.0074 c -0.0592,-0.1073 -0.3182,-0.5254 -0.4144,-0.6623 v -0.1591 h 0.3848 v -0.2553 h -0.3848 v -0.6993 h -0.2553 v 0.6993 h -0.4736 v 0.2553 h 0.4477 c -0.0962,0.4884 -0.3034,1.0582 -0.5106,1.3616 0.0481,0.0629 0.111,0.185 0.1406,0.2627 0.1443,-0.2294 0.2886,-0.5883 0.3959,-0.9694 v 1.7686 h 0.2553 V 68.372 c 0.0962,0.1776 0.2035,0.3885 0.2479,0.5032 z m 1.7649,-0.1258 c -0.1258,0.3959 -0.3626,0.9583 -0.555,1.3098 h -1.2765 v 0.2442 h 2.1867 v -0.2442 h -0.6808 c 0.1924,-0.3478 0.4107,-0.8473 0.5698,-1.2432 z"
         style="font-weight:normal;font-family:'Noto Sans CJK SC';-inkscape-font-specification:'Noto Sans CJK SC';text-align:center;text-anchor:middle"
         id="path2239" />
      <path
         d="m 146.2556,69.4894 c -0.2035,0.1998 -0.5328,0.407 -0.8362,0.5402 0.0629,0.0444 0.1665,0.1332 0.2109,0.1813 0.2923,-0.148 0.6401,-0.3922 0.8806,-0.6253 z m 1.8685,-0.2516 c 0.0999,0.1073 0.185,0.2072 0.2442,0.2886 l 0.2072,-0.1443 c -0.1554,-0.1998 -0.4847,-0.5106 -0.7437,-0.7215 l -0.1961,0.1221 c 0.0962,0.0777 0.1998,0.1739 0.2997,0.2701 l -1.6095,0.0851 c 0.5143,-0.1924 1.036,-0.444 1.5355,-0.7437 l -0.1924,-0.1665 c -0.1628,0.1036 -0.3404,0.2072 -0.518,0.2997 l -0.8251,0.0481 c 0.2553,-0.1221 0.5106,-0.2738 0.74,-0.4403 l -0.111,-0.0851 h 1.406 v 0.4514 h 0.2701 v -0.6882 h -1.4615 v -0.3441 h 1.4134 v -0.2405 h -1.4134 v -0.3256 h -0.2812 v 0.3256 h -1.4134 v 0.2405 h 1.4134 v 0.3441 h -1.4504 v 0.6882 h 0.259 v -0.4514 h 1.0952 c -0.2627,0.2035 -0.592,0.3811 -0.6919,0.4292 -0.1073,0.0555 -0.1924,0.0888 -0.2664,0.0999 0.0259,0.0629 0.0629,0.1887 0.074,0.2368 0.0592,-0.0222 0.1591,-0.037 0.8399,-0.0814 -0.3034,0.148 -0.5661,0.259 -0.6808,0.2997 -0.2146,0.0888 -0.3774,0.1406 -0.4995,0.1554 0.0296,0.0629 0.0629,0.1887 0.074,0.2368 0.0999,-0.0296 0.2405,-0.0444 1.3098,-0.1147 v 0.6438 c 0,0.0444 -0.0148,0.0555 -0.0777,0.0592 -0.0555,0.0037 -0.2516,0.0037 -0.4773,-0.0037 0.0407,0.074 0.0851,0.1739 0.0999,0.2553 0.2701,0 0.4514,-0.0037 0.5698,-0.0444 0.1184,-0.0444 0.1517,-0.1147 0.1517,-0.259 v -0.666 z m -0.6068,0.37 c 0.3145,0.1702 0.7104,0.4255 0.8991,0.592 l 0.2183,-0.1554 c -0.2072,-0.1702 -0.6031,-0.4144 -0.9102,-0.5735 z"
         style="font-weight:normal;font-family:'Noto Sans CJK SC';-inkscape-font-specification:'Noto Sans CJK SC';text-align:center;text-anchor:middle"
         id="path2241" />
      <path
         d="m 150.3404,67.5432 c -0.0629,-0.1776 -0.2331,-0.444 -0.3922,-0.6438 l -0.2516,0.1073 c 0.1554,0.2035 0.3182,0.4773 0.3774,0.6549 z m -0.1147,1.1803 V 68.6347 67.928 h 1.0212 v 0.7955 z m 2.1497,0 h -0.8436 V 67.928 h 0.7289 v -0.2627 h -0.8288 c 0.1184,-0.1998 0.2442,-0.4551 0.3552,-0.6771 l -0.3108,-0.0925 c -0.0777,0.2331 -0.2146,0.5439 -0.3404,0.7696 h -1.9092 v 0.2627 h 0.7178 v 0.703 0.0925 h -0.8547 v 0.2664 h 0.8325 c -0.0555,0.407 -0.2405,0.8029 -0.8251,1.0989 0.0592,0.0518 0.1554,0.1554 0.1961,0.222 0.6697,-0.3441 0.8621,-0.8288 0.9139,-1.3209 h 1.0397 v 1.295 h 0.2849 v -1.295 h 0.8436 z"
         style="font-weight:normal;font-family:'Noto Sans CJK SC';-inkscape-font-specification:'Noto Sans CJK SC';text-align:center;text-anchor:middle"
         id="path2243" />
      <path
         d="m 155.143,68.0834 c 0.2516,0.2886 0.518,0.6364 0.6475,0.8584 l 0.2405,-0.148 c -0.1628,-0.2627 -0.5106,-0.6771 -0.7955,-0.9768 l -0.0925,0.0481 v -0.9546 h -0.2886 v 2.7047 h 0.2886 z m -0.9842,-0.3404 c -0.0703,0.518 -0.1961,0.9398 -0.3737,1.2876 -0.148,-0.2516 -0.2738,-0.5698 -0.3663,-0.9768 0.037,-0.0999 0.0703,-0.2072 0.0999,-0.3108 z m 0.1258,-0.2664 -0.0518,0.0111 h -0.6475 c 0.0407,-0.1628 0.0777,-0.3293 0.1036,-0.4958 l -0.2849,-0.074 c -0.0999,0.7215 -0.3256,1.4171 -0.6179,1.8019 0.0703,0.0333 0.1702,0.1073 0.222,0.1517 0.0962,-0.1295 0.185,-0.2812 0.2664,-0.4551 0.0962,0.3515 0.222,0.6364 0.3626,0.8621 -0.2405,0.3626 -0.5476,0.6179 -0.9139,0.7955 0.0666,0.0407 0.1739,0.1517 0.222,0.2109 0.3367,-0.1739 0.629,-0.4218 0.8695,-0.7622 0.444,0.5328 1.0397,0.6475 1.6687,0.6475 h 0.5402 c 0.0148,-0.0777 0.0666,-0.2146 0.111,-0.2849 -0.1443,0.0037 -0.5254,0.0037 -0.6364,0.0037 -0.5661,0 -1.1174,-0.0999 -1.5355,-0.6068 0.2479,-0.444 0.4218,-1.0175 0.5032,-1.7501 z"
         style="font-weight:normal;font-family:'Noto Sans CJK SC';-inkscape-font-specification:'Noto Sans CJK SC';text-align:center;text-anchor:middle"
         id="path2245" />
      <path
         d="m 157.585,69.2563 -0.4033,0.1332 v -0.9139 h 0.3737 v -0.259 h -0.3737 v -0.8029 h 0.4255 v -0.259 h -1.147 v 0.259 h 0.4588 v 0.8029 h -0.4218 v 0.259 h 0.4218 v 0.9953 c -0.1887,0.0629 -0.3589,0.1147 -0.4958,0.1554 l 0.0629,0.2775 c 0.3293,-0.1073 0.7511,-0.2516 1.147,-0.3848 z m 0.4551,-1.2506 h 0.5624 v 0.4736 h -0.5624 z m 0,-0.6919 h 0.5624 V 67.78 h -0.5624 z m 1.3653,0.4662 h -0.5661 v -0.4662 h 0.5661 z m 0,0.6993 h -0.5661 v -0.4736 h 0.5661 z m -0.5439,1.4319 v -0.5069 h 0.8621 v -0.2516 h -0.8621 v -0.4329 h 0.8066 v -1.6465 h -1.8796 v 1.6465 h 0.7955 v 0.4329 h -0.8399 v 0.2516 h 0.8399 v 0.5069 h -1.1248 v 0.2516 h 2.3828 v -0.2516 z"
         style="font-weight:normal;font-family:'Noto Sans CJK SC';-inkscape-font-specification:'Noto Sans CJK SC';text-align:center;text-anchor:middle"
         id="path2247" />
    </g>
    <g
       aria-label="$/DIR/rules/
rules.xml 是否存在？"
       id="text1492"
       style="font-weight:500;font-size:3.7px;line-height:1;font-family:Poppins;-inkscape-font-specification:'Poppins, Medium';letter-spacing:0;stroke-width:0.26">
      <path
         d="m 73.047703,66.30994 q 0,0.1776 -0.0888,0.3404 -0.0888,0.1591 -0.2627,0.2664 -0.1702,0.1073 -0.4107,0.1221 v 0.2997 h -0.1998 v -0.2997 q -0.3367,-0.0296 -0.5476,-0.2146 -0.2109,-0.1887 -0.2146,-0.4773 h 0.3589 q 0.0148,0.1554 0.1147,0.2701 0.1036,0.1147 0.2886,0.1443 v -0.925 q -0.2479,-0.0629 -0.3996,-0.1295 -0.1517,-0.0666 -0.259,-0.2072 -0.1073,-0.1406 -0.1073,-0.3774 0,-0.2997 0.2072,-0.4958 0.2109,-0.1961 0.5587,-0.2183 v -0.3071 h 0.1998 v 0.3071 q 0.3145,0.0259 0.5069,0.2035 0.1924,0.1739 0.222,0.4551 h -0.3589 q -0.0185,-0.1295 -0.1147,-0.2331 -0.0962,-0.1073 -0.2553,-0.1406 v 0.9028 q 0.2442,0.0629 0.3959,0.1295 0.1554,0.0629 0.259,0.2035 0.1073,0.1406 0.1073,0.3811 z m -1.3838,-1.2062 q 0,0.1813 0.1073,0.2775 0.1073,0.0962 0.3145,0.1591 v -0.8547 q -0.1924,0.0185 -0.3071,0.1258 -0.1147,0.1036 -0.1147,0.2923 z m 0.6216,1.6613 q 0.1998,-0.0222 0.3108,-0.1443 0.1147,-0.1221 0.1147,-0.2923 0,-0.1813 -0.111,-0.2775 -0.111,-0.0999 -0.3145,-0.1591 z"
         style="text-align:center;text-anchor:middle"
         id="path2256" />
      <path
         d="m 74.942102,63.53124 -1.0138,4.1144 h -0.333 l 1.0101,-4.1144 z"
         style="text-align:center;text-anchor:middle"
         id="path2258" />
      <path
         d="m 76.248201,64.43774 q 0.4218,0 0.7289,0.1591 0.3108,0.1554 0.4736,0.4477 0.1665,0.2923 0.1665,0.6882 0,0.3959 -0.1665,0.6882 -0.1628,0.2886 -0.4736,0.444 -0.3071,0.1517 -0.7289,0.1517 h -0.8029 v -2.5789 z m 0,2.3014 q 0.4995,0 0.7622,-0.2627 0.2627,-0.2664 0.2627,-0.7437 0,-0.481 -0.2664,-0.7511 -0.2627,-0.2701 -0.7585,-0.2701 h -0.4662 v 2.0276 z"
         style="text-align:center;text-anchor:middle"
         id="path2260" />
      <path
         d="m 78.397904,64.43774 v 2.5789 h -0.3367 v -2.5789 z"
         style="text-align:center;text-anchor:middle"
         id="path2262" />
      <path
         d="m 80.329305,67.01664 -0.6142,-1.0545 h -0.407 v 1.0545 h -0.3367 v -2.5789 h 0.8325 q 0.2923,0 0.4921,0.0999 0.2035,0.0999 0.3034,0.2701 0.0999,0.1702 0.0999,0.3885 0,0.2664 -0.1554,0.4699 -0.1517,0.2035 -0.4588,0.2701 l 0.6475,1.0804 z m -1.0212,-1.3246 h 0.4958 q 0.2738,0 0.4107,-0.1332 0.1369,-0.1369 0.1369,-0.3626 0,-0.2294 -0.1369,-0.3552 -0.1332,-0.1258 -0.4107,-0.1258 h -0.4958 z"
         style="text-align:center;text-anchor:middle"
         id="path2264" />
      <path
         d="m 82.479004,63.53124 -1.0138,4.1144 h -0.333 l 1.0101,-4.1144 z"
         style="text-align:center;text-anchor:middle"
         id="path2266" />
      <path
         d="m 83.318903,65.31834 q 0.0888,-0.1739 0.2516,-0.2701 0.1665,-0.0962 0.4033,-0.0962 v 0.3478 h -0.0888 q -0.5661,0 -0.5661,0.6142 v 1.1026 h -0.3367 v -2.0276 h 0.3367 z"
         style="text-align:center;text-anchor:middle"
         id="path2268" />
      <path
         d="m 86.160501,64.98904 v 2.0276 h -0.3367 v -0.2997 q -0.0962,0.1554 -0.2701,0.2442 -0.1702,0.0851 -0.3774,0.0851 -0.2368,0 -0.4255,-0.0962 -0.1887,-0.0999 -0.2997,-0.296 -0.1073,-0.1961 -0.1073,-0.4773 v -1.1877 h 0.333 v 1.1433 q 0,0.2997 0.1517,0.4625 0.1517,0.1591 0.4144,0.1591 0.2701,0 0.4255,-0.1665 0.1554,-0.1665 0.1554,-0.4847 v -1.1137 z"
         style="text-align:center;text-anchor:middle"
         id="path2270" />
      <path
         d="m 87.066998,64.27864 v 2.738 h -0.3367 v -2.738 z"
         style="text-align:center;text-anchor:middle"
         id="path2272" />
      <path
         d="m 89.4905,65.92514 q 0,0.0962 -0.0111,0.2035 h -1.6206 q 0.0185,0.2997 0.2035,0.4699 0.1887,0.1665 0.4551,0.1665 0.2183,0 0.3626,-0.0999 0.148,-0.1036 0.2072,-0.2738 h 0.3626 q -0.0814,0.2923 -0.3256,0.4773 -0.2442,0.1813 -0.6068,0.1813 -0.2886,0 -0.518,-0.1295 -0.2257,-0.1295 -0.3552,-0.3663 -0.1295,-0.2405 -0.1295,-0.555 0,-0.3145 0.1258,-0.5513 0.1258,-0.2368 0.3515,-0.3626 0.2294,-0.1295 0.5254,-0.1295 0.2886,0 0.5106,0.1258 0.222,0.1258 0.3404,0.3478 0.1221,0.2183 0.1221,0.4958 z m -0.3478,-0.0703 q 0,-0.1924 -0.0851,-0.3293 -0.0851,-0.1406 -0.2331,-0.2109 -0.1443,-0.074 -0.3219,-0.074 -0.2553,0 -0.4366,0.1628 -0.1776,0.1628 -0.2035,0.4514 z"
         style="text-align:center;text-anchor:middle"
         id="path2274" />
      <path
         d="m 90.652302,67.04994 q -0.2331,0 -0.4181,-0.0777 -0.185,-0.0814 -0.2923,-0.222 -0.1073,-0.1443 -0.1184,-0.3293 h 0.3478 q 0.0148,0.1517 0.1406,0.2479 0.1295,0.0962 0.3367,0.0962 0.1924,0 0.3034,-0.0851 0.111,-0.0851 0.111,-0.2146 0,-0.1332 -0.1184,-0.1961 -0.1184,-0.0666 -0.3663,-0.1295 -0.2257,-0.0592 -0.37,-0.1184 -0.1406,-0.0629 -0.2442,-0.1813 -0.0999,-0.1221 -0.0999,-0.3182 0,-0.1554 0.0925,-0.2849 0.0925,-0.1295 0.2627,-0.2035 0.1702,-0.0777 0.3885,-0.0777 0.3367,0 0.5439,0.1702 0.2072,0.1702 0.222,0.4662 h -0.3367 q -0.0111,-0.1591 -0.1295,-0.2553 -0.1147,-0.0962 -0.3108,-0.0962 -0.1813,0 -0.2886,0.0777 -0.1073,0.0777 -0.1073,0.2035 0,0.0999 0.0629,0.1665 0.0666,0.0629 0.1628,0.1036 0.0999,0.037 0.2738,0.0851 0.2183,0.0592 0.3552,0.1184 0.1369,0.0555 0.2331,0.1702 0.0999,0.1147 0.1036,0.2997 0,0.1665 -0.0925,0.2997 -0.0925,0.1332 -0.2627,0.2109 -0.1665,0.074 -0.3848,0.074 z"
         style="text-align:center;text-anchor:middle"
         id="path2276" />
      <path
         d="m 93.123901,63.53124 -1.0138,4.1144 h -0.333 l 1.0101,-4.1144 z"
         style="text-align:center;text-anchor:middle"
         id="path2278" />
      <path
         d="m 65.020552,69.81834 q 0.0888,-0.1739 0.2516,-0.2701 0.1665,-0.0962 0.4033,-0.0962 v 0.3478 h -0.0888 q -0.5661,0 -0.5661,0.6142 v 1.1026 h -0.3367 v -2.0276 h 0.3367 z"
         style="text-align:center;text-anchor:middle"
         id="path2280" />
      <path
         d="m 67.862149,69.48904 v 2.0276 h -0.3367 v -0.2997 q -0.0962,0.1554 -0.2701,0.2442 -0.1702,0.0851 -0.3774,0.0851 -0.2368,0 -0.4255,-0.0962 -0.1887,-0.0999 -0.2997,-0.296 -0.1073,-0.1961 -0.1073,-0.4773 v -1.1877 h 0.333 v 1.1433 q 0,0.2997 0.1517,0.4625 0.1517,0.1591 0.4144,0.1591 0.2701,0 0.4255,-0.1665 0.1554,-0.1665 0.1554,-0.4847 v -1.1137 z"
         style="text-align:center;text-anchor:middle"
         id="path2282" />
      <path
         d="m 68.768647,68.77864 v 2.738 h -0.3367 v -2.738 z"
         style="text-align:center;text-anchor:middle"
         id="path2284" />
      <path
         d="m 71.192148,70.42514 q 0,0.0962 -0.0111,0.2035 h -1.6206 q 0.0185,0.2997 0.2035,0.4699 0.1887,0.1665 0.4551,0.1665 0.2183,0 0.3626,-0.0999 0.148,-0.1036 0.2072,-0.2738 h 0.3626 q -0.0814,0.2923 -0.3256,0.4773 -0.2442,0.1813 -0.6068,0.1813 -0.2886,0 -0.518,-0.1295 -0.2257,-0.1295 -0.3552,-0.3663 -0.1295,-0.2405 -0.1295,-0.555 0,-0.3145 0.1258,-0.5513 0.1258,-0.2368 0.3515,-0.3626 0.2294,-0.1295 0.5254,-0.1295 0.2886,0 0.5106,0.1258 0.222,0.1258 0.3404,0.3478 0.1221,0.2183 0.1221,0.4958 z m -0.3478,-0.0703 q 0,-0.1924 -0.0851,-0.3293 -0.0851,-0.1406 -0.2331,-0.2109 -0.1443,-0.074 -0.3219,-0.074 -0.2553,0 -0.4366,0.1628 -0.1776,0.1628 -0.2035,0.4514 z"
         style="text-align:center;text-anchor:middle"
         id="path2286" />
      <path
         d="m 72.353951,71.54994 q -0.2331,0 -0.4181,-0.0777 -0.185,-0.0814 -0.2923,-0.222 -0.1073,-0.1443 -0.1184,-0.3293 h 0.3478 q 0.0148,0.1517 0.1406,0.2479 0.1295,0.0962 0.3367,0.0962 0.1924,0 0.3034,-0.0851 0.111,-0.0851 0.111,-0.2146 0,-0.1332 -0.1184,-0.1961 -0.1184,-0.0666 -0.3663,-0.1295 -0.2257,-0.0592 -0.37,-0.1184 -0.1406,-0.0629 -0.2442,-0.1813 -0.0999,-0.1221 -0.0999,-0.3182 0,-0.1554 0.0925,-0.2849 0.0925,-0.1295 0.2627,-0.2035 0.1702,-0.0777 0.3885,-0.0777 0.3367,0 0.5439,0.1702 0.2072,0.1702 0.222,0.4662 h -0.3367 q -0.0111,-0.1591 -0.1295,-0.2553 -0.1147,-0.0962 -0.3108,-0.0962 -0.1813,0 -0.2886,0.0777 -0.1073,0.0777 -0.1073,0.2035 0,0.0999 0.0629,0.1665 0.0666,0.0629 0.1628,0.1036 0.0999,0.037 0.2738,0.0851 0.2183,0.0592 0.3552,0.1184 0.1369,0.0555 0.2331,0.1702 0.0999,0.1147 0.1036,0.2997 0,0.1665 -0.0925,0.2997 -0.0925,0.1332 -0.2627,0.2109 -0.1665,0.074 -0.3848,0.074 z"
         style="text-align:center;text-anchor:middle"
         id="path2288" />
      <path
         d="m 73.674849,71.53884 q -0.0962,0 -0.1628,-0.0666 -0.0666,-0.0666 -0.0666,-0.1628 0,-0.0962 0.0666,-0.1628 0.0666,-0.0666 0.1628,-0.0666 0.0925,0 0.1554,0.0666 0.0666,0.0666 0.0666,0.1628 0,0.0962 -0.0666,0.1628 -0.0629,0.0666 -0.1554,0.0666 z"
         style="text-align:center;text-anchor:middle"
         id="path2290" />
      <path
         d="m 75.402745,71.51664 -0.481,-0.7548 -0.4625,0.7548 h -0.3515 l 0.6549,-1.0064 -0.6549,-1.0212 h 0.3811 l 0.481,0.7511 0.4588,-0.7511 h 0.3515 l -0.6512,1.0027 0.6549,1.0249 z"
         style="text-align:center;text-anchor:middle"
         id="path2292" />
      <path
         d="m 78.555146,69.45204 q 0.2368,0 0.4218,0.0999 0.185,0.0962 0.2923,0.2923 0.1073,0.1961 0.1073,0.4773 v 1.1951 h -0.333 v -1.147 q 0,-0.3034 -0.1517,-0.4625 -0.148,-0.1628 -0.4033,-0.1628 -0.2627,0 -0.4181,0.1702 -0.1554,0.1665 -0.1554,0.4847 v 1.1174 h -0.333 v -1.147 q 0,-0.3034 -0.1517,-0.4625 -0.148,-0.1628 -0.4033,-0.1628 -0.2627,0 -0.4181,0.1702 -0.1554,0.1665 -0.1554,0.4847 v 1.1174 h -0.3367 v -2.0276 h 0.3367 v 0.2923 q 0.0999,-0.1591 0.2664,-0.2442 0.1702,-0.0851 0.3737,-0.0851 0.2553,0 0.4514,0.1147 0.1961,0.1147 0.2923,0.3367 0.0851,-0.2146 0.2812,-0.333 0.1961,-0.1184 0.4366,-0.1184 z"
         style="text-align:center;text-anchor:middle"
         id="path2294" />
      <path
         d="m 80.264549,68.77864 v 2.738 h -0.3367 v -2.738 z"
         style="text-align:center;text-anchor:middle"
         id="path2296" />
      <path
         d="m 84.33825,69.08204 h -1.9129 v -0.2997 h 1.9129 z m 0,0.4995 h -1.9129 v -0.2997 h 1.9129 z m 0.2738,-1.0101 h -2.4568 v 1.221 h 2.4568 z m -1.0545,2.3717 h 1.221 v -0.2442 h -1.221 v -0.4107 h 1.4615 v -0.2479 h -3.2486 v 0.2479 h 1.517 v 1.1137 c -0.3182,-0.0851 -0.555,-0.2553 -0.6993,-0.5883 0.037,-0.1184 0.0703,-0.2405 0.0962,-0.37 l -0.2775,-0.037 c -0.0999,0.5402 -0.333,0.9546 -0.7178,1.2025 0.0592,0.0444 0.1665,0.148 0.2035,0.1961 0.2405,-0.1776 0.4329,-0.407 0.5772,-0.6956 0.2997,0.4995 0.7696,0.6179 1.5133,0.6179 h 1.0064 c 0.0148,-0.0814 0.0592,-0.1998 0.0962,-0.2627 -0.1887,0.0037 -0.9546,0.0037 -1.0915,0.0037 -0.1554,0 -0.3034,-0.0074 -0.4366,-0.0222 z"
         style="font-weight:normal;font-family:'Noto Sans CJK SC';-inkscape-font-specification:'Noto Sans CJK SC'"
         id="path2298" />
      <path
         d="m 86.95045,70.30674 h 0.2738 v -1.1285 c 0.0999,-0.0888 0.1924,-0.1887 0.2775,-0.2886 h 1.184 v -0.259 h -3.1857 v 0.259 h 1.6317 c -0.4255,0.4477 -1.0878,0.8066 -1.7427,1.0212 0.0592,0.0592 0.1517,0.185 0.1924,0.2479 0.4699,-0.1776 0.9583,-0.4329 1.369,-0.7474 z m 1.0619,0.3478 v 0.7215 h -1.8278 v -0.7215 z m -2.1053,1.147 h 0.2775 v -0.1776 h 1.8278 v 0.1702 h 0.2923 v -1.3838 h -2.3976 z m 1.4726,-2.368 c 0.4255,0.1739 0.9324,0.4699 1.1988,0.6845 l 0.1961,-0.2072 c -0.2701,-0.2035 -0.777,-0.4884 -1.1988,-0.6623 z"
         style="font-weight:normal;font-family:'Noto Sans CJK SC';-inkscape-font-specification:'Noto Sans CJK SC'"
         id="path2300" />
      <path
         d="m 92.400551,69.16714 v -0.2664 h -1.8907 c 0.0555,-0.1369 0.0999,-0.2738 0.1443,-0.4144 l -0.2812,-0.0666 c -0.0444,0.1591 -0.0999,0.3219 -0.1628,0.481 h -1.0212 v 0.2664 h 0.9102 c -0.2405,0.5106 -0.5772,0.9805 -1.0286,1.295 0.0444,0.0629 0.111,0.1813 0.1406,0.2479 0.1628,-0.111 0.3071,-0.2442 0.4403,-0.3848 v 1.4689 h 0.2701 v -1.7908 c 0.1887,-0.259 0.3478,-0.5402 0.4773,-0.8362 z m 0.0703,1.3616 h -0.9879 v -0.2146 c 0.2701,-0.1665 0.555,-0.3922 0.7548,-0.6105 l -0.1776,-0.1406 -0.0555,0.0185 h -1.5059 v 0.2516 h 1.2543 c -0.1628,0.1443 -0.3626,0.296 -0.5439,0.3922 v 0.3034 h -1.0212 v 0.259 h 1.0212 v 0.6808 c 0,0.0518 -0.0148,0.0666 -0.0814,0.0703 -0.0629,0.0074 -0.2849,0.0074 -0.5291,-0.0037 0.037,0.0814 0.074,0.185 0.0888,0.2627 0.3145,0 0.518,0 0.6401,-0.0407 0.1221,-0.0444 0.1554,-0.1221 0.1554,-0.2849 v -0.6845 h 0.9879 z"
         style="font-weight:normal;font-family:'Noto Sans CJK SC';-inkscape-font-specification:'Noto Sans CJK SC'"
         id="path2302" />
      <path
         d="m 95.12375,70.41404 h 0.8325 v -0.259 h -0.8325 v -0.7067 h -0.2738 v 0.7067 h -0.8288 v 0.259 h 0.8288 v 1.0397 h -0.9731 v 0.259 h 2.2237 v -0.259 h -0.9768 z m -0.9287,-1.4208 c 0.0666,-0.1665 0.1295,-0.3367 0.1776,-0.5032 l -0.2812,-0.0703 c -0.0518,0.1887 -0.1184,0.3848 -0.1961,0.5735 h -1.0101 v 0.2627 h 0.888 c -0.2294,0.4699 -0.555,0.9065 -0.9768,1.2062 0.0444,0.0592 0.1147,0.1739 0.1406,0.2479 0.1554,-0.111 0.2997,-0.2331 0.4292,-0.3737 v 1.4504 h 0.2701 v -1.776 c 0.1739,-0.2368 0.3182,-0.4884 0.4477,-0.7548 h 2.0165 v -0.2627 z"
         style="font-weight:normal;font-family:'Noto Sans CJK SC';-inkscape-font-specification:'Noto Sans CJK SC'"
         id="path2304" />
      <path
         d="m 97.062551,70.62124 h 0.3034 c -0.0999,-0.5587 0.6808,-0.6771 0.6808,-1.2432 0,-0.4144 -0.2923,-0.6771 -0.7511,-0.6771 -0.3589,0 -0.6068,0.1628 -0.8325,0.3996 l 0.1998,0.185 c 0.185,-0.2035 0.3811,-0.3071 0.5957,-0.3071 0.3145,0 0.4588,0.185 0.4588,0.4292 0,0.4218 -0.7696,0.592 -0.6549,1.2136 z m -0.1406,0.6216 c 0,0.1776 0.1369,0.2923 0.2997,0.2923 0.1628,0 0.296,-0.1147 0.296,-0.2923 0,-0.1776 -0.1332,-0.2886 -0.296,-0.2886 -0.1628,0 -0.2997,0.111 -0.2997,0.2886 z"
         style="font-weight:normal;font-family:'Noto Sans CJK SC';-inkscape-font-specification:'Noto Sans CJK SC'"
         id="path2306" />
    </g>
    <g
       aria-label="是文件或目录？"
       id="text1492-7"
       style="font-weight:500;font-size:3.7px;line-height:1;font-family:Poppins;-inkscape-font-specification:'Poppins, Medium';letter-spacing:0;stroke-width:0.26">
      <path
         d="m 72.067201,110.3654 h -1.9129 v -0.2997 h 1.9129 z m 0,0.4995 h -1.9129 v -0.2997 h 1.9129 z m 0.2738,-1.0101 h -2.4568 v 1.221 h 2.4568 z m -1.0545,2.3717 h 1.221 v -0.2442 h -1.221 v -0.4107 h 1.4615 v -0.2479 h -3.2486 v 0.2479 h 1.517 v 1.1137 c -0.3182,-0.0851 -0.555,-0.2553 -0.6993,-0.5883 0.037,-0.1184 0.0703,-0.2405 0.0962,-0.37 l -0.2775,-0.037 c -0.0999,0.5402 -0.333,0.9546 -0.7178,1.2025 0.0592,0.0444 0.1665,0.148 0.2035,0.1961 0.2405,-0.1776 0.4329,-0.407 0.5772,-0.6956 0.2997,0.4995 0.7696,0.6179 1.5133,0.6179 h 1.0064 c 0.0148,-0.0814 0.0592,-0.1998 0.0962,-0.2627 -0.1887,0.004 -0.9546,0.004 -1.0915,0.004 -0.1554,0 -0.3034,-0.007 -0.4366,-0.0222 z"
         style="font-weight:normal;font-family:'Noto Sans CJK SC';-inkscape-font-specification:'Noto Sans CJK SC';text-align:center;text-anchor:middle"
         id="path2451" />
      <path
         d="m 75.108601,110.2507 c -0.0518,-0.1554 -0.1776,-0.3922 -0.2886,-0.5661 l -0.2849,0.0814 c 0.111,0.1813 0.2294,0.4292 0.2738,0.5809 z m 0.4847,0.3737 c -0.185,0.4995 -0.4329,0.9065 -0.7622,1.2395 -0.3478,-0.3478 -0.6142,-0.7696 -0.8066,-1.2395 z m 0.8917,0 v -0.2701 h -3.3152 v 0.2701 h 0.5698 c 0.2146,0.5587 0.5069,1.0397 0.888,1.4319 -0.4033,0.3404 -0.8991,0.592 -1.5096,0.7659 0.0555,0.0629 0.1369,0.1887 0.1702,0.2553 0.6142,-0.1961 1.1248,-0.4625 1.5392,-0.8251 0.4107,0.37 0.9139,0.6401 1.517,0.8103 0.0444,-0.0777 0.1221,-0.1924 0.1887,-0.2553 -0.5883,-0.1443 -1.0878,-0.407 -1.4948,-0.7511 0.37,-0.3811 0.6549,-0.8473 0.8658,-1.4319 z"
         style="font-weight:normal;font-family:'Noto Sans CJK SC';-inkscape-font-specification:'Noto Sans CJK SC';text-align:center;text-anchor:middle"
         id="path2453" />
      <path
         d="m 77.669001,109.7179 c -0.1961,0.5587 -0.5217,1.11 -0.8658,1.4689 0.0481,0.0629 0.1295,0.2035 0.1554,0.2701 0.1147,-0.1295 0.2331,-0.2738 0.3404,-0.4329 v 2.0535 h 0.2627 v -2.479 c 0.1406,-0.2553 0.2627,-0.5291 0.3663,-0.7992 z m 2.5086,1.8204 h -1.0027 v -0.8103 h 0.8436 v -0.2701 h -0.8436 v -0.7067 h -0.2738 v 0.7067 h -0.4921 c 0.0481,-0.1665 0.0888,-0.3404 0.1221,-0.5143 l -0.259,-0.0555 c -0.0851,0.4773 -0.2368,0.9583 -0.4551,1.2617 0.0703,0.0333 0.185,0.0999 0.2368,0.1406 0.0999,-0.1554 0.1887,-0.3478 0.2664,-0.5624 h 0.5809 v 0.8103 h -1.0545 v 0.2701 h 1.0545 v 1.2765 h 0.2738 v -1.2765 h 1.0027 z"
         style="font-weight:normal;font-family:'Noto Sans CJK SC';-inkscape-font-specification:'Noto Sans CJK SC';text-align:center;text-anchor:middle"
         id="path2455" />
      <path
         d="m 83.718501,110.099 c -0.1369,-0.1221 -0.4107,-0.2812 -0.6364,-0.3811 l -0.1591,0.1702 c 0.2257,0.1073 0.4958,0.2775 0.6253,0.4033 z m -1.48,2.1238 c -0.5994,0.1258 -1.2284,0.2516 -1.628,0.3293 l 0.0518,0.2775 c 0.4292,-0.0962 1.0323,-0.2257 1.5984,-0.3478 z m -0.3885,-0.4514 h -0.7511 v -0.6401 h 0.7511 z m -1.0064,-0.8806 v 1.1174 h 1.2765 v -1.1174 z m 2.5567,-0.0629 c -0.1184,0.3848 -0.2775,0.7252 -0.4773,1.0286 -0.0925,-0.3589 -0.1554,-0.8029 -0.1924,-1.2913 h 1.0915 v -0.2701 h -1.11 c -0.0074,-0.1887 -0.0111,-0.3811 -0.0111,-0.5809 h -0.2886 c 0.0037,0.1961 0.0074,0.3885 0.0185,0.5809 h -1.8019 v 0.2701 h 1.8167 c 0.0481,0.5994 0.1295,1.147 0.259,1.5799 -0.2442,0.296 -0.5402,0.5402 -0.888,0.7252 0.0629,0.0481 0.1702,0.1554 0.2146,0.2109 0.2923,-0.1739 0.5513,-0.3848 0.7807,-0.6364 0.1665,0.3996 0.3885,0.6401 0.666,0.6401 0.2849,0 0.3885,-0.1813 0.4366,-0.814 -0.0777,-0.0259 -0.1776,-0.0888 -0.2405,-0.1554 -0.0222,0.4921 -0.0666,0.6845 -0.1702,0.6845 -0.1813,0 -0.3478,-0.2294 -0.4847,-0.6105 0.2775,-0.3663 0.4958,-0.7992 0.6549,-1.295 z"
         style="font-weight:normal;font-family:'Noto Sans CJK SC';-inkscape-font-specification:'Noto Sans CJK SC';text-align:center;text-anchor:middle"
         id="path2457" />
      <path
         d="m 84.935801,112.541 v -0.6068 h 1.9351 v 0.6068 z m 1.9351,-1.4763 v 0.6068 h -1.9351 v -0.6068 z m 0,-0.8621 v 0.5994 h -1.9351 v -0.5994 z m -2.2052,-0.2664 v 3.1265 h 0.2701 v -0.2516 h 1.9351 v 0.2516 h 0.2849 v -3.1265 z"
         style="font-weight:normal;font-family:'Noto Sans CJK SC';-inkscape-font-specification:'Noto Sans CJK SC';text-align:center;text-anchor:middle"
         id="path2459" />
      <path
         d="m 90.759601,111.431 c -0.1665,0.1665 -0.4366,0.3811 -0.666,0.5402 -0.1369,-0.1591 -0.2516,-0.3367 -0.3404,-0.5254 v -0.1073 h 1.4837 v -0.2442 h -0.5032 c 0.0333,-0.3774 0.0629,-0.8325 0.0703,-1.1803 l -0.2146,-0.0148 -0.0518,0.0111 h -2.257 v 0.2553 h 2.2237 c -0.0037,0.0999 -0.0111,0.222 -0.0148,0.3404 h -2.1016 v 0.2516 h 2.0868 c -0.0074,0.1147 -0.0148,0.2294 -0.0222,0.3367 h -2.4235 v 0.2442 h 1.4504 v 0.6734 c -0.5328,0.2183 -1.0878,0.444 -1.443,0.5772 l 0.1443,0.2442 c 0.3626,-0.1517 0.8436,-0.3589 1.2987,-0.5624 v 0.5106 c 0,0.0518 -0.0185,0.0703 -0.0814,0.074 -0.0555,0.004 -0.259,0.004 -0.4773,-0.007 0.037,0.0703 0.0814,0.1702 0.0962,0.2442 0.2849,0 0.4699,0 0.5846,-0.0407 0.1147,-0.0407 0.1517,-0.1073 0.1517,-0.2664 v -0.8695 c 0.3182,0.481 0.777,0.8399 1.3505,1.0249 0.0407,-0.0777 0.1184,-0.185 0.1813,-0.2405 -0.3996,-0.1073 -0.7474,-0.3034 -1.0249,-0.5587 0.2331,-0.1443 0.5143,-0.3515 0.7326,-0.5402 z m -2.479,0.1887 c 0.2331,0.1406 0.5291,0.3478 0.6697,0.4884 l 0.1924,-0.1887 c -0.148,-0.1406 -0.4477,-0.3367 -0.6808,-0.4625 z"
         style="font-weight:normal;font-family:'Noto Sans CJK SC';-inkscape-font-specification:'Noto Sans CJK SC';text-align:center;text-anchor:middle"
         id="path2461" />
      <path
         d="m 92.191502,111.9046 h 0.3034 c -0.0999,-0.5587 0.6808,-0.6771 0.6808,-1.2432 0,-0.4144 -0.2923,-0.6771 -0.7511,-0.6771 -0.3589,0 -0.6068,0.1628 -0.8325,0.3996 l 0.1998,0.185 c 0.185,-0.2035 0.3811,-0.3071 0.5957,-0.3071 0.3145,0 0.4588,0.185 0.4588,0.4292 0,0.4218 -0.7696,0.592 -0.6549,1.2136 z m -0.1406,0.6216 c 0,0.1776 0.1369,0.2923 0.2997,0.2923 0.1628,0 0.296,-0.1147 0.296,-0.2923 0,-0.1776 -0.1332,-0.2886 -0.296,-0.2886 -0.1628,0 -0.2997,0.111 -0.2997,0.2886 z"
         style="font-weight:normal;font-family:'Noto Sans CJK SC';-inkscape-font-specification:'Noto Sans CJK SC';text-align:center;text-anchor:middle"
         id="path2463" />
    </g>
    <g
       aria-label="创建十六进制和
mac 文件的规则"
       id="text1492-3"
       style="font-weight:500;font-size:3.7px;line-height:1;font-family:Poppins;-inkscape-font-specification:'Poppins, Medium';letter-spacing:0;stroke-width:0.26">
      <path
         d="m 70.264902,146.56385 c -0.1887,0 -0.222,-0.0259 -0.222,-0.1628 v -1.332 h 0.8029 c -0.0296,0.4477 -0.0666,0.6253 -0.1073,0.6808 -0.0296,0.0296 -0.0592,0.0333 -0.1073,0.0333 -0.0555,0 -0.1813,0 -0.3145,-0.0148 0.0333,0.0666 0.0592,0.1628 0.0666,0.2368 0.148,0.0111 0.2886,0.007 0.3626,0.004 0.0925,-0.0111 0.1554,-0.0333 0.2109,-0.0962 0.0851,-0.0925 0.1184,-0.3404 0.1554,-0.9768 0.0037,-0.0333 0.0037,-0.111 0.0037,-0.111 h -1.3394 v 1.5762 c 0,0.3219 0.111,0.4033 0.4662,0.4033 h 0.6845 c 0.3256,0 0.407,-0.1406 0.4403,-0.6512 -0.0777,-0.0148 -0.1813,-0.0592 -0.2442,-0.0999 -0.0185,0.4329 -0.0444,0.5106 -0.2146,0.5106 z m 0.1406,-3.0784 c -0.1961,0.4773 -0.5846,0.9842 -1.0508,1.3172 0.0592,0.0444 0.1554,0.1406 0.1998,0.1924 0.3626,-0.2812 0.6771,-0.6512 0.9102,-1.0508 0.2923,0.3145 0.6105,0.6956 0.777,0.9435 l 0.1961,-0.1813 c -0.1776,-0.2627 -0.5476,-0.6734 -0.851,-0.9842 0.0259,-0.0555 0.0518,-0.1036 0.074,-0.1591 z m 1.4726,0.4255 h -0.2627 v 2.0387 h 0.2627 z m 0.4551,-0.3737 v 2.9563 c 0,0.0666 -0.0296,0.0888 -0.0962,0.0925 -0.0703,0.004 -0.3034,0.007 -0.5624,-0.004 0.0407,0.074 0.0814,0.1924 0.0962,0.2627 0.3441,0.004 0.5476,-0.004 0.666,-0.0481 0.1147,-0.0444 0.1665,-0.1184 0.1665,-0.3034 v -2.9563 z"
         style="font-weight:normal;font-family:'Noto Sans CJK SC';-inkscape-font-specification:'Noto Sans CJK SC';text-align:center;text-anchor:middle"
         id="path2604" />
      <path
         d="m 75.925902,144.01825 v 0.2701 h -0.555 v -0.2701 z m 0,0.7696 h -0.555 v -0.2738 h 0.555 z m -0.814,-0.4995 h -0.9509 v 0.2257 h 0.9509 v 0.2738 h -0.7363 v 0.222 h 0.7363 v 0.2775 h -0.7622 v 0.2109 h 0.7622 v 0.2997 h -0.9176 v 0.2257 h 0.9176 v 0.3663 h 0.259 v -0.3663 h 1.0101 v -0.2257 h -1.0101 v -0.2997 h 0.8732 v -0.2109 h -0.8732 v -0.2775 h 0.8029 v -0.4958 h 0.2553 v -0.2257 h -0.2553 v -0.4884 h -0.8029 v -0.3034 h -0.259 v 0.3034 h -0.7104 v 0.2183 h 0.7104 z m -1.0878,0.4403 -0.0481,0.007 h -0.2627 c 0.1628,-0.3071 0.3589,-0.6993 0.5143,-1.0249 h -1.0397 v 0.2442 h 0.6475 c -0.1665,0.3552 -0.37,0.7548 -0.5291,1.0249 h 0.5994 c -0.0481,0.333 -0.1221,0.6216 -0.222,0.8695 -0.0962,-0.148 -0.1776,-0.3293 -0.2405,-0.5476 l -0.2035,0.0814 c 0.0888,0.2923 0.1961,0.5254 0.333,0.7104 -0.1332,0.2331 -0.296,0.4218 -0.4847,0.555 0.0629,0.037 0.1591,0.1332 0.2035,0.1887 0.1739,-0.1369 0.3256,-0.3145 0.4588,-0.5402 0.3811,0.3737 0.9176,0.4699 1.6021,0.4699 h 1.0323 c 0.0148,-0.074 0.0629,-0.1924 0.1036,-0.2553 -0.1887,0.004 -0.9842,0.004 -1.1285,0.004 -0.629,0 -1.1396,-0.0814 -1.4985,-0.444 0.1517,-0.3441 0.259,-0.7733 0.3182,-1.2987 z"
         style="font-weight:normal;font-family:'Noto Sans CJK SC';-inkscape-font-specification:'Noto Sans CJK SC';text-align:center;text-anchor:middle"
         id="path2606" />
      <path
         d="m 80.151302,144.85445 h -1.5096 v -1.369 h -0.2923 v 1.369 h -1.4911 v 0.2812 h 1.4911 v 1.7205 h 0.2923 v -1.7205 h 1.5096 z"
         style="font-weight:normal;font-family:'Noto Sans CJK SC';-inkscape-font-specification:'Noto Sans CJK SC';text-align:center;text-anchor:middle"
         id="path2608" />
      <path
         d="m 80.565703,144.45485 v 0.2812 h 3.2597 v -0.2812 z m 0.9213,0.7067 c -0.2442,0.5365 -0.6179,1.1137 -0.9731,1.48 0.0777,0.0481 0.2109,0.1406 0.2738,0.1924 0.3404,-0.3959 0.7289,-1.0064 0.999,-1.5762 z m 1.0878,0.0925 c 0.3441,0.4958 0.7881,1.1692 0.9916,1.5577 l 0.2775,-0.1591 c -0.2183,-0.3848 -0.6697,-1.0397 -1.0138,-1.5207 z m -0.7252,-1.6613 c 0.1221,0.2479 0.2701,0.5846 0.3404,0.777 l 0.296,-0.1147 c -0.074,-0.1887 -0.2294,-0.5143 -0.3589,-0.7585 z"
         style="font-weight:normal;font-family:'Noto Sans CJK SC';-inkscape-font-specification:'Noto Sans CJK SC';text-align:center;text-anchor:middle"
         id="path2610" />
      <path
         d="m 86.089802,144.41045 h 0.6105 v 0.6586 h -0.6179 c 0.0074,-0.0777 0.0074,-0.1517 0.0074,-0.2257 z m 0.6105,0.925 v 0.9361 h 0.270101 v -0.9361 h 0.5476 v -0.2664 h -0.5476 v -0.6586 h 0.4736 v -0.2664 h -0.4736 v -0.5883 h -0.270101 v 0.5883 h -0.6105 v -0.5883 h -0.2701 v 0.5883 h -0.5217 v 0.2664 h 0.5217 v 0.4292 c 0,0.0777 0,0.1517 -0.0074,0.2294 h -0.5365 v 0.2664 h 0.5069 c -0.0518,0.2775 -0.1739,0.5513 -0.4514,0.7585 0.0592,0.0407 0.1628,0.1443 0.1998,0.1961 0.3256,-0.2479 0.4662,-0.6031 0.5217,-0.9546 z m -1.5762,-1.184 c -0.1184,-0.1628 -0.37,-0.4181 -0.5735,-0.5957 l -0.1961,0.148 c 0.2035,0.185 0.4477,0.4514 0.5624,0.6216 z m -0.1073,0.6586 h -0.777 v 0.259 h 0.5069 v 1.0508 c -0.1628,0.0629 -0.3515,0.2294 -0.5476,0.4366 l 0.1813,0.2479 c 0.1887,-0.2516 0.37,-0.4699 0.4958,-0.4699 0.0777,0 0.1998,0.1221 0.3478,0.222 0.2553,0.1591 0.5624,0.2035 1.0175,0.2035 0.3552,0 1.010101,-0.0222 1.269101,-0.0407 0.0074,-0.0777 0.0518,-0.2109 0.0814,-0.2849 -0.3552,0.0407 -0.906501,0.0703 -1.339401,0.0703 -0.4181,0 -0.7252,-0.0259 -0.9657,-0.1776 -0.1221,-0.074 -0.1998,-0.1443 -0.2701,-0.1887 z"
         style="font-weight:normal;font-family:'Noto Sans CJK SC';-inkscape-font-specification:'Noto Sans CJK SC';text-align:center;text-anchor:middle"
         id="path2612" />
      <path
         d="m 89.079402,144.26245 h 0.7474 v -0.2516 h -0.7474 v -0.518 h -0.2627 v 0.518 h -0.3922 c 0.0407,-0.1258 0.0777,-0.2627 0.111,-0.3922 l -0.259,-0.0518 c -0.074,0.3552 -0.2035,0.7252 -0.37,0.9731 0.0666,0.0222 0.1887,0.0703 0.2442,0.1036 0.0629,-0.1036 0.1258,-0.2368 0.185,-0.3811 h 0.481 v 0.3885 h -0.8991 v 0.2516 h 0.8991 v 0.37 h -0.7289 v 1.2839 h 0.2516 v -1.0323 h 0.4773 v 1.3283 h 0.2627 v -1.3283 h 0.5106 v 0.7548 c 0,0.037 -0.0111,0.0481 -0.0518,0.0481 -0.037,0.004 -0.1591,0.004 -0.3182,0 0.037,0.0703 0.0703,0.1665 0.0814,0.2405 0.2035,0 0.3441,-0.004 0.4292,-0.0444 0.0925,-0.0444 0.111,-0.1147 0.111,-0.2405 v -1.0101 h -0.7622 v -0.37 h 0.8917 v -0.2516 h -0.8917 z m 1.4171,-0.4477 h -0.259 v 2.035 h 0.259 z m 0.3959,-0.296 v 2.9637 c 0,0.0629 -0.0185,0.0777 -0.0777,0.0814 -0.0629,0 -0.2701,0 -0.4884,-0.007 0.037,0.0851 0.074,0.2109 0.0888,0.2886 0.2738,0 0.4773,-0.007 0.592,-0.0555 0.111,-0.0481 0.1517,-0.1295 0.1517,-0.3108 v -2.96 z"
         style="font-weight:normal;font-family:'Noto Sans CJK SC';-inkscape-font-specification:'Noto Sans CJK SC';text-align:center;text-anchor:middle"
         id="path2614" />
      <path
         d="m 92.631403,143.89985 c 0.2294,-0.0481 0.4477,-0.1073 0.6179,-0.1702 l -0.185,-0.2146 c -0.3256,0.1295 -0.9028,0.2405 -1.3912,0.3071 0.0333,0.0629 0.0629,0.1517 0.0777,0.2183 0.1961,-0.0259 0.4033,-0.0555 0.6105,-0.0888 v 0.6142 h -0.7215 v 0.2553 h 0.6512 c -0.1665,0.4625 -0.4625,0.9694 -0.7437,1.2506 0.0518,0.0666 0.1221,0.1776 0.1517,0.2516 0.2368,-0.2553 0.481,-0.6734 0.6623,-1.1026 v 1.628 h 0.2701 v -1.6169 c 0.1591,0.2072 0.3663,0.4847 0.4514,0.6253 l 0.1665,-0.2257 c -0.0925,-0.1147 -0.4773,-0.5661 -0.6179,-0.7141 v -0.0962 h 0.6438 v -0.2553 h -0.6438 z m 1.0397,2.2237 v -2.0387 h 0.8251 v 2.0387 z m -0.2701,-2.3014 v 2.8712 h 0.2701 v -0.3034 h 0.8251 v 0.2775 h 0.2738 v -2.8453 z"
         style="font-weight:normal;font-family:'Noto Sans CJK SC';-inkscape-font-specification:'Noto Sans CJK SC';text-align:center;text-anchor:middle"
         id="path2616" />
      <path
         d="m 70.890199,148.51035 q 0.2368,0 0.4218,0.0999 0.185,0.0962 0.2923,0.2923 0.1073,0.1961 0.1073,0.4773 v 1.1951 h -0.333 v -1.147 q 0,-0.3034 -0.1517,-0.4625 -0.148,-0.1628 -0.4033,-0.1628 -0.2627,0 -0.4181,0.1702 -0.1554,0.1665 -0.1554,0.4847 v 1.1174 h -0.333 v -1.147 q 0,-0.3034 -0.1517,-0.4625 -0.148,-0.1628 -0.4033,-0.1628 -0.2627,0 -0.4181,0.1702 -0.1554,0.1665 -0.1554,0.4847 v 1.1174 h -0.3367 v -2.0276 h 0.3367 v 0.2923 q 0.0999,-0.1591 0.2664,-0.2442 0.1702,-0.0851 0.3737,-0.0851 0.2553,0 0.4514,0.1147 0.1961,0.1147 0.2923,0.3367 0.0851,-0.2146 0.2812,-0.333 0.1961,-0.1184 0.4366,-0.1184 z"
         style="text-align:center;text-anchor:middle"
         id="path2618" />
      <path
         d="m 72.137101,149.55375 q 0,-0.3108 0.1258,-0.5439 0.1258,-0.2368 0.3441,-0.3663 0.222,-0.1295 0.4921,-0.1295 0.2664,0 0.4625,0.1147 0.1961,0.1147 0.2923,0.2886 v -0.37 h 0.3404 v 2.0276 h -0.3404 v -0.3774 q -0.0999,0.1776 -0.2997,0.296 -0.1961,0.1147 -0.4588,0.1147 -0.2701,0 -0.4884,-0.1332 -0.2183,-0.1332 -0.3441,-0.3737 -0.1258,-0.2405 -0.1258,-0.5476 z m 1.7168,0.004 q 0,-0.2294 -0.0925,-0.3996 -0.0925,-0.1702 -0.2516,-0.259 -0.1554,-0.0925 -0.3441,-0.0925 -0.1887,0 -0.3441,0.0888 -0.1554,0.0888 -0.2479,0.259 -0.0925,0.1702 -0.0925,0.3996 0,0.2331 0.0925,0.407 0.0925,0.1702 0.2479,0.2627 0.1554,0.0888 0.3441,0.0888 0.1887,0 0.3441,-0.0888 0.1591,-0.0925 0.2516,-0.2627 0.0925,-0.1739 0.0925,-0.4033 z"
         style="text-align:center;text-anchor:middle"
         id="path2620" />
      <path
         d="m 74.638304,149.55745 q 0,-0.3145 0.1258,-0.5476 0.1258,-0.2368 0.3478,-0.3663 0.2257,-0.1295 0.5143,-0.1295 0.3737,0 0.6142,0.1813 0.2442,0.1813 0.3219,0.5032 h -0.3626 q -0.0518,-0.185 -0.2035,-0.2923 -0.148,-0.1073 -0.37,-0.1073 -0.2886,0 -0.4662,0.1998 -0.1776,0.1961 -0.1776,0.5587 0,0.3663 0.1776,0.5661 0.1776,0.1998 0.4662,0.1998 0.222,0 0.37,-0.1036 0.148,-0.1036 0.2035,-0.296 h 0.3626 q -0.0814,0.3108 -0.3256,0.4995 -0.2442,0.185 -0.6105,0.185 -0.2886,0 -0.5143,-0.1295 -0.222,-0.1295 -0.3478,-0.3663 -0.1258,-0.2368 -0.1258,-0.555 z"
         style="text-align:center;text-anchor:middle"
         id="path2622" />
      <path
         d="m 79.851606,148.02565 c -0.0518,-0.1554 -0.1776,-0.3922 -0.2886,-0.5661 l -0.2849,0.0814 c 0.111,0.1813 0.2294,0.4292 0.2738,0.5809 z m 0.4847,0.3737 c -0.185,0.4995 -0.4329,0.9065 -0.7622,1.2395 -0.3478,-0.3478 -0.6142,-0.7696 -0.8066,-1.2395 z m 0.8917,0 v -0.2701 h -3.3152 v 0.2701 h 0.5698 c 0.2146,0.5587 0.5069,1.0397 0.888,1.4319 -0.4033,0.3404 -0.8991,0.592 -1.5096,0.7659 0.0555,0.0629 0.1369,0.1887 0.1702,0.2553 0.6142,-0.1961 1.1248,-0.4625 1.5392,-0.8251 0.4107,0.37 0.9139,0.6401 1.517,0.8103 0.0444,-0.0777 0.1221,-0.1924 0.1887,-0.2553 -0.5883,-0.1443 -1.0878,-0.407 -1.4948,-0.7511 0.37,-0.3811 0.6549,-0.8473 0.8658,-1.4319 z"
         style="font-weight:normal;font-family:'Noto Sans CJK SC';-inkscape-font-specification:'Noto Sans CJK SC'"
         id="path2624" />
      <path
         d="m 82.412006,147.49285 c -0.1961,0.5587 -0.5217,1.11 -0.8658,1.4689 0.0481,0.0629 0.1295,0.2035 0.1554,0.2701 0.1147,-0.1295 0.2331,-0.2738 0.3404,-0.4329 v 2.0535 h 0.2627 v -2.479 c 0.1406,-0.2553 0.2627,-0.5291 0.3663,-0.7992 z m 2.5086,1.8204 h -1.0027 v -0.8103 h 0.8436 v -0.2701 h -0.8436 v -0.7067 h -0.2738 v 0.7067 h -0.4921 c 0.0481,-0.1665 0.0888,-0.3404 0.1221,-0.5143 l -0.259,-0.0555 c -0.0851,0.4773 -0.2368,0.9583 -0.4551,1.2617 0.0703,0.0333 0.185,0.0999 0.2368,0.1406 0.0999,-0.1554 0.1887,-0.3478 0.2664,-0.5624 h 0.5809 v 0.8103 h -1.0545 v 0.2701 h 1.0545 v 1.2765 h 0.2738 v -1.2765 h 1.0027 z"
         style="font-weight:normal;font-family:'Noto Sans CJK SC';-inkscape-font-specification:'Noto Sans CJK SC'"
         id="path2626" />
      <path
         d="m 86.474606,149.09125 h -0.777 v -0.7733 h 0.777 z m -0.777,1.1322 v -0.888 h 0.777 v 0.888 z m 0.3108,-2.7528 c -0.0259,0.1739 -0.0925,0.4218 -0.148,0.5994 h -0.4144 v 2.6936 h 0.2516 v -0.2923 h 1.0286 v -2.4013 h -0.6142 c 0.0629,-0.1591 0.1295,-0.3626 0.1924,-0.5439 z m 2.5271,0.5883 h -1.1063 c 0.0629,-0.1739 0.1147,-0.3515 0.1591,-0.5328 l -0.2627,-0.0629 c -0.1184,0.5069 -0.3182,1.0175 -0.5661,1.3431 0.0592,0.037 0.1776,0.111 0.2257,0.1554 0.1295,-0.1739 0.2442,-0.3996 0.3478,-0.6475 h 0.9398 c -0.0481,1.4726 -0.1036,2.035 -0.2257,2.1645 -0.037,0.0481 -0.0777,0.0555 -0.1517,0.0555 -0.0851,0 -0.3071,0 -0.5476,-0.0222 0.0518,0.0777 0.0851,0.1887 0.0925,0.2701 0.2072,0.0111 0.4181,0.0185 0.5476,0.004 0.1258,-0.0111 0.2109,-0.0444 0.2923,-0.148 0.148,-0.1813 0.1961,-0.7511 0.2553,-2.4383 z m -0.5846,1.665 c -0.1184,-0.2183 -0.3737,-0.5735 -0.5809,-0.8362 l -0.2146,0.1258 c 0.2035,0.2664 0.4514,0.6327 0.5624,0.8547 z"
         style="font-weight:normal;font-family:'Noto Sans CJK SC';-inkscape-font-specification:'Noto Sans CJK SC'"
         id="path2628" />
      <path
         d="m 90.836906,147.90355 h 1.0212 v 1.7057 h 0.2701 v -1.9499 h -1.554 v 1.9499 h 0.2627 z m -0.4144,2.2052 c -0.0888,-0.111 -0.4625,-0.5513 -0.6068,-0.703 0.0074,-0.0703 0.0148,-0.1369 0.0222,-0.2035 h 0.5587 v -0.259 h -0.5476 c 0.0037,-0.0777 0.0037,-0.1591 0.0037,-0.2331 v -0.3626 h 0.5032 v -0.2553 h -0.5032 v -0.5735 h -0.259 v 0.5735 h -0.5291 v 0.2553 h 0.5291 v 0.3663 c 0,0.0703 0,0.1517 -0.0037,0.2294 h -0.6068 v 0.259 h 0.5957 c -0.037,0.4958 -0.1665,1.0619 -0.6179,1.4282 0.0666,0.0407 0.1591,0.1332 0.1924,0.1887 0.3515,-0.3108 0.5291,-0.7215 0.6142,-1.1322 0.1628,0.2035 0.3774,0.4847 0.4625,0.629 z m 1.295,0.4514 c -0.0962,0 -0.1258,-0.0222 -0.1258,-0.1221 v -0.9361 h -0.1702 c 0.0444,-0.1998 0.0592,-0.3959 0.0592,-0.5772 v -0.7067 h -0.259 v 0.703 c 0,0.5698 -0.1147,1.2617 -1.0397,1.7353 0.0481,0.037 0.1369,0.1443 0.1702,0.1998 0.5587,-0.2923 0.8473,-0.6845 0.9916,-1.0841 v 0.6919 c 0,0.2479 0.0962,0.3145 0.3367,0.3145 h 0.2923 c 0.3034,0 0.3478,-0.1443 0.3774,-0.7178 -0.0666,-0.0148 -0.1591,-0.0555 -0.2257,-0.1073 -0.0148,0.5106 -0.0333,0.6068 -0.148,0.6068 z"
         style="font-weight:normal;font-family:'Noto Sans CJK SC';-inkscape-font-specification:'Noto Sans CJK SC'"
         id="path2630" />
      <path
         d="m 93.711805,150.14575 c 0.2294,0.1924 0.5217,0.4588 0.6623,0.6253 l 0.1813,-0.1998 c -0.148,-0.1628 -0.4477,-0.4144 -0.6734,-0.5957 z m -0.8066,-2.4679 v 2.2311 h 0.259 v -1.9832 h 1.0619 v 1.9758 h 0.2664 v -2.2237 z m 2.6825,-0.1702 v 2.9674 c 0,0.0666 -0.0296,0.0888 -0.0962,0.0925 -0.0703,0 -0.2997,0.004 -0.5624,-0.004 0.0444,0.074 0.0888,0.1998 0.1036,0.2738 0.3367,0.004 0.5365,-0.007 0.6586,-0.0518 0.1147,-0.0444 0.1665,-0.1258 0.1665,-0.3145 v -2.9637 z m -0.6808,0.3034 v 2.2015 h 0.259 v -2.2015 z m -1.3505,0.37 v 1.0397 c 0,0.5032 -0.0925,1.0619 -0.8658,1.4393 0.0555,0.0407 0.1406,0.1443 0.1702,0.2035 0.8251,-0.3996 0.9546,-1.0693 0.9546,-1.6354 v -1.0471 z"
         style="font-weight:normal;font-family:'Noto Sans CJK SC';-inkscape-font-specification:'Noto Sans CJK SC'"
         id="path2632" />
    </g>
    <g
       aria-label="检索文件"
       id="text1492-6"
       style="font-weight:500;font-size:3.7px;line-height:1;font-family:Poppins;-inkscape-font-specification:'Poppins, Medium';letter-spacing:0;stroke-width:0.26">
      <path
         d="m 77.091402,178.99552 c -0.2442,0.5217 -0.6845,0.9879 -1.1433,1.2765 0.0518,0.0481 0.1295,0.1665 0.1628,0.2183 0.3774,-0.259 0.7437,-0.629 1.0175,-1.0508 0.2849,0.37 0.7067,0.7659 1.0804,1.0175 0.0296,-0.074 0.0888,-0.185 0.1406,-0.2479 -0.3774,-0.2257 -0.8325,-0.6327 -1.0915,-0.9879 0.0259,-0.0481 0.0518,-0.0925 0.074,-0.1369 z m 0.6771,1.1692 h -1.2432 v 0.2368 h 1.2432 z m -0.4218,1.3801 c -0.0185,-0.2331 -0.0888,-0.592 -0.1554,-0.8732 l -0.2183,0.0296 c 0.0666,0.2812 0.1295,0.6475 0.148,0.8843 z m -1.0878,-0.74 c 0.111,0.2812 0.2072,0.6438 0.2405,0.888 l 0.2257,-0.0629 c -0.0333,-0.2405 -0.1369,-0.6031 -0.2479,-0.8806 z m -0.1295,-0.007 c -0.0592,-0.1073 -0.3182,-0.5254 -0.4144,-0.6623 v -0.1591 h 0.3848 v -0.2553 h -0.3848 v -0.6993 h -0.2553 v 0.6993 h -0.4736 v 0.2553 h 0.4477 c -0.0962,0.4884 -0.3034,1.0582 -0.5106,1.3616 0.0481,0.0629 0.111,0.185 0.1406,0.2627 0.1443,-0.2294 0.2886,-0.5883 0.3959,-0.9694 v 1.7686 h 0.2553 v -1.9092 c 0.0962,0.1776 0.2035,0.3885 0.2479,0.5032 z m 1.7649,-0.1258 c -0.1258,0.3959 -0.3626,0.9583 -0.555,1.3098 h -1.2765 v 0.2442 h 2.1867 v -0.2442 h -0.6808 c 0.1924,-0.3478 0.4107,-0.8473 0.5698,-1.2432 z"
         style="font-weight:normal;font-family:'Noto Sans CJK SC';-inkscape-font-specification:'Noto Sans CJK SC';text-align:center;text-anchor:middle"
         id="path2635" />
      <path
         d="m 79.566702,181.60772 c -0.2035,0.1998 -0.5328,0.407 -0.8362,0.5402 0.0629,0.0444 0.1665,0.1332 0.2109,0.1813 0.2923,-0.148 0.6401,-0.3922 0.8806,-0.6253 z m 1.8685,-0.2516 c 0.0999,0.1073 0.185,0.2072 0.2442,0.2886 l 0.2072,-0.1443 c -0.1554,-0.1998 -0.4847,-0.5106 -0.7437,-0.7215 l -0.1961,0.1221 c 0.0962,0.0777 0.1998,0.1739 0.2997,0.2701 l -1.6095,0.0851 c 0.5143,-0.1924 1.036,-0.444 1.5355,-0.7437 l -0.1924,-0.1665 c -0.1628,0.1036 -0.3404,0.2072 -0.518,0.2997 l -0.8251,0.0481 c 0.2553,-0.1221 0.5106,-0.2738 0.74,-0.4403 l -0.111,-0.0851 h 1.406 v 0.4514 h 0.2701 v -0.6882 h -1.4615 v -0.3441 h 1.4134 v -0.2405 h -1.4134 v -0.3256 h -0.2812 v 0.3256 h -1.4134 v 0.2405 h 1.4134 v 0.3441 h -1.4504 v 0.6882 h 0.259 v -0.4514 h 1.0952 c -0.2627,0.2035 -0.592,0.3811 -0.6919,0.4292 -0.1073,0.0555 -0.1924,0.0888 -0.2664,0.0999 0.0259,0.0629 0.0629,0.1887 0.074,0.2368 0.0592,-0.0222 0.1591,-0.037 0.8399,-0.0814 -0.3034,0.148 -0.5661,0.259 -0.6808,0.2997 -0.2146,0.0888 -0.3774,0.1406 -0.4995,0.1554 0.0296,0.0629 0.0629,0.1887 0.074,0.2368 0.0999,-0.0296 0.2405,-0.0444 1.3098,-0.1147 v 0.6438 c 0,0.0444 -0.0148,0.0555 -0.0777,0.0592 -0.0555,0.004 -0.2516,0.004 -0.4773,-0.004 0.0407,0.074 0.0851,0.1739 0.0999,0.2553 0.2701,0 0.4514,-0.004 0.5698,-0.0444 0.1184,-0.0444 0.1517,-0.1147 0.1517,-0.259 v -0.666 z m -0.6068,0.37 c 0.3145,0.1702 0.7104,0.4255 0.8991,0.592 l 0.2183,-0.1554 c -0.2072,-0.1702 -0.6031,-0.4144 -0.9102,-0.5735 z"
         style="font-weight:normal;font-family:'Noto Sans CJK SC';-inkscape-font-specification:'Noto Sans CJK SC';text-align:center;text-anchor:middle"
         id="path2637" />
      <path
         d="m 84.328602,179.56902 c -0.0518,-0.1554 -0.1776,-0.3922 -0.2886,-0.5661 l -0.2849,0.0814 c 0.111,0.1813 0.2294,0.4292 0.2738,0.5809 z m 0.4847,0.3737 c -0.185,0.4995 -0.4329,0.9065 -0.7622,1.2395 -0.3478,-0.3478 -0.6142,-0.7696 -0.8066,-1.2395 z m 0.8917,0 v -0.2701 h -3.3152 v 0.2701 h 0.5698 c 0.2146,0.5587 0.5069,1.0397 0.888,1.4319 -0.4033,0.3404 -0.8991,0.592 -1.5096,0.7659 0.0555,0.0629 0.1369,0.1887 0.1702,0.2553 0.6142,-0.1961 1.1248,-0.4625 1.5392,-0.8251 0.4107,0.37 0.9139,0.6401 1.517,0.8103 0.0444,-0.0777 0.1221,-0.1924 0.1887,-0.2553 -0.5883,-0.1443 -1.0878,-0.407 -1.4948,-0.7511 0.37,-0.3811 0.6549,-0.8473 0.8658,-1.4319 z"
         style="font-weight:normal;font-family:'Noto Sans CJK SC';-inkscape-font-specification:'Noto Sans CJK SC';text-align:center;text-anchor:middle"
         id="path2639" />
      <path
         d="m 86.889003,179.03622 c -0.1961,0.5587 -0.5217,1.11 -0.8658,1.4689 0.0481,0.0629 0.1295,0.2035 0.1554,0.2701 0.1147,-0.1295 0.2331,-0.2738 0.3404,-0.4329 v 2.0535 h 0.2627 v -2.479 c 0.1406,-0.2553 0.2627,-0.5291 0.3663,-0.7992 z m 2.5086,1.8204 h -1.0027 v -0.8103 h 0.8436 v -0.2701 h -0.8436 v -0.7067 h -0.2738 v 0.7067 h -0.4921 c 0.0481,-0.1665 0.0888,-0.3404 0.1221,-0.5143 l -0.259,-0.0555 c -0.0851,0.4773 -0.2368,0.9583 -0.4551,1.2617 0.0703,0.0333 0.185,0.0999 0.2368,0.1406 0.0999,-0.1554 0.1887,-0.3478 0.2664,-0.5624 h 0.5809 v 0.8103 h -1.0545 v 0.2701 h 1.0545 v 1.2765 h 0.2738 v -1.2765 h 1.0027 z"
         style="font-weight:normal;font-family:'Noto Sans CJK SC';-inkscape-font-specification:'Noto Sans CJK SC';text-align:center;text-anchor:middle"
         id="path2641" />
    </g>
    <g
       aria-label="合并"
       id="text1492-1"
       style="font-weight:500;font-size:3.7px;line-height:1;font-family:Poppins;-inkscape-font-specification:'Poppins, Medium';letter-spacing:0;stroke-width:0.26">
      <path
         d="m 81.216902,215.4691 v 0.7659 h -1.7168 v -0.7659 z m -1.9943,1.2284 h 0.2775 v -0.2072 h 1.7168 v 0.1924 h 0.2849 v -1.4578 h -2.2792 z m 0.2923,-2.1719 c 0.3145,-0.2072 0.6068,-0.4514 0.8473,-0.7289 0.2775,0.296 0.5735,0.5291 0.8991,0.7289 z m 0.8843,-1.2099 c -0.3737,0.5698 -1.0508,1.0582 -1.7501,1.3357 0.0777,0.0629 0.1517,0.1665 0.1998,0.2405 0.1924,-0.0851 0.3811,-0.1887 0.5661,-0.2997 v 0.1887 h 1.8537 v -0.2516 c 0.1887,0.1221 0.3885,0.2257 0.5994,0.3293 0.0407,-0.0851 0.1184,-0.1887 0.1887,-0.2479 -0.5883,-0.2479 -1.1026,-0.5513 -1.5355,-1.0101 0.0407,-0.0555 0.0814,-0.1073 0.1184,-0.1665 z"
         style="font-weight:normal;font-family:'Noto Sans CJK SC';-inkscape-font-specification:'Noto Sans CJK SC';text-align:center;text-anchor:middle"
         id="path2644" />
      <path
         d="m 83.651502,213.9632 c -0.0629,-0.1776 -0.2331,-0.444 -0.3922,-0.6438 l -0.2516,0.1073 c 0.1554,0.2035 0.3182,0.4773 0.3774,0.6549 z m -0.1147,1.1803 v -0.0888 -0.7067 h 1.0212 v 0.7955 z m 2.1497,0 h -0.8436 v -0.7955 h 0.7289 v -0.2627 h -0.8288 c 0.1184,-0.1998 0.2442,-0.4551 0.3552,-0.6771 l -0.3108,-0.0925 c -0.0777,0.2331 -0.2146,0.5439 -0.3404,0.7696 h -1.9092 v 0.2627 h 0.7178 v 0.703 0.0925 h -0.8547 v 0.2664 h 0.8325 c -0.0555,0.407 -0.2405,0.8029 -0.8251,1.0989 0.0592,0.0518 0.1554,0.1554 0.1961,0.222 0.6697,-0.3441 0.8621,-0.8288 0.9139,-1.3209 h 1.0397 v 1.295 h 0.2849 v -1.295 h 0.8436 z"
         style="font-weight:normal;font-family:'Noto Sans CJK SC';-inkscape-font-specification:'Noto Sans CJK SC';text-align:center;text-anchor:middle"
         id="path2646" />
    </g>
    <g
       aria-label="分析"
       id="text1492-9"
       style="font-weight:500;font-size:3.7px;line-height:1;font-family:Poppins;-inkscape-font-specification:'Poppins, Medium';letter-spacing:0;stroke-width:0.26">
      <path
         d="m 79.204102,244.30429 c 0.3108,-0.333 0.592,-0.7659 0.7807,-1.2358 l -0.2923,-0.0814 c -0.2146,0.5624 -0.5883,1.073 -1.0286,1.3912 0.0703,0.0518 0.185,0.1554 0.2368,0.2109 0.0962,-0.0814 0.1961,-0.1702 0.2886,-0.2701 v 0.2553 h 0.7104 c -0.0851,0.6216 -0.2886,1.2062 -1.1581,1.4985 0.0592,0.0518 0.1369,0.1628 0.1739,0.2331 0.9287,-0.3404 1.1729,-1.0027 1.2728,-1.7316 h 1.0027 c -0.0444,0.9176 -0.0962,1.2802 -0.1887,1.3727 -0.0407,0.037 -0.0814,0.0481 -0.1591,0.0481 -0.0888,0 -0.3108,-0.004 -0.5513,-0.0259 0.0518,0.0777 0.0851,0.1924 0.0888,0.2738 0.2294,0.0148 0.4588,0.0185 0.5809,0.007 0.1295,-0.007 0.2072,-0.037 0.2886,-0.1295 0.1258,-0.1406 0.1739,-0.5624 0.2257,-1.6835 0.0037,-0.037 0.0074,-0.1332 0.0074,-0.1332 z m 1.5207,-1.221 c 0.259,0.5439 0.6993,1.1359 1.0841,1.4726 0.0518,-0.074 0.148,-0.1776 0.222,-0.2331 -0.3848,-0.2886 -0.8288,-0.8436 -1.0582,-1.3431 z"
         style="font-weight:normal;font-family:'Noto Sans CJK SC';-inkscape-font-specification:'Noto Sans CJK SC';text-align:center;text-anchor:middle"
         id="path2649" />
      <path
         d="m 83.751402,244.83709 c -0.074,-0.111 -0.3811,-0.5254 -0.5106,-0.6808 v -0.1887 h 0.5402 v -0.2627 h -0.5402 v -0.7918 h -0.2664 v 0.7918 h -0.5513 v 0.2627 h 0.5217 c -0.1221,0.5069 -0.3774,1.0841 -0.6216,1.3912 0.0444,0.0666 0.1147,0.1739 0.1443,0.2479 0.1887,-0.2479 0.37,-0.6475 0.5069,-1.0619 v 1.7464 h 0.2664 v -1.7945 c 0.1258,0.1961 0.2701,0.4292 0.333,0.5587 z m 1.961,-0.666 h -1.48 v -0.6586 c 0.444,-0.0814 0.925,-0.1998 1.2691,-0.3404 l -0.2331,-0.2146 c -0.2997,0.1369 -0.8288,0.2775 -1.295,0.3626 v 1.1322 c 0,0.5143 -0.0333,1.2025 -0.3663,1.6946 0.0629,0.0222 0.1776,0.0962 0.2257,0.1406 0.3478,-0.5106 0.3996,-1.2839 0.3996,-1.8352 v -0.0185 h 0.6734 v 1.8611 h 0.2701 v -1.8611 h 0.5365 z"
         style="font-weight:normal;font-family:'Noto Sans CJK SC';-inkscape-font-specification:'Noto Sans CJK SC';text-align:center;text-anchor:middle"
         id="path2651" />
    </g>
    <g
       aria-label="创建文件规则"
       id="text1492-37"
       style="font-weight:500;font-size:3.7px;line-height:1;font-family:Poppins;-inkscape-font-specification:'Poppins, Medium';letter-spacing:0;stroke-width:0.26">
      <path
         d="m -4.2551,112.7889 c -0.1887,0 -0.222,-0.0259 -0.222,-0.1628 v -1.332 h 0.8029 c -0.0296,0.4477 -0.0666,0.6253 -0.1073,0.6808 -0.0296,0.0296 -0.0592,0.0333 -0.1073,0.0333 -0.0555,0 -0.1813,0 -0.3145,-0.0148 0.0333,0.0666 0.0592,0.1628 0.0666,0.2368 0.148,0.0111 0.2886,0.007 0.3626,0.004 0.0925,-0.0111 0.1554001,-0.0333 0.2109001,-0.0962 0.0851,-0.0925 0.1184,-0.3404 0.1554,-0.9768 0.0037,-0.0333 0.0037,-0.111 0.0037,-0.111 H -4.7435 v 1.5762 c 0,0.3219 0.111,0.4033 0.4662,0.4033 h 0.6845001 c 0.3256,0 0.407,-0.1406 0.4403,-0.6512 -0.0777,-0.0148 -0.1813,-0.0592 -0.2442,-0.0999 -0.0185,0.4329 -0.0444,0.5106 -0.2146,0.5106 z m 0.1406,-3.0784 c -0.1961,0.4773 -0.5846,0.9842 -1.0508,1.3172 0.0592,0.0444 0.1554,0.1406 0.1998,0.1924 0.3626,-0.2812 0.6771,-0.6512 0.9102,-1.0508 0.2923,0.3145 0.6105001,0.6956 0.7770001,0.9435 l 0.1961,-0.1813 c -0.1776,-0.2627 -0.5476001,-0.6734 -0.8510001,-0.9842 0.0259,-0.0555 0.0518,-0.1036 0.074,-0.1591 z m 1.4726001,0.4255 h -0.2627 v 2.0387 h 0.2627 z m 0.4551,-0.3737 v 2.9563 c 0,0.0666 -0.0296,0.0888 -0.0962,0.0925 -0.0703,0.004 -0.3034,0.007 -0.5624,-0.004 0.0407,0.074 0.0814,0.1924 0.0962,0.2627 0.3441,0.004 0.5476,-0.004 0.666,-0.0481 0.1147,-0.0444 0.1665,-0.1184 0.1665,-0.3034 v -2.9563 z"
         style="font-weight:normal;font-family:'Noto Sans CJK SC';-inkscape-font-specification:'Noto Sans CJK SC';text-align:center;text-anchor:middle"
         id="path2438" />
      <path
         d="m 1.4059001,110.2433 v 0.2701 H 0.85090011 v -0.2701 z m 0,0.7696 H 0.85090011 v -0.2738 H 1.4059001 Z m -0.814,-0.4995 h -0.95090001 v 0.2257 H 0.5919001 v 0.2738 h -0.73630001 v 0.222 H 0.5919001 v 0.2775 h -0.76220001 v 0.2109 H 0.5919001 v 0.2997 h -0.91760001 v 0.2257 H 0.5919001 v 0.3663 h 0.25900001 v -0.3663 H 1.8610001 V 112.023 H 0.85090011 v -0.2997 H 1.7241001 v -0.2109 H 0.85090011 v -0.2775 H 1.6538001 v -0.4958 h 0.2553 v -0.2257 h -0.2553 V 110.025 H 0.85090011 v -0.3034 H 0.5919001 v 0.3034 h -0.7104 v 0.2183 h 0.7104 z m -1.08780001,0.4403 -0.0481,0.007 h -0.2627 c 0.1628,-0.3071 0.3589,-0.6993 0.5143,-1.0249 H -1.3320999 v 0.2442 h 0.64749999 c -0.1665,0.3552 -0.36999999,0.7548 -0.52909999,1.0249 h 0.59939999 c -0.0481,0.333 -0.1221,0.6216 -0.222,0.8695 -0.0962,-0.148 -0.17759999,-0.3293 -0.24049999,-0.5476 l -0.2035,0.0814 c 0.0888,0.2923 0.1961,0.5254 0.33299998,0.7104 -0.13319998,0.2331 -0.29599998,0.4218 -0.48469998,0.555 0.0629,0.037 0.1591,0.1332 0.2035,0.1887 0.1739,-0.1369 0.32559999,-0.3145 0.45879999,-0.5402 0.3811,0.3737 0.91760001,0.4699 1.60210002,0.4699 H 1.8647001 c 0.0148,-0.074 0.0629,-0.1924 0.1036,-0.2553 -0.1887,0.004 -0.98419999,0.004 -1.12849999,0.004 -0.62900001,0 -1.13960002,-0.0814 -1.49850002,-0.444 0.1517,-0.3441 0.259,-0.7733 0.3182,-1.2987 z"
         style="font-weight:normal;font-family:'Noto Sans CJK SC';-inkscape-font-specification:'Noto Sans CJK SC';text-align:center;text-anchor:middle"
         id="path2440" />
      <path
         d="m 4.2586002,110.2507 c -0.0518,-0.1554 -0.1776001,-0.3922 -0.2886001,-0.5661 l -0.2849,0.0814 c 0.111,0.1813 0.2294,0.4292 0.2738,0.5809 z m 0.4847,0.3737 c -0.185,0.4995 -0.4329,0.9065 -0.7622001,1.2395 -0.3478,-0.3478 -0.6142,-0.7696 -0.8066,-1.2395 z m 0.8917,0 v -0.2701 H 2.3198001 v 0.2701 h 0.5698 c 0.2146,0.5587 0.5069,1.0397 0.888,1.4319 -0.4033,0.3404 -0.8991,0.592 -1.5096,0.7659 0.0555,0.0629 0.1369,0.1887 0.1702,0.2553 0.6142,-0.1961 1.1248,-0.4625 1.5392,-0.8251 0.4107001,0.37 0.9139001,0.6401 1.5170001,0.8103 0.0444,-0.0777 0.1221,-0.1924 0.1887,-0.2553 -0.5883,-0.1443 -1.0878,-0.407 -1.4948,-0.7511 0.37,-0.3811 0.6549,-0.8473 0.8658,-1.4319 z"
         style="font-weight:normal;font-family:'Noto Sans CJK SC';-inkscape-font-specification:'Noto Sans CJK SC';text-align:center;text-anchor:middle"
         id="path2442" />
      <path
         d="m 6.8190004,109.7179 c -0.1961,0.5587 -0.5217,1.11 -0.8658,1.4689 0.0481,0.0629 0.1295,0.2035 0.1554,0.2701 0.1147,-0.1295 0.2331,-0.2738 0.3404,-0.4329 v 2.0535 h 0.2627 v -2.479 c 0.1406,-0.2553 0.2627,-0.5291 0.3663,-0.7992 z m 2.5086001,1.8204 H 8.3249004 v -0.8103 h 0.8436001 v -0.2701 H 8.3249004 v -0.7067 h -0.2738 v 0.7067 h -0.4921 c 0.0481,-0.1665 0.0888,-0.3404 0.1221,-0.5143 l -0.259,-0.0555 c -0.0851,0.4773 -0.2368,0.9583 -0.4551,1.2617 0.0703,0.0333 0.185,0.0999 0.2368,0.1406 0.0999,-0.1554 0.1887,-0.3478 0.2664,-0.5624 h 0.5809 v 0.8103 h -1.0545 v 0.2701 h 1.0545 v 1.2765 h 0.2738 v -1.2765 h 1.0027001 z"
         style="font-weight:normal;font-family:'Noto Sans CJK SC';-inkscape-font-specification:'Noto Sans CJK SC';text-align:center;text-anchor:middle"
         id="path2444" />
      <path
         d="m 11.5439,110.1286 h 1.0212 v 1.7057 h 0.2701 v -1.9499 h -1.554 v 1.9499 h 0.2627 z m -0.4144,2.2052 c -0.0888,-0.111 -0.4625,-0.5513 -0.6068,-0.703 0.0074,-0.0703 0.0148,-0.1369 0.0222,-0.2035 h 0.5587 v -0.259 H 10.556 c 0.0037,-0.0777 0.0037,-0.1591 0.0037,-0.2331 v -0.3626 h 0.5032 v -0.2553 h -0.5032 v -0.5735 h -0.259 v 0.5735 H 9.7716002 v 0.2553 H 10.3007 v 0.3663 c 0,0.0703 0,0.1517 -0.0037,0.2294 H 9.6902002 v 0.259 H 10.2859 c -0.037,0.4958 -0.1665,1.0619 -0.6178998,1.4282 0.0666,0.0407 0.1591,0.1332 0.1924,0.1887 0.3514998,-0.3108 0.5290998,-0.7215 0.6141998,-1.1322 0.1628,0.2035 0.3774,0.4847 0.4625,0.629 z m 1.295,0.4514 c -0.0962,0 -0.1258,-0.0222 -0.1258,-0.1221 v -0.9361 h -0.1702 c 0.0444,-0.1998 0.0592,-0.3959 0.0592,-0.5772 v -0.7067 h -0.259 v 0.703 c 0,0.5698 -0.1147,1.2617 -1.0397,1.7353 0.0481,0.037 0.1369,0.1443 0.1702,0.1998 0.5587,-0.2923 0.8473,-0.6845 0.9916,-1.0841 v 0.6919 c 0,0.2479 0.0962,0.3145 0.3367,0.3145 h 0.2923 c 0.3034,0 0.3478,-0.1443 0.3774,-0.7178 -0.0666,-0.0148 -0.1591,-0.0555 -0.2257,-0.1073 -0.0148,0.5106 -0.0333,0.6068 -0.148,0.6068 z"
         style="font-weight:normal;font-family:'Noto Sans CJK SC';-inkscape-font-specification:'Noto Sans CJK SC';text-align:center;text-anchor:middle"
         id="path2446" />
      <path
         d="m 14.4188,112.3708 c 0.2294,0.1924 0.5217,0.4588 0.6623,0.6253 l 0.1813,-0.1998 c -0.148,-0.1628 -0.4477,-0.4144 -0.6734,-0.5957 z m -0.8066,-2.4679 v 2.2311 h 0.259 v -1.9832 h 1.0619 v 1.9758 h 0.2664 v -2.2237 z m 2.6825,-0.1702 v 2.9674 c 0,0.0666 -0.0296,0.0888 -0.0962,0.0925 -0.0703,0 -0.2997,0.004 -0.5624,-0.004 0.0444,0.074 0.0888,0.1998 0.1036,0.2738 0.3367,0.004 0.5365,-0.007 0.6586,-0.0518 0.1147,-0.0444 0.1665,-0.1258 0.1665,-0.3145 v -2.9637 z m -0.6808,0.3034 v 2.2015 h 0.259 v -2.2015 z m -1.3505,0.37 v 1.0397 c 0,0.5032 -0.0925,1.0619 -0.8658,1.4393 0.0555,0.0407 0.1406,0.1443 0.1702,0.2035 0.8251,-0.3996 0.9546,-1.0693 0.9546,-1.6354 v -1.0471 z"
         style="font-weight:normal;font-family:'Noto Sans CJK SC';-inkscape-font-specification:'Noto Sans CJK SC';text-align:center;text-anchor:middle"
         id="path2448" />
    </g>
    <path
       d="M108.48 68.8h10.58"
       id="path1603"
       fill="none"
       stroke="#000"
       stroke-width=".71"
       stroke-linecap="butt"
       stroke-linejoin="miter"
       stroke-miterlimit="4"
       stroke-dasharray="none"
       stroke-opacity="1"
       marker-end="url(#marker883)" />
    <path
       d="M82.02 15.88v5.29"
       id="path1605"
       fill="none"
       stroke="#000"
       stroke-width=".71"
       stroke-linecap="butt"
       stroke-linejoin="miter"
       stroke-miterlimit="4"
       stroke-dasharray="none"
       stroke-opacity="1"
       marker-end="url(#marker883)" />
    <path
       d="M82.02 44.98v5.3"
       id="path1607"
       fill="none"
       stroke="#000"
       stroke-width=".71"
       stroke-linecap="butt"
       stroke-linejoin="miter"
       stroke-miterlimit="4"
       stroke-dasharray="none"
       stroke-opacity="1"
       marker-end="url(#marker883)" />
    <path
       d="M82.02 87.31v5.3"
       id="path1609"
       fill="none"
       stroke="#000"
       stroke-width=".71"
       stroke-linecap="butt"
       stroke-linejoin="miter"
       stroke-miterlimit="4"
       stroke-dasharray="none"
       stroke-opacity="1"
       marker-end="url(#marker883)" />
    <path
       d="M56.1 111.13H37.56"
       id="path1611"
       fill="none"
       stroke="#000"
       stroke-width=".71"
       stroke-linecap="butt"
       stroke-linejoin="miter"
       stroke-miterlimit="4"
       stroke-dasharray="none"
       stroke-opacity="1"
       marker-end="url(#marker883)" />
    <path
       d="M82.02 129.65v5.29"
       id="path1613"
       fill="none"
       stroke="#000"
       stroke-width=".71"
       stroke-linecap="butt"
       stroke-linejoin="miter"
       stroke-miterlimit="4"
       stroke-dasharray="none"
       stroke-opacity="1"
       marker-end="url(#marker883)" />
    <path
       d="M82.02 158.75v5.3"
       id="path1615"
       fill="none"
       stroke="#000"
       stroke-width=".71"
       stroke-linecap="butt"
       stroke-linejoin="miter"
       stroke-miterlimit="4"
       stroke-dasharray="none"
       stroke-opacity="1"
       marker-end="url(#marker883)" />
    <path
       d="M82.02 198.44v5.29"
       id="path1617"
       fill="none"
       stroke="#000"
       stroke-width=".71"
       stroke-linecap="butt"
       stroke-linejoin="miter"
       stroke-miterlimit="4"
       stroke-dasharray="none"
       stroke-opacity="1"
       marker-end="url(#marker883)" />
    <path
       d="M82.02 227.54v5.3"
       id="path1619"
       fill="none"
       stroke="#000"
       stroke-width=".71"
       stroke-linecap="butt"
       stroke-linejoin="miter"
       stroke-miterlimit="4"
       stroke-dasharray="none"
       stroke-opacity="1"
       marker-end="url(#marker883)" />
    <path
       d="M150.81 82.02v132.3h-37.04"
       id="path1621"
       fill="none"
       stroke="#000"
       stroke-width=".71"
       stroke-linecap="butt"
       stroke-linejoin="miter"
       stroke-miterlimit="4"
       stroke-dasharray="none"
       stroke-opacity="1"
       marker-end="url(#marker883)" />
    <path
       d="M5.3 124.35v89.96h44.97"
       id="path1623"
       fill="none"
       stroke="#000"
       stroke-width=".71"
       stroke-linecap="butt"
       stroke-linejoin="miter"
       stroke-miterlimit="4"
       stroke-dasharray="none"
       stroke-opacity="1"
       marker-end="url(#marker883)" />
    <g
       aria-label="文件"
       id="text1898"
       style="font-weight:500;font-size:3.7px;line-height:1.25;font-family:Poppins;-inkscape-font-specification:'Poppins, Medium';letter-spacing:0;stroke-width:0.26">
      <path
         d="m 46.341043,105.9307 c -0.0518,-0.1554 -0.1776,-0.3922 -0.2886,-0.5661 l -0.2849,0.0814 c 0.111,0.1813 0.2294,0.4292 0.2738,0.5809 z m 0.4847,0.3737 c -0.185,0.4995 -0.4329,0.9065 -0.7622,1.2395 -0.3478,-0.3478 -0.6142,-0.7696 -0.8066,-1.2395 z m 0.8917,0 v -0.2701 h -3.3152 v 0.2701 h 0.5698 c 0.2146,0.5587 0.5069,1.0397 0.888,1.4319 -0.4033,0.3404 -0.8991,0.592 -1.5096,0.7659 0.0555,0.0629 0.1369,0.1887 0.1702,0.2553 0.6142,-0.1961 1.1248,-0.4625 1.5392,-0.8251 0.4107,0.37 0.9139,0.6401 1.517,0.8103 0.0444,-0.0777 0.1221,-0.1924 0.1887,-0.2553 -0.5883,-0.1443 -1.0878,-0.407 -1.4948,-0.7511 0.37,-0.3811 0.6549,-0.8473 0.8658,-1.4319 z"
         style="font-weight:normal;font-family:'Noto Sans CJK SC';-inkscape-font-specification:'Noto Sans CJK SC';text-align:center;text-anchor:middle"
         id="path2309" />
      <path
         d="m 48.901443,105.3979 c -0.1961,0.5587 -0.5217,1.11 -0.8658,1.4689 0.0481,0.0629 0.1295,0.2035 0.1554,0.2701 0.1147,-0.1295 0.2331,-0.2738 0.3404,-0.4329 v 2.0535 h 0.2627 v -2.479 c 0.1406,-0.2553 0.2627,-0.5291 0.3663,-0.7992 z m 2.5086,1.8204 h -1.0027 v -0.8103 h 0.8436 v -0.2701 h -0.8436 v -0.7067 h -0.2738 v 0.7067 h -0.4921 c 0.0481,-0.1665 0.0888,-0.3404 0.1221,-0.5143 l -0.259,-0.0555 c -0.0851,0.4773 -0.2368,0.9583 -0.4551,1.2617 0.0703,0.0333 0.185,0.0999 0.2368,0.1406 0.0999,-0.1554 0.1887,-0.3478 0.2664,-0.5624 h 0.5809 v 0.8103 h -1.0545 v 0.2701 h 1.0545 v 1.2765 h 0.2738 v -1.2765 h 1.0027 z"
         style="font-weight:normal;font-family:'Noto Sans CJK SC';-inkscape-font-specification:'Noto Sans CJK SC';text-align:center;text-anchor:middle"
         id="path2311" />
    </g>
    <g
       aria-label="是"
       id="text1898-8"
       style="font-weight:500;font-size:3.7px;line-height:1.25;font-family:Poppins;-inkscape-font-specification:'Poppins, Medium';letter-spacing:0;stroke-width:0.26">
      <path
         d="m 113.66468,63.715401 h -1.9129 v -0.2997 h 1.9129 z m 0,0.499501 h -1.9129 v -0.299701 h 1.9129 z m 0.2738,-1.010101 h -2.4568 v 1.221001 h 2.4568 z m -1.0545,2.371701 h 1.221 v -0.2442 h -1.221 v -0.4107 h 1.4615 v -0.2479 h -3.2486 v 0.2479 h 1.517 v 1.1137 c -0.3182,-0.0851 -0.555,-0.2553 -0.6993,-0.5883 0.037,-0.1184 0.0703,-0.2405 0.0962,-0.37 l -0.2775,-0.037 c -0.0999,0.5402 -0.333,0.9546 -0.7178,1.2025 0.0592,0.0444 0.1665,0.148 0.2035,0.1961 0.2405,-0.1776 0.4329,-0.407 0.5772,-0.6956 0.2997,0.4995 0.7696,0.6179 1.5133,0.6179 h 1.0064 c 0.0148,-0.0814 0.0592,-0.1998 0.0962,-0.2627 -0.1887,0.0037 -0.9546,0.0037 -1.0915,0.0037 -0.1554,0 -0.3034,-0.0074 -0.4366,-0.0222 z"
         style="font-weight:normal;font-family:'Noto Sans CJK SC';-inkscape-font-specification:'Noto Sans CJK SC';text-align:center;text-anchor:middle"
         id="path2250" />
    </g>
    <g
       aria-label="否"
       id="text1898-8-7"
       style="font-weight:500;font-size:3.7px;line-height:1.25;font-family:Poppins;-inkscape-font-specification:'Poppins, Medium';letter-spacing:0;stroke-width:0.26">
      <path
         d="m 86.379398,90.570099 h 0.2738 v -1.1285 c 0.0999,-0.0888 0.1924,-0.1887 0.2775,-0.2886 h 1.184 v -0.259 h -3.1857 v 0.259 h 1.6317 c -0.4255,0.4477 -1.0878,0.8066 -1.7427,1.0212 0.0592,0.0592 0.1517,0.185 0.1924,0.2479 0.4699,-0.1776 0.9583,-0.4329 1.369,-0.7474 z m 1.0619,0.3478 v 0.7215 h -1.8278 v -0.7215 z m -2.1053,1.147 h 0.2775 v -0.1776 h 1.8278 v 0.1702 h 0.2923 v -1.3838 h -2.3976 z m 1.4726,-2.368 c 0.4255,0.1739 0.9324,0.4699 1.1988,0.6845 l 0.1961,-0.2072 c -0.2701,-0.2035 -0.777,-0.4884 -1.1988,-0.6623 z"
         style="font-weight:normal;font-family:'Noto Sans CJK SC';-inkscape-font-specification:'Noto Sans CJK SC'"
         id="path2253" />
    </g>
    <g
       aria-label="是"
       id="text1898-8-6"
       style="font-weight:500;font-size:3.7px;line-height:1.25;font-family:Poppins;-inkscape-font-specification:'Poppins, Medium';letter-spacing:0;stroke-width:0.26">
      <path
         d="m 87.467198,131.6754 h -1.9129 v -0.2997 h 1.9129 z m 0,0.4995 h -1.9129 v -0.2997 h 1.9129 z m 0.2738,-1.0101 h -2.4568 v 1.221 h 2.4568 z m -1.0545,2.3717 h 1.221 v -0.2442 h -1.221 v -0.4107 h 1.4615 v -0.2479 h -3.2486 v 0.2479 h 1.517 v 1.1137 c -0.3182,-0.0851 -0.555,-0.2553 -0.6993,-0.5883 0.037,-0.1184 0.0703,-0.2405 0.0962,-0.37 L 85.535798,133 c -0.0999,0.5402 -0.333,0.9546 -0.7178,1.2025 0.0592,0.0444 0.1665,0.148 0.2035,0.1961 0.2405,-0.1776 0.4329,-0.407 0.5772,-0.6956 0.2997,0.4995 0.7696,0.6179 1.5133,0.6179 h 1.0064 c 0.0148,-0.0814 0.0592,-0.1998 0.0962,-0.2627 -0.1887,0.004 -0.9546,0.004 -1.0915,0.004 -0.1554,0 -0.3034,-0.007 -0.4366,-0.0222 z"
         style="font-weight:normal;font-family:'Noto Sans CJK SC';-inkscape-font-specification:'Noto Sans CJK SC'"
         id="path2601" />
    </g>
  </g>
</svg>
