<?xml version="1.0" encoding="UTF-8" standalone="no"?>
<svg
   width="871.06"
   height="405.69"
   viewBox="0 0 230.47 107.34"
   version="1.1"
   id="svg213"
   sodipodi:docname="virt-disk-cache.svg"
   inkscape:version="1.2.2 (732a01da63, 2022-12-09)"
   xmlns:inkscape="http://www.inkscape.org/namespaces/inkscape"
   xmlns:sodipodi="http://sodipodi.sourceforge.net/DTD/sodipodi-0.dtd"
   xmlns="http://www.w3.org/2000/svg"
   xmlns:svg="http://www.w3.org/2000/svg">
  <sodipodi:namedview
     id="namedview215"
     pagecolor="#ffffff"
     bordercolor="#000000"
     borderopacity="0.25"
     inkscape:showpageshadow="2"
     inkscape:pageopacity="0.0"
     inkscape:pagecheckerboard="0"
     inkscape:deskcolor="#d1d1d1"
     showgrid="false"
     inkscape:zoom="1.7140036"
     inkscape:cx="436.11344"
     inkscape:cy="202.44998"
     inkscape:window-width="1920"
     inkscape:window-height="1009"
     inkscape:window-x="-8"
     inkscape:window-y="-8"
     inkscape:window-maximized="1"
     inkscape:current-layer="svg213" />
  <defs
     id="defs131">
    <marker
       id="a"
       markerHeight="4.71"
       markerWidth="3.06"
       orient="auto"
       refX="1.53"
       refY="2.35">
      <path
         fill="#fff"
         fill-opacity="0"
         stroke="#0c322c"
         d="m.35.35 2 2-2 2"
         id="path113" />
    </marker>
    <marker
       id="b"
       markerHeight="4.71"
       markerWidth="3.06"
       orient="auto"
       refX="1.53"
       refY="2.35">
      <path
         fill="#fff"
         fill-opacity="0"
         stroke="#0c322c"
         d="m.35.35 2 2-2 2"
         id="path116" />
    </marker>
    <marker
       id="c"
       markerHeight="4.71"
       markerWidth="3.06"
       orient="auto"
       refX="1.53"
       refY="2.35">
      <path
         fill="#fff"
         fill-opacity="0"
         stroke="#0c322c"
         d="m.35.35 2 2-2 2"
         id="path119" />
    </marker>
    <marker
       id="d"
       markerHeight="4.71"
       markerWidth="3.06"
       orient="auto"
       refX="1.53"
       refY="2.35">
      <path
         fill="#fff"
         fill-opacity="0"
         stroke="#0c322c"
         d="m.35.35 2 2-2 2"
         id="path122" />
    </marker>
    <marker
       id="e"
       markerHeight="4.71"
       markerWidth="3.06"
       orient="auto"
       refX="1.53"
       refY="2.35">
      <path
         fill="#fff"
         fill-opacity="0"
         stroke="#0c322c"
         d="m.35.35 2 2-2 2"
         id="path125" />
    </marker>
    <marker
       id="f"
       markerHeight="4.71"
       markerWidth="3.06"
       orient="auto"
       refX="1.53"
       refY="2.35">
      <path
         fill="#fff"
         fill-opacity="0"
         stroke="#0c322c"
         d="m.35.35 2 2-2 2"
         id="path128" />
    </marker>
  </defs>
  <g
     transform="translate(-10.3 -11.72)"
     id="g211">
    <rect
       width="29.1"
       height="29.1"
       x="13.23"
       y="29.1"
       fill="#dedfe0"
       opacity=".99"
       paint-order="stroke fill markers"
       id="rect133" />
    <g
       aria-label="用户"
       id="text137"
       style="font-weight:500;font-size:5.29px;line-height:1.25;font-family:Poppins;-inkscape-font-specification:'Poppins, Medium';letter-spacing:0;stroke-width:0.26">
      <path
         d="m 25.178079,43.888291 v -0.87814 h 1.42301 v 0.87814 z m -1.67693,0 c 0.01587,-0.19573 0.02116,-0.39146 0.02116,-0.56603 v -0.31211 h 1.26431 v 0.87814 z m 1.28547,-2.09484 v 0.8464 h -1.26431 v -0.8464 z m 1.81447,0.8464 h -1.42301 v -0.8464 h 1.42301 z m 0.38617,-1.22199 h -3.85112 v 1.9044 c 0,0.73531 -0.0529,1.66635 -0.6348,2.32231 0.08464,0.04761 0.24334,0.17986 0.30153,0.25921 0.40204,-0.44965 0.5819,-1.05271 0.66125,-1.6399 h 1.3225 v 1.56055 h 0.39146 v -1.56055 h 1.42301 v 1.07387 c 0,0.10051 -0.03703,0.13225 -0.14283,0.13754 -0.09522,0 -0.45494,0.0053 -0.82524,-0.01058 0.0529,0.1058 0.11638,0.27508 0.13225,0.38088 0.49726,0.0053 0.80408,0 0.98394,-0.06348 0.16928,-0.06877 0.23805,-0.18515 0.23805,-0.43907 z"
         style="font-weight:normal;font-family:'Noto Sans CJK SC';-inkscape-font-specification:'Noto Sans CJK SC';text-align:center;text-anchor:middle"
         id="path346" />
      <path
         d="m 28.907529,43.279941 c 0.0053,-0.10051 0.0053,-0.19044 0.0053,-0.28037 v -0.77234 h 2.7508 v 1.05271 z m 1.48649,-1.42301 0.24334,-0.07406 c -0.06348,-0.20631 -0.20102,-0.52371 -0.32269,-0.76705 l -0.38088,0.10051 c 0.1058,0.23276 0.22218,0.53429 0.28566,0.7406 h -1.70867 v 1.14264 c 0,0.7935 -0.06877,1.88853 -0.70886,2.66616 0.09522,0.04232 0.26979,0.16928 0.33327,0.23805 0.51842,-0.62422 0.69828,-1.49707 0.75647,-2.25354 h 2.77196 v 0.34385 h 0.39675 v -2.13716 z"
         style="font-weight:normal;font-family:'Noto Sans CJK SC';-inkscape-font-specification:'Noto Sans CJK SC';text-align:center;text-anchor:middle"
         id="path348" />
    </g>
    <rect
       width="29.1"
       height="29.1"
       x="13.23"
       y="87.31"
       fill="#dedfe0"
       opacity=".99"
       paint-order="stroke fill markers"
       id="rect139" />
    <g
       aria-label="用户"
       id="text143"
       style="font-weight:500;font-size:5.29px;line-height:1.25;font-family:Poppins;-inkscape-font-specification:'Poppins, Medium';letter-spacing:0;stroke-width:0.26">
      <path
         d="m 25.178079,102.09829 v -0.87814 h 1.42301 v 0.87814 z m -1.67693,0 c 0.01587,-0.19573 0.02116,-0.39146 0.02116,-0.56603 v -0.31211 h 1.26431 v 0.87814 z m 1.28547,-2.09484 v 0.8464 h -1.26431 v -0.8464 z m 1.81447,0.8464 h -1.42301 v -0.8464 h 1.42301 z m 0.38617,-1.22199 h -3.85112 v 1.9044 c 0,0.73531 -0.0529,1.66635 -0.6348,2.32231 0.08464,0.0476 0.24334,0.17986 0.30153,0.25921 0.40204,-0.44965 0.5819,-1.05271 0.66125,-1.6399 h 1.3225 v 1.56055 h 0.39146 v -1.56055 h 1.42301 v 1.07387 c 0,0.10051 -0.03703,0.13225 -0.14283,0.13754 -0.09522,0 -0.45494,0.005 -0.82524,-0.0106 0.0529,0.1058 0.11638,0.27508 0.13225,0.38088 0.49726,0.005 0.80408,0 0.98394,-0.0635 0.16928,-0.0688 0.23805,-0.18515 0.23805,-0.43907 z"
         style="font-weight:normal;font-family:'Noto Sans CJK SC';-inkscape-font-specification:'Noto Sans CJK SC';text-align:center;text-anchor:middle"
         id="path436" />
      <path
         d="m 28.907529,101.48994 c 0.0053,-0.10051 0.0053,-0.19044 0.0053,-0.28037 v -0.77234 h 2.7508 v 1.05271 z m 1.48649,-1.42301 0.24334,-0.07406 c -0.06348,-0.20631 -0.20102,-0.52371 -0.32269,-0.76705 l -0.38088,0.10051 c 0.1058,0.23276 0.22218,0.53429 0.28566,0.7406 h -1.70867 v 1.14264 c 0,0.7935 -0.06877,1.88853 -0.70886,2.66616 0.09522,0.0423 0.26979,0.16928 0.33327,0.23805 0.51842,-0.62422 0.69828,-1.49707 0.75647,-2.25354 h 2.77196 v 0.34385 h 0.39675 v -2.13716 z"
         style="font-weight:normal;font-family:'Noto Sans CJK SC';-inkscape-font-specification:'Noto Sans CJK SC';text-align:center;text-anchor:middle"
         id="path438" />
    </g>
    <rect
       width="29.1"
       height="29.1"
       x="111.13"
       y="29.1"
       fill="#fe7c3f"
       opacity=".99"
       paint-order="stroke fill markers"
       id="rect145" />
    <g
       aria-label="缓存"
       id="text149"
       style="font-weight:500;font-size:5.29px;line-height:1.25;font-family:Poppins;-inkscape-font-specification:'Poppins, Medium';letter-spacing:0;fill:#fe7c3f;stroke-width:0.26">
      <path
         d="m 125.23997,41.1993 c -0.61364,0.13754 -1.73512,0.22747 -2.645,0.25921 0.0423,0.08993 0.0793,0.21689 0.0899,0.30682 0.93104,-0.02645 2.07368,-0.11109 2.78783,-0.26979 z m -0.98923,1.24844 c -0.0264,-0.17457 -0.0952,-0.47081 -0.16399,-0.69828 l -0.31211,0.0529 c 0.0582,0.23276 0.12167,0.53958 0.14283,0.71944 z m -2.72964,1.63461 c 0.40733,-0.46023 0.80937,-1.02626 1.14793,-1.60287 l -0.33856,-0.19573 c -0.0952,0.19044 -0.2116,0.39146 -0.32798,0.57132 l -0.67712,0.06348 c 0.3174,-0.44965 0.62422,-1.03155 0.86227,-1.59229 l -0.38088,-0.1587 c -0.21689,0.6348 -0.59777,1.30663 -0.71944,1.4812 -0.1058,0.17986 -0.20631,0.30682 -0.29624,0.32798 0.0476,0.10051 0.11109,0.28566 0.13225,0.3703 0.0793,-0.03703 0.20102,-0.06348 0.85169,-0.13754 -0.23276,0.32798 -0.44436,0.59248 -0.53958,0.69828 -0.16399,0.19044 -0.28566,0.3174 -0.40204,0.33856 0.0476,0.1058 0.1058,0.28037 0.12696,0.35972 0.1058,-0.06348 0.28566,-0.11109 1.59758,-0.37559 -0.0106,-0.07935 -0.0159,-0.23276 -0.0106,-0.33327 z m 0.99981,0.70357 c -0.64009,0.19573 -1.28547,0.40204 -1.71396,0.51313 l 0.0952,0.39146 c 0.46552,-0.16928 1.08974,-0.38088 1.68222,-0.59248 z m 0.31211,-2.87247 c 0.0899,0.21689 0.20102,0.49726 0.24334,0.67183 l 0.32269,-0.11109 c -0.0476,-0.16399 -0.16399,-0.43907 -0.25921,-0.64009 z m 1.99433,2.40695 c -0.13225,0.31211 -0.32269,0.56074 -0.56074,0.76176 -0.29624,-0.20631 -0.53429,-0.46552 -0.70357,-0.76176 z m 0.24334,-0.3174 -0.0688,0.01058 h -1.47062 c 0.0264,-0.11638 0.0529,-0.23805 0.0688,-0.35443 h 2.02607 v -0.33327 h -1.97846 c 0.0159,-0.14283 0.0317,-0.28566 0.0423,-0.41791 h 1.87266 v -0.32269 h -0.6348 c 0.15341,-0.22747 0.33327,-0.51313 0.48139,-0.76705 l -0.3703,-0.12167 c -0.11109,0.2645 -0.31211,0.62951 -0.48668,0.88872 h -1.88324 v 0.32269 h 0.64009 c -0.0106,0.13225 -0.0212,0.27508 -0.0423,0.41791 h -0.80408 v 0.33327 h 0.76176 c -0.12696,0.76176 -0.40204,1.58171 -1.11619,2.05781 0.0899,0.05819 0.2116,0.18515 0.2645,0.26979 0.49197,-0.34385 0.78821,-0.82524 0.98394,-1.35424 0.16399,0.25392 0.3703,0.4761 0.60835,0.66654 -0.31211,0.19044 -0.67712,0.32269 -1.07387,0.41262 0.0688,0.05819 0.17986,0.2116 0.22218,0.29095 0.41791,-0.1058 0.80937,-0.25921 1.14793,-0.49197 0.35443,0.23276 0.77234,0.39675 1.23786,0.49726 0.0529,-0.10051 0.1587,-0.25392 0.24334,-0.33327 -0.43378,-0.07935 -0.83582,-0.2116 -1.17967,-0.40204 0.32269,-0.29624 0.56603,-0.67712 0.72473,-1.17438 z"
         style="font-weight:normal;font-family:'Noto Sans CJK SC';-inkscape-font-specification:'Noto Sans CJK SC';text-align:center;text-anchor:middle;fill:#000000"
         id="path546" />
      <path
         d="m 130.84208,42.23085 v -0.38088 h -2.70319 c 0.0794,-0.19573 0.14283,-0.39146 0.20631,-0.59248 l -0.40204,-0.09522 c -0.0635,0.22747 -0.14283,0.46023 -0.23276,0.6877 h -1.46004 v 0.38088 h 1.30134 c -0.34385,0.73002 -0.82524,1.40185 -1.47062,1.8515 0.0635,0.08993 0.1587,0.25921 0.20102,0.35443 0.23276,-0.1587 0.43907,-0.34914 0.62951,-0.55016 v 2.10013 h 0.38617 v -2.56036 c 0.26979,-0.3703 0.49726,-0.77234 0.68241,-1.19554 z m 0.10051,1.94672 h -1.41243 v -0.30682 c 0.38617,-0.23805 0.7935,-0.56074 1.07916,-0.87285 l -0.25392,-0.20102 -0.0794,0.02645 h -2.15303 v 0.35972 h 1.79331 c -0.23276,0.20631 -0.51842,0.4232 -0.77763,0.56074 v 0.43378 h -1.46004 v 0.3703 h 1.46004 v 0.97336 c 0,0.07406 -0.0212,0.09522 -0.11638,0.10051 -0.0899,0.01058 -0.40733,0.01058 -0.75647,-0.0053 0.0529,0.11638 0.1058,0.2645 0.12696,0.37559 0.44965,0 0.7406,0 0.91517,-0.05819 0.17457,-0.06348 0.22218,-0.17457 0.22218,-0.40733 v -0.97865 h 1.41243 z"
         style="font-weight:normal;font-family:'Noto Sans CJK SC';-inkscape-font-specification:'Noto Sans CJK SC';text-align:center;text-anchor:middle;fill:#000000"
         id="path548" />
    </g>
    <rect
       width="29.1"
       height="29.1"
       x="111.12"
       y="87.31"
       fill="#fe7c3f"
       opacity=".99"
       paint-order="stroke fill markers"
       id="rect151" />
    <g
       aria-label="缓存"
       id="text155"
       style="font-weight:500;font-size:5.29px;line-height:1.25;font-family:Poppins;-inkscape-font-specification:'Poppins, Medium';letter-spacing:0;fill:#fe7c3f;stroke-width:0.26">
      <path
         d="m 124.71079,99.409303 c -0.61364,0.13754 -1.73512,0.22747 -2.645,0.25921 0.0423,0.08993 0.0793,0.21689 0.0899,0.30682 0.93104,-0.02645 2.07368,-0.11109 2.78783,-0.26979 z m -0.98923,1.248437 c -0.0264,-0.17457 -0.0952,-0.47081 -0.16399,-0.698277 l -0.31211,0.0529 c 0.0582,0.23276 0.12167,0.53958 0.14283,0.71944 z m -2.72964,1.63461 c 0.40733,-0.46023 0.80937,-1.02626 1.14793,-1.60287 l -0.33856,-0.19573 c -0.0952,0.19044 -0.2116,0.39146 -0.32798,0.57132 l -0.67712,0.0635 c 0.3174,-0.44965 0.62422,-1.03155 0.86227,-1.592287 l -0.38088,-0.1587 c -0.21689,0.634797 -0.59777,1.306627 -0.71944,1.481197 -0.1058,0.17986 -0.20631,0.30682 -0.29624,0.32798 0.0476,0.10051 0.11109,0.28566 0.13225,0.3703 0.0794,-0.037 0.20102,-0.0635 0.85169,-0.13754 -0.23276,0.32798 -0.44436,0.59248 -0.53958,0.69828 -0.16399,0.19044 -0.28566,0.3174 -0.40204,0.33856 0.0476,0.1058 0.1058,0.28037 0.12696,0.35972 0.1058,-0.0635 0.28566,-0.11109 1.59758,-0.37559 -0.0106,-0.0794 -0.0159,-0.23276 -0.0106,-0.33327 z m 0.99981,0.70357 c -0.64009,0.19573 -1.28547,0.40204 -1.71396,0.51313 l 0.0952,0.39146 c 0.46552,-0.16928 1.08974,-0.38088 1.68222,-0.59248 z m 0.31211,-2.87247 c 0.0899,0.21689 0.20102,0.49726 0.24334,0.67183 l 0.32269,-0.11109 c -0.0476,-0.16399 -0.16399,-0.43907 -0.25921,-0.64009 z m 1.99433,2.40695 c -0.13225,0.31211 -0.32269,0.56074 -0.56074,0.76176 -0.29624,-0.20631 -0.53429,-0.46552 -0.70357,-0.76176 z m 0.24334,-0.3174 -0.0688,0.0106 h -1.47062 c 0.0264,-0.11638 0.0529,-0.23805 0.0688,-0.35443 h 2.02607 v -0.33327 h -1.97846 c 0.0159,-0.14283 0.0317,-0.28566 0.0423,-0.41791 h 1.87266 v -0.32269 h -0.6348 c 0.15341,-0.22747 0.33327,-0.51313 0.48139,-0.76705 l -0.3703,-0.121667 c -0.11109,0.264497 -0.31211,0.629507 -0.48668,0.888717 h -1.88324 v 0.32269 h 0.64009 c -0.0106,0.13225 -0.0212,0.27508 -0.0423,0.41791 h -0.80408 v 0.33327 h 0.76176 c -0.12696,0.76176 -0.40204,1.58171 -1.11619,2.05781 0.0899,0.0582 0.2116,0.18515 0.2645,0.26979 0.49197,-0.34385 0.78821,-0.82524 0.98394,-1.35424 0.16399,0.25392 0.3703,0.4761 0.60835,0.66654 -0.31211,0.19044 -0.67712,0.32269 -1.07387,0.41262 0.0688,0.0582 0.17986,0.2116 0.22218,0.29095 0.41791,-0.1058 0.80937,-0.25921 1.14793,-0.49197 0.35443,0.23276 0.77234,0.39675 1.23786,0.49726 0.0529,-0.10051 0.1587,-0.25392 0.24334,-0.33327 -0.43378,-0.0794 -0.83582,-0.2116 -1.17967,-0.40204 0.32269,-0.29624 0.56603,-0.67712 0.72473,-1.17438 z"
         style="font-weight:normal;font-family:'Noto Sans CJK SC';-inkscape-font-specification:'Noto Sans CJK SC';text-align:center;text-anchor:middle;fill:#000000"
         id="path551" />
      <path
         d="m 130.3129,100.44085 v -0.38088 h -2.70319 c 0.0793,-0.195727 0.14283,-0.391457 0.20631,-0.592477 l -0.40204,-0.09522 c -0.0635,0.22747 -0.14283,0.46023 -0.23276,0.687697 h -1.46004 v 0.38088 h 1.30134 c -0.34385,0.73002 -0.82524,1.40185 -1.47062,1.8515 0.0635,0.0899 0.1587,0.25921 0.20102,0.35443 0.23276,-0.1587 0.43907,-0.34914 0.62951,-0.55016 v 2.10013 h 0.38617 v -2.56036 c 0.26979,-0.3703 0.49726,-0.77234 0.68241,-1.19554 z m 0.10051,1.94672 h -1.41243 v -0.30682 c 0.38617,-0.23805 0.7935,-0.56074 1.07916,-0.87285 l -0.25392,-0.20102 -0.0794,0.0265 h -2.15303 v 0.35972 h 1.79331 c -0.23276,0.20631 -0.51842,0.4232 -0.77763,0.56074 v 0.43378 h -1.46004 v 0.3703 h 1.46004 v 0.97336 c 0,0.0741 -0.0212,0.0952 -0.11638,0.10051 -0.0899,0.0106 -0.40733,0.0106 -0.75647,-0.005 0.0529,0.11638 0.1058,0.2645 0.12696,0.37559 0.44965,0 0.7406,0 0.91517,-0.0582 0.17457,-0.0635 0.22218,-0.17457 0.22218,-0.40733 v -0.97865 h 1.41243 z"
         style="font-weight:normal;font-family:'Noto Sans CJK SC';-inkscape-font-specification:'Noto Sans CJK SC';text-align:center;text-anchor:middle;fill:#000000"
         id="path553" />
    </g>
    <rect
       width="29.1"
       height="29.1"
       x="209.02"
       y="29.1"
       fill="#30ba78"
       opacity=".99"
       paint-order="stroke fill markers"
       id="rect157" />
    <g
       aria-label="硬盘"
       id="text163"
       style="font-weight:500;font-size:5.29px;line-height:1.25;font-family:Poppins;-inkscape-font-specification:'Poppins, Medium';text-align:center;letter-spacing:0;text-anchor:middle;fill:#fe7c3f;stroke-width:0.26">
      <path
         d="m 219.96752,44.8414 h -0.69828 v -1.56055 h 0.69828 z m 0.33327,0.35443 v -2.26412 h -1.03155 c 0.13754,-0.39146 0.24863,-0.81995 0.33327,-1.25902 h 0.7406 v -0.36501 h -1.78273 v 0.36501 h 0.66654 c -0.14283,0.80408 -0.38617,1.54468 -0.75647,2.04723 0.0635,0.10051 0.14812,0.33327 0.17457,0.42849 0.1058,-0.13754 0.19573,-0.28037 0.28566,-0.44436 v 1.91498 h 0.33856 v -0.4232 z m 0.60306,-1.40714 V 43.2544 h 0.75118 v 0.26979 c 0,0.08993 0,0.17457 -0.005,0.2645 z m 0,-1.35953 h 0.75118 v 0.529 h -0.75118 z m 1.91498,0 v 0.529 h -0.78821 v -0.529 z m 0,1.35953 h -0.7935 c 0.005,-0.08993 0.005,-0.17457 0.005,-0.2645 V 43.2544 h 0.78821 z m 0.36501,0.31211 v -1.98375 h -1.15322 v -0.49726 h 1.26431 v -0.35972 h -2.84602 v 0.35972 h 1.20612 v 0.49726 h -1.10032 v 1.98375 h 1.06858 c -0.037,0.25921 -0.11638,0.51313 -0.26979,0.7406 -0.19573,-0.16399 -0.35443,-0.35972 -0.46023,-0.59248 L 220.56,44.33356 c 0.14283,0.30153 0.32798,0.55545 0.56603,0.76176 -0.21689,0.19044 -0.51842,0.34914 -0.93633,0.46552 0.0741,0.07935 0.18515,0.22747 0.23276,0.31211 0.43378,-0.14283 0.75647,-0.33856 0.98923,-0.56074 0.44965,0.29624 1.03155,0.47081 1.74041,0.56074 0.0423,-0.10051 0.14283,-0.25921 0.22747,-0.34385 -0.71415,-0.05819 -1.29076,-0.21689 -1.73512,-0.48139 0.20631,-0.29095 0.30682,-0.60835 0.35443,-0.94691 z"
         style="font-weight:normal;font-family:'Noto Sans CJK SC';-inkscape-font-specification:'Noto Sans CJK SC';fill:#000000"
         id="path661" />
      <path
         d="m 224.78671,44.38646 h 0.70357 v 0.97336 h -0.70357 z m 1.76686,0 v 0.97336 h -0.69828 v -0.97336 z m 1.07387,0 v 0.97336 h -0.70886 v -0.97336 z m 0.38617,-0.3174 h -3.59191 v 1.29076 h -0.59777 v 0.34914 h 4.78216 v -0.34914 h -0.59248 z m -2.3805,-0.86227 c 0.30153,0.14812 0.66125,0.38088 0.83582,0.54487 l 0.2116,-0.24334 c -0.19044,-0.16928 -0.55545,-0.39146 -0.8464,-0.52371 z m 0.81995,-0.65596 0.20631,-0.23805 c -0.17986,-0.1587 -0.51313,-0.3703 -0.7935,-0.49197 l -0.19044,0.22218 c 0.27508,0.12696 0.60835,0.34914 0.76705,0.50784 h -1.35424 c 0.005,-0.06877 0.005,-0.13225 0.005,-0.19573 v -0.60306 h 2.38579 v 0.79879 z m 1.41243,0 v -1.12148 h -1.59229 c 0.0529,-0.11109 0.11109,-0.23805 0.17457,-0.36501 l -0.42849,-0.08464 c -0.0265,0.12167 -0.10051,0.30682 -0.16928,0.44965 h -1.14264 v 0.91517 c 0,0.06877 0,0.13225 -0.005,0.20631 h -0.84111 v 0.34914 h 0.78821 c -0.0741,0.32798 -0.2645,0.64538 -0.66654,0.8993 0.0794,0.05819 0.22747,0.20102 0.28566,0.28037 0.48139,-0.3174 0.69299,-0.75118 0.77763,-1.17967 h 2.4334 v 0.61364 c 0,0.06348 -0.0212,0.07935 -0.0952,0.08464 -0.0635,0 -0.30153,0 -0.56074,-0.0053 0.0529,0.09522 0.11109,0.23276 0.12696,0.33327 0.35443,0 0.58719,0 0.73002,-0.05819 0.14283,-0.05819 0.18515,-0.1587 0.18515,-0.35443 v -0.61364 h 0.7406 v -0.34914 z"
         style="font-weight:normal;font-family:'Noto Sans CJK SC';-inkscape-font-specification:'Noto Sans CJK SC';fill:#000000"
         id="path663" />
    </g>
    <g
       transform="translate(120.39 82.67)"
       id="g209">
      <path
         fill="none"
         stroke="#0c322c"
         stroke-linecap="square"
         stroke-width=".66"
         marker-end="url(#a)"
         d="M-75.4-45.63h62.96"
         id="path165" />
      <path
         fill="none"
         stroke="#0c322c"
         stroke-linecap="square"
         stroke-width=".66"
         marker-end="url(#b)"
         d="M-12.81-29.76h-62.97"
         id="path167" />
      <g
         aria-label="第 1 条请求"
         id="text171"
         style="font-weight:500;font-size:4.94px;line-height:1.25;font-family:Poppins;-inkscape-font-specification:'Poppins, Medium';letter-spacing:0;stroke-width:0.26">
        <path
           d="m -54.81061,-51.708359 c 0.10868,0.19266 0.20254,0.43472 0.24206,0.58786 l 0.32604,-0.10868 c -0.03458,-0.12844 -0.11362,-0.31122 -0.20254,-0.47918 h 0.7904 v -0.28158 h -1.26464 c 0.05434,-0.11856 0.10868,-0.24206 0.15808,-0.36556 l -0.34086,-0.07904 c -0.16796,0.46436 -0.46436,0.9139 -0.81016,1.2103 0.08892,0.03952 0.23712,0.1235 0.30628,0.17784 0.18278,-0.1729 0.3705,-0.40508 0.52364,-0.66196 z m 0.9139,1.75864 v 0.45942 h -1.1856 c 0.0247,-0.14326 0.0494,-0.30628 0.0741,-0.45942 z m 0.36062,-0.7657 h 1.29428 v 0.45448 h -1.29428 z m 0,1.22512 v -0.45942 h 1.6549 v -1.07692 h -3.61114 v 0.31122 h 1.59562 v 0.45448 h -1.42272 c -0.03952,0.35074 -0.10868,0.7904 -0.1729,1.0868 h 1.30416 c -0.40508,0.4199 -1.03246,0.80028 -1.6055,0.988 0.08398,0.06916 0.18278,0.20254 0.23712,0.29146 0.58786,-0.22724 1.22512,-0.65208 1.65984,-1.14114 v 1.1362 h 0.36062 v -1.27452 h 1.42272 c -0.0494,0.4446 -0.10374,0.63726 -0.16796,0.70642 -0.04446,0.03458 -0.09386,0.03952 -0.17784,0.03952 -0.08892,0 -0.31616,0 -0.55822,-0.0247 0.05434,0.09386 0.09386,0.23218 0.0988,0.34086 0.25194,0.0099 0.494,0.0099 0.62244,0 0.13338,-0.0049 0.22724,-0.03458 0.30628,-0.1235 0.12844,-0.11856 0.19266,-0.4199 0.26182,-1.10162 0.0049,-0.05434 0.0099,-0.15314 0.0099,-0.15314 z m 0.55328,-2.49964 c 0.04446,-0.1235 0.08892,-0.24206 0.12844,-0.36556 l -0.35074,-0.07904 c -0.13338,0.44954 -0.36062,0.87932 -0.65702,1.16584 0.08892,0.03952 0.247,0.13338 0.3211,0.18772 0.15314,-0.16302 0.30134,-0.38038 0.42484,-0.62738 h 0.33592 c 0.15314,0.18772 0.31122,0.43472 0.38038,0.5928 l 0.3211,-0.12844 c -0.05928,-0.12844 -0.1729,-0.30628 -0.30134,-0.46436 h 0.88426 v -0.28158 z"
           style="font-weight:normal;font-family:'Noto Sans CJK SC';-inkscape-font-specification:'Noto Sans CJK SC';text-align:center;text-anchor:middle"
           id="path351" />
        <path
           d="m -49.712529,-51.441599 v -0.41002 h 0.92872 v 3.57162 h -0.45448 v -3.1616 z"
           style="text-align:center;text-anchor:middle;fill:#0c322c"
           id="path353" />
        <path
           d="m -45.508589,-49.188959 c -0.23712,0.30628 -0.67678,0.66196 -1.00282,0.84474 0.07904,0.05928 0.19266,0.18278 0.247,0.26182 0.33098,-0.21736 0.78546,-0.62738 1.04728,-0.96824 z m 2.70218,-0.18772 v -0.3211 h -1.54622 v -0.52364 h -0.36556 v 0.52364 h -1.54622 v 0.3211 h 1.54622 v 1.06704 c 0,0.05434 -0.01976,0.06916 -0.0741,0.0741 -0.05434,0 -0.25194,0 -0.43472,-0.0049 0.0494,0.08892 0.0988,0.2223 0.11362,0.3211 0.27664,0 0.47424,-0.0049 0.59774,-0.05434 0.12844,-0.05928 0.16302,-0.1482 0.16302,-0.33098 v -1.07198 z m -1.09174,0.3705 c 0.34086,0.27664 0.741,0.68172 0.92378,0.94354 l 0.27664,-0.21736 c -0.19266,-0.25688 -0.59774,-0.6422 -0.9386,-0.9139 z m -1.37826,-2.63796 h 1.56104 c -0.20748,0.25688 -0.48412,0.47918 -0.80522,0.6669 -0.31122,-0.18278 -0.57304,-0.3952 -0.78052,-0.6422 z m 1.88214,-0.33592 -0.06916,0.01482 h -1.5314 c 0.10374,-0.1235 0.19266,-0.25688 0.2717,-0.38038 l -0.40014,-0.0741 c -0.25688,0.4446 -0.7657,0.95342 -1.49188,1.3091 0.08398,0.05434 0.1976,0.17784 0.26182,0.26676 0.30628,-0.16796 0.57798,-0.35568 0.81016,-0.55328 0.1976,0.22724 0.42484,0.42484 0.68666,0.60268 -0.5928,0.2717 -1.27946,0.45942 -1.94636,0.54834 0.05928,0.08398 0.13832,0.22724 0.16302,0.32604 0.73112,-0.1235 1.482,-0.33592 2.11926,-0.6669 0.58292,0.31122 1.27946,0.52364 2.04516,0.63232 0.04446,-0.10374 0.14326,-0.247 0.21736,-0.33098 -0.71136,-0.08398 -1.36344,-0.25688 -1.91178,-0.50882 0.4199,-0.2717 0.78052,-0.6175 1.01764,-1.03246 z"
           style="font-weight:normal;font-family:'Noto Sans CJK SC';-inkscape-font-specification:'Noto Sans CJK SC';text-align:center;text-anchor:middle"
           id="path355" />
        <path
           d="m -40.534009,-51.574979 c -0.15314,-0.1976 -0.48906,-0.50388 -0.74594,-0.72124 l -0.23712,0.21736 c 0.25688,0.23218 0.58292,0.55328 0.73112,0.76076 z m -0.21242,2.81086 v -2.10444 h -1.09174 v 0.35074 h 0.73606 v 1.79322 c 0,0.21736 -0.13832,0.36556 -0.23218,0.4199 0.06422,0.0741 0.15808,0.22724 0.19266,0.31122 0.0741,-0.09386 0.20254,-0.20254 1.02752,-0.8398 -0.03952,-0.06916 -0.10374,-0.20748 -0.12844,-0.30628 z m 1.12632,-0.16796 v -0.40014 h 1.54128 v 0.40014 z m 1.54128,-1.0374 v 0.38038 h -1.54128 v -0.38038 z m 0.35074,-0.28652 h -2.23782 v 2.35144 h 0.3458 v -0.76076 h 1.54128 v 0.3458 c 0,0.06422 -0.01976,0.08398 -0.09386,0.08398 -0.05928,0.0049 -0.2964,0.0049 -0.54834,-0.0049 0.04446,0.09386 0.09386,0.22724 0.10868,0.31616 0.35074,0.0049 0.5681,0 0.71136,-0.05434 0.13338,-0.05434 0.1729,-0.1482 0.1729,-0.33592 z m -0.94354,-0.56316 v -0.3458 h 1.0374 v -0.26676 h -1.0374 v -0.31122 h 1.1856 v -0.28158 h -1.1856 v -0.38532 h -0.36062 v 0.38532 h -1.1362 v 0.28158 h 1.1362 v 0.31122 h -1.01764 v 0.26676 h 1.01764 v 0.3458 h -1.2844 v 0.28158 h 2.97388 v -0.28158 z"
           style="font-weight:normal;font-family:'Noto Sans CJK SC';-inkscape-font-specification:'Noto Sans CJK SC';text-align:center;text-anchor:middle"
           id="path357" />
        <path
           d="m -33.025209,-51.006879 c -0.2223,0.30628 -0.5928,0.69654 -0.89908,0.97812 -0.2223,-0.35074 -0.41002,-0.73606 -0.54834,-1.1362 v -0.06422 h 1.976 v -0.35568 h -0.60762 l 0.20748,-0.23712 c -0.1976,-0.16796 -0.5928,-0.40014 -0.90402,-0.55822 l -0.21736,0.23218 c 0.2964,0.15808 0.6669,0.39026 0.86944,0.56316 h -1.32392 v -0.8151 h -0.3705 v 0.8151 h -1.94142 v 0.35568 h 1.94142 v 1.36838 c -0.74594,0.42484 -1.55116,0.87438 -2.0501,1.13126 l 0.23712,0.33098 c 0.50388,-0.29146 1.17572,-0.6916 1.81298,-1.0868 v 1.0868 c 0,0.09386 -0.03458,0.11856 -0.1235,0.1235 -0.0988,0.0049 -0.4199,0.0049 -0.75582,-0.0049 0.0494,0.10868 0.10868,0.28158 0.12844,0.38532 0.43472,0 0.72618,-0.0099 0.8892,-0.0741 0.16302,-0.05928 0.23218,-0.1729 0.23218,-0.42978 v -1.96118 c 0.42484,0.90896 1.04234,1.65984 1.83768,2.04516 0.06422,-0.0988 0.18278,-0.24206 0.26676,-0.31122 -0.53352,-0.23218 -1.00282,-0.63726 -1.37332,-1.13126 0.33592,-0.27664 0.73112,-0.67678 1.03246,-1.02752 z m -2.39096,0.98306 c -0.15808,-0.26676 -0.5187,-0.64714 -0.82992,-0.9139 l -0.27664,0.19266 c 0.31122,0.27664 0.65702,0.67184 0.81016,0.9386 z"
           style="font-weight:normal;font-family:'Noto Sans CJK SC';-inkscape-font-specification:'Noto Sans CJK SC';text-align:center;text-anchor:middle"
           id="path359" />
      </g>
      <g
         aria-label="缓存的数据"
         id="text175"
         style="font-weight:500;font-size:4.94px;line-height:1.25;font-family:Poppins;-inkscape-font-specification:'Poppins, Medium';letter-spacing:0;stroke-width:0.26">
        <path
           d="m -52.717384,-36.500202 c -0.57304,0.12844 -1.62032,0.21242 -2.47,0.24206 0.03952,0.08398 0.0741,0.20254 0.08398,0.28652 0.86944,-0.0247 1.93648,-0.10374 2.60338,-0.25194 z m -0.92378,1.16584 c -0.0247,-0.16302 -0.08892,-0.43966 -0.15314,-0.65208 l -0.29146,0.0494 c 0.05434,0.21736 0.11362,0.50388 0.13338,0.67184 z m -2.54904,1.52646 c 0.38038,-0.42978 0.75582,-0.95836 1.07198,-1.49682 l -0.31616,-0.18278 c -0.08892,0.17784 -0.1976,0.36556 -0.30628,0.53352 l -0.63232,0.05928 c 0.2964,-0.4199 0.58292,-0.9633 0.80522,-1.48694 l -0.35568,-0.1482 c -0.20254,0.5928 -0.55822,1.22018 -0.67184,1.3832 -0.0988,0.16796 -0.19266,0.28652 -0.27664,0.30628 0.04446,0.09386 0.10374,0.26676 0.1235,0.3458 0.0741,-0.03458 0.18772,-0.05928 0.79534,-0.12844 -0.21736,0.30628 -0.41496,0.55328 -0.50388,0.65208 -0.15314,0.17784 -0.26676,0.2964 -0.37544,0.31616 0.04446,0.0988 0.0988,0.26182 0.11856,0.33592 0.0988,-0.05928 0.26676,-0.10374 1.49188,-0.35074 -0.0099,-0.0741 -0.01482,-0.21736 -0.0099,-0.31122 z m 0.93366,0.65702 c -0.59774,0.18278 -1.20042,0.37544 -1.60056,0.47918 l 0.08892,0.36556 c 0.43472,-0.15808 1.01764,-0.35568 1.57092,-0.55328 z m 0.29146,-2.68242 c 0.08398,0.20254 0.18772,0.46436 0.22724,0.62738 l 0.30134,-0.10374 c -0.04446,-0.15314 -0.15314,-0.41002 -0.24206,-0.59774 z m 1.86238,2.2477 c -0.1235,0.29146 -0.30134,0.52364 -0.52364,0.71136 -0.27664,-0.19266 -0.49894,-0.43472 -0.65702,-0.71136 z m 0.22724,-0.2964 -0.06422,0.0099 h -1.37332 c 0.0247,-0.10868 0.0494,-0.2223 0.06422,-0.33098 h 1.89202 v -0.31122 h -1.84756 c 0.01482,-0.13338 0.02964,-0.26676 0.03952,-0.39026 h 1.74876 v -0.30134 h -0.5928 c 0.14326,-0.21242 0.31122,-0.47918 0.44954,-0.7163 l -0.3458,-0.11362 c -0.10374,0.247 -0.29146,0.58786 -0.45448,0.82992 h -1.75864 v 0.30134 h 0.59774 c -0.0099,0.1235 -0.01976,0.25688 -0.03952,0.39026 h -0.75088 v 0.31122 h 0.71136 c -0.11856,0.71136 -0.37544,1.47706 -1.04234,1.92166 0.08398,0.05434 0.1976,0.1729 0.247,0.25194 0.45942,-0.3211 0.73606,-0.77064 0.91884,-1.26464 0.15314,0.23712 0.3458,0.4446 0.5681,0.62244 -0.29146,0.17784 -0.63232,0.30134 -1.00282,0.38532 0.06422,0.05434 0.16796,0.1976 0.20748,0.2717 0.39026,-0.0988 0.75582,-0.24206 1.07198,-0.45942 0.33098,0.21736 0.72124,0.3705 1.15596,0.46436 0.0494,-0.09386 0.1482,-0.23712 0.22724,-0.31122 -0.40508,-0.0741 -0.78052,-0.1976 -1.10162,-0.37544 0.30134,-0.27664 0.52858,-0.63232 0.67678,-1.09668 z"
           style="font-weight:normal;font-family:'Noto Sans CJK SC';-inkscape-font-specification:'Noto Sans CJK SC';text-align:center;text-anchor:middle;fill:#0c322c"
           id="path441" />
        <path
           d="m -47.485924,-35.536902 v -0.35568 h -2.52434 c 0.0741,-0.18278 0.13338,-0.36556 0.19266,-0.55328 l -0.37544,-0.08892 c -0.05928,0.21242 -0.13338,0.42978 -0.21736,0.6422 h -1.36344 v 0.35568 h 1.21524 c -0.3211,0.68172 -0.77064,1.3091 -1.37332,1.729 0.05928,0.08398 0.1482,0.24206 0.18772,0.33098 0.21736,-0.1482 0.41002,-0.32604 0.58786,-0.51376 v 1.96118 h 0.36062 v -2.39096 c 0.25194,-0.3458 0.46436,-0.72124 0.63726,-1.11644 z m 0.09386,1.81792 h -1.31898 v -0.28652 c 0.36062,-0.2223 0.741,-0.52364 1.00776,-0.8151 l -0.23712,-0.18772 -0.0741,0.0247 h -2.01058 v 0.33592 h 1.67466 c -0.21736,0.19266 -0.48412,0.3952 -0.72618,0.52364 v 0.40508 h -1.36344 v 0.3458 h 1.36344 v 0.90896 c 0,0.06916 -0.01976,0.08892 -0.10868,0.09386 -0.08398,0.0099 -0.38038,0.0099 -0.70642,-0.0049 0.0494,0.10868 0.0988,0.247 0.11856,0.35074 0.4199,0 0.6916,0 0.85462,-0.05434 0.16302,-0.05928 0.20748,-0.16302 0.20748,-0.38038 v -0.9139 h 1.31898 z"
           style="font-weight:normal;font-family:'Noto Sans CJK SC';-inkscape-font-specification:'Noto Sans CJK SC';text-align:center;text-anchor:middle;fill:#0c322c"
           id="path443" />
        <path
           d="m -45.346904,-34.380942 h -1.0374 v -1.03246 h 1.0374 z m -1.0374,1.51164 v -1.1856 h 1.0374 v 1.1856 z m 0.41496,-3.67536 c -0.03458,0.23218 -0.1235,0.56316 -0.1976,0.80028 h -0.55328 v 3.59632 h 0.33592 v -0.39026 h 1.37332 v -3.20606 h -0.82004 c 0.08398,-0.21242 0.1729,-0.48412 0.25688,-0.72618 z m 3.37402,0.78546 h -1.47706 c 0.08398,-0.23218 0.15314,-0.4693 0.21242,-0.71136 l -0.35074,-0.08398 c -0.15808,0.67678 -0.42484,1.3585 -0.75582,1.79322 0.07904,0.0494 0.23712,0.1482 0.30134,0.20748 0.1729,-0.23218 0.32604,-0.53352 0.46436,-0.8645 h 1.25476 c -0.06422,1.96612 -0.13832,2.717 -0.30134,2.8899 -0.0494,0.06422 -0.10374,0.0741 -0.20254,0.0741 -0.11362,0 -0.41002,0 -0.73112,-0.02964 0.06916,0.10374 0.11362,0.25194 0.1235,0.36062 0.27664,0.01482 0.55822,0.0247 0.73112,0.0049 0.16796,-0.01482 0.28158,-0.05928 0.39026,-0.1976 0.1976,-0.24206 0.26182,-1.00282 0.34086,-3.25546 z m -0.78052,2.223 c -0.15808,-0.29146 -0.49894,-0.7657 -0.77558,-1.11644 l -0.28652,0.16796 c 0.2717,0.35568 0.60268,0.84474 0.75088,1.14114 z"
           style="font-weight:normal;font-family:'Noto Sans CJK SC';-inkscape-font-specification:'Noto Sans CJK SC';text-align:center;text-anchor:middle;fill:#0c322c"
           id="path445" />
        <path
           d="m -40.031465,-36.440922 c -0.08398,0.1976 -0.247,0.47918 -0.3705,0.65702 l 0.23712,0.11362 c 0.13832,-0.16302 0.2964,-0.41002 0.43966,-0.63232 z m -1.15596,0.6669 c -0.0494,-0.18278 -0.18278,-0.4446 -0.3211,-0.63726 l -0.26676,0.10868 c 0.13338,0.20254 0.26182,0.47424 0.30628,0.64714 z m 0.24206,1.3832 h 0.34086 v -0.67678 c 0.23712,0.16796 0.5434,0.41002 0.66196,0.52364 l 0.20254,-0.26676 c -0.11362,-0.08398 -0.53846,-0.36062 -0.78546,-0.50388 h 0.92872 v -0.30628 h -1.00776 v -0.9139 h -0.34086 v 0.9139 h -1.01764 v 0.30628 h 0.90402 c -0.24206,0.3211 -0.60762,0.62244 -0.95342,0.77064 0.06916,0.06916 0.15808,0.19266 0.1976,0.27664 0.30134,-0.15808 0.62244,-0.42978 0.86944,-0.72124 z m 0.75088,0.70642 c -0.10868,0.25688 -0.26676,0.47424 -0.45942,0.65208 -0.17784,-0.08892 -0.37544,-0.18278 -0.55822,-0.26182 0.06916,-0.11362 0.14326,-0.25194 0.21736,-0.39026 z m 0.24206,1.0621 c -0.10868,-0.07904 -0.25688,-0.16796 -0.41496,-0.25688 0.26182,-0.27664 0.46436,-0.62244 0.5928,-1.04728 l -0.20748,-0.08398 -0.05434,0.01482 h -0.80522 c 0.03952,-0.08892 0.06916,-0.1729 0.10374,-0.25688 l -0.32604,-0.05928 c -0.03458,0.10374 -0.07904,0.20748 -0.12844,0.31616 h -0.6669 v 0.31122 h 0.51376 c -0.10374,0.19266 -0.21242,0.37544 -0.31616,0.52364 0.24206,0.08892 0.50882,0.21242 0.75582,0.34086 -0.3211,0.22724 -0.69654,0.38532 -1.09668,0.47424 0.06422,0.06916 0.13832,0.20254 0.1729,0.28158 0.44954,-0.11856 0.86944,-0.31122 1.22018,-0.5928 0.16796,0.09386 0.31616,0.19266 0.42978,0.27664 z m 1.71418,-2.6182 c -0.0741,0.5681 -0.19266,1.0621 -0.3705,1.47706 -0.18772,-0.43966 -0.32604,-0.94354 -0.4199,-1.47706 z m 0.67678,0 v -0.34086 h -1.39308 c 0.06916,-0.27664 0.12844,-0.56316 0.16796,-0.85462 l -0.33592,-0.0494 c -0.1235,0.85462 -0.3458,1.6796 -0.72124,2.1983 0.07904,0.0494 0.21736,0.16302 0.27664,0.2223 0.1235,-0.18772 0.23712,-0.40508 0.33592,-0.64714 0.10868,0.48906 0.247,0.93366 0.43472,1.31898 -0.27664,0.4693 -0.66196,0.82992 -1.19548,1.09174 0.06422,0.06916 0.16796,0.21736 0.20254,0.2964 0.50388,-0.2717 0.87932,-0.6175 1.17078,-1.04728 0.24206,0.4199 0.55328,0.75582 0.93366,0.988 0.05434,-0.09386 0.15808,-0.21736 0.24206,-0.28652 -0.41002,-0.21736 -0.73112,-0.58292 -0.98306,-1.03246 0.26182,-0.50882 0.42484,-1.12138 0.53846,-1.85744 z"
           style="font-weight:normal;font-family:'Noto Sans CJK SC';-inkscape-font-specification:'Noto Sans CJK SC';text-align:center;text-anchor:middle;fill:#0c322c"
           id="path447" />
        <path
           d="m -35.541004,-34.049962 -0.0494,-0.33592 -0.51376,0.16302 v -0.97812 h 0.55822 v -0.34086 h -0.55822 v -0.988 h -0.34086 v 0.988 h -0.61256 v 0.34086 h 0.61256 v 1.08186 c -0.25688,0.0741 -0.48906,0.14326 -0.67184,0.1976 l 0.08892,0.35074 c 0.17784,-0.05434 0.37544,-0.11362 0.58292,-0.18278 v 1.26958 c 0,0.0741 -0.0247,0.09386 -0.08398,0.09386 -0.05434,0 -0.25194,0 -0.46436,-0.0049 0.0494,0.10374 0.09386,0.25194 0.10868,0.34086 0.31122,0.0049 0.49894,-0.0099 0.61256,-0.06916 0.1235,-0.05928 0.16796,-0.15314 0.16796,-0.35568 v -1.38814 z m 0.56316,-0.45448 c 0.0049,-0.11856 0.0049,-0.2223 0.0049,-0.33098 v -0.21242 h 0.95342 v 0.5434 z m 1.88708,-1.49188 v 0.62738 h -1.88214 v -0.62738 z m 0.03458,3.47282 h -1.51658 v -0.74594 h 1.51658 z m 0.48412,-1.66478 v -0.31616 h -1.09668 v -0.5434 h 0.92872 v -1.26958 h -2.58856 v 1.482 c 0,0.78052 -0.04446,1.8525 -0.55328,2.60832 0.08398,0.03458 0.23712,0.13832 0.2964,0.20748 0.41496,-0.60762 0.54834,-1.43754 0.5928,-2.16866 h 0.97318 v 0.60762 h -0.87438 v 1.56598 h 0.3211 v -0.20254 h 1.51658 v 0.18278 h 0.33592 v -1.54622 h -0.94848 v -0.60762 z"
           style="font-weight:normal;font-family:'Noto Sans CJK SC';-inkscape-font-specification:'Noto Sans CJK SC';text-align:center;text-anchor:middle;fill:#0c322c"
           id="path449" />
      </g>
      <path
         fill="none"
         stroke="#0c322c"
         stroke-linecap="square"
         stroke-width=".66"
         marker-end="url(#c)"
         d="M23.02-45.63h62.97"
         id="path177" />
      <path
         fill="none"
         stroke="#0c322c"
         stroke-linecap="square"
         stroke-width=".66"
         marker-end="url(#d)"
         d="M85.61-29.76H22.64"
         id="path179" />
      <g
         aria-label="第 1 条请求"
         id="text183"
         style="font-weight:500;font-size:4.94px;line-height:1.25;font-family:Poppins;-inkscape-font-specification:'Poppins, Medium';letter-spacing:0;stroke-width:0.26">
        <path
           d="m 44.138559,-51.708359 c 0.10868,0.19266 0.20254,0.43472 0.24206,0.58786 l 0.32604,-0.10868 c -0.03458,-0.12844 -0.11362,-0.31122 -0.20254,-0.47918 h 0.7904 v -0.28158 h -1.26464 c 0.05434,-0.11856 0.10868,-0.24206 0.15808,-0.36556 l -0.34086,-0.07904 c -0.16796,0.46436 -0.46436,0.9139 -0.81016,1.2103 0.08892,0.03952 0.23712,0.1235 0.30628,0.17784 0.18278,-0.1729 0.3705,-0.40508 0.52364,-0.66196 z m 0.9139,1.75864 v 0.45942 h -1.1856 c 0.0247,-0.14326 0.0494,-0.30628 0.0741,-0.45942 z m 0.36062,-0.7657 h 1.29428 v 0.45448 h -1.29428 z m 0,1.22512 v -0.45942 h 1.6549 v -1.07692 h -3.61114 v 0.31122 h 1.59562 v 0.45448 h -1.42272 c -0.03952,0.35074 -0.10868,0.7904 -0.1729,1.0868 h 1.30416 c -0.40508,0.4199 -1.03246,0.80028 -1.6055,0.988 0.08398,0.06916 0.18278,0.20254 0.23712,0.29146 0.58786,-0.22724 1.22512,-0.65208 1.65984,-1.14114 v 1.1362 h 0.36062 v -1.27452 h 1.42272 c -0.0494,0.4446 -0.10374,0.63726 -0.16796,0.70642 -0.04446,0.03458 -0.09386,0.03952 -0.17784,0.03952 -0.08892,0 -0.31616,0 -0.55822,-0.0247 0.05434,0.09386 0.09386,0.23218 0.0988,0.34086 0.25194,0.0099 0.494,0.0099 0.62244,0 0.13338,-0.0049 0.22724,-0.03458 0.30628,-0.1235 0.12844,-0.11856 0.19266,-0.4199 0.26182,-1.10162 0.0049,-0.05434 0.0099,-0.15314 0.0099,-0.15314 z m 0.55328,-2.49964 c 0.04446,-0.1235 0.08892,-0.24206 0.12844,-0.36556 l -0.35074,-0.07904 c -0.13338,0.44954 -0.36062,0.87932 -0.65702,1.16584 0.08892,0.03952 0.247,0.13338 0.3211,0.18772 0.15314,-0.16302 0.30134,-0.38038 0.42484,-0.62738 h 0.33592 c 0.15314,0.18772 0.31122,0.43472 0.38038,0.5928 l 0.3211,-0.12844 c -0.05928,-0.12844 -0.1729,-0.30628 -0.30134,-0.46436 h 0.88426 v -0.28158 z"
           style="font-weight:normal;font-family:'Noto Sans CJK SC';-inkscape-font-specification:'Noto Sans CJK SC';text-align:center;text-anchor:middle"
           id="path556" />
        <path
           d="m 49.236641,-51.441599 v -0.41002 h 0.92872 v 3.57162 h -0.45448 v -3.1616 z"
           style="text-align:center;text-anchor:middle;fill:#0c322c"
           id="path558" />
        <path
           d="m 53.44058,-49.188959 c -0.23712,0.30628 -0.67678,0.66196 -1.00282,0.84474 0.07904,0.05928 0.19266,0.18278 0.247,0.26182 0.33098,-0.21736 0.78546,-0.62738 1.04728,-0.96824 z m 2.70218,-0.18772 v -0.3211 h -1.54622 v -0.52364 h -0.36556 v 0.52364 h -1.54622 v 0.3211 h 1.54622 v 1.06704 c 0,0.05434 -0.01976,0.06916 -0.0741,0.0741 -0.05434,0 -0.25194,0 -0.43472,-0.0049 0.0494,0.08892 0.0988,0.2223 0.11362,0.3211 0.27664,0 0.47424,-0.0049 0.59774,-0.05434 0.12844,-0.05928 0.16302,-0.1482 0.16302,-0.33098 v -1.07198 z m -1.09174,0.3705 c 0.34086,0.27664 0.741,0.68172 0.92378,0.94354 l 0.27664,-0.21736 c -0.19266,-0.25688 -0.59774,-0.6422 -0.9386,-0.9139 z m -1.37826,-2.63796 h 1.56104 c -0.20748,0.25688 -0.48412,0.47918 -0.80522,0.6669 -0.31122,-0.18278 -0.57304,-0.3952 -0.78052,-0.6422 z m 1.88214,-0.33592 -0.06916,0.01482 h -1.5314 c 0.10374,-0.1235 0.19266,-0.25688 0.2717,-0.38038 l -0.40014,-0.0741 c -0.25688,0.4446 -0.7657,0.95342 -1.49188,1.3091 0.08398,0.05434 0.1976,0.17784 0.26182,0.26676 0.30628,-0.16796 0.57798,-0.35568 0.81016,-0.55328 0.1976,0.22724 0.42484,0.42484 0.68666,0.60268 -0.5928,0.2717 -1.27946,0.45942 -1.94636,0.54834 0.05928,0.08398 0.13832,0.22724 0.16302,0.32604 0.73112,-0.1235 1.482,-0.33592 2.11926,-0.6669 0.58292,0.31122 1.27946,0.52364 2.04516,0.63232 0.04446,-0.10374 0.14326,-0.247 0.21736,-0.33098 -0.71136,-0.08398 -1.36344,-0.25688 -1.91178,-0.50882 0.4199,-0.2717 0.78052,-0.6175 1.01764,-1.03246 z"
           style="font-weight:normal;font-family:'Noto Sans CJK SC';-inkscape-font-specification:'Noto Sans CJK SC';text-align:center;text-anchor:middle"
           id="path560" />
        <path
           d="m 58.41516,-51.574979 c -0.15314,-0.1976 -0.48906,-0.50388 -0.74594,-0.72124 l -0.23712,0.21736 c 0.25688,0.23218 0.58292,0.55328 0.73112,0.76076 z m -0.21242,2.81086 v -2.10444 H 57.111 v 0.35074 h 0.73606 v 1.79322 c 0,0.21736 -0.13832,0.36556 -0.23218,0.4199 0.06422,0.0741 0.15808,0.22724 0.19266,0.31122 0.0741,-0.09386 0.20254,-0.20254 1.02752,-0.8398 -0.03952,-0.06916 -0.10374,-0.20748 -0.12844,-0.30628 z m 1.12632,-0.16796 v -0.40014 h 1.54128 v 0.40014 z m 1.54128,-1.0374 v 0.38038 h -1.54128 v -0.38038 z m 0.35074,-0.28652 h -2.23782 v 2.35144 h 0.3458 v -0.76076 h 1.54128 v 0.3458 c 0,0.06422 -0.01976,0.08398 -0.09386,0.08398 -0.05928,0.0049 -0.2964,0.0049 -0.54834,-0.0049 0.04446,0.09386 0.09386,0.22724 0.10868,0.31616 0.35074,0.0049 0.5681,0 0.71136,-0.05434 0.13338,-0.05434 0.1729,-0.1482 0.1729,-0.33592 z m -0.94354,-0.56316 v -0.3458 h 1.0374 v -0.26676 h -1.0374 v -0.31122 h 1.1856 v -0.28158 h -1.1856 v -0.38532 h -0.36062 v 0.38532 h -1.1362 v 0.28158 h 1.1362 v 0.31122 h -1.01764 v 0.26676 h 1.01764 v 0.3458 h -1.2844 v 0.28158 h 2.97388 v -0.28158 z"
           style="font-weight:normal;font-family:'Noto Sans CJK SC';-inkscape-font-specification:'Noto Sans CJK SC';text-align:center;text-anchor:middle"
           id="path562" />
        <path
           d="m 65.923961,-51.006879 c -0.2223,0.30628 -0.5928,0.69654 -0.89908,0.97812 -0.2223,-0.35074 -0.41002,-0.73606 -0.54834,-1.1362 v -0.06422 h 1.976 v -0.35568 h -0.60762 l 0.20748,-0.23712 c -0.1976,-0.16796 -0.5928,-0.40014 -0.90402,-0.55822 l -0.21736,0.23218 c 0.2964,0.15808 0.6669,0.39026 0.86944,0.56316 h -1.32392 v -0.8151 h -0.3705 v 0.8151 h -1.94142 v 0.35568 h 1.94142 v 1.36838 c -0.74594,0.42484 -1.55116,0.87438 -2.0501,1.13126 l 0.23712,0.33098 c 0.50388,-0.29146 1.17572,-0.6916 1.81298,-1.0868 v 1.0868 c 0,0.09386 -0.03458,0.11856 -0.1235,0.1235 -0.0988,0.0049 -0.4199,0.0049 -0.75582,-0.0049 0.0494,0.10868 0.10868,0.28158 0.12844,0.38532 0.43472,0 0.72618,-0.0099 0.8892,-0.0741 0.16302,-0.05928 0.23218,-0.1729 0.23218,-0.42978 v -1.96118 c 0.42484,0.90896 1.04234,1.65984 1.83768,2.04516 0.06422,-0.0988 0.18278,-0.24206 0.26676,-0.31122 -0.53352,-0.23218 -1.00282,-0.63726 -1.37332,-1.13126 0.33592,-0.27664 0.73112,-0.67678 1.03246,-1.02752 z m -2.39096,0.98306 c -0.15808,-0.26676 -0.5187,-0.64714 -0.82992,-0.9139 l -0.27664,0.19266 c 0.31122,0.27664 0.65702,0.67184 0.81016,0.9386 z"
           style="font-weight:normal;font-family:'Noto Sans CJK SC';-inkscape-font-specification:'Noto Sans CJK SC';text-align:center;text-anchor:middle"
           id="path564" />
      </g>
      <g
         aria-label="缓存数据"
         id="text187"
         style="font-weight:500;font-size:4.94px;line-height:1.25;font-family:Poppins;-inkscape-font-specification:'Poppins, Medium';letter-spacing:0;stroke-width:0.26">
        <path
           d="m 48.378485,-36.500202 c -0.57304,0.12844 -1.62032,0.21242 -2.47,0.24206 0.03952,0.08398 0.0741,0.20254 0.08398,0.28652 0.86944,-0.0247 1.93648,-0.10374 2.60338,-0.25194 z m -0.92378,1.16584 c -0.0247,-0.16302 -0.08892,-0.43966 -0.15314,-0.65208 l -0.29146,0.0494 c 0.05434,0.21736 0.11362,0.50388 0.13338,0.67184 z m -2.54904,1.52646 c 0.38038,-0.42978 0.75582,-0.95836 1.07198,-1.49682 l -0.31616,-0.18278 c -0.08892,0.17784 -0.1976,0.36556 -0.30628,0.53352 l -0.63232,0.05928 c 0.2964,-0.4199 0.58292,-0.9633 0.80522,-1.48694 l -0.35568,-0.1482 c -0.20254,0.5928 -0.55822,1.22018 -0.67184,1.3832 -0.0988,0.16796 -0.19266,0.28652 -0.27664,0.30628 0.04446,0.09386 0.10374,0.26676 0.1235,0.3458 0.0741,-0.03458 0.18772,-0.05928 0.79534,-0.12844 -0.21736,0.30628 -0.41496,0.55328 -0.50388,0.65208 -0.15314,0.17784 -0.26676,0.2964 -0.37544,0.31616 0.04446,0.0988 0.0988,0.26182 0.11856,0.33592 0.0988,-0.05928 0.26676,-0.10374 1.49188,-0.35074 -0.0099,-0.0741 -0.01482,-0.21736 -0.0099,-0.31122 z m 0.93366,0.65702 c -0.59774,0.18278 -1.20042,0.37544 -1.60056,0.47918 l 0.08892,0.36556 c 0.43472,-0.15808 1.01764,-0.35568 1.57092,-0.55328 z m 0.29146,-2.68242 c 0.08398,0.20254 0.18772,0.46436 0.22724,0.62738 l 0.30134,-0.10374 c -0.04446,-0.15314 -0.15314,-0.41002 -0.24206,-0.59774 z m 1.86238,2.2477 c -0.1235,0.29146 -0.30134,0.52364 -0.52364,0.71136 -0.27664,-0.19266 -0.49894,-0.43472 -0.65702,-0.71136 z m 0.22724,-0.2964 -0.06422,0.0099 h -1.37332 c 0.0247,-0.10868 0.0494,-0.2223 0.06422,-0.33098 h 1.89202 v -0.31122 h -1.84756 c 0.01482,-0.13338 0.02964,-0.26676 0.03952,-0.39026 h 1.74876 v -0.30134 h -0.5928 c 0.14326,-0.21242 0.31122,-0.47918 0.44954,-0.7163 l -0.3458,-0.11362 c -0.10374,0.247 -0.29146,0.58786 -0.45448,0.82992 h -1.75864 v 0.30134 h 0.59774 c -0.0099,0.1235 -0.01976,0.25688 -0.03952,0.39026 h -0.75088 v 0.31122 h 0.71136 c -0.11856,0.71136 -0.37544,1.47706 -1.04234,1.92166 0.08398,0.05434 0.1976,0.1729 0.247,0.25194 0.45942,-0.3211 0.73606,-0.77064 0.91884,-1.26464 0.15314,0.23712 0.3458,0.4446 0.5681,0.62244 -0.29146,0.17784 -0.63232,0.30134 -1.00282,0.38532 0.06422,0.05434 0.16796,0.1976 0.20748,0.2717 0.39026,-0.0988 0.75582,-0.24206 1.07198,-0.45942 0.33098,0.21736 0.72124,0.3705 1.15596,0.46436 0.0494,-0.09386 0.1482,-0.23712 0.22724,-0.31122 -0.40508,-0.0741 -0.78052,-0.1976 -1.10162,-0.37544 0.30134,-0.27664 0.52858,-0.63232 0.67678,-1.09668 z"
           style="font-weight:normal;font-family:'Noto Sans CJK SC';-inkscape-font-specification:'Noto Sans CJK SC';text-align:center;text-anchor:middle;fill:#0c322c"
           id="path567" />
        <path
           d="m 53.609946,-35.536902 v -0.35568 h -2.524341 c 0.0741,-0.18278 0.133381,-0.36556 0.192661,-0.55328 l -0.375441,-0.08892 c -0.05928,0.21242 -0.13338,0.42978 -0.21736,0.6422 h -1.36344 v 0.35568 h 1.21524 c -0.3211,0.68172 -0.77064,1.3091 -1.37332,1.729 0.05928,0.08398 0.1482,0.24206 0.18772,0.33098 0.21736,-0.1482 0.41002,-0.32604 0.58786,-0.51376 v 1.96118 h 0.36062 v -2.39096 c 0.25194,-0.3458 0.46436,-0.72124 0.63726,-1.11644 z m 0.09386,1.81792 h -1.31898 v -0.28652 c 0.36062,-0.2223 0.741,-0.52364 1.00776,-0.8151 l -0.23712,-0.18772 -0.0741,0.0247 h -2.010581 v 0.33592 h 1.674661 c -0.21736,0.19266 -0.48412,0.3952 -0.72618,0.52364 v 0.40508 h -1.363441 v 0.3458 h 1.363441 v 0.90896 c 0,0.06916 -0.01976,0.08892 -0.10868,0.09386 -0.08398,0.0099 -0.38038,0.0099 -0.70642,-0.0049 0.0494,0.10868 0.0988,0.247 0.11856,0.35074 0.4199,0 0.6916,0 0.85462,-0.05434 0.16302,-0.05928 0.20748,-0.16302 0.20748,-0.38038 v -0.9139 h 1.31898 z"
           style="font-weight:normal;font-family:'Noto Sans CJK SC';-inkscape-font-specification:'Noto Sans CJK SC';text-align:center;text-anchor:middle;fill:#0c322c"
           id="path569" />
        <path
           d="m 56.124406,-36.440922 c -0.08398,0.1976 -0.247,0.47918 -0.3705,0.65702 l 0.23712,0.11362 c 0.13832,-0.16302 0.2964,-0.41002 0.43966,-0.63232 z m -1.15596,0.6669 c -0.0494,-0.18278 -0.18278,-0.4446 -0.3211,-0.63726 l -0.26676,0.10868 c 0.13338,0.20254 0.26182,0.47424 0.30628,0.64714 z m 0.24206,1.3832 h 0.34086 v -0.67678 c 0.23712,0.16796 0.5434,0.41002 0.66196,0.52364 l 0.20254,-0.26676 c -0.11362,-0.08398 -0.53846,-0.36062 -0.78546,-0.50388 h 0.92872 v -0.30628 h -1.00776 v -0.9139 h -0.34086 v 0.9139 h -1.01764 v 0.30628 h 0.90402 c -0.24206,0.3211 -0.60762,0.62244 -0.95342,0.77064 0.06916,0.06916 0.15808,0.19266 0.1976,0.27664 0.30134,-0.15808 0.62244,-0.42978 0.86944,-0.72124 z m 0.75088,0.70642 c -0.10868,0.25688 -0.26676,0.47424 -0.45942,0.65208 -0.17784,-0.08892 -0.37544,-0.18278 -0.55822,-0.26182 0.06916,-0.11362 0.14326,-0.25194 0.21736,-0.39026 z m 0.24206,1.0621 c -0.10868,-0.07904 -0.25688,-0.16796 -0.41496,-0.25688 0.26182,-0.27664 0.46436,-0.62244 0.5928,-1.04728 l -0.20748,-0.08398 -0.05434,0.01482 h -0.80522 c 0.03952,-0.08892 0.06916,-0.1729 0.10374,-0.25688 l -0.32604,-0.05928 c -0.03458,0.10374 -0.07904,0.20748 -0.12844,0.31616 h -0.6669 v 0.31122 h 0.51376 c -0.10374,0.19266 -0.21242,0.37544 -0.31616,0.52364 0.24206,0.08892 0.50882,0.21242 0.75582,0.34086 -0.3211,0.22724 -0.69654,0.38532 -1.09668,0.47424 0.06422,0.06916 0.13832,0.20254 0.1729,0.28158 0.44954,-0.11856 0.86944,-0.31122 1.22018,-0.5928 0.16796,0.09386 0.31616,0.19266 0.42978,0.27664 z m 1.71418,-2.6182 c -0.0741,0.5681 -0.19266,1.0621 -0.3705,1.47706 -0.18772,-0.43966 -0.32604,-0.94354 -0.4199,-1.47706 z m 0.67678,0 v -0.34086 h -1.39308 c 0.06916,-0.27664 0.12844,-0.56316 0.16796,-0.85462 l -0.33592,-0.0494 c -0.1235,0.85462 -0.3458,1.6796 -0.72124,2.1983 0.07904,0.0494 0.21736,0.16302 0.27664,0.2223 0.1235,-0.18772 0.23712,-0.40508 0.33592,-0.64714 0.10868,0.48906 0.247,0.93366 0.43472,1.31898 -0.27664,0.4693 -0.66196,0.82992 -1.19548,1.09174 0.06422,0.06916 0.16796,0.21736 0.20254,0.2964 0.50388,-0.2717 0.87932,-0.6175 1.17078,-1.04728 0.24206,0.4199 0.55328,0.75582 0.93366,0.988 0.05434,-0.09386 0.15808,-0.21736 0.24206,-0.28652 -0.41002,-0.21736 -0.73112,-0.58292 -0.98306,-1.03246 0.26182,-0.50882 0.42484,-1.12138 0.53846,-1.85744 z"
           style="font-weight:normal;font-family:'Noto Sans CJK SC';-inkscape-font-specification:'Noto Sans CJK SC';text-align:center;text-anchor:middle;fill:#0c322c"
           id="path571" />
        <path
           d="m 60.614865,-34.049962 -0.0494,-0.33592 -0.51376,0.16302 v -0.97812 h 0.55822 v -0.34086 h -0.55822 v -0.988 h -0.34086 v 0.988 h -0.61256 v 0.34086 h 0.61256 v 1.08186 c -0.25688,0.0741 -0.48906,0.14326 -0.67184,0.1976 l 0.08892,0.35074 c 0.17784,-0.05434 0.37544,-0.11362 0.58292,-0.18278 v 1.26958 c 0,0.0741 -0.0247,0.09386 -0.08398,0.09386 -0.05434,0 -0.25194,0 -0.46436,-0.0049 0.0494,0.10374 0.09386,0.25194 0.10868,0.34086 0.31122,0.0049 0.49894,-0.0099 0.61256,-0.06916 0.1235,-0.05928 0.16796,-0.15314 0.16796,-0.35568 v -1.38814 z m 0.56316,-0.45448 c 0.0049,-0.11856 0.0049,-0.2223 0.0049,-0.33098 v -0.21242 h 0.95342 v 0.5434 z m 1.88708,-1.49188 v 0.62738 h -1.88214 v -0.62738 z m 0.03458,3.47282 h -1.51658 v -0.74594 h 1.51658 z m 0.48412,-1.66478 v -0.31616 h -1.09668 v -0.5434 h 0.92872 v -1.26958 h -2.58856 v 1.482 c 0,0.78052 -0.04446,1.8525 -0.55328,2.60832 0.08398,0.03458 0.23712,0.13832 0.2964,0.20748 0.41496,-0.60762 0.54834,-1.43754 0.5928,-2.16866 h 0.97318 v 0.60762 h -0.87438 v 1.56598 h 0.3211 v -0.20254 h 1.51658 v 0.18278 h 0.33592 v -1.54622 h -0.94848 v -0.60762 z"
           style="font-weight:normal;font-family:'Noto Sans CJK SC';-inkscape-font-specification:'Noto Sans CJK SC';text-align:center;text-anchor:middle;fill:#0c322c"
           id="path573" />
      </g>
      <path
         fill="none"
         stroke="#0c322c"
         stroke-linecap="square"
         stroke-width=".66"
         marker-end="url(#e)"
         d="M-74.88 12.58h62.97"
         id="path189" />
      <path
         fill="none"
         stroke="#0c322c"
         stroke-linecap="square"
         stroke-width=".66"
         marker-end="url(#f)"
         d="M-12.28 28.45h-62.97"
         id="path191" />
      <g
         aria-label="请求"
         id="text195"
         style="font-weight:500;font-size:4.94px;line-height:1.25;font-family:Poppins;-inkscape-font-specification:'Poppins, Medium';letter-spacing:0;stroke-width:0.26">
        <path
           d="m -48.675114,6.6350203 c -0.15314,-0.1976 -0.48906,-0.50388 -0.74594,-0.72124 l -0.23712,0.21736 c 0.25688,0.23218 0.58292,0.55328 0.73112,0.76076 z m -0.21242,2.81086 v -2.10444 h -1.09174 v 0.35074 h 0.73606 v 1.79322 c 0,0.21736 -0.13832,0.36556 -0.23218,0.4199 0.06422,0.0741 0.15808,0.2272397 0.19266,0.3112197 0.0741,-0.09386 0.20254,-0.20254 1.02752,-0.8397997 -0.03952,-0.06916 -0.10374,-0.20748 -0.12844,-0.30628 z m 1.12632,-0.16796 v -0.40014 h 1.54128 v 0.40014 z m 1.54128,-1.0374 v 0.38038 h -1.54128 v -0.38038 z m 0.35074,-0.28652 h -2.23782 V 10.30544 h 0.3458 V 9.5446803 h 1.54128 v 0.3458 c 0,0.06422 -0.01976,0.08398 -0.09386,0.08398 -0.05928,0.00494 -0.2964,0.00494 -0.54834,-0.00494 0.04446,0.09386 0.09386,0.2272397 0.10868,0.3161597 0.35074,0.0049 0.5681,0 0.71136,-0.05434 0.13338,-0.05434 0.1729,-0.1482 0.1729,-0.3359197 z m -0.94354,-0.56316 v -0.3458 h 1.0374 v -0.26676 h -1.0374 v -0.31122 h 1.1856 v -0.28158 h -1.1856 v -0.38532 h -0.36062 v 0.38532 h -1.1362 v 0.28158 h 1.1362 v 0.31122 h -1.01764 v 0.26676 h 1.01764 v 0.3458 h -1.2844 v 0.28158 h 2.97388 v -0.28158 z"
           style="font-weight:normal;font-family:'Noto Sans CJK SC';-inkscape-font-specification:'Noto Sans CJK SC';text-align:center;text-anchor:middle;fill:#0c322c"
           id="path452" />
        <path
           d="m -41.166314,7.2031203 c -0.2223,0.30628 -0.5928,0.69654 -0.89908,0.97812 -0.2223,-0.35074 -0.41002,-0.73606 -0.54834,-1.1362 v -0.06422 h 1.976 v -0.35568 h -0.60762 l 0.20748,-0.23712 c -0.1976,-0.16796 -0.5928,-0.40014 -0.90402,-0.55822 l -0.21736,0.23218 c 0.2964,0.15808 0.6669,0.39026 0.86944,0.56316 h -1.32392 v -0.8151 h -0.3705 v 0.8151 h -1.94142 v 0.35568 h 1.94142 v 1.36838 c -0.74594,0.42484 -1.55116,0.87438 -2.0501,1.13126 l 0.23712,0.33098 c 0.50388,-0.29146 1.17572,-0.6916 1.81298,-1.0868 v 1.0868 c 0,0.09386 -0.03458,0.11856 -0.1235,0.1235 -0.0988,0.00494 -0.4199,0.00494 -0.75582,-0.00494 0.0494,0.1086797 0.10868,0.2815797 0.12844,0.3853197 0.43472,0 0.72618,-0.0099 0.8892,-0.0741 0.16302,-0.05928 0.23218,-0.1729 0.23218,-0.4297797 v -1.96118 c 0.42484,0.90896 1.04234,1.65984 1.83768,2.04516 0.06422,-0.0988 0.18278,-0.24206 0.26676,-0.31122 -0.53352,-0.23218 -1.00282,-0.63726 -1.37332,-1.13126 0.33592,-0.27664 0.73112,-0.67678 1.03246,-1.02752 z m -2.39096,0.98306 c -0.15808,-0.26676 -0.5187,-0.64714 -0.82992,-0.9139 l -0.27664,0.19266 c 0.31122,0.27664 0.65702,0.67184 0.81016,0.9386 z"
           style="font-weight:normal;font-family:'Noto Sans CJK SC';-inkscape-font-specification:'Noto Sans CJK SC';text-align:center;text-anchor:middle;fill:#0c322c"
           id="path454" />
      </g>
      <g
         aria-label="缓存的数据"
         id="text199"
         style="font-weight:500;font-size:4.94px;line-height:1.25;font-family:Poppins;-inkscape-font-specification:'Poppins, Medium';letter-spacing:0;stroke-width:0.26">
        <path
           d="m -53.774899,21.699799 c -0.57304,0.12844 -1.62032,0.21242 -2.47,0.24206 0.03952,0.08398 0.0741,0.20254 0.08398,0.28652 0.86944,-0.0247 1.93648,-0.10374 2.603381,-0.25194 z m -0.92378,1.16584 c -0.0247,-0.16302 -0.08892,-0.43966 -0.15314,-0.65208 l -0.29146,0.0494 c 0.05434,0.21736 0.11362,0.50388 0.13338,0.67184 z m -2.54904,1.52646 c 0.38038,-0.42978 0.75582,-0.95836 1.07198,-1.49682 l -0.31616,-0.18278 c -0.08892,0.17784 -0.1976,0.36556 -0.30628,0.53352 l -0.63232,0.05928 c 0.2964,-0.4199 0.58292,-0.9633 0.80522,-1.48694 l -0.35568,-0.1482 c -0.20254,0.5928 -0.55822,1.22018 -0.67184,1.3832 -0.0988,0.16796 -0.19266,0.28652 -0.27664,0.30628 0.04446,0.09386 0.10374,0.26676 0.1235,0.3458 0.0741,-0.03458 0.18772,-0.05928 0.79534,-0.12844 -0.21736,0.30628 -0.41496,0.55328 -0.50388,0.65208 -0.15314,0.17784 -0.26676,0.2964 -0.37544,0.31616 0.04446,0.0988 0.0988,0.26182 0.11856,0.33592 0.0988,-0.05928 0.26676,-0.10374 1.49188,-0.35074 -0.0099,-0.0741 -0.01482,-0.21736 -0.0099,-0.31122 z m 0.93366,0.65702 c -0.59774,0.18278 -1.20042,0.37544 -1.60056,0.47918 l 0.08892,0.36556 c 0.43472,-0.15808 1.01764,-0.35568 1.57092,-0.55328 z m 0.29146,-2.68242 c 0.08398,0.20254 0.18772,0.46436 0.22724,0.62738 l 0.30134,-0.10374 c -0.04446,-0.15314 -0.15314,-0.41002 -0.24206,-0.59774 z m 1.86238,2.2477 c -0.1235,0.29146 -0.30134,0.52364 -0.52364,0.71136 -0.27664,-0.19266 -0.49894,-0.43472 -0.65702,-0.71136 z m 0.22724,-0.2964 -0.06422,0.0099 h -1.37332 c 0.0247,-0.10868 0.0494,-0.2223 0.06422,-0.33098 h 1.892021 v -0.31122 h -1.847561 c 0.01482,-0.13338 0.02964,-0.26676 0.03952,-0.39026 h 1.748761 v -0.30134 h -0.592801 c 0.14326,-0.21242 0.31122,-0.47918 0.44954,-0.7163 l -0.3458,-0.11362 c -0.10374,0.247 -0.29146,0.58786 -0.45448,0.82992 h -1.75864 v 0.30134 h 0.59774 c -0.0099,0.1235 -0.01976,0.25688 -0.03952,0.39026 h -0.75088 v 0.31122 h 0.71136 c -0.11856,0.71136 -0.37544,1.47706 -1.04234,1.92166 0.08398,0.05434 0.1976,0.1729 0.247,0.25194 0.45942,-0.3211 0.73606,-0.77064 0.91884,-1.26464 0.15314,0.23712 0.3458,0.4446 0.5681,0.62244 -0.29146,0.17784 -0.63232,0.30134 -1.00282,0.38532 0.06422,0.05434 0.16796,0.1976 0.20748,0.2717 0.39026,-0.0988 0.75582,-0.24206 1.07198,-0.45942 0.33098,0.21736 0.72124,0.3705 1.155961,0.46436 0.0494,-0.09386 0.1482,-0.23712 0.22724,-0.31122 -0.405081,-0.0741 -0.780521,-0.1976 -1.101621,-0.37544 0.30134,-0.27664 0.52858,-0.63232 0.67678,-1.09668 z"
           style="font-weight:normal;font-family:'Noto Sans CJK SC';-inkscape-font-specification:'Noto Sans CJK SC';text-align:center;text-anchor:middle;fill:#0c322c"
           id="path457" />
        <path
           d="m -48.543438,22.663099 v -0.35568 h -2.52434 c 0.0741,-0.18278 0.13338,-0.36556 0.19266,-0.55328 l -0.37544,-0.08892 c -0.05928,0.21242 -0.13338,0.42978 -0.21736,0.6422 h -1.36344 v 0.35568 h 1.21524 c -0.3211,0.68172 -0.77064,1.3091 -1.37332,1.729 0.05928,0.08398 0.1482,0.24206 0.18772,0.33098 0.21736,-0.1482 0.41002,-0.32604 0.58786,-0.51376 v 1.96118 h 0.36062 v -2.39096 c 0.25194,-0.3458 0.46436,-0.72124 0.63726,-1.11644 z m 0.09386,1.81792 h -1.31898 v -0.28652 c 0.36062,-0.2223 0.741,-0.52364 1.00776,-0.8151 l -0.23712,-0.18772 -0.0741,0.0247 h -2.01058 v 0.33592 h 1.67466 c -0.21736,0.19266 -0.48412,0.3952 -0.72618,0.52364 v 0.40508 h -1.36344 v 0.3458 h 1.36344 v 0.90896 c 0,0.06916 -0.01976,0.08892 -0.10868,0.09386 -0.08398,0.0099 -0.38038,0.0099 -0.70642,-0.0049 0.0494,0.10868 0.0988,0.247 0.11856,0.35074 0.4199,0 0.6916,0 0.85462,-0.05434 0.16302,-0.05928 0.20748,-0.16302 0.20748,-0.38038 v -0.9139 h 1.31898 z"
           style="font-weight:normal;font-family:'Noto Sans CJK SC';-inkscape-font-specification:'Noto Sans CJK SC';text-align:center;text-anchor:middle;fill:#0c322c"
           id="path459" />
        <path
           d="m -46.404418,23.819059 h -1.0374 v -1.03246 h 1.0374 z m -1.0374,1.51164 v -1.1856 h 1.0374 v 1.1856 z m 0.41496,-3.67536 c -0.03458,0.23218 -0.1235,0.56316 -0.1976,0.80028 h -0.55328 v 3.59632 h 0.33592 v -0.39026 h 1.37332 v -3.20606 h -0.82004 c 0.08398,-0.21242 0.1729,-0.48412 0.25688,-0.72618 z m 3.37402,0.78546 h -1.47706 c 0.08398,-0.23218 0.15314,-0.4693 0.21242,-0.71136 l -0.35074,-0.08398 c -0.15808,0.67678 -0.42484,1.3585 -0.75582,1.79322 0.07904,0.0494 0.23712,0.1482 0.30134,0.20748 0.1729,-0.23218 0.32604,-0.53352 0.46436,-0.8645 h 1.25476 c -0.06422,1.96612 -0.13832,2.717 -0.30134,2.8899 -0.0494,0.06422 -0.10374,0.0741 -0.20254,0.0741 -0.11362,0 -0.41002,0 -0.73112,-0.02964 0.06916,0.10374 0.11362,0.25194 0.1235,0.36062 0.27664,0.01482 0.55822,0.0247 0.73112,0.0049 0.16796,-0.01482 0.28158,-0.05928 0.39026,-0.1976 0.1976,-0.24206 0.26182,-1.00282 0.34086,-3.25546 z m -0.78052,2.223 c -0.15808,-0.29146 -0.49894,-0.7657 -0.77558,-1.11644 l -0.28652,0.16796 c 0.2717,0.35568 0.60268,0.84474 0.75088,1.14114 z"
           style="font-weight:normal;font-family:'Noto Sans CJK SC';-inkscape-font-specification:'Noto Sans CJK SC';text-align:center;text-anchor:middle;fill:#0c322c"
           id="path461" />
        <path
           d="m -41.088979,21.759079 c -0.08398,0.1976 -0.247,0.47918 -0.3705,0.65702 l 0.23712,0.11362 c 0.13832,-0.16302 0.2964,-0.41002 0.43966,-0.63232 z m -1.15596,0.6669 c -0.0494,-0.18278 -0.18278,-0.4446 -0.3211,-0.63726 l -0.26676,0.10868 c 0.13338,0.20254 0.26182,0.47424 0.30628,0.64714 z m 0.24206,1.3832 h 0.34086 v -0.67678 c 0.23712,0.16796 0.5434,0.41002 0.66196,0.52364 l 0.20254,-0.26676 c -0.11362,-0.08398 -0.53846,-0.36062 -0.78546,-0.50388 h 0.92872 v -0.30628 h -1.00776 v -0.9139 h -0.34086 v 0.9139 h -1.01764 v 0.30628 h 0.90402 c -0.24206,0.3211 -0.60762,0.62244 -0.95342,0.77064 0.06916,0.06916 0.15808,0.19266 0.1976,0.27664 0.30134,-0.15808 0.62244,-0.42978 0.86944,-0.72124 z m 0.75088,0.70642 c -0.10868,0.25688 -0.26676,0.47424 -0.45942,0.65208 -0.17784,-0.08892 -0.37544,-0.18278 -0.55822,-0.26182 0.06916,-0.11362 0.14326,-0.25194 0.21736,-0.39026 z m 0.24206,1.0621 c -0.10868,-0.07904 -0.25688,-0.16796 -0.41496,-0.25688 0.26182,-0.27664 0.46436,-0.62244 0.5928,-1.04728 l -0.20748,-0.08398 -0.05434,0.01482 h -0.80522 c 0.03952,-0.08892 0.06916,-0.1729 0.10374,-0.25688 l -0.32604,-0.05928 c -0.03458,0.10374 -0.07904,0.20748 -0.12844,0.31616 h -0.6669 v 0.31122 h 0.51376 c -0.10374,0.19266 -0.21242,0.37544 -0.31616,0.52364 0.24206,0.08892 0.50882,0.21242 0.75582,0.34086 -0.3211,0.22724 -0.69654,0.38532 -1.09668,0.47424 0.06422,0.06916 0.13832,0.20254 0.1729,0.28158 0.44954,-0.11856 0.86944,-0.31122 1.22018,-0.5928 0.16796,0.09386 0.31616,0.19266 0.42978,0.27664 z m 1.71418,-2.6182 c -0.0741,0.5681 -0.19266,1.0621 -0.3705,1.47706 -0.18772,-0.43966 -0.32604,-0.94354 -0.4199,-1.47706 z m 0.67678,0 v -0.34086 h -1.39308 c 0.06916,-0.27664 0.12844,-0.56316 0.16796,-0.85462 l -0.33592,-0.0494 c -0.1235,0.85462 -0.3458,1.6796 -0.72124,2.1983 0.07904,0.0494 0.21736,0.16302 0.27664,0.2223 0.1235,-0.18772 0.23712,-0.40508 0.33592,-0.64714 0.10868,0.48906 0.247,0.93366 0.43472,1.31898 -0.27664,0.4693 -0.66196,0.82992 -1.19548,1.09174 0.06422,0.06916 0.16796,0.21736 0.20254,0.2964 0.50388,-0.2717 0.87932,-0.6175 1.17078,-1.04728 0.24206,0.4199 0.55328,0.75582 0.93366,0.988 0.05434,-0.09386 0.15808,-0.21736 0.24206,-0.28652 -0.41002,-0.21736 -0.73112,-0.58292 -0.98306,-1.03246 0.26182,-0.50882 0.42484,-1.12138 0.53846,-1.85744 z"
           style="font-weight:normal;font-family:'Noto Sans CJK SC';-inkscape-font-specification:'Noto Sans CJK SC';text-align:center;text-anchor:middle;fill:#0c322c"
           id="path463" />
        <path
           d="m -36.598518,24.150039 -0.0494,-0.33592 -0.51376,0.16302 v -0.97812 h 0.55822 v -0.34086 h -0.55822 v -0.988 h -0.34086 v 0.988 h -0.61256 v 0.34086 h 0.61256 v 1.08186 c -0.25688,0.0741 -0.48906,0.14326 -0.67184,0.1976 l 0.08892,0.35074 c 0.17784,-0.05434 0.37544,-0.11362 0.58292,-0.18278 v 1.26958 c 0,0.0741 -0.0247,0.09386 -0.08398,0.09386 -0.05434,0 -0.25194,0 -0.46436,-0.0049 0.0494,0.10374 0.09386,0.25194 0.10868,0.34086 0.31122,0.0049 0.49894,-0.0099 0.61256,-0.06916 0.1235,-0.05928 0.16796,-0.15314 0.16796,-0.35568 v -1.38814 z m 0.56316,-0.45448 c 0.0049,-0.11856 0.0049,-0.2223 0.0049,-0.33098 v -0.21242 h 0.95342 v 0.5434 z m 1.88708,-1.49188 v 0.62738 h -1.88214 v -0.62738 z m 0.03458,3.47282 h -1.51658 v -0.74594 h 1.51658 z m 0.48412,-1.66478 v -0.31616 h -1.09668 v -0.5434 h 0.92872 v -1.26958 h -2.58856 v 1.482 c 0,0.78052 -0.04446,1.8525 -0.55328,2.60832 0.08398,0.03458 0.23712,0.13832 0.2964,0.20748 0.41496,-0.60762 0.54834,-1.43754 0.5928,-2.16866 h 0.97318 v 0.60762 h -0.87438 v 1.56598 h 0.3211 v -0.20254 h 1.51658 v 0.18278 h 0.33592 v -1.54622 h -0.94848 v -0.60762 z"
           style="font-weight:normal;font-family:'Noto Sans CJK SC';-inkscape-font-specification:'Noto Sans CJK SC';text-align:center;text-anchor:middle;fill:#0c322c"
           id="path465" />
      </g>
      <g
         aria-label="第 1 条请求"
         id="text203"
         style="font-weight:500;font-size:5.82px;line-height:1.25;font-family:Poppins;-inkscape-font-specification:'Poppins, Medium';letter-spacing:0;stroke-width:0.26">
        <path
           d="m -106.11114,-68.099078 c 0.12804,0.22698 0.23862,0.51216 0.28518,0.69258 l 0.38412,-0.12804 c -0.0407,-0.15132 -0.13386,-0.36666 -0.23862,-0.56454 h 0.9312 v -0.33174 h -1.48992 c 0.064,-0.13968 0.12804,-0.28518 0.18624,-0.43068 l -0.40158,-0.09312 c -0.19788,0.54708 -0.54708,1.0767 -0.95448,1.4259 0.10476,0.04656 0.27936,0.1455 0.36084,0.20952 0.21534,-0.2037 0.4365,-0.47724 0.61692,-0.77988 z m 1.0767,2.07192 v 0.54126 h -1.3968 c 0.0291,-0.16878 0.0582,-0.36084 0.0873,-0.54126 z m 0.42486,-0.9021 h 1.52484 v 0.53544 h -1.52484 z m 0,1.44336 v -0.54126 h 1.9497 v -1.26876 h -4.25442 v 0.36666 h 1.87986 v 0.53544 h -1.67616 c -0.0466,0.41322 -0.12804,0.9312 -0.2037,1.2804 h 1.53648 c -0.47724,0.4947 -1.21638,0.94284 -1.8915,1.164 0.0989,0.08148 0.21534,0.23862 0.27936,0.34338 0.69258,-0.26772 1.44336,-0.76824 1.95552,-1.34442 v 1.3386 h 0.42486 v -1.50156 h 1.67616 c -0.0582,0.5238 -0.12222,0.75078 -0.19788,0.83226 -0.0524,0.04074 -0.11058,0.04656 -0.20952,0.04656 -0.10476,0 -0.37248,0 -0.65766,-0.0291 0.064,0.11058 0.11058,0.27354 0.1164,0.40158 0.29682,0.01164 0.582,0.01164 0.73332,0 0.15714,-0.0058 0.26772,-0.04074 0.36084,-0.1455 0.15132,-0.13968 0.22698,-0.4947 0.30846,-1.29786 0.006,-0.06402 0.0116,-0.18042 0.0116,-0.18042 z m 0.65184,-2.94492 c 0.0524,-0.1455 0.10476,-0.28518 0.15132,-0.43068 l -0.41322,-0.09312 c -0.15714,0.52962 -0.42486,1.03596 -0.77406,1.37352 0.10476,0.04656 0.291,0.15714 0.3783,0.22116 0.18042,-0.19206 0.35502,-0.44814 0.50052,-0.73914 h 0.39576 c 0.18042,0.22116 0.36666,0.51216 0.44814,0.6984 l 0.3783,-0.15132 c -0.0698,-0.15132 -0.2037,-0.36084 -0.35502,-0.54708 h 1.04178 v -0.33174 z"
           style="font-weight:normal;font-family:'Noto Sans CJK SC';-inkscape-font-specification:'Noto Sans CJK SC'"
           id="path335" />
        <path
           d="m -100.1049,-67.784798 v -0.48306 h 1.094165 v 4.20786 h -0.535441 v -3.7248 z"
           id="path337" />
        <path
           d="m -95.152076,-65.130878 c -0.27936,0.36084 -0.79734,0.77988 -1.18146,0.99522 0.09312,0.06984 0.22698,0.21534 0.291,0.30846 0.38994,-0.25608 0.92538,-0.73914 1.23384,-1.14072 z m 3.18354,-0.22116 v -0.3783 h -1.82166 v -0.61692 h -0.43068 v 0.61692 h -1.82166 v 0.3783 h 1.82166 v 1.25712 c 0,0.06402 -0.02328,0.08148 -0.0873,0.0873 -0.06402,0 -0.29682,0 -0.51216,-0.0058 0.0582,0.10476 0.1164,0.2619 0.13386,0.3783 0.32592,0 0.55872,-0.0058 0.70422,-0.06402 0.15132,-0.06984 0.19206,-0.1746 0.19206,-0.38994 v -1.26294 z m -1.28622,0.4365 c 0.40158,0.32592 0.873,0.80316 1.08834,1.11162 l 0.32592,-0.25608 c -0.22698,-0.30264 -0.70422,-0.7566 -1.1058,-1.0767 z m -1.62378,-3.10788 h 1.83912 c -0.24444,0.30264 -0.57036,0.56454 -0.94866,0.7857 -0.36666,-0.21534 -0.67512,-0.4656 -0.91956,-0.7566 z m 2.21742,-0.39576 -0.08148,0.01746 h -1.8042 c 0.12222,-0.1455 0.22698,-0.30264 0.3201,-0.44814 l -0.47142,-0.0873 c -0.30264,0.5238 -0.9021,1.12326 -1.75764,1.5423 0.09894,0.06402 0.2328,0.20952 0.30846,0.31428 0.36084,-0.19788 0.68094,-0.41904 0.95448,-0.65184 0.2328,0.26772 0.50052,0.50052 0.80898,0.71004 -0.6984,0.3201 -1.50738,0.54126 -2.29308,0.64602 0.06984,0.09894 0.16296,0.26772 0.19206,0.38412 0.86136,-0.1455 1.746,-0.39576 2.49678,-0.7857 0.68676,0.36666 1.50738,0.61692 2.409481,0.74496 0.05238,-0.12222 0.16878,-0.291 0.25608,-0.38994 -0.838081,-0.09894 -1.606321,-0.30264 -2.252341,-0.59946 0.4947,-0.3201 0.91956,-0.7275 1.19892,-1.21638 z"
           style="font-weight:normal;font-family:'Noto Sans CJK SC';-inkscape-font-specification:'Noto Sans CJK SC'"
           id="path339" />
        <path
           d="m -89.291336,-67.941938 c -0.18042,-0.2328 -0.57618,-0.59364 -0.87882,-0.84972 l -0.27936,0.25608 c 0.30264,0.27354 0.68676,0.65184 0.86136,0.89628 z m -0.25026,3.31158 v -2.47932 h -1.28622 v 0.41322 h 0.86718 v 2.11266 c 0,0.25608 -0.16296,0.43068 -0.27354,0.4947 0.07566,0.0873 0.18624,0.26772 0.22698,0.36666 0.0873,-0.11058 0.23862,-0.23862 1.21056,-0.9894 -0.04656,-0.08148 -0.12222,-0.24444 -0.15132,-0.36084 z m 1.32696,-0.19788 v -0.47142 h 1.81584 v 0.47142 z m 1.81584,-1.2222 v 0.44814 h -1.81584 v -0.44814 z m 0.41322,-0.33756 h -2.63646 v 2.77032 h 0.4074 v -0.89628 h 1.81584 v 0.4074 c 0,0.07566 -0.02328,0.09894 -0.11058,0.09894 -0.06984,0.0058 -0.3492,0.0058 -0.64602,-0.0058 0.05238,0.11058 0.11058,0.26772 0.12804,0.37248 0.41322,0.0058 0.6693,0 0.83808,-0.06402 0.15714,-0.06402 0.2037,-0.1746 0.2037,-0.39576 z m -1.11162,-0.66348 v -0.4074 h 1.2222 v -0.31428 h -1.2222 v -0.36666 h 1.3968 v -0.33174 h -1.3968 v -0.45396 h -0.42486 v 0.45396 h -1.3386 v 0.33174 h 1.3386 v 0.36666 h -1.19892 v 0.31428 h 1.19892 v 0.4074 h -1.5132 v 0.33174 h 3.50364 v -0.33174 z"
           style="font-weight:normal;font-family:'Noto Sans CJK SC';-inkscape-font-specification:'Noto Sans CJK SC'"
           id="path341" />
        <path
           d="m -80.444936,-67.272638 c -0.2619,0.36084 -0.6984,0.82062 -1.05924,1.15236 -0.2619,-0.41322 -0.48306,-0.86718 -0.64602,-1.3386 v -0.07566 h 2.328 v -0.41904 h -0.71586 l 0.24444,-0.27936 c -0.2328,-0.19788 -0.6984,-0.47142 -1.06506,-0.65766 l -0.25608,0.27354 c 0.3492,0.18624 0.7857,0.45978 1.02432,0.66348 h -1.55976 v -0.9603 h -0.4365 v 0.9603 h -2.28726 v 0.41904 h 2.28726 v 1.61214 c -0.87882,0.50052 -1.82748,1.03014 -2.4153,1.33278 l 0.27936,0.38994 c 0.59364,-0.34338 1.38516,-0.8148 2.13594,-1.2804 v 1.2804 c 0,0.11058 -0.04074,0.13968 -0.1455,0.1455 -0.1164,0.0058 -0.4947,0.0058 -0.89046,-0.0058 0.0582,0.12804 0.12804,0.33174 0.15132,0.45396 0.51216,0 0.85554,-0.01164 1.0476,-0.0873 0.19206,-0.06984 0.27354,-0.2037 0.27354,-0.50634 v -2.31054 c 0.50052,1.07088 1.22802,1.95552 2.16504,2.40948 0.07566,-0.1164 0.21534,-0.28518 0.31428,-0.36666 -0.62856,-0.27354 -1.18146,-0.75078 -1.61796,-1.33278 0.39576,-0.32592 0.86136,-0.79734 1.21638,-1.21056 z m -2.81688,1.15818 c -0.18624,-0.31428 -0.6111,-0.76242 -0.97776,-1.0767 l -0.32592,0.22698 c 0.36666,0.32592 0.77406,0.79152 0.95448,1.1058 z"
           style="font-weight:normal;font-family:'Noto Sans CJK SC';-inkscape-font-specification:'Noto Sans CJK SC'"
           id="path343" />
      </g>
      <g
         aria-label="后续请求"
         id="text207"
         style="font-weight:500;font-size:5.82px;line-height:1.25;font-family:Poppins;-inkscape-font-specification:'Poppins, Medium';letter-spacing:0;stroke-width:0.26">
        <path
           d="m -102.824,-7.4179602 v 1.3677 h -2.40366 v -1.3677 z m -2.83434,2.07192 h 0.43068 v -0.30264 h 2.40366 v 0.291 h 0.44814 v -2.4676801 h -3.28248 z m -0.48888,-3.7248001 v -0.71586 c 1.32696,-0.0873 2.79942,-0.2444397 3.79464,-0.4888797 l -0.36084,-0.34338 c -0.89046,0.22116 -2.5026,0.38412 -3.87612,0.47142 v 1.4957397 c 0,0.8962801 -0.0582,2.1359401 -0.68094,3.0147601 0.10476,0.05238 0.27936,0.2037 0.35502,0.29682 0.66348,-0.94284 0.76824,-2.34546 0.76824,-3.3115801 h 4.20204 v -0.41904 z"
           style="font-weight:normal;font-family:'Noto Sans CJK SC';-inkscape-font-specification:'Noto Sans CJK SC'"
           id="path427" />
        <path
           d="m -96.637343,-8.0930803 c 0.1455,-0.27354 0.291,-0.71004 0.41904,-1.09416 l -0.27936,-0.07566 -0.06984,0.01746 h -1.07088 v -0.51798 h 1.11162 V -10.13008 h -1.11162 v -0.53544 h -0.42486 v 0.53544 h -1.0476 v 0.3666597 h 1.0476 v 0.51798 h -1.26876 v 0.3783 h 2.61318 c -0.08148,0.25026 -0.18042,0.50052 -0.25608,0.68094 z m -1.34442,-0.04074 c -0.15132,-0.15714 -0.4656,-0.36666 -0.72168,-0.50634 l -0.19788,0.20952 c 0.25608,0.15132 0.55872,0.37248 0.70422,0.54126 z m -1.34442,0.22698 c 0.26772,0.1571401 0.58782,0.3957601 0.73914,0.5645401 l 0.21534,-0.25026 c -0.15714,-0.16296 -0.47724,-0.3841201 -0.73914,-0.5354401 z m -1.303677,0.4132201 c 0.4074,-0.5063401 0.803157,-1.1290801 1.140717,-1.7518201 l -0.33756,-0.19788 c -0.09894,0.22116 -0.226977,0.4365 -0.349197,0.65184 l -0.68676,0.06984 c 0.34338,-0.50634 0.67512,-1.14654 0.937017,-1.7576397 l -0.378297,-0.18042 c -0.2328,0.7042197 -0.65766,1.4666397 -0.7857,1.6586997 -0.12804,0.19788 -0.2328,0.33174 -0.33174,0.35502 0.0524,0.11058 0.11058,0.30264 0.13386,0.38994 0.0815,-0.04074 0.22116,-0.07566 0.88464,-0.16878 -0.23862,0.3783 -0.45396,0.6809401 -0.55872,0.7973401 -0.16878,0.22116 -0.29682,0.36666 -0.41322,0.38994 0.0407,0.10476 0.10476,0.28518 0.12222,0.36666 0.1164,-0.07566 0.30264,-0.1455 1.652877,-0.51216 -0.01164,-0.08148 -0.02328,-0.25026 -0.02328,-0.35502 z m 1.001037,0.7275 c -0.651837,0.2328 -1.321137,0.47724 -1.763457,0.6111 l 0.0989,0.4074 c 0.4947,-0.18624 1.12908,-0.42486 1.734357,-0.6693 z m 3.41052,-0.1164 v -0.38412 h -1.33278 c 0.04656,-0.2328 0.0582,-0.45978 0.0582,-0.6809401 v -0.69258 h -0.40158 v 0.68676 c 0,0.2211601 -0.01164,0.4539601 -0.06984,0.6867601 h -1.47828 v 0.38412 h 1.34442 c -0.21534,0.4365 -0.62856,0.873 -1.455,1.2222 0.0873,0.06984 0.2037,0.22116 0.25608,0.3201 0.98358,-0.43068 1.43754,-0.98358 1.64124,-1.5423 z m -1.44336,0.45396 c 0.45978,0.3201 1.01268,0.7857 1.27458,1.08834 l 0.27354,-0.27354 c -0.26772,-0.29682 -0.83226,-0.74496 -1.2804,-1.0476 z"
           style="font-weight:normal;font-family:'Noto Sans CJK SC';-inkscape-font-specification:'Noto Sans CJK SC'"
           id="path429" />
        <path
           d="m -94.041623,-9.6819403 c -0.18042,-0.2328 -0.57618,-0.5936397 -0.87882,-0.8497197 l -0.27936,0.25608 c 0.30264,0.27354 0.68676,0.6518397 0.86136,0.8962797 z m -0.25026,3.3115801 v -2.4793201 h -1.28622 v 0.41322 h 0.86718 v 2.1126601 c 0,0.25608 -0.16296,0.43068 -0.27354,0.4947 0.07566,0.0873 0.18624,0.26772 0.22698,0.36666 0.0873,-0.11058 0.23862,-0.23862 1.21056,-0.9894 -0.04656,-0.08148 -0.12222,-0.24444 -0.15132,-0.36084 z m 1.32696,-0.19788 v -0.47142 h 1.81584 v 0.47142 z m 1.81584,-1.2222 v 0.44814 h -1.81584 v -0.44814 z m 0.41322,-0.3375601 h -2.63646 v 2.7703201 h 0.4074 v -0.89628 h 1.81584 v 0.4074 c 0,0.07566 -0.02328,0.09894 -0.11058,0.09894 -0.06984,0.00582 -0.3492,0.00582 -0.64602,-0.00582 0.05238,0.11058 0.11058,0.26772 0.12804,0.37248 0.41322,0.00582 0.6693,0 0.83808,-0.06402 0.15714,-0.06402 0.2037,-0.1746 0.2037,-0.39576 z m -1.11162,-0.66348 v -0.4074 h 1.2222 v -0.31428 h -1.2222 v -0.36666 h 1.3968 V -10.21156 h -1.3968 v -0.45396 h -0.42486 v 0.45396 h -1.3386 v 0.3317397 h 1.3386 v 0.36666 h -1.19892 v 0.31428 h 1.19892 v 0.4074 h -1.5132 v 0.33174 h 3.50364 v -0.33174 z"
           style="font-weight:normal;font-family:'Noto Sans CJK SC';-inkscape-font-specification:'Noto Sans CJK SC'"
           id="path431" />
        <path
           d="m -85.195222,-9.0126403 c -0.2619,0.36084 -0.6984,0.82062 -1.05924,1.15236 -0.2619,-0.41322 -0.48306,-0.86718 -0.64602,-1.3386 v -0.07566 h 2.328 v -0.41904 h -0.71586 l 0.24444,-0.27936 c -0.2328,-0.1978797 -0.6984,-0.4714197 -1.06506,-0.6576597 l -0.25608,0.27354 c 0.3492,0.18624 0.7857,0.4597797 1.02432,0.6634797 h -1.55976 V -10.65388 h -0.4365 v 0.9602997 h -2.28726 v 0.41904 h 2.28726 v 1.6121401 c -0.87882,0.50052 -1.82748,1.03014 -2.4153,1.33278 l 0.27936,0.38994 c 0.59364,-0.34338 1.38516,-0.8148 2.13594,-1.2804 v 1.2804 c 0,0.11058 -0.04074,0.13968 -0.1455,0.1455 -0.1164,0.00582 -0.4947,0.00582 -0.89046,-0.00582 0.0582,0.12804 0.12804,0.33174 0.15132,0.45396 0.51216,0 0.85554,-0.01164 1.0476,-0.0873 0.19206,-0.06984 0.27354,-0.2037 0.27354,-0.50634 v -2.3105401 c 0.50052,1.0708801 1.22802,1.9555201 2.16504,2.4094801 0.07566,-0.1164 0.21534,-0.28518 0.31428,-0.36666 -0.62856,-0.27354 -1.18146,-0.75078 -1.61796,-1.33278 0.39576,-0.3259201 0.86136,-0.7973401 1.21638,-1.2105601 z m -2.81688,1.15818 c -0.18624,-0.31428 -0.6111,-0.76242 -0.97776,-1.0767 l -0.32592,0.22698 c 0.36666,0.32592 0.77406,0.79152 0.95448,1.1058001 z"
           style="font-weight:normal;font-family:'Noto Sans CJK SC';-inkscape-font-specification:'Noto Sans CJK SC'"
           id="path433" />
      </g>
    </g>
  </g>
</svg>
