<svg xmlns="http://www.w3.org/2000/svg">
<defs>
<font
   id="EmbeddedFont_1"
   horiz-adv-x="2048"
   horiz-origin-x="0"
   horiz-origin-y="0"
   vert-adv-y="90"
   vert-origin-x="45"
   vert-origin-y="90">
            <font-face
   id="font-face15"
   ascent="2177"
   descent="586"
   font-family="Open Sans embedded"
   font-style="normal"
   font-weight="normal"
   units-per-em="2048" />
            <glyph
   id="glyph19"
   d="M1071 0 870 643c-13 39-36 129-71 268h-8c-27-117-50-207-70-270L514 0H322L23 1096h174c71-275 125-485 162-629s58-241 63-291h8c7 38 19 87 36 148 16 60 30 108 42 143l201 629h180l196-629c37-115 63-211 76-289h8c3 24 10 61 22 111 11 50 81 319 208 807h172L1268 0h-197Z"
   horiz-adv-x="1564"
   unicode="w" />
            <glyph
   id="glyph21"
   d="M416 0 0 1096h178l236-650c53-152 85-251 94-296h8c7 35 31 109 70 220s126 353 262 726h178L610 0H416Z"
   horiz-adv-x="1034"
   unicode="v" />
            <glyph
   id="glyph23"
   d="M332 1096V385c0-89 20-156 61-200s104-66 191-66c115 0 199 31 252 94s79 165 79 307v576h166V0H944l-24 147h-9c-34-54-81-95-141-124-61-29-130-43-207-43-133 0-233 32-299 95-67 63-100 165-100 304v717h168Z"
   horiz-adv-x="950"
   unicode="u" />
            <glyph
   id="glyph25"
   d="M530 117c29 0 58 2 85 7 27 4 49 8 65 13V10c-18-9-44-16-79-22-35-5-67-8-95-8-212 0-318 112-318 335v652H31v80l157 69 70 234h96v-254h318V967H354V322c0-66 16-117 47-152s74-53 129-53Z"
   horiz-adv-x="671"
   unicode="t" />
            <glyph
   id="glyph27"
   d="M676 1116c49 0 92-4 131-12l-23-154c-45 10-85 15-120 15-89 0-164-36-227-108s-95-162-95-269V0H176v1096h137l19-203h8c41 71 90 126 147 165s120 58 189 58Z"
   horiz-adv-x="643"
   unicode="r" />
            <glyph
   id="glyph29"
   d="M1122 549c0-179-45-318-135-418C897 30 773-20 614-20c-98 0-185 23-261 69S218 161 177 247s-62 187-62 302c0 179 45 318 134 418 89 99 213 149 372 149 153 0 275-51 366-153 90-102 135-240 135-414Zm-835 0c0-140 28-247 84-320s138-110 247-110 191 37 248 110c56 73 84 179 84 320 0 139-28 245-84 318-57 72-140 108-250 108-109 0-191-36-246-107s-83-178-83-319Z"
   horiz-adv-x="1005"
   unicode="o" />
            <glyph
   id="glyph31"
   d="M926 0v709c0 89-20 156-61 200s-104 66-191 66c-115 0-199-31-252-93s-80-164-80-307V0H176v1096h135l27-150h8c34 54 82 96 143 126 61 29 130 44 205 44 132 0 231-32 298-95 67-64 100-166 100-306V0H926Z"
   horiz-adv-x="923"
   unicode="n" />
            <glyph
   id="glyph33"
   d="M342 0H176v1556h166V0Z"
   horiz-adv-x="197"
   unicode="l" />
            <glyph
   id="glyph35"
   d="M342 0H176v1096h166V0ZM162 1393c0 38 9 66 28 84 19 17 42 26 70 26 27 0 50-9 69-27s29-46 29-83-10-65-29-83c-19-19-42-28-69-28-28 0-51 9-70 28-19 18-28 46-28 83Z"
   horiz-adv-x="224"
   unicode="i" />
            <glyph
   id="glyph37"
   d="M926 0v709c0 89-20 156-61 200s-104 66-191 66c-115 0-199-31-252-94s-80-165-80-308V0H176v1556h166v-471c0-57-3-104-8-141h10c33 53 79 94 140 125 60 30 129 45 206 45 134 0 235-32 302-95 67-64 100-165 100-304V0H926Z"
   horiz-adv-x="923"
   unicode="h" />
            <glyph
   id="glyph39"
   d="M639-20c-162 0-290 49-383 148-94 99-141 236-141 411 0 177 44 317 131 421s203 156 350 156c137 0 246-45 326-135 80-91 120-210 120-358V518H287c3-129 36-226 98-293 61-67 148-100 260-100 118 0 235 25 350 74V51C936 26 881 8 829-4c-53-10-116-16-190-16Zm-45 997c-88 0-158-29-210-86-53-57-84-137-93-238h573c0 105-23 185-70 241-47 55-113 83-200 83Z"
   horiz-adv-x="950"
   unicode="e" />
            <glyph
   id="glyph41"
   d="M614-20c-159 0-281 49-368 147-87 97-131 235-131 414 0 183 44 325 133 425 88 100 214 150 377 150 53 0 105-6 158-17s94-25 124-40l-51-141c-37 15-77 27-120 37-43 9-82 14-115 14-223 0-334-142-334-426 0-135 27-238 82-310 54-72 134-108 241-108 91 0 185 20 281 59V37C818-1 725-20 614-20Z"
   horiz-adv-x="810"
   unicode="c" />
            <glyph
   id="glyph43"
   d="m850 0-33 156h-8C754 87 700 41 646 17 591-8 523-20 442-20 333-20 248 8 187 64c-62 56-93 136-93 239 0 221 177 337 531 348l186 6v68c0 86-18 150-55 191s-97 61-178 61c-91 0-195-28-310-84l-51 127c54 29 113 52 178 69 64 17 128 25 193 25 131 0 228-29 291-87s94-151 94-279V0H850ZM475 117c103 0 185 28 244 85s88 136 88 238v99l-166-7c-132-5-227-25-285-61-59-37-88-93-88-170 0-60 18-106 55-137 36-31 87-47 152-47Z"
   horiz-adv-x="894"
   unicode="a" />
            <glyph
   id="glyph45"
   d="M1026 389c0-129-47-229-140-301S666-20 506-20C333-20 199 2 106 47v164c60-25 125-45 196-60s141-22 210-22c113 0 199 22 256 65s86 102 86 179c0 51-10 92-30 125-21 32-55 62-102 89-48 27-121 58-218 93-136 49-233 106-291 173-59 67-88 154-88 261 0 113 42 202 127 269s197 100 336 100c145 0 279-27 401-80l-53-148c-121 51-238 76-352 76-90 0-160-19-211-58s-76-92-76-161c0-51 9-92 28-124 19-33 50-62 95-89 44-27 112-57 203-90 153-55 259-113 317-176 57-63 86-144 86-244Z"
   horiz-adv-x="950"
   unicode="S" />
            <glyph
   id="glyph47"
   d="M371 608V0H201v1462h401c179 0 312-34 398-103 85-69 128-172 128-310 0-193-98-324-294-392L1231 0h-201L676 608H371Zm0 146h233c120 0 208 24 264 72 56 47 84 119 84 214 0 97-28 166-85 209s-149 64-275 64H371V754Z"
   horiz-adv-x="1034"
   unicode="R" />
            <glyph
   id="glyph49"
   d="M1343 0h-194L350 1227h-8c11-144 16-276 16-396V0H201v1462h192l797-1222h8c-1 18-4 76-9 174-5 97-6 167-5 209v839h159V0Z"
   horiz-adv-x="1146"
   unicode="N" />
            <glyph
   id="glyph51"
   d="M848 0 352 1296h-8c9-103 14-225 14-366V0H201v1462h256L920 256h8l467 1206h254V0h-170v942c0 108 5 225 14 352h-8L985 0H848Z"
   horiz-adv-x="1453"
   unicode="M" />
            <glyph
   id="glyph53"
   d="M201 0v1462h170V154h645V0H201Z"
   horiz-adv-x="839"
   unicode="L" />
            <glyph
   id="glyph55"
   d="M201 0v1462h170V0H201Z"
   horiz-adv-x="197"
   unicode="I" />
            <glyph
   id="glyph57"
   d="M827 1331c-161 0-287-53-380-160S307 917 307 731c0-191 45-339 135-443 89-105 217-157 383-157 102 0 218 18 349 55V37C1073-1 948-20 799-20c-215 0-381 65-498 196S125 492 125 733c0 151 28 283 85 396 56 113 137 201 244 262 106 61 231 92 375 92 153 0 287-28 402-84l-72-146c-111 52-221 78-332 78Z"
   horiz-adv-x="1117"
   unicode="C" />
            <glyph
   id="glyph59"
   d="M1120 0 938 465H352L172 0H0l578 1468h143L1296 0h-176ZM885 618l-170 453c-22 57-45 128-68 211-15-64-36-134-63-211L412 618h473Z"
   horiz-adv-x="1313"
   unicode="A" />
            <glyph
   id="glyph61"
   d="M1061 838c0-572-221-858-664-858-77 0-139 7-184 20v143c53-17 114-26 182-26 160 0 281 50 363 149 81 99 126 250 133 455h-12c-37-55-85-97-146-126s-129-44-205-44c-129 0-232 39-308 116S106 852 106 991c0 152 43 272 128 360s196 132 335 132c99 0 186-25 261-76 74-51 131-126 171-223 40-98 60-213 60-346Zm-492 503c-95 0-169-31-221-92s-78-147-78-256c0-96 24-171 72-226s121-83 219-83c61 0 117 12 168 37s91 58 120 101 44 87 44 134c0 70-14 135-41 194s-65 106-114 140-106 51-169 51Z"
   horiz-adv-x="978"
   unicode="9" />
            <glyph
   id="glyph63"
   d="M584 1483c133 0 239-31 317-93s117-148 117-257c0-72-22-138-67-197S835 823 737 774c119-57 203-116 253-178 50-63 75-135 75-217 0-121-42-218-127-290C853 16 737-20 590-20 434-20 314 14 230 83c-84 68-126 165-126 290 0 167 102 298 306 391-92 52-158 108-198 169-40 60-60 127-60 202 0 106 39 191 118 254 78 63 183 94 314 94ZM268 369c0-80 28-142 84-187 55-45 133-67 234-67 99 0 177 23 232 70s83 111 83 192c0 65-26 122-78 173-52 50-143 99-272 146-99-43-171-90-216-141-45-52-67-114-67-186Zm314 979c-83 0-149-20-196-60s-71-93-71-160c0-61 20-114 59-158s112-88 218-132c95 40 163 83 203 129 39 46 59 100 59 161 0 67-24 121-72 161-49 39-115 59-200 59Z"
   horiz-adv-x="978"
   unicode="8" />
            <glyph
   id="glyph65"
   d="M117 625c0 287 56 502 168 645 111 142 276 213 495 213 75 0 135-6 178-19v-143c-51 17-110 25-176 25-157 0-276-49-359-146-83-98-128-252-136-461h12c73 115 189 172 348 172 131 0 235-40 311-119 75-79 113-187 113-323 0-152-41-271-124-358S751-20 610-20c-151 0-271 57-360 171-89 113-133 271-133 474Zm491-504c95 0 168 30 221 90 52 59 78 145 78 258 0 97-24 173-73 228s-121 83-218 83c-60 0-115-12-165-37s-90-59-119-102c-30-43-45-88-45-135 0-69 13-133 40-192s65-106 114-141 104-52 167-52Z"
   horiz-adv-x="978"
   unicode="6" />
            <glyph
   id="glyph67"
   d="M1130 336H913V0H754v336H43v145l694 989h176V487h217V336ZM754 487v486c0 95 3 203 10 323h-8c-32-64-62-117-90-159L209 487h545Z"
   horiz-adv-x="1117"
   unicode="4" />
            <glyph
   id="glyph69"
   d="M1061 0H100v143l385 387c117 119 195 203 232 254s65 100 84 148 28 100 28 155c0 78-24 140-71 186-47 45-113 68-197 68-61 0-118-10-172-30-55-20-115-56-182-109l-88 113c135 112 281 168 440 168 137 0 245-35 323-105 78-71 117-165 117-284 0-93-26-184-78-275S772 614 629 475L309 162v-8h752V0Z"
   horiz-adv-x="978"
   unicode="2" />
            <glyph
   id="glyph71"
   d="M715 0H553v1042c0 87 3 169 8 246-14-14-30-29-47-44s-97-80-238-195l-88 114 387 299h140V0Z"
   horiz-adv-x="560"
   unicode="1" />
            <glyph
   id="glyph73"
   d="M1069 733c0-253-40-441-119-566C870 42 748-20 584-20c-157 0-277 64-359 192-82 127-123 314-123 561 0 255 40 444 119 567s200 185 363 185c159 0 279-64 362-193 82-129 123-315 123-559Zm-799 0c0-213 25-367 75-464s130-146 239-146c111 0 191 49 241 148 49 98 74 252 74 462s-25 364-74 462c-50 97-130 146-241 146-109 0-189-48-239-144-50-97-75-251-75-464Z"
   horiz-adv-x="1006"
   unicode="0" />
            <glyph
   id="glyph75"
   d="M731 1462 186 0H20l545 1462h166Z"
   horiz-adv-x="755"
   unicode="/" />
            <glyph
   id="glyph77"
   d="M152 106c0 45 10 79 31 102 20 23 49 34 87 34 39 0 69-11 91-34 21-23 32-57 32-102 0-43-11-77-33-100s-52-35-90-35c-34 0-62 11-84 32-23 21-34 55-34 103Z"
   horiz-adv-x="280"
   unicode="." />
            <glyph
   id="glyph79"
   d="M524 561c0-175-26-339-77-490-52-151-127-283-224-395H63C156-199 227-59 276 94s74 309 74 469c0 163-24 321-72 475-49 154-121 295-217 424h162c98-117 173-252 224-406 51-155 77-320 77-495Z"
   horiz-adv-x="475"
   unicode=")" />
            <glyph
   id="glyph81"
   d="M82 561c0 177 26 342 78 496 51 154 126 289 223 405h162c-96-129-168-270-216-424-49-154-73-312-73-475 0-160 25-316 74-469s120-292 213-418H383C285-211 210-78 159 73S82 387 82 561Z"
   horiz-adv-x="503"
   unicode="(" />
            <glyph
   id="glyph83"
   horiz-adv-x="530" />
        </font>
    </defs>
    <defs
   id="defs85">
        <font
   id="EmbeddedFont_2"
   horiz-adv-x="2048"
   horiz-origin-x="0"
   horiz-origin-y="0"
   vert-adv-y="90"
   vert-origin-x="45"
   vert-origin-y="90">
            <font-face
   id="font-face88"
   ascent="2177"
   descent="586"
   font-family="Open Sans embedded"
   font-style="normal"
   font-weight="bold"
   units-per-em="2048" />
            <glyph
   id="glyph92"
   d="m952 0-41 143h-16c-33-52-79-92-139-120-60-29-128-43-205-43-131 0-230 35-297 106-67 70-100 171-100 303v729h305V465c0-81 14-141 43-181 29-41 74-61 137-61 85 0 147 29 185 86s57 151 57 283v526h305V0H952Z"
   horiz-adv-x="1061"
   unicode="u" />
            <glyph
   id="glyph94"
   d="M1192 0H887v653c0 81-14 141-43 182-29 40-74 60-137 60-85 0-147-28-185-85s-57-152-57-284V0H160v1118h233l41-143h17c34 54 81 95 141 123 59 27 127 41 203 41 130 0 229-35 296-105 67-71 101-172 101-305V0Z"
   horiz-adv-x="1061"
   unicode="n" />
            <glyph
   id="glyph96"
   d="M465 0H160v1556h305V0Z"
   horiz-adv-x="336"
   unicode="l" />
            <glyph
   id="glyph98"
   d="M623 922c-65 0-115-20-152-61s-58-100-63-175h428c-1 75-21 134-59 175s-89 61-154 61Zm43-942c-180 0-321 50-422 149S92 369 92 551c0 187 47 332 141 435 93 102 223 153 388 153 158 0 281-45 369-135s132-214 132-373V483H401c3-87 29-154 77-203s115-73 202-73c67 0 131 7 191 21s123 36 188 67V59c-53-27-110-46-171-60-61-12-135-19-222-19Z"
   horiz-adv-x="1033"
   unicode="e" />
            <glyph
   id="glyph100"
   d="M1018 1462h313L834 0H496L0 1462h313l275-870c15-51 31-111 48-179 16-69 26-116 30-143 7 61 32 169 75 322l277 870Z"
   horiz-adv-x="1341"
   unicode="V" />
            <glyph
   id="glyph102"
   d="M748 0H438v1204H41v258h1104v-258H748V0Z"
   horiz-adv-x="1117"
   unicode="T" />
            <glyph
   id="glyph104"
   d="M494 774h102c95 0 167 19 214 57 47 37 71 92 71 164 0 73-20 126-59 161-40 35-102 52-187 52H494V774Zm700 232c0-157-49-278-147-361-99-83-239-125-420-125H494V0H184v1462h467c177 0 312-38 405-114 92-77 138-191 138-342Z"
   horiz-adv-x="1034"
   unicode="P" />
            <glyph
   id="glyph106"
   d="M1481 0h-394L451 1106h-9c13-195 19-335 19-418V0H184v1462h391l635-1095h7c-10 190-15 324-15 403v692h279V0Z"
   horiz-adv-x="1313"
   unicode="N" />
            <glyph
   id="glyph108"
   horiz-adv-x="530" />
        </font>
</defs>
</svg>
