<?xml version="1.0" encoding="UTF-8" standalone="no"?>
<svg
   width="919.9"
   height="483.24"
   viewBox="0 0 243.39 127.86"
   version="1.1"
   id="svg5186"
   sodipodi:docname="wicked_scheme.svg"
   inkscape:version="1.2.2 (732a01da63, 2022-12-09)"
   xmlns:inkscape="http://www.inkscape.org/namespaces/inkscape"
   xmlns:sodipodi="http://sodipodi.sourceforge.net/DTD/sodipodi-0.dtd"
   xmlns="http://www.w3.org/2000/svg"
   xmlns:svg="http://www.w3.org/2000/svg">
  <sodipodi:namedview
     id="namedview5188"
     pagecolor="#ffffff"
     bordercolor="#000000"
     borderopacity="0.25"
     inkscape:showpageshadow="2"
     inkscape:pageopacity="0.0"
     inkscape:pagecheckerboard="0"
     inkscape:deskcolor="#d1d1d1"
     showgrid="false"
     inkscape:zoom="1.4892923"
     inkscape:cx="459.95"
     inkscape:cy="241.72555"
     inkscape:window-width="1920"
     inkscape:window-height="1009"
     inkscape:window-x="-8"
     inkscape:window-y="-8"
     inkscape:window-maximized="1"
     inkscape:current-layer="svg5186" />
  <defs
     id="defs5084">
    <marker
       id="b"
       markerHeight="4.71"
       markerWidth="3.06"
       orient="auto"
       refX="1.53"
       refY="2.35">
      <path
         fill="none"
         stroke="#000"
         d="m2.7.35-2 2 2 2"
         id="path5075" />
    </marker>
    <marker
       id="a"
       markerHeight="4.71"
       markerWidth="3.06"
       orient="auto"
       refX="1.53"
       refY="2.35">
      <path
         fill="none"
         stroke="#000"
         d="m.35.35 2 2-2 2"
         id="path5078" />
    </marker>
    <marker
       id="c"
       markerHeight="4.71"
       markerWidth="3.06"
       orient="auto"
       refX="1.53"
       refY="2.35">
      <path
         fill="none"
         stroke="#000"
         d="m.35.35 2 2-2 2"
         id="path5081" />
    </marker>
  </defs>
  <g
     transform="translate(-2.87 -52.06)"
     id="g5184">
    <rect
       width="18.52"
       height="18.52"
       x="222.25"
       y="65.09"
       fill="#c0c2c4"
       paint-order="stroke fill markers"
       rx="0"
       ry="0"
       id="rect5086" />
    <g
       aria-label="dhcp4"
       id="text5090"
       style="font-weight:500;font-size:3.7px;line-height:1.25;font-family:Poppins;-inkscape-font-specification:'Poppins, Medium';letter-spacing:0;stroke-width:0.26">
      <path
         d="m 225.6391,74.208803 q 0,-0.3108 0.1258,-0.5439 0.1258,-0.2368 0.3441,-0.3663 0.222,-0.1295 0.4958,-0.1295 0.2368,0 0.4403,0.111 0.2035,0.1073 0.3108,0.2849 v -1.073 h 0.3404 v 2.738 h -0.3404 v -0.3811 q -0.0999,0.1813 -0.296,0.2997 -0.1961,0.1147 -0.4588,0.1147 -0.2701,0 -0.4921,-0.1332 -0.2183,-0.1332 -0.3441,-0.3737 -0.1258,-0.2405 -0.1258,-0.5476 z m 1.7168,0.0037 q 0,-0.2294 -0.0925,-0.3996 -0.0925,-0.1702 -0.2516,-0.259 -0.1554,-0.0925 -0.3441,-0.0925 -0.1887,0 -0.3441,0.0888 -0.1554,0.0888 -0.2479,0.259 -0.0925,0.1702 -0.0925,0.3996 0,0.2331 0.0925,0.407 0.0925,0.1702 0.2479,0.2627 0.1554,0.0888 0.3441,0.0888 0.1887,0 0.3441,-0.0888 0.1591,-0.0925 0.2516,-0.2627 0.0925,-0.1739 0.0925,-0.4033 z"
         id="path6269" />
      <path
         d="m 229.2725,73.165403 q 0.2294,0 0.4144,0.0999 0.185,0.0962 0.2886,0.2923 0.1073,0.1961 0.1073,0.4773 v 1.1951 h -0.333 v -1.147 q 0,-0.3034 -0.1517,-0.4625 -0.1517,-0.1628 -0.4144,-0.1628 -0.2664,0 -0.4255,0.1665 -0.1554,0.1665 -0.1554,0.4847 v 1.1211 h -0.3367 v -2.738 h 0.3367 v 0.999 q 0.0999,-0.1554 0.2738,-0.2405 0.1776,-0.0851 0.3959,-0.0851 z"
         id="path6271" />
      <path
         d="m 230.5083,74.212503 q 0,-0.3145 0.1258,-0.5476 0.1258,-0.2368 0.3478,-0.3663 0.2257,-0.1295 0.5143,-0.1295 0.3737,0 0.6142,0.1813 0.2442,0.1813 0.3219,0.5032 h -0.3626 q -0.0518,-0.185 -0.2035,-0.2923 -0.148,-0.1073 -0.37,-0.1073 -0.2886,0 -0.4662,0.1998 -0.1776,0.1961 -0.1776,0.5587 0,0.3663 0.1776,0.5661 0.1776,0.1998 0.4662,0.1998 0.222,0 0.37,-0.1036 0.148,-0.1036 0.2035,-0.296 h 0.3626 q -0.0814,0.3108 -0.3256,0.4995 -0.2442,0.185 -0.6105,0.185 -0.2886,0 -0.5143,-0.1295 -0.222,-0.1295 -0.3478,-0.3663 -0.1258,-0.2368 -0.1258,-0.555 z"
         id="path6273" />
      <path
         d="m 233.2167,73.576103 q 0.0999,-0.1739 0.296,-0.2886 0.1998,-0.1184 0.4625,-0.1184 0.2701,0 0.4884,0.1295 0.222,0.1295 0.3478,0.3663 0.1258,0.2331 0.1258,0.5439 0,0.3071 -0.1258,0.5476 -0.1258,0.2405 -0.3478,0.3737 -0.2183,0.1332 -0.4884,0.1332 -0.259,0 -0.4588,-0.1147 -0.1961,-0.1184 -0.2997,-0.2923 v 1.3357 H 232.88 v -2.9896 h 0.3367 z m 1.3764,0.6327 q 0,-0.2294 -0.0925,-0.3996 -0.0925,-0.1702 -0.2516,-0.259 -0.1554,-0.0888 -0.3441,-0.0888 -0.185,0 -0.3441,0.0925 -0.1554,0.0888 -0.2516,0.2627 -0.0925,0.1702 -0.0925,0.3959 0,0.2294 0.0925,0.4033 0.0962,0.1702 0.2516,0.2627 0.1591,0.0888 0.3441,0.0888 0.1887,0 0.3441,-0.0888 0.1591,-0.0925 0.2516,-0.2627 0.0925,-0.1739 0.0925,-0.407 z"
         id="path6275" />
      <path
         d="m 235.2443,74.634303 v -0.2553 l 1.2987,-1.7982 h 0.4033 v 1.7612 h 0.37 v 0.2923 h -0.37 v 0.5957 h -0.333 v -0.5957 z m 1.3838,-1.702 -0.9953,1.4097 h 0.9953 z"
         id="path6277" />
    </g>
    <rect
       width="18.52"
       height="18.52"
       x="222.25"
       y="88.9"
       fill="#c0c2c4"
       paint-order="stroke fill markers"
       rx="0"
       ry="0"
       id="rect5092" />
    <g
       aria-label="dhcp6"
       id="text5096"
       style="font-weight:500;font-size:3.7px;line-height:1.25;font-family:Poppins;-inkscape-font-specification:'Poppins, Medium';letter-spacing:0;stroke-width:0.26">
      <path
         d="m 225.6391,98.028803 q 0,-0.3108 0.1258,-0.5439 0.1258,-0.2368 0.3441,-0.3663 0.222,-0.1295 0.4958,-0.1295 0.2368,0 0.4403,0.111 0.2035,0.1073 0.3108,0.2849 v -1.073 h 0.3404 v 2.738 h -0.3404 v -0.3811 q -0.0999,0.1813 -0.296,0.2997 -0.1961,0.1147 -0.4588,0.1147 -0.2701,0 -0.4921,-0.1332 -0.2183,-0.1332 -0.3441,-0.3737 -0.1258,-0.2405 -0.1258,-0.5476 z m 1.7168,0.0037 q 0,-0.2294 -0.0925,-0.3996 -0.0925,-0.1702 -0.2516,-0.259 -0.1554,-0.0925 -0.3441,-0.0925 -0.1887,0 -0.3441,0.0888 -0.1554,0.0888 -0.2479,0.259 -0.0925,0.1702 -0.0925,0.3996 0,0.2331 0.0925,0.407 0.0925,0.1702 0.2479,0.2627 0.1554,0.0888 0.3441,0.0888 0.1887,0 0.3441,-0.0888 0.1591,-0.0925 0.2516,-0.2627 0.0925,-0.1739 0.0925,-0.4033 z"
         id="path6280" />
      <path
         d="m 229.2725,96.985403 q 0.2294,0 0.4144,0.0999 0.185,0.0962 0.2886,0.2923 0.1073,0.1961 0.1073,0.4773 v 1.1951 h -0.333 v -1.147 q 0,-0.3034 -0.1517,-0.4625 -0.1517,-0.1628 -0.4144,-0.1628 -0.2664,0 -0.4255,0.1665 -0.1554,0.1665 -0.1554,0.4847 v 1.1211 h -0.3367 v -2.738 h 0.3367 v 0.999 q 0.0999,-0.1554 0.2738,-0.2405 0.1776,-0.0851 0.3959,-0.0851 z"
         id="path6282" />
      <path
         d="m 230.5083,98.032503 q 0,-0.3145 0.1258,-0.5476 0.1258,-0.2368 0.3478,-0.3663 0.2257,-0.1295 0.5143,-0.1295 0.3737,0 0.6142,0.1813 0.2442,0.1813 0.3219,0.5032 h -0.3626 q -0.0518,-0.185 -0.2035,-0.2923 -0.148,-0.1073 -0.37,-0.1073 -0.2886,0 -0.4662,0.1998 -0.1776,0.1961 -0.1776,0.5587 0,0.3663 0.1776,0.5661 0.1776,0.1998 0.4662,0.1998 0.222,0 0.37,-0.1036 0.148,-0.1036 0.2035,-0.296 h 0.3626 q -0.0814,0.3108 -0.3256,0.4995 -0.2442,0.185 -0.6105,0.185 -0.2886,0 -0.5143,-0.1295 -0.222,-0.1295 -0.3478,-0.3663 -0.1258,-0.2368 -0.1258,-0.555 z"
         id="path6284" />
      <path
         d="m 233.2167,97.396103 q 0.0999,-0.1739 0.296,-0.2886 0.1998,-0.1184 0.4625,-0.1184 0.2701,0 0.4884,0.1295 0.222,0.1295 0.3478,0.3663 0.1258,0.2331 0.1258,0.5439 0,0.3071 -0.1258,0.5476 -0.1258,0.2405 -0.3478,0.3737 -0.2183,0.1332 -0.4884,0.1332 -0.259,0 -0.4588,-0.1147 -0.1961,-0.1184 -0.2997,-0.2923 V 100.012 H 232.88 v -2.989597 h 0.3367 z m 1.3764,0.6327 q 0,-0.2294 -0.0925,-0.3996 -0.0925,-0.1702 -0.2516,-0.259 -0.1554,-0.0888 -0.3441,-0.0888 -0.185,0 -0.3441,0.0925 -0.1554,0.0888 -0.2516,0.2627 -0.0925,0.1702 -0.0925,0.3959 0,0.2294 0.0925,0.4033 0.0962,0.1702 0.2516,0.2627 0.1591,0.0888 0.3441,0.0888 0.1887,0 0.3441,-0.0888 0.1591,-0.0925 0.2516,-0.2627 0.0925,-0.1739 0.0925,-0.407 z"
         id="path6286" />
      <path
         d="m 236.8168,97.011303 q -0.0814,-0.4107 -0.5069,-0.4107 -0.3293,0 -0.4921,0.2553 -0.1628,0.2516 -0.1591,0.8325 0.0851,-0.1924 0.2812,-0.2997 0.1998,-0.111 0.444,-0.111 0.3811,0 0.6068,0.2368 0.2294,0.2368 0.2294,0.6549 0,0.2516 -0.0999,0.4514 -0.0962,0.1998 -0.296,0.3182 -0.1961,0.1184 -0.4773,0.1184 -0.3811,0 -0.5957,-0.1702 -0.2146,-0.1702 -0.2997,-0.4699 -0.0851,-0.2997 -0.0851,-0.74 0,-1.3579 0.9472,-1.3579 0.3626,0 0.5698,0.1961 0.2072,0.1961 0.2442,0.4958 z m -0.5032,0.5513 q -0.1591,0 -0.2997,0.0666 -0.1406,0.0629 -0.2294,0.1961 -0.0851,0.1295 -0.0851,0.3182 0,0.2812 0.1628,0.4588 0.1628,0.1739 0.4662,0.1739 0.259,0 0.4107,-0.1591 0.1554,-0.1628 0.1554,-0.4366 0,-0.2886 -0.148,-0.4514 -0.148,-0.1665 -0.4329,-0.1665 z"
         id="path6288" />
    </g>
    <rect
       width="18.52"
       height="18.52"
       x="222.25"
       y="112.71"
       fill="#c0c2c4"
       paint-order="stroke fill markers"
       rx="0"
       ry="0"
       id="rect5098" />
    <g
       aria-label="wpa"
       id="text5102"
       style="font-weight:500;font-size:3.7px;line-height:1.25;font-family:Poppins;-inkscape-font-specification:'Poppins, Medium';letter-spacing:0;stroke-width:0.26">
      <path
         d="m 230.5759,120.4924 -0.6327,2.0276 h -0.3478 l -0.4884,-1.6095 -0.4884,1.6095 h -0.3478 l -0.6364,-2.0276 h 0.3441 l 0.4662,1.702 0.5032,-1.702 h 0.3441 l 0.4921,1.7057 0.4588,-1.7057 z"
         id="path6291" />
      <path
         d="m 231.2456,120.8661 q 0.0999,-0.1739 0.296,-0.2886 0.1998,-0.1184 0.4625,-0.1184 0.2701,0 0.4884,0.1295 0.222,0.1295 0.3478,0.3663 0.1258,0.2331 0.1258,0.5439 0,0.3071 -0.1258,0.5476 -0.1258,0.2405 -0.3478,0.3737 -0.2183,0.1332 -0.4884,0.1332 -0.259,0 -0.4588,-0.1147 -0.1961,-0.1184 -0.2997,-0.2923 v 1.3357 h -0.3367 v -2.9896 h 0.3367 z m 1.3764,0.6327 q 0,-0.2294 -0.0925,-0.3996 -0.0925,-0.1702 -0.2516,-0.259 -0.1554,-0.0888 -0.3441,-0.0888 -0.185,0 -0.3441,0.0925 -0.1554,0.0888 -0.2516,0.2627 -0.0925,0.1702 -0.0925,0.3959 0,0.2294 0.0925,0.4033 0.0962,0.1702 0.2516,0.2627 0.1591,0.0888 0.3441,0.0888 0.1887,0 0.3441,-0.0888 0.1591,-0.0925 0.2516,-0.2627 0.0925,-0.1739 0.0925,-0.407 z"
         id="path6293" />
      <path
         d="m 233.2843,121.4988 q 0,-0.3108 0.1258,-0.5439 0.1258,-0.2368 0.3441,-0.3663 0.222,-0.1295 0.4921,-0.1295 0.2664,0 0.4625,0.1147 0.1961,0.1147 0.2923,0.2886 v -0.37 h 0.3404 v 2.0276 h -0.3404 v -0.3774 q -0.0999,0.1776 -0.2997,0.296 -0.1961,0.1147 -0.4588,0.1147 -0.2701,0 -0.4884,-0.1332 -0.2183,-0.1332 -0.3441,-0.3737 -0.1258,-0.2405 -0.1258,-0.5476 z m 1.7168,0.004 q 0,-0.2294 -0.0925,-0.3996 -0.0925,-0.1702 -0.2516,-0.259 -0.1554,-0.0925 -0.3441,-0.0925 -0.1887,0 -0.3441,0.0888 -0.1554,0.0888 -0.2479,0.259 -0.0925,0.1702 -0.0925,0.3996 0,0.2331 0.0925,0.407 0.0925,0.1702 0.2479,0.2627 0.1554,0.0888 0.3441,0.0888 0.1887,0 0.3441,-0.0888 0.1591,-0.0925 0.2516,-0.2627 0.0925,-0.1739 0.0925,-0.4033 z"
         id="path6295" />
    </g>
    <rect
       width="29.1"
       height="76.73"
       x="216.96"
       y="59.8"
       fill="none"
       stroke="#c0c2c4"
       stroke-dasharray="1.19062, 1.19062"
       stroke-linecap="square"
       stroke-width=".4"
       paint-order="stroke fill markers"
       rx="0"
       ry="0"
       id="rect5104" />
    <rect
       width="47.63"
       height="18.52"
       x="124.35"
       y="96.84"
       fill="#30ba78"
       paint-order="stroke fill markers"
       rx="0"
       ry="0"
       id="rect5106" />
    <g
       aria-label="wicked
（主守护程序）"
       id="text5112"
       style="font-weight:500;font-size:3.7px;line-height:1.25;font-family:Poppins;-inkscape-font-specification:'Poppins, Medium';letter-spacing:0;stroke-width:0.26">
      <path
         d="m 144.7105,102.595 -0.6327,2.0276 H 143.73 l -0.4884,-1.6095 -0.4884,1.6095 h -0.3478 l -0.6364,-2.0276 h 0.3441 l 0.4662,1.702 0.5032,-1.702 h 0.3441 l 0.4921,1.7057 0.4588,-1.7057 z"
         style="text-align:center;text-anchor:middle"
         id="path6517" />
      <path
         d="m 145.21739,102.2657 q -0.0962,0 -0.1628,-0.0666 -0.0666,-0.0666 -0.0666,-0.1628 0,-0.0962 0.0666,-0.1628 0.0666,-0.0666 0.1628,-0.0666 0.0925,0 0.1554,0.0666 0.0666,0.0666 0.0666,0.1628 0,0.0962 -0.0666,0.1628 -0.0629,0.0666 -0.1554,0.0666 z m 0.1628,0.3293 v 2.0276 h -0.3367 v -2.0276 z"
         style="text-align:center;text-anchor:middle"
         id="path6519" />
      <path
         d="m 145.8279,103.6051 q 0,-0.3145 0.1258,-0.5476 0.1258,-0.2368 0.3478,-0.3663 0.2257,-0.1295 0.5143,-0.1295 0.3737,0 0.6142,0.1813 0.2442,0.1813 0.3219,0.5032 h -0.3626 q -0.0518,-0.185 -0.2035,-0.2923 -0.148,-0.1073 -0.37,-0.1073 -0.2886,0 -0.4662,0.1998 -0.1776,0.1961 -0.1776,0.5587 0,0.3663 0.1776,0.5661 0.1776,0.1998 0.4662,0.1998 0.222,0 0.37,-0.1036 0.148,-0.1036 0.2035,-0.296 h 0.3626 q -0.0814,0.3108 -0.3256,0.4995 -0.2442,0.185 -0.6105,0.185 -0.2886,0 -0.5143,-0.1295 -0.222,-0.1295 -0.3478,-0.3663 -0.1258,-0.2368 -0.1258,-0.555 z"
         style="text-align:center;text-anchor:middle"
         id="path6521" />
      <path
         d="m 149.3318,104.6226 -0.7955,-0.8954 v 0.8954 h -0.3367 v -2.738 h 0.3367 v 1.6095 l 0.7807,-0.8991 h 0.4699 l -0.9546,1.0101 0.9583,1.0175 z"
         style="text-align:center;text-anchor:middle"
         id="path6523" />
      <path
         d="m 151.9551,103.5311 q 0,0.0962 -0.0111,0.2035 h -1.6206 q 0.0185,0.2997 0.2035,0.4699 0.1887,0.1665 0.4551,0.1665 0.2183,0 0.3626,-0.0999 0.148,-0.1036 0.2072,-0.2738 h 0.3626 q -0.0814,0.2923 -0.3256,0.4773 -0.2442,0.1813 -0.6068,0.1813 -0.2886,0 -0.518,-0.1295 -0.2257,-0.1295 -0.3552,-0.3663 -0.1295,-0.2405 -0.1295,-0.555 0,-0.3145 0.1258,-0.5513 0.1258,-0.2368 0.3515,-0.3626 0.2294,-0.1295 0.5254,-0.1295 0.2886,0 0.5106,0.1258 0.222,0.1258 0.3404,0.3478 0.1221,0.2183 0.1221,0.4958 z m -0.3478,-0.0703 q 0,-0.1924 -0.0851,-0.3293 -0.0851,-0.1406 -0.2331,-0.2109 -0.1443,-0.074 -0.3219,-0.074 -0.2553,0 -0.4366,0.1628 -0.1776,0.1628 -0.2035,0.4514 z"
         style="text-align:center;text-anchor:middle"
         id="path6525" />
      <path
         d="m 152.2733,103.6014 q 0,-0.3108 0.1258,-0.5439 0.1258,-0.2368 0.3441,-0.3663 0.222,-0.1295 0.4958,-0.1295 0.2368,0 0.4403,0.111 0.2035,0.1073 0.3108,0.2849 v -1.073 h 0.3404 v 2.738 h -0.3404 v -0.3811 q -0.0999,0.1813 -0.296,0.2997 -0.1961,0.1147 -0.4588,0.1147 -0.2701,0 -0.4921,-0.1332 -0.2183,-0.1332 -0.3441,-0.3737 -0.1258,-0.2405 -0.1258,-0.5476 z m 1.7168,0.004 q 0,-0.2294 -0.0925,-0.3996 -0.0925,-0.1702 -0.2516,-0.259 -0.1554,-0.0925 -0.3441,-0.0925 -0.1887,0 -0.3441,0.0888 -0.1554,0.0888 -0.2479,0.259 -0.0925,0.1702 -0.0925,0.3996 0,0.2331 0.0925,0.407 0.0925,0.1702 0.2479,0.2627 0.1554,0.0888 0.3441,0.0888 0.1887,0 0.3441,-0.0888 0.1591,-0.0925 0.2516,-0.2627 0.0925,-0.1739 0.0925,-0.4033 z"
         style="text-align:center;text-anchor:middle"
         id="path6527" />
      <path
         d="m 137.92273,107.42572 q 0.15899,-0.33242 0.53477,-0.6793 l 0.15898,0.14454 q -0.36133,0.33242 -0.50586,0.63593 -0.15898,0.33243 -0.15898,0.79493 0,0.39023 0.15898,0.7371 0.14453,0.31797 0.50586,0.70821 l -0.15898,0.15898 q -0.36133,-0.40469 -0.53477,-0.76601 -0.18789,-0.39024 -0.18789,-0.83828 0,-0.50586 0.18789,-0.8961 z"
         style="text-align:center;text-anchor:middle"
         id="path6529" />
      <path
         d="m 140.9143,109.5153 v -0.9065 h 1.1618 v -0.2664 h -1.1618 v -0.8103 h 1.3135 v -0.2701 h -1.1951 l 0.1739,-0.1258 c -0.1443,-0.1739 -0.4403,-0.4255 -0.6771,-0.5957 l -0.222,0.1554 c 0.222,0.1628 0.4847,0.3959 0.629,0.5661 h -1.6243 v 0.2701 h 1.3098 v 0.8103 h -1.1396 v 0.2664 h 1.1396 v 0.9065 h -1.48 v 0.2701 h 3.2708 v -0.2701 z"
         style="font-weight:normal;font-family:'Noto Sans CJK SC';-inkscape-font-specification:'Noto Sans CJK SC'"
         id="path6531" />
      <path
         d="m 143.212,107.2361 h 2.4938 v 0.4699 h 0.2849 v -0.7326 h -1.2802 c -0.0444,-0.1332 -0.1369,-0.3182 -0.2294,-0.4588 l -0.2627,0.0666 c 0.0703,0.1184 0.1406,0.2664 0.1887,0.3922 h -1.4689 v 0.7326 h 0.2738 z m 0.0888,1.3172 c 0.2331,0.2368 0.4884,0.5661 0.5957,0.7844 l 0.2294,-0.1554 c -0.111,-0.2183 -0.3737,-0.5365 -0.6142,-0.7659 z m 2.7898,-0.5957 h -0.9398 v -0.518 h -0.2812 v 0.518 h -2.0202 v 0.2701 h 2.0202 v 1.2987 c 0,0.0666 -0.0259,0.0851 -0.0925,0.0851 -0.0777,0.004 -0.3367,0.007 -0.6031,-0.004 0.0407,0.074 0.0851,0.1961 0.0962,0.2738 0.3515,0 0.5735,-0.004 0.703,-0.0481 0.1295,-0.0407 0.1776,-0.1258 0.1776,-0.3034 v -1.3024 h 0.9398 z"
         style="font-weight:normal;font-family:'Noto Sans CJK SC';-inkscape-font-specification:'Noto Sans CJK SC'"
         id="path6533" />
      <path
         d="m 147.7038,108.1278 -0.4107,0.1221 v -0.7178 h 0.4255 v -0.2627 h -0.4255 v -0.74 h -0.2664 v 0.74 h -0.4958 v 0.2627 h 0.4958 v 0.7955 c -0.2072,0.0629 -0.3996,0.1184 -0.5513,0.1517 l 0.074,0.2701 0.4773,-0.1443 v 0.9546 c 0,0.0555 -0.0222,0.0703 -0.0703,0.0703 -0.0407,0 -0.1961,0 -0.3663,-0.004 0.0407,0.0777 0.074,0.1924 0.0888,0.2664 0.2442,0 0.3922,-0.007 0.4847,-0.0555 0.0962,-0.0444 0.1295,-0.1221 0.1295,-0.2738 V 108.52 c 0.148,-0.0444 0.296,-0.0888 0.444,-0.1369 z m 0.7992,-1.4948 c 0.1332,0.1665 0.2775,0.3848 0.3404,0.5328 l 0.259,-0.111 c -0.0666,-0.1443 -0.2146,-0.3552 -0.3552,-0.5143 z m -0.2553,1.48 v -0.6993 h 1.2099 v 0.6993 z m 1.48,-0.9472 h -1.7538 v 0.9805 c 0,0.4921 -0.0444,1.1285 -0.4514,1.5762 0.0592,0.037 0.1739,0.1369 0.2146,0.1961 0.3811,-0.4218 0.4847,-1.0397 0.5069,-1.5466 h 1.2136 v 0.2331 h 0.2701 z"
         style="font-weight:normal;font-family:'Noto Sans CJK SC';-inkscape-font-specification:'Noto Sans CJK SC'"
         id="path6535" />
      <path
         d="m 153.0651,107.5062 h -1.1729 v -0.6142 h 1.1729 z m 0.2664,-0.851 h -1.6983 v 1.0915 h 1.6983 z m -1.8685,1.8981 c -0.0629,-0.1036 -0.3441,-0.5032 -0.4477,-0.629 v -0.0851 h 0.4551 v -0.259 h -0.4551 v -0.6586 c 0.1517,-0.0407 0.296,-0.0888 0.4144,-0.1443 l -0.1739,-0.222 c -0.2294,0.1147 -0.6327,0.222 -0.9768,0.2886 0.0296,0.0629 0.0666,0.1554 0.0814,0.2183 0.1258,-0.0222 0.2627,-0.0481 0.3959,-0.0777 v 0.5957 h -0.518 v 0.259 h 0.4773 c -0.1258,0.4181 -0.3515,0.8954 -0.5587,1.1618 0.0481,0.0703 0.1184,0.1887 0.1443,0.2627 0.1665,-0.2146 0.3256,-0.5587 0.4551,-0.9139 v 1.5577 h 0.259 v -1.6502 c 0.1036,0.185 0.222,0.407 0.2701,0.5254 z m 1.1766,0.999 v -0.5106 h 0.74 v -0.2479 h -0.74 v -0.481 h 0.8214 v -0.2516 h -1.8981 v 0.2516 h 0.8066 v 0.481 h -0.7178 v 0.2479 h 0.7178 v 0.5106 h -0.9694 v 0.2553 h 2.1423 v -0.2553 z"
         style="font-weight:normal;font-family:'Noto Sans CJK SC';-inkscape-font-specification:'Noto Sans CJK SC'"
         id="path6537" />
      <path
         d="m 156.9723,108.3794 h -0.6845 l 0.0296,-0.0296 c -0.074,-0.0444 -0.1702,-0.0925 -0.2775,-0.148 0.3034,-0.1665 0.6179,-0.3996 0.8362,-0.6253 l -0.1776,-0.1369 -0.0629,0.0148 h -1.8463 v 0.2294 h 1.6058 c -0.1702,0.148 -0.3885,0.2997 -0.592,0.4033 -0.1813,-0.0888 -0.3737,-0.1702 -0.5402,-0.2405 l -0.1665,0.1591 c 0.2442,0.1073 0.5402,0.2479 0.777,0.3737 h -1.295 v 0.2368 h 1.1433 v 0.9694 c 0,0.0518 -0.0185,0.0666 -0.0888,0.0703 -0.0703,0.004 -0.3182,0.007 -0.5883,-0.004 0.037,0.0777 0.0777,0.1776 0.0925,0.259 0.333,0 0.555,0 0.6845,-0.0407 0.1332,-0.0444 0.1739,-0.1147 0.1739,-0.2812 v -0.9731 h 0.7955 c -0.1221,0.1702 -0.2627,0.3404 -0.3811,0.4588 l 0.2183,0.111 c 0.185,-0.1813 0.3959,-0.4773 0.5846,-0.74 l -0.1961,-0.0851 z m -1.0249,-1.4393 c -0.0518,-0.1221 -0.148,-0.2997 -0.222,-0.4292 l -0.2627,0.0777 c 0.0555,0.1036 0.1221,0.2405 0.1702,0.3515 h -1.4615 v 1.0175 c 0,0.5365 -0.0259,1.2802 -0.3256,1.8056 0.0592,0.0296 0.1813,0.1073 0.2294,0.1554 0.3145,-0.555 0.3663,-1.3912 0.3663,-1.961 v -0.7585 h 2.7824 v -0.259 z"
         style="font-weight:normal;font-family:'Noto Sans CJK SC';-inkscape-font-specification:'Noto Sans CJK SC'"
         id="path6539" />
      <path
         d="m 158.40281,109.1601 q -0.17344,0.36132 -0.53476,0.76601 l -0.15899,-0.15898 q 0.36133,-0.39024 0.50586,-0.70821 0.15899,-0.34687 0.15899,-0.7371 0,-0.4625 -0.15899,-0.79493 -0.14453,-0.30351 -0.50586,-0.63593 l 0.15899,-0.14454 q 0.37578,0.34688 0.53476,0.6793 0.18789,0.39024 0.18789,0.8961 0,0.44804 -0.18789,0.83828 z"
         style="text-align:center;text-anchor:middle"
         id="path6541" />
    </g>
    <rect
       width="47.62"
       height="18.52"
       x="47.63"
       y="96.84"
       fill="#30ba78"
       paint-order="stroke fill markers"
       rx="0"
       ry="0"
       id="rect5114" />
    <g
       aria-label="nanny
（策略代理）"
       id="text5120"
       style="font-weight:500;font-size:3.7px;line-height:1.25;font-family:Poppins;-inkscape-font-specification:'Poppins, Medium';letter-spacing:0;stroke-width:0.26">
      <path
         d="m 66.33948,102.54718 q 0.37,0 0.5994,0.2257 0.2294,0.222 0.2294,0.6438 v 1.1951 h -0.333 v -1.147 q 0,-0.3034 -0.1517,-0.4625 -0.1517,-0.1628 -0.4144,-0.1628 -0.2664,0 -0.4255,0.1665 -0.1554,0.1665 -0.1554,0.4847 v 1.1211 h -0.3367 v -2.0276 h 0.3367 v 0.2886 q 0.0999,-0.1554 0.2701,-0.2405 0.1739,-0.0851 0.3811,-0.0851 z"
         style="text-align:center;text-anchor:middle"
         id="path6141" />
      <path
         d="m 67.593778,103.59058 q 0,-0.3108 0.1258,-0.5439 0.1258,-0.2368 0.3441,-0.3663 0.222,-0.1295 0.4921,-0.1295 0.2664,0 0.4625,0.1147 0.1961,0.1147 0.2923,0.2886 v -0.37 h 0.3404 v 2.0276 h -0.3404 v -0.3774 q -0.0999,0.1776 -0.2997,0.296 -0.1961,0.1147 -0.4588,0.1147 -0.2701,0 -0.4884,-0.1332 -0.2183,-0.1332 -0.3441,-0.3737 -0.1258,-0.2405 -0.1258,-0.5476 z m 1.7168,0.004 q 0,-0.2294 -0.0925,-0.3996 -0.0925,-0.1702 -0.2516,-0.259 -0.1554,-0.0925 -0.3441,-0.0925 -0.1887,0 -0.3441,0.0888 -0.1554,0.0888 -0.2479,0.259 -0.0925,0.1702 -0.0925,0.3996 0,0.2331 0.0925,0.407 0.0925,0.1702 0.2479,0.2627 0.1554,0.0888 0.3441,0.0888 0.1887,0 0.3441,-0.0888 0.1591,-0.0925 0.2516,-0.2627 0.0925,-0.1739 0.0925,-0.4033 z"
         style="text-align:center;text-anchor:middle"
         id="path6143" />
      <path
         d="m 71.208681,102.54718 q 0.37,0 0.5994,0.2257 0.2294,0.222 0.2294,0.6438 v 1.1951 h -0.333 v -1.147 q 0,-0.3034 -0.1517,-0.4625 -0.1517,-0.1628 -0.4144,-0.1628 -0.2664,0 -0.4255,0.1665 -0.1554,0.1665 -0.1554,0.4847 v 1.1211 h -0.3367 v -2.0276 h 0.3367 v 0.2886 q 0.0999,-0.1554 0.2701,-0.2405 0.1739,-0.0851 0.3811,-0.0851 z"
         style="text-align:center;text-anchor:middle"
         id="path6145" />
      <path
         d="m 73.576678,102.54718 q 0.37,0 0.5994,0.2257 0.2294,0.222 0.2294,0.6438 v 1.1951 h -0.333 v -1.147 q 0,-0.3034 -0.1517,-0.4625 -0.1517,-0.1628 -0.4144,-0.1628 -0.2664,0 -0.4255,0.1665 -0.1554,0.1665 -0.1554,0.4847 v 1.1211 h -0.3367 v -2.0276 h 0.3367 v 0.2886 q 0.0999,-0.1554 0.2701,-0.2405 0.1739,-0.0851 0.3811,-0.0851 z"
         style="text-align:center;text-anchor:middle"
         id="path6147" />
      <path
         d="m 76.703176,102.58418 -1.221,2.9822 h -0.3478 l 0.3996,-0.9768 -0.8177,-2.0054 h 0.3737 l 0.6364,1.6428 0.629,-1.6428 z"
         style="text-align:center;text-anchor:middle"
         id="path6149" />
      <path
         d="m 62.513562,107.4149 q 0.158984,-0.33242 0.534766,-0.67929 l 0.158984,0.14453 q -0.361328,0.33242 -0.505859,0.63594 -0.158985,0.33242 -0.158985,0.79492 0,0.39023 0.158985,0.73711 0.144531,0.31797 0.505859,0.7082 l -0.158984,0.15898 q -0.361329,-0.40468 -0.534766,-0.76601 -0.187891,-0.39024 -0.187891,-0.83828 0,-0.50586 0.187891,-0.8961 z"
         style="text-align:center;text-anchor:middle"
         id="path6151" />
      <path
         d="m 64.402528,107.07728 c 0.0777,0.1443 0.1591,0.3145 0.1924,0.4292 l 0.2405,-0.0888 c -0.0296,-0.0888 -0.0888,-0.222 -0.1591,-0.3404 h 0.6327 v -0.2368 h -0.9472 c 0.0481,-0.0888 0.0888,-0.1776 0.1258,-0.2701 l -0.259,-0.0666 c -0.1221,0.3182 -0.3441,0.6401 -0.5809,0.8473 0.0629,0.0333 0.1739,0.111 0.2257,0.1517 0.1221,-0.1147 0.2405,-0.2627 0.3478,-0.4255 z m 1.1211,1.2765 h 0.925 v 0.4403 c 0,0.037 -0.0111,0.0518 -0.0555,0.0518 -0.0407,0 -0.185,0.004 -0.333,-0.004 0.0333,0.0629 0.0777,0.148 0.0925,0.2183 0.2072,0 0.3552,0 0.4477,-0.037 0.0962,-0.0407 0.1221,-0.0962 0.1221,-0.2294 v -0.6808 h -1.1988 v -0.2849 h 1.4097 v -0.2442 h -1.4097 v -0.2331 h -0.0814 c 0.0703,-0.0814 0.1443,-0.1776 0.2109,-0.2738 h 0.2812 c 0.0925,0.1406 0.1813,0.3071 0.222,0.4218 l 0.2405,-0.0851 c -0.0333,-0.0925 -0.0999,-0.2183 -0.1776,-0.3367 h 0.7622 v -0.2368 h -1.1877 c 0.0444,-0.0888 0.0851,-0.1776 0.1221,-0.2738 l -0.2701,-0.0629 c -0.1147,0.3293 -0.3367,0.6401 -0.5883,0.8399 0.0518,0.0222 0.1221,0.074 0.1776,0.1184 v 0.1221 h -1.4615 v 0.2442 h 1.4615 v 0.2849 h -1.1951 v 0.9509 h 0.2849 v -0.7104 h 0.9102 v 0.3182 c -0.3256,0.4033 -0.9435,0.7326 -1.554,0.8732 0.0629,0.0555 0.1406,0.1591 0.1739,0.2294 0.5106,-0.1406 1.0175,-0.4218 1.3801,-0.777 v 0.8954 h 0.2886 v -0.888 c 0.3182,0.2997 0.8103,0.6031 1.3764,0.7548 0.0407,-0.0703 0.1184,-0.1813 0.1739,-0.2405 -0.6734,-0.148 -1.258,-0.4921 -1.5503,-0.8177 z"
         style="font-weight:normal;font-family:'Noto Sans CJK SC';-inkscape-font-specification:'Noto Sans CJK SC'"
         id="path6153" />
      <path
         d="m 68.013728,107.04768 v 0.8325 h -0.2923 v -0.8325 z m 0.4699,0.8325 h -0.2849 v -0.8325 h 0.2849 z m -0.2849,1.1248 v -0.9102 h 0.2849 v 0.9102 z m -0.4773,-0.9102 h 0.2923 v 0.9102 h -0.2923 z m 0.9731,-1.2913 h -1.1914 v 2.7121 h 0.2183 v -0.2701 h 0.9731 z m 1.5947,1.9573 v 0.6734 h -0.962 v -0.6734 z m -1.2062,1.0989 h 0.2442 v -0.1813 h 0.962 v 0.1776 h 0.2553 v -1.3431 h -1.4615 z m 0.333,-2.7158 h 0.8917 c -0.1221,0.2257 -0.2923,0.4255 -0.4921,0.5994 -0.1739,-0.1739 -0.3182,-0.3663 -0.4144,-0.5809 z m 1.0952,-0.2627 -0.0518,0.0111 h -0.9028 c 0.0555,-0.1073 0.1073,-0.2183 0.1517,-0.3293 l -0.2368,-0.0703 c -0.1628,0.4144 -0.4292,0.814 -0.7215,1.073 0.0481,0.0481 0.1332,0.1554 0.1628,0.2035 0.1184,-0.1073 0.2294,-0.2405 0.3404,-0.3848 0.0962,0.1813 0.222,0.3515 0.3737,0.5032 -0.2738,0.1961 -0.5846,0.3441 -0.9028,0.444 0.0333,0.0555 0.0925,0.1813 0.1147,0.2516 0.3404,-0.1221 0.6771,-0.296 0.9731,-0.518 0.2553,0.2146 0.5661,0.3885 0.9028,0.5106 0.0111,-0.074 0.0481,-0.1924 0.0851,-0.259 -0.296,-0.0888 -0.5698,-0.2331 -0.7955,-0.4107 0.2775,-0.2553 0.5143,-0.5624 0.6623,-0.925 z"
         style="font-weight:normal;font-family:'Noto Sans CJK SC';-inkscape-font-specification:'Noto Sans CJK SC'"
         id="path6155" />
      <path
         d="m 74.355528,107.18828 c -0.1258,-0.1665 -0.3885,-0.4181 -0.6105,-0.592 l -0.1998,0.1332 c 0.2183,0.1813 0.4773,0.4403 0.5957,0.6068 z m -2.2829,-0.629 c -0.2405,0.5809 -0.6475,1.1433 -1.0693,1.5022 0.0481,0.0629 0.1295,0.1998 0.1591,0.2664 0.1702,-0.1554 0.3367,-0.3367 0.4958,-0.5439 v 2.1053 h 0.2775 v -2.5012 c 0.1517,-0.2405 0.2886,-0.4884 0.3959,-0.7474 z m 2.3532,1.1914 -0.037,-0.259 -1.1063,0.1406 c -0.037,-0.3256 -0.0592,-0.6845 -0.0703,-1.0582 h -0.2738 c 0.0148,0.3848 0.0407,0.7511 0.0703,1.0952 l -0.8954,0.111 0.037,0.259 0.888,-0.111 c 0.1406,1.1544 0.4366,1.9203 1.0434,1.9647 0.1924,0.0111 0.3404,-0.1813 0.4218,-0.814 -0.0555,-0.0259 -0.1739,-0.0925 -0.2294,-0.1443 -0.037,0.4255 -0.0962,0.6438 -0.2035,0.6364 -0.3959,-0.037 -0.6364,-0.6993 -0.7622,-1.6798 z"
         style="font-weight:normal;font-family:'Noto Sans CJK SC';-inkscape-font-specification:'Noto Sans CJK SC'"
         id="path6157" />
      <path
         d="m 75.916928,108.86808 -0.4033,0.1332 v -0.9139 h 0.3737 v -0.259 h -0.3737 v -0.8029 h 0.4255 v -0.259 h -1.147 v 0.259 h 0.4588 v 0.8029 h -0.4218 v 0.259 h 0.4218 v 0.9953 c -0.1887,0.0629 -0.3589,0.1147 -0.4958,0.1554 l 0.0629,0.2775 c 0.3293,-0.1073 0.7511,-0.2516 1.147,-0.3848 z m 0.4551,-1.2506 h 0.5624 v 0.4736 h -0.5624 z m 0,-0.6919 h 0.5624 v 0.4662 h -0.5624 z m 1.3653,0.4662 h -0.5661 v -0.4662 h 0.5661 z m 0,0.6993 h -0.5661 v -0.4736 h 0.5661 z m -0.5439,1.4319 v -0.5069 h 0.8621 v -0.2516 h -0.8621 v -0.4329 h 0.8066 v -1.6465 h -1.8796 v 1.6465 h 0.7955 v 0.4329 h -0.8399 v 0.2516 h 0.8399 v 0.5069 h -1.1248 v 0.2516 h 2.3828 v -0.2516 z"
         style="font-weight:normal;font-family:'Noto Sans CJK SC';-inkscape-font-specification:'Noto Sans CJK SC'"
         id="path6159" />
      <path
         d="m 79.29364,109.14928 q -0.173437,0.36133 -0.534766,0.76601 l -0.158984,-0.15898 q 0.361328,-0.39023 0.505859,-0.7082 0.158985,-0.34688 0.158985,-0.73711 0,-0.4625 -0.158985,-0.79492 -0.144531,-0.30352 -0.505859,-0.63594 l 0.158984,-0.14453 q 0.375782,0.34687 0.534766,0.67929 0.187891,0.39024 0.187891,0.8961 0,0.44804 -0.187891,0.83828 z"
         style="text-align:center;text-anchor:middle"
         id="path6161" />
    </g>
    <rect
       width="47.62"
       height="18.52"
       x="47.63"
       y="57.15"
       fill="#30ba78"
       paint-order="stroke fill markers"
       rx="0"
       ry="0"
       id="rect5122" />
    <g
       aria-label="wicked
客户端"
       id="text5128"
       style="font-weight:500;font-size:3.7px;line-height:1.25;font-family:Poppins;-inkscape-font-specification:'Poppins, Medium';letter-spacing:0;stroke-width:0.26">
      <path
         d="m 68.100495,63.235004 -0.6327,2.0276 h -0.3478 l -0.4884,-1.6095 -0.4884,1.6095 h -0.3478 l -0.6364,-2.0276 h 0.3441 l 0.4662,1.702 0.5032,-1.702 h 0.3441 l 0.4921,1.7057 0.4588,-1.7057 z"
         style="text-align:center;text-anchor:middle"
         id="path6122" />
      <path
         d="m 68.607394,62.905704 q -0.0962,0 -0.1628,-0.0666 -0.0666,-0.0666 -0.0666,-0.1628 0,-0.0962 0.0666,-0.1628 0.0666,-0.0666 0.1628,-0.0666 0.0925,0 0.1554,0.0666 0.0666,0.0666 0.0666,0.1628 0,0.0962 -0.0666,0.1628 -0.0629,0.0666 -0.1554,0.0666 z m 0.1628,0.3293 v 2.0276 h -0.3367 v -2.0276 z"
         style="text-align:center;text-anchor:middle"
         id="path6124" />
      <path
         d="m 69.217895,64.245104 q 0,-0.3145 0.1258,-0.5476 0.1258,-0.2368 0.3478,-0.3663 0.2257,-0.1295 0.5143,-0.1295 0.3737,0 0.6142,0.1813 0.2442,0.1813 0.3219,0.5032 h -0.3626 q -0.0518,-0.185 -0.2035,-0.2923 -0.148,-0.1073 -0.37,-0.1073 -0.2886,0 -0.4662,0.1998 -0.1776,0.1961 -0.1776,0.5587 0,0.3663 0.1776,0.5661 0.1776,0.1998 0.4662,0.1998 0.222,0 0.37,-0.1036 0.148,-0.1036 0.2035,-0.296 h 0.3626 q -0.0814,0.3108 -0.3256,0.4995 -0.2442,0.185 -0.6105,0.185 -0.2886,0 -0.5143,-0.1295 -0.222,-0.1295 -0.3478,-0.3663 -0.1258,-0.2368 -0.1258,-0.555 z"
         style="text-align:center;text-anchor:middle"
         id="path6126" />
      <path
         d="m 72.721797,65.262604 -0.7955,-0.8954 v 0.8954 h -0.3367 v -2.738 h 0.3367 v 1.6095 l 0.7807,-0.8991 h 0.4699 l -0.9546,1.0101 0.9583,1.0175 z"
         style="text-align:center;text-anchor:middle"
         id="path6128" />
      <path
         d="m 75.345095,64.171104 q 0,0.0962 -0.0111,0.2035 h -1.6206 q 0.0185,0.2997 0.2035,0.4699 0.1887,0.1665 0.4551,0.1665 0.2183,0 0.3626,-0.0999 0.148,-0.1036 0.2072,-0.2738 h 0.3626 q -0.0814,0.2923 -0.3256,0.4773 -0.2442,0.1813 -0.6068,0.1813 -0.2886,0 -0.518,-0.1295 -0.2257,-0.1295 -0.3552,-0.3663 -0.1295,-0.2405 -0.1295,-0.555 0,-0.3145 0.1258,-0.5513 0.1258,-0.2368 0.3515,-0.3626 0.2294,-0.1295 0.5254,-0.1295 0.2886,0 0.5106,0.1258 0.222,0.1258 0.3404,0.3478 0.1221,0.2183 0.1221,0.4958 z m -0.3478,-0.0703 q 0,-0.1924 -0.0851,-0.3293 -0.0851,-0.1406 -0.2331,-0.2109 -0.1443,-0.074 -0.3219,-0.074 -0.2553,0 -0.4366,0.1628 -0.1776,0.1628 -0.2035,0.4514 z"
         style="text-align:center;text-anchor:middle"
         id="path6130" />
      <path
         d="m 75.663298,64.241404 q 0,-0.3108 0.1258,-0.5439 0.1258,-0.2368 0.3441,-0.3663 0.222,-0.1295 0.4958,-0.1295 0.2368,0 0.4403,0.111 0.2035,0.1073 0.3108,0.2849 v -1.073 h 0.3404 v 2.738 h -0.3404 v -0.3811 q -0.0999,0.1813 -0.296,0.2997 -0.1961,0.1147 -0.4588,0.1147 -0.2701,0 -0.4921,-0.1332 -0.2183,-0.1332 -0.3441,-0.3737 -0.1258,-0.2405 -0.1258,-0.5476 z m 1.7168,0.0037 q 0,-0.2294 -0.0925,-0.3996 -0.0925,-0.1702 -0.2516,-0.259 -0.1554,-0.0925 -0.3441,-0.0925 -0.1887,0 -0.3441,0.0888 -0.1554,0.0888 -0.2479,0.259 -0.0925,0.1702 -0.0925,0.3996 0,0.2331 0.0925,0.407 0.0925,0.1702 0.2479,0.2627 0.1554,0.0888 0.3441,0.0888 0.1887,0 0.3441,-0.0888 0.1591,-0.0925 0.2516,-0.2627 0.0925,-0.1739 0.0925,-0.4033 z"
         style="text-align:center;text-anchor:middle"
         id="path6132" />
      <path
         d="m 66.576097,67.754004 h 2.556701 v 0.4403 h 0.2775 v -0.6956 h -1.3172 c -0.0592,-0.1147 -0.1406,-0.2553 -0.2146,-0.3626 l -0.2664,0.0666 c 0.0555,0.0888 0.1147,0.1998 0.1665,0.296 h -1.472601 v 0.6956 h 0.2701 z m 0.462501,1.6613 c 0.2886,-0.0925 0.5661,-0.2109 0.8251,-0.3515 0.2664,0.1443 0.5587,0.259 0.8732,0.3515 z m 0.0999,0.7696 v -0.5365 h 1.4615 v 0.5365 z m 0.1924,-1.8759 h 1.1174 c -0.1517,0.1702 -0.3515,0.3219 -0.5809,0.4625 -0.2183,-0.1332 -0.407,-0.2812 -0.5513,-0.4477 z m 1.3542,-0.2294 -0.0481,0.0111 h -1.0989 c 0.0592,-0.074 0.1184,-0.1443 0.1702,-0.2183 l -0.296,-0.0518 c -0.185,0.2812 -0.543901,0.6031 -1.050801,0.8288 0.0629,0.0444 0.1443,0.1332 0.185,0.1961 0.2183,-0.1073 0.4107,-0.2294 0.577201,-0.3589 0.1369,0.1554 0.2997,0.296 0.4847,0.4255 -0.444,0.2183 -0.962001,0.3774 -1.454101,0.4625 0.0481,0.0592 0.1073,0.1702 0.1332,0.2405 0.1924,-0.0407 0.3885,-0.0851 0.5846,-0.1443 v 1.073 h 0.266401 v -0.1221 h 1.4615 v 0.1184 h 0.2775 v -1.0878 c 0.1665,0.0444 0.3404,0.0814 0.5143,0.1036 0.0407,-0.0777 0.111,-0.1961 0.1739,-0.259 -0.5254,-0.0666 -1.0212,-0.1998 -1.4319,-0.3922 0.2997,-0.1961 0.555,-0.4329 0.7363,-0.7067 z"
         style="font-weight:normal;font-family:'Noto Sans CJK SC';-inkscape-font-specification:'Noto Sans CJK SC';text-align:center;text-anchor:middle"
         id="path6134" />
      <path
         d="m 70.623898,68.730804 c 0.0037,-0.0703 0.0037,-0.1332 0.0037,-0.1961 v -0.5402 h 1.924 v 0.7363 z m 1.0397,-0.9953 0.1702,-0.0518 c -0.0444,-0.1443 -0.1406,-0.3663 -0.2257,-0.5365 l -0.2664,0.0703 c 0.074,0.1628 0.1554,0.3737 0.1998,0.518 h -1.1951 v 0.7992 c 0,0.555 -0.0481,1.3209 -0.4958,1.8648 0.0666,0.0296 0.1887,0.1184 0.2331,0.1665 0.3626,-0.4366 0.4884,-1.0471 0.5291,-1.5762 h 1.9388 v 0.2405 h 0.2775 v -1.4948 z"
         style="font-weight:normal;font-family:'Noto Sans CJK SC';-inkscape-font-specification:'Noto Sans CJK SC';text-align:center;text-anchor:middle"
         id="path6136" />
      <path
         d="m 76.810298,67.350704 h -0.2627 v 0.6327 h -0.5587 v -0.8103 h -0.2627 v 0.8103 h -0.5106 v -0.6327 h -0.2553 v 0.8769 h 1.85 z m -2.3495,0.3885 c -0.0481,-0.1443 -0.1554,-0.3663 -0.259,-0.5328 l -0.2294,0.074 c 0.0925,0.1702 0.1998,0.3996 0.2442,0.5476 z m 0.3811,0.1184 h -1.2321 v 0.2553 h 1.2321 z m -0.7363,1.7538 c -0.0148,-0.3663 -0.0851,-0.8991 -0.1702,-1.3209 l -0.2109,0.037 c 0.0777,0.4181 0.148,0.9583 0.1591,1.3209 z m 0.3774,0.0888 c 0.0888,-0.3922 0.1813,-0.9583 0.2442,-1.3986 l -0.2405,-0.0444 c -0.0407,0.4477 -0.1295,1.0989 -0.2183,1.4948 -0.2627,0.0592 -0.4995,0.1184 -0.6845,0.1591 l 0.0592,0.2664 c 0.3478,-0.0814 0.7955,-0.1998 1.2247,-0.3108 l -0.0296,-0.2553 z m 2.4494,-0.9583 v -0.2442 h -2.1312 v 0.2442 h 0.8991 c -0.0222,0.111 -0.0444,0.2331 -0.0666,0.3367 h -0.7141 v 1.4652 h 0.2479 v -1.2284 h 0.3256 v 1.1951 h 0.2183 v -1.1951 h 0.3404 v 1.184 h 0.2183 v -1.184 h 0.3367 v 0.9768 c 0,0.0296 -0.0074,0.0407 -0.0407,0.0407 -0.0259,0.0037 -0.1221,0.0037 -0.2257,0 0.0333,0.0629 0.0703,0.1517 0.0814,0.222 0.1591,0 0.2627,-0.0037 0.3367,-0.0444 0.0777,-0.0407 0.0962,-0.0999 0.0962,-0.2146 v -1.2173 h -0.9509 c 0.037,-0.1036 0.0703,-0.222 0.1073,-0.3367 z"
         style="font-weight:normal;font-family:'Noto Sans CJK SC';-inkscape-font-specification:'Noto Sans CJK SC';text-align:center;text-anchor:middle"
         id="path6138" />
    </g>
    <g
       aria-label="请求方"
       id="text5132"
       style="font-weight:500;font-size:3.17px;line-height:1.25;font-family:Poppins;-inkscape-font-specification:'Poppins, Medium';letter-spacing:0;stroke-width:0.26">
      <path
         d="m 227.60057,53.973146 c -0.0983,-0.1268 -0.31383,-0.32334 -0.47867,-0.46282 l -0.15216,0.13948 c 0.16484,0.14899 0.37406,0.35504 0.46916,0.48818 z m -0.13631,1.80373 v -1.35042 h -0.70057 v 0.22507 h 0.47233 v 1.15071 c 0,0.13948 -0.0888,0.23458 -0.14899,0.26945 0.0412,0.04755 0.10144,0.14582 0.12363,0.19971 0.0476,-0.06023 0.12997,-0.12997 0.65936,-0.5389 -0.0254,-0.04438 -0.0666,-0.13314 -0.0824,-0.19654 z m 0.72276,-0.10778 v -0.25677 h 0.98904 v 0.25677 z m 0.98904,-0.6657 v 0.24409 h -0.98904 v -0.24409 z m 0.22507,-0.18386 h -1.43601 v 1.50892 h 0.2219 v -0.48818 h 0.98904 v 0.2219 c 0,0.04121 -0.0127,0.05389 -0.0602,0.05389 -0.038,0.0032 -0.1902,0.0032 -0.35187,-0.0032 0.0285,0.06023 0.0602,0.14582 0.0697,0.20288 0.22507,0.0032 0.36455,0 0.45648,-0.03487 0.0856,-0.03487 0.11095,-0.0951 0.11095,-0.21556 z m -0.60547,-0.36138 v -0.2219 h 0.6657 v -0.17118 h -0.6657 v -0.19971 h 0.7608 v -0.18069 h -0.7608 v -0.24726 h -0.23141 v 0.24726 h -0.7291 v 0.18069 h 0.7291 v 0.19971 h -0.65302 v 0.17118 h 0.65302 v 0.2219 h -0.8242 v 0.18069 h 1.90834 v -0.18069 z"
         style="font-weight:normal;font-family:'Noto Sans CJK SC';-inkscape-font-specification:'Noto Sans CJK SC';text-align:center;text-anchor:middle"
         id="path6262" />
      <path
         d="m 232.41897,54.337696 c -0.14265,0.19654 -0.3804,0.44697 -0.57694,0.62766 -0.14265,-0.22507 -0.26311,-0.47233 -0.35187,-0.7291 v -0.04121 h 1.268 v -0.22824 h -0.38991 l 0.13314,-0.15216 c -0.1268,-0.10778 -0.3804,-0.25677 -0.58011,-0.35821 l -0.13948,0.14899 c 0.1902,0.10144 0.42795,0.25043 0.55792,0.36138 h -0.84956 v -0.52305 h -0.23775 v 0.52305 h -1.24581 v 0.22824 h 1.24581 v 0.87809 c -0.47867,0.27262 -0.99538,0.56109 -1.31555,0.72593 l 0.15216,0.21239 c 0.32334,-0.18703 0.75446,-0.4438 1.16339,-0.6974 v 0.6974 c 0,0.06023 -0.0222,0.07608 -0.0793,0.07925 -0.0634,0.0032 -0.26945,0.0032 -0.48501,-0.0032 0.0317,0.06974 0.0697,0.18069 0.0824,0.24726 0.27896,0 0.46599,-0.0063 0.5706,-0.04755 0.10461,-0.03804 0.14899,-0.11095 0.14899,-0.27579 v -1.25849 c 0.27262,0.58328 0.66887,1.06512 1.17924,1.31238 0.0412,-0.0634 0.11729,-0.15533 0.17118,-0.19971 -0.34236,-0.14899 -0.64351,-0.40893 -0.88126,-0.72593 0.21556,-0.17752 0.46916,-0.43429 0.66253,-0.65936 z m -1.53428,0.63083 c -0.10144,-0.17118 -0.33285,-0.41527 -0.53256,-0.58645 l -0.17752,0.12363 c 0.19971,0.17752 0.42161,0.43112 0.51988,0.6023 z"
         style="font-weight:normal;font-family:'Noto Sans CJK SC';-inkscape-font-specification:'Noto Sans CJK SC';text-align:center;text-anchor:middle"
         id="path6264" />
      <path
         d="m 235.91548,54.214066 v -0.23141 h -1.32189 l 0.21873,-0.0951 c -0.0444,-0.12997 -0.14265,-0.32017 -0.22824,-0.46916 l -0.22507,0.08876 c 0.0824,0.14582 0.17435,0.3487 0.21556,0.4755 h -1.38529 v 0.23141 h 0.8559 c -0.0349,0.72276 -0.11729,1.53428 -0.92564,1.93687 0.0602,0.04438 0.13314,0.1268 0.17118,0.1902 0.59596,-0.317 0.83371,-0.84005 0.93515,-1.39797 h 1.12852 c -0.0539,0.71325 -0.11412,1.01757 -0.20922,1.09999 -0.0349,0.02853 -0.0761,0.03487 -0.14899,0.03487 -0.0824,0 -0.30432,-0.0032 -0.52939,-0.02219 0.0444,0.0634 0.0761,0.1585 0.0824,0.22824 0.21239,0.01585 0.41844,0.01902 0.52939,0.01268 0.12363,-0.0095 0.19654,-0.0317 0.27262,-0.11095 0.12363,-0.12363 0.18703,-0.46599 0.24726,-1.35676 0.006,-0.03487 0.01,-0.11412 0.01,-0.11412 h -1.34725 c 0.0222,-0.16801 0.0349,-0.33602 0.0444,-0.50086 z"
         style="font-weight:normal;font-family:'Noto Sans CJK SC';-inkscape-font-specification:'Noto Sans CJK SC';text-align:center;text-anchor:middle"
         id="path6266" />
    </g>
    <rect
       width="124.35"
       height="21.17"
       x="47.63"
       y="158.75"
       fill="#c0c2c4"
       paint-order="stroke fill markers"
       rx="0"
       ry="0"
       id="rect5134" />
    <g
       aria-label="内核"
       id="text5138"
       style="font-weight:500;font-size:3.7px;line-height:1.25;font-family:Poppins;-inkscape-font-specification:'Poppins, Medium';letter-spacing:0;stroke-width:0.26">
      <path
         d="m 108.33261,168.2258 h -1.3394 v -0.6327 h -0.2738 v 0.6327 h -1.3394 v 2.7528 h 0.2701 v -2.4827 h 1.0656 c -0.0222,0.4847 -0.1554,1.0952 -0.9694,1.5281 0.0629,0.0481 0.1554,0.148 0.1961,0.2072 0.4958,-0.2923 0.7622,-0.6364 0.8991,-0.9916 0.3404,0.3182 0.7104,0.6956 0.8991,0.9435 l 0.2257,-0.1776 c -0.2257,-0.2738 -0.6771,-0.7067 -1.0434,-1.0286 0.0407,-0.1665 0.0592,-0.3293 0.0666,-0.481 h 1.073 v 2.109 c 0,0.0666 -0.0222,0.0888 -0.0888,0.0925 -0.0777,0.004 -0.3293,0.004 -0.5883,-0.007 0.0407,0.074 0.0814,0.2035 0.0925,0.2775 0.3293,0 0.5587,0 0.6882,-0.0481 0.1258,-0.0444 0.1665,-0.1332 0.1665,-0.3108 z"
         style="font-weight:normal;font-family:'Noto Sans CJK SC';-inkscape-font-specification:'Noto Sans CJK SC';text-align:center;text-anchor:middle"
         id="path6298" />
      <path
         d="m 111.59971,168.6624 c -0.0555,0.1147 -0.1332,0.2331 -0.2183,0.3441 l -0.629,0.037 c 0.1332,-0.2035 0.3108,-0.4847 0.4366,-0.6919 h 1.0434 v -0.2553 h -0.8288 l 0.037,-0.0148 c -0.0296,-0.1369 -0.1221,-0.3478 -0.2146,-0.5032 l -0.2553,0.0777 c 0.074,0.1369 0.1443,0.3071 0.185,0.4403 h -0.9657 v 0.2553 h 0.703 c -0.1258,0.2146 -0.333,0.5476 -0.4033,0.6216 -0.0629,0.0666 -0.1665,0.0925 -0.2368,0.1073 0.0222,0.0592 0.0666,0.1961 0.074,0.259 0.0703,-0.0222 0.1776,-0.0444 0.8399,-0.0888 -0.2738,0.2775 -0.6179,0.5254 -0.9879,0.6956 0.0518,0.0518 0.1258,0.148 0.1554,0.2072 0.6512,-0.3108 1.2099,-0.8362 1.5244,-1.3986 z m -1.48,0.6993 c -0.0629,-0.1036 -0.333,-0.518 -0.4329,-0.6549 v -0.1443 h 0.4181 v -0.259 h -0.4181 v -0.7104 h -0.2627 v 0.7104 h -0.4921 v 0.259 h 0.4736 c -0.111,0.5032 -0.3404,1.0878 -0.5698,1.3949 0.0518,0.0666 0.1184,0.185 0.1443,0.2664 0.1665,-0.2368 0.3256,-0.6179 0.444,-1.0175 v 1.7649 h 0.2627 v -1.9277 c 0.0999,0.1813 0.2146,0.3959 0.2664,0.5106 z m 1.7501,-0.0407 c -0.3145,0.6216 -1.0175,1.1507 -1.8759,1.4282 0.0518,0.0555 0.1295,0.1628 0.1628,0.2257 0.4625,-0.1591 0.8769,-0.3848 1.221,-0.6623 0.2442,0.2035 0.5254,0.4588 0.666,0.6216 l 0.2109,-0.1813 c -0.148,-0.1665 -0.4403,-0.4107 -0.6845,-0.6068 0.2331,-0.2183 0.4292,-0.4588 0.5809,-0.7252 z"
         style="font-weight:normal;font-family:'Noto Sans CJK SC';-inkscape-font-specification:'Noto Sans CJK SC';text-align:center;text-anchor:middle"
         id="path6300" />
    </g>
    <path
       fill="none"
       stroke="#0c322c"
       stroke-width=".56"
       marker-end="url(#a)"
       marker-start="url(#b)"
       d="M71.44 77.79v17.46"
       id="path5140" />
    <path
       fill="none"
       stroke="#0c322c"
       stroke-width=".56"
       marker-end="url(#a)"
       marker-start="url(#b)"
       d="M96.84 105.83h25.93"
       id="path5142" />
    <path
       fill="none"
       stroke="#0c322c"
       stroke-width=".56"
       marker-end="url(#a)"
       marker-start="url(#b)"
       d="M148.17 116.95v20.63h-38.63v19.58"
       id="path5144" />
    <path
       fill="none"
       stroke="#0c322c"
       stroke-width=".56"
       marker-end="url(#a)"
       marker-start="url(#b)"
       d="M173.57 105.83h24.87V97.9h22.22"
       id="path5146" />
    <g
       aria-label="方法调用"
       id="text5150"
       style="font-weight:500;font-size:3.17px;line-height:1.25;font-family:Poppins;-inkscape-font-specification:'Poppins, Medium';letter-spacing:0;stroke-width:0.26">
      <path
         d="m 106.19292,101.28653 v -0.23141 h -1.32189 l 0.21873,-0.0951 c -0.0444,-0.12997 -0.14265,-0.32017 -0.22824,-0.46916 l -0.22507,0.0888 c 0.0824,0.14582 0.17435,0.3487 0.21556,0.4755 h -1.38529 v 0.23141 h 0.8559 c -0.0349,0.72276 -0.11729,1.53428 -0.92564,1.93687 0.0602,0.0444 0.13314,0.1268 0.17118,0.1902 0.59596,-0.317 0.83371,-0.84005 0.93515,-1.39797 h 1.12852 c -0.0539,0.71325 -0.11412,1.01757 -0.20922,1.09999 -0.0349,0.0285 -0.0761,0.0349 -0.14899,0.0349 -0.0824,0 -0.30432,-0.003 -0.52939,-0.0222 0.0444,0.0634 0.0761,0.1585 0.0824,0.22824 0.21239,0.0159 0.41844,0.019 0.52939,0.0127 0.12363,-0.01 0.19654,-0.0317 0.27262,-0.11095 0.12363,-0.12363 0.18703,-0.46599 0.24726,-1.35676 0.006,-0.0349 0.01,-0.11412 0.01,-0.11412 h -1.34725 c 0.0222,-0.16801 0.0349,-0.33602 0.0444,-0.50086 z"
         style="font-weight:normal;font-family:'Noto Sans CJK SC';-inkscape-font-specification:'Noto Sans CJK SC';text-align:center;text-anchor:middle"
         id="path6401" />
      <path
         d="m 107.26755,101.71131 c -0.12997,-0.10144 -0.38991,-0.23775 -0.58962,-0.317 l -0.1268,0.17118 c 0.20605,0.0919 0.45648,0.23458 0.58645,0.34236 z m -0.4121,1.6484 c 0.18703,-0.29164 0.40893,-0.68472 0.57377,-1.01757 l -0.17118,-0.15533 c -0.18069,0.35821 -0.43112,0.77348 -0.59913,1.0144 z m -0.13314,-2.64695 c 0.20922,0.0951 0.46599,0.24726 0.59279,0.35504 l 0.13631,-0.19654 c -0.13314,-0.10144 -0.39308,-0.24409 -0.6023,-0.32968 z m 2.65646,2.58038 c -0.0951,-0.24409 -0.33285,-0.62132 -0.55475,-0.89711 l -0.1902,0.0888 c 0.0983,0.12363 0.19337,0.26628 0.28213,0.40893 l -1.00172,0.11095 c 0.19654,-0.26628 0.39308,-0.6023 0.55792,-0.93832 h 0.89394 v -0.22507 h -0.83054 v -0.56426 h 0.70057 v -0.22507 h -0.70057 v -0.54524 h -0.23458 v 0.54524 h -0.67521 v 0.22507 h 0.67521 v 0.56426 h -0.81469 v 0.22507 h 0.70691 c -0.1585,0.35504 -0.36772,0.69106 -0.43746,0.78616 -0.0793,0.11412 -0.14265,0.1902 -0.20288,0.20605 0.0285,0.0634 0.0666,0.18069 0.0792,0.23458 0.0856,-0.0412 0.21873,-0.0634 1.3948,-0.20922 0.0602,0.11729 0.11412,0.22507 0.14582,0.31383 z"
         style="font-weight:normal;font-family:'Noto Sans CJK SC';-inkscape-font-specification:'Noto Sans CJK SC';text-align:center;text-anchor:middle"
         id="path6403" />
      <path
         d="m 110.56118,101.05195 c -0.0983,-0.12997 -0.31383,-0.33285 -0.48501,-0.47233 l -0.15533,0.14265 c 0.17118,0.14582 0.37723,0.35821 0.4755,0.49452 z m 0.5706,0.67204 v 0.17752 h 1.03659 v -0.17752 h -0.43746 v -0.32334 h 0.35187 v -0.17752 h -0.35187 v -0.26628 h -0.19337 v 0.26628 h -0.33602 v 0.17752 h 0.33602 v 0.32334 z m 0.73227,0.61498 v 0.3804 h -0.47867 v -0.3804 z m 0.18386,0.55792 v -0.73544 h -0.84639 v 0.87809 h 0.18386 v -0.14265 z m 0.45014,-2.24753 h -1.70229 v 1.1729 c 0,0.30115 -0.0127,0.65302 -0.0983,0.97636 -0.0254,-0.0476 -0.0539,-0.11412 -0.0697,-0.1585 l -0.22824,0.17435 v -1.31555 h -0.67204 v 0.22507 h 0.4438 v 1.09048 c 0,0.16484 -0.11412,0.28847 -0.17752,0.33919 0.0412,0.0349 0.11729,0.11729 0.14582,0.1585 0.0444,-0.0507 0.12046,-0.11729 0.5389,-0.44697 -0.0476,0.14582 -0.10778,0.2853 -0.19654,0.4121 0.0476,0.0222 0.13314,0.0856 0.17118,0.12363 0.30749,-0.43112 0.35187,-1.09048 0.35187,-1.57549 v -0.96368 h 1.28068 v 2.25387 c 0,0.0475 -0.019,0.0634 -0.0634,0.0666 -0.0444,0 -0.19337,0.003 -0.35821,-0.006 0.0317,0.0602 0.0666,0.1585 0.0761,0.21873 0.22507,0 0.36138,-0.003 0.44697,-0.0412 0.0824,-0.0412 0.11095,-0.10461 0.11095,-0.23458 z"
         style="font-weight:normal;font-family:'Noto Sans CJK SC';-inkscape-font-specification:'Noto Sans CJK SC';text-align:center;text-anchor:middle"
         id="path6405" />
      <path
         d="m 114.46662,102.21217 v -0.52622 h 0.85273 v 0.52622 z m -1.00489,0 c 0.01,-0.11729 0.0127,-0.23458 0.0127,-0.33919 v -0.18703 h 0.75763 v 0.52622 z m 0.77031,-1.25532 v 0.5072 h -0.75763 v -0.5072 z m 1.08731,0.5072 h -0.85273 v -0.5072 h 0.85273 z m 0.23141,-0.73227 H 113.243 v 1.1412 c 0,0.44063 -0.0317,0.99855 -0.3804,1.39163 0.0507,0.0285 0.14582,0.10778 0.18069,0.15533 0.24092,-0.26945 0.3487,-0.63083 0.39625,-0.9827 h 0.7925 v 0.93515 h 0.23458 v -0.93515 h 0.85273 v 0.64351 c 0,0.0602 -0.0222,0.0793 -0.0856,0.0824 -0.0571,0 -0.27262,0.003 -0.49452,-0.006 0.0317,0.0634 0.0697,0.16484 0.0793,0.22824 0.29798,0.003 0.48184,0 0.58962,-0.038 0.10144,-0.0412 0.14265,-0.11095 0.14265,-0.26311 z"
         style="font-weight:normal;font-family:'Noto Sans CJK SC';-inkscape-font-specification:'Noto Sans CJK SC';text-align:center;text-anchor:middle"
         id="path6407" />
    </g>
    <g
       aria-label="事件"
       id="text5154"
       style="font-weight:500;font-size:3.17px;line-height:1.25;font-family:Poppins;-inkscape-font-specification:'Poppins, Medium';letter-spacing:0;stroke-width:0.26">
      <path
         d="m 100.92193,110.10156 h -0.7608 v -0.23775 h 0.7608 z m -0.7608,-0.64668 h 0.7608 v 0.2219 h -0.7608 z m -0.916127,-0.56109 v -0.22824 h 0.68155 v 0.22824 z m 1.626207,-0.22824 v 0.22824 h -0.71008 v -0.22824 z m 0.61181,1.01123 h -0.32651 v -0.39625 h -0.99538 v -0.2219 h 0.94466 v -0.55792 h -0.94466 v -0.18386 h 1.26166 v -0.19337 h -1.26166 v -0.2536 h -0.234577 v 0.2536 h -1.2363 v 0.19337 h 1.2363 v 0.18386 h -0.90662 v 0.55792 h 0.90662 v 0.2219 h -0.99538 v 0.17435 h 0.99538 v 0.2219 h -1.29653 v 0.18703 h 1.29653 v 0.23775 h -1.02391 v 0.18069 h 1.02391 v 0.21873 c 0,0.0539 -0.01902,0.0729 -0.07925,0.0761 -0.05389,0 -0.24409,0.003 -0.43429,-0.003 0.0317,0.0539 0.06974,0.13948 0.08242,0.19971 0.26311,0 0.42795,-0.003 0.526217,-0.038 0.0951,-0.0349 0.13948,-0.0888 0.13948,-0.23458 v -0.21873 h 0.7608 v 0.14265 h 0.23458 v -0.56109 h 0.32651 z"
         style="font-weight:normal;font-family:'Noto Sans CJK SC';-inkscape-font-specification:'Noto Sans CJK SC'"
         id="path6410" />
      <path
         d="m 102.49425,107.87939 c -0.16801,0.47867 -0.44697,0.951 -0.74178,1.25849 0.0412,0.0539 0.11095,0.17435 0.13314,0.23141 0.0983,-0.11095 0.19971,-0.23458 0.29164,-0.37089 v 1.75935 h 0.22507 v -2.1239 c 0.12046,-0.21873 0.22507,-0.45331 0.31383,-0.68472 z m 2.14926,1.55964 h -0.85907 v -0.69423 h 0.72276 v -0.23141 h -0.72276 v -0.60547 h -0.23458 v 0.60547 h -0.42161 c 0.0412,-0.14265 0.0761,-0.29164 0.10461,-0.44063 l -0.2219,-0.0476 c -0.0729,0.40893 -0.20288,0.82103 -0.38991,1.08097 0.0602,0.0285 0.1585,0.0856 0.20288,0.12046 0.0856,-0.13314 0.16167,-0.29798 0.22824,-0.48184 h 0.49769 v 0.69423 h -0.90345 v 0.23141 h 0.90345 v 1.09365 h 0.23458 v -1.09365 h 0.85907 z"
         style="font-weight:normal;font-family:'Noto Sans CJK SC';-inkscape-font-specification:'Noto Sans CJK SC'"
         id="path6412" />
    </g>
    <g
       aria-label="事件"
       id="text5158"
       style="font-weight:500;font-size:3.17px;line-height:1.25;font-family:Poppins;-inkscape-font-specification:'Poppins, Medium';letter-spacing:0;stroke-width:0.26">
      <path
         d="m 152.78358,120.68156 h -0.7608 v -0.23775 h 0.7608 z m -0.7608,-0.64668 h 0.7608 v 0.2219 h -0.7608 z m -0.91613,-0.56109 v -0.22824 h 0.68155 v 0.22824 z m 1.62621,-0.22824 v 0.22824 h -0.71008 v -0.22824 z m 0.61181,1.01123 h -0.32651 v -0.39625 h -0.99538 v -0.2219 h 0.94466 v -0.55792 h -0.94466 v -0.18386 h 1.26166 v -0.19337 h -1.26166 v -0.2536 h -0.23458 v 0.2536 h -1.2363 v 0.19337 h 1.2363 v 0.18386 h -0.90662 v 0.55792 h 0.90662 v 0.2219 h -0.99538 v 0.17435 h 0.99538 v 0.2219 h -1.29653 v 0.18703 h 1.29653 v 0.23775 h -1.02391 v 0.18069 h 1.02391 v 0.21873 c 0,0.0539 -0.019,0.0729 -0.0793,0.0761 -0.0539,0 -0.24409,0.003 -0.43429,-0.003 0.0317,0.0539 0.0697,0.13948 0.0824,0.19971 0.26311,0 0.42795,-0.003 0.52622,-0.038 0.0951,-0.0349 0.13948,-0.0888 0.13948,-0.23458 v -0.21873 h 0.7608 v 0.14265 h 0.23458 v -0.56109 h 0.32651 z"
         style="font-weight:normal;font-family:'Noto Sans CJK SC';-inkscape-font-specification:'Noto Sans CJK SC'"
         id="path6544" />
      <path
         d="m 154.3559,118.45939 c -0.16801,0.47867 -0.44697,0.951 -0.74178,1.25849 0.0412,0.0539 0.11095,0.17435 0.13314,0.23141 0.0983,-0.11095 0.19971,-0.23458 0.29164,-0.37089 v 1.75935 h 0.22507 v -2.1239 c 0.12046,-0.21873 0.22507,-0.45331 0.31383,-0.68472 z m 2.14926,1.55964 h -0.85907 v -0.69423 h 0.72276 v -0.23141 h -0.72276 v -0.60547 h -0.23458 v 0.60547 h -0.42161 c 0.0412,-0.14265 0.0761,-0.29164 0.10461,-0.44063 l -0.2219,-0.0476 c -0.0729,0.40893 -0.20288,0.82103 -0.38991,1.08097 0.0602,0.0285 0.1585,0.0856 0.20288,0.12046 0.0856,-0.13314 0.16167,-0.29798 0.22824,-0.48184 h 0.49769 v 0.69423 h -0.90345 v 0.23141 h 0.90345 v 1.09365 h 0.23458 v -1.09365 h 0.85907 z"
         style="font-weight:normal;font-family:'Noto Sans CJK SC';-inkscape-font-specification:'Noto Sans CJK SC'"
         id="path6546" />
    </g>
    <g
       aria-label="设置调用"
       id="text5162"
       style="font-weight:500;font-size:3.17px;line-height:1.25;font-family:Poppins;-inkscape-font-specification:'Poppins, Medium';letter-spacing:0;stroke-width:0.26">
      <path
         d="m 113.77837,151.23685 h 0.55792 v 0.5072 c 0,0.23458 0.0476,0.32651 0.26311,0.32651 h 0.23775 c 0.0634,0 0.1268,-0.003 0.16801,-0.0159 -0.01,-0.0539 -0.019,-0.14265 -0.0222,-0.20288 -0.038,0.01 -0.10461,0.0159 -0.14899,0.0159 h -0.21873 c -0.0476,0 -0.0571,-0.0285 -0.0571,-0.11729 v -0.73544 h -1.00172 v 0.3487 c 0,0.23458 -0.0697,0.49769 -0.48501,0.68789 0.0444,0.0349 0.12363,0.1268 0.15216,0.17435 0.45331,-0.21873 0.55475,-0.56109 0.55475,-0.8559 z m -0.74495,0.19337 c -0.10144,-0.1268 -0.317,-0.32968 -0.48818,-0.46916 l -0.15216,0.14265 c 0.17118,0.14899 0.3804,0.36138 0.48184,0.49452 z m -0.21239,1.81958 v -1.35676 h -0.67204 v 0.22507 h 0.4438 v 1.13169 c 0,0.14265 -0.0983,0.24726 -0.1585,0.2853 0.0444,0.0444 0.10461,0.14265 0.1268,0.19654 0.0507,-0.0571 0.13631,-0.1268 0.69423,-0.5389 -0.0285,-0.0444 -0.0666,-0.13314 -0.0856,-0.19337 z m 1.72765,-0.73544 c -0.11412,0.25043 -0.2853,0.45965 -0.49452,0.62766 -0.20922,-0.17435 -0.3804,-0.38674 -0.49452,-0.62766 z m 0.15216,-0.23141 -0.0412,0.01 h -1.43918 v 0.2219 h 0.16167 l -0.0444,0.0159 c 0.12997,0.28847 0.30749,0.5389 0.52939,0.74495 -0.23458,0.14899 -0.50403,0.2536 -0.78299,0.317 0.0444,0.0539 0.0983,0.14582 0.11729,0.20922 0.30115,-0.0856 0.59279,-0.20605 0.84639,-0.3804 0.23775,0.17752 0.52622,0.30749 0.84956,0.38674 0.0317,-0.0666 0.0919,-0.1585 0.14582,-0.20922 -0.30432,-0.0666 -0.57694,-0.17435 -0.80518,-0.32334 0.26945,-0.22824 0.48501,-0.53256 0.60864,-0.92564 z"
         style="font-weight:normal;font-family:'Noto Sans CJK SC';-inkscape-font-specification:'Noto Sans CJK SC'"
         id="path6549" />
      <path
         d="m 116.00371,153.33222 h 1.48673 v 0.19337 h -1.48673 z m 1.48673,-0.97002 v 0.17752 h -1.48673 v -0.17752 z m -1.48673,0.64034 h 1.48673 v 0.1902 h -1.48673 z m 1.48673,-0.13948 h -1.48673 v -0.18069 h 1.48673 z m -0.99538,-1.67059 h 0.51988 v 0.2853 h -0.51988 z m -0.21873,0.2853 h -0.50086 v -0.2853 h 0.50086 z m 0.95417,-0.2853 h 0.53256 v 0.2853 h -0.53256 z m 0.49135,2.33312 v -1.32189 h -0.98587 c 0.0159,-0.0602 0.0285,-0.12046 0.0444,-0.1902 h 1.30604 v -0.18386 h -1.27117 c 0.0127,-0.0602 0.0254,-0.12363 0.0349,-0.18069 h 1.14437 v -0.62766 h -2.44407 v 0.62766 h 1.06195 c -0.006,0.0571 -0.0159,0.12046 -0.0254,0.18069 h -1.19192 v 0.18386 h 1.16022 c -0.0127,0.0697 -0.0254,0.12997 -0.038,0.1902 h -0.73544 v 1.32189 h -0.41844 v 0.17752 h 2.79277 v -0.17752 z"
         style="font-weight:normal;font-family:'Noto Sans CJK SC';-inkscape-font-specification:'Noto Sans CJK SC'"
         id="path6551" />
      <path
         d="m 119.3227,151.44607 c -0.0983,-0.12997 -0.31383,-0.33285 -0.48501,-0.47233 l -0.15533,0.14265 c 0.17118,0.14582 0.37723,0.35821 0.4755,0.49452 z m 0.5706,0.67204 v 0.17752 h 1.03659 v -0.17752 h -0.43746 v -0.32334 h 0.35187 v -0.17752 h -0.35187 v -0.26628 h -0.19337 v 0.26628 h -0.33602 v 0.17752 h 0.33602 v 0.32334 z m 0.73227,0.61498 v 0.3804 h -0.47867 v -0.3804 z m 0.18386,0.55792 v -0.73544 h -0.84639 v 0.87809 h 0.18386 v -0.14265 z m 0.45014,-2.24753 h -1.70229 v 1.1729 c 0,0.30115 -0.0127,0.65302 -0.0983,0.97636 -0.0254,-0.0475 -0.0539,-0.11412 -0.0697,-0.1585 l -0.22824,0.17435 v -1.31555 h -0.67204 v 0.22507 h 0.4438 v 1.09048 c 0,0.16484 -0.11412,0.28847 -0.17752,0.33919 0.0412,0.0349 0.11729,0.11729 0.14582,0.1585 0.0444,-0.0507 0.12046,-0.11729 0.5389,-0.44697 -0.0476,0.14582 -0.10778,0.2853 -0.19654,0.4121 0.0476,0.0222 0.13314,0.0856 0.17118,0.12363 0.30749,-0.43112 0.35187,-1.09048 0.35187,-1.57549 v -0.96368 h 1.28068 v 2.25387 c 0,0.0476 -0.019,0.0634 -0.0634,0.0666 -0.0444,0 -0.19337,0.003 -0.35821,-0.006 0.0317,0.0602 0.0666,0.1585 0.0761,0.21873 0.22507,0 0.36138,-0.003 0.44697,-0.0412 0.0824,-0.0412 0.11095,-0.10461 0.11095,-0.23458 z"
         style="font-weight:normal;font-family:'Noto Sans CJK SC';-inkscape-font-specification:'Noto Sans CJK SC'"
         id="path6553" />
      <path
         d="m 123.22814,152.60629 v -0.52622 h 0.85273 v 0.52622 z m -1.00489,0 c 0.01,-0.11729 0.0127,-0.23458 0.0127,-0.33919 v -0.18703 h 0.75763 v 0.52622 z m 0.77031,-1.25532 v 0.5072 h -0.75763 v -0.5072 z m 1.08731,0.5072 h -0.85273 v -0.5072 h 0.85273 z m 0.23141,-0.73227 h -2.30776 v 1.1412 c 0,0.44063 -0.0317,0.99855 -0.3804,1.39163 0.0507,0.0285 0.14582,0.10778 0.18069,0.15533 0.24092,-0.26945 0.3487,-0.63083 0.39625,-0.9827 h 0.7925 v 0.93515 h 0.23458 v -0.93515 h 0.85273 v 0.64351 c 0,0.0602 -0.0222,0.0793 -0.0856,0.0824 -0.0571,0 -0.27262,0.003 -0.49452,-0.006 0.0317,0.0634 0.0697,0.16484 0.0793,0.22824 0.29798,0.003 0.48184,0 0.58962,-0.038 0.10144,-0.0412 0.14265,-0.11095 0.14265,-0.26311 z"
         style="font-weight:normal;font-family:'Noto Sans CJK SC';-inkscape-font-specification:'Noto Sans CJK SC'"
         id="path6555" />
    </g>
    <g
       aria-label="应用配置策略"
       id="text5168"
       style="font-weight:500;font-size:3.17px;line-height:1.25;font-family:Poppins;-inkscape-font-specification:'Poppins, Medium';text-align:center;letter-spacing:0;text-anchor:middle;stroke-width:0.26">
      <path
         d="m 65.206628,119.67754 v -0.22507 h -1.05878 c -0.04121,-0.11095 -0.1268,-0.29164 -0.20605,-0.42795 l -0.22824,0.0571 c 0.06023,0.11412 0.1268,0.25994 0.16801,0.37089 h -1.25849 v 0.86224 c 0,0.44697 -0.02219,1.07146 -0.26311,1.5216 0.05072,0.0222 0.16167,0.0888 0.19971,0.12997 0.25677,-0.47233 0.29798,-1.17607 0.29798,-1.65157 v -0.63717 z m -0.96685,1.31238 c -0.04755,-0.29481 -0.16484,-0.73544 -0.27262,-1.07463 l -0.21239,0.0571 c 0.10461,0.34236 0.21873,0.78933 0.26311,1.08097 z m -0.60864,0.15216 c -0.06657,-0.29164 -0.21873,-0.73227 -0.35821,-1.07463 l -0.20288,0.0824 c 0.12997,0.33919 0.28213,0.78933 0.34236,1.08097 z m 0.7608,0.42795 c 0.28847,-0.48818 0.52305,-1.06195 0.67521,-1.585 l -0.24726,-0.0888 c -0.12363,0.54207 -0.36455,1.18558 -0.66887,1.67376 h -1.25215 v 0.22507 h 2.34897 v -0.22507 z"
         style="font-weight:normal;font-family:'Noto Sans CJK SC';-inkscape-font-specification:'Noto Sans CJK SC'"
         id="path6164" />
      <path
         d="m 67.118138,120.75217 v -0.52622 h 0.85273 v 0.52622 z m -1.00489,0 c 0.0095,-0.11729 0.01268,-0.23458 0.01268,-0.33919 v -0.18703 h 0.75763 v 0.52622 z m 0.77031,-1.25532 v 0.5072 h -0.75763 v -0.5072 z m 1.08731,0.5072 h -0.85273 v -0.5072 h 0.85273 z m 0.23141,-0.73227 h -2.30776 v 1.1412 c 0,0.44063 -0.0317,0.99855 -0.3804,1.39163 0.05072,0.0285 0.14582,0.10778 0.18069,0.15533 0.24092,-0.26945 0.3487,-0.63083 0.39625,-0.9827 h 0.7925 v 0.93515 h 0.23458 v -0.93515 h 0.85273 v 0.64351 c 0,0.0602 -0.02219,0.0793 -0.08559,0.0824 -0.05706,0 -0.27262,0.003 -0.49452,-0.006 0.0317,0.0634 0.06974,0.16484 0.07925,0.22824 0.29798,0.003 0.48184,0 0.58962,-0.038 0.10144,-0.0412 0.14265,-0.11095 0.14265,-0.26311 z"
         style="font-weight:normal;font-family:'Noto Sans CJK SC';-inkscape-font-specification:'Noto Sans CJK SC'"
         id="path6166" />
      <path
         d="m 69.571718,119.75045 h -0.18703 v -0.36772 h 0.18703 z m 0.33285,0.83688 -0.01268,-0.01 c -0.0032,0.01 -0.01268,0.01 -0.04438,0.01 h -0.11412 c -0.04121,0 -0.04438,-0.003 -0.04438,-0.0444 v -0.59279 h 0.21556 z m -0.87492,0.93515 v -0.32651 h 0.87492 v 0.32651 z m 0.21873,-1.57232 v 0.25043 c 0,0.16801 -0.0317,0.37406 -0.21556,0.53573 0.02853,0.0159 0.08242,0.0634 0.10461,0.0919 0.19654,-0.18069 0.24092,-0.43112 0.24092,-0.62449 v -0.2536 h 0.17752 v 0.59279 c 0,0.15216 0.03804,0.18386 0.16167,0.18386 h 0.15216 c 0.01268,0 0.02536,0 0.03487,-0.003 v 0.29481 h -0.87492 v -1.06829 z m -0.48818,-0.56743 h 0.45648 v 0.36772 h -0.37723 v 2.18096 h 0.1902 v -0.21873 h 0.87492 v 0.17435 h 0.19337 v -2.13658 h -0.35821 v -0.36772 h 0.43112 v -0.21239 h -1.41065 z m 1.98125,2.30459 c -0.14582,0 -0.17435,-0.0222 -0.17435,-0.13948 v -1.1412 h 0.71325 v 0.21239 h 0.23141 v -1.42967 h -1.18875 v 0.22824 h 0.95734 v 0.76397 h -0.94466 v 1.36627 c 0,0.28847 0.08876,0.36138 0.3804,0.36138 h 0.52622 c 0.28847,0 0.35504,-0.14265 0.38674,-0.65619 -0.06657,-0.0159 -0.16484,-0.0602 -0.21873,-0.10144 -0.01585,0.45648 -0.04121,0.53573 -0.18069,0.53573 z"
         style="font-weight:normal;font-family:'Noto Sans CJK SC';-inkscape-font-specification:'Noto Sans CJK SC'"
         id="path6168" />
      <path
         d="m 72.573708,121.4781 h 1.48673 v 0.19337 h -1.48673 z m 1.48673,-0.97002 v 0.17752 h -1.48673 v -0.17752 z m -1.48673,0.64034 h 1.48673 v 0.1902 h -1.48673 z m 1.48673,-0.13948 h -1.48673 v -0.18069 h 1.48673 z m -0.99538,-1.67059 h 0.51988 v 0.2853 h -0.51988 z m -0.21873,0.2853 h -0.50086 v -0.2853 h 0.50086 z m 0.95417,-0.2853 h 0.53256 v 0.2853 h -0.53256 z m 0.49135,2.33312 v -1.32189 h -0.98587 c 0.01585,-0.0602 0.02853,-0.12046 0.04438,-0.1902 h 1.30604 v -0.18386 h -1.27117 c 0.01268,-0.0602 0.02536,-0.12363 0.03487,-0.18069 h 1.14437 v -0.62766 h -2.44407 v 0.62766 h 1.06195 c -0.0063,0.0571 -0.01585,0.12046 -0.02536,0.18069 h -1.19192 v 0.18386 h 1.16022 c -0.01268,0.0697 -0.02536,0.12997 -0.03804,0.1902 h -0.73544 v 1.32189 h -0.41844 v 0.17752 h 2.79277 v -0.17752 z"
         style="font-weight:normal;font-family:'Noto Sans CJK SC';-inkscape-font-specification:'Noto Sans CJK SC'"
         id="path6170" />
      <path
         d="m 75.673968,119.52855 c 0.06657,0.12363 0.13631,0.26945 0.16484,0.36772 l 0.20605,-0.0761 c -0.02536,-0.0761 -0.07608,-0.1902 -0.13631,-0.29164 h 0.54207 v -0.20288 h -0.81152 c 0.04121,-0.0761 0.07608,-0.15216 0.10778,-0.23141 l -0.2219,-0.0571 c -0.10461,0.27262 -0.29481,0.54841 -0.49769,0.72593 0.05389,0.0285 0.14899,0.0951 0.19337,0.12997 0.10461,-0.0983 0.20605,-0.22507 0.29798,-0.36455 z m 0.96051,1.09365 h 0.7925 v 0.37723 c 0,0.0317 -0.0095,0.0444 -0.04755,0.0444 -0.03487,0 -0.1585,0.003 -0.2853,-0.003 0.02853,0.0539 0.06657,0.1268 0.07925,0.18703 0.17752,0 0.30432,0 0.38357,-0.0317 0.08242,-0.0349 0.10461,-0.0824 0.10461,-0.19654 v -0.58328 h -1.02708 v -0.24409 h 1.20777 v -0.20922 h -1.20777 v -0.19971 h -0.06974 c 0.06023,-0.0697 0.12363,-0.15216 0.18069,-0.23458 h 0.24092 c 0.07925,0.12046 0.15533,0.26311 0.1902,0.36138 l 0.20605,-0.0729 c -0.02853,-0.0793 -0.08559,-0.18703 -0.15216,-0.28847 h 0.65302 v -0.20288 h -1.01757 c 0.03804,-0.0761 0.07291,-0.15216 0.10461,-0.23458 l -0.23141,-0.0539 c -0.09827,0.28213 -0.28847,0.54841 -0.50403,0.71959 0.04438,0.019 0.10461,0.0634 0.15216,0.10144 v 0.10461 h -1.25215 v 0.20922 h 1.25215 v 0.24409 h -1.02391 v 0.81469 h 0.24409 v -0.60864 h 0.77982 v 0.27262 c -0.27896,0.34553 -0.80835,0.62766 -1.3314,0.74812 0.05389,0.0476 0.12046,0.13631 0.14899,0.19654 0.43746,-0.12046 0.87175,-0.36138 1.18241,-0.6657 v 0.76714 h 0.24726 v -0.7608 c 0.27262,0.25677 0.69423,0.51671 1.17924,0.64668 0.03487,-0.0602 0.10144,-0.15533 0.14899,-0.20605 -0.57694,-0.1268 -1.0778,-0.42161 -1.32823,-0.70057 z"
         style="font-weight:normal;font-family:'Noto Sans CJK SC';-inkscape-font-specification:'Noto Sans CJK SC'"
         id="path6172" />
      <path
         d="m 78.767888,119.50319 v 0.71325 h -0.25043 v -0.71325 z m 0.40259,0.71325 h -0.24409 v -0.71325 h 0.24409 z m -0.24409,0.96368 v -0.77982 h 0.24409 v 0.77982 z m -0.40893,-0.77982 h 0.25043 v 0.77982 h -0.25043 z m 0.83371,-1.10633 h -1.02074 v 2.32361 h 0.18703 v -0.23141 h 0.83371 z m 1.36627,1.67693 v 0.57694 h -0.8242 v -0.57694 z m -1.03342,0.94149 h 0.20922 v -0.15533 h 0.8242 v 0.15216 h 0.21873 v -1.15071 h -1.25215 z m 0.2853,-2.32678 h 0.76397 c -0.10461,0.19337 -0.25043,0.36455 -0.42161,0.51354 -0.14899,-0.14899 -0.27262,-0.31383 -0.35504,-0.49769 z m 0.93832,-0.22507 -0.04438,0.01 h -0.77348 c 0.04755,-0.0919 0.09193,-0.18703 0.12997,-0.28213 l -0.20288,-0.0602 c -0.13948,0.35504 -0.36772,0.6974 -0.61815,0.9193 0.04121,0.0412 0.11412,0.13314 0.13948,0.17435 0.10144,-0.0919 0.19654,-0.20605 0.29164,-0.32968 0.08242,0.15533 0.1902,0.30115 0.32017,0.43112 -0.23458,0.16801 -0.50086,0.29481 -0.77348,0.3804 0.02853,0.0476 0.07925,0.15533 0.09827,0.21556 0.29164,-0.10461 0.58011,-0.2536 0.83371,-0.4438 0.21873,0.18386 0.48501,0.33285 0.77348,0.43746 0.0095,-0.0634 0.04121,-0.16484 0.07291,-0.2219 -0.2536,-0.0761 -0.48818,-0.19971 -0.68155,-0.35187 0.23775,-0.21873 0.44063,-0.48184 0.56743,-0.7925 z"
         style="font-weight:normal;font-family:'Noto Sans CJK SC';-inkscape-font-specification:'Noto Sans CJK SC'"
         id="path6174" />
    </g>
    <g
       aria-label="静态配置"
       id="text5174"
       style="font-weight:500;font-size:3.17px;line-height:1.25;font-family:Poppins;-inkscape-font-specification:'Poppins, Medium';letter-spacing:0;stroke-width:0.26">
      <path
         d="m 13.50702,65.687316 h -0.58011 v -0.20288 h 0.48184 v -0.17118 h -0.48184 v -0.1902 h 0.54207 v -0.17752 h -0.54207 v -0.28213 h -0.2219 v 0.28213 h -0.53256 v 0.17752 h 0.53256 v 0.1902 h -0.4755 v 0.17118 h 0.4755 v 0.20288 h -0.59279 v 0.18069 h 1.3948 z m -1.00806,1.16022 v -0.22824 h 0.64668 v 0.22824 z m 0.64668,-0.61815 v 0.2219 h -0.64668 v -0.2219 z m 0.21556,-0.18069 h -1.07146 v 1.51209 h 0.20922 v -0.54524 h 0.64668 v 0.30432 c 0,0.03804 -0.01268,0.04755 -0.04755,0.05072 -0.03487,0 -0.15216,0 -0.28847,-0.0032 0.02853,0.05389 0.06023,0.13631 0.07291,0.19337 0.1902,0 0.30115,-0.0032 0.37723,-0.03804 0.07608,-0.03487 0.10144,-0.09193 0.10144,-0.19971 z m 1.268,0.55158 h -0.36455 v -0.35504 h 0.36455 z m -0.36455,-0.89394 h 0.36455 v 0.33919 h -0.36455 z m 0.1268,-0.56109 c -0.0634,0.12046 -0.14899,0.25677 -0.23141,0.36138 h -0.44697 c 0.08242,-0.10461 0.16484,-0.23141 0.23775,-0.36138 z m 0.64034,0.90028 h -0.1902 v -0.5389 h -0.44697 c 0.10778,-0.14265 0.21556,-0.31066 0.29164,-0.46282 l -0.14265,-0.0951 -0.03804,0.0095 h -0.46282 c 0.03804,-0.07925 0.07291,-0.16167 0.10144,-0.24092 l -0.20922,-0.05389 c -0.11412,0.32334 -0.30115,0.63717 -0.51671,0.84322 0.05072,0.03487 0.13631,0.10144 0.17435,0.13948 l 0.01585,-0.01902 v 0.07925 h 0.43429 v 0.33919 H 13.4563 v 0.19971 h 0.58645 v 0.35504 h -0.44697 v 0.19654 h 0.44697 v 0.48818 c 0,0.04438 -0.01585,0.05706 -0.05706,0.06023 -0.04438,0 -0.18703,0 -0.3487,-0.0063 0.0317,0.06657 0.06657,0.1585 0.07608,0.21873 0.21556,0 0.35187,-0.0032 0.44063,-0.04121 0.08242,-0.03804 0.11095,-0.10144 0.11095,-0.22824 v -0.49135 h 0.36455 v 0.12363 h 0.21239 v -0.67521 h 0.1902 z"
         style="font-weight:normal;font-family:'Noto Sans CJK SC';-inkscape-font-specification:'Noto Sans CJK SC';text-align:end;text-anchor:end"
         id="path6108" />
      <path
         d="m 15.53582,67.433986 c 0.13948,-0.21873 0.24092,-0.55475 0.31066,-0.81469 l -0.20922,-0.06974 c -0.06023,0.2536 -0.17118,0.5706 -0.31383,0.77348 z m 0.94149,-0.1585 c -0.20605,0 -0.24409,-0.01902 -0.24409,-0.11095 v -0.61498 h -0.23141 v 0.61815 c 0,0.2536 0.09827,0.32017 0.46282,0.32017 h 0.73544 c 0.30432,0 0.37723,-0.09827 0.40893,-0.49452 -0.06657,-0.01585 -0.16167,-0.05072 -0.21239,-0.08876 -0.01902,0.32334 -0.04438,0.37089 -0.21239,0.37089 z m -0.12363,-1.25849 c 0.18386,0.11095 0.40893,0.27579 0.5072,0.39308 l 0.21239,-0.13631 c -0.11729,-0.12046 -0.33919,-0.27579 -0.52305,-0.3804 z m 0.08876,0.45648 c 0.18386,0.16484 0.40259,0.39942 0.50403,0.55158 l 0.1902,-0.1268 c -0.10778,-0.14899 -0.33285,-0.37406 -0.51037,-0.53256 z m 1.07146,0.0951 c 0.16167,0.26628 0.32017,0.62766 0.37406,0.84639 l 0.22507,-0.07925 c -0.06023,-0.22507 -0.22824,-0.57377 -0.38991,-0.83371 z m 0.62449,-1.23947 v -0.2219 h -1.34091 c 0.02853,-0.14582 0.05072,-0.29798 0.06657,-0.45331 h -0.24092 c -0.01585,0.15533 -0.03487,0.30749 -0.06974,0.45331 h -1.22362 v 0.2219 h 1.16022 c -0.14899,0.40893 -0.45965,0.75129 -1.19192,0.93515 0.04438,0.04755 0.10461,0.13948 0.12997,0.19654 0.81786,-0.21873 1.15388,-0.634 1.30921,-1.13169 0.23458,0.56426 0.64985,0.94783 1.27434,1.11901 0.03487,-0.06974 0.10461,-0.16484 0.1585,-0.21873 -0.56743,-0.1268 -0.97002,-0.44697 -1.18875,-0.90028 z"
         style="font-weight:normal;font-family:'Noto Sans CJK SC';-inkscape-font-specification:'Noto Sans CJK SC';text-align:end;text-anchor:end"
         id="path6110" />
      <path
         d="m 19.31446,65.367146 h -0.18703 v -0.36772 h 0.18703 z m 0.33285,0.83688 -0.01268,-0.0095 c -0.0032,0.0095 -0.01268,0.0095 -0.04438,0.0095 h -0.11412 c -0.04121,0 -0.04438,-0.0032 -0.04438,-0.04438 v -0.59279 h 0.21556 z m -0.87492,0.93515 v -0.32651 h 0.87492 v 0.32651 z m 0.21873,-1.57232 v 0.25043 c 0,0.16801 -0.0317,0.37406 -0.21556,0.53573 0.02853,0.01585 0.08242,0.0634 0.10461,0.09193 0.19654,-0.18069 0.24092,-0.43112 0.24092,-0.62449 v -0.2536 h 0.17752 v 0.59279 c 0,0.15216 0.03804,0.18386 0.16167,0.18386 h 0.15216 c 0.01268,0 0.02536,0 0.03487,-0.0032 v 0.29481 h -0.87492 v -1.06829 z m -0.48818,-0.56743 h 0.45648 v 0.36772 h -0.37723 v 2.18096 h 0.1902 v -0.21873 h 0.87492 v 0.17435 h 0.19337 v -2.13658 h -0.35821 v -0.36772 h 0.43112 v -0.21239 h -1.41065 z m 1.98125,2.30459 c -0.14582,0 -0.17435,-0.02219 -0.17435,-0.13948 v -1.1412 h 0.71325 v 0.21239 h 0.23141 v -1.42967 h -1.18875 v 0.22824 h 0.95734 v 0.76397 h -0.94466 v 1.36627 c 0,0.28847 0.08876,0.36138 0.3804,0.36138 h 0.52622 c 0.28847,0 0.35504,-0.14265 0.38674,-0.65619 -0.06657,-0.01585 -0.16484,-0.06023 -0.21873,-0.10144 -0.01585,0.45648 -0.04121,0.53573 -0.18069,0.53573 z"
         style="font-weight:normal;font-family:'Noto Sans CJK SC';-inkscape-font-specification:'Noto Sans CJK SC';text-align:end;text-anchor:end"
         id="path6112" />
      <path
         d="m 22.31645,67.094796 h 1.48673 v 0.19337 h -1.48673 z m 1.48673,-0.97002 v 0.17752 h -1.48673 v -0.17752 z m -1.48673,0.64034 h 1.48673 v 0.1902 h -1.48673 z m 1.48673,-0.13948 h -1.48673 v -0.18069 h 1.48673 z m -0.99538,-1.67059 h 0.51988 v 0.2853 H 22.8078 Z m -0.21873,0.2853 h -0.50086 v -0.2853 h 0.50086 z m 0.95417,-0.2853 h 0.53256 v 0.2853 h -0.53256 z m 0.49135,2.33312 v -1.32189 h -0.98587 c 0.01585,-0.06023 0.02853,-0.12046 0.04438,-0.1902 h 1.30604 v -0.18386 h -1.27117 c 0.01268,-0.06023 0.02536,-0.12363 0.03487,-0.18069 h 1.14437 v -0.62766 h -2.44407 v 0.62766 h 1.06195 c -0.0063,0.05706 -0.01585,0.12046 -0.02536,0.18069 h -1.19192 v 0.18386 h 1.16022 c -0.01268,0.06974 -0.02536,0.12997 -0.03804,0.1902 h -0.73544 v 1.32189 h -0.41844 v 0.17752 h 2.79277 v -0.17752 z"
         style="font-weight:normal;font-family:'Noto Sans CJK SC';-inkscape-font-specification:'Noto Sans CJK SC';text-align:end;text-anchor:end"
         id="path6114" />
    </g>
    <g
       aria-label="策略"
       id="text5178"
       style="font-weight:500;font-size:3.17px;line-height:1.25;font-family:Poppins;-inkscape-font-specification:'Poppins, Medium';letter-spacing:0;stroke-width:0.26">
      <path
         d="m 18.807669,104.63855 c 0.06657,0.12363 0.13631,0.26945 0.16484,0.36772 l 0.20605,-0.0761 c -0.02536,-0.0761 -0.07608,-0.1902 -0.13631,-0.29164 h 0.54207 v -0.20288 h -0.81152 c 0.04121,-0.0761 0.07608,-0.15216 0.10778,-0.23141 l -0.2219,-0.0571 c -0.10461,0.27262 -0.29481,0.54841 -0.49769,0.72593 0.05389,0.0285 0.14899,0.0951 0.19337,0.12997 0.10461,-0.0983 0.20605,-0.22507 0.29798,-0.36455 z m 0.96051,1.09365 h 0.7925 v 0.37723 c 0,0.0317 -0.0095,0.0444 -0.04755,0.0444 -0.03487,0 -0.1585,0.003 -0.2853,-0.003 0.02853,0.0539 0.06657,0.1268 0.07925,0.18703 0.17752,0 0.30432,0 0.38357,-0.0317 0.08242,-0.0349 0.10461,-0.0824 0.10461,-0.19654 v -0.58328 h -1.02708 v -0.24409 h 1.20777 v -0.20922 h -1.20777 v -0.19971 h -0.06974 c 0.06023,-0.0697 0.12363,-0.15216 0.18069,-0.23458 h 0.24092 c 0.07925,0.12046 0.15533,0.26311 0.1902,0.36138 l 0.20605,-0.0729 c -0.02853,-0.0793 -0.08559,-0.18703 -0.15216,-0.28847 h 0.65302 v -0.20288 h -1.01757 c 0.03804,-0.0761 0.07291,-0.15216 0.10461,-0.23458 l -0.23141,-0.0539 c -0.09827,0.28213 -0.28847,0.54841 -0.50403,0.71959 0.04438,0.019 0.10461,0.0634 0.15216,0.10144 v 0.10461 h -1.25215 v 0.20922 h 1.25215 v 0.24409 h -1.02391 v 0.81469 h 0.24409 v -0.60864 h 0.77982 v 0.27262 c -0.27896,0.34553 -0.80835,0.62766 -1.3314,0.74812 0.05389,0.0476 0.12046,0.13631 0.14899,0.19654 0.43746,-0.12046 0.87175,-0.36138 1.18241,-0.6657 v 0.76714 h 0.24726 v -0.7608 c 0.27262,0.25677 0.69423,0.51671 1.17924,0.64668 0.03487,-0.0602 0.10144,-0.15533 0.14899,-0.20605 -0.57694,-0.1268 -1.0778,-0.42161 -1.32823,-0.70057 z"
         style="font-weight:normal;font-family:'Noto Sans CJK SC';-inkscape-font-specification:'Noto Sans CJK SC';text-align:end;text-anchor:end"
         id="path6117" />
      <path
         d="m 21.901589,104.61319 v 0.71325 h -0.25043 v -0.71325 z m 0.40259,0.71325 h -0.24409 v -0.71325 h 0.24409 z m -0.24409,0.96368 v -0.77982 h 0.24409 v 0.77982 z m -0.40893,-0.77982 h 0.25043 v 0.77982 h -0.25043 z m 0.83371,-1.10633 h -1.02074 v 2.32361 h 0.18703 v -0.23141 h 0.83371 z m 1.36627,1.67693 v 0.57694 h -0.8242 v -0.57694 z m -1.03342,0.94149 h 0.20922 v -0.15533 h 0.8242 v 0.15216 h 0.21873 v -1.15071 h -1.25215 z m 0.2853,-2.32678 h 0.76397 c -0.10461,0.19337 -0.25043,0.36455 -0.42161,0.51354 -0.14899,-0.14899 -0.27262,-0.31383 -0.35504,-0.49769 z m 0.93832,-0.22507 -0.04438,0.01 h -0.77348 c 0.04755,-0.0919 0.09193,-0.18703 0.12997,-0.28213 l -0.20288,-0.0602 c -0.13948,0.35504 -0.36772,0.6974 -0.61815,0.9193 0.04121,0.0412 0.11412,0.13314 0.13948,0.17435 0.10144,-0.0919 0.19654,-0.20605 0.29164,-0.32968 0.08242,0.15533 0.1902,0.30115 0.32017,0.43112 -0.23458,0.16801 -0.50086,0.29481 -0.77348,0.3804 0.02853,0.0476 0.07925,0.15533 0.09827,0.21556 0.29164,-0.10461 0.58011,-0.2536 0.83371,-0.4438 0.21873,0.18386 0.48501,0.33285 0.77348,0.43746 0.0095,-0.0634 0.04121,-0.16484 0.07291,-0.2219 -0.2536,-0.0761 -0.48818,-0.19971 -0.68155,-0.35187 0.23775,-0.21873 0.44063,-0.48184 0.56743,-0.7925 z"
         style="font-weight:normal;font-family:'Noto Sans CJK SC';-inkscape-font-specification:'Noto Sans CJK SC';text-align:end;text-anchor:end"
         id="path6119" />
    </g>
    <path
       fill="none"
       stroke="#0c322c"
       stroke-width=".56"
       marker-end="url(#a)"
       d="m26.46 66.14 18.52.01"
       id="path5180" />
    <path
       fill="none"
       stroke="#0c322c"
       stroke-width=".56"
       marker-end="url(#c)"
       d="m26.11 105.8 18.52.01"
       id="path5182" />
  </g>
</svg>
