<?xml version="1.0" encoding="UTF-8" standalone="no"?>
<svg
   width="900"
   height="200"
   version="1.2"
   id="svg115"
   sodipodi:docname="net_basic_tcppacket.svg"
   inkscape:version="1.2.2 (732a01da63, 2022-12-09)"
   xmlns:inkscape="http://www.inkscape.org/namespaces/inkscape"
   xmlns:sodipodi="http://sodipodi.sourceforge.net/DTD/sodipodi-0.dtd"
   xmlns="http://www.w3.org/2000/svg"
   xmlns:svg="http://www.w3.org/2000/svg">
  <defs
     id="defs119" />
  <sodipodi:namedview
     id="namedview117"
     pagecolor="#ffffff"
     bordercolor="#000000"
     borderopacity="0.25"
     inkscape:showpageshadow="2"
     inkscape:pageopacity="0.0"
     inkscape:pagecheckerboard="0"
     inkscape:deskcolor="#d1d1d1"
     showgrid="false"
     inkscape:zoom="1.0763737"
     inkscape:cx="449.65796"
     inkscape:cy="-62.24604"
     inkscape:window-width="1920"
     inkscape:window-height="1009"
     inkscape:window-x="-8"
     inkscape:window-y="-8"
     inkscape:window-maximized="1"
     inkscape:current-layer="svg115" />
  <rect
     width="860"
     height="160"
     x="20"
     y="20"
     fill="#30ba78"
     rx="0"
     ry="0"
     id="rect65" />
  <rect
     width="130"
     height="160"
     x="120"
     y="20"
     fill="#fe7c3f"
     color="#000"
     overflow="visible"
     style="marker:none"
     id="rect67" />
  <rect
     width="130"
     height="160"
     x="250"
     y="20"
     fill="#90ebcd"
     color="#000"
     overflow="visible"
     ry="0"
     style="marker:none"
     id="rect69" />
  <rect
     width="400"
     height="160"
     x="380"
     y="20"
     fill="#dedfe0"
     color="#000"
     overflow="visible"
     style="marker:none"
     id="rect71" />
  <g
     style="line-height:125%;-inkscape-font-specification:'Open Sans';text-align:center"
     text-anchor="middle"
     transform="translate(601 -464.81)"
     word-spacing="0"
     id="g81">
    <g
       aria-label="Ethernet-
Header"
       id="text79"
       style="font-weight:500;font-size:16px;line-height:1.25;font-family:Poppins;-inkscape-font-specification:'Poppins, Medium';text-align:start;letter-spacing:0;baseline-shift:baseline;opacity:1;vector-effect:none;stop-color:#000000;stop-opacity:1">
      <path
         d="m -566.24202,540.87203 v 3.728 h 4.064 v 1.2 h -4.064 v 3.84 h 4.544 v 1.2 h -6 v -11.168 h 6 v 1.2 z"
         style="baseline-shift:baseline;vector-effect:none;stop-color:#000000;stop-opacity:1"
         id="path897" />
      <path
         d="m -557.71402,543.27203 v 5.168 q 0,0.64 0.272,0.912 0.272,0.256 0.944,0.256 h 1.072 v 1.232 h -1.312 q -1.216,0 -1.824,-0.56 -0.608,-0.56 -0.608,-1.84 v -5.168 h -1.136 v -1.2 h 1.136 v -2.208 h 1.456 v 2.208 h 2.288 v 1.2 z"
         style="baseline-shift:baseline;vector-effect:none;stop-color:#000000;stop-opacity:1"
         id="path899" />
      <path
         d="m -549.31401,541.91203 q 0.992,0 1.792,0.432 0.8,0.416 1.248,1.264 0.464,0.848 0.464,2.064 v 5.168 h -1.44 v -4.96 q 0,-1.312 -0.656,-2 -0.656,-0.704 -1.792,-0.704 -1.152,0 -1.84,0.72 -0.672,0.72 -0.672,2.096 v 4.848 h -1.456 v -11.84 h 1.456 v 4.32 q 0.432,-0.672 1.184,-1.04 0.768,-0.368 1.712,-0.368 z"
         style="baseline-shift:baseline;vector-effect:none;stop-color:#000000;stop-opacity:1"
         id="path901" />
      <path
         d="m -535.42602,546.12003 q 0,0.416 -0.048,0.88 h -7.008 q 0.08,1.296 0.88,2.032 0.816,0.72 1.968,0.72 0.944,0 1.568,-0.432 0.64,-0.448 0.896,-1.184 h 1.568 q -0.352,1.264 -1.408,2.064 -1.056,0.784 -2.624,0.784 -1.248,0 -2.24,-0.56 -0.976,-0.56 -1.536,-1.584 -0.56,-1.04 -0.56,-2.4 0,-1.36 0.544,-2.384 0.544,-1.024 1.52,-1.568 0.992,-0.56 2.272,-0.56 1.248,0 2.208,0.544 0.96,0.544 1.472,1.504 0.528,0.944 0.528,2.144 z m -1.504,-0.304 q 0,-0.832 -0.368,-1.424 -0.368,-0.608 -1.008,-0.912 -0.624,-0.32 -1.392,-0.32 -1.104,0 -1.888,0.704 -0.768,0.704 -0.88,1.952 z"
         style="baseline-shift:baseline;vector-effect:none;stop-color:#000000;stop-opacity:1"
         id="path903" />
      <path
         d="m -532.05001,543.49603 q 0.384,-0.752 1.088,-1.168 0.72,-0.416 1.744,-0.416 v 1.504 h -0.384 q -2.448,0 -2.448,2.656 v 4.768 h -1.456 v -8.768 h 1.456 z"
         style="baseline-shift:baseline;vector-effect:none;stop-color:#000000;stop-opacity:1"
         id="path905" />
      <path
         d="m -523.26602,541.91203 q 1.6,0 2.592,0.976 0.992,0.96 0.992,2.784 v 5.168 h -1.44 v -4.96 q 0,-1.312 -0.656,-2 -0.656,-0.704 -1.792,-0.704 -1.152,0 -1.84,0.72 -0.672,0.72 -0.672,2.096 v 4.848 h -1.456 v -8.768 h 1.456 v 1.248 q 0.432,-0.672 1.168,-1.04 0.752,-0.368 1.648,-0.368 z"
         style="baseline-shift:baseline;vector-effect:none;stop-color:#000000;stop-opacity:1"
         id="path907" />
      <path
         d="m -509.29803,546.12003 q 0,0.416 -0.048,0.88 h -7.008 q 0.08,1.296 0.88,2.032 0.816,0.72 1.968,0.72 0.944,0 1.568,-0.432 0.64,-0.448 0.896,-1.184 h 1.568 q -0.352,1.264 -1.408,2.064 -1.056,0.784 -2.624,0.784 -1.248,0 -2.24,-0.56 -0.976,-0.56 -1.536,-1.584 -0.56,-1.04 -0.56,-2.4 0,-1.36 0.544,-2.384 0.544,-1.024 1.52,-1.568 0.992,-0.56 2.272,-0.56 1.248,0 2.208,0.544 0.96,0.544 1.472,1.504 0.528,0.944 0.528,2.144 z m -1.504,-0.304 q 0,-0.832 -0.368,-1.424 -0.368,-0.608 -1.008,-0.912 -0.624,-0.32 -1.392,-0.32 -1.104,0 -1.888,0.704 -0.768,0.704 -0.88,1.952 z"
         style="baseline-shift:baseline;vector-effect:none;stop-color:#000000;stop-opacity:1"
         id="path909" />
      <path
         d="m -505.60202,543.27203 v 5.168 q 0,0.64 0.272,0.912 0.272,0.256 0.944,0.256 h 1.072 v 1.232 h -1.312 q -1.216,0 -1.824,-0.56 -0.608,-0.56 -0.608,-1.84 v -5.168 h -1.136 v -1.2 h 1.136 v -2.208 h 1.456 v 2.208 h 2.288 v 1.2 z"
         style="baseline-shift:baseline;vector-effect:none;stop-color:#000000;stop-opacity:1"
         id="path911" />
      <path
         d="m -495.47401,544.36003 v 1.232 h -6.384 v -1.232 z"
         style="baseline-shift:baseline;vector-effect:none;stop-color:#000000;stop-opacity:1"
         id="path913" />
      <path
         d="m -550.88202,559.68803 v 11.152 h -1.456 v -5.056 h -5.68 v 5.056 h -1.456 v -11.152 h 1.456 v 4.896 h 5.68 v -4.896 z"
         style="baseline-shift:baseline;vector-effect:none;stop-color:#000000;stop-opacity:1"
         id="path915" />
      <path
         d="m -540.40203,566.12003 q 0,0.416 -0.048,0.88 h -7.008 q 0.08,1.296 0.88,2.032 0.816,0.72 1.968,0.72 0.944,0 1.568,-0.432 0.64,-0.448 0.896,-1.184 h 1.568 q -0.352,1.264 -1.408,2.064 -1.056,0.784 -2.624,0.784 -1.248,0 -2.24,-0.56 -0.976,-0.56 -1.536,-1.584 -0.56,-1.04 -0.56,-2.4 0,-1.36 0.544,-2.384 0.544,-1.024 1.52,-1.568 0.992,-0.56 2.272,-0.56 1.248,0 2.208,0.544 0.96,0.544 1.472,1.504 0.528,0.944 0.528,2.144 z m -1.504,-0.304 q 0,-0.832 -0.368,-1.424 -0.368,-0.608 -1.008,-0.912 -0.624,-0.32 -1.392,-0.32 -1.104,0 -1.888,0.704 -0.768,0.704 -0.88,1.952 z"
         style="baseline-shift:baseline;vector-effect:none;stop-color:#000000;stop-opacity:1"
         id="path917" />
      <path
         d="m -539.02602,566.42403 q 0,-1.344 0.544,-2.352 0.544,-1.024 1.488,-1.584 0.96,-0.56 2.128,-0.56 1.152,0 2,0.496 0.848,0.496 1.264,1.248 v -1.6 h 1.472 v 8.768 h -1.472 v -1.632 q -0.432,0.768 -1.296,1.28 -0.848,0.496 -1.984,0.496 -1.168,0 -2.112,-0.576 -0.944,-0.576 -1.488,-1.616 -0.544,-1.04 -0.544,-2.368 z m 7.424,0.016 q 0,-0.992 -0.4,-1.728 -0.4,-0.736 -1.088,-1.12 -0.672,-0.4 -1.488,-0.4 -0.816,0 -1.488,0.384 -0.672,0.384 -1.072,1.12 -0.4,0.736 -0.4,1.728 0,1.008 0.4,1.76 0.4,0.736 1.072,1.136 0.672,0.384 1.488,0.384 0.816,0 1.488,-0.384 0.688,-0.4 1.088,-1.136 0.4,-0.752 0.4,-1.744 z"
         style="baseline-shift:baseline;vector-effect:none;stop-color:#000000;stop-opacity:1"
         id="path919" />
      <path
         d="m -528.21001,566.42403 q 0,-1.344 0.544,-2.352 0.544,-1.024 1.488,-1.584 0.96,-0.56 2.144,-0.56 1.024,0 1.904,0.48 0.88,0.464 1.344,1.232 v -4.64 h 1.472 v 11.84 h -1.472 v -1.648 q -0.432,0.784 -1.28,1.296 -0.848,0.496 -1.984,0.496 -1.168,0 -2.128,-0.576 -0.944,-0.576 -1.488,-1.616 -0.544,-1.04 -0.544,-2.368 z m 7.424,0.016 q 0,-0.992 -0.4,-1.728 -0.4,-0.736 -1.088,-1.12 -0.672,-0.4 -1.488,-0.4 -0.816,0 -1.488,0.384 -0.672,0.384 -1.072,1.12 -0.4,0.736 -0.4,1.728 0,1.008 0.4,1.76 0.4,0.736 1.072,1.136 0.672,0.384 1.488,0.384 0.816,0 1.488,-0.384 0.688,-0.4 1.088,-1.136 0.4,-0.752 0.4,-1.744 z"
         style="baseline-shift:baseline;vector-effect:none;stop-color:#000000;stop-opacity:1"
         id="path921" />
      <path
         d="m -508.85,566.12003 q 0,0.416 -0.048,0.88 h -7.008 q 0.08,1.296 0.88,2.032 0.816,0.72 1.968,0.72 0.944,0 1.568,-0.432 0.64,-0.448 0.896,-1.184 h 1.568 q -0.352,1.264 -1.408,2.064 -1.056,0.784 -2.624,0.784 -1.248,0 -2.24,-0.56 -0.976,-0.56 -1.536,-1.584 -0.56,-1.04 -0.56,-2.4 0,-1.36 0.544,-2.384 0.544,-1.024 1.52,-1.568 0.992,-0.56 2.272,-0.56 1.248,0 2.208,0.544 0.96,0.544 1.472,1.504 0.528,0.944 0.528,2.144 z m -1.504,-0.304 q 0,-0.832 -0.368,-1.424 -0.368,-0.608 -1.008,-0.912 -0.624,-0.32 -1.392,-0.32 -1.104,0 -1.888,0.704 -0.768,0.704 -0.88,1.952 z"
         style="baseline-shift:baseline;vector-effect:none;stop-color:#000000;stop-opacity:1"
         id="path923" />
      <path
         d="m -505.47399,563.49603 q 0.384,-0.752 1.088,-1.168 0.72,-0.416 1.744,-0.416 v 1.504 h -0.384 q -2.448,0 -2.448,2.656 v 4.768 h -1.456 v -8.768 h 1.456 z"
         style="baseline-shift:baseline;vector-effect:none;stop-color:#000000;stop-opacity:1"
         id="path925" />
    </g>
    <g
       aria-label="
(14 Byte)"
       id="text79-5"
       style="font-weight:500;font-size:16px;line-height:1.25;font-family:Poppins;-inkscape-font-specification:'Poppins, Medium';text-align:start;letter-spacing:0;baseline-shift:baseline;vector-effect:none;stop-color:#000000">
      <path
         d="m -560.74603,593.81603 q -1.536,-1.504 -2.4,-3.824 -0.848,-2.32 -0.848,-5.008 0,-2.752 0.896,-5.136 0.912,-2.4 2.592,-3.952 h 1.52 v 0.144 q -1.792,1.68 -2.704,4.048 -0.896,2.352 -0.896,4.896 0,2.48 0.848,4.736 0.864,2.256 2.512,3.952 v 0.144 z"
         id="path928" />
      <path
         d="m -557.85002,580.60003 v -1.328 h 3.008 v 11.568 h -1.472 v -10.24 z"
         style="baseline-shift:baseline;vector-effect:none;stop-color:#000000;stop-opacity:1"
         id="path930" />
      <path
         d="m -552.69803,588.26403 v -1.104 l 5.616,-7.776 h 1.744 v 7.616 h 1.6 v 1.264 h -1.6 v 2.576 h -1.44 v -2.576 z m 5.984,-7.36 -4.304,6.096 h 4.304 z"
         style="baseline-shift:baseline;vector-effect:none;stop-color:#000000;stop-opacity:1"
         id="path932" />
      <path
         d="m -532.18603,585.09603 q 0.608,0.096 1.104,0.496 0.512,0.4 0.8,0.992 0.304,0.592 0.304,1.264 0,0.848 -0.432,1.536 -0.432,0.672 -1.264,1.072 -0.816,0.384 -1.936,0.384 h -4.16 v -11.152 h 4 q 1.136,0 1.936,0.384 0.8,0.368 1.2,1.008 0.4,0.64 0.4,1.44 0,0.992 -0.544,1.648 -0.528,0.64 -1.408,0.928 z m -4.128,-0.592 h 2.448 q 1.024,0 1.584,-0.48 0.56,-0.48 0.56,-1.328 0,-0.848 -0.56,-1.328 -0.56,-0.48 -1.616,-0.48 h -2.416 z m 2.576,5.136 q 1.088,0 1.696,-0.512 0.608,-0.512 0.608,-1.424 0,-0.928 -0.64,-1.456 -0.64,-0.544 -1.712,-0.544 h -2.528 v 3.936 z"
         style="baseline-shift:baseline;vector-effect:none;stop-color:#000000;stop-opacity:1"
         id="path934" />
      <path
         d="m -520.41002,582.07203 -5.28,12.896 h -1.504 l 1.728,-4.224 -3.536,-8.672 h 1.616 l 2.752,7.104 2.72,-7.104 z"
         style="baseline-shift:baseline;vector-effect:none;stop-color:#000000;stop-opacity:1"
         id="path936" />
      <path
         d="m -517.17802,583.27203 v 5.168 q 0,0.64 0.272,0.912 0.272,0.256 0.944,0.256 h 1.072 v 1.232 h -1.312 q -1.216,0 -1.824,-0.56 -0.608,-0.56 -0.608,-1.84 v -5.168 h -1.136 v -1.2 h 1.136 v -2.208 h 1.456 v 2.208 h 2.288 v 1.2 z"
         style="baseline-shift:baseline;vector-effect:none;stop-color:#000000;stop-opacity:1"
         id="path938" />
      <path
         d="m -505.13001,586.12003 q 0,0.416 -0.048,0.88 h -7.008 q 0.08,1.296 0.88,2.032 0.816,0.72 1.968,0.72 0.944,0 1.568,-0.432 0.64,-0.448 0.896,-1.184 h 1.568 q -0.352,1.264 -1.408,2.064 -1.056,0.784 -2.624,0.784 -1.248,0 -2.24,-0.56 -0.976,-0.56 -1.536,-1.584 -0.56,-1.04 -0.56,-2.4 0,-1.36 0.544,-2.384 0.544,-1.024 1.52,-1.568 0.992,-0.56 2.272,-0.56 1.248,0 2.208,0.544 0.96,0.544 1.472,1.504 0.528,0.944 0.528,2.144 z m -1.504,-0.304 q 0,-0.832 -0.368,-1.424 -0.368,-0.608 -1.008,-0.912 -0.624,-0.32 -1.392,-0.32 -1.104,0 -1.888,0.704 -0.768,0.704 -0.88,1.952 z"
         style="baseline-shift:baseline;vector-effect:none;stop-color:#000000;stop-opacity:1"
         id="path940" />
      <path
         d="m -503.674,593.81603 v -0.144 q 1.648,-1.696 2.496,-3.952 0.864,-2.256 0.864,-4.736 0,-2.544 -0.912,-4.896 -0.896,-2.368 -2.688,-4.048 v -0.144 h 1.52 q 1.68,1.552 2.576,3.952 0.912,2.384 0.912,5.136 0,2.688 -0.864,5.008 -0.848,2.32 -2.384,3.824 z"
         style="baseline-shift:baseline;vector-effect:none;stop-color:#000000;stop-opacity:1"
         id="path942" />
    </g>
  </g>
  <g
     style="line-height:125%;-inkscape-font-specification:'Open Sans';text-align:center"
     text-anchor="middle"
     transform="translate(716.55 -453.76)"
     word-spacing="0"
     id="g89">
    <g
       aria-label="IP-Header
(20 Byte)"
       id="text87"
       style="font-weight:500;font-size:16px;line-height:1.25;font-family:Poppins;-inkscape-font-specification:'Poppins, Medium';letter-spacing:0">
      <path
         d="m -569.02604,539.68803 v 11.152 h -1.456 v -11.152 z"
         id="path945" />
      <path
         d="m -559.09003,542.95203 q 0,1.392 -0.96,2.32 -0.944,0.912 -2.896,0.912 h -2.144 v 4.656 h -1.456 v -11.152 h 3.6 q 1.888,0 2.864,0.912 0.992,0.912 0.992,2.352 z m -3.856,2.032 q 1.216,0 1.792,-0.528 0.576,-0.528 0.576,-1.504 0,-2.064 -2.368,-2.064 h -2.144 v 4.096 z"
         id="path947" />
      <path
         d="m -551.20202,544.36003 v 1.232 h -6.384 v -1.232 z"
         id="path949" />
      <path
         d="m -539.87401,539.68803 v 11.152 h -1.456 v -5.056 h -5.68 v 5.056 h -1.456 v -11.152 h 1.456 v 4.896 h 5.68 v -4.896 z"
         id="path951" />
      <path
         d="m -529.39402,546.12003 q 0,0.416 -0.048,0.88 h -7.008 q 0.08,1.296 0.88,2.032 0.816,0.72 1.968,0.72 0.944,0 1.568,-0.432 0.64,-0.448 0.896,-1.184 h 1.568 q -0.352,1.264 -1.408,2.064 -1.056,0.784 -2.624,0.784 -1.248,0 -2.24,-0.56 -0.976,-0.56 -1.536,-1.584 -0.56,-1.04 -0.56,-2.4 0,-1.36 0.544,-2.384 0.544,-1.024 1.52,-1.568 0.992,-0.56 2.272,-0.56 1.248,0 2.208,0.544 0.96,0.544 1.472,1.504 0.528,0.944 0.528,2.144 z m -1.504,-0.304 q 0,-0.832 -0.368,-1.424 -0.368,-0.608 -1.008,-0.912 -0.624,-0.32 -1.392,-0.32 -1.104,0 -1.888,0.704 -0.768,0.704 -0.88,1.952 z"
         id="path953" />
      <path
         d="m -528.01801,546.42403 q 0,-1.344 0.544,-2.352 0.544,-1.024 1.488,-1.584 0.96,-0.56 2.128,-0.56 1.152,0 2,0.496 0.848,0.496 1.264,1.248 v -1.6 h 1.472 v 8.768 h -1.472 v -1.632 q -0.432,0.768 -1.296,1.28 -0.848,0.496 -1.984,0.496 -1.168,0 -2.112,-0.576 -0.944,-0.576 -1.488,-1.616 -0.544,-1.04 -0.544,-2.368 z m 7.424,0.016 q 0,-0.992 -0.4,-1.728 -0.4,-0.736 -1.088,-1.12 -0.672,-0.4 -1.488,-0.4 -0.816,0 -1.488,0.384 -0.672,0.384 -1.072,1.12 -0.4,0.736 -0.4,1.728 0,1.008 0.4,1.76 0.4,0.736 1.072,1.136 0.672,0.384 1.488,0.384 0.816,0 1.488,-0.384 0.688,-0.4 1.088,-1.136 0.4,-0.752 0.4,-1.744 z"
         id="path955" />
      <path
         d="m -517.202,546.42403 q 0,-1.344 0.544,-2.352 0.544,-1.024 1.488,-1.584 0.96,-0.56 2.144,-0.56 1.024,0 1.904,0.48 0.88,0.464 1.344,1.232 v -4.64 h 1.472 v 11.84 h -1.472 v -1.648 q -0.432,0.784 -1.28,1.296 -0.848,0.496 -1.984,0.496 -1.168,0 -2.128,-0.576 -0.944,-0.576 -1.488,-1.616 -0.544,-1.04 -0.544,-2.368 z m 7.424,0.016 q 0,-0.992 -0.4,-1.728 -0.4,-0.736 -1.088,-1.12 -0.672,-0.4 -1.488,-0.4 -0.816,0 -1.488,0.384 -0.672,0.384 -1.072,1.12 -0.4,0.736 -0.4,1.728 0,1.008 0.4,1.76 0.4,0.736 1.072,1.136 0.672,0.384 1.488,0.384 0.816,0 1.488,-0.384 0.688,-0.4 1.088,-1.136 0.4,-0.752 0.4,-1.744 z"
         id="path957" />
      <path
         d="m -497.84199,546.12003 q 0,0.416 -0.048,0.88 h -7.008 q 0.08,1.296 0.88,2.032 0.816,0.72 1.968,0.72 0.944,0 1.568,-0.432 0.64,-0.448 0.896,-1.184 h 1.568 q -0.352,1.264 -1.408,2.064 -1.056,0.784 -2.624,0.784 -1.248,0 -2.24,-0.56 -0.976,-0.56 -1.536,-1.584 -0.56,-1.04 -0.56,-2.4 0,-1.36 0.544,-2.384 0.544,-1.024 1.52,-1.568 0.992,-0.56 2.272,-0.56 1.248,0 2.208,0.544 0.96,0.544 1.472,1.504 0.528,0.944 0.528,2.144 z m -1.504,-0.304 q 0,-0.832 -0.368,-1.424 -0.368,-0.608 -1.008,-0.912 -0.624,-0.32 -1.392,-0.32 -1.104,0 -1.888,0.704 -0.768,0.704 -0.88,1.952 z"
         id="path959" />
      <path
         d="m -494.46598,543.49603 q 0.384,-0.752 1.088,-1.168 0.72,-0.416 1.744,-0.416 v 1.504 h -0.384 q -2.448,0 -2.448,2.656 v 4.768 h -1.456 v -8.768 h 1.456 z"
         id="path961" />
      <path
         d="m -562.77804,573.81603 q -1.536,-1.504 -2.4,-3.824 -0.848,-2.32 -0.848,-5.008 0,-2.752 0.896,-5.136 0.912,-2.4 2.592,-3.952 h 1.52 v 0.144 q -1.792,1.68 -2.704,4.048 -0.896,2.352 -0.896,4.896 0,2.48 0.848,4.736 0.864,2.256 2.512,3.952 v 0.144 z"
         id="path963" />
      <path
         d="m -559.67404,569.67203 q 2.032,-1.632 3.184,-2.672 1.152,-1.056 1.936,-2.192 0.8,-1.152 0.8,-2.256 0,-1.04 -0.512,-1.632 -0.496,-0.608 -1.616,-0.608 -1.088,0 -1.696,0.688 -0.592,0.672 -0.64,1.808 h -1.408 q 0.064,-1.792 1.088,-2.768 1.024,-0.976 2.64,-0.976 1.648,0 2.608,0.912 0.976,0.912 0.976,2.512 0,1.328 -0.8,2.592 -0.784,1.248 -1.792,2.208 -1.008,0.944 -2.576,2.208 h 5.504 v 1.216 h -7.696 z"
         id="path965" />
      <path
         d="m -550.29802,564.93603 q 0,-2.752 0.896,-4.288 0.896,-1.552 3.136,-1.552 2.224,0 3.12,1.552 0.896,1.536 0.896,4.288 0,2.8 -0.896,4.352 -0.896,1.552 -3.12,1.552 -2.24,0 -3.136,-1.552 -0.896,-1.552 -0.896,-4.352 z m 6.608,0 q 0,-1.392 -0.192,-2.352 -0.176,-0.976 -0.752,-1.568 -0.56,-0.592 -1.632,-0.592 -1.088,0 -1.664,0.592 -0.56,0.592 -0.752,1.568 -0.176,0.96 -0.176,2.352 0,1.44 0.176,2.416 0.192,0.976 0.752,1.568 0.576,0.592 1.664,0.592 1.072,0 1.632,-0.592 0.576,-0.592 0.752,-1.568 0.192,-0.976 0.192,-2.416 z"
         id="path967" />
      <path
         d="m -530.15402,565.09603 q 0.608,0.096 1.104,0.496 0.512,0.4 0.8,0.992 0.304,0.592 0.304,1.264 0,0.848 -0.432,1.536 -0.432,0.672 -1.264,1.072 -0.816,0.384 -1.936,0.384 h -4.16 v -11.152 h 4 q 1.136,0 1.936,0.384 0.8,0.368 1.2,1.008 0.4,0.64 0.4,1.44 0,0.992 -0.544,1.648 -0.528,0.64 -1.408,0.928 z m -4.128,-0.592 h 2.448 q 1.024,0 1.584,-0.48 0.56,-0.48 0.56,-1.328 0,-0.848 -0.56,-1.328 -0.56,-0.48 -1.616,-0.48 h -2.416 z m 2.576,5.136 q 1.088,0 1.696,-0.512 0.608,-0.512 0.608,-1.424 0,-0.928 -0.64,-1.456 -0.64,-0.544 -1.712,-0.544 h -2.528 v 3.936 z"
         id="path969" />
      <path
         d="m -518.378,562.07203 -5.28,12.896 h -1.504 l 1.728,-4.224 -3.536,-8.672 h 1.616 l 2.752,7.104 2.72,-7.104 z"
         id="path971" />
      <path
         d="m -515.14601,563.27203 v 5.168 q 0,0.64 0.272,0.912 0.272,0.256 0.944,0.256 h 1.072 v 1.232 h -1.312 q -1.216,0 -1.824,-0.56 -0.608,-0.56 -0.608,-1.84 v -5.168 h -1.136 v -1.2 h 1.136 v -2.208 h 1.456 v 2.208 h 2.288 v 1.2 z"
         id="path973" />
      <path
         d="m -503.098,566.12003 q 0,0.416 -0.048,0.88 h -7.008 q 0.08,1.296 0.88,2.032 0.816,0.72 1.968,0.72 0.944,0 1.568,-0.432 0.64,-0.448 0.896,-1.184 h 1.568 q -0.352,1.264 -1.408,2.064 -1.056,0.784 -2.624,0.784 -1.248,0 -2.24,-0.56 -0.976,-0.56 -1.536,-1.584 -0.56,-1.04 -0.56,-2.4 0,-1.36 0.544,-2.384 0.544,-1.024 1.52,-1.568 0.992,-0.56 2.272,-0.56 1.248,0 2.208,0.544 0.96,0.544 1.472,1.504 0.528,0.944 0.528,2.144 z m -1.504,-0.304 q 0,-0.832 -0.368,-1.424 -0.368,-0.608 -1.008,-0.912 -0.624,-0.32 -1.392,-0.32 -1.104,0 -1.888,0.704 -0.768,0.704 -0.88,1.952 z"
         id="path975" />
      <path
         d="m -501.64199,573.81603 v -0.144 q 1.648,-1.696 2.496,-3.952 0.864,-2.256 0.864,-4.736 0,-2.544 -0.912,-4.896 -0.896,-2.368 -2.688,-4.048 v -0.144 h 1.52 q 1.68,1.552 2.576,3.952 0.912,2.384 0.912,5.136 0,2.688 -0.864,5.008 -0.848,2.32 -2.384,3.824 z"
         id="path977" />
    </g>
  </g>
  <g
     style="line-height:125%;-inkscape-font-specification:'Open Sans';text-align:center"
     text-anchor="middle"
     transform="translate(846.22 -455.38)"
     word-spacing="0"
     id="g97">
    <g
       aria-label="TCP-Header
(20 Byte)"
       id="text95"
       style="font-weight:500;font-size:16px;line-height:1.25;font-family:Poppins;-inkscape-font-specification:'Poppins, Medium';letter-spacing:0">
      <path
         d="m -572.15403,539.68803 v 1.184 h -3.04 v 9.968 h -1.456 v -9.968 h -3.056 v -1.184 z"
         id="path980" />
      <path
         d="m -570.90602,545.25603 q 0,-1.632 0.736,-2.928 0.736,-1.312 2,-2.048 1.28,-0.736 2.832,-0.736 1.824,0 3.184,0.88 1.36,0.88 1.984,2.496 h -1.744 q -0.464,-1.008 -1.344,-1.552 -0.864,-0.544 -2.08,-0.544 -1.168,0 -2.096,0.544 -0.928,0.544 -1.456,1.552 -0.528,0.992 -0.528,2.336 0,1.328 0.528,2.336 0.528,0.992 1.456,1.536 0.928,0.544 2.096,0.544 1.216,0 2.08,-0.528 0.88,-0.544 1.344,-1.552 h 1.744 q -0.624,1.6 -1.984,2.48 -1.36,0.864 -3.184,0.864 -1.552,0 -2.832,-0.72 -1.264,-0.736 -2,-2.032 -0.736,-1.296 -0.736,-2.928 z"
         id="path982" />
      <path
         d="m -550.55403,542.95203 q 0,1.392 -0.96,2.32 -0.944,0.912 -2.896,0.912 h -2.144 v 4.656 h -1.456 v -11.152 h 3.6 q 1.888,0 2.864,0.912 0.992,0.912 0.992,2.352 z m -3.856,2.032 q 1.216,0 1.792,-0.528 0.576,-0.528 0.576,-1.504 0,-2.064 -2.368,-2.064 h -2.144 v 4.096 z"
         id="path984" />
      <path
         d="m -542.66603,544.36003 v 1.232 h -6.384 v -1.232 z"
         id="path986" />
      <path
         d="m -531.33802,539.68803 v 11.152 h -1.456 v -5.056 h -5.68 v 5.056 h -1.456 v -11.152 h 1.456 v 4.896 h 5.68 v -4.896 z"
         id="path988" />
      <path
         d="m -520.85803,546.12003 q 0,0.416 -0.048,0.88 h -7.008 q 0.08,1.296 0.88,2.032 0.816,0.72 1.968,0.72 0.944,0 1.568,-0.432 0.64,-0.448 0.896,-1.184 h 1.568 q -0.352,1.264 -1.408,2.064 -1.056,0.784 -2.624,0.784 -1.248,0 -2.24,-0.56 -0.976,-0.56 -1.536,-1.584 -0.56,-1.04 -0.56,-2.4 0,-1.36 0.544,-2.384 0.544,-1.024 1.52,-1.568 0.992,-0.56 2.272,-0.56 1.248,0 2.208,0.544 0.96,0.544 1.472,1.504 0.528,0.944 0.528,2.144 z m -1.504,-0.304 q 0,-0.832 -0.368,-1.424 -0.368,-0.608 -1.008,-0.912 -0.624,-0.32 -1.392,-0.32 -1.104,0 -1.888,0.704 -0.768,0.704 -0.88,1.952 z"
         id="path990" />
      <path
         d="m -519.48201,546.42403 q 0,-1.344 0.544,-2.352 0.544,-1.024 1.488,-1.584 0.96,-0.56 2.128,-0.56 1.152,0 2,0.496 0.848,0.496 1.264,1.248 v -1.6 h 1.472 v 8.768 h -1.472 v -1.632 q -0.432,0.768 -1.296,1.28 -0.848,0.496 -1.984,0.496 -1.168,0 -2.112,-0.576 -0.944,-0.576 -1.488,-1.616 -0.544,-1.04 -0.544,-2.368 z m 7.424,0.016 q 0,-0.992 -0.4,-1.728 -0.4,-0.736 -1.088,-1.12 -0.672,-0.4 -1.488,-0.4 -0.816,0 -1.488,0.384 -0.672,0.384 -1.072,1.12 -0.4,0.736 -0.4,1.728 0,1.008 0.4,1.76 0.4,0.736 1.072,1.136 0.672,0.384 1.488,0.384 0.816,0 1.488,-0.384 0.688,-0.4 1.088,-1.136 0.4,-0.752 0.4,-1.744 z"
         id="path992" />
      <path
         d="m -508.666,546.42403 q 0,-1.344 0.544,-2.352 0.544,-1.024 1.488,-1.584 0.96,-0.56 2.144,-0.56 1.024,0 1.904,0.48 0.88,0.464 1.344,1.232 v -4.64 h 1.472 v 11.84 h -1.472 v -1.648 q -0.432,0.784 -1.28,1.296 -0.848,0.496 -1.984,0.496 -1.168,0 -2.128,-0.576 -0.944,-0.576 -1.488,-1.616 -0.544,-1.04 -0.544,-2.368 z m 7.424,0.016 q 0,-0.992 -0.4,-1.728 -0.4,-0.736 -1.088,-1.12 -0.672,-0.4 -1.488,-0.4 -0.816,0 -1.488,0.384 -0.672,0.384 -1.072,1.12 -0.4,0.736 -0.4,1.728 0,1.008 0.4,1.76 0.4,0.736 1.072,1.136 0.672,0.384 1.488,0.384 0.816,0 1.488,-0.384 0.688,-0.4 1.088,-1.136 0.4,-0.752 0.4,-1.744 z"
         id="path994" />
      <path
         d="m -489.30599,546.12003 q 0,0.416 -0.048,0.88 h -7.008 q 0.08,1.296 0.88,2.032 0.816,0.72 1.968,0.72 0.944,0 1.568,-0.432 0.64,-0.448 0.896,-1.184 h 1.568 q -0.352,1.264 -1.408,2.064 -1.056,0.784 -2.624,0.784 -1.248,0 -2.24,-0.56 -0.976,-0.56 -1.536,-1.584 -0.56,-1.04 -0.56,-2.4 0,-1.36 0.544,-2.384 0.544,-1.024 1.52,-1.568 0.992,-0.56 2.272,-0.56 1.248,0 2.208,0.544 0.96,0.544 1.472,1.504 0.528,0.944 0.528,2.144 z m -1.504,-0.304 q 0,-0.832 -0.368,-1.424 -0.368,-0.608 -1.008,-0.912 -0.624,-0.32 -1.392,-0.32 -1.104,0 -1.888,0.704 -0.768,0.704 -0.88,1.952 z"
         id="path996" />
      <path
         d="m -485.92998,543.49603 q 0.384,-0.752 1.088,-1.168 0.72,-0.416 1.744,-0.416 v 1.504 h -0.384 q -2.448,0 -2.448,2.656 v 4.768 h -1.456 v -8.768 h 1.456 z"
         id="path998" />
      <path
         d="m -562.77804,573.81603 q -1.536,-1.504 -2.4,-3.824 -0.848,-2.32 -0.848,-5.008 0,-2.752 0.896,-5.136 0.912,-2.4 2.592,-3.952 h 1.52 v 0.144 q -1.792,1.68 -2.704,4.048 -0.896,2.352 -0.896,4.896 0,2.48 0.848,4.736 0.864,2.256 2.512,3.952 v 0.144 z"
         id="path1000" />
      <path
         d="m -559.67404,569.67203 q 2.032,-1.632 3.184,-2.672 1.152,-1.056 1.936,-2.192 0.8,-1.152 0.8,-2.256 0,-1.04 -0.512,-1.632 -0.496,-0.608 -1.616,-0.608 -1.088,0 -1.696,0.688 -0.592,0.672 -0.64,1.808 h -1.408 q 0.064,-1.792 1.088,-2.768 1.024,-0.976 2.64,-0.976 1.648,0 2.608,0.912 0.976,0.912 0.976,2.512 0,1.328 -0.8,2.592 -0.784,1.248 -1.792,2.208 -1.008,0.944 -2.576,2.208 h 5.504 v 1.216 h -7.696 z"
         id="path1002" />
      <path
         d="m -550.29802,564.93603 q 0,-2.752 0.896,-4.288 0.896,-1.552 3.136,-1.552 2.224,0 3.12,1.552 0.896,1.536 0.896,4.288 0,2.8 -0.896,4.352 -0.896,1.552 -3.12,1.552 -2.24,0 -3.136,-1.552 -0.896,-1.552 -0.896,-4.352 z m 6.608,0 q 0,-1.392 -0.192,-2.352 -0.176,-0.976 -0.752,-1.568 -0.56,-0.592 -1.632,-0.592 -1.088,0 -1.664,0.592 -0.56,0.592 -0.752,1.568 -0.176,0.96 -0.176,2.352 0,1.44 0.176,2.416 0.192,0.976 0.752,1.568 0.576,0.592 1.664,0.592 1.072,0 1.632,-0.592 0.576,-0.592 0.752,-1.568 0.192,-0.976 0.192,-2.416 z"
         id="path1004" />
      <path
         d="m -530.15402,565.09603 q 0.608,0.096 1.104,0.496 0.512,0.4 0.8,0.992 0.304,0.592 0.304,1.264 0,0.848 -0.432,1.536 -0.432,0.672 -1.264,1.072 -0.816,0.384 -1.936,0.384 h -4.16 v -11.152 h 4 q 1.136,0 1.936,0.384 0.8,0.368 1.2,1.008 0.4,0.64 0.4,1.44 0,0.992 -0.544,1.648 -0.528,0.64 -1.408,0.928 z m -4.128,-0.592 h 2.448 q 1.024,0 1.584,-0.48 0.56,-0.48 0.56,-1.328 0,-0.848 -0.56,-1.328 -0.56,-0.48 -1.616,-0.48 h -2.416 z m 2.576,5.136 q 1.088,0 1.696,-0.512 0.608,-0.512 0.608,-1.424 0,-0.928 -0.64,-1.456 -0.64,-0.544 -1.712,-0.544 h -2.528 v 3.936 z"
         id="path1006" />
      <path
         d="m -518.378,562.07203 -5.28,12.896 h -1.504 l 1.728,-4.224 -3.536,-8.672 h 1.616 l 2.752,7.104 2.72,-7.104 z"
         id="path1008" />
      <path
         d="m -515.14601,563.27203 v 5.168 q 0,0.64 0.272,0.912 0.272,0.256 0.944,0.256 h 1.072 v 1.232 h -1.312 q -1.216,0 -1.824,-0.56 -0.608,-0.56 -0.608,-1.84 v -5.168 h -1.136 v -1.2 h 1.136 v -2.208 h 1.456 v 2.208 h 2.288 v 1.2 z"
         id="path1010" />
      <path
         d="m -503.098,566.12003 q 0,0.416 -0.048,0.88 h -7.008 q 0.08,1.296 0.88,2.032 0.816,0.72 1.968,0.72 0.944,0 1.568,-0.432 0.64,-0.448 0.896,-1.184 h 1.568 q -0.352,1.264 -1.408,2.064 -1.056,0.784 -2.624,0.784 -1.248,0 -2.24,-0.56 -0.976,-0.56 -1.536,-1.584 -0.56,-1.04 -0.56,-2.4 0,-1.36 0.544,-2.384 0.544,-1.024 1.52,-1.568 0.992,-0.56 2.272,-0.56 1.248,0 2.208,0.544 0.96,0.544 1.472,1.504 0.528,0.944 0.528,2.144 z m -1.504,-0.304 q 0,-0.832 -0.368,-1.424 -0.368,-0.608 -1.008,-0.912 -0.624,-0.32 -1.392,-0.32 -1.104,0 -1.888,0.704 -0.768,0.704 -0.88,1.952 z"
         id="path1012" />
      <path
         d="m -501.64199,573.81603 v -0.144 q 1.648,-1.696 2.496,-3.952 0.864,-2.256 0.864,-4.736 0,-2.544 -0.912,-4.896 -0.896,-2.368 -2.688,-4.048 v -0.144 h 1.52 q 1.68,1.552 2.576,3.952 0.912,2.384 0.912,5.136 0,2.688 -0.864,5.008 -0.848,2.32 -2.384,3.824 z"
         id="path1014" />
    </g>
  </g>
  <g
     style="line-height:125%;-inkscape-font-specification:'Open Sans';text-align:center"
     text-anchor="middle"
     transform="translate(1113.5 -455.52)"
     word-spacing="0"
     id="g105">
    <g
       aria-label="Datennutzung
(max. 1460 Byte)"
       id="text103"
       style="font-weight:500;font-size:16px;line-height:1.25;font-family:Poppins;-inkscape-font-specification:'Poppins, Medium';letter-spacing:0">
      <path
         d="m -583.24201,539.68803 q 1.824,0 3.152,0.688 1.344,0.672 2.048,1.936 0.72,1.264 0.72,2.976 0,1.712 -0.72,2.976 -0.704,1.248 -2.048,1.92 -1.328,0.656 -3.152,0.656 h -3.472 v -11.152 z m 0,9.952 q 2.16,0 3.296,-1.136 1.136,-1.152 1.136,-3.216 0,-2.08 -1.152,-3.248 -1.136,-1.168 -3.28,-1.168 h -2.016 v 8.768 z"
         id="path1017" />
      <path
         d="m -575.946,546.42403 q 0,-1.344 0.544,-2.352 0.544,-1.024 1.488,-1.584 0.96,-0.56 2.128,-0.56 1.152,0 2,0.496 0.848,0.496 1.264,1.248 v -1.6 h 1.472 v 8.768 h -1.472 v -1.632 q -0.432,0.768 -1.296,1.28 -0.848,0.496 -1.984,0.496 -1.168,0 -2.112,-0.576 -0.944,-0.576 -1.488,-1.616 -0.544,-1.04 -0.544,-2.368 z m 7.424,0.016 q 0,-0.992 -0.4,-1.728 -0.4,-0.736 -1.088,-1.12 -0.672,-0.4 -1.488,-0.4 -0.816,0 -1.488,0.384 -0.672,0.384 -1.072,1.12 -0.4,0.736 -0.4,1.728 0,1.008 0.4,1.76 0.4,0.736 1.072,1.136 0.672,0.384 1.488,0.384 0.816,0 1.488,-0.384 0.688,-0.4 1.088,-1.136 0.4,-0.752 0.4,-1.744 z"
         id="path1019" />
      <path
         d="m -562.80999,543.27203 v 5.168 q 0,0.64 0.272,0.912 0.272,0.256 0.944,0.256 h 1.072 v 1.232 h -1.312 q -1.216,0 -1.824,-0.56 -0.608,-0.56 -0.608,-1.84 v -5.168 h -1.136 v -1.2 h 1.136 v -2.208 h 1.456 v 2.208 h 2.288 v 1.2 z"
         id="path1021" />
      <path
         d="m -550.76199,546.12003 q 0,0.416 -0.048,0.88 h -7.008 q 0.08,1.296 0.88,2.032 0.816,0.72 1.968,0.72 0.944,0 1.568,-0.432 0.64,-0.448 0.896,-1.184 h 1.568 q -0.352,1.264 -1.408,2.064 -1.056,0.784 -2.624,0.784 -1.248,0 -2.24,-0.56 -0.976,-0.56 -1.536,-1.584 -0.56,-1.04 -0.56,-2.4 0,-1.36 0.544,-2.384 0.544,-1.024 1.52,-1.568 0.992,-0.56 2.272,-0.56 1.248,0 2.208,0.544 0.96,0.544 1.472,1.504 0.528,0.944 0.528,2.144 z m -1.504,-0.304 q 0,-0.832 -0.368,-1.424 -0.368,-0.608 -1.008,-0.912 -0.624,-0.32 -1.392,-0.32 -1.104,0 -1.888,0.704 -0.768,0.704 -0.88,1.952 z"
         id="path1023" />
      <path
         d="m -544.56997,541.91203 q 1.6,0 2.592,0.976 0.992,0.96 0.992,2.784 v 5.168 h -1.44 v -4.96 q 0,-1.312 -0.656,-2 -0.656,-0.704 -1.792,-0.704 -1.152,0 -1.84,0.72 -0.672,0.72 -0.672,2.096 v 4.848 h -1.456 v -8.768 h 1.456 v 1.248 q 0.432,-0.672 1.168,-1.04 0.752,-0.368 1.648,-0.368 z"
         id="path1025" />
      <path
         d="m -534.32998,541.91203 q 1.6,0 2.592,0.976 0.992,0.96 0.992,2.784 v 5.168 h -1.44 v -4.96 q 0,-1.312 -0.656,-2 -0.656,-0.704 -1.792,-0.704 -1.152,0 -1.84,0.72 -0.672,0.72 -0.672,2.096 v 4.848 h -1.456 v -8.768 h 1.456 v 1.248 q 0.432,-0.672 1.168,-1.04 0.752,-0.368 1.648,-0.368 z"
         id="path1027" />
      <path
         d="m -520.58599,542.07203 v 8.768 h -1.456 v -1.296 q -0.416,0.672 -1.168,1.056 -0.736,0.368 -1.632,0.368 -1.024,0 -1.84,-0.416 -0.816,-0.432 -1.296,-1.28 -0.464,-0.848 -0.464,-2.064 v -5.136 h 1.44 v 4.944 q 0,1.296 0.656,2 0.656,0.688 1.792,0.688 1.168,0 1.84,-0.72 0.672,-0.72 0.672,-2.096 v -4.816 z"
         id="path1029" />
      <path
         d="m -516.346,543.27203 v 5.168 q 0,0.64 0.272,0.912 0.272,0.256 0.944,0.256 h 1.072 v 1.232 h -1.312 q -1.216,0 -1.824,-0.56 -0.608,-0.56 -0.608,-1.84 v -5.168 h -1.136 v -1.2 h 1.136 v -2.208 h 1.456 v 2.208 h 2.288 v 1.2 z"
         id="path1031" />
      <path
         d="m -511.21,549.64003 h 4.304 v 1.2 h -5.968 v -1.2 l 4.256,-6.384 h -4.224 v -1.184 h 5.904 v 1.184 z"
         id="path1033" />
      <path
         d="m -497.242,542.07203 v 8.768 h -1.456 v -1.296 q -0.416,0.672 -1.168,1.056 -0.736,0.368 -1.632,0.368 -1.024,0 -1.84,-0.416 -0.816,-0.432 -1.296,-1.28 -0.464,-0.848 -0.464,-2.064 v -5.136 h 1.44 v 4.944 q 0,1.296 0.656,2 0.656,0.688 1.792,0.688 1.168,0 1.84,-0.72 0.672,-0.72 0.672,-2.096 v -4.816 z"
         id="path1035" />
      <path
         d="m -490.50601,541.91203 q 1.6,0 2.592,0.976 0.992,0.96 0.992,2.784 v 5.168 h -1.44 v -4.96 q 0,-1.312 -0.656,-2 -0.656,-0.704 -1.792,-0.704 -1.152,0 -1.84,0.72 -0.672,0.72 -0.672,2.096 v 4.848 h -1.456 v -8.768 h 1.456 v 1.248 q 0.432,-0.672 1.168,-1.04 0.752,-0.368 1.648,-0.368 z"
         id="path1037" />
      <path
         d="m -480.92202,541.92803 q 1.136,0 1.984,0.496 0.864,0.496 1.28,1.248 v -1.6 h 1.472 v 8.96 q 0,1.2 -0.512,2.128 -0.512,0.944 -1.472,1.472 -0.944,0.528 -2.208,0.528 -1.728,0 -2.88,-0.816 -1.152,-0.816 -1.36,-2.224 h 1.44 q 0.24,0.8 0.992,1.28 0.752,0.496 1.808,0.496 1.2,0 1.952,-0.752 0.768,-0.752 0.768,-2.112 v -1.84 q -0.432,0.768 -1.28,1.28 -0.848,0.512 -1.984,0.512 -1.168,0 -2.128,-0.576 -0.944,-0.576 -1.488,-1.616 -0.544,-1.04 -0.544,-2.368 0,-1.344 0.544,-2.352 0.544,-1.024 1.488,-1.584 0.96,-0.56 2.128,-0.56 z m 3.264,4.512 q 0,-0.992 -0.4,-1.728 -0.4,-0.736 -1.088,-1.12 -0.672,-0.4 -1.488,-0.4 -0.816,0 -1.488,0.384 -0.672,0.384 -1.072,1.12 -0.4,0.736 -0.4,1.728 0,1.008 0.4,1.76 0.4,0.736 1.072,1.136 0.672,0.384 1.488,0.384 0.816,0 1.488,-0.384 0.688,-0.4 1.088,-1.136 0.4,-0.752 0.4,-1.744 z"
         id="path1039" />
      <path
         d="m -592.14604,573.81603 q -1.536,-1.504 -2.4,-3.824 -0.848,-2.32 -0.848,-5.008 0,-2.752 0.896,-5.136 0.912,-2.4 2.592,-3.952 h 1.52 v 0.144 q -1.792,1.68 -2.704,4.048 -0.896,2.352 -0.896,4.896 0,2.48 0.848,4.736 0.864,2.256 2.512,3.952 v 0.144 z"
         id="path1041" />
      <path
         d="m -578.08203,561.91203 q 1.024,0 1.824,0.432 0.8,0.416 1.264,1.264 0.464,0.848 0.464,2.064 v 5.168 h -1.44 v -4.96 q 0,-1.312 -0.656,-2 -0.64,-0.704 -1.744,-0.704 -1.136,0 -1.808,0.736 -0.672,0.72 -0.672,2.096 v 4.832 h -1.44 v -4.96 q 0,-1.312 -0.656,-2 -0.64,-0.704 -1.744,-0.704 -1.136,0 -1.808,0.736 -0.672,0.72 -0.672,2.096 v 4.832 h -1.456 v -8.768 h 1.456 v 1.264 q 0.432,-0.688 1.152,-1.056 0.736,-0.368 1.616,-0.368 1.104,0 1.952,0.496 0.848,0.496 1.264,1.456 0.368,-0.928 1.216,-1.44 0.848,-0.512 1.888,-0.512 z"
         id="path1043" />
      <path
         d="m -572.69002,566.42403 q 0,-1.344 0.544,-2.352 0.544,-1.024 1.488,-1.584 0.96,-0.56 2.128,-0.56 1.152,0 2,0.496 0.848,0.496 1.264,1.248 v -1.6 h 1.472 v 8.768 h -1.472 v -1.632 q -0.432,0.768 -1.296,1.28 -0.848,0.496 -1.984,0.496 -1.168,0 -2.112,-0.576 -0.944,-0.576 -1.488,-1.616 -0.544,-1.04 -0.544,-2.368 z m 7.424,0.016 q 0,-0.992 -0.4,-1.728 -0.4,-0.736 -1.088,-1.12 -0.672,-0.4 -1.488,-0.4 -0.816,0 -1.488,0.384 -0.672,0.384 -1.072,1.12 -0.4,0.736 -0.4,1.728 0,1.008 0.4,1.76 0.4,0.736 1.072,1.136 0.672,0.384 1.488,0.384 0.816,0 1.488,-0.384 0.688,-0.4 1.088,-1.136 0.4,-0.752 0.4,-1.744 z"
         id="path1045" />
      <path
         d="m -556.75401,570.84003 -2.08,-3.264 -2,3.264 h -1.52 l 2.832,-4.352 -2.832,-4.416 h 1.648 l 2.08,3.248 1.984,-3.248 h 1.52 l -2.816,4.336 2.832,4.432 z"
         id="path1047" />
      <path
         d="m -553.20201,570.93603 q -0.416,0 -0.704,-0.288 -0.288,-0.288 -0.288,-0.704 0,-0.416 0.288,-0.704 0.288,-0.288 0.704,-0.288 0.4,0 0.672,0.288 0.288,0.288 0.288,0.704 0,0.416 -0.288,0.704 -0.272,0.288 -0.672,0.288 z"
         id="path1049" />
      <path
         d="m -546.65802,560.60003 v -1.328 h 3.008 v 11.568 h -1.472 v -10.24 z"
         id="path1051" />
      <path
         d="m -541.50603,568.26403 v -1.104 l 5.616,-7.776 h 1.744 v 7.616 h 1.6 v 1.264 h -1.6 v 2.576 h -1.44 v -2.576 z m 5.984,-7.36 -4.304,6.096 h 4.304 z"
         id="path1053" />
      <path
         d="m -524.64203,562.02403 q -0.352,-1.776 -2.192,-1.776 -1.424,0 -2.128,1.104 -0.704,1.088 -0.688,3.6 0.368,-0.832 1.216,-1.296 0.864,-0.48 1.92,-0.48 1.648,0 2.624,1.024 0.992,1.024 0.992,2.832 0,1.088 -0.432,1.952 -0.416,0.864 -1.28,1.376 -0.848,0.512 -2.064,0.512 -1.648,0 -2.576,-0.736 -0.928,-0.736 -1.296,-2.032 -0.368,-1.296 -0.368,-3.2 0,-5.872 4.096,-5.872 1.568,0 2.464,0.848 0.896,0.848 1.056,2.144 z m -2.176,2.384 q -0.688,0 -1.296,0.288 -0.608,0.272 -0.992,0.848 -0.368,0.56 -0.368,1.376 0,1.216 0.704,1.984 0.704,0.752 2.016,0.752 1.12,0 1.776,-0.688 0.672,-0.704 0.672,-1.888 0,-1.248 -0.64,-1.952 -0.64,-0.72 -1.872,-0.72 z"
         id="path1055" />
      <path
         d="m -520.93003,564.93603 q 0,-2.752 0.896,-4.288 0.896,-1.552 3.136,-1.552 2.224,0 3.12,1.552 0.896,1.536 0.896,4.288 0,2.8 -0.896,4.352 -0.896,1.552 -3.12,1.552 -2.24,0 -3.136,-1.552 -0.896,-1.552 -0.896,-4.352 z m 6.608,0 q 0,-1.392 -0.192,-2.352 -0.176,-0.976 -0.752,-1.568 -0.56,-0.592 -1.632,-0.592 -1.088,0 -1.664,0.592 -0.56,0.592 -0.752,1.568 -0.176,0.96 -0.176,2.352 0,1.44 0.176,2.416 0.192,0.976 0.752,1.568 0.576,0.592 1.664,0.592 1.072,0 1.632,-0.592 0.576,-0.592 0.752,-1.568 0.192,-0.976 0.192,-2.416 z"
         id="path1057" />
      <path
         d="m -500.78602,565.09603 q 0.608,0.096 1.104,0.496 0.512,0.4 0.8,0.992 0.304,0.592 0.304,1.264 0,0.848 -0.432,1.536 -0.432,0.672 -1.264,1.072 -0.816,0.384 -1.936,0.384 h -4.16 v -11.152 h 4 q 1.136,0 1.936,0.384 0.8,0.368 1.2,1.008 0.4,0.64 0.4,1.44 0,0.992 -0.544,1.648 -0.528,0.64 -1.408,0.928 z m -4.128,-0.592 h 2.448 q 1.024,0 1.584,-0.48 0.56,-0.48 0.56,-1.328 0,-0.848 -0.56,-1.328 -0.56,-0.48 -1.616,-0.48 h -2.416 z m 2.576,5.136 q 1.088,0 1.696,-0.512 0.608,-0.512 0.608,-1.424 0,-0.928 -0.64,-1.456 -0.64,-0.544 -1.712,-0.544 h -2.528 v 3.936 z"
         id="path1059" />
      <path
         d="m -489.01001,562.07203 -5.28,12.896 h -1.504 l 1.728,-4.224 -3.536,-8.672 h 1.616 l 2.752,7.104 2.72,-7.104 z"
         id="path1061" />
      <path
         d="m -485.77801,563.27203 v 5.168 q 0,0.64 0.272,0.912 0.272,0.256 0.944,0.256 h 1.072 v 1.232 h -1.312 q -1.216,0 -1.824,-0.56 -0.608,-0.56 -0.608,-1.84 v -5.168 h -1.136 v -1.2 h 1.136 v -2.208 h 1.456 v 2.208 h 2.288 v 1.2 z"
         id="path1063" />
      <path
         d="m -473.73001,566.12003 q 0,0.416 -0.048,0.88 h -7.008 q 0.08,1.296 0.88,2.032 0.816,0.72 1.968,0.72 0.944,0 1.568,-0.432 0.64,-0.448 0.896,-1.184 h 1.568 q -0.352,1.264 -1.408,2.064 -1.056,0.784 -2.624,0.784 -1.248,0 -2.24,-0.56 -0.976,-0.56 -1.536,-1.584 -0.56,-1.04 -0.56,-2.4 0,-1.36 0.544,-2.384 0.544,-1.024 1.52,-1.568 0.992,-0.56 2.272,-0.56 1.248,0 2.208,0.544 0.96,0.544 1.472,1.504 0.528,0.944 0.528,2.144 z m -1.504,-0.304 q 0,-0.832 -0.368,-1.424 -0.368,-0.608 -1.008,-0.912 -0.624,-0.32 -1.392,-0.32 -1.104,0 -1.888,0.704 -0.768,0.704 -0.88,1.952 z"
         id="path1065" />
      <path
         d="m -472.27399,573.81603 v -0.144 q 1.648,-1.696 2.496,-3.952 0.864,-2.256 0.864,-4.736 0,-2.544 -0.912,-4.896 -0.896,-2.368 -2.688,-4.048 v -0.144 h 1.52 q 1.68,1.552 2.576,3.952 0.912,2.384 0.912,5.136 0,2.688 -0.864,5.008 -0.848,2.32 -2.384,3.824 z"
         id="path1067" />
    </g>
  </g>
  <g
     style="line-height:125%;-inkscape-font-specification:'Open Sans';text-align:center"
     text-anchor="middle"
     transform="translate(1377.22 -615.68)"
     word-spacing="0"
     id="g113">
    <g
       aria-label="Prüfsumme
(2 Byte)"
       id="text111"
       style="font-weight:500;font-size:16px;line-height:1.25;font-family:Poppins;-inkscape-font-specification:'Poppins, Medium';letter-spacing:0">
      <path
         d="m -585.346,703.672 q 0,1.392 -0.96,2.32 -0.944,0.912 -2.896,0.912 h -2.144 v 4.656 h -1.456 v -11.152 h 3.6 q 1.888,0 2.864,0.912 0.992,0.912 0.992,2.352 z m -3.856,2.032 q 1.216,0 1.792,-0.528 0.576,-0.528 0.576,-1.504 0,-2.064 -2.368,-2.064 h -2.144 v 4.096 z"
         id="path1070" />
      <path
         d="m -582.08199,704.216 q 0.384,-0.752 1.088,-1.168 0.72,-0.416 1.744,-0.416 v 1.504 h -0.384 q -2.448,0 -2.448,2.656 v 4.768 h -1.456 v -8.768 h 1.456 z"
         id="path1072" />
      <path
         d="m -569.794,702.792 v 8.768 h -1.456 v -1.296 q -0.416,0.672 -1.168,1.056 -0.736,0.368 -1.632,0.368 -1.024,0 -1.84,-0.416 -0.816,-0.432 -1.296,-1.28 -0.464,-0.848 -0.464,-2.064 v -5.136 h 1.44 v 4.944 q 0,1.296 0.656,2 0.656,0.688 1.792,0.688 1.168,0 1.84,-0.72 0.672,-0.72 0.672,-2.096 v -4.816 z m -5.168,-1.184 q -0.352,0 -0.608,-0.24 -0.24,-0.24 -0.24,-0.592 0,-0.352 0.24,-0.592 0.256,-0.256 0.608,-0.256 0.336,0 0.576,0.256 0.256,0.24 0.256,0.592 0,0.352 -0.256,0.592 -0.24,0.24 -0.576,0.24 z m 2.592,0 q -0.352,0 -0.592,-0.24 -0.24,-0.24 -0.24,-0.592 0,-0.352 0.24,-0.592 0.24,-0.256 0.592,-0.256 0.352,0 0.592,0.256 0.256,0.24 0.256,0.592 0,0.352 -0.256,0.592 -0.24,0.24 -0.592,0.24 z"
         id="path1074" />
      <path
         d="m -563.76201,703.992 h -1.84 v 7.568 h -1.456 v -7.568 h -1.136 v -1.2 h 1.136 v -0.624 q 0,-1.472 0.752,-2.144 0.768,-0.688 2.448,-0.688 v 1.216 q -0.96,0 -1.36,0.384 -0.384,0.368 -0.384,1.232 v 0.624 h 1.84 z"
         id="path1076" />
      <path
         d="m -558.962,711.704 q -1.008,0 -1.808,-0.336 -0.8,-0.352 -1.264,-0.96 -0.464,-0.624 -0.512,-1.424 h 1.504 q 0.064,0.656 0.608,1.072 0.56,0.416 1.456,0.416 0.832,0 1.312,-0.368 0.48,-0.368 0.48,-0.928 0,-0.576 -0.512,-0.848 -0.512,-0.288 -1.584,-0.56 -0.976,-0.256 -1.6,-0.512 -0.608,-0.272 -1.056,-0.784 -0.432,-0.528 -0.432,-1.376 0,-0.672 0.4,-1.232 0.4,-0.56 1.136,-0.88 0.736,-0.336 1.68,-0.336 1.456,0 2.352,0.736 0.896,0.736 0.96,2.016 h -1.456 q -0.048,-0.688 -0.56,-1.104 -0.496,-0.416 -1.344,-0.416 -0.784,0 -1.248,0.336 -0.464,0.336 -0.464,0.88 0,0.432 0.272,0.72 0.288,0.272 0.704,0.448 0.432,0.16 1.184,0.368 0.944,0.256 1.536,0.512 0.592,0.24 1.008,0.736 0.432,0.496 0.448,1.296 0,0.72 -0.4,1.296 -0.4,0.576 -1.136,0.912 -0.72,0.32 -1.664,0.32 z"
         id="path1078" />
      <path
         d="m -545.93801,702.792 v 8.768 h -1.456 v -1.296 q -0.416,0.672 -1.168,1.056 -0.736,0.368 -1.632,0.368 -1.024,0 -1.84,-0.416 -0.816,-0.432 -1.296,-1.28 -0.464,-0.848 -0.464,-2.064 v -5.136 h 1.44 v 4.944 q 0,1.296 0.656,2 0.656,0.688 1.792,0.688 1.168,0 1.84,-0.72 0.672,-0.72 0.672,-2.096 v -4.816 z"
         id="path1080" />
      <path
         d="m -532.93002,702.632 q 1.024,0 1.824,0.432 0.8,0.416 1.264,1.264 0.464,0.848 0.464,2.064 v 5.168 h -1.44 v -4.96 q 0,-1.312 -0.656,-2 -0.64,-0.704 -1.744,-0.704 -1.136,0 -1.808,0.736 -0.672,0.72 -0.672,2.096 v 4.832 h -1.44 v -4.96 q 0,-1.312 -0.656,-2 -0.64,-0.704 -1.744,-0.704 -1.136,0 -1.808,0.736 -0.672,0.72 -0.672,2.096 v 4.832 h -1.456 v -8.768 h 1.456 v 1.264 q 0.432,-0.688 1.152,-1.056 0.736,-0.368 1.616,-0.368 1.104,0 1.952,0.496 0.848,0.496 1.264,1.456 0.368,-0.928 1.216,-1.44 0.848,-0.512 1.888,-0.512 z"
         id="path1082" />
      <path
         d="m -516.45001,702.632 q 1.024,0 1.824,0.432 0.8,0.416 1.264,1.264 0.464,0.848 0.464,2.064 v 5.168 h -1.44 v -4.96 q 0,-1.312 -0.656,-2 -0.64,-0.704 -1.744,-0.704 -1.136,0 -1.808,0.736 -0.672,0.72 -0.672,2.096 v 4.832 h -1.44 v -4.96 q 0,-1.312 -0.656,-2 -0.64,-0.704 -1.744,-0.704 -1.136,0 -1.808,0.736 -0.672,0.72 -0.672,2.096 v 4.832 h -1.456 v -8.768 h 1.456 v 1.264 q 0.432,-0.688 1.152,-1.056 0.736,-0.368 1.616,-0.368 1.104,0 1.952,0.496 0.848,0.496 1.264,1.456 0.368,-0.928 1.216,-1.44 0.848,-0.512 1.888,-0.512 z"
         id="path1084" />
      <path
         d="m -502.514,706.84 q 0,0.416 -0.048,0.88 h -7.008 q 0.08,1.296 0.88,2.032 0.816,0.72 1.968,0.72 0.944,0 1.568,-0.432 0.64,-0.448 0.896,-1.184 h 1.568 q -0.352,1.264 -1.408,2.064 -1.056,0.784 -2.624,0.784 -1.248,0 -2.24,-0.56 -0.976,-0.56 -1.536,-1.584 -0.56,-1.04 -0.56,-2.4 0,-1.36 0.544,-2.384 0.544,-1.024 1.52,-1.568 0.992,-0.56 2.272,-0.56 1.248,0 2.208,0.544 0.96,0.544 1.472,1.504 0.528,0.944 0.528,2.144 z m -1.504,-0.304 q 0,-0.832 -0.368,-1.424 -0.368,-0.608 -1.008,-0.912 -0.624,-0.32 -1.392,-0.32 -1.104,0 -1.888,0.704 -0.768,0.704 -0.88,1.952 z"
         id="path1086" />
      <path
         d="m -574.23402,734.536 q -1.536,-1.504 -2.4,-3.824 -0.848,-2.32 -0.848,-5.008 0,-2.752 0.896,-5.136 0.912,-2.4 2.592,-3.952 h 1.52 v 0.144 q -1.792,1.68 -2.704,4.048 -0.896,2.352 -0.896,4.896 0,2.48 0.848,4.736 0.864,2.256 2.512,3.952 v 0.144 z"
         id="path1088" />
      <path
         d="m -571.13001,730.392 q 2.032,-1.632 3.184,-2.672 1.152,-1.056 1.936,-2.192 0.8,-1.152 0.8,-2.256 0,-1.04 -0.512,-1.632 -0.496,-0.608 -1.616,-0.608 -1.088,0 -1.696,0.688 -0.592,0.672 -0.64,1.808 h -1.408 q 0.064,-1.792 1.088,-2.768 1.024,-0.976 2.64,-0.976 1.648,0 2.608,0.912 0.976,0.912 0.976,2.512 0,1.328 -0.8,2.592 -0.784,1.248 -1.792,2.208 -1.008,0.944 -2.576,2.208 h 5.504 v 1.216 h -7.696 z"
         id="path1090" />
      <path
         d="m -551.658,725.816 q 0.608,0.096 1.104,0.496 0.512,0.4 0.8,0.992 0.304,0.592 0.304,1.264 0,0.848 -0.432,1.536 -0.432,0.672 -1.264,1.072 -0.816,0.384 -1.936,0.384 h -4.16 v -11.152 h 4 q 1.136,0 1.936,0.384 0.8,0.368 1.2,1.008 0.4,0.64 0.4,1.44 0,0.992 -0.544,1.648 -0.528,0.64 -1.408,0.928 z m -4.128,-0.592 h 2.448 q 1.024,0 1.584,-0.48 0.56,-0.48 0.56,-1.328 0,-0.848 -0.56,-1.328 -0.56,-0.48 -1.616,-0.48 h -2.416 z m 2.576,5.136 q 1.088,0 1.696,-0.512 0.608,-0.512 0.608,-1.424 0,-0.928 -0.64,-1.456 -0.64,-0.544 -1.712,-0.544 h -2.528 v 3.936 z"
         id="path1092" />
      <path
         d="m -539.88199,722.792 -5.28,12.896 h -1.504 l 1.728,-4.224 -3.536,-8.672 h 1.616 l 2.752,7.104 2.72,-7.104 z"
         id="path1094" />
      <path
         d="m -536.64999,723.992 v 5.168 q 0,0.64 0.272,0.912 0.272,0.256 0.944,0.256 h 1.072 v 1.232 h -1.312 q -1.216,0 -1.824,-0.56 -0.608,-0.56 -0.608,-1.84 v -5.168 h -1.136 v -1.2 h 1.136 v -2.208 h 1.456 v 2.208 h 2.288 v 1.2 z"
         id="path1096" />
      <path
         d="m -524.60198,726.84 q 0,0.416 -0.048,0.88 h -7.008 q 0.08,1.296 0.88,2.032 0.816,0.72 1.968,0.72 0.944,0 1.568,-0.432 0.64,-0.448 0.896,-1.184 h 1.568 q -0.352,1.264 -1.408,2.064 -1.056,0.784 -2.624,0.784 -1.248,0 -2.24,-0.56 -0.976,-0.56 -1.536,-1.584 -0.56,-1.04 -0.56,-2.4 0,-1.36 0.544,-2.384 0.544,-1.024 1.52,-1.568 0.992,-0.56 2.272,-0.56 1.248,0 2.208,0.544 0.96,0.544 1.472,1.504 0.528,0.944 0.528,2.144 z m -1.504,-0.304 q 0,-0.832 -0.368,-1.424 -0.368,-0.608 -1.008,-0.912 -0.624,-0.32 -1.392,-0.32 -1.104,0 -1.888,0.704 -0.768,0.704 -0.88,1.952 z"
         id="path1098" />
      <path
         d="m -523.14597,734.536 v -0.144 q 1.648,-1.696 2.496,-3.952 0.864,-2.256 0.864,-4.736 0,-2.544 -0.912,-4.896 -0.896,-2.368 -2.688,-4.048 v -0.144 h 1.52 q 1.68,1.552 2.576,3.952 0.912,2.384 0.912,5.136 0,2.688 -0.864,5.008 -0.848,2.32 -2.384,3.824 z"
         id="path1100" />
    </g>
  </g>
</svg>
