<?xml version="1.0" encoding="UTF-8" standalone="no"?>
<svg
   xml:space="preserve"
   width="205mm"
   height="180mm"
   fill-rule="evenodd"
   stroke-linejoin="round"
   stroke-width="28.22"
   preserveAspectRatio="xMidYMid"
   version="1.2"
   viewBox="0 0 20500 18000"
   id="svg629"
   sodipodi:docname="uefi-secure-boot-mok2.svg"
   inkscape:version="1.2.2 (732a01da63, 2022-12-09)"
   xmlns:inkscape="http://www.inkscape.org/namespaces/inkscape"
   xmlns:sodipodi="http://sodipodi.sourceforge.net/DTD/sodipodi-0.dtd"
   xmlns="http://www.w3.org/2000/svg"
   xmlns:svg="http://www.w3.org/2000/svg"><sodipodi:namedview
   id="namedview631"
   pagecolor="#ffffff"
   bordercolor="#000000"
   borderopacity="0.25"
   inkscape:showpageshadow="2"
   inkscape:pageopacity="0.0"
   inkscape:pagecheckerboard="0"
   inkscape:deskcolor="#d1d1d1"
   inkscape:document-units="mm"
   showgrid="false"
   inkscape:zoom="1.1847454"
   inkscape:cx="387.42502"
   inkscape:cy="340.15748"
   inkscape:window-width="1920"
   inkscape:window-height="1009"
   inkscape:window-x="-8"
   inkscape:window-y="-8"
   inkscape:window-maximized="1"
   inkscape:current-layer="svg629" />
    <defs
   class="ClipPathGroup"
   id="defs455">
        <marker
   id="a"
   markerHeight="4.71"
   markerWidth="3.06"
   orient="auto"
   refX="1.53"
   refY="2.35">
            <path
   fill="none"
   stroke="#505050"
   stroke-linejoin="miter"
   stroke-width="1"
   d="m2.7.35-2 2 2 2"
   id="path425" />
        </marker>
        <marker
   id="b"
   markerHeight="4.71"
   markerWidth="3.06"
   orient="auto"
   refX="1.53"
   refY="2.35">
            <path
   fill="none"
   stroke="#505050"
   stroke-linejoin="miter"
   stroke-width="1"
   d="m.35.35 2 2-2 2"
   id="path428" />
        </marker>
        <marker
   id="c"
   markerHeight="4.71"
   markerWidth="3.06"
   orient="auto"
   refX="1.53"
   refY="2.35">
            <path
   fill="none"
   stroke="#505050"
   stroke-linejoin="miter"
   stroke-width="1"
   d="m.35.35 2 2-2 2"
   id="path431" />
        </marker>
        <marker
   id="d"
   markerHeight="4.71"
   markerWidth="3.06"
   orient="auto"
   refX="1.53"
   refY="2.35">
            <path
   fill="none"
   stroke="#505050"
   stroke-linejoin="miter"
   stroke-width="1"
   d="m.35.35 2 2-2 2"
   id="path434" />
        </marker>
        <marker
   id="e"
   markerHeight="4.71"
   markerWidth="3.06"
   orient="auto"
   refX="1.53"
   refY="2.35">
            <path
   fill="none"
   stroke="#505050"
   stroke-linejoin="miter"
   stroke-width="1"
   d="m.35.35 2 2-2 2"
   id="path437" />
        </marker>
        <marker
   id="f"
   markerHeight="4.71"
   markerWidth="3.06"
   orient="auto"
   refX="1.53"
   refY="2.35">
            <path
   fill="none"
   stroke="#505050"
   stroke-linejoin="miter"
   stroke-width="1"
   d="m.35.35 2 2-2 2"
   id="path440" />
        </marker>
        <marker
   id="g"
   markerHeight="4.71"
   markerWidth="3.06"
   orient="auto"
   refX="1.53"
   refY="2.35">
            <path
   fill="none"
   stroke="#505050"
   stroke-linejoin="miter"
   stroke-width="1"
   d="m.35.35 2 2-2 2"
   id="path443" />
        </marker>
        <marker
   id="h"
   markerHeight="4.71"
   markerWidth="3.06"
   orient="auto"
   refX="1.53"
   refY="2.35">
            <path
   fill="none"
   stroke="#505050"
   stroke-linejoin="miter"
   stroke-width="1"
   d="m.35.35 2 2-2 2"
   id="path446" />
        </marker>
        <marker
   id="i"
   markerHeight="4.71"
   markerWidth="3.06"
   orient="auto"
   refX="1.53"
   refY="2.35">
            <path
   fill="none"
   stroke="#505050"
   stroke-linejoin="miter"
   stroke-width="1"
   d="m.35.35 2 2-2 2"
   id="path449" />
        </marker>
        <marker
   id="j"
   markerHeight="4.71"
   markerWidth="3.06"
   orient="auto"
   refX="1.53"
   refY="2.35">
            <path
   fill="none"
   stroke="#505050"
   stroke-linejoin="miter"
   stroke-width="1"
   d="m.35.35 2 2-2 2"
   id="path452" />
        </marker>
    </defs>
    <g
   class="SlideGroup"
   id="g625">
        <g
   class="com.sun.star.drawing.TextShape"
   transform="translate(211.67 317.5)"
   id="g467">
            <rect
   width="1073"
   height="777"
   x="2478"
   y="341"
   fill="none"
   class="BoundingBox"
   id="rect457" />
            <g
   aria-label="PK"
   id="text465"
   style="font-weight:500;font-family:Poppins;-inkscape-font-specification:'Poppins Medium'"
   class="TextShape"><path
     d="m 2939.684,689.716 q 0,33.756 -23.28,56.26 -22.892,22.116 -70.228,22.116 h -51.992 V 881 h -35.308 V 610.564 h 87.3 q 45.784,0 69.452,22.116 24.056,22.116 24.056,57.036 z m -93.508,49.276 q 29.488,0 43.456,-12.804 13.968,-12.804 13.968,-36.472 0,-50.052 -57.424,-50.052 h -51.992 v 99.328 z"
     id="path839" /><path
     d="M 3130.1922,881 3018.8362,757.616 V 881 h -35.308 V 610.564 h 35.308 v 125.324 l 111.744,-125.324 h 44.62 L 3052.5922,745.976 3176.3642,881 Z"
     id="path841" /></g>
        </g>
        <g
   class="com.sun.star.drawing.TextShape"
   transform="translate(0 582.08)"
   id="g479">
            <rect
   width="1193"
   height="777"
   x="2458"
   y="4340"
   fill="none"
   class="BoundingBox"
   id="rect469" />
            <g
   aria-label="KEK"
   id="text477"
   style="font-weight:500;font-family:Poppins;-inkscape-font-specification:'Poppins Medium'"
   class="TextShape"><path
     d="M 2885.54,4880 2774.184,4756.616 V 4880 h -35.308 v -270.436 h 35.308 v 125.324 l 111.744,-125.324 h 44.62 L 2807.94,4744.976 2931.712,4880 Z"
     id="path855" /><path
     d="m 3006.5964,4638.276 v 90.404 h 98.552 v 29.1 h -98.552 v 93.12 h 110.192 v 29.1 h -145.5 v -270.824 h 145.5 v 29.1 z"
     id="path857" /><path
     d="m 3316.9965,4880 -111.356,-123.384 V 4880 h -35.308 v -270.436 h 35.308 v 125.324 l 111.744,-125.324 h 44.62 l -122.608,135.412 123.772,135.024 z"
     id="path859" /></g>
        </g>
        <g
   class="com.sun.star.drawing.TextShape"
   transform="translate(-158.75)"
   id="g491">
            <rect
   width="3369"
   height="777"
   x="282"
   y="6590"
   fill="none"
   class="BoundingBox"
   id="rect481" />
            <g
   aria-label="SUSE Public Key"
   id="text489"
   style="font-weight:500;font-family:Poppins;-inkscape-font-specification:'Poppins Medium'"
   class="TextShape"><path
     d="m 647.624,7450.216 q -26.772,0 -48.112,-9.312 -20.952,-9.7 -32.98,-26.384 -12.028,-17.072 -12.416,-39.188 h 37.636 q 1.94,19.012 15.52,32.204 13.968,12.804 40.352,12.804 25.22,0 39.576,-12.416 14.744,-12.804 14.744,-32.592 0,-15.52 -8.536,-25.22 -8.536,-9.7 -21.34,-14.744 -12.804,-5.044 -34.532,-10.864 -26.772,-6.984 -43.068,-13.968 -15.908,-6.984 -27.548,-21.728 -11.252,-15.132 -11.252,-40.352 0,-22.116 11.252,-39.188 11.252,-17.072 31.428,-26.384 20.564,-9.312 46.948,-9.312 38.024,0 62.08,19.012 24.444,19.012 27.548,50.44 h -38.8 q -1.94,-15.52 -16.296,-27.16 -14.356,-12.028 -38.024,-12.028 -22.116,0 -36.084,11.64 -13.968,11.252 -13.968,31.816 0,14.744 8.148,24.056 8.536,9.312 20.564,14.356 12.416,4.656 34.532,10.864 26.772,7.372 43.068,14.744 16.296,6.984 27.936,22.116 11.64,14.744 11.64,40.352 0,19.788 -10.476,37.248 -10.476,17.46 -31.04,28.324 -20.564,10.864 -48.5,10.864 z"
     id="path974" /><path
     d="m 824.16395,7177.064 v 171.108 q 0,36.084 17.46,53.544 17.848,17.46 49.276,17.46 31.04,0 48.5,-17.46 17.848,-17.46 17.848,-53.544 v -171.108 h 35.308 v 170.72 q 0,33.756 -13.58,57.036 -13.58,22.892 -36.86,34.144 -22.892,11.252 -51.604,11.252 -28.712,0 -51.992,-11.252 -22.892,-11.252 -36.472,-34.144 -13.192,-23.28 -13.192,-57.036 v -170.72 z"
     id="path976" /><path
     d="m 1137.2797,7450.216 q -26.772,0 -48.112,-9.312 -20.952,-9.7 -32.98,-26.384 -12.028,-17.072 -12.416,-39.188 h 37.636 q 1.94,19.012 15.52,32.204 13.968,12.804 40.352,12.804 25.22,0 39.576,-12.416 14.744,-12.804 14.744,-32.592 0,-15.52 -8.536,-25.22 -8.536,-9.7 -21.34,-14.744 -12.804,-5.044 -34.532,-10.864 -26.772,-6.984 -43.068,-13.968 -15.908,-6.984 -27.548,-21.728 -11.252,-15.132 -11.252,-40.352 0,-22.116 11.252,-39.188 11.252,-17.072 31.428,-26.384 20.564,-9.312 46.948,-9.312 38.024,0 62.08,19.012 24.444,19.012 27.548,50.44 h -38.8 q -1.94,-15.52 -16.296,-27.16 -14.356,-12.028 -38.024,-12.028 -22.116,0 -36.084,11.64 -13.968,11.252 -13.968,31.816 0,14.744 8.148,24.056 8.536,9.312 20.564,14.356 12.416,4.656 34.532,10.864 26.772,7.372 43.068,14.744 16.296,6.984 27.936,22.116 11.64,14.744 11.64,40.352 0,19.788 -10.476,37.248 -10.476,17.46 -31.04,28.324 -20.564,10.864 -48.5,10.864 z"
     id="path978" /><path
     d="m 1314.5956,7205.776 v 90.404 h 98.552 v 29.1 h -98.552 v 93.12 h 110.192 v 29.1 h -145.5 v -270.824 h 145.5 v 29.1 z"
     id="path980" /><path
     d="m 1762.7359,7256.216 q 0,33.756 -23.28,56.26 -22.892,22.116 -70.228,22.116 h -51.992 V 7447.5 h -35.308 v -270.436 h 87.3 q 45.784,0 69.452,22.116 24.056,22.116 24.056,57.036 z m -93.508,49.276 q 29.488,0 43.456,-12.804 13.968,-12.804 13.968,-36.472 0,-50.052 -57.424,-50.052 h -51.992 v 99.328 z"
     id="path982" /><path
     d="M 1995.1481,7234.876 V 7447.5 h -35.308 v -31.428 q -10.088,16.296 -28.324,25.608 -17.848,8.924 -39.576,8.924 -24.832,0 -44.62,-10.088 -19.788,-10.476 -31.428,-31.04 -11.252,-20.564 -11.252,-50.052 v -124.548 h 34.92 v 119.892 q 0,31.428 15.908,48.5 15.908,16.684 43.456,16.684 28.324,0 44.62,-17.46 16.296,-17.46 16.296,-50.828 v -116.788 z"
     id="path984" /><path
     d="m 2090.2078,7274.452 q 10.864,-19.012 31.816,-31.04 20.952,-12.028 47.724,-12.028 28.712,0 51.604,13.58 22.892,13.58 36.084,38.412 13.192,24.444 13.192,57.036 0,32.204 -13.192,57.424 -13.192,25.22 -36.472,39.188 -22.892,13.968 -51.216,13.968 -27.548,0 -48.5,-12.028 -20.564,-12.028 -31.04,-30.652 v 39.188 h -35.308 v -287.12 h 35.308 z m 144.336,65.96 q 0,-24.056 -9.7,-41.904 -9.7,-17.848 -26.384,-27.16 -16.296,-9.312 -36.084,-9.312 -19.4,0 -36.084,9.7 -16.296,9.312 -26.384,27.548 -9.7,17.848 -9.7,41.516 0,24.056 9.7,42.292 10.088,17.848 26.384,27.548 16.684,9.312 36.084,9.312 19.788,0 36.084,-9.312 16.684,-9.7 26.384,-27.548 9.7,-18.236 9.7,-42.68 z"
     id="path986" /><path
     d="m 2352.4961,7160.38 v 287.12 h -35.308 v -287.12 z"
     id="path988" /><path
     d="m 2430.8723,7200.344 q -10.088,0 -17.072,-6.984 -6.984,-6.984 -6.984,-17.072 0,-10.088 6.984,-17.072 6.984,-6.984 17.072,-6.984 9.7,0 16.296,6.984 6.984,6.984 6.984,17.072 0,10.088 -6.984,17.072 -6.596,6.984 -16.296,6.984 z m 17.072,34.532 V 7447.5 h -35.308 v -212.624 z"
     id="path990" /><path
     d="m 2494.8923,7340.8 q 0,-32.98 13.192,-57.424 13.192,-24.832 36.472,-38.412 23.668,-13.58 53.932,-13.58 39.188,0 64.408,19.012 25.608,19.012 33.756,52.768 h -38.024 q -5.432,-19.4 -21.34,-30.652 -15.52,-11.252 -38.8,-11.252 -30.264,0 -48.888,20.952 -18.624,20.564 -18.624,58.588 0,38.412 18.624,59.364 18.624,20.952 48.888,20.952 23.28,0 38.8,-10.864 15.52,-10.864 21.34,-31.04 h 38.024 q -8.536,32.592 -34.144,52.38 -25.608,19.4 -64.02,19.4 -30.264,0 -53.932,-13.58 -23.28,-13.58 -36.472,-38.412 -13.192,-24.832 -13.192,-58.2 z"
     id="path992" /><path
     d="m 2993.8606,7447.5 -111.356,-123.384 V 7447.5 h -35.308 v -270.436 h 35.308 v 125.324 l 111.744,-125.324 h 44.62 l -122.608,135.412 123.772,135.024 z"
     id="path994" /><path
     d="m 3273.6089,7333.04 q 0,10.088 -1.164,21.34 h -169.944 q 1.94,31.428 21.34,49.276 19.788,17.46 47.724,17.46 22.892,0 38.024,-10.476 15.52,-10.864 21.728,-28.712 h 38.024 q -8.536,30.652 -34.144,50.052 -25.608,19.012 -63.632,19.012 -30.264,0 -54.32,-13.58 -23.668,-13.58 -37.248,-38.412 -13.58,-25.22 -13.58,-58.2 0,-32.98 13.192,-57.812 13.192,-24.832 36.86,-38.024 24.056,-13.58 55.096,-13.58 30.264,0 53.544,13.192 23.28,13.192 35.696,36.472 12.804,22.892 12.804,51.992 z m -36.472,-7.372 q 0,-20.176 -8.924,-34.532 -8.924,-14.744 -24.444,-22.116 -15.132,-7.76 -33.756,-7.76 -26.772,0 -45.784,17.072 -18.624,17.072 -21.34,47.336 z"
     id="path996" /><path
     d="m 3503.3052,7234.876 -128.04,312.728 h -36.472 l 41.904,-102.432 -85.748,-210.296 h 39.188 l 66.736,172.272 65.96,-172.272 z"
     id="path998" /></g>
        </g>
        <g
   class="com.sun.star.drawing.TextShape"
   transform="translate(0 740.83)"
   id="g503">
            <rect
   width="1396"
   height="777"
   x="2255"
   y="9966"
   fill="none"
   class="BoundingBox"
   id="rect493" />
            <g
   aria-label="MOK"
   id="text501"
   style="font-weight:500;font-family:Poppins;-inkscape-font-specification:'Poppins Medium'"
   class="TextShape"><path
     d="M 2810.192,10237.504 V 10506 h -35.308 v -200.208 l -89.24,200.208 h -24.832 l -89.628,-200.596 V 10506 h -35.308 v -268.496 h 38.024 l 99.328,221.936 99.328,-221.936 z"
     id="path1040" /><path
     d="m 2992.552,10508.716 q -37.636,0 -68.676,-17.46 -31.04,-17.848 -49.276,-49.276 -17.848,-31.816 -17.848,-71.392 0,-39.576 17.848,-71.004 18.236,-31.816 49.276,-49.276 31.04,-17.848 68.676,-17.848 38.024,0 69.064,17.848 31.04,17.46 48.888,48.888 17.848,31.428 17.848,71.392 0,39.964 -17.848,71.392 -17.848,31.428 -48.888,49.276 -31.04,17.46 -69.064,17.46 z m 0,-30.652 q 28.324,0 50.828,-13.192 22.892,-13.192 35.696,-37.636 13.192,-24.444 13.192,-56.648 0,-32.592 -13.192,-56.648 -12.804,-24.444 -35.308,-37.636 -22.504,-13.192 -51.216,-13.192 -28.712,0 -51.216,13.192 -22.504,13.192 -35.696,37.636 -12.804,24.056 -12.804,56.648 0,32.204 12.804,56.648 13.192,24.444 35.696,37.636 22.892,13.192 51.216,13.192 z"
     id="path1042" /><path
     d="m 3321.5758,10506 -111.356,-123.384 V 10506 h -35.308 v -270.436 h 35.308 v 125.324 l 111.744,-125.324 h 44.62 l -122.608,135.412 123.772,135.024 z"
     id="path1044" /></g>
        </g>
        <g
   class="com.sun.star.drawing.TextShape"
   transform="translate(317.5 952.5)"
   id="g521">
            <rect
   width="1801"
   height="1302"
   x="18900"
   y="3965"
   fill="none"
   class="BoundingBox"
   id="rect505" />
            <g
   aria-label="Bootvar"
   id="text519"
   style="font-weight:500;font-family:Poppins;-inkscape-font-specification:'Poppins Medium'"
   class="TextShape"><path
     d="m 19315.288,4365.708 q 14.744,2.328 26.772,12.028 12.416,9.7 19.4,24.056 7.372,14.356 7.372,30.652 0,20.564 -10.476,37.248 -10.476,16.296 -30.652,25.996 -19.788,9.312 -46.948,9.312 h -100.88 v -270.436 h 97 q 27.548,0 46.948,9.312 19.4,8.924 29.1,24.444 9.7,15.52 9.7,34.92 0,24.056 -13.192,39.964 -12.804,15.52 -34.144,22.504 z m -100.104,-14.356 h 59.364 q 24.832,0 38.412,-11.64 13.58,-11.64 13.58,-32.204 0,-20.564 -13.58,-32.204 -13.58,-11.64 -39.188,-11.64 h -58.588 z m 62.468,124.548 q 26.384,0 41.128,-12.416 14.744,-12.416 14.744,-34.532 0,-22.504 -15.52,-35.308 -15.52,-13.192 -41.516,-13.192 h -61.304 v 95.448 z"
     id="path1025" /><path
     d="m 19510.452,4508.492 q -29.876,0 -54.32,-13.58 -24.056,-13.58 -38.024,-38.412 -13.58,-25.22 -13.58,-58.2 0,-32.592 13.968,-57.424 14.356,-25.22 38.8,-38.412 24.444,-13.58 54.708,-13.58 30.264,0 54.708,13.58 24.444,13.192 38.412,38.024 14.356,24.832 14.356,57.812 0,32.98 -14.744,58.2 -14.356,24.832 -39.188,38.412 -24.832,13.58 -55.096,13.58 z m 0,-31.04 q 19.012,0 35.696,-8.924 16.684,-8.924 26.772,-26.772 10.476,-17.848 10.476,-43.456 0,-25.608 -10.088,-43.456 -10.088,-17.848 -26.384,-26.384 -16.296,-8.924 -35.308,-8.924 -19.4,0 -35.696,8.924 -15.908,8.536 -25.608,26.384 -9.7,17.848 -9.7,43.456 0,25.996 9.312,43.844 9.7,17.848 25.608,26.772 15.908,8.536 34.92,8.536 z"
     id="path1027" /><path
     d="m 19758.772,4508.492 q -29.876,0 -54.32,-13.58 -24.056,-13.58 -38.024,-38.412 -13.58,-25.22 -13.58,-58.2 0,-32.592 13.968,-57.424 14.356,-25.22 38.8,-38.412 24.444,-13.58 54.708,-13.58 30.264,0 54.708,13.58 24.444,13.192 38.412,38.024 14.356,24.832 14.356,57.812 0,32.98 -14.744,58.2 -14.356,24.832 -39.188,38.412 -24.832,13.58 -55.096,13.58 z m 0,-31.04 q 19.012,0 35.696,-8.924 16.684,-8.924 26.772,-26.772 10.476,-17.848 10.476,-43.456 0,-25.608 -10.088,-43.456 -10.088,-17.848 -26.384,-26.384 -16.296,-8.924 -35.308,-8.924 -19.4,0 -35.696,8.924 -15.908,8.536 -25.608,26.384 -9.7,17.848 -9.7,43.456 0,25.996 9.312,43.844 9.7,17.848 25.608,26.772 15.908,8.536 34.92,8.536 z"
     id="path1029" /><path
     d="M 19957.428,4321.476 V 4446.8 q 0,15.52 6.596,22.116 6.596,6.208 22.892,6.208 h 25.996 V 4505 h -31.816 q -29.488,0 -44.232,-13.58 -14.744,-13.58 -14.744,-44.62 v -125.324 h -27.548 v -29.1 h 27.548 v -53.544 h 35.308 v 53.544 h 55.484 v 29.1 z"
     id="path1031" /><path
     d="m 19259.028,4997.408 65.96,-180.032 h 37.636 l -83.42,212.624 h -41.128 l -83.42,-212.624 h 38.024 z"
     id="path1033" /><path
     d="m 19384.352,4922.912 q 0,-32.592 13.192,-57.036 13.192,-24.832 36.084,-38.412 23.28,-13.58 51.604,-13.58 27.936,0 48.5,12.028 20.564,12.028 30.652,30.264 v -38.8 h 35.696 V 5030 h -35.696 v -39.576 q -10.476,18.624 -31.428,31.04 -20.564,12.028 -48.112,12.028 -28.324,0 -51.216,-13.968 -22.892,-13.968 -36.084,-39.188 -13.192,-25.22 -13.192,-57.424 z m 180.032,0.388 q 0,-24.056 -9.7,-41.904 -9.7,-17.848 -26.384,-27.16 -16.296,-9.7 -36.084,-9.7 -19.788,0 -36.084,9.312 -16.296,9.312 -25.996,27.16 -9.7,17.848 -9.7,41.904 0,24.444 9.7,42.68 9.7,17.848 25.996,27.548 16.296,9.312 36.084,9.312 19.788,0 36.084,-9.312 16.684,-9.7 26.384,-27.548 9.7,-18.236 9.7,-42.292 z"
     id="path1035" /><path
     d="m 19695.141,4851.908 q 9.312,-18.236 26.384,-28.324 17.46,-10.088 42.292,-10.088 v 36.472 h -9.312 q -59.364,0 -59.364,64.408 V 5030 h -35.308 v -212.624 h 35.308 z"
     id="path1037" /></g>
        </g>
        <g
   class="com.sun.star.drawing.TextShape"
   transform="translate(0 740.83)"
   id="g533">
            <rect
   width="1396"
   height="777"
   x="2256"
   y="14466"
   fill="none"
   class="BoundingBox"
   id="rect523" />
            <g
   aria-label="MOK"
   id="text531"
   style="font-weight:500;font-family:Poppins;-inkscape-font-specification:'Poppins Medium'"
   class="TextShape"><path
     d="M 2811.192,14737.504 V 15006 h -35.308 v -200.208 l -89.24,200.208 h -24.832 l -89.628,-200.596 V 15006 h -35.308 v -268.496 h 38.024 l 99.328,221.936 99.328,-221.936 z"
     id="path1047" /><path
     d="m 2993.552,15008.716 q -37.636,0 -68.676,-17.46 -31.04,-17.848 -49.276,-49.276 -17.848,-31.816 -17.848,-71.392 0,-39.576 17.848,-71.004 18.236,-31.816 49.276,-49.276 31.04,-17.848 68.676,-17.848 38.024,0 69.064,17.848 31.04,17.46 48.888,48.888 17.848,31.428 17.848,71.392 0,39.964 -17.848,71.392 -17.848,31.428 -48.888,49.276 -31.04,17.46 -69.064,17.46 z m 0,-30.652 q 28.324,0 50.828,-13.192 22.892,-13.192 35.696,-37.636 13.192,-24.444 13.192,-56.648 0,-32.592 -13.192,-56.648 -12.804,-24.444 -35.308,-37.636 -22.504,-13.192 -51.216,-13.192 -28.712,0 -51.216,13.192 -22.504,13.192 -35.696,37.636 -12.804,24.056 -12.804,56.648 0,32.204 12.804,56.648 13.192,24.444 35.696,37.636 22.892,13.192 51.216,13.192 z"
     id="path1049" /><path
     d="m 3322.5758,15006 -111.356,-123.384 V 15006 h -35.308 v -270.436 h 35.308 v 125.324 l 111.744,-125.324 h 44.62 l -122.608,135.412 123.772,135.024 z"
     id="path1051" /></g>
        </g>
        <rect
   width="4593.67"
   height="3175"
   x="12710.08"
   y="5556.25"
   fill="#dedfe0"
   opacity=".99"
   paint-order="stroke fill markers"
   id="rect535" />
        <g
   aria-label="MOK List"
   id="text539"
   style="font-weight:500;font-size:529.17px;line-height:1.25;font-family:Poppins;-inkscape-font-specification:'Poppins, Medium';letter-spacing:0;stroke-width:746.71"><path
     d="m 14305.77,6248.4042 v 366.1856 h -48.155 v -273.0517 l -121.709,273.0517 h -33.867 l -122.238,-273.5808 v 273.5808 h -48.155 v -366.1856 h 51.859 l 135.468,302.6852 135.467,-302.6852 z"
     style="fill:#505050"
     id="path1010" /><path
     d="m 14554.48,6618.294 q -51.33,0 -93.664,-23.8126 -42.333,-24.3418 -67.204,-67.2046 -24.342,-43.3919 -24.342,-97.3673 0,-53.9753 24.342,-96.8381 24.871,-43.3919 67.204,-67.2046 42.334,-24.3418 93.664,-24.3418 51.858,0 94.192,24.3418 42.333,23.8127 66.675,66.6754 24.342,42.8628 24.342,97.3673 0,54.5045 -24.342,97.3673 -24.342,42.8628 -66.675,67.2046 -42.334,23.8126 -94.192,23.8126 z m 0,-41.8044 q 38.629,0 69.321,-17.9918 31.221,-17.9918 48.683,-51.3295 17.992,-33.3377 17.992,-77.2588 0,-44.4503 -17.992,-77.2588 -17.462,-33.3377 -48.154,-51.3295 -30.692,-17.9918 -69.85,-17.9918 -39.159,0 -69.851,17.9918 -30.692,17.9918 -48.683,51.3295 -17.463,32.8085 -17.463,77.2588 0,43.9211 17.463,77.2588 17.991,33.3377 48.683,51.3295 31.221,17.9918 69.851,17.9918 z"
     style="fill:#505050"
     id="path1012" /><path
     d="m 15003.215,6614.5898 -151.871,-168.276 v 168.276 h -48.155 v -368.8314 h 48.155 v 170.9219 l 152.401,-170.9219 h 60.854 l -167.218,184.6803 168.806,184.1511 z"
     style="fill:#505050"
     id="path1014" /><path
     d="m 15309.605,6575.4313 h 129.118 v 39.1585 h -177.272 v -368.8314 h 48.154 z"
     style="fill:#505050"
     id="path1016" /><path
     d="m 15514.923,6277.5086 q -13.759,0 -23.284,-9.5251 -9.525,-9.5251 -9.525,-23.2835 0,-13.7584 9.525,-23.2835 9.525,-9.525 23.284,-9.525 13.229,0 22.225,9.525 9.525,9.5251 9.525,23.2835 0,13.7584 -9.525,23.2835 -8.996,9.5251 -22.225,9.5251 z m 23.283,47.0961 v 289.9851 h -48.154 v -289.9851 z"
     style="fill:#505050"
     id="path1018" /><path
     d="m 15722.887,6619.3524 q -33.338,0 -59.796,-11.1126 -26.459,-11.6417 -41.805,-31.7502 -15.346,-20.6376 -16.933,-47.0961 h 49.742 q 2.116,21.6959 20.108,35.4544 18.521,13.7584 48.155,13.7584 27.517,0 43.392,-12.1709 15.875,-12.1709 15.875,-30.6919 0,-19.0501 -16.934,-28.046 -16.933,-9.5251 -52.388,-18.5209 -32.279,-8.4668 -52.917,-16.9335 -20.108,-8.9959 -34.925,-25.9293 -14.287,-17.4626 -14.287,-45.5086 0,-22.2252 13.229,-40.7461 13.229,-18.521 37.571,-29.1044 24.342,-11.1125 55.563,-11.1125 48.154,0 77.788,24.3418 29.633,24.3418 31.75,66.6754 h -48.154 q -1.588,-22.7543 -18.521,-36.5127 -16.405,-13.7584 -44.451,-13.7584 -25.929,0 -41.275,11.1125 -15.346,11.1126 -15.346,29.1044 0,14.2876 8.996,23.8126 9.525,8.9959 23.284,14.8168 14.287,5.2917 39.158,12.1709 31.221,8.4667 50.8,16.9334 19.58,7.9376 33.338,24.3418 14.288,16.4043 14.817,42.8628 0,23.8127 -13.229,42.8628 -13.23,19.0501 -37.571,30.1627 -23.813,10.5834 -55.034,10.5834 z"
     style="fill:#505050"
     id="path1020" /><path
     d="m 15955.192,6364.2924 v 170.9219 q 0,21.1668 8.996,30.1627 8.996,8.4668 31.221,8.4668 h 35.454 v 40.746 h -43.392 q -40.216,0 -60.325,-18.5209 -20.108,-18.521 -20.108,-60.8546 v -170.9219 h -37.571 v -39.6877 h 37.571 v -73.0255 h 48.154 v 73.0255 h 75.671 v 39.6877 z"
     style="fill:#505050"
     id="path1022" /></g>
        <g
   stroke="#30ba78"
   stroke-width="4.32"
   transform="translate(11683.57 -989.12) scale(32.1597)"
   id="g545">
            <rect
   width="30"
   height="20"
   x="161.21"
   y="195.27"
   fill="#30ba78"
   class="st0"
   id="rect541" />
            <path
   fill="none"
   d="M176.21 179.14a6.2 6.2 0 0 0-6.2 6.2v9.31h12.41v-9.3a6.2 6.2 0 0 0-6.2-6.21z"
   class="st0"
   id="path543" />
        </g>
        <path
   fill="none"
   stroke="#30ba78"
   stroke-linejoin="miter"
   stroke-width="148.71"
   d="m14087.01 8027.85 141.05-110.77m-379.75-197.8 379.15 482.8 197.83-154.84m-558.42-590.21a172.08 171.17 51.86 0 1-28.34 241.06 172.08 171.17 51.86 0 1-240.9-29.62 172.08 171.17 51.86 0 1 28.34-241.06 172.08 171.17 51.86 0 1 240.9 29.62zm1225.56 570.82 141.05-110.77m-379.76-197.8 379.16 482.8 197.83-154.84m-558.42-590.21a172.08 171.17 51.86 0 1-28.34 241.06 172.08 171.17 51.86 0 1-240.9-29.62 172.08 171.17 51.86 0 1 28.34-241.06 172.08 171.17 51.86 0 1 240.9 29.62zm1225.56 570.82 141.05-110.77m-379.76-197.8 379.16 482.8 197.82-154.84m-558.41-590.21a172.08 171.17 51.86 0 1-28.34 241.06 172.08 171.17 51.86 0 1-240.9-29.62 172.08 171.17 51.86 0 1 28.34-241.06 172.08 171.17 51.86 0 1 240.9 29.62z"
   opacity=".99"
   id="path547" />
        <path
   fill="none"
   stroke="#505050"
   stroke-linejoin="miter"
   stroke-width="95.25"
   marker-end="url(#marker88387772776)"
   marker-start="url(#a)"
   d="M8995.83 7143.75h3439.59"
   id="path549" />
        <path
   fill="none"
   stroke="#505050"
   stroke-linejoin="miter"
   stroke-width="63.5"
   marker-end="url(#b)"
   d="M19314.58 5556.25h-1058.33"
   id="path551" />
        <g
   transform="translate(-2910.42)"
   id="g565">
            <rect
   width="3175"
   height="1852.08"
   x="8466.67"
   y="15610.42"
   fill="#dedfe0"
   opacity=".99"
   paint-order="stroke fill markers"
   id="rect553" />
            <g
   aria-label="Kernel"
   id="text557"
   style="font-weight:500;font-size:493.89px;line-height:1.25;font-family:Poppins;-inkscape-font-specification:'Poppins, Medium';letter-spacing:0;stroke-width:26.46"><path
     d="m 9497.5598,16716.971 -141.7464,-157.057 v 157.057 h -44.944 v -344.242 h 44.944 v 159.527 l 142.2403,-159.527 h 56.7973 l -156.0692,172.368 157.5509,171.874 z"
     style="fill:#505050"
     id="path1201" /><path
     d="m 9853.655,16571.273 q 0,12.841 -1.4817,27.164 h -216.3238 q 2.4694,40.005 27.1639,62.724 25.1884,22.225 60.7485,22.225 29.1395,0 48.4012,-13.335 19.7556,-13.829 27.6578,-36.548 h 48.4013 q -10.8656,39.018 -43.4624,63.712 -32.5967,24.201 -80.9979,24.201 -38.5234,0 -69.1446,-17.286 -30.1273,-17.287 -47.4135,-48.896 -17.2861,-32.102 -17.2861,-74.083 0,-41.981 16.7923,-73.59 16.7922,-31.609 46.9195,-48.401 30.6212,-17.286 70.1324,-17.286 38.5234,0 68.1568,16.792 29.6334,16.792 45.4379,46.426 16.2984,29.139 16.2984,66.181 z m -46.4257,-9.384 q 0,-25.682 -11.3595,-43.956 -11.3594,-18.768 -31.115,-28.152 -19.2618,-9.878 -42.9685,-9.878 -34.0784,0 -58.279,21.732 -23.7067,21.731 -27.1639,60.254 z"
     style="fill:#505050"
     id="path1203" /><path
     d="m 9957.8662,16490.275 q 11.8533,-23.213 33.5845,-36.054 22.2253,-12.841 53.8343,-12.841 v 46.426 h -11.854 q -75.5648,0 -75.5648,81.985 v 147.18 h -44.944 v -270.652 h 44.944 z"
     style="fill:#505050"
     id="path1205" /><path
     d="m 10229.011,16441.38 q 49.389,0 80.011,30.127 30.621,29.634 30.621,85.937 v 159.527 h -44.45 v -153.106 q 0,-40.499 -20.25,-61.736 -20.249,-21.732 -55.316,-21.732 -35.56,0 -56.797,22.225 -20.743,22.225 -20.743,64.7 v 149.649 h -44.944 v -270.652 h 44.944 v 38.523 q 13.335,-20.743 36.054,-32.102 23.213,-11.36 50.87,-11.36 z"
     style="fill:#505050"
     id="path1207" /><path
     d="m 10660.177,16571.273 q 0,12.841 -1.482,27.164 h -216.323 q 2.469,40.005 27.164,62.724 25.188,22.225 60.748,22.225 29.139,0 48.401,-13.335 19.756,-13.829 27.658,-36.548 h 48.401 q -10.865,39.018 -43.462,63.712 -32.597,24.201 -80.998,24.201 -38.523,0 -69.145,-17.286 -30.127,-17.287 -47.413,-48.896 -17.286,-32.102 -17.286,-74.083 0,-41.981 16.792,-73.59 16.792,-31.609 46.92,-48.401 30.621,-17.286 70.132,-17.286 38.523,0 68.157,16.792 29.633,16.792 45.438,46.426 16.298,29.139 16.298,66.181 z m -46.426,-9.384 q 0,-25.682 -11.359,-43.956 -11.36,-18.768 -31.115,-28.152 -19.262,-9.878 -42.969,-9.878 -34.078,0 -58.279,21.732 -23.706,21.731 -27.164,60.254 z"
     style="fill:#505050"
     id="path1209" /><path
     d="m 10764.388,16351.492 v 365.479 h -44.944 v -365.479 z"
     style="fill:#505050"
     id="path1211" /></g>
            <g
   stroke="#30ba78"
   stroke-width="4.32"
   transform="translate(2846.48 8951) scale(32.1597)"
   id="g563">
                <rect
   width="30"
   height="20"
   x="161.21"
   y="195.27"
   fill="#30ba78"
   class="st0"
   id="rect559" />
                <path
   fill="none"
   d="M176.21 179.14a6.2 6.2 0 0 0-6.2 6.2v9.31h12.41v-9.3a6.2 6.2 0 0 0-6.2-6.21z"
   class="st0"
   id="path561" />
            </g>
        </g>
        <g
   transform="translate(-2910.42 -4497.92)"
   id="g579">
            <rect
   width="3175"
   height="1852.08"
   x="8466.67"
   y="15610.42"
   fill="#dedfe0"
   opacity=".99"
   paint-order="stroke fill markers"
   id="rect567" />
            <g
   aria-label="GRUB2"
   id="text571"
   style="font-weight:500;font-size:493.89px;line-height:1.25;font-family:Poppins;-inkscape-font-specification:'Poppins, Medium';letter-spacing:0;stroke-width:26.46"><path
     d="m 9538.3035,16472.495 q -14.3229,-30.127 -41.4868,-46.426 -27.164,-16.792 -63.2179,-16.792 -36.054,0 -65.1935,16.792 -28.6456,16.299 -45.4379,47.414 -16.2984,30.621 -16.2984,71.12 0,40.499 16.2984,71.12 16.7923,30.621 45.4379,47.414 29.1395,16.298 65.1935,16.298 50.3768,0 82.9735,-30.127 32.5967,-30.128 38.0295,-81.492 h -137.3014 v -36.548 h 185.2088 v 34.572 q -3.9512,42.475 -26.6701,78.035 -22.7189,35.066 -59.7607,55.81 -37.0417,20.249 -82.4796,20.249 -47.9074,0 -87.4186,-22.225 -39.5112,-22.719 -62.724,-62.724 -22.7189,-40.005 -22.7189,-90.382 0,-50.377 22.7189,-90.382 23.2128,-40.499 62.724,-62.724 39.5112,-22.719 87.4186,-22.719 54.8218,0 96.8024,27.164 42.4746,27.164 61.7363,76.553 z"
     style="fill:#505050"
     id="path1054" /><path
     d="m 9843.0335,16716.971 -81.9857,-140.759 h -54.3279 v 140.759 h -44.944 v -344.242 h 111.1253 q 39.0173,0 65.6873,13.335 27.164,13.335 40.499,36.054 13.335,22.719 13.335,51.859 0,35.56 -20.7433,62.724 -20.2495,27.164 -61.2424,36.054 l 86.4307,144.216 z m -136.3136,-176.813 h 66.1813 q 36.5478,0 54.8217,-17.78 18.274,-18.274 18.274,-48.401 0,-30.621 -18.274,-47.414 -17.78,-16.792 -54.8217,-16.792 h -66.1813 z"
     style="fill:#505050"
     id="path1056" /><path
     d="m 10006.017,16372.729 v 217.806 q 0,45.932 22.225,68.157 22.719,22.225 62.724,22.225 39.511,0 61.736,-22.225 22.719,-22.225 22.719,-68.157 v -217.806 h 44.944 v 217.312 q 0,42.968 -17.286,72.602 -17.286,29.139 -46.919,43.462 -29.14,14.323 -65.688,14.323 -36.548,0 -66.181,-14.323 -29.1395,-14.323 -46.4256,-43.462 -16.7923,-29.634 -16.7923,-72.602 v -217.312 z"
     style="fill:#505050"
     id="path1058" /><path
     d="m 10467.804,16539.664 q 18.768,2.964 34.078,15.311 15.805,12.347 24.695,30.621 9.384,18.274 9.384,39.017 0,26.176 -13.335,47.414 -13.335,20.743 -39.018,33.09 -25.188,11.854 -59.76,11.854 h -128.412 v -344.242 h 123.473 q 35.066,0 59.761,11.854 24.694,11.359 37.041,31.115 12.348,19.755 12.348,44.45 0,30.621 -16.793,50.871 -16.298,19.755 -43.462,28.645 z m -127.424,-18.274 h 75.565 q 31.609,0 48.896,-14.816 17.286,-14.817 17.286,-40.993 0,-26.176 -17.286,-40.993 -17.287,-14.817 -49.883,-14.817 h -74.578 z m 79.517,158.539 q 33.584,0 52.352,-15.805 18.768,-15.804 18.768,-43.956 0,-28.645 -19.756,-44.944 -19.755,-16.792 -52.846,-16.792 h -78.035 v 121.497 z"
     style="fill:#505050"
     id="path1060" /><path
     d="m 10585.35,16680.917 q 62.724,-50.377 98.284,-82.48 35.56,-32.597 59.761,-67.663 24.695,-35.56 24.695,-69.638 0,-32.103 -15.805,-50.377 -15.311,-18.768 -49.883,-18.768 -33.584,0 -52.352,21.237 -18.274,20.744 -19.756,55.81 h -43.462 q 1.975,-55.316 33.584,-85.443 31.609,-30.127 81.492,-30.127 50.871,0 80.504,28.151 30.128,28.152 30.128,77.541 0,40.993 -24.695,80.01 -24.2,38.524 -55.316,68.157 -31.115,29.14 -79.516,68.157 h 169.898 v 37.536 h -237.561 z"
     style="fill:#505050"
     id="path1062" /></g>
            <g
   stroke="#30ba78"
   stroke-width="4.32"
   transform="translate(2846.48 8951) scale(32.1597)"
   id="g577">
                <rect
   width="30"
   height="20"
   x="161.21"
   y="195.27"
   fill="#30ba78"
   class="st0"
   id="rect573" />
                <path
   fill="none"
   d="M176.21 179.14a6.2 6.2 0 0 0-6.2 6.2v9.31h12.41v-9.3a6.2 6.2 0 0 0-6.2-6.21z"
   class="st0"
   id="path575" />
            </g>
        </g>
        <g
   transform="translate(-2910.42 -10107.08)"
   id="g593">
            <rect
   width="3175"
   height="3175"
   x="8466.67"
   y="15610.42"
   fill="#dedfe0"
   opacity=".99"
   paint-order="stroke fill markers"
   id="rect581" />
            <g
   aria-label="Shim"
   id="text585"
   style="font-weight:500;font-size:493.89px;line-height:1.25;font-family:Poppins;-inkscape-font-specification:'Poppins, Medium';letter-spacing:0;stroke-width:26.46"><path
     d="m 9573.1197,16720.428 q -34.0785,0 -61.2424,-11.853 -26.6701,-12.348 -41.9807,-33.585 -15.3105,-21.731 -15.8044,-49.883 h 47.9073 q 2.4694,24.201 19.7556,40.993 17.78,16.298 51.3646,16.298 32.1028,0 50.3767,-15.804 18.7679,-16.298 18.7679,-41.487 0,-19.755 -10.8656,-32.103 -10.8656,-12.347 -27.164,-18.768 -16.2983,-6.42 -43.9562,-13.828 -34.0784,-8.89 -54.8218,-17.78 -20.2495,-8.89 -35.0662,-27.658 -14.3228,-19.262 -14.3228,-51.365 0,-28.152 14.3228,-49.883 14.3228,-21.731 40.0051,-33.584 26.1762,-11.854 59.7607,-11.854 48.4012,0 79.0224,24.201 31.1151,24.201 35.0662,64.206 h -49.389 q -2.4694,-19.756 -20.7434,-34.573 -18.2739,-15.31 -48.4012,-15.31 -28.1517,0 -45.9318,14.816 -17.78,14.323 -17.78,40.499 0,18.768 10.3717,30.622 10.8656,11.853 26.1762,18.274 15.8044,5.926 43.9562,13.828 34.0784,9.384 54.8218,18.768 20.7433,8.89 35.56,28.152 14.8167,18.768 14.8167,51.365 0,25.188 -13.335,47.413 -13.335,22.225 -39.5112,36.054 -26.1762,13.829 -61.7362,13.829 z"
     style="fill:#505050"
     id="path1001" /><path
     d="m 9888.2214,16441.38 q 30.6212,0 55.3157,13.335 24.6945,12.841 38.5234,39.017 14.3228,26.177 14.3228,63.712 v 159.527 h -44.4501 v -153.106 q 0,-40.499 -20.2494,-61.736 -20.2495,-21.732 -55.3157,-21.732 -35.5601,0 -56.7974,22.225 -20.7434,22.225 -20.7434,64.7 v 149.649 h -44.9439 v -365.479 h 44.9439 v 133.35 q 13.3351,-20.743 36.5479,-32.102 23.7067,-11.36 52.8462,-11.36 z"
     style="fill:#505050"
     id="path1003" /><path
     d="m 10093.185,16402.363 q -12.841,0 -21.731,-8.89 -8.89,-8.89 -8.89,-21.731 0,-12.842 8.89,-21.732 8.89,-8.89 21.731,-8.89 12.348,0 20.744,8.89 8.89,8.89 8.89,21.732 0,12.841 -8.89,21.731 -8.396,8.89 -20.744,8.89 z m 21.732,43.956 v 270.652 h -44.944 v -270.652 z"
     style="fill:#505050"
     id="path1005" /><path
     d="m 10516.943,16441.38 q 31.609,0 56.304,13.335 24.694,12.841 39.017,39.017 14.323,26.177 14.323,63.712 v 159.527 h -44.45 v -153.106 q 0,-40.499 -20.25,-61.736 -19.755,-21.732 -53.834,-21.732 -35.066,0 -55.809,22.719 -20.744,22.225 -20.744,64.7 v 149.155 h -44.45 v -153.106 q 0,-40.499 -20.249,-61.736 -19.756,-21.732 -53.834,-21.732 -35.067,0 -55.81,22.719 -20.743,22.225 -20.743,64.7 v 149.155 h -44.944 v -270.652 h 44.944 v 39.017 q 13.335,-21.237 35.56,-32.596 22.719,-11.36 49.883,-11.36 34.078,0 60.254,15.311 26.176,15.31 39.018,44.944 11.359,-28.646 37.535,-44.45 26.176,-15.805 58.279,-15.805 z"
     style="fill:#505050"
     id="path1007" /></g>
            <g
   stroke="#30ba78"
   stroke-width="4.32"
   transform="translate(2846.48 8951) scale(32.1597)"
   id="g591">
                <rect
   width="30"
   height="20"
   x="161.21"
   y="195.27"
   fill="#30ba78"
   class="st0"
   id="rect587" />
                <path
   fill="none"
   d="M176.21 179.14a6.2 6.2 0 0 0-6.2 6.2v9.31h12.41v-9.3a6.2 6.2 0 0 0-6.2-6.21z"
   class="st0"
   id="path589" />
            </g>
        </g>
        <g
   transform="translate(-2910.42 -14552.08)"
   id="g607">
            <rect
   width="3175"
   height="1852.08"
   x="8466.67"
   y="15610.42"
   fill="#dedfe0"
   opacity=".99"
   paint-order="stroke fill markers"
   id="rect595" />
            <g
   aria-label="KEK db"
   id="text599"
   style="font-weight:500;font-size:493.89px;line-height:1.25;font-family:Poppins;-inkscape-font-specification:'Poppins, Medium';letter-spacing:0;stroke-width:26.46"><path
     d="m 9428.6604,16716.971 -141.7464,-157.057 v 157.057 h -44.944 v -344.242 h 44.944 v 159.527 l 142.2403,-159.527 h 56.7973 l -156.0692,172.368 157.5509,171.874 z"
     style="fill:#505050"
     id="path844" /><path
     d="m 9582.7545,16409.277 v 115.077 h 125.4481 v 37.041 h -125.4481 v 118.534 h 140.2648 v 37.042 h -185.2088 v -344.736 h 185.2088 v 37.042 z"
     style="fill:#505050"
     id="path846" /><path
     d="m 9977.8668,16716.971 -141.7464,-157.057 v 157.057 h -44.944 v -344.242 h 44.944 v 159.527 l 142.2403,-159.527 h 56.7973 l -156.0692,172.368 157.5512,171.874 z"
     style="fill:#505050"
     id="path848" /><path
     d="m 10202.093,16580.657 q 0,-41.487 16.793,-72.602 16.792,-31.609 45.931,-48.895 29.634,-17.286 66.182,-17.286 31.609,0 58.773,14.817 27.164,14.322 41.486,38.029 v -143.228 h 45.438 v 365.479 h -45.438 v -50.871 q -13.335,24.201 -39.511,40.005 -26.176,15.311 -61.242,15.311 -36.054,0 -65.688,-17.78 -29.139,-17.78 -45.931,-49.883 -16.793,-32.103 -16.793,-73.096 z m 229.165,0.494 q 0,-30.621 -12.347,-53.34 -12.347,-22.719 -33.584,-34.572 -20.744,-12.348 -45.932,-12.348 -25.189,0 -45.932,11.854 -20.743,11.853 -33.091,34.572 -12.347,22.719 -12.347,53.34 0,31.115 12.347,54.328 12.348,22.719 33.091,35.066 20.743,11.854 45.932,11.854 25.188,0 45.932,-11.854 21.237,-12.347 33.584,-35.066 12.347,-23.213 12.347,-53.834 z"
     style="fill:#505050"
     id="path850" /><path
     d="m 10597.7,16496.696 q 13.829,-24.201 40.499,-39.511 26.67,-15.311 60.748,-15.311 36.548,0 65.687,17.286 29.14,17.286 45.932,48.895 16.792,31.115 16.792,72.602 0,40.993 -16.792,73.096 -16.792,32.103 -46.425,49.883 -29.14,17.78 -65.194,17.78 -35.066,0 -61.736,-15.311 -26.176,-15.31 -39.511,-39.017 v 49.883 h -44.944 v -365.479 h 44.944 z m 183.727,83.961 q 0,-30.621 -12.348,-53.34 -12.347,-22.719 -33.584,-34.572 -20.743,-11.854 -45.932,-11.854 -24.694,0 -45.932,12.348 -20.743,11.853 -33.584,35.066 -12.347,22.719 -12.347,52.846 0,30.621 12.347,53.834 12.841,22.719 33.584,35.066 21.238,11.854 45.932,11.854 25.189,0 45.932,-11.854 21.237,-12.347 33.584,-35.066 12.348,-23.213 12.348,-54.328 z"
     style="fill:#505050"
     id="path852" /></g>
            <g
   stroke="#30ba78"
   stroke-width="4.32"
   transform="translate(2846.48 8951) scale(32.1597)"
   id="g605">
                <rect
   width="30"
   height="20"
   x="161.21"
   y="195.27"
   fill="#30ba78"
   class="st0"
   id="rect601" />
                <path
   fill="none"
   d="M176.21 179.14a6.2 6.2 0 0 0-6.2 6.2v9.31h12.41v-9.3a6.2 6.2 0 0 0-6.2-6.21z"
   class="st0"
   id="path603" />
            </g>
        </g>
        <path
   fill="none"
   stroke="#505050"
   stroke-linejoin="miter"
   stroke-width="95.25"
   marker-end="url(#c)"
   d="M7143.75 3069.17v2222.5"
   id="path609" />
        <path
   fill="none"
   stroke="#505050"
   stroke-linejoin="miter"
   stroke-width="95.25"
   marker-end="url(#d)"
   d="M7143.75 8995.83v1852.09"
   id="path611" />
        <path
   fill="none"
   stroke="#505050"
   stroke-linejoin="miter"
   stroke-width="95.25"
   marker-end="url(#e)"
   d="M7143.75 13229.17v2116.66"
   id="path613" />
        <path
   fill="none"
   stroke="#505050"
   stroke-linejoin="miter"
   stroke-width="52.92"
   marker-end="url(#f)"
   d="M3704.17 1058.33H4762.5"
   id="path615" />
        <path
   fill="none"
   stroke="#505050"
   stroke-linejoin="miter"
   stroke-width="52.92"
   marker-end="url(#g)"
   d="M3704.17 5291.67H4762.5"
   id="path617" />
        <path
   fill="none"
   stroke="#505050"
   stroke-linejoin="miter"
   stroke-width="52.92"
   marker-end="url(#h)"
   d="M3704.17 7408.33h2381.25"
   id="path619" />
        <path
   fill="none"
   stroke="#505050"
   stroke-linejoin="miter"
   stroke-width="52.92"
   marker-end="url(#i)"
   d="M3704.17 11112.5H4762.5"
   id="path621" />
        <path
   fill="none"
   stroke="#505050"
   stroke-linejoin="miter"
   stroke-width="52.92"
   marker-end="url(#j)"
   d="M3704.17 15610.42H4762.5"
   id="path623" />
    </g>
    <path
   fill="none"
   stroke="#30ba78"
   stroke-linejoin="miter"
   stroke-width="181.03"
   d="m7285.76 7848.48 165.56-142.33m-472.53-220.05 487.2 566.7 232.22-199m-711-687.63a209.48 208.37 49.31 0 1-21.44 294.69 209.48 208.37 49.31 0 1-294.58-23.01 209.48 208.37 49.31 0 1 21.45-294.7 209.48 208.37 49.31 0 1 294.57 23.02z"
   opacity=".99"
   id="path627" />
</svg>
