<?xml version="1.0" encoding="UTF-8" standalone="no"?>
<svg
   width="737.83"
   height="433.14"
   viewBox="0 0 195.22 114.6"
   version="1.1"
   id="svg7743"
   sodipodi:docname="isns_a-2.svg"
   inkscape:version="1.2.1 (9c6d41e410, 2022-07-14)"
   xmlns:inkscape="http://www.inkscape.org/namespaces/inkscape"
   xmlns:sodipodi="http://sodipodi.sourceforge.net/DTD/sodipodi-0.dtd"
   xmlns="http://www.w3.org/2000/svg"
   xmlns:svg="http://www.w3.org/2000/svg">
  <sodipodi:namedview
     id="namedview7909"
     pagecolor="#ffffff"
     bordercolor="#000000"
     borderopacity="0.25"
     inkscape:showpageshadow="2"
     inkscape:pageopacity="0.0"
     inkscape:pagecheckerboard="0"
     inkscape:deskcolor="#d1d1d1"
     showgrid="false"
     inkscape:zoom="1.8792999"
     inkscape:cx="368.75434"
     inkscape:cy="216.57001"
     inkscape:window-width="1920"
     inkscape:window-height="1017"
     inkscape:window-x="-8"
     inkscape:window-y="-8"
     inkscape:window-maximized="1"
     inkscape:current-layer="text957" />
  <defs
     id="defs7737">
    <marker
       id="DotL"
       refX="0"
       refY="0"
       orient="auto"
       overflow="visible">
      <path
         d="M3.92 0a4 4 0 1 1-8 0 4 4 0 0 1 8 0z"
         id="path965"
         fill="#0c322c"
         fill-opacity="1"
         fill-rule="evenodd"
         stroke="#0c322c"
         stroke-width=".8pt"
         stroke-opacity="1" />
    </marker>
    <marker
       markerWidth="7.12"
       markerHeight="11.41"
       refX="3.56"
       refY="5.71"
       orient="auto"
       id="marker840">
      <path
         d="m.7.7 5 5-5 5"
         id="path838"
         fill="none"
         stroke="#0c322c"
         stroke-width="2"
         stroke-linecap="butt"
         stroke-linejoin="miter"
         stroke-miterlimit="4"
         stroke-dasharray="none"
         stroke-opacity="1" />
    </marker>
    <marker
       markerWidth="3.06"
       markerHeight="4.71"
       refX="1.53"
       refY="2.35"
       orient="auto"
       id="marker868">
      <path
         d="m2.7.35-2 2 2 2"
         id="path851-3"
         fill="none"
         stroke="#000"
         stroke-width="1"
         stroke-linecap="butt"
         stroke-linejoin="miter"
         stroke-opacity="1" />
    </marker>
    <marker
       markerWidth="3.06"
       markerHeight="4.71"
       refX="1.53"
       refY="2.35"
       orient="auto"
       id="marker883">
      <path
         d="m.35.35 2 2-2 2"
         id="path851"
         fill="none"
         stroke="#000"
         stroke-width="1"
         stroke-linecap="butt"
         stroke-linejoin="miter"
         stroke-opacity="1" />
    </marker>
    <marker
       markerWidth="3.06"
       markerHeight="4.71"
       refX="1.53"
       refY="2.35"
       orient="auto"
       id="marker8684506">
      <path
         d="m2.7.35-2 2 2 2"
         id="path1208"
         fill="#0c322c"
         stroke="#000"
         stroke-width="1"
         stroke-linecap="butt"
         stroke-linejoin="miter"
         stroke-opacity="1" />
    </marker>
    <marker
       markerWidth="3.06"
       markerHeight="4.71"
       refX="1.53"
       refY="2.35"
       orient="auto"
       id="marker8839976">
      <path
         d="m.35.35 2 2-2 2"
         id="path1211"
         fill="#0c322c"
         stroke="#000"
         stroke-width="1"
         stroke-linecap="butt"
         stroke-linejoin="miter"
         stroke-opacity="1" />
    </marker>
    <marker
       markerWidth="3.06"
       markerHeight="4.71"
       refX="1.53"
       refY="2.35"
       orient="auto"
       id="marker86845062245">
      <path
         d="m2.7.35-2 2 2 2"
         id="path1299"
         fill="#fff"
         stroke="#000"
         stroke-width="1"
         stroke-linecap="butt"
         stroke-linejoin="miter"
         stroke-opacity="1" />
    </marker>
    <marker
       markerWidth="3.06"
       markerHeight="4.71"
       refX="1.53"
       refY="2.35"
       orient="auto"
       id="marker88399767239">
      <path
         d="m.35.35 2 2-2 2"
         id="path1302"
         fill="#fff"
         stroke="#000"
         stroke-width="1"
         stroke-linecap="butt"
         stroke-linejoin="miter"
         stroke-opacity="1" />
    </marker>
    <marker
       markerWidth="3.06"
       markerHeight="4.71"
       refX="1.53"
       refY="2.35"
       orient="auto"
       id="marker868450622454738">
      <path
         d="m2.7.35-2 2 2 2"
         id="path1414"
         fill="#fff"
         stroke="#0c322c"
         stroke-width="1"
         stroke-linecap="butt"
         stroke-linejoin="miter"
         stroke-opacity="1" />
    </marker>
    <marker
       markerWidth="3.06"
       markerHeight="4.71"
       refX="1.53"
       refY="2.35"
       orient="auto"
       id="marker883997672393450">
      <path
         d="m.35.35 2 2-2 2"
         id="path1417"
         fill="#fff"
         stroke="#0c322c"
         stroke-width="1"
         stroke-linecap="butt"
         stroke-linejoin="miter"
         stroke-opacity="1" />
    </marker>
    <marker
       markerWidth="3.06"
       markerHeight="4.71"
       refX="1.53"
       refY="2.35"
       orient="auto"
       id="marker8684112">
      <path
         d="m2.7.35-2 2 2 2"
         id="path2096"
         fill="#fff"
         fill-opacity="0"
         stroke="#0c322c"
         stroke-width="1"
         stroke-linecap="butt"
         stroke-linejoin="miter"
         stroke-opacity="1" />
    </marker>
    <marker
       markerWidth="3.06"
       markerHeight="4.71"
       refX="1.53"
       refY="2.35"
       orient="auto"
       id="marker8834579">
      <path
         d="m.35.35 2 2-2 2"
         id="path2099"
         fill="#fff"
         fill-opacity="0"
         stroke="#0c322c"
         stroke-width="1"
         stroke-linecap="butt"
         stroke-linejoin="miter"
         stroke-opacity="1" />
    </marker>
    <marker
       markerWidth="3.06"
       markerHeight="4.71"
       refX="1.53"
       refY="2.35"
       orient="auto"
       id="marker8836481">
      <path
         d="m.35.35 2 2-2 2"
         id="path2261"
         fill="#fff"
         fill-opacity="0"
         stroke="#0c322c"
         stroke-width="1"
         stroke-linecap="butt"
         stroke-linejoin="miter"
         stroke-opacity="1" />
    </marker>
    <marker
       markerWidth="3.06"
       markerHeight="4.71"
       refX="1.53"
       refY="2.35"
       orient="auto"
       id="marker8836481-7">
      <path
         d="m.35.35 2 2-2 2"
         id="path2261-5"
         fill="#fff"
         fill-opacity="0"
         stroke="#0c322c"
         stroke-width="1"
         stroke-linecap="butt"
         stroke-linejoin="miter"
         stroke-opacity="1" />
    </marker>
    <marker
       markerWidth="3.06"
       markerHeight="4.71"
       refX="1.53"
       refY="2.35"
       orient="auto"
       id="marker8831574">
      <path
         d="m.35.35 2 2-2 2"
         id="path1828"
         fill="none"
         stroke="#fe7c3f"
         stroke-width="1"
         stroke-linecap="butt"
         stroke-linejoin="miter"
         stroke-opacity="1" />
    </marker>
    <marker
       markerWidth="3.06"
       markerHeight="4.71"
       refX="1.53"
       refY="2.35"
       orient="auto"
       id="marker8839258">
      <path
         d="m.35.35 2 2-2 2"
         id="path1831"
         fill="none"
         stroke="#fe7c3f"
         stroke-width="1"
         stroke-linecap="butt"
         stroke-linejoin="miter"
         stroke-opacity="1" />
    </marker>
    <marker
       markerWidth="3.06"
       markerHeight="4.71"
       refX="1.53"
       refY="2.35"
       orient="auto"
       id="marker8836999">
      <path
         d="m.35.35 2 2-2 2"
         id="path1834"
         fill="none"
         stroke="#fe7c3f"
         stroke-width="1"
         stroke-linecap="butt"
         stroke-linejoin="miter"
         stroke-opacity="1" />
    </marker>
    <marker
       markerWidth="3.06"
       markerHeight="4.71"
       refX="1.53"
       refY="2.35"
       orient="auto"
       id="marker8836252">
      <path
         d="m.35.35 2 2-2 2"
         id="path2077"
         fill="none"
         stroke="#30ba78"
         stroke-width="1"
         stroke-linecap="butt"
         stroke-linejoin="miter"
         stroke-opacity="1" />
    </marker>
    <marker
       markerWidth="3.06"
       markerHeight="4.71"
       refX="1.53"
       refY="2.35"
       orient="auto"
       id="marker8838541">
      <path
         d="m.35.35 2 2-2 2"
         id="path2080"
         fill="none"
         stroke="#30ba78"
         stroke-width="1"
         stroke-linecap="butt"
         stroke-linejoin="miter"
         stroke-opacity="1" />
    </marker>
    <marker
       markerWidth="3.06"
       markerHeight="4.71"
       refX="1.53"
       refY="2.35"
       orient="auto"
       id="marker883688">
      <path
         d="m.35.35 2 2-2 2"
         id="path2083"
         fill="none"
         stroke="#30ba78"
         stroke-width="1"
         stroke-linecap="butt"
         stroke-linejoin="miter"
         stroke-opacity="1" />
    </marker>
    <marker
       markerWidth="3.06"
       markerHeight="4.71"
       refX="1.53"
       refY="2.35"
       orient="auto"
       id="marker8839906">
      <path
         d="m.35.35 2 2-2 2"
         id="path2086"
         fill="none"
         stroke="#30ba78"
         stroke-width="1"
         stroke-linecap="butt"
         stroke-linejoin="miter"
         stroke-opacity="1" />
    </marker>
    <marker
       markerWidth="3.06"
       markerHeight="4.71"
       refX="1.53"
       refY="2.35"
       orient="auto"
       id="marker8835795">
      <path
         d="m.35.35 2 2-2 2"
         id="path2089"
         fill="none"
         stroke="#30ba78"
         stroke-width="1"
         stroke-linecap="butt"
         stroke-linejoin="miter"
         stroke-opacity="1" />
    </marker>
    <marker
       markerWidth="3.06"
       markerHeight="4.71"
       refX="1.53"
       refY="2.35"
       orient="auto"
       id="marker8831574-0">
      <path
         d="m.35.35 2 2-2 2"
         id="path1828-2"
         fill="none"
         stroke="#fe7c3f"
         stroke-width="1"
         stroke-linecap="butt"
         stroke-linejoin="miter"
         stroke-opacity="1" />
    </marker>
  </defs>
  <g
     id="layer1"
     transform="translate(-8.5 -27.8)">
    <g
       id="g1600"
       transform="translate(97.5 72.98) scale(.48106)"
       fill="#0c322c">
      <g
         id="g7898"
         transform="translate(-306.68 76.85) scale(2.52695)">
        <g
           id="g7960"
           transform="translate(0 -21.48)"
           stroke-width=".65"
           stroke-miterlimit="4"
           stroke-dasharray="none">
          <path
             id="rect2335"
             style="fill:#ffffff;stroke-linecap:square;paint-order:fill markers stroke;stop-color:#000000"
             d="m 50.32,27.110001 h 16.5 v 16.5 h -16.5 z" />
          <path
             d="M50.87 27.66v15.95Z"
             id="path939"
             fill="#fff"
             fill-opacity="1"
             stroke="#2453ff"
             stroke-width=".65"
             stroke-linecap="round"
             stroke-linejoin="round"
             stroke-miterlimit="4"
             stroke-dasharray="none"
             stroke-opacity="1" />
          <path
             d="m66.27 27.11-.02 16.5Z"
             id="path937"
             fill="#2453ff"
             fill-opacity="1"
             stroke="#2453ff"
             stroke-width=".65"
             stroke-linecap="round"
             stroke-linejoin="round"
             stroke-miterlimit="4"
             stroke-dasharray="none"
             stroke-opacity="1" />
          <path
             d="M58.57 24.91c-4.25 0-7.7 1.1-7.7 2.48 0 1.36 3.45 2.47 7.7 2.47s7.7-1.1 7.7-2.47-3.45-2.48-7.7-2.48z"
             id="path2144"
             fill="#fff"
             fill-opacity="1"
             stroke="#2453ff"
             stroke-width=".65"
             stroke-linecap="round"
             stroke-linejoin="miter"
             stroke-miterlimit="4"
             stroke-dasharray="none"
             stroke-opacity="1" />
          <path
             d="M50.87 43.61c3.3 2.75 11.55 2.75 15.4 0"
             id="path2153"
             fill="#fff"
             fill-opacity="1"
             stroke="#2453ff"
             stroke-width=".65"
             stroke-linecap="round"
             stroke-linejoin="miter"
             stroke-miterlimit="4"
             stroke-dasharray="none"
             stroke-opacity="1" />
        </g>
        <g
           id="g7946"
           transform="translate(16.17 -20.2)"
           stroke-width=".65"
           stroke-miterlimit="4"
           stroke-dasharray="none">
          <g
             id="g7953"
             transform="translate(-38.15 -5.64)"
             stroke-width=".65"
             stroke-miterlimit="4"
             stroke-dasharray="none">
            <path
               id="rect2335-2"
               style="fill:#ffffff;stroke-linecap:square;paint-order:fill markers stroke;stop-color:#000000"
               d="m 117.79,31.459999 h 16.5 v 16.5 h -16.5 z" />
            <path
               d="M118.34 32.01v15.95Z"
               id="path939-0"
               fill="#fff"
               fill-opacity="1"
               stroke="#2453ff"
               stroke-width=".65"
               stroke-linecap="round"
               stroke-linejoin="round"
               stroke-miterlimit="4"
               stroke-dasharray="none"
               stroke-opacity="1" />
            <path
               d="m133.74 31.46-.02 16.5z"
               id="path937-6"
               fill="#2453ff"
               fill-opacity="1"
               stroke="#2453ff"
               stroke-width=".65"
               stroke-linecap="round"
               stroke-linejoin="round"
               stroke-miterlimit="4"
               stroke-dasharray="none"
               stroke-opacity="1" />
            <path
               d="M126.04 29.26c-4.25 0-7.7 1.11-7.7 2.48 0 1.36 3.45 2.47 7.7 2.47 4.26 0 7.7-1.1 7.7-2.47s-3.44-2.48-7.7-2.48z"
               id="path2144-1"
               fill="#fff"
               fill-opacity="1"
               stroke="#2453ff"
               stroke-width=".65"
               stroke-linecap="round"
               stroke-linejoin="miter"
               stroke-miterlimit="4"
               stroke-dasharray="none"
               stroke-opacity="1" />
            <path
               d="M118.34 47.96c3.3 2.75 11.55 2.75 15.4 0"
               id="path2153-5"
               fill="#fff"
               fill-opacity="1"
               stroke="#2453ff"
               stroke-width=".65"
               stroke-linecap="round"
               stroke-linejoin="miter"
               stroke-miterlimit="4"
               stroke-dasharray="none"
               stroke-opacity="1" />
          </g>
        </g>
        <g
           id="g7967"
           transform="translate(-18.6 -28.01)"
           stroke-width=".65"
           stroke-miterlimit="4"
           stroke-dasharray="none">
          <path
             id="rect2335-5"
             style="fill:#ffffff;stroke-linecap:square;paint-order:fill markers stroke;stop-color:#000000"
             d="m 137.38,33.639999 h 16.5 v 16.5 h -16.5 z" />
          <path
             d="M137.93 34.19v15.95Z"
             id="path939-4"
             fill="#fff"
             fill-opacity="1"
             stroke="#2453ff"
             stroke-width=".65"
             stroke-linecap="round"
             stroke-linejoin="round"
             stroke-miterlimit="4"
             stroke-dasharray="none"
             stroke-opacity="1" />
          <path
             d="m153.33 33.64-.02 16.5z"
             id="path937-7"
             fill="#2453ff"
             fill-opacity="1"
             stroke="#2453ff"
             stroke-width=".65"
             stroke-linecap="round"
             stroke-linejoin="round"
             stroke-miterlimit="4"
             stroke-dasharray="none"
             stroke-opacity="1" />
          <path
             d="M145.63 31.44c-4.25 0-7.7 1.1-7.7 2.47s3.45 2.48 7.7 2.48 7.7-1.1 7.7-2.48c0-1.36-3.45-2.47-7.7-2.47z"
             id="path2144-6"
             fill="#fff"
             fill-opacity="1"
             stroke="#2453ff"
             stroke-width=".65"
             stroke-linecap="round"
             stroke-linejoin="miter"
             stroke-miterlimit="4"
             stroke-dasharray="none"
             stroke-opacity="1" />
          <path
             d="M137.93 50.14c3.3 2.75 11.55 2.75 15.4 0"
             id="path2153-56"
             fill="#fff"
             fill-opacity="1"
             stroke="#2453ff"
             stroke-width=".65"
             stroke-linecap="round"
             stroke-linejoin="miter"
             stroke-miterlimit="4"
             stroke-dasharray="none"
             stroke-opacity="1" />
        </g>
        <path
           id="rect7969"
           style="opacity:1;fill:none;stroke:#bfcbfb;stroke-width:0.65;stroke-linecap:square;paint-order:stroke fill markers;stop-color:#000000"
           d="M 69.339996,6.1900001 H 91.109997 V 21.43 H 69.339996 Z" />
        <path
           id="rect7969-9"
           style="opacity:1;fill:none;stroke:#bfcbfb;stroke-width:0.65;stroke-linecap:square;paint-order:stroke fill markers;stop-color:#000000"
           d="m 139.10001,6.1900001 h 21.77 V 21.43 h -21.77 z" />
        <path
           d="M182.29-64.33h23.94v13.06c-13.06 0-13.06 8.7-23.94 6.53v-19.59"
           id="path862"
           fill="#fff"
           stroke="#bb5318"
           stroke-width=".65"
           stroke-linecap="square"
           stroke-linejoin="miter"
           stroke-miterlimit="4"
           stroke-dasharray="none"
           stroke-opacity="1" />
        <path
           d="M180.11-62.15h23.94v13.06c-13.05 0-13.05 8.7-23.94 6.53v-19.6"
           id="path862-3"
           fill="#fff"
           stroke="#e6644b"
           stroke-width=".65"
           stroke-linecap="square"
           stroke-linejoin="miter"
           stroke-miterlimit="4"
           stroke-dasharray="none"
           stroke-opacity="1" />
        <path
           d="M177.94-59.98h23.94v13.06c-13.06 0-13.06 8.7-23.94 6.53v-19.59"
           id="path862-6"
           fill="#fff"
           stroke="#fe7c3f"
           stroke-width=".65"
           stroke-linecap="square"
           stroke-linejoin="miter"
           stroke-miterlimit="4"
           stroke-dasharray="none"
           stroke-opacity="1" />
        <path
           d="M102.1-64.33h23.94v13.06c-13.06 0-13.06 8.7-23.94 6.53v-19.59"
           id="path862-7"
           fill="#fff"
           stroke="#257912"
           stroke-width=".65"
           stroke-linecap="square"
           stroke-linejoin="miter"
           stroke-miterlimit="4"
           stroke-dasharray="none"
           stroke-opacity="1" />
        <path
           d="M99.92-62.15h23.95v13.06c-13.06 0-13.06 8.7-23.95 6.53v-19.6"
           id="path862-7-5"
           fill="#fff"
           stroke="#30ba78"
           stroke-width=".65"
           stroke-linecap="square"
           stroke-linejoin="miter"
           stroke-miterlimit="4"
           stroke-dasharray="none"
           stroke-opacity="1" />
        <path
           d="M97.75-59.97h23.94v13.05c-13.06 0-13.06 8.71-23.94 6.53v-19.58"
           id="path862-7-3"
           fill="#fff"
           stroke="#c7f1e3"
           stroke-width=".65"
           stroke-linecap="square"
           stroke-linejoin="miter"
           stroke-miterlimit="4"
           stroke-dasharray="none"
           stroke-opacity="1" />
        <g
           aria-label="目標"
           id="text953"
           style="font-size:2.61px;line-height:1.25;font-family:'Noto Sans CJK TC';-inkscape-font-specification:'Noto Sans CJK TC, Normal';letter-spacing:0;stroke-width:0.22">
          <path
             d="m 56.571998,14.2773 v -0.42804 h 1.36503 v 0.42804 z m 1.36503,-1.04139 v 0.42804 h -1.36503 v -0.42804 z m 0,-0.60813 v 0.42282 h -1.36503 v -0.42282 z m -1.55556,-0.18792 v 2.20545 h 0.19053 v -0.17748 h 1.36503 v 0.17748 h 0.20097 v -2.20545 z"
             id="path21956" />
          <path
             d="m 60.398258,12.73218 h -0.2349 v -0.17487 h 0.2349 z m 0.40194,0.14877 v 0.31059 h -0.25578 v -0.31059 z m -0.63684,0 h 0.2349 v 0.31059 h -0.2349 z m -0.38106,0 h 0.23229 v 0.31059 h -0.23229 z m 0.23229,-0.14877 h -0.39411 v 0.60813 h 1.35198 v -0.60813 h -0.42804 v -0.17487 h 0.47241 V 12.3981 h -1.45638 v 0.15921 h 0.45414 z m 0.8352,0.90045 v -0.15399 h -1.11708 v 0.15399 z m -1.27107,-0.07308 c -0.04176,-0.07308 -0.24012,-0.38106 -0.30537,-0.46719 v -0.13311 h 0.2871 v -0.1827 h -0.2871 v -0.50112 h -0.17748 v 0.50112 h -0.3654 v 0.1827 h 0.33669 c -0.0783,0.34452 -0.24273,0.7569 -0.40455,0.97092 0.03393,0.04698 0.08352,0.1305 0.1044,0.18792 0.12267,-0.1827 0.24012,-0.47502 0.32886,-0.77517 v 1.31544 h 0.17748 v -1.3311 c 0.07047,0.1305 0.15399,0.2871 0.18792,0.37062 z m 0.24795,0.50112 c -0.08352,0.1566 -0.21663,0.31581 -0.36018,0.42282 0.04698,0.02349 0.11745,0.07308 0.15138,0.10179 0.13572,-0.11745 0.28449,-0.29754 0.38106,-0.47502 z m 1.2006,-0.08874 v -0.15921 h -1.4616 v 0.15921 h 0.62379 v 0.68643 h 0.17487 v -0.68643 z m -0.47763,0.16704 c 0.13311,0.13311 0.27666,0.31581 0.34452,0.43848 l 0.15138,-0.09135 c -0.07047,-0.12006 -0.21924,-0.29493 -0.35496,-0.42804 z"
             id="path21958" />
        </g>
        <g
           aria-label="啟動器"
           id="text957"
           style="font-size:2.61px;line-height:1.25;font-family:'Noto Sans CJK TC';-inkscape-font-specification:'Noto Sans CJK TC, Normal';letter-spacing:0;stroke-width:0.22">
          <path
             d="m 77.760082,14.08046 h -0.85869 c 0.0078,-0.08091 0.01566,-0.16182 0.01827,-0.23751 h 0.83259 l -0.02088,0.03132 c 0.04437,0.02871 0.12006,0.09918 0.14877,0.13572 0.05742,-0.08613 0.10701,-0.18009 0.15138,-0.2871 0.06003,0.261 0.13572,0.50112 0.2349,0.71253 -0.1305,0.2088 -0.29754,0.37584 -0.50634,0.48546 z m -0.69426,0.56637 v -0.40716 h 0.51939 v 0.40716 z m 0.51678,-1.28412 v 0.31842 h -0.65772 c 0.0026,-0.04698 0.0026,-0.08874 0.0026,-0.1305 v -0.18792 z m 1.02051,0.03654 c -0.04698,0.3132 -0.12267,0.59508 -0.22968,0.8352 -0.10701,-0.24012 -0.1827,-0.51678 -0.23751,-0.80649 l 0.0078,-0.02871 z m 0.31059,0 v -0.18009 h -0.72297 c 0.03393,-0.15138 0.06264,-0.31059 0.08613,-0.47241 l -0.19314,-0.02871 c -0.0522,0.43326 -0.14877,0.84564 -0.32625,1.11708 V 13.2035 h -0.82998 v -0.15921 c 0.30015,-0.03393 0.63162,-0.08613 0.86652,-0.16182 l -0.14877,-0.14094 c -0.2088,0.07047 -0.57942,0.13311 -0.89784,0.16704 v 0.64206 c 0,0.38106 -0.02349,0.90828 -0.24534,1.28934 0.04176,0.02088 0.11745,0.0783 0.14877,0.11484 0.14094,-0.2349 0.21141,-0.53766 0.24534,-0.82737 v 0.84564 h 0.16965 v -0.16443 h 0.51939 v 0.11745 h 0.16182 l -0.0261,0.01305 c 0.04959,0.04176 0.10962,0.10962 0.14094,0.15921 0.2088,-0.10701 0.37323,-0.26883 0.50634,-0.4698 0.11223,0.19575 0.25056,0.35496 0.41499,0.4698 0.03393,-0.0522 0.09657,-0.1305 0.14355,-0.16704 -0.18009,-0.10962 -0.32886,-0.28188 -0.44892,-0.49068 0.14877,-0.28971 0.24273,-0.64728 0.29754,-1.04139 z"
             id="path21949" />
          <path
             d="m 79.380892,14.11439 v -0.19053 h 0.32886 v 0.19053 z m 0,-0.50634 h 0.32886 v 0.18792 h -0.32886 z m 0.84564,0 v 0.18792 h -0.34191 v -0.18792 z m 0,0.50634 h -0.34191 v -0.19053 h 0.34191 z m 0.68643,-0.79344 c 0.0052,-0.1827 0.0052,-0.37584 0.0052,-0.57159 h -0.1827 c 0,0.19836 0,0.38889 -0.0052,0.57159 h -0.31059 v 0.1827 h 0.30537 c -0.02349,0.49068 -0.09135,0.91089 -0.31842,1.21887 v -0.01305 c -0.17487,0.02088 -0.35235,0.03915 -0.522,0.05481 v -0.20619 h 0.51156 v -0.14877 h -0.51156 v -0.15921 h 0.50634 v -0.77517 h -0.50634 v -0.16443 h 0.55332 v -0.15138 h -0.55332 V 12.9686 c 0.19053,-0.02088 0.36801,-0.04437 0.50895,-0.07569 l -0.09657,-0.14877 c -0.26883,0.06003 -0.73863,0.10701 -1.12491,0.12789 0.02088,0.03915 0.03915,0.10179 0.04698,0.14355 0.15399,-0.0052 0.32364,-0.01566 0.49068,-0.02871 v 0.17226 h -0.56376 v 0.15138 h 0.56376 v 0.16443 h -0.48807 v 0.77517 h 0.48807 v 0.15921 h -0.49329 v 0.14877 h 0.49329 v 0.22446 c -0.21402,0.02088 -0.40977,0.03915 -0.56637,0.0522 l 0.02871,0.16965 c 0.29232,-0.03132 0.69687,-0.07569 1.09359,-0.12267 -0.03654,0.03132 -0.07308,0.06264 -0.11484,0.09135 0.04698,0.03132 0.11484,0.09657 0.14355,0.13833 0.45936,-0.34452 0.57942,-0.9135 0.61074,-1.60776 h 0.37323 c -0.0261,0.94743 -0.05742,1.29195 -0.11745,1.36764 -0.0261,0.03393 -0.04959,0.04176 -0.09396,0.04176 -0.04959,0 -0.16443,-0.0026 -0.28971,-0.01305 0.02871,0.04959 0.04959,0.1305 0.05481,0.1827 0.12006,0.0078 0.24273,0.01044 0.31581,0 0.0783,-0.0078 0.1305,-0.02871 0.17487,-0.09657 0.08874,-0.10962 0.112229,-0.47241 0.140939,-1.566 0,-0.0261 0.0026,-0.09918 0.0026,-0.09918 z"
             id="path21951" />
          <path
             d="m 83.726541,13.36793 h -0.48285 v -0.36801 h 0.48285 z m 0.18792,-0.53505 h -0.85086 v 0.70209 h 0.85086 z m -0.68121,2.02014 v -0.38367 h 0.46197 v 0.38367 z m -0.60813,0 h -0.43326 v -0.38367 h 0.43326 z m -0.0261,-1.48509 h -0.46197 v -0.36801 h 0.46197 z m 1.50597,0.60291 v -0.17226 h -0.45153 l 0.06264,-0.06525 c -0.08613,-0.06786 -0.25056,-0.14877 -0.38367,-0.19314 l -0.10179,0.10179 c 0.1044,0.03915 0.22446,0.09918 0.31059,0.1566 h -0.72819 c 0.06003,-0.08352 0.11223,-0.16965 0.1566,-0.25578 l -0.18531,-0.03654 v -0.67338 h -0.82215 v 0.70209 h 0.79344 c -0.04176,0.08613 -0.09918,0.17748 -0.17487,0.26361 h -0.80388 v 0.17226 h 0.63684 c -0.17487,0.15138 -0.40194,0.28971 -0.68382,0.39411 0.03654,0.03132 0.08874,0.10179 0.1044,0.14616 0.06264,-0.02349 0.12006,-0.04959 0.17748,-0.07569 v 0.66294 h 0.18009 v -0.07569 h 0.43326 v 0.06264 h 0.18531 V 14.2997 h -0.55071 c 0.16182,-0.09918 0.29754,-0.21141 0.40977,-0.32886 h 0.48807 c 0.11745,0.12267 0.26883,0.23751 0.43587,0.32886 h -0.54027 v 0.79866 h 0.18009 v -0.07569 h 0.46197 v 0.06264 h 0.18792 v -0.6525 c 0.04959,0.01827 0.09918,0.03393 0.14877,0.04959 0.0261,-0.04698 0.0783,-0.11745 0.12267,-0.15399 -0.27405,-0.06786 -0.55854,-0.19836 -0.75429,-0.35757 z"
             id="path21953" />
        </g>
        <g
           aria-label="目標"
           id="text953-1"
           style="font-size:2.61px;line-height:1.25;font-family:'Noto Sans CJK TC';-inkscape-font-specification:'Noto Sans CJK TC, Normal';letter-spacing:0;stroke-width:0.22">
          <path
             d="m 102.27198,14.2773 v -0.42804 h 1.36503 v 0.42804 z m 1.36503,-1.04139 v 0.42804 h -1.36503 v -0.42804 z m 0,-0.60813 v 0.42282 h -1.36503 v -0.42282 z m -1.55556,-0.18792 v 2.20545 h 0.19053 v -0.17748 h 1.36503 v 0.17748 h 0.20097 v -2.20545 z"
             id="path21944" />
          <path
             d="m 106.09824,12.73218 h -0.2349 v -0.17487 h 0.2349 z m 0.40194,0.14877 v 0.31059 h -0.25578 v -0.31059 z m -0.63684,0 h 0.2349 v 0.31059 h -0.2349 z m -0.38106,0 h 0.23229 v 0.31059 h -0.23229 z m 0.23229,-0.14877 h -0.39411 v 0.60813 h 1.35198 v -0.60813 h -0.42804 v -0.17487 h 0.47241 V 12.3981 h -1.45638 v 0.15921 h 0.45414 z m 0.8352,0.90045 v -0.15399 h -1.11708 v 0.15399 z m -1.27107,-0.07308 c -0.0418,-0.07308 -0.24012,-0.38106 -0.30537,-0.46719 v -0.13311 h 0.2871 v -0.1827 h -0.2871 v -0.50112 h -0.17748 v 0.50112 h -0.3654 v 0.1827 h 0.33669 c -0.0783,0.34452 -0.24273,0.7569 -0.40455,0.97092 0.0339,0.04698 0.0835,0.1305 0.1044,0.18792 0.12267,-0.1827 0.24012,-0.47502 0.32886,-0.77517 v 1.31544 h 0.17748 v -1.3311 c 0.0705,0.1305 0.15399,0.2871 0.18792,0.37062 z m 0.24795,0.50112 c -0.0835,0.1566 -0.21663,0.31581 -0.36018,0.42282 0.047,0.02349 0.11745,0.07308 0.15138,0.10179 0.13572,-0.11745 0.28449,-0.29754 0.38106,-0.47502 z m 1.2006,-0.08874 v -0.15921 h -1.4616 v 0.15921 h 0.62379 v 0.68643 h 0.17487 v -0.68643 z m -0.47763,0.16704 c 0.13311,0.13311 0.27666,0.31581 0.34452,0.43848 l 0.15138,-0.09135 c -0.0705,-0.12006 -0.21924,-0.29493 -0.35496,-0.42804 z"
             id="path21946" />
        </g>
        <g
           aria-label="目標"
           id="text953-7"
           style="font-size:2.61px;line-height:1.25;font-family:'Noto Sans CJK TC';-inkscape-font-specification:'Noto Sans CJK TC, Normal';letter-spacing:0;stroke-width:0.22">
          <path
             d="m 124.91198,14.2773 v -0.42804 h 1.36503 v 0.42804 z m 1.36503,-1.04139 v 0.42804 h -1.36503 v -0.42804 z m 0,-0.60813 v 0.42282 h -1.36503 v -0.42282 z m -1.55556,-0.18792 v 2.20545 h 0.19053 v -0.17748 h 1.36503 v 0.17748 h 0.20097 v -2.20545 z"
             id="path21939" />
          <path
             d="m 128.73824,12.73218 h -0.2349 v -0.17487 h 0.2349 z m 0.40194,0.14877 v 0.31059 h -0.25578 v -0.31059 z m -0.63684,0 h 0.2349 v 0.31059 h -0.2349 z m -0.38106,0 h 0.23229 v 0.31059 h -0.23229 z m 0.23229,-0.14877 h -0.39411 v 0.60813 h 1.35198 v -0.60813 h -0.42804 v -0.17487 h 0.47241 V 12.3981 h -1.45638 v 0.15921 h 0.45414 z m 0.8352,0.90045 v -0.15399 h -1.11708 v 0.15399 z m -1.27107,-0.07308 c -0.0418,-0.07308 -0.24012,-0.38106 -0.30537,-0.46719 v -0.13311 h 0.2871 v -0.1827 h -0.2871 v -0.50112 h -0.17748 v 0.50112 h -0.3654 v 0.1827 h 0.33669 c -0.0783,0.34452 -0.24273,0.7569 -0.40455,0.97092 0.0339,0.04698 0.0835,0.1305 0.1044,0.18792 0.12267,-0.1827 0.24012,-0.47502 0.32886,-0.77517 v 1.31544 h 0.17748 v -1.3311 c 0.0705,0.1305 0.15399,0.2871 0.18792,0.37062 z m 0.24795,0.50112 c -0.0835,0.1566 -0.21663,0.31581 -0.36018,0.42282 0.047,0.02349 0.11745,0.07308 0.15138,0.10179 0.13572,-0.11745 0.28449,-0.29754 0.38106,-0.47502 z m 1.2006,-0.08874 v -0.15921 h -1.4616 v 0.15921 h 0.62379 v 0.68643 h 0.17487 v -0.68643 z m -0.47763,0.16704 c 0.13311,0.13311 0.27666,0.31581 0.34452,0.43848 l 0.15138,-0.09135 c -0.0705,-0.12006 -0.21924,-0.29493 -0.35496,-0.42804 z"
             id="path21941" />
        </g>
        <g
           aria-label="啟動器"
           id="text957-9"
           style="font-size:2.61px;line-height:1.25;font-family:'Noto Sans CJK TC';-inkscape-font-specification:'Noto Sans CJK TC, Normal';letter-spacing:0;stroke-width:0.22">
          <path
             d="m 147.84542,14.08046 h -0.85869 c 0.008,-0.08091 0.0157,-0.16182 0.0183,-0.23751 h 0.83259 l -0.0209,0.03132 c 0.0444,0.02871 0.12006,0.09918 0.14877,0.13572 0.0574,-0.08613 0.10701,-0.18009 0.15138,-0.2871 0.06,0.261 0.13572,0.50112 0.2349,0.71253 -0.1305,0.2088 -0.29754,0.37584 -0.50634,0.48546 z m -0.69426,0.56637 v -0.40716 h 0.51939 v 0.40716 z m 0.51678,-1.28412 v 0.31842 h -0.65772 c 0.003,-0.04698 0.003,-0.08874 0.003,-0.1305 v -0.18792 z m 1.02051,0.03654 c -0.047,0.3132 -0.12267,0.59508 -0.22968,0.8352 -0.10701,-0.24012 -0.1827,-0.51678 -0.23751,-0.80649 l 0.008,-0.02871 z m 0.31059,0 v -0.18009 h -0.72297 c 0.0339,-0.15138 0.0626,-0.31059 0.0861,-0.47241 l -0.19314,-0.02871 c -0.0522,0.43326 -0.14877,0.84564 -0.32625,1.11708 V 13.2035 h -0.82998 v -0.15921 c 0.30015,-0.03393 0.63162,-0.08613 0.86652,-0.16182 l -0.14877,-0.14094 c -0.2088,0.07047 -0.57942,0.13311 -0.89784,0.16704 v 0.64206 c 0,0.38106 -0.0235,0.90828 -0.24534,1.28934 0.0418,0.02088 0.11745,0.0783 0.14877,0.11484 0.14094,-0.2349 0.21141,-0.53766 0.24534,-0.82737 v 0.84564 h 0.16965 v -0.16443 h 0.51939 v 0.11745 h 0.16182 l -0.0261,0.01305 c 0.0496,0.04176 0.10962,0.10962 0.14094,0.15921 0.2088,-0.10701 0.37323,-0.26883 0.50634,-0.4698 0.11223,0.19575 0.25056,0.35496 0.41499,0.4698 0.0339,-0.0522 0.0966,-0.1305 0.14355,-0.16704 -0.18009,-0.10962 -0.32886,-0.28188 -0.44892,-0.49068 0.14877,-0.28971 0.24273,-0.64728 0.29754,-1.04139 z"
             id="path21932" />
          <path
             d="m 149.46623,14.11439 v -0.19053 h 0.32886 v 0.19053 z m 0,-0.50634 h 0.32886 v 0.18792 h -0.32886 z m 0.84564,0 v 0.18792 h -0.34191 v -0.18792 z m 0,0.50634 h -0.34191 v -0.19053 h 0.34191 z m 0.68643,-0.79344 c 0.005,-0.1827 0.005,-0.37584 0.005,-0.57159 h -0.1827 c 0,0.19836 0,0.38889 -0.005,0.57159 h -0.31059 v 0.1827 h 0.30537 c -0.0235,0.49068 -0.0914,0.91089 -0.31842,1.21887 v -0.01305 c -0.17487,0.02088 -0.35235,0.03915 -0.522,0.05481 v -0.20619 h 0.51156 v -0.14877 h -0.51156 v -0.15921 h 0.50634 v -0.77517 h -0.50634 v -0.16443 h 0.55332 v -0.15138 h -0.55332 V 12.9686 c 0.19053,-0.02088 0.36801,-0.04437 0.50895,-0.07569 l -0.0966,-0.14877 c -0.26883,0.06003 -0.73863,0.10701 -1.12491,0.12789 0.0209,0.03915 0.0392,0.10179 0.047,0.14355 0.15399,-0.0052 0.32364,-0.01566 0.49068,-0.02871 v 0.17226 h -0.56376 v 0.15138 h 0.56376 v 0.16443 h -0.48807 v 0.77517 h 0.48807 v 0.15921 h -0.49329 v 0.14877 h 0.49329 v 0.22446 c -0.21402,0.02088 -0.40977,0.03915 -0.56637,0.0522 l 0.0287,0.16965 c 0.29232,-0.03132 0.69687,-0.07569 1.09359,-0.12267 -0.0365,0.03132 -0.0731,0.06264 -0.11484,0.09135 0.047,0.03132 0.11484,0.09657 0.14355,0.13833 0.45936,-0.34452 0.57942,-0.9135 0.61074,-1.60776 h 0.37323 c -0.0261,0.94743 -0.0574,1.29195 -0.11745,1.36764 -0.0261,0.03393 -0.0496,0.04176 -0.094,0.04176 -0.0496,0 -0.16443,-0.0026 -0.28971,-0.01305 0.0287,0.04959 0.0496,0.1305 0.0548,0.1827 0.12006,0.0078 0.24273,0.01044 0.31581,0 0.0783,-0.0078 0.1305,-0.02871 0.17487,-0.09657 0.0887,-0.10962 0.11223,-0.47241 0.14094,-1.566 0,-0.0261 0.003,-0.09918 0.003,-0.09918 z"
             id="path21934" />
          <path
             d="m 153.81188,13.36793 h -0.48285 v -0.36801 h 0.48285 z m 0.18792,-0.53505 h -0.85086 v 0.70209 h 0.85086 z m -0.68121,2.02014 v -0.38367 h 0.46197 v 0.38367 z m -0.60813,0 h -0.43326 v -0.38367 h 0.43326 z m -0.0261,-1.48509 h -0.46197 v -0.36801 h 0.46197 z m 1.50597,0.60291 v -0.17226 h -0.45153 l 0.0626,-0.06525 c -0.0861,-0.06786 -0.25056,-0.14877 -0.38367,-0.19314 l -0.10179,0.10179 c 0.1044,0.03915 0.22446,0.09918 0.31059,0.1566 h -0.72819 c 0.06,-0.08352 0.11223,-0.16965 0.1566,-0.25578 l -0.18531,-0.03654 v -0.67338 h -0.82215 v 0.70209 h 0.79344 c -0.0418,0.08613 -0.0992,0.17748 -0.17487,0.26361 h -0.80388 v 0.17226 h 0.63684 c -0.17487,0.15138 -0.40194,0.28971 -0.68382,0.39411 0.0365,0.03132 0.0887,0.10179 0.1044,0.14616 0.0626,-0.02349 0.12006,-0.04959 0.17748,-0.07569 v 0.66294 h 0.18009 v -0.07569 h 0.43326 v 0.06264 h 0.18531 V 14.2997 h -0.55071 c 0.16182,-0.09918 0.29754,-0.21141 0.40977,-0.32886 h 0.48807 c 0.11745,0.12267 0.26883,0.23751 0.43587,0.32886 h -0.54027 v 0.79866 h 0.18009 v -0.07569 h 0.46197 v 0.06264 h 0.18792 v -0.6525 c 0.0496,0.01827 0.0992,0.03393 0.14877,0.04959 0.0261,-0.04698 0.0783,-0.11745 0.12267,-0.15399 -0.27405,-0.06786 -0.55854,-0.19836 -0.75429,-0.35757 z"
             id="path21936" />
        </g>
        <path
           d="M58.57.97v-65.3h40.92"
           id="path1003"
           fill="none"
           stroke="#30ba78"
           stroke-width=".46"
           stroke-linecap="butt"
           stroke-linejoin="miter"
           stroke-miterlimit="4"
           stroke-dasharray="none"
           stroke-opacity="1"
           marker-end="url(#marker8835795)" />
        <path
           d="M80.34.97v-63.12h17.4"
           id="path1005"
           fill="none"
           stroke="#30ba78"
           stroke-width=".46"
           stroke-linecap="butt"
           stroke-linejoin="miter"
           stroke-miterlimit="4"
           stroke-dasharray="none"
           stroke-opacity="1"
           marker-end="url(#marker8839906)" />
        <path
           d="M104.28.97v-34.83"
           id="path1007"
           fill="none"
           stroke="#30ba78"
           stroke-width=".46"
           stroke-linecap="butt"
           stroke-linejoin="miter"
           stroke-miterlimit="4"
           stroke-dasharray="none"
           stroke-opacity="1"
           marker-end="url(#marker883688)" />
        <path
           d="M126.91.97v-43.49l-6.96-.04"
           id="path1009"
           fill="none"
           stroke="#30ba78"
           stroke-width=".46"
           stroke-linecap="butt"
           stroke-linejoin="miter"
           stroke-miterlimit="4"
           stroke-dasharray="none"
           stroke-opacity="1"
           marker-end="url(#marker8838541)" />
        <path
           d="M149.98.97v-46.14h-27.86"
           id="path1011"
           fill="none"
           stroke="#30ba78"
           stroke-width=".46"
           stroke-linecap="butt"
           stroke-linejoin="miter"
           stroke-miterlimit="4"
           stroke-dasharray="none"
           stroke-opacity="1"
           marker-end="url(#marker8836252)" />
        <path
           d="M128.22-64.33h52.24"
           id="path1013"
           fill="none"
           stroke="#fe7c3f"
           stroke-width=".46"
           stroke-linecap="butt"
           stroke-linejoin="miter"
           stroke-miterlimit="4"
           stroke-dasharray="none"
           stroke-opacity="1"
           marker-end="url(#marker8836999)" />
        <path
           d="M126.91-62.15h50.5"
           id="path1015"
           fill="none"
           stroke="#fe7c3f"
           stroke-width=".46"
           stroke-linecap="butt"
           stroke-linejoin="miter"
           stroke-miterlimit="4"
           stroke-dasharray="none"
           stroke-opacity="1"
           marker-end="url(#marker8839258)" />
        <path
           d="M97.75-59.97h23.94v13.05c-13.06 0-13.06 8.71-23.94 6.53v-19.58"
           id="path862-7-3-0"
           fill="#fff"
           stroke="#63da7f"
           stroke-width=".65"
           stroke-linecap="square"
           stroke-linejoin="miter"
           stroke-miterlimit="4"
           stroke-dasharray="none"
           stroke-opacity="1" />
        <path
           d="M95.57-57.8h23.94v13.06c-13.06 0-13.06 8.7-23.94 6.53V-57.8"
           id="path862-7-3-0-6"
           fill="#fff"
           stroke="#6ec766"
           stroke-width=".65"
           stroke-linecap="square"
           stroke-linejoin="miter"
           stroke-miterlimit="4"
           stroke-dasharray="none"
           stroke-opacity="1" />
        <path
           d="M93.4-55.62h23.94v13.06c-13.06 0-13.06 8.7-23.95 6.53v-19.6"
           id="path862-7-3-0-2"
           fill="#fff"
           stroke="#92d27f"
           stroke-width=".65"
           stroke-linecap="square"
           stroke-linejoin="miter"
           stroke-miterlimit="4"
           stroke-dasharray="none"
           stroke-opacity="1" />
        <path
           d="M91.22-53.45h23.94v13.06c-13.06 0-13.06 8.71-23.94 6.53v-19.59"
           id="path862-7-3-0-61"
           fill="#fff"
           stroke="#bfe035"
           stroke-width=".65"
           stroke-linecap="square"
           stroke-linejoin="miter"
           stroke-miterlimit="4"
           stroke-dasharray="none"
           stroke-opacity="1" />
        <path
           d="M89.04-51.27h23.94v13.06c-13.06 0-13.06 8.7-23.94 6.53v-19.59"
           id="path862-7-3-0-8"
           fill="#fff"
           stroke="#f2df4b"
           stroke-width=".65"
           stroke-linecap="square"
           stroke-linejoin="miter"
           stroke-miterlimit="4"
           stroke-dasharray="none"
           stroke-opacity="1" />
        <g
           aria-label="節點目標和啟動器"
           transform="translate(-6.9650156,2.6118809)"
           id="text914"
           style="font-size:2.61px;line-height:1.25;font-family:'Noto Sans CJK TC';-inkscape-font-specification:'Noto Sans CJK TC, Normal';text-align:center;letter-spacing:0;text-anchor:middle;white-space:pre;inline-size:13.8833;stroke-width:0.22">
          <path
             d="m 102.44373,-47.921778 v -0.16704 h -0.66033 c 0.0235,-0.0522 0.0444,-0.10179 0.0653,-0.15399 l -0.18531,-0.0522 c -0.0861,0.22707 -0.23751,0.44892 -0.39933,0.59247 0.0392,0.03654 0.1044,0.12267 0.12789,0.16443 0.10962,-0.10179 0.21141,-0.23751 0.30015,-0.38367 z m -0.65511,0.11484 c 0.0731,0.0783 0.16182,0.18792 0.20358,0.25839 l 0.14094,-0.11745 c -0.0418,-0.06786 -0.13311,-0.16965 -0.21141,-0.24273 z m 0.43326,0.42543 v 0.21402 h -0.59769 v -0.21402 z m -0.59769,0.56376 v -0.20097 h 0.59769 v 0.20097 z m 0.34191,0.27927 c 0.0496,0.06264 0.10179,0.13572 0.15399,0.21141 l -0.4959,0.10962 v -0.44631 h 0.78039 v -0.87174 h -0.96048 v 1.21887 c 0,0.10962 -0.06,0.16965 -0.0992,0.19053 0.0313,0.03915 0.0757,0.11484 0.0913,0.15921 0.0522,-0.03393 0.13311,-0.05481 0.78039,-0.21402 0.0522,0.0783 0.0966,0.15399 0.12789,0.21141 l 0.16182,-0.08613 c -0.0809,-0.14616 -0.24534,-0.37845 -0.38628,-0.55593 z m 1.55295,-0.99702 h -0.91872 v 1.63386 h 0.1827 v -1.45638 h 0.55071 v 0.92394 c 0,0.03393 -0.0131,0.04698 -0.0548,0.04698 -0.0392,0.0026 -0.18009,0.0026 -0.33408,-0.0026 0.0261,0.0522 0.0522,0.12789 0.06,0.1827 0.20358,0 0.33408,-0.0026 0.41499,-0.03393 0.0783,-0.03132 0.0992,-0.08613 0.0992,-0.19314 z m -0.261,-0.13833 c -0.0444,-0.06786 -0.14355,-0.17226 -0.22446,-0.24534 l -0.13311,0.1044 c 0.0809,0.07569 0.17487,0.18531 0.21924,0.25578 z m -0.43326,-0.41499 c 0.0183,-0.0522 0.0339,-0.1044 0.0496,-0.1566 l -0.19314,-0.04698 c -0.0653,0.24795 -0.18009,0.48546 -0.32886,0.63945 0.0444,0.03393 0.12006,0.10179 0.15399,0.13833 0.094,-0.10701 0.1827,-0.25056 0.25056,-0.40716 h 0.87174 v -0.16704 z"
             id="path21915" />
          <path
             d="m 104.65701,-47.504178 c 0.0444,-0.1044 0.094,-0.27144 0.14094,-0.40716 l -0.11484,-0.04176 c -0.0235,0.12006 -0.0731,0.30276 -0.11223,0.41499 z m -0.50373,-0.41499 c 0.0444,0.12528 0.0757,0.28971 0.0809,0.39672 l 0.1044,-0.02871 c -0.008,-0.1044 -0.0418,-0.26883 -0.0887,-0.39411 z m -0.0365,-0.12789 h 0.28188 v 0.6264 h -0.28188 z m 0.71514,0.6264 h -0.30015 v -0.6264 h 0.30015 z m -0.93177,0.86913 c 0.30015,-0.01566 0.72558,-0.04176 1.14057,-0.07308 l 0.005,-0.1566 c -0.16704,0.01044 -0.33408,0.02088 -0.49329,0.02871 v -0.19314 h 0.45153 v -0.15399 h -0.45153 v -0.18009 h 0.43587 v -0.90828 h -1.02312 v 0.90828 h 0.41238 v 0.18009 h -0.43065 v 0.15399 h 0.43065 v 0.20358 c -0.18531,0.0078 -0.35235,0.01827 -0.48807,0.02349 z m 0.0783,0.64989 c 0.11484,-0.11484 0.15399,-0.31581 0.18009,-0.50895 l -0.13833,-0.03654 c -0.0209,0.18009 -0.0705,0.36801 -0.17226,0.47502 z m 0.26361,-0.53766 c 0.0365,0.14616 0.0626,0.33147 0.0626,0.45414 l 0.13311,-0.01827 c 0,-0.12006 -0.0287,-0.30798 -0.0705,-0.44892 z m 0.24795,-0.01305 c 0.0574,0.13311 0.11223,0.30537 0.12528,0.42021 l 0.13311,-0.02871 c -0.0183,-0.11484 -0.0757,-0.2871 -0.13572,-0.4176 z m 0.24795,-0.03393 c 0.0861,0.12006 0.17748,0.2871 0.21402,0.39672 l 0.1305,-0.05742 c -0.0392,-0.10701 -0.13311,-0.26883 -0.22446,-0.38889 z m 1.22931,0.28449 h -0.65772 v -0.67077 h 0.65772 z m 0.2871,-1.33371 v -0.1827 h -0.55593 v -0.56115 h -0.19053 v 1.2267 h -0.37584 v 1.1484 h 0.17748 v -0.12267 h 0.65772 v 0.11223 h 0.1827 v -1.13796 h -0.45153 v -0.48285 z"
             id="path21917" />
          <path
             d="m 106.97469,-46.282698 v -0.42804 h 1.36503 v 0.42804 z m 1.36503,-1.04139 v 0.42804 h -1.36503 v -0.42804 z m 0,-0.60813 v 0.42282 h -1.36503 v -0.42282 z m -1.55556,-0.18792 v 2.20545 h 0.19053 v -0.17748 h 1.36503 v 0.17748 h 0.20097 v -2.20545 z"
             id="path21919" />
          <path
             d="m 110.80095,-47.827818 h -0.2349 v -0.17487 h 0.2349 z m 0.40194,0.14877 v 0.31059 h -0.25578 v -0.31059 z m -0.63684,0 h 0.2349 v 0.31059 h -0.2349 z m -0.38106,0 h 0.23229 v 0.31059 h -0.23229 z m 0.23229,-0.14877 h -0.39411 v 0.60813 h 1.35198 v -0.60813 h -0.42804 v -0.17487 h 0.47241 v -0.15921 h -1.45638 v 0.15921 h 0.45414 z m 0.8352,0.90045 v -0.15399 h -1.11708 v 0.15399 z m -1.27107,-0.07308 c -0.0418,-0.07308 -0.24012,-0.38106 -0.30537,-0.46719 v -0.13311 h 0.2871 v -0.1827 h -0.2871 v -0.50112 h -0.17748 v 0.50112 h -0.3654 v 0.1827 h 0.33669 c -0.0783,0.34452 -0.24273,0.7569 -0.40455,0.97092 0.0339,0.04698 0.0835,0.1305 0.1044,0.18792 0.12267,-0.1827 0.24012,-0.47502 0.32886,-0.77517 v 1.31544 h 0.17748 v -1.3311 c 0.0705,0.1305 0.15399,0.2871 0.18792,0.37062 z m 0.24795,0.50112 c -0.0835,0.1566 -0.21663,0.31581 -0.36018,0.42282 0.047,0.02349 0.11745,0.07308 0.15138,0.10179 0.13572,-0.11745 0.28449,-0.29754 0.38106,-0.47502 z m 1.2006,-0.08874 v -0.15921 h -1.4616 v 0.15921 h 0.62379 v 0.68643 h 0.17487 v -0.68643 z m -0.47763,0.16704 c 0.13311,0.13311 0.27666,0.31581 0.34452,0.43848 l 0.15138,-0.09135 c -0.0705,-0.12006 -0.21924,-0.29493 -0.35496,-0.42804 z"
             id="path21921" />
          <path
             d="m 112.42437,-47.987028 c 0.16182,-0.03393 0.31581,-0.07569 0.43587,-0.12006 l -0.1305,-0.15138 c -0.22968,0.09135 -0.63684,0.16965 -0.98136,0.21663 0.0235,0.04437 0.0444,0.10701 0.0548,0.15399 0.13833,-0.01827 0.28449,-0.03915 0.43065,-0.06264 v 0.43326 h -0.50895 v 0.18009 h 0.45936 c -0.11745,0.32625 -0.32625,0.68382 -0.52461,0.88218 0.0365,0.04698 0.0861,0.12528 0.10701,0.17748 0.16704,-0.18009 0.3393,-0.47502 0.46719,-0.77778 v 1.1484 h 0.19053 v -1.14057 c 0.11223,0.14616 0.25839,0.34191 0.31842,0.44109 l 0.11745,-0.15921 c -0.0653,-0.08091 -0.33669,-0.39933 -0.43587,-0.50373 v -0.06786 h 0.45414 v -0.18009 h -0.45414 z m 0.73341,1.56861 v -1.43811 h 0.58203 v 1.43811 z m -0.19053,-1.62342 v 2.02536 h 0.19053 v -0.21402 h 0.58203 v 0.19575 h 0.19314 v -2.00709 z"
             id="path21923" />
          <path
             d="m 105.0981,-43.657038 h -0.85869 c 0.008,-0.08091 0.0157,-0.16182 0.0183,-0.23751 h 0.83259 l -0.0209,0.03132 c 0.0444,0.02871 0.12006,0.09918 0.14877,0.13572 0.0574,-0.08613 0.10701,-0.18009 0.15138,-0.2871 0.06,0.261 0.13572,0.50112 0.2349,0.71253 -0.1305,0.2088 -0.29754,0.375839 -0.50634,0.485459 z m -0.69426,0.56637 v -0.40716 h 0.51939 v 0.40716 z m 0.51678,-1.28412 v 0.31842 h -0.65772 c 0.003,-0.04698 0.003,-0.08874 0.003,-0.1305 v -0.18792 z m 1.02051,0.03654 c -0.047,0.3132 -0.12267,0.59508 -0.22968,0.8352 -0.10701,-0.24012 -0.1827,-0.51678 -0.23751,-0.80649 l 0.008,-0.02871 z m 0.31059,0 v -0.18009 h -0.72297 c 0.0339,-0.15138 0.0626,-0.31059 0.0861,-0.47241 l -0.19314,-0.02871 c -0.0522,0.43326 -0.14877,0.84564 -0.32625,1.11708 v -0.63162 h -0.82998 v -0.15921 c 0.30015,-0.03393 0.63162,-0.08613 0.86652,-0.16182 l -0.14877,-0.14094 c -0.2088,0.07047 -0.57942,0.13311 -0.89784,0.16704 v 0.64206 c 0,0.38106 -0.0235,0.90828 -0.24534,1.289339 0.0418,0.02088 0.11745,0.0783 0.14877,0.11484 0.14094,-0.234899 0.21141,-0.537659 0.24534,-0.827369 v 0.845639 h 0.16965 v -0.16443 h 0.51939 v 0.11745 h 0.16182 l -0.0261,0.01305 c 0.0496,0.04176 0.10962,0.10962 0.14094,0.15921 0.2088,-0.10701 0.37323,-0.26883 0.50634,-0.469799 0.11223,0.195749 0.25056,0.354959 0.41499,0.469799 0.0339,-0.0522 0.0966,-0.1305 0.14355,-0.16704 -0.18009,-0.10962 -0.32886,-0.281879 -0.44892,-0.490679 0.14877,-0.28971 0.24273,-0.64728 0.29754,-1.04139 z"
             id="path21925" />
          <path
             d="m 106.71891,-43.623108 v -0.19053 h 0.32886 v 0.19053 z m 0,-0.50634 h 0.32886 v 0.18792 h -0.32886 z m 0.84564,0 v 0.18792 h -0.34191 v -0.18792 z m 0,0.50634 h -0.34191 v -0.19053 h 0.34191 z m 0.68643,-0.79344 c 0.005,-0.1827 0.005,-0.37584 0.005,-0.57159 h -0.1827 c 0,0.19836 0,0.38889 -0.005,0.57159 h -0.31059 v 0.1827 h 0.30537 c -0.0235,0.49068 -0.0913,0.91089 -0.31842,1.21887 v -0.01305 c -0.17487,0.02088 -0.35235,0.03915 -0.522,0.05481 v -0.206189 h 0.51156 v -0.14877 h -0.51156 v -0.15921 h 0.50634 v -0.77517 h -0.50634 v -0.16443 h 0.55332 v -0.15138 h -0.55332 v -0.19053 c 0.19053,-0.02088 0.36801,-0.04437 0.50895,-0.07569 l -0.0966,-0.14877 c -0.26883,0.06003 -0.73863,0.10701 -1.12491,0.12789 0.0209,0.03915 0.0392,0.10179 0.047,0.14355 0.15399,-0.0052 0.32364,-0.01566 0.49068,-0.02871 v 0.17226 h -0.56376 v 0.15138 h 0.56376 v 0.16443 h -0.48807 v 0.77517 h 0.48807 v 0.15921 h -0.49329 v 0.14877 h 0.49329 v 0.224459 c -0.21402,0.02088 -0.40977,0.03915 -0.56637,0.0522 l 0.0287,0.16965 c 0.29232,-0.03132 0.69687,-0.07569 1.09359,-0.12267 -0.0365,0.03132 -0.0731,0.06264 -0.11484,0.09135 0.047,0.03132 0.11484,0.09657 0.14355,0.13833 0.45936,-0.34452 0.57942,-0.913499 0.61074,-1.607759 h 0.37323 c -0.0261,0.94743 -0.0574,1.291949 -0.11745,1.367639 -0.0261,0.03393 -0.0496,0.04176 -0.094,0.04176 -0.0496,0 -0.16443,-0.0026 -0.28971,-0.01305 0.0287,0.04959 0.0496,0.1305 0.0548,0.1827 0.12006,0.0078 0.24273,0.01044 0.31581,0 0.0783,-0.0078 0.1305,-0.02871 0.17487,-0.09657 0.0887,-0.10962 0.11223,-0.472409 0.14094,-1.565999 0,-0.0261 0.003,-0.09918 0.003,-0.09918 z"
             id="path21927" />
          <path
             d="m 111.06456,-44.369568 h -0.48285 v -0.36801 h 0.48285 z m 0.18792,-0.53505 h -0.85086 v 0.70209 h 0.85086 z m -0.68121,2.020139 v -0.383669 h 0.46197 v 0.383669 z m -0.60813,0 h -0.43326 v -0.383669 h 0.43326 z m -0.0261,-1.485089 h -0.46197 v -0.36801 h 0.46197 z m 1.50597,0.60291 v -0.17226 h -0.45153 l 0.0626,-0.06525 c -0.0861,-0.06786 -0.25056,-0.14877 -0.38367,-0.19314 l -0.10179,0.10179 c 0.1044,0.03915 0.22446,0.09918 0.31059,0.1566 h -0.72819 c 0.06,-0.08352 0.11223,-0.16965 0.1566,-0.25578 l -0.18531,-0.03654 v -0.67338 h -0.82215 v 0.70209 h 0.79344 c -0.0418,0.08613 -0.0992,0.17748 -0.17487,0.26361 h -0.80388 v 0.17226 h 0.63684 c -0.17487,0.15138 -0.40194,0.28971 -0.68382,0.39411 0.0365,0.03132 0.0887,0.10179 0.1044,0.14616 0.0626,-0.02349 0.12006,-0.04959 0.17748,-0.07569 v 0.662939 h 0.18009 v -0.07569 h 0.43326 v 0.06264 h 0.18531 v -0.785609 h -0.55071 c 0.16182,-0.09918 0.29754,-0.21141 0.40977,-0.32886 h 0.48807 c 0.11745,0.12267 0.26883,0.23751 0.43587,0.32886 h -0.54027 v 0.798659 h 0.18009 v -0.07569 h 0.46197 v 0.06264 h 0.18792 v -0.652499 c 0.0496,0.01827 0.0992,0.03393 0.14877,0.04959 0.0261,-0.04698 0.0783,-0.11745 0.12267,-0.15399 -0.27405,-0.06786 -0.55854,-0.19836 -0.75429,-0.35757 z"
             id="path21929" />
        </g>
        <path
           d="M176.1-57.8h23.94v13.06c-13.05 0-13.05 8.7-23.94 6.53V-57.8"
           id="path862-6-7"
           fill="#fff"
           stroke="#f39b5c"
           stroke-width=".65"
           stroke-linecap="square"
           stroke-linejoin="miter"
           stroke-miterlimit="4"
           stroke-dasharray="none"
           stroke-opacity="1" />
        <path
           d="M173.93-55.62h23.94v13.06c-13.06 0-13.06 8.7-23.94 6.53v-19.6"
           id="path862-6-9"
           fill="#fff"
           stroke="#f3b292"
           stroke-width=".65"
           stroke-linecap="square"
           stroke-linejoin="miter"
           stroke-miterlimit="4"
           stroke-dasharray="none"
           stroke-opacity="1" />
        <path
           d="M171.75-53.45h23.94v13.06c-13.06 0-13.06 8.71-23.94 6.53v-19.59"
           id="path862-6-2"
           fill="#fff"
           stroke="#f9dac8"
           stroke-width=".65"
           stroke-linecap="square"
           stroke-linejoin="miter"
           stroke-miterlimit="4"
           stroke-dasharray="none"
           stroke-opacity="1" />
        <g
           aria-label="可見網域"
           id="text914-5"
           style="font-size:2.61px;line-height:1.25;font-family:'Noto Sans CJK TC';-inkscape-font-specification:'Noto Sans CJK TC, Normal';letter-spacing:0;stroke-width:0.22">
          <path
             d="m 179.7071,-44.613326 v 0.59508 h -0.68121 v -0.59508 z m 0.19053,0.78039 v -0.96831 h -1.05966 v 1.17711 h 0.18792 v -0.2088 z m 0.98397,-1.54251 h -2.30985 v 0.19314 h 1.79046 v 1.72521 c 0,0.05481 -0.0183,0.07308 -0.0757,0.07569 -0.06,0.0026 -0.27405,0.0052 -0.48285,-0.0052 0.0313,0.05481 0.0705,0.15138 0.0835,0.20619 0.25578,0 0.43587,0 0.54027,-0.03654 0.0992,-0.02871 0.13311,-0.09657 0.13311,-0.23751 v -1.72782 h 0.32103 z"
             id="path21906" />
          <path
             d="m 181.70374,-44.433236 h 1.25802 v 0.27144 h -1.25802 z m 0,-0.43326 h 1.25802 v 0.26883 h -1.25802 z m 0,-0.42804 h 1.25802 v 0.26622 h -1.25802 z m 1.12491,1.91313 c -0.11223,0 -0.13311,-0.01305 -0.13311,-0.08874 v -0.51939 h 0.46197 v -1.47987 h -1.64168 v 1.47987 h 0.35234 c -0.0548,0.33408 -0.19314,0.53766 -0.72818,0.64467 0.0391,0.03915 0.094,0.12006 0.10962,0.16965 0.59246,-0.13572 0.7595,-0.39672 0.82214,-0.81432 h 0.42804 v 0.522 c 0,0.21141 0.0653,0.26883 0.31059,0.26883 h 0.42021 c 0.21924,0 0.27666,-0.09396 0.30015,-0.47241 -0.0548,-0.01305 -0.13833,-0.04437 -0.18009,-0.0783 -0.0104,0.32103 -0.0313,0.36801 -0.13572,0.36801 z"
             id="path21908" />
          <path
             d="m 183.87004,-43.890356 c -0.0261,0.2088 -0.0652,0.43848 -0.12267,0.6003 0.0365,0.01044 0.11223,0.03393 0.14355,0.0522 0.0522,-0.16182 0.10179,-0.40194 0.12789,-0.62901 z m 0.26883,0.01566 c 0.0287,0.17748 0.0574,0.40455 0.0626,0.55854 l 0.14616,-0.03654 c -0.008,-0.15138 -0.0365,-0.37584 -0.0731,-0.5481 z m 0.28188,-0.04959 c 0.0574,0.15921 0.12006,0.36801 0.14616,0.50634 l 0.13572,-0.04959 c -0.0261,-0.13311 -0.094,-0.3393 -0.15399,-0.50112 z m -0.0235,-0.59769 c 0.0287,0.07569 0.0626,0.15921 0.0914,0.24273 l -0.44892,0.06264 c 0.20619,-0.24795 0.40716,-0.55854 0.57159,-0.86652 l -0.15138,-0.09135 c -0.0548,0.12267 -0.12528,0.24795 -0.19053,0.36018 l -0.27405,0.0261 c 0.14355,-0.19836 0.28449,-0.45414 0.39411,-0.69948 l -0.16443,-0.07047 c -0.10179,0.28188 -0.27927,0.57942 -0.33408,0.65772 -0.0522,0.0783 -0.0966,0.13311 -0.13833,0.14355 0.0183,0.04437 0.0444,0.1305 0.0548,0.16704 0.0339,-0.01827 0.0887,-0.03132 0.36018,-0.06264 -0.0913,0.14355 -0.17226,0.25578 -0.21402,0.30537 -0.0757,0.09918 -0.13311,0.16443 -0.18531,0.17487 0.0209,0.04698 0.0496,0.1305 0.0548,0.16965 0.0496,-0.0261 0.12789,-0.04437 0.70992,-0.13572 0.0104,0.04437 0.0235,0.08874 0.0313,0.12528 l 0.14616,-0.05742 c -0.0313,-0.12528 -0.10701,-0.33408 -0.17487,-0.49851 z m 0.93699,0.69687 c -0.0548,0 -0.0626,-0.02088 -0.0626,-0.08874 v -0.25578 h 0.53766 v -0.15399 h -0.38628 l 0.094,-0.04176 c -0.0235,-0.05742 -0.0705,-0.15921 -0.11484,-0.2349 h 0.43848 v -0.15399 h -0.22185 c 0.0418,-0.11223 0.0887,-0.261 0.12789,-0.38889 l -0.14094,-0.04176 c -0.0235,0.12528 -0.0757,0.30798 -0.12267,0.43065 h -0.4959 v 0.15399 h 0.39933 l -0.12006,0.04698 c 0.0365,0.06786 0.0783,0.15921 0.10179,0.22968 h -0.35496 v 0.15399 h 0.0966 v 0.25317 c 0,0.17226 0.0392,0.2349 0.21141,0.2349 h 0.33408 c 0.0652,0 0.13311,-0.0026 0.16704,-0.01305 -0.005,-0.03915 -0.0104,-0.09918 -0.0157,-0.14355 -0.0392,0.01044 -0.11223,0.01305 -0.15399,0.01305 z m -0.25839,-1.32327 c 0.0626,0.11484 0.11745,0.27144 0.13572,0.37323 l 0.12528,-0.04437 c -0.0157,-0.10179 -0.0757,-0.25578 -0.14094,-0.37062 z m 0.99702,-0.2871 h -1.32849 v 2.26287 h 0.17487 v -2.09061 h 0.97614 v 1.86876 c 0,0.03654 -0.0104,0.04698 -0.0444,0.04959 -0.0313,0 -0.13572,0.0026 -0.24534,-0.0026 0.0209,0.04698 0.0444,0.12528 0.0496,0.17226 0.15921,0 0.26622,-0.0026 0.32886,-0.03393 0.0679,-0.03132 0.0887,-0.0783 0.0887,-0.18531 z"
             id="path21910" />
          <path
             d="m 187.0673,-44.049566 c -0.0809,0.03915 -0.16443,0.08091 -0.24273,0.11745 v -0.81171 h 0.23751 v -0.1827 h -0.23751 v -0.60291 h -0.1827 v 0.60291 h -0.27405 v 0.1827 h 0.27405 v 0.89784 c -0.10962,0.04959 -0.2088,0.09396 -0.29232,0.12789 l 0.0757,0.19053 c 0.20097,-0.09918 0.45675,-0.22707 0.69426,-0.34974 z m 0.86912,0.16443 c -0.33669,0.08874 -0.68381,0.18531 -0.91871,0.23751 l 0.0522,0.1827 c 0.24795,-0.07047 0.57419,-0.16443 0.88478,-0.25578 z m -0.26622,-0.27144 h -0.33668 v -0.43848 h 0.33668 z m -0.48806,-0.59508 v 0.75168 h 0.64727 v -0.75168 z m 1.3076,0 c -0.0626,0.24534 -0.14355,0.46719 -0.25056,0.67077 -0.0365,-0.25578 -0.0626,-0.56898 -0.0731,-0.91611 h 0.5481 v -0.18009 h -0.13833 l 0.11484,-0.10701 c -0.0652,-0.08091 -0.20358,-0.19314 -0.31842,-0.26883 l -0.11223,0.09657 c 0.11223,0.08352 0.24534,0.20097 0.31059,0.27927 h -0.40977 c -0.003,-0.12267 -0.003,-0.25056 -0.003,-0.38106 h -0.18792 c 0,0.12789 0.003,0.25578 0.008,0.38106 h -0.87173 v 0.18009 h 0.87695 c 0.0157,0.44109 0.0496,0.84042 0.10962,1.15362 -0.14355,0.20619 -0.31842,0.38367 -0.52983,0.51678 0.0418,0.03132 0.11484,0.09396 0.14355,0.12789 0.16443,-0.11745 0.3132,-0.25839 0.44109,-0.42543 0.0809,0.27927 0.19314,0.44631 0.35235,0.44631 0.16443,0 0.21663,-0.10962 0.24534,-0.45675 -0.0418,-0.02088 -0.0992,-0.05742 -0.13833,-0.10179 -0.0104,0.27144 -0.0339,0.37323 -0.0835,0.37323 -0.0966,0 -0.17487,-0.16965 -0.23751,-0.45414 0.16182,-0.25839 0.2871,-0.55854 0.38106,-0.90045 z"
             id="path21912" />
        </g>
        <path
           d="M118.2-49.1h51.37"
           id="path1017"
           fill="none"
           stroke="#fe7c3f"
           stroke-width=".46"
           stroke-linecap="butt"
           stroke-linejoin="miter"
           stroke-miterlimit="4"
           stroke-dasharray="none"
           stroke-opacity="1"
           marker-end="url(#marker8831574)" />
        <path
           d="M120.38-53.45h49.2"
           id="path1017-3"
           fill="none"
           stroke="#fe7c3f"
           stroke-width=".46"
           stroke-linecap="butt"
           stroke-linejoin="miter"
           stroke-miterlimit="4"
           stroke-dasharray="none"
           stroke-opacity="1"
           marker-end="url(#marker8831574-0)" />
      </g>
    </g>
  </g>
</svg>
