<?xml version="1.0" encoding="UTF-8" standalone="no"?>
<svg
   xmlns:dc="http://purl.org/dc/elements/1.1/"
   xmlns:cc="http://creativecommons.org/ns#"
   xmlns:rdf="http://www.w3.org/1999/02/22-rdf-syntax-ns#"
   xmlns:svg="http://www.w3.org/2000/svg"
   xmlns="http://www.w3.org/2000/svg"
   xmlns:sodipodi="http://sodipodi.sourceforge.net/DTD/sodipodi-0.dtd"
   xmlns:inkscape="http://www.inkscape.org/namespaces/inkscape"
   id="svg2"
   height="550"
   width="700"
   version="1.2"
   sodipodi:docname="net_basic_osi.svg"
   inkscape:version="0.92.4 (5da689c313, 2019-01-14)">
  <sodipodi:namedview
     pagecolor="#ffffff"
     bordercolor="#666666"
     borderopacity="1"
     objecttolerance="10"
     gridtolerance="10"
     guidetolerance="10"
     inkscape:pageopacity="0"
     inkscape:pageshadow="2"
     inkscape:window-width="1920"
     inkscape:window-height="1027"
     id="namedview51"
     showgrid="false"
     inkscape:zoom="1.1596551"
     inkscape:cx="195.92678"
     inkscape:cy="275"
     inkscape:window-x="-8"
     inkscape:window-y="-8"
     inkscape:window-maximized="1"
     inkscape:current-layer="svg2" />
  <defs
     id="defs4" />
  <metadata
     id="metadata7">
    <rdf:RDF>
      <cc:Work
         rdf:about="">
        <dc:format>image/svg+xml</dc:format>
        <dc:type
           rdf:resource="http://purl.org/dc/dcmitype/StillImage" />
        <dc:title />
      </cc:Work>
    </rdf:RDF>
  </metadata>
  <rect
     width="679.81348"
     height="165.17542"
     rx="10"
     x="10.186552"
     y="109.82458"
     id="rect6978-9-64-0-1-4-0-6-1"
     style="color:#000000;display:inline;overflow:visible;visibility:visible;fill:#dedfe0;fill-opacity:1;fill-rule:nonzero;stroke:none;stroke-width:1;marker:none;enable-background:accumulate"
     ry="10" />
  <rect
     width="320"
     height="145"
     rx="5"
     ry="5"
     x="20"
     y="120"
     id="rect6978-9-9-5-0-1-7"
     style="color:#000000;display:inline;overflow:visible;visibility:visible;fill:#30ba78;fill-opacity:1;fill-rule:nonzero;stroke:none;stroke-width:1;marker:none;enable-background:accumulate" />
  <rect
     width="320"
     height="45"
     rx="5"
     ry="5"
     x="360"
     y="120"
     id="rect6978-9-9-5-0-1-7-7"
     style="color:#000000;display:inline;overflow:visible;visibility:visible;fill:#0c322c;fill-opacity:1;fill-rule:nonzero;stroke:none;stroke-width:1;marker:none;enable-background:accumulate" />
  <rect
     width="320"
     height="45"
     rx="5"
     ry="5"
     x="360"
     y="170"
     id="rect6978-9-9-5-0-1-7-7-9"
     style="color:#000000;display:inline;overflow:visible;visibility:visible;fill:#0c322c;fill-opacity:1;fill-rule:nonzero;stroke:none;stroke-width:1;marker:none;enable-background:accumulate" />
  <rect
     width="320"
     height="45"
     rx="5"
     ry="5"
     x="360"
     y="220"
     id="rect6978-9-9-5-0-1-7-7-9-6"
     style="color:#000000;display:inline;overflow:visible;visibility:visible;fill:#0c322c;fill-opacity:1;fill-rule:nonzero;stroke:none;stroke-width:1;marker:none;enable-background:accumulate" />
  <rect
     width="680"
     height="65"
     rx="10.001314"
     x="10"
     y="280"
     id="rect6978-9-64-0-1-4-0-6-1-9"
     style="color:#000000;display:inline;overflow:visible;visibility:visible;fill:#dedfe0;fill-opacity:1;fill-rule:nonzero;stroke:none;stroke-width:1;marker:none;enable-background:accumulate"
     ry="10" />
  <rect
     width="320"
     height="45"
     rx="5"
     ry="5"
     x="20"
     y="290"
     id="rect6978-9-9-5-0-1-7-7-9-6-2"
     style="color:#000000;display:inline;overflow:visible;visibility:visible;fill:#30ba78;fill-opacity:1;fill-rule:nonzero;stroke:none;stroke-width:1;marker:none;enable-background:accumulate" />
  <rect
     width="320"
     height="45"
     rx="5"
     ry="5"
     x="360"
     y="290"
     id="rect6978-9-9-5-0-1-7-7-9-6-0"
     style="color:#000000;display:inline;overflow:visible;visibility:visible;fill:#0c322c;fill-opacity:1;fill-rule:nonzero;stroke:none;stroke-width:1;marker:none;enable-background:accumulate" />
  <rect
     width="680"
     height="65"
     rx="10.001314"
     x="10"
     y="350"
     id="rect6978-9-64-0-1-4-0-6-1-9-4"
     style="color:#000000;display:inline;overflow:visible;visibility:visible;fill:#dedfe0;fill-opacity:1;fill-rule:nonzero;stroke:none;stroke-width:1;marker:none;enable-background:accumulate"
     ry="10" />
  <rect
     width="320"
     height="45"
     rx="5"
     ry="5"
     x="20"
     y="360"
     id="rect6978-9-9-5-0-1-7-7-9-6-2-8"
     style="color:#000000;display:inline;overflow:visible;visibility:visible;fill:#30ba78;fill-opacity:1;fill-rule:nonzero;stroke:none;stroke-width:1;marker:none;enable-background:accumulate" />
  <rect
     width="320"
     height="45"
     rx="5"
     ry="5"
     x="360"
     y="360"
     id="rect6978-9-9-5-0-1-7-7-9-6-0-3"
     style="color:#000000;display:inline;overflow:visible;visibility:visible;fill:#0c322c;fill-opacity:1;fill-rule:nonzero;stroke:none;stroke-width:1;marker:none;enable-background:accumulate" />
  <rect
     width="680"
     height="115"
     rx="10.00515"
     x="10"
     y="425"
     id="rect6978-9-64-0-1-4-0-6-1-3"
     style="color:#000000;display:inline;overflow:visible;visibility:visible;fill:#dedfe0;fill-opacity:1;fill-rule:nonzero;stroke:none;stroke-width:1;marker:none;enable-background:accumulate"
     ry="10" />
  <rect
     width="320"
     height="95"
     rx="5"
     ry="5"
     x="20"
     y="435"
     id="rect6978-9-9-5-0-1-7-5"
     style="color:#000000;display:inline;overflow:visible;visibility:visible;fill:#30ba78;fill-opacity:1;fill-rule:nonzero;stroke:none;stroke-width:1;marker:none;enable-background:accumulate" />
  <rect
     width="320"
     height="45"
     rx="5"
     ry="5"
     x="360"
     y="435"
     id="rect6978-9-9-5-0-1-7-7-7"
     style="color:#000000;display:inline;overflow:visible;visibility:visible;fill:#0c322c;fill-opacity:1;fill-rule:nonzero;stroke:none;stroke-width:1;marker:none;enable-background:accumulate" />
  <rect
     width="320"
     height="45"
     rx="5"
     ry="5"
     x="360"
     y="485"
     id="rect6978-9-9-5-0-1-7-7-9-0"
     style="color:#000000;display:inline;overflow:visible;visibility:visible;fill:#0c322c;fill-opacity:1;fill-rule:nonzero;stroke:none;stroke-width:1;marker:none;enable-background:accumulate" />
  <text
     xml:space="preserve"
     style="font-style:normal;font-variant:normal;font-weight:normal;font-stretch:normal;font-size:40px;line-height:125%;font-family:'Open Sans';-inkscape-font-specification:'Open Sans';letter-spacing:0px;word-spacing:0px;fill:#000000;fill-opacity:1;stroke:none"
     x="-179.99081"
     y="87.715889"
     id="text4080"><tspan
       id="tspan4082"
       x="-179.99081"
       y="87.715889" /></text>
  <g
     aria-label="應用程式層"
     style="font-style:normal;font-weight:normal;font-size:22px;line-height:125%;font-family:Sans;letter-spacing:0px;word-spacing:0px;fill:#000000;fill-opacity:1;stroke:none"
     id="text4084">
    <path
       d="m 135.96053,197.41936 c 1.254,-1.034 2.046,-2.706 2.574,-4.224 l -1.32,-0.484 c -0.462,1.408 -1.298,2.992 -2.508,3.916 z m 6.468,-0.99 c -0.924,0 -1.078,-0.088 -1.078,-0.572 v -3.058 h -1.496 v 3.08 c 0,1.496 0.484,1.892 2.442,1.892 h 3.52 c 1.496,0 1.98,-0.528 2.134,-2.706 -0.396,-0.088 -1.012,-0.286 -1.342,-0.528 -0.066,1.672 -0.22,1.892 -0.946,1.892 z m 3.916,-3.036 c -0.792,-0.682 -2.354,-1.584 -3.652,-2.178 l -0.924,0.902 c 1.276,0.638 2.816,1.606 3.564,2.288 z m 0.924,-0.308 c 1.232,1.298 2.552,3.08 3.08,4.268 l 1.32,-0.682 c -0.572,-1.21 -1.936,-2.926 -3.168,-4.18 z m -1.518,-7.744 h -3.388 v -1.188 h 3.388 z m 0,2.156 h -3.388 v -1.21 h 3.388 z m 0,2.244 h -3.388 v -1.276 h 3.388 z m -4.796,1.76 h 1.408 v -0.66 h 8.932 v -1.1 h -4.158 v -1.276 h 3.278 v -0.968 h -3.278 v -1.21 h 3.212 v -0.946 h -3.212 v -1.188 h 3.784 v -1.078 h -4.048 l 0.528,-0.264 c -0.286,-0.506 -0.858,-1.276 -1.408,-1.826 l -1.144,0.506 c 0.418,0.462 0.858,1.078 1.144,1.584 h -3.278 c 0.286,-0.528 0.572,-1.078 0.814,-1.628 l -1.386,-0.374 c -0.792,1.87 -2.112,3.784 -3.52,5.06 0.33,0.22 0.902,0.682 1.144,0.902 0.396,-0.374 0.792,-0.836 1.188,-1.32 z m 2.794,-11.924 c -0.308,-0.66 -0.836,-1.496 -1.32,-2.134 l -1.408,0.484 c 0.374,0.484 0.726,1.1 1.034,1.65 h -8.8 v 6.556 c 0,3.19 -0.132,7.678 -1.716,10.846 0.33,0.176 0.99,0.682 1.232,0.968 1.65,-3.212 1.98,-7.898 2.002,-11.264 0.286,0.242 0.638,0.616 0.814,0.814 0.528,-0.506 1.1,-1.078 1.628,-1.716 v 5.72 h 1.408 v -7.612 c 0.528,-0.77 0.99,-1.562 1.408,-2.376 l -1.386,-0.396 c -0.902,1.892 -2.354,3.784 -3.872,5.126 v -0.11 -5.192 h 16.896 v -1.364 z"
       style="font-style:normal;font-variant:normal;font-weight:normal;font-stretch:normal;font-family:'Noto Sans CJK TC';-inkscape-font-specification:'Noto Sans CJK TC';text-align:center;text-anchor:middle"
       id="path888" />
    <path
       d="m 164.71453,189.67536 v -3.652 h 5.918 v 3.652 z m -6.974,0 c 0.066,-0.814 0.088,-1.628 0.088,-2.354 v -1.298 h 5.258 v 3.652 z m 5.346,-8.712 v 3.52 h -5.258 v -3.52 z m 7.546,3.52 h -5.918 v -3.52 h 5.918 z m 1.606,-5.082 h -16.016 v 7.92 c 0,3.058 -0.22,6.93 -2.64,9.658 0.352,0.198 1.012,0.748 1.254,1.078 1.672,-1.87 2.42,-4.378 2.75,-6.82 h 5.5 v 6.49 h 1.628 v -6.49 h 5.918 v 4.466 c 0,0.418 -0.154,0.55 -0.594,0.572 -0.396,0 -1.892,0.022 -3.432,-0.044 0.22,0.44 0.484,1.144 0.55,1.584 2.068,0.022 3.344,0 4.092,-0.264 0.704,-0.286 0.99,-0.77 0.99,-1.826 z"
       style="font-style:normal;font-variant:normal;font-weight:normal;font-stretch:normal;font-family:'Noto Sans CJK TC';-inkscape-font-specification:'Noto Sans CJK TC';text-align:center;text-anchor:middle"
       id="path890" />
    <path
       d="m 192.94053,184.48336 h -6.842 v -4.114 h 6.842 z m 1.606,-5.522 h -9.966 v 6.952 h 9.966 z m -11.132,10.78 c -0.352,-0.572 -2.09,-2.86 -2.64,-3.52 v -0.572 h 2.794 v -1.54 h -2.794 v -3.916 c 0.902,-0.264 1.76,-0.528 2.464,-0.836 l -0.968,-1.342 c -1.452,0.704 -3.982,1.364 -6.16,1.738 0.198,0.374 0.396,0.946 0.462,1.32 0.858,-0.132 1.76,-0.286 2.64,-0.484 v 3.52 h -3.366 v 1.54 h 3.014 c -0.77,2.508 -2.134,5.324 -3.366,6.886 0.264,0.418 0.66,1.122 0.814,1.584 1.034,-1.408 2.112,-3.718 2.904,-6.028 v 9.856 h 1.562 v -9.9 c 0.638,1.034 1.408,2.354 1.694,3.036 z m 6.952,6.182 v -2.926 h 4.466 v -1.43 h -4.466 v -2.838 c 1.518,-0.176 2.926,-0.462 4.048,-0.792 l -1.078,-1.21 c -2.024,0.616 -5.676,1.034 -8.734,1.254 0.176,0.352 0.396,0.902 0.44,1.276 1.188,-0.066 2.442,-0.176 3.718,-0.308 v 2.618 h -4.4 v 1.43 h 4.4 v 2.926 h -5.61 v 1.474 h 12.606 v -1.474 z"
       style="font-style:normal;font-variant:normal;font-weight:normal;font-stretch:normal;font-family:'Noto Sans CJK TC';-inkscape-font-specification:'Noto Sans CJK TC';text-align:center;text-anchor:middle"
       id="path892" />
    <path
       d="m 216.63453,180.63336 c -0.66,-0.748 -2.046,-1.87 -3.168,-2.618 l -1.1,0.902 c 1.122,0.792 2.486,1.98 3.124,2.75 z m -12.254,7.744 h 4.114 v -1.584 h -9.636 v 1.584 h 3.916 v 6.38 c -1.76,0.352 -3.366,0.682 -4.598,0.924 l 0.506,1.606 c 2.794,-0.616 6.82,-1.54 10.538,-2.42 l -0.132,-1.452 c -1.584,0.352 -3.168,0.66 -4.708,0.99 z m 13.156,-4.84 v -1.606 h -6.512 c -0.066,-1.298 -0.088,-2.618 -0.088,-3.982 h -1.716 c 0.022,1.342 0.044,2.684 0.11,3.982 h -11.242 v 1.606 h 11.352 c 0.594,8.118 2.42,14.432 5.984,14.432 1.672,0 2.288,-1.122 2.574,-4.928 -0.462,-0.176 -1.078,-0.528 -1.452,-0.902 -0.132,2.926 -0.396,4.136 -0.99,4.136 -2.178,0 -3.894,-5.346 -4.444,-12.738 z"
       style="font-style:normal;font-variant:normal;font-weight:normal;font-stretch:normal;font-family:'Noto Sans CJK TC';-inkscape-font-specification:'Noto Sans CJK TC';text-align:center;text-anchor:middle"
       id="path894" />
    <path
       d="m 235.77453,192.57936 v 1.254 h -8.602 v -1.254 z m -8.602,3.542 v -1.276 h 8.602 v 1.276 z m -1.584,1.804 h 1.584 v -0.704 h 8.602 v 0.66 h 1.628 v -6.402 h -11.814 z m 1.43,-11.242 c 0.616,0.726 1.254,1.738 1.562,2.376 l 1.034,-0.594 c -0.286,-0.638 -0.946,-1.606 -1.584,-2.288 z m 6.93,2.376 c 0.506,-0.594 1.122,-1.474 1.628,-2.354 l -1.056,-0.55 c -0.352,0.682 -1.012,1.76 -1.496,2.398 z m 2.662,-7.084 h -13.134 v -1.804 h 13.134 z m -7.282,2.794 c -0.22,-0.462 -0.638,-1.034 -1.012,-1.474 h 6.204 c -0.22,0.44 -0.616,0.99 -0.99,1.474 z m 7.304,4.686 h -4.554 v -3.652 h 4.554 z m -10.538,-3.652 h 4.444 v 3.652 h -4.444 z m 12.166,-6.952 h -16.412 v 6.38 c 0,3.498 -0.176,8.316 -2.266,11.748 0.418,0.154 1.122,0.55 1.43,0.836 2.156,-3.564 2.464,-8.91 2.464,-12.584 v -1.936 h 4.51 l -1.012,0.374 c 0.286,0.33 0.55,0.704 0.792,1.1 h -3.19 v 5.72 h 13.64 v -5.72 h -3.08 c 0.264,-0.352 0.55,-0.726 0.836,-1.1 l -1.188,-0.374 h 3.476 z"
       style="font-style:normal;font-variant:normal;font-weight:normal;font-stretch:normal;font-family:'Noto Sans CJK TC';-inkscape-font-specification:'Noto Sans CJK TC';text-align:center;text-anchor:middle"
       id="path896" />
  </g>
  <g
     aria-label="應用程式層"
     style="font-style:normal;font-weight:normal;font-size:22px;line-height:125%;font-family:Sans;letter-spacing:0px;word-spacing:0px;fill:#ffffff;fill-opacity:1;stroke:none"
     id="text4084-7">
    <path
       d="m 473.96053,151.49445 c 1.254,-1.034 2.046,-2.706 2.574,-4.224 l -1.32,-0.484 c -0.462,1.408 -1.298,2.992 -2.508,3.916 z m 6.468,-0.99 c -0.924,0 -1.078,-0.088 -1.078,-0.572 v -3.058 h -1.496 v 3.08 c 0,1.496 0.484,1.892 2.442,1.892 h 3.52 c 1.496,0 1.98,-0.528 2.134,-2.706 -0.396,-0.088 -1.012,-0.286 -1.342,-0.528 -0.066,1.672 -0.22,1.892 -0.946,1.892 z m 3.916,-3.036 c -0.792,-0.682 -2.354,-1.584 -3.652,-2.178 l -0.924,0.902 c 1.276,0.638 2.816,1.606 3.564,2.288 z m 0.924,-0.308 c 1.232,1.298 2.552,3.08 3.08,4.268 l 1.32,-0.682 c -0.572,-1.21 -1.936,-2.926 -3.168,-4.18 z m -1.518,-7.744 h -3.388 v -1.188 h 3.388 z m 0,2.156 h -3.388 v -1.21 h 3.388 z m 0,2.244 h -3.388 v -1.276 h 3.388 z m -4.796,1.76 h 1.408 v -0.66 h 8.932 v -1.1 h -4.158 v -1.276 h 3.278 v -0.968 h -3.278 v -1.21 h 3.212 v -0.946 h -3.212 v -1.188 h 3.784 v -1.078 h -4.048 l 0.528,-0.264 c -0.286,-0.506 -0.858,-1.276 -1.408,-1.826 l -1.144,0.506 c 0.418,0.462 0.858,1.078 1.144,1.584 h -3.278 c 0.286,-0.528 0.572,-1.078 0.814,-1.628 l -1.386,-0.374 c -0.792,1.87 -2.112,3.784 -3.52,5.06 0.33,0.22 0.902,0.682 1.144,0.902 0.396,-0.374 0.792,-0.836 1.188,-1.32 z m 2.794,-11.924 c -0.308,-0.66 -0.836,-1.496 -1.32,-2.134 l -1.408,0.484 c 0.374,0.484 0.726,1.1 1.034,1.65 h -8.8 v 6.556 c 0,3.19 -0.132,7.678 -1.716,10.846 0.33,0.176 0.99,0.682 1.232,0.968 1.65,-3.212 1.98,-7.898 2.002,-11.264 0.286,0.242 0.638,0.616 0.814,0.814 0.528,-0.506 1.1,-1.078 1.628,-1.716 v 5.72 h 1.408 v -7.612 c 0.528,-0.77 0.99,-1.562 1.408,-2.376 l -1.386,-0.396 c -0.902,1.892 -2.354,3.784 -3.872,5.126 v -0.11 -5.192 h 16.896 v -1.364 z"
       style="font-style:normal;font-variant:normal;font-weight:normal;font-stretch:normal;font-family:'Noto Sans CJK TC';-inkscape-font-specification:'Noto Sans CJK TC';text-align:center;text-anchor:middle;fill:#ffffff"
       id="path899" />
    <path
       d="m 502.71453,143.75045 v -3.652 h 5.918 v 3.652 z m -6.974,0 c 0.066,-0.814 0.088,-1.628 0.088,-2.354 v -1.298 h 5.258 v 3.652 z m 5.346,-8.712 v 3.52 h -5.258 v -3.52 z m 7.546,3.52 h -5.918 v -3.52 h 5.918 z m 1.606,-5.082 h -16.016 v 7.92 c 0,3.058 -0.22,6.93 -2.64,9.658 0.352,0.198 1.012,0.748 1.254,1.078 1.672,-1.87 2.42,-4.378 2.75,-6.82 h 5.5 v 6.49 h 1.628 v -6.49 h 5.918 v 4.466 c 0,0.418 -0.154,0.55 -0.594,0.572 -0.396,0 -1.892,0.022 -3.432,-0.044 0.22,0.44 0.484,1.144 0.55,1.584 2.068,0.022 3.344,0 4.092,-0.264 0.704,-0.286 0.99,-0.77 0.99,-1.826 z"
       style="font-style:normal;font-variant:normal;font-weight:normal;font-stretch:normal;font-family:'Noto Sans CJK TC';-inkscape-font-specification:'Noto Sans CJK TC';text-align:center;text-anchor:middle;fill:#ffffff"
       id="path901" />
    <path
       d="m 530.94053,138.55845 h -6.842 v -4.114 h 6.842 z m 1.606,-5.522 h -9.966 v 6.952 h 9.966 z m -11.132,10.78 c -0.352,-0.572 -2.09,-2.86 -2.64,-3.52 v -0.572 h 2.794 v -1.54 h -2.794 v -3.916 c 0.902,-0.264 1.76,-0.528 2.464,-0.836 l -0.968,-1.342 c -1.452,0.704 -3.982,1.364 -6.16,1.738 0.198,0.374 0.396,0.946 0.462,1.32 0.858,-0.132 1.76,-0.286 2.64,-0.484 v 3.52 h -3.366 v 1.54 h 3.014 c -0.77,2.508 -2.134,5.324 -3.366,6.886 0.264,0.418 0.66,1.122 0.814,1.584 1.034,-1.408 2.112,-3.718 2.904,-6.028 v 9.856 h 1.562 v -9.9 c 0.638,1.034 1.408,2.354 1.694,3.036 z m 6.952,6.182 v -2.926 h 4.466 v -1.43 h -4.466 v -2.838 c 1.518,-0.176 2.926,-0.462 4.048,-0.792 l -1.078,-1.21 c -2.024,0.616 -5.676,1.034 -8.734,1.254 0.176,0.352 0.396,0.902 0.44,1.276 1.188,-0.066 2.442,-0.176 3.718,-0.308 v 2.618 h -4.4 v 1.43 h 4.4 v 2.926 h -5.61 v 1.474 h 12.606 v -1.474 z"
       style="font-style:normal;font-variant:normal;font-weight:normal;font-stretch:normal;font-family:'Noto Sans CJK TC';-inkscape-font-specification:'Noto Sans CJK TC';text-align:center;text-anchor:middle;fill:#ffffff"
       id="path903" />
    <path
       d="m 554.63453,134.70845 c -0.66,-0.748 -2.046,-1.87 -3.168,-2.618 l -1.1,0.902 c 1.122,0.792 2.486,1.98 3.124,2.75 z m -12.254,7.744 h 4.114 v -1.584 h -9.636 v 1.584 h 3.916 v 6.38 c -1.76,0.352 -3.366,0.682 -4.598,0.924 l 0.506,1.606 c 2.794,-0.616 6.82,-1.54 10.538,-2.42 l -0.132,-1.452 c -1.584,0.352 -3.168,0.66 -4.708,0.99 z m 13.156,-4.84 v -1.606 h -6.512 c -0.066,-1.298 -0.088,-2.618 -0.088,-3.982 h -1.716 c 0.022,1.342 0.044,2.684 0.11,3.982 h -11.242 v 1.606 h 11.352 c 0.594,8.118 2.42,14.432 5.984,14.432 1.672,0 2.288,-1.122 2.574,-4.928 -0.462,-0.176 -1.078,-0.528 -1.452,-0.902 -0.132,2.926 -0.396,4.136 -0.99,4.136 -2.178,0 -3.894,-5.346 -4.444,-12.738 z"
       style="font-style:normal;font-variant:normal;font-weight:normal;font-stretch:normal;font-family:'Noto Sans CJK TC';-inkscape-font-specification:'Noto Sans CJK TC';text-align:center;text-anchor:middle;fill:#ffffff"
       id="path905" />
    <path
       d="m 573.77453,146.65445 v 1.254 h -8.602 v -1.254 z m -8.602,3.542 v -1.276 h 8.602 v 1.276 z m -1.584,1.804 h 1.584 v -0.704 h 8.602 v 0.66 h 1.628 v -6.402 h -11.814 z m 1.43,-11.242 c 0.616,0.726 1.254,1.738 1.562,2.376 l 1.034,-0.594 c -0.286,-0.638 -0.946,-1.606 -1.584,-2.288 z m 6.93,2.376 c 0.506,-0.594 1.122,-1.474 1.628,-2.354 l -1.056,-0.55 c -0.352,0.682 -1.012,1.76 -1.496,2.398 z m 2.662,-7.084 h -13.134 v -1.804 h 13.134 z m -7.282,2.794 c -0.22,-0.462 -0.638,-1.034 -1.012,-1.474 h 6.204 c -0.22,0.44 -0.616,0.99 -0.99,1.474 z m 7.304,4.686 h -4.554 v -3.652 h 4.554 z m -10.538,-3.652 h 4.444 v 3.652 h -4.444 z m 12.166,-6.952 h -16.412 v 6.38 c 0,3.498 -0.176,8.316 -2.266,11.748 0.418,0.154 1.122,0.55 1.43,0.836 2.156,-3.564 2.464,-8.91 2.464,-12.584 v -1.936 h 4.51 l -1.012,0.374 c 0.286,0.33 0.55,0.704 0.792,1.1 h -3.19 v 5.72 h 13.64 v -5.72 h -3.08 c 0.264,-0.352 0.55,-0.726 0.836,-1.1 l -1.188,-0.374 h 3.476 z"
       style="font-style:normal;font-variant:normal;font-weight:normal;font-stretch:normal;font-family:'Noto Sans CJK TC';-inkscape-font-specification:'Noto Sans CJK TC';text-align:center;text-anchor:middle;fill:#ffffff"
       id="path907" />
  </g>
  <g
     aria-label="展示層"
     style="font-style:normal;font-weight:normal;font-size:22px;line-height:125%;font-family:Sans;letter-spacing:0px;word-spacing:0px;fill:#ffffff;fill-opacity:1;stroke:none"
     id="text4084-4">
    <path
       d="m 509.56178,184.11778 v 2.244 h -13.09 v -2.244 z m 1.628,3.674 v -5.104 h -16.346 v 6.402 c 0,3.52 -0.176,8.382 -2.376,11.836 0.396,0.132 1.122,0.572 1.43,0.836 2.244,-3.586 2.574,-8.932 2.574,-12.672 v -1.298 z m -9.174,3.608 h 4.378 v 2.31 h -4.378 z m 8.096,3.872 c -0.814,0.66 -2.178,1.54 -3.278,2.2 -0.726,-0.682 -1.298,-1.474 -1.76,-2.332 h 7.436 v -1.43 h -4.576 v -2.31 h 3.696 v -1.408 h -3.696 v -1.98 h -1.54 v 1.98 h -4.378 v -1.98 h -1.54 v 1.98 h -3.278 v 1.408 h 3.278 v 2.31 h -3.872 v 1.43 h 2.376 v 3.564 c 0,0.968 -0.66,1.452 -1.056,1.672 0.22,0.308 0.572,0.99 0.638,1.386 0.418,-0.286 1.122,-0.484 6.622,-1.826 -0.044,-0.33 0,-0.968 0.066,-1.364 l -4.73,1.056 v -4.488 h 3.036 c 1.496,3.388 4.29,5.632 8.184,6.622 0.22,-0.44 0.638,-1.034 1.012,-1.364 -1.936,-0.396 -3.564,-1.078 -4.906,-2.068 1.122,-0.594 2.464,-1.43 3.498,-2.222 z"
       style="font-style:normal;font-variant:normal;font-weight:normal;font-stretch:normal;font-family:'Noto Sans CJK TC';-inkscape-font-specification:'Noto Sans CJK TC';text-align:center;text-anchor:middle;fill:#ffffff"
       id="path910" />
    <path
       d="m 532.39778,183.21578 h -15.356 v 1.606 h 15.356 z m -13.64,9.196 c -0.924,2.464 -2.464,4.884 -4.202,6.446 0.418,0.22 1.144,0.704 1.496,0.99 1.694,-1.694 3.366,-4.29 4.4,-6.996 z m 15.554,-2.376 v -1.606 h -19.228 v 1.606 h 8.646 v 11.572 h 1.694 v -11.572 z m -5.214,2.948 c 1.584,2.09 3.256,4.95 3.85,6.754 l 1.628,-0.726 c -0.66,-1.87 -2.354,-4.62 -4.004,-6.666 z"
       style="font-style:normal;font-variant:normal;font-weight:normal;font-stretch:normal;font-family:'Noto Sans CJK TC';-inkscape-font-specification:'Noto Sans CJK TC';text-align:center;text-anchor:middle;fill:#ffffff"
       id="path912" />
    <path
       d="m 552.65978,196.37178 v 1.254 h -8.602 v -1.254 z m -8.602,3.542 v -1.276 h 8.602 v 1.276 z m -1.584,1.804 h 1.584 v -0.704 h 8.602 v 0.66 h 1.628 v -6.402 h -11.814 z m 1.43,-11.242 c 0.616,0.726 1.254,1.738 1.562,2.376 l 1.034,-0.594 c -0.286,-0.638 -0.946,-1.606 -1.584,-2.288 z m 6.93,2.376 c 0.506,-0.594 1.122,-1.474 1.628,-2.354 l -1.056,-0.55 c -0.352,0.682 -1.012,1.76 -1.496,2.398 z m 2.662,-7.084 h -13.134 v -1.804 h 13.134 z m -7.282,2.794 c -0.22,-0.462 -0.638,-1.034 -1.012,-1.474 h 6.204 c -0.22,0.44 -0.616,0.99 -0.99,1.474 z m 7.304,4.686 h -4.554 v -3.652 h 4.554 z m -10.538,-3.652 h 4.444 v 3.652 h -4.444 z m 12.166,-6.952 h -16.412 v 6.38 c 0,3.498 -0.176,8.316 -2.266,11.748 0.418,0.154 1.122,0.55 1.43,0.836 2.156,-3.564 2.464,-8.91 2.464,-12.584 v -1.936 h 4.51 l -1.012,0.374 c 0.286,0.33 0.55,0.704 0.792,1.1 h -3.19 v 5.72 h 13.64 v -5.72 h -3.08 c 0.264,-0.352 0.55,-0.726 0.836,-1.1 l -1.188,-0.374 h 3.476 z"
       style="font-style:normal;font-variant:normal;font-weight:normal;font-stretch:normal;font-family:'Noto Sans CJK TC';-inkscape-font-specification:'Noto Sans CJK TC';text-align:center;text-anchor:middle;fill:#ffffff"
       id="path914" />
  </g>
  <g
     aria-label="工作階段層"
     style="font-style:normal;font-weight:normal;font-size:22px;line-height:125%;font-family:Sans;letter-spacing:0px;word-spacing:0px;fill:#ffffff;fill-opacity:1;stroke:none"
     id="text4084-6">
    <path
       d="m 480.66266,248.41781 v -12.628 h 7.898 v -1.672 h -17.38 v 1.672 h 7.7 v 12.628 h -8.844 v 1.628 h 19.624 v -1.628 z"
       style="font-style:normal;font-variant:normal;font-weight:normal;font-stretch:normal;font-family:'Noto Sans CJK TC';-inkscape-font-specification:'Noto Sans CJK TC';text-align:center;text-anchor:middle;fill:#ffffff"
       id="path917" />
    <path
       d="m 497.14066,231.71981 c -1.232,3.344 -3.256,6.622 -5.434,8.734 0.308,0.352 0.792,1.254 0.946,1.628 0.748,-0.77 1.496,-1.65 2.178,-2.618 v 12.232 h 1.628 v -14.762 c 0.858,-1.518 1.65,-3.124 2.244,-4.708 z m 14.762,5.148 v -1.562 h -9.152 c 0.44,-0.968 0.858,-1.958 1.21,-2.97 l -1.562,-0.418 c -1.078,3.212 -2.86,6.38 -4.84,8.426 0.374,0.264 1.012,0.814 1.276,1.1 1.1,-1.232 2.178,-2.816 3.124,-4.576 h 1.518 v 14.85 h 1.65 v -5.324 h 6.578 v -1.54 h -6.578 v -3.322 h 6.27 v -1.518 h -6.27 v -3.146 z"
       style="font-style:normal;font-variant:normal;font-weight:normal;font-stretch:normal;font-family:'Noto Sans CJK TC';-inkscape-font-specification:'Noto Sans CJK TC';text-align:center;text-anchor:middle;fill:#ffffff"
       id="path919" />
    <path
       d="m 519.82266,232.46781 -0.242,0.066 h -4.972 v 19.162 h 1.452 v -17.666 h 2.86 c -0.506,1.474 -1.188,3.388 -1.87,4.95 1.694,1.716 2.156,3.234 2.156,4.444 0,0.682 -0.132,1.276 -0.484,1.518 -0.198,0.132 -0.44,0.176 -0.726,0.198 -0.352,0.044 -0.792,0.022 -1.32,-0.044 0.242,0.44 0.396,1.056 0.418,1.474 0.506,0.022 1.056,0 1.496,-0.044 0.462,-0.044 0.858,-0.176 1.188,-0.418 0.616,-0.418 0.88,-1.364 0.88,-2.552 0,-1.364 -0.396,-2.948 -2.112,-4.774 0.792,-1.716 1.65,-3.85 2.332,-5.654 z m 3.41,6.974 v -3.454 h 3.432 v -1.408 h -3.432 v -2.794 h -1.606 v 7.216 c 0,0.748 -0.374,0.924 -0.704,0.99 0.22,0.396 0.462,1.122 0.528,1.562 0.418,-0.264 1.056,-0.484 5.368,-1.606 -0.066,-0.308 -0.154,-0.902 -0.198,-1.298 z m 7.524,6.71 h -7.15 v -2.09 h 7.15 z m -7.15,3.454 v -2.178 h 7.15 v 2.178 z m 2.398,-8.866 c -0.154,0.594 -0.418,1.342 -0.704,2.002 h -3.3 v 9.042 h 1.606 v -0.836 h 7.15 v 0.748 h 1.65 v -8.954 h -5.478 c 0.264,-0.484 0.572,-1.056 0.858,-1.584 z m 3.784,-1.012 c -0.594,0 -0.704,-0.088 -0.704,-0.682 v -3.058 h 4.268 v -1.408 h -4.268 v -2.794 h -1.584 v 7.282 c 0,1.628 0.418,2.09 2.068,2.09 h 2.354 c 1.364,0 1.782,-0.66 1.936,-3.124 -0.44,-0.088 -1.056,-0.33 -1.408,-0.594 -0.066,1.958 -0.176,2.288 -0.66,2.288 z"
       style="font-style:normal;font-variant:normal;font-weight:normal;font-stretch:normal;font-family:'Noto Sans CJK TC';-inkscape-font-specification:'Noto Sans CJK TC';text-align:center;text-anchor:middle;fill:#ffffff"
       id="path921" />
    <path
       d="m 548.18066,233.87581 h 3.058 v 4.092 c 0,1.496 0.286,2.068 1.738,2.068 h 1.65 c 0.44,0 0.858,0 1.122,-0.088 -0.066,-0.352 -0.088,-0.902 -0.132,-1.276 -0.242,0.066 -0.726,0.088 -1.012,0.088 h -1.474 c -0.308,0 -0.374,-0.176 -0.374,-0.748 v -5.566 h -6.094 v 2.64 c 0,1.606 -0.352,3.542 -2.486,4.994 0.308,0.22 0.902,0.748 1.122,1.034 2.376,-1.584 2.882,-4.026 2.882,-5.984 z m -3.828,11.44 c -1.804,0.264 -3.652,0.528 -5.28,0.77 v -3.19 h 4.906 v -1.452 h -4.906 v -3.014 h 4.928 v -1.452 h -4.928 v -2.398 c 1.914,-0.484 3.982,-1.144 5.544,-1.826 l -1.32,-1.232 c -1.364,0.704 -3.718,1.54 -5.764,2.068 v 0.022 l -0.044,-0.022 v 12.738 c -0.66,0.088 -1.298,0.176 -1.826,0.242 l 0.242,1.54 1.584,-0.264 v 3.564 h 1.584 v -3.806 c 1.694,-0.264 3.52,-0.594 5.346,-0.88 z m 7.986,-2.332 c -0.55,1.606 -1.408,2.948 -2.464,4.026 -1.166,-1.144 -2.046,-2.486 -2.662,-4.026 z m 0.924,-1.474 -0.286,0.066 h -7.854 v 1.408 h 1.54 l -0.814,0.22 c 0.682,1.848 1.65,3.454 2.904,4.796 -1.474,1.144 -3.278,1.958 -5.236,2.42 0.308,0.33 0.682,0.968 0.836,1.408 2.068,-0.616 3.96,-1.474 5.544,-2.772 1.408,1.188 3.08,2.068 4.972,2.64 0.22,-0.462 0.66,-1.078 1.012,-1.408 -1.848,-0.44 -3.476,-1.232 -4.84,-2.266 1.474,-1.518 2.596,-3.52 3.234,-6.138 z"
       style="font-style:normal;font-variant:normal;font-weight:normal;font-stretch:normal;font-family:'Noto Sans CJK TC';-inkscape-font-specification:'Noto Sans CJK TC';text-align:center;text-anchor:middle;fill:#ffffff"
       id="path923" />
    <path
       d="m 573.81066,246.37181 v 1.254 h -8.602 v -1.254 z m -8.602,3.542 v -1.276 h 8.602 v 1.276 z m -1.584,1.804 h 1.584 v -0.704 h 8.602 v 0.66 h 1.628 v -6.402 h -11.814 z m 1.43,-11.242 c 0.616,0.726 1.254,1.738 1.562,2.376 l 1.034,-0.594 c -0.286,-0.638 -0.946,-1.606 -1.584,-2.288 z m 6.93,2.376 c 0.506,-0.594 1.122,-1.474 1.628,-2.354 l -1.056,-0.55 c -0.352,0.682 -1.012,1.76 -1.496,2.398 z m 2.662,-7.084 h -13.134 v -1.804 h 13.134 z m -7.282,2.794 c -0.22,-0.462 -0.638,-1.034 -1.012,-1.474 h 6.204 c -0.22,0.44 -0.616,0.99 -0.99,1.474 z m 7.304,4.686 h -4.554 v -3.652 h 4.554 z m -10.538,-3.652 h 4.444 v 3.652 h -4.444 z m 12.166,-6.952 h -16.412 v 6.38 c 0,3.498 -0.176,8.316 -2.266,11.748 0.418,0.154 1.122,0.55 1.43,0.836 2.156,-3.564 2.464,-8.91 2.464,-12.584 v -1.936 h 4.51 l -1.012,0.374 c 0.286,0.33 0.55,0.704 0.792,1.1 h -3.19 v 5.72 h 13.64 v -5.72 h -3.08 c 0.264,-0.352 0.55,-0.726 0.836,-1.1 l -1.188,-0.374 h 3.476 z"
       style="font-style:normal;font-variant:normal;font-weight:normal;font-stretch:normal;font-family:'Noto Sans CJK TC';-inkscape-font-specification:'Noto Sans CJK TC';text-align:center;text-anchor:middle;fill:#ffffff"
       id="path925" />
  </g>
  <g
     aria-label="輸送層"
     style="font-style:normal;font-weight:normal;font-size:22px;line-height:125%;font-family:Sans;letter-spacing:0px;word-spacing:0px;fill:#ffffff;fill-opacity:1;stroke:none"
     id="text4084-5">
    <path
       d="m 492.68002,313.26416 h 1.694 v 2.112 h -1.694 z m 0,-3.278 h 1.694 v 2.09 h -1.694 z m 4.51,2.09 h -1.628 v -2.09 h 1.628 z m 0,3.3 h -1.628 v -2.112 h 1.628 z m 1.76,4.356 v -1.43 h -3.234 v -1.694 h 2.772 v -7.854 h -2.816 v -1.65 h 3.234 v -1.408 h -3.234 v -2.332 h -1.43 v 2.332 h -3.3 v 1.408 h 3.3 v 1.65 h -2.838 v 7.854 h 2.816 v 1.694 h -3.476 v 1.43 h 3.476 v 3.696 h 1.496 v -3.696 z m 2.112,-1.892 c 0.022,-0.572 0.044,-1.166 0.044,-1.672 v -0.308 h 2.486 v 1.98 z m 2.53,-5.082 v 1.892 h -2.486 v -1.892 z m 1.254,-1.21 h -5.016 v 4.62 c 0,1.958 -0.132,4.51 -1.298,6.424 0.308,0.132 0.836,0.572 1.078,0.814 0.77,-1.254 1.144,-2.838 1.342,-4.356 h 2.64 v 2.706 c 0,0.198 -0.066,0.264 -0.264,0.264 -0.198,0 -0.858,0.022 -1.606,0 0.176,0.352 0.374,0.88 0.44,1.232 1.012,0 1.672,-0.022 2.112,-0.242 0.44,-0.22 0.572,-0.594 0.572,-1.254 z m 3.036,-2.904 h -5.896 v 1.276 h 5.896 z m -0.528,3.3 h -1.188 v 7.854 h 1.188 z m 1.408,9.68 c 0,0.264 -0.088,0.33 -0.352,0.352 -0.264,0.022 -1.122,0.022 -2.134,0 0.176,0.352 0.374,0.858 0.44,1.21 1.298,0 2.112,0 2.64,-0.22 0.506,-0.22 0.638,-0.594 0.638,-1.32 v -10.472 h -1.232 z m -4.136,-18.414 c -1.21,2.332 -3.454,4.532 -5.808,5.764 0.374,0.308 0.814,0.792 1.056,1.166 1.892,-1.122 3.652,-2.75 4.972,-4.642 1.43,1.936 3.102,3.322 5.082,4.51 0.22,-0.418 0.616,-0.88 0.99,-1.188 -2.09,-1.122 -3.894,-2.464 -5.346,-4.466 0.132,-0.22 0.264,-0.44 0.374,-0.66 z"
       style="font-style:normal;font-variant:normal;font-weight:normal;font-stretch:normal;font-family:'Noto Sans CJK TC';-inkscape-font-specification:'Noto Sans CJK TC';text-align:center;text-anchor:middle;fill:#ffffff"
       id="path935" />
    <path
       d="m 524.05202,306.73016 c -0.418,-0.858 -1.254,-2.266 -1.958,-3.3 l -1.342,0.528 c 0.66,1.078 1.474,2.552 1.848,3.41 z m 7.744,12.474 c -1.276,-1.408 -3.806,-3.762 -5.742,-5.522 v -0.044 h 6.446 v -1.518 h -6.27 c 0.022,-0.22 0.022,-0.44 0.022,-0.616 v -2.552 h 5.61 v -1.518 h -3.344 c 0.682,-1.056 1.474,-2.398 2.112,-3.564 l -1.65,-0.528 c -0.462,1.232 -1.342,2.904 -2.112,4.092 h -7.436 v 1.518 h 5.17 v 2.53 c 0,0.198 0,0.418 -0.022,0.638 h -5.764 v 1.518 h 5.588 c -0.418,1.892 -1.716,3.96 -5.522,5.522 0.374,0.286 0.88,0.88 1.1,1.21 3.256,-1.452 4.862,-3.3 5.61,-5.17 1.848,1.76 3.96,3.828 5.06,5.126 z m -14.938,-12.078 c -0.286,-0.902 -0.792,-2.354 -1.188,-3.454 l -1.452,0.418 c 0.33,1.122 0.858,2.618 1.1,3.542 z m 1.012,6.358 -0.264,0.066 h -1.848 c 0.638,-1.496 1.342,-3.322 1.892,-4.884 h -4.928 v 1.474 h 2.904 c -0.594,1.694 -1.32,3.542 -1.936,4.84 h 3.058 c -0.396,1.54 -1.034,3.212 -1.716,4.444 -0.77,0.33 -1.672,1.342 -2.574,2.618 l 1.122,1.496 c 0.66,-1.408 1.408,-2.772 1.892,-2.772 0.506,0 1.298,0.748 2.178,1.276 1.628,0.968 3.52,1.21 6.402,1.21 2.574,0 6.688,-0.132 8.316,-0.242 0.022,-0.484 0.308,-1.254 0.484,-1.694 -2.42,0.264 -5.984,0.462 -8.778,0.462 -2.574,0 -4.532,-0.154 -6.072,-1.1 -0.682,-0.418 -1.166,-0.77 -1.54,-1.034 0.88,-1.628 1.628,-3.806 2.178,-5.83 z"
       style="font-style:normal;font-variant:normal;font-weight:normal;font-stretch:normal;font-family:'Noto Sans CJK TC';-inkscape-font-specification:'Noto Sans CJK TC';text-align:center;text-anchor:middle;fill:#ffffff"
       id="path937" />
    <path
       d="m 550.69402,318.08216 v 1.254 h -8.602 v -1.254 z m -8.602,3.542 v -1.276 h 8.602 v 1.276 z m -1.584,1.804 h 1.584 v -0.704 h 8.602 v 0.66 h 1.628 v -6.402 h -11.814 z m 1.43,-11.242 c 0.616,0.726 1.254,1.738 1.562,2.376 l 1.034,-0.594 c -0.286,-0.638 -0.946,-1.606 -1.584,-2.288 z m 6.93,2.376 c 0.506,-0.594 1.122,-1.474 1.628,-2.354 l -1.056,-0.55 c -0.352,0.682 -1.012,1.76 -1.496,2.398 z m 2.662,-7.084 h -13.134 v -1.804 h 13.134 z m -7.282,2.794 c -0.22,-0.462 -0.638,-1.034 -1.012,-1.474 h 6.204 c -0.22,0.44 -0.616,0.99 -0.99,1.474 z m 7.304,4.686 h -4.554 v -3.652 h 4.554 z m -10.538,-3.652 h 4.444 v 3.652 h -4.444 z m 12.166,-6.952 h -16.412 v 6.38 c 0,3.498 -0.176,8.316 -2.266,11.748 0.418,0.154 1.122,0.55 1.43,0.836 2.156,-3.564 2.464,-8.91 2.464,-12.584 v -1.936 h 4.51 l -1.012,0.374 c 0.286,0.33 0.55,0.704 0.792,1.1 h -3.19 v 5.72 h 13.64 v -5.72 h -3.08 c 0.264,-0.352 0.55,-0.726 0.836,-1.1 l -1.188,-0.374 h 3.476 z"
       style="font-style:normal;font-variant:normal;font-weight:normal;font-stretch:normal;font-family:'Noto Sans CJK TC';-inkscape-font-specification:'Noto Sans CJK TC';text-align:center;text-anchor:middle;fill:#ffffff"
       id="path939" />
  </g>
  <g
     aria-label="網路層"
     style="font-style:normal;font-weight:normal;font-size:22px;line-height:125%;font-family:Sans;letter-spacing:0px;word-spacing:0px;fill:#ffffff;fill-opacity:1;stroke:none"
     id="text4084-1">
    <path
       d="m 490.35278,387.82262 c -0.22,1.76 -0.55,3.696 -1.034,5.06 0.308,0.088 0.946,0.286 1.21,0.44 0.44,-1.364 0.858,-3.388 1.078,-5.302 z m 2.266,0.132 c 0.242,1.496 0.484,3.41 0.528,4.708 l 1.232,-0.308 c -0.066,-1.276 -0.308,-3.168 -0.616,-4.62 z m 2.376,-0.418 c 0.484,1.342 1.012,3.102 1.232,4.268 l 1.144,-0.418 c -0.22,-1.122 -0.792,-2.86 -1.298,-4.224 z m -0.198,-5.038 c 0.242,0.638 0.528,1.342 0.77,2.046 l -3.784,0.528 c 1.738,-2.09 3.432,-4.708 4.818,-7.304 l -1.276,-0.77 c -0.462,1.034 -1.056,2.09 -1.606,3.036 l -2.31,0.22 c 1.21,-1.672 2.398,-3.828 3.322,-5.896 l -1.386,-0.594 c -0.858,2.376 -2.354,4.884 -2.816,5.544 -0.44,0.66 -0.814,1.122 -1.166,1.21 0.154,0.374 0.374,1.1 0.462,1.408 0.286,-0.154 0.748,-0.264 3.036,-0.528 -0.77,1.21 -1.452,2.156 -1.804,2.574 -0.638,0.836 -1.122,1.386 -1.562,1.474 0.176,0.396 0.418,1.1 0.462,1.43 0.418,-0.22 1.078,-0.374 5.984,-1.144 0.088,0.374 0.198,0.748 0.264,1.056 l 1.232,-0.484 c -0.264,-1.056 -0.902,-2.816 -1.474,-4.202 z m 7.898,5.874 c -0.462,0 -0.528,-0.176 -0.528,-0.748 v -2.156 h 4.532 v -1.298 h -3.256 l 0.792,-0.352 c -0.198,-0.484 -0.594,-1.342 -0.968,-1.98 h 3.696 v -1.298 h -1.87 c 0.352,-0.946 0.748,-2.2 1.078,-3.278 l -1.188,-0.352 c -0.198,1.056 -0.638,2.596 -1.034,3.63 h -4.18 v 1.298 h 3.366 l -1.012,0.396 c 0.308,0.572 0.66,1.342 0.858,1.936 h -2.992 v 1.298 h 0.814 v 2.134 c 0,1.452 0.33,1.98 1.782,1.98 h 2.816 c 0.55,0 1.122,-0.022 1.408,-0.11 -0.044,-0.33 -0.088,-0.836 -0.132,-1.21 -0.33,0.088 -0.946,0.11 -1.298,0.11 z m -2.178,-11.154 c 0.528,0.968 0.99,2.288 1.144,3.146 l 1.056,-0.374 c -0.132,-0.858 -0.638,-2.156 -1.188,-3.124 z m 8.404,-2.42 h -11.198 v 19.074 h 1.474 v -17.622 h 8.228 v 15.752 c 0,0.308 -0.088,0.396 -0.374,0.418 -0.264,0 -1.144,0.022 -2.068,-0.022 0.176,0.396 0.374,1.056 0.418,1.452 1.342,0 2.244,-0.022 2.772,-0.286 0.572,-0.264 0.748,-0.66 0.748,-1.562 z"
       style="font-style:normal;font-variant:normal;font-weight:normal;font-stretch:normal;font-family:'Noto Sans CJK TC';-inkscape-font-specification:'Noto Sans CJK TC';fill:#ffffff"
       id="path961" />
    <path
       d="m 522.40678,385.90862 c 1.166,-0.704 2.288,-1.584 3.3,-2.596 0.946,0.946 2.024,1.87 3.256,2.596 z m 0.528,5.654 v -4.224 h 5.5 v 4.224 z m -3.212,-7.018 h -2.728 v -3.168 h 2.53 v -0.66 c 0.396,0.264 0.902,0.726 1.144,0.968 0.704,-0.726 1.386,-1.562 2.002,-2.53 0.55,0.99 1.21,2.024 2.024,3.014 -1.474,1.518 -3.212,2.684 -4.972,3.432 z m -5.852,-8.448 h 4.136 v 3.85 h -4.136 z m 14.014,1.32 c -0.55,1.364 -1.32,2.596 -2.244,3.718 -0.902,-1.078 -1.628,-2.222 -2.178,-3.3 l 0.22,-0.418 z m 1.012,-1.496 -0.286,0.066 h -4.246 c 0.242,-0.594 0.484,-1.232 0.704,-1.87 l -1.562,-0.374 c -0.814,2.64 -2.244,5.104 -3.982,6.754 v -5.83 h -7.106 v 6.71 h 3.08 v 8.888 l -1.694,0.396 v -7.216 h -1.386 v 7.502 l -1.122,0.242 0.308,1.584 c 2.31,-0.572 5.434,-1.32 8.426,-2.046 l -0.154,-1.474 c -0.968,0.242 -1.936,0.462 -2.882,0.682 v -3.938 h 2.31 c 0.308,0.33 0.638,0.77 0.792,1.1 0.44,-0.198 0.88,-0.396 1.32,-0.616 v 7.326 h 1.518 v -0.792 h 5.5 v 0.726 h 1.562 v -7.238 c 0.242,0.11 0.484,0.198 0.704,0.308 0.22,-0.396 0.682,-1.034 1.012,-1.342 -1.98,-0.748 -3.652,-1.914 -5.016,-3.234 1.364,-1.628 2.508,-3.564 3.212,-5.852 z"
       style="font-style:normal;font-variant:normal;font-weight:normal;font-stretch:normal;font-family:'Noto Sans CJK TC';-inkscape-font-specification:'Noto Sans CJK TC';fill:#ffffff"
       id="path963" />
    <path
       d="m 549.37878,388.48262 v 1.254 h -8.602 v -1.254 z m -8.602,3.542 v -1.276 h 8.602 v 1.276 z m -1.584,1.804 h 1.584 v -0.704 h 8.602 v 0.66 h 1.628 v -6.402 h -11.814 z m 1.43,-11.242 c 0.616,0.726 1.254,1.738 1.562,2.376 l 1.034,-0.594 c -0.286,-0.638 -0.946,-1.606 -1.584,-2.288 z m 6.93,2.376 c 0.506,-0.594 1.122,-1.474 1.628,-2.354 l -1.056,-0.55 c -0.352,0.682 -1.012,1.76 -1.496,2.398 z m 2.662,-7.084 h -13.134 v -1.804 h 13.134 z m -7.282,2.794 c -0.22,-0.462 -0.638,-1.034 -1.012,-1.474 h 6.204 c -0.22,0.44 -0.616,0.99 -0.99,1.474 z m 7.304,4.686 h -4.554 v -3.652 h 4.554 z m -10.538,-3.652 h 4.444 v 3.652 h -4.444 z m 12.166,-6.952 h -16.412 v 6.38 c 0,3.498 -0.176,8.316 -2.266,11.748 0.418,0.154 1.122,0.55 1.43,0.836 2.156,-3.564 2.464,-8.91 2.464,-12.584 v -1.936 h 4.51 l -1.012,0.374 c 0.286,0.33 0.55,0.704 0.792,1.1 h -3.19 v 5.72 h 13.64 v -5.72 h -3.08 c 0.264,-0.352 0.55,-0.726 0.836,-1.1 l -1.188,-0.374 h 3.476 z"
       style="font-style:normal;font-variant:normal;font-weight:normal;font-stretch:normal;font-family:'Noto Sans CJK TC';-inkscape-font-specification:'Noto Sans CJK TC';fill:#ffffff"
       id="path965" />
  </g>
  <g
     aria-label="資料連結層"
     style="font-style:normal;font-weight:normal;font-size:22px;line-height:125%;font-family:Sans;letter-spacing:0px;word-spacing:0px;fill:#ffffff;fill-opacity:1;stroke:none"
     id="text4084-8"
     transform="translate(2)">
    <path
       d="m 480.2647,451.53403 v 0.22 c 0,1.144 -0.528,2.64 -6.226,3.41 0.286,0.264 0.704,0.858 0.88,1.21 3.872,-0.594 5.61,-1.606 6.336,-2.684 1.364,1.342 3.476,2.222 5.984,2.574 0.198,-0.396 0.616,-0.99 0.924,-1.298 -2.882,-0.242 -5.28,-1.1 -6.446,-2.42 0.044,-0.264 0.066,-0.506 0.066,-0.726 v -0.286 h 3.498 c -0.308,0.638 -0.704,1.276 -1.034,1.738 l 1.298,0.462 c 0.594,-0.77 1.298,-2.046 1.848,-3.168 l -1.1,-0.374 -0.264,0.066 h -7.37 c 0.154,-0.396 0.33,-0.792 0.462,-1.21 l -1.474,-0.33 c -0.484,1.606 -1.386,3.146 -2.53,4.18 0.352,0.176 0.968,0.594 1.232,0.836 0.594,-0.594 1.166,-1.364 1.65,-2.2 z m -7.546,11.198 h 11.022 v 1.54 h -11.022 z m 0,-2.552 h 11.022 v 1.496 h -11.022 z m 0,-2.552 h 11.022 v 1.496 h -11.022 z m -1.584,7.722 h 14.234 v -8.822 h -14.234 z m 2.86,-15.268 h -5.258 v 1.276 h 5.258 z m 0.55,3.41 h -6.292 v 1.32 h 6.292 z m 0.264,12.012 c -1.562,0.858 -4.202,1.65 -6.446,2.112 0.374,0.286 0.924,0.902 1.21,1.232 2.178,-0.594 4.95,-1.628 6.71,-2.684 z m 5.368,0.858 c 2.376,0.792 4.752,1.738 6.16,2.442 l 1.43,-0.946 c -1.54,-0.704 -4.114,-1.65 -6.468,-2.376 z"
       style="font-style:normal;font-variant:normal;font-weight:normal;font-stretch:normal;font-family:'Noto Sans CJK TC';-inkscape-font-specification:'Noto Sans CJK TC';text-align:center;text-anchor:middle;fill:#ffffff"
       id="path979"
       inkscape:connector-curvature="0" />
    <path
       d="m 504.7507,453.00803 c -0.704,-0.814 -2.222,-1.936 -3.454,-2.684 l -0.836,1.1 c 1.254,0.814 2.75,2.002 3.454,2.838 z m -0.968,5.258 c -0.77,-0.77 -2.376,-1.782 -3.674,-2.464 l -0.77,1.144 c 1.298,0.726 2.882,1.848 3.63,2.64 z m -6.336,-8.162 c -0.33,1.474 -0.946,3.63 -1.474,4.928 l 1.078,0.352 c 0.594,-1.232 1.276,-3.278 1.804,-4.928 z m -4.576,4.906 c -0.154,-1.32 -0.66,-3.3 -1.298,-4.818 l -1.188,0.286 c 0.572,1.54 1.078,3.564 1.21,4.862 z m -0.748,3.916 c -0.374,1.958 -1.276,4.4 -2.2,5.676 0.308,0.484 0.682,1.254 0.858,1.804 1.144,-1.584 2.068,-4.664 2.53,-7.106 z m 6.732,-1.276 v -1.54 h -3.586 v -7.326 h -1.518 v 7.326 h -3.52 v 1.54 h 3.52 v 11.22 h 1.518 v -11.22 z m -3.476,1.936 c 0.462,0.946 1.672,3.762 2.068,4.95 l 1.166,-1.21 c -0.33,-0.748 -1.914,-3.74 -2.332,-4.378 z m 14.894,2.574 -0.242,-1.496 -2.596,0.462 v -12.342 h -1.54 v 12.628 l -7.084,1.254 0.264,1.54 6.82,-1.254 v 5.896 h 1.54 v -6.182 z"
       style="font-style:normal;font-variant:normal;font-weight:normal;font-stretch:normal;font-family:'Noto Sans CJK TC';-inkscape-font-specification:'Noto Sans CJK TC';text-align:center;text-anchor:middle;fill:#ffffff"
       id="path981"
       inkscape:connector-curvature="0" />
    <path
       d="m 520.3487,459.63003 v -1.76 h 3.366 v 1.76 z m 0,-4.642 h 3.366 v 1.716 h -3.366 z m 8.47,0 v 1.716 h -3.52 v -1.716 z m 0,4.642 h -3.52 v -1.76 h 3.52 z m -5.104,6.798 h 1.584 v -2.618 h 6.556 v -1.386 h -6.556 v -1.584 h 5.104 v -7.062 h -5.104 v -1.672 h 6.248 v -1.386 h -6.248 v -1.936 h -1.584 v 1.936 h -5.918 v 1.386 h 5.918 v 1.672 h -4.862 v 7.062 h 4.862 v 1.584 h -5.918 v 1.386 h 5.918 z m -7.744,-13.992 c -0.286,-0.968 -0.792,-2.398 -1.166,-3.542 l -1.452,0.418 c 0.374,1.144 0.858,2.662 1.122,3.63 z m 0.726,6.534 -0.286,0.066 h -1.496 c 0.572,-1.518 1.254,-3.366 1.804,-4.95 h -4.51 v 1.474 h 2.442 c -0.594,1.738 -1.276,3.608 -1.87,4.906 h 2.86 c -0.352,1.584 -0.902,3.322 -1.584,4.576 -0.66,0.44 -1.408,1.342 -2.2,2.442 l 1.122,1.474 c 0.66,-1.386 1.386,-2.772 1.892,-2.772 0.484,0 1.298,0.748 2.2,1.276 1.606,0.968 3.542,1.21 6.424,1.21 2.618,0 6.776,-0.132 8.404,-0.242 0.044,-0.484 0.286,-1.254 0.506,-1.694 -2.464,0.242 -6.028,0.462 -8.844,0.462 -2.618,0 -4.598,-0.154 -6.16,-1.1 -0.814,-0.484 -1.32,-0.902 -1.76,-1.144 0.748,-1.606 1.408,-3.74 1.804,-5.676 z"
       style="font-style:normal;font-variant:normal;font-weight:normal;font-stretch:normal;font-family:'Noto Sans CJK TC';-inkscape-font-specification:'Noto Sans CJK TC';text-align:center;text-anchor:middle;fill:#ffffff"
       id="path983"
       inkscape:connector-curvature="0" />
    <path
       d="m 535.0447,462.82003 c -0.22,1.848 -0.55,3.85 -1.078,5.236 0.352,0.11 1.012,0.33 1.32,0.462 0.44,-1.342 0.858,-3.52 1.122,-5.456 z m 2.464,0.176 c 0.242,1.584 0.506,3.63 0.572,4.994 l 1.298,-0.264 c -0.088,-1.364 -0.352,-3.388 -0.66,-4.972 z m 2.244,-0.418 c 0.462,1.364 0.99,3.168 1.21,4.334 l 1.232,-0.44 c -0.242,-1.144 -0.792,-2.882 -1.32,-4.246 z m -0.132,-5.17 c 0.242,0.638 0.506,1.364 0.726,2.068 l -3.696,0.484 c 1.804,-1.98 3.564,-4.466 4.994,-6.974 l -1.386,-0.836 c -0.506,0.968 -1.056,1.936 -1.65,2.838 l -2.398,0.22 c 1.254,-1.672 2.486,-3.806 3.498,-5.874 l -1.474,-0.638 c -0.946,2.398 -2.552,4.928 -3.014,5.588 -0.484,0.638 -0.88,1.1 -1.254,1.188 0.176,0.396 0.418,1.144 0.506,1.452 0.308,-0.132 0.814,-0.242 3.19,-0.506 -0.836,1.188 -1.562,2.112 -1.914,2.508 -0.66,0.792 -1.188,1.342 -1.65,1.43 0.176,0.418 0.44,1.188 0.506,1.518 0.44,-0.242 1.122,-0.396 6.094,-1.122 0.11,0.462 0.22,0.902 0.286,1.276 l 1.32,-0.462 c -0.242,-1.144 -0.858,-3.08 -1.474,-4.532 z m 11.506,4.554 v 4.466 h -6.16 v -4.466 z m -7.7,6.886 h 1.54 v -0.924 h 6.16 v 0.836 h 1.584 v -8.294 h -9.284 z m 10.516,-15.62 v -1.54 h -5.148 v -2.926 h -1.65 v 2.926 h -4.818 v 1.54 h 4.818 v 3.454 h -4.158 v 1.518 h 10.34 v -1.518 h -4.532 v -3.454 z"
       style="font-style:normal;font-variant:normal;font-weight:normal;font-stretch:normal;font-family:'Noto Sans CJK TC';-inkscape-font-specification:'Noto Sans CJK TC';text-align:center;text-anchor:middle;fill:#ffffff"
       id="path985"
       inkscape:connector-curvature="0" />
    <path
       d="m 572.0927,463.50203 v 1.254 h -8.602 v -1.254 z m -8.602,3.542 v -1.276 h 8.602 v 1.276 z m -1.584,1.804 h 1.584 v -0.704 h 8.602 v 0.66 h 1.628 v -6.402 h -11.814 z m 1.43,-11.242 c 0.616,0.726 1.254,1.738 1.562,2.376 l 1.034,-0.594 c -0.286,-0.638 -0.946,-1.606 -1.584,-2.288 z m 6.93,2.376 c 0.506,-0.594 1.122,-1.474 1.628,-2.354 l -1.056,-0.55 c -0.352,0.682 -1.012,1.76 -1.496,2.398 z m 2.662,-7.084 h -13.134 v -1.804 h 13.134 z m -7.282,2.794 c -0.22,-0.462 -0.638,-1.034 -1.012,-1.474 h 6.204 c -0.22,0.44 -0.616,0.99 -0.99,1.474 z m 7.304,4.686 h -4.554 v -3.652 h 4.554 z m -10.538,-3.652 h 4.444 v 3.652 h -4.444 z m 12.166,-6.952 h -16.412 v 6.38 c 0,3.498 -0.176,8.316 -2.266,11.748 0.418,0.154 1.122,0.55 1.43,0.836 2.156,-3.564 2.464,-8.91 2.464,-12.584 v -1.936 h 4.51 l -1.012,0.374 c 0.286,0.33 0.55,0.704 0.792,1.1 h -3.19 v 5.72 h 13.64 v -5.72 h -3.08 c 0.264,-0.352 0.55,-0.726 0.836,-1.1 l -1.188,-0.374 h 3.476 z"
       style="font-style:normal;font-variant:normal;font-weight:normal;font-stretch:normal;font-family:'Noto Sans CJK TC';-inkscape-font-specification:'Noto Sans CJK TC';text-align:center;text-anchor:middle;fill:#ffffff"
       id="path987"
       inkscape:connector-curvature="0" />
  </g>
  <g
     aria-label="實體層"
     style="font-style:normal;font-weight:normal;font-size:22px;line-height:125%;font-family:Sans;letter-spacing:0px;word-spacing:0px;fill:#ffffff;fill-opacity:1;stroke:none"
     id="text4084-12"
     transform="translate(2)">
    <path
       d="m 493.41416,500.01998 h 15.268 v 2.156 h 1.562 v -3.498 h -8.14 c -0.308,-0.66 -0.792,-1.474 -1.298,-2.068 l -1.386,0.44 c 0.33,0.484 0.704,1.078 0.968,1.628 h -8.47 v 3.498 h 1.496 z m 2.31,11.814 h 10.736 v 1.034 h -10.736 z m 0,-1.958 h 10.736 v 1.012 h -10.736 z m 0,-1.914 h 10.736 v 0.99 h -10.736 z m 12.364,5.874 v -6.842 h -13.948 v 6.842 h 4.202 c -1.408,0.77 -4.356,1.562 -6.688,1.914 0.286,0.308 0.704,0.836 0.88,1.144 2.42,-0.396 5.39,-1.232 7.194,-2.2 l -1.298,-0.858 h 4.84 l -0.814,0.946 c 2.552,0.682 5.126,1.54 6.688,2.134 l 1.078,-1.056 c -1.672,-0.594 -4.312,-1.386 -6.842,-2.024 z m -6.512,-8.734 c 0.022,-0.352 0.066,-0.682 0.11,-1.078 h 4.092 l -0.088,1.078 z m -5.39,-1.078 h 4.114 c -0.044,0.374 -0.088,0.726 -0.132,1.078 h -4.114 z m 4.268,-2.002 -0.066,1.012 h -4.092 l 0.132,-1.012 z m 5.39,1.012 h -4.092 l 0.088,-1.012 h 4.092 z m 1.562,-0.132 0.154,-1.848 h -12.474 l -0.242,1.848 h -3.652 v 1.254 h 3.498 l -0.264,1.914 h 12.694 l 0.176,-1.914 h 3.674 v -1.254 z"
       style="font-style:normal;font-variant:normal;font-weight:normal;font-stretch:normal;font-family:'Noto Sans CJK TC';-inkscape-font-specification:'Noto Sans CJK TC';text-align:center;text-anchor:middle;fill:#ffffff"
       id="path990"
       inkscape:connector-curvature="0" />
    <path
       d="m 531.01216,501.20798 h -1.782 v -1.562 h 1.782 z m 0,2.728 h -1.782 v -1.628 h 1.782 z m -7.326,-1.628 h 1.694 v 1.628 h -1.694 z m 0,-2.662 h 1.694 v 1.562 h -1.694 z m 4.444,2.662 v 1.628 h -1.65 v -1.628 z m -1.65,-1.1 v -1.562 h 1.65 v 1.562 z m 5.852,-2.728 h -2.926 v -1.672 h -1.342 v 1.672 h -1.584 v -1.672 h -1.342 v 1.672 h -2.728 v 6.622 h 9.922 z m 0.55,7.766 h -10.956 v 1.232 h 10.956 z m -8.426,3.41 h 5.83 v 1.848 h -5.83 z m 7.348,2.948 v -4.07 h -8.8 v 4.07 z m -11.506,-6.336 h -5.764 v -1.452 h 5.764 z m -4.774,-7.458 h 3.762 v 1.408 h -2.398 v 3.41 h -1.364 z m 2.332,4.818 v -2.376 h 1.43 v 2.376 z m 2.794,-6.072 h -6.468 v 6.072 h -0.902 v 3.146 h 1.078 v 3.608 c 0,1.738 -0.132,4.004 -1.276,5.676 0.33,0.154 0.902,0.616 1.144,0.88 1.298,-1.87 1.518,-4.554 1.518,-6.556 v -2.948 h 3.454 v 3.718 c -1.342,0.704 -2.618,1.364 -3.564,1.76 l 0.616,1.166 c 0.924,-0.528 1.914,-1.144 2.948,-1.782 v 2.882 c 0,0.22 -0.066,0.308 -0.308,0.308 -0.22,0 -0.99,0 -1.848,-0.022 0.176,0.374 0.396,0.902 0.462,1.254 1.232,0 1.98,-0.022 2.464,-0.22 0.484,-0.242 0.616,-0.594 0.616,-1.298 v -8.426 h 1.012 v -3.146 h -0.946 z m -1.628,12.496 c -0.506,-0.506 -1.518,-1.232 -2.398,-1.782 l -0.748,0.748 c 0.814,0.55 1.804,1.408 2.332,1.936 z m 10.736,5.104 c 0.33,-0.616 0.726,-1.386 1.1,-2.068 l -1.496,-0.44 c -0.22,0.704 -0.616,1.738 -0.946,2.508 h -2.112 c -0.22,-0.704 -0.616,-1.694 -0.946,-2.442 l -1.276,0.374 c 0.286,0.616 0.572,1.408 0.77,2.068 h -3.146 v 1.276 h 11.374 v -1.276 z"
       style="font-style:normal;font-variant:normal;font-weight:normal;font-stretch:normal;font-family:'Noto Sans CJK TC';-inkscape-font-specification:'Noto Sans CJK TC';text-align:center;text-anchor:middle;fill:#ffffff"
       id="path992"
       inkscape:connector-curvature="0" />
    <path
       d="m 551.03216,511.50398 v 1.254 h -8.602 v -1.254 z m -8.602,3.542 v -1.276 h 8.602 v 1.276 z m -1.584,1.804 h 1.584 v -0.704 h 8.602 v 0.66 h 1.628 v -6.402 h -11.814 z m 1.43,-11.242 c 0.616,0.726 1.254,1.738 1.562,2.376 l 1.034,-0.594 c -0.286,-0.638 -0.946,-1.606 -1.584,-2.288 z m 6.93,2.376 c 0.506,-0.594 1.122,-1.474 1.628,-2.354 l -1.056,-0.55 c -0.352,0.682 -1.012,1.76 -1.496,2.398 z m 2.662,-7.084 h -13.134 v -1.804 h 13.134 z m -7.282,2.794 c -0.22,-0.462 -0.638,-1.034 -1.012,-1.474 h 6.204 c -0.22,0.44 -0.616,0.99 -0.99,1.474 z m 7.304,4.686 h -4.554 v -3.652 h 4.554 z m -10.538,-3.652 h 4.444 v 3.652 h -4.444 z m 12.166,-6.952 h -16.412 v 6.38 c 0,3.498 -0.176,8.316 -2.266,11.748 0.418,0.154 1.122,0.55 1.43,0.836 2.156,-3.564 2.464,-8.91 2.464,-12.584 v -1.936 h 4.51 l -1.012,0.374 c 0.286,0.33 0.55,0.704 0.792,1.1 h -3.19 v 5.72 h 13.64 v -5.72 h -3.08 c 0.264,-0.352 0.55,-0.726 0.836,-1.1 l -1.188,-0.374 h 3.476 z"
       style="font-style:normal;font-variant:normal;font-weight:normal;font-stretch:normal;font-family:'Noto Sans CJK TC';-inkscape-font-specification:'Noto Sans CJK TC';text-align:center;text-anchor:middle;fill:#ffffff"
       id="path994"
       inkscape:connector-curvature="0" />
  </g>
  <g
     aria-label="網路存取層"
     style="font-style:normal;font-weight:normal;font-size:22px;line-height:125%;font-family:Sans;letter-spacing:0px;word-spacing:0px;fill:#000000;fill-opacity:1;stroke:none"
     id="text4084-85">
    <path
       d="m 122.34603,483.86436 c -0.22,1.76 -0.55,3.696 -1.034,5.06 0.308,0.088 0.946,0.286 1.21,0.44 0.44,-1.364 0.858,-3.388 1.078,-5.302 z m 2.266,0.132 c 0.242,1.496 0.484,3.41 0.528,4.708 l 1.232,-0.308 c -0.066,-1.276 -0.308,-3.168 -0.616,-4.62 z m 2.376,-0.418 c 0.484,1.342 1.012,3.102 1.232,4.268 l 1.144,-0.418 c -0.22,-1.122 -0.792,-2.86 -1.298,-4.224 z m -0.198,-5.038 c 0.242,0.638 0.528,1.342 0.77,2.046 l -3.784,0.528 c 1.738,-2.09 3.432,-4.708 4.818,-7.304 l -1.276,-0.77 c -0.462,1.034 -1.056,2.09 -1.606,3.036 l -2.31,0.22 c 1.21,-1.672 2.398,-3.828 3.322,-5.896 l -1.386,-0.594 c -0.858,2.376 -2.354,4.884 -2.816,5.544 -0.44,0.66 -0.814,1.122 -1.166,1.21 0.154,0.374 0.374,1.1 0.462,1.408 0.286,-0.154 0.748,-0.264 3.036,-0.528 -0.77,1.21 -1.452,2.156 -1.804,2.574 -0.638,0.836 -1.122,1.386 -1.562,1.474 0.176,0.396 0.418,1.1 0.462,1.43 0.418,-0.22 1.078,-0.374 5.984,-1.144 0.088,0.374 0.198,0.748 0.264,1.056 l 1.232,-0.484 c -0.264,-1.056 -0.902,-2.816 -1.474,-4.202 z m 7.898,5.874 c -0.462,0 -0.528,-0.176 -0.528,-0.748 v -2.156 h 4.532 v -1.298 h -3.256 l 0.792,-0.352 c -0.198,-0.484 -0.594,-1.342 -0.968,-1.98 h 3.696 v -1.298 h -1.87 c 0.352,-0.946 0.748,-2.2 1.078,-3.278 l -1.188,-0.352 c -0.198,1.056 -0.638,2.596 -1.034,3.63 h -4.18 v 1.298 h 3.366 l -1.012,0.396 c 0.308,0.572 0.66,1.342 0.858,1.936 h -2.992 v 1.298 h 0.814 v 2.134 c 0,1.452 0.33,1.98 1.782,1.98 h 2.816 c 0.55,0 1.122,-0.022 1.408,-0.11 -0.044,-0.33 -0.088,-0.836 -0.132,-1.21 -0.33,0.088 -0.946,0.11 -1.298,0.11 z m -2.178,-11.154 c 0.528,0.968 0.99,2.288 1.144,3.146 l 1.056,-0.374 c -0.132,-0.858 -0.638,-2.156 -1.188,-3.124 z m 8.404,-2.42 h -11.198 v 19.074 h 1.474 v -17.622 h 8.228 v 15.752 c 0,0.308 -0.088,0.396 -0.374,0.418 -0.264,0 -1.144,0.022 -2.068,-0.022 0.176,0.396 0.374,1.056 0.418,1.452 1.342,0 2.244,-0.022 2.772,-0.286 0.572,-0.264 0.748,-0.66 0.748,-1.562 z"
       style="font-style:normal;font-variant:normal;font-weight:normal;font-stretch:normal;font-family:'Noto Sans CJK TC';-inkscape-font-specification:'Noto Sans CJK TC';text-align:center;text-anchor:middle"
       id="path968" />
    <path
       d="m 154.40003,481.95036 c 1.166,-0.704 2.288,-1.584 3.3,-2.596 0.946,0.946 2.024,1.87 3.256,2.596 z m 0.528,5.654 v -4.224 h 5.5 v 4.224 z m -3.212,-7.018 h -2.728 v -3.168 h 2.53 v -0.66 c 0.396,0.264 0.902,0.726 1.144,0.968 0.704,-0.726 1.386,-1.562 2.002,-2.53 0.55,0.99 1.21,2.024 2.024,3.014 -1.474,1.518 -3.212,2.684 -4.972,3.432 z m -5.852,-8.448 h 4.136 v 3.85 h -4.136 z m 14.014,1.32 c -0.55,1.364 -1.32,2.596 -2.244,3.718 -0.902,-1.078 -1.628,-2.222 -2.178,-3.3 l 0.22,-0.418 z m 1.012,-1.496 -0.286,0.066 h -4.246 c 0.242,-0.594 0.484,-1.232 0.704,-1.87 l -1.562,-0.374 c -0.814,2.64 -2.244,5.104 -3.982,6.754 v -5.83 h -7.106 v 6.71 h 3.08 v 8.888 l -1.694,0.396 v -7.216 h -1.386 v 7.502 l -1.122,0.242 0.308,1.584 c 2.31,-0.572 5.434,-1.32 8.426,-2.046 l -0.154,-1.474 c -0.968,0.242 -1.936,0.462 -2.882,0.682 v -3.938 h 2.31 c 0.308,0.33 0.638,0.77 0.792,1.1 0.44,-0.198 0.88,-0.396 1.32,-0.616 v 7.326 h 1.518 v -0.792 h 5.5 v 0.726 h 1.562 v -7.238 c 0.242,0.11 0.484,0.198 0.704,0.308 0.22,-0.396 0.682,-1.034 1.012,-1.342 -1.98,-0.748 -3.652,-1.914 -5.016,-3.234 1.364,-1.628 2.508,-3.564 3.212,-5.852 z"
       style="font-style:normal;font-variant:normal;font-weight:normal;font-stretch:normal;font-family:'Noto Sans CJK TC';-inkscape-font-specification:'Noto Sans CJK TC';text-align:center;text-anchor:middle"
       id="path970" />
    <path
       d="m 184.95803,474.22836 v -1.584 h -11.242 c 0.33,-0.814 0.594,-1.628 0.858,-2.464 l -1.672,-0.396 c -0.264,0.946 -0.594,1.914 -0.968,2.86 h -6.072 v 1.584 h 5.412 c -1.43,3.036 -3.432,5.83 -6.116,7.7 0.264,0.374 0.66,1.078 0.836,1.474 0.968,-0.66 1.826,-1.452 2.618,-2.288 v 8.734 h 1.606 v -10.648 c 1.122,-1.54 2.068,-3.212 2.838,-4.972 z m 0.418,8.096 h -5.874 v -1.276 c 1.606,-0.99 3.3,-2.332 4.488,-3.63 l -1.056,-0.836 -0.33,0.11 h -8.954 v 1.496 h 7.458 c -0.968,0.858 -2.156,1.76 -3.234,2.332 v 1.804 h -6.072 v 1.54 h 6.072 v 4.048 c 0,0.308 -0.088,0.396 -0.484,0.418 -0.374,0.044 -1.694,0.044 -3.146,-0.022 0.22,0.484 0.44,1.1 0.528,1.562 1.87,0 3.08,0 3.806,-0.242 0.726,-0.264 0.924,-0.726 0.924,-1.694 v -4.07 h 5.874 z"
       style="font-style:normal;font-variant:normal;font-weight:normal;font-stretch:normal;font-family:'Noto Sans CJK TC';-inkscape-font-specification:'Noto Sans CJK TC';text-align:center;text-anchor:middle"
       id="path972" />
    <path
       d="m 195.05603,475.61436 h -4.29 v -2.926 h 4.29 z m -4.29,6.006 h 4.29 v 2.706 c -1.474,0.22 -2.948,0.44 -4.29,0.616 z m 4.29,-1.496 h -4.29 v -3.058 h 4.29 z m 3.124,-7.436 v -1.518 h -10.67 v 1.518 h 1.716 v 12.474 c -0.792,0.11 -1.518,0.198 -2.134,0.264 l 0.286,1.65 c 2.09,-0.352 4.906,-0.77 7.678,-1.232 v 3.982 h 1.584 v -17.138 z m 7.612,0.044 -0.308,0.066 h -7.854 v 1.606 h 7.414 c -0.506,3.234 -1.452,5.984 -2.728,8.228 -1.254,-2.332 -2.134,-5.104 -2.706,-8.14 l -1.562,0.286 c 0.726,3.608 1.76,6.798 3.278,9.394 -1.32,1.804 -2.882,3.168 -4.62,4.07 0.352,0.308 0.836,0.902 1.078,1.32 1.672,-0.968 3.19,-2.266 4.488,-3.916 1.188,1.65 2.64,2.992 4.378,3.982 0.264,-0.418 0.792,-1.034 1.166,-1.342 -1.826,-0.924 -3.322,-2.332 -4.532,-4.092 1.76,-2.794 2.992,-6.446 3.564,-11.154 z"
       style="font-style:normal;font-variant:normal;font-weight:normal;font-stretch:normal;font-family:'Noto Sans CJK TC';-inkscape-font-specification:'Noto Sans CJK TC';text-align:center;text-anchor:middle"
       id="path974" />
    <path
       d="m 225.37203,484.52436 v 1.254 h -8.602 v -1.254 z m -8.602,3.542 v -1.276 h 8.602 v 1.276 z m -1.584,1.804 h 1.584 v -0.704 h 8.602 v 0.66 h 1.628 v -6.402 h -11.814 z m 1.43,-11.242 c 0.616,0.726 1.254,1.738 1.562,2.376 l 1.034,-0.594 c -0.286,-0.638 -0.946,-1.606 -1.584,-2.288 z m 6.93,2.376 c 0.506,-0.594 1.122,-1.474 1.628,-2.354 l -1.056,-0.55 c -0.352,0.682 -1.012,1.76 -1.496,2.398 z m 2.662,-7.084 h -13.134 v -1.804 h 13.134 z m -7.282,2.794 c -0.22,-0.462 -0.638,-1.034 -1.012,-1.474 h 6.204 c -0.22,0.44 -0.616,0.99 -0.99,1.474 z m 7.304,4.686 h -4.554 v -3.652 h 4.554 z m -10.538,-3.652 h 4.444 v 3.652 h -4.444 z m 12.166,-6.952 h -16.412 v 6.38 c 0,3.498 -0.176,8.316 -2.266,11.748 0.418,0.154 1.122,0.55 1.43,0.836 2.156,-3.564 2.464,-8.91 2.464,-12.584 v -1.936 h 4.51 l -1.012,0.374 c 0.286,0.33 0.55,0.704 0.792,1.1 h -3.19 v 5.72 h 13.64 v -5.72 h -3.08 c 0.264,-0.352 0.55,-0.726 0.836,-1.1 l -1.188,-0.374 h 3.476 z"
       style="font-style:normal;font-variant:normal;font-weight:normal;font-stretch:normal;font-family:'Noto Sans CJK TC';-inkscape-font-specification:'Noto Sans CJK TC';text-align:center;text-anchor:middle"
       id="path976" />
  </g>
  <g
     aria-label="Internet 層"
     style="font-style:normal;font-weight:normal;font-size:22px;line-height:125%;font-family:Sans;letter-spacing:0px;word-spacing:0px;fill:#000000;fill-opacity:1;stroke:none"
     id="text4084-0">
    <path
       d="m 124.20776,391.57974 v -15.70508 h 1.82618 v 15.70508 z"
       style="font-style:normal;font-variant:normal;font-weight:normal;font-stretch:normal;font-family:'Open Sans';-inkscape-font-specification:'Open Sans';text-align:center;text-anchor:middle"
       id="path942" />
    <path
       d="m 138.14038,391.57974 v -7.61621 q 0,-1.43945 -0.65527,-2.14844 -0.65528,-0.70898 -2.05176,-0.70898 -1.84766,0 -2.70703,0.99902 -0.85938,0.99903 -0.85938,3.29785 v 6.17676 h -1.7832 V 379.8063 h 1.4502 l 0.29003,1.61133 h 0.0859 q 0.54785,-0.87011 1.53613,-1.34277 0.98829,-0.4834 2.20215,-0.4834 2.12696,0 3.20118,1.03125 1.07421,1.02051 1.07421,3.27637 v 7.68066 z"
       style="font-style:normal;font-variant:normal;font-weight:normal;font-stretch:normal;font-family:'Open Sans';-inkscape-font-specification:'Open Sans';text-align:center;text-anchor:middle"
       id="path944" />
    <path
       d="m 147.37866,390.32291 q 0.47266,0 0.91309,-0.0645 0.44043,-0.0752 0.69824,-0.15039 v 1.36426 q -0.29004,0.13965 -0.85937,0.22559 -0.5586,0.0967 -1.00977,0.0967 -3.41602,0 -3.41602,-3.59864 v -7.0039 h -1.68652 v -0.85938 l 1.68652,-0.74121 0.75196,-2.51367 h 1.03125 v 2.72851 h 3.41601 v 1.38575 h -3.41601 v 6.92871 q 0,1.06347 0.50488,1.63281 0.50488,0.56934 1.38574,0.56934 z"
       style="font-style:normal;font-variant:normal;font-weight:normal;font-stretch:normal;font-family:'Open Sans';-inkscape-font-specification:'Open Sans';text-align:center;text-anchor:middle"
       id="path946" />
    <path
       d="m 156.3269,391.79459 q -2.61035,0 -4.125,-1.58985 -1.5039,-1.58984 -1.5039,-4.41504 0,-2.84668 1.39648,-4.52246 1.40723,-1.67578 3.77051,-1.67578 2.21289,0 3.50195,1.46094 1.28907,1.45019 1.28907,3.83496 v 1.12793 h -8.11036 q 0.0537,2.07324 1.042,3.14746 0.99902,1.07422 2.80371,1.07422 1.90136,0 3.75976,-0.79492 v 1.58984 q -0.94531,0.4082 -1.79394,0.58008 -0.83789,0.18262 -2.03028,0.18262 z m -0.48339,-10.70996 q -1.41797,0 -2.26661,0.92382 -0.83789,0.92383 -0.98828,2.55664 h 6.15528 q 0,-1.68652 -0.75196,-2.57812 -0.75195,-0.90234 -2.14843,-0.90234 z"
       style="font-style:normal;font-variant:normal;font-weight:normal;font-stretch:normal;font-family:'Open Sans';-inkscape-font-specification:'Open Sans';text-align:center;text-anchor:middle"
       id="path948" />
    <path
       d="m 169.0564,379.59146 q 0.78418,0 1.40722,0.12891 l -0.24707,1.65429 q -0.73047,-0.16113 -1.28906,-0.16113 -1.42871,0 -2.44922,1.16016 -1.00976,1.16015 -1.00976,2.88965 v 6.3164 H 163.6853 V 379.8063 h 1.47168 l 0.2041,2.18067 h 0.0859 q 0.65527,-1.14942 1.5791,-1.77246 0.92383,-0.62305 2.03028,-0.62305 z"
       style="font-style:normal;font-variant:normal;font-weight:normal;font-stretch:normal;font-family:'Open Sans';-inkscape-font-specification:'Open Sans';text-align:center;text-anchor:middle"
       id="path950" />
    <path
       d="m 180.72241,391.57974 v -7.61621 q 0,-1.43945 -0.65527,-2.14844 -0.65527,-0.70898 -2.05176,-0.70898 -1.84766,0 -2.70703,0.99902 -0.85938,0.99903 -0.85938,3.29785 v 6.17676 h -1.7832 V 379.8063 h 1.4502 l 0.29004,1.61133 h 0.0859 q 0.54785,-0.87011 1.53614,-1.34277 0.98828,-0.4834 2.20214,-0.4834 2.12696,0 3.20118,1.03125 1.07422,1.02051 1.07422,3.27637 v 7.68066 z"
       style="font-style:normal;font-variant:normal;font-weight:normal;font-stretch:normal;font-family:'Open Sans';-inkscape-font-specification:'Open Sans';text-align:center;text-anchor:middle"
       id="path952" />
    <path
       d="m 191.13159,391.79459 q -2.61035,0 -4.125,-1.58985 -1.5039,-1.58984 -1.5039,-4.41504 0,-2.84668 1.39648,-4.52246 1.40723,-1.67578 3.77051,-1.67578 2.21289,0 3.50195,1.46094 1.28906,1.45019 1.28906,3.83496 v 1.12793 h -8.11035 q 0.0537,2.07324 1.04199,3.14746 0.99903,1.07422 2.80371,1.07422 1.90137,0 3.75977,-0.79492 v 1.58984 q -0.94531,0.4082 -1.79394,0.58008 -0.8379,0.18262 -2.03028,0.18262 z m -0.4834,-10.70996 q -1.41797,0 -2.2666,0.92382 -0.83789,0.92383 -0.98828,2.55664 h 6.15527 q 0,-1.68652 -0.75195,-2.57812 -0.75195,-0.90234 -2.14844,-0.90234 z"
       style="font-style:normal;font-variant:normal;font-weight:normal;font-stretch:normal;font-family:'Open Sans';-inkscape-font-specification:'Open Sans';text-align:center;text-anchor:middle"
       id="path954" />
    <path
       d="m 202.29272,390.32291 q 0.47266,0 0.91309,-0.0645 0.44043,-0.0752 0.69824,-0.15039 v 1.36426 q -0.29004,0.13965 -0.85937,0.22559 -0.5586,0.0967 -1.00977,0.0967 -3.41601,0 -3.41601,-3.59864 v -7.0039 h -1.68653 v -0.85938 l 1.68653,-0.74121 0.75195,-2.51367 h 1.03125 v 2.72851 h 3.41602 v 1.38575 h -3.41602 v 6.92871 q 0,1.06347 0.50488,1.63281 0.50489,0.56934 1.38574,0.56934 z"
       style="font-style:normal;font-variant:normal;font-weight:normal;font-stretch:normal;font-family:'Open Sans';-inkscape-font-specification:'Open Sans';text-align:center;text-anchor:middle"
       id="path956" />
    <path
       d="m 227.07555,387.90574 v 1.254 h -8.602 v -1.254 z m -8.602,3.542 v -1.276 h 8.602 v 1.276 z m -1.584,1.804 h 1.584 v -0.704 h 8.602 v 0.66 h 1.628 v -6.402 h -11.814 z m 1.43,-11.242 c 0.616,0.726 1.254,1.738 1.562,2.376 l 1.034,-0.594 c -0.286,-0.638 -0.946,-1.606 -1.584,-2.288 z m 6.93,2.376 c 0.506,-0.594 1.122,-1.474 1.628,-2.354 l -1.056,-0.55 c -0.352,0.682 -1.012,1.76 -1.496,2.398 z m 2.662,-7.084 h -13.134 v -1.804 h 13.134 z m -7.282,2.794 c -0.22,-0.462 -0.638,-1.034 -1.012,-1.474 h 6.204 c -0.22,0.44 -0.616,0.99 -0.99,1.474 z m 7.304,4.686 h -4.554 v -3.652 h 4.554 z m -10.538,-3.652 h 4.444 v 3.652 h -4.444 z m 12.166,-6.952 h -16.412 v 6.38 c 0,3.498 -0.176,8.316 -2.266,11.748 0.418,0.154 1.122,0.55 1.43,0.836 2.156,-3.564 2.464,-8.91 2.464,-12.584 v -1.936 h 4.51 l -1.012,0.374 c 0.286,0.33 0.55,0.704 0.792,1.1 h -3.19 v 5.72 h 13.64 v -5.72 h -3.08 c 0.264,-0.352 0.55,-0.726 0.836,-1.1 l -1.188,-0.374 h 3.476 z"
       style="font-style:normal;font-variant:normal;font-weight:normal;font-stretch:normal;font-family:'Noto Sans CJK TC';-inkscape-font-specification:'Noto Sans CJK TC';text-align:center;text-anchor:middle"
       id="path958" />
  </g>
  <g
     aria-label="輸送層"
     style="font-style:normal;font-weight:normal;font-size:22px;line-height:125%;font-family:Sans;letter-spacing:0px;word-spacing:0px;fill:#000000;fill-opacity:1;stroke:none"
     id="text4084-64">
    <path
       d="m 148.71274,313.1922 h 1.694 v 2.112 h -1.694 z m 0,-3.278 h 1.694 v 2.09 h -1.694 z m 4.51,2.09 h -1.628 v -2.09 h 1.628 z m 0,3.3 h -1.628 v -2.112 h 1.628 z m 1.76,4.356 v -1.43 h -3.234 v -1.694 h 2.772 v -7.854 h -2.816 v -1.65 h 3.234 v -1.408 h -3.234 v -2.332 h -1.43 v 2.332 h -3.3 v 1.408 h 3.3 v 1.65 h -2.838 v 7.854 h 2.816 v 1.694 h -3.476 v 1.43 h 3.476 v 3.696 h 1.496 v -3.696 z m 2.112,-1.892 c 0.022,-0.572 0.044,-1.166 0.044,-1.672 v -0.308 h 2.486 v 1.98 z m 2.53,-5.082 v 1.892 h -2.486 v -1.892 z m 1.254,-1.21 h -5.016 v 4.62 c 0,1.958 -0.132,4.51 -1.298,6.424 0.308,0.132 0.836,0.572 1.078,0.814 0.77,-1.254 1.144,-2.838 1.342,-4.356 h 2.64 v 2.706 c 0,0.198 -0.066,0.264 -0.264,0.264 -0.198,0 -0.858,0.022 -1.606,0 0.176,0.352 0.374,0.88 0.44,1.232 1.012,0 1.672,-0.022 2.112,-0.242 0.44,-0.22 0.572,-0.594 0.572,-1.254 z m 3.036,-2.904 h -5.896 v 1.276 h 5.896 z m -0.528,3.3 h -1.188 v 7.854 h 1.188 z m 1.408,9.68 c 0,0.264 -0.088,0.33 -0.352,0.352 -0.264,0.022 -1.122,0.022 -2.134,0 0.176,0.352 0.374,0.858 0.44,1.21 1.298,0 2.112,0 2.64,-0.22 0.506,-0.22 0.638,-0.594 0.638,-1.32 v -10.472 h -1.232 z m -4.136,-18.414 c -1.21,2.332 -3.454,4.532 -5.808,5.764 0.374,0.308 0.814,0.792 1.056,1.166 1.892,-1.122 3.652,-2.75 4.972,-4.642 1.43,1.936 3.102,3.322 5.082,4.51 0.22,-0.418 0.616,-0.88 0.99,-1.188 -2.09,-1.122 -3.894,-2.464 -5.346,-4.466 0.132,-0.22 0.264,-0.44 0.374,-0.66 z"
       style="font-style:normal;font-variant:normal;font-weight:normal;font-stretch:normal;font-family:'Noto Sans CJK TC';-inkscape-font-specification:'Noto Sans CJK TC';text-align:center;text-anchor:middle"
       id="path928" />
    <path
       d="m 180.08474,306.6582 c -0.418,-0.858 -1.254,-2.266 -1.958,-3.3 l -1.342,0.528 c 0.66,1.078 1.474,2.552 1.848,3.41 z m 7.744,12.474 c -1.276,-1.408 -3.806,-3.762 -5.742,-5.522 v -0.044 h 6.446 v -1.518 h -6.27 c 0.022,-0.22 0.022,-0.44 0.022,-0.616 v -2.552 h 5.61 v -1.518 h -3.344 c 0.682,-1.056 1.474,-2.398 2.112,-3.564 l -1.65,-0.528 c -0.462,1.232 -1.342,2.904 -2.112,4.092 h -7.436 v 1.518 h 5.17 v 2.53 c 0,0.198 0,0.418 -0.022,0.638 h -5.764 v 1.518 h 5.588 c -0.418,1.892 -1.716,3.96 -5.522,5.522 0.374,0.286 0.88,0.88 1.1,1.21 3.256,-1.452 4.862,-3.3 5.61,-5.17 1.848,1.76 3.96,3.828 5.06,5.126 z m -14.938,-12.078 c -0.286,-0.902 -0.792,-2.354 -1.188,-3.454 l -1.452,0.418 c 0.33,1.122 0.858,2.618 1.1,3.542 z m 1.012,6.358 -0.264,0.066 h -1.848 c 0.638,-1.496 1.342,-3.322 1.892,-4.884 h -4.928 v 1.474 h 2.904 c -0.594,1.694 -1.32,3.542 -1.936,4.84 h 3.058 c -0.396,1.54 -1.034,3.212 -1.716,4.444 -0.77,0.33 -1.672,1.342 -2.574,2.618 l 1.122,1.496 c 0.66,-1.408 1.408,-2.772 1.892,-2.772 0.506,0 1.298,0.748 2.178,1.276 1.628,0.968 3.52,1.21 6.402,1.21 2.574,0 6.688,-0.132 8.316,-0.242 0.022,-0.484 0.308,-1.254 0.484,-1.694 -2.42,0.264 -5.984,0.462 -8.778,0.462 -2.574,0 -4.532,-0.154 -6.072,-1.1 -0.682,-0.418 -1.166,-0.77 -1.54,-1.034 0.88,-1.628 1.628,-3.806 2.178,-5.83 z"
       style="font-style:normal;font-variant:normal;font-weight:normal;font-stretch:normal;font-family:'Noto Sans CJK TC';-inkscape-font-specification:'Noto Sans CJK TC';text-align:center;text-anchor:middle"
       id="path930" />
    <path
       d="m 206.72674,318.0102 v 1.254 h -8.602 v -1.254 z m -8.602,3.542 v -1.276 h 8.602 v 1.276 z m -1.584,1.804 h 1.584 v -0.704 h 8.602 v 0.66 h 1.628 v -6.402 h -11.814 z m 1.43,-11.242 c 0.616,0.726 1.254,1.738 1.562,2.376 l 1.034,-0.594 c -0.286,-0.638 -0.946,-1.606 -1.584,-2.288 z m 6.93,2.376 c 0.506,-0.594 1.122,-1.474 1.628,-2.354 l -1.056,-0.55 c -0.352,0.682 -1.012,1.76 -1.496,2.398 z m 2.662,-7.084 h -13.134 v -1.804 h 13.134 z m -7.282,2.794 c -0.22,-0.462 -0.638,-1.034 -1.012,-1.474 h 6.204 c -0.22,0.44 -0.616,0.99 -0.99,1.474 z m 7.304,4.686 h -4.554 v -3.652 h 4.554 z m -10.538,-3.652 h 4.444 v 3.652 h -4.444 z m 12.166,-6.952 h -16.412 v 6.38 c 0,3.498 -0.176,8.316 -2.266,11.748 0.418,0.154 1.122,0.55 1.43,0.836 2.156,-3.564 2.464,-8.91 2.464,-12.584 v -1.936 h 4.51 l -1.012,0.374 c 0.286,0.33 0.55,0.704 0.792,1.1 h -3.19 v 5.72 h 13.64 v -5.72 h -3.08 c 0.264,-0.352 0.55,-0.726 0.836,-1.1 l -1.188,-0.374 h 3.476 z"
       style="font-style:normal;font-variant:normal;font-weight:normal;font-stretch:normal;font-family:'Noto Sans CJK TC';-inkscape-font-specification:'Noto Sans CJK TC';text-align:center;text-anchor:middle"
       id="path932" />
  </g>
  <text
     xml:space="preserve"
     style="font-style:normal;font-variant:normal;font-weight:normal;font-stretch:normal;font-size:22px;line-height:125%;font-family:'Open Sans';-inkscape-font-specification:'Open Sans';letter-spacing:0px;word-spacing:0px;fill:#000000;fill-opacity:1;stroke:none"
     x="-152.29993"
     y="109.25325"
     id="text3039"><tspan
       id="tspan3041"
       x="-152.29993"
       y="109.25325" /><tspan
       id="tspan3043"
       x="-152.29993"
       y="136.75325" /></text>
  <g
     aria-label="TCP/IP 模型"
     style="font-style:normal;font-variant:normal;font-weight:normal;font-stretch:normal;font-size:22px;line-height:125%;font-family:'Open Sans';-inkscape-font-specification:'Open Sans';letter-spacing:0px;word-spacing:0px;fill:#30ba78;fill-opacity:1;stroke:none"
     id="text3045">
    <path
       d="M 95.498047,69.648437 H 92.509766 V 46.603516 h -8.138672 v -2.654297 h 19.265626 v 2.654297 h -8.138673 z"
       style="font-size:36px;text-align:center;text-anchor:middle;fill:#30ba78"
       id="path860" />
    <path
       d="m 118.49023,46.251953 q -4.23632,0 -6.69726,2.830078 -2.44336,2.8125 -2.44336,7.716797 0,5.044922 2.35547,7.804688 2.37305,2.742187 6.75,2.742187 2.68945,0 6.13476,-0.966797 v 2.619141 Q 121.91797,70 117.99805,70 q -5.67774,0 -8.77149,-3.445313 -3.07617,-3.445312 -3.07617,-9.791015 0,-3.972656 1.47656,-6.960938 1.49414,-2.988281 4.28907,-4.605468 2.8125,-1.617188 6.60937,-1.617188 4.04297,0 7.06641,1.476563 l -1.26563,2.566406 q -2.91797,-1.371094 -5.83594,-1.371094 z"
       style="font-size:36px;text-align:center;text-anchor:middle;fill:#30ba78"
       id="path862" />
    <path
       d="m 146.49219,51.4375 q 0,3.902344 -2.67188,6.011719 -2.65429,2.091797 -7.61133,2.091797 h -3.02343 v 10.107421 h -2.98828 V 43.949219 h 6.6621 q 9.63282,0 9.63282,7.488281 z m -13.30664,5.537109 h 2.68945 q 3.97266,0 5.74805,-1.283203 1.77539,-1.283203 1.77539,-4.113281 0,-2.548828 -1.66992,-3.796875 -1.66993,-1.248047 -5.20313,-1.248047 h -3.33984 z"
       style="font-size:36px;text-align:center;text-anchor:middle;fill:#30ba78"
       id="path864" />
    <path
       d="m 161.16992,43.949219 -9.58008,25.699218 h -2.91797 l 9.58008,-25.699218 z"
       style="font-size:36px;text-align:center;text-anchor:middle;fill:#30ba78"
       id="path866" />
    <path
       d="M 165.07227,69.648437 V 43.949219 h 2.98828 v 25.699218 z"
       style="font-size:36px;text-align:center;text-anchor:middle;fill:#30ba78"
       id="path868" />
    <path
       d="m 191.42187,51.4375 q 0,3.902344 -2.67187,6.011719 -2.6543,2.091797 -7.61133,2.091797 h -3.02344 v 10.107421 h -2.98828 V 43.949219 h 6.66211 q 9.63281,0 9.63281,7.488281 z m -13.30664,5.537109 h 2.68946 q 3.97265,0 5.74804,-1.283203 1.77539,-1.283203 1.77539,-4.113281 0,-2.548828 -1.66992,-3.796875 -1.66992,-1.248047 -5.20312,-1.248047 h -3.33985 z"
       style="font-size:36px;text-align:center;text-anchor:middle;fill:#30ba78"
       id="path870" />
    <path
       d="m 229.60156,47.292437 h 2.412 v -2.556 h 4.86 v -2.268 h -4.86 v -2.88 h -2.412 v 2.88 h -3.024 v 2.268 h 3.024 z m -9.612,0 h 2.448 v -2.52 h 2.88 v -2.267999 h -2.88 v -2.916001 h -2.448 v 2.916001 h -4.428 v 2.267999 h 4.428 z m -4.068,10.008 c -0.612,-1.079999 -3.132,-5.472 -4.068,-6.912 v -1.44 h 4.032 v -2.52 h -4.032 v -6.911999 h -2.484 v 6.911999 h -4.572 v 2.52 h 4.392 c -1.044,4.716 -3.168,10.44 -5.256,13.392 0.468,0.648001 1.08,1.800001 1.368,2.592001 1.476,-2.304001 2.952,-6.012001 4.068,-9.792001 v 17.244001 h 2.484 V 54.024437 c 0.936,1.836001 1.944,4.032 2.412,5.220001 z m 3.78,-2.664 h 12.42 v 2.556 h -12.42 z m 0,-4.464 h 12.42 v 2.556 h -12.42 z m 16.74,14.292001 v -2.268 h -9.828 c 0.18,-0.936 0.36,-1.944001 0.468,-2.988 h 7.632 v -11.052 h -17.532 v 11.052 h 7.272 c -0.108,1.043999 -0.288,2.087999 -0.504,2.988 h -9.108 v 2.268 h 8.316 c -1.332,2.735999 -3.924,4.643999 -9.18,5.831999 0.54,0.504 1.152,1.512 1.404,2.124001 6.3,-1.548 9.18,-4.104 10.584,-7.956 z m -10.512,1.908 c 3.168,1.763999 7.38,4.319999 9.504,5.903999 l 1.656,-1.98 c -2.196,-1.476 -6.444,-3.959999 -9.576,-5.616 z"
       style="font-style:normal;font-variant:normal;font-weight:normal;font-stretch:normal;font-family:'Noto Sans CJK TC';-inkscape-font-specification:'Noto Sans CJK TC'"
       id="path872" />
    <path
       d="m 270.64156,39.768437 h -2.556 v 15.948 c 0,0.504001 -0.144,0.648 -0.684,0.648 -0.54,0.072 -2.34,0.072 -4.392,0 0.396,0.72 0.792,1.728001 0.9,2.448001 2.556,0 4.284,-0.036 5.364,-0.432001 1.08,-0.432 1.368,-1.116 1.368,-2.592 z m -6.732,1.800001 h -2.484 v 11.987999 h 2.484 z m -15.732,6.515999 v -4.716 h 4.428 v 4.932 h -4.428 z m 4.428,2.592 v 7.704 h 2.52 v -7.704 h 4.068 v -2.376 h -4.068 v -4.932 h 3.348 v -2.376 h -16.128 v 2.376 h 3.348 v 4.644001 0.287999 h -4.536 v 2.376 h 4.356 c -0.432,2.412 -1.548,4.824001 -4.68,6.732 0.504,0.396 1.404,1.368 1.764,1.872 3.636,-2.303999 4.968,-5.507999 5.4,-8.604 z m 5.544,18.000001 v -4.536 h 10.872 v -2.448001 h -10.872 v -4.032 h -2.7 v 4.032 h -11.304 v 2.448001 h 11.304 v 4.536 h -15.012 v 2.52 h 32.328 v -2.52 z"
       style="font-style:normal;font-variant:normal;font-weight:normal;font-stretch:normal;font-family:'Noto Sans CJK TC';-inkscape-font-specification:'Noto Sans CJK TC'"
       id="path874" />
  </g>
  <g
     aria-label="OSI 模型"
     style="font-style:normal;font-variant:normal;font-weight:normal;font-stretch:normal;font-size:22px;line-height:125%;font-family:'Open Sans';-inkscape-font-specification:'Open Sans';letter-spacing:0px;word-spacing:0px;fill:#0c322c;fill-opacity:1;stroke:none"
     id="text3049">
    <path
       d="m 470.28223,56.763672 q 0,6.169922 -3.12891,9.703125 Q 464.04199,70 458.4873,70 q -5.67773,0 -8.77148,-3.462891 -3.07617,-3.480468 -3.07617,-9.808593 0,-6.275391 3.09375,-9.720704 3.09375,-3.46289 8.78906,-3.46289 5.53711,0 8.64844,3.515625 3.11133,3.515625 3.11133,9.703125 z m -20.47852,0 q 0,5.220703 2.21484,7.927734 2.23243,2.689453 6.46875,2.689453 4.27149,0 6.45118,-2.689453 2.17968,-2.689453 2.17968,-7.927734 0,-5.185547 -2.17968,-7.857422 -2.16211,-2.689453 -6.41602,-2.689453 -4.27148,0 -6.50391,2.707031 -2.21484,2.689453 -2.21484,7.839844 z"
       style="font-size:36px;text-align:center;text-anchor:middle;fill:#0c322c"
       id="path877" />
    <path
       d="m 490.53223,62.810547 q 0,3.392578 -2.46094,5.291015 Q 485.61035,70 481.3916,70 q -4.57031,0 -7.03125,-1.177734 v -2.882813 q 1.58203,0.667969 3.44531,1.054688 1.86329,0.386718 3.69141,0.386718 2.98828,0 4.5,-1.125 1.51172,-1.142578 1.51172,-3.164062 0,-1.335938 -0.54492,-2.179688 -0.52735,-0.861328 -1.79297,-1.582031 -1.24805,-0.720703 -3.81445,-1.634766 -3.58594,-1.283203 -5.13282,-3.041015 -1.52929,-1.757813 -1.52929,-4.587891 0,-2.970703 2.23242,-4.728515 2.23242,-1.757813 5.90625,-1.757813 3.83203,0 7.04883,1.40625 l -0.93164,2.601563 q -3.18165,-1.335938 -6.1875,-1.335938 -2.37305,0 -3.70899,1.019531 -1.33594,1.019532 -1.33594,2.830078 0,1.335938 0.49219,2.197266 0.49219,0.84375 1.65234,1.564453 1.17774,0.703125 3.58594,1.564453 4.04297,1.441407 5.55469,3.09375 1.5293,1.652344 1.5293,4.289063 z"
       style="font-size:36px;text-align:center;text-anchor:middle;fill:#0c322c"
       id="path879" />
    <path
       d="M 495.78809,69.648437 V 43.949219 h 2.98828 v 25.699218 z"
       style="font-size:36px;text-align:center;text-anchor:middle;fill:#0c322c"
       id="path881" />
    <path
       d="m 538.66113,47.292437 h 2.412 v -2.556 h 4.86 v -2.268 h -4.86 v -2.88 h -2.412 v 2.88 h -3.024 v 2.268 h 3.024 z m -9.612,0 h 2.448 v -2.52 h 2.88 v -2.267999 h -2.88 v -2.916001 h -2.448 v 2.916001 h -4.428 v 2.267999 h 4.428 z m -4.068,10.008 c -0.612,-1.079999 -3.132,-5.472 -4.068,-6.912 v -1.44 h 4.032 v -2.52 h -4.032 v -6.911999 h -2.484 v 6.911999 h -4.572 v 2.52 h 4.392 c -1.044,4.716 -3.168,10.44 -5.256,13.392 0.468,0.648001 1.08,1.800001 1.368,2.592001 1.476,-2.304001 2.952,-6.012001 4.068,-9.792001 v 17.244001 h 2.484 V 54.024437 c 0.936,1.836001 1.944,4.032 2.412,5.220001 z m 3.78,-2.664 h 12.42 v 2.556 h -12.42 z m 0,-4.464 h 12.42 v 2.556 h -12.42 z m 16.74,14.292001 v -2.268 h -9.828 c 0.18,-0.936 0.36,-1.944001 0.468,-2.988 h 7.632 v -11.052 h -17.532 v 11.052 h 7.272 c -0.108,1.043999 -0.288,2.087999 -0.504,2.988 h -9.108 v 2.268 h 8.316 c -1.332,2.735999 -3.924,4.643999 -9.18,5.831999 0.54,0.504 1.152,1.512 1.404,2.124001 6.3,-1.548 9.18,-4.104 10.584,-7.956 z m -10.512,1.908 c 3.168,1.763999 7.38,4.319999 9.504,5.903999 l 1.656,-1.98 c -2.196,-1.476 -6.444,-3.959999 -9.576,-5.616 z"
       style="font-style:normal;font-variant:normal;font-weight:normal;font-stretch:normal;font-family:'Noto Sans CJK TC';-inkscape-font-specification:'Noto Sans CJK TC';text-align:center;text-anchor:middle"
       id="path883" />
    <path
       d="m 579.70113,39.768437 h -2.556 v 15.948 c 0,0.504001 -0.144,0.648 -0.684,0.648 -0.54,0.072 -2.34,0.072 -4.392,0 0.396,0.72 0.792,1.728001 0.9,2.448001 2.556,0 4.284,-0.036 5.364,-0.432001 1.08,-0.432 1.368,-1.116 1.368,-2.592 z m -6.732,1.800001 h -2.484 v 11.987999 h 2.484 z m -15.732,6.515999 v -4.716 h 4.428 v 4.932 h -4.428 z m 4.428,2.592 v 7.704 h 2.52 v -7.704 h 4.068 v -2.376 h -4.068 v -4.932 h 3.348 v -2.376 h -16.128 v 2.376 h 3.348 v 4.644001 0.287999 h -4.536 v 2.376 h 4.356 c -0.432,2.412 -1.548,4.824001 -4.68,6.732 0.504,0.396 1.404,1.368 1.764,1.872 3.636,-2.303999 4.968,-5.507999 5.4,-8.604 z m 5.544,18.000001 v -4.536 h 10.872 v -2.448001 h -10.872 v -4.032 h -2.7 v 4.032 h -11.304 v 2.448001 h 11.304 v 4.536 h -15.012 v 2.52 h 32.328 v -2.52 z"
       style="font-style:normal;font-variant:normal;font-weight:normal;font-stretch:normal;font-family:'Noto Sans CJK TC';-inkscape-font-specification:'Noto Sans CJK TC';text-align:center;text-anchor:middle"
       id="path885" />
  </g>
</svg>
