<?xml version="1.0" encoding="UTF-8" standalone="no"?>
<svg
   width="919.9"
   height="483.24"
   viewBox="0 0 243.39 127.86"
   version="1.1"
   id="svg6905"
   sodipodi:docname="wicked_scheme.svg"
   inkscape:version="1.2.2 (732a01da63, 2022-12-09)"
   xmlns:inkscape="http://www.inkscape.org/namespaces/inkscape"
   xmlns:sodipodi="http://sodipodi.sourceforge.net/DTD/sodipodi-0.dtd"
   xmlns="http://www.w3.org/2000/svg"
   xmlns:svg="http://www.w3.org/2000/svg">
  <sodipodi:namedview
     id="namedview6907"
     pagecolor="#ffffff"
     bordercolor="#000000"
     borderopacity="0.25"
     inkscape:showpageshadow="2"
     inkscape:pageopacity="0.0"
     inkscape:pagecheckerboard="0"
     inkscape:deskcolor="#d1d1d1"
     showgrid="false"
     inkscape:zoom="1.4892923"
     inkscape:cx="459.95"
     inkscape:cy="241.72555"
     inkscape:window-width="1920"
     inkscape:window-height="1009"
     inkscape:window-x="-8"
     inkscape:window-y="-8"
     inkscape:window-maximized="1"
     inkscape:current-layer="svg6905" />
  <defs
     id="defs6803">
    <marker
       id="b"
       markerHeight="4.71"
       markerWidth="3.06"
       orient="auto"
       refX="1.53"
       refY="2.35">
      <path
         fill="none"
         stroke="#000"
         d="m2.7.35-2 2 2 2"
         id="path6794" />
    </marker>
    <marker
       id="a"
       markerHeight="4.71"
       markerWidth="3.06"
       orient="auto"
       refX="1.53"
       refY="2.35">
      <path
         fill="none"
         stroke="#000"
         d="m.35.35 2 2-2 2"
         id="path6797" />
    </marker>
    <marker
       id="c"
       markerHeight="4.71"
       markerWidth="3.06"
       orient="auto"
       refX="1.53"
       refY="2.35">
      <path
         fill="none"
         stroke="#000"
         d="m.35.35 2 2-2 2"
         id="path6800" />
    </marker>
  </defs>
  <g
     transform="translate(-2.87 -52.06)"
     id="g6903">
    <rect
       width="18.52"
       height="18.52"
       x="222.25"
       y="65.09"
       fill="#c0c2c4"
       paint-order="stroke fill markers"
       rx="0"
       ry="0"
       id="rect6805" />
    <g
       aria-label="dhcp4"
       id="text6809"
       style="font-weight:500;font-size:3.7px;line-height:1.25;font-family:Poppins;-inkscape-font-specification:'Poppins, Medium';letter-spacing:0;stroke-width:0.26">
      <path
         d="m 225.6391,74.208803 q 0,-0.3108 0.1258,-0.5439 0.1258,-0.2368 0.3441,-0.3663 0.222,-0.1295 0.4958,-0.1295 0.2368,0 0.4403,0.111 0.2035,0.1073 0.3108,0.2849 v -1.073 h 0.3404 v 2.738 h -0.3404 v -0.3811 q -0.0999,0.1813 -0.296,0.2997 -0.1961,0.1147 -0.4588,0.1147 -0.2701,0 -0.4921,-0.1332 -0.2183,-0.1332 -0.3441,-0.3737 -0.1258,-0.2405 -0.1258,-0.5476 z m 1.7168,0.0037 q 0,-0.2294 -0.0925,-0.3996 -0.0925,-0.1702 -0.2516,-0.259 -0.1554,-0.0925 -0.3441,-0.0925 -0.1887,0 -0.3441,0.0888 -0.1554,0.0888 -0.2479,0.259 -0.0925,0.1702 -0.0925,0.3996 0,0.2331 0.0925,0.407 0.0925,0.1702 0.2479,0.2627 0.1554,0.0888 0.3441,0.0888 0.1887,0 0.3441,-0.0888 0.1591,-0.0925 0.2516,-0.2627 0.0925,-0.1739 0.0925,-0.4033 z"
         id="path544" />
      <path
         d="m 229.2725,73.165403 q 0.2294,0 0.4144,0.0999 0.185,0.0962 0.2886,0.2923 0.1073,0.1961 0.1073,0.4773 v 1.1951 h -0.333 v -1.147 q 0,-0.3034 -0.1517,-0.4625 -0.1517,-0.1628 -0.4144,-0.1628 -0.2664,0 -0.4255,0.1665 -0.1554,0.1665 -0.1554,0.4847 v 1.1211 h -0.3367 v -2.738 h 0.3367 v 0.999 q 0.0999,-0.1554 0.2738,-0.2405 0.1776,-0.0851 0.3959,-0.0851 z"
         id="path546" />
      <path
         d="m 230.5083,74.212503 q 0,-0.3145 0.1258,-0.5476 0.1258,-0.2368 0.3478,-0.3663 0.2257,-0.1295 0.5143,-0.1295 0.3737,0 0.6142,0.1813 0.2442,0.1813 0.3219,0.5032 h -0.3626 q -0.0518,-0.185 -0.2035,-0.2923 -0.148,-0.1073 -0.37,-0.1073 -0.2886,0 -0.4662,0.1998 -0.1776,0.1961 -0.1776,0.5587 0,0.3663 0.1776,0.5661 0.1776,0.1998 0.4662,0.1998 0.222,0 0.37,-0.1036 0.148,-0.1036 0.2035,-0.296 h 0.3626 q -0.0814,0.3108 -0.3256,0.4995 -0.2442,0.185 -0.6105,0.185 -0.2886,0 -0.5143,-0.1295 -0.222,-0.1295 -0.3478,-0.3663 -0.1258,-0.2368 -0.1258,-0.555 z"
         id="path548" />
      <path
         d="m 233.2167,73.576103 q 0.0999,-0.1739 0.296,-0.2886 0.1998,-0.1184 0.4625,-0.1184 0.2701,0 0.4884,0.1295 0.222,0.1295 0.3478,0.3663 0.1258,0.2331 0.1258,0.5439 0,0.3071 -0.1258,0.5476 -0.1258,0.2405 -0.3478,0.3737 -0.2183,0.1332 -0.4884,0.1332 -0.259,0 -0.4588,-0.1147 -0.1961,-0.1184 -0.2997,-0.2923 v 1.3357 H 232.88 v -2.9896 h 0.3367 z m 1.3764,0.6327 q 0,-0.2294 -0.0925,-0.3996 -0.0925,-0.1702 -0.2516,-0.259 -0.1554,-0.0888 -0.3441,-0.0888 -0.185,0 -0.3441,0.0925 -0.1554,0.0888 -0.2516,0.2627 -0.0925,0.1702 -0.0925,0.3959 0,0.2294 0.0925,0.4033 0.0962,0.1702 0.2516,0.2627 0.1591,0.0888 0.3441,0.0888 0.1887,0 0.3441,-0.0888 0.1591,-0.0925 0.2516,-0.2627 0.0925,-0.1739 0.0925,-0.407 z"
         id="path550" />
      <path
         d="m 235.2443,74.634303 v -0.2553 l 1.2987,-1.7982 h 0.4033 v 1.7612 h 0.37 v 0.2923 h -0.37 v 0.5957 h -0.333 v -0.5957 z m 1.3838,-1.702 -0.9953,1.4097 h 0.9953 z"
         id="path552" />
    </g>
    <rect
       width="18.52"
       height="18.52"
       x="222.25"
       y="88.9"
       fill="#c0c2c4"
       paint-order="stroke fill markers"
       rx="0"
       ry="0"
       id="rect6811" />
    <g
       aria-label="dhcp6"
       id="text6815"
       style="font-weight:500;font-size:3.7px;line-height:1.25;font-family:Poppins;-inkscape-font-specification:'Poppins, Medium';letter-spacing:0;stroke-width:0.26">
      <path
         d="m 225.6391,98.028803 q 0,-0.3108 0.1258,-0.5439 0.1258,-0.2368 0.3441,-0.3663 0.222,-0.1295 0.4958,-0.1295 0.2368,0 0.4403,0.111 0.2035,0.1073 0.3108,0.2849 v -1.073 h 0.3404 v 2.738 h -0.3404 v -0.3811 q -0.0999,0.1813 -0.296,0.2997 -0.1961,0.1147 -0.4588,0.1147 -0.2701,0 -0.4921,-0.1332 -0.2183,-0.1332 -0.3441,-0.3737 -0.1258,-0.2405 -0.1258,-0.5476 z m 1.7168,0.0037 q 0,-0.2294 -0.0925,-0.3996 -0.0925,-0.1702 -0.2516,-0.259 -0.1554,-0.0925 -0.3441,-0.0925 -0.1887,0 -0.3441,0.0888 -0.1554,0.0888 -0.2479,0.259 -0.0925,0.1702 -0.0925,0.3996 0,0.2331 0.0925,0.407 0.0925,0.1702 0.2479,0.2627 0.1554,0.0888 0.3441,0.0888 0.1887,0 0.3441,-0.0888 0.1591,-0.0925 0.2516,-0.2627 0.0925,-0.1739 0.0925,-0.4033 z"
         id="path555" />
      <path
         d="m 229.2725,96.985403 q 0.2294,0 0.4144,0.0999 0.185,0.0962 0.2886,0.2923 0.1073,0.1961 0.1073,0.4773 v 1.1951 h -0.333 v -1.147 q 0,-0.3034 -0.1517,-0.4625 -0.1517,-0.1628 -0.4144,-0.1628 -0.2664,0 -0.4255,0.1665 -0.1554,0.1665 -0.1554,0.4847 v 1.1211 h -0.3367 v -2.738 h 0.3367 v 0.999 q 0.0999,-0.1554 0.2738,-0.2405 0.1776,-0.0851 0.3959,-0.0851 z"
         id="path557" />
      <path
         d="m 230.5083,98.032503 q 0,-0.3145 0.1258,-0.5476 0.1258,-0.2368 0.3478,-0.3663 0.2257,-0.1295 0.5143,-0.1295 0.3737,0 0.6142,0.1813 0.2442,0.1813 0.3219,0.5032 h -0.3626 q -0.0518,-0.185 -0.2035,-0.2923 -0.148,-0.1073 -0.37,-0.1073 -0.2886,0 -0.4662,0.1998 -0.1776,0.1961 -0.1776,0.5587 0,0.3663 0.1776,0.5661 0.1776,0.1998 0.4662,0.1998 0.222,0 0.37,-0.1036 0.148,-0.1036 0.2035,-0.296 h 0.3626 q -0.0814,0.3108 -0.3256,0.4995 -0.2442,0.185 -0.6105,0.185 -0.2886,0 -0.5143,-0.1295 -0.222,-0.1295 -0.3478,-0.3663 -0.1258,-0.2368 -0.1258,-0.555 z"
         id="path559" />
      <path
         d="m 233.2167,97.396103 q 0.0999,-0.1739 0.296,-0.2886 0.1998,-0.1184 0.4625,-0.1184 0.2701,0 0.4884,0.1295 0.222,0.1295 0.3478,0.3663 0.1258,0.2331 0.1258,0.5439 0,0.3071 -0.1258,0.5476 -0.1258,0.2405 -0.3478,0.3737 -0.2183,0.1332 -0.4884,0.1332 -0.259,0 -0.4588,-0.1147 -0.1961,-0.1184 -0.2997,-0.2923 V 100.012 H 232.88 v -2.989597 h 0.3367 z m 1.3764,0.6327 q 0,-0.2294 -0.0925,-0.3996 -0.0925,-0.1702 -0.2516,-0.259 -0.1554,-0.0888 -0.3441,-0.0888 -0.185,0 -0.3441,0.0925 -0.1554,0.0888 -0.2516,0.2627 -0.0925,0.1702 -0.0925,0.3959 0,0.2294 0.0925,0.4033 0.0962,0.1702 0.2516,0.2627 0.1591,0.0888 0.3441,0.0888 0.1887,0 0.3441,-0.0888 0.1591,-0.0925 0.2516,-0.2627 0.0925,-0.1739 0.0925,-0.407 z"
         id="path561" />
      <path
         d="m 236.8168,97.011303 q -0.0814,-0.4107 -0.5069,-0.4107 -0.3293,0 -0.4921,0.2553 -0.1628,0.2516 -0.1591,0.8325 0.0851,-0.1924 0.2812,-0.2997 0.1998,-0.111 0.444,-0.111 0.3811,0 0.6068,0.2368 0.2294,0.2368 0.2294,0.6549 0,0.2516 -0.0999,0.4514 -0.0962,0.1998 -0.296,0.3182 -0.1961,0.1184 -0.4773,0.1184 -0.3811,0 -0.5957,-0.1702 -0.2146,-0.1702 -0.2997,-0.4699 -0.0851,-0.2997 -0.0851,-0.74 0,-1.3579 0.9472,-1.3579 0.3626,0 0.5698,0.1961 0.2072,0.1961 0.2442,0.4958 z m -0.5032,0.5513 q -0.1591,0 -0.2997,0.0666 -0.1406,0.0629 -0.2294,0.1961 -0.0851,0.1295 -0.0851,0.3182 0,0.2812 0.1628,0.4588 0.1628,0.1739 0.4662,0.1739 0.259,0 0.4107,-0.1591 0.1554,-0.1628 0.1554,-0.4366 0,-0.2886 -0.148,-0.4514 -0.148,-0.1665 -0.4329,-0.1665 z"
         id="path563" />
    </g>
    <rect
       width="18.52"
       height="18.52"
       x="222.25"
       y="112.71"
       fill="#c0c2c4"
       paint-order="stroke fill markers"
       rx="0"
       ry="0"
       id="rect6817" />
    <g
       aria-label="wpa"
       id="text6821"
       style="font-weight:500;font-size:3.7px;line-height:1.25;font-family:Poppins;-inkscape-font-specification:'Poppins, Medium';letter-spacing:0;stroke-width:0.26">
      <path
         d="m 230.5759,120.4924 -0.6327,2.0276 h -0.3478 l -0.4884,-1.6095 -0.4884,1.6095 h -0.3478 l -0.6364,-2.0276 h 0.3441 l 0.4662,1.702 0.5032,-1.702 h 0.3441 l 0.4921,1.7057 0.4588,-1.7057 z"
         id="path566" />
      <path
         d="m 231.2456,120.8661 q 0.0999,-0.1739 0.296,-0.2886 0.1998,-0.1184 0.4625,-0.1184 0.2701,0 0.4884,0.1295 0.222,0.1295 0.3478,0.3663 0.1258,0.2331 0.1258,0.5439 0,0.3071 -0.1258,0.5476 -0.1258,0.2405 -0.3478,0.3737 -0.2183,0.1332 -0.4884,0.1332 -0.259,0 -0.4588,-0.1147 -0.1961,-0.1184 -0.2997,-0.2923 v 1.3357 h -0.3367 v -2.9896 h 0.3367 z m 1.3764,0.6327 q 0,-0.2294 -0.0925,-0.3996 -0.0925,-0.1702 -0.2516,-0.259 -0.1554,-0.0888 -0.3441,-0.0888 -0.185,0 -0.3441,0.0925 -0.1554,0.0888 -0.2516,0.2627 -0.0925,0.1702 -0.0925,0.3959 0,0.2294 0.0925,0.4033 0.0962,0.1702 0.2516,0.2627 0.1591,0.0888 0.3441,0.0888 0.1887,0 0.3441,-0.0888 0.1591,-0.0925 0.2516,-0.2627 0.0925,-0.1739 0.0925,-0.407 z"
         id="path568" />
      <path
         d="m 233.2843,121.4988 q 0,-0.3108 0.1258,-0.5439 0.1258,-0.2368 0.3441,-0.3663 0.222,-0.1295 0.4921,-0.1295 0.2664,0 0.4625,0.1147 0.1961,0.1147 0.2923,0.2886 v -0.37 h 0.3404 v 2.0276 h -0.3404 v -0.3774 q -0.0999,0.1776 -0.2997,0.296 -0.1961,0.1147 -0.4588,0.1147 -0.2701,0 -0.4884,-0.1332 -0.2183,-0.1332 -0.3441,-0.3737 -0.1258,-0.2405 -0.1258,-0.5476 z m 1.7168,0.004 q 0,-0.2294 -0.0925,-0.3996 -0.0925,-0.1702 -0.2516,-0.259 -0.1554,-0.0925 -0.3441,-0.0925 -0.1887,0 -0.3441,0.0888 -0.1554,0.0888 -0.2479,0.259 -0.0925,0.1702 -0.0925,0.3996 0,0.2331 0.0925,0.407 0.0925,0.1702 0.2479,0.2627 0.1554,0.0888 0.3441,0.0888 0.1887,0 0.3441,-0.0888 0.1591,-0.0925 0.2516,-0.2627 0.0925,-0.1739 0.0925,-0.4033 z"
         id="path570" />
    </g>
    <rect
       width="29.1"
       height="76.73"
       x="216.96"
       y="59.8"
       fill="none"
       stroke="#c0c2c4"
       stroke-dasharray="1.19062, 1.19062"
       stroke-linecap="square"
       stroke-width=".4"
       paint-order="stroke fill markers"
       rx="0"
       ry="0"
       id="rect6823" />
    <rect
       width="47.63"
       height="18.52"
       x="124.35"
       y="96.84"
       fill="#30ba78"
       paint-order="stroke fill markers"
       rx="0"
       ry="0"
       id="rect6825" />
    <g
       aria-label="wicked
(主精靈)"
       id="text6831"
       style="font-weight:500;font-size:3.7px;line-height:1.25;font-family:Poppins;-inkscape-font-specification:'Poppins, Medium';letter-spacing:0;stroke-width:0.26">
      <path
         d="m 144.7105,102.595 -0.6327,2.0276 H 143.73 l -0.4884,-1.6095 -0.4884,1.6095 h -0.3478 l -0.6364,-2.0276 h 0.3441 l 0.4662,1.702 0.5032,-1.702 h 0.3441 l 0.4921,1.7057 0.4588,-1.7057 z"
         style="text-align:center;text-anchor:middle"
         id="path495" />
      <path
         d="m 145.21739,102.2657 q -0.0962,0 -0.1628,-0.0666 -0.0666,-0.0666 -0.0666,-0.1628 0,-0.0962 0.0666,-0.1628 0.0666,-0.0666 0.1628,-0.0666 0.0925,0 0.1554,0.0666 0.0666,0.0666 0.0666,0.1628 0,0.0962 -0.0666,0.1628 -0.0629,0.0666 -0.1554,0.0666 z m 0.1628,0.3293 v 2.0276 h -0.3367 v -2.0276 z"
         style="text-align:center;text-anchor:middle"
         id="path497" />
      <path
         d="m 145.8279,103.6051 q 0,-0.3145 0.1258,-0.5476 0.1258,-0.2368 0.3478,-0.3663 0.2257,-0.1295 0.5143,-0.1295 0.3737,0 0.6142,0.1813 0.2442,0.1813 0.3219,0.5032 h -0.3626 q -0.0518,-0.185 -0.2035,-0.2923 -0.148,-0.1073 -0.37,-0.1073 -0.2886,0 -0.4662,0.1998 -0.1776,0.1961 -0.1776,0.5587 0,0.3663 0.1776,0.5661 0.1776,0.1998 0.4662,0.1998 0.222,0 0.37,-0.1036 0.148,-0.1036 0.2035,-0.296 h 0.3626 q -0.0814,0.3108 -0.3256,0.4995 -0.2442,0.185 -0.6105,0.185 -0.2886,0 -0.5143,-0.1295 -0.222,-0.1295 -0.3478,-0.3663 -0.1258,-0.2368 -0.1258,-0.555 z"
         style="text-align:center;text-anchor:middle"
         id="path499" />
      <path
         d="m 149.3318,104.6226 -0.7955,-0.8954 v 0.8954 h -0.3367 v -2.738 h 0.3367 v 1.6095 l 0.7807,-0.8991 h 0.4699 l -0.9546,1.0101 0.9583,1.0175 z"
         style="text-align:center;text-anchor:middle"
         id="path501" />
      <path
         d="m 151.9551,103.5311 q 0,0.0962 -0.0111,0.2035 h -1.6206 q 0.0185,0.2997 0.2035,0.4699 0.1887,0.1665 0.4551,0.1665 0.2183,0 0.3626,-0.0999 0.148,-0.1036 0.2072,-0.2738 h 0.3626 q -0.0814,0.2923 -0.3256,0.4773 -0.2442,0.1813 -0.6068,0.1813 -0.2886,0 -0.518,-0.1295 -0.2257,-0.1295 -0.3552,-0.3663 -0.1295,-0.2405 -0.1295,-0.555 0,-0.3145 0.1258,-0.5513 0.1258,-0.2368 0.3515,-0.3626 0.2294,-0.1295 0.5254,-0.1295 0.2886,0 0.5106,0.1258 0.222,0.1258 0.3404,0.3478 0.1221,0.2183 0.1221,0.4958 z m -0.3478,-0.0703 q 0,-0.1924 -0.0851,-0.3293 -0.0851,-0.1406 -0.2331,-0.2109 -0.1443,-0.074 -0.3219,-0.074 -0.2553,0 -0.4366,0.1628 -0.1776,0.1628 -0.2035,0.4514 z"
         style="text-align:center;text-anchor:middle"
         id="path503" />
      <path
         d="m 152.2733,103.6014 q 0,-0.3108 0.1258,-0.5439 0.1258,-0.2368 0.3441,-0.3663 0.222,-0.1295 0.4958,-0.1295 0.2368,0 0.4403,0.111 0.2035,0.1073 0.3108,0.2849 v -1.073 h 0.3404 v 2.738 h -0.3404 v -0.3811 q -0.0999,0.1813 -0.296,0.2997 -0.1961,0.1147 -0.4588,0.1147 -0.2701,0 -0.4921,-0.1332 -0.2183,-0.1332 -0.3441,-0.3737 -0.1258,-0.2405 -0.1258,-0.5476 z m 1.7168,0.004 q 0,-0.2294 -0.0925,-0.3996 -0.0925,-0.1702 -0.2516,-0.259 -0.1554,-0.0925 -0.3441,-0.0925 -0.1887,0 -0.3441,0.0888 -0.1554,0.0888 -0.2479,0.259 -0.0925,0.1702 -0.0925,0.3996 0,0.2331 0.0925,0.407 0.0925,0.1702 0.2479,0.2627 0.1554,0.0888 0.3441,0.0888 0.1887,0 0.3441,-0.0888 0.1591,-0.0925 0.2516,-0.2627 0.0925,-0.1739 0.0925,-0.4033 z"
         style="text-align:center;text-anchor:middle"
         id="path505" />
      <path
         d="m 142.0909,110.3108 q -0.3552,-0.3478 -0.555,-0.8843 -0.1961,-0.5365 -0.1961,-1.1581 0,-0.6364 0.2072,-1.1877 0.2109,-0.555 0.5994,-0.9139 h 0.3515 v 0.0333 q -0.4144,0.3885 -0.6253,0.9361 -0.2072,0.5439 -0.2072,1.1322 0,0.5735 0.1961,1.0952 0.1998,0.5217 0.5809,0.9139 v 0.0333 z"
         style="text-align:center;text-anchor:middle"
         id="path507" />
      <path
         d="m 144.6143,109.5153 v -0.9065 h 1.1618 v -0.2664 h -1.1618 v -0.8103 h 1.3135 v -0.2701 h -1.1951 l 0.1739,-0.1258 c -0.1443,-0.1739 -0.4403,-0.4255 -0.6771,-0.5957 l -0.222,0.1554 c 0.222,0.1628 0.4847,0.3959 0.629,0.5661 h -1.6243 v 0.2701 h 1.3098 v 0.8103 h -1.1396 v 0.2664 h 1.1396 v 0.9065 h -1.48 v 0.2701 h 3.2708 v -0.2701 z"
         style="font-weight:normal;font-family:'Noto Sans CJK TC';-inkscape-font-specification:'Noto Sans CJK TC'"
         id="path509" />
      <path
         d="m 147.5965,106.7736 c -0.0518,0.2331 -0.1665,0.5809 -0.2516,0.7881 l 0.1776,0.0629 c 0.0962,-0.1924 0.2146,-0.5143 0.3108,-0.7696 z m -0.6734,0.777 c -0.037,-0.2109 -0.1258,-0.5291 -0.2072,-0.777 l -0.2035,0.0481 c 0.0777,0.2479 0.1628,0.5698 0.1998,0.7807 z m -0.111,0.6845 c -0.0666,0.3293 -0.2294,0.74 -0.3811,0.9546 0.0444,0.0703 0.1073,0.1924 0.1332,0.2701 0.1924,-0.2553 0.3515,-0.7622 0.4292,-1.1655 z m 0.925,-0.2146 v -0.2553 h -0.4551 v -1.2321 h -0.2479 v 1.2284 h -0.5402 v 0.259 h 0.5402 v 1.887 h 0.2479 v -1.887 z m -0.4107,0.3219 c 0.074,0.1443 0.2701,0.5846 0.333,0.7659 l 0.1887,-0.2035 c -0.0518,-0.111 -0.3034,-0.5698 -0.37,-0.666 z m 0.9398,0.7659 c 0.007,-0.0962 0.0111,-0.1887 0.0111,-0.2738 h 1.11 v 0.2738 z m 1.1211,-0.7437 v 0.2738 h -1.11 v -0.2738 z m 0.259,-0.2183 h -1.6206 v 0.6808 c 0,0.2923 -0.0259,0.666 -0.2442,0.9435 0.0555,0.0296 0.1517,0.1295 0.1924,0.1813 0.1517,-0.1813 0.2257,-0.4144 0.2664,-0.6475 h 1.147 v 0.3145 c 0,0.0407 -0.0111,0.0555 -0.0592,0.0555 -0.0444,0.004 -0.1961,0.004 -0.3626,-0.004 0.0333,0.0666 0.0666,0.1591 0.0777,0.2294 0.2331,0 0.3848,0 0.4773,-0.0407 0.0999,-0.0407 0.1258,-0.1073 0.1258,-0.2405 z m -0.6956,-0.4292 v -0.2516 h 0.8066 v -0.1998 h -0.8066 V 107.04 h 0.8732 v -0.2109 h -0.8732 v -0.2997 h -0.2701 v 0.2997 h -0.8325 v 0.2109 h 0.8325 v 0.2257 h -0.74 v 0.1998 h 0.74 v 0.2516 h -0.8732 v 0.2109 h 2.0535 v -0.2109 z"
         style="font-weight:normal;font-family:'Noto Sans CJK TC';-inkscape-font-specification:'Noto Sans CJK TC'"
         id="path511" />
      <path
         d="m 150.5824,107.2435 h 1.1433 v 0.6105 h 0.2701 v -0.6105 h 1.1655 v 0.4255 h 0.2738 v -0.6068 h -1.4393 v -0.2035 h 1.2876 v -0.185 h -2.8231 v 0.185 h 1.2654 v 0.2035 h -1.4134 v 0.6068 h 0.2701 z m 0.962,0.3811 c -0.333,0.0481 -0.6438,0.0925 -0.8769,0.1221 l 0.0666,0.1702 c 0.2442,-0.0407 0.5254,-0.0962 0.814,-0.1517 z m -0.888,0.4995 h 0.3959 v 0.2812 h -0.3959 z m -0.2035,0.4329 h 0.814 v -0.5846 h -0.814 z m 0.3219,-1.1581 c 0.2257,0.0518 0.5143,0.1406 0.6697,0.2183 l 0.0666,-0.1443 c -0.1554,-0.074 -0.444,-0.1554 -0.6623,-0.2035 z m 1.2876,1.0064 h -0.4144 v -0.2812 h 0.4144 z m 0.2109,-0.4329 h -0.8288 v 0.5883 h 0.8288 z m 0.8103,-0.1924 c -0.2035,-0.0703 -0.5698,-0.1443 -0.8584,-0.1776 l -0.0555,0.1369 c 0.2923,0.0444 0.6623,0.1332 0.8621,0.2035 z m -0.1887,-0.5254 c -0.1739,0.0703 -0.4884,0.1776 -0.6956,0.2294 l 0.0888,0.1184 c 0.2109,-0.0444 0.5106,-0.1184 0.7178,-0.2109 z m 0.1924,1.1507 h -0.4255 v -0.2812 h 0.4255 z m 0.2109,-0.4329 h -0.8399 v 0.5883 h 0.8399 z m -1.3135,1.6132 v -0.6993 h 1.3098 v -0.1887 h -2.8527 v 0.1887 h 1.2802 v 0.6993 h -1.5022 v 0.1961 h 3.2967 v -0.1961 z m -0.9287,-0.6697 c -0.0962,0.2257 -0.3145,0.3996 -0.5624,0.5106 0.0481,0.037 0.1184,0.1147 0.148,0.1554 0.148,-0.0777 0.2886,-0.1776 0.407,-0.2997 0.1591,0.0851 0.333,0.1998 0.4292,0.2812 l 0.111,-0.1517 c -0.0962,-0.0814 -0.2701,-0.1887 -0.4292,-0.2664 0.0407,-0.0592 0.0777,-0.1221 0.1073,-0.185 z m 1.4874,-0.004 c -0.0703,0.2331 -0.2516,0.4033 -0.4847,0.5106 0.0407,0.037 0.1147,0.1184 0.1443,0.1591 0.148,-0.0777 0.2775,-0.1776 0.3811,-0.3034 0.1887,0.0851 0.3959,0.2072 0.5143,0.2923 l 0.0999,-0.1628 c -0.111,-0.0851 -0.3293,-0.1998 -0.518,-0.2775 0.0333,-0.0592 0.0592,-0.1221 0.0777,-0.185 z"
         style="font-weight:normal;font-family:'Noto Sans CJK TC';-inkscape-font-specification:'Noto Sans CJK TC'"
         id="path513" />
      <path
         d="m 153.8976,110.3108 v -0.0333 q 0.3811,-0.3922 0.5772,-0.9139 0.1998,-0.5217 0.1998,-1.0952 0,-0.5883 -0.2109,-1.1322 -0.2072,-0.5476 -0.6216,-0.9361 v -0.0333 h 0.3515 q 0.3885,0.3589 0.5957,0.9139 0.2109,0.5513 0.2109,1.1877 0,0.6216 -0.1998,1.1581 -0.1961,0.5365 -0.5513,0.8843 z"
         style="text-align:center;text-anchor:middle"
         id="path515" />
    </g>
    <rect
       width="47.62"
       height="18.52"
       x="47.63"
       y="96.84"
       fill="#30ba78"
       paint-order="stroke fill markers"
       rx="0"
       ry="0"
       id="rect6833" />
    <g
       aria-label="Nanny
(規則代辦)"
       id="text6839"
       style="font-weight:500;font-size:3.7px;line-height:1.25;font-family:Poppins;-inkscape-font-specification:'Poppins, Medium';letter-spacing:0;stroke-width:0.26">
      <path
         d="m 67.791806,104.0826 h -0.3367 l -1.3542,-2.0535 v 2.0535 h -0.3367 V 101.5 h 0.3367 l 1.3542,2.0498 V 101.5 h 0.3367 z"
         style="text-align:center;text-anchor:middle"
         id="path363" />
      <path
         d="m 68.239503,103.0614 q 0,-0.3108 0.1258,-0.5439 0.1258,-0.2368 0.3441,-0.3663 0.222,-0.1295 0.4921,-0.1295 0.2664,0 0.4625,0.1147 0.1961,0.1147 0.2923,0.2886 v -0.37 h 0.3404 v 2.0276 h -0.3404 v -0.3774 q -0.0999,0.1776 -0.2997,0.296 -0.1961,0.1147 -0.4588,0.1147 -0.2701,0 -0.4884,-0.1332 -0.2183,-0.1332 -0.3441,-0.3737 -0.1258,-0.2405 -0.1258,-0.5476 z m 1.7168,0.004 q 0,-0.2294 -0.0925,-0.3996 -0.0925,-0.1702 -0.2516,-0.259 -0.1554,-0.0925 -0.3441,-0.0925 -0.1887,0 -0.3441,0.0888 -0.1554,0.0888 -0.2479,0.259 -0.0925,0.1702 -0.0925,0.3996 0,0.2331 0.0925,0.407 0.0925,0.1702 0.2479,0.2627 0.1554,0.0888 0.3441,0.0888 0.1887,0 0.3441,-0.0888 0.1591,-0.0925 0.2516,-0.2627 0.0925,-0.1739 0.0925,-0.4033 z"
         style="text-align:center;text-anchor:middle"
         id="path365" />
      <path
         d="m 71.854405,102.018 q 0.37,0 0.5994,0.2257 0.2294,0.222 0.2294,0.6438 v 1.1951 h -0.333 v -1.147 q 0,-0.3034 -0.1517,-0.4625 -0.1517,-0.1628 -0.4144,-0.1628 -0.2664,0 -0.4255,0.1665 -0.1554,0.1665 -0.1554,0.4847 v 1.1211 h -0.3367 v -2.0276 h 0.3367 v 0.2886 q 0.0999,-0.1554 0.2701,-0.2405 0.1739,-0.0851 0.3811,-0.0851 z"
         style="text-align:center;text-anchor:middle"
         id="path367" />
      <path
         d="m 74.222403,102.018 q 0.37,0 0.5994,0.2257 0.2294,0.222 0.2294,0.6438 v 1.1951 h -0.333 v -1.147 q 0,-0.3034 -0.1517,-0.4625 -0.1517,-0.1628 -0.4144,-0.1628 -0.2664,0 -0.4255,0.1665 -0.1554,0.1665 -0.1554,0.4847 v 1.1211 h -0.3367 v -2.0276 h 0.3367 v 0.2886 q 0.0999,-0.1554 0.2701,-0.2405 0.1739,-0.0851 0.3811,-0.0851 z"
         style="text-align:center;text-anchor:middle"
         id="path369" />
      <path
         d="m 77.348901,102.055 -1.221,2.9822 h -0.3478 l 0.3996,-0.9768 -0.8177,-2.0054 h 0.3737 l 0.6364,1.6428 0.629,-1.6428 z"
         style="text-align:center;text-anchor:middle"
         id="path371" />
      <path
         d="m 63.510901,109.7708 q -0.3552,-0.3478 -0.555,-0.8843 -0.1961,-0.5365 -0.1961,-1.1581 0,-0.6364 0.2072,-1.1877 0.2109,-0.555 0.5994,-0.9139 h 0.3515 v 0.0333 q -0.4144,0.3885 -0.6253,0.9361 -0.2072,0.5439 -0.2072,1.1322 0,0.5735 0.1961,1.0952 0.1998,0.5217 0.5809,0.9139 v 0.0333 z"
         style="text-align:center;text-anchor:middle"
         id="path373" />
      <path
         d="m 65.664302,108.6534 c -0.0851,-0.1184 -0.4736,-0.5883 -0.6179,-0.7437 0.0074,-0.0703 0.0148,-0.1406 0.0222,-0.2072 h 0.5994 v -0.2516 h -0.5883 c 0.0037,-0.0814 0.0037,-0.1628 0.0037,-0.2368 v -0.3663 h 0.5143 v -0.2479 h -0.5143 v -0.5735 h -0.259 v 0.5735 h -0.5328 v 0.2479 h 0.5328 v 0.3663 c 0,0.074 0,0.1554 -0.0037,0.2368 h -0.6068 v 0.2516 h 0.5957 c -0.037,0.4958 -0.1665,1.0545 -0.6179,1.4208 0.0666,0.0481 0.1554,0.1369 0.1924,0.1924 0.3478,-0.3108 0.5291,-0.7104 0.6142,-1.1211 0.1628,0.2146 0.3885,0.5143 0.4773,0.6623 z m 0.3959,-1.0915 h 1.0545 v 0.3663 h -1.0545 z m 0,-0.592 h 1.0545 v 0.3663 h -1.0545 z m 0,-0.5883 h 1.0545 v 0.3589 h -1.0545 z m 0.9694,2.6751 c -0.0777,0 -0.0888,-0.0111 -0.0888,-0.0888 v -0.7918 h 0.4403 V 106.13 h -1.5762 v 2.0461 h 0.3515 c -0.0592,0.4551 -0.2183,0.7955 -0.777,0.9805 0.0555,0.0444 0.1258,0.1443 0.1554,0.2072 0.6216,-0.2257 0.814,-0.629 0.8843,-1.1877 h 0.2664 v 0.7918 c 0,0.259 0.0592,0.333 0.3108,0.333 h 0.3071 c 0.1961,0 0.2701,-0.0925 0.296,-0.4403 -0.074,-0.0185 -0.1813,-0.0592 -0.2294,-0.0999 -0.0074,0.259 -0.0259,0.296 -0.0925,0.296 z"
         style="font-weight:normal;font-family:'Noto Sans CJK TC';-inkscape-font-specification:'Noto Sans CJK TC'"
         id="path375" />
      <path
         d="m 69.937802,106.4297 v 2.035 h 0.2701 v -2.035 z m 0.9028,-0.37 v 2.9415 c 0,0.0703 -0.0296,0.0925 -0.0962,0.0925 -0.0703,0.004 -0.3034,0.007 -0.5624,-0.004 0.0407,0.0777 0.0851,0.2035 0.0999,0.2775 0.3367,0 0.5439,-0.004 0.666,-0.0481 0.1147,-0.0481 0.1665,-0.1332 0.1665,-0.3182 v -2.9415 z m -2.4716,2.4975 c -0.1073,0.2405 -0.2923,0.481 -0.4884,0.6438 0.0703,0.0407 0.1776,0.1221 0.2294,0.1702 0.1961,-0.1813 0.4033,-0.4625 0.5254,-0.74 z m 0.6327,0.1036 c 0.1628,0.1998 0.3367,0.4736 0.4107,0.6512 l 0.2516,-0.1258 c -0.0814,-0.1739 -0.2553,-0.4329 -0.4218,-0.6253 z m -0.6327,-1.6058 h 0.8991 v 0.4588 h -0.8991 z m 0,0.6845 h 0.8991 v 0.4662 h -0.8991 z m 0,-1.3616 h 0.8991 v 0.4514 h -0.8991 z m -0.2627,-0.2479 v 2.3199 h 1.4282 V 106.13 Z"
         style="font-weight:normal;font-family:'Noto Sans CJK TC';-inkscape-font-specification:'Noto Sans CJK TC'"
         id="path377" />
      <path
         d="m 74.884702,106.6591 c -0.1258,-0.1665 -0.3885,-0.4181 -0.6105,-0.592 l -0.1998,0.1332 c 0.2183,0.1813 0.4773,0.4403 0.5957,0.6068 z m -2.2829,-0.629 c -0.2405,0.5809 -0.6475,1.1433 -1.0693,1.5022 0.0481,0.0629 0.1295,0.1998 0.1591,0.2664 0.1702,-0.1554 0.3367,-0.3367 0.4958,-0.5439 v 2.1053 h 0.2775 v -2.5012 c 0.1517,-0.2405 0.2886,-0.4884 0.3959,-0.7474 z m 2.3532,1.1914 -0.037,-0.259 -1.1063,0.1406 c -0.037,-0.3256 -0.0592,-0.6845 -0.0703,-1.0582 h -0.2738 c 0.0148,0.3848 0.0407,0.7511 0.0703,1.0952 l -0.8954,0.111 0.037,0.259 0.888,-0.111 c 0.1406,1.1544 0.4366,1.9203 1.0434,1.9647 0.1924,0.0111 0.3404,-0.1813 0.4218,-0.814 -0.0555,-0.0259 -0.1739,-0.0925 -0.2294,-0.1443 -0.037,0.4255 -0.0962,0.6438 -0.2035,0.6364 -0.3959,-0.037 -0.6364,-0.6993 -0.7622,-1.6798 z"
         style="font-weight:normal;font-family:'Noto Sans CJK TC';-inkscape-font-specification:'Noto Sans CJK TC'"
         id="path379" />
      <path
         d="m 78.632803,106.4741 h -0.3737 c -0.0481,-0.1406 -0.1332,-0.3256 -0.2109,-0.4699 l -0.2294,0.0666 c 0.0629,0.1221 0.1295,0.2738 0.1776,0.4033 h -0.4551 v 0.2294 h 1.0915 z m -0.6586,0.9028 c -0.0111,-0.1628 -0.0629,-0.4181 -0.1369,-0.6068 l -0.1887,0.0481 c 0.0666,0.1924 0.1147,0.4477 0.1221,0.6105 z m -1.5762,-0.8991 h -0.3626 c -0.0481,-0.1295 -0.1332,-0.3071 -0.2072,-0.4477 l -0.2294,0.0666 c 0.0592,0.1147 0.1258,0.259 0.1702,0.3811 h -0.4329 v 0.2331 h 1.0619 z m -0.6512,0.8917 c -0.0074,-0.1591 -0.0555,-0.4033 -0.1221,-0.5883 l -0.1924,0.0481 c 0.0629,0.1887 0.1073,0.4329 0.1073,0.592 z m 0.6105,0.9879 v -0.2331 h -0.3663 v -0.4403 h 0.4255 v -0.2331 h -0.3071 c 0.0592,-0.1887 0.1258,-0.4329 0.185,-0.6401 l -0.2183,-0.0518 c -0.0333,0.1998 -0.1036,0.4921 -0.1665,0.6919 h -0.6031 v 0.2331 h 0.4366 v 0.4403 h -0.3885 v 0.2331 h 0.3811 c -0.0185,0.2849 -0.0925,0.629 -0.3848,0.8399 0.0592,0.0407 0.1295,0.1258 0.1665,0.1776 0.3441,-0.2738 0.444,-0.6734 0.4662,-1.0175 z m 0.5587,-1.5355 c 0.0074,-0.2664 0.0111,-0.5402 0.0111,-0.8325 h -0.2257 c 0,0.2886 0,0.5661 -0.0037,0.8325 h -0.2331 v 0.2442 h 0.2294 c -0.0333,0.9028 -0.1443,1.6428 -0.5069,2.1386 0.0518,0.037 0.148,0.1295 0.185,0.1702 0.3848,-0.5735 0.4995,-1.3431 0.5402,-2.3088 h 0.2627 c -0.0185,1.3875 -0.0444,1.8611 -0.0962,1.9573 -0.0259,0.0481 -0.0518,0.0592 -0.0962,0.0555 -0.0481,0 -0.148,0 -0.2553,-0.007 0.0333,0.0629 0.0555,0.1628 0.0629,0.2331 0.111,0.004 0.2183,0.007 0.2923,-0.004 0.0851,-0.0111 0.1443,-0.0407 0.1998,-0.1258 0.0851,-0.1406 0.0999,-0.6401 0.1221,-2.2274 0,-0.0296 0.0037,-0.1258 0.0037,-0.1258 z m 1.7575,0.8658 v -0.2331 h -0.3034 c 0.0592,-0.1887 0.1258,-0.4403 0.185,-0.6549 l -0.222,-0.0555 c -0.0333,0.2072 -0.1036,0.5106 -0.1665,0.7104 h -0.6401 v 0.2331 h 0.4551 v 0.4884 h -0.3959 v 0.2331 h 0.3959 v 0.9509 h 0.2516 v -0.9509 h 0.407 v -0.2331 h -0.407 v -0.4884 z"
         style="font-weight:normal;font-family:'Noto Sans CJK TC';-inkscape-font-specification:'Noto Sans CJK TC'"
         id="path381" />
      <path
         d="m 79.017602,109.7708 v -0.0333 q 0.3811,-0.3922 0.5772,-0.9139 0.1998,-0.5217 0.1998,-1.0952 0,-0.5883 -0.2109,-1.1322 -0.2072,-0.5476 -0.6216,-0.9361 v -0.0333 h 0.3515 q 0.3885,0.3589 0.5957,0.9139 0.2109,0.5513 0.2109,1.1877 0,0.6216 -0.1998,1.1581 -0.1961,0.5365 -0.5513,0.8843 z"
         style="text-align:center;text-anchor:middle"
         id="path383" />
    </g>
    <rect
       width="47.62"
       height="18.52"
       x="47.63"
       y="57.15"
       fill="#30ba78"
       paint-order="stroke fill markers"
       rx="0"
       ry="0"
       id="rect6841" />
    <g
       aria-label="wicked
用戶端"
       id="text6847"
       style="font-weight:500;font-size:3.7px;line-height:1.25;font-family:Poppins;-inkscape-font-specification:'Poppins, Medium';letter-spacing:0;stroke-width:0.26">
      <path
         d="m 68.62967,63.235004 -0.6327,2.0276 h -0.3478 l -0.4884,-1.6095 -0.4884,1.6095 h -0.3478 l -0.6364,-2.0276 h 0.3441 l 0.4662,1.702 0.5032,-1.702 h 0.3441 l 0.4921,1.7057 0.4588,-1.7057 z"
         style="text-align:center;text-anchor:middle"
         id="path682" />
      <path
         d="m 69.136569,62.905704 q -0.0962,0 -0.1628,-0.0666 -0.0666,-0.0666 -0.0666,-0.1628 0,-0.0962 0.0666,-0.1628 0.0666,-0.0666 0.1628,-0.0666 0.0925,0 0.1554,0.0666 0.0666,0.0666 0.0666,0.1628 0,0.0962 -0.0666,0.1628 -0.0629,0.0666 -0.1554,0.0666 z m 0.1628,0.3293 v 2.0276 h -0.3367 v -2.0276 z"
         style="text-align:center;text-anchor:middle"
         id="path684" />
      <path
         d="m 69.74707,64.245104 q 0,-0.3145 0.1258,-0.5476 0.1258,-0.2368 0.3478,-0.3663 0.2257,-0.1295 0.5143,-0.1295 0.3737,0 0.6142,0.1813 0.2442,0.1813 0.3219,0.5032 h -0.3626 q -0.0518,-0.185 -0.2035,-0.2923 -0.148,-0.1073 -0.37,-0.1073 -0.2886,0 -0.4662,0.1998 -0.1776,0.1961 -0.1776,0.5587 0,0.3663 0.1776,0.5661 0.1776,0.1998 0.4662,0.1998 0.222,0 0.37,-0.1036 0.148,-0.1036 0.2035,-0.296 h 0.3626 q -0.0814,0.3108 -0.3256,0.4995 -0.2442,0.185 -0.6105,0.185 -0.2886,0 -0.5143,-0.1295 -0.222,-0.1295 -0.3478,-0.3663 -0.1258,-0.2368 -0.1258,-0.555 z"
         style="text-align:center;text-anchor:middle"
         id="path686" />
      <path
         d="m 73.250972,65.262604 -0.7955,-0.8954 v 0.8954 h -0.3367 v -2.738 h 0.3367 v 1.6095 l 0.7807,-0.8991 h 0.4699 l -0.9546,1.0101 0.9583,1.0175 z"
         style="text-align:center;text-anchor:middle"
         id="path688" />
      <path
         d="m 75.874269,64.171104 q 0,0.0962 -0.0111,0.2035 h -1.6206 q 0.0185,0.2997 0.2035,0.4699 0.1887,0.1665 0.4551,0.1665 0.2183,0 0.3626,-0.0999 0.148,-0.1036 0.2072,-0.2738 h 0.3626 q -0.0814,0.2923 -0.3256,0.4773 -0.2442,0.1813 -0.6068,0.1813 -0.2886,0 -0.518,-0.1295 -0.2257,-0.1295 -0.3552,-0.3663 -0.1295,-0.2405 -0.1295,-0.555 0,-0.3145 0.1258,-0.5513 0.1258,-0.2368 0.3515,-0.3626 0.2294,-0.1295 0.5254,-0.1295 0.2886,0 0.5106,0.1258 0.222,0.1258 0.3404,0.3478 0.1221,0.2183 0.1221,0.4958 z m -0.3478,-0.0703 q 0,-0.1924 -0.0851,-0.3293 -0.0851,-0.1406 -0.2331,-0.2109 -0.1443,-0.074 -0.3219,-0.074 -0.2553,0 -0.4366,0.1628 -0.1776,0.1628 -0.2035,0.4514 z"
         style="text-align:center;text-anchor:middle"
         id="path690" />
      <path
         d="m 76.192473,64.241404 q 0,-0.3108 0.1258,-0.5439 0.1258,-0.2368 0.3441,-0.3663 0.222,-0.1295 0.4958,-0.1295 0.2368,0 0.4403,0.111 0.2035,0.1073 0.3108,0.2849 v -1.073 h 0.3404 v 2.738 h -0.3404 v -0.3811 q -0.0999,0.1813 -0.296,0.2997 -0.1961,0.1147 -0.4588,0.1147 -0.2701,0 -0.4921,-0.1332 -0.2183,-0.1332 -0.3441,-0.3737 -0.1258,-0.2405 -0.1258,-0.5476 z m 1.7168,0.0037 q 0,-0.2294 -0.0925,-0.3996 -0.0925,-0.1702 -0.2516,-0.259 -0.1554,-0.0925 -0.3441,-0.0925 -0.1887,0 -0.3441,0.0888 -0.1554,0.0888 -0.2479,0.259 -0.0925,0.1702 -0.0925,0.3996 0,0.2331 0.0925,0.407 0.0925,0.1702 0.2479,0.2627 0.1554,0.0888 0.3441,0.0888 0.1887,0 0.3441,-0.0888 0.1591,-0.0925 0.2516,-0.2627 0.0925,-0.1739 0.0925,-0.4033 z"
         style="text-align:center;text-anchor:middle"
         id="path692" />
      <path
         d="m 68.544572,69.156304 v -0.6142 h 0.9953 v 0.6142 z m -1.1729,0 c 0.0111,-0.1369 0.0148,-0.2738 0.0148,-0.3959 v -0.2183 h 0.8843 v 0.6142 z m 0.8991,-1.4652 v 0.592 h -0.8843 v -0.592 z m 1.2691,0.592 h -0.9953 v -0.592 h 0.9953 z m 0.2701,-0.8547 h -2.6936 v 1.332 c 0,0.5143 -0.037,1.1655 -0.444,1.6243 0.0592,0.0333 0.1702,0.1258 0.2109,0.1813 0.2812,-0.3145 0.407,-0.7363 0.4625,-1.147 h 0.925 v 1.0915 h 0.2738 v -1.0915 h 0.9953 v 0.7511 c 0,0.0703 -0.0259,0.0925 -0.0999,0.0962 -0.0666,0 -0.3182,0.0037 -0.5772,-0.0074 0.037,0.074 0.0814,0.1924 0.0925,0.2664 0.3478,0.0037 0.5624,0 0.6882,-0.0444 0.1184,-0.0481 0.1665,-0.1295 0.1665,-0.3071 z"
         style="font-weight:normal;font-family:'Noto Sans CJK TC';-inkscape-font-specification:'Noto Sans CJK TC'"
         id="path694" />
      <path
         d="m 71.160472,69.115604 c 0.0148,-0.1554 0.0185,-0.2997 0.0185,-0.4366 v -0.2997 h 1.8759 v 0.7363 z m 0.0185,-0.9916 v -0.3626 c 0.7141,-0.0888 1.5022,-0.2146 2.0387,-0.3774 l -0.2257,-0.2072 c -0.4773,0.1554 -1.3431,0.2997 -2.0868,0.3811 v 1.1211 c 0,0.5254 -0.0481,1.2136 -0.518,1.6909 0.0629,0.0333 0.1665,0.1332 0.2109,0.185 0.3219,-0.3219 0.4662,-0.7585 0.5328,-1.1803 h 1.924 v 0.1961 h 0.2738 v -1.4467 z"
         style="font-weight:normal;font-family:'Noto Sans CJK TC';-inkscape-font-specification:'Noto Sans CJK TC'"
         id="path696" />
      <path
         d="m 77.339472,67.350704 h -0.2627 v 0.6327 h -0.5587 v -0.8103 h -0.2627 v 0.8103 h -0.5106 v -0.6327 h -0.2553 v 0.8769 h 1.85 z m -2.3495,0.3885 c -0.0481,-0.1443 -0.1554,-0.3663 -0.259,-0.5328 l -0.2294,0.074 c 0.0925,0.1702 0.1998,0.3996 0.2442,0.5476 z m 0.3811,0.1184 h -1.2321 v 0.2553 h 1.2321 z m -0.7363,1.7538 c -0.0148,-0.3663 -0.0851,-0.8991 -0.1702,-1.3209 l -0.2109,0.037 c 0.0777,0.4181 0.148,0.9583 0.1591,1.3209 z m 0.3774,0.0888 c 0.0888,-0.3922 0.1813,-0.9583 0.2442,-1.3986 l -0.2405,-0.0444 c -0.0407,0.4477 -0.1295,1.0989 -0.2183,1.4948 -0.2627,0.0592 -0.4995,0.1184 -0.6845,0.1591 l 0.0592,0.2664 c 0.3478,-0.0814 0.7955,-0.1998 1.2247,-0.3108 l -0.0296,-0.2553 z m 2.4494,-0.9583 v -0.2442 h -2.1312 v 0.2442 h 0.8991 c -0.0222,0.111 -0.0444,0.2331 -0.0666,0.3367 h -0.7141 v 1.4652 h 0.2479 v -1.2284 h 0.3256 v 1.1951 h 0.2183 v -1.1951 h 0.3404 v 1.184 h 0.2183 v -1.184 h 0.3367 v 0.9768 c 0,0.0296 -0.0074,0.0407 -0.0407,0.0407 -0.0259,0.0037 -0.1221,0.0037 -0.2257,0 0.0333,0.0629 0.0703,0.1517 0.0814,0.222 0.1591,0 0.2627,-0.0037 0.3367,-0.0444 0.0777,-0.0407 0.0962,-0.0999 0.0962,-0.2146 v -1.2173 h -0.9509 c 0.037,-0.1036 0.0703,-0.222 0.1073,-0.3367 z"
         style="font-weight:normal;font-family:'Noto Sans CJK TC';-inkscape-font-specification:'Noto Sans CJK TC'"
         id="path698" />
    </g>
    <g
       aria-label="要求者"
       id="text6851"
       style="font-weight:500;font-size:3.17px;line-height:1.25;font-family:Poppins;-inkscape-font-specification:'Poppins, Medium';letter-spacing:0;stroke-width:0.26">
      <path
         d="m 228.44379,53.520047 h -0.51037 v -0.26628 h 0.51037 z m 0.75129,0.19337 v 0.42795 h -0.52622 v -0.42795 z m -1.26166,0 h 0.51037 v 0.42795 h -0.51037 z m -0.70057,0 h 0.4755 v 0.42795 h -0.4755 z m 0.4755,-0.19337 h -0.70057 v 0.81469 h 2.41871 v -0.81469 h -0.75763 v -0.26628 h 0.89077 v -0.20922 h -2.70718 v 0.20922 h 0.8559 z m 0.97636,1.38846 c -0.11412,0.15533 -0.25994,0.27579 -0.43746,0.37089 -0.2219,-0.04121 -0.44697,-0.08559 -0.67521,-0.12363 0.0571,-0.07291 0.11729,-0.1585 0.17752,-0.24726 z m 0.92564,0 v -0.20288 h -0.54524 c 0.019,-0.03804 0.0317,-0.07925 0.0444,-0.11729 l -0.22507,-0.06657 c -0.0222,0.06657 -0.0476,0.12363 -0.0793,0.18386 h -0.92247 c 0.0602,-0.09193 0.11412,-0.18703 0.15533,-0.27896 l -0.22824,-0.05389 c -0.0539,0.10461 -0.11729,0.21873 -0.1902,0.33285 h -0.81786 v 0.20288 h 0.68472 c -0.0951,0.13631 -0.19337,0.26628 -0.2853,0.36772 0.25043,0.04121 0.49769,0.08876 0.73544,0.13631 -0.30432,0.10144 -0.67838,0.15533 -1.14437,0.18386 0.038,0.05389 0.0793,0.13948 0.0951,0.20605 0.59596,-0.04755 1.06195,-0.13948 1.41382,-0.30749 0.41844,0.0951 0.77982,0.20288 1.04293,0.30115 l 0.21239,-0.16801 c -0.26311,-0.0951 -0.61498,-0.1902 -1.00172,-0.27896 0.16801,-0.11729 0.30432,-0.26311 0.40893,-0.44063 z"
         style="font-weight:normal;font-family:'Noto Sans CJK TC';-inkscape-font-specification:'Noto Sans CJK TC';text-align:center;text-anchor:middle"
         id="path537" />
      <path
         d="m 232.41897,53.808517 c -0.14265,0.19654 -0.3804,0.44697 -0.57694,0.62766 -0.14265,-0.22507 -0.26311,-0.47233 -0.35187,-0.7291 v -0.04121 h 1.268 v -0.22824 h -0.38991 l 0.13314,-0.15216 c -0.1268,-0.10778 -0.3804,-0.25677 -0.58011,-0.35821 l -0.13948,0.14899 c 0.1902,0.10144 0.42795,0.25043 0.55792,0.36138 h -0.84956 v -0.52305 h -0.23775 v 0.52305 h -1.24581 v 0.22824 h 1.24581 v 0.87809 c -0.47867,0.27262 -0.99538,0.56109 -1.31555,0.72593 l 0.15216,0.21239 c 0.32334,-0.18703 0.75446,-0.4438 1.16339,-0.6974 v 0.6974 c 0,0.06023 -0.0222,0.07608 -0.0793,0.07925 -0.0634,0.0032 -0.26945,0.0032 -0.48501,-0.0032 0.0317,0.06974 0.0697,0.18069 0.0824,0.24726 0.27896,0 0.46599,-0.0063 0.5706,-0.04755 0.10461,-0.03804 0.14899,-0.11095 0.14899,-0.27579 v -1.25849 c 0.27262,0.58328 0.66887,1.06512 1.17924,1.31238 0.0412,-0.0634 0.11729,-0.15533 0.17118,-0.19971 -0.34236,-0.14899 -0.64351,-0.40893 -0.88126,-0.72593 0.21556,-0.17752 0.46916,-0.43429 0.66253,-0.65936 z m -1.53428,0.63083 c -0.10144,-0.17118 -0.33285,-0.41527 -0.53256,-0.58645 l -0.17752,0.12363 c 0.19971,0.17752 0.42161,0.43112 0.51988,0.6023 z"
         style="font-weight:normal;font-family:'Noto Sans CJK TC';-inkscape-font-specification:'Noto Sans CJK TC';text-align:center;text-anchor:middle"
         id="path539" />
      <path
         d="m 234.46045,53.919467 v -0.40576 h 0.70374 c -0.14899,0.14265 -0.31066,0.27896 -0.48184,0.40576 z m 0.85907,1.05561 h -1.28385 v -0.31383 h 1.28385 z m -1.28385,0.51671 v -0.32968 h 1.28385 v 0.32968 z m 1.91151,-1.35993 v -0.21239 h -0.91296 c 0.28847,-0.23775 0.54841,-0.50403 0.77031,-0.79567 l -0.19971,-0.10778 c -0.10778,0.14582 -0.22824,0.2853 -0.36138,0.41844 v -0.12997 h -0.78299 v -0.39625 h -0.23141 v 0.39625 h -0.80835 v 0.20922 h 0.80835 v 0.40576 h -1.08414 v 0.21239 h 1.23313 c -0.39942,0.25677 -0.84322,0.46599 -1.30287,0.62766 0.0444,0.04755 0.12046,0.14265 0.14899,0.19337 0.19337,-0.07291 0.38991,-0.1585 0.58011,-0.25043 v 1.09682 h 0.23141 v -0.10144 h 1.28385 v 0.08876 h 0.24092 v -1.32506 h -1.30921 c 0.17435,-0.10144 0.34553,-0.21239 0.51037,-0.32968 z"
         style="font-weight:normal;font-family:'Noto Sans CJK TC';-inkscape-font-specification:'Noto Sans CJK TC';text-align:center;text-anchor:middle"
         id="path541" />
    </g>
    <rect
       width="124.35"
       height="21.17"
       x="47.63"
       y="158.75"
       fill="#c0c2c4"
       paint-order="stroke fill markers"
       rx="0"
       ry="0"
       id="rect6853" />
    <g
       aria-label="核心"
       id="text6857"
       style="font-weight:500;font-size:3.7px;line-height:1.25;font-family:Poppins;-inkscape-font-specification:'Poppins, Medium';letter-spacing:0;stroke-width:0.26">
      <path
         d="m 108.42888,168.6624 c -0.0555,0.1147 -0.1332,0.2331 -0.2183,0.3441 l -0.629,0.037 c 0.1332,-0.2035 0.3108,-0.4847 0.4366,-0.6919 h 1.0434 v -0.2553 h -0.8288 l 0.037,-0.0148 c -0.0296,-0.1369 -0.1221,-0.3478 -0.2146,-0.5032 l -0.2553,0.0777 c 0.074,0.1369 0.1443,0.3071 0.185,0.4403 h -0.9657 v 0.2553 h 0.703 c -0.1258,0.2146 -0.333,0.5476 -0.4033,0.6216 -0.0629,0.0666 -0.1665,0.0925 -0.2368,0.1073 0.0222,0.0592 0.0666,0.1961 0.074,0.259 0.0703,-0.0222 0.1776,-0.0444 0.8399,-0.0888 -0.2738,0.2775 -0.6179,0.5254 -0.9879,0.6956 0.0518,0.0518 0.1258,0.148 0.1554,0.2072 0.6512,-0.3108 1.2099,-0.8362 1.5244,-1.3986 z m -1.48,0.6993 c -0.0629,-0.1036 -0.333,-0.518 -0.4329,-0.6549 v -0.1443 h 0.4181 v -0.259 h -0.4181 v -0.7104 h -0.2627 v 0.7104 h -0.4921 v 0.259 h 0.4736 c -0.111,0.5032 -0.3404,1.0878 -0.5698,1.3949 0.0518,0.0666 0.1184,0.185 0.1443,0.2664 0.1665,-0.2368 0.3256,-0.6179 0.444,-1.0175 v 1.7649 h 0.2627 v -1.9277 c 0.0999,0.1813 0.2146,0.3959 0.2664,0.5106 z m 1.7501,-0.0407 c -0.3145,0.6216 -1.0175,1.1507 -1.8759,1.4282 0.0518,0.0555 0.1295,0.1628 0.1628,0.2257 0.4625,-0.1591 0.8769,-0.3848 1.221,-0.6623 0.2442,0.2035 0.5254,0.4588 0.666,0.6216 l 0.2109,-0.1813 c -0.148,-0.1665 -0.4403,-0.4107 -0.6845,-0.6068 0.2331,-0.2183 0.4292,-0.4588 0.5809,-0.7252 z"
         style="font-weight:normal;font-family:'Noto Sans CJK TC';-inkscape-font-specification:'Noto Sans CJK TC';text-align:center;text-anchor:middle"
         id="path532" />
      <path
         d="m 110.50458,167.9039 c 0.3478,0.2479 0.777,0.6105 0.9805,0.8399 l 0.1961,-0.2035 c -0.2109,-0.2331 -0.6512,-0.5809 -0.9953,-0.8177 z m 1.5355,0.9953 c 0.2072,0.4329 0.407,1.0138 0.481,1.3949 l 0.2701,-0.1073 c -0.0777,-0.3811 -0.2812,-0.9472 -0.4958,-1.3875 z m -2.2977,-0.004 c -0.0518,0.4329 -0.1739,1.0101 -0.333,1.3875 l 0.2738,0.1147 c 0.1517,-0.3922 0.2664,-1.0175 0.3256,-1.4504 z m 0.5883,-0.2775 v 1.8204 c 0,0.3663 0.111,0.4662 0.5106,0.4662 h 0.7437 c 0.4107,0 0.4958,-0.2035 0.5365,-0.9028 -0.0777,-0.0222 -0.1924,-0.0703 -0.259,-0.1221 -0.0296,0.6364 -0.0629,0.7659 -0.2923,0.7659 h -0.7067 c -0.2109,0 -0.2553,-0.0333 -0.2553,-0.2035 v -1.8241 z"
         style="font-weight:normal;font-family:'Noto Sans CJK TC';-inkscape-font-specification:'Noto Sans CJK TC';text-align:center;text-anchor:middle"
         id="path534" />
    </g>
    <path
       fill="none"
       stroke="#0c322c"
       stroke-width=".56"
       marker-end="url(#a)"
       marker-start="url(#b)"
       d="M71.44 77.79v17.46"
       id="path6859" />
    <path
       fill="none"
       stroke="#0c322c"
       stroke-width=".56"
       marker-end="url(#a)"
       marker-start="url(#b)"
       d="M96.84 105.83h25.93"
       id="path6861" />
    <path
       fill="none"
       stroke="#0c322c"
       stroke-width=".56"
       marker-end="url(#a)"
       marker-start="url(#b)"
       d="M148.17 116.95v20.63h-38.63v19.58"
       id="path6863" />
    <path
       fill="none"
       stroke="#0c322c"
       stroke-width=".56"
       marker-end="url(#a)"
       marker-start="url(#b)"
       d="M173.57 105.83h24.87V97.9h22.22"
       id="path6865" />
    <g
       aria-label="方法呼叫"
       id="text6869"
       style="font-weight:500;font-size:3.17px;line-height:1.25;font-family:Poppins;-inkscape-font-specification:'Poppins, Medium';letter-spacing:0;stroke-width:0.26">
      <path
         d="m 106.7221,101.28653 v -0.23141 h -1.32189 l 0.21873,-0.0951 c -0.0444,-0.12997 -0.14265,-0.32017 -0.22824,-0.46916 l -0.22507,0.0888 c 0.0824,0.14582 0.17435,0.3487 0.21556,0.4755 h -1.38529 v 0.23141 h 0.8559 c -0.0349,0.72276 -0.11729,1.53428 -0.92564,1.93687 0.0602,0.0444 0.13314,0.1268 0.17118,0.1902 0.59596,-0.317 0.83371,-0.84005 0.93515,-1.39797 h 1.12852 c -0.0539,0.71325 -0.11412,1.01757 -0.20922,1.09999 -0.0349,0.0285 -0.0761,0.0349 -0.14899,0.0349 -0.0824,0 -0.30432,-0.003 -0.52939,-0.0222 0.0444,0.0634 0.0761,0.1585 0.0824,0.22824 0.21239,0.0159 0.41844,0.019 0.52939,0.0127 0.12363,-0.01 0.19654,-0.0317 0.27262,-0.11095 0.12363,-0.12363 0.18703,-0.46599 0.24726,-1.35676 0.006,-0.0349 0.01,-0.11412 0.01,-0.11412 h -1.34725 c 0.0222,-0.16801 0.0349,-0.33602 0.0444,-0.50086 z"
         style="font-weight:normal;font-family:'Noto Sans CJK TC';-inkscape-font-specification:'Noto Sans CJK TC';text-align:center;text-anchor:middle"
         id="path486" />
      <path
         d="m 107.79673,101.71131 c -0.12997,-0.10144 -0.38991,-0.23775 -0.58962,-0.317 l -0.1268,0.17118 c 0.20605,0.0919 0.45648,0.23458 0.58645,0.34236 z m -0.4121,1.6484 c 0.18703,-0.29164 0.40893,-0.68472 0.57377,-1.01757 l -0.17118,-0.15533 c -0.18069,0.35821 -0.43112,0.77348 -0.59913,1.0144 z m -0.13314,-2.64695 c 0.20922,0.0951 0.46599,0.24726 0.59279,0.35504 l 0.13631,-0.19654 c -0.13314,-0.10144 -0.39308,-0.24409 -0.6023,-0.32968 z m 2.65646,2.58038 c -0.0951,-0.24409 -0.33285,-0.62132 -0.55475,-0.89711 l -0.1902,0.0888 c 0.0983,0.12363 0.19337,0.26628 0.28213,0.40893 l -1.00172,0.11095 c 0.19654,-0.26628 0.39308,-0.6023 0.55792,-0.93832 h 0.89394 v -0.22507 h -0.83054 v -0.56426 h 0.70057 v -0.22507 h -0.70057 v -0.54524 h -0.23458 v 0.54524 h -0.67521 v 0.22507 h 0.67521 v 0.56426 h -0.81469 v 0.22507 h 0.70691 c -0.1585,0.35504 -0.36772,0.69106 -0.43746,0.78616 -0.0793,0.11412 -0.14265,0.1902 -0.20288,0.20605 0.0285,0.0634 0.0666,0.18069 0.0793,0.23458 0.0856,-0.0412 0.21873,-0.0634 1.3948,-0.20922 0.0602,0.11729 0.11412,0.22507 0.14582,0.31383 z"
         style="font-weight:normal;font-family:'Noto Sans CJK TC';-inkscape-font-specification:'Noto Sans CJK TC';text-align:center;text-anchor:middle"
         id="path488" />
      <path
         d="m 110.90333,101.05512 v 1.25532 h -0.33919 v -1.25532 z m 0.21239,-0.21873 h -0.7608 v 1.98759 h 0.20922 v -0.29481 h 0.55158 z m 2.01929,1.2046 h -0.84322 v -1.1412 c 0.26628,-0.038 0.51988,-0.0856 0.71959,-0.14265 l -0.16167,-0.18703 c -0.36772,0.10778 -1.02391,0.1902 -1.57549,0.23458 0.0254,0.0539 0.0571,0.13948 0.0634,0.19337 0.23141,-0.0159 0.48184,-0.038 0.72276,-0.0666 v 1.1095 h -0.80835 v 0.22507 h 0.80835 v 0.83054 c 0,0.0539 -0.0222,0.0729 -0.0793,0.0729 -0.0475,0 -0.23141,0.003 -0.43112,-0.003 0.038,0.0634 0.0761,0.16167 0.0888,0.22507 0.26311,0.003 0.42161,-0.003 0.51988,-0.0412 0.0951,-0.0412 0.13314,-0.10461 0.13314,-0.2536 v -0.83054 h 0.84322 z m -1.75935,-0.85273 c 0.11412,0.23141 0.21239,0.54207 0.24092,0.74495 l 0.20922,-0.0697 c -0.0317,-0.20288 -0.13314,-0.5072 -0.2536,-0.73861 z m 1.29019,0.75446 c 0.10778,-0.20288 0.23775,-0.53256 0.33919,-0.79884 l -0.22824,-0.0666 c -0.0666,0.24409 -0.19654,0.59279 -0.29798,0.79884 z"
         style="font-weight:normal;font-family:'Noto Sans CJK TC';-inkscape-font-specification:'Noto Sans CJK TC';text-align:center;text-anchor:middle"
         id="path490" />
      <path
         d="m 114.35546,101.01391 v 1.37895 h -0.54524 v -1.37895 z m 0.22824,-0.21873 h -0.99538 v 2.10488 h 0.2219 v -0.28847 h 0.77348 z m 1.27117,-0.25677 v 1.76886 l -0.68155,0.1585 v -1.67059 h -0.23775 v 1.57866 c 0,0.13631 -0.10778,0.21556 -0.17435,0.25043 0.038,0.0476 0.0919,0.13948 0.11095,0.19654 0.0729,-0.0507 0.18069,-0.0919 0.9827,-0.29481 v 0.88126 h 0.24092 v -2.86885 z"
         style="font-weight:normal;font-family:'Noto Sans CJK TC';-inkscape-font-specification:'Noto Sans CJK TC';text-align:center;text-anchor:middle"
         id="path492" />
    </g>
    <g
       aria-label="事件"
       id="text6873"
       style="font-weight:500;font-size:3.17px;line-height:1.25;font-family:Poppins;-inkscape-font-specification:'Poppins, Medium';letter-spacing:0;stroke-width:0.26">
      <path
         d="m 99.863584,110.10156 h -0.7608 v -0.23775 h 0.7608 z m -0.7608,-0.64668 h 0.7608 v 0.2219 h -0.7608 z m -0.91613,-0.56109 v -0.22824 h 0.68155 v 0.22824 z m 1.62621,-0.22824 v 0.22824 h -0.71008 v -0.22824 z m 0.611806,1.01123 h -0.32651 v -0.39625 h -0.995376 v -0.2219 h 0.944656 v -0.55792 h -0.944656 v -0.18386 h 1.261656 v -0.19337 h -1.261656 v -0.2536 h -0.23458 v 0.2536 h -1.2363 v 0.19337 h 1.2363 v 0.18386 h -0.90662 v 0.55792 h 0.90662 v 0.2219 h -0.99538 v 0.17435 h 0.99538 v 0.2219 h -1.29653 v 0.18703 h 1.29653 v 0.23775 h -1.02391 v 0.18069 h 1.02391 v 0.21873 c 0,0.0539 -0.01902,0.0729 -0.07925,0.0761 -0.05389,0 -0.24409,0.003 -0.43429,-0.003 0.0317,0.0539 0.06974,0.13948 0.08242,0.19971 0.26311,0 0.42795,-0.003 0.52622,-0.038 0.0951,-0.0349 0.13948,-0.0888 0.13948,-0.23458 v -0.21873 h 0.7608 v 0.14265 h 0.234576 v -0.56109 h 0.32651 z"
         style="font-weight:normal;font-family:'Noto Sans CJK TC';-inkscape-font-specification:'Noto Sans CJK TC'"
         id="path481" />
      <path
         d="m 101.4359,107.87939 c -0.16801,0.47867 -0.44697,0.951 -0.74178,1.25849 0.0412,0.0539 0.11095,0.17435 0.13314,0.23141 0.0983,-0.11095 0.19971,-0.23458 0.29164,-0.37089 v 1.75935 h 0.22507 v -2.1239 c 0.12046,-0.21873 0.22507,-0.45331 0.31383,-0.68472 z m 2.14926,1.55964 h -0.85907 v -0.69423 h 0.72276 v -0.23141 h -0.72276 v -0.60547 h -0.23458 v 0.60547 h -0.42161 c 0.0412,-0.14265 0.0761,-0.29164 0.10461,-0.44063 l -0.2219,-0.0476 c -0.0729,0.40893 -0.20288,0.82103 -0.38991,1.08097 0.0602,0.0285 0.1585,0.0856 0.20288,0.12046 0.0856,-0.13314 0.16167,-0.29798 0.22824,-0.48184 h 0.49769 v 0.69423 h -0.90345 v 0.23141 h 0.90345 v 1.09365 h 0.23458 v -1.09365 h 0.85907 z"
         style="font-weight:normal;font-family:'Noto Sans CJK TC';-inkscape-font-specification:'Noto Sans CJK TC'"
         id="path483" />
    </g>
    <g
       aria-label="事件"
       id="text6877"
       style="font-weight:500;font-size:3.17px;line-height:1.25;font-family:Poppins;-inkscape-font-specification:'Poppins, Medium';letter-spacing:0;stroke-width:0.26">
      <path
         d="m 152.78358,120.68156 h -0.7608 v -0.23775 h 0.7608 z m -0.7608,-0.64668 h 0.7608 v 0.2219 h -0.7608 z m -0.91613,-0.56109 v -0.22824 h 0.68155 v 0.22824 z m 1.62621,-0.22824 v 0.22824 h -0.71008 v -0.22824 z m 0.61181,1.01123 h -0.32651 v -0.39625 h -0.99538 v -0.2219 h 0.94466 v -0.55792 h -0.94466 v -0.18386 h 1.26166 v -0.19337 h -1.26166 v -0.2536 h -0.23458 v 0.2536 h -1.2363 v 0.19337 h 1.2363 v 0.18386 h -0.90662 v 0.55792 h 0.90662 v 0.2219 h -0.99538 v 0.17435 h 0.99538 v 0.2219 h -1.29653 v 0.18703 h 1.29653 v 0.23775 h -1.02391 v 0.18069 h 1.02391 v 0.21873 c 0,0.0539 -0.019,0.0729 -0.0793,0.0761 -0.0539,0 -0.24409,0.003 -0.43429,-0.003 0.0317,0.0539 0.0697,0.13948 0.0824,0.19971 0.26311,0 0.42795,-0.003 0.52622,-0.038 0.0951,-0.0349 0.13948,-0.0888 0.13948,-0.23458 v -0.21873 h 0.7608 v 0.14265 h 0.23458 v -0.56109 h 0.32651 z"
         style="font-weight:normal;font-family:'Noto Sans CJK TC';-inkscape-font-specification:'Noto Sans CJK TC'"
         id="path518" />
      <path
         d="m 154.3559,118.45939 c -0.16801,0.47867 -0.44697,0.951 -0.74178,1.25849 0.0412,0.0539 0.11095,0.17435 0.13314,0.23141 0.0983,-0.11095 0.19971,-0.23458 0.29164,-0.37089 v 1.75935 h 0.22507 v -2.1239 c 0.12046,-0.21873 0.22507,-0.45331 0.31383,-0.68472 z m 2.14926,1.55964 h -0.85907 v -0.69423 h 0.72276 v -0.23141 h -0.72276 v -0.60547 h -0.23458 v 0.60547 h -0.42161 c 0.0412,-0.14265 0.0761,-0.29164 0.10461,-0.44063 l -0.2219,-0.0476 c -0.0729,0.40893 -0.20288,0.82103 -0.38991,1.08097 0.0602,0.0285 0.1585,0.0856 0.20288,0.12046 0.0856,-0.13314 0.16167,-0.29798 0.22824,-0.48184 h 0.49769 v 0.69423 h -0.90345 v 0.23141 h 0.90345 v 1.09365 h 0.23458 v -1.09365 h 0.85907 z"
         style="font-weight:normal;font-family:'Noto Sans CJK TC';-inkscape-font-specification:'Noto Sans CJK TC'"
         id="path520" />
    </g>
    <g
       aria-label="設定呼叫"
       id="text6881"
       style="font-weight:500;font-size:3.17px;line-height:1.25;font-family:Poppins;-inkscape-font-specification:'Poppins, Medium';letter-spacing:0;stroke-width:0.26">
      <path
         d="m 113.84811,153.88273 h 0.52622 v 0.5072 c 0,0.23775 0.0444,0.32651 0.25043,0.32651 h 0.20605 c 0.0602,0 0.12363,-0.003 0.15533,-0.0159 -0.003,-0.0539 -0.0127,-0.14265 -0.0159,-0.20288 -0.038,0.01 -0.0983,0.0159 -0.13948,0.0159 h -0.18703 c -0.0444,0 -0.0507,-0.0285 -0.0507,-0.11729 v -0.73544 h -0.96368 v 0.3487 c 0,0.22507 -0.0539,0.48501 -0.39308,0.67838 0.0412,0.0349 0.12046,0.12363 0.15216,0.17118 0.37723,-0.2219 0.45965,-0.55792 0.45965,-0.84322 z m -0.9193,0.0602 c -0.0507,-0.11412 -0.15216,-0.27896 -0.24409,-0.40893 l -0.18386,0.0919 c 0.0888,0.13314 0.1902,0.31066 0.23775,0.42478 z m 0.42795,0.14265 h -1.19826 v 0.19337 h 1.19826 z m -1.06195,1.0144 h 0.93515 v -0.18703 h -0.93515 z m 0,-0.59913 v 0.18703 h 0.93198 v -0.18703 z m 2.26655,0.65936 c -0.10461,0.24092 -0.25994,0.44063 -0.44697,0.60547 -0.1902,-0.16801 -0.34236,-0.37089 -0.44697,-0.60547 z m -1.54379,0.89394 h -0.51988 v -0.52305 h 0.51988 z m 1.69595,-1.12535 -0.0412,0.01 h -1.35042 v 0.2219 h 0.27579 l -0.13631,0.0476 c 0.11412,0.26945 0.27579,0.5072 0.47233,0.70057 -0.21239,0.14582 -0.45648,0.2536 -0.70691,0.32017 v -0.89394 h -0.93515 v 1.06512 h 0.20605 v -0.14899 h 0.72276 c 0.0412,0.0539 0.0856,0.13631 0.10778,0.19654 0.2853,-0.0856 0.55158,-0.21239 0.78616,-0.38674 0.22507,0.17118 0.48818,0.29798 0.78616,0.37723 0.0317,-0.0666 0.0983,-0.16167 0.14582,-0.21239 -0.28213,-0.0634 -0.53256,-0.17118 -0.74812,-0.317 0.25043,-0.23141 0.44697,-0.52939 0.56426,-0.91296 z"
         style="font-weight:normal;font-family:'Noto Sans CJK TC';-inkscape-font-specification:'Noto Sans CJK TC'"
         id="path523" />
      <path
         d="m 115.67086,154.12999 h 2.15877 v 0.46282 h 0.23775 v -0.68789 h -1.12852 c -0.038,-0.10461 -0.11729,-0.25994 -0.18703,-0.37723 l -0.22824,0.0666 c 0.0507,0.0919 0.10778,0.21239 0.14582,0.31066 h -1.22996 v 0.68789 h 0.23141 z m 1.20143,1.35359 h 0.93832 v -0.2219 h -0.93832 v -0.51671 h 0.80835 v -0.22507 h -1.83543 v 0.22507 h 0.78616 v 1.30921 c -0.25677,-0.0983 -0.45965,-0.28213 -0.58011,-0.61815 0.0285,-0.1268 0.0539,-0.26311 0.0729,-0.40893 l -0.23458,-0.0254 c -0.0697,0.5706 -0.24092,1.02074 -0.59279,1.29019 0.0571,0.0349 0.15216,0.11729 0.1902,0.16167 0.20922,-0.18069 0.36455,-0.42161 0.47233,-0.71642 0.28847,0.5389 0.7608,0.65302 1.42016,0.65302 h 0.73227 c 0.0127,-0.0697 0.0507,-0.17752 0.0888,-0.23775 -0.15216,0.006 -0.69423,0.006 -0.80835,0.006 -0.18703,0 -0.36138,-0.01 -0.51988,-0.0412 z"
         style="font-weight:normal;font-family:'Noto Sans CJK TC';-inkscape-font-specification:'Noto Sans CJK TC'"
         id="path525" />
      <path
         d="m 119.13567,154.09512 v 1.25532 h -0.33919 v -1.25532 z m 0.21239,-0.21873 h -0.7608 v 1.98759 h 0.20922 v -0.29481 h 0.55158 z m 2.01929,1.2046 h -0.84322 v -1.1412 c 0.26628,-0.038 0.51988,-0.0856 0.71959,-0.14265 l -0.16167,-0.18703 c -0.36772,0.10778 -1.02391,0.1902 -1.57549,0.23458 0.0254,0.0539 0.0571,0.13948 0.0634,0.19337 0.23141,-0.0159 0.48184,-0.038 0.72276,-0.0666 v 1.1095 h -0.80835 v 0.22507 h 0.80835 v 0.83054 c 0,0.0539 -0.0222,0.0729 -0.0793,0.0729 -0.0476,0 -0.23141,0.003 -0.43112,-0.003 0.038,0.0634 0.0761,0.16167 0.0888,0.22507 0.26311,0.003 0.42161,-0.003 0.51988,-0.0412 0.0951,-0.0412 0.13314,-0.10461 0.13314,-0.2536 v -0.83054 h 0.84322 z m -1.75935,-0.85273 c 0.11412,0.23141 0.21239,0.54207 0.24092,0.74495 l 0.20922,-0.0697 c -0.0317,-0.20288 -0.13314,-0.5072 -0.2536,-0.73861 z m 1.29019,0.75446 c 0.10778,-0.20288 0.23775,-0.53256 0.33919,-0.79884 l -0.22824,-0.0666 c -0.0666,0.24409 -0.19654,0.59279 -0.29798,0.79884 z"
         style="font-weight:normal;font-family:'Noto Sans CJK TC';-inkscape-font-specification:'Noto Sans CJK TC'"
         id="path527" />
      <path
         d="m 122.5878,154.05391 v 1.37895 h -0.54524 v -1.37895 z m 0.22824,-0.21873 h -0.99538 v 2.10488 h 0.2219 v -0.28847 h 0.77348 z m 1.27117,-0.25677 v 1.76886 l -0.68155,0.1585 v -1.67059 h -0.23775 v 1.57866 c 0,0.13631 -0.10778,0.21556 -0.17435,0.25043 0.038,0.0476 0.0919,0.13948 0.11095,0.19654 0.0729,-0.0507 0.18069,-0.0919 0.9827,-0.29481 v 0.88126 h 0.24092 v -2.86885 z"
         style="font-weight:normal;font-family:'Noto Sans CJK TC';-inkscape-font-specification:'Noto Sans CJK TC'"
         id="path529" />
    </g>
    <g
       aria-label="套用組態規則"
       id="text6887"
       style="font-weight:500;font-size:3.17px;line-height:1.25;font-family:Poppins;-inkscape-font-specification:'Poppins, Medium';text-align:center;letter-spacing:0;text-anchor:middle;stroke-width:0.26">
      <path
         d="m 64.084448,119.56659 c 0.09193,0.11095 0.20605,0.22507 0.32651,0.32968 h -1.14437 c 0.11729,-0.10461 0.22507,-0.21556 0.31383,-0.32968 z m 0.48818,0.51671 v -0.0602 c 0.18386,0.13948 0.37406,0.25677 0.55158,0.33919 0.03487,-0.0571 0.10461,-0.13948 0.15533,-0.18386 -0.317,-0.12363 -0.68472,-0.36455 -0.93515,-0.61181 h 0.84005 v -0.20288 h -1.45503 c 0.06023,-0.0888 0.11095,-0.18386 0.15533,-0.27262 l -0.24409,-0.0444 c -0.04755,0.10144 -0.11095,0.21239 -0.18386,0.317 h -1.00172 v 0.20288 h 0.83688 c -0.22507,0.24726 -0.53573,0.4755 -0.93515,0.64668 0.05072,0.038 0.12046,0.12046 0.14899,0.17118 0.20288,-0.0919 0.38357,-0.19654 0.54207,-0.31066 v 0.96051 h -0.61498 v 0.19971 h 0.7925 c -0.13948,0.14899 -0.29164,0.26945 -0.35187,0.31066 -0.06974,0.0539 -0.13314,0.0888 -0.1902,0.0983 0.02853,0.0602 0.06023,0.17118 0.07291,0.2219 0.10144,-0.038 0.25994,-0.0444 1.86396,-0.12997 0.07291,0.0761 0.13631,0.14899 0.18069,0.20605 l 0.20605,-0.11729 c -0.1268,-0.15533 -0.38357,-0.40259 -0.58011,-0.57694 l -0.19337,0.0983 c 0.06974,0.0666 0.14899,0.13948 0.2219,0.21873 l -1.36627,0.0602 c 0.15216,-0.11095 0.30749,-0.24409 0.44697,-0.38991 h 1.66108 v -0.19971 h -1.91151 v -0.21239 h 1.30287 v -0.16801 h -1.30287 v -0.20288 h 1.30287 v -0.16801 h -1.30287 v -0.19971 z"
         style="font-weight:normal;font-family:'Noto Sans CJK TC';-inkscape-font-specification:'Noto Sans CJK TC'"
         id="path386" />
      <path
         d="m 67.118138,120.75217 v -0.52622 h 0.85273 v 0.52622 z m -1.00489,0 c 0.0095,-0.11729 0.01268,-0.23458 0.01268,-0.33919 v -0.18703 h 0.75763 v 0.52622 z m 0.77031,-1.25532 v 0.5072 h -0.75763 v -0.5072 z m 1.08731,0.5072 h -0.85273 v -0.5072 h 0.85273 z m 0.23141,-0.73227 h -2.30776 v 1.1412 c 0,0.44063 -0.0317,0.99855 -0.3804,1.39163 0.05072,0.0285 0.14582,0.10778 0.18069,0.15533 0.24092,-0.26945 0.3487,-0.63083 0.39625,-0.9827 h 0.7925 v 0.93515 h 0.23458 v -0.93515 h 0.85273 v 0.64351 c 0,0.0602 -0.02219,0.0793 -0.08559,0.0824 -0.05706,0 -0.27262,0.003 -0.49452,-0.006 0.0317,0.0634 0.06974,0.16484 0.07925,0.22824 0.29798,0.003 0.48184,0 0.58962,-0.038 0.10144,-0.0412 0.14265,-0.11095 0.14265,-0.26311 z"
         style="font-weight:normal;font-family:'Noto Sans CJK TC';-inkscape-font-specification:'Noto Sans CJK TC'"
         id="path388" />
      <path
         d="m 69.952118,120.89482 c -0.03487,-0.16801 -0.1268,-0.4438 -0.21239,-0.65619 l -0.18069,0.0539 c 0.0317,0.0888 0.06974,0.1902 0.10144,0.29481 l -0.56109,0.0729 c 0.26945,-0.2853 0.52939,-0.64668 0.75129,-1.01123 l -0.20288,-0.12363 c -0.07291,0.13948 -0.16167,0.28213 -0.24726,0.41527 l -0.37089,0.0317 c 0.18386,-0.23775 0.36772,-0.54207 0.51671,-0.84322 l -0.21556,-0.0919 c -0.13948,0.3487 -0.37406,0.71008 -0.4438,0.80201 -0.06974,0.0983 -0.1268,0.16167 -0.18069,0.17435 0.02536,0.0602 0.06023,0.16484 0.06974,0.21239 0.04755,-0.0222 0.12046,-0.038 0.47867,-0.0824 -0.12363,0.17435 -0.23458,0.31066 -0.28847,0.36455 -0.09827,0.11412 -0.17752,0.19337 -0.24092,0.20922 0.02536,0.0571 0.06023,0.17435 0.07291,0.2219 0.0634,-0.0349 0.16484,-0.0571 0.91613,-0.17118 0.01902,0.0729 0.0317,0.13948 0.04121,0.1902 z m -1.09365,0.18069 c -0.0317,0.2536 -0.07925,0.52939 -0.15216,0.72593 0.05072,0.0159 0.14582,0.0476 0.19337,0.0729 0.0634,-0.19654 0.12363,-0.49452 0.1585,-0.76714 z m 0.37406,0.0254 c 0.03804,0.21239 0.07291,0.49769 0.07925,0.68155 l 0.19971,-0.038 c -0.01268,-0.18703 -0.05072,-0.46599 -0.09193,-0.67838 z m 0.35187,-0.0602 c 0.06023,0.17118 0.12997,0.39625 0.15533,0.54524 l 0.18703,-0.0634 c -0.02853,-0.14582 -0.09827,-0.36772 -0.16801,-0.5389 z m 0.75763,0.003 h 0.81786 v 0.61815 h -0.81786 z m 0.81786,-1.61987 v 0.58962 h -0.81786 v -0.58962 z m 0,1.40748 h -0.81786 v -0.60547 h 0.81786 z m 0.22507,0.83054 v -2.45358 h -1.26166 v 2.45358 h -0.27896 v 0.21556 h 1.75301 v -0.21556 z"
         style="font-weight:normal;font-family:'Noto Sans CJK TC';-inkscape-font-specification:'Noto Sans CJK TC'"
         id="path390" />
      <path
         d="m 74.383778,119.96601 c 0.09827,0 0.20922,0 0.25677,-0.0159 -0.0095,-0.0507 -0.01902,-0.13314 -0.02219,-0.1902 -0.05706,0.01 -0.17435,0.0159 -0.24092,0.0159 h -0.52305 c -0.08242,0 -0.09827,-0.0317 -0.09827,-0.12046 v -0.16167 h 0.77031 v -0.18703 h -0.77031 v -0.23458 h -0.21873 v 0.57694 c 0,0.23458 0.0634,0.317 0.31066,0.317 z m 0.01268,1.08414 c 0.20922,0 0.27579,-0.0697 0.30115,-0.33602 -0.06023,-0.0127 -0.14899,-0.0444 -0.19654,-0.0793 -0.0095,0.1902 -0.02853,0.21873 -0.1268,0.21873 h -0.46599 c -0.12997,0 -0.15533,-0.0127 -0.15533,-0.0888 v -0.22824 h 0.77031 v -0.18703 h -0.77031 v -0.25043 h -0.21873 v 0.6657 c 0,0.22507 0.07291,0.2853 0.35821,0.2853 z m -1.2046,-1.18875 h -1.0778 v 0.50403 c 0,0.19654 -0.01585,0.44697 -0.16801,0.63083 0.04755,0.0254 0.12997,0.0951 0.16484,0.13314 0.17752,-0.21239 0.20605,-0.52305 0.20605,-0.7608 v -0.32651 h 0.6657 v 0.42161 c -0.25677,0.0729 -0.50403,0.13631 -0.68155,0.17752 l 0.07291,0.17118 c 0.18703,-0.0571 0.39308,-0.1268 0.60864,-0.20288 v 0.25994 c 0,0.0349 -0.0095,0.0444 -0.04755,0.0444 -0.0317,0.003 -0.14899,0.003 -0.28213,0 0.02536,0.0476 0.05706,0.11412 0.06974,0.16484 0.18069,0 0.29798,0 0.37089,-0.0285 0.07608,-0.0317 0.09827,-0.0761 0.09827,-0.18069 z m -0.83371,0.38674 c 0.16484,0.0571 0.38674,0.15216 0.5072,0.21239 l 0.08559,-0.12997 c -0.11729,-0.0602 -0.34236,-0.14582 -0.50403,-0.20288 z m 1.27751,1.16656 c -0.07608,-0.0983 -0.2219,-0.25994 -0.33602,-0.37723 l -0.1585,0.10461 c 0.11412,0.12046 0.25677,0.29164 0.32968,0.39308 z m -0.23458,-1.70229 c -0.08559,-0.13948 -0.27262,-0.35504 -0.42478,-0.51037 l -0.16167,0.0856 c 0.06023,0.0602 0.12046,0.13314 0.18069,0.20605 l -0.6974,0.0507 c 0.14582,-0.12046 0.29481,-0.27262 0.43429,-0.43429 l -0.21556,-0.0761 c -0.14265,0.20288 -0.35504,0.39942 -0.42161,0.44697 -0.06023,0.0539 -0.11412,0.0856 -0.16484,0.0919 0.02536,0.0539 0.05706,0.1585 0.06974,0.20288 0.06657,-0.0285 0.18069,-0.0444 1.12218,-0.12046 0.04121,0.0571 0.07925,0.11412 0.10461,0.15533 z m -1.268,2.13658 c 0.10778,-0.15533 0.19337,-0.39942 0.24726,-0.58962 l -0.19654,-0.0793 c -0.05072,0.18069 -0.14899,0.42161 -0.2536,0.56426 z m 0.93515,-0.15216 c -0.18703,0 -0.2219,-0.0127 -0.2219,-0.0919 v -0.38674 h -0.22824 v 0.38991 c 0,0.22824 0.0951,0.2853 0.43746,0.2853 h 0.68155 c 0.27262,0 0.34553,-0.0856 0.37406,-0.44063 -0.06023,-0.0159 -0.15216,-0.0476 -0.20605,-0.0824 -0.01268,0.28847 -0.03804,0.32651 -0.18703,0.32651 z m 1.1412,-0.46916 c 0.0951,0.18386 0.19971,0.43112 0.24726,0.58011 l 0.21239,-0.0697 c -0.04438,-0.14582 -0.16167,-0.38991 -0.25677,-0.5706 z"
         style="font-weight:normal;font-family:'Noto Sans CJK TC';-inkscape-font-specification:'Noto Sans CJK TC'"
         id="path392" />
      <path
         d="m 76.301628,121.33228 c -0.07291,-0.10144 -0.40576,-0.50403 -0.52939,-0.63717 0.0063,-0.0602 0.01268,-0.12046 0.01902,-0.17752 h 0.51354 v -0.21556 h -0.50403 c 0.0032,-0.0697 0.0032,-0.13948 0.0032,-0.20288 v -0.31383 h 0.44063 v -0.21239 h -0.44063 v -0.49135 h -0.2219 v 0.49135 h -0.45648 v 0.21239 h 0.45648 v 0.31383 c 0,0.0634 0,0.13314 -0.0032,0.20288 h -0.51988 v 0.21556 h 0.51037 c -0.0317,0.42478 -0.14265,0.90345 -0.52939,1.21728 0.05706,0.0412 0.13314,0.11729 0.16484,0.16484 0.29798,-0.26628 0.45331,-0.60864 0.52622,-0.96051 0.13948,0.18386 0.33285,0.44063 0.40893,0.56743 z m 0.33919,-0.93515 h 0.90345 v 0.31383 h -0.90345 z m 0,-0.5072 h 0.90345 v 0.31383 h -0.90345 z m 0,-0.50403 h 0.90345 v 0.30749 h -0.90345 z m 0.83054,2.29191 c -0.06657,0 -0.07608,-0.01 -0.07608,-0.0761 v -0.67838 h 0.37723 v -1.75301 h -1.35042 v 1.75301 h 0.30115 c -0.05072,0.38991 -0.18703,0.68155 -0.6657,0.84005 0.04755,0.038 0.10778,0.12363 0.13314,0.17752 0.53256,-0.19337 0.6974,-0.5389 0.75763,-1.01757 h 0.22824 v 0.67838 c 0,0.2219 0.05072,0.2853 0.26628,0.2853 h 0.26311 c 0.16801,0 0.23141,-0.0793 0.2536,-0.37723 -0.0634,-0.0159 -0.15533,-0.0507 -0.19654,-0.0856 -0.0063,0.2219 -0.02219,0.2536 -0.07925,0.2536 z"
         style="font-weight:normal;font-family:'Noto Sans CJK TC';-inkscape-font-specification:'Noto Sans CJK TC'"
         id="path394" />
      <path
         d="m 79.962978,119.42711 v 1.7435 h 0.23141 v -1.7435 z m 0.77348,-0.317 v 2.52015 c 0,0.0602 -0.02536,0.0792 -0.08242,0.0792 -0.06023,0.003 -0.25994,0.006 -0.48184,-0.003 0.03487,0.0666 0.07291,0.17435 0.08559,0.23775 0.28847,0 0.46599,-0.003 0.5706,-0.0412 0.09827,-0.0412 0.14265,-0.11412 0.14265,-0.27262 v -2.52015 z m -2.11756,2.13975 c -0.09193,0.20605 -0.25043,0.4121 -0.41844,0.55158 0.06023,0.0349 0.15216,0.10461 0.19654,0.14582 0.16801,-0.15533 0.34553,-0.39625 0.45014,-0.634 z m 0.54207,0.0888 c 0.13948,0.17118 0.28847,0.40576 0.35187,0.55792 l 0.21556,-0.10778 c -0.06974,-0.14899 -0.21873,-0.37089 -0.36138,-0.53573 z m -0.54207,-1.37578 h 0.77031 v 0.39308 h -0.77031 z m 0,0.58645 h 0.77031 v 0.39942 h -0.77031 z m 0,-1.16656 h 0.77031 v 0.38674 h -0.77031 z m -0.22507,-0.21239 v 1.98759 h 1.22362 v -1.98759 z"
         style="font-weight:normal;font-family:'Noto Sans CJK TC';-inkscape-font-specification:'Noto Sans CJK TC'"
         id="path396" />
    </g>
    <g
       aria-label="靜態組態"
       id="text6893"
       style="font-weight:500;font-size:3.17px;line-height:1.25;font-family:Poppins;-inkscape-font-specification:'Poppins, Medium';letter-spacing:0;stroke-width:0.26">
      <path
         d="m 14.223652,64.701446 c -0.29798,0.0951 -0.83688,0.17435 -1.29336,0.22507 0.02536,0.04438 0.05389,0.12046 0.0634,0.16801 0.46916,-0.04121 1.03025,-0.12046 1.3948,-0.23141 z m -0.11412,0.87492 c 0.07608,-0.1268 0.16801,-0.31066 0.24726,-0.47867 l -0.19971,-0.06023 c -0.05072,0.14265 -0.14582,0.35187 -0.22507,0.47867 z m -0.32968,-0.04755 c -0.01902,-0.11729 -0.07608,-0.29798 -0.13948,-0.43112 l -0.18069,0.03804 c 0.05706,0.13948 0.11412,0.32334 0.12997,0.4438 z m -0.39625,0.0317 c -0.0317,-0.11412 -0.11095,-0.2853 -0.19337,-0.40893 l -0.17118,0.06657 c 0.07925,0.12997 0.15533,0.30115 0.18386,0.41844 z m -1.42333,1.28702 c 0.0032,-0.03804 0.0032,-0.06974 0.0032,-0.10461 v -0.12046 h 0.61498 v 0.22507 z m 0.61815,-0.61815 v 0.2219 h -0.61498 v -0.2219 z m 0.20288,-0.18069 h -1.02391 v 0.69106 c 0,0.2219 -0.01585,0.48501 -0.1585,0.68155 0.04438,0.02853 0.12046,0.11095 0.14899,0.15533 0.12046,-0.15533 0.17752,-0.36138 0.19971,-0.56109 h 0.63083 v 0.30749 c 0,0.03487 -0.01268,0.04755 -0.05389,0.04755 -0.03804,0 -0.16484,0.0032 -0.31066,-0.0032 0.02853,0.05389 0.06023,0.12997 0.06974,0.18703 0.19971,0 0.32017,-0.0032 0.39625,-0.03804 0.07925,-0.0317 0.10144,-0.08559 0.10144,-0.19337 z m -0.38991,-0.56426 h 0.40576 v -0.17118 h -0.40576 v -0.1902 h 0.48501 v -0.17752 h -0.48501 v -0.28213 h -0.2219 v 0.28213 h -0.51037 v 0.17752 h 0.51037 v 0.1902 h -0.42478 v 0.17118 h 0.42478 v 0.20605 h -0.56109 v 0.18069 h 1.31238 v -0.18069 h -0.52939 z m 1.69278,1.13803 h -0.34236 v -0.29481 h 0.34236 z m -0.34236,-0.77665 h 0.34236 v 0.27262 h -0.34236 z m 0.75129,0.27262 h -0.20605 v -0.46916 h -1.21728 v 0.19654 h 0.45331 v 0.27262 h -0.59913 v 0.20922 h 0.59913 v 0.29481 h -0.46282 v 0.19654 h 0.46282 v 0.47867 c 0,0.03487 -0.0095,0.04755 -0.04755,0.04755 -0.03804,0 -0.16484,0 -0.29481,-0.0032 0.02853,0.06023 0.06023,0.14582 0.06974,0.20922 0.18386,0 0.30749,-0.0063 0.38674,-0.03804 0.08242,-0.03487 0.10461,-0.09193 0.10461,-0.21556 v -0.47867 h 0.54524 v -0.49135 h 0.20605 z"
         style="font-weight:normal;font-family:'Noto Sans CJK TC';-inkscape-font-specification:'Noto Sans CJK TC';text-align:end;text-anchor:end"
         id="path349" />
      <path
         d="m 17.257342,65.582706 c 0.09827,0 0.20922,0 0.25677,-0.01585 -0.0095,-0.05072 -0.01902,-0.13314 -0.02219,-0.1902 -0.05706,0.0095 -0.17435,0.01585 -0.24092,0.01585 h -0.52305 c -0.08242,0 -0.09827,-0.0317 -0.09827,-0.12046 v -0.16167 h 0.77031 v -0.18703 h -0.77031 v -0.23458 h -0.21873 v 0.57694 c 0,0.23458 0.0634,0.317 0.31066,0.317 z m 0.01268,1.08414 c 0.20922,0 0.27579,-0.06974 0.30115,-0.33602 -0.06023,-0.01268 -0.14899,-0.04438 -0.19654,-0.07925 -0.0095,0.1902 -0.02853,0.21873 -0.1268,0.21873 h -0.46599 c -0.12997,0 -0.15533,-0.01268 -0.15533,-0.08876 v -0.22824 h 0.77031 v -0.18703 h -0.77031 v -0.25043 h -0.21873 v 0.6657 c 0,0.22507 0.07291,0.2853 0.35821,0.2853 z m -1.2046,-1.18875 h -1.0778 v 0.50403 c 0,0.19654 -0.01585,0.44697 -0.16801,0.63083 0.04755,0.02536 0.12997,0.0951 0.16484,0.13314 0.17752,-0.21239 0.20605,-0.52305 0.20605,-0.7608 v -0.32651 h 0.6657 v 0.42161 c -0.25677,0.07291 -0.50403,0.13631 -0.68155,0.17752 l 0.07291,0.17118 c 0.18703,-0.05706 0.39308,-0.1268 0.60864,-0.20288 v 0.25994 c 0,0.03487 -0.0095,0.04438 -0.04755,0.04438 -0.0317,0.0032 -0.14899,0.0032 -0.28213,0 0.02536,0.04755 0.05706,0.11412 0.06974,0.16484 0.18069,0 0.29798,0 0.37089,-0.02853 0.07608,-0.0317 0.09827,-0.07608 0.09827,-0.18069 z m -0.83371,0.38674 c 0.16484,0.05706 0.38674,0.15216 0.5072,0.21239 l 0.08559,-0.12997 c -0.11729,-0.06023 -0.34236,-0.14582 -0.50403,-0.20288 z m 1.27751,1.16656 c -0.07608,-0.09827 -0.2219,-0.25994 -0.33602,-0.37723 l -0.1585,0.10461 c 0.11412,0.12046 0.25677,0.29164 0.32968,0.39308 z m -0.23458,-1.70229 c -0.08559,-0.13948 -0.27262,-0.35504 -0.42478,-0.51037 l -0.16167,0.08559 c 0.06023,0.06023 0.12046,0.13314 0.18069,0.20605 l -0.6974,0.05072 c 0.14582,-0.12046 0.29481,-0.27262 0.43429,-0.43429 l -0.21556,-0.07608 c -0.14265,0.20288 -0.35504,0.39942 -0.42161,0.44697 -0.06023,0.05389 -0.11412,0.08559 -0.16484,0.09193 0.02536,0.05389 0.05706,0.1585 0.06974,0.20288 0.06657,-0.02853 0.18069,-0.04438 1.12218,-0.12046 0.04121,0.05706 0.07925,0.11412 0.10461,0.15533 z m -1.268,2.13658 c 0.10778,-0.15533 0.19337,-0.39942 0.24726,-0.58962 l -0.19654,-0.07925 c -0.05072,0.18069 -0.14899,0.42161 -0.2536,0.56426 z m 0.93515,-0.15216 c -0.18703,0 -0.2219,-0.01268 -0.2219,-0.09193 v -0.38674 h -0.22824 v 0.38991 c 0,0.22824 0.0951,0.2853 0.43746,0.2853 h 0.68155 c 0.27262,0 0.34553,-0.08559 0.37406,-0.44063 -0.06023,-0.01585 -0.15216,-0.04755 -0.20605,-0.08242 -0.01268,0.28847 -0.03804,0.32651 -0.18703,0.32651 z m 1.1412,-0.46916 c 0.0951,0.18386 0.19971,0.43112 0.24726,0.58011 l 0.21239,-0.06974 c -0.04438,-0.14582 -0.16167,-0.38991 -0.25677,-0.5706 z"
         style="font-weight:normal;font-family:'Noto Sans CJK TC';-inkscape-font-specification:'Noto Sans CJK TC';text-align:end;text-anchor:end"
         id="path351" />
      <path
         d="m 19.165682,66.511516 c -0.03487,-0.16801 -0.1268,-0.4438 -0.21239,-0.65619 l -0.18069,0.05389 c 0.0317,0.08876 0.06974,0.1902 0.10144,0.29481 l -0.56109,0.07291 c 0.26945,-0.2853 0.52939,-0.64668 0.75129,-1.01123 l -0.20288,-0.12363 c -0.07291,0.13948 -0.16167,0.28213 -0.24726,0.41527 l -0.37089,0.0317 c 0.18386,-0.23775 0.36772,-0.54207 0.51671,-0.84322 l -0.21556,-0.09193 c -0.13948,0.3487 -0.37406,0.71008 -0.4438,0.80201 -0.06974,0.09827 -0.1268,0.16167 -0.18069,0.17435 0.02536,0.06023 0.06023,0.16484 0.06974,0.21239 0.04755,-0.02219 0.12046,-0.03804 0.47867,-0.08242 -0.12363,0.17435 -0.23458,0.31066 -0.28847,0.36455 -0.09827,0.11412 -0.17752,0.19337 -0.24092,0.20922 0.02536,0.05706 0.06023,0.17435 0.07291,0.2219 0.0634,-0.03487 0.16484,-0.05706 0.91613,-0.17118 0.01902,0.07291 0.0317,0.13948 0.04121,0.1902 z m -1.09365,0.18069 c -0.0317,0.2536 -0.07925,0.52939 -0.15216,0.72593 0.05072,0.01585 0.14582,0.04755 0.19337,0.07291 0.0634,-0.19654 0.12363,-0.49452 0.1585,-0.76714 z m 0.37406,0.02536 c 0.03804,0.21239 0.07291,0.49769 0.07925,0.68155 l 0.19971,-0.03804 c -0.01268,-0.18703 -0.05072,-0.46599 -0.09193,-0.67838 z m 0.35187,-0.06023 c 0.06023,0.17118 0.12997,0.39625 0.15533,0.54524 l 0.18703,-0.0634 c -0.02853,-0.14582 -0.09827,-0.36772 -0.16801,-0.5389 z m 0.75763,0.0032 h 0.81786 v 0.61815 h -0.81786 z m 0.81786,-1.61987 v 0.58962 h -0.81786 v -0.58962 z m 0,1.40748 h -0.81786 v -0.60547 h 0.81786 z m 0.22507,0.83054 v -2.45358 h -1.26166 v 2.45358 h -0.27896 v 0.21556 h 1.75301 v -0.21556 z"
         style="font-weight:normal;font-family:'Noto Sans CJK TC';-inkscape-font-specification:'Noto Sans CJK TC';text-align:end;text-anchor:end"
         id="path353" />
      <path
         d="m 23.597342,65.582706 c 0.09827,0 0.20922,0 0.25677,-0.01585 -0.0095,-0.05072 -0.01902,-0.13314 -0.02219,-0.1902 -0.05706,0.0095 -0.17435,0.01585 -0.24092,0.01585 h -0.52305 c -0.08242,0 -0.09827,-0.0317 -0.09827,-0.12046 v -0.16167 h 0.77031 v -0.18703 h -0.77031 v -0.23458 h -0.21873 v 0.57694 c 0,0.23458 0.0634,0.317 0.31066,0.317 z m 0.01268,1.08414 c 0.20922,0 0.27579,-0.06974 0.30115,-0.33602 -0.06023,-0.01268 -0.14899,-0.04438 -0.19654,-0.07925 -0.0095,0.1902 -0.02853,0.21873 -0.1268,0.21873 h -0.46599 c -0.12997,0 -0.15533,-0.01268 -0.15533,-0.08876 v -0.22824 h 0.77031 v -0.18703 h -0.77031 v -0.25043 h -0.21873 v 0.6657 c 0,0.22507 0.07291,0.2853 0.35821,0.2853 z m -1.2046,-1.18875 h -1.0778 v 0.50403 c 0,0.19654 -0.01585,0.44697 -0.16801,0.63083 0.04755,0.02536 0.12997,0.0951 0.16484,0.13314 0.17752,-0.21239 0.20605,-0.52305 0.20605,-0.7608 v -0.32651 h 0.6657 v 0.42161 c -0.25677,0.07291 -0.50403,0.13631 -0.68155,0.17752 l 0.07291,0.17118 c 0.18703,-0.05706 0.39308,-0.1268 0.60864,-0.20288 v 0.25994 c 0,0.03487 -0.0095,0.04438 -0.04755,0.04438 -0.0317,0.0032 -0.14899,0.0032 -0.28213,0 0.02536,0.04755 0.05706,0.11412 0.06974,0.16484 0.18069,0 0.29798,0 0.37089,-0.02853 0.07608,-0.0317 0.09827,-0.07608 0.09827,-0.18069 z m -0.83371,0.38674 c 0.16484,0.05706 0.38674,0.15216 0.5072,0.21239 l 0.08559,-0.12997 c -0.11729,-0.06023 -0.34236,-0.14582 -0.50403,-0.20288 z m 1.27751,1.16656 c -0.07608,-0.09827 -0.2219,-0.25994 -0.33602,-0.37723 l -0.1585,0.10461 c 0.11412,0.12046 0.25677,0.29164 0.32968,0.39308 z m -0.23458,-1.70229 c -0.08559,-0.13948 -0.27262,-0.35504 -0.42478,-0.51037 l -0.16167,0.08559 c 0.06023,0.06023 0.12046,0.13314 0.18069,0.20605 l -0.6974,0.05072 c 0.14582,-0.12046 0.29481,-0.27262 0.43429,-0.43429 l -0.21556,-0.07608 c -0.14265,0.20288 -0.35504,0.39942 -0.42161,0.44697 -0.06023,0.05389 -0.11412,0.08559 -0.16484,0.09193 0.02536,0.05389 0.05706,0.1585 0.06974,0.20288 0.06657,-0.02853 0.18069,-0.04438 1.12218,-0.12046 0.04121,0.05706 0.07925,0.11412 0.10461,0.15533 z m -1.268,2.13658 c 0.10778,-0.15533 0.19337,-0.39942 0.24726,-0.58962 l -0.19654,-0.07925 c -0.05072,0.18069 -0.14899,0.42161 -0.2536,0.56426 z m 0.93515,-0.15216 c -0.18703,0 -0.2219,-0.01268 -0.2219,-0.09193 v -0.38674 h -0.22824 v 0.38991 c 0,0.22824 0.0951,0.2853 0.43746,0.2853 h 0.68155 c 0.27262,0 0.34553,-0.08559 0.37406,-0.44063 -0.06023,-0.01585 -0.15216,-0.04755 -0.20605,-0.08242 -0.01268,0.28847 -0.03804,0.32651 -0.18703,0.32651 z m 1.1412,-0.46916 c 0.0951,0.18386 0.19971,0.43112 0.24726,0.58011 l 0.21239,-0.06974 c -0.04438,-0.14582 -0.16167,-0.38991 -0.25677,-0.5706 z"
         style="font-weight:normal;font-family:'Noto Sans CJK TC';-inkscape-font-specification:'Noto Sans CJK TC';text-align:end;text-anchor:end"
         id="path355" />
    </g>
    <g
       aria-label="規則"
       id="text6897"
       style="font-weight:500;font-size:3.17px;line-height:1.25;font-family:Poppins;-inkscape-font-specification:'Poppins, Medium';letter-spacing:0;stroke-width:0.26">
      <path
         d="m 18.376972,106.44228 c -0.07291,-0.10144 -0.40576,-0.50403 -0.52939,-0.63717 0.0063,-0.0602 0.01268,-0.12046 0.01902,-0.17752 h 0.51354 v -0.21556 h -0.50403 c 0.0032,-0.0697 0.0032,-0.13948 0.0032,-0.20288 v -0.31383 h 0.44063 v -0.21239 h -0.44063 v -0.49135 h -0.2219 v 0.49135 h -0.45648 v 0.21239 h 0.45648 v 0.31383 c 0,0.0634 0,0.13314 -0.0032,0.20288 h -0.51988 v 0.21556 h 0.51037 c -0.0317,0.42478 -0.14265,0.90345 -0.52939,1.21728 0.05706,0.0412 0.13314,0.11729 0.16484,0.16484 0.29798,-0.26628 0.45331,-0.60864 0.52622,-0.96051 0.13948,0.18386 0.33285,0.44063 0.40893,0.56743 z m 0.33919,-0.93515 h 0.90345 v 0.31383 h -0.90345 z m 0,-0.5072 h 0.90345 v 0.31383 h -0.90345 z m 0,-0.50403 h 0.90345 v 0.30749 h -0.90345 z m 0.83054,2.29191 c -0.06657,0 -0.07608,-0.01 -0.07608,-0.0761 v -0.67838 h 0.37723 v -1.75301 h -1.35042 v 1.75301 h 0.30115 c -0.05072,0.38991 -0.18703,0.68155 -0.6657,0.84005 0.04755,0.038 0.10778,0.12363 0.13314,0.17752 0.53256,-0.19337 0.6974,-0.5389 0.75763,-1.01757 h 0.22824 v 0.67838 c 0,0.2219 0.05072,0.2853 0.26628,0.2853 h 0.26311 c 0.16801,0 0.23141,-0.0793 0.2536,-0.37723 -0.0634,-0.0159 -0.15533,-0.0507 -0.19654,-0.0856 -0.0063,0.2219 -0.02219,0.2536 -0.07925,0.2536 z"
         style="font-weight:normal;font-family:'Noto Sans CJK TC';-inkscape-font-specification:'Noto Sans CJK TC';text-align:end;text-anchor:end"
         id="path358" />
      <path
         d="m 22.038322,104.53711 v 1.7435 h 0.23141 v -1.7435 z m 0.77348,-0.317 v 2.52015 c 0,0.0602 -0.02536,0.0792 -0.08242,0.0792 -0.06023,0.003 -0.25994,0.006 -0.48184,-0.003 0.03487,0.0666 0.07291,0.17435 0.08559,0.23775 0.28847,0 0.46599,-0.003 0.5706,-0.0412 0.09827,-0.0412 0.14265,-0.11412 0.14265,-0.27262 v -2.52015 z m -2.11756,2.13975 c -0.09193,0.20605 -0.25043,0.4121 -0.41844,0.55158 0.06023,0.0349 0.15216,0.10461 0.19654,0.14582 0.16801,-0.15533 0.34553,-0.39625 0.45014,-0.634 z m 0.54207,0.0888 c 0.13948,0.17118 0.28847,0.40576 0.35187,0.55792 l 0.21556,-0.10778 c -0.06974,-0.14899 -0.21873,-0.37089 -0.36138,-0.53573 z m -0.54207,-1.37578 h 0.77031 v 0.39308 h -0.77031 z m 0,0.58645 h 0.77031 v 0.39942 h -0.77031 z m 0,-1.16656 h 0.77031 v 0.38674 h -0.77031 z m -0.22507,-0.21239 v 1.98759 h 1.22362 v -1.98759 z"
         style="font-weight:normal;font-family:'Noto Sans CJK TC';-inkscape-font-specification:'Noto Sans CJK TC';text-align:end;text-anchor:end"
         id="path360" />
    </g>
    <path
       fill="none"
       stroke="#0c322c"
       stroke-width=".56"
       marker-end="url(#a)"
       d="m26.46 66.14 18.52.01"
       id="path6899" />
    <path
       fill="none"
       stroke="#0c322c"
       stroke-width=".56"
       marker-end="url(#c)"
       d="m26.11 105.8 18.52.01"
       id="path6901" />
  </g>
</svg>
