<?xml version="1.0" encoding="UTF-8" standalone="no"?>
<!-- Created with Inkscape (http://www.inkscape.org/) -->

<svg
   xmlns:dc="http://purl.org/dc/elements/1.1/"
   xmlns:cc="http://creativecommons.org/ns#"
   xmlns:rdf="http://www.w3.org/1999/02/22-rdf-syntax-ns#"
   xmlns:svg="http://www.w3.org/2000/svg"
   xmlns="http://www.w3.org/2000/svg"
   xmlns:sodipodi="http://sodipodi.sourceforge.net/DTD/sodipodi-0.dtd"
   xmlns:inkscape="http://www.inkscape.org/namespaces/inkscape"
   width="615"
   height="290"
   id="svg10908"
   version="1.1"
   inkscape:version="0.48.1 "
   sodipodi:docname="lvm.svg">
  <defs
     id="defs10910">
    <inkscape:perspective
       sodipodi:type="inkscape:persp3d"
       inkscape:vp_x="0 : 526.18109 : 1"
       inkscape:vp_y="0 : 1000 : 0"
       inkscape:vp_z="800 : 526.18109 : 1"
       inkscape:persp3d-origin="400 : 350.78739 : 1"
       id="perspective11780" />
  </defs>
  <sodipodi:namedview
     id="base"
     pagecolor="#ffffff"
     bordercolor="#666666"
     borderopacity="1.0"
     inkscape:pageopacity="1"
     inkscape:pageshadow="2"
     inkscape:zoom="1.4142136"
     inkscape:cx="412.65149"
     inkscape:cy="62.333594"
     inkscape:document-units="px"
     inkscape:current-layer="layer1"
     showgrid="true"
     inkscape:window-width="1920"
     inkscape:window-height="1033"
     inkscape:window-x="-4"
     inkscape:window-y="-4"
     inkscape:window-maximized="1">
    <inkscape:grid
       type="xygrid"
       id="grid11700"
       empspacing="5"
       visible="true"
       enabled="true"
       snapvisiblegridlinesonly="true" />
  </sodipodi:namedview>
  <metadata
     id="metadata10913">
    <rdf:RDF>
      <cc:Work
         rdf:about="">
        <dc:format>image/svg+xml</dc:format>
        <dc:type
           rdf:resource="http://purl.org/dc/dcmitype/StillImage" />
        <dc:title />
      </cc:Work>
    </rdf:RDF>
  </metadata>
  <g
     inkscape:label="Ebene 1"
     inkscape:groupmode="layer"
     id="layer1"
     transform="translate(0,-762.36218)">
    <rect
       style="opacity:0.99000005;fill:#7ac142;fill-opacity:1;fill-rule:nonzero;stroke:#464546;stroke-width:2.96099997;stroke-linecap:butt;stroke-linejoin:miter;stroke-miterlimit:4;stroke-opacity:1;stroke-dasharray:none"
       id="rect11698"
       width="207.03893"
       height="247.03891"
       x="21.480541"
       y="783.84271"
       rx="8.2815561"
       ry="8.4026842" />
    <g
       style="font-size:22px;font-style:normal;font-variant:normal;font-weight:normal;font-stretch:normal;line-height:125%;letter-spacing:0px;word-spacing:0px;fill:#000000;fill-opacity:1;stroke:none;font-family:Open Sans;-inkscape-font-specification:Open Sans"
       id="text11756">
      <path
         d="m 105.88965,800.22156 c 1.03124,1e-5 1.86197,-0.0286 2.49219,-0.0859 l 0,1.54688 c -0.63022,-0.0573 -1.46095,-0.0859 -2.49219,-0.0859 -0.34376,1.66147 -0.80209,3.26563 -1.375,4.8125 l 3.52344,0 c -0.1146,0.85938 -0.17189,2.32032 -0.17188,4.38281 -10e-6,2.00521 0.0286,3.60938 0.0859,4.8125 l -1.54688,0 0,-1.03125 -1.97656,0 0,2.14844 -1.54687,0 c 0.11458,-1.375 0.17187,-2.40625 0.17187,-3.09375 l 0,-4.8125 c -0.22917,0.45834 -0.65886,1.0599 -1.28906,1.80469 -0.22917,-0.51562 -0.54427,-0.97396 -0.94531,-1.375 0.6302,-0.6875 1.20312,-1.5039 1.71875,-2.44922 0.51562,-0.94531 0.90234,-1.80468 1.16015,-2.57813 0.25781,-0.77342 0.44401,-1.64712 0.5586,-2.62109 -0.80209,1e-5 -1.66146,0.0287 -2.57813,0.0859 l 0,-1.54688 c 0.85937,0.0573 1.83333,0.086 2.92188,0.0859 z m 6.875,11.34375 c -0.91668,1.89063 -1.71876,3.35156 -2.40625,4.38281 l 2.49219,-0.34375 c -0.1146,-0.74479 -0.25783,-1.375 -0.42969,-1.89062 0.45832,-0.17188 0.97394,-0.31511 1.54687,-0.42969 0.40103,1.66146 0.74478,3.17968 1.03125,4.55469 -0.85939,0.0573 -1.4323,0.17187 -1.71875,0.34375 l -0.17187,-1.375 c -0.8021,0.11458 -1.54689,0.24348 -2.23438,0.38671 -0.68751,0.14323 -1.26042,0.32943 -1.71875,0.5586 -0.34376,-0.91667 -0.60157,-1.51823 -0.77343,-1.80469 0.22915,-0.11458 0.45832,-0.28646 0.6875,-0.51562 0.22915,-0.22917 0.61587,-0.77344 1.16015,-1.63282 0.54426,-0.85937 1.01692,-1.86197 1.41797,-3.00781 -1.03126,0.11459 -1.89063,0.31511 -2.57812,0.60156 -0.22918,-0.68749 -0.45835,-1.23176 -0.6875,-1.63281 0.45832,-0.28645 0.95962,-0.95963 1.5039,-2.01953 0.54426,-1.05989 1.04556,-2.44921 1.50391,-4.16797 0.68749,0.45835 1.2604,0.7448 1.71875,0.85938 -0.40106,0.57292 -0.8021,1.28907 -1.20313,2.14843 -0.40105,0.85939 -0.91667,1.91928 -1.54687,3.17969 l 1.80469,-0.17187 c 0.51561,-0.97396 0.91665,-2.0052 1.20312,-3.09375 0.5729,0.40105 1.08853,0.6875 1.54688,0.85937 z m 5.07031,-0.94531 c -1.37502,0.0573 -2.26304,0.20052 -2.66406,0.42968 -0.17189,-0.57291 -0.37241,-1.14582 -0.60156,-1.71875 0.45831,-0.28645 0.87368,-0.88801 1.24609,-1.80468 0.37238,-0.91666 0.73045,-2.14843 1.07422,-3.69532 0.51561,0.34376 1.11717,0.60158 1.80469,0.77344 -0.22919,0.28647 -0.487,0.75913 -0.77344,1.41797 -0.28648,0.65886 -0.77346,1.79037 -1.46094,3.39453 l 1.80469,-0.17187 c 0.40102,-0.85937 0.71613,-1.6901 0.94531,-2.49219 0.51561,0.28646 1.03123,0.54428 1.54688,0.77344 -0.40107,0.80209 -1.01695,2.14844 -1.84766,4.03906 -0.83075,1.89063 -1.44663,3.20833 -1.84766,3.95312 l 1.89063,-0.34375 -0.51563,-1.89062 c 0.34373,-0.11458 0.83071,-0.25781 1.46094,-0.42969 0.63019,2.34896 1.03123,3.86719 1.20313,4.55469 -0.51565,0.11458 -1.03127,0.25781 -1.54688,0.42969 -0.17189,-0.7448 -0.28648,-1.20313 -0.34375,-1.375 -0.45835,0.0573 -1.00262,0.15755 -1.63281,0.30078 -0.63023,0.14322 -1.28908,0.35807 -1.97656,0.64453 -0.22919,-0.57292 -0.45835,-1.11719 -0.6875,-1.63281 0.40102,-0.11459 0.78774,-0.50131 1.16015,-1.16016 0.37238,-0.65885 0.95962,-1.99088 1.76172,-3.99609 z m 1.375,-12.03125 c -0.1146,0.17189 -0.32944,0.57293 -0.64453,1.20312 -0.31512,0.63022 -0.64455,1.37501 -0.98828,2.23438 l 0.6875,0 c 0.85935,10e-6 1.80467,-0.0286 2.83594,-0.0859 l 0,1.46094 c -1.03127,-0.0573 -1.97659,-0.0859 -2.83594,-0.0859 l -5.92969,0 c -1.14584,1e-5 -2.32032,0.0287 -3.52344,0.0859 l 0,-1.46094 c 1.26041,0.0573 2.43489,0.086 3.52344,0.0859 l 3.60938,0 c 0.5156,-1.08853 1.00258,-2.46353 1.46093,-4.125 0.45832,0.22918 1.05988,0.45835 1.80469,0.6875 z m -12.80469,14.69531 0,-5.58594 -1.97656,0 0,5.58594 z m 7.21875,-12.03125 c -0.45834,0.1146 -0.94532,0.31512 -1.46093,0.60156 -0.40106,-1.20311 -0.83074,-2.263 -1.28907,-3.17969 0.45833,-0.17186 0.91666,-0.40102 1.375,-0.6875 0.6302,1.20314 1.08853,2.29168 1.375,3.26563 z"
         style="font-family:SimHei;-inkscape-font-specification:SimHei"
         id="path3084" />
      <path
         d="m 140.69434,816.29187 c 0.80206,0 1.69008,-0.0286 2.66406,-0.0859 l 0,1.54688 c -1.71877,-0.0573 -3.38023,-0.0859 -4.98438,-0.0859 l -11.25781,0 c -1.77604,0 -3.23698,0.0286 -4.38281,0.0859 l 0,-1.54688 c 0.97396,0.0573 1.86198,0.0859 2.66406,0.0859 l 0,-2.57812 c 0,-0.91667 -0.0286,-1.80469 -0.0859,-2.66407 l 15.46875,0 c -0.0573,0.85938 -0.0859,1.7474 -0.0859,2.66407 z m -5.15625,-7.47656 c 0.91665,0 1.53253,-0.0286 1.84765,-0.0859 0.31509,-0.0573 0.47264,-0.28645 0.47266,-0.6875 l 0,-1.89062 -9.02344,0 c -0.17188,0.97396 -0.42969,1.80469 -0.77344,2.49218 -0.34375,0.68751 -0.91667,1.4323 -1.71875,2.23438 -0.40104,-0.45833 -0.94531,-0.83073 -1.63281,-1.11719 0.74479,-0.51562 1.30338,-1.05989 1.67578,-1.63281 0.37239,-0.57291 0.61588,-1.23176 0.73047,-1.97656 -1.54688,0 -2.75,0.0286 -3.60937,0.0859 l 0,-1.63281 c 1.14583,0.0573 2.3776,0.086 3.69531,0.0859 l 0,-2.40625 c -1e-5,-0.74478 -0.0286,-1.51822 -0.0859,-2.32031 l 3.35156,0 c 0.22916,-0.68749 0.40104,-1.40363 0.51563,-2.14844 0.80207,0.17189 1.51822,0.31512 2.14844,0.42969 -0.17189,0.17189 -0.32944,0.4297 -0.47266,0.77343 -0.14324,0.34377 -0.27215,0.65887 -0.38672,0.94532 l 7.30469,0 c -0.0573,0.91668 -0.086,1.86199 -0.0859,2.83593 l 0,1.89063 c 1.31769,1e-5 2.40623,-0.0286 3.26563,-0.0859 l 0,1.63281 c -0.8594,-0.0573 -1.97659,-0.0859 -3.35157,-0.0859 l 0,2.23437 c -1e-5,0.97396 -0.28647,1.5612 -0.85937,1.76172 -0.57293,0.20053 -1.31773,0.35808 -2.23438,0.47266 -0.0573,-0.51562 -0.31511,-1.11719 -0.77343,-1.80469 z m 2.40625,-4.125 0,-3.26563 -8.9375,0 0,3.26563 z m -3.4375,7.73437 -3.00782,0 0,3.86719 3.00782,0 z m 4.46875,0 -3.00782,0 0,3.86719 3.00782,0 z m -8.9375,0 -2.92188,0 0,3.86719 2.92188,0 z m 3.78125,-2.66406 c -0.8021,-0.68749 -1.83335,-1.28905 -3.09375,-1.80469 0.28645,-0.45832 0.51561,-0.88801 0.6875,-1.28906 1.14582,0.51563 2.26301,1.0599 3.35156,1.63281 -0.34376,0.34376 -0.65887,0.83074 -0.94531,1.46094 z m 0.25781,-5.24219 c -0.85939,-0.63019 -1.71876,-1.14582 -2.57813,-1.54687 0.34374,-0.40103 0.6302,-0.80207 0.85938,-1.20313 0.80207,0.40106 1.69009,0.88804 2.66406,1.46094 -0.34376,0.40105 -0.65887,0.83074 -0.94531,1.28906 z"
         style="font-family:SimHei;-inkscape-font-specification:SimHei"
         id="path3086" />
    </g>
    <path
       style="fill:none;stroke:#464546;stroke-width:2;stroke-linecap:butt;stroke-linejoin:miter;stroke-miterlimit:4;stroke-opacity:1;stroke-dasharray:none"
       d="m 21.483272,980.35374 207.806898,0"
       id="path11866"
       inkscape:connector-curvature="0" />
    <path
       style="fill:none;stroke:#464546;stroke-width:2;stroke-linecap:butt;stroke-linejoin:miter;stroke-miterlimit:4;stroke-opacity:1;stroke-dasharray:none"
       d="m 21.484175,830.3542 208.195365,0"
       id="path11874"
       inkscape:connector-curvature="0" />
    <g
       style="font-size:22px;font-style:normal;font-variant:normal;font-weight:normal;font-stretch:normal;line-height:125%;letter-spacing:0px;word-spacing:0px;fill:#000000;fill-opacity:1;stroke:none;font-family:Open Sans;-inkscape-font-specification:Open Sans"
       id="text11876">
      <path
         d="m 55.117344,906.13757 c 1.031231,1.03126 1.790344,1.9909 2.277344,2.87891 0.486958,0.88803 0.701801,1.79037 0.644531,2.70703 -0.05731,0.91667 -0.444031,1.61849 -1.160156,2.10547 -0.716165,0.48698 -1.790383,0.81641 -3.222657,0.98828 -0.1146,-0.63021 -0.372412,-1.31771 -0.773437,-2.0625 1.374983,0 2.277325,-0.15755 2.707031,-0.47266 0.429669,-0.3151 0.630189,-0.73046 0.601563,-1.24609 -0.02867,-0.51562 -0.329446,-1.23176 -0.902344,-2.14844 -0.572935,-0.91666 -1.231788,-1.74738 -1.976563,-2.49218 0.458317,-1.03124 1.059879,-3.0078 1.804688,-5.92969 l -3.09375,0 0,16.92969 -1.71875,0 c 0.05728,-1.20313 0.08592,-2.57813 0.08594,-4.125 l 0,-10.48438 c -1.3e-5,-1.2604 -0.0573,-2.52082 -0.171875,-3.78125 l 7.21875,0 c -0.916686,2.97918 -1.690123,5.35678 -2.320312,7.13281 z m -7.132813,3.00782 c -0.0573,1.31771 -0.08595,2.63542 -0.08594,3.95312 -1.1e-5,1.31771 0.02863,2.69271 0.08594,4.125 l -1.71875,0 0,-1.71875 -4.640625,0 0,1.71875 -1.71875,0 c 0.05729,-1.20313 0.08594,-2.46354 0.08594,-3.78125 -3e-6,-1.375 -0.02865,-2.80729 -0.08594,-4.29687 l 8.078125,0 z m -4.46875,-12.03125 c 0.91666,1.14585 1.518221,1.97657 1.804688,2.49218 -0.343758,0.17189 -0.658862,0.34377 -0.945313,0.51563 2.406241,10e-6 3.924468,-0.0286 4.554688,-0.0859 l 0,1.63281 c -0.401053,2e-5 -1.17449,-0.0286 -2.320313,-0.0859 l 1.460938,0.6875 c -0.401053,0.63022 -0.973969,1.7474 -1.71875,3.35156 1.374989,10e-6 2.434884,-0.0286 3.179687,-0.0859 l 0,1.63281 c -0.744803,-0.0573 -1.489594,-0.0859 -2.234375,-0.0859 l -6.445312,0 c -1.031253,0 -1.890627,0.0286 -2.578125,0.0859 l 0,-1.63281 c 0.40104,0.0573 1.48958,0.0859 3.265625,0.0859 -0.401046,-0.97395 -0.91667,-1.97655 -1.546875,-3.00781 0.45833,-0.22916 0.945308,-0.48697 1.460937,-0.77344 0.572912,0.80209 1.174474,1.8047 1.804688,3.00781 -0.572923,0.28647 -1.00261,0.54428 -1.289063,0.77344 l 2.75,0 c 0.744784,-1.77603 1.203116,-3.12238 1.375,-4.03906 l -2.0625,0 c -2.635421,10e-6 -4.354169,0.0287 -5.15625,0.0859 l 0,-1.63281 c 0.687498,0.0573 2.234371,0.0859 4.640625,0.0859 -0.458339,-0.91665 -0.916672,-1.6328 -1.375,-2.14844 0.51562,-0.28644 0.973953,-0.5729 1.375,-0.85937 z m 2.75,17.01562 0,-3.60937 -4.640625,0 0,3.60937 z"
         style="font-family:SimHei;-inkscape-font-specification:SimHei"
         id="path3183" />
      <path
         d="m 62.336094,917.48132 c -0.401045,-0.63021 -0.888023,-1.11719 -1.460938,-1.46093 0.916664,-0.34375 1.747393,-0.75912 2.492188,-1.2461 0.744786,-0.48698 1.40364,-1.08854 1.976562,-1.80469 0.57291,-0.71614 1.002597,-1.5039 1.289063,-2.36328 0.28645,-0.85937 0.486971,-1.91926 0.601562,-3.17968 -1.317715,0 -2.37761,0.0286 -3.179687,0.0859 l 0,-1.80468 c 0.91666,0.0573 2.091138,0.0859 3.523437,0.0859 l 8.59375,0 c -0.1146,0.85939 -0.200538,1.60418 -0.257812,2.23438 l -0.6875,6.35937 c -0.1146,1.03125 -0.572933,1.71875 -1.375,2.0625 -0.802098,0.34375 -1.690118,0.54427 -2.664063,0.60157 -0.0573,-0.57292 -0.343762,-1.23178 -0.859375,-1.97657 1.203113,0.0573 2.019518,0.0143 2.449219,-0.1289 0.429673,-0.14323 0.701808,-0.64453 0.816406,-1.50391 l 0.601563,-6.01562 -5.15625,0 c -0.171885,1.48959 -0.415374,2.73568 -0.730469,3.73828 -0.315113,1.0026 -0.759123,1.8763 -1.332031,2.62109 -0.572924,0.74479 -1.260424,1.43229 -2.0625,2.0625 -0.802089,0.63021 -1.661463,1.17448 -2.578125,1.63281 z m 10.140625,-20.02343 c 0.401028,1.20314 1.217433,2.57814 2.449219,4.125 1.231753,1.54688 2.964824,2.89324 5.199218,4.03906 -0.458354,0.40105 -0.916687,1.00261 -1.375,1.80469 -1.031268,-0.74479 -1.933611,-1.44661 -2.707031,-2.10547 -0.773454,-0.65885 -1.417984,-1.27473 -1.933594,-1.84766 -0.515639,-0.5729 -1.088555,-1.38931 -1.71875,-2.44922 -0.630221,-1.05988 -1.145845,-2.04816 -1.546875,-2.96484 0.630196,-0.17186 1.174466,-0.37238 1.632813,-0.60156 z m -4.296875,1.20312 c -0.515634,0.91668 -0.945321,1.71877 -1.289063,2.40625 -0.343757,0.68751 -0.687507,1.3034 -1.03125,1.84766 -0.343756,0.54428 -0.859381,1.27475 -1.546875,2.1914 -0.687504,0.91668 -1.518233,1.86199 -2.492187,2.83594 -0.515628,-0.51562 -1.031252,-0.91666 -1.546875,-1.20312 1.145831,-1.03124 2.048174,-1.97656 2.707031,-2.83594 0.65885,-0.85936 1.289057,-1.79035 1.890625,-2.79297 0.601556,-1.00259 1.131503,-2.10545 1.589844,-3.30859 0.458325,0.34376 1.031241,0.63022 1.71875,0.85937 z"
         style="font-family:SimHei;-inkscape-font-specification:SimHei"
         id="path3185" />
    </g>
    <g
       style="font-size:22px;font-style:normal;font-variant:normal;font-weight:normal;font-stretch:normal;line-height:125%;letter-spacing:0px;word-spacing:0px;fill:#000000;fill-opacity:1;stroke:none;font-family:Open Sans;-inkscape-font-specification:Open Sans"
       id="text11876-6">
      <path
         d="m 125.29224,906.13757 c 1.03123,1.03126 1.79034,1.9909 2.27734,2.87891 0.48696,0.88803 0.7018,1.79037 0.64453,2.70703 -0.0573,0.91667 -0.44403,1.61849 -1.16015,2.10547 -0.71617,0.48698 -1.79039,0.81641 -3.22266,0.98828 -0.1146,-0.63021 -0.37241,-1.31771 -0.77344,-2.0625 1.37498,0 2.27733,-0.15755 2.70703,-0.47266 0.42967,-0.3151 0.63019,-0.73046 0.60157,-1.24609 -0.0287,-0.51562 -0.32945,-1.23176 -0.90235,-2.14844 -0.57293,-0.91666 -1.23179,-1.74738 -1.97656,-2.49218 0.45832,-1.03124 1.05988,-3.0078 1.80469,-5.92969 l -3.09375,0 0,16.92969 -1.71875,0 c 0.0573,-1.20313 0.0859,-2.57813 0.0859,-4.125 l 0,-10.48438 c -1e-5,-1.2604 -0.0573,-2.52082 -0.17187,-3.78125 l 7.21875,0 c -0.91669,2.97918 -1.69012,5.35678 -2.32031,7.13281 z m -7.13282,3.00782 c -0.0573,1.31771 -0.0859,2.63542 -0.0859,3.95312 -1e-5,1.31771 0.0286,2.69271 0.0859,4.125 l -1.71875,0 0,-1.71875 -4.64062,0 0,1.71875 -1.71875,0 c 0.0573,-1.20313 0.0859,-2.46354 0.0859,-3.78125 -1e-5,-1.375 -0.0287,-2.80729 -0.0859,-4.29687 l 8.07812,0 z m -4.46875,-12.03125 c 0.91666,1.14585 1.51822,1.97657 1.80469,2.49218 -0.34376,0.17189 -0.65886,0.34377 -0.94531,0.51563 2.40624,10e-6 3.92447,-0.0286 4.55469,-0.0859 l 0,1.63281 c -0.40106,2e-5 -1.17449,-0.0286 -2.32032,-0.0859 l 1.46094,0.6875 c -0.40105,0.63022 -0.97397,1.7474 -1.71875,3.35156 1.37499,10e-6 2.43489,-0.0286 3.17969,-0.0859 l 0,1.63281 c -0.7448,-0.0573 -1.4896,-0.0859 -2.23438,-0.0859 l -6.44531,0 c -1.03125,0 -1.89063,0.0286 -2.57812,0.0859 l 0,-1.63281 c 0.40104,0.0573 1.48958,0.0859 3.26562,0.0859 -0.40104,-0.97395 -0.91667,-1.97655 -1.54687,-3.00781 0.45833,-0.22916 0.9453,-0.48697 1.46093,-0.77344 0.57292,0.80209 1.17448,1.8047 1.80469,3.00781 -0.57292,0.28647 -1.00261,0.54428 -1.28906,0.77344 l 2.75,0 c 0.74478,-1.77603 1.20311,-3.12238 1.375,-4.03906 l -2.0625,0 c -2.63542,10e-6 -4.35417,0.0287 -5.15625,0.0859 l 0,-1.63281 c 0.6875,0.0573 2.23437,0.0859 4.64062,0.0859 -0.45834,-0.91665 -0.91667,-1.6328 -1.375,-2.14844 0.51562,-0.28644 0.97396,-0.5729 1.375,-0.85937 z m 2.75,17.01562 0,-3.60937 -4.64062,0 0,3.60937 z"
         style="font-family:SimHei;-inkscape-font-specification:SimHei"
         id="path3188" />
      <path
         d="m 132.51099,917.48132 c -0.40105,-0.63021 -0.88803,-1.11719 -1.46094,-1.46093 0.91666,-0.34375 1.74739,-0.75912 2.49219,-1.2461 0.74478,-0.48698 1.40364,-1.08854 1.97656,-1.80469 0.57291,-0.71614 1.0026,-1.5039 1.28906,-2.36328 0.28645,-0.85937 0.48697,-1.91926 0.60156,-3.17968 -1.31771,0 -2.37761,0.0286 -3.17968,0.0859 l 0,-1.80468 c 0.91666,0.0573 2.09113,0.0859 3.52343,0.0859 l 8.59375,0 c -0.1146,0.85939 -0.20053,1.60418 -0.25781,2.23438 l -0.6875,6.35937 c -0.1146,1.03125 -0.57293,1.71875 -1.375,2.0625 -0.8021,0.34375 -1.69012,0.54427 -2.66406,0.60157 -0.0573,-0.57292 -0.34376,-1.23178 -0.85938,-1.97657 1.20312,0.0573 2.01952,0.0143 2.44922,-0.1289 0.42968,-0.14323 0.70181,-0.64453 0.81641,-1.50391 l 0.60156,-6.01562 -5.15625,0 c -0.17188,1.48959 -0.41537,2.73568 -0.73047,3.73828 -0.31511,1.0026 -0.75912,1.8763 -1.33203,2.62109 -0.57292,0.74479 -1.26042,1.43229 -2.0625,2.0625 -0.80209,0.63021 -1.66146,1.17448 -2.57812,1.63281 z m 10.14062,-20.02343 c 0.40103,1.20314 1.21743,2.57814 2.44922,4.125 1.23175,1.54688 2.96482,2.89324 5.19922,4.03906 -0.45836,0.40105 -0.91669,1.00261 -1.375,1.80469 -1.03127,-0.74479 -1.93361,-1.44661 -2.70703,-2.10547 -0.77346,-0.65885 -1.41799,-1.27473 -1.9336,-1.84766 -0.51564,-0.5729 -1.08855,-1.38931 -1.71875,-2.44922 -0.63022,-1.05988 -1.14584,-2.04816 -1.54687,-2.96484 0.63019,-0.17186 1.17446,-0.37238 1.63281,-0.60156 z m -4.29687,1.20312 c -0.51564,0.91668 -0.94532,1.71877 -1.28907,2.40625 -0.34375,0.68751 -0.6875,1.3034 -1.03125,1.84766 -0.34375,0.54428 -0.85938,1.27475 -1.54687,2.1914 -0.68751,0.91668 -1.51823,1.86199 -2.49219,2.83594 -0.51563,-0.51562 -1.03125,-0.91666 -1.54687,-1.20312 1.14583,-1.03124 2.04817,-1.97656 2.70703,-2.83594 0.65885,-0.85936 1.28905,-1.79035 1.89062,-2.79297 0.60156,-1.00259 1.13151,-2.10545 1.58985,-3.30859 0.45832,0.34376 1.03124,0.63022 1.71875,0.85937 z"
         style="font-family:SimHei;-inkscape-font-specification:SimHei"
         id="path3190" />
    </g>
    <g
       style="font-size:22px;font-style:normal;font-variant:normal;font-weight:normal;font-stretch:normal;line-height:125%;letter-spacing:0px;word-spacing:0px;fill:#000000;fill-opacity:1;stroke:none;font-family:Open Sans;-inkscape-font-specification:Open Sans"
       id="text11876-1">
      <path
         d="m 193.4207,906.13757 c 1.03123,1.03126 1.79034,1.9909 2.27734,2.87891 0.48696,0.88803 0.70181,1.79037 0.64454,2.70703 -0.0573,0.91667 -0.44404,1.61849 -1.16016,2.10547 -0.71617,0.48698 -1.79038,0.81641 -3.22266,0.98828 -0.1146,-0.63021 -0.37241,-1.31771 -0.77343,-2.0625 1.37498,0 2.27732,-0.15755 2.70703,-0.47266 0.42966,-0.3151 0.63019,-0.73046 0.60156,-1.24609 -0.0287,-0.51562 -0.32945,-1.23176 -0.90234,-2.14844 -0.57294,-0.91666 -1.23179,-1.74738 -1.97657,-2.49218 0.45832,-1.03124 1.05988,-3.0078 1.80469,-5.92969 l -3.09375,0 0,16.92969 -1.71875,0 c 0.0573,-1.20313 0.0859,-2.57813 0.0859,-4.125 l 0,-10.48438 c -2e-5,-1.2604 -0.0573,-2.52082 -0.17188,-3.78125 l 7.21875,0 c -0.91668,2.97918 -1.69012,5.35678 -2.32031,7.13281 z m -7.13281,3.00782 c -0.0573,1.31771 -0.0859,2.63542 -0.0859,3.95312 -1e-5,1.31771 0.0286,2.69271 0.0859,4.125 l -1.71875,0 0,-1.71875 -4.64063,0 0,1.71875 -1.71875,0 c 0.0573,-1.20313 0.0859,-2.46354 0.0859,-3.78125 0,-1.375 -0.0286,-2.80729 -0.0859,-4.29687 l 8.07813,0 z m -4.46875,-12.03125 c 0.91666,1.14585 1.51822,1.97657 1.80469,2.49218 -0.34376,0.17189 -0.65887,0.34377 -0.94532,0.51563 2.40624,10e-6 3.92447,-0.0286 4.55469,-0.0859 l 0,1.63281 c -0.40105,2e-5 -1.17449,-0.0286 -2.32031,-0.0859 l 1.46094,0.6875 c -0.40106,0.63022 -0.97397,1.7474 -1.71875,3.35156 1.37498,10e-6 2.43488,-0.0286 3.17968,-0.0859 l 0,1.63281 c -0.7448,-0.0573 -1.48959,-0.0859 -2.23437,-0.0859 l -6.44531,0 c -1.03126,0 -1.89063,0.0286 -2.57813,0.0859 l 0,-1.63281 c 0.40104,0.0573 1.48958,0.0859 3.26563,0.0859 -0.40105,-0.97395 -0.91668,-1.97655 -1.54688,-3.00781 0.45833,-0.22916 0.94531,-0.48697 1.46094,-0.77344 0.57291,0.80209 1.17447,1.8047 1.80469,3.00781 -0.57293,0.28647 -1.00261,0.54428 -1.28907,0.77344 l 2.75,0 c 0.74479,-1.77603 1.20312,-3.12238 1.375,-4.03906 l -2.0625,0 c -2.63542,10e-6 -4.35417,0.0287 -5.15625,0.0859 l 0,-1.63281 c 0.6875,0.0573 2.23437,0.0859 4.64063,0.0859 -0.45834,-0.91665 -0.91667,-1.6328 -1.375,-2.14844 0.51562,-0.28644 0.97395,-0.5729 1.375,-0.85937 z m 2.75,17.01562 0,-3.60937 -4.64063,0 0,3.60937 z"
         style="font-family:SimHei;-inkscape-font-specification:SimHei"
         id="path3193" />
      <path
         d="m 200.63945,917.48132 c -0.40104,-0.63021 -0.88802,-1.11719 -1.46094,-1.46093 0.91667,-0.34375 1.74739,-0.75912 2.49219,-1.2461 0.74479,-0.48698 1.40364,-1.08854 1.97656,-1.80469 0.57291,-0.71614 1.0026,-1.5039 1.28907,-2.36328 0.28645,-0.85937 0.48697,-1.91926 0.60156,-3.17968 -1.31772,0 -2.37761,0.0286 -3.17969,0.0859 l 0,-1.80468 c 0.91666,0.0573 2.09114,0.0859 3.52344,0.0859 l 8.59375,0 c -0.1146,0.85939 -0.20054,1.60418 -0.25781,2.23438 l -0.6875,6.35937 c -0.1146,1.03125 -0.57294,1.71875 -1.375,2.0625 -0.8021,0.34375 -1.69012,0.54427 -2.66407,0.60157 -0.0573,-0.57292 -0.34376,-1.23178 -0.85937,-1.97657 1.20311,0.0573 2.01952,0.0143 2.44922,-0.1289 0.42967,-0.14323 0.7018,-0.64453 0.8164,-1.50391 l 0.60157,-6.01562 -5.15625,0 c -0.17189,1.48959 -0.41538,2.73568 -0.73047,3.73828 -0.31512,1.0026 -0.75913,1.8763 -1.33203,2.62109 -0.57293,0.74479 -1.26043,1.43229 -2.0625,2.0625 -0.80209,0.63021 -1.66147,1.17448 -2.57813,1.63281 z m 10.14063,-20.02343 c 0.40102,1.20314 1.21743,2.57814 2.44921,4.125 1.23176,1.54688 2.96483,2.89324 5.19922,4.03906 -0.45835,0.40105 -0.91668,1.00261 -1.375,1.80469 -1.03127,-0.74479 -1.93361,-1.44661 -2.70703,-2.10547 -0.77345,-0.65885 -1.41798,-1.27473 -1.93359,-1.84766 -0.51564,-0.5729 -1.08856,-1.38931 -1.71875,-2.44922 -0.63022,-1.05988 -1.14585,-2.04816 -1.54688,-2.96484 0.6302,-0.17186 1.17447,-0.37238 1.63282,-0.60156 z m -4.29688,1.20312 c -0.51563,0.91668 -0.94532,1.71877 -1.28906,2.40625 -0.34376,0.68751 -0.68751,1.3034 -1.03125,1.84766 -0.34376,0.54428 -0.85938,1.27475 -1.54688,2.1914 -0.6875,0.91668 -1.51823,1.86199 -2.49218,2.83594 -0.51563,-0.51562 -1.03126,-0.91666 -1.54688,-1.20312 1.14583,-1.03124 2.04817,-1.97656 2.70703,-2.83594 0.65885,-0.85936 1.28906,-1.79035 1.89063,-2.79297 0.60155,-1.00259 1.1315,-2.10545 1.58984,-3.30859 0.45833,0.34376 1.03124,0.63022 1.71875,0.85937 z"
         style="font-family:SimHei;-inkscape-font-specification:SimHei"
         id="path3195" />
    </g>
    <path
       style="fill:none;stroke:#464546;stroke-width:2;stroke-linecap:butt;stroke-linejoin:miter;stroke-miterlimit:4;stroke-opacity:1;stroke-dasharray:none"
       d="m 92.052539,830.74357 0,200.22103"
       id="path11910"
       inkscape:connector-curvature="0" />
    <path
       style="fill:none;stroke:#464546;stroke-width:2;stroke-linecap:butt;stroke-linejoin:miter;stroke-miterlimit:4;stroke-opacity:1;stroke-dasharray:none"
       d="m 162.07313,831.04273 0,199.91357"
       id="path11912"
       inkscape:connector-curvature="0" />
    <g
       style="font-size:22px;font-style:normal;font-variant:normal;font-weight:normal;font-stretch:normal;line-height:125%;letter-spacing:0px;word-spacing:0px;fill:#000000;fill-opacity:1;stroke:none;font-family:Open Sans;-inkscape-font-specification:Open Sans"
       id="text11914">
      <path
         d="m 49.496113,1013.5212 -1.71875,0 0,-10.4843 -0.171875,0 -2.0625,10.4843 -1.375,0 -2.0625,-10.4843 -0.171875,0 0,10.4843 -1.71875,0 0,-14.69527 2.664062,0 1.890625,9.71097 0.171875,0 1.890625,-9.71097 2.664063,0 z"
         style="font-family:SimHei;-inkscape-font-specification:SimHei"
         id="path3150" />
      <path
         d="m 60.58205,1003.2947 c -1e-5,1.375 -0.401051,2.4635 -1.203125,3.2656 -0.802091,0.8021 -1.919278,1.2031 -3.351562,1.2031 l -2.492188,0 0,5.7578 -1.976562,0 0,-14.69527 4.46875,0 c 1.432284,10e-6 2.549471,0.40105 3.351562,1.20317 0.802074,0.802 1.203115,1.8906 1.203125,3.2656 z m -1.976562,0 c -8e-6,-1.0886 -0.257821,-1.8333 -0.773438,-2.2344 -0.515632,-0.401 -1.289068,-0.6015 -2.320312,-0.6016 l -1.976563,0 0,5.6719 1.976563,0 c 1.031244,0 1.80468,-0.2005 2.320312,-0.6015 0.515617,-0.4011 0.77343,-1.1459 0.773438,-2.2344 z"
         style="font-family:SimHei;-inkscape-font-specification:SimHei"
         id="path3152" />
    </g>
    <g
       style="font-size:22px;font-style:normal;font-variant:normal;font-weight:normal;font-stretch:normal;line-height:125%;letter-spacing:0px;word-spacing:0px;fill:#000000;fill-opacity:1;stroke:none;font-family:Open Sans;-inkscape-font-specification:Open Sans"
       id="text11918">
      <path
         d="m 119.40493,1013.3691 -1.71875,0 0,-10.4843 -0.17187,0 -2.0625,10.4843 -1.375,0 -2.0625,-10.4843 -0.17188,0 0,10.4843 -1.71875,0 0,-14.69527 2.66406,0 1.89063,9.71097 0.17187,0 1.89063,-9.71097 2.66406,0 z"
         style="font-family:SimHei;-inkscape-font-specification:SimHei"
         id="path3145" />
      <path
         d="m 130.49087,1003.1426 c -1e-5,1.375 -0.40105,2.4635 -1.20313,3.2656 -0.80209,0.8021 -1.91928,1.2031 -3.35156,1.2031 l -2.49219,0 0,5.7578 -1.97656,0 0,-14.69527 4.46875,0 c 1.43228,1e-5 2.54947,0.40105 3.35156,1.20312 0.80208,0.80205 1.20312,1.89065 1.20313,3.26565 z m -1.97656,0 c -1e-5,-1.0886 -0.25783,-1.8333 -0.77344,-2.2344 -0.51563,-0.401 -1.28907,-0.6015 -2.32031,-0.6016 l -1.97657,0 0,5.6719 1.97657,0 c 1.03124,0 1.80468,-0.2005 2.32031,-0.6015 0.51561,-0.4011 0.77343,-1.1459 0.77344,-2.2344 z"
         style="font-family:SimHei;-inkscape-font-specification:SimHei"
         id="path3147" />
    </g>
    <g
       style="font-size:22px;font-style:normal;font-variant:normal;font-weight:normal;font-stretch:normal;line-height:125%;letter-spacing:0px;word-spacing:0px;fill:#000000;fill-opacity:1;stroke:none;font-family:Open Sans;-inkscape-font-specification:Open Sans"
       id="text11922">
      <path
         d="m 189.59622,1012.8863 -1.71875,0 0,-10.4844 -0.17187,0 -2.0625,10.4844 -1.375,0 -2.0625,-10.4844 -0.17188,0 0,10.4844 -1.71875,0 0,-14.69532 2.66406,0 1.89063,9.71092 0.17187,0 1.89063,-9.71092 2.66406,0 z"
         style="font-family:SimHei;-inkscape-font-specification:SimHei"
         id="path3140" />
      <path
         d="m 200.68216,1002.6597 c -1e-5,1.375 -0.40105,2.4636 -1.20313,3.2657 -0.80209,0.802 -1.91927,1.2031 -3.35156,1.2031 l -2.49219,0 0,5.7578 -1.97656,0 0,-14.69532 4.46875,0 c 1.43229,1e-5 2.54947,0.40106 3.35156,1.20312 0.80208,0.8021 1.20312,1.8906 1.20313,3.2656 z m -1.97656,0 c -1e-5,-1.0885 -0.25782,-1.8333 -0.77344,-2.2343 -0.51563,-0.4011 -1.28907,-0.6016 -2.32031,-0.60161 l -1.97657,0 0,5.67191 1.97657,0 c 1.03124,0 1.80468,-0.2005 2.32031,-0.6016 0.51562,-0.401 0.77343,-1.1458 0.77344,-2.2344 z"
         style="font-family:SimHei;-inkscape-font-specification:SimHei"
         id="path3142" />
    </g>
    <rect
       style="opacity:0.99000005;fill:#7ac142;fill-opacity:1;fill-rule:nonzero;stroke:#464546;stroke-width:2.91599989;stroke-linecap:butt;stroke-linejoin:miter;stroke-miterlimit:4;stroke-opacity:1;stroke-dasharray:none"
       id="rect11698-7"
       width="346.1778"
       height="246.17776"
       x="247.03612"
       y="784.27325"
       rx="13.84711"
       ry="8.373394" />
    <path
       style="fill:none;stroke:#464546;stroke-width:2.00178909;stroke-linecap:butt;stroke-linejoin:miter;stroke-miterlimit:4;stroke-opacity:1;stroke-dasharray:none"
       d="m 247.80614,830.49433 344.28821,0"
       id="path11874-8"
       inkscape:connector-curvature="0" />
    <path
       style="fill:none;stroke:#464546;stroke-width:2;stroke-linecap:butt;stroke-linejoin:miter;stroke-miterlimit:4;stroke-opacity:1;stroke-dasharray:none"
       d="m 246.80873,980.49592 345.39535,0"
       id="path11866-7"
       inkscape:connector-curvature="0" />
    <path
       style="fill:none;stroke:#464546;stroke-width:2.00178385;stroke-linecap:butt;stroke-linejoin:miter;stroke-miterlimit:4;stroke-opacity:1;stroke-dasharray:none"
       d="m 246.87135,930.99527 345.30672,0"
       id="path11866-7-6"
       inkscape:connector-curvature="0" />
    <path
       style="fill:none;stroke:#464546;stroke-width:2;stroke-linecap:butt;stroke-linejoin:miter;stroke-miterlimit:4;stroke-opacity:1;stroke-dasharray:none"
       d="m 246.8704,880.17754 345.04346,0"
       id="path11866-7-6-6"
       inkscape:connector-curvature="0" />
    <path
       style="fill:none;stroke:#464546;stroke-width:2;stroke-linecap:butt;stroke-linejoin:miter;stroke-miterlimit:4;stroke-opacity:1;stroke-dasharray:none"
       d="m 318.82523,830.47354 0,50.28872"
       id="path11912-1"
       inkscape:connector-curvature="0" />
    <path
       style="fill:none;stroke:#464546;stroke-width:2;stroke-linecap:butt;stroke-linejoin:miter;stroke-miterlimit:4;stroke-opacity:1;stroke-dasharray:none"
       d="m 388.15189,783.6664 0,97.3463"
       id="path11912-1-1"
       inkscape:connector-curvature="0" />
    <path
       style="fill:none;stroke:#464546;stroke-width:2.00931168;stroke-linecap:butt;stroke-linejoin:miter;stroke-miterlimit:4;stroke-opacity:1;stroke-dasharray:none"
       d="m 458.3724,831.37918 0,198.70862"
       id="path11912-1-1-3"
       inkscape:connector-curvature="0" />
    <path
       style="fill:none;stroke:#464546;stroke-width:2;stroke-linecap:butt;stroke-linejoin:miter;stroke-miterlimit:4;stroke-opacity:1;stroke-dasharray:none"
       d="m 528.64817,931.14591 0,98.31909"
       id="path11912-1-1-3-6"
       inkscape:connector-curvature="0" />
    <g
       style="font-size:22px;font-style:normal;font-variant:normal;font-weight:normal;font-stretch:normal;line-height:125%;letter-spacing:0px;word-spacing:0px;fill:#000000;fill-opacity:1;stroke:none;font-family:Open Sans;-inkscape-font-specification:Open Sans"
       id="text12300">
      <path
         d="m 297.71286,799.79614 c 1.03124,2e-5 1.86197,-0.0286 2.49219,-0.0859 l 0,1.54687 c -0.63022,-0.0573 -1.46095,-0.0859 -2.49219,-0.0859 -0.34376,1.66147 -0.80209,3.26564 -1.375,4.8125 l 3.52344,0 c -0.11459,0.85939 -0.17189,2.32032 -0.17188,4.38282 -10e-6,2.00521 0.0286,3.60937 0.0859,4.8125 l -1.54687,0 0,-1.03125 -1.97657,0 0,2.14843 -1.54687,0 c 0.11458,-1.375 0.17187,-2.40625 0.17187,-3.09375 l 0,-4.8125 c -0.22917,0.45834 -0.65885,1.0599 -1.28906,1.80469 -0.22917,-0.51562 -0.54427,-0.97395 -0.94531,-1.375 0.6302,-0.68749 1.20312,-1.5039 1.71875,-2.44922 0.51562,-0.9453 0.90234,-1.80468 1.16015,-2.57812 0.25781,-0.77343 0.44401,-1.64713 0.5586,-2.6211 -0.80209,2e-5 -1.66146,0.0287 -2.57813,0.0859 l 0,-1.54687 c 0.85938,0.0573 1.83333,0.086 2.92188,0.0859 z m 6.875,11.34375 c -0.91668,1.89063 -1.71876,3.35157 -2.40625,4.38282 l 2.49219,-0.34375 c -0.1146,-0.7448 -0.25783,-1.375 -0.42969,-1.89063 0.45832,-0.17187 0.97395,-0.3151 1.54688,-0.42969 0.40102,1.66146 0.74477,3.17969 1.03125,4.55469 -0.85939,0.0573 -1.43231,0.17187 -1.71875,0.34375 l -0.17188,-1.375 c -0.8021,0.11458 -1.54689,0.24349 -2.23437,0.38672 -0.68752,0.14323 -1.26043,0.32942 -1.71875,0.55859 -0.34376,-0.91667 -0.60158,-1.51823 -0.77344,-1.80468 0.22916,-0.11459 0.45832,-0.28646 0.6875,-0.51563 0.22916,-0.22917 0.61587,-0.77344 1.16015,-1.63281 0.54426,-0.85937 1.01692,-1.86198 1.41797,-3.00781 -1.03126,0.11458 -1.89063,0.3151 -2.57812,0.60156 -0.22918,-0.6875 -0.45834,-1.23177 -0.6875,-1.63281 0.45832,-0.28646 0.95962,-0.95963 1.5039,-2.01954 0.54426,-1.05988 1.04557,-2.4492 1.50391,-4.16796 0.68749,0.45834 1.2604,0.7448 1.71875,0.85937 -0.40105,0.57293 -0.8021,1.28907 -1.20312,2.14844 -0.40106,0.85938 -0.91668,1.91928 -1.54688,3.17969 l 1.80469,-0.17188 c 0.51561,-0.97395 0.91665,-2.0052 1.20312,-3.09375 0.57291,0.40105 1.08853,0.68751 1.54688,0.85938 z m 5.07031,-0.94531 c -1.37501,0.0573 -2.26303,0.20053 -2.66406,0.42969 -0.17189,-0.57291 -0.37241,-1.14583 -0.60156,-1.71875 0.45832,-0.28645 0.87368,-0.88802 1.24609,-1.80469 0.37238,-0.91666 0.73045,-2.14843 1.07422,-3.69531 0.51561,0.34376 1.11717,0.60157 1.80469,0.77344 -0.22919,0.28646 -0.487,0.75912 -0.77344,1.41796 -0.28648,0.65887 -0.77345,1.79038 -1.46094,3.39454 l 1.80469,-0.17188 c 0.40102,-0.85937 0.71613,-1.6901 0.94531,-2.49219 0.51561,0.28647 1.03123,0.54428 1.54688,0.77344 -0.40106,0.80209 -1.01695,2.14844 -1.84766,4.03906 -0.83075,1.89063 -1.44663,3.20834 -1.84765,3.95313 l 1.89062,-0.34375 -0.51562,-1.89063 c 0.34373,-0.11458 0.83071,-0.25781 1.46093,-0.42968 0.63019,2.34895 1.03123,3.86718 1.20313,4.55468 -0.51565,0.11458 -1.03127,0.25781 -1.54688,0.42969 -0.17189,-0.74479 -0.28647,-1.20313 -0.34375,-1.375 -0.45835,0.0573 -1.00262,0.15755 -1.63281,0.30078 -0.63023,0.14323 -1.28908,0.35807 -1.97656,0.64453 -0.22918,-0.57292 -0.45835,-1.11719 -0.6875,-1.63281 0.40102,-0.11458 0.78774,-0.5013 1.16015,-1.16016 0.37238,-0.65885 0.95962,-1.99088 1.76172,-3.99609 z m 1.375,-12.03125 c -0.1146,0.17189 -0.32944,0.57293 -0.64453,1.20313 -0.31512,0.63022 -0.64455,1.37501 -0.98828,2.23437 l 0.6875,0 c 0.85936,10e-6 1.80467,-0.0286 2.83594,-0.0859 l 0,1.46094 c -1.03127,-0.0573 -1.97658,-0.0859 -2.83594,-0.0859 l -5.92969,0 c -1.14584,2e-5 -2.32032,0.0287 -3.52343,0.0859 l 0,-1.46094 c 1.2604,0.0573 2.43488,0.0859 3.52343,0.0859 l 3.60938,0 c 0.51561,-1.08853 1.00258,-2.46353 1.46094,-4.125 0.45831,0.22918 1.05987,0.45835 1.80468,0.6875 z m -12.80468,14.69531 0,-5.58593 -1.97657,0 0,5.58593 z m 7.21875,-12.03125 c -0.45835,0.1146 -0.94533,0.31512 -1.46094,0.60157 -0.40106,-1.20311 -0.83074,-2.26301 -1.28906,-3.17969 0.45832,-0.17186 0.91665,-0.40103 1.375,-0.6875 0.63019,1.20314 1.08852,2.29168 1.375,3.26562 z"
         style="font-family:SimHei;-inkscape-font-specification:SimHei"
         id="path3089" />
      <path
         d="m 332.51755,815.86646 c 0.80206,-10e-6 1.69008,-0.0286 2.66406,-0.0859 l 0,1.54687 c -1.71877,-0.0573 -3.38023,-0.0859 -4.98437,-0.0859 l -11.25782,0 c -1.77604,-10e-6 -3.23698,0.0286 -4.38281,0.0859 l 0,-1.54687 c 0.97396,0.0573 1.86198,0.0859 2.66406,0.0859 l 0,-2.57813 c 0,-0.91666 -0.0286,-1.80468 -0.0859,-2.66406 l 15.46875,0 c -0.0573,0.85938 -0.086,1.7474 -0.0859,2.66406 z m -5.15625,-7.47657 c 0.91665,10e-6 1.53253,-0.0286 1.84765,-0.0859 0.31509,-0.0573 0.47264,-0.28646 0.47266,-0.6875 l 0,-1.89063 -9.02344,0 c -0.17188,0.97397 -0.42969,1.8047 -0.77343,2.49219 -0.34376,0.6875 -0.91668,1.4323 -1.71875,2.23437 -0.40105,-0.45833 -0.94532,-0.83072 -1.63282,-1.11718 0.74479,-0.51562 1.30338,-1.05989 1.67578,-1.63282 0.37239,-0.57291 0.61588,-1.23176 0.73047,-1.97656 -1.54688,10e-6 -2.75,0.0287 -3.60937,0.0859 l 0,-1.63281 c 1.14583,0.0573 2.3776,0.0859 3.69531,0.0859 l 0,-2.40625 c -10e-6,-0.74477 -0.0286,-1.51821 -0.0859,-2.32031 l 3.35157,0 c 0.22915,-0.68748 0.40103,-1.40363 0.51562,-2.14844 0.80207,0.1719 1.51822,0.31512 2.14844,0.42969 -0.17189,0.17189 -0.32944,0.4297 -0.47266,0.77344 -0.14324,0.34376 -0.27214,0.65887 -0.38672,0.94531 l 7.30469,0 c -0.0573,0.91668 -0.0859,1.86199 -0.0859,2.83594 l 0,1.89062 c 1.31769,10e-6 2.40623,-0.0286 3.26563,-0.0859 l 0,1.63281 c -0.8594,-0.0573 -1.97658,-0.0859 -3.35156,-0.0859 l 0,2.23438 c -2e-5,0.97396 -0.28648,1.5612 -0.85938,1.76171 -0.57293,0.20053 -1.31772,0.35808 -2.23437,0.47266 -0.0573,-0.51562 -0.31512,-1.11718 -0.77344,-1.80469 z m 2.40625,-4.125 0,-3.26562 -8.9375,0 0,3.26562 z m -3.4375,7.73438 -3.00781,0 0,3.86719 3.00781,0 z m 4.46875,0 -3.00781,0 0,3.86719 3.00781,0 z m -8.9375,0 -2.92188,0 0,3.86719 2.92188,0 z m 3.78125,-2.66406 c -0.8021,-0.6875 -1.83335,-1.28906 -3.09375,-1.80469 0.28645,-0.45833 0.51561,-0.88801 0.6875,-1.28906 1.14582,0.51563 2.26301,1.0599 3.35156,1.63281 -0.34376,0.34375 -0.65887,0.83073 -0.94531,1.46094 z m 0.25781,-5.24219 c -0.85939,-0.6302 -1.71876,-1.14582 -2.57812,-1.54688 0.34374,-0.40103 0.63019,-0.80207 0.85937,-1.20312 0.80207,0.40105 1.69009,0.88803 2.66406,1.46094 -0.34376,0.40105 -0.65886,0.83074 -0.94531,1.28906 z"
         style="font-family:SimHei;-inkscape-font-specification:SimHei"
         id="path3091" />
      <path
         d="m 351.68161,803.06177 c -0.7448,0.7448 -1.69011,1.46095 -2.83594,2.14844 l 0,-1.63282 c 1.43229,-0.97394 2.60677,-2.11978 3.52344,-3.4375 l 1.03125,0 0,14.78125 -1.71875,0 z"
         style="font-family:SimHei;-inkscape-font-specification:SimHei"
         id="path3093" />
    </g>
    <g
       style="font-size:22px;font-style:normal;font-variant:normal;font-weight:normal;font-stretch:normal;line-height:125%;letter-spacing:0px;word-spacing:0px;fill:#000000;fill-opacity:1;stroke:none;font-family:Open Sans;-inkscape-font-specification:Open Sans"
       id="text12304">
      <path
         d="m 460.53134,799.31238 c 1.03124,1e-5 1.86197,-0.0286 2.49219,-0.0859 l 0,1.54688 c -0.63022,-0.0573 -1.46095,-0.0859 -2.49219,-0.0859 -0.34375,1.66147 -0.80209,3.26563 -1.375,4.8125 l 3.52344,0 c -0.11459,0.85938 -0.17188,2.32032 -0.17188,4.38281 0,2.00521 0.0286,3.60938 0.0859,4.8125 l -1.54687,0 0,-1.03125 -1.97657,0 0,2.14844 -1.54687,0 c 0.11458,-1.375 0.17187,-2.40625 0.17187,-3.09375 l 0,-4.8125 c -0.22917,0.45834 -0.65885,1.0599 -1.28906,1.80469 -0.22917,-0.51562 -0.54427,-0.97396 -0.94531,-1.375 0.63021,-0.6875 1.20312,-1.5039 1.71875,-2.44922 0.51562,-0.94531 0.90234,-1.80468 1.16016,-2.57813 0.2578,-0.77342 0.444,-1.64712 0.55859,-2.62109 -0.80209,1e-5 -1.66146,0.0287 -2.57813,0.0859 l 0,-1.54688 c 0.85938,0.0573 1.83333,0.086 2.92188,0.0859 z m 6.875,11.34375 c -0.91668,1.89063 -1.71876,3.35156 -2.40625,4.38281 l 2.49219,-0.34375 c -0.1146,-0.74479 -0.25783,-1.375 -0.42969,-1.89062 0.45832,-0.17188 0.97395,-0.31511 1.54688,-0.42969 0.40102,1.66146 0.74477,3.17968 1.03125,4.55469 -0.85939,0.0573 -1.43231,0.17187 -1.71875,0.34375 l -0.17188,-1.375 c -0.80209,0.11458 -1.54688,0.24348 -2.23437,0.38671 -0.68751,0.14323 -1.26043,0.32943 -1.71875,0.5586 -0.34376,-0.91667 -0.60157,-1.51823 -0.77344,-1.80469 0.22916,-0.11458 0.45832,-0.28646 0.6875,-0.51562 0.22916,-0.22917 0.61587,-0.77344 1.16016,-1.63282 0.54426,-0.85937 1.01691,-1.86197 1.41796,-3.00781 -1.03126,0.11459 -1.89063,0.31511 -2.57812,0.60156 -0.22918,-0.68749 -0.45834,-1.23176 -0.6875,-1.63281 0.45832,-0.28645 0.95963,-0.95963 1.50391,-2.01953 0.54426,-1.05989 1.04556,-2.44921 1.5039,-4.16797 0.68749,0.45835 1.26041,0.7448 1.71875,0.85938 -0.40105,0.57292 -0.80209,1.28907 -1.20312,2.14843 -0.40106,0.85939 -0.91668,1.91928 -1.54688,3.17969 l 1.80469,-0.17187 c 0.51561,-0.97396 0.91665,-2.0052 1.20312,-3.09375 0.57291,0.40105 1.08853,0.6875 1.54688,0.85937 z m 5.07031,-0.94531 c -1.37501,0.0573 -2.26303,0.20052 -2.66406,0.42968 -0.17189,-0.57291 -0.37241,-1.14582 -0.60156,-1.71875 0.45832,-0.28645 0.87368,-0.88801 1.24609,-1.80468 0.37238,-0.91666 0.73046,-2.14843 1.07422,-3.69532 0.51561,0.34376 1.11717,0.60158 1.80469,0.77344 -0.22919,0.28647 -0.487,0.75913 -0.77344,1.41797 -0.28647,0.65886 -0.77345,1.79037 -1.46094,3.39453 l 1.80469,-0.17187 c 0.40102,-0.85937 0.71613,-1.6901 0.94531,-2.49219 0.51561,0.28647 1.03123,0.54428 1.54688,0.77344 -0.40106,0.80209 -1.01695,2.14844 -1.84766,4.03906 -0.83074,1.89063 -1.44663,3.20833 -1.84765,3.95312 l 1.89062,-0.34375 -0.51562,-1.89062 c 0.34373,-0.11458 0.83071,-0.25781 1.46093,-0.42969 0.63019,2.34896 1.03123,3.86719 1.20313,4.55469 -0.51565,0.11458 -1.03127,0.25781 -1.54688,0.42969 -0.17189,-0.7448 -0.28647,-1.20313 -0.34375,-1.375 -0.45835,0.0573 -1.00262,0.15755 -1.63281,0.30078 -0.63022,0.14322 -1.28908,0.35807 -1.97656,0.64453 -0.22918,-0.57292 -0.45835,-1.11719 -0.6875,-1.63281 0.40103,-0.11459 0.78774,-0.50131 1.16016,-1.16016 0.37237,-0.65885 0.95961,-1.99088 1.76171,-3.99609 z m 1.375,-12.03125 c -0.1146,0.17189 -0.32944,0.57293 -0.64453,1.20312 -0.31512,0.63022 -0.64455,1.37502 -0.98828,2.23438 l 0.6875,0 c 0.85936,10e-6 1.80467,-0.0286 2.83594,-0.0859 l 0,1.46094 c -1.03127,-0.0573 -1.97658,-0.0859 -2.83594,-0.0859 l -5.92969,0 c -1.14584,1e-5 -2.32032,0.0287 -3.52343,0.0859 l 0,-1.46094 c 1.2604,0.0573 2.43488,0.086 3.52343,0.0859 l 3.60938,0 c 0.51561,-1.08853 1.00259,-2.46353 1.46094,-4.125 0.45831,0.22918 1.05987,0.45835 1.80468,0.6875 z m -12.80468,14.69531 0,-5.58594 -1.97657,0 0,5.58594 z m 7.21875,-12.03125 c -0.45835,0.1146 -0.94533,0.31512 -1.46094,0.60156 -0.40105,-1.20311 -0.83074,-2.263 -1.28906,-3.17969 0.45832,-0.17185 0.91665,-0.40102 1.375,-0.6875 0.63019,1.20314 1.08852,2.29169 1.375,3.26563 z"
         style="font-family:SimHei;-inkscape-font-specification:SimHei"
         id="path3096" />
      <path
         d="m 495.33603,815.38269 c 0.80206,0 1.69008,-0.0286 2.66406,-0.0859 l 0,1.54688 c -1.71877,-0.0573 -3.38022,-0.0859 -4.98437,-0.0859 l -11.25782,0 c -1.77604,0 -3.23698,0.0286 -4.38281,0.0859 l 0,-1.54688 c 0.97396,0.0573 1.86198,0.0859 2.66406,0.0859 l 0,-2.57812 c 0,-0.91667 -0.0287,-1.80469 -0.0859,-2.66407 l 15.46875,0 c -0.0573,0.85938 -0.086,1.7474 -0.0859,2.66407 z m -5.15625,-7.47656 c 0.91665,0 1.53254,-0.0286 1.84766,-0.0859 0.31508,-0.0573 0.47264,-0.28645 0.47265,-0.6875 l 0,-1.89062 -9.02344,0 c -0.17188,0.97396 -0.42969,1.80469 -0.77343,2.49218 -0.34376,0.68751 -0.91668,1.4323 -1.71875,2.23438 -0.40105,-0.45833 -0.94532,-0.83073 -1.63282,-1.11719 0.74479,-0.51562 1.30339,-1.05989 1.67579,-1.63281 0.37239,-0.57291 0.61588,-1.23176 0.73046,-1.97656 -1.54687,10e-6 -2.75,0.0286 -3.60937,0.0859 l 0,-1.63281 c 1.14583,0.0573 2.3776,0.086 3.69531,0.0859 l 0,-2.40625 c 0,-0.74478 -0.0287,-1.51822 -0.0859,-2.32031 l 3.35157,0 c 0.22915,-0.68749 0.40103,-1.40363 0.51562,-2.14844 0.80208,0.17189 1.51822,0.31512 2.14844,0.42969 -0.17189,0.17189 -0.32944,0.4297 -0.47266,0.77343 -0.14324,0.34377 -0.27214,0.65887 -0.38672,0.94532 l 7.30469,0 c -0.0573,0.91668 -0.086,1.86199 -0.0859,2.83593 l 0,1.89063 c 1.31769,1e-5 2.40623,-0.0286 3.26563,-0.0859 l 0,1.63281 c -0.8594,-0.0573 -1.97658,-0.0859 -3.35156,-0.0859 l 0,2.23437 c -2e-5,0.97397 -0.28648,1.5612 -0.85938,1.76172 -0.57293,0.20053 -1.31772,0.35808 -2.23437,0.47266 -0.0573,-0.51562 -0.31512,-1.11719 -0.77344,-1.80469 z m 2.40625,-4.125 0,-3.26563 -8.9375,0 0,3.26563 z m -3.4375,7.73437 -3.00781,0 0,3.86719 3.00781,0 z m 4.46875,0 -3.00781,0 0,3.86719 3.00781,0 z m -8.9375,0 -2.92188,0 0,3.86719 2.92188,0 z m 3.78125,-2.66406 c -0.8021,-0.68749 -1.83334,-1.28905 -3.09375,-1.80469 0.28645,-0.45832 0.51561,-0.88801 0.6875,-1.28906 1.14582,0.51563 2.26301,1.0599 3.35156,1.63281 -0.34376,0.34376 -0.65886,0.83074 -0.94531,1.46094 z m 0.25781,-5.24219 c -0.85938,-0.63019 -1.71876,-1.14582 -2.57812,-1.54687 0.34374,-0.40103 0.63019,-0.80207 0.85937,-1.20313 0.80207,0.40106 1.69009,0.88804 2.66406,1.46094 -0.34376,0.40105 -0.65886,0.83074 -0.94531,1.28906 z"
         style="font-family:SimHei;-inkscape-font-specification:SimHei"
         id="path3098" />
      <path
         d="m 510.71884,814.09363 c 0.0573,-0.85938 0.45833,-1.63281 1.20313,-2.32031 0.74479,-0.6875 1.6901,-1.76172 2.83593,-3.22266 1.14583,-1.46093 1.89062,-2.59244 2.23438,-3.39453 0.34374,-0.80207 0.47265,-1.48957 0.38672,-2.0625 -0.086,-0.57291 -0.35808,-1.04556 -0.81641,-1.41797 -0.45834,-0.37238 -0.98829,-0.52993 -1.58984,-0.47266 -0.60157,0.0573 -1.17449,0.28647 -1.71875,0.6875 -0.54428,0.40106 -0.95964,1.00262 -1.2461,1.80469 l -1.63281,-0.25781 c 0.45833,-1.3177 1.04557,-2.27733 1.76172,-2.87891 0.71614,-0.60155 1.56119,-0.93097 2.53516,-0.98828 0.57291,-0.0573 1.08853,-0.043 1.54687,0.043 0.45833,0.086 0.93098,0.28647 1.41797,0.60156 0.48697,0.31512 0.88801,0.78778 1.20313,1.41797 0.31509,0.63022 0.42967,1.38934 0.34375,2.27734 -0.0859,0.88804 -0.52996,1.94793 -1.33204,3.17969 -0.80209,1.23178 -2.34896,3.16537 -4.64062,5.80078 l 6.1875,0 0,1.54688 -8.67969,0 z"
         style="font-family:SimHei;-inkscape-font-specification:SimHei"
         id="path3100" />
    </g>
    <path
       style="fill:none;stroke:#464546;stroke-width:2;stroke-linecap:butt;stroke-linejoin:miter;stroke-miterlimit:4;stroke-opacity:1;stroke-dasharray:none"
       d="m 528.8049,831.27924 0,49.06013"
       id="path11912-1-1-3-6-5"
       inkscape:connector-curvature="0" />
    <path
       style="fill:none;stroke:#464546;stroke-width:2;stroke-linecap:butt;stroke-linejoin:miter;stroke-miterlimit:4;stroke-opacity:1;stroke-dasharray:none"
       d="m 353.86718,931.40169 0,99.39951"
       id="path11912-1-1-3-2"
       inkscape:connector-curvature="0" />
    <g
       style="font-size:22px;font-style:normal;font-variant:normal;font-weight:normal;font-stretch:normal;line-height:125%;letter-spacing:0px;word-spacing:0px;fill:#000000;fill-opacity:1;stroke:none;font-family:Open Sans;-inkscape-font-specification:Open Sans"
       id="text11914-9">
      <path
         d="m 293.74072,1012.535 -1.71875,0 0,-10.4843 -0.17187,0 -2.0625,10.4843 -1.375,0 -2.0625,-10.4843 -0.17188,0 0,10.4843 -1.71875,0 0,-14.69528 2.66407,0 1.89062,9.71098 0.17188,0 1.89062,-9.71098 2.66406,0 z"
         style="font-family:SimHei;-inkscape-font-specification:SimHei"
         id="path3135" />
      <path
         d="m 304.82666,1002.3085 c -1e-5,1.375 -0.40105,2.4635 -1.20312,3.2656 -0.8021,0.8021 -1.91928,1.2031 -3.35157,1.2031 l -2.49218,0 0,5.7578 -1.97657,0 0,-14.69528 4.46875,0 c 1.43229,2e-5 2.54947,0.40106 3.35157,1.20313 0.80207,0.80209 1.20311,1.89065 1.20312,3.26565 z m -1.97656,0 c -10e-6,-1.0886 -0.25782,-1.8333 -0.77344,-2.2344 -0.51563,-0.40103 -1.28907,-0.60155 -2.32031,-0.60157 l -1.97656,0 0,5.67187 1.97656,0 c 1.03124,0 1.80468,-0.2005 2.32031,-0.6016 0.51562,-0.401 0.77343,-1.1458 0.77344,-2.2343 z"
         style="font-family:SimHei;-inkscape-font-specification:SimHei"
         id="path3137" />
    </g>
    <g
       style="font-size:22px;font-style:normal;font-variant:normal;font-weight:normal;font-stretch:normal;line-height:125%;letter-spacing:0px;word-spacing:0px;fill:#000000;fill-opacity:1;stroke:none;font-family:Open Sans;-inkscape-font-specification:Open Sans"
       id="text11914-5">
      <path
         d="m 403.49072,1012.285 -1.71875,0 0,-10.4843 -0.17187,0 -2.0625,10.4843 -1.375,0 -2.0625,-10.4843 -0.17188,0 0,10.4843 -1.71875,0 0,-14.69528 2.66407,0 1.89062,9.71098 0.17188,0 1.89062,-9.71098 2.66406,0 z"
         style="font-family:SimHei;-inkscape-font-specification:SimHei"
         id="path3130" />
      <path
         d="m 414.57666,1002.0585 c -1e-5,1.375 -0.40105,2.4635 -1.20312,3.2656 -0.8021,0.8021 -1.91928,1.2031 -3.35157,1.2031 l -2.49218,0 0,5.7578 -1.97657,0 0,-14.69528 4.46875,0 c 1.43229,2e-5 2.54947,0.40106 3.35157,1.20313 0.80207,0.80209 1.20311,1.89065 1.20312,3.26565 z m -1.97656,0 c -10e-6,-1.0886 -0.25782,-1.8333 -0.77344,-2.2344 -0.51563,-0.40103 -1.28907,-0.60155 -2.32031,-0.60157 l -1.97656,0 0,5.67187 1.97656,0 c 1.03124,0 1.80468,-0.2005 2.32031,-0.6016 0.51562,-0.401 0.77343,-1.1458 0.77344,-2.2343 z"
         style="font-family:SimHei;-inkscape-font-specification:SimHei"
         id="path3132" />
    </g>
    <g
       style="font-size:22px;font-style:normal;font-variant:normal;font-weight:normal;font-stretch:normal;line-height:125%;letter-spacing:0px;word-spacing:0px;fill:#000000;fill-opacity:1;stroke:none;font-family:Open Sans;-inkscape-font-specification:Open Sans"
       id="text11914-0">
      <path
         d="m 488.99072,1012.285 -1.71875,0 0,-10.4843 -0.17187,0 -2.0625,10.4843 -1.375,0 -2.0625,-10.4843 -0.17188,0 0,10.4843 -1.71875,0 0,-14.69528 2.66407,0 1.89062,9.71098 0.17188,0 1.89062,-9.71098 2.66406,0 z"
         style="font-family:SimHei;-inkscape-font-specification:SimHei"
         id="path3125" />
      <path
         d="m 500.07666,1002.0585 c -1e-5,1.375 -0.40105,2.4635 -1.20312,3.2656 -0.8021,0.8021 -1.91928,1.2031 -3.35157,1.2031 l -2.49218,0 0,5.7578 -1.97657,0 0,-14.69528 4.46875,0 c 1.43229,2e-5 2.54947,0.40106 3.35157,1.20313 0.80207,0.80209 1.20311,1.89065 1.20312,3.26565 z m -1.97656,0 c -10e-6,-1.0886 -0.25782,-1.8333 -0.77344,-2.2344 -0.51563,-0.40103 -1.28907,-0.60155 -2.32031,-0.60157 l -1.97656,0 0,5.67187 1.97656,0 c 1.03124,0 1.80468,-0.2005 2.32031,-0.6016 0.51562,-0.401 0.77343,-1.1458 0.77344,-2.2343 z"
         style="font-family:SimHei;-inkscape-font-specification:SimHei"
         id="path3127" />
    </g>
    <g
       style="font-size:22px;font-style:normal;font-variant:normal;font-weight:normal;font-stretch:normal;line-height:125%;letter-spacing:0px;word-spacing:0px;fill:#000000;fill-opacity:1;stroke:none;font-family:Open Sans;-inkscape-font-specification:Open Sans"
       id="text11914-97">
      <path
         d="m 554.24072,1012.785 -1.71875,0 0,-10.4843 -0.17187,0 -2.0625,10.4843 -1.375,0 -2.0625,-10.4843 -0.17188,0 0,10.4843 -1.71875,0 0,-14.69528 2.66407,0 1.89062,9.71098 0.17188,0 1.89062,-9.71098 2.66406,0 z"
         style="font-family:SimHei;-inkscape-font-specification:SimHei"
         id="path3120" />
      <path
         d="m 565.32666,1002.5585 c -10e-6,1.375 -0.40105,2.4635 -1.20312,3.2656 -0.8021,0.8021 -1.91928,1.2031 -3.35157,1.2031 l -2.49218,0 0,5.7578 -1.97657,0 0,-14.69528 4.46875,0 c 1.43229,2e-5 2.54947,0.40106 3.35157,1.20313 0.80207,0.80205 1.20311,1.89065 1.20312,3.26565 z m -1.97656,0 c -10e-6,-1.0886 -0.25782,-1.8333 -0.77344,-2.2344 -0.51563,-0.40103 -1.28907,-0.60155 -2.32031,-0.60157 l -1.97656,0 0,5.67187 1.97656,0 c 1.03124,0 1.80468,-0.2005 2.32031,-0.6016 0.51562,-0.401 0.77343,-1.1458 0.77344,-2.2343 z"
         style="font-family:SimHei;-inkscape-font-specification:SimHei"
         id="path3122" />
    </g>
    <g
       style="font-size:22px;font-style:normal;font-variant:normal;font-weight:normal;font-stretch:normal;line-height:125%;letter-spacing:0px;word-spacing:0px;fill:#000000;fill-opacity:1;stroke:none;font-family:Open Sans;-inkscape-font-specification:Open Sans"
       id="text11876-17">
      <path
         d="m 283.17059,853.21863 c 1.03123,1.03126 1.79035,1.99089 2.27735,2.8789 0.48696,0.88803 0.7018,1.79037 0.64453,2.70704 -0.0573,0.91666 -0.44403,1.61849 -1.16016,2.10546 -0.71616,0.48698 -1.79038,0.81641 -3.22265,0.98829 -0.1146,-0.63021 -0.37242,-1.31771 -0.77344,-2.0625 1.37498,0 2.27732,-0.15755 2.70703,-0.47266 0.42967,-0.3151 0.63019,-0.73047 0.60156,-1.24609 -0.0287,-0.51562 -0.32944,-1.23177 -0.90234,-2.14844 -0.57294,-0.91666 -1.23179,-1.74739 -1.97656,-2.49219 0.45831,-1.03124 1.05987,-3.0078 1.80468,-5.92969 l -3.09375,0 0,16.92969 -1.71875,0 c 0.0573,-1.20313 0.0859,-2.57812 0.0859,-4.125 l 0,-10.48437 c -10e-6,-1.26041 -0.0573,-2.52082 -0.17187,-3.78125 l 7.21875,0 c -0.91669,2.97918 -1.69013,5.35678 -2.32032,7.13281 z m -7.13281,3.00781 c -0.0573,1.31771 -0.086,2.63542 -0.0859,3.95313 -1e-5,1.3177 0.0286,2.6927 0.0859,4.125 l -1.71875,0 0,-1.71875 -4.64062,0 0,1.71875 -1.71875,0 c 0.0573,-1.20313 0.0859,-2.46355 0.0859,-3.78125 0,-1.375 -0.0287,-2.80729 -0.0859,-4.29688 l 8.07812,0 z m -4.46875,-12.03125 c 0.91666,1.14585 1.51822,1.97658 1.80469,2.49219 -0.34376,0.17189 -0.65886,0.34376 -0.94531,0.51562 2.40624,2e-5 3.92446,-0.0286 4.55468,-0.0859 l 0,1.63281 c -0.40105,1e-5 -1.17449,-0.0286 -2.32031,-0.0859 l 1.46094,0.6875 c -0.40105,0.63022 -0.97397,1.74741 -1.71875,3.35156 1.37499,10e-6 2.43488,-0.0286 3.17969,-0.0859 l 0,1.63281 c -0.74481,-0.0573 -1.4896,-0.0859 -2.23438,-0.0859 l -6.44531,0 c -1.03125,10e-6 -1.89063,0.0286 -2.57813,0.0859 l 0,-1.63281 c 0.40104,0.0573 1.48958,0.0859 3.26563,0.0859 -0.40105,-0.97394 -0.91667,-1.97655 -1.54688,-3.00781 0.45833,-0.22915 0.94531,-0.48697 1.46094,-0.77344 0.57291,0.8021 1.17447,1.8047 1.80469,3.00782 -0.57292,0.28646 -1.00261,0.54428 -1.28906,0.77343 l 2.75,0 c 0.74478,-1.77603 1.20311,-3.12238 1.375,-4.03906 l -2.0625,0 c -2.63543,10e-6 -4.35417,0.0287 -5.15625,0.0859 l 0,-1.63281 c 0.68749,0.0573 2.23437,0.086 4.64062,0.0859 -0.45834,-0.91665 -0.91667,-1.63279 -1.375,-2.14843 0.51562,-0.28645 0.97395,-0.5729 1.375,-0.85938 z m 2.75,17.01563 0,-3.60938 -4.64062,0 0,3.60938 z"
         style="font-family:SimHei;-inkscape-font-specification:SimHei"
         id="path3103" />
      <path
         d="m 290.38934,864.56238 c -0.40104,-0.63021 -0.88802,-1.11719 -1.46093,-1.46094 0.91666,-0.34375 1.74739,-0.75911 2.49218,-1.24609 0.74479,-0.48698 1.40364,-1.08854 1.97657,-1.80469 0.57291,-0.71614 1.00259,-1.5039 1.28906,-2.36328 0.28645,-0.85937 0.48697,-1.91927 0.60156,-3.17969 -1.31771,10e-6 -2.37761,0.0286 -3.17969,0.0859 l 0,-1.80469 c 0.91666,0.0573 2.09114,0.086 3.52344,0.0859 l 8.59375,0 c -0.1146,0.85938 -0.20054,1.60417 -0.25781,2.23437 l -0.6875,6.35938 c -0.1146,1.03125 -0.57293,1.71875 -1.375,2.0625 -0.8021,0.34375 -1.69012,0.54427 -2.66406,0.60156 -0.0573,-0.57292 -0.34377,-1.23177 -0.85938,-1.97656 1.20311,0.0573 2.01952,0.0143 2.44922,-0.12891 0.42967,-0.14323 0.70181,-0.64453 0.81641,-1.5039 l 0.60156,-6.01563 -5.15625,0 c -0.17189,1.48959 -0.41538,2.73568 -0.73047,3.73828 -0.31511,1.00261 -0.75912,1.87631 -1.33203,2.6211 -0.57293,0.74479 -1.26043,1.43229 -2.0625,2.0625 -0.80209,0.6302 -1.66146,1.17447 -2.57813,1.63281 z m 10.14063,-20.02344 c 0.40103,1.20314 1.21743,2.57814 2.44922,4.125 1.23175,1.54689 2.96482,2.89324 5.19922,4.03906 -0.45836,0.40105 -0.91669,1.00262 -1.375,1.80469 -1.03127,-0.74478 -1.93362,-1.4466 -2.70704,-2.10547 -0.77345,-0.65884 -1.41798,-1.27473 -1.93359,-1.84765 -0.51564,-0.57291 -1.08856,-1.38931 -1.71875,-2.44922 -0.63022,-1.05988 -1.14584,-2.04816 -1.54687,-2.96485 0.63019,-0.17185 1.17446,-0.37238 1.63281,-0.60156 z m -4.29688,1.20313 c -0.51563,0.91668 -0.94532,1.71876 -1.28906,2.40625 -0.34376,0.68751 -0.68751,1.30339 -1.03125,1.84765 -0.34376,0.54428 -0.85938,1.27475 -1.54687,2.19141 -0.68751,0.91667 -1.51824,1.86199 -2.49219,2.83594 -0.51563,-0.51562 -1.03125,-0.91666 -1.54688,-1.20313 1.14583,-1.03124 2.04818,-1.97655 2.70703,-2.83594 0.65885,-0.85936 1.28906,-1.79035 1.89063,-2.79297 0.60156,-1.00258 1.1315,-2.10545 1.58984,-3.30859 0.45833,0.34377 1.03124,0.63023 1.71875,0.85938 z"
         style="font-family:SimHei;-inkscape-font-specification:SimHei"
         id="path3105" />
    </g>
    <g
       style="font-size:22px;font-style:normal;font-variant:normal;font-weight:normal;font-stretch:normal;line-height:125%;letter-spacing:0px;word-spacing:0px;fill:#000000;fill-opacity:1;stroke:none;font-family:Open Sans;-inkscape-font-specification:Open Sans"
       id="text11876-63">
      <path
         d="m 349.46344,854.13757 c 1.03123,1.03126 1.79034,1.9909 2.27734,2.87891 0.48696,0.88803 0.70181,1.79037 0.64453,2.70703 -0.0573,0.91667 -0.44403,1.61849 -1.16015,2.10547 -0.71617,0.48698 -1.79038,0.81641 -3.22266,0.98828 -0.1146,-0.63021 -0.37241,-1.31771 -0.77344,-2.0625 1.37499,0 2.27733,-0.15755 2.70704,-0.47266 0.42966,-0.3151 0.63019,-0.73046 0.60156,-1.24609 -0.0287,-0.51562 -0.32945,-1.23176 -0.90235,-2.14844 -0.57293,-0.91666 -1.23178,-1.74738 -1.97656,-2.49218 0.45832,-1.03124 1.05988,-3.0078 1.80469,-5.92969 l -3.09375,0 0,16.92969 -1.71875,0 c 0.0573,-1.20313 0.0859,-2.57813 0.0859,-4.125 l 0,-10.48438 c -2e-5,-1.2604 -0.0573,-2.52082 -0.17188,-3.78125 l 7.21875,0 c -0.91668,2.97918 -1.69012,5.35678 -2.32031,7.13281 z m -7.13281,3.00782 c -0.0573,1.31771 -0.0859,2.63542 -0.0859,3.95312 -10e-6,1.31771 0.0286,2.69271 0.0859,4.125 l -1.71875,0 0,-1.71875 -4.64063,0 0,1.71875 -1.71875,0 c 0.0573,-1.20313 0.0859,-2.46354 0.0859,-3.78125 0,-1.375 -0.0286,-2.80729 -0.0859,-4.29687 l 8.07813,0 z m -4.46875,-12.03125 c 0.91666,1.14585 1.51822,1.97657 1.80468,2.49218 -0.34375,0.17189 -0.65886,0.34377 -0.94531,0.51563 2.40624,10e-6 3.92447,-0.0286 4.55469,-0.0859 l 0,1.63281 c -0.40105,2e-5 -1.17449,-0.0286 -2.32031,-0.0859 l 1.46093,0.6875 c -0.40105,0.63022 -0.97396,1.7474 -1.71875,3.35156 1.37499,10e-6 2.43489,-0.0286 3.17969,-0.0859 l 0,1.63281 c -0.7448,-0.0573 -1.48959,-0.0859 -2.23437,-0.0859 l -6.44532,0 c -1.03125,0 -1.89062,0.0286 -2.57812,0.0859 l 0,-1.63281 c 0.40104,0.0573 1.48958,0.0859 3.26562,0.0859 -0.40104,-0.97395 -0.91667,-1.97655 -1.54687,-3.00781 0.45833,-0.22916 0.94531,-0.48697 1.46094,-0.77344 0.57291,0.80209 1.17447,1.8047 1.80468,3.00781 -0.57292,0.28647 -1.0026,0.54428 -1.28906,0.77344 l 2.75,0 c 0.74479,-1.77603 1.20312,-3.12238 1.375,-4.03906 l -2.0625,0 c -2.63542,10e-6 -4.35417,0.0287 -5.15625,0.0859 l 0,-1.63281 c 0.6875,0.0573 2.23437,0.0859 4.64063,0.0859 -0.45834,-0.91665 -0.91667,-1.6328 -1.375,-2.14844 0.51562,-0.28644 0.97395,-0.5729 1.375,-0.85937 z m 2.75,17.01562 0,-3.60937 -4.64063,0 0,3.60937 z"
         style="font-family:SimHei;-inkscape-font-specification:SimHei"
         id="path3108" />
      <path
         d="m 356.68219,865.48132 c -0.40104,-0.63021 -0.88802,-1.11719 -1.46094,-1.46093 0.91667,-0.34375 1.74739,-0.75912 2.49219,-1.2461 0.74479,-0.48698 1.40364,-1.08854 1.97656,-1.80469 0.57291,-0.71614 1.0026,-1.5039 1.28906,-2.36328 0.28646,-0.85937 0.48698,-1.91926 0.60157,-3.17968 -1.31772,0 -2.37761,0.0286 -3.17969,0.0859 l 0,-1.80468 c 0.91666,0.0573 2.09114,0.0859 3.52344,0.0859 l 8.59375,0 c -0.1146,0.85939 -0.20054,1.60418 -0.25782,2.23438 l -0.6875,6.35937 c -0.11459,1.03125 -0.57293,1.71875 -1.375,2.0625 -0.80209,0.34375 -1.69011,0.54427 -2.66406,0.60157 -0.0573,-0.57292 -0.34376,-1.23178 -0.85937,-1.97657 1.20311,0.0573 2.01952,0.0143 2.44922,-0.1289 0.42967,-0.14323 0.7018,-0.64453 0.8164,-1.50391 l 0.60156,-6.01562 -5.15625,0 c -0.17188,1.48959 -0.41537,2.73568 -0.73046,3.73828 -0.31512,1.0026 -0.75913,1.8763 -1.33204,2.62109 -0.57292,0.74479 -1.26042,1.43229 -2.0625,2.0625 -0.80208,0.63021 -1.66146,1.17448 -2.57812,1.63281 z m 10.14062,-20.02343 c 0.40103,1.20314 1.21744,2.57814 2.44922,4.125 1.23176,1.54688 2.96483,2.89324 5.19922,4.03906 -0.45835,0.40105 -0.91668,1.00261 -1.375,1.80469 -1.03127,-0.74479 -1.93361,-1.44661 -2.70703,-2.10547 -0.77345,-0.65885 -1.41798,-1.27473 -1.93359,-1.84766 -0.51564,-0.5729 -1.08856,-1.38931 -1.71875,-2.44922 -0.63022,-1.05988 -1.14585,-2.04816 -1.54688,-2.96484 0.6302,-0.17186 1.17447,-0.37238 1.63281,-0.60156 z m -4.29687,1.20312 c -0.51563,0.91668 -0.94532,1.71877 -1.28906,2.40625 -0.34376,0.68751 -0.68751,1.3034 -1.03125,1.84766 -0.34376,0.54428 -0.85938,1.27475 -1.54688,2.1914 -0.6875,0.91668 -1.51823,1.86199 -2.49219,2.83594 -0.51562,-0.51562 -1.03125,-0.91666 -1.54687,-1.20312 1.14583,-1.03124 2.04817,-1.97656 2.70703,-2.83594 0.65885,-0.85936 1.28906,-1.79035 1.89063,-2.79297 0.60155,-1.00259 1.1315,-2.10545 1.58984,-3.30859 0.45833,0.34376 1.03124,0.63022 1.71875,0.85937 z"
         style="font-family:SimHei;-inkscape-font-specification:SimHei"
         id="path3110" />
    </g>
    <g
       style="font-size:22px;font-style:normal;font-variant:normal;font-weight:normal;font-stretch:normal;line-height:125%;letter-spacing:0px;word-spacing:0px;fill:#000000;fill-opacity:1;stroke:none;font-family:Open Sans;-inkscape-font-specification:Open Sans"
       id="text11876-4">
      <path
         d="m 421.84738,853.83972 c 1.03123,1.03126 1.79035,1.99089 2.27735,2.87891 0.48695,0.88802 0.7018,1.79037 0.64453,2.70703 -0.0573,0.91667 -0.44403,1.61849 -1.16016,2.10547 -0.71616,0.48698 -1.79038,0.8164 -3.22266,0.98828 -0.1146,-0.63021 -0.37241,-1.31771 -0.77343,-2.0625 1.37498,0 2.27732,-0.15755 2.70703,-0.47266 0.42967,-0.3151 0.63019,-0.73046 0.60156,-1.24609 -0.0287,-0.51562 -0.32945,-1.23177 -0.90234,-2.14844 -0.57294,-0.91666 -1.23179,-1.74739 -1.97657,-2.49219 0.45832,-1.03124 1.05988,-3.0078 1.80469,-5.92968 l -3.09375,0 0,16.92968 -1.71875,0 c 0.0573,-1.20312 0.0859,-2.57812 0.0859,-4.125 l 0,-10.48437 c -10e-6,-1.2604 -0.0573,-2.52082 -0.17188,-3.78125 l 7.21875,0 c -0.91668,2.97918 -1.69012,5.35678 -2.32031,7.13281 z m -7.13281,3.00781 c -0.0573,1.31772 -0.0859,2.63542 -0.0859,3.95313 -10e-6,1.31771 0.0286,2.69271 0.0859,4.125 l -1.71875,0 0,-1.71875 -4.64063,0 0,1.71875 -1.71875,0 c 0.0573,-1.20313 0.0859,-2.46354 0.0859,-3.78125 0,-1.375 -0.0286,-2.80729 -0.0859,-4.29688 l 8.07813,0 z m -4.46875,-12.03125 c 0.91666,1.14585 1.51822,1.97658 1.80469,2.49219 -0.34376,0.17189 -0.65887,0.34377 -0.94532,0.51563 2.40624,10e-6 3.92447,-0.0286 4.55469,-0.0859 l 0,1.63281 c -0.40105,2e-5 -1.17449,-0.0286 -2.32031,-0.0859 l 1.46094,0.6875 c -0.40106,0.63022 -0.97397,1.74741 -1.71875,3.35157 1.37499,10e-6 2.43488,-0.0286 3.17968,-0.0859 l 0,1.63281 c -0.7448,-0.0573 -1.48959,-0.0859 -2.23437,-0.0859 l -6.44531,0 c -1.03126,10e-6 -1.89063,0.0287 -2.57813,0.0859 l 0,-1.63281 c 0.40104,0.0573 1.48958,0.086 3.26563,0.0859 -0.40105,-0.97395 -0.91667,-1.97655 -1.54688,-3.00782 0.45833,-0.22915 0.94531,-0.48696 1.46094,-0.77343 0.57291,0.80209 1.17447,1.8047 1.80469,3.00781 -0.57293,0.28647 -1.00261,0.54428 -1.28907,0.77344 l 2.75,0 c 0.74479,-1.77603 1.20312,-3.12239 1.375,-4.03907 l -2.0625,0 c -2.63542,2e-5 -4.35417,0.0287 -5.15625,0.0859 l 0,-1.63281 c 0.6875,0.0573 2.23437,0.086 4.64063,0.0859 -0.45834,-0.91665 -0.91667,-1.6328 -1.375,-2.14844 0.51562,-0.28644 0.97395,-0.5729 1.375,-0.85938 z m 2.75,17.01563 0,-3.60938 -4.64063,0 0,3.60938 z"
         style="font-family:SimHei;-inkscape-font-specification:SimHei"
         id="path3198" />
      <path
         d="m 429.06613,865.18347 c -0.40104,-0.63021 -0.88802,-1.11719 -1.46094,-1.46094 0.91667,-0.34375 1.7474,-0.75911 2.49219,-1.24609 0.74479,-0.48698 1.40364,-1.08854 1.97656,-1.80469 0.57291,-0.71614 1.0026,-1.5039 1.28907,-2.36328 0.28645,-0.85937 0.48697,-1.91926 0.60156,-3.17969 -1.31772,10e-6 -2.37761,0.0287 -3.17969,0.0859 l 0,-1.80469 c 0.91666,0.0573 2.09114,0.086 3.52344,0.0859 l 8.59375,0 c -0.1146,0.85939 -0.20054,1.60418 -0.25781,2.23438 l -0.6875,6.35937 c -0.1146,1.03125 -0.57294,1.71875 -1.375,2.0625 -0.8021,0.34375 -1.69012,0.54427 -2.66407,0.60156 -0.0573,-0.57291 -0.34376,-1.23177 -0.85937,-1.97656 1.20311,0.0573 2.01952,0.0143 2.44922,-0.1289 0.42967,-0.14323 0.70181,-0.64453 0.8164,-1.50391 l 0.60157,-6.01563 -5.15625,0 c -0.17189,1.48959 -0.41538,2.73569 -0.73047,3.73829 -0.31512,1.0026 -0.75913,1.8763 -1.33203,2.62109 -0.57293,0.74479 -1.26043,1.43229 -2.0625,2.0625 -0.80209,0.63021 -1.66147,1.17448 -2.57813,1.63281 z m 10.14063,-20.02344 c 0.40102,1.20315 1.21743,2.57814 2.44922,4.125 1.23175,1.54689 2.96482,2.89324 5.19921,4.03907 -0.45835,0.40105 -0.91668,1.00261 -1.375,1.80468 -1.03126,-0.74478 -1.93361,-1.4466 -2.70703,-2.10546 -0.77345,-0.65885 -1.41798,-1.27473 -1.93359,-1.84766 -0.51564,-0.57291 -1.08856,-1.38931 -1.71875,-2.44922 -0.63022,-1.05988 -1.14585,-2.04816 -1.54688,-2.96484 0.6302,-0.17186 1.17447,-0.37238 1.63282,-0.60157 z m -4.29688,1.20313 c -0.51563,0.91668 -0.94532,1.71876 -1.28906,2.40625 -0.34376,0.68751 -0.68751,1.3034 -1.03125,1.84766 -0.34376,0.54428 -0.85938,1.27475 -1.54688,2.1914 -0.6875,0.91668 -1.51823,1.86199 -2.49218,2.83594 -0.51563,-0.51562 -1.03126,-0.91666 -1.54688,-1.20313 1.14583,-1.03124 2.04818,-1.97655 2.70703,-2.83593 0.65885,-0.85937 1.28906,-1.79035 1.89063,-2.79297 0.60155,-1.00259 1.1315,-2.10545 1.58984,-3.3086 0.45833,0.34377 1.03124,0.63023 1.71875,0.85938 z"
         style="font-family:SimHei;-inkscape-font-specification:SimHei"
         id="path3200" />
    </g>
    <g
       style="font-size:22px;font-style:normal;font-variant:normal;font-weight:normal;font-stretch:normal;line-height:125%;letter-spacing:0px;word-spacing:0px;fill:#000000;fill-opacity:1;stroke:none;font-family:Open Sans;-inkscape-font-specification:Open Sans"
       id="text11876-636">
      <path
         d="m 490.30286,853.81433 c 1.03123,1.03126 1.79034,1.99089 2.27734,2.87891 0.48696,0.88802 0.7018,1.79037 0.64453,2.70703 -0.0573,0.91667 -0.44403,1.61849 -1.16015,2.10547 -0.71617,0.48698 -1.79039,0.8164 -3.22266,0.98828 -0.1146,-0.63021 -0.37241,-1.31771 -0.77344,-2.0625 1.37498,0 2.27733,-0.15755 2.70703,-0.47266 0.42967,-0.3151 0.63019,-0.73046 0.60157,-1.24609 -0.0287,-0.51562 -0.32945,-1.23177 -0.90235,-2.14844 -0.57293,-0.91666 -1.23179,-1.74739 -1.97656,-2.49219 0.45832,-1.03124 1.05988,-3.0078 1.80469,-5.92968 l -3.09375,0 0,16.92968 -1.71875,0 c 0.0573,-1.20312 0.0859,-2.57812 0.0859,-4.125 l 0,-10.48437 c -10e-6,-1.2604 -0.0573,-2.52082 -0.17187,-3.78125 l 7.21875,0 c -0.91669,2.97918 -1.69012,5.35678 -2.32031,7.13281 z m -7.13282,3.00781 c -0.0573,1.31772 -0.0859,2.63542 -0.0859,3.95313 -1e-5,1.31771 0.0286,2.69271 0.0859,4.125 l -1.71875,0 0,-1.71875 -4.64062,0 0,1.71875 -1.71875,0 c 0.0573,-1.20313 0.0859,-2.46354 0.0859,-3.78125 -1e-5,-1.375 -0.0287,-2.80729 -0.0859,-4.29688 l 8.07812,0 z m -4.46875,-12.03125 c 0.91666,1.14585 1.51822,1.97658 1.80469,2.49219 -0.34376,0.17189 -0.65886,0.34377 -0.94531,0.51563 2.40624,10e-6 3.92447,-0.0286 4.55469,-0.0859 l 0,1.63281 c -0.40106,10e-6 -1.17449,-0.0286 -2.32032,-0.0859 l 1.46094,0.6875 c -0.40105,0.63022 -0.97397,1.74741 -1.71875,3.35157 1.37499,10e-6 2.43489,-0.0286 3.17969,-0.0859 l 0,1.63281 c -0.7448,-0.0573 -1.4896,-0.0859 -2.23438,-0.0859 l -6.44531,0 c -1.03125,10e-6 -1.89063,0.0287 -2.57812,0.0859 l 0,-1.63281 c 0.40104,0.0573 1.48958,0.086 3.26562,0.0859 -0.40104,-0.97395 -0.91667,-1.97655 -1.54687,-3.00782 0.45833,-0.22915 0.9453,-0.48696 1.46093,-0.77343 0.57292,0.80209 1.17448,1.8047 1.80469,3.00781 -0.57292,0.28647 -1.00261,0.54428 -1.28906,0.77344 l 2.75,0 c 0.74478,-1.77603 1.20311,-3.12239 1.375,-4.03907 l -2.0625,0 c -2.63542,2e-5 -4.35417,0.0287 -5.15625,0.0859 l 0,-1.63281 c 0.6875,0.0573 2.23437,0.086 4.64062,0.0859 -0.45834,-0.91665 -0.91667,-1.6328 -1.375,-2.14844 0.51562,-0.28644 0.97396,-0.5729 1.375,-0.85938 z m 2.75,17.01563 0,-3.60938 -4.64062,0 0,3.60938 z"
         style="font-family:SimHei;-inkscape-font-specification:SimHei"
         id="path3203" />
      <path
         d="m 497.52161,865.15808 c -0.40105,-0.63021 -0.88803,-1.11719 -1.46094,-1.46094 0.91666,-0.34375 1.74739,-0.75911 2.49219,-1.24609 0.74478,-0.48698 1.40364,-1.08854 1.97656,-1.80469 0.57291,-0.71614 1.0026,-1.5039 1.28906,-2.36328 0.28645,-0.85937 0.48697,-1.91926 0.60156,-3.17969 -1.31771,10e-6 -2.37761,0.0287 -3.17968,0.0859 l 0,-1.80469 c 0.91666,0.0573 2.09114,0.086 3.52343,0.0859 l 8.59375,0 c -0.1146,0.85938 -0.20053,1.60418 -0.25781,2.23438 l -0.6875,6.35937 c -0.1146,1.03125 -0.57293,1.71875 -1.375,2.0625 -0.8021,0.34375 -1.69012,0.54427 -2.66406,0.60156 -0.0573,-0.57291 -0.34376,-1.23177 -0.85938,-1.97656 1.20312,0.0573 2.01952,0.0143 2.44922,-0.12891 0.42968,-0.14322 0.70181,-0.64453 0.81641,-1.5039 l 0.60156,-6.01563 -5.15625,0 c -0.17188,1.48959 -0.41537,2.73569 -0.73047,3.73828 -0.31511,1.00261 -0.75912,1.87631 -1.33203,2.6211 -0.57292,0.74479 -1.26042,1.43229 -2.0625,2.0625 -0.80209,0.63021 -1.66146,1.17448 -2.57812,1.63281 z m 10.14062,-20.02344 c 0.40103,1.20315 1.21743,2.57814 2.44922,4.125 1.23175,1.54689 2.96482,2.89324 5.19922,4.03907 -0.45836,0.40105 -0.91669,1.00261 -1.375,1.80468 -1.03127,-0.74478 -1.93361,-1.4466 -2.70703,-2.10547 -0.77346,-0.65884 -1.41799,-1.27472 -1.9336,-1.84765 -0.51564,-0.57291 -1.08855,-1.38931 -1.71875,-2.44922 -0.63022,-1.05988 -1.14584,-2.04816 -1.54687,-2.96484 0.63019,-0.17186 1.17446,-0.37238 1.63281,-0.60157 z m -4.29687,1.20313 c -0.51564,0.91668 -0.94532,1.71876 -1.28907,2.40625 -0.34375,0.68751 -0.6875,1.3034 -1.03125,1.84765 -0.34375,0.54429 -0.85938,1.27476 -1.54687,2.19141 -0.68751,0.91668 -1.51823,1.86199 -2.49219,2.83594 -0.51563,-0.51562 -1.03125,-0.91666 -1.54687,-1.20313 1.14583,-1.03124 2.04817,-1.97655 2.70703,-2.83593 0.65885,-0.85937 1.28905,-1.79036 1.89062,-2.79297 0.60156,-1.00259 1.13151,-2.10546 1.58985,-3.3086 0.45832,0.34377 1.03124,0.63023 1.71875,0.85938 z"
         style="font-family:SimHei;-inkscape-font-specification:SimHei"
         id="path3205" />
    </g>
    <g
       style="font-size:22px;font-style:normal;font-variant:normal;font-weight:normal;font-stretch:normal;line-height:125%;letter-spacing:0px;word-spacing:0px;fill:#000000;fill-opacity:1;stroke:none;font-family:Open Sans;-inkscape-font-specification:Open Sans"
       id="text11876-49">
      <path
         d="m 554.41357,853.75378 c 1.03123,1.03126 1.79035,1.9909 2.27735,2.87891 0.48696,0.88803 0.7018,1.79037 0.64453,2.70703 -0.0573,0.91667 -0.44403,1.61849 -1.16016,2.10547 -0.71616,0.48698 -1.79038,0.81641 -3.22265,0.98828 -0.1146,-0.63021 -0.37242,-1.3177 -0.77344,-2.0625 1.37498,0 2.27732,-0.15755 2.70703,-0.47265 0.42967,-0.31511 0.63019,-0.73047 0.60156,-1.2461 -0.0287,-0.51562 -0.32944,-1.23176 -0.90234,-2.14844 -0.57294,-0.91666 -1.23179,-1.74738 -1.97656,-2.49218 0.45831,-1.03124 1.05988,-3.0078 1.80468,-5.92969 l -3.09375,0 0,16.92969 -1.71875,0 c 0.0573,-1.20313 0.0859,-2.57813 0.0859,-4.125 l 0,-10.48438 c -10e-6,-1.2604 -0.0573,-2.52082 -0.17187,-3.78125 l 7.21875,0 c -0.91669,2.97918 -1.69013,5.35678 -2.32032,7.13281 z m -7.13281,3.00782 c -0.0573,1.31771 -0.086,2.63542 -0.0859,3.95312 -1e-5,1.31771 0.0286,2.69271 0.0859,4.125 l -1.71875,0 0,-1.71875 -4.64062,0 0,1.71875 -1.71875,0 c 0.0573,-1.20312 0.0859,-2.46354 0.0859,-3.78125 0,-1.375 -0.0286,-2.80729 -0.0859,-4.29687 l 8.07812,0 z m -4.46875,-12.03125 c 0.91666,1.14585 1.51822,1.97658 1.80469,2.49218 -0.34376,0.17189 -0.65886,0.34377 -0.94531,0.51563 2.40624,10e-6 3.92446,-0.0286 4.55468,-0.0859 l 0,1.63281 c -0.40105,2e-5 -1.17449,-0.0286 -2.32031,-0.0859 l 1.46094,0.6875 c -0.40105,0.63022 -0.97397,1.7474 -1.71875,3.35156 1.37499,10e-6 2.43488,-0.0286 3.17969,-0.0859 l 0,1.63281 c -0.74481,-0.0573 -1.4896,-0.0859 -2.23438,-0.0859 l -6.44531,0 c -1.03125,0 -1.89063,0.0286 -2.57813,0.0859 l 0,-1.63281 c 0.40104,0.0573 1.48958,0.0859 3.26563,0.0859 -0.40105,-0.97395 -0.91667,-1.97655 -1.54688,-3.00781 0.45833,-0.22916 0.94531,-0.48697 1.46094,-0.77344 0.57291,0.8021 1.17448,1.8047 1.80469,3.00781 -0.57292,0.28647 -1.00261,0.54428 -1.28906,0.77344 l 2.75,0 c 0.74478,-1.77603 1.20311,-3.12238 1.375,-4.03906 l -2.0625,0 c -2.63542,10e-6 -4.35417,0.0287 -5.15625,0.0859 l 0,-1.63281 c 0.68749,0.0573 2.23437,0.0859 4.64062,0.0859 -0.45834,-0.91665 -0.91667,-1.6328 -1.375,-2.14844 0.51562,-0.28644 0.97395,-0.5729 1.375,-0.85937 z m 2.75,17.01562 0,-3.60937 -4.64062,0 0,3.60937 z"
         style="font-family:SimHei;-inkscape-font-specification:SimHei"
         id="path3208" />
      <path
         d="m 561.63232,865.09753 c -0.40104,-0.63021 -0.88802,-1.11718 -1.46093,-1.46093 0.91666,-0.34375 1.74739,-0.75912 2.49218,-1.2461 0.74479,-0.48698 1.40364,-1.08854 1.97657,-1.80468 0.57291,-0.71615 1.00259,-1.50391 1.28906,-2.36329 0.28645,-0.85937 0.48697,-1.91926 0.60156,-3.17968 -1.31771,0 -2.37761,0.0286 -3.17969,0.0859 l 0,-1.80468 c 0.91666,0.0573 2.09114,0.0859 3.52344,0.0859 l 8.59375,0 c -0.1146,0.85939 -0.20054,1.60418 -0.25781,2.23438 l -0.6875,6.35937 c -0.1146,1.03125 -0.57293,1.71875 -1.375,2.0625 -0.8021,0.34375 -1.69012,0.54427 -2.66406,0.60157 -0.0573,-0.57292 -0.34377,-1.23177 -0.85938,-1.97657 1.20311,0.0573 2.01952,0.0143 2.44922,-0.1289 0.42967,-0.14323 0.70181,-0.64453 0.81641,-1.50391 l 0.60156,-6.01562 -5.15625,0 c -0.17189,1.48959 -0.41538,2.73568 -0.73047,3.73828 -0.31511,1.00261 -0.75912,1.8763 -1.33203,2.62109 -0.57292,0.74479 -1.26042,1.43229 -2.0625,2.0625 -0.80209,0.63021 -1.66146,1.17448 -2.57813,1.63281 z m 10.14063,-20.02343 c 0.40103,1.20314 1.21743,2.57814 2.44922,4.125 1.23175,1.54688 2.96482,2.89324 5.19922,4.03906 -0.45836,0.40105 -0.91669,1.00261 -1.375,1.80469 -1.03127,-0.74479 -1.93361,-1.44661 -2.70703,-2.10547 -0.77346,-0.65885 -1.41799,-1.27473 -1.9336,-1.84766 -0.51564,-0.5729 -1.08855,-1.38931 -1.71875,-2.44922 -0.63022,-1.05988 -1.14584,-2.04816 -1.54687,-2.96484 0.63019,-0.17186 1.17446,-0.37238 1.63281,-0.60156 z m -4.29688,1.20312 c -0.51563,0.91668 -0.94532,1.71877 -1.28906,2.40625 -0.34376,0.68752 -0.68751,1.3034 -1.03125,1.84766 -0.34375,0.54428 -0.85938,1.27475 -1.54687,2.1914 -0.68751,0.91668 -1.51824,1.86199 -2.49219,2.83594 -0.51563,-0.51562 -1.03125,-0.91666 -1.54688,-1.20312 1.14584,-1.03124 2.04818,-1.97656 2.70704,-2.83594 0.65884,-0.85936 1.28905,-1.79035 1.89062,-2.79297 0.60156,-1.00259 1.1315,-2.10545 1.58984,-3.30859 0.45833,0.34376 1.03125,0.63022 1.71875,0.85937 z"
         style="font-family:SimHei;-inkscape-font-specification:SimHei"
         id="path3210" />
    </g>
    <g
       style="font-size:22px;font-style:normal;font-variant:normal;font-weight:normal;font-stretch:normal;line-height:125%;letter-spacing:0px;word-spacing:0px;fill:#000000;fill-opacity:1;stroke:none;font-family:Open Sans;-inkscape-font-specification:Open Sans"
       id="text12471">
      <path
         d="m 343.75226,897.64636 -4.29688,14.86719 -1.71875,0 -4.29687,-14.86719 2.0625,0 3.00781,11.25781 0.17188,0 3.00781,-11.25781 z"
         style="font-family:SimHei;-inkscape-font-specification:SimHei"
         id="path3049" />
      <path
         d="m 354.06476,912.51355 -1.46094,0 -0.25781,-1.20313 c -0.22918,0.34376 -0.58725,0.63021 -1.07422,0.85938 -0.48699,0.22917 -1.01693,0.34375 -1.58984,0.34375 -1.20313,0 -2.27735,-0.55859 -3.22266,-1.67578 -0.94531,-1.11719 -1.41797,-2.90755 -1.41797,-5.3711 0,-2.69269 0.42969,-4.6979 1.28906,-6.01562 0.85938,-1.31769 2.03385,-1.97655 3.52344,-1.97656 1.3177,1e-5 2.34895,0.48699 3.09375,1.46093 0.74478,0.97398 1.11718,2.23439 1.11719,3.78125 l -1.89063,0 c 0,-1.20311 -0.20053,-2.10545 -0.60156,-2.70703 -0.40105,-0.60155 -0.97396,-0.90233 -1.71875,-0.90234 -0.91667,10e-6 -1.60417,0.47267 -2.0625,1.41797 -0.45834,0.94532 -0.6875,2.53516 -0.6875,4.76953 0,2.1198 0.28646,3.58073 0.85938,4.38281 0.57291,0.80209 1.23176,1.20313 1.97656,1.20313 0.74478,0 1.33202,-0.27214 1.76172,-0.81641 0.42968,-0.54427 0.64452,-1.38932 0.64453,-2.53516 l 0,-0.94531 -2.66406,0 0,-1.63281 4.38281,0 z"
         style="font-family:SimHei;-inkscape-font-specification:SimHei"
         id="path3051" />
      <path
         d="m 371.08038,900.39636 c -0.74479,0.74481 -1.6901,1.46095 -2.83593,2.14844 l 0,-1.63281 c 1.43228,-0.97395 2.60676,-2.11978 3.52343,-3.4375 l 1.03125,0 0,14.78125 -1.71875,0 z"
         style="font-family:SimHei;-inkscape-font-specification:SimHei"
         id="path3053" />
    </g>
    <g
       style="font-size:22px;font-style:normal;font-variant:normal;font-weight:normal;font-stretch:normal;line-height:125%;letter-spacing:0px;word-spacing:0px;fill:#000000;fill-opacity:1;stroke:none;font-family:Open Sans;-inkscape-font-specification:Open Sans"
       id="text12475">
      <path
         d="m 513.92905,897.91882 -4.29688,14.86719 -1.71875,0 -4.29687,-14.86719 2.0625,0 3.00781,11.25782 0.17187,0 3.00782,-11.25782 z"
         style="font-family:SimHei;-inkscape-font-specification:SimHei"
         id="path3056" />
      <path
         d="m 524.24155,912.78601 -1.46094,0 -0.25781,-1.20312 c -0.22918,0.34375 -0.58725,0.6302 -1.07422,0.85937 -0.48699,0.22917 -1.01694,0.34375 -1.58985,0.34375 -1.20313,0 -2.27734,-0.55859 -3.22265,-1.67578 -0.94532,-1.11718 -1.41797,-2.90755 -1.41797,-5.37109 0,-2.6927 0.42969,-4.69791 1.28906,-6.01563 0.85937,-1.31769 2.03385,-1.97655 3.52344,-1.97656 1.3177,10e-6 2.34895,0.48699 3.09375,1.46094 0.74478,0.97397 1.11718,2.23438 1.11719,3.78125 l -1.89063,0 c -10e-6,-1.20312 -0.20053,-2.10546 -0.60156,-2.70704 -0.40105,-0.60154 -0.97397,-0.90233 -1.71875,-0.90234 -0.91667,10e-6 -1.60417,0.47267 -2.0625,1.41797 -0.45834,0.94532 -0.6875,2.53517 -0.6875,4.76953 0,2.1198 0.28645,3.58073 0.85937,4.38281 0.57292,0.80209 1.23177,1.20313 1.97657,1.20313 0.74478,0 1.33202,-0.27214 1.76172,-0.81641 0.42968,-0.54427 0.64452,-1.38932 0.64453,-2.53515 l 0,-0.94532 -2.66407,0 0,-1.63281 4.38282,0 z"
         style="font-family:SimHei;-inkscape-font-specification:SimHei"
         id="path3058" />
      <path
         d="m 537.47592,912.18445 c 0.0573,-0.85938 0.45833,-1.63281 1.20313,-2.32031 0.74479,-0.6875 1.6901,-1.76172 2.83593,-3.22266 1.14583,-1.46093 1.89062,-2.59244 2.23438,-3.39453 0.34374,-0.80207 0.47265,-1.48957 0.38672,-2.0625 -0.086,-0.57291 -0.35808,-1.04556 -0.81641,-1.41797 -0.45834,-0.37238 -0.98829,-0.52993 -1.58984,-0.47266 -0.60157,0.0573 -1.17449,0.28648 -1.71875,0.6875 -0.54428,0.40106 -0.95964,1.00262 -1.2461,1.80469 l -1.63281,-0.25781 c 0.45833,-1.3177 1.04557,-2.27733 1.76172,-2.87891 0.71614,-0.60155 1.56119,-0.93097 2.53516,-0.98828 0.57291,-0.0573 1.08853,-0.043 1.54687,0.043 0.45833,0.086 0.93098,0.28647 1.41797,0.60156 0.48697,0.31512 0.88801,0.78778 1.20313,1.41797 0.31509,0.63022 0.42967,1.38934 0.34375,2.27734 -0.086,0.88804 -0.52996,1.94793 -1.33204,3.17969 -0.80209,1.23178 -2.34896,3.16537 -4.64062,5.80078 l 6.1875,0 0,1.54688 -8.67969,0 z"
         style="font-family:SimHei;-inkscape-font-specification:SimHei"
         id="path3060" />
    </g>
    <g
       style="font-size:22px;font-style:normal;font-variant:normal;font-weight:normal;font-stretch:normal;line-height:125%;letter-spacing:0px;word-spacing:0px;fill:#000000;fill-opacity:1;stroke:none;font-family:Open Sans;-inkscape-font-specification:Open Sans"
       id="text12479">
      <path
         d="m 292.46335,962.64441 -8.9375,0 0,-14.69531 1.97656,0 0,13.0625 6.96094,0 z"
         style="font-family:SimHei;-inkscape-font-specification:SimHei"
         id="path3063" />
      <path
         d="m 303.97897,947.9491 -4.29687,14.86718 -1.71875,0 -4.29688,-14.86718 2.0625,0 3.00782,11.25781 0.17187,0 3.00781,-11.25781 z"
         style="font-family:SimHei;-inkscape-font-specification:SimHei"
         id="path3065" />
      <path
         d="m 320.3071,950.6991 c -0.7448,0.7448 -1.69011,1.46095 -2.83594,2.14843 l 0,-1.63281 c 1.43229,-0.97394 2.60677,-2.11978 3.52344,-3.4375 l 1.03125,0 0,14.78125 -1.71875,0 z"
         style="font-family:SimHei;-inkscape-font-specification:SimHei"
         id="path3067" />
    </g>
    <g
       style="font-size:22px;font-style:normal;font-variant:normal;font-weight:normal;font-stretch:normal;line-height:125%;letter-spacing:0px;word-spacing:0px;fill:#000000;fill-opacity:1;stroke:none;font-family:Open Sans;-inkscape-font-specification:Open Sans"
       id="text12483">
      <path
         d="m 396.41882,962.69519 -8.9375,0 0,-14.69531 1.97657,0 0,13.0625 6.96093,0 z"
         style="font-family:SimHei;-inkscape-font-specification:SimHei"
         id="path3070" />
      <path
         d="m 407.93445,947.99988 -4.29688,14.86719 -1.71875,0 -4.29687,-14.86719 2.0625,0 3.00781,11.25781 0.17188,0 3.00781,-11.25781 z"
         style="font-family:SimHei;-inkscape-font-specification:SimHei"
         id="path3072" />
      <path
         d="m 420.48132,962.2655 c 0.0573,-0.85937 0.45834,-1.63281 1.20313,-2.32031 0.74479,-0.6875 1.6901,-1.76171 2.83594,-3.22266 1.14582,-1.46093 1.89061,-2.59243 2.23437,-3.39453 0.34374,-0.80207 0.47265,-1.48957 0.38672,-2.0625 -0.086,-0.5729 -0.35808,-1.04556 -0.81641,-1.41797 -0.45834,-0.37238 -0.98828,-0.52993 -1.58984,-0.47265 -0.60157,0.0573 -1.17448,0.28647 -1.71875,0.6875 -0.54427,0.40105 -0.95964,1.00261 -1.24609,1.80469 l -1.63282,-0.25782 c 0.45834,-1.31769 1.04557,-2.27733 1.76172,-2.8789 0.71614,-0.60155 1.5612,-0.93098 2.53516,-0.98828 0.57291,-0.0573 1.08853,-0.043 1.54687,0.043 0.45833,0.086 0.93099,0.28648 1.41797,0.60157 0.48697,0.31512 0.88801,0.78777 1.20313,1.41797 0.31509,0.63022 0.42967,1.38933 0.34375,2.27734 -0.0859,0.88803 -0.52996,1.94792 -1.33203,3.17969 -0.80209,1.23177 -2.34897,3.16537 -4.64063,5.80078 l 6.1875,0 0,1.54687 -8.67969,0 z"
         style="font-family:SimHei;-inkscape-font-specification:SimHei"
         id="path3074" />
    </g>
    <g
       style="font-size:22px;font-style:normal;font-variant:normal;font-weight:normal;font-stretch:normal;line-height:125%;letter-spacing:0px;word-spacing:0px;fill:#000000;fill-opacity:1;stroke:none;font-family:Open Sans;-inkscape-font-specification:Open Sans"
       id="text12487">
      <path
         d="m 482.34729,962.57898 -8.9375,0 0,-14.69531 1.97656,0 0,13.0625 6.96094,0 z"
         style="font-family:SimHei;-inkscape-font-specification:SimHei"
         id="path3077" />
      <path
         d="m 493.86292,947.88367 -4.29688,14.86718 -1.71875,0 -4.29687,-14.86718 2.0625,0 3.00781,11.25781 0.17187,0 3.00782,-11.25781 z"
         style="font-family:SimHei;-inkscape-font-specification:SimHei"
         id="path3079" />
      <path
         d="m 506.23792,958.79773 1.54687,-0.25781 c 0.22916,0.74479 0.60156,1.36068 1.11719,1.84765 0.51562,0.48698 1.16015,0.71615 1.93359,0.6875 0.77343,-0.0286 1.38932,-0.34374 1.84766,-0.94531 0.45832,-0.60156 0.65884,-1.28906 0.60156,-2.0625 -0.0573,-0.77343 -0.35808,-1.37499 -0.90234,-1.80469 -0.54428,-0.42968 -1.41798,-0.73046 -2.6211,-0.90234 l 0,-1.11719 c 1.20312,-0.11457 2.07682,-0.42968 2.6211,-0.94531 0.54426,-0.51562 0.78775,-1.18879 0.73047,-2.01953 -0.0573,-0.83072 -0.4297,-1.43228 -1.11719,-1.80469 -0.68751,-0.37238 -1.41798,-0.41535 -2.19141,-0.12891 -0.77344,0.28648 -1.38932,1.08856 -1.84765,2.40625 l -1.54688,-0.25781 c 0.34375,-1.03124 0.8164,-1.89061 1.41797,-2.57812 0.60156,-0.68749 1.41796,-1.08853 2.44922,-1.20313 1.03124,-0.11457 1.93358,0.0143 2.70703,0.38672 0.77343,0.37241 1.3177,0.94533 1.63281,1.71875 0.3151,0.77345 0.35806,1.6185 0.12891,2.53516 -0.22918,0.91667 -0.88803,1.71876 -1.97656,2.40625 0.80207,0.34375 1.41795,0.85938 1.84765,1.54687 0.42968,0.68751 0.57291,1.58985 0.42969,2.70703 -0.14324,1.11719 -0.64454,2.01954 -1.50391,2.70703 -0.85938,0.68751 -1.83334,1.01693 -2.92187,0.98829 -1.08855,-0.0286 -2.03386,-0.3724 -2.83594,-1.03125 -0.80208,-0.65886 -1.31771,-1.61849 -1.54687,-2.87891 z"
         style="font-family:SimHei;-inkscape-font-specification:SimHei"
         id="path3081" />
    </g>
    <g
       style="font-size:22px;font-style:normal;font-variant:normal;font-weight:normal;font-stretch:normal;line-height:125%;letter-spacing:0px;word-spacing:0px;fill:#000000;fill-opacity:1;stroke:none;font-family:Open Sans;-inkscape-font-specification:Open Sans"
       id="text11876-49-2">
      <path
         d="m 550.16357,962.43347 -8.9375,0 0,-14.69531 1.97657,0 0,13.0625 6.96093,0 z"
         style="font-family:SimHei;-inkscape-font-specification:SimHei"
         id="path3176" />
      <path
         d="m 561.6792,947.73816 -4.29688,14.86719 -1.71875,0 -4.29687,-14.86719 2.0625,0 3.00781,11.25781 0.17188,0 3.00781,-11.25781 z"
         style="font-family:SimHei;-inkscape-font-specification:SimHei"
         id="path3178" />
      <path
         d="m 580.06982,959.08191 -6.61718,0 0,-1.46094 6.96093,-10.05469 1.28907,0 0,10.05469 2.0625,0 0,1.46094 -2.0625,0 0,3.26562 -1.63282,0 z m 0,-1.46094 0,-6.78906 -4.8125,6.78906 z"
         style="font-family:SimHei;-inkscape-font-specification:SimHei"
         id="path3180" />
    </g>
  </g>
</svg>
