<?xml version="1.0" encoding="UTF-8" standalone="no"?>
<svg
   xmlns:dc="http://purl.org/dc/elements/1.1/"
   xmlns:cc="http://creativecommons.org/ns#"
   xmlns:rdf="http://www.w3.org/1999/02/22-rdf-syntax-ns#"
   xmlns:svg="http://www.w3.org/2000/svg"
   xmlns="http://www.w3.org/2000/svg"
   xmlns:sodipodi="http://sodipodi.sourceforge.net/DTD/sodipodi-0.dtd"
   xmlns:inkscape="http://www.inkscape.org/namespaces/inkscape"
   id="svg2"
   height="200"
   width="900"
   version="1.2"
   inkscape:version="0.48.1 "
   sodipodi:docname="net_basic_tcppacket.svg">
  <sodipodi:namedview
     pagecolor="#ffffff"
     bordercolor="#666666"
     borderopacity="1"
     objecttolerance="10"
     gridtolerance="10"
     guidetolerance="10"
     inkscape:pageopacity="0"
     inkscape:pageshadow="2"
     inkscape:window-width="1920"
     inkscape:window-height="1033"
     id="namedview117"
     showgrid="false"
     inkscape:zoom="1.72"
     inkscape:cx="346.97927"
     inkscape:cy="100"
     inkscape:window-x="-4"
     inkscape:window-y="-4"
     inkscape:window-maximized="1"
     inkscape:current-layer="text3094" />
  <defs
     id="defs4" />
  <metadata
     id="metadata7">
    <rdf:RDF>
      <cc:Work
         rdf:about="">
        <dc:format>image/svg+xml</dc:format>
        <dc:type
           rdf:resource="http://purl.org/dc/dcmitype/StillImage" />
        <dc:title />
      </cc:Work>
    </rdf:RDF>
  </metadata>
  <g
     id="g3222"
     transform="translate(601,-466.8125)">
    <rect
       style="fill:#02d35f;fill-opacity:1;fill-rule:nonzero;stroke:none"
       id="rect4438"
       y="486.8125"
       x="-581"
       ry="10"
       rx="10"
       height="160"
       width="860" />
    <rect
       style="color:#000000;fill:#71d6e0;fill-opacity:1;fill-rule:nonzero;stroke:#ffffff;stroke-width:0;stroke-miterlimit:4;stroke-opacity:1;stroke-dasharray:none;marker:none;visibility:visible;display:inline;overflow:visible;enable-background:accumulate"
       id="rect6978-9-64-0-1-5-7"
       y="486.8125"
       x="-481"
       height="160"
       width="130" />
    <rect
       style="color:#000000;fill:#ffef8d;fill-opacity:1;fill-rule:nonzero;stroke:#ffffff;stroke-width:0;stroke-miterlimit:4;stroke-opacity:1;stroke-dasharray:none;marker:none;visibility:visible;display:inline;overflow:visible;enable-background:accumulate"
       id="rect6978-9-64-0-1-5-7-5"
       y="486.8125"
       x="-351"
       ry="0"
       height="160"
       width="130.00003" />
    <rect
       style="color:#000000;fill:#dcddde;fill-opacity:1;fill-rule:nonzero;stroke:#ffffff;stroke-width:0;stroke-miterlimit:4;stroke-opacity:1;stroke-dasharray:none;marker:none;visibility:visible;display:inline;overflow:visible;enable-background:accumulate"
       id="rect6978-9-64-0-1-5-7-5-2"
       y="486.8125"
       x="-221"
       height="160"
       width="399.99982" />
    <g
       style="font-size:22px;font-style:normal;font-weight:normal;text-align:center;line-height:125%;letter-spacing:0px;word-spacing:0px;text-anchor:middle;fill:#000000;fill-opacity:1;stroke:none;font-family:Sans"
       id="text3094">
      <path
         d="m -561.11938,547.42145 c -0.23439,0.60939 -0.45705,2.01563 -0.66797,4.21875 -0.21096,2.20313 -0.66799,4.00782 -1.3711,5.41406 1.92186,1.875 3.23436,3.28125 3.9375,4.21875 -0.42189,0.28125 -0.84376,0.60937 -1.26562,0.98438 -0.84377,-1.21875 -2.01564,-2.53125 -3.51563,-3.9375 -1.82813,2.01562 -3.86719,3.51562 -6.11718,4.5 -0.46876,-0.70313 -0.84376,-1.17188 -1.125,-1.40625 2.01561,-0.60938 3.72655,-1.59375 5.13281,-2.95313 1.40624,-1.35937 2.27342,-3.19921 2.60156,-5.51953 0.32811,-2.3203 0.46874,-4.30077 0.42188,-5.94141 0.79686,0.18752 1.45311,0.32814 1.96875,0.42188 z m -7.73438,7.38281 c 0.32812,0.51563 0.67968,0.96094 1.05469,1.33594 -1.54688,1.17188 -3.42188,2.90625 -5.625,5.20312 -0.42188,-0.46875 -0.77344,-0.82031 -1.05469,-1.05468 0.375,-0.46875 0.5625,-0.98438 0.5625,-1.54688 l 0,-7.80469 c 0,-0.70311 -0.0234,-1.47655 -0.0703,-2.32031 l 1.61719,0 c -0.0469,0.32814 -0.0703,0.8672 -0.0703,1.61719 l 0,8.15625 c 1.35937,-1.21875 2.55468,-2.41406 3.58594,-3.58594 z m -0.5625,-8.08594 c 0.51562,0.56252 1.05468,1.18361 1.61719,1.86328 0.56249,0.6797 1.1953,1.51173 1.89844,2.4961 -0.42189,0.28126 -0.84376,0.60938 -1.26563,0.98437 -0.60938,-1.07811 -1.73438,-2.55467 -3.375,-4.42968 0.37499,-0.23437 0.74999,-0.53905 1.125,-0.91407 z"
         style="font-size:18px;font-variant:normal;font-stretch:normal;font-family:SimHei;-inkscape-font-specification:SimHei"
         id="path3104" />
      <path
         d="m -550.57251,551.00739 c 0.0937,-1.78124 0.11718,-3.37499 0.0703,-4.78125 0.37499,0.0938 1.03124,0.16407 1.96875,0.21093 -0.14063,0.37502 -0.2461,1.01955 -0.3164,1.9336 -0.0703,0.91407 -0.10548,1.79298 -0.10547,2.63672 l 4.21875,0 c 0.93748,10e-6 1.82811,-0.0234 2.67187,-0.0703 l 0,1.40625 c -0.84376,-0.0469 -1.75782,-0.0703 -2.74218,-0.0703 l -3.79688,0 c 0.51562,1.92188 1.4414,3.65626 2.77734,5.20313 1.33593,1.54687 2.87108,2.64843 4.60547,3.30468 -0.51564,0.46875 -0.89064,0.9375 -1.125,1.40625 -2.06251,-1.17187 -3.66798,-2.50781 -4.8164,-4.00781 -1.14845,-1.5 -1.91017,-2.92968 -2.28516,-4.28906 -0.70313,2.29688 -1.79298,4.14844 -3.26953,5.55469 -1.47657,1.40625 -2.77735,2.36718 -3.90234,2.88281 -0.23438,-0.32813 -0.58594,-0.70313 -1.05469,-1.125 1.45312,-0.5625 2.91796,-1.61719 4.39453,-3.16406 1.47655,-1.54688 2.35546,-3.46875 2.63672,-5.76563 l -3.58594,0 c -0.98438,10e-6 -1.875,0.0235 -2.67187,0.0703 l 0,-1.40625 c 0.84374,0.0469 1.73437,0.0703 2.67187,0.0703 z m -0.70312,7.24218 c 1.03124,0.9375 1.92186,1.92188 2.67187,2.95313 -0.46876,0.28125 -0.84376,0.58593 -1.125,0.91406 -0.89063,-1.17187 -1.75782,-2.10937 -2.60156,-2.8125 0.37499,-0.32812 0.72655,-0.67969 1.05469,-1.05469 z"
         style="font-size:18px;font-variant:normal;font-stretch:normal;font-family:SimHei;-inkscape-font-specification:SimHei"
         id="path3106" />
      <path
         d="m -523.78345,547.06989 c -0.0938,0.60938 -0.14064,1.47657 -0.14062,2.60156 l 0,11.17969 c -2e-5,0.74999 -0.26955,1.18359 -0.8086,1.30078 -0.53907,0.11718 -1.25392,0.24609 -2.14453,0.38672 -0.0938,-0.46876 -0.32814,-0.98438 -0.70312,-1.54688 0.93748,0.0469 1.54686,0.0234 1.82812,-0.0703 0.28124,-0.0937 0.42186,-0.35156 0.42188,-0.77344 l 0,-11.88281 -11.88281,0 0,14.27344 -1.54688,0 c 0.0937,-0.93751 0.14062,-1.73438 0.14063,-2.39063 l 0,-10.47656 c -10e-6,-0.74999 -0.0469,-1.61718 -0.14063,-2.60156 l 14.97656,0 z m -6.1875,3.86718 c 0.70312,1.35939 1.17187,2.22657 1.40625,2.60157 0.56249,-1.92187 0.91405,-3.28124 1.05469,-4.07813 0.51561,0.28126 1.03124,0.53907 1.54688,0.77344 -0.23439,0.32813 -0.49221,0.91407 -0.77344,1.75781 -0.28127,0.84376 -0.63283,1.82813 -1.05469,2.95313 0.51561,0.98438 1.14842,2.13281 1.89844,3.44531 -0.51564,0.14063 -0.98439,0.32812 -1.40625,0.5625 l -1.26563,-2.53125 c -0.32813,0.65625 -0.65626,1.23047 -0.98437,1.72265 -0.32814,0.49219 -0.77345,1.11329 -1.33594,1.86329 -0.32813,-0.375 -0.79688,-0.63282 -1.40625,-0.77344 0.42187,-0.42188 0.8789,-0.9375 1.37109,-1.54688 0.49218,-0.60937 1.04296,-1.49999 1.65235,-2.67187 -0.65626,-1.35937 -1.33595,-2.50781 -2.03906,-3.44531 0.37499,-0.14062 0.8203,-0.35156 1.33593,-0.63282 z m -5.48437,-0.77343 c 0.28124,0.51563 0.57421,1.04297 0.8789,1.58203 0.30469,0.53907 0.62109,1.06641 0.94922,1.58203 0.5625,-1.87499 0.89062,-3.16405 0.98438,-3.86719 0.51561,0.18751 1.07811,0.37501 1.6875,0.5625 -0.28126,0.32814 -0.53907,0.83204 -0.77344,1.51172 -0.23438,0.6797 -0.60938,1.72266 -1.125,3.12891 0.42187,0.65625 0.93749,1.5 1.54688,2.53125 -0.46876,0.28125 -0.8672,0.58594 -1.19532,0.91406 -0.46875,-0.98437 -0.82032,-1.66406 -1.05468,-2.03906 -0.84376,1.73437 -1.59376,3.02343 -2.25,3.86718 -0.37501,-0.32812 -0.77345,-0.5625 -1.19532,-0.70312 0.75,-0.79687 1.66406,-2.29687 2.74219,-4.5 -1.125,-2.01562 -1.96875,-3.35156 -2.53125,-4.00781 0.42187,-0.18749 0.86718,-0.37499 1.33594,-0.5625 z"
         style="font-size:18px;font-variant:normal;font-stretch:normal;font-family:SimHei;-inkscape-font-specification:SimHei"
         id="path3108" />
      <path
         d="m -512.8147,562.39801 -1.33593,0 c 0.0469,-1.125 0.0703,-2.29687 0.0703,-3.51562 l 0,-8.36719 c -10e-6,-1.26562 -0.0235,-2.41405 -0.0703,-3.44531 l 7.38281,0 c -2e-5,1.35938 -0.0703,2.62501 -0.21094,3.79687 -0.14064,0.56251 -0.38673,0.94923 -0.73828,1.16016 -0.35158,0.21094 -1.20705,0.36329 -2.56641,0.45703 -0.0938,-0.56249 -0.23438,-1.03124 -0.42187,-1.40625 1.31248,0.0469 2.06248,-0.0469 2.25,-0.28125 0.18748,-0.23437 0.28123,-1.07812 0.28125,-2.53125 l -4.64063,0 0,4.78125 6.60938,0 c -0.0469,0.37501 -0.25783,1.16016 -0.63281,2.35547 -0.37502,1.19531 -0.89064,2.33203 -1.54688,3.41015 0.98436,1.03125 2.15623,1.875 3.51563,2.53125 -0.32815,0.32813 -0.70315,0.72656 -1.125,1.19532 -1.59377,-1.07813 -2.64846,-1.96875 -3.16407,-2.67188 -0.60938,0.84375 -1.52345,1.73437 -2.74218,2.67188 -0.14064,-0.37501 -0.42189,-0.75001 -0.84375,-1.125 1.03123,-0.60938 1.89842,-1.40625 2.60156,-2.39063 -1.03126,-1.64062 -1.73439,-3.25781 -2.10938,-4.85156 l -0.5625,0.0703 z m -5.48437,-12.23437 c -10e-6,-1.68749 -0.0234,-3.02343 -0.0703,-4.00782 l 1.40625,0 c -0.0469,0.89064 -0.0703,2.22658 -0.0703,4.00782 0.75,10e-6 1.52343,-0.0234 2.32032,-0.0703 l 0,1.33594 c -1.03126,-0.0469 -1.8047,-0.0703 -2.32032,-0.0703 l 0,2.88281 c 0.75,-0.23437 1.5,-0.49218 2.25,-0.77344 -0.0469,0.37501 -0.0469,0.79688 0,1.26563 -0.70313,0.1875 -1.45313,0.42188 -2.25,0.70312 l 0,4.92188 c 0,0.79687 -0.19922,1.32422 -0.59765,1.58203 -0.39845,0.25781 -1.11329,0.45703 -2.14453,0.59766 -0.14063,-0.56251 -0.37501,-1.03126 -0.70313,-1.40625 0.84375,-10e-6 1.41797,-0.0586 1.72266,-0.17579 0.30468,-0.11718 0.45702,-0.38671 0.45703,-0.80859 l 0,-4.28906 c -1.54688,0.51563 -2.46094,0.86719 -2.74219,1.05469 -0.23438,-0.60938 -0.46875,-1.125 -0.70312,-1.54688 0.84374,-0.14062 1.99218,-0.42187 3.44531,-0.84375 l 0,-3.16406 c -1.12501,10e-6 -2.10938,0.0234 -2.95313,0.0703 l 0,-1.33594 c 0.70313,0.0469 1.6875,0.0703 2.95313,0.0703 z m 7.3125,4.07812 c 0.46874,1.54688 1.03124,2.71875 1.6875,3.51563 0.60936,-0.9375 1.05467,-2.10937 1.33594,-3.51563 l -3.02344,0 z"
         style="font-size:18px;font-variant:normal;font-stretch:normal;font-family:SimHei;-inkscape-font-specification:SimHei"
         id="path3110" />
      <path
         d="m -492.5647,546.50739 c -0.32813,0.65626 -0.4922,1.59376 -0.49218,2.8125 -2e-5,1.17188 -0.1172,3 -0.35157,5.48437 l 3.23438,0 c 0.89061,10e-6 1.89842,-0.0234 3.02344,-0.0703 l 0,1.47656 c -1.12502,-0.0469 -2.08596,-0.0703 -2.88282,-0.0703 l -3.65625,0 c -0.51563,1.3125 -1.17188,2.34375 -1.96875,3.09375 -0.79688,0.75 -1.65235,1.39453 -2.5664,1.93359 -0.91407,0.53906 -2.05079,1.08984 -3.41016,1.65235 -0.23438,-0.46876 -0.65625,-0.89063 -1.26562,-1.26563 1.17187,-0.14063 2.62499,-0.72656 4.35937,-1.75781 1.73437,-1.03125 2.85937,-2.25 3.375,-3.65625 l -5.13281,0 c -0.93751,0 -1.92188,0.0234 -2.95313,0.0703 l 0,-1.47656 c 1.03125,0.0469 1.875,0.0703 2.53125,0.0703 l 5.97657,0 c 0.0937,-0.79687 0.17577,-1.82812 0.24609,-3.09375 0.0703,-1.26561 0.10546,-3.09374 0.10547,-5.48437 0.51561,0.0938 1.12499,0.18751 1.82812,0.28125 z m -0.35156,11.10937 c 0.84374,0.46875 1.71092,1.00781 2.60156,1.61719 0.89061,0.60937 1.85155,1.26562 2.88282,1.96875 -0.32815,0.23437 -0.65627,0.63281 -0.98438,1.19531 -0.84376,-0.60938 -1.68751,-1.23047 -2.53125,-1.86328 -0.84376,-0.63281 -1.78126,-1.23047 -2.8125,-1.79297 0.23436,-0.28125 0.51561,-0.65625 0.84375,-1.125 z m -8.64844,-7.03125 c 1.64062,0.89063 2.90625,1.64063 3.79688,2.25 -0.42188,0.37501 -0.77345,0.79688 -1.05469,1.26563 -0.42188,-0.46875 -1.64063,-1.26562 -3.65625,-2.39063 0.375,-0.37499 0.67969,-0.74999 0.91406,-1.125 z m 1.89844,-3.51562 c 1.35937,0.79688 2.62499,1.59376 3.79688,2.39062 -0.37501,0.28126 -0.70314,0.6797 -0.98438,1.19531 -0.93751,-0.79686 -2.15626,-1.64061 -3.65625,-2.53125 0.32812,-0.32811 0.60937,-0.67967 0.84375,-1.05468 z"
         style="font-size:18px;font-variant:normal;font-stretch:normal;font-family:SimHei;-inkscape-font-specification:SimHei"
         id="path3112" />
      <path
         d="m -564.5647,571.00739 0.77344,0.91406 c -2.67189,1.96876 -3.96095,4.24219 -3.86719,6.82031 0.0469,2.48438 1.31249,4.64063 3.79688,6.46875 l -0.77344,0.91406 c -2.85939,-2.0625 -4.2422,-4.66406 -4.14844,-7.80468 -10e-6,-2.57812 1.40624,-5.01562 4.21875,-7.3125 z"
         style="font-style:normal;font-variant:normal;font-weight:normal;font-stretch:normal;font-family:SimHei;-inkscape-font-specification:SimHei"
         id="path3114"
         inkscape:connector-curvature="0" />
      <path
         d="m -555.11646,585.35114 -1.58203,0 0,-10.08106 c -0.38086,0.36329 -0.88037,0.72657 -1.49853,1.08984 -0.61817,0.36329 -1.17334,0.63575 -1.66553,0.81739 l 0,-1.5293 c 0.88476,-0.41601 1.6582,-0.91991 2.32031,-1.51172 0.66211,-0.59178 1.13086,-1.166 1.40625,-1.72265 l 1.01953,0 z"
         style="font-size:18px"
         id="path3116"
         inkscape:connector-curvature="0" />
      <path
         d="m -545.98462,585.35114 0,-3.08497 -5.58984,0 0,-1.45019 5.87988,-8.34961 1.29199,0 0,8.34961 1.74024,0 0,1.45019 -1.74024,0 0,3.08497 z m 0,-4.53516 0,-5.80957 -4.03418,5.80957 z"
         style="font-size:18px"
         id="path3118"
         inkscape:connector-curvature="0" />
      <path
         d="m -522.79907,576.06989 0,1.26562 c -0.37502,0.18751 -0.91408,0.4922 -1.61719,0.91406 -0.70314,0.42188 -1.50001,0.96095 -2.39062,1.61719 l 0,0.63281 4.78125,0 c 0.46873,1e-5 1.21873,-0.0234 2.25,-0.0703 l 0,1.40625 c -1.03127,-0.0937 -1.78127,-0.14062 -2.25,-0.14062 l -4.78125,0 0,3.58593 c -0.0469,0.9375 -0.35158,1.47656 -0.91407,1.61719 -0.56251,0.14062 -1.38282,0.25781 -2.46093,0.35156 -0.0469,-0.46875 -0.21095,-1.03125 -0.49219,-1.6875 1.07812,0.0937 1.7578,0.10547 2.03906,0.0352 0.28124,-0.0703 0.39843,-0.38672 0.35156,-0.94922 l 0,-2.95312 -4.92187,0 c -0.75001,0 -1.47657,0.0234 -2.17969,0.0703 l 0,-1.33594 c 0.70312,0.0469 1.40625,0.0703 2.10938,0.0703 l 4.99218,0 c -10e-6,-0.42187 -0.0469,-0.8203 -0.14062,-1.19531 0.42186,-0.18749 0.89061,-0.44531 1.40625,-0.77344 0.51561,-0.32812 1.14842,-0.74999 1.89844,-1.26562 l -5.48438,0 c -0.84376,10e-6 -1.54688,0.0234 -2.10937,0.0703 l 0,-1.33594 c 0.56249,0.0469 1.24218,0.0703 2.03906,0.0703 z m -5.625,-5.48438 c 0.89061,1.17189 1.42968,1.92189 1.61719,2.25 l 6.39843,0 c -0.0469,0.70314 -0.0703,1.2422 -0.0703,1.61719 -2e-5,0.32813 0.0234,0.79688 0.0703,1.40625 l -1.40625,0 0,-1.89844 -11.74218,0 0,1.96875 -1.40625,0 c 0.0469,-0.65624 0.0703,-1.17186 0.0703,-1.54687 0,-0.37499 -0.0234,-0.89062 -0.0703,-1.54688 l 6.53906,0 c -0.32814,-0.51561 -0.72657,-0.98436 -1.19531,-1.40625 0.37499,-0.23436 0.77342,-0.51561 1.19531,-0.84375 z"
         style="font-style:normal;font-variant:normal;font-weight:normal;font-stretch:normal;font-family:SimHei;-inkscape-font-specification:SimHei"
         id="path3120"
         inkscape:connector-curvature="0" />
      <path
         d="m -506.97876,584.78864 c -0.0938,-0.5625 -0.32814,-1.125 -0.70312,-1.6875 0.93748,0 1.65233,-0.0469 2.14453,-0.14063 0.49217,-0.0937 0.7617,-0.375 0.80859,-0.84375 l 0.14063,-3.79687 -5.97657,0 0,6.11718 c -10e-6,0.84375 0.0234,1.71094 0.0703,2.60157 l -1.61719,0 c 0.0937,-0.84376 0.14062,-1.71094 0.14062,-2.60157 l 0,-6.11718 -1.54687,0 c -1.54688,0 -2.78907,0.0234 -3.72656,0.0703 l 0,-1.33594 c 0.98437,0.0469 1.99218,0.0703 3.02343,0.0703 l 11.25,0 c -0.14064,1.96876 -0.23439,3.56251 -0.28125,4.78125 -0.0469,1.21875 -0.39845,1.98047 -1.05468,2.28516 -0.65627,0.30469 -1.54689,0.50391 -2.67188,0.59766 z m -4.85156,-10.54688 c -1e-5,0.84376 0.0234,1.57032 0.0703,2.17969 l -1.54687,0 c 0.0469,-0.70312 0.0703,-1.42968 0.0703,-2.17969 l -2.39063,0 c -0.65625,10e-6 -1.38281,0.0469 -2.17968,0.14063 l 0,-1.40625 c 0.79687,0.0469 1.52343,0.0703 2.17968,0.0703 l 2.39063,0 c -10e-6,-0.89061 -0.0235,-1.64061 -0.0703,-2.25 l 1.54687,0 c -0.0469,0.60939 -0.0703,1.35939 -0.0703,2.25 l 3.72656,0 c -10e-6,-0.93749 -0.0234,-1.68749 -0.0703,-2.25 l 1.61719,0 c -0.0469,0.56251 -0.0703,1.31251 -0.0703,2.25 l 2.25,0 c 0.89061,1e-5 1.71092,-0.0234 2.46094,-0.0703 l 0,1.33593 c -0.75002,-0.0469 -1.57033,-0.0703 -2.46094,-0.0703 l -2.25,0 c -1e-5,0.75001 0.0234,1.47657 0.0703,2.17969 l -1.61719,0 c 0.0469,-0.74999 0.0703,-1.47655 0.0703,-2.17969 z"
         style="font-style:normal;font-variant:normal;font-weight:normal;font-stretch:normal;font-family:SimHei;-inkscape-font-specification:SimHei"
         id="path3122"
         inkscape:connector-curvature="0" />
      <path
         d="m -497.97876,571.00739 c 2.81249,2.29688 4.21874,4.73438 4.21875,7.3125 0.0937,3.14062 -1.28907,5.74218 -4.14844,7.80468 l -0.77343,-0.91406 c 2.48437,-1.82812 3.74999,-3.98437 3.79687,-6.46875 0.0937,-2.57812 -1.19532,-4.85155 -3.86719,-6.82031 l 0.77344,-0.91406 z"
         style="font-style:normal;font-variant:normal;font-weight:normal;font-stretch:normal;font-family:SimHei;-inkscape-font-specification:SimHei"
         id="path3124"
         inkscape:connector-curvature="0" />
    </g>
    <g
       style="font-size:22px;font-style:normal;font-weight:normal;text-align:center;line-height:125%;letter-spacing:0px;word-spacing:0px;text-anchor:middle;fill:#000000;fill-opacity:1;stroke:none;font-family:Sans"
       id="text3094-1">
      <path
         d="m -442.04883,560.00427 0,-12.88476 1.70508,0 0,12.88476 z"
         style="font-size:18px"
         id="path3083" />
      <path
         d="m -437.34668,560.00427 0,-12.88476 4.86035,0 c 0.85546,10e-6 1.50878,0.041 1.95996,0.12304 0.63281,0.10549 1.16308,0.30617 1.59082,0.60205 0.42773,0.29591 0.77197,0.71047 1.03272,1.24366 0.26073,0.53321 0.3911,1.11915 0.39111,1.75781 -10e-6,1.09571 -0.34864,2.02296 -1.0459,2.78174 -0.69727,0.75879 -1.95704,1.13819 -3.77929,1.13818 l -3.30469,0 0,5.23828 z m 1.70508,-6.75879 3.33105,0 c 1.10156,10e-6 1.88378,-0.20507 2.34668,-0.61523 0.46288,-0.41015 0.69433,-0.9873 0.69434,-1.73145 -1e-5,-0.53905 -0.13624,-1.00047 -0.40869,-1.38427 -0.27247,-0.38378 -0.63136,-0.6372 -1.07666,-0.76026 -0.28712,-0.0762 -0.81739,-0.11424 -1.59082,-0.11426 l -3.2959,0 z"
         style="font-size:18px"
         id="path3085" />
      <path
         d="m -412.22754,561.55115 -1.33594,0 c 0.0469,-1.125 0.0703,-2.29688 0.0703,-3.51563 l 0,-8.36719 c -1e-5,-1.26561 -0.0235,-2.41404 -0.0703,-3.44531 l 7.38282,0 c -2e-5,1.35939 -0.0703,2.62501 -0.21094,3.79688 -0.14064,0.56251 -0.38674,0.94923 -0.73828,1.16015 -0.35158,0.21095 -1.20705,0.36329 -2.56641,0.45703 -0.0938,-0.56249 -0.23439,-1.03124 -0.42187,-1.40625 1.31248,0.0469 2.06248,-0.0469 2.25,-0.28125 0.18748,-0.23436 0.28123,-1.07811 0.28125,-2.53125 l -4.64063,0 0,4.78125 6.60938,0 c -0.0469,0.37501 -0.25783,1.16017 -0.63282,2.35547 -0.37501,1.19532 -0.89064,2.33204 -1.54687,3.41016 0.98436,1.03125 2.15623,1.875 3.51562,2.53125 -0.32814,0.32812 -0.70314,0.72656 -1.125,1.19531 -1.59376,-1.07812 -2.64845,-1.96875 -3.16406,-2.67187 -0.60939,0.84375 -1.52345,1.73437 -2.74219,2.67187 -0.14063,-0.375 -0.42188,-0.75 -0.84375,-1.125 1.03124,-0.60937 1.89843,-1.40625 2.60157,-2.39062 -1.03127,-1.64062 -1.73439,-3.25781 -2.10938,-4.85157 l -0.5625,0.0703 z m -5.48437,-12.23438 c -1e-5,-1.68749 -0.0235,-3.02342 -0.0703,-4.00781 l 1.40625,0 c -0.0469,0.89064 -0.0703,2.22657 -0.0703,4.00781 0.74999,10e-6 1.52343,-0.0234 2.32031,-0.0703 l 0,1.33594 c -1.03125,-0.0469 -1.80469,-0.0703 -2.32031,-0.0703 l 0,2.88282 c 0.74999,-0.23437 1.49999,-0.49218 2.25,-0.77344 -0.0469,0.37501 -0.0469,0.79688 0,1.26562 -0.70313,0.18751 -1.45313,0.42189 -2.25,0.70313 l 0,4.92187 c 0,0.79688 -0.19922,1.32422 -0.59766,1.58204 -0.39844,0.25781 -1.11328,0.45703 -2.14453,0.59765 -0.14062,-0.5625 -0.375,-1.03125 -0.70312,-1.40625 0.84375,0 1.41796,-0.0586 1.72265,-0.17578 0.30469,-0.11719 0.45703,-0.38672 0.45704,-0.80859 l 0,-4.28907 c -1.54688,0.51563 -2.46094,0.8672 -2.74219,1.05469 -0.23438,-0.60937 -0.46875,-1.12499 -0.70313,-1.54687 0.84375,-0.14062 1.99219,-0.42187 3.44532,-0.84375 l 0,-3.16407 c -1.12501,10e-6 -2.10938,0.0235 -2.95313,0.0703 l 0,-1.33594 c 0.70312,0.0469 1.6875,0.0703 2.95313,0.0703 z m 7.3125,4.07813 c 0.46873,1.54688 1.03123,2.71875 1.6875,3.51562 0.60936,-0.93749 1.05467,-2.10937 1.33593,-3.51562 l -3.02343,0 z"
         style="font-style:normal;font-variant:normal;font-weight:normal;font-stretch:normal;font-family:SimHei;-inkscape-font-specification:SimHei"
         id="path3087" />
      <path
         d="m -391.97754,545.66052 c -0.32814,0.65627 -0.4922,1.59377 -0.49219,2.8125 -10e-6,1.17189 -0.1172,3.00001 -0.35156,5.48438 l 3.23438,0 c 0.89061,0 1.89842,-0.0234 3.02343,-0.0703 l 0,1.47657 c -1.12501,-0.0469 -2.08595,-0.0703 -2.88281,-0.0703 l -3.65625,0 c -0.51563,1.31251 -1.17188,2.34376 -1.96875,3.09375 -0.79688,0.75001 -1.65235,1.39454 -2.56641,1.9336 -0.91406,0.53906 -2.05078,1.08984 -3.41015,1.65234 -0.23438,-0.46875 -0.65625,-0.89062 -1.26563,-1.26562 1.17188,-0.14063 2.625,-0.72657 4.35938,-1.75782 1.73437,-1.03124 2.85936,-2.24999 3.375,-3.65625 l -5.13281,0 c -0.93751,10e-6 -1.92188,0.0235 -2.95313,0.0703 l 0,-1.47657 c 1.03125,0.0469 1.875,0.0703 2.53125,0.0703 l 5.97656,0 c 0.0937,-0.79687 0.17577,-1.82812 0.2461,-3.09375 0.0703,-1.26562 0.10546,-3.09374 0.10547,-5.48438 0.51561,0.0938 1.12498,0.18752 1.82812,0.28125 z m -0.35156,11.10938 c 0.84374,0.46875 1.71092,1.00781 2.60156,1.61718 0.89061,0.60938 1.85155,1.26563 2.88281,1.96875 -0.32814,0.23438 -0.65626,0.63282 -0.98437,1.19532 -0.84377,-0.60938 -1.68752,-1.23047 -2.53125,-1.86328 -0.84376,-0.63282 -1.78126,-1.23047 -2.8125,-1.79297 0.23436,-0.28125 0.51561,-0.65625 0.84375,-1.125 z m -8.64844,-7.03125 c 1.64062,0.89063 2.90625,1.64063 3.79688,2.25 -0.42189,0.37501 -0.77345,0.79688 -1.05469,1.26562 -0.42188,-0.46874 -1.64063,-1.26561 -3.65625,-2.39062 0.375,-0.37499 0.67968,-0.74999 0.91406,-1.125 z m 1.89844,-3.51563 c 1.35937,0.79689 2.62499,1.59376 3.79687,2.39063 -0.375,0.28126 -0.70313,0.6797 -0.98437,1.19531 -0.93751,-0.79686 -2.15626,-1.64061 -3.65625,-2.53125 0.32812,-0.32811 0.60937,-0.67967 0.84375,-1.05469 z"
         style="font-style:normal;font-variant:normal;font-weight:normal;font-stretch:normal;font-family:SimHei;-inkscape-font-specification:SimHei"
         id="path3089" />
      <path
         d="m -447.98145,570.07225 0.77344,0.91407 c -2.67189,1.96876 -3.96095,4.24219 -3.86719,6.82031 0.0469,2.48438 1.31249,4.64063 3.79688,6.46875 l -0.77344,0.91406 c -2.85939,-2.0625 -4.2422,-4.66406 -4.14844,-7.80469 -1e-5,-2.57811 1.40624,-5.01561 4.21875,-7.3125 z"
         style="font-style:normal;font-variant:normal;font-weight:normal;font-stretch:normal;font-family:SimHei;-inkscape-font-specification:SimHei"
         id="path3091" />
      <path
         d="m -436.17773,582.8955 0,1.5205 -8.51661,0 c -0.0117,-0.38085 0.0498,-0.74706 0.18457,-1.09863 0.2168,-0.58007 0.56397,-1.15136 1.04151,-1.71387 0.47754,-0.56249 1.16748,-1.21288 2.06982,-1.95117 1.40039,-1.14843 2.34668,-2.0581 2.83887,-2.729 0.49218,-0.67089 0.73827,-1.30517 0.73828,-1.90283 -1e-5,-0.62695 -0.22413,-1.15575 -0.67236,-1.58643 -0.44825,-0.43065 -1.03272,-0.64598 -1.75342,-0.646 -0.76172,2e-5 -1.3711,0.22853 -1.82813,0.68555 -0.45703,0.45704 -0.68847,1.08986 -0.69433,1.89844 l -1.62598,-0.16699 c 0.11133,-1.21288 0.53027,-2.1372 1.25684,-2.77295 0.72656,-0.63573 1.70214,-0.9536 2.92676,-0.95362 1.23632,2e-5 2.21483,0.34279 2.93554,1.02832 0.7207,0.68556 1.08105,1.53517 1.08106,2.54883 -10e-6,0.51564 -0.10548,1.02247 -0.31641,1.52051 -0.21094,0.49806 -0.56104,1.02247 -1.05029,1.57324 -0.48927,0.55079 -1.30225,1.30665 -2.43897,2.26758 -0.94922,0.79688 -1.55859,1.33741 -1.82812,1.62158 -0.26954,0.28419 -0.49219,0.56983 -0.66797,0.85694 z"
         style="font-size:18px"
         id="path3093" />
      <path
         d="m -434.47266,578.06151 c 0,-1.52343 0.15674,-2.7495 0.47022,-3.67822 0.31347,-0.9287 0.77929,-1.64501 1.39746,-2.14893 0.61816,-0.50389 1.39599,-0.75584 2.3335,-0.75586 0.6914,2e-5 1.29784,0.13918 1.81933,0.41749 0.52148,0.27833 0.95214,0.67969 1.29199,1.2041 0.33984,0.52442 0.60644,1.16309 0.79981,1.91601 0.19335,0.75294 0.29003,1.76808 0.29004,3.04541 -10e-6,1.51173 -0.15528,2.73194 -0.46582,3.66065 -0.31056,0.92871 -0.77491,1.64648 -1.39307,2.15332 -0.61817,0.50683 -1.39893,0.76025 -2.34228,0.76025 -1.2422,0 -2.21778,-0.44531 -2.92676,-1.33594 -0.84961,-1.07226 -1.27442,-2.81835 -1.27442,-5.23828 z m 1.62598,0 c 0,2.11524 0.24756,3.52295 0.74268,4.22315 0.49511,0.70019 1.10595,1.05029 1.83252,1.05029 0.72655,0 1.33739,-0.35156 1.83252,-1.05469 0.49511,-0.70312 0.74266,-2.10937 0.74267,-4.21875 -1e-5,-2.12108 -0.24756,-3.53026 -0.74267,-4.22754 -0.49513,-0.69725 -1.11183,-1.04588 -1.8501,-1.0459 -0.72657,2e-5 -1.30665,0.30763 -1.74024,0.92286 -0.54492,0.78516 -0.81738,2.23536 -0.81738,4.35058 z"
         style="font-size:18px"
         id="path3095" />
      <path
         d="m -406.21582,575.13475 0,1.26563 c -0.37501,0.18751 -0.91408,0.49219 -1.61719,0.91406 -0.70313,0.42188 -1.50001,0.96095 -2.39062,1.61719 l 0,0.63281 4.78125,0 c 0.46873,10e-6 1.21873,-0.0234 2.25,-0.0703 l 0,1.40625 c -1.03127,-0.0937 -1.78127,-0.14062 -2.25,-0.14063 l -4.78125,0 0,3.58594 c -0.0469,0.9375 -0.35157,1.47656 -0.91407,1.61719 -0.5625,0.14062 -1.38282,0.25781 -2.46093,0.35156 -0.0469,-0.46875 -0.21095,-1.03125 -0.49219,-1.6875 1.07812,0.0937 1.7578,0.10547 2.03906,0.0352 0.28124,-0.0703 0.39843,-0.38672 0.35156,-0.94922 l 0,-2.95313 -4.92187,0 c -0.75,10e-6 -1.47656,0.0234 -2.17969,0.0703 l 0,-1.33594 c 0.70313,0.0469 1.40625,0.0703 2.10938,0.0703 l 4.99218,0 c 0,-0.42187 -0.0469,-0.8203 -0.14062,-1.19531 0.42187,-0.18749 0.89062,-0.44531 1.40625,-0.77344 0.51561,-0.32812 1.14843,-0.74999 1.89844,-1.26562 l -5.48438,0 c -0.84375,10e-6 -1.54688,0.0234 -2.10937,0.0703 l 0,-1.33594 c 0.56249,0.0469 1.24218,0.0703 2.03906,0.0703 z m -5.625,-5.48437 c 0.89062,1.17189 1.42968,1.92189 1.61719,2.25 l 6.39843,0 c -0.0469,0.70314 -0.0703,1.2422 -0.0703,1.61719 -10e-6,0.32813 0.0234,0.79688 0.0703,1.40625 l -1.40625,0 0,-1.89844 -11.74218,0 0,1.96875 -1.40625,0 c 0.0469,-0.65624 0.0703,-1.17186 0.0703,-1.54688 0,-0.37498 -0.0234,-0.89061 -0.0703,-1.54687 l 6.53906,0 c -0.32813,-0.51561 -0.72657,-0.98436 -1.19531,-1.40625 0.37499,-0.23436 0.77343,-0.51561 1.19531,-0.84375 z"
         style="font-style:normal;font-variant:normal;font-weight:normal;font-stretch:normal;font-family:SimHei;-inkscape-font-specification:SimHei"
         id="path3097" />
      <path
         d="m -390.39551,583.8535 c -0.0938,-0.56249 -0.32813,-1.12499 -0.70312,-1.6875 0.93749,10e-6 1.65233,-0.0469 2.14453,-0.14062 0.49217,-0.0937 0.7617,-0.375 0.80859,-0.84375 l 0.14063,-3.79688 -5.97657,0 0,6.11719 c 0,0.84375 0.0234,1.71094 0.0703,2.60156 l -1.61719,0 c 0.0937,-0.84375 0.14062,-1.71093 0.14062,-2.60156 l 0,-6.11719 -1.54687,0 c -1.54688,10e-6 -2.78907,0.0234 -3.72656,0.0703 l 0,-1.33594 c 0.98437,0.0469 1.99218,0.0703 3.02343,0.0703 l 11.25,0 c -0.14064,1.96876 -0.23439,3.56251 -0.28125,4.78125 -0.0469,1.21875 -0.39845,1.98047 -1.05468,2.28516 -0.65627,0.30469 -1.54689,0.50391 -2.67188,0.59765 z m -4.85156,-10.54687 c -10e-6,0.84376 0.0234,1.57032 0.0703,2.17969 l -1.54687,0 c 0.0469,-0.70312 0.0703,-1.42968 0.0703,-2.17969 l -2.39063,0 c -0.65625,10e-6 -1.38281,0.0469 -2.17968,0.14062 l 0,-1.40625 c 0.79687,0.0469 1.52343,0.0703 2.17968,0.0703 l 2.39063,0 c -10e-6,-0.89061 -0.0234,-1.64061 -0.0703,-2.25 l 1.54687,0 c -0.0469,0.60939 -0.0703,1.35939 -0.0703,2.25 l 3.72656,0 c -10e-6,-0.93749 -0.0235,-1.68749 -0.0703,-2.25 l 1.61719,0 c -0.0469,0.56251 -0.0703,1.31251 -0.0703,2.25 l 2.25,0 c 0.89061,10e-6 1.71093,-0.0234 2.46094,-0.0703 l 0,1.33594 c -0.75001,-0.0469 -1.57033,-0.0703 -2.46094,-0.0703 l -2.25,0 c -1e-5,0.75001 0.0234,1.47657 0.0703,2.17969 l -1.61719,0 c 0.0469,-0.74999 0.0703,-1.47655 0.0703,-2.17969 z"
         style="font-style:normal;font-variant:normal;font-weight:normal;font-stretch:normal;font-family:SimHei;-inkscape-font-specification:SimHei"
         id="path3099" />
      <path
         d="m -381.39551,570.07225 c 2.8125,2.29689 4.21875,4.73439 4.21875,7.3125 0.0937,3.14063 -1.28907,5.74219 -4.14844,7.80469 l -0.77343,-0.91406 c 2.48437,-1.82812 3.74999,-3.98437 3.79687,-6.46875 0.0937,-2.57812 -1.19532,-4.85155 -3.86719,-6.82031 l 0.77344,-0.91407 z"
         style="font-style:normal;font-variant:normal;font-weight:normal;font-stretch:normal;font-family:SimHei;-inkscape-font-specification:SimHei"
         id="path3101" />
    </g>
    <g
       style="font-size:22px;font-style:normal;font-weight:normal;text-align:center;line-height:125%;letter-spacing:0px;word-spacing:0px;text-anchor:middle;fill:#000000;fill-opacity:1;stroke:none;font-family:Sans"
       id="text3094-1-0">
      <path
         d="m -319.67773,561.39838 0,-11.36426 -4.24512,0 0,-1.52051 10.21289,0 0,1.52051 -4.2627,0 0,11.36426 z"
         style="font-size:18px"
         id="path3060" />
      <path
         d="m -302.75879,556.8808 1.70508,0.43066 c -0.35743,1.4004 -1.0005,2.46827 -1.9292,3.20362 -0.92872,0.73535 -2.06397,1.10302 -3.40576,1.10302 -1.38868,0 -2.51807,-0.28271 -3.38819,-0.84814 -0.87012,-0.56543 -1.53222,-1.38428 -1.98632,-2.45654 -0.45411,-1.07227 -0.68116,-2.22363 -0.68116,-3.45411 0,-1.34179 0.25635,-2.51219 0.76905,-3.51123 0.51269,-0.99901 1.24218,-1.7578 2.18847,-2.27636 0.94629,-0.51855 1.98779,-0.77782 3.12452,-0.77784 1.28905,2e-5 2.37303,0.32814 3.25195,0.98438 0.87889,0.65626 1.4912,1.57911 1.83691,2.76855 l -1.67871,0.39551 c -0.29884,-0.93749 -0.73243,-1.6201 -1.30078,-2.04785 -0.56837,-0.42772 -1.28321,-0.64159 -2.14453,-0.6416 -0.99024,10e-6 -1.81788,0.23731 -2.48291,0.71191 -0.66504,0.47462 -1.13233,1.11183 -1.40186,1.91162 -0.26953,0.79982 -0.4043,1.62452 -0.40429,2.47412 -1e-5,1.09571 0.15966,2.05226 0.479,2.86963 0.31933,0.81739 0.81591,1.42823 1.48975,1.83252 0.67382,0.4043 1.40331,0.60645 2.18847,0.60645 0.95507,0 1.76367,-0.27539 2.42578,-0.82617 0.6621,-0.55078 1.11035,-1.36816 1.34473,-2.45215 z"
         style="font-size:18px"
         id="path3062" />
      <path
         d="m -298.94434,561.39838 0,-12.88477 4.86036,0 c 0.85546,10e-6 1.50878,0.041 1.95996,0.12305 0.6328,0.10548 1.16307,0.30616 1.59082,0.60205 0.42772,0.29591 0.77196,0.71046 1.03271,1.24365 0.26073,0.53321 0.3911,1.11915 0.39112,1.75781 -2e-5,1.09571 -0.34865,2.02296 -1.0459,2.78174 -0.69728,0.7588 -1.95704,1.13819 -3.7793,1.13819 l -3.30469,0 0,5.23828 z m 1.70508,-6.75879 3.33106,0 c 1.10155,0 1.88378,-0.20507 2.34668,-0.61524 0.46288,-0.41015 0.69432,-0.98729 0.69433,-1.73144 -1e-5,-0.53906 -0.13624,-1.00048 -0.40869,-1.38428 -0.27247,-0.38378 -0.63135,-0.6372 -1.07666,-0.76025 -0.28712,-0.0762 -0.81739,-0.11425 -1.59082,-0.11426 l -3.2959,0 z"
         style="font-size:18px"
         id="path3064" />
      <path
         d="m -273.8252,562.94525 -1.33593,0 c 0.0469,-1.125 0.0703,-2.29687 0.0703,-3.51562 l 0,-8.36719 c -10e-6,-1.26561 -0.0234,-2.41405 -0.0703,-3.44531 l 7.38281,0 c -2e-5,1.35938 -0.0703,2.62501 -0.21094,3.79687 -0.14064,0.56251 -0.38673,0.94923 -0.73828,1.16016 -0.35158,0.21094 -1.20704,0.36329 -2.56641,0.45703 -0.0938,-0.56249 -0.23438,-1.03124 -0.42187,-1.40625 1.31249,0.0469 2.06249,-0.0469 2.25,-0.28125 0.18749,-0.23437 0.28124,-1.07811 0.28125,-2.53125 l -4.64063,0 0,4.78125 6.60938,0 c -0.0469,0.37501 -0.25783,1.16016 -0.63281,2.35547 -0.37502,1.19531 -0.89064,2.33203 -1.54688,3.41015 0.98436,1.03125 2.15624,1.875 3.51563,2.53125 -0.32814,0.32813 -0.70314,0.72657 -1.125,1.19532 -1.59377,-1.07813 -2.64845,-1.96875 -3.16407,-2.67188 -0.60938,0.84375 -1.52344,1.73438 -2.74218,2.67188 -0.14064,-0.375 -0.42189,-0.75 -0.84375,-1.125 1.03124,-0.60938 1.89842,-1.40625 2.60156,-2.39063 -1.03126,-1.64062 -1.73439,-3.25781 -2.10938,-4.85156 l -0.5625,0.0703 z m -5.48437,-12.23437 c 0,-1.68749 -0.0234,-3.02343 -0.0703,-4.00782 l 1.40625,0 c -0.0469,0.89064 -0.0703,2.22658 -0.0703,4.00782 0.75,10e-6 1.52344,-0.0234 2.32032,-0.0703 l 0,1.33594 c -1.03126,-0.0469 -1.8047,-0.0703 -2.32032,-0.0703 l 0,2.88281 c 0.75,-0.23437 1.5,-0.49218 2.25,-0.77344 -0.0469,0.37501 -0.0469,0.79689 0,1.26563 -0.70313,0.1875 -1.45313,0.42188 -2.25,0.70312 l 0,4.92188 c 0,0.79687 -0.19922,1.32422 -0.59765,1.58203 -0.39844,0.25781 -1.11329,0.45703 -2.14453,0.59766 -0.14063,-0.5625 -0.375,-1.03125 -0.70313,-1.40625 0.84375,0 1.41797,-0.0586 1.72266,-0.17578 0.30468,-0.11719 0.45703,-0.38672 0.45703,-0.8086 l 0,-4.28906 c -1.54688,0.51563 -2.46094,0.86719 -2.74219,1.05469 -0.23437,-0.60937 -0.46875,-1.125 -0.70312,-1.54688 0.84375,-0.14062 1.99218,-0.42187 3.44531,-0.84375 l 0,-3.16406 c -1.125,10e-6 -2.10938,0.0234 -2.95313,0.0703 l 0,-1.33594 c 0.70313,0.0469 1.6875,0.0703 2.95313,0.0703 z m 7.3125,4.07812 c 0.46874,1.54688 1.03124,2.71876 1.6875,3.51563 0.60936,-0.9375 1.05467,-2.10937 1.33594,-3.51563 l -3.02344,0 z"
         style="font-style:normal;font-variant:normal;font-weight:normal;font-stretch:normal;font-family:SimHei;-inkscape-font-specification:SimHei"
         id="path3066" />
      <path
         d="m -253.5752,547.05463 c -0.32813,0.65626 -0.49219,1.59376 -0.49218,2.8125 -10e-6,1.17188 -0.1172,3 -0.35157,5.48437 l 3.23438,0 c 0.89061,10e-6 1.89842,-0.0234 3.02344,-0.0703 l 0,1.47656 c -1.12502,-0.0469 -2.08596,-0.0703 -2.88282,-0.0703 l -3.65625,0 c -0.51563,1.3125 -1.17188,2.34375 -1.96875,3.09375 -0.79688,0.75 -1.65235,1.39453 -2.5664,1.93359 -0.91407,0.53906 -2.05079,1.08985 -3.41016,1.65235 -0.23438,-0.46876 -0.65625,-0.89063 -1.26562,-1.26563 1.17187,-0.14062 2.62499,-0.72656 4.35937,-1.75781 1.73437,-1.03125 2.85937,-2.25 3.375,-3.65625 l -5.13281,0 c -0.9375,0 -1.92188,0.0234 -2.95313,0.0703 l 0,-1.47656 c 1.03125,0.0469 1.875,0.0703 2.53125,0.0703 l 5.97657,0 c 0.0937,-0.79687 0.17577,-1.82812 0.24609,-3.09375 0.0703,-1.26561 0.10546,-3.09374 0.10547,-5.48437 0.51561,0.0938 1.12499,0.18751 1.82812,0.28125 z m -0.35156,11.10937 c 0.84374,0.46875 1.71093,1.00782 2.60156,1.61719 0.89061,0.60937 1.85155,1.26562 2.88282,1.96875 -0.32814,0.23437 -0.65627,0.63281 -0.98438,1.19531 -0.84376,-0.60937 -1.68751,-1.23047 -2.53125,-1.86328 -0.84376,-0.63281 -1.78126,-1.23047 -2.8125,-1.79297 0.23437,-0.28125 0.51562,-0.65625 0.84375,-1.125 z m -8.64844,-7.03125 c 1.64063,0.89064 2.90625,1.64064 3.79688,2.25 -0.42188,0.37501 -0.77344,0.79688 -1.05469,1.26563 -0.42188,-0.46875 -1.64063,-1.26562 -3.65625,-2.39063 0.375,-0.37499 0.67969,-0.74999 0.91406,-1.125 z m 1.89844,-3.51562 c 1.35937,0.79688 2.62499,1.59376 3.79688,2.39062 -0.37501,0.28126 -0.70314,0.6797 -0.98438,1.19531 -0.9375,-0.79686 -2.15625,-1.64061 -3.65625,-2.53125 0.32812,-0.32811 0.60937,-0.67967 0.84375,-1.05468 z"
         style="font-style:normal;font-variant:normal;font-weight:normal;font-stretch:normal;font-family:SimHei;-inkscape-font-specification:SimHei"
         id="path3068" />
      <path
         d="m -319.08887,571.46636 0.77344,0.91406 c -2.67189,1.96876 -3.96095,4.2422 -3.86719,6.82031 0.0469,2.48438 1.31249,4.64063 3.79688,6.46875 l -0.77344,0.91407 c -2.85939,-2.0625 -4.2422,-4.66406 -4.14844,-7.80469 -1e-5,-2.57812 1.40624,-5.01561 4.21875,-7.3125 z"
         style="font-style:normal;font-variant:normal;font-weight:normal;font-stretch:normal;font-family:SimHei;-inkscape-font-specification:SimHei"
         id="path3070" />
      <path
         d="m -307.28516,584.2896 0,1.52051 -8.5166,0 c -0.0117,-0.38086 0.0498,-0.74707 0.18457,-1.09863 0.2168,-0.58008 0.56397,-1.15137 1.04151,-1.71387 0.47753,-0.5625 1.16747,-1.21289 2.06982,-1.95117 1.40039,-1.14843 2.34667,-2.0581 2.83887,-2.72901 0.49218,-0.67089 0.73827,-1.30516 0.73828,-1.90283 -10e-6,-0.62694 -0.22413,-1.15575 -0.67236,-1.58642 -0.44825,-0.43066 -1.03272,-0.64599 -1.75342,-0.646 -0.76173,10e-6 -1.3711,0.22853 -1.82813,0.68555 -0.45703,0.45704 -0.68848,1.08985 -0.69433,1.89843 l -1.62598,-0.16699 c 0.11133,-1.21288 0.53027,-2.13719 1.25684,-2.77295 0.72656,-0.63573 1.70214,-0.9536 2.92675,-0.95361 1.23633,10e-6 2.21484,0.34278 2.93555,1.02832 0.7207,0.68556 1.08105,1.53517 1.08106,2.54883 -10e-6,0.51563 -0.10548,1.02247 -0.31641,1.5205 -0.21095,0.49806 -0.56104,1.02247 -1.05029,1.57325 -0.48927,0.55078 -1.30226,1.30664 -2.43897,2.26758 -0.94922,0.79687 -1.5586,1.3374 -1.82812,1.62158 -0.26954,0.28418 -0.49219,0.56982 -0.66797,0.85693 z"
         style="font-size:18px"
         id="path3072" />
      <path
         d="m -305.58008,579.45562 c 0,-1.52343 0.15674,-2.74951 0.47022,-3.67823 0.31347,-0.9287 0.77929,-1.645 1.39746,-2.14892 0.61816,-0.5039 1.39599,-0.75585 2.33349,-0.75586 0.6914,10e-6 1.29785,0.13917 1.81934,0.41748 0.52148,0.27833 0.95214,0.6797 1.29199,1.2041 0.33984,0.52443 0.60644,1.1631 0.79981,1.91602 0.19335,0.75293 0.29003,1.76807 0.29004,3.04541 -10e-6,1.51172 -0.15529,2.73193 -0.46582,3.66064 -0.31056,0.92871 -0.77491,1.64649 -1.39307,2.15332 -0.61817,0.50684 -1.39893,0.76026 -2.34229,0.76026 -1.24219,0 -2.21777,-0.44532 -2.92675,-1.33594 -0.84961,-1.07227 -1.27442,-2.81836 -1.27442,-5.23828 z m 1.62598,0 c 0,2.11524 0.24755,3.52295 0.74267,4.22314 0.49512,0.7002 1.10596,1.0503 1.83252,1.05029 0.72656,10e-6 1.3374,-0.35156 1.83252,-1.05468 0.49511,-0.70313 0.74267,-2.10937 0.74268,-4.21875 -10e-6,-2.12109 -0.24757,-3.53027 -0.74268,-4.22754 -0.49512,-0.69726 -1.11182,-1.04589 -1.85009,-1.0459 -0.72657,10e-6 -1.30665,0.30763 -1.74024,0.92285 -0.54492,0.78517 -0.81738,2.23536 -0.81738,4.35059 z"
         style="font-size:18px"
         id="path3074" />
      <path
         d="m -277.32324,576.52886 0,1.26562 c -0.37502,0.18751 -0.91408,0.4922 -1.61719,0.91407 -0.70314,0.42188 -1.50001,0.96094 -2.39062,1.61718 l 0,0.63282 4.78125,0 c 0.46873,0 1.21873,-0.0234 2.25,-0.0703 l 0,1.40625 c -1.03127,-0.0937 -1.78127,-0.14062 -2.25,-0.14062 l -4.78125,0 0,3.58594 c -0.0469,0.9375 -0.35158,1.47656 -0.91407,1.61718 -0.56251,0.14063 -1.38282,0.25781 -2.46093,0.35157 -0.0469,-0.46876 -0.21095,-1.03125 -0.49219,-1.6875 1.07812,0.0937 1.7578,0.10546 2.03906,0.0352 0.28124,-0.0703 0.39843,-0.38672 0.35156,-0.94922 l 0,-2.95312 -4.92187,0 c -0.75001,0 -1.47657,0.0234 -2.17969,0.0703 l 0,-1.33594 c 0.70312,0.0469 1.40625,0.0703 2.10938,0.0703 l 4.99218,0 c -1e-5,-0.42187 -0.0469,-0.82031 -0.14062,-1.19532 0.42186,-0.18749 0.89061,-0.4453 1.40625,-0.77343 0.51561,-0.32812 1.14842,-0.75 1.89844,-1.26563 l -5.48438,0 c -0.84376,1e-5 -1.54688,0.0235 -2.10937,0.0703 l 0,-1.33593 c 0.56249,0.0469 1.24218,0.0703 2.03906,0.0703 z m -5.625,-5.48438 c 0.89061,1.17189 1.42968,1.92189 1.61719,2.25 l 6.39843,0 c -0.0469,0.70314 -0.0703,1.2422 -0.0703,1.61719 -2e-5,0.32814 0.0234,0.79689 0.0703,1.40625 l -1.40625,0 0,-1.89844 -11.74218,0 0,1.96875 -1.40625,0 c 0.0469,-0.65624 0.0703,-1.17186 0.0703,-1.54687 0,-0.37499 -0.0234,-0.89061 -0.0703,-1.54688 l 6.53906,0 c -0.32814,-0.51561 -0.72657,-0.98436 -1.19531,-1.40625 0.37499,-0.23436 0.77342,-0.51561 1.19531,-0.84375 z"
         style="font-style:normal;font-variant:normal;font-weight:normal;font-stretch:normal;font-family:SimHei;-inkscape-font-specification:SimHei"
         id="path3076" />
      <path
         d="m -261.50293,585.24761 c -0.0938,-0.5625 -0.32814,-1.125 -0.70312,-1.6875 0.93748,0 1.65233,-0.0469 2.14453,-0.14063 0.49217,-0.0937 0.7617,-0.37499 0.80859,-0.84375 l 0.14063,-3.79687 -5.97657,0 0,6.11719 c -1e-5,0.84375 0.0234,1.71093 0.0703,2.60156 l -1.61719,0 c 0.0937,-0.84375 0.14062,-1.71094 0.14062,-2.60156 l 0,-6.11719 -1.54687,0 c -1.54688,10e-6 -2.78907,0.0234 -3.72656,0.0703 l 0,-1.33594 c 0.98437,0.0469 1.99218,0.0703 3.02343,0.0703 l 11.25,0 c -0.14064,1.96875 -0.23439,3.5625 -0.28125,4.78125 -0.0469,1.21875 -0.39845,1.98047 -1.05468,2.28515 -0.65627,0.30469 -1.54689,0.50391 -2.67188,0.59766 z m -4.85156,-10.54688 c -10e-6,0.84376 0.0234,1.57033 0.0703,2.17969 l -1.54687,0 c 0.0469,-0.70311 0.0703,-1.42968 0.0703,-2.17969 l -2.39063,0 c -0.65625,10e-6 -1.38281,0.0469 -2.17968,0.14063 l 0,-1.40625 c 0.79687,0.0469 1.52343,0.0703 2.17968,0.0703 l 2.39063,0 c -10e-6,-0.89061 -0.0235,-1.64061 -0.0703,-2.25 l 1.54687,0 c -0.0469,0.60939 -0.0703,1.35939 -0.0703,2.25 l 3.72656,0 c -1e-5,-0.93749 -0.0235,-1.68748 -0.0703,-2.25 l 1.61719,0 c -0.0469,0.56252 -0.0703,1.31251 -0.0703,2.25 l 2.25,0 c 0.89061,1e-5 1.71092,-0.0234 2.46094,-0.0703 l 0,1.33594 c -0.75002,-0.0469 -1.57033,-0.0703 -2.46094,-0.0703 l -2.25,0 c -1e-5,0.75001 0.0234,1.47658 0.0703,2.17969 l -1.61719,0 c 0.0469,-0.74999 0.0703,-1.47655 0.0703,-2.17969 z"
         style="font-style:normal;font-variant:normal;font-weight:normal;font-stretch:normal;font-family:SimHei;-inkscape-font-specification:SimHei"
         id="path3078" />
      <path
         d="m -252.50293,571.46636 c 2.81249,2.29689 4.21874,4.73438 4.21875,7.3125 0.0937,3.14063 -1.28907,5.74219 -4.14844,7.80469 l -0.77343,-0.91407 c 2.48437,-1.82812 3.74999,-3.98437 3.79687,-6.46875 0.0937,-2.57811 -1.19532,-4.85155 -3.86719,-6.82031 l 0.77344,-0.91406 z"
         style="font-style:normal;font-variant:normal;font-weight:normal;font-stretch:normal;font-family:SimHei;-inkscape-font-specification:SimHei"
         id="path3080" />
    </g>
    <g
       style="font-size:22px;font-style:normal;font-weight:normal;text-align:center;line-height:125%;letter-spacing:0px;word-spacing:0px;text-anchor:middle;fill:#000000;fill-opacity:1;stroke:none;font-family:Sans"
       id="text3094-1-0-7">
      <path
         d="m -130.75005,561.94446 c -1e-5,-1.14582 -0.0261,-2.05728 -0.0781,-2.73438 0.67707,0.10419 1.27602,0.18231 1.79687,0.23438 -0.15626,0.52085 -0.23439,1.35418 -0.23437,2.5 l 2.5,0 c 1.14581,10e-6 2.18748,-0.026 3.125,-0.0781 l 0,1.40625 c -0.98961,-0.0521 -2.03127,-0.0781 -3.125,-0.0781 l -2.5,0 0,1.71875 4.76562,0 c -0.0521,0.72917 -0.0781,1.51042 -0.0781,2.34375 -2e-5,0.78126 0.026,1.58855 0.0781,2.42187 l -4.84375,0 c -0.10418,1.66667 -0.39064,3.02084 -0.85937,4.0625 1.45832,1.30209 3.77602,1.97917 6.95312,2.03125 -0.3646,0.26042 -0.65106,0.75521 -0.85937,1.48438 -2.76044,-0.10417 -5.10418,-0.88542 -7.03125,-2.34375 -1.19793,1.25 -2.65626,2.1875 -4.375,2.8125 -0.0521,-0.36459 -0.41668,-0.75521 -1.09375,-1.17188 1.97915,-0.57291 3.43749,-1.40625 4.375,-2.5 -0.88543,-0.88541 -1.82293,-1.92708 -2.8125,-3.125 0.31249,-0.15624 0.67707,-0.4427 1.09375,-0.85937 0.83332,1.14584 1.69269,2.05729 2.57812,2.73437 0.31249,-0.88541 0.49478,-1.92708 0.54688,-3.125 l -4.60938,0 c 0.0521,-0.83332 0.0781,-1.66666 0.0781,-2.5 -1e-5,-0.83332 -0.026,-1.58853 -0.0781,-2.26562 l 4.6875,0 0,-1.71875 -2.57812,0 c -1.09376,10e-6 -2.03126,0.026 -2.8125,0.0781 l 0,-1.40625 c 0.72916,0.0521 1.64061,0.0781 2.73437,0.0781 z m -5.54687,-1.875 c -0.26043,0.31251 -0.67709,1.27605 -1.25,2.89062 l 0,10.78125 c -1e-5,1.14584 0.026,2.36979 0.0781,3.67188 l -1.5625,0 c 0.0521,-1.25 0.0781,-2.42188 0.0781,-3.51563 l 0,-8.28125 c -0.72917,1.51043 -1.22397,2.50001 -1.48438,2.96875 -0.26042,-0.46874 -0.65104,-0.85936 -1.17187,-1.17187 0.57291,-0.78124 1.26301,-2.01822 2.07031,-3.71094 0.80729,-1.69269 1.28906,-3.13801 1.44531,-4.33594 l 1.79688,0.70313 z m 10.23437,8.35937 0,-2.34375 -3.20312,0 0,2.34375 z m -4.6875,0 0,-2.34375 -3.125,0 0,2.34375 z"
         style="font-style:normal;font-variant:normal;font-weight:normal;font-stretch:normal;font-family:SimHei;-inkscape-font-specification:SimHei"
         id="path3031" />
      <path
         d="m -121.2188,576.55383 c 0.625,-0.88541 1.10677,-1.82291 1.44531,-2.8125 0.33854,-0.98958 0.54687,-1.97916 0.625,-2.96875 0.0781,-0.98957 0.11719,-2.65624 0.11719,-5 0,-2.34373 -0.026,-4.21873 -0.0781,-5.625 l 13.98437,0 c -0.0521,1.51043 -0.0781,2.8646 -0.0781,4.0625 l 0,10.23438 c -2e-5,1.09375 -0.31252,1.77083 -0.9375,2.03125 -0.62502,0.26041 -1.35419,0.44271 -2.1875,0.54687 -0.10419,-0.78125 -0.28648,-1.38021 -0.54688,-1.79687 1.04165,0.0521 1.65363,0.013 1.83594,-0.11719 0.18227,-0.13021 0.27342,-0.3776 0.27344,-0.74219 l 0,-3.90625 -4.76563,0 0,3.04688 c -1e-5,1.14583 0.026,2.1875 0.0781,3.125 l -1.71875,0 c 0.0521,-0.88542 0.0781,-1.90104 0.0781,-3.04688 l 0,-3.125 -4.45312,0 c -0.20834,2.23959 -0.91147,4.50521 -2.10938,6.79688 -0.57292,-0.36459 -1.09375,-0.59896 -1.5625,-0.70313 z m 14.45313,-11.79687 0,-3.35938 -4.76563,0 0,3.35938 z m 0,4.45312 0,-3.28125 -4.76563,0 0,3.28125 z m -6.32813,-4.45312 0,-3.35938 -4.45312,0 0,3.35938 z m 0,4.45312 0,-3.28125 -4.45312,0 0,3.28125 z"
         style="font-style:normal;font-variant:normal;font-weight:normal;font-stretch:normal;font-family:SimHei;-inkscape-font-specification:SimHei"
         id="path3033" />
      <path
         d="m -88.171925,560.22571 c -0.10418,0.26043 -0.234388,0.61199 -0.390625,1.05469 -0.156263,0.44272 -0.390638,1.23699 -0.703125,2.38281 l 3.59375,0 c 0.520817,10e-6 1.145816,-0.026 1.875,-0.0781 l 0,1.40625 c -0.572934,-0.0521 -1.015642,-0.0781 -1.328125,-0.0781 -1.7e-5,0.83334 -0.143246,2.14844 -0.429687,3.94531 -0.286475,1.79688 -0.794287,3.34636 -1.523438,4.64844 0.520818,0.625 1.106755,1.18489 1.757813,1.67969 0.651024,0.49479 1.263002,0.84635 1.835937,1.05468 -0.625018,0.46875 -1.041684,0.91146 -1.25,1.32813 -0.625017,-0.36459 -1.197933,-0.78125 -1.71875,-1.25 -0.520848,-0.46875 -1.041681,-1.04167 -1.5625,-1.71875 -0.57293,0.625 -1.184909,1.15885 -1.835937,1.60156 -0.651054,0.44271 -1.471365,0.92448 -2.460938,1.44531 -0.260426,-0.46875 -0.625009,-0.83333 -1.09375,-1.09375 0.781241,-0.3125 1.614573,-0.75521 2.5,-1.32812 0.885405,-0.57292 1.562487,-1.14583 2.03125,-1.71875 -0.364596,-0.72917 -0.716158,-1.51042 -1.054687,-2.34375 -0.338554,-0.83333 -0.638033,-1.92708 -0.898438,-3.28125 -0.156261,0.41667 -0.416677,0.96355 -0.78125,1.64062 -0.364593,-0.20832 -0.807301,-0.41666 -1.328125,-0.625 0.833324,-1.45832 1.510406,-3.04686 2.03125,-4.76562 0.520822,-1.71874 0.859363,-3.20311 1.015625,-4.45313 0.624987,0.26044 1.197903,0.44273 1.71875,0.54688 z m -7.578125,8.35937 c -0.208339,0.20834 -0.442714,0.54688 -0.703125,1.01563 l 4.296875,0 c -0.312509,1.30209 -0.859384,2.60417 -1.640625,3.90625 0.833324,0.3125 1.484365,0.59896 1.953125,0.85937 -0.260426,0.36459 -0.494801,0.75521 -0.703125,1.17188 -0.468759,-0.3125 -1.171883,-0.625 -2.109375,-0.9375 -1.041673,1.14583 -2.838546,2.16146 -5.39062,3.04687 -0.26042,-0.57292 -0.59896,-0.96354 -1.01563,-1.17187 2.447913,-0.57292 4.114578,-1.35417 5,-2.34375 -1.458338,-0.36458 -2.656253,-0.67708 -3.59375,-0.9375 0.312497,-0.46875 0.729164,-1.25 1.25,-2.34375 -0.520836,0 -1.38021,0.026 -2.57812,0.0781 l 0,-1.40625 c 0.989576,0.0521 2.0052,0.0781 3.04687,0.0781 0.208329,-0.46875 0.364579,-0.98958 0.46875,-1.5625 0.572912,0.20834 1.145828,0.39063 1.71875,0.54687 z m -1.015625,-5.3125 c -5e-6,-1.24998 -0.02605,-2.4479 -0.07813,-3.59375 l 1.5625,0 c -0.05209,1.09377 -0.07813,2.29168 -0.07813,3.59375 1.770825,2e-5 3.020824,-0.026 3.75,-0.0781 l 0,1.40625 c -0.729176,-0.0521 -1.979175,-0.0781 -3.75,-0.0781 -7e-6,1.51043 0.02604,2.6823 0.07813,3.51563 l -1.5625,0 c 0.05208,-0.72916 0.07812,-1.64062 0.07813,-2.73438 -0.260422,0.41668 -0.755213,0.95053 -1.484375,1.60157 -0.72917,0.65105 -1.406252,1.15886 -2.03125,1.52343 -0.26042,-0.46874 -0.65104,-0.80728 -1.17187,-1.01562 0.46874,-0.15624 1.09374,-0.52083 1.874995,-1.09375 0.781247,-0.57291 1.380205,-1.17187 1.796875,-1.79688 -1.04167,1e-5 -2.031252,0.0261 -2.96875,0.0781 l 0,-1.40625 c 0.885415,0.0521 2.213538,0.0781 3.984375,0.0781 z m 6.875,2.42188 c 0.468738,3.07292 1.119779,5.20834 1.953125,6.40625 0.520819,-1.19791 0.872381,-2.40885 1.054688,-3.63281 0.182276,-1.22395 0.299463,-2.40885 0.351562,-3.55469 l -3.046875,0 -0.3125,0.78125 z m -7.890625,6.79687 c 0.624995,0.15626 1.484369,0.36459 2.578125,0.625 0.41666,-0.52083 0.807284,-1.27603 1.171875,-2.26562 l -2.890625,0 c -0.260421,0.52084 -0.546879,1.06771 -0.859375,1.64062 z m 5.859375,-11.95312 c -0.260426,0.41668 -0.46876,0.8073 -0.625,1.17187 -0.156259,0.3646 -0.364592,0.80731 -0.625,1.32813 -0.416675,-0.20832 -0.833341,-0.36457 -1.25,-0.46875 0.416659,-0.67707 0.807283,-1.53645 1.171875,-2.57813 0.520824,0.26044 0.963532,0.44273 1.328125,0.54688 z m -2.34375,4.53125 c 0.677075,0.67709 1.328116,1.35417 1.953125,2.03125 -0.312509,0.26042 -0.651051,0.57292 -1.015625,0.9375 -0.729175,-0.88541 -1.328132,-1.58853 -1.796875,-2.10938 0.312493,-0.2604 0.598951,-0.54686 0.859375,-0.85937 z m -5.15625,-5.07813 c 0.729163,0.72918 1.328121,1.45835 1.796875,2.1875 l -1.171875,0.70313 c -0.364586,-0.72916 -0.911461,-1.40624 -1.640625,-2.03125 0.468748,-0.31249 0.807289,-0.59894 1.015625,-0.85938 z"
         style="font-style:normal;font-variant:normal;font-weight:normal;font-stretch:normal;font-family:SimHei;-inkscape-font-specification:SimHei"
         id="path3035" />
      <path
         d="m -64.3438,560.69446 c -0.0521,0.46876 -0.07814,1.04168 -0.07813,1.71875 l 0,1.01562 c -1.7e-5,0.93751 0.02602,1.6146 0.07813,2.03125 l -8.28125,0 0,2.34375 3.59375,0 c -1.3e-5,-0.46874 -0.02605,-1.17186 -0.07813,-2.10937 l 1.484375,0 c -0.0521,0.83334 -0.07814,1.53646 -0.07813,2.10937 l 2.109375,0 c 0.937483,1e-5 1.718732,-0.026 2.34375,-0.0781 l 0,1.40625 c -0.625018,-0.0521 -1.380226,-0.0781 -2.265625,-0.0781 l -2.1875,0 0,2.10938 3.4375,0 c -0.0521,0.98958 -0.07814,1.64063 -0.07813,1.95312 l 0,1.95313 c -1.8e-5,0.83333 0.02602,1.61458 0.07813,2.34375 l -1.40625,0 0,-1.09375 -5.15625,0 0,1.17187 -1.40625,0 c 0.05207,-0.57291 0.07811,-1.30208 0.07813,-2.1875 l 0,-2.26562 c -1e-5,-0.52083 -0.02605,-1.14583 -0.07813,-1.875 l 3.203125,0 0,-2.10938 -3.671875,0 c -0.05209,1.51042 -0.247405,2.92969 -0.585937,4.25782 -0.33855,1.32812 -0.820321,2.59114 -1.445313,3.78906 -0.468757,-0.3125 -0.963548,-0.54688 -1.484375,-0.70313 0.624994,-0.83333 1.080722,-1.71875 1.367188,-2.65625 0.28645,-0.93749 0.507804,-1.9401 0.664062,-3.00781 0.156242,-1.0677 0.234367,-2.17447 0.234375,-3.32031 l 0,-2.96875 c -8e-6,-0.83332 -0.02605,-2.08332 -0.07813,-3.75 l 9.6875,0 z m -13.984375,1.09375 c -4e-6,-0.72915 -0.02604,-1.40624 -0.07813,-2.03125 l 1.5625,0 c -0.05209,0.57293 -0.07813,1.25001 -0.07813,2.03125 l 0,2.03125 c 0.520828,10e-6 1.328119,-0.026 2.421875,-0.0781 l 0,1.32813 c -1.093756,-0.0521 -1.901047,-0.0781 -2.421875,-0.0781 l 0,2.96875 c 0.677078,-0.36457 1.380202,-0.78124 2.109375,-1.25 0.05208,0.41668 0.182284,0.8073 0.390625,1.17188 -0.98959,0.57292 -1.822922,1.06771 -2.5,1.48437 l 0,5.70313 c -5e-6,0.98958 -0.247401,1.58854 -0.742187,1.79687 -0.494796,0.20833 -1.236983,0.39063 -2.226563,0.54688 -0.104169,-0.52084 -0.28646,-1.06771 -0.546875,-1.64063 0.885414,0 1.45833,-0.0391 1.71875,-0.11718 0.260413,-0.0781 0.390621,-0.42969 0.390625,-1.05469 l 0,-4.60938 c -0.781253,0.41667 -1.562502,0.91147 -2.34375,1.48438 -0.156251,-0.41666 -0.416667,-0.91146 -0.78125,-1.48438 1.041665,-0.36457 2.083331,-0.83332 3.125,-1.40625 l 0,-3.59375 c -0.989586,1e-5 -1.953127,0.0261 -2.890625,0.0781 l 0,-1.32813 c 0.937498,0.0521 1.901039,0.0781 2.890625,0.0781 z m 12.578125,2.5 0,-2.42188 -6.875,0 0,2.42188 z m 0.07813,10.85937 0,-2.89062 -5.15625,0 0,2.89062 z"
         style="font-style:normal;font-variant:normal;font-weight:normal;font-stretch:normal;font-family:SimHei;-inkscape-font-specification:SimHei"
         id="path3037" />
      <path
         d="m -45.359425,559.67883 0.859375,1.01563 c -2.968764,2.18751 -4.401055,4.71355 -4.296875,7.57812 0.05207,2.76042 1.458319,5.15626 4.21875,7.1875 l -0.859375,1.01563 c -3.177097,-2.29167 -4.713553,-5.18229 -4.609375,-8.67188 -1.2e-5,-2.86457 1.562487,-5.5729 4.6875,-8.125 z"
         style="font-style:normal;font-variant:normal;font-weight:normal;font-stretch:normal;font-family:SimHei;-inkscape-font-specification:SimHei"
         id="path3039" />
      <path
         d="m -40.828175,574.75696 c 0.416665,-0.0521 1.067706,-0.13021 1.953125,-0.23438 l 0,-6.5625 c -0.677086,1e-5 -1.38021,0.0261 -2.109375,0.0781 l 0,-1.32813 c 0.729165,0.0521 1.458331,0.0781 2.1875,0.0781 l 12.1875,0 c 0.937484,10e-6 1.848941,-0.026 2.734375,-0.0781 l 0,1.32813 c -0.885434,-0.0521 -1.796891,-0.0781 -2.734375,-0.0781 l -6.171875,0 0,5.54688 1.09375,-0.3125 c -10e-6,0.46875 0.02603,0.85937 0.07813,1.17187 -0.416677,0.10417 -0.807301,0.1823 -1.171875,0.23438 -9e-6,0.9375 0.02603,1.84896 0.07813,2.73437 l -1.484375,0 c 0.05208,-0.88541 0.07812,-1.71875 0.07813,-2.5 -0.572924,0.10417 -1.419277,0.27344 -2.539062,0.50782 -1.119796,0.23437 -2.330733,0.50781 -3.632813,0.82031 -0.156251,-0.57292 -0.338543,-1.04167 -0.546875,-1.40625 z m 14.453125,-14.53125 c -0.0521,0.6771 -0.07814,1.3021 -0.07813,1.875 l 0,1.40625 c -1.5e-5,0.57293 0.02603,1.22397 0.07813,1.95312 l -11.953125,0 c 0.05208,-0.72915 0.07812,-1.38019 0.07813,-1.95312 l 0,-1.40625 c -4e-6,-0.5729 -0.02604,-1.1979 -0.07813,-1.875 l 11.953125,0 z m -5.625,8.98437 c 0.937489,0.0521 1.796863,0.0781 2.578125,0.0781 l 3.90625,0 c -0.572932,2.1875 -1.250015,3.88021 -2.03125,5.07812 1.302068,0.83334 2.552066,1.35417 3.75,1.5625 -0.468768,0.36459 -0.755226,0.78125 -0.859375,1.25 -1.302099,-0.41666 -2.526056,-1.09375 -3.671875,-2.03125 -0.677096,0.72917 -1.588554,1.48438 -2.734375,2.26563 -0.208344,-0.3125 -0.572927,-0.625 -1.09375,-0.9375 1.093739,-0.36459 2.031238,-1.01563 2.8125,-1.95313 -0.885428,-0.88541 -1.562511,-2.26562 -2.03125,-4.14062 l -0.625,0 z m 4.0625,-6.875 0,-1.09375 -8.90625,0 0,1.09375 z m 0,2.10938 0,-1.01563 -8.90625,0 0,1.01563 z m -2.1875,5.9375 c 0.208321,1.25 0.729154,2.34375 1.5625,3.28125 0.624986,-0.88542 1.093736,-1.97916 1.40625,-3.28125 l -2.96875,0 z m -3.984375,1.32812 0,-1.32812 -3.4375,0 0,1.32812 z m 0,2.10938 0,-1.09375 -3.4375,0 0,1.5625 z m 0,-4.53125 0,-1.32813 -3.4375,0 0,1.32813 z"
         style="font-style:normal;font-variant:normal;font-weight:normal;font-stretch:normal;font-family:SimHei;-inkscape-font-specification:SimHei"
         id="path3041" />
      <path
         d="m -13.25005,564.99133 c 0.05208,-1.8229 0.06509,-3.04686 0.03906,-3.67187 -0.02605,-0.62499 -0.06511,-1.22394 -0.117188,-1.79688 0.624991,0.10419 1.328115,0.18231 2.109375,0.23438 -0.156261,0.52085 -0.273448,1.27605 -0.351562,2.26562 -0.07814,0.9896 -0.117198,1.97918 -0.117188,2.96875 l 3.9843754,0 c 1.406234,1e-5 2.708316,-0.0521 3.90625,-0.15625 l 0,1.71875 c -1.0416841,-0.0521 -2.1093914,-0.0781 -3.203125,-0.0781 l -4.6093754,0 c 0.208323,0.88542 0.572906,1.78386 1.09375,2.69531 0.5208214,0.91146 1.0546751,1.71876 1.6015629,2.42188 0.5468611,0.70312 1.3020686,1.44531 2.265625,2.22656 0.963525,0.78125 2.0182115,1.43229 3.1640625,1.95312 -0.4166851,0.3125 -0.8333513,0.83334 -1.25,1.5625 -0.9375166,-0.52083 -1.8619949,-1.17187 -2.7734375,-1.95312 -0.9114722,-0.78125 -1.8229296,-1.8099 -2.7343749,-3.08594 -0.91147,-1.27604 -1.601573,-2.46093 -2.070313,-3.55469 -0.416676,1.14584 -0.859384,2.09636 -1.328125,2.85157 -0.468758,0.75521 -0.97657,1.44531 -1.523437,2.07031 -0.546882,0.625 -1.250006,1.25 -2.109375,1.875 -0.859379,0.625 -1.835941,1.25 -2.929688,1.875 -0.416668,-0.625 -0.885417,-1.17188 -1.40625,-1.64063 1.093749,-0.36458 2.174477,-0.88541 3.242188,-1.5625 1.067703,-0.67708 1.940098,-1.44531 2.617187,-2.30468 0.677077,-0.85937 1.223951,-1.75781 1.640625,-2.69532 0.416658,-0.93749 0.677075,-1.84895 0.78125,-2.73437 l -4.296875,0 c -1.250003,10e-6 -2.239585,0.026 -2.96875,0.0781 l 0,-1.71875 c 0.729165,0.0521 1.718747,0.10418 2.96875,0.15625 z"
         style="font-style:normal;font-variant:normal;font-weight:normal;font-stretch:normal;font-family:SimHei;-inkscape-font-specification:SimHei"
         id="path3043" />
      <path
         d="m 10.685497,575.61633 -1.7578122,0 0,-11.20117 c -0.4231824,0.40366 -0.9781948,0.8073 -1.6650391,1.21094 -0.6868523,0.40365 -1.3037136,0.70639 -1.8505859,0.9082 l 0,-1.69922 c 0.9830697,-0.46223 1.8424439,-1.02212 2.578125,-1.67968 0.7356716,-0.65754 1.2565044,-1.29556 1.5625,-1.91407 l 1.1328122,0 z"
         style="font-size:20px"
         id="path3045" />
      <path
         d="m 20.831982,575.61633 0,-3.42773 -6.210938,0 0,-1.61133 6.533203,-9.27734 1.435547,0 0,9.27734 1.933594,0 0,1.61133 -1.933594,0 0,3.42773 z m 0,-5.03906 0,-6.45508 -4.482422,6.45508 z"
         style="font-size:20px"
         id="path3047" />
      <path
         d="m 35.451122,564.80579 -1.748047,0.13671 c -0.156258,-0.69009 -0.377612,-1.19139 -0.664062,-1.5039 -0.475268,-0.50129 -1.061204,-0.75194 -1.757813,-0.75195 -0.559901,10e-6 -1.051437,0.15626 -1.474609,0.46875 -0.553389,0.40365 -0.989587,0.99285 -1.308594,1.76757 -0.319013,0.77475 -0.485028,1.87827 -0.498047,3.31055 0.423175,-0.64452 0.940752,-1.12304 1.552735,-1.43555 0.611974,-0.31249 1.25325,-0.46874 1.923828,-0.46875 1.171868,1e-5 2.169588,0.43133 2.993164,1.29395 0.823558,0.86264 1.235341,1.97754 1.235352,3.34473 -1.1e-5,0.89844 -0.193695,1.7334 -0.581055,2.50488 -0.387379,0.77148 -0.919605,1.3623 -1.59668,1.77246 -0.677091,0.41016 -1.445319,0.61523 -2.304687,0.61523 -1.464848,0 -2.659509,-0.53873 -3.583985,-1.61621 -0.92448,-1.07747 -1.386719,-2.85318 -1.386718,-5.32715 -1e-6,-2.76691 0.511066,-4.77863 1.533203,-6.03515 0.891924,-1.09374 2.093094,-1.64061 3.603515,-1.64063 1.126295,2e-5 2.049146,0.31577 2.768555,0.94727 0.719392,0.63152 1.150706,1.50392 1.293945,2.61719 z m -7.177734,6.17187 c -3e-6,0.60547 0.128578,1.1849 0.385742,1.73828 0.257158,0.55339 0.616858,0.97494 1.079102,1.26465 0.462235,0.28972 0.94726,0.43457 1.455078,0.43457 0.742181,0 1.380201,-0.29948 1.914062,-0.89844 0.533846,-0.59895 0.800773,-1.41275 0.800782,-2.4414 -9e-6,-0.98958 -0.26368,-1.7692 -0.791016,-2.33887 -0.527351,-0.56965 -1.191413,-0.85448 -1.992188,-0.85449 -0.794275,10e-6 -1.468103,0.28484 -2.021484,0.85449 -0.553388,0.56967 -0.830081,1.31674 -0.830078,2.24121 z"
         style="font-size:20px"
         id="path3049" />
      <path
         d="m 37.462841,568.55579 c -10e-7,-1.6927 0.174153,-3.05501 0.522461,-4.08692 0.348306,-1.03189 0.865883,-1.82778 1.552734,-2.38769 0.686846,-0.55988 1.551103,-0.83983 2.592774,-0.83985 0.768223,2e-5 1.44205,0.15464 2.021484,0.46387 0.579419,0.30926 1.057934,0.75522 1.435547,1.33789 0.377595,0.5827 0.673819,1.29233 0.888672,2.12891 0.214834,0.8366 0.322255,1.96452 0.322266,3.38379 -1.1e-5,1.67969 -0.172537,3.03548 -0.517579,4.06738 -0.345061,1.0319 -0.861011,1.82943 -1.547851,2.39258 -0.686857,0.56315 -1.554369,0.84472 -2.602539,0.84472 -1.380213,0 -2.464196,-0.49479 -3.251953,-1.48437 -0.944012,-1.19141 -1.416017,-3.13151 -1.416016,-5.82031 z m 1.806641,0 c -3e-6,2.35026 0.275062,3.91439 0.825195,4.69238 0.550126,0.778 1.228836,1.16699 2.036133,1.16699 0.807285,0 1.485995,-0.39062 2.036133,-1.17187 0.550122,-0.78125 0.825187,-2.34375 0.825195,-4.6875 -8e-6,-2.35677 -0.275073,-3.92252 -0.825195,-4.69727 -0.550138,-0.77473 -1.235358,-1.1621 -2.055664,-1.16211 -0.807297,10e-6 -1.451827,0.34181 -1.933594,1.02539 -0.605472,0.87241 -0.908206,2.48374 -0.908203,4.83399 z"
         style="font-size:20px"
         id="path3051" />
      <path
         d="m 68.859325,565.30383 0,1.40625 c -0.416681,0.20835 -1.015639,0.54689 -1.796875,1.01563 -0.781263,0.46876 -1.666678,1.06771 -2.65625,1.79687 l 0,0.70313 5.3125,0 c 0.520817,0 1.354149,-0.026 2.5,-0.0781 l 0,1.5625 c -1.145851,-0.10416 -1.979183,-0.15624 -2.5,-0.15625 l -5.3125,0 0,3.98438 c -0.05209,1.04166 -0.390635,1.64062 -1.015625,1.79687 -0.625009,0.15625 -1.536466,0.28646 -2.734375,0.39063 -0.05209,-0.52084 -0.234382,-1.14584 -0.546875,-1.875 1.197909,0.10416 1.953117,0.11719 2.265625,0.0391 0.312491,-0.0781 0.442699,-0.42969 0.390625,-1.05469 l 0,-3.28125 -5.46875,0 c -0.833336,1e-5 -1.640627,0.0261 -2.421875,0.0781 l 0,-1.48438 c 0.781248,0.0521 1.562497,0.0781 2.34375,0.0781 l 5.546875,0 c -9e-6,-0.46875 -0.05209,-0.91145 -0.15625,-1.32813 0.468741,-0.20832 0.989573,-0.49478 1.5625,-0.85937 0.572906,-0.36458 1.27603,-0.83333 2.109375,-1.40625 l -6.09375,0 c -0.937506,10e-6 -1.718755,0.026 -2.34375,0.0781 l 0,-1.48437 c 0.624995,0.0521 1.380203,0.0781 2.265625,0.0781 z m -6.25,-6.09375 c 0.989573,1.3021 1.588531,2.13543 1.796875,2.5 l 7.109375,0 c -0.0521,0.78127 -0.07814,1.38022 -0.07813,1.79688 -1.8e-5,0.36459 0.02602,0.88543 0.07813,1.5625 l -1.5625,0 0,-2.10938 -13.046875,0 0,2.1875 -1.5625,0 c 0.05208,-0.72915 0.07812,-1.30207 0.07813,-1.71875 -2e-6,-0.41665 -0.02604,-0.98957 -0.07813,-1.71875 l 7.265625,0 c -0.364592,-0.5729 -0.8073,-1.09373 -1.328125,-1.5625 0.416659,-0.2604 0.859367,-0.5729 1.328125,-0.9375 z"
         style="font-style:normal;font-variant:normal;font-weight:normal;font-stretch:normal;font-family:SimHei;-inkscape-font-specification:SimHei"
         id="path3053" />
      <path
         d="m 86.43745,574.99133 c -0.104179,-0.625 -0.364596,-1.25 -0.78125,-1.875 1.041654,1e-5 1.835924,-0.0521 2.382813,-0.15625 0.54686,-0.10416 0.846339,-0.41666 0.898437,-0.9375 l 0.15625,-4.21875 -6.640625,0 0,6.79688 c -9e-6,0.9375 0.02603,1.90104 0.07813,2.89062 l -1.796875,0 c 0.10416,-0.9375 0.156243,-1.90104 0.15625,-2.89062 l 0,-6.79688 -1.71875,0 c -1.718754,1e-5 -3.098961,0.0261 -4.140625,0.0781 l 0,-1.48438 c 1.093748,0.0521 2.213538,0.0781 3.359375,0.0781 l 12.5,0 c -0.156267,2.1875 -0.260434,3.95834 -0.3125,5.3125 -0.0521,1.35417 -0.442725,2.20052 -1.171875,2.53906 -0.729182,0.33854 -1.718764,0.5599 -2.96875,0.66406 z m -5.390625,-11.71875 c -7e-6,0.93751 0.02603,1.74481 0.07813,2.42188 l -1.71875,0 c 0.05208,-0.78124 0.07812,-1.58853 0.07813,-2.42188 l -2.65625,0 c -0.729169,2e-5 -1.53646,0.0521 -2.421875,0.15625 l 0,-1.5625 c 0.885415,0.0521 1.692706,0.0781 2.421875,0.0781 l 2.65625,0 c -6e-6,-0.98957 -0.02605,-1.8229 -0.07813,-2.5 l 1.71875,0 c -0.05209,0.6771 -0.07813,1.51043 -0.07813,2.5 l 4.140625,0 c -1.1e-5,-1.04165 -0.02605,-1.87499 -0.07813,-2.5 l 1.796875,0 c -0.0521,0.62501 -0.07814,1.45835 -0.07813,2.5 l 2.5,0 c 0.989567,10e-6 1.901024,-0.026 2.734375,-0.0781 l 0,1.48438 c -0.833351,-0.0521 -1.744808,-0.0781 -2.734375,-0.0781 l -2.5,0 c -1.3e-5,0.83335 0.02603,1.64064 0.07813,2.42188 l -1.796875,0 c 0.05207,-0.83332 0.07811,-1.64062 0.07813,-2.42188 z"
         style="font-style:normal;font-variant:normal;font-weight:normal;font-stretch:normal;font-family:SimHei;-inkscape-font-specification:SimHei"
         id="path3055" />
      <path
         d="m 96.43745,559.67883 c 3.124994,2.5521 4.68749,5.26043 4.6875,8.125 0.10416,3.48959 -1.432298,6.38021 -4.609375,8.67188 L 95.6562,575.46008 c 2.760412,-2.03124 4.166661,-4.42708 4.21875,-7.1875 0.10416,-2.86457 -1.32813,-5.39061 -4.296875,-7.57812 l 0.859375,-1.01563 z"
         style="font-style:normal;font-variant:normal;font-weight:normal;font-stretch:normal;font-family:SimHei;-inkscape-font-specification:SimHei"
         id="path3057" />
    </g>
    <g
       style="font-size:22px;font-style:normal;font-weight:normal;text-align:center;line-height:125%;letter-spacing:0px;word-spacing:0px;text-anchor:middle;fill:#000000;fill-opacity:1;stroke:none;font-family:Sans"
       id="text3094-1-0-7-5">
      <path
         d="m 203.4902,553.31152 c 0,-1.82811 -0.0234,-3.04686 -0.0703,-3.65625 l 1.47656,0 c -0.0469,0.60939 -0.0703,1.82814 -0.0703,3.65625 0.5625,10e-6 1.17187,-0.0234 1.82813,-0.0703 l 0,1.26563 c -0.60938,-0.0469 -1.21876,-0.0703 -1.82813,-0.0703 l 0,2.67188 c 0.32812,-0.23437 0.67968,-0.44531 1.05469,-0.63281 0.51562,0.89063 0.98437,1.66406 1.40625,2.32031 -0.46876,0.23438 -0.91407,0.49219 -1.33594,0.77344 -0.28125,-0.75 -0.65625,-1.52344 -1.125,-2.32032 l 0,5.48438 c 0,0.9375 0.0234,1.89844 0.0703,2.88281 l -1.47656,0 c 0.0469,-0.98437 0.0703,-1.94531 0.0703,-2.88281 l 0,-5.20313 c -0.42187,1.40626 -1.00781,2.83594 -1.75781,4.28907 -0.375,-0.5625 -0.77344,-1.00781 -1.19531,-1.33594 1.21875,-1.59375 2.10937,-3.60937 2.67187,-6.04688 -0.70312,10e-6 -1.45312,0.0235 -2.25,0.0703 l 0,-1.26563 c 0.79688,0.0469 1.64063,0.0703 2.53125,0.0703 z m 6.46875,4.5 c 0.60937,1.59376 1.21874,2.74219 1.82813,3.44532 0.70311,-0.79688 1.31249,-2.01562 1.82812,-3.65625 0.42186,0.28125 0.93749,0.46875 1.54688,0.5625 -0.32814,0.5625 -0.64455,1.17188 -0.94922,1.82812 -0.3047,0.65625 -0.80861,1.40625 -1.51172,2.25 0.42186,0.46875 1.03124,0.89063 1.82813,1.26563 0.79686,0.375 1.75779,0.65625 2.88281,0.84375 -0.60939,0.46875 -0.98439,0.93749 -1.125,1.40625 -0.98439,-0.32813 -1.8633,-0.70313 -2.63672,-1.125 -0.77345,-0.42188 -1.39454,-0.89063 -1.86328,-1.40625 -0.60939,0.51562 -1.2422,0.96093 -1.89844,1.33593 -0.65626,0.375 -1.64063,0.82031 -2.95312,1.33594 -0.28126,-0.51563 -0.63282,-0.9375 -1.05469,-1.26562 1.40624,-0.375 2.44921,-0.75 3.12891,-1.125 0.67967,-0.375 1.30077,-0.79688 1.86328,-1.26563 -0.89064,-1.07812 -1.59376,-2.36718 -2.10938,-3.86719 0.42187,-0.0937 0.8203,-0.28124 1.19531,-0.5625 z m 4.5,-5.76562 c 0.93749,1e-5 1.82811,-0.0234 2.67188,-0.0703 l 0,1.26562 c -0.75002,-0.0469 -1.64064,-0.0703 -2.67188,-0.0703 l -4.99218,0 c -0.93751,1e-5 -1.75782,0.0235 -2.46094,0.0703 l 0,-1.26562 c 0.70312,0.0469 1.52343,0.0703 2.46094,0.0703 z m -3.16406,2.88281 c -0.32813,0.23438 -0.79688,0.69142 -1.40625,1.37109 -0.60938,0.6797 -1.10157,1.23048 -1.47656,1.65235 -0.37501,-0.32812 -0.79688,-0.60937 -1.26563,-0.84375 1.21875,-1.07812 2.10937,-2.10937 2.67188,-3.09375 l 1.47656,0.91406 z m 2.8125,-0.77344 c 1.40624,1.12501 2.41405,1.94532 3.02344,2.46094 -0.46877,0.37501 -0.89064,0.75001 -1.26563,1.125 -0.46876,-0.65624 -1.38282,-1.54687 -2.74218,-2.67187 0.42186,-0.28124 0.74998,-0.58593 0.98437,-0.91407 z m -2.25,-4.85156 c 0.37499,0.51564 0.74999,1.17189 1.125,1.96875 -0.42189,0.14064 -0.89064,0.35158 -1.40625,0.63281 -0.14064,-0.60936 -0.44532,-1.28905 -0.91406,-2.03906 l 1.19531,-0.5625 z"
         style="font-style:normal;font-variant:normal;font-weight:normal;font-stretch:normal;font-family:SimHei;-inkscape-font-specification:SimHei"
         id="path3014" />
      <path
         d="m 224.44333,550.78027 c -0.0938,0.42189 -0.16407,1.03127 -0.21094,1.82813 l -0.49219,5.48437 1.33594,0 c -0.0469,0.37501 -0.0938,1.00782 -0.14062,1.89844 l -0.28125,3.86719 c -1e-5,0.98437 -0.28126,1.54687 -0.84375,1.6875 -0.56251,0.14062 -1.33595,0.28125 -2.32032,0.42187 -0.14062,-0.65625 -0.32812,-1.19531 -0.5625,-1.61718 0.98437,0 1.62891,-0.0117 1.9336,-0.0352 0.30468,-0.0234 0.5039,-0.24609 0.59765,-0.66797 l 0.21094,-4.35937 -4.14844,0 c 0.0469,-0.89062 0.082,-1.86328 0.10547,-2.91797 0.0234,-1.05468 0.0352,-2.05077 0.0352,-2.98828 l 1.40625,0 c -0.0937,0.51563 -0.16407,1.1836 -0.21094,2.0039 -0.0469,0.82032 -0.0703,1.72267 -0.0703,2.70703 l 1.75781,0 0.49219,-6.1875 -1.89844,0 c -0.75,2e-5 -1.47656,0.0235 -2.17969,0.0703 l 0,-1.26563 c 0.70313,0.0469 1.42969,0.0703 2.17969,0.0703 z m 5.69531,-0.42187 c 0.74999,1.40626 1.52343,2.43751 2.32031,3.09375 0.79686,0.65626 1.73436,1.17188 2.8125,1.54687 -0.42189,0.37501 -0.75001,0.84376 -0.98437,1.40625 -0.65627,-0.37499 -1.28908,-0.8203 -1.89844,-1.33593 l 0,1.19531 c -0.60939,-0.0469 -1.47657,-0.0703 -2.60156,-0.0703 -1.12501,0 -2.03907,0.0234 -2.74219,0.0703 l 0,-1.125 c -0.28126,0.37501 -0.67969,0.86719 -1.19531,1.47656 -0.42188,-0.42187 -0.8672,-0.74999 -1.33594,-0.98437 0.74999,-0.51562 1.32421,-1.03124 1.72266,-1.54688 0.39843,-0.51561 0.74999,-1.05468 1.05469,-1.61719 0.30467,-0.56248 0.56249,-1.07811 0.77343,-1.54687 0.21093,-0.46874 0.38671,-0.98436 0.52735,-1.54688 0.60936,0.14064 1.24217,0.28127 1.89843,0.42188 z m 3.58594,7.66406 c -0.23439,0.28126 -0.42189,0.66798 -0.5625,1.16016 -0.14064,0.49219 -0.3633,1.26563 -0.66797,2.32031 -0.3047,1.05469 -0.5508,1.88672 -0.73828,2.49609 l 0.98437,0 c 0.32811,0 0.84374,-0.0234 1.54688,-0.0703 l 0,1.26563 c -0.60939,-0.0469 -1.12502,-0.0703 -1.54688,-0.0703 l -5.41406,0 c -0.84376,0 -1.45313,0.0234 -1.82812,0.0703 l 0,-1.26563 c 0.56249,0.0469 1.1953,0.0703 1.89843,0.0703 l 3.16407,0 c 0.37498,-1.03125 0.67967,-2.08593 0.91406,-3.16406 l 0.70312,-3.23437 c 0.37499,0.14063 0.89061,0.28125 1.54688,0.42187 z m -1.40625,-3.02344 c -0.56251,-0.42186 -1.07814,-0.93749 -1.54688,-1.54687 -0.46876,-0.60937 -0.93751,-1.3828 -1.40625,-2.32031 -0.37501,0.75001 -0.71485,1.39454 -1.01953,1.93359 -0.30469,0.53907 -0.71485,1.1836 -1.23047,1.93359 z m -5.20313,2.95313 c 0.18749,0.65625 0.38671,1.40625 0.59766,2.25 0.21093,0.84375 0.41015,1.61719 0.59766,2.32031 -0.42189,0.0469 -0.82033,0.16406 -1.19532,0.35156 -0.14063,-0.89062 -0.29297,-1.64062 -0.45703,-2.25 -0.16407,-0.60937 -0.38672,-1.3828 -0.66797,-2.32031 0.375,-0.14062 0.75,-0.25781 1.125,-0.35156 z m -4.14843,2.95312 c -0.0469,0.32813 -0.0938,0.72657 -0.14063,1.19532 -0.70313,0.14062 -1.27735,0.25781 -1.72265,0.35156 -0.44532,0.0937 -1.13673,0.28125 -2.07422,0.5625 -0.14063,-0.51562 -0.30469,-1.03125 -0.49219,-1.54688 0.65625,-0.0469 1.33593,-0.11718 2.03906,-0.21093 0.70312,-0.0937 1.5,-0.21094 2.39063,-0.35157 z m 7.10156,-1.47656 c 0.0937,0.60938 0.21092,1.38282 0.35156,2.32031 l -1.125,0.28125 c -0.18751,-1.03124 -0.32813,-1.8164 -0.42187,-2.35547 -0.0938,-0.53905 -0.21095,-1.16015 -0.35157,-1.86328 0.42187,-0.0937 0.84374,-0.16405 1.26563,-0.21093 z"
         style="font-style:normal;font-variant:normal;font-weight:normal;font-stretch:normal;font-family:SimHei;-inkscape-font-specification:SimHei"
         id="path3016" />
      <path
         d="m 252.49802,552.25684 c -0.0469,0.93751 -0.0703,1.80469 -0.0703,2.60156 l 0,7.24219 c -10e-6,0.84375 0.0234,1.52343 0.0703,2.03906 l -1.40625,0 0,-1.6875 -3.375,0 0,1.82812 -1.33594,0 c 0.0469,-1.07812 0.0703,-1.73437 0.0703,-1.96875 l 0,-7.45312 c -1e-5,-0.79687 -0.0234,-1.66405 -0.0703,-2.60156 l 6.11719,0 z m -7.3125,-0.70313 c -0.42189,10e-6 -1.38282,0.1172 -2.88282,0.35156 l 0,3.16407 1.05469,0 c 0.70312,0 1.45312,-0.0234 2.25,-0.0703 l 0,1.26563 c -0.79688,-0.0469 -1.52344,-0.0703 -2.17969,-0.0703 l -1.125,0 0,7.24218 c 0,0.79688 0.0234,1.52344 0.0703,2.17969 l -1.40625,0 c 0.0469,-0.75 0.0703,-1.47656 0.0703,-2.17969 l 0,-4.57031 c -0.70313,1.3125 -1.75782,2.8125 -3.16406,4.5 -0.23438,-0.32812 -0.60938,-0.65625 -1.125,-0.98437 1.03124,-0.98438 1.93359,-2.12109 2.70703,-3.41016 0.77343,-1.28906 1.20702,-2.21484 1.30078,-2.77734 l -1.26563,0 c -1.03125,0 -1.78125,0.0234 -2.25,0.0703 l 0,-1.26563 c 0.51563,0.0469 1.26563,0.0703 2.25,0.0703 l 1.54688,0 0,-2.95313 c -0.60938,0.0938 -1.57032,0.21095 -2.88281,0.35156 -0.0938,-0.46873 -0.23438,-0.89061 -0.42188,-1.26562 0.89062,-0.0469 2.01562,-0.16405 3.375,-0.35156 1.35937,-0.18749 2.50781,-0.46874 3.44531,-0.84375 0.0937,0.51563 0.30468,1.03126 0.63282,1.54687 z m 5.90625,9.77344 0,-7.875 -3.375,0 0,7.875 z m -6.46875,-0.0703 c -0.60939,-1.17188 -1.31251,-2.20312 -2.10938,-3.09375 0.28124,-0.1875 0.63281,-0.46875 1.05469,-0.84375 0.89062,0.98438 1.64061,1.99219 2.25,3.02343 -0.46876,0.28126 -0.8672,0.58594 -1.19531,0.91407 z"
         style="font-style:normal;font-variant:normal;font-weight:normal;font-stretch:normal;font-family:SimHei;-inkscape-font-specification:SimHei"
         id="path3018" />
      <path
         d="m 198.72653,572.22559 0.77344,0.91406 c -2.67189,1.96876 -3.96095,4.2422 -3.86719,6.82031 0.0469,2.48438 1.31249,4.64063 3.79688,6.46875 l -0.77344,0.91406 c -2.85939,-2.0625 -4.2422,-4.66406 -4.14844,-7.80468 -1e-5,-2.57812 1.40624,-5.01562 4.21875,-7.3125 z"
         style="font-style:normal;font-variant:normal;font-weight:normal;font-stretch:normal;font-family:SimHei;-inkscape-font-specification:SimHei"
         id="path3020" />
      <path
         d="m 210.53024,585.04883 0,1.52051 -8.5166,0 c -0.0117,-0.38086 0.0498,-0.74707 0.18457,-1.09864 0.2168,-0.58007 0.56397,-1.15136 1.04151,-1.71386 0.47753,-0.5625 1.16747,-1.21289 2.06982,-1.95118 1.40039,-1.14843 2.34667,-2.05809 2.83887,-2.729 0.49218,-0.67089 0.73827,-1.30517 0.73828,-1.90283 -10e-6,-0.62694 -0.22413,-1.15575 -0.67237,-1.58643 -0.44824,-0.43065 -1.03272,-0.64598 -1.75341,-0.64599 -0.76173,10e-6 -1.3711,0.22852 -1.82813,0.68554 -0.45703,0.45704 -0.68848,1.08986 -0.69433,1.89844 l -1.62598,-0.16699 c 0.11133,-1.21288 0.53027,-2.1372 1.25684,-2.77295 0.72656,-0.63573 1.70214,-0.9536 2.92675,-0.95361 1.23633,10e-6 2.21484,0.34278 2.93555,1.02832 0.72069,0.68555 1.08105,1.53516 1.08105,2.54882 0,0.51564 -0.10547,1.02247 -0.3164,1.52051 -0.21095,0.49806 -0.56104,1.02247 -1.05029,1.57324 -0.48927,0.55079 -1.30226,1.30665 -2.43897,2.26758 -0.94922,0.79688 -1.5586,1.33741 -1.82812,1.62158 -0.26954,0.28419 -0.49219,0.56983 -0.66797,0.85694 z"
         style="font-size:18px"
         id="path3022" />
      <path
         d="m 230.47263,577.28809 0,1.26562 c -0.37502,0.18751 -0.91408,0.4922 -1.61719,0.91406 -0.70314,0.42189 -1.50001,0.96095 -2.39063,1.61719 l 0,0.63281 4.78125,0 c 0.46874,10e-6 1.21874,-0.0234 2.25,-0.0703 l 0,1.40625 c -1.03126,-0.0937 -1.78126,-0.14062 -2.25,-0.14062 l -4.78125,0 0,3.58593 c -0.0469,0.9375 -0.35157,1.47656 -0.91406,1.61719 -0.56251,0.14062 -1.38282,0.25781 -2.46094,0.35156 -0.0469,-0.46875 -0.21094,-1.03125 -0.49218,-1.6875 1.07811,0.0937 1.7578,0.10547 2.03906,0.0352 0.28124,-0.0703 0.39843,-0.38672 0.35156,-0.94922 l 0,-2.95312 -4.92187,0 c -0.75001,0 -1.47657,0.0234 -2.17969,0.0703 l 0,-1.33594 c 0.70312,0.0469 1.40625,0.0703 2.10937,0.0703 l 4.99219,0 c -1e-5,-0.42187 -0.0469,-0.8203 -0.14062,-1.19531 0.42186,-0.18749 0.89061,-0.44531 1.40625,-0.77344 0.51561,-0.32811 1.14842,-0.74999 1.89843,-1.26562 l -5.48437,0 c -0.84376,1e-5 -1.54688,0.0234 -2.10938,0.0703 l 0,-1.33594 c 0.5625,0.0469 1.24219,0.0703 2.03907,0.0703 z m -5.625,-5.48438 c 0.89061,1.17189 1.42967,1.92189 1.61718,2.25 l 6.39844,0 c -0.0469,0.70314 -0.0703,1.2422 -0.0703,1.61719 -2e-5,0.32813 0.0234,0.79688 0.0703,1.40625 l -1.40625,0 0,-1.89844 -11.74219,0 0,1.96875 -1.40625,0 c 0.0469,-0.65624 0.0703,-1.17186 0.0703,-1.54687 -1e-5,-0.37499 -0.0234,-0.89062 -0.0703,-1.54688 l 6.53907,0 c -0.32814,-0.51561 -0.72657,-0.98436 -1.19532,-1.40625 0.375,-0.23436 0.77343,-0.51561 1.19532,-0.84375 z"
         style="font-style:normal;font-variant:normal;font-weight:normal;font-stretch:normal;font-family:SimHei;-inkscape-font-specification:SimHei"
         id="path3024" />
      <path
         d="m 246.29294,586.00684 c -0.0938,-0.5625 -0.32814,-1.125 -0.70313,-1.6875 0.93749,0 1.65233,-0.0469 2.14453,-0.14063 0.49218,-0.0937 0.76171,-0.375 0.8086,-0.84375 l 0.14062,-3.79687 -5.97656,0 0,6.11718 c -1e-5,0.84375 0.0234,1.71094 0.0703,2.60157 l -1.61718,0 c 0.0937,-0.84375 0.14061,-1.71094 0.14062,-2.60157 l 0,-6.11718 -1.54687,0 c -1.54688,0 -2.78907,0.0234 -3.72657,0.0703 l 0,-1.33594 c 0.98438,0.0469 1.99219,0.0703 3.02344,0.0703 l 11.25,0 c -0.14064,1.96876 -0.23439,3.56251 -0.28125,4.78125 -0.0469,1.21876 -0.39845,1.98047 -1.05469,2.28516 -0.65626,0.30469 -1.54688,0.50391 -2.67187,0.59766 z m -4.85156,-10.54688 c -1e-5,0.84376 0.0234,1.57032 0.0703,2.17969 l -1.54688,0 c 0.0469,-0.70312 0.0703,-1.42968 0.0703,-2.17969 l -2.39063,0 c -0.65625,10e-6 -1.38281,0.0469 -2.17969,0.14063 l 0,-1.40625 c 0.79688,0.0469 1.52344,0.0703 2.17969,0.0703 l 2.39063,0 c -1e-5,-0.89061 -0.0234,-1.64061 -0.0703,-2.25 l 1.54688,0 c -0.0469,0.60939 -0.0703,1.35939 -0.0703,2.25 l 3.72656,0 c -10e-6,-0.93749 -0.0234,-1.68749 -0.0703,-2.25 l 1.61718,0 c -0.0469,0.56251 -0.0703,1.31251 -0.0703,2.25 l 2.25,0 c 0.89061,1e-5 1.71092,-0.0234 2.46094,-0.0703 l 0,1.33593 c -0.75002,-0.0469 -1.57033,-0.0703 -2.46094,-0.0703 l -2.25,0 c -1e-5,0.75001 0.0234,1.47657 0.0703,2.17969 l -1.61718,0 c 0.0469,-0.74999 0.0703,-1.47655 0.0703,-2.17969 z"
         style="font-style:normal;font-variant:normal;font-weight:normal;font-stretch:normal;font-family:SimHei;-inkscape-font-specification:SimHei"
         id="path3026" />
      <path
         d="m 255.29294,572.22559 c 2.81249,2.29688 4.21874,4.73438 4.21875,7.3125 0.0937,3.14062 -1.28907,5.74218 -4.14844,7.80468 l -0.77344,-0.91406 c 2.48437,-1.82812 3.75,-3.98437 3.79688,-6.46875 0.0937,-2.57811 -1.19532,-4.85155 -3.86719,-6.82031 l 0.77344,-0.91406 z"
         style="font-style:normal;font-variant:normal;font-weight:normal;font-stretch:normal;font-family:SimHei;-inkscape-font-specification:SimHei"
         id="path3028" />
    </g>
  </g>
</svg>
