<?xml version="1.0" encoding="UTF-8" standalone="no"?>
<svg
   xmlns:dc="http://purl.org/dc/elements/1.1/"
   xmlns:cc="http://creativecommons.org/ns#"
   xmlns:rdf="http://www.w3.org/1999/02/22-rdf-syntax-ns#"
   xmlns:svg="http://www.w3.org/2000/svg"
   xmlns="http://www.w3.org/2000/svg"
   xmlns:xlink="http://www.w3.org/1999/xlink"
   xmlns:sodipodi="http://sodipodi.sourceforge.net/DTD/sodipodi-0.dtd"
   xmlns:inkscape="http://www.inkscape.org/namespaces/inkscape"
   width="1087"
   height="395"
   version="1.1"
   id="svg2"
   inkscape:version="0.48.1 "
   sodipodi:docname="new-maintenance-model.svg">
  <metadata
     id="metadata141">
    <rdf:RDF>
      <cc:Work
         rdf:about="">
        <dc:format>image/svg+xml</dc:format>
        <dc:type
           rdf:resource="http://purl.org/dc/dcmitype/StillImage" />
      </cc:Work>
    </rdf:RDF>
  </metadata>
  <sodipodi:namedview
     pagecolor="#ffffff"
     bordercolor="#666666"
     borderopacity="1"
     objecttolerance="10"
     gridtolerance="10"
     guidetolerance="10"
     inkscape:pageopacity="0"
     inkscape:pageshadow="2"
     inkscape:window-width="1920"
     inkscape:window-height="1033"
     id="namedview139"
     showgrid="false"
     inkscape:zoom="1.3289991"
     inkscape:cx="543.5"
     inkscape:cy="197.5"
     inkscape:window-x="-4"
     inkscape:window-y="-4"
     inkscape:window-maximized="1"
     inkscape:current-layer="svg2" />
  <defs
     id="defs86">
    <linearGradient
       id="linearGradient5393">
      <stop
         style="stop-color:#ffffff;stop-"
         offset="0"
         id="stop5395" />
      <stop
         style="stop-color:#ffffff;stop-opacity:0;"
         offset="1"
         id="stop5397" />
    </linearGradient>
    <linearGradient
       xlink:href="#linearGradient5393"
       id="linearGradient5399"
       x1="1109.5564"
       y1="41.785362"
       x2="967.62579"
       y2="41.785362"
       gradientUnits="userSpaceOnUse" />
  </defs>
  <rect
     ry="3"
     rx="3"
     y="357"
     x="1"
     height="28"
     width="1037.5"
     style="fill:#71d6e0"
     id="rect9" />
  <path
     d="M 1086,371 1036,357 l 0,28 50,-14 z"
     style="fill:#71d6e0;"
     id="path11" />
  <g
     style="font-size:18.75px;font-weight:600;fill:#5f5f5f;font-family:Open Sans"
     id="text13">
    <path
       d="m 545.5864,364.18447 c -0.0481,1.77728 -0.0721,3.92095 -0.0721,6.43101 -1e-5,2.49253 0.024,4.46854 0.0721,5.92804 l -1.91117,0 0,-1.36471 -2.46963,0 0,2.37007 -1.91059,0 c 0.0477,-2.32429 0.0715,-4.58755 0.0715,-6.78978 0,-2.24646 -0.0238,-4.43801 -0.0715,-6.57463 l 6.29139,0 z m 6.34746,2.15435 c -10e-6,-1.30843 -0.024,-2.64891 -0.0721,-4.02145 l 1.98269,0 c -0.0477,1.32676 -0.0715,2.66725 -0.0715,4.02145 0.60766,10e-6 1.37365,-0.0238 2.29797,-0.0715 l 0,1.73034 c -0.95484,-0.0477 -1.72083,-0.0715 -2.29797,-0.0715 l 0,9.43966 c -2e-5,0.80337 -0.31311,1.30949 -0.93928,1.51834 -0.62619,0.20885 -1.47678,0.36211 -2.55174,0.45977 -2e-5,-0.64659 -0.26323,-1.31913 -0.78965,-2.0176 1.0395,0.0958 1.7063,0.12398 2.00043,0.0847 0.2941,-0.0393 0.44116,-0.29373 0.44117,-0.76332 l 0,-8.72154 c -2.25717,10e-6 -4.26789,0.0238 -6.03218,0.0715 l 0,-1.73034 c 1.60483,0.0477 3.61556,0.0715 6.03218,0.0715 z m -8.25863,7.25327 0,-3.22438 -2.46963,0 0,3.22438 z m 0,-4.81167 0,-3.00865 -2.46963,0 0,3.00865 z m 4.72985,0.71812 c 0.69464,1.08071 1.33494,2.2562 1.92089,3.52649 -0.55772,0.18197 -1.16712,0.42115 -1.8282,0.71755 -0.42649,-1.2146 -1.00461,-2.37674 -1.73435,-3.48645 0.50429,-0.25214 1.05151,-0.50467 1.64166,-0.75759 z"
       style="font-style:normal;font-variant:normal;font-weight:bold;font-stretch:normal;font-family:SimHei;-inkscape-font-specification:SimHei Bold"
       id="path3053" />
    <path
       d="m 569.90223,367.12904 c -0.0477,1.00251 -0.0715,1.85338 -0.0715,2.5526 l 0,3.80631 c -10e-6,0.65079 0.0238,1.45378 0.0715,2.40898 l -7.65553,0 c 0.0477,-0.99068 0.0715,-1.8177 0.0715,-2.48108 l 0,-3.73421 c -10e-6,-0.6626 -0.0238,-1.51347 -0.0715,-2.5526 l 7.65553,0 z m 3.87783,-3.80631 c -0.0477,1.0029 -0.0715,1.97355 -0.0715,2.91195 l 0,10.61668 c 0.0477,1.14365 -0.27562,1.84422 -0.96988,2.10171 -0.69429,0.25749 -1.5053,0.43564 -2.43302,0.53444 -0.0568,-0.6588 -0.25369,-1.35536 -0.59051,-2.08969 1.00745,0.0481 1.61837,0.0135 1.83277,-0.10357 0.21437,-0.11711 0.32156,-0.38051 0.32158,-0.79021 l 0,-11.59401 -4.10729,0 c -1.14251,10e-6 -2.28692,0.0238 -3.43322,0.0715 l 0,-1.73034 c 1.10778,0.0477 2.25218,0.0715 3.43322,0.0715 z m -15.48328,15.87753 c 0.0957,-1.091 0.14362,-2.1574 0.14362,-3.19919 l 0,-7.53994 c 0,-0.98647 -0.0479,-1.8854 -0.14362,-2.6968 l 2.05478,0 c -0.0481,0.82322 -0.0721,1.57853 -0.0721,2.26593 l 0,8.04291 c 0,0.99182 0.024,2.03418 0.0721,3.12709 z m 9.76638,-4.81853 0,-2.29054 -3.97739,0 0,2.29054 z m 0,-3.80573 0,-1.93177 -3.97739,0 0,1.93177 z m -6.69479,-8.47378 c 0.4322,0.57451 1.1465,1.56957 2.14291,2.98519 -0.60693,0.30328 -1.20641,0.60312 -1.79844,0.89951 -0.53788,-1.01737 -1.17379,-1.99794 -1.90773,-2.94171 0.58975,-0.46652 1.11083,-0.78085 1.56326,-0.94299 z"
       style="font-style:normal;font-variant:normal;font-weight:bold;font-stretch:normal;font-family:SimHei;-inkscape-font-specification:SimHei Bold"
       id="path3055" />
  </g>
  <rect
     ry="5"
     rx="5"
     y="169"
     x="1"
     height="166"
     width="968"
     style="fill:#ededed;"
     id="rect15" />
  <rect
     style="fill:#02d35f"
     width="190"
     height="26"
     x="425"
     y="213"
     id="rect17" />
  <rect
     style="fill:#02d35f"
     width="190"
     height="26"
     x="155"
     y="265"
     id="rect19" />
  <g
     style="font-size:18.75px;font-weight:600;fill:#00c081;font-family:Open Sans"
     id="text21">
    <path
       d="m 26.670044,203.12851 c -10e-6,1.2085 -0.434885,2.16065 -1.304627,2.85644 -0.869758,0.69581 -2.079779,1.04371 -3.630065,1.04371 -1.428226,0 -2.691653,-0.26856 -3.790284,-0.80567 l 0,-2.63672 c 0.903319,0.40284 1.667783,0.68665 2.293396,0.85144 0.625607,0.1648 1.197811,0.2472 1.716614,0.2472 0.622553,0 1.100153,-0.11902 1.4328,-0.35706 0.332635,-0.23803 0.498956,-0.59204 0.498963,-1.06201 -7e-6,-0.26245 -0.07325,-0.49591 -0.219727,-0.70038 -0.146491,-0.20446 -0.361639,-0.4013 -0.645447,-0.59051 -0.283819,-0.18921 -0.862126,-0.49133 -1.734924,-0.90638 -0.817874,-0.38451 -1.431277,-0.75377 -1.84021,-1.10779 -0.408937,-0.35399 -0.735475,-0.76598 -0.979614,-1.23596 -0.244142,-0.46996 -0.366212,-1.01927 -0.366211,-1.64795 -1e-6,-1.18407 0.401305,-2.11485 1.203918,-2.79235 0.80261,-0.67748 1.911923,-1.01623 3.327942,-1.01624 0.695795,1e-5 1.359552,0.0824 1.991272,0.24719 0.631706,0.16481 1.292411,0.39674 1.982117,0.6958 l -0.915527,2.20642 c -0.71412,-0.29295 -1.304634,-0.49742 -1.771546,-0.6134 -0.466925,-0.11595 -0.926214,-0.17394 -1.377868,-0.17395 -0.537115,1e-5 -0.949102,0.12513 -1.235962,0.37537 -0.286869,0.25025 -0.430302,0.57679 -0.430298,0.97961 -4e-6,0.25025 0.05798,0.46846 0.17395,0.6546 0.115963,0.18617 0.300594,0.36622 0.553894,0.54016 0.253291,0.17396 0.852961,0.48677 1.799011,0.93842 1.251213,0.59815 2.108757,1.19782 2.572632,1.79901 0.463858,0.6012 0.695791,1.3382 0.695801,2.211 z"
       style="font-size:18.75px;font-weight:600;fill:#00c081;font-family:Open Sans"
       id="path3084" />
    <path
       d="m 29.096191,206.84555 0,-13.38501 2.838135,0 0,11.04126 5.429077,0 0,2.34375 z"
       style="font-size:18.75px;font-weight:600;fill:#00c081;font-family:Open Sans"
       id="path3086" />
    <path
       d="m 47.388428,206.84555 -7.708741,0 0,-13.38501 7.708741,0 0,2.32544 -4.870606,0 0,2.93884 4.531861,0 0,2.32544 -4.531861,0 0,3.45154 4.870606,0 z"
       style="font-size:18.75px;font-weight:600;fill:#00c081;font-family:Open Sans"
       id="path3088" />
    <path
       d="m 58.090942,203.12851 c -9e-6,1.2085 -0.434884,2.16065 -1.304626,2.85644 -0.869758,0.69581 -2.079779,1.04371 -3.630066,1.04371 -1.428226,0 -2.691652,-0.26856 -3.790283,-0.80567 l 0,-2.63672 c 0.903318,0.40284 1.667783,0.68665 2.293396,0.85144 0.625606,0.1648 1.19781,0.2472 1.716614,0.2472 0.622553,0 1.100152,-0.11902 1.4328,-0.35706 0.332635,-0.23803 0.498955,-0.59204 0.498962,-1.06201 -7e-6,-0.26245 -0.07325,-0.49591 -0.219726,-0.70038 -0.146491,-0.20446 -0.36164,-0.4013 -0.645447,-0.59051 -0.283819,-0.18921 -0.862127,-0.49133 -1.734924,-0.90638 -0.817875,-0.38451 -1.431278,-0.75377 -1.84021,-1.10779 -0.408938,-0.35399 -0.735476,-0.76598 -0.979615,-1.23596 -0.244141,-0.46996 -0.366212,-1.01927 -0.366211,-1.64795 -10e-7,-1.18407 0.401305,-2.11485 1.203919,-2.79235 0.802609,-0.67748 1.911922,-1.01623 3.327942,-1.01624 0.695794,1e-5 1.359551,0.0824 1.991272,0.24719 0.631705,0.16481 1.29241,0.39674 1.982116,0.6958 l -0.915527,2.20642 c -0.714119,-0.29295 -1.304634,-0.49742 -1.771545,-0.6134 -0.466926,-0.11595 -0.926215,-0.17394 -1.377869,-0.17395 -0.537114,1e-5 -0.949101,0.12513 -1.235962,0.37537 -0.286869,0.25025 -0.430301,0.57679 -0.430298,0.97961 -3e-6,0.25025 0.05798,0.46846 0.17395,0.6546 0.115963,0.18617 0.300594,0.36622 0.553895,0.54016 0.253291,0.17396 0.85296,0.48677 1.799011,0.93842 1.251213,0.59815 2.108756,1.19782 2.572632,1.79901 0.463857,0.6012 0.695791,1.3382 0.6958,2.211 z"
       style="font-size:18.75px;font-weight:600;fill:#00c081;font-family:Open Sans"
       id="path3090" />
    <path
       d="m 71.448486,206.84555 -2.828979,0 0,-7.74536 0.02747,-1.27258 0.04578,-1.39161 c -0.469975,0.46999 -0.796513,0.77821 -0.979614,0.92469 l -1.538086,1.23596 -1.364136,-1.70288 4.312134,-3.43323 2.325439,0 z"
       style="font-size:18.75px;font-weight:600;fill:#00c081;font-family:Open Sans"
       id="path3092" />
    <path
       d="m 82.141846,206.84555 -2.82898,0 0,-7.74536 0.02747,-1.27258 0.04578,-1.39161 c -0.469975,0.46999 -0.796513,0.77821 -0.979614,0.92469 l -1.538086,1.23596 -1.364136,-1.70288 4.312134,-3.43323 2.32544,0 z"
       style="font-size:18.75px;font-weight:600;fill:#00c081;font-family:Open Sans"
       id="path3094" />
  </g>
  <rect
     style="fill:#02d35f"
     width="190"
     height="26"
     x="20"
     y="291"
     id="rect23" />
  <rect
     style="opacity:0.5;fill:#92ecba"
     width="55"
     height="52"
     x="155"
     y="265"
     id="rect25" />
  <rect
     style="fill:#02d35f"
     width="190"
     height="26"
     x="290"
     y="239"
     id="rect27" />
  <rect
     style="opacity:0.5;fill:#92ecba"
     width="55"
     height="52"
     x="290"
     y="239"
     id="rect29" />
  <rect
     style="opacity:0.5;fill:#92ecba"
     width="55"
     height="52"
     x="425"
     y="213"
     id="rect31" />
  <rect
     style="fill:#02d35f"
     width="230"
     height="26"
     x="560"
     y="187"
     id="rect33" />
  <rect
     style="opacity:0.5;fill:#92ecba"
     width="55"
     height="52"
     x="560"
     y="187"
     id="rect35" />
  <rect
     y="211"
     x="560"
     height="2"
     width="230"
     style="fill:#a7a9ac;fill-opacity:0.58823529"
     id="rect37" />
  <rect
     y="289"
     x="155"
     height="2"
     width="190"
     style="fill:#a7a9ac;fill-opacity:0.58823529"
     id="rect39" />
  <rect
     y="315"
     x="20"
     height="2"
     width="190"
     style="fill:#a7a9ac;fill-opacity:0.58823529"
     id="rect41" />
  <rect
     y="263"
     x="290"
     height="2"
     width="190"
     style="fill:#a7a9ac;fill-opacity:0.58823529"
     id="rect43" />
  <rect
     y="237"
     x="425"
     height="2"
     width="190"
     style="fill:#a7a9ac;fill-opacity:0.58823529"
     id="rect45" />
  <rect
     ry="5"
     rx="5"
     y="11"
     x="510"
     height="166"
     width="574"
     style="fill:#dcddde;"
     id="rect47" />
  <rect
     style="fill:#02d35f"
     width="150"
     height="26"
     x="934"
     y="55"
     id="rect49" />
  <rect
     style="fill:#02d35f"
     width="190"
     height="26"
     x="664"
     y="107"
     id="rect51" />
  <g
     style="font-size:18.75px;font-weight:600;fill:#00c081;font-family:Open Sans"
     id="text53">
    <path
       d="m 535.67004,45.01115 c -10e-6,1.208499 -0.43488,2.160646 -1.30462,2.856446 -0.86976,0.695801 -2.07978,1.043701 -3.63007,1.043701 -1.42822,0 -2.69165,-0.268555 -3.79028,-0.805664 l 0,-2.636719 c 0.90332,0.402835 1.66778,0.686648 2.29339,0.85144 0.62561,0.164798 1.19781,0.247195 1.71662,0.247193 0.62255,2e-6 1.10015,-0.119016 1.4328,-0.357056 0.33263,-0.238034 0.49895,-0.592038 0.49896,-1.062012 -10e-6,-0.262447 -0.0733,-0.495906 -0.21973,-0.700378 -0.14649,-0.204463 -0.36164,-0.401301 -0.64544,-0.590515 -0.28382,-0.189204 -0.86213,-0.491328 -1.73493,-0.906372 -0.81787,-0.384515 -1.43127,-0.753778 -1.84021,-1.107788 -0.40893,-0.353997 -0.73547,-0.765984 -0.97961,-1.235962 -0.24414,-0.469962 -0.36621,-1.019278 -0.36621,-1.647949 0,-1.184071 0.4013,-2.114857 1.20392,-2.792359 0.80261,-0.677477 1.91192,-1.016222 3.32794,-1.016235 0.69579,1.3e-5 1.35955,0.08241 1.99127,0.247192 0.63171,0.164808 1.29241,0.396742 1.98212,0.695801 l -0.91553,2.206421 c -0.71412,-0.292958 -1.30463,-0.497426 -1.77155,-0.613403 -0.46692,-0.115956 -0.92621,-0.173939 -1.37786,-0.173951 -0.53712,1.2e-5 -0.94911,0.125134 -1.23597,0.375367 -0.28687,0.250254 -0.4303,0.576792 -0.43029,0.979614 -1e-5,0.250254 0.058,0.468454 0.17395,0.654602 0.11596,0.186166 0.30059,0.36622 0.55389,0.540161 0.25329,0.173959 0.85296,0.486764 1.79901,0.938416 1.25121,0.598151 2.10876,1.197821 2.57263,1.799011 0.46386,0.601201 0.69579,1.3382 0.6958,2.210998 z"
       style="font-size:18.75px;font-weight:600;fill:#00c081;font-family:Open Sans"
       id="path3058" />
    <path
       d="m 538.09619,48.728191 0,-13.385009 2.83814,0 0,11.041259 5.42907,0 0,2.34375 z"
       style="font-size:18.75px;font-weight:600;fill:#00c081;font-family:Open Sans"
       id="path3060" />
    <path
       d="m 556.38843,48.728191 -7.70874,0 0,-13.385009 7.70874,0 0,2.325439 -4.87061,0 0,2.938843 4.53186,0 0,2.325439 -4.53186,0 0,3.451538 4.87061,0 z"
       style="font-size:18.75px;font-weight:600;fill:#00c081;font-family:Open Sans"
       id="path3062" />
    <path
       d="m 567.09094,45.01115 c -1e-5,1.208499 -0.43488,2.160646 -1.30462,2.856446 -0.86976,0.695801 -2.07978,1.043701 -3.63007,1.043701 -1.42823,0 -2.69165,-0.268555 -3.79028,-0.805664 l 0,-2.636719 c 0.90332,0.402835 1.66778,0.686648 2.29339,0.85144 0.62561,0.164798 1.19781,0.247195 1.71662,0.247193 0.62255,2e-6 1.10015,-0.119016 1.4328,-0.357056 0.33263,-0.238034 0.49895,-0.592038 0.49896,-1.062012 -10e-6,-0.262447 -0.0732,-0.495906 -0.21973,-0.700378 -0.14649,-0.204463 -0.36164,-0.401301 -0.64544,-0.590515 -0.28382,-0.189204 -0.86213,-0.491328 -1.73493,-0.906372 -0.81787,-0.384515 -1.43128,-0.753778 -1.84021,-1.107788 -0.40894,-0.353997 -0.73547,-0.765984 -0.97961,-1.235962 -0.24414,-0.469962 -0.36621,-1.019278 -0.36621,-1.647949 0,-1.184071 0.4013,-2.114857 1.20391,-2.792359 0.80261,-0.677477 1.91193,-1.016222 3.32795,-1.016235 0.69579,1.3e-5 1.35955,0.08241 1.99127,0.247192 0.6317,0.164808 1.29241,0.396742 1.98212,0.695801 l -0.91553,2.206421 c -0.71412,-0.292958 -1.30464,-0.497426 -1.77155,-0.613403 -0.46692,-0.115956 -0.92621,-0.173939 -1.37787,-0.173951 -0.53711,1.2e-5 -0.9491,0.125134 -1.23596,0.375367 -0.28687,0.250254 -0.4303,0.576792 -0.4303,0.979614 0,0.250254 0.058,0.468454 0.17395,0.654602 0.11597,0.186166 0.3006,0.36622 0.5539,0.540161 0.25329,0.173959 0.85296,0.486764 1.79901,0.938416 1.25121,0.598151 2.10876,1.197821 2.57263,1.799011 0.46386,0.601201 0.69579,1.3382 0.6958,2.210998 z"
       style="font-size:18.75px;font-weight:600;fill:#00c081;font-family:Open Sans"
       id="path3064" />
    <path
       d="m 580.44849,48.728191 -2.82898,0 0,-7.745361 0.0275,-1.272583 0.0458,-1.391602 c -0.46998,0.469981 -0.79651,0.778208 -0.97962,0.924683 l -1.53808,1.235962 -1.36414,-1.702881 4.31214,-3.433227 2.32544,0 z"
       style="font-size:18.75px;font-weight:600;fill:#00c081;font-family:Open Sans"
       id="path3066" />
    <path
       d="m 593.50391,48.728191 -9.35669,0 0,-1.968383 3.35998,-3.396607 c 0.99487,-1.019281 1.64489,-1.725762 1.95008,-2.119446 0.30516,-0.393669 0.52489,-0.758353 0.65918,-1.094055 0.13427,-0.335684 0.2014,-0.683584 0.20141,-1.043701 -10e-6,-0.537099 -0.14802,-0.936879 -0.44403,-1.199341 -0.29603,-0.26244 -0.69123,-0.393665 -1.18561,-0.393677 -0.5188,1.2e-5 -1.02234,0.11903 -1.51062,0.357056 -0.48828,0.238048 -0.99793,0.576793 -1.52893,1.016235 l -1.53808,-1.821899 c 0.65917,-0.561511 1.20544,-0.958239 1.63879,-1.190186 0.43335,-0.23192 0.90637,-0.410448 1.41907,-0.535583 0.51269,-0.125109 1.08642,-0.18767 1.72119,-0.187683 0.83617,1.3e-5 1.5747,0.152601 2.21557,0.457764 0.64087,0.305188 1.1383,0.732434 1.49231,1.281738 0.354,0.549328 0.531,1.177989 0.53101,1.885986 -1e-5,0.616465 -0.10835,1.194772 -0.32501,1.734924 -0.21669,0.540169 -0.55238,1.094063 -1.00708,1.661683 -0.45472,0.567633 -1.25581,1.376348 -2.40326,2.426147 l -1.72119,1.620483 0,0.128174 5.83191,0 z"
       style="font-size:18.75px;font-weight:600;fill:#00c081;font-family:Open Sans"
       id="path3068" />
  </g>
  <rect
     style="fill:#02d35f"
     width="190"
     height="26"
     x="529"
     y="133"
     id="rect55" />
  <rect
     style="opacity:0.5;fill:#92ecba"
     width="55"
     height="52"
     x="664"
     y="107"
     id="rect57" />
  <rect
     style="fill:#02d35f"
     width="190"
     height="26"
     x="799"
     y="81"
     id="rect59" />
  <rect
     style="opacity:0.5;fill:#92ecba"
     width="55"
     height="52"
     x="799"
     y="81"
     id="rect61" />
  <rect
     style="opacity:0.5;fill:#92ecba"
     width="55"
     height="52"
     x="934"
     y="55"
     id="rect63" />
  <rect
     style="opacity:0.5;fill:#92ecba"
     width="15"
     height="52"
     x="1069"
     y="29"
     id="rect65" />
  <rect
     y="131"
     x="664"
     height="2"
     width="190"
     style="fill:#a7a9ac;fill-opacity:0.58823529"
     id="rect67" />
  <rect
     y="157"
     x="529"
     height="2"
     width="190"
     style="fill:#a7a9ac;fill-opacity:0.58823529"
     id="rect69" />
  <rect
     y="105"
     x="799"
     height="2"
     width="190"
     style="fill:#a7a9ac;fill-opacity:0.58823529"
     id="rect71" />
  <rect
     y="79"
     x="934"
     height="2"
     width="150"
     style="fill:#a7a9ac;fill-opacity:0.58823529;"
     id="rect73" />
  <circle
     r="18"
     cy="120"
     cx="676"
     style="fill:#00c081"
     id="circle75" />
  <g
     style="font-size:18.75px;fill:#ffffff;font-family:Open Sans"
     id="text77">
    <path
       d="m 671.34558,123.28641 c -1e-5,1.17798 -0.42725,2.09656 -1.28174,2.75573 -0.8545,0.65918 -2.01416,0.98877 -3.479,0.98877 -1.58692,0 -2.80762,-0.20446 -3.66211,-0.6134 l 0,-1.50146 c 0.54931,0.23193 1.14746,0.41504 1.79443,0.54931 0.64697,0.13428 1.28784,0.20142 1.92261,0.20142 1.03759,0 1.81884,-0.19684 2.34375,-0.59052 0.5249,-0.39367 0.78735,-0.94146 0.78735,-1.64337 0,-0.46386 -0.0931,-0.8438 -0.27923,-1.13983 -0.18617,-0.29602 -0.49745,-0.56915 -0.93384,-0.8194 -0.43641,-0.25024 -1.10016,-0.53405 -1.99127,-0.85144 -1.24512,-0.44555 -2.13471,-0.9735 -2.66876,-1.58386 -0.53406,-0.61034 -0.80109,-1.40685 -0.80109,-2.38953 0,-1.03148 0.38757,-1.8524 1.16272,-2.46276 0.77514,-0.61034 1.80053,-0.91552 3.07617,-0.91553 1.33056,1e-5 2.55431,0.24415 3.67127,0.73242 l -0.48523,1.35498 c -1.10475,-0.46385 -2.17897,-0.69579 -3.22266,-0.6958 -0.82398,1e-5 -1.4679,0.17701 -1.93176,0.53101 -0.46387,0.35401 -0.69581,0.84534 -0.6958,1.47399 -10e-6,0.46388 0.0854,0.84383 0.25634,1.13984 0.1709,0.29603 0.45929,0.56763 0.86518,0.81482 0.40588,0.2472 1.02691,0.52033 1.8631,0.81939 1.4038,0.5005 2.36968,1.03761 2.89764,1.61133 0.52794,0.57374 0.79192,1.31836 0.79193,2.23389 z"
       style="font-size:18.75px;fill:#ffffff;font-family:Open Sans"
       id="path3111" />
    <path
       d="m 682.56995,117.36295 c -10e-6,1.35498 -0.46235,2.39716 -1.38703,3.12652 -0.92469,0.72938 -2.24762,1.09406 -3.96881,1.09406 l -1.57471,0 0,5.26428 -1.55639,0 0,-13.38501 3.46985,0 c 3.34471,1e-5 5.01708,1.30006 5.01709,3.90015 z m -6.93055,2.88391 1.40076,0 c 1.37939,0 2.37731,-0.22277 2.99378,-0.66834 0.61644,-0.44555 0.92467,-1.15966 0.92468,-2.14233 -10e-6,-0.885 -0.28993,-1.54418 -0.86975,-1.97754 -0.57984,-0.43334 -1.48316,-0.65001 -2.70996,-0.65003 l -1.73951,0 z"
       style="letter-spacing:-1px"
       id="path3113" />
    <path
       d="m 689.06812,126.84781 -1.48316,0 0,-9.5398 c 0,-0.79344 0.0244,-1.54417 0.0732,-2.25219 -0.12818,0.12818 -0.27161,0.26246 -0.43029,0.40283 -0.1587,0.14039 -0.88502,0.73548 -2.17896,1.78528 l -0.80566,-1.0437 3.54309,-2.73743 1.28174,0 z"
       style="font-size:18.75px;fill:#ffffff;font-family:Open Sans"
       id="path3115" />
  </g>
  <circle
     r="18"
     cy="94"
     cx="811"
     style="fill:#00c081"
     id="circle81" />
  <g
     style="font-size:18.75px;fill:#ffffff;font-family:Open Sans"
     id="text83">
    <path
       d="m 804.51172,97.267151 c -10e-6,1.177981 -0.42726,2.096559 -1.28174,2.755739 -0.8545,0.65918 -2.01417,0.98877 -3.479,0.98877 -1.58692,0 -2.80762,-0.20447 -3.66211,-0.61341 l 0,-1.50146 c 0.54931,0.231935 1.14746,0.41504 1.79443,0.549316 0.64697,0.134279 1.28784,0.201417 1.92261,0.201416 1.03759,1e-6 1.81884,-0.196837 2.34375,-0.590515 0.52489,-0.393675 0.78734,-0.941465 0.78735,-1.643372 -10e-6,-0.463863 -0.0931,-0.843807 -0.27923,-1.139831 -0.18617,-0.296016 -0.49745,-0.569148 -0.93384,-0.819397 -0.43641,-0.250239 -1.10017,-0.534052 -1.99127,-0.851441 -1.24512,-0.44555 -2.13471,-0.973503 -2.66877,-1.583862 -0.53406,-0.610343 -0.80108,-1.406851 -0.80108,-2.389526 0,-1.031483 0.38757,-1.852405 1.16272,-2.462769 0.77514,-0.610338 1.80053,-0.915514 3.07617,-0.915527 1.33056,1.3e-5 2.55431,0.244154 3.67126,0.732422 l -0.48523,1.35498 c -1.10474,-0.463855 -2.17896,-0.695789 -3.22265,-0.695801 -0.82398,1.2e-5 -1.4679,0.177014 -1.93176,0.531006 -0.46387,0.354015 -0.69581,0.845348 -0.69581,1.473999 0,0.463877 0.0854,0.843821 0.25635,1.139832 0.1709,0.296029 0.45929,0.567635 0.86518,0.814819 0.40587,0.2472 1.02691,0.520332 1.86309,0.819397 1.40381,0.500495 2.36969,1.037604 2.89765,1.611328 0.52794,0.573736 0.79192,1.318364 0.79193,2.233887 z"
       style="font-size:18.75px;fill:#ffffff;font-family:Open Sans"
       id="path3104" />
    <path
       d="m 815.73608,91.343689 c -10e-6,1.354989 -0.46235,2.397163 -1.38702,3.126526 -0.92469,0.729376 -2.24763,1.09406 -3.96881,1.094055 l -1.57471,0 0,5.26428 -1.55639,0 0,-13.385008 3.46984,0 c 3.34472,1.4e-5 5.01708,1.300061 5.01709,3.900147 z m -6.93054,2.883911 1.40076,0 c 1.37939,7e-6 2.37731,-0.222771 2.99377,-0.668335 0.61645,-0.445549 0.92468,-1.159659 0.92469,-2.142334 -1e-5,-0.884999 -0.28993,-1.544178 -0.86976,-1.977539 -0.57984,-0.433338 -1.48316,-0.650012 -2.70996,-0.650024 l -1.7395,0 z"
       style="letter-spacing:-0.5px"
       id="path3106" />
    <path
       d="m 825.90198,100.82855 -8.79822,0 0,-1.309202 3.52478,-3.543091 c 1.07421,-1.08642 1.78222,-1.861565 2.12402,-2.325439 0.34179,-0.46386 0.59814,-0.915519 0.76905,-1.354981 0.17089,-0.439444 0.25634,-0.912466 0.25634,-1.419067 0,-0.714101 -0.21668,-1.280201 -0.65002,-1.698303 -0.43336,-0.418079 -1.03455,-0.627124 -1.80359,-0.627136 -0.55542,1.2e-5 -1.08185,0.09156 -1.57928,0.274658 -0.49744,0.183117 -1.05134,0.515758 -1.66169,0.997925 l -0.80566,-1.034546 c 1.23291,-1.025378 2.57568,-1.538073 4.02832,-1.538086 1.25732,1.3e-5 2.24303,0.321973 2.95715,0.965881 0.71411,0.643933 1.07116,1.509105 1.07117,2.59552 -10e-6,0.848398 -0.23805,1.687631 -0.71411,2.5177 -0.47608,0.830085 -1.3672,1.879889 -2.67334,3.149414 l -2.92969,2.865601 0,0.07324 6.88477,0 z"
       style="font-size:18.75px;fill:#ffffff;font-family:Open Sans"
       id="path3108" />
  </g>
  <circle
     r="18"
     cy="146"
     cx="541"
     style="fill:#02a49c"
     id="circle87" />
  <g
     style="font-size:18.75px;font-weight:600;fill:#ffffff;font-family:Open Sans"
     id="text89">
    <path
       d="m 534.20679,145.35068 5.31006,0 0,6.93969 c -0.86061,0.28077 -1.67085,0.4776 -2.43073,0.59052 -0.7599,0.11291 -1.53657,0.16937 -2.33002,0.16937 -2.02027,0 -3.56293,-0.59356 -4.62799,-1.7807 -1.06506,-1.18713 -1.59759,-2.89153 -1.59759,-5.11322 0,-2.16063 0.61798,-3.8452 1.85394,-5.05371 1.23596,-1.20848 2.94952,-1.81273 5.14069,-1.81274 1.37328,10e-6 2.69774,0.27467 3.97339,0.82397 l -0.943,2.27051 c -0.97657,-0.48827 -1.9928,-0.73241 -3.0487,-0.73242 -1.22682,1e-5 -2.20948,0.412 -2.948,1.23596 -0.73853,0.82398 -1.10779,1.93177 -1.10779,3.32336 0,1.45265 0.29754,2.56196 0.89264,3.32795 0.59509,0.76599 1.46026,1.14898 2.59552,1.14898 0.59203,0 1.19323,-0.061 1.80359,-0.1831 l 0,-2.79236 -2.53601,0 z"
       style="font-size:18.75px;font-weight:600;fill:#ffffff;font-family:Open Sans"
       id="path3118" />
    <path
       d="m 550.90601,152.86716 -0.97046,-3.18604 -4.87976,0 -0.97046,3.18604 -3.05786,0 4.72412,-13.43994 3.46985,0 4.74243,13.43994 z m -1.64795,-5.56641 c -0.89723,-2.88695 -1.40229,-4.51964 -1.5152,-4.89807 -0.11292,-0.37841 -0.19379,-0.67748 -0.24262,-0.89722 -0.20142,0.78126 -0.7782,2.71302 -1.73034,5.79529 z"
       style="font-size:18.75px;font-weight:600;fill:#ffffff;font-family:Open Sans"
       id="path3120" />
  </g>
  <circle
     r="18"
     cy="68"
     cx="946"
     style="fill:#00c081"
     id="circle91" />
  <g
     style="font-size:18.75px;fill:#ffffff;font-family:Open Sans"
     id="text93">
    <path
       d="m 939.5575,71.247787 c -10e-6,1.177981 -0.42726,2.09656 -1.28174,2.755738 -0.8545,0.65918 -2.01417,0.988769 -3.47901,0.988769 -1.58691,0 -2.80762,-0.204467 -3.66211,-0.613403 l 0,-1.501465 c 0.54932,0.231935 1.14746,0.415041 1.79444,0.549317 0.64697,0.134278 1.28783,0.201417 1.9226,0.201416 1.0376,10e-7 1.81885,-0.196837 2.34375,-0.590516 0.5249,-0.393674 0.78735,-0.941464 0.78736,-1.643371 -10e-6,-0.463863 -0.0931,-0.843807 -0.27924,-1.139832 -0.18616,-0.296015 -0.49744,-0.569147 -0.93384,-0.819397 -0.4364,-0.250238 -1.10016,-0.534051 -1.99127,-0.85144 -1.24512,-0.44555 -2.1347,-0.973504 -2.66876,-1.583862 -0.53406,-0.610344 -0.80109,-1.406852 -0.80109,-2.389527 0,-1.031483 0.38758,-1.852405 1.16272,-2.462768 0.77515,-0.610339 1.80054,-0.915514 3.07618,-0.915528 1.33056,1.4e-5 2.55431,0.244154 3.67126,0.732422 l -0.48523,1.354981 c -1.10474,-0.463856 -2.17896,-0.695789 -3.22266,-0.695801 -0.82397,1.2e-5 -1.4679,0.177014 -1.93176,0.531006 -0.46387,0.354015 -0.6958,0.845347 -0.6958,1.473999 0,0.463877 0.0855,0.84382 0.25635,1.139831 0.17089,0.29603 0.45928,0.567636 0.86517,0.81482 0.40588,0.2472 1.02691,0.520332 1.8631,0.819397 1.4038,0.500495 2.36968,1.037604 2.89764,1.611328 0.52795,0.573735 0.79193,1.318364 0.79194,2.233886 z"
       style="font-size:18.75px;fill:#ffffff;font-family:Open Sans"
       id="path3097" />
    <path
       d="m 950.78186,65.324326 c -1e-5,1.354988 -0.46235,2.397162 -1.38702,3.126525 -0.92469,0.729376 -2.24763,1.094061 -3.96881,1.094056 l -1.57471,0 0,5.264282 -1.5564,0 0,-13.38501 3.46985,0 c 3.34472,1.3e-5 5.01708,1.300061 5.01709,3.900147 z m -6.93054,2.883911 1.40076,0 c 1.37938,6e-6 2.37731,-0.222772 2.99377,-0.668335 0.61645,-0.445549 0.92467,-1.15966 0.92468,-2.142334 -10e-6,-0.885 -0.28992,-1.544179 -0.86975,-1.977539 -0.57984,-0.433338 -1.48316,-0.650013 -2.70996,-0.650025 l -1.7395,0 z"
       style="letter-spacing:-0.5px"
       id="path3099" />
    <path
       d="m 960.44421,64.573593 c -10e-6,0.854502 -0.23957,1.553354 -0.71869,2.096558 -0.47913,0.54322 -1.15814,0.906379 -2.03704,1.089477 l 0,0.07324 c 1.07421,0.134285 1.87072,0.476081 2.38952,1.025391 0.51879,0.549322 0.77819,1.269536 0.7782,2.160645 -10e-6,1.275637 -0.44251,2.256776 -1.32751,2.94342 -0.88502,0.686646 -2.14234,1.029968 -3.77198,1.029968 -0.70801,0 -1.35651,-0.05341 -1.94549,-0.160217 -0.58899,-0.106811 -1.1612,-0.294494 -1.71662,-0.563049 l 0,-1.446533 c 0.57984,0.286866 1.19782,0.505067 1.85395,0.654602 0.65612,0.149537 1.27715,0.224305 1.8631,0.224304 2.31322,10e-7 3.46984,-0.90637 3.46984,-2.719116 0,-1.62353 -1.27564,-2.435297 -3.8269,-2.435303 l -1.31836,0 0,-1.309204 1.33667,0 c 1.0437,7e-6 1.87072,-0.2304 2.48108,-0.691223 0.61034,-0.460807 0.91552,-1.10015 0.91553,-1.91803 -10e-6,-0.653066 -0.22431,-1.16576 -0.67292,-1.538086 -0.44861,-0.372303 -1.05744,-0.55846 -1.82647,-0.558472 -0.58594,1.2e-5 -1.13831,0.07936 -1.65711,0.238037 -0.5188,0.158704 -1.11084,0.451672 -1.77612,0.878907 l -0.76904,-1.025391 c 0.54931,-0.433337 1.18255,-0.773608 1.89972,-1.020813 0.71716,-0.247179 1.47246,-0.370775 2.26593,-0.370789 1.30004,1.4e-5 2.31017,0.29756 3.03039,0.892639 0.72021,0.595105 1.08031,1.41145 1.08032,2.449036 z"
       style="font-size:18.75px;fill:#ffffff;font-family:Open Sans"
       id="path3101" />
  </g>
  <path
     style="fill:#00c081"
     d="m 1081,24 a 18,18 0 0 0 -18,18 18,18 0 0 0 18,18 18,18 0 0 0 3,-0.253906 l 0,-35.47461 A 18,18 0 0 0 1081,24 Z"
     id="path97" />
  <path
     style="fill:url(#linearGradient5399);"
     d="m 969,11 0,166 110,0 c 2.77,0 5,-2.23 5,-5 l 0,-156 c 0,-2.77 -2.23,-5 -5,-5 z"
     id="path99" />
  <path
     d="m 993.47461,85 c -2.4242,0 -4.27517,0.639281 -5.55469,1.917969 C 986.64052,88.196657 986,90.03234 986,92.425781 c 0,2.360649 0.64052,4.214321 1.91992,5.558594 1.27952,1.344262 3.13049,2.015625 5.55469,2.015625 2.42431,0 4.27718,-0.671363 5.55664,-2.015625 1.31305,-1.37706 1.96875,-3.230731 1.96875,-5.558594 0,-2.295081 -0.6405,-4.098687 -1.91992,-5.410156 C 997.80056,85.671358 995.93256,85 993.47461,85 Z m 25.99999,0 c -2.4242,0 -4.2752,0.639281 -5.5547,1.917969 -1.2794,1.278688 -1.9199,3.114371 -1.9199,5.507812 0,2.360649 0.6405,4.214321 1.9199,5.558594 1.2795,1.344262 3.1305,2.015625 5.5547,2.015625 2.4243,0 4.2753,-0.671363 5.5547,-2.015625 1.3132,-1.37706 1.9707,-3.230731 1.9707,-5.558594 0,-2.295081 -0.6405,-4.098687 -1.9199,-5.410156 C 1023.8006,85.671358 1021.9326,85 1019.4746,85 Z m 26,0 c -2.4242,0 -4.2752,0.639281 -5.5547,1.917969 -1.2794,1.278688 -1.9199,3.114371 -1.9199,5.507812 0,2.360649 0.6405,4.214321 1.9199,5.558594 1.2795,1.344262 3.1305,2.015625 5.5547,2.015625 2.4243,0 4.2753,-0.671363 5.5547,-2.015625 1.3132,-1.37706 1.9707,-3.230731 1.9707,-5.558594 0,-2.295081 -0.6405,-4.098687 -1.9199,-5.410156 C 1049.8006,85.671358 1047.9325,85 1045.4746,85 Z"
     style="fill:#5f5f5f;fill-opacity:0.75"
     id="path101" />
  <circle
     r="18"
     cy="304"
     cx="32"
     style="fill:#02a49c"
     id="circle103" />
  <g
     style="font-size:18.75px;font-weight:600;fill:#ffffff;font-family:Open Sans"
     id="text105">
    <path
       d="m 25.206787,303.35068 5.310059,0 0,6.93969 c -0.860607,0.28077 -1.670848,0.4776 -2.430725,0.59052 -0.759897,0.11291 -1.536569,0.16937 -2.330017,0.16937 -2.020269,0 -3.562931,-0.59356 -4.627991,-1.7807 -1.065065,-1.18713 -1.597597,-2.89153 -1.597595,-5.11322 -2e-6,-2.16063 0.617979,-3.8452 1.853942,-5.05371 1.235958,-1.20848 2.949518,-1.81273 5.140686,-1.81274 1.373282,10e-6 2.697744,0.27467 3.973389,0.82397 l -0.942993,2.27051 c -0.976573,-0.48827 -1.992807,-0.73241 -3.048706,-0.73242 -1.226814,10e-6 -2.209479,0.412 -2.947998,1.23596 -0.73853,0.82398 -1.107792,1.93177 -1.107788,3.32336 -4e-6,1.45265 0.297542,2.56196 0.892639,3.32795 0.595087,0.76599 1.46026,1.14898 2.59552,1.14898 0.592033,0 1.193229,-0.061 1.803589,-0.1831 l 0,-2.79236 -2.536011,0 z"
       style="font-size:18.75px;font-weight:600;fill:#ffffff;font-family:Open Sans"
       id="path3151" />
    <path
       d="m 41.906006,310.86716 -0.970459,-3.18604 -4.879761,0 -0.970459,3.18604 -3.057861,0 4.724121,-13.43994 3.469849,0 4.742431,13.43994 z m -1.647949,-5.56641 c -0.897224,-2.88695 -1.40229,-4.51964 -1.515198,-4.89807 -0.112922,-0.37841 -0.193793,-0.67748 -0.242615,-0.89722 -0.201422,0.78126 -0.778204,2.71302 -1.730347,5.79529 z"
       style="font-size:18.75px;font-weight:600;fill:#ffffff;font-family:Open Sans"
       id="path3153" />
  </g>
  <circle
     r="18"
     cy="278"
     cx="167"
     style="fill:#00c081"
     id="circle107" />
  <g
     style="font-size:18.75px;fill:#ffffff;font-family:Open Sans"
     id="text109">
    <path
       d="m 162.34558,281.28641 c -1e-5,1.17798 -0.42725,2.09656 -1.28174,2.75573 -0.8545,0.65918 -2.01416,0.98877 -3.479,0.98877 -1.58692,0 -2.80762,-0.20446 -3.66211,-0.6134 l 0,-1.50146 c 0.54931,0.23193 1.14746,0.41504 1.79443,0.54931 0.64697,0.13428 1.28784,0.20142 1.92261,0.20142 1.03759,0 1.81884,-0.19684 2.34375,-0.59052 0.5249,-0.39367 0.78735,-0.94146 0.78735,-1.64337 0,-0.46386 -0.0931,-0.8438 -0.27923,-1.13983 -0.18617,-0.29602 -0.49745,-0.56915 -0.93384,-0.8194 -0.43641,-0.25024 -1.10016,-0.53405 -1.99127,-0.85144 -1.24512,-0.44555 -2.13471,-0.9735 -2.66876,-1.58386 -0.53406,-0.61034 -0.80109,-1.40685 -0.80109,-2.38953 0,-1.03148 0.38757,-1.8524 1.16272,-2.46276 0.77514,-0.61034 1.80053,-0.91552 3.07617,-0.91553 1.33056,1e-5 2.55431,0.24415 3.67127,0.73242 l -0.48523,1.35498 c -1.10475,-0.46385 -2.17897,-0.69579 -3.22266,-0.6958 -0.82398,10e-6 -1.4679,0.17701 -1.93176,0.53101 -0.46387,0.35401 -0.69581,0.84534 -0.6958,1.47399 -1e-5,0.46388 0.0854,0.84383 0.25634,1.13984 0.1709,0.29603 0.45929,0.56763 0.86518,0.81482 0.40588,0.2472 1.02691,0.52033 1.8631,0.81939 1.4038,0.5005 2.36968,1.03761 2.89764,1.61133 0.52794,0.57374 0.79192,1.31836 0.79193,2.23389 z"
       style="font-size:18.75px;fill:#ffffff;font-family:Open Sans"
       id="path3144" />
    <path
       d="m 173.56995,275.36295 c -1e-5,1.35498 -0.46235,2.39716 -1.38703,3.12652 -0.92469,0.72938 -2.24762,1.09406 -3.96881,1.09406 l -1.57471,0 0,5.26428 -1.55639,0 0,-13.38501 3.46985,0 c 3.34471,10e-6 5.01708,1.30006 5.01709,3.90015 z m -6.93055,2.88391 1.40076,0 c 1.37939,0 2.37731,-0.22277 2.99378,-0.66834 0.61644,-0.44555 0.92467,-1.15966 0.92468,-2.14233 -1e-5,-0.885 -0.28993,-1.54418 -0.86975,-1.97754 -0.57984,-0.43334 -1.48316,-0.65001 -2.70996,-0.65003 l -1.73951,0 z"
       style="letter-spacing:-1px"
       id="path3146" />
    <path
       d="m 180.06812,284.84781 -1.48316,0 0,-9.5398 c 0,-0.79344 0.0244,-1.54417 0.0732,-2.25219 -0.12818,0.12818 -0.27161,0.26246 -0.43029,0.40283 -0.1587,0.14039 -0.88502,0.73548 -2.17896,1.78528 l -0.80566,-1.0437 3.54309,-2.73743 1.28174,0 z"
       style="font-size:18.75px;fill:#ffffff;font-family:Open Sans"
       id="path3148" />
  </g>
  <circle
     r="18"
     cy="252"
     cx="302"
     style="fill:#00c081"
     id="circle113" />
  <g
     style="font-size:18.75px;fill:#ffffff;font-family:Open Sans"
     id="text115">
    <path
       d="m 295.51172,255.26715 c -1e-5,1.17798 -0.42726,2.09656 -1.28174,2.75574 -0.8545,0.65918 -2.01417,0.98877 -3.479,0.98877 -1.58692,0 -2.80762,-0.20447 -3.66211,-0.61341 l 0,-1.50146 c 0.54931,0.23193 1.14746,0.41504 1.79443,0.54932 0.64697,0.13427 1.28784,0.20141 1.92261,0.20141 1.03759,0 1.81884,-0.19684 2.34375,-0.59051 0.52489,-0.39368 0.78734,-0.94147 0.78735,-1.64337 -10e-6,-0.46387 -0.0931,-0.84381 -0.27923,-1.13984 -0.18617,-0.29601 -0.49745,-0.56914 -0.93384,-0.81939 -0.43641,-0.25024 -1.10017,-0.53405 -1.99127,-0.85144 -1.24512,-0.44555 -2.13471,-0.97351 -2.66877,-1.58387 -0.53406,-0.61034 -0.80108,-1.40685 -0.80108,-2.38952 0,-1.03149 0.38757,-1.85241 1.16272,-2.46277 0.77514,-0.61034 1.80053,-0.91551 3.07617,-0.91553 1.33056,2e-5 2.55431,0.24416 3.67126,0.73242 l -0.48523,1.35498 c -1.10474,-0.46385 -2.17896,-0.69578 -3.22265,-0.6958 -0.82398,2e-5 -1.4679,0.17702 -1.93176,0.53101 -0.46387,0.35401 -0.69581,0.84535 -0.69581,1.474 0,0.46388 0.0855,0.84382 0.25635,1.13983 0.1709,0.29603 0.45929,0.56764 0.86518,0.81482 0.40587,0.2472 1.02691,0.52033 1.86309,0.8194 1.40381,0.50049 2.36969,1.0376 2.89765,1.61132 0.52794,0.57374 0.79192,1.31837 0.79193,2.23389 z"
       style="font-size:18.75px;fill:#ffffff;font-family:Open Sans"
       id="path3137" />
    <path
       d="m 306.73608,249.34369 c -1e-5,1.35499 -0.46235,2.39716 -1.38702,3.12652 -0.92469,0.72938 -2.24763,1.09407 -3.96881,1.09406 l -1.57471,0 0,5.26428 -1.55639,0 0,-13.38501 3.46984,0 c 3.34472,2e-5 5.01708,1.30006 5.01709,3.90015 z m -6.93054,2.88391 1.40076,0 c 1.37939,1e-5 2.37731,-0.22277 2.99377,-0.66833 0.61645,-0.44555 0.92468,-1.15966 0.92469,-2.14234 -10e-6,-0.885 -0.28993,-1.54418 -0.86976,-1.97754 -0.57984,-0.43334 -1.48316,-0.65001 -2.70996,-0.65002 l -1.7395,0 z"
       style="letter-spacing:-0.5px"
       id="path3139" />
    <path
       d="m 316.90198,258.82855 -8.79822,0 0,-1.3092 3.52478,-3.54309 c 1.07421,-1.08642 1.78222,-1.86157 2.12402,-2.32544 0.34179,-0.46386 0.59814,-0.91552 0.76905,-1.35498 0.17089,-0.43945 0.25634,-0.91247 0.25634,-1.41907 0,-0.7141 -0.21668,-1.2802 -0.65002,-1.6983 -0.43336,-0.41808 -1.03455,-0.62713 -1.80359,-0.62714 -0.55542,1e-5 -1.08185,0.0916 -1.57928,0.27466 -0.49744,0.18312 -1.05134,0.51576 -1.66169,0.99792 l -0.80566,-1.03454 c 1.23291,-1.02538 2.57568,-1.53807 4.02832,-1.53809 1.25732,2e-5 2.24303,0.32198 2.95715,0.96588 0.71411,0.64394 1.07116,1.50911 1.07117,2.59552 -10e-6,0.8484 -0.23805,1.68763 -0.71411,2.5177 -0.47608,0.83009 -1.3672,1.87989 -2.67334,3.14942 l -2.92969,2.8656 0,0.0732 6.88477,0 z"
       style="font-size:18.75px;fill:#ffffff;font-family:Open Sans"
       id="path3141" />
  </g>
  <circle
     r="18"
     cy="200"
     cx="572"
     style="fill:#00c081"
     id="circle119" />
  <g
     style="font-size:18.75px;fill:#ffffff;font-family:Open Sans"
     id="text121">
    <path
       d="m 565.19586,203.24779 c -1e-5,1.17798 -0.42725,2.09656 -1.28174,2.75573 -0.8545,0.65918 -2.01416,0.98877 -3.479,0.98877 -1.58692,0 -2.80762,-0.20446 -3.66211,-0.6134 l 0,-1.50146 c 0.54932,0.23193 1.14746,0.41504 1.79443,0.54931 0.64697,0.13428 1.28784,0.20142 1.92261,0.20142 1.03759,0 1.81884,-0.19684 2.34375,-0.59052 0.5249,-0.39367 0.78735,-0.94146 0.78735,-1.64337 0,-0.46386 -0.0931,-0.8438 -0.27923,-1.13983 -0.18617,-0.29602 -0.49744,-0.56915 -0.93384,-0.8194 -0.43641,-0.25024 -1.10016,-0.53405 -1.99127,-0.85144 -1.24512,-0.44555 -2.13471,-0.9735 -2.66876,-1.58386 -0.53406,-0.61034 -0.80109,-1.40685 -0.80109,-2.38953 0,-1.03148 0.38757,-1.8524 1.16272,-2.46276 0.77514,-0.61034 1.80053,-0.91552 3.07617,-0.91553 1.33056,1e-5 2.55432,0.24415 3.67127,0.73242 l -0.48523,1.35498 c -1.10475,-0.46385 -2.17896,-0.69579 -3.22266,-0.6958 -0.82398,10e-6 -1.4679,0.17701 -1.93176,0.53101 -0.46387,0.35401 -0.69581,0.84534 -0.6958,1.47399 -10e-6,0.46388 0.0854,0.84383 0.25635,1.13984 0.17089,0.29603 0.45928,0.56763 0.86517,0.81482 0.40588,0.2472 1.02691,0.52033 1.8631,0.81939 1.4038,0.5005 2.36968,1.03761 2.89764,1.61133 0.52795,0.57374 0.79192,1.31836 0.79193,2.23389 z"
       style="font-size:18.75px;fill:#ffffff;font-family:Open Sans"
       id="path3123" />
    <path
       d="m 576.42023,197.32433 c -10e-6,1.35498 -0.46235,2.39716 -1.38703,3.12652 -0.92469,0.72938 -2.24762,1.09406 -3.96881,1.09406 l -1.5747,0 0,5.26428 -1.5564,0 0,-13.38501 3.46985,0 c 3.34472,1e-5 5.01708,1.30006 5.01709,3.90015 z m -6.93054,2.88391 1.40075,0 c 1.37939,0 2.37731,-0.22277 2.99378,-0.66834 0.61644,-0.44555 0.92467,-1.15966 0.92468,-2.14233 -10e-6,-0.885 -0.28993,-1.54418 -0.86975,-1.97754 -0.57984,-0.43334 -1.48316,-0.65001 -2.70996,-0.65003 l -1.7395,0 z"
       style="letter-spacing:-0.5px"
       id="path3125" />
    <path
       d="m 587.21783,203.73302 -1.98669,0 0,3.07617 -1.45569,0 0,-3.07617 -6.5094,0 0,-1.32752 6.35376,-9.05456 1.61133,0 0,8.99963 1.98669,0 z m -3.44238,-1.38245 0,-4.44946 c -10e-6,-0.8728 0.0305,-1.85851 0.0915,-2.95716 l -0.0732,0 c -0.29297,0.58595 -0.56763,1.07118 -0.82397,1.45569 l -4.18396,5.95093 z"
       style="font-size:18.75px;fill:#ffffff;font-family:Open Sans"
       id="path3127" />
  </g>
  <circle
     r="18"
     cy="226"
     cx="437"
     style="fill:#00c081"
     id="circle125" />
  <g
     style="font-size:18.75px;fill:#ffffff;font-family:Open Sans"
     id="text127">
    <path
       d="m 430.5575,229.24779 c -1e-5,1.17798 -0.42726,2.09656 -1.28174,2.75573 -0.8545,0.65918 -2.01417,0.98877 -3.47901,0.98877 -1.58691,0 -2.80762,-0.20446 -3.66211,-0.6134 l 0,-1.50146 c 0.54932,0.23193 1.14746,0.41504 1.79444,0.54931 0.64697,0.13428 1.28783,0.20142 1.9226,0.20142 1.0376,0 1.81885,-0.19684 2.34375,-0.59052 0.5249,-0.39367 0.78735,-0.94146 0.78736,-1.64337 -1e-5,-0.46386 -0.0931,-0.8438 -0.27924,-1.13983 -0.18616,-0.29602 -0.49744,-0.56915 -0.93384,-0.8194 -0.4364,-0.25024 -1.10016,-0.53405 -1.99127,-0.85144 -1.24512,-0.44555 -2.1347,-0.9735 -2.66876,-1.58386 -0.53406,-0.61034 -0.80109,-1.40685 -0.80109,-2.38953 0,-1.03148 0.38758,-1.8524 1.16272,-2.46276 0.77515,-0.61034 1.80054,-0.91552 3.07618,-0.91553 1.33056,1e-5 2.55431,0.24415 3.67126,0.73242 l -0.48523,1.35498 c -1.10474,-0.46385 -2.17896,-0.69579 -3.22266,-0.6958 -0.82397,10e-6 -1.4679,0.17701 -1.93176,0.53101 -0.46387,0.35401 -0.6958,0.84534 -0.6958,1.47399 0,0.46388 0.0854,0.84383 0.25635,1.13984 0.17089,0.29603 0.45928,0.56763 0.86517,0.81482 0.40588,0.2472 1.02691,0.52033 1.8631,0.81939 1.4038,0.5005 2.36968,1.03761 2.89764,1.61133 0.52795,0.57374 0.79193,1.31836 0.79194,2.23389 z"
       style="font-size:18.75px;fill:#ffffff;font-family:Open Sans"
       id="path3130" />
    <path
       d="m 441.78186,223.32433 c -10e-6,1.35498 -0.46235,2.39716 -1.38702,3.12652 -0.92469,0.72938 -2.24763,1.09406 -3.96881,1.09406 l -1.57471,0 0,5.26428 -1.5564,0 0,-13.38501 3.46985,0 c 3.34472,1e-5 5.01708,1.30006 5.01709,3.90015 z m -6.93054,2.88391 1.40076,0 c 1.37938,0 2.37731,-0.22277 2.99377,-0.66834 0.61645,-0.44555 0.92467,-1.15966 0.92468,-2.14233 -10e-6,-0.885 -0.28992,-1.54418 -0.86975,-1.97754 -0.57984,-0.43334 -1.48316,-0.65001 -2.70996,-0.65003 l -1.7395,0 z"
       style="letter-spacing:-0.5px"
       id="path3132" />
    <path
       d="m 451.44421,222.57359 c -10e-6,0.8545 -0.23957,1.55336 -0.71869,2.09656 -0.47913,0.54322 -1.15814,0.90638 -2.03704,1.08948 l 0,0.0732 c 1.07421,0.13428 1.87072,0.47608 2.38952,1.02539 0.51879,0.54932 0.77819,1.26954 0.7782,2.16065 -10e-6,1.27563 -0.44251,2.25677 -1.32751,2.94342 -0.88502,0.68664 -2.14234,1.02996 -3.77198,1.02996 -0.70801,0 -1.35651,-0.0534 -1.94549,-0.16021 -0.58899,-0.10681 -1.1612,-0.2945 -1.71662,-0.56305 l 0,-1.44654 c 0.57984,0.28687 1.19782,0.50507 1.85395,0.65461 0.65612,0.14953 1.27715,0.2243 1.8631,0.2243 2.31322,0 3.46984,-0.90637 3.46984,-2.71912 0,-1.62353 -1.27564,-2.43529 -3.8269,-2.4353 l -1.31836,0 0,-1.3092 1.33667,0 c 1.0437,1e-5 1.87072,-0.2304 2.48108,-0.69123 0.61034,-0.4608 0.91552,-1.10014 0.91553,-1.91803 -10e-6,-0.65306 -0.22431,-1.16576 -0.67292,-1.53808 -0.44861,-0.3723 -1.05744,-0.55846 -1.82647,-0.55847 -0.58594,1e-5 -1.13831,0.0794 -1.65711,0.23803 -0.5188,0.15871 -1.11084,0.45168 -1.77612,0.87891 l -0.76904,-1.02539 c 0.54931,-0.43334 1.18255,-0.77361 1.89972,-1.02081 0.71716,-0.24718 1.47246,-0.37078 2.26593,-0.37079 1.30004,1e-5 2.31017,0.29756 3.03039,0.89264 0.72021,0.5951 1.08031,1.41145 1.08032,2.44903 z"
       style="font-size:18.75px;fill:#ffffff;font-family:Open Sans"
       id="path3134" />
  </g>
  <rect
     style="fill:#5f5f5f"
     width="178.78485"
     height="36"
     x="170"
     y="169"
     rx="3"
     ry="3"
     id="rect131" />
  <g
     style="font-size:18.75px;fill:#00c081;font-family:Open Sans"
     id="text133">
    <path
       d="m 199.59636,189.21854 c 0.0488,-0.70801 0.1831,-1.30615 0.40283,-1.79444 0.21973,-0.48827 0.54932,-1.09862 0.98877,-1.83105 l 3.00293,-4.6875 1.68457,0 -3.07617,4.83398 c 1.31835,-0.34179 2.36816,-0.29296 3.14941,0.14649 0.78125,0.43946 1.30615,0.93995 1.57471,1.50146 0.26855,0.56153 0.41503,1.17188 0.43945,1.83106 0.0244,0.65918 -0.0733,1.30615 -0.29297,1.94091 -0.21973,0.63477 -0.61036,1.2085 -1.17187,1.7212 -0.56153,0.51269 -1.34278,0.79345 -2.34375,0.84228 -1.00098,0.0488 -1.85547,-0.13428 -2.56348,-0.54932 -0.70801,-0.41503 -1.19629,-1.00097 -1.46484,-1.75781 -0.26856,-0.75683 -0.37842,-1.48925 -0.32959,-2.19726 z m 2.27051,2.41699 c 0.43945,0.46387 1.02538,0.72021 1.75781,0.76904 0.73242,0.0488 1.34277,-0.19531 1.83105,-0.73242 0.48828,-0.53711 0.73242,-1.31836 0.73243,-2.34375 -1e-5,-1.02539 -0.30519,-1.73339 -0.91553,-2.12402 -0.61036,-0.39062 -1.29395,-0.53711 -2.05078,-0.43946 -0.75684,0.0977 -1.30616,0.46388 -1.64795,1.09864 -0.3418,0.63477 -0.48829,1.30615 -0.43945,2.01416 0.0488,0.70801 0.29296,1.29394 0.73242,1.75781 z"
       style="font-style:normal;font-variant:normal;font-weight:normal;font-stretch:normal;font-family:SimHei;-inkscape-font-specification:SimHei"
       id="path3071" />
    <path
       d="m 227.64812,179.80692 c 2.05077,3.02735 4.7119,5.0293 7.9834,6.00585 -0.4883,0.58595 -0.85451,1.14747 -1.09864,1.68457 -3.17384,-1.36717 -5.73731,-3.54002 -7.69043,-6.51855 -1.80665,2.88087 -4.22363,5.12696 -7.25097,6.73828 -0.24415,-0.43944 -0.65918,-0.90331 -1.24512,-1.3916 2.34375,-0.97655 4.16259,-2.22167 5.45654,-3.73535 1.29394,-1.51366 2.16064,-2.88085 2.6001,-4.10156 0.58593,0.24415 1.17186,0.46388 1.75781,0.65918 -0.19532,0.24415 -0.36622,0.46388 -0.51269,0.65918 z m -1.46485,7.25097 c -1e-5,-0.78124 -0.0488,-1.78222 -0.14648,-3.00293 l 1.68457,0 c -0.0488,0.83009 -0.0733,1.85548 -0.0732,3.07617 l 0,5.2002 c -1e-5,1.12305 0.0244,2.27051 0.0732,3.44238 l -1.61133,0 c 0.0488,-1.2207 0.0732,-2.34375 0.0732,-3.36914 z"
       style="font-style:normal;font-variant:normal;font-weight:normal;font-stretch:normal;font-family:SimHei;-inkscape-font-specification:SimHei"
       id="path3073" />
    <path
       d="m 251.7448,179.80692 c -0.0977,1.17188 -0.1465,2.22169 -0.14649,3.14941 l 0,10.40039 c -1e-5,0.92773 -0.24415,1.48926 -0.73242,1.68457 -0.48829,0.19531 -1.44044,0.3418 -2.85644,0.43945 -0.0977,-0.58594 -0.3174,-1.14746 -0.65918,-1.68457 1.0742,0.0488 1.81883,0.0488 2.23388,0 0.41503,-0.0488 0.62255,-0.39062 0.62256,-1.02539 l 0,-3.51562 -8.42285,0 c -0.24415,1.61133 -0.63477,2.9541 -1.17188,4.02832 -0.53711,1.07422 -1.07422,1.85547 -1.61132,2.34375 -0.39063,-0.3418 -0.87891,-0.58594 -1.46485,-0.73242 0.78125,-0.6836 1.40381,-1.50147 1.86768,-2.45362 0.46386,-0.95214 0.75683,-1.89208 0.8789,-2.81982 0.12207,-0.92773 0.18311,-1.95312 0.18311,-3.07617 l 0,-3.22266 c 0,-1.07421 -0.0244,-2.24608 -0.0732,-3.51562 l 11.35254,0 z m -1.53809,4.1748 0,-3.07617 -8.34961,0 0,3.07617 z m 0,4.10156 0,-3.00293 -8.34961,0 0,3.00293 z"
       style="font-style:normal;font-variant:normal;font-weight:normal;font-stretch:normal;font-family:SimHei;-inkscape-font-specification:SimHei"
       id="path3075" />
    <path
       d="m 270.64128,180.53934 c -2.73439,0.24415 -4.56544,0.41505 -5.49316,0.51269 l 0,1.53809 5.05371,0 c 0.68358,10e-6 1.51365,-0.0244 2.49023,-0.0732 l 0,1.31836 c -0.97658,-0.0488 -1.80665,-0.0732 -2.49023,-0.0733 l -5.05371,0 0,1.24512 5.05371,0 c -0.0488,0.73243 -0.0733,1.63575 -0.0732,2.70996 -2e-5,1.07423 0.0244,2.00196 0.0732,2.7832 l -5.05371,0 0,1.24512 3.2959,0 c 0.87889,0 1.80662,-0.0244 2.7832,-0.0732 l 0,1.17187 c -0.92775,-0.0488 -1.83107,-0.0732 -2.70996,-0.0732 l -3.36914,0 0,1.31836 4.76074,0 c 0.83006,0 1.73338,-0.0244 2.70996,-0.0732 l 0,1.24512 c -0.97658,-0.0488 -1.85548,-0.0733 -2.63672,-0.0733 l -10.54687,0 c -0.97657,0 -1.97754,0.0244 -3.00293,0.0733 l 0,-1.24512 c 1.02539,0.0488 2.00195,0.0732 2.92968,0.0732 l 4.32129,0 0,-1.31836 -2.56347,0 c -1.17188,0 -2.2461,0.0244 -3.22266,0.0732 l 0,-1.17187 c 1.26953,0.0488 2.36816,0.0732 3.2959,0.0732 l 2.49023,0 0,-1.24512 -4.90722,0 c 0.0488,-1.22069 0.0732,-2.14843 0.0732,-2.7832 0,-0.63476 -0.0244,-1.53808 -0.0732,-2.70996 l 4.90722,0 0,-1.24512 -4.98047,0 c -0.68359,1e-5 -1.48926,0.0244 -2.41699,0.0733 l 0,-1.31836 c 0.92773,0.0488 1.7334,0.0733 2.41699,0.0732 l 4.98047,0 0,-1.46485 c -0.97657,0.0488 -2.78321,0.17092 -5.41992,0.36622 -0.14649,-0.43944 -0.3418,-0.85448 -0.58594,-1.24512 2.73437,-0.0488 5.16357,-0.18309 7.2876,-0.40283 2.12401,-0.21972 3.64989,-0.47606 4.57764,-0.76905 0.1953,0.4883 0.56151,0.97658 1.09863,1.46485 z m -1.9043,6.66504 0,-1.02539 -3.58886,0 0,1.02539 z m -5.05371,0 0,-1.02539 -3.44238,0 0,1.02539 z m 4.98047,2.12402 0,-0.95215 -3.51562,0 0,0.95215 z m -4.98047,0 0,-0.95215 -3.44238,0 0,0.95215 z"
       style="font-style:normal;font-variant:normal;font-weight:normal;font-stretch:normal;font-family:SimHei;-inkscape-font-specification:SimHei"
       id="path3077" />
    <path
       d="m 276.35417,187.05789 c 0.68359,-0.14648 1.51367,-0.48827 2.49024,-1.02539 -0.43946,-0.14648 -1.17188,-0.34179 -2.19727,-0.58594 0.0977,-0.24413 0.19531,-0.51268 0.29297,-0.80566 1.31835,0.29298 2.31933,0.53712 3.00293,0.73242 0.24413,-0.1953 0.48827,-0.46386 0.73242,-0.80566 l -4.10156,0 -1.09863,0.0732 0,-1.09863 c 0.73242,0.0488 1.44042,0.0733 2.12402,0.0732 l 4.98047,0 c -0.24415,0.43946 -0.5005,0.80567 -0.76905,1.09863 -0.26856,0.29298 -0.57373,0.61036 -0.91552,0.95215 0.92772,0.29298 1.66014,0.56153 2.19726,0.80566 -0.14649,0.1465 -0.36622,0.48829 -0.65918,1.02539 -0.48829,-0.34179 -1.29395,-0.708 -2.41699,-1.09863 -0.29297,0.14649 -0.62256,0.3296 -0.98877,0.54932 -0.36621,0.21973 -0.91553,0.50049 -1.64795,0.84228 l 6.73828,0 c -0.0977,-0.29296 -0.31739,-0.63476 -0.65918,-1.02539 0.83007,-0.0976 1.75781,-0.34179 2.78321,-0.73242 -0.4883,-0.1953 -1.1963,-0.39062 -2.12403,-0.58594 0.0976,-0.24413 0.19531,-0.51268 0.29297,-0.80566 1.41601,0.29298 2.41698,0.53712 3.00293,0.73242 0.39061,-0.1953 0.73241,-0.46386 1.02539,-0.80566 l -4.98047,0 0,-1.02539 c 0.78124,0.0488 1.58691,0.0733 2.417,0.0732 l 2.19726,0 c -0.53712,-0.29296 -1.92872,-0.708 -4.1748,-1.24512 -0.78126,0.24415 -1.58693,0.43947 -2.417,0.58594 -0.83008,0.14649 -1.97754,0.29298 -3.44238,0.43945 -0.0488,-0.34178 -0.21973,-0.68358 -0.51269,-1.02539 0.92773,1e-5 1.77001,-0.0366 2.52685,-0.10986 0.75683,-0.0732 1.45263,-0.1831 2.0874,-0.32959 -0.6836,-0.1953 -1.28174,-0.34179 -1.79443,-0.43945 -0.5127,-0.0976 -1.01319,-0.1953 -1.50146,-0.29297 0.0977,-0.34179 0.1953,-0.65917 0.29296,-0.95215 -0.58594,10e-6 -1.26953,0.0244 -2.05078,0.0732 l 0,-1.09863 c 1.12305,0.0488 2.09961,0.0733 2.92969,0.0732 l 9.00879,0 c -0.68361,0.58595 -1.31837,1.07423 -1.9043,1.46484 -0.58595,0.39064 -1.14747,0.70802 -1.68457,0.95215 0.5371,0.0977 1.08642,0.21974 1.64795,0.36621 0.56151,0.1465 1.25731,0.3174 2.0874,0.5127 -0.0977,0.19532 -0.29298,0.53712 -0.58593,1.02539 l 2.19726,0 c -0.34181,0.43946 -0.69581,0.83009 -1.06201,1.17187 -0.36623,0.34181 -0.76906,0.68361 -1.2085,1.02539 0.97655,0.34181 1.7578,0.61036 2.34375,0.80567 -0.29298,0.3418 -0.53712,0.6836 -0.73242,1.02539 -0.73243,-0.39062 -1.61134,-0.78124 -2.63672,-1.17188 -0.24415,0.0977 -0.64698,0.28077 -1.20849,0.54932 -0.56154,0.26856 -1.15968,0.52491 -1.79444,0.76904 l 7.1045,0 c -0.0489,0.24415 -0.0733,0.53712 -0.0732,0.87891 -1e-5,0.3418 0.0244,0.8545 0.0732,1.53809 l -1.31836,0 0,-1.46485 -13.98926,0 0,1.3916 -1.31836,0 c 0.0488,-0.68359 0.0732,-1.17187 0.0732,-1.46484 0,-0.34179 -0.0244,-0.63476 -0.0732,-0.87891 l 1.97754,0 c -0.0977,-0.1953 -0.29297,-0.43944 -0.58594,-0.73242 z m 12.01172,2.34375 c -0.0488,0.63477 -0.0733,1.22071 -0.0732,1.75781 l 0,3.2959 c 1.31834,0 2.34373,-0.0244 3.07617,-0.0732 l 0,1.17188 c -0.73244,-0.0488 -1.66017,-0.0733 -2.7832,-0.0733 l -10.62012,0 c -0.87891,0 -1.70899,0.0244 -2.49023,0.0733 l 0,-1.17188 c 1.07421,0.0488 2.07519,0.0732 3.00293,0.0732 l 0,-3.22265 c -1e-5,-0.53711 -0.0244,-1.14746 -0.0733,-1.83106 l 9.96094,0 z m -1.24512,3.36914 0,-0.80566 -7.39746,0 0,0.80566 z m 0,-1.68457 0,-0.80566 -7.39746,0 0,0.80566 z m 0,3.36914 0,-0.80566 -7.39746,0 0,0.80566 z m -3.36914,-13.18359 c 0.43945,-0.14647 0.81786,-0.29296 1.13526,-0.43945 0.31737,-0.14648 0.69579,-0.34179 1.13525,-0.58594 l -6.44531,0 1.90429,0.51269 c 0.48828,0.0977 1.24511,0.26857 2.27051,0.5127 z"
       style="font-style:normal;font-variant:normal;font-weight:normal;font-stretch:normal;font-family:SimHei;-inkscape-font-specification:SimHei"
       id="path3079" />
    <path
       d="m 306.96941,194.0159 c 1.12303,0.14648 1.63572,-0.0488 1.53808,-0.58594 l 0,-4.10156 -3.22265,0 c -0.0977,1.17188 -0.36623,2.29492 -0.80567,3.36914 -0.43946,1.07422 -1.07423,2.07519 -1.9043,3.00293 -0.3418,-0.43945 -0.80567,-0.75684 -1.3916,-0.95215 0.83007,-0.83008 1.45263,-1.70898 1.86768,-2.63672 0.41503,-0.92773 0.65917,-1.85546 0.73242,-2.7832 0.0732,-0.92773 0.10985,-2.4414 0.10986,-4.54102 -1e-5,-2.14842 -0.0244,-3.8574 -0.0732,-5.12695 l 6.22559,0 c -0.0488,0.92775 -0.0733,2.05079 -0.0732,3.36914 l 0,10.7666 c -2e-5,0.6836 -0.21975,1.14746 -0.65918,1.3916 -0.43947,0.24414 -1.02541,0.41504 -1.75782,0.5127 -10e-6,-0.53711 -0.19532,-1.09863 -0.58593,-1.68457 z M 295.39714,181.345 c 0,-0.73241 -0.0244,-1.53807 -0.0732,-2.41699 l 1.53808,0 c -0.0488,0.97658 -0.0732,1.78224 -0.0732,2.41699 l 3.2959,0 c -10e-6,-0.92772 -0.0244,-1.73338 -0.0732,-2.41699 l 1.61133,0 c -0.0488,0.83009 -0.0732,1.63575 -0.0732,2.41699 0.34179,1e-5 0.78124,-0.0244 1.31836,-0.0732 l 0,1.24512 c -0.48829,-0.0488 -0.92774,-0.0732 -1.31836,-0.0732 l 0,6.95801 c 0.39062,1e-5 0.83007,-0.0244 1.31836,-0.0732 l 0,1.24512 c -0.92774,-0.0488 -1.83106,-0.0732 -2.70996,-0.0733 l -3.95508,0 c -1.07422,1e-5 -2.00195,0.0244 -2.7832,0.0733 l 0,-1.24512 c 0.73242,0.0488 1.3916,0.0733 1.97754,0.0732 l 0,-6.95801 c -0.43945,2e-5 -0.95215,0.0244 -1.53809,0.0732 l 0,-1.24512 c 0.53711,0.0488 1.04981,0.0733 1.53809,0.0732 z m 13.11035,2.70996 0,-3.2959 -3.14941,0 0,3.2959 z m 0,4.17481 0,-3.07618 -3.14941,0 0,3.07618 z m -11.20605,3.58886 c -0.3418,0.14649 -0.76905,0.57374 -1.28174,1.28174 -0.5127,0.70801 -1.01319,1.33057 -1.50147,1.86768 -0.48828,-0.3418 -0.90332,-0.61035 -1.24511,-0.80567 0.43945,-0.34179 0.90332,-0.81787 1.3916,-1.42822 0.48828,-0.61035 0.8789,-1.20849 1.17187,-1.79443 l 1.46485,0.8789 z m 2.7832,-7.76367 0,-1.61133 -3.2959,0 0,1.61133 z m 0,5.34668 0,-1.61133 -3.2959,0 0,1.61133 z m 0,-2.70996 0,-1.53809 -3.2959,0 0,1.53809 z m 0.87891,7.4707 c -0.78126,-1.17187 -1.39161,-1.95312 -1.83106,-2.34375 0.29296,-0.19531 0.61035,-0.48827 0.95215,-0.8789 0.58593,0.58594 1.26952,1.31836 2.05078,2.19726 -0.39063,0.29297 -0.78126,0.63477 -1.17187,1.02539 z"
       style="font-style:normal;font-variant:normal;font-weight:normal;font-stretch:normal;font-family:SimHei;-inkscape-font-specification:SimHei"
       id="path3081" />
  </g>
  <path
     style="fill:#5f5f5f"
     d="m 190.39243,205 0,54.83984 -2,-0.83984 3.5,10 3.5,-9.8457 -2,0.75195 0,-54.90625 -3,0 z"
     id="path135" />
  <path
     style="fill:#5f5f5f"
     d="m 325.39244,205 0,28.83984 -2,-0.83984 3.5,10 3.5,-9.8457 -2,0.75195 0,-28.90625 -3,0 z"
     id="path137" />
</svg>
