<?xml version="1.0" encoding="UTF-8" standalone="no"?>
<svg
   xmlns:dc="http://purl.org/dc/elements/1.1/"
   xmlns:cc="http://creativecommons.org/ns#"
   xmlns:rdf="http://www.w3.org/1999/02/22-rdf-syntax-ns#"
   xmlns:svg="http://www.w3.org/2000/svg"
   xmlns="http://www.w3.org/2000/svg"
   xmlns:xlink="http://www.w3.org/1999/xlink"
   xmlns:sodipodi="http://sodipodi.sourceforge.net/DTD/sodipodi-0.dtd"
   xmlns:inkscape="http://www.inkscape.org/namespaces/inkscape"
   width="1153"
   height="447"
   version="1.1"
   id="svg191"
   sodipodi:docname="new-maintenance-model+ltss.svg"
   inkscape:version="0.92.4 (5da689c313, 2019-01-14)">
  <sodipodi:namedview
     pagecolor="#ffffff"
     bordercolor="#666666"
     borderopacity="1"
     objecttolerance="10"
     gridtolerance="10"
     guidetolerance="10"
     inkscape:pageopacity="0"
     inkscape:pageshadow="2"
     inkscape:window-width="1920"
     inkscape:window-height="1027"
     id="namedview118"
     showgrid="false"
     inkscape:zoom="1.4080808"
     inkscape:cx="440.92937"
     inkscape:cy="223.5"
     inkscape:window-x="-8"
     inkscape:window-y="-8"
     inkscape:window-maximized="1"
     inkscape:current-layer="svg191" />
  <metadata
     id="metadata195">
    <rdf:RDF>
      <cc:Work
         rdf:about="">
        <dc:format>image/svg+xml</dc:format>
        <dc:type
           rdf:resource="http://purl.org/dc/dcmitype/StillImage" />
        <dc:title />
      </cc:Work>
    </rdf:RDF>
  </metadata>
  <defs
     id="defs86">
    <linearGradient
       id="linearGradient5393">
      <stop
         style="stop-color:#ffffff;stop-"
         offset="0"
         id="stop5395" />
      <stop
         style="stop-color:#ffffff;stop-opacity:0;"
         offset="1"
         id="stop5397" />
    </linearGradient>
    <linearGradient
       xlink:href="#linearGradient5393"
       id="linearGradient5399"
       x1="1109.5564"
       y1="41.785362"
       x2="967.62579"
       y2="41.785362"
       gradientUnits="userSpaceOnUse"
       gradientTransform="matrix(1,0,0,1.1566265,68,-1.72289)" />
  </defs>
  <path
     style="fill:#71d6e0;stroke-width:1.03108311"
     d="M 4.1894531,409 C 2.4225269,409 1,410.338 1,412 v 22 c 0,1.662 1.4225269,3 3.1894531,3 H 1102 l 50,-14 -50,-14 z"
     id="rect7" />
  <g
     aria-label="시간"
     style="font-weight:600;font-size:18.75px;font-family:'Open Sans';fill:#5f5f5f"
     id="text11">
    <path
       d="m 545.1303,415.61125 h -1.93125 v 2.775 c 0,3.2625 -1.7625,6.50625 -4.4625,7.725 l 1.14375,1.6125 c 2.04375,-0.99375 3.54375,-3 4.3125,-5.45625 0.76875,2.2875 2.25,4.1625 4.2,5.08125 l 1.125,-1.5375 c -2.6625,-1.2 -4.3875,-4.3125 -4.3875,-7.425 z m 5.7375,-1.425 v 16.9875 h 1.95 v -16.9875 z"
       style="font-style:normal;font-variant:normal;font-weight:500;font-stretch:normal;font-family:'Noto Sans CJK KR';-inkscape-font-specification:'Noto Sans CJK KR Medium'"
       id="path1098"
       inkscape:connector-curvature="0" />
    <path
       d="m 556.79133,415.49875 v 1.575 h 5.90625 c -0.3375,2.68125 -2.7375,4.875 -6.61875,6.05625 l 0.80625,1.5375 c 4.93125,-1.5 7.9125,-4.6875 7.9125,-9.16875 z m 3.76875,9.73125 h -1.95 v 5.5875 h 11.4 v -1.575 h -9.45 z m 8.775,-6.075 v -4.95 h -1.93125 v 12.2625 h 1.93125 v -5.71875 h 2.41875 V 419.155 Z"
       style="font-style:normal;font-variant:normal;font-weight:500;font-stretch:normal;font-family:'Noto Sans CJK KR';-inkscape-font-specification:'Noto Sans CJK KR Medium'"
       id="path1100"
       inkscape:connector-curvature="0" />
  </g>
  <rect
     ry="5.7831326"
     rx="5.795455"
     y="195"
     x="1"
     height="192"
     width="1122"
     style="fill:#ededed;stroke-width:1.15785813"
     id="rect13" />
  <rect
     style="fill:#02d35f"
     width="190"
     height="26"
     x="425"
     y="265"
     id="rect15" />
  <rect
     style="fill:#02d35f"
     width="190"
     height="26"
     x="155"
     y="317"
     id="rect17" />
  <g
     aria-label="SLES 12"
     style="font-weight:600;font-size:18.75px;font-family:'Open Sans';fill:#00c081"
     id="text19">
    <path
       d="m 26.569336,229.21126 q 0,1.78528 -1.290894,2.80151 -1.290893,1.01624 -3.561401,1.01624 -2.270508,0 -3.717041,-0.70496 v -2.06909 q 0.915527,0.4303 1.940918,0.67749 1.034546,0.24719 1.922607,0.24719 1.300049,0 1.913453,-0.49438 0.622558,-0.49439 0.622558,-1.32752 0,-0.75073 -0.567627,-1.27258 -0.567627,-0.52185 -2.34375,-1.23596 -1.831055,-0.74158 -2.581787,-1.69373 -0.750732,-0.95215 -0.750732,-2.28882 0,-1.67541 1.190185,-2.63672 1.190186,-0.9613 3.195191,-0.9613 1.922607,0 3.826904,0.84229 l -0.695801,1.78527 q -1.785278,-0.75073 -3.186035,-0.75073 -1.062012,0 -1.611328,0.46692 -0.549317,0.45776 -0.549317,1.21765 0,0.52185 0.219727,0.89722 0.219727,0.36621 0.723267,0.6958 0.50354,0.32959 1.812744,0.86975 1.473999,0.6134 2.160644,1.14441 0.686646,0.53101 1.00708,1.19934 0.320435,0.66834 0.320435,1.57471 z"
       style="font-weight:600;font-size:18.75px;font-family:'Open Sans';fill:#00c081"
       id="path1085"
       inkscape:connector-curvature="0" />
    <path
       d="m 29.178589,232.8459 v -13.38501 h 2.18811 v 11.50818 h 5.667114 v 1.87683 z"
       style="font-weight:600;font-size:18.75px;font-family:'Open Sans';fill:#00c081"
       id="path1087"
       inkscape:connector-curvature="0" />
    <path
       d="m 46.930664,232.8459 h -7.571411 v -13.38501 h 7.571411 v 1.84937 h -5.383301 v 3.6438 h 5.044556 v 1.83105 h -5.044556 v 4.20227 h 5.383301 z"
       style="font-weight:600;font-size:18.75px;font-family:'Open Sans';fill:#00c081"
       id="path1089"
       inkscape:connector-curvature="0" />
    <path
       d="m 57.550781,229.21126 q 0,1.78528 -1.290893,2.80151 -1.290894,1.01624 -3.561402,1.01624 -2.270507,0 -3.717041,-0.70496 v -2.06909 q 0.915528,0.4303 1.940918,0.67749 1.034546,0.24719 1.922608,0.24719 1.300049,0 1.913452,-0.49438 0.622558,-0.49439 0.622558,-1.32752 0,-0.75073 -0.567627,-1.27258 -0.567626,-0.52185 -2.34375,-1.23596 -1.831054,-0.74158 -2.581787,-1.69373 -0.750732,-0.95215 -0.750732,-2.28882 0,-1.67541 1.190186,-2.63672 1.190185,-0.9613 3.19519,-0.9613 1.922607,0 3.826904,0.84229 l -0.695801,1.78527 q -1.785278,-0.75073 -3.186035,-0.75073 -1.062011,0 -1.611328,0.46692 -0.549316,0.45776 -0.549316,1.21765 0,0.52185 0.219726,0.89722 0.219727,0.36621 0.723267,0.6958 0.50354,0.32959 1.812744,0.86975 1.473999,0.6134 2.160645,1.14441 0.686645,0.53101 1.00708,1.19934 0.320434,0.66834 0.320434,1.57471 z"
       style="font-weight:600;font-size:18.75px;font-family:'Open Sans';fill:#00c081"
       id="path1091"
       inkscape:connector-curvature="0" />
    <path
       d="m 70.404785,232.8459 h -2.151489 v -8.64258 q 0,-1.54724 0.07324,-2.45361 -0.210571,0.21973 -0.521851,0.48523 -0.302124,0.2655 -2.050781,1.68457 l -1.080322,-1.36414 3.936768,-3.09448 h 1.794433 z"
       style="font-weight:600;font-size:18.75px;font-family:'Open Sans';fill:#00c081"
       id="path1093"
       inkscape:connector-curvature="0" />
    <path
       d="m 83.853882,232.8459 h -9.072876 v -1.62964 l 3.451538,-3.46985 q 1.528931,-1.56555 2.023315,-2.21557 0.50354,-0.65918 0.732422,-1.23596 0.228882,-0.57679 0.228882,-1.23597 0,-0.90637 -0.549316,-1.42822 -0.540161,-0.52185 -1.501465,-0.52185 -0.769043,0 -1.49231,0.28381 -0.714111,0.28382 -1.657104,1.0254 l -1.16272,-1.41907 q 1.116943,-0.943 2.1698,-1.33667 1.052856,-0.39368 2.243042,-0.39368 1.867676,0 2.993774,0.97962 1.126099,0.97045 1.126099,2.6184 0,0.90638 -0.32959,1.72119 -0.320435,0.81482 -0.997925,1.68458 -0.668335,0.86059 -2.233886,2.33459 l -2.32544,2.2522 v 0.0916 h 6.35376 z"
       style="font-weight:600;font-size:18.75px;font-family:'Open Sans';fill:#00c081"
       id="path1095"
       inkscape:connector-curvature="0" />
  </g>
  <rect
     style="fill:#02d35f"
     width="190"
     height="26"
     x="20"
     y="343"
     id="rect21" />
  <rect
     style="opacity:0.5;fill:#92ecba"
     width="55"
     height="52"
     x="155"
     y="317"
     id="rect23" />
  <rect
     style="fill:#02d35f"
     width="190"
     height="26"
     x="290"
     y="291"
     id="rect25" />
  <rect
     style="opacity:0.5;fill:#92ecba"
     width="55"
     height="52"
     x="290"
     y="291"
     id="rect27" />
  <rect
     style="opacity:0.5;fill:#92ecba"
     width="55"
     height="52"
     x="425"
     y="265"
     id="rect29" />
  <rect
     style="fill:#02d35f;stroke-width:0.90889329"
     width="190"
     height="26"
     x="560"
     y="239"
     id="rect31" />
  <rect
     style="opacity:0.5;fill:#92ecba"
     width="55"
     height="52"
     x="560"
     y="239"
     id="rect33" />
  <rect
     style="fill:#a5efc6"
     width="160"
     height="26"
     x="210"
     y="343"
     id="rect35" />
  <rect
     style="fill:#a5efc6"
     width="160"
     height="26"
     x="345"
     y="317"
     id="rect37" />
  <rect
     style="fill:#a5efc6"
     width="160"
     height="26"
     x="480"
     y="291"
     id="rect39" />
  <rect
     style="fill:#a5efc6"
     width="160"
     height="26"
     x="615"
     y="265"
     id="rect41" />
  <rect
     style="fill:#a5efc6"
     width="160"
     height="26"
     x="750"
     y="239"
     id="rect43" />
  <rect
     y="263"
     x="560"
     height="2"
     width="350"
     style="fill:#a7a9ac;fill-opacity:0.58823529;stroke-width:0.94733095"
     id="rect45" />
  <rect
     y="341"
     x="155"
     height="2"
     width="350"
     style="fill:#a7a9ac;fill-opacity:0.58823529"
     id="rect47" />
  <rect
     y="367"
     x="20"
     height="2"
     width="350"
     style="fill:#a7a9ac;fill-opacity:0.58823529"
     id="rect49" />
  <rect
     y="315"
     x="290"
     height="2"
     width="350"
     style="fill:#a7a9ac;fill-opacity:0.58823529"
     id="rect51" />
  <rect
     y="289"
     x="425"
     height="2"
     width="350"
     style="fill:#a7a9ac;fill-opacity:0.58823529"
     id="rect53" />
  <rect
     style="fill:#5f5f5f;stroke-width:0.79058301"
     width="312.51077"
     height="36"
     x="406"
     y="362"
     rx="1.8750646"
     ry="3"
     id="rect55" />
  <g
     aria-label="장기 서비스 팩 지원(LTSS), 최대 3년"
     style="font-size:18.75px;font-family:'Open Sans';fill:#00c081"
     id="text57">
    <path
       d="m 435.95304,379.82045 c -2.475,-0.825 -4.06875,-2.79375 -4.06875,-4.9875 v -0.65625 h 3.7125 v -1.2375 h -9.01875 v 1.2375 h 3.76875 v 0.65625 c 0,2.41875 -1.6875,4.59375 -4.21875,5.475 l 0.7875,1.21875 c 2.00625,-0.7125 3.525,-2.2125 4.2375,-4.125 0.7125,1.66875 2.15625,3 4.06875,3.61875 z m -2.04375,7.44375 c -2.5125,0 -4.0125,-0.69375 -4.0125,-1.89375 0,-1.18125 1.5,-1.875 4.0125,-1.875 2.475,0 3.99375,0.69375 3.99375,1.875 0,1.2 -1.51875,1.89375 -3.99375,1.89375 z m 0,-4.9875 c -3.45,0 -5.55,1.14375 -5.55,3.09375 0,1.96875 2.1,3.1125 5.55,3.1125 3.4125,0 5.53125,-1.14375 5.53125,-3.1125 0,-1.95 -2.11875,-3.09375 -5.53125,-3.09375 z m 5.34375,-6.3375 v -4.2375 h -1.5375 v 10.14375 h 1.5375 v -4.6125 h 2.49375 v -1.29375 z"
       style="font-style:normal;font-variant:normal;font-weight:normal;font-stretch:normal;font-family:'Noto Sans CJK KR';-inkscape-font-specification:'Noto Sans CJK KR'"
       id="path974"
       inkscape:connector-curvature="0" />
    <path
       d="m 444.44532,373.5017 v 1.2375 h 6.31875 c -0.31875,3.99375 -2.56875,7.21875 -7.0875,9.375 l 0.825,1.25625 c 5.5875,-2.7375 7.81875,-7.0125 7.81875,-11.86875 z m 11.26875,-1.81875 v 16.81875 h 1.5375 v -16.81875 z"
       style="font-style:normal;font-variant:normal;font-weight:normal;font-stretch:normal;font-family:'Noto Sans CJK KR';-inkscape-font-specification:'Noto Sans CJK KR'"
       id="path976"
       inkscape:connector-curvature="0" />
    <path
       d="m 471.82443,373.1267 h -1.5375 v 3.01875 c 0,3.1125 -1.9125,6.35625 -4.35,7.575 l 0.9375,1.21875 c 1.89375,-1.0125 3.45,-3.13125 4.18125,-5.625 0.76875,2.3625 2.30625,4.36875 4.21875,5.325 l 0.9,-1.21875 c -2.4375,-1.1625 -4.35,-4.21875 -4.35,-7.275 z m 6.43125,-1.44375 v 5.7 h -3.9 v 1.25625 h 3.9 v 9.88125 h 1.5375 v -16.8375 z"
       style="font-style:normal;font-variant:normal;font-weight:normal;font-stretch:normal;font-family:'Noto Sans CJK KR';-inkscape-font-specification:'Noto Sans CJK KR'"
       id="path978"
       inkscape:connector-curvature="0" />
    <path
       d="m 495.41046,371.68295 v 16.8375 h 1.5375 v -16.8375 z m -11.26875,1.425 v 11.34375 h 7.9125 v -11.34375 h -1.51875 v 4.44375 h -4.875 v -4.44375 z m 1.51875,5.6625 h 4.875 v 4.425 h -4.875 z"
       style="font-style:normal;font-variant:normal;font-weight:normal;font-stretch:normal;font-family:'Noto Sans CJK KR';-inkscape-font-specification:'Noto Sans CJK KR'"
       id="path980"
       inkscape:connector-curvature="0" />
    <path
       d="m 514.92775,380.1392 c -2.94375,-0.5625 -6.13125,-3.1125 -6.13125,-5.98125 v -1.29375 h -1.6125 v 1.29375 c 0,2.86875 -3.16875,5.4 -6.1125,5.98125 l 0.69375,1.275 c 2.53125,-0.6 5.15625,-2.4 6.225,-4.85625 1.06875,2.475 3.69375,4.275 6.24375,4.85625 z m -14.49375,4.8375 v 1.275 h 15.24375 v -1.275 z"
       style="font-style:normal;font-variant:normal;font-weight:normal;font-stretch:normal;font-family:'Noto Sans CJK KR';-inkscape-font-specification:'Noto Sans CJK KR'"
       id="path982"
       inkscape:connector-curvature="0" />
    <path
       d="m 525.9756,374.42045 h 2.15625 v 5.1375 c -0.7125,0.0375 -1.4625,0.0562 -2.15625,0.075 z m 5.325,4.875 c -0.54375,0.075 -1.14375,0.13125 -1.7625,0.16875 v -5.04375 h 1.425 v -1.25625 h -7.8375 v 1.25625 h 1.44375 v 5.25 c -0.6375,0 -1.21875,0 -1.725,0 l 0.16875,1.275 c 2.2125,0 5.71875,-0.0562 8.38125,-0.525 z m -5.625,4.6875 h 9.9 v 4.5375 h 1.5375 v -5.775 h -11.4375 z m 9.975,-12.28125 v 4.3875 h -2.1 v -4.10625 h -1.44375 v 9.80625 h 1.44375 v -4.425 h 2.1 v 4.51875 h 1.4625 V 371.7017 Z"
       style="font-style:normal;font-variant:normal;font-weight:normal;font-stretch:normal;font-family:'Noto Sans CJK KR';-inkscape-font-specification:'Noto Sans CJK KR'"
       id="path984"
       inkscape:connector-curvature="0" />
    <path
       d="m 551.4047,374.68295 h 3.95625 v -1.275 h -9.39375 v 1.275 h 3.9 v 2.1375 c 0,2.90625 -2.04375,6.075 -4.4625,7.21875 l 0.9,1.2375 c 1.9125,-0.975 3.5625,-3.09375 4.33125,-5.55 0.80625,2.30625 2.45625,4.2375 4.40625,5.1375 l 0.8625,-1.2375 c -2.475,-1.05 -4.5,-3.95625 -4.5,-6.80625 z m 6.225,-2.98125 v 16.8 h 1.5375 v -16.8 z"
       style="font-style:normal;font-variant:normal;font-weight:normal;font-stretch:normal;font-family:'Noto Sans CJK KR';-inkscape-font-specification:'Noto Sans CJK KR'"
       id="path986"
       inkscape:connector-curvature="0" />
    <path
       d="m 571.46573,381.62045 v 1.14375 h 3.4125 v 1.725 h 1.5375 v -12.80625 h -1.5375 v 9.9375 z m -3.43125,-8.11875 c 1.59375,0 2.68125,0.7125 2.68125,1.78125 0,1.0875 -1.0875,1.8 -2.68125,1.8 -1.59375,0 -2.68125,-0.7125 -2.68125,-1.8 0,-1.06875 1.0875,-1.78125 2.68125,-1.78125 z m 0,4.725 c 2.45625,0 4.14375,-1.14375 4.14375,-2.94375 0,-1.7625 -1.6875,-2.925 -4.14375,-2.925 -2.45625,0 -4.14375,1.1625 -4.14375,2.925 0,1.8 1.6875,2.94375 4.14375,2.94375 z m -0.6,5.6625 h 1.5375 v -3.31875 c 1.51875,-0.0937 3.075,-0.2625 4.55625,-0.4875 l -0.13125,-1.10625 c -3.5625,0.45 -7.725,0.4875 -10.8375,0.4875 l 0.20625,1.275 c 1.3875,0 3,-0.0187 4.66875,-0.0937 z m -0.9375,2.98125 v -3.6375 h -1.5375 v 4.89375 h 11.8875 v -1.25625 z"
       style="font-style:normal;font-variant:normal;font-weight:normal;font-stretch:normal;font-family:'Noto Sans CJK KR';-inkscape-font-specification:'Noto Sans CJK KR'"
       id="path988"
       inkscape:connector-curvature="0" />
    <path
       d="m 579.65875,381.97809 q 0,-2.42615 0.70496,-4.54102 0.71411,-2.11487 2.05078,-3.70788 h 1.48315 q -1.31836,1.76696 -1.98669,3.88183 -0.65918,2.11487 -0.65918,4.34876 0,2.19726 0.67749,4.29382 0.67749,2.09656 1.95007,3.82691 h -1.46484 q -1.34583,-1.5564 -2.05078,-3.63465 -0.70496,-2.07825 -0.70496,-4.46777 z"
       style="font-size:18.75px;font-family:'Open Sans';fill:#00c081"
       id="path990"
       inkscape:connector-curvature="0" />
    <path
       d="m 586.31464,387.1142 v -13.38501 h 1.55639 v 11.97509 h 5.90515 v 1.40992 z"
       style="font-size:18.75px;font-family:'Open Sans';fill:#00c081"
       id="path992"
       inkscape:connector-curvature="0" />
    <path
       d="m 600.17572,387.1142 h -1.5564 v -12.00257 h -4.23889 v -1.38244 h 10.03418 v 1.38244 h -4.23889 z"
       style="font-size:18.75px;font-family:'Open Sans';fill:#00c081"
       id="path994"
       inkscape:connector-curvature="0" />
    <path
       d="m 613.97272,383.5528 q 0,1.76696 -1.28174,2.75573 -1.28174,0.98877 -3.479,0.98877 -2.38038,0 -3.66211,-0.6134 v -1.50147 q 0.82397,0.3479 1.79443,0.54932 0.97046,0.20142 1.92261,0.20142 1.55639,0 2.34375,-0.58594 0.78735,-0.59509 0.78735,-1.64795 0,-0.6958 -0.28381,-1.13525 -0.27466,-0.44861 -0.93384,-0.82398 -0.65003,-0.37536 -1.9867,-0.85144 -1.86767,-0.66833 -2.67334,-1.58386 -0.7965,-0.91553 -0.7965,-2.38953 0,-1.54724 1.16272,-2.46277 1.16272,-0.91552 3.07617,-0.91552 1.99585,0 3.67126,0.73242 l -0.48523,1.35498 q -1.6571,-0.6958 -3.22265,-0.6958 -1.23597,0 -1.93177,0.531 -0.6958,0.53101 -0.6958,1.474 0,0.6958 0.25635,1.14441 0.25635,0.43946 0.8606,0.81482 0.6134,0.36621 1.86767,0.81482 2.10571,0.75073 2.89307,1.61133 0.79651,0.86059 0.79651,2.23389 z"
       style="font-size:18.75px;font-family:'Open Sans';fill:#00c081"
       id="path996"
       inkscape:connector-curvature="0" />
    <path
       d="m 624.26324,383.5528 q 0,1.76696 -1.28173,2.75573 -1.28174,0.98877 -3.47901,0.98877 -2.38037,0 -3.66211,-0.6134 v -1.50147 q 0.82398,0.3479 1.79444,0.54932 0.97046,0.20142 1.9226,0.20142 1.5564,0 2.34375,-0.58594 0.78736,-0.59509 0.78736,-1.64795 0,-0.6958 -0.28382,-1.13525 -0.27465,-0.44861 -0.93383,-0.82398 -0.65003,-0.37536 -1.9867,-0.85144 -1.86767,-0.66833 -2.67334,-1.58386 -0.79651,-0.91553 -0.79651,-2.38953 0,-1.54724 1.16272,-2.46277 1.16272,-0.91552 3.07617,-0.91552 1.99585,0 3.67127,0.73242 l -0.48523,1.35498 q -1.6571,-0.6958 -3.22266,-0.6958 -1.23596,0 -1.93176,0.531 -0.6958,0.53101 -0.6958,1.474 0,0.6958 0.25635,1.14441 0.25635,0.43946 0.86059,0.81482 0.61341,0.36621 1.86768,0.81482 2.10571,0.75073 2.89307,1.61133 0.7965,0.86059 0.7965,2.23389 z"
       style="font-size:18.75px;font-family:'Open Sans';fill:#00c081"
       id="path998"
       inkscape:connector-curvature="0" />
    <path
       d="m 629.95782,381.97809 q 0,2.40784 -0.71411,4.48608 -0.70495,2.07825 -2.04162,3.61634 h -1.46485 q 1.27259,-1.7212 1.95008,-3.81775 0.67749,-2.10572 0.67749,-4.30298 0,-2.23389 -0.66834,-4.34876 -0.65918,-2.11487 -1.97754,-3.88183 h 1.48316 q 1.34582,1.60217 2.05078,3.72619 0.70495,2.11487 0.70495,4.52271 z"
       style="font-size:18.75px;font-family:'Open Sans';fill:#00c081"
       id="path1000"
       inkscape:connector-curvature="0" />
    <path
       d="m 632.13312,390.2642 c 1.6875,-0.69375 2.7375,-2.11875 2.7375,-3.9375 0,-1.21875 -0.525,-2.00625 -1.44375,-2.00625 -0.69375,0 -1.29375,0.45 -1.29375,1.2 0,0.76875 0.6,1.2 1.25625,1.2 0.075,0 0.13125,0 0.20625,-0.0188 0,1.14375 -0.7125,2.0625 -1.875,2.56875 z"
       style="font-style:normal;font-variant:normal;font-weight:normal;font-stretch:normal;font-family:'Noto Sans CJK KR';-inkscape-font-specification:'Noto Sans CJK KR'"
       id="path1002"
       inkscape:connector-curvature="0" />
    <path
       d="m 643.50675,381.13295 c 2.00625,-0.6375 3.5625,-1.96875 4.29375,-3.73125 0.76875,1.66875 2.30625,2.94375 4.29375,3.54375 l 0.7125,-1.18125 c -2.45625,-0.73125 -4.21875,-2.5125 -4.25625,-4.65 h 3.88125 v -1.2375 h -3.88125 v -2.0625 h -1.5375 v 2.0625 h -3.825 v 1.2375 h 3.825 c -0.0375,2.2125 -1.74375,4.06875 -4.21875,4.81875 z m 5.04375,-0.5625 h -1.5375 v 3.13125 c -1.70625,0.0562 -3.3375,0.0562 -4.725,0.0562 l 0.20625,1.29375 c 3,-0.0187 7.125,-0.0375 10.89375,-0.73125 l -0.13125,-1.14375 c -1.5,0.24375 -3.13125,0.35625 -4.70625,0.45 z m 5.8125,-8.8875 v 16.8375 h 1.5375 v -16.8375 z"
       style="font-style:normal;font-variant:normal;font-weight:normal;font-stretch:normal;font-family:'Noto Sans CJK KR';-inkscape-font-specification:'Noto Sans CJK KR'"
       id="path1004"
       inkscape:connector-curvature="0" />
    <path
       d="m 661.56154,374.98295 h 4.74375 v -1.25625 h -6.2625 v 10.63125 h 1.10625 c 2.5125,0 4.21875,-0.075 6.225,-0.50625 l -0.13125,-1.275 c -1.8375,0.39375 -3.43125,0.4875 -5.68125,0.50625 z m 10.6875,-3.3 v 6.75 h -2.38125 v -6.375 h -1.44375 v 15.6 h 1.44375 v -7.96875 h 2.38125 v 8.8125 h 1.48125 v -16.81875 z"
       style="font-style:normal;font-variant:normal;font-weight:normal;font-stretch:normal;font-family:'Noto Sans CJK KR';-inkscape-font-specification:'Noto Sans CJK KR'"
       id="path1006"
       inkscape:connector-curvature="0" />
    <path
       d="m 689.77838,376.8786 q 0,1.28174 -0.72327,2.09656 -0.71411,0.81482 -2.03247,1.08948 v 0.0732 q 1.61133,0.20141 2.38953,1.02539 0.7782,0.82397 0.7782,2.16064 0,1.91346 -1.32752,2.948 -1.32751,1.02539 -3.77197,1.02539 -1.06201,0 -1.95007,-0.16479 -0.87891,-0.15564 -1.71204,-0.55847 v -1.44654 q 0.86975,0.4303 1.84937,0.65918 0.98877,0.21973 1.86767,0.21973 3.46985,0 3.46985,-2.71912 0,-2.4353 -3.8269,-2.4353 h -1.31836 v -1.3092 h 1.33667 q 1.56555,0 2.48108,-0.68665 0.91552,-0.6958 0.91552,-1.92261 0,-0.97961 -0.67749,-1.53808 -0.66833,-0.55847 -1.8219,-0.55847 -0.8789,0 -1.6571,0.23803 -0.7782,0.23804 -1.77612,0.87891 l -0.76905,-1.02539 q 0.82398,-0.65003 1.89515,-1.01624 1.08032,-0.37536 2.2705,-0.37536 1.95008,0 3.0304,0.89721 1.08032,0.88806 1.08032,2.44446 z"
       style="font-size:18.75px;font-family:'Open Sans';fill:#00c081"
       id="path1008"
       inkscape:connector-curvature="0" />
    <path
       d="m 704.59191,384.1517 h 1.55625 v -12.45 h -1.55625 v 2.175 h -4.74375 v 1.2375 h 4.74375 v 1.9875 h -4.74375 v 1.21875 h 4.74375 z m -2.775,-4.3875 c -2.5125,0.45 -4.70625,0.58125 -7.0125,0.6 v -7.4625 h -1.5375 v 8.75625 h 1.275 c 2.475,0 4.74375,-0.13125 7.44375,-0.61875 z m -4.9125,7.10625 v -3.7875 h -1.5375 v 5.04375 h 11.2125 v -1.25625 z"
       style="font-style:normal;font-variant:normal;font-weight:normal;font-stretch:normal;font-family:'Noto Sans CJK KR';-inkscape-font-specification:'Noto Sans CJK KR'"
       id="path1010"
       inkscape:connector-curvature="0" />
  </g>
  <path
     d="m 419.67562,392 -47.49269,-27.41992 -0.27268,2.15197 -6.91025,-8.03109 10.27663,1.89177 -1.65121,1.35607 47.5502,27.45312 z"
     style="fill:#5f5f5f;stroke:none"
     id="path59" />
  <path
     d="M 427,362 V 338.16016 L 425,339 l 3.5,-10 3.5,9.84571 -2,-0.75196 V 362 Z"
     style="fill:#5f5f5f;stroke:none"
     id="path61" />
  <rect
     ry="5.7831326"
     rx="5.5923343"
     y="11"
     x="510"
     height="192"
     width="642"
     style="fill:#dcddde;stroke-width:1.13738668"
     id="rect67" />
  <rect
     style="fill:#02d35f;stroke-width:1.12546289"
     width="190"
     height="26"
     x="934"
     y="81"
     id="rect69" />
  <rect
     style="fill:#02d35f"
     width="190"
     height="26"
     x="664"
     y="133"
     id="rect71" />
  <g
     aria-label="SLES 15"
     style="font-weight:600;font-size:18.75px;font-family:'Open Sans';fill:#00c081"
     id="text73">
    <path
       d="m 535.56934,45.093254 q 0,1.785278 -1.2909,2.801514 -1.29089,1.016235 -3.5614,1.016235 -2.27051,0 -3.71704,-0.704956 v -2.069092 q 0.91553,0.430298 1.94092,0.67749 1.03454,0.247193 1.92261,0.247193 1.30004,0 1.91345,-0.494385 0.62256,-0.494385 0.62256,-1.327515 0,-0.750732 -0.56763,-1.272583 -0.56763,-0.52185 -2.34375,-1.235961 -1.83106,-0.741578 -2.58179,-1.693726 -0.75073,-0.952148 -0.75073,-2.288818 0,-1.675415 1.19019,-2.636719 1.19018,-0.961304 3.19519,-0.961304 1.9226,0 3.8269,0.842285 l -0.6958,1.785279 q -1.78528,-0.750733 -3.18604,-0.750733 -1.06201,0 -1.61132,0.466919 -0.54932,0.457764 -0.54932,1.217652 0,0.52185 0.21973,0.897216 0.21972,0.366211 0.72326,0.695801 0.50354,0.32959 1.81275,0.869751 1.474,0.613403 2.16064,1.144409 0.68665,0.531006 1.00708,1.199341 0.32044,0.668335 0.32044,1.574707 z"
       style="font-weight:600;font-size:18.75px;font-family:'Open Sans';fill:#00c081"
       id="path935"
       inkscape:connector-curvature="0" />
    <path
       d="m 538.17859,48.727898 v -13.38501 h 2.18811 v 11.508179 h 5.66711 v 1.876831 z"
       style="font-weight:600;font-size:18.75px;font-family:'Open Sans';fill:#00c081"
       id="path937"
       inkscape:connector-curvature="0" />
    <path
       d="m 555.93066,48.727898 h -7.57141 v -13.38501 h 7.57141 v 1.849365 h -5.3833 v 3.643799 h 5.04456 v 1.831055 h -5.04456 v 4.20227 h 5.3833 z"
       style="font-weight:600;font-size:18.75px;font-family:'Open Sans';fill:#00c081"
       id="path939"
       inkscape:connector-curvature="0" />
    <path
       d="m 566.55078,45.093254 q 0,1.785278 -1.29089,2.801514 -1.2909,1.016235 -3.5614,1.016235 -2.27051,0 -3.71704,-0.704956 v -2.069092 q 0.91552,0.430298 1.94091,0.67749 1.03455,0.247193 1.92261,0.247193 1.30005,0 1.91345,-0.494385 0.62256,-0.494385 0.62256,-1.327515 0,-0.750732 -0.56763,-1.272583 -0.56762,-0.52185 -2.34375,-1.235961 -1.83105,-0.741578 -2.58178,-1.693726 -0.75074,-0.952148 -0.75074,-2.288818 0,-1.675415 1.19019,-2.636719 1.19019,-0.961304 3.19519,-0.961304 1.92261,0 3.82691,0.842285 l -0.69581,1.785279 q -1.78527,-0.750733 -3.18603,-0.750733 -1.06201,0 -1.61133,0.466919 -0.54932,0.457764 -0.54932,1.217652 0,0.52185 0.21973,0.897216 0.21973,0.366211 0.72327,0.695801 0.50354,0.32959 1.81274,0.869751 1.474,0.613403 2.16065,1.144409 0.68664,0.531006 1.00708,1.199341 0.32043,0.668335 0.32043,1.574707 z"
       style="font-weight:600;font-size:18.75px;font-family:'Open Sans';fill:#00c081"
       id="path941"
       inkscape:connector-curvature="0" />
    <path
       d="M 579.40479,48.727898 H 577.2533 V 40.08532 q 0,-1.547242 0.0732,-2.453614 -0.21057,0.219727 -0.52185,0.48523 -0.30213,0.265503 -2.05078,1.68457 l -1.08033,-1.364136 3.93677,-3.094482 h 1.79444 z"
       style="font-weight:600;font-size:18.75px;font-family:'Open Sans';fill:#00c081"
       id="path943"
       inkscape:connector-curvature="0" />
    <path
       d="m 588.32202,40.369133 q 2.02332,0 3.20435,1.071167 1.18103,1.071167 1.18103,2.920532 0,2.142334 -1.34583,3.35083 -1.33667,1.199341 -3.80859,1.199341 -2.24304,0 -3.52478,-0.723266 v -1.950074 q 0.74158,0.421143 1.70288,0.650025 0.9613,0.228882 1.78528,0.228882 1.45569,0 2.21557,-0.650025 0.75989,-0.650024 0.75989,-1.904297 0,-2.398681 -3.05786,-2.398681 -0.4303,0 -1.06201,0.09155 -0.63172,0.0824 -1.10779,0.192261 l -0.9613,-0.567627 0.51269,-6.536865 h 6.95801 v 1.913452 h -5.06287 l -0.30212,3.314209 q 0.32043,-0.05493 0.7782,-0.128174 0.46692,-0.07324 1.13525,-0.07324 z"
       style="font-weight:600;font-size:18.75px;font-family:'Open Sans';fill:#00c081"
       id="path945"
       inkscape:connector-curvature="0" />
  </g>
  <rect
     style="fill:#02d35f"
     width="190"
     height="26"
     x="529"
     y="159"
     id="rect75" />
  <rect
     style="opacity:0.5;fill:#92ecba"
     width="55"
     height="52"
     x="664"
     y="133"
     id="rect77" />
  <rect
     style="fill:#02d35f"
     width="190"
     height="26"
     x="799"
     y="107"
     id="rect79" />
  <rect
     style="opacity:0.5;fill:#92ecba"
     width="55"
     height="52"
     x="799"
     y="107"
     id="rect81" />
  <rect
     style="opacity:0.5;fill:#92ecba"
     width="55"
     height="52"
     x="934"
     y="81"
     id="rect83" />
  <path
     d="M 331,334 V 311.16016 L 329,312 l 3.5,-10 3.5,9.84571 -2,-0.75196 V 334 Z"
     style="fill:#fd9a2b;stroke:none"
     id="path85" />
  <rect
     style="fill:#a5efc6"
     width="160"
     height="26"
     x="719"
     y="159"
     id="rect89" />
  <rect
     style="fill:#a5efc6"
     width="160"
     height="26"
     x="854"
     y="133"
     id="rect91" />
  <rect
     style="fill:#a5efc6;stroke-width:1.29777133"
     width="160"
     height="26"
     x="989"
     y="-133"
     id="rect93"
     transform="scale(1,-1)" />
  <rect
     y="157"
     x="664"
     height="2"
     width="350"
     style="fill:#a7a9ac;fill-opacity:0.58823529"
     id="rect95" />
  <rect
     y="183"
     x="529"
     height="2"
     width="350"
     style="fill:#a7a9ac;fill-opacity:0.58823529"
     id="rect97" />
  <rect
     y="131"
     x="799"
     height="2"
     width="350"
     style="fill:#a7a9ac;fill-opacity:0.58823529;stroke-width:1.10818326"
     id="rect99" />
  <rect
     style="fill:#a5efc6;stroke-width:0.54289669"
     width="28"
     height="26"
     x="1124"
     y="81"
     id="rect93-2" />
  <circle
     r="18"
     cy="146"
     cx="676"
     style="fill:#00c081"
     id="circle103" />
  <g
     aria-label="SP1"
     style="font-size:18.75px;font-family:'Open Sans';fill:#ffffff"
     id="text107">
    <path
       d="m 671.34558,149.28641 q 0,1.76697 -1.28174,2.75573 -1.28174,0.98877 -3.479,0.98877 -2.38037,0 -3.66211,-0.6134 v -1.50146 q 0.82397,0.3479 1.79443,0.54931 0.97046,0.20142 1.92261,0.20142 1.5564,0 2.34375,-0.58594 0.78735,-0.59509 0.78735,-1.64795 0,-0.6958 -0.28381,-1.13525 -0.27466,-0.44861 -0.93384,-0.82398 -0.65002,-0.37536 -1.98669,-0.85144 -1.86768,-0.66833 -2.67334,-1.58386 -0.79651,-0.91553 -0.79651,-2.38953 0,-1.54724 1.16272,-2.46276 1.16272,-0.91553 3.07617,-0.91553 1.99585,0 3.67127,0.73242 l -0.48523,1.35498 q -1.65711,-0.6958 -3.22266,-0.6958 -1.23596,0 -1.93176,0.53101 -0.6958,0.531 -0.6958,1.47399 0,0.69581 0.25634,1.14441 0.25635,0.43946 0.8606,0.81482 0.6134,0.36621 1.86768,0.81482 2.10571,0.75074 2.89306,1.61133 0.79651,0.8606 0.79651,2.23389 z"
       style="font-size:18.75px;font-family:'Open Sans';fill:#ffffff"
       id="path962"
       inkscape:connector-curvature="0" />
    <path
       d="m 682.56995,143.36295 q 0,2.03247 -1.39161,3.1311 -1.38244,1.08948 -3.96423,1.08948 h -1.57471 v 5.26428 h -1.55639 V 139.4628 h 3.46985 q 5.01709,0 5.01709,3.90015 z m -6.93055,2.88391 h 1.40076 q 2.06909,0 2.99378,-0.66834 0.92468,-0.66833 0.92468,-2.14233 0,-1.32752 -0.86975,-1.97754 -0.86975,-0.65003 -2.70996,-0.65003 h -1.73951 z"
       style="letter-spacing:-1px"
       id="path964"
       inkscape:connector-curvature="0" />
    <path
       d="m 689.06812,152.84781 h -1.48316 v -9.5398 q 0,-1.19018 0.0732,-2.25219 -0.19226,0.19226 -0.43029,0.40283 -0.23804,0.21057 -2.17896,1.78528 l -0.80566,-1.0437 3.54309,-2.73743 h 1.28174 z"
       style="font-size:18.75px;font-family:'Open Sans';fill:#ffffff"
       id="path966"
       inkscape:connector-curvature="0" />
  </g>
  <circle
     r="18"
     cy="120"
     cx="811"
     style="fill:#00c081"
     id="circle109" />
  <g
     aria-label="SP2"
     style="font-size:18.75px;font-family:'Open Sans';fill:#ffffff"
     id="text113">
    <path
       d="m 804.51172,123.26715 q 0,1.76697 -1.28174,2.75574 -1.28174,0.98877 -3.479,0.98877 -2.38037,0 -3.66211,-0.61341 v -1.50146 q 0.82397,0.3479 1.79443,0.54932 0.97046,0.20141 1.92261,0.20141 1.55639,0 2.34375,-0.58594 0.78735,-0.59509 0.78735,-1.64794 0,-0.69581 -0.28381,-1.13526 -0.27466,-0.44861 -0.93384,-0.82397 -0.65002,-0.37537 -1.98669,-0.85144 -1.86768,-0.66834 -2.67334,-1.58387 -0.79651,-0.91552 -0.79651,-2.38952 0,-1.54724 1.16272,-2.46277 1.16272,-0.91553 3.07617,-0.91553 1.99585,0 3.67126,0.73242 l -0.48523,1.35498 q -1.6571,-0.6958 -3.22265,-0.6958 -1.23596,0 -1.93176,0.53101 -0.69581,0.53101 -0.69581,1.474 0,0.6958 0.25635,1.14441 0.25635,0.43945 0.8606,0.81482 0.6134,0.36621 1.86767,0.81482 2.10572,0.75073 2.89307,1.61132 0.79651,0.8606 0.79651,2.23389 z"
       style="font-size:18.75px;font-family:'Open Sans';fill:#ffffff"
       id="path948"
       inkscape:connector-curvature="0" />
    <path
       d="m 815.73608,117.34369 q 0,2.03247 -1.3916,3.1311 -1.38244,1.08948 -3.96423,1.08948 h -1.57471 v 5.26428 h -1.55639 v -13.38501 h 3.46984 q 5.01709,0 5.01709,3.90015 z m -6.93054,2.88391 h 1.40076 q 2.06909,0 2.99377,-0.66833 0.92469,-0.66834 0.92469,-2.14234 0,-1.32751 -0.86976,-1.97754 -0.86975,-0.65002 -2.70996,-0.65002 h -1.7395 z"
       style="letter-spacing:-0.5px"
       id="path950"
       inkscape:connector-curvature="0" />
    <path
       d="m 825.90198,126.82855 h -8.79822 v -1.3092 l 3.52478,-3.54309 q 1.61133,-1.62964 2.12402,-2.32544 0.5127,-0.6958 0.76905,-1.35498 0.25634,-0.65918 0.25634,-1.41907 0,-1.07117 -0.65002,-1.69373 -0.65002,-0.63171 -1.80359,-0.63171 -0.83313,0 -1.58386,0.27466 -0.74158,0.27466 -1.65711,0.99792 l -0.80566,-1.03454 q 1.84937,-1.53809 4.02832,-1.53809 1.88599,0 2.95715,0.97046 1.07117,0.9613 1.07117,2.59094 0,1.27259 -0.71411,2.5177 -0.71411,1.24512 -2.67334,3.14942 l -2.92969,2.8656 v 0.0732 h 6.88477 z"
       style="font-size:18.75px;font-family:'Open Sans';fill:#ffffff"
       id="path952"
       inkscape:connector-curvature="0" />
  </g>
  <circle
     r="18"
     cy="172"
     cx="541"
     style="fill:#02a49c"
     id="circle115" />
  <g
     aria-label="GA"
     style="font-weight:600;font-size:18.75px;font-family:'Open Sans';fill:#ffffff"
     id="text117">
    <path
       d="m 534.68286,171.60703 h 4.92554 v 6.71997 q -1.2085,0.39367 -2.32544,0.55847 -1.10779,0.16479 -2.39868,0.16479 -3.03955,0 -4.6875,-1.79443 -1.64795,-1.80359 -1.64795,-5.08118 0,-3.23181 1.85852,-5.05371 1.85852,-1.83105 5.1178,-1.83105 2.09655,0 3.97339,0.80566 l -0.76905,1.8219 q -1.62964,-0.75073 -3.25928,-0.75073 -2.14233,0 -3.38745,1.34582 -1.24511,1.34583 -1.24511,3.68042 0,2.45362 1.11694,3.73535 1.1261,1.27259 3.23181,1.27259 1.06201,0 2.27051,-0.26551 v -3.45153 h -2.77405 z"
       style="font-weight:600;font-size:18.75px;font-family:'Open Sans';fill:#ffffff"
       id="path969"
       inkscape:connector-curvature="0" />
    <path
       d="m 551.13489,178.86716 -1.33667,-3.71704 h -5.1178 l -1.3092,3.71704 h -2.30713 l 5.00793,-13.43994 h 2.38037 l 5.00794,13.43994 z m -1.91345,-5.60303 -1.25428,-3.6438 q -0.13733,-0.36621 -0.38452,-1.15356 -0.23804,-0.78736 -0.32959,-1.15357 -0.24719,1.1261 -0.72326,2.46277 l -1.2085,3.48816 z"
       style="font-weight:600;font-size:18.75px;font-family:'Open Sans';fill:#ffffff"
       id="path971"
       inkscape:connector-curvature="0" />
  </g>
  <circle
     r="18"
     cy="94"
     cx="946"
     style="fill:#00c081"
     id="circle119" />
  <g
     aria-label="SP3"
     style="font-size:18.75px;font-family:'Open Sans';fill:#ffffff"
     id="text123">
    <path
       d="m 939.5575,97.247787 q 0,1.766968 -1.28174,2.755733 -1.28174,0.98877 -3.47901,0.98877 -2.38037,0 -3.66211,-0.6134 v -1.501464 q 0.82398,0.347901 1.79444,0.549317 0.97046,0.201416 1.9226,0.201416 1.5564,0 2.34375,-0.585938 0.78736,-0.595093 0.78736,-1.647949 0,-0.695801 -0.28382,-1.135254 -0.27465,-0.448608 -0.93383,-0.823975 -0.65003,-0.375366 -1.9867,-0.85144 -1.86767,-0.668335 -2.67334,-1.583862 -0.79651,-0.915528 -0.79651,-2.389527 0,-1.547241 1.16272,-2.462768 1.16272,-0.915528 3.07618,-0.915528 1.99584,0 3.67126,0.732422 l -0.48523,1.354981 q -1.6571,-0.695801 -3.22266,-0.695801 -1.23596,0 -1.93176,0.531006 -0.6958,0.531006 -0.6958,1.473999 0,0.695801 0.25635,1.144409 0.25635,0.439453 0.86059,0.814819 0.61341,0.366211 1.86768,0.81482 2.10571,0.750732 2.89307,1.611328 0.79651,0.860595 0.79651,2.233886 z"
       style="font-size:18.75px;font-family:'Open Sans';fill:#ffffff"
       id="path955"
       inkscape:connector-curvature="0" />
    <path
       d="m 950.78186,91.324326 q 0,2.03247 -1.3916,3.131103 -1.38245,1.089478 -3.96423,1.089478 h -1.57471 v 5.264283 h -1.5564 V 87.424179 h 3.46985 q 5.01709,0 5.01709,3.900147 z m -6.93054,2.883911 h 1.40076 q 2.06909,0 2.99377,-0.668335 0.92468,-0.668335 0.92468,-2.142334 0,-1.327515 -0.86975,-1.977539 -0.86975,-0.650025 -2.70996,-0.650025 h -1.7395 z"
       style="letter-spacing:-0.5px"
       id="path957"
       inkscape:connector-curvature="0" />
    <path
       d="m 960.44421,90.573593 q 0,1.281738 -0.72326,2.096558 -0.71411,0.814819 -2.03247,1.089477 v 0.07324 q 1.61132,0.201416 2.38952,1.025391 0.7782,0.823975 0.7782,2.160645 0,1.913452 -1.32751,2.947998 -1.32752,1.025388 -3.77198,1.025388 -1.06201,0 -1.95007,-0.16479 -0.87891,-0.15564 -1.71204,-0.55847 v -1.446537 q 0.86976,0.430297 1.84937,0.659179 0.98877,0.219727 1.86768,0.219727 3.46984,0 3.46984,-2.719116 0,-2.435303 -3.8269,-2.435303 h -1.31836 v -1.309204 h 1.33667 q 1.56555,0 2.48108,-0.686646 0.91553,-0.695801 0.91553,-1.922607 0,-0.979614 -0.67749,-1.538086 -0.66834,-0.558472 -1.8219,-0.558472 -0.87891,0 -1.65711,0.238037 -0.7782,0.238037 -1.77612,0.878907 l -0.76904,-1.025391 q 0.82397,-0.650025 1.89514,-1.016235 1.08032,-0.375367 2.27051,-0.375367 1.95007,0 3.03039,0.897217 1.08032,0.888062 1.08032,2.444458 z"
       style="font-size:18.75px;font-family:'Open Sans';fill:#ffffff"
       id="path959"
       inkscape:connector-curvature="0" />
  </g>
  <path
     d="m 20,52.999992 v -12.41211 l -2,0.83984 3.5,-10 3.5,9.84571 -2,-0.75196 v 12.47852 z"
     style="fill:#fd9a2b;stroke:none"
     id="path127" />
  <g
     aria-label="경로 업데이트"
     style="font-size:18.75px;font-family:'Open Sans';text-align:start;text-anchor:start;fill:#000000"
     id="text129">
    <path
       d="m 47.590869,37.664355 v 2.25 h -4.40625 v 1.25625 h 4.40625 v 2.2125 h 1.55625 v -10.05 h -1.55625 v 3.075 h -3.80625 c 0.1125,-0.58125 0.1875,-1.2 0.1875,-1.81875 h -7.59375 v 1.2375 h 5.925 c -0.28125,2.90625 -2.775,5.1375 -6.7875,6.3375 l 0.61875,1.21875 c 3.61875,-1.05 6.16875,-3.01875 7.25625,-5.71875 z m -3.9375,11.19375 c -2.475,0 -4.05,-0.76875 -4.05,-2.04375 0,-1.25625 1.575,-2.025 4.05,-2.025 2.475,0 4.05,0.76875 4.05,2.025 0,1.275 -1.575,2.04375 -4.05,2.04375 z m 0,-5.2875 c -3.39375,0 -5.56875,1.21875 -5.56875,3.24375 0,2.025 2.175,3.24375 5.56875,3.24375 3.39375,0 5.56875,-1.21875 5.56875,-3.24375 0,-2.025 -2.175,-3.24375 -5.56875,-3.24375 z"
       style="font-style:normal;font-variant:normal;font-weight:normal;font-stretch:normal;font-family:'Noto Sans CJK KR';-inkscape-font-specification:'Noto Sans CJK KR'"
       id="path1057"
       inkscape:connector-curvature="0" />
    <path
       d="m 60.920654,46.795605 v -3.16875 h 5.38125 v -1.2375 h -10.35 v -2.71875 h 9.95625 v -5.11875 h -11.5125 v 1.25625 h 10.0125 v 2.625 h -9.975 v 5.19375 h 4.93125 v 3.16875 h -6.84375 v 1.25625 h 15.28125 v -1.25625 z"
       style="font-style:normal;font-variant:normal;font-weight:normal;font-stretch:normal;font-family:'Noto Sans CJK KR';-inkscape-font-specification:'Noto Sans CJK KR'"
       id="path1059"
       inkscape:connector-curvature="0" />
    <path
       d="m 87.343506,48.670605 h -7.70625 v -2.175 h 7.70625 z m 0,-3.375 h -7.70625 v -2.11875 h -1.51875 v 6.73125 h 10.7625 v -6.73125 h -1.5375 z m -7.725,-4.6875 c -1.66875,0 -2.86875,-1.0875 -2.86875,-2.625 0,-1.5375 1.2,-2.60625 2.86875,-2.60625 1.66875,0 2.86875,1.06875 2.86875,2.60625 0,1.5375 -1.2,2.625 -2.86875,2.625 z m 7.70625,-7.275 v 3.99375 h -3.43125 c -0.31875,-1.95 -2.00625,-3.225 -4.275,-3.225 -2.5125,0 -4.33125,1.575 -4.33125,3.88125 0,2.325 1.81875,3.9 4.33125,3.9 2.30625,0 3.99375,-1.3125 4.29375,-3.3 h 3.4125 v 3.76875 h 1.55625 v -9.01875 z"
       style="font-style:normal;font-variant:normal;font-weight:normal;font-stretch:normal;font-family:'Noto Sans CJK KR';-inkscape-font-specification:'Noto Sans CJK KR'"
       id="path1061"
       inkscape:connector-curvature="0" />
    <path
       d="m 94.410791,36.614355 h 4.8 v -1.2375 h -6.31875 v 10.70625 h 1.0875 c 2.68125,0 4.3125,-0.075 6.224999,-0.4875 l -0.15,-1.25625 c -1.762499,0.375 -3.262499,0.45 -5.643749,0.46875 z m 7.293749,3.1125 h -3.618749 v 1.275 h 3.618749 v 8.2875 h 1.44375 v -15.5625 h -1.44375 z m 3.375,-6.4125 v 16.81875 h 1.4625 v -16.81875 z"
       style="font-style:normal;font-variant:normal;font-weight:normal;font-stretch:normal;font-family:'Noto Sans CJK KR';-inkscape-font-specification:'Noto Sans CJK KR'"
       id="path1063"
       inkscape:connector-curvature="0" />
    <path
       d="m 121.74683,33.314355 v 16.85625 h 1.5375 v -16.85625 z m -7.33125,1.29375 c -2.49375,0 -4.275,2.2875 -4.275,5.86875 0,3.58125 1.78125,5.86875 4.275,5.86875 2.49375,0 4.275,-2.2875 4.275,-5.86875 0,-3.58125 -1.78125,-5.86875 -4.275,-5.86875 z m 0,1.3875 c 1.63125,0 2.79375,1.7625 2.79375,4.48125 0,2.7375 -1.1625,4.5 -2.79375,4.5 -1.65,0 -2.8125,-1.7625 -2.8125,-4.5 0,-2.71875 1.1625,-4.48125 2.8125,-4.48125 z"
       style="font-style:normal;font-variant:normal;font-weight:normal;font-stretch:normal;font-family:'Noto Sans CJK KR';-inkscape-font-specification:'Noto Sans CJK KR'"
       id="path1065"
       inkscape:connector-curvature="0" />
    <path
       d="m 140.27036,42.389355 h -9.99375 v -2.6625 h 9.45 v -1.21875 h -9.45 v -2.49375 h 9.825 v -1.2375 h -11.38125 v 8.85 h 11.55 z m -13.51875,4.3125 v 1.25625 h 15.2625 v -1.25625 z"
       style="font-style:normal;font-variant:normal;font-weight:normal;font-stretch:normal;font-family:'Noto Sans CJK KR';-inkscape-font-specification:'Noto Sans CJK KR'"
       id="path1067"
       inkscape:connector-curvature="0" />
  </g>
  <path
     d="M 601,282 V 259.16016 L 599,260 l 3.5,-10 3.5,9.84571 -2,-0.75196 V 282 Z"
     style="fill:#fd9a2b;stroke:none"
     id="path131" />
  <path
     d="M 466,308 V 285.16016 L 464,286 l 3.5,-10 3.5,9.84571 -2,-0.75196 V 308 Z"
     style="fill:#fd9a2b;stroke:none"
     id="path133" />
  <path
     d="M 840,150 V 127.16016 L 838,128 l 3.5,-10 3.5,9.84571 -2,-0.75196 V 150 Z"
     style="fill:#fd9a2b;stroke:none"
     id="path135" />
  <path
     d="M 705,176 V 153.16016 L 703,154 l 3.5,-10 3.5,9.84571 -2,-0.75196 V 176 Z"
     style="fill:#fd9a2b;stroke:none"
     id="path137" />
  <path
     d="M 196,360 V 337.16016 L 194,338 l 3.5,-10 3.5,9.84571 -2,-0.75196 V 360 Z"
     style="fill:#fd9a2b;stroke:none"
     id="path141" />
  <path
     d="M 685,256 V 161.16016 L 683,162 l 3.5,-10 3.5,9.84571 -2,-0.75196 V 256 Z"
     style="fill:#de0080;fill-opacity:1"
     id="path147" />
  <path
     style="fill:#fd9a2b;stroke-width:1.00073278"
     d="m 593.49478,250 -3.50513,10 2.00293,-0.83984 c 0,26.27434 -9.96383,48.62586 -26.89484,58.66406 C 548.15544,327.86912 524.40738,331 497,331 v 3 c 27.61771,0 51.85768,-3.0654 69.66448,-13.61523 18.74255,-11.10423 28.33259,-34.5554 28.33259,-61.29102 L 597,259.8457 Z"
     id="path149" />
  <path
     d="M 865,176 V 127.16016 L 863,128 l 3.5,-10 3.5,9.84571 -2,-0.75196 V 176 Z"
     style="fill:#fd9a2b"
     id="path151" />
  <path
     d="M 491,334 V 285.16016 L 489,286 l 3.5,-10 3.5,9.84571 -2,-0.75196 V 334 Z"
     style="fill:#fd9a2b"
     id="path153" />
  <path
     d="M 626,308 V 259.16016 L 624,260 l 3.5,-10 3.5,9.84571 -2,-0.75196 V 308 Z"
     style="fill:#fd9a2b"
     id="path155" />
  <path
     d="M 356,360 V 311.16016 L 354,312 l 3.5,-10 3.5,9.84571 -2,-0.75196 V 360 Z"
     style="fill:#fd9a2b"
     id="path157" />
  <circle
     r="18"
     cy="356"
     cx="32"
     style="fill:#02a49c"
     id="circle159" />
  <g
     aria-label="GA"
     style="font-weight:600;font-size:18.75px;font-family:'Open Sans';fill:#ffffff"
     id="text161">
    <path
       d="m 25.682861,355.60703 h 4.925537 v 6.71997 q -1.208496,0.39367 -2.325439,0.55847 -1.107788,0.16479 -2.398682,0.16479 -3.03955,0 -4.6875,-1.79443 -1.647949,-1.80359 -1.647949,-5.08118 0,-3.23181 1.858521,-5.05371 1.85852,-1.83105 5.117797,-1.83105 2.096558,0 3.973389,0.80566 l -0.769043,1.8219 q -1.629638,-0.75073 -3.259277,-0.75073 -2.142334,0 -3.387451,1.34582 -1.245118,1.34583 -1.245118,3.68042 0,2.45362 1.116944,3.73535 1.126098,1.27259 3.231811,1.27259 1.062012,0 2.270508,-0.26551 v -3.45153 h -2.774048 z"
       style="font-weight:600;font-size:18.75px;font-family:'Open Sans';fill:#ffffff"
       id="path1103"
       inkscape:connector-curvature="0" />
    <path
       d="m 42.134888,362.86716 -1.33667,-3.71704 H 35.68042 l -1.309204,3.71704 h -2.307129 l 5.007934,-13.43994 h 2.380372 l 5.007934,13.43994 z m -1.913452,-5.60303 -1.254273,-3.6438 q -0.137329,-0.36621 -0.384521,-1.15356 -0.238038,-0.78736 -0.32959,-1.15357 -0.247193,1.1261 -0.723267,2.46277 l -1.208496,3.48816 z"
       style="font-weight:600;font-size:18.75px;font-family:'Open Sans';fill:#ffffff"
       id="path1105"
       inkscape:connector-curvature="0" />
  </g>
  <circle
     r="18"
     cy="330"
     cx="167"
     style="fill:#00c081"
     id="circle163" />
  <g
     aria-label="SP1"
     style="font-size:18.75px;font-family:'Open Sans';fill:#ffffff"
     id="text167">
    <path
       d="m 162.34558,333.28641 q 0,1.76697 -1.28174,2.75573 -1.28174,0.98877 -3.479,0.98877 -2.38037,0 -3.66211,-0.6134 v -1.50146 q 0.82397,0.3479 1.79443,0.54931 0.97046,0.20142 1.92261,0.20142 1.5564,0 2.34375,-0.58594 0.78735,-0.59509 0.78735,-1.64795 0,-0.6958 -0.28381,-1.13525 -0.27466,-0.44861 -0.93384,-0.82398 -0.65002,-0.37536 -1.98669,-0.85144 -1.86768,-0.66833 -2.67334,-1.58386 -0.79651,-0.91553 -0.79651,-2.38953 0,-1.54724 1.16272,-2.46276 1.16272,-0.91553 3.07617,-0.91553 1.99585,0 3.67127,0.73242 l -0.48523,1.35498 q -1.65711,-0.6958 -3.22266,-0.6958 -1.23596,0 -1.93176,0.53101 -0.6958,0.531 -0.6958,1.47399 0,0.69581 0.25634,1.14441 0.25635,0.43946 0.8606,0.81482 0.6134,0.36621 1.86768,0.81482 2.10571,0.75074 2.89306,1.61133 0.79651,0.8606 0.79651,2.23389 z"
       style="font-size:18.75px;font-family:'Open Sans';fill:#ffffff"
       id="path1108"
       inkscape:connector-curvature="0" />
    <path
       d="m 173.56995,327.36295 q 0,2.03247 -1.39161,3.1311 -1.38244,1.08948 -3.96423,1.08948 h -1.57471 v 5.26428 h -1.55639 V 323.4628 h 3.46985 q 5.01709,0 5.01709,3.90015 z m -6.93055,2.88391 h 1.40076 q 2.06909,0 2.99378,-0.66834 0.92468,-0.66833 0.92468,-2.14233 0,-1.32752 -0.86975,-1.97754 -0.86975,-0.65003 -2.70996,-0.65003 h -1.73951 z"
       style="letter-spacing:-1px"
       id="path1110"
       inkscape:connector-curvature="0" />
    <path
       d="m 180.06812,336.84781 h -1.48316 v -9.5398 q 0,-1.19018 0.0732,-2.25219 -0.19226,0.19226 -0.43029,0.40283 -0.23804,0.21057 -2.17896,1.78528 l -0.80566,-1.0437 3.54309,-2.73743 h 1.28174 z"
       style="font-size:18.75px;font-family:'Open Sans';fill:#ffffff"
       id="path1112"
       inkscape:connector-curvature="0" />
  </g>
  <circle
     r="18"
     cy="304"
     cx="302"
     style="fill:#00c081"
     id="circle169" />
  <g
     aria-label="SP2"
     style="font-size:18.75px;font-family:'Open Sans';fill:#ffffff"
     id="text173">
    <path
       d="m 295.51172,307.26715 q 0,1.76697 -1.28174,2.75574 -1.28174,0.98877 -3.479,0.98877 -2.38037,0 -3.66211,-0.61341 v -1.50146 q 0.82397,0.3479 1.79443,0.54932 0.97046,0.20141 1.92261,0.20141 1.55639,0 2.34375,-0.58594 0.78735,-0.59509 0.78735,-1.64794 0,-0.69581 -0.28381,-1.13526 -0.27466,-0.44861 -0.93384,-0.82397 -0.65002,-0.37537 -1.98669,-0.85144 -1.86768,-0.66834 -2.67334,-1.58387 -0.79651,-0.91552 -0.79651,-2.38952 0,-1.54724 1.16272,-2.46277 1.16272,-0.91553 3.07617,-0.91553 1.99585,0 3.67126,0.73242 l -0.48523,1.35498 q -1.6571,-0.6958 -3.22265,-0.6958 -1.23596,0 -1.93176,0.53101 -0.69581,0.53101 -0.69581,1.474 0,0.6958 0.25635,1.14441 0.25635,0.43945 0.8606,0.81482 0.6134,0.36621 1.86767,0.81482 2.10572,0.75073 2.89307,1.61132 0.79651,0.8606 0.79651,2.23389 z"
       style="font-size:18.75px;font-family:'Open Sans';fill:#ffffff"
       id="path1115"
       inkscape:connector-curvature="0" />
    <path
       d="m 306.73608,301.34369 q 0,2.03247 -1.3916,3.1311 -1.38244,1.08948 -3.96423,1.08948 h -1.57471 v 5.26428 h -1.55639 v -13.38501 h 3.46984 q 5.01709,0 5.01709,3.90015 z m -6.93054,2.88391 h 1.40076 q 2.06909,0 2.99377,-0.66833 0.92469,-0.66834 0.92469,-2.14234 0,-1.32751 -0.86976,-1.97754 -0.86975,-0.65002 -2.70996,-0.65002 h -1.7395 z"
       style="letter-spacing:-0.5px"
       id="path1117"
       inkscape:connector-curvature="0" />
    <path
       d="m 316.90198,310.82855 h -8.79822 v -1.3092 l 3.52478,-3.54309 q 1.61133,-1.62964 2.12402,-2.32544 0.5127,-0.6958 0.76905,-1.35498 0.25634,-0.65918 0.25634,-1.41907 0,-1.07117 -0.65002,-1.69373 -0.65002,-0.63171 -1.80359,-0.63171 -0.83313,0 -1.58386,0.27466 -0.74158,0.27466 -1.65711,0.99792 l -0.80566,-1.03454 q 1.84937,-1.53809 4.02832,-1.53809 1.88599,0 2.95715,0.97046 1.07117,0.9613 1.07117,2.59094 0,1.27259 -0.71411,2.5177 -0.71411,1.24512 -2.67334,3.14942 l -2.92969,2.8656 v 0.0732 h 6.88477 z"
       style="font-size:18.75px;font-family:'Open Sans';fill:#ffffff"
       id="path1119"
       inkscape:connector-curvature="0" />
  </g>
  <circle
     r="18"
     cy="252"
     cx="572"
     style="fill:#00c081"
     id="circle175" />
  <g
     aria-label="SP4"
     style="font-size:18.75px;font-family:'Open Sans';fill:#ffffff"
     id="text179">
    <path
       d="m 565.19586,255.2478 q 0,1.76697 -1.28174,2.75574 -1.28173,0.98877 -3.479,0.98877 -2.38037,0 -3.66211,-0.6134 v -1.50147 q 0.82397,0.3479 1.79443,0.54932 0.97046,0.20141 1.92261,0.20141 1.5564,0 2.34375,-0.58593 0.78735,-0.5951 0.78735,-1.64795 0,-0.6958 -0.28381,-1.13526 -0.27466,-0.44861 -0.93384,-0.82397 -0.65002,-0.37537 -1.98669,-0.85144 -1.86768,-0.66834 -2.67334,-1.58386 -0.79651,-0.91553 -0.79651,-2.38953 0,-1.54724 1.16272,-2.46277 1.16272,-0.91553 3.07617,-0.91553 1.99585,0 3.67127,0.73243 l -0.48523,1.35498 q -1.65711,-0.6958 -3.22266,-0.6958 -1.23596,0 -1.93176,0.531 -0.6958,0.53101 -0.6958,1.474 0,0.6958 0.25635,1.14441 0.25634,0.43945 0.86059,0.81482 0.6134,0.36621 1.86768,0.81482 2.10571,0.75073 2.89306,1.61133 0.79651,0.86059 0.79651,2.23388 z"
       style="font-size:18.75px;font-family:'Open Sans';fill:#ffffff"
       id="path1129"
       inkscape:connector-curvature="0" />
    <path
       d="m 576.42023,249.32434 q 0,2.03247 -1.3916,3.1311 -1.38245,1.08948 -3.96424,1.08948 h -1.5747 v 5.26428 h -1.5564 v -13.38501 h 3.46985 q 5.01709,0 5.01709,3.90015 z m -6.93054,2.88391 h 1.40075 q 2.06909,0 2.99378,-0.66833 0.92468,-0.66834 0.92468,-2.14234 0,-1.32751 -0.86975,-1.97754 -0.86975,-0.65002 -2.70996,-0.65002 h -1.7395 z"
       style="letter-spacing:-0.5px"
       id="path1131"
       inkscape:connector-curvature="0" />
    <path
       d="m 587.21783,255.73303 h -1.98669 v 3.07617 h -1.45569 v -3.07617 h -6.5094 v -1.32751 l 6.35376,-9.05457 h 1.61133 v 8.99964 h 1.98669 z m -3.44238,-1.38244 v -4.44947 q 0,-1.3092 0.0915,-2.95715 h -0.0732 q -0.43945,0.87891 -0.82397,1.45569 l -4.18396,5.95093 z"
       style="font-size:18.75px;font-family:'Open Sans';fill:#ffffff"
       id="path1133"
       inkscape:connector-curvature="0" />
  </g>
  <circle
     r="18"
     cy="278"
     cx="437"
     style="fill:#00c081"
     id="circle181" />
  <g
     aria-label="SP3"
     style="font-size:18.75px;font-family:'Open Sans';fill:#ffffff"
     id="text185">
    <path
       d="m 430.5575,281.2478 q 0,1.76697 -1.28174,2.75574 -1.28174,0.98877 -3.47901,0.98877 -2.38037,0 -3.66211,-0.6134 v -1.50147 q 0.82398,0.3479 1.79444,0.54932 0.97046,0.20141 1.9226,0.20141 1.5564,0 2.34375,-0.58593 0.78736,-0.5951 0.78736,-1.64795 0,-0.6958 -0.28382,-1.13526 -0.27465,-0.44861 -0.93383,-0.82397 -0.65003,-0.37537 -1.9867,-0.85144 -1.86767,-0.66834 -2.67334,-1.58386 -0.79651,-0.91553 -0.79651,-2.38953 0,-1.54724 1.16272,-2.46277 1.16272,-0.91553 3.07618,-0.91553 1.99584,0 3.67126,0.73243 l -0.48523,1.35498 q -1.6571,-0.6958 -3.22266,-0.6958 -1.23596,0 -1.93176,0.531 -0.6958,0.53101 -0.6958,1.474 0,0.6958 0.25635,1.14441 0.25635,0.43945 0.86059,0.81482 0.61341,0.36621 1.86768,0.81482 2.10571,0.75073 2.89307,1.61133 0.79651,0.86059 0.79651,2.23388 z"
       style="font-size:18.75px;font-family:'Open Sans';fill:#ffffff"
       id="path1122"
       inkscape:connector-curvature="0" />
    <path
       d="m 441.78186,275.32434 q 0,2.03247 -1.3916,3.1311 -1.38245,1.08948 -3.96423,1.08948 h -1.57471 v 5.26428 h -1.5564 v -13.38501 h 3.46985 q 5.01709,0 5.01709,3.90015 z m -6.93054,2.88391 h 1.40076 q 2.06909,0 2.99377,-0.66833 0.92468,-0.66834 0.92468,-2.14234 0,-1.32751 -0.86975,-1.97754 -0.86975,-0.65002 -2.70996,-0.65002 h -1.7395 z"
       style="letter-spacing:-0.5px"
       id="path1124"
       inkscape:connector-curvature="0" />
    <path
       d="m 451.44421,274.57361 q 0,1.28174 -0.72326,2.09656 -0.71411,0.81482 -2.03247,1.08947 v 0.0733 q 1.61132,0.20141 2.38952,1.02539 0.7782,0.82397 0.7782,2.16064 0,1.91345 -1.32751,2.948 -1.32752,1.02539 -3.77198,1.02539 -1.06201,0 -1.95007,-0.1648 -0.87891,-0.15564 -1.71204,-0.55847 v -1.44653 q 0.86976,0.4303 1.84937,0.65918 0.98877,0.21973 1.86768,0.21973 3.46984,0 3.46984,-2.71912 0,-2.4353 -3.8269,-2.4353 h -1.31836 v -1.30921 h 1.33667 q 1.56555,0 2.48108,-0.68664 0.91553,-0.6958 0.91553,-1.92261 0,-0.97961 -0.67749,-1.53809 -0.66834,-0.55847 -1.8219,-0.55847 -0.87891,0 -1.65711,0.23804 -0.7782,0.23804 -1.77612,0.87891 l -0.76904,-1.02539 q 0.82397,-0.65003 1.89514,-1.01624 1.08032,-0.37537 2.27051,-0.37537 1.95007,0 3.03039,0.89722 1.08032,0.88806 1.08032,2.44446 z"
       style="font-size:18.75px;font-family:'Open Sans';fill:#ffffff"
       id="path1126"
       inkscape:connector-curvature="0" />
  </g>
  <path
     d="M 675,282 V 164.16016 L 673,165 l 3.5,-10 3.5,9.84571 -2,-0.75196 V 282 Z"
     style="fill:#de0080;stroke:none;fill-opacity:1"
     id="path189" />
  <rect
     style="fill:#02d35f"
     width="230"
     height="26"
     x="695"
     y="213"
     id="rect31-6" />
  <rect
     style="opacity:0.5;fill:#92ecba"
     width="55"
     height="52"
     x="695"
     y="213"
     id="rect33-2" />
  <rect
     style="fill:#a5efc6"
     width="160"
     height="26"
     x="925"
     y="213"
     id="rect43-9" />
  <rect
     y="237"
     x="695"
     height="2"
     width="390"
     style="fill:#a7a9ac;fill-opacity:0.58823529"
     id="rect45-1" />
  <circle
     r="18"
     cy="226"
     cx="707"
     style="fill:#00c081"
     id="circle175-2" />
  <g
     aria-label="SP5"
     style="font-size:18.75px;font-family:'Open Sans';fill:#ffffff"
     id="text179-7">
    <path
       d="m 700.19586,229.2478 q 0,1.76697 -1.28174,2.75574 -1.28173,0.98877 -3.479,0.98877 -2.38037,0 -3.66211,-0.6134 v -1.50147 q 0.82397,0.3479 1.79443,0.54932 0.97046,0.20141 1.92261,0.20141 1.5564,0 2.34375,-0.58593 0.78735,-0.5951 0.78735,-1.64795 0,-0.6958 -0.28381,-1.13526 -0.27466,-0.44861 -0.93384,-0.82397 -0.65002,-0.37537 -1.98669,-0.85144 -1.86768,-0.66834 -2.67334,-1.58386 -0.79651,-0.91553 -0.79651,-2.38953 0,-1.54724 1.16272,-2.46277 1.16272,-0.91553 3.07617,-0.91553 1.99585,0 3.67127,0.73243 l -0.48523,1.35498 q -1.65711,-0.6958 -3.22266,-0.6958 -1.23596,0 -1.93176,0.531 -0.6958,0.53101 -0.6958,1.474 0,0.6958 0.25635,1.14441 0.25634,0.43945 0.86059,0.81482 0.6134,0.36621 1.86768,0.81482 2.10571,0.75073 2.89306,1.61133 0.79651,0.86059 0.79651,2.23388 z"
       style="font-size:18.75px;font-family:'Open Sans';fill:#ffffff"
       id="path1136"
       inkscape:connector-curvature="0" />
    <path
       d="m 711.42023,223.32434 q 0,2.03247 -1.3916,3.1311 -1.38245,1.08948 -3.96424,1.08948 h -1.5747 v 5.26428 h -1.5564 v -13.38501 h 3.46985 q 5.01709,0 5.01709,3.90015 z m -6.93054,2.88391 h 1.40075 q 2.06909,0 2.99378,-0.66833 0.92468,-0.66834 0.92468,-2.14234 0,-1.32751 -0.86975,-1.97754 -0.86975,-0.65002 -2.70996,-0.65002 h -1.7395 z"
       style="letter-spacing:-0.5px"
       id="path1138"
       inkscape:connector-curvature="0" />
    <path
       d="m 716.97186,224.63354 q 2.11487,0 3.32337,1.05286 1.21765,1.0437 1.21765,2.8656 0,2.07825 -1.32752,3.25928 -1.31836,1.18103 -3.6438,1.18103 -2.26135,0 -3.45153,-0.72327 v -1.46484 q 0.64087,0.41199 1.59301,0.65002 0.95215,0.22889 1.87684,0.22889 1.61132,0 2.49939,-0.75989 0.89721,-0.75989 0.89721,-2.19727 0,-2.80151 -3.43323,-2.80151 -0.86975,0 -2.32544,0.2655 l -0.78735,-0.50354 0.50354,-6.26221 h 6.65589 v 1.40076 h -5.35584 l -0.33874,4.01917 q 1.05285,-0.21058 2.09655,-0.21058 z"
       style="letter-spacing:-0.5px"
       id="path1140"
       inkscape:connector-curvature="0" />
  </g>
  <rect
     style="fill:#02d35f;stroke-width:0.74386382"
     width="83"
     height="26"
     x="1069"
     y="55"
     id="rect69-6" />
  <rect
     style="opacity:0.5;fill:#92ecba"
     width="55"
     height="52"
     x="1069"
     y="55"
     id="rect83-1" />
  <rect
     y="105"
     x="934"
     height="2"
     width="218"
     style="fill:#a7a9ac;fill-opacity:0.58823529;stroke-width:1.2055428"
     id="rect101" />
  <circle
     r="18"
     cy="68"
     cx="1081"
     style="fill:#00c081"
     id="circle119-8" />
  <path
     d="M 975,124 V 101.16016 L 973,102 l 3.5,-10 3.5,9.84571 -2,-0.75196 V 124 Z"
     style="fill:#fd9a2b;stroke:none"
     id="path139" />
  <path
     d="M 902,287 V 234.16016 L 900,235 l 3.5,-10 3.5,9.84571 -2,-0.75196 V 287 Z"
     style="fill:#5f5f5f;stroke:none"
     id="path187" />
  <path
     d="M 736,256 V 233.16016 L 734,234 l 3.5,-10 3.5,9.84571 -2,-0.75196 V 256 Z"
     style="fill:#fd9a2b;stroke:none"
     id="path131-9" />
  <path
     style="fill:#fd9a2b;stroke-width:1.00073278"
     d="m 728.49478,224 -3.50513,10 2.00293,-0.8398 c 0,26.2743 -9.96383,48.62582 -26.89484,58.66402 C 683.15544,301.86912 659.40738,305 632,305 v 3 c 27.61771,0 51.85768,-3.0654 69.66448,-13.61523 18.74255,-11.10423 28.33259,-34.5554 28.33259,-61.29097 L 732,233.8457 Z"
     id="path149-0" />
  <rect
     style="fill:#5f5f5f;stroke-width:0.87856382"
     width="256.77692"
     height="54"
     x="776.53192"
     y="285.62891"
     rx="1.5437489"
     ry="4.5"
     id="rect63" />
  <g
     id="g4289"
     transform="translate(1.5258789e-5,-1.5020294)">
    <g
       aria-label="마지막 서비스 팩:"
       style="font-size:18.75px;font-family:'Open Sans';fill:#00c081"
       id="text65">
      <path
         d="m 836.03972,298.95566 h 4.70625 v 8.38125 h -4.70625 z m -1.5,9.61875 h 7.70625 v -10.85625 h -7.70625 z m 15.0375,-5.83125 h -2.775 v -6.69375 h -1.5375 v 16.8 h 1.5375 v -8.8125 h 2.775 z"
         style="font-style:normal;font-variant:normal;font-weight:normal;font-stretch:normal;font-family:'Noto Sans CJK KR';-inkscape-font-specification:'Noto Sans CJK KR';text-align:center;text-anchor:middle"
         id="path1013"
         inkscape:connector-curvature="0" />
      <path
         d="m 857.11326,299.03066 h 3.95625 v -1.275 h -9.39375 v 1.275 h 3.9 v 2.1375 c 0,2.90625 -2.04375,6.075 -4.4625,7.21875 l 0.9,1.2375 c 1.9125,-0.975 3.5625,-3.09375 4.33125,-5.55 0.80625,2.30625 2.45625,4.2375 4.40625,5.1375 l 0.8625,-1.2375 c -2.475,-1.05 -4.5,-3.95625 -4.5,-6.80625 z m 6.225,-2.98125 v 16.8 h 1.5375 v -16.8 z"
         style="font-style:normal;font-variant:normal;font-weight:normal;font-stretch:normal;font-family:'Noto Sans CJK KR';-inkscape-font-specification:'Noto Sans CJK KR';text-align:center;text-anchor:middle"
         id="path1015"
         inkscape:connector-curvature="0" />
      <path
         d="m 875.28054,303.49316 h -4.725 v -4.9875 h 4.725 z m 1.5,-6.20625 h -7.725 v 7.44375 h 7.725 z m -6.3,10.85625 h 9.39375 v 4.725 h 1.5375 v -5.98125 h -10.93125 z m 13.425,-7.74375 h -2.49375 v -4.35 h -1.5375 v 9.95625 h 1.5375 v -4.33125 h 2.49375 z"
         style="font-style:normal;font-variant:normal;font-weight:normal;font-stretch:normal;font-family:'Noto Sans CJK KR';-inkscape-font-specification:'Noto Sans CJK KR';text-align:center;text-anchor:middle"
         id="path1017"
         inkscape:connector-curvature="0" />
      <path
         d="m 896.73464,297.47441 h -1.5375 v 3.01875 c 0,3.1125 -1.9125,6.35625 -4.35,7.575 l 0.9375,1.21875 c 1.89375,-1.0125 3.45,-3.13125 4.18125,-5.625 0.76875,2.3625 2.30625,4.36875 4.21875,5.325 l 0.9,-1.21875 c -2.4375,-1.1625 -4.35,-4.21875 -4.35,-7.275 z m 6.43125,-1.44375 v 5.7 h -3.9 v 1.25625 h 3.9 v 9.88125 h 1.5375 v -16.8375 z"
         style="font-style:normal;font-variant:normal;font-weight:normal;font-stretch:normal;font-family:'Noto Sans CJK KR';-inkscape-font-specification:'Noto Sans CJK KR';text-align:center;text-anchor:middle"
         id="path1019"
         inkscape:connector-curvature="0" />
      <path
         d="m 920.32068,296.03066 v 16.8375 h 1.5375 v -16.8375 z m -11.26875,1.425 v 11.34375 h 7.9125 v -11.34375 h -1.51875 v 4.44375 h -4.875 v -4.44375 z m 1.51875,5.6625 h 4.875 v 4.425 h -4.875 z"
         style="font-style:normal;font-variant:normal;font-weight:normal;font-stretch:normal;font-family:'Noto Sans CJK KR';-inkscape-font-specification:'Noto Sans CJK KR';text-align:center;text-anchor:middle"
         id="path1021"
         inkscape:connector-curvature="0" />
      <path
         d="m 939.83796,304.48691 c -2.94375,-0.5625 -6.13125,-3.1125 -6.13125,-5.98125 v -1.29375 h -1.6125 v 1.29375 c 0,2.86875 -3.16875,5.4 -6.1125,5.98125 l 0.69375,1.275 c 2.53125,-0.6 5.15625,-2.4 6.225,-4.85625 1.06875,2.475 3.69375,4.275 6.24375,4.85625 z m -14.49375,4.8375 v 1.275 h 15.24375 v -1.275 z"
         style="font-style:normal;font-variant:normal;font-weight:normal;font-stretch:normal;font-family:'Noto Sans CJK KR';-inkscape-font-specification:'Noto Sans CJK KR';text-align:center;text-anchor:middle"
         id="path1023"
         inkscape:connector-curvature="0" />
      <path
         d="m 950.88582,298.76816 h 2.15625 v 5.1375 c -0.7125,0.0375 -1.4625,0.0562 -2.15625,0.075 z m 5.325,4.875 c -0.54375,0.075 -1.14375,0.13125 -1.7625,0.16875 v -5.04375 h 1.425 v -1.25625 h -7.8375 v 1.25625 h 1.44375 v 5.25 c -0.6375,0 -1.21875,0 -1.725,0 l 0.16875,1.275 c 2.2125,0 5.71875,-0.0562 8.38125,-0.525 z m -5.625,4.6875 h 9.9 v 4.5375 h 1.5375 v -5.775 h -11.4375 z m 9.975,-12.28125 v 4.3875 h -2.1 v -4.10625 h -1.44375 v 9.80625 h 1.44375 v -4.425 h 2.1 v 4.51875 h 1.4625 v -10.18125 z"
         style="font-style:normal;font-variant:normal;font-weight:normal;font-stretch:normal;font-family:'Noto Sans CJK KR';-inkscape-font-specification:'Noto Sans CJK KR';text-align:center;text-anchor:middle"
         id="path1025"
         inkscape:connector-curvature="0" />
      <path
         d="m 966.6906,300.28691 c 0.675,0 1.25625,-0.525 1.25625,-1.29375 0,-0.7875 -0.58125,-1.33125 -1.25625,-1.33125 -0.675,0 -1.2375,0.54375 -1.2375,1.33125 0,0.76875 0.5625,1.29375 1.2375,1.29375 z m 0,9.675 c 0.675,0 1.25625,-0.525 1.25625,-1.29375 0,-0.7875 -0.58125,-1.33125 -1.25625,-1.33125 -0.675,0 -1.2375,0.54375 -1.2375,1.33125 0,0.76875 0.5625,1.29375 1.2375,1.29375 z"
         style="font-style:normal;font-variant:normal;font-weight:normal;font-stretch:normal;font-family:'Noto Sans CJK KR';-inkscape-font-specification:'Noto Sans CJK KR';text-align:center;text-anchor:middle"
         id="path1027"
         inkscape:connector-curvature="0" />
    </g>
    <g
       aria-label="일반 지원, GA + 최대 10년"
       style="font-size:18.75px;font-family:'Open Sans';fill:#00c081"
       id="text65-2">
      <path
         d="m 815.15154,317.10992 h -1.5375 v 8.625 h 1.5375 z m -11.925,4.35 c 0,-1.4625 1.21875,-2.49375 2.85,-2.49375 1.65,0 2.85,1.03125 2.85,2.49375 0,1.44375 -1.2,2.475 -2.85,2.475 -1.63125,0 -2.85,-1.03125 -2.85,-2.475 z m 7.2,0 c 0,-2.23125 -1.8375,-3.75 -4.35,-3.75 -2.5125,0 -4.33125,1.51875 -4.33125,3.75 0,2.2125 1.81875,3.7125 4.33125,3.7125 2.5125,0 4.35,-1.5 4.35,-3.7125 z m -4.6125,11.025 v -1.85625 h 9.3375 v -4.06875 h -10.89375 v 1.21875 h 9.375 v 1.70625 h -9.3375 v 4.21875 h 11.41875 v -1.21875 z"
         style="font-style:normal;font-variant:normal;font-weight:normal;font-stretch:normal;font-family:'Noto Sans CJK KR';-inkscape-font-specification:'Noto Sans CJK KR'"
         id="path1030"
         inkscape:connector-curvature="0" />
      <path
         d="m 825.57507,325.41617 h -4.7625 v -3.075 h 4.7625 z m 1.5,-7.0875 h -1.5 v 2.8125 h -4.7625 v -2.8125 h -1.51875 v 8.325 h 7.78125 z m -4.35,9.95625 h -1.5375 v 5.26875 h 11.2125 v -1.25625 h -9.675 z m 8.925,-6.075 v -5.08125 h -1.5375 v 12.3375 h 1.5375 v -5.9625 h 2.49375 v -1.29375 z"
         style="font-style:normal;font-variant:normal;font-weight:normal;font-stretch:normal;font-family:'Noto Sans CJK KR';-inkscape-font-specification:'Noto Sans CJK KR'"
         id="path1032"
         inkscape:connector-curvature="0" />
      <path
         d="m 847.08542,320.10992 h 3.95625 v -1.275 h -9.39375 v 1.275 h 3.9 v 2.1375 c 0,2.90625 -2.04375,6.075 -4.4625,7.21875 l 0.9,1.2375 c 1.9125,-0.975 3.5625,-3.09375 4.33125,-5.55 0.80625,2.30625 2.45625,4.2375 4.40625,5.1375 l 0.8625,-1.2375 c -2.475,-1.05 -4.5,-3.95625 -4.5,-6.80625 z m 6.225,-2.98125 v 16.8 h 1.5375 v -16.8 z"
         style="font-style:normal;font-variant:normal;font-weight:normal;font-stretch:normal;font-family:'Noto Sans CJK KR';-inkscape-font-specification:'Noto Sans CJK KR'"
         id="path1034"
         inkscape:connector-curvature="0" />
      <path
         d="m 867.14646,327.04742 v 1.14375 h 3.4125 v 1.725 h 1.5375 v -12.80625 h -1.5375 v 9.9375 z m -3.43125,-8.11875 c 1.59375,0 2.68125,0.7125 2.68125,1.78125 0,1.0875 -1.0875,1.8 -2.68125,1.8 -1.59375,0 -2.68125,-0.7125 -2.68125,-1.8 0,-1.06875 1.0875,-1.78125 2.68125,-1.78125 z m 0,4.725 c 2.45625,0 4.14375,-1.14375 4.14375,-2.94375 0,-1.7625 -1.6875,-2.925 -4.14375,-2.925 -2.45625,0 -4.14375,1.1625 -4.14375,2.925 0,1.8 1.6875,2.94375 4.14375,2.94375 z m -0.6,5.6625 h 1.5375 v -3.31875 c 1.51875,-0.0937 3.075,-0.2625 4.55625,-0.4875 l -0.13125,-1.10625 c -3.5625,0.45 -7.725,0.4875 -10.8375,0.4875 l 0.20625,1.275 c 1.3875,0 3,-0.0188 4.66875,-0.0937 z m -0.9375,2.98125 v -3.6375 h -1.5375 v 4.89375 h 11.8875 v -1.25625 z"
         style="font-style:normal;font-variant:normal;font-weight:normal;font-stretch:normal;font-family:'Noto Sans CJK KR';-inkscape-font-specification:'Noto Sans CJK KR'"
         id="path1036"
         inkscape:connector-curvature="0" />
      <path
         d="m 875.995,335.69117 c 1.6875,-0.69375 2.7375,-2.11875 2.7375,-3.9375 0,-1.21875 -0.525,-2.00625 -1.44375,-2.00625 -0.69375,0 -1.29375,0.45 -1.29375,1.2 0,0.76875 0.6,1.2 1.25625,1.2 0.075,0 0.13125,0 0.20625,-0.0188 0,1.14375 -0.7125,2.0625 -1.875,2.56875 z"
         style="font-style:normal;font-variant:normal;font-weight:normal;font-stretch:normal;font-family:'Noto Sans CJK KR';-inkscape-font-specification:'Noto Sans CJK KR'"
         id="path1038"
         inkscape:connector-curvature="0" />
      <path
         d="m 892.78943,325.52823 h 4.55017 v 6.5094 q -1.06201,0.33874 -2.16064,0.51269 -1.09864,0.17395 -2.54517,0.17395 -3.03955,0 -4.73328,-1.80359 -1.69372,-1.81274 -1.69372,-5.07202 0,-2.0874 0.83313,-3.65295 0.84228,-1.57471 2.41699,-2.39868 1.57471,-0.83313 3.68957,-0.83313 2.14234,0 3.9917,0.78735 l -0.60424,1.37329 q -1.81275,-0.76904 -3.48816,-0.76904 -2.44446,0 -3.81775,1.45569 -1.37329,1.45569 -1.37329,4.03747 0,2.70996 1.31836,4.11072 1.32751,1.40076 3.89099,1.40076 1.3916,0 2.71911,-0.32044 v -4.11987 h -2.99377 z"
         style="text-align:center;text-anchor:middle"
         id="path1040"
         inkscape:connector-curvature="0" />
      <path
         d="m 908.97595,332.54117 -1.66626,-4.2572 h -5.36499 l -1.64795,4.2572 h -1.5747 l 5.29174,-13.43994 h 1.30921 l 5.26428,13.43994 z m -2.15149,-5.65796 -1.55639,-4.14734 q -0.30213,-0.78735 -0.62256,-1.93176 -0.20142,0.8789 -0.57678,1.93176 l -1.57471,4.14734 z"
         style="text-align:center;text-anchor:middle"
         id="path1042"
         inkscape:connector-curvature="0" />
      <path
         d="m 921.43628,325.29935 h 3.77197 v 1.26342 h -3.77197 v 3.90015 h -1.27258 v -3.90015 h -3.75367 v -1.26342 h 3.75367 v -3.91846 h 1.27258 z"
         style="text-align:center;text-anchor:middle"
         id="path1044"
         inkscape:connector-curvature="0" />
      <path
         d="m 933.36472,326.55992 c 2.00625,-0.6375 3.5625,-1.96875 4.29375,-3.73125 0.76875,1.66875 2.30625,2.94375 4.29375,3.54375 l 0.7125,-1.18125 c -2.45625,-0.73125 -4.21875,-2.5125 -4.25625,-4.65 h 3.88125 v -1.2375 h -3.88125 v -2.0625 h -1.5375 v 2.0625 h -3.825 v 1.2375 h 3.825 c -0.0375,2.2125 -1.74375,4.06875 -4.21875,4.81875 z m 5.04375,-0.5625 h -1.5375 v 3.13125 c -1.70625,0.0562 -3.3375,0.0562 -4.725,0.0562 l 0.20625,1.29375 c 3,-0.0188 7.125,-0.0375 10.89375,-0.73125 l -0.13125,-1.14375 c -1.5,0.24375 -3.13125,0.35625 -4.70625,0.45 z m 5.8125,-8.8875 v 16.8375 h 1.5375 v -16.8375 z"
         style="font-style:normal;font-variant:normal;font-weight:normal;font-stretch:normal;font-family:'Noto Sans CJK KR';-inkscape-font-specification:'Noto Sans CJK KR'"
         id="path1046"
         inkscape:connector-curvature="0" />
      <path
         d="m 951.41951,320.40992 h 4.74375 v -1.25625 h -6.2625 v 10.63125 h 1.10625 c 2.5125,0 4.21875,-0.075 6.225,-0.50625 l -0.13125,-1.275 c -1.8375,0.39375 -3.43125,0.4875 -5.68125,0.50625 z m 10.6875,-3.3 v 6.75 h -2.38125 v -6.375 h -1.44375 v 15.6 h 1.44375 v -7.96875 h 2.38125 v 8.8125 h 1.48125 v -16.81875 z"
         style="font-style:normal;font-variant:normal;font-weight:normal;font-stretch:normal;font-family:'Noto Sans CJK KR';-inkscape-font-specification:'Noto Sans CJK KR'"
         id="path1048"
         inkscape:connector-curvature="0" />
      <path
         d="m 976.97217,332.54117 h -1.48316 v -9.5398 q 0,-1.19018 0.0733,-2.25219 -0.19226,0.19226 -0.4303,0.40283 -0.23804,0.21057 -2.17896,1.78528 l -0.80566,-1.0437 3.54309,-2.73743 h 1.28174 z"
         style="text-align:center;text-anchor:middle"
         id="path1050"
         inkscape:connector-curvature="0" />
      <path
         d="m 990.94312,325.83035 q 0,3.46985 -1.09864,5.18189 -1.08948,1.71203 -3.34167,1.71203 -2.16065,0 -3.28675,-1.74865 -1.12609,-1.75782 -1.12609,-5.14527 0,-3.49731 1.08947,-5.19104 1.08948,-1.69372 3.32337,-1.69372 2.17895,0 3.30505,1.76696 1.13526,1.76697 1.13526,5.1178 z m -7.31507,0 q 0,2.92054 0.68665,4.2572 0.68664,1.32752 2.18811,1.32752 1.51977,0 2.19726,-1.34583 0.68665,-1.35498 0.68665,-4.23889 0,-2.88391 -0.68665,-4.22058 -0.67749,-1.34582 -2.19726,-1.34582 -1.50147,0 -2.18811,1.32751 -0.68665,1.31836 -0.68665,4.23889 z"
         style="text-align:center;text-anchor:middle"
         id="path1052"
         inkscape:connector-curvature="0" />
      <path
         d="m 1005.1799,329.57867 h 1.5562 v -12.45 h -1.5562 v 2.175 h -4.7438 v 1.2375 h 4.7438 v 1.9875 h -4.7438 v 1.21875 h 4.7438 z m -2.775,-4.3875 c -2.51254,0.45 -4.70629,0.58125 -7.01254,0.6 v -7.4625 h -1.5375 v 8.75625 h 1.275 c 2.475,0 4.74375,-0.13125 7.44374,-0.61875 z m -4.91254,7.10625 v -3.7875 h -1.5375 v 5.04375 h 11.21254 v -1.25625 z"
         style="font-style:normal;font-variant:normal;font-weight:normal;font-stretch:normal;font-family:'Noto Sans CJK KR';-inkscape-font-specification:'Noto Sans CJK KR'"
         id="path1054"
         inkscape:connector-curvature="0" />
    </g>
  </g>
  <path
     style="fill:url(#linearGradient5399);stroke-width:1.07546568"
     d="m 1037,11 v 192 h 110 c 2.77,0 5,-2.57928 5,-5.78313 V 16.78313 C 1152,13.57928 1149.77,11 1147,11 Z"
     id="path143" />
  <path
     d="m 1061.4746,99.5 c -2.4242,0 -4.2752,0.63928 -5.5547,1.91797 -1.2794,1.27869 -1.9199,3.11437 -1.9199,5.50781 0,2.36065 0.6405,4.21432 1.9199,5.55859 1.2795,1.34427 3.1305,2.01563 5.5547,2.01563 2.4243,0 4.2772,-0.67136 5.5566,-2.01563 1.3131,-1.37706 1.9688,-3.23073 1.9688,-5.55859 0,-2.29508 -0.6405,-4.09869 -1.9199,-5.41016 -1.2795,-1.34426 -3.1475,-2.01562 -5.6055,-2.01562 z m 26,0 c -2.4242,0 -4.2752,0.63928 -5.5547,1.91797 -1.2794,1.27869 -1.9199,3.11437 -1.9199,5.50781 0,2.36065 0.6405,4.21432 1.9199,5.55859 1.2795,1.34427 3.1305,2.01563 5.5547,2.01563 2.4243,0 4.2753,-0.67136 5.5547,-2.01563 1.3132,-1.37706 1.9707,-3.23073 1.9707,-5.55859 0,-2.29508 -0.6405,-4.09869 -1.9199,-5.41016 -1.2795,-1.34426 -3.1475,-2.01562 -5.6055,-2.01562 z m 26,0 c -2.4242,0 -4.2752,0.63928 -5.5547,1.91797 -1.2794,1.27869 -1.9199,3.11437 -1.9199,5.50781 0,2.36065 0.6405,4.21432 1.9199,5.55859 1.2795,1.34427 3.1305,2.01563 5.5547,2.01563 2.4243,0 4.2753,-0.67136 5.5547,-2.01563 1.3132,-1.37706 1.9707,-3.23073 1.9707,-5.55859 0,-2.29508 -0.6405,-4.09869 -1.9199,-5.41016 -1.2795,-1.34426 -3.1476,-2.01562 -5.6055,-2.01562 z"
     style="fill:#5f5f5f;fill-opacity:0.75"
     id="path145" />
  <path
     d="M 539,282 V 190.16016 L 537,191 l 3.5,-10 3.5,9.84571 -2,-0.75196 V 282 Z"
     style="fill:#de0080;fill-opacity:1"
     id="path147-3" />
  <path
     d="M 638,256 V 179.16016 L 636,180 l 3.5,-10 3.5,9.84571 -2,-0.75196 V 256 Z"
     style="fill:#de0080;fill-opacity:1"
     id="path147-36" />
  <path
     d="M 761,230 V 153.16016 L 759,154 l 3.5,-10 3.5,9.84571 -2,-0.75196 V 230 Z"
     style="fill:#de0080;fill-opacity:1"
     id="path147-36-7" />
  <path
     d="M 20,84.39699 V 71.98488 l -2,0.83984 3.5,-10 3.5,9.84571 -2,-0.75196 v 12.47852 z"
     style="fill:#de0080;stroke:none;fill-opacity:1"
     id="path127-5" />
  <g
     aria-label="경로 업그레이드"
     style="font-size:18.75px;font-family:'Open Sans';text-align:start;text-anchor:start;fill:#000000"
     id="text129-6">
    <path
       d="m 47.590869,69.061351 v 2.25 h -4.40625 v 1.25625 h 4.40625 v 2.2125 h 1.55625 v -10.05 h -1.55625 v 3.075 h -3.80625 c 0.1125,-0.58125 0.1875,-1.2 0.1875,-1.81875 h -7.59375 v 1.2375 h 5.925 c -0.28125,2.90625 -2.775,5.1375 -6.7875,6.3375 l 0.61875,1.21875 c 3.61875,-1.05 6.16875,-3.01875 7.25625,-5.71875 z m -3.9375,11.19375 c -2.475,0 -4.05,-0.76875 -4.05,-2.04375 0,-1.25625 1.575,-2.025 4.05,-2.025 2.475,0 4.05,0.76875 4.05,2.025 0,1.275 -1.575,2.04375 -4.05,2.04375 z m 0,-5.2875 c -3.39375,0 -5.56875,1.21875 -5.56875,3.24375 0,2.025 2.175,3.24375 5.56875,3.24375 3.39375,0 5.56875,-1.21875 5.56875,-3.24375 0,-2.025 -2.175,-3.24375 -5.56875,-3.24375 z"
       style="font-style:normal;font-variant:normal;font-weight:normal;font-stretch:normal;font-family:'Noto Sans CJK KR';-inkscape-font-specification:'Noto Sans CJK KR'"
       id="path1070"
       inkscape:connector-curvature="0" />
    <path
       d="m 60.920654,78.192601 v -3.16875 h 5.38125 v -1.2375 h -10.35 v -2.71875 h 9.95625 v -5.11875 h -11.5125 v 1.25625 h 10.0125 v 2.625 h -9.975 v 5.19375 h 4.93125 v 3.16875 h -6.84375 v 1.25625 h 15.28125 v -1.25625 z"
       style="font-style:normal;font-variant:normal;font-weight:normal;font-stretch:normal;font-family:'Noto Sans CJK KR';-inkscape-font-specification:'Noto Sans CJK KR'"
       id="path1072"
       inkscape:connector-curvature="0" />
    <path
       d="m 87.343506,80.067601 h -7.70625 v -2.175 h 7.70625 z m 0,-3.375 h -7.70625 v -2.11875 h -1.51875 v 6.73125 h 10.7625 v -6.73125 h -1.5375 z m -7.725,-4.6875 c -1.66875,0 -2.86875,-1.0875 -2.86875,-2.625 0,-1.5375 1.2,-2.60625 2.86875,-2.60625 1.66875,0 2.86875,1.06875 2.86875,2.60625 0,1.5375 -1.2,2.625 -2.86875,2.625 z m 7.70625,-7.275 v 3.99375 h -3.43125 c -0.31875,-1.95 -2.00625,-3.225 -4.275,-3.225 -2.5125,0 -4.33125,1.575 -4.33125,3.88125 0,2.325 1.81875,3.9 4.33125,3.9 2.30625,0 3.99375,-1.3125 4.29375,-3.3 h 3.4125 v 3.76875 h 1.55625 v -9.01875 z"
       style="font-style:normal;font-variant:normal;font-weight:normal;font-stretch:normal;font-family:'Noto Sans CJK KR';-inkscape-font-specification:'Noto Sans CJK KR'"
       id="path1074"
       inkscape:connector-curvature="0" />
    <path
       d="m 103.93579,68.180101 c 0,2.08125 0,4.59375 -0.675,8.025 l 1.5375,0.16875 c 0.65625,-3.6375 0.65625,-6.05625 0.65625,-8.19375 v -1.66875 h -0.7125 v -0.01875 H 93.923291 v 1.25625 h 10.012499 z m -11.643749,9.61875 v 1.275 h 15.206249 v -1.275 z"
       style="font-style:normal;font-variant:normal;font-weight:normal;font-stretch:normal;font-family:'Noto Sans CJK KR';-inkscape-font-specification:'Noto Sans CJK KR'"
       id="path1076"
       inkscape:connector-curvature="0" />
    <path
       d="m 111.56558,72.398851 h 4.5 v -5.83125 h -6.0375 v 1.25625 h 4.55625 v 3.35625 h -4.5 v 6.225 h 1.10625 c 2.1375,0 4.05,-0.09375 6.39375,-0.4875 l -0.13125,-1.25625 c -2.15625,0.375 -3.975,0.45 -5.8875,0.45 z m 7.36875,-1.65 h -2.08125 v 1.275 h 2.08125 v 8.625 h 1.44375 v -15.525 h -1.44375 z m 3.39375,-6.0375 v 16.81875 h 1.48125 v -16.81875 z"
       style="font-style:normal;font-variant:normal;font-weight:normal;font-stretch:normal;font-family:'Noto Sans CJK KR';-inkscape-font-specification:'Noto Sans CJK KR'"
       id="path1078"
       inkscape:connector-curvature="0" />
    <path
       d="m 138.99536,64.711351 v 16.85625 h 1.5375 v -16.85625 z m -7.33125,1.29375 c -2.49375,0 -4.275,2.2875 -4.275,5.86875 0,3.58125 1.78125,5.86875 4.275,5.86875 2.49375,0 4.275,-2.2875 4.275,-5.86875 0,-3.58125 -1.78125,-5.86875 -4.275,-5.86875 z m 0,1.3875 c 1.63125,0 2.79375,1.7625 2.79375,4.48125 0,2.7375 -1.1625,4.5 -2.79375,4.5 -1.65,0 -2.8125,-1.7625 -2.8125,-4.5 0,-2.71875 1.1625,-4.48125 2.8125,-4.48125 z"
       style="font-style:normal;font-variant:normal;font-weight:normal;font-stretch:normal;font-family:'Noto Sans CJK KR';-inkscape-font-specification:'Noto Sans CJK KR'"
       id="path1080"
       inkscape:connector-curvature="0" />
    <path
       d="M 157.50015,72.773851 H 147.4689 v -5.25 h 9.8625 v -1.275 h -11.38125 v 7.78125 h 11.55 z m -13.5,5.2125 v 1.275 h 15.2625 v -1.275 z"
       style="font-style:normal;font-variant:normal;font-weight:normal;font-stretch:normal;font-family:'Noto Sans CJK KR';-inkscape-font-specification:'Noto Sans CJK KR'"
       id="path1082"
       inkscape:connector-curvature="0" />
  </g>
</svg>
