<?xml version="1.0" encoding="UTF-8" standalone="no"?>
<svg
   xmlns:dc="http://purl.org/dc/elements/1.1/"
   xmlns:cc="http://creativecommons.org/ns#"
   xmlns:rdf="http://www.w3.org/1999/02/22-rdf-syntax-ns#"
   xmlns:svg="http://www.w3.org/2000/svg"
   xmlns="http://www.w3.org/2000/svg"
   xmlns:xlink="http://www.w3.org/1999/xlink"
   xmlns:sodipodi="http://sodipodi.sourceforge.net/DTD/sodipodi-0.dtd"
   xmlns:inkscape="http://www.inkscape.org/namespaces/inkscape"
   id="svg137"
   version="1.1"
   height="447"
   width="1087"
   sodipodi:docname="new-maintenance-model.svg"
   inkscape:version="0.92.4 (5da689c313, 2019-01-14)">
  <sodipodi:namedview
     pagecolor="#ffffff"
     bordercolor="#666666"
     borderopacity="1"
     objecttolerance="10"
     gridtolerance="10"
     guidetolerance="10"
     inkscape:pageopacity="0"
     inkscape:pageshadow="2"
     inkscape:window-width="1920"
     inkscape:window-height="1027"
     id="namedview80"
     showgrid="false"
     inkscape:zoom="1.4935761"
     inkscape:cx="671.3103"
     inkscape:cy="223.5"
     inkscape:window-x="-8"
     inkscape:window-y="-8"
     inkscape:window-maximized="1"
     inkscape:current-layer="svg137" />
  <metadata
     id="metadata141">
    <rdf:RDF>
      <cc:Work
         rdf:about="">
        <dc:format>image/svg+xml</dc:format>
        <dc:type
           rdf:resource="http://purl.org/dc/dcmitype/StillImage" />
        <dc:title />
      </cc:Work>
    </rdf:RDF>
  </metadata>
  <defs
     id="defs86">
    <linearGradient
       id="linearGradient5393">
      <stop
         id="stop5395"
         offset="0"
         style="stop-color:#ffffff;stop-" />
      <stop
         id="stop5397"
         offset="1"
         style="stop-color:#ffffff;stop-opacity:0;" />
    </linearGradient>
    <linearGradient
       gradientTransform="matrix(1,0,0,1.1566265,0,-1.722893)"
       gradientUnits="userSpaceOnUse"
       y2="41.785362"
       x2="967.62579"
       y1="41.785362"
       x1="1109.5564"
       id="linearGradient5399"
       xlink:href="#linearGradient5393" />
  </defs>
  <rect
     id="rect7"
     style="fill:#71d6e0"
     width="1037.5"
     height="28"
     x="1"
     y="409"
     rx="3"
     ry="3" />
  <path
     id="path9"
     style="fill:#71d6e0"
     d="m 1086,423 -50,-14 v 28 z" />
  <g
     aria-label="TEMPO"
     style="font-weight:600;font-size:18.75px;font-family:'Open Sans';fill:#5f5f5f"
     id="text11">
    <path
       d="m 535.63403,429.6925 h -2.18811 v -11.50817 h -3.93676 v -1.87683 h 10.06164 v 1.87683 h -3.93677 z"
       style="text-align:center;text-anchor:middle"
       id="path1046"
       inkscape:connector-curvature="0" />
    <path
       d="m 549.20215,429.6925 h -7.57141 v -13.385 h 7.57141 v 1.84936 h -5.3833 v 3.6438 h 5.04455 v 1.83105 h -5.04455 v 4.20227 h 5.3833 z"
       style="text-align:center;text-anchor:middle"
       id="path1048"
       inkscape:connector-curvature="0" />
    <path
       d="m 557.8905,429.6925 -3.88183,-11.17858 h -0.0733 q 0.15564,2.49023 0.15564,4.66919 v 6.50939 h -1.98669 v -13.385 h 3.08533 l 3.71704,10.64758 h 0.0549 l 3.8269,-10.64758 h 3.09449 v 13.385 h -2.10572 v -6.61926 q 0,-0.99792 0.0458,-2.6001 0.0549,-1.60217 0.0915,-1.94091 h -0.0732 l -4.01916,11.16027 z"
       style="text-align:center;text-anchor:middle"
       id="path1050"
       inkscape:connector-curvature="0" />
    <path
       d="m 578.28845,420.35413 q 0,2.09655 -1.37329,3.2135 -1.37329,1.11694 -3.9093,1.11694 h -1.3916 v 5.00793 h -2.18811 v -13.385 h 3.85437 q 2.50854,0 3.75366,1.02539 1.25427,1.02539 1.25427,3.02124 z m -6.67419,2.49023 h 1.16272 q 1.68457,0 2.47192,-0.58594 0.78735,-0.58593 0.78735,-1.83105 0,-1.15357 -0.70495,-1.72119 -0.70496,-0.56763 -2.19727,-0.56763 h -1.51977 z"
       style="text-align:center;text-anchor:middle"
       id="path1052"
       inkscape:connector-curvature="0" />
    <path
       d="m 592.84534,422.98169 q 0,3.26843 -1.6388,5.08118 -1.62964,1.81274 -4.62341,1.81274 -3.0304,0 -4.66003,-1.79443 -1.62049,-1.80359 -1.62049,-5.1178 0,-3.31421 1.62964,-5.09033 1.63879,-1.77613 4.66919,-1.77613 2.98462,0 4.61426,1.80359 1.62964,1.80359 1.62964,5.08118 z m -10.21729,0 q 0,2.47192 0.99793,3.75366 0.99792,1.27258 2.95715,1.27258 1.95007,0 2.93884,-1.26342 0.99793,-1.26343 0.99793,-3.76282 0,-2.46277 -0.98877,-3.73535 -0.97962,-1.27259 -2.92969,-1.27259 -1.96838,0 -2.97546,1.27259 -0.99793,1.27258 -0.99793,3.73535 z"
       style="text-align:center;text-anchor:middle"
       id="path1054"
       inkscape:connector-curvature="0" />
  </g>
  <rect
     id="rect13"
     style="fill:#ededed;stroke-width:1.07546568"
     width="968"
     height="192"
     x="1"
     y="195"
     rx="5"
     ry="5.7831326" />
  <rect
     id="rect15"
     y="265"
     x="425"
     height="26"
     width="190"
     style="fill:#02d35f" />
  <rect
     id="rect17"
     y="317"
     x="155"
     height="26"
     width="190"
     style="fill:#02d35f" />
  <g
     aria-label="SLES 12"
     style="font-weight:600;font-size:18.75px;font-family:'Open Sans';fill:#00c081"
     id="text19">
    <path
       d="m 26.569336,229.21126 q 0,1.78528 -1.290894,2.80151 -1.290893,1.01624 -3.561401,1.01624 -2.270508,0 -3.717041,-0.70496 v -2.06909 q 0.915527,0.4303 1.940918,0.67749 1.034546,0.24719 1.922607,0.24719 1.300049,0 1.913453,-0.49438 0.622558,-0.49439 0.622558,-1.32752 0,-0.75073 -0.567627,-1.27258 -0.567627,-0.52185 -2.34375,-1.23596 -1.831055,-0.74158 -2.581787,-1.69373 -0.750732,-0.95215 -0.750732,-2.28882 0,-1.67541 1.190185,-2.63672 1.190186,-0.9613 3.195191,-0.9613 1.922607,0 3.826904,0.84229 l -0.695801,1.78527 q -1.785278,-0.75073 -3.186035,-0.75073 -1.062012,0 -1.611328,0.46692 -0.549317,0.45776 -0.549317,1.21765 0,0.52185 0.219727,0.89722 0.219727,0.36621 0.723267,0.6958 0.50354,0.32959 1.812744,0.86975 1.473999,0.6134 2.160644,1.14441 0.686646,0.53101 1.00708,1.19934 0.320435,0.66834 0.320435,1.57471 z"
       style="font-weight:600;font-size:18.75px;font-family:'Open Sans';fill:#00c081"
       id="path979"
       inkscape:connector-curvature="0" />
    <path
       d="m 29.178589,232.8459 v -13.38501 h 2.18811 v 11.50818 h 5.667114 v 1.87683 z"
       style="font-weight:600;font-size:18.75px;font-family:'Open Sans';fill:#00c081"
       id="path981"
       inkscape:connector-curvature="0" />
    <path
       d="m 46.930664,232.8459 h -7.571411 v -13.38501 h 7.571411 v 1.84937 h -5.383301 v 3.6438 h 5.044556 v 1.83105 h -5.044556 v 4.20227 h 5.383301 z"
       style="font-weight:600;font-size:18.75px;font-family:'Open Sans';fill:#00c081"
       id="path983"
       inkscape:connector-curvature="0" />
    <path
       d="m 57.550781,229.21126 q 0,1.78528 -1.290893,2.80151 -1.290894,1.01624 -3.561402,1.01624 -2.270507,0 -3.717041,-0.70496 v -2.06909 q 0.915528,0.4303 1.940918,0.67749 1.034546,0.24719 1.922608,0.24719 1.300049,0 1.913452,-0.49438 0.622558,-0.49439 0.622558,-1.32752 0,-0.75073 -0.567627,-1.27258 -0.567626,-0.52185 -2.34375,-1.23596 -1.831054,-0.74158 -2.581787,-1.69373 -0.750732,-0.95215 -0.750732,-2.28882 0,-1.67541 1.190186,-2.63672 1.190185,-0.9613 3.19519,-0.9613 1.922607,0 3.826904,0.84229 l -0.695801,1.78527 q -1.785278,-0.75073 -3.186035,-0.75073 -1.062011,0 -1.611328,0.46692 -0.549316,0.45776 -0.549316,1.21765 0,0.52185 0.219726,0.89722 0.219727,0.36621 0.723267,0.6958 0.50354,0.32959 1.812744,0.86975 1.473999,0.6134 2.160645,1.14441 0.686645,0.53101 1.00708,1.19934 0.320434,0.66834 0.320434,1.57471 z"
       style="font-weight:600;font-size:18.75px;font-family:'Open Sans';fill:#00c081"
       id="path985"
       inkscape:connector-curvature="0" />
    <path
       d="m 70.404785,232.8459 h -2.151489 v -8.64258 q 0,-1.54724 0.07324,-2.45361 -0.210571,0.21973 -0.521851,0.48523 -0.302124,0.2655 -2.050781,1.68457 l -1.080322,-1.36414 3.936768,-3.09448 h 1.794433 z"
       style="font-weight:600;font-size:18.75px;font-family:'Open Sans';fill:#00c081"
       id="path987"
       inkscape:connector-curvature="0" />
    <path
       d="m 83.853882,232.8459 h -9.072876 v -1.62964 l 3.451538,-3.46985 q 1.528931,-1.56555 2.023315,-2.21557 0.50354,-0.65918 0.732422,-1.23596 0.228882,-0.57679 0.228882,-1.23597 0,-0.90637 -0.549316,-1.42822 -0.540161,-0.52185 -1.501465,-0.52185 -0.769043,0 -1.49231,0.28381 -0.714111,0.28382 -1.657104,1.0254 l -1.16272,-1.41907 q 1.116943,-0.943 2.1698,-1.33667 1.052856,-0.39368 2.243042,-0.39368 1.867676,0 2.993774,0.97962 1.126099,0.97045 1.126099,2.6184 0,0.90638 -0.32959,1.72119 -0.320435,0.81482 -0.997925,1.68458 -0.668335,0.86059 -2.233886,2.33459 l -2.32544,2.2522 v 0.0916 h 6.35376 z"
       style="font-weight:600;font-size:18.75px;font-family:'Open Sans';fill:#00c081"
       id="path989"
       inkscape:connector-curvature="0" />
  </g>
  <rect
     id="rect21"
     y="343"
     x="20"
     height="26"
     width="190"
     style="fill:#02d35f" />
  <rect
     id="rect23"
     y="317"
     x="155"
     height="52"
     width="55"
     style="opacity:0.5;fill:#92ecba" />
  <rect
     id="rect25"
     y="291"
     x="290"
     height="26"
     width="190"
     style="fill:#02d35f" />
  <rect
     id="rect27"
     y="291"
     x="290"
     height="52"
     width="55"
     style="opacity:0.5;fill:#92ecba" />
  <rect
     id="rect29"
     y="265"
     x="425"
     height="52"
     width="55"
     style="opacity:0.5;fill:#92ecba" />
  <rect
     id="rect31"
     y="239"
     x="560"
     height="26"
     width="230"
     style="fill:#02d35f" />
  <rect
     id="rect33"
     y="239"
     x="560"
     height="52"
     width="55"
     style="opacity:0.5;fill:#92ecba" />
  <rect
     id="rect37"
     style="fill:#a7a9ac;fill-opacity:0.58823529"
     width="190"
     height="2"
     x="155"
     y="341" />
  <rect
     id="rect39"
     style="fill:#a7a9ac;fill-opacity:0.58823529"
     width="190"
     height="2"
     x="20"
     y="367" />
  <rect
     id="rect41"
     style="fill:#a7a9ac;fill-opacity:0.58823529"
     width="190"
     height="2"
     x="290"
     y="315" />
  <rect
     id="rect43"
     style="fill:#a7a9ac;fill-opacity:0.58823529"
     width="190"
     height="2"
     x="425"
     y="289" />
  <rect
     id="rect45"
     style="fill:#dcddde;stroke-width:1.07546568"
     width="574"
     height="192"
     x="510"
     y="11"
     rx="5"
     ry="5.7831326" />
  <rect
     id="rect47"
     y="81"
     x="934"
     height="26"
     width="150"
     style="fill:#02d35f" />
  <rect
     id="rect49"
     y="133"
     x="664"
     height="26"
     width="190"
     style="fill:#02d35f" />
  <g
     aria-label="SLES 15"
     style="font-weight:600;font-size:18.75px;font-family:'Open Sans';fill:#00c081"
     id="text51">
    <path
       d="m 535.56934,45.09325 q 0,1.785279 -1.2909,2.801514 -1.29089,1.016235 -3.5614,1.016235 -2.27051,0 -3.71704,-0.704956 v -2.069092 q 0.91553,0.430298 1.94092,0.677491 1.03454,0.247192 1.92261,0.247192 1.30004,0 1.91345,-0.494385 0.62256,-0.494384 0.62256,-1.327514 0,-0.750733 -0.56763,-1.272583 -0.56763,-0.521851 -2.34375,-1.235962 -1.83106,-0.741577 -2.58179,-1.693726 -0.75073,-0.952148 -0.75073,-2.288818 0,-1.675415 1.19019,-2.636719 1.19018,-0.961304 3.19519,-0.961304 1.9226,0 3.8269,0.842285 l -0.6958,1.785279 q -1.78528,-0.750733 -3.18604,-0.750733 -1.06201,0 -1.61132,0.466919 -0.54932,0.457764 -0.54932,1.217652 0,0.52185 0.21973,0.897216 0.21972,0.366211 0.72326,0.695801 0.50354,0.32959 1.81275,0.869751 1.474,0.613404 2.16064,1.144409 0.68665,0.531006 1.00708,1.199341 0.32044,0.668335 0.32044,1.574707 z"
       style="font-weight:600;font-size:18.75px;font-family:'Open Sans';fill:#00c081"
       id="path992"
       inkscape:connector-curvature="0" />
    <path
       d="m 538.17859,48.727894 v -13.38501 h 2.18811 v 11.508179 h 5.66711 v 1.876831 z"
       style="font-weight:600;font-size:18.75px;font-family:'Open Sans';fill:#00c081"
       id="path994"
       inkscape:connector-curvature="0" />
    <path
       d="m 555.93066,48.727894 h -7.57141 v -13.38501 h 7.57141 v 1.849365 h -5.3833 v 3.643799 h 5.04456 v 1.831055 h -5.04456 v 4.20227 h 5.3833 z"
       style="font-weight:600;font-size:18.75px;font-family:'Open Sans';fill:#00c081"
       id="path996"
       inkscape:connector-curvature="0" />
    <path
       d="m 566.55078,45.09325 q 0,1.785279 -1.29089,2.801514 -1.2909,1.016235 -3.5614,1.016235 -2.27051,0 -3.71704,-0.704956 v -2.069092 q 0.91552,0.430298 1.94091,0.677491 1.03455,0.247192 1.92261,0.247192 1.30005,0 1.91345,-0.494385 0.62256,-0.494384 0.62256,-1.327514 0,-0.750733 -0.56763,-1.272583 -0.56762,-0.521851 -2.34375,-1.235962 -1.83105,-0.741577 -2.58178,-1.693726 -0.75074,-0.952148 -0.75074,-2.288818 0,-1.675415 1.19019,-2.636719 1.19019,-0.961304 3.19519,-0.961304 1.92261,0 3.82691,0.842285 l -0.69581,1.785279 q -1.78527,-0.750733 -3.18603,-0.750733 -1.06201,0 -1.61133,0.466919 -0.54932,0.457764 -0.54932,1.217652 0,0.52185 0.21973,0.897216 0.21973,0.366211 0.72327,0.695801 0.50354,0.32959 1.81274,0.869751 1.474,0.613404 2.16065,1.144409 0.68664,0.531006 1.00708,1.199341 0.32043,0.668335 0.32043,1.574707 z"
       style="font-weight:600;font-size:18.75px;font-family:'Open Sans';fill:#00c081"
       id="path998"
       inkscape:connector-curvature="0" />
    <path
       d="m 579.40479,48.727894 h -2.15149 v -8.642578 q 0,-1.547242 0.0732,-2.453614 -0.21057,0.219727 -0.52185,0.48523 -0.30213,0.265503 -2.05078,1.68457 l -1.08033,-1.364136 3.93677,-3.094482 h 1.79444 z"
       style="font-weight:600;font-size:18.75px;font-family:'Open Sans';fill:#00c081"
       id="path1000"
       inkscape:connector-curvature="0" />
    <path
       d="m 588.32202,40.369129 q 2.02332,0 3.20435,1.071167 1.18103,1.071167 1.18103,2.920532 0,2.142334 -1.34583,3.35083 -1.33667,1.199341 -3.80859,1.199341 -2.24304,0 -3.52478,-0.723266 v -1.950074 q 0.74158,0.421143 1.70288,0.650025 0.9613,0.228882 1.78528,0.228882 1.45569,0 2.21557,-0.650025 0.75989,-0.650024 0.75989,-1.904297 0,-2.398681 -3.05786,-2.398681 -0.4303,0 -1.06201,0.09155 -0.63172,0.0824 -1.10779,0.19226 l -0.9613,-0.567627 0.51269,-6.536865 h 6.95801 v 1.913452 h -5.06287 l -0.30212,3.314209 q 0.32043,-0.05493 0.7782,-0.128174 0.46692,-0.07324 1.13525,-0.07324 z"
       style="font-weight:600;font-size:18.75px;font-family:'Open Sans';fill:#00c081"
       id="path1002"
       inkscape:connector-curvature="0" />
  </g>
  <rect
     id="rect53"
     y="159"
     x="529"
     height="26"
     width="190"
     style="fill:#02d35f" />
  <rect
     id="rect55"
     y="133"
     x="664"
     height="52"
     width="55"
     style="opacity:0.5;fill:#92ecba" />
  <rect
     id="rect57"
     y="107"
     x="799"
     height="26"
     width="190"
     style="fill:#02d35f" />
  <rect
     id="rect59"
     y="107"
     x="799"
     height="52"
     width="55"
     style="opacity:0.5;fill:#92ecba" />
  <rect
     id="rect61"
     y="81"
     x="934"
     height="52"
     width="55"
     style="opacity:0.5;fill:#92ecba" />
  <rect
     id="rect63"
     y="55"
     x="1069"
     height="52"
     width="15"
     style="opacity:0.5;fill:#92ecba" />
  <rect
     id="rect65"
     style="fill:#a7a9ac;fill-opacity:0.58823529"
     width="190"
     height="2"
     x="664"
     y="157" />
  <rect
     id="rect67"
     style="fill:#a7a9ac;fill-opacity:0.58823529"
     width="190"
     height="2"
     x="529"
     y="183" />
  <rect
     id="rect69"
     style="fill:#a7a9ac;fill-opacity:0.58823529"
     width="190"
     height="2"
     x="799"
     y="131" />
  <rect
     id="rect71"
     style="fill:#a7a9ac;fill-opacity:0.58823529"
     width="150"
     height="2"
     x="934"
     y="105" />
  <circle
     id="circle73"
     style="fill:#00c081"
     cx="676"
     cy="146"
     r="18" />
  <g
     aria-label="SP1"
     style="font-size:18.75px;font-family:'Open Sans';fill:#ffffff"
     id="text77">
    <path
       d="m 671.34558,149.28641 q 0,1.76697 -1.28174,2.75573 -1.28174,0.98877 -3.479,0.98877 -2.38037,0 -3.66211,-0.6134 v -1.50146 q 0.82397,0.3479 1.79443,0.54931 0.97046,0.20142 1.92261,0.20142 1.5564,0 2.34375,-0.58594 0.78735,-0.59509 0.78735,-1.64795 0,-0.6958 -0.28381,-1.13525 -0.27466,-0.44861 -0.93384,-0.82398 -0.65002,-0.37536 -1.98669,-0.85144 -1.86768,-0.66833 -2.67334,-1.58386 -0.79651,-0.91553 -0.79651,-2.38953 0,-1.54724 1.16272,-2.46276 1.16272,-0.91553 3.07617,-0.91553 1.99585,0 3.67127,0.73242 l -0.48523,1.35498 q -1.65711,-0.6958 -3.22266,-0.6958 -1.23596,0 -1.93176,0.53101 -0.6958,0.531 -0.6958,1.47399 0,0.69581 0.25634,1.14441 0.25635,0.43946 0.8606,0.81482 0.6134,0.36621 1.86768,0.81482 2.10571,0.75074 2.89306,1.61133 0.79651,0.8606 0.79651,2.23389 z"
       style="font-size:18.75px;font-family:'Open Sans';fill:#ffffff"
       id="path1111"
       inkscape:connector-curvature="0" />
    <path
       d="m 682.56995,143.36295 q 0,2.03247 -1.39161,3.1311 -1.38244,1.08948 -3.96423,1.08948 h -1.57471 v 5.26428 h -1.55639 V 139.4628 h 3.46985 q 5.01709,0 5.01709,3.90015 z m -6.93055,2.88391 h 1.40076 q 2.06909,0 2.99378,-0.66834 0.92468,-0.66833 0.92468,-2.14233 0,-1.32752 -0.86975,-1.97754 -0.86975,-0.65003 -2.70996,-0.65003 h -1.73951 z"
       style="letter-spacing:-1px"
       id="path1113"
       inkscape:connector-curvature="0" />
    <path
       d="m 689.06812,152.84781 h -1.48316 v -9.5398 q 0,-1.19018 0.0732,-2.25219 -0.19226,0.19226 -0.43029,0.40283 -0.23804,0.21057 -2.17896,1.78528 l -0.80566,-1.0437 3.54309,-2.73743 h 1.28174 z"
       style="font-size:18.75px;font-family:'Open Sans';fill:#ffffff"
       id="path1115"
       inkscape:connector-curvature="0" />
  </g>
  <circle
     id="circle79"
     style="fill:#00c081"
     cx="811"
     cy="120"
     r="18" />
  <g
     aria-label="SP2"
     style="font-size:18.75px;font-family:'Open Sans';fill:#ffffff"
     id="text83">
    <path
       d="m 804.51172,123.26715 q 0,1.76697 -1.28174,2.75574 -1.28174,0.98877 -3.479,0.98877 -2.38037,0 -3.66211,-0.61341 v -1.50146 q 0.82397,0.3479 1.79443,0.54932 0.97046,0.20141 1.92261,0.20141 1.55639,0 2.34375,-0.58594 0.78735,-0.59509 0.78735,-1.64794 0,-0.69581 -0.28381,-1.13526 -0.27466,-0.44861 -0.93384,-0.82397 -0.65002,-0.37537 -1.98669,-0.85144 -1.86768,-0.66834 -2.67334,-1.58387 -0.79651,-0.91552 -0.79651,-2.38952 0,-1.54724 1.16272,-2.46277 1.16272,-0.91553 3.07617,-0.91553 1.99585,0 3.67126,0.73242 l -0.48523,1.35498 q -1.6571,-0.6958 -3.22265,-0.6958 -1.23596,0 -1.93176,0.53101 -0.69581,0.53101 -0.69581,1.474 0,0.6958 0.25635,1.14441 0.25635,0.43945 0.8606,0.81482 0.6134,0.36621 1.86767,0.81482 2.10572,0.75073 2.89307,1.61132 0.79651,0.8606 0.79651,2.23389 z"
       style="font-size:18.75px;font-family:'Open Sans';fill:#ffffff"
       id="path1104"
       inkscape:connector-curvature="0" />
    <path
       d="m 815.73608,117.34369 q 0,2.03247 -1.3916,3.1311 -1.38244,1.08948 -3.96423,1.08948 h -1.57471 v 5.26428 h -1.55639 v -13.38501 h 3.46984 q 5.01709,0 5.01709,3.90015 z m -6.93054,2.88391 h 1.40076 q 2.06909,0 2.99377,-0.66833 0.92469,-0.66834 0.92469,-2.14234 0,-1.32751 -0.86976,-1.97754 -0.86975,-0.65002 -2.70996,-0.65002 h -1.7395 z"
       style="letter-spacing:-0.5px"
       id="path1106"
       inkscape:connector-curvature="0" />
    <path
       d="m 825.90198,126.82855 h -8.79822 v -1.3092 l 3.52478,-3.54309 q 1.61133,-1.62964 2.12402,-2.32544 0.5127,-0.6958 0.76905,-1.35498 0.25634,-0.65918 0.25634,-1.41907 0,-1.07117 -0.65002,-1.69373 -0.65002,-0.63171 -1.80359,-0.63171 -0.83313,0 -1.58386,0.27466 -0.74158,0.27466 -1.65711,0.99792 l -0.80566,-1.03454 q 1.84937,-1.53809 4.02832,-1.53809 1.88599,0 2.95715,0.97046 1.07117,0.9613 1.07117,2.59094 0,1.27259 -0.71411,2.5177 -0.71411,1.24512 -2.67334,3.14942 l -2.92969,2.8656 v 0.0732 h 6.88477 z"
       style="font-size:18.75px;font-family:'Open Sans';fill:#ffffff"
       id="path1108"
       inkscape:connector-curvature="0" />
  </g>
  <circle
     id="circle85"
     style="fill:#02a49c"
     cx="541"
     cy="172"
     r="18" />
  <g
     aria-label="GA"
     style="font-weight:600;font-size:18.75px;font-family:'Open Sans';fill:#ffffff"
     id="text87">
    <path
       d="m 534.68286,171.60703 h 4.92554 v 6.71997 q -1.2085,0.39367 -2.32544,0.55847 -1.10779,0.16479 -2.39868,0.16479 -3.03955,0 -4.6875,-1.79443 -1.64795,-1.80359 -1.64795,-5.08118 0,-3.23181 1.85852,-5.05371 1.85852,-1.83105 5.1178,-1.83105 2.09655,0 3.97339,0.80566 l -0.76905,1.8219 q -1.62964,-0.75073 -3.25928,-0.75073 -2.14233,0 -3.38745,1.34582 -1.24511,1.34583 -1.24511,3.68042 0,2.45362 1.11694,3.73535 1.1261,1.27259 3.23181,1.27259 1.06201,0 2.27051,-0.26551 v -3.45153 h -2.77405 z"
       style="font-weight:600;font-size:18.75px;font-family:'Open Sans';fill:#ffffff"
       id="path1118"
       inkscape:connector-curvature="0" />
    <path
       d="m 551.13489,178.86716 -1.33667,-3.71704 h -5.1178 l -1.3092,3.71704 h -2.30713 l 5.00793,-13.43994 h 2.38037 l 5.00794,13.43994 z m -1.91345,-5.60303 -1.25428,-3.6438 q -0.13733,-0.36621 -0.38452,-1.15356 -0.23804,-0.78736 -0.32959,-1.15357 -0.24719,1.1261 -0.72326,2.46277 l -1.2085,3.48816 z"
       style="font-weight:600;font-size:18.75px;font-family:'Open Sans';fill:#ffffff"
       id="path1120"
       inkscape:connector-curvature="0" />
  </g>
  <circle
     id="circle89"
     style="fill:#00c081"
     cx="946"
     cy="94"
     r="18" />
  <g
     aria-label="SP3"
     style="font-size:18.75px;font-family:'Open Sans';fill:#ffffff"
     id="text93">
    <path
       d="m 939.5575,97.247787 q 0,1.766968 -1.28174,2.755733 -1.28174,0.98877 -3.47901,0.98877 -2.38037,0 -3.66211,-0.6134 v -1.501464 q 0.82398,0.347901 1.79444,0.549317 0.97046,0.201416 1.9226,0.201416 1.5564,0 2.34375,-0.585938 0.78736,-0.595093 0.78736,-1.647949 0,-0.695801 -0.28382,-1.135254 -0.27465,-0.448608 -0.93383,-0.823975 -0.65003,-0.375366 -1.9867,-0.85144 -1.86767,-0.668335 -2.67334,-1.583862 -0.79651,-0.915528 -0.79651,-2.389527 0,-1.547241 1.16272,-2.462768 1.16272,-0.915528 3.07618,-0.915528 1.99584,0 3.67126,0.732422 l -0.48523,1.354981 q -1.6571,-0.695801 -3.22266,-0.695801 -1.23596,0 -1.93176,0.531006 -0.6958,0.531006 -0.6958,1.473999 0,0.695801 0.25635,1.144409 0.25635,0.439453 0.86059,0.814819 0.61341,0.366211 1.86768,0.81482 2.10571,0.750732 2.89307,1.611328 0.79651,0.860595 0.79651,2.233886 z"
       style="font-size:18.75px;font-family:'Open Sans';fill:#ffffff"
       id="path1097"
       inkscape:connector-curvature="0" />
    <path
       d="m 950.78186,91.324326 q 0,2.03247 -1.3916,3.131103 -1.38245,1.089478 -3.96423,1.089478 h -1.57471 v 5.264283 h -1.5564 V 87.424179 h 3.46985 q 5.01709,0 5.01709,3.900147 z m -6.93054,2.883911 h 1.40076 q 2.06909,0 2.99377,-0.668335 0.92468,-0.668335 0.92468,-2.142334 0,-1.327515 -0.86975,-1.977539 -0.86975,-0.650025 -2.70996,-0.650025 h -1.7395 z"
       style="letter-spacing:-0.5px"
       id="path1099"
       inkscape:connector-curvature="0" />
    <path
       d="m 960.44421,90.573593 q 0,1.281738 -0.72326,2.096558 -0.71411,0.814819 -2.03247,1.089477 v 0.07324 q 1.61132,0.201416 2.38952,1.025391 0.7782,0.823975 0.7782,2.160645 0,1.913452 -1.32751,2.947998 -1.32752,1.025388 -3.77198,1.025388 -1.06201,0 -1.95007,-0.16479 -0.87891,-0.15564 -1.71204,-0.55847 v -1.446537 q 0.86976,0.430297 1.84937,0.659179 0.98877,0.219727 1.86768,0.219727 3.46984,0 3.46984,-2.719116 0,-2.435303 -3.8269,-2.435303 h -1.31836 v -1.309204 h 1.33667 q 1.56555,0 2.48108,-0.686646 0.91553,-0.695801 0.91553,-1.922607 0,-0.979614 -0.67749,-1.538086 -0.66834,-0.558472 -1.8219,-0.558472 -0.87891,0 -1.65711,0.238037 -0.7782,0.238037 -1.77612,0.878907 l -0.76904,-1.025391 q 0.82397,-0.650025 1.89514,-1.016235 1.08032,-0.375367 2.27051,-0.375367 1.95007,0 3.03039,0.897217 1.08032,0.888062 1.08032,2.444458 z"
       style="font-size:18.75px;font-family:'Open Sans';fill:#ffffff"
       id="path1101"
       inkscape:connector-curvature="0" />
  </g>
  <path
     id="path95"
     d="m 1081,50 a 18,18 0 0 0 -18,18 18,18 0 0 0 18,18 18,18 0 0 0 3,-0.253906 V 50.271484 A 18,18 0 0 0 1081,50 Z"
     style="fill:#00c081" />
  <path
     id="path97"
     d="m 969,11 v 192 h 110 c 2.77,0 5,-2.57927 5,-5.78313 V 16.783135 C 1084,13.579276 1081.77,11 1079,11 Z"
     style="fill:url(#linearGradient5399);stroke-width:1.07546568" />
  <path
     id="path99"
     style="fill:#5f5f5f;fill-opacity:0.75"
     d="m 993.47461,111 c -2.4242,0 -4.27517,0.63928 -5.55469,1.91797 -1.2794,1.27869 -1.91992,3.11437 -1.91992,5.50781 0,2.36065 0.64052,4.21432 1.91992,5.5586 1.27952,1.34426 3.13049,2.01562 5.55469,2.01562 2.42431,0 4.27718,-0.67136 5.55664,-2.01562 1.31305,-1.37706 1.96875,-3.23074 1.96875,-5.5586 0,-2.29508 -0.6405,-4.09869 -1.91992,-5.41015 C 997.80056,111.67136 995.93256,111 993.47461,111 Z m 25.99999,0 c -2.4242,0 -4.2752,0.63928 -5.5547,1.91797 -1.2794,1.27869 -1.9199,3.11437 -1.9199,5.50781 0,2.36065 0.6405,4.21432 1.9199,5.5586 1.2795,1.34426 3.1305,2.01562 5.5547,2.01562 2.4243,0 4.2753,-0.67136 5.5547,-2.01562 1.3132,-1.37706 1.9707,-3.23074 1.9707,-5.5586 0,-2.29508 -0.6405,-4.09869 -1.9199,-5.41015 C 1023.8006,111.67136 1021.9326,111 1019.4746,111 Z m 26,0 c -2.4242,0 -4.2752,0.63928 -5.5547,1.91797 -1.2794,1.27869 -1.9199,3.11437 -1.9199,5.50781 0,2.36065 0.6405,4.21432 1.9199,5.5586 1.2795,1.34426 3.1305,2.01562 5.5547,2.01562 2.4243,0 4.2753,-0.67136 5.5547,-2.01562 1.3132,-1.37706 1.9707,-3.23074 1.9707,-5.5586 0,-2.29508 -0.6405,-4.09869 -1.9199,-5.41015 C 1049.8006,111.67136 1047.9325,111 1045.4746,111 Z" />
  <circle
     id="circle101"
     style="fill:#02a49c"
     cx="32"
     cy="356"
     r="18" />
  <g
     aria-label="GA"
     style="font-weight:600;font-size:18.75px;font-family:'Open Sans';fill:#ffffff"
     id="text103">
    <path
       d="m 25.682861,355.60703 h 4.925537 v 6.71997 q -1.208496,0.39367 -2.325439,0.55847 -1.107788,0.16479 -2.398682,0.16479 -3.03955,0 -4.6875,-1.79443 -1.647949,-1.80359 -1.647949,-5.08118 0,-3.23181 1.858521,-5.05371 1.85852,-1.83105 5.117797,-1.83105 2.096558,0 3.973389,0.80566 l -0.769043,1.8219 q -1.629638,-0.75073 -3.259277,-0.75073 -2.142334,0 -3.387451,1.34582 -1.245118,1.34583 -1.245118,3.68042 0,2.45362 1.116944,3.73535 1.126098,1.27259 3.231811,1.27259 1.062012,0 2.270508,-0.26551 v -3.45153 h -2.774048 z"
       style="font-weight:600;font-size:18.75px;font-family:'Open Sans';fill:#ffffff"
       id="path1057"
       inkscape:connector-curvature="0" />
    <path
       d="m 42.134888,362.86716 -1.33667,-3.71704 H 35.68042 l -1.309204,3.71704 h -2.307129 l 5.007934,-13.43994 h 2.380372 l 5.007934,13.43994 z m -1.913452,-5.60303 -1.254273,-3.6438 q -0.137329,-0.36621 -0.384521,-1.15356 -0.238038,-0.78736 -0.32959,-1.15357 -0.247193,1.1261 -0.723267,2.46277 l -1.208496,3.48816 z"
       style="font-weight:600;font-size:18.75px;font-family:'Open Sans';fill:#ffffff"
       id="path1059"
       inkscape:connector-curvature="0" />
  </g>
  <circle
     id="circle105"
     style="fill:#00c081"
     cx="167"
     cy="330"
     r="18" />
  <g
     aria-label="SP1"
     style="font-size:18.75px;font-family:'Open Sans';fill:#ffffff"
     id="text109">
    <path
       d="m 162.34558,333.28641 q 0,1.76697 -1.28174,2.75573 -1.28174,0.98877 -3.479,0.98877 -2.38037,0 -3.66211,-0.6134 v -1.50146 q 0.82397,0.3479 1.79443,0.54931 0.97046,0.20142 1.92261,0.20142 1.5564,0 2.34375,-0.58594 0.78735,-0.59509 0.78735,-1.64795 0,-0.6958 -0.28381,-1.13525 -0.27466,-0.44861 -0.93384,-0.82398 -0.65002,-0.37536 -1.98669,-0.85144 -1.86768,-0.66833 -2.67334,-1.58386 -0.79651,-0.91553 -0.79651,-2.38953 0,-1.54724 1.16272,-2.46276 1.16272,-0.91553 3.07617,-0.91553 1.99585,0 3.67127,0.73242 l -0.48523,1.35498 q -1.65711,-0.6958 -3.22266,-0.6958 -1.23596,0 -1.93176,0.53101 -0.6958,0.531 -0.6958,1.47399 0,0.69581 0.25634,1.14441 0.25635,0.43946 0.8606,0.81482 0.6134,0.36621 1.86768,0.81482 2.10571,0.75074 2.89306,1.61133 0.79651,0.8606 0.79651,2.23389 z"
       style="font-size:18.75px;font-family:'Open Sans';fill:#ffffff"
       id="path1062"
       inkscape:connector-curvature="0" />
    <path
       d="m 173.56995,327.36295 q 0,2.03247 -1.39161,3.1311 -1.38244,1.08948 -3.96423,1.08948 h -1.57471 v 5.26428 h -1.55639 V 323.4628 h 3.46985 q 5.01709,0 5.01709,3.90015 z m -6.93055,2.88391 h 1.40076 q 2.06909,0 2.99378,-0.66834 0.92468,-0.66833 0.92468,-2.14233 0,-1.32752 -0.86975,-1.97754 -0.86975,-0.65003 -2.70996,-0.65003 h -1.73951 z"
       style="letter-spacing:-1px"
       id="path1064"
       inkscape:connector-curvature="0" />
    <path
       d="m 180.06812,336.84781 h -1.48316 v -9.5398 q 0,-1.19018 0.0732,-2.25219 -0.19226,0.19226 -0.43029,0.40283 -0.23804,0.21057 -2.17896,1.78528 l -0.80566,-1.0437 3.54309,-2.73743 h 1.28174 z"
       style="font-size:18.75px;font-family:'Open Sans';fill:#ffffff"
       id="path1066"
       inkscape:connector-curvature="0" />
  </g>
  <circle
     id="circle111"
     style="fill:#00c081"
     cx="302"
     cy="304"
     r="18" />
  <g
     aria-label="SP2"
     style="font-size:18.75px;font-family:'Open Sans';fill:#ffffff"
     id="text115">
    <path
       d="m 295.51172,307.26715 q 0,1.76697 -1.28174,2.75574 -1.28174,0.98877 -3.479,0.98877 -2.38037,0 -3.66211,-0.61341 v -1.50146 q 0.82397,0.3479 1.79443,0.54932 0.97046,0.20141 1.92261,0.20141 1.55639,0 2.34375,-0.58594 0.78735,-0.59509 0.78735,-1.64794 0,-0.69581 -0.28381,-1.13526 -0.27466,-0.44861 -0.93384,-0.82397 -0.65002,-0.37537 -1.98669,-0.85144 -1.86768,-0.66834 -2.67334,-1.58387 -0.79651,-0.91552 -0.79651,-2.38952 0,-1.54724 1.16272,-2.46277 1.16272,-0.91553 3.07617,-0.91553 1.99585,0 3.67126,0.73242 l -0.48523,1.35498 q -1.6571,-0.6958 -3.22265,-0.6958 -1.23596,0 -1.93176,0.53101 -0.69581,0.53101 -0.69581,1.474 0,0.6958 0.25635,1.14441 0.25635,0.43945 0.8606,0.81482 0.6134,0.36621 1.86767,0.81482 2.10572,0.75073 2.89307,1.61132 0.79651,0.8606 0.79651,2.23389 z"
       style="font-size:18.75px;font-family:'Open Sans';fill:#ffffff"
       id="path1069"
       inkscape:connector-curvature="0" />
    <path
       d="m 306.73608,301.34369 q 0,2.03247 -1.3916,3.1311 -1.38244,1.08948 -3.96423,1.08948 h -1.57471 v 5.26428 h -1.55639 v -13.38501 h 3.46984 q 5.01709,0 5.01709,3.90015 z m -6.93054,2.88391 h 1.40076 q 2.06909,0 2.99377,-0.66833 0.92469,-0.66834 0.92469,-2.14234 0,-1.32751 -0.86976,-1.97754 -0.86975,-0.65002 -2.70996,-0.65002 h -1.7395 z"
       style="letter-spacing:-0.5px"
       id="path1071"
       inkscape:connector-curvature="0" />
    <path
       d="m 316.90198,310.82855 h -8.79822 v -1.3092 l 3.52478,-3.54309 q 1.61133,-1.62964 2.12402,-2.32544 0.5127,-0.6958 0.76905,-1.35498 0.25634,-0.65918 0.25634,-1.41907 0,-1.07117 -0.65002,-1.69373 -0.65002,-0.63171 -1.80359,-0.63171 -0.83313,0 -1.58386,0.27466 -0.74158,0.27466 -1.65711,0.99792 l -0.80566,-1.03454 q 1.84937,-1.53809 4.02832,-1.53809 1.88599,0 2.95715,0.97046 1.07117,0.9613 1.07117,2.59094 0,1.27259 -0.71411,2.5177 -0.71411,1.24512 -2.67334,3.14942 l -2.92969,2.8656 v 0.0732 h 6.88477 z"
       style="font-size:18.75px;font-family:'Open Sans';fill:#ffffff"
       id="path1073"
       inkscape:connector-curvature="0" />
  </g>
  <circle
     id="circle123"
     style="fill:#00c081"
     cx="437"
     cy="278"
     r="18" />
  <g
     aria-label="SP3"
     style="font-size:18.75px;font-family:'Open Sans';fill:#ffffff"
     id="text127">
    <path
       d="m 430.5575,281.2478 q 0,1.76697 -1.28174,2.75574 -1.28174,0.98877 -3.47901,0.98877 -2.38037,0 -3.66211,-0.6134 v -1.50147 q 0.82398,0.3479 1.79444,0.54932 0.97046,0.20141 1.9226,0.20141 1.5564,0 2.34375,-0.58593 0.78736,-0.5951 0.78736,-1.64795 0,-0.6958 -0.28382,-1.13526 -0.27465,-0.44861 -0.93383,-0.82397 -0.65003,-0.37537 -1.9867,-0.85144 -1.86767,-0.66834 -2.67334,-1.58386 -0.79651,-0.91553 -0.79651,-2.38953 0,-1.54724 1.16272,-2.46277 1.16272,-0.91553 3.07618,-0.91553 1.99584,0 3.67126,0.73243 l -0.48523,1.35498 q -1.6571,-0.6958 -3.22266,-0.6958 -1.23596,0 -1.93176,0.531 -0.6958,0.53101 -0.6958,1.474 0,0.6958 0.25635,1.14441 0.25635,0.43945 0.86059,0.81482 0.61341,0.36621 1.86768,0.81482 2.10571,0.75073 2.89307,1.61133 0.79651,0.86059 0.79651,2.23388 z"
       style="font-size:18.75px;font-family:'Open Sans';fill:#ffffff"
       id="path1076"
       inkscape:connector-curvature="0" />
    <path
       d="m 441.78186,275.32434 q 0,2.03247 -1.3916,3.1311 -1.38245,1.08948 -3.96423,1.08948 h -1.57471 v 5.26428 h -1.5564 v -13.38501 h 3.46985 q 5.01709,0 5.01709,3.90015 z m -6.93054,2.88391 h 1.40076 q 2.06909,0 2.99377,-0.66833 0.92468,-0.66834 0.92468,-2.14234 0,-1.32751 -0.86975,-1.97754 -0.86975,-0.65002 -2.70996,-0.65002 h -1.7395 z"
       style="letter-spacing:-0.5px"
       id="path1078"
       inkscape:connector-curvature="0" />
    <path
       d="m 451.44421,274.57361 q 0,1.28174 -0.72326,2.09656 -0.71411,0.81482 -2.03247,1.08947 v 0.0733 q 1.61132,0.20141 2.38952,1.02539 0.7782,0.82397 0.7782,2.16064 0,1.91345 -1.32751,2.948 -1.32752,1.02539 -3.77198,1.02539 -1.06201,0 -1.95007,-0.1648 -0.87891,-0.15564 -1.71204,-0.55847 v -1.44653 q 0.86976,0.4303 1.84937,0.65918 0.98877,0.21973 1.86768,0.21973 3.46984,0 3.46984,-2.71912 0,-2.4353 -3.8269,-2.4353 h -1.31836 v -1.30921 h 1.33667 q 1.56555,0 2.48108,-0.68664 0.91553,-0.6958 0.91553,-1.92261 0,-0.97961 -0.67749,-1.53809 -0.66834,-0.55847 -1.8219,-0.55847 -0.87891,0 -1.65711,0.23804 -0.7782,0.23804 -1.77612,0.87891 l -0.76904,-1.02539 q 0.82397,-0.65003 1.89514,-1.01624 1.08032,-0.37537 2.27051,-0.37537 1.95007,0 3.03039,0.89722 1.08032,0.88806 1.08032,2.44446 z"
       style="font-size:18.75px;font-family:'Open Sans';fill:#ffffff"
       id="path1080"
       inkscape:connector-curvature="0" />
  </g>
  <rect
     id="rect129"
     ry="3"
     rx="3.9998925"
     y="221"
     x="138.56631"
     height="36"
     width="238.37337"
     style="fill:#5f5f5f;stroke-width:1.1546849" />
  <g
     aria-label="sobreposição de 6 meses"
     style="font-size:18.75px;font-family:'Open Sans';fill:#00c081"
     id="text131">
    <path
       d="m 156.03711,243.20523 q 0,1.40076 -1.0437,2.16065 -1.0437,0.75988 -2.92969,0.75988 -1.99585,0 -3.11279,-0.63171 v -1.40991 q 0.72326,0.36621 1.54724,0.57678 0.83313,0.21057 1.60217,0.21057 1.19019,0 1.83106,-0.37537 0.64087,-0.38452 0.64087,-1.16272 0,-0.58593 -0.5127,-0.99792 -0.50354,-0.42114 -1.97754,-0.98877 -1.40076,-0.52185 -1.99585,-0.90637 -0.58594,-0.39368 -0.8789,-0.88806 -0.28382,-0.49439 -0.28382,-1.18103 0,-1.22681 0.99793,-1.93177 0.99792,-0.71411 2.73742,-0.71411 1.62049,0 3.16773,0.65918 l -0.54016,1.23596 q -1.51062,-0.62255 -2.73743,-0.62255 -1.08032,0 -1.62964,0.33874 -0.54931,0.33875 -0.54931,0.93384 0,0.40283 0.20141,0.68664 0.21057,0.28382 0.66834,0.54016 0.45776,0.25635 1.75781,0.74158 1.78528,0.65003 2.40784,1.30921 0.63171,0.65918 0.63171,1.6571 z"
       style="text-align:center;text-anchor:middle"
       id="path1005"
       inkscape:connector-curvature="0" />
    <path
       d="m 167.16077,240.91641 q 0,2.45362 -1.23597,3.83606 -1.23596,1.37329 -3.41491,1.37329 -1.34583,0 -2.38953,-0.63171 -1.0437,-0.63171 -1.61133,-1.81275 -0.56762,-1.18103 -0.56762,-2.76489 0,-2.45361 1.2268,-3.81775 1.22681,-1.37329 3.40576,-1.37329 2.10572,0 3.34168,1.40076 1.24512,1.40076 1.24512,3.79028 z m -7.64466,0 q 0,1.92261 0.76905,2.92969 0.76904,1.00708 2.26135,1.00708 1.49231,0 2.26135,-0.99792 0.7782,-1.00708 0.7782,-2.93885 0,-1.91345 -0.7782,-2.90222 -0.76904,-0.99792 -2.27966,-0.99792 -1.49231,0 -2.2522,0.97961 -0.75989,0.97961 -0.75989,2.92053 z"
       style="text-align:center;text-anchor:middle"
       id="path1007"
       inkscape:connector-curvature="0" />
    <path
       d="m 174.48499,235.74368 q 1.97753,0 3.06701,1.35498 1.09863,1.34583 1.09863,3.81775 0,2.47193 -1.10778,3.84522 -1.09864,1.36413 -3.05786,1.36413 -0.97962,0 -1.79444,-0.35705 -0.80566,-0.36621 -1.35498,-1.11695 h -0.10986 l -0.32044,1.2909 h -1.08947 v -14.24561 h 1.51977 v 3.4607 q 0,1.16272 -0.0732,2.0874 h 0.0732 q 1.06201,-1.50147 3.14942,-1.50147 z m -0.21973,1.27259 q -1.5564,0 -2.24304,0.89721 -0.68665,0.88806 -0.68665,3.00293 0,2.11487 0.70496,3.0304 0.70495,0.90637 2.26135,0.90637 1.40076,0 2.0874,-1.01624 0.68665,-1.02539 0.68665,-2.93884 0,-1.95923 -0.68665,-2.92053 -0.68664,-0.9613 -2.12402,-0.9613 z"
       style="text-align:center;text-anchor:middle"
       id="path1009"
       inkscape:connector-curvature="0" />
    <path
       d="m 185.89246,235.72537 q 0.66833,0 1.19934,0.10987 l -0.21057,1.40991 q -0.62256,-0.13733 -1.09864,-0.13733 -1.21765,0 -2.0874,0.98877 -0.8606,0.98877 -0.8606,2.46277 v 5.3833 h -1.51977 v -10.03418 h 1.25427 l 0.17395,1.85852 h 0.0732 q 0.55848,-0.97962 1.34583,-1.51062 0.78735,-0.53101 1.73035,-0.53101 z"
       style="text-align:center;text-anchor:middle"
       id="path1011"
       inkscape:connector-curvature="0" />
    <path
       d="m 193.20752,246.12576 q -2.22473,0 -3.51563,-1.35498 -1.28173,-1.35498 -1.28173,-3.76281 0,-2.42615 1.19018,-3.85438 1.19934,-1.42822 3.2135,-1.42822 1.88599,0 2.98462,1.24512 1.09863,1.23596 1.09863,3.26843 v 0.96131 h -6.91223 q 0.0458,1.76696 0.88806,2.68249 0.85145,0.91553 2.38953,0.91553 1.62048,0 3.20435,-0.67749 v 1.35498 q -0.80567,0.3479 -1.52893,0.49438 -0.71412,0.15564 -1.73035,0.15564 z m -0.41199,-9.1278 q -1.20849,0 -1.93176,0.78735 -0.71411,0.78735 -0.84229,2.17895 h 5.24598 q 0,-1.43737 -0.64087,-2.19726 -0.64087,-0.76904 -1.83106,-0.76904 z"
       style="text-align:center;text-anchor:middle"
       id="path1013"
       inkscape:connector-curvature="0" />
    <path
       d="m 204.14807,246.12576 q -0.97961,0 -1.79443,-0.35705 -0.80567,-0.36621 -1.35498,-1.11695 h -0.10987 q 0.10987,0.87891 0.10987,1.66626 v 4.12903 h -1.51978 v -14.53857 h 1.23596 l 0.21058,1.37329 h 0.0732 q 0.58593,-0.82398 1.36413,-1.19019 0.7782,-0.36621 1.78528,-0.36621 1.99585,0 3.07617,1.36414 1.08948,1.36413 1.08948,3.8269 0,2.47193 -1.10779,3.84522 -1.09863,1.36413 -3.05786,1.36413 z m -0.21973,-9.10949 q -1.53808,0 -2.22473,0.85144 -0.68664,0.85144 -0.70495,2.70996 v 0.33874 q 0,2.11487 0.70495,3.0304 0.70496,0.90637 2.26136,0.90637 1.30004,0 2.03247,-1.05286 0.74157,-1.05285 0.74157,-2.90222 0,-1.87683 -0.74157,-2.87475 -0.73243,-1.00708 -2.0691,-1.00708 z"
       style="text-align:center;text-anchor:middle"
       id="path1015"
       inkscape:connector-curvature="0" />
    <path
       d="m 219.63879,240.91641 q 0,2.45362 -1.23596,3.83606 -1.23596,1.37329 -3.41491,1.37329 -1.34583,0 -2.38953,-0.63171 -1.0437,-0.63171 -1.61133,-1.81275 -0.56763,-1.18103 -0.56763,-2.76489 0,-2.45361 1.22681,-3.81775 1.22681,-1.37329 3.40576,-1.37329 2.10571,0 3.34168,1.40076 1.24511,1.40076 1.24511,3.79028 z m -7.64465,0 q 0,1.92261 0.76904,2.92969 0.76905,1.00708 2.26136,1.00708 1.49231,0 2.26135,-0.99792 0.7782,-1.00708 0.7782,-2.93885 0,-1.91345 -0.7782,-2.90222 -0.76904,-0.99792 -2.27966,-0.99792 -1.49231,0 -2.2522,0.97961 -0.75989,0.97961 -0.75989,2.92053 z"
       style="text-align:center;text-anchor:middle"
       id="path1017"
       inkscape:connector-curvature="0" />
    <path
       d="m 228.7666,243.20523 q 0,1.40076 -1.0437,2.16065 -1.0437,0.75988 -2.92969,0.75988 -1.99585,0 -3.11279,-0.63171 v -1.40991 q 0.72327,0.36621 1.54724,0.57678 0.83313,0.21057 1.60217,0.21057 1.19019,0 1.83106,-0.37537 0.64087,-0.38452 0.64087,-1.16272 0,-0.58593 -0.5127,-0.99792 -0.50354,-0.42114 -1.97754,-0.98877 -1.40075,-0.52185 -1.99585,-0.90637 -0.58593,-0.39368 -0.8789,-0.88806 -0.28382,-0.49439 -0.28382,-1.18103 0,-1.22681 0.99793,-1.93177 0.99792,-0.71411 2.73743,-0.71411 1.62048,0 3.16772,0.65918 l -0.54016,1.23596 q -1.51062,-0.62255 -2.73743,-0.62255 -1.08032,0 -1.62964,0.33874 -0.54931,0.33875 -0.54931,0.93384 0,0.40283 0.20141,0.68664 0.21057,0.28382 0.66834,0.54016 0.45776,0.25635 1.75781,0.74158 1.78528,0.65003 2.40784,1.30921 0.63171,0.65918 0.63171,1.6571 z"
       style="text-align:center;text-anchor:middle"
       id="path1019"
       inkscape:connector-curvature="0" />
    <path
       d="m 232.74915,245.94266 h -1.51978 v -10.03418 h 1.51978 z m -1.64795,-12.7533 q 0,-0.52185 0.25634,-0.75989 0.25635,-0.24719 0.64087,-0.24719 0.36621,0 0.63172,0.24719 0.2655,0.2472 0.2655,0.75989 0,0.5127 -0.2655,0.76904 -0.26551,0.2472 -0.63172,0.2472 -0.38452,0 -0.64087,-0.2472 -0.25634,-0.25634 -0.25634,-0.76904 z"
       style="text-align:center;text-anchor:middle"
       id="path1021"
       inkscape:connector-curvature="0" />
    <path
       d="m 240.00012,246.12576 q -2.17895,0 -3.37829,-1.33667 -1.19019,-1.34582 -1.19019,-3.79944 0,-2.5177 1.2085,-3.89099 1.21765,-1.37329 3.46069,-1.37329 0.72327,0 1.44653,0.15564 0.72327,0.15564 1.13526,0.36621 l -0.46692,1.2909 q -0.50354,-0.20142 -1.09863,-0.32959 -0.5951,-0.13733 -1.05286,-0.13733 -3.05786,0 -3.05786,3.90014 0,1.84937 0.74157,2.83814 0.75074,0.98877 2.21558,0.98877 1.25427,0 2.57263,-0.54016 v 1.34582 q -1.00708,0.52185 -2.53601,0.52185 z m 1.35498,2.46277 q 0,0.88806 -0.70495,1.37329 -0.6958,0.48523 -2.0691,0.48523 -0.46691,0 -0.8789,-0.0824 v -0.97045 q 0.41199,0.0732 0.95215,0.0732 0.72326,0 1.08947,-0.18311 0.37537,-0.1831 0.37537,-0.67749 0,-0.39367 -0.36621,-0.64087 -0.35706,-0.23803 -1.35498,-0.39367 l 0.80566,-1.62964 h 1.00708 l -0.50354,1.05285 q 1.64795,0.35706 1.64795,1.59302 z"
       style="text-align:center;text-anchor:middle"
       id="path1023"
       inkscape:connector-curvature="0" />
    <path
       d="m 251.09631,245.94266 -0.30212,-1.42823 h -0.0732 q -0.75074,0.943 -1.50147,1.28174 -0.74157,0.32959 -1.85852,0.32959 -1.49231,0 -2.34375,-0.76904 -0.84228,-0.76904 -0.84228,-2.18811 0,-3.03955 4.86145,-3.18604 l 1.70288,-0.0549 v -0.62256 q 0,-1.18103 -0.5127,-1.7395 -0.50354,-0.56762 -1.62048,-0.56762 -1.25427,0 -2.83814,0.76904 l -0.46691,-1.16272 q 0.74157,-0.40283 1.62048,-0.63172 0.88806,-0.22888 1.77612,-0.22888 1.79444,0 2.65503,0.79651 0.86975,0.79651 0.86975,2.55432 v 6.84815 z m -3.43322,-1.07117 q 1.41906,0 2.22473,-0.7782 0.81482,-0.7782 0.81482,-2.17895 v -0.90637 l -1.51978,0.0641 q -1.81274,0.0641 -2.61841,0.56763 -0.79651,0.49438 -0.79651,1.54724 0,0.82397 0.49439,1.25427 0.50354,0.4303 1.40076,0.4303 z m 2.25219,-10.30884 q -0.39367,0 -0.76904,-0.16479 -0.37537,-0.17395 -0.74158,-0.37537 -0.35705,-0.21057 -0.6958,-0.37536 -0.32959,-0.17395 -0.64087,-0.17395 -0.45776,0 -0.6958,0.27465 -0.22888,0.27466 -0.35705,0.83313 h -0.89722 q 0.11902,-1.10778 0.64087,-1.73034 0.531,-0.63172 1.36413,-0.63172 0.42115,0 0.81482,0.17395 0.39368,0.1648 0.75074,0.37537 0.35705,0.20142 0.68664,0.37537 0.32959,0.16479 0.62256,0.16479 0.44861,0 0.66834,-0.2655 0.21972,-0.27466 0.35705,-0.84229 h 0.90637 q -0.11902,1.10779 -0.64087,1.7395 -0.51269,0.62256 -1.37329,0.62256 z"
       style="text-align:center;text-anchor:middle"
       id="path1025"
       inkscape:connector-curvature="0" />
    <path
       d="m 264.02356,240.91641 q 0,2.45362 -1.23596,3.83606 -1.23596,1.37329 -3.41492,1.37329 -1.34582,0 -2.38953,-0.63171 -1.0437,-0.63171 -1.61132,-1.81275 -0.56763,-1.18103 -0.56763,-2.76489 0,-2.45361 1.22681,-3.81775 1.2268,-1.37329 3.40576,-1.37329 2.10571,0 3.34167,1.40076 1.24512,1.40076 1.24512,3.79028 z m -7.64465,0 q 0,1.92261 0.76904,2.92969 0.76904,1.00708 2.26135,1.00708 1.49231,0 2.26135,-0.99792 0.7782,-1.00708 0.7782,-2.93885 0,-1.91345 -0.7782,-2.90222 -0.76904,-0.99792 -2.27966,-0.99792 -1.49231,0 -2.2522,0.97961 -0.75988,0.97961 -0.75988,2.92053 z"
       style="text-align:center;text-anchor:middle"
       id="path1027"
       inkscape:connector-curvature="0" />
    <path
       d="m 278.37903,244.59683 h -0.0824 q -1.05286,1.52893 -3.14941,1.52893 -1.96839,0 -3.06702,-1.34582 -1.08948,-1.34583 -1.08948,-3.82691 0,-2.48108 1.09864,-3.85437 1.09863,-1.37329 3.05786,-1.37329 2.04162,0 3.1311,1.48316 h 0.11902 l -0.0641,-0.72327 -0.0366,-0.70496 v -4.08325 h 1.51978 v 14.24561 h -1.23597 z m -3.03955,0.25635 q 1.55639,0 2.25219,-0.84229 0.70496,-0.85144 0.70496,-2.73742 v -0.32044 q 0,-2.13318 -0.71411,-3.03955 -0.70496,-0.91552 -2.26135,-0.91552 -1.33667,0 -2.05078,1.0437 -0.70496,1.03454 -0.70496,2.92968 0,1.92261 0.70496,2.90223 0.70495,0.97961 2.06909,0.97961 z"
       style="text-align:center;text-anchor:middle"
       id="path1029"
       inkscape:connector-curvature="0" />
    <path
       d="m 287.28711,246.12576 q -2.22473,0 -3.51563,-1.35498 -1.28173,-1.35498 -1.28173,-3.76281 0,-2.42615 1.19018,-3.85438 1.19934,-1.42822 3.2135,-1.42822 1.88599,0 2.98462,1.24512 1.09863,1.23596 1.09863,3.26843 v 0.96131 h -6.91223 q 0.0458,1.76696 0.88806,2.68249 0.85145,0.91553 2.38953,0.91553 1.62048,0 3.20435,-0.67749 v 1.35498 q -0.80567,0.3479 -1.52893,0.49438 -0.71412,0.15564 -1.73035,0.15564 z m -0.41199,-9.1278 q -1.20849,0 -1.93176,0.78735 -0.71411,0.78735 -0.84229,2.17895 h 5.24598 q 0,-1.43737 -0.64087,-2.19726 -0.64087,-0.76904 -1.83106,-0.76904 z"
       style="text-align:center;text-anchor:middle"
       id="path1031"
       inkscape:connector-curvature="0" />
    <path
       d="m 297.88892,240.22061 q 0,-3.94592 1.52893,-5.89599 1.53808,-1.95923 4.54101,-1.95923 1.03455,0 1.62964,0.17395 v 1.3092 q -0.70496,-0.22888 -1.61133,-0.22888 -2.15149,0 -3.28674,1.34582 -1.13525,1.33667 -1.24512,4.21143 h 0.10987 q 1.00708,-1.57471 3.18603,-1.57471 1.80359,0 2.83814,1.08948 1.0437,1.08948 1.0437,2.95715 0,2.08741 -1.14441,3.28675 -1.13526,1.19018 -3.07617,1.19018 -2.07825,0 -3.2959,-1.55639 -1.21765,-1.56556 -1.21765,-4.34876 z m 4.49524,4.61426 q 1.30004,0 2.01416,-0.81482 0.72326,-0.82397 0.72326,-2.37122 0,-1.32751 -0.66833,-2.0874 -0.66834,-0.75989 -1.99585,-0.75989 -0.82398,0 -1.51062,0.33875 -0.68665,0.33874 -1.09864,0.93384 -0.40283,0.59509 -0.40283,1.23596 0,0.94299 0.36621,1.75781 0.36621,0.81482 1.03455,1.2909 0.67749,0.47607 1.53809,0.47607 z"
       style="text-align:center;text-anchor:middle"
       id="path1033"
       inkscape:connector-curvature="0" />
    <path
       d="m 326.81958,245.94266 v -6.52771 q 0,-1.19934 -0.5127,-1.79444 -0.51269,-0.60424 -1.59301,-0.60424 -1.41907,0 -2.09656,0.81482 -0.67749,0.81481 -0.67749,2.50854 v 5.60303 h -1.51978 v -6.52771 q 0,-1.19934 -0.51269,-1.79444 -0.5127,-0.60424 -1.60217,-0.60424 -1.42823,0 -2.09656,0.86059 -0.65918,0.85144 -0.65918,2.80152 v 5.26428 h -1.51978 v -10.03418 h 1.23596 l 0.2472,1.37329 h 0.0732 q 0.4303,-0.73242 1.2085,-1.14441 0.78735,-0.41199 1.75781,-0.41199 2.3529,0 3.07617,1.70288 h 0.0732 q 0.44861,-0.78735 1.30005,-1.24511 0.85144,-0.45777 1.94092,-0.45777 1.70288,0 2.54517,0.87891 0.85144,0.86975 0.85144,2.79236 v 6.54602 z"
       style="text-align:center;text-anchor:middle"
       id="path1035"
       inkscape:connector-curvature="0" />
    <path
       d="m 335.7002,246.12576 q -2.22474,0 -3.51563,-1.35498 -1.28174,-1.35498 -1.28174,-3.76281 0,-2.42615 1.19019,-3.85438 1.19934,-1.42822 3.2135,-1.42822 1.88598,0 2.98462,1.24512 1.09863,1.23596 1.09863,3.26843 v 0.96131 h -6.91223 q 0.0458,1.76696 0.88806,2.68249 0.85144,0.91553 2.38953,0.91553 1.62048,0 3.20434,-0.67749 v 1.35498 q -0.80566,0.3479 -1.52893,0.49438 -0.71411,0.15564 -1.73034,0.15564 z m -0.41199,-9.1278 q -1.2085,0 -1.93176,0.78735 -0.71412,0.78735 -0.84229,2.17895 h 5.24597 q 0,-1.43737 -0.64087,-2.19726 -0.64087,-0.76904 -1.83105,-0.76904 z"
       style="text-align:center;text-anchor:middle"
       id="path1037"
       inkscape:connector-curvature="0" />
    <path
       d="m 348.44434,243.20523 q 0,1.40076 -1.04371,2.16065 -1.0437,0.75988 -2.92968,0.75988 -1.99585,0 -3.1128,-0.63171 v -1.40991 q 0.72327,0.36621 1.54725,0.57678 0.83313,0.21057 1.60217,0.21057 1.19018,0 1.83105,-0.37537 0.64087,-0.38452 0.64087,-1.16272 0,-0.58593 -0.51269,-0.99792 -0.50354,-0.42114 -1.97754,-0.98877 -1.40076,-0.52185 -1.99585,-0.90637 -0.58594,-0.39368 -0.87891,-0.88806 -0.28381,-0.49439 -0.28381,-1.18103 0,-1.22681 0.99792,-1.93177 0.99793,-0.71411 2.73743,-0.71411 1.62048,0 3.16772,0.65918 l -0.54016,1.23596 q -1.51062,-0.62255 -2.73742,-0.62255 -1.08033,0 -1.62964,0.33874 -0.54932,0.33875 -0.54932,0.93384 0,0.40283 0.20142,0.68664 0.21057,0.28382 0.66833,0.54016 0.45777,0.25635 1.75782,0.74158 1.78527,0.65003 2.40783,1.30921 0.63172,0.65918 0.63172,1.6571 z"
       style="text-align:center;text-anchor:middle"
       id="path1039"
       inkscape:connector-curvature="0" />
    <path
       d="m 355.146,246.12576 q -2.22474,0 -3.51563,-1.35498 -1.28174,-1.35498 -1.28174,-3.76281 0,-2.42615 1.19019,-3.85438 1.19934,-1.42822 3.2135,-1.42822 1.88599,0 2.98462,1.24512 1.09863,1.23596 1.09863,3.26843 v 0.96131 h -6.91223 q 0.0458,1.76696 0.88806,2.68249 0.85144,0.91553 2.38953,0.91553 1.62048,0 3.20434,-0.67749 v 1.35498 q -0.80566,0.3479 -1.52893,0.49438 -0.71411,0.15564 -1.73034,0.15564 z m -0.41199,-9.1278 q -1.2085,0 -1.93176,0.78735 -0.71412,0.78735 -0.84229,2.17895 h 5.24597 q 0,-1.43737 -0.64087,-2.19726 -0.64087,-0.76904 -1.83105,-0.76904 z"
       style="text-align:center;text-anchor:middle"
       id="path1041"
       inkscape:connector-curvature="0" />
    <path
       d="m 367.89014,243.20523 q 0,1.40076 -1.0437,2.16065 -1.04371,0.75988 -2.92969,0.75988 -1.99585,0 -3.11279,-0.63171 v -1.40991 q 0.72326,0.36621 1.54724,0.57678 0.83313,0.21057 1.60217,0.21057 1.19018,0 1.83105,-0.37537 0.64087,-0.38452 0.64087,-1.16272 0,-0.58593 -0.51269,-0.99792 -0.50354,-0.42114 -1.97754,-0.98877 -1.40076,-0.52185 -1.99585,-0.90637 -0.58594,-0.39368 -0.87891,-0.88806 -0.28381,-0.49439 -0.28381,-1.18103 0,-1.22681 0.99792,-1.93177 0.99793,-0.71411 2.73743,-0.71411 1.62048,0 3.16773,0.65918 l -0.54017,1.23596 q -1.51062,-0.62255 -2.73742,-0.62255 -1.08032,0 -1.62964,0.33874 -0.54932,0.33875 -0.54932,0.93384 0,0.40283 0.20142,0.68664 0.21057,0.28382 0.66833,0.54016 0.45777,0.25635 1.75782,0.74158 1.78527,0.65003 2.40783,1.30921 0.63172,0.65918 0.63172,1.6571 z"
       style="text-align:center;text-anchor:middle"
       id="path1043"
       inkscape:connector-curvature="0" />
  </g>
  <path
     id="path133"
     d="m 190.39243,257 v 54.83984 l -2,-0.83984 3.5,10 3.5,-9.8457 -2,0.75195 V 257 Z"
     style="fill:#5f5f5f" />
  <path
     id="path135"
     d="m 325.39244,257 v 28.83984 l -2,-0.83984 3.5,10 3.5,-9.8457 -2,0.75195 V 257 Z"
     style="fill:#5f5f5f" />
  <rect
     id="rect31-5"
     y="213"
     x="735"
     height="26"
     width="230"
     style="fill:#02d35f" />
  <rect
     id="rect35-2"
     style="fill:#a7a9ac;fill-opacity:0.58823529"
     width="230"
     height="2"
     x="735"
     y="237" />
  <rect
     id="rect33-6"
     y="213"
     x="735"
     height="52"
     width="55"
     style="opacity:0.5;fill:#92ecba" />
  <rect
     id="rect35"
     style="fill:#a7a9ac;fill-opacity:0.58823529"
     width="230"
     height="2"
     x="560"
     y="263" />
  <circle
     id="circle117"
     style="fill:#00c081"
     cx="572"
     cy="252"
     r="18" />
  <g
     aria-label="SP4"
     style="font-size:18.75px;font-family:'Open Sans';fill:#ffffff"
     id="text121">
    <path
       d="m 565.19586,255.2478 q 0,1.76697 -1.28174,2.75574 -1.28173,0.98877 -3.479,0.98877 -2.38037,0 -3.66211,-0.6134 v -1.50147 q 0.82397,0.3479 1.79443,0.54932 0.97046,0.20141 1.92261,0.20141 1.5564,0 2.34375,-0.58593 0.78735,-0.5951 0.78735,-1.64795 0,-0.6958 -0.28381,-1.13526 -0.27466,-0.44861 -0.93384,-0.82397 -0.65002,-0.37537 -1.98669,-0.85144 -1.86768,-0.66834 -2.67334,-1.58386 -0.79651,-0.91553 -0.79651,-2.38953 0,-1.54724 1.16272,-2.46277 1.16272,-0.91553 3.07617,-0.91553 1.99585,0 3.67127,0.73243 l -0.48523,1.35498 q -1.65711,-0.6958 -3.22266,-0.6958 -1.23596,0 -1.93176,0.531 -0.6958,0.53101 -0.6958,1.474 0,0.6958 0.25635,1.14441 0.25634,0.43945 0.86059,0.81482 0.6134,0.36621 1.86768,0.81482 2.10571,0.75073 2.89306,1.61133 0.79651,0.86059 0.79651,2.23388 z"
       style="font-size:18.75px;font-family:'Open Sans';fill:#ffffff"
       id="path1083"
       inkscape:connector-curvature="0" />
    <path
       d="m 576.42023,249.32434 q 0,2.03247 -1.3916,3.1311 -1.38245,1.08948 -3.96424,1.08948 h -1.5747 v 5.26428 h -1.5564 v -13.38501 h 3.46985 q 5.01709,0 5.01709,3.90015 z m -6.93054,2.88391 h 1.40075 q 2.06909,0 2.99378,-0.66833 0.92468,-0.66834 0.92468,-2.14234 0,-1.32751 -0.86975,-1.97754 -0.86975,-0.65002 -2.70996,-0.65002 h -1.7395 z"
       style="letter-spacing:-0.5px"
       id="path1085"
       inkscape:connector-curvature="0" />
    <path
       d="m 587.21783,255.73303 h -1.98669 v 3.07617 h -1.45569 v -3.07617 h -6.5094 v -1.32751 l 6.35376,-9.05457 h 1.61133 v 8.99964 h 1.98669 z m -3.44238,-1.38244 v -4.44947 q 0,-1.3092 0.0915,-2.95715 h -0.0732 q -0.43945,0.87891 -0.82397,1.45569 l -4.18396,5.95093 z"
       style="font-size:18.75px;font-family:'Open Sans';fill:#ffffff"
       id="path1087"
       inkscape:connector-curvature="0" />
  </g>
  <circle
     id="circle117-9"
     style="fill:#00c081"
     cx="747"
     cy="226"
     r="18" />
  <g
     aria-label="SP5"
     style="font-size:18.75px;font-family:'Open Sans';fill:#ffffff"
     id="text121-1">
    <path
       d="m 740.1958,229.24779 q 0,1.76697 -1.28174,2.75573 -1.28174,0.98877 -3.479,0.98877 -2.38037,0 -3.66211,-0.6134 v -1.50146 q 0.82397,0.3479 1.79443,0.54931 0.97046,0.20142 1.92261,0.20142 1.5564,0 2.34375,-0.58594 0.78735,-0.59509 0.78735,-1.64795 0,-0.6958 -0.28381,-1.13525 -0.27466,-0.44861 -0.93384,-0.82398 -0.65002,-0.37536 -1.98669,-0.85144 -1.86768,-0.66833 -2.67334,-1.58386 -0.79651,-0.91553 -0.79651,-2.38953 0,-1.54724 1.16272,-2.46276 1.16272,-0.91553 3.07617,-0.91553 1.99585,0 3.67127,0.73242 l -0.48523,1.35498 q -1.65711,-0.6958 -3.22266,-0.6958 -1.23596,0 -1.93176,0.53101 -0.6958,0.531 -0.6958,1.47399 0,0.69581 0.25634,1.14441 0.25635,0.43946 0.8606,0.81482 0.6134,0.36621 1.86768,0.81482 2.10571,0.75074 2.89306,1.61133 0.79651,0.8606 0.79651,2.23389 z"
       style="font-size:18.75px;font-family:'Open Sans';fill:#ffffff"
       id="path1090"
       inkscape:connector-curvature="0" />
    <path
       d="m 751.42017,223.32433 q 0,2.03247 -1.39161,3.1311 -1.38244,1.08948 -3.96423,1.08948 h -1.57471 v 5.26428 h -1.55639 v -13.38501 h 3.46985 q 5.01709,0 5.01709,3.90015 z m -6.93055,2.88391 h 1.40076 q 2.06909,0 2.99378,-0.66834 0.92468,-0.66833 0.92468,-2.14233 0,-1.32752 -0.86975,-1.97754 -0.86975,-0.65003 -2.70996,-0.65003 h -1.73951 z"
       style="letter-spacing:-0.5px"
       id="path1092"
       inkscape:connector-curvature="0" />
    <path
       d="m 756.9718,224.63353 q 2.11487,0 3.32337,1.05286 1.21765,1.0437 1.21765,2.8656 0,2.07824 -1.32752,3.25927 -1.31836,1.18103 -3.6438,1.18103 -2.26135,0 -3.45153,-0.72326 v -1.46485 q 0.64086,0.41199 1.59301,0.65003 0.95215,0.22888 1.87683,0.22888 1.61133,0 2.49939,-0.75989 0.89722,-0.75989 0.89722,-2.19726 0,-2.80152 -3.43323,-2.80152 -0.86975,0 -2.32544,0.26551 l -0.78735,-0.50354 0.50354,-6.26221 h 6.65588 v 1.40076 h -5.35583 l -0.33875,4.01916 q 1.05286,-0.21057 2.09656,-0.21057 z"
       style="letter-spacing:-0.5px"
       id="path1094"
       inkscape:connector-curvature="0" />
  </g>
</svg>
