<?xml version="1.0" encoding="UTF-8" standalone="no"?>
<svg
   xmlns:dc="http://purl.org/dc/elements/1.1/"
   xmlns:cc="http://creativecommons.org/ns#"
   xmlns:rdf="http://www.w3.org/1999/02/22-rdf-syntax-ns#"
   xmlns:svg="http://www.w3.org/2000/svg"
   xmlns="http://www.w3.org/2000/svg"
   xmlns:sodipodi="http://sodipodi.sourceforge.net/DTD/sodipodi-0.dtd"
   xmlns:inkscape="http://www.inkscape.org/namespaces/inkscape"
   id="svg2"
   height="200"
   width="900"
   version="1.2"
   sodipodi:docname="net_basic_tcppacket.svg"
   inkscape:version="0.92.4 (5da689c313, 2019-01-14)">
  <sodipodi:namedview
     pagecolor="#ffffff"
     bordercolor="#666666"
     borderopacity="1"
     objecttolerance="10"
     gridtolerance="10"
     guidetolerance="10"
     inkscape:pageopacity="0"
     inkscape:pageshadow="2"
     inkscape:window-width="1920"
     inkscape:window-height="1027"
     id="namedview116"
     showgrid="false"
     inkscape:zoom="1.2755556"
     inkscape:cx="431.77851"
     inkscape:cy="100"
     inkscape:window-x="-8"
     inkscape:window-y="-8"
     inkscape:window-maximized="1"
     inkscape:current-layer="svg2" />
  <defs
     id="defs4" />
  <metadata
     id="metadata7">
    <rdf:RDF>
      <cc:Work
         rdf:about="">
        <dc:format>image/svg+xml</dc:format>
        <dc:type
           rdf:resource="http://purl.org/dc/dcmitype/StillImage" />
        <dc:title />
      </cc:Work>
    </rdf:RDF>
  </metadata>
  <rect
     style="fill:#30ba78;fill-opacity:1;fill-rule:nonzero;stroke:none"
     id="rect4438"
     y="20"
     x="20"
     ry="10"
     rx="10"
     height="160"
     width="860" />
  <rect
     style="color:#000000;display:inline;overflow:visible;visibility:visible;fill:#fe7c3f;fill-opacity:1;fill-rule:nonzero;stroke:#ffffff;stroke-width:0;stroke-miterlimit:4;stroke-dasharray:none;stroke-opacity:1;marker:none;enable-background:accumulate"
     id="rect6978-9-64-0-1-5-7"
     y="20"
     x="125.54352"
     height="160"
     width="124.45648" />
  <rect
     style="color:#000000;display:inline;overflow:visible;visibility:visible;fill:#90ebcd;fill-opacity:1;fill-rule:nonzero;stroke:#ffffff;stroke-width:0;stroke-miterlimit:4;stroke-dasharray:none;stroke-opacity:1;marker:none;enable-background:accumulate"
     id="rect6978-9-64-0-1-5-7-5"
     y="20"
     x="250"
     ry="0"
     height="160"
     width="130.00003" />
  <rect
     style="color:#000000;display:inline;overflow:visible;visibility:visible;fill:#dedfe0;fill-opacity:1;fill-rule:nonzero;stroke:#ffffff;stroke-width:0;stroke-miterlimit:4;stroke-dasharray:none;stroke-opacity:1;marker:none;enable-background:accumulate"
     id="rect6978-9-64-0-1-5-7-5-2"
     y="20"
     x="380"
     height="160"
     width="399.99982" />
  <g
     aria-label="乙太網路"
     style="font-style:normal;font-weight:normal;font-size:40px;line-height:0;font-family:sans-serif;text-align:center;letter-spacing:0px;word-spacing:0px;writing-mode:lr-tb;text-anchor:middle;fill:#000000;fill-opacity:1;stroke:none"
     id="text925">
    <path
       d="m 39.871678,79.739928 c -1.54,0 -2.54,-0.42 -2.54,-1.38 0,-1.06 0.68,-2.52 12.42,-12.06 0.14,-0.06 0.24,-0.14 0.3,-0.22 l -1.04,-0.74 -0.36,0.1 h -12.78 v 1.5 h 10.68 c -10.3,8.54 -10.8,10.06 -10.8,11.54 0,1.72 1.38,2.76 4.28,2.76 h 8.98 c 2.5,0 3.3,-0.94 3.58,-5.06 -0.44,-0.1 -1.1,-0.32 -1.52,-0.56 -0.14,3.4 -0.5,4.12 -1.92,4.12 z"
       style="font-style:normal;font-variant:normal;font-weight:normal;font-stretch:normal;font-size:20px;font-family:'Noto Sans CJK TC';-inkscape-font-specification:'Noto Sans CJK TC'"
       id="path953" />
    <path
       d="m 72.691678,70.579928 v -1.5 h -8.28 c 0.22,-1.9 0.24,-3.72 0.26,-5.28 h -1.58 c -0.02,1.52 0,3.36 -0.22,5.28 h -7.7 v 1.5 h 7.46 c -0.72,3.96 -2.66,8.02 -7.92,10.24 0.42,0.3 0.88,0.84 1.1,1.22 2.34,-1.04 4.04,-2.42 5.3,-4.02 1.34,1.16 2.92,2.76 3.66,3.8 l 1.26,-0.98 c -0.82,-1.08 -2.52,-2.7 -3.9,-3.82 l -0.58,0.4 c 1.3,-1.82 2.04,-3.84 2.48,-5.88 1.52,4.84 4.08,8.62 8.06,10.54 0.26,-0.42 0.74,-1.04 1.12,-1.36 -3.98,-1.7 -6.6,-5.5 -7.96,-10.14 z"
       style="font-style:normal;font-variant:normal;font-weight:normal;font-stretch:normal;font-size:20px;font-family:'Noto Sans CJK TC';-inkscape-font-specification:'Noto Sans CJK TC'"
       id="path955" />
    <path
       d="m 75.671678,76.579928 c -0.2,1.6 -0.5,3.36 -0.94,4.6 0.28,0.08 0.86,0.26 1.1,0.4 0.4,-1.24 0.78,-3.08 0.98,-4.82 z m 2.06,0.12 c 0.22,1.36 0.44,3.1 0.48,4.28 l 1.12,-0.28 c -0.06,-1.16 -0.28,-2.88 -0.56,-4.2 z m 2.16,-0.38 c 0.44,1.22 0.92,2.82 1.12,3.88 l 1.04,-0.38 c -0.2,-1.02 -0.72,-2.6 -1.18,-3.84 z m -0.18,-4.58 c 0.22,0.58 0.48,1.22 0.7,1.86 l -3.44,0.48 c 1.58,-1.9 3.12,-4.28 4.38,-6.64 l -1.16,-0.7 c -0.42,0.94 -0.96,1.9 -1.46,2.76 l -2.1,0.2 c 1.1,-1.52 2.18,-3.48 3.02,-5.36 l -1.26,-0.54 c -0.78,2.16 -2.14,4.44 -2.56,5.04 -0.4,0.6 -0.74,1.02 -1.06,1.1 0.14,0.34 0.34,1 0.42,1.28 0.26,-0.14 0.68,-0.24 2.76,-0.48 -0.7,1.1 -1.32,1.96 -1.64,2.34 -0.58,0.76 -1.02,1.26 -1.42,1.34 0.16,0.36 0.38,1 0.42,1.3 0.38,-0.2 0.98,-0.34 5.44,-1.04 0.08,0.34 0.18,0.68 0.24,0.96 l 1.12,-0.44 c -0.24,-0.96 -0.82,-2.56 -1.34,-3.82 z m 7.18,5.34 c -0.42,0 -0.48,-0.16 -0.48,-0.68 v -1.96 h 4.12 v -1.18 h -2.96 l 0.72,-0.32 c -0.18,-0.44 -0.54,-1.22 -0.88,-1.8 h 3.36 v -1.18 h -1.7 c 0.32,-0.86 0.68,-2 0.98,-2.98 l -1.08,-0.32 c -0.18,0.96 -0.58,2.36 -0.94,3.3 h -3.8 v 1.18 h 3.06 l -0.92,0.36 c 0.28,0.52 0.6,1.22 0.78,1.76 h -2.72 v 1.18 h 0.74 v 1.94 c 0,1.32 0.3,1.8 1.62,1.8 h 2.56 c 0.5,0 1.02,-0.02 1.28,-0.1 -0.04,-0.3 -0.08,-0.76 -0.12,-1.1 -0.3,0.08 -0.86,0.1 -1.18,0.1 z m -1.98,-10.14 c 0.48,0.88 0.9,2.08 1.04,2.86 l 0.96,-0.34 c -0.12,-0.78 -0.58,-1.96 -1.08,-2.84 z m 7.64,-2.2 h -10.18 v 17.34 h 1.34 v -16.02 h 7.48 v 14.32 c 0,0.28 -0.08,0.36 -0.34,0.38 -0.24,0 -1.04,0.02 -1.88,-0.02 0.16,0.36 0.34,0.96 0.38,1.32 1.22,0 2.04,-0.02 2.52,-0.26 0.52,-0.24 0.68,-0.6 0.68,-1.42 z"
       style="font-style:normal;font-variant:normal;font-weight:normal;font-stretch:normal;font-size:20px;font-family:'Noto Sans CJK TC';-inkscape-font-specification:'Noto Sans CJK TC'"
       id="path957" />
    <path
       d="m 104.81168,74.839928 c 1.06,-0.64 2.08,-1.44 3,-2.36 0.86,0.86 1.84,1.7 2.96,2.36 z m 0.48,5.14 v -3.84 h 5 v 3.84 z m -2.92,-6.38 h -2.480002 v -2.88 h 2.300002 v -0.6 c 0.36,0.24 0.82,0.66 1.04,0.88 0.64,-0.66 1.26,-1.42 1.82,-2.3 0.5,0.9 1.1,1.84 1.84,2.74 -1.34,1.38 -2.92,2.44 -4.52,3.12 z m -5.320002,-7.68 h 3.760002 v 3.5 h -3.760002 z m 12.740002,1.2 c -0.5,1.24 -1.2,2.36 -2.04,3.38 -0.82,-0.98 -1.48,-2.02 -1.98,-3 l 0.2,-0.38 z m 0.92,-1.36 -0.26,0.06 h -3.86 c 0.22,-0.54 0.44,-1.12 0.64,-1.7 l -1.42,-0.34 c -0.74,2.4 -2.04,4.64 -3.62,6.14 v -5.3 h -6.460002 v 6.1 h 2.8 v 8.08 l -1.54,0.36 v -6.56 h -1.26 v 6.82 l -1.02,0.22 0.28,1.44 c 2.1,-0.52 4.94,-1.2 7.660002,-1.86 l -0.14,-1.34 c -0.88,0.22 -1.76,0.42 -2.620002,0.62 v -3.58 h 2.100002 c 0.28,0.3 0.58,0.7 0.72,1 0.4,-0.18 0.8,-0.36 1.2,-0.56 v 6.66 h 1.38 v -0.72 h 5 v 0.66 h 1.42 v -6.58 c 0.22,0.1 0.44,0.18 0.64,0.28 0.2,-0.36 0.62,-0.94 0.92,-1.22 -1.8,-0.68 -3.32,-1.74 -4.56,-2.94 1.24,-1.48 2.28,-3.24 2.92,-5.32 z"
       style="font-style:normal;font-variant:normal;font-weight:normal;font-stretch:normal;font-size:20px;font-family:'Noto Sans CJK TC';-inkscape-font-specification:'Noto Sans CJK TC'"
       id="path959" />
  </g>
  <g
     aria-label="標題"
     style="font-style:normal;font-weight:normal;font-size:40px;line-height:0;font-family:sans-serif;text-align:center;letter-spacing:0px;word-spacing:0px;writing-mode:lr-tb;text-anchor:middle;fill:#000000;fill-opacity:1;stroke:none"
     id="text925-5">
    <path
       d="m 65.551689,93.33795 h -1.8 v -1.34 h 1.8 z m 3.08,1.14 v 2.38 h -1.96 v -2.38 z m -4.88,0 h 1.8 v 2.38 h -1.8 z m -2.92,0 h 1.78 v 2.38 h -1.78 z m 1.78,-1.14 h -3.02 v 4.66 h 10.36 v -4.66 h -3.28 v -1.34 h 3.62 v -1.22 h -11.16 v 1.22 h 3.48 z m 6.4,6.9 v -1.18 h -8.56 v 1.18 z m -9.74,-0.56 c -0.32,-0.56 -1.84,-2.92 -2.34,-3.58 v -1.02 h 2.2 v -1.4 h -2.2 v -3.84 h -1.36 v 3.84 h -2.8 v 1.4 h 2.58 c -0.6,2.64 -1.86,5.8 -3.1,7.44 0.26,0.36 0.64,1 0.8,1.44 0.94,-1.4 1.84,-3.64 2.52,-5.94 v 10.08 h 1.36 v -10.2 c 0.54,1 1.18,2.2 1.44,2.84 z m 1.9,3.84 c -0.64,1.2 -1.66,2.42 -2.76,3.24 0.36,0.18 0.9,0.56 1.16,0.78 1.04,-0.9 2.18,-2.28 2.92,-3.64 z m 9.2,-0.68 v -1.22 h -11.2 v 1.22 h 4.78 v 5.26 h 1.34 v -5.26 z m -3.66,1.28 c 1.02,1.02 2.12,2.42 2.64,3.36 l 1.16,-0.7 c -0.54,-0.92 -1.68,-2.26 -2.72,-3.28 z"
       style="font-style:normal;font-variant:normal;font-weight:normal;font-stretch:normal;font-size:20px;font-family:'Noto Sans CJK TC';-inkscape-font-specification:'Noto Sans CJK TC'"
       id="path962" />
    <path
       d="m 88.231689,96.07795 h -4.76 v -1.5 h 4.76 z m 0,2.52 h -4.76 v -1.48 h 4.76 z m 0,2.56 h -4.76 v -1.5 h 4.76 z m -6.1,-7.68 v 8.78 h 7.48 v -8.78 h -3.7 c 0.18,-0.46 0.38,-1 0.56,-1.52 h 3.94 v -1.14 h -9.04 v 1.14 h 3.72 c -0.12,0.5 -0.28,1.04 -0.44,1.52 z m 4.42,9.68 c 1.1,0.74 2.4,1.88 3.06,2.68 l 1.08,-0.7 c -0.66,-0.76 -1.96,-1.86 -3.12,-2.56 z m -2.76,-0.56 c -0.76,0.92 -2.04,1.82 -3.3,2.4 0.3,0.2 0.78,0.7 1,0.94 1.26,-0.72 2.68,-1.84 3.54,-2.94 z m -4.84,-9.34 h -3.9 v -1.48 h 3.9 z m 0,2.56 h -3.9 v -1.52 h 3.9 z m 1.36,-5.14 h -6.6 v 6.24 h 6.6 z m -2.54,12.14 h 3.38 v -1.14 h -3.38 v -2.14 h 3.72 v -1.16 h -8.96 v 1.16 h 3.96 v 5.32 c -0.6,-0.48 -1.1,-1.12 -1.48,-1.94 0.08,-0.74 0.12,-1.52 0.16,-2.28 h -1.24 c -0.1,2.44 -0.44,5.12 -1.64,6.56 0.32,0.22 0.76,0.68 0.94,0.96 0.76,-0.92 1.24,-2.2 1.52,-3.64 1.8,2.68 4.78,3.16 9.1,3.16 h 6.42 c 0.08,-0.4 0.32,-0.96 0.54,-1.28 -1.16,0.04 -6.08,0.04 -6.96,0.04 -2.46,-0.02 -4.5,-0.14 -6.08,-0.82 z"
       style="font-style:normal;font-variant:normal;font-weight:normal;font-stretch:normal;font-size:20px;font-family:'Noto Sans CJK TC';-inkscape-font-specification:'Noto Sans CJK TC'"
       id="path964" />
  </g>
  <g
     aria-label="(14 位元組)"
     style="font-style:normal;font-weight:normal;font-size:40px;line-height:0;font-family:sans-serif;text-align:center;letter-spacing:0px;word-spacing:0px;writing-mode:lr-tb;text-anchor:middle;fill:#000000;fill-opacity:1;stroke:none"
     id="text925-5-0">
    <path
       d="m 26.594941,136.82278 1.14,-0.54 c -1.74,-2.84 -2.56,-6.22 -2.56,-9.62 0,-3.4 0.82,-6.76 2.56,-9.62 l -1.14,-0.52 c -1.84,2.98 -2.94,6.22 -2.94,10.14 0,3.94 1.1,7.16 2.94,10.16 z"
       style="font-style:normal;font-variant:normal;font-weight:normal;font-stretch:normal;font-family:'Noto Sans CJK TC';-inkscape-font-specification:'Noto Sans CJK TC'"
       id="path967" />
    <path
       d="M 35.555176,132.88278 H 33.973145 V 122.707 q 0,-1.26953 0.07813,-2.40234 -0.205079,0.20508 -0.458985,0.42968 -0.253906,0.22461 -2.324219,1.9043 l -0.859375,-1.11328 3.779297,-2.91992 h 1.367188 z"
       style="font-style:normal;font-variant:normal;font-weight:normal;font-stretch:normal;font-size:20px;font-family:'Open Sans';-inkscape-font-specification:'Open Sans'"
       id="path969" />
    <path
       d="m 51.053223,129.60153 h -2.119141 v 3.28125 h -1.552734 v -3.28125 h -6.94336 v -1.41601 l 6.777344,-9.65821 h 1.71875 v 9.59961 h 2.119141 z m -3.671875,-1.47461 v -4.74609 q 0,-1.39649 0.09766,-3.1543 h -0.07813 q -0.46875,0.9375 -0.878906,1.55274 l -4.462891,6.34765 z"
       style="font-style:normal;font-variant:normal;font-weight:normal;font-stretch:normal;font-size:20px;font-family:'Open Sans';-inkscape-font-specification:'Open Sans'"
       id="path971" />
    <path
       d="m 70.438691,119.10278 c -0.18,-0.82 -0.64,-2.1 -1,-3.1 l -1.4,0.36 c 0.38,1 0.78,2.34 0.94,3.18 z m 4.4,0.66 h -10.78 v 1.44 h 10.78 z m -6.66,11.06 c -0.22,-2.04 -0.82,-5.62 -1.48,-8.4 l -1.34,0.3 c 0.62,2.78 1.2,6.44 1.36,8.52 z m -5.76,-14.6 c -1.1,3.04 -2.96,6.02 -4.92,7.94 0.28,0.34 0.7,1.1 0.84,1.46 0.68,-0.72 1.36,-1.52 1.98,-2.42 v 11.18 h 1.48 v -13.5 c 0.78,-1.36 1.48,-2.78 2.02,-4.24 z m 9.16,15.94 c 0.72,-2.66 1.54,-6.56 2.06,-9.62 l -1.54,-0.28 c -0.38,2.98 -1.18,7.22 -1.9,9.9 h -6.98 v 1.44 h 12.44 v -1.44 z"
       style="font-style:normal;font-variant:normal;font-weight:normal;font-stretch:normal;font-family:'Noto Sans CJK TC';-inkscape-font-specification:'Noto Sans CJK TC'"
       id="path973" />
    <path
       d="m 93.758691,117.72278 h -14.08 v 1.42 h 14.08 z m -3,14.92 c -0.78,0 -0.94,-0.14 -0.94,-0.82 v -7.1 h 5.62 v -1.44 h -17.5 v 1.44 h 5.06 c -0.3,3.74 -1.04,6.86 -5.3,8.48 0.34,0.26 0.76,0.8 0.94,1.16 4.6,-1.86 5.56,-5.36 5.94,-9.64 h 3.74 v 7.12 c 0,1.7 0.48,2.22 2.26,2.22 h 2.86 c 1.74,0 2.14,-0.94 2.3,-4.34 -0.4,-0.12 -1.04,-0.38 -1.38,-0.66 -0.1,3.06 -0.22,3.58 -1.02,3.58 z"
       style="font-style:normal;font-variant:normal;font-weight:normal;font-stretch:normal;font-family:'Noto Sans CJK TC';-inkscape-font-specification:'Noto Sans CJK TC'"
       id="path975" />
    <path
       d="m 105.37869,127.80278 c -0.22,-1.06 -0.8,-2.8 -1.34,-4.14 l -1.14,0.34 c 0.2,0.56 0.44,1.2 0.64,1.86 l -3.539999,0.46 c 1.699999,-1.8 3.339999,-4.08 4.739999,-6.38 l -1.28,-0.78 c -0.46,0.88 -1.02,1.78 -1.56,2.62 l -2.339999,0.2 c 1.159999,-1.5 2.319999,-3.42 3.259999,-5.32 l -1.36,-0.58 c -0.88,2.2 -2.359999,4.48 -2.799999,5.06 -0.44,0.62 -0.8,1.02 -1.14,1.1 0.16,0.38 0.38,1.04 0.44,1.34 0.3,-0.14 0.76,-0.24 3.019999,-0.52 -0.78,1.1 -1.479999,1.96 -1.819999,2.3 -0.62,0.72 -1.12,1.22 -1.52,1.32 0.16,0.36 0.38,1.1 0.46,1.4 0.4,-0.22 1.04,-0.36 5.779999,-1.08 0.12,0.46 0.2,0.88 0.26,1.2 z m -6.899999,1.14 c -0.2,1.6 -0.5,3.34 -0.96,4.58 0.32,0.1 0.92,0.3 1.22,0.46 0.4,-1.24 0.78,-3.12 1,-4.84 z m 2.359999,0.16 c 0.24,1.34 0.46,3.14 0.5,4.3 l 1.26,-0.24 c -0.08,-1.18 -0.32,-2.94 -0.58,-4.28 z m 2.22,-0.38 c 0.38,1.08 0.82,2.5 0.98,3.44 l 1.18,-0.4 c -0.18,-0.92 -0.62,-2.32 -1.06,-3.4 z m 4.78,0.02 h 5.16 v 3.9 h -5.16 z m 5.16,-10.22 v 3.72 h -5.16 v -3.72 z m 0,8.88 h -5.16 v -3.82 h 5.16 z m 1.42,5.24 v -15.48 h -7.96 v 15.48 h -1.76 v 1.36 h 11.06 v -1.36 z"
       style="font-style:normal;font-variant:normal;font-weight:normal;font-stretch:normal;font-family:'Noto Sans CJK TC';-inkscape-font-specification:'Noto Sans CJK TC'"
       id="path977" />
    <path
       d="m 118.63869,136.82278 c 1.86,-3 2.96,-6.22 2.96,-10.16 0,-3.92 -1.1,-7.16 -2.96,-10.14 l -1.12,0.52 c 1.72,2.86 2.56,6.22 2.56,9.62 0,3.4 -0.84,6.78 -2.56,9.62 z"
       style="font-style:normal;font-variant:normal;font-weight:normal;font-stretch:normal;font-family:'Noto Sans CJK TC';-inkscape-font-specification:'Noto Sans CJK TC'"
       id="path979" />
  </g>
  <g
     aria-label="IP 標題"
     style="font-style:normal;font-weight:normal;font-size:40px;line-height:0;font-family:sans-serif;text-align:center;letter-spacing:0px;word-spacing:0px;writing-mode:lr-tb;text-anchor:middle;fill:#000000;fill-opacity:1;stroke:none"
     id="text925-4">
    <path
       d="M 154.22295,92.846809 V 78.569466 h 1.66015 v 14.277343 z"
       style="font-style:normal;font-variant:normal;font-weight:normal;font-stretch:normal;font-size:20px;font-family:'Open Sans';-inkscape-font-specification:'Open Sans'"
       id="path875" />
    <path
       d="m 168.86162,82.729622 q 0,2.167969 -1.48438,3.339844 -1.47461,1.162109 -4.22851,1.162109 h -1.67969 v 5.615234 h -1.66016 V 78.569466 h 3.70118 q 5.35156,0 5.35156,4.160156 z m -7.39258,3.076172 h 1.49414 q 2.20703,0 3.19336,-0.712891 0.98633,-0.71289 0.98633,-2.285156 0,-1.416016 -0.92774,-2.109375 -0.92773,-0.693359 -2.89062,-0.693359 h -1.85547 z"
       style="font-style:normal;font-variant:normal;font-weight:normal;font-stretch:normal;font-size:20px;font-family:'Open Sans';-inkscape-font-specification:'Open Sans'"
       id="path877" />
    <path
       d="m 189.07256,79.606809 h -1.8 v -1.34 h 1.8 z m 3.08,1.14 v 2.38 h -1.96 v -2.38 z m -4.88,0 h 1.8 v 2.38 h -1.8 z m -2.92,0 h 1.78 v 2.38 h -1.78 z m 1.78,-1.14 h -3.02 v 4.66 h 10.36 v -4.66 h -3.28 v -1.34 h 3.62 v -1.22 h -11.16 v 1.22 h 3.48 z m 6.4,6.9 v -1.18 h -8.56 v 1.18 z m -9.74,-0.56 c -0.32,-0.56 -1.84,-2.92 -2.34,-3.58 v -1.02 h 2.2 v -1.4 h -2.2 v -3.84 h -1.36 v 3.84 h -2.8 v 1.4 h 2.58 c -0.6,2.64 -1.86,5.8 -3.1,7.44 0.26,0.36 0.64,1 0.8,1.44 0.94,-1.4 1.84,-3.64 2.52,-5.94 v 10.08 h 1.36 v -10.2 c 0.54,1 1.18,2.2 1.44,2.84 z m 1.9,3.84 c -0.64,1.2 -1.66,2.42 -2.76,3.24 0.36,0.18 0.9,0.56 1.16,0.78 1.04,-0.9 2.18,-2.28 2.92,-3.64 z m 9.2,-0.68 v -1.22 h -11.2 v 1.22 h 4.78 v 5.26 h 1.34 v -5.26 z m -3.66,1.28 c 1.02,1.02 2.12,2.42 2.64,3.36 l 1.16,-0.7 c -0.54,-0.92 -1.68,-2.26 -2.72,-3.28 z"
       style="font-style:normal;font-variant:normal;font-weight:normal;font-stretch:normal;font-family:'Noto Sans CJK TC';-inkscape-font-specification:'Noto Sans CJK TC'"
       id="path879" />
    <path
       d="m 211.75256,82.346809 h -4.76 v -1.5 h 4.76 z m 0,2.52 h -4.76 v -1.48 h 4.76 z m 0,2.56 h -4.76 v -1.5 h 4.76 z m -6.1,-7.68 v 8.78 h 7.48 v -8.78 h -3.7 c 0.18,-0.46 0.38,-1 0.56,-1.52 h 3.94 v -1.14 h -9.04 v 1.14 h 3.72 c -0.12,0.5 -0.28,1.04 -0.44,1.52 z m 4.42,9.68 c 1.1,0.74 2.4,1.88 3.06,2.68 l 1.08,-0.7 c -0.66,-0.76 -1.96,-1.86 -3.12,-2.56 z m -2.76,-0.56 c -0.76,0.92 -2.04,1.82 -3.3,2.4 0.3,0.2 0.78,0.7 1,0.94 1.26,-0.72 2.68,-1.84 3.54,-2.94 z m -4.84,-9.34 h -3.9 v -1.48 h 3.9 z m 0,2.56 h -3.9 v -1.52 h 3.9 z m 1.36,-5.14 h -6.6 v 6.24 h 6.6 z m -2.54,12.14 h 3.38 v -1.14 h -3.38 v -2.14 h 3.72 v -1.16 h -8.96 v 1.16 h 3.96 v 5.32 c -0.6,-0.48 -1.1,-1.12 -1.48,-1.94 0.08,-0.74 0.12,-1.52 0.16,-2.28 h -1.24 c -0.1,2.44 -0.44,5.12 -1.64,6.56 0.32,0.22 0.76,0.68 0.94,0.96 0.76,-0.92 1.24,-2.2 1.52,-3.64 1.8,2.68 4.78,3.16 9.1,3.16 h 6.42 c 0.08,-0.4 0.32,-0.96 0.54,-1.28 -1.16,0.04 -6.08,0.04 -6.96,0.04 -2.46,-0.02 -4.5,-0.14 -6.08,-0.82 z"
       style="font-style:normal;font-variant:normal;font-weight:normal;font-stretch:normal;font-family:'Noto Sans CJK TC';-inkscape-font-specification:'Noto Sans CJK TC'"
       id="path881" />
  </g>
  <g
     aria-label="(20 位元組)"
     style="font-style:normal;font-weight:normal;font-size:40px;line-height:0;font-family:sans-serif;text-align:center;letter-spacing:0px;word-spacing:0px;writing-mode:lr-tb;text-anchor:middle;fill:#000000;fill-opacity:1;stroke:none"
     id="text925-4-3">
    <path
       d="m 140.30415,121.59164 1.14,-0.54 c -1.74,-2.84 -2.56,-6.22 -2.56,-9.62 0,-3.4 0.82,-6.76 2.56,-9.62 l -1.14,-0.52 c -1.84,2.98 -2.94,6.22 -2.94,10.14 0,3.94 1.1,7.16 2.94,10.16 z"
       style="font-style:normal;font-variant:normal;font-weight:normal;font-stretch:normal;font-family:'Noto Sans CJK TC';-inkscape-font-specification:'Noto Sans CJK TC'"
       id="path884" />
    <path
       d="m 152.6433,117.65164 h -9.38477 v -1.39648 l 3.75977,-3.7793 q 1.71875,-1.73828 2.26562,-2.48047 0.54688,-0.74219 0.82031,-1.44531 0.27344,-0.70313 0.27344,-1.51367 0,-1.14258 -0.69336,-1.80664 -0.69336,-0.67383 -1.92383,-0.67383 -0.88867,0 -1.68945,0.29297 -0.79102,0.29297 -1.76758,1.06445 l -0.85937,-1.10352 q 1.97265,-1.64062 4.29687,-1.64062 2.01172,0 3.1543,1.03516 1.14258,1.02539 1.14258,2.76367 0,1.35742 -0.76172,2.68554 -0.76172,1.32813 -2.85156,3.35938 l -3.125,3.05664 v 0.0781 h 7.34375 z"
       style="font-style:normal;font-variant:normal;font-weight:normal;font-stretch:normal;font-size:20px;font-family:'Open Sans';-inkscape-font-specification:'Open Sans'"
       id="path886" />
    <path
       d="m 164.16673,110.49344 q 0,3.70117 -1.17187,5.52734 -1.16211,1.82617 -3.56446,1.82617 -2.30468,0 -3.50585,-1.86523 -1.20118,-1.875 -1.20118,-5.48828 0,-3.73047 1.16211,-5.53711 1.16211,-1.80664 3.54492,-1.80664 2.32422,0 3.5254,1.88476 1.21093,1.88477 1.21093,5.45899 z m -7.80273,0 q 0,3.11523 0.73242,4.54101 0.73242,1.41602 2.33398,1.41602 1.6211,0 2.34375,-1.43555 0.73243,-1.44531 0.73243,-4.52148 0,-3.07617 -0.73243,-4.50195 -0.72265,-1.43555 -2.34375,-1.43555 -1.60156,0 -2.33398,1.41601 -0.73242,1.40625 -0.73242,4.52149 z"
       style="font-style:normal;font-variant:normal;font-weight:normal;font-stretch:normal;font-size:20px;font-family:'Open Sans';-inkscape-font-specification:'Open Sans'"
       id="path888" />
    <path
       d="m 184.1479,103.87164 c -0.18,-0.82 -0.64,-2.1 -1,-3.1 l -1.4,0.36 c 0.38,1 0.78,2.34 0.94,3.18 z m 4.4,0.66 h -10.78 v 1.44 h 10.78 z m -6.66,11.06 c -0.22,-2.04 -0.82,-5.62 -1.48,-8.4 l -1.34,0.3 c 0.62,2.78 1.2,6.44 1.36,8.52 z m -5.76,-14.6 c -1.1,3.04 -2.96,6.02 -4.92,7.94 0.28,0.34 0.7,1.1 0.84,1.46 0.68,-0.72 1.36,-1.52 1.98,-2.42 v 11.18 h 1.48 v -13.5 c 0.78,-1.36 1.48,-2.78 2.02,-4.24 z m 9.16,15.94 c 0.72,-2.66 1.54,-6.56 2.06,-9.62 l -1.54,-0.28 c -0.38,2.98 -1.18,7.22 -1.9,9.9 h -6.98 v 1.44 h 12.44 v -1.44 z"
       style="font-style:normal;font-variant:normal;font-weight:normal;font-stretch:normal;font-family:'Noto Sans CJK TC';-inkscape-font-specification:'Noto Sans CJK TC'"
       id="path890" />
    <path
       d="m 207.4679,102.49164 h -14.08 v 1.42 h 14.08 z m -3,14.92 c -0.78,0 -0.94,-0.14 -0.94,-0.82 v -7.1 h 5.62 v -1.44 h -17.5 v 1.44 h 5.06 c -0.3,3.74 -1.04,6.86 -5.3,8.48 0.34,0.26 0.76,0.8 0.94,1.16 4.6,-1.86 5.56,-5.36 5.94,-9.64 h 3.74 v 7.12 c 0,1.7 0.48,2.22 2.26,2.22 h 2.86 c 1.74,0 2.14,-0.94 2.3,-4.34 -0.4,-0.12 -1.04,-0.38 -1.38,-0.66 -0.1,3.06 -0.22,3.58 -1.02,3.58 z"
       style="font-style:normal;font-variant:normal;font-weight:normal;font-stretch:normal;font-family:'Noto Sans CJK TC';-inkscape-font-specification:'Noto Sans CJK TC'"
       id="path892" />
    <path
       d="m 219.0879,112.57164 c -0.22,-1.06 -0.8,-2.8 -1.34,-4.14 l -1.14,0.34 c 0.2,0.56 0.44,1.2 0.64,1.86 l -3.54,0.46 c 1.7,-1.8 3.34,-4.08 4.74,-6.38 l -1.28,-0.78 c -0.46,0.88 -1.02,1.78 -1.56,2.62 l -2.34,0.2 c 1.16,-1.5 2.32,-3.42 3.26,-5.32 l -1.36,-0.58 c -0.88,2.2 -2.36,4.48 -2.8,5.06 -0.44,0.62 -0.8,1.02 -1.14,1.1 0.16,0.38 0.38,1.04 0.44,1.34 0.3,-0.14 0.76,-0.24 3.02,-0.52 -0.78,1.1 -1.48,1.96 -1.82,2.3 -0.62,0.72 -1.12,1.22 -1.52,1.32 0.16,0.36 0.38,1.1 0.46,1.4 0.4,-0.22 1.04,-0.36 5.78,-1.08 0.12,0.46 0.2,0.88 0.26,1.2 z m -6.9,1.14 c -0.2,1.6 -0.5,3.34 -0.96,4.58 0.32,0.1 0.92,0.3 1.22,0.46 0.4,-1.24 0.78,-3.12 1,-4.84 z m 2.36,0.16 c 0.24,1.34 0.46,3.14 0.5,4.3 l 1.26,-0.24 c -0.08,-1.18 -0.32,-2.94 -0.58,-4.28 z m 2.22,-0.38 c 0.38,1.08 0.82,2.5 0.98,3.44 l 1.18,-0.4 c -0.18,-0.92 -0.62,-2.32 -1.06,-3.4 z m 4.78,0.02 h 5.16 v 3.9 h -5.16 z m 5.16,-10.22 v 3.72 h -5.16 v -3.72 z m 0,8.88 h -5.16 v -3.82 h 5.16 z m 1.42,5.24 v -15.48 h -7.96 v 15.48 h -1.76 v 1.36 h 11.06 v -1.36 z"
       style="font-style:normal;font-variant:normal;font-weight:normal;font-stretch:normal;font-family:'Noto Sans CJK TC';-inkscape-font-specification:'Noto Sans CJK TC'"
       id="path894" />
    <path
       d="m 232.3479,121.59164 c 1.86,-3 2.96,-6.22 2.96,-10.16 0,-3.92 -1.1,-7.16 -2.96,-10.14 l -1.12,0.52 c 1.72,2.86 2.56,6.22 2.56,9.62 0,3.4 -0.84,6.78 -2.56,9.62 z"
       style="font-style:normal;font-variant:normal;font-weight:normal;font-stretch:normal;font-family:'Noto Sans CJK TC';-inkscape-font-specification:'Noto Sans CJK TC'"
       id="path896" />
  </g>
  <g
     aria-label="TCP 標題"
     style="font-style:normal;font-weight:normal;font-size:40px;line-height:0;font-family:sans-serif;text-align:center;letter-spacing:0px;word-spacing:0px;writing-mode:lr-tb;text-anchor:middle;fill:#000000;fill-opacity:1;stroke:none"
     id="text925-4-8">
    <path
       d="m 281.26642,92.575058 h -1.66016 V 79.772324 h -4.52148 v -1.47461 h 10.70312 v 1.47461 h -4.52148 z"
       style="font-style:normal;font-variant:normal;font-weight:normal;font-stretch:normal;font-size:20px;font-family:'Open Sans';-inkscape-font-specification:'Open Sans'"
       id="path849" />
    <path
       d="m 294.03986,79.577011 q -2.35352,0 -3.72071,1.572266 -1.35742,1.5625 -1.35742,4.287109 0,2.802734 1.30859,4.335938 1.31836,1.523437 3.75,1.523437 1.49415,0 3.40821,-0.537109 v 1.455078 q -1.48438,0.55664 -3.66211,0.55664 -3.1543,0 -4.87305,-1.914062 -1.70898,-1.914063 -1.70898,-5.439453 0,-2.207031 0.82031,-3.867188 0.83008,-1.660156 2.38281,-2.558593 1.5625,-0.898438 3.67188,-0.898438 2.24609,0 3.92578,0.820313 l -0.70313,1.425781 q -1.62109,-0.761719 -3.24218,-0.761719 z"
       style="font-style:normal;font-variant:normal;font-weight:normal;font-stretch:normal;font-size:20px;font-family:'Open Sans';-inkscape-font-specification:'Open Sans'"
       id="path851" />
    <path
       d="m 309.5965,82.45787 q 0,2.167969 -1.48438,3.339844 -1.47461,1.16211 -4.22851,1.16211 h -1.67969 v 5.615234 h -1.66016 V 78.297714 h 3.70117 q 5.35157,0 5.35157,4.160156 z m -7.39258,3.076172 h 1.49414 q 2.20703,0 3.19336,-0.71289 0.98633,-0.712891 0.98633,-2.285157 0,-1.416015 -0.92774,-2.109375 -0.92773,-0.693359 -2.89062,-0.693359 h -1.85547 z"
       style="font-style:normal;font-variant:normal;font-weight:normal;font-stretch:normal;font-size:20px;font-family:'Open Sans';-inkscape-font-specification:'Open Sans'"
       id="path853" />
    <path
       d="m 329.80743,79.335058 h -1.8 v -1.34 h 1.8 z m 3.08,1.14 v 2.38 h -1.96 v -2.38 z m -4.88,0 h 1.8 v 2.38 h -1.8 z m -2.92,0 h 1.78 v 2.38 h -1.78 z m 1.78,-1.14 h -3.02 v 4.66 h 10.36 v -4.66 h -3.28 v -1.34 h 3.62 v -1.22 h -11.16 v 1.22 h 3.48 z m 6.4,6.9 v -1.18 h -8.56 v 1.18 z m -9.74,-0.56 c -0.32,-0.56 -1.84,-2.92 -2.34,-3.58 v -1.02 h 2.2 v -1.4 h -2.2 v -3.84 h -1.36 v 3.84 h -2.8 v 1.4 h 2.58 c -0.6,2.64 -1.86,5.8 -3.1,7.44 0.26,0.36 0.64,1 0.8,1.44 0.94,-1.4 1.84,-3.64 2.52,-5.94 v 10.08 h 1.36 v -10.2 c 0.54,1 1.18,2.2 1.44,2.84 z m 1.9,3.84 c -0.64,1.2 -1.66,2.42 -2.76,3.24 0.36,0.18 0.9,0.56 1.16,0.78 1.04,-0.9 2.18,-2.28 2.92,-3.64 z m 9.2,-0.68 v -1.22 h -11.2 v 1.22 h 4.78 v 5.26 h 1.34 v -5.26 z m -3.66,1.28 c 1.02,1.02 2.12,2.42 2.64,3.36 l 1.16,-0.7 c -0.54,-0.92 -1.68,-2.26 -2.72,-3.28 z"
       style="font-style:normal;font-variant:normal;font-weight:normal;font-stretch:normal;font-family:'Noto Sans CJK TC';-inkscape-font-specification:'Noto Sans CJK TC'"
       id="path855" />
    <path
       d="m 352.48743,82.075058 h -4.76 v -1.5 h 4.76 z m 0,2.52 h -4.76 v -1.48 h 4.76 z m 0,2.56 h -4.76 v -1.5 h 4.76 z m -6.1,-7.68 v 8.78 h 7.48 v -8.78 h -3.7 c 0.18,-0.46 0.38,-1 0.56,-1.52 h 3.94 v -1.14 h -9.04 v 1.14 h 3.72 c -0.12,0.5 -0.28,1.04 -0.44,1.52 z m 4.42,9.68 c 1.1,0.74 2.4,1.88 3.06,2.68 l 1.08,-0.7 c -0.66,-0.76 -1.96,-1.86 -3.12,-2.56 z m -2.76,-0.56 c -0.76,0.92 -2.04,1.82 -3.3,2.4 0.3,0.2 0.78,0.7 1,0.94 1.26,-0.72 2.68,-1.84 3.54,-2.94 z m -4.84,-9.34 h -3.9 v -1.48 h 3.9 z m 0,2.56 h -3.9 v -1.52 h 3.9 z m 1.36,-5.14 h -6.6 v 6.24 h 6.6 z m -2.54,12.14 h 3.38 v -1.14 h -3.38 v -2.14 h 3.72 v -1.16 h -8.96 v 1.16 h 3.96 v 5.32 c -0.6,-0.48 -1.1,-1.12 -1.48,-1.94 0.08,-0.74 0.12,-1.52 0.16,-2.28 h -1.24 c -0.1,2.44 -0.44,5.12 -1.64,6.56 0.32,0.22 0.76,0.68 0.94,0.96 0.76,-0.92 1.24,-2.2 1.52,-3.64 1.8,2.68 4.78,3.16 9.1,3.16 h 6.42 c 0.08,-0.4 0.32,-0.96 0.54,-1.28 -1.16,0.04 -6.08,0.04 -6.96,0.04 -2.46,-0.02 -4.5,-0.14 -6.08,-0.82 z"
       style="font-style:normal;font-variant:normal;font-weight:normal;font-stretch:normal;font-family:'Noto Sans CJK TC';-inkscape-font-specification:'Noto Sans CJK TC'"
       id="path857" />
  </g>
  <g
     aria-label="(20 位元組)"
     style="font-style:normal;font-weight:normal;font-size:40px;line-height:0;font-family:sans-serif;text-align:center;letter-spacing:0px;word-spacing:0px;writing-mode:lr-tb;text-anchor:middle;fill:#000000;fill-opacity:1;stroke:none"
     id="text925-4-8-7">
    <path
       d="m 268.92807,121.37423 1.14,-0.54 c -1.74,-2.84 -2.56,-6.22 -2.56,-9.62 0,-3.4 0.82,-6.76 2.56,-9.62 l -1.14,-0.52 c -1.84,2.98 -2.94,6.22 -2.94,10.14 0,3.94 1.1,7.16 2.94,10.16 z"
       style="font-style:normal;font-variant:normal;font-weight:normal;font-stretch:normal;font-family:'Noto Sans CJK TC';-inkscape-font-specification:'Noto Sans CJK TC'"
       id="path860" />
    <path
       d="m 281.26721,117.43423 h -9.38476 v -1.39649 l 3.75976,-3.77929 q 1.71875,-1.73829 2.26563,-2.48047 0.54687,-0.74219 0.82031,-1.44532 0.27344,-0.70312 0.27344,-1.51367 0,-1.14258 -0.69336,-1.80664 -0.69336,-0.67383 -1.92383,-0.67383 -0.88867,0 -1.68945,0.29297 -0.79102,0.29297 -1.76758,1.06446 l -0.85938,-1.10352 q 1.97266,-1.64062 4.29688,-1.64062 2.01172,0 3.1543,1.03515 1.14257,1.02539 1.14257,2.76367 0,1.35743 -0.76172,2.68555 -0.76171,1.32813 -2.85156,3.35938 l -3.125,3.05664 v 0.0781 h 7.34375 z"
       style="font-style:normal;font-variant:normal;font-weight:normal;font-stretch:normal;font-size:20px;font-family:'Open Sans';-inkscape-font-specification:'Open Sans'"
       id="path862" />
    <path
       d="m 292.79065,110.27602 q 0,3.70118 -1.17188,5.52735 -1.1621,1.82617 -3.56445,1.82617 -2.30469,0 -3.50586,-1.86523 -1.20117,-1.875 -1.20117,-5.48829 0,-3.73046 1.16211,-5.53711 1.16211,-1.80664 3.54492,-1.80664 2.32422,0 3.52539,1.88477 1.21094,1.88477 1.21094,5.45898 z m -7.80273,0 q 0,3.11524 0.73242,4.54102 0.73242,1.41602 2.33398,1.41602 1.6211,0 2.34375,-1.43555 0.73242,-1.44531 0.73242,-4.52149 0,-3.07617 -0.73242,-4.50195 -0.72265,-1.43555 -2.34375,-1.43555 -1.60156,0 -2.33398,1.41602 -0.73242,1.40625 -0.73242,4.52148 z"
       style="font-style:normal;font-variant:normal;font-weight:normal;font-stretch:normal;font-size:20px;font-family:'Open Sans';-inkscape-font-specification:'Open Sans'"
       id="path864" />
    <path
       d="m 312.77182,103.65423 c -0.18,-0.82 -0.64,-2.1 -1,-3.1 l -1.4,0.36 c 0.38,1 0.78,2.34 0.94,3.18 z m 4.4,0.66 h -10.78 v 1.44 h 10.78 z m -6.66,11.06 c -0.22,-2.04 -0.82,-5.62 -1.48,-8.4 l -1.34,0.3 c 0.62,2.78 1.2,6.44 1.36,8.52 z m -5.76,-14.6 c -1.1,3.04 -2.96,6.02 -4.92,7.94 0.28,0.34 0.7,1.1 0.84,1.46 0.68,-0.72 1.36,-1.52 1.98,-2.42 v 11.18 h 1.48 v -13.5 c 0.78,-1.36 1.48,-2.78 2.02,-4.24 z m 9.16,15.94 c 0.72,-2.66 1.54,-6.56 2.06,-9.62 l -1.54,-0.28 c -0.38,2.98 -1.18,7.22 -1.9,9.9 h -6.98 v 1.44 h 12.44 v -1.44 z"
       style="font-style:normal;font-variant:normal;font-weight:normal;font-stretch:normal;font-family:'Noto Sans CJK TC';-inkscape-font-specification:'Noto Sans CJK TC'"
       id="path866" />
    <path
       d="m 336.09182,102.27423 h -14.08 v 1.42 h 14.08 z m -3,14.92 c -0.78,0 -0.94,-0.14 -0.94,-0.82 v -7.1 h 5.62 v -1.44 h -17.5 v 1.44 h 5.06 c -0.3,3.74 -1.04,6.86 -5.3,8.48 0.34,0.26 0.76,0.8 0.94,1.16 4.6,-1.86 5.56,-5.36 5.94,-9.64 h 3.74 v 7.12 c 0,1.7 0.48,2.22 2.26,2.22 h 2.86 c 1.74,0 2.14,-0.94 2.3,-4.34 -0.4,-0.12 -1.04,-0.38 -1.38,-0.66 -0.1,3.06 -0.22,3.58 -1.02,3.58 z"
       style="font-style:normal;font-variant:normal;font-weight:normal;font-stretch:normal;font-family:'Noto Sans CJK TC';-inkscape-font-specification:'Noto Sans CJK TC'"
       id="path868" />
    <path
       d="m 347.71182,112.35423 c -0.22,-1.06 -0.8,-2.8 -1.34,-4.14 l -1.14,0.34 c 0.2,0.56 0.44,1.2 0.64,1.86 l -3.54,0.46 c 1.7,-1.8 3.34,-4.08 4.74,-6.38 l -1.28,-0.78 c -0.46,0.88 -1.02,1.78 -1.56,2.62 l -2.34,0.2 c 1.16,-1.5 2.32,-3.42 3.26,-5.32 l -1.36,-0.58 c -0.88,2.2 -2.36,4.48 -2.8,5.06 -0.44,0.62 -0.8,1.02 -1.14,1.1 0.16,0.38 0.38,1.04 0.44,1.34 0.3,-0.14 0.76,-0.24 3.02,-0.52 -0.78,1.1 -1.48,1.96 -1.82,2.3 -0.62,0.72 -1.12,1.22 -1.52,1.32 0.16,0.36 0.38,1.1 0.46,1.4 0.4,-0.22 1.04,-0.36 5.78,-1.08 0.12,0.46 0.2,0.88 0.26,1.2 z m -6.9,1.14 c -0.2,1.6 -0.5,3.34 -0.96,4.58 0.32,0.1 0.92,0.3 1.22,0.46 0.4,-1.24 0.78,-3.12 1,-4.84 z m 2.36,0.16 c 0.24,1.34 0.46,3.14 0.5,4.3 l 1.26,-0.24 c -0.08,-1.18 -0.32,-2.94 -0.58,-4.28 z m 2.22,-0.38 c 0.38,1.08 0.82,2.5 0.98,3.44 l 1.18,-0.4 c -0.18,-0.92 -0.62,-2.32 -1.06,-3.4 z m 4.78,0.02 h 5.16 v 3.9 h -5.16 z m 5.16,-10.22 v 3.72 h -5.16 v -3.72 z m 0,8.88 h -5.16 v -3.82 h 5.16 z m 1.42,5.24 v -15.48 h -7.96 v 15.48 h -1.76 v 1.36 h 11.06 v -1.36 z"
       style="font-style:normal;font-variant:normal;font-weight:normal;font-stretch:normal;font-family:'Noto Sans CJK TC';-inkscape-font-specification:'Noto Sans CJK TC'"
       id="path870" />
    <path
       d="m 360.97182,121.37423 c 1.86,-3 2.96,-6.22 2.96,-10.16 0,-3.92 -1.1,-7.16 -2.96,-10.14 l -1.12,0.52 c 1.72,2.86 2.56,6.22 2.56,9.62 0,3.4 -0.84,6.78 -2.56,9.62 z"
       style="font-style:normal;font-variant:normal;font-weight:normal;font-stretch:normal;font-family:'Noto Sans CJK TC';-inkscape-font-specification:'Noto Sans CJK TC'"
       id="path872" />
  </g>
  <g
     aria-label="使用資料"
     style="font-style:normal;font-weight:normal;font-size:40px;line-height:0;font-family:sans-serif;text-align:center;letter-spacing:0px;word-spacing:0px;writing-mode:lr-tb;text-anchor:middle;fill:#000000;fill-opacity:1;stroke:none"
     id="text925-4-8-0">
    <path
       d="m 545.44108,75.523864 c -1.16,3.02 -3.1,6 -5.12,7.9 0.28,0.34 0.7,1.1 0.84,1.44 0.74,-0.74 1.5,-1.62 2.2,-2.6 v 11.66 h 1.42 v -13.8 c 0.78,-1.34 1.5,-2.76 2.06,-4.16 z m 2.82,9.8 v -2.96 h 3.56 v 2.06 c 0,0.3 0,0.6 -0.02,0.9 z m 8.7,-2.96 v 2.96 h -3.7 c 0.02,-0.3 0.02,-0.6 0.02,-0.9 v -2.06 z m 1.42,4.22 v -5.48 h -5.1 v -1.96 h 5.76 v -1.36 h -5.76 v -2.14 h -1.46 v 2.14 h -5.52 v 1.36 h 5.52 v 1.96 h -4.94 v 5.48 h 4.84 c -0.14,1.1 -0.44,2.14 -1.08,3.08 -1.06,-0.74 -1.92,-1.62 -2.52,-2.66 l -1.24,0.4 c 0.74,1.28 1.72,2.36 2.9,3.26 -0.92,0.82 -2.26,1.52 -4.22,2.02 0.32,0.28 0.74,0.9 0.9,1.22 2.08,-0.62 3.52,-1.46 4.52,-2.44 2.04,1.22 4.54,2 7.36,2.42 0.2,-0.44 0.56,-1.02 0.88,-1.34 -2.84,-0.34 -5.36,-1.02 -7.36,-2.12 0.8,-1.16 1.16,-2.46 1.32,-3.84 z"
       style="font-style:normal;font-variant:normal;font-weight:normal;font-stretch:normal;font-size:20px;font-family:'Noto Sans CJK TC';-inkscape-font-specification:'Noto Sans CJK TC'"
       id="path899" />
    <path
       d="m 570.70108,86.323864 v -3.32 h 5.38 v 3.32 z m -6.34,0 c 0.06,-0.74 0.08,-1.48 0.08,-2.14 v -1.18 h 4.78 v 3.32 z m 4.86,-7.92 v 3.2 h -4.78 v -3.2 z m 6.86,3.2 h -5.38 v -3.2 h 5.38 z m 1.46,-4.62 h -14.56 v 7.2 c 0,2.78 -0.2,6.3 -2.4,8.78 0.32,0.18 0.92,0.68 1.14,0.98 1.52,-1.7 2.2,-3.98 2.5,-6.2 h 5 v 5.9 h 1.48 v -5.9 h 5.38 v 4.06 c 0,0.38 -0.14,0.5 -0.54,0.52 -0.36,0 -1.72,0.02 -3.12,-0.04 0.2,0.4 0.44,1.04 0.5,1.44 1.88,0.02 3.04,0 3.72,-0.24 0.64,-0.26 0.9,-0.7 0.9,-1.66 z"
       style="font-style:normal;font-variant:normal;font-weight:normal;font-stretch:normal;font-size:20px;font-family:'Noto Sans CJK TC';-inkscape-font-specification:'Noto Sans CJK TC'"
       id="path901" />
    <path
       d="m 591.82108,78.083864 v 0.2 c 0,1.04 -0.48,2.4 -5.66,3.1 0.26,0.24 0.64,0.78 0.8,1.1 3.52,-0.54 5.1,-1.46 5.76,-2.44 1.24,1.22 3.16,2.02 5.44,2.34 0.18,-0.36 0.56,-0.9 0.84,-1.18 -2.62,-0.22 -4.8,-1 -5.86,-2.2 0.04,-0.24 0.06,-0.46 0.06,-0.66 v -0.26 h 3.18 c -0.28,0.58 -0.64,1.16 -0.94,1.58 l 1.18,0.42 c 0.54,-0.7 1.18,-1.86 1.68,-2.88 l -1,-0.34 -0.24,0.06 h -6.7 c 0.14,-0.36 0.3,-0.72 0.42,-1.1 l -1.34,-0.3 c -0.44,1.46 -1.26,2.86 -2.3,3.8 0.32,0.16 0.88,0.54 1.12,0.76 0.54,-0.54 1.06,-1.24 1.5,-2 z m -6.86,10.18 h 10.02 v 1.4 h -10.02 z m 0,-2.32 h 10.02 v 1.36 h -10.02 z m 0,-2.32 h 10.02 v 1.36 h -10.02 z m -1.44,7.02 h 12.94 v -8.02 h -12.94 z m 2.6,-13.88 h -4.78 v 1.16 h 4.78 z m 0.5,3.1 h -5.72 v 1.2 h 5.72 z m 0.24,10.92 c -1.42,0.78 -3.82,1.5 -5.86,1.92 0.34,0.26 0.84,0.82 1.1,1.12 1.98,-0.54 4.5,-1.48 6.1,-2.44 z m 4.88,0.78 c 2.16,0.72 4.32,1.58 5.6,2.22 l 1.3,-0.86 c -1.4,-0.64 -3.74,-1.5 -5.88,-2.16 z"
       style="font-style:normal;font-variant:normal;font-weight:normal;font-stretch:normal;font-size:20px;font-family:'Noto Sans CJK TC';-inkscape-font-specification:'Noto Sans CJK TC'"
       id="path903" />
    <path
       d="m 614.08108,79.423864 c -0.64,-0.74 -2.02,-1.76 -3.14,-2.44 l -0.76,1 c 1.14,0.74 2.5,1.82 3.14,2.58 z m -0.88,4.78 c -0.7,-0.7 -2.16,-1.62 -3.34,-2.24 l -0.7,1.04 c 1.18,0.66 2.62,1.68 3.3,2.4 z m -5.76,-7.42 c -0.3,1.34 -0.86,3.3 -1.34,4.48 l 0.98,0.32 c 0.54,-1.12 1.16,-2.98 1.64,-4.48 z m -4.16,4.46 c -0.14,-1.2 -0.6,-3 -1.18,-4.38 l -1.08,0.26 c 0.52,1.4 0.98,3.24 1.1,4.42 z m -0.68,3.56 c -0.34,1.78 -1.16,4 -2,5.16 0.28,0.44 0.62,1.14 0.78,1.64 1.04,-1.44 1.88,-4.24 2.3,-6.46 z m 6.12,-1.16 v -1.4 h -3.26 v -6.66 h -1.38 v 6.66 h -3.2 v 1.4 h 3.2 v 10.2 h 1.38 v -10.2 z m -3.16,1.76 c 0.42,0.86 1.52,3.42 1.88,4.5 l 1.06,-1.1 c -0.3,-0.68 -1.74,-3.4 -2.12,-3.98 z m 13.54,2.34 -0.22,-1.36 -2.36,0.42 v -11.22 h -1.4 v 11.48 l -6.44,1.14 0.24,1.4 6.2,-1.14 v 5.36 h 1.4 v -5.62 z"
       style="font-style:normal;font-variant:normal;font-weight:normal;font-stretch:normal;font-size:20px;font-family:'Noto Sans CJK TC';-inkscape-font-specification:'Noto Sans CJK TC'"
       id="path905" />
  </g>
  <g
     aria-label="(最大 1460 位元組)"
     style="font-style:normal;font-weight:normal;font-size:40px;line-height:0;font-family:sans-serif;text-align:center;letter-spacing:0px;word-spacing:0px;writing-mode:lr-tb;text-anchor:middle;fill:#000000;fill-opacity:1;stroke:none"
     id="text925-4-8-0-4">
    <path
       d="m 499.81522,121.17613 1.14,-0.54 c -1.74,-2.84 -2.56,-6.22 -2.56,-9.62 0,-3.4 0.82,-6.76 2.56,-9.62 l -1.14,-0.52 c -1.84,2.98 -2.94,6.22 -2.94,10.14 0,3.94 1.1,7.16 2.94,10.16 z"
       style="font-style:normal;font-variant:normal;font-weight:normal;font-stretch:normal;font-family:'Noto Sans CJK TC';-inkscape-font-specification:'Noto Sans CJK TC'"
       id="path908" />
    <path
       d="m 506.81303,102.25613 h 10 v 4.92 h 1.46 v -6.02 h -12.88 v 6.02 h 1.42 z m 8.96,1.16 h -8.08 v 0.98 h 8.08 z m 0,3.1 v -0.98 h -8.06 v 0.98 z m -6,4.24 h -3.68 v -1.36 h 3.68 z m -3.68,3.6 h 3.68 v 1.2 c -1.26,0.16 -2.52,0.3 -3.68,0.44 z m 3.68,-1.1 h -3.68 v -1.38 h 3.68 z m 10.74,-3.86 v -1.24 h -17.48 v 1.24 h 1.72 v 6.72 c -0.68,0.06 -1.34,0.12 -1.9,0.18 l 0.14,1.34 c 1.88,-0.24 4.32,-0.52 6.78,-0.84 v 1.98 h 1.4 v -9.38 z m -2.36,2.44 c -0.5,1.1 -1.22,2.08 -2.1,2.9 -0.84,-0.84 -1.54,-1.8 -2.02,-2.9 z m 0.9,-1.24 -0.26,0.04 h -6.86 v 1.2 h 1.14 l -0.34,0.1 c 0.56,1.38 1.36,2.6 2.34,3.64 -1.18,0.86 -2.52,1.54 -3.86,1.92 0.28,0.28 0.64,0.8 0.8,1.16 1.42,-0.48 2.82,-1.2 4.06,-2.16 1.14,0.92 2.5,1.66 4.02,2.1 0.2,-0.38 0.6,-0.9 0.88,-1.18 -1.46,-0.36 -2.78,-0.98 -3.88,-1.8 1.26,-1.24 2.28,-2.76 2.88,-4.64 z"
       style="font-style:normal;font-variant:normal;font-weight:normal;font-stretch:normal;font-family:'Noto Sans CJK TC';-inkscape-font-specification:'Noto Sans CJK TC'"
       id="path910" />
    <path
       d="m 540.57303,107.73613 v -1.52 h -8.26 c 0.28,-2.1 0.3,-4.08 0.32,-5.68 h -1.6 c -0.02,1.58 0,3.58 -0.3,5.68 h -7.62 v 1.52 h 7.38 c -0.82,3.78 -2.82,7.62 -7.78,9.78 0.42,0.3 0.9,0.82 1.12,1.22 4.86,-2.22 7.02,-6.06 7.98,-9.9 1.58,4.54 4.12,8.08 7.96,9.9 0.26,-0.44 0.76,-1.06 1.12,-1.4 -3.86,-1.58 -6.46,-5.2 -7.86,-9.6 z"
       style="font-style:normal;font-variant:normal;font-weight:normal;font-stretch:normal;font-family:'Noto Sans CJK TC';-inkscape-font-specification:'Noto Sans CJK TC'"
       id="path912" />
    <path
       d="m 553.97076,117.23613 h -1.58203 v -10.17578 q 0,-1.26953 0.0781,-2.40235 -0.20508,0.20508 -0.45899,0.42969 -0.2539,0.22461 -2.32422,1.9043 l -0.85937,-1.11328 3.7793,-2.91992 h 1.36718 z"
       style="font-style:normal;font-variant:normal;font-weight:normal;font-stretch:normal;font-size:20px;font-family:'Open Sans';-inkscape-font-specification:'Open Sans'"
       id="path914" />
    <path
       d="m 569.46881,113.95488 h -2.11914 v 3.28125 h -1.55273 v -3.28125 h -6.94336 v -1.41602 l 6.77734,-9.6582 h 1.71875 v 9.59961 h 2.11914 z m -3.67187,-1.47461 v -4.74609 q 0,-1.39649 0.0977,-3.1543 h -0.0781 q -0.46875,0.9375 -0.87891,1.55273 l -4.46289,6.34766 z"
       style="font-style:normal;font-variant:normal;font-weight:normal;font-stretch:normal;font-size:20px;font-family:'Open Sans';-inkscape-font-specification:'Open Sans'"
       id="path916" />
    <path
       d="m 571.02155,111.13261 q 0,-4.20898 1.63085,-6.28906 1.64063,-2.08984 4.84375,-2.08984 1.10352,0 1.73829,0.18554 v 1.39649 q -0.75196,-0.24414 -1.71875,-0.24414 -2.29493,0 -3.50586,1.43555 -1.21094,1.42578 -1.32813,4.49218 h 0.11719 q 1.07422,-1.67968 3.39844,-1.67968 1.92382,0 3.02734,1.1621 1.11328,1.16211 1.11328,3.1543 0,2.22656 -1.2207,3.50586 -1.21094,1.26953 -3.28125,1.26953 -2.2168,0 -3.51563,-1.66015 -1.29882,-1.66993 -1.29882,-4.63868 z m 4.79492,4.92188 q 1.38672,0 2.14843,-0.86914 0.77149,-0.87891 0.77149,-2.5293 0,-1.41601 -0.71289,-2.22656 -0.71289,-0.81055 -2.12891,-0.81055 -0.8789,0 -1.61133,0.36133 -0.73242,0.36133 -1.17187,0.99609 -0.42969,0.63477 -0.42969,1.31836 0,1.00586 0.39063,1.875 0.39062,0.86914 1.10351,1.37696 0.72266,0.50781 1.64063,0.50781 z"
       style="font-style:normal;font-variant:normal;font-weight:normal;font-stretch:normal;font-size:20px;font-family:'Open Sans';-inkscape-font-specification:'Open Sans'"
       id="path918" />
    <path
       d="m 591.76373,110.07793 q 0,3.70117 -1.17187,5.52734 -1.16211,1.82617 -3.56446,1.82617 -2.30468,0 -3.50585,-1.86523 -1.20118,-1.875 -1.20118,-5.48828 0,-3.73047 1.16211,-5.53711 1.16211,-1.80664 3.54492,-1.80664 2.32422,0 3.5254,1.88476 1.21093,1.88477 1.21093,5.45899 z m -7.80273,0 q 0,3.11523 0.73242,4.54101 0.73242,1.41602 2.33398,1.41602 1.6211,0 2.34375,-1.43555 0.73243,-1.44531 0.73243,-4.52148 0,-3.07618 -0.73243,-4.50196 -0.72265,-1.43554 -2.34375,-1.43554 -1.60156,0 -2.33398,1.41601 -0.73242,1.40625 -0.73242,4.52149 z"
       style="font-style:normal;font-variant:normal;font-weight:normal;font-stretch:normal;font-size:20px;font-family:'Open Sans';-inkscape-font-specification:'Open Sans'"
       id="path920" />
    <path
       d="m 611.7449,103.45613 c -0.18,-0.82 -0.64,-2.1 -1,-3.1 l -1.4,0.36 c 0.38,1 0.78,2.34 0.94,3.18 z m 4.4,0.66 h -10.78 v 1.44 h 10.78 z m -6.66,11.06 c -0.22,-2.04 -0.82,-5.62 -1.48,-8.4 l -1.34,0.3 c 0.62,2.78 1.2,6.44 1.36,8.52 z m -5.76,-14.6 c -1.1,3.04 -2.96,6.02 -4.92,7.94 0.28,0.34 0.7,1.1 0.84,1.46 0.68,-0.72 1.36,-1.52 1.98,-2.42 v 11.18 h 1.48 v -13.5 c 0.78,-1.36 1.48,-2.78 2.02,-4.24 z m 9.16,15.94 c 0.72,-2.66 1.54,-6.56 2.06,-9.62 l -1.54,-0.28 c -0.38,2.98 -1.18,7.22 -1.9,9.9 h -6.98 v 1.44 h 12.44 v -1.44 z"
       style="font-style:normal;font-variant:normal;font-weight:normal;font-stretch:normal;font-family:'Noto Sans CJK TC';-inkscape-font-specification:'Noto Sans CJK TC'"
       id="path922" />
    <path
       d="m 635.0649,102.07613 h -14.08 v 1.42 h 14.08 z m -3,14.92 c -0.78,0 -0.94,-0.14 -0.94,-0.82 v -7.1 h 5.62 v -1.44 h -17.5 v 1.44 h 5.06 c -0.3,3.74 -1.04,6.86 -5.3,8.48 0.34,0.26 0.76,0.8 0.94,1.16 4.6,-1.86 5.56,-5.36 5.94,-9.64 h 3.74 v 7.12 c 0,1.7 0.48,2.22 2.26,2.22 h 2.86 c 1.74,0 2.14,-0.94 2.3,-4.34 -0.4,-0.12 -1.04,-0.38 -1.38,-0.66 -0.1,3.06 -0.22,3.58 -1.02,3.58 z"
       style="font-style:normal;font-variant:normal;font-weight:normal;font-stretch:normal;font-family:'Noto Sans CJK TC';-inkscape-font-specification:'Noto Sans CJK TC'"
       id="path924" />
    <path
       d="m 646.6849,112.15613 c -0.22,-1.06 -0.8,-2.8 -1.34,-4.14 l -1.14,0.34 c 0.2,0.56 0.44,1.2 0.64,1.86 l -3.54,0.46 c 1.7,-1.8 3.34,-4.08 4.74,-6.38 l -1.28,-0.78 c -0.46,0.88 -1.02,1.78 -1.56,2.62 l -2.34,0.2 c 1.16,-1.5 2.32,-3.42 3.26,-5.32 l -1.36,-0.58 c -0.88,2.2 -2.36,4.48 -2.8,5.06 -0.44,0.62 -0.8,1.02 -1.14,1.1 0.16,0.38 0.38,1.04 0.44,1.34 0.3,-0.14 0.76,-0.24 3.02,-0.52 -0.78,1.1 -1.48,1.96 -1.82,2.3 -0.62,0.72 -1.12,1.22 -1.52,1.32 0.16,0.36 0.38,1.1 0.46,1.4 0.4,-0.22 1.04,-0.36 5.78,-1.08 0.12,0.46 0.2,0.88 0.26,1.2 z m -6.9,1.14 c -0.2,1.6 -0.5,3.34 -0.96,4.58 0.32,0.1 0.92,0.3 1.22,0.46 0.4,-1.24 0.78,-3.12 1,-4.84 z m 2.36,0.16 c 0.24,1.34 0.46,3.14 0.5,4.3 l 1.26,-0.24 c -0.08,-1.18 -0.32,-2.94 -0.58,-4.28 z m 2.22,-0.38 c 0.38,1.08 0.82,2.5 0.98,3.44 l 1.18,-0.4 c -0.18,-0.92 -0.62,-2.32 -1.06,-3.4 z m 4.78,0.02 h 5.16 v 3.9 h -5.16 z m 5.16,-10.22 v 3.72 h -5.16 v -3.72 z m 0,8.88 h -5.16 v -3.82 h 5.16 z m 1.42,5.24 v -15.48 h -7.96 v 15.48 h -1.76 v 1.36 h 11.06 v -1.36 z"
       style="font-style:normal;font-variant:normal;font-weight:normal;font-stretch:normal;font-family:'Noto Sans CJK TC';-inkscape-font-specification:'Noto Sans CJK TC'"
       id="path926" />
    <path
       d="m 659.9449,121.17613 c 1.86,-3 2.96,-6.22 2.96,-10.16 0,-3.92 -1.1,-7.16 -2.96,-10.14 l -1.12,0.52 c 1.72,2.86 2.56,6.22 2.56,9.62 0,3.4 -0.84,6.78 -2.56,9.62 z"
       style="font-style:normal;font-variant:normal;font-weight:normal;font-stretch:normal;font-family:'Noto Sans CJK TC';-inkscape-font-specification:'Noto Sans CJK TC'"
       id="path928" />
  </g>
  <g
     aria-label="檢查總數"
     style="font-style:normal;font-weight:normal;font-size:40px;line-height:0;font-family:sans-serif;text-align:center;letter-spacing:0px;word-spacing:0px;writing-mode:lr-tb;text-anchor:middle;fill:#000000;fill-opacity:1;stroke:none"
     id="text925-4-8-0-0">
    <path
       d="m 796.75172,85.291666 c -0.3,-0.52 -1.56,-2.58 -2.06,-3.3 v -1.3 h 1.82 v -0.24 c 0.3,0.26 0.72,0.68 0.9,0.94 0.74,-0.42 1.46,-0.88 2.14,-1.4 v 1.16 h 5.96 v -1.2 h -5.9 c 1.02,-0.76 1.94,-1.62 2.72,-2.54 1.68,1.48 4.08,2.96 6.14,3.84 0.12,-0.38 0.42,-0.98 0.66,-1.34 -2.04,-0.72 -4.54,-2.08 -6.04,-3.44 0.16,-0.22 0.3,-0.46 0.44,-0.68 l -1.44,-0.46 c -1.08,1.82 -3.22,3.76 -5.58,5.02 v -1.06 h -1.82 v -3.84 h -1.22 v 3.84 h -2.38 v 1.4 h 2.18 c -0.5,2.64 -1.52,5.68 -2.54,7.28 0.22,0.38 0.52,1.04 0.66,1.46 0.76,-1.32 1.52,-3.44 2.08,-5.64 v 9.92 h 1.22 v -10.04 c 0.5,0.96 1.1,2.12 1.34,2.74 z m 7.6,-1.6 h 2.2 v 2.62 h -2.2 z m -1.16,3.7 h 4.58 v -4.8 h -4.58 z m -4.56,-3.7 h 2.14 v 2.62 h -2.14 z m -1.14,3.7 h 4.46 v -4.8 h -4.46 z m 1.7,0.46 c -0.64,2.16 -2,3.88 -3.82,4.96 0.32,0.24 0.8,0.72 1.02,0.98 1.16,-0.8 2.2,-1.88 2.98,-3.18 0.8,0.58 1.62,1.24 2.04,1.72 l 0.8,-1 c -0.5,-0.5 -1.44,-1.22 -2.26,-1.74 0.22,-0.48 0.4,-0.96 0.56,-1.48 z m 5.56,-0.02 c -0.42,2.16 -1.5,3.86 -3.12,4.92 0.3,0.24 0.82,0.72 1,0.98 1.02,-0.72 1.84,-1.68 2.44,-2.82 1.16,0.8 2.4,1.82 3.08,2.52 l 0.9,-1.02 c -0.76,-0.76 -2.2,-1.84 -3.46,-2.64 0.22,-0.56 0.38,-1.14 0.52,-1.76 z"
       style="font-style:normal;font-variant:normal;font-weight:normal;font-stretch:normal;font-size:20px;font-family:'Noto Sans CJK TC';-inkscape-font-specification:'Noto Sans CJK TC'"
       id="path931" />
    <path
       d="m 811.43172,93.091666 h 17 v -1.34 h -17 z m 12.44,-6.3 h -8.06 v -1.66 h 8.06 z m 0,2.7 h -8.06 v -1.66 h 8.06 z m -9.52,-5.42 v 6.48 h 11.04 v -6.48 z m 14.36,-6.08 h -8.14 v -2.52 h -1.46 v 2.52 h -8.02 v 1.32 h 6.4 c -1.7,1.88 -4.38,3.56 -6.82,4.4 0.3,0.28 0.74,0.84 0.98,1.18 2.7,-1.08 5.66,-3.14 7.46,-5.48 v 4.06 h 1.46 v -3.74 c 2.56,1.52 5.6,3.56 7.14,4.88 l 0.96,-1.04 c -1.46,-1.2 -4.08,-2.88 -6.4,-4.26 h 6.44 z"
       style="font-style:normal;font-variant:normal;font-weight:normal;font-stretch:normal;font-size:20px;font-family:'Noto Sans CJK TC';-inkscape-font-specification:'Noto Sans CJK TC'"
       id="path933" />
    <path
       d="m 846.27172,84.071666 c -0.32,-0.5 -0.82,-1.12 -1.4,-1.74 0.62,-0.74 1.12,-1.48 1.52,-2.22 l -1.04,-0.16 c -0.26,0.52 -0.66,1.1 -1.1,1.68 -0.3,-0.3 -0.6,-0.6 -0.9,-0.88 0.46,-0.58 0.84,-1.16 1.14,-1.72 l -1.02,-0.18 c -0.2,0.38 -0.48,0.82 -0.82,1.24 -0.34,-0.3 -0.7,-0.62 -1.06,-0.9 l -0.82,0.54 c 0.42,0.32 0.82,0.7 1.24,1.12 -0.5,0.5 -1.08,1.02 -1.74,1.44 0.22,0.14 0.54,0.46 0.68,0.66 0.66,-0.44 1.24,-0.94 1.74,-1.44 0.3,0.3 0.6,0.58 0.86,0.9 -0.7,0.72 -1.54,1.44 -2.52,2.04 0.24,0.16 0.52,0.46 0.66,0.7 0.96,-0.62 1.78,-1.3 2.5,-2.06 0.48,0.6 0.92,1.14 1.22,1.62 z m 0.4,1.3 h -6.68 v -6.78 h 6.68 z m 1.36,-8.02 h -5.28 c 0.28,-0.5 0.58,-1.12 0.86,-1.72 l -1.48,-0.3 c -0.16,0.58 -0.46,1.4 -0.72,2.02 h -2.74 v 9.26 h 9.36 z m -2.72,12.64 c -0.38,-0.76 -1.24,-2.1 -1.92,-3.06 l -0.98,0.46 c 0.68,1.02 1.48,2.4 1.88,3.2 z m -7.5,-3 c -0.2,-0.98 -0.74,-2.6 -1.26,-3.84 l -1.06,0.3 c 0.22,0.52 0.42,1.12 0.6,1.7 l -3.08,0.52 c 1.56,-1.88 3.1,-4.24 4.34,-6.6 l -1.24,-0.62 c -0.4,0.92 -0.92,1.84 -1.42,2.7 l -2.08,0.2 c 1.02,-1.52 2.04,-3.48 2.8,-5.38 l -1.34,-0.54 c -0.7,2.14 -1.96,4.46 -2.36,5.04 -0.36,0.6 -0.7,1.02 -1.02,1.1 0.16,0.38 0.38,1.02 0.46,1.32 0.26,-0.14 0.68,-0.24 2.78,-0.5 -0.72,1.14 -1.36,2.02 -1.68,2.38 -0.56,0.72 -1.02,1.24 -1.42,1.34 0.16,0.36 0.38,1 0.44,1.3 0.38,-0.24 0.96,-0.38 5.16,-1.18 0.12,0.42 0.2,0.8 0.26,1.14 z m -5.92,1.24 c -0.22,1.6 -0.58,3.38 -1.12,4.6 0.3,0.08 0.86,0.26 1.08,0.4 0.48,-1.22 0.9,-3.1 1.16,-4.8 z m 1.82,0.2 c 0.24,1.34 0.46,3.1 0.5,4.24 l 1.12,-0.24 c -0.08,-1.16 -0.32,-2.88 -0.56,-4.24 z m 1.84,-0.38 c 0.32,1.1 0.7,2.52 0.86,3.46 l 1.02,-0.32 c -0.12,-0.92 -0.52,-2.32 -0.88,-3.42 z m 2.82,4.64 c 0.6,-1.12 1.04,-2.94 1.34,-4.26 l -1.06,-0.38 c -0.26,1.28 -0.78,3.04 -1.36,4.12 z m 3.88,-0.58 c -0.76,0 -0.88,-0.08 -0.88,-0.54 v -3.52 h -1.28 v 3.54 c 0,1.3 0.42,1.64 2.04,1.64 h 2.88 c 1.32,0 1.68,-0.54 1.82,-2.72 -0.36,-0.1 -0.84,-0.26 -1.12,-0.48 -0.08,1.84 -0.2,2.08 -0.82,2.08 z m 4.02,-3.72 c 0.6,1.24 1.36,2.9 1.7,3.96 l 1.12,-0.52 c -0.38,-1.02 -1.12,-2.62 -1.76,-3.88 z"
       style="font-style:normal;font-variant:normal;font-weight:normal;font-stretch:normal;font-size:20px;font-family:'Noto Sans CJK TC';-inkscape-font-specification:'Noto Sans CJK TC'"
       id="path935" />
    <path
       d="m 858.35172,88.671666 c -0.22,0.64 -0.68,1.36 -1.68,2 -0.82,-0.34 -1.68,-0.66 -2.5,-0.92 0.2,-0.28 0.42,-0.58 0.62,-0.9 z m -5.36,-4.64 h 2.5 v 1.24 h -2.5 z m 6.24,0 v 1.24 h -2.56 v -1.24 z m -5.68,-2.88 v -1.2 h 1.94 v 1.2 z m 1.94,-3.26 v 1.06 h -1.94 v -1.06 z m 3.26,0 v 1.06 h -2.08 v -1.06 z m -2.08,3.26 v -1.2 h 2.08 v 1.2 z m 4.06,7.38 0.02,-1.04 -1,0.06 v -0.1 -0.78 h -1.22 v 0.74 0.2 c -1.04,0.06 -2.06,0.12 -3.04,0.16 0.32,-0.5 0.6,-1 0.84,-1.5 h 4.22 v -3.26 h -3.88 v -0.82 h 3.4 v -2.16 h 1.36 v -1.14 h -1.36 v -2.04 h -3.4 v -1.4 h -1.18 v 1.4 h -3.22 v 2.04 h -1.34 v 1.14 h 1.34 v 2.16 h 3.22 v 0.82 h -3.78 v 3.26 h 3.26 c -0.28,0.52 -0.6,1.04 -0.9,1.58 -1.22,0.04 -2.34,0.1 -3.24,0.12 l 0.14,1.1 2.36,-0.12 c -0.34,0.48 -0.7,0.92 -1.02,1.32 1,0.28 2.06,0.66 3.08,1.1 -1.12,0.5 -2.7,0.96 -4.82,1.32 0.22,0.26 0.5,0.7 0.62,1 2.52,-0.46 4.32,-1.06 5.6,-1.72 0.96,0.44 1.82,0.9 2.46,1.3 l 0.98,-0.86 c -0.6,-0.38 -1.4,-0.78 -2.3,-1.18 1.1,-0.86 1.54,-1.76 1.72,-2.64 z m 5.48,-7.92 c -0.24,2.22 -0.58,4.2 -1.16,5.92 -0.6,-1.78 -1.04,-3.8 -1.34,-5.92 z m 2.7,0 v -1.34 h -4.88 c 0.26,-1.12 0.48,-2.3 0.64,-3.46 l -1.26,-0.2 c -0.46,3.28 -1.24,6.52 -2.56,8.62 0.3,0.2 0.8,0.7 1.02,0.9 0.4,-0.64 0.74,-1.38 1.06,-2.2 0.36,1.94 0.82,3.72 1.46,5.28 -0.86,1.88 -2.06,3.38 -3.76,4.5 0.28,0.26 0.7,0.84 0.82,1.12 1.56,-1.1 2.72,-2.48 3.62,-4.12 0.8,1.58 1.84,2.88 3.14,3.78 0.2,-0.36 0.6,-0.8 0.9,-1.06 -1.42,-0.9 -2.5,-2.36 -3.38,-4.16 0.92,-2.14 1.44,-4.68 1.82,-7.66 z"
       style="font-style:normal;font-variant:normal;font-weight:normal;font-stretch:normal;font-size:20px;font-family:'Noto Sans CJK TC';-inkscape-font-specification:'Noto Sans CJK TC'"
       id="path937" />
  </g>
  <g
     aria-label="(2 位元組)"
     style="font-style:normal;font-weight:normal;font-size:40px;line-height:0;font-family:sans-serif;text-align:center;letter-spacing:0px;word-spacing:0px;writing-mode:lr-tb;text-anchor:middle;fill:#000000;fill-opacity:1;stroke:none"
     id="text925-4-8-0-0-7-0">
    <path
       d="m 789.86612,121.73683 1.14,-0.54 c -1.74,-2.84 -2.56,-6.22 -2.56,-9.62 0,-3.4 0.82,-6.76 2.56,-9.62 l -1.14,-0.52 c -1.84,2.98 -2.94,6.22 -2.94,10.14 0,3.94 1.1,7.16 2.94,10.16 z"
       style="font-style:normal;font-variant:normal;font-weight:normal;font-stretch:normal;font-family:'Noto Sans CJK TC';-inkscape-font-specification:'Noto Sans CJK TC'"
       id="path940" />
    <path
       d="m 802.20526,117.79683 h -9.38476 v -1.39649 l 3.75976,-3.77929 q 1.71875,-1.73828 2.26563,-2.48047 0.54687,-0.74219 0.82031,-1.44531 0.27344,-0.70313 0.27344,-1.51368 0,-1.14257 -0.69336,-1.80664 -0.69336,-0.67382 -1.92383,-0.67382 -0.88867,0 -1.68945,0.29296 -0.79102,0.29297 -1.76758,1.06446 l -0.85938,-1.10352 q 1.97266,-1.64062 4.29688,-1.64062 2.01172,0 3.15429,1.03515 1.14258,1.02539 1.14258,2.76368 0,1.35742 -0.76172,2.68554 -0.76172,1.32813 -2.85156,3.35938 l -3.125,3.05664 v 0.0781 h 7.34375 z"
       style="font-style:normal;font-variant:normal;font-weight:normal;font-stretch:normal;font-size:20px;font-family:'Open Sans';-inkscape-font-specification:'Open Sans'"
       id="path942" />
    <path
       d="m 822.26456,104.01683 c -0.18,-0.82 -0.64,-2.1 -1,-3.1 l -1.4,0.36 c 0.38,1 0.78,2.34 0.94,3.18 z m 4.4,0.66 h -10.78 v 1.44 h 10.78 z m -6.66,11.06 c -0.22,-2.04 -0.82,-5.62 -1.48,-8.4 l -1.34,0.3 c 0.62,2.78 1.2,6.44 1.36,8.52 z m -5.76,-14.6 c -1.1,3.04 -2.96,6.02 -4.92,7.94 0.28,0.34 0.7,1.1 0.84,1.46 0.68,-0.72 1.36,-1.52 1.98,-2.42 v 11.18 h 1.48 v -13.5 c 0.78,-1.36 1.48,-2.78 2.02,-4.24 z m 9.16,15.94 c 0.72,-2.66 1.54,-6.56 2.06,-9.62 l -1.54,-0.28 c -0.38,2.98 -1.18,7.22 -1.9,9.9 h -6.98 v 1.44 h 12.44 v -1.44 z"
       style="font-style:normal;font-variant:normal;font-weight:normal;font-stretch:normal;font-family:'Noto Sans CJK TC';-inkscape-font-specification:'Noto Sans CJK TC'"
       id="path944" />
    <path
       d="m 845.58456,102.63683 h -14.08 v 1.42 h 14.08 z m -3,14.92 c -0.78,0 -0.94,-0.14 -0.94,-0.82 v -7.1 h 5.62 v -1.44 h -17.5 v 1.44 h 5.06 c -0.3,3.74 -1.04,6.86 -5.3,8.48 0.34,0.26 0.76,0.8 0.94,1.16 4.6,-1.86 5.56,-5.36 5.94,-9.64 h 3.74 v 7.12 c 0,1.7 0.48,2.22 2.26,2.22 h 2.86 c 1.74,0 2.14,-0.94 2.3,-4.34 -0.4,-0.12 -1.04,-0.38 -1.38,-0.66 -0.1,3.06 -0.22,3.58 -1.02,3.58 z"
       style="font-style:normal;font-variant:normal;font-weight:normal;font-stretch:normal;font-family:'Noto Sans CJK TC';-inkscape-font-specification:'Noto Sans CJK TC'"
       id="path946" />
    <path
       d="m 857.20456,112.71683 c -0.22,-1.06 -0.8,-2.8 -1.34,-4.14 l -1.14,0.34 c 0.2,0.56 0.44,1.2 0.64,1.86 l -3.54,0.46 c 1.7,-1.8 3.34,-4.08 4.74,-6.38 l -1.28,-0.78 c -0.46,0.88 -1.02,1.78 -1.56,2.62 l -2.34,0.2 c 1.16,-1.5 2.32,-3.42 3.26,-5.32 l -1.36,-0.58 c -0.88,2.2 -2.36,4.48 -2.8,5.06 -0.44,0.62 -0.8,1.02 -1.14,1.1 0.16,0.38 0.38,1.04 0.44,1.34 0.3,-0.14 0.76,-0.24 3.02,-0.52 -0.78,1.1 -1.48,1.96 -1.82,2.3 -0.62,0.72 -1.12,1.22 -1.52,1.32 0.16,0.36 0.38,1.1 0.46,1.4 0.4,-0.22 1.04,-0.36 5.78,-1.08 0.12,0.46 0.2,0.88 0.26,1.2 z m -6.9,1.14 c -0.2,1.6 -0.5,3.34 -0.96,4.58 0.32,0.1 0.92,0.3 1.22,0.46 0.4,-1.24 0.78,-3.12 1,-4.84 z m 2.36,0.16 c 0.24,1.34 0.46,3.14 0.5,4.3 l 1.26,-0.24 c -0.08,-1.18 -0.32,-2.94 -0.58,-4.28 z m 2.22,-0.38 c 0.38,1.08 0.82,2.5 0.98,3.44 l 1.18,-0.4 c -0.18,-0.92 -0.62,-2.32 -1.06,-3.4 z m 4.78,0.02 h 5.16 v 3.9 h -5.16 z m 5.16,-10.22 v 3.72 h -5.16 v -3.72 z m 0,8.88 h -5.16 v -3.82 h 5.16 z m 1.42,5.24 v -15.48 h -7.96 v 15.48 h -1.76 v 1.36 h 11.06 v -1.36 z"
       style="font-style:normal;font-variant:normal;font-weight:normal;font-stretch:normal;font-family:'Noto Sans CJK TC';-inkscape-font-specification:'Noto Sans CJK TC'"
       id="path948" />
    <path
       d="m 870.46456,121.73683 c 1.86,-3 2.96,-6.22 2.96,-10.16 0,-3.92 -1.1,-7.16 -2.96,-10.14 l -1.12,0.52 c 1.72,2.86 2.56,6.22 2.56,9.62 0,3.4 -0.84,6.78 -2.56,9.62 z"
       style="font-style:normal;font-variant:normal;font-weight:normal;font-stretch:normal;font-family:'Noto Sans CJK TC';-inkscape-font-specification:'Noto Sans CJK TC'"
       id="path950" />
  </g>
</svg>
