<?xml version="1.0" encoding="UTF-8" standalone="no"?>
<svg
   width="700"
   height="550"
   version="1.2"
   id="svg179"
   sodipodi:docname="net_basic_osi.svg"
   inkscape:version="1.2.2 (732a01da63, 2022-12-09)"
   xmlns:inkscape="http://www.inkscape.org/namespaces/inkscape"
   xmlns:sodipodi="http://sodipodi.sourceforge.net/DTD/sodipodi-0.dtd"
   xmlns="http://www.w3.org/2000/svg"
   xmlns:svg="http://www.w3.org/2000/svg">
  <defs
     id="defs183" />
  <sodipodi:namedview
     id="namedview181"
     pagecolor="#ffffff"
     bordercolor="#000000"
     borderopacity="0.25"
     inkscape:showpageshadow="2"
     inkscape:pageopacity="0.0"
     inkscape:pagecheckerboard="0"
     inkscape:deskcolor="#d1d1d1"
     showgrid="false"
     inkscape:zoom="1.4654545"
     inkscape:cx="350.06205"
     inkscape:cy="275.00001"
     inkscape:window-width="1920"
     inkscape:window-height="1009"
     inkscape:window-x="-8"
     inkscape:window-y="-8"
     inkscape:window-maximized="1"
     inkscape:current-layer="svg179" />
  <rect
     width="679.81"
     height="165.18"
     x="10.19"
     y="109.82"
     fill="#dedfe0"
     color="#000"
     overflow="visible"
     rx="0"
     ry="0"
     style="marker:none"
     id="rect97" />
  <rect
     width="320"
     height="145"
     x="20"
     y="120"
     fill="#30ba78"
     color="#000"
     overflow="visible"
     rx="0"
     ry="0"
     style="marker:none"
     id="rect99" />
  <rect
     width="320"
     height="45"
     x="360"
     y="120"
     fill="#0c322c"
     color="#000"
     overflow="visible"
     rx="0"
     ry="0"
     style="marker:none"
     id="rect101" />
  <rect
     width="320"
     height="45"
     x="360"
     y="170"
     fill="#0c322c"
     color="#000"
     overflow="visible"
     rx="0"
     ry="0"
     style="marker:none"
     id="rect103" />
  <rect
     width="320"
     height="45"
     x="360"
     y="220"
     fill="#0c322c"
     color="#000"
     overflow="visible"
     rx="0"
     ry="0"
     style="marker:none"
     id="rect105" />
  <rect
     width="680"
     height="65"
     x="10"
     y="280"
     fill="#dedfe0"
     color="#000"
     overflow="visible"
     rx="0"
     ry="0"
     style="marker:none"
     id="rect107" />
  <rect
     width="320"
     height="45"
     x="20"
     y="290"
     fill="#30ba78"
     color="#000"
     overflow="visible"
     rx="0"
     ry="0"
     style="marker:none"
     id="rect109" />
  <rect
     width="320"
     height="45"
     x="360"
     y="290"
     fill="#0c322c"
     color="#000"
     overflow="visible"
     rx="0"
     ry="0"
     style="marker:none"
     id="rect111" />
  <rect
     width="680"
     height="65"
     x="10"
     y="350"
     fill="#dedfe0"
     color="#000"
     overflow="visible"
     rx="0"
     ry="0"
     style="marker:none"
     id="rect113" />
  <rect
     width="320"
     height="45"
     x="20"
     y="360"
     fill="#30ba78"
     color="#000"
     overflow="visible"
     rx="0"
     ry="0"
     style="marker:none"
     id="rect115" />
  <rect
     width="320"
     height="45"
     x="360"
     y="360"
     fill="#0c322c"
     color="#000"
     overflow="visible"
     rx="0"
     ry="0"
     style="marker:none"
     id="rect117" />
  <rect
     width="680"
     height="115"
     x="10"
     y="425"
     fill="#dedfe0"
     color="#000"
     overflow="visible"
     rx="0"
     ry="0"
     style="marker:none"
     id="rect119" />
  <rect
     width="320"
     height="95"
     x="20"
     y="435"
     fill="#30ba78"
     color="#000"
     overflow="visible"
     rx="0"
     ry="0"
     style="marker:none"
     id="rect121" />
  <rect
     width="320"
     height="45"
     x="360"
     y="435"
     fill="#0c322c"
     color="#000"
     overflow="visible"
     rx="0"
     ry="0"
     style="marker:none"
     id="rect123" />
  <rect
     width="320"
     height="45"
     x="360"
     y="485"
     fill="#0c322c"
     color="#000"
     overflow="visible"
     rx=".69"
     ry="0"
     style="marker:none"
     id="rect125" />
  <g
     aria-label="應用程式層"
     id="text129"
     style="font-weight:500;font-size:22px;line-height:125%;font-family:Poppins;-inkscape-font-specification:'Poppins Medium';letter-spacing:0;word-spacing:0">
    <path
       d="m 129.90999,199.256 c 1.254,-1.034 2.046,-2.706 2.574,-4.224 l -1.32,-0.484 c -0.462,1.408 -1.298,2.992 -2.508,3.916 z m 6.468,-0.99 c -0.924,0 -1.078,-0.088 -1.078,-0.572 v -3.058 h -1.496 v 3.08 c 0,1.496 0.484,1.892 2.442,1.892 h 3.52 c 1.496,0 1.98,-0.528 2.134,-2.706 -0.396,-0.088 -1.012,-0.286 -1.342,-0.528 -0.066,1.672 -0.22,1.892 -0.946,1.892 z m 3.916,-3.036 c -0.792,-0.682 -2.354,-1.584 -3.652,-2.178 l -0.924,0.902 c 1.276,0.638 2.816,1.606 3.564,2.288 z m 0.924,-0.308 c 1.232,1.298 2.552,3.08 3.08,4.268 l 1.32,-0.682 c -0.572,-1.21 -1.936,-2.926 -3.168,-4.18 z m -1.518,-7.744 h -3.388 v -1.188 h 3.388 z m 0,2.156 h -3.388 v -1.21 h 3.388 z m 0,2.244 h -3.388 v -1.276 h 3.388 z m -4.796,1.76 h 1.408 v -0.66 h 8.932 v -1.1 h -4.158 v -1.276 h 3.278 v -0.968 h -3.278 v -1.21 h 3.212 v -0.946 h -3.212 v -1.188 h 3.784 v -1.078 h -4.048 l 0.528,-0.264 c -0.286,-0.506 -0.858,-1.276 -1.408,-1.826 l -1.144,0.506 c 0.418,0.462 0.858,1.078 1.144,1.584 h -3.278 c 0.286,-0.528 0.572,-1.078 0.814,-1.628 l -1.386,-0.374 c -0.792,1.87 -2.112,3.784 -3.52,5.06 0.33,0.22 0.902,0.682 1.144,0.902 0.396,-0.374 0.792,-0.836 1.188,-1.32 z m 2.794,-11.924 c -0.308,-0.66 -0.836,-1.496 -1.32,-2.134 l -1.408,0.484 c 0.374,0.484 0.726,1.1 1.034,1.65 h -8.8 v 6.556 c 0,3.19 -0.132,7.678 -1.716,10.846 0.33,0.176 0.99,0.682 1.232,0.968 1.65,-3.212 1.98,-7.898 2.002,-11.264 0.286,0.242 0.638,0.616 0.814,0.814 0.528,-0.506 1.1,-1.078 1.628,-1.716 v 5.72 h 1.408 v -7.612 c 0.528,-0.77 0.99,-1.562 1.408,-2.376 l -1.386,-0.396 c -0.902,1.892 -2.354,3.784 -3.872,5.126 v -0.11 -5.192 h 16.896 v -1.364 z"
       style="font-weight:normal;font-family:'Noto Sans CJK TC';-inkscape-font-specification:'Noto Sans CJK TC';text-align:center;text-anchor:middle"
       id="path1115" />
    <path
       d="m 158.66399,191.512 v -3.652 h 5.918 v 3.652 z m -6.974,0 c 0.066,-0.814 0.088,-1.628 0.088,-2.354 v -1.298 h 5.258 v 3.652 z m 5.346,-8.712 v 3.52 h -5.258 v -3.52 z m 7.546,3.52 h -5.918 v -3.52 h 5.918 z m 1.606,-5.082 h -16.016 v 7.92 c 0,3.058 -0.22,6.93 -2.64,9.658 0.352,0.198 1.012,0.748 1.254,1.078 1.672,-1.87 2.42,-4.378 2.75,-6.82 h 5.5 v 6.49 h 1.628 v -6.49 h 5.918 v 4.466 c 0,0.418 -0.154,0.55 -0.594,0.572 -0.396,0 -1.892,0.022 -3.432,-0.044 0.22,0.44 0.484,1.144 0.55,1.584 2.068,0.022 3.344,0 4.092,-0.264 0.704,-0.286 0.99,-0.77 0.99,-1.826 z"
       style="font-weight:normal;font-family:'Noto Sans CJK TC';-inkscape-font-specification:'Noto Sans CJK TC';text-align:center;text-anchor:middle"
       id="path1117" />
    <path
       d="m 186.88999,186.32 h -6.842 v -4.114 h 6.842 z m 1.606,-5.522 h -9.966 v 6.952 h 9.966 z m -11.132,10.78 c -0.352,-0.572 -2.09,-2.86 -2.64,-3.52 v -0.572 h 2.794 v -1.54 h -2.794 v -3.916 c 0.902,-0.264 1.76,-0.528 2.464,-0.836 l -0.968,-1.342 c -1.452,0.704 -3.982,1.364 -6.16,1.738 0.198,0.374 0.396,0.946 0.462,1.32 0.858,-0.132 1.76,-0.286 2.64,-0.484 v 3.52 h -3.366 v 1.54 h 3.014 c -0.77,2.508 -2.134,5.324 -3.366,6.886 0.264,0.418 0.66,1.122 0.814,1.584 1.034,-1.408 2.112,-3.718 2.904,-6.028 v 9.856 h 1.562 v -9.9 c 0.638,1.034 1.408,2.354 1.694,3.036 z m 6.952,6.182 v -2.926 h 4.466 v -1.43 h -4.466 v -2.838 c 1.518,-0.176 2.926,-0.462 4.048,-0.792 l -1.078,-1.21 c -2.024,0.616 -5.676,1.034 -8.734,1.254 0.176,0.352 0.396,0.902 0.44,1.276 1.188,-0.066 2.442,-0.176 3.718,-0.308 v 2.618 h -4.4 v 1.43 h 4.4 v 2.926 h -5.61 v 1.474 h 12.606 v -1.474 z"
       style="font-weight:normal;font-family:'Noto Sans CJK TC';-inkscape-font-specification:'Noto Sans CJK TC';text-align:center;text-anchor:middle"
       id="path1119" />
    <path
       d="m 210.58399,182.47 c -0.66,-0.748 -2.046,-1.87 -3.168,-2.618 l -1.1,0.902 c 1.122,0.792 2.486,1.98 3.124,2.75 z m -12.254,7.744 h 4.114 v -1.584 h -9.636 v 1.584 h 3.916 v 6.38 c -1.76,0.352 -3.366,0.682 -4.598,0.924 l 0.506,1.606 c 2.794,-0.616 6.82,-1.54 10.538,-2.42 l -0.132,-1.452 c -1.584,0.352 -3.168,0.66 -4.708,0.99 z m 13.156,-4.84 v -1.606 h -6.512 c -0.066,-1.298 -0.088,-2.618 -0.088,-3.982 h -1.716 c 0.022,1.342 0.044,2.684 0.11,3.982 h -11.242 v 1.606 h 11.352 c 0.594,8.118 2.42,14.432 5.984,14.432 1.672,0 2.288,-1.122 2.574,-4.928 -0.462,-0.176 -1.078,-0.528 -1.452,-0.902 -0.132,2.926 -0.396,4.136 -0.99,4.136 -2.178,0 -3.894,-5.346 -4.444,-12.738 z"
       style="font-weight:normal;font-family:'Noto Sans CJK TC';-inkscape-font-specification:'Noto Sans CJK TC';text-align:center;text-anchor:middle"
       id="path1121" />
    <path
       d="m 229.72399,194.416 v 1.254 h -8.602 v -1.254 z m -8.602,3.542 v -1.276 h 8.602 v 1.276 z m -1.584,1.804 h 1.584 v -0.704 h 8.602 v 0.66 h 1.628 v -6.402 h -11.814 z m 1.43,-11.242 c 0.616,0.726 1.254,1.738 1.562,2.376 l 1.034,-0.594 c -0.286,-0.638 -0.946,-1.606 -1.584,-2.288 z m 6.93,2.376 c 0.506,-0.594 1.122,-1.474 1.628,-2.354 l -1.056,-0.55 c -0.352,0.682 -1.012,1.76 -1.496,2.398 z m 2.662,-7.084 h -13.134 v -1.804 h 13.134 z m -7.282,2.794 c -0.22,-0.462 -0.638,-1.034 -1.012,-1.474 h 6.204 c -0.22,0.44 -0.616,0.99 -0.99,1.474 z m 7.304,4.686 h -4.554 v -3.652 h 4.554 z m -10.538,-3.652 h 4.444 v 3.652 h -4.444 z m 12.166,-6.952 h -16.412 v 6.38 c 0,3.498 -0.176,8.316 -2.266,11.748 0.418,0.154 1.122,0.55 1.43,0.836 2.156,-3.564 2.464,-8.91 2.464,-12.584 v -1.936 h 4.51 l -1.012,0.374 c 0.286,0.33 0.55,0.704 0.792,1.1 h -3.19 v 5.72 h 13.64 v -5.72 h -3.08 c 0.264,-0.352 0.55,-0.726 0.836,-1.1 l -1.188,-0.374 h 3.476 z"
       style="font-weight:normal;font-family:'Noto Sans CJK TC';-inkscape-font-specification:'Noto Sans CJK TC';text-align:center;text-anchor:middle"
       id="path1123" />
  </g>
  <g
     aria-label="應用程式層"
     id="text133"
     style="font-weight:500;font-size:22px;line-height:125%;font-family:Poppins;-inkscape-font-specification:'Poppins Medium';letter-spacing:0;word-spacing:0;fill:#ffffff">
    <path
       d="m 473.90999,149.256 c 1.254,-1.034 2.046,-2.706 2.574,-4.224 l -1.32,-0.484 c -0.462,1.408 -1.298,2.992 -2.508,3.916 z m 6.468,-0.99 c -0.924,0 -1.078,-0.088 -1.078,-0.572 v -3.058 h -1.496 v 3.08 c 0,1.496 0.484,1.892 2.442,1.892 h 3.52 c 1.496,0 1.98,-0.528 2.134,-2.706 -0.396,-0.088 -1.012,-0.286 -1.342,-0.528 -0.066,1.672 -0.22,1.892 -0.946,1.892 z m 3.916,-3.036 c -0.792,-0.682 -2.354,-1.584 -3.652,-2.178 l -0.924,0.902 c 1.276,0.638 2.816,1.606 3.564,2.288 z m 0.924,-0.308 c 1.232,1.298 2.552,3.08 3.08,4.268 l 1.32,-0.682 c -0.572,-1.21 -1.936,-2.926 -3.168,-4.18 z m -1.518,-7.744 h -3.388 v -1.188 h 3.388 z m 0,2.156 h -3.388 v -1.21 h 3.388 z m 0,2.244 h -3.388 v -1.276 h 3.388 z m -4.796,1.76 h 1.408 v -0.66 h 8.932 v -1.1 h -4.158 v -1.276 h 3.278 v -0.968 h -3.278 v -1.21 h 3.212 v -0.946 h -3.212 v -1.188 h 3.784 v -1.078 h -4.048 l 0.528,-0.264 c -0.286,-0.506 -0.858,-1.276 -1.408,-1.826 l -1.144,0.506 c 0.418,0.462 0.858,1.078 1.144,1.584 h -3.278 c 0.286,-0.528 0.572,-1.078 0.814,-1.628 l -1.386,-0.374 c -0.792,1.87 -2.112,3.784 -3.52,5.06 0.33,0.22 0.902,0.682 1.144,0.902 0.396,-0.374 0.792,-0.836 1.188,-1.32 z m 2.794,-11.924 c -0.308,-0.66 -0.836,-1.496 -1.32,-2.134 l -1.408,0.484 c 0.374,0.484 0.726,1.1 1.034,1.65 h -8.8 v 6.556 c 0,3.19 -0.132,7.678 -1.716,10.846 0.33,0.176 0.99,0.682 1.232,0.968 1.65,-3.212 1.98,-7.898 2.002,-11.264 0.286,0.242 0.638,0.616 0.814,0.814 0.528,-0.506 1.1,-1.078 1.628,-1.716 v 5.72 h 1.408 v -7.612 c 0.528,-0.77 0.99,-1.562 1.408,-2.376 l -1.386,-0.396 c -0.902,1.892 -2.354,3.784 -3.872,5.126 v -0.11 -5.192 h 16.896 v -1.364 z"
       style="font-weight:normal;font-family:'Noto Sans CJK TC';-inkscape-font-specification:'Noto Sans CJK TC';text-align:center;text-anchor:middle"
       id="path1236" />
    <path
       d="m 502.66399,141.512 v -3.652 h 5.918 v 3.652 z m -6.974,0 c 0.066,-0.814 0.088,-1.628 0.088,-2.354 v -1.298 h 5.258 v 3.652 z m 5.346,-8.712 v 3.52 h -5.258 v -3.52 z m 7.546,3.52 h -5.918 v -3.52 h 5.918 z m 1.606,-5.082 h -16.016 v 7.92 c 0,3.058 -0.22,6.93 -2.64,9.658 0.352,0.198 1.012,0.748 1.254,1.078 1.672,-1.87 2.42,-4.378 2.75,-6.82 h 5.5 v 6.49 h 1.628 v -6.49 h 5.918 v 4.466 c 0,0.418 -0.154,0.55 -0.594,0.572 -0.396,0 -1.892,0.022 -3.432,-0.044 0.22,0.44 0.484,1.144 0.55,1.584 2.068,0.022 3.344,0 4.092,-0.264 0.704,-0.286 0.99,-0.77 0.99,-1.826 z"
       style="font-weight:normal;font-family:'Noto Sans CJK TC';-inkscape-font-specification:'Noto Sans CJK TC';text-align:center;text-anchor:middle"
       id="path1238" />
    <path
       d="m 530.88999,136.32 h -6.842 v -4.114 h 6.842 z m 1.606,-5.522 h -9.966 v 6.952 h 9.966 z m -11.132,10.78 c -0.352,-0.572 -2.09,-2.86 -2.64,-3.52 v -0.572 h 2.794 v -1.54 h -2.794 v -3.916 c 0.902,-0.264 1.76,-0.528 2.464,-0.836 l -0.968,-1.342 c -1.452,0.704 -3.982,1.364 -6.16,1.738 0.198,0.374 0.396,0.946 0.462,1.32 0.858,-0.132 1.76,-0.286 2.64,-0.484 v 3.52 h -3.366 v 1.54 h 3.014 c -0.77,2.508 -2.134,5.324 -3.366,6.886 0.264,0.418 0.66,1.122 0.814,1.584 1.034,-1.408 2.112,-3.718 2.904,-6.028 v 9.856 h 1.562 v -9.9 c 0.638,1.034 1.408,2.354 1.694,3.036 z m 6.952,6.182 v -2.926 h 4.466 v -1.43 h -4.466 v -2.838 c 1.518,-0.176 2.926,-0.462 4.048,-0.792 l -1.078,-1.21 c -2.024,0.616 -5.676,1.034 -8.734,1.254 0.176,0.352 0.396,0.902 0.44,1.276 1.188,-0.066 2.442,-0.176 3.718,-0.308 v 2.618 h -4.4 v 1.43 h 4.4 v 2.926 h -5.61 v 1.474 h 12.606 v -1.474 z"
       style="font-weight:normal;font-family:'Noto Sans CJK TC';-inkscape-font-specification:'Noto Sans CJK TC';text-align:center;text-anchor:middle"
       id="path1240" />
    <path
       d="m 554.58399,132.47 c -0.66,-0.748 -2.046,-1.87 -3.168,-2.618 l -1.1,0.902 c 1.122,0.792 2.486,1.98 3.124,2.75 z m -12.254,7.744 h 4.114 v -1.584 h -9.636 v 1.584 h 3.916 v 6.38 c -1.76,0.352 -3.366,0.682 -4.598,0.924 l 0.506,1.606 c 2.794,-0.616 6.82,-1.54 10.538,-2.42 l -0.132,-1.452 c -1.584,0.352 -3.168,0.66 -4.708,0.99 z m 13.156,-4.84 v -1.606 h -6.512 c -0.066,-1.298 -0.088,-2.618 -0.088,-3.982 h -1.716 c 0.022,1.342 0.044,2.684 0.11,3.982 h -11.242 v 1.606 h 11.352 c 0.594,8.118 2.42,14.432 5.984,14.432 1.672,0 2.288,-1.122 2.574,-4.928 -0.462,-0.176 -1.078,-0.528 -1.452,-0.902 -0.132,2.926 -0.396,4.136 -0.99,4.136 -2.178,0 -3.894,-5.346 -4.444,-12.738 z"
       style="font-weight:normal;font-family:'Noto Sans CJK TC';-inkscape-font-specification:'Noto Sans CJK TC';text-align:center;text-anchor:middle"
       id="path1242" />
    <path
       d="m 573.72399,144.416 v 1.254 h -8.602 v -1.254 z m -8.602,3.542 v -1.276 h 8.602 v 1.276 z m -1.584,1.804 h 1.584 v -0.704 h 8.602 v 0.66 h 1.628 v -6.402 h -11.814 z m 1.43,-11.242 c 0.616,0.726 1.254,1.738 1.562,2.376 l 1.034,-0.594 c -0.286,-0.638 -0.946,-1.606 -1.584,-2.288 z m 6.93,2.376 c 0.506,-0.594 1.122,-1.474 1.628,-2.354 l -1.056,-0.55 c -0.352,0.682 -1.012,1.76 -1.496,2.398 z m 2.662,-7.084 h -13.134 v -1.804 h 13.134 z m -7.282,2.794 c -0.22,-0.462 -0.638,-1.034 -1.012,-1.474 h 6.204 c -0.22,0.44 -0.616,0.99 -0.99,1.474 z m 7.304,4.686 h -4.554 v -3.652 h 4.554 z m -10.538,-3.652 h 4.444 v 3.652 h -4.444 z m 12.166,-6.952 h -16.412 v 6.38 c 0,3.498 -0.176,8.316 -2.266,11.748 0.418,0.154 1.122,0.55 1.43,0.836 2.156,-3.564 2.464,-8.91 2.464,-12.584 v -1.936 h 4.51 l -1.012,0.374 c 0.286,0.33 0.55,0.704 0.792,1.1 h -3.19 v 5.72 h 13.64 v -5.72 h -3.08 c 0.264,-0.352 0.55,-0.726 0.836,-1.1 l -1.188,-0.374 h 3.476 z"
       style="font-weight:normal;font-family:'Noto Sans CJK TC';-inkscape-font-specification:'Noto Sans CJK TC';text-align:center;text-anchor:middle"
       id="path1244" />
  </g>
  <g
     aria-label="展示層"
     id="text137"
     style="font-weight:500;font-size:22px;line-height:125%;font-family:Poppins;-inkscape-font-specification:'Poppins Medium';letter-spacing:0;word-spacing:0;fill:#ffffff">
    <path
       d="m 505.56599,182.192 v 2.244 h -13.09 v -2.244 z m 1.628,3.674 v -5.104 h -16.346 v 6.402 c 0,3.52 -0.176,8.382 -2.376,11.836 0.396,0.132 1.122,0.572 1.43,0.836 2.244,-3.586 2.574,-8.932 2.574,-12.672 v -1.298 z m -9.174,3.608 h 4.378 v 2.31 h -4.378 z m 8.096,3.872 c -0.814,0.66 -2.178,1.54 -3.278,2.2 -0.726,-0.682 -1.298,-1.474 -1.76,-2.332 h 7.436 v -1.43 h -4.576 v -2.31 h 3.696 v -1.408 h -3.696 v -1.98 h -1.54 v 1.98 h -4.378 v -1.98 h -1.54 v 1.98 h -3.278 v 1.408 h 3.278 v 2.31 h -3.872 v 1.43 h 2.376 v 3.564 c 0,0.968 -0.66,1.452 -1.056,1.672 0.22,0.308 0.572,0.99 0.638,1.386 0.418,-0.286 1.122,-0.484 6.622,-1.826 -0.044,-0.33 0,-0.968 0.066,-1.364 l -4.73,1.056 v -4.488 h 3.036 c 1.496,3.388 4.29,5.632 8.184,6.622 0.22,-0.44 0.638,-1.034 1.012,-1.364 -1.936,-0.396 -3.564,-1.078 -4.906,-2.068 1.122,-0.594 2.464,-1.43 3.498,-2.222 z"
       style="font-weight:normal;font-family:'Noto Sans CJK TC';-inkscape-font-specification:'Noto Sans CJK TC';text-align:center;text-anchor:middle"
       id="path1247" />
    <path
       d="m 528.40199,181.29 h -15.356 v 1.606 h 15.356 z m -13.64,9.196 c -0.924,2.464 -2.464,4.884 -4.202,6.446 0.418,0.22 1.144,0.704 1.496,0.99 1.694,-1.694 3.366,-4.29 4.4,-6.996 z m 15.554,-2.376 v -1.606 h -19.228 v 1.606 h 8.646 v 11.572 h 1.694 V 188.11 Z m -5.214,2.948 c 1.584,2.09 3.256,4.95 3.85,6.754 l 1.628,-0.726 c -0.66,-1.87 -2.354,-4.62 -4.004,-6.666 z"
       style="font-weight:normal;font-family:'Noto Sans CJK TC';-inkscape-font-specification:'Noto Sans CJK TC';text-align:center;text-anchor:middle"
       id="path1249" />
    <path
       d="m 548.66399,194.446 v 1.254 h -8.602 v -1.254 z m -8.602,3.542 v -1.276 h 8.602 v 1.276 z m -1.584,1.804 h 1.584 v -0.704 h 8.602 v 0.66 h 1.628 v -6.402 h -11.814 z m 1.43,-11.242 c 0.616,0.726 1.254,1.738 1.562,2.376 l 1.034,-0.594 c -0.286,-0.638 -0.946,-1.606 -1.584,-2.288 z m 6.93,2.376 c 0.506,-0.594 1.122,-1.474 1.628,-2.354 l -1.056,-0.55 c -0.352,0.682 -1.012,1.76 -1.496,2.398 z m 2.662,-7.084 h -13.134 v -1.804 h 13.134 z m -7.282,2.794 c -0.22,-0.462 -0.638,-1.034 -1.012,-1.474 h 6.204 c -0.22,0.44 -0.616,0.99 -0.99,1.474 z m 7.304,4.686 h -4.554 v -3.652 h 4.554 z m -10.538,-3.652 h 4.444 v 3.652 h -4.444 z m 12.166,-6.952 h -16.412 v 6.38 c 0,3.498 -0.176,8.316 -2.266,11.748 0.418,0.154 1.122,0.55 1.43,0.836 2.156,-3.564 2.464,-8.91 2.464,-12.584 v -1.936 h 4.51 l -1.012,0.374 c 0.286,0.33 0.55,0.704 0.792,1.1 h -3.19 v 5.72 h 13.64 v -5.72 h -3.08 c 0.264,-0.352 0.55,-0.726 0.836,-1.1 l -1.188,-0.374 h 3.476 z"
       style="font-weight:normal;font-family:'Noto Sans CJK TC';-inkscape-font-specification:'Noto Sans CJK TC';text-align:center;text-anchor:middle"
       id="path1251" />
  </g>
  <g
     aria-label="工作階段層"
     id="text141"
     style="font-weight:500;font-size:22px;line-height:125%;font-family:Poppins;-inkscape-font-specification:'Poppins Medium';letter-spacing:0;word-spacing:0;fill:#ffffff">
    <path
       d="m 477.67597,246.492 v -12.628 h 7.898 v -1.672 h -17.38 v 1.672 h 7.7 v 12.628 h -8.844 v 1.628 h 19.624 v -1.628 z"
       style="font-weight:normal;font-family:'Noto Sans CJK TC';-inkscape-font-specification:'Noto Sans CJK TC';text-align:center;text-anchor:middle"
       id="path1254" />
    <path
       d="m 494.15397,229.794 c -1.232,3.344 -3.256,6.622 -5.434,8.734 0.308,0.352 0.792,1.254 0.946,1.628 0.748,-0.77 1.496,-1.65 2.178,-2.618 v 12.232 h 1.628 v -14.762 c 0.858,-1.518 1.65,-3.124 2.244,-4.708 z m 14.762,5.148 v -1.562 h -9.152 c 0.44,-0.968 0.858,-1.958 1.21,-2.97 l -1.562,-0.418 c -1.078,3.212 -2.86,6.38 -4.84,8.426 0.374,0.264 1.012,0.814 1.276,1.1 1.1,-1.232 2.178,-2.816 3.124,-4.576 h 1.518 v 14.85 h 1.65 v -5.324 h 6.578 v -1.54 h -6.578 v -3.322 h 6.27 v -1.518 h -6.27 v -3.146 z"
       style="font-weight:normal;font-family:'Noto Sans CJK TC';-inkscape-font-specification:'Noto Sans CJK TC';text-align:center;text-anchor:middle"
       id="path1256" />
    <path
       d="m 516.83597,230.542 -0.242,0.066 h -4.972 v 19.162 h 1.452 v -17.666 h 2.86 c -0.506,1.474 -1.188,3.388 -1.87,4.95 1.694,1.716 2.156,3.234 2.156,4.444 0,0.682 -0.132,1.276 -0.484,1.518 -0.198,0.132 -0.44,0.176 -0.726,0.198 -0.352,0.044 -0.792,0.022 -1.32,-0.044 0.242,0.44 0.396,1.056 0.418,1.474 0.506,0.022 1.056,0 1.496,-0.044 0.462,-0.044 0.858,-0.176 1.188,-0.418 0.616,-0.418 0.88,-1.364 0.88,-2.552 0,-1.364 -0.396,-2.948 -2.112,-4.774 0.792,-1.716 1.65,-3.85 2.332,-5.654 z m 3.41,6.974 v -3.454 h 3.432 v -1.408 h -3.432 v -2.794 h -1.606 v 7.216 c 0,0.748 -0.374,0.924 -0.704,0.99 0.22,0.396 0.462,1.122 0.528,1.562 0.418,-0.264 1.056,-0.484 5.368,-1.606 -0.066,-0.308 -0.154,-0.902 -0.198,-1.298 z m 7.524,6.71 h -7.15 v -2.09 h 7.15 z m -7.15,3.454 v -2.178 h 7.15 v 2.178 z m 2.398,-8.866 c -0.154,0.594 -0.418,1.342 -0.704,2.002 h -3.3 v 9.042 h 1.606 v -0.836 h 7.15 v 0.748 h 1.65 v -8.954 h -5.478 c 0.264,-0.484 0.572,-1.056 0.858,-1.584 z m 3.784,-1.012 c -0.594,0 -0.704,-0.088 -0.704,-0.682 v -3.058 h 4.268 v -1.408 h -4.268 v -2.794 h -1.584 v 7.282 c 0,1.628 0.418,2.09 2.068,2.09 h 2.354 c 1.364,0 1.782,-0.66 1.936,-3.124 -0.44,-0.088 -1.056,-0.33 -1.408,-0.594 -0.066,1.958 -0.176,2.288 -0.66,2.288 z"
       style="font-weight:normal;font-family:'Noto Sans CJK TC';-inkscape-font-specification:'Noto Sans CJK TC';text-align:center;text-anchor:middle"
       id="path1258" />
    <path
       d="m 545.19397,231.95 h 3.058 v 4.092 c 0,1.496 0.286,2.068 1.738,2.068 h 1.65 c 0.44,0 0.858,0 1.122,-0.088 -0.066,-0.352 -0.088,-0.902 -0.132,-1.276 -0.242,0.066 -0.726,0.088 -1.012,0.088 h -1.474 c -0.308,0 -0.374,-0.176 -0.374,-0.748 v -5.566 h -6.094 v 2.64 c 0,1.606 -0.352,3.542 -2.486,4.994 0.308,0.22 0.902,0.748 1.122,1.034 2.376,-1.584 2.882,-4.026 2.882,-5.984 z m -3.828,11.44 c -1.804,0.264 -3.652,0.528 -5.28,0.77 v -3.19 h 4.906 v -1.452 h -4.906 v -3.014 h 4.928 v -1.452 h -4.928 v -2.398 c 1.914,-0.484 3.982,-1.144 5.544,-1.826 l -1.32,-1.232 c -1.364,0.704 -3.718,1.54 -5.764,2.068 v 0.022 l -0.044,-0.022 v 12.738 c -0.66,0.088 -1.298,0.176 -1.826,0.242 l 0.242,1.54 1.584,-0.264 v 3.564 h 1.584 v -3.806 c 1.694,-0.264 3.52,-0.594 5.346,-0.88 z m 7.986,-2.332 c -0.55,1.606 -1.408,2.948 -2.464,4.026 -1.166,-1.144 -2.046,-2.486 -2.662,-4.026 z m 0.924,-1.474 -0.286,0.066 h -7.854 v 1.408 h 1.54 l -0.814,0.22 c 0.682,1.848 1.65,3.454 2.904,4.796 -1.474,1.144 -3.278,1.958 -5.236,2.42 0.308,0.33 0.682,0.968 0.836,1.408 2.068,-0.616 3.96,-1.474 5.544,-2.772 1.408,1.188 3.08,2.068 4.972,2.64 0.22,-0.462 0.66,-1.078 1.012,-1.408 -1.848,-0.44 -3.476,-1.232 -4.84,-2.266 1.474,-1.518 2.596,-3.52 3.234,-6.138 z"
       style="font-weight:normal;font-family:'Noto Sans CJK TC';-inkscape-font-specification:'Noto Sans CJK TC';text-align:center;text-anchor:middle"
       id="path1260" />
    <path
       d="m 570.82397,244.446 v 1.254 h -8.602 v -1.254 z m -8.602,3.542 v -1.276 h 8.602 v 1.276 z m -1.584,1.804 h 1.584 v -0.704 h 8.602 v 0.66 h 1.628 v -6.402 h -11.814 z m 1.43,-11.242 c 0.616,0.726 1.254,1.738 1.562,2.376 l 1.034,-0.594 c -0.286,-0.638 -0.946,-1.606 -1.584,-2.288 z m 6.93,2.376 c 0.506,-0.594 1.122,-1.474 1.628,-2.354 l -1.056,-0.55 c -0.352,0.682 -1.012,1.76 -1.496,2.398 z m 2.662,-7.084 h -13.134 v -1.804 h 13.134 z m -7.282,2.794 c -0.22,-0.462 -0.638,-1.034 -1.012,-1.474 h 6.204 c -0.22,0.44 -0.616,0.99 -0.99,1.474 z m 7.304,4.686 h -4.554 v -3.652 h 4.554 z m -10.538,-3.652 h 4.444 v 3.652 h -4.444 z m 12.166,-6.952 h -16.412 v 6.38 c 0,3.498 -0.176,8.316 -2.266,11.748 0.418,0.154 1.122,0.55 1.43,0.836 2.156,-3.564 2.464,-8.91 2.464,-12.584 v -1.936 h 4.51 l -1.012,0.374 c 0.286,0.33 0.55,0.704 0.792,1.1 h -3.19 v 5.72 h 13.64 v -5.72 h -3.08 c 0.264,-0.352 0.55,-0.726 0.836,-1.1 l -1.188,-0.374 h 3.476 z"
       style="font-weight:normal;font-family:'Noto Sans CJK TC';-inkscape-font-specification:'Noto Sans CJK TC';text-align:center;text-anchor:middle"
       id="path1262" />
  </g>
  <g
     aria-label="輸送層"
     id="text145"
     style="font-weight:500;font-size:22px;line-height:125%;font-family:Poppins;-inkscape-font-specification:'Poppins Medium';letter-spacing:0;word-spacing:0;fill:#ffffff">
    <path
       d="m 491.55997,308.76801 h 1.694 v 2.112 h -1.694 z m 0,-3.278 h 1.694 v 2.09 h -1.694 z m 4.51,2.09 h -1.628 v -2.09 h 1.628 z m 0,3.3 h -1.628 v -2.112 h 1.628 z m 1.76,4.356 v -1.43 h -3.234 v -1.694 h 2.772 v -7.854 h -2.816 v -1.65 h 3.234 v -1.408 h -3.234 v -2.332 h -1.43 v 2.332 h -3.3 v 1.408 h 3.3 v 1.65 h -2.838 v 7.854 h 2.816 v 1.694 h -3.476 v 1.43 h 3.476 v 3.696 h 1.496 v -3.696 z m 2.112,-1.892 c 0.022,-0.572 0.044,-1.166 0.044,-1.672 v -0.308 h 2.486 v 1.98 z m 2.53,-5.082 v 1.892 h -2.486 v -1.892 z m 1.254,-1.21 h -5.016 v 4.62 c 0,1.958 -0.132,4.51 -1.298,6.424 0.308,0.132 0.836,0.572 1.078,0.814 0.77,-1.254 1.144,-2.838 1.342,-4.356 h 2.64 v 2.706 c 0,0.198 -0.066,0.264 -0.264,0.264 -0.198,0 -0.858,0.022 -1.606,0 0.176,0.352 0.374,0.88 0.44,1.232 1.012,0 1.672,-0.022 2.112,-0.242 0.44,-0.22 0.572,-0.594 0.572,-1.254 z m 3.036,-2.904 h -5.896 v 1.276 h 5.896 z m -0.528,3.3 h -1.188 v 7.854 h 1.188 z m 1.408,9.68 c 0,0.264 -0.088,0.33 -0.352,0.352 -0.264,0.022 -1.122,0.022 -2.134,0 0.176,0.352 0.374,0.858 0.44,1.21 1.298,0 2.112,0 2.64,-0.22 0.506,-0.22 0.638,-0.594 0.638,-1.32 v -10.472 h -1.232 z m -4.136,-18.414 c -1.21,2.332 -3.454,4.532 -5.808,5.764 0.374,0.308 0.814,0.792 1.056,1.166 1.892,-1.122 3.652,-2.75 4.972,-4.642 1.43,1.936 3.102,3.322 5.082,4.51 0.22,-0.418 0.616,-0.88 0.99,-1.188 -2.09,-1.122 -3.894,-2.464 -5.346,-4.466 0.132,-0.22 0.264,-0.44 0.374,-0.66 z"
       style="font-weight:normal;font-family:'Noto Sans CJK TC';-inkscape-font-specification:'Noto Sans CJK TC';text-align:center;text-anchor:middle"
       id="path1265" />
    <path
       d="m 522.93197,302.23401 c -0.418,-0.858 -1.254,-2.266 -1.958,-3.3 l -1.342,0.528 c 0.66,1.078 1.474,2.552 1.848,3.41 z m 7.744,12.474 c -1.276,-1.408 -3.806,-3.762 -5.742,-5.522 v -0.044 h 6.446 v -1.518 h -6.27 c 0.022,-0.22 0.022,-0.44 0.022,-0.616 v -2.552 h 5.61 v -1.518 h -3.344 c 0.682,-1.056 1.474,-2.398 2.112,-3.564 l -1.65,-0.528 c -0.462,1.232 -1.342,2.904 -2.112,4.092 h -7.436 v 1.518 h 5.17 v 2.53 c 0,0.198 0,0.418 -0.022,0.638 h -5.764 v 1.518 h 5.588 c -0.418,1.892 -1.716,3.96 -5.522,5.522 0.374,0.286 0.88,0.88 1.1,1.21 3.256,-1.452 4.862,-3.3 5.61,-5.17 1.848,1.76 3.96,3.828 5.06,5.126 z m -14.938,-12.078 c -0.286,-0.902 -0.792,-2.354 -1.188,-3.454 l -1.452,0.418 c 0.33,1.122 0.858,2.618 1.1,3.542 z m 1.012,6.358 -0.264,0.066 h -1.848 c 0.638,-1.496 1.342,-3.322 1.892,-4.884 h -4.928 v 1.474 h 2.904 c -0.594,1.694 -1.32,3.542 -1.936,4.84 h 3.058 c -0.396,1.54 -1.034,3.212 -1.716,4.444 -0.77,0.33 -1.672,1.342 -2.574,2.618 l 1.122,1.496 c 0.66,-1.408 1.408,-2.772 1.892,-2.772 0.506,0 1.298,0.748 2.178,1.276 1.628,0.968 3.52,1.21 6.402,1.21 2.574,0 6.688,-0.132 8.316,-0.242 0.022,-0.484 0.308,-1.254 0.484,-1.694 -2.42,0.264 -5.984,0.462 -8.778,0.462 -2.574,0 -4.532,-0.154 -6.072,-1.1 -0.682,-0.418 -1.166,-0.77 -1.54,-1.034 0.88,-1.628 1.628,-3.806 2.178,-5.83 z"
       style="font-weight:normal;font-family:'Noto Sans CJK TC';-inkscape-font-specification:'Noto Sans CJK TC';text-align:center;text-anchor:middle"
       id="path1267" />
    <path
       d="m 549.57397,313.58601 v 1.254 h -8.602 v -1.254 z m -8.602,3.542 v -1.276 h 8.602 v 1.276 z m -1.584,1.804 h 1.584 v -0.704 h 8.602 v 0.66 h 1.628 v -6.402 h -11.814 z m 1.43,-11.242 c 0.616,0.726 1.254,1.738 1.562,2.376 l 1.034,-0.594 c -0.286,-0.638 -0.946,-1.606 -1.584,-2.288 z m 6.93,2.376 c 0.506,-0.594 1.122,-1.474 1.628,-2.354 l -1.056,-0.55 c -0.352,0.682 -1.012,1.76 -1.496,2.398 z m 2.662,-7.084 h -13.134 v -1.804 h 13.134 z m -7.282,2.794 c -0.22,-0.462 -0.638,-1.034 -1.012,-1.474 h 6.204 c -0.22,0.44 -0.616,0.99 -0.99,1.474 z m 7.304,4.686 h -4.554 v -3.652 h 4.554 z m -10.538,-3.652 h 4.444 v 3.652 h -4.444 z m 12.166,-6.952 h -16.412 v 6.38 c 0,3.498 -0.176,8.316 -2.266,11.748 0.418,0.154 1.122,0.55 1.43,0.836 2.156,-3.564 2.464,-8.91 2.464,-12.584 v -1.936 h 4.51 l -1.012,0.374 c 0.286,0.33 0.55,0.704 0.792,1.1 h -3.19 v 5.72 h 13.64 v -5.72 h -3.08 c 0.264,-0.352 0.55,-0.726 0.836,-1.1 l -1.188,-0.374 h 3.476 z"
       style="font-weight:normal;font-family:'Noto Sans CJK TC';-inkscape-font-specification:'Noto Sans CJK TC';text-align:center;text-anchor:middle"
       id="path1269" />
  </g>
  <g
     aria-label="網路層"
     id="text149"
     style="font-weight:500;font-size:22px;line-height:125%;font-family:Poppins;-inkscape-font-specification:'Poppins Medium';letter-spacing:0;word-spacing:0;fill:#ffffff">
    <path
       d="m 490.62804,383.45601 c -0.22,1.76 -0.55,3.696 -1.034,5.06 0.308,0.088 0.946,0.286 1.21,0.44 0.44,-1.364 0.858,-3.388 1.078,-5.302 z m 2.266,0.132 c 0.242,1.496 0.484,3.41 0.528,4.708 l 1.232,-0.308 c -0.066,-1.276 -0.308,-3.168 -0.616,-4.62 z m 2.376,-0.418 c 0.484,1.342 1.012,3.102 1.232,4.268 l 1.144,-0.418 c -0.22,-1.122 -0.792,-2.86 -1.298,-4.224 z m -0.198,-5.038 c 0.242,0.638 0.528,1.342 0.77,2.046 l -3.784,0.528 c 1.738,-2.09 3.432,-4.708 4.818,-7.304 l -1.276,-0.77 c -0.462,1.034 -1.056,2.09 -1.606,3.036 l -2.31,0.22 c 1.21,-1.672 2.398,-3.828 3.322,-5.896 l -1.386,-0.594 c -0.858,2.376 -2.354,4.884 -2.816,5.544 -0.44,0.66 -0.814,1.122 -1.166,1.21 0.154,0.374 0.374,1.1 0.462,1.408 0.286,-0.154 0.748,-0.264 3.036,-0.528 -0.77,1.21 -1.452,2.156 -1.804,2.574 -0.638,0.836 -1.122,1.386 -1.562,1.474 0.176,0.396 0.418,1.1 0.462,1.43 0.418,-0.22 1.078,-0.374 5.984,-1.144 0.088,0.374 0.198,0.748 0.264,1.056 l 1.232,-0.484 c -0.264,-1.056 -0.902,-2.816 -1.474,-4.202 z m 7.898,5.874 c -0.462,0 -0.528,-0.176 -0.528,-0.748 v -2.156 h 4.532 v -1.298 h -3.256 l 0.792,-0.352 c -0.198,-0.484 -0.594,-1.342 -0.968,-1.98 h 3.696 v -1.298 h -1.87 c 0.352,-0.946 0.748,-2.2 1.078,-3.278 l -1.188,-0.352 c -0.198,1.056 -0.638,2.596 -1.034,3.63 h -4.18 v 1.298 h 3.366 l -1.012,0.396 c 0.308,0.572 0.66,1.342 0.858,1.936 h -2.992 v 1.298 h 0.814 v 2.134 c 0,1.452 0.33,1.98 1.782,1.98 h 2.816 c 0.55,0 1.122,-0.022 1.408,-0.11 -0.044,-0.33 -0.088,-0.836 -0.132,-1.21 -0.33,0.088 -0.946,0.11 -1.298,0.11 z m -2.178,-11.154 c 0.528,0.968 0.99,2.288 1.144,3.146 l 1.056,-0.374 c -0.132,-0.858 -0.638,-2.156 -1.188,-3.124 z m 8.404,-2.42 h -11.198 v 19.074 h 1.474 v -17.622 h 8.228 v 15.752 c 0,0.308 -0.088,0.396 -0.374,0.418 -0.264,0 -1.144,0.022 -2.068,-0.022 0.176,0.396 0.374,1.056 0.418,1.452 1.342,0 2.244,-0.022 2.772,-0.286 0.572,-0.264 0.748,-0.66 0.748,-1.562 z"
       style="font-weight:normal;font-family:'Noto Sans CJK TC';-inkscape-font-specification:'Noto Sans CJK TC';text-align:center;text-anchor:middle"
       id="path1272" />
    <path
       d="m 522.68204,381.54201 c 1.166,-0.704 2.288,-1.584 3.3,-2.596 0.946,0.946 2.024,1.87 3.256,2.596 z m 0.528,5.654 v -4.224 h 5.5 v 4.224 z m -3.212,-7.018 h -2.728 v -3.168 h 2.53 v -0.66 c 0.396,0.264 0.902,0.726 1.144,0.968 0.704,-0.726 1.386,-1.562 2.002,-2.53 0.55,0.99 1.21,2.024 2.024,3.014 -1.474,1.518 -3.212,2.684 -4.972,3.432 z m -5.852,-8.448 h 4.136 v 3.85 h -4.136 z m 14.014,1.32 c -0.55,1.364 -1.32,2.596 -2.244,3.718 -0.902,-1.078 -1.628,-2.222 -2.178,-3.3 l 0.22,-0.418 z m 1.012,-1.496 -0.286,0.066 h -4.246 c 0.242,-0.594 0.484,-1.232 0.704,-1.87 l -1.562,-0.374 c -0.814,2.64 -2.244,5.104 -3.982,6.754 v -5.83 h -7.106 v 6.71 h 3.08 v 8.888 l -1.694,0.396 v -7.216 h -1.386 v 7.502 l -1.122,0.242 0.308,1.584 c 2.31,-0.572 5.434,-1.32 8.426,-2.046 l -0.154,-1.474 c -0.968,0.242 -1.936,0.462 -2.882,0.682 v -3.938 h 2.31 c 0.308,0.33 0.638,0.77 0.792,1.1 0.44,-0.198 0.88,-0.396 1.32,-0.616 v 7.326 h 1.518 v -0.792 h 5.5 v 0.726 h 1.562 v -7.238 c 0.242,0.11 0.484,0.198 0.704,0.308 0.22,-0.396 0.682,-1.034 1.012,-1.342 -1.98,-0.748 -3.652,-1.914 -5.016,-3.234 1.364,-1.628 2.508,-3.564 3.212,-5.852 z"
       style="font-weight:normal;font-family:'Noto Sans CJK TC';-inkscape-font-specification:'Noto Sans CJK TC';text-align:center;text-anchor:middle"
       id="path1274" />
    <path
       d="m 549.65404,384.11601 v 1.254 h -8.602 v -1.254 z m -8.602,3.542 v -1.276 h 8.602 v 1.276 z m -1.584,1.804 h 1.584 v -0.704 h 8.602 v 0.66 h 1.628 v -6.402 h -11.814 z m 1.43,-11.242 c 0.616,0.726 1.254,1.738 1.562,2.376 l 1.034,-0.594 c -0.286,-0.638 -0.946,-1.606 -1.584,-2.288 z m 6.93,2.376 c 0.506,-0.594 1.122,-1.474 1.628,-2.354 l -1.056,-0.55 c -0.352,0.682 -1.012,1.76 -1.496,2.398 z m 2.662,-7.084 h -13.134 v -1.804 h 13.134 z m -7.282,2.794 c -0.22,-0.462 -0.638,-1.034 -1.012,-1.474 h 6.204 c -0.22,0.44 -0.616,0.99 -0.99,1.474 z m 7.304,4.686 h -4.554 v -3.652 h 4.554 z m -10.538,-3.652 h 4.444 v 3.652 h -4.444 z m 12.166,-6.952 h -16.412 v 6.38 c 0,3.498 -0.176,8.316 -2.266,11.748 0.418,0.154 1.122,0.55 1.43,0.836 2.156,-3.564 2.464,-8.91 2.464,-12.584 v -1.936 h 4.51 l -1.012,0.374 c 0.286,0.33 0.55,0.704 0.792,1.1 h -3.19 v 5.72 h 13.64 v -5.72 h -3.08 c 0.264,-0.352 0.55,-0.726 0.836,-1.1 l -1.188,-0.374 h 3.476 z"
       style="font-weight:normal;font-family:'Noto Sans CJK TC';-inkscape-font-specification:'Noto Sans CJK TC';text-align:center;text-anchor:middle"
       id="path1276" />
  </g>
  <g
     aria-label="資料連結層"
     id="text153"
     style="font-weight:500;font-size:22px;line-height:125%;font-family:Poppins;-inkscape-font-specification:'Poppins Medium';letter-spacing:0;word-spacing:0;fill:#ffffff">
    <path
       d="m 480.35601,447.478 v 0.22 c 0,1.144 -0.528,2.64 -6.226,3.41 0.286,0.264 0.704,0.858 0.88,1.21 3.872,-0.594 5.61,-1.606 6.336,-2.684 1.364,1.342 3.476,2.222 5.984,2.574 0.198,-0.396 0.616,-0.99 0.924,-1.298 -2.882,-0.242 -5.28,-1.1 -6.446,-2.42 0.044,-0.264 0.066,-0.506 0.066,-0.726 v -0.286 h 3.498 c -0.308,0.638 -0.704,1.276 -1.034,1.738 l 1.298,0.462 c 0.594,-0.77 1.298,-2.046 1.848,-3.168 l -1.1,-0.374 -0.264,0.066 h -7.37 c 0.154,-0.396 0.33,-0.792 0.462,-1.21 l -1.474,-0.33 c -0.484,1.606 -1.386,3.146 -2.53,4.18 0.352,0.176 0.968,0.594 1.232,0.836 0.594,-0.594 1.166,-1.364 1.65,-2.2 z m -7.546,11.198 h 11.022 v 1.54 h -11.022 z m 0,-2.552 h 11.022 v 1.496 h -11.022 z m 0,-2.552 h 11.022 v 1.496 h -11.022 z m -1.584,7.722 h 14.234 v -8.822 h -14.234 z m 2.86,-15.268 h -5.258 v 1.276 h 5.258 z m 0.55,3.41 h -6.292 v 1.32 h 6.292 z m 0.264,12.012 c -1.562,0.858 -4.202,1.65 -6.446,2.112 0.374,0.286 0.924,0.902 1.21,1.232 2.178,-0.594 4.95,-1.628 6.71,-2.684 z m 5.368,0.858 c 2.376,0.792 4.752,1.738 6.16,2.442 l 1.43,-0.946 c -1.54,-0.704 -4.114,-1.65 -6.468,-2.376 z"
       style="font-weight:normal;font-family:'Noto Sans CJK TC';-inkscape-font-specification:'Noto Sans CJK TC';text-align:center;text-anchor:middle"
       id="path1279" />
    <path
       d="m 504.84201,448.952 c -0.704,-0.814 -2.222,-1.936 -3.454,-2.684 l -0.836,1.1 c 1.254,0.814 2.75,2.002 3.454,2.838 z m -0.968,5.258 c -0.77,-0.77 -2.376,-1.782 -3.674,-2.464 l -0.77,1.144 c 1.298,0.726 2.882,1.848 3.63,2.64 z m -6.336,-8.162 c -0.33,1.474 -0.946,3.63 -1.474,4.928 l 1.078,0.352 c 0.594,-1.232 1.276,-3.278 1.804,-4.928 z m -4.576,4.906 c -0.154,-1.32 -0.66,-3.3 -1.298,-4.818 l -1.188,0.286 c 0.572,1.54 1.078,3.564 1.21,4.862 z m -0.748,3.916 c -0.374,1.958 -1.276,4.4 -2.2,5.676 0.308,0.484 0.682,1.254 0.858,1.804 1.144,-1.584 2.068,-4.664 2.53,-7.106 z m 6.732,-1.276 v -1.54 h -3.586 v -7.326 h -1.518 v 7.326 h -3.52 v 1.54 h 3.52 v 11.22 h 1.518 v -11.22 z m -3.476,1.936 c 0.462,0.946 1.672,3.762 2.068,4.95 l 1.166,-1.21 c -0.33,-0.748 -1.914,-3.74 -2.332,-4.378 z m 14.894,2.574 -0.242,-1.496 -2.596,0.462 v -12.342 h -1.54 v 12.628 l -7.084,1.254 0.264,1.54 6.82,-1.254 v 5.896 h 1.54 v -6.182 z"
       style="font-weight:normal;font-family:'Noto Sans CJK TC';-inkscape-font-specification:'Noto Sans CJK TC';text-align:center;text-anchor:middle"
       id="path1281" />
    <path
       d="m 520.44001,455.574 v -1.76 h 3.366 v 1.76 z m 0,-4.642 h 3.366 v 1.716 h -3.366 z m 8.47,0 v 1.716 h -3.52 v -1.716 z m 0,4.642 h -3.52 v -1.76 h 3.52 z m -5.104,6.798 h 1.584 v -2.618 h 6.556 v -1.386 h -6.556 v -1.584 h 5.104 v -7.062 h -5.104 v -1.672 h 6.248 v -1.386 h -6.248 v -1.936 h -1.584 v 1.936 h -5.918 v 1.386 h 5.918 v 1.672 h -4.862 v 7.062 h 4.862 v 1.584 h -5.918 v 1.386 h 5.918 z m -7.744,-13.992 c -0.286,-0.968 -0.792,-2.398 -1.166,-3.542 l -1.452,0.418 c 0.374,1.144 0.858,2.662 1.122,3.63 z m 0.726,6.534 -0.286,0.066 h -1.496 c 0.572,-1.518 1.254,-3.366 1.804,-4.95 h -4.51 v 1.474 h 2.442 c -0.594,1.738 -1.276,3.608 -1.87,4.906 h 2.86 c -0.352,1.584 -0.902,3.322 -1.584,4.576 -0.66,0.44 -1.408,1.342 -2.2,2.442 l 1.122,1.474 c 0.66,-1.386 1.386,-2.772 1.892,-2.772 0.484,0 1.298,0.748 2.2,1.276 1.606,0.968 3.542,1.21 6.424,1.21 2.618,0 6.776,-0.132 8.404,-0.242 0.044,-0.484 0.286,-1.254 0.506,-1.694 -2.464,0.242 -6.028,0.462 -8.844,0.462 -2.618,0 -4.598,-0.154 -6.16,-1.1 -0.814,-0.484 -1.32,-0.902 -1.76,-1.144 0.748,-1.606 1.408,-3.74 1.804,-5.676 z"
       style="font-weight:normal;font-family:'Noto Sans CJK TC';-inkscape-font-specification:'Noto Sans CJK TC';text-align:center;text-anchor:middle"
       id="path1283" />
    <path
       d="m 535.13601,458.764 c -0.22,1.848 -0.55,3.85 -1.078,5.236 0.352,0.11 1.012,0.33 1.32,0.462 0.44,-1.342 0.858,-3.52 1.122,-5.456 z m 2.464,0.176 c 0.242,1.584 0.506,3.63 0.572,4.994 l 1.298,-0.264 c -0.088,-1.364 -0.352,-3.388 -0.66,-4.972 z m 2.244,-0.418 c 0.462,1.364 0.99,3.168 1.21,4.334 l 1.232,-0.44 c -0.242,-1.144 -0.792,-2.882 -1.32,-4.246 z m -0.132,-5.17 c 0.242,0.638 0.506,1.364 0.726,2.068 l -3.696,0.484 c 1.804,-1.98 3.564,-4.466 4.994,-6.974 l -1.386,-0.836 c -0.506,0.968 -1.056,1.936 -1.65,2.838 l -2.398,0.22 c 1.254,-1.672 2.486,-3.806 3.498,-5.874 l -1.474,-0.638 c -0.946,2.398 -2.552,4.928 -3.014,5.588 -0.484,0.638 -0.88,1.1 -1.254,1.188 0.176,0.396 0.418,1.144 0.506,1.452 0.308,-0.132 0.814,-0.242 3.19,-0.506 -0.836,1.188 -1.562,2.112 -1.914,2.508 -0.66,0.792 -1.188,1.342 -1.65,1.43 0.176,0.418 0.44,1.188 0.506,1.518 0.44,-0.242 1.122,-0.396 6.094,-1.122 0.11,0.462 0.22,0.902 0.286,1.276 l 1.32,-0.462 c -0.242,-1.144 -0.858,-3.08 -1.474,-4.532 z m 11.506,4.554 v 4.466 h -6.16 v -4.466 z m -7.7,6.886 h 1.54 v -0.924 h 6.16 v 0.836 h 1.584 v -8.294 h -9.284 z m 10.516,-15.62 v -1.54 h -5.148 v -2.926 h -1.65 v 2.926 h -4.818 v 1.54 h 4.818 v 3.454 h -4.158 v 1.518 h 10.34 v -1.518 h -4.532 v -3.454 z"
       style="font-weight:normal;font-family:'Noto Sans CJK TC';-inkscape-font-specification:'Noto Sans CJK TC';text-align:center;text-anchor:middle"
       id="path1285" />
    <path
       d="m 572.18401,459.446 v 1.254 h -8.602 v -1.254 z m -8.602,3.542 v -1.276 h 8.602 v 1.276 z m -1.584,1.804 h 1.584 v -0.704 h 8.602 v 0.66 h 1.628 v -6.402 h -11.814 z m 1.43,-11.242 c 0.616,0.726 1.254,1.738 1.562,2.376 l 1.034,-0.594 c -0.286,-0.638 -0.946,-1.606 -1.584,-2.288 z m 6.93,2.376 c 0.506,-0.594 1.122,-1.474 1.628,-2.354 l -1.056,-0.55 c -0.352,0.682 -1.012,1.76 -1.496,2.398 z m 2.662,-7.084 h -13.134 v -1.804 h 13.134 z m -7.282,2.794 c -0.22,-0.462 -0.638,-1.034 -1.012,-1.474 h 6.204 c -0.22,0.44 -0.616,0.99 -0.99,1.474 z m 7.304,4.686 h -4.554 v -3.652 h 4.554 z m -10.538,-3.652 h 4.444 v 3.652 h -4.444 z m 12.166,-6.952 h -16.412 v 6.38 c 0,3.498 -0.176,8.316 -2.266,11.748 0.418,0.154 1.122,0.55 1.43,0.836 2.156,-3.564 2.464,-8.91 2.464,-12.584 v -1.936 h 4.51 l -1.012,0.374 c 0.286,0.33 0.55,0.704 0.792,1.1 h -3.19 v 5.72 h 13.64 v -5.72 h -3.08 c 0.264,-0.352 0.55,-0.726 0.836,-1.1 l -1.188,-0.374 h 3.476 z"
       style="font-weight:normal;font-family:'Noto Sans CJK TC';-inkscape-font-specification:'Noto Sans CJK TC';text-align:center;text-anchor:middle"
       id="path1287" />
  </g>
  <g
     aria-label="實體層"
     id="text157"
     style="font-weight:500;font-size:22px;line-height:125%;font-family:Poppins;-inkscape-font-specification:'Poppins Medium';letter-spacing:0;word-spacing:0;fill:#ffffff">
    <path
       d="m 493.426,497.962 h 15.268 v 2.156 h 1.562 v -3.498 h -8.14 c -0.308,-0.66 -0.792,-1.474 -1.298,-2.068 l -1.386,0.44 c 0.33,0.484 0.704,1.078 0.968,1.628 h -8.47 v 3.498 h 1.496 z m 2.31,11.814 h 10.736 v 1.034 h -10.736 z m 0,-1.958 h 10.736 v 1.012 h -10.736 z m 0,-1.914 h 10.736 v 0.99 h -10.736 z m 12.364,5.874 v -6.842 h -13.948 v 6.842 h 4.202 c -1.408,0.77 -4.356,1.562 -6.688,1.914 0.286,0.308 0.704,0.836 0.88,1.144 2.42,-0.396 5.39,-1.232 7.194,-2.2 l -1.298,-0.858 h 4.84 l -0.814,0.946 c 2.552,0.682 5.126,1.54 6.688,2.134 l 1.078,-1.056 c -1.672,-0.594 -4.312,-1.386 -6.842,-2.024 z m -6.512,-8.734 c 0.022,-0.352 0.066,-0.682 0.11,-1.078 h 4.092 l -0.088,1.078 z m -5.39,-1.078 h 4.114 c -0.044,0.374 -0.088,0.726 -0.132,1.078 h -4.114 z m 4.268,-2.002 -0.066,1.012 h -4.092 l 0.132,-1.012 z m 5.39,1.012 h -4.092 l 0.088,-1.012 h 4.092 z m 1.562,-0.132 0.154,-1.848 h -12.474 l -0.242,1.848 h -3.652 v 1.254 h 3.498 l -0.264,1.914 h 12.694 l 0.176,-1.914 h 3.674 v -1.254 z"
       style="font-weight:normal;font-family:'Noto Sans CJK TC';-inkscape-font-specification:'Noto Sans CJK TC';text-align:center;text-anchor:middle"
       id="path1290" />
    <path
       d="m 531.024,499.15 h -1.782 v -1.562 h 1.782 z m 0,2.728 h -1.782 v -1.628 h 1.782 z m -7.326,-1.628 h 1.694 v 1.628 h -1.694 z m 0,-2.662 h 1.694 v 1.562 h -1.694 z m 4.444,2.662 v 1.628 h -1.65 v -1.628 z m -1.65,-1.1 v -1.562 h 1.65 v 1.562 z m 5.852,-2.728 h -2.926 v -1.672 h -1.342 v 1.672 h -1.584 v -1.672 h -1.342 v 1.672 h -2.728 v 6.622 h 9.922 z m 0.55,7.766 h -10.956 v 1.232 h 10.956 z m -8.426,3.41 h 5.83 v 1.848 h -5.83 z m 7.348,2.948 v -4.07 h -8.8 v 4.07 z M 520.31,504.21 h -5.764 v -1.452 h 5.764 z m -4.774,-7.458 h 3.762 v 1.408 H 516.9 v 3.41 h -1.364 z m 2.332,4.818 v -2.376 h 1.43 v 2.376 z m 2.794,-6.072 h -6.468 v 6.072 h -0.902 v 3.146 h 1.078 v 3.608 c 0,1.738 -0.132,4.004 -1.276,5.676 0.33,0.154 0.902,0.616 1.144,0.88 1.298,-1.87 1.518,-4.554 1.518,-6.556 v -2.948 h 3.454 v 3.718 c -1.342,0.704 -2.618,1.364 -3.564,1.76 l 0.616,1.166 c 0.924,-0.528 1.914,-1.144 2.948,-1.782 v 2.882 c 0,0.22 -0.066,0.308 -0.308,0.308 -0.22,0 -0.99,0 -1.848,-0.022 0.176,0.374 0.396,0.902 0.462,1.254 1.232,0 1.98,-0.022 2.464,-0.22 0.484,-0.242 0.616,-0.594 0.616,-1.298 v -8.426 h 1.012 v -3.146 h -0.946 z m -1.628,12.496 c -0.506,-0.506 -1.518,-1.232 -2.398,-1.782 l -0.748,0.748 c 0.814,0.55 1.804,1.408 2.332,1.936 z m 10.736,5.104 c 0.33,-0.616 0.726,-1.386 1.1,-2.068 l -1.496,-0.44 c -0.22,0.704 -0.616,1.738 -0.946,2.508 h -2.112 c -0.22,-0.704 -0.616,-1.694 -0.946,-2.442 l -1.276,0.374 c 0.286,0.616 0.572,1.408 0.77,2.068 h -3.146 v 1.276 h 11.374 v -1.276 z"
       style="font-weight:normal;font-family:'Noto Sans CJK TC';-inkscape-font-specification:'Noto Sans CJK TC';text-align:center;text-anchor:middle"
       id="path1292" />
    <path
       d="m 551.044,509.446 v 1.254 h -8.602 v -1.254 z m -8.602,3.542 v -1.276 h 8.602 v 1.276 z m -1.584,1.804 h 1.584 v -0.704 h 8.602 v 0.66 h 1.628 v -6.402 h -11.814 z m 1.43,-11.242 c 0.616,0.726 1.254,1.738 1.562,2.376 l 1.034,-0.594 c -0.286,-0.638 -0.946,-1.606 -1.584,-2.288 z m 6.93,2.376 c 0.506,-0.594 1.122,-1.474 1.628,-2.354 l -1.056,-0.55 c -0.352,0.682 -1.012,1.76 -1.496,2.398 z m 2.662,-7.084 h -13.134 v -1.804 h 13.134 z m -7.282,2.794 c -0.22,-0.462 -0.638,-1.034 -1.012,-1.474 h 6.204 c -0.22,0.44 -0.616,0.99 -0.99,1.474 z m 7.304,4.686 h -4.554 v -3.652 h 4.554 z m -10.538,-3.652 h 4.444 v 3.652 h -4.444 z m 12.166,-6.952 h -16.412 v 6.38 c 0,3.498 -0.176,8.316 -2.266,11.748 0.418,0.154 1.122,0.55 1.43,0.836 2.156,-3.564 2.464,-8.91 2.464,-12.584 v -1.936 h 4.51 l -1.012,0.374 c 0.286,0.33 0.55,0.704 0.792,1.1 h -3.19 v 5.72 h 13.64 v -5.72 h -3.08 c 0.264,-0.352 0.55,-0.726 0.836,-1.1 l -1.188,-0.374 h 3.476 z"
       style="font-weight:normal;font-family:'Noto Sans CJK TC';-inkscape-font-specification:'Noto Sans CJK TC';text-align:center;text-anchor:middle"
       id="path1294" />
  </g>
  <g
     aria-label="網路存取層"
     id="text161"
     style="font-weight:500;font-size:22px;line-height:125%;font-family:Poppins;-inkscape-font-specification:'Poppins Medium';letter-spacing:0;word-spacing:0">
    <path
       d="m 118.368,483.45601 c -0.22,1.76 -0.55,3.696 -1.034,5.06 0.308,0.088 0.946,0.286 1.21,0.44 0.44,-1.364 0.858,-3.388 1.078,-5.302 z m 2.266,0.132 c 0.242,1.496 0.484,3.41 0.528,4.708 l 1.232,-0.308 c -0.066,-1.276 -0.308,-3.168 -0.616,-4.62 z m 2.376,-0.418 c 0.484,1.342 1.012,3.102 1.232,4.268 l 1.144,-0.418 c -0.22,-1.122 -0.792,-2.86 -1.298,-4.224 z m -0.198,-5.038 c 0.242,0.638 0.528,1.342 0.77,2.046 l -3.784,0.528 c 1.738,-2.09 3.432,-4.708 4.818,-7.304 l -1.276,-0.77 c -0.462,1.034 -1.056,2.09 -1.606,3.036 l -2.31,0.22 c 1.21,-1.672 2.398,-3.828 3.322,-5.896 l -1.386,-0.594 c -0.858,2.376 -2.354,4.884 -2.816,5.544 -0.44,0.66 -0.814,1.122 -1.166,1.21 0.154,0.374 0.374,1.1 0.462,1.408 0.286,-0.154 0.748,-0.264 3.036,-0.528 -0.77,1.21 -1.452,2.156 -1.804,2.574 -0.638,0.836 -1.122,1.386 -1.562,1.474 0.176,0.396 0.418,1.1 0.462,1.43 0.418,-0.22 1.078,-0.374 5.984,-1.144 0.088,0.374 0.198,0.748 0.264,1.056 l 1.232,-0.484 c -0.264,-1.056 -0.902,-2.816 -1.474,-4.202 z m 7.898,5.874 c -0.462,0 -0.528,-0.176 -0.528,-0.748 v -2.156 h 4.532 v -1.298 h -3.256 l 0.792,-0.352 c -0.198,-0.484 -0.594,-1.342 -0.968,-1.98 h 3.696 v -1.298 h -1.87 c 0.352,-0.946 0.748,-2.2 1.078,-3.278 l -1.188,-0.352 c -0.198,1.056 -0.638,2.596 -1.034,3.63 h -4.18 v 1.298 h 3.366 l -1.012,0.396 c 0.308,0.572 0.66,1.342 0.858,1.936 h -2.992 v 1.298 h 0.814 v 2.134 c 0,1.452 0.33,1.98 1.782,1.98 h 2.816 c 0.55,0 1.122,-0.022 1.408,-0.11 -0.044,-0.33 -0.088,-0.836 -0.132,-1.21 -0.33,0.088 -0.946,0.11 -1.298,0.11 z m -2.178,-11.154 c 0.528,0.968 0.99,2.288 1.144,3.146 l 1.056,-0.374 c -0.132,-0.858 -0.638,-2.156 -1.188,-3.124 z m 8.404,-2.42 h -11.198 v 19.074 h 1.474 v -17.622 h 8.228 v 15.752 c 0,0.308 -0.088,0.396 -0.374,0.418 -0.264,0 -1.144,0.022 -2.068,-0.022 0.176,0.396 0.374,1.056 0.418,1.452 1.342,0 2.244,-0.022 2.772,-0.286 0.572,-0.264 0.748,-0.66 0.748,-1.562 z"
       style="font-weight:normal;font-family:'Noto Sans CJK TC';-inkscape-font-specification:'Noto Sans CJK TC';text-align:center;text-anchor:middle"
       id="path1152" />
    <path
       d="m 150.422,481.54201 c 1.166,-0.704 2.288,-1.584 3.3,-2.596 0.946,0.946 2.024,1.87 3.256,2.596 z m 0.528,5.654 v -4.224 h 5.5 v 4.224 z m -3.212,-7.018 h -2.728 v -3.168 h 2.53 v -0.66 c 0.396,0.264 0.902,0.726 1.144,0.968 0.704,-0.726 1.386,-1.562 2.002,-2.53 0.55,0.99 1.21,2.024 2.024,3.014 -1.474,1.518 -3.212,2.684 -4.972,3.432 z m -5.852,-8.448 h 4.136 v 3.85 h -4.136 z m 14.014,1.32 c -0.55,1.364 -1.32,2.596 -2.244,3.718 -0.902,-1.078 -1.628,-2.222 -2.178,-3.3 l 0.22,-0.418 z m 1.012,-1.496 -0.286,0.066 h -4.246 c 0.242,-0.594 0.484,-1.232 0.704,-1.87 l -1.562,-0.374 c -0.814,2.64 -2.244,5.104 -3.982,6.754 v -5.83 h -7.106 v 6.71 h 3.08 v 8.888 l -1.694,0.396 v -7.216 h -1.386 v 7.502 l -1.122,0.242 0.308,1.584 c 2.31,-0.572 5.434,-1.32 8.426,-2.046 l -0.154,-1.474 c -0.968,0.242 -1.936,0.462 -2.882,0.682 v -3.938 h 2.31 c 0.308,0.33 0.638,0.77 0.792,1.1 0.44,-0.198 0.88,-0.396 1.32,-0.616 v 7.326 h 1.518 v -0.792 h 5.5 v 0.726 h 1.562 v -7.238 c 0.242,0.11 0.484,0.198 0.704,0.308 0.22,-0.396 0.682,-1.034 1.012,-1.342 -1.98,-0.748 -3.652,-1.914 -5.016,-3.234 1.364,-1.628 2.508,-3.564 3.212,-5.852 z"
       style="font-weight:normal;font-family:'Noto Sans CJK TC';-inkscape-font-specification:'Noto Sans CJK TC';text-align:center;text-anchor:middle"
       id="path1154" />
    <path
       d="m 180.98,473.82001 v -1.584 h -11.242 c 0.33,-0.814 0.594,-1.628 0.858,-2.464 l -1.672,-0.396 c -0.264,0.946 -0.594,1.914 -0.968,2.86 h -6.072 v 1.584 h 5.412 c -1.43,3.036 -3.432,5.83 -6.116,7.7 0.264,0.374 0.66,1.078 0.836,1.474 0.968,-0.66 1.826,-1.452 2.618,-2.288 v 8.734 h 1.606 v -10.648 c 1.122,-1.54 2.068,-3.212 2.838,-4.972 z m 0.418,8.096 h -5.874 v -1.276 c 1.606,-0.99 3.3,-2.332 4.488,-3.63 l -1.056,-0.836 -0.33,0.11 h -8.954 v 1.496 h 7.458 c -0.968,0.858 -2.156,1.76 -3.234,2.332 v 1.804 h -6.072 v 1.54 h 6.072 v 4.048 c 0,0.308 -0.088,0.396 -0.484,0.418 -0.374,0.044 -1.694,0.044 -3.146,-0.022 0.22,0.484 0.44,1.1 0.528,1.562 1.87,0 3.08,0 3.806,-0.242 0.726,-0.264 0.924,-0.726 0.924,-1.694 v -4.07 h 5.874 z"
       style="font-weight:normal;font-family:'Noto Sans CJK TC';-inkscape-font-specification:'Noto Sans CJK TC';text-align:center;text-anchor:middle"
       id="path1156" />
    <path
       d="m 191.078,475.20601 h -4.29 v -2.926 h 4.29 z m -4.29,6.006 h 4.29 v 2.706 c -1.474,0.22 -2.948,0.44 -4.29,0.616 z m 4.29,-1.496 h -4.29 v -3.058 h 4.29 z m 3.124,-7.436 v -1.518 h -10.67 v 1.518 h 1.716 v 12.474 c -0.792,0.11 -1.518,0.198 -2.134,0.264 l 0.286,1.65 c 2.09,-0.352 4.906,-0.77 7.678,-1.232 v 3.982 h 1.584 v -17.138 z m 7.612,0.044 -0.308,0.066 h -7.854 v 1.606 h 7.414 c -0.506,3.234 -1.452,5.984 -2.728,8.228 -1.254,-2.332 -2.134,-5.104 -2.706,-8.14 l -1.562,0.286 c 0.726,3.608 1.76,6.798 3.278,9.394 -1.32,1.804 -2.882,3.168 -4.62,4.07 0.352,0.308 0.836,0.902 1.078,1.32 1.672,-0.968 3.19,-2.266 4.488,-3.916 1.188,1.65 2.64,2.992 4.378,3.982 0.264,-0.418 0.792,-1.034 1.166,-1.342 -1.826,-0.924 -3.322,-2.332 -4.532,-4.092 1.76,-2.794 2.992,-6.446 3.564,-11.154 z"
       style="font-weight:normal;font-family:'Noto Sans CJK TC';-inkscape-font-specification:'Noto Sans CJK TC';text-align:center;text-anchor:middle"
       id="path1158" />
    <path
       d="m 221.394,484.11601 v 1.254 h -8.602 v -1.254 z m -8.602,3.542 v -1.276 h 8.602 v 1.276 z m -1.584,1.804 h 1.584 v -0.704 h 8.602 v 0.66 h 1.628 v -6.402 h -11.814 z m 1.43,-11.242 c 0.616,0.726 1.254,1.738 1.562,2.376 l 1.034,-0.594 c -0.286,-0.638 -0.946,-1.606 -1.584,-2.288 z m 6.93,2.376 c 0.506,-0.594 1.122,-1.474 1.628,-2.354 l -1.056,-0.55 c -0.352,0.682 -1.012,1.76 -1.496,2.398 z m 2.662,-7.084 h -13.134 v -1.804 h 13.134 z m -7.282,2.794 c -0.22,-0.462 -0.638,-1.034 -1.012,-1.474 h 6.204 c -0.22,0.44 -0.616,0.99 -0.99,1.474 z m 7.304,4.686 h -4.554 v -3.652 h 4.554 z m -10.538,-3.652 h 4.444 v 3.652 h -4.444 z m 12.166,-6.952 h -16.412 v 6.38 c 0,3.498 -0.176,8.316 -2.266,11.748 0.418,0.154 1.122,0.55 1.43,0.836 2.156,-3.564 2.464,-8.91 2.464,-12.584 v -1.936 h 4.51 l -1.012,0.374 c 0.286,0.33 0.55,0.704 0.792,1.1 h -3.19 v 5.72 h 13.64 v -5.72 h -3.08 c 0.264,-0.352 0.55,-0.726 0.836,-1.1 l -1.188,-0.374 h 3.476 z"
       style="font-weight:normal;font-family:'Noto Sans CJK TC';-inkscape-font-specification:'Noto Sans CJK TC';text-align:center;text-anchor:middle"
       id="path1160" />
  </g>
  <g
     aria-label="Internet 層
"
     id="text165"
     style="font-weight:500;font-size:22px;line-height:125%;font-family:Poppins;-inkscape-font-specification:'Poppins Medium';letter-spacing:0;word-spacing:0">
    <path
       d="m 120.952,371.96599 v 15.334 h -2.002 v -15.334 z"
       style="text-align:center;text-anchor:middle"
       id="path1133" />
    <path
       d="m 130.23601,375.02399 q 2.2,0 3.564,1.342 1.364,1.32 1.364,3.828 v 7.106 h -1.98 v -6.82 q 0,-1.804 -0.902,-2.75 -0.902,-0.968 -2.464,-0.968 -1.584,0 -2.53,0.99 -0.924,0.99 -0.924,2.882 v 6.666 h -2.002 v -12.056 h 2.002 v 1.716 q 0.594,-0.924 1.606,-1.43 1.034,-0.506 2.266,-0.506 z"
       style="text-align:center;text-anchor:middle"
       id="path1135" />
    <path
       d="m 140.884,376.89399 v 7.106 q 0,0.88 0.374,1.254 0.374,0.352 1.298,0.352 h 1.474 v 1.694 h -1.804 q -1.672,0 -2.508,-0.77 -0.836,-0.77 -0.836,-2.53 v -7.106 h -1.562 v -1.65 h 1.562 v -3.036 h 2.002 v 3.036 h 3.146 v 1.65 z"
       style="text-align:center;text-anchor:middle"
       id="path1137" />
    <path
       d="m 157.45,380.80999 q 0,0.572 -0.066,1.21 h -9.636 q 0.11,1.782 1.21,2.794 1.122,0.99 2.706,0.99 1.298,0 2.156,-0.594 0.88,-0.616 1.232,-1.628 h 2.156 q -0.484,1.738 -1.936,2.838 -1.452,1.078 -3.608,1.078 -1.716,0 -3.08,-0.77 -1.342,-0.77 -2.112,-2.178 -0.77,-1.43 -0.77,-3.3 0,-1.87 0.748,-3.278 0.748,-1.408 2.09,-2.156 1.364,-0.77 3.124,-0.77 1.716,0 3.036,0.748 1.32,0.748 2.024,2.068 0.726,1.298 0.726,2.948 z m -2.068,-0.418 q 0,-1.144 -0.506,-1.958 -0.506,-0.836 -1.386,-1.254 -0.858,-0.44 -1.914,-0.44 -1.518,0 -2.596,0.968 -1.056,0.968 -1.21,2.684 z"
       style="text-align:center;text-anchor:middle"
       id="path1139" />
    <path
       d="m 162.09202,377.20199 q 0.528,-1.034 1.496,-1.606 0.99,-0.572 2.398,-0.572 v 2.068 h -0.528 q -3.366,0 -3.366,3.652 v 6.556 h -2.002 v -12.056 h 2.002 z"
       style="text-align:center;text-anchor:middle"
       id="path1141" />
    <path
       d="m 174.17,375.02399 q 2.2,0 3.564,1.342 1.364,1.32 1.364,3.828 v 7.106 h -1.98 v -6.82 q 0,-1.804 -0.902,-2.75 -0.902,-0.968 -2.464,-0.968 -1.584,0 -2.53,0.99 -0.924,0.99 -0.924,2.882 v 6.666 h -2.002 v -12.056 h 2.002 v 1.716 q 0.594,-0.924 1.606,-1.43 1.034,-0.506 2.266,-0.506 z"
       style="text-align:center;text-anchor:middle"
       id="path1143" />
    <path
       d="m 193.37599,380.80999 q 0,0.572 -0.066,1.21 h -9.636 q 0.11,1.782 1.21,2.794 1.122,0.99 2.706,0.99 1.298,0 2.156,-0.594 0.88,-0.616 1.232,-1.628 h 2.156 q -0.484,1.738 -1.936,2.838 -1.452,1.078 -3.608,1.078 -1.716,0 -3.08,-0.77 -1.342,-0.77 -2.112,-2.178 -0.77,-1.43 -0.77,-3.3 0,-1.87 0.748,-3.278 0.748,-1.408 2.09,-2.156 1.364,-0.77 3.124,-0.77 1.716,0 3.036,0.748 1.32,0.748 2.024,2.068 0.726,1.298 0.726,2.948 z m -2.068,-0.418 q 0,-1.144 -0.506,-1.958 -0.506,-0.836 -1.386,-1.254 -0.858,-0.44 -1.914,-0.44 -1.518,0 -2.596,0.968 -1.056,0.968 -1.21,2.684 z"
       style="text-align:center;text-anchor:middle"
       id="path1145" />
    <path
       d="m 198.45801,376.89399 v 7.106 q 0,0.88 0.374,1.254 0.374,0.352 1.298,0.352 h 1.474 v 1.694 h -1.804 q -1.672,0 -2.508,-0.77 -0.836,-0.77 -0.836,-2.53 v -7.106 h -1.562 v -1.65 h 1.562 v -3.036 h 2.002 v 3.036 h 3.146 v 1.65 z"
       style="text-align:center;text-anchor:middle"
       id="path1147" />
    <path
       d="m 225.18802,383.62599 v 1.254 h -8.602 v -1.254 z m -8.602,3.542 v -1.276 h 8.602 v 1.276 z m -1.584,1.804 h 1.584 v -0.704 h 8.602 v 0.66 h 1.628 v -6.402 h -11.814 z m 1.43,-11.242 c 0.616,0.726 1.254,1.738 1.562,2.376 l 1.034,-0.594 c -0.286,-0.638 -0.946,-1.606 -1.584,-2.288 z m 6.93,2.376 c 0.506,-0.594 1.122,-1.474 1.628,-2.354 l -1.056,-0.55 c -0.352,0.682 -1.012,1.76 -1.496,2.398 z m 2.662,-7.084 h -13.134 v -1.804 h 13.134 z m -7.282,2.794 c -0.22,-0.462 -0.638,-1.034 -1.012,-1.474 h 6.204 c -0.22,0.44 -0.616,0.99 -0.99,1.474 z m 7.304,4.686 h -4.554 v -3.652 h 4.554 z m -10.538,-3.652 h 4.444 v 3.652 h -4.444 z m 12.166,-6.952 h -16.412 v 6.38 c 0,3.498 -0.176,8.316 -2.266,11.748 0.418,0.154 1.122,0.55 1.43,0.836 2.156,-3.564 2.464,-8.91 2.464,-12.584 v -1.936 h 4.51 l -1.012,0.374 c 0.286,0.33 0.55,0.704 0.792,1.1 h -3.19 v 5.72 h 13.64 v -5.72 h -3.08 c 0.264,-0.352 0.55,-0.726 0.836,-1.1 l -1.188,-0.374 h 3.476 z"
       style="font-weight:normal;font-family:'Noto Sans CJK TC';-inkscape-font-specification:'Noto Sans CJK TC';text-align:center;text-anchor:middle"
       id="path1149" />
  </g>
  <g
     aria-label="輸送層"
     id="text169"
     style="font-weight:500;font-size:22px;line-height:125%;font-family:Poppins;-inkscape-font-specification:'Poppins Medium';letter-spacing:0;word-spacing:0">
    <path
       d="m 145.56,308.76801 h 1.694 v 2.112 h -1.694 z m 0,-3.278 h 1.694 v 2.09 h -1.694 z m 4.51,2.09 h -1.628 v -2.09 h 1.628 z m 0,3.3 h -1.628 v -2.112 h 1.628 z m 1.76,4.356 v -1.43 h -3.234 v -1.694 h 2.772 v -7.854 h -2.816 v -1.65 h 3.234 v -1.408 h -3.234 v -2.332 h -1.43 v 2.332 h -3.3 v 1.408 h 3.3 v 1.65 h -2.838 v 7.854 h 2.816 v 1.694 h -3.476 v 1.43 h 3.476 v 3.696 h 1.496 v -3.696 z m 2.112,-1.892 c 0.022,-0.572 0.044,-1.166 0.044,-1.672 v -0.308 h 2.486 v 1.98 z m 2.53,-5.082 v 1.892 h -2.486 v -1.892 z m 1.254,-1.21 h -5.016 v 4.62 c 0,1.958 -0.132,4.51 -1.298,6.424 0.308,0.132 0.836,0.572 1.078,0.814 0.77,-1.254 1.144,-2.838 1.342,-4.356 h 2.64 v 2.706 c 0,0.198 -0.066,0.264 -0.264,0.264 -0.198,0 -0.858,0.022 -1.606,0 0.176,0.352 0.374,0.88 0.44,1.232 1.012,0 1.672,-0.022 2.112,-0.242 0.44,-0.22 0.572,-0.594 0.572,-1.254 z m 3.036,-2.904 h -5.896 v 1.276 h 5.896 z m -0.528,3.3 h -1.188 v 7.854 h 1.188 z m 1.408,9.68 c 0,0.264 -0.088,0.33 -0.352,0.352 -0.264,0.022 -1.122,0.022 -2.134,0 0.176,0.352 0.374,0.858 0.44,1.21 1.298,0 2.112,0 2.64,-0.22 0.506,-0.22 0.638,-0.594 0.638,-1.32 v -10.472 h -1.232 z m -4.136,-18.414 c -1.21,2.332 -3.454,4.532 -5.808,5.764 0.374,0.308 0.814,0.792 1.056,1.166 1.892,-1.122 3.652,-2.75 4.972,-4.642 1.43,1.936 3.102,3.322 5.082,4.51 0.22,-0.418 0.616,-0.88 0.99,-1.188 -2.09,-1.122 -3.894,-2.464 -5.346,-4.466 0.132,-0.22 0.264,-0.44 0.374,-0.66 z"
       style="font-weight:normal;font-family:'Noto Sans CJK TC';-inkscape-font-specification:'Noto Sans CJK TC';text-align:center;text-anchor:middle"
       id="path1126" />
    <path
       d="m 176.932,302.23401 c -0.418,-0.858 -1.254,-2.266 -1.958,-3.3 l -1.342,0.528 c 0.66,1.078 1.474,2.552 1.848,3.41 z m 7.744,12.474 c -1.276,-1.408 -3.806,-3.762 -5.742,-5.522 v -0.044 h 6.446 v -1.518 h -6.27 c 0.022,-0.22 0.022,-0.44 0.022,-0.616 v -2.552 h 5.61 v -1.518 h -3.344 c 0.682,-1.056 1.474,-2.398 2.112,-3.564 l -1.65,-0.528 c -0.462,1.232 -1.342,2.904 -2.112,4.092 h -7.436 v 1.518 h 5.17 v 2.53 c 0,0.198 0,0.418 -0.022,0.638 h -5.764 v 1.518 h 5.588 c -0.418,1.892 -1.716,3.96 -5.522,5.522 0.374,0.286 0.88,0.88 1.1,1.21 3.256,-1.452 4.862,-3.3 5.61,-5.17 1.848,1.76 3.96,3.828 5.06,5.126 z m -14.938,-12.078 c -0.286,-0.902 -0.792,-2.354 -1.188,-3.454 l -1.452,0.418 c 0.33,1.122 0.858,2.618 1.1,3.542 z m 1.012,6.358 -0.264,0.066 h -1.848 c 0.638,-1.496 1.342,-3.322 1.892,-4.884 h -4.928 v 1.474 h 2.904 c -0.594,1.694 -1.32,3.542 -1.936,4.84 h 3.058 c -0.396,1.54 -1.034,3.212 -1.716,4.444 -0.77,0.33 -1.672,1.342 -2.574,2.618 l 1.122,1.496 c 0.66,-1.408 1.408,-2.772 1.892,-2.772 0.506,0 1.298,0.748 2.178,1.276 1.628,0.968 3.52,1.21 6.402,1.21 2.574,0 6.688,-0.132 8.316,-0.242 0.022,-0.484 0.308,-1.254 0.484,-1.694 -2.42,0.264 -5.984,0.462 -8.778,0.462 -2.574,0 -4.532,-0.154 -6.072,-1.1 -0.682,-0.418 -1.166,-0.77 -1.54,-1.034 0.88,-1.628 1.628,-3.806 2.178,-5.83 z"
       style="font-weight:normal;font-family:'Noto Sans CJK TC';-inkscape-font-specification:'Noto Sans CJK TC';text-align:center;text-anchor:middle"
       id="path1128" />
    <path
       d="m 203.574,313.58601 v 1.254 h -8.602 v -1.254 z m -8.602,3.542 v -1.276 h 8.602 v 1.276 z m -1.584,1.804 h 1.584 v -0.704 h 8.602 v 0.66 h 1.628 v -6.402 h -11.814 z m 1.43,-11.242 c 0.616,0.726 1.254,1.738 1.562,2.376 l 1.034,-0.594 c -0.286,-0.638 -0.946,-1.606 -1.584,-2.288 z m 6.93,2.376 c 0.506,-0.594 1.122,-1.474 1.628,-2.354 l -1.056,-0.55 c -0.352,0.682 -1.012,1.76 -1.496,2.398 z m 2.662,-7.084 h -13.134 v -1.804 h 13.134 z m -7.282,2.794 c -0.22,-0.462 -0.638,-1.034 -1.012,-1.474 h 6.204 c -0.22,0.44 -0.616,0.99 -0.99,1.474 z m 7.304,4.686 h -4.554 v -3.652 h 4.554 z m -10.538,-3.652 h 4.444 v 3.652 h -4.444 z m 12.166,-6.952 h -16.412 v 6.38 c 0,3.498 -0.176,8.316 -2.266,11.748 0.418,0.154 1.122,0.55 1.43,0.836 2.156,-3.564 2.464,-8.91 2.464,-12.584 v -1.936 h 4.51 l -1.012,0.374 c 0.286,0.33 0.55,0.704 0.792,1.1 h -3.19 v 5.72 h 13.64 v -5.72 h -3.08 c 0.264,-0.352 0.55,-0.726 0.836,-1.1 l -1.188,-0.374 h 3.476 z"
       style="font-weight:normal;font-family:'Noto Sans CJK TC';-inkscape-font-specification:'Noto Sans CJK TC';text-align:center;text-anchor:middle"
       id="path1130" />
  </g>
  <g
     aria-label="TCP/IP 模型"
     id="text173"
     style="font-size:22px;line-height:125%;font-family:'Open Sans';-inkscape-font-specification:'Open Sans';letter-spacing:0;word-spacing:0;fill:#30ba78">
    <path
       d="m 99.265984,44.558002 v 2.664 h -6.84 v 22.428 h -3.276 v -22.428 h -6.876 v -2.664 z"
       style="font-weight:500;font-size:36px;font-family:Poppins;-inkscape-font-specification:'Poppins Medium';text-align:center;text-anchor:middle"
       id="path1087" />
    <path
       d="m 102.074,57.086002 q 0,-3.672 1.656,-6.588 1.656,-2.952 4.5,-4.608 2.88,-1.656 6.372,-1.656 4.104,0 7.164,1.98 3.06,1.98 4.464,5.616 h -3.924 q -1.044,-2.268 -3.024,-3.492 -1.944,-1.224 -4.68,-1.224 -2.628,0 -4.716,1.224 -2.088,1.224 -3.276,3.492 -1.188,2.232 -1.188,5.256 0,2.988 1.188,5.256 1.188,2.232 3.276,3.456 2.088,1.224 4.716,1.224 2.736,0 4.68,-1.188 1.98,-1.224 3.024,-3.492 h 3.924 q -1.404,3.6 -4.464,5.58 -3.06,1.944 -7.164,1.944 -3.492,0 -6.372,-1.62 -2.844,-1.656 -4.5,-4.572 -1.656,-2.916 -1.656,-6.588 z"
       style="font-weight:500;font-size:36px;font-family:Poppins;-inkscape-font-specification:'Poppins Medium';text-align:center;text-anchor:middle"
       id="path1089" />
    <path
       d="m 147.86597,51.902002 q 0,3.132 -2.16,5.22 -2.124,2.052 -6.516,2.052 h -4.824 v 10.476 h -3.276 v -25.092 h 8.1 q 4.248,0 6.444,2.052 2.232,2.052 2.232,5.292 z m -8.676,4.572 q 2.736,0 4.032,-1.188 1.296,-1.188 1.296,-3.384 0,-4.644 -5.328,-4.644 h -4.824 v 9.216 z"
       style="font-weight:500;font-size:36px;font-family:Poppins;-inkscape-font-specification:'Poppins Medium';text-align:center;text-anchor:middle"
       id="path1091" />
    <path
       d="m 164.17399,35.738002 -9.864,40.032 h -3.24 l 9.828,-40.032 z"
       style="font-weight:500;font-size:36px;font-family:Poppins;-inkscape-font-specification:'Poppins Medium';text-align:center;text-anchor:middle"
       id="path1093" />
    <path
       d="m 172.34599,44.558002 v 25.092 h -3.276 v -25.092 z"
       style="font-weight:500;font-size:36px;font-family:Poppins;-inkscape-font-specification:'Poppins Medium';text-align:center;text-anchor:middle"
       id="path1095" />
    <path
       d="m 194.702,51.902002 q 0,3.132 -2.16,5.22 -2.124,2.052 -6.516,2.052 h -4.824 v 10.476 h -3.276 v -25.092 h 8.1 q 4.248,0 6.444,2.052 2.232,2.052 2.232,5.292 z m -8.676,4.572 q 2.736,0 4.032,-1.188 1.296,-1.188 1.296,-3.384 0,-4.644 -5.328,-4.644 h -4.824 v 9.216 z"
       style="font-weight:500;font-size:36px;font-family:Poppins;-inkscape-font-specification:'Poppins Medium';text-align:center;text-anchor:middle"
       id="path1097" />
    <path
       d="m 232.61002,47.294002 h 2.412 v -2.556 h 4.86 v -2.268 h -4.86 v -2.88 h -2.412 v 2.88 h -3.024 v 2.268 h 3.024 z m -9.612,0 h 2.448 v -2.52 h 2.88 v -2.268 h -2.88 v -2.916 h -2.448 v 2.916 h -4.428 v 2.268 h 4.428 z m -4.068,10.008 c -0.612,-1.08 -3.132,-5.472 -4.068,-6.912 v -1.44 h 4.032 v -2.52 h -4.032 v -6.912 h -2.484 v 6.912 h -4.572 v 2.52 h 4.392 c -1.044,4.716 -3.168,10.44 -5.256,13.392 0.468,0.648 1.08,1.8 1.368,2.592 1.476,-2.304 2.952,-6.012 4.068,-9.792 v 17.244 h 2.484 v -18.36 c 0.936,1.836 1.944,4.032 2.412,5.22 z m 3.78,-2.664 h 12.42 v 2.556 h -12.42 z m 0,-4.464 h 12.42 v 2.556 h -12.42 z m 16.74,14.292 v -2.268 h -9.828 c 0.18,-0.936 0.36,-1.944 0.468,-2.988 h 7.632 v -11.052 h -17.532 v 11.052 h 7.272 c -0.108,1.044 -0.288,2.088 -0.504,2.988 h -9.108 v 2.268 h 8.316 c -1.332,2.736 -3.924,4.644 -9.18,5.832 0.54,0.504 1.152,1.512 1.404,2.124 6.3,-1.548 9.18,-4.104 10.584,-7.956 z m -10.512,1.908 c 3.168,1.764 7.38,4.32 9.504,5.904 l 1.656,-1.98 c -2.196,-1.476 -6.444,-3.96 -9.576,-5.616 z"
       style="font-family:'Noto Sans CJK TC';-inkscape-font-specification:'Noto Sans CJK TC';text-align:center;text-anchor:middle"
       id="path1099" />
    <path
       d="m 273.65001,39.770002 h -2.556 v 15.948 c 0,0.504 -0.144,0.648 -0.684,0.648 -0.54,0.072 -2.34,0.072 -4.392,0 0.396,0.72 0.792,1.728 0.9,2.448 2.556,0 4.284,-0.036 5.364,-0.432 1.08,-0.432 1.368,-1.116 1.368,-2.592 z m -6.732,1.8 h -2.484 v 11.988 h 2.484 z m -15.732,6.516 v -4.716 h 4.428 v 4.932 h -4.428 z m 4.428,2.592 v 7.704 h 2.52 v -7.704 h 4.068 v -2.376 h -4.068 v -4.932 h 3.348 v -2.376 h -16.128 v 2.376 h 3.348 v 4.644 0.288 h -4.536 v 2.376 h 4.356 c -0.432,2.412 -1.548,4.824 -4.68,6.732 0.504,0.396 1.404,1.368 1.764,1.872 3.636,-2.304 4.968,-5.508 5.4,-8.604 z m 5.544,18 v -4.536 h 10.872 v -2.448 h -10.872 v -4.032 h -2.7 v 4.032 h -11.304 v 2.448 h 11.304 v 4.536 h -15.012 v 2.52 h 32.328 v -2.52 z"
       style="font-family:'Noto Sans CJK TC';-inkscape-font-specification:'Noto Sans CJK TC';text-align:center;text-anchor:middle"
       id="path1101" />
  </g>
  <g
     aria-label="OSI 模型"
     id="text177"
     style="font-size:22px;line-height:125%;font-family:'Open Sans';-inkscape-font-specification:'Open Sans';letter-spacing:0;word-spacing:0;fill:#0c322c">
    <path
       d="m 456.24999,69.902002 q -3.492,0 -6.372,-1.62 -2.88,-1.656 -4.572,-4.572 -1.656,-2.952 -1.656,-6.624 0,-3.672 1.656,-6.588 1.692,-2.952 4.572,-4.572 2.88,-1.656 6.372,-1.656 3.528,0 6.408,1.656 2.88,1.62 4.536,4.536 1.656,2.916 1.656,6.624 0,3.708 -1.656,6.624 -1.656,2.916 -4.536,4.572 -2.88,1.62 -6.408,1.62 z m 0,-2.844 q 2.628,0 4.716,-1.224 2.124,-1.224 3.312,-3.492 1.224,-2.268 1.224,-5.256 0,-3.024 -1.224,-5.256 -1.188,-2.268 -3.276,-3.492 -2.088,-1.224 -4.752,-1.224 -2.664,0 -4.752,1.224 -2.088,1.224 -3.312,3.492 -1.188,2.232 -1.188,5.256 0,2.988 1.188,5.256 1.224,2.268 3.312,3.492 2.124,1.224 4.752,1.224 z"
       style="font-weight:500;font-size:36px;font-family:Poppins;-inkscape-font-specification:'Poppins Medium';text-align:center;text-anchor:middle"
       id="path1104" />
    <path
       d="m 481.12597,69.902002 q -2.484,0 -4.464,-0.864 -1.944,-0.9 -3.06,-2.448 -1.116,-1.584 -1.152,-3.636 h 3.492 q 0.18,1.764 1.44,2.988 1.296,1.188 3.744,1.188 2.34,0 3.672,-1.152 1.368,-1.188 1.368,-3.024 0,-1.44 -0.792,-2.34 -0.792,-0.9 -1.98,-1.368 -1.188,-0.468 -3.204,-1.008 -2.484,-0.648 -3.996,-1.296 -1.476,-0.648 -2.556,-2.016 -1.044,-1.404 -1.044,-3.744 0,-2.052 1.044,-3.636 1.044,-1.584 2.916,-2.448 1.908,-0.864 4.356,-0.864 3.528,0 5.76,1.764 2.268,1.764 2.556,4.68 h -3.6 q -0.18,-1.44 -1.512,-2.52 -1.332,-1.116 -3.528,-1.116 -2.052,0 -3.348,1.08 -1.296,1.044 -1.296,2.952 0,1.368 0.756,2.232 0.792,0.864 1.908,1.332 1.152,0.432 3.204,1.008 2.484,0.684 3.996,1.368 1.512,0.648 2.592,2.052 1.08,1.368 1.08,3.744 0,1.836 -0.972,3.456 -0.972,1.62 -2.88,2.628 -1.908,1.008 -4.5,1.008 z"
       style="font-weight:500;font-size:36px;font-family:Poppins;-inkscape-font-specification:'Poppins Medium';text-align:center;text-anchor:middle"
       id="path1106" />
    <path
       d="m 497.57796,44.558002 v 25.092 h -3.276 v -25.092 z"
       style="font-weight:500;font-size:36px;font-family:Poppins;-inkscape-font-specification:'Poppins Medium';text-align:center;text-anchor:middle"
       id="path1108" />
    <path
       d="m 536.99798,47.294002 h 2.412 v -2.556 h 4.86 v -2.268 h -4.86 v -2.88 h -2.412 v 2.88 h -3.024 v 2.268 h 3.024 z m -9.612,0 h 2.448 v -2.52 h 2.88 v -2.268 h -2.88 v -2.916 h -2.448 v 2.916 h -4.428 v 2.268 h 4.428 z m -4.068,10.008 c -0.612,-1.08 -3.132,-5.472 -4.068,-6.912 v -1.44 h 4.032 v -2.52 h -4.032 v -6.912 h -2.484 v 6.912 h -4.572 v 2.52 h 4.392 c -1.044,4.716 -3.168,10.44 -5.256,13.392 0.468,0.648 1.08,1.8 1.368,2.592 1.476,-2.304 2.952,-6.012 4.068,-9.792 v 17.244 h 2.484 v -18.36 c 0.936,1.836 1.944,4.032 2.412,5.22 z m 3.78,-2.664 h 12.42 v 2.556 h -12.42 z m 0,-4.464 h 12.42 v 2.556 h -12.42 z m 16.74,14.292 v -2.268 h -9.828 c 0.18,-0.936 0.36,-1.944 0.468,-2.988 h 7.632 v -11.052 h -17.532 v 11.052 h 7.272 c -0.108,1.044 -0.288,2.088 -0.504,2.988 h -9.108 v 2.268 h 8.316 c -1.332,2.736 -3.924,4.644 -9.18,5.832 0.54,0.504 1.152,1.512 1.404,2.124 6.3,-1.548 9.18,-4.104 10.584,-7.956 z m -10.512,1.908 c 3.168,1.764 7.38,4.32 9.504,5.904 l 1.656,-1.98 c -2.196,-1.476 -6.444,-3.96 -9.576,-5.616 z"
       style="font-family:'Noto Sans CJK TC';-inkscape-font-specification:'Noto Sans CJK TC';text-align:center;text-anchor:middle"
       id="path1110" />
    <path
       d="m 578.03798,39.770002 h -2.556 v 15.948 c 0,0.504 -0.144,0.648 -0.684,0.648 -0.54,0.072 -2.34,0.072 -4.392,0 0.396,0.72 0.792,1.728 0.9,2.448 2.556,0 4.284,-0.036 5.364,-0.432 1.08,-0.432 1.368,-1.116 1.368,-2.592 z m -6.732,1.8 h -2.484 v 11.988 h 2.484 z m -15.732,6.516 v -4.716 h 4.428 v 4.932 h -4.428 z m 4.428,2.592 v 7.704 h 2.52 v -7.704 h 4.068 v -2.376 h -4.068 v -4.932 h 3.348 v -2.376 h -16.128 v 2.376 h 3.348 v 4.644 0.288 h -4.536 v 2.376 h 4.356 c -0.432,2.412 -1.548,4.824 -4.68,6.732 0.504,0.396 1.404,1.368 1.764,1.872 3.636,-2.304 4.968,-5.508 5.4,-8.604 z m 5.544,18 v -4.536 h 10.872 v -2.448 h -10.872 v -4.032 h -2.7 v 4.032 h -11.304 v 2.448 h 11.304 v 4.536 h -15.012 v 2.52 h 32.328 v -2.52 z"
       style="font-family:'Noto Sans CJK TC';-inkscape-font-specification:'Noto Sans CJK TC';text-align:center;text-anchor:middle"
       id="path1112" />
  </g>
</svg>
