<?xml version="1.0" encoding="UTF-8" standalone="no"?>
<svg
   xml:space="preserve"
   width="205mm"
   height="180mm"
   fill-rule="evenodd"
   stroke-linejoin="round"
   stroke-width="28.22"
   preserveAspectRatio="xMidYMid"
   version="1.2"
   viewBox="0 0 20500 18000"
   id="svg5432"
   sodipodi:docname="uefi-secure-boot-mok2.svg"
   inkscape:version="1.2.2 (732a01da63, 2022-12-09)"
   xmlns:inkscape="http://www.inkscape.org/namespaces/inkscape"
   xmlns:sodipodi="http://sodipodi.sourceforge.net/DTD/sodipodi-0.dtd"
   xmlns="http://www.w3.org/2000/svg"
   xmlns:svg="http://www.w3.org/2000/svg"><sodipodi:namedview
   id="namedview5434"
   pagecolor="#ffffff"
   bordercolor="#000000"
   borderopacity="0.25"
   inkscape:showpageshadow="2"
   inkscape:pageopacity="0.0"
   inkscape:pagecheckerboard="0"
   inkscape:deskcolor="#d1d1d1"
   inkscape:document-units="mm"
   showgrid="false"
   inkscape:zoom="4.7389816"
   inkscape:cx="584.51377"
   inkscape:cy="299.85346"
   inkscape:window-width="1920"
   inkscape:window-height="1009"
   inkscape:window-x="-8"
   inkscape:window-y="-8"
   inkscape:window-maximized="1"
   inkscape:current-layer="text5342" />
    <defs
   class="ClipPathGroup"
   id="defs5258">
        <marker
   id="a"
   markerHeight="4.71"
   markerWidth="3.06"
   orient="auto"
   refX="1.53"
   refY="2.35">
            <path
   fill="none"
   stroke="#505050"
   stroke-linejoin="miter"
   stroke-width="1"
   d="m2.7.35-2 2 2 2"
   id="path5228" />
        </marker>
        <marker
   id="b"
   markerHeight="4.71"
   markerWidth="3.06"
   orient="auto"
   refX="1.53"
   refY="2.35">
            <path
   fill="none"
   stroke="#505050"
   stroke-linejoin="miter"
   stroke-width="1"
   d="m.35.35 2 2-2 2"
   id="path5231" />
        </marker>
        <marker
   id="c"
   markerHeight="4.71"
   markerWidth="3.06"
   orient="auto"
   refX="1.53"
   refY="2.35">
            <path
   fill="none"
   stroke="#505050"
   stroke-linejoin="miter"
   stroke-width="1"
   d="m.35.35 2 2-2 2"
   id="path5234" />
        </marker>
        <marker
   id="d"
   markerHeight="4.71"
   markerWidth="3.06"
   orient="auto"
   refX="1.53"
   refY="2.35">
            <path
   fill="none"
   stroke="#505050"
   stroke-linejoin="miter"
   stroke-width="1"
   d="m.35.35 2 2-2 2"
   id="path5237" />
        </marker>
        <marker
   id="e"
   markerHeight="4.71"
   markerWidth="3.06"
   orient="auto"
   refX="1.53"
   refY="2.35">
            <path
   fill="none"
   stroke="#505050"
   stroke-linejoin="miter"
   stroke-width="1"
   d="m.35.35 2 2-2 2"
   id="path5240" />
        </marker>
        <marker
   id="f"
   markerHeight="4.71"
   markerWidth="3.06"
   orient="auto"
   refX="1.53"
   refY="2.35">
            <path
   fill="none"
   stroke="#505050"
   stroke-linejoin="miter"
   stroke-width="1"
   d="m.35.35 2 2-2 2"
   id="path5243" />
        </marker>
        <marker
   id="g"
   markerHeight="4.71"
   markerWidth="3.06"
   orient="auto"
   refX="1.53"
   refY="2.35">
            <path
   fill="none"
   stroke="#505050"
   stroke-linejoin="miter"
   stroke-width="1"
   d="m.35.35 2 2-2 2"
   id="path5246" />
        </marker>
        <marker
   id="h"
   markerHeight="4.71"
   markerWidth="3.06"
   orient="auto"
   refX="1.53"
   refY="2.35">
            <path
   fill="none"
   stroke="#505050"
   stroke-linejoin="miter"
   stroke-width="1"
   d="m.35.35 2 2-2 2"
   id="path5249" />
        </marker>
        <marker
   id="i"
   markerHeight="4.71"
   markerWidth="3.06"
   orient="auto"
   refX="1.53"
   refY="2.35">
            <path
   fill="none"
   stroke="#505050"
   stroke-linejoin="miter"
   stroke-width="1"
   d="m.35.35 2 2-2 2"
   id="path5252" />
        </marker>
        <marker
   id="j"
   markerHeight="4.71"
   markerWidth="3.06"
   orient="auto"
   refX="1.53"
   refY="2.35">
            <path
   fill="none"
   stroke="#505050"
   stroke-linejoin="miter"
   stroke-width="1"
   d="m.35.35 2 2-2 2"
   id="path5255" />
        </marker>
    </defs>
    <g
   class="SlideGroup"
   id="g5428"
   transform="translate(-52.916663)">
        <g
   class="com.sun.star.drawing.TextShape"
   transform="translate(211.67,317.5)"
   id="g5270">
            <rect
   width="1073"
   height="777"
   x="2478"
   y="341"
   fill="none"
   class="BoundingBox"
   id="rect5260" />
            <g
   aria-label="PK"
   id="text5268"
   style="font-weight:500;font-family:Poppins;-inkscape-font-specification:'Poppins Medium'"
   class="TextShape"><path
     d="m 2939.684,689.716 q 0,33.756 -23.28,56.26 -22.892,22.116 -70.228,22.116 h -51.992 V 881 h -35.308 V 610.564 h 87.3 q 45.784,0 69.452,22.116 24.056,22.116 24.056,57.036 z m -93.508,49.276 q 29.488,0 43.456,-12.804 13.968,-12.804 13.968,-36.472 0,-50.052 -57.424,-50.052 h -51.992 v 99.328 z"
     id="path6567" /><path
     d="M 3130.1922,881 3018.8362,757.616 V 881 h -35.308 V 610.564 h 35.308 v 125.324 l 111.744,-125.324 h 44.62 L 3052.5922,745.976 3176.3642,881 Z"
     id="path6569" /></g>
        </g>
        <g
   class="com.sun.star.drawing.TextShape"
   transform="translate(0,582.08)"
   id="g5282">
            <rect
   width="1193"
   height="777"
   x="2458"
   y="4340"
   fill="none"
   class="BoundingBox"
   id="rect5272" />
            <g
   aria-label="KEK"
   id="text5280"
   style="font-weight:500;font-family:Poppins;-inkscape-font-specification:'Poppins Medium'"
   class="TextShape"><path
     d="M 2885.54,4880 2774.184,4756.616 V 4880 h -35.308 v -270.436 h 35.308 v 125.324 l 111.744,-125.324 h 44.62 L 2807.94,4744.976 2931.712,4880 Z"
     id="path6560" /><path
     d="m 3006.5964,4638.276 v 90.404 h 98.552 v 29.1 h -98.552 v 93.12 h 110.192 v 29.1 h -145.5 v -270.824 h 145.5 v 29.1 z"
     id="path6562" /><path
     d="m 3316.9965,4880 -111.356,-123.384 V 4880 h -35.308 v -270.436 h 35.308 v 125.324 l 111.744,-125.324 h 44.62 l -122.608,135.412 123.772,135.024 z"
     id="path6564" /></g>
        </g>
        <g
   class="com.sun.star.drawing.TextShape"
   transform="translate(-158.75)"
   id="g5294">
            <rect
   width="3369"
   height="777"
   x="282"
   y="6590"
   fill="none"
   class="BoundingBox"
   id="rect5284" />
            <g
   aria-label="SUSE 公用金鑰"
   id="text5292"
   style="font-weight:500;font-family:Poppins;-inkscape-font-specification:'Poppins Medium'"
   class="TextShape"><path
     d="m 1144.7389,7556.049 q -26.772,0 -48.112,-9.312 -20.952,-9.7 -32.98,-26.384 -12.028,-17.072 -12.416,-39.188 h 37.636 q 1.94,19.012 15.52,32.204 13.968,12.804 40.352,12.804 25.22,0 39.576,-12.416 14.744,-12.804 14.744,-32.592 0,-15.52 -8.536,-25.22 -8.536,-9.7 -21.34,-14.744 -12.804,-5.044 -34.532,-10.864 -26.772,-6.984 -43.068,-13.968 -15.908,-6.984 -27.548,-21.728 -11.252,-15.132 -11.252,-40.352 0,-22.116 11.252,-39.188 11.252,-17.072 31.428,-26.384 20.564,-9.312 46.948,-9.312 38.024,0 62.08,19.012 24.444,19.012 27.548,50.44 h -38.8 q -1.94,-15.52 -16.296,-27.16 -14.356,-12.028 -38.024,-12.028 -22.116,0 -36.084,11.64 -13.968,11.252 -13.968,31.816 0,14.744 8.148,24.056 8.536,9.312 20.564,14.356 12.416,4.656 34.532,10.864 26.772,7.372 43.068,14.744 16.296,6.984 27.936,22.116 11.64,14.744 11.64,40.352 0,19.788 -10.476,37.248 -10.476,17.46 -31.04,28.324 -20.564,10.864 -48.5,10.864 z"
     style="text-align:end;text-anchor:end"
     id="path6543" /><path
     d="m 1321.2788,7282.897 v 171.108 q 0,36.084 17.46,53.544 17.848,17.46 49.276,17.46 31.04,0 48.5,-17.46 17.848,-17.46 17.848,-53.544 v -171.108 h 35.308 v 170.72 q 0,33.756 -13.58,57.036 -13.58,22.892 -36.86,34.144 -22.892,11.252 -51.604,11.252 -28.712,0 -51.992,-11.252 -22.892,-11.252 -36.472,-34.144 -13.192,-23.28 -13.192,-57.036 v -170.72 z"
     style="text-align:end;text-anchor:end"
     id="path6545" /><path
     d="m 1634.3945,7556.049 q -26.772,0 -48.112,-9.312 -20.952,-9.7 -32.98,-26.384 -12.028,-17.072 -12.416,-39.188 h 37.636 q 1.94,19.012 15.52,32.204 13.968,12.804 40.352,12.804 25.22,0 39.576,-12.416 14.744,-12.804 14.744,-32.592 0,-15.52 -8.536,-25.22 -8.536,-9.7 -21.34,-14.744 -12.804,-5.044 -34.532,-10.864 -26.772,-6.984 -43.068,-13.968 -15.908,-6.984 -27.548,-21.728 -11.252,-15.132 -11.252,-40.352 0,-22.116 11.252,-39.188 11.252,-17.072 31.428,-26.384 20.564,-9.312 46.948,-9.312 38.024,0 62.08,19.012 24.444,19.012 27.548,50.44 h -38.8 q -1.94,-15.52 -16.296,-27.16 -14.356,-12.028 -38.024,-12.028 -22.116,0 -36.084,11.64 -13.968,11.252 -13.968,31.816 0,14.744 8.148,24.056 8.536,9.312 20.564,14.356 12.416,4.656 34.532,10.864 26.772,7.372 43.068,14.744 16.296,6.984 27.936,22.116 11.64,14.744 11.64,40.352 0,19.788 -10.476,37.248 -10.476,17.46 -31.04,28.324 -20.564,10.864 -48.5,10.864 z"
     style="text-align:end;text-anchor:end"
     id="path6547" /><path
     d="m 1811.7105,7311.609 v 90.404 h 98.552 v 29.1 h -98.552 v 93.12 h 110.192 v 29.1 h -145.5 v -270.824 h 145.5 v 29.1 z"
     style="text-align:end;text-anchor:end"
     id="path6549" /><path
     d="m 2172.5507,7240.217 c -24.056,58.588 -64.408,115.236 -107.864,151.32 7.76,5.432 20.176,17.46 25.608,23.28 43.068,-39.576 85.748,-101.268 113.684,-164.9 z m 112.908,206.804 c 15.52,20.564 32.98,45.784 48.112,69.84 l -179.256,10.088 c 39.964,-46.172 80.316,-106.312 113.684,-166.452 l -32.204,-13.58 c -32.204,65.96 -81.868,135.024 -97.776,152.872 -14.744,18.236 -25.996,31.04 -36.472,33.368 4.268,8.924 10.088,24.444 11.252,30.652 15.132,-5.432 36.472,-6.596 237.456,-20.564 8.148,13.968 15.52,26.384 20.952,37.248 l 28.712,-15.908 c -18.624,-34.532 -55.484,-88.852 -86.912,-130.368 z m -58.2,-208.356 v 29.1 h 72.168 c 20.952,58.588 58.2,114.46 102.044,147.052 5.432,-8.148 15.52,-20.952 22.504,-26.772 -45.396,-29.876 -84.196,-88.076 -102.82,-149.38 z"
     style="font-weight:normal;font-family:'Noto Sans CJK TC';-inkscape-font-specification:'Noto Sans CJK TC'"
     id="path6551" /><path
     d="m 2647.4627,7437.321 v -64.408 h 104.372 v 64.408 z m -122.996,0 c 1.164,-14.356 1.552,-28.712 1.552,-41.516 v -22.892 h 92.732 v 64.408 z m 94.284,-153.648 v 62.08 h -92.732 v -62.08 z m 133.084,62.08 h -104.372 v -62.08 h 104.372 z m 28.324,-89.628 h -282.464 v 139.68 c 0,53.932 -3.88,122.22 -46.56,170.332 6.208,3.492 17.848,13.192 22.116,19.012 29.488,-32.98 42.68,-77.212 48.5,-120.28 h 97 v 114.46 h 28.712 v -114.46 h 104.372 v 78.764 c 0,7.372 -2.716,9.7 -10.476,10.088 -6.984,0 -33.368,0.388 -60.528,-0.776 3.88,7.76 8.536,20.176 9.7,27.936 36.472,0.388 58.976,0 72.168,-4.656 12.416,-5.044 17.46,-13.58 17.46,-32.204 z"
     style="font-weight:normal;font-family:'Noto Sans CJK TC';-inkscape-font-specification:'Noto Sans CJK TC'"
     id="path6553" /><path
     d="m 2928.7627,7344.201 c 34.144,-20.176 65.184,-45.008 90.792,-72.944 25.22,26.384 59.364,52.38 94.284,72.944 z m 189.732,26.772 v -24.056 c 20.952,12.028 42.292,22.116 62.468,29.876 4.268,-7.76 13.192,-19.4 20.176,-25.22 -58.976,-18.624 -127.264,-58.976 -165.676,-100.104 3.492,-4.656 6.984,-9.7 9.7,-13.968 l -26.384,-12.416 c -36.86,57.424 -108.252,102.82 -180.42,126.488 7.372,6.596 15.132,18.236 19.4,26.384 20.952,-7.76 41.904,-17.46 61.692,-28.324 v 21.34 h 83.808 v 52.768 h -133.084 v 26.384 h 133.084 v 94.672 h -150.544 v 26.772 h 333.292 v -26.772 h -152.872 v -94.672 h 135.412 v -26.384 h -135.412 v -52.768 z m -28.324,168.392 c 13.968,-18.236 31.816,-45.784 45.784,-70.228 l -27.16,-10.476 c -9.312,21.728 -26.772,52.38 -40.352,71.392 z m -187.404,-71.004 c 14.744,21.728 30.264,52.38 35.696,70.228 l 25.22,-10.476 c -6.208,-18.624 -22.116,-47.724 -37.248,-69.452 z"
     style="font-weight:normal;font-family:'Noto Sans CJK TC';-inkscape-font-specification:'Noto Sans CJK TC'"
     id="path6555" /><path
     d="m 3508.4349,7495.521 v -34.144 h 36.472 v 34.144 z m -55.096,0 v -34.144 h 34.92 v 34.144 z m -53.932,0 v -34.144 h 34.144 v 34.144 z m 169.168,-56.648 h -191.672 v 143.948 h 22.504 v -65.572 h 34.144 v 62.468 h 19.788 v -62.468 h 34.92 v 62.468 h 20.176 v -62.468 h 36.472 v 38.412 c 0,3.492 -0.776,4.268 -3.88,4.656 -3.492,0.388 -12.028,0.388 -23.28,0 2.716,6.208 6.208,15.908 7.76,22.892 15.132,0 26.772,-0.388 33.756,-4.656 7.76,-4.268 9.312,-10.476 9.312,-22.892 z m -153.648,-104.76 h 112.52 v -22.892 h -112.52 z m 110.968,38.412 h 24.444 v 32.592 h -24.444 z m -15.52,51.216 h 55.484 v -69.84 h -55.484 z m -51.216,-51.216 h 24.056 v 32.592 h -24.056 z m 39.964,51.216 v -69.84 h -55.096 v 69.84 z m -105.148,-51.216 h 22.116 v 32.592 h -22.116 z m -15.52,51.216 h 53.544 v -69.84 h -53.544 z m 86.524,-192.836 c -18.624,26.384 -55.096,54.708 -104.76,72.556 -12.804,-15.52 -33.368,-34.532 -53.932,-50.44 2.716,-5.044 5.044,-10.864 6.984,-16.296 l -19.012,-9.7 c -15.908,37.636 -41.904,72.944 -67.9,95.836 3.492,6.984 9.312,22.504 11.252,29.1 5.432,-5.432 10.476,-11.252 15.908,-17.072 v 17.072 h 31.428 v 41.904 h -49.276 v 25.22 h 49.276 v 112.132 c -20.564,5.044 -39.188,9.7 -53.544,12.416 l 5.82,25.996 c 31.428,-8.148 74.108,-19.788 114.848,-31.04 l -1.552,-23.28 -44.232,10.864 v -107.088 h 44.62 v -25.22 h -44.62 v -41.904 h 33.756 v -25.22 h -79.928 c 12.416,-15.52 24.444,-33.756 35.308,-52.768 19.788,16.684 40.352,36.86 53.156,52.768 l 11.64,-23.28 c 4.656,5.044 10.476,14.356 13.192,20.952 40.74,-16.684 72.556,-38.8 96.612,-63.632 25.22,25.22 66.736,50.052 99.328,61.692 3.88,-6.208 10.864,-17.072 15.908,-22.504 -34.92,-10.476 -77.988,-32.592 -101.268,-55.484 1.94,-2.328 3.492,-4.656 5.432,-6.984 z m -135.024,281.3 c 5.82,-17.848 12.416,-46.172 18.624,-70.228 l -19.012,-6.984 c -3.104,20.952 -9.7,51.604 -14.744,70.616 z m -88.464,-67.512 c 5.432,22.504 10.864,52.38 12.416,71.78 l 17.46,-6.208 c -1.552,-19.012 -6.984,-48.112 -12.804,-71.004 z"
     style="font-weight:normal;font-family:'Noto Sans CJK TC';-inkscape-font-specification:'Noto Sans CJK TC'"
     id="path6557" /></g>
        </g>
        <g
   class="com.sun.star.drawing.TextShape"
   transform="translate(0,740.83)"
   id="g5306">
            <rect
   width="1396"
   height="777"
   x="2255"
   y="9966"
   fill="none"
   class="BoundingBox"
   id="rect5296" />
            <g
   aria-label="MOK"
   id="text5304"
   style="font-weight:500;font-family:Poppins;-inkscape-font-specification:'Poppins Medium'"
   class="TextShape"><path
     d="M 2810.192,10237.504 V 10506 h -35.308 v -200.208 l -89.24,200.208 h -24.832 l -89.628,-200.596 V 10506 h -35.308 v -268.496 h 38.024 l 99.328,221.936 99.328,-221.936 z"
     id="path6536" /><path
     d="m 2992.552,10508.716 q -37.636,0 -68.676,-17.46 -31.04,-17.848 -49.276,-49.276 -17.848,-31.816 -17.848,-71.392 0,-39.576 17.848,-71.004 18.236,-31.816 49.276,-49.276 31.04,-17.848 68.676,-17.848 38.024,0 69.064,17.848 31.04,17.46 48.888,48.888 17.848,31.428 17.848,71.392 0,39.964 -17.848,71.392 -17.848,31.428 -48.888,49.276 -31.04,17.46 -69.064,17.46 z m 0,-30.652 q 28.324,0 50.828,-13.192 22.892,-13.192 35.696,-37.636 13.192,-24.444 13.192,-56.648 0,-32.592 -13.192,-56.648 -12.804,-24.444 -35.308,-37.636 -22.504,-13.192 -51.216,-13.192 -28.712,0 -51.216,13.192 -22.504,13.192 -35.696,37.636 -12.804,24.056 -12.804,56.648 0,32.204 12.804,56.648 13.192,24.444 35.696,37.636 22.892,13.192 51.216,13.192 z"
     id="path6538" /><path
     d="m 3321.5758,10506 -111.356,-123.384 V 10506 h -35.308 v -270.436 h 35.308 v 125.324 l 111.744,-125.324 h 44.62 l -122.608,135.412 123.772,135.024 z"
     id="path6540" /></g>
        </g>
        
        <g
   class="com.sun.star.drawing.TextShape"
   transform="translate(0,740.83)"
   id="g5336">
            <rect
   width="1396"
   height="777"
   x="2256"
   y="14466"
   fill="none"
   class="BoundingBox"
   id="rect5326" />
            <g
   aria-label="MOK"
   id="text5334"
   style="font-weight:500;font-family:Poppins;-inkscape-font-specification:'Poppins Medium'"
   class="TextShape"><path
     d="M 2811.192,14737.504 V 15006 h -35.308 v -200.208 l -89.24,200.208 h -24.832 l -89.628,-200.596 V 15006 h -35.308 v -268.496 h 38.024 l 99.328,221.936 99.328,-221.936 z"
     id="path6529" /><path
     d="m 2993.552,15008.716 q -37.636,0 -68.676,-17.46 -31.04,-17.848 -49.276,-49.276 -17.848,-31.816 -17.848,-71.392 0,-39.576 17.848,-71.004 18.236,-31.816 49.276,-49.276 31.04,-17.848 68.676,-17.848 38.024,0 69.064,17.848 31.04,17.46 48.888,48.888 17.848,31.428 17.848,71.392 0,39.964 -17.848,71.392 -17.848,31.428 -48.888,49.276 -31.04,17.46 -69.064,17.46 z m 0,-30.652 q 28.324,0 50.828,-13.192 22.892,-13.192 35.696,-37.636 13.192,-24.444 13.192,-56.648 0,-32.592 -13.192,-56.648 -12.804,-24.444 -35.308,-37.636 -22.504,-13.192 -51.216,-13.192 -28.712,0 -51.216,13.192 -22.504,13.192 -35.696,37.636 -12.804,24.056 -12.804,56.648 0,32.204 12.804,56.648 13.192,24.444 35.696,37.636 22.892,13.192 51.216,13.192 z"
     id="path6531" /><path
     d="m 3322.5758,15006 -111.356,-123.384 V 15006 h -35.308 v -270.436 h 35.308 v 125.324 l 111.744,-125.324 h 44.62 l -122.608,135.412 123.772,135.024 z"
     id="path6533" /></g>
        </g>
        <rect
   width="4593.6699"
   height="3175"
   x="12710.08"
   y="5556.25"
   fill="#dedfe0"
   opacity="0.99"
   paint-order="stroke fill markers"
   id="rect5338" />
        <g
   aria-label="MOK 清單"
   id="text5342"
   style="font-weight:500;font-size:529.17px;line-height:1.25;font-family:Poppins;-inkscape-font-specification:'Poppins, Medium';letter-spacing:0;stroke-width:746.71"><path
     d="m 14328.782,6248.4042 v 366.1856 h -48.154 v -273.0517 l -121.709,273.0517 h -33.867 l -122.238,-273.5808 v 273.5808 h -48.155 v -366.1856 h 51.859 l 135.467,302.6852 135.468,-302.6852 z"
     style="text-align:center;text-anchor:middle;fill:#505050"
     id="path6372" /><path
     d="m 14577.492,6618.294 q -51.329,0 -93.663,-23.8126 -42.333,-24.3418 -67.204,-67.2046 -24.342,-43.3919 -24.342,-97.3673 0,-53.9753 24.342,-96.8381 24.871,-43.3919 67.204,-67.2046 42.334,-24.3418 93.663,-24.3418 51.859,0 94.193,24.3418 42.333,23.8127 66.675,66.6754 24.342,42.8628 24.342,97.3673 0,54.5045 -24.342,97.3673 -24.342,42.8628 -66.675,67.2046 -42.334,23.8126 -94.193,23.8126 z m 0,-41.8044 q 38.63,0 69.322,-17.9918 31.221,-17.9918 48.683,-51.3295 17.992,-33.3377 17.992,-77.2588 0,-44.4503 -17.992,-77.2588 -17.462,-33.3377 -48.154,-51.3295 -30.692,-17.9918 -69.851,-17.9918 -39.158,0 -69.85,17.9918 -30.692,17.9918 -48.684,51.3295 -17.462,32.8085 -17.462,77.2588 0,43.9211 17.462,77.2588 17.992,33.3377 48.684,51.3295 31.221,17.9918 69.85,17.9918 z"
     style="text-align:center;text-anchor:middle;fill:#505050"
     id="path6374" /><path
     d="m 15026.228,6614.5898 -151.872,-168.276 v 168.276 h -48.154 v -368.8314 h 48.154 v 170.9219 l 152.401,-170.9219 h 60.855 l -167.218,184.6803 168.805,184.1511 z"
     style="text-align:center;text-anchor:middle;fill:#505050"
     id="path6376" /><path
     d="m 15397.177,6239.9375 c -19.05,-16.4043 -56.092,-42.3336 -83.08,-59.7962 l -23.283,26.4585 c 27.517,19.5793 63.5,47.0961 83.079,63.5004 z m -26.459,131.7633 c -19.579,-13.7584 -59.267,-35.4544 -86.783,-50.2711 l -19.58,30.1627 c 28.575,15.8751 66.676,38.6294 86.255,53.4461 z m -62.442,274.6392 c 27.517,-48.6836 59.797,-115.359 84.138,-170.3927 l -28.575,-22.7543 c -25.929,60.3254 -61.913,129.6466 -87.313,170.9219 z m 170.922,-105.3048 c 1.059,-14.2876 1.588,-28.5752 1.588,-41.2752 h 187.855 v 41.2752 z m 189.443,-110.0673 v 41.2752 h -187.855 v -41.2752 z m 39.688,-29.6336 h -266.173 v 96.309 c 0,41.2752 -2.646,93.6631 -31.75,133.3508 8.467,4.7625 23.813,19.5793 29.634,28.046 19.579,-25.4001 30.162,-57.1503 34.925,-89.4297 h 193.676 v 41.8044 c 0,6.3501 -2.117,8.4667 -9.525,8.9959 -6.879,0 -31.75,0 -56.621,-0.5292 4.762,9.5251 10.054,23.8127 12.171,33.8669 36.512,0 59.796,0 74.084,-5.8208 14.816,-5.8209 19.579,-15.346 19.579,-35.9836 z m -114.83,-61.9128 v -39.1586 h 130.176 v -29.1044 h -130.176 v -35.4544 h 146.58 v -29.6335 h -146.58 v -34.396 h -38.629 v 34.396 h -146.581 v 29.6335 h 146.581 v 35.4544 h -133.351 v 29.1044 h 133.351 v 39.1586 h -163.514 v 30.1626 h 358.777 v -30.1626 z"
     style="font-weight:normal;font-family:'Noto Sans CJK TC';-inkscape-font-specification:'Noto Sans CJK TC';text-align:center;text-anchor:middle;fill:#505050;fill-opacity:1"
     id="path6378" /><path
     d="m 16197.811,6268.5127 h -102.13 v -49.742 h 102.13 z m 36.513,-76.2005 h -174.626 v 102.659 h 174.626 z m -254.002,76.2005 h -101.071 v -49.742 h 101.071 z m 37.042,-76.2005 h -173.568 v 102.659 h 173.568 z m -121.18,281.5184 v -45.5086 h 119.593 v 45.5086 z m 0,-120.6507 h 119.593 v 44.9794 h -119.593 z m 285.752,44.9794 h -125.943 v -44.9794 h 125.943 z m 0,75.6713 h -125.943 v -45.5086 h 125.943 z m 88.9,71.9671 h -214.843 v -40.2169 h 166.16 v -184.1511 h -364.069 v 184.1511 h 157.693 v 40.2169 h -210.61 v 34.3961 h 210.61 v 74.613 h 40.216 v -74.613 h 214.843 z"
     style="font-weight:normal;font-family:'Noto Sans CJK TC';-inkscape-font-specification:'Noto Sans CJK TC';text-align:center;text-anchor:middle;fill:#505050;fill-opacity:1"
     id="path6380" /></g>
        <g
   stroke="#30ba78"
   stroke-width="4.32"
   transform="matrix(32.1597,0,0,32.1597,11683.57,-989.12)"
   id="g5348">
            <rect
   width="30"
   height="20"
   x="161.21001"
   y="195.27"
   fill="#30ba78"
   class="st0"
   id="rect5344" />
            <path
   fill="none"
   d="m 176.21,179.14 a 6.2,6.2 0 0 0 -6.2,6.2 v 9.31 h 12.41 v -9.3 a 6.2,6.2 0 0 0 -6.2,-6.21 z"
   class="st0"
   id="path5346" />
        </g>
        <path
   fill="none"
   stroke="#30ba78"
   stroke-linejoin="miter"
   stroke-width="148.71"
   d="m 14087.01,8027.85 141.05,-110.77 m -379.75,-197.8 379.15,482.8 197.83,-154.84 m -558.42,-590.21 a 172.08,171.17 51.86 0 1 -28.34,241.06 172.08,171.17 51.86 0 1 -240.9,-29.62 172.08,171.17 51.86 0 1 28.34,-241.06 172.08,171.17 51.86 0 1 240.9,29.62 z m 1225.56,570.82 141.05,-110.77 m -379.76,-197.8 379.16,482.8 197.83,-154.84 m -558.42,-590.21 a 172.08,171.17 51.86 0 1 -28.34,241.06 172.08,171.17 51.86 0 1 -240.9,-29.62 172.08,171.17 51.86 0 1 28.34,-241.06 172.08,171.17 51.86 0 1 240.9,29.62 z m 1225.56,570.82 141.05,-110.77 m -379.76,-197.8 379.16,482.8 197.82,-154.84 m -558.41,-590.21 a 172.08,171.17 51.86 0 1 -28.34,241.06 172.08,171.17 51.86 0 1 -240.9,-29.62 172.08,171.17 51.86 0 1 28.34,-241.06 172.08,171.17 51.86 0 1 240.9,29.62 z"
   opacity="0.99"
   id="path5350" />
        <path
   fill="none"
   stroke="#505050"
   stroke-linejoin="miter"
   stroke-width="95.25"
   marker-end="url(#marker88387772776)"
   marker-start="url(#a)"
   d="m 8995.83,7143.75 h 3439.59"
   id="path5352" />
        <path
   fill="none"
   stroke="#505050"
   stroke-linejoin="miter"
   stroke-width="63.5"
   marker-end="url(#b)"
   d="M 19314.58,5556.25 H 18256.25"
   id="path5354" />
        <g
   transform="translate(-2910.42)"
   id="g5368">
            <rect
   width="3175"
   height="1852.08"
   x="8466.6699"
   y="15610.42"
   fill="#dedfe0"
   opacity="0.99"
   paint-order="stroke fill markers"
   id="rect5356" />
            <g
   aria-label="核心"
   id="text5360"
   style="font-weight:500;font-size:493.89px;line-height:1.25;font-family:Poppins;-inkscape-font-specification:'Poppins, Medium';letter-spacing:0;stroke-width:26.46"><path
     d="m 9906.5007,16446.319 c -7.4084,15.311 -17.7801,31.115 -29.1395,45.932 l -83.9613,4.939 c 17.78,-27.164 41.4867,-64.7 58.279,-92.358 h 139.277 v -34.078 h -110.6314 l 4.9389,-1.976 c -3.9511,-18.274 -16.2984,-46.425 -28.6456,-67.169 l -34.0784,10.372 c 9.8778,18.274 19.2617,40.993 24.6945,58.773 h -128.9053 v 34.078 h 93.8391 c -16.7923,28.646 -44.4501,73.096 -53.834,82.974 -8.3962,8.89 -22.2251,12.347 -31.609,14.323 2.9633,7.902 8.89,26.176 9.8778,34.572 9.3839,-2.963 23.7067,-5.927 112.113,-11.854 -36.5478,37.042 -82.4796,70.133 -131.8686,92.852 6.9145,6.914 16.7923,19.755 20.7434,27.658 86.9246,-41.487 161.502,-111.619 203.4827,-186.691 z m -197.556,93.345 c -8.3962,-13.829 -44.4501,-69.144 -57.7852,-87.418 v -19.262 h 55.8096 v -34.572 h -55.8096 v -94.827 h -35.0662 v 94.827 h -65.6873 v 34.572 h 63.2179 c -14.8167,67.169 -45.4379,145.204 -76.0591,186.196 6.9145,8.891 15.8045,24.695 19.2617,35.561 22.2251,-31.609 43.4624,-82.48 59.2668,-135.82 v 235.585 h 35.0662 v -257.316 c 13.3351,24.2 28.6457,52.846 35.5601,68.156 z m 233.6099,-5.433 c -41.9806,82.974 -135.8197,153.6 -250.4022,190.642 6.9145,7.408 17.2862,21.731 21.7312,30.127 61.7362,-21.237 117.0519,-51.364 162.9837,-88.406 32.5967,27.164 70.1324,61.242 88.9002,82.973 l 28.1517,-24.2 c -19.7556,-22.225 -58.7729,-54.822 -91.3696,-80.998 31.115,-29.14 57.2912,-61.242 77.5407,-96.803 z"
     style="font-weight:normal;font-family:'Noto Sans CJK TC';-inkscape-font-specification:'Noto Sans CJK TC';text-align:center;text-anchor:middle;fill:#505050"
     id="path6524" /><path
     d="m 10183.573,16345.072 c 46.426,33.09 103.717,81.491 130.881,112.113 l 26.176,-27.164 c -28.152,-31.115 -86.925,-77.541 -132.856,-109.15 z m 204.964,132.856 c 27.658,57.785 54.328,135.326 64.206,186.196 l 36.054,-14.322 c -10.372,-50.871 -37.536,-126.436 -66.181,-185.209 z m -306.705,-0.494 c -6.915,57.785 -23.213,134.832 -44.45,185.209 l 36.547,15.31 c 20.25,-52.352 35.56,-135.819 43.463,-193.604 z m 78.528,-37.042 v 242.994 c 0,48.895 14.817,62.23 68.157,62.23 h 99.272 c 54.822,0 66.181,-27.164 71.614,-120.509 -10.372,-2.963 -25.682,-9.384 -34.572,-16.298 -3.952,84.949 -8.397,102.235 -39.018,102.235 h -94.333 c -28.151,0 -34.078,-4.445 -34.078,-27.164 v -243.488 z"
     style="font-weight:normal;font-family:'Noto Sans CJK TC';-inkscape-font-specification:'Noto Sans CJK TC';text-align:center;text-anchor:middle;fill:#505050"
     id="path6526" /></g>
            <g
   stroke="#30ba78"
   stroke-width="4.32"
   transform="matrix(32.1597,0,0,32.1597,2846.48,8951)"
   id="g5366">
                <rect
   width="30"
   height="20"
   x="161.21001"
   y="195.27"
   fill="#30ba78"
   class="st0"
   id="rect5362" />
                <path
   fill="none"
   d="m 176.21,179.14 a 6.2,6.2 0 0 0 -6.2,6.2 v 9.31 h 12.41 v -9.3 a 6.2,6.2 0 0 0 -6.2,-6.21 z"
   class="st0"
   id="path5364" />
            </g>
        </g>
        <g
   transform="translate(-2910.42,-4497.92)"
   id="g5382">
            <rect
   width="3175"
   height="1852.08"
   x="8466.6699"
   y="15610.42"
   fill="#dedfe0"
   opacity="0.99"
   paint-order="stroke fill markers"
   id="rect5370" />
            <g
   aria-label="GRUB2"
   id="text5374"
   style="font-weight:500;font-size:493.89px;line-height:1.25;font-family:Poppins;-inkscape-font-specification:'Poppins, Medium';letter-spacing:0;stroke-width:26.46"><path
     d="m 9538.3035,16472.495 q -14.3229,-30.127 -41.4868,-46.426 -27.164,-16.792 -63.2179,-16.792 -36.054,0 -65.1935,16.792 -28.6456,16.299 -45.4379,47.414 -16.2984,30.621 -16.2984,71.12 0,40.499 16.2984,71.12 16.7923,30.621 45.4379,47.414 29.1395,16.298 65.1935,16.298 50.3768,0 82.9735,-30.127 32.5967,-30.128 38.0295,-81.492 h -137.3014 v -36.548 h 185.2088 v 34.572 q -3.9512,42.475 -26.6701,78.035 -22.7189,35.066 -59.7607,55.81 -37.0417,20.249 -82.4796,20.249 -47.9074,0 -87.4186,-22.225 -39.5112,-22.719 -62.724,-62.724 -22.7189,-40.005 -22.7189,-90.382 0,-50.377 22.7189,-90.382 23.2128,-40.499 62.724,-62.724 39.5112,-22.719 87.4186,-22.719 54.8218,0 96.8024,27.164 42.4746,27.164 61.7363,76.553 z"
     style="fill:#505050"
     id="path6361" /><path
     d="m 9843.0335,16716.971 -81.9857,-140.759 h -54.3279 v 140.759 h -44.944 v -344.242 h 111.1253 q 39.0173,0 65.6873,13.335 27.164,13.335 40.499,36.054 13.335,22.719 13.335,51.859 0,35.56 -20.7433,62.724 -20.2495,27.164 -61.2424,36.054 l 86.4307,144.216 z m -136.3136,-176.813 h 66.1813 q 36.5478,0 54.8217,-17.78 18.274,-18.274 18.274,-48.401 0,-30.621 -18.274,-47.414 -17.78,-16.792 -54.8217,-16.792 h -66.1813 z"
     style="fill:#505050"
     id="path6363" /><path
     d="m 10006.017,16372.729 v 217.806 q 0,45.932 22.225,68.157 22.719,22.225 62.724,22.225 39.511,0 61.736,-22.225 22.719,-22.225 22.719,-68.157 v -217.806 h 44.944 v 217.312 q 0,42.968 -17.286,72.602 -17.286,29.139 -46.919,43.462 -29.14,14.323 -65.688,14.323 -36.548,0 -66.181,-14.323 -29.1395,-14.323 -46.4256,-43.462 -16.7923,-29.634 -16.7923,-72.602 v -217.312 z"
     style="fill:#505050"
     id="path6365" /><path
     d="m 10467.804,16539.664 q 18.768,2.964 34.078,15.311 15.805,12.347 24.695,30.621 9.384,18.274 9.384,39.017 0,26.176 -13.335,47.414 -13.335,20.743 -39.018,33.09 -25.188,11.854 -59.76,11.854 h -128.412 v -344.242 h 123.473 q 35.066,0 59.761,11.854 24.694,11.359 37.041,31.115 12.348,19.755 12.348,44.45 0,30.621 -16.793,50.871 -16.298,19.755 -43.462,28.645 z m -127.424,-18.274 h 75.565 q 31.609,0 48.896,-14.816 17.286,-14.817 17.286,-40.993 0,-26.176 -17.286,-40.993 -17.287,-14.817 -49.883,-14.817 h -74.578 z m 79.517,158.539 q 33.584,0 52.352,-15.805 18.768,-15.804 18.768,-43.956 0,-28.645 -19.756,-44.944 -19.755,-16.792 -52.846,-16.792 h -78.035 v 121.497 z"
     style="fill:#505050"
     id="path6367" /><path
     d="m 10585.35,16680.917 q 62.724,-50.377 98.284,-82.48 35.56,-32.597 59.761,-67.663 24.695,-35.56 24.695,-69.638 0,-32.103 -15.805,-50.377 -15.311,-18.768 -49.883,-18.768 -33.584,0 -52.352,21.237 -18.274,20.744 -19.756,55.81 h -43.462 q 1.975,-55.316 33.584,-85.443 31.609,-30.127 81.492,-30.127 50.871,0 80.504,28.151 30.128,28.152 30.128,77.541 0,40.993 -24.695,80.01 -24.2,38.524 -55.316,68.157 -31.115,29.14 -79.516,68.157 h 169.898 v 37.536 h -237.561 z"
     style="fill:#505050"
     id="path6369" /></g>
            <g
   stroke="#30ba78"
   stroke-width="4.32"
   transform="matrix(32.1597,0,0,32.1597,2846.48,8951)"
   id="g5380">
                <rect
   width="30"
   height="20"
   x="161.21001"
   y="195.27"
   fill="#30ba78"
   class="st0"
   id="rect5376" />
                <path
   fill="none"
   d="m 176.21,179.14 a 6.2,6.2 0 0 0 -6.2,6.2 v 9.31 h 12.41 v -9.3 a 6.2,6.2 0 0 0 -6.2,-6.21 z"
   class="st0"
   id="path5378" />
            </g>
        </g>
        <g
   transform="translate(-2910.42,-10107.08)"
   id="g5396">
            <rect
   width="3175"
   height="3175"
   x="8466.6699"
   y="15610.42"
   fill="#dedfe0"
   opacity="0.99"
   paint-order="stroke fill markers"
   id="rect5384" />
            <g
   aria-label="Shim"
   id="text5388"
   style="font-weight:500;font-size:493.89px;line-height:1.25;font-family:Poppins;-inkscape-font-specification:'Poppins, Medium';letter-spacing:0;stroke-width:26.46"><path
     d="m 9573.1197,16720.428 q -34.0785,0 -61.2424,-11.853 -26.6701,-12.348 -41.9807,-33.585 -15.3105,-21.731 -15.8044,-49.883 h 47.9073 q 2.4694,24.201 19.7556,40.993 17.78,16.298 51.3646,16.298 32.1028,0 50.3767,-15.804 18.7679,-16.298 18.7679,-41.487 0,-19.755 -10.8656,-32.103 -10.8656,-12.347 -27.164,-18.768 -16.2983,-6.42 -43.9562,-13.828 -34.0784,-8.89 -54.8218,-17.78 -20.2495,-8.89 -35.0662,-27.658 -14.3228,-19.262 -14.3228,-51.365 0,-28.152 14.3228,-49.883 14.3228,-21.731 40.0051,-33.584 26.1762,-11.854 59.7607,-11.854 48.4012,0 79.0224,24.201 31.1151,24.201 35.0662,64.206 h -49.389 q -2.4694,-19.756 -20.7434,-34.573 -18.2739,-15.31 -48.4012,-15.31 -28.1517,0 -45.9318,14.816 -17.78,14.323 -17.78,40.499 0,18.768 10.3717,30.622 10.8656,11.853 26.1762,18.274 15.8044,5.926 43.9562,13.828 34.0784,9.384 54.8218,18.768 20.7433,8.89 35.56,28.152 14.8167,18.768 14.8167,51.365 0,25.188 -13.335,47.413 -13.335,22.225 -39.5112,36.054 -26.1762,13.829 -61.7362,13.829 z"
     style="fill:#505050"
     id="path6352" /><path
     d="m 9888.2214,16441.38 q 30.6212,0 55.3157,13.335 24.6945,12.841 38.5234,39.017 14.3228,26.177 14.3228,63.712 v 159.527 h -44.4501 v -153.106 q 0,-40.499 -20.2494,-61.736 -20.2495,-21.732 -55.3157,-21.732 -35.5601,0 -56.7974,22.225 -20.7434,22.225 -20.7434,64.7 v 149.649 h -44.9439 v -365.479 h 44.9439 v 133.35 q 13.3351,-20.743 36.5479,-32.102 23.7067,-11.36 52.8462,-11.36 z"
     style="fill:#505050"
     id="path6354" /><path
     d="m 10093.185,16402.363 q -12.841,0 -21.731,-8.89 -8.89,-8.89 -8.89,-21.731 0,-12.842 8.89,-21.732 8.89,-8.89 21.731,-8.89 12.348,0 20.744,8.89 8.89,8.89 8.89,21.732 0,12.841 -8.89,21.731 -8.396,8.89 -20.744,8.89 z m 21.732,43.956 v 270.652 h -44.944 v -270.652 z"
     style="fill:#505050"
     id="path6356" /><path
     d="m 10516.943,16441.38 q 31.609,0 56.304,13.335 24.694,12.841 39.017,39.017 14.323,26.177 14.323,63.712 v 159.527 h -44.45 v -153.106 q 0,-40.499 -20.25,-61.736 -19.755,-21.732 -53.834,-21.732 -35.066,0 -55.809,22.719 -20.744,22.225 -20.744,64.7 v 149.155 h -44.45 v -153.106 q 0,-40.499 -20.249,-61.736 -19.756,-21.732 -53.834,-21.732 -35.067,0 -55.81,22.719 -20.743,22.225 -20.743,64.7 v 149.155 h -44.944 v -270.652 h 44.944 v 39.017 q 13.335,-21.237 35.56,-32.596 22.719,-11.36 49.883,-11.36 34.078,0 60.254,15.311 26.176,15.31 39.018,44.944 11.359,-28.646 37.535,-44.45 26.176,-15.805 58.279,-15.805 z"
     style="fill:#505050"
     id="path6358" /></g>
            <g
   stroke="#30ba78"
   stroke-width="4.32"
   transform="matrix(32.1597,0,0,32.1597,2846.48,8951)"
   id="g5394">
                <rect
   width="30"
   height="20"
   x="161.21001"
   y="195.27"
   fill="#30ba78"
   class="st0"
   id="rect5390" />
                <path
   fill="none"
   d="m 176.21,179.14 a 6.2,6.2 0 0 0 -6.2,6.2 v 9.31 h 12.41 v -9.3 a 6.2,6.2 0 0 0 -6.2,-6.21 z"
   class="st0"
   id="path5392" />
            </g>
        </g>
        <g
   transform="translate(-2910.42,-14552.08)"
   id="g5410">
            <rect
   width="3175"
   height="1852.08"
   x="8466.6699"
   y="15610.42"
   fill="#dedfe0"
   opacity="0.99"
   paint-order="stroke fill markers"
   id="rect5398" />
            <g
   aria-label="KEK 資料庫"
   id="text5402"
   style="font-weight:500;font-size:493.89px;line-height:1.25;font-family:Poppins;-inkscape-font-specification:'Poppins, Medium';letter-spacing:0;stroke-width:26.46"><path
     d="m 9046.0335,16716.971 -141.7464,-157.057 v 157.057 h -44.944 v -344.242 h 44.944 v 159.527 l 142.2403,-159.527 h 56.7974 l -156.0693,172.368 157.5509,171.874 z"
     style="text-align:center;text-anchor:middle;fill:#505050"
     id="path6511" /><path
     d="m 9200.1277,16409.277 v 115.077 h 125.448 v 37.041 h -125.448 v 118.534 h 140.2647 v 37.042 h -185.2087 v -344.736 h 185.2087 v 37.042 z"
     style="text-align:center;text-anchor:middle;fill:#505050"
     id="path6513" /><path
     d="m 9595.2399,16716.971 -141.7464,-157.057 v 157.057 h -44.944 v -344.242 h 44.944 v 159.527 l 142.2403,-159.527 h 56.7974 l -156.0693,172.368 157.551,171.874 z"
     style="text-align:center;text-anchor:middle;fill:#505050"
     id="path6515" /><path
     d="m 10093.576,16365.815 v 4.939 c 0,25.682 -11.854,59.267 -139.7714,76.553 6.4206,5.926 15.8045,19.261 19.7556,27.164 86.9248,-13.335 125.9418,-36.054 142.2408,-60.255 30.621,30.127 78.034,49.883 134.338,57.785 4.445,-8.89 13.829,-22.225 20.743,-29.139 -64.7,-5.433 -118.534,-24.695 -144.71,-54.328 0.988,-5.927 1.482,-11.36 1.482,-16.299 v -6.42 h 78.528 c -6.914,14.323 -15.804,28.646 -23.212,39.017 l 29.139,10.372 c 13.335,-17.286 29.14,-45.932 41.487,-71.12 l -24.695,-8.396 -5.926,1.481 h -165.453 c 3.457,-8.89 7.408,-17.78 10.371,-27.164 l -33.09,-7.408 c -10.866,36.054 -31.115,70.626 -56.7978,93.839 7.9023,3.951 21.7312,13.335 27.6578,18.768 13.335,-13.335 26.176,-30.621 37.042,-49.389 z m -169.4048,251.39 h 247.4388 v 34.572 h -247.4388 z m 0,-57.291 h 247.4388 v 33.584 h -247.4388 z m 0,-57.292 h 247.4388 v 33.585 h -247.4388 z m -35.56,173.356 h 319.5468 v -198.05 h -319.5468 z m 64.2057,-342.76 h -118.0398 v 28.646 h 118.0398 z m 12.3472,76.553 h -141.2525 v 29.634 h 141.2525 z m 5.9267,269.664 c -35.0662,19.262 -94.333,37.042 -144.7098,47.414 8.3961,6.42 20.7434,20.249 27.164,27.657 48.8951,-13.335 111.1252,-36.548 150.636,-60.254 z m 120.5092,19.262 c 53.34,17.78 106.68,39.017 138.289,54.822 l 32.103,-21.238 c -34.572,-15.804 -92.357,-37.041 -145.204,-53.34 z"
     style="font-weight:normal;font-family:'Noto Sans CJK TC';-inkscape-font-specification:'Noto Sans CJK TC';text-align:center;text-anchor:middle;fill:#505050;fill-opacity:1"
     id="path6517" /><path
     d="m 10643.275,16398.906 c -15.804,-18.274 -49.883,-43.463 -77.541,-60.255 l -18.768,24.694 c 28.152,18.274 61.737,44.944 77.541,63.712 z m -21.731,118.039 c -17.286,-17.286 -53.34,-40.005 -82.48,-55.315 l -17.286,25.682 c 29.14,16.298 64.7,41.487 81.492,59.267 z m -142.24,-183.233 c -7.409,33.091 -21.238,81.492 -33.091,110.631 l 24.201,7.903 c 13.335,-27.658 28.645,-73.59 40.499,-110.632 z m -102.73,110.138 c -3.457,-29.634 -14.816,-74.084 -29.139,-108.162 l -26.67,6.42 c 12.841,34.572 24.2,80.01 27.164,109.15 z m -16.792,87.912 c -8.396,43.956 -28.645,98.778 -49.389,127.424 6.915,10.865 15.311,28.151 19.262,40.499 25.682,-35.561 46.426,-104.705 56.797,-159.527 z m 151.131,-28.646 v -34.572 h -80.505 v -164.465 h -34.078 v 164.465 h -79.022 v 34.572 h 79.022 V 16755 h 34.078 v -251.884 z m -78.035,43.463 c 10.372,21.237 37.536,84.455 46.426,111.125 l 26.176,-27.164 c -7.409,-16.792 -42.969,-83.961 -52.353,-98.284 z m 334.363,57.785 -5.432,-33.585 -58.279,10.372 v -277.072 h -34.573 v 283.493 l -159.032,28.151 5.926,34.573 153.106,-28.152 v 132.362 h 34.573 v -138.783 z"
     style="font-weight:normal;font-family:'Noto Sans CJK TC';-inkscape-font-specification:'Noto Sans CJK TC';text-align:center;text-anchor:middle;fill:#505050;fill-opacity:1"
     id="path6519" /><path
     d="m 11252.735,16379.15 v -32.103 h -172.861 c -6.915,-13.829 -16.792,-30.621 -27.164,-43.462 l -34.079,9.878 c 7.409,10.371 14.323,21.731 20.25,33.584 h -193.111 v 153.6 c 0,70.132 -3.457,166.441 -41.981,234.104 7.409,3.457 22.719,14.323 29.14,21.237 41.487,-72.108 47.907,-179.776 47.907,-255.341 v -121.497 z m -293.864,226.695 v -38.029 h 91.369 v 38.029 z m 0,-99.271 h 91.369 v 37.041 h -91.369 z m 222.25,0 v 37.041 h -95.814 v -37.041 z m 0,99.271 h -95.814 v -38.029 h 95.814 z m 75.072,59.267 h -170.886 v -34.572 h 129.893 v -148.661 h -129.893 v -32.103 h 155.575 v -29.139 h -155.575 v -31.115 h -35.067 v 31.115 H 10908 v 29.139 h 142.24 v 32.103 h -123.966 v 148.661 h 123.966 v 34.572 h -162.983 v 30.621 h 162.983 v 56.798 h 35.067 v -56.798 h 170.886 z"
     style="font-weight:normal;font-family:'Noto Sans CJK TC';-inkscape-font-specification:'Noto Sans CJK TC';text-align:center;text-anchor:middle;fill:#505050;fill-opacity:1"
     id="path6521" /></g>
            <g
   stroke="#30ba78"
   stroke-width="4.32"
   transform="matrix(32.1597,0,0,32.1597,2846.48,8951)"
   id="g5408">
                <rect
   width="30"
   height="20"
   x="161.21001"
   y="195.27"
   fill="#30ba78"
   class="st0"
   id="rect5404" />
                <path
   fill="none"
   d="m 176.21,179.14 a 6.2,6.2 0 0 0 -6.2,6.2 v 9.31 h 12.41 v -9.3 a 6.2,6.2 0 0 0 -6.2,-6.21 z"
   class="st0"
   id="path5406" />
            </g>
        </g>
        <path
   fill="none"
   stroke="#505050"
   stroke-linejoin="miter"
   stroke-width="95.25"
   marker-end="url(#c)"
   d="m 7143.75,3069.17 v 2222.5"
   id="path5412" />
        <path
   fill="none"
   stroke="#505050"
   stroke-linejoin="miter"
   stroke-width="95.25"
   marker-end="url(#d)"
   d="m 7143.75,8995.83 v 1852.09"
   id="path5414" />
        <path
   fill="none"
   stroke="#505050"
   stroke-linejoin="miter"
   stroke-width="95.25"
   marker-end="url(#e)"
   d="m 7143.75,13229.17 v 2116.66"
   id="path5416" />
        <path
   fill="none"
   stroke="#505050"
   stroke-linejoin="miter"
   stroke-width="52.92"
   marker-end="url(#f)"
   d="M 3704.17,1058.33 H 4762.5"
   id="path5418" />
        <path
   fill="none"
   stroke="#505050"
   stroke-linejoin="miter"
   stroke-width="52.92"
   marker-end="url(#g)"
   d="M 3704.17,5291.67 H 4762.5"
   id="path5420" />
        <path
   fill="none"
   stroke="#505050"
   stroke-linejoin="miter"
   stroke-width="52.92"
   marker-end="url(#h)"
   d="M 3704.17,7408.33 H 6085.42"
   id="path5422" />
        <path
   fill="none"
   stroke="#505050"
   stroke-linejoin="miter"
   stroke-width="52.92"
   marker-end="url(#i)"
   d="M 3704.17,11112.5 H 4762.5"
   id="path5424" />
        <path
   fill="none"
   stroke="#505050"
   stroke-linejoin="miter"
   stroke-width="52.92"
   marker-end="url(#j)"
   d="M 3704.17,15610.42 H 4762.5"
   id="path5426" />
    </g>
    <path
   fill="none"
   stroke="#30ba78"
   stroke-linejoin="miter"
   stroke-width="181.03"
   d="m 7232.8433,7848.48 165.56,-142.33 m -472.53,-220.05 487.2,566.7 232.22,-199 m -711,-687.63 a 209.48,208.37 49.31 0 1 -21.44,294.69 209.48,208.37 49.31 0 1 -294.58,-23.01 209.48,208.37 49.31 0 1 21.45,-294.7 209.48,208.37 49.31 0 1 294.57,23.02 z"
   opacity="0.99"
   id="path5430" />
<g
   aria-label="開機"
   id="text5894"
   style="font-size:388.056px;font-family:'Noto Sans CJK TC';-inkscape-font-specification:'Noto Sans CJK TC';text-align:center;text-anchor:middle;fill:#505050;stroke-width:28.222;stop-color:#000000"><path
     d="m 19604.467,5092.6531 v 31.4326 h -84.985 v -31.4326 z m -84.985,85.3723 v -33.3728 h 84.985 v 33.3728 z m 112.149,22.1192 v -129.6107 h -140.477 v 337.9968 h 28.328 v -208.3861 z m -10.866,90.029 v -41.91 h 54.328 v 41.91 z m 132.715,24.4476 v -24.4476 h -52.775 v -41.91 h 44.238 v -23.6714 h -191.312 v 23.6714 h 41.91 v 41.91 h -49.283 v 24.4476 h 48.507 c -2.328,22.5072 -13.194,54.7158 -45.79,74.5067 6.209,3.8806 14.746,12.0297 19.014,17.0745 37.254,-25.2237 49.672,-65.5815 52,-91.5812 h 55.104 v 86.5364 h 25.612 v -86.5364 z m -60.149,-136.2077 v -33.7609 h 88.089 v 33.7609 z m 88.089,-85.7604 v 31.4326 h -88.089 v -31.4326 z m 28.328,-22.1192 h -143.969 v 129.9988 h 115.641 v 169.9685 c 0,6.2089 -1.94,8.5372 -8.149,8.5372 -5.821,0.3881 -26.776,0.3881 -48.119,-0.388 4.269,7.7611 8.537,21.3431 9.313,28.7161 29.105,0.3881 48.507,-0.388 60.149,-5.0447 11.254,-5.0447 15.134,-14.3581 15.134,-31.4325 z"
     style="text-align:start;text-anchor:start;fill:#000000"
     id="path6383" /><path
     d="m 20209.446,5218.3833 c -3.881,-14.3581 -13.194,-39.1937 -21.731,-57.4323 l -17.463,5.0447 c 3.105,7.3731 6.209,15.5222 9.314,23.2834 l -38.806,5.4327 c 19.791,-24.4475 39.97,-55.1039 56.656,-86.9245 l -22.119,-8.1492 c -3.881,8.9253 -8.537,18.2387 -13.582,26.7759 l -28.328,3.1044 c 12.03,-17.8505 24.059,-40.7458 33.761,-63.6411 l -21.731,-6.597 c -7.761,25.9998 -23.672,54.3278 -27.94,60.9248 -4.657,7.3731 -8.926,12.4178 -13.582,12.8058 2.716,6.2089 6.209,16.6865 7.373,21.7312 3.88,-1.9403 10.477,-3.8806 39.193,-7.7611 -10.089,16.6864 -19.014,29.4922 -23.283,34.5369 -7.373,9.3134 -13.194,15.9103 -19.403,17.0745 2.717,5.8208 6.209,17.8506 7.761,22.5073 4.657,-2.7164 13.97,-4.6567 70.239,-13.582 2.328,6.5969 3.88,12.8058 5.044,17.4625 z m -139.7,6.5969 c -3.105,-14.3581 -11.642,-38.8056 -19.791,-57.4323 l -18.239,5.0448 c 3.105,7.7611 6.209,15.9103 8.926,24.4475 l -37.642,5.0447 c 20.567,-24.0595 41.134,-54.7159 58.209,-85.7604 l -20.955,-8.1491 c -3.881,8.9252 -8.538,17.4625 -13.194,25.9997 l -30.657,3.1045 c 13.97,-19.4028 27.94,-45.0145 38.806,-70.2382 l -21.731,-6.985 c -9.702,29.1042 -27.164,58.9845 -32.597,66.7456 -5.045,8.1492 -9.701,13.194 -14.358,14.3581 2.328,5.4328 5.821,16.6864 6.597,21.3431 3.88,-1.9403 11.253,-3.8806 41.522,-8.1492 -10.866,16.6864 -20.955,30.2684 -24.836,34.9251 -7.761,9.7014 -14.358,16.2983 -19.791,17.4625 2.717,5.8208 5.821,17.0744 6.597,21.7311 5.433,-3.1044 14.358,-4.6567 69.85,-13.1939 1.553,6.2089 3.105,11.6417 4.269,16.2984 z m -105.163,14.7461 c -5.045,-9.3133 -26,-45.4025 -34.537,-58.9845 v -25.2236 h 30.656 v -27.1639 h -30.656 v -74.5068 h -25.224 v 74.5068 h -41.134 v 27.1639 h 38.806 c -9.314,50.8353 -27.94,110.2079 -46.567,141.6404 3.492,6.985 10.089,19.7909 12.418,27.9401 13.582,-23.6715 26.776,-61.7009 36.477,-101.6707 v 184.7146 h 25.224 v -192.0877 c 8.149,16.2984 16.686,34.537 20.567,45.0145 z m 198.684,41.134 c -8.149,17.4625 -20.179,34.1489 -34.537,48.895 -6.597,-14.7461 -11.641,-32.5967 -16.686,-53.1636 h 93.521 v -23.2834 h -32.208 l 10.089,-10.4775 c -8.925,-8.1492 -26.776,-20.1789 -40.358,-27.94 l -14.746,13.5819 c 11.254,6.985 25.224,16.6864 34.537,24.8356 h -55.492 c -9.701,-53.1637 -15.134,-120.6854 -17.074,-196.3563 h -24.836 c 2.328,74.1187 7.373,141.2524 16.687,196.3563 h -113.313 v 23.2834 h 29.492 v 5.4327 c 0,32.5968 -9.701,76.059 -55.103,109.4318 5.432,3.1045 15.134,12.0298 19.014,17.4626 34.149,-25.9998 50.448,-59.3726 57.044,-90.4171 15.135,12.8059 30.269,27.1639 39.194,36.4773 l 17.851,-17.4625 c -11.642,-12.0298 -34.925,-31.8206 -53.552,-46.1787 0.388,-3.1045 0.388,-6.2089 0.388,-8.9253 v -5.8208 h 63.253 c 6.209,27.1639 13.582,51.2234 22.507,71.0142 -20.567,16.2984 -45.402,29.8803 -72.178,40.3578 5.433,4.6567 12.418,13.1939 15.522,18.2387 24.836,-10.0895 47.731,-22.8953 67.91,-37.6415 15.91,24.0595 36.089,38.0295 61.313,39.5817 15.522,1.1642 27.552,-13.1939 34.925,-55.492 -5.045,-2.7164 -14.746,-9.3133 -19.403,-14.7461 -3.104,27.94 -8.149,42.6862 -16.298,41.9101 -15.522,-1.5523 -29.104,-10.8656 -40.358,-27.9401 19.791,-18.2386 35.701,-38.8056 47.731,-62.0889 z"
     style="text-align:start;text-anchor:start;fill:#000000"
     id="path6385" /></g><g
   aria-label="變數"
   id="text5894-6"
   style="font-size:388.056px;font-family:'Noto Sans CJK TC';-inkscape-font-specification:'Noto Sans CJK TC';text-align:center;text-anchor:middle;fill:#505050;stroke-width:28.222;stop-color:#000000"><path
     d="m 19823.718,5727.3709 c -2.328,-14.7462 -10.865,-38.8056 -19.403,-56.6562 l -18.238,4.2686 c 3.492,7.3731 6.985,15.9103 9.701,24.0595 l -46.566,5.4328 c 22.119,-21.7312 44.626,-49.2832 65.193,-77.9993 l -20.567,-8.9253 c -6.209,10.0895 -13.582,20.955 -21.343,30.2684 l -31.821,1.5522 c 13.97,-15.9103 28.328,-37.2534 39.582,-58.9845 l -21.343,-7.7611 c -10.866,24.8356 -29.88,50.4472 -35.313,57.0442 -5.433,6.2089 -10.478,10.4775 -15.522,11.6417 2.328,5.4328 5.82,15.9103 6.985,20.955 4.268,-1.9403 11.641,-3.4925 42.686,-6.2089 -10.866,13.1939 -20.567,23.6714 -25.224,27.94 -8.925,8.5373 -16.298,14.7462 -23.283,15.9103 2.716,5.4328 5.821,15.9103 6.985,20.567 5.821,-3.1044 15.91,-5.4328 84.984,-14.7461 1.94,6.2089 3.104,12.4178 3.881,17.0744 z m -1.164,62.0889 c -2.716,-14.7461 -8.537,-38.0295 -15.134,-55.88 l -17.075,4.6566 c 5.433,17.8506 11.642,41.134 13.97,56.2681 z m -42.686,3.8806 c -0.388,-14.3581 -3.493,-37.2534 -8.149,-54.3279 l -17.851,3.1045 c 4.269,17.4625 6.985,40.3578 6.985,55.1039 z m -60.537,-54.7159 c -2.328,18.6267 -5.433,38.8056 -10.865,54.7159 4.656,2.3283 13.582,7.373 17.462,10.0894 5.045,-15.5222 10.09,-39.5817 13.194,-59.7606 z m -10.477,-122.2377 h -43.463 c -3.492,-10.0894 -10.089,-24.4475 -17.074,-34.1489 l -21.731,6.985 c 5.045,8.5373 9.701,18.2387 13.194,27.1639 h -50.836 v 17.8506 h 119.91 z m -8.538,69.8501 h -103.222 v 17.8506 h 103.222 z m -82.267,54.7159 h 60.536 v 34.537 h -60.536 z m 80.327,51.9995 v -69.462 h -99.342 v 69.462 z m 2.329,-141.2524 h -103.611 v 17.0745 h 103.611 z m -110.596,76.059 c -2.717,-13.5819 -10.866,-36.8653 -19.403,-54.7159 l -17.463,4.6567 c 3.493,6.985 6.985,15.5222 9.702,23.6714 l -46.179,5.4328 c 22.895,-21.7311 46.567,-49.6712 67.134,-79.1634 l -20.955,-9.3134 c -5.821,10.0895 -13.582,20.567 -20.955,29.8803 l -31.045,1.5523 c 13.194,-16.2984 27.164,-37.6415 38.806,-59.3726 l -21.731,-7.7611 c -10.478,25.2236 -29.493,51.2234 -34.925,57.8203 -5.433,6.2089 -10.478,10.4775 -15.911,11.6417 2.717,5.4328 6.209,16.2983 7.373,20.955 4.269,-1.5522 11.642,-3.1044 41.91,-5.4328 -11.253,13.1939 -20.955,23.6714 -25.611,27.9401 -8.926,8.9253 -16.687,15.1341 -23.284,15.9103 2.329,5.8208 5.821,16.6864 6.985,20.955 5.821,-2.7164 15.911,-4.6567 83.432,-14.7461 1.553,5.8208 3.105,11.2536 3.881,15.5222 z m -4.269,57.4323 c -1.94,-12.8058 -7.761,-32.9848 -13.194,-48.1189 l -17.074,4.6566 c 5.044,15.5223 10.089,35.7012 12.029,48.8951 z m -39.97,9.3133 c -0.776,-14.358 -4.268,-36.8653 -8.537,-54.3278 l -17.851,3.8806 c 3.493,17.4625 6.985,39.9697 6.985,54.7159 z m -59.372,-53.9397 c -2.329,20.5669 -5.433,42.2981 -11.642,58.5964 4.657,2.3284 12.806,7.7611 16.686,10.0895 6.209,-17.0745 11.254,-42.2981 14.358,-64.8054 z m 239.042,98.5662 c -18.627,17.0744 -43.074,30.2684 -71.79,41.522 -32.209,-11.6417 -59.761,-25.2237 -80.328,-41.522 z m 86.925,0 v -22.5073 h -220.804 c 4.268,-5.8208 8.925,-11.6416 12.806,-17.8505 l -25.224,-7.7612 c -20.955,32.2087 -61.701,58.2084 -102.059,74.5068 5.045,4.6567 13.97,16.2983 17.075,21.3431 20.179,-8.9253 40.746,-20.567 59.372,-35.3131 18.627,15.5222 41.522,28.7161 66.746,39.5817 -45.015,12.8058 -97.014,20.1789 -148.626,24.4475 4.657,6.2089 10.866,17.8506 13.582,24.4475 58.597,-6.985 118.358,-17.0744 169.193,-34.925 48.507,16.6864 103.611,27.552 158.327,33.3728 3.104,-7.373 9.701,-17.4625 14.746,-23.6714 -47.731,-4.2686 -96.626,-11.6417 -139.312,-23.6714 28.716,-13.582 53.94,-30.6564 72.566,-51.9995 z"
     style="text-align:start;text-anchor:start;fill:#000000"
     id="path6388" /><path
     d="m 20007.657,5839.519 c -4.269,12.4178 -13.194,26.3878 -32.597,38.8056 -15.91,-6.5969 -32.597,-12.8058 -48.507,-17.8505 3.881,-5.4328 8.149,-11.2537 12.03,-17.4626 z m -103.999,-90.029 h 48.507 v 24.0595 h -48.507 z m 121.073,0 v 24.0595 h -49.671 V 5749.49 Z m -110.208,-55.88 v -23.2834 h 37.642 v 23.2834 z m 37.642,-63.2531 v 20.5669 h -37.642 v -20.5669 z m 63.253,0 v 20.5669 h -40.358 v -20.5669 z m -40.358,63.2531 v -23.2834 h 40.358 v 23.2834 z m 78.775,143.1926 0.389,-20.1789 -19.403,1.1642 v -1.9403 -15.1342 h -23.672 v 14.3581 3.8806 c -20.179,1.1641 -39.969,2.3283 -58.984,3.1044 6.209,-9.7014 11.641,-19.4028 16.298,-29.1042 h 81.88 v -63.2531 h -75.283 v -15.9103 h 65.97 v -41.9101 h 26.387 v -22.1191 h -26.387 v -39.5818 h -65.97 v -27.1639 h -22.895 v 27.1639 h -62.477 v 39.5818 h -26 v 22.1191 h 26 v 41.9101 h 62.477 v 15.9103 h -73.343 v 63.2531 h 63.253 c -5.432,10.0895 -11.641,20.1789 -17.462,30.6564 -23.672,0.7762 -45.403,1.9403 -62.865,2.3284 l 2.716,21.3431 45.791,-2.3284 c -6.597,9.3134 -13.582,17.8506 -19.791,25.6117 19.403,5.4328 39.97,12.8059 59.761,21.3431 -21.732,9.7014 -52.388,18.6267 -93.522,25.6117 4.269,5.0447 9.701,13.582 12.03,19.4028 48.895,-8.9253 83.82,-20.567 108.655,-33.3728 18.627,8.5372 35.314,17.4625 47.731,25.2236 l 19.015,-16.6864 c -11.642,-7.3731 -27.164,-15.1342 -44.626,-22.8953 21.343,-16.6864 29.88,-34.1489 33.372,-51.2234 z m 106.328,-153.6701 c -4.657,43.0742 -11.254,81.4917 -22.507,114.8645 -11.642,-34.5369 -20.179,-73.7306 -26,-114.8645 z m 52.387,0 v -25.9998 h -94.685 c 5.044,-21.7311 9.313,-44.6264 12.418,-67.1337 l -24.448,-3.8805 c -8.925,63.6412 -24.059,126.5062 -49.671,167.2521 5.821,3.8806 15.522,13.582 19.791,17.4625 7.761,-12.4178 14.358,-26.7758 20.567,-42.6861 6.985,37.6414 15.91,72.1784 28.328,102.4468 -16.687,36.4772 -39.97,65.5814 -72.955,87.3126 5.433,5.0447 13.582,16.2983 15.91,21.7311 30.269,-21.3431 52.776,-48.119 70.239,-79.9395 15.522,30.6564 35.701,55.88 60.924,73.3425 3.881,-6.985 11.642,-15.5222 17.463,-20.5669 -27.552,-17.4626 -48.507,-45.7906 -65.582,-80.7157 17.851,-41.522 27.941,-90.8051 35.314,-148.6254 z"
     style="text-align:start;text-anchor:start;fill:#000000"
     id="path6390" /></g></svg>
