<?xml version="1.0" encoding="UTF-8" standalone="no"?>
<!-- Created with Inkscape (http://www.inkscape.org/) -->

<svg
   xmlns:dc="http://purl.org/dc/elements/1.1/"
   xmlns:cc="http://creativecommons.org/ns#"
   xmlns:rdf="http://www.w3.org/1999/02/22-rdf-syntax-ns#"
   xmlns:svg="http://www.w3.org/2000/svg"
   xmlns="http://www.w3.org/2000/svg"
   xmlns:sodipodi="http://sodipodi.sourceforge.net/DTD/sodipodi-0.dtd"
   xmlns:inkscape="http://www.inkscape.org/namespaces/inkscape"
   version="1.2"
   width="900"
   height="200"
   id="svg2"
   inkscape:version="0.48.1 "
   sodipodi:docname="net_basic_tcppacket.svg">
  <sodipodi:namedview
     pagecolor="#ffffff"
     bordercolor="#666666"
     borderopacity="1"
     objecttolerance="10"
     gridtolerance="10"
     guidetolerance="10"
     inkscape:pageopacity="1"
     inkscape:pageshadow="2"
     inkscape:window-width="1920"
     inkscape:window-height="1033"
     id="namedview27"
     showgrid="true"
     inkscape:zoom="1.403607"
     inkscape:cx="497.05441"
     inkscape:cy="74.017495"
     inkscape:window-x="-4"
     inkscape:window-y="-4"
     inkscape:window-maximized="1"
     inkscape:current-layer="g3222">
    <inkscape:grid
       type="xygrid"
       id="grid3299"
       empspacing="5"
       visible="true"
       enabled="true"
       snapvisiblegridlinesonly="true" />
  </sodipodi:namedview>
  <defs
     id="defs4" />
  <metadata
     id="metadata7">
    <rdf:RDF>
      <cc:Work
         rdf:about="">
        <dc:format>image/svg+xml</dc:format>
        <dc:type
           rdf:resource="http://purl.org/dc/dcmitype/StillImage" />
        <dc:title />
      </cc:Work>
    </rdf:RDF>
  </metadata>
  <g
     transform="translate(601,-466.8125)"
     id="g3222">
    <rect
       width="860"
       height="160"
       rx="10"
       ry="10"
       x="-581"
       y="486.8125"
       id="rect4438"
       style="fill:#7ac142;fill-opacity:1;fill-rule:nonzero;stroke:none" />
    <rect
       width="130"
       height="160"
       x="-481"
       y="486.8125"
       id="rect6978-9-64-0-1-5-7"
       style="color:#000000;fill:#87cefa;fill-opacity:1;fill-rule:nonzero;stroke:#ffffff;stroke-width:0;stroke-miterlimit:4;stroke-opacity:1;stroke-dasharray:none;marker:none;visibility:visible;display:inline;overflow:visible;enable-background:accumulate" />
    <rect
       width="130.00003"
       height="160"
       ry="0"
       x="-351"
       y="486.8125"
       id="rect6978-9-64-0-1-5-7-5"
       style="color:#000000;fill:#f5deb3;fill-opacity:1;fill-rule:nonzero;stroke:#ffffff;stroke-width:0;stroke-miterlimit:4;stroke-opacity:1;stroke-dasharray:none;marker:none;visibility:visible;display:inline;overflow:visible;enable-background:accumulate" />
    <rect
       width="399.99982"
       height="160"
       x="-221"
       y="486.8125"
       id="rect6978-9-64-0-1-5-7-5-2"
       style="color:#000000;fill:#e6e6e6;fill-opacity:1;fill-rule:nonzero;stroke:#ffffff;stroke-width:0;stroke-miterlimit:4;stroke-opacity:1;stroke-dasharray:none;marker:none;visibility:visible;display:inline;overflow:visible;enable-background:accumulate" />
    <g
       style="font-size:40px;font-style:normal;font-weight:normal;line-height:125%;letter-spacing:0px;word-spacing:0px;fill:#000000;fill-opacity:1;stroke:none;font-family:Sans"
       id="text3094">
      <path
         d="m -571.85156,553.85937 c 0.93749,-0.46874 2.57812,-1.52343 4.92187,-3.16406 l 0.21094,0.21094 c -1.82813,1.59375 -3.09376,2.69532 -3.79687,3.30469 -0.70313,0.60937 -1.26563,1.21875 -1.6875,1.82812 l -1.05469,-1.26562 c 0.23437,-0.28125 0.35156,-0.67969 0.35156,-1.19532 l 0,-6.96093 c 0,-1.40624 -0.0234,-2.57811 -0.0703,-3.51563 l 1.75781,0.84375 -0.63281,0.5625 z m 2.8125,-9.77343 c 1.82811,1.26563 2.74218,2.16798 2.74219,2.70703 -10e-6,0.53907 -0.16408,0.98438 -0.49219,1.33594 -0.32814,0.35157 -0.59767,0.10547 -0.8086,-0.73829 -0.21094,-0.84373 -0.76172,-1.87498 -1.65234,-3.09375 z m 5.90625,-1.61719 1.75781,0.77344 -0.5625,0.49218 c -0.0469,2.67189 -0.12892,4.62892 -0.24609,5.8711 -0.1172,1.24219 -0.3633,2.35547 -0.73828,3.33984 1.07811,0.75001 1.89842,1.35938 2.46093,1.82813 0.56249,0.46875 0.84374,0.94922 0.84375,1.4414 -10e-6,0.49219 -0.12892,0.87891 -0.38672,1.16016 -0.25782,0.28125 -0.53907,0.0117 -0.84375,-0.80859 -0.3047,-0.82032 -1.04298,-1.91016 -2.21484,-3.26954 -0.89064,1.50001 -2.1211,2.63672 -3.69141,3.41016 -1.57032,0.77344 -3.38672,1.32422 -5.44921,1.65234 l -0.14063,-0.28125 c 1.3125,-0.28125 2.50781,-0.65625 3.58594,-1.125 1.07811,-0.46874 2.08593,-1.11328 3.02344,-1.93359 0.93748,-0.82031 1.62889,-1.93359 2.07421,-3.33984 0.4453,-1.40625 0.62108,-4.47656 0.52735,-9.21094 z"
         style="font-size:18px;font-variant:normal;font-stretch:normal;text-align:center;text-anchor:middle;font-family:SimSun;-inkscape-font-specification:SimSun"
         id="path3003" />
      <path
         d="m -550.82812,553.64844 c 1.45311,0.65625 2.39061,1.20703 2.8125,1.65234 0.42186,0.44531 0.46873,0.96094 0.14062,1.54688 -0.32813,0.58593 -0.65626,0.49218 -0.98437,-0.28125 -0.32814,-0.77344 -1.03126,-1.67578 -2.10938,-2.70704 z m 2.67187,-10.75782 -0.63281,0.5625 c -1e-5,1.12502 -0.0469,2.29689 -0.14063,3.51563 l 4.99219,0 1.125,-1.125 1.54688,1.54687 -6.82032,0 c 0.46874,1.96876 1.32421,3.8672 2.56641,5.69532 1.24217,1.82812 2.8242,3.04687 4.74609,3.65625 l 0,0.28125 c -0.93751,0 -1.54689,0.30468 -1.82812,0.91406 -0.93752,-0.75 -2.03908,-2.00391 -3.30469,-3.76172 -1.26564,-1.75781 -2.13282,-4.01952 -2.60156,-6.78516 l -0.49219,0 c -0.32813,2.67189 -1.11329,4.86329 -2.35547,6.57422 -1.24219,1.71094 -3.15235,3.19922 -5.73047,4.46485 l -0.21093,-0.21094 c 2.06249,-1.21875 3.67968,-2.63672 4.85156,-4.25391 1.17187,-1.61718 1.96874,-3.80858 2.39062,-6.57422 l -4.28906,0 c -0.60938,10e-6 -1.17188,0.0703 -1.6875,0.21094 l -0.63281,-0.63281 6.67969,0 c 0.0937,-2.24999 0.0937,-3.86717 0,-4.85156 z"
         style="font-size:18px;font-variant:normal;font-stretch:normal;text-align:center;text-anchor:middle;font-family:SimSun;-inkscape-font-specification:SimSun"
         id="path3005" />
      <path
         d="m -533.25,549.14844 c 0.65624,0.9375 1.07812,1.59375 1.26563,1.96875 0.18749,0.375 0.2578,0.76172 0.21093,1.16015 -0.0469,0.39845 -0.18751,0.70313 -0.42187,0.91407 -0.23439,0.21094 -0.4336,-0.0703 -0.59766,-0.84375 -0.16407,-0.77344 -0.4336,-1.51172 -0.80859,-2.21485 -0.70313,1.50001 -1.54688,2.85938 -2.53125,4.07813 l -0.21094,-0.14063 c 0.79687,-1.31249 1.52343,-2.90624 2.17969,-4.78125 -0.56251,-1.03124 -1.21876,-2.03905 -1.96875,-3.02344 l 0.21094,-0.14062 c 0.79687,0.79688 1.49999,1.57032 2.10937,2.32031 0.37499,-0.93749 0.67968,-1.99217 0.91406,-3.16406 l 1.33594,0.91406 -0.49219,0.42188 c -0.46875,1.03126 -0.86719,1.87501 -1.19531,2.53125 z m 5.20313,0.42187 c 0.84373,1.03126 1.37108,1.76954 1.58203,2.21485 0.21092,0.44531 0.29295,0.83203 0.24609,1.16015 -0.0469,0.32813 -0.18751,0.6211 -0.42187,0.87891 -0.23439,0.25781 -0.46877,-0.0234 -0.70313,-0.84375 -0.23439,-0.82031 -0.60939,-1.65234 -1.125,-2.4961 -0.93751,1.73438 -1.96876,3.1172 -3.09375,4.14844 l -0.14062,-0.21094 c 1.12499,-1.40624 2.01561,-2.97655 2.67187,-4.71093 -0.75001,-1.21874 -1.50001,-2.32031 -2.25,-3.30469 l 0.21094,-0.14063 c 0.93749,0.98439 1.73436,1.87501 2.39062,2.67188 0.46874,-1.21874 0.79687,-2.43749 0.98438,-3.65625 l 1.33594,0.91406 c -0.23439,0.18751 -0.49221,0.59767 -0.77344,1.23047 -0.28127,0.63282 -0.58595,1.34767 -0.91406,2.14453 z m 0.28125,7.17188 0,-0.28125 c 1.03123,0.0469 1.71092,0.0586 2.03906,0.0351 0.32811,-0.0234 0.46873,-0.33984 0.42187,-0.94922 l 0,-11.67187 -11.53125,0 0,13.71094 -1.05468,0.5625 c 0.0469,-1.82813 0.0703,-4.64062 0.0703,-8.4375 0,-3.79687 -0.0234,-6.11718 -0.0703,-6.96094 l 1.05468,0.70312 11.39063,0 0.49219,-0.77343 1.19531,0.84375 -0.5625,0.49218 0,12.30469 c 0.0469,0.79688 -0.44533,1.40625 -1.47656,1.82813 -0.0469,-0.65625 -0.70314,-1.125 -1.96875,-1.40625 z"
         style="font-size:18px;font-variant:normal;font-stretch:normal;text-align:center;text-anchor:middle;font-family:SimSun;-inkscape-font-specification:SimSun"
         id="path3007" />
      <path
         d="m -512.71875,549.71094 0,7.3125 c 1.07811,-0.9375 2.01561,-1.92188 2.8125,-2.95313 -0.84376,-1.03124 -1.50001,-2.48437 -1.96875,-4.35937 z m 1.82813,-2.74219 c 1.12498,0.23438 1.79295,0.28126 2.0039,0.14062 0.21093,-0.14061 0.33983,-0.51561 0.38672,-1.125 0.0469,-0.60936 0.0937,-1.3828 0.14063,-2.32031 l -4.35938,0 0,5.625 4.78125,0 0.63281,-0.63281 1.05469,1.05469 -0.70312,0.35156 c -0.65627,1.73438 -1.31252,3.07032 -1.96875,4.00781 1.35936,1.3125 2.71873,2.08594 4.07812,2.32031 l 0,0.21094 c -0.75002,0.1875 -1.19533,0.46875 -1.33594,0.84375 -1.17189,-0.70312 -2.25001,-1.61718 -3.23437,-2.74219 -0.98439,1.03126 -2.08595,1.94532 -3.30469,2.74219 l 0,0.49219 -1.05469,0.42187 c 0.0469,-1.64062 0.0703,-2.99999 0.0703,-4.07812 l 0,-8.29688 c -10e-6,-1.17186 -0.0235,-2.29686 -0.0703,-3.375 l 1.125,0.63282 4.21875,0 0.63282,-0.63282 0.98437,0.98438 -0.5625,0.35156 c -0.0469,0.65626 -0.0938,1.34767 -0.14062,2.07422 -0.0469,0.72657 -0.18752,1.26564 -0.42188,1.61719 -0.23439,0.35157 -0.65626,0.66798 -1.26562,0.94922 -0.23439,-0.60937 -0.79689,-1.05468 -1.6875,-1.33594 z m -0.63282,2.74219 c 0.51562,1.45313 1.1953,2.69531 2.03907,3.72656 0.65623,-1.07812 1.19529,-2.32031 1.61718,-3.72656 z m -9.77343,1.61718 c 0.28124,0.0469 1.38281,-0.30468 3.30468,-1.05468 l 0,-3.51563 -2.03906,0 -0.84375,0.14063 -0.5625,-0.5625 3.44531,0 c 0,-1.54687 -0.0234,-2.90624 -0.0703,-4.07813 l 1.61719,0.77344 -0.5625,0.49219 0,2.8125 0.91406,0 0.77344,-0.77344 1.19531,1.19531 -2.88281,0 0,3.23438 2.53125,-0.98438 0.14062,0.28125 -2.67187,1.40625 0,6.25781 c -0.0469,0.79688 -0.56251,1.35938 -1.54688,1.6875 0,-0.60937 -0.70313,-1.125 -2.10937,-1.54687 l 0,-0.35156 c 1.125,0.23437 1.85156,0.32812 2.17969,0.28125 0.32812,-0.0469 0.49218,-0.35156 0.49218,-0.91407 l 0,-4.99218 c -1.54687,0.75 -2.36719,1.24219 -2.46093,1.47656 z"
         style="font-size:18px;font-variant:normal;font-stretch:normal;text-align:center;text-anchor:middle;font-family:SimSun;-inkscape-font-specification:SimSun"
         id="path3009" />
      <path
         d="m -499.78125,543.45312 c 1.64062,0.51564 2.66015,0.96095 3.05859,1.33594 0.39843,0.37501 0.46875,0.8672 0.21094,1.47656 -0.25782,0.60939 -0.57422,0.57423 -0.94922,-0.10546 -0.375,-0.67968 -1.19532,-1.51171 -2.46093,-2.4961 z m -1.61719,3.375 c 1.78125,0.65626 2.82422,1.18361 3.12891,1.58204 0.30468,0.39844 0.32812,0.87891 0.0703,1.4414 -0.25782,0.56251 -0.58594,0.48048 -0.98437,-0.24609 -0.39845,-0.72656 -1.1836,-1.58202 -2.35547,-2.56641 z m 8.50782,-3.72656 -0.70313,0.49219 c -0.0469,1.54689 -0.0938,2.84767 -0.14062,3.90234 -0.0469,1.0547 -0.14064,2.35548 -0.28125,3.90235 l 4.14843,0 1.19532,-1.19532 1.61718,1.61719 -7.03125,0 c -0.0938,0.37501 -0.23438,0.79688 -0.42187,1.26563 2.39061,0.98438 4.12498,1.74609 5.20312,2.28515 1.07811,0.53907 1.59374,1.26563 1.54688,2.17969 -0.0469,0.91406 -0.48049,0.86719 -1.30078,-0.14062 -0.82033,-1.00782 -2.68361,-2.33203 -5.58985,-3.97266 -0.79688,1.54688 -1.92188,2.69531 -3.375,3.44531 -1.45313,0.75 -3.09375,1.33594 -4.92187,1.75781 l -0.0703,-0.28125 c 2.01562,-0.60937 3.70312,-1.40625 5.0625,-2.39062 1.35936,-0.98437 2.29686,-2.36718 2.8125,-4.14844 l -5.48438,0 c -0.60938,1e-5 -1.17188,0.0703 -1.6875,0.21094 l -0.63281,-0.63281 7.875,0 c 0.18749,-1.54687 0.29296,-3.22265 0.3164,-5.02735 0.0234,-1.80467 0.0352,-3.1992 0.0352,-4.18359 z"
         style="font-size:18px;font-variant:normal;font-stretch:normal;text-align:center;text-anchor:middle;font-family:SimSun;-inkscape-font-specification:SimSun"
         id="path3011" />
      <path
         d="m -566.19141,578.75 c 0.72655,0.5625 1.04296,0.89062 0.94922,0.98437 -0.0938,0.0937 -0.53907,-0.1289 -1.33593,-0.66796 -0.79689,-0.53907 -1.55861,-1.25391 -2.28516,-2.14454 -0.72657,-0.89062 -1.14845,-2.06249 -1.26563,-3.51562 -0.11719,-1.45312 0.17577,-2.7539 0.87891,-3.90234 0.70311,-1.14843 1.53514,-2.06249 2.49609,-2.74219 0.96093,-0.67968 1.45311,-0.96093 1.47657,-0.84375 0.0234,0.1172 -0.29299,0.44532 -0.94922,0.98437 -0.65627,0.53908 -1.3008,1.3008 -1.9336,2.28516 -0.63282,0.98438 -0.94923,2.25001 -0.94921,3.79687 -2e-5,1.54688 0.30467,2.75391 0.91406,3.6211 0.60936,0.86719 1.27733,1.58203 2.0039,2.14453 z"
         style="font-size:18px;font-variant:normal;font-stretch:normal;text-align:center;text-anchor:middle;font-family:SimSun;-inkscape-font-specification:SimSun"
         id="path3013" />
      <path
         d="m -557.36719,566.79687 0,10.6875 c 0,0.37501 0.11718,0.65626 0.35157,0.84375 0.23436,0.18751 0.56249,0.28126 0.98437,0.28125 l 0.70313,0 0,0.42188 -5.13282,0 0,-0.42188 0.63282,0 c 0.46874,10e-6 0.80859,-0.0937 1.01953,-0.28125 0.21093,-0.18749 0.3164,-0.46874 0.3164,-0.84375 l 0,-8.50781 c 0,-0.18749 -0.0586,-0.33983 -0.17578,-0.45703 -0.11719,-0.11718 -0.29297,-0.17577 -0.52734,-0.17578 l -1.26563,0 0,-0.42188 0.63282,0 c 0.56249,2e-5 1.01952,-0.0937 1.37109,-0.28125 0.35156,-0.18748 0.62109,-0.46873 0.80859,-0.84375 z"
         style="font-size:18px;font-variant:normal;font-stretch:normal;text-align:center;text-anchor:middle;font-family:SimSun;-inkscape-font-specification:SimSun"
         id="path3015" />
      <path
         d="m -547.03125,577.69531 c -10e-6,0.32813 0.0937,0.5625 0.28125,0.70313 0.18749,0.14062 0.44531,0.21094 0.77344,0.21093 l 0.63281,0 0,0.42188 -4.64062,0 0,-0.42188 0.77343,0 c 0.375,10e-6 0.64453,-0.0703 0.8086,-0.21093 0.16405,-0.14063 0.24608,-0.375 0.24609,-0.70313 l 0,-2.32031 -4.71094,0 0,-0.35156 5.13282,-8.15625 0.70312,0 0,8.08593 1.89844,0 0,0.42188 -1.89844,0 z m -1.19531,-9.07031 -4.00781,6.32812 4.07812,0 0,-6.32812 z"
         style="font-size:18px;font-variant:normal;font-stretch:normal;text-align:center;text-anchor:middle;font-family:SimSun;-inkscape-font-specification:SimSun"
         id="path3017" />
      <path
         d="m -526.92187,574.32031 c -10e-6,-0.42187 -0.0235,-1.05468 -0.0703,-1.89844 l 0.77344,0.49219 2.67188,-2.39062 -5.76563,0 c -0.60938,10e-6 -1.17188,0.0703 -1.6875,0.21093 l -0.63281,-0.63281 8.08594,0 0.77343,-0.77344 1.26563,1.33594 c -0.79689,0.0938 -2.27345,0.91407 -4.42969,2.46094 l 0.5625,0.35156 -0.5625,0.42188 0,0.42187 5.0625,0 1.125,-0.98437 1.40625,1.40625 -7.59375,0 0,4.5 c 0.0469,0.89062 -0.46876,1.52343 -1.54687,1.89843 -0.18751,-0.65625 -1.03126,-1.17187 -2.53125,-1.54687 l 0,-0.35156 c 1.45311,0.1875 2.33202,0.26953 2.63671,0.24609 0.30468,-0.0234 0.45703,-0.19922 0.45704,-0.52734 l 0,-4.21875 -5.48438,0 c -0.60938,0 -1.17188,0.0703 -1.6875,0.21093 l -0.63281,-0.63281 z m 0.94921,-7.13672 c -0.35157,0.35158 -0.60938,0.22267 -0.77343,-0.38672 -0.16407,-0.60936 -0.59767,-1.33592 -1.30078,-2.17968 l 0.14062,-0.14063 c 1.26562,0.60939 1.99218,1.12502 2.17969,1.54688 0.18749,0.42189 0.10546,0.8086 -0.2461,1.16015 z m -0.59765,0.38672 0.63281,0 5.0625,0 0.63281,-0.84375 1.40625,1.26563 c -0.93751,0.14063 -1.82814,0.79688 -2.67187,1.96875 l -0.21094,-0.14063 0.91406,-1.82812 -11.25,0 c 0.0937,0.84376 0.0234,1.42969 -0.21093,1.75781 -0.23438,0.32813 -0.59766,0.46876 -1.08985,0.42187 -0.49219,-0.0469 -0.59766,-0.23436 -0.3164,-0.5625 0.28124,-0.32811 0.52734,-0.67967 0.73828,-1.05468 0.21093,-0.37499 0.38671,-0.96093 0.52734,-1.75782 l 0.28125,0 0.0703,0.77344 z"
         style="font-size:18px;font-variant:normal;font-stretch:normal;text-align:center;text-anchor:middle;font-family:SimSun;-inkscape-font-specification:SimSun"
         id="path3019" />
      <path
         d="m -507.16406,576.71094 c 1.45311,0.1875 2.34373,0.28125 2.67187,0.28125 0.32811,0 0.49218,-0.1875 0.49219,-0.5625 l 0,-4.85157 -4.92187,0 0,6.53907 c -10e-6,0.84375 0.0234,1.61718 0.0703,2.32031 l -1.125,0.63281 c 0.0469,-1.07812 0.0703,-2.10937 0.0703,-3.09375 l 0,-6.39844 -3.09375,0 c -0.60938,10e-6 -1.17188,0.0703 -1.6875,0.21094 l -0.63281,-0.63281 11.10937,0 0.77344,-0.77344 1.05469,0.98438 -0.5625,0.49218 0,4.85157 c -2e-5,0.46875 -0.0938,0.84375 -0.28125,1.125 -0.18752,0.28125 -0.58595,0.5625 -1.19531,0.84375 -0.32814,-0.79688 -1.2422,-1.33594 -2.74219,-1.61719 z m 0.84375,-9.07032 c -10e-6,-1.03123 -0.0234,-1.96873 -0.0703,-2.8125 l 1.6875,0.84375 -0.63282,0.42188 0,1.54687 2.17969,0 1.26563,-1.125 1.47656,1.54688 -4.92188,0 c -1e-5,0.65626 0.0234,1.2422 0.0703,1.75781 l -1.05469,0.49219 0,-2.25 -4.00781,0 0,1.89844 -1.05469,0.5625 c 0.0469,-0.84374 0.0703,-1.66405 0.0703,-2.46094 l -3.16406,0 c -0.60938,10e-6 -1.17188,0.0703 -1.6875,0.21094 l -0.63281,-0.63282 5.48437,0 c -10e-6,-1.07811 -0.0234,-1.99217 -0.0703,-2.74218 l 1.61719,0.77343 -0.5625,0.49219 0,1.47656 z"
         style="font-size:18px;font-variant:normal;font-stretch:normal;text-align:center;text-anchor:middle;font-family:SimSun;-inkscape-font-specification:SimSun"
         id="path3021" />
      <path
         d="m -492.92578,576.85156 c -0.77344,0.98438 -1.61719,1.7461 -2.53125,2.28516 -0.91407,0.53906 -1.38282,0.75 -1.40625,0.63281 -0.0234,-0.11719 0.30468,-0.42187 0.98437,-0.91406 0.67969,-0.49219 1.38281,-1.28906 2.10938,-2.39063 0.72655,-1.10155 1.04296,-2.3789 0.94922,-3.83203 -0.0938,-1.45311 -0.45704,-2.66014 -1.08985,-3.62109 -0.63281,-0.96093 -1.28906,-1.72265 -1.96875,-2.28516 -0.67969,-0.56248 -1.00781,-0.90233 -0.98437,-1.01953 0.0234,-0.11717 0.46875,0.1172 1.33594,0.70313 0.86718,0.58595 1.72265,1.45313 2.5664,2.60156 0.84375,1.14845 1.2539,2.4961 1.23047,4.04297 -0.0234,1.54688 -0.42188,2.8125 -1.19531,3.79687 z"
         style="font-size:18px;font-variant:normal;font-stretch:normal;text-align:center;text-anchor:middle;font-family:SimSun;-inkscape-font-specification:SimSun"
         id="path3023" />
    </g>
    <g
       style="font-size:40px;font-style:normal;font-weight:normal;line-height:125%;letter-spacing:0px;word-spacing:0px;fill:#000000;fill-opacity:1;stroke:none;font-family:Sans"
       id="text3094-4">
      <path
         d="m -446.8125,544.92969 0,-0.42188 5.625,0 0,0.42188 -1.61719,0 c -0.1875,10e-6 -0.33985,0.0469 -0.45703,0.14062 -0.11719,0.0938 -0.17579,0.23439 -0.17578,0.42188 l 0,10.05468 c -10e-6,0.18751 0.0586,0.32813 0.17578,0.42188 0.11718,0.0937 0.26953,0.14063 0.45703,0.14062 l 1.61719,0 0,0.42188 -5.625,0 0,-0.42188 1.61719,0 c 0.23437,10e-6 0.39843,-0.0469 0.49219,-0.14062 0.0937,-0.0937 0.14062,-0.23437 0.14062,-0.42188 l 0,-10.05468 c 0,-0.18749 -0.0469,-0.32812 -0.14062,-0.42188 -0.0938,-0.0937 -0.25782,-0.14061 -0.49219,-0.14062 z"
         style="font-size:18px;font-variant:normal;font-stretch:normal;text-align:center;text-anchor:middle;font-family:SimSun;-inkscape-font-specification:SimSun"
         id="path3026" />
      <path
         d="m -436.82812,550.90625 0,4.64062 c -10e-6,0.18751 0.0586,0.32813 0.17578,0.42188 0.11718,0.0937 0.26952,0.14063 0.45703,0.14062 l 0.49219,0 0,0.42188 -3.375,0 0,-0.42188 0.49218,0 c 0.23438,10e-6 0.39844,-0.0469 0.49219,-0.14062 0.0937,-0.0937 0.14062,-0.23437 0.14063,-0.42188 l 0,-10.05468 c -10e-6,-0.18749 -0.0469,-0.32812 -0.14063,-0.42188 -0.0937,-0.0937 -0.25781,-0.14061 -0.49219,-0.14062 l -0.42187,0 0,-0.42188 4.14844,0 c 1.17186,1e-5 2.07421,0.29298 2.70703,0.87891 0.6328,0.58595 0.94921,1.32423 0.94922,2.21484 -10e-6,1.07814 -0.33986,1.89845 -1.01954,2.46094 -0.67969,0.56251 -1.48828,0.84376 -2.42578,0.84375 z m 1.75781,-0.42188 c 0.70312,10e-6 1.32421,-0.21093 1.86328,-0.63281 0.53905,-0.42187 0.80859,-1.14843 0.80859,-2.17969 0,-0.93748 -0.22266,-1.62889 -0.66797,-2.07421 -0.44531,-0.4453 -1.16016,-0.66796 -2.14453,-0.66797 l -0.98437,0 c -0.18751,10e-6 -0.33985,0.0469 -0.45703,0.14062 -0.11719,0.0938 -0.17579,0.23439 -0.17578,0.42188 l 0,4.99218 z"
         style="font-size:18px;font-variant:normal;font-stretch:normal;text-align:center;text-anchor:middle;font-family:SimSun;-inkscape-font-specification:SimSun"
         id="path3028" />
      <path
         d="m -412.21875,549.71094 0,7.3125 c 1.07811,-0.9375 2.01561,-1.92188 2.8125,-2.95313 -0.84376,-1.03124 -1.50001,-2.48437 -1.96875,-4.35937 z m 1.82813,-2.74219 c 1.12498,0.23438 1.79295,0.28126 2.0039,0.14062 0.21093,-0.14061 0.33983,-0.51561 0.38672,-1.125 0.0469,-0.60936 0.0937,-1.3828 0.14063,-2.32031 l -4.35938,0 0,5.625 4.78125,0 0.63281,-0.63281 1.05469,1.05469 -0.70312,0.35156 c -0.65627,1.73438 -1.31252,3.07032 -1.96875,4.00781 1.35936,1.3125 2.71873,2.08594 4.07812,2.32031 l 0,0.21094 c -0.75002,0.1875 -1.19533,0.46875 -1.33594,0.84375 -1.17189,-0.70312 -2.25001,-1.61718 -3.23437,-2.74219 -0.98439,1.03126 -2.08595,1.94532 -3.30469,2.74219 l 0,0.49219 -1.05469,0.42187 c 0.0469,-1.64062 0.0703,-2.99999 0.0703,-4.07812 l 0,-8.29688 c -10e-6,-1.17186 -0.0234,-2.29686 -0.0703,-3.375 l 1.125,0.63282 4.21875,0 0.63282,-0.63282 0.98437,0.98438 -0.5625,0.35156 c -0.0469,0.65626 -0.0938,1.34767 -0.14062,2.07422 -0.0469,0.72657 -0.18752,1.26564 -0.42188,1.61719 -0.23439,0.35157 -0.65626,0.66798 -1.26562,0.94922 -0.23439,-0.60937 -0.79689,-1.05468 -1.6875,-1.33594 z m -0.63282,2.74219 c 0.51562,1.45313 1.1953,2.69531 2.03907,3.72656 0.65623,-1.07812 1.19529,-2.32031 1.61718,-3.72656 z m -9.77343,1.61718 c 0.28124,0.0469 1.38281,-0.30468 3.30468,-1.05468 l 0,-3.51563 -2.03906,0 -0.84375,0.14063 -0.5625,-0.5625 3.44531,0 c 0,-1.54687 -0.0234,-2.90624 -0.0703,-4.07813 l 1.61719,0.77344 -0.5625,0.49219 0,2.8125 0.91406,0 0.77344,-0.77344 1.19531,1.19531 -2.88281,0 0,3.23438 2.53125,-0.98438 0.14062,0.28125 -2.67187,1.40625 0,6.25781 c -0.0469,0.79688 -0.56251,1.35938 -1.54688,1.6875 0,-0.60937 -0.70313,-1.125 -2.10937,-1.54687 l 0,-0.35156 c 1.125,0.23437 1.85156,0.32812 2.17969,0.28125 0.32812,-0.0469 0.49218,-0.35156 0.49218,-0.91407 l 0,-4.99218 c -1.54687,0.75 -2.36719,1.24219 -2.46093,1.47656 z"
         style="font-size:18px;font-variant:normal;font-stretch:normal;text-align:center;text-anchor:middle;font-family:SimSun;-inkscape-font-specification:SimSun"
         id="path3030" />
      <path
         d="m -399.28125,543.45312 c 1.64062,0.51564 2.66015,0.96095 3.05859,1.33594 0.39843,0.37501 0.46875,0.8672 0.21094,1.47656 -0.25782,0.60939 -0.57422,0.57423 -0.94922,-0.10546 -0.375,-0.67968 -1.19532,-1.51171 -2.46093,-2.4961 z m -1.61719,3.375 c 1.78125,0.65626 2.82422,1.18361 3.12891,1.58204 0.30468,0.39844 0.32812,0.87891 0.0703,1.4414 -0.25782,0.56251 -0.58594,0.48048 -0.98437,-0.24609 -0.39845,-0.72656 -1.1836,-1.58202 -2.35547,-2.56641 z m 8.50782,-3.72656 -0.70313,0.49219 c -0.0469,1.54689 -0.0938,2.84767 -0.14062,3.90234 -0.0469,1.0547 -0.14064,2.35548 -0.28125,3.90235 l 4.14843,0 1.19532,-1.19532 1.61718,1.61719 -7.03125,0 c -0.0938,0.37501 -0.23438,0.79688 -0.42187,1.26563 2.39061,0.98438 4.12498,1.74609 5.20312,2.28515 1.07811,0.53907 1.59374,1.26563 1.54688,2.17969 -0.0469,0.91406 -0.48049,0.86719 -1.30078,-0.14062 -0.82033,-1.00782 -2.68361,-2.33203 -5.58985,-3.97266 -0.79688,1.54688 -1.92188,2.69531 -3.375,3.44531 -1.45313,0.75 -3.09375,1.33594 -4.92187,1.75781 l -0.0703,-0.28125 c 2.01562,-0.60937 3.70312,-1.40625 5.0625,-2.39062 1.35936,-0.98437 2.29686,-2.36718 2.8125,-4.14844 l -5.48438,0 c -0.60938,1e-5 -1.17188,0.0703 -1.6875,0.21094 l -0.63281,-0.63281 7.875,0 c 0.18749,-1.54687 0.29296,-3.22265 0.3164,-5.02735 0.0234,-1.80467 0.0352,-3.1992 0.0352,-4.18359 z"
         style="font-size:18px;font-variant:normal;font-stretch:normal;text-align:center;text-anchor:middle;font-family:SimSun;-inkscape-font-specification:SimSun"
         id="path3032" />
      <path
         d="m -452.19141,578.75 c 0.72655,0.5625 1.04296,0.89062 0.94922,0.98437 -0.0938,0.0937 -0.53907,-0.1289 -1.33593,-0.66796 -0.79689,-0.53907 -1.55861,-1.25391 -2.28516,-2.14454 -0.72657,-0.89062 -1.14845,-2.06249 -1.26563,-3.51562 -0.11719,-1.45312 0.17577,-2.7539 0.87891,-3.90234 0.70311,-1.14843 1.53514,-2.06249 2.49609,-2.74219 0.96093,-0.67968 1.45311,-0.96093 1.47657,-0.84375 0.0234,0.1172 -0.29299,0.44532 -0.94922,0.98437 -0.65627,0.53908 -1.3008,1.3008 -1.9336,2.28516 -0.63282,0.98438 -0.94923,2.25001 -0.94921,3.79687 -2e-5,1.54688 0.30467,2.75391 0.91406,3.6211 0.60936,0.86719 1.27733,1.58203 2.0039,2.14453 z"
         style="font-size:18px;font-variant:normal;font-stretch:normal;text-align:center;text-anchor:middle;font-family:SimSun;-inkscape-font-specification:SimSun"
         id="path3034" />
      <path
         d="m -441.96094,569.96094 c 0,-0.84374 -0.1875,-1.48827 -0.5625,-1.9336 -0.375,-0.4453 -0.9375,-0.66795 -1.6875,-0.66797 -0.5625,2e-5 -1.04297,0.15236 -1.4414,0.45704 -0.39844,0.30469 -0.59766,0.69141 -0.59766,1.16015 0,0.28126 0.082,0.51564 0.24609,0.70313 0.16406,0.18751 0.24609,0.37501 0.2461,0.5625 -10e-6,0.23438 -0.0586,0.41016 -0.17578,0.52734 -0.11719,0.1172 -0.29297,0.17579 -0.52735,0.17578 -0.28125,1e-5 -0.50391,-0.082 -0.66797,-0.24609 -0.16406,-0.16405 -0.24609,-0.43359 -0.24609,-0.8086 0,-0.98436 0.35156,-1.73436 1.05469,-2.25 0.70312,-0.51561 1.45312,-0.77342 2.25,-0.77343 1.12499,10e-6 1.95702,0.28126 2.49609,0.84375 0.53906,0.56251 0.80859,1.26563 0.8086,2.10937 -10e-6,0.56251 -0.12892,1.12501 -0.38672,1.6875 -0.25782,0.56251 -0.66798,1.10157 -1.23047,1.61719 -1.35938,1.3125 -2.40235,2.37891 -3.12891,3.19922 -0.72656,0.82031 -1.16016,1.37109 -1.30078,1.65234 l 4.14844,0 c 0.42187,0 0.77343,-0.16406 1.05469,-0.49219 0.28124,-0.32812 0.46874,-0.8203 0.5625,-1.47656 l 0.42187,0 -0.42187,3.02344 -6.53907,0 0,-0.91406 c 0.23438,-0.42188 0.62109,-0.96094 1.16016,-1.61719 0.53906,-0.65625 1.2539,-1.42968 2.14453,-2.32031 0.79687,-0.79687 1.38281,-1.54687 1.75781,-2.25 0.375,-0.70312 0.5625,-1.35937 0.5625,-1.96875 z"
         style="font-size:18px;font-variant:normal;font-stretch:normal;text-align:center;text-anchor:middle;font-family:SimSun;-inkscape-font-specification:SimSun"
         id="path3036" />
      <path
         d="m -435,567.42969 c -0.65625,10e-6 -1.20703,0.50392 -1.65234,1.51172 -0.44532,1.00782 -0.66797,2.35547 -0.66797,4.04296 0,1.78126 0.22265,3.16407 0.66797,4.14844 0.44531,0.98438 0.99609,1.47657 1.65234,1.47656 0.70312,10e-6 1.2539,-0.49218 1.65234,-1.47656 0.39843,-0.98437 0.59765,-2.36718 0.59766,-4.14844 -10e-6,-1.68749 -0.18751,-3.03514 -0.5625,-4.04296 -0.37501,-1.0078 -0.93751,-1.51171 -1.6875,-1.51172 z m 0,11.74218 c -1.03125,10e-6 -1.89844,-0.53906 -2.60156,-1.61718 -0.70313,-1.07812 -1.05469,-2.60156 -1.05469,-4.57032 0,-1.82811 0.33984,-3.30467 1.01953,-4.42968 0.67969,-1.12499 1.55859,-1.68749 2.63672,-1.6875 1.03124,10e-6 1.88671,0.53907 2.56641,1.61718 0.67968,1.07814 1.01952,2.57814 1.01953,4.5 -10e-6,1.92188 -0.33985,3.4336 -1.01953,4.53516 -0.6797,1.10156 -1.53517,1.65235 -2.56641,1.65234 z"
         style="font-size:18px;font-variant:normal;font-stretch:normal;text-align:center;text-anchor:middle;font-family:SimSun;-inkscape-font-specification:SimSun"
         id="path3038" />
      <path
         d="m -412.92187,574.32031 c -10e-6,-0.42187 -0.0234,-1.05468 -0.0703,-1.89844 l 0.77344,0.49219 2.67188,-2.39062 -5.76563,0 c -0.60938,10e-6 -1.17188,0.0703 -1.6875,0.21093 l -0.63281,-0.63281 8.08594,0 0.77343,-0.77344 1.26563,1.33594 c -0.79689,0.0938 -2.27345,0.91407 -4.42969,2.46094 l 0.5625,0.35156 -0.5625,0.42188 0,0.42187 5.0625,0 1.125,-0.98437 1.40625,1.40625 -7.59375,0 0,4.5 c 0.0469,0.89062 -0.46876,1.52343 -1.54687,1.89843 -0.18751,-0.65625 -1.03126,-1.17187 -2.53125,-1.54687 l 0,-0.35156 c 1.45311,0.1875 2.33202,0.26953 2.63671,0.24609 0.30468,-0.0234 0.45703,-0.19922 0.45704,-0.52734 l 0,-4.21875 -5.48438,0 c -0.60938,0 -1.17188,0.0703 -1.6875,0.21093 l -0.63281,-0.63281 z m 0.94921,-7.13672 c -0.35157,0.35158 -0.60938,0.22267 -0.77343,-0.38672 -0.16407,-0.60936 -0.59767,-1.33592 -1.30078,-2.17968 l 0.14062,-0.14063 c 1.26562,0.60939 1.99218,1.12502 2.17969,1.54688 0.18749,0.42189 0.10546,0.8086 -0.2461,1.16015 z m -0.59765,0.38672 0.63281,0 5.0625,0 0.63281,-0.84375 1.40625,1.26563 c -0.93751,0.14063 -1.82814,0.79688 -2.67187,1.96875 l -0.21094,-0.14063 0.91406,-1.82812 -11.25,0 c 0.0937,0.84376 0.0234,1.42969 -0.21093,1.75781 -0.23438,0.32813 -0.59766,0.46876 -1.08985,0.42187 -0.49219,-0.0469 -0.59766,-0.23436 -0.3164,-0.5625 0.28124,-0.32811 0.52734,-0.67967 0.73828,-1.05468 0.21093,-0.37499 0.38671,-0.96093 0.52734,-1.75782 l 0.28125,0 0.0703,0.77344 z"
         style="font-size:18px;font-variant:normal;font-stretch:normal;text-align:center;text-anchor:middle;font-family:SimSun;-inkscape-font-specification:SimSun"
         id="path3040" />
      <path
         d="m -393.16406,576.71094 c 1.45311,0.1875 2.34373,0.28125 2.67187,0.28125 0.32811,0 0.49218,-0.1875 0.49219,-0.5625 l 0,-4.85157 -4.92187,0 0,6.53907 c -10e-6,0.84375 0.0234,1.61718 0.0703,2.32031 l -1.125,0.63281 c 0.0469,-1.07812 0.0703,-2.10937 0.0703,-3.09375 l 0,-6.39844 -3.09375,0 c -0.60938,10e-6 -1.17188,0.0703 -1.6875,0.21094 l -0.63281,-0.63281 11.10937,0 0.77344,-0.77344 1.05469,0.98438 -0.5625,0.49218 0,4.85157 c -2e-5,0.46875 -0.0938,0.84375 -0.28125,1.125 -0.18752,0.28125 -0.58595,0.5625 -1.19531,0.84375 -0.32814,-0.79688 -1.2422,-1.33594 -2.74219,-1.61719 z m 0.84375,-9.07032 c -10e-6,-1.03123 -0.0234,-1.96873 -0.0703,-2.8125 l 1.6875,0.84375 -0.63282,0.42188 0,1.54687 2.17969,0 1.26563,-1.125 1.47656,1.54688 -4.92188,0 c -1e-5,0.65626 0.0234,1.2422 0.0703,1.75781 l -1.05469,0.49219 0,-2.25 -4.00781,0 0,1.89844 -1.05469,0.5625 c 0.0469,-0.84374 0.0703,-1.66405 0.0703,-2.46094 l -3.16406,0 c -0.60938,10e-6 -1.17188,0.0703 -1.6875,0.21094 l -0.63281,-0.63282 5.48437,0 c -10e-6,-1.07811 -0.0234,-1.99217 -0.0703,-2.74218 l 1.61719,0.77343 -0.5625,0.49219 0,1.47656 z"
         style="font-size:18px;font-variant:normal;font-stretch:normal;text-align:center;text-anchor:middle;font-family:SimSun;-inkscape-font-specification:SimSun"
         id="path3042" />
      <path
         d="m -378.92578,576.85156 c -0.77344,0.98438 -1.61719,1.7461 -2.53125,2.28516 -0.91407,0.53906 -1.38282,0.75 -1.40625,0.63281 -0.0234,-0.11719 0.30468,-0.42187 0.98437,-0.91406 0.67969,-0.49219 1.38281,-1.28906 2.10938,-2.39063 0.72655,-1.10155 1.04296,-2.3789 0.94922,-3.83203 -0.0938,-1.45311 -0.45704,-2.66014 -1.08985,-3.62109 -0.63281,-0.96093 -1.28906,-1.72265 -1.96875,-2.28516 -0.67969,-0.56248 -1.00781,-0.90233 -0.98437,-1.01953 0.0234,-0.11717 0.46875,0.1172 1.33594,0.70313 0.86718,0.58595 1.72265,1.45313 2.5664,2.60156 0.84375,1.14845 1.2539,2.4961 1.23047,4.04297 -0.0234,1.54688 -0.42188,2.8125 -1.19531,3.79687 z"
         style="font-size:18px;font-variant:normal;font-stretch:normal;text-align:center;text-anchor:middle;font-family:SimSun;-inkscape-font-specification:SimSun"
         id="path3044" />
    </g>
    <g
       style="font-size:40px;font-style:normal;font-weight:normal;line-height:125%;letter-spacing:0px;word-spacing:0px;fill:#000000;fill-opacity:1;stroke:none;font-family:Sans"
       id="text3094-4-4">
      <path
         d="m -316.74219,556.53125 -3.65625,0 0,-0.42188 0.63282,0 c 0.23437,10e-6 0.39843,-0.0469 0.49218,-0.14062 0.0937,-0.0937 0.14062,-0.23437 0.14063,-0.42188 l 0,-9.84375 c -10e-6,-0.37498 -0.0234,-0.58592 -0.0703,-0.63281 -0.0469,-0.0469 -0.23438,-0.0703 -0.5625,-0.0703 -0.65626,10e-6 -1.11329,0.1172 -1.3711,0.35156 -0.25781,0.23439 -0.57422,0.8672 -0.94922,1.89844 l -0.42187,-0.0703 0.63281,-2.67188 6.67969,0 0.5625,2.67188 -0.35156,0.0703 c -0.37501,-0.98436 -0.66798,-1.60546 -0.87891,-1.86328 -0.21095,-0.2578 -0.64454,-0.38671 -1.30078,-0.38672 -0.46876,10e-6 -0.72657,0.0235 -0.77344,0.0703 -0.0469,0.0469 -0.0703,0.28126 -0.0703,0.70313 l 0,9.77343 c -10e-6,0.18751 0.0586,0.32813 0.17578,0.42188 0.11718,0.0937 0.26952,0.14063 0.45703,0.14062 l 0.63281,0 z"
         style="font-size:18px;font-variant:normal;font-stretch:normal;text-align:center;text-anchor:middle;font-family:SimSun;-inkscape-font-specification:SimSun"
         id="path3047" />
      <path
         d="m -309.14844,556.67187 c -1.3125,10e-6 -2.35547,-0.49218 -3.1289,-1.47656 -0.77344,-0.98437 -1.16016,-2.53124 -1.16016,-4.64062 0,-1.78124 0.41016,-3.25781 1.23047,-4.42969 0.82031,-1.17186 1.93359,-1.7578 3.33984,-1.75781 0.32812,10e-6 0.65625,0.0586 0.98438,0.17578 0.32812,0.1172 0.60937,0.17579 0.84375,0.17578 0.18749,10e-6 0.33983,-0.0234 0.45703,-0.0703 0.11718,-0.0469 0.22265,-0.14062 0.31641,-0.28125 l 0.63281,3.09375 -0.42188,0.14062 c -0.28126,-0.89061 -0.65625,-1.5703 -1.125,-2.03906 -0.46875,-0.46874 -1.07813,-0.70311 -1.82812,-0.70313 -0.98438,2e-5 -1.7461,0.53908 -2.28516,1.61719 -0.53906,1.07814 -0.80859,2.41407 -0.80859,4.00781 0,1.73438 0.23437,3.09376 0.70312,4.07813 0.46875,0.98438 1.24219,1.47656 2.32032,1.47656 0.74999,0 1.39452,-0.26953 1.93359,-0.80859 0.53905,-0.53906 0.90233,-1.2539 1.08984,-2.14453 l 0.42188,0.21093 c -0.23439,0.98438 -0.66798,1.79298 -1.30078,2.42579 -0.63282,0.63281 -1.3711,0.94922 -2.21485,0.94921 z"
         style="font-size:18px;font-variant:normal;font-stretch:normal;text-align:center;text-anchor:middle;font-family:SimSun;-inkscape-font-specification:SimSun"
         id="path3049" />
      <path
         d="m -302.32812,550.90625 0,4.64062 c -10e-6,0.18751 0.0586,0.32813 0.17578,0.42188 0.11718,0.0937 0.26952,0.14063 0.45703,0.14062 l 0.49219,0 0,0.42188 -3.375,0 0,-0.42188 0.49218,0 c 0.23438,10e-6 0.39844,-0.0469 0.49219,-0.14062 0.0937,-0.0937 0.14062,-0.23437 0.14063,-0.42188 l 0,-10.05468 c -10e-6,-0.18749 -0.0469,-0.32812 -0.14063,-0.42188 -0.0937,-0.0937 -0.25781,-0.14061 -0.49219,-0.14062 l -0.42187,0 0,-0.42188 4.14844,0 c 1.17186,1e-5 2.07421,0.29298 2.70703,0.87891 0.6328,0.58595 0.94921,1.32423 0.94922,2.21484 -10e-6,1.07814 -0.33986,1.89845 -1.01954,2.46094 -0.67969,0.56251 -1.48828,0.84376 -2.42578,0.84375 z m 1.75781,-0.42188 c 0.70312,10e-6 1.32421,-0.21093 1.86328,-0.63281 0.53905,-0.42187 0.80859,-1.14843 0.80859,-2.17969 0,-0.93748 -0.22266,-1.62889 -0.66797,-2.07421 -0.44531,-0.4453 -1.16016,-0.66796 -2.14453,-0.66797 l -0.98437,0 c -0.18751,10e-6 -0.33985,0.0469 -0.45703,0.14062 -0.11719,0.0938 -0.17579,0.23439 -0.17578,0.42188 l 0,4.99218 z"
         style="font-size:18px;font-variant:normal;font-stretch:normal;text-align:center;text-anchor:middle;font-family:SimSun;-inkscape-font-specification:SimSun"
         id="path3051" />
      <path
         d="m -277.71875,549.71094 0,7.3125 c 1.07811,-0.9375 2.01561,-1.92188 2.8125,-2.95313 -0.84376,-1.03124 -1.50001,-2.48437 -1.96875,-4.35937 z m 1.82813,-2.74219 c 1.12498,0.23438 1.79295,0.28126 2.0039,0.14062 0.21093,-0.14061 0.33983,-0.51561 0.38672,-1.125 0.0469,-0.60936 0.0937,-1.3828 0.14063,-2.32031 l -4.35938,0 0,5.625 4.78125,0 0.63281,-0.63281 1.05469,1.05469 -0.70312,0.35156 c -0.65627,1.73438 -1.31252,3.07032 -1.96875,4.00781 1.35936,1.3125 2.71873,2.08594 4.07812,2.32031 l 0,0.21094 c -0.75002,0.1875 -1.19533,0.46875 -1.33594,0.84375 -1.17189,-0.70312 -2.25001,-1.61718 -3.23437,-2.74219 -0.98439,1.03126 -2.08595,1.94532 -3.30469,2.74219 l 0,0.49219 -1.05469,0.42187 c 0.0469,-1.64062 0.0703,-2.99999 0.0703,-4.07812 l 0,-8.29688 c -10e-6,-1.17186 -0.0234,-2.29686 -0.0703,-3.375 l 1.125,0.63282 4.21875,0 0.63282,-0.63282 0.98437,0.98438 -0.5625,0.35156 c -0.0469,0.65626 -0.0938,1.34767 -0.14062,2.07422 -0.0469,0.72657 -0.18752,1.26564 -0.42188,1.61719 -0.23439,0.35157 -0.65626,0.66798 -1.26562,0.94922 -0.23439,-0.60937 -0.79689,-1.05468 -1.6875,-1.33594 z m -0.63282,2.74219 c 0.51562,1.45313 1.1953,2.69531 2.03907,3.72656 0.65623,-1.07812 1.19529,-2.32031 1.61718,-3.72656 z m -9.77343,1.61718 c 0.28124,0.0469 1.38281,-0.30468 3.30468,-1.05468 l 0,-3.51563 -2.03906,0 -0.84375,0.14063 -0.5625,-0.5625 3.44531,0 c 0,-1.54687 -0.0234,-2.90624 -0.0703,-4.07813 l 1.61719,0.77344 -0.5625,0.49219 0,2.8125 0.91406,0 0.77344,-0.77344 1.19531,1.19531 -2.88281,0 0,3.23438 2.53125,-0.98438 0.14062,0.28125 -2.67187,1.40625 0,6.25781 c -0.0469,0.79688 -0.56251,1.35938 -1.54688,1.6875 0,-0.60937 -0.70313,-1.125 -2.10937,-1.54687 l 0,-0.35156 c 1.125,0.23437 1.85156,0.32812 2.17969,0.28125 0.32812,-0.0469 0.49218,-0.35156 0.49218,-0.91407 l 0,-4.99218 c -1.54687,0.75 -2.36719,1.24219 -2.46093,1.47656 z"
         style="font-size:18px;font-variant:normal;font-stretch:normal;text-align:center;text-anchor:middle;font-family:SimSun;-inkscape-font-specification:SimSun"
         id="path3053" />
      <path
         d="m -264.78125,543.45312 c 1.64062,0.51564 2.66015,0.96095 3.05859,1.33594 0.39843,0.37501 0.46875,0.8672 0.21094,1.47656 -0.25782,0.60939 -0.57422,0.57423 -0.94922,-0.10546 -0.375,-0.67968 -1.19532,-1.51171 -2.46093,-2.4961 z m -1.61719,3.375 c 1.78125,0.65626 2.82422,1.18361 3.12891,1.58204 0.30468,0.39844 0.32812,0.87891 0.0703,1.4414 -0.25782,0.56251 -0.58594,0.48048 -0.98437,-0.24609 -0.39845,-0.72656 -1.1836,-1.58202 -2.35547,-2.56641 z m 8.50782,-3.72656 -0.70313,0.49219 c -0.0469,1.54689 -0.0938,2.84767 -0.14062,3.90234 -0.0469,1.0547 -0.14064,2.35548 -0.28125,3.90235 l 4.14843,0 1.19532,-1.19532 1.61718,1.61719 -7.03125,0 c -0.0938,0.37501 -0.23438,0.79688 -0.42187,1.26563 2.39061,0.98438 4.12498,1.74609 5.20312,2.28515 1.07811,0.53907 1.59374,1.26563 1.54688,2.17969 -0.0469,0.91406 -0.48049,0.86719 -1.30078,-0.14062 -0.82033,-1.00782 -2.68361,-2.33203 -5.58985,-3.97266 -0.79688,1.54688 -1.92188,2.69531 -3.375,3.44531 -1.45313,0.75 -3.09375,1.33594 -4.92187,1.75781 l -0.0703,-0.28125 c 2.01562,-0.60937 3.70312,-1.40625 5.0625,-2.39062 1.35936,-0.98437 2.29686,-2.36718 2.8125,-4.14844 l -5.48438,0 c -0.60938,1e-5 -1.17188,0.0703 -1.6875,0.21094 l -0.63281,-0.63281 7.875,0 c 0.18749,-1.54687 0.29296,-3.22265 0.3164,-5.02735 0.0234,-1.80467 0.0352,-3.1992 0.0352,-4.18359 z"
         style="font-size:18px;font-variant:normal;font-stretch:normal;text-align:center;text-anchor:middle;font-family:SimSun;-inkscape-font-specification:SimSun"
         id="path3055" />
      <path
         d="m -322.19141,578.75 c 0.72655,0.5625 1.04296,0.89062 0.94922,0.98437 -0.0938,0.0937 -0.53907,-0.1289 -1.33593,-0.66796 -0.79689,-0.53907 -1.55861,-1.25391 -2.28516,-2.14454 -0.72657,-0.89062 -1.14845,-2.06249 -1.26563,-3.51562 -0.11719,-1.45312 0.17577,-2.7539 0.87891,-3.90234 0.70311,-1.14843 1.53514,-2.06249 2.49609,-2.74219 0.96093,-0.67968 1.45311,-0.96093 1.47657,-0.84375 0.0234,0.1172 -0.29299,0.44532 -0.94922,0.98437 -0.65627,0.53908 -1.3008,1.3008 -1.9336,2.28516 -0.63282,0.98438 -0.94923,2.25001 -0.94921,3.79687 -2e-5,1.54688 0.30467,2.75391 0.91406,3.6211 0.60936,0.86719 1.27733,1.58203 2.0039,2.14453 z"
         style="font-size:18px;font-variant:normal;font-stretch:normal;text-align:center;text-anchor:middle;font-family:SimSun;-inkscape-font-specification:SimSun"
         id="path3057" />
      <path
         d="m -311.96094,569.96094 c 0,-0.84374 -0.1875,-1.48827 -0.5625,-1.9336 -0.375,-0.4453 -0.9375,-0.66795 -1.6875,-0.66797 -0.5625,2e-5 -1.04297,0.15236 -1.4414,0.45704 -0.39844,0.30469 -0.59766,0.69141 -0.59766,1.16015 0,0.28126 0.082,0.51564 0.24609,0.70313 0.16406,0.18751 0.24609,0.37501 0.2461,0.5625 -10e-6,0.23438 -0.0586,0.41016 -0.17578,0.52734 -0.11719,0.1172 -0.29297,0.17579 -0.52735,0.17578 -0.28125,1e-5 -0.50391,-0.082 -0.66797,-0.24609 -0.16406,-0.16405 -0.24609,-0.43359 -0.24609,-0.8086 0,-0.98436 0.35156,-1.73436 1.05469,-2.25 0.70312,-0.51561 1.45312,-0.77342 2.25,-0.77343 1.12499,10e-6 1.95702,0.28126 2.49609,0.84375 0.53906,0.56251 0.80859,1.26563 0.8086,2.10937 -10e-6,0.56251 -0.12892,1.12501 -0.38672,1.6875 -0.25782,0.56251 -0.66798,1.10157 -1.23047,1.61719 -1.35938,1.3125 -2.40235,2.37891 -3.12891,3.19922 -0.72656,0.82031 -1.16016,1.37109 -1.30078,1.65234 l 4.14844,0 c 0.42187,0 0.77343,-0.16406 1.05469,-0.49219 0.28124,-0.32812 0.46874,-0.8203 0.5625,-1.47656 l 0.42187,0 -0.42187,3.02344 -6.53907,0 0,-0.91406 c 0.23438,-0.42188 0.62109,-0.96094 1.16016,-1.61719 0.53906,-0.65625 1.2539,-1.42968 2.14453,-2.32031 0.79687,-0.79687 1.38281,-1.54687 1.75781,-2.25 0.375,-0.70312 0.5625,-1.35937 0.5625,-1.96875 z"
         style="font-size:18px;font-variant:normal;font-stretch:normal;text-align:center;text-anchor:middle;font-family:SimSun;-inkscape-font-specification:SimSun"
         id="path3059" />
      <path
         d="m -305,567.42969 c -0.65625,10e-6 -1.20703,0.50392 -1.65234,1.51172 -0.44532,1.00782 -0.66797,2.35547 -0.66797,4.04296 0,1.78126 0.22265,3.16407 0.66797,4.14844 0.44531,0.98438 0.99609,1.47657 1.65234,1.47656 0.70312,10e-6 1.2539,-0.49218 1.65234,-1.47656 0.39843,-0.98437 0.59765,-2.36718 0.59766,-4.14844 -10e-6,-1.68749 -0.18751,-3.03514 -0.5625,-4.04296 -0.37501,-1.0078 -0.93751,-1.51171 -1.6875,-1.51172 z m 0,11.74218 c -1.03125,10e-6 -1.89844,-0.53906 -2.60156,-1.61718 -0.70313,-1.07812 -1.05469,-2.60156 -1.05469,-4.57032 0,-1.82811 0.33984,-3.30467 1.01953,-4.42968 0.67969,-1.12499 1.55859,-1.68749 2.63672,-1.6875 1.03124,10e-6 1.88671,0.53907 2.56641,1.61718 0.67968,1.07814 1.01952,2.57814 1.01953,4.5 -10e-6,1.92188 -0.33985,3.4336 -1.01953,4.53516 -0.6797,1.10156 -1.53517,1.65235 -2.56641,1.65234 z"
         style="font-size:18px;font-variant:normal;font-stretch:normal;text-align:center;text-anchor:middle;font-family:SimSun;-inkscape-font-specification:SimSun"
         id="path3061" />
      <path
         d="m -282.92187,574.32031 c -10e-6,-0.42187 -0.0234,-1.05468 -0.0703,-1.89844 l 0.77344,0.49219 2.67188,-2.39062 -5.76563,0 c -0.60938,10e-6 -1.17188,0.0703 -1.6875,0.21093 l -0.63281,-0.63281 8.08594,0 0.77343,-0.77344 1.26563,1.33594 c -0.79689,0.0938 -2.27345,0.91407 -4.42969,2.46094 l 0.5625,0.35156 -0.5625,0.42188 0,0.42187 5.0625,0 1.125,-0.98437 1.40625,1.40625 -7.59375,0 0,4.5 c 0.0469,0.89062 -0.46876,1.52343 -1.54687,1.89843 -0.18751,-0.65625 -1.03126,-1.17187 -2.53125,-1.54687 l 0,-0.35156 c 1.45311,0.1875 2.33202,0.26953 2.63671,0.24609 0.30468,-0.0234 0.45703,-0.19922 0.45704,-0.52734 l 0,-4.21875 -5.48438,0 c -0.60938,0 -1.17188,0.0703 -1.6875,0.21093 l -0.63281,-0.63281 z m 0.94921,-7.13672 c -0.35157,0.35158 -0.60938,0.22267 -0.77343,-0.38672 -0.16407,-0.60936 -0.59767,-1.33592 -1.30078,-2.17968 l 0.14062,-0.14063 c 1.26562,0.60939 1.99218,1.12502 2.17969,1.54688 0.18749,0.42189 0.10546,0.8086 -0.2461,1.16015 z m -0.59765,0.38672 0.63281,0 5.0625,0 0.63281,-0.84375 1.40625,1.26563 c -0.93751,0.14063 -1.82814,0.79688 -2.67187,1.96875 l -0.21094,-0.14063 0.91406,-1.82812 -11.25,0 c 0.0937,0.84376 0.0234,1.42969 -0.21093,1.75781 -0.23438,0.32813 -0.59766,0.46876 -1.08985,0.42187 -0.49219,-0.0469 -0.59766,-0.23436 -0.3164,-0.5625 0.28124,-0.32811 0.52734,-0.67967 0.73828,-1.05468 0.21093,-0.37499 0.38671,-0.96093 0.52734,-1.75782 l 0.28125,0 0.0703,0.77344 z"
         style="font-size:18px;font-variant:normal;font-stretch:normal;text-align:center;text-anchor:middle;font-family:SimSun;-inkscape-font-specification:SimSun"
         id="path3063" />
      <path
         d="m -263.16406,576.71094 c 1.45311,0.1875 2.34373,0.28125 2.67187,0.28125 0.32811,0 0.49218,-0.1875 0.49219,-0.5625 l 0,-4.85157 -4.92187,0 0,6.53907 c -10e-6,0.84375 0.0234,1.61718 0.0703,2.32031 l -1.125,0.63281 c 0.0469,-1.07812 0.0703,-2.10937 0.0703,-3.09375 l 0,-6.39844 -3.09375,0 c -0.60938,10e-6 -1.17188,0.0703 -1.6875,0.21094 l -0.63281,-0.63281 11.10937,0 0.77344,-0.77344 1.05469,0.98438 -0.5625,0.49218 0,4.85157 c -2e-5,0.46875 -0.0938,0.84375 -0.28125,1.125 -0.18752,0.28125 -0.58595,0.5625 -1.19531,0.84375 -0.32814,-0.79688 -1.2422,-1.33594 -2.74219,-1.61719 z m 0.84375,-9.07032 c -10e-6,-1.03123 -0.0234,-1.96873 -0.0703,-2.8125 l 1.6875,0.84375 -0.63282,0.42188 0,1.54687 2.17969,0 1.26563,-1.125 1.47656,1.54688 -4.92188,0 c -1e-5,0.65626 0.0234,1.2422 0.0703,1.75781 l -1.05469,0.49219 0,-2.25 -4.00781,0 0,1.89844 -1.05469,0.5625 c 0.0469,-0.84374 0.0703,-1.66405 0.0703,-2.46094 l -3.16406,0 c -0.60938,10e-6 -1.17188,0.0703 -1.6875,0.21094 l -0.63281,-0.63282 5.48437,0 c -10e-6,-1.07811 -0.0234,-1.99217 -0.0703,-2.74218 l 1.61719,0.77343 -0.5625,0.49219 0,1.47656 z"
         style="font-size:18px;font-variant:normal;font-stretch:normal;text-align:center;text-anchor:middle;font-family:SimSun;-inkscape-font-specification:SimSun"
         id="path3065" />
      <path
         d="m -248.92578,576.85156 c -0.77344,0.98438 -1.61719,1.7461 -2.53125,2.28516 -0.91407,0.53906 -1.38282,0.75 -1.40625,0.63281 -0.0234,-0.11719 0.30468,-0.42187 0.98437,-0.91406 0.67969,-0.49219 1.38281,-1.28906 2.10938,-2.39063 0.72655,-1.10155 1.04296,-2.3789 0.94922,-3.83203 -0.0938,-1.45311 -0.45704,-2.66014 -1.08985,-3.62109 -0.63281,-0.96093 -1.28906,-1.72265 -1.96875,-2.28516 -0.67969,-0.56248 -1.00781,-0.90233 -0.98437,-1.01953 0.0234,-0.11717 0.46875,0.1172 1.33594,0.70313 0.86718,0.58595 1.72265,1.45313 2.5664,2.60156 0.84375,1.14845 1.2539,2.4961 1.23047,4.04297 -0.0234,1.54688 -0.42188,2.8125 -1.19531,3.79687 z"
         style="font-size:18px;font-variant:normal;font-stretch:normal;text-align:center;text-anchor:middle;font-family:SimSun;-inkscape-font-specification:SimSun"
         id="path3067" />
    </g>
    <g
       style="font-size:40px;font-style:normal;font-weight:normal;line-height:125%;letter-spacing:0px;word-spacing:0px;fill:#000000;fill-opacity:1;stroke:none;font-family:Sans"
       id="text3094-4-4-5">
      <path
         d="m -48.914062,547.95312 0,2.95313 2.671875,0 c 0.04686,-1.35937 0.0703,-2.34374 0.07031,-2.95313 z m 3.65625,0 c -1.2e-5,0.65626 -0.02345,1.64064 -0.07031,2.95313 l 2.8125,0 0,-2.95313 z m 3.65625,0.14063 0,1.89844 c -1.6e-5,0.60938 0.02342,1.19532 0.07031,1.75781 l -0.984375,0.35156 0,-0.77344 -2.8125,0 c -0.04689,1.45313 -0.304699,2.71876 -0.773437,3.79688 0.749988,0.60938 1.687487,1.10156 2.8125,1.47656 1.124985,0.375 2.249984,0.58594 3.375,0.63281 l 0,0.28125 c -0.703142,0.0937 -1.148454,0.39844 -1.335938,0.91407 -2.015639,-0.46875 -3.773449,-1.33594 -5.273437,-2.60157 -0.56251,0.60938 -1.31251,1.14844 -2.25,1.61719 -0.937508,0.46875 -1.921882,0.86719 -2.953125,1.19531 l -0.140625,-0.28125 c 1.078118,-0.42187 2.039055,-0.91406 2.882812,-1.47656 0.843741,-0.5625 1.453116,-1.125 1.828125,-1.6875 -0.562509,-0.65625 -1.195321,-1.66406 -1.898437,-3.02344 l 0.210937,-0.14062 c 0.796866,1.125 1.476553,1.94532 2.039063,2.46094 0.328114,-0.89062 0.515614,-1.94531 0.5625,-3.16407 l -2.671875,0 0,0.35157 -0.984375,0.42187 c 0.04687,-0.74999 0.07031,-1.58202 0.07031,-2.49609 -7e-6,-0.91406 -0.02345,-1.79296 -0.07031,-2.63672 l 0.984375,0.5625 2.742187,0 0,-2.03906 -2.460937,0 c -0.609383,10e-6 -1.171883,0.0703 -1.6875,0.21093 l -0.632813,-0.63281 4.78125,0 0,-0.98437 c -1.1e-5,-0.46874 -0.02345,-1.12499 -0.07031,-1.96875 l 1.476562,0.63281 -0.492187,0.49219 0,1.82812 3.164062,0 0.84375,-0.84375 1.265625,1.26563 -5.273437,0 0,2.03906 2.601562,0 0.492188,-0.63281 1.054687,0.84375 z m -10.6875,-0.21094 0,10.19531 -0.984375,0.49219 c 0.04687,-1.03125 0.07031,-1.94531 0.07031,-2.74219 l 0,-8.01562 c -0.843753,1.35938 -1.781252,2.57813 -2.8125,3.65625 l -0.210937,-0.14063 c 0.796873,-1.07811 1.582028,-2.43749 2.355468,-4.07812 0.773434,-1.64061 1.417964,-3.37499 1.933594,-5.20313 l 1.476563,0.91407 -0.5625,0.35156 c -0.750006,1.64064 -1.335943,2.83595 -1.757813,3.58594 l 1.054688,0.5625 z"
         style="font-size:18px;font-variant:normal;font-stretch:normal;text-align:center;text-anchor:middle;font-family:SimSun;-inkscape-font-specification:SimSun"
         id="path3087" />
      <path
         d="m -29.4375,547.95312 0,3.72657 4.710938,0 0,-3.72657 z m 1.898438,8.57813 c 1.218737,0.0937 1.992174,0.12891 2.320312,0.10547 0.328111,-0.0234 0.492173,-0.33984 0.492188,-0.94922 l 0,-3.58594 -4.710938,0 c -10e-6,3 0.02343,4.78125 0.07031,5.34375 l -1.054688,0.49219 c 0.04687,-2.67187 0.0703,-4.61718 0.07031,-5.83594 l -4.640625,0 c -0.328129,2.48438 -1.312503,4.61719 -2.953125,6.39844 l -0.210938,-0.14063 c 0.890623,-1.45312 1.499998,-2.92968 1.828125,-4.42968 0.328122,-1.5 0.492184,-3.5625 0.492188,-6.1875 -4e-6,-2.62499 -0.02344,-4.35936 -0.07031,-5.20313 l 1.054688,0.70313 10.054687,0 0.492188,-0.77344 1.125,0.84375 -0.5625,0.5625 0,12.30469 c 0.04686,1.17187 -0.468765,1.92187 -1.546875,2.25 -0.09376,-0.79688 -0.843763,-1.3125 -2.25,-1.54688 z m -7.3125,-12.86719 0,3.86719 4.5,0 0,-3.86719 z m 5.414062,0 0,3.86719 4.710938,0 0,-3.86719 z m -5.414062,4.28906 c -0.04688,1.96876 -0.09376,3.21095 -0.140625,3.72657 l 4.640625,0 0,-3.72657 z"
         style="font-size:18px;font-variant:normal;font-stretch:normal;text-align:center;text-anchor:middle;font-family:SimSun;-inkscape-font-specification:SimSun"
         id="path3089" />
      <path
         d="m -15.726563,552.52344 c -0.375004,0.60938 -0.726567,1.19531 -1.054687,1.75781 0.60937,0.14063 1.335932,0.30469 2.179687,0.49219 0.421869,-0.46875 0.843743,-1.21875 1.265625,-2.25 z m -2.882812,-9.49219 c 0.890622,0.56251 1.46484,1.03126 1.722656,1.40625 0.257808,0.37501 0.222652,0.78517 -0.105468,1.23047 -0.328129,0.44532 -0.585941,0.32813 -0.773438,-0.35156 -0.187503,-0.67968 -0.539065,-1.39452 -1.054687,-2.14454 z m 6.046875,-0.21094 1.265625,0.84375 c -0.375009,0.0938 -0.714853,0.32814 -1.019531,0.70313 -0.304696,0.37501 -0.832039,0.93751 -1.582032,1.6875 l -0.210937,-0.14063 c 0.890617,-1.40624 1.406242,-2.43748 1.546875,-3.09375 z m -3.164063,-0.77344 1.546875,0.70313 -0.5625,0.49219 0,3.23437 1.757813,0 0.773437,-0.77344 1.195313,1.19532 -3.726563,0 0,0.63281 c 1.078118,0.23438 1.769524,0.48048 2.074219,0.73828 0.304679,0.25782 0.398429,0.63282 0.28125,1.125 -0.117196,0.4922 -0.363289,0.48048 -0.738281,-0.0352 -0.375007,-0.51561 -0.914069,-1.0078 -1.617188,-1.47656 l 0,2.17969 -0.84375,0.5625 0.984375,0.42187 c -0.234381,0.0938 -0.539068,0.44532 -0.914062,1.05469 l 2.179687,0 0.492188,-0.63281 1.054687,0.91406 -0.632812,0.35156 c -0.468758,1.07813 -0.890633,1.82813 -1.265625,2.25 0.749992,0.18751 1.253898,0.38673 1.511719,0.59766 0.257803,0.21094 0.386709,0.53906 0.386718,0.98438 -9e-6,0.44531 -0.246102,0.46875 -0.738281,0.0703 -0.492195,-0.39844 -1.066413,-0.73828 -1.722656,-1.01953 -1.64063,1.3125 -3.585941,2.17968 -5.835937,2.60156 l -0.07031,-0.21094 c 2.156247,-0.70312 3.843745,-1.61718 5.0625,-2.74219 -0.937505,-0.32812 -1.851567,-0.56249 -2.742187,-0.70312 0.187496,-0.28125 0.562496,-0.96093 1.125,-2.03906 l -0.914063,0 c -0.609378,0 -1.171877,0.0703 -1.6875,0.21093 l -0.632812,-0.63281 3.375,0 c 0.187495,-0.46874 0.374995,-1.03124 0.5625,-1.6875 l 0.351562,0.14063 0,-2.88282 c -1.265629,1.45314 -2.718753,2.57814 -4.359375,3.375 l -0.140625,-0.21093 c 1.734372,-1.21875 3.046871,-2.53124 3.9375,-3.9375 l -1.265625,0 c -0.609378,10e-6 -1.171877,0.0703 -1.6875,0.21093 l -0.632812,-0.63281 4.148437,0 c -5e-6,-1.68749 -0.02344,-3.16405 -0.07031,-4.42969 z m 5.7656255,4.85157 c 0.2343637,2.71875 0.7968632,4.99219 1.6875,6.82031 0.7499865,-1.59375 1.2187361,-3.86718 1.40625,-6.82031 z m 0.3515625,-4.85157 1.6171875,0.91407 c -0.3750126,0.14064 -0.6562624,0.42189 -0.84375,0.84375 -0.187512,0.42189 -0.5390741,1.31251 -1.0546875,2.67187 l 4.0078125,0 0.84375,-0.84375 1.265625,1.26563 -2.0390625,0 c -0.2812649,3.46875 -0.8906393,6.04688 -1.828125,7.73437 1.0781106,1.3125 2.3437343,2.13282 3.796875,2.46094 l 0,0.28125 c -0.8906413,0.14062 -1.3593908,0.42187 -1.40625,0.84375 -1.2187645,-0.84375 -2.226576,-1.80469 -3.0234375,-2.88281 -1.5468862,1.5 -3.3984465,2.60156 -5.5546875,3.30468 l -0.140625,-0.21093 c 2.156241,-0.98438 3.867177,-2.27344 5.1328125,-3.86719 -0.8906363,-2.20312 -1.3593855,-4.61718 -1.4062505,-7.24219 -0.46876,1.21876 -1.148447,2.3672 -2.039062,3.44531 l -0.210938,-0.14062 c 1.124991,-1.87499 2.085927,-4.73436 2.882813,-8.57813 z"
         style="font-size:18px;font-variant:normal;font-stretch:normal;text-align:center;text-anchor:middle;font-family:SimSun;-inkscape-font-specification:SimSun"
         id="path3091" />
      <path
         d="m 5.7890625,558.64062 c 0.046866,-1.03125 0.070304,-2.12109 0.070312,-3.26953 -8.9e-6,-1.14843 -0.023446,-2.16796 -0.070312,-3.05859 l 0.984375,0.5625 1.96875,0 0,-2.8125 -3.3046875,0 c -0.3281331,3.32813 -1.5703194,6.07031 -3.7265625,8.22656 L 1.5,558.07812 c 1.0312445,-1.35937 1.8163999,-2.89452 2.3554688,-4.60546 0.5390551,-1.71094 0.8203048,-3.70312 0.8437499,-5.97657 0.02343,-2.27342 0.011711,-3.90233 -0.035156,-4.88672 l 1.0546875,0.63282 5.765625,0 0.5625,-0.5625 0.984375,0.91406 -0.5625,0.35156 c -1.5e-5,1.40626 0.02342,2.43751 0.07031,3.09375 l -0.984375,0.42188 0,-0.84375 -5.9062505,0 c -8.6e-6,0.89063 -0.046884,1.89844 -0.140625,3.02343 l 3.234375,0 c -1.17e-5,-0.89061 -0.023449,-1.7578 -0.070312,-2.60156 l 1.546875,0.70313 -0.5625,0.42187 0,1.47656 2.320313,0 0.773437,-0.77343 1.195313,1.19531 -4.289063,0 0,2.8125 1.828125,0 0.5625,-0.63281 0.984375,0.91406 -0.5625,0.42187 c -1.5e-5,1.87501 0.02342,3.32813 0.07031,4.35938 l -0.984375,0.5625 0,-1.47656 -4.7812505,0 0,1.19531 z m -0.140625,-14.97656 0,2.53125 5.9062505,0 0,-2.53125 z m 1.125,9.63281 0,3.30469 4.7812505,0 0,-3.30469 z m -5.0625,-3.375 2.3203125,-1.33593 0.140625,0.28125 -2.4609375,1.82812 0,5.69531 c -0.04688,0.84375 -0.5625041,1.45313 -1.546875,1.82813 0.0937467,-0.46875 -0.49219017,-0.96094 -1.7578125,-1.47656 l 0,-0.28125 c 1.03124756,0.1875 1.67577817,0.26953 1.93359375,0.24609 0.2578089,-0.0234 0.38671502,-0.19922 0.38671875,-0.52734 l 0,-4.99219 c -1.31250241,0.9375 -1.9921892,1.54688 -2.0390625,1.82812 L -2.3671875,551.75 c 0.2812491,-0.0469 1.3124981,-0.51562 3.09375,-1.40625 l 0,-3.58594 -1.6171875,0 -0.84375,0.14063 -0.5625,-0.5625 3.0234375,0 c -3.73e-6,-1.92187 -0.0234412,-3.28124 -0.0703125,-4.07813 l 1.6171875,0.84375 -0.5625,0.49219 0,2.74219 0.7734375,0 0.9140625,-0.77344 1.0546875,1.19531 -2.7421875,0 z"
         style="font-size:18px;font-variant:normal;font-stretch:normal;text-align:center;text-anchor:middle;font-family:SimSun;-inkscape-font-specification:SimSun"
         id="path3093" />
      <path
         d="m -87.691406,578.75 c 0.726547,0.5625 1.042953,0.89062 0.949219,0.98437 -0.09377,0.0937 -0.539078,-0.1289 -1.335938,-0.66796 -0.796888,-0.53907 -1.558606,-1.25391 -2.285156,-2.14454 -0.726574,-0.89062 -1.148448,-2.06249 -1.265625,-3.51562 -0.117198,-1.45312 0.17577,-2.7539 0.878906,-3.90234 0.703113,-1.14843 1.535143,-2.06249 2.496094,-2.74219 0.960923,-0.67968 1.45311,-0.96093 1.476562,-0.84375 0.02342,0.1172 -0.292983,0.44532 -0.949218,0.98437 -0.656264,0.53908 -1.300795,1.3008 -1.933594,2.28516 -0.632824,0.98438 -0.94923,2.25001 -0.949219,3.79687 -1.1e-5,1.54688 0.304676,2.75391 0.914063,3.6211 0.609362,0.86719 1.27733,1.58203 2.003906,2.14453 z"
         style="font-size:18px;font-variant:normal;font-stretch:normal;text-align:center;text-anchor:middle;font-family:SimSun;-inkscape-font-specification:SimSun"
         id="path3095" />
      <path
         d="m -79.640625,571.64844 0,1.47656 3.304688,0 0,-1.47656 z m 0,1.89843 0,1.61719 3.304688,0 0,-1.61719 z m 0,2.03907 0,2.25 3.304688,-0.5625 0,-1.6875 z m 6.328125,-2.25 c 0.187489,0.65625 0.445301,1.3125 0.773438,1.96875 0.328113,0.65625 0.679675,1.19531 1.054687,1.61718 0.374987,-0.56249 0.714831,-1.14843 1.019531,-1.75781 0.304674,-0.60937 0.574205,-1.21874 0.808594,-1.82812 z m -9.773437,-2.10938 13.429687,0 1.125,-1.125 1.546875,1.54688 -8.4375,0 0,5.41406 2.039063,-0.42188 0.07031,0.28125 -2.109375,0.63282 0,3.02343 -0.914062,0.5625 0,-3.30468 c -2.625006,0.65625 -4.218754,1.08984 -4.78125,1.30078 -0.562503,0.21094 -0.890627,0.41015 -0.984375,0.59765 l -0.84375,-1.33593 c 0.656248,-0.0937 1.429685,-0.21094 2.320312,-0.35157 l 0,-6.39843 -0.984375,0 -0.914062,0.14062 z m 7.945312,1.6875 5.414063,0 0.5625,-0.70312 1.125,0.98437 -0.632813,0.35156 c -0.70314,1.59376 -1.453139,2.9297 -2.25,4.00782 0.749986,0.70312 1.406236,1.19531 1.96875,1.47656 0.562484,0.28125 1.242171,0.44531 2.039063,0.49219 l 0,0.28125 c -0.750017,0.0937 -1.218766,0.375 -1.40625,0.84375 -0.515641,-0.23438 -1.031265,-0.55078 -1.546875,-0.94922 -0.515639,-0.39844 -1.054701,-0.90234 -1.617188,-1.51172 -0.937512,0.9375 -2.179698,1.85156 -3.726562,2.74219 l -0.210938,-0.21094 c 1.359365,-0.9375 2.507801,-1.96875 3.445313,-3.09375 -0.421887,-0.65625 -0.761731,-1.32422 -1.019532,-2.00391 -0.257823,-0.67968 -0.480479,-1.4414 -0.667968,-2.28515 l -0.914063,0.14062 z m -3.515625,-7.10156 0,1.54687 7.59375,0 0,-1.54687 z m 0,1.96875 0,1.54687 7.59375,0 0,-1.54687 z m -1.054687,-2.95313 1.054687,0.5625 7.453125,0 0.492188,-0.77343 1.195312,0.84375 -0.5625,0.49218 c -1.4e-5,2.29689 0.02342,3.6797 0.07031,4.14844 l -1.054688,0.49219 0,-0.84375 -7.59375,0 0,0.5625 -1.054687,0.35156 c 0.04687,-0.89061 0.07031,-1.86327 0.07031,-2.91797 -4e-6,-1.05467 -0.02344,-2.02733 -0.07031,-2.91797 z"
         style="font-size:18px;font-variant:normal;font-stretch:normal;text-align:center;text-anchor:middle;font-family:SimSun;-inkscape-font-specification:SimSun"
         id="path3097" />
      <path
         d="m -57.773437,569.53906 c -9e-6,-2.48436 -0.02345,-4.14842 -0.07031,-4.99219 l 1.6875,0.77344 -0.5625,0.5625 0,3.65625 5.203125,0 1.125,-1.125 1.546875,1.54688 -7.875,0 0,0.5625 c 0.46874,1.73438 1.324208,3.48047 2.566406,5.23828 1.242175,1.75781 2.988267,2.94141 5.238282,3.55078 l 0,0.28125 c -0.703142,0.0469 -1.218766,0.35156 -1.546875,0.91406 -1.546889,-0.9375 -2.882826,-2.22656 -4.007813,-3.86719 -1.12501,-1.64062 -1.921885,-3.35155 -2.390625,-5.13281 -0.421884,2.85938 -1.312508,4.98047 -2.671875,6.36328 -1.35938,1.38282 -3.187503,2.44922 -5.484375,3.19922 l -0.07031,-0.28125 c 1.640622,-0.70312 3.023433,-1.59375 4.148437,-2.67187 1.124994,-1.07813 1.910149,-2.32031 2.355469,-3.72657 0.445304,-1.40624 0.714835,-2.8828 0.808594,-4.42968 l -5.554688,0 -0.984375,0.14062 -0.5625,-0.5625 z"
         style="font-size:18px;font-variant:normal;font-stretch:normal;text-align:center;text-anchor:middle;font-family:SimSun;-inkscape-font-specification:SimSun"
         id="path3099" />
      <path
         d="m -33.867187,566.79687 0,10.6875 c -6e-6,0.37501 0.117182,0.65626 0.351562,0.84375 0.234369,0.18751 0.562494,0.28126 0.984375,0.28125 l 0.703125,0 0,0.42188 -5.132812,0 0,-0.42188 0.632812,0 c 0.468747,10e-6 0.80859,-0.0937 1.019531,-0.28125 0.210934,-0.18749 0.316402,-0.46874 0.316407,-0.84375 l 0,-8.50781 c -5e-6,-0.18749 -0.0586,-0.33983 -0.175782,-0.45703 -0.117191,-0.11718 -0.292972,-0.17577 -0.527343,-0.17578 l -1.265625,0 0,-0.42188 0.632812,0 c 0.562497,2e-5 1.019528,-0.0937 1.371094,-0.28125 0.351558,-0.18748 0.621089,-0.46873 0.808594,-0.84375 z"
         style="font-size:18px;font-variant:normal;font-stretch:normal;text-align:center;text-anchor:middle;font-family:SimSun;-inkscape-font-specification:SimSun"
         id="path3101" />
      <path
         d="m -23.53125,577.69531 c -6e-6,0.32813 0.09374,0.5625 0.28125,0.70313 0.187493,0.14062 0.445305,0.21094 0.773438,0.21093 l 0.632812,0 0,0.42188 -4.640625,0 0,-0.42188 0.773438,0 c 0.374995,10e-6 0.644526,-0.0703 0.808593,-0.21093 0.164057,-0.14063 0.246089,-0.375 0.246094,-0.70313 l 0,-2.32031 -4.710937,0 0,-0.35156 5.132812,-8.15625 0.703125,0 0,8.08593 1.898438,0 0,0.42188 -1.898438,0 z m -1.195312,-9.07031 -4.007813,6.32812 4.078125,0 0,-6.32812 z"
         style="font-size:18px;font-variant:normal;font-stretch:normal;text-align:center;text-anchor:middle;font-family:SimSun;-inkscape-font-specification:SimSun"
         id="path3103" />
      <path
         d="m -18.820312,574.25 c -3e-6,1.40625 0.246091,2.4961 0.738281,3.26953 0.492184,0.77344 1.089839,1.16016 1.792969,1.16016 0.703119,0 1.242181,-0.25781 1.617187,-0.77344 0.374993,-0.51562 0.562493,-1.47656 0.5625,-2.88281 -7e-6,-0.9375 -0.199225,-1.66406 -0.597656,-2.17969 -0.398444,-0.51562 -0.878912,-0.77343 -1.441406,-0.77344 -0.51563,1e-5 -0.996098,0.15235 -1.441407,0.45703 -0.445315,0.3047 -0.855471,0.87892 -1.230468,1.72266 z m 2.742187,-2.88281 c 1.124994,10e-6 1.933587,0.37501 2.425781,1.125 0.49218,0.75 0.738273,1.59375 0.738281,2.53125 -8e-6,1.40625 -0.339851,2.44922 -1.019531,3.1289 -0.679694,0.67969 -1.464849,1.01954 -2.355468,1.01953 -1.265629,10e-6 -2.226565,-0.48046 -2.882813,-1.4414 -0.656251,-0.96094 -0.984376,-2.35547 -0.984375,-4.1836 -1e-6,-2.15624 0.398436,-3.80858 1.195313,-4.95703 0.796872,-1.14842 1.874996,-1.72264 3.234374,-1.72265 0.656245,10e-6 1.183588,0.18751 1.582032,0.5625 0.39843,0.37501 0.597649,0.70313 0.597656,0.98437 -7e-6,0.28126 -0.0586,0.4922 -0.175781,0.63281 -0.117195,0.14064 -0.316413,0.21095 -0.597657,0.21094 -0.234381,1e-5 -0.410162,-0.0586 -0.527343,-0.17578 -0.117194,-0.11718 -0.175787,-0.29296 -0.175782,-0.52734 -5e-6,-0.0937 0.01171,-0.18749 0.03516,-0.28125 0.02343,-0.0937 0.03515,-0.18749 0.03516,-0.28125 -6e-6,-0.18749 -0.07032,-0.33983 -0.210938,-0.45703 -0.14063,-0.11718 -0.398442,-0.17577 -0.773437,-0.17579 -0.796879,2e-5 -1.476566,0.3633 -2.039062,1.08985 -0.562503,0.72657 -0.843753,2.3086 -0.84375,4.74609 0.281247,-0.60937 0.667965,-1.0664 1.160156,-1.37109 0.492183,-0.30468 1.019527,-0.45702 1.582031,-0.45703 z"
         style="font-size:18px;font-variant:normal;font-stretch:normal;text-align:center;text-anchor:middle;font-family:SimSun;-inkscape-font-specification:SimSun"
         id="path3105" />
      <path
         d="m -7.5,567.42969 c -0.6562538,10e-6 -1.2070345,0.50392 -1.6523438,1.51172 -0.4453149,1.00782 -0.6679709,2.35547 -0.6679687,4.04296 -2.2e-6,1.78126 0.2226538,3.16407 0.6679687,4.14844 0.4453093,0.98438 0.99609,1.47657 1.6523438,1.47656 0.7031198,10e-6 1.2539005,-0.49218 1.6523438,-1.47656 0.3984309,-0.98437 0.5976495,-2.36718 0.5976562,-4.14844 -6.7e-6,-1.68749 -0.1875066,-3.03514 -0.5625,-4.04296 -0.3750058,-1.0078 -0.9375052,-1.51171 -1.6875,-1.51172 z m 0,11.74218 c -1.0312535,10e-6 -1.8984401,-0.53906 -2.601563,-1.61718 -0.703126,-1.07812 -1.054688,-2.60156 -1.054687,-4.57032 -10e-7,-1.82811 0.339843,-3.30467 1.019531,-4.42968 0.6796852,-1.12499 1.5585906,-1.68749 2.636719,-1.6875 1.0312445,10e-6 1.8867124,0.53907 2.5664063,1.61718 0.6796797,1.07814 1.0195231,2.57814 1.0195312,4.5 -8.1e-6,1.92188 -0.3398515,3.4336 -1.0195312,4.53516 -0.6796939,1.10156 -1.5351618,1.65235 -2.5664063,1.65234 z"
         style="font-size:18px;font-variant:normal;font-stretch:normal;text-align:center;text-anchor:middle;font-family:SimSun;-inkscape-font-specification:SimSun"
         id="path3107" />
      <path
         d="m 14.578125,574.32031 c -9e-6,-0.42187 -0.02345,-1.05468 -0.07031,-1.89844 l 0.773437,0.49219 2.671875,-2.39062 -5.765625,0 c -0.609381,10e-6 -1.17188,0.0703 -1.6875,0.21093 l -0.6328125,-0.63281 8.0859375,0 0.773437,-0.77344 1.265625,1.33594 c -0.796888,0.0938 -2.273449,0.91407 -4.429687,2.46094 l 0.5625,0.35156 -0.5625,0.42188 0,0.42187 5.0625,0 1.125,-0.98437 1.40625,1.40625 -7.59375,0 0,4.5 c 0.04687,0.89062 -0.468759,1.52343 -1.546875,1.89843 -0.187508,-0.65625 -1.031257,-1.17187 -2.53125,-1.54687 l 0,-0.35156 c 1.453118,0.1875 2.332023,0.26953 2.636719,0.24609 0.304679,-0.0234 0.457022,-0.19922 0.457031,-0.52734 l 0,-4.21875 -5.484375,0 c -0.6093775,0 -1.1718769,0.0703 -1.6875,0.21093 l -0.6328125,-0.63281 z m 0.949219,-7.13672 c -0.351572,0.35158 -0.609384,0.22267 -0.773438,-0.38672 -0.164071,-0.60936 -0.597664,-1.33592 -1.300781,-2.17968 l 0.140625,-0.14063 c 1.265616,0.60939 1.992178,1.12502 2.179688,1.54688 0.18749,0.42189 0.105458,0.8086 -0.246094,1.16015 z m -0.597656,0.38672 0.632812,0 5.0625,0 0.632812,-0.84375 1.40625,1.26563 c -0.937515,0.14063 -1.828139,0.79688 -2.671875,1.96875 l -0.210937,-0.14063 0.914062,-1.82812 -11.2499995,0 c 0.093746,0.84376 0.023434,1.42969 -0.2109375,1.75781 -0.234378,0.32813 -0.5976589,0.46876 -1.0898437,0.42187 -0.4921892,-0.0469 -0.5976578,-0.23436 -0.3164063,-0.5625 0.2812479,-0.32811 0.5273414,-0.67967 0.7382813,-1.05468 0.2109347,-0.37499 0.3867157,-0.96093 0.5273437,-1.75782 l 0.28125,0 0.070312,0.77344 z"
         style="font-size:18px;font-variant:normal;font-stretch:normal;text-align:center;text-anchor:middle;font-family:SimSun;-inkscape-font-specification:SimSun"
         id="path3109" />
      <path
         d="m 34.335937,576.71094 c 1.453114,0.1875 2.343738,0.28125 2.671875,0.28125 0.328112,0 0.492174,-0.1875 0.492188,-0.5625 l 0,-4.85157 -4.921875,0 0,6.53907 c -9e-6,0.84375 0.02343,1.61718 0.07031,2.32031 l -1.125,0.63281 c 0.04687,-1.07812 0.0703,-2.10937 0.07031,-3.09375 l 0,-6.39844 -3.09375,0 c -0.609379,10e-6 -1.171878,0.0703 -1.6875,0.21094 l -0.632813,-0.63281 11.109375,0 0.773438,-0.77344 1.054687,0.98438 -0.5625,0.49218 0,4.85157 c -1.4e-5,0.46875 -0.09376,0.84375 -0.28125,1.125 -0.187514,0.28125 -0.585951,0.5625 -1.195312,0.84375 -0.328138,-0.79688 -1.242199,-1.33594 -2.742188,-1.61719 z m 0.84375,-9.07032 c -1.1e-5,-1.03123 -0.02345,-1.96873 -0.07031,-2.8125 l 1.6875,0.84375 -0.632813,0.42188 0,1.54687 2.179688,0 1.265625,-1.125 1.476562,1.54688 -4.921875,0 c -1.2e-5,0.65626 0.02343,1.2422 0.07031,1.75781 l -1.054688,0.49219 0,-2.25 -4.007812,0 0,1.89844 -1.054688,0.5625 c 0.04687,-0.84374 0.07031,-1.66405 0.07031,-2.46094 l -3.164063,0 c -0.609377,10e-6 -1.171876,0.0703 -1.6875,0.21094 l -0.632812,-0.63282 5.484375,0 c -6e-6,-1.07811 -0.02344,-1.99217 -0.07031,-2.74218 l 1.617188,0.77343 -0.5625,0.49219 0,1.47656 z"
         style="font-size:18px;font-variant:normal;font-stretch:normal;text-align:center;text-anchor:middle;font-family:SimSun;-inkscape-font-specification:SimSun"
         id="path3111" />
      <path
         d="m 48.574219,576.85156 c -0.773444,0.98438 -1.617193,1.7461 -2.53125,2.28516 -0.914066,0.53906 -1.382815,0.75 -1.40625,0.63281 -0.02344,-0.11719 0.304684,-0.42187 0.984375,-0.91406 0.679683,-0.49219 1.382807,-1.28906 2.109375,-2.39063 0.726556,-1.10155 1.042962,-2.3789 0.949218,-3.83203 -0.09376,-1.45311 -0.457037,-2.66014 -1.089843,-3.62109 -0.632818,-0.96093 -1.289067,-1.72265 -1.96875,-2.28516 -0.679691,-0.56248 -1.007815,-0.90233 -0.984375,-1.01953 0.02343,-0.11717 0.468747,0.1172 1.335937,0.70313 0.867183,0.58595 1.722651,1.45313 2.566406,2.60156 0.843743,1.14845 1.253899,2.4961 1.230469,4.04297 -0.02345,1.54688 -0.421882,2.8125 -1.195312,3.79687 z"
         style="font-size:18px;font-variant:normal;font-stretch:normal;text-align:center;text-anchor:middle;font-family:SimSun;-inkscape-font-specification:SimSun"
         id="path3113" />
    </g>
    <g
       style="font-size:40px;font-style:normal;font-weight:normal;line-height:125%;letter-spacing:0px;word-spacing:0px;fill:#000000;fill-opacity:1;stroke:none;font-family:Sans"
       id="text3094-4-4-5-6">
      <path
         d="m 211.84375,542.25781 0.21094,-0.14062 c 0.98436,0.51564 1.65233,0.98439 2.0039,1.40625 0.35155,0.42189 0.32812,0.89063 -0.0703,1.40625 -0.39845,0.51563 -0.6797,0.4336 -0.84375,-0.2461 -0.16407,-0.67967 -0.59767,-1.48826 -1.30078,-2.42578 z m -2.95313,3.16406 7.875,0 0.91407,-0.91406 1.33593,1.33594 -7.80468,0 c -0.75001,10e-6 -1.31251,0.0703 -1.6875,0.21094 z m 2.8125,0.98438 1.40625,0.98437 c -0.46876,0.14064 -1.08985,0.65626 -1.86328,1.54688 -0.77344,0.89063 -1.62891,1.64063 -2.5664,2.25 l -0.14063,-0.21094 c 0.60937,-0.56249 1.20703,-1.27733 1.79297,-2.14453 0.58593,-0.86718 1.04296,-1.67577 1.37109,-2.42578 z m 2.95313,0.35156 c 2.10936,0.93751 3.26952,1.62892 3.48047,2.07422 0.21092,0.44532 0.21092,0.92579 0,1.44141 -0.21095,0.51563 -0.53908,0.375 -0.98438,-0.42188 -0.44532,-0.79686 -1.32423,-1.7578 -2.63672,-2.88281 z m 0.63281,2.88281 1.54688,1.05469 c -0.37502,0.0938 -0.79689,0.63282 -1.26563,1.61719 -0.46876,0.98438 -1.03126,1.89844 -1.6875,2.74219 1.68749,1.35937 3.49217,2.0625 5.41406,2.10937 l 0,0.28125 c -0.79689,0.1875 -1.21876,0.51563 -1.26562,0.98438 -2.01564,-0.60938 -3.58595,-1.52344 -4.71094,-2.74219 -1.73438,1.40625 -3.70313,2.34375 -5.90625,2.8125 l -0.14062,-0.21094 c 2.39061,-0.84375 4.21874,-1.92187 5.48437,-3.23437 -0.65626,-0.98437 -1.33594,-2.57812 -2.03906,-4.78125 L 211,550.20312 c 0.74999,1.92188 1.49999,3.32813 2.25,4.21875 0.89061,-1.26562 1.5703,-2.85936 2.03906,-4.78125 z m -8.57812,5.13282 c -1e-5,0.65625 0.0234,1.75781 0.0703,3.30468 l -1.125,0.49219 c 0.0469,-2.67187 0.0703,-5.48437 0.0703,-8.4375 -0.65625,1.59376 -1.57031,3.11719 -2.74219,4.57031 l -0.21093,-0.21093 c 1.3125,-2.10937 2.29687,-4.64062 2.95312,-7.59375 l -1.6875,0 -0.70312,0.14062 -0.5625,-0.5625 2.95312,0 c 0,-1.26561 -0.0234,-2.6953 -0.0703,-4.28906 l 1.6875,0.84375 -0.63281,0.42187 0,3.02344 0.91406,0 0.77344,-0.77344 1.19531,1.19532 -2.88281,0 0,1.19531 c 0.89062,0.32813 1.49999,0.65626 1.82812,0.98437 0.32812,0.32814 0.375,0.76173 0.14063,1.30079 -0.23438,0.53906 -0.4922,0.49219 -0.77344,-0.14063 -0.28126,-0.6328 -0.67969,-1.20702 -1.19531,-1.72266 z"
         style="font-size:18px;font-variant:normal;font-stretch:normal;text-align:center;text-anchor:middle;font-family:SimSun;-inkscape-font-specification:SimSun"
         id="path3070" />
      <path
         d="m 231.39062,542.11719 1.40625,0.84375 -0.5625,0.35156 c 1.31249,2.95314 2.97655,4.66407 4.99219,5.13281 l 0,0.21094 c -0.70314,0.0938 -1.14845,0.37501 -1.33594,0.84375 -1.78126,-1.35937 -3.07032,-3.35155 -3.86718,-5.97656 -1.31251,2.81251 -2.95314,4.92188 -4.92188,6.32812 l -0.14062,-0.21094 c 1.12499,-1.12499 2.08593,-2.41405 2.88281,-3.86718 0.79686,-1.45312 1.31249,-2.67186 1.54687,-3.65625 z m -2.88281,6.82031 4.57031,0 0.84375,-0.84375 1.125,1.26562 -4.21875,0 c -0.60938,10e-6 -1.17188,0.0703 -1.6875,0.21094 z m -0.28125,2.25 0.21094,-0.14063 c 0.89062,1.40626 1.41796,2.37891 1.58203,2.91797 0.16405,0.53907 0.14062,0.9961 -0.0703,1.3711 -0.21095,0.375 -0.42189,0.55078 -0.63281,0.52734 -0.21095,-0.0234 -0.33986,-0.45703 -0.38672,-1.30078 -0.0469,-0.84375 -0.28126,-1.96875 -0.70313,-3.375 z m 2.03906,-0.63281 0.21094,-0.14063 c 1.21874,1.54688 1.87499,2.64844 1.96875,3.30469 0.0937,0.65625 -0.0469,1.125 -0.42187,1.40625 -0.37501,0.28125 -0.58595,0.0937 -0.63282,-0.5625 -0.0469,-0.65625 -0.18751,-1.37109 -0.42187,-2.14453 -0.23439,-0.77343 -0.46876,-1.39453 -0.70313,-1.86328 z m 4.28907,-0.21094 1.47656,0.98437 c -0.32814,0.14064 -0.6797,0.64454 -1.05469,1.51172 -0.37501,0.86719 -0.98439,2.33204 -1.82812,4.39453 l 1.75781,0 0.98437,-0.98437 1.26563,1.40625 -7.66406,0 c -0.60939,0 -1.17189,0.0703 -1.6875,0.21094 l -0.63282,-0.63282 5.55469,0 c 1.21874,-3.84374 1.82811,-6.14061 1.82813,-6.89062 z m -13.42969,-6.67969 4.35937,0 0.5625,-0.70312 1.05469,0.91406 -0.63281,0.42187 -0.70313,6.11719 0.49219,0 0.42188,-0.5625 1.05468,0.84375 -0.5625,0.42188 c -0.23438,2.85938 -0.46875,4.59375 -0.70312,5.20312 -0.23438,0.60938 -0.53907,1.04297 -0.91406,1.30078 -0.37501,0.25782 -0.77344,0.4336 -1.19532,0.52735 -0.0469,-0.65625 -0.72656,-1.19532 -2.03906,-1.61719 l 0.0703,-0.28125 c 1.3125,0.28125 2.13281,0.41016 2.46094,0.38672 0.32812,-0.0234 0.59765,-0.375 0.8086,-1.05469 0.21093,-0.67968 0.41015,-2.26171 0.59765,-4.74609 l -3.44531,0 -0.49219,0.5625 -0.91406,-0.84375 0.49219,-0.28125 c 0.375,-2.67187 0.58593,-4.42968 0.63281,-5.27344 l 1.40625,0.77344 -0.5625,0.42187 -0.5625,4.21875 2.03906,0 0.70313,-6.32812 -2.10938,0 c -0.60938,10e-6 -1.17187,0.0703 -1.6875,0.21093 z m -0.49219,10.125 c 0.9375,-0.0937 2.60156,-0.37499 4.99219,-0.84375 l 0.0703,0.28125 c -2.67188,0.79688 -4.10156,1.38282 -4.28906,1.75781 z"
         style="font-size:18px;font-variant:normal;font-stretch:normal;text-align:center;text-anchor:middle;font-family:SimSun;-inkscape-font-specification:SimSun"
         id="path3072" />
      <path
         d="m 244.32812,549.85156 c 0,4.31251 0.0234,6.96094 0.0703,7.94531 l -1.125,0.5625 c 0.0469,-1.40625 0.0703,-4.24218 0.0703,-8.50781 -0.5625,1.07813 -1.21875,2.07423 -1.96875,2.98828 -0.75,0.91407 -1.57031,1.72266 -2.46094,2.42578 l -0.14062,-0.21093 c 1.07812,-1.17187 1.96874,-2.3789 2.67187,-3.6211 0.70312,-1.24218 1.21875,-2.40233 1.54688,-3.48047 l -2.39063,0 -0.63281,0.14063 -0.5625,-0.5625 3.9375,0 0,-3.16406 c -0.65625,0.0938 -1.85157,0.21095 -3.58594,0.35156 l 0,-0.28125 c 1.59375,-0.23436 2.90625,-0.50389 3.9375,-0.80859 1.03125,-0.30468 1.92187,-0.6914 2.67188,-1.16016 l 0.98437,1.26562 c -1.26563,0.14064 -2.27344,0.30471 -3.02344,0.49219 l 0,3.30469 1.6875,0 0.77344,-0.77344 1.125,1.19531 -3.58594,0 0,1.54688 c 1.78125,0.56251 2.76562,1.07813 2.95313,1.54687 0.18749,0.46876 0.18749,0.8672 0,1.19532 -0.18751,0.32813 -0.42188,0.25781 -0.70313,-0.21094 -0.28125,-0.46874 -1.03125,-1.19531 -2.25,-2.17969 z m 9.63282,-4.35937 c -2e-5,5.29688 0.0234,8.625 0.0703,9.98437 l -1.05469,0.42188 0,-1.47657 -3.58594,0 0,1.61719 -1.05468,0.49219 c 0.0469,-2.0625 0.0703,-4.2539 0.0703,-6.57422 -1e-5,-2.3203 -0.0234,-4.27733 -0.0703,-5.87109 l 1.05468,0.70312 3.44532,0 0.70312,-0.70312 0.98438,0.98437 z m -4.57032,-0.28125 0,8.78906 3.58594,0 0,-8.78906 z"
         style="font-size:18px;font-variant:normal;font-stretch:normal;text-align:center;text-anchor:middle;font-family:SimSun;-inkscape-font-specification:SimSun"
         id="path3074" />
      <path
         d="m 198.30859,578.75 c 0.72655,0.5625 1.04296,0.89062 0.94922,0.98437 -0.0938,0.0937 -0.53907,-0.1289 -1.33594,-0.66796 -0.79688,-0.53907 -1.5586,-1.25391 -2.28515,-2.14454 -0.72657,-0.89062 -1.14845,-2.06249 -1.26563,-3.51562 -0.11719,-1.45312 0.17577,-2.7539 0.87891,-3.90234 0.70311,-1.14843 1.53514,-2.06249 2.49609,-2.74219 0.96093,-0.67968 1.45311,-0.96093 1.47657,-0.84375 0.0234,0.1172 -0.29299,0.44532 -0.94922,0.98437 -0.65627,0.53908 -1.3008,1.3008 -1.9336,2.28516 -0.63282,0.98438 -0.94923,2.25001 -0.94922,3.79687 -1e-5,1.54688 0.30468,2.75391 0.91407,3.6211 0.60936,0.86719 1.27733,1.58203 2.0039,2.14453 z"
         style="font-size:18px;font-variant:normal;font-stretch:normal;text-align:center;text-anchor:middle;font-family:SimSun;-inkscape-font-specification:SimSun"
         id="path3076" />
      <path
         d="m 208.53906,569.96094 c 0,-0.84374 -0.1875,-1.48827 -0.5625,-1.9336 -0.375,-0.4453 -0.9375,-0.66795 -1.6875,-0.66797 -0.5625,2e-5 -1.04297,0.15236 -1.4414,0.45704 -0.39844,0.30469 -0.59766,0.69141 -0.59766,1.16015 0,0.28126 0.082,0.51564 0.24609,0.70313 0.16406,0.18751 0.24609,0.37501 0.2461,0.5625 -1e-5,0.23438 -0.0586,0.41016 -0.17578,0.52734 -0.11719,0.1172 -0.29297,0.17579 -0.52735,0.17578 -0.28125,1e-5 -0.50391,-0.082 -0.66797,-0.24609 -0.16406,-0.16405 -0.24609,-0.43359 -0.24609,-0.8086 0,-0.98436 0.35156,-1.73436 1.05469,-2.25 0.70312,-0.51561 1.45312,-0.77342 2.25,-0.77343 1.12499,10e-6 1.95702,0.28126 2.49609,0.84375 0.53906,0.56251 0.80859,1.26563 0.80859,2.10937 0,0.56251 -0.12891,1.12501 -0.38671,1.6875 -0.25782,0.56251 -0.66798,1.10157 -1.23047,1.61719 -1.35938,1.3125 -2.40235,2.37891 -3.12891,3.19922 -0.72656,0.82031 -1.16016,1.37109 -1.30078,1.65234 l 4.14844,0 c 0.42187,0 0.77343,-0.16406 1.05468,-0.49219 0.28125,-0.32812 0.46875,-0.8203 0.5625,-1.47656 l 0.42188,0 -0.42188,3.02344 -6.53906,0 0,-0.91406 c 0.23438,-0.42188 0.62109,-0.96094 1.16016,-1.61719 0.53906,-0.65625 1.2539,-1.42968 2.14453,-2.32031 0.79687,-0.79687 1.38281,-1.54687 1.75781,-2.25 0.375,-0.70312 0.5625,-1.35937 0.5625,-1.96875 z"
         style="font-size:18px;font-variant:normal;font-stretch:normal;text-align:center;text-anchor:middle;font-family:SimSun;-inkscape-font-specification:SimSun"
         id="path3078" />
      <path
         d="m 228.57812,574.32031 c 0,-0.42187 -0.0234,-1.05468 -0.0703,-1.89844 l 0.77344,0.49219 2.67187,-2.39062 -5.76562,0 c -0.60938,10e-6 -1.17188,0.0703 -1.6875,0.21093 l -0.63281,-0.63281 8.08593,0 0.77344,-0.77344 1.26563,1.33594 c -0.79689,0.0938 -2.27345,0.91407 -4.42969,2.46094 l 0.5625,0.35156 -0.5625,0.42188 0,0.42187 5.0625,0 1.125,-0.98437 1.40625,1.40625 -7.59375,0 0,4.5 c 0.0469,0.89062 -0.46876,1.52343 -1.54688,1.89843 -0.1875,-0.65625 -1.03125,-1.17187 -2.53125,-1.54687 l 0,-0.35156 c 1.45312,0.1875 2.33203,0.26953 2.63672,0.24609 0.30468,-0.0234 0.45703,-0.19922 0.45703,-0.52734 l 0,-4.21875 -5.48437,0 c -0.60938,0 -1.17188,0.0703 -1.6875,0.21093 l -0.63281,-0.63281 z m 0.94922,-7.13672 c -0.35157,0.35158 -0.60938,0.22267 -0.77343,-0.38672 -0.16407,-0.60936 -0.59767,-1.33592 -1.30079,-2.17968 l 0.14063,-0.14063 c 1.26562,0.60939 1.99218,1.12502 2.17969,1.54688 0.18749,0.42189 0.10546,0.8086 -0.2461,1.16015 z m -0.59765,0.38672 0.63281,0 5.0625,0 0.63281,-0.84375 1.40625,1.26563 c -0.93751,0.14063 -1.82814,0.79688 -2.67187,1.96875 l -0.21094,-0.14063 0.91406,-1.82812 -11.25,0 c 0.0937,0.84376 0.0234,1.42969 -0.21094,1.75781 -0.23437,0.32813 -0.59765,0.46876 -1.08984,0.42187 -0.49219,-0.0469 -0.59766,-0.23436 -0.31641,-0.5625 0.28125,-0.32811 0.52735,-0.67967 0.73829,-1.05468 0.21093,-0.37499 0.38671,-0.96093 0.52734,-1.75782 l 0.28125,0 0.0703,0.77344 z"
         style="font-size:18px;font-variant:normal;font-stretch:normal;text-align:center;text-anchor:middle;font-family:SimSun;-inkscape-font-specification:SimSun"
         id="path3080" />
      <path
         d="m 248.33594,576.71094 c 1.45311,0.1875 2.34373,0.28125 2.67187,0.28125 0.32811,0 0.49218,-0.1875 0.49219,-0.5625 l 0,-4.85157 -4.92188,0 0,6.53907 c 0,0.84375 0.0234,1.61718 0.0703,2.32031 l -1.125,0.63281 c 0.0469,-1.07812 0.0703,-2.10937 0.0703,-3.09375 l 0,-6.39844 -3.09375,0 c -0.60938,10e-6 -1.17188,0.0703 -1.6875,0.21094 l -0.63281,-0.63281 11.10937,0 0.77344,-0.77344 1.05469,0.98438 -0.5625,0.49218 0,4.85157 c -2e-5,0.46875 -0.0938,0.84375 -0.28125,1.125 -0.18752,0.28125 -0.58595,0.5625 -1.19532,0.84375 -0.32813,-0.79688 -1.24219,-1.33594 -2.74218,-1.61719 z m 0.84375,-9.07032 c -1e-5,-1.03123 -0.0234,-1.96873 -0.0703,-2.8125 l 1.6875,0.84375 -0.63281,0.42188 0,1.54687 2.17969,0 1.26562,-1.125 1.47657,1.54688 -4.92188,0 c -1e-5,0.65626 0.0234,1.2422 0.0703,1.75781 l -1.05468,0.49219 0,-2.25 -4.00782,0 0,1.89844 -1.05468,0.5625 c 0.0469,-0.84374 0.0703,-1.66405 0.0703,-2.46094 l -3.16406,0 c -0.60938,10e-6 -1.17188,0.0703 -1.6875,0.21094 l -0.63282,-0.63282 5.48438,0 c -1e-5,-1.07811 -0.0234,-1.99217 -0.0703,-2.74218 l 1.61718,0.77343 -0.5625,0.49219 0,1.47656 z"
         style="font-size:18px;font-variant:normal;font-stretch:normal;text-align:center;text-anchor:middle;font-family:SimSun;-inkscape-font-specification:SimSun"
         id="path3082" />
      <path
         d="m 262.57422,576.85156 c -0.77344,0.98438 -1.61719,1.7461 -2.53125,2.28516 -0.91407,0.53906 -1.38282,0.75 -1.40625,0.63281 -0.0234,-0.11719 0.30468,-0.42187 0.98437,-0.91406 0.67969,-0.49219 1.38281,-1.28906 2.10938,-2.39063 0.72655,-1.10155 1.04296,-2.3789 0.94922,-3.83203 -0.0938,-1.45311 -0.45704,-2.66014 -1.08985,-3.62109 -0.63281,-0.96093 -1.28906,-1.72265 -1.96875,-2.28516 -0.67969,-0.56248 -1.00781,-0.90233 -0.98437,-1.01953 0.0234,-0.11717 0.46875,0.1172 1.33594,0.70313 0.86718,0.58595 1.72265,1.45313 2.5664,2.60156 0.84375,1.14845 1.2539,2.4961 1.23047,4.04297 -0.0234,1.54688 -0.42188,2.8125 -1.19531,3.79687 z"
         style="font-size:18px;font-variant:normal;font-stretch:normal;text-align:center;text-anchor:middle;font-family:SimSun;-inkscape-font-specification:SimSun"
         id="path3084" />
    </g>
  </g>
</svg>
