<?xml version="1.0" encoding="UTF-8" standalone="no"?>
<svg
   width="737.83"
   height="433.14"
   viewBox="0 0 195.22 114.6"
   version="1.1"
   id="svg7743"
   sodipodi:docname="isns_a-2.svg"
   inkscape:version="1.2.1 (9c6d41e410, 2022-07-14)"
   xmlns:inkscape="http://www.inkscape.org/namespaces/inkscape"
   xmlns:sodipodi="http://sodipodi.sourceforge.net/DTD/sodipodi-0.dtd"
   xmlns="http://www.w3.org/2000/svg"
   xmlns:svg="http://www.w3.org/2000/svg">
  <sodipodi:namedview
     id="namedview7909"
     pagecolor="#ffffff"
     bordercolor="#000000"
     borderopacity="0.25"
     inkscape:showpageshadow="2"
     inkscape:pageopacity="0.0"
     inkscape:pagecheckerboard="0"
     inkscape:deskcolor="#d1d1d1"
     showgrid="false"
     inkscape:zoom="1.8792999"
     inkscape:cx="368.75434"
     inkscape:cy="216.57001"
     inkscape:window-width="1920"
     inkscape:window-height="1017"
     inkscape:window-x="-8"
     inkscape:window-y="-8"
     inkscape:window-maximized="1"
     inkscape:current-layer="text957-9" />
  <defs
     id="defs7737">
    <marker
       id="DotL"
       refX="0"
       refY="0"
       orient="auto"
       overflow="visible">
      <path
         d="M3.92 0a4 4 0 1 1-8 0 4 4 0 0 1 8 0z"
         id="path965"
         fill="#0c322c"
         fill-opacity="1"
         fill-rule="evenodd"
         stroke="#0c322c"
         stroke-width=".8pt"
         stroke-opacity="1" />
    </marker>
    <marker
       markerWidth="7.12"
       markerHeight="11.41"
       refX="3.56"
       refY="5.71"
       orient="auto"
       id="marker840">
      <path
         d="m.7.7 5 5-5 5"
         id="path838"
         fill="none"
         stroke="#0c322c"
         stroke-width="2"
         stroke-linecap="butt"
         stroke-linejoin="miter"
         stroke-miterlimit="4"
         stroke-dasharray="none"
         stroke-opacity="1" />
    </marker>
    <marker
       markerWidth="3.06"
       markerHeight="4.71"
       refX="1.53"
       refY="2.35"
       orient="auto"
       id="marker868">
      <path
         d="m2.7.35-2 2 2 2"
         id="path851-3"
         fill="none"
         stroke="#000"
         stroke-width="1"
         stroke-linecap="butt"
         stroke-linejoin="miter"
         stroke-opacity="1" />
    </marker>
    <marker
       markerWidth="3.06"
       markerHeight="4.71"
       refX="1.53"
       refY="2.35"
       orient="auto"
       id="marker883">
      <path
         d="m.35.35 2 2-2 2"
         id="path851"
         fill="none"
         stroke="#000"
         stroke-width="1"
         stroke-linecap="butt"
         stroke-linejoin="miter"
         stroke-opacity="1" />
    </marker>
    <marker
       markerWidth="3.06"
       markerHeight="4.71"
       refX="1.53"
       refY="2.35"
       orient="auto"
       id="marker8684506">
      <path
         d="m2.7.35-2 2 2 2"
         id="path1208"
         fill="#0c322c"
         stroke="#000"
         stroke-width="1"
         stroke-linecap="butt"
         stroke-linejoin="miter"
         stroke-opacity="1" />
    </marker>
    <marker
       markerWidth="3.06"
       markerHeight="4.71"
       refX="1.53"
       refY="2.35"
       orient="auto"
       id="marker8839976">
      <path
         d="m.35.35 2 2-2 2"
         id="path1211"
         fill="#0c322c"
         stroke="#000"
         stroke-width="1"
         stroke-linecap="butt"
         stroke-linejoin="miter"
         stroke-opacity="1" />
    </marker>
    <marker
       markerWidth="3.06"
       markerHeight="4.71"
       refX="1.53"
       refY="2.35"
       orient="auto"
       id="marker86845062245">
      <path
         d="m2.7.35-2 2 2 2"
         id="path1299"
         fill="#fff"
         stroke="#000"
         stroke-width="1"
         stroke-linecap="butt"
         stroke-linejoin="miter"
         stroke-opacity="1" />
    </marker>
    <marker
       markerWidth="3.06"
       markerHeight="4.71"
       refX="1.53"
       refY="2.35"
       orient="auto"
       id="marker88399767239">
      <path
         d="m.35.35 2 2-2 2"
         id="path1302"
         fill="#fff"
         stroke="#000"
         stroke-width="1"
         stroke-linecap="butt"
         stroke-linejoin="miter"
         stroke-opacity="1" />
    </marker>
    <marker
       markerWidth="3.06"
       markerHeight="4.71"
       refX="1.53"
       refY="2.35"
       orient="auto"
       id="marker868450622454738">
      <path
         d="m2.7.35-2 2 2 2"
         id="path1414"
         fill="#fff"
         stroke="#0c322c"
         stroke-width="1"
         stroke-linecap="butt"
         stroke-linejoin="miter"
         stroke-opacity="1" />
    </marker>
    <marker
       markerWidth="3.06"
       markerHeight="4.71"
       refX="1.53"
       refY="2.35"
       orient="auto"
       id="marker883997672393450">
      <path
         d="m.35.35 2 2-2 2"
         id="path1417"
         fill="#fff"
         stroke="#0c322c"
         stroke-width="1"
         stroke-linecap="butt"
         stroke-linejoin="miter"
         stroke-opacity="1" />
    </marker>
    <marker
       markerWidth="3.06"
       markerHeight="4.71"
       refX="1.53"
       refY="2.35"
       orient="auto"
       id="marker8684112">
      <path
         d="m2.7.35-2 2 2 2"
         id="path2096"
         fill="#fff"
         fill-opacity="0"
         stroke="#0c322c"
         stroke-width="1"
         stroke-linecap="butt"
         stroke-linejoin="miter"
         stroke-opacity="1" />
    </marker>
    <marker
       markerWidth="3.06"
       markerHeight="4.71"
       refX="1.53"
       refY="2.35"
       orient="auto"
       id="marker8834579">
      <path
         d="m.35.35 2 2-2 2"
         id="path2099"
         fill="#fff"
         fill-opacity="0"
         stroke="#0c322c"
         stroke-width="1"
         stroke-linecap="butt"
         stroke-linejoin="miter"
         stroke-opacity="1" />
    </marker>
    <marker
       markerWidth="3.06"
       markerHeight="4.71"
       refX="1.53"
       refY="2.35"
       orient="auto"
       id="marker8836481">
      <path
         d="m.35.35 2 2-2 2"
         id="path2261"
         fill="#fff"
         fill-opacity="0"
         stroke="#0c322c"
         stroke-width="1"
         stroke-linecap="butt"
         stroke-linejoin="miter"
         stroke-opacity="1" />
    </marker>
    <marker
       markerWidth="3.06"
       markerHeight="4.71"
       refX="1.53"
       refY="2.35"
       orient="auto"
       id="marker8836481-7">
      <path
         d="m.35.35 2 2-2 2"
         id="path2261-5"
         fill="#fff"
         fill-opacity="0"
         stroke="#0c322c"
         stroke-width="1"
         stroke-linecap="butt"
         stroke-linejoin="miter"
         stroke-opacity="1" />
    </marker>
    <marker
       markerWidth="3.06"
       markerHeight="4.71"
       refX="1.53"
       refY="2.35"
       orient="auto"
       id="marker8831574">
      <path
         d="m.35.35 2 2-2 2"
         id="path1828"
         fill="none"
         stroke="#fe7c3f"
         stroke-width="1"
         stroke-linecap="butt"
         stroke-linejoin="miter"
         stroke-opacity="1" />
    </marker>
    <marker
       markerWidth="3.06"
       markerHeight="4.71"
       refX="1.53"
       refY="2.35"
       orient="auto"
       id="marker8839258">
      <path
         d="m.35.35 2 2-2 2"
         id="path1831"
         fill="none"
         stroke="#fe7c3f"
         stroke-width="1"
         stroke-linecap="butt"
         stroke-linejoin="miter"
         stroke-opacity="1" />
    </marker>
    <marker
       markerWidth="3.06"
       markerHeight="4.71"
       refX="1.53"
       refY="2.35"
       orient="auto"
       id="marker8836999">
      <path
         d="m.35.35 2 2-2 2"
         id="path1834"
         fill="none"
         stroke="#fe7c3f"
         stroke-width="1"
         stroke-linecap="butt"
         stroke-linejoin="miter"
         stroke-opacity="1" />
    </marker>
    <marker
       markerWidth="3.06"
       markerHeight="4.71"
       refX="1.53"
       refY="2.35"
       orient="auto"
       id="marker8836252">
      <path
         d="m.35.35 2 2-2 2"
         id="path2077"
         fill="none"
         stroke="#30ba78"
         stroke-width="1"
         stroke-linecap="butt"
         stroke-linejoin="miter"
         stroke-opacity="1" />
    </marker>
    <marker
       markerWidth="3.06"
       markerHeight="4.71"
       refX="1.53"
       refY="2.35"
       orient="auto"
       id="marker8838541">
      <path
         d="m.35.35 2 2-2 2"
         id="path2080"
         fill="none"
         stroke="#30ba78"
         stroke-width="1"
         stroke-linecap="butt"
         stroke-linejoin="miter"
         stroke-opacity="1" />
    </marker>
    <marker
       markerWidth="3.06"
       markerHeight="4.71"
       refX="1.53"
       refY="2.35"
       orient="auto"
       id="marker883688">
      <path
         d="m.35.35 2 2-2 2"
         id="path2083"
         fill="none"
         stroke="#30ba78"
         stroke-width="1"
         stroke-linecap="butt"
         stroke-linejoin="miter"
         stroke-opacity="1" />
    </marker>
    <marker
       markerWidth="3.06"
       markerHeight="4.71"
       refX="1.53"
       refY="2.35"
       orient="auto"
       id="marker8839906">
      <path
         d="m.35.35 2 2-2 2"
         id="path2086"
         fill="none"
         stroke="#30ba78"
         stroke-width="1"
         stroke-linecap="butt"
         stroke-linejoin="miter"
         stroke-opacity="1" />
    </marker>
    <marker
       markerWidth="3.06"
       markerHeight="4.71"
       refX="1.53"
       refY="2.35"
       orient="auto"
       id="marker8835795">
      <path
         d="m.35.35 2 2-2 2"
         id="path2089"
         fill="none"
         stroke="#30ba78"
         stroke-width="1"
         stroke-linecap="butt"
         stroke-linejoin="miter"
         stroke-opacity="1" />
    </marker>
    <marker
       markerWidth="3.06"
       markerHeight="4.71"
       refX="1.53"
       refY="2.35"
       orient="auto"
       id="marker8831574-0">
      <path
         d="m.35.35 2 2-2 2"
         id="path1828-2"
         fill="none"
         stroke="#fe7c3f"
         stroke-width="1"
         stroke-linecap="butt"
         stroke-linejoin="miter"
         stroke-opacity="1" />
    </marker>
  </defs>
  <g
     id="layer1"
     transform="translate(-8.5 -27.8)">
    <g
       id="g1600"
       transform="translate(97.5 72.98) scale(.48106)"
       fill="#0c322c">
      <g
         id="g7898"
         transform="translate(-306.68 76.85) scale(2.52695)">
        <g
           id="g7960"
           transform="translate(0 -21.48)"
           stroke-width=".65"
           stroke-miterlimit="4"
           stroke-dasharray="none">
          <path
             id="rect2335"
             style="fill:#ffffff;stroke-linecap:square;paint-order:fill markers stroke;stop-color:#000000"
             d="m 50.32,27.110001 h 16.5 v 16.5 h -16.5 z" />
          <path
             d="M50.87 27.66v15.95Z"
             id="path939"
             fill="#fff"
             fill-opacity="1"
             stroke="#2453ff"
             stroke-width=".65"
             stroke-linecap="round"
             stroke-linejoin="round"
             stroke-miterlimit="4"
             stroke-dasharray="none"
             stroke-opacity="1" />
          <path
             d="m66.27 27.11-.02 16.5Z"
             id="path937"
             fill="#2453ff"
             fill-opacity="1"
             stroke="#2453ff"
             stroke-width=".65"
             stroke-linecap="round"
             stroke-linejoin="round"
             stroke-miterlimit="4"
             stroke-dasharray="none"
             stroke-opacity="1" />
          <path
             d="M58.57 24.91c-4.25 0-7.7 1.1-7.7 2.48 0 1.36 3.45 2.47 7.7 2.47s7.7-1.1 7.7-2.47-3.45-2.48-7.7-2.48z"
             id="path2144"
             fill="#fff"
             fill-opacity="1"
             stroke="#2453ff"
             stroke-width=".65"
             stroke-linecap="round"
             stroke-linejoin="miter"
             stroke-miterlimit="4"
             stroke-dasharray="none"
             stroke-opacity="1" />
          <path
             d="M50.87 43.61c3.3 2.75 11.55 2.75 15.4 0"
             id="path2153"
             fill="#fff"
             fill-opacity="1"
             stroke="#2453ff"
             stroke-width=".65"
             stroke-linecap="round"
             stroke-linejoin="miter"
             stroke-miterlimit="4"
             stroke-dasharray="none"
             stroke-opacity="1" />
        </g>
        <g
           id="g7946"
           transform="translate(16.17 -20.2)"
           stroke-width=".65"
           stroke-miterlimit="4"
           stroke-dasharray="none">
          <g
             id="g7953"
             transform="translate(-38.15 -5.64)"
             stroke-width=".65"
             stroke-miterlimit="4"
             stroke-dasharray="none">
            <path
               id="rect2335-2"
               style="fill:#ffffff;stroke-linecap:square;paint-order:fill markers stroke;stop-color:#000000"
               d="m 117.79,31.459999 h 16.5 v 16.5 h -16.5 z" />
            <path
               d="M118.34 32.01v15.95Z"
               id="path939-0"
               fill="#fff"
               fill-opacity="1"
               stroke="#2453ff"
               stroke-width=".65"
               stroke-linecap="round"
               stroke-linejoin="round"
               stroke-miterlimit="4"
               stroke-dasharray="none"
               stroke-opacity="1" />
            <path
               d="m133.74 31.46-.02 16.5z"
               id="path937-6"
               fill="#2453ff"
               fill-opacity="1"
               stroke="#2453ff"
               stroke-width=".65"
               stroke-linecap="round"
               stroke-linejoin="round"
               stroke-miterlimit="4"
               stroke-dasharray="none"
               stroke-opacity="1" />
            <path
               d="M126.04 29.26c-4.25 0-7.7 1.11-7.7 2.48 0 1.36 3.45 2.47 7.7 2.47 4.26 0 7.7-1.1 7.7-2.47s-3.44-2.48-7.7-2.48z"
               id="path2144-1"
               fill="#fff"
               fill-opacity="1"
               stroke="#2453ff"
               stroke-width=".65"
               stroke-linecap="round"
               stroke-linejoin="miter"
               stroke-miterlimit="4"
               stroke-dasharray="none"
               stroke-opacity="1" />
            <path
               d="M118.34 47.96c3.3 2.75 11.55 2.75 15.4 0"
               id="path2153-5"
               fill="#fff"
               fill-opacity="1"
               stroke="#2453ff"
               stroke-width=".65"
               stroke-linecap="round"
               stroke-linejoin="miter"
               stroke-miterlimit="4"
               stroke-dasharray="none"
               stroke-opacity="1" />
          </g>
        </g>
        <g
           id="g7967"
           transform="translate(-18.6 -28.01)"
           stroke-width=".65"
           stroke-miterlimit="4"
           stroke-dasharray="none">
          <path
             id="rect2335-5"
             style="fill:#ffffff;stroke-linecap:square;paint-order:fill markers stroke;stop-color:#000000"
             d="m 137.38,33.639999 h 16.5 v 16.5 h -16.5 z" />
          <path
             d="M137.93 34.19v15.95Z"
             id="path939-4"
             fill="#fff"
             fill-opacity="1"
             stroke="#2453ff"
             stroke-width=".65"
             stroke-linecap="round"
             stroke-linejoin="round"
             stroke-miterlimit="4"
             stroke-dasharray="none"
             stroke-opacity="1" />
          <path
             d="m153.33 33.64-.02 16.5z"
             id="path937-7"
             fill="#2453ff"
             fill-opacity="1"
             stroke="#2453ff"
             stroke-width=".65"
             stroke-linecap="round"
             stroke-linejoin="round"
             stroke-miterlimit="4"
             stroke-dasharray="none"
             stroke-opacity="1" />
          <path
             d="M145.63 31.44c-4.25 0-7.7 1.1-7.7 2.47s3.45 2.48 7.7 2.48 7.7-1.1 7.7-2.48c0-1.36-3.45-2.47-7.7-2.47z"
             id="path2144-6"
             fill="#fff"
             fill-opacity="1"
             stroke="#2453ff"
             stroke-width=".65"
             stroke-linecap="round"
             stroke-linejoin="miter"
             stroke-miterlimit="4"
             stroke-dasharray="none"
             stroke-opacity="1" />
          <path
             d="M137.93 50.14c3.3 2.75 11.55 2.75 15.4 0"
             id="path2153-56"
             fill="#fff"
             fill-opacity="1"
             stroke="#2453ff"
             stroke-width=".65"
             stroke-linecap="round"
             stroke-linejoin="miter"
             stroke-miterlimit="4"
             stroke-dasharray="none"
             stroke-opacity="1" />
        </g>
        <path
           id="rect7969"
           style="opacity:1;fill:none;stroke:#bfcbfb;stroke-width:0.65;stroke-linecap:square;paint-order:stroke fill markers;stop-color:#000000"
           d="M 69.339996,6.1900001 H 91.109997 V 21.43 H 69.339996 Z" />
        <path
           id="rect7969-9"
           style="opacity:1;fill:none;stroke:#bfcbfb;stroke-width:0.65;stroke-linecap:square;paint-order:stroke fill markers;stop-color:#000000"
           d="m 139.10001,6.1900001 h 21.77 V 21.43 h -21.77 z" />
        <path
           d="M182.29-64.33h23.94v13.06c-13.06 0-13.06 8.7-23.94 6.53v-19.59"
           id="path862"
           fill="#fff"
           stroke="#bb5318"
           stroke-width=".65"
           stroke-linecap="square"
           stroke-linejoin="miter"
           stroke-miterlimit="4"
           stroke-dasharray="none"
           stroke-opacity="1" />
        <path
           d="M180.11-62.15h23.94v13.06c-13.05 0-13.05 8.7-23.94 6.53v-19.6"
           id="path862-3"
           fill="#fff"
           stroke="#e6644b"
           stroke-width=".65"
           stroke-linecap="square"
           stroke-linejoin="miter"
           stroke-miterlimit="4"
           stroke-dasharray="none"
           stroke-opacity="1" />
        <path
           d="M177.94-59.98h23.94v13.06c-13.06 0-13.06 8.7-23.94 6.53v-19.59"
           id="path862-6"
           fill="#fff"
           stroke="#fe7c3f"
           stroke-width=".65"
           stroke-linecap="square"
           stroke-linejoin="miter"
           stroke-miterlimit="4"
           stroke-dasharray="none"
           stroke-opacity="1" />
        <path
           d="M102.1-64.33h23.94v13.06c-13.06 0-13.06 8.7-23.94 6.53v-19.59"
           id="path862-7"
           fill="#fff"
           stroke="#257912"
           stroke-width=".65"
           stroke-linecap="square"
           stroke-linejoin="miter"
           stroke-miterlimit="4"
           stroke-dasharray="none"
           stroke-opacity="1" />
        <path
           d="M99.92-62.15h23.95v13.06c-13.06 0-13.06 8.7-23.95 6.53v-19.6"
           id="path862-7-5"
           fill="#fff"
           stroke="#30ba78"
           stroke-width=".65"
           stroke-linecap="square"
           stroke-linejoin="miter"
           stroke-miterlimit="4"
           stroke-dasharray="none"
           stroke-opacity="1" />
        <path
           d="M97.75-59.97h23.94v13.05c-13.06 0-13.06 8.71-23.94 6.53v-19.58"
           id="path862-7-3"
           fill="#fff"
           stroke="#c7f1e3"
           stroke-width=".65"
           stroke-linecap="square"
           stroke-linejoin="miter"
           stroke-miterlimit="4"
           stroke-dasharray="none"
           stroke-opacity="1" />
        <g
           aria-label="ターゲット"
           id="text953"
           style="font-size:2.61px;line-height:1.25;font-family:'Noto Sans CJK JP';-inkscape-font-specification:'Noto Sans CJK JP, Normal';letter-spacing:0;stroke-width:0.22">
          <path
             d="m 54.1497,12.68259 c -0.04437,0.01827 -0.10179,0.0261 -0.17226,0.0261 h -0.71253 c 0.02088,-0.03393 0.03915,-0.06525 0.05481,-0.09657 0.0261,-0.04959 0.07308,-0.13833 0.11484,-0.20619 l -0.2349,-0.07569 c -0.01827,0.06786 -0.05742,0.16182 -0.08352,0.2088 -0.11745,0.23751 -0.38889,0.62901 -0.83781,0.90567 l 0.17487,0.13572 c 0.29232,-0.19836 0.52461,-0.45414 0.69165,-0.68643 h 0.8874 c -0.04959,0.20619 -0.17748,0.47502 -0.33669,0.69687 -0.20358,-0.12267 -0.42282,-0.24795 -0.5742,-0.32625 l -0.13311,0.15399 c 0.14616,0.08091 0.3654,0.21141 0.57159,0.34452 -0.23751,0.261 -0.57681,0.51156 -1.03095,0.64989 l 0.18792,0.16182 c 0.45936,-0.16965 0.78822,-0.42543 1.02312,-0.69426 0.09918,0.06786 0.18531,0.1305 0.24795,0.18009 l 0.14355,-0.18792 c -0.06525,-0.04698 -0.15399,-0.10701 -0.25317,-0.16965 0.1827,-0.25578 0.31581,-0.54549 0.38106,-0.77517 0.01566,-0.04176 0.03915,-0.1044 0.06003,-0.14094 z"
             id="path31308" />
          <path
             d="m 54.91965,13.58565 c 0.08091,-0.0078 0.21924,-0.01305 0.36279,-0.01305 h 1.43289 c 0.11745,0 0.22707,0.01044 0.27927,0.01305 v -0.25578 c -0.05742,0.0052 -0.15138,0.01305 -0.28188,0.01305 h -1.43028 c -0.14616,0 -0.28449,-0.0078 -0.36279,-0.01305 z"
             id="path31310" />
          <path
             d="m 59.46105,12.75567 c -0.05481,-0.1044 -0.14877,-0.26361 -0.21402,-0.35757 l -0.13833,0.06003 c 0.07047,0.09918 0.15921,0.25578 0.21141,0.36018 z m -1.32588,0.18531 c 0.04176,-0.09396 0.07308,-0.18792 0.09918,-0.26361 0.01827,-0.05481 0.04437,-0.12267 0.06786,-0.1827 l -0.25317,-0.04959 c -0.0052,0.07569 -0.02088,0.14616 -0.03915,0.2088 -0.02871,0.09918 -0.07569,0.2349 -0.14616,0.3654 -0.09135,0.15921 -0.27666,0.42543 -0.46458,0.56115 l 0.20619,0.12267 c 0.15138,-0.12528 0.32886,-0.36279 0.43326,-0.55854 h 0.67077 c -0.03915,0.66294 -0.32103,1.00485 -0.57681,1.19799 -0.05742,0.04698 -0.13572,0.09135 -0.21141,0.12006 l 0.22185,0.15138 c 0.44892,-0.2871 0.74124,-0.72297 0.783,-1.46943 h 0.44109 c 0.06003,0 0.16443,0.0026 0.24534,0.0078 v -0.22446 c -0.07569,0.01044 -0.18009,0.01305 -0.24534,0.01305 z m 1.26063,-0.58725 c 0.07569,0.09657 0.15921,0.24534 0.21663,0.35757 l 0.14094,-0.06264 C 59.70378,12.55209 59.60199,12.39027 59.53413,12.2937 Z"
             id="path31312" />
          <path
             d="m 61.13406,12.95664 -0.19053,0.06525 c 0.05481,0.11745 0.17487,0.44892 0.20358,0.56637 l 0.19314,-0.06786 c -0.03393,-0.11484 -0.16182,-0.45936 -0.20619,-0.56376 z m 0.72036,0.07569 c -0.03915,0.33408 -0.17487,0.66555 -0.36018,0.89262 -0.21402,0.26883 -0.54549,0.46719 -0.84825,0.55332 l 0.17226,0.17748 c 0.29232,-0.11223 0.61074,-0.31581 0.85086,-0.62118 0.18792,-0.2349 0.30015,-0.51417 0.37062,-0.80127 0.01044,-0.03393 0.02088,-0.07569 0.03915,-0.1305 z m -1.32588,0.05481 -0.19314,0.07569 c 0.0522,0.09135 0.19314,0.45153 0.23229,0.58725 L 60.76605,13.677 c -0.04959,-0.13572 -0.18531,-0.47763 -0.23751,-0.58986 z"
             id="path31314" />
          <path
             d="M 64.6941,13.56738 C 64.41744,13.42905 63.92415,13.24113 63.57963,13.13673 V 12.7113 c 0,-0.0783 0.01044,-0.19053 0.01827,-0.27144 h -0.25578 c 0.01566,0.08091 0.02088,0.19836 0.02088,0.27144 v 1.51902 c 0,0.09657 -0.0052,0.22446 -0.01566,0.30798 h 0.25056 c -0.01044,-0.08613 -0.01566,-0.22446 -0.01566,-0.30798 l -0.0026,-0.8613 c 0.28971,0.09135 0.74124,0.26622 1.02573,0.42021 z"
             id="path31316" />
        </g>
        <g
           aria-label="イニシエータ"
           id="text957"
           style="font-size:2.61px;line-height:1.25;font-family:'Noto Sans CJK JP';-inkscape-font-specification:'Noto Sans CJK JP, Normal';letter-spacing:0;stroke-width:0.22">
          <path
             d="m 74.573073,12.86159 c -0.14616,0.18531 -0.42021,0.41238 -0.68643,0.57681 -0.2871,0.18009 -0.7308,0.37845 -1.16667,0.48024 l 0.12006,0.20358 c 0.34191,-0.10179 0.70209,-0.25317 0.98136,-0.40716 v 0.98658 c 0,0.09918 -0.0078,0.22968 -0.01566,0.27927 h 0.25578 c -0.01044,-0.0522 -0.01566,-0.18009 -0.01566,-0.27927 v -1.11708 c 0.26883,-0.16965 0.51939,-0.38367 0.69948,-0.56637 z"
             id="path31295" />
          <path
             d="m 75.348243,14.7434 c 0.08874,-0.0052 0.18009,-0.01305 0.27405,-0.01305 h 1.56339 c 0.07047,0 0.15921,0.0052 0.23751,0.01305 v -0.25056 c -0.07569,0.01044 -0.15921,0.01305 -0.23751,0.01305 h -1.56339 c -0.09396,0 -0.18531,-0.0052 -0.27405,-0.01305 z m 0.22446,-1.30761 c 0.08091,-0.0052 0.16704,-0.0078 0.25839,-0.0078 h 1.11708 c 0.08613,0 0.18531,0.0026 0.25839,0.0078 v -0.2349 c -0.07308,0.0078 -0.16443,0.01305 -0.25839,0.01305 h -1.11969 c -0.08352,0 -0.17226,-0.0052 -0.25578,-0.01305 z"
             id="path31297" />
          <path
             d="m 78.503733,12.89552 -0.11745,0.17487 c 0.15399,0.08874 0.43587,0.27666 0.56115,0.37062 l 0.12267,-0.17748 c -0.11223,-0.08352 -0.41238,-0.28188 -0.56637,-0.36801 z m -0.3915,1.86354 0.12006,0.21402 c 0.24273,-0.04959 0.60291,-0.17226 0.86652,-0.32364 0.41499,-0.24534 0.77517,-0.58203 1.00224,-0.93438 l -0.12528,-0.21402 c -0.21141,0.36801 -0.55593,0.70731 -0.98919,0.95526 -0.26361,0.15138 -0.58725,0.25317 -0.87435,0.30276 z m -0.0026,-1.27629 -0.11484,0.17748 c 0.1566,0.08091 0.44109,0.26361 0.56898,0.35757 l 0.12006,-0.1827 c -0.11484,-0.08352 -0.4176,-0.26883 -0.5742,-0.35235 z"
             id="path31299" />
          <path
             d="m 81.734913,14.57375 v -1.2006 h 0.6264 c 0.07308,0 0.1566,0.0026 0.22185,0.01044 v -0.22968 c -0.06264,0.0078 -0.14355,0.01566 -0.22185,0.01566 h -1.4355 c -0.0522,0 -0.15138,-0.0052 -0.21924,-0.01566 v 0.22968 c 0.06525,-0.0078 0.16965,-0.01044 0.21924,-0.01044 h 0.58725 v 1.2006 h -0.73602 c -0.07047,0 -0.15138,-0.0052 -0.22968,-0.01566 v 0.23751 c 0.08091,-0.0078 0.15921,-0.01044 0.22968,-0.01044 h 1.72521 c 0.0522,0 0.14616,0 0.21663,0.01044 v -0.23751 c -0.06786,0.0078 -0.13833,0.01566 -0.21663,0.01566 z"
             id="path31301" />
          <path
             d="m 83.204343,14.02565 c 0.08091,-0.0078 0.21924,-0.01305 0.36279,-0.01305 h 1.43289 c 0.11745,0 0.22707,0.01044 0.27927,0.01305 v -0.25578 c -0.05742,0.0052 -0.15138,0.01305 -0.28188,0.01305 h -1.43028 c -0.14616,0 -0.28449,-0.0078 -0.36279,-0.01305 z"
             id="path31303" />
          <path
             d="m 87.654392,13.12259 c -0.04437,0.01827 -0.10179,0.0261 -0.17226,0.0261 h -0.71253 c 0.02088,-0.03393 0.03915,-0.06525 0.05481,-0.09657 0.0261,-0.04959 0.07308,-0.13833 0.11484,-0.20619 l -0.2349,-0.07569 c -0.01827,0.06786 -0.05742,0.16182 -0.08352,0.2088 -0.11745,0.23751 -0.38889,0.62901 -0.83781,0.90567 l 0.17487,0.13572 c 0.29232,-0.19836 0.52461,-0.45414 0.69165,-0.68643 h 0.8874 c -0.04959,0.20619 -0.17748,0.47502 -0.33669,0.69687 -0.20358,-0.12267 -0.42282,-0.24795 -0.5742,-0.32625 l -0.13311,0.15399 c 0.14616,0.08091 0.3654,0.21141 0.57159,0.34452 -0.23751,0.261 -0.57681,0.51156 -1.03095,0.64989 l 0.18792,0.16182 c 0.45936,-0.16965 0.78822,-0.42543 1.02312,-0.69426 0.09918,0.06786 0.18531,0.1305 0.24795,0.18009 l 0.14355,-0.18792 c -0.06525,-0.04698 -0.15399,-0.10701 -0.25317,-0.16965 0.1827,-0.25578 0.31581,-0.54549 0.38106,-0.77517 0.01566,-0.04176 0.03915,-0.1044 0.06003,-0.14094 z"
             id="path31305" />
        </g>
        <g
           aria-label="ターゲット"
           id="text953-1"
           style="font-size:2.61px;line-height:1.25;font-family:'Noto Sans CJK JP';-inkscape-font-specification:'Noto Sans CJK JP, Normal';letter-spacing:0;stroke-width:0.22">
          <path
             d="m 99.849709,12.68259 c -0.04437,0.01827 -0.10179,0.0261 -0.17226,0.0261 h -0.71253 c 0.02088,-0.03393 0.03915,-0.06525 0.05481,-0.09657 0.0261,-0.04959 0.07308,-0.13833 0.11484,-0.20619 l -0.2349,-0.07569 c -0.01827,0.06786 -0.05742,0.16182 -0.08352,0.2088 -0.11745,0.23751 -0.38889,0.62901 -0.83781,0.90567 l 0.17487,0.13572 c 0.29232,-0.19836 0.52461,-0.45414 0.69165,-0.68643 h 0.8874 c -0.04959,0.20619 -0.17748,0.47502 -0.33669,0.69687 -0.20358,-0.12267 -0.42282,-0.24795 -0.5742,-0.32625 l -0.13311,0.15399 c 0.14616,0.08091 0.3654,0.21141 0.57159,0.34452 -0.23751,0.261 -0.57681,0.51156 -1.03095,0.64989 l 0.18792,0.16182 c 0.45936,-0.16965 0.78822,-0.42543 1.02312,-0.69426 0.09918,0.06786 0.18531,0.1305 0.24795,0.18009 l 0.14355,-0.18792 c -0.06525,-0.04698 -0.15399,-0.10701 -0.25317,-0.16965 0.1827,-0.25578 0.31581,-0.54549 0.38106,-0.77517 0.01566,-0.04176 0.03915,-0.1044 0.06003,-0.14094 z"
             id="path31284" />
          <path
             d="m 100.61966,13.58565 c 0.0809,-0.0078 0.21924,-0.01305 0.36279,-0.01305 h 1.43289 c 0.11745,0 0.22707,0.01044 0.27927,0.01305 v -0.25578 c -0.0574,0.0052 -0.15138,0.01305 -0.28188,0.01305 h -1.43028 c -0.14616,0 -0.28449,-0.0078 -0.36279,-0.01305 z"
             id="path31286" />
          <path
             d="m 105.16106,12.75567 c -0.0548,-0.1044 -0.14877,-0.26361 -0.21402,-0.35757 l -0.13833,0.06003 c 0.0705,0.09918 0.15921,0.25578 0.21141,0.36018 z m -1.32588,0.18531 c 0.0418,-0.09396 0.0731,-0.18792 0.0992,-0.26361 0.0183,-0.05481 0.0444,-0.12267 0.0679,-0.1827 l -0.25317,-0.04959 c -0.005,0.07569 -0.0209,0.14616 -0.0391,0.2088 -0.0287,0.09918 -0.0757,0.2349 -0.14616,0.3654 -0.0913,0.15921 -0.27666,0.42543 -0.46458,0.56115 l 0.20619,0.12267 c 0.15138,-0.12528 0.32886,-0.36279 0.43326,-0.55854 h 0.67077 c -0.0391,0.66294 -0.32103,1.00485 -0.57681,1.19799 -0.0574,0.04698 -0.13572,0.09135 -0.21141,0.12006 l 0.22185,0.15138 c 0.44892,-0.2871 0.74124,-0.72297 0.783,-1.46943 h 0.44109 c 0.06,0 0.16443,0.0026 0.24534,0.0078 v -0.22446 c -0.0757,0.01044 -0.18009,0.01305 -0.24534,0.01305 z m 1.26063,-0.58725 c 0.0757,0.09657 0.15921,0.24534 0.21663,0.35757 l 0.14094,-0.06264 c -0.0496,-0.09657 -0.15138,-0.25839 -0.21924,-0.35496 z"
             id="path31288" />
          <path
             d="m 106.83407,12.95664 -0.19053,0.06525 c 0.0548,0.11745 0.17487,0.44892 0.20358,0.56637 l 0.19314,-0.06786 c -0.0339,-0.11484 -0.16182,-0.45936 -0.20619,-0.56376 z m 0.72036,0.07569 c -0.0391,0.33408 -0.17487,0.66555 -0.36018,0.89262 -0.21402,0.26883 -0.54549,0.46719 -0.84825,0.55332 l 0.17226,0.17748 c 0.29232,-0.11223 0.61074,-0.31581 0.85086,-0.62118 0.18792,-0.2349 0.30015,-0.51417 0.37062,-0.80127 0.0104,-0.03393 0.0209,-0.07569 0.0392,-0.1305 z m -1.32588,0.05481 -0.19314,0.07569 c 0.0522,0.09135 0.19314,0.45153 0.23229,0.58725 l 0.19836,-0.07308 c -0.0496,-0.13572 -0.18531,-0.47763 -0.23751,-0.58986 z"
             id="path31290" />
          <path
             d="m 110.39411,13.56738 c -0.27666,-0.13833 -0.76995,-0.32625 -1.11447,-0.43065 V 12.7113 c 0,-0.0783 0.0104,-0.19053 0.0183,-0.27144 h -0.25578 c 0.0157,0.08091 0.0209,0.19836 0.0209,0.27144 v 1.51902 c 0,0.09657 -0.005,0.22446 -0.0157,0.30798 h 0.25056 c -0.0104,-0.08613 -0.0157,-0.22446 -0.0157,-0.30798 l -0.003,-0.8613 c 0.28971,0.09135 0.74124,0.26622 1.02573,0.42021 z"
             id="path31292" />
        </g>
        <g
           aria-label="ターゲット"
           id="text953-7"
           style="font-size:2.61px;line-height:1.25;font-family:'Noto Sans CJK JP';-inkscape-font-specification:'Noto Sans CJK JP, Normal';letter-spacing:0;stroke-width:0.22">
          <path
             d="m 122.92501,12.68259 c -0.0444,0.01827 -0.10179,0.0261 -0.17226,0.0261 h -0.71253 c 0.0209,-0.03393 0.0391,-0.06525 0.0548,-0.09657 0.0261,-0.04959 0.0731,-0.13833 0.11484,-0.20619 l -0.2349,-0.07569 c -0.0183,0.06786 -0.0574,0.16182 -0.0835,0.2088 -0.11745,0.23751 -0.38889,0.62901 -0.83781,0.90567 l 0.17487,0.13572 c 0.29232,-0.19836 0.52461,-0.45414 0.69165,-0.68643 h 0.8874 c -0.0496,0.20619 -0.17748,0.47502 -0.33669,0.69687 -0.20358,-0.12267 -0.42282,-0.24795 -0.5742,-0.32625 l -0.13311,0.15399 c 0.14616,0.08091 0.3654,0.21141 0.57159,0.34452 -0.23751,0.261 -0.57681,0.51156 -1.03095,0.64989 l 0.18792,0.16182 c 0.45936,-0.16965 0.78822,-0.42543 1.02312,-0.69426 0.0992,0.06786 0.18531,0.1305 0.24795,0.18009 l 0.14355,-0.18792 c -0.0653,-0.04698 -0.15399,-0.10701 -0.25317,-0.16965 0.1827,-0.25578 0.31581,-0.54549 0.38106,-0.77517 0.0157,-0.04176 0.0391,-0.1044 0.06,-0.14094 z"
             id="path31273" />
          <path
             d="m 123.69496,13.58565 c 0.0809,-0.0078 0.21924,-0.01305 0.36279,-0.01305 h 1.43289 c 0.11745,0 0.22707,0.01044 0.27927,0.01305 v -0.25578 c -0.0574,0.0052 -0.15138,0.01305 -0.28188,0.01305 h -1.43028 c -0.14616,0 -0.28449,-0.0078 -0.36279,-0.01305 z"
             id="path31275" />
          <path
             d="m 128.23636,12.75567 c -0.0548,-0.1044 -0.14877,-0.26361 -0.21402,-0.35757 l -0.13833,0.06003 c 0.0705,0.09918 0.15921,0.25578 0.21141,0.36018 z m -1.32588,0.18531 c 0.0418,-0.09396 0.0731,-0.18792 0.0992,-0.26361 0.0183,-0.05481 0.0444,-0.12267 0.0679,-0.1827 l -0.25317,-0.04959 c -0.005,0.07569 -0.0209,0.14616 -0.0391,0.2088 -0.0287,0.09918 -0.0757,0.2349 -0.14616,0.3654 -0.0913,0.15921 -0.27666,0.42543 -0.46458,0.56115 l 0.20619,0.12267 c 0.15138,-0.12528 0.32886,-0.36279 0.43326,-0.55854 h 0.67077 c -0.0391,0.66294 -0.32103,1.00485 -0.57681,1.19799 -0.0574,0.04698 -0.13572,0.09135 -0.21141,0.12006 l 0.22185,0.15138 c 0.44892,-0.2871 0.74124,-0.72297 0.783,-1.46943 h 0.44109 c 0.06,0 0.16443,0.0026 0.24534,0.0078 v -0.22446 c -0.0757,0.01044 -0.18009,0.01305 -0.24534,0.01305 z m 1.26063,-0.58725 c 0.0757,0.09657 0.15921,0.24534 0.21663,0.35757 l 0.14094,-0.06264 c -0.0496,-0.09657 -0.15138,-0.25839 -0.21924,-0.35496 z"
             id="path31277" />
          <path
             d="m 129.90937,12.95664 -0.19053,0.06525 c 0.0548,0.11745 0.17487,0.44892 0.20358,0.56637 l 0.19314,-0.06786 c -0.0339,-0.11484 -0.16182,-0.45936 -0.20619,-0.56376 z m 0.72036,0.07569 c -0.0392,0.33408 -0.17487,0.66555 -0.36018,0.89262 -0.21402,0.26883 -0.54549,0.46719 -0.84825,0.55332 l 0.17226,0.17748 c 0.29232,-0.11223 0.61074,-0.31581 0.85086,-0.62118 0.18792,-0.2349 0.30015,-0.51417 0.37062,-0.80127 0.0104,-0.03393 0.0209,-0.07569 0.0391,-0.1305 z m -1.32588,0.05481 -0.19314,0.07569 c 0.0522,0.09135 0.19314,0.45153 0.23229,0.58725 l 0.19836,-0.07308 c -0.0496,-0.13572 -0.18531,-0.47763 -0.23751,-0.58986 z"
             id="path31279" />
          <path
             d="m 133.46941,13.56738 c -0.27666,-0.13833 -0.76995,-0.32625 -1.11447,-0.43065 V 12.7113 c 0,-0.0783 0.0104,-0.19053 0.0183,-0.27144 h -0.25578 c 0.0157,0.08091 0.0209,0.19836 0.0209,0.27144 v 1.51902 c 0,0.09657 -0.005,0.22446 -0.0157,0.30798 h 0.25056 c -0.0104,-0.08613 -0.0157,-0.22446 -0.0157,-0.30798 l -0.003,-0.8613 c 0.28971,0.09135 0.74124,0.26622 1.02573,0.42021 z"
             id="path31281" />
        </g>
        <g
           aria-label="イニシエータ"
           id="text957-9"
           style="font-size:2.61px;line-height:1.25;font-family:'Noto Sans CJK JP';-inkscape-font-specification:'Noto Sans CJK JP, Normal';letter-spacing:0;stroke-width:0.22">
          <path
             d="m 144.22305,12.86159 c -0.14616,0.18531 -0.42021,0.41238 -0.68643,0.57681 -0.2871,0.18009 -0.7308,0.37845 -1.16667,0.48024 l 0.12006,0.20358 c 0.34191,-0.10179 0.70209,-0.25317 0.98136,-0.40716 v 0.98658 c 0,0.09918 -0.008,0.22968 -0.0157,0.27927 h 0.25578 c -0.0104,-0.0522 -0.0157,-0.18009 -0.0157,-0.27927 v -1.11708 c 0.26883,-0.16965 0.51939,-0.38367 0.69948,-0.56637 z"
             id="path31260" />
          <path
             d="m 144.99822,14.7434 c 0.0887,-0.0052 0.18009,-0.01305 0.27405,-0.01305 h 1.56339 c 0.0705,0 0.15921,0.0052 0.23751,0.01305 v -0.25056 c -0.0757,0.01044 -0.15921,0.01305 -0.23751,0.01305 h -1.56339 c -0.094,0 -0.18531,-0.0052 -0.27405,-0.01305 z m 0.22446,-1.30761 c 0.0809,-0.0052 0.16704,-0.0078 0.25839,-0.0078 h 1.11708 c 0.0861,0 0.18531,0.0026 0.25839,0.0078 v -0.2349 c -0.0731,0.0078 -0.16443,0.01305 -0.25839,0.01305 h -1.11969 c -0.0835,0 -0.17226,-0.0052 -0.25578,-0.01305 z"
             id="path31262" />
          <path
             d="m 148.15371,12.89552 -0.11745,0.17487 c 0.15399,0.08874 0.43587,0.27666 0.56115,0.37062 l 0.12267,-0.17748 c -0.11223,-0.08352 -0.41238,-0.28188 -0.56637,-0.36801 z m -0.3915,1.86354 0.12006,0.21402 c 0.24273,-0.04959 0.60291,-0.17226 0.86652,-0.32364 0.41499,-0.24534 0.77517,-0.58203 1.00224,-0.93438 l -0.12528,-0.21402 c -0.21141,0.36801 -0.55593,0.70731 -0.98919,0.95526 -0.26361,0.15138 -0.58725,0.25317 -0.87435,0.30276 z m -0.003,-1.27629 -0.11484,0.17748 c 0.1566,0.08091 0.44109,0.26361 0.56898,0.35757 l 0.12006,-0.1827 c -0.11484,-0.08352 -0.4176,-0.26883 -0.5742,-0.35235 z"
             id="path31264" />
          <path
             d="m 151.38489,14.57375 v -1.2006 h 0.6264 c 0.0731,0 0.1566,0.0026 0.22185,0.01044 v -0.22968 c -0.0626,0.0078 -0.14355,0.01566 -0.22185,0.01566 h -1.4355 c -0.0522,0 -0.15138,-0.0052 -0.21924,-0.01566 v 0.22968 c 0.0652,-0.0078 0.16965,-0.01044 0.21924,-0.01044 h 0.58725 v 1.2006 h -0.73602 c -0.0705,0 -0.15138,-0.0052 -0.22968,-0.01566 v 0.23751 c 0.0809,-0.0078 0.15921,-0.01044 0.22968,-0.01044 h 1.72521 c 0.0522,0 0.14616,0 0.21663,0.01044 v -0.23751 c -0.0679,0.0078 -0.13833,0.01566 -0.21663,0.01566 z"
             id="path31266" />
          <path
             d="m 152.85432,14.02565 c 0.0809,-0.0078 0.21924,-0.01305 0.36279,-0.01305 H 154.65 c 0.11745,0 0.22707,0.01044 0.27927,0.01305 v -0.25578 c -0.0574,0.0052 -0.15138,0.01305 -0.28188,0.01305 h -1.43028 c -0.14616,0 -0.28449,-0.0078 -0.36279,-0.01305 z"
             id="path31268" />
          <path
             d="m 157.30437,13.12259 c -0.0444,0.01827 -0.10179,0.0261 -0.17226,0.0261 h -0.71253 c 0.0209,-0.03393 0.0392,-0.06525 0.0548,-0.09657 0.0261,-0.04959 0.0731,-0.13833 0.11484,-0.20619 l -0.2349,-0.07569 c -0.0183,0.06786 -0.0574,0.16182 -0.0835,0.2088 -0.11745,0.23751 -0.38889,0.62901 -0.83781,0.90567 l 0.17487,0.13572 c 0.29232,-0.19836 0.52461,-0.45414 0.69165,-0.68643 h 0.8874 c -0.0496,0.20619 -0.17748,0.47502 -0.33669,0.69687 -0.20358,-0.12267 -0.42282,-0.24795 -0.5742,-0.32625 l -0.13311,0.15399 c 0.14616,0.08091 0.3654,0.21141 0.57159,0.34452 -0.23751,0.261 -0.57681,0.51156 -1.03095,0.64989 l 0.18792,0.16182 c 0.45936,-0.16965 0.78822,-0.42543 1.02312,-0.69426 0.0992,0.06786 0.18531,0.1305 0.24795,0.18009 l 0.14355,-0.18792 c -0.0652,-0.04698 -0.15399,-0.10701 -0.25317,-0.16965 0.1827,-0.25578 0.31581,-0.54549 0.38106,-0.77517 0.0157,-0.04176 0.0391,-0.1044 0.06,-0.14094 z"
             id="path31270" />
        </g>
        <path
           d="M58.57.97v-65.3h40.92"
           id="path1003"
           fill="none"
           stroke="#30ba78"
           stroke-width=".46"
           stroke-linecap="butt"
           stroke-linejoin="miter"
           stroke-miterlimit="4"
           stroke-dasharray="none"
           stroke-opacity="1"
           marker-end="url(#marker8835795)" />
        <path
           d="M80.34.97v-63.12h17.4"
           id="path1005"
           fill="none"
           stroke="#30ba78"
           stroke-width=".46"
           stroke-linecap="butt"
           stroke-linejoin="miter"
           stroke-miterlimit="4"
           stroke-dasharray="none"
           stroke-opacity="1"
           marker-end="url(#marker8839906)" />
        <path
           d="M104.28.97v-34.83"
           id="path1007"
           fill="none"
           stroke="#30ba78"
           stroke-width=".46"
           stroke-linecap="butt"
           stroke-linejoin="miter"
           stroke-miterlimit="4"
           stroke-dasharray="none"
           stroke-opacity="1"
           marker-end="url(#marker883688)" />
        <path
           d="M126.91.97v-43.49l-6.96-.04"
           id="path1009"
           fill="none"
           stroke="#30ba78"
           stroke-width=".46"
           stroke-linecap="butt"
           stroke-linejoin="miter"
           stroke-miterlimit="4"
           stroke-dasharray="none"
           stroke-opacity="1"
           marker-end="url(#marker8838541)" />
        <path
           d="M149.98.97v-46.14h-27.86"
           id="path1011"
           fill="none"
           stroke="#30ba78"
           stroke-width=".46"
           stroke-linecap="butt"
           stroke-linejoin="miter"
           stroke-miterlimit="4"
           stroke-dasharray="none"
           stroke-opacity="1"
           marker-end="url(#marker8836252)" />
        <path
           d="M128.22-64.33h52.24"
           id="path1013"
           fill="none"
           stroke="#fe7c3f"
           stroke-width=".46"
           stroke-linecap="butt"
           stroke-linejoin="miter"
           stroke-miterlimit="4"
           stroke-dasharray="none"
           stroke-opacity="1"
           marker-end="url(#marker8836999)" />
        <path
           d="M126.91-62.15h50.5"
           id="path1015"
           fill="none"
           stroke="#fe7c3f"
           stroke-width=".46"
           stroke-linecap="butt"
           stroke-linejoin="miter"
           stroke-miterlimit="4"
           stroke-dasharray="none"
           stroke-opacity="1"
           marker-end="url(#marker8839258)" />
        <path
           d="M97.75-59.97h23.94v13.05c-13.06 0-13.06 8.71-23.94 6.53v-19.58"
           id="path862-7-3-0"
           fill="#fff"
           stroke="#63da7f"
           stroke-width=".65"
           stroke-linecap="square"
           stroke-linejoin="miter"
           stroke-miterlimit="4"
           stroke-dasharray="none"
           stroke-opacity="1" />
        <path
           d="M95.57-57.8h23.94v13.06c-13.06 0-13.06 8.7-23.94 6.53V-57.8"
           id="path862-7-3-0-6"
           fill="#fff"
           stroke="#6ec766"
           stroke-width=".65"
           stroke-linecap="square"
           stroke-linejoin="miter"
           stroke-miterlimit="4"
           stroke-dasharray="none"
           stroke-opacity="1" />
        <path
           d="M93.4-55.62h23.94v13.06c-13.06 0-13.06 8.7-23.95 6.53v-19.6"
           id="path862-7-3-0-2"
           fill="#fff"
           stroke="#92d27f"
           stroke-width=".65"
           stroke-linecap="square"
           stroke-linejoin="miter"
           stroke-miterlimit="4"
           stroke-dasharray="none"
           stroke-opacity="1" />
        <path
           d="M91.22-53.45h23.94v13.06c-13.06 0-13.06 8.71-23.94 6.53v-19.59"
           id="path862-7-3-0-61"
           fill="#fff"
           stroke="#bfe035"
           stroke-width=".65"
           stroke-linecap="square"
           stroke-linejoin="miter"
           stroke-miterlimit="4"
           stroke-dasharray="none"
           stroke-opacity="1" />
        <path
           d="M89.04-51.27h23.94v13.06c-13.06 0-13.06 8.7-23.94 6.53v-19.59"
           id="path862-7-3-0-8"
           fill="#fff"
           stroke="#f2df4b"
           stroke-width=".65"
           stroke-linecap="square"
           stroke-linejoin="miter"
           stroke-miterlimit="4"
           stroke-dasharray="none"
           stroke-opacity="1" />
        <g
           aria-label="ノードターゲットとイニシエータ"
           transform="translate(-6.9650156,0.4353135)"
           id="text914"
           style="font-size:2.61px;line-height:1.25;font-family:'Noto Sans CJK JP';-inkscape-font-specification:'Noto Sans CJK JP, Normal';text-align:center;letter-spacing:0;text-anchor:middle;white-space:pre;inline-size:13.8833;stroke-width:0.22">
          <path
             d="m 103.23717,-47.976588 -0.25056,-0.06786 c -0.0731,0.37584 -0.24795,0.80388 -0.49068,1.10664 -0.23751,0.29493 -0.59769,0.55593 -0.98658,0.69165 l 0.1827,0.19053 c 0.37323,-0.1566 0.74646,-0.4437 0.98397,-0.74385 0.21924,-0.28188 0.37584,-0.66555 0.47763,-0.95004 0.0209,-0.06525 0.0522,-0.1566 0.0835,-0.22707 z"
             id="path31229" />
          <path
             d="m 104.02017,-46.974348 c 0.0809,-0.0078 0.21924,-0.01305 0.36279,-0.01305 h 1.43289 c 0.11745,0 0.22707,0.01044 0.27927,0.01305 v -0.25578 c -0.0574,0.0052 -0.15138,0.01305 -0.28188,0.01305 h -1.43028 c -0.14616,0 -0.28449,-0.0078 -0.36279,-0.01305 z"
             id="path31231" />
          <path
             d="m 108.63726,-47.723418 c -0.0626,-0.12006 -0.17748,-0.29493 -0.24534,-0.38628 l -0.14355,0.06786 c 0.0887,0.11745 0.17226,0.25578 0.24273,0.3915 z m -0.32364,0.13833 c -0.06,-0.12267 -0.16965,-0.29754 -0.23751,-0.39411 l -0.14355,0.06525 c 0.0861,0.11745 0.16704,0.261 0.23229,0.39672 z m -0.93438,-0.22968 c 0,-0.0783 0.008,-0.19053 0.0157,-0.27144 h -0.25578 c 0.0157,0.08091 0.0209,0.19836 0.0209,0.27144 v 1.51902 c 0,0.09657 -0.005,0.22446 -0.0157,0.30798 h 0.25056 c -0.0104,-0.08352 -0.0157,-0.22446 -0.0157,-0.30798 v -0.85869 c 0.28971,0.09135 0.74124,0.26361 1.02312,0.4176 l 0.0913,-0.22185 c -0.27666,-0.13833 -0.76995,-0.32364 -1.11447,-0.42804 z"
             id="path31233" />
          <path
             d="m 111.08022,-47.877408 c -0.0444,0.01827 -0.10179,0.0261 -0.17226,0.0261 h -0.71253 c 0.0209,-0.03393 0.0391,-0.06525 0.0548,-0.09657 0.0261,-0.04959 0.0731,-0.13833 0.11484,-0.20619 l -0.2349,-0.07569 c -0.0183,0.06786 -0.0574,0.16182 -0.0835,0.2088 -0.11745,0.23751 -0.38889,0.62901 -0.83781,0.90567 l 0.17487,0.13572 c 0.29232,-0.19836 0.52461,-0.45414 0.69165,-0.68643 h 0.8874 c -0.0496,0.20619 -0.17748,0.47502 -0.33669,0.69687 -0.20358,-0.12267 -0.42282,-0.24795 -0.5742,-0.32625 l -0.13311,0.15399 c 0.14616,0.08091 0.3654,0.21141 0.57159,0.34452 -0.23751,0.261 -0.57681,0.51156 -1.03095,0.64989 l 0.18792,0.16182 c 0.45936,-0.16965 0.78822,-0.42543 1.02312,-0.69426 0.0992,0.06786 0.18531,0.1305 0.24795,0.18009 l 0.14355,-0.18792 c -0.0652,-0.04698 -0.15399,-0.10701 -0.25317,-0.16965 0.1827,-0.25578 0.31581,-0.54549 0.38106,-0.77517 0.0157,-0.04176 0.0391,-0.1044 0.06,-0.14094 z"
             id="path31235" />
          <path
             d="m 111.85017,-46.974348 c 0.0809,-0.0078 0.21924,-0.01305 0.36279,-0.01305 h 1.43289 c 0.11745,0 0.22707,0.01044 0.27927,0.01305 v -0.25578 c -0.0574,0.0052 -0.15138,0.01305 -0.28188,0.01305 h -1.43028 c -0.14616,0 -0.28449,-0.0078 -0.36279,-0.01305 z"
             id="path31237" />
          <path
             d="m 103.34157,-44.541828 c -0.0548,-0.1044 -0.14877,-0.26361 -0.21402,-0.35757 l -0.13833,0.06003 c 0.0705,0.09918 0.15921,0.25578 0.21141,0.36018 z m -1.32588,0.18531 c 0.0418,-0.09396 0.0731,-0.18792 0.0992,-0.26361 0.0183,-0.05481 0.0444,-0.12267 0.0679,-0.1827 l -0.25317,-0.04959 c -0.005,0.07569 -0.0209,0.14616 -0.0391,0.2088 -0.0287,0.09918 -0.0757,0.2349 -0.14616,0.3654 -0.0913,0.15921 -0.27666,0.42543 -0.46458,0.56115 l 0.20619,0.12267 c 0.15138,-0.12528 0.32886,-0.36279 0.43326,-0.55854 h 0.67077 c -0.0391,0.66294 -0.32103,1.00485 -0.57681,1.197989 -0.0574,0.04698 -0.13572,0.09135 -0.21141,0.12006 l 0.22185,0.15138 c 0.44892,-0.2871 0.74124,-0.722969 0.783,-1.469429 h 0.44109 c 0.06,0 0.16443,0.0026 0.24534,0.0078 v -0.22446 c -0.0757,0.01044 -0.18009,0.01305 -0.24534,0.01305 z m 1.26063,-0.58725 c 0.0757,0.09657 0.15921,0.24534 0.21663,0.35757 l 0.14094,-0.06264 c -0.0496,-0.09657 -0.15138,-0.25839 -0.21924,-0.35496 z"
             id="path31239" />
          <path
             d="m 105.01458,-44.340858 -0.19053,0.06525 c 0.0548,0.11745 0.17487,0.44892 0.20358,0.56637 l 0.19314,-0.06786 c -0.0339,-0.11484 -0.16182,-0.45936 -0.20619,-0.56376 z m 0.72036,0.07569 c -0.0391,0.33408 -0.17487,0.66555 -0.36018,0.89262 -0.21402,0.26883 -0.54549,0.467189 -0.84825,0.553319 l 0.17226,0.17748 c 0.29232,-0.11223 0.61074,-0.31581 0.85086,-0.621179 0.18792,-0.2349 0.30015,-0.51417 0.37062,-0.80127 0.0104,-0.03393 0.0209,-0.07569 0.0392,-0.1305 z m -1.32588,0.05481 -0.19314,0.07569 c 0.0522,0.09135 0.19314,0.45153 0.23229,0.58725 l 0.19836,-0.07308 c -0.0496,-0.13572 -0.18531,-0.47763 -0.23751,-0.58986 z"
             id="path31241" />
          <path
             d="m 108.57462,-43.730118 c -0.27666,-0.13833 -0.76995,-0.32625 -1.11447,-0.43065 v -0.42543 c 0,-0.0783 0.0104,-0.19053 0.0183,-0.27144 h -0.25578 c 0.0157,0.08091 0.0209,0.19836 0.0209,0.27144 v 1.51902 c 0,0.09657 -0.005,0.224459 -0.0157,0.307979 h 0.25056 c -0.0104,-0.08613 -0.0157,-0.22446 -0.0157,-0.307979 l -0.003,-0.8613 c 0.28971,0.09135 0.74124,0.26622 1.02573,0.42021 z"
             id="path31243" />
          <path
             d="m 110.92623,-44.580978 c -0.0548,0.04698 -0.10962,0.08091 -0.18531,0.12267 -0.14094,0.08091 -0.42021,0.21663 -0.66294,0.36279 -0.11223,-0.20358 -0.24273,-0.48285 -0.34713,-0.76473 l -0.20619,0.08352 c 0.12006,0.28188 0.25578,0.58464 0.37584,0.79605 -0.27666,0.19314 -0.44631,0.40455 -0.44631,0.67077 0,0.386279 0.35235,0.532439 0.83781,0.532439 0.32364,0 0.62118,-0.02871 0.81693,-0.06264 v -0.234899 c -0.20097,0.0522 -0.54549,0.08874 -0.82737,0.08874 -0.40716,0 -0.61074,-0.133109 -0.61074,-0.347129 0,-0.19575 0.14355,-0.3654 0.38367,-0.522 0.25317,-0.16704 0.61335,-0.33669 0.78561,-0.42543 0.0757,-0.03915 0.14094,-0.07308 0.19836,-0.10962 z"
             id="path31245" />
          <path
             d="m 113.6589,-44.875908 c -0.14616,0.18531 -0.42021,0.41238 -0.68643,0.57681 -0.2871,0.18009 -0.7308,0.37845 -1.16667,0.48024 l 0.12006,0.20358 c 0.34191,-0.10179 0.70209,-0.25317 0.98136,-0.40716 v 0.98658 c 0,0.09918 -0.008,0.229679 -0.0157,0.279269 h 0.25578 c -0.0104,-0.0522 -0.0157,-0.18009 -0.0157,-0.279269 v -1.11708 c 0.26883,-0.16965 0.51939,-0.38367 0.69948,-0.56637 z"
             id="path31247" />
          <path
             d="m 101.38407,-39.731598 c 0.0887,-0.0052 0.18009,-0.01305 0.27405,-0.01305 h 1.56339 c 0.0705,0 0.15921,0.0052 0.23751,0.01305 v -0.25056 c -0.0757,0.01044 -0.15921,0.01305 -0.23751,0.01305 h -1.56339 c -0.094,0 -0.18531,-0.0052 -0.27405,-0.01305 z m 0.22446,-1.30761 c 0.0809,-0.0052 0.16704,-0.0078 0.25839,-0.0078 h 1.11708 c 0.0861,0 0.18531,0.0026 0.25839,0.0078 v -0.2349 c -0.0731,0.0078 -0.16443,0.01305 -0.25839,0.01305 h -1.11969 c -0.0835,0 -0.17226,-0.0052 -0.25578,-0.01305 z"
             id="path31249" />
          <path
             d="m 104.53956,-41.579478 -0.11745,0.17487 c 0.15399,0.08874 0.43587,0.27666 0.56115,0.37062 l 0.12267,-0.17748 c -0.11223,-0.08352 -0.41238,-0.28188 -0.56637,-0.36801 z m -0.3915,1.86354 0.12006,0.21402 c 0.24273,-0.04959 0.60291,-0.17226 0.86652,-0.32364 0.41499,-0.24534 0.77517,-0.58203 1.00224,-0.93438 l -0.12528,-0.21402 c -0.21141,0.36801 -0.55593,0.70731 -0.98919,0.95526 -0.26361,0.15138 -0.58725,0.25317 -0.87435,0.30276 z m -0.003,-1.27629 -0.11484,0.17748 c 0.1566,0.08091 0.44109,0.26361 0.56898,0.35757 l 0.12006,-0.1827 c -0.11484,-0.08352 -0.4176,-0.26883 -0.5742,-0.35235 z"
             id="path31251" />
          <path
             d="m 107.77074,-39.901248 v -1.2006 h 0.6264 c 0.0731,0 0.1566,0.0026 0.22185,0.01044 v -0.22968 c -0.0626,0.0078 -0.14355,0.01566 -0.22185,0.01566 h -1.4355 c -0.0522,0 -0.15138,-0.0052 -0.21924,-0.01566 v 0.22968 c 0.0652,-0.0078 0.16965,-0.01044 0.21924,-0.01044 h 0.58725 v 1.2006 h -0.73602 c -0.0705,0 -0.15138,-0.0052 -0.22968,-0.01566 v 0.23751 c 0.0809,-0.0078 0.15921,-0.01044 0.22968,-0.01044 h 1.72521 c 0.0522,0 0.14616,0 0.21663,0.01044 v -0.23751 c -0.0679,0.0078 -0.13833,0.01566 -0.21663,0.01566 z"
             id="path31253" />
          <path
             d="m 109.24017,-40.449348 c 0.0809,-0.0078 0.21924,-0.01305 0.36279,-0.01305 h 1.43289 c 0.11745,0 0.22707,0.01044 0.27927,0.01305 v -0.25578 c -0.0574,0.0052 -0.15138,0.01305 -0.28188,0.01305 h -1.43028 c -0.14616,0 -0.28449,-0.0078 -0.36279,-0.01305 z"
             id="path31255" />
          <path
             d="m 113.69022,-41.352408 c -0.0444,0.01827 -0.10179,0.0261 -0.17226,0.0261 h -0.71253 c 0.0209,-0.03393 0.0391,-0.06525 0.0548,-0.09657 0.0261,-0.04959 0.0731,-0.13833 0.11484,-0.20619 l -0.2349,-0.07569 c -0.0183,0.06786 -0.0574,0.16182 -0.0835,0.2088 -0.11745,0.23751 -0.38889,0.62901 -0.83781,0.90567 l 0.17487,0.13572 c 0.29232,-0.19836 0.52461,-0.45414 0.69165,-0.68643 h 0.8874 c -0.0496,0.20619 -0.17748,0.47502 -0.33669,0.69687 -0.20358,-0.12267 -0.42282,-0.24795 -0.5742,-0.32625 l -0.13311,0.15399 c 0.14616,0.08091 0.3654,0.21141 0.57159,0.34452 -0.23751,0.261 -0.57681,0.51156 -1.03095,0.64989 l 0.18792,0.16182 c 0.45936,-0.16965 0.78822,-0.42543 1.02312,-0.69426 0.0992,0.06786 0.18531,0.1305 0.24795,0.18009 l 0.14355,-0.18792 c -0.0652,-0.04698 -0.15399,-0.10701 -0.25317,-0.16965 0.1827,-0.25578 0.31581,-0.54549 0.38106,-0.77517 0.0157,-0.04176 0.0391,-0.1044 0.06,-0.14094 z"
             id="path31257" />
        </g>
        <path
           d="M176.1-57.8h23.94v13.06c-13.05 0-13.05 8.7-23.94 6.53V-57.8"
           id="path862-6-7"
           fill="#fff"
           stroke="#f39b5c"
           stroke-width=".65"
           stroke-linecap="square"
           stroke-linejoin="miter"
           stroke-miterlimit="4"
           stroke-dasharray="none"
           stroke-opacity="1" />
        <path
           d="M173.93-55.62h23.94v13.06c-13.06 0-13.06 8.7-23.94 6.53v-19.6"
           id="path862-6-9"
           fill="#fff"
           stroke="#f3b292"
           stroke-width=".65"
           stroke-linecap="square"
           stroke-linejoin="miter"
           stroke-miterlimit="4"
           stroke-dasharray="none"
           stroke-opacity="1" />
        <path
           d="M171.75-53.45h23.94v13.06c-13.06 0-13.06 8.71-23.94 6.53v-19.59"
           id="path862-6-2"
           fill="#fff"
           stroke="#f9dac8"
           stroke-width=".65"
           stroke-linecap="square"
           stroke-linejoin="miter"
           stroke-miterlimit="4"
           stroke-dasharray="none"
           stroke-opacity="1" />
        <g
           aria-label="検出ドメイン"
           id="text914-5"
           style="font-size:2.61px;line-height:1.25;font-family:'Noto Sans CJK JP';-inkscape-font-specification:'Noto Sans CJK JP, Normal';letter-spacing:0;stroke-width:0.22">
          <path
             d="m 177.4731,-44.466611 v -0.35496 h 0.3915 v 0.21924 c 0,0.04437 -0.003,0.09135 -0.005,0.13572 z m 0.97353,-0.35496 v 0.35496 h -0.41238 c 0.003,-0.04437 0.005,-0.08613 0.005,-0.1305 v -0.22446 z m -0.91872,-0.561149 c 0.17748,-0.13311 0.33147,-0.28971 0.43065,-0.43587 0.10701,0.14877 0.27405,0.30798 0.44892,0.43587 z m 1.0962,1.075319 v -0.67077 h -0.58464 v -0.240119 h 0.4176 v -0.1305 c 0.0757,0.0522 0.15138,0.09918 0.22446,0.13833 0.0261,-0.05481 0.0679,-0.12267 0.1044,-0.16965 -0.27405,-0.12006 -0.56376,-0.35235 -0.74907,-0.61074 h -0.17487 c -0.12789,0.22185 -0.37845,0.45414 -0.64728,0.59769 v -0.04437 h -0.28188 v -0.55854 h -0.1827 v 0.55854 h -0.3654 v 0.18009 h 0.34974 c -0.0783,0.354959 -0.24273,0.764729 -0.40455,0.983969 0.0313,0.04437 0.0783,0.12006 0.10179,0.16965 0.11745,-0.16704 0.23229,-0.43587 0.31842,-0.71775 v 1.20582 h 0.1827 v -1.22148 c 0.0783,0.12789 0.16965,0.29232 0.20619,0.37584 l 0.10701,-0.15399 c -0.0418,-0.06786 -0.24012,-0.35235 -0.3132,-0.446309 v -0.19575 h 0.28188 v -0.01566 c 0.013,0.02349 0.0261,0.04698 0.0339,0.06786 0.0757,-0.03915 0.14877,-0.08613 0.21924,-0.13572 v 0.12267 h 0.39672 v 0.240119 h -0.56376 v 0.67077 h 0.52461 c -0.0679,0.21663 -0.24795,0.41499 -0.70209,0.56115 0.0339,0.03132 0.0887,0.1044 0.1044,0.14616 0.44631,-0.14877 0.6525,-0.36279 0.74646,-0.59769 0.15399,0.32625 0.37062,0.47763 0.68121,0.59769 0.0209,-0.05481 0.0679,-0.12267 0.11223,-0.16443 -0.30015,-0.10179 -0.50895,-0.22968 -0.65772,-0.54288 z"
             id="path31216" />
          <path
             d="m 180.97572,-44.688461 v 0.72297 h -0.73341 v -0.89001 h 0.82737 v -0.892619 h -0.20097 v 0.7047 h -0.6264 v -0.93699 h -0.19836 v 0.93699 h -0.59769 v -0.7047 h -0.19314 v 0.892619 h 0.79083 v 0.89001 h -0.69687 v -0.72297 h -0.19314 v 1.07532 h 0.19314 v -0.16182 h 1.62864 v 0.1566 h 0.19836 v -1.0701 z"
             id="path31218" />
          <path
             d="m 183.73449,-45.43492 c -0.0626,-0.12006 -0.17748,-0.29493 -0.24534,-0.38628 l -0.14355,0.06786 c 0.0887,0.11745 0.17226,0.25578 0.24273,0.3915 z m -0.32364,0.13833 c -0.06,-0.12267 -0.16965,-0.29754 -0.23751,-0.39411 l -0.14355,0.06525 c 0.0861,0.11745 0.16704,0.261 0.23229,0.39672 z m -0.93438,-0.22968 c 0,-0.0783 0.008,-0.19053 0.0157,-0.27144 h -0.25578 c 0.0157,0.08091 0.0209,0.19836 0.0209,0.27144 v 1.519019 c 0,0.09657 -0.005,0.22446 -0.0157,0.30798 h 0.25056 c -0.0104,-0.08352 -0.0157,-0.22446 -0.0157,-0.30798 v -0.85869 c 0.28971,0.09135 0.74124,0.26361 1.02312,0.4176 l 0.0913,-0.22185 c -0.27666,-0.13833 -0.76995,-0.32364 -1.11447,-0.428039 z"
             id="path31220" />
          <path
             d="m 185.94255,-45.7951 c -0.0104,0.05742 -0.0339,0.14094 -0.0522,0.19314 -0.0783,0.22185 -0.18531,0.46719 -0.35235,0.709919 -0.20619,-0.159209 -0.50895,-0.373229 -0.7308,-0.514169 l -0.13833,0.16443 c 0.25056,0.15399 0.54027,0.368009 0.73341,0.527219 -0.25578,0.31581 -0.57942,0.60291 -1.03617,0.81954 l 0.18531,0.16443 c 0.45414,-0.2349 0.77778,-0.54549 1.02051,-0.84303 0.22446,0.19314 0.42282,0.37845 0.61596,0.6003 l 0.16443,-0.1827 c -0.18531,-0.19836 -0.40977,-0.40194 -0.64206,-0.59508 0.17487,-0.25317 0.30798,-0.540269 0.3915,-0.769949 0.0209,-0.05481 0.06,-0.14094 0.0861,-0.19053 z"
             id="path31222" />
          <path
             d="m 188.75613,-45.84991 c -0.14616,0.18531 -0.42021,0.41238 -0.68643,0.57681 -0.2871,0.18009 -0.7308,0.378449 -1.16667,0.480239 l 0.12006,0.20358 c 0.34191,-0.10179 0.70209,-0.25317 0.98136,-0.40716 v 0.98658 c 0,0.09918 -0.008,0.22968 -0.0157,0.27927 h 0.25578 c -0.0104,-0.0522 -0.0157,-0.18009 -0.0157,-0.27927 v -1.117079 c 0.26883,-0.16965 0.51939,-0.38367 0.69948,-0.56637 z"
             id="path31224" />
          <path
             d="m 189.88365,-45.72463 -0.14877,0.15921 c 0.19314,0.1305 0.51939,0.40977 0.64989,0.545489 l 0.16443,-0.164429 c -0.14616,-0.14616 -0.48024,-0.4176 -0.66555,-0.54027 z m -0.22446,1.748699 0.13833,0.21402 c 0.43587,-0.08091 0.76473,-0.24012 1.02573,-0.40716 0.39411,-0.24534 0.69687,-0.6003 0.87696,-0.926549 l -0.12528,-0.22185 c -0.15138,0.321029 -0.4698,0.707309 -0.87174,0.960479 -0.24795,0.15399 -0.58725,0.3132 -1.044,0.38106 z"
             id="path31226" />
        </g>
        <path
           d="M118.2-49.1h51.37"
           id="path1017"
           fill="none"
           stroke="#fe7c3f"
           stroke-width=".46"
           stroke-linecap="butt"
           stroke-linejoin="miter"
           stroke-miterlimit="4"
           stroke-dasharray="none"
           stroke-opacity="1"
           marker-end="url(#marker8831574)" />
        <path
           d="M120.38-53.45h49.2"
           id="path1017-3"
           fill="none"
           stroke="#fe7c3f"
           stroke-width=".46"
           stroke-linecap="butt"
           stroke-linejoin="miter"
           stroke-miterlimit="4"
           stroke-dasharray="none"
           stroke-opacity="1"
           marker-end="url(#marker8831574-0)" />
      </g>
    </g>
  </g>
</svg>
