<?xml version="1.0" encoding="UTF-8" standalone="no"?>
<svg
   width="940"
   height="440"
   id="svg10908"
   version="1.1"
   sodipodi:docname="lvm-2.svg"
   inkscape:version="1.2.1 (9c6d41e410, 2022-07-14)"
   xmlns:inkscape="http://www.inkscape.org/namespaces/inkscape"
   xmlns:sodipodi="http://sodipodi.sourceforge.net/DTD/sodipodi-0.dtd"
   xmlns="http://www.w3.org/2000/svg"
   xmlns:svg="http://www.w3.org/2000/svg">
  <defs
     id="defs8655" />
  <sodipodi:namedview
     id="namedview8653"
     pagecolor="#ffffff"
     bordercolor="#000000"
     borderopacity="0.25"
     inkscape:showpageshadow="2"
     inkscape:pageopacity="0.0"
     inkscape:pagecheckerboard="0"
     inkscape:deskcolor="#d1d1d1"
     showgrid="false"
     inkscape:zoom="1.5702128"
     inkscape:cx="469.99999"
     inkscape:cy="219.71544"
     inkscape:window-width="1920"
     inkscape:window-height="1017"
     inkscape:window-x="-8"
     inkscape:window-y="-8"
     inkscape:window-maximized="1"
     inkscape:current-layer="text1114-25" />
  <g
     id="layer1"
     transform="translate(-10 -952.36)">
    <path
       id="rect924"
       style="opacity:1;fill:#30ba78;stroke-width:2.38;stroke-linecap:square;paint-order:stroke fill markers;stop-color:#000000"
       d="m 20,1312.36 h 100 v 70 H 20 Z" />
    <path
       id="rect924-7"
       style="opacity:1;fill:#30ba78;stroke-width:2.38;stroke-linecap:square;paint-order:stroke fill markers;stop-color:#000000"
       d="m 130,1312.36 h 100 v 70 H 130 Z" />
    <path
       id="rect924-7-5"
       style="opacity:1;fill:#30ba78;stroke-width:2.38;stroke-linecap:square;paint-order:stroke fill markers;stop-color:#000000"
       d="m 240,1312.36 h 100 v 70 H 240 Z" />
    <path
       id="rect924-7-3"
       style="opacity:1;fill:#30ba78;stroke-width:4.5;stroke-linecap:square;paint-order:stroke fill markers;stop-color:#000000"
       d="m 20,1052.36 h 100 v 250 H 20 Z" />
    <path
       id="rect924-7-3-5"
       style="opacity:1;fill:#30ba78;stroke-width:4.5;stroke-linecap:square;paint-order:stroke fill markers;stop-color:#000000"
       d="m 130,1052.36 h 100 v 250 H 130 Z" />
    <path
       id="rect924-7-3-6"
       style="opacity:1;fill:#30ba78;stroke-width:4.5;stroke-linecap:square;paint-order:stroke fill markers;stop-color:#000000"
       d="m 240,1052.36 h 100 v 250 H 240 Z" />
    <path
       id="rect983"
       style="opacity:1;fill:#30ba78;stroke-width:2.38;stroke-linecap:square;paint-order:stroke fill markers;stop-color:#000000"
       d="M 20,962.35999 H 340 V 1042.36 H 20 Z" />
    <path
       id="rect985"
       style="opacity:1;fill:#0c322c;stroke-width:2.38;stroke-linecap:square;paint-order:stroke fill markers;stop-color:#000000"
       d="m 450,1052.36 h 90 v 80 h -90 z" />
    <path
       id="rect985-2"
       style="opacity:1;fill:#0c322c;stroke-width:2.38;stroke-linecap:square;paint-order:stroke fill markers;stop-color:#000000"
       d="m 550,1052.36 h 90 v 80 h -90 z" />
    <path
       id="rect985-9"
       style="opacity:1;fill:#0c322c;stroke-width:2.38;stroke-linecap:square;paint-order:stroke fill markers;stop-color:#000000"
       d="m 650,1052.36 h 90 v 80 h -90 z" />
    <path
       id="rect985-1"
       style="opacity:1;fill:#0c322c;stroke-width:2.38;stroke-linecap:square;paint-order:stroke fill markers;stop-color:#000000"
       d="m 750,1052.36 h 90 v 80 h -90 z" />
    <path
       id="rect985-27"
       style="opacity:1;fill:#0c322c;stroke-width:2.38;stroke-linecap:square;paint-order:stroke fill markers;stop-color:#000000"
       d="m 850,1052.36 h 90 v 80 h -90 z" />
    <path
       id="rect985-0"
       style="opacity:1;fill:#0c322c;stroke-width:4.27;stroke-linecap:square;paint-order:stroke fill markers;stop-color:#000000"
       d="m 450,1142.36 h 290 v 80 H 450 Z" />
    <path
       id="rect985-93"
       style="opacity:1;fill:#0c322c;stroke-width:3.46;stroke-linecap:square;paint-order:stroke fill markers;stop-color:#000000"
       d="m 750,1142.36 h 190 v 80 H 750 Z" />
    <path
       id="rect985-6"
       style="opacity:1;fill:#0c322c;stroke-width:2.78;stroke-linecap:square;paint-order:stroke fill markers;stop-color:#000000"
       d="m 450,1232.36 h 140 v 70 H 450 Z" />
    <path
       id="rect985-6-0"
       style="opacity:1;fill:#0c322c;stroke-width:2.78;stroke-linecap:square;paint-order:stroke fill markers;stop-color:#000000"
       d="m 600,1232.36 h 140 v 70 H 600 Z" />
    <path
       id="rect985-6-6"
       style="opacity:1;fill:#0c322c;stroke-width:2.23;stroke-linecap:square;paint-order:stroke fill markers;stop-color:#000000"
       d="m 750,1232.36 h 90 v 70 h -90 z" />
    <path
       id="rect985-6-2"
       style="opacity:1;fill:#0c322c;stroke-width:2.23;stroke-linecap:square;paint-order:stroke fill markers;stop-color:#000000"
       d="m 850,1232.36 h 90 v 70 h -90 z" />
    <path
       id="rect985-6-61"
       style="opacity:1;fill:#0c322c;stroke-width:2.78;stroke-linecap:square;paint-order:stroke fill markers;stop-color:#000000"
       d="m 448,1312.36 h 140 v 70 H 448 Z" />
    <path
       id="rect985-6-0-8"
       style="opacity:1;fill:#0c322c;stroke-width:2.78;stroke-linecap:square;paint-order:stroke fill markers;stop-color:#000000"
       d="m 598,1312.36 h 140 v 70 H 598 Z" />
    <path
       id="rect985-6-6-7"
       style="opacity:1;fill:#0c322c;stroke-width:2.23;stroke-linecap:square;paint-order:stroke fill markers;stop-color:#000000"
       d="m 748,1312.36 h 90 v 70 h -90 z" />
    <path
       id="rect985-6-2-9"
       style="opacity:1;fill:#0c322c;stroke-width:2.23;stroke-linecap:square;paint-order:stroke fill markers;stop-color:#000000"
       d="m 848,1312.36 h 90 v 70 h -90 z" />
    <path
       id="rect985-20"
       style="opacity:1;fill:#0c322c;stroke-width:3.46;stroke-linecap:square;paint-order:stroke fill markers;stop-color:#000000"
       d="M 450,962.35999 H 640 V 1042.36 H 450 Z" />
    <path
       id="rect985-23"
       style="opacity:1;fill:#0c322c;stroke-width:4.27;stroke-linecap:square;paint-order:stroke fill markers;stop-color:#000000"
       d="M 650,962.35999 H 940 V 1042.36 H 650 Z" />
    <g
       aria-label="ディスク"
       id="text1114"
       style="font-size:18.67px;line-height:1.25;font-family:'Noto Sans CJK JP';-inkscape-font-specification:'Noto Sans CJK JP, Normal';letter-spacing:0">
      <path
         d="m 157.10689,996.26775 c -0.39207,-0.76547 -1.06419,-1.88567 -1.53094,-2.55779 l -0.98951,0.42941 c 0.50409,0.69079 1.13887,1.81099 1.51227,2.57646 z m -4.23809,0.44808 c 0.54143,0 1.19488,0.0187 1.73631,0.056 v -1.54961 c -0.54143,0.0747 -1.21355,0.11202 -1.73631,0.11202 h -6.45982 c -0.59744,0 -1.15754,-0.056 -1.69897,-0.11202 v 1.54961 c 0.48542,-0.0373 1.10153,-0.056 1.71764,-0.056 z m -8.73756,3.28587 c -0.57877,0 -1.1202,-0.0373 -1.62429,-0.0746 v 1.53093 c 0.50409,-0.037 1.04552,-0.037 1.62429,-0.037 h 5.58233 c -0.056,1.7549 -0.26138,3.3232 -1.08286,4.6301 -0.72813,1.1762 -2.07237,2.2591 -3.52863,2.8565 l 1.38158,1.0269 c 1.58695,-0.8215 3.00587,-2.1657 3.67799,-3.4166 0.7468,-1.3816 1.04552,-3.0806 1.10153,-5.0969 h 5.07824 c 0.44808,0 1.04552,0.019 1.45626,0.037 v -1.53093 c -0.44808,0.056 -1.06419,0.0746 -1.45626,0.0746 z m 12.5089,-6.6278 c 0.54143,0.70946 1.13887,1.75498 1.54961,2.57646 l 1.00818,-0.44808 c -0.35473,-0.69079 -1.08286,-1.867 -1.56828,-2.53912 z"
         id="path32024" />
      <path
         d="m 171.74417,997.61199 c -0.95217,1.19488 -2.94986,2.76311 -4.81686,3.84601 -1.54961,0.8962 -4.08873,2.035 -6.47849,2.5578 l 0.80281,1.3629 c 2.03503,-0.5788 4.27543,-1.5496 5.86238,-2.3898 v 5.7131 c 0,0.5601 -0.0373,1.3255 -0.0747,1.6056 h 1.71764 c -0.0747,-0.2801 -0.0933,-1.0455 -0.0933,-1.6056 v -6.6092 c 1.69897,-1.0642 3.3606,-2.42711 4.23809,-3.37928 z"
         id="path32026" />
      <path
         d="m 190.93693,995.65164 c -0.29872,0.0933 -0.78414,0.16803 -1.40025,0.16803 h -7.20662 c -0.5601,0 -1.62429,-0.0933 -1.88567,-0.13069 v 1.69897 c 0.20537,-0.0187 1.23222,-0.0934 1.88567,-0.0934 h 7.2813 c -0.46675,1.53094 -1.82966,3.7527 -3.09922,5.1903 -1.92301,2.147 -4.68617,4.3687 -7.69204,5.5449 l 1.19488,1.2509 c 2.76316,-1.2509 5.28361,-3.3046 7.2813,-5.4516 1.90434,1.699 3.88336,3.902 5.13425,5.545 l 1.3069,-1.1389 c -1.21355,-1.4562 -3.49129,-3.8833 -5.45164,-5.5636 1.32557,-1.6803 2.50178,-3.86473 3.13656,-5.47035 0.11202,-0.26138 0.35473,-0.67212 0.46675,-0.82148 z"
         id="path32028" />
      <path
         d="m 210.65245,996.45445 c -0.29872,0.11202 -0.70946,0.16803 -1.21355,0.16803 h -5.07824 c 0.16803,-0.26138 0.31739,-0.52276 0.44808,-0.78414 0.1867,-0.35473 0.52276,-0.97084 0.84015,-1.45626 l -1.73631,-0.57877 c -0.11202,0.48542 -0.3734,1.15754 -0.57877,1.47493 -0.80281,1.6803 -2.63247,4.38745 -5.86238,6.31046 l 1.28823,0.9708 c 2.03503,-1.3629 3.60331,-3.0245 4.72351,-4.59278 h 6.31046 c -0.3734,1.69897 -1.51227,4.10738 -2.96853,5.82508 -1.69897,1.979 -4.03272,3.6779 -7.44933,4.6861 l 1.34424,1.2136 c 3.50996,-1.2883 5.73169,-3.0059 7.43066,-5.0783 1.66163,-2.0163 2.8005,-4.5554 3.30459,-6.42244 0.11202,-0.29872 0.29872,-0.72813 0.44808,-0.98951 z"
         id="path32030" />
    </g>
    <g
       aria-label="ディスク1"
       id="text1114-7"
       style="font-size:18.67px;line-height:1.25;font-family:'Noto Sans CJK JP';-inkscape-font-specification:'Noto Sans CJK JP, Normal';letter-spacing:0;fill:#ffffff">
      <path
         d="m 519.0769,996.49773 c -0.39207,-0.76547 -1.06419,-1.88567 -1.53094,-2.55779 l -0.98951,0.42941 c 0.50409,0.69079 1.13887,1.81099 1.51227,2.57646 z m -4.23809,0.44808 c 0.54143,0 1.19488,0.0187 1.73631,0.056 v -1.54961 c -0.54143,0.0747 -1.21355,0.11202 -1.73631,0.11202 h -6.45982 c -0.59744,0 -1.15754,-0.056 -1.69897,-0.11202 v 1.54961 c 0.48542,-0.0373 1.10153,-0.056 1.71764,-0.056 z m -8.73756,3.28589 c -0.57877,0 -1.1202,-0.037 -1.62429,-0.075 v 1.531 c 0.50409,-0.037 1.04552,-0.037 1.62429,-0.037 h 5.58233 c -0.056,1.755 -0.26138,3.3233 -1.08286,4.6302 -0.72813,1.1762 -2.07237,2.2591 -3.52863,2.8565 l 1.38158,1.0269 c 1.58695,-0.8215 3.00587,-2.1658 3.67799,-3.4166 0.7468,-1.3816 1.04552,-3.0806 1.10153,-5.097 h 5.07824 c 0.44808,0 1.04552,0.019 1.45626,0.037 v -1.531 c -0.44808,0.056 -1.06419,0.075 -1.45626,0.075 z m 12.5089,-6.62782 c 0.54143,0.70946 1.13887,1.75498 1.54961,2.57646 l 1.00818,-0.44808 c -0.35473,-0.69079 -1.08286,-1.867 -1.56828,-2.53912 z"
         id="path32013" />
      <path
         d="m 533.71419,997.84197 c -0.95217,1.19488 -2.94986,2.76313 -4.81686,3.84603 -1.54961,0.8961 -4.08873,2.035 -6.47849,2.5578 l 0.80281,1.3629 c 2.03503,-0.5788 4.27543,-1.5496 5.86238,-2.3898 v 5.713 c 0,0.5601 -0.0373,1.3256 -0.0747,1.6057 h 1.71764 c -0.0747,-0.2801 -0.0933,-1.0456 -0.0933,-1.6057 v -6.6091 c 1.69897,-1.0642 3.3606,-2.42713 4.23809,-3.3793 z"
         id="path32015" />
      <path
         d="m 552.90695,995.88162 c -0.29872,0.0933 -0.78414,0.16803 -1.40025,0.16803 h -7.20662 c -0.5601,0 -1.62429,-0.0933 -1.88567,-0.13069 v 1.69897 c 0.20537,-0.0187 1.23222,-0.0933 1.88567,-0.0933 h 7.2813 c -0.46675,1.53094 -1.82966,3.75262 -3.09922,5.19022 -1.92301,2.1471 -4.68617,4.3688 -7.69204,5.545 l 1.19488,1.2509 c 2.76316,-1.2509 5.28361,-3.3046 7.2813,-5.4516 1.90434,1.6989 3.88336,3.902 5.13425,5.545 l 1.3069,-1.1389 c -1.21355,-1.4563 -3.49129,-3.8834 -5.45164,-5.5637 1.32557,-1.6803 2.50178,-3.86465 3.13656,-5.47027 0.11202,-0.26138 0.35473,-0.67212 0.46675,-0.82148 z"
         id="path32017" />
      <path
         d="m 572.62247,996.68443 c -0.29872,0.11202 -0.70946,0.16803 -1.21355,0.16803 h -5.07824 c 0.16803,-0.26138 0.31739,-0.52276 0.44808,-0.78414 0.1867,-0.35473 0.52276,-0.97084 0.84015,-1.45626 l -1.73631,-0.57877 c -0.11202,0.48542 -0.3734,1.15754 -0.57877,1.47493 -0.80281,1.6803 -2.63247,4.38745 -5.86238,6.31048 l 1.28823,0.9708 c 2.03503,-1.3629 3.60331,-3.02452 4.72351,-4.5928 h 6.31046 c -0.3734,1.69897 -1.51227,4.1074 -2.96853,5.825 -1.69897,1.9791 -4.03272,3.678 -7.44933,4.6862 l 1.34424,1.2136 c 3.50996,-1.2883 5.73169,-3.0059 7.43066,-5.0783 1.66163,-2.0163 2.8005,-4.5555 3.30459,-6.42246 0.11202,-0.29872 0.29872,-0.72813 0.44808,-0.98951 z"
         id="path32019" />
      <path
         d="m 577.90608,1009.1 h 7.50534 v -1.4189 h -2.74449 v -12.26623 h -1.3069 c -0.7468,0.42941 -1.62429,0.7468 -2.83784,0.97084 v 1.08286 h 2.4271 v 10.21253 h -3.04321 z"
         id="path32021" />
    </g>
    <g
       aria-label="ディスク2"
       id="text1114-9"
       style="font-size:18.67px;line-height:1.25;font-family:'Noto Sans CJK JP';-inkscape-font-specification:'Noto Sans CJK JP, Normal';letter-spacing:0;fill:#ffffff">
      <path
         d="m 768.41687,996.63774 c -0.39207,-0.76547 -1.06419,-1.88567 -1.53094,-2.55779 l -0.98951,0.42941 c 0.50409,0.69079 1.13887,1.81099 1.51227,2.57646 z m -4.23809,0.44808 c 0.54143,0 1.19488,0.0187 1.73631,0.056 v -1.54961 c -0.54143,0.0747 -1.21355,0.11202 -1.73631,0.11202 h -6.45982 c -0.59744,0 -1.15754,-0.056 -1.69897,-0.11202 v 1.54961 c 0.48542,-0.0373 1.10153,-0.056 1.71764,-0.056 z m -8.73756,3.28588 c -0.57877,0 -1.1202,-0.037 -1.62429,-0.075 v 1.5309 c 0.50409,-0.037 1.04552,-0.037 1.62429,-0.037 h 5.58233 c -0.056,1.7549 -0.26138,3.3232 -1.08286,4.6301 -0.72813,1.1762 -2.07237,2.2591 -3.52863,2.8565 l 1.38158,1.0269 c 1.58695,-0.8215 3.00587,-2.1657 3.67799,-3.4166 0.7468,-1.3816 1.04552,-3.0806 1.10153,-5.0969 h 5.07824 c 0.44808,0 1.04552,0.019 1.45626,0.037 v -1.5309 c -0.44808,0.056 -1.06419,0.075 -1.45626,0.075 z m 12.5089,-6.62781 c 0.54143,0.70946 1.13887,1.75498 1.54961,2.57646 l 1.00818,-0.44808 c -0.35473,-0.69079 -1.08286,-1.867 -1.56828,-2.53912 z"
         id="path32002" />
      <path
         d="m 783.05416,997.98198 c -0.95217,1.19488 -2.94986,2.76312 -4.81686,3.84602 -1.54961,0.8962 -4.08873,2.035 -6.47849,2.5578 l 0.80281,1.3629 c 2.03503,-0.5788 4.27543,-1.5496 5.86238,-2.3898 v 5.7131 c 0,0.5601 -0.0373,1.3255 -0.0747,1.6056 h 1.71764 c -0.0747,-0.2801 -0.0933,-1.0455 -0.0933,-1.6056 v -6.6092 c 1.69897,-1.0642 3.3606,-2.4271 4.23809,-3.37929 z"
         id="path32004" />
      <path
         d="m 802.24691,996.02163 c -0.29872,0.0933 -0.78414,0.16803 -1.40025,0.16803 h -7.20662 c -0.5601,0 -1.62429,-0.0933 -1.88567,-0.13069 v 1.69897 c 0.20537,-0.0187 1.23222,-0.0933 1.88567,-0.0933 h 7.2813 c -0.46675,1.53094 -1.82966,3.75271 -3.09922,5.19031 -1.92301,2.147 -4.68617,4.3687 -7.69204,5.5449 l 1.19488,1.2509 c 2.76316,-1.2509 5.28361,-3.3046 7.2813,-5.4516 1.90434,1.699 3.88336,3.902 5.13425,5.545 l 1.3069,-1.1389 c -1.21355,-1.4562 -3.49129,-3.8833 -5.45164,-5.5636 1.32557,-1.6803 2.50178,-3.86474 3.13656,-5.47036 0.11202,-0.26138 0.35473,-0.67212 0.46675,-0.82148 z"
         id="path32006" />
      <path
         d="m 821.96244,996.82444 c -0.29872,0.11202 -0.70946,0.16803 -1.21355,0.16803 h -5.07824 c 0.16803,-0.26138 0.31739,-0.52276 0.44808,-0.78414 0.1867,-0.35473 0.52276,-0.97084 0.84015,-1.45626 l -1.73631,-0.57877 c -0.11202,0.48542 -0.3734,1.15754 -0.57877,1.47493 -0.80281,1.6803 -2.63247,4.38747 -5.86238,6.31047 l 1.28823,0.9708 c 2.03503,-1.3629 3.60331,-3.02451 4.72351,-4.59279 h 6.31046 c -0.3734,1.69899 -1.51227,4.10739 -2.96853,5.82509 -1.69897,1.979 -4.03272,3.6779 -7.44933,4.6861 l 1.34424,1.2136 c 3.50996,-1.2883 5.73169,-3.0059 7.43066,-5.0783 1.66163,-2.0163 2.8005,-4.5554 3.30459,-6.42245 0.11202,-0.29872 0.29872,-0.72813 0.44808,-0.98951 z"
         id="path32008" />
      <path
         d="m 826.42457,1009.24 h 8.60687 v -1.4749 h -3.79001 c -0.69079,0 -1.53094,0.075 -2.2404,0.1307 3.21124,-3.0433 5.35829,-5.8251 5.35829,-8.55091 0,-2.44577 -1.53094,-4.05139 -3.97671,-4.05139 -1.73631,0 -2.91252,0.80281 -4.03272,2.01636 l 0.98951,0.97084 c 0.7468,-0.89616 1.71764,-1.58695 2.83784,-1.58695 1.69897,0 2.52045,1.13887 2.52045,2.70715 0,2.3524 -1.97902,5.0782 -6.27312,8.8309 z"
         id="path32010" />
    </g>
    <g
       aria-label="パート"
       id="text1114-2"
       style="font-size:18.67px;line-height:1.25;font-family:'Noto Sans CJK JP';-inkscape-font-specification:'Noto Sans CJK JP, Normal';letter-spacing:0;fill:#ffffff">
      <path
         d="m 482.06862,1085.847 c 0,-0.6721 0.54143,-1.2509 1.21355,-1.2509 0.69079,0 1.25089,0.5788 1.25089,1.2509 0,0.6721 -0.5601,1.2322 -1.25089,1.2322 -0.67212,0 -1.21355,-0.5601 -1.21355,-1.2322 z m -0.85882,0 c 0,1.1575 0.9335,2.091 2.07237,2.091 1.15754,0 2.10971,-0.9335 2.10971,-2.091 0,-1.1575 -0.95217,-2.1097 -2.10971,-2.1097 -1.13887,0 -2.07237,0.9522 -2.07237,2.1097 z m -9.68973,7.3933 c -0.65345,1.5683 -1.69897,3.5286 -2.87518,5.0783 l 1.58695,0.6721 c 1.04552,-1.4936 2.0537,-3.4166 2.74449,-5.1343 0.78414,-1.9043 1.43759,-4.6675 1.69897,-5.825 0.0747,-0.4108 0.22404,-0.9522 0.33606,-1.3629 l -1.66163,-0.3361 c -0.24271,2.1471 -1.02685,4.9849 -1.82966,6.9079 z m 9.18564,-0.7094 c 0.78414,1.9976 1.64296,4.5181 2.10971,6.4224 l 1.66163,-0.5414 c -0.48542,-1.6803 -1.47493,-4.5368 -2.2404,-6.3851 -0.78414,-1.9791 -1.97902,-4.5555 -2.72582,-5.8998 l -1.51227,0.5041 c 0.82148,1.3816 1.96035,3.9767 2.70715,5.8998 z"
         id="path31995" />
      <path
         d="m 488.02435,1092.6055 c 0.57877,-0.056 1.56828,-0.093 2.59513,-0.093 h 10.24983 c 0.84015,0 1.62429,0.075 1.99769,0.093 v -1.8296 c -0.41074,0.037 -1.08286,0.093 -2.01636,0.093 h -10.23116 c -1.04552,0 -2.03503,-0.056 -2.59513,-0.093 z"
         id="path31997" />
      <path
         d="m 520.6035,1092.4748 c -1.97902,-0.9895 -5.50765,-2.3337 -7.97209,-3.0805 v -3.0432 c 0,-0.5601 0.0747,-1.3629 0.13069,-1.9417 h -1.82966 c 0.11202,0.5788 0.14936,1.4189 0.14936,1.9417 v 10.8659 c 0,0.6908 -0.0373,1.6056 -0.11202,2.2031 h 1.79232 c -0.0747,-0.6161 -0.11202,-1.6056 -0.11202,-2.2031 l -0.0187,-6.1611 c 2.07237,0.6535 5.30228,1.9044 7.33731,3.0059 z"
         id="path31999" />
    </g>
    <g
       aria-label="パート"
       id="text1114-97"
       style="font-size:18.67px;line-height:1.25;font-family:'Noto Sans CJK JP';-inkscape-font-specification:'Noto Sans CJK JP, Normal';letter-spacing:0;fill:#ffffff">
      <path
         d="m 582.06862,1085.847 c 0,-0.6721 0.54143,-1.2509 1.21355,-1.2509 0.69079,0 1.25089,0.5788 1.25089,1.2509 0,0.6721 -0.5601,1.2322 -1.25089,1.2322 -0.67212,0 -1.21355,-0.5601 -1.21355,-1.2322 z m -0.85882,0 c 0,1.1575 0.9335,2.091 2.07237,2.091 1.15754,0 2.10971,-0.9335 2.10971,-2.091 0,-1.1575 -0.95217,-2.1097 -2.10971,-2.1097 -1.13887,0 -2.07237,0.9522 -2.07237,2.1097 z m -9.68973,7.3933 c -0.65345,1.5683 -1.69897,3.5286 -2.87518,5.0783 l 1.58695,0.6721 c 1.04552,-1.4936 2.0537,-3.4166 2.74449,-5.1343 0.78414,-1.9043 1.43759,-4.6675 1.69897,-5.825 0.0747,-0.4108 0.22404,-0.9522 0.33606,-1.3629 l -1.66163,-0.3361 c -0.24271,2.1471 -1.02685,4.9849 -1.82966,6.9079 z m 9.18564,-0.7094 c 0.78414,1.9976 1.64296,4.5181 2.10971,6.4224 l 1.66163,-0.5414 c -0.48542,-1.6803 -1.47493,-4.5368 -2.2404,-6.3851 -0.78414,-1.9791 -1.97902,-4.5555 -2.72582,-5.8998 l -1.51227,0.5041 c 0.82148,1.3816 1.96035,3.9767 2.70715,5.8998 z"
         id="path31988" />
      <path
         d="m 588.02435,1092.6055 c 0.57877,-0.056 1.56828,-0.093 2.59513,-0.093 h 10.24983 c 0.84015,0 1.62429,0.075 1.99769,0.093 v -1.8296 c -0.41074,0.037 -1.08286,0.093 -2.01636,0.093 h -10.23116 c -1.04552,0 -2.03503,-0.056 -2.59513,-0.093 z"
         id="path31990" />
      <path
         d="m 620.6035,1092.4748 c -1.97902,-0.9895 -5.50765,-2.3337 -7.97209,-3.0805 v -3.0432 c 0,-0.5601 0.0747,-1.3629 0.13069,-1.9417 h -1.82966 c 0.11202,0.5788 0.14936,1.4189 0.14936,1.9417 v 10.8659 c 0,0.6908 -0.0373,1.6056 -0.11202,2.2031 h 1.79232 c -0.0747,-0.6161 -0.11202,-1.6056 -0.11202,-2.2031 l -0.0187,-6.1611 c 2.07237,0.6535 5.30228,1.9044 7.33731,3.0059 z"
         id="path31992" />
    </g>
    <g
       aria-label="パート"
       id="text1114-6"
       style="font-size:18.67px;line-height:1.25;font-family:'Noto Sans CJK JP';-inkscape-font-specification:'Noto Sans CJK JP, Normal';letter-spacing:0;fill:#ffffff">
      <path
         d="m 682.06862,1085.847 c 0,-0.6721 0.54143,-1.2509 1.21355,-1.2509 0.69079,0 1.25089,0.5788 1.25089,1.2509 0,0.6721 -0.5601,1.2322 -1.25089,1.2322 -0.67212,0 -1.21355,-0.5601 -1.21355,-1.2322 z m -0.85882,0 c 0,1.1575 0.9335,2.091 2.07237,2.091 1.15754,0 2.10971,-0.9335 2.10971,-2.091 0,-1.1575 -0.95217,-2.1097 -2.10971,-2.1097 -1.13887,0 -2.07237,0.9522 -2.07237,2.1097 z m -9.68973,7.3933 c -0.65345,1.5683 -1.69897,3.5286 -2.87518,5.0783 l 1.58695,0.6721 c 1.04552,-1.4936 2.0537,-3.4166 2.74449,-5.1343 0.78414,-1.9043 1.43759,-4.6675 1.69897,-5.825 0.0747,-0.4108 0.22404,-0.9522 0.33606,-1.3629 l -1.66163,-0.3361 c -0.24271,2.1471 -1.02685,4.9849 -1.82966,6.9079 z m 9.18564,-0.7094 c 0.78414,1.9976 1.64296,4.5181 2.10971,6.4224 l 1.66163,-0.5414 c -0.48542,-1.6803 -1.47493,-4.5368 -2.2404,-6.3851 -0.78414,-1.9791 -1.97902,-4.5555 -2.72582,-5.8998 l -1.51227,0.5041 c 0.82148,1.3816 1.96035,3.9767 2.70715,5.8998 z"
         id="path31981" />
      <path
         d="m 688.02435,1092.6055 c 0.57877,-0.056 1.56828,-0.093 2.59513,-0.093 h 10.24983 c 0.84015,0 1.62429,0.075 1.99769,0.093 v -1.8296 c -0.41074,0.037 -1.08286,0.093 -2.01636,0.093 h -10.23116 c -1.04552,0 -2.03503,-0.056 -2.59513,-0.093 z"
         id="path31983" />
      <path
         d="m 720.6035,1092.4748 c -1.97902,-0.9895 -5.50765,-2.3337 -7.97209,-3.0805 v -3.0432 c 0,-0.5601 0.0747,-1.3629 0.13069,-1.9417 h -1.82966 c 0.11202,0.5788 0.14936,1.4189 0.14936,1.9417 v 10.8659 c 0,0.6908 -0.0373,1.6056 -0.11202,2.2031 h 1.79232 c -0.0747,-0.6161 -0.11202,-1.6056 -0.11202,-2.2031 l -0.0187,-6.1611 c 2.07237,0.6535 5.30228,1.9044 7.33731,3.0059 z"
         id="path31985" />
    </g>
    <g
       aria-label="パート"
       id="text1114-29"
       style="font-size:18.67px;line-height:1.25;font-family:'Noto Sans CJK JP';-inkscape-font-specification:'Noto Sans CJK JP, Normal';letter-spacing:0;fill:#ffffff">
      <path
         d="m 782.06862,1085.847 c 0,-0.6721 0.54143,-1.2509 1.21355,-1.2509 0.69079,0 1.25089,0.5788 1.25089,1.2509 0,0.6721 -0.5601,1.2322 -1.25089,1.2322 -0.67212,0 -1.21355,-0.5601 -1.21355,-1.2322 z m -0.85882,0 c 0,1.1575 0.9335,2.091 2.07237,2.091 1.15754,0 2.10971,-0.9335 2.10971,-2.091 0,-1.1575 -0.95217,-2.1097 -2.10971,-2.1097 -1.13887,0 -2.07237,0.9522 -2.07237,2.1097 z m -9.68973,7.3933 c -0.65345,1.5683 -1.69897,3.5286 -2.87518,5.0783 l 1.58695,0.6721 c 1.04552,-1.4936 2.0537,-3.4166 2.74449,-5.1343 0.78414,-1.9043 1.43759,-4.6675 1.69897,-5.825 0.0747,-0.4108 0.22404,-0.9522 0.33606,-1.3629 l -1.66163,-0.3361 c -0.24271,2.1471 -1.02685,4.9849 -1.82966,6.9079 z m 9.18564,-0.7094 c 0.78414,1.9976 1.64296,4.5181 2.10971,6.4224 l 1.66163,-0.5414 c -0.48542,-1.6803 -1.47493,-4.5368 -2.2404,-6.3851 -0.78414,-1.9791 -1.97902,-4.5555 -2.72582,-5.8998 l -1.51227,0.5041 c 0.82148,1.3816 1.96035,3.9767 2.70715,5.8998 z"
         id="path31974" />
      <path
         d="m 788.02435,1092.6055 c 0.57877,-0.056 1.56828,-0.093 2.59513,-0.093 h 10.24983 c 0.84015,0 1.62429,0.075 1.99769,0.093 v -1.8296 c -0.41074,0.037 -1.08286,0.093 -2.01636,0.093 h -10.23116 c -1.04552,0 -2.03503,-0.056 -2.59513,-0.093 z"
         id="path31976" />
      <path
         d="m 820.6035,1092.4748 c -1.97902,-0.9895 -5.50765,-2.3337 -7.97209,-3.0805 v -3.0432 c 0,-0.5601 0.0747,-1.3629 0.13069,-1.9417 h -1.82966 c 0.11202,0.5788 0.14936,1.4189 0.14936,1.9417 v 10.8659 c 0,0.6908 -0.0373,1.6056 -0.11202,2.2031 h 1.79232 c -0.0747,-0.6161 -0.11202,-1.6056 -0.11202,-2.2031 l -0.0187,-6.1611 c 2.07237,0.6535 5.30228,1.9044 7.33731,3.0059 z"
         id="path31978" />
    </g>
    <g
       aria-label="パート"
       id="text1114-94"
       style="font-size:18.67px;line-height:1.25;font-family:'Noto Sans CJK JP';-inkscape-font-specification:'Noto Sans CJK JP, Normal';letter-spacing:0;fill:#ffffff">
      <path
         d="m 882.06862,1085.847 c 0,-0.6721 0.54143,-1.2509 1.21355,-1.2509 0.69079,0 1.25089,0.5788 1.25089,1.2509 0,0.6721 -0.5601,1.2322 -1.25089,1.2322 -0.67212,0 -1.21355,-0.5601 -1.21355,-1.2322 z m -0.85882,0 c 0,1.1575 0.9335,2.091 2.07237,2.091 1.15754,0 2.10971,-0.9335 2.10971,-2.091 0,-1.1575 -0.95217,-2.1097 -2.10971,-2.1097 -1.13887,0 -2.07237,0.9522 -2.07237,2.1097 z m -9.68973,7.3933 c -0.65345,1.5683 -1.69897,3.5286 -2.87518,5.0783 l 1.58695,0.6721 c 1.04552,-1.4936 2.0537,-3.4166 2.74449,-5.1343 0.78414,-1.9043 1.43759,-4.6675 1.69897,-5.825 0.0747,-0.4108 0.22404,-0.9522 0.33606,-1.3629 l -1.66163,-0.3361 c -0.24271,2.1471 -1.02685,4.9849 -1.82966,6.9079 z m 9.18564,-0.7094 c 0.78414,1.9976 1.64296,4.5181 2.10971,6.4224 l 1.66163,-0.5414 c -0.48542,-1.6803 -1.47493,-4.5368 -2.2404,-6.3851 -0.78414,-1.9791 -1.97902,-4.5555 -2.72582,-5.8998 l -1.51227,0.5041 c 0.82148,1.3816 1.96035,3.9767 2.70715,5.8998 z"
         id="path31967" />
      <path
         d="m 888.02435,1092.6055 c 0.57877,-0.056 1.56828,-0.093 2.59513,-0.093 h 10.24983 c 0.84015,0 1.62429,0.075 1.99769,0.093 v -1.8296 c -0.41074,0.037 -1.08286,0.093 -2.01636,0.093 h -10.23116 c -1.04552,0 -2.03503,-0.056 -2.59513,-0.093 z"
         id="path31969" />
      <path
         d="m 920.6035,1092.4748 c -1.97902,-0.9895 -5.50765,-2.3337 -7.97209,-3.0805 v -3.0432 c 0,-0.5601 0.0747,-1.3629 0.13069,-1.9417 h -1.82966 c 0.11202,0.5788 0.14936,1.4189 0.14936,1.9417 v 10.8659 c 0,0.6908 -0.0373,1.6056 -0.11202,2.2031 h 1.79232 c -0.0747,-0.6161 -0.11202,-1.6056 -0.11202,-2.2031 l -0.0187,-6.1611 c 2.07237,0.6535 5.30228,1.9044 7.33731,3.0059 z"
         id="path31971" />
    </g>
    <g
       aria-label="VG 2"
       id="text1114-8"
       style="font-size:18.67px;line-height:1.25;font-family:'Noto Sans CJK JP';-inkscape-font-specification:'Noto Sans CJK JP, Normal';letter-spacing:0;fill:#ffffff">
      <path
         d="m 832.07745,1189.25 h 1.99769 l 4.35011,-13.6851 h -1.75498 l -2.20306,7.412 c -0.48542,1.6056 -0.82148,2.9125 -1.32557,4.5181 h -0.0747 c -0.52276,-1.6056 -0.84015,-2.9125 -1.32557,-4.5181 l -2.22173,-7.412 h -1.81099 z"
         id="path31960" />
      <path
         d="m 845.46386,1189.4927 c 1.84833,0 3.3606,-0.6721 4.23809,-1.5869 v -5.7504 h -4.4808 v 1.4376 h 2.89385 v 3.5846 c -0.54143,0.5041 -1.4936,0.8028 -2.48311,0.8028 -2.93119,0 -4.55548,-2.1657 -4.55548,-5.6196 0,-3.4166 1.79232,-5.545 4.53681,-5.545 1.40025,0 2.27774,0.5787 2.96853,1.3069 l 0.9335,-1.1202 c -0.78414,-0.8402 -2.03503,-1.699 -3.93937,-1.699 -3.62198,0 -6.27312,2.6885 -6.27312,7.1133 0,4.4434 2.55779,7.0759 6.1611,7.0759 z"
         id="path31962" />
      <path
         d="m 856.0871,1189.25 h 8.60687 v -1.4749 h -3.79001 c -0.69079,0 -1.53094,0.075 -2.2404,0.1307 3.21124,-3.0433 5.35829,-5.8251 5.35829,-8.5509 0,-2.4458 -1.53094,-4.0514 -3.97671,-4.0514 -1.73631,0 -2.91252,0.8028 -4.03272,2.0164 l 0.98951,0.9708 c 0.7468,-0.8962 1.71764,-1.5869 2.83784,-1.5869 1.69897,0 2.52045,1.1388 2.52045,2.7071 0,2.3524 -1.97902,5.0782 -6.27312,8.8309 z"
         id="path31964" />
    </g>
    <g
       aria-label="VG 1"
       id="text1114-5"
       style="font-size:18.67px;line-height:1.25;font-family:'Noto Sans CJK JP';-inkscape-font-specification:'Noto Sans CJK JP, Normal';letter-spacing:0;fill:#ffffff">
      <path
         d="m 580.72748,1189.11 h 1.99769 l 4.35011,-13.6851 h -1.75498 l -2.20306,7.412 c -0.48542,1.6056 -0.82148,2.9125 -1.32557,4.5181 h -0.0747 c -0.52276,-1.6056 -0.84015,-2.9125 -1.32557,-4.5181 l -2.22173,-7.412 h -1.81099 z"
         id="path31953" />
      <path
         d="m 594.11389,1189.3527 c 1.84833,0 3.3606,-0.6721 4.23809,-1.587 v -5.7503 h -4.4808 v 1.4376 h 2.89385 v 3.5846 c -0.54143,0.5041 -1.4936,0.8028 -2.48311,0.8028 -2.93119,0 -4.55548,-2.1657 -4.55548,-5.6196 0,-3.4167 1.79232,-5.545 4.53681,-5.545 1.40025,0 2.27774,0.5787 2.96853,1.3069 l 0.9335,-1.1202 c -0.78414,-0.8402 -2.03503,-1.699 -3.93937,-1.699 -3.62198,0 -6.27312,2.6885 -6.27312,7.1133 0,4.4434 2.55779,7.0759 6.1611,7.0759 z"
         id="path31955" />
      <path
         d="m 605.5586,1189.11 h 7.50534 v -1.4189 h -2.74449 v -12.2662 h -1.3069 c -0.7468,0.4294 -1.62429,0.7468 -2.83784,0.9708 v 1.0829 h 2.4271 v 10.2125 h -3.04321 z"
         id="path31957" />
    </g>
    <g
       aria-label="LV 1"
       id="text1114-3"
       style="font-size:18.67px;line-height:1.25;font-family:'Noto Sans CJK JP';-inkscape-font-specification:'Noto Sans CJK JP, Normal';letter-spacing:0;fill:#ffffff">
      <path
         d="m 507.75701,1274.17 h 7.71071 v -1.4749 h -5.9744 v -12.2102 h -1.73631 z"
         id="path31946" />
      <path
         d="m 518.80967,1274.17 h 1.99769 l 4.35011,-13.6851 h -1.75498 l -2.20306,7.412 c -0.48542,1.6056 -0.82148,2.9125 -1.32557,4.5182 h -0.0747 c -0.52276,-1.6057 -0.84015,-2.9126 -1.32557,-4.5182 l -2.22173,-7.412 h -1.81099 z"
         id="path31948" />
      <path
         d="m 530.98254,1274.17 h 7.50534 v -1.4189 h -2.74449 v -12.2662 h -1.3069 c -0.7468,0.4294 -1.62429,0.7468 -2.83784,0.9709 v 1.0828 h 2.4271 v 10.2125 h -3.04321 z"
         id="path31950" />
    </g>
    <g
       aria-label="LV 2"
       id="text1114-1"
       style="font-size:18.67px;line-height:1.25;font-family:'Noto Sans CJK JP';-inkscape-font-specification:'Noto Sans CJK JP, Normal';letter-spacing:0;fill:#ffffff">
      <path
         d="m 657.10699,1274.3101 h 7.71071 v -1.475 h -5.9744 v -12.2102 h -1.73631 z"
         id="path31939" />
      <path
         d="m 668.15964,1274.3101 h 1.99769 l 4.35011,-13.6852 h -1.75498 l -2.20306,7.412 c -0.48542,1.6057 -0.82148,2.9126 -1.32557,4.5182 h -0.0747 c -0.52276,-1.6056 -0.84015,-2.9125 -1.32557,-4.5182 l -2.22173,-7.412 h -1.81099 z"
         id="path31941" />
      <path
         d="m 679.51104,1274.3101 h 8.60687 v -1.475 h -3.79001 c -0.69079,0 -1.53094,0.075 -2.2404,0.1307 3.21124,-3.0432 5.35829,-5.825 5.35829,-8.5508 0,-2.4458 -1.53094,-4.0514 -3.97671,-4.0514 -1.73631,0 -2.91252,0.8028 -4.03272,2.0163 l 0.98951,0.9709 c 0.7468,-0.8962 1.71764,-1.587 2.83784,-1.587 1.69897,0 2.52045,1.1389 2.52045,2.7072 0,2.3524 -1.97902,5.0782 -6.27312,8.8309 z"
         id="path31943" />
    </g>
    <g
       aria-label="LV 3"
       id="text1114-32"
       style="font-size:18.67px;line-height:1.25;font-family:'Noto Sans CJK JP';-inkscape-font-specification:'Noto Sans CJK JP, Normal';letter-spacing:0;fill:#ffffff">
      <path
         d="m 780.13702,1274.29 h 7.71071 v -1.4749 h -5.9744 v -12.2102 h -1.73631 z"
         id="path31932" />
      <path
         d="m 791.18967,1274.29 h 1.99769 l 4.35011,-13.6851 h -1.75498 l -2.20306,7.412 c -0.48542,1.6056 -0.82148,2.9125 -1.32557,4.5182 h -0.0747 c -0.52276,-1.6057 -0.84015,-2.9126 -1.32557,-4.5182 l -2.22173,-7.412 h -1.81099 z"
         id="path31934" />
      <path
         d="m 806.64847,1274.5327 c 2.4271,0 4.38745,-1.4562 4.38745,-3.902 0,-1.867 -1.28823,-3.0992 -2.91252,-3.4726 v -0.075 c 1.45626,-0.5414 2.44577,-1.6429 2.44577,-3.3046 0,-2.203 -1.6803,-3.4353 -3.97671,-3.4353 -1.58695,0 -2.8005,0.6908 -3.82735,1.643 l 0.91483,1.0829 c 0.76547,-0.7655 1.73631,-1.3256 2.83784,-1.3629 1.41892,0.037 2.31508,0.8774 2.31508,2.203 0,1.4749 -0.97084,2.6138 -3.79001,2.6138 v 1.3069 c 3.15523,0 4.25676,1.1015 4.25676,2.7445 0,1.5683 -1.15754,2.5391 -2.78183,2.5391 -1.54961,0 -2.59513,-0.7281 -3.39794,-1.5683 l -0.85882,1.1202 c 0.89616,0.9709 2.2404,1.867 4.38745,1.867 z"
         id="path31936" />
    </g>
    <g
       aria-label="LV 4"
       id="text1114-55"
       style="font-size:18.67px;line-height:1.25;font-family:'Noto Sans CJK JP';-inkscape-font-specification:'Noto Sans CJK JP, Normal';letter-spacing:0;fill:#ffffff">
      <path
         d="m 881.39703,1274.08 h 7.71071 v -1.475 h -5.9744 v -12.2102 h -1.73631 z"
         id="path31925" />
      <path
         d="m 892.44968,1274.08 h 1.99769 l 4.35011,-13.6852 h -1.75498 l -2.20306,7.412 c -0.48542,1.6057 -0.82148,2.9126 -1.32557,4.5182 h -0.0747 c -0.52276,-1.6056 -0.84015,-2.9125 -1.32557,-4.5182 l -2.22173,-7.412 h -1.81099 z"
         id="path31927" />
      <path
         d="m 905.12665,1268.9457 3.11789,-4.6675 c 0.39207,-0.6721 0.76547,-1.3442 1.10153,-2.0164 h 0.0747 c -0.0373,0.7095 -0.11202,1.811 -0.11202,2.4832 v 4.2007 z m 7.61736,0 h -1.81099 v -8.5509 h -1.88567 l -5.69435,8.7936 v 1.1202 h 5.95573 v 3.7714 h 1.62429 v -3.7714 h 1.81099 z"
         id="path31929" />
    </g>
    <g
       aria-label="MP"
       id="text1114-65"
       style="font-size:18.67px;line-height:1.25;font-family:'Noto Sans CJK JP';-inkscape-font-specification:'Noto Sans CJK JP, Normal';letter-spacing:0;fill:#ffffff">
      <path
         d="m 882.69702,1353.85 h 1.56828 v -7.58 c 0,-1.1763 -0.13069,-2.8379 -0.20537,-4.0328 h 0.0747 l 1.08286,3.1179 2.59513,7.1133 h 1.15754 l 2.59513,-7.1133 1.08286,-3.1179 h 0.0747 c -0.0933,1.1949 -0.22404,2.8565 -0.22404,4.0328 v 7.58 h 1.62429 v -13.6851 h -2.09104 l -2.6138,7.3186 c -0.31739,0.9522 -0.61611,1.9043 -0.9335,2.8565 h -0.0933 c -0.33606,-0.9522 -0.65345,-1.9043 -0.97084,-2.8565 l -2.63247,-7.3186 h -2.09104 z"
         id="path31920" />
      <path
         d="m 897.85706,1353.85 h 1.73631 v -5.433 h 2.25907 c 2.9872,0 5.0409,-1.3442 5.0409,-4.2381 0,-2.9872 -2.0537,-4.014 -5.13425,-4.014 h -3.90203 z m 1.73631,-6.8332 v -5.4517 h 1.96035 c 2.40843,0 3.62198,0.6348 3.62198,2.6138 0,1.9604 -1.13887,2.8379 -3.5473,2.8379 z"
         id="path31922" />
    </g>
    <g
       aria-label="MP"
       id="text1114-37"
       style="font-size:18.67px;line-height:1.25;font-family:'Noto Sans CJK JP';-inkscape-font-specification:'Noto Sans CJK JP, Normal';letter-spacing:0;fill:#ffffff">
      <path
         d="m 782.69702,1353.85 h 1.56828 v -7.58 c 0,-1.1763 -0.13069,-2.8379 -0.20537,-4.0328 h 0.0747 l 1.08286,3.1179 2.59513,7.1133 h 1.15754 l 2.59513,-7.1133 1.08286,-3.1179 h 0.0747 c -0.0933,1.1949 -0.22404,2.8565 -0.22404,4.0328 v 7.58 h 1.62429 v -13.6851 h -2.09104 l -2.6138,7.3186 c -0.31739,0.9522 -0.61611,1.9043 -0.9335,2.8565 h -0.0933 c -0.33606,-0.9522 -0.65345,-1.9043 -0.97084,-2.8565 l -2.63247,-7.3186 h -2.09104 z"
         id="path31915" />
      <path
         d="m 797.85706,1353.85 h 1.73631 v -5.433 h 2.25907 c 2.9872,0 5.0409,-1.3442 5.0409,-4.2381 0,-2.9872 -2.0537,-4.014 -5.13425,-4.014 h -3.90203 z m 1.73631,-6.8332 v -5.4517 h 1.96035 c 2.40843,0 3.62198,0.6348 3.62198,2.6138 0,1.9604 -1.13887,2.8379 -3.5473,2.8379 z"
         id="path31917" />
    </g>
    <g
       aria-label="MP"
       id="text1114-25"
       style="font-size:18.67px;line-height:1.25;font-family:'Noto Sans CJK JP';-inkscape-font-specification:'Noto Sans CJK JP, Normal';letter-spacing:0;fill:#ffffff">
      <path
         d="m 657.69702,1353.85 h 1.56828 v -7.58 c 0,-1.1763 -0.13069,-2.8379 -0.20537,-4.0328 h 0.0747 l 1.08286,3.1179 2.59513,7.1133 h 1.15754 l 2.59513,-7.1133 1.08286,-3.1179 h 0.0747 c -0.0933,1.1949 -0.22404,2.8565 -0.22404,4.0328 v 7.58 h 1.62429 v -13.6851 h -2.09104 l -2.6138,7.3186 c -0.31739,0.9522 -0.61611,1.9043 -0.9335,2.8565 h -0.0933 c -0.33606,-0.9522 -0.65345,-1.9043 -0.97084,-2.8565 l -2.63247,-7.3186 h -2.09104 z"
         id="path31910" />
      <path
         d="m 672.85706,1353.85 h 1.73631 v -5.433 h 2.25907 c 2.9872,0 5.0409,-1.3442 5.0409,-4.2381 0,-2.9872 -2.0537,-4.014 -5.13425,-4.014 h -3.90203 z m 1.73631,-6.8332 v -5.4517 h 1.96035 c 2.40843,0 3.62198,0.6348 3.62198,2.6138 0,1.9604 -1.13887,2.8379 -3.5473,2.8379 z"
         id="path31912" />
    </g>
    <g
       aria-label="MP"
       id="text1114-4"
       style="font-size:18.67px;line-height:1.25;font-family:'Noto Sans CJK JP';-inkscape-font-specification:'Noto Sans CJK JP, Normal';letter-spacing:0;fill:#ffffff">
      <path
         d="m 507.69699,1353.85 h 1.56828 v -7.58 c 0,-1.1763 -0.13069,-2.8379 -0.20537,-4.0328 h 0.0747 l 1.08286,3.1179 2.59513,7.1133 h 1.15754 l 2.59513,-7.1133 1.08286,-3.1179 h 0.0747 c -0.0933,1.1949 -0.22404,2.8565 -0.22404,4.0328 v 7.58 h 1.62429 v -13.6851 h -2.09104 l -2.6138,7.3186 c -0.31739,0.9522 -0.61611,1.9043 -0.9335,2.8565 h -0.0933 c -0.33606,-0.9522 -0.65345,-1.9043 -0.97084,-2.8565 l -2.63247,-7.3186 h -2.09104 z"
         id="path31905" />
      <path
         d="m 522.85703,1353.85 h 1.73631 v -5.433 h 2.25907 c 2.9872,0 5.0409,-1.3442 5.0409,-4.2381 0,-2.9872 -2.0537,-4.014 -5.13425,-4.014 h -3.90203 z m 1.73631,-6.8332 v -5.4517 h 1.96035 c 2.40843,0 3.62198,0.6348 3.62198,2.6138 0,1.9604 -1.13887,2.8379 -3.5473,2.8379 z"
         id="path31907" />
    </g>
    <g
       aria-label="MP"
       id="text1114-78"
       style="font-size:18.67px;line-height:1.25;font-family:'Noto Sans CJK JP';-inkscape-font-specification:'Noto Sans CJK JP, Normal';letter-spacing:0">
      <path
         d="m 279.69699,1353.85 h 1.56828 v -7.58 c 0,-1.1763 -0.13069,-2.8379 -0.20537,-4.0328 h 0.0747 l 1.08286,3.1179 2.59513,7.1133 h 1.15754 l 2.59513,-7.1133 1.08286,-3.1179 h 0.0747 c -0.0933,1.1949 -0.22404,2.8565 -0.22404,4.0328 v 7.58 h 1.62429 v -13.6851 h -2.09104 l -2.6138,7.3186 c -0.31739,0.9522 -0.61611,1.9043 -0.9335,2.8565 h -0.0933 c -0.33606,-0.9522 -0.65345,-1.9043 -0.97084,-2.8565 l -2.63247,-7.3186 h -2.09104 z"
         id="path31900" />
      <path
         d="m 294.85703,1353.85 h 1.73631 v -5.433 h 2.25907 c 2.9872,0 5.0409,-1.3442 5.0409,-4.2381 0,-2.9872 -2.0537,-4.014 -5.13425,-4.014 h -3.90203 z m 1.73631,-6.8332 v -5.4517 h 1.96035 c 2.40843,0 3.62198,0.6348 3.62198,2.6138 0,1.9604 -1.13887,2.8379 -3.5473,2.8379 z"
         id="path31902" />
    </g>
    <g
       aria-label="MP"
       id="text1114-84"
       style="font-size:18.67px;line-height:1.25;font-family:'Noto Sans CJK JP';-inkscape-font-specification:'Noto Sans CJK JP, Normal';letter-spacing:0">
      <path
         d="m 169.697,1353.85 h 1.56828 v -7.58 c 0,-1.1763 -0.13069,-2.8379 -0.20537,-4.0328 h 0.0747 l 1.08286,3.1179 2.59513,7.1133 h 1.15754 l 2.59513,-7.1133 1.08286,-3.1179 h 0.0747 c -0.0934,1.1949 -0.22404,2.8565 -0.22404,4.0328 v 7.58 h 1.62429 v -13.6851 H 179.032 l -2.6138,7.3186 c -0.31739,0.9522 -0.61611,1.9043 -0.9335,2.8565 h -0.0934 c -0.33606,-0.9522 -0.65345,-1.9043 -0.97084,-2.8565 l -2.63247,-7.3186 H 169.697 Z"
         id="path31895" />
      <path
         d="m 184.85705,1353.85 h 1.73631 v -5.433 h 2.25907 c 2.9872,0 5.0409,-1.3442 5.0409,-4.2381 0,-2.9872 -2.0537,-4.014 -5.13425,-4.014 h -3.90203 z m 1.73631,-6.8332 v -5.4517 h 1.96035 c 2.40843,0 3.62198,0.6348 3.62198,2.6138 0,1.9604 -1.13887,2.8379 -3.5473,2.8379 z"
         id="path31897" />
    </g>
    <g
       aria-label="MP"
       id="text1114-92"
       style="font-size:18.67px;line-height:1.25;font-family:'Noto Sans CJK JP';-inkscape-font-specification:'Noto Sans CJK JP, Normal';letter-spacing:0">
      <path
         d="m 59.697002,1353.85 h 1.56828 v -7.58 c 0,-1.1763 -0.13069,-2.8379 -0.20537,-4.0328 h 0.07468 l 1.08286,3.1179 2.59513,7.1133 h 1.15754 l 2.59513,-7.1133 1.08286,-3.1179 h 0.07468 c -0.09335,1.1949 -0.22404,2.8565 -0.22404,4.0328 v 7.58 h 1.62429 v -13.6851 h -2.09104 l -2.6138,7.3186 c -0.31739,0.9522 -0.61611,1.9043 -0.9335,2.8565 h -0.09335 c -0.33606,-0.9522 -0.65345,-1.9043 -0.97084,-2.8565 l -2.63247,-7.3186 h -2.09104 z"
         id="path31890" />
      <path
         d="m 74.857047,1353.85 h 1.73631 v -5.433 h 2.25907 c 2.9872,0 5.0409,-1.3442 5.0409,-4.2381 0,-2.9872 -2.0537,-4.014 -5.13425,-4.014 h -3.90203 z m 1.73631,-6.8332 v -5.4517 h 1.96035 c 2.40843,0 3.62198,0.6348 3.62198,2.6138 0,1.9604 -1.13887,2.8379 -3.5473,2.8379 z"
         id="path31892" />
    </g>
    <g
       aria-label="パート"
       id="text1114-926"
       style="font-size:18.67px;line-height:1.25;font-family:'Noto Sans CJK JP';-inkscape-font-specification:'Noto Sans CJK JP, Normal';letter-spacing:0">
      <path
         d="m 59.068611,1170.847 c 0,-0.6721 0.54143,-1.2509 1.21355,-1.2509 0.69079,0 1.25089,0.5788 1.25089,1.2509 0,0.6721 -0.5601,1.2322 -1.25089,1.2322 -0.67212,0 -1.21355,-0.5601 -1.21355,-1.2322 z m -0.85882,0 c 0,1.1575 0.9335,2.091 2.07237,2.091 1.15754,0 2.10971,-0.9335 2.10971,-2.091 0,-1.1575 -0.95217,-2.1097 -2.10971,-2.1097 -1.13887,0 -2.07237,0.9522 -2.07237,2.1097 z m -9.68973,7.3933 c -0.65345,1.5683 -1.69897,3.5286 -2.87518,5.0783 l 1.58695,0.6721 c 1.04552,-1.4936 2.0537,-3.4166 2.74449,-5.1343 0.78414,-1.9043 1.43759,-4.6675 1.69897,-5.825 0.07468,-0.4108 0.22404,-0.9522 0.33606,-1.3629 l -1.66163,-0.3361 c -0.24271,2.1471 -1.02685,4.9849 -1.82966,6.9079 z m 9.18564,-0.7094 c 0.78414,1.9976 1.64296,4.5181 2.10971,6.4224 l 1.66163,-0.5414 c -0.48542,-1.6803 -1.47493,-4.5368 -2.2404,-6.3851 -0.78414,-1.9791 -1.97902,-4.5555 -2.72582,-5.8998 l -1.51227,0.5041 c 0.82148,1.3816 1.96035,3.9767 2.70715,5.8998 z"
         id="path31883" />
      <path
         d="m 65.024341,1177.6055 c 0.57877,-0.056 1.56828,-0.093 2.59513,-0.093 h 10.24983 c 0.84015,0 1.62429,0.075 1.99769,0.093 v -1.8296 c -0.41074,0.037 -1.08286,0.093 -2.01636,0.093 h -10.23116 c -1.04552,0 -2.03503,-0.056 -2.59513,-0.093 z"
         id="path31885" />
      <path
         d="m 97.603491,1177.4748 c -1.97902,-0.9895 -5.50765,-2.3337 -7.97209,-3.0805 v -3.0432 c 0,-0.5601 0.07468,-1.3629 0.13069,-1.9417 h -1.82966 c 0.11202,0.5788 0.14936,1.4189 0.14936,1.9417 v 10.8659 c 0,0.6908 -0.03734,1.6056 -0.11202,2.2031 h 1.79232 c -0.07468,-0.6161 -0.11202,-1.6056 -0.11202,-2.2031 l -0.01867,-6.1611 c 2.07237,0.6535 5.30228,1.9044 7.33731,3.0059 z"
         id="path31887" />
    </g>
    <g
       aria-label="パート"
       id="text1114-95"
       style="font-size:18.67px;line-height:1.25;font-family:'Noto Sans CJK JP';-inkscape-font-specification:'Noto Sans CJK JP, Normal';letter-spacing:0">
      <path
         d="m 169.06861,1170.847 c 0,-0.6721 0.54143,-1.2509 1.21355,-1.2509 0.69079,0 1.25089,0.5788 1.25089,1.2509 0,0.6721 -0.5601,1.2322 -1.25089,1.2322 -0.67212,0 -1.21355,-0.5601 -1.21355,-1.2322 z m -0.85882,0 c 0,1.1575 0.9335,2.091 2.07237,2.091 1.15754,0 2.10971,-0.9335 2.10971,-2.091 0,-1.1575 -0.95217,-2.1097 -2.10971,-2.1097 -1.13887,0 -2.07237,0.9522 -2.07237,2.1097 z m -9.68973,7.3933 c -0.65345,1.5683 -1.69897,3.5286 -2.87518,5.0783 l 1.58695,0.6721 c 1.04552,-1.4936 2.0537,-3.4166 2.74449,-5.1343 0.78414,-1.9043 1.43759,-4.6675 1.69897,-5.825 0.0747,-0.4108 0.22404,-0.9522 0.33606,-1.3629 l -1.66163,-0.3361 c -0.24271,2.1471 -1.02685,4.9849 -1.82966,6.9079 z m 9.18564,-0.7094 c 0.78414,1.9976 1.64296,4.5181 2.10971,6.4224 l 1.66163,-0.5414 c -0.48542,-1.6803 -1.47493,-4.5368 -2.2404,-6.3851 -0.78414,-1.9791 -1.97902,-4.5555 -2.72582,-5.8998 l -1.51227,0.5041 c 0.82148,1.3816 1.96035,3.9767 2.70715,5.8998 z"
         id="path31876" />
      <path
         d="m 175.02434,1177.6055 c 0.57877,-0.056 1.56828,-0.093 2.59513,-0.093 h 10.24983 c 0.84015,0 1.62429,0.075 1.99769,0.093 v -1.8296 c -0.41074,0.037 -1.08286,0.093 -2.01636,0.093 h -10.23116 c -1.04552,0 -2.03503,-0.056 -2.59513,-0.093 z"
         id="path31878" />
      <path
         d="m 207.60349,1177.4748 c -1.97902,-0.9895 -5.50765,-2.3337 -7.97209,-3.0805 v -3.0432 c 0,-0.5601 0.0747,-1.3629 0.13069,-1.9417 h -1.82966 c 0.11202,0.5788 0.14936,1.4189 0.14936,1.9417 v 10.8659 c 0,0.6908 -0.0373,1.6056 -0.11202,2.2031 h 1.79232 c -0.0747,-0.6161 -0.11202,-1.6056 -0.11202,-2.2031 l -0.0187,-6.1611 c 2.07237,0.6535 5.30228,1.9044 7.33731,3.0059 z"
         id="path31880" />
    </g>
    <g
       aria-label="パート"
       id="text1114-87"
       style="font-size:18.67px;line-height:1.25;font-family:'Noto Sans CJK JP';-inkscape-font-specification:'Noto Sans CJK JP, Normal';letter-spacing:0">
      <path
         d="m 279.06862,1170.847 c 0,-0.6721 0.54143,-1.2509 1.21355,-1.2509 0.69079,0 1.25089,0.5788 1.25089,1.2509 0,0.6721 -0.5601,1.2322 -1.25089,1.2322 -0.67212,0 -1.21355,-0.5601 -1.21355,-1.2322 z m -0.85882,0 c 0,1.1575 0.9335,2.091 2.07237,2.091 1.15754,0 2.10971,-0.9335 2.10971,-2.091 0,-1.1575 -0.95217,-2.1097 -2.10971,-2.1097 -1.13887,0 -2.07237,0.9522 -2.07237,2.1097 z m -9.68973,7.3933 c -0.65345,1.5683 -1.69897,3.5286 -2.87518,5.0783 l 1.58695,0.6721 c 1.04552,-1.4936 2.0537,-3.4166 2.74449,-5.1343 0.78414,-1.9043 1.43759,-4.6675 1.69897,-5.825 0.0747,-0.4108 0.22404,-0.9522 0.33606,-1.3629 l -1.66163,-0.3361 c -0.24271,2.1471 -1.02685,4.9849 -1.82966,6.9079 z m 9.18564,-0.7094 c 0.78414,1.9976 1.64296,4.5181 2.10971,6.4224 l 1.66163,-0.5414 c -0.48542,-1.6803 -1.47493,-4.5368 -2.2404,-6.3851 -0.78414,-1.9791 -1.97902,-4.5555 -2.72582,-5.8998 l -1.51227,0.5041 c 0.82148,1.3816 1.96035,3.9767 2.70715,5.8998 z"
         id="path31869" />
      <path
         d="m 285.02435,1177.6055 c 0.57877,-0.056 1.56828,-0.093 2.59513,-0.093 h 10.24983 c 0.84015,0 1.62429,0.075 1.99769,0.093 v -1.8296 c -0.41074,0.037 -1.08286,0.093 -2.01636,0.093 h -10.23116 c -1.04552,0 -2.03503,-0.056 -2.59513,-0.093 z"
         id="path31871" />
      <path
         d="m 317.6035,1177.4748 c -1.97902,-0.9895 -5.50765,-2.3337 -7.97209,-3.0805 v -3.0432 c 0,-0.5601 0.0747,-1.3629 0.13069,-1.9417 h -1.82966 c 0.11202,0.5788 0.14936,1.4189 0.14936,1.9417 v 10.8659 c 0,0.6908 -0.0373,1.6056 -0.11202,2.2031 h 1.79232 c -0.0747,-0.6161 -0.11202,-1.6056 -0.11202,-2.2031 l -0.0187,-6.1611 c 2.07237,0.6535 5.30228,1.9044 7.33731,3.0059 z"
         id="path31873" />
    </g>
  </g>
</svg>
