<?xml version="1.0" encoding="UTF-8" standalone="no"?>
<svg
   xmlns:dc="http://purl.org/dc/elements/1.1/"
   xmlns:cc="http://creativecommons.org/ns#"
   xmlns:rdf="http://www.w3.org/1999/02/22-rdf-syntax-ns#"
   xmlns:svg="http://www.w3.org/2000/svg"
   xmlns="http://www.w3.org/2000/svg"
   xmlns:sodipodi="http://sodipodi.sourceforge.net/DTD/sodipodi-0.dtd"
   xmlns:inkscape="http://www.inkscape.org/namespaces/inkscape"
   id="svg2"
   height="200"
   width="900"
   version="1.2"
   sodipodi:docname="net_basic_tcppacket.svg"
   inkscape:version="0.92.4 (5da689c313, 2019-01-14)">
  <sodipodi:namedview
     pagecolor="#ffffff"
     bordercolor="#666666"
     borderopacity="1"
     objecttolerance="10"
     gridtolerance="10"
     guidetolerance="10"
     inkscape:pageopacity="0"
     inkscape:pageshadow="2"
     inkscape:window-width="1920"
     inkscape:window-height="1027"
     id="namedview116"
     showgrid="false"
     inkscape:zoom="1.2755556"
     inkscape:cx="517.23449"
     inkscape:cy="135.52038"
     inkscape:window-x="-8"
     inkscape:window-y="-8"
     inkscape:window-maximized="1"
     inkscape:current-layer="svg2" />
  <defs
     id="defs4" />
  <metadata
     id="metadata7">
    <rdf:RDF>
      <cc:Work
         rdf:about="">
        <dc:format>image/svg+xml</dc:format>
        <dc:type
           rdf:resource="http://purl.org/dc/dcmitype/StillImage" />
        <dc:title />
      </cc:Work>
    </rdf:RDF>
  </metadata>
  <rect
     style="fill:#30ba78;fill-opacity:1;fill-rule:nonzero;stroke:none"
     id="rect4438"
     y="20"
     x="20"
     ry="10"
     rx="10"
     height="160"
     width="860" />
  <rect
     style="color:#000000;display:inline;overflow:visible;visibility:visible;fill:#fe7c3f;fill-opacity:1;fill-rule:nonzero;stroke:#ffffff;stroke-width:0;stroke-miterlimit:4;stroke-dasharray:none;stroke-opacity:1;marker:none;enable-background:accumulate"
     id="rect6978-9-64-0-1-5-7"
     y="20"
     x="122.21741"
     height="160"
     width="127.78259" />
  <rect
     style="color:#000000;display:inline;overflow:visible;visibility:visible;fill:#90ebcd;fill-opacity:1;fill-rule:nonzero;stroke:#ffffff;stroke-width:0;stroke-miterlimit:4;stroke-dasharray:none;stroke-opacity:1;marker:none;enable-background:accumulate"
     id="rect6978-9-64-0-1-5-7-5"
     y="20"
     x="250"
     ry="0"
     height="160"
     width="130.00003" />
  <rect
     style="color:#000000;display:inline;overflow:visible;visibility:visible;fill:#dedfe0;fill-opacity:1;fill-rule:nonzero;stroke:#ffffff;stroke-width:0;stroke-miterlimit:4;stroke-dasharray:none;stroke-opacity:1;marker:none;enable-background:accumulate"
     id="rect6978-9-64-0-1-5-7-5-2"
     y="20"
     x="380"
     height="160"
     width="375.05399" />
  <g
     aria-label="Ethernet"
     style="font-style:normal;font-weight:normal;font-size:40px;line-height:0;font-family:sans-serif;text-align:center;letter-spacing:0px;word-spacing:0px;writing-mode:lr-tb;text-anchor:middle;fill:#000000;fill-opacity:1;stroke:none"
     id="text925">
    <path
       d="M 40.726944,80.519928 H 32.76796 V 66.242584 h 7.958984 v 1.47461 h -6.298828 v 4.599609 h 5.917969 v 1.464844 h -5.917969 v 5.253906 h 6.298828 z"
       style="font-style:normal;font-variant:normal;font-weight:normal;font-stretch:normal;font-size:20px;font-family:'Open Sans';-inkscape-font-specification:'Open Sans'"
       id="path959" />
    <path
       d="m 47.113663,79.37735 q 0.429687,0 0.830078,-0.05859 0.40039,-0.06836 0.634765,-0.136719 v 1.240235 q -0.263671,0.126953 -0.78125,0.205078 -0.507812,0.08789 -0.917968,0.08789 -3.105469,0 -3.105469,-3.271484 v -6.367187 h -1.533203 v -0.78125 l 1.533203,-0.673829 0.683594,-2.285156 h 0.9375 v 2.480469 h 3.105468 v 1.259766 h -3.105468 v 6.298828 q 0,0.966797 0.458984,1.484375 0.458984,0.517578 1.259766,0.517578 z"
       style="font-style:normal;font-variant:normal;font-weight:normal;font-stretch:normal;font-size:20px;font-family:'Open Sans';-inkscape-font-specification:'Open Sans'"
       id="path961" />
    <path
       d="M 58.051163,80.519928 V 73.5961 q 0,-1.308594 -0.595703,-1.953125 -0.595704,-0.644531 -1.865235,-0.644531 -1.689453,0 -2.470703,0.917968 -0.771484,0.917969 -0.771484,3.007813 v 5.595703 H 50.726944 V 65.324615 h 1.621094 v 4.59961 q 0,0.830078 -0.07813,1.376953 h 0.09766 q 0.478516,-0.771484 1.357422,-1.210938 0.888672,-0.449218 2.021484,-0.449218 1.962891,0 2.939453,0.9375 0.986328,0.927734 0.986328,2.958984 v 6.982422 z"
       style="font-style:normal;font-variant:normal;font-weight:normal;font-stretch:normal;font-size:20px;font-family:'Open Sans';-inkscape-font-specification:'Open Sans'"
       id="path963" />
    <path
       d="m 67.514053,80.71524 q -2.373047,0 -3.75,-1.445312 -1.367187,-1.445313 -1.367187,-4.013672 0,-2.587891 1.269531,-4.111328 1.279297,-1.523438 3.427734,-1.523438 2.011719,0 3.183594,1.328125 1.171875,1.31836 1.171875,3.486329 v 1.02539 h -7.373047 q 0.04883,1.884766 0.947266,2.861328 0.908203,0.976563 2.548828,0.976563 1.728516,0 3.417969,-0.722656 v 1.445312 q -0.859375,0.371094 -1.63086,0.527344 -0.761718,0.166015 -1.845703,0.166015 z M 67.0746,70.978912 q -1.289062,0 -2.060547,0.839844 -0.761718,0.839844 -0.898437,2.324219 h 5.595703 q 0,-1.533203 -0.683594,-2.34375 -0.683594,-0.820313 -1.953125,-0.820313 z"
       style="font-style:normal;font-variant:normal;font-weight:normal;font-stretch:normal;font-size:20px;font-family:'Open Sans';-inkscape-font-specification:'Open Sans'"
       id="path965" />
    <path
       d="m 79.086319,69.62149 q 0.712891,0 1.279297,0.117188 l -0.22461,1.503906 Q 79.476944,71.0961 78.969131,71.0961 q -1.298828,0 -2.226562,1.054687 Q 75.8246,73.205475 75.8246,74.77774 v 5.742188 H 74.203506 V 69.816803 h 1.337891 l 0.185547,1.982422 h 0.07813 q 0.595703,-1.044922 1.435547,-1.611328 0.839844,-0.566407 1.845703,-0.566407 z"
       style="font-style:normal;font-variant:normal;font-weight:normal;font-stretch:normal;font-size:20px;font-family:'Open Sans';-inkscape-font-specification:'Open Sans'"
       id="path967" />
    <path
       d="M 89.691788,80.519928 V 73.5961 q 0,-1.308594 -0.595703,-1.953125 -0.595704,-0.644531 -1.865235,-0.644531 -1.679687,0 -2.460937,0.908203 -0.78125,0.908203 -0.78125,2.998047 v 5.615234 H 82.367569 V 69.816803 h 1.318359 l 0.263672,1.464844 h 0.07813 q 0.498047,-0.791016 1.396485,-1.220703 0.898437,-0.439454 2.001953,-0.439454 1.933593,0 2.910156,0.9375 0.976562,0.927735 0.976562,2.978516 v 6.982422 z"
       style="font-style:normal;font-variant:normal;font-weight:normal;font-stretch:normal;font-size:20px;font-family:'Open Sans';-inkscape-font-specification:'Open Sans'"
       id="path969" />
    <path
       d="m 99.154678,80.71524 q -2.373047,0 -3.75,-1.445312 -1.367187,-1.445313 -1.367187,-4.013672 0,-2.587891 1.269531,-4.111328 1.279297,-1.523438 3.427734,-1.523438 2.011724,0 3.183594,1.328125 1.17188,1.31836 1.17188,3.486329 v 1.02539 h -7.373052 q 0.04883,1.884766 0.947266,2.861328 0.908203,0.976563 2.548828,0.976563 1.728518,0 3.417968,-0.722656 v 1.445312 q -0.85937,0.371094 -1.63086,0.527344 -0.76172,0.166015 -1.845702,0.166015 z m -0.439453,-9.736328 q -1.289062,0 -2.060547,0.839844 -0.761718,0.839844 -0.898437,2.324219 h 5.595699 q 0,-1.533203 -0.68359,-2.34375 -0.683594,-0.820313 -1.953125,-0.820313 z"
       style="font-style:normal;font-variant:normal;font-weight:normal;font-stretch:normal;font-size:20px;font-family:'Open Sans';-inkscape-font-specification:'Open Sans'"
       id="path971" />
    <path
       d="m 109.30116,79.37735 q 0.42969,0 0.83008,-0.05859 0.40039,-0.06836 0.63477,-0.136719 v 1.240235 q -0.26368,0.126953 -0.78125,0.205078 -0.50782,0.08789 -0.91797,0.08789 -3.10547,0 -3.10547,-3.271484 v -6.367187 h -1.5332 v -0.78125 l 1.5332,-0.673829 0.68359,-2.285156 h 0.9375 v 2.480469 h 3.10547 v 1.259766 h -3.10547 v 6.298828 q 0,0.966797 0.45899,1.484375 0.45898,0.517578 1.25976,0.517578 z"
       style="font-style:normal;font-variant:normal;font-weight:normal;font-stretch:normal;font-size:20px;font-family:'Open Sans';-inkscape-font-specification:'Open Sans'"
       id="path973" />
  </g>
  <g
     aria-label="ヘッダ"
     style="font-style:normal;font-weight:normal;font-size:40px;line-height:0;font-family:sans-serif;text-align:center;letter-spacing:0px;word-spacing:0px;writing-mode:lr-tb;text-anchor:middle;fill:#000000;fill-opacity:1;stroke:none"
     id="text925-5">
    <path
       d="m 41.900393,100.601 1.5,1.52 c 0.3,-0.4 0.74,-1.02 1.14,-1.54 0.9,-1.100003 2.58,-3.300003 3.54,-4.460003 0.68,-0.84 0.96,-0.84 1.78,-0.16 0.88,0.72 2.54,2.52 3.9,4.080003 1.3,1.46 3.12,3.46 4.5,5.26 l 1.3,-1.42 c -1.44,-1.72 -3.48,-3.900003 -4.82,-5.340003 -1.28,-1.38 -2.92,-3.14 -4.14,-4.14 -1.44,-1.2 -2.28,-1.06 -3.34,0.2 -1.26,1.5 -3,3.72 -3.94,4.68 -0.54,0.52 -0.9,0.880003 -1.42,1.320003 z"
       style="font-style:normal;font-variant:normal;font-weight:normal;font-stretch:normal;font-size:20px;font-family:'Noto Sans CJK JP';-inkscape-font-specification:'Noto Sans CJK JP'"
       id="path976" />
    <path
       d="m 70.320393,94.720997 -1.46,0.5 c 0.42,0.9 1.34,3.44 1.56,4.34 l 1.48,-0.52 c -0.26,-0.88 -1.24,-3.52 -1.58,-4.32 z m 5.52,0.58 c -0.3,2.56 -1.34,5.100003 -2.76,6.840003 -1.64,2.06 -4.18,3.58 -6.5,4.24 l 1.32,1.36 c 2.24,-0.86 4.68,-2.42 6.52,-4.76 1.44,-1.8 2.3,-3.940003 2.84,-6.140003 0.08,-0.26 0.16,-0.58 0.3,-1 z m -10.16,0.42 -1.48,0.58 c 0.4,0.7 1.48,3.46 1.78,4.500003 l 1.52,-0.56 c -0.38,-1.040003 -1.42,-3.660003 -1.82,-4.520003 z"
       style="font-style:normal;font-variant:normal;font-weight:normal;font-stretch:normal;font-size:20px;font-family:'Noto Sans CJK JP';-inkscape-font-specification:'Noto Sans CJK JP'"
       id="path978" />
    <path
       d="m 94.900393,90.580997 c 0.54,0.74 1.2,1.92 1.6,2.72 l -0.34,-0.2 c -0.32,0.12 -0.78,0.18 -1.32,0.18 h -5.46 c 0.16,-0.26 0.3,-0.5 0.42,-0.74 0.2,-0.38 0.56,-1.04 0.88,-1.56 l -1.8,-0.58 c -0.12,0.5 -0.44,1.22 -0.64,1.58 -0.9,1.82 -2.96,4.82 -6.42,6.94 l 1.34,1.04 c 2.24,-1.52 4.02,-3.46 5.28,-5.24 h 6.82 c -0.38,1.58 -1.34,3.62 -2.56,5.340003 -1.56,-0.960003 -3.24,-1.920003 -4.4,-2.520003 l -1.04,1.18 c 1.12,0.62 2.82,1.620003 4.4,2.640003 -1.8,2 -4.44,3.92 -7.92,4.98 l 1.44,1.26 c 3.52,-1.32 6.04,-3.26 7.84,-5.34 0.76,0.52 1.42,1 1.9,1.38 l 1.1,-1.42 c -0.5,-0.36 -1.18,-0.82 -1.94,-1.3 1.4,-1.960003 2.42,-4.200003 2.94,-5.960003 0.1,-0.32 0.3,-0.78 0.46,-1.06 l -0.94,-0.56 1.06,-0.48 c -0.42,-0.82 -1.14,-2.02 -1.64,-2.74 z m 2.2,-0.8 c 0.56,0.74 1.22,1.86 1.66,2.74 l 1.06,-0.48 c -0.36,-0.74 -1.14,-1.98 -1.66,-2.72 z"
       style="font-style:normal;font-variant:normal;font-weight:normal;font-stretch:normal;font-size:20px;font-family:'Noto Sans CJK JP';-inkscape-font-specification:'Noto Sans CJK JP'"
       id="path980" />
  </g>
  <g
     aria-label="(14バイト)"
     style="font-style:normal;font-weight:normal;font-size:40px;line-height:0;font-family:sans-serif;text-align:center;letter-spacing:0px;word-spacing:0px;writing-mode:lr-tb;text-anchor:middle;fill:#000000;fill-opacity:1;stroke:none"
     id="text925-5-0">
    <path
       d="m 25.142395,125.40427 q 0,-2.58789 0.751953,-4.84375 0.761719,-2.25586 2.1875,-3.95508 h 1.582031 q -1.40625,1.88476 -2.11914,4.14062 -0.703125,2.25586 -0.703125,4.63868 0,2.34375 0.722656,4.58007 0.722656,2.23633 2.080078,4.08203 h -1.5625 q -1.435547,-1.66015 -2.1875,-3.87695 -0.751953,-2.2168 -0.751953,-4.76562 z"
       style="font-style:normal;font-variant:normal;font-weight:normal;font-stretch:normal;font-size:20px;font-family:'Open Sans';-inkscape-font-specification:'Open Sans'"
       id="path983" />
    <path
       d="M 37.261536,130.88278 H 35.679504 V 120.707 q 0,-1.26953 0.07813,-2.40234 -0.205078,0.20508 -0.458984,0.42968 -0.253906,0.22461 -2.324219,1.9043 l -0.859375,-1.11328 3.779297,-2.91992 h 1.367188 z"
       style="font-style:normal;font-variant:normal;font-weight:normal;font-stretch:normal;font-size:20px;font-family:'Open Sans';-inkscape-font-specification:'Open Sans'"
       id="path985" />
    <path
       d="m 52.759583,127.60153 h -2.119141 v 3.28125 h -1.552734 v -3.28125 h -6.94336 v -1.41601 l 6.777344,-9.65821 h 1.71875 v 9.59961 h 2.119141 z m -3.671875,-1.47461 v -4.74609 q 0,-1.39649 0.09766,-3.1543 h -0.07813 q -0.46875,0.9375 -0.878906,1.55274 l -4.462891,6.34765 z"
       style="font-style:normal;font-variant:normal;font-weight:normal;font-stretch:normal;font-size:20px;font-family:'Open Sans';-inkscape-font-specification:'Open Sans'"
       id="path987" />
    <path
       d="m 68.469739,115.30278 -1.06,0.44 c 0.54,0.76 1.22,1.96 1.62,2.78 l 1.08,-0.48 c -0.4,-0.82 -1.14,-2.04 -1.64,-2.74 z m 2.2,-0.8 -1.06,0.44 c 0.58,0.76 1.22,1.88 1.66,2.76 l 1.08,-0.48 c -0.38,-0.74 -1.14,-2 -1.68,-2.72 z m -13.14,10.36 c -0.7,1.68 -1.82,3.78 -3.08,5.44 l 1.7,0.72 c 1.12,-1.6 2.2,-3.66 2.94,-5.5 0.84,-2.04 1.54,-5 1.82,-6.24 0.08,-0.44 0.24,-1.02 0.36,-1.46 l -1.78,-0.36 c -0.26,2.3 -1.1,5.34 -1.96,7.4 z m 9.84,-0.76 c 0.84,2.14 1.76,4.84 2.26,6.88 l 1.78,-0.58 c -0.52,-1.8 -1.58,-4.86 -2.4,-6.84 -0.84,-2.12 -2.12,-4.88 -2.92,-6.32 l -1.62,0.54 c 0.88,1.48 2.1,4.26 2.9,6.32 z"
       style="font-style:normal;font-variant:normal;font-weight:normal;font-stretch:normal;font-family:'Noto Sans CJK JP';-inkscape-font-specification:'Noto Sans CJK JP'"
       id="path989" />
    <path
       d="m 89.069739,115.26278 c -1.12,1.42 -3.22,3.16 -5.26,4.42 -2.2,1.38 -5.6,2.9 -8.94,3.68 l 0.92,1.56 c 2.62,-0.78 5.38,-1.94 7.52,-3.12 v 7.56 c 0,0.76 -0.06,1.76 -0.12,2.14 h 1.96 c -0.08,-0.4 -0.12,-1.38 -0.12,-2.14 v -8.56 c 2.06,-1.3 3.98,-2.94 5.36,-4.34 z"
       style="font-style:normal;font-variant:normal;font-weight:normal;font-stretch:normal;font-family:'Noto Sans CJK JP';-inkscape-font-specification:'Noto Sans CJK JP'"
       id="path991" />
    <path
       d="m 110.10974,124.04278 c -2.12,-1.06 -5.9,-2.5 -8.54,-3.3 v -3.26 c 0,-0.6 0.08,-1.46 0.14,-2.08 h -1.960001 c 0.12,0.62 0.16,1.52 0.16,2.08 v 11.64 c 0,0.74 -0.04,1.72 -0.12,2.36 h 1.920001 c -0.08,-0.66 -0.12,-1.72 -0.12,-2.36 l -0.02,-6.6 c 2.22,0.7 5.68,2.04 7.86,3.22 z"
       style="font-style:normal;font-variant:normal;font-weight:normal;font-stretch:normal;font-family:'Noto Sans CJK JP';-inkscape-font-specification:'Noto Sans CJK JP'"
       id="path993" />
    <path
       d="m 118.28693,125.40427 q 0,2.56836 -0.76172,4.78515 -0.75196,2.2168 -2.17774,3.85742 h -1.5625 q 1.35743,-1.83593 2.08008,-4.07226 0.72266,-2.24609 0.72266,-4.58984 0,-2.38282 -0.71289,-4.63868 -0.70313,-2.25586 -2.10938,-4.14062 h 1.58203 q 1.43555,1.70898 2.1875,3.97461 0.75196,2.25586 0.75196,4.82422 z"
       style="font-style:normal;font-variant:normal;font-weight:normal;font-stretch:normal;font-size:20px;font-family:'Open Sans';-inkscape-font-specification:'Open Sans'"
       id="path995" />
  </g>
  <g
     aria-label="IPヘッダ"
     style="font-style:normal;font-weight:normal;font-size:40px;line-height:0;font-family:sans-serif;text-align:center;letter-spacing:0px;word-spacing:0px;writing-mode:lr-tb;text-anchor:middle;fill:#000000;fill-opacity:1;stroke:none"
     id="text925-4">
    <path
       d="M 146.8206,92.846809 V 78.569466 h 1.66016 v 14.277343 z"
       style="font-style:normal;font-variant:normal;font-weight:normal;font-stretch:normal;font-size:20px;font-family:'Open Sans';-inkscape-font-specification:'Open Sans'"
       id="path933" />
    <path
       d="m 161.45927,82.729622 q 0,2.167969 -1.48437,3.339844 -1.47461,1.162109 -4.22852,1.162109 h -1.67968 v 5.615234 h -1.66016 V 78.569466 h 3.70117 q 5.35156,0 5.35156,4.160156 z m -7.39257,3.076172 h 1.49414 q 2.20703,0 3.19336,-0.712891 0.98632,-0.71289 0.98632,-2.285156 0,-1.416016 -0.92773,-2.109375 -0.92773,-0.693359 -2.89063,-0.693359 h -1.85546 z"
       style="font-style:normal;font-variant:normal;font-weight:normal;font-stretch:normal;font-size:20px;font-family:'Open Sans';-inkscape-font-specification:'Open Sans'"
       id="path935" />
    <path
       d="m 163.7149,87.206809 1.5,1.52 c 0.3,-0.4 0.74,-1.02 1.14,-1.54 0.9,-1.1 2.58,-3.3 3.54,-4.46 0.68,-0.84 0.96,-0.84 1.78,-0.16 0.88,0.72 2.54,2.52 3.9,4.08 1.3,1.46 3.12,3.46 4.5,5.26 l 1.3,-1.42 c -1.44,-1.72 -3.48,-3.9 -4.82,-5.34 -1.28,-1.38 -2.92,-3.14 -4.14,-4.14 -1.44,-1.2 -2.28,-1.06 -3.34,0.2 -1.26,1.5 -3,3.72 -3.94,4.68 -0.54,0.52 -0.9,0.88 -1.42,1.32 z"
       style="font-style:normal;font-variant:normal;font-weight:normal;font-stretch:normal;font-family:'Noto Sans CJK JP';-inkscape-font-specification:'Noto Sans CJK JP'"
       id="path937" />
    <path
       d="m 192.1349,81.326809 -1.46,0.5 c 0.42,0.9 1.34,3.44 1.56,4.34 l 1.48,-0.52 c -0.26,-0.88 -1.24,-3.52 -1.58,-4.32 z m 5.52,0.58 c -0.3,2.56 -1.34,5.1 -2.76,6.84 -1.64,2.06 -4.18,3.58 -6.5,4.24 l 1.32,1.36 c 2.24,-0.86 4.68,-2.42 6.52,-4.76 1.44,-1.8 2.3,-3.94 2.84,-6.14 0.08,-0.26 0.16,-0.58 0.3,-1 z m -10.16,0.42 -1.48,0.58 c 0.4,0.7 1.48,3.46 1.78,4.5 l 1.52,-0.56 c -0.38,-1.04 -1.42,-3.66 -1.82,-4.52 z"
       style="font-style:normal;font-variant:normal;font-weight:normal;font-stretch:normal;font-family:'Noto Sans CJK JP';-inkscape-font-specification:'Noto Sans CJK JP'"
       id="path939" />
    <path
       d="m 216.7149,77.186809 c 0.54,0.74 1.2,1.92 1.6,2.72 l -0.34,-0.2 c -0.32,0.12 -0.78,0.18 -1.32,0.18 h -5.46 c 0.16,-0.26 0.3,-0.5 0.42,-0.74 0.2,-0.38 0.56,-1.04 0.88,-1.56 l -1.8,-0.58 c -0.12,0.5 -0.44,1.22 -0.64,1.58 -0.9,1.82 -2.96,4.82 -6.42,6.94 l 1.34,1.04 c 2.24,-1.52 4.02,-3.46 5.28,-5.24 h 6.82 c -0.38,1.58 -1.34,3.62 -2.56,5.34 -1.56,-0.96 -3.24,-1.92 -4.4,-2.52 l -1.04,1.18 c 1.12,0.62 2.82,1.62 4.4,2.64 -1.8,2 -4.44,3.92 -7.92,4.98 l 1.44,1.26 c 3.52,-1.32 6.04,-3.26 7.84,-5.34 0.76,0.52 1.42,1 1.9,1.38 l 1.1,-1.42 c -0.5,-0.36 -1.18,-0.82 -1.94,-1.3 1.4,-1.96 2.42,-4.2 2.94,-5.96 0.1,-0.32 0.3,-0.78 0.46,-1.06 l -0.94,-0.56 1.06,-0.48 c -0.42,-0.82 -1.14,-2.02 -1.64,-2.74 z m 2.2,-0.8 c 0.56,0.74 1.22,1.86 1.66,2.74 l 1.06,-0.48 c -0.36,-0.74 -1.14,-1.98 -1.66,-2.72 z"
       style="font-style:normal;font-variant:normal;font-weight:normal;font-stretch:normal;font-family:'Noto Sans CJK JP';-inkscape-font-specification:'Noto Sans CJK JP'"
       id="path941" />
  </g>
  <g
     aria-label="(20バイト)"
     style="font-style:normal;font-weight:normal;font-size:40px;line-height:0;font-family:sans-serif;text-align:center;letter-spacing:0px;word-spacing:0px;writing-mode:lr-tb;text-anchor:middle;fill:#000000;fill-opacity:1;stroke:none"
     id="text925-4-3">
    <path
       d="m 139.7429,112.17313 q 0,-2.58789 0.75196,-4.84375 0.76172,-2.25586 2.1875,-3.95508 h 1.58203 q -1.40625,1.88476 -2.11914,4.14062 -0.70313,2.25586 -0.70313,4.63867 0,2.34375 0.72266,4.58008 0.72266,2.23633 2.08008,4.08203 h -1.5625 q -1.43555,-1.66015 -2.1875,-3.87695 -0.75196,-2.2168 -0.75196,-4.76562 z"
       style="font-style:normal;font-variant:normal;font-weight:normal;font-stretch:normal;font-size:20px;font-family:'Open Sans';-inkscape-font-specification:'Open Sans'"
       id="path944" />
    <path
       d="m 155.24095,117.65164 h -9.38476 v -1.39648 l 3.75976,-3.7793 q 1.71875,-1.73828 2.26563,-2.48047 0.54687,-0.74219 0.82031,-1.44531 0.27344,-0.70313 0.27344,-1.51367 0,-1.14258 -0.69336,-1.80664 -0.69336,-0.67383 -1.92383,-0.67383 -0.88867,0 -1.68945,0.29297 -0.79102,0.29297 -1.76758,1.06445 l -0.85938,-1.10352 q 1.97266,-1.64062 4.29688,-1.64062 2.01172,0 3.15429,1.03516 1.14258,1.02539 1.14258,2.76367 0,1.35742 -0.76172,2.68554 -0.76171,1.32813 -2.85156,3.35938 l -3.125,3.05664 v 0.0781 h 7.34375 z"
       style="font-style:normal;font-variant:normal;font-weight:normal;font-stretch:normal;font-size:20px;font-family:'Open Sans';-inkscape-font-specification:'Open Sans'"
       id="path946" />
    <path
       d="m 166.76439,110.49344 q 0,3.70117 -1.17188,5.52734 -1.16211,1.82617 -3.56445,1.82617 -2.30469,0 -3.50586,-1.86523 -1.20117,-1.875 -1.20117,-5.48828 0,-3.73047 1.16211,-5.53711 1.16211,-1.80664 3.54492,-1.80664 2.32422,0 3.52539,1.88476 1.21094,1.88477 1.21094,5.45899 z m -7.80274,0 q 0,3.11523 0.73243,4.54101 0.73242,1.41602 2.33398,1.41602 1.62109,0 2.34375,-1.43555 0.73242,-1.44531 0.73242,-4.52148 0,-3.07617 -0.73242,-4.50195 -0.72266,-1.43555 -2.34375,-1.43555 -1.60156,0 -2.33398,1.41601 -0.73243,1.40625 -0.73243,4.52149 z"
       style="font-style:normal;font-variant:normal;font-weight:normal;font-stretch:normal;font-size:20px;font-family:'Open Sans';-inkscape-font-specification:'Open Sans'"
       id="path948" />
    <path
       d="m 183.07025,102.07164 -1.06,0.44 c 0.54,0.76 1.22,1.96 1.62,2.78 l 1.08,-0.48 c -0.4,-0.82 -1.14,-2.04 -1.64,-2.74 z m 2.2,-0.8 -1.06,0.44 c 0.58,0.76 1.22,1.88 1.66,2.76 l 1.08,-0.48 c -0.38,-0.74 -1.14,-2 -1.68,-2.72 z m -13.14,10.36 c -0.7,1.68 -1.82,3.78 -3.08,5.44 l 1.7,0.72 c 1.12,-1.6 2.2,-3.66 2.94,-5.5 0.84,-2.04 1.54,-5 1.82,-6.24 0.08,-0.44 0.24,-1.02 0.36,-1.46 l -1.78,-0.36 c -0.26,2.3 -1.1,5.34 -1.96,7.4 z m 9.84,-0.76 c 0.84,2.14 1.76,4.84 2.26,6.88 l 1.78,-0.58 c -0.52,-1.8 -1.58,-4.86 -2.4,-6.84 -0.84,-2.12 -2.12,-4.88 -2.92,-6.32 l -1.62,0.54 c 0.88,1.48 2.1,4.26 2.9,6.32 z"
       style="font-style:normal;font-variant:normal;font-weight:normal;font-stretch:normal;font-family:'Noto Sans CJK JP';-inkscape-font-specification:'Noto Sans CJK JP'"
       id="path950" />
    <path
       d="m 203.67025,102.03164 c -1.12,1.42 -3.22,3.16 -5.26,4.42 -2.2,1.38 -5.6,2.9 -8.94,3.68 l 0.92,1.56 c 2.62,-0.78 5.38,-1.94 7.52,-3.12 v 7.56 c 0,0.76 -0.06,1.76 -0.12,2.14 h 1.96 c -0.08,-0.4 -0.12,-1.38 -0.12,-2.14 v -8.56 c 2.06,-1.3 3.98,-2.94 5.36,-4.34 z"
       style="font-style:normal;font-variant:normal;font-weight:normal;font-stretch:normal;font-family:'Noto Sans CJK JP';-inkscape-font-specification:'Noto Sans CJK JP'"
       id="path952" />
    <path
       d="m 224.71025,110.81164 c -2.12,-1.06 -5.9,-2.5 -8.54,-3.3 v -3.26 c 0,-0.6 0.08,-1.46 0.14,-2.08 h -1.96 c 0.12,0.62 0.16,1.52 0.16,2.08 v 11.64 c 0,0.74 -0.04,1.72 -0.12,2.36 h 1.92 c -0.08,-0.66 -0.12,-1.72 -0.12,-2.36 l -0.02,-6.6 c 2.22,0.7 5.68,2.04 7.86,3.22 z"
       style="font-style:normal;font-variant:normal;font-weight:normal;font-stretch:normal;font-family:'Noto Sans CJK JP';-inkscape-font-specification:'Noto Sans CJK JP'"
       id="path954" />
    <path
       d="m 232.88744,112.17313 q 0,2.56836 -0.76172,4.78515 -0.75196,2.2168 -2.17774,3.85742 h -1.5625 q 1.35742,-1.83593 2.08008,-4.07226 0.72266,-2.2461 0.72266,-4.58985 0,-2.38281 -0.71289,-4.63867 -0.70313,-2.25586 -2.10938,-4.14062 h 1.58203 q 1.43555,1.70898 2.1875,3.97461 0.75196,2.25586 0.75196,4.82422 z"
       style="font-style:normal;font-variant:normal;font-weight:normal;font-stretch:normal;font-size:20px;font-family:'Open Sans';-inkscape-font-specification:'Open Sans'"
       id="path956" />
  </g>
  <g
     aria-label="TCPヘッダ"
     style="font-style:normal;font-weight:normal;font-size:40px;line-height:0;font-family:sans-serif;text-align:center;letter-spacing:0px;word-spacing:0px;writing-mode:lr-tb;text-anchor:middle;fill:#000000;fill-opacity:1;stroke:none"
     id="text925-4-8">
    <path
       d="m 275.86407,92.575058 h -1.66015 V 79.772324 h -4.52149 v -1.47461 h 10.70313 v 1.47461 h -4.52149 z"
       style="font-style:normal;font-variant:normal;font-weight:normal;font-stretch:normal;font-size:20px;font-family:'Open Sans';-inkscape-font-specification:'Open Sans'"
       id="path905" />
    <path
       d="m 288.63751,79.577011 q -2.35351,0 -3.7207,1.572266 -1.35742,1.5625 -1.35742,4.287109 0,2.802734 1.30859,4.335938 1.31836,1.523437 3.75,1.523437 1.49414,0 3.4082,-0.537109 v 1.455078 q -1.48437,0.55664 -3.66211,0.55664 -3.15429,0 -4.87304,-1.914062 -1.70899,-1.914063 -1.70899,-5.439453 0,-2.207031 0.82032,-3.867188 0.83007,-1.660156 2.38281,-2.558593 1.5625,-0.898438 3.67187,-0.898438 2.2461,0 3.92578,0.820313 l -0.70312,1.425781 q -1.62109,-0.761719 -3.24219,-0.761719 z"
       style="font-style:normal;font-variant:normal;font-weight:normal;font-stretch:normal;font-size:20px;font-family:'Open Sans';-inkscape-font-specification:'Open Sans'"
       id="path907" />
    <path
       d="m 304.19415,82.45787 q 0,2.167969 -1.48437,3.339844 -1.47461,1.16211 -4.22852,1.16211 h -1.67969 v 5.615234 h -1.66015 V 78.297714 h 3.70117 q 5.35156,0 5.35156,4.160156 z m -7.39258,3.076172 h 1.49415 q 2.20703,0 3.19335,-0.71289 0.98633,-0.712891 0.98633,-2.285157 0,-1.416015 -0.92773,-2.109375 -0.92774,-0.693359 -2.89063,-0.693359 h -1.85547 z"
       style="font-style:normal;font-variant:normal;font-weight:normal;font-stretch:normal;font-size:20px;font-family:'Open Sans';-inkscape-font-specification:'Open Sans'"
       id="path909" />
    <path
       d="m 306.44978,86.935058 1.5,1.52 c 0.3,-0.4 0.74,-1.02 1.14,-1.54 0.9,-1.1 2.58,-3.3 3.54,-4.46 0.68,-0.84 0.96,-0.84 1.78,-0.16 0.88,0.72 2.54,2.52 3.9,4.08 1.3,1.46 3.12,3.46 4.5,5.26 l 1.3,-1.42 c -1.44,-1.72 -3.48,-3.9 -4.82,-5.34 -1.28,-1.38 -2.92,-3.14 -4.14,-4.14 -1.44,-1.2 -2.28,-1.06 -3.34,0.2 -1.26,1.5 -3,3.72 -3.94,4.68 -0.54,0.52 -0.9,0.88 -1.42,1.32 z"
       style="font-style:normal;font-variant:normal;font-weight:normal;font-stretch:normal;font-family:'Noto Sans CJK JP';-inkscape-font-specification:'Noto Sans CJK JP'"
       id="path911" />
    <path
       d="m 334.86978,81.055058 -1.46,0.5 c 0.42,0.9 1.34,3.44 1.56,4.34 l 1.48,-0.52 c -0.26,-0.88 -1.24,-3.52 -1.58,-4.32 z m 5.52,0.58 c -0.3,2.56 -1.34,5.1 -2.76,6.84 -1.64,2.06 -4.18,3.58 -6.5,4.24 l 1.32,1.36 c 2.24,-0.86 4.68,-2.42 6.52,-4.76 1.44,-1.8 2.3,-3.94 2.84,-6.14 0.08,-0.26 0.16,-0.58 0.3,-1 z m -10.16,0.42 -1.48,0.58 c 0.4,0.7 1.48,3.46 1.78,4.5 l 1.52,-0.56 c -0.38,-1.04 -1.42,-3.66 -1.82,-4.52 z"
       style="font-style:normal;font-variant:normal;font-weight:normal;font-stretch:normal;font-family:'Noto Sans CJK JP';-inkscape-font-specification:'Noto Sans CJK JP'"
       id="path913" />
    <path
       d="m 359.44978,76.915058 c 0.54,0.74 1.2,1.92 1.6,2.72 l -0.34,-0.2 c -0.32,0.12 -0.78,0.18 -1.32,0.18 h -5.46 c 0.16,-0.26 0.3,-0.5 0.42,-0.74 0.2,-0.38 0.56,-1.04 0.88,-1.56 l -1.8,-0.58 c -0.12,0.5 -0.44,1.22 -0.64,1.58 -0.9,1.82 -2.96,4.82 -6.42,6.94 l 1.34,1.04 c 2.24,-1.52 4.02,-3.46 5.28,-5.24 h 6.82 c -0.38,1.58 -1.34,3.62 -2.56,5.34 -1.56,-0.96 -3.24,-1.92 -4.4,-2.52 l -1.04,1.18 c 1.12,0.62 2.82,1.62 4.4,2.64 -1.8,2 -4.44,3.92 -7.92,4.98 l 1.44,1.26 c 3.52,-1.32 6.04,-3.26 7.84,-5.34 0.76,0.52 1.42,1 1.9,1.38 l 1.1,-1.42 c -0.5,-0.36 -1.18,-0.82 -1.94,-1.3 1.4,-1.96 2.42,-4.2 2.94,-5.96 0.1,-0.32 0.3,-0.78 0.46,-1.06 l -0.94,-0.56 1.06,-0.48 c -0.42,-0.82 -1.14,-2.02 -1.64,-2.74 z m 2.2,-0.8 c 0.56,0.74 1.22,1.86 1.66,2.74 l 1.06,-0.48 c -0.36,-0.74 -1.14,-1.98 -1.66,-2.72 z"
       style="font-style:normal;font-variant:normal;font-weight:normal;font-stretch:normal;font-family:'Noto Sans CJK JP';-inkscape-font-specification:'Noto Sans CJK JP'"
       id="path915" />
  </g>
  <g
     aria-label="(20バイト)"
     style="font-style:normal;font-weight:normal;font-size:40px;line-height:0;font-family:sans-serif;text-align:center;letter-spacing:0px;word-spacing:0px;writing-mode:lr-tb;text-anchor:middle;fill:#000000;fill-opacity:1;stroke:none"
     id="text925-4-8-7">
    <path
       d="m 270.36682,111.95571 q 0,-2.58789 0.75195,-4.84375 0.76172,-2.25586 2.1875,-3.95508 h 1.58204 q -1.40625,1.88477 -2.11914,4.14063 -0.70313,2.25586 -0.70313,4.63867 0,2.34375 0.72266,4.58008 0.72265,2.23633 2.08007,4.08203 h -1.5625 q -1.43554,-1.66016 -2.1875,-3.87695 -0.75195,-2.2168 -0.75195,-4.76563 z"
       style="font-style:normal;font-variant:normal;font-weight:normal;font-stretch:normal;font-size:20px;font-family:'Open Sans';-inkscape-font-specification:'Open Sans'"
       id="path918" />
    <path
       d="m 285.86487,117.43423 h -9.38477 v -1.39649 l 3.75977,-3.77929 q 1.71875,-1.73829 2.26562,-2.48047 0.54688,-0.74219 0.82032,-1.44532 0.27343,-0.70312 0.27343,-1.51367 0,-1.14258 -0.69336,-1.80664 -0.69336,-0.67383 -1.92382,-0.67383 -0.88868,0 -1.68946,0.29297 -0.79101,0.29297 -1.76758,1.06446 l -0.85937,-1.10352 q 1.97266,-1.64062 4.29687,-1.64062 2.01172,0 3.1543,1.03515 1.14258,1.02539 1.14258,2.76367 0,1.35743 -0.76172,2.68555 -0.76172,1.32813 -2.85156,3.35938 l -3.125,3.05664 v 0.0781 h 7.34375 z"
       style="font-style:normal;font-variant:normal;font-weight:normal;font-stretch:normal;font-size:20px;font-family:'Open Sans';-inkscape-font-specification:'Open Sans'"
       id="path920" />
    <path
       d="m 297.38831,110.27602 q 0,3.70118 -1.17188,5.52735 -1.16211,1.82617 -3.56445,1.82617 -2.30469,0 -3.50586,-1.86523 -1.20117,-1.875 -1.20117,-5.48829 0,-3.73046 1.16211,-5.53711 1.16211,-1.80664 3.54492,-1.80664 2.32422,0 3.52539,1.88477 1.21094,1.88477 1.21094,5.45898 z m -7.80274,0 q 0,3.11524 0.73242,4.54102 0.73243,1.41602 2.33399,1.41602 1.62109,0 2.34375,-1.43555 0.73242,-1.44531 0.73242,-4.52149 0,-3.07617 -0.73242,-4.50195 -0.72266,-1.43555 -2.34375,-1.43555 -1.60156,0 -2.33399,1.41602 -0.73242,1.40625 -0.73242,4.52148 z"
       style="font-style:normal;font-variant:normal;font-weight:normal;font-stretch:normal;font-size:20px;font-family:'Open Sans';-inkscape-font-specification:'Open Sans'"
       id="path922" />
    <path
       d="m 313.69417,101.85423 -1.06,0.44 c 0.54,0.76 1.22,1.96 1.62,2.78 l 1.08,-0.48 c -0.4,-0.82 -1.14,-2.04 -1.64,-2.74 z m 2.2,-0.8 -1.06,0.44 c 0.58,0.76 1.22,1.88 1.66,2.76 l 1.08,-0.48 c -0.38,-0.74 -1.14,-2 -1.68,-2.72 z m -13.14,10.36 c -0.7,1.68 -1.82,3.78 -3.08,5.44 l 1.7,0.72 c 1.12,-1.6 2.2,-3.66 2.94,-5.5 0.84,-2.04 1.54,-5 1.82,-6.24 0.08,-0.44 0.24,-1.02 0.36,-1.46 l -1.78,-0.36 c -0.26,2.3 -1.1,5.34 -1.96,7.4 z m 9.84,-0.76 c 0.84,2.14 1.76,4.84 2.26,6.88 l 1.78,-0.58 c -0.52,-1.8 -1.58,-4.86 -2.4,-6.84 -0.84,-2.12 -2.12,-4.88 -2.92,-6.32 l -1.62,0.54 c 0.88,1.48 2.1,4.26 2.9,6.32 z"
       style="font-style:normal;font-variant:normal;font-weight:normal;font-stretch:normal;font-family:'Noto Sans CJK JP';-inkscape-font-specification:'Noto Sans CJK JP'"
       id="path924" />
    <path
       d="m 334.29417,101.81423 c -1.12,1.42 -3.22,3.16 -5.26,4.42 -2.2,1.38 -5.6,2.9 -8.94,3.68 l 0.92,1.56 c 2.62,-0.78 5.38,-1.94 7.52,-3.12 v 7.56 c 0,0.76 -0.06,1.76 -0.12,2.14 h 1.96 c -0.08,-0.4 -0.12,-1.38 -0.12,-2.14 v -8.56 c 2.06,-1.3 3.98,-2.94 5.36,-4.34 z"
       style="font-style:normal;font-variant:normal;font-weight:normal;font-stretch:normal;font-family:'Noto Sans CJK JP';-inkscape-font-specification:'Noto Sans CJK JP'"
       id="path926" />
    <path
       d="m 355.33417,110.59423 c -2.12,-1.06 -5.9,-2.5 -8.54,-3.3 v -3.26 c 0,-0.6 0.08,-1.46 0.14,-2.08 h -1.96 c 0.12,0.62 0.16,1.52 0.16,2.08 v 11.64 c 0,0.74 -0.04,1.72 -0.12,2.36 h 1.92 c -0.08,-0.66 -0.12,-1.72 -0.12,-2.36 l -0.02,-6.6 c 2.22,0.7 5.68,2.04 7.86,3.22 z"
       style="font-style:normal;font-variant:normal;font-weight:normal;font-stretch:normal;font-family:'Noto Sans CJK JP';-inkscape-font-specification:'Noto Sans CJK JP'"
       id="path928" />
    <path
       d="m 363.51135,111.95571 q 0,2.56836 -0.76172,4.78516 -0.75195,2.21679 -2.17773,3.85742 h -1.5625 q 1.35742,-1.83594 2.08008,-4.07227 0.72265,-2.24609 0.72265,-4.58984 0,-2.38281 -0.71289,-4.63867 -0.70312,-2.25586 -2.10937,-4.14063 h 1.58203 q 1.43555,1.70899 2.1875,3.97461 0.75195,2.25586 0.75195,4.82422 z"
       style="font-style:normal;font-variant:normal;font-weight:normal;font-stretch:normal;font-size:20px;font-family:'Open Sans';-inkscape-font-specification:'Open Sans'"
       id="path930" />
  </g>
  <g
     aria-label="使用データ"
     style="font-style:normal;font-weight:normal;font-size:40px;line-height:0;font-family:sans-serif;text-align:center;letter-spacing:0px;word-spacing:0px;writing-mode:lr-tb;text-anchor:middle;fill:#000000;fill-opacity:1;stroke:none"
     id="text925-4-8-0">
    <path
       d="m 535.44108,75.523864 c -1.16,3.02 -3.1,6 -5.12,7.9 0.28,0.34 0.7,1.1 0.84,1.44 0.74,-0.74 1.5,-1.62 2.2,-2.6 v 11.66 h 1.42 v -13.8 c 0.78,-1.34 1.5,-2.76 2.06,-4.16 z m 2.82,9.8 v -2.96 h 3.56 v 2.06 c 0,0.3 0,0.6 -0.02,0.9 z m 8.7,-2.96 v 2.96 h -3.7 c 0.02,-0.3 0.02,-0.6 0.02,-0.9 v -2.06 z m 1.42,4.22 v -5.48 h -5.1 v -1.96 h 5.76 v -1.36 h -5.76 v -2.14 h -1.46 v 2.14 h -5.52 v 1.36 h 5.52 v 1.96 h -4.94 v 5.48 h 4.84 c -0.14,1.1 -0.44,2.14 -1.08,3.08 -1.06,-0.74 -1.92,-1.62 -2.52,-2.66 l -1.24,0.4 c 0.74,1.28 1.72,2.36 2.9,3.26 -0.92,0.82 -2.26,1.52 -4.22,2.02 0.32,0.28 0.74,0.9 0.9,1.22 2.08,-0.62 3.52,-1.46 4.52,-2.44 2.04,1.22 4.54,2 7.36,2.42 0.2,-0.44 0.56,-1.02 0.88,-1.34 -2.84,-0.34 -5.36,-1.02 -7.36,-2.12 0.8,-1.16 1.16,-2.46 1.32,-3.84 z"
       style="font-style:normal;font-variant:normal;font-weight:normal;font-stretch:normal;font-size:20px;font-family:'Noto Sans CJK JP';-inkscape-font-specification:'Noto Sans CJK JP'"
       id="path845" />
    <path
       d="m 560.70108,86.323864 v -3.32 h 5.38 v 3.32 z m -6.34,0 c 0.06,-0.74 0.08,-1.48 0.08,-2.14 v -1.18 h 4.78 v 3.32 z m 4.86,-7.92 v 3.2 h -4.78 v -3.2 z m 6.86,3.2 h -5.38 v -3.2 h 5.38 z m 1.46,-4.62 h -14.56 v 7.2 c 0,2.78 -0.2,6.3 -2.4,8.78 0.32,0.18 0.92,0.68 1.14,0.98 1.52,-1.7 2.2,-3.98 2.5,-6.2 h 5 v 5.9 h 1.48 v -5.9 h 5.38 v 4.06 c 0,0.38 -0.14,0.5 -0.54,0.52 -0.36,0 -1.72,0.02 -3.12,-0.04 0.2,0.4 0.44,1.04 0.5,1.44 1.88,0.02 3.04,0 3.72,-0.24 0.64,-0.26 0.9,-0.7 0.9,-1.66 z"
       style="font-style:normal;font-variant:normal;font-weight:normal;font-stretch:normal;font-size:20px;font-family:'Noto Sans CJK JP';-inkscape-font-specification:'Noto Sans CJK JP'"
       id="path847" />
    <path
       d="m 587.20108,78.803864 c -0.42,-0.82 -1.14,-2.02 -1.64,-2.74 l -1.06,0.46 c 0.54,0.74 1.22,1.94 1.62,2.76 z m -4.54,0.48 c 0.58,0 1.28,0.02 1.86,0.06 v -1.66 c -0.58,0.08 -1.3,0.12 -1.86,0.12 h -6.92 c -0.64,0 -1.24,-0.06 -1.82,-0.12 v 1.66 c 0.52,-0.04 1.18,-0.06 1.84,-0.06 z m -9.36,3.52 c -0.62,0 -1.2,-0.04 -1.74,-0.08 v 1.64 c 0.54,-0.04 1.12,-0.04 1.74,-0.04 h 5.98 c -0.06,1.88 -0.28,3.56 -1.16,4.96 -0.78,1.26 -2.22,2.42 -3.78,3.06 l 1.48,1.1 c 1.7,-0.88 3.22,-2.32 3.94,-3.66 0.8,-1.48 1.12,-3.3 1.18,-5.46 h 5.44 c 0.48,0 1.12,0.02 1.56,0.04 v -1.64 c -0.48,0.06 -1.14,0.08 -1.56,0.08 z m 13.4,-7.1 c 0.58,0.76 1.22,1.88 1.66,2.76 l 1.08,-0.48 c -0.38,-0.74 -1.16,-2 -1.68,-2.72 z"
       style="font-style:normal;font-variant:normal;font-weight:normal;font-stretch:normal;font-size:20px;font-family:'Noto Sans CJK JP';-inkscape-font-specification:'Noto Sans CJK JP'"
       id="path849" />
    <path
       d="m 591.90108,85.603864 c 0.62,-0.06 1.68,-0.1 2.78,-0.1 h 10.98 c 0.9,0 1.74,0.08 2.14,0.1 v -1.96 c -0.44,0.04 -1.16,0.1 -2.16,0.1 h -10.96 c -1.12,0 -2.18,-0.06 -2.78,-0.1 z"
       style="font-style:normal;font-variant:normal;font-weight:normal;font-stretch:normal;font-size:20px;font-family:'Noto Sans CJK JP';-inkscape-font-specification:'Noto Sans CJK JP'"
       id="path851" />
    <path
       d="m 626.00108,78.683864 c -0.34,0.14 -0.78,0.2 -1.32,0.2 h -5.46 c 0.16,-0.26 0.3,-0.5 0.42,-0.74 0.2,-0.38 0.56,-1.06 0.88,-1.58 l -1.8,-0.58 c -0.14,0.52 -0.44,1.24 -0.64,1.6 -0.9,1.82 -2.98,4.82 -6.42,6.94 l 1.34,1.04 c 2.24,-1.52 4.02,-3.48 5.3,-5.26 h 6.8 c -0.38,1.58 -1.36,3.64 -2.58,5.34 -1.56,-0.94 -3.24,-1.9 -4.4,-2.5 l -1.02,1.18 c 1.12,0.62 2.8,1.62 4.38,2.64 -1.82,2 -4.42,3.92 -7.9,4.98 l 1.44,1.24 c 3.52,-1.3 6.04,-3.26 7.84,-5.32 0.76,0.52 1.42,1 1.9,1.38 l 1.1,-1.44 c -0.5,-0.36 -1.18,-0.82 -1.94,-1.3 1.4,-1.96 2.42,-4.18 2.92,-5.94 0.12,-0.32 0.3,-0.8 0.46,-1.08 z"
       style="font-style:normal;font-variant:normal;font-weight:normal;font-stretch:normal;font-size:20px;font-family:'Noto Sans CJK JP';-inkscape-font-specification:'Noto Sans CJK JP'"
       id="path853" />
  </g>
  <g
     aria-label="(最大1460バイト)"
     style="font-style:normal;font-weight:normal;font-size:40px;line-height:0;font-family:sans-serif;text-align:center;letter-spacing:0px;word-spacing:0px;writing-mode:lr-tb;text-anchor:middle;fill:#000000;fill-opacity:1;stroke:none"
     id="text925-4-8-0-4">
    <path
       d="m 501.85162,111.75761 q 0,-2.58789 0.75196,-4.84375 0.76172,-2.25586 2.1875,-3.95507 h 1.58203 q -1.40625,1.88476 -2.11914,4.14062 -0.70313,2.25586 -0.70313,4.63867 0,2.34375 0.72266,4.58008 0.72265,2.23633 2.08008,4.08203 h -1.5625 q -1.43555,-1.66015 -2.1875,-3.87695 -0.75196,-2.2168 -0.75196,-4.76563 z"
       style="font-style:normal;font-variant:normal;font-weight:normal;font-stretch:normal;font-size:20px;font-family:'Open Sans';-inkscape-font-specification:'Open Sans'"
       id="path856" />
    <path
       d="m 522.00834,103.57613 h -10 v -1.38 h 10 z m 0,2.4 h -10 v -1.4 h 10 z m 1.46,-4.84 h -12.86 v 5.9 h 12.86 z m -0.2,10.68 c -0.52,1.12 -1.26,2.1 -2.16,2.94 -0.82,-0.84 -1.5,-1.84 -1.96,-2.94 z m -11.96,2.56 h 3.62 v 1.22 c -1.24,0.14 -2.48,0.26 -3.62,0.38 z m 0,-2.52 h 3.62 v 1.4 h -3.62 z m 3.62,-2.46 v 1.34 h -3.62 v -1.34 z m 9.26,1.2 -0.26,0.04 h -6.88 v 1.18 h 1.72 l -0.86,0.26 c 0.54,1.34 1.28,2.52 2.2,3.52 -1.14,0.86 -2.44,1.5 -3.76,1.9 v -8.1 h 9.36 v -1.24 h -17.48 v 1.24 h 1.72 v 6.72 c -0.7,0.08 -1.34,0.14 -1.9,0.18 l 0.14,1.32 c 1.86,-0.22 4.3,-0.5 6.74,-0.8 v 1.94 h 1.42 v -1.24 c 0.26,0.26 0.62,0.78 0.78,1.12 1.4,-0.48 2.76,-1.16 3.98,-2.1 1.18,0.98 2.58,1.74 4.18,2.2 0.18,-0.34 0.58,-0.88 0.9,-1.16 -1.54,-0.38 -2.9,-1.04 -4.04,-1.92 1.28,-1.24 2.32,-2.8 2.94,-4.7 z"
       style="font-style:normal;font-variant:normal;font-weight:normal;font-stretch:normal;font-family:'Noto Sans CJK JP';-inkscape-font-specification:'Noto Sans CJK JP'"
       id="path858" />
    <path
       d="m 545.76834,107.73613 v -1.52 h -8.26 c 0.28,-2.1 0.3,-4.08 0.32,-5.68 h -1.6 c -0.02,1.58 0,3.58 -0.3,5.68 h -7.62 v 1.52 h 7.38 c -0.82,3.78 -2.82,7.62 -7.78,9.78 0.42,0.3 0.9,0.82 1.12,1.22 4.86,-2.22 7.02,-6.06 7.98,-9.9 1.58,4.54 4.12,8.08 7.96,9.9 0.26,-0.44 0.76,-1.06 1.12,-1.4 -3.86,-1.58 -6.46,-5.2 -7.86,-9.6 z"
       style="font-style:normal;font-variant:normal;font-weight:normal;font-stretch:normal;font-family:'Noto Sans CJK JP';-inkscape-font-specification:'Noto Sans CJK JP'"
       id="path860" />
    <path
       d="m 553.97076,117.23613 h -1.58203 v -10.17578 q 0,-1.26953 0.0781,-2.40235 -0.20508,0.20508 -0.45899,0.42969 -0.2539,0.22461 -2.32422,1.9043 l -0.85937,-1.11328 3.7793,-2.91992 h 1.36718 z"
       style="font-style:normal;font-variant:normal;font-weight:normal;font-stretch:normal;font-size:20px;font-family:'Open Sans';-inkscape-font-specification:'Open Sans'"
       id="path862" />
    <path
       d="m 569.46881,113.95488 h -2.11914 v 3.28125 h -1.55273 v -3.28125 h -6.94336 v -1.41602 l 6.77734,-9.6582 h 1.71875 v 9.59961 h 2.11914 z m -3.67187,-1.47461 v -4.74609 q 0,-1.39649 0.0977,-3.1543 h -0.0781 q -0.46875,0.9375 -0.87891,1.55273 l -4.46289,6.34766 z"
       style="font-style:normal;font-variant:normal;font-weight:normal;font-stretch:normal;font-size:20px;font-family:'Open Sans';-inkscape-font-specification:'Open Sans'"
       id="path864" />
    <path
       d="m 571.02155,111.13261 q 0,-4.20898 1.63085,-6.28906 1.64063,-2.08984 4.84375,-2.08984 1.10352,0 1.73829,0.18554 v 1.39649 q -0.75196,-0.24414 -1.71875,-0.24414 -2.29493,0 -3.50586,1.43555 -1.21094,1.42578 -1.32813,4.49218 h 0.11719 q 1.07422,-1.67968 3.39844,-1.67968 1.92382,0 3.02734,1.1621 1.11328,1.16211 1.11328,3.1543 0,2.22656 -1.2207,3.50586 -1.21094,1.26953 -3.28125,1.26953 -2.2168,0 -3.51563,-1.66015 -1.29882,-1.66993 -1.29882,-4.63868 z m 4.79492,4.92188 q 1.38672,0 2.14843,-0.86914 0.77149,-0.87891 0.77149,-2.5293 0,-1.41601 -0.71289,-2.22656 -0.71289,-0.81055 -2.12891,-0.81055 -0.8789,0 -1.61133,0.36133 -0.73242,0.36133 -1.17187,0.99609 -0.42969,0.63477 -0.42969,1.31836 0,1.00586 0.39063,1.875 0.39062,0.86914 1.10351,1.37696 0.72266,0.50781 1.64063,0.50781 z"
       style="font-style:normal;font-variant:normal;font-weight:normal;font-stretch:normal;font-size:20px;font-family:'Open Sans';-inkscape-font-specification:'Open Sans'"
       id="path866" />
    <path
       d="m 591.76373,110.07793 q 0,3.70117 -1.17187,5.52734 -1.16211,1.82617 -3.56446,1.82617 -2.30468,0 -3.50585,-1.86523 -1.20118,-1.875 -1.20118,-5.48828 0,-3.73047 1.16211,-5.53711 1.16211,-1.80664 3.54492,-1.80664 2.32422,0 3.5254,1.88476 1.21093,1.88477 1.21093,5.45899 z m -7.80273,0 q 0,3.11523 0.73242,4.54101 0.73242,1.41602 2.33398,1.41602 1.6211,0 2.34375,-1.43555 0.73243,-1.44531 0.73243,-4.52148 0,-3.07618 -0.73243,-4.50196 -0.72265,-1.43554 -2.34375,-1.43554 -1.60156,0 -2.33398,1.41601 -0.73242,1.40625 -0.73242,4.52149 z"
       style="font-style:normal;font-variant:normal;font-weight:normal;font-stretch:normal;font-size:20px;font-family:'Open Sans';-inkscape-font-specification:'Open Sans'"
       id="path868" />
    <path
       d="m 608.06959,101.65613 -1.06,0.44 c 0.54,0.76 1.22,1.96 1.62,2.78 l 1.08,-0.48 c -0.4,-0.82 -1.14,-2.04 -1.64,-2.74 z m 2.2,-0.8 -1.06,0.44 c 0.58,0.76 1.22,1.88 1.66,2.76 l 1.08,-0.48 c -0.38,-0.74 -1.14,-2 -1.68,-2.72 z m -13.14,10.36 c -0.7,1.68 -1.82,3.78 -3.08,5.44 l 1.7,0.72 c 1.12,-1.6 2.2,-3.66 2.94,-5.5 0.84,-2.04 1.54,-5 1.82,-6.24 0.08,-0.44 0.24,-1.02 0.36,-1.46 l -1.78,-0.36 c -0.26,2.3 -1.1,5.34 -1.96,7.4 z m 9.84,-0.76 c 0.84,2.14 1.76,4.84 2.26,6.88 l 1.78,-0.58 c -0.52,-1.8 -1.58,-4.86 -2.4,-6.84 -0.84,-2.12 -2.12,-4.88 -2.92,-6.32 l -1.62,0.54 c 0.88,1.48 2.1,4.26 2.9,6.32 z"
       style="font-style:normal;font-variant:normal;font-weight:normal;font-stretch:normal;font-family:'Noto Sans CJK JP';-inkscape-font-specification:'Noto Sans CJK JP'"
       id="path870" />
    <path
       d="m 628.66959,101.61613 c -1.12,1.42 -3.22,3.16 -5.26,4.42 -2.2,1.38 -5.6,2.9 -8.94,3.68 l 0.92,1.56 c 2.62,-0.78 5.38,-1.94 7.52,-3.12 v 7.56 c 0,0.76 -0.06,1.76 -0.12,2.14 h 1.96 c -0.08,-0.4 -0.12,-1.38 -0.12,-2.14 v -8.56 c 2.06,-1.3 3.98,-2.94 5.36,-4.34 z"
       style="font-style:normal;font-variant:normal;font-weight:normal;font-stretch:normal;font-family:'Noto Sans CJK JP';-inkscape-font-specification:'Noto Sans CJK JP'"
       id="path872" />
    <path
       d="m 649.70959,110.39613 c -2.12,-1.06 -5.9,-2.5 -8.54,-3.3 v -3.26 c 0,-0.6 0.08,-1.46 0.14,-2.08 h -1.96 c 0.12,0.62 0.16,1.52 0.16,2.08 v 11.64 c 0,0.74 -0.04,1.72 -0.12,2.36 h 1.92 c -0.08,-0.66 -0.12,-1.72 -0.12,-2.36 l -0.02,-6.6 c 2.22,0.7 5.68,2.04 7.86,3.22 z"
       style="font-style:normal;font-variant:normal;font-weight:normal;font-stretch:normal;font-family:'Noto Sans CJK JP';-inkscape-font-specification:'Noto Sans CJK JP'"
       id="path874" />
    <path
       d="m 657.88678,111.75761 q 0,2.56836 -0.76172,4.78516 -0.75195,2.2168 -2.17773,3.85742 h -1.5625 q 1.35742,-1.83594 2.08007,-4.07226 0.72266,-2.2461 0.72266,-4.58985 0,-2.38281 -0.71289,-4.63867 -0.70312,-2.25586 -2.10937,-4.14062 h 1.58203 q 1.43554,1.70898 2.1875,3.97461 0.75195,2.25585 0.75195,4.82421 z"
       style="font-style:normal;font-variant:normal;font-weight:normal;font-stretch:normal;font-size:20px;font-family:'Open Sans';-inkscape-font-specification:'Open Sans'"
       id="path876" />
  </g>
  <g
     aria-label="チェックサム"
     style="font-style:normal;font-weight:normal;font-size:40px;line-height:0;font-family:sans-serif;text-align:center;letter-spacing:0px;word-spacing:0px;writing-mode:lr-tb;text-anchor:middle;fill:#000000;fill-opacity:1;stroke:none"
     id="text925-4-8-0-0">
    <path
       d="m 769.24704,83.033796 v -3.84 c 1.44,-0.22 2.98,-0.52 3.96,-0.78 l 1.14,-0.3 -1.06,-1.38 c -0.98,0.42 -3.34,0.9 -5.16,1.16 -2.16,0.28 -5.2,0.36 -6.72,0.3 l 0.4,1.48 c 1.54,-0.02 3.8,-0.08 5.82,-0.28 v 3.64 h -6.02 c -0.6,0 -1.3,-0.04 -1.74,-0.08 v 1.66 c 0.46,-0.04 1.14,-0.08 1.78,-0.08 h 5.94 c -0.24,3.58 -1.9,5.82 -5.04,7.28 l 1.56,1.1 c 3.44,-2 4.9,-4.64 5.12,-8.38 h 5.58 c 0.5,0 1.1,0.04 1.54,0.08 v -1.66 c -0.42,0.04 -1.14,0.08 -1.58,0.08 z"
       style="font-style:normal;font-variant:normal;font-weight:normal;font-stretch:normal;font-size:20px;font-family:'Noto Sans CJK JP';-inkscape-font-specification:'Noto Sans CJK JP'"
       id="path879" />
    <path
       d="m 788.84704,90.653796 v -7.36 h 3.9 c 0.46,0 0.98,0.02 1.42,0.06 v -1.6 c -0.42,0.04 -0.92,0.08 -1.42,0.08 h -9.2 c -0.32,0 -0.96,-0.02 -1.38,-0.08 v 1.6 c 0.42,-0.04 1.06,-0.06 1.38,-0.06 h 3.68 v 7.36 h -4.6 c -0.44,0 -0.98,-0.04 -1.44,-0.1 v 1.68 c 0.48,-0.04 1,-0.06 1.44,-0.06 h 11.06 c 0.32,0 0.94,0.02 1.34,0.06 v -1.68 c -0.4,0.06 -0.86,0.1 -1.34,0.1 z"
       style="font-style:normal;font-variant:normal;font-weight:normal;font-stretch:normal;font-size:20px;font-family:'Noto Sans CJK JP';-inkscape-font-specification:'Noto Sans CJK JP'"
       id="path881" />
    <path
       d="m 807.74704,80.573796 -1.46,0.5 c 0.42,0.9 1.34,3.44 1.56,4.34 l 1.48,-0.52 c -0.26,-0.88 -1.24,-3.52 -1.58,-4.32 z m 5.52,0.58 c -0.3,2.56 -1.34,5.1 -2.76,6.84 -1.64,2.06 -4.18,3.58 -6.5,4.24 l 1.32,1.36 c 2.24,-0.86 4.68,-2.42 6.52,-4.76 1.44,-1.8 2.3,-3.94 2.84,-6.14 0.08,-0.26 0.16,-0.58 0.3,-1 z m -10.16,0.42 -1.48,0.58 c 0.4,0.7 1.48,3.46 1.78,4.5 l 1.52,-0.56 c -0.38,-1.04 -1.42,-3.66 -1.82,-4.52 z"
       style="font-style:normal;font-variant:normal;font-weight:normal;font-stretch:normal;font-size:20px;font-family:'Noto Sans CJK JP';-inkscape-font-specification:'Noto Sans CJK JP'"
       id="path883" />
    <path
       d="m 834.18704,78.793796 c -0.32,0.12 -0.76,0.18 -1.3,0.18 h -5.44 c 0.18,-0.28 0.34,-0.56 0.48,-0.84 0.2,-0.38 0.56,-1.04 0.9,-1.56 l -1.86,-0.62 c -0.12,0.52 -0.4,1.24 -0.62,1.58 -0.86,1.8 -2.82,4.7 -6.28,6.76 l 1.38,1.04 c 2.18,-1.46 3.86,-3.24 5.06,-4.92 h 6.76 c -0.4,1.82 -1.62,4.4 -3.18,6.24 -1.82,2.12 -4.32,3.94 -7.98,5.02 l 1.44,1.3 c 3.76,-1.38 6.14,-3.22 7.96,-5.44 1.78,-2.16 3,-4.88 3.54,-6.88 0.12,-0.32 0.32,-0.78 0.48,-1.06 z"
       style="font-style:normal;font-variant:normal;font-weight:normal;font-stretch:normal;font-size:20px;font-family:'Noto Sans CJK JP';-inkscape-font-specification:'Noto Sans CJK JP'"
       id="path885" />
    <path
       d="m 852.48704,80.673796 v -2.5 c 0,-0.78 0.08,-1.44 0.1,-1.64 h -1.8 c 0.04,0.2 0.1,0.86 0.1,1.64 v 2.5 h -5.7 v -2.56 c 0,-0.7 0.08,-1.26 0.1,-1.46 h -1.78 c 0.02,0.2 0.08,0.82 0.08,1.46 v 2.56 h -2.14 c -0.86,0 -1.84,-0.1 -2.02,-0.14 v 1.74 c 0.24,-0.02 1.14,-0.08 2.02,-0.08 h 2.14 v 3.24 c 0,0.76 -0.06,1.62 -0.08,1.82 h 1.76 c -0.02,-0.2 -0.08,-1.08 -0.08,-1.82 v -3.24 h 5.7 v 0.84 c 0,5.6 -1.82,7.32 -5.46,8.72 l 1.34,1.26 c 4.58,-2.04 5.72,-4.78 5.72,-10.12 v -0.7 h 2.2 c 0.88,0 1.62,0.04 1.82,0.06 v -1.68 c -0.26,0.04 -0.94,0.1 -1.82,0.1 z"
       style="font-style:normal;font-variant:normal;font-weight:normal;font-stretch:normal;font-size:20px;font-family:'Noto Sans CJK JP';-inkscape-font-specification:'Noto Sans CJK JP'"
       id="path887" />
    <path
       d="m 876.35641,92.013796 c -0.82,-2.06 -3,-6.08 -4.42,-8.14 l -1.5,0.68 c 0.74,0.96 1.62,2.52 2.42,4.1 -2.18,0.28 -6.02,0.72 -8.96,1 1,-2.6 2.96,-8.74 3.56,-10.62 0.26,-0.84 0.48,-1.36 0.68,-1.86 l -1.98,-0.4 c -0.08,0.52 -0.16,1 -0.4,1.92 -0.56,1.96 -2.6,8.36 -3.72,11.12 -0.36,0.02 -0.7,0.04 -1,0.06 -0.58,0.02 -1.26,0.04 -1.86,0.02 l 0.3,1.86 c 0.58,-0.08 1.16,-0.18 1.66,-0.22 2.68,-0.24 9.36,-0.98 12.46,-1.38 0.44,0.98 0.84,1.9 1.1,2.62 z"
       style="font-style:normal;font-variant:normal;font-weight:normal;font-stretch:normal;font-size:20px;font-family:'Noto Sans CJK JP';-inkscape-font-specification:'Noto Sans CJK JP'"
       id="path889" />
  </g>
  <g
     aria-label="(2バイト)"
     style="font-style:normal;font-weight:normal;font-size:40px;line-height:0;font-family:sans-serif;text-align:center;letter-spacing:0px;word-spacing:0px;writing-mode:lr-tb;text-anchor:middle;fill:#000000;fill-opacity:1;stroke:none"
     id="text925-4-8-0-0-7">
    <path
       d="m 777.07178,111.06445 q 0,-2.5879 0.75195,-4.84375 0.76172,-2.25586 2.1875,-3.95508 h 1.58203 q -1.40625,1.88476 -2.11914,4.14062 -0.70312,2.25586 -0.70312,4.63867 0,2.34375 0.72265,4.58008 0.72266,2.23633 2.08008,4.08203 h -1.5625 q -1.43555,-1.66015 -2.1875,-3.87695 -0.75195,-2.2168 -0.75195,-4.76562 z"
       style="font-style:normal;font-variant:normal;font-weight:normal;font-stretch:normal;font-size:20px;font-family:'Open Sans';-inkscape-font-specification:'Open Sans'"
       id="path892" />
    <path
       d="m 792.56982,116.54296 h -9.38476 v -1.39648 l 3.75976,-3.7793 q 1.71875,-1.73828 2.26563,-2.48047 0.54687,-0.74219 0.82031,-1.44531 0.27344,-0.70313 0.27344,-1.51367 0,-1.14258 -0.69336,-1.80664 -0.69336,-0.67383 -1.92383,-0.67383 -0.88867,0 -1.68945,0.29297 -0.79102,0.29297 -1.76758,1.06445 l -0.85937,-1.10352 q 1.97265,-1.64062 4.29687,-1.64062 2.01172,0 3.1543,1.03516 1.14258,1.02539 1.14258,2.76367 0,1.35742 -0.76172,2.68554 -0.76172,1.32813 -2.85157,3.35938 l -3.125,3.05664 v 0.0781 h 7.34375 z"
       style="font-style:normal;font-variant:normal;font-weight:normal;font-stretch:normal;font-size:20px;font-family:'Open Sans';-inkscape-font-specification:'Open Sans'"
       id="path894" />
    <path
       d="m 808.95381,100.96296 -1.06,0.44 c 0.54,0.76 1.22,1.96 1.62,2.78 l 1.08,-0.48 c -0.4,-0.82 -1.14,-2.04 -1.64,-2.74 z m 2.2,-0.8 -1.06,0.44 c 0.58,0.76 1.22,1.88 1.66,2.76 l 1.08,-0.48 c -0.38,-0.74 -1.14,-2 -1.68,-2.72 z m -13.14,10.36 c -0.7,1.68 -1.82,3.78 -3.08,5.44 l 1.7,0.72 c 1.12,-1.6 2.2,-3.66 2.94,-5.5 0.84,-2.04 1.54,-5 1.82,-6.24 0.08,-0.44 0.24,-1.02 0.36,-1.46 l -1.78,-0.36 c -0.26,2.3 -1.1,5.34 -1.96,7.4 z m 9.84,-0.76 c 0.84,2.14 1.76,4.84 2.26,6.88 l 1.78,-0.58 c -0.52,-1.8 -1.58,-4.86 -2.4,-6.84 -0.84,-2.12 -2.12,-4.88 -2.92,-6.32 l -1.62,0.54 c 0.88,1.48 2.1,4.26 2.9,6.32 z"
       style="font-style:normal;font-variant:normal;font-weight:normal;font-stretch:normal;font-family:'Noto Sans CJK JP';-inkscape-font-specification:'Noto Sans CJK JP'"
       id="path896" />
    <path
       d="m 829.55381,100.92296 c -1.12,1.42 -3.22,3.16 -5.26,4.42 -2.2,1.38 -5.6,2.9 -8.94,3.68 l 0.92,1.56 c 2.62,-0.78 5.38,-1.94 7.52,-3.12 v 7.56 c 0,0.76 -0.06,1.76 -0.12,2.14 h 1.96 c -0.08,-0.4 -0.12,-1.38 -0.12,-2.14 v -8.56 c 2.06,-1.3 3.98,-2.94 5.36,-4.34 z"
       style="font-style:normal;font-variant:normal;font-weight:normal;font-stretch:normal;font-family:'Noto Sans CJK JP';-inkscape-font-specification:'Noto Sans CJK JP'"
       id="path898" />
    <path
       d="m 850.59381,109.70296 c -2.12,-1.06 -5.9,-2.5 -8.54,-3.3 v -3.26 c 0,-0.6 0.08,-1.46 0.14,-2.08 h -1.96 c 0.12,0.62 0.16,1.52 0.16,2.08 v 11.64 c 0,0.74 -0.04,1.72 -0.12,2.36 h 1.92 c -0.08,-0.66 -0.12,-1.72 -0.12,-2.36 l -0.02,-6.6 c 2.22,0.7 5.68,2.04 7.86,3.22 z"
       style="font-style:normal;font-variant:normal;font-weight:normal;font-stretch:normal;font-family:'Noto Sans CJK JP';-inkscape-font-specification:'Noto Sans CJK JP'"
       id="path900" />
    <path
       d="m 858.771,111.06445 q 0,2.56835 -0.76172,4.78515 -0.75196,2.2168 -2.17774,3.85742 h -1.5625 q 1.35742,-1.83593 2.08008,-4.07226 0.72266,-2.2461 0.72266,-4.58985 0,-2.38281 -0.71289,-4.63867 -0.70313,-2.25586 -2.10938,-4.14062 h 1.58203 q 1.43555,1.70898 2.1875,3.97461 0.75196,2.25586 0.75196,4.82422 z"
       style="font-style:normal;font-variant:normal;font-weight:normal;font-stretch:normal;font-size:20px;font-family:'Open Sans';-inkscape-font-specification:'Open Sans'"
       id="path902" />
  </g>
</svg>
