<?xml version="1.0" encoding="UTF-8" standalone="no"?>
<svg
   xmlns:dc="http://purl.org/dc/elements/1.1/"
   xmlns:cc="http://creativecommons.org/ns#"
   xmlns:rdf="http://www.w3.org/1999/02/22-rdf-syntax-ns#"
   xmlns:svg="http://www.w3.org/2000/svg"
   xmlns="http://www.w3.org/2000/svg"
   xmlns:sodipodi="http://sodipodi.sourceforge.net/DTD/sodipodi-0.dtd"
   xmlns:inkscape="http://www.inkscape.org/namespaces/inkscape"
   id="svg2"
   height="550"
   width="700"
   version="1.2"
   inkscape:version="0.48.1 "
   sodipodi:docname="net_basic_osi.svg">
  <sodipodi:namedview
     pagecolor="#ffffff"
     bordercolor="#666666"
     borderopacity="1"
     objecttolerance="10"
     gridtolerance="10"
     guidetolerance="10"
     inkscape:pageopacity="0"
     inkscape:pageshadow="2"
     inkscape:window-width="1920"
     inkscape:window-height="1033"
     id="namedview51"
     showgrid="false"
     inkscape:zoom="1.1575153"
     inkscape:cx="350"
     inkscape:cy="275"
     inkscape:window-x="-4"
     inkscape:window-y="-4"
     inkscape:window-maximized="1"
     inkscape:current-layer="svg2" />
  <defs
     id="defs4" />
  <metadata
     id="metadata7">
    <rdf:RDF>
      <cc:Work
         rdf:about="">
        <dc:format>image/svg+xml</dc:format>
        <dc:type
           rdf:resource="http://purl.org/dc/dcmitype/StillImage" />
        <dc:title />
      </cc:Work>
    </rdf:RDF>
  </metadata>
  <rect
     width="679.81348"
     height="165.17542"
     rx="10"
     x="10.186552"
     y="109.82458"
     id="rect6978-9-64-0-1-4-0-6-1"
     style="color:#000000;display:inline;overflow:visible;visibility:visible;fill:#dcddde;fill-opacity:1;fill-rule:nonzero;stroke:none;stroke-width:1;marker:none;enable-background:accumulate"
     ry="10" />
  <rect
     width="320"
     height="145"
     rx="5"
     ry="5"
     x="20"
     y="120"
     id="rect6978-9-9-5-0-1-7"
     style="color:#000000;display:inline;overflow:visible;visibility:visible;fill:#00c081;fill-opacity:1;fill-rule:nonzero;stroke:none;stroke-width:1;marker:none;enable-background:accumulate" />
  <rect
     width="320"
     height="45"
     rx="5"
     ry="5"
     x="360"
     y="120"
     id="rect6978-9-9-5-0-1-7-7"
     style="color:#000000;display:inline;overflow:visible;visibility:visible;fill:#00b2e2;fill-opacity:1;fill-rule:nonzero;stroke:none;stroke-width:1;marker:none;enable-background:accumulate" />
  <rect
     width="320"
     height="45"
     rx="5"
     ry="5"
     x="360"
     y="170"
     id="rect6978-9-9-5-0-1-7-7-9"
     style="color:#000000;display:inline;overflow:visible;visibility:visible;fill:#00b2e2;fill-opacity:1;fill-rule:nonzero;stroke:none;stroke-width:1;marker:none;enable-background:accumulate" />
  <rect
     width="320"
     height="45"
     rx="5"
     ry="5"
     x="360"
     y="220"
     id="rect6978-9-9-5-0-1-7-7-9-6"
     style="color:#000000;display:inline;overflow:visible;visibility:visible;fill:#00b2e2;fill-opacity:1;fill-rule:nonzero;stroke:none;stroke-width:1;marker:none;enable-background:accumulate" />
  <rect
     width="680"
     height="65"
     rx="10.001314"
     x="10"
     y="280"
     id="rect6978-9-64-0-1-4-0-6-1-9"
     style="color:#000000;display:inline;overflow:visible;visibility:visible;fill:#dcddde;fill-opacity:1;fill-rule:nonzero;stroke:none;stroke-width:1;marker:none;enable-background:accumulate"
     ry="10" />
  <rect
     width="320"
     height="45"
     rx="5"
     ry="5"
     x="20"
     y="290"
     id="rect6978-9-9-5-0-1-7-7-9-6-2"
     style="color:#000000;display:inline;overflow:visible;visibility:visible;fill:#00c081;fill-opacity:1;fill-rule:nonzero;stroke:none;stroke-width:1;marker:none;enable-background:accumulate" />
  <rect
     width="320"
     height="45"
     rx="5"
     ry="5"
     x="360"
     y="290"
     id="rect6978-9-9-5-0-1-7-7-9-6-0"
     style="color:#000000;display:inline;overflow:visible;visibility:visible;fill:#00b2e2;fill-opacity:1;fill-rule:nonzero;stroke:none;stroke-width:1;marker:none;enable-background:accumulate" />
  <rect
     width="680"
     height="65"
     rx="10.001314"
     x="10"
     y="350"
     id="rect6978-9-64-0-1-4-0-6-1-9-4"
     style="color:#000000;display:inline;overflow:visible;visibility:visible;fill:#dcddde;fill-opacity:1;fill-rule:nonzero;stroke:none;stroke-width:1;marker:none;enable-background:accumulate"
     ry="10" />
  <rect
     width="320"
     height="45"
     rx="5"
     ry="5"
     x="20"
     y="360"
     id="rect6978-9-9-5-0-1-7-7-9-6-2-8"
     style="color:#000000;display:inline;overflow:visible;visibility:visible;fill:#00c081;fill-opacity:1;fill-rule:nonzero;stroke:none;stroke-width:1;marker:none;enable-background:accumulate" />
  <rect
     width="320"
     height="45"
     rx="5"
     ry="5"
     x="360"
     y="360"
     id="rect6978-9-9-5-0-1-7-7-9-6-0-3"
     style="color:#000000;display:inline;overflow:visible;visibility:visible;fill:#00b2e2;fill-opacity:1;fill-rule:nonzero;stroke:none;stroke-width:1;marker:none;enable-background:accumulate" />
  <rect
     width="680"
     height="115"
     rx="10.00515"
     x="10"
     y="425"
     id="rect6978-9-64-0-1-4-0-6-1-3"
     style="color:#000000;display:inline;overflow:visible;visibility:visible;fill:#dcddde;fill-opacity:1;fill-rule:nonzero;stroke:none;stroke-width:1;marker:none;enable-background:accumulate"
     ry="10" />
  <rect
     width="320"
     height="95"
     rx="5"
     ry="5"
     x="20"
     y="435"
     id="rect6978-9-9-5-0-1-7-5"
     style="color:#000000;display:inline;overflow:visible;visibility:visible;fill:#00c081;fill-opacity:1;fill-rule:nonzero;stroke:none;stroke-width:1;marker:none;enable-background:accumulate" />
  <rect
     width="320"
     height="45"
     rx="5"
     ry="5"
     x="360"
     y="435"
     id="rect6978-9-9-5-0-1-7-7-7"
     style="color:#000000;display:inline;overflow:visible;visibility:visible;fill:#00b2e2;fill-opacity:1;fill-rule:nonzero;stroke:none;stroke-width:1;marker:none;enable-background:accumulate" />
  <rect
     width="320"
     height="45"
     rx="5"
     ry="5"
     x="360"
     y="485"
     id="rect6978-9-9-5-0-1-7-7-9-0"
     style="color:#000000;display:inline;overflow:visible;visibility:visible;fill:#00b2e2;fill-opacity:1;fill-rule:nonzero;stroke:none;stroke-width:1;marker:none;enable-background:accumulate" />
  <text
     xml:space="preserve"
     style="font-style:normal;font-variant:normal;font-weight:normal;font-stretch:normal;font-size:40px;line-height:125%;font-family:'Open Sans';-inkscape-font-specification:'Open Sans';letter-spacing:0px;word-spacing:0px;fill:#000000;fill-opacity:1;stroke:none"
     x="-179.99081"
     y="87.715889"
     id="text4080"><tspan
       id="tspan4082"
       x="-179.99081"
       y="87.715889" /></text>
  <g
     style="font-size:22px;font-style:normal;font-weight:normal;line-height:125%;letter-spacing:0px;word-spacing:0px;fill:#000000;fill-opacity:1;stroke:none;font-family:Sans"
     id="text4084">
    <path
       d="m 106.90771,180.52679 14.4375,0 -0.0859,1.46094 c -2e-5,1.43231 -0.40106,2.77866 -1.20313,4.03906 -0.97397,1.60418 -2.17709,2.8073 -3.60937,3.60938 l -1.28907,-1.28906 c 2.52083,-1.3177 3.98176,-3.3802 4.38282,-6.1875 l -12.63282,0 z m 7.73438,3.78125 0,4.89844 c -10e-6,1.66147 -0.4297,3.20834 -1.28906,4.64063 -0.85938,1.54687 -2.20574,2.77864 -4.03907,3.69531 l -1.11718,-1.54688 c 3.15103,-1.54687 4.72655,-3.80989 4.72656,-6.78906 l 0,-4.89844 z"
       style="font-variant:normal;font-stretch:normal;font-family:MS UI Gothic;-inkscape-font-specification:MS UI Gothic"
       id="path3194" />
    <path
       d="m 136.2124,178.20648 c 0.68749,2e-5 1.28905,0.28648 1.80469,0.85938 0.34373,0.40106 0.54425,0.85939 0.60156,1.375 0.0573,0.8021 -0.17189,1.46095 -0.6875,1.97656 -0.45835,0.45835 -1.00262,0.68751 -1.63281,0.6875 l 0,0.42969 c -1e-5,3.26563 -0.91668,6.15886 -2.75,8.67968 -1.77605,2.52084 -4.23959,4.41146 -7.39063,5.67188 l -1.28906,-1.71875 c 2.97916,-0.97396 5.27083,-2.52083 6.875,-4.64063 1.71874,-2.23436 2.57812,-4.89842 2.57813,-7.99218 l -10.74219,0 0,-1.89063 10.3125,0 c -0.11459,-0.22915 -0.17189,-0.54425 -0.17188,-0.94531 -1e-5,-0.63019 0.22916,-1.20311 0.6875,-1.71875 0.57291,-0.45832 1.17447,-0.71613 1.80469,-0.77344 z m 0,3.69531 c 0.34374,2e-5 0.6302,-0.11456 0.85938,-0.34375 0.22915,-0.22915 0.34373,-0.51561 0.34375,-0.85937 -2e-5,-0.34373 -0.1146,-0.63019 -0.34375,-0.85938 -0.22918,-0.22915 -0.51564,-0.37237 -0.85938,-0.42968 -0.34376,1e-5 -0.63022,0.1146 -0.85937,0.34375 -0.28647,0.28647 -0.40106,0.63022 -0.34375,1.03125 0.0573,0.34376 0.17186,0.60157 0.34375,0.77343 0.22915,0.22919 0.51561,0.34377 0.85937,0.34375 z"
       style="font-variant:normal;font-stretch:normal;font-family:MS UI Gothic;-inkscape-font-specification:MS UI Gothic"
       id="path3196" />
    <path
       d="m 150.39209,179.40961 0,9.53906 c -1e-5,2.23438 -0.54428,4.03907 -1.63281,5.41406 -0.91668,1.48959 -2.60678,2.63542 -5.07032,3.4375 l -1.28906,-1.63281 c 2.23437,-0.63021 3.80989,-1.54687 4.72656,-2.75 1.03125,-1.43229 1.54687,-2.92187 1.54688,-4.46875 l 0,-9.53906 z m -7.99219,0.6875 0,9.88281 -1.71875,0 0,-9.88281 z"
       style="font-variant:normal;font-stretch:normal;font-family:MS UI Gothic;-inkscape-font-specification:MS UI Gothic"
       id="path3198" />
    <path
       d="m 168.26709,183.19086 0,1.63281 -4.21094,0 0,3.00781 c -1e-5,2.69272 -0.51563,4.81251 -1.54687,6.35938 -0.85939,1.43229 -2.40626,2.60677 -4.64063,3.52343 l -1.28906,-1.46093 c 2.17708,-0.74479 3.66666,-1.71875 4.46875,-2.92188 0.91666,-1.20312 1.34634,-3.03645 1.28906,-5.5 l 0,-3.00781 -5.15625,0 c -0.57292,2.29168 -1.54688,4.09636 -2.92187,5.41406 l -1.28907,-1.375 c 1.26042,-1.20311 2.09115,-2.66405 2.49219,-4.38281 0.34375,-1.2604 0.48698,-2.97915 0.42969,-5.15625 l 1.89062,0 c 0,1.43231 -0.0859,2.72137 -0.25781,3.86719 z"
       style="font-variant:normal;font-stretch:normal;font-family:MS UI Gothic;-inkscape-font-specification:MS UI Gothic"
       id="path3200" />
    <path
       d="m 185.45459,187.05804 0,1.89063 -14.95313,0 0,-1.89063 z"
       style="font-variant:normal;font-stretch:normal;font-family:MS UI Gothic;-inkscape-font-specification:MS UI Gothic"
       id="path3202" />
    <path
       d="m 192.50146,179.58148 c 1.77604,0.85939 3.26562,1.8047 4.46875,2.83594 l -1.375,1.63281 c -1.20313,-1.14582 -2.60677,-2.11978 -4.21093,-2.92187 z m 6.61719,11.60156 c 1.60416,-1.77603 2.6927,-4.18228 3.26563,-7.21875 l 1.80468,1.375 c -0.80209,3.38022 -2.23439,6.04428 -4.29687,7.99219 -2.06251,2.00521 -4.92709,3.38021 -8.59375,4.125 l -0.60156,-1.89062 c 3.72395,-0.80208 6.53124,-2.26302 8.42187,-4.38282 z m -8.67969,-6.61718 c 1.77604,0.85938 3.23698,1.80469 4.38282,2.83593 l -1.375,1.71875 c -1.31772,-1.20311 -2.69271,-2.20572 -4.125,-3.00781 z"
       style="font-variant:normal;font-stretch:normal;font-family:MS UI Gothic;-inkscape-font-specification:MS UI Gothic"
       id="path3204" />
    <path
       d="m 214.84521,184.65179 0,12.28907 -1.46093,0 0,-0.85938 -7.47657,0 0,-1.375 7.47657,0 0,-3.69531 -7.13282,0 0,-1.375 7.13282,0 0,-3.60938 -7.47657,0 0,-1.375 z"
       style="font-variant:normal;font-stretch:normal;font-family:MS UI Gothic;-inkscape-font-specification:MS UI Gothic"
       id="path3206" />
    <path
       d="m 218.88428,180.61273 c 1.94791,1.08856 3.55207,2.29168 4.8125,3.60938 l -1.46094,1.80468 c -0.97396,-1.2604 -2.49219,-2.57811 -4.55469,-3.95312 z m 7.5625,10.74219 c 1.71874,-1.77604 2.89321,-4.29687 3.52343,-7.5625 l 1.80469,0.94531 c -0.91668,3.66668 -2.34897,6.44532 -4.29687,8.33594 -2.00522,1.94792 -4.95574,3.32292 -8.85157,4.125 l -0.6875,-1.89063 c 3.72396,-0.68749 6.55989,-2.0052 8.50782,-3.95312 z"
       style="font-variant:normal;font-stretch:normal;font-family:MS UI Gothic;-inkscape-font-specification:MS UI Gothic"
       id="path3208" />
    <path
       d="m 242.60303,183.19086 1.03125,1.80468 3.4375,0 0.6875,-1.89062 -10.48438,0 0,7.82031 c 0,2.63542 -0.65886,5.04167 -1.97656,7.21875 l -1.46094,-1.28906 c 1.14583,-1.77604 1.71875,-3.92448 1.71875,-6.44531 l 0,-11.42969 16.32813,0 0,4.125 -3.52344,0 1.11719,0.51562 c 0.22915,0.22918 0.14321,0.37241 -0.25782,0.42969 l -0.51562,0.94531 3.60937,0 0,5.58594 -13.75,0 0,-5.58594 3.26563,0 -0.77344,-1.03125 z m 7.99218,6.35937 0,-1.28906 -4.29687,0 0,1.28906 z m -10.3125,0 4.29688,0 0,-1.28906 -4.29688,0 z m 1.71875,8.67969 -1.71875,0 0,-6.61719 10.57032,0 0,6.35938 -1.71875,0 0,-0.77344 -7.13282,0 z m 7.13282,-2.0625 0,-1.28906 -7.13282,0 0,1.28906 z m -11.85938,-14.4375 12.89063,0 0,-1.375 -12.89063,0 z m 3.00781,5.5 4.29688,0 0,-1.20313 -4.29688,0 z m 6.01563,0 4.29687,0 0,-1.20313 -4.29687,0 z m -4.29688,6.61719 7.13282,0 0,-1.20313 -7.13282,0 z"
       style="font-variant:normal;font-stretch:normal;font-family:MS UI Gothic;-inkscape-font-specification:MS UI Gothic"
       id="path3210" />
  </g>
  <g
     style="font-size:22px;font-style:normal;font-weight:normal;line-height:125%;letter-spacing:0px;word-spacing:0px;fill:#000000;fill-opacity:1;stroke:none;font-family:Sans"
     id="text4084-7">
    <path
       d="m 446.90771,134.60188 14.4375,0 -0.0859,1.46094 c -2e-5,1.4323 -0.40106,2.77866 -1.20313,4.03906 -0.97397,1.60418 -2.17709,2.8073 -3.60937,3.60938 l -1.28907,-1.28906 c 2.52083,-1.3177 3.98176,-3.3802 4.38282,-6.1875 l -12.63282,0 z m 7.73438,3.78125 0,4.89844 c -10e-6,1.66146 -0.4297,3.20834 -1.28906,4.64063 -0.85938,1.54687 -2.20574,2.77864 -4.03907,3.69531 l -1.11718,-1.54688 c 3.15103,-1.54687 4.72655,-3.80989 4.72656,-6.78906 l 0,-4.89844 z"
       style="font-variant:normal;font-stretch:normal;font-family:MS UI Gothic;-inkscape-font-specification:MS UI Gothic"
       id="path3030" />
    <path
       d="m 476.2124,132.28157 c 0.68749,2e-5 1.28905,0.28648 1.80469,0.85938 0.34373,0.40105 0.54425,0.85939 0.60156,1.375 0.0573,0.80209 -0.17189,1.46095 -0.6875,1.97656 -0.45835,0.45834 -1.00262,0.68751 -1.63281,0.6875 l 0,0.42969 c -10e-6,3.26563 -0.91668,6.15886 -2.75,8.67968 -1.77605,2.52084 -4.23959,4.41146 -7.39063,5.67188 l -1.28906,-1.71875 c 2.97916,-0.97396 5.27083,-2.52083 6.875,-4.64063 1.71874,-2.23437 2.57812,-4.89842 2.57813,-7.99218 l -10.74219,0 0,-1.89063 10.3125,0 c -0.11459,-0.22915 -0.17189,-0.54426 -0.17188,-0.94531 -1e-5,-0.63019 0.22916,-1.20311 0.6875,-1.71875 0.57291,-0.45832 1.17447,-0.71613 1.80469,-0.77344 z m 0,3.69531 c 0.34374,2e-5 0.6302,-0.11457 0.85938,-0.34375 0.22915,-0.22915 0.34373,-0.51561 0.34375,-0.85937 -2e-5,-0.34374 -0.1146,-0.63019 -0.34375,-0.85938 -0.22918,-0.22915 -0.51564,-0.37238 -0.85938,-0.42968 -0.34376,1e-5 -0.63022,0.1146 -0.85937,0.34375 -0.28647,0.28647 -0.40106,0.63022 -0.34375,1.03125 0.0573,0.34376 0.17186,0.60157 0.34375,0.77343 0.22915,0.22918 0.51561,0.34377 0.85937,0.34375 z"
       style="font-variant:normal;font-stretch:normal;font-family:MS UI Gothic;-inkscape-font-specification:MS UI Gothic"
       id="path3032" />
    <path
       d="m 490.39209,133.4847 0,9.53906 c -10e-6,2.23438 -0.54428,4.03906 -1.63281,5.41406 -0.91668,1.48958 -2.60678,2.63542 -5.07032,3.4375 l -1.28906,-1.63281 c 2.23437,-0.63021 3.80989,-1.54688 4.72656,-2.75 1.03125,-1.43229 1.54687,-2.92187 1.54688,-4.46875 l 0,-9.53906 z m -7.99219,0.6875 0,9.88281 -1.71875,0 0,-9.88281 z"
       style="font-variant:normal;font-stretch:normal;font-family:MS UI Gothic;-inkscape-font-specification:MS UI Gothic"
       id="path3034" />
    <path
       d="m 508.26709,137.26595 0,1.63281 -4.21094,0 0,3.00781 c -10e-6,2.69271 -0.51563,4.8125 -1.54687,6.35938 -0.85939,1.43229 -2.40626,2.60677 -4.64063,3.52343 l -1.28906,-1.46093 c 2.17708,-0.7448 3.66666,-1.71875 4.46875,-2.92188 0.91666,-1.20312 1.34634,-3.03645 1.28906,-5.5 l 0,-3.00781 -5.15625,0 c -0.57292,2.29167 -1.54688,4.09636 -2.92187,5.41406 l -1.28907,-1.375 c 1.26042,-1.20312 2.09115,-2.66405 2.49219,-4.38281 0.34375,-1.26041 0.48698,-2.97915 0.42969,-5.15625 l 1.89062,0 c 0,1.43231 -0.0859,2.72137 -0.25781,3.86719 z"
       style="font-variant:normal;font-stretch:normal;font-family:MS UI Gothic;-inkscape-font-specification:MS UI Gothic"
       id="path3036" />
    <path
       d="m 525.45459,141.13313 0,1.89063 -14.95313,0 0,-1.89063 z"
       style="font-variant:normal;font-stretch:normal;font-family:MS UI Gothic;-inkscape-font-specification:MS UI Gothic"
       id="path3038" />
    <path
       d="m 532.50146,133.65657 c 1.77604,0.85939 3.26562,1.8047 4.46875,2.83594 l -1.375,1.63281 c -1.20313,-1.14582 -2.60677,-2.11978 -4.21093,-2.92187 z m 6.61719,11.60156 c 1.60416,-1.77603 2.6927,-4.18228 3.26563,-7.21875 l 1.80468,1.375 c -0.80209,3.38022 -2.23439,6.04428 -4.29687,7.99219 -2.06251,2.00521 -4.92709,3.38021 -8.59375,4.125 l -0.60156,-1.89062 c 3.72395,-0.80209 6.53124,-2.26302 8.42187,-4.38282 z m -8.67969,-6.61718 c 1.77604,0.85938 3.23698,1.80469 4.38282,2.83593 l -1.375,1.71875 c -1.31772,-1.20311 -2.69271,-2.20572 -4.125,-3.00781 z"
       style="font-variant:normal;font-stretch:normal;font-family:MS UI Gothic;-inkscape-font-specification:MS UI Gothic"
       id="path3040" />
    <path
       d="m 554.84521,138.72688 0,12.28907 -1.46093,0 0,-0.85938 -7.47657,0 0,-1.375 7.47657,0 0,-3.69531 -7.13282,0 0,-1.375 7.13282,0 0,-3.60938 -7.47657,0 0,-1.375 z"
       style="font-variant:normal;font-stretch:normal;font-family:MS UI Gothic;-inkscape-font-specification:MS UI Gothic"
       id="path3042" />
    <path
       d="m 558.88428,134.68782 c 1.94791,1.08856 3.55207,2.29168 4.8125,3.60938 l -1.46094,1.80468 c -0.97396,-1.2604 -2.49219,-2.57811 -4.55469,-3.95312 z m 7.5625,10.74219 c 1.71874,-1.77604 2.89321,-4.29687 3.52343,-7.5625 l 1.80469,0.94531 c -0.91668,3.66667 -2.34897,6.44532 -4.29687,8.33594 -2.00522,1.94792 -4.95574,3.32291 -8.85157,4.125 l -0.6875,-1.89063 c 3.72396,-0.6875 6.55989,-2.0052 8.50782,-3.95312 z"
       style="font-variant:normal;font-stretch:normal;font-family:MS UI Gothic;-inkscape-font-specification:MS UI Gothic"
       id="path3044" />
    <path
       d="m 582.60303,137.26595 1.03125,1.80468 3.4375,0 0.6875,-1.89062 -10.48438,0 0,7.82031 c 0,2.63542 -0.65886,5.04167 -1.97656,7.21875 l -1.46094,-1.28906 c 1.14583,-1.77604 1.71875,-3.92448 1.71875,-6.44531 l 0,-11.42969 16.32813,0 0,4.125 -3.52344,0 1.11719,0.51562 c 0.22915,0.22918 0.14321,0.37241 -0.25782,0.42969 l -0.51562,0.94531 3.60937,0 0,5.58594 -13.75,0 0,-5.58594 3.26563,0 -0.77344,-1.03125 z m 7.99218,6.35937 0,-1.28906 -4.29687,0 0,1.28906 z m -10.3125,0 4.29688,0 0,-1.28906 -4.29688,0 z m 1.71875,8.67969 -1.71875,0 0,-6.61719 10.57032,0 0,6.35938 -1.71875,0 0,-0.77344 -7.13282,0 z m 7.13282,-2.0625 0,-1.28906 -7.13282,0 0,1.28906 z m -11.85938,-14.4375 12.89063,0 0,-1.375 -12.89063,0 z m 3.00781,5.5 4.29688,0 0,-1.20313 -4.29688,0 z m 6.01563,0 4.29687,0 0,-1.20313 -4.29687,0 z m -4.29688,6.61719 7.13282,0 0,-1.20313 -7.13282,0 z"
       style="font-variant:normal;font-stretch:normal;font-family:MS UI Gothic;-inkscape-font-specification:MS UI Gothic"
       id="path3046" />
  </g>
  <g
     style="font-size:22px;font-style:normal;font-weight:normal;line-height:125%;letter-spacing:0px;word-spacing:0px;fill:#000000;fill-opacity:1;stroke:none;font-family:Sans"
     id="text4084-4">
    <path
       d="m 446.51172,183.9989 c 0.68748,2e-5 1.28905,0.28648 1.80469,0.85938 0.34373,0.40105 0.54425,0.85939 0.60156,1.375 0.0573,0.80209 -0.17189,1.46095 -0.6875,1.97656 -0.45835,0.45835 -1.00262,0.68751 -1.63281,0.6875 l 0,0.42969 c -2e-5,3.26563 -0.91668,6.15886 -2.75,8.67968 -1.77605,2.52084 -4.23959,4.41146 -7.39063,5.67188 l -1.28906,-1.71875 c 2.97916,-0.97396 5.27082,-2.52083 6.875,-4.64063 1.71874,-2.23436 2.57811,-4.89842 2.57812,-7.99218 l -10.74218,0 0,-1.89063 10.3125,0 c -0.1146,-0.22915 -0.17189,-0.54425 -0.17188,-0.94531 -10e-6,-0.63019 0.22916,-1.20311 0.6875,-1.71875 0.57291,-0.45832 1.17447,-0.71613 1.80469,-0.77344 z m 0,3.69531 c 0.34373,2e-5 0.63019,-0.11457 0.85937,-0.34375 0.22916,-0.22915 0.34374,-0.51561 0.34375,-0.85937 -10e-6,-0.34374 -0.11459,-0.63019 -0.34375,-0.85938 -0.22918,-0.22915 -0.51564,-0.37238 -0.85937,-0.42968 -0.34376,1e-5 -0.63022,0.1146 -0.85938,0.34375 -0.28647,0.28647 -0.40105,0.63022 -0.34375,1.03125 0.0573,0.34376 0.17187,0.60157 0.34375,0.77343 0.22916,0.22918 0.51562,0.34377 0.85938,0.34375 z"
       style="font-variant:normal;font-stretch:normal;font-family:MS UI Gothic;-inkscape-font-specification:MS UI Gothic"
       id="path3049" />
    <path
       d="m 460.00391,197.40515 c 1.66144,-1.43228 2.92186,-3.20832 3.78125,-5.32812 l 1.375,1.71875 c -1.03127,2.17709 -2.52085,4.01042 -4.46875,5.5 -2.00522,1.60416 -4.38282,2.80729 -7.13282,3.60937 l -1.11718,-1.54687 0,-16.24219 1.97656,0 0,15.38281 c 2.06249,-0.6302 3.92447,-1.66145 5.58594,-3.09375 z"
       style="font-variant:normal;font-stretch:normal;font-family:MS UI Gothic;-inkscape-font-specification:MS UI Gothic"
       id="path3051" />
    <path
       d="m 483.46484,184.17078 0,3.35156 -1.46093,0 0,-3.35156 z m -2.32031,0 0,3.35156 -1.46094,0 0,-3.35156 z m 0.25781,4.29687 0.85938,1.89063 c -0.97398,2.75001 -2.37762,4.92709 -4.21094,6.53125 l -1.54687,-1.20313 c 2.06248,-1.60416 3.35154,-3.3802 3.86718,-5.32812 l -7.99218,1.54687 0,8.25 c -1e-5,0.6875 0.51561,1.00261 1.54687,0.94531 l 7.73438,0 -0.42969,1.89063 -6.96094,0 c -1.20313,0 -2.06251,-0.17188 -2.57812,-0.51563 -0.68751,-0.51562 -1.03126,-1.28906 -1.03125,-2.32031 l 0,-7.82031 -3.35157,0.60156 -0.34375,-1.71875 3.69532,-0.6875 0,-5.07031 1.71875,0 0,4.72656 z"
       style="font-variant:normal;font-stretch:normal;font-family:MS UI Gothic;-inkscape-font-specification:MS UI Gothic"
       id="path3053" />
    <path
       d="m 486.90234,186.40515 c 1.94792,1.08856 3.55208,2.29168 4.8125,3.60938 l -1.46093,1.80468 c -0.97397,-1.2604 -2.49219,-2.57811 -4.55469,-3.95312 z m 7.5625,10.74219 c 1.71874,-1.77604 2.89322,-4.29687 3.52344,-7.5625 l 1.80469,0.94531 c -0.91668,3.66668 -2.34897,6.44532 -4.29688,8.33594 -2.00521,1.94792 -4.95573,3.32292 -8.85156,4.125 l -0.6875,-1.89063 c 3.72395,-0.68749 6.55989,-2.0052 8.50781,-3.95312 z"
       style="font-variant:normal;font-stretch:normal;font-family:MS UI Gothic;-inkscape-font-specification:MS UI Gothic"
       id="path3055" />
    <path
       d="m 503.91797,185.88953 10.57031,0 0,1.63281 -10.57031,0 z m -2.0625,5.75781 14.86719,0 0,1.89062 -6.10157,0 0,2.83594 c -10e-6,3.4948 -1.57553,5.8724 -4.72656,7.13281 l -1.11719,-1.63281 c 1.54687,-0.51562 2.63541,-1.23177 3.26563,-2.14844 0.57291,-0.85937 0.85937,-1.97655 0.85937,-3.35156 l 0,-2.83594 -7.04687,0 z"
       style="font-variant:normal;font-stretch:normal;font-family:MS UI Gothic;-inkscape-font-specification:MS UI Gothic"
       id="path3057" />
    <path
       d="m 533.73828,192.85046 0,1.89063 -14.95312,0 0,-1.89063 z"
       style="font-variant:normal;font-stretch:normal;font-family:MS UI Gothic;-inkscape-font-specification:MS UI Gothic"
       id="path3059" />
    <path
       d="m 540.78516,185.3739 c 1.77603,0.85939 3.26561,1.8047 4.46875,2.83594 l -1.375,1.63281 c -1.20314,-1.14582 -2.60678,-2.11978 -4.21094,-2.92187 z m 6.61718,11.60156 c 1.60416,-1.77603 2.6927,-4.18228 3.26563,-7.21875 l 1.80469,1.375 c -0.8021,3.38022 -2.23439,6.04428 -4.29688,7.99219 -2.06251,2.00521 -4.92709,3.38021 -8.59375,4.125 l -0.60156,-1.89062 c 3.72395,-0.80209 6.53124,-2.26302 8.42187,-4.38282 z m -8.67968,-6.61718 c 1.77603,0.85938 3.23697,1.80469 4.38281,2.83593 l -1.375,1.71875 c -1.31771,-1.20311 -2.69271,-2.20572 -4.125,-3.00781 z"
       style="font-variant:normal;font-stretch:normal;font-family:MS UI Gothic;-inkscape-font-specification:MS UI Gothic"
       id="path3061" />
    <path
       d="m 563.12891,190.44421 0,12.28907 -1.46094,0 0,-0.85938 -7.47656,0 0,-1.375 7.47656,0 0,-3.69531 -7.13281,0 0,-1.375 7.13281,0 0,-3.60938 -7.47656,0 0,-1.375 z"
       style="font-variant:normal;font-stretch:normal;font-family:MS UI Gothic;-inkscape-font-specification:MS UI Gothic"
       id="path3063" />
    <path
       d="m 567.16797,186.40515 c 1.94791,1.08856 3.55208,2.29168 4.8125,3.60938 l -1.46094,1.80468 c -0.97396,-1.2604 -2.49219,-2.57811 -4.55469,-3.95312 z m 7.5625,10.74219 c 1.71874,-1.77604 2.89321,-4.29687 3.52344,-7.5625 l 1.80468,0.94531 c -0.91668,3.66668 -2.34897,6.44532 -4.29687,8.33594 -2.00522,1.94792 -4.95574,3.32292 -8.85156,4.125 l -0.6875,-1.89063 c 3.72395,-0.68749 6.55988,-2.0052 8.50781,-3.95312 z"
       style="font-variant:normal;font-stretch:normal;font-family:MS UI Gothic;-inkscape-font-specification:MS UI Gothic"
       id="path3065" />
    <path
       d="m 590.88672,188.98328 1.03125,1.80468 3.4375,0 0.6875,-1.89062 -10.48438,0 0,7.82031 c 0,2.63542 -0.65885,5.04167 -1.97656,7.21875 l -1.46094,-1.28906 c 1.14583,-1.77604 1.71875,-3.92448 1.71875,-6.44531 l 0,-11.42969 16.32813,0 0,4.125 -3.52344,0 1.11719,0.51562 c 0.22915,0.22918 0.14321,0.37241 -0.25781,0.42969 l -0.51563,0.94531 3.60938,0 0,5.58594 -13.75,0 0,-5.58594 3.26562,0 -0.77344,-1.03125 z m 7.99219,6.35937 0,-1.28906 -4.29688,0 0,1.28906 z m -10.3125,0 4.29687,0 0,-1.28906 -4.29687,0 z m 1.71875,8.67969 -1.71875,0 0,-6.61719 10.57031,0 0,6.35938 -1.71875,0 0,-0.77344 -7.13281,0 z m 7.13281,-2.0625 0,-1.28906 -7.13281,0 0,1.28906 z m -11.85938,-14.4375 12.89063,0 0,-1.375 -12.89063,0 z m 3.00782,5.5 4.29687,0 0,-1.20313 -4.29687,0 z m 6.01562,0 4.29688,0 0,-1.20313 -4.29688,0 z m -4.29687,6.61719 7.13281,0 0,-1.20313 -7.13281,0 z"
       style="font-variant:normal;font-stretch:normal;font-family:MS UI Gothic;-inkscape-font-specification:MS UI Gothic"
       id="path3067" />
  </g>
  <g
     style="font-size:22px;font-style:normal;font-weight:normal;line-height:125%;letter-spacing:0px;word-spacing:0px;fill:#000000;fill-opacity:1;stroke:none;font-family:Sans"
     id="text4084-6">
    <path
       d="m 483.38135,236.38174 0.85937,1.89063 c -0.97397,2.75001 -2.37762,4.92709 -4.21093,6.53125 l -1.54688,-1.20313 c 2.06249,-1.66145 3.35155,-3.43749 3.86719,-5.32812 l -7.99219,1.63281 0,8.16406 c -1e-5,0.68751 0.51562,1.00261 1.54688,0.94532 l 7.73437,0 -0.42969,1.89062 -6.96093,0 c -1.20314,0 -2.06251,-0.17187 -2.57813,-0.51562 -0.6875,-0.51563 -1.03125,-1.28906 -1.03125,-2.32032 l 0,-7.82031 -3.35156,0.6875 -0.34375,-1.80469 3.69531,-0.6875 0,-5.07031 1.71875,0 0,4.72656 z"
       style="font-variant:normal;font-stretch:normal;font-family:MS UI Gothic;-inkscape-font-specification:MS UI Gothic"
       id="path3070" />
    <path
       d="m 491.9751,237.15518 c 0.80207,1.26043 1.51822,2.66407 2.14844,4.21094 l -1.63282,0.77344 c -0.6875,-1.77604 -1.34636,-3.20833 -1.97656,-4.29688 z m 2.92187,8.42188 c 1.03124,-1.71875 1.51822,-4.23958 1.46094,-7.5625 l 1.63281,0.17187 c -0.0573,3.4948 -0.65886,6.2448 -1.80468,8.25 -1.14585,2.0625 -3.12241,3.72396 -5.92969,4.98438 l -1.11719,-1.46094 c 2.80729,-0.97396 4.72655,-2.43489 5.75781,-4.38281 z m -6.70312,-6.61719 c 0.51562,0.7448 1.20312,2.17709 2.0625,4.29687 l -1.63281,0.77344 c -0.68751,-1.77603 -1.34636,-3.23697 -1.97657,-4.38281 z"
       style="font-variant:normal;font-stretch:normal;font-family:MS UI Gothic;-inkscape-font-specification:MS UI Gothic"
       id="path3072" />
    <path
       d="m 503.92041,233.37393 c 1.77603,0.85939 3.26562,1.8047 4.46875,2.83594 l -1.375,1.63281 c -1.20313,-1.14582 -2.60678,-2.11978 -4.21094,-2.92187 z m 6.61719,11.60156 c 1.60415,-1.77603 2.69269,-4.18228 3.26562,-7.21875 l 1.80469,1.375 c -0.8021,3.38022 -2.23439,6.04428 -4.29687,7.99219 -2.06252,2.00521 -4.9271,3.38021 -8.59375,4.125 l -0.60157,-1.89062 c 3.72395,-0.80208 6.53124,-2.26302 8.42188,-4.38282 z m -8.67969,-6.61718 c 1.77604,0.85938 3.23697,1.80469 4.38281,2.83593 l -1.375,1.71875 c -1.31771,-1.20311 -2.69271,-2.20572 -4.125,-3.00781 z"
       style="font-variant:normal;font-stretch:normal;font-family:MS UI Gothic;-inkscape-font-specification:MS UI Gothic"
       id="path3074" />
    <path
       d="m 526.26416,238.44424 0,12.28907 -1.46094,0 0,-0.85938 -7.47656,0 0,-1.375 7.47656,0 0,-3.69531 -7.13281,0 0,-1.375 7.13281,0 0,-3.60938 -7.47656,0 0,-1.375 z"
       style="font-variant:normal;font-stretch:normal;font-family:MS UI Gothic;-inkscape-font-specification:MS UI Gothic"
       id="path3076" />
    <path
       d="m 530.30322,234.40518 c 1.94791,1.08856 3.55208,2.29168 4.8125,3.60938 l -1.46093,1.80468 c -0.97397,-1.2604 -2.4922,-2.57811 -4.55469,-3.95312 z m 7.5625,10.74219 c 1.71874,-1.77604 2.89322,-4.29687 3.52344,-7.5625 l 1.80469,0.94531 c -0.91668,3.66668 -2.34897,6.44532 -4.29688,8.33594 -2.00522,1.94792 -4.95573,3.32292 -8.85156,4.125 l -0.6875,-1.89063 c 3.72395,-0.68749 6.55989,-2.0052 8.50781,-3.95312 z"
       style="font-variant:normal;font-stretch:normal;font-family:MS UI Gothic;-inkscape-font-specification:MS UI Gothic"
       id="path3078" />
    <path
       d="m 554.02197,236.98331 1.03125,1.80468 3.4375,0 0.6875,-1.89062 -10.48437,0 0,7.82031 c -10e-6,2.63542 -0.65886,5.04167 -1.97656,7.21875 l -1.46094,-1.28906 c 1.14583,-1.77604 1.71874,-3.92448 1.71875,-6.44531 l 0,-11.42969 16.32812,0 0,4.125 -3.52343,0 1.11718,0.51562 c 0.22915,0.22918 0.14321,0.37241 -0.25781,0.42969 l -0.51562,0.94531 3.60937,0 0,5.58594 -13.75,0 0,-5.58594 3.26563,0 -0.77344,-1.03125 z m 7.99219,6.35937 0,-1.28906 -4.29687,0 0,1.28906 z m -10.3125,0 4.29688,0 0,-1.28906 -4.29688,0 z m 1.71875,8.67969 -1.71875,0 0,-6.61719 10.57031,0 0,6.35938 -1.71875,0 0,-0.77344 -7.13281,0 z m 7.13281,-2.0625 0,-1.28906 -7.13281,0 0,1.28906 z m -11.85937,-14.4375 12.89062,0 0,-1.375 -12.89062,0 z m 3.00781,5.5 4.29688,0 0,-1.20313 -4.29688,0 z m 6.01563,0 4.29687,0 0,-1.20313 -4.29687,0 z m -4.29688,6.61719 7.13281,0 0,-1.20313 -7.13281,0 z"
       style="font-variant:normal;font-stretch:normal;font-family:MS UI Gothic;-inkscape-font-specification:MS UI Gothic"
       id="path3080" />
  </g>
  <g
     style="font-size:22px;font-style:normal;font-weight:normal;line-height:125%;letter-spacing:0px;word-spacing:0px;fill:#000000;fill-opacity:1;stroke:none;font-family:Sans"
     id="text4084-5">
    <path
       d="m 453.58502,308.8421 c 3.03645,1.03126 5.58593,2.14845 7.64844,3.35156 l -1.11719,1.89063 c -0.63022,-0.45833 -1.60418,-1.0026 -2.92187,-1.63281 -1.31772,-0.6302 -2.52084,-1.14583 -3.60938,-1.54688 l 0,10.14063 -1.71875,0 0,-18.39063 1.71875,0 z"
       style="font-variant:normal;font-stretch:normal;font-family:MS UI Gothic;-inkscape-font-specification:MS UI Gothic"
       id="path3083" />
    <path
       d="m 464.84283,304.0296 9.79688,0 0,1.63281 -9.79688,0 z m -1.54687,4.8125 12.97656,0 0,1.63281 c -10e-6,2.29168 -0.63022,4.35418 -1.89062,6.1875 -1.4896,2.17709 -3.72397,3.72396 -6.70313,4.64063 l -1.11719,-1.80469 c 2.75,-0.63021 4.78385,-1.89062 6.10157,-3.78125 1.14582,-1.48958 1.69009,-3.23697 1.63281,-5.24219 l -11,0 z"
       style="font-variant:normal;font-stretch:normal;font-family:MS UI Gothic;-inkscape-font-specification:MS UI Gothic"
       id="path3085" />
    <path
       d="m 480.22565,304.11554 c 1.94791,1.08856 3.55207,2.29168 4.8125,3.60937 l -1.46094,1.80469 c -0.97396,-1.2604 -2.49219,-2.57811 -4.55469,-3.95312 z m 7.5625,10.74219 c 1.71873,-1.77604 2.89321,-4.29687 3.52343,-7.5625 l 1.80469,0.94531 c -0.91668,3.66667 -2.34897,6.44532 -4.29687,8.33594 -2.00522,1.94791 -4.95574,3.32291 -8.85157,4.125 l -0.6875,-1.89063 c 3.72396,-0.6875 6.55989,-2.0052 8.50782,-3.95312 z"
       style="font-variant:normal;font-stretch:normal;font-family:MS UI Gothic;-inkscape-font-specification:MS UI Gothic"
       id="path3087" />
    <path
       d="m 506.86627,306.0921 c -10e-6,2.40626 -0.65886,4.72657 -1.97656,6.96094 1.9479,1.83334 3.78123,3.83854 5.5,6.01562 l -1.375,1.63282 c -2.00522,-2.92188 -3.69532,-4.98437 -5.07031,-6.1875 -2.1198,3.03646 -4.78386,5.27083 -7.99219,6.70312 l -1.03125,-1.71875 c 2.92187,-1.20312 5.35676,-3.15104 7.30469,-5.84375 1.83332,-2.46353 2.74999,-4.86978 2.75,-7.21875 l -8.67969,0 0,-1.89062 10.57031,0 0,1.54687 z"
       style="font-variant:normal;font-stretch:normal;font-family:MS UI Gothic;-inkscape-font-specification:MS UI Gothic"
       id="path3089" />
    <path
       d="m 525.34283,301.45148 c 0.74478,-0.0573 1.37499,0.17189 1.89063,0.6875 0.45832,0.40106 0.68748,0.91668 0.6875,1.54687 0.0573,0.68752 -0.14325,1.28908 -0.60156,1.80469 -0.51564,0.57293 -1.11721,0.85939 -1.80469,0.85937 -0.68751,2e-5 -1.26043,-0.22915 -1.71875,-0.6875 -0.45835,-0.45831 -0.71616,-1.05988 -0.77344,-1.80468 0.0573,-0.63019 0.31509,-1.20311 0.77344,-1.71875 0.45832,-0.45832 0.97394,-0.68748 1.54687,-0.6875 z m -1.11718,9.10937 c 1.43227,1.89063 2.6354,4.35417 3.60937,7.39063 l -1.89062,0.94531 c -0.91668,-3.26562 -2.00522,-5.8151 -3.26563,-7.64844 z m -3.60938,-3.69531 6.61719,0 0,1.63281 -6.61719,0 0,12.63281 -1.71875,0 0,-12.63281 -6.61719,0 0,-1.63281 6.61719,0 0,-4.125 1.71875,0 z m -8.50781,11.25781 c 1.48958,-1.71874 2.29166,-4.0677 2.40625,-7.04687 l 1.89062,0.25781 c -0.11458,2.97917 -0.94531,5.61459 -2.49218,7.90625 l -1.80469,-1.11719 z m 13.32031,-13.0625 c 0.34374,2e-5 0.63019,-0.0859 0.85938,-0.25781 0.28644,-0.22915 0.42967,-0.51561 0.42968,-0.85938 -1e-5,-0.40102 -0.11459,-0.71612 -0.34375,-0.94531 -0.22918,-0.22915 -0.51564,-0.34373 -0.85937,-0.34375 -0.34376,2e-5 -0.63022,0.1146 -0.85938,0.34375 -0.28647,0.28648 -0.40105,0.60158 -0.34375,0.94531 0.0573,0.34377 0.17187,0.60158 0.34375,0.77344 0.17187,0.22918 0.42968,0.34377 0.77344,0.34375 z"
       style="font-variant:normal;font-stretch:normal;font-family:MS UI Gothic;-inkscape-font-specification:MS UI Gothic"
       id="path3091" />
    <path
       d="m 545.02252,310.56085 0,1.89063 -14.95312,0 0,-1.89063 z"
       style="font-variant:normal;font-stretch:normal;font-family:MS UI Gothic;-inkscape-font-specification:MS UI Gothic"
       id="path3093" />
    <path
       d="m 553.53033,308.8421 c 3.03645,1.03126 5.58593,2.14845 7.64844,3.35156 l -1.11719,1.89063 c -0.63022,-0.45833 -1.60417,-1.0026 -2.92187,-1.63281 -1.31772,-0.6302 -2.52084,-1.14583 -3.60938,-1.54688 l 0,10.14063 -1.71875,0 0,-18.39063 1.71875,0 z"
       style="font-variant:normal;font-stretch:normal;font-family:MS UI Gothic;-inkscape-font-specification:MS UI Gothic"
       id="path3095" />
    <path
       d="m 572.26471,306.69366 1.03125,1.80469 3.4375,0 0.6875,-1.89062 -10.48438,0 0,7.82031 c 0,2.63542 -0.65885,5.04167 -1.97656,7.21875 l -1.46094,-1.28906 c 1.14584,-1.77604 1.71875,-3.92448 1.71875,-6.44532 l 0,-11.42968 16.32813,0 0,4.125 -3.52344,0 1.11719,0.51562 c 0.22915,0.22918 0.14321,0.37241 -0.25781,0.42969 l -0.51563,0.94531 3.60938,0 0,5.58594 -13.75,0 0,-5.58594 3.26562,0 -0.77344,-1.03125 z m 7.99219,6.35938 0,-1.28906 -4.29688,0 0,1.28906 z m -10.3125,0 4.29687,0 0,-1.28906 -4.29687,0 z m 1.71875,8.67969 -1.71875,0 0,-6.61719 10.57031,0 0,6.35937 -1.71875,0 0,-0.77343 -7.13281,0 z m 7.13281,-2.0625 0,-1.28907 -7.13281,0 0,1.28907 z m -11.85938,-14.4375 12.89063,0 0,-1.375 -12.89063,0 z m 3.00782,5.5 4.29687,0 0,-1.20313 -4.29687,0 z m 6.01562,0 4.29688,0 0,-1.20313 -4.29688,0 z m -4.29687,6.61718 7.13281,0 0,-1.20312 -7.13281,0 z"
       style="font-variant:normal;font-stretch:normal;font-family:MS UI Gothic;-inkscape-font-specification:MS UI Gothic"
       id="path3097" />
  </g>
  <g
     style="font-size:22px;font-style:normal;font-weight:normal;line-height:125%;letter-spacing:0px;word-spacing:0px;fill:#000000;fill-opacity:1;stroke:none;font-family:Sans"
     id="text4084-1">
    <path
       d="m 470.16821,382.42224 c 1.71874,0.91667 3.40884,2.09115 5.07032,3.52344 l -1.375,1.46094 c -1.4896,-1.43229 -3.12241,-2.69271 -4.89844,-3.78125 z m -1.97656,-5.92969 4.21094,0 0,1.89063 c -0.97397,1.48959 -2.37762,3.00782 -4.21094,4.55469 l 0,8.67968 -1.71875,0 0,-7.39062 c -1.83334,1.31771 -3.75261,2.40625 -5.75781,3.26562 l -1.11719,-1.63281 c 2.46354,-1.08854 4.64062,-2.34895 6.53125,-3.78125 1.77603,-1.3177 3.09374,-2.6354 3.95313,-3.95312 l -9.36719,0 0,-1.63282 5.75781,0 0,-3.60937 1.71875,0 z"
       style="font-variant:normal;font-stretch:normal;font-family:MS UI Gothic;-inkscape-font-specification:MS UI Gothic"
       id="path3100" />
    <path
       d="m 482.54321,377.26599 c 0.80208,1.26043 1.51822,2.66407 2.14844,4.21094 l -1.63281,0.77344 c -0.68751,-1.77604 -1.34636,-3.20833 -1.97656,-4.29688 z m 2.92188,8.42188 c 1.03124,-1.71875 1.51822,-4.23958 1.46094,-7.5625 l 1.63281,0.17187 c -0.0573,3.4948 -0.65887,6.2448 -1.80469,8.25 -1.14584,2.0625 -3.1224,3.72396 -5.92969,4.98438 l -1.11718,-1.46094 c 2.80728,-0.97396 4.72655,-2.43489 5.75781,-4.38281 z m -6.70313,-6.61719 c 0.51562,0.7448 1.20312,2.17709 2.0625,4.29687 l -1.63281,0.77344 c -0.6875,-1.77603 -1.34636,-3.23697 -1.97656,-4.38281 z"
       style="font-variant:normal;font-stretch:normal;font-family:MS UI Gothic;-inkscape-font-specification:MS UI Gothic"
       id="path3102" />
    <path
       d="m 495.94946,379.24255 c 3.03645,1.03126 5.58593,2.14845 7.64844,3.35157 l -1.11719,1.89062 c -0.63022,-0.45833 -1.60418,-1.0026 -2.92187,-1.63281 -1.31772,-0.6302 -2.52084,-1.14583 -3.60938,-1.54688 l 0,10.14063 -1.71875,0 0,-18.39063 1.71875,0 z"
       style="font-variant:normal;font-stretch:normal;font-family:MS UI Gothic;-inkscape-font-specification:MS UI Gothic"
       id="path3104" />
    <path
       d="m 519.23853,374.51599 0,5.67188 c -2e-5,2.92188 -0.68752,5.29948 -2.0625,7.13281 -1.03127,1.54687 -2.75001,2.89323 -5.15625,4.03906 l -1.20313,-1.80469 c 2.40624,-0.91666 4.15364,-2.17708 5.24219,-3.78125 0.97394,-1.43228 1.46092,-3.29426 1.46094,-5.58593 l 0,-3.78125 -9.10938,0 0,6.44531 -1.71875,0 0,-8.33594 z"
       style="font-variant:normal;font-stretch:normal;font-family:MS UI Gothic;-inkscape-font-specification:MS UI Gothic"
       id="path3106" />
    <path
       d="m 537.54321,380.9613 0,1.89063 -14.95312,0 0,-1.89063 z"
       style="font-variant:normal;font-stretch:normal;font-family:MS UI Gothic;-inkscape-font-specification:MS UI Gothic"
       id="path3108" />
    <path
       d="m 553.01196,375.71912 0,2.83593 c -1e-5,3.26564 -0.85939,6.04428 -2.57812,8.33594 -1.4896,2.11979 -3.63803,3.69531 -6.44531,4.72656 l -1.375,-1.63281 c 2.92186,-1.03125 5.09895,-2.46354 6.53125,-4.29687 1.43228,-1.89062 2.14842,-4.26822 2.14843,-7.13282 l 0,-1.20312 -6.70312,0 c -0.45834,2.75001 -1.48959,4.92709 -3.09375,6.53125 l -1.375,-1.375 c 1.20312,-1.14583 2.0052,-2.49218 2.40625,-4.03906 0.34374,-1.3177 0.48697,-3.06509 0.42969,-5.24219 l 1.89062,0 c -10e-6,0.91668 -0.0286,1.74741 -0.0859,2.49219 z"
       style="font-variant:normal;font-stretch:normal;font-family:MS UI Gothic;-inkscape-font-specification:MS UI Gothic"
       id="path3110" />
    <path
       d="m 564.44165,377.09412 1.03125,1.80468 3.4375,0 0.6875,-1.89062 -10.48437,0 0,7.82031 c -10e-6,2.63542 -0.65886,5.04167 -1.97657,7.21875 l -1.46093,-1.28906 c 1.14583,-1.77604 1.71874,-3.92448 1.71875,-6.44531 l 0,-11.42969 16.32812,0 0,4.125 -3.52344,0 1.11719,0.51562 c 0.22915,0.22918 0.14321,0.37241 -0.25781,0.42969 l -0.51563,0.94531 3.60938,0 0,5.58594 -13.75,0 0,-5.58594 3.26562,0 -0.77343,-1.03125 z m 7.99219,6.35937 0,-1.28906 -4.29688,0 0,1.28906 z m -10.3125,0 4.29687,0 0,-1.28906 -4.29687,0 z m 1.71875,8.67969 -1.71875,0 0,-6.61719 10.57031,0 0,6.35938 -1.71875,0 0,-0.77344 -7.13281,0 z m 7.13281,-2.0625 0,-1.28906 -7.13281,0 0,1.28906 z m -11.85937,-14.4375 12.89062,0 0,-1.375 -12.89062,0 z m 3.00781,5.5 4.29687,0 0,-1.20313 -4.29687,0 z m 6.01562,0 4.29688,0 0,-1.20313 -4.29688,0 z m -4.29687,6.61719 7.13281,0 0,-1.20313 -7.13281,0 z"
       style="font-variant:normal;font-stretch:normal;font-family:MS UI Gothic;-inkscape-font-specification:MS UI Gothic"
       id="path3112" />
  </g>
  <g
     style="font-size:22px;font-style:normal;font-weight:normal;line-height:125%;letter-spacing:0px;word-spacing:0px;fill:#000000;fill-opacity:1;stroke:none;font-family:Sans"
     id="text4084-8">
    <path
       d="m 477.38214,447.30103 0,3.35156 -1.46094,0 0,-3.35156 z m -2.32031,0 0,3.35156 -1.46094,0 0,-3.35156 z m -11.60156,1.80468 9.45312,0 0,1.63282 -9.45312,0 z m -2.0625,5.75782 14.86718,0 0,1.89062 -6.10156,0 0,2.83594 c -10e-6,3.49479 -1.57553,5.87239 -4.72656,7.13281 l -1.11719,-1.63281 c 1.54687,-0.45833 2.63541,-1.17448 3.26563,-2.14844 0.5729,-0.85937 0.85936,-1.97656 0.85937,-3.35156 l 0,-2.83594 -7.04687,0 z"
       style="font-variant:normal;font-stretch:normal;font-family:MS UI Gothic;-inkscape-font-specification:MS UI Gothic"
       id="path3115" />
    <path
       d="m 494.39777,455.98071 0,1.89063 -14.95313,0 0,-1.89063 z"
       style="font-variant:normal;font-stretch:normal;font-family:MS UI Gothic;-inkscape-font-specification:MS UI Gothic"
       id="path3117" />
    <path
       d="m 509.09308,452.9729 c -10e-6,2.40626 -0.45835,4.58334 -1.375,6.53125 0.68749,0.51563 1.2604,1.00261 1.71875,1.46094 l -1.28906,1.71875 c -0.22918,-0.28646 -0.65887,-0.71614 -1.28907,-1.28906 -1.60417,2.52083 -3.8099,4.29687 -6.61718,5.32812 l -1.28907,-1.46094 c 2.86458,-1.14583 5.01302,-2.86458 6.44532,-5.15625 -1.77605,-1.54687 -3.15105,-2.60676 -4.125,-3.17968 l 0.85937,-1.375 c 1.14583,0.6875 2.54947,1.63282 4.21094,2.83593 0.68749,-1.60416 1.03124,-3.40884 1.03125,-5.41406 l 0,-0.60156 -5.58594,0 c -0.63021,2.8073 -1.80469,5.01303 -3.52344,6.61719 l -1.375,-1.28907 c 2.34896,-2.17707 3.49479,-5.35676 3.4375,-9.53906 l 1.97657,0 c -10e-6,0.91668 -0.0573,1.77606 -0.17188,2.57813 l 6.96094,0 0,2.23437 z"
       style="font-variant:normal;font-stretch:normal;font-family:MS UI Gothic;-inkscape-font-specification:MS UI Gothic"
       id="path3119" />
    <path
       d="m 522.6712,448.33228 0,9.53906 c -10e-6,2.23438 -0.54428,4.03906 -1.63281,5.41406 -0.91667,1.48958 -2.60678,2.63542 -5.07031,3.4375 l -1.28906,-1.63281 c 2.23437,-0.63021 3.80988,-1.54688 4.72656,-2.75 1.03124,-1.43229 1.54686,-2.92187 1.54687,-4.46875 l 0,-9.53906 z m -7.99218,0.6875 0,9.88281 -1.71875,0 0,-9.88281 z"
       style="font-variant:normal;font-stretch:normal;font-family:MS UI Gothic;-inkscape-font-specification:MS UI Gothic"
       id="path3121" />
    <path
       d="m 526.88214,449.5354 c 1.94791,1.08856 3.55208,2.29168 4.8125,3.60938 l -1.46094,1.80468 c -0.97396,-1.2604 -2.49219,-2.57811 -4.55468,-3.95312 z m 7.5625,10.74219 c 1.71874,-1.77604 2.89322,-4.29687 3.52344,-7.5625 l 1.80469,0.94531 c -0.91669,3.66667 -2.34898,6.44532 -4.29688,8.33594 -2.00522,1.94792 -4.95573,3.32291 -8.85156,4.125 l -0.6875,-1.89063 c 3.72395,-0.6875 6.55989,-2.0052 8.50781,-3.95312 z"
       style="font-variant:normal;font-stretch:normal;font-family:MS UI Gothic;-inkscape-font-specification:MS UI Gothic"
       id="path3123" />
    <path
       d="m 554.38214,450.73853 0,2.83593 c -1e-5,3.26564 -0.85939,6.04428 -2.57812,8.33594 -1.4896,2.11979 -3.63803,3.69531 -6.44532,4.72656 l -1.375,-1.63281 c 2.92187,-1.03125 5.09895,-2.46354 6.53125,-4.29687 1.43228,-1.89062 2.14843,-4.26823 2.14844,-7.13282 l 0,-1.20312 -6.70312,0 c -0.45834,2.75001 -1.48959,4.92709 -3.09375,6.53125 l -1.375,-1.375 c 1.20312,-1.14583 2.0052,-2.49218 2.40625,-4.03906 0.34374,-1.3177 0.48697,-3.06509 0.42968,-5.24219 l 1.89063,0 c -10e-6,0.91668 -0.0286,1.74741 -0.0859,2.49219 z"
       style="font-variant:normal;font-stretch:normal;font-family:MS UI Gothic;-inkscape-font-specification:MS UI Gothic"
       id="path3125" />
    <path
       d="m 565.81183,452.11353 1.03125,1.80468 3.4375,0 0.6875,-1.89062 -10.48438,0 0,7.82031 c 0,2.63542 -0.65885,5.04167 -1.97656,7.21875 l -1.46094,-1.28906 c 1.14583,-1.77604 1.71875,-3.92448 1.71875,-6.44531 l 0,-11.42969 16.32813,0 0,4.125 -3.52344,0 1.11719,0.51562 c 0.22915,0.22918 0.14321,0.37241 -0.25781,0.42969 l -0.51563,0.94531 3.60938,0 0,5.58594 -13.75,0 0,-5.58594 3.26562,0 -0.77344,-1.03125 z m 7.99219,6.35937 0,-1.28906 -4.29688,0 0,1.28906 z m -10.3125,0 4.29687,0 0,-1.28906 -4.29687,0 z m 1.71875,8.67969 -1.71875,0 0,-6.61719 10.57031,0 0,6.35938 -1.71875,0 0,-0.77344 -7.13281,0 z m 7.13281,-2.0625 0,-1.28906 -7.13281,0 0,1.28906 z m -11.85938,-14.4375 12.89063,0 0,-1.375 -12.89063,0 z m 3.00782,5.5 4.29687,0 0,-1.20313 -4.29687,0 z m 6.01562,0 4.29688,0 0,-1.20313 -4.29688,0 z m -4.29687,6.61719 7.13281,0 0,-1.20313 -7.13281,0 z"
       style="font-variant:normal;font-stretch:normal;font-family:MS UI Gothic;-inkscape-font-specification:MS UI Gothic"
       id="path3127" />
  </g>
  <g
     style="font-size:22px;font-style:normal;font-weight:normal;line-height:125%;letter-spacing:0px;word-spacing:0px;fill:#000000;fill-opacity:1;stroke:none;font-family:Sans"
     id="text4084-12">
    <path
       d="m 492.65753,501.68579 1.375,0 0,-4.38281 1.63281,0 c 0.45833,0.0573 0.48698,0.22918 0.0859,0.51562 l 0,3.86719 2.40625,0 0,1.63281 -2.40625,0 0,4.72657 2.23438,-0.85938 0.42968,1.46094 -2.66406,1.11719 0,7.39062 -1.71875,0 0,-6.78906 -2.66406,0.85937 c -0.0573,0.40105 -0.20052,0.48699 -0.42969,0.25782 l -0.60156,-1.89063 3.69531,-1.03125 0,-5.24219 -1.46094,0 c -0.11458,1.08856 -0.34375,2.14845 -0.6875,3.17969 l -1.63281,-0.60156 c 0.6875,-2.0052 1.03125,-4.21093 1.03125,-6.61719 l 1.71875,0.25781 c 0.17187,0.17189 0.11458,0.34377 -0.17187,0.51563 z m 16.75781,-0.17187 -0.0859,10.57031 c -2e-5,3.03646 -0.8594,4.55468 -2.57813,4.55469 l -2.49219,0 -0.34375,-1.89063 2.14844,0 c 1.03123,0.11458 1.54686,-0.77344 1.54688,-2.66406 l 0.0859,-8.9375 -0.94531,0 c 0.0573,5.04167 -2.43491,9.68229 -7.47656,13.92187 l -1.11719,-1.54687 c 4.23957,-3.15104 6.55988,-7.27604 6.96094,-12.375 l -1.375,0 c -0.22918,3.4948 -1.97658,6.58855 -5.24219,9.28125 l -1.20312,-1.46094 c 2.86457,-2.23437 4.46873,-4.84114 4.8125,-7.82031 l -1.375,0 c -0.63022,1.54688 -1.43231,2.86459 -2.40625,3.95312 l -1.46094,-1.03125 c 2.0052,-2.46353 3.23697,-5.29946 3.69531,-8.50781 l 1.80469,0.34375 c 0.22915,0.22918 0.14321,0.37241 -0.25781,0.42969 -0.17189,0.97397 -0.4297,2.03387 -0.77344,3.17969 z"
       style="font-variant:normal;font-stretch:normal;font-family:MS UI Gothic;-inkscape-font-specification:MS UI Gothic"
       id="path3130" />
    <path
       d="m 519.55597,511.82642 c -2.23438,0.80208 -4.32553,1.46094 -6.27344,1.97656 -0.17188,0.45833 -0.34375,0.54427 -0.51562,0.25781 l -0.60157,-1.97656 3.00782,-0.60156 0,-4.72657 -2.32032,0 0,-1.63281 2.32032,0 0,-4.55469 -2.57813,0 0,-1.63281 6.875,0 0,1.63281 -2.57812,0 0,4.55469 2.32031,0 0,1.63281 -2.32031,0 0,4.29688 c 0.45832,-0.0573 1.28905,-0.28646 2.49218,-0.6875 z m 6.78906,-4.03907 0,2.49219 4.8125,0 0,1.63281 -4.8125,0 0,2.66407 5.67188,0 0,1.63281 -13.66407,0 0,-1.63281 6.53125,0 0,-2.66407 -4.64062,0 0,-1.63281 4.64062,0 0,-2.49219 -3.09375,0 0,1.11719 -1.46093,0 0,-10.57031 10.65625,0 0,10.22656 -1.46094,0 0,-0.77344 z m 3.17969,-3.95312 -3.17969,0 0,2.57812 3.17969,0 z m 0,-4.125 -3.17969,0 0,2.75 3.17969,0 z m -4.64063,2.75 0,-2.75 -3.09375,0 0,2.75 z m 0,1.375 -3.09375,0 0,2.57812 3.09375,0 z"
       style="font-variant:normal;font-stretch:normal;font-family:MS UI Gothic;-inkscape-font-specification:MS UI Gothic"
       id="path3132" />
    <path
       d="m 543.10284,502.11548 1.03125,1.80469 3.4375,0 0.6875,-1.89063 -10.48437,0 0,7.82031 c -10e-6,2.63542 -0.65886,5.04167 -1.97656,7.21875 l -1.46094,-1.28906 c 1.14583,-1.77604 1.71875,-3.92447 1.71875,-6.44531 l 0,-11.42969 16.32812,0 0,4.125 -3.52343,0 1.11718,0.51563 c 0.22915,0.22918 0.14322,0.3724 -0.25781,0.42968 l -0.51562,0.94532 3.60937,0 0,5.58593 -13.75,0 0,-5.58593 3.26563,0 -0.77344,-1.03125 z m 7.99219,6.35937 0,-1.28906 -4.29687,0 0,1.28906 z m -10.3125,0 4.29688,0 0,-1.28906 -4.29688,0 z m 1.71875,8.67969 -1.71875,0 0,-6.61719 10.57031,0 0,6.35938 -1.71875,0 0,-0.77344 -7.13281,0 z m 7.13281,-2.0625 0,-1.28906 -7.13281,0 0,1.28906 z m -11.85937,-14.4375 12.89062,0 0,-1.375 -12.89062,0 z m 3.00781,5.5 4.29688,0 0,-1.20312 -4.29688,0 z m 6.01563,0 4.29687,0 0,-1.20312 -4.29687,0 z m -4.29688,6.61719 7.13281,0 0,-1.20313 -7.13281,0 z"
       style="font-variant:normal;font-stretch:normal;font-family:MS UI Gothic;-inkscape-font-specification:MS UI Gothic"
       id="path3134" />
  </g>
  <g
     style="font-size:22px;font-style:normal;font-weight:normal;line-height:125%;letter-spacing:0px;word-spacing:0px;fill:#000000;fill-opacity:1;stroke:none;font-family:Sans"
     id="text4084-85">
    <path
       d="m 105.16146,478.46399 c 1.71874,0.91667 3.40884,2.09115 5.07031,3.52344 l -1.375,1.46093 c -1.48959,-1.43228 -3.1224,-2.6927 -4.89843,-3.78125 z m -1.97656,-5.92969 4.21094,0 0,1.89063 c -0.97398,1.48959 -2.37762,3.00782 -4.21094,4.55468 l 0,8.67969 -1.71875,0 0,-7.39062 c -1.833341,1.31771 -3.75261,2.40625 -5.757814,3.26562 l -1.117188,-1.63281 c 2.463538,-1.08854 4.64062,-2.34895 6.531252,-3.78125 1.77603,-1.3177 3.09374,-2.63541 3.95312,-3.95313 l -9.367184,0 0,-1.63281 5.757814,0 0,-3.60937 1.71875,0 z"
       style="font-variant:normal;font-stretch:normal;font-family:MS UI Gothic;-inkscape-font-specification:MS UI Gothic"
       id="path3137" />
    <path
       d="m 117.53646,473.30774 c 0.80208,1.26043 1.51822,2.66407 2.14844,4.21094 l -1.63281,0.77343 c -0.68751,-1.77603 -1.34636,-3.20832 -1.97657,-4.29687 z m 2.92188,8.42187 c 1.03124,-1.71874 1.51821,-4.23957 1.46093,-7.5625 l 1.63282,0.17188 c -0.0573,3.4948 -0.65887,6.2448 -1.80469,8.25 -1.14584,2.0625 -3.1224,3.72396 -5.92969,4.98437 l -1.11719,-1.46093 c 2.80729,-0.97396 4.72656,-2.4349 5.75782,-4.38282 z m -6.70313,-6.61718 c 0.51562,0.7448 1.20312,2.17709 2.0625,4.29687 l -1.63281,0.77344 c -0.6875,-1.77603 -1.34636,-3.23697 -1.97656,-4.38281 z"
       style="font-variant:normal;font-stretch:normal;font-family:MS UI Gothic;-inkscape-font-specification:MS UI Gothic"
       id="path3139" />
    <path
       d="m 130.94271,475.2843 c 3.03645,1.03126 5.58593,2.14845 7.64844,3.35156 l -1.11719,1.89063 c -0.63022,-0.45833 -1.60418,-1.0026 -2.92187,-1.63281 -1.31772,-0.6302 -2.52085,-1.14583 -3.60938,-1.54688 l 0,10.14063 -1.71875,0 0,-18.39063 1.71875,0 z"
       style="font-variant:normal;font-stretch:normal;font-family:MS UI Gothic;-inkscape-font-specification:MS UI Gothic"
       id="path3141" />
    <path
       d="m 154.23177,470.55774 0,5.67187 c -1e-5,2.92189 -0.68751,5.29949 -2.0625,7.13282 -1.03126,1.54687 -2.75001,2.89323 -5.15625,4.03906 l -1.20312,-1.80469 c 2.40624,-0.91666 4.15363,-2.17708 5.24219,-3.78125 0.97394,-1.43228 1.46092,-3.29426 1.46093,-5.58594 l 0,-3.78125 -9.10937,0 0,6.44532 -1.71875,0 0,-8.33594 z"
       style="font-variant:normal;font-stretch:normal;font-family:MS UI Gothic;-inkscape-font-specification:MS UI Gothic"
       id="path3143" />
    <path
       d="m 172.53646,477.00305 0,1.89063 -14.95312,0 0,-1.89063 z"
       style="font-variant:normal;font-stretch:normal;font-family:MS UI Gothic;-inkscape-font-specification:MS UI Gothic"
       id="path3145" />
    <path
       d="m 188.00521,471.76086 0,2.83594 c -1e-5,3.26564 -0.85939,6.04428 -2.57812,8.33594 -1.4896,2.11979 -3.63803,3.69531 -6.44532,4.72656 l -1.375,-1.63281 c 2.92187,-1.03125 5.09895,-2.46354 6.53125,-4.29688 1.43228,-1.89061 2.14843,-4.26822 2.14844,-7.13281 l 0,-1.20312 -6.70312,0 c -0.45834,2.75001 -1.48959,4.92709 -3.09375,6.53125 l -1.375,-1.375 c 1.20312,-1.14583 2.0052,-2.49218 2.40625,-4.03907 0.34374,-1.31769 0.48697,-3.06509 0.42968,-5.24218 l 1.89063,0 c -1e-5,0.91668 -0.0286,1.74741 -0.0859,2.49218 z"
       style="font-variant:normal;font-stretch:normal;font-family:MS UI Gothic;-inkscape-font-specification:MS UI Gothic"
       id="path3147" />
    <path
       d="m 190.4974,470.4718 14.4375,0 -0.0859,1.46094 c -1e-5,1.4323 -0.40106,2.77866 -1.20312,4.03906 -0.97398,1.60418 -2.1771,2.8073 -3.60938,3.60938 l -1.28906,-1.28907 c 2.52082,-1.31769 3.98176,-3.38019 4.38281,-6.1875 l -12.63281,0 z m 7.73437,3.78125 0,4.89844 c -1e-5,1.66146 -0.42969,3.20834 -1.28906,4.64062 -0.85938,1.54688 -2.20573,2.77865 -4.03906,3.69532 l -1.11719,-1.54688 c 3.15104,-1.54687 4.72656,-3.80989 4.72656,-6.78906 l 0,-4.89844 z"
       style="font-variant:normal;font-stretch:normal;font-family:MS UI Gothic;-inkscape-font-specification:MS UI Gothic"
       id="path3149" />
    <path
       d="m 219.80209,471.76086 0,2.83594 c -2e-5,3.26564 -0.85939,6.04428 -2.57813,8.33594 -1.48959,2.11979 -3.63803,3.69531 -6.44531,4.72656 l -1.375,-1.63281 c 2.92187,-1.03125 5.09895,-2.46354 6.53125,-4.29688 1.43228,-1.89061 2.14842,-4.26822 2.14844,-7.13281 l 0,-1.20312 -6.70313,0 c -0.45834,2.75001 -1.48959,4.92709 -3.09375,6.53125 l -1.375,-1.375 c 1.20312,-1.14583 2.00521,-2.49218 2.40625,-4.03907 0.34375,-1.31769 0.48698,-3.06509 0.42969,-5.24218 l 1.89062,0 c 0,0.91668 -0.0286,1.74741 -0.0859,2.49218 z"
       style="font-variant:normal;font-stretch:normal;font-family:MS UI Gothic;-inkscape-font-specification:MS UI Gothic"
       id="path3151" />
    <path
       d="m 236.73177,472.5343 0.85938,1.89063 c -0.97398,2.75001 -2.37762,4.92709 -4.21094,6.53125 l -1.54687,-1.20313 c 2.06248,-1.66145 3.35154,-3.43749 3.86718,-5.32812 l -7.99218,1.63281 0,8.16406 c -1e-5,0.6875 0.51561,1.00261 1.54687,0.94531 l 7.73438,0 -0.42969,1.89063 -6.96094,0 c -1.20313,0 -2.06251,-0.17188 -2.57812,-0.51563 -0.68751,-0.51562 -1.03126,-1.28906 -1.03125,-2.32031 l 0,-7.82031 -3.35157,0.6875 -0.34375,-1.80469 3.69532,-0.6875 0,-5.07031 1.71875,0 0,4.72656 z"
       style="font-variant:normal;font-stretch:normal;font-family:MS UI Gothic;-inkscape-font-specification:MS UI Gothic"
       id="path3153" />
    <path
       d="m 252.11459,472.5343 c -2e-5,2.40626 -0.65887,4.72657 -1.97657,6.96094 1.94791,1.83334 3.78124,3.83854 5.5,6.01562 l -1.375,1.63282 c -2.00522,-2.92188 -3.69532,-4.98437 -5.07031,-6.1875 -2.1198,3.03646 -4.78386,5.27083 -7.99219,6.70312 l -1.03125,-1.71875 c 2.92187,-1.20312 5.35677,-3.15104 7.30469,-5.84375 1.83332,-2.46353 2.74999,-4.86978 2.75,-7.21875 l -8.67969,0 0,-1.89062 10.57032,0 0,1.54687 z"
       style="font-variant:normal;font-stretch:normal;font-family:MS UI Gothic;-inkscape-font-specification:MS UI Gothic"
       id="path3155" />
    <path
       d="m 266.03646,473.13586 1.03125,1.80469 3.4375,0 0.6875,-1.89062 -10.48437,0 0,7.82031 c -1e-5,2.63542 -0.65886,5.04167 -1.97657,7.21875 l -1.46093,-1.28906 c 1.14583,-1.77604 1.71874,-3.92448 1.71875,-6.44532 l 0,-11.42968 16.32812,0 0,4.125 -3.52344,0 1.11719,0.51562 c 0.22915,0.22918 0.14321,0.37241 -0.25781,0.42969 l -0.51563,0.94531 3.60938,0 0,5.58594 -13.75,0 0,-5.58594 3.26562,0 -0.77343,-1.03125 z m 7.99219,6.35938 0,-1.28906 -4.29688,0 0,1.28906 z m -10.3125,0 4.29687,0 0,-1.28906 -4.29687,0 z m 1.71875,8.67969 -1.71875,0 0,-6.61719 10.57031,0 0,6.35937 -1.71875,0 0,-0.77343 -7.13281,0 z m 7.13281,-2.0625 0,-1.28907 -7.13281,0 0,1.28907 z m -11.85937,-14.4375 12.89062,0 0,-1.375 -12.89062,0 z m 3.00781,5.5 4.29687,0 0,-1.20313 -4.29687,0 z m 6.01562,0 4.29688,0 0,-1.20313 -4.29688,0 z m -4.29687,6.61718 7.13281,0 0,-1.20312 -7.13281,0 z"
       style="font-variant:normal;font-stretch:normal;font-family:MS UI Gothic;-inkscape-font-specification:MS UI Gothic"
       id="path3157" />
  </g>
  <g
     style="font-size:22px;font-style:normal;font-weight:normal;line-height:125%;letter-spacing:0px;word-spacing:0px;fill:#000000;fill-opacity:1;stroke:none;font-family:Sans"
     id="text4084-0">
    <path
       d="m 120.46069,378.06412 c 2.11978,-1.83332 3.6953,-3.72395 4.72656,-5.67188 l 1.80469,1.11719 c -0.91668,1.54689 -2.23439,3.12241 -3.95313,4.72656 l 0,12.71875 -1.71875,0 0,-11 c -2.17709,1.94793 -4.29688,3.40886 -6.35937,4.38281 l -1.11719,-1.71875 c 2.40625,-1.20311 4.61197,-2.72134 6.61719,-4.55468 z"
       style="font-variant:normal;font-stretch:normal;font-family:MS UI Gothic;-inkscape-font-specification:MS UI Gothic"
       id="path3160" />
    <path
       d="m 131.7185,373.93912 c 1.94791,1.08855 3.55208,2.29168 4.8125,3.60937 l -1.46094,1.80469 c -0.97396,-1.26041 -2.49219,-2.57811 -4.55469,-3.95313 z m 7.5625,10.74218 c 1.71874,-1.77603 2.89321,-4.29686 3.52344,-7.5625 l 1.80468,0.94532 c -0.91668,3.66667 -2.34897,6.44532 -4.29687,8.33593 -2.00522,1.94792 -4.95574,3.32292 -8.85156,4.125 l -0.6875,-1.89062 c 3.72395,-0.6875 6.55988,-2.00521 8.50781,-3.95313 z"
       style="font-variant:normal;font-stretch:normal;font-family:MS UI Gothic;-inkscape-font-specification:MS UI Gothic"
       id="path3162" />
    <path
       d="m 158.44506,377.37662 c -1e-5,2.40626 -0.45835,4.58334 -1.375,6.53125 0.68749,0.51563 1.2604,1.00261 1.71875,1.46093 l -1.28906,1.71875 c -0.22918,-0.28645 -0.65887,-0.71614 -1.28906,-1.28906 -1.60418,2.52084 -3.80991,4.29688 -6.61719,5.32813 l -1.28906,-1.46094 c 2.86457,-1.14583 5.01301,-2.86458 6.44531,-5.15625 -1.77605,-1.54687 -3.15105,-2.60676 -4.125,-3.17969 l 0.85937,-1.375 c 1.14583,0.68751 2.54947,1.63282 4.21094,2.83594 0.68749,-1.60416 1.03124,-3.40884 1.03125,-5.41406 l 0,-0.60157 -5.58594,0 c -0.63021,2.80731 -1.80469,5.01303 -3.52343,6.61719 l -1.375,-1.28906 c 2.34895,-2.17707 3.49478,-5.35676 3.4375,-9.53906 l 1.97656,0 c -1e-5,0.91668 -0.0573,1.77605 -0.17188,2.57812 l 6.96094,0 0,2.23438 z"
       style="font-variant:normal;font-stretch:normal;font-family:MS UI Gothic;-inkscape-font-specification:MS UI Gothic"
       id="path3164" />
    <path
       d="m 176.92162,380.38443 0,1.89062 -14.95312,0 0,-1.89062 z"
       style="font-variant:normal;font-stretch:normal;font-family:MS UI Gothic;-inkscape-font-specification:MS UI Gothic"
       id="path3166" />
    <path
       d="m 190.32787,381.84537 c 1.71874,0.91667 3.40884,2.09115 5.07032,3.52343 l -1.375,1.46094 c -1.4896,-1.43229 -3.12241,-2.6927 -4.89844,-3.78125 z m -1.97656,-5.92969 4.21094,0 0,1.89062 c -0.97397,1.4896 -2.37762,3.00783 -4.21094,4.55469 l 0,8.67969 -1.71875,0 0,-7.39063 c -1.83334,1.31772 -3.75261,2.40626 -5.75781,3.26563 l -1.11719,-1.63281 c 2.46354,-1.08854 4.64062,-2.34895 6.53125,-3.78125 1.77603,-1.3177 3.09374,-2.63541 3.95313,-3.95313 l -9.36719,0 0,-1.63281 5.75781,0 0,-3.60938 1.71875,0 z"
       style="font-variant:normal;font-stretch:normal;font-family:MS UI Gothic;-inkscape-font-specification:MS UI Gothic"
       id="path3168" />
    <path
       d="m 202.70287,376.68912 c 0.80208,1.26043 1.51822,2.66407 2.14844,4.21093 l -1.63281,0.77344 c -0.68751,-1.77603 -1.34636,-3.20832 -1.97656,-4.29687 z m 2.92188,8.42187 c 1.03124,-1.71874 1.51822,-4.23957 1.46094,-7.5625 l 1.63281,0.17188 c -0.0573,3.4948 -0.65887,6.24479 -1.80469,8.25 -1.14584,2.0625 -3.1224,3.72396 -5.92969,4.98437 l -1.11718,-1.46094 c 2.80728,-0.97395 4.72655,-2.43489 5.75781,-4.38281 z m -6.70313,-6.61719 c 0.51563,0.74481 1.20312,2.1771 2.0625,4.29688 l -1.63281,0.77344 c -0.6875,-1.77604 -1.34635,-3.23697 -1.97656,-4.38282 z"
       style="font-variant:normal;font-stretch:normal;font-family:MS UI Gothic;-inkscape-font-specification:MS UI Gothic"
       id="path3170" />
    <path
       d="m 216.10912,378.66568 c 3.03645,1.03126 5.58593,2.14845 7.64844,3.35156 l -1.11719,1.89063 c -0.63022,-0.45833 -1.60418,-1.0026 -2.92187,-1.63282 -1.31772,-0.6302 -2.52084,-1.14582 -3.60938,-1.54687 l 0,10.14062 -1.71875,0 0,-18.39062 1.71875,0 z"
       style="font-variant:normal;font-stretch:normal;font-family:MS UI Gothic;-inkscape-font-specification:MS UI Gothic"
       id="path3172" />
    <path
       d="m 234.8435,376.51724 1.03125,1.80469 3.4375,0 0.6875,-1.89063 -10.48438,0 0,7.82032 c 0,2.63542 -0.65886,5.04166 -1.97656,7.21875 l -1.46094,-1.28907 c 1.14583,-1.77604 1.71875,-3.92447 1.71875,-6.44531 l 0,-11.42969 16.32813,0 0,4.125 -3.52344,0 1.11719,0.51563 c 0.22915,0.22918 0.14321,0.37241 -0.25781,0.42969 l -0.51563,0.94531 3.60938,0 0,5.58594 -13.75,0 0,-5.58594 3.26562,0 -0.77344,-1.03125 z m 7.99219,6.35938 0,-1.28907 -4.29688,0 0,1.28907 z m -10.3125,0 4.29687,0 0,-1.28907 -4.29687,0 z m 1.71875,8.67968 -1.71875,0 0,-6.61718 10.57031,0 0,6.35937 -1.71875,0 0,-0.77344 -7.13281,0 z m 7.13281,-2.0625 0,-1.28906 -7.13281,0 0,1.28906 z m -11.85938,-14.4375 12.89063,0 0,-1.375 -12.89063,0 z m 3.00782,5.5 4.29687,0 0,-1.20312 -4.29687,0 z m 6.01562,0 4.29688,0 0,-1.20312 -4.29688,0 z m -4.29687,6.61719 7.13281,0 0,-1.20312 -7.13281,0 z"
       style="font-variant:normal;font-stretch:normal;font-family:MS UI Gothic;-inkscape-font-specification:MS UI Gothic"
       id="path3174" />
  </g>
  <g
     style="font-size:22px;font-style:normal;font-weight:normal;line-height:125%;letter-spacing:0px;word-spacing:0px;fill:#000000;fill-opacity:1;stroke:none;font-family:Sans"
     id="text4084-64">
    <path
       d="m 117.61774,308.77014 c 3.03645,1.03126 5.58592,2.14845 7.64843,3.35156 l -1.11718,1.89063 c -0.63022,-0.45833 -1.60418,-1.0026 -2.92188,-1.63281 -1.31772,-0.6302 -2.52084,-1.14583 -3.60937,-1.54688 l 0,10.14063 -1.71875,0 0,-18.39063 1.71875,0 z"
       style="font-variant:normal;font-stretch:normal;font-family:MS UI Gothic;-inkscape-font-specification:MS UI Gothic"
       id="path3177" />
    <path
       d="m 128.87555,303.95764 9.79687,0 0,1.63281 -9.79687,0 z m -1.54688,4.8125 12.97657,0 0,1.63281 c -2e-5,2.29168 -0.63022,4.35418 -1.89063,6.1875 -1.48959,2.17709 -3.72396,3.72396 -6.70312,4.64063 l -1.11719,-1.80469 c 2.74999,-0.63021 4.78384,-1.89062 6.10156,-3.78125 1.14582,-1.48958 1.69009,-3.23697 1.63281,-5.24219 l -11,0 z"
       style="font-variant:normal;font-stretch:normal;font-family:MS UI Gothic;-inkscape-font-specification:MS UI Gothic"
       id="path3179" />
    <path
       d="m 144.25836,304.04358 c 1.94791,1.08856 3.55208,2.29168 4.8125,3.60937 l -1.46094,1.80469 c -0.97396,-1.2604 -2.49219,-2.57811 -4.55468,-3.95312 z m 7.5625,10.74219 c 1.71874,-1.77604 2.89322,-4.29687 3.52344,-7.5625 l 1.80469,0.94531 c -0.91668,3.66667 -2.34897,6.44532 -4.29688,8.33594 -2.00522,1.94791 -4.95573,3.32291 -8.85156,4.125 l -0.6875,-1.89063 c 3.72395,-0.6875 6.55989,-2.0052 8.50781,-3.95312 z"
       style="font-variant:normal;font-stretch:normal;font-family:MS UI Gothic;-inkscape-font-specification:MS UI Gothic"
       id="path3181" />
    <path
       d="m 170.89899,306.02014 c -2e-5,2.40626 -0.65887,4.72657 -1.97657,6.96094 1.94791,1.83334 3.78124,3.83854 5.5,6.01562 l -1.375,1.63282 c -2.00522,-2.92188 -3.69532,-4.98437 -5.07031,-6.1875 -2.1198,3.03646 -4.78386,5.27083 -7.99219,6.70312 l -1.03125,-1.71875 c 2.92188,-1.20312 5.35677,-3.15104 7.30469,-5.84375 1.83332,-2.46353 2.74999,-4.86978 2.75,-7.21875 l -8.67969,0 0,-1.89062 10.57032,0 0,1.54687 z"
       style="font-variant:normal;font-stretch:normal;font-family:MS UI Gothic;-inkscape-font-specification:MS UI Gothic"
       id="path3183" />
    <path
       d="m 189.37555,301.37952 c 0.74478,-0.0573 1.37498,0.17189 1.89062,0.6875 0.45832,0.40106 0.68749,0.91668 0.6875,1.54687 0.0573,0.68752 -0.14324,1.28908 -0.60156,1.80469 -0.51564,0.57293 -1.1172,0.85939 -1.80469,0.85937 -0.68751,2e-5 -1.26043,-0.22915 -1.71875,-0.6875 -0.45834,-0.45831 -0.71615,-1.05988 -0.77343,-1.80468 0.0573,-0.6302 0.31509,-1.20311 0.77343,-1.71875 0.45832,-0.45832 0.97395,-0.68749 1.54688,-0.6875 z m -1.11719,9.10937 c 1.43228,1.89063 2.6354,4.35417 3.60938,7.39063 l -1.89063,0.94531 c -0.91668,-3.26562 -2.00522,-5.8151 -3.26562,-7.64844 z m -3.60937,-3.69531 6.61718,0 0,1.63281 -6.61718,0 0,12.63281 -1.71875,0 0,-12.63281 -6.61719,0 0,-1.63281 6.61719,0 0,-4.125 1.71875,0 z m -8.50782,11.25781 c 1.48958,-1.71875 2.29167,-4.0677 2.40625,-7.04687 l 1.89063,0.25781 c -0.11459,2.97917 -0.94532,5.61459 -2.49219,7.90625 l -1.80469,-1.11719 z m 13.32032,-13.0625 c 0.34373,2e-5 0.63019,-0.0859 0.85937,-0.25781 0.28644,-0.22915 0.42967,-0.51561 0.42969,-0.85938 -2e-5,-0.40102 -0.1146,-0.71613 -0.34375,-0.94531 -0.22918,-0.22915 -0.51564,-0.34373 -0.85938,-0.34375 -0.34376,2e-5 -0.63022,0.1146 -0.85937,0.34375 -0.28647,0.28648 -0.40106,0.60158 -0.34375,0.94531 0.0573,0.34377 0.17186,0.60158 0.34375,0.77344 0.17186,0.22918 0.42967,0.34377 0.77344,0.34375 z"
       style="font-variant:normal;font-stretch:normal;font-family:MS UI Gothic;-inkscape-font-specification:MS UI Gothic"
       id="path3185" />
    <path
       d="m 209.05524,310.48889 0,1.89063 -14.95313,0 0,-1.89063 z"
       style="font-variant:normal;font-stretch:normal;font-family:MS UI Gothic;-inkscape-font-specification:MS UI Gothic"
       id="path3187" />
    <path
       d="m 217.56305,308.77014 c 3.03645,1.03126 5.58592,2.14845 7.64844,3.35156 l -1.11719,1.89063 c -0.63022,-0.45833 -1.60418,-1.0026 -2.92188,-1.63281 -1.31771,-0.6302 -2.52084,-1.14583 -3.60937,-1.54688 l 0,10.14063 -1.71875,0 0,-18.39063 1.71875,0 z"
       style="font-variant:normal;font-stretch:normal;font-family:MS UI Gothic;-inkscape-font-specification:MS UI Gothic"
       id="path3189" />
    <path
       d="m 236.29742,306.6217 1.03125,1.80469 3.4375,0 0.6875,-1.89062 -10.48437,0 0,7.82031 c -1e-5,2.63542 -0.65886,5.04167 -1.97656,7.21875 l -1.46094,-1.28906 c 1.14583,-1.77604 1.71875,-3.92448 1.71875,-6.44532 l 0,-11.42968 16.32812,0 0,4.125 -3.52343,0 1.11718,0.51562 c 0.22915,0.22918 0.14322,0.37241 -0.25781,0.42969 l -0.51562,0.94531 3.60937,0 0,5.58594 -13.75,0 0,-5.58594 3.26563,0 -0.77344,-1.03125 z m 7.99219,6.35938 0,-1.28906 -4.29687,0 0,1.28906 z m -10.3125,0 4.29688,0 0,-1.28906 -4.29688,0 z m 1.71875,8.67969 -1.71875,0 0,-6.61719 10.57031,0 0,6.35937 -1.71875,0 0,-0.77343 -7.13281,0 z m 7.13281,-2.0625 0,-1.28907 -7.13281,0 0,1.28907 z m -11.85937,-14.4375 12.89062,0 0,-1.375 -12.89062,0 z m 3.00781,5.5 4.29688,0 0,-1.20313 -4.29688,0 z m 6.01563,0 4.29687,0 0,-1.20313 -4.29687,0 z m -4.29688,6.61718 7.13281,0 0,-1.20312 -7.13281,0 z"
       style="font-variant:normal;font-stretch:normal;font-family:MS UI Gothic;-inkscape-font-specification:MS UI Gothic"
       id="path3191" />
  </g>
  <text
     xml:space="preserve"
     style="font-style:normal;font-variant:normal;font-weight:normal;font-stretch:normal;font-size:22px;line-height:125%;font-family:'Open Sans';-inkscape-font-specification:'Open Sans';letter-spacing:0px;word-spacing:0px;fill:#000000;fill-opacity:1;stroke:none"
     x="-152.29993"
     y="109.25325"
     id="text3039"><tspan
       id="tspan3041"
       x="-152.29993"
       y="109.25325" /><tspan
       id="tspan3043"
       x="-152.29993"
       y="136.75325" /></text>
  <g
     style="font-size:22px;font-style:normal;font-variant:normal;font-weight:normal;font-stretch:normal;line-height:125%;letter-spacing:0px;word-spacing:0px;fill:#00c081;fill-opacity:1;stroke:none;font-family:Open Sans;-inkscape-font-specification:Open Sans"
     id="text3045">
    <path
       d="m 88.771484,69.648437 -2.988281,0 0,-23.044921 -8.138672,0 0,-2.654297 19.265625,0 0,2.654297 -8.138672,0 z"
       style="font-size:36px;fill:#00c081"
       id="path3226" />
    <path
       d="m 111.76367,46.251953 c -2.82423,2.4e-5 -5.05372,0.940452 -6.68847,2.821289 -1.63478,1.880878 -2.45216,4.456071 -2.45215,7.725586 -1e-5,3.363291 0.78808,5.961921 2.36425,7.795899 1.57617,1.833987 3.82324,2.750978 6.74122,2.750976 1.79295,2e-6 3.83787,-0.322263 6.13476,-0.966797 l 0,2.619141 C 116.08201,69.666016 113.88475,70 111.27148,70 c -3.78516,0 -6.70606,-1.148437 -8.76269,-3.445313 -2.05664,-2.296869 -3.084964,-5.560538 -3.084962,-9.791015 -2e-6,-2.648422 0.495115,-4.968732 1.485352,-6.960938 0.99023,-1.992165 2.41992,-3.52732 4.28906,-4.605468 1.86913,-1.0781 4.06933,-1.617162 6.60059,-1.617188 2.69529,2.6e-5 5.05076,0.492213 7.0664,1.476563 l -1.26562,2.566406 c -1.94533,-0.91404 -3.89064,-1.37107 -5.83594,-1.371094 z"
       style="font-size:36px;fill:#00c081"
       id="path3228" />
    <path
       d="m 139.76562,51.4375 c -1e-5,2.601578 -0.88771,4.602553 -2.66308,6.00293 -1.77541,1.400401 -4.31544,2.100596 -7.62012,2.100586 l -3.02344,0 0,10.107421 -2.98828,0 0,-25.699218 6.66211,0 c 6.42186,2.5e-5 9.6328,2.496117 9.63281,7.488281 z m -13.30664,5.537109 2.68946,0 c 2.64842,1.3e-5 4.56444,-0.427721 5.74804,-1.283203 1.18358,-0.855454 1.77538,-2.226546 1.77539,-4.113281 -1e-5,-1.699199 -0.55665,-2.964823 -1.66992,-3.796875 -1.11329,-0.832009 -2.84767,-1.248024 -5.20312,-1.248047 l -3.33985,0 z"
       style="font-size:36px;fill:#00c081"
       id="path3230" />
    <path
       d="m 154.44336,43.949219 -9.58008,25.699218 -2.91797,0 9.58008,-25.699218 z"
       style="font-size:36px;fill:#00c081"
       id="path3232" />
    <path
       d="m 158.3457,69.648437 0,-25.699218 2.98828,0 0,25.699218 z"
       style="font-size:36px;fill:#00c081"
       id="path3234" />
    <path
       d="m 184.69531,51.4375 c -2e-5,2.601578 -0.88771,4.602553 -2.66308,6.00293 -1.77541,1.400401 -4.31545,2.100596 -7.62012,2.100586 l -3.02344,0 0,10.107421 -2.98828,0 0,-25.699218 6.66211,0 c 6.42186,2.5e-5 9.63279,2.496117 9.63281,7.488281 z m -13.30664,5.537109 2.68945,0 c 2.64843,1.3e-5 4.56444,-0.427721 5.74805,-1.283203 1.18358,-0.855454 1.77538,-2.226546 1.77539,-4.113281 -1e-5,-1.699199 -0.55665,-2.964823 -1.66992,-3.796875 -1.11329,-0.832009 -2.84767,-1.248024 -5.20312,-1.248047 l -3.33985,0 z"
       style="font-size:36px;fill:#00c081"
       id="path3236" />
    <path
       d="m 198.89844,65.289062 c -1e-5,1.312504 0.56248,1.968753 1.6875,1.96875 l 11.10937,0 -0.28125,3.09375 -10.54687,0 c -1.78127,0 -3.00001,-0.375 -3.65625,-1.125 -0.75001,-0.937498 -1.12501,-2.296872 -1.125,-4.078125 l 0,-8.71875 -8.15625,0 0,-2.671875 8.15625,0 0,-7.453125 -5.48438,0 0,-2.671875 18.5625,0 0,2.671875 -10.26562,0 0,7.453125 12.79687,0 0,2.671875 -12.79687,0 0,8.859375 z"
       style="font-style:normal;font-variant:normal;font-weight:normal;font-stretch:normal;font-family:MS UI Gothic;-inkscape-font-specification:MS UI Gothic"
       id="path3238" />
    <path
       d="m 241.92969,40.398437 0,5.484375 -2.39063,0 0,-5.484375 z m -3.79688,0 0,5.484375 -2.39062,0 0,-5.484375 z m -18.98437,2.953125 15.46875,0 0,2.671875 -15.46875,0 z m -3.375,9.421875 24.32812,0 0,3.09375 -9.98437,0 0,4.640625 c -2e-5,5.718754 -2.57814,9.609375 -7.73438,11.671875 l -1.82812,-2.671875 c 2.53124,-0.749999 4.31249,-1.921872 5.34375,-3.515625 0.93748,-1.406244 1.40623,-3.234368 1.40625,-5.484375 l 0,-4.640625 -11.53125,0 z"
       style="font-style:normal;font-variant:normal;font-weight:normal;font-stretch:normal;font-family:MS UI Gothic;-inkscape-font-specification:MS UI Gothic"
       id="path3240" />
    <path
       d="m 265.27344,62.335937 c 1.68747,-1.78124 3.23435,-3.984363 4.64062,-6.609375 l 1.96875,2.8125 c -1.12503,2.250009 -2.8594,4.593757 -5.20312,7.03125 -2.34377,2.437502 -4.64065,4.265625 -6.89063,5.484375 l -1.6875,-2.8125 0,-25.734375 2.8125,0 0,23.765625 c 1.12498,-0.656245 2.57811,-1.968744 4.35938,-3.9375 z m -12.375,-17.578125 0,11.53125 c -1e-5,3.65626 -0.51564,6.609382 -1.54688,8.859375 -1.03125,2.343753 -2.71875,4.359376 -5.0625,6.046875 l -1.96875,-2.671875 c 1.96875,-1.499997 3.32812,-3.14062 4.07813,-4.921875 1.12499,-2.718741 1.68749,-5.156238 1.6875,-7.3125 l 0,-11.53125 z"
       style="font-style:normal;font-variant:normal;font-weight:normal;font-stretch:normal;font-family:MS UI Gothic;-inkscape-font-specification:MS UI Gothic"
       id="path3242" />
  </g>
  <g
     style="font-size:22px;font-style:normal;font-variant:normal;font-weight:normal;font-stretch:normal;line-height:125%;letter-spacing:0px;word-spacing:0px;fill:#00b2e2;fill-opacity:1;stroke:none;font-family:Open Sans;-inkscape-font-specification:Open Sans"
     id="text3049">
    <path
       d="m 471.8916,56.763672 c -2e-5,4.11329 -1.04006,7.347662 -3.12012,9.703125 C 466.69139,68.822266 463.79979,70 460.09668,70 c -3.78517,0 -6.70606,-1.157226 -8.7627,-3.47168 -2.05664,-2.314447 -3.08496,-5.581046 -3.08496,-9.799804 0,-4.183577 1.03125,-7.426738 3.09375,-9.729493 2.0625,-2.302709 4.99218,-3.454075 8.78907,-3.454101 3.69138,2.6e-5 6.57419,1.1719 8.64843,3.515625 2.0742,2.34377 3.11131,5.578142 3.11133,9.703125 z m -20.47851,0 c -1e-5,3.480478 0.7412,6.120124 2.22363,7.918945 1.48241,1.798831 3.63573,2.698245 6.45996,2.698242 2.84764,3e-6 4.99803,-0.896481 6.45117,-2.689453 1.4531,-1.792962 2.17967,-4.435537 2.17969,-7.927734 -2e-5,-3.457015 -0.72366,-6.079083 -2.1709,-7.866211 -1.44728,-1.787087 -3.58888,-2.680641 -6.4248,-2.680664 -2.84767,2.3e-5 -5.01271,0.899436 -6.49512,2.698242 -1.48243,1.798847 -2.22364,4.415055 -2.22363,7.848633 z"
       style="font-size:36px;fill:#00b2e2"
       id="path3213" />
    <path
       d="m 492.1416,62.810547 c -2e-5,2.261723 -0.82033,4.025393 -2.46094,5.291015 C 488.04003,69.367188 485.81346,70 483.00098,70 c -3.04688,0 -5.39063,-0.392578 -7.03125,-1.177734 l 0,-2.882813 c 1.05468,0.445316 2.20312,0.796878 3.44531,1.054688 1.24218,0.257815 2.47265,0.386721 3.69141,0.386718 1.99217,3e-6 3.49217,-0.377927 4.5,-1.133789 1.00779,-0.755855 1.5117,-1.807612 1.51171,-3.155273 -10e-6,-0.890618 -0.17872,-1.620109 -0.53613,-2.188477 -0.35743,-0.56835 -0.95509,-1.092763 -1.79297,-1.573242 -0.8379,-0.480458 -2.11231,-1.025379 -3.82324,-1.634766 -2.39063,-0.855455 -4.09864,-1.869126 -5.12402,-3.041015 -1.0254,-1.171859 -1.53809,-2.701154 -1.53809,-4.587891 0,-1.980447 0.74414,-3.556617 2.23242,-4.728515 1.48828,-1.17185 3.45703,-1.757787 5.90625,-1.757813 2.55468,2.6e-5 4.90428,0.468776 7.04883,1.40625 l -0.93164,2.601563 c -2.12111,-0.890602 -4.18361,-1.335914 -6.1875,-1.335938 -1.58204,2.4e-5 -2.81837,0.339867 -3.70898,1.019531 -0.89063,0.67971 -1.33595,1.623068 -1.33594,2.830078 -1e-5,0.890644 0.16406,1.620136 0.49219,2.188477 0.32811,0.568376 0.88183,1.08986 1.66113,1.564453 0.77929,0.474625 1.97167,0.999038 3.57715,1.573242 2.6953,0.960951 4.54979,1.9922 5.56347,3.09375 1.01366,1.101573 1.52049,2.531259 1.52051,4.289063 z"
       style="font-size:36px;fill:#00b2e2"
       id="path3215" />
    <path
       d="m 497.39746,69.648437 0,-25.699218 2.98828,0 0,25.699218 z"
       style="font-size:36px;fill:#00b2e2"
       id="path3217" />
    <path
       d="m 516.29395,65.289062 c -2e-5,1.312504 0.56248,1.968753 1.6875,1.96875 l 11.10937,0 -0.28125,3.09375 -10.54687,0 c -1.78127,0 -3.00002,-0.375 -3.65625,-1.125 -0.75001,-0.937498 -1.12501,-2.296872 -1.125,-4.078125 l 0,-8.71875 -8.15625,0 0,-2.671875 8.15625,0 0,-7.453125 -5.48438,0 0,-2.671875 18.5625,0 0,2.671875 -10.26562,0 0,7.453125 12.79687,0 0,2.671875 -12.79687,0 0,8.859375 z"
       style="font-style:normal;font-variant:normal;font-weight:normal;font-stretch:normal;font-family:MS UI Gothic;-inkscape-font-specification:MS UI Gothic"
       id="path3219" />
    <path
       d="m 559.3252,40.398437 0,5.484375 -2.39063,0 0,-5.484375 z m -3.79688,0 0,5.484375 -2.39062,0 0,-5.484375 z m -18.98437,2.953125 15.46875,0 0,2.671875 -15.46875,0 z m -3.375,9.421875 24.32812,0 0,3.09375 -9.98437,0 0,4.640625 c -2e-5,5.718754 -2.57814,9.609375 -7.73438,11.671875 l -1.82812,-2.671875 c 2.53124,-0.749999 4.31248,-1.921872 5.34375,-3.515625 0.93748,-1.406244 1.40623,-3.234368 1.40625,-5.484375 l 0,-4.640625 -11.53125,0 z"
       style="font-style:normal;font-variant:normal;font-weight:normal;font-stretch:normal;font-family:MS UI Gothic;-inkscape-font-specification:MS UI Gothic"
       id="path3221" />
    <path
       d="m 582.66895,62.335937 c 1.68747,-1.78124 3.23434,-3.984363 4.64062,-6.609375 l 1.96875,2.8125 c -1.12503,2.250009 -2.8594,4.593757 -5.20312,7.03125 -2.34378,2.437502 -4.64065,4.265625 -6.89063,5.484375 l -1.6875,-2.8125 0,-25.734375 2.8125,0 0,23.765625 c 1.12498,-0.656245 2.5781,-1.968744 4.35938,-3.9375 z m -12.375,-17.578125 0,11.53125 c -10e-6,3.65626 -0.51564,6.609382 -1.54688,8.859375 -1.03126,2.343753 -2.71876,4.359376 -5.0625,6.046875 l -1.96875,-2.671875 c 1.96875,-1.499997 3.32812,-3.14062 4.07813,-4.921875 1.12499,-2.718741 1.68749,-5.156238 1.6875,-7.3125 l 0,-11.53125 z"
       style="font-style:normal;font-variant:normal;font-weight:normal;font-stretch:normal;font-family:MS UI Gothic;-inkscape-font-specification:MS UI Gothic"
       id="path3223" />
  </g>
</svg>
