<?xml version="1.0" encoding="UTF-8" standalone="no"?>
<svg
   width="700"
   height="550"
   version="1.2"
   id="svg2048"
   sodipodi:docname="net_basic_osi.svg"
   inkscape:version="1.2.2 (732a01da63, 2022-12-09)"
   xmlns:inkscape="http://www.inkscape.org/namespaces/inkscape"
   xmlns:sodipodi="http://sodipodi.sourceforge.net/DTD/sodipodi-0.dtd"
   xmlns="http://www.w3.org/2000/svg"
   xmlns:svg="http://www.w3.org/2000/svg">
  <defs
     id="defs2052" />
  <sodipodi:namedview
     id="namedview2050"
     pagecolor="#ffffff"
     bordercolor="#000000"
     borderopacity="0.25"
     inkscape:showpageshadow="2"
     inkscape:pageopacity="0.0"
     inkscape:pagecheckerboard="0"
     inkscape:deskcolor="#d1d1d1"
     showgrid="false"
     inkscape:zoom="1.4654545"
     inkscape:cx="350.06205"
     inkscape:cy="315.94294"
     inkscape:window-width="1920"
     inkscape:window-height="1009"
     inkscape:window-x="-8"
     inkscape:window-y="-8"
     inkscape:window-maximized="1"
     inkscape:current-layer="svg2048" />
  <rect
     width="679.81"
     height="165.18"
     x="10.19"
     y="109.82"
     fill="#dedfe0"
     color="#000"
     overflow="visible"
     rx="0"
     ry="0"
     style="marker:none"
     id="rect1966" />
  <rect
     width="320"
     height="145"
     x="20"
     y="120"
     fill="#30ba78"
     color="#000"
     overflow="visible"
     rx="0"
     ry="0"
     style="marker:none"
     id="rect1968" />
  <rect
     width="320"
     height="45"
     x="360"
     y="120"
     fill="#0c322c"
     color="#000"
     overflow="visible"
     rx="0"
     ry="0"
     style="marker:none"
     id="rect1970" />
  <rect
     width="320"
     height="45"
     x="360"
     y="170"
     fill="#0c322c"
     color="#000"
     overflow="visible"
     rx="0"
     ry="0"
     style="marker:none"
     id="rect1972" />
  <rect
     width="320"
     height="45"
     x="360"
     y="220"
     fill="#0c322c"
     color="#000"
     overflow="visible"
     rx="0"
     ry="0"
     style="marker:none"
     id="rect1974" />
  <rect
     width="680"
     height="65"
     x="10"
     y="280"
     fill="#dedfe0"
     color="#000"
     overflow="visible"
     rx="0"
     ry="0"
     style="marker:none"
     id="rect1976" />
  <rect
     width="320"
     height="45"
     x="20"
     y="290"
     fill="#30ba78"
     color="#000"
     overflow="visible"
     rx="0"
     ry="0"
     style="marker:none"
     id="rect1978" />
  <rect
     width="320"
     height="45"
     x="360"
     y="290"
     fill="#0c322c"
     color="#000"
     overflow="visible"
     rx="0"
     ry="0"
     style="marker:none"
     id="rect1980" />
  <rect
     width="680"
     height="65"
     x="10"
     y="350"
     fill="#dedfe0"
     color="#000"
     overflow="visible"
     rx="0"
     ry="0"
     style="marker:none"
     id="rect1982" />
  <rect
     width="320"
     height="45"
     x="20"
     y="360"
     fill="#30ba78"
     color="#000"
     overflow="visible"
     rx="0"
     ry="0"
     style="marker:none"
     id="rect1984" />
  <rect
     width="320"
     height="45"
     x="360"
     y="360"
     fill="#0c322c"
     color="#000"
     overflow="visible"
     rx="0"
     ry="0"
     style="marker:none"
     id="rect1986" />
  <rect
     width="680"
     height="115"
     x="10"
     y="425"
     fill="#dedfe0"
     color="#000"
     overflow="visible"
     rx="0"
     ry="0"
     style="marker:none"
     id="rect1988" />
  <rect
     width="320"
     height="95"
     x="20"
     y="435"
     fill="#30ba78"
     color="#000"
     overflow="visible"
     rx="0"
     ry="0"
     style="marker:none"
     id="rect1990" />
  <rect
     width="320"
     height="45"
     x="360"
     y="435"
     fill="#0c322c"
     color="#000"
     overflow="visible"
     rx="0"
     ry="0"
     style="marker:none"
     id="rect1992" />
  <rect
     width="320"
     height="45"
     x="360"
     y="485"
     fill="#0c322c"
     color="#000"
     overflow="visible"
     rx=".69"
     ry="0"
     style="marker:none"
     id="rect1994" />
  <g
     aria-label="アプリケーション層"
     id="text1998"
     style="font-weight:500;font-size:22px;line-height:125%;font-family:Poppins;-inkscape-font-specification:'Poppins Medium';letter-spacing:0;word-spacing:0">
    <path
       d="m 84.683995,186.122 c 0.066,0.572 0.088,1.056 0.088,1.584 0,3.674 -0.484,6.82 -3.894,8.91 -0.616,0.418 -1.364,0.77 -1.958,0.968 l 1.606,1.32 c 5.61,-2.794 6.138,-6.82 6.138,-12.782 z m 9.68,-3.938 c -0.33,0.066 -1.122,0.132 -1.54,0.132 h -12.628 c -0.814,0 -1.738,-0.088 -2.508,-0.176 v 1.98 c 0.88,-0.088 1.694,-0.132 2.508,-0.132 h 12.518 c -0.704,1.364 -2.772,3.74 -4.796,4.928 l 1.452,1.166 c 2.508,-1.738 4.598,-4.576 5.478,-6.072 0.154,-0.242 0.44,-0.572 0.594,-0.792 z"
       style="font-weight:normal;font-family:'Noto Sans CJK JP';-inkscape-font-specification:'Noto Sans CJK JP';text-align:center;text-anchor:middle"
       id="path2786" />
    <path
       d="m 116.122,183.746 c -0.814,0 -1.452,-0.66 -1.452,-1.452 0,-0.792 0.638,-1.474 1.452,-1.474 0.792,0 1.452,0.682 1.452,1.474 0,0.792 -0.66,1.452 -1.452,1.452 z M 102.02,183.02 c -0.726,0 -1.606,-0.066 -2.200005,-0.132 v 1.936 C 100.37,184.802 101.14,184.758 101.998,184.758 h 11.264 c -0.308,2.112 -1.32,5.17 -2.882,7.172 -1.848,2.354 -4.312,4.224 -8.58,5.28 l 1.496,1.65 c 4.026,-1.254 6.644,-3.3 8.668,-5.874 1.738,-2.266 2.794,-5.808 3.278,-8.118 l 0.044,-0.242 c 0.264,0.088 0.55,0.132 0.836,0.132 1.364,0 2.464,-1.1 2.464,-2.464 0,-1.364 -1.1,-2.486 -2.464,-2.486 -1.364,0 -2.464,1.122 -2.464,2.486 0,0.242 0.044,0.484 0.11,0.704 -0.264,0.022 -0.506,0.022 -0.726,0.022 z"
       style="font-weight:normal;font-family:'Noto Sans CJK JP';-inkscape-font-specification:'Noto Sans CJK JP';text-align:center;text-anchor:middle"
       id="path2788" />
    <path
       d="m 123.822,181.568 c 0.044,0.418 0.088,1.188 0.088,1.584 v 7.326 c 0,0.66 -0.066,1.364 -0.088,1.694 h 2.024 c -0.044,-0.396 -0.066,-1.122 -0.066,-1.672 v -7.348 c 0,-0.528 0.022,-1.166 0.066,-1.584 z m 10.186,-0.154 c 0.044,0.528 0.11,1.166 0.11,1.892 v 3.476 c 0,4.158 -0.264,5.94 -1.848,7.766 -1.364,1.54 -3.256,2.42 -5.28,2.926 l 1.43,1.518 c 1.606,-0.55 3.806,-1.496 5.236,-3.212 1.584,-1.892 2.288,-3.63 2.288,-8.91 v -3.564 c 0,-0.726 0.044,-1.364 0.088,-1.892 z"
       style="font-weight:normal;font-family:'Noto Sans CJK JP';-inkscape-font-specification:'Noto Sans CJK JP';text-align:center;text-anchor:middle"
       id="path2790" />
    <path
       d="m 148.638,184.846 c 0.33,-0.792 0.616,-1.584 0.836,-2.222 0.154,-0.462 0.352,-1.034 0.55,-1.54 l -2.112,-0.418 c -0.044,0.638 -0.176,1.232 -0.33,1.76 -0.242,0.836 -0.638,1.98 -1.254,3.08 -0.748,1.342 -2.332,3.586 -3.916,4.73 l 1.738,1.034 c 1.298,-1.056 2.772,-3.058 3.674,-4.708 h 5.632 c -0.308,5.588 -2.684,8.47 -4.84,10.098 -0.484,0.396 -1.166,0.77 -1.782,1.012 l 1.87,1.276 c 3.784,-2.42 6.248,-6.094 6.6,-12.386 h 3.718 c 0.506,0 1.364,0.022 2.068,0.066 v -1.892 c -0.638,0.088 -1.518,0.11 -2.068,0.11 z"
       style="font-weight:normal;font-family:'Noto Sans CJK JP';-inkscape-font-specification:'Noto Sans CJK JP';text-align:center;text-anchor:middle"
       id="path2792" />
    <path
       d="m 165.204,190.72 c 0.682,-0.066 1.848,-0.11 3.058,-0.11 h 12.078 c 0.99,0 1.914,0.088 2.354,0.11 v -2.156 c -0.484,0.044 -1.276,0.11 -2.376,0.11 h -12.056 c -1.232,0 -2.398,-0.066 -3.058,-0.11 z"
       style="font-weight:normal;font-family:'Noto Sans CJK JP';-inkscape-font-specification:'Noto Sans CJK JP';text-align:center;text-anchor:middle"
       id="path2794" />
    <path
       d="m 191.14199,181.194 -0.99,1.474 c 1.298,0.748 3.674,2.332 4.73,3.124 l 1.034,-1.496 c -0.946,-0.704 -3.476,-2.376 -4.774,-3.102 z m -3.3,15.708 1.012,1.804 c 2.046,-0.418 5.082,-1.452 7.304,-2.728 3.498,-2.068 6.534,-4.906 8.448,-7.876 l -1.056,-1.804 c -1.782,3.102 -4.686,5.962 -8.338,8.052 -2.222,1.276 -4.95,2.134 -7.37,2.552 z m -0.022,-10.758 -0.968,1.496 c 1.32,0.682 3.718,2.222 4.796,3.014 l 1.012,-1.54 c -0.968,-0.704 -3.52,-2.266 -4.84,-2.97 z"
       style="font-weight:normal;font-family:'Noto Sans CJK JP';-inkscape-font-specification:'Noto Sans CJK JP';text-align:center;text-anchor:middle"
       id="path2796" />
    <path
       d="m 223.54799,199.322 c -0.022,-0.308 -0.044,-0.836 -0.044,-1.188 v -10.956 c 0,-0.418 0,-0.88 0.022,-1.122 -0.286,0.022 -0.858,0.044 -1.342,0.044 h -8.514 c -0.572,0 -1.826,-0.044 -2.244,-0.088 v 1.716 c 0.396,-0.022 1.672,-0.066 2.244,-0.066 h 8.162 v 3.674 h -7.964 c -0.748,0 -1.54,-0.066 -1.958,-0.088 v 1.694 c 0.44,-0.022 1.21,-0.044 1.98,-0.044 h 7.942 v 3.916 h -8.866 c -0.748,0 -1.452,-0.044 -1.804,-0.088 v 1.76 c 0.352,-0.022 1.122,-0.066 1.804,-0.066 h 8.866 c 0,0.352 0,0.704 -0.022,0.902 z"
       style="font-weight:normal;font-family:'Noto Sans CJK JP';-inkscape-font-specification:'Noto Sans CJK JP';text-align:center;text-anchor:middle"
       id="path2798" />
    <path
       d="m 233.51399,181.964 -1.254,1.342 c 1.628,1.1 4.378,3.454 5.478,4.598 l 1.386,-1.386 c -1.232,-1.232 -4.048,-3.52 -5.61,-4.554 z m -1.892,14.74 1.166,1.804 c 3.674,-0.682 6.446,-2.024 8.646,-3.432 3.322,-2.068 5.874,-5.06 7.392,-7.81 l -1.056,-1.87 c -1.276,2.706 -3.96,5.962 -7.348,8.096 -2.09,1.298 -4.95,2.64 -8.8,3.212 z"
       style="font-weight:normal;font-family:'Noto Sans CJK JP';-inkscape-font-specification:'Noto Sans CJK JP';text-align:center;text-anchor:middle"
       id="path2800" />
    <path
       d="m 267.45999,194.438 v 1.232 h -8.492 v -1.232 z m -8.492,3.542 v -1.298 h 8.492 v 1.298 z m -1.562,1.782 h 1.562 v -0.66 h 8.492 v 0.616 h 1.65 v -6.38 h -11.704 z m 10.956,-15.906 h -13.046 v -1.826 h 13.046 z m -7.48,2.772 c -0.198,-0.44 -0.616,-0.99 -1.056,-1.452 h 6.292 c -0.33,0.462 -0.748,1.034 -1.1,1.452 z m 7.502,2.354 h -4.554 v -1.32 h 4.554 z m 0,2.354 h -4.554 v -1.364 h 4.554 z m -10.45,-1.364 h 4.378 v 1.364 h -4.378 z m 0,-2.31 h 4.378 v 1.32 h -4.378 z m 12.056,-6.952 h -16.302 v 6.358 c 0,3.52 -0.198,8.338 -2.376,11.748 0.418,0.176 1.122,0.594 1.43,0.836 2.244,-3.542 2.574,-8.866 2.574,-12.584 v -1.892 h 3.542 l -0.528,0.198 c 0.352,0.374 0.704,0.814 0.968,1.254 h -2.882 v 5.742 h 13.53 v -5.742 h -3.344 c 0.374,-0.396 0.748,-0.836 1.1,-1.298 l -0.462,-0.154 h 2.75 z"
       style="font-weight:normal;font-family:'Noto Sans CJK JP';-inkscape-font-specification:'Noto Sans CJK JP';text-align:center;text-anchor:middle"
       id="path2802" />
  </g>
  <g
     aria-label="アプリケーション層"
     id="text2002"
     style="font-weight:500;font-size:22px;line-height:125%;font-family:Poppins;-inkscape-font-specification:'Poppins Medium';letter-spacing:0;word-spacing:0;fill:#ffffff">
    <path
       d="m 432.684,136.122 c 0.066,0.572 0.088,1.056 0.088,1.584 0,3.674 -0.484,6.82 -3.894,8.91 -0.616,0.418 -1.364,0.77 -1.958,0.968 l 1.606,1.32 c 5.61,-2.794 6.138,-6.82 6.138,-12.782 z m 9.68,-3.938 c -0.33,0.066 -1.122,0.132 -1.54,0.132 h -12.628 c -0.814,0 -1.738,-0.088 -2.508,-0.176 v 1.98 c 0.88,-0.088 1.694,-0.132 2.508,-0.132 h 12.518 c -0.704,1.364 -2.772,3.74 -4.796,4.928 l 1.452,1.166 c 2.508,-1.738 4.598,-4.576 5.478,-6.072 0.154,-0.242 0.44,-0.572 0.594,-0.792 z"
       style="font-weight:normal;font-family:'Noto Sans CJK JP';-inkscape-font-specification:'Noto Sans CJK JP';text-align:center;text-anchor:middle"
       id="path2951" />
    <path
       d="m 464.122,133.746 c -0.814,0 -1.452,-0.66 -1.452,-1.452 0,-0.792 0.638,-1.474 1.452,-1.474 0.792,0 1.452,0.682 1.452,1.474 0,0.792 -0.66,1.452 -1.452,1.452 z M 450.02,133.02 c -0.726,0 -1.606,-0.066 -2.2,-0.132 v 1.936 c 0.55,-0.022 1.32,-0.066 2.178,-0.066 h 11.264 c -0.308,2.112 -1.32,5.17 -2.882,7.172 -1.848,2.354 -4.312,4.224 -8.58,5.28 l 1.496,1.65 c 4.026,-1.254 6.644,-3.3 8.668,-5.874 1.738,-2.266 2.794,-5.808 3.278,-8.118 l 0.044,-0.242 c 0.264,0.088 0.55,0.132 0.836,0.132 1.364,0 2.464,-1.1 2.464,-2.464 0,-1.364 -1.1,-2.486 -2.464,-2.486 -1.364,0 -2.464,1.122 -2.464,2.486 0,0.242 0.044,0.484 0.11,0.704 -0.264,0.022 -0.506,0.022 -0.726,0.022 z"
       style="font-weight:normal;font-family:'Noto Sans CJK JP';-inkscape-font-specification:'Noto Sans CJK JP';text-align:center;text-anchor:middle"
       id="path2953" />
    <path
       d="m 471.822,131.568 c 0.044,0.418 0.088,1.188 0.088,1.584 v 7.326 c 0,0.66 -0.066,1.364 -0.088,1.694 h 2.024 c -0.044,-0.396 -0.066,-1.122 -0.066,-1.672 v -7.348 c 0,-0.528 0.022,-1.166 0.066,-1.584 z m 10.186,-0.154 c 0.044,0.528 0.11,1.166 0.11,1.892 v 3.476 c 0,4.158 -0.264,5.94 -1.848,7.766 -1.364,1.54 -3.256,2.42 -5.28,2.926 l 1.43,1.518 c 1.606,-0.55 3.806,-1.496 5.236,-3.212 1.584,-1.892 2.288,-3.63 2.288,-8.91 v -3.564 c 0,-0.726 0.044,-1.364 0.088,-1.892 z"
       style="font-weight:normal;font-family:'Noto Sans CJK JP';-inkscape-font-specification:'Noto Sans CJK JP';text-align:center;text-anchor:middle"
       id="path2955" />
    <path
       d="m 496.638,134.846 c 0.33,-0.792 0.616,-1.584 0.836,-2.222 0.154,-0.462 0.352,-1.034 0.55,-1.54 l -2.112,-0.418 c -0.044,0.638 -0.176,1.232 -0.33,1.76 -0.242,0.836 -0.638,1.98 -1.254,3.08 -0.748,1.342 -2.332,3.586 -3.916,4.73 l 1.738,1.034 c 1.298,-1.056 2.772,-3.058 3.674,-4.708 h 5.632 c -0.308,5.588 -2.684,8.47 -4.84,10.098 -0.484,0.396 -1.166,0.77 -1.782,1.012 l 1.87,1.276 c 3.784,-2.42 6.248,-6.094 6.6,-12.386 h 3.718 c 0.506,0 1.364,0.022 2.068,0.066 v -1.892 c -0.638,0.088 -1.518,0.11 -2.068,0.11 z"
       style="font-weight:normal;font-family:'Noto Sans CJK JP';-inkscape-font-specification:'Noto Sans CJK JP';text-align:center;text-anchor:middle"
       id="path2957" />
    <path
       d="m 513.204,140.72 c 0.682,-0.066 1.848,-0.11 3.058,-0.11 h 12.078 c 0.99,0 1.914,0.088 2.354,0.11 v -2.156 c -0.484,0.044 -1.276,0.11 -2.376,0.11 h -12.056 c -1.232,0 -2.398,-0.066 -3.058,-0.11 z"
       style="font-weight:normal;font-family:'Noto Sans CJK JP';-inkscape-font-specification:'Noto Sans CJK JP';text-align:center;text-anchor:middle"
       id="path2959" />
    <path
       d="m 539.14199,131.194 -0.99,1.474 c 1.298,0.748 3.674,2.332 4.73,3.124 l 1.034,-1.496 c -0.946,-0.704 -3.476,-2.376 -4.774,-3.102 z m -3.3,15.708 1.012,1.804 c 2.046,-0.418 5.082,-1.452 7.304,-2.728 3.498,-2.068 6.534,-4.906 8.448,-7.876 l -1.056,-1.804 c -1.782,3.102 -4.686,5.962 -8.338,8.052 -2.222,1.276 -4.95,2.134 -7.37,2.552 z m -0.022,-10.758 -0.968,1.496 c 1.32,0.682 3.718,2.222 4.796,3.014 l 1.012,-1.54 c -0.968,-0.704 -3.52,-2.266 -4.84,-2.97 z"
       style="font-weight:normal;font-family:'Noto Sans CJK JP';-inkscape-font-specification:'Noto Sans CJK JP';text-align:center;text-anchor:middle"
       id="path2961" />
    <path
       d="m 571.54799,149.322 c -0.022,-0.308 -0.044,-0.836 -0.044,-1.188 v -10.956 c 0,-0.418 0,-0.88 0.022,-1.122 -0.286,0.022 -0.858,0.044 -1.342,0.044 h -8.514 c -0.572,0 -1.826,-0.044 -2.244,-0.088 v 1.716 c 0.396,-0.022 1.672,-0.066 2.244,-0.066 h 8.162 v 3.674 h -7.964 c -0.748,0 -1.54,-0.066 -1.958,-0.088 v 1.694 c 0.44,-0.022 1.21,-0.044 1.98,-0.044 h 7.942 v 3.916 h -8.866 c -0.748,0 -1.452,-0.044 -1.804,-0.088 v 1.76 c 0.352,-0.022 1.122,-0.066 1.804,-0.066 h 8.866 c 0,0.352 0,0.704 -0.022,0.902 z"
       style="font-weight:normal;font-family:'Noto Sans CJK JP';-inkscape-font-specification:'Noto Sans CJK JP';text-align:center;text-anchor:middle"
       id="path2963" />
    <path
       d="m 581.51399,131.964 -1.254,1.342 c 1.628,1.1 4.378,3.454 5.478,4.598 l 1.386,-1.386 c -1.232,-1.232 -4.048,-3.52 -5.61,-4.554 z m -1.892,14.74 1.166,1.804 c 3.674,-0.682 6.446,-2.024 8.646,-3.432 3.322,-2.068 5.874,-5.06 7.392,-7.81 l -1.056,-1.87 c -1.276,2.706 -3.96,5.962 -7.348,8.096 -2.09,1.298 -4.95,2.64 -8.8,3.212 z"
       style="font-weight:normal;font-family:'Noto Sans CJK JP';-inkscape-font-specification:'Noto Sans CJK JP';text-align:center;text-anchor:middle"
       id="path2965" />
    <path
       d="m 615.45999,144.438 v 1.232 h -8.492 v -1.232 z m -8.492,3.542 v -1.298 h 8.492 v 1.298 z m -1.562,1.782 h 1.562 v -0.66 h 8.492 v 0.616 h 1.65 v -6.38 h -11.704 z m 10.956,-15.906 h -13.046 v -1.826 h 13.046 z m -7.48,2.772 c -0.198,-0.44 -0.616,-0.99 -1.056,-1.452 h 6.292 c -0.33,0.462 -0.748,1.034 -1.1,1.452 z m 7.502,2.354 h -4.554 v -1.32 h 4.554 z m 0,2.354 h -4.554 v -1.364 h 4.554 z m -10.45,-1.364 h 4.378 v 1.364 h -4.378 z m 0,-2.31 h 4.378 v 1.32 h -4.378 z m 12.056,-6.952 h -16.302 v 6.358 c 0,3.52 -0.198,8.338 -2.376,11.748 0.418,0.176 1.122,0.594 1.43,0.836 2.244,-3.542 2.574,-8.866 2.574,-12.584 v -1.892 h 3.542 l -0.528,0.198 c 0.352,0.374 0.704,0.814 0.968,1.254 h -2.882 v 5.742 h 13.53 v -5.742 h -3.344 c 0.374,-0.396 0.748,-0.836 1.1,-1.298 l -0.462,-0.154 h 2.75 z"
       style="font-weight:normal;font-family:'Noto Sans CJK JP';-inkscape-font-specification:'Noto Sans CJK JP';text-align:center;text-anchor:middle"
       id="path2967" />
  </g>
  <g
     aria-label="プレゼンテーション層"
     id="text2006"
     style="font-weight:500;font-size:22px;line-height:125%;font-family:Poppins;-inkscape-font-specification:'Poppins Medium';letter-spacing:0;word-spacing:0;fill:#ffffff">
    <path
       d="m 430.062,183.776 c -0.814,0 -1.452,-0.66 -1.452,-1.452 0,-0.792 0.638,-1.474 1.452,-1.474 0.792,0 1.452,0.682 1.452,1.474 0,0.792 -0.66,1.452 -1.452,1.452 z M 415.96,183.05 c -0.726,0 -1.606,-0.066 -2.2,-0.132 v 1.936 c 0.55,-0.022 1.32,-0.066 2.178,-0.066 h 11.264 c -0.308,2.112 -1.32,5.17 -2.882,7.172 -1.848,2.354 -4.312,4.224 -8.58,5.28 l 1.496,1.65 c 4.026,-1.254 6.644,-3.3 8.668,-5.874 1.738,-2.266 2.794,-5.808 3.278,-8.118 l 0.044,-0.242 c 0.264,0.088 0.55,0.132 0.836,0.132 1.364,0 2.464,-1.1 2.464,-2.464 0,-1.364 -1.1,-2.486 -2.464,-2.486 -1.364,0 -2.464,1.122 -2.464,2.486 0,0.242 0.044,0.484 0.11,0.704 -0.264,0.022 -0.506,0.022 -0.726,0.022 z"
       style="font-weight:normal;font-family:'Noto Sans CJK JP';-inkscape-font-specification:'Noto Sans CJK JP';text-align:center;text-anchor:middle"
       id="path2970" />
    <path
       d="m 439.06,198.516 c 0.33,-0.22 0.682,-0.33 0.924,-0.396 5.478,-1.606 10.01,-4.312 12.87,-7.854 l -0.99,-1.54 c -2.728,3.542 -7.832,6.446 -12.034,7.502 v -12.474 c 0,-0.638 0.066,-1.452 0.154,-2.002 h -2.156 c 0.066,0.44 0.176,1.408 0.176,2.002 v 12.584 c 0,0.44 -0.066,0.726 -0.22,1.078 z"
       style="font-weight:normal;font-family:'Noto Sans CJK JP';-inkscape-font-specification:'Noto Sans CJK JP';text-align:center;text-anchor:middle"
       id="path2972" />
    <path
       d="m 473.468,183.622 c -0.462,-0.88 -1.254,-2.222 -1.804,-3.014 l -1.166,0.506 c 0.594,0.836 1.342,2.156 1.782,3.036 z m -10.362,-0.088 c 0,-0.638 0.066,-1.386 0.154,-2.024 h -2.068 c 0.11,0.638 0.132,1.364 0.132,2.024 v 3.762 c -2.332,0.44 -4.4,0.814 -5.39,0.924 l 0.33,1.848 c 0.902,-0.198 2.838,-0.594 5.06,-1.034 v 6.644 c 0,2.156 0.77,3.234 4.862,3.234 2.75,0 4.95,-0.176 6.908,-0.462 l 0.066,-1.892 c -2.178,0.44 -4.29,0.66 -6.842,0.66 -2.64,0 -3.212,-0.484 -3.212,-2.002 v -6.556 c 3.894,-0.792 7.964,-1.606 8.338,-1.672 -0.66,1.298 -2.266,3.718 -3.916,5.236 l 1.518,0.902 c 1.782,-1.804 3.498,-4.576 4.51,-6.402 0.154,-0.264 0.396,-0.638 0.55,-0.88 l -1.298,-1.012 c -0.264,0.176 -0.682,0.286 -1.166,0.396 -0.924,0.22 -4.796,1.012 -8.536,1.738 z m 9.812,-3.3 c 0.638,0.814 1.342,2.068 1.826,3.014 l 1.188,-0.528 c -0.418,-0.814 -1.276,-2.178 -1.848,-2.992 z"
       style="font-weight:normal;font-family:'Noto Sans CJK JP';-inkscape-font-specification:'Noto Sans CJK JP';text-align:center;text-anchor:middle"
       id="path2974" />
    <path
       d="m 481.894,181.994 -1.254,1.342 c 1.628,1.1 4.378,3.454 5.478,4.598 l 1.386,-1.386 c -1.232,-1.232 -4.048,-3.52 -5.61,-4.554 z m -1.892,14.74 1.166,1.804 c 3.674,-0.682 6.446,-2.024 8.646,-3.432 3.322,-2.068 5.874,-5.06 7.392,-7.81 l -1.056,-1.87 c -1.276,2.706 -3.96,5.962 -7.348,8.096 -2.09,1.298 -4.95,2.64 -8.8,3.212 z"
       style="font-weight:normal;font-family:'Noto Sans CJK JP';-inkscape-font-specification:'Noto Sans CJK JP';text-align:center;text-anchor:middle"
       id="path2976" />
    <path
       d="m 514.52,183.6 c 0.638,0 1.408,0.022 2.046,0.066 v -1.826 c -0.638,0.088 -1.43,0.132 -2.046,0.132 h -8.91 c -0.704,0 -1.364,-0.066 -1.98,-0.132 v 1.826 c 0.55,-0.044 1.276,-0.066 2.002,-0.066 z m -11.594,3.872 c -0.682,0 -1.32,-0.044 -1.914,-0.11 v 1.826 c 0.594,-0.044 1.232,-0.044 1.914,-0.044 h 6.578 c -0.066,2.068 -0.308,3.916 -1.276,5.456 -0.858,1.386 -2.442,2.662 -4.158,3.366 l 1.628,1.188 c 1.87,-0.946 3.542,-2.53 4.334,-4.004 0.88,-1.628 1.232,-3.63 1.298,-6.006 h 5.984 c 0.528,0 1.232,0.022 1.716,0.044 v -1.826 c -0.528,0.088 -1.254,0.11 -1.716,0.11 z"
       style="font-weight:normal;font-family:'Noto Sans CJK JP';-inkscape-font-specification:'Noto Sans CJK JP';text-align:center;text-anchor:middle"
       id="path2978" />
    <path
       d="m 523.144,190.75 c 0.682,-0.066 1.848,-0.11 3.058,-0.11 h 12.078 c 0.99,0 1.914,0.088 2.354,0.11 v -2.156 c -0.484,0.044 -1.276,0.11 -2.376,0.11 h -12.056 c -1.232,0 -2.398,-0.066 -3.058,-0.11 z"
       style="font-weight:normal;font-family:'Noto Sans CJK JP';-inkscape-font-specification:'Noto Sans CJK JP';text-align:center;text-anchor:middle"
       id="path2980" />
    <path
       d="m 549.082,181.224 -0.99,1.474 c 1.298,0.748 3.674,2.332 4.73,3.124 l 1.034,-1.496 c -0.946,-0.704 -3.476,-2.376 -4.774,-3.102 z m -3.3,15.708 1.012,1.804 c 2.046,-0.418 5.082,-1.452 7.304,-2.728 3.498,-2.068 6.534,-4.906 8.448,-7.876 l -1.056,-1.804 c -1.782,3.102 -4.686,5.962 -8.338,8.052 -2.222,1.276 -4.95,2.134 -7.37,2.552 z m -0.022,-10.758 -0.968,1.496 c 1.32,0.682 3.718,2.222 4.796,3.014 l 1.012,-1.54 c -0.968,-0.704 -3.52,-2.266 -4.84,-2.97 z"
       style="font-weight:normal;font-family:'Noto Sans CJK JP';-inkscape-font-specification:'Noto Sans CJK JP';text-align:center;text-anchor:middle"
       id="path2982" />
    <path
       d="m 581.488,199.352 c -0.022,-0.308 -0.044,-0.836 -0.044,-1.188 v -10.956 c 0,-0.418 0,-0.88 0.022,-1.122 -0.286,0.022 -0.858,0.044 -1.342,0.044 h -8.514 c -0.572,0 -1.826,-0.044 -2.244,-0.088 v 1.716 c 0.396,-0.022 1.672,-0.066 2.244,-0.066 h 8.162 v 3.674 h -7.964 c -0.748,0 -1.54,-0.066 -1.958,-0.088 v 1.694 c 0.44,-0.022 1.21,-0.044 1.98,-0.044 h 7.942 v 3.916 h -8.866 c -0.748,0 -1.452,-0.044 -1.804,-0.088 v 1.76 c 0.352,-0.022 1.122,-0.066 1.804,-0.066 h 8.866 c 0,0.352 0,0.704 -0.022,0.902 z"
       style="font-weight:normal;font-family:'Noto Sans CJK JP';-inkscape-font-specification:'Noto Sans CJK JP';text-align:center;text-anchor:middle"
       id="path2984" />
    <path
       d="m 591.454,181.994 -1.254,1.342 c 1.628,1.1 4.378,3.454 5.478,4.598 l 1.386,-1.386 c -1.232,-1.232 -4.048,-3.52 -5.61,-4.554 z m -1.892,14.74 1.166,1.804 c 3.674,-0.682 6.446,-2.024 8.646,-3.432 3.322,-2.068 5.874,-5.06 7.392,-7.81 l -1.056,-1.87 c -1.276,2.706 -3.96,5.962 -7.348,8.096 -2.09,1.298 -4.95,2.64 -8.8,3.212 z"
       style="font-weight:normal;font-family:'Noto Sans CJK JP';-inkscape-font-specification:'Noto Sans CJK JP';text-align:center;text-anchor:middle"
       id="path2986" />
    <path
       d="m 625.4,194.468 v 1.232 h -8.492 v -1.232 z m -8.492,3.542 v -1.298 h 8.492 v 1.298 z m -1.562,1.782 h 1.562 v -0.66 h 8.492 v 0.616 h 1.65 v -6.38 h -11.704 z m 10.956,-15.906 h -13.046 v -1.826 h 13.046 z m -7.48,2.772 c -0.198,-0.44 -0.616,-0.99 -1.056,-1.452 h 6.292 c -0.33,0.462 -0.748,1.034 -1.1,1.452 z m 7.502,2.354 h -4.554 v -1.32 h 4.554 z m 0,2.354 h -4.554 v -1.364 h 4.554 z m -10.45,-1.364 h 4.378 v 1.364 h -4.378 z m 0,-2.31 h 4.378 v 1.32 h -4.378 z m 12.056,-6.952 h -16.302 v 6.358 c 0,3.52 -0.198,8.338 -2.376,11.748 0.418,0.176 1.122,0.594 1.43,0.836 2.244,-3.542 2.574,-8.866 2.574,-12.584 v -1.892 h 3.542 l -0.528,0.198 c 0.352,0.374 0.704,0.814 0.968,1.254 h -2.882 v 5.742 h 13.53 v -5.742 h -3.344 c 0.374,-0.396 0.748,-0.836 1.1,-1.298 l -0.462,-0.154 h 2.75 z"
       style="font-weight:normal;font-family:'Noto Sans CJK JP';-inkscape-font-specification:'Noto Sans CJK JP';text-align:center;text-anchor:middle"
       id="path2988" />
  </g>
  <g
     aria-label="セッション層"
     id="text2010"
     style="font-weight:500;font-size:22px;line-height:125%;font-family:Poppins;-inkscape-font-specification:'Poppins Medium';letter-spacing:0;word-spacing:0;fill:#ffffff">
    <path
       d="m 471.29397,242.752 c 1.76,-1.826 3.476,-4.576 4.488,-6.402 0.154,-0.286 0.396,-0.66 0.55,-0.88 l -1.298,-1.012 c -0.264,0.154 -0.682,0.286 -1.166,0.396 -0.924,0.198 -4.774,0.99 -8.514,1.716 v -3.432 c 0,-0.638 0.044,-1.386 0.154,-2.024 h -2.09 c 0.11,0.638 0.154,1.364 0.154,2.024 v 3.762 c -2.332,0.44 -4.422,0.814 -5.412,0.946 l 0.352,1.848 c 0.88,-0.198 2.838,-0.616 5.06,-1.056 v 6.644 c 0,2.178 0.748,3.234 4.84,3.234 2.75,0 4.95,-0.176 6.908,-0.44 l 0.088,-1.892 c -2.2,0.418 -4.312,0.638 -6.864,0.638 -2.64,0 -3.19,-0.484 -3.19,-2.002 v -6.534 c 3.894,-0.792 7.942,-1.606 8.316,-1.694 -0.66,1.32 -2.266,3.74 -3.916,5.236 z"
       style="font-weight:normal;font-family:'Noto Sans CJK JP';-inkscape-font-specification:'Noto Sans CJK JP';text-align:center;text-anchor:middle"
       id="path2991" />
    <path
       d="m 489.46597,235.448 -1.606,0.55 c 0.462,0.99 1.474,3.784 1.716,4.774 l 1.628,-0.572 c -0.286,-0.968 -1.364,-3.872 -1.738,-4.752 z m 6.072,0.638 c -0.33,2.816 -1.474,5.61 -3.036,7.524 -1.804,2.266 -4.598,3.938 -7.15,4.664 l 1.452,1.496 c 2.464,-0.946 5.148,-2.662 7.172,-5.236 1.584,-1.98 2.53,-4.334 3.124,-6.754 0.088,-0.286 0.176,-0.638 0.33,-1.1 z m -11.176,0.462 -1.628,0.638 c 0.44,0.77 1.628,3.806 1.958,4.95 l 1.672,-0.616 c -0.418,-1.144 -1.562,-4.026 -2.002,-4.972 z"
       style="font-weight:normal;font-family:'Noto Sans CJK JP';-inkscape-font-specification:'Noto Sans CJK JP';text-align:center;text-anchor:middle"
       id="path2993" />
    <path
       d="m 507.46197,231.224 -0.99,1.474 c 1.298,0.748 3.674,2.332 4.73,3.124 l 1.034,-1.496 c -0.946,-0.704 -3.476,-2.376 -4.774,-3.102 z m -3.3,15.708 1.012,1.804 c 2.046,-0.418 5.082,-1.452 7.304,-2.728 3.498,-2.068 6.534,-4.906 8.448,-7.876 l -1.056,-1.804 c -1.782,3.102 -4.686,5.962 -8.338,8.052 -2.222,1.276 -4.95,2.134 -7.37,2.552 z m -0.022,-10.758 -0.968,1.496 c 1.32,0.682 3.718,2.222 4.796,3.014 l 1.012,-1.54 c -0.968,-0.704 -3.52,-2.266 -4.84,-2.97 z"
       style="font-weight:normal;font-family:'Noto Sans CJK JP';-inkscape-font-specification:'Noto Sans CJK JP';text-align:center;text-anchor:middle"
       id="path2995" />
    <path
       d="m 539.86797,249.352 c -0.022,-0.308 -0.044,-0.836 -0.044,-1.188 v -10.956 c 0,-0.418 0,-0.88 0.022,-1.122 -0.286,0.022 -0.858,0.044 -1.342,0.044 h -8.514 c -0.572,0 -1.826,-0.044 -2.244,-0.088 v 1.716 c 0.396,-0.022 1.672,-0.066 2.244,-0.066 h 8.162 v 3.674 h -7.964 c -0.748,0 -1.54,-0.066 -1.958,-0.088 v 1.694 c 0.44,-0.022 1.21,-0.044 1.98,-0.044 h 7.942 v 3.916 h -8.866 c -0.748,0 -1.452,-0.044 -1.804,-0.088 v 1.76 c 0.352,-0.022 1.122,-0.066 1.804,-0.066 h 8.866 c 0,0.352 0,0.704 -0.022,0.902 z"
       style="font-weight:normal;font-family:'Noto Sans CJK JP';-inkscape-font-specification:'Noto Sans CJK JP';text-align:center;text-anchor:middle"
       id="path2997" />
    <path
       d="m 549.83397,231.994 -1.254,1.342 c 1.628,1.1 4.378,3.454 5.478,4.598 l 1.386,-1.386 c -1.232,-1.232 -4.048,-3.52 -5.61,-4.554 z m -1.892,14.74 1.166,1.804 c 3.674,-0.682 6.446,-2.024 8.646,-3.432 3.322,-2.068 5.874,-5.06 7.392,-7.81 l -1.056,-1.87 c -1.276,2.706 -3.96,5.962 -7.348,8.096 -2.09,1.298 -4.95,2.64 -8.8,3.212 z"
       style="font-weight:normal;font-family:'Noto Sans CJK JP';-inkscape-font-specification:'Noto Sans CJK JP';text-align:center;text-anchor:middle"
       id="path2999" />
    <path
       d="m 583.77997,244.468 v 1.232 h -8.492 v -1.232 z m -8.492,3.542 v -1.298 h 8.492 v 1.298 z m -1.562,1.782 h 1.562 v -0.66 h 8.492 v 0.616 h 1.65 v -6.38 h -11.704 z m 10.956,-15.906 h -13.046 v -1.826 h 13.046 z m -7.48,2.772 c -0.198,-0.44 -0.616,-0.99 -1.056,-1.452 h 6.292 c -0.33,0.462 -0.748,1.034 -1.1,1.452 z m 7.502,2.354 h -4.554 v -1.32 h 4.554 z m 0,2.354 h -4.554 v -1.364 h 4.554 z m -10.45,-1.364 h 4.378 v 1.364 h -4.378 z m 0,-2.31 h 4.378 v 1.32 h -4.378 z m 12.056,-6.952 h -16.302 v 6.358 c 0,3.52 -0.198,8.338 -2.376,11.748 0.418,0.176 1.122,0.594 1.43,0.836 2.244,-3.542 2.574,-8.866 2.574,-12.584 v -1.892 h 3.542 l -0.528,0.198 c 0.352,0.374 0.704,0.814 0.968,1.254 h -2.882 v 5.742 h 13.53 v -5.742 h -3.344 c 0.374,-0.396 0.748,-0.836 1.1,-1.298 l -0.462,-0.154 h 2.75 z"
       style="font-weight:normal;font-family:'Noto Sans CJK JP';-inkscape-font-specification:'Noto Sans CJK JP';text-align:center;text-anchor:middle"
       id="path3001" />
  </g>
  <g
     aria-label="トランスポート層"
     id="text2014"
     style="font-weight:500;font-size:22px;line-height:125%;font-family:Poppins;-inkscape-font-specification:'Poppins Medium';letter-spacing:0;word-spacing:0;fill:#ffffff">
    <path
       d="m 446.44397,309.73601 c -2.332,-1.166 -6.49,-2.75 -9.394,-3.63 v -3.586 c 0,-0.66 0.088,-1.606 0.154,-2.288 h -2.156 c 0.132,0.682 0.176,1.672 0.176,2.288 v 12.804 c 0,0.814 -0.044,1.892 -0.132,2.596 h 2.112 c -0.088,-0.726 -0.132,-1.892 -0.132,-2.596 l -0.022,-7.26 c 2.442,0.77 6.248,2.244 8.646,3.542 z"
       style="font-weight:normal;font-family:'Noto Sans CJK JP';-inkscape-font-specification:'Noto Sans CJK JP';text-align:center;text-anchor:middle"
       id="path3004" />
    <path
       d="m 467.87197,305.88601 c -0.242,0.132 -0.704,0.176 -1.21,0.176 h -11.594 c -0.594,0 -1.342,-0.044 -2.134,-0.132 v 1.848 c 0.77,-0.044 1.606,-0.066 2.134,-0.066 h 11.682 c -0.396,1.584 -1.276,3.454 -2.618,4.862 -1.87,1.958 -4.62,3.388 -7.744,4.026 l 1.364,1.562 c 2.794,-0.77 5.566,-2.068 7.876,-4.598 1.628,-1.782 2.618,-4.07 3.212,-6.248 0.044,-0.154 0.176,-0.44 0.286,-0.638 z m -12.98,-3.19 c 0.594,-0.044 1.298,-0.066 1.98,-0.066 h 8.624 c 0.748,0 1.496,0.022 2.024,0.066 v -1.826 c -0.528,0.088 -1.298,0.11 -2.002,0.11 h -8.646 c -0.704,0 -1.408,-0.022 -1.98,-0.11 z"
       style="font-weight:normal;font-family:'Noto Sans CJK JP';-inkscape-font-specification:'Noto Sans CJK JP';text-align:center;text-anchor:middle"
       id="path3006" />
    <path
       d="m 476.80397,301.13401 -1.254,1.342 c 1.628,1.1 4.378,3.454 5.478,4.598 l 1.386,-1.386 c -1.232,-1.232 -4.048,-3.52 -5.61,-4.554 z m -1.892,14.74 1.166,1.804 c 3.674,-0.682 6.446,-2.024 8.646,-3.432 3.322,-2.068 5.874,-5.06 7.392,-7.81 l -1.056,-1.87 c -1.276,2.706 -3.96,5.962 -7.348,8.096 -2.09,1.298 -4.95,2.64 -8.8,3.212 z"
       style="font-weight:normal;font-family:'Noto Sans CJK JP';-inkscape-font-specification:'Noto Sans CJK JP';text-align:center;text-anchor:middle"
       id="path3008" />
    <path
       d="m 509.84796,301.68401 c -0.352,0.11 -0.924,0.198 -1.65,0.198 h -8.492 c -0.66,0 -1.914,-0.11 -2.222,-0.154 v 2.002 c 0.242,-0.022 1.452,-0.11 2.222,-0.11 h 8.58 c -0.55,1.804 -2.156,4.422 -3.652,6.116 -2.266,2.53 -5.522,5.148 -9.064,6.534 l 1.408,1.474 c 3.256,-1.474 6.226,-3.894 8.58,-6.424 2.244,2.002 4.576,4.598 6.05,6.534 l 1.54,-1.342 c -1.43,-1.716 -4.114,-4.576 -6.424,-6.556 1.562,-1.98 2.948,-4.554 3.696,-6.446 0.132,-0.308 0.418,-0.792 0.55,-0.968 z"
       style="font-weight:normal;font-family:'Noto Sans CJK JP';-inkscape-font-specification:'Noto Sans CJK JP';text-align:center;text-anchor:middle"
       id="path3010" />
    <path
       d="m 533.36596,299.59401 c 0.792,0 1.408,0.638 1.408,1.408 0,0.792 -0.616,1.408 -1.408,1.408 -0.77,0 -1.386,-0.616 -1.386,-1.408 0,-0.77 0.616,-1.408 1.386,-1.408 z m 0,3.806 c 1.342,0 2.42,-1.056 2.42,-2.398 0,-1.32 -1.078,-2.42 -2.42,-2.42 -1.32,0 -2.398,1.1 -2.398,2.42 0,1.342 1.078,2.398 2.398,2.398 z m -12.452,5.038 c -0.858,1.782 -2.75,4.4 -4.202,5.764 l 1.518,1.034 c 1.232,-1.364 3.3,-4.158 4.224,-6.05 z m 12.078,-2.64 c 0.528,0 1.188,0 1.782,0.044 v -1.826 c -0.55,0.088 -1.276,0.11 -1.804,0.11 h -5.808 v -2.244 c 0,-0.484 0.066,-1.276 0.132,-1.584 h -2.068 c 0.088,0.33 0.154,1.078 0.154,1.562 v 2.266 h -6.116 c -0.704,0 -1.254,-0.044 -1.87,-0.11 v 1.848 c 0.594,-0.044 1.21,-0.066 1.87,-0.066 h 6.116 v 9.922 c 0,0.572 -0.264,0.836 -0.858,0.836 -0.572,0 -1.584,-0.088 -2.552,-0.264 l 0.176,1.76 c 0.88,0.088 2.2,0.154 3.124,0.154 1.32,0 1.892,-0.594 1.892,-1.76 v -10.648 z m -2.838,3.454 c 1.166,1.386 2.816,4.136 3.674,5.852 l 1.628,-0.902 c -0.88,-1.584 -2.64,-4.334 -3.806,-5.742 z"
       style="font-weight:normal;font-family:'Noto Sans CJK JP';-inkscape-font-specification:'Noto Sans CJK JP';text-align:center;text-anchor:middle"
       id="path3012" />
    <path
       d="m 539.61396,309.89001 c 0.682,-0.066 1.848,-0.11 3.058,-0.11 h 12.078 c 0.99,0 1.914,0.088 2.354,0.11 v -2.156 c -0.484,0.044 -1.276,0.11 -2.376,0.11 h -12.056 c -1.232,0 -2.398,-0.066 -3.058,-0.11 z"
       style="font-weight:normal;font-family:'Noto Sans CJK JP';-inkscape-font-specification:'Noto Sans CJK JP';text-align:center;text-anchor:middle"
       id="path3014" />
    <path
       d="m 578.00397,309.73601 c -2.332,-1.166 -6.49,-2.75 -9.394,-3.63 v -3.586 c 0,-0.66 0.088,-1.606 0.154,-2.288 h -2.156 c 0.132,0.682 0.176,1.672 0.176,2.288 v 12.804 c 0,0.814 -0.044,1.892 -0.132,2.596 h 2.112 c -0.088,-0.726 -0.132,-1.892 -0.132,-2.596 l -0.022,-7.26 c 2.442,0.77 6.248,2.244 8.646,3.542 z"
       style="font-weight:normal;font-family:'Noto Sans CJK JP';-inkscape-font-specification:'Noto Sans CJK JP';text-align:center;text-anchor:middle"
       id="path3016" />
    <path
       d="m 598.30997,313.60801 v 1.232 h -8.492 v -1.232 z m -8.492,3.542 v -1.298 h 8.492 v 1.298 z m -1.562,1.782 h 1.562 v -0.66 h 8.492 v 0.616 h 1.65 v -6.38 h -11.704 z m 10.956,-15.906 h -13.046 v -1.826 h 13.046 z m -7.48,2.772 c -0.198,-0.44 -0.616,-0.99 -1.056,-1.452 h 6.292 c -0.33,0.462 -0.748,1.034 -1.1,1.452 z m 7.502,2.354 h -4.554 v -1.32 h 4.554 z m 0,2.354 h -4.554 v -1.364 h 4.554 z m -10.45,-1.364 h 4.378 v 1.364 h -4.378 z m 0,-2.31 h 4.378 v 1.32 h -4.378 z m 12.056,-6.952 h -16.302 v 6.358 c 0,3.52 -0.198,8.338 -2.376,11.748 0.418,0.176 1.122,0.594 1.43,0.836 2.244,-3.542 2.574,-8.866 2.574,-12.584 v -1.892 h 3.542 l -0.528,0.198 c 0.352,0.374 0.704,0.814 0.968,1.254 h -2.882 v 5.742 h 13.53 v -5.742 h -3.344 c 0.374,-0.396 0.748,-0.836 1.1,-1.298 l -0.462,-0.154 h 2.75 z"
       style="font-weight:normal;font-family:'Noto Sans CJK JP';-inkscape-font-specification:'Noto Sans CJK JP';text-align:center;text-anchor:middle"
       id="path3018" />
  </g>
  <g
     aria-label="ネットワーク層"
     id="text2018"
     style="font-weight:500;font-size:22px;line-height:125%;font-family:Poppins;-inkscape-font-specification:'Poppins Medium';letter-spacing:0;word-spacing:0;fill:#ffffff">
    <path
       d="m 461.72004,373.38001 c -0.374,0.11 -0.88,0.132 -1.386,0.132 h -3.63 v -1.408 c 0,-0.616 0.044,-1.452 0.132,-1.936 h -2.024 c 0.088,0.484 0.132,1.32 0.132,1.936 v 1.408 h -4.312 c -0.748,0 -1.98,-0.022 -2.662,-0.11 v 1.848 c 0.66,-0.044 1.914,-0.088 2.684,-0.088 h 9.13 c -0.748,1.034 -2.508,2.75 -4.466,4.026 -2.002,1.298 -4.752,2.75 -8.91,3.74 l 1.056,1.628 c 2.97,-0.902 5.39,-1.87 7.436,-3.058 0,1.496 -0.022,3.52 -0.022,4.796 0,0.77 -0.044,1.782 -0.132,2.42 h 2.002 c -0.044,-0.682 -0.11,-1.65 -0.11,-2.42 0,-1.474 0.022,-4.114 0.022,-5.918 2.024,-1.408 3.872,-3.256 4.972,-4.576 0.352,-0.396 0.836,-0.902 1.232,-1.32 z m -3.124,8.074 c 2.068,1.1 3.388,1.98 5.302,3.388 l 1.144,-1.496 c -2.046,-1.386 -3.234,-2.068 -5.302,-3.19 z"
       style="font-weight:normal;font-family:'Noto Sans CJK JP';-inkscape-font-specification:'Noto Sans CJK JP';text-align:center;text-anchor:middle"
       id="path3021" />
    <path
       d="m 477.29604,375.11801 -1.606,0.55 c 0.462,0.99 1.474,3.784 1.716,4.774 l 1.628,-0.572 c -0.286,-0.968 -1.364,-3.872 -1.738,-4.752 z m 6.072,0.638 c -0.33,2.816 -1.474,5.61 -3.036,7.524 -1.804,2.266 -4.598,3.938 -7.15,4.664 l 1.452,1.496 c 2.464,-0.946 5.148,-2.662 7.172,-5.236 1.584,-1.98 2.53,-4.334 3.124,-6.754 0.088,-0.286 0.176,-0.638 0.33,-1.1 z m -11.176,0.462 -1.628,0.638 c 0.44,0.77 1.628,3.806 1.958,4.95 l 1.672,-0.616 c -0.418,-1.144 -1.562,-4.026 -2.002,-4.972 z"
       style="font-weight:normal;font-family:'Noto Sans CJK JP';-inkscape-font-specification:'Noto Sans CJK JP';text-align:center;text-anchor:middle"
       id="path3023" />
    <path
       d="m 507.30404,380.26601 c -2.332,-1.166 -6.49,-2.75 -9.394,-3.63 v -3.586 c 0,-0.66 0.088,-1.606 0.154,-2.288 h -2.156 c 0.132,0.682 0.176,1.672 0.176,2.288 v 12.804 c 0,0.814 -0.044,1.892 -0.132,2.596 h 2.112 c -0.088,-0.726 -0.132,-1.892 -0.132,-2.596 l -0.022,-7.26 c 2.442,0.77 6.248,2.244 8.646,3.542 z"
       style="font-weight:normal;font-family:'Noto Sans CJK JP';-inkscape-font-specification:'Noto Sans CJK JP';text-align:center;text-anchor:middle"
       id="path3025" />
    <path
       d="m 528.60004,372.25801 c -0.374,0.088 -0.902,0.132 -1.386,0.132 h -11.286 c -0.946,0 -1.76,-0.022 -2.354,-0.066 0.066,0.484 0.088,0.968 0.088,1.474 v 4.686 c 0,0.418 -0.022,0.88 -0.088,1.408 h 2.002 c -0.044,-0.528 -0.066,-1.078 -0.066,-1.408 v -4.4 h 12.144 c -0.22,2.596 -0.836,5.412 -2.09,7.37 -1.804,2.816 -4.95,4.73 -8.184,5.588 l 1.496,1.518 c 3.542,-1.144 6.556,-3.388 8.338,-6.204 1.584,-2.486 2.046,-5.61 2.442,-8.228 0.044,-0.198 0.198,-0.792 0.286,-1.012 z"
       style="font-weight:normal;font-family:'Noto Sans CJK JP';-inkscape-font-specification:'Noto Sans CJK JP';text-align:center;text-anchor:middle"
       id="path3027" />
    <path
       d="m 534.91404,380.42001 c 0.682,-0.066 1.848,-0.11 3.058,-0.11 h 12.078 c 0.99,0 1.914,0.088 2.354,0.11 v -2.156 c -0.484,0.044 -1.276,0.11 -2.376,0.11 h -12.056 c -1.232,0 -2.398,-0.066 -3.058,-0.11 z"
       style="font-weight:normal;font-family:'Noto Sans CJK JP';-inkscape-font-specification:'Noto Sans CJK JP';text-align:center;text-anchor:middle"
       id="path3029" />
    <path
       d="m 572.38004,373.16001 c -0.352,0.132 -0.836,0.198 -1.43,0.198 h -5.984 c 0.198,-0.308 0.374,-0.616 0.528,-0.924 0.22,-0.418 0.616,-1.144 0.99,-1.716 l -2.046,-0.682 c -0.132,0.572 -0.44,1.364 -0.682,1.738 -0.946,1.98 -3.102,5.17 -6.908,7.436 l 1.518,1.144 c 2.398,-1.606 4.246,-3.564 5.566,-5.412 h 7.436 c -0.44,2.002 -1.782,4.84 -3.498,6.864 -2.002,2.332 -4.752,4.334 -8.778,5.522 l 1.584,1.43 c 4.136,-1.518 6.754,-3.542 8.756,-5.984 1.958,-2.376 3.3,-5.368 3.894,-7.568 0.132,-0.352 0.352,-0.858 0.528,-1.166 z"
       style="font-weight:normal;font-family:'Noto Sans CJK JP';-inkscape-font-specification:'Noto Sans CJK JP';text-align:center;text-anchor:middle"
       id="path3031" />
    <path
       d="m 593.61004,384.13801 v 1.232 h -8.492 v -1.232 z m -8.492,3.542 v -1.298 h 8.492 v 1.298 z m -1.562,1.782 h 1.562 v -0.66 h 8.492 v 0.616 h 1.65 v -6.38 h -11.704 z m 10.956,-15.906 h -13.046 v -1.826 h 13.046 z m -7.48,2.772 c -0.198,-0.44 -0.616,-0.99 -1.056,-1.452 h 6.292 c -0.33,0.462 -0.748,1.034 -1.1,1.452 z m 7.502,2.354 h -4.554 v -1.32 h 4.554 z m 0,2.354 h -4.554 v -1.364 h 4.554 z m -10.45,-1.364 h 4.378 v 1.364 h -4.378 z m 0,-2.31 h 4.378 v 1.32 h -4.378 z m 12.056,-6.952 h -16.302 v 6.358 c 0,3.52 -0.198,8.338 -2.376,11.748 0.418,0.176 1.122,0.594 1.43,0.836 2.244,-3.542 2.574,-8.866 2.574,-12.584 v -1.892 h 3.542 l -0.528,0.198 c 0.352,0.374 0.704,0.814 0.968,1.254 h -2.882 v 5.742 h 13.53 v -5.742 h -3.344 c 0.374,-0.396 0.748,-0.836 1.1,-1.298 l -0.462,-0.154 h 2.75 z"
       style="font-weight:normal;font-family:'Noto Sans CJK JP';-inkscape-font-specification:'Noto Sans CJK JP';text-align:center;text-anchor:middle"
       id="path3033" />
  </g>
  <g
     aria-label="データリンク層"
     id="text2022"
     style="font-weight:500;font-size:22px;line-height:125%;font-family:Poppins;-inkscape-font-specification:'Poppins Medium';letter-spacing:0;word-spacing:0;fill:#ffffff">
    <path
       d="m 464.27401,448.27 c -0.462,-0.902 -1.254,-2.222 -1.804,-3.014 l -1.166,0.506 c 0.594,0.814 1.342,2.134 1.782,3.036 z m -4.994,0.528 c 0.638,0 1.408,0.022 2.046,0.066 v -1.826 c -0.638,0.088 -1.43,0.132 -2.046,0.132 h -7.612 c -0.704,0 -1.364,-0.066 -2.002,-0.132 v 1.826 c 0.572,-0.044 1.298,-0.066 2.024,-0.066 z m -10.296,3.872 c -0.682,0 -1.32,-0.044 -1.914,-0.088 v 1.804 c 0.594,-0.044 1.232,-0.044 1.914,-0.044 h 6.578 c -0.066,2.068 -0.308,3.916 -1.276,5.456 -0.858,1.386 -2.442,2.662 -4.158,3.366 l 1.628,1.21 c 1.87,-0.968 3.542,-2.552 4.334,-4.026 0.88,-1.628 1.232,-3.63 1.298,-6.006 h 5.984 c 0.528,0 1.232,0.022 1.716,0.044 v -1.804 c -0.528,0.066 -1.254,0.088 -1.716,0.088 z m 14.74,-7.81 c 0.638,0.836 1.342,2.068 1.826,3.036 l 1.188,-0.528 c -0.418,-0.814 -1.276,-2.2 -1.848,-2.992 z"
       style="font-weight:normal;font-family:'Noto Sans CJK JP';-inkscape-font-specification:'Noto Sans CJK JP';text-align:center;text-anchor:middle"
       id="path3036" />
    <path
       d="m 469.44401,455.75 c 0.682,-0.066 1.848,-0.11 3.058,-0.11 h 12.078 c 0.99,0 1.914,0.088 2.354,0.11 v -2.156 c -0.484,0.044 -1.276,0.11 -2.376,0.11 h -12.056 c -1.232,0 -2.398,-0.066 -3.058,-0.11 z"
       style="font-weight:normal;font-family:'Noto Sans CJK JP';-inkscape-font-specification:'Noto Sans CJK JP';text-align:center;text-anchor:middle"
       id="path3038" />
    <path
       d="m 506.95401,448.138 c -0.374,0.154 -0.858,0.22 -1.452,0.22 h -6.006 c 0.176,-0.286 0.33,-0.55 0.462,-0.814 0.22,-0.418 0.616,-1.166 0.968,-1.738 l -1.98,-0.638 c -0.154,0.572 -0.484,1.364 -0.704,1.76 -0.99,2.002 -3.278,5.302 -7.062,7.634 l 1.474,1.144 c 2.464,-1.672 4.422,-3.828 5.83,-5.786 h 7.48 c -0.418,1.738 -1.496,4.004 -2.838,5.874 -1.716,-1.034 -3.564,-2.09 -4.84,-2.75 l -1.122,1.298 c 1.232,0.682 3.08,1.782 4.818,2.904 -2.002,2.2 -4.862,4.312 -8.69,5.478 l 1.584,1.364 c 3.872,-1.43 6.644,-3.586 8.624,-5.852 0.836,0.572 1.562,1.1 2.09,1.518 l 1.21,-1.584 c -0.55,-0.396 -1.298,-0.902 -2.134,-1.43 1.54,-2.156 2.662,-4.598 3.212,-6.534 0.132,-0.352 0.33,-0.88 0.506,-1.188 z"
       style="font-weight:normal;font-family:'Noto Sans CJK JP';-inkscape-font-specification:'Noto Sans CJK JP';text-align:center;text-anchor:middle"
       id="path3040" />
    <path
       d="m 516.06201,446.598 c 0.044,0.418 0.088,1.188 0.088,1.584 v 7.326 c 0,0.66 -0.066,1.364 -0.088,1.694 h 2.024 c -0.044,-0.396 -0.066,-1.122 -0.066,-1.672 v -7.348 c 0,-0.528 0.022,-1.166 0.066,-1.584 z m 10.186,-0.154 c 0.044,0.528 0.11,1.166 0.11,1.892 v 3.476 c 0,4.158 -0.264,5.94 -1.848,7.766 -1.364,1.54 -3.256,2.42 -5.28,2.926 l 1.43,1.518 c 1.606,-0.55 3.806,-1.496 5.236,-3.212 1.584,-1.892 2.288,-3.63 2.288,-8.91 v -3.564 c 0,-0.726 0.044,-1.364 0.088,-1.892 z"
       style="font-weight:normal;font-family:'Noto Sans CJK JP';-inkscape-font-specification:'Noto Sans CJK JP';text-align:center;text-anchor:middle"
       id="path3042" />
    <path
       d="m 538.19401,446.994 -1.254,1.342 c 1.628,1.1 4.378,3.454 5.478,4.598 l 1.386,-1.386 c -1.232,-1.232 -4.048,-3.52 -5.61,-4.554 z m -1.892,14.74 1.166,1.804 c 3.674,-0.682 6.446,-2.024 8.646,-3.432 3.322,-2.068 5.874,-5.06 7.392,-7.81 l -1.056,-1.87 c -1.276,2.706 -3.96,5.962 -7.348,8.096 -2.09,1.298 -4.95,2.64 -8.8,3.212 z"
       style="font-weight:normal;font-family:'Noto Sans CJK JP';-inkscape-font-specification:'Noto Sans CJK JP';text-align:center;text-anchor:middle"
       id="path3044" />
    <path
       d="m 572.91001,448.49 c -0.352,0.132 -0.836,0.198 -1.43,0.198 h -5.984 c 0.198,-0.308 0.374,-0.616 0.528,-0.924 0.22,-0.418 0.616,-1.144 0.99,-1.716 l -2.046,-0.682 c -0.132,0.572 -0.44,1.364 -0.682,1.738 -0.946,1.98 -3.102,5.17 -6.908,7.436 l 1.518,1.144 c 2.398,-1.606 4.246,-3.564 5.566,-5.412 h 7.436 c -0.44,2.002 -1.782,4.84 -3.498,6.864 -2.002,2.332 -4.752,4.334 -8.778,5.522 l 1.584,1.43 c 4.136,-1.518 6.754,-3.542 8.756,-5.984 1.958,-2.376 3.3,-5.368 3.894,-7.568 0.132,-0.352 0.352,-0.858 0.528,-1.166 z"
       style="font-weight:normal;font-family:'Noto Sans CJK JP';-inkscape-font-specification:'Noto Sans CJK JP';text-align:center;text-anchor:middle"
       id="path3046" />
    <path
       d="m 594.14001,459.468 v 1.232 h -8.492 v -1.232 z m -8.492,3.542 v -1.298 h 8.492 v 1.298 z m -1.562,1.782 h 1.562 v -0.66 h 8.492 v 0.616 h 1.65 v -6.38 h -11.704 z m 10.956,-15.906 h -13.046 v -1.826 h 13.046 z m -7.48,2.772 c -0.198,-0.44 -0.616,-0.99 -1.056,-1.452 h 6.292 c -0.33,0.462 -0.748,1.034 -1.1,1.452 z m 7.502,2.354 h -4.554 v -1.32 h 4.554 z m 0,2.354 h -4.554 v -1.364 h 4.554 z m -10.45,-1.364 h 4.378 v 1.364 h -4.378 z m 0,-2.31 h 4.378 v 1.32 h -4.378 z m 12.056,-6.952 h -16.302 v 6.358 c 0,3.52 -0.198,8.338 -2.376,11.748 0.418,0.176 1.122,0.594 1.43,0.836 2.244,-3.542 2.574,-8.866 2.574,-12.584 v -1.892 h 3.542 l -0.528,0.198 c 0.352,0.374 0.704,0.814 0.968,1.254 h -2.882 v 5.742 h 13.53 v -5.742 h -3.344 c 0.374,-0.396 0.748,-0.836 1.1,-1.298 l -0.462,-0.154 h 2.75 z"
       style="font-weight:normal;font-family:'Noto Sans CJK JP';-inkscape-font-specification:'Noto Sans CJK JP';text-align:center;text-anchor:middle"
       id="path3048" />
  </g>
  <g
     aria-label="物理層"
     id="text2026"
     style="font-weight:500;font-size:22px;line-height:125%;font-family:Poppins;-inkscape-font-specification:'Poppins Medium';letter-spacing:0;word-spacing:0;fill:#ffffff">
    <path
       d="m 497.278,505.926 -0.22,-1.452 -2.552,0.792 v -4.488 h 2.266 v -1.584 h -2.266 v -4.466 h -1.518 v 4.466 h -1.694 c 0.154,-0.968 0.308,-1.98 0.418,-2.97 l -1.43,-0.242 c -0.264,2.684 -0.682,5.456 -1.518,7.326 0.352,0.132 0.968,0.528 1.254,0.726 0.396,-0.902 0.704,-2.024 0.968,-3.256 h 2.002 v 4.906 c -1.54,0.484 -2.948,0.858 -4.07,1.166 l 0.44,1.562 c 1.078,-0.33 2.332,-0.726 3.63,-1.122 v 7.524 h 1.518 v -8.008 z m 10.076,-7.546 v 0.022 h -7.04 c 0.396,-1.078 0.726,-2.222 0.99,-3.388 l -1.496,-0.308 c -0.726,3.322 -2.046,6.49 -3.85,8.448 0.33,0.22 0.99,0.682 1.254,0.946 0.946,-1.122 1.782,-2.574 2.508,-4.18 h 1.892 c -1.012,3.52 -2.97,7.194 -5.302,9.02 0.462,0.242 0.99,0.616 1.298,0.946 2.398,-2.09 4.422,-6.204 5.412,-9.966 h 1.804 c -1.144,5.522 -3.52,10.934 -7.128,13.53 0.484,0.242 1.056,0.638 1.364,0.99 3.652,-2.904 6.072,-8.756 7.172,-14.52 h 1.056 c -0.44,8.712 -0.924,11.968 -1.628,12.738 -0.242,0.286 -0.462,0.374 -0.814,0.374 -0.44,0 -1.32,-0.022 -2.31,-0.11 0.286,0.44 0.44,1.122 0.462,1.606 0.968,0.066 1.914,0.088 2.508,0 0.66,-0.066 1.1,-0.264 1.518,-0.836 0.88,-1.1 1.364,-4.51 1.848,-14.476 0.022,-0.198 0.022,-0.814 0.022,-0.814 z"
       style="font-weight:normal;font-family:'Noto Sans CJK JP';-inkscape-font-specification:'Noto Sans CJK JP';text-align:center;text-anchor:middle"
       id="path3051" />
    <path
       d="m 517.826,508.698 -2.398,0.792 v -5.434 h 2.222 v -1.54 h -2.222 v -4.774 h 2.53 v -1.54 h -6.82 v 1.54 h 2.728 v 4.774 h -2.508 v 1.54 h 2.508 v 5.918 c -1.122,0.374 -2.134,0.682 -2.948,0.924 l 0.374,1.65 c 1.958,-0.638 4.466,-1.496 6.82,-2.288 z m 2.706,-7.436 h 3.344 v 2.816 h -3.344 z m 0,-4.114 h 3.344 v 2.772 h -3.344 z m 8.118,2.772 h -3.366 v -2.772 h 3.366 z m 0,4.158 h -3.366 v -2.816 h 3.366 z m -3.234,8.514 v -3.014 h 5.126 v -1.496 h -5.126 v -2.574 h 4.796 v -9.79 h -11.176 v 9.79 h 4.73 v 2.574 h -4.994 v 1.496 h 4.994 v 3.014 h -6.688 v 1.496 h 14.168 v -1.496 z"
       style="font-weight:normal;font-family:'Noto Sans CJK JP';-inkscape-font-specification:'Noto Sans CJK JP';text-align:center;text-anchor:middle"
       id="path3053" />
    <path
       d="m 549,509.468 v 1.232 h -8.492 v -1.232 z m -8.492,3.542 v -1.298 H 549 v 1.298 z m -1.562,1.782 h 1.562 v -0.66 H 549 v 0.616 h 1.65 v -6.38 h -11.704 z m 10.956,-15.906 h -13.046 v -1.826 h 13.046 z m -7.48,2.772 c -0.198,-0.44 -0.616,-0.99 -1.056,-1.452 h 6.292 c -0.33,0.462 -0.748,1.034 -1.1,1.452 z m 7.502,2.354 h -4.554 v -1.32 h 4.554 z m 0,2.354 h -4.554 v -1.364 h 4.554 z m -10.45,-1.364 h 4.378 v 1.364 h -4.378 z m 0,-2.31 h 4.378 v 1.32 h -4.378 z m 12.056,-6.952 h -16.302 v 6.358 c 0,3.52 -0.198,8.338 -2.376,11.748 0.418,0.176 1.122,0.594 1.43,0.836 2.244,-3.542 2.574,-8.866 2.574,-12.584 v -1.892 h 3.542 l -0.528,0.198 c 0.352,0.374 0.704,0.814 0.968,1.254 h -2.882 v 5.742 h 13.53 v -5.742 h -3.344 c 0.374,-0.396 0.748,-0.836 1.1,-1.298 l -0.462,-0.154 h 2.75 z"
       style="font-weight:normal;font-family:'Noto Sans CJK JP';-inkscape-font-specification:'Noto Sans CJK JP';text-align:center;text-anchor:middle"
       id="path3055" />
  </g>
  <g
     aria-label="ネットワークアクセス層"
     id="text2030"
     style="font-weight:500;font-size:22px;line-height:125%;font-family:Poppins;-inkscape-font-specification:'Poppins Medium';letter-spacing:0;word-spacing:0">
    <path
       d="m 76.009995,473.38001 c -0.374,0.11 -0.88,0.132 -1.386,0.132 h -3.63 v -1.408 c 0,-0.616 0.044,-1.452 0.132,-1.936 h -2.024 c 0.088,0.484 0.132,1.32 0.132,1.936 v 1.408 h -4.312 c -0.748,0 -1.98,-0.022 -2.662,-0.11 v 1.848 c 0.66,-0.044 1.914,-0.088 2.684,-0.088 h 9.13 c -0.748,1.034 -2.508,2.75 -4.466,4.026 -2.002,1.298 -4.752,2.75 -8.91,3.74 l 1.056,1.628 c 2.97,-0.902 5.39,-1.87 7.436,-3.058 0,1.496 -0.022,3.52 -0.022,4.796 0,0.77 -0.044,1.782 -0.132,2.42 h 2.002 c -0.044,-0.682 -0.11,-1.65 -0.11,-2.42 0,-1.474 0.022,-4.114 0.022,-5.918 2.024,-1.408 3.872,-3.256 4.972,-4.576 0.352,-0.396 0.836,-0.902 1.232,-1.32 z m -3.124,8.074 c 2.068,1.1 3.388,1.98 5.302,3.388 l 1.144,-1.496 c -2.046,-1.386 -3.234,-2.068 -5.302,-3.19 z"
       style="font-weight:normal;font-family:'Noto Sans CJK JP';-inkscape-font-specification:'Noto Sans CJK JP';text-align:center;text-anchor:middle"
       id="path2839" />
    <path
       d="m 91.585995,475.11801 -1.606,0.55 c 0.462,0.99 1.474,3.784 1.716,4.774 l 1.628,-0.572 c -0.286,-0.968 -1.364,-3.872 -1.738,-4.752 z m 6.072,0.638 c -0.33,2.816 -1.474,5.61 -3.036,7.524 -1.804,2.266 -4.598,3.938 -7.15,4.664 l 1.452,1.496 c 2.464,-0.946 5.148,-2.662 7.172,-5.236 1.584,-1.98 2.53,-4.334 3.124,-6.754 0.088,-0.286 0.176,-0.638 0.33,-1.1 z m -11.176,0.462 -1.628,0.638 c 0.44,0.77 1.628,3.806 1.958,4.95 l 1.672,-0.616 c -0.418,-1.144 -1.562,-4.026 -2.002,-4.972 z"
       style="font-weight:normal;font-family:'Noto Sans CJK JP';-inkscape-font-specification:'Noto Sans CJK JP';text-align:center;text-anchor:middle"
       id="path2841" />
    <path
       d="m 121.594,480.26601 c -2.332,-1.166 -6.49,-2.75 -9.394,-3.63 v -3.586 c 0,-0.66 0.088,-1.606 0.154,-2.288 h -2.156 c 0.132,0.682 0.176,1.672 0.176,2.288 v 12.804 c 0,0.814 -0.044,1.892 -0.132,2.596 h 2.112 c -0.088,-0.726 -0.132,-1.892 -0.132,-2.596 l -0.022,-7.26 c 2.442,0.77 6.248,2.244 8.646,3.542 z"
       style="font-weight:normal;font-family:'Noto Sans CJK JP';-inkscape-font-specification:'Noto Sans CJK JP';text-align:center;text-anchor:middle"
       id="path2843" />
    <path
       d="m 142.89,472.25801 c -0.374,0.088 -0.902,0.132 -1.386,0.132 h -11.286 c -0.946,0 -1.76,-0.022 -2.354,-0.066 0.066,0.484 0.088,0.968 0.088,1.474 v 4.686 c 0,0.418 -0.022,0.88 -0.088,1.408 h 2.002 c -0.044,-0.528 -0.066,-1.078 -0.066,-1.408 v -4.4 h 12.144 c -0.22,2.596 -0.836,5.412 -2.09,7.37 -1.804,2.816 -4.95,4.73 -8.184,5.588 l 1.496,1.518 c 3.542,-1.144 6.556,-3.388 8.338,-6.204 1.584,-2.486 2.046,-5.61 2.442,-8.228 0.044,-0.198 0.198,-0.792 0.286,-1.012 z"
       style="font-weight:normal;font-family:'Noto Sans CJK JP';-inkscape-font-specification:'Noto Sans CJK JP';text-align:center;text-anchor:middle"
       id="path2845" />
    <path
       d="m 149.204,480.42001 c 0.682,-0.066 1.848,-0.11 3.058,-0.11 h 12.078 c 0.99,0 1.914,0.088 2.354,0.11 v -2.156 c -0.484,0.044 -1.276,0.11 -2.376,0.11 h -12.056 c -1.232,0 -2.398,-0.066 -3.058,-0.11 z"
       style="font-weight:normal;font-family:'Noto Sans CJK JP';-inkscape-font-specification:'Noto Sans CJK JP';text-align:center;text-anchor:middle"
       id="path2847" />
    <path
       d="m 186.67,473.16001 c -0.352,0.132 -0.836,0.198 -1.43,0.198 h -5.984 c 0.198,-0.308 0.374,-0.616 0.528,-0.924 0.22,-0.418 0.616,-1.144 0.99,-1.716 l -2.046,-0.682 c -0.132,0.572 -0.44,1.364 -0.682,1.738 -0.946,1.98 -3.102,5.17 -6.908,7.436 l 1.518,1.144 c 2.398,-1.606 4.246,-3.564 5.566,-5.412 h 7.436 c -0.44,2.002 -1.782,4.84 -3.498,6.864 -2.002,2.332 -4.752,4.334 -8.778,5.522 l 1.584,1.43 c 4.136,-1.518 6.754,-3.542 8.756,-5.984 1.958,-2.376 3.3,-5.368 3.894,-7.568 0.132,-0.352 0.352,-0.858 0.528,-1.166 z"
       style="font-weight:normal;font-family:'Noto Sans CJK JP';-inkscape-font-specification:'Noto Sans CJK JP';text-align:center;text-anchor:middle"
       id="path2849" />
    <path
       d="m 200.684,475.82201 c 0.066,0.572 0.088,1.056 0.088,1.584 0,3.674 -0.484,6.82 -3.894,8.91 -0.616,0.418 -1.364,0.77 -1.958,0.968 l 1.606,1.32 c 5.61,-2.794 6.138,-6.82 6.138,-12.782 z m 9.68,-3.938 c -0.33,0.066 -1.122,0.132 -1.54,0.132 h -12.628 c -0.814,0 -1.738,-0.088 -2.508,-0.176 v 1.98 c 0.88,-0.088 1.694,-0.132 2.508,-0.132 h 12.518 c -0.704,1.364 -2.772,3.74 -4.796,4.928 l 1.452,1.166 c 2.508,-1.738 4.598,-4.576 5.478,-6.072 0.154,-0.242 0.44,-0.572 0.594,-0.792 z"
       style="font-weight:normal;font-family:'Noto Sans CJK JP';-inkscape-font-specification:'Noto Sans CJK JP';text-align:center;text-anchor:middle"
       id="path2851" />
    <path
       d="m 229.57002,473.16001 c -0.352,0.132 -0.836,0.198 -1.43,0.198 h -5.984 c 0.198,-0.308 0.374,-0.616 0.528,-0.924 0.22,-0.418 0.616,-1.144 0.99,-1.716 l -2.046,-0.682 c -0.132,0.572 -0.44,1.364 -0.682,1.738 -0.946,1.98 -3.102,5.17 -6.908,7.436 l 1.518,1.144 c 2.398,-1.606 4.246,-3.564 5.566,-5.412 h 7.436 c -0.44,2.002 -1.782,4.84 -3.498,6.864 -2.002,2.332 -4.752,4.334 -8.778,5.522 l 1.584,1.43 c 4.136,-1.518 6.754,-3.542 8.756,-5.984 1.958,-2.376 3.3,-5.368 3.894,-7.568 0.132,-0.352 0.352,-0.858 0.528,-1.166 z"
       style="font-weight:normal;font-family:'Noto Sans CJK JP';-inkscape-font-specification:'Noto Sans CJK JP';text-align:center;text-anchor:middle"
       id="path2853" />
    <path
       d="m 248.31402,482.42201 c 1.76,-1.826 3.476,-4.576 4.488,-6.402 0.154,-0.286 0.396,-0.66 0.55,-0.88 l -1.298,-1.012 c -0.264,0.154 -0.682,0.286 -1.166,0.396 -0.924,0.198 -4.774,0.99 -8.514,1.716 v -3.432 c 0,-0.638 0.044,-1.386 0.154,-2.024 h -2.09 c 0.11,0.638 0.154,1.364 0.154,2.024 v 3.762 c -2.332,0.44 -4.422,0.814 -5.412,0.946 l 0.352,1.848 c 0.88,-0.198 2.838,-0.616 5.06,-1.056 v 6.644 c 0,2.178 0.748,3.234 4.84,3.234 2.75,0 4.95,-0.176 6.908,-0.44 l 0.088,-1.892 c -2.2,0.418 -4.312,0.638 -6.864,0.638 -2.64,0 -3.19,-0.484 -3.19,-2.002 v -6.534 c 3.894,-0.792 7.942,-1.606 8.316,-1.694 -0.66,1.32 -2.266,3.74 -3.916,5.236 z"
       style="font-weight:normal;font-family:'Noto Sans CJK JP';-inkscape-font-specification:'Noto Sans CJK JP';text-align:center;text-anchor:middle"
       id="path2855" />
    <path
       d="m 272.33802,472.21401 c -0.352,0.11 -0.924,0.198 -1.65,0.198 h -8.492 c -0.66,0 -1.914,-0.11 -2.222,-0.154 v 2.002 c 0.242,-0.022 1.452,-0.11 2.222,-0.11 h 8.58 c -0.55,1.804 -2.156,4.422 -3.652,6.116 -2.266,2.53 -5.522,5.148 -9.064,6.534 l 1.408,1.474 c 3.256,-1.474 6.226,-3.894 8.58,-6.424 2.244,2.002 4.576,4.598 6.05,6.534 l 1.54,-1.342 c -1.43,-1.716 -4.114,-4.576 -6.424,-6.556 1.562,-1.98 2.948,-4.554 3.696,-6.446 0.132,-0.308 0.418,-0.792 0.55,-0.968 z"
       style="font-weight:normal;font-family:'Noto Sans CJK JP';-inkscape-font-specification:'Noto Sans CJK JP';text-align:center;text-anchor:middle"
       id="path2857" />
    <path
       d="m 294.80002,484.13801 v 1.232 h -8.492 v -1.232 z m -8.492,3.542 v -1.298 h 8.492 v 1.298 z m -1.562,1.782 h 1.562 v -0.66 h 8.492 v 0.616 h 1.65 v -6.38 h -11.704 z m 10.956,-15.906 h -13.046 v -1.826 h 13.046 z m -7.48,2.772 c -0.198,-0.44 -0.616,-0.99 -1.056,-1.452 h 6.292 c -0.33,0.462 -0.748,1.034 -1.1,1.452 z m 7.502,2.354 h -4.554 v -1.32 h 4.554 z m 0,2.354 h -4.554 v -1.364 h 4.554 z m -10.45,-1.364 h 4.378 v 1.364 h -4.378 z m 0,-2.31 h 4.378 v 1.32 h -4.378 z m 12.056,-6.952 h -16.302 v 6.358 c 0,3.52 -0.198,8.338 -2.376,11.748 0.418,0.176 1.122,0.594 1.43,0.836 2.244,-3.542 2.574,-8.866 2.574,-12.584 v -1.892 h 3.542 l -0.528,0.198 c 0.352,0.374 0.704,0.814 0.968,1.254 h -2.882 v 5.742 h 13.53 v -5.742 h -3.344 c 0.374,-0.396 0.748,-0.836 1.1,-1.298 l -0.462,-0.154 h 2.75 z"
       style="font-weight:normal;font-family:'Noto Sans CJK JP';-inkscape-font-specification:'Noto Sans CJK JP';text-align:center;text-anchor:middle"
       id="path2859" />
  </g>
  <g
     aria-label="インターネット層"
     id="text2034"
     style="font-weight:500;font-size:22px;line-height:125%;font-family:Poppins;-inkscape-font-specification:'Poppins Medium';letter-spacing:0;word-spacing:0">
    <path
       d="m 103.22001,370.11799 c -1.232,1.562 -3.541999,3.476 -5.785999,4.862 -2.42,1.518 -6.16,3.19 -9.834,4.048 l 1.012,1.716 c 2.882,-0.858 5.918,-2.134 8.272,-3.432 v 8.316 c 0,0.836 -0.066,1.936 -0.132,2.354 h 2.156 c -0.088,-0.44 -0.132,-1.518 -0.132,-2.354 v -9.416 c 2.265999,-1.43 4.377999,-3.234 5.895999,-4.774 z"
       style="font-weight:normal;font-family:'Noto Sans CJK JP';-inkscape-font-specification:'Noto Sans CJK JP';text-align:center;text-anchor:middle"
       id="path2822" />
    <path
       d="m 112.72401,371.17399 -1.254,1.342 c 1.628,1.1 4.378,3.454 5.478,4.598 l 1.386,-1.386 c -1.232,-1.232 -4.048,-3.52 -5.61,-4.554 z m -1.892,14.74 1.166,1.804 c 3.674,-0.682 6.446,-2.024 8.646,-3.432 3.322,-2.068 5.874,-5.06 7.392,-7.81 l -1.056,-1.87 c -1.276,2.706 -3.96,5.962 -7.348,8.096 -2.09,1.298 -4.95,2.64 -8.8,3.212 z"
       style="font-weight:normal;font-family:'Noto Sans CJK JP';-inkscape-font-specification:'Noto Sans CJK JP';text-align:center;text-anchor:middle"
       id="path2824" />
    <path
       d="m 147.48401,372.31799 c -0.374,0.154 -0.858,0.22 -1.452,0.22 h -6.006 c 0.176,-0.286 0.33,-0.55 0.462,-0.814 0.22,-0.418 0.616,-1.166 0.968,-1.738 l -1.98,-0.638 c -0.154,0.572 -0.484,1.364 -0.704,1.76 -0.99,2.002 -3.278,5.302 -7.062,7.634 l 1.474,1.144 c 2.464,-1.672 4.422,-3.828 5.83,-5.786 h 7.48 c -0.418,1.738 -1.496,4.004 -2.838,5.874 -1.716,-1.034 -3.564,-2.09 -4.84,-2.75 l -1.122,1.298 c 1.232,0.682 3.08,1.782 4.818,2.904 -2.002,2.2 -4.862,4.312 -8.69,5.478 l 1.584,1.364 c 3.872,-1.43 6.644,-3.586 8.624,-5.852 0.836,0.572 1.562,1.1 2.09,1.518 l 1.21,-1.584 c -0.55,-0.396 -1.298,-0.902 -2.134,-1.43 1.54,-2.156 2.662,-4.598 3.212,-6.534 0.132,-0.352 0.33,-0.88 0.506,-1.188 z"
       style="font-weight:normal;font-family:'Noto Sans CJK JP';-inkscape-font-specification:'Noto Sans CJK JP';text-align:center;text-anchor:middle"
       id="path2826" />
    <path
       d="m 153.97401,379.92999 c 0.682,-0.066 1.848,-0.11 3.058,-0.11 h 12.078 c 0.99,0 1.914,0.088 2.354,0.11 v -2.156 c -0.484,0.044 -1.276,0.11 -2.376,0.11 h -12.056 c -1.232,0 -2.398,-0.066 -3.058,-0.11 z"
       style="font-weight:normal;font-family:'Noto Sans CJK JP';-inkscape-font-specification:'Noto Sans CJK JP';text-align:center;text-anchor:middle"
       id="path2828" />
    <path
       d="m 190.78001,372.88999 c -0.374,0.11 -0.88,0.132 -1.386,0.132 h -3.63 v -1.408 c 0,-0.616 0.044,-1.452 0.132,-1.936 h -2.024 c 0.088,0.484 0.132,1.32 0.132,1.936 v 1.408 h -4.312 c -0.748,0 -1.98,-0.022 -2.662,-0.11 v 1.848 c 0.66,-0.044 1.914,-0.088 2.684,-0.088 h 9.13 c -0.748,1.034 -2.508,2.75 -4.466,4.026 -2.002,1.298 -4.752,2.75 -8.91,3.74 l 1.056,1.628 c 2.97,-0.902 5.39,-1.87 7.436,-3.058 0,1.496 -0.022,3.52 -0.022,4.796 0,0.77 -0.044,1.782 -0.132,2.42 h 2.002 c -0.044,-0.682 -0.11,-1.65 -0.11,-2.42 0,-1.474 0.022,-4.114 0.022,-5.918 2.024,-1.408 3.872,-3.256 4.972,-4.576 0.352,-0.396 0.836,-0.902 1.232,-1.32 z m -3.124,8.074 c 2.068,1.1 3.388,1.98 5.302,3.388 l 1.144,-1.496 c -2.046,-1.386 -3.234,-2.068 -5.302,-3.19 z"
       style="font-weight:normal;font-family:'Noto Sans CJK JP';-inkscape-font-specification:'Noto Sans CJK JP';text-align:center;text-anchor:middle"
       id="path2830" />
    <path
       d="m 206.35601,374.62799 -1.606,0.55 c 0.462,0.99 1.474,3.784 1.716,4.774 l 1.628,-0.572 c -0.286,-0.968 -1.364,-3.872 -1.738,-4.752 z m 6.072,0.638 c -0.33,2.816 -1.474,5.61 -3.036,7.524 -1.804,2.266 -4.598,3.938 -7.15,4.664 l 1.452,1.496 c 2.464,-0.946 5.148,-2.662 7.172,-5.236 1.584,-1.98 2.53,-4.334 3.124,-6.754 0.088,-0.286 0.176,-0.638 0.33,-1.1 z m -11.176,0.462 -1.628,0.638 c 0.44,0.77 1.628,3.806 1.958,4.95 l 1.672,-0.616 c -0.418,-1.144 -1.562,-4.026 -2.002,-4.972 z"
       style="font-weight:normal;font-family:'Noto Sans CJK JP';-inkscape-font-specification:'Noto Sans CJK JP';text-align:center;text-anchor:middle"
       id="path2832" />
    <path
       d="m 236.36401,379.77599 c -2.332,-1.166 -6.49,-2.75 -9.394,-3.63 v -3.586 c 0,-0.66 0.088,-1.606 0.154,-2.288 h -2.156 c 0.132,0.682 0.176,1.672 0.176,2.288 v 12.804 c 0,0.814 -0.044,1.892 -0.132,2.596 h 2.112 c -0.088,-0.726 -0.132,-1.892 -0.132,-2.596 l -0.022,-7.26 c 2.442,0.77 6.248,2.244 8.646,3.542 z"
       style="font-weight:normal;font-family:'Noto Sans CJK JP';-inkscape-font-specification:'Noto Sans CJK JP';text-align:center;text-anchor:middle"
       id="path2834" />
    <path
       d="m 256.67001,383.64799 v 1.232 h -8.492 v -1.232 z m -8.492,3.542 v -1.298 h 8.492 v 1.298 z m -1.562,1.782 h 1.562 v -0.66 h 8.492 v 0.616 h 1.65 v -6.38 h -11.704 z m 10.956,-15.906 h -13.046 v -1.826 h 13.046 z m -7.48,2.772 c -0.198,-0.44 -0.616,-0.99 -1.056,-1.452 h 6.292 c -0.33,0.462 -0.748,1.034 -1.1,1.452 z m 7.502,2.354 h -4.554 v -1.32 h 4.554 z m 0,2.354 h -4.554 v -1.364 h 4.554 z m -10.45,-1.364 h 4.378 v 1.364 h -4.378 z m 0,-2.31 h 4.378 v 1.32 h -4.378 z m 12.056,-6.952 h -16.302 v 6.358 c 0,3.52 -0.198,8.338 -2.376,11.748 0.418,0.176 1.122,0.594 1.43,0.836 2.244,-3.542 2.574,-8.866 2.574,-12.584 v -1.892 h 3.542 l -0.528,0.198 c 0.352,0.374 0.704,0.814 0.968,1.254 h -2.882 v 5.742 h 13.53 v -5.742 h -3.344 c 0.374,-0.396 0.748,-0.836 1.1,-1.298 l -0.462,-0.154 h 2.75 z"
       style="font-weight:normal;font-family:'Noto Sans CJK JP';-inkscape-font-specification:'Noto Sans CJK JP';text-align:center;text-anchor:middle"
       id="path2836" />
  </g>
  <g
     aria-label="トランスポート層"
     id="text2038"
     style="font-weight:500;font-size:22px;line-height:125%;font-family:Poppins;-inkscape-font-specification:'Poppins Medium';letter-spacing:0;word-spacing:0">
    <path
       d="m 104.444,309.73601 c -2.332,-1.166 -6.489999,-2.75 -9.393999,-3.63 v -3.586 c 0,-0.66 0.088,-1.606 0.154,-2.288 h -2.156 c 0.132,0.682 0.176,1.672 0.176,2.288 v 12.804 c 0,0.814 -0.044,1.892 -0.132,2.596 h 2.112 c -0.088,-0.726 -0.132,-1.892 -0.132,-2.596 l -0.022,-7.26 c 2.442,0.77 6.247999,2.244 8.645999,3.542 z"
       style="font-weight:normal;font-family:'Noto Sans CJK JP';-inkscape-font-specification:'Noto Sans CJK JP';text-align:center;text-anchor:middle"
       id="path2805" />
    <path
       d="m 125.872,305.88601 c -0.242,0.132 -0.704,0.176 -1.21,0.176 h -11.594 c -0.594,0 -1.342,-0.044 -2.134,-0.132 v 1.848 c 0.77,-0.044 1.606,-0.066 2.134,-0.066 h 11.682 c -0.396,1.584 -1.276,3.454 -2.618,4.862 -1.87,1.958 -4.62,3.388 -7.744,4.026 l 1.364,1.562 c 2.794,-0.77 5.566,-2.068 7.876,-4.598 1.628,-1.782 2.618,-4.07 3.212,-6.248 0.044,-0.154 0.176,-0.44 0.286,-0.638 z m -12.98,-3.19 c 0.594,-0.044 1.298,-0.066 1.98,-0.066 h 8.624 c 0.748,0 1.496,0.022 2.024,0.066 v -1.826 c -0.528,0.088 -1.298,0.11 -2.002,0.11 h -8.646 c -0.704,0 -1.408,-0.022 -1.98,-0.11 z"
       style="font-weight:normal;font-family:'Noto Sans CJK JP';-inkscape-font-specification:'Noto Sans CJK JP';text-align:center;text-anchor:middle"
       id="path2807" />
    <path
       d="m 134.804,301.13401 -1.254,1.342 c 1.628,1.1 4.378,3.454 5.478,4.598 l 1.386,-1.386 c -1.232,-1.232 -4.048,-3.52 -5.61,-4.554 z m -1.892,14.74 1.166,1.804 c 3.674,-0.682 6.446,-2.024 8.646,-3.432 3.322,-2.068 5.874,-5.06 7.392,-7.81 l -1.056,-1.87 c -1.276,2.706 -3.96,5.962 -7.348,8.096 -2.09,1.298 -4.95,2.64 -8.8,3.212 z"
       style="font-weight:normal;font-family:'Noto Sans CJK JP';-inkscape-font-specification:'Noto Sans CJK JP';text-align:center;text-anchor:middle"
       id="path2809" />
    <path
       d="m 167.84799,301.68401 c -0.352,0.11 -0.924,0.198 -1.65,0.198 h -8.492 c -0.66,0 -1.914,-0.11 -2.222,-0.154 v 2.002 c 0.242,-0.022 1.452,-0.11 2.222,-0.11 h 8.58 c -0.55,1.804 -2.156,4.422 -3.652,6.116 -2.266,2.53 -5.522,5.148 -9.064,6.534 l 1.408,1.474 c 3.256,-1.474 6.226,-3.894 8.58,-6.424 2.244,2.002 4.576,4.598 6.05,6.534 l 1.54,-1.342 c -1.43,-1.716 -4.114,-4.576 -6.424,-6.556 1.562,-1.98 2.948,-4.554 3.696,-6.446 0.132,-0.308 0.418,-0.792 0.55,-0.968 z"
       style="font-weight:normal;font-family:'Noto Sans CJK JP';-inkscape-font-specification:'Noto Sans CJK JP';text-align:center;text-anchor:middle"
       id="path2811" />
    <path
       d="m 191.36599,299.59401 c 0.792,0 1.408,0.638 1.408,1.408 0,0.792 -0.616,1.408 -1.408,1.408 -0.77,0 -1.386,-0.616 -1.386,-1.408 0,-0.77 0.616,-1.408 1.386,-1.408 z m 0,3.806 c 1.342,0 2.42,-1.056 2.42,-2.398 0,-1.32 -1.078,-2.42 -2.42,-2.42 -1.32,0 -2.398,1.1 -2.398,2.42 0,1.342 1.078,2.398 2.398,2.398 z m -12.452,5.038 c -0.858,1.782 -2.75,4.4 -4.202,5.764 l 1.518,1.034 c 1.232,-1.364 3.3,-4.158 4.224,-6.05 z m 12.078,-2.64 c 0.528,0 1.188,0 1.782,0.044 v -1.826 c -0.55,0.088 -1.276,0.11 -1.804,0.11 h -5.808 v -2.244 c 0,-0.484 0.066,-1.276 0.132,-1.584 h -2.068 c 0.088,0.33 0.154,1.078 0.154,1.562 v 2.266 h -6.116 c -0.704,0 -1.254,-0.044 -1.87,-0.11 v 1.848 c 0.594,-0.044 1.21,-0.066 1.87,-0.066 h 6.116 v 9.922 c 0,0.572 -0.264,0.836 -0.858,0.836 -0.572,0 -1.584,-0.088 -2.552,-0.264 l 0.176,1.76 c 0.88,0.088 2.2,0.154 3.124,0.154 1.32,0 1.892,-0.594 1.892,-1.76 v -10.648 z m -2.838,3.454 c 1.166,1.386 2.816,4.136 3.674,5.852 l 1.628,-0.902 c -0.88,-1.584 -2.64,-4.334 -3.806,-5.742 z"
       style="font-weight:normal;font-family:'Noto Sans CJK JP';-inkscape-font-specification:'Noto Sans CJK JP';text-align:center;text-anchor:middle"
       id="path2813" />
    <path
       d="m 197.61399,309.89001 c 0.682,-0.066 1.848,-0.11 3.058,-0.11 h 12.078 c 0.99,0 1.914,0.088 2.354,0.11 v -2.156 c -0.484,0.044 -1.276,0.11 -2.376,0.11 h -12.056 c -1.232,0 -2.398,-0.066 -3.058,-0.11 z"
       style="font-weight:normal;font-family:'Noto Sans CJK JP';-inkscape-font-specification:'Noto Sans CJK JP';text-align:center;text-anchor:middle"
       id="path2815" />
    <path
       d="m 236.004,309.73601 c -2.332,-1.166 -6.49,-2.75 -9.394,-3.63 v -3.586 c 0,-0.66 0.088,-1.606 0.154,-2.288 h -2.156 c 0.132,0.682 0.176,1.672 0.176,2.288 v 12.804 c 0,0.814 -0.044,1.892 -0.132,2.596 h 2.112 c -0.088,-0.726 -0.132,-1.892 -0.132,-2.596 l -0.022,-7.26 c 2.442,0.77 6.248,2.244 8.646,3.542 z"
       style="font-weight:normal;font-family:'Noto Sans CJK JP';-inkscape-font-specification:'Noto Sans CJK JP';text-align:center;text-anchor:middle"
       id="path2817" />
    <path
       d="m 256.31,313.60801 v 1.232 h -8.492 v -1.232 z m -8.492,3.542 v -1.298 h 8.492 v 1.298 z m -1.562,1.782 h 1.562 v -0.66 h 8.492 v 0.616 h 1.65 v -6.38 h -11.704 z m 10.956,-15.906 h -13.046 v -1.826 h 13.046 z m -7.48,2.772 c -0.198,-0.44 -0.616,-0.99 -1.056,-1.452 h 6.292 c -0.33,0.462 -0.748,1.034 -1.1,1.452 z m 7.502,2.354 h -4.554 v -1.32 h 4.554 z m 0,2.354 h -4.554 v -1.364 h 4.554 z m -10.45,-1.364 h 4.378 v 1.364 h -4.378 z m 0,-2.31 h 4.378 v 1.32 h -4.378 z m 12.056,-6.952 h -16.302 v 6.358 c 0,3.52 -0.198,8.338 -2.376,11.748 0.418,0.176 1.122,0.594 1.43,0.836 2.244,-3.542 2.574,-8.866 2.574,-12.584 v -1.892 h 3.542 l -0.528,0.198 c 0.352,0.374 0.704,0.814 0.968,1.254 h -2.882 v 5.742 h 13.53 v -5.742 h -3.344 c 0.374,-0.396 0.748,-0.836 1.1,-1.298 l -0.462,-0.154 h 2.75 z"
       style="font-weight:normal;font-family:'Noto Sans CJK JP';-inkscape-font-specification:'Noto Sans CJK JP';text-align:center;text-anchor:middle"
       id="path2819" />
  </g>
  <g
     aria-label="TCP/IPモデル"
     id="text2042"
     style="font-size:22px;line-height:125%;font-family:'Open Sans';-inkscape-font-specification:'Open Sans';letter-spacing:0;word-spacing:0;fill:#30ba78">
    <path
       d="m 88.071988,44.558002 v 2.664 h -6.84 v 22.428 h -3.276 v -22.428 h -6.876 v -2.664 z"
       style="font-weight:500;font-size:36px;font-family:Poppins;-inkscape-font-specification:'Poppins Medium';text-align:center;text-anchor:middle"
       id="path2754" />
    <path
       d="m 90.880001,57.086002 q 0,-3.672 1.656,-6.588 1.656,-2.952 4.5,-4.608 2.88,-1.656 6.371999,-1.656 4.104,0 7.164,1.98 3.06,1.98 4.464,5.616 h -3.924 q -1.044,-2.268 -3.024,-3.492 -1.944,-1.224 -4.68,-1.224 -2.628,0 -4.715999,1.224 -2.088,1.224 -3.276,3.492 -1.188,2.232 -1.188,5.256 0,2.988 1.188,5.256 1.188,2.232 3.276,3.456 2.087999,1.224 4.715999,1.224 2.736,0 4.68,-1.188 1.98,-1.224 3.024,-3.492 h 3.924 q -1.404,3.6 -4.464,5.58 -3.06,1.944 -7.164,1.944 -3.491999,0 -6.371999,-1.62 -2.844,-1.656 -4.5,-4.572 -1.656,-2.916 -1.656,-6.588 z"
       style="font-weight:500;font-size:36px;font-family:Poppins;-inkscape-font-specification:'Poppins Medium';text-align:center;text-anchor:middle"
       id="path2756" />
    <path
       d="m 136.67198,51.902002 q 0,3.132 -2.16,5.22 -2.124,2.052 -6.516,2.052 h -4.824 v 10.476 h -3.276 v -25.092 h 8.1 q 4.248,0 6.444,2.052 2.232,2.052 2.232,5.292 z m -8.676,4.572 q 2.736,0 4.032,-1.188 1.296,-1.188 1.296,-3.384 0,-4.644 -5.328,-4.644 h -4.824 v 9.216 z"
       style="font-weight:500;font-size:36px;font-family:Poppins;-inkscape-font-specification:'Poppins Medium';text-align:center;text-anchor:middle"
       id="path2758" />
    <path
       d="m 152.97999,35.738002 -9.864,40.032 h -3.24 l 9.828,-40.032 z"
       style="font-weight:500;font-size:36px;font-family:Poppins;-inkscape-font-specification:'Poppins Medium';text-align:center;text-anchor:middle"
       id="path2760" />
    <path
       d="m 161.15199,44.558002 v 25.092 h -3.276 v -25.092 z"
       style="font-weight:500;font-size:36px;font-family:Poppins;-inkscape-font-specification:'Poppins Medium';text-align:center;text-anchor:middle"
       id="path2762" />
    <path
       d="m 183.508,51.902002 q 0,3.132 -2.16,5.22 -2.124,2.052 -6.516,2.052 h -4.824 v 10.476 h -3.276 v -25.092 h 8.1 q 4.248,0 6.444,2.052 2.232,2.052 2.232,5.292 z m -8.676,4.572 q 2.736,0 4.032,-1.188 1.296,-1.188 1.296,-3.384 0,-4.644 -5.328,-4.644 h -4.824 v 9.216 z"
       style="font-weight:500;font-size:36px;font-family:Poppins;-inkscape-font-specification:'Poppins Medium';text-align:center;text-anchor:middle"
       id="path2764" />
    <path
       d="m 214.54002,57.194002 c 0.792,0 2.088,0 2.916,0.108 v -2.952 c -0.828,0.072 -2.232,0.144 -2.988,0.144 h -12.132 v -7.632 h 9.36 c 1.26,0 2.088,0.072 2.952,0.108 v -2.88 c -0.792,0.072 -1.8,0.144 -2.952,0.144 h -17.136 c -1.224,0 -2.268,-0.072 -3.24,-0.144 v 2.88 c 0.972,-0.072 2.016,-0.108 3.24,-0.108 h 4.788 v 7.632 h -6.984 c -0.972,0 -2.448,-0.108 -3.42,-0.18 v 3.024 c 1.008,-0.072 2.484,-0.144 3.42,-0.144 h 6.984 v 8.136 c 0,2.952 1.692,4.86 7.128,4.86 3.456,0 6.912,-0.144 9.72,-0.36 l 0.18,-3.024 c -3.096,0.36 -6.048,0.504 -9.468,0.504 -3.312,0 -4.572,-1.08 -4.572,-2.88 v -7.236 z"
       style="font-family:'Noto Sans CJK JP';-inkscape-font-specification:'Noto Sans CJK JP';text-align:center;text-anchor:middle"
       id="path2766" />
    <path
       d="m 252.01602,45.350002 c -0.756,-1.476 -2.052,-3.636 -2.952,-4.932 l -1.908,0.828 c 0.972,1.332 2.196,3.492 2.916,4.968 z m -8.172,0.864 c 1.044,0 2.304,0.036 3.348,0.108 v -2.988 c -1.044,0.144 -2.34,0.216 -3.348,0.216 h -12.456 c -1.152,0 -2.232,-0.108 -3.276,-0.216 v 2.988 c 0.936,-0.072 2.124,-0.108 3.312,-0.108 z m -16.848,6.336 c -1.116,0 -2.16,-0.072 -3.132,-0.144 v 2.952 c 0.972,-0.072 2.016,-0.072 3.132,-0.072 h 10.764 c -0.108,3.384 -0.504,6.408 -2.088,8.928 -1.404,2.268 -3.996,4.356 -6.804,5.508 l 2.664,1.98 c 3.06,-1.584 5.796,-4.176 7.092,-6.588 1.44,-2.664 2.016,-5.94 2.124,-9.828 h 9.792 c 0.864,0 2.016,0.036 2.808,0.072 v -2.952 c -0.864,0.108 -2.052,0.144 -2.808,0.144 z m 24.12,-12.78 c 1.044,1.368 2.196,3.384 2.988,4.968 l 1.944,-0.864 c -0.684,-1.332 -2.088,-3.6 -3.024,-4.896 z"
       style="font-family:'Noto Sans CJK JP';-inkscape-font-specification:'Noto Sans CJK JP';text-align:center;text-anchor:middle"
       id="path2768" />
    <path
       d="m 261.88002,70.514002 c 3.024,-2.484 5.328,-6.012 6.408,-9.864 0.972,-3.6 1.116,-11.304 1.116,-15.3 0,-1.08 0.144,-2.16 0.18,-2.592 h -3.312 c 0.144,0.756 0.252,1.548 0.252,2.628 0,3.996 -0.036,11.16 -1.08,14.472 -1.08,3.492 -3.24,6.696 -6.264,8.856 z m 15.696,-0.036 c 0.36,-0.288 0.684,-0.54 1.224,-0.828 4.176,-2.088 9.18,-5.76 12.276,-9.972 l -1.728,-2.448 c -2.736,4.068 -7.164,7.344 -10.476,8.856 v -20.772 c 0,-1.368 0.108,-2.376 0.144,-2.664 h -3.312 c 0.036,0.288 0.216,1.296 0.216,2.664 v 21.564 c 0,0.72 -0.108,1.44 -0.252,2.016 z"
       style="font-family:'Noto Sans CJK JP';-inkscape-font-specification:'Noto Sans CJK JP';text-align:center;text-anchor:middle"
       id="path2770" />
  </g>
  <g
     aria-label="OSIモデル"
     id="text2046"
     style="font-size:22px;line-height:125%;font-family:'Open Sans';-inkscape-font-specification:'Open Sans';letter-spacing:0;word-spacing:0;fill:#0c322c">
    <path
       d="m 455.056,69.902002 q -3.492,0 -6.372,-1.62 -2.88,-1.656 -4.572,-4.572 -1.656,-2.952 -1.656,-6.624 0,-3.672 1.656,-6.588 1.692,-2.952 4.572,-4.572 2.88,-1.656 6.372,-1.656 3.528,0 6.408,1.656 2.88,1.62 4.536,4.536 1.656,2.916 1.656,6.624 0,3.708 -1.656,6.624 -1.656,2.916 -4.536,4.572 -2.88,1.62 -6.408,1.62 z m 0,-2.844 q 2.628,0 4.716,-1.224 2.124,-1.224 3.312,-3.492 1.224,-2.268 1.224,-5.256 0,-3.024 -1.224,-5.256 -1.188,-2.268 -3.276,-3.492 -2.088,-1.224 -4.752,-1.224 -2.664,0 -4.752,1.224 -2.088,1.224 -3.312,3.492 -1.188,2.232 -1.188,5.256 0,2.988 1.188,5.256 1.224,2.268 3.312,3.492 2.124,1.224 4.752,1.224 z"
       style="font-weight:500;font-size:36px;font-family:Poppins;-inkscape-font-specification:'Poppins Medium';text-align:center;text-anchor:middle"
       id="path2773" />
    <path
       d="m 479.93197,69.902002 q -2.484,0 -4.464,-0.864 -1.944,-0.9 -3.06,-2.448 -1.116,-1.584 -1.152,-3.636 h 3.492 q 0.18,1.764 1.44,2.988 1.296,1.188 3.744,1.188 2.34,0 3.672,-1.152 1.368,-1.188 1.368,-3.024 0,-1.44 -0.792,-2.34 -0.792,-0.9 -1.98,-1.368 -1.188,-0.468 -3.204,-1.008 -2.484,-0.648 -3.996,-1.296 -1.476,-0.648 -2.556,-2.016 -1.044,-1.404 -1.044,-3.744 0,-2.052 1.044,-3.636 1.044,-1.584 2.916,-2.448 1.908,-0.864 4.356,-0.864 3.528,0 5.76,1.764 2.268,1.764 2.556,4.68 h -3.6 q -0.18,-1.44 -1.512,-2.52 -1.332,-1.116 -3.528,-1.116 -2.052,0 -3.348,1.08 -1.296,1.044 -1.296,2.952 0,1.368 0.756,2.232 0.792,0.864 1.908,1.332 1.152,0.432 3.204,1.008 2.484,0.684 3.996,1.368 1.512,0.648 2.592,2.052 1.08,1.368 1.08,3.744 0,1.836 -0.972,3.456 -0.972,1.62 -2.88,2.628 -1.908,1.008 -4.5,1.008 z"
       style="font-weight:500;font-size:36px;font-family:Poppins;-inkscape-font-specification:'Poppins Medium';text-align:center;text-anchor:middle"
       id="path2775" />
    <path
       d="m 496.38397,44.558002 v 25.092 h -3.276 v -25.092 z"
       style="font-weight:500;font-size:36px;font-family:Poppins;-inkscape-font-specification:'Poppins Medium';text-align:center;text-anchor:middle"
       id="path2777" />
    <path
       d="m 528.92798,57.194002 c 0.792,0 2.088,0 2.916,0.108 v -2.952 c -0.828,0.072 -2.232,0.144 -2.988,0.144 h -12.132 v -7.632 h 9.36 c 1.26,0 2.088,0.072 2.952,0.108 v -2.88 c -0.792,0.072 -1.8,0.144 -2.952,0.144 h -17.136 c -1.224,0 -2.268,-0.072 -3.24,-0.144 v 2.88 c 0.972,-0.072 2.016,-0.108 3.24,-0.108 h 4.788 v 7.632 h -6.984 c -0.972,0 -2.448,-0.108 -3.42,-0.18 v 3.024 c 1.008,-0.072 2.484,-0.144 3.42,-0.144 h 6.984 v 8.136 c 0,2.952 1.692,4.86 7.128,4.86 3.456,0 6.912,-0.144 9.72,-0.36 l 0.18,-3.024 c -3.096,0.36 -6.048,0.504 -9.468,0.504 -3.312,0 -4.572,-1.08 -4.572,-2.88 v -7.236 z"
       style="font-family:'Noto Sans CJK JP';-inkscape-font-specification:'Noto Sans CJK JP';text-align:center;text-anchor:middle"
       id="path2779" />
    <path
       d="m 566.40398,45.350002 c -0.756,-1.476 -2.052,-3.636 -2.952,-4.932 l -1.908,0.828 c 0.972,1.332 2.196,3.492 2.916,4.968 z m -8.172,0.864 c 1.044,0 2.304,0.036 3.348,0.108 v -2.988 c -1.044,0.144 -2.34,0.216 -3.348,0.216 h -12.456 c -1.152,0 -2.232,-0.108 -3.276,-0.216 v 2.988 c 0.936,-0.072 2.124,-0.108 3.312,-0.108 z m -16.848,6.336 c -1.116,0 -2.16,-0.072 -3.132,-0.144 v 2.952 c 0.972,-0.072 2.016,-0.072 3.132,-0.072 h 10.764 c -0.108,3.384 -0.504,6.408 -2.088,8.928 -1.404,2.268 -3.996,4.356 -6.804,5.508 l 2.664,1.98 c 3.06,-1.584 5.796,-4.176 7.092,-6.588 1.44,-2.664 2.016,-5.94 2.124,-9.828 h 9.792 c 0.864,0 2.016,0.036 2.808,0.072 v -2.952 c -0.864,0.108 -2.052,0.144 -2.808,0.144 z m 24.12,-12.78 c 1.044,1.368 2.196,3.384 2.988,4.968 l 1.944,-0.864 c -0.684,-1.332 -2.088,-3.6 -3.024,-4.896 z"
       style="font-family:'Noto Sans CJK JP';-inkscape-font-specification:'Noto Sans CJK JP';text-align:center;text-anchor:middle"
       id="path2781" />
    <path
       d="m 576.26798,70.514002 c 3.024,-2.484 5.328,-6.012 6.408,-9.864 0.972,-3.6 1.116,-11.304 1.116,-15.3 0,-1.08 0.144,-2.16 0.18,-2.592 h -3.312 c 0.144,0.756 0.252,1.548 0.252,2.628 0,3.996 -0.036,11.16 -1.08,14.472 -1.08,3.492 -3.24,6.696 -6.264,8.856 z m 15.696,-0.036 c 0.36,-0.288 0.684,-0.54 1.224,-0.828 4.176,-2.088 9.18,-5.76 12.276,-9.972 l -1.728,-2.448 c -2.736,4.068 -7.164,7.344 -10.476,8.856 v -20.772 c 0,-1.368 0.108,-2.376 0.144,-2.664 h -3.312 c 0.036,0.288 0.216,1.296 0.216,2.664 v 21.564 c 0,0.72 -0.108,1.44 -0.252,2.016 z"
       style="font-family:'Noto Sans CJK JP';-inkscape-font-specification:'Noto Sans CJK JP';text-align:center;text-anchor:middle"
       id="path2783" />
  </g>
</svg>
