<?xml version="1.0" encoding="UTF-8" standalone="no"?>
<svg
   xmlns:dc="http://purl.org/dc/elements/1.1/"
   xmlns:cc="http://creativecommons.org/ns#"
   xmlns:rdf="http://www.w3.org/1999/02/22-rdf-syntax-ns#"
   xmlns:svg="http://www.w3.org/2000/svg"
   xmlns="http://www.w3.org/2000/svg"
   xmlns:sodipodi="http://sodipodi.sourceforge.net/DTD/sodipodi-0.dtd"
   xmlns:inkscape="http://www.inkscape.org/namespaces/inkscape"
   id="svg2"
   height="200"
   width="900"
   version="1.2"
   inkscape:version="0.48.1 "
   sodipodi:docname="net_basic_tcppacket.svg">
  <sodipodi:namedview
     pagecolor="#ffffff"
     bordercolor="#666666"
     borderopacity="1"
     objecttolerance="10"
     gridtolerance="10"
     guidetolerance="10"
     inkscape:pageopacity="0"
     inkscape:pageshadow="2"
     inkscape:window-width="1920"
     inkscape:window-height="1033"
     id="namedview117"
     showgrid="false"
     inkscape:zoom="1.050338"
     inkscape:cx="450"
     inkscape:cy="100"
     inkscape:window-x="-4"
     inkscape:window-y="-4"
     inkscape:window-maximized="1"
     inkscape:current-layer="g3222" />
  <defs
     id="defs4" />
  <metadata
     id="metadata7">
    <rdf:RDF>
      <cc:Work
         rdf:about="">
        <dc:format>image/svg+xml</dc:format>
        <dc:type
           rdf:resource="http://purl.org/dc/dcmitype/StillImage" />
        <dc:title />
      </cc:Work>
    </rdf:RDF>
  </metadata>
  <g
     id="g3222"
     transform="translate(601,-466.8125)">
    <rect
       style="fill:#02d35f;fill-opacity:1;fill-rule:nonzero;stroke:none"
       id="rect4438"
       y="486.8125"
       x="-581"
       ry="10"
       rx="10"
       height="160"
       width="860" />
    <rect
       style="color:#000000;fill:#71d6e0;fill-opacity:1;fill-rule:nonzero;stroke:#ffffff;stroke-width:0;stroke-miterlimit:4;stroke-opacity:1;stroke-dasharray:none;marker:none;visibility:visible;display:inline;overflow:visible;enable-background:accumulate"
       id="rect6978-9-64-0-1-5-7"
       y="486.8125"
       x="-481"
       height="160"
       width="130" />
    <rect
       style="color:#000000;fill:#ffef8d;fill-opacity:1;fill-rule:nonzero;stroke:#ffffff;stroke-width:0;stroke-miterlimit:4;stroke-opacity:1;stroke-dasharray:none;marker:none;visibility:visible;display:inline;overflow:visible;enable-background:accumulate"
       id="rect6978-9-64-0-1-5-7-5"
       y="486.8125"
       x="-351"
       ry="0"
       height="160"
       width="130.00003" />
    <rect
       style="color:#000000;fill:#dcddde;fill-opacity:1;fill-rule:nonzero;stroke:#ffffff;stroke-width:0;stroke-miterlimit:4;stroke-opacity:1;stroke-dasharray:none;marker:none;visibility:visible;display:inline;overflow:visible;enable-background:accumulate"
       id="rect6978-9-64-0-1-5-7-5-2"
       y="486.8125"
       x="-221"
       height="160"
       width="399.99982" />
    <g
       style="font-size:22px;font-style:normal;font-weight:normal;text-align:center;line-height:125%;letter-spacing:0px;word-spacing:0px;text-anchor:middle;fill:#000000;fill-opacity:1;stroke:none;font-family:Sans"
       id="text3094">
      <path
         d="m -567.55688,546.85114 0,-14.31641 10.35156,0 0,1.68945 -8.45703,0 0,4.38477 7.91992,0 0,1.67969 -7.91992,0 0,4.87304 8.78906,0 0,1.68946 z"
         style="font-size:20px"
         id="path3125" />
      <path
         d="m -550.62329,545.27887 0.25391,1.55273 c -0.4948,0.10417 -0.93751,0.15625 -1.32813,0.15625 -0.63802,0 -1.13282,-0.10091 -1.48437,-0.30273 -0.35157,-0.20182 -0.59897,-0.46712 -0.74219,-0.7959 -0.14323,-0.32877 -0.21485,-1.0205 -0.21485,-2.07519 l 0,-5.9668 -1.28906,0 0,-1.36719 1.28906,0 0,-2.56836 1.74805,-1.05469 0,3.62305 1.76758,0 0,1.36719 -1.76758,0 0,6.06445 c 0,0.50131 0.0309,0.82357 0.0928,0.9668 0.0618,0.14323 0.16276,0.25716 0.30274,0.3418 0.13997,0.0846 0.34016,0.12695 0.60058,0.12695 0.19531,0 0.45247,-0.0228 0.77149,-0.0684 z"
         style="font-size:20px"
         id="path3127" />
      <path
         d="m -548.91431,546.85114 0,-14.31641 1.75782,0 0,5.13672 c 0.8203,-0.95051 1.85546,-1.42577 3.10546,-1.42578 0.76823,10e-6 1.43554,0.15137 2.00196,0.4541 0.5664,0.30274 0.97167,0.72104 1.21582,1.25488 0.24413,0.53386 0.3662,1.3086 0.36621,2.32422 l 0,6.57227 -1.75781,0 0,-6.57227 c -1e-5,-0.8789 -0.19044,-1.51855 -0.57129,-1.91895 -0.38087,-0.40038 -0.91961,-0.60057 -1.61621,-0.60058 -0.52084,1e-5 -1.01075,0.1351 -1.46973,0.40527 -0.45899,0.27019 -0.78614,0.6364 -0.98145,1.09863 -0.19531,0.46225 -0.29297,1.10027 -0.29296,1.91407 l 0,5.67383 z"
         style="font-size:20px"
         id="path3129" />
      <path
         d="m -530.68188,543.51129 1.8164,0.22461 c -0.28647,1.0612 -0.81707,1.88477 -1.5918,2.4707 -0.77474,0.58594 -1.76433,0.87891 -2.96875,0.87891 -1.51693,0 -2.71972,-0.46712 -3.60839,-1.40137 -0.88868,-0.93424 -1.33301,-2.24446 -1.33301,-3.93066 0,-1.74479 0.44922,-3.09895 1.34765,-4.0625 0.89844,-0.96353 2.0638,-1.4453 3.4961,-1.44531 1.38671,10e-6 2.51952,0.47201 3.39844,1.41601 0.87889,0.94402 1.31834,2.27214 1.31836,3.98438 -2e-5,0.10417 -0.003,0.26042 -0.01,0.46875 l -7.73438,0 c 0.0651,1.13932 0.38737,2.01172 0.9668,2.61718 0.57942,0.60547 1.30208,0.90821 2.16797,0.90821 0.64453,0 1.19465,-0.16927 1.65039,-0.50781 0.45572,-0.33854 0.81705,-0.87891 1.08399,-1.6211 z m -5.77149,-2.8418 5.79102,0 c -0.0781,-0.87238 -0.29949,-1.52668 -0.66407,-1.96289 -0.5599,-0.67707 -1.28581,-1.01561 -2.17773,-1.01562 -0.8073,1e-5 -1.48601,0.27019 -2.03613,0.81055 -0.55014,0.54037 -0.8545,1.26302 -0.91309,2.16796 z"
         style="font-size:20px"
         id="path3131" />
      <path
         d="m -526.66821,546.85114 0,-10.3711 1.58203,0 0,1.57227 c 0.40364,-0.73567 0.77636,-1.2207 1.11816,-1.45508 0.34179,-0.23437 0.71777,-0.35155 1.12793,-0.35156 0.59244,10e-6 1.19466,0.18881 1.80664,0.5664 l -0.60547,1.63086 c -0.42969,-0.2539 -0.85938,-0.38085 -1.28906,-0.38086 -0.38412,1e-5 -0.72917,0.11557 -1.03515,0.34668 -0.306,0.23113 -0.5241,0.55177 -0.6543,0.96192 -0.19532,0.625 -0.29297,1.3086 -0.29297,2.05078 l 0,5.42969 z"
         style="font-size:20px"
         id="path3133" />
      <path
         d="m -519.96899,546.85114 0,-10.3711 1.58203,0 0,1.47461 c 0.76171,-1.13931 1.86197,-1.70897 3.30078,-1.70898 0.62499,10e-6 1.19954,0.11231 1.72363,0.33691 0.52408,0.22462 0.91633,0.51922 1.17676,0.88379 0.26041,0.36459 0.4427,0.79753 0.54687,1.29883 0.0651,0.32553 0.0976,0.89519 0.0977,1.70898 l 0,6.37696 -1.75781,0 0,-6.3086 c -10e-6,-0.71614 -0.0684,-1.25162 -0.20508,-1.60644 -0.13673,-0.35481 -0.37924,-0.63802 -0.72754,-0.84961 -0.34831,-0.21158 -0.75684,-0.31738 -1.22559,-0.31739 -0.7487,10e-6 -1.39486,0.23764 -1.93847,0.71289 -0.54363,0.47527 -0.81543,1.37696 -0.81543,2.70508 l 0,5.66407 z"
         style="font-size:20px"
         id="path3135" />
      <path
         d="m -501.73657,543.51129 1.8164,0.22461 c -0.28646,1.0612 -0.81706,1.88477 -1.59179,2.4707 -0.77475,0.58594 -1.76433,0.87891 -2.96875,0.87891 -1.51693,0 -2.71973,-0.46712 -3.6084,-1.40137 -0.88867,-0.93424 -1.33301,-2.24446 -1.33301,-3.93066 0,-1.74479 0.44922,-3.09895 1.34766,-4.0625 0.89843,-0.96353 2.0638,-1.4453 3.49609,-1.44531 1.38671,10e-6 2.51952,0.47201 3.39844,1.41601 0.87889,0.94402 1.31835,2.27214 1.31836,3.98438 -1e-5,0.10417 -0.003,0.26042 -0.01,0.46875 l -7.73437,0 c 0.0651,1.13932 0.38736,2.01172 0.96679,2.61718 0.57943,0.60547 1.30208,0.90821 2.16797,0.90821 0.64453,0 1.19466,-0.16927 1.65039,-0.50781 0.45572,-0.33854 0.81705,-0.87891 1.08399,-1.6211 z m -5.77149,-2.8418 5.79102,0 c -0.0781,-0.87238 -0.29949,-1.52668 -0.66406,-1.96289 -0.55991,-0.67707 -1.28582,-1.01561 -2.17774,-1.01562 -0.80729,1e-5 -1.486,0.27019 -2.03613,0.81055 -0.55013,0.54037 -0.8545,1.26302 -0.91309,2.16796 z"
         style="font-size:20px"
         id="path3137" />
      <path
         d="m -493.86548,545.27887 0.25391,1.55273 c -0.4948,0.10417 -0.93751,0.15625 -1.32813,0.15625 -0.63802,0 -1.13281,-0.10091 -1.48437,-0.30273 -0.35157,-0.20182 -0.59896,-0.46712 -0.74219,-0.7959 -0.14323,-0.32877 -0.21485,-1.0205 -0.21484,-2.07519 l 0,-5.9668 -1.28907,0 0,-1.36719 1.28907,0 0,-2.56836 1.74804,-1.05469 0,3.62305 1.76758,0 0,1.36719 -1.76758,0 0,6.06445 c 0,0.50131 0.0309,0.82357 0.0928,0.9668 0.0618,0.14323 0.16275,0.25716 0.30273,0.3418 0.13997,0.0846 0.34017,0.12695 0.60059,0.12695 0.19531,0 0.45247,-0.0228 0.77148,-0.0684 z"
         style="font-size:20px"
         id="path3139" />
      <path
         d="m -545.60376,563.18654 c 0.62499,10e-6 1.0677,0.23439 1.32813,0.70313 2.1354,4.21875 4.66144,7.91667 7.57812,11.09375 l -1.25,1.71875 c -1.40626,-1.77084 -2.78647,-3.72396 -4.14062,-5.85938 -1.04168,-1.61458 -2.0573,-3.41145 -3.04688,-5.39062 -0.15626,-0.31249 -0.31251,-0.46874 -0.46875,-0.46875 -0.10417,10e-6 -0.20834,0.0521 -0.3125,0.15625 -0.0521,0.20834 -0.10417,0.36459 -0.15625,0.46875 -1.04167,2.44792 -2.26563,4.86979 -3.67187,7.26562 l -1.64063,-1.48437 c 0.72917,-0.98958 1.58854,-2.29166 2.57813,-3.90625 0.62499,-1.04166 1.27603,-2.23958 1.95312,-3.59375 0.20833,-0.46874 0.62499,-0.70312 1.25,-0.70313 z"
         style="font-style:normal;font-variant:normal;font-weight:normal;font-stretch:normal;font-family:MS UI Gothic;-inkscape-font-specification:MS UI Gothic"
         id="path3141" />
      <path
         d="m -530.52563,564.90529 c 0.72916,1.14584 1.3802,2.42189 1.95312,3.82813 l -1.48437,0.70312 c -0.62501,-1.61457 -1.22397,-2.91666 -1.79688,-3.90625 z m 2.65625,7.65625 c 0.93749,-1.56249 1.38019,-3.85416 1.32812,-6.875 l 1.48438,0.15625 c -0.0521,3.17709 -0.59897,5.67709 -1.64063,7.5 -1.04167,1.875 -2.83855,3.38542 -5.39062,4.53125 l -1.01563,-1.32812 c 2.55208,-0.88542 4.29687,-2.21354 5.23438,-3.98438 z m -6.09375,-6.01562 c 0.46874,0.67709 1.09374,1.97917 1.875,3.90625 l -1.48438,0.70312 c -0.625,-1.61458 -1.22396,-2.9427 -1.79687,-3.98437 z"
         style="font-style:normal;font-variant:normal;font-weight:normal;font-stretch:normal;font-family:MS UI Gothic;-inkscape-font-specification:MS UI Gothic"
         id="path3143" />
      <path
         d="m -510.76001,560.06154 0,3.04688 -1.32812,0 0,-3.04688 z m -2.10937,0 0,3.04688 -1.32813,0 0,-3.04688 z m 0.23437,5.54688 c -1e-5,2.1875 -0.41668,4.16667 -1.25,5.9375 0.57291,0.46875 1.0677,0.91146 1.48438,1.32812 l -1.17188,1.5625 c -0.20834,-0.3125 -0.59897,-0.72916 -1.17187,-1.25 -1.45835,2.29167 -3.46355,3.93229 -6.01563,4.92188 l -1.17187,-1.32813 c 2.60416,-1.09375 4.55728,-2.65625 5.85937,-4.6875 -1.61459,-1.40624 -2.86459,-2.36978 -3.75,-2.89062 l 0.78125,-1.25 c 1.04166,0.625 2.3177,1.48438 3.82813,2.57812 0.62499,-1.45833 0.96353,-3.09895 1.01562,-4.92187 l 0,-0.54688 -5.15625,0 c -0.57292,2.55209 -1.64063,4.5573 -3.20312,6.01563 l -1.25,-1.17188 c 2.13541,-1.97916 3.17707,-4.86978 3.125,-8.67187 l 1.79687,0 c -1e-5,0.83334 -0.0521,1.61459 -0.15625,2.34375 l 6.40625,0 0,2.03125 z"
         style="font-style:normal;font-variant:normal;font-weight:normal;font-stretch:normal;font-family:MS UI Gothic;-inkscape-font-specification:MS UI Gothic"
         id="path3145" />
      <path
         d="m -567.21509,605.83303 c -0.97005,-1.22397 -1.79037,-2.65626 -2.46094,-4.29688 -0.67057,-1.64062 -1.00586,-3.33984 -1.00585,-5.09766 -10e-6,-1.54947 0.25064,-3.03384 0.75195,-4.45312 0.58593,-1.64713 1.49088,-3.28775 2.71484,-4.92188 l 1.25977,0 c -0.78777,1.35418 -1.3086,2.32098 -1.5625,2.90039 -0.39714,0.89845 -0.70964,1.83595 -0.9375,2.8125 -0.27995,1.21746 -0.41993,2.44142 -0.41992,3.67188 -1e-5,3.13151 0.9733,6.25976 2.91992,9.38477 z"
         style="font-size:20px"
         id="path3147" />
      <path
         d="m -557.76196,601.62404 -1.75782,0 0,-11.20117 c -0.42318,0.40366 -0.97819,0.8073 -1.66503,1.21094 -0.68686,0.40365 -1.30372,0.70639 -1.85059,0.9082 l 0,-1.69922 c 0.98307,-0.46223 1.84244,-1.02212 2.57812,-1.67969 0.73568,-0.65754 1.25651,-1.29556 1.5625,-1.91406 l 1.13282,0 z"
         style="font-size:20px"
         id="path3149" />
      <path
         d="m -547.61548,601.62404 0,-3.42773 -6.21094,0 0,-1.61133 6.53321,-9.27735 1.43554,0 0,9.27735 1.9336,0 0,1.61133 -1.9336,0 0,3.42773 z m 0,-5.03906 0,-6.45508 -4.48242,6.45508 z"
         style="font-size:20px"
         id="path3151" />
      <path
         d="m -526.61938,585.37404 0,3.04688 -1.32813,0 0,-3.04688 z m -2.10938,0 0,3.04688 -1.32812,0 0,-3.04688 z m -2.65625,1.95313 c 1.14582,1.92709 2.10936,4.11459 2.89063,6.5625 0.83331,2.44792 1.40623,4.86979 1.71875,7.26562 l -1.79688,0.78125 c -0.20835,-2.44791 -0.72918,-4.92187 -1.5625,-7.42187 -0.78126,-2.60416 -1.66668,-4.71353 -2.65625,-6.32813 l 1.40625,-0.85937 z m -10.46875,13.51562 c 2.55208,-3.33333 3.80208,-7.83853 3.75,-13.51562 l 1.71875,0.3125 c -1e-5,5.83334 -1.32813,10.72917 -3.98437,14.6875 l -1.48438,-1.48438 z"
         style="font-style:normal;font-variant:normal;font-weight:normal;font-stretch:normal;font-family:MS UI Gothic;-inkscape-font-specification:MS UI Gothic"
         id="path3153" />
      <path
         d="m -519.27563,591.15529 c 1.92707,-1.66665 3.35936,-3.3854 4.29687,-5.15625 l 1.64063,1.01563 c -0.83335,1.40626 -2.03127,2.83855 -3.59375,4.29687 l 0,11.5625 -1.5625,0 0,-10 c -1.97918,1.77084 -3.90626,3.09896 -5.78125,3.98438 l -1.01563,-1.5625 c 2.1875,-1.09375 4.1927,-2.47395 6.01563,-4.14063 z"
         style="font-style:normal;font-variant:normal;font-weight:normal;font-stretch:normal;font-family:MS UI Gothic;-inkscape-font-specification:MS UI Gothic"
         id="path3155" />
      <path
         d="m -505.29126,591.70217 c 2.76041,0.9375 5.07811,1.95313 6.95313,3.04687 l -1.01563,1.71875 c -0.57293,-0.41666 -1.45834,-0.91145 -2.65625,-1.48437 -1.19792,-0.57291 -2.29167,-1.04166 -3.28125,-1.40625 l 0,9.21875 -1.5625,0 0,-16.71875 1.5625,0 z"
         style="font-style:normal;font-variant:normal;font-weight:normal;font-stretch:normal;font-family:MS UI Gothic;-inkscape-font-specification:MS UI Gothic"
         id="path3157" />
      <path
         d="m -494.92993,605.83303 -1.25977,0 c 1.94661,-3.12501 2.91992,-6.25326 2.91992,-9.38477 0,-1.22395 -0.13997,-2.43814 -0.41992,-3.64258 -0.22135,-0.97655 -0.5306,-1.91405 -0.92773,-2.8125 -0.25391,-0.58592 -0.778,-1.56249 -1.57227,-2.92969 l 1.25977,0 c 1.22395,1.63413 2.1289,3.27475 2.71484,4.92188 0.5013,1.41928 0.75195,2.90365 0.75196,4.45312 -1e-5,1.75782 -0.33692,3.45704 -1.01075,5.09766 -0.67383,1.64062 -1.49251,3.07291 -2.45605,4.29688 z"
         style="font-size:20px"
         id="path3159" />
    </g>
    <g
       style="font-size:22px;font-style:normal;font-weight:normal;text-align:center;line-height:125%;letter-spacing:0px;word-spacing:0px;text-anchor:middle;fill:#000000;fill-opacity:1;stroke:none;font-family:Sans"
       id="text3094-1">
      <path
         d="m -447.4834,560.00427 0,-14.3164 1.89453,0 0,14.3164 z"
         style="font-size:20px"
         id="path3100" />
      <path
         d="m -442.25879,560.00427 0,-14.3164 5.40039,0 c 0.95051,10e-6 1.67643,0.0456 2.17774,0.13671 0.70311,0.11721 1.2923,0.34019 1.76757,0.66895 0.47525,0.32879 0.85774,0.7894 1.14747,1.38184 0.2897,0.59246 0.43455,1.2435 0.43457,1.95312 -2e-5,1.21746 -0.38739,2.24773 -1.16211,3.09082 -0.77475,0.84311 -2.17449,1.26466 -4.19922,1.26465 l -3.67188,0 0,5.82031 z m 1.89453,-7.50976 3.70117,0 c 1.22395,0 2.09309,-0.22786 2.60743,-0.6836 0.51431,-0.45572 0.77147,-1.09699 0.77148,-1.92383 -1e-5,-0.59894 -0.15138,-1.11164 -0.4541,-1.53808 -0.30275,-0.42642 -0.70151,-0.708 -1.19629,-0.84473 -0.31902,-0.0846 -0.90821,-0.12694 -1.76758,-0.12695 l -3.66211,0 z"
         style="font-size:20px"
         id="path3102" />
      <path
         d="m -423.56738,546.56677 c 0.62499,2e-5 1.0677,0.23439 1.32812,0.70313 2.13541,4.21876 4.66145,7.91667 7.57813,11.09375 l -1.25,1.71875 c -1.40627,-1.77083 -2.78647,-3.72396 -4.14063,-5.85938 -1.04167,-1.61457 -2.0573,-3.41145 -3.04687,-5.39062 -0.15626,-0.31249 -0.31251,-0.46874 -0.46875,-0.46875 -0.10418,10e-6 -0.20834,0.0521 -0.3125,0.15625 -0.0521,0.20834 -0.10418,0.36459 -0.15625,0.46875 -1.04167,2.44792 -2.26563,4.8698 -3.67188,7.26562 l -1.64062,-1.48437 c 0.72916,-0.98958 1.58854,-2.29166 2.57812,-3.90625 0.625,-1.04166 1.27604,-2.23957 1.95313,-3.59375 0.20832,-0.46874 0.62499,-0.70311 1.25,-0.70313 z"
         style="font-style:normal;font-variant:normal;font-weight:normal;font-stretch:normal;font-family:MS UI Gothic;-inkscape-font-specification:MS UI Gothic"
         id="path3104" />
      <path
         d="m -408.48926,548.28552 c 0.72916,1.14585 1.3802,2.42189 1.95313,3.82813 l -1.48438,0.70312 c -0.625,-1.61457 -1.22396,-2.91665 -1.79687,-3.90625 z m 2.65625,7.65625 c 0.93749,-1.56249 1.3802,-3.85416 1.32813,-6.875 l 1.48437,0.15625 c -0.0521,3.17709 -0.59897,5.67709 -1.64062,7.5 -1.04168,1.875 -2.83855,3.38542 -5.39063,4.53125 l -1.01562,-1.32812 c 2.55207,-0.88542 4.29686,-2.21354 5.23437,-3.98438 z m -6.09375,-6.01562 c 0.46875,0.67709 1.09375,1.97917 1.875,3.90625 l -1.48437,0.70312 c -0.625,-1.61457 -1.22396,-2.9427 -1.79688,-3.98437 z"
         style="font-style:normal;font-variant:normal;font-weight:normal;font-stretch:normal;font-family:MS UI Gothic;-inkscape-font-specification:MS UI Gothic"
         id="path3106" />
      <path
         d="m -388.72363,543.44177 0,3.04688 -1.32813,0 0,-3.04688 z m -2.10938,0 0,3.04688 -1.32812,0 0,-3.04688 z m 0.23438,5.54688 c -10e-6,2.18751 -0.41668,4.16667 -1.25,5.9375 0.5729,0.46875 1.06769,0.91146 1.48437,1.32812 l -1.17187,1.5625 c -0.20835,-0.3125 -0.59897,-0.72916 -1.17188,-1.25 -1.45834,2.29167 -3.46355,3.93229 -6.01562,4.92188 l -1.17188,-1.32813 c 2.60416,-1.09375 4.55729,-2.65625 5.85938,-4.6875 -1.61459,-1.40624 -2.86459,-2.36978 -3.75,-2.89062 l 0.78125,-1.25 c 1.04166,0.62501 2.3177,1.48438 3.82812,2.57812 0.62499,-1.45832 0.96353,-3.09895 1.01563,-4.92187 l 0,-0.54688 -5.15625,0 c -0.57292,2.55209 -1.64063,4.5573 -3.20313,6.01563 l -1.25,-1.17188 c 2.13542,-1.97916 3.17708,-4.86978 3.125,-8.67187 l 1.79688,0 c -10e-6,0.83335 -0.0521,1.61459 -0.15625,2.34375 l 6.40625,0 0,2.03125 z"
         style="font-style:normal;font-variant:normal;font-weight:normal;font-stretch:normal;font-family:MS UI Gothic;-inkscape-font-specification:MS UI Gothic"
         id="path3108" />
      <path
         d="m -454.63184,593.98616 c -0.97005,-1.22396 -1.79036,-2.65625 -2.46093,-4.29687 -0.67058,-1.64063 -1.00586,-3.33984 -1.00586,-5.09766 0,-1.54947 0.25065,-3.03384 0.75195,-4.45312 0.58594,-1.64713 1.49088,-3.28775 2.71484,-4.92188 l 1.25977,0 c -0.78777,1.35418 -1.3086,2.32098 -1.5625,2.90039 -0.39714,0.89845 -0.70964,1.83595 -0.9375,2.8125 -0.27995,1.21746 -0.41993,2.44141 -0.41992,3.67188 -10e-6,3.13151 0.9733,6.25976 2.91992,9.38476 z"
         style="font-size:20px"
         id="path3110" />
      <path
         d="m -442.56152,588.08772 0,1.68946 -9.46289,0 c -0.013,-0.42318 0.0553,-0.83008 0.20507,-1.22071 0.24089,-0.64452 0.62663,-1.27929 1.15723,-1.90429 0.5306,-0.625 1.2972,-1.34765 2.29981,-2.16797 1.55598,-1.27604 2.60741,-2.28678 3.15429,-3.03223 0.54687,-0.74543 0.82031,-1.45018 0.82031,-2.11426 0,-0.6966 -0.24903,-1.28416 -0.74707,-1.76269 -0.49805,-0.4785 -1.14746,-0.71776 -1.94824,-0.71777 -0.84636,10e-6 -1.52344,0.25391 -2.03125,0.76171 -0.50781,0.50783 -0.76497,1.21095 -0.77148,2.10938 l -1.80664,-0.18555 c 0.12369,-1.34764 0.58919,-2.37466 1.39648,-3.08105 0.80729,-0.70637 1.89127,-1.05956 3.25195,-1.05957 1.3737,10e-6 2.46093,0.38087 3.26172,1.14258 0.80078,0.76173 1.20117,1.70574 1.20118,2.83203 -10e-6,0.57292 -0.1172,1.13607 -0.35157,1.68945 -0.23438,0.55339 -0.62338,1.13608 -1.16699,1.74805 -0.54363,0.61198 -1.44695,1.45183 -2.70996,2.51953 -1.05469,0.88542 -1.73178,1.486 -2.03125,1.80176 -0.29948,0.31575 -0.54688,0.63314 -0.74219,0.95214 z"
         style="font-size:20px"
         id="path3112" />
      <path
         d="m -440.66699,582.71663 c 0,-1.6927 0.17415,-3.055 0.52246,-4.08691 0.3483,-1.03189 0.86588,-1.82779 1.55273,-2.3877 0.68685,-0.55988 1.55111,-0.83983 2.59278,-0.83984 0.76822,10e-6 1.44205,0.15463 2.02148,0.46387 0.57942,0.30925 1.05794,0.75522 1.43555,1.33789 0.37759,0.58269 0.67382,1.29232 0.88867,2.1289 0.21483,0.8366 0.32226,1.96453 0.32227,3.38379 -10e-6,1.67969 -0.17254,3.03549 -0.51758,4.06738 -0.34506,1.03191 -0.86101,1.82943 -1.54785,2.39258 -0.68686,0.56315 -1.55437,0.84473 -2.60254,0.84473 -1.38022,0 -2.4642,-0.49479 -3.25196,-1.48438 -0.94401,-1.1914 -1.41601,-3.1315 -1.41601,-5.82031 z m 1.80664,0 c 0,2.35027 0.27506,3.91439 0.82519,4.69238 0.55013,0.778 1.22884,1.167 2.03614,1.167 0.80728,0 1.48599,-0.39063 2.03613,-1.17188 0.55012,-0.78125 0.82519,-2.34374 0.82519,-4.6875 0,-2.35676 -0.27507,-3.92251 -0.82519,-4.69726 -0.55014,-0.77473 -1.23536,-1.1621 -2.05566,-1.16211 -0.8073,10e-6 -1.45183,0.34181 -1.9336,1.02539 -0.60547,0.8724 -0.9082,2.48373 -0.9082,4.83398 z"
         style="font-size:20px"
         id="path3114" />
      <path
         d="m -414.03613,573.52718 0,3.04687 -1.32813,0 0,-3.04687 z m -2.10938,0 0,3.04687 -1.32812,0 0,-3.04687 z m -2.65625,1.95312 c 1.14582,1.9271 2.10936,4.1146 2.89063,6.5625 0.83332,2.44792 1.40623,4.8698 1.71875,7.26563 l -1.79688,0.78125 c -0.20835,-2.44792 -0.72918,-4.92187 -1.5625,-7.42188 -0.78126,-2.60415 -1.66668,-4.71353 -2.65625,-6.32812 l 1.40625,-0.85938 z m -10.46875,13.51563 c 2.55208,-3.33333 3.80208,-7.83854 3.75,-13.51563 l 1.71875,0.3125 c 0,5.83334 -1.32813,10.72917 -3.98437,14.6875 l -1.48438,-1.48437 z"
         style="font-style:normal;font-variant:normal;font-weight:normal;font-stretch:normal;font-family:MS UI Gothic;-inkscape-font-specification:MS UI Gothic"
         id="path3116" />
      <path
         d="m -406.69238,579.30843 c 1.92707,-1.66666 3.35936,-3.3854 4.29687,-5.15625 l 1.64063,1.01562 c -0.83335,1.40627 -2.03126,2.83856 -3.59375,4.29688 l 0,11.5625 -1.5625,0 0,-10 c -1.97917,1.77084 -3.90626,3.09896 -5.78125,3.98437 l -1.01563,-1.5625 c 2.1875,-1.09374 4.19271,-2.47395 6.01563,-4.14062 z"
         style="font-style:normal;font-variant:normal;font-weight:normal;font-stretch:normal;font-family:MS UI Gothic;-inkscape-font-specification:MS UI Gothic"
         id="path3118" />
      <path
         d="m -392.70801,579.8553 c 2.76041,0.93751 5.07812,1.95314 6.95313,3.04688 l -1.01563,1.71875 c -0.57293,-0.41666 -1.45834,-0.91145 -2.65625,-1.48438 -1.19792,-0.57291 -2.29167,-1.04166 -3.28125,-1.40625 l 0,9.21875 -1.5625,0 0,-16.71875 1.5625,0 z"
         style="font-style:normal;font-variant:normal;font-weight:normal;font-stretch:normal;font-family:MS UI Gothic;-inkscape-font-specification:MS UI Gothic"
         id="path3120" />
      <path
         d="m -382.34668,593.98616 -1.25977,0 c 1.94662,-3.125 2.91992,-6.25325 2.91993,-9.38476 -1e-5,-1.22396 -0.13998,-2.43815 -0.41993,-3.64258 -0.22135,-0.97655 -0.5306,-1.91405 -0.92773,-2.8125 -0.25391,-0.58593 -0.778,-1.56249 -1.57227,-2.92969 l 1.25977,0 c 1.22395,1.63413 2.1289,3.27475 2.71484,4.92188 0.5013,1.41928 0.75195,2.90365 0.75196,4.45312 -10e-6,1.75782 -0.33692,3.45703 -1.01074,5.09766 -0.67384,1.64062 -1.49252,3.07291 -2.45606,4.29687 z"
         style="font-size:20px"
         id="path3122" />
    </g>
    <g
       style="font-size:22px;font-style:normal;font-weight:normal;text-align:center;line-height:125%;letter-spacing:0px;word-spacing:0px;text-anchor:middle;fill:#000000;fill-opacity:1;stroke:none;font-family:Sans"
       id="text3094-1-0">
      <path
         d="m -323.83691,559.39838 0,-12.62696 -4.7168,0 0,-1.68945 11.34766,0 0,1.68945 -4.73633,0 0,12.62696 z"
         style="font-size:20px"
         id="path3073" />
      <path
         d="m -305.03809,554.37885 1.89454,0.47851 c -0.39715,1.55599 -1.11167,2.74252 -2.14356,3.55957 -1.03191,0.81706 -2.2933,1.22559 -3.78418,1.22559 -1.54297,0 -2.79786,-0.31413 -3.76465,-0.94239 -0.9668,-0.62825 -1.70247,-1.53808 -2.20703,-2.72949 -0.50456,-1.1914 -0.75684,-2.4707 -0.75683,-3.83789 -10e-6,-1.49088 0.28482,-2.79133 0.85449,-3.90137 0.56966,-1.11001 1.3802,-1.95311 2.43164,-2.52929 1.05143,-0.57616 2.20865,-0.86425 3.47168,-0.86426 1.43228,10e-6 2.63671,0.3646 3.61328,1.09375 0.97655,0.72918 1.65689,1.75457 2.04101,3.07617 l -1.86523,0.43945 c -0.33204,-1.04165 -0.81381,-1.80011 -1.44531,-2.27539 -0.63152,-0.47524 -1.42579,-0.71287 -2.38281,-0.71289 -1.10027,2e-5 -2.01987,0.26369 -2.75879,0.79102 -0.73894,0.52735 -1.25815,1.23536 -1.55762,2.12402 -0.29948,0.88868 -0.44922,1.80502 -0.44922,2.74903 0,1.21745 0.17741,2.28027 0.53223,3.18847 0.35481,0.90821 0.90657,1.58692 1.65527,2.03614 0.74869,0.44922 1.55924,0.67382 2.43164,0.67382 1.06119,0 1.95963,-0.30598 2.69531,-0.91797 0.73567,-0.61197 1.23372,-1.52017 1.49414,-2.7246 z"
         style="font-size:20px"
         id="path3075" />
      <path
         d="m -300.7998,559.39838 0,-14.31641 5.40039,0 c 0.95051,1e-5 1.67642,0.0456 2.17773,0.13672 0.70312,0.1172 1.29231,0.34018 1.76758,0.66894 0.47525,0.32879 0.85773,0.78941 1.14746,1.38184 0.2897,0.59246 0.43456,1.2435 0.43457,1.95313 -10e-6,1.21745 -0.38738,2.24772 -1.16211,3.09082 -0.77475,0.8431 -2.17449,1.26465 -4.19922,1.26464 l -3.67187,0 0,5.82032 z m 1.89453,-7.50977 3.70117,0 c 1.22395,10e-6 2.09309,-0.22786 2.60742,-0.68359 0.51431,-0.45572 0.77147,-1.097 0.77148,-1.92383 -1e-5,-0.59895 -0.15137,-1.11164 -0.4541,-1.53809 -0.30274,-0.42642 -0.7015,-0.70799 -1.19629,-0.84472 -0.31901,-0.0846 -0.90821,-0.12694 -1.76757,-0.12696 l -3.66211,0 z"
         style="font-size:20px"
         id="path3077" />
      <path
         d="m -282.1084,545.96088 c 0.62499,10e-6 1.0677,0.23438 1.32813,0.70312 2.1354,4.21876 4.66144,7.91667 7.57812,11.09375 l -1.25,1.71875 c -1.40626,-1.77083 -2.78647,-3.72395 -4.14062,-5.85937 -1.04168,-1.61458 -2.0573,-3.41145 -3.04688,-5.39063 -0.15626,-0.31249 -0.31251,-0.46874 -0.46875,-0.46875 -0.10417,10e-6 -0.20834,0.0521 -0.3125,0.15625 -0.0521,0.20835 -0.10417,0.3646 -0.15625,0.46875 -1.04167,2.44793 -2.26563,4.8698 -3.67187,7.26563 l -1.64063,-1.48438 c 0.72917,-0.98958 1.58854,-2.29166 2.57813,-3.90625 0.62499,-1.04166 1.27603,-2.23957 1.95312,-3.59375 0.20833,-0.46874 0.625,-0.70311 1.25,-0.70312 z"
         style="font-style:normal;font-variant:normal;font-weight:normal;font-stretch:normal;font-family:MS UI Gothic;-inkscape-font-specification:MS UI Gothic"
         id="path3079" />
      <path
         d="m -267.03027,547.67963 c 0.72916,1.14584 1.3802,2.42188 1.95312,3.82812 l -1.48437,0.70313 c -0.62501,-1.61458 -1.22397,-2.91666 -1.79688,-3.90625 z m 2.65625,7.65625 c 0.93749,-1.5625 1.3802,-3.85416 1.32812,-6.875 l 1.48438,0.15625 c -0.0521,3.17709 -0.59897,5.67708 -1.64063,7.5 -1.04167,1.875 -2.83855,3.38541 -5.39062,4.53125 l -1.01563,-1.32813 c 2.55208,-0.88541 4.29687,-2.21354 5.23438,-3.98437 z m -6.09375,-6.01563 c 0.46874,0.67709 1.09374,1.97918 1.875,3.90625 l -1.48438,0.70313 c -0.625,-1.61458 -1.22396,-2.9427 -1.79687,-3.98438 z"
         style="font-style:normal;font-variant:normal;font-weight:normal;font-stretch:normal;font-family:MS UI Gothic;-inkscape-font-specification:MS UI Gothic"
         id="path3081" />
      <path
         d="m -247.26465,542.83588 0,3.04687 -1.32812,0 0,-3.04687 z m -2.10937,0 0,3.04687 -1.32813,0 0,-3.04687 z m 0.23437,5.54687 c -1e-5,2.18751 -0.41668,4.16667 -1.25,5.9375 0.57291,0.46876 1.0677,0.91146 1.48438,1.32813 l -1.17188,1.5625 c -0.20834,-0.3125 -0.59897,-0.72917 -1.17187,-1.25 -1.45835,2.29166 -3.46355,3.93229 -6.01563,4.92187 l -1.17187,-1.32812 c 2.60416,-1.09375 4.55728,-2.65625 5.85937,-4.6875 -1.61459,-1.40625 -2.86459,-2.36979 -3.75,-2.89063 l 0.78125,-1.25 c 1.04166,0.62501 2.3177,1.48438 3.82813,2.57813 0.62499,-1.45833 0.96353,-3.09895 1.01562,-4.92188 l 0,-0.54687 -5.15625,0 c -0.57292,2.55209 -1.64063,4.5573 -3.20312,6.01562 l -1.25,-1.17187 c 2.13541,-1.97916 3.17708,-4.86978 3.125,-8.67188 l 1.79687,0 c 0,0.83335 -0.0521,1.6146 -0.15625,2.34375 l 6.40625,0 0,2.03125 z"
         style="font-style:normal;font-variant:normal;font-weight:normal;font-stretch:normal;font-family:MS UI Gothic;-inkscape-font-specification:MS UI Gothic"
         id="path3083" />
      <path
         d="m -323.73926,593.38027 c -0.97005,-1.22397 -1.79037,-2.65626 -2.46094,-4.29688 -0.67057,-1.64062 -1.00586,-3.33984 -1.00585,-5.09765 -10e-6,-1.54948 0.25064,-3.03385 0.75195,-4.45313 0.58593,-1.64712 1.49088,-3.28775 2.71484,-4.92187 l 1.25977,0 c -0.78777,1.35417 -1.3086,2.32097 -1.5625,2.90039 -0.39714,0.89844 -0.70964,1.83594 -0.9375,2.8125 -0.27995,1.21745 -0.41993,2.44141 -0.41992,3.67187 -1e-5,3.13151 0.9733,6.25977 2.91992,9.38477 z"
         style="font-size:20px"
         id="path3085" />
      <path
         d="m -311.66895,587.48183 0,1.68945 -9.46289,0 c -0.013,-0.42317 0.0553,-0.83008 0.20508,-1.2207 0.24089,-0.64453 0.62663,-1.2793 1.15723,-1.9043 0.5306,-0.62499 1.2972,-1.34765 2.2998,-2.16797 1.55599,-1.27603 2.60742,-2.28677 3.1543,-3.03222 0.54687,-0.74544 0.8203,-1.45019 0.82031,-2.11426 -1e-5,-0.6966 -0.24903,-1.28417 -0.74707,-1.7627 -0.49805,-0.4785 -1.14746,-0.71776 -1.94824,-0.71777 -0.84636,10e-6 -1.52344,0.25392 -2.03125,0.76172 -0.50782,0.50782 -0.76498,1.21095 -0.77148,2.10937 l -1.80664,-0.18554 c 0.12369,-1.34765 0.58919,-2.37466 1.39648,-3.08106 0.80729,-0.70636 1.89127,-1.05955 3.25195,-1.05957 1.37369,2e-5 2.46093,0.38088 3.26172,1.14258 0.80077,0.76173 1.20116,1.70574 1.20117,2.83203 -10e-6,0.57293 -0.11719,1.13608 -0.35156,1.68945 -0.23438,0.5534 -0.62338,1.13608 -1.16699,1.74805 -0.54363,0.61199 -1.44695,1.45183 -2.70996,2.51953 -1.05469,0.88542 -1.73178,1.48601 -2.03125,1.80176 -0.29948,0.31576 -0.54688,0.63314 -0.74219,0.95215 z"
         style="font-size:20px"
         id="path3087" />
      <path
         d="m -309.77441,582.11074 c 0,-1.6927 0.17415,-3.05501 0.52246,-4.08692 0.3483,-1.03189 0.86588,-1.82779 1.55273,-2.38769 0.68685,-0.55989 1.5511,-0.83983 2.59277,-0.83985 0.76823,2e-5 1.44206,0.15464 2.02149,0.46387 0.57942,0.30926 1.05793,0.75522 1.43555,1.33789 0.37759,0.58269 0.67381,1.29233 0.88867,2.12891 0.21483,0.83659 0.32225,1.96452 0.32226,3.38379 -10e-6,1.67969 -0.17253,3.03548 -0.51757,4.06738 -0.34507,1.0319 -0.86102,1.82943 -1.54786,2.39258 -0.68685,0.56315 -1.55436,0.84472 -2.60254,0.84472 -1.38021,0 -2.46419,-0.49479 -3.25195,-1.48437 -0.94401,-1.19141 -1.41601,-3.13151 -1.41601,-5.82031 z m 1.80664,0 c -1e-5,2.35026 0.27506,3.91439 0.82519,4.69238 0.55013,0.77799 1.22884,1.16699 2.03613,1.16699 0.80729,0 1.486,-0.39062 2.03614,-1.17187 0.55012,-0.78125 0.82518,-2.34375 0.82519,-4.6875 -1e-5,-2.35677 -0.27507,-3.92252 -0.82519,-4.69727 -0.55014,-0.77473 -1.23536,-1.1621 -2.05567,-1.16211 -0.80729,10e-6 -1.45182,0.34181 -1.93359,1.02539 -0.60547,0.87241 -0.90821,2.48373 -0.9082,4.83399 z"
         style="font-size:20px"
         id="path3089" />
      <path
         d="m -283.14355,572.92128 0,3.04688 -1.32813,0 0,-3.04688 z m -2.10938,0 0,3.04688 -1.32812,0 0,-3.04688 z m -2.65625,1.95313 c 1.14582,1.92709 2.10936,4.11459 2.89063,6.5625 0.83331,2.44792 1.40623,4.86979 1.71875,7.26562 l -1.79688,0.78125 c -0.20835,-2.44791 -0.72918,-4.92187 -1.5625,-7.42187 -0.78126,-2.60416 -1.66668,-4.71353 -2.65625,-6.32813 l 1.40625,-0.85937 z m -10.46875,13.51562 c 2.55208,-3.33333 3.80208,-7.83853 3.75,-13.51562 l 1.71875,0.3125 c -1e-5,5.83334 -1.32813,10.72917 -3.98437,14.6875 l -1.48438,-1.48438 z"
         style="font-style:normal;font-variant:normal;font-weight:normal;font-stretch:normal;font-family:MS UI Gothic;-inkscape-font-specification:MS UI Gothic"
         id="path3091" />
      <path
         d="m -275.7998,578.70253 c 1.92707,-1.66665 3.35936,-3.3854 4.29687,-5.15625 l 1.64063,1.01563 c -0.83335,1.40626 -2.03127,2.83855 -3.59375,4.29687 l 0,11.5625 -1.5625,0 0,-10 c -1.97918,1.77084 -3.90626,3.09897 -5.78125,3.98438 l -1.01563,-1.5625 c 2.1875,-1.09375 4.1927,-2.47395 6.01563,-4.14063 z"
         style="font-style:normal;font-variant:normal;font-weight:normal;font-stretch:normal;font-family:MS UI Gothic;-inkscape-font-specification:MS UI Gothic"
         id="path3093" />
      <path
         d="m -261.81543,579.24941 c 2.76041,0.93751 5.07811,1.95313 6.95313,3.04687 l -1.01563,1.71875 c -0.57293,-0.41666 -1.45834,-0.91145 -2.65625,-1.48437 -1.19792,-0.57291 -2.29167,-1.04166 -3.28125,-1.40625 l 0,9.21875 -1.5625,0 0,-16.71875 1.5625,0 z"
         style="font-style:normal;font-variant:normal;font-weight:normal;font-stretch:normal;font-family:MS UI Gothic;-inkscape-font-specification:MS UI Gothic"
         id="path3095" />
      <path
         d="m -251.4541,593.38027 -1.25977,0 c 1.94661,-3.125 2.91992,-6.25326 2.91992,-9.38477 0,-1.22395 -0.13997,-2.43814 -0.41992,-3.64258 -0.22135,-0.97655 -0.5306,-1.91405 -0.92773,-2.8125 -0.25391,-0.58592 -0.778,-1.56248 -1.57227,-2.92968 l 1.25977,0 c 1.22395,1.63412 2.1289,3.27475 2.71484,4.92187 0.5013,1.41928 0.75195,2.90365 0.75196,4.45313 -1e-5,1.75781 -0.33692,3.45703 -1.01075,5.09765 -0.67383,1.64062 -1.49251,3.07291 -2.45605,4.29688 z"
         style="font-size:20px"
         id="path3097" />
    </g>
    <g
       style="font-size:22px;font-style:normal;font-weight:normal;text-align:center;line-height:125%;letter-spacing:0px;word-spacing:0px;text-anchor:middle;fill:#000000;fill-opacity:1;stroke:none;font-family:Sans"
       id="text3094-1-0-7">
      <path
         d="m -58.976612,548.75696 c 0.520828,0.0521 0.54687,0.20834 0.07813,0.46875 l 0,12.1875 -1.5625,0 0,-10 c -0.468753,0.93751 -0.989586,1.71875 -1.5625,2.34375 l -1.015625,-1.64063 c 1.822914,-1.87499 3.046871,-4.71353 3.671875,-8.51562 l 1.71875,0.46875 c 0.468743,0.15626 0.41666,0.33855 -0.15625,0.54687 -0.312506,1.45835 -0.70313,2.83856 -1.171875,4.14063 z m 8.046875,-5.3125 c 0.416653,0.0521 0.442695,0.20835 0.07813,0.46875 l 0,1.95312 5.546875,0 0,1.48438 -5.546875,0 0,1.71875 4.453125,0 0,5.9375 -1.5625,0 0,-0.625 -2.890625,0 c -1.3e-5,1.04167 -0.208346,2.05729 -0.625,3.04687 1.30207,0.88542 3.489567,1.58855 6.5625,2.10938 l -0.546875,1.71875 c -2.760432,-0.36459 -5.026055,-1.19792 -6.796875,-2.5 -1.302094,1.35416 -3.15105,2.26562 -5.546875,2.73437 l -0.546875,-1.48437 c 2.187492,-0.36459 3.828116,-1.09375 4.921875,-2.1875 -1.041676,-0.9375 -1.770842,-1.875 -2.1875,-2.8125 l 0.9375,-0.625 -2.1875,0 0,-5.3125 4.453125,0 0,-1.71875 -5.3125,0 0,-1.48438 5.3125,0 0,-2.42187 z m -1.484375,9.6875 0,-2.8125 -2.890625,0 0,2.8125 z m 4.453125,0 0,-2.8125 -2.890625,0 0,2.8125 z m -4.765625,3.35937 c 0.208322,-0.62499 0.312489,-1.32812 0.3125,-2.10937 l -1.953125,0 c 0.416657,0.72917 0.963531,1.43229 1.640625,2.10937 z"
         style="font-style:normal;font-variant:normal;font-weight:normal;font-stretch:normal;font-family:MS UI Gothic;-inkscape-font-specification:MS UI Gothic"
         id="path3040" />
      <path
         d="m -27.570362,554.77258 -5.078125,0 0,5.9375 -1.5625,0 0,-5.9375 -4.6875,0 c -0.104171,2.70834 -0.911462,4.86979 -2.421875,6.48438 l -1.25,-1.25 c 1.406247,-1.5625 2.109372,-3.38542 2.109375,-5.46875 l 0,-10 14.453125,0 0,14.92187 c -1.8e-5,0.83334 -0.416684,1.25 -1.25,1.25 l -2.1875,0 -0.390625,-1.71875 1.953125,0 c 0.208317,0 0.312484,-0.10416 0.3125,-0.3125 z m -11.328125,-4.375 0,2.89063 4.6875,0 0,-2.89063 z m 0,-4.375 0,2.89063 4.6875,0 0,-2.89063 z m 6.25,4.375 0,2.89063 5.078125,0 0,-2.89063 z m 0,-4.375 0,2.89063 5.078125,0 0,-2.89063 z"
         style="font-style:normal;font-variant:normal;font-weight:normal;font-stretch:normal;font-family:MS UI Gothic;-inkscape-font-specification:MS UI Gothic"
         id="path3042" />
      <path
         d="m -8.0391121,543.36633 0,3.04688 -1.328125,0 0,-3.04688 z m -2.1093749,0 0,3.04688 -1.328125,0 0,-3.04688 z m -10.546875,1.64063 8.59375,0 0,1.48437 -8.59375,0 z m -1.875,5.23437 13.5156249,0 0,1.71875 -5.5468749,0 0,2.57813 c -9e-6,3.17708 -1.432299,5.33854 -4.296875,6.48437 l -1.015625,-1.48437 c 1.406245,-0.41667 2.395827,-1.06771 2.96875,-1.95313 0.520826,-0.78124 0.781242,-1.79687 0.78125,-3.04687 l 0,-2.57813 -6.40625,0 z"
         style="font-style:normal;font-variant:normal;font-weight:normal;font-stretch:normal;font-family:MS UI Gothic;-inkscape-font-specification:MS UI Gothic"
         id="path3044" />
      <path
         d="m 7.4296379,551.25696 0,1.71875 -13.59375,0 0,-1.71875 z"
         style="font-style:normal;font-variant:normal;font-weight:normal;font-stretch:normal;font-family:MS UI Gothic;-inkscape-font-specification:MS UI Gothic"
         id="path3046" />
      <path
         d="m 20.789013,548.52258 c -1.2e-5,2.18751 -0.416678,4.16668 -1.25,5.9375 0.624989,0.46876 1.145821,0.91147 1.5625,1.32813 l -1.171875,1.5625 c -0.208344,-0.26042 -0.598969,-0.65104 -1.171875,-1.17188 -1.458342,2.29167 -3.463548,3.90625 -6.015625,4.84375 l -1.171875,-1.32812 c 2.604161,-1.04167 4.557284,-2.60417 5.859375,-4.6875 -1.61459,-1.40625 -2.864589,-2.36979 -3.75,-2.89063 l 0.78125,-1.25 c 1.04166,0.62501 2.3177,1.48439 3.828125,2.57813 0.62499,-1.45833 0.93749,-3.09895 0.9375,-4.92188 l 0,-0.54687 -5.078125,0 c -0.572921,2.55209 -1.640629,4.5573 -3.203125,6.01562 l -1.2500001,-1.17187 c 2.1354141,-1.97916 3.1770791,-4.86978 3.1250001,-8.67188 l 1.796875,0 c -6e-6,0.83335 -0.05209,1.6146 -0.15625,2.34375 l 6.328125,0 0,2.03125 z"
         style="font-style:normal;font-variant:normal;font-weight:normal;font-stretch:normal;font-family:MS UI Gothic;-inkscape-font-specification:MS UI Gothic"
         id="path3048" />
      <path
         d="m -87.541065,588.82532 c -0.970056,-1.22396 -1.790368,-2.65625 -2.460938,-4.29688 -0.670574,-1.64062 -1.00586,-3.33984 -1.005859,-5.09765 -10e-7,-1.54948 0.250649,-3.03385 0.751953,-4.45313 0.585935,-1.64712 1.490882,-3.28775 2.714844,-4.92187 l 1.259765,0 c -0.787765,1.35418 -1.308598,2.32097 -1.5625,2.90039 -0.397139,0.89845 -0.709639,1.83594 -0.9375,2.8125 -0.279951,1.21745 -0.419924,2.44141 -0.419921,3.67187 -3e-6,3.13151 0.973303,6.25977 2.919921,9.38477 z"
         style="font-size:20px"
         id="path3050" />
      <path
         d="m -71.476612,584.06946 c -1.302096,1.14583 -2.604178,1.92708 -3.90625,2.34375 l -0.859375,-1.5625 c 1.406239,-0.41667 2.604155,-1.01563 3.59375,-1.79688 -0.937512,-1.09374 -1.666678,-2.29166 -2.1875,-3.59375 l -1.171875,0 0,-1.48437 6.71875,0 0.15625,-0.3125 1.328125,1.01562 c 0.05206,0.20834 -0.07814,0.33855 -0.390625,0.39063 -0.572934,1.51042 -1.328141,2.8125 -2.265625,3.90625 0.781234,0.625 2.135399,1.17187 4.0625,1.64062 l -0.546875,1.64063 c -1.510434,-0.3125 -3.020849,-1.04167 -4.53125,-2.1875 z m -1.875,-4.60938 c 0.67707,1.30209 1.276028,2.16146 1.796875,2.57813 0.468735,-0.46875 1.01561,-1.32812 1.640625,-2.57813 l -3.4375,0 z m -4.609375,3.75 0,-1.32812 -2.890625,0 0,1.5625 z m 1.328125,3.20313 -1.328125,0 0,-1.95313 -5.46875,0.78125 c -0.260419,0.36459 -0.416668,0.44271 -0.46875,0.23438 l -0.46875,-1.875 2.1875,-0.0781 0,-6.71875 -2.421875,0 0,-1.25 17.890625,0 0,1.25 -9.921875,0 z m -5,-11.79688 0,-5.70312 11.953125,0 0,5.70312 z m 0.78125,2.1875 0,1.25 2.890625,0 0,-1.25 z m 0,2.5 0,1.32813 2.890625,0 0,-1.32813 z m 0.78125,-6.95312 0,1.01562 8.828125,0 0,-1.01562 z m 0,-2.1875 0,0.9375 8.828125,0 0,-0.9375 z"
         style="font-style:normal;font-variant:normal;font-weight:normal;font-stretch:normal;font-family:MS UI Gothic;-inkscape-font-specification:MS UI Gothic"
         id="path3052" />
      <path
         d="m -64.289112,584.22571 c 4.791661,-1.66667 7.3177,-4.86979 7.578125,-9.60938 l -7.03125,0 0,-1.71875 7.1875,0 0,-4.14062 1.71875,0 c 0.520822,0.10418 0.546864,0.31251 0.07813,0.625 l 0,3.51562 7.5,0 0,1.71875 -7.34375,0 c 1.093738,4.32293 3.749985,7.39584 7.96875,9.21875 l -1.015625,1.875 c -3.645848,-1.66666 -6.22397,-4.47916 -7.734375,-8.4375 -0.885426,4.27084 -3.619798,7.21354 -8.203125,8.82813 z"
         style="font-style:normal;font-variant:normal;font-weight:normal;font-stretch:normal;font-family:MS UI Gothic;-inkscape-font-specification:MS UI Gothic"
         id="path3054" />
      <path
         d="m -38.08794,584.61633 -1.757813,0 0,-11.20117 c -0.423182,0.40366 -0.978195,0.8073 -1.665039,1.21094 -0.686852,0.40365 -1.303713,0.70639 -1.850586,0.9082 l 0,-1.69922 c 0.98307,-0.46223 1.842444,-1.02212 2.578125,-1.67968 0.735672,-0.65754 1.256505,-1.29556 1.5625,-1.91407 l 1.132813,0 z"
         style="font-size:20px"
         id="path3056" />
      <path
         d="m -27.941456,584.61633 0,-3.42773 -6.210937,0 0,-1.61133 6.533203,-9.27734 1.435547,0 0,9.27734 1.933593,0 0,1.61133 -1.933593,0 0,3.42773 z m 0,-5.03906 0,-6.45508 -4.482422,6.45508 z"
         style="font-size:20px"
         id="path3058" />
      <path
         d="m -13.322315,573.80579 -1.748047,0.13671 c -0.156258,-0.69009 -0.377612,-1.19139 -0.664063,-1.5039 -0.475267,-0.50129 -1.061204,-0.75194 -1.757812,-0.75195 -0.559901,10e-6 -1.051437,0.15626 -1.474609,0.46875 -0.55339,0.40365 -0.989587,0.99285 -1.308594,1.76757 -0.319013,0.77475 -0.485029,1.87827 -0.498047,3.31055 0.423174,-0.64452 0.940752,-1.12304 1.552734,-1.43555 0.611975,-0.31249 1.25325,-0.46874 1.923828,-0.46875 1.171868,1e-5 2.169589,0.43133 2.993164,1.29395 0.823558,0.86264 1.235342,1.97754 1.235352,3.34473 -10e-6,0.89844 -0.193695,1.7334 -0.581055,2.50488 -0.387379,0.77148 -0.919605,1.3623 -1.596679,1.77246 -0.677091,0.41016 -1.445319,0.61523 -2.304688,0.61523 -1.464848,0 -2.659508,-0.53873 -3.583984,-1.61621 -0.924481,-1.07747 -1.38672,-2.85318 -1.386719,-5.32715 -1e-6,-2.76691 0.511066,-4.77863 1.533203,-6.03515 0.891924,-1.09374 2.093095,-1.64061 3.603516,-1.64063 1.126295,2e-5 2.049145,0.31577 2.768554,0.94727 0.719392,0.63152 1.150707,1.50392 1.293946,2.61719 z m -7.177735,6.17187 c -2e-6,0.60547 0.128578,1.1849 0.385743,1.73828 0.257158,0.55339 0.616858,0.97494 1.079101,1.26465 0.462235,0.28972 0.947261,0.43457 1.455078,0.43457 0.742181,0 1.380202,-0.29948 1.914063,-0.89844 0.533846,-0.59895 0.800773,-1.41275 0.800781,-2.4414 -8e-6,-0.98958 -0.26368,-1.7692 -0.791016,-2.33887 -0.52735,-0.56965 -1.191412,-0.85448 -1.992187,-0.85449 -0.794276,10e-6 -1.468103,0.28484 -2.021484,0.85449 -0.553389,0.56967 -0.830081,1.31674 -0.830079,2.24121 z"
         style="font-size:20px"
         id="path3060" />
      <path
         d="m -11.310596,577.55579 c -10e-7,-1.6927 0.174152,-3.05501 0.52246,-4.08692 0.348306,-1.03189 0.8658837,-1.82778 1.5527348,-2.38769 0.6868454,-0.55988 1.5511024,-0.83983 2.5927735,-0.83985 0.7682229,2e-5 1.4420503,0.15464 2.0214844,0.46387 0.5794189,0.30926 1.0579341,0.75522 1.4355468,1.33789 0.3775949,0.5827 0.6738185,1.29233 0.8886719,2.12891 0.2148337,0.8366 0.3222555,1.96452 0.3222656,3.38379 -1.01e-5,1.67969 -0.172536,3.03548 -0.5175781,4.06738 -0.3450614,1.0319 -0.8610114,1.82943 -1.5478516,2.39258 -0.6868563,0.56315 -1.5543685,0.84472 -2.602539,0.84472 -1.3802125,0 -2.4641958,-0.49479 -3.2519531,-1.48437 -0.9440122,-1.19141 -1.4160162,-3.13151 -1.4160152,-5.82031 z m 1.8066402,0 c -2.7e-6,2.35026 0.2750622,3.91439 0.8251953,4.69238 0.5501262,0.778 1.2288364,1.16699 2.0361328,1.16699 0.8072853,0 1.4859956,-0.39062 2.0361328,-1.17187 0.5501221,-0.78125 0.8251869,-2.34375 0.8251953,-4.6875 -8.4e-6,-2.35677 -0.2750732,-3.92252 -0.8251953,-4.69727 -0.5501372,-0.77473 -1.2353579,-1.1621 -2.0556641,-1.16211 -0.8072963,10e-6 -1.4518269,0.34181 -1.9335937,1.02539 -0.6054717,0.87241 -0.9082058,2.48374 -0.9082031,4.83399 z"
         style="font-size:20px"
         id="path3062" />
      <path
         d="m 15.320263,568.36633 0,3.04688 -1.328125,0 0,-3.04688 z m -2.109375,0 0,3.04688 -1.328125,0 0,-3.04688 z m -2.65625,1.95313 c 1.145821,1.92709 2.109361,4.11459 2.890625,6.5625 0.833318,2.44792 1.406234,4.86979 1.71875,7.26562 l -1.796875,0.78125 c -0.208348,-2.44791 -0.72918,-4.92187 -1.5625,-7.42187 -0.781262,-2.60416 -1.666678,-4.71353 -2.6562501,-6.32813 l 1.4062501,-0.85937 z M 0.08588791,583.83508 C 2.6379676,580.50175 3.8879663,575.99655 3.8358879,570.31946 l 1.71875,0.3125 c -6.6e-6,5.83334 -1.3281302,10.72917 -3.984375,14.6875 l -1.48437499,-1.48438 z"
         style="font-style:normal;font-variant:normal;font-weight:normal;font-stretch:normal;font-family:MS UI Gothic;-inkscape-font-specification:MS UI Gothic"
         id="path3064" />
      <path
         d="m 22.664013,574.14758 c 1.927075,-1.66665 3.359365,-3.3854 4.296875,-5.15625 l 1.640625,1.01563 c -0.833345,1.40626 -2.031261,2.83855 -3.59375,4.29687 l 0,11.5625 -1.5625,0 0,-10 c -1.979172,1.77084 -3.906254,3.09897 -5.78125,3.98438 l -1.015625,-1.5625 c 2.187497,-1.09374 4.192703,-2.47395 6.015625,-4.14063 z"
         style="font-style:normal;font-variant:normal;font-weight:normal;font-stretch:normal;font-family:MS UI Gothic;-inkscape-font-specification:MS UI Gothic"
         id="path3066" />
      <path
         d="m 36.648388,574.69446 c 2.760408,0.93751 5.078114,1.95313 6.953125,3.04687 l -1.015625,1.71875 c -0.572928,-0.41666 -1.458344,-0.91145 -2.65625,-1.48437 -1.197925,-0.57291 -2.291674,-1.04166 -3.28125,-1.40625 l 0,9.21875 -1.5625,0 0,-16.71875 1.5625,0 z"
         style="font-style:normal;font-variant:normal;font-weight:normal;font-stretch:normal;font-family:MS UI Gothic;-inkscape-font-specification:MS UI Gothic"
         id="path3068" />
      <path
         d="m 47.009716,588.82532 -1.259766,0 c 1.946612,-3.125 2.919918,-6.25326 2.919922,-9.38477 -4e-6,-1.22395 -0.139978,-2.43814 -0.419922,-3.64258 -0.221357,-0.97655 -0.530602,-1.91405 -0.927734,-2.8125 -0.253909,-0.58592 -0.777997,-1.56248 -1.572266,-2.92968 l 1.259766,0 c 1.223955,1.63412 2.128902,3.27475 2.714844,4.92187 0.501296,1.41928 0.751947,2.90365 0.751953,4.45313 -6e-6,1.75781 -0.33692,3.45703 -1.010742,5.09765 -0.673833,1.64063 -1.492517,3.07292 -2.456055,4.29688 z"
         style="font-size:20px"
         id="path3070" />
    </g>
    <g
       style="font-size:22px;font-style:normal;font-weight:normal;text-align:center;line-height:125%;letter-spacing:0px;word-spacing:0px;text-anchor:middle;fill:#000000;fill-opacity:1;stroke:none;font-family:Sans"
       id="text3094-1-0-7-5">
      <path
         d="m 195.34177,550.92871 5.54687,0 0,1.48438 -5.54687,0 0,1.32812 c -1e-5,3.4375 -1.69272,6.01563 -5.07813,7.73438 l -1.01562,-1.40625 c 3.02082,-1.19792 4.53124,-3.30729 4.53125,-6.32813 l 0,-1.32812 -6.5625,0 0,-1.48438 6.5625,0 0,-3.59375 c -1.97918,0.31251 -3.64584,0.4948 -5,0.54688 l -0.625,-1.48438 c 4.47916,-0.31249 8.09894,-0.85936 10.85937,-1.64062 l 0.78125,1.5625 c -1.25001,0.31251 -2.73438,0.57293 -4.45312,0.78125 z"
         style="font-style:normal;font-variant:normal;font-weight:normal;font-stretch:normal;font-family:MS UI Gothic;-inkscape-font-specification:MS UI Gothic"
         id="path3015" />
      <path
         d="m 212.91989,558.89746 0,1.25 -10.39062,0 0,-1.25 4.53125,0 0,-8.35937 -3.75,0 0,-1.25 8.82812,0 0,1.25 -3.75,0 0,8.35937 z"
         style="font-style:normal;font-variant:normal;font-weight:normal;font-stretch:normal;font-family:MS UI Gothic;-inkscape-font-specification:MS UI Gothic"
         id="path3017" />
      <path
         d="m 219.40427,548.35059 c 0.72916,1.14584 1.3802,2.42188 1.95312,3.82812 l -1.48437,0.70313 c -0.62501,-1.61458 -1.22397,-2.91666 -1.79688,-3.90625 z m 2.65625,7.65625 c 0.93749,-1.5625 1.3802,-3.85416 1.32812,-6.875 l 1.48438,0.15625 c -0.0521,3.17709 -0.59897,5.67708 -1.64063,7.5 -1.04167,1.875 -2.83855,3.38541 -5.39062,4.53125 l -1.01563,-1.32813 c 2.55208,-0.88541 4.29687,-2.21354 5.23438,-3.98437 z m -6.09375,-6.01563 c 0.46874,0.67709 1.09374,1.97918 1.875,3.90625 l -1.48438,0.70313 c -0.625,-1.61458 -1.22396,-2.9427 -1.79687,-3.98438 z"
         style="font-style:normal;font-variant:normal;font-weight:normal;font-stretch:normal;font-family:MS UI Gothic;-inkscape-font-specification:MS UI Gothic"
         id="path3019" />
      <path
         d="m 237.91989,546.94434 0,2.57812 c -1e-5,2.96876 -0.78126,5.4948 -2.34375,7.57813 -1.35417,1.92708 -3.3073,3.35937 -5.85937,4.29687 l -1.25,-1.48437 c 2.65624,-0.9375 4.63541,-2.23959 5.9375,-3.90625 1.30207,-1.71875 1.95311,-3.8802 1.95312,-6.48438 l 0,-1.09375 -6.09375,0 c -0.41667,2.50001 -1.35417,4.47917 -2.8125,5.9375 l -1.25,-1.25 c 1.09375,-1.04166 1.82292,-2.26561 2.1875,-3.67187 0.3125,-1.19791 0.44271,-2.78645 0.39063,-4.76563 l 1.71875,0 c -1e-5,0.83335 -0.026,1.58856 -0.0781,2.26563 z"
         style="font-style:normal;font-variant:normal;font-weight:normal;font-stretch:normal;font-family:MS UI Gothic;-inkscape-font-specification:MS UI Gothic"
         id="path3021" />
      <path
         d="m 251.43552,549.05371 3.20312,0 0,1.48438 -3.20312,0 0,2.26562 c -2e-5,2.34376 -0.41668,4.14063 -1.25,5.39063 -0.88543,1.35416 -2.52605,2.42187 -4.92188,3.20312 l -0.9375,-1.5625 c 2.23958,-0.625 3.69791,-1.43229 4.375,-2.42187 0.78124,-0.98958 1.17187,-2.52604 1.17188,-4.60938 l 0,-2.26562 -5.39063,0 0,4.53125 -1.5625,0 0,-4.53125 -2.73437,0 0,-1.48438 2.73437,0 0,-4.21875 1.5625,0 0,4.21875 5.39063,0 0,-4.53125 1.5625,0 z"
         style="font-style:normal;font-variant:normal;font-weight:normal;font-stretch:normal;font-family:MS UI Gothic;-inkscape-font-specification:MS UI Gothic"
         id="path3023" />
      <path
         d="m 267.06052,552.72559 c 1.97915,2.65625 3.43748,5.18229 4.375,7.57812 l -1.71875,0.78125 c -0.15627,-0.57292 -0.39064,-1.19792 -0.70313,-1.875 -4.73959,0.78125 -8.75,1.30208 -12.03125,1.5625 l -0.39062,-1.79687 c 0.62499,0 1.27604,-0.0521 1.95312,-0.15625 1.5625,-4.53125 2.68229,-9.16666 3.35938,-13.90625 l 1.79687,0.3125 c -1.04167,5.31251 -2.1875,9.81771 -3.4375,13.51562 2.65624,-0.20833 5.33853,-0.52083 8.04688,-0.9375 -0.72918,-1.45833 -1.58856,-2.89062 -2.57813,-4.29687 z"
         style="font-style:normal;font-variant:normal;font-weight:normal;font-stretch:normal;font-family:MS UI Gothic;-inkscape-font-specification:MS UI Gothic"
         id="path3025" />
      <path
         d="m 198.63278,589.27832 c -0.97005,-1.22396 -1.79037,-2.65625 -2.46094,-4.29687 -0.67057,-1.64063 -1.00586,-3.33985 -1.00585,-5.09766 -1e-5,-1.54947 0.25064,-3.03385 0.75195,-4.45313 0.58593,-1.64712 1.49088,-3.28774 2.71484,-4.92187 l 1.25977,0 c -0.78777,1.35418 -1.3086,2.32097 -1.5625,2.90039 -0.39714,0.89845 -0.70964,1.83595 -0.9375,2.8125 -0.27995,1.21746 -0.41993,2.44141 -0.41992,3.67187 -1e-5,3.13152 0.9733,6.25977 2.91992,9.38477 z"
         style="font-size:20px"
         id="path3027" />
      <path
         d="m 210.70309,583.37988 0,1.68946 -9.46289,0 c -0.013,-0.42318 0.0553,-0.83008 0.20508,-1.22071 0.24089,-0.64453 0.62663,-1.27929 1.15723,-1.90429 0.5306,-0.625 1.2972,-1.34766 2.2998,-2.16797 1.55599,-1.27604 2.60742,-2.28678 3.1543,-3.03223 0.54687,-0.74543 0.8203,-1.45018 0.82031,-2.11426 -1e-5,-0.6966 -0.24903,-1.28417 -0.74707,-1.76269 -0.49805,-0.47851 -1.14746,-0.71776 -1.94824,-0.71778 -0.84636,2e-5 -1.52344,0.25392 -2.03125,0.76172 -0.50782,0.50783 -0.76498,1.21095 -0.77148,2.10938 l -1.80664,-0.18555 c 0.12369,-1.34764 0.58919,-2.37466 1.39648,-3.08105 0.80729,-0.70637 1.89127,-1.05956 3.25195,-1.05957 1.37369,10e-6 2.46093,0.38087 3.26172,1.14257 0.80077,0.76174 1.20116,1.70574 1.20117,2.83204 -1e-5,0.57292 -0.11719,1.13607 -0.35156,1.68945 -0.23438,0.55339 -0.62338,1.13607 -1.16699,1.74805 -0.54363,0.61198 -1.44695,1.45182 -2.70996,2.51953 -1.05469,0.88542 -1.73178,1.486 -2.03125,1.80175 -0.29949,0.31576 -0.54688,0.63314 -0.74219,0.95215 z"
         style="font-size:20px"
         id="path3029" />
      <path
         d="m 228.09567,568.81934 0,3.04687 -1.32812,0 0,-3.04687 z m -2.10937,0 0,3.04687 -1.32813,0 0,-3.04687 z m -2.65625,1.95312 c 1.14582,1.9271 2.10936,4.11459 2.89062,6.5625 0.83332,2.44792 1.40624,4.8698 1.71875,7.26563 l -1.79687,0.78125 c -0.20835,-2.44792 -0.72918,-4.92187 -1.5625,-7.42188 -0.78126,-2.60416 -1.66668,-4.71353 -2.65625,-6.32812 l 1.40625,-0.85938 z m -10.46875,13.51563 c 2.55208,-3.33333 3.80208,-7.83854 3.75,-13.51563 l 1.71875,0.3125 c -1e-5,5.83334 -1.32813,10.72917 -3.98438,14.6875 l -1.48437,-1.48437 z"
         style="font-style:normal;font-variant:normal;font-weight:normal;font-stretch:normal;font-family:MS UI Gothic;-inkscape-font-specification:MS UI Gothic"
         id="path3031" />
      <path
         d="m 235.43942,574.60059 c 1.92708,-1.66666 3.35937,-3.38541 4.29688,-5.15625 l 1.64062,1.01562 c -0.83334,1.40626 -2.03126,2.83855 -3.59375,4.29688 l 0,11.5625 -1.5625,0 0,-10 c -1.97917,1.77084 -3.90625,3.09896 -5.78125,3.98437 l -1.01562,-1.5625 c 2.18749,-1.09374 4.1927,-2.47395 6.01562,-4.14062 z"
         style="font-style:normal;font-variant:normal;font-weight:normal;font-stretch:normal;font-family:MS UI Gothic;-inkscape-font-specification:MS UI Gothic"
         id="path3033" />
      <path
         d="m 249.4238,575.14746 c 2.76041,0.93751 5.07811,1.95313 6.95312,3.04688 l -1.01562,1.71875 c -0.57293,-0.41667 -1.45835,-0.91146 -2.65625,-1.48438 -1.19793,-0.57291 -2.29168,-1.04166 -3.28125,-1.40625 l 0,9.21875 -1.5625,0 0,-16.71875 1.5625,0 z"
         style="font-style:normal;font-variant:normal;font-weight:normal;font-stretch:normal;font-family:MS UI Gothic;-inkscape-font-specification:MS UI Gothic"
         id="path3035" />
      <path
         d="m 259.78513,589.27832 -1.25977,0 c 1.94661,-3.125 2.91992,-6.25325 2.91992,-9.38477 0,-1.22395 -0.13998,-2.43814 -0.41992,-3.64257 -0.22136,-0.97656 -0.5306,-1.91406 -0.92773,-2.8125 -0.25391,-0.58593 -0.778,-1.56249 -1.57227,-2.92969 l 1.25977,0 c 1.22395,1.63413 2.1289,3.27475 2.71484,4.92187 0.5013,1.41928 0.75195,2.90366 0.75195,4.45313 0,1.75781 -0.33692,3.45703 -1.01074,5.09766 -0.67383,1.64062 -1.49252,3.07291 -2.45605,4.29687 z"
         style="font-size:20px"
         id="path3037" />
    </g>
  </g>
</svg>
