<?xml version="1.0" encoding="UTF-8" standalone="no"?>
<svg
   xmlns:dc="http://purl.org/dc/elements/1.1/"
   xmlns:cc="http://creativecommons.org/ns#"
   xmlns:rdf="http://www.w3.org/1999/02/22-rdf-syntax-ns#"
   xmlns:svg="http://www.w3.org/2000/svg"
   xmlns="http://www.w3.org/2000/svg"
   xmlns:xlink="http://www.w3.org/1999/xlink"
   xmlns:sodipodi="http://sodipodi.sourceforge.net/DTD/sodipodi-0.dtd"
   xmlns:inkscape="http://www.inkscape.org/namespaces/inkscape"
   id="svg137"
   version="1.1"
   height="447"
   width="1087"
   sodipodi:docname="new-maintenance-model.svg"
   inkscape:version="0.92.4 (5da689c313, 2019-01-14)">
  <sodipodi:namedview
     pagecolor="#ffffff"
     bordercolor="#666666"
     borderopacity="1"
     objecttolerance="10"
     gridtolerance="10"
     guidetolerance="10"
     inkscape:pageopacity="0"
     inkscape:pageshadow="2"
     inkscape:window-width="1920"
     inkscape:window-height="1027"
     id="namedview80"
     showgrid="false"
     inkscape:zoom="1.0561178"
     inkscape:cx="484.50262"
     inkscape:cy="223.5"
     inkscape:window-x="-8"
     inkscape:window-y="-8"
     inkscape:window-maximized="1"
     inkscape:current-layer="svg137" />
  <metadata
     id="metadata141">
    <rdf:RDF>
      <cc:Work
         rdf:about="">
        <dc:format>image/svg+xml</dc:format>
        <dc:type
           rdf:resource="http://purl.org/dc/dcmitype/StillImage" />
        <dc:title />
      </cc:Work>
    </rdf:RDF>
  </metadata>
  <defs
     id="defs86">
    <linearGradient
       id="linearGradient5393">
      <stop
         id="stop5395"
         offset="0"
         style="stop-color:#ffffff;stop-" />
      <stop
         id="stop5397"
         offset="1"
         style="stop-color:#ffffff;stop-opacity:0;" />
    </linearGradient>
    <linearGradient
       gradientTransform="matrix(1,0,0,1.1566265,0,-1.722893)"
       gradientUnits="userSpaceOnUse"
       y2="41.785362"
       x2="967.62579"
       y1="41.785362"
       x1="1109.5564"
       id="linearGradient5399"
       xlink:href="#linearGradient5393" />
  </defs>
  <rect
     id="rect7"
     style="fill:#71d6e0"
     width="1037.5"
     height="28"
     x="1"
     y="409"
     rx="3"
     ry="3" />
  <path
     id="path9"
     style="fill:#71d6e0"
     d="m 1086,423 -50,-14 v 28 z" />
  <g
     aria-label="期間"
     style="font-weight:600;font-size:18.75px;font-family:'Open Sans';fill:#5f5f5f"
     id="text11">
    <path
       d="m 542.0178,423.5425 h 2.925 v 1.6125 h -2.925 z m 2.925,-5.7 v 1.40625 h -2.925 v -1.40625 z m -2.925,2.775 h 2.925 v 1.55625 h -2.925 z m 5.8125,4.5375 h -1.275 v -7.3125 h 1.35 v -1.51875 h -1.35 v -2.15625 h -1.6125 v 2.15625 h -2.925 v -2.15625 h -1.575 v 2.15625 h -1.51875 v 1.51875 h 1.51875 v 7.3125 h -1.74375 v 1.51875 h 9.13125 z m -6.675,1.81875 c -0.54375,1.18125 -1.5,2.38125 -2.5125,3.1875 0.4125,0.24375 1.0875,0.73125 1.3875,1.03125 1.0125,-0.91875 2.1,-2.3625 2.775,-3.76875 z m 2.7,0.675 c 0.7125,0.88125 1.575,2.1 1.95,2.85 l 1.40625,-0.84375 c -0.39375,-0.75 -1.29375,-1.89375 -2.025,-2.7375 z m 6.43125,-4.29375 c 0.0375,-0.6 0.0375,-1.2 0.0375,-1.74375 v -0.99375 h 3.3 v 2.7375 z m 3.3375,-6.91875 V 419.08 h -3.3 v -2.64375 z m 1.6875,-1.575 h -6.6375 v 6.75 c 0,2.68125 -0.13125,6.1875 -1.6125,8.64375 0.375,0.16875 1.10625,0.675 1.3875,0.99375 1.06875,-1.70625 1.51875,-4.0875 1.725,-6.31875 h 3.45 v 4.1625 c 0,0.3 -0.1125,0.375 -0.39375,0.39375 -0.24375,0 -1.18125,0.0188 -2.0625,-0.0188 0.225,0.43125 0.45,1.2 0.50625,1.65 1.3875,0.0188 2.2875,-0.0188 2.85,-0.31875 0.58125,-0.2625 0.7875,-0.76875 0.7875,-1.6875 z"
       style="font-style:normal;font-variant:normal;font-weight:500;font-stretch:normal;font-family:'Noto Sans CJK JP';-inkscape-font-specification:'Noto Sans CJK JP Medium'"
       id="path905"
       inkscape:connector-curvature="0" />
    <path
       d="m 563.63655,416.02375 v 1.29375 h -3.54375 v -1.29375 z m -3.54375,3.91875 v -1.3875 h 3.54375 v 1.3875 z m 5.19375,1.29375 v -6.525 h -6.91875 v 16.4625 h 1.725 v -9.9375 z m 3.15,-1.25625 v -1.425 h 3.65625 v 1.425 z m 3.65625,-3.95625 v 1.29375 h -3.65625 v -1.29375 z m -7.9875,12.1125 V 426.58 h 3.80625 v 1.55625 z m 3.80625,-4.29375 v 1.4625 h -3.80625 v -1.4625 z m 5.94375,-9.13125 h -7.0875 v 6.5625 h 5.325 V 428.98 c 0,0.31875 -0.0937,0.4125 -0.43125,0.43125 -0.3,0 -1.2,0.0188 -2.11875,-0.0188 V 422.53 h -7.03125 v 7.85625 h 1.59375 v -0.9375 h 5.0625 c 0.225,0.4875 0.46875,1.2375 0.54375,1.70625 1.575,0 2.60625,-0.0187 3.2625,-0.3 0.675,-0.3 0.88125,-0.8625 0.88125,-1.85625 z"
       style="font-style:normal;font-variant:normal;font-weight:500;font-stretch:normal;font-family:'Noto Sans CJK JP';-inkscape-font-specification:'Noto Sans CJK JP Medium'"
       id="path907"
       inkscape:connector-curvature="0" />
  </g>
  <rect
     id="rect13"
     style="fill:#ededed;stroke-width:1.07546568"
     width="968"
     height="192"
     x="1"
     y="195"
     rx="5"
     ry="5.7831326" />
  <rect
     id="rect15"
     y="265"
     x="425"
     height="26"
     width="190"
     style="fill:#02d35f" />
  <rect
     id="rect17"
     y="317"
     x="155"
     height="26"
     width="190"
     style="fill:#02d35f" />
  <g
     aria-label="SLES 12"
     style="font-weight:600;font-size:18.75px;font-family:'Open Sans';fill:#00c081"
     id="text19">
    <path
       d="m 26.569336,229.21126 q 0,1.78528 -1.290894,2.80151 -1.290893,1.01624 -3.561401,1.01624 -2.270508,0 -3.717041,-0.70496 v -2.06909 q 0.915527,0.4303 1.940918,0.67749 1.034546,0.24719 1.922607,0.24719 1.300049,0 1.913453,-0.49438 0.622558,-0.49439 0.622558,-1.32752 0,-0.75073 -0.567627,-1.27258 -0.567627,-0.52185 -2.34375,-1.23596 -1.831055,-0.74158 -2.581787,-1.69373 -0.750732,-0.95215 -0.750732,-2.28882 0,-1.67541 1.190185,-2.63672 1.190186,-0.9613 3.195191,-0.9613 1.922607,0 3.826904,0.84229 l -0.695801,1.78527 q -1.785278,-0.75073 -3.186035,-0.75073 -1.062012,0 -1.611328,0.46692 -0.549317,0.45776 -0.549317,1.21765 0,0.52185 0.219727,0.89722 0.219727,0.36621 0.723267,0.6958 0.50354,0.32959 1.812744,0.86975 1.473999,0.6134 2.160644,1.14441 0.686646,0.53101 1.00708,1.19934 0.320435,0.66834 0.320435,1.57471 z"
       style="font-weight:600;font-size:18.75px;font-family:'Open Sans';fill:#00c081"
       id="path910"
       inkscape:connector-curvature="0" />
    <path
       d="m 29.178589,232.8459 v -13.38501 h 2.18811 v 11.50818 h 5.667114 v 1.87683 z"
       style="font-weight:600;font-size:18.75px;font-family:'Open Sans';fill:#00c081"
       id="path912"
       inkscape:connector-curvature="0" />
    <path
       d="m 46.930664,232.8459 h -7.571411 v -13.38501 h 7.571411 v 1.84937 h -5.383301 v 3.6438 h 5.044556 v 1.83105 h -5.044556 v 4.20227 h 5.383301 z"
       style="font-weight:600;font-size:18.75px;font-family:'Open Sans';fill:#00c081"
       id="path914"
       inkscape:connector-curvature="0" />
    <path
       d="m 57.550781,229.21126 q 0,1.78528 -1.290893,2.80151 -1.290894,1.01624 -3.561402,1.01624 -2.270507,0 -3.717041,-0.70496 v -2.06909 q 0.915528,0.4303 1.940918,0.67749 1.034546,0.24719 1.922608,0.24719 1.300049,0 1.913452,-0.49438 0.622558,-0.49439 0.622558,-1.32752 0,-0.75073 -0.567627,-1.27258 -0.567626,-0.52185 -2.34375,-1.23596 -1.831054,-0.74158 -2.581787,-1.69373 -0.750732,-0.95215 -0.750732,-2.28882 0,-1.67541 1.190186,-2.63672 1.190185,-0.9613 3.19519,-0.9613 1.922607,0 3.826904,0.84229 l -0.695801,1.78527 q -1.785278,-0.75073 -3.186035,-0.75073 -1.062011,0 -1.611328,0.46692 -0.549316,0.45776 -0.549316,1.21765 0,0.52185 0.219726,0.89722 0.219727,0.36621 0.723267,0.6958 0.50354,0.32959 1.812744,0.86975 1.473999,0.6134 2.160645,1.14441 0.686645,0.53101 1.00708,1.19934 0.320434,0.66834 0.320434,1.57471 z"
       style="font-weight:600;font-size:18.75px;font-family:'Open Sans';fill:#00c081"
       id="path916"
       inkscape:connector-curvature="0" />
    <path
       d="m 70.404785,232.8459 h -2.151489 v -8.64258 q 0,-1.54724 0.07324,-2.45361 -0.210571,0.21973 -0.521851,0.48523 -0.302124,0.2655 -2.050781,1.68457 l -1.080322,-1.36414 3.936768,-3.09448 h 1.794433 z"
       style="font-weight:600;font-size:18.75px;font-family:'Open Sans';fill:#00c081"
       id="path918"
       inkscape:connector-curvature="0" />
    <path
       d="m 83.853882,232.8459 h -9.072876 v -1.62964 l 3.451538,-3.46985 q 1.528931,-1.56555 2.023315,-2.21557 0.50354,-0.65918 0.732422,-1.23596 0.228882,-0.57679 0.228882,-1.23597 0,-0.90637 -0.549316,-1.42822 -0.540161,-0.52185 -1.501465,-0.52185 -0.769043,0 -1.49231,0.28381 -0.714111,0.28382 -1.657104,1.0254 l -1.16272,-1.41907 q 1.116943,-0.943 2.1698,-1.33667 1.052856,-0.39368 2.243042,-0.39368 1.867676,0 2.993774,0.97962 1.126099,0.97045 1.126099,2.6184 0,0.90638 -0.32959,1.72119 -0.320435,0.81482 -0.997925,1.68458 -0.668335,0.86059 -2.233886,2.33459 l -2.32544,2.2522 v 0.0916 h 6.35376 z"
       style="font-weight:600;font-size:18.75px;font-family:'Open Sans';fill:#00c081"
       id="path920"
       inkscape:connector-curvature="0" />
  </g>
  <rect
     id="rect21"
     y="343"
     x="20"
     height="26"
     width="190"
     style="fill:#02d35f" />
  <rect
     id="rect23"
     y="317"
     x="155"
     height="52"
     width="55"
     style="opacity:0.5;fill:#92ecba" />
  <rect
     id="rect25"
     y="291"
     x="290"
     height="26"
     width="190"
     style="fill:#02d35f" />
  <rect
     id="rect27"
     y="291"
     x="290"
     height="52"
     width="55"
     style="opacity:0.5;fill:#92ecba" />
  <rect
     id="rect29"
     y="265"
     x="425"
     height="52"
     width="55"
     style="opacity:0.5;fill:#92ecba" />
  <rect
     id="rect31"
     y="239"
     x="560"
     height="26"
     width="230"
     style="fill:#02d35f" />
  <rect
     id="rect33"
     y="239"
     x="560"
     height="52"
     width="55"
     style="opacity:0.5;fill:#92ecba" />
  <rect
     id="rect37"
     style="fill:#a7a9ac;fill-opacity:0.58823529"
     width="190"
     height="2"
     x="155"
     y="341" />
  <rect
     id="rect39"
     style="fill:#a7a9ac;fill-opacity:0.58823529"
     width="190"
     height="2"
     x="20"
     y="367" />
  <rect
     id="rect41"
     style="fill:#a7a9ac;fill-opacity:0.58823529"
     width="190"
     height="2"
     x="290"
     y="315" />
  <rect
     id="rect43"
     style="fill:#a7a9ac;fill-opacity:0.58823529"
     width="190"
     height="2"
     x="425"
     y="289" />
  <rect
     id="rect45"
     style="fill:#dcddde;stroke-width:1.07546568"
     width="574"
     height="192"
     x="510"
     y="11"
     rx="5"
     ry="5.7831326" />
  <rect
     id="rect47"
     y="81"
     x="934"
     height="26"
     width="150"
     style="fill:#02d35f" />
  <rect
     id="rect49"
     y="133"
     x="664"
     height="26"
     width="190"
     style="fill:#02d35f" />
  <g
     aria-label="SLES 15"
     style="font-weight:600;font-size:18.75px;font-family:'Open Sans';fill:#00c081"
     id="text51">
    <path
       d="m 535.56934,45.09325 q 0,1.785279 -1.2909,2.801514 -1.29089,1.016235 -3.5614,1.016235 -2.27051,0 -3.71704,-0.704956 v -2.069092 q 0.91553,0.430298 1.94092,0.677491 1.03454,0.247192 1.92261,0.247192 1.30004,0 1.91345,-0.494385 0.62256,-0.494384 0.62256,-1.327514 0,-0.750733 -0.56763,-1.272583 -0.56763,-0.521851 -2.34375,-1.235962 -1.83106,-0.741577 -2.58179,-1.693726 -0.75073,-0.952148 -0.75073,-2.288818 0,-1.675415 1.19019,-2.636719 1.19018,-0.961304 3.19519,-0.961304 1.9226,0 3.8269,0.842285 l -0.6958,1.785279 q -1.78528,-0.750733 -3.18604,-0.750733 -1.06201,0 -1.61132,0.466919 -0.54932,0.457764 -0.54932,1.217652 0,0.52185 0.21973,0.897216 0.21972,0.366211 0.72326,0.695801 0.50354,0.32959 1.81275,0.869751 1.474,0.613404 2.16064,1.144409 0.68665,0.531006 1.00708,1.199341 0.32044,0.668335 0.32044,1.574707 z"
       style="font-weight:600;font-size:18.75px;font-family:'Open Sans';fill:#00c081"
       id="path923"
       inkscape:connector-curvature="0" />
    <path
       d="m 538.17859,48.727894 v -13.38501 h 2.18811 v 11.508179 h 5.66711 v 1.876831 z"
       style="font-weight:600;font-size:18.75px;font-family:'Open Sans';fill:#00c081"
       id="path925"
       inkscape:connector-curvature="0" />
    <path
       d="m 555.93066,48.727894 h -7.57141 v -13.38501 h 7.57141 v 1.849365 h -5.3833 v 3.643799 h 5.04456 v 1.831055 h -5.04456 v 4.20227 h 5.3833 z"
       style="font-weight:600;font-size:18.75px;font-family:'Open Sans';fill:#00c081"
       id="path927"
       inkscape:connector-curvature="0" />
    <path
       d="m 566.55078,45.09325 q 0,1.785279 -1.29089,2.801514 -1.2909,1.016235 -3.5614,1.016235 -2.27051,0 -3.71704,-0.704956 v -2.069092 q 0.91552,0.430298 1.94091,0.677491 1.03455,0.247192 1.92261,0.247192 1.30005,0 1.91345,-0.494385 0.62256,-0.494384 0.62256,-1.327514 0,-0.750733 -0.56763,-1.272583 -0.56762,-0.521851 -2.34375,-1.235962 -1.83105,-0.741577 -2.58178,-1.693726 -0.75074,-0.952148 -0.75074,-2.288818 0,-1.675415 1.19019,-2.636719 1.19019,-0.961304 3.19519,-0.961304 1.92261,0 3.82691,0.842285 l -0.69581,1.785279 q -1.78527,-0.750733 -3.18603,-0.750733 -1.06201,0 -1.61133,0.466919 -0.54932,0.457764 -0.54932,1.217652 0,0.52185 0.21973,0.897216 0.21973,0.366211 0.72327,0.695801 0.50354,0.32959 1.81274,0.869751 1.474,0.613404 2.16065,1.144409 0.68664,0.531006 1.00708,1.199341 0.32043,0.668335 0.32043,1.574707 z"
       style="font-weight:600;font-size:18.75px;font-family:'Open Sans';fill:#00c081"
       id="path929"
       inkscape:connector-curvature="0" />
    <path
       d="m 579.40479,48.727894 h -2.15149 v -8.642578 q 0,-1.547242 0.0732,-2.453614 -0.21057,0.219727 -0.52185,0.48523 -0.30213,0.265503 -2.05078,1.68457 l -1.08033,-1.364136 3.93677,-3.094482 h 1.79444 z"
       style="font-weight:600;font-size:18.75px;font-family:'Open Sans';fill:#00c081"
       id="path931"
       inkscape:connector-curvature="0" />
    <path
       d="m 588.32202,40.369129 q 2.02332,0 3.20435,1.071167 1.18103,1.071167 1.18103,2.920532 0,2.142334 -1.34583,3.35083 -1.33667,1.199341 -3.80859,1.199341 -2.24304,0 -3.52478,-0.723266 v -1.950074 q 0.74158,0.421143 1.70288,0.650025 0.9613,0.228882 1.78528,0.228882 1.45569,0 2.21557,-0.650025 0.75989,-0.650024 0.75989,-1.904297 0,-2.398681 -3.05786,-2.398681 -0.4303,0 -1.06201,0.09155 -0.63172,0.0824 -1.10779,0.19226 l -0.9613,-0.567627 0.51269,-6.536865 h 6.95801 v 1.913452 h -5.06287 l -0.30212,3.314209 q 0.32043,-0.05493 0.7782,-0.128174 0.46692,-0.07324 1.13525,-0.07324 z"
       style="font-weight:600;font-size:18.75px;font-family:'Open Sans';fill:#00c081"
       id="path933"
       inkscape:connector-curvature="0" />
  </g>
  <rect
     id="rect53"
     y="159"
     x="529"
     height="26"
     width="190"
     style="fill:#02d35f" />
  <rect
     id="rect55"
     y="133"
     x="664"
     height="52"
     width="55"
     style="opacity:0.5;fill:#92ecba" />
  <rect
     id="rect57"
     y="107"
     x="799"
     height="26"
     width="190"
     style="fill:#02d35f" />
  <rect
     id="rect59"
     y="107"
     x="799"
     height="52"
     width="55"
     style="opacity:0.5;fill:#92ecba" />
  <rect
     id="rect61"
     y="81"
     x="934"
     height="52"
     width="55"
     style="opacity:0.5;fill:#92ecba" />
  <rect
     id="rect63"
     y="55"
     x="1069"
     height="52"
     width="15"
     style="opacity:0.5;fill:#92ecba" />
  <rect
     id="rect65"
     style="fill:#a7a9ac;fill-opacity:0.58823529"
     width="190"
     height="2"
     x="664"
     y="157" />
  <rect
     id="rect67"
     style="fill:#a7a9ac;fill-opacity:0.58823529"
     width="190"
     height="2"
     x="529"
     y="183" />
  <rect
     id="rect69"
     style="fill:#a7a9ac;fill-opacity:0.58823529"
     width="190"
     height="2"
     x="799"
     y="131" />
  <rect
     id="rect71"
     style="fill:#a7a9ac;fill-opacity:0.58823529"
     width="150"
     height="2"
     x="934"
     y="105" />
  <circle
     id="circle73"
     style="fill:#00c081"
     cx="676"
     cy="146"
     r="18" />
  <g
     aria-label="SP1"
     style="font-size:18.75px;font-family:'Open Sans';fill:#ffffff"
     id="text77">
    <path
       d="m 671.34558,149.28641 q 0,1.76697 -1.28174,2.75573 -1.28174,0.98877 -3.479,0.98877 -2.38037,0 -3.66211,-0.6134 v -1.50146 q 0.82397,0.3479 1.79443,0.54931 0.97046,0.20142 1.92261,0.20142 1.5564,0 2.34375,-0.58594 0.78735,-0.59509 0.78735,-1.64795 0,-0.6958 -0.28381,-1.13525 -0.27466,-0.44861 -0.93384,-0.82398 -0.65002,-0.37536 -1.98669,-0.85144 -1.86768,-0.66833 -2.67334,-1.58386 -0.79651,-0.91553 -0.79651,-2.38953 0,-1.54724 1.16272,-2.46276 1.16272,-0.91553 3.07617,-0.91553 1.99585,0 3.67127,0.73242 l -0.48523,1.35498 q -1.65711,-0.6958 -3.22266,-0.6958 -1.23596,0 -1.93176,0.53101 -0.6958,0.531 -0.6958,1.47399 0,0.69581 0.25634,1.14441 0.25635,0.43946 0.8606,0.81482 0.6134,0.36621 1.86768,0.81482 2.10571,0.75074 2.89306,1.61133 0.79651,0.8606 0.79651,2.23389 z"
       style="font-size:18.75px;font-family:'Open Sans';fill:#ffffff"
       id="path941"
       inkscape:connector-curvature="0" />
    <path
       d="m 682.56995,143.36295 q 0,2.03247 -1.39161,3.1311 -1.38244,1.08948 -3.96423,1.08948 h -1.57471 v 5.26428 h -1.55639 V 139.4628 h 3.46985 q 5.01709,0 5.01709,3.90015 z m -6.93055,2.88391 h 1.40076 q 2.06909,0 2.99378,-0.66834 0.92468,-0.66833 0.92468,-2.14233 0,-1.32752 -0.86975,-1.97754 -0.86975,-0.65003 -2.70996,-0.65003 h -1.73951 z"
       style="letter-spacing:-1px"
       id="path943"
       inkscape:connector-curvature="0" />
    <path
       d="m 689.06812,152.84781 h -1.48316 v -9.5398 q 0,-1.19018 0.0732,-2.25219 -0.19226,0.19226 -0.43029,0.40283 -0.23804,0.21057 -2.17896,1.78528 l -0.80566,-1.0437 3.54309,-2.73743 h 1.28174 z"
       style="font-size:18.75px;font-family:'Open Sans';fill:#ffffff"
       id="path945"
       inkscape:connector-curvature="0" />
  </g>
  <circle
     id="circle79"
     style="fill:#00c081"
     cx="811"
     cy="120"
     r="18" />
  <g
     aria-label="SP2"
     style="font-size:18.75px;font-family:'Open Sans';fill:#ffffff"
     id="text83">
    <path
       d="m 804.51172,123.26715 q 0,1.76697 -1.28174,2.75574 -1.28174,0.98877 -3.479,0.98877 -2.38037,0 -3.66211,-0.61341 v -1.50146 q 0.82397,0.3479 1.79443,0.54932 0.97046,0.20141 1.92261,0.20141 1.55639,0 2.34375,-0.58594 0.78735,-0.59509 0.78735,-1.64794 0,-0.69581 -0.28381,-1.13526 -0.27466,-0.44861 -0.93384,-0.82397 -0.65002,-0.37537 -1.98669,-0.85144 -1.86768,-0.66834 -2.67334,-1.58387 -0.79651,-0.91552 -0.79651,-2.38952 0,-1.54724 1.16272,-2.46277 1.16272,-0.91553 3.07617,-0.91553 1.99585,0 3.67126,0.73242 l -0.48523,1.35498 q -1.6571,-0.6958 -3.22265,-0.6958 -1.23596,0 -1.93176,0.53101 -0.69581,0.53101 -0.69581,1.474 0,0.6958 0.25635,1.14441 0.25635,0.43945 0.8606,0.81482 0.6134,0.36621 1.86767,0.81482 2.10572,0.75073 2.89307,1.61132 0.79651,0.8606 0.79651,2.23389 z"
       style="font-size:18.75px;font-family:'Open Sans';fill:#ffffff"
       id="path948"
       inkscape:connector-curvature="0" />
    <path
       d="m 815.73608,117.34369 q 0,2.03247 -1.3916,3.1311 -1.38244,1.08948 -3.96423,1.08948 h -1.57471 v 5.26428 h -1.55639 v -13.38501 h 3.46984 q 5.01709,0 5.01709,3.90015 z m -6.93054,2.88391 h 1.40076 q 2.06909,0 2.99377,-0.66833 0.92469,-0.66834 0.92469,-2.14234 0,-1.32751 -0.86976,-1.97754 -0.86975,-0.65002 -2.70996,-0.65002 h -1.7395 z"
       style="letter-spacing:-0.5px"
       id="path950"
       inkscape:connector-curvature="0" />
    <path
       d="m 825.90198,126.82855 h -8.79822 v -1.3092 l 3.52478,-3.54309 q 1.61133,-1.62964 2.12402,-2.32544 0.5127,-0.6958 0.76905,-1.35498 0.25634,-0.65918 0.25634,-1.41907 0,-1.07117 -0.65002,-1.69373 -0.65002,-0.63171 -1.80359,-0.63171 -0.83313,0 -1.58386,0.27466 -0.74158,0.27466 -1.65711,0.99792 l -0.80566,-1.03454 q 1.84937,-1.53809 4.02832,-1.53809 1.88599,0 2.95715,0.97046 1.07117,0.9613 1.07117,2.59094 0,1.27259 -0.71411,2.5177 -0.71411,1.24512 -2.67334,3.14942 l -2.92969,2.8656 v 0.0732 h 6.88477 z"
       style="font-size:18.75px;font-family:'Open Sans';fill:#ffffff"
       id="path952"
       inkscape:connector-curvature="0" />
  </g>
  <circle
     id="circle85"
     style="fill:#02a49c"
     cx="541"
     cy="172"
     r="18" />
  <g
     aria-label="GA"
     style="font-weight:600;font-size:18.75px;font-family:'Open Sans';fill:#ffffff"
     id="text87">
    <path
       d="m 534.68286,171.60703 h 4.92554 v 6.71997 q -1.2085,0.39367 -2.32544,0.55847 -1.10779,0.16479 -2.39868,0.16479 -3.03955,0 -4.6875,-1.79443 -1.64795,-1.80359 -1.64795,-5.08118 0,-3.23181 1.85852,-5.05371 1.85852,-1.83105 5.1178,-1.83105 2.09655,0 3.97339,0.80566 l -0.76905,1.8219 q -1.62964,-0.75073 -3.25928,-0.75073 -2.14233,0 -3.38745,1.34582 -1.24511,1.34583 -1.24511,3.68042 0,2.45362 1.11694,3.73535 1.1261,1.27259 3.23181,1.27259 1.06201,0 2.27051,-0.26551 v -3.45153 h -2.77405 z"
       style="font-weight:600;font-size:18.75px;font-family:'Open Sans';fill:#ffffff"
       id="path936"
       inkscape:connector-curvature="0" />
    <path
       d="m 551.13489,178.86716 -1.33667,-3.71704 h -5.1178 l -1.3092,3.71704 h -2.30713 l 5.00793,-13.43994 h 2.38037 l 5.00794,13.43994 z m -1.91345,-5.60303 -1.25428,-3.6438 q -0.13733,-0.36621 -0.38452,-1.15356 -0.23804,-0.78736 -0.32959,-1.15357 -0.24719,1.1261 -0.72326,2.46277 l -1.2085,3.48816 z"
       style="font-weight:600;font-size:18.75px;font-family:'Open Sans';fill:#ffffff"
       id="path938"
       inkscape:connector-curvature="0" />
  </g>
  <circle
     id="circle89"
     style="fill:#00c081"
     cx="946"
     cy="94"
     r="18" />
  <g
     aria-label="SP3"
     style="font-size:18.75px;font-family:'Open Sans';fill:#ffffff"
     id="text93">
    <path
       d="m 939.5575,97.247787 q 0,1.766968 -1.28174,2.755733 -1.28174,0.98877 -3.47901,0.98877 -2.38037,0 -3.66211,-0.6134 v -1.501464 q 0.82398,0.347901 1.79444,0.549317 0.97046,0.201416 1.9226,0.201416 1.5564,0 2.34375,-0.585938 0.78736,-0.595093 0.78736,-1.647949 0,-0.695801 -0.28382,-1.135254 -0.27465,-0.448608 -0.93383,-0.823975 -0.65003,-0.375366 -1.9867,-0.85144 -1.86767,-0.668335 -2.67334,-1.583862 -0.79651,-0.915528 -0.79651,-2.389527 0,-1.547241 1.16272,-2.462768 1.16272,-0.915528 3.07618,-0.915528 1.99584,0 3.67126,0.732422 l -0.48523,1.354981 q -1.6571,-0.695801 -3.22266,-0.695801 -1.23596,0 -1.93176,0.531006 -0.6958,0.531006 -0.6958,1.473999 0,0.695801 0.25635,1.144409 0.25635,0.439453 0.86059,0.814819 0.61341,0.366211 1.86768,0.81482 2.10571,0.750732 2.89307,1.611328 0.79651,0.860595 0.79651,2.233886 z"
       style="font-size:18.75px;font-family:'Open Sans';fill:#ffffff"
       id="path955"
       inkscape:connector-curvature="0" />
    <path
       d="m 950.78186,91.324326 q 0,2.03247 -1.3916,3.131103 -1.38245,1.089478 -3.96423,1.089478 h -1.57471 v 5.264283 h -1.5564 V 87.424179 h 3.46985 q 5.01709,0 5.01709,3.900147 z m -6.93054,2.883911 h 1.40076 q 2.06909,0 2.99377,-0.668335 0.92468,-0.668335 0.92468,-2.142334 0,-1.327515 -0.86975,-1.977539 -0.86975,-0.650025 -2.70996,-0.650025 h -1.7395 z"
       style="letter-spacing:-0.5px"
       id="path957"
       inkscape:connector-curvature="0" />
    <path
       d="m 960.44421,90.573593 q 0,1.281738 -0.72326,2.096558 -0.71411,0.814819 -2.03247,1.089477 v 0.07324 q 1.61132,0.201416 2.38952,1.025391 0.7782,0.823975 0.7782,2.160645 0,1.913452 -1.32751,2.947998 -1.32752,1.025388 -3.77198,1.025388 -1.06201,0 -1.95007,-0.16479 -0.87891,-0.15564 -1.71204,-0.55847 v -1.446537 q 0.86976,0.430297 1.84937,0.659179 0.98877,0.219727 1.86768,0.219727 3.46984,0 3.46984,-2.719116 0,-2.435303 -3.8269,-2.435303 h -1.31836 v -1.309204 h 1.33667 q 1.56555,0 2.48108,-0.686646 0.91553,-0.695801 0.91553,-1.922607 0,-0.979614 -0.67749,-1.538086 -0.66834,-0.558472 -1.8219,-0.558472 -0.87891,0 -1.65711,0.238037 -0.7782,0.238037 -1.77612,0.878907 l -0.76904,-1.025391 q 0.82397,-0.650025 1.89514,-1.016235 1.08032,-0.375367 2.27051,-0.375367 1.95007,0 3.03039,0.897217 1.08032,0.888062 1.08032,2.444458 z"
       style="font-size:18.75px;font-family:'Open Sans';fill:#ffffff"
       id="path959"
       inkscape:connector-curvature="0" />
  </g>
  <path
     id="path95"
     d="m 1081,50 a 18,18 0 0 0 -18,18 18,18 0 0 0 18,18 18,18 0 0 0 3,-0.253906 V 50.271484 A 18,18 0 0 0 1081,50 Z"
     style="fill:#00c081" />
  <path
     id="path97"
     d="m 969,11 v 192 h 110 c 2.77,0 5,-2.57927 5,-5.78313 V 16.783135 C 1084,13.579276 1081.77,11 1079,11 Z"
     style="fill:url(#linearGradient5399);stroke-width:1.07546568" />
  <path
     id="path99"
     style="fill:#5f5f5f;fill-opacity:0.75"
     d="m 993.47461,111 c -2.4242,0 -4.27517,0.63928 -5.55469,1.91797 -1.2794,1.27869 -1.91992,3.11437 -1.91992,5.50781 0,2.36065 0.64052,4.21432 1.91992,5.5586 1.27952,1.34426 3.13049,2.01562 5.55469,2.01562 2.42431,0 4.27718,-0.67136 5.55664,-2.01562 1.31305,-1.37706 1.96875,-3.23074 1.96875,-5.5586 0,-2.29508 -0.6405,-4.09869 -1.91992,-5.41015 C 997.80056,111.67136 995.93256,111 993.47461,111 Z m 25.99999,0 c -2.4242,0 -4.2752,0.63928 -5.5547,1.91797 -1.2794,1.27869 -1.9199,3.11437 -1.9199,5.50781 0,2.36065 0.6405,4.21432 1.9199,5.5586 1.2795,1.34426 3.1305,2.01562 5.5547,2.01562 2.4243,0 4.2753,-0.67136 5.5547,-2.01562 1.3132,-1.37706 1.9707,-3.23074 1.9707,-5.5586 0,-2.29508 -0.6405,-4.09869 -1.9199,-5.41015 C 1023.8006,111.67136 1021.9326,111 1019.4746,111 Z m 26,0 c -2.4242,0 -4.2752,0.63928 -5.5547,1.91797 -1.2794,1.27869 -1.9199,3.11437 -1.9199,5.50781 0,2.36065 0.6405,4.21432 1.9199,5.5586 1.2795,1.34426 3.1305,2.01562 5.5547,2.01562 2.4243,0 4.2753,-0.67136 5.5547,-2.01562 1.3132,-1.37706 1.9707,-3.23074 1.9707,-5.5586 0,-2.29508 -0.6405,-4.09869 -1.9199,-5.41015 C 1049.8006,111.67136 1047.9325,111 1045.4746,111 Z" />
  <circle
     id="circle101"
     style="fill:#02a49c"
     cx="32"
     cy="356"
     r="18" />
  <g
     aria-label="GA"
     style="font-weight:600;font-size:18.75px;font-family:'Open Sans';fill:#ffffff"
     id="text103">
    <path
       d="m 25.682861,355.60703 h 4.925537 v 6.71997 q -1.208496,0.39367 -2.325439,0.55847 -1.107788,0.16479 -2.398682,0.16479 -3.03955,0 -4.6875,-1.79443 -1.647949,-1.80359 -1.647949,-5.08118 0,-3.23181 1.858521,-5.05371 1.85852,-1.83105 5.117797,-1.83105 2.096558,0 3.973389,0.80566 l -0.769043,1.8219 q -1.629638,-0.75073 -3.259277,-0.75073 -2.142334,0 -3.387451,1.34582 -1.245118,1.34583 -1.245118,3.68042 0,2.45362 1.116944,3.73535 1.126098,1.27259 3.231811,1.27259 1.062012,0 2.270508,-0.26551 v -3.45153 h -2.774048 z"
       style="font-weight:600;font-size:18.75px;font-family:'Open Sans';fill:#ffffff"
       id="path962"
       inkscape:connector-curvature="0" />
    <path
       d="m 42.134888,362.86716 -1.33667,-3.71704 H 35.68042 l -1.309204,3.71704 h -2.307129 l 5.007934,-13.43994 h 2.380372 l 5.007934,13.43994 z m -1.913452,-5.60303 -1.254273,-3.6438 q -0.137329,-0.36621 -0.384521,-1.15356 -0.238038,-0.78736 -0.32959,-1.15357 -0.247193,1.1261 -0.723267,2.46277 l -1.208496,3.48816 z"
       style="font-weight:600;font-size:18.75px;font-family:'Open Sans';fill:#ffffff"
       id="path964"
       inkscape:connector-curvature="0" />
  </g>
  <circle
     id="circle105"
     style="fill:#00c081"
     cx="167"
     cy="330"
     r="18" />
  <g
     aria-label="SP1"
     style="font-size:18.75px;font-family:'Open Sans';fill:#ffffff"
     id="text109">
    <path
       d="m 162.34558,333.28641 q 0,1.76697 -1.28174,2.75573 -1.28174,0.98877 -3.479,0.98877 -2.38037,0 -3.66211,-0.6134 v -1.50146 q 0.82397,0.3479 1.79443,0.54931 0.97046,0.20142 1.92261,0.20142 1.5564,0 2.34375,-0.58594 0.78735,-0.59509 0.78735,-1.64795 0,-0.6958 -0.28381,-1.13525 -0.27466,-0.44861 -0.93384,-0.82398 -0.65002,-0.37536 -1.98669,-0.85144 -1.86768,-0.66833 -2.67334,-1.58386 -0.79651,-0.91553 -0.79651,-2.38953 0,-1.54724 1.16272,-2.46276 1.16272,-0.91553 3.07617,-0.91553 1.99585,0 3.67127,0.73242 l -0.48523,1.35498 q -1.65711,-0.6958 -3.22266,-0.6958 -1.23596,0 -1.93176,0.53101 -0.6958,0.531 -0.6958,1.47399 0,0.69581 0.25634,1.14441 0.25635,0.43946 0.8606,0.81482 0.6134,0.36621 1.86768,0.81482 2.10571,0.75074 2.89306,1.61133 0.79651,0.8606 0.79651,2.23389 z"
       style="font-size:18.75px;font-family:'Open Sans';fill:#ffffff"
       id="path967"
       inkscape:connector-curvature="0" />
    <path
       d="m 173.56995,327.36295 q 0,2.03247 -1.39161,3.1311 -1.38244,1.08948 -3.96423,1.08948 h -1.57471 v 5.26428 h -1.55639 V 323.4628 h 3.46985 q 5.01709,0 5.01709,3.90015 z m -6.93055,2.88391 h 1.40076 q 2.06909,0 2.99378,-0.66834 0.92468,-0.66833 0.92468,-2.14233 0,-1.32752 -0.86975,-1.97754 -0.86975,-0.65003 -2.70996,-0.65003 h -1.73951 z"
       style="letter-spacing:-1px"
       id="path969"
       inkscape:connector-curvature="0" />
    <path
       d="m 180.06812,336.84781 h -1.48316 v -9.5398 q 0,-1.19018 0.0732,-2.25219 -0.19226,0.19226 -0.43029,0.40283 -0.23804,0.21057 -2.17896,1.78528 l -0.80566,-1.0437 3.54309,-2.73743 h 1.28174 z"
       style="font-size:18.75px;font-family:'Open Sans';fill:#ffffff"
       id="path971"
       inkscape:connector-curvature="0" />
  </g>
  <circle
     id="circle111"
     style="fill:#00c081"
     cx="302"
     cy="304"
     r="18" />
  <g
     aria-label="SP2"
     style="font-size:18.75px;font-family:'Open Sans';fill:#ffffff"
     id="text115">
    <path
       d="m 295.51172,307.26715 q 0,1.76697 -1.28174,2.75574 -1.28174,0.98877 -3.479,0.98877 -2.38037,0 -3.66211,-0.61341 v -1.50146 q 0.82397,0.3479 1.79443,0.54932 0.97046,0.20141 1.92261,0.20141 1.55639,0 2.34375,-0.58594 0.78735,-0.59509 0.78735,-1.64794 0,-0.69581 -0.28381,-1.13526 -0.27466,-0.44861 -0.93384,-0.82397 -0.65002,-0.37537 -1.98669,-0.85144 -1.86768,-0.66834 -2.67334,-1.58387 -0.79651,-0.91552 -0.79651,-2.38952 0,-1.54724 1.16272,-2.46277 1.16272,-0.91553 3.07617,-0.91553 1.99585,0 3.67126,0.73242 l -0.48523,1.35498 q -1.6571,-0.6958 -3.22265,-0.6958 -1.23596,0 -1.93176,0.53101 -0.69581,0.53101 -0.69581,1.474 0,0.6958 0.25635,1.14441 0.25635,0.43945 0.8606,0.81482 0.6134,0.36621 1.86767,0.81482 2.10572,0.75073 2.89307,1.61132 0.79651,0.8606 0.79651,2.23389 z"
       style="font-size:18.75px;font-family:'Open Sans';fill:#ffffff"
       id="path974"
       inkscape:connector-curvature="0" />
    <path
       d="m 306.73608,301.34369 q 0,2.03247 -1.3916,3.1311 -1.38244,1.08948 -3.96423,1.08948 h -1.57471 v 5.26428 h -1.55639 v -13.38501 h 3.46984 q 5.01709,0 5.01709,3.90015 z m -6.93054,2.88391 h 1.40076 q 2.06909,0 2.99377,-0.66833 0.92469,-0.66834 0.92469,-2.14234 0,-1.32751 -0.86976,-1.97754 -0.86975,-0.65002 -2.70996,-0.65002 h -1.7395 z"
       style="letter-spacing:-0.5px"
       id="path976"
       inkscape:connector-curvature="0" />
    <path
       d="m 316.90198,310.82855 h -8.79822 v -1.3092 l 3.52478,-3.54309 q 1.61133,-1.62964 2.12402,-2.32544 0.5127,-0.6958 0.76905,-1.35498 0.25634,-0.65918 0.25634,-1.41907 0,-1.07117 -0.65002,-1.69373 -0.65002,-0.63171 -1.80359,-0.63171 -0.83313,0 -1.58386,0.27466 -0.74158,0.27466 -1.65711,0.99792 l -0.80566,-1.03454 q 1.84937,-1.53809 4.02832,-1.53809 1.88599,0 2.95715,0.97046 1.07117,0.9613 1.07117,2.59094 0,1.27259 -0.71411,2.5177 -0.71411,1.24512 -2.67334,3.14942 l -2.92969,2.8656 v 0.0732 h 6.88477 z"
       style="font-size:18.75px;font-family:'Open Sans';fill:#ffffff"
       id="path978"
       inkscape:connector-curvature="0" />
  </g>
  <circle
     id="circle123"
     style="fill:#00c081"
     cx="437"
     cy="278"
     r="18" />
  <g
     aria-label="SP3"
     style="font-size:18.75px;font-family:'Open Sans';fill:#ffffff"
     id="text127">
    <path
       d="m 430.5575,281.2478 q 0,1.76697 -1.28174,2.75574 -1.28174,0.98877 -3.47901,0.98877 -2.38037,0 -3.66211,-0.6134 v -1.50147 q 0.82398,0.3479 1.79444,0.54932 0.97046,0.20141 1.9226,0.20141 1.5564,0 2.34375,-0.58593 0.78736,-0.5951 0.78736,-1.64795 0,-0.6958 -0.28382,-1.13526 -0.27465,-0.44861 -0.93383,-0.82397 -0.65003,-0.37537 -1.9867,-0.85144 -1.86767,-0.66834 -2.67334,-1.58386 -0.79651,-0.91553 -0.79651,-2.38953 0,-1.54724 1.16272,-2.46277 1.16272,-0.91553 3.07618,-0.91553 1.99584,0 3.67126,0.73243 l -0.48523,1.35498 q -1.6571,-0.6958 -3.22266,-0.6958 -1.23596,0 -1.93176,0.531 -0.6958,0.53101 -0.6958,1.474 0,0.6958 0.25635,1.14441 0.25635,0.43945 0.86059,0.81482 0.61341,0.36621 1.86768,0.81482 2.10571,0.75073 2.89307,1.61133 0.79651,0.86059 0.79651,2.23388 z"
       style="font-size:18.75px;font-family:'Open Sans';fill:#ffffff"
       id="path981"
       inkscape:connector-curvature="0" />
    <path
       d="m 441.78186,275.32434 q 0,2.03247 -1.3916,3.1311 -1.38245,1.08948 -3.96423,1.08948 h -1.57471 v 5.26428 h -1.5564 v -13.38501 h 3.46985 q 5.01709,0 5.01709,3.90015 z m -6.93054,2.88391 h 1.40076 q 2.06909,0 2.99377,-0.66833 0.92468,-0.66834 0.92468,-2.14234 0,-1.32751 -0.86975,-1.97754 -0.86975,-0.65002 -2.70996,-0.65002 h -1.7395 z"
       style="letter-spacing:-0.5px"
       id="path983"
       inkscape:connector-curvature="0" />
    <path
       d="m 451.44421,274.57361 q 0,1.28174 -0.72326,2.09656 -0.71411,0.81482 -2.03247,1.08947 v 0.0733 q 1.61132,0.20141 2.38952,1.02539 0.7782,0.82397 0.7782,2.16064 0,1.91345 -1.32751,2.948 -1.32752,1.02539 -3.77198,1.02539 -1.06201,0 -1.95007,-0.1648 -0.87891,-0.15564 -1.71204,-0.55847 v -1.44653 q 0.86976,0.4303 1.84937,0.65918 0.98877,0.21973 1.86768,0.21973 3.46984,0 3.46984,-2.71912 0,-2.4353 -3.8269,-2.4353 h -1.31836 v -1.30921 h 1.33667 q 1.56555,0 2.48108,-0.68664 0.91553,-0.6958 0.91553,-1.92261 0,-0.97961 -0.67749,-1.53809 -0.66834,-0.55847 -1.8219,-0.55847 -0.87891,0 -1.65711,0.23804 -0.7782,0.23804 -1.77612,0.87891 l -0.76904,-1.02539 q 0.82397,-0.65003 1.89514,-1.01624 1.08032,-0.37537 2.27051,-0.37537 1.95007,0 3.03039,0.89722 1.08032,0.88806 1.08032,2.44446 z"
       style="font-size:18.75px;font-family:'Open Sans';fill:#ffffff"
       id="path985"
       inkscape:connector-curvature="0" />
  </g>
  <rect
     id="rect129"
     ry="3"
     rx="3"
     y="221"
     x="170"
     height="36"
     width="178.78485"
     style="fill:#5f5f5f" />
  <g
     aria-label="6カ月の重複"
     style="font-size:18.75px;font-family:'Open Sans';fill:#00c081"
     id="text131">
    <path
       d="m 210.92346,240.22061 q 0,-3.94592 1.52893,-5.89599 1.53809,-1.95923 4.54102,-1.95923 1.03454,0 1.62964,0.17395 v 1.3092 q -0.70496,-0.22888 -1.61133,-0.22888 -2.15149,0 -3.28674,1.34582 -1.13526,1.33667 -1.24512,4.21143 h 0.10986 q 1.00708,-1.57471 3.18604,-1.57471 1.80359,0 2.83813,1.08948 1.0437,1.08948 1.0437,2.95715 0,2.08741 -1.14441,3.28675 -1.13525,1.19018 -3.07617,1.19018 -2.07825,0 -3.2959,-1.55639 -1.21765,-1.56556 -1.21765,-4.34876 z m 4.49524,4.61426 q 1.30005,0 2.01416,-0.81482 0.72327,-0.82397 0.72327,-2.37122 0,-1.32751 -0.66834,-2.0874 -0.66833,-0.75989 -1.99585,-0.75989 -0.82397,0 -1.51062,0.33875 -0.68664,0.33874 -1.09863,0.93384 -0.40283,0.59509 -0.40283,1.23596 0,0.94299 0.36621,1.75781 0.36621,0.81482 1.03455,1.2909 0.67749,0.47607 1.53808,0.47607 z"
       style="text-align:center;text-anchor:middle"
       id="path892"
       inkscape:connector-curvature="0" />
    <path
       d="m 235.56353,234.56141 c -0.31875,0.0563 -0.69375,0.0937 -1.2,0.0937 h -4.4625 c 0.0375,-0.61875 0.075,-1.25625 0.0937,-1.93125 0.0188,-0.45 0.0563,-1.10625 0.1125,-1.5375 h -1.7625 c 0.075,0.45 0.13125,1.14375 0.13125,1.55625 0,0.675 -0.0375,1.3125 -0.075,1.9125 h -3.3 c -0.7125,0 -1.48125,-0.0375 -2.1375,-0.1125 v 1.59375 c 0.65625,-0.075 1.40625,-0.075 2.15625,-0.075 h 3.15 c -0.50625,3.8625 -1.85625,6.20625 -3.7125,7.89375 -0.5625,0.54375 -1.33125,1.06875 -1.9125,1.3875 l 1.35,1.10625 c 3.13125,-2.15625 5.08125,-5.00625 5.75625,-10.3875 h 5.25 c 0,2.00625 -0.24375,6.61875 -0.95625,8.04375 -0.20625,0.46875 -0.54375,0.61875 -1.0875,0.61875 -0.7875,0 -1.78125,-0.075 -2.79375,-0.20625 l 0.1875,1.55625 c 0.975,0.0562 2.0625,0.1125 3.01875,0.1125 1.03125,0 1.63125,-0.3375 2.00625,-1.125 0.84375,-1.8 1.06875,-7.25625 1.14375,-9.05625 0,-0.24375 0.0375,-0.6 0.0937,-0.91875 z"
       style="font-style:normal;font-variant:normal;font-weight:normal;font-stretch:normal;font-family:'Noto Sans CJK JP';-inkscape-font-specification:'Noto Sans CJK JP'"
       id="path894"
       inkscape:connector-curvature="0" />
    <path
       d="m 244.45103,240.20516 c 0.15,-1.10625 0.20625,-2.175 0.20625,-3.15 h 8.56875 v 3.15 z m 8.775,-7.59375 v 3.1125 h -8.56875 v -3.1125 z m 1.44375,-1.36875 h -11.41875 v 5.7375 c 0,2.98125 -0.3,6.7875 -3.28125,9.4125 0.28125,0.20625 0.84375,0.7125 1.03125,1.0125 1.81875,-1.59375 2.75625,-3.7125 3.225,-5.83125 h 9 v 3.75 c 0,0.4125 -0.15,0.54375 -0.58125,0.5625 -0.43125,0 -1.93125,0.0187 -3.50625,-0.0375 0.24375,0.39375 0.50625,1.05 0.6,1.44375 2.00625,0 3.24375,-0.0188 3.95625,-0.2625 0.69375,-0.225 0.975,-0.7125 0.975,-1.6875 z"
       style="font-style:normal;font-variant:normal;font-weight:normal;font-stretch:normal;font-family:'Noto Sans CJK JP';-inkscape-font-specification:'Noto Sans CJK JP'"
       id="path896"
       inkscape:connector-curvature="0" />
    <path
       d="m 263.16353,243.31766 c -0.80625,0 -1.89375,-1.03125 -1.89375,-3.375 0,-2.49375 2.175,-5.55 5.7375,-6 -0.20625,1.70625 -0.5625,3.46875 -1.03125,5.00625 -0.95625,3.13125 -1.9875,4.36875 -2.8125,4.36875 z m 4.89375,3.1125 c 4.425,-0.58125 6.99375,-3.1875 6.99375,-7.0875 0,-3.75 -2.775,-6.825 -7.125,-6.825 -4.5375,0 -8.1375,3.525 -8.1375,7.55625 0,3.05625 1.66875,4.96875 3.31875,4.96875 1.725,0 3.20625,-1.96875 4.35,-5.775 0.50625,-1.74375 0.8625,-3.61875 1.10625,-5.34375 3.15,0.2625 4.93125,2.56875 4.93125,5.38125 0,3.20625 -2.325,4.96875 -4.70625,5.49375 -0.45,0.0937 -1.0125,0.1875 -1.59375,0.225 z"
       style="font-style:normal;font-variant:normal;font-weight:normal;font-stretch:normal;font-family:'Noto Sans CJK JP';-inkscape-font-specification:'Noto Sans CJK JP'"
       id="path898"
       inkscape:connector-curvature="0" />
    <path
       d="m 281.21978,240.61766 v -1.425 h 4.2375 v 1.425 z m 0,-3.76875 h 4.2375 v 1.40625 h -4.2375 z m 10.06875,0 v 1.40625 h -4.4625 v -1.40625 z m 0,3.76875 h -4.4625 v -1.425 h 4.4625 z m -4.4625,5.025 v -1.6125 h 6.5625 v -1.125 h -6.5625 v -1.29375 h 5.86875 v -5.775 h -5.86875 v -1.125 h 7.63125 v -1.14375 h -7.63125 v -1.44375 c 2.19375,-0.16875 4.2375,-0.375 5.83125,-0.675 l -0.75,-1.0875 c -2.94375,0.54375 -8.19375,0.88125 -12.525,0.99375 0.13125,0.3 0.28125,0.76875 0.3,1.10625 1.8375,-0.0375 3.825,-0.1125 5.775,-0.24375 v 1.35 h -7.48125 v 1.14375 h 7.48125 v 1.125 h -5.60625 v 5.775 h 5.60625 v 1.29375 h -6.16875 v 1.125 h 6.16875 v 1.6125 h -7.575 v 1.14375 h 16.6875 v -1.14375 z"
       style="font-style:normal;font-variant:normal;font-weight:normal;font-stretch:normal;font-family:'Noto Sans CJK JP';-inkscape-font-specification:'Noto Sans CJK JP'"
       id="path900"
       inkscape:connector-curvature="0" />
    <path
       d="m 302.74478,241.18016 c -0.16875,-0.225 -0.58125,-0.75 -1.05,-1.33125 0.45,-0.5625 0.975,-1.35 1.425,-2.0625 l -0.84375,-0.6 c -0.2625,0.5625 -0.73125,1.35 -1.14375,1.96875 -0.24375,-0.28125 -0.45,-0.5625 -0.6375,-0.76875 0.7875,-1.3125 1.48125,-2.7375 1.96875,-4.18125 l -0.73125,-0.46875 -0.24375,0.0563 h -1.275 v -3.43125 h -1.2375 v 3.43125 h -2.325 v 1.2375 h 4.2375 c -1.03125,2.55 -2.8875,5.08125 -4.66875,6.54375 0.20625,0.225 0.5625,0.84375 0.7125,1.1625 0.69375,-0.61875 1.40625,-1.36875 2.08125,-2.23125 v 6.8625 h 1.25625 v -7.6875 c 0.61875,0.8625 1.35,1.89375 1.65,2.45625 z m 3.2625,0.91875 h 4.36875 c -0.5625,0.80625 -1.33125,1.48125 -2.2125,2.04375 -0.88125,-0.58125 -1.6125,-1.25625 -2.15625,-2.04375 z m -0.50625,-4.48125 h 5.45625 v 1.275 h -5.45625 z m 0,-2.15625 h 5.45625 v 1.25625 h -5.45625 z m 5.925,5.49375 -0.2625,0.0563 h -4.125 c 0.3375,-0.39375 0.61875,-0.7875 0.9,-1.18125 h 4.35 v -5.30625 h -7.93125 c 0.3,-0.39375 0.5625,-0.80625 0.80625,-1.21875 h 8.25 v -1.18125 h -7.6125 c 0.28125,-0.5625 0.525,-1.125 0.73125,-1.65 l -1.3125,-0.225 c -0.525,1.44375 -1.48125,3.31875 -2.8875,4.725 0.31875,0.16875 0.75,0.525 0.99375,0.80625 0.3375,-0.35625 0.6375,-0.7125 0.91875,-1.0875 v 5.1375 h 2.11875 c -0.84375,1.21875 -2.2875,2.55 -4.2,3.5625 0.3,0.16875 0.7125,0.6 0.91875,0.9 0.75,-0.43125 1.425,-0.9 2.04375,-1.40625 0.50625,0.7125 1.125,1.35 1.81875,1.9125 -1.425,0.675 -3.1125,1.125 -4.875,1.40625 0.24375,0.2625 0.58125,0.8625 0.7125,1.18125 1.9125,-0.375 3.75,-0.9375 5.34375,-1.78125 1.36875,0.825 2.98125,1.425 4.78125,1.7625 0.1875,-0.35625 0.5625,-0.91875 0.8625,-1.2 -1.63125,-0.2625 -3.13125,-0.7125 -4.40625,-1.33125 1.21875,-0.88125 2.23125,-1.9875 2.8875,-3.375 z"
       style="font-style:normal;font-variant:normal;font-weight:normal;font-stretch:normal;font-family:'Noto Sans CJK JP';-inkscape-font-specification:'Noto Sans CJK JP'"
       id="path902"
       inkscape:connector-curvature="0" />
  </g>
  <path
     id="path133"
     d="m 190.39243,257 v 54.83984 l -2,-0.83984 3.5,10 3.5,-9.8457 -2,0.75195 V 257 Z"
     style="fill:#5f5f5f" />
  <path
     id="path135"
     d="m 325.39244,257 v 28.83984 l -2,-0.83984 3.5,10 3.5,-9.8457 -2,0.75195 V 257 Z"
     style="fill:#5f5f5f" />
  <rect
     id="rect31-5"
     y="213"
     x="735"
     height="26"
     width="230"
     style="fill:#02d35f" />
  <rect
     id="rect35-2"
     style="fill:#a7a9ac;fill-opacity:0.58823529"
     width="230"
     height="2"
     x="735"
     y="237" />
  <rect
     id="rect33-6"
     y="213"
     x="735"
     height="52"
     width="55"
     style="opacity:0.5;fill:#92ecba" />
  <rect
     id="rect35"
     style="fill:#a7a9ac;fill-opacity:0.58823529"
     width="230"
     height="2"
     x="560"
     y="263" />
  <circle
     id="circle117"
     style="fill:#00c081"
     cx="572"
     cy="252"
     r="18" />
  <g
     aria-label="SP4"
     style="font-size:18.75px;font-family:'Open Sans';fill:#ffffff"
     id="text121">
    <path
       d="m 565.19586,255.2478 q 0,1.76697 -1.28174,2.75574 -1.28173,0.98877 -3.479,0.98877 -2.38037,0 -3.66211,-0.6134 v -1.50147 q 0.82397,0.3479 1.79443,0.54932 0.97046,0.20141 1.92261,0.20141 1.5564,0 2.34375,-0.58593 0.78735,-0.5951 0.78735,-1.64795 0,-0.6958 -0.28381,-1.13526 -0.27466,-0.44861 -0.93384,-0.82397 -0.65002,-0.37537 -1.98669,-0.85144 -1.86768,-0.66834 -2.67334,-1.58386 -0.79651,-0.91553 -0.79651,-2.38953 0,-1.54724 1.16272,-2.46277 1.16272,-0.91553 3.07617,-0.91553 1.99585,0 3.67127,0.73243 l -0.48523,1.35498 q -1.65711,-0.6958 -3.22266,-0.6958 -1.23596,0 -1.93176,0.531 -0.6958,0.53101 -0.6958,1.474 0,0.6958 0.25635,1.14441 0.25634,0.43945 0.86059,0.81482 0.6134,0.36621 1.86768,0.81482 2.10571,0.75073 2.89306,1.61133 0.79651,0.86059 0.79651,2.23388 z"
       style="font-size:18.75px;font-family:'Open Sans';fill:#ffffff"
       id="path988"
       inkscape:connector-curvature="0" />
    <path
       d="m 576.42023,249.32434 q 0,2.03247 -1.3916,3.1311 -1.38245,1.08948 -3.96424,1.08948 h -1.5747 v 5.26428 h -1.5564 v -13.38501 h 3.46985 q 5.01709,0 5.01709,3.90015 z m -6.93054,2.88391 h 1.40075 q 2.06909,0 2.99378,-0.66833 0.92468,-0.66834 0.92468,-2.14234 0,-1.32751 -0.86975,-1.97754 -0.86975,-0.65002 -2.70996,-0.65002 h -1.7395 z"
       style="letter-spacing:-0.5px"
       id="path990"
       inkscape:connector-curvature="0" />
    <path
       d="m 587.21783,255.73303 h -1.98669 v 3.07617 h -1.45569 v -3.07617 h -6.5094 v -1.32751 l 6.35376,-9.05457 h 1.61133 v 8.99964 h 1.98669 z m -3.44238,-1.38244 v -4.44947 q 0,-1.3092 0.0915,-2.95715 h -0.0732 q -0.43945,0.87891 -0.82397,1.45569 l -4.18396,5.95093 z"
       style="font-size:18.75px;font-family:'Open Sans';fill:#ffffff"
       id="path992"
       inkscape:connector-curvature="0" />
  </g>
  <circle
     id="circle117-9"
     style="fill:#00c081"
     cx="747"
     cy="226"
     r="18" />
  <g
     aria-label="SP5"
     style="font-size:18.75px;font-family:'Open Sans';fill:#ffffff"
     id="text121-1">
    <path
       d="m 740.1958,229.24779 q 0,1.76697 -1.28174,2.75573 -1.28174,0.98877 -3.479,0.98877 -2.38037,0 -3.66211,-0.6134 v -1.50146 q 0.82397,0.3479 1.79443,0.54931 0.97046,0.20142 1.92261,0.20142 1.5564,0 2.34375,-0.58594 0.78735,-0.59509 0.78735,-1.64795 0,-0.6958 -0.28381,-1.13525 -0.27466,-0.44861 -0.93384,-0.82398 -0.65002,-0.37536 -1.98669,-0.85144 -1.86768,-0.66833 -2.67334,-1.58386 -0.79651,-0.91553 -0.79651,-2.38953 0,-1.54724 1.16272,-2.46276 1.16272,-0.91553 3.07617,-0.91553 1.99585,0 3.67127,0.73242 l -0.48523,1.35498 q -1.65711,-0.6958 -3.22266,-0.6958 -1.23596,0 -1.93176,0.53101 -0.6958,0.531 -0.6958,1.47399 0,0.69581 0.25634,1.14441 0.25635,0.43946 0.8606,0.81482 0.6134,0.36621 1.86768,0.81482 2.10571,0.75074 2.89306,1.61133 0.79651,0.8606 0.79651,2.23389 z"
       style="font-size:18.75px;font-family:'Open Sans';fill:#ffffff"
       id="path995"
       inkscape:connector-curvature="0" />
    <path
       d="m 751.42017,223.32433 q 0,2.03247 -1.39161,3.1311 -1.38244,1.08948 -3.96423,1.08948 h -1.57471 v 5.26428 h -1.55639 v -13.38501 h 3.46985 q 5.01709,0 5.01709,3.90015 z m -6.93055,2.88391 h 1.40076 q 2.06909,0 2.99378,-0.66834 0.92468,-0.66833 0.92468,-2.14233 0,-1.32752 -0.86975,-1.97754 -0.86975,-0.65003 -2.70996,-0.65003 h -1.73951 z"
       style="letter-spacing:-0.5px"
       id="path997"
       inkscape:connector-curvature="0" />
    <path
       d="m 756.9718,224.63353 q 2.11487,0 3.32337,1.05286 1.21765,1.0437 1.21765,2.8656 0,2.07824 -1.32752,3.25927 -1.31836,1.18103 -3.6438,1.18103 -2.26135,0 -3.45153,-0.72326 v -1.46485 q 0.64086,0.41199 1.59301,0.65003 0.95215,0.22888 1.87683,0.22888 1.61133,0 2.49939,-0.75989 0.89722,-0.75989 0.89722,-2.19726 0,-2.80152 -3.43323,-2.80152 -0.86975,0 -2.32544,0.26551 l -0.78735,-0.50354 0.50354,-6.26221 h 6.65588 v 1.40076 h -5.35583 l -0.33875,4.01916 q 1.05286,-0.21057 2.09656,-0.21057 z"
       style="letter-spacing:-0.5px"
       id="path999"
       inkscape:connector-curvature="0" />
  </g>
</svg>
