<?xml version="1.0" encoding="UTF-8" standalone="no"?>
<svg
   width="919.9"
   height="483.24"
   viewBox="0 0 243.39 127.86"
   version="1.1"
   id="svg3040"
   sodipodi:docname="wicked_scheme.svg"
   inkscape:version="1.2.2 (732a01da63, 2022-12-09)"
   xmlns:inkscape="http://www.inkscape.org/namespaces/inkscape"
   xmlns:sodipodi="http://sodipodi.sourceforge.net/DTD/sodipodi-0.dtd"
   xmlns="http://www.w3.org/2000/svg"
   xmlns:svg="http://www.w3.org/2000/svg">
  <sodipodi:namedview
     id="namedview3042"
     pagecolor="#ffffff"
     bordercolor="#000000"
     borderopacity="0.25"
     inkscape:showpageshadow="2"
     inkscape:pageopacity="0.0"
     inkscape:pagecheckerboard="0"
     inkscape:deskcolor="#d1d1d1"
     showgrid="false"
     inkscape:zoom="1.4892923"
     inkscape:cx="459.95"
     inkscape:cy="241.72555"
     inkscape:window-width="1920"
     inkscape:window-height="1009"
     inkscape:window-x="-8"
     inkscape:window-y="-8"
     inkscape:window-maximized="1"
     inkscape:current-layer="g3038" />
  <defs
     id="defs2938">
    <marker
       id="b"
       markerHeight="4.71"
       markerWidth="3.06"
       orient="auto"
       refX="1.53"
       refY="2.35">
      <path
         fill="none"
         stroke="#000"
         d="m2.7.35-2 2 2 2"
         id="path2929" />
    </marker>
    <marker
       id="a"
       markerHeight="4.71"
       markerWidth="3.06"
       orient="auto"
       refX="1.53"
       refY="2.35">
      <path
         fill="none"
         stroke="#000"
         d="m.35.35 2 2-2 2"
         id="path2932" />
    </marker>
    <marker
       id="c"
       markerHeight="4.71"
       markerWidth="3.06"
       orient="auto"
       refX="1.53"
       refY="2.35">
      <path
         fill="none"
         stroke="#000"
         d="m.35.35 2 2-2 2"
         id="path2935" />
    </marker>
  </defs>
  <g
     transform="translate(-2.87 -52.06)"
     id="g3038">
    <rect
       width="18.52"
       height="18.52"
       x="222.25"
       y="65.09"
       fill="#c0c2c4"
       paint-order="stroke fill markers"
       rx="0"
       ry="0"
       id="rect2940" />
    <g
       aria-label="dhcp4"
       id="text2944"
       style="font-weight:500;font-size:3.7px;line-height:1.25;font-family:Poppins;-inkscape-font-specification:'Poppins, Medium';letter-spacing:0;stroke-width:0.26">
      <path
         d="m 225.6391,74.208803 q 0,-0.3108 0.1258,-0.5439 0.1258,-0.2368 0.3441,-0.3663 0.222,-0.1295 0.4958,-0.1295 0.2368,0 0.4403,0.111 0.2035,0.1073 0.3108,0.2849 v -1.073 h 0.3404 v 2.738 h -0.3404 v -0.3811 q -0.0999,0.1813 -0.296,0.2997 -0.1961,0.1147 -0.4588,0.1147 -0.2701,0 -0.4921,-0.1332 -0.2183,-0.1332 -0.3441,-0.3737 -0.1258,-0.2405 -0.1258,-0.5476 z m 1.7168,0.0037 q 0,-0.2294 -0.0925,-0.3996 -0.0925,-0.1702 -0.2516,-0.259 -0.1554,-0.0925 -0.3441,-0.0925 -0.1887,0 -0.3441,0.0888 -0.1554,0.0888 -0.2479,0.259 -0.0925,0.1702 -0.0925,0.3996 0,0.2331 0.0925,0.407 0.0925,0.1702 0.2479,0.2627 0.1554,0.0888 0.3441,0.0888 0.1887,0 0.3441,-0.0888 0.1591,-0.0925 0.2516,-0.2627 0.0925,-0.1739 0.0925,-0.4033 z"
         id="path4447" />
      <path
         d="m 229.2725,73.165403 q 0.2294,0 0.4144,0.0999 0.185,0.0962 0.2886,0.2923 0.1073,0.1961 0.1073,0.4773 v 1.1951 h -0.333 v -1.147 q 0,-0.3034 -0.1517,-0.4625 -0.1517,-0.1628 -0.4144,-0.1628 -0.2664,0 -0.4255,0.1665 -0.1554,0.1665 -0.1554,0.4847 v 1.1211 h -0.3367 v -2.738 h 0.3367 v 0.999 q 0.0999,-0.1554 0.2738,-0.2405 0.1776,-0.0851 0.3959,-0.0851 z"
         id="path4449" />
      <path
         d="m 230.5083,74.212503 q 0,-0.3145 0.1258,-0.5476 0.1258,-0.2368 0.3478,-0.3663 0.2257,-0.1295 0.5143,-0.1295 0.3737,0 0.6142,0.1813 0.2442,0.1813 0.3219,0.5032 h -0.3626 q -0.0518,-0.185 -0.2035,-0.2923 -0.148,-0.1073 -0.37,-0.1073 -0.2886,0 -0.4662,0.1998 -0.1776,0.1961 -0.1776,0.5587 0,0.3663 0.1776,0.5661 0.1776,0.1998 0.4662,0.1998 0.222,0 0.37,-0.1036 0.148,-0.1036 0.2035,-0.296 h 0.3626 q -0.0814,0.3108 -0.3256,0.4995 -0.2442,0.185 -0.6105,0.185 -0.2886,0 -0.5143,-0.1295 -0.222,-0.1295 -0.3478,-0.3663 -0.1258,-0.2368 -0.1258,-0.555 z"
         id="path4451" />
      <path
         d="m 233.2167,73.576103 q 0.0999,-0.1739 0.296,-0.2886 0.1998,-0.1184 0.4625,-0.1184 0.2701,0 0.4884,0.1295 0.222,0.1295 0.3478,0.3663 0.1258,0.2331 0.1258,0.5439 0,0.3071 -0.1258,0.5476 -0.1258,0.2405 -0.3478,0.3737 -0.2183,0.1332 -0.4884,0.1332 -0.259,0 -0.4588,-0.1147 -0.1961,-0.1184 -0.2997,-0.2923 v 1.3357 H 232.88 v -2.9896 h 0.3367 z m 1.3764,0.6327 q 0,-0.2294 -0.0925,-0.3996 -0.0925,-0.1702 -0.2516,-0.259 -0.1554,-0.0888 -0.3441,-0.0888 -0.185,0 -0.3441,0.0925 -0.1554,0.0888 -0.2516,0.2627 -0.0925,0.1702 -0.0925,0.3959 0,0.2294 0.0925,0.4033 0.0962,0.1702 0.2516,0.2627 0.1591,0.0888 0.3441,0.0888 0.1887,0 0.3441,-0.0888 0.1591,-0.0925 0.2516,-0.2627 0.0925,-0.1739 0.0925,-0.407 z"
         id="path4453" />
      <path
         d="m 235.2443,74.634303 v -0.2553 l 1.2987,-1.7982 h 0.4033 v 1.7612 h 0.37 v 0.2923 h -0.37 v 0.5957 h -0.333 v -0.5957 z m 1.3838,-1.702 -0.9953,1.4097 h 0.9953 z"
         id="path4455" />
    </g>
    <rect
       width="18.52"
       height="18.52"
       x="222.25"
       y="88.9"
       fill="#c0c2c4"
       paint-order="stroke fill markers"
       rx="0"
       ry="0"
       id="rect2946" />
    <g
       aria-label="dhcp6"
       id="text2950"
       style="font-weight:500;font-size:3.7px;line-height:1.25;font-family:Poppins;-inkscape-font-specification:'Poppins, Medium';letter-spacing:0;stroke-width:0.26">
      <path
         d="m 225.6391,98.028803 q 0,-0.3108 0.1258,-0.5439 0.1258,-0.2368 0.3441,-0.3663 0.222,-0.1295 0.4958,-0.1295 0.2368,0 0.4403,0.111 0.2035,0.1073 0.3108,0.2849 v -1.073 h 0.3404 v 2.738 h -0.3404 v -0.3811 q -0.0999,0.1813 -0.296,0.2997 -0.1961,0.1147 -0.4588,0.1147 -0.2701,0 -0.4921,-0.1332 -0.2183,-0.1332 -0.3441,-0.3737 -0.1258,-0.2405 -0.1258,-0.5476 z m 1.7168,0.0037 q 0,-0.2294 -0.0925,-0.3996 -0.0925,-0.1702 -0.2516,-0.259 -0.1554,-0.0925 -0.3441,-0.0925 -0.1887,0 -0.3441,0.0888 -0.1554,0.0888 -0.2479,0.259 -0.0925,0.1702 -0.0925,0.3996 0,0.2331 0.0925,0.407 0.0925,0.1702 0.2479,0.2627 0.1554,0.0888 0.3441,0.0888 0.1887,0 0.3441,-0.0888 0.1591,-0.0925 0.2516,-0.2627 0.0925,-0.1739 0.0925,-0.4033 z"
         id="path4458" />
      <path
         d="m 229.2725,96.985403 q 0.2294,0 0.4144,0.0999 0.185,0.0962 0.2886,0.2923 0.1073,0.1961 0.1073,0.4773 v 1.1951 h -0.333 v -1.147 q 0,-0.3034 -0.1517,-0.4625 -0.1517,-0.1628 -0.4144,-0.1628 -0.2664,0 -0.4255,0.1665 -0.1554,0.1665 -0.1554,0.4847 v 1.1211 h -0.3367 v -2.738 h 0.3367 v 0.999 q 0.0999,-0.1554 0.2738,-0.2405 0.1776,-0.0851 0.3959,-0.0851 z"
         id="path4460" />
      <path
         d="m 230.5083,98.032503 q 0,-0.3145 0.1258,-0.5476 0.1258,-0.2368 0.3478,-0.3663 0.2257,-0.1295 0.5143,-0.1295 0.3737,0 0.6142,0.1813 0.2442,0.1813 0.3219,0.5032 h -0.3626 q -0.0518,-0.185 -0.2035,-0.2923 -0.148,-0.1073 -0.37,-0.1073 -0.2886,0 -0.4662,0.1998 -0.1776,0.1961 -0.1776,0.5587 0,0.3663 0.1776,0.5661 0.1776,0.1998 0.4662,0.1998 0.222,0 0.37,-0.1036 0.148,-0.1036 0.2035,-0.296 h 0.3626 q -0.0814,0.3108 -0.3256,0.4995 -0.2442,0.185 -0.6105,0.185 -0.2886,0 -0.5143,-0.1295 -0.222,-0.1295 -0.3478,-0.3663 -0.1258,-0.2368 -0.1258,-0.555 z"
         id="path4462" />
      <path
         d="m 233.2167,97.396103 q 0.0999,-0.1739 0.296,-0.2886 0.1998,-0.1184 0.4625,-0.1184 0.2701,0 0.4884,0.1295 0.222,0.1295 0.3478,0.3663 0.1258,0.2331 0.1258,0.5439 0,0.3071 -0.1258,0.5476 -0.1258,0.2405 -0.3478,0.3737 -0.2183,0.1332 -0.4884,0.1332 -0.259,0 -0.4588,-0.1147 -0.1961,-0.1184 -0.2997,-0.2923 V 100.012 H 232.88 v -2.989597 h 0.3367 z m 1.3764,0.6327 q 0,-0.2294 -0.0925,-0.3996 -0.0925,-0.1702 -0.2516,-0.259 -0.1554,-0.0888 -0.3441,-0.0888 -0.185,0 -0.3441,0.0925 -0.1554,0.0888 -0.2516,0.2627 -0.0925,0.1702 -0.0925,0.3959 0,0.2294 0.0925,0.4033 0.0962,0.1702 0.2516,0.2627 0.1591,0.0888 0.3441,0.0888 0.1887,0 0.3441,-0.0888 0.1591,-0.0925 0.2516,-0.2627 0.0925,-0.1739 0.0925,-0.407 z"
         id="path4464" />
      <path
         d="m 236.8168,97.011303 q -0.0814,-0.4107 -0.5069,-0.4107 -0.3293,0 -0.4921,0.2553 -0.1628,0.2516 -0.1591,0.8325 0.0851,-0.1924 0.2812,-0.2997 0.1998,-0.111 0.444,-0.111 0.3811,0 0.6068,0.2368 0.2294,0.2368 0.2294,0.6549 0,0.2516 -0.0999,0.4514 -0.0962,0.1998 -0.296,0.3182 -0.1961,0.1184 -0.4773,0.1184 -0.3811,0 -0.5957,-0.1702 -0.2146,-0.1702 -0.2997,-0.4699 -0.0851,-0.2997 -0.0851,-0.74 0,-1.3579 0.9472,-1.3579 0.3626,0 0.5698,0.1961 0.2072,0.1961 0.2442,0.4958 z m -0.5032,0.5513 q -0.1591,0 -0.2997,0.0666 -0.1406,0.0629 -0.2294,0.1961 -0.0851,0.1295 -0.0851,0.3182 0,0.2812 0.1628,0.4588 0.1628,0.1739 0.4662,0.1739 0.259,0 0.4107,-0.1591 0.1554,-0.1628 0.1554,-0.4366 0,-0.2886 -0.148,-0.4514 -0.148,-0.1665 -0.4329,-0.1665 z"
         id="path4466" />
    </g>
    <rect
       width="18.52"
       height="18.52"
       x="222.25"
       y="112.71"
       fill="#c0c2c4"
       paint-order="stroke fill markers"
       rx="0"
       ry="0"
       id="rect2952" />
    <g
       aria-label="wpa"
       id="text2956"
       style="font-weight:500;font-size:3.7px;line-height:1.25;font-family:Poppins;-inkscape-font-specification:'Poppins, Medium';letter-spacing:0;stroke-width:0.26">
      <path
         d="m 230.5759,120.4924 -0.6327,2.0276 h -0.3478 l -0.4884,-1.6095 -0.4884,1.6095 h -0.3478 l -0.6364,-2.0276 h 0.3441 l 0.4662,1.702 0.5032,-1.702 h 0.3441 l 0.4921,1.7057 0.4588,-1.7057 z"
         id="path4469" />
      <path
         d="m 231.2456,120.8661 q 0.0999,-0.1739 0.296,-0.2886 0.1998,-0.1184 0.4625,-0.1184 0.2701,0 0.4884,0.1295 0.222,0.1295 0.3478,0.3663 0.1258,0.2331 0.1258,0.5439 0,0.3071 -0.1258,0.5476 -0.1258,0.2405 -0.3478,0.3737 -0.2183,0.1332 -0.4884,0.1332 -0.259,0 -0.4588,-0.1147 -0.1961,-0.1184 -0.2997,-0.2923 v 1.3357 h -0.3367 v -2.9896 h 0.3367 z m 1.3764,0.6327 q 0,-0.2294 -0.0925,-0.3996 -0.0925,-0.1702 -0.2516,-0.259 -0.1554,-0.0888 -0.3441,-0.0888 -0.185,0 -0.3441,0.0925 -0.1554,0.0888 -0.2516,0.2627 -0.0925,0.1702 -0.0925,0.3959 0,0.2294 0.0925,0.4033 0.0962,0.1702 0.2516,0.2627 0.1591,0.0888 0.3441,0.0888 0.1887,0 0.3441,-0.0888 0.1591,-0.0925 0.2516,-0.2627 0.0925,-0.1739 0.0925,-0.407 z"
         id="path4471" />
      <path
         d="m 233.2843,121.4988 q 0,-0.3108 0.1258,-0.5439 0.1258,-0.2368 0.3441,-0.3663 0.222,-0.1295 0.4921,-0.1295 0.2664,0 0.4625,0.1147 0.1961,0.1147 0.2923,0.2886 v -0.37 h 0.3404 v 2.0276 h -0.3404 v -0.3774 q -0.0999,0.1776 -0.2997,0.296 -0.1961,0.1147 -0.4588,0.1147 -0.2701,0 -0.4884,-0.1332 -0.2183,-0.1332 -0.3441,-0.3737 -0.1258,-0.2405 -0.1258,-0.5476 z m 1.7168,0.004 q 0,-0.2294 -0.0925,-0.3996 -0.0925,-0.1702 -0.2516,-0.259 -0.1554,-0.0925 -0.3441,-0.0925 -0.1887,0 -0.3441,0.0888 -0.1554,0.0888 -0.2479,0.259 -0.0925,0.1702 -0.0925,0.3996 0,0.2331 0.0925,0.407 0.0925,0.1702 0.2479,0.2627 0.1554,0.0888 0.3441,0.0888 0.1887,0 0.3441,-0.0888 0.1591,-0.0925 0.2516,-0.2627 0.0925,-0.1739 0.0925,-0.4033 z"
         id="path4473" />
    </g>
    <rect
       width="29.1"
       height="76.73"
       x="216.96"
       y="59.8"
       fill="none"
       stroke="#c0c2c4"
       stroke-dasharray="1.19062, 1.19062"
       stroke-linecap="square"
       stroke-width=".4"
       paint-order="stroke fill markers"
       rx="0"
       ry="0"
       id="rect2958" />
    <rect
       width="47.63"
       height="18.52"
       x="124.35"
       y="96.84"
       fill="#30ba78"
       paint-order="stroke fill markers"
       rx="0"
       ry="0"
       id="rect2960" />
    <g
       aria-label="wicked
(マスタデーモン)"
       id="text2966"
       style="font-weight:500;font-size:3.7px;line-height:1.25;font-family:Poppins;-inkscape-font-specification:'Poppins, Medium';letter-spacing:0;stroke-width:0.26">
      <path
         d="m 144.7105,102.41734 -0.6327,2.0276 H 143.73 l -0.4884,-1.6095 -0.4884,1.6095 h -0.3478 l -0.6364,-2.0276 h 0.3441 l 0.4662,1.702 0.5032,-1.702 h 0.3441 l 0.4921,1.7057 0.4588,-1.7057 z"
         style="text-align:center;text-anchor:middle"
         id="path4290" />
      <path
         d="m 145.21739,102.08804 q -0.0962,0 -0.1628,-0.0666 -0.0666,-0.0666 -0.0666,-0.1628 0,-0.0962 0.0666,-0.1628 0.0666,-0.0666 0.1628,-0.0666 0.0925,0 0.1554,0.0666 0.0666,0.0666 0.0666,0.1628 0,0.0962 -0.0666,0.1628 -0.0629,0.0666 -0.1554,0.0666 z m 0.1628,0.3293 v 2.0276 h -0.3367 v -2.0276 z"
         style="text-align:center;text-anchor:middle"
         id="path4292" />
      <path
         d="m 145.8279,103.42744 q 0,-0.3145 0.1258,-0.5476 0.1258,-0.2368 0.3478,-0.3663 0.2257,-0.1295 0.5143,-0.1295 0.3737,0 0.6142,0.1813 0.2442,0.1813 0.3219,0.5032 h -0.3626 q -0.0518,-0.185 -0.2035,-0.2923 -0.148,-0.1073 -0.37,-0.1073 -0.2886,0 -0.4662,0.1998 -0.1776,0.1961 -0.1776,0.5587 0,0.3663 0.1776,0.5661 0.1776,0.1998 0.4662,0.1998 0.222,0 0.37,-0.1036 0.148,-0.1036 0.2035,-0.296 h 0.3626 q -0.0814,0.3108 -0.3256,0.4995 -0.2442,0.185 -0.6105,0.185 -0.2886,0 -0.5143,-0.1295 -0.222,-0.1295 -0.3478,-0.3663 -0.1258,-0.2368 -0.1258,-0.555 z"
         style="text-align:center;text-anchor:middle"
         id="path4294" />
      <path
         d="m 149.3318,104.44494 -0.7955,-0.8954 v 0.8954 h -0.3367 v -2.738 h 0.3367 v 1.6095 l 0.7807,-0.8991 h 0.4699 l -0.9546,1.0101 0.9583,1.0175 z"
         style="text-align:center;text-anchor:middle"
         id="path4296" />
      <path
         d="m 151.9551,103.35344 q 0,0.0962 -0.0111,0.2035 h -1.6206 q 0.0185,0.2997 0.2035,0.4699 0.1887,0.1665 0.4551,0.1665 0.2183,0 0.3626,-0.0999 0.148,-0.1036 0.2072,-0.2738 h 0.3626 q -0.0814,0.2923 -0.3256,0.4773 -0.2442,0.1813 -0.6068,0.1813 -0.2886,0 -0.518,-0.1295 -0.2257,-0.1295 -0.3552,-0.3663 -0.1295,-0.2405 -0.1295,-0.555 0,-0.3145 0.1258,-0.5513 0.1258,-0.2368 0.3515,-0.3626 0.2294,-0.1295 0.5254,-0.1295 0.2886,0 0.5106,0.1258 0.222,0.1258 0.3404,0.3478 0.1221,0.2183 0.1221,0.4958 z m -0.3478,-0.0703 q 0,-0.1924 -0.0851,-0.3293 -0.0851,-0.1406 -0.2331,-0.2109 -0.1443,-0.074 -0.3219,-0.074 -0.2553,0 -0.4366,0.1628 -0.1776,0.1628 -0.2035,0.4514 z"
         style="text-align:center;text-anchor:middle"
         id="path4298" />
      <path
         d="m 152.2733,103.42374 q 0,-0.3108 0.1258,-0.5439 0.1258,-0.2368 0.3441,-0.3663 0.222,-0.1295 0.4958,-0.1295 0.2368,0 0.4403,0.111 0.2035,0.1073 0.3108,0.2849 v -1.073 h 0.3404 v 2.738 h -0.3404 v -0.3811 q -0.0999,0.1813 -0.296,0.2997 -0.1961,0.1147 -0.4588,0.1147 -0.2701,0 -0.4921,-0.1332 -0.2183,-0.1332 -0.3441,-0.3737 -0.1258,-0.2405 -0.1258,-0.5476 z m 1.7168,0.004 q 0,-0.2294 -0.0925,-0.3996 -0.0925,-0.1702 -0.2516,-0.259 -0.1554,-0.0925 -0.3441,-0.0925 -0.1887,0 -0.3441,0.0888 -0.1554,0.0888 -0.2479,0.259 -0.0925,0.1702 -0.0925,0.3996 0,0.2331 0.0925,0.407 0.0925,0.1702 0.2479,0.2627 0.1554,0.0888 0.3441,0.0888 0.1887,0 0.3441,-0.0888 0.1591,-0.0925 0.2516,-0.2627 0.0925,-0.1739 0.0925,-0.4033 z"
         style="text-align:center;text-anchor:middle"
         id="path4300" />
      <path
         d="m 134.6909,110.13314 q -0.3552,-0.3478 -0.555,-0.8843 -0.1961,-0.5365 -0.1961,-1.1581 0,-0.6364 0.2072,-1.1877 0.2109,-0.555 0.5994,-0.9139 h 0.3515 v 0.0333 q -0.4144,0.3885 -0.6253,0.9361 -0.2072,0.5439 -0.2072,1.1322 0,0.5735 0.1961,1.0952 0.1998,0.5217 0.5809,0.9139 v 0.0333 z"
         style="text-align:center;text-anchor:middle"
         id="path4302" />
      <path
         d="m 138.4205,106.91044 c -0.0518,0.0185 -0.1332,0.0296 -0.2368,0.0296 h -2.2052 c -0.1295,0 -0.2738,-0.0148 -0.3774,-0.0296 v 0.333 c 0.074,-0.007 0.2331,-0.0222 0.3774,-0.0222 h 2.1756 c -0.185,0.333 -0.6105,0.8769 -1.1544,1.2839 -0.2516,-0.2257 -0.555,-0.4699 -0.6919,-0.5698 l -0.2405,0.1924 c 0.1961,0.1369 0.6253,0.5069 0.8473,0.7289 0.2331,0.2405 0.5291,0.5661 0.666,0.7548 l 0.2701,-0.2146 c -0.148,-0.1813 -0.4107,-0.4588 -0.6327,-0.6808 0.6105,-0.4662 1.0804,-1.0693 1.3468,-1.5022 0.0222,-0.0333 0.0555,-0.074 0.0925,-0.1147 z"
         style="font-weight:normal;font-family:'Noto Sans CJK JP';-inkscape-font-specification:'Noto Sans CJK JP'"
         id="path4304" />
      <path
         d="m 141.6913,106.82534 c -0.0592,0.0185 -0.1554,0.0333 -0.2775,0.0333 h -1.4282 c -0.111,0 -0.3219,-0.0185 -0.3737,-0.0259 v 0.3367 c 0.0407,-0.004 0.2442,-0.0185 0.3737,-0.0185 h 1.443 c -0.0925,0.3034 -0.3626,0.7437 -0.6142,1.0286 -0.3811,0.4255 -0.9287,0.8658 -1.5244,1.0989 l 0.2368,0.2479 c 0.5476,-0.2479 1.0471,-0.6549 1.443,-1.0804 0.3774,0.3367 0.7696,0.7733 1.0175,1.0989 l 0.259,-0.2257 c -0.2405,-0.2886 -0.6919,-0.7696 -1.0804,-1.1026 0.2627,-0.333 0.4958,-0.7659 0.6216,-1.0841 0.0222,-0.0518 0.0703,-0.1332 0.0925,-0.1628 z"
         style="font-weight:normal;font-family:'Noto Sans CJK JP';-inkscape-font-specification:'Noto Sans CJK JP'"
         id="path4306" />
      <path
         d="m 145.6059,106.92524 c -0.0629,0.0259 -0.1443,0.037 -0.2442,0.037 h -1.0101 c 0.0296,-0.0481 0.0555,-0.0925 0.0777,-0.1369 0.037,-0.0703 0.1036,-0.1961 0.1628,-0.2923 l -0.333,-0.1073 c -0.0259,0.0962 -0.0814,0.2294 -0.1184,0.296 -0.1665,0.3367 -0.5513,0.8917 -1.1877,1.2839 l 0.2479,0.1924 c 0.4144,-0.2812 0.7437,-0.6438 0.9805,-0.9731 h 1.258 c -0.0703,0.2923 -0.2516,0.6734 -0.4773,0.9879 -0.2886,-0.1739 -0.5994,-0.3515 -0.814,-0.4625 l -0.1887,0.2183 c 0.2072,0.1147 0.518,0.2997 0.8103,0.4884 -0.3367,0.37 -0.8177,0.7252 -1.4615,0.9213 l 0.2664,0.2294 c 0.6512,-0.2405 1.1174,-0.6031 1.4504,-0.9842 0.1406,0.0962 0.2627,0.185 0.3515,0.2553 l 0.2035,-0.2664 c -0.0925,-0.0666 -0.2183,-0.1517 -0.3589,-0.2405 0.259,-0.3626 0.4477,-0.7733 0.5402,-1.0989 0.0222,-0.0592 0.0555,-0.148 0.0851,-0.1998 z"
         style="font-weight:normal;font-family:'Noto Sans CJK JP';-inkscape-font-specification:'Noto Sans CJK JP'"
         id="path4308" />
      <path
         d="m 149.5279,106.94744 c -0.0777,-0.1517 -0.2109,-0.3737 -0.3034,-0.5069 l -0.1961,0.0851 c 0.0999,0.1369 0.2257,0.3589 0.2997,0.5106 z m -0.8399,0.0888 c 0.1073,0 0.2368,0.004 0.3441,0.0111 v -0.3071 c -0.1073,0.0148 -0.2405,0.0222 -0.3441,0.0222 h -1.2802 c -0.1184,0 -0.2294,-0.0111 -0.3367,-0.0222 v 0.3071 c 0.0962,-0.007 0.2183,-0.0111 0.3404,-0.0111 z m -1.7316,0.6512 c -0.1147,0 -0.222,-0.007 -0.3219,-0.0148 v 0.3034 c 0.0999,-0.007 0.2072,-0.007 0.3219,-0.007 h 1.1063 c -0.0111,0.3478 -0.0518,0.6586 -0.2146,0.9176 -0.1443,0.2331 -0.4107,0.4477 -0.6993,0.5661 l 0.2738,0.2035 c 0.3145,-0.1628 0.5957,-0.4292 0.7289,-0.6771 0.148,-0.2738 0.2072,-0.6105 0.2183,-1.0101 h 1.0064 c 0.0888,0 0.2072,0.004 0.2886,0.007 v -0.3034 c -0.0888,0.0111 -0.2109,0.0148 -0.2886,0.0148 z m 2.479,-1.3135 c 0.1073,0.1406 0.2257,0.3478 0.3071,0.5106 l 0.1998,-0.0888 c -0.0703,-0.1369 -0.2146,-0.37 -0.3108,-0.5032 z"
         style="font-weight:normal;font-family:'Noto Sans CJK JP';-inkscape-font-specification:'Noto Sans CJK JP'"
         id="path4310" />
      <path
         d="m 150.3974,108.20544 c 0.1147,-0.0111 0.3108,-0.0185 0.5143,-0.0185 h 2.0313 c 0.1665,0 0.3219,0.0148 0.3959,0.0185 v -0.3626 c -0.0814,0.007 -0.2146,0.0185 -0.3996,0.0185 h -2.0276 c -0.2072,0 -0.4033,-0.0111 -0.5143,-0.0185 z"
         style="font-weight:normal;font-family:'Noto Sans CJK JP';-inkscape-font-specification:'Noto Sans CJK JP'"
         id="path4312" />
      <path
         d="m 156.7762,108.16474 c 0.0814,0 0.2146,0 0.2997,0.0111 v -0.3034 c -0.0851,0.007 -0.2294,0.0148 -0.3071,0.0148 h -1.2469 v -0.7844 h 0.962 c 0.1295,0 0.2146,0.007 0.3034,0.0111 v -0.296 c -0.0814,0.007 -0.185,0.0148 -0.3034,0.0148 h -1.7612 c -0.1258,0 -0.2331,-0.007 -0.333,-0.0148 v 0.296 c 0.0999,-0.007 0.2072,-0.0111 0.333,-0.0111 h 0.4921 v 0.7844 h -0.7178 c -0.0999,0 -0.2516,-0.0111 -0.3515,-0.0185 v 0.3108 c 0.1036,-0.007 0.2553,-0.0148 0.3515,-0.0148 h 0.7178 v 0.8362 c 0,0.3034 0.1739,0.4995 0.7326,0.4995 0.3552,0 0.7104,-0.0148 0.999,-0.037 l 0.0185,-0.3108 c -0.3182,0.037 -0.6216,0.0518 -0.9731,0.0518 -0.3404,0 -0.4699,-0.111 -0.4699,-0.296 v -0.7437 z"
         style="font-weight:normal;font-family:'Noto Sans CJK JP';-inkscape-font-specification:'Noto Sans CJK JP'"
         id="path4314" />
      <path
         d="m 158.2599,106.73284 -0.2109,0.2257 c 0.2738,0.185 0.7363,0.5809 0.9213,0.7733 l 0.2331,-0.2331 c -0.2072,-0.2072 -0.6808,-0.592 -0.9435,-0.7659 z m -0.3182,2.479 0.1961,0.3034 c 0.6179,-0.1147 1.0841,-0.3404 1.4541,-0.5772 0.5587,-0.3478 0.9879,-0.851 1.2432,-1.3135 l -0.1776,-0.3145 c -0.2146,0.4551 -0.666,1.0027 -1.2358,1.3616 -0.3515,0.2183 -0.8325,0.444 -1.48,0.5402 z"
         style="font-weight:normal;font-family:'Noto Sans CJK JP';-inkscape-font-specification:'Noto Sans CJK JP'"
         id="path4316" />
      <path
         d="m 161.2976,110.13314 v -0.0333 q 0.3811,-0.3922 0.5772,-0.9139 0.1998,-0.5217 0.1998,-1.0952 0,-0.5883 -0.2109,-1.1322 -0.2072,-0.5476 -0.6216,-0.9361 v -0.0333 h 0.3515 q 0.3885,0.3589 0.5957,0.9139 0.2109,0.5513 0.2109,1.1877 0,0.6216 -0.1998,1.1581 -0.1961,0.5365 -0.5513,0.8843 z"
         style="text-align:center;text-anchor:middle"
         id="path4318" />
    </g>
    <rect
       width="47.62"
       height="18.52"
       x="47.63"
       y="96.84"
       fill="#30ba78"
       paint-order="stroke fill markers"
       rx="0"
       ry="0"
       id="rect2968" />
    <g
       aria-label="nanny
(ポリシーエージェント)"
       id="text2974"
       style="font-weight:500;font-size:3.7px;line-height:1.25;font-family:Poppins;-inkscape-font-specification:'Poppins, Medium';letter-spacing:0;stroke-width:0.26">
      <path
         d="m 66.868655,102.018 q 0.37,0 0.5994,0.2257 0.2294,0.222 0.2294,0.6438 v 1.1951 h -0.333 v -1.147 q 0,-0.3034 -0.1517,-0.4625 -0.1517,-0.1628 -0.4144,-0.1628 -0.2664,0 -0.4255,0.1665 -0.1554,0.1665 -0.1554,0.4847 v 1.1211 h -0.3367 v -2.0276 h 0.3367 v 0.2886 q 0.0999,-0.1554 0.2701,-0.2405 0.1739,-0.0851 0.3811,-0.0851 z"
         style="text-align:center;text-anchor:middle"
         id="path4255" />
      <path
         d="m 68.122953,103.0614 q 0,-0.3108 0.1258,-0.5439 0.1258,-0.2368 0.3441,-0.3663 0.222,-0.1295 0.4921,-0.1295 0.2664,0 0.4625,0.1147 0.1961,0.1147 0.2923,0.2886 v -0.37 h 0.3404 v 2.0276 h -0.3404 v -0.3774 q -0.0999,0.1776 -0.2997,0.296 -0.1961,0.1147 -0.4588,0.1147 -0.2701,0 -0.4884,-0.1332 -0.2183,-0.1332 -0.3441,-0.3737 -0.1258,-0.2405 -0.1258,-0.5476 z m 1.7168,0.004 q 0,-0.2294 -0.0925,-0.3996 -0.0925,-0.1702 -0.2516,-0.259 -0.1554,-0.0925 -0.3441,-0.0925 -0.1887,0 -0.3441,0.0888 -0.1554,0.0888 -0.2479,0.259 -0.0925,0.1702 -0.0925,0.3996 0,0.2331 0.0925,0.407 0.0925,0.1702 0.2479,0.2627 0.1554,0.0888 0.3441,0.0888 0.1887,0 0.3441,-0.0888 0.1591,-0.0925 0.2516,-0.2627 0.0925,-0.1739 0.0925,-0.4033 z"
         style="text-align:center;text-anchor:middle"
         id="path4257" />
      <path
         d="m 71.737855,102.018 q 0.37,0 0.5994,0.2257 0.2294,0.222 0.2294,0.6438 v 1.1951 h -0.333 v -1.147 q 0,-0.3034 -0.1517,-0.4625 -0.1517,-0.1628 -0.4144,-0.1628 -0.2664,0 -0.4255,0.1665 -0.1554,0.1665 -0.1554,0.4847 v 1.1211 h -0.3367 v -2.0276 h 0.3367 v 0.2886 q 0.0999,-0.1554 0.2701,-0.2405 0.1739,-0.0851 0.3811,-0.0851 z"
         style="text-align:center;text-anchor:middle"
         id="path4259" />
      <path
         d="m 74.105853,102.018 q 0.37,0 0.5994,0.2257 0.2294,0.222 0.2294,0.6438 v 1.1951 h -0.333 v -1.147 q 0,-0.3034 -0.1517,-0.4625 -0.1517,-0.1628 -0.4144,-0.1628 -0.2664,0 -0.4255,0.1665 -0.1554,0.1665 -0.1554,0.4847 v 1.1211 h -0.3367 v -2.0276 h 0.3367 v 0.2886 q 0.0999,-0.1554 0.2701,-0.2405 0.1739,-0.0851 0.3811,-0.0851 z"
         style="text-align:center;text-anchor:middle"
         id="path4261" />
      <path
         d="m 77.232351,102.055 -1.221,2.9822 h -0.3478 l 0.3996,-0.9768 -0.8177,-2.0054 h 0.3737 l 0.6364,1.6428 0.629,-1.6428 z"
         style="text-align:center;text-anchor:middle"
         id="path4263" />
      <path
         d="m 52.447901,109.7708 q -0.3552,-0.3478 -0.555,-0.8843 -0.1961,-0.5365 -0.1961,-1.1581 0,-0.6364 0.2072,-1.1877 0.2109,-0.555 0.5994,-0.9139 h 0.3515 v 0.0333 q -0.4144,0.3885 -0.6253,0.9361 -0.2072,0.5439 -0.2072,1.1322 0,0.5735 0.1961,1.0952 0.1998,0.5217 0.5809,0.9139 v 0.0333 z"
         style="text-align:center;text-anchor:middle"
         id="path4265" />
      <path
         d="m 56.003603,106.1115 c 0.1332,0 0.2368,0.1073 0.2368,0.2368 0,0.1332 -0.1036,0.2368 -0.2368,0.2368 -0.1295,0 -0.2331,-0.1036 -0.2331,-0.2368 0,-0.1295 0.1036,-0.2368 0.2331,-0.2368 z m 0,0.6401 c 0.2257,0 0.407,-0.1776 0.407,-0.4033 0,-0.222 -0.1813,-0.407 -0.407,-0.407 -0.222,0 -0.4033,0.185 -0.4033,0.407 0,0.2257 0.1813,0.4033 0.4033,0.4033 z m -2.0942,0.8473 c -0.1443,0.2997 -0.4625,0.74 -0.7067,0.9694 l 0.2553,0.1739 c 0.2072,-0.2294 0.555,-0.6993 0.7104,-1.0175 z m 2.0313,-0.444 c 0.0888,0 0.1998,0 0.2997,0.007 v -0.3071 c -0.0925,0.0148 -0.2146,0.0185 -0.3034,0.0185 h -0.9768 v -0.3774 c 0,-0.0814 0.0111,-0.2146 0.0222,-0.2664 h -0.3478 c 0.0148,0.0555 0.0259,0.1813 0.0259,0.2627 v 0.3811 h -1.0286 c -0.1184,0 -0.2109,-0.007 -0.3145,-0.0185 v 0.3108 c 0.0999,-0.007 0.2035,-0.0111 0.3145,-0.0111 h 1.0286 v 1.6687 c 0,0.0962 -0.0444,0.1406 -0.1443,0.1406 -0.0962,0 -0.2664,-0.0148 -0.4292,-0.0444 l 0.0296,0.296 c 0.148,0.0148 0.37,0.0259 0.5254,0.0259 0.222,0 0.3182,-0.0999 0.3182,-0.296 v -1.7908 z m -0.4773,0.5809 c 0.1961,0.2331 0.4736,0.6956 0.6179,0.9842 l 0.2738,-0.1517 c -0.148,-0.2664 -0.444,-0.7289 -0.6401,-0.9657 z"
         style="font-weight:normal;font-family:'Noto Sans CJK JP';-inkscape-font-specification:'Noto Sans CJK JP';text-align:center;text-anchor:middle"
         id="path4267" />
      <path
         d="m 57.494703,106.3039 c 0.0074,0.0703 0.0148,0.1998 0.0148,0.2664 v 1.2321 c 0,0.111 -0.0111,0.2294 -0.0148,0.2849 h 0.3404 c -0.0074,-0.0666 -0.0111,-0.1887 -0.0111,-0.2812 v -1.2358 c 0,-0.0888 0.0037,-0.1961 0.0111,-0.2664 z m 1.7131,-0.0259 c 0.0074,0.0888 0.0185,0.1961 0.0185,0.3182 v 0.5846 c 0,0.6993 -0.0444,0.999 -0.3108,1.3061 -0.2294,0.259 -0.5476,0.407 -0.888,0.4921 l 0.2405,0.2553 c 0.2701,-0.0925 0.6401,-0.2516 0.8806,-0.5402 0.2664,-0.3182 0.3848,-0.6105 0.3848,-1.4985 v -0.5994 c 0,-0.1221 0.0074,-0.2294 0.0148,-0.3182 z"
         style="font-weight:normal;font-family:'Noto Sans CJK JP';-inkscape-font-specification:'Noto Sans CJK JP';text-align:center;text-anchor:middle"
         id="path4269" />
      <path
         d="m 61.490703,106.241 -0.1665,0.2479 c 0.2183,0.1258 0.6179,0.3922 0.7955,0.5254 l 0.1739,-0.2516 c -0.1591,-0.1184 -0.5846,-0.3996 -0.8029,-0.5217 z m -0.555,2.6418 0.1702,0.3034 c 0.3441,-0.0703 0.8547,-0.2442 1.2284,-0.4588 0.5883,-0.3478 1.0989,-0.8251 1.4208,-1.3246 l -0.1776,-0.3034 c -0.2997,0.5217 -0.7881,1.0027 -1.4023,1.3542 -0.3737,0.2146 -0.8325,0.3589 -1.2395,0.4292 z m -0.0037,-1.8093 -0.1628,0.2516 c 0.222,0.1147 0.6253,0.3737 0.8066,0.5069 l 0.1702,-0.259 c -0.1628,-0.1184 -0.592,-0.3811 -0.814,-0.4995 z"
         style="font-weight:normal;font-family:'Noto Sans CJK JP';-inkscape-font-specification:'Noto Sans CJK JP';text-align:center;text-anchor:middle"
         id="path4271" />
      <path
         d="m 64.454404,107.8431 c 0.1147,-0.0111 0.3108,-0.0185 0.5143,-0.0185 h 2.0313 c 0.1665,0 0.3219,0.0148 0.3959,0.0185 v -0.3626 c -0.0814,0.007 -0.2146,0.0185 -0.3996,0.0185 h -2.0276 c -0.2072,0 -0.4033,-0.0111 -0.5143,-0.0185 z"
         style="font-weight:normal;font-family:'Noto Sans CJK JP';-inkscape-font-specification:'Noto Sans CJK JP';text-align:center;text-anchor:middle"
         id="path4273" />
      <path
         d="m 69.771302,108.6201 v -1.702 h 0.888 c 0.1036,0 0.222,0.004 0.3145,0.0148 v -0.3256 c -0.0888,0.0111 -0.2035,0.0222 -0.3145,0.0222 h -2.035 c -0.074,0 -0.2146,-0.007 -0.3108,-0.0222 v 0.3256 c 0.0925,-0.0111 0.2405,-0.0148 0.3108,-0.0148 h 0.8325 v 1.702 h -1.0434 c -0.0999,0 -0.2146,-0.007 -0.3256,-0.0222 v 0.3367 c 0.1147,-0.0111 0.2257,-0.0148 0.3256,-0.0148 h 2.4457 c 0.074,0 0.2072,0 0.307101,0.0148 v -0.3367 c -0.0962,0.0111 -0.196101,0.0222 -0.307101,0.0222 z"
         style="font-weight:normal;font-family:'Noto Sans CJK JP';-inkscape-font-specification:'Noto Sans CJK JP';text-align:center;text-anchor:middle"
         id="path4275" />
      <path
         d="m 71.854403,107.8431 c 0.1147,-0.0111 0.3108,-0.0185 0.5143,-0.0185 h 2.0313 c 0.1665,0 0.3219,0.0148 0.3959,0.0185 v -0.3626 c -0.0814,0.007 -0.2146,0.0185 -0.3996,0.0185 h -2.0276 c -0.2072,0 -0.4033,-0.0111 -0.5143,-0.0185 z"
         style="font-weight:normal;font-family:'Noto Sans CJK JP';-inkscape-font-specification:'Noto Sans CJK JP';text-align:center;text-anchor:middle"
         id="path4277" />
      <path
         d="m 77.752201,106.3224 -0.2035,0.0888 c 0.1221,0.1665 0.2442,0.3848 0.3367,0.5809 l 0.2109,-0.0962 c -0.0851,-0.1739 -0.2516,-0.4403 -0.3441,-0.5735 z m 0.4847,-0.1776 -0.2072,0.0888 c 0.1221,0.1665 0.2516,0.3774 0.3515,0.5735 l 0.2109,-0.0962 c -0.0925,-0.1702 -0.2553,-0.4366 -0.3552,-0.5661 z m -2.0646,0.1221 -0.1665,0.2479 c 0.2146,0.1258 0.6179,0.3922 0.7955,0.5291 l 0.1739,-0.2553 c -0.1591,-0.1147 -0.5846,-0.3996 -0.8029,-0.5217 z m -0.555,2.6455 0.1702,0.2997 c 0.3441,-0.0703 0.8547,-0.2405 1.2247,-0.4588 0.592,-0.3478 1.1026,-0.8251 1.4245,-1.3209 l -0.1776,-0.3071 c -0.2997,0.5217 -0.7881,1.0064 -1.4023,1.3579 -0.3737,0.2109 -0.8325,0.3589 -1.2395,0.4292 z m -0.0037,-1.813 -0.1665,0.2516 c 0.2257,0.1147 0.6253,0.3737 0.8103,0.5069 l 0.1702,-0.259 c -0.1628,-0.1147 -0.5957,-0.3811 -0.814,-0.4995 z"
         style="font-weight:normal;font-family:'Noto Sans CJK JP';-inkscape-font-specification:'Noto Sans CJK JP';text-align:center;text-anchor:middle"
         id="path4279" />
      <path
         d="m 80.793602,108.8162 v -1.3616 h 0.7215 c 0.0851,0 0.1813,0.004 0.2627,0.0111 v -0.296 c -0.0777,0.007 -0.1702,0.0148 -0.2627,0.0148 h -1.702 c -0.0592,0 -0.1776,-0.004 -0.2553,-0.0148 v 0.296 c 0.0777,-0.007 0.1961,-0.0111 0.2553,-0.0111 h 0.6808 v 1.3616 h -0.851 c -0.0814,0 -0.1813,-0.007 -0.2664,-0.0185 v 0.3108 c 0.0888,-0.007 0.185,-0.0111 0.2664,-0.0111 h 2.0461 c 0.0592,0 0.1739,0.004 0.2479,0.0111 v -0.3108 c -0.074,0.0111 -0.1591,0.0185 -0.2479,0.0185 z"
         style="font-weight:normal;font-family:'Noto Sans CJK JP';-inkscape-font-specification:'Noto Sans CJK JP';text-align:center;text-anchor:middle"
         id="path4281" />
      <path
         d="m 83.342902,106.3705 -0.2109,0.2257 c 0.2738,0.185 0.7363,0.5809 0.9213,0.7733 l 0.2331,-0.2331 c -0.2072,-0.2072 -0.6808,-0.592 -0.9435,-0.7659 z m -0.3182,2.479 0.1961,0.3034 c 0.6179,-0.1147 1.0841,-0.3404 1.4541,-0.5772 0.5587,-0.3478 0.9879,-0.851 1.2432,-1.3135 l -0.1776,-0.3145 c -0.2146,0.4551 -0.666,1.0027 -1.2358,1.3616 -0.3515,0.2183 -0.8325,0.444 -1.48,0.5402 z"
         style="font-weight:normal;font-family:'Noto Sans CJK JP';-inkscape-font-specification:'Noto Sans CJK JP';text-align:center;text-anchor:middle"
         id="path4283" />
      <path
         d="m 89.336901,107.8172 c -0.3922,-0.1961 -1.0915,-0.4625 -1.5799,-0.6105 v -0.6031 c 0,-0.111 0.0148,-0.2701 0.0259,-0.3848 h -0.3626 c 0.0222,0.1147 0.0296,0.2812 0.0296,0.3848 v 2.1534 c 0,0.1369 -0.0074,0.3182 -0.0222,0.4366 h 0.3552 c -0.0148,-0.1221 -0.0222,-0.3182 -0.0222,-0.4366 l -0.0037,-1.221 c 0.4107,0.1295 1.0508,0.3774 1.4541,0.5957 z"
         style="font-weight:normal;font-family:'Noto Sans CJK JP';-inkscape-font-specification:'Noto Sans CJK JP';text-align:center;text-anchor:middle"
         id="path4285" />
      <path
         d="m 90.080602,109.7708 v -0.0333 q 0.3811,-0.3922 0.5772,-0.9139 0.1998,-0.5217 0.1998,-1.0952 0,-0.5883 -0.2109,-1.1322 -0.2072,-0.5476 -0.6216,-0.9361 v -0.0333 h 0.3515 q 0.3885,0.3589 0.5957,0.9139 0.2109,0.5513 0.2109,1.1877 0,0.6216 -0.1998,1.1581 -0.1961,0.5365 -0.5513,0.8843 z"
         style="text-align:center;text-anchor:middle"
         id="path4287" />
    </g>
    <rect
       width="47.62"
       height="18.52"
       x="47.63"
       y="57.15"
       fill="#30ba78"
       paint-order="stroke fill markers"
       rx="0"
       ry="0"
       id="rect2976" />
    <g
       aria-label="wicked
クライアント"
       id="text2982"
       style="font-weight:500;font-size:3.7px;line-height:1.25;font-family:Poppins;-inkscape-font-specification:'Poppins, Medium';letter-spacing:0;stroke-width:0.26">
      <path
         d="m 68.62967,63.234973 -0.6327,2.0276 h -0.3478 l -0.4884,-1.6095 -0.4884,1.6095 h -0.3478 l -0.6364,-2.0276 h 0.3441 l 0.4662,1.702 0.5032,-1.702 h 0.3441 l 0.4921,1.7057 0.4588,-1.7057 z"
         style="text-align:center;text-anchor:middle"
         id="path4230" />
      <path
         d="m 69.136569,62.905673 q -0.0962,0 -0.1628,-0.0666 -0.0666,-0.0666 -0.0666,-0.1628 0,-0.0962 0.0666,-0.1628 0.0666,-0.0666 0.1628,-0.0666 0.0925,0 0.1554,0.0666 0.0666,0.0666 0.0666,0.1628 0,0.0962 -0.0666,0.1628 -0.0629,0.0666 -0.1554,0.0666 z m 0.1628,0.3293 v 2.0276 h -0.3367 v -2.0276 z"
         style="text-align:center;text-anchor:middle"
         id="path4232" />
      <path
         d="m 69.74707,64.245073 q 0,-0.3145 0.1258,-0.5476 0.1258,-0.2368 0.3478,-0.3663 0.2257,-0.1295 0.5143,-0.1295 0.3737,0 0.6142,0.1813 0.2442,0.1813 0.3219,0.5032 h -0.3626 q -0.0518,-0.185 -0.2035,-0.2923 -0.148,-0.1073 -0.37,-0.1073 -0.2886,0 -0.4662,0.1998 -0.1776,0.1961 -0.1776,0.5587 0,0.3663 0.1776,0.5661 0.1776,0.1998 0.4662,0.1998 0.222,0 0.37,-0.1036 0.148,-0.1036 0.2035,-0.296 h 0.3626 q -0.0814,0.3108 -0.3256,0.4995 -0.2442,0.185 -0.6105,0.185 -0.2886,0 -0.5143,-0.1295 -0.222,-0.1295 -0.3478,-0.3663 -0.1258,-0.2368 -0.1258,-0.555 z"
         style="text-align:center;text-anchor:middle"
         id="path4234" />
      <path
         d="m 73.250972,65.262573 -0.7955,-0.8954 v 0.8954 h -0.3367 v -2.738 h 0.3367 v 1.6095 l 0.7807,-0.8991 h 0.4699 l -0.9546,1.0101 0.9583,1.0175 z"
         style="text-align:center;text-anchor:middle"
         id="path4236" />
      <path
         d="m 75.874269,64.171073 q 0,0.0962 -0.0111,0.2035 h -1.6206 q 0.0185,0.2997 0.2035,0.4699 0.1887,0.1665 0.4551,0.1665 0.2183,0 0.3626,-0.0999 0.148,-0.1036 0.2072,-0.2738 h 0.3626 q -0.0814,0.2923 -0.3256,0.4773 -0.2442,0.1813 -0.6068,0.1813 -0.2886,0 -0.518,-0.1295 -0.2257,-0.1295 -0.3552,-0.3663 -0.1295,-0.2405 -0.1295,-0.555 0,-0.3145 0.1258,-0.5513 0.1258,-0.2368 0.3515,-0.3626 0.2294,-0.1295 0.5254,-0.1295 0.2886,0 0.5106,0.1258 0.222,0.1258 0.3404,0.3478 0.1221,0.2183 0.1221,0.4958 z m -0.3478,-0.0703 q 0,-0.1924 -0.0851,-0.3293 -0.0851,-0.1406 -0.2331,-0.2109 -0.1443,-0.074 -0.3219,-0.074 -0.2553,0 -0.4366,0.1628 -0.1776,0.1628 -0.2035,0.4514 z"
         style="text-align:center;text-anchor:middle"
         id="path4238" />
      <path
         d="m 76.192473,64.241373 q 0,-0.3108 0.1258,-0.5439 0.1258,-0.2368 0.3441,-0.3663 0.222,-0.1295 0.4958,-0.1295 0.2368,0 0.4403,0.111 0.2035,0.1073 0.3108,0.2849 v -1.073 h 0.3404 v 2.738 h -0.3404 v -0.3811 q -0.0999,0.1813 -0.296,0.2997 -0.1961,0.1147 -0.4588,0.1147 -0.2701,0 -0.4921,-0.1332 -0.2183,-0.1332 -0.3441,-0.3737 -0.1258,-0.2405 -0.1258,-0.5476 z m 1.7168,0.0037 q 0,-0.2294 -0.0925,-0.3996 -0.0925,-0.1702 -0.2516,-0.259 -0.1554,-0.0925 -0.3441,-0.0925 -0.1887,0 -0.3441,0.0888 -0.1554,0.0888 -0.2479,0.259 -0.0925,0.1702 -0.0925,0.3996 0,0.2331 0.0925,0.407 0.0925,0.1702 0.2479,0.2627 0.1554,0.0888 0.3441,0.0888 0.1887,0 0.3441,-0.0888 0.1591,-0.0925 0.2516,-0.2627 0.0925,-0.1739 0.0925,-0.4033 z"
         style="text-align:center;text-anchor:middle"
         id="path4240" />
      <path
         d="m 64.041674,67.802073 c -0.0592,0.0222 -0.1406,0.0333 -0.2405,0.0333 h -1.0064 c 0.0333,-0.0518 0.0629,-0.1036 0.0888,-0.1554 0.037,-0.0703 0.1036,-0.1924 0.1665,-0.2886 l -0.3441,-0.1147 c -0.0222,0.0962 -0.074,0.2294 -0.1147,0.2923 -0.1591,0.333 -0.5217,0.8695 -1.1618,1.2506 l 0.2553,0.1924 c 0.4033,-0.2701 0.7141,-0.5994 0.9361,-0.9102 h 1.2506 c -0.074,0.3367 -0.2997,0.814 -0.5883,1.1544 -0.3367,0.3922 -0.7992,0.7289 -1.4763,0.9287 l 0.2664,0.2405 c 0.6956,-0.2553 1.1359,-0.5957 1.4726,-1.0064 0.3293,-0.3996 0.555,-0.9028 0.6549,-1.2728 0.0222,-0.0592 0.0592,-0.1443 0.0888,-0.1961 z"
         style="font-weight:normal;font-family:'Noto Sans CJK JP';-inkscape-font-specification:'Noto Sans CJK JP'"
         id="path4242" />
      <path
         d="m 67.800874,68.349673 c -0.0407,0.0222 -0.1184,0.0296 -0.2035,0.0296 h -1.9499 c -0.0999,0 -0.2257,-0.0074 -0.3589,-0.0222 v 0.3108 c 0.1295,-0.0074 0.2701,-0.0111 0.3589,-0.0111 h 1.9647 c -0.0666,0.2664 -0.2146,0.5809 -0.4403,0.8177 -0.3145,0.3293 -0.777,0.5698 -1.3024,0.6771 l 0.2294,0.2627 c 0.4699,-0.1295 0.9361,-0.3478 1.3246,-0.7733 0.2738,-0.2997 0.4403,-0.6845 0.5402,-1.0508 0.0074,-0.0259 0.0296,-0.074 0.0481,-0.1073 z m -2.183,-0.5365 c 0.0999,-0.0074 0.2183,-0.0111 0.333,-0.0111 h 1.4504 c 0.1258,0 0.2516,0.0037 0.3404,0.0111 v -0.3071 c -0.0888,0.0148 -0.2183,0.0185 -0.3367,0.0185 h -1.4541 c -0.1184,0 -0.2368,-0.0037 -0.333,-0.0185 z"
         style="font-weight:normal;font-family:'Noto Sans CJK JP';-inkscape-font-specification:'Noto Sans CJK JP'"
         id="path4244" />
      <path
         d="m 71.404674,67.372873 c -0.2072,0.2627 -0.5957,0.5846 -0.9731,0.8177 -0.407,0.2553 -1.036,0.5365 -1.6539,0.6808 l 0.1702,0.2886 c 0.4847,-0.1443 0.9953,-0.3589 1.3912,-0.5772 v 1.3986 c 0,0.1406 -0.0111,0.3256 -0.0222,0.3959 h 0.3626 c -0.0148,-0.074 -0.0222,-0.2553 -0.0222,-0.3959 v -1.5836 c 0.3811,-0.2405 0.7363,-0.5439 0.9916,-0.8029 z"
         style="font-weight:normal;font-family:'Noto Sans CJK JP';-inkscape-font-specification:'Noto Sans CJK JP'"
         id="path4246" />
      <path
         d="m 73.798574,68.249773 c 0.0111,0.0962 0.0148,0.1776 0.0148,0.2664 0,0.6179 -0.0814,1.147 -0.6549,1.4985 -0.1036,0.0703 -0.2294,0.1295 -0.3293,0.1628 l 0.2701,0.222 c 0.9435,-0.4699 1.0323,-1.147 1.0323,-2.1497 z m 1.628,-0.6623 c -0.0555,0.0111 -0.1887,0.0222 -0.259,0.0222 h -2.1238 c -0.1369,0 -0.2923,-0.0148 -0.4218,-0.0296 v 0.333 c 0.148,-0.0148 0.2849,-0.0222 0.4218,-0.0222 h 2.1053 c -0.1184,0.2294 -0.4662,0.629 -0.8066,0.8288 l 0.2442,0.1961 c 0.4218,-0.2923 0.7733,-0.7696 0.9213,-1.0212 0.0259,-0.0407 0.074,-0.0962 0.0999,-0.1332 z"
         style="font-weight:normal;font-family:'Noto Sans CJK JP';-inkscape-font-specification:'Noto Sans CJK JP'"
         id="path4248" />
      <path
         d="m 76.555071,67.550473 -0.2109,0.2257 c 0.2738,0.185 0.7363,0.5809 0.9213,0.7733 l 0.2331,-0.2331 c -0.2072,-0.2072 -0.6808,-0.592 -0.9435,-0.7659 z m -0.3182,2.479 0.1961,0.3034 c 0.6179,-0.1147 1.0841,-0.3404 1.4541,-0.5772 0.5587,-0.3478 0.9879,-0.851 1.2432,-1.3135 l -0.1776,-0.3145 c -0.2146,0.4551 -0.666,1.0027 -1.2358,1.3616 -0.3515,0.2183 -0.8325,0.444 -1.48,0.5402 z"
         style="font-weight:normal;font-family:'Noto Sans CJK JP';-inkscape-font-specification:'Noto Sans CJK JP'"
         id="path4250" />
      <path
         d="m 82.549071,68.997173 c -0.3922,-0.1961 -1.0915,-0.4625 -1.5799,-0.6105 v -0.6031 c 0,-0.111 0.0148,-0.2701 0.0259,-0.3848 h -0.3626 c 0.0222,0.1147 0.0296,0.2812 0.0296,0.3848 v 2.1534 c 0,0.1369 -0.0074,0.3182 -0.0222,0.4366 h 0.3552 c -0.0148,-0.1221 -0.0222,-0.3182 -0.0222,-0.4366 l -0.0037,-1.221 c 0.4107,0.1295 1.0508,0.3774 1.4541,0.5957 z"
         style="font-weight:normal;font-family:'Noto Sans CJK JP';-inkscape-font-specification:'Noto Sans CJK JP'"
         id="path4252" />
    </g>
    <g
       aria-label="サプリカント"
       id="text2986"
       style="font-weight:500;font-size:3.17px;line-height:1.25;font-family:Poppins;-inkscape-font-specification:'Poppins, Medium';letter-spacing:0;stroke-width:0.26">
      <path
         d="m 224.14844,53.748287 v -0.39625 c 0,-0.12363 0.0127,-0.22824 0.0159,-0.25994 h -0.2853 c 0.006,0.0317 0.0159,0.13631 0.0159,0.25994 v 0.39625 h -0.90345 v -0.40576 c 0,-0.11095 0.0127,-0.19971 0.0159,-0.23141 h -0.28213 c 0.003,0.0317 0.0127,0.12997 0.0127,0.23141 v 0.40576 h -0.33919 c -0.13631,0 -0.29164,-0.01585 -0.32017,-0.02219 v 0.27579 c 0.038,-0.0032 0.18069,-0.01268 0.32017,-0.01268 h 0.33919 v 0.51354 c 0,0.12046 -0.01,0.25677 -0.0127,0.28847 h 0.27896 c -0.003,-0.0317 -0.0127,-0.17118 -0.0127,-0.28847 v -0.51354 h 0.90345 v 0.13314 c 0,0.8876 -0.28847,1.16022 -0.86541,1.38212 l 0.21239,0.19971 c 0.72593,-0.32334 0.90662,-0.75763 0.90662,-1.60402 v -0.11095 h 0.3487 c 0.13948,0 0.25677,0.0063 0.28847,0.0095 v -0.26628 c -0.0412,0.0063 -0.14899,0.01585 -0.28847,0.01585 z"
         style="font-weight:normal;font-family:'Noto Sans CJK JP';-inkscape-font-specification:'Noto Sans CJK JP';text-align:center;text-anchor:middle"
         id="path4434" />
      <path
         d="m 227.79711,53.491517 c -0.11729,0 -0.20922,-0.0951 -0.20922,-0.20922 0,-0.11412 0.0919,-0.21239 0.20922,-0.21239 0.11412,0 0.20922,0.09827 0.20922,0.21239 0,0.11412 -0.0951,0.20922 -0.20922,0.20922 z m -2.03197,-0.10461 c -0.10461,0 -0.23141,-0.0095 -0.317,-0.01902 v 0.27896 c 0.0793,-0.0032 0.1902,-0.0095 0.31383,-0.0095 h 1.62304 c -0.0444,0.30432 -0.1902,0.74495 -0.41527,1.03342 -0.26628,0.33919 -0.62132,0.60864 -1.2363,0.7608 l 0.21556,0.23775 c 0.58011,-0.18069 0.95734,-0.4755 1.24898,-0.84639 0.25043,-0.32651 0.40259,-0.83688 0.47233,-1.16973 l 0.006,-0.03487 c 0.038,0.01268 0.0793,0.01902 0.12046,0.01902 0.19654,0 0.35504,-0.1585 0.35504,-0.35504 0,-0.19654 -0.1585,-0.35821 -0.35504,-0.35821 -0.19654,0 -0.35504,0.16167 -0.35504,0.35821 0,0.03487 0.006,0.06974 0.0159,0.10144 -0.038,0.0032 -0.0729,0.0032 -0.10461,0.0032 z"
         style="font-weight:normal;font-family:'Noto Sans CJK JP';-inkscape-font-specification:'Noto Sans CJK JP';text-align:center;text-anchor:middle"
         id="path4436" />
      <path
         d="m 228.90661,53.177687 c 0.006,0.06023 0.0127,0.17118 0.0127,0.22824 v 1.05561 c 0,0.0951 -0.01,0.19654 -0.0127,0.24409 h 0.29164 c -0.006,-0.05706 -0.01,-0.16167 -0.01,-0.24092 v -1.05878 c 0,-0.07608 0.003,-0.16801 0.01,-0.22824 z m 1.46771,-0.02219 c 0.006,0.07608 0.0159,0.16801 0.0159,0.27262 v 0.50086 c 0,0.59913 -0.038,0.8559 -0.26628,1.11901 -0.19654,0.2219 -0.46916,0.3487 -0.7608,0.42161 l 0.20605,0.21873 c 0.23141,-0.07925 0.54841,-0.21556 0.75446,-0.46282 0.22824,-0.27262 0.32968,-0.52305 0.32968,-1.28385 v -0.51354 c 0,-0.10461 0.006,-0.19654 0.0127,-0.27262 z"
         style="font-weight:normal;font-family:'Noto Sans CJK JP';-inkscape-font-specification:'Noto Sans CJK JP';text-align:center;text-anchor:middle"
         id="path4438" />
      <path
         d="m 233.90887,53.634167 c -0.0539,0.0095 -0.11729,0.01585 -0.20288,0.01585 h -0.75446 c 0.006,-0.10461 0.0127,-0.21239 0.0159,-0.32651 0.003,-0.07608 0.01,-0.18703 0.019,-0.25994 h -0.29798 c 0.0127,0.07608 0.0222,0.19337 0.0222,0.26311 0,0.11412 -0.006,0.2219 -0.0127,0.32334 h -0.55792 c -0.12046,0 -0.25043,-0.0063 -0.36138,-0.01902 v 0.26945 c 0.11095,-0.01268 0.23775,-0.01268 0.36455,-0.01268 h 0.53256 c -0.0856,0.65302 -0.31383,1.04927 -0.62766,1.33457 -0.0951,0.09193 -0.22507,0.18069 -0.32334,0.23458 l 0.22824,0.18703 c 0.52939,-0.36455 0.85907,-0.84639 0.97319,-1.75618 h 0.8876 c 0,0.33919 -0.0412,1.11901 -0.16167,1.35993 -0.0349,0.07925 -0.0919,0.10461 -0.18386,0.10461 -0.13314,0 -0.30115,-0.01268 -0.47233,-0.03487 l 0.0317,0.26311 c 0.16484,0.0095 0.3487,0.01902 0.51037,0.01902 0.17435,0 0.27579,-0.05706 0.33919,-0.1902 0.14265,-0.30432 0.18069,-1.22679 0.19337,-1.53111 0,-0.04121 0.006,-0.10144 0.0159,-0.15533 z"
         style="font-weight:normal;font-family:'Noto Sans CJK JP';-inkscape-font-specification:'Noto Sans CJK JP';text-align:center;text-anchor:middle"
         id="path4440" />
      <path
         d="m 235.26563,53.234747 -0.18069,0.19337 c 0.23458,0.1585 0.63083,0.49769 0.78933,0.66253 l 0.19971,-0.19971 c -0.17752,-0.17752 -0.58328,-0.5072 -0.80835,-0.65619 z m -0.27262,2.1239 0.16801,0.25994 c 0.52939,-0.09827 0.92881,-0.29164 1.24581,-0.49452 0.47867,-0.29798 0.84639,-0.7291 1.06512,-1.12535 l -0.15216,-0.26945 c -0.18386,0.38991 -0.5706,0.85907 -1.05878,1.16656 -0.30115,0.18703 -0.71325,0.3804 -1.268,0.46282 z"
         style="font-weight:normal;font-family:'Noto Sans CJK JP';-inkscape-font-specification:'Noto Sans CJK JP';text-align:center;text-anchor:middle"
         id="path4442" />
      <path
         d="m 240.40103,54.474217 c -0.33602,-0.16801 -0.93515,-0.39625 -1.35359,-0.52305 v -0.51671 c 0,-0.0951 0.0127,-0.23141 0.0222,-0.32968 h -0.31066 c 0.019,0.09827 0.0254,0.24092 0.0254,0.32968 v 1.84494 c 0,0.11729 -0.006,0.27262 -0.019,0.37406 h 0.30432 c -0.0127,-0.10461 -0.019,-0.27262 -0.019,-0.37406 l -0.003,-1.0461 c 0.35187,0.11095 0.90028,0.32334 1.24581,0.51037 z"
         style="font-weight:normal;font-family:'Noto Sans CJK JP';-inkscape-font-specification:'Noto Sans CJK JP';text-align:center;text-anchor:middle"
         id="path4444" />
    </g>
    <rect
       width="124.35"
       height="21.17"
       x="47.63"
       y="158.75"
       fill="#c0c2c4"
       paint-order="stroke fill markers"
       rx="0"
       ry="0"
       id="rect2988" />
    <g
       aria-label="カーネル"
       id="text2992"
       style="font-weight:500;font-size:3.7px;line-height:1.25;font-family:Poppins;-inkscape-font-specification:'Poppins, Medium';letter-spacing:0;stroke-width:0.26">
      <path
         d="m 104.25891,168.4441 c -0.0629,0.0111 -0.1369,0.0185 -0.2368,0.0185 h -0.8806 c 0.007,-0.1221 0.0148,-0.2479 0.0185,-0.3811 0.004,-0.0888 0.0111,-0.2183 0.0222,-0.3034 h -0.3478 c 0.0148,0.0888 0.0259,0.2257 0.0259,0.3071 0,0.1332 -0.007,0.259 -0.0148,0.3774 h -0.6512 c -0.1406,0 -0.2923,-0.007 -0.4218,-0.0222 v 0.3145 c 0.1295,-0.0148 0.2775,-0.0148 0.4255,-0.0148 h 0.6216 c -0.0999,0.7622 -0.3663,1.2247 -0.7326,1.5577 -0.111,0.1073 -0.2627,0.2109 -0.3774,0.2738 l 0.2664,0.2183 c 0.6179,-0.4255 1.0027,-0.9879 1.1359,-2.0498 h 1.036 c 0,0.3959 -0.0481,1.3061 -0.1887,1.5873 -0.0407,0.0925 -0.1073,0.1221 -0.2146,0.1221 -0.1554,0 -0.3515,-0.0148 -0.5513,-0.0407 l 0.037,0.3071 c 0.1924,0.0111 0.407,0.0222 0.5957,0.0222 0.2035,0 0.3219,-0.0666 0.3959,-0.222 0.1665,-0.3552 0.2109,-1.4319 0.2257,-1.7871 0,-0.0481 0.007,-0.1184 0.0185,-0.1813 z"
         style="font-weight:normal;font-family:'Noto Sans CJK JP';-inkscape-font-specification:'Noto Sans CJK JP';text-align:center;text-anchor:middle"
         id="path4321" />
      <path
         d="m 105.38001,169.4505 c 0.1147,-0.0111 0.3108,-0.0185 0.5143,-0.0185 h 2.0313 c 0.1665,0 0.3219,0.0148 0.3959,0.0185 v -0.3626 c -0.0814,0.007 -0.2146,0.0185 -0.3996,0.0185 h -2.0276 c -0.2072,0 -0.4033,-0.0111 -0.5143,-0.0185 z"
         style="font-weight:normal;font-family:'Noto Sans CJK JP';-inkscape-font-specification:'Noto Sans CJK JP';text-align:center;text-anchor:middle"
         id="path4323" />
      <path
         d="m 111.57011,168.2665 c -0.0629,0.0185 -0.148,0.0222 -0.2331,0.0222 h -0.6105 v -0.2368 c 0,-0.1036 0.007,-0.2442 0.0222,-0.3256 h -0.3404 c 0.0148,0.0814 0.0222,0.222 0.0222,0.3256 v 0.2368 h -0.7252 c -0.1258,0 -0.333,-0.004 -0.4477,-0.0185 v 0.3108 c 0.111,-0.007 0.3219,-0.0148 0.4514,-0.0148 h 1.5355 c -0.1258,0.1739 -0.4218,0.4625 -0.7511,0.6771 -0.3367,0.2183 -0.7992,0.4625 -1.4985,0.629 l 0.1776,0.2738 c 0.4995,-0.1517 0.9065,-0.3145 1.2506,-0.5143 0,0.2516 -0.004,0.592 -0.004,0.8066 0,0.1295 -0.007,0.2997 -0.0222,0.407 h 0.3367 c -0.007,-0.1147 -0.0185,-0.2775 -0.0185,-0.407 0,-0.2479 0.004,-0.6919 0.004,-0.9953 0.3404,-0.2368 0.6512,-0.5476 0.8362,-0.7696 0.0592,-0.0666 0.1406,-0.1517 0.2072,-0.222 z m -0.5254,1.3579 c 0.3478,0.185 0.5698,0.333 0.8917,0.5698 l 0.1924,-0.2516 c -0.3441,-0.2331 -0.5439,-0.3478 -0.8917,-0.5365 z"
         style="font-weight:normal;font-family:'Noto Sans CJK JP';-inkscape-font-specification:'Noto Sans CJK JP';text-align:center;text-anchor:middle"
         id="path4325" />
      <path
         d="m 112.92431,170.7788 c 0.3108,-0.2553 0.5476,-0.6179 0.6586,-1.0138 0.0999,-0.37 0.1147,-1.1618 0.1147,-1.5725 0,-0.111 0.0148,-0.222 0.0185,-0.2664 h -0.3404 c 0.0148,0.0777 0.0259,0.1591 0.0259,0.2701 0,0.4107 -0.004,1.147 -0.111,1.4874 -0.111,0.3589 -0.333,0.6882 -0.6438,0.9102 z m 1.6132,-0.004 c 0.037,-0.0296 0.0703,-0.0555 0.1258,-0.0851 0.4292,-0.2146 0.9435,-0.592 1.2617,-1.0249 l -0.1776,-0.2516 c -0.2812,0.4181 -0.7363,0.7548 -1.0767,0.9102 v -2.1349 c 0,-0.1406 0.0111,-0.2442 0.0148,-0.2738 h -0.3404 c 0.004,0.0296 0.0222,0.1332 0.0222,0.2738 v 2.2163 c 0,0.074 -0.0111,0.148 -0.0259,0.2072 z"
         style="font-weight:normal;font-family:'Noto Sans CJK JP';-inkscape-font-specification:'Noto Sans CJK JP';text-align:center;text-anchor:middle"
         id="path4327" />
    </g>
    <path
       fill="none"
       stroke="#0c322c"
       stroke-width=".56"
       marker-end="url(#a)"
       marker-start="url(#b)"
       d="M71.44 77.79v17.46"
       id="path2994" />
    <path
       fill="none"
       stroke="#0c322c"
       stroke-width=".56"
       marker-end="url(#a)"
       marker-start="url(#b)"
       d="M96.84 105.83h25.93"
       id="path2996" />
    <path
       fill="none"
       stroke="#0c322c"
       stroke-width=".56"
       marker-end="url(#a)"
       marker-start="url(#b)"
       d="M148.17 116.95v20.63h-38.63v19.58"
       id="path2998" />
    <path
       fill="none"
       stroke="#0c322c"
       stroke-width=".56"
       marker-end="url(#a)"
       marker-start="url(#b)"
       d="M173.57 105.83h24.87V97.9h22.22"
       id="path3000" />
    <g
       aria-label="メソッド
呼び出し"
       id="text3004"
       style="font-weight:500;font-size:3.17px;line-height:1.25;font-family:Poppins;-inkscape-font-specification:'Poppins, Medium';letter-spacing:0;stroke-width:0.26">
      <path
         d="m 106.56975,101.57572 c -0.0127,0.0697 -0.0412,0.17118 -0.0634,0.23458 -0.0951,0.26945 -0.22507,0.56743 -0.42795,0.86224 -0.25043,-0.19337 -0.61815,-0.45331 -0.8876,-0.62449 l -0.16801,0.19971 c 0.30432,0.18703 0.65619,0.44697 0.89077,0.64034 -0.31066,0.38357 -0.70374,0.73227 -1.25849,0.99538 l 0.22507,0.19971 c 0.55158,-0.2853 0.94466,-0.66253 1.23947,-1.02391 0.27262,0.23458 0.51354,0.45965 0.74812,0.7291 l 0.19971,-0.2219 c -0.22507,-0.24092 -0.49769,-0.48818 -0.77982,-0.72276 0.21239,-0.30749 0.37406,-0.65619 0.4755,-0.93515 0.0254,-0.0666 0.0729,-0.17118 0.10461,-0.23141 z"
         style="font-weight:normal;font-family:'Noto Sans CJK JP';-inkscape-font-specification:'Noto Sans CJK JP';text-align:center;text-anchor:middle"
         id="path4623" />
      <path
         d="m 108.30374,103.8708 0.23775,0.19971 c 0.51671,-0.23775 0.87492,-0.59596 1.12218,-0.97636 0.23141,-0.35821 0.35821,-0.75446 0.43429,-1.13169 0.0127,-0.0571 0.038,-0.16801 0.0634,-0.25043 l -0.317,-0.0444 c 0.003,0.0571 -0.01,0.17752 -0.0254,0.25994 -0.0507,0.29481 -0.15216,0.67204 -0.39625,1.03342 -0.23458,0.35187 -0.59279,0.69423 -1.11901,0.90979 z m -0.4438,-2.03514 c 0.15216,0.20922 0.4121,0.67521 0.52939,0.91296 l 0.2536,-0.14265 c -0.11412,-0.20605 -0.39308,-0.69423 -0.53256,-0.90028 z"
         style="font-weight:normal;font-family:'Noto Sans CJK JP';-inkscape-font-specification:'Noto Sans CJK JP';text-align:center;text-anchor:middle"
         id="path4625" />
      <path
         d="m 112.16797,102.159 -0.23141,0.0792 c 0.0666,0.14265 0.21239,0.54524 0.24726,0.68789 l 0.23458,-0.0824 c -0.0412,-0.13948 -0.19654,-0.55792 -0.25043,-0.68472 z m 0.87492,0.0919 c -0.0476,0.40576 -0.21239,0.80835 -0.43746,1.08414 -0.25994,0.32651 -0.66253,0.56743 -1.03025,0.67204 l 0.20922,0.21556 c 0.35504,-0.13631 0.74178,-0.38357 1.03342,-0.75446 0.22824,-0.2853 0.36455,-0.62449 0.45014,-0.97319 0.0127,-0.0412 0.0254,-0.0919 0.0476,-0.1585 z m -1.61036,0.0666 -0.23458,0.0919 c 0.0634,0.11095 0.23458,0.54841 0.28213,0.71325 l 0.24092,-0.0888 c -0.0602,-0.16484 -0.22507,-0.58011 -0.28847,-0.71642 z"
         style="font-weight:normal;font-family:'Noto Sans CJK JP';-inkscape-font-specification:'Noto Sans CJK JP';text-align:center;text-anchor:middle"
         id="path4627" />
      <path
         d="m 116.56793,102.01318 c -0.0761,-0.14582 -0.21556,-0.35821 -0.29798,-0.46916 l -0.17435,0.0824 c 0.10778,0.14265 0.20922,0.31066 0.29481,0.4755 z m -0.39308,0.16801 c -0.0729,-0.14899 -0.20605,-0.36138 -0.28847,-0.47867 l -0.17435,0.0792 c 0.10461,0.14265 0.20288,0.317 0.28213,0.48184 z m -1.13486,-0.27896 c 0,-0.0951 0.01,-0.23141 0.019,-0.32968 h -0.31066 c 0.019,0.0983 0.0254,0.24092 0.0254,0.32968 v 1.84494 c 0,0.11729 -0.006,0.27262 -0.019,0.37406 h 0.30432 c -0.0127,-0.10144 -0.019,-0.27262 -0.019,-0.37406 v -1.04293 c 0.35187,0.11095 0.90028,0.32017 1.24264,0.5072 l 0.11095,-0.26945 c -0.33602,-0.16801 -0.93515,-0.39308 -1.35359,-0.51988 z"
         style="font-weight:normal;font-family:'Noto Sans CJK JP';-inkscape-font-specification:'Noto Sans CJK JP';text-align:center;text-anchor:middle"
         id="path4629" />
      <path
         d="m 105.09253,97.880044 v 1.25532 h -0.33919 v -1.25532 z m 0.21239,-0.21873 h -0.7608 v 1.98759 h 0.20922 v -0.29481 h 0.55158 z m 2.01929,1.2046 h -0.84322 v -1.1412 c 0.26628,-0.03804 0.51988,-0.08559 0.71959,-0.14265 l -0.16167,-0.18703 c -0.36772,0.10778 -1.02391,0.1902 -1.57549,0.23458 0.0254,0.05389 0.0571,0.13948 0.0634,0.19337 0.23141,-0.01585 0.48184,-0.03804 0.72276,-0.06657 v 1.1095 h -0.80835 v 0.22507 h 0.80835 v 0.83054 c 0,0.05389 -0.0222,0.07291 -0.0792,0.07291 -0.0476,0 -0.23141,0.0032 -0.43112,-0.0032 0.038,0.0634 0.0761,0.161666 0.0888,0.225066 0.26311,0.003 0.42161,-0.003 0.51988,-0.0412 0.0951,-0.0412 0.13314,-0.10461 0.13314,-0.253596 v -0.83054 h 0.84322 z m -1.75935,-0.85273 c 0.11412,0.23141 0.21239,0.54207 0.24092,0.74495 l 0.20922,-0.06974 c -0.0317,-0.20288 -0.13314,-0.5072 -0.2536,-0.73861 z m 1.29019,0.75446 c 0.10778,-0.20288 0.23775,-0.53256 0.33919,-0.79884 l -0.22824,-0.06657 c -0.0666,0.24409 -0.19654,0.59279 -0.29798,0.79884 z"
         style="font-weight:normal;font-family:'Noto Sans CJK JP';-inkscape-font-specification:'Noto Sans CJK JP';text-align:center;text-anchor:middle"
         id="path4631" />
      <path
         d="m 110.22793,97.956124 c -0.0539,-0.12997 -0.15533,-0.32651 -0.21873,-0.4438 l -0.1585,0.05389 c 0.0697,0.12046 0.15216,0.31066 0.21239,0.45331 z m -0.74812,-0.18386 c 0.0254,0.07925 0.0507,0.15533 0.0761,0.22824 0.21873,1.15705 -0.15216,1.91468 -0.80518,1.91468 -0.30432,0 -0.57694,-0.17118 -0.57694,-0.6023 0,-0.58011 0.4755,-1.1729 0.67521,-1.32189 0.0444,-0.02219 0.12363,-0.04121 0.16484,-0.05706 l -0.0761,-0.22824 c -0.18386,0.06974 -0.73544,0.1585 -1.00806,0.18069 -0.0571,0.0063 -0.12046,0.0095 -0.16801,0.0095 l 0.038,0.26628 c 0.0634,-0.01268 0.12046,-0.02536 0.17435,-0.03487 0.12363,-0.02536 0.35821,-0.0634 0.51671,-0.08876 -0.25677,0.26628 -0.56426,0.77031 -0.56426,1.30921 0,0.50403 0.31066,0.830536 0.81469,0.830536 0.81469,0 1.14437,-0.782986 1.0778,-1.575486 0.11729,0.2219 0.24409,0.4121 0.38674,0.58645 l 0.18703,-0.19654 c -0.40259,-0.40259 -0.58962,-0.91613 -0.66887,-1.29653 z m 0.6974,-0.32334 c 0.0729,0.11729 0.15533,0.30115 0.21556,0.4438 l 0.16484,-0.06023 c -0.0602,-0.13314 -0.15533,-0.32651 -0.22507,-0.4438 z"
         style="font-weight:normal;font-family:'Noto Sans CJK JP';-inkscape-font-specification:'Noto Sans CJK JP';text-align:center;text-anchor:middle"
         id="path4633" />
      <path
         d="m 113.21724,98.919804 v 0.87809 h -0.89077 v -1.08097 h 1.00489 v -1.08414 h -0.24409 v 0.8559 h -0.7608 v -1.13803 h -0.24092 v 1.13803 h -0.72593 v -0.8559 h -0.23458 v 1.08414 h 0.96051 v 1.08097 h -0.84639 v -0.87809 h -0.23458 v 1.306036 h 0.23458 v -0.19654 h 1.97808 v 0.1902 h 0.24092 v -1.299696 z"
         style="font-weight:normal;font-family:'Noto Sans CJK JP';-inkscape-font-specification:'Noto Sans CJK JP';text-align:center;text-anchor:middle"
         id="path4635" />
      <path
         d="m 114.57083,97.521834 c 0.019,0.09193 0.0285,0.20288 0.0285,0.317 0,0.33285 -0.0317,1.12535 -0.0317,1.59134 0,0.51037 0.31066,0.700566 0.7608,0.700566 0.69106,0 1.09682,-0.393076 1.30921,-0.691056 l -0.17435,-0.21873 c -0.22507,0.32651 -0.55158,0.64985 -1.12852,0.64985 -0.29164,0 -0.51354,-0.12046 -0.51354,-0.46599 0,-0.46916 0.0254,-1.21094 0.038,-1.56598 0.006,-0.10144 0.0159,-0.21239 0.0317,-0.31383 z"
         style="font-weight:normal;font-family:'Noto Sans CJK JP';-inkscape-font-specification:'Noto Sans CJK JP';text-align:center;text-anchor:middle"
         id="path4637" />
    </g>
    <g
       aria-label="イベント"
       id="text3008"
       style="font-weight:500;font-size:3.17px;line-height:1.25;font-family:Poppins;-inkscape-font-specification:'Poppins, Medium';letter-spacing:0;stroke-width:0.26">
      <path
         d="m 99.930154,108.04423 c -0.17752,0.22507 -0.51037,0.50086 -0.83371,0.70057 -0.3487,0.21873 -0.8876,0.45965 -1.41699,0.58328 l 0.14582,0.24726 c 0.41527,-0.12363 0.85273,-0.30749 1.19192,-0.49452 v 1.19826 c 0,0.12046 -0.0095,0.27896 -0.01902,0.33919 h 0.31066 c -0.01268,-0.0634 -0.01902,-0.21873 -0.01902,-0.33919 v -1.35676 c 0.32651,-0.20605 0.63083,-0.46599 0.849556,-0.68789 z"
         style="font-weight:normal;font-family:'Noto Sans CJK JP';-inkscape-font-specification:'Noto Sans CJK JP'"
         id="path4640" />
      <path
         d="m 102.77047,108.37074 -0.18069,0.0793 c 0.10461,0.14265 0.21556,0.33919 0.29481,0.5072 l 0.18386,-0.0856 c -0.0729,-0.14899 -0.21873,-0.38674 -0.29798,-0.50086 z m 0.40576,-0.16167 -0.17752,0.0824 c 0.10778,0.14265 0.2219,0.33285 0.30432,0.50086 l 0.18386,-0.0888 c -0.0761,-0.14582 -0.22824,-0.38357 -0.31066,-0.49452 z m -2.42505,1.47722 0.23141,0.23458 c 0.0476,-0.0634 0.11729,-0.16167 0.18386,-0.24409 0.14265,-0.17435 0.40893,-0.52305 0.56109,-0.70691 0.10778,-0.13314 0.15216,-0.13631 0.2853,-0.0254 0.13631,0.11412 0.39942,0.39942 0.61815,0.64351 0.20288,0.23141 0.49135,0.55792 0.71325,0.84322 l 0.20605,-0.22507 c -0.23141,-0.27262 -0.55475,-0.61815 -0.76714,-0.84639 -0.20288,-0.21873 -0.46282,-0.49769 -0.65619,-0.65619 -0.22824,-0.1902 -0.35821,-0.16801 -0.52622,0.0317 -0.19971,0.23458 -0.4755,0.58645 -0.62766,0.74178 -0.0824,0.0824 -0.14265,0.13948 -0.2219,0.20922 z"
         style="font-weight:normal;font-family:'Noto Sans CJK JP';-inkscape-font-specification:'Noto Sans CJK JP'"
         id="path4642" />
      <path
         d="m 104.46959,108.19639 -0.18069,0.19337 c 0.23458,0.1585 0.63083,0.49769 0.78933,0.66253 l 0.19971,-0.19971 c -0.17752,-0.17752 -0.58328,-0.5072 -0.80835,-0.65619 z m -0.27262,2.1239 0.16801,0.25994 c 0.52939,-0.0983 0.92881,-0.29164 1.24581,-0.49452 0.47867,-0.29798 0.84639,-0.7291 1.06512,-1.12535 l -0.15216,-0.26945 c -0.18386,0.38991 -0.5706,0.85907 -1.05878,1.16656 -0.30115,0.18703 -0.71325,0.3804 -1.268,0.46282 z"
         style="font-weight:normal;font-family:'Noto Sans CJK JP';-inkscape-font-specification:'Noto Sans CJK JP'"
         id="path4644" />
      <path
         d="m 109.60499,109.43586 c -0.33602,-0.16801 -0.93515,-0.39625 -1.35359,-0.52305 v -0.51671 c 0,-0.0951 0.0127,-0.23141 0.0222,-0.32968 h -0.31066 c 0.019,0.0983 0.0254,0.24092 0.0254,0.32968 v 1.84494 c 0,0.11729 -0.006,0.27262 -0.019,0.37406 h 0.30432 c -0.0127,-0.10461 -0.019,-0.27262 -0.019,-0.37406 l -0.003,-1.0461 c 0.35187,0.11095 0.90028,0.32334 1.24581,0.51037 z"
         style="font-weight:normal;font-family:'Noto Sans CJK JP';-inkscape-font-specification:'Noto Sans CJK JP'"
         id="path4646" />
    </g>
    <g
       aria-label="イベント"
       id="text3012"
       style="font-weight:500;font-size:3.17px;line-height:1.25;font-family:Poppins;-inkscape-font-specification:'Poppins, Medium';letter-spacing:0;stroke-width:0.26">
      <path
         d="m 152.85015,118.62423 c -0.17752,0.22507 -0.51037,0.50086 -0.83371,0.70057 -0.3487,0.21873 -0.8876,0.45965 -1.41699,0.58328 l 0.14582,0.24726 c 0.41527,-0.12363 0.85273,-0.30749 1.19192,-0.49452 v 1.19826 c 0,0.12046 -0.01,0.27896 -0.019,0.33919 h 0.31066 c -0.0127,-0.0634 -0.019,-0.21873 -0.019,-0.33919 v -1.35676 c 0.32651,-0.20605 0.63083,-0.46599 0.84956,-0.68789 z"
         style="font-weight:normal;font-family:'Noto Sans CJK JP';-inkscape-font-specification:'Noto Sans CJK JP'"
         id="path4786" />
      <path
         d="m 155.69047,118.95074 -0.18069,0.0793 c 0.10461,0.14265 0.21556,0.33919 0.29481,0.5072 l 0.18386,-0.0856 c -0.0729,-0.14899 -0.21873,-0.38674 -0.29798,-0.50086 z m 0.40576,-0.16167 -0.17752,0.0824 c 0.10778,0.14265 0.2219,0.33285 0.30432,0.50086 l 0.18386,-0.0888 c -0.0761,-0.14582 -0.22824,-0.38357 -0.31066,-0.49452 z m -2.42505,1.47722 0.23141,0.23458 c 0.0476,-0.0634 0.11729,-0.16167 0.18386,-0.24409 0.14265,-0.17435 0.40893,-0.52305 0.56109,-0.70691 0.10778,-0.13314 0.15216,-0.13631 0.2853,-0.0254 0.13631,0.11412 0.39942,0.39942 0.61815,0.64351 0.20288,0.23141 0.49135,0.55792 0.71325,0.84322 l 0.20605,-0.22507 c -0.23141,-0.27262 -0.55475,-0.61815 -0.76714,-0.84639 -0.20288,-0.21873 -0.46282,-0.49769 -0.65619,-0.65619 -0.22824,-0.1902 -0.35821,-0.16801 -0.52622,0.0317 -0.19971,0.23458 -0.4755,0.58645 -0.62766,0.74178 -0.0824,0.0824 -0.14265,0.13948 -0.2219,0.20922 z"
         style="font-weight:normal;font-family:'Noto Sans CJK JP';-inkscape-font-specification:'Noto Sans CJK JP'"
         id="path4788" />
      <path
         d="m 157.38959,118.77639 -0.18069,0.19337 c 0.23458,0.1585 0.63083,0.49769 0.78933,0.66253 l 0.19971,-0.19971 c -0.17752,-0.17752 -0.58328,-0.5072 -0.80835,-0.65619 z m -0.27262,2.1239 0.16801,0.25994 c 0.52939,-0.0983 0.92881,-0.29164 1.24581,-0.49452 0.47867,-0.29798 0.84639,-0.7291 1.06512,-1.12535 l -0.15216,-0.26945 c -0.18386,0.38991 -0.5706,0.85907 -1.05878,1.16656 -0.30115,0.18703 -0.71325,0.3804 -1.268,0.46282 z"
         style="font-weight:normal;font-family:'Noto Sans CJK JP';-inkscape-font-specification:'Noto Sans CJK JP'"
         id="path4790" />
      <path
         d="m 162.52499,120.01586 c -0.33602,-0.16801 -0.93515,-0.39625 -1.35359,-0.52305 v -0.51671 c 0,-0.0951 0.0127,-0.23141 0.0222,-0.32968 h -0.31066 c 0.019,0.0983 0.0254,0.24092 0.0254,0.32968 v 1.84494 c 0,0.11729 -0.006,0.27262 -0.019,0.37406 h 0.30432 c -0.0127,-0.10461 -0.019,-0.27262 -0.019,-0.37406 l -0.003,-1.0461 c 0.35187,0.11095 0.90028,0.32334 1.24581,0.51037 z"
         style="font-weight:normal;font-family:'Noto Sans CJK JP';-inkscape-font-specification:'Noto Sans CJK JP'"
         id="path4792" />
    </g>
    <g
       aria-label="設定呼び出し"
       id="text3016"
       style="font-weight:500;font-size:3.17px;line-height:1.25;font-family:Poppins;-inkscape-font-specification:'Poppins, Medium';letter-spacing:0;stroke-width:0.26">
      <path
         d="m 113.21094,151.54096 h -0.91296 v 0.1902 h 0.91296 z m 0.11729,0.41527 h -1.19509 v 0.19337 h 1.19509 z m -0.317,1.46454 v 0.53256 h -0.52939 v -0.53256 z m 0.20605,-0.19337 h -0.94149 v 1.06195 h 0.20605 v -0.14582 h 0.73544 z m -0.93515,-0.23458 h 0.93832 v -0.1902 h -0.93832 z m 0,-0.42161 h 0.93832 v -0.18703 h -0.93832 z m 1.51843,-0.83054 h 0.54207 v 0.56426 c 0,0.22507 0.0571,0.2853 0.25043,0.2853 h 0.21873 c 0.16801,0 0.22507,-0.0919 0.24409,-0.46282 -0.0602,-0.0127 -0.15216,-0.0476 -0.19654,-0.0856 -0.006,0.30432 -0.019,0.34553 -0.0761,0.34553 h -0.1585 c -0.0507,0 -0.0602,-0.0127 -0.0602,-0.0824 v -0.77348 h -0.98904 v 0.3804 c 0,0.21873 -0.0476,0.48184 -0.35187,0.67521 0.0476,0.0317 0.13631,0.11412 0.17118,0.15533 0.33602,-0.2219 0.40576,-0.55475 0.40576,-0.82737 z m 0.91296,1.04293 -0.0412,0.01 h -1.30287 v 0.21556 h 1.19826 c -0.0951,0.24409 -0.23775,0.45014 -0.41527,0.61815 -0.17752,-0.17435 -0.317,-0.3804 -0.40893,-0.61181 l -0.20922,0.0634 c 0.10778,0.26628 0.25677,0.49769 0.4438,0.69106 -0.2219,0.16484 -0.47867,0.27896 -0.74812,0.3487 0.0444,0.0476 0.10461,0.14899 0.1268,0.20605 0.28847,-0.0856 0.56109,-0.21239 0.79567,-0.39308 0.21556,0.17435 0.46599,0.30432 0.75446,0.38991 0.0317,-0.0571 0.10144,-0.15216 0.15216,-0.19971 -0.27896,-0.0697 -0.52305,-0.18703 -0.7291,-0.34236 0.24092,-0.23775 0.42795,-0.54524 0.53573,-0.93515 z"
         style="font-weight:normal;font-family:'Noto Sans CJK JP';-inkscape-font-specification:'Noto Sans CJK JP'"
         id="path4795" />
      <path
         d="m 115.67086,152.01646 h 2.15877 v 0.46282 h 0.24092 v -0.68472 h -1.19826 v -0.36138 h -0.24409 v 0.36138 h -1.18875 v 0.68472 h 0.23141 z m 1.20143,1.34725 h 0.93832 v -0.21873 h -0.93832 v -0.52622 h 0.80835 v -0.2219 h -1.83543 v 0.2219 h 0.78616 v 1.32823 c -0.25994,-0.0983 -0.46282,-0.27896 -0.58328,-0.61181 0.0317,-0.13314 0.0571,-0.27262 0.0761,-0.42161 l -0.24092,-0.0222 c -0.0697,0.56743 -0.24092,1.01757 -0.59279,1.29019 0.0571,0.0349 0.15533,0.11729 0.19337,0.1585 0.20605,-0.18069 0.36138,-0.41527 0.47233,-0.70691 0.28847,0.53573 0.7608,0.64985 1.41699,0.64985 h 0.73544 c 0.01,-0.0697 0.0507,-0.18069 0.0888,-0.23775 -0.15216,0.003 -0.6974,0.003 -0.81152,0.003 -0.18386,0 -0.35821,-0.01 -0.51354,-0.038 z"
         style="font-weight:normal;font-family:'Noto Sans CJK JP';-inkscape-font-specification:'Noto Sans CJK JP'"
         id="path4797" />
      <path
         d="m 119.13567,151.97842 v 1.25532 h -0.33919 v -1.25532 z m 0.21239,-0.21873 h -0.7608 v 1.98759 h 0.20922 v -0.29481 h 0.55158 z m 2.01929,1.2046 h -0.84322 v -1.1412 c 0.26628,-0.038 0.51988,-0.0856 0.71959,-0.14265 l -0.16167,-0.18703 c -0.36772,0.10778 -1.02391,0.1902 -1.57549,0.23458 0.0254,0.0539 0.0571,0.13948 0.0634,0.19337 0.23141,-0.0159 0.48184,-0.038 0.72276,-0.0666 v 1.1095 h -0.80835 v 0.22507 h 0.80835 v 0.83054 c 0,0.0539 -0.0222,0.0729 -0.0793,0.0729 -0.0476,0 -0.23141,0.003 -0.43112,-0.003 0.038,0.0634 0.0761,0.16167 0.0888,0.22507 0.26311,0.003 0.42161,-0.003 0.51988,-0.0412 0.0951,-0.0412 0.13314,-0.10461 0.13314,-0.2536 v -0.83054 h 0.84322 z m -1.75935,-0.85273 c 0.11412,0.23141 0.21239,0.54207 0.24092,0.74495 l 0.20922,-0.0697 c -0.0317,-0.20288 -0.13314,-0.5072 -0.2536,-0.73861 z m 1.29019,0.75446 c 0.10778,-0.20288 0.23775,-0.53256 0.33919,-0.79884 l -0.22824,-0.0666 c -0.0666,0.24409 -0.19654,0.59279 -0.29798,0.79884 z"
         style="font-weight:normal;font-family:'Noto Sans CJK JP';-inkscape-font-specification:'Noto Sans CJK JP'"
         id="path4799" />
      <path
         d="m 124.27107,152.0545 c -0.0539,-0.12997 -0.15533,-0.32651 -0.21873,-0.4438 l -0.1585,0.0539 c 0.0697,0.12046 0.15216,0.31066 0.21239,0.45331 z m -0.74812,-0.18386 c 0.0254,0.0793 0.0507,0.15533 0.0761,0.22824 0.21873,1.15705 -0.15216,1.91468 -0.80518,1.91468 -0.30432,0 -0.57694,-0.17118 -0.57694,-0.6023 0,-0.58011 0.4755,-1.1729 0.67521,-1.32189 0.0444,-0.0222 0.12363,-0.0412 0.16484,-0.0571 l -0.0761,-0.22824 c -0.18386,0.0697 -0.73544,0.1585 -1.00806,0.18069 -0.0571,0.006 -0.12046,0.01 -0.16801,0.01 l 0.038,0.26628 c 0.0634,-0.0127 0.12046,-0.0254 0.17435,-0.0349 0.12363,-0.0254 0.35821,-0.0634 0.51671,-0.0888 -0.25677,0.26628 -0.56426,0.77031 -0.56426,1.30921 0,0.50403 0.31066,0.83054 0.81469,0.83054 0.81469,0 1.14437,-0.78299 1.0778,-1.57549 0.11729,0.2219 0.24409,0.4121 0.38674,0.58645 l 0.18703,-0.19654 c -0.40259,-0.40259 -0.58962,-0.91613 -0.66887,-1.29653 z m 0.6974,-0.32334 c 0.0729,0.11729 0.15533,0.30115 0.21556,0.4438 l 0.16484,-0.0602 c -0.0602,-0.13314 -0.15533,-0.32651 -0.22507,-0.4438 z"
         style="font-weight:normal;font-family:'Noto Sans CJK JP';-inkscape-font-specification:'Noto Sans CJK JP'"
         id="path4801" />
      <path
         d="m 127.26038,153.01818 v 0.87809 h -0.89077 v -1.08097 h 1.00489 v -1.08414 h -0.24409 v 0.8559 h -0.7608 v -1.13803 h -0.24092 v 1.13803 h -0.72593 v -0.8559 h -0.23458 v 1.08414 h 0.96051 v 1.08097 h -0.84639 v -0.87809 h -0.23458 v 1.30604 h 0.23458 v -0.19654 h 1.97808 v 0.1902 h 0.24092 v -1.2997 z"
         style="font-weight:normal;font-family:'Noto Sans CJK JP';-inkscape-font-specification:'Noto Sans CJK JP'"
         id="path4803" />
      <path
         d="m 128.61397,151.62021 c 0.019,0.0919 0.0285,0.20288 0.0285,0.317 0,0.33285 -0.0317,1.12535 -0.0317,1.59134 0,0.51037 0.31066,0.70057 0.7608,0.70057 0.69106,0 1.09682,-0.39308 1.30921,-0.69106 l -0.17435,-0.21873 c -0.22507,0.32651 -0.55158,0.64985 -1.12852,0.64985 -0.29164,0 -0.51354,-0.12046 -0.51354,-0.46599 0,-0.46916 0.0254,-1.21094 0.038,-1.56598 0.006,-0.10144 0.0159,-0.21239 0.0317,-0.31383 z"
         style="font-weight:normal;font-family:'Noto Sans CJK JP';-inkscape-font-specification:'Noto Sans CJK JP'"
         id="path4805" />
    </g>
    <g
       aria-label="設定ポリシーの適用"
       id="text3022"
       style="font-weight:500;font-size:3.17px;line-height:1.25;font-family:Poppins;-inkscape-font-specification:'Poppins, Medium';text-align:center;letter-spacing:0;text-anchor:middle;stroke-width:0.26">
      <path
         d="m 58.685938,119.15766 h -0.91296 v 0.1902 h 0.91296 z m 0.11729,0.41527 h -1.19509 v 0.19337 h 1.19509 z m -0.317,1.46454 v 0.53256 h -0.52939 v -0.53256 z m 0.20605,-0.19337 h -0.94149 v 1.06195 h 0.20605 v -0.14582 h 0.73544 z m -0.93515,-0.23458 h 0.93832 v -0.1902 h -0.93832 z m 0,-0.42161 h 0.93832 v -0.18703 h -0.93832 z m 1.51843,-0.83054 h 0.54207 v 0.56426 c 0,0.22507 0.05706,0.2853 0.25043,0.2853 h 0.21873 c 0.16801,0 0.22507,-0.0919 0.24409,-0.46282 -0.06023,-0.0127 -0.15216,-0.0476 -0.19654,-0.0856 -0.0063,0.30432 -0.01902,0.34553 -0.07608,0.34553 h -0.1585 c -0.05072,0 -0.06023,-0.0127 -0.06023,-0.0824 v -0.77348 h -0.98904 v 0.3804 c 0,0.21873 -0.04755,0.48184 -0.35187,0.67521 0.04755,0.0317 0.13631,0.11412 0.17118,0.15533 0.33602,-0.2219 0.40576,-0.55475 0.40576,-0.82737 z m 0.91296,1.04293 -0.04121,0.01 h -1.30287 v 0.21556 h 1.19826 c -0.0951,0.24409 -0.23775,0.45014 -0.41527,0.61815 -0.17752,-0.17435 -0.317,-0.3804 -0.40893,-0.61181 l -0.20922,0.0634 c 0.10778,0.26628 0.25677,0.49769 0.4438,0.69106 -0.2219,0.16484 -0.47867,0.27896 -0.74812,0.3487 0.04438,0.0476 0.10461,0.14899 0.1268,0.20605 0.28847,-0.0856 0.56109,-0.21239 0.79567,-0.39308 0.21556,0.17435 0.46599,0.30432 0.75446,0.38991 0.0317,-0.0571 0.10144,-0.15216 0.15216,-0.19971 -0.27896,-0.0697 -0.52305,-0.18703 -0.7291,-0.34236 0.24092,-0.23775 0.42795,-0.54524 0.53573,-0.93515 z"
         style="font-weight:normal;font-family:'Noto Sans CJK JP';-inkscape-font-specification:'Noto Sans CJK JP'"
         id="path4604" />
      <path
         d="m 61.145858,119.63316 h 2.15877 v 0.46282 h 0.24092 v -0.68472 h -1.19826 v -0.36138 h -0.24409 v 0.36138 h -1.18875 v 0.68472 h 0.23141 z m 1.20143,1.34725 h 0.93832 v -0.21873 h -0.93832 v -0.52622 h 0.80835 v -0.2219 h -1.83543 v 0.2219 h 0.78616 v 1.32823 c -0.25994,-0.0983 -0.46282,-0.27896 -0.58328,-0.61181 0.0317,-0.13314 0.05706,-0.27262 0.07608,-0.42161 l -0.24092,-0.0222 c -0.06974,0.56743 -0.24092,1.01757 -0.59279,1.29019 0.05706,0.0349 0.15533,0.11729 0.19337,0.1585 0.20605,-0.18069 0.36138,-0.41527 0.47233,-0.70691 0.28847,0.53573 0.7608,0.64985 1.41699,0.64985 h 0.73544 c 0.0095,-0.0697 0.05072,-0.18069 0.08876,-0.23775 -0.15216,0.003 -0.6974,0.003 -0.81152,0.003 -0.18386,0 -0.35821,-0.01 -0.51354,-0.038 z"
         style="font-weight:normal;font-family:'Noto Sans CJK JP';-inkscape-font-specification:'Noto Sans CJK JP'"
         id="path4606" />
      <path
         d="m 66.408058,119.15449 c 0.11412,0 0.20288,0.0919 0.20288,0.20288 0,0.11412 -0.08876,0.20288 -0.20288,0.20288 -0.11095,0 -0.19971,-0.0888 -0.19971,-0.20288 0,-0.11095 0.08876,-0.20288 0.19971,-0.20288 z m 0,0.54841 c 0.19337,0 0.3487,-0.15216 0.3487,-0.34553 0,-0.1902 -0.15533,-0.3487 -0.3487,-0.3487 -0.1902,0 -0.34553,0.1585 -0.34553,0.3487 0,0.19337 0.15533,0.34553 0.34553,0.34553 z m -1.79422,0.72593 c -0.12363,0.25677 -0.39625,0.634 -0.60547,0.83054 l 0.21873,0.14899 c 0.17752,-0.19654 0.4755,-0.59913 0.60864,-0.87175 z m 1.74033,-0.3804 c 0.07608,0 0.17118,0 0.25677,0.006 v -0.26311 c -0.07925,0.0127 -0.18386,0.0159 -0.25994,0.0159 h -0.83688 v -0.32334 c 0,-0.0697 0.0095,-0.18386 0.01902,-0.22824 h -0.29798 c 0.01268,0.0475 0.02219,0.15533 0.02219,0.22507 v 0.32651 h -0.88126 c -0.10144,0 -0.18069,-0.006 -0.26945,-0.0159 v 0.26628 c 0.08559,-0.006 0.17435,-0.01 0.26945,-0.01 h 0.88126 v 1.42967 c 0,0.0824 -0.03804,0.12046 -0.12363,0.12046 -0.08242,0 -0.22824,-0.0127 -0.36772,-0.038 l 0.02536,0.2536 c 0.1268,0.0127 0.317,0.0222 0.45014,0.0222 0.1902,0 0.27262,-0.0856 0.27262,-0.2536 v -1.53428 z m -0.40893,0.49769 c 0.16801,0.19971 0.40576,0.59596 0.52939,0.84322 l 0.23458,-0.12997 c -0.1268,-0.22824 -0.3804,-0.62449 -0.54841,-0.82737 z"
         style="font-weight:normal;font-family:'Noto Sans CJK JP';-inkscape-font-specification:'Noto Sans CJK JP'"
         id="path4608" />
      <path
         d="m 67.685568,119.31933 c 0.0063,0.0602 0.01268,0.17118 0.01268,0.22824 v 1.05561 c 0,0.0951 -0.0095,0.19654 -0.01268,0.24409 h 0.29164 c -0.0063,-0.0571 -0.0095,-0.16167 -0.0095,-0.24092 v -1.05878 c 0,-0.0761 0.0032,-0.16801 0.0095,-0.22824 z m 1.46771,-0.0222 c 0.0063,0.0761 0.01585,0.16801 0.01585,0.27262 v 0.50086 c 0,0.59913 -0.03804,0.8559 -0.26628,1.11901 -0.19654,0.2219 -0.46916,0.3487 -0.7608,0.42161 l 0.20605,0.21873 c 0.23141,-0.0793 0.54841,-0.21556 0.75446,-0.46282 0.22824,-0.27262 0.32968,-0.52305 0.32968,-1.28385 v -0.51354 c 0,-0.10461 0.0063,-0.19654 0.01268,-0.27262 z"
         style="font-weight:normal;font-family:'Noto Sans CJK JP';-inkscape-font-specification:'Noto Sans CJK JP'"
         id="path4610" />
      <path
         d="m 71.109168,119.26544 -0.14265,0.21239 c 0.18703,0.10778 0.52939,0.33602 0.68155,0.45014 l 0.14899,-0.21556 c -0.13631,-0.10144 -0.50086,-0.34236 -0.68789,-0.44697 z m -0.4755,2.26338 0.14582,0.25994 c 0.29481,-0.0602 0.73227,-0.20922 1.05244,-0.39308 0.50403,-0.29798 0.94149,-0.70691 1.21728,-1.13486 l -0.15216,-0.25994 c -0.25677,0.44697 -0.67521,0.85907 -1.20143,1.16022 -0.32017,0.18386 -0.71325,0.30749 -1.06195,0.36772 z m -0.0032,-1.55013 -0.13948,0.21556 c 0.1902,0.0983 0.53573,0.32017 0.69106,0.43429 l 0.14582,-0.2219 c -0.13948,-0.10144 -0.5072,-0.32651 -0.6974,-0.42795 z"
         style="font-weight:normal;font-family:'Noto Sans CJK JP';-inkscape-font-specification:'Noto Sans CJK JP'"
         id="path4612" />
      <path
         d="m 73.648338,120.63805 c 0.09827,-0.01 0.26628,-0.0159 0.44063,-0.0159 h 1.74033 c 0.14265,0 0.27579,0.0127 0.33919,0.0159 v -0.31066 c -0.06974,0.006 -0.18386,0.0159 -0.34236,0.0159 h -1.73716 c -0.17752,0 -0.34553,-0.01 -0.44063,-0.0159 z"
         style="font-weight:normal;font-family:'Noto Sans CJK JP';-inkscape-font-specification:'Noto Sans CJK JP'"
         id="path4614" />
      <path
         d="m 77.354068,121.2562 c -0.13631,0 -0.32017,-0.17435 -0.32017,-0.5706 0,-0.42161 0.36772,-0.93832 0.97002,-1.0144 -0.03487,0.28847 -0.0951,0.58645 -0.17435,0.84639 -0.16167,0.52939 -0.33602,0.73861 -0.4755,0.73861 z m 0.82737,0.52622 c 0.74812,-0.0983 1.18241,-0.5389 1.18241,-1.19826 0,-0.634 -0.46916,-1.15388 -1.2046,-1.15388 -0.76714,0 -1.37578,0.59596 -1.37578,1.27751 0,0.51671 0.28213,0.84005 0.56109,0.84005 0.29164,0 0.54207,-0.33285 0.73544,-0.97636 0.08559,-0.29481 0.14582,-0.61181 0.18703,-0.90345 0.53256,0.0444 0.83371,0.43429 0.83371,0.90979 0,0.54207 -0.39308,0.84005 -0.79567,0.92881 -0.07608,0.0159 -0.17118,0.0317 -0.26945,0.038 z"
         style="font-weight:normal;font-family:'Noto Sans CJK JP';-inkscape-font-specification:'Noto Sans CJK JP'"
         id="path4616" />
      <path
         d="m 81.899848,119.8297 h -0.58962 l 0.05706,-0.0159 c -0.01902,-0.0856 -0.07291,-0.21556 -0.13314,-0.31066 h 0.77982 c -0.03804,0.10144 -0.09827,0.23141 -0.14899,0.317 z m -0.01585,1.21094 h -0.50086 v -0.27262 h 0.50086 z m -0.86224,-1.50892 c 0.05389,0.0888 0.10778,0.20605 0.13314,0.29798 h -0.4121 v 1.64523 h 0.21556 v -1.4582 h 0.58011 v 0.21239 h -0.47233 v 0.16167 h 0.47233 v 0.22824 h -0.32651 v 0.69106 h 0.17118 v -0.12046 h 0.67521 v -0.5706 h -0.33919 v -0.22824 h 0.4755 v -0.16167 h -0.4755 v -0.21239 h 0.6023 v 1.20777 c 0,0.0349 -0.0095,0.0475 -0.04755,0.0475 -0.04121,0.003 -0.16484,0.003 -0.30749,-0.003 0.0317,0.0571 0.0634,0.14582 0.07291,0.20288 0.18703,0 0.317,-0.003 0.39942,-0.0349 0.08242,-0.038 0.10461,-0.0983 0.10461,-0.21239 v -1.3948 h -0.46282 c 0.05072,-0.0856 0.11095,-0.19654 0.16801,-0.30432 l -0.08242,-0.0222 h 0.48818 v -0.1902 h -0.9193 v -0.26628 h -0.23141 v 0.26628 h -0.87492 v 0.1902 h 0.50403 z m -0.47867,0.11095 c -0.09827,-0.15533 -0.317,-0.37089 -0.51037,-0.51671 l -0.18069,0.13314 c 0.19337,0.15216 0.40576,0.37089 0.50086,0.52939 z m -0.0951,0.64668 h -0.62449 v 0.2219 h 0.40259 v 0.81152 c -0.14265,0.13314 -0.30432,0.26628 -0.43746,0.36455 l 0.12363,0.22507 c 0.15533,-0.13631 0.30115,-0.26945 0.44063,-0.40576 0.19654,0.24726 0.48184,0.35821 0.89711,0.37406 0.35504,0.0159 1.02391,0.01 1.37895,-0.006 0.0095,-0.0697 0.04755,-0.17752 0.07608,-0.23141 -0.3804,0.0254 -1.1095,0.0349 -1.4582,0.019 -0.37089,-0.0127 -0.64985,-0.12046 -0.79884,-0.35504 z"
         style="font-weight:normal;font-family:'Noto Sans CJK JP';-inkscape-font-specification:'Noto Sans CJK JP'"
         id="path4618" />
      <path
         d="m 84.553138,120.75217 v -0.52622 h 0.85273 v 0.52622 z m -1.00489,0 c 0.0095,-0.11729 0.01268,-0.23458 0.01268,-0.33919 v -0.18703 h 0.75763 v 0.52622 z m 0.77031,-1.25532 v 0.5072 h -0.75763 v -0.5072 z m 1.08731,0.5072 h -0.85273 v -0.5072 h 0.85273 z m 0.23141,-0.73227 h -2.30776 v 1.1412 c 0,0.44063 -0.0317,0.99855 -0.3804,1.39163 0.05072,0.0285 0.14582,0.10778 0.18069,0.15533 0.24092,-0.26945 0.3487,-0.63083 0.39625,-0.9827 h 0.7925 v 0.93515 h 0.23458 v -0.93515 h 0.85273 v 0.64351 c 0,0.0602 -0.02219,0.0793 -0.08559,0.0824 -0.05706,0 -0.27262,0.003 -0.49452,-0.006 0.0317,0.0634 0.06974,0.16484 0.07925,0.22824 0.29798,0.003 0.48184,0 0.58962,-0.038 0.10144,-0.0412 0.14265,-0.11095 0.14265,-0.26311 z"
         style="font-weight:normal;font-family:'Noto Sans CJK JP';-inkscape-font-specification:'Noto Sans CJK JP'"
         id="path4620" />
    </g>
    <g
       aria-label="静的設定"
       id="text3028"
       style="font-weight:500;font-size:3.17px;line-height:1.25;font-family:Poppins;-inkscape-font-specification:'Poppins, Medium';letter-spacing:0;stroke-width:0.26">
      <path
         d="m 12.977842,65.154971 h -0.58011 v -0.19971 h 0.48501 v -0.17118 h -0.48501 v -0.1902 h 0.54524 v -0.17752 h -0.54524 v -0.28213 h -0.2219 v 0.28213 h -0.53256 v 0.17752 h 0.53256 v 0.1902 h -0.47233 v 0.17118 h 0.47233 v 0.19971 h -0.59279 v 0.18069 h 1.3948 z m -0.99855,1.16339 v -0.23141 h 0.634 v 0.23141 z m 0.634,-0.61815 v 0.21873 h -0.634 v -0.21873 z m 0.20922,-0.18069 h -1.05244 v 1.50892 h 0.20922 v -0.54207 h 0.634 v 0.30432 c 0,0.03804 -0.01268,0.04755 -0.05072,0.04755 h -0.28847 c 0.02853,0.05072 0.06023,0.13631 0.06974,0.1902 0.19337,0 0.30432,-0.0032 0.38357,-0.03487 0.07291,-0.03487 0.0951,-0.0951 0.0951,-0.19971 z m 1.268,0.54841 h -0.36455 v -0.35187 h 0.36455 z m -0.36455,-0.89394 h 0.36455 v 0.34236 h -0.36455 z m 0.12046,-0.55792 c -0.06657,0.12046 -0.14899,0.25677 -0.23141,0.36138 h -0.45965 c 0.08876,-0.10461 0.17435,-0.22824 0.25043,-0.36138 z m 0.65619,0.90028 h -0.19654 v -0.5389 h -0.45965 c 0.10778,-0.14265 0.21873,-0.31383 0.29164,-0.46599 l -0.14265,-0.09193 -0.03487,0.0095 h -0.45331 c 0.03804,-0.07925 0.07291,-0.16167 0.10461,-0.24409 l -0.20605,-0.05072 c -0.11412,0.30749 -0.30432,0.61181 -0.51988,0.81152 0.05072,0.0317 0.13631,0.09827 0.17435,0.13631 l 0.02536,-0.02536 v 0.11729 h 0.41844 v 0.34236 h -0.57377 v 0.19971 h 0.57377 v 0.35187 h -0.43746 v 0.19654 h 0.43746 v 0.49135 c 0,0.04438 -0.01268,0.05706 -0.05706,0.06023 -0.04121,0 -0.18703,0 -0.34553,-0.0063 0.0317,0.0634 0.0634,0.1585 0.07608,0.21556 0.21556,0 0.35187,-0.0032 0.43429,-0.03804 0.08559,-0.03804 0.11412,-0.10461 0.11412,-0.22824 v -0.49452 h 0.36455 v 0.12363 h 0.21556 v -0.67204 h 0.19654 z"
         style="font-weight:normal;font-family:'Noto Sans CJK JP';-inkscape-font-specification:'Noto Sans CJK JP';text-align:end;text-anchor:end"
         id="path4221" />
      <path
         d="m 15.780122,65.516351 h -0.6657 v -0.66253 h 0.6657 z m -0.6657,0.97002 v -0.7608 h 0.6657 v 0.7608 z m 0.26628,-2.35848 c -0.02219,0.14899 -0.07925,0.36138 -0.1268,0.51354 h -0.35504 v 2.30776 h 0.21556 v -0.25043 h 0.88126 v -2.05733 h -0.52622 c 0.05389,-0.13631 0.11095,-0.31066 0.16484,-0.46599 z m 2.16511,0.50403 h -0.94783 c 0.05389,-0.14899 0.09827,-0.30115 0.13631,-0.45648 l -0.22507,-0.05389 c -0.10144,0.43429 -0.27262,0.87175 -0.48501,1.15071 0.05072,0.0317 0.15216,0.0951 0.19337,0.13314 0.11095,-0.14899 0.20922,-0.34236 0.29798,-0.55475 h 0.80518 c -0.04121,1.26166 -0.08876,1.7435 -0.19337,1.85445 -0.0317,0.04121 -0.06657,0.04755 -0.12997,0.04755 -0.07291,0 -0.26311,0 -0.46916,-0.01902 0.04438,0.06657 0.07291,0.16167 0.07925,0.23141 0.17752,0.0095 0.35821,0.01585 0.46916,0.0032 0.10778,-0.0095 0.18069,-0.03804 0.25043,-0.1268 0.1268,-0.15533 0.16801,-0.64351 0.21873,-2.08903 z m -0.50086,1.4265 c -0.10144,-0.18703 -0.32017,-0.49135 -0.49769,-0.71642 l -0.18386,0.10778 c 0.17435,0.22824 0.38674,0.54207 0.48184,0.73227 z"
         style="font-weight:normal;font-family:'Noto Sans CJK JP';-inkscape-font-specification:'Noto Sans CJK JP';text-align:end;text-anchor:end"
         id="path4223" />
      <path
         d="m 18.994502,64.245181 h -0.91296 v 0.1902 h 0.91296 z m 0.11729,0.41527 h -1.19509 v 0.19337 h 1.19509 z m -0.317,1.46454 v 0.53256 h -0.52939 v -0.53256 z m 0.20605,-0.19337 h -0.94149 v 1.06195 h 0.20605 v -0.14582 h 0.73544 z m -0.93515,-0.23458 h 0.93832 v -0.1902 h -0.93832 z m 0,-0.42161 h 0.93832 v -0.18703 h -0.93832 z m 1.51843,-0.83054 h 0.54207 v 0.56426 c 0,0.22507 0.05706,0.2853 0.25043,0.2853 h 0.21873 c 0.16801,0 0.22507,-0.09193 0.24409,-0.46282 -0.06023,-0.01268 -0.15216,-0.04755 -0.19654,-0.08559 -0.0063,0.30432 -0.01902,0.34553 -0.07608,0.34553 h -0.1585 c -0.05072,0 -0.06023,-0.01268 -0.06023,-0.08242 v -0.77348 h -0.98904 v 0.3804 c 0,0.21873 -0.04755,0.48184 -0.35187,0.67521 0.04755,0.0317 0.13631,0.11412 0.17118,0.15533 0.33602,-0.2219 0.40576,-0.55475 0.40576,-0.82737 z m 0.91296,1.04293 -0.04121,0.0095 h -1.30287 v 0.21556 h 1.19826 c -0.0951,0.24409 -0.23775,0.45014 -0.41527,0.61815 -0.17752,-0.17435 -0.317,-0.3804 -0.40893,-0.61181 l -0.20922,0.0634 c 0.10778,0.26628 0.25677,0.49769 0.4438,0.69106 -0.2219,0.16484 -0.47867,0.27896 -0.74812,0.3487 0.04438,0.04755 0.10461,0.14899 0.1268,0.20605 0.28847,-0.08559 0.56109,-0.21239 0.79567,-0.39308 0.21556,0.17435 0.46599,0.30432 0.75446,0.38991 0.0317,-0.05706 0.10144,-0.15216 0.15216,-0.19971 -0.27896,-0.06974 -0.52305,-0.18703 -0.7291,-0.34236 0.24092,-0.23775 0.42795,-0.54524 0.53573,-0.93515 z"
         style="font-weight:normal;font-family:'Noto Sans CJK JP';-inkscape-font-specification:'Noto Sans CJK JP';text-align:end;text-anchor:end"
         id="path4225" />
      <path
         d="m 21.454422,64.720681 h 2.15877 v 0.46282 h 0.24092 v -0.68472 h -1.19826 v -0.36138 h -0.24409 v 0.36138 h -1.18875 v 0.68472 h 0.23141 z m 1.20143,1.34725 h 0.93832 v -0.21873 h -0.93832 v -0.52622 h 0.80835 v -0.2219 h -1.83543 v 0.2219 h 0.78616 v 1.32823 c -0.25994,-0.09827 -0.46282,-0.27896 -0.58328,-0.61181 0.0317,-0.13314 0.05706,-0.27262 0.07608,-0.42161 l -0.24092,-0.02219 c -0.06974,0.56743 -0.24092,1.01757 -0.59279,1.29019 0.05706,0.03487 0.15533,0.11729 0.19337,0.1585 0.20605,-0.18069 0.36138,-0.41527 0.47233,-0.70691 0.28847,0.53573 0.7608,0.64985 1.41699,0.64985 h 0.73544 c 0.0095,-0.06974 0.05072,-0.18069 0.08876,-0.23775 -0.15216,0.0032 -0.6974,0.0032 -0.81152,0.0032 -0.18386,0 -0.35821,-0.0095 -0.51354,-0.03804 z"
         style="font-weight:normal;font-family:'Noto Sans CJK JP';-inkscape-font-specification:'Noto Sans CJK JP';text-align:end;text-anchor:end"
         id="path4227" />
    </g>
    <g
       aria-label="ポリシー"
       id="text3032"
       style="font-weight:500;font-size:3.17px;line-height:1.25;font-family:Poppins;-inkscape-font-specification:'Poppins, Medium';letter-spacing:0;stroke-width:0.26">
      <path
         d="m 13.767581,104.26449 c 0.11412,0 0.20288,0.0919 0.20288,0.20288 0,0.11412 -0.08876,0.20288 -0.20288,0.20288 -0.11095,0 -0.19971,-0.0888 -0.19971,-0.20288 0,-0.11095 0.08876,-0.20288 0.19971,-0.20288 z m 0,0.54841 c 0.19337,0 0.3487,-0.15216 0.3487,-0.34553 0,-0.1902 -0.15533,-0.3487 -0.3487,-0.3487 -0.1902,0 -0.34553,0.1585 -0.34553,0.3487 0,0.19337 0.15533,0.34553 0.34553,0.34553 z m -1.79422,0.72593 c -0.12363,0.25677 -0.39625,0.634 -0.605471,0.83054 l 0.218731,0.14899 c 0.17752,-0.19654 0.4755,-0.59913 0.60864,-0.87175 z m 1.74033,-0.3804 c 0.07608,0 0.17118,0 0.25677,0.006 v -0.26311 c -0.07925,0.0127 -0.18386,0.0158 -0.25994,0.0158 h -0.83688 v -0.32334 c 0,-0.0697 0.0095,-0.18386 0.01902,-0.22824 h -0.29798 c 0.01268,0.0476 0.02219,0.15533 0.02219,0.22507 v 0.32651 h -0.88126 c -0.10144,0 -0.18069,-0.006 -0.269451,-0.0158 v 0.26628 c 0.08559,-0.006 0.174351,-0.01 0.269451,-0.01 h 0.88126 v 1.42967 c 0,0.0824 -0.03804,0.12046 -0.12363,0.12046 -0.08242,0 -0.22824,-0.0127 -0.36772,-0.038 l 0.02536,0.2536 c 0.1268,0.0127 0.317,0.0222 0.45014,0.0222 0.1902,0 0.27262,-0.0856 0.27262,-0.2536 v -1.53428 z m -0.40893,0.49769 c 0.16801,0.19971 0.40576,0.59596 0.52939,0.84322 l 0.23458,-0.12997 c -0.1268,-0.22824 -0.3804,-0.62449 -0.54841,-0.82737 z"
         style="font-weight:normal;font-family:'Noto Sans CJK JP';-inkscape-font-specification:'Noto Sans CJK JP';text-align:end;text-anchor:end"
         id="path4595" />
      <path
         d="m 15.045091,104.42933 c 0.0063,0.0602 0.01268,0.17118 0.01268,0.22824 v 1.05561 c 0,0.0951 -0.0095,0.19654 -0.01268,0.24409 h 0.29164 c -0.0063,-0.0571 -0.0095,-0.16167 -0.0095,-0.24092 v -1.05878 c 0,-0.0761 0.0032,-0.16801 0.0095,-0.22824 z m 1.46771,-0.0222 c 0.0063,0.0761 0.01585,0.16801 0.01585,0.27262 v 0.50086 c 0,0.59913 -0.03804,0.8559 -0.26628,1.11901 -0.19654,0.2219 -0.46916,0.3487 -0.7608,0.42161 l 0.20605,0.21873 c 0.23141,-0.0793 0.54841,-0.21556 0.75446,-0.46282 0.22824,-0.27262 0.32968,-0.52305 0.32968,-1.28385 v -0.51354 c 0,-0.10461 0.0063,-0.19654 0.01268,-0.27262 z"
         style="font-weight:normal;font-family:'Noto Sans CJK JP';-inkscape-font-specification:'Noto Sans CJK JP';text-align:end;text-anchor:end"
         id="path4597" />
      <path
         d="m 18.468691,104.37544 -0.14265,0.21239 c 0.18703,0.10778 0.52939,0.33602 0.68155,0.45014 l 0.14899,-0.21556 c -0.13631,-0.10144 -0.50086,-0.34236 -0.68789,-0.44697 z m -0.4755,2.26338 0.14582,0.25994 c 0.29481,-0.0602 0.73227,-0.20922 1.05244,-0.39308 0.50403,-0.29798 0.94149,-0.70691 1.21728,-1.13486 l -0.15216,-0.25994 c -0.25677,0.44697 -0.67521,0.85907 -1.20143,1.16022 -0.32017,0.18386 -0.71325,0.30749 -1.06195,0.36772 z m -0.0032,-1.55013 -0.13948,0.21556 c 0.1902,0.0983 0.53573,0.32017 0.69106,0.43429 l 0.14582,-0.2219 c -0.13948,-0.10144 -0.5072,-0.32651 -0.6974,-0.42795 z"
         style="font-weight:normal;font-family:'Noto Sans CJK JP';-inkscape-font-specification:'Noto Sans CJK JP';text-align:end;text-anchor:end"
         id="path4599" />
      <path
         d="m 21.007861,105.74805 c 0.09827,-0.01 0.26628,-0.0159 0.44063,-0.0159 h 1.74033 c 0.14265,0 0.27579,0.0127 0.33919,0.0159 v -0.31066 c -0.06974,0.006 -0.18386,0.0159 -0.34236,0.0159 h -1.73716 c -0.17752,0 -0.34553,-0.01 -0.44063,-0.0159 z"
         style="font-weight:normal;font-family:'Noto Sans CJK JP';-inkscape-font-specification:'Noto Sans CJK JP';text-align:end;text-anchor:end"
         id="path4601" />
    </g>
    <path
       fill="none"
       stroke="#0c322c"
       stroke-width=".56"
       marker-end="url(#a)"
       d="m26.46 66.14 18.52.01"
       id="path3034" />
    <path
       fill="none"
       stroke="#0c322c"
       stroke-width=".56"
       marker-end="url(#c)"
       d="m26.11 105.8 18.52.01"
       id="path3036" />
  </g>
</svg>
