<?xml version="1.0" encoding="UTF-8" standalone="no"?>
<svg
   xmlns:dc="http://purl.org/dc/elements/1.1/"
   xmlns:cc="http://creativecommons.org/ns#"
   xmlns:rdf="http://www.w3.org/1999/02/22-rdf-syntax-ns#"
   xmlns:svg="http://www.w3.org/2000/svg"
   xmlns="http://www.w3.org/2000/svg"
   xmlns:sodipodi="http://sodipodi.sourceforge.net/DTD/sodipodi-0.dtd"
   xmlns:inkscape="http://www.inkscape.org/namespaces/inkscape"
   id="svg2"
   height="200"
   width="900"
   version="1.2"
   sodipodi:docname="net_basic_tcppacket.svg"
   inkscape:version="0.92.4 (5da689c313, 2019-01-14)">
  <sodipodi:namedview
     pagecolor="#ffffff"
     bordercolor="#666666"
     borderopacity="1"
     objecttolerance="10"
     gridtolerance="10"
     guidetolerance="10"
     inkscape:pageopacity="0"
     inkscape:pageshadow="2"
     inkscape:window-width="1920"
     inkscape:window-height="1027"
     id="namedview116"
     showgrid="false"
     inkscape:zoom="1.2755556"
     inkscape:cx="502.96828"
     inkscape:cy="100"
     inkscape:window-x="-8"
     inkscape:window-y="-8"
     inkscape:window-maximized="1"
     inkscape:current-layer="svg2" />
  <defs
     id="defs4" />
  <metadata
     id="metadata7">
    <rdf:RDF>
      <cc:Work
         rdf:about="">
        <dc:format>image/svg+xml</dc:format>
        <dc:type
           rdf:resource="http://purl.org/dc/dcmitype/StillImage" />
        <dc:title />
      </cc:Work>
    </rdf:RDF>
  </metadata>
  <rect
     style="fill:#30ba78;fill-opacity:1;fill-rule:nonzero;stroke:none"
     id="rect4438"
     y="20"
     x="20"
     ry="10"
     rx="10"
     height="160"
     width="860" />
  <rect
     style="color:#000000;display:inline;overflow:visible;visibility:visible;fill:#fe7c3f;fill-opacity:1;fill-rule:nonzero;stroke:#ffffff;stroke-width:0;stroke-miterlimit:4;stroke-dasharray:none;stroke-opacity:1;marker:none;enable-background:accumulate"
     id="rect6978-9-64-0-1-5-7"
     y="20"
     x="120"
     height="160"
     width="130" />
  <rect
     style="color:#000000;display:inline;overflow:visible;visibility:visible;fill:#90ebcd;fill-opacity:1;fill-rule:nonzero;stroke:#ffffff;stroke-width:0;stroke-miterlimit:4;stroke-dasharray:none;stroke-opacity:1;marker:none;enable-background:accumulate"
     id="rect6978-9-64-0-1-5-7-5"
     y="20"
     x="250"
     ry="0"
     height="160"
     width="130.00003" />
  <rect
     style="color:#000000;display:inline;overflow:visible;visibility:visible;fill:#dedfe0;fill-opacity:1;fill-rule:nonzero;stroke:#ffffff;stroke-width:0;stroke-miterlimit:4;stroke-dasharray:none;stroke-opacity:1;marker:none;enable-background:accumulate"
     id="rect6978-9-64-0-1-5-7-5-2"
     y="20"
     x="380"
     height="160"
     width="396.11935" />
  <g
     aria-label="Cabeçalho"
     style="font-style:normal;font-weight:normal;font-size:40px;line-height:0;font-family:sans-serif;text-align:center;letter-spacing:0px;word-spacing:0px;writing-mode:lr-tb;text-anchor:middle;fill:#000000;fill-opacity:1;stroke:none"
     id="text925">
    <path
       d="m 29.315506,67.521881 q -2.353516,0 -3.720703,1.572266 -1.357422,1.5625 -1.357422,4.287109 0,2.802734 1.308594,4.335938 1.318359,1.523437 3.75,1.523437 1.49414,0 3.408203,-0.537109 V 80.1586 q -1.484375,0.55664 -3.66211,0.55664 -3.154296,0 -4.873046,-1.914062 -1.708985,-1.914063 -1.708985,-5.439453 0,-2.207031 0.820313,-3.867188 0.830078,-1.660156 2.382812,-2.558593 1.5625,-0.898438 3.671875,-0.898438 2.246094,0 3.925781,0.820313 L 32.557693,68.2836 Q 30.9366,67.521881 29.315506,67.521881 Z"
       style="font-style:normal;font-variant:normal;font-weight:normal;font-stretch:normal;font-size:20px;font-family:'Open Sans';-inkscape-font-specification:'Open Sans'"
       id="path838" />
    <path
       d="M 42.157303,80.519928 41.835037,78.99649 h -0.07813 q -0.800781,1.00586 -1.601562,1.367188 -0.791016,0.351562 -1.982422,0.351562 -1.591797,0 -2.5,-0.820312 -0.898438,-0.820313 -0.898438,-2.333984 0,-3.242188 5.185547,-3.398438 l 1.816406,-0.05859 V 73.43985 q 0,-1.259766 -0.546875,-1.855469 -0.537109,-0.605469 -1.728515,-0.605469 -1.337891,0 -3.027344,0.820313 L 35.975662,70.55899 q 0.791016,-0.429687 1.728516,-0.673828 0.947265,-0.24414 1.894531,-0.24414 1.914063,0 2.832031,0.849609 0.927735,0.849609 0.927735,2.724609 v 7.304688 z m -3.66211,-1.142578 q 1.513672,0 2.373047,-0.830078 0.869141,-0.830078 0.869141,-2.324219 v -0.966797 l -1.621094,0.06836 q -1.933594,0.06836 -2.792969,0.605469 -0.849609,0.527344 -0.849609,1.650391 0,0.878906 0.527344,1.33789 0.537109,0.458985 1.49414,0.458985 z"
       style="font-style:normal;font-variant:normal;font-weight:normal;font-stretch:normal;font-size:20px;font-family:'Open Sans';-inkscape-font-specification:'Open Sans'"
       id="path840" />
    <path
       d="m 51.688553,69.641022 q 2.109375,0 3.271484,1.445312 1.171875,1.435547 1.171875,4.072266 0,2.636719 -1.18164,4.101562 -1.171875,1.455078 -3.261719,1.455078 -1.044922,0 -1.914063,-0.380859 -0.859375,-0.390625 -1.445312,-1.191406 H 48.21199 l -0.341797,1.376953 H 46.708084 V 65.324615 h 1.621094 v 3.691407 q 0,1.240234 -0.07813,2.226562 h 0.07813 q 1.132812,-1.601562 3.359375,-1.601562 z m -0.234375,1.357422 q -1.660156,0 -2.392578,0.957031 -0.732422,0.947265 -0.732422,3.203125 0,2.255859 0.751953,3.232422 0.751953,0.966797 2.412109,0.966797 1.494141,0 2.226563,-1.083985 0.732422,-1.09375 0.732422,-3.134765 0,-2.089844 -0.732422,-3.115235 -0.732422,-1.02539 -2.265625,-1.02539 z"
       style="font-style:normal;font-variant:normal;font-weight:normal;font-stretch:normal;font-size:20px;font-family:'Open Sans';-inkscape-font-specification:'Open Sans'"
       id="path842" />
    <path
       d="m 63.495193,80.71524 q -2.373046,0 -3.75,-1.445312 -1.367187,-1.445313 -1.367187,-4.013672 0,-2.587891 1.269531,-4.111328 1.279297,-1.523438 3.427735,-1.523438 2.011718,0 3.183593,1.328125 1.171875,1.31836 1.171875,3.486329 v 1.02539 h -7.373047 q 0.04883,1.884766 0.947266,2.861328 0.908203,0.976563 2.548828,0.976563 1.728516,0 3.417969,-0.722656 v 1.445312 q -0.859375,0.371094 -1.630859,0.527344 -0.761719,0.166015 -1.845704,0.166015 z M 63.05574,70.978912 q -1.289062,0 -2.060547,0.839844 -0.761718,0.839844 -0.898437,2.324219 h 5.595703 q 0,-1.533203 -0.683594,-2.34375 -0.683593,-0.820313 -1.953125,-0.820313 z"
       style="font-style:normal;font-variant:normal;font-weight:normal;font-stretch:normal;font-size:20px;font-family:'Open Sans';-inkscape-font-specification:'Open Sans'"
       id="path844" />
    <path
       d="m 74.46199,80.71524 q -2.324218,0 -3.603515,-1.425781 -1.269532,-1.435547 -1.269532,-4.052734 0,-2.685547 1.289063,-4.150391 1.298828,-1.464844 3.691406,-1.464844 0.771485,0 1.542969,0.166016 0.771484,0.166016 1.210937,0.390625 l -0.498046,1.376953 q -0.53711,-0.214844 -1.171875,-0.351562 -0.634766,-0.146485 -1.123047,-0.146485 -3.261719,0 -3.261719,4.160157 0,1.972656 0.791016,3.027343 0.800781,1.054688 2.363281,1.054688 1.33789,0 2.74414,-0.576172 V 80.1586 q -1.074218,0.55664 -2.705078,0.55664 z m 1.445313,2.626954 q 0,0.947265 -0.751953,1.464843 -0.742188,0.517578 -2.207032,0.517578 -0.498046,0 -0.9375,-0.08789 v -1.035156 q 0.439454,0.07813 1.015625,0.07813 0.771485,0 1.16211,-0.195313 0.40039,-0.195312 0.40039,-0.722656 0,-0.419922 -0.390625,-0.683594 -0.380859,-0.253906 -1.445312,-0.419922 l 0.859375,-1.738281 H 74.6866 l -0.53711,1.123047 q 1.757813,0.380859 1.757813,1.699219 z"
       style="font-style:normal;font-variant:normal;font-weight:normal;font-stretch:normal;font-size:20px;font-family:'Open Sans';-inkscape-font-specification:'Open Sans'"
       id="path846" />
    <path
       d="M 86.297928,80.519928 85.975662,78.99649 h -0.07813 q -0.800781,1.00586 -1.601562,1.367188 -0.791016,0.351562 -1.982422,0.351562 -1.591797,0 -2.5,-0.820312 -0.898438,-0.820313 -0.898438,-2.333984 0,-3.242188 5.185547,-3.398438 l 1.816406,-0.05859 V 73.43985 q 0,-1.259766 -0.546875,-1.855469 -0.537109,-0.605469 -1.728515,-0.605469 -1.337891,0 -3.027344,0.820313 L 80.116287,70.55899 q 0.791016,-0.429687 1.728516,-0.673828 0.947265,-0.24414 1.894531,-0.24414 1.914063,0 2.832031,0.849609 0.927735,0.849609 0.927735,2.724609 v 7.304688 z m -3.66211,-1.142578 q 1.513672,0 2.373047,-0.830078 0.869141,-0.830078 0.869141,-2.324219 v -0.966797 l -1.621094,0.06836 q -1.933594,0.06836 -2.792969,0.605469 -0.849609,0.527344 -0.849609,1.650391 0,0.878906 0.527344,1.33789 0.537109,0.458985 1.49414,0.458985 z"
       style="font-style:normal;font-variant:normal;font-weight:normal;font-stretch:normal;font-size:20px;font-family:'Open Sans';-inkscape-font-specification:'Open Sans'"
       id="path848" />
    <path
       d="M 92.469803,80.519928 H 90.848709 V 65.324615 h 1.621094 z"
       style="font-style:normal;font-variant:normal;font-weight:normal;font-stretch:normal;font-size:20px;font-family:'Open Sans';-inkscape-font-specification:'Open Sans'"
       id="path850" />
    <path
       d="M 103.25105,80.519928 V 73.5961 q 0,-1.308594 -0.5957,-1.953125 -0.5957,-0.644531 -1.86523,-0.644531 -1.689458,0 -2.470708,0.917968 -0.771484,0.917969 -0.771484,3.007813 v 5.595703 H 95.926834 V 65.324615 h 1.621094 v 4.59961 q 0,0.830078 -0.07813,1.376953 h 0.09766 q 0.478516,-0.771484 1.357422,-1.210938 0.888672,-0.449218 2.021489,-0.449218 1.96289,0 2.93945,0.9375 0.98633,0.927734 0.98633,2.958984 v 6.982422 z"
       style="font-style:normal;font-variant:normal;font-weight:normal;font-stretch:normal;font-size:20px;font-family:'Open Sans';-inkscape-font-specification:'Open Sans'"
       id="path852" />
    <path
       d="m 117.43074,75.1586 q 0,2.617187 -1.31836,4.091797 -1.31836,1.464843 -3.64258,1.464843 -1.43554,0 -2.54883,-0.673828 -1.11328,-0.673828 -1.71875,-1.933593 -0.60546,-1.259766 -0.60546,-2.949219 0,-2.617188 1.30859,-4.072266 1.30859,-1.464844 3.63281,-1.464844 2.2461,0 3.56446,1.494141 1.32812,1.494141 1.32812,4.042969 z m -8.1543,0 q 0,2.050781 0.82032,3.125 0.82031,1.074219 2.41211,1.074219 1.59179,0 2.4121,-1.064454 0.83008,-1.074218 0.83008,-3.134765 0,-2.041016 -0.83008,-3.095703 -0.82031,-1.064453 -2.43164,-1.064453 -1.59179,0 -2.40234,1.044921 -0.81055,1.044922 -0.81055,3.115235 z"
       style="font-style:normal;font-variant:normal;font-weight:normal;font-stretch:normal;font-size:20px;font-family:'Open Sans';-inkscape-font-specification:'Open Sans'"
       id="path854" />
  </g>
  <g
     aria-label="Ethernet"
     style="font-style:normal;font-weight:normal;font-size:40px;line-height:0;font-family:sans-serif;text-align:center;letter-spacing:0px;word-spacing:0px;writing-mode:lr-tb;text-anchor:middle;fill:#000000;fill-opacity:1;stroke:none"
     id="text925-5">
    <path
       d="M 39.278252,104.241 H 31.319267 V 89.963654 h 7.958985 v 1.474609 h -6.298828 v 4.599609 h 5.917968 v 1.464844 h -5.917968 v 5.253904 h 6.298828 z"
       style="font-style:normal;font-variant:normal;font-weight:normal;font-stretch:normal;font-size:20px;font-family:'Open Sans';-inkscape-font-specification:'Open Sans'"
       id="path857" />
    <path
       d="m 45.66497,103.09842 q 0.429688,0 0.830079,-0.0586 0.40039,-0.0684 0.634765,-0.13672 v 1.24023 q -0.263672,0.12695 -0.78125,0.20508 -0.507812,0.0879 -0.917969,0.0879 -3.105468,0 -3.105468,-3.27148 v -6.367192 h -1.533203 v -0.78125 l 1.533203,-0.673828 0.683593,-2.285156 h 0.9375 v 2.480468 h 3.105469 v 1.259766 H 43.94622 v 6.298832 q 0,0.96679 0.458985,1.48437 0.458984,0.51758 1.259765,0.51758 z"
       style="font-style:normal;font-variant:normal;font-weight:normal;font-stretch:normal;font-size:20px;font-family:'Open Sans';-inkscape-font-specification:'Open Sans'"
       id="path859" />
    <path
       d="m 56.60247,104.241 v -6.923831 q 0,-1.308594 -0.595703,-1.953125 -0.595703,-0.644531 -1.865234,-0.644531 -1.689453,0 -2.470703,0.917969 -0.771485,0.917968 -0.771485,3.007812 V 104.241 H 49.278252 V 89.045685 h 1.621093 v 4.599609 q 0,0.830078 -0.07813,1.376953 h 0.09766 q 0.478515,-0.771484 1.357422,-1.210937 0.888671,-0.449219 2.021484,-0.449219 1.962891,0 2.939453,0.9375 0.986328,0.927734 0.986328,2.958984 V 104.241 Z"
       style="font-style:normal;font-variant:normal;font-weight:normal;font-stretch:normal;font-size:20px;font-family:'Open Sans';-inkscape-font-specification:'Open Sans'"
       id="path861" />
    <path
       d="m 66.065361,104.43631 q -2.373047,0 -3.75,-1.44531 -1.367187,-1.44532 -1.367187,-4.013675 0,-2.58789 1.269531,-4.111328 1.279297,-1.523437 3.427734,-1.523437 2.011719,0 3.183594,1.328125 1.171875,1.318359 1.171875,3.486328 v 1.025391 h -7.373047 q 0.04883,1.884766 0.947266,2.861326 0.908203,0.97656 2.548828,0.97656 1.728515,0 3.417969,-0.72265 v 1.44531 q -0.859375,0.37109 -1.63086,0.52734 -0.761719,0.16602 -1.845703,0.16602 z m -0.439453,-9.736328 q -1.289063,0 -2.060547,0.839843 -0.761719,0.839844 -0.898437,2.324219 h 5.595703 q 0,-1.533203 -0.683594,-2.34375 -0.683594,-0.820312 -1.953125,-0.820312 z"
       style="font-style:normal;font-variant:normal;font-weight:normal;font-stretch:normal;font-size:20px;font-family:'Open Sans';-inkscape-font-specification:'Open Sans'"
       id="path863" />
    <path
       d="m 77.637627,93.34256 q 0.71289,0 1.279297,0.117187 l -0.22461,1.503907 q -0.664062,-0.146485 -1.171875,-0.146485 -1.298828,0 -2.226562,1.054688 -0.917969,1.054687 -0.917969,2.626953 V 104.241 H 72.754814 V 93.537872 h 1.337891 l 0.185547,1.982422 h 0.07813 q 0.595703,-1.044922 1.435547,-1.611328 0.839843,-0.566406 1.845703,-0.566406 z"
       style="font-style:normal;font-variant:normal;font-weight:normal;font-stretch:normal;font-size:20px;font-family:'Open Sans';-inkscape-font-specification:'Open Sans'"
       id="path865" />
    <path
       d="m 88.243095,104.241 v -6.923831 q 0,-1.308594 -0.595703,-1.953125 -0.595703,-0.644531 -1.865234,-0.644531 -1.679688,0 -2.460938,0.908203 -0.78125,0.908203 -0.78125,2.998047 V 104.241 H 80.918877 V 93.537872 h 1.318359 l 0.263672,1.464844 h 0.07813 q 0.498047,-0.791016 1.396484,-1.220703 0.898438,-0.439453 2.001953,-0.439453 1.933594,0 2.910157,0.9375 0.976562,0.927734 0.976562,2.978515 V 104.241 Z"
       style="font-style:normal;font-variant:normal;font-weight:normal;font-stretch:normal;font-size:20px;font-family:'Open Sans';-inkscape-font-specification:'Open Sans'"
       id="path867" />
    <path
       d="m 97.705986,104.43631 q -2.373047,0 -3.75,-1.44531 -1.367187,-1.44532 -1.367187,-4.013675 0,-2.58789 1.269531,-4.111328 1.279297,-1.523437 3.427734,-1.523437 2.011719,0 3.183596,1.328125 1.17187,1.318359 1.17187,3.486328 v 1.025391 h -7.373044 q 0.04883,1.884766 0.947266,2.861326 0.908203,0.97656 2.548828,0.97656 1.728515,0 3.41797,-0.72265 v 1.44531 q -0.85938,0.37109 -1.630861,0.52734 -0.761719,0.16602 -1.845703,0.16602 z m -0.439453,-9.736328 q -1.289063,0 -2.060547,0.839843 -0.761719,0.839844 -0.898437,2.324219 h 5.595703 q 0,-1.533203 -0.683594,-2.34375 -0.683594,-0.820312 -1.953125,-0.820312 z"
       style="font-style:normal;font-variant:normal;font-weight:normal;font-stretch:normal;font-size:20px;font-family:'Open Sans';-inkscape-font-specification:'Open Sans'"
       id="path869" />
    <path
       d="m 107.85247,103.09842 q 0.42969,0 0.83008,-0.0586 0.40039,-0.0684 0.63476,-0.13672 v 1.24023 q -0.26367,0.12695 -0.78125,0.20508 -0.50781,0.0879 -0.91796,0.0879 -3.10547,0 -3.10547,-3.27148 v -6.367192 h -1.53321 v -0.78125 l 1.53321,-0.673828 0.68359,-2.285156 h 0.9375 v 2.480468 h 3.10547 v 1.259766 h -3.10547 v 6.298832 q 0,0.96679 0.45898,1.48437 0.45899,0.51758 1.25977,0.51758 z"
       style="font-style:normal;font-variant:normal;font-weight:normal;font-stretch:normal;font-size:20px;font-family:'Open Sans';-inkscape-font-specification:'Open Sans'"
       id="path871" />
  </g>
  <g
     aria-label="(14 bytes)"
     style="font-style:normal;font-weight:normal;font-size:40px;line-height:0;font-family:sans-serif;text-align:center;letter-spacing:0px;word-spacing:0px;writing-mode:lr-tb;text-anchor:middle;fill:#000000;fill-opacity:1;stroke:none"
     id="text925-5-0">
    <path
       d="m 26.35791,125.40427 q 0,-2.58789 0.751953,-4.84375 0.761719,-2.25586 2.1875,-3.95508 h 1.582032 q -1.40625,1.88476 -2.119141,4.14062 -0.703125,2.25586 -0.703125,4.63868 0,2.34375 0.722656,4.58007 0.722656,2.23633 2.080078,4.08203 h -1.5625 q -1.435547,-1.66015 -2.1875,-3.87695 -0.751953,-2.2168 -0.751953,-4.76562 z"
       style="font-style:normal;font-variant:normal;font-weight:normal;font-stretch:normal;font-size:20px;font-family:'Open Sans';-inkscape-font-specification:'Open Sans'"
       id="path874" />
    <path
       d="M 38.477051,130.88278 H 36.89502 V 120.707 q 0,-1.26953 0.07813,-2.40234 -0.205079,0.20508 -0.458985,0.42968 -0.253906,0.22461 -2.324219,1.9043 l -0.859375,-1.11328 3.779297,-2.91992 h 1.367188 z"
       style="font-style:normal;font-variant:normal;font-weight:normal;font-stretch:normal;font-size:20px;font-family:'Open Sans';-inkscape-font-specification:'Open Sans'"
       id="path876" />
    <path
       d="m 53.975098,127.60153 h -2.119141 v 3.28125 h -1.552734 v -3.28125 h -6.94336 v -1.41601 l 6.777344,-9.65821 h 1.71875 v 9.59961 h 2.119141 z m -3.671875,-1.47461 v -4.74609 q 0,-1.39649 0.09766,-3.1543 h -0.07813 q -0.46875,0.9375 -0.878906,1.55274 l -4.462891,6.34765 z"
       style="font-style:normal;font-variant:normal;font-weight:normal;font-stretch:normal;font-size:20px;font-family:'Open Sans';-inkscape-font-specification:'Open Sans'"
       id="path878" />
    <path
       d="m 66.279785,120.00388 q 2.109375,0 3.271485,1.44531 1.171875,1.43555 1.171875,4.07226 0,2.63672 -1.181641,4.10157 -1.171875,1.45507 -3.261719,1.45507 -1.044922,0 -1.914062,-0.38085 -0.859375,-0.39063 -1.445313,-1.19141 h -0.117187 l -0.341797,1.37695 h -1.16211 v -15.19531 h 1.621094 v 3.69141 q 0,1.24023 -0.07813,2.22656 h 0.07813 q 1.132813,-1.60156 3.359375,-1.60156 z m -0.234375,1.35742 q -1.660156,0 -2.392578,0.95703 -0.732422,0.94726 -0.732422,3.20312 0,2.25586 0.751953,3.23243 0.751953,0.96679 2.41211,0.96679 1.49414,0 2.226562,-1.08398 0.732422,-1.09375 0.732422,-3.13477 0,-2.08984 -0.732422,-3.11523 -0.732422,-1.02539 -2.265625,-1.02539 z"
       style="font-style:normal;font-variant:normal;font-weight:normal;font-stretch:normal;font-size:20px;font-family:'Open Sans';-inkscape-font-specification:'Open Sans'"
       id="path880" />
    <path
       d="m 71.865723,120.17966 h 1.738281 l 2.34375,6.10351 q 0.771484,2.08985 0.957031,3.01758 h 0.07813 q 0.126953,-0.49805 0.527344,-1.69922 0.410156,-1.21094 2.65625,-7.42187 h 1.738281 l -4.599609,12.1875 q -0.683594,1.80664 -1.601563,2.55859 -0.908203,0.76172 -2.236328,0.76172 -0.742187,0 -1.464844,-0.16602 v -1.29882 q 0.53711,0.11718 1.201172,0.11718 1.669922,0 2.382813,-1.875 l 0.595703,-1.52343 z"
       style="font-style:normal;font-variant:normal;font-weight:normal;font-stretch:normal;font-size:20px;font-family:'Open Sans';-inkscape-font-specification:'Open Sans'"
       id="path882" />
    <path
       d="m 87.100098,129.7402 q 0.429687,0 0.830078,-0.0586 0.40039,-0.0684 0.634765,-0.13672 v 1.24024 q -0.263671,0.12695 -0.78125,0.20507 -0.507812,0.0879 -0.917968,0.0879 -3.105469,0 -3.105469,-3.27148 v -6.36719 h -1.533203 v -0.78125 l 1.533203,-0.67383 0.683594,-2.28515 h 0.9375 v 2.48047 h 3.105468 v 1.25976 h -3.105468 v 6.29883 q 0,0.9668 0.458984,1.48438 0.458984,0.51757 1.259766,0.51757 z"
       style="font-style:normal;font-variant:normal;font-weight:normal;font-stretch:normal;font-size:20px;font-family:'Open Sans';-inkscape-font-specification:'Open Sans'"
       id="path884" />
    <path
       d="m 95.234863,131.07809 q -2.373047,0 -3.75,-1.44531 -1.367187,-1.44531 -1.367187,-4.01367 0,-2.58789 1.269531,-4.11133 1.279297,-1.52344 3.427734,-1.52344 2.011719,0 3.183594,1.32813 1.171875,1.31836 1.171875,3.48633 v 1.02539 h -7.373047 q 0.04883,1.88476 0.947266,2.86133 0.908203,0.97656 2.548828,0.97656 1.728516,0 3.417969,-0.72266 v 1.44532 q -0.859375,0.37109 -1.63086,0.52734 -0.761718,0.16601 -1.845703,0.16601 z m -0.439453,-9.73632 q -1.289062,0 -2.060547,0.83984 -0.761718,0.83984 -0.898437,2.32422 h 5.595703 q 0,-1.5332 -0.683594,-2.34375 -0.683594,-0.82031 -1.953125,-0.82031 z"
       style="font-style:normal;font-variant:normal;font-weight:normal;font-stretch:normal;font-size:20px;font-family:'Open Sans';-inkscape-font-specification:'Open Sans'"
       id="path886" />
    <path
       d="m 108.82861,127.96286 q 0,1.49414 -1.11328,2.30469 -1.11328,0.81054 -3.125,0.81054 -2.1289,0 -3.32031,-0.67382 v -1.50391 q 0.77148,0.39063 1.65039,0.61523 0.88867,0.22461 1.70898,0.22461 1.26954,0 1.95313,-0.40039 0.68359,-0.41015 0.68359,-1.24023 0,-0.625 -0.54687,-1.06445 -0.53711,-0.44922 -2.10938,-1.05469 -1.49414,-0.55664 -2.1289,-0.9668 -0.625,-0.41992 -0.9375,-0.94726 -0.30274,-0.52735 -0.30274,-1.25977 0,-1.30859 1.06446,-2.06055 1.06445,-0.76172 2.91992,-0.76172 1.72851,0 3.3789,0.70313 l -0.57617,1.31836 q -1.61133,-0.66406 -2.91992,-0.66406 -1.15234,0 -1.73828,0.36132 -0.58594,0.36133 -0.58594,0.9961 0,0.42969 0.21485,0.73242 0.2246,0.30273 0.71289,0.57617 0.48828,0.27344 1.875,0.79102 1.90429,0.69336 2.56836,1.39648 0.67382,0.70313 0.67382,1.76758 z"
       style="font-style:normal;font-variant:normal;font-weight:normal;font-stretch:normal;font-size:20px;font-family:'Open Sans';-inkscape-font-specification:'Open Sans'"
       id="path888" />
    <path
       d="m 114.854,125.40427 q 0,2.56836 -0.76171,4.78515 -0.75196,2.2168 -2.17774,3.85742 h -1.5625 q 1.35742,-1.83593 2.08008,-4.07226 0.72266,-2.24609 0.72266,-4.58984 0,-2.38282 -0.7129,-4.63868 -0.70312,-2.25586 -2.10937,-4.14062 h 1.58203 q 1.43555,1.70898 2.1875,3.97461 0.75195,2.25586 0.75195,4.82422 z"
       style="font-style:normal;font-variant:normal;font-weight:normal;font-stretch:normal;font-size:20px;font-family:'Open Sans';-inkscape-font-specification:'Open Sans'"
       id="path890" />
  </g>
  <g
     aria-label="Cabeçalho IP"
     style="font-style:normal;font-weight:normal;font-size:40px;line-height:0;font-family:sans-serif;text-align:center;letter-spacing:0px;word-spacing:0px;writing-mode:lr-tb;text-anchor:middle;fill:#000000;fill-opacity:1;stroke:none"
     id="text925-4">
    <path
       d="m 131.68388,79.848763 q -2.35351,0 -3.7207,1.572265 -1.35742,1.5625 -1.35742,4.28711 0,2.802734 1.30859,4.335937 1.31836,1.523438 3.75,1.523438 1.49414,0 3.40821,-0.53711 v 1.455078 q -1.48438,0.556641 -3.66211,0.556641 -3.1543,0 -4.87305,-1.914063 -1.70899,-1.914062 -1.70899,-5.439453 0,-2.207031 0.82032,-3.867187 0.83008,-1.660156 2.38281,-2.558594 1.5625,-0.898437 3.67187,-0.898437 2.2461,0 3.92579,0.820312 l -0.70313,1.425781 q -1.62109,-0.761718 -3.24219,-0.761718 z"
       style="font-style:normal;font-variant:normal;font-weight:normal;font-stretch:normal;font-size:20px;font-family:'Open Sans';-inkscape-font-specification:'Open Sans'"
       id="path893" />
    <path
       d="m 144.52568,92.846809 -0.32227,-1.523437 h -0.0781 q -0.80078,1.005859 -1.60156,1.367187 -0.79102,0.351563 -1.98242,0.351563 -1.5918,0 -2.5,-0.820313 -0.89844,-0.820312 -0.89844,-2.333984 0,-3.242187 5.18554,-3.398437 l 1.81641,-0.05859 v -0.664063 q 0,-1.259765 -0.54687,-1.855468 -0.53711,-0.605469 -1.72852,-0.605469 -1.33789,0 -3.02734,0.820312 l -0.49805,-1.240234 q 0.79102,-0.429688 1.72852,-0.673828 0.94726,-0.244141 1.89453,-0.244141 1.91406,0 2.83203,0.84961 0.92773,0.849609 0.92773,2.724609 v 7.304687 z m -3.66211,-1.142578 q 1.51367,0 2.37305,-0.830078 0.86914,-0.830078 0.86914,-2.324219 v -0.966796 l -1.6211,0.06836 q -1.93359,0.06836 -2.79296,0.605469 -0.84961,0.527343 -0.84961,1.65039 0,0.878907 0.52734,1.337891 0.53711,0.458984 1.49414,0.458984 z"
       style="font-style:normal;font-variant:normal;font-weight:normal;font-stretch:normal;font-size:20px;font-family:'Open Sans';-inkscape-font-specification:'Open Sans'"
       id="path895" />
    <path
       d="m 154.05693,81.967903 q 2.10938,0 3.27148,1.445313 1.17188,1.435547 1.17188,4.072265 0,2.636719 -1.18164,4.101563 -1.17188,1.455078 -3.26172,1.455078 -1.04492,0 -1.91406,-0.380859 -0.85938,-0.390625 -1.44531,-1.191407 h -0.11719 l -0.3418,1.376953 h -1.16211 V 77.651497 h 1.6211 v 3.691406 q 0,1.240235 -0.0781,2.226563 h 0.0781 q 1.13281,-1.601563 3.35937,-1.601563 z m -0.23437,1.357422 q -1.66016,0 -2.39258,0.957031 -0.73242,0.947266 -0.73242,3.203125 0,2.25586 0.75195,3.232422 0.75195,0.966797 2.41211,0.966797 1.49414,0 2.22656,-1.083984 0.73242,-1.09375 0.73242,-3.134766 0,-2.089844 -0.73242,-3.115234 -0.73242,-1.025391 -2.26562,-1.025391 z"
       style="font-style:normal;font-variant:normal;font-weight:normal;font-stretch:normal;font-size:20px;font-family:'Open Sans';-inkscape-font-specification:'Open Sans'"
       id="path897" />
    <path
       d="m 165.86357,93.042122 q -2.37305,0 -3.75,-1.445313 -1.36719,-1.445312 -1.36719,-4.013671 0,-2.587891 1.26953,-4.111329 1.2793,-1.523437 3.42774,-1.523437 2.01172,0 3.18359,1.328125 1.17188,1.318359 1.17188,3.486328 v 1.025391 h -7.37305 q 0.0488,1.884765 0.94727,2.861328 0.9082,0.976562 2.54882,0.976562 1.72852,0 3.41797,-0.722656 v 1.445313 q -0.85937,0.371093 -1.63086,0.527343 -0.76171,0.166016 -1.8457,0.166016 z m -0.43945,-9.736328 q -1.28906,0 -2.06055,0.839844 -0.76172,0.839843 -0.89844,2.324218 h 5.59571 q 0,-1.533203 -0.6836,-2.34375 -0.68359,-0.820312 -1.95312,-0.820312 z"
       style="font-style:normal;font-variant:normal;font-weight:normal;font-stretch:normal;font-size:20px;font-family:'Open Sans';-inkscape-font-specification:'Open Sans'"
       id="path899" />
    <path
       d="m 176.83037,93.042122 q -2.32422,0 -3.60352,-1.425781 -1.26953,-1.435547 -1.26953,-4.052735 0,-2.685547 1.28906,-4.15039 1.29883,-1.464844 3.69141,-1.464844 0.77148,0 1.54297,0.166016 0.77148,0.166015 1.21094,0.390625 l -0.49805,1.376953 q -0.53711,-0.214844 -1.17188,-0.351563 -0.63476,-0.146484 -1.12304,-0.146484 -3.26172,0 -3.26172,4.160156 0,1.972656 0.79101,3.027344 0.80079,1.054687 2.36329,1.054687 1.33789,0 2.74414,-0.576172 v 1.435547 q -1.07422,0.556641 -2.70508,0.556641 z m 1.44531,2.626953 q 0,0.947266 -0.75195,1.464844 -0.74219,0.517578 -2.20703,0.517578 -0.49805,0 -0.9375,-0.08789 V 96.52845 q 0.43945,0.07813 1.01562,0.07813 0.77149,0 1.16211,-0.195312 0.40039,-0.195313 0.40039,-0.722657 0,-0.419922 -0.39062,-0.683593 -0.38086,-0.253907 -1.44532,-0.419922 l 0.85938,-1.738282 h 1.07422 l -0.53711,1.123047 q 1.75781,0.38086 1.75781,1.699219 z"
       style="font-style:normal;font-variant:normal;font-weight:normal;font-stretch:normal;font-size:20px;font-family:'Open Sans';-inkscape-font-specification:'Open Sans'"
       id="path901" />
    <path
       d="m 188.66631,92.846809 -0.32227,-1.523437 h -0.0781 q -0.80078,1.005859 -1.60156,1.367187 -0.79101,0.351563 -1.98242,0.351563 -1.5918,0 -2.5,-0.820313 -0.89844,-0.820312 -0.89844,-2.333984 0,-3.242187 5.18555,-3.398437 l 1.81641,-0.05859 v -0.664063 q 0,-1.259765 -0.54688,-1.855468 -0.53711,-0.605469 -1.72851,-0.605469 -1.3379,0 -3.02735,0.820312 l -0.49805,-1.240234 q 0.79102,-0.429688 1.72852,-0.673828 0.94727,-0.244141 1.89453,-0.244141 1.91406,0 2.83203,0.84961 0.92774,0.849609 0.92774,2.724609 v 7.304687 z m -3.66211,-1.142578 q 1.51367,0 2.37304,-0.830078 0.86914,-0.830078 0.86914,-2.324219 v -0.966796 l -1.62109,0.06836 q -1.93359,0.06836 -2.79297,0.605469 -0.84961,0.527343 -0.84961,1.65039 0,0.878907 0.52735,1.337891 0.5371,0.458984 1.49414,0.458984 z"
       style="font-style:normal;font-variant:normal;font-weight:normal;font-stretch:normal;font-size:20px;font-family:'Open Sans';-inkscape-font-specification:'Open Sans'"
       id="path903" />
    <path
       d="m 194.83818,92.846809 h -1.62109 V 77.651497 h 1.62109 z"
       style="font-style:normal;font-variant:normal;font-weight:normal;font-stretch:normal;font-size:20px;font-family:'Open Sans';-inkscape-font-specification:'Open Sans'"
       id="path905" />
    <path
       d="m 205.61943,92.846809 v -6.923828 q 0,-1.308593 -0.5957,-1.953125 -0.59571,-0.644531 -1.86524,-0.644531 -1.68945,0 -2.4707,0.917969 -0.77148,0.917969 -0.77148,3.007812 v 5.595703 h -1.6211 V 77.651497 h 1.6211 v 4.599609 q 0,0.830078 -0.0781,1.376953 h 0.0977 q 0.47851,-0.771484 1.35742,-1.210937 0.88867,-0.449219 2.02148,-0.449219 1.96289,0 2.93946,0.9375 0.98632,0.927735 0.98632,2.958985 v 6.982421 z"
       style="font-style:normal;font-variant:normal;font-weight:normal;font-stretch:normal;font-size:20px;font-family:'Open Sans';-inkscape-font-specification:'Open Sans'"
       id="path907" />
    <path
       d="m 219.79912,87.485481 q 0,2.617188 -1.31836,4.091797 -1.31836,1.464844 -3.64258,1.464844 -1.43555,0 -2.54883,-0.673828 -1.11328,-0.673828 -1.71875,-1.933594 -0.60547,-1.259766 -0.60547,-2.949219 0,-2.617187 1.3086,-4.072265 1.30859,-1.464844 3.63281,-1.464844 2.24609,0 3.56445,1.494141 1.32813,1.49414 1.32813,4.042968 z m -8.1543,0 q 0,2.050782 0.82031,3.125 0.82032,1.074219 2.41211,1.074219 1.5918,0 2.41211,-1.064453 0.83008,-1.074219 0.83008,-3.134766 0,-2.041015 -0.83008,-3.095703 -0.82031,-1.064453 -2.43164,-1.064453 -1.5918,0 -2.40234,1.044922 -0.81055,1.044922 -0.81055,3.115234 z"
       style="font-style:normal;font-variant:normal;font-weight:normal;font-stretch:normal;font-size:20px;font-family:'Open Sans';-inkscape-font-specification:'Open Sans'"
       id="path909" />
    <path
       d="M 228.0706,92.846809 V 78.569466 h 1.66016 v 14.277343 z"
       style="font-style:normal;font-variant:normal;font-weight:normal;font-stretch:normal;font-size:20px;font-family:'Open Sans';-inkscape-font-specification:'Open Sans'"
       id="path911" />
    <path
       d="m 242.70927,82.729622 q 0,2.167969 -1.48437,3.339844 -1.47461,1.162109 -4.22852,1.162109 h -1.67968 v 5.615234 h -1.66016 V 78.569466 h 3.70117 q 5.35156,0 5.35156,4.160156 z m -7.39257,3.076172 h 1.49414 q 2.20703,0 3.19336,-0.712891 0.98632,-0.71289 0.98632,-2.285156 0,-1.416016 -0.92773,-2.109375 -0.92773,-0.693359 -2.89063,-0.693359 h -1.85546 z"
       style="font-style:normal;font-variant:normal;font-weight:normal;font-stretch:normal;font-size:20px;font-family:'Open Sans';-inkscape-font-specification:'Open Sans'"
       id="path913" />
  </g>
  <g
     aria-label="(20 bytes)"
     style="font-style:normal;font-weight:normal;font-size:40px;line-height:0;font-family:sans-serif;text-align:center;letter-spacing:0px;word-spacing:0px;writing-mode:lr-tb;text-anchor:middle;fill:#000000;fill-opacity:1;stroke:none"
     id="text925-4-3">
    <path
       d="m 142.06712,112.17313 q 0,-2.58789 0.75196,-4.84375 0.76172,-2.25586 2.1875,-3.95508 h 1.58203 q -1.40625,1.88476 -2.11914,4.14062 -0.70313,2.25586 -0.70313,4.63867 0,2.34375 0.72266,4.58008 0.72265,2.23633 2.08008,4.08203 h -1.5625 q -1.43555,-1.66015 -2.1875,-3.87695 -0.75196,-2.2168 -0.75196,-4.76562 z"
       style="font-style:normal;font-variant:normal;font-weight:normal;font-stretch:normal;font-size:20px;font-family:'Open Sans';-inkscape-font-specification:'Open Sans'"
       id="path916" />
    <path
       d="m 157.56517,117.65164 h -9.38477 v -1.39648 l 3.75977,-3.7793 q 1.71875,-1.73828 2.26563,-2.48047 0.54687,-0.74219 0.82031,-1.44531 0.27344,-0.70313 0.27344,-1.51367 0,-1.14258 -0.69336,-1.80664 -0.69336,-0.67383 -1.92383,-0.67383 -0.88867,0 -1.68946,0.29297 -0.79101,0.29297 -1.76757,1.06445 l -0.85938,-1.10352 q 1.97266,-1.64062 4.29688,-1.64062 2.01172,0 3.15429,1.03516 1.14258,1.02539 1.14258,2.76367 0,1.35742 -0.76172,2.68554 -0.76172,1.32813 -2.85156,3.35938 l -3.125,3.05664 v 0.0781 h 7.34375 z"
       style="font-style:normal;font-variant:normal;font-weight:normal;font-stretch:normal;font-size:20px;font-family:'Open Sans';-inkscape-font-specification:'Open Sans'"
       id="path918" />
    <path
       d="m 169.08861,110.49344 q 0,3.70117 -1.17188,5.52734 -1.16211,1.82617 -3.56445,1.82617 -2.30469,0 -3.50586,-1.86523 -1.20117,-1.875 -1.20117,-5.48828 0,-3.73047 1.16211,-5.53711 1.16211,-1.80664 3.54492,-1.80664 2.32422,0 3.52539,1.88476 1.21094,1.88477 1.21094,5.45899 z m -7.80274,0 q 0,3.11523 0.73243,4.54101 0.73242,1.41602 2.33398,1.41602 1.62109,0 2.34375,-1.43555 0.73242,-1.44531 0.73242,-4.52148 0,-3.07617 -0.73242,-4.50195 -0.72266,-1.43555 -2.34375,-1.43555 -1.60156,0 -2.33398,1.41601 -0.73243,1.40625 -0.73243,4.52149 z"
       style="font-style:normal;font-variant:normal;font-weight:normal;font-stretch:normal;font-size:20px;font-family:'Open Sans';-inkscape-font-specification:'Open Sans'"
       id="path920" />
    <path
       d="m 181.989,106.77274 q 2.10937,0 3.27148,1.44531 1.17188,1.43554 1.17188,4.07226 0,2.63672 -1.18164,4.10157 -1.17188,1.45507 -3.26172,1.45507 -1.04492,0 -1.91406,-0.38086 -0.85938,-0.39062 -1.44532,-1.1914 h -0.11718 l -0.3418,1.37695 h -1.16211 v -15.19531 h 1.62109 v 3.69141 q 0,1.24023 -0.0781,2.22656 h 0.0781 q 1.13282,-1.60156 3.35938,-1.60156 z m -0.23438,1.35742 q -1.66015,0 -2.39257,0.95703 -0.73243,0.94726 -0.73243,3.20312 0,2.25586 0.75196,3.23243 0.75195,0.96679 2.41211,0.96679 1.49414,0 2.22656,-1.08398 0.73242,-1.09375 0.73242,-3.13477 0,-2.08984 -0.73242,-3.11523 -0.73242,-1.02539 -2.26563,-1.02539 z"
       style="font-style:normal;font-variant:normal;font-weight:normal;font-stretch:normal;font-size:20px;font-family:'Open Sans';-inkscape-font-specification:'Open Sans'"
       id="path922" />
    <path
       d="m 187.57494,106.94852 h 1.73828 l 2.34375,6.10351 q 0.77148,2.08985 0.95703,3.01758 h 0.0781 q 0.12696,-0.49805 0.52735,-1.69922 0.41015,-1.21094 2.65625,-7.42187 h 1.73828 l -4.59961,12.1875 q -0.68359,1.80664 -1.60156,2.55859 -0.90821,0.76172 -2.23633,0.76172 -0.74219,0 -1.46485,-0.16602 v -1.29882 q 0.53711,0.11718 1.20118,0.11718 1.66992,0 2.38281,-1.875 l 0.5957,-1.52343 z"
       style="font-style:normal;font-variant:normal;font-weight:normal;font-stretch:normal;font-size:20px;font-family:'Open Sans';-inkscape-font-specification:'Open Sans'"
       id="path924" />
    <path
       d="m 202.80931,116.50906 q 0.42969,0 0.83008,-0.0586 0.40039,-0.0684 0.63476,-0.13672 v 1.24024 q -0.26367,0.12695 -0.78125,0.20507 -0.50781,0.0879 -0.91796,0.0879 -3.10547,0 -3.10547,-3.27148 v -6.36719 h -1.53321 v -0.78125 l 1.53321,-0.67383 0.68359,-2.28515 h 0.9375 v 2.48047 h 3.10547 v 1.25976 h -3.10547 v 6.29883 q 0,0.9668 0.45899,1.48438 0.45898,0.51757 1.25976,0.51757 z"
       style="font-style:normal;font-variant:normal;font-weight:normal;font-stretch:normal;font-size:20px;font-family:'Open Sans';-inkscape-font-specification:'Open Sans'"
       id="path926" />
    <path
       d="m 210.94408,117.84695 q -2.37305,0 -3.75,-1.44531 -1.36719,-1.44531 -1.36719,-4.01367 0,-2.58789 1.26953,-4.11133 1.2793,-1.52344 3.42773,-1.52344 2.01172,0 3.1836,1.32813 1.17187,1.31836 1.17187,3.48633 v 1.02539 h -7.37304 q 0.0488,1.88476 0.94726,2.86133 0.90821,0.97656 2.54883,0.97656 1.72852,0 3.41797,-0.72266 v 1.44531 q -0.85938,0.3711 -1.63086,0.52735 -0.76172,0.16601 -1.8457,0.16601 z m -0.43946,-9.73632 q -1.28906,0 -2.06054,0.83984 -0.76172,0.83984 -0.89844,2.32422 h 5.5957 q 0,-1.5332 -0.68359,-2.34375 -0.6836,-0.82031 -1.95313,-0.82031 z"
       style="font-style:normal;font-variant:normal;font-weight:normal;font-stretch:normal;font-size:20px;font-family:'Open Sans';-inkscape-font-specification:'Open Sans'"
       id="path928" />
    <path
       d="m 224.53783,114.73172 q 0,1.49414 -1.11328,2.30469 -1.11329,0.81054 -3.125,0.81054 -2.12891,0 -3.32032,-0.67382 v -1.50391 q 0.77149,0.39062 1.65039,0.61523 0.88868,0.22461 1.70899,0.22461 1.26953,0 1.95312,-0.40039 0.6836,-0.41015 0.6836,-1.24023 0,-0.625 -0.54688,-1.06445 -0.53711,-0.44922 -2.10937,-1.05469 -1.49414,-0.55664 -2.12891,-0.9668 -0.625,-0.41992 -0.9375,-0.94726 -0.30273,-0.52735 -0.30273,-1.25977 0,-1.30859 1.06445,-2.06055 1.06445,-0.76172 2.91992,-0.76172 1.72852,0 3.37891,0.70313 l -0.57617,1.31836 q -1.61133,-0.66406 -2.91993,-0.66406 -1.15234,0 -1.73828,0.36132 -0.58594,0.36133 -0.58594,0.9961 0,0.42969 0.21485,0.73242 0.22461,0.30273 0.71289,0.57617 0.48828,0.27344 1.875,0.79102 1.9043,0.69336 2.56836,1.39648 0.67383,0.70313 0.67383,1.76758 z"
       style="font-style:normal;font-variant:normal;font-weight:normal;font-stretch:normal;font-size:20px;font-family:'Open Sans';-inkscape-font-specification:'Open Sans'"
       id="path930" />
    <path
       d="m 230.56322,112.17313 q 0,2.56836 -0.76172,4.78515 -0.75195,2.2168 -2.17774,3.85742 h -1.5625 q 1.35743,-1.83593 2.08008,-4.07226 0.72266,-2.2461 0.72266,-4.58985 0,-2.38281 -0.71289,-4.63867 -0.70313,-2.25586 -2.10938,-4.14062 h 1.58203 q 1.43555,1.70898 2.1875,3.97461 0.75196,2.25586 0.75196,4.82422 z"
       style="font-style:normal;font-variant:normal;font-weight:normal;font-stretch:normal;font-size:20px;font-family:'Open Sans';-inkscape-font-specification:'Open Sans'"
       id="path932" />
  </g>
  <g
     aria-label="Cabeçalho
TCP"
     style="font-style:normal;font-weight:normal;font-size:40px;line-height:0;font-family:sans-serif;text-align:center;letter-spacing:0px;word-spacing:0px;writing-mode:lr-tb;text-anchor:middle;fill:#000000;fill-opacity:1;stroke:none"
     id="text925-4-8">
    <path
       d="m 274.78204,68.468307 q -2.35351,0 -3.7207,1.572266 -1.35742,1.5625 -1.35742,4.287109 0,2.802735 1.30859,4.335938 1.31836,1.523437 3.75,1.523437 1.49414,0 3.40821,-0.537109 v 1.455078 q -1.48438,0.556641 -3.66211,0.556641 -3.1543,0 -4.87305,-1.914063 -1.70899,-1.914062 -1.70899,-5.439453 0,-2.207031 0.82032,-3.867187 0.83008,-1.660157 2.38281,-2.558594 1.5625,-0.898438 3.67187,-0.898438 2.2461,0 3.92579,0.820313 l -0.70313,1.425781 q -1.62109,-0.761719 -3.24219,-0.761719 z"
       style="font-style:normal;font-variant:normal;font-weight:normal;font-stretch:normal;font-size:20px;line-height:1.29999995;font-family:'Open Sans';-inkscape-font-specification:'Open Sans'"
       id="path935" />
    <path
       d="m 287.62384,81.466354 -0.32227,-1.523437 h -0.0781 q -0.80078,1.005859 -1.60156,1.367187 -0.79102,0.351563 -1.98242,0.351563 -1.5918,0 -2.5,-0.820313 -0.89844,-0.820312 -0.89844,-2.333984 0,-3.242188 5.18554,-3.398438 l 1.81641,-0.05859 v -0.664063 q 0,-1.259765 -0.54687,-1.855469 -0.53711,-0.605468 -1.72852,-0.605468 -1.33789,0 -3.02734,0.820312 l -0.49805,-1.240234 q 0.79102,-0.429688 1.72852,-0.673828 0.94726,-0.244141 1.89453,-0.244141 1.91406,0 2.83203,0.849609 0.92773,0.84961 0.92773,2.72461 v 7.304687 z m -3.66211,-1.142578 q 1.51367,0 2.37305,-0.830078 0.86914,-0.830078 0.86914,-2.324219 v -0.966797 l -1.6211,0.06836 q -1.93359,0.06836 -2.79296,0.605469 -0.84961,0.527343 -0.84961,1.65039 0,0.878906 0.52734,1.337891 0.53711,0.458984 1.49414,0.458984 z"
       style="font-style:normal;font-variant:normal;font-weight:normal;font-stretch:normal;font-size:20px;line-height:1.29999995;font-family:'Open Sans';-inkscape-font-specification:'Open Sans'"
       id="path937" />
    <path
       d="m 297.15509,70.587448 q 2.10938,0 3.27148,1.445313 1.17188,1.435546 1.17188,4.072265 0,2.636719 -1.18164,4.101563 -1.17188,1.455078 -3.26172,1.455078 -1.04492,0 -1.91406,-0.38086 -0.85938,-0.390625 -1.44531,-1.191406 h -0.11719 l -0.3418,1.376953 h -1.16211 V 66.271042 h 1.6211 v 3.691406 q 0,1.240234 -0.0781,2.226563 h 0.0781 q 1.13281,-1.601563 3.35937,-1.601563 z m -0.23437,1.357422 q -1.66016,0 -2.39258,0.957031 -0.73242,0.947266 -0.73242,3.203125 0,2.25586 0.75195,3.232422 0.75195,0.966797 2.41211,0.966797 1.49414,0 2.22656,-1.083984 0.73242,-1.09375 0.73242,-3.134766 0,-2.089844 -0.73242,-3.115234 -0.73242,-1.025391 -2.26562,-1.025391 z"
       style="font-style:normal;font-variant:normal;font-weight:normal;font-stretch:normal;font-size:20px;line-height:1.29999995;font-family:'Open Sans';-inkscape-font-specification:'Open Sans'"
       id="path939" />
    <path
       d="m 308.96173,81.661667 q -2.37305,0 -3.75,-1.445313 -1.36719,-1.445312 -1.36719,-4.013672 0,-2.58789 1.26953,-4.111328 1.2793,-1.523437 3.42774,-1.523437 2.01172,0 3.18359,1.328125 1.17188,1.318359 1.17188,3.486328 v 1.025391 h -7.37305 q 0.0488,1.884765 0.94727,2.861328 0.9082,0.976562 2.54882,0.976562 1.72852,0 3.41797,-0.722656 v 1.445312 q -0.85937,0.371094 -1.63086,0.527344 -0.76171,0.166016 -1.8457,0.166016 z m -0.43945,-9.736328 q -1.28906,0 -2.06055,0.839843 -0.76172,0.839844 -0.89844,2.324219 h 5.59571 q 0,-1.533203 -0.6836,-2.34375 -0.68359,-0.820312 -1.95312,-0.820312 z"
       style="font-style:normal;font-variant:normal;font-weight:normal;font-stretch:normal;font-size:20px;line-height:1.29999995;font-family:'Open Sans';-inkscape-font-specification:'Open Sans'"
       id="path941" />
    <path
       d="m 319.92853,81.661667 q -2.32422,0 -3.60352,-1.425781 -1.26953,-1.435547 -1.26953,-4.052735 0,-2.685547 1.28906,-4.15039 1.29883,-1.464844 3.69141,-1.464844 0.77148,0 1.54297,0.166015 0.77148,0.166016 1.21094,0.390625 l -0.49805,1.376954 q -0.53711,-0.214844 -1.17188,-0.351563 -0.63476,-0.146484 -1.12304,-0.146484 -3.26172,0 -3.26172,4.160156 0,1.972656 0.79101,3.027344 0.80079,1.054687 2.36329,1.054687 1.33789,0 2.74414,-0.576172 v 1.435547 q -1.07422,0.556641 -2.70508,0.556641 z m 1.44531,2.626953 q 0,0.947266 -0.75195,1.464844 -0.74219,0.517578 -2.20703,0.517578 -0.49805,0 -0.9375,-0.08789 v -1.035156 q 0.43945,0.07813 1.01562,0.07813 0.77149,0 1.16211,-0.195313 0.40039,-0.195312 0.40039,-0.722656 0,-0.419922 -0.39062,-0.683594 -0.38086,-0.253906 -1.44532,-0.419921 l 0.85938,-1.738282 h 1.07422 l -0.53711,1.123047 q 1.75781,0.38086 1.75781,1.699219 z"
       style="font-style:normal;font-variant:normal;font-weight:normal;font-stretch:normal;font-size:20px;line-height:1.29999995;font-family:'Open Sans';-inkscape-font-specification:'Open Sans'"
       id="path943" />
    <path
       d="m 331.76447,81.466354 -0.32227,-1.523437 h -0.0781 q -0.80078,1.005859 -1.60156,1.367187 -0.79101,0.351563 -1.98242,0.351563 -1.5918,0 -2.5,-0.820313 -0.89844,-0.820312 -0.89844,-2.333984 0,-3.242188 5.18555,-3.398438 l 1.81641,-0.05859 v -0.664063 q 0,-1.259765 -0.54688,-1.855469 -0.53711,-0.605468 -1.72851,-0.605468 -1.3379,0 -3.02735,0.820312 l -0.49805,-1.240234 q 0.79102,-0.429688 1.72852,-0.673828 0.94727,-0.244141 1.89453,-0.244141 1.91406,0 2.83203,0.849609 0.92774,0.84961 0.92774,2.72461 v 7.304687 z m -3.66211,-1.142578 q 1.51367,0 2.37304,-0.830078 0.86914,-0.830078 0.86914,-2.324219 v -0.966797 l -1.62109,0.06836 q -1.93359,0.06836 -2.79297,0.605469 -0.84961,0.527343 -0.84961,1.65039 0,0.878906 0.52735,1.337891 0.5371,0.458984 1.49414,0.458984 z"
       style="font-style:normal;font-variant:normal;font-weight:normal;font-stretch:normal;font-size:20px;line-height:1.29999995;font-family:'Open Sans';-inkscape-font-specification:'Open Sans'"
       id="path945" />
    <path
       d="m 337.93634,81.466354 h -1.62109 V 66.271042 h 1.62109 z"
       style="font-style:normal;font-variant:normal;font-weight:normal;font-stretch:normal;font-size:20px;line-height:1.29999995;font-family:'Open Sans';-inkscape-font-specification:'Open Sans'"
       id="path947" />
    <path
       d="m 348.71759,81.466354 v -6.923828 q 0,-1.308594 -0.5957,-1.953125 -0.59571,-0.644531 -1.86524,-0.644531 -1.68945,0 -2.4707,0.917969 -0.77148,0.917968 -0.77148,3.007812 v 5.595703 h -1.6211 V 66.271042 h 1.6211 v 4.599609 q 0,0.830078 -0.0781,1.376953 h 0.0977 q 0.47851,-0.771484 1.35742,-1.210937 0.88867,-0.449219 2.02148,-0.449219 1.96289,0 2.93946,0.9375 0.98632,0.927734 0.98632,2.958984 v 6.982422 z"
       style="font-style:normal;font-variant:normal;font-weight:normal;font-stretch:normal;font-size:20px;line-height:1.29999995;font-family:'Open Sans';-inkscape-font-specification:'Open Sans'"
       id="path949" />
    <path
       d="m 362.89728,76.105026 q 0,2.617188 -1.31836,4.091797 -1.31836,1.464844 -3.64258,1.464844 -1.43555,0 -2.54883,-0.673828 -1.11328,-0.673828 -1.71875,-1.933594 -0.60547,-1.259766 -0.60547,-2.949219 0,-2.617187 1.3086,-4.072265 1.30859,-1.464844 3.63281,-1.464844 2.24609,0 3.56445,1.49414 1.32813,1.494141 1.32813,4.042969 z m -8.1543,0 q 0,2.050781 0.82031,3.125 0.82032,1.074219 2.41211,1.074219 1.5918,0 2.41211,-1.064453 0.83008,-1.074219 0.83008,-3.134766 0,-2.041015 -0.83008,-3.095703 -0.82031,-1.064453 -2.43164,-1.064453 -1.5918,0 -2.40234,1.044922 -0.81055,1.044922 -0.81055,3.115234 z"
       style="font-style:normal;font-variant:normal;font-weight:normal;font-stretch:normal;font-size:20px;line-height:1.29999995;font-family:'Open Sans';-inkscape-font-specification:'Open Sans'"
       id="path951" />
    <path
       d="m 303.86407,107.46635 h -1.66015 V 94.663619 h -4.52149 V 93.18901 h 10.70313 v 1.474609 h -4.52149 z"
       style="font-style:normal;font-variant:normal;font-weight:normal;font-stretch:normal;font-size:20px;line-height:1.29999995;font-family:'Open Sans';-inkscape-font-specification:'Open Sans'"
       id="path953" />
    <path
       d="m 316.63751,94.468307 q -2.35351,0 -3.7207,1.572265 -1.35742,1.5625 -1.35742,4.287108 0,2.80274 1.30859,4.33594 1.31836,1.52344 3.75,1.52344 1.49414,0 3.4082,-0.53711 v 1.45508 q -1.48437,0.55664 -3.66211,0.55664 -3.15429,0 -4.87304,-1.91407 -1.70899,-1.91406 -1.70899,-5.43945 0,-2.207031 0.82032,-3.867187 0.83007,-1.660156 2.38281,-2.558594 1.5625,-0.898437 3.67187,-0.898437 2.2461,0 3.92578,0.820312 l -0.70312,1.425781 q -1.62109,-0.761718 -3.24219,-0.761718 z"
       style="font-style:normal;font-variant:normal;font-weight:normal;font-stretch:normal;font-size:20px;line-height:1.29999995;font-family:'Open Sans';-inkscape-font-specification:'Open Sans'"
       id="path955" />
    <path
       d="m 332.19415,97.349166 q 0,2.167969 -1.48437,3.339844 -1.47461,1.16211 -4.22852,1.16211 h -1.67969 v 5.61523 h -1.66015 V 93.18901 h 3.70117 q 5.35156,0 5.35156,4.160156 z m -7.39258,3.076174 h 1.49415 q 2.20703,0 3.19335,-0.712893 0.98633,-0.71289 0.98633,-2.285156 0,-1.416016 -0.92773,-2.109375 -0.92774,-0.693359 -2.89063,-0.693359 h -1.85547 z"
       style="font-style:normal;font-variant:normal;font-weight:normal;font-stretch:normal;font-size:20px;line-height:1.29999995;font-family:'Open Sans';-inkscape-font-specification:'Open Sans'"
       id="path957" />
  </g>
  <g
     aria-label="(20 bytes)"
     style="font-style:normal;font-weight:normal;font-size:40px;line-height:0;font-family:sans-serif;text-align:center;letter-spacing:0px;word-spacing:0px;writing-mode:lr-tb;text-anchor:middle;fill:#000000;fill-opacity:1;stroke:none"
     id="text925-4-8-7">
    <path
       d="m 270.69104,125.95572 q 0,-2.58789 0.75195,-4.84375 0.76172,-2.25586 2.1875,-3.95508 h 1.58203 q -1.40625,1.88477 -2.11914,4.14063 -0.70312,2.25586 -0.70312,4.63867 0,2.34375 0.72266,4.58008 0.72265,2.23632 2.08007,4.08203 h -1.5625 q -1.43554,-1.66016 -2.1875,-3.87696 -0.75195,-2.21679 -0.75195,-4.76562 z"
       style="font-style:normal;font-variant:normal;font-weight:normal;font-stretch:normal;font-size:20px;font-family:'Open Sans';-inkscape-font-specification:'Open Sans'"
       id="path960" />
    <path
       d="m 286.18909,131.43423 h -9.38477 v -1.39648 l 3.75977,-3.7793 q 1.71875,-1.73828 2.26562,-2.48047 0.54688,-0.74218 0.82031,-1.44531 0.27344,-0.70312 0.27344,-1.51367 0,-1.14258 -0.69336,-1.80664 -0.69336,-0.67383 -1.92383,-0.67383 -0.88867,0 -1.68945,0.29297 -0.79101,0.29297 -1.76758,1.06445 l -0.85937,-1.10351 q 1.97265,-1.64063 4.29687,-1.64063 2.01172,0 3.1543,1.03516 1.14258,1.02539 1.14258,2.76367 0,1.35742 -0.76172,2.68555 -0.76172,1.32812 -2.85156,3.35937 l -3.125,3.05664 v 0.0781 h 7.34375 z"
       style="font-style:normal;font-variant:normal;font-weight:normal;font-stretch:normal;font-size:20px;font-family:'Open Sans';-inkscape-font-specification:'Open Sans'"
       id="path962" />
    <path
       d="m 297.71252,124.27603 q 0,3.70117 -1.17187,5.52735 -1.16211,1.82617 -3.56445,1.82617 -2.30469,0 -3.50586,-1.86524 -1.20117,-1.875 -1.20117,-5.48828 0,-3.73047 1.1621,-5.53711 1.16211,-1.80664 3.54493,-1.80664 2.32422,0 3.52539,1.88477 1.21093,1.88476 1.21093,5.45898 z m -7.80273,0 q 0,3.11524 0.73242,4.54102 0.73242,1.41601 2.33399,1.41601 1.62109,0 2.34375,-1.43554 0.73242,-1.44532 0.73242,-4.52149 0,-3.07617 -0.73242,-4.50195 -0.72266,-1.43555 -2.34375,-1.43555 -1.60157,0 -2.33399,1.41602 -0.73242,1.40625 -0.73242,4.52148 z"
       style="font-style:normal;font-variant:normal;font-weight:normal;font-stretch:normal;font-size:20px;font-family:'Open Sans';-inkscape-font-specification:'Open Sans'"
       id="path964" />
    <path
       d="m 310.61292,120.55533 q 2.10937,0 3.27148,1.44531 1.17187,1.43555 1.17187,4.07227 0,2.63672 -1.18164,4.10156 -1.17187,1.45508 -3.26171,1.45508 -1.04493,0 -1.91407,-0.38086 -0.85937,-0.39063 -1.44531,-1.19141 h -0.11719 l -0.34179,1.37695 h -1.16211 v -15.19531 h 1.62109 v 3.69141 q 0,1.24023 -0.0781,2.22656 h 0.0781 q 1.13281,-1.60156 3.35938,-1.60156 z m -0.23438,1.35742 q -1.66016,0 -2.39258,0.95703 -0.73242,0.94727 -0.73242,3.20313 0,2.25586 0.75195,3.23242 0.75196,0.9668 2.41211,0.9668 1.49414,0 2.22657,-1.08399 0.73242,-1.09375 0.73242,-3.13476 0,-2.08985 -0.73242,-3.11524 -0.73243,-1.02539 -2.26563,-1.02539 z"
       style="font-style:normal;font-variant:normal;font-weight:normal;font-stretch:normal;font-size:20px;font-family:'Open Sans';-inkscape-font-specification:'Open Sans'"
       id="path966" />
    <path
       d="m 316.19885,120.73111 h 1.73828 l 2.34375,6.10352 q 0.77149,2.08984 0.95704,3.01757 h 0.0781 q 0.12695,-0.49804 0.52734,-1.69922 0.41016,-1.21093 2.65625,-7.42187 h 1.73829 l -4.59961,12.1875 q -0.6836,1.80664 -1.60157,2.55859 -0.9082,0.76172 -2.23632,0.76172 -0.74219,0 -1.46485,-0.16601 v -1.29883 q 0.53711,0.11719 1.20117,0.11719 1.66993,0 2.38282,-1.875 l 0.5957,-1.52344 z"
       style="font-style:normal;font-variant:normal;font-weight:normal;font-stretch:normal;font-size:20px;font-family:'Open Sans';-inkscape-font-specification:'Open Sans'"
       id="path968" />
    <path
       d="m 331.43323,130.29166 q 0.42969,0 0.83008,-0.0586 0.40039,-0.0684 0.63476,-0.13672 v 1.24024 q -0.26367,0.12695 -0.78125,0.20508 -0.50781,0.0879 -0.91797,0.0879 -3.10547,0 -3.10547,-3.27149 v -6.36718 h -1.5332 v -0.78125 l 1.5332,-0.67383 0.6836,-2.28516 h 0.9375 v 2.48047 h 3.10547 v 1.25977 h -3.10547 v 6.29882 q 0,0.9668 0.45898,1.48438 0.45899,0.51758 1.25977,0.51758 z"
       style="font-style:normal;font-variant:normal;font-weight:normal;font-stretch:normal;font-size:20px;font-family:'Open Sans';-inkscape-font-specification:'Open Sans'"
       id="path970" />
    <path
       d="m 339.56799,131.62955 q -2.37304,0 -3.75,-1.44532 -1.36718,-1.44531 -1.36718,-4.01367 0,-2.58789 1.26953,-4.11133 1.27929,-1.52343 3.42773,-1.52343 2.01172,0 3.1836,1.32812 1.17187,1.31836 1.17187,3.48633 v 1.02539 h -7.37305 q 0.0488,1.88477 0.94727,2.86133 0.9082,0.97656 2.54883,0.97656 1.72851,0 3.41797,-0.72265 v 1.44531 q -0.85938,0.37109 -1.63086,0.52734 -0.76172,0.16602 -1.84571,0.16602 z m -0.43945,-9.73633 q -1.28906,0 -2.06055,0.83984 -0.76172,0.83985 -0.89843,2.32422 h 5.5957 q 0,-1.5332 -0.68359,-2.34375 -0.6836,-0.82031 -1.95313,-0.82031 z"
       style="font-style:normal;font-variant:normal;font-weight:normal;font-stretch:normal;font-size:20px;font-family:'Open Sans';-inkscape-font-specification:'Open Sans'"
       id="path972" />
    <path
       d="m 353.16174,128.51431 q 0,1.49414 -1.11328,2.30469 -1.11328,0.81055 -3.125,0.81055 -2.1289,0 -3.32031,-0.67383 v -1.50391 q 0.77148,0.39063 1.65039,0.61524 0.88867,0.22461 1.70898,0.22461 1.26954,0 1.95313,-0.40039 0.68359,-0.41016 0.68359,-1.24024 0,-0.625 -0.54687,-1.06445 -0.53711,-0.44922 -2.10938,-1.05469 -1.49414,-0.55664 -2.1289,-0.9668 -0.625,-0.41992 -0.9375,-0.94726 -0.30274,-0.52735 -0.30274,-1.25977 0,-1.30859 1.06446,-2.06054 1.06445,-0.76172 2.91992,-0.76172 1.72851,0 3.3789,0.70312 l -0.57617,1.31836 q -1.61133,-0.66406 -2.91992,-0.66406 -1.15234,0 -1.73828,0.36133 -0.58594,0.36133 -0.58594,0.99609 0,0.42969 0.21485,0.73242 0.2246,0.30274 0.71289,0.57617 0.48828,0.27344 1.875,0.79102 1.90429,0.69336 2.56836,1.39648 0.67382,0.70313 0.67382,1.76758 z"
       style="font-style:normal;font-variant:normal;font-weight:normal;font-stretch:normal;font-size:20px;font-family:'Open Sans';-inkscape-font-specification:'Open Sans'"
       id="path974" />
    <path
       d="m 359.18713,125.95572 q 0,2.56836 -0.76171,4.78516 -0.75196,2.21679 -2.17774,3.85742 h -1.5625 q 1.35742,-1.83594 2.08008,-4.07227 0.72266,-2.24609 0.72266,-4.58984 0,-2.38281 -0.7129,-4.63867 -0.70312,-2.25586 -2.10937,-4.14063 h 1.58203 q 1.43555,1.70899 2.1875,3.97461 0.75195,2.25586 0.75195,4.82422 z"
       style="font-style:normal;font-variant:normal;font-weight:normal;font-stretch:normal;font-size:20px;font-family:'Open Sans';-inkscape-font-specification:'Open Sans'"
       id="path976" />
  </g>
  <g
     aria-label="Dados de Uso"
     style="font-style:normal;font-weight:normal;font-size:40px;line-height:0;font-family:sans-serif;text-align:center;letter-spacing:0px;word-spacing:0px;writing-mode:lr-tb;text-anchor:middle;fill:#000000;fill-opacity:1;stroke:none"
     id="text925-4-8-0">
    <path
       d="m 528.41577,85.028473 q 0,3.535156 -1.92383,5.410156 -1.91406,1.865235 -5.51757,1.865235 h -3.95508 V 78.02652 h 4.375 q 3.33008,0 5.17578,1.845703 1.8457,1.845703 1.8457,5.15625 z m -1.75781,0.05859 q 0,-2.792969 -1.40625,-4.208985 -1.39649,-1.416015 -4.16016,-1.416015 h -2.41211 v 11.40625 h 2.02149 q 2.96875,0 4.46289,-1.455078 1.49414,-1.464844 1.49414,-4.326172 z"
       style="font-style:normal;font-variant:normal;font-weight:normal;font-stretch:normal;font-size:20px;font-family:'Open Sans';-inkscape-font-specification:'Open Sans'"
       id="path979" />
    <path
       d="m 537.92749,92.303864 -0.32227,-1.523438 h -0.0781 q -0.80078,1.005859 -1.60156,1.367188 -0.79102,0.351562 -1.98242,0.351562 -1.5918,0 -2.5,-0.820312 -0.89844,-0.820313 -0.89844,-2.333985 0,-3.242187 5.18554,-3.398437 l 1.81641,-0.05859 v -0.664063 q 0,-1.259765 -0.54687,-1.855468 -0.53711,-0.605469 -1.72852,-0.605469 -1.33789,0 -3.02734,0.820312 l -0.49805,-1.240234 q 0.79102,-0.429687 1.72852,-0.673828 0.94726,-0.244141 1.89453,-0.244141 1.91406,0 2.83203,0.84961 0.92773,0.849609 0.92773,2.724609 v 7.304688 z m -3.66211,-1.142579 q 1.51367,0 2.37305,-0.830078 0.86914,-0.830078 0.86914,-2.324218 v -0.966797 l -1.6211,0.06836 q -1.93359,0.06836 -2.79296,0.605469 -0.84961,0.527344 -0.84961,1.65039 0,0.878907 0.52734,1.337891 0.53711,0.458984 1.49414,0.458984 z"
       style="font-style:normal;font-variant:normal;font-weight:normal;font-stretch:normal;font-size:20px;font-family:'Open Sans';-inkscape-font-specification:'Open Sans'"
       id="path981" />
    <path
       d="m 549.76343,90.868317 h -0.0879 q -1.12305,1.630859 -3.35938,1.630859 -2.09961,0 -3.27148,-1.435547 -1.16211,-1.435547 -1.16211,-4.082031 0,-2.646484 1.17187,-4.111328 1.17188,-1.464844 3.26172,-1.464844 2.17774,0 3.33985,1.582031 h 0.12695 l -0.0684,-0.771484 -0.0391,-0.751953 v -4.355469 h 1.62109 v 15.195313 h -1.31836 z m -3.24219,0.273437 q 1.66016,0 2.40234,-0.898437 0.75196,-0.908203 0.75196,-2.919922 v -0.341797 q 0,-2.275391 -0.76172,-3.242188 -0.75195,-0.976562 -2.41211,-0.976562 -1.42578,0 -2.1875,1.113281 -0.75195,1.103516 -0.75195,3.125 0,2.050781 0.75195,3.095703 0.75195,1.044922 2.20703,1.044922 z"
       style="font-style:normal;font-variant:normal;font-weight:normal;font-stretch:normal;font-size:20px;font-family:'Open Sans';-inkscape-font-specification:'Open Sans'"
       id="path983" />
    <path
       d="m 563.98218,86.942535 q 0,2.617188 -1.31836,4.091797 -1.31836,1.464844 -3.64258,1.464844 -1.43555,0 -2.54883,-0.673828 -1.11328,-0.673828 -1.71875,-1.933594 -0.60547,-1.259765 -0.60547,-2.949219 0,-2.617187 1.3086,-4.072265 1.30859,-1.464844 3.63281,-1.464844 2.24609,0 3.56445,1.494141 1.32813,1.49414 1.32813,4.042968 z m -8.1543,0 q 0,2.050782 0.82031,3.125 0.82032,1.074219 2.41211,1.074219 1.5918,0 2.41211,-1.064453 0.83008,-1.074219 0.83008,-3.134766 0,-2.041015 -0.83008,-3.095703 -0.82031,-1.064453 -2.43164,-1.064453 -1.5918,0 -2.40234,1.044922 -0.81055,1.044922 -0.81055,3.115234 z"
       style="font-style:normal;font-variant:normal;font-weight:normal;font-stretch:normal;font-size:20px;font-family:'Open Sans';-inkscape-font-specification:'Open Sans'"
       id="path985" />
    <path
       d="m 573.71851,89.383942 q 0,1.49414 -1.11329,2.304687 -1.11328,0.810547 -3.125,0.810547 -2.1289,0 -3.32031,-0.673828 v -1.503906 q 0.77149,0.390625 1.65039,0.615234 0.88867,0.224609 1.70899,0.224609 1.26953,0 1.95312,-0.40039 0.6836,-0.410156 0.6836,-1.240235 0,-0.625 -0.54688,-1.064453 -0.53711,-0.449218 -2.10937,-1.054687 -1.49414,-0.556641 -2.12891,-0.966797 -0.625,-0.419922 -0.9375,-0.947266 -0.30273,-0.527343 -0.30273,-1.259765 0,-1.308594 1.06445,-2.060547 1.06445,-0.761719 2.91992,-0.761719 1.72852,0 3.37891,0.703125 l -0.57618,1.318359 q -1.61132,-0.664062 -2.91992,-0.664062 -1.15234,0 -1.73828,0.361328 -0.58594,0.361328 -0.58594,0.996094 0,0.429687 0.21485,0.732422 0.22461,0.302734 0.71289,0.576172 0.48828,0.273437 1.875,0.791015 1.9043,0.69336 2.56836,1.396485 0.67383,0.703125 0.67383,1.767578 z"
       style="font-style:normal;font-variant:normal;font-weight:normal;font-stretch:normal;font-size:20px;font-family:'Open Sans';-inkscape-font-specification:'Open Sans'"
       id="path987" />
    <path
       d="m 588.82593,90.868317 h -0.0879 q -1.12305,1.630859 -3.35938,1.630859 -2.09961,0 -3.27148,-1.435547 -1.16211,-1.435547 -1.16211,-4.082031 0,-2.646484 1.17187,-4.111328 1.17188,-1.464844 3.26172,-1.464844 2.17774,0 3.33985,1.582031 h 0.12695 l -0.0684,-0.771484 -0.0391,-0.751953 v -4.355469 h 1.62109 v 15.195313 h -1.31836 z m -3.24219,0.273437 q 1.66016,0 2.40234,-0.898437 0.75196,-0.908203 0.75196,-2.919922 v -0.341797 q 0,-2.275391 -0.76172,-3.242188 -0.75195,-0.976562 -2.41211,-0.976562 -1.42578,0 -2.1875,1.113281 -0.75195,1.103516 -0.75195,3.125 0,2.050781 0.75195,3.095703 0.75195,1.044922 2.20703,1.044922 z"
       style="font-style:normal;font-variant:normal;font-weight:normal;font-stretch:normal;font-size:20px;font-family:'Open Sans';-inkscape-font-specification:'Open Sans'"
       id="path989" />
    <path
       d="m 598.32788,92.499176 q -2.37305,0 -3.75,-1.445312 -1.36719,-1.445313 -1.36719,-4.013672 0,-2.587891 1.26953,-4.111328 1.2793,-1.523438 3.42774,-1.523438 2.01172,0 3.18359,1.328125 1.17188,1.318359 1.17188,3.486328 v 1.025391 h -7.37305 q 0.0488,1.884765 0.94727,2.861328 0.9082,0.976562 2.54882,0.976562 1.72852,0 3.41797,-0.722656 v 1.445313 q -0.85937,0.371093 -1.63086,0.527343 -0.76171,0.166016 -1.8457,0.166016 z m -0.43945,-9.736328 q -1.28906,0 -2.06055,0.839844 -0.76172,0.839843 -0.89844,2.324218 h 5.59571 q 0,-1.533203 -0.6836,-2.34375 -0.68359,-0.820312 -1.95312,-0.820312 z"
       style="font-style:normal;font-variant:normal;font-weight:normal;font-stretch:normal;font-size:20px;font-family:'Open Sans';-inkscape-font-specification:'Open Sans'"
       id="path991" />
    <path
       d="m 621.23804,78.02652 v 9.238281 q 0,2.441406 -1.47461,3.837891 -1.47461,1.396484 -4.05274,1.396484 -2.57812,0 -3.99414,-1.40625 -1.40625,-1.40625 -1.40625,-3.867187 V 78.02652 h 1.66016 v 9.316406 q 0,1.787109 0.97656,2.744141 0.97656,0.957031 2.8711,0.957031 1.80664,0 2.7832,-0.957031 0.97656,-0.966797 0.97656,-2.763672 V 78.02652 Z"
       style="font-style:normal;font-variant:normal;font-weight:normal;font-stretch:normal;font-size:20px;font-family:'Open Sans';-inkscape-font-specification:'Open Sans'"
       id="path993" />
    <path
       d="m 631.68726,89.383942 q 0,1.49414 -1.11329,2.304687 -1.11328,0.810547 -3.125,0.810547 -2.1289,0 -3.32031,-0.673828 v -1.503906 q 0.77149,0.390625 1.65039,0.615234 0.88867,0.224609 1.70899,0.224609 1.26953,0 1.95312,-0.40039 0.6836,-0.410156 0.6836,-1.240235 0,-0.625 -0.54688,-1.064453 -0.53711,-0.449218 -2.10937,-1.054687 -1.49414,-0.556641 -2.12891,-0.966797 -0.625,-0.419922 -0.9375,-0.947266 -0.30273,-0.527343 -0.30273,-1.259765 0,-1.308594 1.06445,-2.060547 1.06445,-0.761719 2.91992,-0.761719 1.72852,0 3.37891,0.703125 l -0.57618,1.318359 q -1.61132,-0.664062 -2.91992,-0.664062 -1.15234,0 -1.73828,0.361328 -0.58594,0.361328 -0.58594,0.996094 0,0.429687 0.21485,0.732422 0.22461,0.302734 0.71289,0.576172 0.48828,0.273437 1.875,0.791015 1.9043,0.69336 2.56836,1.396485 0.67383,0.703125 0.67383,1.767578 z"
       style="font-style:normal;font-variant:normal;font-weight:normal;font-stretch:normal;font-size:20px;font-family:'Open Sans';-inkscape-font-specification:'Open Sans'"
       id="path995" />
    <path
       d="m 643.55249,86.942535 q 0,2.617188 -1.31836,4.091797 -1.31836,1.464844 -3.64258,1.464844 -1.43554,0 -2.54883,-0.673828 -1.11328,-0.673828 -1.71875,-1.933594 -0.60546,-1.259765 -0.60546,-2.949219 0,-2.617187 1.30859,-4.072265 1.30859,-1.464844 3.63281,-1.464844 2.2461,0 3.56446,1.494141 1.32812,1.49414 1.32812,4.042968 z m -8.1543,0 q 0,2.050782 0.82032,3.125 0.82031,1.074219 2.41211,1.074219 1.59179,0 2.4121,-1.064453 0.83008,-1.074219 0.83008,-3.134766 0,-2.041015 -0.83008,-3.095703 -0.82031,-1.064453 -2.43164,-1.064453 -1.59179,0 -2.40234,1.044922 -0.81055,1.044922 -0.81055,3.115234 z"
       style="font-style:normal;font-variant:normal;font-weight:normal;font-stretch:normal;font-size:20px;font-family:'Open Sans';-inkscape-font-specification:'Open Sans'"
       id="path997" />
  </g>
  <g
     aria-label="(máximo de 1460 bytes)"
     style="font-style:normal;font-weight:normal;font-size:40px;line-height:0;font-family:sans-serif;text-align:center;letter-spacing:0px;word-spacing:0px;writing-mode:lr-tb;text-anchor:middle;fill:#000000;fill-opacity:1;stroke:none"
     id="text925-4-8-0-4">
    <path
       d="m 469.2735,111.75761 q 0,-2.58789 0.75195,-4.84375 0.76172,-2.25586 2.1875,-3.95507 h 1.58203 q -1.40625,1.88476 -2.11914,4.14062 -0.70312,2.25586 -0.70312,4.63867 0,2.34375 0.72265,4.58008 0.72266,2.23633 2.08008,4.08203 h -1.5625 q -1.43555,-1.66015 -2.1875,-3.87695 -0.75195,-2.2168 -0.75195,-4.76563 z"
       style="font-style:normal;font-variant:normal;font-weight:normal;font-stretch:normal;font-size:20px;font-family:'Open Sans';-inkscape-font-specification:'Open Sans'"
       id="path1000" />
    <path
       d="m 489.77155,117.23613 v -6.96289 q 0,-1.2793 -0.54688,-1.91406 -0.54687,-0.64453 -1.69922,-0.64453 -1.51367,0 -2.23633,0.86914 -0.72265,0.86914 -0.72265,2.67578 v 5.97656 h -1.6211 v -6.96289 q 0,-1.2793 -0.54687,-1.91406 -0.54688,-0.64453 -1.70899,-0.64453 -1.52343,0 -2.23632,0.91796 -0.70313,0.90821 -0.70313,2.98829 v 5.61523 h -1.62109 V 106.533 h 1.31836 l 0.26367,1.46485 h 0.0781 q 0.45899,-0.78125 1.28907,-1.2207 0.83984,-0.43946 1.875,-0.43946 2.50976,0 3.28125,1.81641 h 0.0781 q 0.47852,-0.83985 1.38672,-1.32813 0.9082,-0.48828 2.07031,-0.48828 1.81641,0 2.71485,0.9375 0.9082,0.92774 0.9082,2.97852 v 6.98242 z"
       style="font-style:normal;font-variant:normal;font-weight:normal;font-stretch:normal;font-size:20px;font-family:'Open Sans';-inkscape-font-specification:'Open Sans'"
       id="path1002" />
    <path
       d="m 501.30475,117.23613 -0.32227,-1.52344 h -0.0781 q -0.80078,1.00586 -1.60156,1.36719 -0.79102,0.35156 -1.98243,0.35156 -1.59179,0 -2.5,-0.82031 -0.89843,-0.82031 -0.89843,-2.33398 0,-3.24219 5.18554,-3.39844 l 1.81641,-0.0586 v -0.66406 q 0,-1.25976 -0.54688,-1.85547 -0.53711,-0.60547 -1.72851,-0.60547 -1.33789,0 -3.02735,0.82032 l -0.49804,-1.24024 q 0.79101,-0.42969 1.72851,-0.67383 0.94727,-0.24414 1.89453,-0.24414 1.91407,0 2.83204,0.84961 0.92773,0.84961 0.92773,2.72461 v 7.30469 z m -3.66211,-1.14258 q 1.51367,0 2.37305,-0.83008 0.86914,-0.83007 0.86914,-2.32422 v -0.96679 l -1.6211,0.0684 q -1.93359,0.0684 -2.79297,0.60547 -0.84961,0.52734 -0.84961,1.65039 0,0.8789 0.52735,1.33789 0.53711,0.45898 1.49414,0.45898 z m -0.38086,-11.2207 q 0.46875,-0.60547 1.00586,-1.46485 0.54687,-0.85937 0.85937,-1.49414 h 1.97266 v 0.20508 q -0.42969,0.63477 -1.2793,1.5625 -0.84961,0.92774 -1.47461,1.43555 h -1.08398 z"
       style="font-style:normal;font-variant:normal;font-weight:normal;font-stretch:normal;font-size:20px;font-family:'Open Sans';-inkscape-font-specification:'Open Sans'"
       id="path1004" />
    <path
       d="m 508.43365,111.75761 -3.7207,-5.22461 h 1.8457 l 2.82227,4.10157 2.8125,-4.10157 h 1.82617 l -3.7207,5.22461 3.91601,5.47852 h -1.83593 l -2.99805,-4.33594 -3.02734,4.33594 h -1.83594 z"
       style="font-style:normal;font-variant:normal;font-weight:normal;font-stretch:normal;font-size:20px;font-family:'Open Sans';-inkscape-font-specification:'Open Sans'"
       id="path1006" />
    <path
       d="m 517.94537,117.23613 h -1.62109 V 106.533 h 1.62109 z m -1.75781,-13.60352 q 0,-0.55664 0.27344,-0.81054 0.27344,-0.26367 0.68359,-0.26367 0.39063,0 0.67383,0.26367 0.2832,0.26367 0.2832,0.81054 0,0.54688 -0.2832,0.82032 -0.2832,0.26367 -0.67383,0.26367 -0.41015,0 -0.68359,-0.26367 -0.27344,-0.27344 -0.27344,-0.82032 z"
       style="font-style:normal;font-variant:normal;font-weight:normal;font-stretch:normal;font-size:20px;font-family:'Open Sans';-inkscape-font-specification:'Open Sans'"
       id="path1008" />
    <path
       d="m 535.04498,117.23613 v -6.96289 q 0,-1.2793 -0.54687,-1.91406 -0.54688,-0.64453 -1.69922,-0.64453 -1.51367,0 -2.23633,0.86914 -0.72266,0.86914 -0.72266,2.67578 v 5.97656 h -1.62109 v -6.96289 q 0,-1.2793 -0.54687,-1.91406 -0.54688,-0.64453 -1.70899,-0.64453 -1.52344,0 -2.23633,0.91796 -0.70312,0.90821 -0.70312,2.98829 v 5.61523 h -1.6211 V 106.533 h 1.31836 l 0.26368,1.46485 h 0.0781 q 0.45899,-0.78125 1.28906,-1.2207 0.83985,-0.43946 1.875,-0.43946 2.50977,0 3.28125,1.81641 h 0.0781 q 0.47851,-0.83985 1.38672,-1.32813 0.9082,-0.48828 2.07031,-0.48828 1.81641,0 2.71484,0.9375 0.90821,0.92774 0.90821,2.97852 v 6.98242 z"
       style="font-style:normal;font-variant:normal;font-weight:normal;font-stretch:normal;font-size:20px;font-family:'Open Sans';-inkscape-font-specification:'Open Sans'"
       id="path1010" />
    <path
       d="m 549.23444,111.8748 q 0,2.61719 -1.31836,4.0918 -1.31836,1.46484 -3.64258,1.46484 -1.43555,0 -2.54883,-0.67383 -1.11328,-0.67382 -1.71875,-1.93359 -0.60547,-1.25977 -0.60547,-2.94922 0,-2.61719 1.3086,-4.07226 1.30859,-1.46485 3.63281,-1.46485 2.24609,0 3.56445,1.49414 1.32813,1.49414 1.32813,4.04297 z m -8.1543,0 q 0,2.05078 0.82031,3.125 0.82031,1.07422 2.41211,1.07422 1.5918,0 2.41211,-1.06445 0.83008,-1.07422 0.83008,-3.13477 0,-2.04101 -0.83008,-3.0957 -0.82031,-1.06445 -2.43164,-1.06445 -1.5918,0 -2.40234,1.04492 -0.81055,1.04492 -0.81055,3.11523 z"
       style="font-style:normal;font-variant:normal;font-weight:normal;font-stretch:normal;font-size:20px;font-family:'Open Sans';-inkscape-font-specification:'Open Sans'"
       id="path1012" />
    <path
       d="m 564.54694,115.80058 h -0.0879 q -1.12305,1.63086 -3.35938,1.63086 -2.09961,0 -3.27148,-1.43554 -1.16211,-1.43555 -1.16211,-4.08204 0,-2.64648 1.17187,-4.11132 1.17188,-1.46485 3.26172,-1.46485 2.17773,0 3.33984,1.58203 h 0.12696 l -0.0684,-0.77148 -0.0391,-0.75195 v -4.35547 h 1.62109 v 15.19531 h -1.31836 z m -3.24219,0.27344 q 1.66015,0 2.40234,-0.89844 0.75196,-0.9082 0.75196,-2.91992 v -0.3418 q 0,-2.27539 -0.76172,-3.24218 -0.75196,-0.97657 -2.41211,-0.97657 -1.42578,0 -2.1875,1.11329 -0.75196,1.10351 -0.75196,3.125 0,2.05078 0.75196,3.0957 0.75195,1.04492 2.20703,1.04492 z"
       style="font-style:normal;font-variant:normal;font-weight:normal;font-stretch:normal;font-size:20px;font-family:'Open Sans';-inkscape-font-specification:'Open Sans'"
       id="path1014" />
    <path
       d="m 574.04889,117.43144 q -2.37305,0 -3.75,-1.44531 -1.36719,-1.44531 -1.36719,-4.01367 0,-2.58789 1.26953,-4.11133 1.2793,-1.52344 3.42774,-1.52344 2.01172,0 3.18359,1.32813 1.17188,1.31836 1.17188,3.48633 v 1.02539 h -7.37305 q 0.0488,1.88476 0.94726,2.86132 0.90821,0.97657 2.54883,0.97657 1.72852,0 3.41797,-0.72266 v 1.44531 q -0.85937,0.3711 -1.63086,0.52735 -0.76172,0.16601 -1.8457,0.16601 z m -0.43945,-9.73633 q -1.28907,0 -2.06055,0.83985 -0.76172,0.83984 -0.89844,2.32422 h 5.5957 q 0,-1.53321 -0.68359,-2.34375 -0.68359,-0.82032 -1.95312,-0.82032 z"
       style="font-style:normal;font-variant:normal;font-weight:normal;font-stretch:normal;font-size:20px;font-family:'Open Sans';-inkscape-font-specification:'Open Sans'"
       id="path1016" />
    <path
       d="m 591.19733,117.23613 h -1.58203 v -10.17578 q 0,-1.26953 0.0781,-2.40235 -0.20508,0.20508 -0.45898,0.42969 -0.25391,0.22461 -2.32422,1.9043 l -0.85938,-1.11328 3.7793,-2.91992 h 1.36719 z"
       style="font-style:normal;font-variant:normal;font-weight:normal;font-stretch:normal;font-size:20px;font-family:'Open Sans';-inkscape-font-specification:'Open Sans'"
       id="path1018" />
    <path
       d="m 606.69537,113.95488 h -2.11914 v 3.28125 h -1.55273 v -3.28125 h -6.94336 v -1.41602 l 6.77734,-9.6582 h 1.71875 v 9.59961 h 2.11914 z m -3.67187,-1.47461 v -4.74609 q 0,-1.39649 0.0976,-3.1543 h -0.0781 q -0.46875,0.9375 -0.87891,1.55273 l -4.46289,6.34766 z"
       style="font-style:normal;font-variant:normal;font-weight:normal;font-stretch:normal;font-size:20px;font-family:'Open Sans';-inkscape-font-specification:'Open Sans'"
       id="path1020" />
    <path
       d="m 608.24811,111.13261 q 0,-4.20898 1.63086,-6.28906 1.64062,-2.08984 4.84375,-2.08984 1.10351,0 1.73828,0.18554 v 1.39649 q -0.75195,-0.24414 -1.71875,-0.24414 -2.29492,0 -3.50586,1.43555 -1.21094,1.42578 -1.32813,4.49218 h 0.11719 q 1.07422,-1.67968 3.39844,-1.67968 1.92383,0 3.02734,1.1621 1.11328,1.16211 1.11328,3.1543 0,2.22656 -1.2207,3.50586 -1.21094,1.26953 -3.28125,1.26953 -2.2168,0 -3.51562,-1.66015 -1.29883,-1.66993 -1.29883,-4.63868 z m 4.79492,4.92188 q 1.38672,0 2.14844,-0.86914 0.77148,-0.87891 0.77148,-2.5293 0,-1.41601 -0.71289,-2.22656 -0.71289,-0.81055 -2.12891,-0.81055 -0.8789,0 -1.61132,0.36133 -0.73243,0.36133 -1.17188,0.99609 -0.42969,0.63477 -0.42969,1.31836 0,1.00586 0.39063,1.875 0.39062,0.86914 1.10351,1.37696 0.72266,0.50781 1.64063,0.50781 z"
       style="font-style:normal;font-variant:normal;font-weight:normal;font-stretch:normal;font-size:20px;font-family:'Open Sans';-inkscape-font-specification:'Open Sans'"
       id="path1022" />
    <path
       d="m 628.9903,110.07793 q 0,3.70117 -1.17188,5.52734 -1.16211,1.82617 -3.56445,1.82617 -2.30469,0 -3.50586,-1.86523 -1.20117,-1.875 -1.20117,-5.48828 0,-3.73047 1.16211,-5.53711 1.1621,-1.80664 3.54492,-1.80664 2.32422,0 3.52539,1.88476 1.21094,1.88477 1.21094,5.45899 z m -7.80274,0 q 0,3.11523 0.73242,4.54101 0.73242,1.41602 2.33399,1.41602 1.62109,0 2.34375,-1.43555 0.73242,-1.44531 0.73242,-4.52148 0,-3.07618 -0.73242,-4.50196 -0.72266,-1.43554 -2.34375,-1.43554 -1.60157,0 -2.33399,1.41601 -0.73242,1.40625 -0.73242,4.52149 z"
       style="font-style:normal;font-variant:normal;font-weight:normal;font-stretch:normal;font-size:20px;font-family:'Open Sans';-inkscape-font-specification:'Open Sans'"
       id="path1024" />
    <path
       d="m 641.89069,106.35722 q 2.10937,0 3.27148,1.44532 1.17188,1.43554 1.17188,4.07226 0,2.63672 -1.18165,4.10156 -1.17187,1.45508 -3.26171,1.45508 -1.04493,0 -1.91407,-0.38086 -0.85937,-0.39062 -1.44531,-1.1914 h -0.11719 l -0.34179,1.37695 h -1.16211 v -15.19531 h 1.62109 v 3.6914 q 0,1.24024 -0.0781,2.22657 h 0.0781 q 1.13281,-1.60157 3.35938,-1.60157 z m -0.23438,1.35743 q -1.66016,0 -2.39258,0.95703 -0.73242,0.94726 -0.73242,3.20312 0,2.25586 0.75195,3.23242 0.75196,0.9668 2.41211,0.9668 1.49414,0 2.22657,-1.08398 0.73242,-1.09375 0.73242,-3.13477 0,-2.08984 -0.73242,-3.11523 -0.73243,-1.02539 -2.26563,-1.02539 z"
       style="font-style:normal;font-variant:normal;font-weight:normal;font-stretch:normal;font-size:20px;font-family:'Open Sans';-inkscape-font-specification:'Open Sans'"
       id="path1026" />
    <path
       d="m 647.47662,106.533 h 1.73828 l 2.34375,6.10352 q 0.77149,2.08984 0.95704,3.01758 h 0.0781 q 0.12695,-0.49805 0.52734,-1.69922 0.41016,-1.21094 2.65625,-7.42188 h 1.73829 l -4.59961,12.1875 q -0.6836,1.80665 -1.60157,2.5586 -0.9082,0.76172 -2.23632,0.76172 -0.74219,0 -1.46485,-0.16602 v -1.29883 q 0.53711,0.11719 1.20117,0.11719 1.66993,0 2.38282,-1.875 l 0.5957,-1.52344 z"
       style="font-style:normal;font-variant:normal;font-weight:normal;font-stretch:normal;font-size:20px;font-family:'Open Sans';-inkscape-font-specification:'Open Sans'"
       id="path1028" />
    <path
       d="m 662.711,116.09355 q 0.42969,0 0.83008,-0.0586 0.40039,-0.0684 0.63476,-0.13672 v 1.24023 q -0.26367,0.12696 -0.78125,0.20508 -0.50781,0.0879 -0.91797,0.0879 -3.10547,0 -3.10547,-3.27148 v -6.36719 h -1.5332 v -0.78125 l 1.5332,-0.67383 0.6836,-2.28515 h 0.9375 v 2.48046 h 3.10547 v 1.25977 h -3.10547 v 6.29883 q 0,0.9668 0.45898,1.48437 0.45899,0.51758 1.25977,0.51758 z"
       style="font-style:normal;font-variant:normal;font-weight:normal;font-stretch:normal;font-size:20px;font-family:'Open Sans';-inkscape-font-specification:'Open Sans'"
       id="path1030" />
    <path
       d="m 670.84576,117.43144 q -2.37304,0 -3.75,-1.44531 -1.36718,-1.44531 -1.36718,-4.01367 0,-2.58789 1.26953,-4.11133 1.27929,-1.52344 3.42773,-1.52344 2.01172,0 3.1836,1.32813 1.17187,1.31836 1.17187,3.48633 v 1.02539 h -7.37305 q 0.0488,1.88476 0.94727,2.86132 0.9082,0.97657 2.54883,0.97657 1.72851,0 3.41797,-0.72266 v 1.44531 q -0.85938,0.3711 -1.63086,0.52735 -0.76172,0.16601 -1.84571,0.16601 z m -0.43945,-9.73633 q -1.28906,0 -2.06055,0.83985 -0.76171,0.83984 -0.89843,2.32422 h 5.5957 q 0,-1.53321 -0.68359,-2.34375 -0.6836,-0.82032 -1.95313,-0.82032 z"
       style="font-style:normal;font-variant:normal;font-weight:normal;font-stretch:normal;font-size:20px;font-family:'Open Sans';-inkscape-font-specification:'Open Sans'"
       id="path1032" />
    <path
       d="m 684.43951,114.31621 q 0,1.49414 -1.11328,2.30469 -1.11328,0.81054 -3.125,0.81054 -2.1289,0 -3.32031,-0.67383 v -1.5039 q 0.77148,0.39062 1.65039,0.61523 0.88867,0.22461 1.70899,0.22461 1.26953,0 1.95312,-0.40039 0.68359,-0.41016 0.68359,-1.24023 0,-0.625 -0.54687,-1.06446 -0.53711,-0.44922 -2.10938,-1.05468 -1.49414,-0.55664 -2.1289,-0.9668 -0.625,-0.41992 -0.9375,-0.94727 -0.30274,-0.52734 -0.30274,-1.25976 0,-1.3086 1.06446,-2.06055 1.06445,-0.76172 2.91992,-0.76172 1.72851,0 3.3789,0.70313 l -0.57617,1.31836 q -1.61133,-0.66407 -2.91992,-0.66407 -1.15234,0 -1.73828,0.36133 -0.58594,0.36133 -0.58594,0.9961 0,0.42968 0.21485,0.73242 0.22461,0.30273 0.71289,0.57617 0.48828,0.27344 1.875,0.79102 1.90429,0.69335 2.56836,1.39648 0.67382,0.70312 0.67382,1.76758 z"
       style="font-style:normal;font-variant:normal;font-weight:normal;font-stretch:normal;font-size:20px;font-family:'Open Sans';-inkscape-font-specification:'Open Sans'"
       id="path1034" />
    <path
       d="m 690.4649,111.75761 q 0,2.56836 -0.76171,4.78516 -0.75196,2.2168 -2.17774,3.85742 h -1.5625 q 1.35742,-1.83594 2.08008,-4.07226 0.72266,-2.2461 0.72266,-4.58985 0,-2.38281 -0.71289,-4.63867 -0.70313,-2.25586 -2.10938,-4.14062 h 1.58203 q 1.43555,1.70898 2.1875,3.97461 0.75195,2.25585 0.75195,4.82421 z"
       style="font-style:normal;font-variant:normal;font-weight:normal;font-stretch:normal;font-size:20px;font-family:'Open Sans';-inkscape-font-specification:'Open Sans'"
       id="path1036" />
  </g>
  <g
     aria-label="Checksum"
     style="font-style:normal;font-weight:normal;font-size:40px;line-height:0;font-family:sans-serif;text-align:center;letter-spacing:0px;word-spacing:0px;writing-mode:lr-tb;text-anchor:middle;fill:#000000;fill-opacity:1;stroke:none"
     id="text925-4-8-0-0-7">
    <path
       d="m 787.74561,79.305824 q -2.35352,0 -3.72071,1.572266 -1.35742,1.5625 -1.35742,4.287109 0,2.802735 1.30859,4.335938 1.31836,1.523437 3.75,1.523437 1.49414,0 3.40821,-0.537109 v 1.455078 q -1.48438,0.556641 -3.66211,0.556641 -3.1543,0 -4.87305,-1.914063 -1.70898,-1.914062 -1.70898,-5.439453 0,-2.207031 0.82031,-3.867187 0.83008,-1.660157 2.38281,-2.558594 1.5625,-0.898438 3.67188,-0.898438 2.24609,0 3.92578,0.820313 l -0.70313,1.425781 q -1.62109,-0.761719 -3.24218,-0.761719 z"
       style="font-style:normal;font-variant:normal;font-weight:normal;font-stretch:normal;font-size:20px;font-family:'Open Sans';-inkscape-font-specification:'Open Sans'"
       id="path1039" />
    <path
       d="m 801.32959,92.303871 v -6.923828 q 0,-1.308594 -0.5957,-1.953125 -0.59571,-0.644531 -1.86524,-0.644531 -1.68945,0 -2.4707,0.917969 -0.77149,0.917968 -0.77149,3.007812 v 5.595703 h -1.62109 V 77.108559 h 1.62109 v 4.599609 q 0,0.830078 -0.0781,1.376953 h 0.0977 q 0.47851,-0.771484 1.35742,-1.210937 0.88867,-0.449219 2.02148,-0.449219 1.96289,0 2.93946,0.9375 0.98632,0.927734 0.98632,2.958984 v 6.982422 z"
       style="font-style:normal;font-variant:normal;font-weight:normal;font-stretch:normal;font-size:20px;font-family:'Open Sans';-inkscape-font-specification:'Open Sans'"
       id="path1041" />
    <path
       d="m 810.79248,92.499184 q -2.37305,0 -3.75,-1.445313 -1.36719,-1.445312 -1.36719,-4.013672 0,-2.58789 1.26953,-4.111328 1.2793,-1.523437 3.42774,-1.523437 2.01172,0 3.18359,1.328125 1.17188,1.318359 1.17188,3.486328 v 1.02539 h -7.37305 q 0.0488,1.884766 0.94727,2.861329 0.9082,0.976562 2.54882,0.976562 1.72852,0 3.41797,-0.722656 v 1.445312 q -0.85937,0.371094 -1.63086,0.527344 -0.76172,0.166016 -1.8457,0.166016 z m -0.43945,-9.736328 q -1.28907,0 -2.06055,0.839843 -0.76172,0.839844 -0.89844,2.324219 h 5.59571 q 0,-1.533203 -0.6836,-2.34375 -0.68359,-0.820312 -1.95312,-0.820312 z"
       style="font-style:normal;font-variant:normal;font-weight:normal;font-stretch:normal;font-size:20px;font-family:'Open Sans';-inkscape-font-specification:'Open Sans'"
       id="path1043" />
    <path
       d="m 821.75928,92.499184 q -2.32422,0 -3.60352,-1.425782 -1.26953,-1.435546 -1.26953,-4.052734 0,-2.685547 1.28906,-4.150391 1.29883,-1.464843 3.69141,-1.464843 0.77148,0 1.54297,0.166015 0.77148,0.166016 1.21094,0.390625 l -0.49805,1.376953 q -0.53711,-0.214843 -1.17188,-0.351562 -0.63476,-0.146484 -1.12304,-0.146484 -3.26172,0 -3.26172,4.160156 0,1.972656 0.79101,3.027344 0.80078,1.054687 2.36328,1.054687 1.3379,0 2.74415,-0.576172 v 1.435547 q -1.07422,0.556641 -2.70508,0.556641 z"
       style="font-style:normal;font-variant:normal;font-weight:normal;font-stretch:normal;font-size:20px;font-family:'Open Sans';-inkscape-font-specification:'Open Sans'"
       id="path1045" />
    <path
       d="m 828.61475,86.825356 q 0.41992,-0.595704 1.27929,-1.5625 l 3.45703,-3.66211 h 1.92383 l -4.33594,4.560547 4.63868,6.142578 h -1.96289 l -3.7793,-5.058594 -1.2207,1.054688 v 4.003906 h -1.60157 V 77.108559 h 1.60157 v 8.05664 q 0,0.53711 -0.0781,1.660157 z"
       style="font-style:normal;font-variant:normal;font-weight:normal;font-stretch:normal;font-size:20px;font-family:'Open Sans';-inkscape-font-specification:'Open Sans'"
       id="path1047" />
    <path
       d="m 844.42529,89.383949 q 0,1.494141 -1.11328,2.304688 -1.11328,0.810547 -3.125,0.810547 -2.1289,0 -3.32031,-0.673828 v -1.503907 q 0.77148,0.390625 1.65039,0.615235 0.88867,0.224609 1.70898,0.224609 1.26954,0 1.95313,-0.400391 0.68359,-0.410156 0.68359,-1.240234 0,-0.625 -0.54687,-1.064453 -0.53711,-0.449219 -2.10938,-1.054688 -1.49414,-0.55664 -2.1289,-0.966796 -0.625,-0.419922 -0.9375,-0.947266 -0.30274,-0.527344 -0.30274,-1.259766 0,-1.308593 1.06446,-2.060547 1.06445,-0.761718 2.91992,-0.761718 1.72851,0 3.3789,0.703125 l -0.57617,1.318359 q -1.61133,-0.664062 -2.91992,-0.664062 -1.15234,0 -1.73828,0.361328 -0.58594,0.361328 -0.58594,0.996093 0,0.429688 0.21484,0.732422 0.22461,0.302735 0.7129,0.576172 0.48828,0.273438 1.875,0.791016 1.90429,0.693359 2.56835,1.396484 0.67383,0.703125 0.67383,1.767578 z"
       style="font-style:normal;font-variant:normal;font-weight:normal;font-stretch:normal;font-size:20px;font-family:'Open Sans';-inkscape-font-specification:'Open Sans'"
       id="path1049" />
    <path
       d="m 848.57568,81.600746 v 6.94336 q 0,1.308593 0.59571,1.953125 0.5957,0.644531 1.86523,0.644531 1.67969,0 2.45117,-0.917969 0.78125,-0.917969 0.78125,-2.998047 v -5.625 h 1.6211 v 10.703125 h -1.33789 l -0.23438,-1.435547 h -0.0879 q -0.49805,0.791016 -1.38672,1.210938 -0.8789,0.419922 -2.01172,0.419922 -1.95312,0 -2.92968,-0.927735 -0.9668,-0.927734 -0.9668,-2.96875 v -7.001953 z"
       style="font-style:normal;font-variant:normal;font-weight:normal;font-stretch:normal;font-size:20px;font-family:'Open Sans';-inkscape-font-specification:'Open Sans'"
       id="path1051" />
    <path
       d="m 872.96045,92.303871 v -6.96289 q 0,-1.279297 -0.54688,-1.914063 -0.54687,-0.644531 -1.69921,-0.644531 -1.51368,0 -2.23633,0.86914 -0.72266,0.869141 -0.72266,2.675782 v 5.976562 h -1.62109 v -6.96289 q 0,-1.279297 -0.54688,-1.914063 -0.54687,-0.644531 -1.70898,-0.644531 -1.52344,0 -2.23633,0.917969 -0.70313,0.908203 -0.70313,2.988281 v 5.615234 h -1.62109 V 81.600746 h 1.31836 l 0.26367,1.464844 h 0.0781 q 0.45898,-0.78125 1.28906,-1.220703 0.83984,-0.439453 1.875,-0.439453 2.50977,0 3.28125,1.816406 h 0.0781 q 0.47852,-0.839844 1.38672,-1.328125 0.90821,-0.488281 2.07032,-0.488281 1.8164,0 2.71484,0.9375 0.9082,0.927734 0.9082,2.978515 v 6.982422 z"
       style="font-style:normal;font-variant:normal;font-weight:normal;font-stretch:normal;font-size:20px;font-family:'Open Sans';-inkscape-font-specification:'Open Sans'"
       id="path1053" />
  </g>
  <g
     aria-label="(2 bytes)"
     style="font-style:normal;font-weight:normal;font-size:40px;line-height:0;font-family:sans-serif;text-align:center;letter-spacing:0px;word-spacing:0px;writing-mode:lr-tb;text-anchor:middle;fill:#000000;fill-opacity:1;stroke:none"
     id="text925-4-8-0-0-7-0">
    <path
       d="m 789.62909,112.31831 q 0,-2.58789 0.75195,-4.84375 0.76172,-2.25586 2.1875,-3.95507 h 1.58203 q -1.40625,1.88476 -2.11914,4.14062 -0.70312,2.25586 -0.70312,4.63867 0,2.34375 0.72265,4.58008 0.72266,2.23633 2.08008,4.08203 h -1.5625 q -1.43554,-1.66015 -2.1875,-3.87695 -0.75195,-2.2168 -0.75195,-4.76563 z"
       style="font-style:normal;font-variant:normal;font-weight:normal;font-stretch:normal;font-size:20px;font-family:'Open Sans';-inkscape-font-specification:'Open Sans'"
       id="path1056" />
    <path
       d="m 805.12714,117.79683 h -9.38477 v -1.39649 l 3.75977,-3.77929 q 1.71875,-1.73828 2.26562,-2.48047 0.54688,-0.74219 0.82031,-1.44531 0.27344,-0.70313 0.27344,-1.51368 0,-1.14257 -0.69336,-1.80664 -0.69336,-0.67382 -1.92383,-0.67382 -0.88867,0 -1.68945,0.29296 -0.79102,0.29297 -1.76758,1.06446 l -0.85937,-1.10352 q 1.97265,-1.64062 4.29687,-1.64062 2.01172,0 3.1543,1.03515 1.14258,1.02539 1.14258,2.76368 0,1.35742 -0.76172,2.68554 -0.76172,1.32813 -2.85156,3.35938 l -3.125,3.05664 v 0.0781 h 7.34375 z"
       style="font-style:normal;font-variant:normal;font-weight:normal;font-stretch:normal;font-size:20px;font-family:'Open Sans';-inkscape-font-specification:'Open Sans'"
       id="path1058" />
    <path
       d="m 818.10565,106.91792 q 2.10938,0 3.27149,1.44532 1.17187,1.43554 1.17187,4.07226 0,2.63672 -1.18164,4.10156 -1.17187,1.45508 -3.26172,1.45508 -1.04492,0 -1.91406,-0.38086 -0.85938,-0.39062 -1.44531,-1.1914 h -0.11719 l -0.3418,1.37695 h -1.16211 v -15.19531 h 1.6211 v 3.6914 q 0,1.24024 -0.0781,2.22657 h 0.0781 q 1.13281,-1.60157 3.35937,-1.60157 z m -0.23437,1.35742 q -1.66016,0 -2.39258,0.95704 -0.73242,0.94726 -0.73242,3.20312 0,2.25586 0.75195,3.23242 0.75195,0.9668 2.41211,0.9668 1.49414,0 2.22656,-1.08398 0.73242,-1.09375 0.73242,-3.13477 0,-2.08984 -0.73242,-3.11523 -0.73242,-1.0254 -2.26562,-1.0254 z"
       style="font-style:normal;font-variant:normal;font-weight:normal;font-stretch:normal;font-size:20px;font-family:'Open Sans';-inkscape-font-specification:'Open Sans'"
       id="path1060" />
    <path
       d="m 823.69159,107.0937 h 1.73828 l 2.34375,6.10352 q 0.77148,2.08984 0.95703,3.01758 h 0.0781 q 0.12695,-0.49805 0.52734,-1.69922 0.41016,-1.21094 2.65625,-7.42188 h 1.73828 l -4.59961,12.1875 q -0.68359,1.80664 -1.60156,2.5586 -0.9082,0.76172 -2.23633,0.76172 -0.74219,0 -1.46484,-0.16602 v -1.29883 q 0.53711,0.11719 1.20117,0.11719 1.66992,0 2.38281,-1.875 l 0.59571,-1.52344 z"
       style="font-style:normal;font-variant:normal;font-weight:normal;font-stretch:normal;font-size:20px;font-family:'Open Sans';-inkscape-font-specification:'Open Sans'"
       id="path1062" />
    <path
       d="m 838.92596,116.65425 q 0.42969,0 0.83008,-0.0586 0.40039,-0.0684 0.63477,-0.13672 v 1.24023 q -0.26367,0.12696 -0.78125,0.20508 -0.50781,0.0879 -0.91797,0.0879 -3.10547,0 -3.10547,-3.27148 v -6.36719 h -1.5332 v -0.78125 l 1.5332,-0.67383 0.68359,-2.28515 h 0.9375 v 2.48046 h 3.10547 v 1.25977 h -3.10547 v 6.29883 q 0,0.96679 0.45899,1.48437 0.45898,0.51758 1.25976,0.51758 z"
       style="font-style:normal;font-variant:normal;font-weight:normal;font-stretch:normal;font-size:20px;font-family:'Open Sans';-inkscape-font-specification:'Open Sans'"
       id="path1064" />
    <path
       d="m 847.06073,117.99214 q -2.37305,0 -3.75,-1.44531 -1.36719,-1.44531 -1.36719,-4.01367 0,-2.58789 1.26953,-4.11133 1.2793,-1.52344 3.42774,-1.52344 2.01172,0 3.18359,1.32813 1.17188,1.31836 1.17188,3.48632 v 1.0254 h -7.37305 q 0.0488,1.88476 0.94727,2.86132 0.9082,0.97657 2.54882,0.97657 1.72852,0 3.41797,-0.72266 v 1.44531 q -0.85937,0.3711 -1.63086,0.52735 -0.76172,0.16601 -1.8457,0.16601 z m -0.43945,-9.73633 q -1.28907,0 -2.06055,0.83985 -0.76172,0.83984 -0.89844,2.32422 h 5.59571 q 0,-1.53321 -0.6836,-2.34375 -0.68359,-0.82032 -1.95312,-0.82032 z"
       style="font-style:normal;font-variant:normal;font-weight:normal;font-stretch:normal;font-size:20px;font-family:'Open Sans';-inkscape-font-specification:'Open Sans'"
       id="path1066" />
    <path
       d="m 860.65448,114.87691 q 0,1.49414 -1.11328,2.30468 -1.11328,0.81055 -3.125,0.81055 -2.12891,0 -3.32031,-0.67383 v -1.5039 q 0.77148,0.39062 1.65039,0.61523 0.88867,0.22461 1.70898,0.22461 1.26953,0 1.95313,-0.40039 0.68359,-0.41016 0.68359,-1.24023 0,-0.625 -0.54688,-1.06446 -0.5371,-0.44922 -2.10937,-1.05468 -1.49414,-0.55665 -2.12891,-0.9668 -0.625,-0.41992 -0.9375,-0.94727 -0.30273,-0.52734 -0.30273,-1.25976 0,-1.3086 1.06445,-2.06055 1.06446,-0.76172 2.91992,-0.76172 1.72852,0 3.37891,0.70313 l -0.57617,1.31836 q -1.61133,-0.66407 -2.91992,-0.66407 -1.15235,0 -1.73828,0.36133 -0.58594,0.36133 -0.58594,0.9961 0,0.42968 0.21484,0.73242 0.22461,0.30273 0.71289,0.57617 0.48828,0.27344 1.875,0.79101 1.9043,0.69336 2.56836,1.39649 0.67383,0.70312 0.67383,1.76758 z"
       style="font-style:normal;font-variant:normal;font-weight:normal;font-stretch:normal;font-size:20px;font-family:'Open Sans';-inkscape-font-specification:'Open Sans'"
       id="path1068" />
    <path
       d="m 866.67987,112.31831 q 0,2.56836 -0.76172,4.78516 -0.75195,2.2168 -2.17773,3.85742 h -1.5625 q 1.35742,-1.83594 2.08008,-4.07226 0.72265,-2.2461 0.72265,-4.58985 0,-2.38281 -0.71289,-4.63867 -0.70312,-2.25586 -2.10937,-4.14062 h 1.58203 q 1.43554,1.70898 2.1875,3.9746 0.75195,2.25586 0.75195,4.82422 z"
       style="font-style:normal;font-variant:normal;font-weight:normal;font-stretch:normal;font-size:20px;font-family:'Open Sans';-inkscape-font-specification:'Open Sans'"
       id="path1070" />
  </g>
</svg>
