<?xml version="1.0" encoding="UTF-8" standalone="no"?>
<!-- Created with Inkscape (http://www.inkscape.org/) -->

<svg
   xmlns:dc="http://purl.org/dc/elements/1.1/"
   xmlns:cc="http://creativecommons.org/ns#"
   xmlns:rdf="http://www.w3.org/1999/02/22-rdf-syntax-ns#"
   xmlns:svg="http://www.w3.org/2000/svg"
   xmlns="http://www.w3.org/2000/svg"
   xmlns:sodipodi="http://sodipodi.sourceforge.net/DTD/sodipodi-0.dtd"
   xmlns:inkscape="http://www.inkscape.org/namespaces/inkscape"
   version="1.2"
   width="900"
   height="200"
   id="svg2"
   inkscape:version="0.48.4 r9939"
   sodipodi:docname="net_basic_tcppacket.svg">
  <sodipodi:namedview
     pagecolor="#ffffff"
     bordercolor="#666666"
     borderopacity="1"
     objecttolerance="10"
     gridtolerance="10"
     guidetolerance="10"
     inkscape:pageopacity="1"
     inkscape:pageshadow="2"
     inkscape:window-width="1600"
     inkscape:window-height="1161"
     id="namedview27"
     showgrid="true"
     inkscape:zoom="0.9925"
     inkscape:cx="497.05441"
     inkscape:cy="74.017495"
     inkscape:window-x="1920"
     inkscape:window-y="0"
     inkscape:window-maximized="1"
     inkscape:current-layer="g3222">
    <inkscape:grid
       type="xygrid"
       id="grid3299"
       empspacing="5"
       visible="true"
       enabled="true"
       snapvisiblegridlinesonly="true" />
  </sodipodi:namedview>
  <defs
     id="defs4" />
  <metadata
     id="metadata7">
    <rdf:RDF>
      <cc:Work
         rdf:about="">
        <dc:format>image/svg+xml</dc:format>
        <dc:type
           rdf:resource="http://purl.org/dc/dcmitype/StillImage" />
        <dc:title />
      </cc:Work>
    </rdf:RDF>
  </metadata>
  <g
     transform="translate(601,-466.8125)"
     id="g3222">
    <rect
       width="860"
       height="160"
       rx="10"
       ry="10"
       x="-581"
       y="486.8125"
       id="rect4438"
       style="fill:#7ac142;fill-opacity:1;fill-rule:nonzero;stroke:none" />
    <rect
       width="130"
       height="160"
       x="-481"
       y="486.8125"
       id="rect6978-9-64-0-1-5-7"
       style="color:#000000;fill:#87cefa;fill-opacity:1;fill-rule:nonzero;stroke:#ffffff;stroke-width:0;stroke-miterlimit:4;stroke-opacity:1;stroke-dasharray:none;marker:none;visibility:visible;display:inline;overflow:visible;enable-background:accumulate" />
    <rect
       width="130.00003"
       height="160"
       ry="0"
       x="-351"
       y="486.8125"
       id="rect6978-9-64-0-1-5-7-5"
       style="color:#000000;fill:#f5deb3;fill-opacity:1;fill-rule:nonzero;stroke:#ffffff;stroke-width:0;stroke-miterlimit:4;stroke-opacity:1;stroke-dasharray:none;marker:none;visibility:visible;display:inline;overflow:visible;enable-background:accumulate" />
    <rect
       width="399.99982"
       height="160"
       x="-221"
       y="486.8125"
       id="rect6978-9-64-0-1-5-7-5-2"
       style="color:#000000;fill:#e6e6e6;fill-opacity:1;fill-rule:nonzero;stroke:#ffffff;stroke-width:0;stroke-miterlimit:4;stroke-opacity:1;stroke-dasharray:none;marker:none;visibility:visible;display:inline;overflow:visible;enable-background:accumulate" />
    <g
       style="font-size:22px;font-style:normal;font-variant:normal;font-weight:normal;font-stretch:normal;text-align:center;line-height:125%;letter-spacing:0px;word-spacing:0px;text-anchor:middle;fill:#000000;fill-opacity:1;stroke:none;font-family:Open Sans;-inkscape-font-specification:Open Sans"
       id="text5323"
       transform="translate(39.99991,0)">
      <path
         d="m -101.50781,544.77148 0,9.23829 c -2e-5,1.6276 -0.49155,2.9069 -1.47461,3.83789 -0.98309,0.93099 -2.334,1.39648 -4.05274,1.39648 -1.71875,0 -3.05013,-0.46875 -3.99414,-1.40625 -0.9375,-0.9375 -1.40625,-2.22656 -1.40625,-3.86719 l 0,-9.19922 1.66016,0 0,9.31641 c 0,1.19141 0.32552,2.10612 0.97656,2.74414 0.65104,0.63802 1.60807,0.95703 2.8711,0.95703 1.20441,0 2.13215,-0.31901 2.7832,-0.95703 0.65103,-0.64453 0.97655,-1.56575 0.97656,-2.76367 l 0,-9.29688 1.66016,0"
         style="font-size:20px"
         id="path3191"
         inkscape:connector-curvature="0" />
      <path
         d="m -91.058594,556.12891 c -8e-6,0.99609 -0.371102,1.76432 -1.113281,2.30468 -0.742194,0.54037 -1.78386,0.81055 -3.125,0.81055 -1.419274,0 -2.526044,-0.22461 -3.320312,-0.67383 l 0,-1.5039 c 0.514321,0.26041 1.06445,0.46549 1.65039,0.61523 0.592445,0.14974 1.162106,0.22461 1.708985,0.22461 0.846348,0 1.497389,-0.13346 1.953125,-0.40039 0.455722,-0.27344 0.683586,-0.68685 0.683593,-1.24024 -7e-6,-0.41666 -0.182298,-0.77148 -0.546875,-1.06445 -0.358079,-0.29947 -1.061203,-0.65104 -2.109375,-1.05469 -0.996097,-0.37108 -1.705732,-0.69335 -2.128906,-0.96679 -0.416669,-0.27994 -0.729168,-0.5957 -0.9375,-0.94727 -0.201824,-0.35155 -0.302735,-0.77147 -0.302734,-1.25976 -10e-7,-0.87239 0.354816,-1.55924 1.064453,-2.06055 0.709632,-0.5078 1.682939,-0.76171 2.919922,-0.76172 1.152337,10e-6 2.278638,0.23439 3.378906,0.70313 l -0.576172,1.31835 c -1.074225,-0.44269 -2.047532,-0.66405 -2.919922,-0.66406 -0.768233,1e-5 -1.34766,0.12045 -1.738281,0.36133 -0.390628,0.24089 -0.58594,0.57293 -0.585938,0.99609 -2e-6,0.28647 0.07161,0.53061 0.214844,0.73243 0.149737,0.20183 0.387367,0.39388 0.712891,0.57617 0.325517,0.1823 0.950516,0.44597 1.875,0.79101 1.269524,0.46225 2.125643,0.92774 2.568359,1.39649 0.44921,0.46875 0.67382,1.05794 0.673828,1.76758"
         style="font-size:20px"
         id="path3193"
         inkscape:connector-curvature="0" />
      <path
         d="m -81.849609,559.04883 -0.322266,-1.52344 -0.07813,0 c -0.533862,0.67057 -1.067715,1.1263 -1.601562,1.36719 -0.52735,0.23437 -1.188157,0.35156 -1.982422,0.35156 -1.061202,0 -1.894534,-0.27344 -2.5,-0.82031 -0.59896,-0.54688 -0.898439,-1.32487 -0.898438,-2.33399 -10e-7,-2.16145 1.728513,-3.29426 5.185547,-3.39843 l 1.816406,-0.0586 0,-0.66406 c -8e-6,-0.83984 -0.182299,-1.45832 -0.546875,-1.85547 -0.35808,-0.40364 -0.934251,-0.60546 -1.728515,-0.60547 -0.891932,1e-5 -1.901046,0.27345 -3.027344,0.82031 l -0.498047,-1.24023 c 0.527341,-0.28645 1.103512,-0.51106 1.728516,-0.67383 0.631506,-0.16275 1.263015,-0.24413 1.894531,-0.24414 1.276035,10e-6 2.220044,0.28322 2.832031,0.84961 0.618481,0.56642 0.927725,1.47462 0.927735,2.72461 l 0,7.30469 -1.201172,0 m -3.66211,-1.14258 c 1.009109,0 1.800124,-0.27669 2.373047,-0.83008 0.57942,-0.55338 0.869133,-1.32812 0.869141,-2.32422 l 0,-0.96679 -1.621094,0.0684 c -1.289067,0.0456 -2.220056,0.2474 -2.792969,0.60546 -0.566409,0.35157 -0.849612,0.9017 -0.849609,1.65039 -3e-6,0.58594 0.175778,1.03191 0.527344,1.3379 0.358069,0.30599 0.856115,0.45898 1.49414,0.45898"
         style="font-size:20px"
         id="path3195"
         inkscape:connector-curvature="0" />
      <path
         d="m -68.539062,548.3457 0,1.02539 -1.982422,0.23438 c 0.182283,0.22787 0.345043,0.52735 0.488281,0.89844 0.14322,0.36459 0.214834,0.778 0.214844,1.24023 -1e-5,1.04818 -0.358082,1.88477 -1.074219,2.50977 -0.716153,0.625 -1.699225,0.9375 -2.949219,0.9375 -0.319015,0 -0.618494,-0.026 -0.898437,-0.0781 -0.690108,0.36459 -1.03516,0.82357 -1.035157,1.37695 -3e-6,0.29298 0.12044,0.51107 0.361329,0.6543 0.240881,0.13672 0.654292,0.20508 1.240234,0.20508 l 1.894531,0 c 1.158846,0 2.047517,0.24414 2.666016,0.73242 0.62499,0.48828 0.937489,1.19792 0.9375,2.12891 -1.1e-5,1.18489 -0.475271,2.08658 -1.425781,2.70508 -0.950529,0.62499 -2.337247,0.93749 -4.160157,0.9375 -1.399743,-1e-5 -2.480471,-0.26043 -3.242187,-0.78125 -0.755209,-0.52084 -1.132813,-1.25652 -1.132813,-2.20704 0,-0.65104 0.208333,-1.21419 0.625,-1.68945 0.416665,-0.47526 1.002602,-0.79752 1.757813,-0.9668 -0.27344,-0.12369 -0.50456,-0.31575 -0.69336,-0.57617 -0.182293,-0.26041 -0.273439,-0.56315 -0.273437,-0.9082 -2e-6,-0.39062 0.104165,-0.73242 0.3125,-1.02539 0.208331,-0.29297 0.537107,-0.57617 0.986328,-0.84961 -0.553388,-0.22786 -1.005861,-0.61523 -1.357422,-1.16211 -0.345053,-0.54687 -0.517579,-1.17187 -0.517578,-1.875 -10e-7,-1.17187 0.351561,-2.07356 1.054688,-2.70508 0.703122,-0.63801 1.699214,-0.95702 2.988281,-0.95703 0.55989,10e-6 1.064447,0.0651 1.513672,0.19531 l 3.701172,0 m -8.535157,12.5 c -2e-6,0.57943 0.244139,1.01888 0.732422,1.31836 0.488278,0.29948 1.188147,0.44922 2.09961,0.44922 1.36067,0 2.366529,-0.20508 3.017578,-0.61523 0.657543,-0.40365 0.986319,-0.95378 0.986328,-1.65039 -9e-6,-0.57943 -0.179045,-0.98308 -0.53711,-1.21094 -0.35808,-0.22136 -1.031908,-0.33203 -2.021484,-0.33203 l -1.943359,0 c -0.735681,0 -1.308597,0.17578 -1.71875,0.52734 -0.410159,0.35156 -0.615237,0.85612 -0.615235,1.51367 m 0.878907,-9.07226 c -3e-6,0.7487 0.211585,1.31511 0.634765,1.69922 0.423173,0.38412 1.012365,0.57617 1.767578,0.57617 1.582025,0 2.37304,-0.76823 2.373047,-2.30469 -7e-6,-1.60806 -0.800788,-2.4121 -2.402344,-2.41211 -0.761723,1e-5 -1.34766,0.20509 -1.757812,0.61524 -0.410159,0.41016 -0.615237,1.01888 -0.615234,1.82617"
         style="font-size:20px"
         id="path3197"
         inkscape:connector-curvature="0" />
      <path
         d="m -61.800781,559.24414 c -1.582036,0 -2.832035,-0.48177 -3.75,-1.44531 -0.91146,-0.96354 -1.367189,-2.30143 -1.367188,-4.01367 -10e-7,-1.72526 0.423176,-3.0957 1.269532,-4.11133 0.852861,-1.01562 1.995438,-1.52343 3.427734,-1.52344 1.341139,10e-6 2.402335,0.44272 3.183594,1.32813 0.78124,0.87891 1.171864,2.04102 1.171875,3.48632 l 0,1.02539 -7.373047,0 c 0.03255,1.25652 0.348304,2.21029 0.947265,2.86133 0.605465,0.65105 1.455073,0.97657 2.548829,0.97656 1.152336,10e-6 2.291658,-0.24088 3.417968,-0.72265 l 0,1.44531 c -0.572926,0.2474 -1.116545,0.42318 -1.630859,0.52734 -0.50782,0.11068 -1.123054,0.16602 -1.845703,0.16602 m -0.439453,-9.73633 c -0.85938,1e-5 -1.546229,0.27996 -2.060547,0.83985 -0.507816,0.5599 -0.807295,1.33464 -0.898438,2.32421 l 5.595703,0 c -8e-6,-1.02212 -0.227872,-1.80337 -0.683593,-2.34375 -0.455737,-0.54686 -1.106778,-0.8203 -1.953125,-0.82031"
         style="font-size:20px"
         id="path3199"
         inkscape:connector-curvature="0" />
      <path
         d="m -38.275391,551.77344 c -1.3e-5,2.35677 -0.641288,4.16016 -1.923828,5.41015 -1.276052,1.24349 -3.115242,1.86524 -5.517578,1.86524 l -3.955078,0 0,-14.27735 4.375,0 c 2.220044,2e-5 3.945302,0.61525 5.175781,1.84571 1.230456,1.23048 1.84569,2.94923 1.845703,5.15625 m -1.757812,0.0586 c -1.2e-5,-1.86197 -0.468761,-3.26496 -1.40625,-4.20898 -0.930999,-0.944 -2.317716,-1.41601 -4.160156,-1.41602 l -2.41211,0 0,11.40625 2.021485,0 c 1.979159,0 3.466787,-0.48502 4.46289,-1.45508 0.996083,-0.97656 1.494129,-2.41861 1.494141,-4.32617"
         style="font-size:20px"
         id="path3201"
         inkscape:connector-curvature="0" />
      <path
         d="m -28.763672,559.04883 -0.322265,-1.52344 -0.07813,0 c -0.533862,0.67057 -1.067716,1.1263 -1.601563,1.36719 -0.52735,0.23437 -1.188156,0.35156 -1.982422,0.35156 -1.061201,0 -1.894534,-0.27344 -2.5,-0.82031 -0.598959,-0.54688 -0.898438,-1.32487 -0.898437,-2.33399 -10e-7,-2.16145 1.728513,-3.29426 5.185547,-3.39843 l 1.816406,-0.0586 0,-0.66406 c -8e-6,-0.83984 -0.1823,-1.45832 -0.546875,-1.85547 -0.35808,-0.40364 -0.934251,-0.60546 -1.728516,-0.60547 -0.891932,1e-5 -1.901045,0.27345 -3.027344,0.82031 l -0.498046,-1.24023 c 0.527341,-0.28645 1.103512,-0.51106 1.728515,-0.67383 0.631506,-0.16275 1.263016,-0.24413 1.894531,-0.24414 1.276035,10e-6 2.220044,0.28322 2.832032,0.84961 0.61848,0.56642 0.927724,1.47462 0.927734,2.72461 l 0,7.30469 -1.201172,0 m -3.662109,-1.14258 c 1.009109,0 1.800124,-0.27669 2.373047,-0.83008 0.579419,-0.55338 0.869132,-1.32812 0.86914,-2.32422 l 0,-0.96679 -1.621093,0.0684 c -1.289068,0.0456 -2.220057,0.2474 -2.792969,0.60546 -0.566409,0.35157 -0.849612,0.9017 -0.84961,1.65039 -2e-6,0.58594 0.175779,1.03191 0.527344,1.3379 0.35807,0.30599 0.856116,0.45898 1.494141,0.45898"
         style="font-size:20px"
         id="path3203"
         inkscape:connector-curvature="0" />
      <path
         d="m -20.755859,557.90625 c 0.286452,0 0.563145,-0.0195 0.830078,-0.0586 0.266921,-0.0456 0.478509,-0.0911 0.634765,-0.13672 l 0,1.24023 c -0.175787,0.0846 -0.436204,0.153 -0.78125,0.20508 -0.338547,0.0586 -0.644536,0.0879 -0.917968,0.0879 -2.070316,0 -3.105471,-1.09049 -3.105469,-3.27148 l 0,-6.36719 -1.533203,0 0,-0.78125 1.533203,-0.67383 0.683594,-2.28516 0.9375,0 0,2.48047 3.105468,0 0,1.25977 -3.105468,0 0,6.29883 c -4e-6,0.64453 0.152991,1.13932 0.458984,1.48437 0.305985,0.34506 0.725907,0.51758 1.259766,0.51758"
         style="font-size:20px"
         id="path3205"
         inkscape:connector-curvature="0" />
      <path
         d="m -10.560547,559.04883 -0.322266,-1.52344 -0.07813,0 c -0.533861,0.67057 -1.067715,1.1263 -1.601562,1.36719 -0.52735,0.23437 -1.188156,0.35156 -1.982422,0.35156 -1.061201,0 -1.894534,-0.27344 -2.5,-0.82031 -0.598959,-0.54688 -0.898438,-1.32487 -0.898437,-2.33399 -1e-6,-2.16145 1.728513,-3.29426 5.185546,-3.39843 l 1.816407,-0.0586 0,-0.66406 c -8e-6,-0.83984 -0.1823,-1.45832 -0.546875,-1.85547 -0.35808,-0.40364 -0.934251,-0.60546 -1.728516,-0.60547 -0.891932,1e-5 -1.901045,0.27345 -3.027344,0.82031 l -0.498046,-1.24023 c 0.527341,-0.28645 1.103512,-0.51106 1.728515,-0.67383 0.631506,-0.16275 1.263016,-0.24413 1.894531,-0.24414 1.276035,10e-6 2.220044,0.28322 2.832032,0.84961 0.61848,0.56642 0.9277245,1.47462 0.927734,2.72461 l 0,7.30469 -1.201172,0 m -3.662109,-1.14258 c 1.009109,0 1.800124,-0.27669 2.373047,-0.83008 0.579419,-0.55338 0.869132,-1.32812 0.86914,-2.32422 l 0,-0.96679 -1.621094,0.0684 c -1.289067,0.0456 -2.220056,0.2474 -2.792968,0.60546 -0.566409,0.35157 -0.849612,0.9017 -0.84961,1.65039 -2e-6,0.58594 0.175779,1.03191 0.527344,1.3379 0.35807,0.30599 0.856116,0.45898 1.494141,0.45898"
         style="font-size:20px"
         id="path3207"
         inkscape:connector-curvature="0" />
      <path
         d="m -166.6543,578.57031 c 0,-1.72525 0.25065,-3.33983 0.75196,-4.84375 0.50781,-1.50389 1.23697,-2.82225 2.1875,-3.95508 l 1.58203,0 c -0.93751,1.25653 -1.64389,2.63673 -2.11914,4.14063 -0.46876,1.50391 -0.70313,3.05014 -0.70313,4.63867 0,1.56251 0.24088,3.0892 0.72266,4.58008 0.48177,1.49088 1.17512,2.85156 2.08008,4.08203 l -1.5625,0 c -0.95704,-1.10677 -1.6862,-2.39909 -2.1875,-3.87695 -0.50131,-1.47786 -0.75196,-3.0664 -0.75196,-4.76563"
         style="font-size:20px"
         id="path3209"
         inkscape:connector-curvature="0" />
      <path
         d="m -146.15625,584.04883 0,-6.96289 c -2e-5,-0.85286 -0.18231,-1.49088 -0.54687,-1.91407 -0.3646,-0.42967 -0.93101,-0.64452 -1.69922,-0.64453 -1.00913,10e-6 -1.75457,0.28973 -2.23633,0.86914 -0.48178,0.57944 -0.72267,1.47137 -0.72266,2.67579 l 0,5.97656 -1.62109,0 0,-6.96289 c -1e-5,-0.85286 -0.1823,-1.49088 -0.54688,-1.91407 -0.36459,-0.42967 -0.93425,-0.64452 -1.70898,-0.64453 -1.01563,10e-6 -1.76107,0.306 -2.23633,0.91797 -0.46875,0.60548 -0.70313,1.60157 -0.70312,2.98828 l 0,5.61524 -1.6211,0 0,-10.70313 1.31836,0 0.26367,1.46485 0.0781,0 c 0.30598,-0.52083 0.73567,-0.92773 1.28906,-1.22071 0.55989,-0.29295 1.18489,-0.43944 1.875,-0.43945 1.67317,10e-6 2.76692,0.60548 3.28125,1.81641 l 0.0781,0 c 0.319,-0.55989 0.78123,-1.0026 1.38671,-1.32813 0.60546,-0.32551 1.29556,-0.48827 2.07032,-0.48828 1.21092,10e-6 2.11587,0.31251 2.71484,0.9375 0.60545,0.6185 0.90819,1.61134 0.9082,2.97852 l 0,6.98242 -1.62109,0"
         style="font-size:20px"
         id="path3211"
         inkscape:connector-curvature="0" />
      <path
         d="m -134.62305,584.04883 -0.32226,-1.52344 -0.0781,0 c -0.53386,0.67057 -1.06771,1.1263 -1.60156,1.36719 -0.52735,0.23437 -1.18816,0.35156 -1.98242,0.35156 -1.0612,0 -1.89454,-0.27344 -2.5,-0.82031 -0.59896,-0.54688 -0.89844,-1.32487 -0.89844,-2.33399 0,-2.16145 1.72851,-3.29426 5.18555,-3.39843 l 1.8164,-0.0586 0,-0.66406 c 0,-0.83984 -0.1823,-1.45832 -0.54687,-1.85547 -0.35808,-0.40364 -0.93425,-0.60546 -1.72852,-0.60547 -0.89193,1e-5 -1.90104,0.27345 -3.02734,0.82031 l -0.49805,-1.24023 c 0.52734,-0.28645 1.10351,-0.51106 1.72852,-0.67383 0.6315,-0.16275 1.26301,-0.24413 1.89453,-0.24414 1.27603,10e-6 2.22004,0.28322 2.83203,0.84961 0.61848,0.56642 0.92773,1.47462 0.92774,2.72461 l 0,7.30469 -1.20118,0 m -3.66211,-1.14258 c 1.00911,0 1.80013,-0.27669 2.37305,-0.83008 0.57942,-0.55338 0.86913,-1.32812 0.86914,-2.32422 l 0,-0.96679 -1.62109,0.0684 c -1.28907,0.0456 -2.22006,0.2474 -2.79297,0.60546 -0.56641,0.35157 -0.84961,0.9017 -0.84961,1.65039 0,0.58594 0.17578,1.03191 0.52734,1.3379 0.35807,0.30599 0.85612,0.45898 1.49414,0.45898"
         style="font-size:20px"
         id="path3213"
         inkscape:connector-curvature="0" />
      <path
         d="m -127.49414,578.57031 -3.7207,-5.22461 1.8457,0 2.82226,4.10157 2.8125,-4.10157 1.82618,0 -3.72071,5.22461 3.91602,5.47852 -1.83594,0 -2.99805,-4.33594 -3.02734,4.33594 -1.83594,0 3.91602,-5.47852"
         style="font-size:20px"
         id="path3215"
         inkscape:connector-curvature="0" />
      <path
         d="m -117.98242,584.04883 -1.6211,0 0,-10.70313 1.6211,0 0,10.70313 m -1.75781,-13.60352 c -1e-5,-0.37108 0.0911,-0.64126 0.27343,-0.81054 0.18229,-0.17577 0.41016,-0.26366 0.6836,-0.26368 0.26041,2e-5 0.48502,0.0879 0.67382,0.26368 0.1888,0.17579 0.2832,0.44597 0.28321,0.81054 -10e-6,0.3646 -0.0944,0.63804 -0.28321,0.82031 -0.1888,0.1758 -0.41341,0.26369 -0.67382,0.26368 -0.27344,10e-6 -0.50131,-0.0879 -0.6836,-0.26368 -0.18229,-0.18227 -0.27344,-0.45571 -0.27343,-0.82031"
         style="font-size:20px"
         id="path3217"
         inkscape:connector-curvature="0" />
      <path
         d="m -100.88281,584.04883 0,-6.96289 c -2e-5,-0.85286 -0.18231,-1.49088 -0.54688,-1.91407 -0.3646,-0.42967 -0.931,-0.64452 -1.69922,-0.64453 -1.00912,10e-6 -1.75456,0.28973 -2.23632,0.86914 -0.48179,0.57944 -0.72267,1.47137 -0.72266,2.67579 l 0,5.97656 -1.62109,0 0,-6.96289 c -1e-5,-0.85286 -0.1823,-1.49088 -0.54688,-1.91407 -0.36459,-0.42967 -0.93425,-0.64452 -1.70898,-0.64453 -1.01563,10e-6 -1.76108,0.306 -2.23633,0.91797 -0.46876,0.60548 -0.70313,1.60157 -0.70313,2.98828 l 0,5.61524 -1.62109,0 0,-10.70313 1.31836,0 0.26367,1.46485 0.0781,0 c 0.30598,-0.52083 0.73567,-0.92773 1.28906,-1.22071 0.55989,-0.29295 1.18489,-0.43944 1.875,-0.43945 1.67317,10e-6 2.76692,0.60548 3.28125,1.81641 l 0.0781,0 c 0.319,-0.55989 0.78124,-1.0026 1.38672,-1.32813 0.60546,-0.32551 1.29556,-0.48827 2.07031,-0.48828 1.21093,10e-6 2.11587,0.31251 2.71485,0.9375 0.60545,0.6185 0.908184,1.61134 0.908201,2.97852 l 0,6.98242 -1.621091,0"
         style="font-size:20px"
         id="path3219"
         inkscape:connector-curvature="0" />
      <path
         d="m -94.408203,573.3457 0,6.94336 c -3e-6,0.8724 0.198564,1.52344 0.595703,1.95313 0.397131,0.42969 1.018875,0.64453 1.865234,0.64453 1.119785,0 1.936842,-0.30599 2.451172,-0.91797 0.520825,-0.61198 0.781241,-1.61132 0.78125,-2.99805 l 0,-5.625 1.621094,0 0,10.70313 -1.337891,0 -0.234375,-1.43555 -0.08789,0 c -0.33204,0.52735 -0.794279,0.93099 -1.386719,1.21094 -0.585944,0.27995 -1.256517,0.41992 -2.011719,0.41992 -1.302087,0 -2.278649,-0.30924 -2.929687,-0.92773 -0.644533,-0.61849 -0.966799,-1.60807 -0.966797,-2.96875 l 0,-7.00196 1.640625,0"
         style="font-size:20px"
         id="path3221"
         inkscape:connector-curvature="0" />
      <path
         d="m -70.023437,584.04883 0,-6.96289 c -1.6e-5,-0.85286 -0.182307,-1.49088 -0.546875,-1.91407 -0.364598,-0.42967 -0.931004,-0.64452 -1.699219,-0.64453 -1.009127,10e-6 -1.754569,0.28973 -2.236328,0.86914 -0.481782,0.57944 -0.722667,1.47137 -0.722657,2.67579 l 0,5.97656 -1.621093,0 0,-6.96289 c -9e-6,-0.85286 -0.1823,-1.49088 -0.546875,-1.91407 -0.364591,-0.42967 -0.934252,-0.64452 -1.708985,-0.64453 -1.01563,10e-6 -1.761072,0.306 -2.236328,0.91797 -0.468753,0.60548 -0.703128,1.60157 -0.703125,2.98828 l 0,5.61524 -1.621094,0 0,-10.70313 1.31836,0 0.263672,1.46485 0.07813,0 c 0.305986,-0.52083 0.735673,-0.92773 1.289062,-1.22071 0.559891,-0.29295 1.18489,-0.43944 1.875,-0.43945 1.673169,10e-6 2.766918,0.60548 3.28125,1.81641 l 0.07813,0 c 0.319,-0.55989 0.781239,-1.0026 1.386719,-1.32813 0.605457,-0.32551 1.29556,-0.48827 2.070312,-0.48828 1.210923,10e-6 2.11587,0.31251 2.714844,0.9375 0.605452,0.6185 0.908186,1.61134 0.908203,2.97852 l 0,6.98242 -1.621093,0"
         style="font-size:20px"
         id="path3223"
         inkscape:connector-curvature="0" />
      <path
         d="m -54.613281,584.04883 -1.582031,0 0,-10.17578 c -6e-6,-0.84635 0.02604,-1.64713 0.07813,-2.40235 -0.136725,0.13673 -0.289719,0.27996 -0.458985,0.42969 -0.169276,0.14975 -0.944014,0.78452 -2.324219,1.9043 l -0.859375,-1.11328 3.779297,-2.91993 1.367188,0 0,14.27735"
         style="font-size:20px"
         id="path3225"
         inkscape:connector-curvature="0" />
      <path
         d="m -39.115234,580.76758 -2.119141,0 0,3.28125 -1.552734,0 0,-3.28125 -6.94336,0 0,-1.41602 6.777344,-9.6582 1.71875,0 0,9.59961 2.119141,0 0,1.47461 m -3.671875,-1.47461 0,-4.7461 c -8e-6,-0.93097 0.03254,-1.98241 0.09766,-3.15429 l -0.07813,0 c -0.312507,0.62501 -0.605476,1.14259 -0.878906,1.55273 l -4.462891,6.34766 5.322266,0"
         style="font-size:20px"
         id="path3227"
         inkscape:connector-curvature="0" />
      <path
         d="m -37.5625,577.94531 c -10e-7,-2.80598 0.543618,-4.90233 1.630859,-6.28906 1.093747,-1.39322 2.708328,-2.08983 4.84375,-2.08984 0.735669,10e-6 1.315096,0.0619 1.738282,0.18554 l 0,1.39649 c -0.501311,-0.16275 -1.074227,-0.24413 -1.71875,-0.24414 -1.529954,10e-6 -2.698573,0.47853 -3.50586,1.43554 -0.807295,0.95054 -1.250003,2.44793 -1.328125,4.49219 l 0.117188,0 c 0.716142,-1.11978 1.848953,-1.67968 3.398437,-1.67969 1.282545,10e-6 2.291658,0.38738 3.027344,1.16211 0.742177,0.77475 1.113271,1.82618 1.113281,3.1543 -10e-6,1.48438 -0.406911,2.653 -1.220703,3.50586 -0.8073,0.84635 -1.901049,1.26953 -3.28125,1.26953 -1.477869,0 -2.649743,-0.55338 -3.515625,-1.66016 -0.865887,-1.11327 -1.298829,-2.6595 -1.298828,-4.63867 m 4.794922,4.92188 c 0.924472,0 1.640617,-0.28971 2.148437,-0.86914 0.514315,-0.58594 0.771476,-1.42904 0.771485,-2.5293 -9e-6,-0.944 -0.237639,-1.68619 -0.712891,-2.22656 -0.475268,-0.54036 -1.184903,-0.81054 -2.128906,-0.81055 -0.585943,10e-6 -1.123052,0.12045 -1.611328,0.36133 -0.488285,0.24089 -0.87891,0.57292 -1.171875,0.99609 -0.286462,0.42319 -0.429691,0.86264 -0.429688,1.31836 -3e-6,0.67058 0.130206,1.29558 0.390625,1.875 0.260413,0.57943 0.628252,1.03842 1.103516,1.37695 0.481766,0.33855 1.02864,0.50782 1.640625,0.50782"
         style="font-size:20px"
         id="path3229"
         inkscape:connector-curvature="0" />
      <path
         d="m -16.820312,576.89062 c -1.1e-5,2.46746 -0.390636,4.3099 -1.171875,5.52735 -0.774749,1.21745 -1.962898,1.82617 -3.564454,1.82617 -1.536462,0 -2.705081,-0.62174 -3.505859,-1.86523 -0.800783,-1.25 -1.201173,-3.07943 -1.201172,-5.48829 -1e-6,-2.48696 0.387369,-4.33267 1.16211,-5.5371 0.774736,-1.20442 1.956376,-1.80663 3.544921,-1.80665 1.549472,2e-5 2.724601,0.62827 3.525391,1.88477 0.807282,1.25652 1.210927,3.07618 1.210938,5.45898 m -7.802735,0 c -3e-6,2.07683 0.244138,3.5905 0.732422,4.54102 0.488277,0.94401 1.266271,1.41602 2.333984,1.41602 1.080723,0 1.861972,-0.47852 2.34375,-1.43555 0.488273,-0.96354 0.732413,-2.4707 0.732422,-4.52149 -9e-6,-2.05077 -0.244149,-3.55142 -0.732422,-4.50195 -0.481778,-0.95702 -1.263027,-1.43553 -2.34375,-1.43555 -1.067713,2e-5 -1.845707,0.47202 -2.333984,1.41602 -0.488284,0.93751 -0.732425,2.44467 -0.732422,4.52148"
         style="font-size:20px"
         id="path3231"
         inkscape:connector-curvature="0" />
      <path
         d="m -3.9199219,573.16992 c 1.4062419,10e-6 2.4967356,0.48178 3.2714844,1.44531 0.78123925,0.95704 1.17186386,2.31446 1.171875,4.07227 -1.114e-5,1.75782 -0.39389096,3.125 -1.18164062,4.10156 -0.78125918,0.97005 -1.86849768,1.45508 -3.26171878,1.45508 -0.6966206,0 -1.3346408,-0.12695 -1.9140625,-0.38086 -0.5729209,-0.26041 -1.0546912,-0.65755 -1.4453125,-1.19141 l -0.1171875,0 -0.3417968,1.37696 -1.1621094,0 0,-15.19531 1.6210937,0 0,3.6914 c -3.3e-6,0.82684 -0.026045,1.56902 -0.078125,2.22656 l 0.078125,0 c 0.7552043,-1.06769 1.8749948,-1.60155 3.359375,-1.60156 m -0.234375,1.35742 c -1.1067762,10e-6 -1.9043014,0.31902 -2.3925781,0.95703 -0.4882848,0.63152 -0.7324252,1.69923 -0.7324219,3.20313 -3.3e-6,1.50391 0.2506475,2.58138 0.7519532,3.23242 0.5012974,0.64453 1.3053331,0.9668 2.4121093,0.9668 0.9960863,0 1.738273,-0.36133 2.2265625,-1.08399 0.4882721,-0.72916 0.7324124,-1.77408 0.7324219,-3.13476 -9.5e-6,-1.39322 -0.2441498,-2.43163 -0.7324219,-3.11524 -0.4882895,-0.68358 -1.243497,-1.02538 -2.265625,-1.02539"
         style="font-size:20px"
         id="path3233"
         inkscape:connector-curvature="0" />
      <path
         d="m 1.6660156,573.3457 1.7382813,0 2.34375,6.10352 c 0.5143183,1.39323 0.8333284,2.39909 0.9570312,3.01758 l 0.078125,0 c 0.08463,-0.33203 0.2604113,-0.89844 0.5273438,-1.69922 0.2734315,-0.80729 1.1588473,-3.28125 2.65625,-7.42188 l 1.7382811,0 -4.5996093,12.1875 c -0.4557341,1.20443 -0.9895878,2.05729 -1.6015625,2.5586 -0.605472,0.5078 -1.3509139,0.76171 -2.2363281,0.76172 -0.4947928,-10e-6 -0.9830735,-0.0553 -1.4648437,-0.16602 l 0,-1.29883 c 0.3580724,0.0781 0.7584626,0.11719 1.2011719,0.11719 1.1132787,0 1.9075488,-0.625 2.3828124,-1.875 L 5.9824219,584.10742 1.6660156,573.3457"
         style="font-size:20px"
         id="path3235"
         inkscape:connector-curvature="0" />
      <path
         d="m 16.900391,582.90625 c 0.286452,0 0.563145,-0.0195 0.830078,-0.0586 0.266921,-0.0456 0.478509,-0.0911 0.634765,-0.13672 l 0,1.24023 c -0.175787,0.0846 -0.436204,0.153 -0.78125,0.20508 -0.338547,0.0586 -0.644536,0.0879 -0.917968,0.0879 -2.070316,0 -3.105471,-1.09049 -3.105469,-3.27148 l 0,-6.36719 -1.533203,0 0,-0.78125 1.533203,-0.67383 0.683594,-2.28516 0.9375,0 0,2.48047 3.105468,0 0,1.25977 -3.105468,0 0,6.29883 c -4e-6,0.64453 0.152991,1.13932 0.458984,1.48437 0.305985,0.34506 0.725907,0.51758 1.259766,0.51758"
         style="font-size:20px"
         id="path3237"
         inkscape:connector-curvature="0" />
      <path
         d="m 25.035156,584.24414 c -1.582036,0 -2.832034,-0.48177 -3.75,-1.44531 -0.91146,-0.96354 -1.367188,-2.30143 -1.367187,-4.01367 -1e-6,-1.72526 0.423175,-3.0957 1.269531,-4.11133 0.852861,-1.01562 1.995438,-1.52343 3.427734,-1.52344 1.341139,10e-6 2.402336,0.44272 3.183594,1.32813 0.78124,0.87891 1.171865,2.04102 1.171875,3.48632 l 0,1.02539 -7.373047,0 c 0.03255,1.25652 0.348304,2.21029 0.947266,2.86133 0.605464,0.65105 1.455073,0.97657 2.548828,0.97656 1.152336,10e-6 2.291658,-0.24088 3.417969,-0.72265 l 0,1.44531 c -0.572926,0.2474 -1.116545,0.42318 -1.63086,0.52734 -0.50782,0.11068 -1.123053,0.16602 -1.845703,0.16602 m -0.439453,-9.73633 c -0.85938,1e-5 -1.546228,0.27996 -2.060547,0.83985 -0.507815,0.5599 -0.807294,1.33464 -0.898437,2.32421 l 5.595703,0 c -9e-6,-1.02212 -0.227873,-1.80337 -0.683594,-2.34375 -0.455736,-0.54686 -1.106777,-0.8203 -1.953125,-0.82031"
         style="font-size:20px"
         id="path3239"
         inkscape:connector-curvature="0" />
      <path
         d="m 38.628906,581.12891 c -8e-6,0.99609 -0.371102,1.76432 -1.113281,2.30468 -0.742194,0.54037 -1.78386,0.81055 -3.125,0.81055 -1.419274,0 -2.526044,-0.22461 -3.320313,-0.67383 l 0,-1.5039 c 0.514322,0.26041 1.064451,0.46549 1.650391,0.61523 0.592445,0.14974 1.162106,0.22461 1.708984,0.22461 0.846349,0 1.49739,-0.13346 1.953125,-0.40039 0.455723,-0.27344 0.683587,-0.68685 0.683594,-1.24024 -7e-6,-0.41666 -0.182298,-0.77148 -0.546875,-1.06445 -0.358079,-0.29947 -1.061203,-0.65104 -2.109375,-1.05469 -0.996097,-0.37108 -1.705732,-0.69335 -2.128906,-0.96679 -0.416669,-0.27994 -0.729168,-0.5957 -0.9375,-0.94727 -0.201824,-0.35155 -0.302735,-0.77147 -0.302734,-1.25976 -10e-7,-0.87239 0.354816,-1.55924 1.064453,-2.06055 0.709632,-0.5078 1.682939,-0.76171 2.919922,-0.76172 1.152337,10e-6 2.278638,0.23439 3.378906,0.70313 l -0.576172,1.31835 c -1.074225,-0.44269 -2.047532,-0.66405 -2.919922,-0.66406 -0.768233,1e-5 -1.34766,0.12045 -1.738281,0.36133 -0.390628,0.24089 -0.58594,0.57293 -0.585938,0.99609 -2e-6,0.28647 0.07161,0.53061 0.214844,0.73243 0.149737,0.20183 0.387367,0.39388 0.712891,0.57617 0.325517,0.1823 0.950516,0.44597 1.875,0.79101 1.269524,0.46225 2.125643,0.92774 2.568359,1.39649 0.44921,0.46875 0.67382,1.05794 0.673828,1.76758"
         style="font-size:20px"
         id="path3241"
         inkscape:connector-curvature="0" />
      <path
         d="m 44.654297,578.57031 c -5e-6,1.71225 -0.253911,3.3073 -0.761719,4.78516 -0.501306,1.47786 -1.227217,2.76367 -2.177734,3.85742 l -1.5625,0 c 0.904946,-1.22396 1.598305,-2.58138 2.080078,-4.07227 0.481768,-1.49739 0.722653,-3.02733 0.722656,-4.58984 -3e-6,-1.58853 -0.237633,-3.13476 -0.712891,-4.63867 -0.468752,-1.5039 -1.171876,-2.8841 -2.109375,-4.14063 l 1.582032,0 c 0.957028,1.13934 1.686194,2.46421 2.1875,3.97461 0.501297,1.50392 0.751948,3.11199 0.751953,4.82422"
         style="font-size:20px"
         id="path3243"
         inkscape:connector-curvature="0" />
    </g>
    <g
       style="font-size:22px;font-style:normal;font-variant:normal;font-weight:normal;font-stretch:normal;text-align:center;line-height:125%;letter-spacing:0px;word-spacing:0px;text-anchor:middle;fill:#000000;fill-opacity:1;stroke:none;font-family:Open Sans;-inkscape-font-specification:Open Sans"
       id="text5329"
       transform="translate(4.11133,0)">
      <path
         d="m -465.43848,559.50781 0,-14.27734 1.66016,0 0,14.27734 -1.66016,0"
         style="font-size:20px"
         id="path3119"
         inkscape:connector-curvature="0" />
      <path
         d="m -450.7998,549.39062 c -2e-5,1.44533 -0.49481,2.55861 -1.48438,3.33985 -0.98308,0.77474 -2.39258,1.16211 -4.22852,1.16211 l -1.67968,0 0,5.61523 -1.66016,0 0,-14.27734 3.70117,0 c 3.5677,10e-6 5.35155,1.38673 5.35157,4.16015 m -7.39258,3.07618 1.49414,0 c 1.47135,0 2.5358,-0.23763 3.19336,-0.71289 0.65754,-0.47526 0.98632,-1.23697 0.98633,-2.28516 -10e-6,-0.944 -0.30926,-1.64712 -0.92774,-2.10938 -0.6185,-0.46222 -1.58204,-0.69334 -2.89062,-0.69335 l -1.85547,0 0,5.80078"
         style="font-size:20px"
         id="path3121"
         inkscape:connector-curvature="0" />
      <path
         d="m -431.78613,559.50781 -1.66016,0 0,-6.71875 -7.51953,0 0,6.71875 -1.66016,0 0,-14.27734 1.66016,0 0,6.07422 7.51953,0 0,-6.07422 1.66016,0 0,14.27734"
         style="font-size:20px"
         id="path3123"
         inkscape:connector-curvature="0" />
      <path
         d="m -423.58301,559.70312 c -1.58203,0 -2.83203,-0.48177 -3.75,-1.44531 -0.91146,-0.96354 -1.36719,-2.30143 -1.36719,-4.01367 0,-1.72525 0.42318,-3.09569 1.26954,-4.11133 0.85286,-1.01561 1.99543,-1.52342 3.42773,-1.52344 1.34114,2e-5 2.40234,0.44272 3.18359,1.32813 0.78124,0.87891 1.17187,2.04102 1.17188,3.48633 l 0,1.02539 -7.37305,0 c 0.0326,1.25651 0.34831,2.21029 0.94727,2.86133 0.60546,0.65104 1.45507,0.97656 2.54883,0.97656 1.15233,0 2.29165,-0.24088 3.41796,-0.72266 l 0,1.44532 c -0.57292,0.24739 -1.11654,0.42317 -1.63085,0.52734 -0.50782,0.11068 -1.12306,0.16601 -1.84571,0.16601 m -0.43945,-9.73632 c -0.85938,10e-6 -1.54623,0.27995 -2.06055,0.83984 -0.50781,0.5599 -0.80729,1.33464 -0.89844,2.32422 l 5.59571,0 c -10e-6,-1.02213 -0.22787,-1.80338 -0.6836,-2.34375 -0.45573,-0.54687 -1.10677,-0.8203 -1.95312,-0.82031"
         style="font-size:20px"
         id="path3125"
         inkscape:connector-curvature="0" />
      <path
         d="m -410.31152,559.50781 -0.32227,-1.52344 -0.0781,0 c -0.53387,0.67058 -1.06772,1.12631 -1.60157,1.36719 -0.52735,0.23438 -1.18815,0.35156 -1.98242,0.35156 -1.0612,0 -1.89453,-0.27343 -2.5,-0.82031 -0.59896,-0.54687 -0.89844,-1.32487 -0.89844,-2.33398 0,-2.16146 1.72852,-3.29427 5.18555,-3.39844 l 1.81641,-0.0586 0,-0.66407 c -10e-6,-0.83983 -0.1823,-1.45832 -0.54688,-1.85546 -0.35808,-0.40364 -0.93425,-0.60546 -1.72851,-0.60547 -0.89194,1e-5 -1.90105,0.27344 -3.02735,0.82031 l -0.49804,-1.24024 c 0.52734,-0.28644 1.10351,-0.51105 1.72851,-0.67382 0.63151,-0.16275 1.26302,-0.24413 1.89453,-0.24414 1.27604,10e-6 2.22005,0.28321 2.83203,0.84961 0.61848,0.56641 0.92773,1.47461 0.92774,2.7246 l 0,7.30469 -1.20117,0 m -3.66211,-1.14258 c 1.00911,10e-6 1.80012,-0.27669 2.37304,-0.83007 0.57942,-0.55339 0.86914,-1.32813 0.86914,-2.32422 l 0,-0.9668 -1.62109,0.0684 c -1.28907,0.0456 -2.22006,0.2474 -2.79297,0.60547 -0.56641,0.35157 -0.84961,0.9017 -0.84961,1.65039 0,0.58594 0.17578,1.0319 0.52735,1.33789 0.35807,0.30599 0.85611,0.45899 1.49414,0.45898"
         style="font-size:20px"
         id="path3127"
         inkscape:connector-curvature="0" />
      <path
         d="m -398.47559,558.07227 -0.0879,0 c -0.7487,1.08724 -1.86849,1.63085 -3.35937,1.63085 -1.39975,0 -2.49024,-0.47851 -3.27149,-1.43554 -0.77474,-0.95703 -1.16211,-2.31771 -1.16211,-4.08203 0,-1.76432 0.39063,-3.13476 1.17188,-4.11133 0.78125,-0.97655 1.86849,-1.46483 3.26172,-1.46485 1.45181,2e-5 2.56509,0.52736 3.33984,1.58204 l 0.12696,0 -0.0684,-0.77149 -0.0391,-0.75195 0,-4.35547 1.6211,0 0,15.19531 -1.31836,0 -0.21485,-1.43554 m -3.24218,0.27343 c 1.10676,0 1.90754,-0.29947 2.40234,-0.89843 0.50129,-0.60547 0.75194,-1.57878 0.75195,-2.91993 l 0,-0.34179 c -1e-5,-1.51692 -0.25391,-2.59765 -0.76172,-3.24219 -0.50131,-0.65103 -1.30534,-0.97655 -2.4121,-0.97656 -0.95053,10e-6 -1.6797,0.3711 -2.1875,1.11328 -0.50131,0.73568 -0.75196,1.77735 -0.75196,3.125 0,1.36719 0.25065,2.39909 0.75196,3.0957 0.50129,0.69662 1.23697,1.04492 2.20703,1.04492"
         style="font-size:20px"
         id="path3129"
         inkscape:connector-curvature="0" />
      <path
         d="m -388.97363,559.70312 c -1.58204,0 -2.83204,-0.48177 -3.75,-1.44531 -0.91146,-0.96354 -1.36719,-2.30143 -1.36719,-4.01367 0,-1.72525 0.42318,-3.09569 1.26953,-4.11133 0.85286,-1.01561 1.99544,-1.52342 3.42774,-1.52344 1.34113,2e-5 2.40233,0.44272 3.18359,1.32813 0.78124,0.87891 1.17186,2.04102 1.17187,3.48633 l 0,1.02539 -7.37304,0 c 0.0326,1.25651 0.3483,2.21029 0.94726,2.86133 0.60547,0.65104 1.45508,0.97656 2.54883,0.97656 1.15234,0 2.29166,-0.24088 3.41797,-0.72266 l 0,1.44532 c -0.57293,0.24739 -1.11655,0.42317 -1.63086,0.52734 -0.50782,0.11068 -1.12305,0.16601 -1.8457,0.16601 m -0.43946,-9.73632 c -0.85938,10e-6 -1.54622,0.27995 -2.06054,0.83984 -0.50782,0.5599 -0.8073,1.33464 -0.89844,2.32422 l 5.5957,0 c -1e-5,-1.02213 -0.22787,-1.80338 -0.68359,-2.34375 -0.45574,-0.54687 -1.10678,-0.8203 -1.95313,-0.82031"
         style="font-size:20px"
         id="path3131"
         inkscape:connector-curvature="0" />
      <path
         d="m -377.40137,548.60937 c 0.47526,2e-5 0.90169,0.0391 1.2793,0.11719 l -0.22461,1.50391 c -0.44272,-0.0976 -0.83334,-0.14648 -1.17187,-0.14649 -0.8659,10e-6 -1.60808,0.35158 -2.22657,1.05469 -0.61198,0.70313 -0.91797,1.57878 -0.91797,2.62695 l 0,5.74219 -1.62109,0 0,-10.70312 1.33789,0 0.18555,1.98242 0.0781,0 c 0.39713,-0.69661 0.87565,-1.23371 1.43555,-1.61133 0.55989,-0.37759 1.17512,-0.56639 1.8457,-0.56641"
         style="font-size:20px"
         id="path3133"
         inkscape:connector-curvature="0" />
      <path
         d="m -463.28027,579.0293 c 0,-1.72526 0.25065,-3.33984 0.75195,-4.84375 0.50781,-1.5039 1.23698,-2.82226 2.1875,-3.95508 l 1.58203,0 c -0.9375,1.25652 -1.64388,2.63673 -2.11914,4.14062 -0.46875,1.50392 -0.70313,3.05014 -0.70312,4.63868 -10e-6,1.5625 0.24088,3.08919 0.72265,4.58007 0.48177,1.49089 1.17513,2.85156 2.08008,4.08203 l -1.5625,0 c -0.95703,-1.10677 -1.6862,-2.39908 -2.1875,-3.87695 -0.5013,-1.47786 -0.75195,-3.0664 -0.75195,-4.76562"
         style="font-size:20px"
         id="path3135"
         inkscape:connector-curvature="0" />
      <path
         d="m -447.78223,584.50781 -9.38476,0 0,-1.39648 3.75976,-3.7793 c 1.14583,-1.15885 1.90104,-1.98567 2.26563,-2.48047 0.36457,-0.49478 0.63801,-0.97655 0.82031,-1.44531 0.18228,-0.46874 0.27343,-0.9733 0.27344,-1.51367 -1e-5,-0.76171 -0.23113,-1.36392 -0.69336,-1.80664 -0.46225,-0.44921 -1.10352,-0.67382 -1.92383,-0.67383 -0.59245,10e-6 -1.1556,0.0977 -1.68945,0.29297 -0.52735,0.19532 -1.11654,0.55014 -1.76758,1.06445 l -0.85938,-1.10351 c 1.31511,-1.09374 2.7474,-1.64061 4.29688,-1.64063 1.34114,2e-5 2.39257,0.34507 3.1543,1.03516 0.76171,0.6836 1.14256,1.60483 1.14257,2.76367 -1e-5,0.90496 -0.25391,1.80014 -0.76171,2.68555 -0.50783,0.88542 -1.45834,2.00521 -2.85157,3.35937 l -3.125,3.05664 0,0.0781 7.34375,0 0,1.5039"
         style="font-size:20px"
         id="path3137"
         inkscape:connector-curvature="0" />
      <path
         d="m -436.25879,577.34961 c -1e-5,2.46745 -0.39063,4.3099 -1.17187,5.52734 -0.77475,1.21745 -1.9629,1.82617 -3.56446,1.82617 -1.53646,0 -2.70508,-0.62174 -3.50586,-1.86523 -0.80078,-1.25 -1.20117,-3.07942 -1.20117,-5.48828 0,-2.48697 0.38737,-4.33267 1.16211,-5.53711 0.77474,-1.20441 1.95638,-1.80663 3.54492,-1.80664 1.54947,10e-6 2.7246,0.62827 3.52539,1.88476 0.80729,1.25653 1.21093,3.07619 1.21094,5.45899 m -7.80273,0 c -1e-5,2.07683 0.24413,3.5905 0.73242,4.54101 0.48828,0.94402 1.26627,1.41602 2.33398,1.41602 1.08073,0 1.86197,-0.47851 2.34375,-1.43555 0.48828,-0.96353 0.73242,-2.47069 0.73242,-4.52148 0,-2.05077 -0.24414,-3.55142 -0.73242,-4.50195 -0.48178,-0.95702 -1.26302,-1.43554 -2.34375,-1.43555 -1.06771,10e-6 -1.8457,0.47202 -2.33398,1.41601 -0.48829,0.93752 -0.73243,2.44468 -0.73242,4.52149"
         style="font-size:20px"
         id="path3139"
         inkscape:connector-curvature="0" />
      <path
         d="m -423.3584,573.62891 c 1.40624,10e-6 2.49674,0.48178 3.27149,1.44531 0.78124,0.95704 1.17186,2.31446 1.17187,4.07226 -1e-5,1.75782 -0.39389,3.12501 -1.18164,4.10157 -0.78126,0.97005 -1.8685,1.45507 -3.26172,1.45507 -0.69662,0 -1.33464,-0.12695 -1.91406,-0.38085 -0.57292,-0.26042 -1.05469,-0.65756 -1.44531,-1.19141 l -0.11719,0 -0.3418,1.37695 -1.16211,0 0,-15.19531 1.6211,0 0,3.69141 c -1e-5,0.82683 -0.0261,1.56902 -0.0781,2.22656 l 0.0781,0 c 0.7552,-1.0677 1.87499,-1.60155 3.35937,-1.60156 m -0.23437,1.35742 c -1.10678,1e-5 -1.9043,0.31902 -2.39258,0.95703 -0.48829,0.63152 -0.73243,1.69922 -0.73242,3.20312 -1e-5,1.50391 0.25064,2.58139 0.75195,3.23243 0.5013,0.64453 1.30533,0.96679 2.41211,0.96679 0.99609,0 1.73827,-0.36132 2.22656,-1.08398 0.48827,-0.72916 0.73241,-1.77409 0.73242,-3.13477 -10e-6,-1.39322 -0.24415,-2.43163 -0.73242,-3.11523 -0.48829,-0.68359 -1.2435,-1.02538 -2.26562,-1.02539"
         style="font-size:20px"
         id="path3141"
         inkscape:connector-curvature="0" />
      <path
         d="m -417.77246,573.80469 1.73828,0 2.34375,6.10351 c 0.51432,1.39324 0.83333,2.39909 0.95703,3.01758 l 0.0781,0 c 0.0846,-0.33203 0.26041,-0.89843 0.52734,-1.69922 0.27343,-0.80729 1.15885,-3.28124 2.65625,-7.42187 l 1.73828,0 -4.59961,12.1875 c -0.45573,1.20442 -0.98959,2.05729 -1.60156,2.55859 -0.60547,0.50781 -1.35091,0.76172 -2.23633,0.76172 -0.49479,0 -0.98307,-0.0553 -1.46484,-0.16602 l 0,-1.29882 c 0.35807,0.0781 0.75846,0.11718 1.20117,0.11718 1.11328,0 1.90755,-0.625 2.38281,-1.875 l 0.59571,-1.52343 -4.31641,-10.76172"
         style="font-size:20px"
         id="path3143"
         inkscape:connector-curvature="0" />
      <path
         d="m -402.53809,583.36523 c 0.28646,10e-6 0.56315,-0.0195 0.83008,-0.0586 0.26692,-0.0456 0.47851,-0.0911 0.63477,-0.13672 l 0,1.24024 c -0.17579,0.0846 -0.43621,0.15299 -0.78125,0.20507 -0.33855,0.0586 -0.64454,0.0879 -0.91797,0.0879 -2.07032,0 -3.10547,-1.09049 -3.10547,-3.27148 l 0,-6.36719 -1.5332,0 0,-0.78125 1.5332,-0.67383 0.68359,-2.28515 0.9375,0 0,2.48047 3.10547,0 0,1.25976 -3.10547,0 0,6.29883 c 0,0.64454 0.153,1.13933 0.45899,1.48438 0.30598,0.34505 0.72591,0.51758 1.25976,0.51757"
         style="font-size:20px"
         id="path3145"
         inkscape:connector-curvature="0" />
      <path
         d="m -394.40332,584.70312 c -1.58204,0 -2.83203,-0.48177 -3.75,-1.44531 -0.91146,-0.96354 -1.36719,-2.30143 -1.36719,-4.01367 0,-1.72525 0.42318,-3.09569 1.26953,-4.11133 0.85286,-1.01561 1.99544,-1.52342 3.42774,-1.52344 1.34114,2e-5 2.40233,0.44272 3.18359,1.32813 0.78124,0.87891 1.17187,2.04102 1.17188,3.48633 l 0,1.02539 -7.37305,0 c 0.0326,1.25651 0.3483,2.21029 0.94727,2.86133 0.60546,0.65104 1.45507,0.97656 2.54882,0.97656 1.15234,0 2.29166,-0.24088 3.41797,-0.72266 l 0,1.44532 c -0.57292,0.24739 -1.11654,0.42317 -1.63086,0.52734 -0.50782,0.11068 -1.12305,0.16601 -1.8457,0.16601 m -0.43945,-9.73632 c -0.85938,10e-6 -1.54623,0.27995 -2.06055,0.83984 -0.50782,0.5599 -0.80729,1.33464 -0.89844,2.32422 l 5.59571,0 c -10e-6,-1.02213 -0.22788,-1.80338 -0.6836,-2.34375 -0.45573,-0.54687 -1.10678,-0.8203 -1.95312,-0.82031"
         style="font-size:20px"
         id="path3147"
         inkscape:connector-curvature="0" />
      <path
         d="m -380.80957,581.58789 c -10e-6,0.9961 -0.3711,1.76432 -1.11328,2.30469 -0.7422,0.54036 -1.78386,0.81054 -3.125,0.81054 -1.41928,0 -2.52605,-0.2246 -3.32031,-0.67382 l 0,-1.50391 c 0.51432,0.26042 1.06445,0.4655 1.65039,0.61523 0.59244,0.14975 1.1621,0.22462 1.70898,0.22461 0.84635,10e-6 1.49739,-0.13346 1.95313,-0.40039 0.45572,-0.27343 0.68358,-0.68684 0.68359,-1.24023 -10e-6,-0.41666 -0.1823,-0.77148 -0.54688,-1.06445 -0.35807,-0.29948 -1.0612,-0.65104 -2.10937,-1.05469 -0.9961,-0.37109 -1.70573,-0.69336 -2.12891,-0.9668 -0.41667,-0.27994 -0.72916,-0.59569 -0.9375,-0.94726 -0.20182,-0.35156 -0.30273,-0.77148 -0.30273,-1.25977 0,-0.87239 0.35482,-1.55923 1.06445,-2.06055 0.70963,-0.5078 1.68294,-0.7617 2.91992,-0.76172 1.15234,2e-5 2.27864,0.23439 3.37891,0.70313 l -0.57617,1.31836 c -1.07423,-0.4427 -2.04753,-0.66405 -2.91992,-0.66406 -0.76824,10e-6 -1.34766,0.12045 -1.73828,0.36132 -0.39063,0.2409 -0.58594,0.57293 -0.58594,0.9961 0,0.28646 0.0716,0.53061 0.21484,0.73242 0.14974,0.20183 0.38737,0.39389 0.71289,0.57617 0.32552,0.1823 0.95052,0.44597 1.875,0.79102 1.26953,0.46224 2.12565,0.92774 2.56836,1.39648 0.44921,0.46876 0.67382,1.05795 0.67383,1.76758"
         style="font-size:20px"
         id="path3149"
         inkscape:connector-curvature="0" />
      <path
         d="m -374.78418,579.0293 c 0,1.71224 -0.25391,3.30729 -0.76172,4.78515 -0.5013,1.47787 -1.22722,2.76367 -2.17773,3.85742 l -1.5625,0 c 0.90494,-1.22396 1.5983,-2.58138 2.08008,-4.07226 0.48176,-1.49739 0.72265,-3.02734 0.72265,-4.58984 0,-1.58854 -0.23763,-3.13476 -0.71289,-4.63868 -0.46875,-1.50389 -1.17188,-2.8841 -2.10937,-4.14062 l 1.58203,0 c 0.95703,1.13933 1.68619,2.4642 2.1875,3.97461 0.50129,1.50391 0.75195,3.11198 0.75195,4.82422"
         style="font-size:20px"
         id="path3151"
         inkscape:connector-curvature="0" />
    </g>
    <g
       style="font-size:22px;font-style:normal;font-variant:normal;font-weight:normal;font-stretch:normal;text-align:center;line-height:125%;letter-spacing:0px;word-spacing:0px;text-anchor:middle;fill:#000000;fill-opacity:1;stroke:none;font-family:Open Sans;-inkscape-font-specification:Open Sans"
       id="text5335"
       transform="translate(15.000015,0)">
      <path
         d="m -349.41309,559.50781 -1.66015,0 0,-12.80273 -4.52149,0 0,-1.47461 10.70313,0 0,1.47461 -4.52149,0 0,12.80273"
         style="font-size:20px"
         id="path3154"
         inkscape:connector-curvature="0" />
      <path
         d="m -336.63965,546.50977 c -1.56902,10e-6 -2.80925,0.5241 -3.7207,1.57226 -0.90495,1.04168 -1.35743,2.47071 -1.35742,4.28711 -1e-5,1.8685 0.43619,3.31381 1.30859,4.33594 0.8789,1.01562 2.1289,1.52344 3.75,1.52344 0.99609,0 2.13215,-0.17904 3.4082,-0.53711 l 0,1.45507 c -0.98959,0.3711 -2.21029,0.55664 -3.66211,0.55664 -2.10287,0 -3.72721,-0.63802 -4.87304,-1.91406 -1.13933,-1.27604 -1.70899,-3.08919 -1.70899,-5.43945 0,-1.47135 0.27344,-2.76041 0.82032,-3.86719 0.55338,-1.10676 1.34765,-1.95962 2.38281,-2.55859 1.04166,-0.59895 2.26562,-0.89842 3.67187,-0.89844 1.49739,2e-5 2.80598,0.27345 3.92578,0.82031 l -0.70312,1.42578 c -1.08074,-0.5078 -2.16147,-0.7617 -3.24219,-0.76171"
         style="font-size:20px"
         id="path3156"
         inkscape:connector-curvature="0" />
      <path
         d="m -321.08301,549.39062 c -10e-6,1.44533 -0.4948,2.55861 -1.48437,3.33985 -0.98308,0.77474 -2.39259,1.16211 -4.22852,1.16211 l -1.67969,0 0,5.61523 -1.66015,0 0,-14.27734 3.70117,0 c 3.5677,10e-6 5.35155,1.38673 5.35156,4.16015 m -7.39258,3.07618 1.49414,0 c 1.47135,0 2.5358,-0.23763 3.19336,-0.71289 0.65755,-0.47526 0.98632,-1.23697 0.98633,-2.28516 -10e-6,-0.944 -0.30925,-1.64712 -0.92773,-2.10938 -0.6185,-0.46222 -1.58204,-0.69334 -2.89063,-0.69335 l -1.85547,0 0,5.80078"
         style="font-size:20px"
         id="path3158"
         inkscape:connector-curvature="0" />
      <path
         d="m -302.06934,559.50781 -1.66015,0 0,-6.71875 -7.51953,0 0,6.71875 -1.66016,0 0,-14.27734 1.66016,0 0,6.07422 7.51953,0 0,-6.07422 1.66015,0 0,14.27734"
         style="font-size:20px"
         id="path3160"
         inkscape:connector-curvature="0" />
      <path
         d="m -293.86621,559.70312 c -1.58204,0 -2.83204,-0.48177 -3.75,-1.44531 -0.91146,-0.96354 -1.36719,-2.30143 -1.36719,-4.01367 0,-1.72525 0.42318,-3.09569 1.26953,-4.11133 0.85286,-1.01561 1.99544,-1.52342 3.42774,-1.52344 1.34114,2e-5 2.40233,0.44272 3.18359,1.32813 0.78124,0.87891 1.17187,2.04102 1.17188,3.48633 l 0,1.02539 -7.37305,0 c 0.0326,1.25651 0.3483,2.21029 0.94726,2.86133 0.60547,0.65104 1.45508,0.97656 2.54883,0.97656 1.15234,0 2.29166,-0.24088 3.41797,-0.72266 l 0,1.44532 c -0.57292,0.24739 -1.11654,0.42317 -1.63086,0.52734 -0.50782,0.11068 -1.12305,0.16601 -1.8457,0.16601 m -0.43945,-9.73632 c -0.85938,10e-6 -1.54623,0.27995 -2.06055,0.83984 -0.50782,0.5599 -0.8073,1.33464 -0.89844,2.32422 l 5.5957,0 c 0,-1.02213 -0.22787,-1.80338 -0.68359,-2.34375 -0.45574,-0.54687 -1.10678,-0.8203 -1.95312,-0.82031"
         style="font-size:20px"
         id="path3162"
         inkscape:connector-curvature="0" />
      <path
         d="m -280.59473,559.50781 -0.32226,-1.52344 -0.0781,0 c -0.53386,0.67058 -1.06771,1.12631 -1.60156,1.36719 -0.52735,0.23438 -1.18816,0.35156 -1.98242,0.35156 -1.0612,0 -1.89454,-0.27343 -2.5,-0.82031 -0.59896,-0.54687 -0.89844,-1.32487 -0.89844,-2.33398 0,-2.16146 1.72851,-3.29427 5.18555,-3.39844 l 1.8164,-0.0586 0,-0.66407 c 0,-0.83983 -0.1823,-1.45832 -0.54687,-1.85546 -0.35808,-0.40364 -0.93425,-0.60546 -1.72852,-0.60547 -0.89193,1e-5 -1.90104,0.27344 -3.02734,0.82031 l -0.49805,-1.24024 c 0.52734,-0.28644 1.10352,-0.51105 1.72852,-0.67382 0.6315,-0.16275 1.26301,-0.24413 1.89453,-0.24414 1.27603,10e-6 2.22004,0.28321 2.83203,0.84961 0.61848,0.56641 0.92773,1.47461 0.92774,2.7246 l 0,7.30469 -1.20118,0 m -3.66211,-1.14258 c 1.00911,10e-6 1.80013,-0.27669 2.37305,-0.83007 0.57942,-0.55339 0.86913,-1.32813 0.86914,-2.32422 l 0,-0.9668 -1.62109,0.0684 c -1.28907,0.0456 -2.22006,0.2474 -2.79297,0.60547 -0.56641,0.35157 -0.84961,0.9017 -0.84961,1.65039 0,0.58594 0.17578,1.0319 0.52734,1.33789 0.35807,0.30599 0.85612,0.45899 1.49414,0.45898"
         style="font-size:20px"
         id="path3164"
         inkscape:connector-curvature="0" />
      <path
         d="m -268.75879,558.07227 -0.0879,0 c -0.74871,1.08724 -1.8685,1.63085 -3.35937,1.63085 -1.39975,0 -2.49024,-0.47851 -3.27149,-1.43554 -0.77474,-0.95703 -1.16211,-2.31771 -1.16211,-4.08203 0,-1.76432 0.39063,-3.13476 1.17188,-4.11133 0.78124,-0.97655 1.86848,-1.46483 3.26172,-1.46485 1.45181,2e-5 2.56509,0.52736 3.33984,1.58204 l 0.12695,0 -0.0684,-0.77149 -0.0391,-0.75195 0,-4.35547 1.62109,0 0,15.19531 -1.31836,0 -0.21484,-1.43554 m -3.24219,0.27343 c 1.10677,0 1.90755,-0.29947 2.40235,-0.89843 0.50129,-0.60547 0.75194,-1.57878 0.75195,-2.91993 l 0,-0.34179 c -1e-5,-1.51692 -0.25391,-2.59765 -0.76172,-3.24219 -0.50131,-0.65103 -1.30534,-0.97655 -2.41211,-0.97656 -0.95052,10e-6 -1.67969,0.3711 -2.1875,1.11328 -0.5013,0.73568 -0.75195,1.77735 -0.75195,3.125 0,1.36719 0.25065,2.39909 0.75195,3.0957 0.5013,0.69662 1.23698,1.04492 2.20703,1.04492"
         style="font-size:20px"
         id="path3166"
         inkscape:connector-curvature="0" />
      <path
         d="m -259.25684,559.70312 c -1.58203,0 -2.83203,-0.48177 -3.75,-1.44531 -0.91146,-0.96354 -1.36718,-2.30143 -1.36718,-4.01367 0,-1.72525 0.42317,-3.09569 1.26953,-4.11133 0.85286,-1.01561 1.99544,-1.52342 3.42773,-1.52344 1.34114,2e-5 2.40234,0.44272 3.1836,1.32813 0.78124,0.87891 1.17186,2.04102 1.17187,3.48633 l 0,1.02539 -7.37305,0 c 0.0326,1.25651 0.34831,2.21029 0.94727,2.86133 0.60546,0.65104 1.45507,0.97656 2.54883,0.97656 1.15233,0 2.29166,-0.24088 3.41797,-0.72266 l 0,1.44532 c -0.57293,0.24739 -1.11655,0.42317 -1.63086,0.52734 -0.50782,0.11068 -1.12306,0.16601 -1.84571,0.16601 m -0.43945,-9.73632 c -0.85938,10e-6 -1.54623,0.27995 -2.06055,0.83984 -0.50781,0.5599 -0.80729,1.33464 -0.89843,2.32422 l 5.5957,0 c -10e-6,-1.02213 -0.22787,-1.80338 -0.68359,-2.34375 -0.45574,-0.54687 -1.10678,-0.8203 -1.95313,-0.82031"
         style="font-size:20px"
         id="path3168"
         inkscape:connector-curvature="0" />
      <path
         d="m -247.68457,548.60937 c 0.47525,2e-5 0.90168,0.0391 1.2793,0.11719 l -0.22461,1.50391 c -0.44272,-0.0976 -0.83334,-0.14648 -1.17188,-0.14649 -0.86589,10e-6 -1.60808,0.35158 -2.22656,1.05469 -0.61198,0.70313 -0.91797,1.57878 -0.91797,2.62695 l 0,5.74219 -1.62109,0 0,-10.70312 1.33789,0 0.18554,1.98242 0.0781,0 c 0.39713,-0.69661 0.87565,-1.23371 1.43555,-1.61133 0.55989,-0.37759 1.17512,-0.56639 1.8457,-0.56641"
         style="font-size:20px"
         id="path3170"
         inkscape:connector-curvature="0" />
      <path
         d="m -345.2041,579.0293 c 0,-1.72526 0.25065,-3.33984 0.75195,-4.84375 0.50781,-1.5039 1.23698,-2.82226 2.1875,-3.95508 l 1.58203,0 c -0.9375,1.25652 -1.64388,2.63673 -2.11914,4.14062 -0.46875,1.50392 -0.70313,3.05014 -0.70312,4.63868 -10e-6,1.5625 0.24088,3.08919 0.72265,4.58007 0.48177,1.49089 1.17513,2.85156 2.08008,4.08203 l -1.5625,0 c -0.95703,-1.10677 -1.6862,-2.39908 -2.1875,-3.87695 -0.5013,-1.47786 -0.75195,-3.0664 -0.75195,-4.76562"
         style="font-size:20px"
         id="path3172"
         inkscape:connector-curvature="0" />
      <path
         d="m -329.70605,584.50781 -9.38477,0 0,-1.39648 3.75977,-3.7793 c 1.14582,-1.15885 1.90103,-1.98567 2.26562,-2.48047 0.36458,-0.49478 0.63801,-0.97655 0.82031,-1.44531 0.18229,-0.46874 0.27343,-0.9733 0.27344,-1.51367 -1e-5,-0.76171 -0.23113,-1.36392 -0.69336,-1.80664 -0.46225,-0.44921 -1.10352,-0.67382 -1.92383,-0.67383 -0.59245,10e-6 -1.1556,0.0977 -1.68945,0.29297 -0.52735,0.19532 -1.11654,0.55014 -1.76758,1.06445 l -0.85937,-1.10351 c 1.3151,-1.09374 2.74739,-1.64061 4.29687,-1.64063 1.34114,2e-5 2.39257,0.34507 3.1543,1.03516 0.76171,0.6836 1.14257,1.60483 1.14258,2.76367 -1e-5,0.90496 -0.25392,1.80014 -0.76172,2.68555 -0.50782,0.88542 -1.45834,2.00521 -2.85156,3.35937 l -3.125,3.05664 0,0.0781 7.34375,0 0,1.5039"
         style="font-size:20px"
         id="path3174"
         inkscape:connector-curvature="0" />
      <path
         d="m -318.18262,577.34961 c -1e-5,2.46745 -0.39063,4.3099 -1.17187,5.52734 -0.77475,1.21745 -1.9629,1.82617 -3.56446,1.82617 -1.53646,0 -2.70508,-0.62174 -3.50585,-1.86523 -0.80079,-1.25 -1.20118,-3.07942 -1.20118,-5.48828 0,-2.48697 0.38737,-4.33267 1.16211,-5.53711 0.77474,-1.20441 1.95638,-1.80663 3.54492,-1.80664 1.54948,10e-6 2.72461,0.62827 3.5254,1.88476 0.80728,1.25653 1.21092,3.07619 1.21093,5.45899 m -7.80273,0 c 0,2.07683 0.24414,3.5905 0.73242,4.54101 0.48828,0.94402 1.26627,1.41602 2.33398,1.41602 1.08073,0 1.86198,-0.47851 2.34375,-1.43555 0.48828,-0.96353 0.73242,-2.47069 0.73243,-4.52148 -1e-5,-2.05077 -0.24415,-3.55142 -0.73243,-4.50195 -0.48177,-0.95702 -1.26302,-1.43554 -2.34375,-1.43555 -1.06771,10e-6 -1.8457,0.47202 -2.33398,1.41601 -0.48828,0.93752 -0.73242,2.44468 -0.73242,4.52149"
         style="font-size:20px"
         id="path3176"
         inkscape:connector-curvature="0" />
      <path
         d="m -305.28223,573.62891 c 1.40625,10e-6 2.49674,0.48178 3.27149,1.44531 0.78124,0.95704 1.17186,2.31446 1.17187,4.07226 -1e-5,1.75782 -0.39389,3.12501 -1.18164,4.10157 -0.78126,0.97005 -1.8685,1.45507 -3.26172,1.45507 -0.69662,0 -1.33464,-0.12695 -1.91406,-0.38085 -0.57292,-0.26042 -1.05469,-0.65756 -1.44531,-1.19141 l -0.11719,0 -0.3418,1.37695 -1.16211,0 0,-15.19531 1.6211,0 0,3.69141 c 0,0.82683 -0.026,1.56902 -0.0781,2.22656 l 0.0781,0 c 0.7552,-1.0677 1.87499,-1.60155 3.35937,-1.60156 m -0.23437,1.35742 c -1.10678,1e-5 -1.9043,0.31902 -2.39258,0.95703 -0.48828,0.63152 -0.73242,1.69922 -0.73242,3.20312 0,1.50391 0.25065,2.58139 0.75195,3.23243 0.5013,0.64453 1.30533,0.96679 2.41211,0.96679 0.99609,0 1.73827,-0.36132 2.22656,-1.08398 0.48828,-0.72916 0.73242,-1.77409 0.73243,-3.13477 -10e-6,-1.39322 -0.24415,-2.43163 -0.73243,-3.11523 -0.48829,-0.68359 -1.24349,-1.02538 -2.26562,-1.02539"
         style="font-size:20px"
         id="path3178"
         inkscape:connector-curvature="0" />
      <path
         d="m -299.69629,573.80469 1.73828,0 2.34375,6.10351 c 0.51432,1.39324 0.83333,2.39909 0.95703,3.01758 l 0.0781,0 c 0.0846,-0.33203 0.26041,-0.89843 0.52734,-1.69922 0.27343,-0.80729 1.15885,-3.28124 2.65625,-7.42187 l 1.73828,0 -4.59961,12.1875 c -0.45573,1.20442 -0.98958,2.05729 -1.60156,2.55859 -0.60547,0.50781 -1.35091,0.76172 -2.23633,0.76172 -0.49479,0 -0.98307,-0.0553 -1.46484,-0.16602 l 0,-1.29882 c 0.35807,0.0781 0.75846,0.11718 1.20117,0.11718 1.11328,0 1.90755,-0.625 2.38281,-1.875 l 0.59571,-1.52343 -4.31641,-10.76172"
         style="font-size:20px"
         id="path3180"
         inkscape:connector-curvature="0" />
      <path
         d="m -284.46191,583.36523 c 0.28645,10e-6 0.56314,-0.0195 0.83007,-0.0586 0.26692,-0.0456 0.47851,-0.0911 0.63477,-0.13672 l 0,1.24024 c -0.17579,0.0846 -0.4362,0.15299 -0.78125,0.20507 -0.33855,0.0586 -0.64454,0.0879 -0.91797,0.0879 -2.07031,0 -3.10547,-1.09049 -3.10547,-3.27148 l 0,-6.36719 -1.5332,0 0,-0.78125 1.5332,-0.67383 0.6836,-2.28515 0.9375,0 0,2.48047 3.10546,0 0,1.25976 -3.10546,0 0,6.29883 c -1e-5,0.64454 0.15299,1.13933 0.45898,1.48438 0.30599,0.34505 0.72591,0.51758 1.25977,0.51757"
         style="font-size:20px"
         id="path3182"
         inkscape:connector-curvature="0" />
      <path
         d="m -276.32715,584.70312 c -1.58203,0 -2.83203,-0.48177 -3.75,-1.44531 -0.91146,-0.96354 -1.36719,-2.30143 -1.36719,-4.01367 0,-1.72525 0.42318,-3.09569 1.26954,-4.11133 0.85286,-1.01561 1.99543,-1.52342 3.42773,-1.52344 1.34114,2e-5 2.40234,0.44272 3.18359,1.32813 0.78124,0.87891 1.17187,2.04102 1.17188,3.48633 l 0,1.02539 -7.37305,0 c 0.0326,1.25651 0.34831,2.21029 0.94727,2.86133 0.60546,0.65104 1.45507,0.97656 2.54883,0.97656 1.15233,0 2.29165,-0.24088 3.41796,-0.72266 l 0,1.44532 c -0.57292,0.24739 -1.11654,0.42317 -1.63086,0.52734 -0.50782,0.11068 -1.12305,0.16601 -1.8457,0.16601 m -0.43945,-9.73632 c -0.85938,10e-6 -1.54623,0.27995 -2.06055,0.83984 -0.50781,0.5599 -0.80729,1.33464 -0.89844,2.32422 l 5.59571,0 c -10e-6,-1.02213 -0.22788,-1.80338 -0.6836,-2.34375 -0.45573,-0.54687 -1.10677,-0.8203 -1.95312,-0.82031"
         style="font-size:20px"
         id="path3184"
         inkscape:connector-curvature="0" />
      <path
         d="m -262.7334,581.58789 c -10e-6,0.9961 -0.3711,1.76432 -1.11328,2.30469 -0.74219,0.54036 -1.78386,0.81054 -3.125,0.81054 -1.41927,0 -2.52604,-0.2246 -3.32031,-0.67382 l 0,-1.50391 c 0.51432,0.26042 1.06445,0.4655 1.65039,0.61523 0.59244,0.14975 1.1621,0.22462 1.70898,0.22461 0.84635,10e-6 1.49739,-0.13346 1.95313,-0.40039 0.45572,-0.27343 0.68358,-0.68684 0.68359,-1.24023 -10e-6,-0.41666 -0.1823,-0.77148 -0.54687,-1.06445 -0.35808,-0.29948 -1.06121,-0.65104 -2.10938,-1.05469 -0.9961,-0.37109 -1.70573,-0.69336 -2.1289,-0.9668 -0.41667,-0.27994 -0.72917,-0.59569 -0.9375,-0.94726 -0.20183,-0.35156 -0.30274,-0.77148 -0.30274,-1.25977 0,-0.87239 0.35482,-1.55923 1.06445,-2.06055 0.70964,-0.5078 1.68294,-0.7617 2.91993,-0.76172 1.15233,2e-5 2.27863,0.23439 3.3789,0.70313 l -0.57617,1.31836 c -1.07423,-0.4427 -2.04753,-0.66405 -2.91992,-0.66406 -0.76823,10e-6 -1.34766,0.12045 -1.73828,0.36132 -0.39063,0.2409 -0.58594,0.57293 -0.58594,0.9961 0,0.28646 0.0716,0.53061 0.21484,0.73242 0.14974,0.20183 0.38737,0.39389 0.71289,0.57617 0.32552,0.1823 0.95052,0.44597 1.875,0.79102 1.26953,0.46224 2.12565,0.92774 2.56836,1.39648 0.44921,0.46876 0.67382,1.05795 0.67383,1.76758"
         style="font-size:20px"
         id="path3186"
         inkscape:connector-curvature="0" />
      <path
         d="m -256.70801,579.0293 c 0,1.71224 -0.25391,3.30729 -0.76172,4.78515 -0.5013,1.47787 -1.22721,2.76367 -2.17773,3.85742 l -1.5625,0 c 0.90495,-1.22396 1.5983,-2.58138 2.08008,-4.07226 0.48176,-1.49739 0.72265,-3.02734 0.72265,-4.58984 0,-1.58854 -0.23763,-3.13476 -0.71289,-4.63868 -0.46875,-1.50389 -1.17187,-2.8841 -2.10937,-4.14062 l 1.58203,0 c 0.95703,1.13933 1.68619,2.4642 2.1875,3.97461 0.5013,1.50391 0.75195,3.11198 0.75195,4.82422"
         style="font-size:20px"
         id="path3188"
         inkscape:connector-curvature="0" />
    </g>
    <g
       style="font-size:22px;font-style:normal;font-variant:normal;font-weight:normal;font-stretch:normal;text-align:center;line-height:125%;letter-spacing:0px;word-spacing:0px;text-anchor:middle;fill:#000000;fill-opacity:1;stroke:none;font-family:Open Sans;-inkscape-font-specification:Open Sans"
       id="text5341">
      <path
         d="m -561.26367,547.00781 -7.95899,0 0,-14.27734 7.95899,0 0,1.47461 -6.29883,0 0,4.59961 5.91797,0 0,1.46484 -5.91797,0 0,5.25391 6.29883,0 0,1.48437"
         style="font-size:20px"
         id="path3072"
         inkscape:connector-curvature="0" />
      <path
         d="m -554.87695,545.86523 c 0.28645,10e-6 0.56314,-0.0195 0.83008,-0.0586 0.26692,-0.0456 0.4785,-0.0911 0.63476,-0.13672 l 0,1.24024 c -0.17579,0.0846 -0.4362,0.15299 -0.78125,0.20507 -0.33855,0.0586 -0.64454,0.0879 -0.91797,0.0879 -2.07031,0 -3.10547,-1.09049 -3.10547,-3.27148 l 0,-6.36719 -1.5332,0 0,-0.78125 1.5332,-0.67383 0.6836,-2.28515 0.9375,0 0,2.48047 3.10547,0 0,1.25976 -3.10547,0 0,6.29883 c -1e-5,0.64454 0.15299,1.13933 0.45898,1.48438 0.30599,0.34505 0.72591,0.51758 1.25977,0.51757"
         style="font-size:20px"
         id="path3074"
         inkscape:connector-curvature="0" />
      <path
         d="m -543.93945,547.00781 0,-6.92383 c -1e-5,-0.87238 -0.19858,-1.52342 -0.59571,-1.95312 -0.39714,-0.42968 -1.01888,-0.64452 -1.86523,-0.64453 -1.12631,1e-5 -1.94988,0.306 -2.4707,0.91797 -0.51433,0.61198 -0.77149,1.61459 -0.77149,3.00781 l 0,5.5957 -1.62109,0 0,-15.19531 1.62109,0 0,4.59961 c 0,0.55339 -0.026,1.01238 -0.0781,1.37695 l 0.0976,0 c 0.31901,-0.51431 0.77148,-0.91796 1.35743,-1.21094 0.59244,-0.29946 1.26627,-0.4492 2.02148,-0.44921 1.30859,10e-6 2.2884,0.31251 2.93945,0.9375 0.65754,0.6185 0.98632,1.60482 0.98633,2.95898 l 0,6.98242 -1.62109,0"
         style="font-size:20px"
         id="path3076"
         inkscape:connector-curvature="0" />
      <path
         d="m -534.47656,547.20312 c -1.58204,0 -2.83204,-0.48177 -3.75,-1.44531 -0.91146,-0.96354 -1.36719,-2.30143 -1.36719,-4.01367 0,-1.72525 0.42318,-3.09569 1.26953,-4.11133 0.85286,-1.01561 1.99544,-1.52342 3.42774,-1.52344 1.34113,2e-5 2.40233,0.44272 3.18359,1.32813 0.78124,0.87891 1.17186,2.04102 1.17187,3.48633 l 0,1.02539 -7.37304,0 c 0.0325,1.25651 0.3483,2.21029 0.94726,2.86133 0.60547,0.65104 1.45508,0.97656 2.54883,0.97656 1.15234,0 2.29166,-0.24088 3.41797,-0.72266 l 0,1.44532 c -0.57293,0.24739 -1.11655,0.42317 -1.63086,0.52734 -0.50782,0.11068 -1.12305,0.16601 -1.8457,0.16601 m -0.43946,-9.73632 c -0.85938,10e-6 -1.54622,0.27995 -2.06054,0.83984 -0.50782,0.5599 -0.8073,1.33464 -0.89844,2.32422 l 5.5957,0 c -10e-6,-1.02213 -0.22787,-1.80338 -0.68359,-2.34375 -0.45574,-0.54687 -1.10678,-0.8203 -1.95313,-0.82031"
         style="font-size:20px"
         id="path3078"
         inkscape:connector-curvature="0" />
      <path
         d="m -522.9043,536.10937 c 0.47526,2e-5 0.90169,0.0391 1.2793,0.11719 l -0.22461,1.50391 c -0.44271,-0.0976 -0.83334,-0.14648 -1.17187,-0.14649 -0.8659,10e-6 -1.60808,0.35158 -2.22657,1.05469 -0.61198,0.70313 -0.91797,1.57878 -0.91797,2.62695 l 0,5.74219 -1.62109,0 0,-10.70312 1.33789,0 0.18555,1.98242 0.0781,0 c 0.39713,-0.69661 0.87565,-1.23371 1.43555,-1.61133 0.55989,-0.37759 1.17512,-0.56639 1.8457,-0.56641"
         style="font-size:20px"
         id="path3080"
         inkscape:connector-curvature="0" />
      <path
         d="m -512.29883,547.00781 0,-6.92383 c -1e-5,-0.87238 -0.19857,-1.52342 -0.5957,-1.95312 -0.39714,-0.42968 -1.01889,-0.64452 -1.86524,-0.64453 -1.11979,1e-5 -1.9401,0.30274 -2.46093,0.9082 -0.52084,0.60548 -0.78126,1.60483 -0.78125,2.99805 l 0,5.61523 -1.6211,0 0,-10.70312 1.31836,0 0.26367,1.46484 0.0781,0 c 0.33203,-0.52733 0.79752,-0.93423 1.39648,-1.2207 0.59896,-0.29296 1.26627,-0.43944 2.00196,-0.43946 1.28905,2e-5 2.2591,0.31252 2.91015,0.9375 0.65103,0.6185 0.97655,1.61134 0.97657,2.97852 l 0,6.98242 -1.6211,0"
         style="font-size:20px"
         id="path3082"
         inkscape:connector-curvature="0" />
      <path
         d="m -502.83594,547.20312 c -1.58203,0 -2.83203,-0.48177 -3.75,-1.44531 -0.91146,-0.96354 -1.36719,-2.30143 -1.36718,-4.01367 -10e-6,-1.72525 0.42317,-3.09569 1.26953,-4.11133 0.85286,-1.01561 1.99543,-1.52342 3.42773,-1.52344 1.34114,2e-5 2.40234,0.44272 3.18359,1.32813 0.78124,0.87891 1.17187,2.04102 1.17188,3.48633 l 0,1.02539 -7.37305,0 c 0.0326,1.25651 0.34831,2.21029 0.94727,2.86133 0.60546,0.65104 1.45507,0.97656 2.54883,0.97656 1.15233,0 2.29165,-0.24088 3.41797,-0.72266 l 0,1.44532 c -0.57293,0.24739 -1.11655,0.42317 -1.63086,0.52734 -0.50782,0.11068 -1.12306,0.16601 -1.84571,0.16601 m -0.43945,-9.73632 c -0.85938,10e-6 -1.54623,0.27995 -2.06055,0.83984 -0.50781,0.5599 -0.80729,1.33464 -0.89843,2.32422 l 5.5957,0 c -1e-5,-1.02213 -0.22787,-1.80338 -0.6836,-2.34375 -0.45573,-0.54687 -1.10677,-0.8203 -1.95312,-0.82031"
         style="font-size:20px"
         id="path3084"
         inkscape:connector-curvature="0" />
      <path
         d="m -492.68945,545.86523 c 0.28645,10e-6 0.56314,-0.0195 0.83008,-0.0586 0.26692,-0.0456 0.4785,-0.0911 0.63476,-0.13672 l 0,1.24024 c -0.17579,0.0846 -0.4362,0.15299 -0.78125,0.20507 -0.33855,0.0586 -0.64454,0.0879 -0.91797,0.0879 -2.07031,0 -3.10547,-1.09049 -3.10547,-3.27148 l 0,-6.36719 -1.5332,0 0,-0.78125 1.5332,-0.67383 0.6836,-2.28515 0.9375,0 0,2.48047 3.10547,0 0,1.25976 -3.10547,0 0,6.29883 c -10e-6,0.64454 0.15299,1.13933 0.45898,1.48438 0.30599,0.34505 0.72591,0.51758 1.25977,0.51757"
         style="font-size:20px"
         id="path3086"
         inkscape:connector-curvature="0" />
      <path
         d="m -552.5625,572.00781 -1.66016,0 0,-6.71875 -7.51953,0 0,6.71875 -1.66015,0 0,-14.27734 1.66015,0 0,6.07422 7.51953,0 0,-6.07422 1.66016,0 0,14.27734"
         style="font-size:20px"
         id="path3088"
         inkscape:connector-curvature="0" />
      <path
         d="m -544.35937,572.20312 c -1.58204,0 -2.83204,-0.48177 -3.75,-1.44531 -0.91146,-0.96354 -1.36719,-2.30143 -1.36719,-4.01367 0,-1.72525 0.42317,-3.09569 1.26953,-4.11133 0.85286,-1.01561 1.99544,-1.52342 3.42773,-1.52344 1.34114,2e-5 2.40234,0.44272 3.1836,1.32813 0.78124,0.87891 1.17186,2.04102 1.17187,3.48633 l 0,1.02539 -7.37304,0 c 0.0325,1.25651 0.3483,2.21029 0.94726,2.86133 0.60547,0.65104 1.45507,0.97656 2.54883,0.97656 1.15234,0 2.29166,-0.24088 3.41797,-0.72266 l 0,1.44532 c -0.57293,0.24739 -1.11655,0.42317 -1.63086,0.52734 -0.50782,0.11068 -1.12306,0.16601 -1.8457,0.16601 m -0.43946,-9.73632 c -0.85938,10e-6 -1.54623,0.27995 -2.06054,0.83984 -0.50782,0.5599 -0.8073,1.33464 -0.89844,2.32422 l 5.5957,0 c -10e-6,-1.02213 -0.22787,-1.80338 -0.68359,-2.34375 -0.45574,-0.54687 -1.10678,-0.8203 -1.95313,-0.82031"
         style="font-size:20px"
         id="path3090"
         inkscape:connector-curvature="0" />
      <path
         d="m -531.08789,572.00781 -0.32227,-1.52344 -0.0781,0 c -0.53386,0.67058 -1.06772,1.12631 -1.60156,1.36719 -0.52735,0.23438 -1.18816,0.35156 -1.98243,0.35156 -1.0612,0 -1.89453,-0.27343 -2.5,-0.82031 -0.59896,-0.54687 -0.89843,-1.32487 -0.89843,-2.33398 0,-2.16146 1.72851,-3.29427 5.18554,-3.39844 l 1.81641,-0.0586 0,-0.66407 c -10e-6,-0.83983 -0.1823,-1.45832 -0.54687,-1.85546 -0.35808,-0.40364 -0.93426,-0.60546 -1.72852,-0.60547 -0.89193,1e-5 -1.90105,0.27344 -3.02734,0.82031 l -0.49805,-1.24024 c 0.52734,-0.28644 1.10351,-0.51105 1.72851,-0.67382 0.63151,-0.16275 1.26302,-0.24413 1.89454,-0.24414 1.27603,10e-6 2.22004,0.28321 2.83203,0.84961 0.61848,0.56641 0.92772,1.47461 0.92773,2.7246 l 0,7.30469 -1.20117,0 m -3.66211,-1.14258 c 1.00911,10e-6 1.80012,-0.27669 2.37305,-0.83007 0.57942,-0.55339 0.86913,-1.32813 0.86914,-2.32422 l 0,-0.9668 -1.6211,0.0684 c -1.28906,0.0456 -2.22005,0.2474 -2.79296,0.60547 -0.56641,0.35157 -0.84962,0.9017 -0.84961,1.65039 -10e-6,0.58594 0.17577,1.0319 0.52734,1.33789 0.35807,0.30599 0.85612,0.45899 1.49414,0.45898"
         style="font-size:20px"
         id="path3092"
         inkscape:connector-curvature="0" />
      <path
         d="m -519.25195,570.57227 -0.0879,0 c -0.74871,1.08724 -1.8685,1.63085 -3.35938,1.63085 -1.39974,0 -2.49024,-0.47851 -3.27148,-1.43554 -0.77474,-0.95703 -1.16211,-2.31771 -1.16211,-4.08203 0,-1.76432 0.39062,-3.13476 1.17187,-4.11133 0.78125,-0.97655 1.86849,-1.46483 3.26172,-1.46485 1.45182,2e-5 2.5651,0.52736 3.33985,1.58204 l 0.12695,0 -0.0684,-0.77149 -0.0391,-0.75195 0,-4.35547 1.62109,0 0,15.19531 -1.31836,0 -0.21484,-1.43554 m -3.24219,0.27343 c 1.10676,0 1.90754,-0.29947 2.40234,-0.89843 0.5013,-0.60547 0.75195,-1.57878 0.75196,-2.91993 l 0,-0.34179 c -10e-6,-1.51692 -0.25392,-2.59765 -0.76172,-3.24219 -0.50131,-0.65103 -1.30535,-0.97655 -2.41211,-0.97656 -0.95053,10e-6 -1.67969,0.3711 -2.1875,1.11328 -0.50131,0.73568 -0.75196,1.77735 -0.75195,3.125 -10e-6,1.36719 0.25064,2.39909 0.75195,3.0957 0.5013,0.69662 1.23697,1.04492 2.20703,1.04492"
         style="font-size:20px"
         id="path3094"
         inkscape:connector-curvature="0" />
      <path
         d="m -509.75,572.20312 c -1.58204,0 -2.83203,-0.48177 -3.75,-1.44531 -0.91146,-0.96354 -1.36719,-2.30143 -1.36719,-4.01367 0,-1.72525 0.42318,-3.09569 1.26953,-4.11133 0.85287,-1.01561 1.99544,-1.52342 3.42774,-1.52344 1.34114,2e-5 2.40233,0.44272 3.18359,1.32813 0.78124,0.87891 1.17187,2.04102 1.17188,3.48633 l 0,1.02539 -7.37305,0 c 0.0326,1.25651 0.3483,2.21029 0.94727,2.86133 0.60546,0.65104 1.45507,0.97656 2.54882,0.97656 1.15234,0 2.29166,-0.24088 3.41797,-0.72266 l 0,1.44532 c -0.57292,0.24739 -1.11654,0.42317 -1.63086,0.52734 -0.50782,0.11068 -1.12305,0.16601 -1.8457,0.16601 m -0.43945,-9.73632 c -0.85938,10e-6 -1.54623,0.27995 -2.06055,0.83984 -0.50782,0.5599 -0.80729,1.33464 -0.89844,2.32422 l 5.59571,0 c -10e-6,-1.02213 -0.22788,-1.80338 -0.6836,-2.34375 -0.45573,-0.54687 -1.10678,-0.8203 -1.95312,-0.82031"
         style="font-size:20px"
         id="path3096"
         inkscape:connector-curvature="0" />
      <path
         d="m -498.17773,561.10937 c 0.47525,2e-5 0.90168,0.0391 1.27929,0.11719 l -0.22461,1.50391 c -0.44271,-0.0976 -0.83334,-0.14648 -1.17187,-0.14649 -0.86589,10e-6 -1.60808,0.35158 -2.22656,1.05469 -0.61199,0.70313 -0.91798,1.57878 -0.91797,2.62695 l 0,5.74219 -1.6211,0 0,-10.70312 1.33789,0 0.18555,1.98242 0.0781,0 c 0.39713,-0.69661 0.87564,-1.23371 1.43554,-1.61133 0.55989,-0.37759 1.17513,-0.56639 1.84571,-0.56641"
         style="font-size:20px"
         id="path3098"
         inkscape:connector-curvature="0" />
      <path
         d="m -575.24805,591.5293 c 0,-1.72526 0.25065,-3.33984 0.75196,-4.84375 0.50781,-1.5039 1.23697,-2.82226 2.1875,-3.95508 l 1.58203,0 c -0.93751,1.25652 -1.64389,2.63673 -2.11914,4.14062 -0.46876,1.50392 -0.70313,3.05014 -0.70313,4.63868 0,1.5625 0.24088,3.08919 0.72266,4.58007 0.48177,1.49089 1.17512,2.85156 2.08008,4.08203 l -1.5625,0 c -0.95704,-1.10677 -1.6862,-2.39908 -2.1875,-3.87695 -0.50131,-1.47786 -0.75196,-3.0664 -0.75196,-4.76562"
         style="font-size:20px"
         id="path3100"
         inkscape:connector-curvature="0" />
      <path
         d="m -563.12891,597.00781 -1.58203,0 0,-10.17578 c 0,-0.84634 0.026,-1.64712 0.0781,-2.40234 -0.13673,0.13673 -0.28972,0.27996 -0.45899,0.42968 -0.16927,0.14976 -0.94401,0.78452 -2.32422,1.9043 l -0.85937,-1.11328 3.7793,-2.91992 1.36718,0 0,14.27734"
         style="font-size:20px"
         id="path3102"
         inkscape:connector-curvature="0" />
      <path
         d="m -547.63086,593.72656 -2.11914,0 0,3.28125 -1.55273,0 0,-3.28125 -6.94336,0 0,-1.41601 6.77734,-9.65821 1.71875,0 0,9.59961 2.11914,0 0,1.47461 m -3.67187,-1.47461 0,-4.74609 c -10e-6,-0.93098 0.0325,-1.98241 0.0977,-3.1543 l -0.0781,0 c -0.31251,0.62501 -0.60548,1.14259 -0.87891,1.55274 l -4.46289,6.34765 5.32227,0"
         style="font-size:20px"
         id="path3104"
         inkscape:connector-curvature="0" />
      <path
         d="m -535.32617,586.12891 c 1.40624,10e-6 2.49673,0.48178 3.27148,1.44531 0.78124,0.95704 1.17187,2.31446 1.17188,4.07226 -1e-5,1.75782 -0.39389,3.12501 -1.18164,4.10157 -0.78126,0.97005 -1.8685,1.45507 -3.26172,1.45507 -0.69662,0 -1.33464,-0.12695 -1.91406,-0.38085 -0.57293,-0.26042 -1.0547,-0.65756 -1.44532,-1.19141 l -0.11718,0 -0.3418,1.37695 -1.16211,0 0,-15.19531 1.62109,0 0,3.69141 c 0,0.82683 -0.026,1.56902 -0.0781,2.22656 l 0.0781,0 c 0.75521,-1.0677 1.875,-1.60155 3.35938,-1.60156 m -0.23438,1.35742 c -1.10677,1e-5 -1.9043,0.31902 -2.39257,0.95703 -0.48829,0.63152 -0.73243,1.69922 -0.73243,3.20312 0,1.50391 0.25065,2.58139 0.75196,3.23243 0.50129,0.64453 1.30533,0.96679 2.41211,0.96679 0.99608,0 1.73827,-0.36132 2.22656,-1.08398 0.48827,-0.72916 0.73241,-1.77409 0.73242,-3.13477 -10e-6,-1.39322 -0.24415,-2.43163 -0.73242,-3.11523 -0.48829,-0.68359 -1.2435,-1.02538 -2.26563,-1.02539"
         style="font-size:20px"
         id="path3106"
         inkscape:connector-curvature="0" />
      <path
         d="m -529.74023,586.30469 1.73828,0 2.34375,6.10351 c 0.51432,1.39324 0.83333,2.39909 0.95703,3.01758 l 0.0781,0 c 0.0846,-0.33203 0.26041,-0.89843 0.52735,-1.69922 0.27343,-0.80729 1.15884,-3.28124 2.65625,-7.42187 l 1.73828,0 -4.59961,12.1875 c -0.45574,1.20442 -0.98959,2.05729 -1.60156,2.55859 -0.60548,0.50781 -1.35092,0.76172 -2.23633,0.76172 -0.49479,0 -0.98308,-0.0553 -1.46485,-0.16602 l 0,-1.29882 c 0.35808,0.0781 0.75847,0.11718 1.20118,0.11718 1.11328,0 1.90755,-0.625 2.38281,-1.875 l 0.5957,-1.52343 -4.3164,-10.76172"
         style="font-size:20px"
         id="path3108"
         inkscape:connector-curvature="0" />
      <path
         d="m -514.50586,595.86523 c 0.28645,10e-6 0.56315,-0.0195 0.83008,-0.0586 0.26692,-0.0456 0.47851,-0.0911 0.63476,-0.13672 l 0,1.24024 c -0.17578,0.0846 -0.4362,0.15299 -0.78125,0.20507 -0.33854,0.0586 -0.64453,0.0879 -0.91796,0.0879 -2.07032,0 -3.10547,-1.09049 -3.10547,-3.27148 l 0,-6.36719 -1.53321,0 0,-0.78125 1.53321,-0.67383 0.68359,-2.28515 0.9375,0 0,2.48047 3.10547,0 0,1.25976 -3.10547,0 0,6.29883 c 0,0.64454 0.15299,1.13933 0.45899,1.48438 0.30598,0.34505 0.7259,0.51758 1.25976,0.51757"
         style="font-size:20px"
         id="path3110"
         inkscape:connector-curvature="0" />
      <path
         d="m -506.37109,597.20312 c -1.58204,0 -2.83204,-0.48177 -3.75,-1.44531 -0.91146,-0.96354 -1.36719,-2.30143 -1.36719,-4.01367 0,-1.72525 0.42317,-3.09569 1.26953,-4.11133 0.85286,-1.01561 1.99544,-1.52342 3.42773,-1.52344 1.34114,2e-5 2.40234,0.44272 3.1836,1.32813 0.78124,0.87891 1.17186,2.04102 1.17187,3.48633 l 0,1.02539 -7.37304,0 c 0.0325,1.25651 0.3483,2.21029 0.94726,2.86133 0.60547,0.65104 1.45507,0.97656 2.54883,0.97656 1.15234,0 2.29166,-0.24088 3.41797,-0.72266 l 0,1.44532 c -0.57293,0.24739 -1.11655,0.42317 -1.63086,0.52734 -0.50782,0.11068 -1.12305,0.16601 -1.8457,0.16601 m -0.43946,-9.73632 c -0.85938,10e-6 -1.54623,0.27995 -2.06054,0.83984 -0.50782,0.5599 -0.8073,1.33464 -0.89844,2.32422 l 5.5957,0 c -10e-6,-1.02213 -0.22787,-1.80338 -0.68359,-2.34375 -0.45574,-0.54687 -1.10678,-0.8203 -1.95313,-0.82031"
         style="font-size:20px"
         id="path3112"
         inkscape:connector-curvature="0" />
      <path
         d="m -492.77734,594.08789 c -1e-5,0.9961 -0.37111,1.76432 -1.11328,2.30469 -0.7422,0.54036 -1.78386,0.81054 -3.125,0.81054 -1.41928,0 -2.52605,-0.2246 -3.32032,-0.67382 l 0,-1.50391 c 0.51432,0.26042 1.06445,0.4655 1.65039,0.61523 0.59245,0.14975 1.16211,0.22462 1.70899,0.22461 0.84635,10e-6 1.49739,-0.13346 1.95312,-0.40039 0.45572,-0.27343 0.68359,-0.68684 0.6836,-1.24023 -1e-5,-0.41666 -0.1823,-0.77148 -0.54688,-1.06445 -0.35808,-0.29948 -1.0612,-0.65104 -2.10937,-1.05469 -0.9961,-0.37109 -1.70574,-0.69336 -2.12891,-0.9668 -0.41667,-0.27994 -0.72917,-0.59569 -0.9375,-0.94726 -0.20182,-0.35156 -0.30274,-0.77148 -0.30273,-1.25977 -10e-6,-0.87239 0.35481,-1.55923 1.06445,-2.06055 0.70963,-0.5078 1.68294,-0.7617 2.91992,-0.76172 1.15234,2e-5 2.27864,0.23439 3.37891,0.70313 l -0.57617,1.31836 c -1.07423,-0.4427 -2.04754,-0.66405 -2.91993,-0.66406 -0.76823,10e-6 -1.34766,0.12045 -1.73828,0.36132 -0.39063,0.2409 -0.58594,0.57293 -0.58594,0.9961 0,0.28646 0.0716,0.53061 0.21485,0.73242 0.14973,0.20183 0.38736,0.39389 0.71289,0.57617 0.32552,0.1823 0.95052,0.44597 1.875,0.79102 1.26952,0.46224 2.12564,0.92774 2.56836,1.39648 0.44921,0.46876 0.67382,1.05795 0.67383,1.76758"
         style="font-size:20px"
         id="path3114"
         inkscape:connector-curvature="0" />
      <path
         d="m -486.75195,591.5293 c -10e-6,1.71224 -0.25391,3.30729 -0.76172,4.78515 -0.50131,1.47787 -1.22722,2.76367 -2.17774,3.85742 l -1.5625,0 c 0.90495,-1.22396 1.59831,-2.58138 2.08008,-4.07226 0.48177,-1.49739 0.72265,-3.02734 0.72266,-4.58984 -1e-5,-1.58854 -0.23764,-3.13476 -0.71289,-4.63868 -0.46875,-1.50389 -1.17188,-2.8841 -2.10938,-4.14062 l 1.58203,0 c 0.95703,1.13933 1.6862,2.4642 2.1875,3.97461 0.5013,1.50391 0.75195,3.11198 0.75196,4.82422"
         style="font-size:20px"
         id="path3116"
         inkscape:connector-curvature="0" />
    </g>
    <g
       style="font-size:22px;font-style:normal;font-variant:normal;font-weight:normal;font-stretch:normal;text-align:center;line-height:125%;letter-spacing:0px;word-spacing:0px;writing-mode:lr-tb;text-anchor:middle;fill:#000000;fill-opacity:1;stroke:none;font-family:Open Sans;-inkscape-font-specification:Open Sans"
       id="text5347"
       transform="translate(90,0)">
      <path
         d="m 115.79688,534.00977 c -1.56902,10e-6 -2.80926,0.5241 -3.72071,1.57226 -0.90495,1.04168 -1.35742,2.47071 -1.35742,4.28711 0,1.8685 0.43619,3.31381 1.30859,4.33594 0.8789,1.01562 2.1289,1.52344 3.75,1.52344 0.99609,0 2.13216,-0.17904 3.40821,-0.53711 l 0,1.45507 c -0.9896,0.3711 -2.2103,0.55664 -3.66211,0.55664 -2.10287,0 -3.72722,-0.63802 -4.87305,-1.91406 -1.13932,-1.27604 -1.70898,-3.08919 -1.70898,-5.43945 0,-1.47135 0.27343,-2.76041 0.82031,-3.86719 0.55338,-1.10676 1.34765,-1.95962 2.38281,-2.55859 1.04166,-0.59895 2.26562,-0.89842 3.67188,-0.89844 1.49738,2e-5 2.80597,0.27345 3.92578,0.82031 l -0.70313,1.42578 c -1.08074,-0.5078 -2.16146,-0.7617 -3.24218,-0.76171"
         style="font-size:20px"
         id="path3246"
         inkscape:connector-curvature="0" />
      <path
         d="m 129.38086,547.00781 0,-6.92383 c -1e-5,-0.87238 -0.19858,-1.52342 -0.5957,-1.95312 -0.39715,-0.42968 -1.01889,-0.64452 -1.86524,-0.64453 -1.12631,1e-5 -1.94987,0.306 -2.4707,0.91797 -0.51433,0.61198 -0.77149,1.61459 -0.77149,3.00781 l 0,5.5957 -1.62109,0 0,-15.19531 1.62109,0 0,4.59961 c 0,0.55339 -0.026,1.01238 -0.0781,1.37695 l 0.0977,0 c 0.319,-0.51431 0.77148,-0.91796 1.35742,-1.21094 0.59244,-0.29946 1.26627,-0.4492 2.02148,-0.44921 1.30859,10e-6 2.2884,0.31251 2.93945,0.9375 0.65755,0.6185 0.98632,1.60482 0.98633,2.95898 l 0,6.98242 -1.62109,0"
         style="font-size:20px"
         id="path3248"
         inkscape:connector-curvature="0" />
      <path
         d="m 138.84375,547.20312 c -1.58204,0 -2.83203,-0.48177 -3.75,-1.44531 -0.91146,-0.96354 -1.36719,-2.30143 -1.36719,-4.01367 0,-1.72525 0.42318,-3.09569 1.26953,-4.11133 0.85287,-1.01561 1.99544,-1.52342 3.42774,-1.52344 1.34114,2e-5 2.40233,0.44272 3.18359,1.32813 0.78124,0.87891 1.17187,2.04102 1.17188,3.48633 l 0,1.02539 -7.37305,0 c 0.0325,1.25651 0.3483,2.21029 0.94727,2.86133 0.60546,0.65104 1.45507,0.97656 2.54882,0.97656 1.15234,0 2.29166,-0.24088 3.41797,-0.72266 l 0,1.44532 c -0.57292,0.24739 -1.11654,0.42317 -1.63086,0.52734 -0.50782,0.11068 -1.12305,0.16601 -1.8457,0.16601 m -0.43945,-9.73632 c -0.85938,10e-6 -1.54623,0.27995 -2.06055,0.83984 -0.50782,0.5599 -0.80729,1.33464 -0.89844,2.32422 l 5.59571,0 c -1e-5,-1.02213 -0.22788,-1.80338 -0.6836,-2.34375 -0.45573,-0.54687 -1.10678,-0.8203 -1.95312,-0.82031"
         style="font-size:20px"
         id="path3250"
         inkscape:connector-curvature="0" />
      <path
         d="m 149.81055,547.20312 c -1.54949,0 -2.75066,-0.47526 -3.60352,-1.42578 -0.84635,-0.95703 -1.26953,-2.30794 -1.26953,-4.05273 0,-1.79036 0.42969,-3.17382 1.28906,-4.15039 0.86588,-0.97655 2.09635,-1.46483 3.69141,-1.46485 0.51432,2e-5 1.02864,0.0553 1.54297,0.16602 0.51431,0.11069 0.91796,0.2409 1.21093,0.39063 l -0.49804,1.37695 c -0.35808,-0.14322 -0.74871,-0.26041 -1.17188,-0.35156 -0.42318,-0.0977 -0.79753,-0.14648 -1.12304,-0.14649 -2.17449,10e-6 -3.26173,1.38673 -3.26172,4.16016 -1e-5,1.31511 0.26367,2.32422 0.79101,3.02734 0.53385,0.70313 1.32161,1.05469 2.36328,1.05469 0.89192,0 1.80664,-0.19206 2.74414,-0.57617 l 0,1.43554 c -0.71615,0.3711 -1.61784,0.55664 -2.70507,0.55664"
         style="font-size:20px"
         id="path3252"
         inkscape:connector-curvature="0" />
      <path
         d="m 156.66602,541.5293 c 0.27994,-0.39713 0.70637,-0.91797 1.27929,-1.5625 l 3.45703,-3.66211 1.92383,0 -4.33594,4.56054 4.63868,6.14258 -1.96289,0 -3.7793,-5.05859 -1.2207,1.05469 0,4.0039 -1.60157,0 0,-15.19531 1.60157,0 0,8.05664 c -1e-5,0.35808 -0.026,0.91147 -0.0781,1.66016 l 0.0781,0"
         style="font-size:20px"
         id="path3254"
         inkscape:connector-curvature="0" />
      <path
         d="m 164.67383,542.38867 0,-1.48437 4.79492,0 0,1.48437 -4.79492,0"
         style="font-size:20px"
         id="path3256"
         inkscape:connector-curvature="0" />
      <path
         d="m 127.4375,569.08789 c -1e-5,0.9961 -0.3711,1.76432 -1.11328,2.30469 -0.7422,0.54036 -1.78386,0.81054 -3.125,0.81054 -1.41928,0 -2.52604,-0.2246 -3.32031,-0.67382 l 0,-1.50391 c 0.51432,0.26042 1.06445,0.4655 1.65039,0.61523 0.59244,0.14975 1.1621,0.22462 1.70898,0.22461 0.84635,10e-6 1.49739,-0.13346 1.95313,-0.40039 0.45572,-0.27343 0.68358,-0.68684 0.68359,-1.24023 -1e-5,-0.41666 -0.1823,-0.77148 -0.54687,-1.06445 -0.35808,-0.29948 -1.06121,-0.65104 -2.10938,-1.05469 -0.9961,-0.37109 -1.70573,-0.69336 -2.12891,-0.9668 -0.41666,-0.27994 -0.72916,-0.59569 -0.9375,-0.94726 -0.20182,-0.35156 -0.30273,-0.77148 -0.30273,-1.25977 0,-0.87239 0.35482,-1.55923 1.06445,-2.06055 0.70964,-0.5078 1.68294,-0.7617 2.91992,-0.76172 1.15234,2e-5 2.27864,0.23439 3.37891,0.70313 l -0.57617,1.31836 c -1.07423,-0.4427 -2.04753,-0.66405 -2.91992,-0.66406 -0.76824,10e-6 -1.34766,0.12045 -1.73828,0.36132 -0.39063,0.2409 -0.58594,0.57293 -0.58594,0.9961 0,0.28646 0.0716,0.53061 0.21484,0.73242 0.14974,0.20183 0.38737,0.39389 0.71289,0.57617 0.32552,0.1823 0.95052,0.44597 1.875,0.79102 1.26953,0.46224 2.12565,0.92774 2.56836,1.39648 0.44921,0.46876 0.67382,1.05795 0.67383,1.76758"
         style="font-size:20px"
         id="path3258"
         inkscape:connector-curvature="0" />
      <path
         d="m 131.58789,561.30469 0,6.94336 c 0,0.8724 0.19856,1.52344 0.5957,1.95312 0.39713,0.42969 1.01888,0.64453 1.86524,0.64453 1.11978,0 1.93684,-0.30598 2.45117,-0.91797 0.52082,-0.61197 0.78124,-1.61132 0.78125,-2.99804 l 0,-5.625 1.62109,0 0,10.70312 -1.33789,0 -0.23437,-1.43554 -0.0879,0 c -0.33204,0.52734 -0.79428,0.93099 -1.38672,1.21093 -0.58595,0.27995 -1.25652,0.41992 -2.01172,0.41992 -1.30209,0 -2.27865,-0.30924 -2.92969,-0.92773 -0.64453,-0.61849 -0.9668,-1.60807 -0.96679,-2.96875 l 0,-7.00195 1.64062,0"
         style="font-size:20px"
         id="path3260"
         inkscape:connector-curvature="0" />
      <path
         d="m 155.97266,572.00781 0,-6.96289 c -2e-5,-0.85285 -0.18231,-1.49088 -0.54688,-1.91406 -0.3646,-0.42968 -0.931,-0.64452 -1.69922,-0.64453 -1.00912,1e-5 -1.75457,0.28972 -2.23633,0.86914 -0.48178,0.57943 -0.72266,1.47136 -0.72265,2.67578 l 0,5.97656 -1.6211,0 0,-6.96289 c 0,-0.85285 -0.1823,-1.49088 -0.54687,-1.91406 -0.36459,-0.42968 -0.93425,-0.64452 -1.70899,-0.64453 -1.01563,1e-5 -1.76107,0.306 -2.23632,0.91797 -0.46876,0.60547 -0.70313,1.60157 -0.70313,2.98828 l 0,5.61523 -1.62109,0 0,-10.70312 1.31836,0 0.26367,1.46484 0.0781,0 c 0.30599,-0.52082 0.73568,-0.92772 1.28907,-1.2207 0.55989,-0.29296 1.18489,-0.43944 1.875,-0.43946 1.67317,2e-5 2.76691,0.60548 3.28125,1.81641 l 0.0781,0 c 0.319,-0.55988 0.78124,-1.00259 1.38672,-1.32812 0.60546,-0.32551 1.29556,-0.48827 2.07031,-0.48829 1.21093,2e-5 2.11587,0.31252 2.71485,0.9375 0.60545,0.6185 0.90818,1.61134 0.9082,2.97852 l 0,6.98242 -1.62109,0"
         style="font-size:20px"
         id="path3262"
         inkscape:connector-curvature="0" />
      <path
         d="m 100.47461,591.5293 c 0,-1.72526 0.25065,-3.33984 0.75195,-4.84375 0.50781,-1.5039 1.23698,-2.82226 2.1875,-3.95508 l 1.58203,0 c -0.9375,1.25652 -1.64388,2.63673 -2.11914,4.14062 -0.46875,1.50392 -0.70312,3.05014 -0.70312,4.63868 0,1.5625 0.24088,3.08919 0.72265,4.58007 0.48177,1.49089 1.17513,2.85156 2.08008,4.08203 l -1.5625,0 c -0.95703,-1.10677 -1.6862,-2.39908 -2.1875,-3.87695 -0.5013,-1.47786 -0.75195,-3.0664 -0.75195,-4.76562"
         style="font-size:20px"
         id="path3264"
         inkscape:connector-curvature="0" />
      <path
         d="m 115.97266,597.00781 -9.38477,0 0,-1.39648 3.75977,-3.7793 c 1.14582,-1.15885 1.90103,-1.98567 2.26562,-2.48047 0.36458,-0.49478 0.63801,-0.97655 0.82031,-1.44531 0.18229,-0.46874 0.27343,-0.9733 0.27344,-1.51367 -1e-5,-0.76171 -0.23113,-1.36392 -0.69336,-1.80664 -0.46224,-0.44921 -1.10352,-0.67382 -1.92383,-0.67383 -0.59245,10e-6 -1.1556,0.0977 -1.68945,0.29297 -0.52735,0.19532 -1.11654,0.55014 -1.76758,1.06445 l -0.85937,-1.10351 c 1.3151,-1.09374 2.74739,-1.64061 4.29687,-1.64063 1.34114,2e-5 2.39257,0.34507 3.1543,1.03516 0.76171,0.6836 1.14257,1.60483 1.14258,2.76367 -10e-6,0.90496 -0.25392,1.80014 -0.76172,2.68555 -0.50782,0.88542 -1.45834,2.00521 -2.85156,3.35937 l -3.125,3.05664 0,0.0781 7.34375,0 0,1.5039"
         style="font-size:20px"
         id="path3266"
         inkscape:connector-curvature="0" />
      <path
         d="m 128.95117,586.12891 c 1.40624,10e-6 2.49674,0.48178 3.27149,1.44531 0.78124,0.95704 1.17186,2.31446 1.17187,4.07226 -1e-5,1.75782 -0.39389,3.12501 -1.18164,4.10157 -0.78126,0.97005 -1.8685,1.45507 -3.26172,1.45507 -0.69662,0 -1.33464,-0.12695 -1.91406,-0.38085 -0.57292,-0.26042 -1.05469,-0.65756 -1.44531,-1.19141 l -0.11719,0 -0.3418,1.37695 -1.16211,0 0,-15.19531 1.6211,0 0,3.69141 c -1e-5,0.82683 -0.0261,1.56902 -0.0781,2.22656 l 0.0781,0 c 0.7552,-1.0677 1.87499,-1.60155 3.35937,-1.60156 m -0.23437,1.35742 c -1.10678,1e-5 -1.9043,0.31902 -2.39258,0.95703 -0.48829,0.63152 -0.73243,1.69922 -0.73242,3.20312 -1e-5,1.50391 0.25064,2.58139 0.75195,3.23243 0.5013,0.64453 1.30533,0.96679 2.41211,0.96679 0.99609,0 1.73827,-0.36132 2.22656,-1.08398 0.48827,-0.72916 0.73241,-1.77409 0.73242,-3.13477 -1e-5,-1.39322 -0.24415,-2.43163 -0.73242,-3.11523 -0.48829,-0.68359 -1.2435,-1.02538 -2.26562,-1.02539"
         style="font-size:20px"
         id="path3268"
         inkscape:connector-curvature="0" />
      <path
         d="m 134.53711,586.30469 1.73828,0 2.34375,6.10351 c 0.51432,1.39324 0.83333,2.39909 0.95703,3.01758 l 0.0781,0 c 0.0846,-0.33203 0.26041,-0.89843 0.52734,-1.69922 0.27343,-0.80729 1.15885,-3.28124 2.65625,-7.42187 l 1.73828,0 -4.59961,12.1875 c -0.45573,1.20442 -0.98959,2.05729 -1.60156,2.55859 -0.60547,0.50781 -1.35091,0.76172 -2.23633,0.76172 -0.49479,0 -0.98307,-0.0553 -1.46484,-0.16602 l 0,-1.29882 c 0.35807,0.0781 0.75846,0.11718 1.20117,0.11718 1.11328,0 1.90755,-0.625 2.38281,-1.875 l 0.59571,-1.52343 -4.31641,-10.76172"
         style="font-size:20px"
         id="path3270"
         inkscape:connector-curvature="0" />
      <path
         d="m 149.77148,595.86523 c 0.28646,10e-6 0.56315,-0.0195 0.83008,-0.0586 0.26692,-0.0456 0.47851,-0.0911 0.63477,-0.13672 l 0,1.24024 c -0.17579,0.0846 -0.43621,0.15299 -0.78125,0.20507 -0.33855,0.0586 -0.64454,0.0879 -0.91797,0.0879 -2.07032,0 -3.10547,-1.09049 -3.10547,-3.27148 l 0,-6.36719 -1.5332,0 0,-0.78125 1.5332,-0.67383 0.68359,-2.28515 0.9375,0 0,2.48047 3.10547,0 0,1.25976 -3.10547,0 0,6.29883 c 0,0.64454 0.153,1.13933 0.45899,1.48438 0.30598,0.34505 0.72591,0.51758 1.25976,0.51757"
         style="font-size:20px"
         id="path3272"
         inkscape:connector-curvature="0" />
      <path
         d="m 157.90625,597.20312 c -1.58204,0 -2.83203,-0.48177 -3.75,-1.44531 -0.91146,-0.96354 -1.36719,-2.30143 -1.36719,-4.01367 0,-1.72525 0.42318,-3.09569 1.26953,-4.11133 0.85287,-1.01561 1.99544,-1.52342 3.42774,-1.52344 1.34114,2e-5 2.40233,0.44272 3.18359,1.32813 0.78124,0.87891 1.17187,2.04102 1.17188,3.48633 l 0,1.02539 -7.37305,0 c 0.0325,1.25651 0.3483,2.21029 0.94727,2.86133 0.60546,0.65104 1.45507,0.97656 2.54882,0.97656 1.15234,0 2.29166,-0.24088 3.41797,-0.72266 l 0,1.44532 c -0.57292,0.24739 -1.11654,0.42317 -1.63086,0.52734 -0.50782,0.11068 -1.12305,0.16601 -1.8457,0.16601 m -0.43945,-9.73632 c -0.85938,10e-6 -1.54623,0.27995 -2.06055,0.83984 -0.50782,0.5599 -0.80729,1.33464 -0.89844,2.32422 l 5.59571,0 c -1e-5,-1.02213 -0.22788,-1.80338 -0.6836,-2.34375 -0.45573,-0.54687 -1.10678,-0.8203 -1.95312,-0.82031"
         style="font-size:20px"
         id="path3274"
         inkscape:connector-curvature="0" />
      <path
         d="m 171.5,594.08789 c -1e-5,0.9961 -0.3711,1.76432 -1.11328,2.30469 -0.7422,0.54036 -1.78386,0.81054 -3.125,0.81054 -1.41928,0 -2.52604,-0.2246 -3.32031,-0.67382 l 0,-1.50391 c 0.51432,0.26042 1.06445,0.4655 1.65039,0.61523 0.59244,0.14975 1.1621,0.22462 1.70898,0.22461 0.84635,10e-6 1.49739,-0.13346 1.95313,-0.40039 0.45572,-0.27343 0.68358,-0.68684 0.68359,-1.24023 -1e-5,-0.41666 -0.1823,-0.77148 -0.54688,-1.06445 -0.35807,-0.29948 -1.0612,-0.65104 -2.10937,-1.05469 -0.9961,-0.37109 -1.70573,-0.69336 -2.12891,-0.9668 -0.41666,-0.27994 -0.72916,-0.59569 -0.9375,-0.94726 -0.20182,-0.35156 -0.30273,-0.77148 -0.30273,-1.25977 0,-0.87239 0.35482,-1.55923 1.06445,-2.06055 0.70964,-0.5078 1.68294,-0.7617 2.91992,-0.76172 1.15234,2e-5 2.27864,0.23439 3.37891,0.70313 l -0.57617,1.31836 c -1.07423,-0.4427 -2.04753,-0.66405 -2.91992,-0.66406 -0.76824,10e-6 -1.34766,0.12045 -1.73828,0.36132 -0.39063,0.2409 -0.58594,0.57293 -0.58594,0.9961 0,0.28646 0.0716,0.53061 0.21484,0.73242 0.14974,0.20183 0.38737,0.39389 0.71289,0.57617 0.32552,0.1823 0.95052,0.44597 1.875,0.79102 1.26953,0.46224 2.12565,0.92774 2.56836,1.39648 0.44921,0.46876 0.67382,1.05795 0.67383,1.76758"
         style="font-size:20px"
         id="path3276"
         inkscape:connector-curvature="0" />
      <path
         d="m 177.52539,591.5293 c 0,1.71224 -0.25391,3.30729 -0.76172,4.78515 -0.5013,1.47787 -1.22721,2.76367 -2.17773,3.85742 l -1.5625,0 c 0.90494,-1.22396 1.5983,-2.58138 2.08008,-4.07226 0.48176,-1.49739 0.72265,-3.02734 0.72265,-4.58984 0,-1.58854 -0.23763,-3.13476 -0.71289,-4.63868 -0.46875,-1.50389 -1.17188,-2.8841 -2.10937,-4.14062 l 1.58203,0 c 0.95703,1.13933 1.68619,2.4642 2.1875,3.97461 0.50129,1.50391 0.75195,3.11198 0.75195,4.82422"
         style="font-size:20px"
         id="path3278"
         inkscape:connector-curvature="0" />
    </g>
  </g>
</svg>
