<?xml version="1.0" encoding="UTF-8" standalone="no"?>
<svg
   xmlns="http://www.w3.org/2000/svg"
   xmlns:xlink="http://www.w3.org/1999/xlink"
   width="1087"
   height="395"
   version="1.1">
  <defs
     id="defs86">
    <linearGradient
       id="linearGradient5393">
      <stop
         style="stop-color:#ffffff;stop-"
         offset="0"
         id="stop5395" />
      <stop
         style="stop-color:#ffffff;stop-opacity:0;"
         offset="1"
         id="stop5397" />
    </linearGradient>
    <linearGradient
       xlink:href="#linearGradient5393"
       id="linearGradient5399"
       x1="1109.5564"
       y1="41.785362"
       x2="967.62579"
       y2="41.785362"
       gradientUnits="userSpaceOnUse" />
  </defs>
  <rect
     ry="3"
     rx="3"
     y="357"
     x="1"
     height="28"
     width="1037.5"
          style="fill:#71d6e0" />
  <path
          d="M 1086,371 1036,357 l 0,28 50,-14 z"
     style="fill:#71d6e0;" />
  <text
     xml:space="preserve"
     style="font-weight:600;font-size:18.75px;font-family:'Open Sans';fill:#5f5f5f"
     x="537.9303"
     y="377.6925"
     >TIME</text>
  <rect
     ry="5"
     rx="5"
     y="169"
     x="1"
     height="166"
     width="968"
          style="fill:#ededed;" />
  <rect
     style="fill:#02d35f"
          width="190"
     height="26"
     x="425"
     y="213" />
  <rect
     style="fill:#02d35f"
          width="190"
     height="26"
     x="155"
     y="265" />
  <text
     xml:space="preserve"
     style="font-weight:600;font-size:18.75px;font-family:'Open Sans';fill:#00c081"
     x="17.084473"
     y="206.84555"
     >SLES 11</text>
  <rect
     style="fill:#02d35f"
          width="190"
     height="26"
     x="20"
     y="291" />
  <rect
     style="opacity:0.5;fill:#92ecba"
          width="55"
     height="52"
     x="155"
     y="265" />
  <rect
     style="fill:#02d35f"
          width="190"
     height="26"
     x="290"
     y="239" />
  <rect
     style="opacity:0.5;fill:#92ecba"
          width="55"
     height="52"
     x="290"
     y="239" />
  <rect
     style="opacity:0.5;fill:#92ecba"
          width="55"
     height="52"
     x="425"
     y="213" />
  <rect
     style="fill:#02d35f"
          width="230"
     height="26"
     x="560"
     y="187" />
  <rect
     style="opacity:0.5;fill:#92ecba"
          width="55"
     height="52"
     x="560"
     y="187" />
  <rect
     y="211"
     x="560"
     height="2"
     width="230"
          style="fill:#a7a9ac;fill-opacity:0.58823529" />
  <rect
     y="289"
     x="155"
     height="2"
     width="190"
          style="fill:#a7a9ac;fill-opacity:0.58823529" />
  <rect
     y="315"
     x="20"
     height="2"
     width="190"
          style="fill:#a7a9ac;fill-opacity:0.58823529" />
  <rect
     y="263"
     x="290"
     height="2"
     width="190"
          style="fill:#a7a9ac;fill-opacity:0.58823529" />
  <rect
     y="237"
     x="425"
     height="2"
     width="190"
          style="fill:#a7a9ac;fill-opacity:0.58823529" />
  <rect
     ry="5"
     rx="5"
     y="11"
     x="510"
     height="166"
     width="574"
          style="fill:#dcddde;" />
  <rect
     style="fill:#02d35f"
          width="150"
     height="26"
     x="934"
     y="55" />
  <rect
     style="fill:#02d35f"
          width="190"
     height="26"
     x="664"
     y="107" />
  <text
     xml:space="preserve"
     style="font-weight:600;font-size:18.75px;font-family:'Open Sans';fill:#00c081"
     x="526.08447"
     y="48.728191"
     >SLES 12</text>
  <rect
     style="fill:#02d35f"
          width="190"
     height="26"
     x="529"
     y="133" />
  <rect
     style="opacity:0.5;fill:#92ecba"
          width="55"
     height="52"
     x="664"
     y="107" />
  <rect
     style="fill:#02d35f"
          width="190"
     height="26"
     x="799"
     y="81" />
  <rect
     style="opacity:0.5;fill:#92ecba"
          width="55"
     height="52"
     x="799"
     y="81" />
  <rect
     style="opacity:0.5;fill:#92ecba"
          width="55"
     height="52"
     x="934"
     y="55" />
  <rect
     style="opacity:0.5;fill:#92ecba"
          width="15"
     height="52"
     x="1069"
     y="29" />
  <rect
     y="131"
     x="664"
     height="2"
     width="190"
          style="fill:#a7a9ac;fill-opacity:0.58823529" />
  <rect
     y="157"
     x="529"
     height="2"
     width="190"
          style="fill:#a7a9ac;fill-opacity:0.58823529" />
  <rect
     y="105"
     x="799"
     height="2"
     width="190"
          style="fill:#a7a9ac;fill-opacity:0.58823529" />
  <rect
     y="79"
     x="934"
     height="2"
     width="150"
          style="fill:#a7a9ac;fill-opacity:0.58823529;" />
  <circle
     r="18"
     cy="120"
     cx="676"
          style="fill:#00c081" />
  <text
          y="126.84781"
     x="661.95227"
     style="font-size:18.75px;font-family:'Open Sans';fill:#ffffff"
     xml:space="preserve">S<tspan
   style="letter-spacing:-1px"
   >P</tspan>1</text>
  <circle
     r="18"
     cy="94"
     cx="811"
          style="fill:#00c081" />
  <text
          y="100.82855"
     x="795.11841"
     style="font-size:18.75px;font-family:'Open Sans';fill:#ffffff"
     xml:space="preserve">S<tspan
   style="letter-spacing:-0.5px"
   >P</tspan>2</text>
  <circle
     r="18"
     cy="146"
     cx="541"
          style="fill:#02a49c" />
  <text
          y="152.86716"
     x="527.44104"
     style="font-weight:600;font-size:18.75px;font-family:'Open Sans';fill:#ffffff"
     xml:space="preserve">GA</text>
  <circle
     r="18"
     cy="68"
     cx="946"
          style="fill:#00c081" />
  <text
          y="74.809189"
     x="930.16418"
     style="font-size:18.75px;font-family:'Open Sans';fill:#ffffff"
     xml:space="preserve">S<tspan
   style="letter-spacing:-0.5px"
   >P</tspan>3</text>
  <path
     style="fill:#00c081"
     d="m 1081,24 a 18,18 0 0 0 -18,18 18,18 0 0 0 18,18 18,18 0 0 0 3,-0.253906 l 0,-35.47461 A 18,18 0 0 0 1081,24 Z"
      />
  <path
     style="fill:url(#linearGradient5399);"
     d="m 969,11 0,166 110,0 c 2.77,0 5,-2.23 5,-5 l 0,-156 c 0,-2.77 -2.23,-5 -5,-5 z"
      />
    <path
              d="m 993.47461,85 c -2.4242,0 -4.27517,0.639281 -5.55469,1.917969 C 986.64052,88.196657 986,90.03234 986,92.425781 c 0,2.360649 0.64052,4.214321 1.91992,5.558594 1.27952,1.344262 3.13049,2.015625 5.55469,2.015625 2.42431,0 4.27718,-0.671363 5.55664,-2.015625 1.31305,-1.37706 1.96875,-3.230731 1.96875,-5.558594 0,-2.295081 -0.6405,-4.098687 -1.91992,-5.410156 C 997.80056,85.671358 995.93256,85 993.47461,85 Z m 25.99999,0 c -2.4242,0 -4.2752,0.639281 -5.5547,1.917969 -1.2794,1.278688 -1.9199,3.114371 -1.9199,5.507812 0,2.360649 0.6405,4.214321 1.9199,5.558594 1.2795,1.344262 3.1305,2.015625 5.5547,2.015625 2.4243,0 4.2753,-0.671363 5.5547,-2.015625 1.3132,-1.37706 1.9707,-3.230731 1.9707,-5.558594 0,-2.295081 -0.6405,-4.098687 -1.9199,-5.410156 C 1023.8006,85.671358 1021.9326,85 1019.4746,85 Z m 26,0 c -2.4242,0 -4.2752,0.639281 -5.5547,1.917969 -1.2794,1.278688 -1.9199,3.114371 -1.9199,5.507812 0,2.360649 0.6405,4.214321 1.9199,5.558594 1.2795,1.344262 3.1305,2.015625 5.5547,2.015625 2.4243,0 4.2753,-0.671363 5.5547,-2.015625 1.3132,-1.37706 1.9707,-3.230731 1.9707,-5.558594 0,-2.295081 -0.6405,-4.098687 -1.9199,-5.410156 C 1049.8006,85.671358 1047.9325,85 1045.4746,85 Z"
       style="fill:#5f5f5f;fill-opacity:0.75" />
  <circle
     r="18"
     cy="304"
     cx="32"
          style="fill:#02a49c" />
  <text
          y="310.86716"
     x="18.44104"
     style="font-weight:600;font-size:18.75px;font-family:'Open Sans';fill:#ffffff"
     xml:space="preserve">GA</text>
  <circle
     r="18"
     cy="278"
     cx="167"
          style="fill:#00c081" />
  <text
          y="284.84781"
     x="152.95227"
     style="font-size:18.75px;font-family:'Open Sans';fill:#ffffff"
     xml:space="preserve">S<tspan
   style="letter-spacing:-1px"
   >P</tspan>1</text>
  <circle
     r="18"
     cy="252"
     cx="302"
          style="fill:#00c081" />
  <text
          y="258.82855"
     x="286.11841"
     style="font-size:18.75px;font-family:'Open Sans';fill:#ffffff"
     xml:space="preserve">S<tspan
   style="letter-spacing:-0.5px"
   >P</tspan>2</text>
  <circle
     r="18"
     cy="200"
     cx="572"
          style="fill:#00c081" />
  <text
          y="206.80919"
     x="555.80255"
     style="font-size:18.75px;font-family:'Open Sans';fill:#ffffff"
     xml:space="preserve">S<tspan
   style="letter-spacing:-0.5px"
   >P</tspan>4</text>
  <circle
     r="18"
     cy="226"
     cx="437"
          style="fill:#00c081" />
  <text
          y="232.80919"
     x="421.16418"
     style="font-size:18.75px;font-family:'Open Sans';fill:#ffffff"
     xml:space="preserve">S<tspan
   style="letter-spacing:-0.5px"
   >P</tspan>3</text>
  <rect
     style="fill:#5f5f5f"
          width="178.78485"
     height="36"
     x="170"
     y="169"
     rx="3"
     ry="3" />
  <text
     xml:space="preserve"
     style="font-size:18.75px;font-family:'Open Sans';fill:#00c081"
     x="184.86394"
     y="191.94266"
     >6 month overlap</text>
  <path
     style="fill:#5f5f5f"
     d="m 190.39243,205 0,54.83984 -2,-0.83984 3.5,10 3.5,-9.8457 -2,0.75195 0,-54.90625 -3,0 z"
      />
  <path
     style="fill:#5f5f5f"
     d="m 325.39244,205 0,28.83984 -2,-0.83984 3.5,10 3.5,-9.8457 -2,0.75195 0,-28.90625 -3,0 z"
      />
</svg>
