<?xml version="1.0" encoding="UTF-8" standalone="no"?>
<svg xmlns="http://www.w3.org/2000/svg" width="16" height="16">
  <path d="m 16,4 0,8 -0.84375,0 L 15,12 c -0.177384,-0.008 -0.351174,-0.05925 -0.5,-0.15625 l -5,-3 C 9.217604,8.66404 9.0625,8.33202 9.0625,8 9.0625,7.66798 9.217604,7.33596 9.5,7.15625 l 5,-3 C 14.648826,4.0592 14.822616,4.008 15,4 L 15.15625,4 16,4 z M 9,4 9,12 8.15625,12 8,12 C 7.822616,11.992 7.648826,11.94075 7.5,11.84375 l -5,-3 C 2.217604,8.66404 2.0625,8.33202 2.0625,8 2.0625,7.66798 2.217604,7.33596 2.5,7.15625 l 5,-3 C 7.648826,4.0592 7.822616,4.008 8,4 L 8.15625,4 9,4 z M 2,4 2,12 0,12 0,4 2,4 z"
    style="fill:#000000" />
</svg>
