<?xml version="1.0" encoding="UTF-8" standalone="no"?>
<svg
   xmlns="http://www.w3.org/2000/svg"
   xml:space="preserve"
   preserveAspectRatio="xMidYMid"
   viewBox="0 0 31729.999 7830.0003"
   height="78.3mm"
   width="317.3mm"
   id="svg2"
   version="1.1">
     <path
     d="m 25583.541,597.553 c 2045.596,888.0477 1140.496,2903.0452 2682.496,3322.0452"
     id="path730"
     style="fill:none;stroke:#0d2c40;stroke-width:28.22222328;stroke-opacity:1" /><path
     d="m 25584.152,7235.679 c 2045.596,-888.0477 1140.496,-2903.0453 2682.496,-3322.0454"
     id="path730-7"
     style="fill:none;stroke:#0d2c40;stroke-width:28.22222328;stroke-opacity:1" /><path
     d="M 25514.971,5118.3431 C 26903.62,4911.3135 27032.41,4014.5215 28264.729,3915.0032"
     id="path739-5"
     style="fill:none;stroke:#0d2c40;stroke-width:28.22222328;stroke-opacity:1" /><path
     d="m 21014.111,614.88889 1170,0"
     id="path675"
     style="fill:none;stroke:#0d2c40;stroke-width:28.22222381;stroke-opacity:1" /><path
     d="m 214.111,14.888893 c -100,0 -200,100 -200,200 l 0,800.00001 c 0,100 100,201 200,201 l 2600,0 c 100,0 201,-101 201,-201 l 0,-800.00001 c 0,-100 -101,-200 -201,-200 l -2600,0 z m -200,0 0,0 z m 3001,1201.000007 0,0 z"
     id="path140"
     style="fill:#a0ff5f;stroke:#0d2c40;stroke-width:28.22222381;stroke-opacity:1" /><text
     y="14.888894"
     x="14.111"
     id="text148"><tspan
       id="tspan150"
       style="font-weight:400;font-size:494px;font-family:'Open Sans', sans-serif;fill:#0d2c40;fill-opacity:1;"><tspan
         style="fill:#0d2c40;fill-opacity:1;"
         x="365.11099"
         y="807.88892"
         id="tspan152"><tspan
           id="tspan154"
           style="fill:#0d2c40;fill-opacity:1;">SLE 10 GA</tspan></tspan></tspan></text>
<path
     d="m 4714.111,14.888893 c -100,0 -200,100 -200,200 l 0,800.00001 c 0,100 100,201 200,201 l 2600,0 c 100,0 201,-101 201,-201 l 0,-800.00001 c 0,-100 -101,-200 -201,-200 l -2600,0 z m -200,0 0,0 z m 3001,1201.000007 0,0 z"
     id="path177"
     style="fill:#a0ff5f;stroke:#0d2c40;stroke-width:28.22222381;stroke-opacity:1" /><text
     y="14.888894"
     x="14.111"
     id="text185"><tspan
       id="tspan187"
       style="font-weight:400;font-size:494px;font-family:'Open Sans', sans-serif;fill:#0d2c40;fill-opacity:1;"><tspan
         style="fill:#0d2c40;fill-opacity:1;"
         x="4775.1108"
         y="807.88892"
         id="tspan189"><tspan
           id="tspan191"
           style="fill:#0d2c40;fill-opacity:1;">SLE 10 SP1</tspan></tspan></tspan></text>
<path
     d="m 3014.111,614.88889 1070,0"
     id="path198"
     style="fill:none;stroke:#0d2c40;stroke-width:28.22222381;stroke-opacity:1" /><path
     d="m 4514.111,614.88889 -450,-150 0,300 450,-150 z"
     id="path200"
     style="fill:#0d2c40;fill-opacity:1" /><path
     d="m 9214.111,14.888893 c -100,0 -200,100 -200,200 l 0,800.00001 c 0,100 100,201 200,201 l 2600,0 c 100,0 201,-101 201,-201 l 0,-800.00001 c 0,-100 -101,-200 -201,-200 l -2600,0 z m -200,0 0,0 z m 3001,1201.000007 0,0 z"
     id="path223"
     style="fill:#a0ff5f;stroke:#0d2c40;stroke-width:28.22222381;stroke-opacity:1" /><text
     y="14.888894"
     x="14.111"
     id="text231"><tspan
       id="tspan233"
       style="font-weight:400;font-size:494px;font-family:'Open Sans', sans-serif"><tspan
         x="9275.1113"
         y="807.88892"
         id="tspan235"><tspan
           id="tspan237"
           style="fill:#000000">SLE 10 SP2</tspan></tspan></tspan></text>
<path
     d="m 4714.111,2114.8889 c -100,0 -200,100 -200,200 l 0,800 c 0,100 100,201 200,201 l 2600,0 c 100,0 201,-101 201,-201 l 0,-800 c 0,-100 -101,-200 -201,-200 l -2600,0 z m -200,0 0,0 z m 3001,1201 0,0 z"
     id="path260"
     style="fill:#00c081;stroke:#0d2c40;stroke-width:28.22222381;stroke-opacity:1" /><text
     y="14.888894"
     x="14.111"
     id="text268"><tspan
       id="tspan270"
       style="font-weight:400;font-size:494px;font-family:'Open Sans', sans-serif;fill:#ffffff;fill-opacity:1;"><tspan
         style="fill:#ffffff;fill-opacity:1;"
         x="4865.1108"
         y="2907.8889"
         id="tspan272"><tspan
           id="tspan274"
           style="fill:#ffffff;fill-opacity:1;">SLE 11 GA</tspan></tspan></tspan></text>
<path
     d="m 9214.111,2114.8889 c -100,0 -200,100 -200,200 l 0,800 c 0,100 100,201 200,201 l 2600,0 c 100,0 201,-101 201,-201 l 0,-800 c 0,-100 -101,-200 -201,-200 l -2600,0 z m -200,0 0,0 z m 3001,1201 0,0 z"
     id="path297"
     style="fill:#00c081;stroke:#0d2c40;stroke-width:28.22222381;stroke-opacity:1" /><text
     y="14.888894"
     x="14.111"
     id="text305"><tspan
       id="tspan307"
       style="font-weight:400;font-size:494px;font-family:'Open Sans', sans-serif;fill:#ffffff;fill-opacity:1;"><tspan
         style="fill:#ffffff;fill-opacity:1;"
         x="9275.1113"
         y="2907.8889"
         id="tspan309"><tspan
           id="tspan311"
           style="fill:#ffffff;fill-opacity:1;">SLE 11 SP1</tspan></tspan></tspan></text>
<path
     d="m 13714.111,14.888893 c -100,0 -200,100 -200,200 l 0,800.00001 c 0,100 100,201 200,201 l 2600,0 c 100,0 201,-101 201,-201 l 0,-800.00001 c 0,-100 -101,-200 -201,-200 l -2600,0 z m -200,0 0,0 z m 3001,1201.000007 0,0 z"
     id="path334"
     style="fill:#a0ff5f;stroke:#0d2c40;stroke-width:28.22222381;stroke-opacity:1" /><text
     y="14.888894"
     x="14.111"
     id="text342"><tspan
       id="tspan344"
       style="font-weight:400;font-size:494px;font-family:'Open Sans', sans-serif;fill:#0d2c40;fill-opacity:1;"><tspan
         style="fill:#0d2c40;fill-opacity:1;"
         x="13775.111"
         y="807.88892"
         id="tspan346"><tspan
           id="tspan348"
           style="fill:#0d2c40;fill-opacity:1;">SLE 10 SP3</tspan></tspan></tspan></text>
<path
     d="m 7514.111,614.88889 1070,0"
     id="path355"
     style="fill:none;stroke:#0d2c40;stroke-width:28.22222381;stroke-opacity:1" /><path
     d="m 9014.111,614.88889 -450,-150 0,300 450,-150 z"
     id="path357"
     style="fill:#0d2c40;fill-opacity:1" /><path
     d="m 12014.111,614.88889 1070,0"
     id="path364"
     style="fill:none;stroke:#0d2c40;stroke-width:28.22222381;stroke-opacity:1" /><path
     d="m 13514.111,614.88889 -450,-150 0,300 450,-150 z"
     id="path366"
     style="fill:#0d2c40;fill-opacity:1" /><path
     d="m 13714.111,2114.8889 c -100,0 -200,100 -200,200 l 0,800 c 0,100 100,201 200,201 l 2600,0 c 100,0 201,-101 201,-201 l 0,-800 c 0,-100 -101,-200 -201,-200 l -2600,0 z m -200,0 0,0 z m 3001,1201 0,0 z"
     id="path396"
     style="fill:#00c081;stroke:#0d2c40;stroke-width:28.22222381;stroke-opacity:1" /><text
     y="14.888894"
     x="14.111"
     id="text404"><tspan
       id="tspan406"
       style="font-weight:400;font-size:494px;font-family:'Open Sans', sans-serif;fill:#ffffff;fill-opacity:1;"><tspan
         style="fill:#ffffff;fill-opacity:1;"
         x="13775.111"
         y="2907.8889"
         id="tspan408"><tspan
           id="tspan410"
           style="fill:#ffffff;fill-opacity:1;">SLE 11 SP2</tspan></tspan></tspan></text>
<path
     d="m 18326.999,14.888893 c -100,0 -200,100 -200,200 l 0,800.00001 c 0,100 100,201 200,201 l 2600,0 c 100,0 201,-101 201,-201 l 0,-800.00001 c 0,-100 -101,-200 -201,-200 l -2600,0 z m -200,0 0,0 z m 3001,1201.000007 0,0 z"
     id="path433"
     style="fill:#a0ff5f;stroke:#0d2c40;stroke-width:28.22222381;stroke-opacity:1" /><text
     y="14.888894"
     x="126.99989"
     id="text441"><tspan
       id="tspan443"
       style="font-weight:400;font-size:494px;font-family:'Open Sans', sans-serif;fill:#0d2c40;fill-opacity:1;"><tspan
         style="fill:#0d2c40;fill-opacity:1;"
         x="18388.002"
         y="807.88892"
         id="tspan445"><tspan
           id="tspan447"
           style="fill:#0d2c40;fill-opacity:1;">SLE 10 SP4</tspan></tspan></tspan></text>
<path
     d="m 7514.111,2714.8889 1070,0"
     id="path454"
     style="fill:none;stroke:#0d2c40;stroke-width:28.22222381;stroke-opacity:1" /><path
     d="m 9014.111,2714.8889 -450,-150 0,300 450,-150 z"
     id="path456"
     style="fill:#0d2c40;fill-opacity:1" /><path
     d="m 12014.111,2714.8889 1070,0"
     id="path463"
     style="fill:none;stroke:#0d2c40;stroke-width:28.22222381;stroke-opacity:1" /><path
     d="m 13514.111,2714.8889 -450,-150 0,300 450,-150 z"
     id="path465"
     style="fill:#0d2c40;fill-opacity:1" /><path
     d="m 16496.244,614.88889 1200.755,0"
     id="path472"
     style="fill:none;stroke:#0d2c40;stroke-width:28.22222328;stroke-opacity:1" /><path
     d="m 18126.999,614.88889 -450,-150 0,300 450,-150 z"
     id="path474"
     style="fill:#0d2c40;fill-opacity:1" /><path
     d="m 18328.111,2114.8889 c -100,0 -200,100 -200,200 l 0,800 c 0,100 100,201 200,201 l 2600,0 c 100,0 201,-101 201,-201 l 0,-800 c 0,-100 -101,-200 -201,-200 l -2600,0 z m -200,0 0,0 z m 3001,1201 0,0 z"
     id="path497"
     style="fill:#00c081;stroke:#0d2c40;stroke-width:28.22222381;stroke-opacity:1" /><text
     y="14.888894"
     x="14.111"
     id="text505"><tspan
       id="tspan507"
       style="font-weight:400;font-size:494px;font-family:'Open Sans', sans-serif;fill:#ffffff;fill-opacity:1;"><tspan
         style="fill:#ffffff;fill-opacity:1;"
         x="18389.111"
         y="2907.8889"
         id="tspan509"><tspan
           id="tspan511"
           style="fill:#ffffff;fill-opacity:1;">SLE 11 SP3</tspan></tspan></tspan></text>
<path
     d="m 22814.111,14.888893 c -100,0 -200,100 -200,200 l 0,800.00001 c 0,100 100,201 200,201 l 2600,0 c 100,0 201,-101 201,-201 l 0,-800.00001 c 0,-100 -101,-200 -201,-200 l -2600,0 z m -200,0 0,0 z m 3001,1201.000007 0,0 z"
     id="path534"
     style="fill:#00c081;stroke:#0d2c40;stroke-width:28.22222381;stroke-opacity:1" /><text
     y="14.888894"
     x="14.111"
     id="text542"><tspan
       id="tspan544"
       style="font-weight:400;font-size:494px;font-family:'Open Sans', sans-serif;fill:#ffffff;fill-opacity:1;"><tspan
         style="fill:#ffffff;fill-opacity:1;"
         x="22875.111"
         y="807.88892"
         id="tspan546"><tspan
           id="tspan548"
           style="fill:#ffffff;fill-opacity:1;">SLE 11 SP4</tspan></tspan></tspan></text>
<text
     y="14.888894"
     x="126.99989"
     id="text563"><tspan
       id="tspan565"
       style="font-weight:400;font-size:494px;font-family:'Open Sans', sans-serif"><tspan
         x="23088.002"
         y="5407.8887"
         id="tspan567"><tspan
           id="tspan569"
           style="fill:#b2b2b2">SLE 12 SP1</tspan></tspan></tspan></text>
<text
     y="14.888894"
     x="14.111"
     id="text600"><tspan
       id="tspan602"
       style="font-weight:400;font-size:494px;font-family:'Open Sans', sans-serif"><tspan
         x="18675.111"
         y="5407.8887"
         id="tspan604"><tspan
           id="tspan606"
           style="fill:#b2b2b2">SLE 12 GA</tspan></tspan></tspan></text>
<path
     d="m 18324.111,4414.8889 c -100,0 -200,100 -200,200 l 0,800 c 0,100 100,201 200,201 l 2600,0 c 100,0 201,-101 201,-201 l 0,-800 c 0,-100 -101,-200 -201,-200 l -2600,0 z m -200,0 0,0 z m 3001,1201 0,0 z"
     id="path608"
     style="fill:#02a49c;stroke:#0d2c40;stroke-width:28.22222381;stroke-opacity:1" /><text
     y="14.888894"
     x="14.111"
     id="text616"><tspan
       id="tspan618"
       style="font-weight:400;font-size:494px;font-family:'Open Sans', sans-serif;fill:#ffffff;fill-opacity:1;"><tspan
         style="fill:#ffffff;fill-opacity:1;"
         x="18475.111"
         y="5207.8887"
         id="tspan620"><tspan
           id="tspan622"
           style="fill:#ffffff;fill-opacity:1;">SLE 12 GA</tspan></tspan></tspan></text>
<path
     d="m 16514.111,2714.8889 1184,0"
     id="path666"
     style="fill:none;stroke:#0d2c40;stroke-width:28.22222381;stroke-opacity:1" /><path
     d="m 18128.111,2714.8889 -450,-150 0,300 450,-150 z"
     id="path668"
     style="fill:#0d2c40;fill-opacity:1" /><path
     d="m 22614.111,614.88889 -450,-150 0,300 450,-150 z"
     id="path677"
     style="fill:#0d2c40;fill-opacity:1" /><path
     d="m 21128.111,2714.8889 1120.835,0"
     id="path684"
     style="fill:none;stroke:#0d2c40;stroke-width:28.22222381;stroke-opacity:1" /><path
     d="m 22626.999,2714.8889 -450,-150 0,300 450,-150 z"
     id="path686"
     style="fill:#0d2c40;fill-opacity:1" /><path
     d="m 28914.111,3314.8889 c -100,0 -200,100 -200,200 l 0,800 c 0,100 100,201 200,201 l 2600,0 c 100,0 201,-101 201,-201 l 0,-800 c 0,-100 -101,-200 -201,-200 l -2600,0 z m -200,0 0,0 z m 3001,1201 0,0 z"
     id="path709"
     style="fill:#02d35f;stroke:#0d2c40;stroke-width:28.22222381;stroke-opacity:1" /><text
     y="14.888894"
     x="14.111"
     id="text717"><tspan
       font-size="494px"
       font-weight="700"
       id="tspan719"
       style="font-weight:700;font-size:494px;font-family:'Open Sans', sans-serif;fill:#ffffff;fill-opacity:1;"><tspan
         style="fill:#ffffff;fill-opacity:1;"
         x="28956.111"
         y="4107.8887"
         id="tspan721"><tspan
           id="tspan723"
           style="fill:#ffffff;fill-opacity:1;">SLE 12 SP3</tspan></tspan></tspan></text>
<path
     d="m 25514.36,2714.8889 c 1388.649,207.0295 1517.439,1103.8214 2749.758,1203.3399"
     id="path739"
     style="fill:none;stroke:#0d2c40;stroke-width:28.22222328;stroke-opacity:1" /><path
     d="m 21124.111,5014.8889 1102.857,0"
     id="path757"
     style="fill:none;stroke:#0d2c40;stroke-width:28.22222381;stroke-opacity:1" /><path
     d="m 22626.999,5014.8889 -450,-150 0,300 450,-150 z"
     id="path759"
     style="fill:#0d2c40;fill-opacity:1" /><path
     d="m 28700.446,3915.3889 -450,-150 0,300 450,-150 z"
     id="path759-3"
     style="fill:#0d2c40;fill-opacity:1" /><path
     d="m 22826.999,4414.8889 c -100,0 -200,100 -200,200 l 0,800 c 0,100 100,201 200,201 l 2600,0 c 100,0 201,-101 201,-201 l 0,-800 c 0,-100 -101,-200 -201,-200 l -2600,0 z m -200,0 0,0 z m 3001,1201 0,0 z"
     id="path571"
     style="fill:#02a49c;stroke:#0d2c40;stroke-width:28.22222381;stroke-opacity:1" /><text
     y="14.888894"
     x="126.99989"
     id="text579"><tspan
       id="tspan581"
       style="font-weight:400;font-size:494px;font-family:'Open Sans', sans-serif;fill:#ffffff;fill-opacity:1;"><tspan
         style="fill:#ffffff;fill-opacity:1;"
         x="22888.002"
         y="5207.8887"
         id="tspan583"><tspan
           id="tspan585"
           style="fill:#ffffff;fill-opacity:1;">SLE 12 SP1</tspan></tspan></tspan></text>
<path
     d="m 22826.999,6614.8889 c -100,0 -200,100 -200,200 l 0,800 c 0,100 100,201 200,201 l 2600,0 c 100,0 201,-101 201,-201 l 0,-800 c 0,-100 -101,-200 -201,-200 l -2600,0 z m -200,0 0,0 z m 3001,1201 0,0 z"
     id="path782"
     style="fill:#02a49c;stroke:#0d2c40;stroke-width:28.22222381;stroke-opacity:1" /><text
     y="14.888894"
     x="126.99989"
     id="text790"><tspan
       id="tspan792"
       style="font-weight:400;font-size:494px;font-family:'Open Sans', sans-serif;fill:#ffffff;fill-opacity:1;"><tspan
         style="fill:#ffffff;fill-opacity:1;"
         x="22776.002"
         y="7407.8887"
         id="tspan794"><tspan
           id="tspan796"
           style="fill:#ffffff;fill-opacity:1;">SLE 12 LTSS</tspan></tspan></tspan></text>
<path
     d="m 22826.999,2114.8889 c -100,0 -200,100 -200,200 l 0,800 c 0,100 100,201 200,201 l 2600,0 c 100,0 201,-101 201,-201 l 0,-800 c 0,-100 -101,-200 -201,-200 l -2600,0 z m -200,0 0,0 z m 3001,1201 0,0 z"
     id="path645"
     style="fill:#02a49c;stroke:#0d2c40;stroke-width:28.22222381;stroke-opacity:1" /><text
     y="14.888894"
     x="126.99989"
     id="text653"><tspan
       id="tspan655"
       style="font-weight:400;font-size:494px;font-family:'Open Sans', sans-serif;fill:#ffffff;fill-opacity:1;"><tspan
         style="fill:#ffffff;fill-opacity:1;"
         x="22888.002"
         y="2907.8889"
         id="tspan657"><tspan
           id="tspan659"
           style="fill:#ffffff;fill-opacity:1;">SLE 12 SP2</tspan></tspan></tspan></text>
</svg>
