<?xml version="1.0" encoding="UTF-8" standalone="no"?>
<svg
   xmlns:dc="http://purl.org/dc/elements/1.1/"
   xmlns:cc="http://creativecommons.org/ns#"
   xmlns:rdf="http://www.w3.org/1999/02/22-rdf-syntax-ns#"
   xmlns:svg="http://www.w3.org/2000/svg"
   xmlns="http://www.w3.org/2000/svg"
   width="186.26666mm"
   height="115.14667mm"
   viewBox="0 0 659.99999 408"
   id="svg2"
   version="1.1">
  <defs
     id="defs4" />
  <metadata
     id="metadata7">
    <rdf:RDF>
      <cc:Work
         rdf:about="">
        <dc:format>image/svg+xml</dc:format>
        <dc:type
           rdf:resource="http://purl.org/dc/dcmitype/StillImage" />
        <dc:title></dc:title>
      </cc:Work>
    </rdf:RDF>
  </metadata>
  <rect
     y="59.000008"
     x="26"
     height="349"
     width="4"
     id="rect4570"
     style="opacity:1;fill:#30ba78;fill-opacity:1;stroke:none;stroke-width:2;stroke-miterlimit:4;stroke-dasharray:none;stroke-dashoffset:0;stroke-opacity:1" />
  <rect
     y="58.999992"
     x="366"
     height="349"
     width="4"
     id="rect4570-1"
     style="opacity:1;fill:#fe7c3f;fill-opacity:1;stroke:none;stroke-width:2;stroke-miterlimit:4;stroke-dasharray:none;stroke-dashoffset:0;stroke-opacity:1" />
  <rect
     y="-4.9462892e-07"
     x="0"
     height="58"
     width="320"
     id="rect4293"
     style="opacity:1;fill:#30ba78;fill-opacity:1;stroke:none;stroke-width:1.99999988;stroke-miterlimit:4;stroke-dasharray:none;stroke-dashoffset:0;stroke-opacity:1" />
  <path
     d="m 46.037002,28.001874 c 0,9.94185 -8.065183,17.99813 -17.999372,17.99813 -9.940457,0 -18.000626,-8.05628 -18.000626,-17.99813 C 10.037004,18.058784 18.097173,10 28.03763,10 c 9.934189,0 17.999372,8.058784 17.999372,18.001874"
     style="fill:#ffffff;fill-opacity:1;fill-rule:nonzero;stroke:none"
     id="path358" />
  <path
     d="m 20.643715,39.260484 c 0,0.1329 0.109056,0.24197 0.24193,0.24197 l 14.302726,0 c 0.132874,0 0.24193,-0.10906 0.24193,-0.24197 l 0,-2.22281 -14.786586,0 z m 2.464431,-3.86516 5.751175,0 c 0.226888,0 0.409903,-0.18429 0.409903,-0.4112 0,-0.22692 -0.183015,-0.41121 -0.409903,-0.41121 l -5.751175,0 c -0.226888,0 -0.411157,0.18429 -0.411157,0.41121 0,0.22691 0.184269,0.4112 0.411157,0.4112 z m 9.232215,0.10155 c 0.792228,0 1.437794,-0.64565 1.437794,-1.43799 0,-0.79234 -0.645566,-1.43674 -1.437794,-1.43674 -0.792228,0 -1.437794,0.6444 -1.437794,1.43674 0,0.79234 0.645566,1.43799 1.437794,1.43799 z m -12.517706,-3.38248 16.429959,0 0,7.14609 c 0,0.58673 -0.477593,1.06439 -1.064243,1.06439 l -14.302726,0 c -0.585396,0 -1.06299,-0.47766 -1.06299,-1.06439 z m 13.134441,1.94449 c 0,-0.33975 -0.27703,-0.61557 -0.616735,-0.61557 -0.339705,0 -0.616734,0.27582 -0.616734,0.61557 0,0.33975 0.277029,0.61682 0.616734,0.61682 0.339705,0 0.616735,-0.27707 0.616735,-0.61682 z m -9.84895,-4.41553 5.751175,0 c 0.226888,0 0.409903,-0.18304 0.409903,-0.41122 0,-0.22692 -0.183015,-0.40996 -0.409903,-0.40996 l -5.751175,0 c -0.226888,0 -0.411157,0.18304 -0.411157,0.40996 0,0.22818 0.184269,0.41122 0.411157,0.41122 z m 9.232215,0.71837 c 0.792228,0 1.437794,-0.64441 1.437794,-1.438 0,-0.79234 -0.645566,-1.43799 -1.437794,-1.43799 -0.792228,0 -1.437794,0.64565 -1.437794,1.43799 0,0.79359 0.645566,1.438 1.437794,1.438 z m 3.912253,-3.59512 0,4.52636 -16.429959,0 0,-4.52636 z m -3.295518,2.15712 c 0,-0.33975 -0.27703,-0.61556 -0.616735,-0.61556 -0.339705,0 -0.616734,0.27581 -0.616734,0.61556 0,0.33976 0.277029,0.61682 0.616734,0.61682 0.339705,0 0.616735,-0.27706 0.616735,-0.61682 z m 0,-5.13516 c 0,-0.33975 -0.27703,-0.61682 -0.616735,-0.61682 -0.339705,0 -0.616734,0.27707 -0.616734,0.61682 0,0.33976 0.277029,0.61684 0.616734,0.61684 0.339705,0 0.616735,-0.27708 0.616735,-0.61684 z m -9.84895,0.92525 5.751175,0 c 0.226888,0 0.409903,-0.1843 0.409903,-0.41122 0,-0.22692 -0.183015,-0.40996 -0.409903,-0.40996 l -5.751175,0 c -0.226888,0 -0.411157,0.18304 -0.411157,0.40996 0,0.22692 0.184269,0.41122 0.411157,0.41122 z m 9.232215,0.51276 c 0.792228,0 1.437794,-0.6444 1.437794,-1.438 0,-0.79233 -0.645566,-1.43799 -1.437794,-1.43799 -0.792228,0 -1.437794,0.64566 -1.437794,1.43799 0,0.7936 0.645566,1.438 1.437794,1.438 z m -12.517706,-3.80749 16.429959,0 0,4.52585 -16.429959,0 z m 12.517706,-4.2024 c -0.792228,0 -1.437794,0.6444 -1.437794,1.43674 0,0.79359 0.645566,1.43799 1.437794,1.43799 0.792228,0 1.437794,-0.6444 1.437794,-1.43799 0,-0.79234 -0.645566,-1.43674 -1.437794,-1.43674 z m -3.48104,1.7464 -5.751175,0 c -0.226888,0 -0.411157,0.18304 -0.411157,0.40996 0,0.22692 0.184269,0.41122 0.411157,0.41122 l 5.751175,0 c 0.226888,0 0.409903,-0.1843 0.409903,-0.41122 0,-0.22692 -0.183015,-0.40996 -0.409903,-0.40996 z m 7.393293,1.63357 -16.429959,0 0,-3.85638 c 0,-0.58673 0.477594,-1.06439 1.06299,-1.06439 l 14.302726,0 c 0.58665,0 1.064243,0.47766 1.064243,1.06439 z m -3.912253,-1.32641 c -0.339705,0 -0.616734,-0.27707 -0.616734,-0.61682 0,-0.33976 0.277029,-0.61557 0.616734,-0.61557 0.339705,0 0.616735,0.27581 0.616735,0.61557 0,0.33975 -0.27703,0.61682 -0.616735,0.61682 z"
     style="fill:#000000;fill-opacity:1;fill-rule:nonzero;stroke:none"
     id="path3088" />
  <path
     d="M 45.999998,98.001884 C 45.999998,107.94372 37.934815,116 28.000625,116 18.060168,116 9.999999,107.94372 9.999999,98.001884 c 0,-9.94311 8.060169,-18.00188 18.000626,-18.00188 9.93419,0 17.999373,8.05878 17.999373,18.00188"
     style="fill:#ededee;fill-opacity:1;fill-rule:nonzero;stroke:none"
     id="path742" />
  <path
     d="m 35.230835,105.00429 c -0.319649,0 -0.577875,-0.25952 -0.577875,-0.57796 0,-0.3197 0.258226,-0.57921 0.577875,-0.57921 0.318395,0 0.577875,0.25952 0.577875,0.57921 0,0.31844 -0.25948,0.57796 -0.577875,0.57796 m 0,-1.91817 c -0.738327,0 -1.338765,0.60053 -1.338765,1.34021 0,0.73843 0.600438,1.33896 1.338765,1.33896 0.738327,0 1.340019,-0.60053 1.340019,-1.33896 0,-0.73968 -0.601692,-1.34021 -1.340019,-1.34021"
     style="fill:#020000;fill-opacity:1;fill-rule:nonzero;stroke:none"
     id="path2558" />
  <path
     d="m 30.077842,92.726564 c 0.0013,-0.0351 0.0075,-0.0677 0.0075,-0.10281 0,-1.22862 -0.923849,-2.22658 -2.06205,-2.22658 -1.135694,0 -2.060796,0.99796 -2.060796,2.22658 0,0.0351 0.0063,0.0677 0.0075,0.10281 l 4.107803,0 z"
     style="fill:#020000;fill-opacity:1;fill-rule:nonzero;stroke:none"
     id="path2562" />
  <path
     d="m 38.742963,105.4812 c 0,1.37656 -1.119399,2.49612 -2.49577,2.49612 l -16.493888,0 c -1.376371,0 -2.495769,-1.11956 -2.495769,-2.49612 l 0,-1.1509 c 0,-1.37656 1.119398,-2.49611 2.495769,-2.49611 l 16.493888,0 c 1.376371,0 2.49577,1.11955 2.49577,2.49611 z m -14.340332,-12.755146 0.752115,0 c -0.0013,-0.0338 -0.0075,-0.0677 -0.0075,-0.10281 0,-1.67745 1.291131,-3.04147 2.876841,-3.04147 1.58571,0 2.876841,1.36402 2.876841,3.04147 0,0.0351 -0.0062,0.069 -0.0075,0.10281 l 0.704481,0 c 0.224381,0 0.407396,0.18304 0.407396,0.40871 l 0,4.53462 c 0,0.22443 -0.183015,0.40746 -0.407396,0.40746 l -7.195236,0 c -0.225635,0 -0.407396,-0.18303 -0.407396,-0.40746 l -2.1e-5,-4.647455 c -2.1e-5,-0.112835 0.18174,-0.295875 0.407375,-0.295875 z m 14.954559,10.689046 0.0025,-0.0125 -2.182388,-13.020926 c -0.235662,-1.77901 -1.767471,-3.12172 -3.561266,-3.12172 l -11.63773,0 c -1.790035,0 -3.321843,1.33895 -3.561266,3.11294 L 16.595635,103.5643 c -0.04015,0.15043 -0.10031,0.44881 -0.10031,0.76474 l 0,1.1509 c 0,1.79655 1.461611,3.2571 3.257913,3.2571 l 16.493888,0 c 1.795049,0 3.25666,-1.46055 3.25666,-3.2571 l 0,-1.1509 c 0,-0.32095 -0.06017,-0.62309 -0.146663,-0.9152"
     style="fill:#000000;fill-opacity:1;fill-rule:nonzero;stroke:none"
     id="path2566" />
  <path
     d="M 46.000002,378.00188 C 46.000002,387.94372 37.93482,396 28.000623,396 18.060168,396 10,387.94372 10,378.00188 10,368.05877 18.060168,360 28.000623,360 c 9.934197,0 17.999379,8.05878 17.999379,18.00188"
     style="fill:#ededee;fill-opacity:1;fill-rule:nonzero;stroke:none"
     id="path746" />
  <path
     d="m 35.233092,385.00429 c -0.319648,0 -0.577875,-0.25952 -0.577875,-0.57796 0,-0.3197 0.258227,-0.57921 0.577875,-0.57921 0.318396,0 0.577876,0.25952 0.577876,0.57921 0,0.31844 -0.25948,0.57796 -0.577876,0.57796 m 0,-1.91817 c -0.738326,0 -1.338765,0.60053 -1.338765,1.34021 0,0.73843 0.600439,1.33896 1.338765,1.33896 0.738327,0 1.340019,-0.60053 1.340019,-1.33896 0,-0.73968 -0.601692,-1.34021 -1.340019,-1.34021"
     style="fill:#020000;fill-opacity:1;fill-rule:nonzero;stroke:none"
     id="path2570" />
  <path
     d="m 38.742963,385.4812 c 0,1.37656 -1.119398,2.49612 -2.495769,2.49612 l -16.493885,0 c -1.376371,0 -2.495769,-1.11956 -2.495769,-2.49612 l 0,-1.1509 c 0,-1.37656 1.119398,-2.49611 2.495769,-2.49611 l 16.493885,0 c 1.376371,0 2.495769,1.11955 2.495769,2.49611 z m -14.340329,-12.75515 5.674709,0 c 0.002,-0.0338 0.009,-0.0677 0.009,-0.10281 0,-1.22737 -0.925101,-2.22657 -2.062049,-2.22657 -0.368536,0 -0.730805,0.10657 -1.046693,0.30841 -0.190536,0.12036 -0.441241,0.0639 -0.562833,-0.1241 -0.121592,-0.19058 -0.06518,-0.44257 0.124099,-0.56418 0.447509,-0.28459 0.9602,-0.43503 1.485427,-0.43503 1.58571,0 2.876841,1.36402 2.876841,3.04147 0,0.0351 -0.006,0.069 -0.008,0.10281 l 0.704482,0 c 0.224381,0 0.407395,0.18304 0.407395,0.40871 l 0,4.53463 c 0,0.22442 -0.183014,0.40745 -0.407395,0.40745 l -7.195235,0 c -0.225635,0 -0.407396,-0.18303 -0.407396,-0.40745 l 1.26e-4,-4.64747 c 1.27e-4,-0.11283 0.181888,-0.29587 0.407522,-0.29587 z m 14.954557,10.68905 c 0,0 0.004,-0.0125 0.002,-0.0125 l -2.182387,-13.02093 c -0.235663,-1.77901 -1.767471,-3.12172 -3.561266,-3.12172 l -11.637728,0 c -1.790034,0 -3.321842,1.33896 -3.561265,3.11294 l -1.82128,13.19142 c -0.04002,0.15042 -0.100136,0.4488 -0.100136,0.76473 l 0,1.1509 c 0,1.79655 1.461611,3.2571 3.257912,3.2571 l 16.493886,0 c 1.796301,0 3.256658,-1.46055 3.256658,-3.2571 l 0,-1.1509 c 0,-0.32095 -0.06017,-0.62309 -0.146662,-0.9152"
     style="fill:#000000;fill-opacity:1;fill-rule:nonzero;stroke:none"
     id="path2574" />
  <path
     d="M 386,238.00188 C 386,247.94372 377.93481,256 368.00062,256 358.06016,256 350,247.94372 350,238.00188 350,228.05878 358.06016,220 368.00062,220 377.93481,220 386,228.05878 386,238.00188"
     style="fill:#ededee;fill-opacity:1;fill-rule:nonzero;stroke:none"
     id="path622" />
  <path
     d="m 357.39091,239.12682 c -0.49013,-0.48895 -0.49138,-1.28379 -0.003,-1.77399 0.48888,-0.4902 1.28236,-0.49145 1.77249,-0.002 l 5.27859,5.26178 12.39862,-12.4016 c 0.48888,-0.48894 1.28236,-0.48894 1.77249,0 0.48887,0.4902 0.48887,1.28379 0,1.77273 l -14.16836,14.17157 z"
     style="fill:#000000;fill-opacity:1;fill-rule:nonzero;stroke:none"
     id="path2400" />
  <text
     id="text4219"
     y="35.844734"
     x="106.05054"
     style="font-style:normal;font-weight:normal;font-size:22.9350872px;line-height:0%;font-family:Sans;letter-spacing:0px;word-spacing:0px;fill:#000000;fill-opacity:1;stroke:none;stroke-width:1px;stroke-linecap:butt;stroke-linejoin:miter;stroke-opacity:1;"
     xml:space="preserve"><tspan
       style="font-style:normal;font-variant:normal;font-weight:normal;font-stretch:normal;font-size:22.5px;font-family:'Open Sans';-inkscape-font-specification:'Open Sans';fill:#000000;"
       y="35.844734"
       x="106.05054"
       id="tspan4221">cryptctl Client</tspan></text>
  <text
     id="text4219-8"
     y="95.415276"
     x="61.802246"
     style="font-style:normal;font-weight:normal;font-size:22.9350872px;line-height:110.00000238%;font-family:Sans;letter-spacing:0px;word-spacing:0px;fill:#000000;fill-opacity:1;stroke:none;stroke-width:1px;stroke-linecap:butt;stroke-linejoin:miter;stroke-opacity:1;"
     xml:space="preserve"><tspan
       id="tspan4313"
       style="font-style:normal;font-variant:normal;font-weight:normal;font-stretch:normal;font-size:15px;line-height:110.00000238%;font-family:'Open Sans';-inkscape-font-specification:'Open Sans';fill:#000000;"
       y="95.415276"
       x="61.802246">Waits for kernel notification that</tspan><tspan
       id="tspan4589"
       style="font-style:normal;font-variant:normal;font-weight:normal;font-stretch:normal;font-size:15px;line-height:110.00000238%;font-family:'Open Sans';-inkscape-font-specification:'Open Sans';fill:#000000;"
       y="111.91528"
       x="61.802246">a disk was attached</tspan></text>
  <path
     d="m 45.999999,168.00188 c 0,9.94184 -8.065184,17.99811 -17.999373,17.99811 C 18.060169,185.99999 10,177.94372 10,168.00188 10,158.05878 18.060169,150 28.000626,150 c 9.934189,0 17.999373,8.05878 17.999373,18.00188"
     style="fill:#ededee;fill-opacity:1;fill-rule:nonzero;stroke:none"
     id="path626" />
  <path
     d="m 27.620056,175.68129 c -0.775933,0 -1.406456,0.62936 -1.406456,1.40665 0,0.77604 0.630523,1.4054 1.406456,1.4054 0.775932,0 1.406455,-0.62936 1.406455,-1.4054 0,-0.77729 -0.630523,-1.40665 -1.406455,-1.40665 m 0.541523,-16.03859 c -2.226262,0 -3.636478,1.3703 -5.4754,2.82961 -0.258226,0.20435 -0.7822,0.40996 -1.307427,-0.16299 -0.574115,-0.62685 -0.299592,-1.24241 -0.05892,-1.47309 2.074585,-1.9796 3.682858,-3.32983 6.901912,-3.32983 4.061422,0 6.740206,2.52871 6.740206,5.98767 0,3.79244 -2.829207,5.65795 -6.258852,6.13937 l -0.299593,2.63653 c 0,0 -0.09276,0.61432 -0.783453,0.61432 -0.636791,0 -0.752116,-0.61432 -0.752116,-0.61432 -0.101535,-1.09197 -0.201817,-1.56838 -0.302099,-2.66035 -0.04638,-0.49897 -0.09527,-0.9992 -0.137888,-1.49942 -0.0025,-0.0239 -0.005,-0.0488 -0.0012,-0.0739 0.01003,-0.0702 0.06393,-0.12913 0.12786,-0.15797 0.223128,-0.099 0.478847,-0.0677 0.715763,-0.0689 1.346286,-0.002 2.854278,-0.43128 3.911,-1.28003 0.901284,-0.72589 1.37261,-1.79279 1.372585,-2.94375 -2.5e-5,-2.19654 -1.684763,-3.94295 -4.392378,-3.94295 z"
     style="fill:#000000;fill-opacity:1;fill-rule:nonzero;stroke:none"
     id="path2404" />
  <text
     id="text4219-8-9"
     y="165.64647"
     x="61.223633"
     style="font-style:normal;font-weight:normal;font-size:22.9350872px;line-height:110.00000238%;font-family:Sans;letter-spacing:0px;word-spacing:0px;fill:#000000;fill-opacity:1;stroke:none;stroke-width:1px;stroke-linecap:butt;stroke-linejoin:miter;stroke-opacity:1;"
     xml:space="preserve"><tspan
       id="tspan4313-7"
       style="font-style:normal;font-variant:normal;font-weight:normal;font-stretch:normal;font-size:15px;line-height:110.00000238%;font-family:'Open Sans';-inkscape-font-specification:'Open Sans';fill:#000000;"
       y="165.64647"
       x="61.223633">Sends RPC request to retrieve</tspan><tspan
       id="tspan4346"
       style="font-style:normal;font-variant:normal;font-weight:normal;font-stretch:normal;font-size:15px;line-height:110.00000238%;font-family:'Open Sans';-inkscape-font-specification:'Open Sans';fill:#000000;"
       y="182.14648"
       x="61.223633">encryption key</tspan></text>
  <text
     id="text4219-8-9-0"
     y="383.89648"
     x="60.637695"
     style="font-style:normal;font-weight:normal;font-size:22.9350872px;line-height:110.00000238%;font-family:Sans;letter-spacing:0px;word-spacing:0px;fill:#000000;fill-opacity:1;stroke:none;stroke-width:1px;stroke-linecap:butt;stroke-linejoin:miter;stroke-opacity:1;"
     xml:space="preserve"><tspan
       id="tspan4346-9"
       style="font-style:normal;font-variant:normal;font-weight:normal;font-stretch:normal;font-size:15px;line-height:110.00000238%;font-family:'Open Sans';-inkscape-font-specification:'Open Sans';fill:#000000;"
       y="383.89648"
       x="60.637695">Uses key to mount partition</tspan></text>
  <text
     id="text4219-8-8"
     y="235.64648"
     x="401.22363"
     style="font-style:normal;font-weight:normal;font-size:22.9350872px;line-height:110.00000238%;font-family:Sans;letter-spacing:0px;word-spacing:0px;fill:#000000;fill-opacity:1;stroke:none;stroke-width:1px;stroke-linecap:butt;stroke-linejoin:miter;stroke-opacity:1;"
     xml:space="preserve"><tspan
       id="tspan4313-3"
       style="font-style:normal;font-variant:normal;font-weight:normal;font-stretch:normal;font-size:15px;line-height:110.00000238%;font-family:'Open Sans';-inkscape-font-specification:'Open Sans';fill:#000000;"
       y="235.64648"
       x="401.22363">Records request in</tspan><tspan
       id="tspan4394"
       style="font-style:normal;font-variant:normal;font-weight:normal;font-stretch:normal;font-size:15px;line-height:110.00000238%;font-family:'Open Sans';-inkscape-font-specification:'Open Sans';fill:#000000;"
       y="252.14648"
       x="401.22363">system journal</tspan></text>
  <text
     id="text4219-8-8-5"
     y="305.64648"
     x="401.83154"
     style="font-style:normal;font-weight:normal;font-size:22.9350872px;line-height:110.00000238%;font-family:Sans;letter-spacing:0px;word-spacing:0px;fill:#000000;fill-opacity:1;stroke:none;stroke-width:1px;stroke-linecap:butt;stroke-linejoin:miter;stroke-opacity:1;"
     xml:space="preserve"><tspan
       id="tspan4394-2"
       style="font-style:normal;font-variant:normal;font-weight:normal;font-stretch:normal;font-size:15px;line-height:110.00000238%;font-family:'Open Sans';-inkscape-font-specification:'Open Sans';fill:#000000;"
       y="305.64648"
       x="401.83154">Responds to RPC request</tspan><tspan
       id="tspan4438"
       style="font-style:normal;font-variant:normal;font-weight:normal;font-stretch:normal;font-size:15px;line-height:110.00000238%;font-family:'Open Sans';-inkscape-font-specification:'Open Sans';fill:#000000;"
       y="322.14648"
       x="401.83154">with partition key</tspan></text>
  <text
     id="text4219-8-8-4"
     y="165.41527"
     x="401.15771"
     style="font-style:normal;font-weight:normal;font-size:22.9350872px;line-height:110.00000238%;font-family:Sans;letter-spacing:0px;word-spacing:0px;fill:#000000;fill-opacity:1;stroke:none;stroke-width:1px;stroke-linecap:butt;stroke-linejoin:miter;stroke-opacity:1;"
     xml:space="preserve"><tspan
       id="tspan4394-0"
       style="font-style:normal;font-variant:normal;font-weight:normal;font-stretch:normal;font-size:15px;line-height:110.00000238%;font-family:'Open Sans';-inkscape-font-specification:'Open Sans';fill:#000000;"
       y="165.41527"
       x="401.15771">Listens for RPC requests</tspan><tspan
       id="tspan4463"
       style="font-style:normal;font-variant:normal;font-weight:normal;font-stretch:normal;font-size:15px;line-height:110.00000238%;font-family:'Open Sans';-inkscape-font-specification:'Open Sans';fill:#000000;"
       y="181.91528"
       x="401.15771">over TCP</tspan></text>
  <path
     d="m 386,168.00188 c 0,9.94184 -8.06518,17.99811 -17.99937,17.99811 C 358.06017,185.99999 350,177.94372 350,168.00188 350,158.05878 358.06017,150 368.00063,150 377.93482,150 386,158.05878 386,168.00188"
     style="fill:#ededee;fill-opacity:1;fill-rule:nonzero;stroke:none"
     id="path518" />
  <path
     id="path2316"
     d="m 364.71484,155.21201 c -0.3209,0 -0.64227,0.12147 -0.88672,0.36719 l -6.10742,6.10937 c -0.11532,0.11534 -0.20755,0.254 -0.27148,0.4082 -0.12661,0.3059 -0.12661,0.65183 0,0.95899 0.064,0.1542 0.15616,0.29286 0.27148,0.4082 l 6.10742,6.10742 c 0.49014,0.4902 1.28261,0.4902 1.77149,0 0.49012,-0.4902 0.49012,-1.28254 0,-1.77148 l -3.96875,-3.96875 15.76172,0 c 0.6932,0 1.2539,-0.56061 1.2539,-1.25391 0,-0.69329 -0.5607,-1.2539 -1.2539,-1.2539 l -15.76172,0 3.96875,-3.97071 c 0.49012,-0.4902 0.49012,-1.28448 0,-1.77343 -0.24444,-0.24572 -0.56386,-0.36719 -0.88477,-0.36719 z m 6.57032,10.84766 c -0.32075,0 -0.64033,0.12208 -0.88477,0.36718 -0.49012,0.4902 -0.49012,1.2845 0,1.77344 l 3.96875,3.96875 -15.76172,0 c -0.6932,0 -1.2539,0.56061 -1.2539,1.25391 0,0.69329 0.5607,1.2539 1.2539,1.2539 l 15.76172,0 -3.96875,3.97071 c -0.49012,0.4902 -0.49012,1.28448 0,1.77343 0.24444,0.24572 0.56386,0.36719 0.88477,0.36719 0.3209,0 0.64227,-0.12147 0.88672,-0.36719 l 6.10742,-6.10937 c 0.11532,-0.11534 0.20755,-0.25596 0.27148,-0.41016 0.12661,-0.3059 0.12661,-0.64987 0,-0.95703 -0.064,-0.1542 -0.15616,-0.29286 -0.27148,-0.4082 l -6.10742,-6.10938 c -0.24507,-0.2451 -0.56598,-0.36718 -0.88672,-0.36718 z"
     style="fill:#000000;fill-opacity:1;fill-rule:nonzero;stroke:none" />
  <rect
     y="-4.9462892e-07"
     x="340"
     height="58"
     width="320"
     id="rect4293-9"
     style="opacity:1;fill:#fe7c3f;fill-opacity:1;stroke:none;stroke-width:1.99999988;stroke-miterlimit:4;stroke-dasharray:none;stroke-dashoffset:0;stroke-opacity:1" />
  <path
     d="m 386,28.001884 c 0,9.94184 -8.06519,17.99811 -17.99937,17.99811 C 358.06017,45.999994 350,37.943724 350,28.001884 350,18.058784 358.06017,10 368.00063,10 377.93482,10 386,18.058784 386,28.001884"
     style="fill:#ffffff;fill-opacity:1;fill-rule:nonzero;stroke:none"
     id="path362" />
  <path
     d="m 375.39392,35.394704 -14.78784,0 0,3.86515 c 0,0.13415 0.10906,0.24322 0.24193,0.24322 l 14.30398,0 c 0.13287,0 0.24193,-0.10907 0.24193,-0.24322 z m 0,-4.92955 0.82106,0 0,8.7947 c 0,0.58673 -0.47759,1.06439 -1.06299,1.06439 l -14.30398,0 c -0.5854,0 -1.06299,-0.47766 -1.06299,-1.06439 0,-0.501428 0,-8.7947 0,-8.7947 l 10.05202,0 0.712,1.51823 c 0.0351,0.0752 0.11282,0.12411 0.19681,0.12411 l 4.64807,0 z m 0.82106,-0.82118 0,-2.46602 0,-1.64235 -0.82106,0 0,1.64235 -4.64807,0 c -0.084,0 -0.16171,-0.0489 -0.19806,-0.12412 l -0.71075,-1.51823 -10.05202,0 0,4.10837 z m 0,-7.39557 0,-1.64235 -0.82106,0 0,1.64235 -4.64807,0 c -0.084,0 -0.16171,-0.0488 -0.19806,-0.12412 l -0.71075,-1.51823 -10.05202,0 0,4.10712 16.42996,0 z m 0,-2.46478 -16.42996,0 0,-3.04398 c 0,-0.58674 0.47759,-1.06439 1.06299,-1.06439 l 14.30398,0 c 0.5854,0 1.06299,0.47765 1.06299,1.06439 z"
     style="fill:#000000;fill-opacity:1;fill-rule:nonzero;stroke:none"
     id="path3092" />
  <text
     id="text4219-3"
     y="35.844734"
     x="442.33167"
     style="font-style:normal;font-weight:normal;font-size:22.9350872px;line-height:0%;font-family:Sans;letter-spacing:0px;word-spacing:0px;fill:#000000;fill-opacity:1;stroke:none;stroke-width:1px;stroke-linecap:butt;stroke-linejoin:miter;stroke-opacity:1;"
     xml:space="preserve"><tspan
       style="font-style:normal;font-variant:normal;font-weight:normal;font-stretch:normal;font-size:22.5px;font-family:'Open Sans';-inkscape-font-specification:'Open Sans';fill:#000000;"
       y="35.844734"
       x="442.33167"
       id="tspan4221-1">cryptctl Server</tspan></text>
  <path
     d="m 346.75422,235.11731 c 0.17643,-0.28014 0.23463,-0.61996 0.16169,-0.94408 -0.037,-0.1628 -0.10489,-0.31561 -0.19911,-0.44876 l -4.9884,-7.05136 c -0.40033,-0.5659 -1.18243,-0.69985 -1.74703,-0.29922 -0.56585,0.40043 -0.69982,1.18262 -0.29927,1.74729 l 3.24163,4.58223 L 47.465436,182.0991 c -0.683251,-0.11702 -1.330134,0.34075 -1.447173,1.0241 -0.11704,0.68333 0.340633,1.33029 1.023884,1.44731 l 295.458293,50.60431 -4.58197,3.24351 c -0.56585,0.40042 -0.69982,1.18261 -0.29927,1.74729 0.19944,0.28346 0.49521,0.45749 0.81151,0.51167 0.31629,0.0542 0.65312,-0.0116 0.93553,-0.21245 l 7.05087,-4.99061 c 0.13314,-0.0943 0.24806,-0.21572 0.33711,-0.35692"
     style="fill:#30ba78;fill-opacity:1;fill-rule:nonzero;stroke:none"
     id="path2316-0" />
  <path
     d="m 46.1924,364.72914 c -0.17643,-0.28014 -0.23463,-0.61996 -0.16169,-0.94408 0.037,-0.1628 0.10489,-0.31561 0.19911,-0.44876 l 4.9884,-7.05136 c 0.40033,-0.5659 1.18243,-0.69985 1.74703,-0.29922 0.56585,0.40043 0.69982,1.18262 0.29927,1.74729 l -3.24163,4.58223 295.4583,-50.60431 c 0.68325,-0.11702 1.33013,0.34075 1.44717,1.0241 0.11704,0.68333 -0.34063,1.33029 -1.02388,1.44731 l -295.4583,50.60431 4.58197,3.24351 c 0.56585,0.40042 0.69982,1.18261 0.29927,1.74729 -0.19944,0.28346 -0.49521,0.45749 -0.81151,0.51167 -0.31629,0.0542 -0.65312,-0.0116 -0.93553,-0.21245 l -7.05087,-4.99061 c -0.13314,-0.0943 -0.24806,-0.21572 -0.33711,-0.35692"
     style="fill:#fe7c3f;fill-opacity:1;fill-rule:nonzero;stroke:none"
     id="path2316-0-6" />
  <path
     d="m 385.89875,308.055 c 0,9.9125 -8.0425,17.945 -17.94875,17.945 -9.9125,0 -17.95,-8.0325 -17.95,-17.945 0,-9.91375 8.0375,-17.94875 17.95,-17.94875 9.90625,0 17.94875,8.035 17.94875,17.94875"
     style="fill:#ededee;fill-opacity:1;fill-rule:nonzero;stroke:none"
     id="path5250" />
  <path
     d="m 361.58525,304.40638 c 0,-1.32125 1.0725,-2.39625 2.39375,-2.39625 1.32125,0 2.395,1.075 2.395,2.39625 0,1.32 -1.07375,2.39375 -2.395,2.39375 -1.32125,0 -2.39375,-1.07375 -2.39375,-2.39375 z m 9.5225,4.19 0.3675,-0.36875 c 0.14125,-0.14125 0.14125,-0.37125 0,-0.51375 l -1.77875,-1.77875 c 0.145,-0.4275 0.38875,-1.38 0.1875,-2.54125 -0.20125,-1.17125 -0.91625,-3.29875 -3.43875,-4.39625 -1.6675,-0.7225 -3.27375,-0.74875 -4.7825,-0.0725 -1.83375,0.82 -2.95375,2.45 -3.22875,3.285 -0.5625,1.69875 -1.02125,4.88625 2.19125,7.13875 1.91,1.33875 4.10375,0.96625 4.7975,0.80125 l 1.795,1.795 c 0.14125,0.14375 0.37375,0.14375 0.51375,0 l 0.62875,-0.6275 1.61625,1.61625 c 0.0688,0.0687 0.16,0.10625 0.2575,0.10625 l 0,0 0.91,-10e-4 0.0875,1.83875 c 0.005,0.0975 0.0487,0.18875 0.12125,0.25375 0.0725,0.065 0.17625,0.09 0.26375,0.0913 l 1.9225,-0.11625 0.0613,1.38625 c 0.009,0.18875 0.16,0.34125 0.35,0.3475 l 0.79,0.0288 0.69625,0.7275 c 0.0675,0.0712 0.16375,0.11125 0.2625,0.11125 0.0137,0 0.0275,0 0.0412,-0.002 l 1.80375,-0.2075 c 0.18375,-0.0213 0.3225,-0.1775 0.3225,-0.36125 l 0,-1.63125 c 0,-0.0962 -0.0387,-0.18875 -0.10625,-0.25792 z"
     style="fill:#000000;fill-opacity:1;fill-rule:nonzero;stroke:none"
     id="path6386" />
</svg>
