<svg xmlns="http://www.w3.org/2000/svg" width="704" height="435.2" viewBox="0 0 660 408">
    <defs>
        <marker id="c" markerHeight="4.7071" markerWidth="3.0607" orient="auto" refX="1.5303" refY="2.3536">
            <path fill="none" stroke="#000" d="m.3536.3536 2 2-2 2"/>
        </marker>
        <marker id="a" markerHeight="4.7071" markerWidth="3.0607" orient="auto" refX="1.5303" refY="2.3536">
            <path fill="none" stroke="#30ba2c" d="m.3536.3536 2 2-2 2"/>
        </marker>
        <marker id="b" markerHeight="4.7071" markerWidth="3.0607" orient="auto" refX="1.5303" refY="2.3536">
            <path fill="none" stroke="#fe7c3f" d="m.3536.3536 2 2-2 2"/>
        </marker>
    </defs>
    <rect width="4" height="349" x="26" y="59" fill="#30ba78"/>
    <rect width="4" height="349" x="366" y="59" fill="#fe7c3f"/>
    <rect width="320" height="58" fill="#30ba78"/>
    <path fill="#ededee" d="M46 98.0019C46 107.9437 37.9348 116 28.0006 116 18.0602 116 10 107.9437 10 98.0019 10 88.0588 18.0602 80 28.0006 80 37.9348 80 46 88.0588 46 98.0019m0 280C46 387.9437 37.9348 396 28.0006 396 18.0602 396 10 387.9437 10 378.0019 10 368.0588 18.0602 360 28.0006 360 37.9348 360 46 368.0588 46 378.0019m340-140C386 247.9437 377.9348 256 368.0006 256 358.0602 256 350 247.9437 350 238.0019 350 228.0588 358.0602 220 368.0006 220 377.9348 220 386 228.0588 386 238.0019"/>
    <text xml:space="preserve" x="87.2143" y="34.2388" font-family="Sans" font-size="20.625" letter-spacing="0" style="line-height:0%" word-spacing="0"><tspan x="87.2143" y="34.2388" font-family="Poppins" font-weight="500" style="-inkscape-font-specification:'Poppins Medium'">cryptctl Client</tspan></text>
    <text xml:space="preserve" x="97.4272" y="95.4153" font-family="Poppins" font-size="13.125" font-weight="500" letter-spacing="0" style="line-height:110%;-inkscape-font-specification:'Poppins Medium'" word-spacing="0"><tspan x="97.4272" y="95.4153" style="line-height:110%;-inkscape-font-specification:'Poppins Medium'">Waits for kernel notification that</tspan><tspan x="97.4272" y="111.9153" style="line-height:110%;-inkscape-font-specification:'Poppins Medium'">a disk was attached</tspan></text>
    <path fill="#ededee" d="M46 168.0019c0 9.9418-8.0652 17.998-17.9994 17.998C18.0602 186 10 177.9438 10 168.002 10 158.0588 18.0602 150 28.0006 150 37.9348 150 46 158.0588 46 168.0019"/>
    <text xml:space="preserve" x="96.8486" y="165.6465" font-family="Poppins" font-size="13.125" font-weight="500" letter-spacing="0" style="line-height:110%;-inkscape-font-specification:'Poppins Medium'" word-spacing="0"><tspan x="96.8486" y="165.6465" style="line-height:110%;-inkscape-font-specification:'Poppins Medium'">Sends RPC request to retrieve</tspan><tspan x="96.8486" y="182.1465" style="line-height:110%;-inkscape-font-specification:'Poppins Medium'">encryption key</tspan></text>
    <text xml:space="preserve" x="96.2627" y="383.8965" font-family="Poppins" font-size="13.125" font-weight="500" letter-spacing="0" style="line-height:110%;-inkscape-font-specification:'Poppins Medium'" word-spacing="0"><tspan x="96.2627" y="383.8965" style="line-height:110%;-inkscape-font-specification:'Poppins Medium'">Uses key to mount partition</tspan></text>
    <text xml:space="preserve" x="436.8486" y="235.6465" font-family="Poppins" font-size="13.125" font-weight="500" letter-spacing="0" style="line-height:110%;-inkscape-font-specification:'Poppins Medium'" word-spacing="0"><tspan x="436.8486" y="235.6465" style="line-height:110%;-inkscape-font-specification:'Poppins Medium'">Records request in</tspan><tspan x="436.8486" y="252.1465" style="line-height:110%;-inkscape-font-specification:'Poppins Medium'">system journal</tspan></text>
    <text xml:space="preserve" x="437.4565" y="305.6465" font-family="Poppins" font-size="13.125" font-weight="500" letter-spacing="0" style="line-height:110%;-inkscape-font-specification:'Poppins Medium'" word-spacing="0"><tspan x="437.4565" y="305.6465" style="line-height:110%;-inkscape-font-specification:'Poppins Medium'">Responds to RPC request</tspan><tspan x="437.4565" y="322.1465" style="line-height:110%;-inkscape-font-specification:'Poppins Medium'">with partition key</tspan></text>
    <text xml:space="preserve" x="436.7827" y="165.4153" font-family="Poppins" font-size="13.125" font-weight="500" letter-spacing="0" style="line-height:110%;-inkscape-font-specification:'Poppins Medium'" word-spacing="0"><tspan x="436.7827" y="165.4153" style="line-height:110%;-inkscape-font-specification:'Poppins Medium'">Listens for RPC requests</tspan><tspan x="436.7827" y="181.9153" style="line-height:110%;-inkscape-font-specification:'Poppins Medium'">over TCP</tspan></text>
    <path fill="#ededee" d="M386 168.0019c0 9.9418-8.0652 17.998-17.9994 17.998C358.0602 186 350 177.9438 350 168.002c0-9.9432 8.0602-18.002 18.0006-18.002C377.9348 150 386 158.0588 386 168.0019"/>
    <rect width="320" height="58" x="340" fill="#fe7c3f"/>
    <text xml:space="preserve" x="424.7084" y="33.9294" font-family="Sans" font-size="20.625" letter-spacing="0" style="line-height:0%" word-spacing="0"><tspan x="424.7084" y="33.9294" font-family="Poppins" font-weight="500" style="-inkscape-font-specification:'Poppins Medium'">cryptctl Server</tspan></text>
    <path fill="#ededee" d="M385.8988 308.055c0 9.9125-8.0425 17.945-17.9488 17.945-9.9125 0-17.95-8.0325-17.95-17.945 0-9.9138 8.0375-17.9488 17.95-17.9488 9.9063 0 17.9488 8.035 17.9488 17.9488"/>
    <path d="M361.5852 304.4064c0-1.3213 1.0725-2.3963 2.3938-2.3963 1.3213 0 2.395 1.075 2.395 2.3963 0 1.32-1.0738 2.3937-2.395 2.3937-1.3213 0-2.3937-1.0737-2.3937-2.3937zm9.5225 4.19.3675-.3688c.1413-.1412.1413-.3712 0-.5137l-1.7787-1.7788c.145-.4275.3887-1.38.1875-2.5412-.2013-1.1713-.9163-3.2988-3.4388-4.3963-1.6675-.7225-3.2737-.7487-4.7825-.0725-1.8337.82-2.9537 2.45-3.2287 3.285-.5625 1.6988-1.0213 4.8863 2.1912 7.1388 1.91 1.3387 4.1038.9662 4.7975.8012l1.795 1.795c.1413.1438.3738.1438.5138 0l.6288-.6275 1.6162 1.6163a.3614.3614 0 0 0 .2575.1062l.91-.001.0875 1.8388a.3658.3658 0 0 0 .1212.2537c.0725.065.1763.09.2638.0913l1.9225-.1162.0613 1.3862c.009.1888.16.3413.35.3475l.79.0288.6963.7275a.363.363 0 0 0 .2625.1113c.0137 0 .0275 0 .0412-.002l1.8037-.2075a.3647.3647 0 0 0 .3225-.3613v-1.6312a.3701.3701 0 0 0-.1062-.258z"/>
    <path fill="none" stroke="#30ba78" stroke-width="2.3438" marker-end="url(#a)" d="M46.875 187.5 337.5 234.375"/>
    <path fill="#fe7c3f" stroke="#fe7c3f" stroke-width="2.3437" marker-end="url(#b)" d="m337.5 309.375-281.25 56.25"/>
    <path fill="none" stroke="#000" stroke-width="2.3438" marker-end="url(#c)" d="M358.125 163.3125h18.75"/>
    <path fill="none" stroke="#000" stroke-width="2.3438" marker-end="url(#c)" d="M376.875 172.6875h-18.75"/>
    <path fill="none" stroke="#0c322c" stroke-width="2.3437" d="m357.598 237.7548 6.9347 6.9347 13.8693-13.8694"/>
    <text xml:space="preserve" x="22.0712" y="175.8525" stroke-width=".9375" font-family="Poppins" font-size="22.5" font-weight="500" letter-spacing="0" style="line-height:1.25;-inkscape-font-specification:'Poppins, Medium'"><tspan x="22.0712" y="175.8525">?</tspan></text>
    <g stroke="#000" transform="translate(-92.806 -70.7873) scale(.6547)">
        <path stroke-linecap="round" stroke-width="1.0222" d="m169.19 260.331 5.1113-15.3334h20.4446l5.1112 15.3335v10.2223h-30.6669v-10.2223"/>
        <rect width="28.125" height="8.4375" x="-79.6875" y="211.875" fill="#fff" stroke-linecap="round" stroke-width="1.621" opacity=".995" paint-order="stroke fill markers" transform="translate(254.5238 35.2748) scale(1.06667)"/>
        <rect width="3.2634" height="3.2634" x="-57.1875" y="213.75" fill="none" stroke-linecap="square" stroke-width=".8156" opacity=".995" paint-order="stroke fill markers" transform="translate(254.5238 35.2748) scale(1.06667)"/>
        <rect width="7.3964" height="5.4103" x="180.5153" y="250.7593" fill="#fff" stroke="#fff" stroke-miterlimit="10" stroke-width=".6794" class="st0"/>
        <path fill="none" stroke="#fff" stroke-miterlimit="10" stroke-width=".7944" d="M184.2135 246.7045c-1.3615 0-2.4655.8096-2.4655 1.808v2.712h4.931v-2.712c0-.9984-1.104-1.808-2.4655-1.808z" class="st0"/>
    </g>
    <g stroke="#000" transform="translate(-144.991 136.3011) scale(.93749)">
        <path stroke-linecap="round" stroke-width=".7139" d="m173.8159 259.5709 3.5693-10.708h14.2773l3.5693 10.708v7.1386h-21.416v-7.1386"/>
        <rect width="20.9501" height="6.285" x="174.0488" y="260.2304" fill="#fff" stroke-linecap="round" stroke-width="1.2075" opacity=".995" paint-order="stroke fill markers"/>
        <rect width="2.4309" height="2.4309" x="190.8089" y="261.627" fill="none" stroke-linecap="square" stroke-width=".6076" opacity=".995" paint-order="stroke fill markers"/>
    </g>
    <g stroke="#000" stroke-width="6.4669" transform="translate(16.4573 353.2682) scale(.0852)">
        <rect width="54" height="39.5001" x="108.5" y="243.5" fill="#fff" stroke="#fff" stroke-width="4.9605" class="st0"/>
        <path fill="none" stroke="#fff" stroke-width="5.7999" d="M153.5 228.0999c0-9.94-8.06-18-18-18s-18 8.06-18 18v27h36" class="st0"/>
    </g>
</svg>

