<svg xmlns="http://www.w3.org/2000/svg" width="2718.6667" height="4402.6665" viewBox="2823 33 8090 13104">
    <defs>
        <marker id="a" markerHeight="4.7071" markerWidth="3.0607" orient="auto" refX="1.5303" refY="2.3536">
            <path fill="none" stroke="#0c322c" d="m.3536.3536 2 2-2 2"/>
        </marker>
        <marker id="b" markerHeight="4.7071" markerWidth="3.0607" orient="auto" refX="1.5303" refY="2.3536">
            <path fill="none" stroke="#0c322c" d="m.3536.3536 2 2-2 2"/>
        </marker>
        <marker id="c" markerHeight="4.7071" markerWidth="3.0607" orient="auto" refX="1.5303" refY="2.3536">
            <path fill="none" stroke="#0c322c" d="m.3536.3536 2 2-2 2"/>
        </marker>
        <marker id="d" markerHeight="4.7071" markerWidth="3.0607" orient="auto" refX="1.5303" refY="2.3536">
            <path fill="none" stroke="#0c322c" d="m.3536.3536 2 2-2 2"/>
        </marker>
        <marker id="e" markerHeight="4.7071" markerWidth="3.0607" orient="auto" refX="1.5303" refY="2.3536">
            <path fill="none" stroke="#0c322c" d="m.3536.3536 2 2-2 2"/>
        </marker>
        <marker id="f" markerHeight="4.7071" markerWidth="3.0607" orient="auto" refX="1.5303" refY="2.3536">
            <path fill="none" stroke="#0c322c" d="m.3536.3536 2 2-2 2"/>
        </marker>
        <marker id="g" markerHeight="4.7071" markerWidth="3.0607" orient="auto" refX="1.5303" refY="2.3536">
            <path fill="none" stroke="#0c322c" d="m.3536.3536 2 2-2 2"/>
        </marker>
        <marker id="h" markerHeight="4.7071" markerWidth="3.0607" orient="auto" refX="1.5303" refY="2.3536">
            <path fill="none" stroke="#0c322c" d="m.3536.3536 2 2-2 2"/>
        </marker>
        <marker id="i" markerHeight="4.7071" markerWidth="3.0607" orient="auto" refX="1.5303" refY="2.3536">
            <path fill="none" stroke="#0c322c" d="m.3536.3536 2 2-2 2"/>
        </marker>
        <marker id="j" markerHeight="4.7071" markerWidth="3.0607" orient="auto" refX="1.5303" refY="2.3536">
            <path fill="none" stroke="#0c322c" d="m.3536.3536 2 2-2 2"/>
        </marker>
        <marker id="k" markerHeight="4.7071" markerWidth="3.0607" orient="auto" refX="1.5303" refY="2.3536">
            <path fill="none" stroke="#0c322c" d="m.3536.3536 2 2-2 2"/>
        </marker>
    </defs>
    <g fill="none">
        <rect width="1800" height="2025" x="9045" y="9630" fill="#30ba78"/>
        <rect width="1800" height="2790" x="5445" y="7515" fill="#30ba78"/>
        <rect width="1800" height="2025" x="9000" y="4995" fill="#30ba78"/>
        <rect width="1800" height="2025" x="9000" y="45" fill="#30ba78"/>
        <rect width="1800" height="2025" x="5445" y="2475" fill="#30ba78"/>
        <polygon fill="#90ebcd" points="10172,11004 10172,10260 9782,10260 9782,11004 9469,11004 9978,11513 10485,11004"/>
        <polygon fill="#90ebcd" points="10127,1419 10127,675 9737,675 9737,1419 9424,1419 9933,1928 10440,1419"/>
        <polygon fill="#90ebcd" points="10127,6369 10127,5625 9737,5625 9737,6369 9424,6369 9933,6878 10440,6369"/>
        <polygon fill="#90ebcd" points="6572,3849 6572,3105 6182,3105 6182,3849 5869,3849 6378,4358 6885,3849"/>
        <polygon fill="#90ebcd" points="6572,8889 6572,8145 6182,8145 6182,8889 5869,8889 6378,9398 6885,8889"/>
        <circle cx="9900" cy="3539.7632" r="630" fill="#fe7c3f"/>
        <circle cx="4050" cy="8190" r="630" fill="#fe7c3f"/>
        <circle cx="9905.9531" cy="8235" r="90" fill="#fe7c3f"/>
        <rect width="2385" height="1440" x="2876.6685" y="5265" fill="#dedfe0" rx="105"/>
        <text xml:space="preserve" x="9900" y="3560.4961" fill="#0c322c" font-family="Poppins" font-size="192" font-weight="bold" style="-inkscape-font-specification:'Poppins Bold'" text-anchor="middle">Routing</text>
        <text xml:space="preserve" x="4050" y="8240.4961" fill="#0c322c" font-family="Poppins" font-size="192" font-weight="bold" style="-inkscape-font-specification:'Poppins Bold'" text-anchor="middle">Routing</text>
        <text xml:space="preserve" x="4070.479" y="6060" fill="#000" font-family="Poppins" font-size="192" font-weight="500" style="-inkscape-font-specification:'Poppins Medium'" text-anchor="middle">in the local</text>
        <text xml:space="preserve" x="4076.4316" y="6360" fill="#000" font-family="Poppins" font-size="192" font-weight="500" style="-inkscape-font-specification:'Poppins Medium'" text-anchor="middle">system</text>
        <text xml:space="preserve" x="4064.5264" y="5760" fill="#000" font-family="Poppins" font-size="192" font-weight="500" style="-inkscape-font-specification:'Poppins Medium'" text-anchor="middle">Processes</text>
        <text xml:space="preserve" x="9945" y="13061.906" fill="#0c322c" font-family="Poppins" font-size="192" font-weight="500" style="-inkscape-font-specification:'Poppins Medium'" text-anchor="middle">outgoing packet</text>
        <text xml:space="preserve" x="7245" y="870.2362" fill="#0c322c" font-family="Poppins" font-size="192" font-weight="500" style="-inkscape-font-specification:'Poppins Medium'" text-anchor="middle">incoming packet</text>
        <text xml:space="preserve" x="6345.5762" y="9770.748" fill="#0c322c" font-family="Poppins" font-size="192" font-weight="500" style="-inkscape-font-specification:'Poppins Medium'" text-anchor="middle">filter</text>
        <rect width="1350" height="405" x="9270" y="10350" stroke="#0c322c" stroke-width="28.2756"/>
        <rect width="1350" height="405" x="9270" y="10980" stroke="#0c322c" stroke-width="28.2756"/>
        <rect width="1350" height="405" x="9225" y="765" stroke="#0c322c" stroke-width="26.7874"/>
        <rect width="1350" height="405" x="9225" y="1395" stroke="#0c322c" stroke-width="26.7874"/>
        <rect width="1350" height="405" x="9225" y="5715" stroke="#0c322c" stroke-width="28.2756"/>
        <rect width="1350" height="405" x="9225" y="6345" stroke="#0c322c" stroke-width="28.2756"/>
        <rect width="1350" height="405" x="5670" y="3195" stroke="#0c322c" stroke-width="28.2756"/>
        <rect width="1350" height="405" x="5670" y="3825" stroke="#0c322c" stroke-width="28.2756"/>
        <rect width="1350" height="405" x="5670" y="8235" stroke="#0c322c" stroke-width="28.2756"/>
        <rect width="1350" height="405" x="5670" y="8865" stroke="#0c322c" stroke-width="28.2756"/>
        <rect width="1350" height="405" x="5670" y="9495" stroke="#0c322c" stroke-width="28.2756"/>
        <text xml:space="preserve" x="9940.6797" y="11247.684" fill="#0c322c" font-family="Poppins" font-size="192" font-weight="500" style="-inkscape-font-specification:'Poppins Medium'" text-anchor="middle">nat</text>
        <text xml:space="preserve" x="9941.3525" y="10597.428" fill="#0c322c" font-family="Poppins" font-size="192" font-weight="500" style="-inkscape-font-specification:'Poppins Medium'" text-anchor="middle">mangle</text>
        <text xml:space="preserve" x="9942.5635" y="10035" fill="#0c322c" font-family="Poppins" font-size="168" font-weight="bold" style="-inkscape-font-specification:'Poppins Bold'" text-anchor="middle">POSTROUTING</text>
        <text xml:space="preserve" x="9897.5635" y="450" fill="#0c322c" font-family="Poppins" font-size="168" font-weight="bold" style="-inkscape-font-specification:'Poppins Bold'" text-anchor="middle">PREROUTING</text>
        <text xml:space="preserve" x="9895.6797" y="1662.684" fill="#0c322c" font-family="Poppins" font-size="192" font-weight="500" style="-inkscape-font-specification:'Poppins Medium'" text-anchor="middle">nat</text>
        <text xml:space="preserve" x="9896.3525" y="1012.428" fill="#0c322c" font-family="Poppins" font-size="192" font-weight="500" style="-inkscape-font-specification:'Poppins Medium'" text-anchor="middle">mangle</text>
        <text xml:space="preserve" x="9897.6475" y="5400" fill="#0c322c" font-family="Poppins" font-size="168" font-weight="bold" style="-inkscape-font-specification:'Poppins Bold'" text-anchor="middle">FORWARD</text>
        <text xml:space="preserve" x="9896.3525" y="5962.4282" fill="#0c322c" font-family="Poppins" font-size="192" font-weight="500" style="-inkscape-font-specification:'Poppins Medium'" text-anchor="middle">mangle</text>
        <text xml:space="preserve" x="9900.5762" y="6620.748" fill="#0c322c" font-family="Poppins" font-size="192" font-weight="500" style="-inkscape-font-specification:'Poppins Medium'" text-anchor="middle">filter</text>
        <text xml:space="preserve" x="6341.8081" y="2880" fill="#0c322c" stroke="#0c322c" font-family="Poppins" font-size="168" font-weight="bold" style="-inkscape-font-specification:'Poppins Bold'" text-anchor="middle">INPUT</text>
        <text xml:space="preserve" x="6341.3521" y="3442.428" fill="#0c322c" font-family="Poppins" font-size="192" font-weight="500" style="-inkscape-font-specification:'Poppins Medium'" text-anchor="middle">mangle</text>
        <text xml:space="preserve" x="6345.5762" y="4100.748" fill="#0c322c" font-family="Poppins" font-size="192" font-weight="500" style="-inkscape-font-specification:'Poppins Medium'" text-anchor="middle">filter</text>
        <text xml:space="preserve" x="6344.2441" y="7920" fill="#0c322c" font-family="Poppins" font-size="168" font-weight="bold" style="-inkscape-font-specification:'Poppins Bold'" text-anchor="middle">OUTPUT</text>
        <text xml:space="preserve" x="6340.6802" y="9132.6836" fill="#0c322c" font-family="Poppins" font-size="192" font-weight="500" style="-inkscape-font-specification:'Poppins Medium'" text-anchor="middle">nat</text>
        <text xml:space="preserve" x="6341.3521" y="8482.4277" fill="#0c322c" font-family="Poppins" font-size="192" font-weight="500" style="-inkscape-font-specification:'Poppins Medium'" text-anchor="middle">mangle</text>
        <path fill="#0c322c" stroke="#0c322c" stroke-width="26.7874" marker-end="url(#a)" d="M6316.3773 985.441H8935.59"/>
        <path stroke="#0c322c" stroke-width="28.2756" marker-end="url(#b)" d="M9905.8899 2116.4647v732.189"/>
        <path stroke="#0c322c" stroke-width="28.2756" marker-end="url(#c)" d="M9911.839 4199.9293v738.1417"/>
        <path stroke="#0c322c" stroke-width="28.2756" marker-end="url(#d)" d="M9911.8391 7051.297v1023.8739"/>
        <path stroke="#0c322c" stroke-width="28.2756" marker-end="url(#e)" d="M9911.8391 8360.9069v1184.5983"/>
        <path stroke="#0c322c" stroke-width="28.2756" marker-end="url(#f)" d="M9917.7898 11706.367v1148.882"/>
        <path stroke="#0c322c" stroke-width="28.2756" marker-end="url(#g)" d="M9233.2283 3545.1261H7310.4881"/>
        <path stroke="#0c322c" stroke-width="26.7874" marker-end="url(#h)" d="M5381.7952 3545.1262H4072.1888v1666.7717"/>
        <path stroke="#0c322c" stroke-width="28.2756" marker-end="url(#i)" d="M4078.1381 6741.7538v750.0472"/>
        <path stroke="#0c322c" stroke-width="28.2756" marker-end="url(#j)" d="M4726.9886 8247.8009h642.8975"/>
        <path stroke="#0c322c" stroke-width="28.2756" marker-end="url(#k)" d="M7274.7683 8247.8008h2476.3463"/>
    </g>
</svg>

