<?xml version="1.0" encoding="UTF-8"?>
<svg xmlns="http://www.w3.org/2000/svg" xmlns:xlink="http://www.w3.org/1999/xlink" width="2039pt" height="3302pt" viewBox="2823 33 8090 13104">
<g fill="none">
<!-- Line -->
<polygon points=" 10172,10260 9782,10260 9782,11004 9469,11004 9978,11513 10485,11004 10172,11004 " fill="#e5e5e5" stroke="#ffffff" stroke-width="8px" stroke-dasharray="10 30"/>
<!-- Line -->
<polygon points=" 10127,675 9737,675 9737,1419 9424,1419 9933,1928 10440,1419 10127,1419" fill="#e5e5e5" stroke="#ffffff" stroke-width="8px" stroke-dasharray="10 30"/>
<!-- Line -->
<polygon points=" 10127,5625 9737,5625 9737,6369 9424,6369 9933,6878 10440,6369 10127,6369" fill="#e5e5e5" stroke="#ffffff" stroke-width="8px" stroke-dasharray="10 30"/>
<!-- Line -->
<polygon points=" 6572,3105 6182,3105 6182,3849 5869,3849 6378,4358 6885,3849 6572,3849" fill="#e5e5e5" stroke="#ffffff" stroke-width="8px" stroke-dasharray="10 30"/>
<!-- Line -->
<polygon points=" 6572,8145 6182,8145 6182,8889 5869,8889 6378,9398 6885,8889 6572,8889" fill="#e5e5e5" stroke="#ffffff" stroke-width="8px" stroke-dasharray="10 30"/>
<!-- Circle -->
<circle cx="9900" cy="3510" r="630" stroke="#000000" stroke-width="8px"/>
<!-- Circle -->
<circle cx="4050" cy="8190" r="630" stroke="#000000" stroke-width="8px"/>
<!-- Circle -->
<circle cx="9900" cy="8235" r="90" stroke="#000000" stroke-width="8px"/>
<!-- Line -->
<defs>
<clipPath id="cp0">
	<path clip-rule="evenodd" d="M 2823,33 H 10913 V 13137 H 2823 z   M 9930,2744 9870,2744 9893,2887 9907,2887z"/>
</clipPath>
</defs>
<polyline points=" 9900,2070 9900,2880" clip-path="url(#cp0)" stroke="#000000" stroke-width="8px"/>
<!-- Forward arrow to point 9900,2880 -->
<polygon points=" 9870,2744 9900,2864 9930,2744 9870,2744" stroke="#000000" stroke-width="8px" stroke-miterlimit="8" fill="#000000"/>
<!-- Line -->
<defs>
<clipPath id="cp1">
	<path clip-rule="evenodd" d="M 2823,33 H 10913 V 13137 H 2823 z   M 9930,4859 9870,4859 9893,5002 9907,5002z"/>
</clipPath>
</defs>
<polyline points=" 9900,4140 9900,4995" clip-path="url(#cp1)" stroke="#000000" stroke-width="8px"/>
<!-- Forward arrow to point 9900,4995 -->
<polygon points=" 9870,4859 9900,4979 9930,4859 9870,4859" stroke="#000000" stroke-width="8px" stroke-miterlimit="8" fill="#000000"/>
<!-- Line -->
<defs>
<clipPath id="cp2">
	<path clip-rule="evenodd" d="M 2823,33 H 10913 V 13137 H 2823 z   M 7381,3540 7381,3480 7238,3503 7238,3517z"/>
</clipPath>
</defs>
<polyline points=" 9270,3510 7245,3510" clip-path="url(#cp2)" stroke="#000000" stroke-width="8px"/>
<!-- Forward arrow to point 7245,3510 -->
<polygon points=" 7381,3480 7261,3510 7381,3540 7381,3480" stroke="#000000" stroke-width="8px" stroke-miterlimit="8" fill="#000000"/>
<!-- Line -->
<rect x="2835" y="5265" width="2385" height="1440" rx="105" stroke="#000000" stroke-width="8px"/>
<!-- Line -->
<defs>
<clipPath id="cp3">
	<path clip-rule="evenodd" d="M 2823,33 H 10913 V 13137 H 2823 z   M 4080,5129 4020,5129 4043,5272 4057,5272z"/>
</clipPath>
</defs>
<polyline points=" 5445,3555 4050,3555 4050,5265" clip-path="url(#cp3)" stroke="#000000" stroke-width="8px"/>
<!-- Forward arrow to point 4050,5265 -->
<polygon points=" 4020,5129 4050,5249 4080,5129 4020,5129" stroke="#000000" stroke-width="8px" stroke-miterlimit="8" fill="#000000"/>
<!-- Line -->
<defs>
<clipPath id="cp4">
	<path clip-rule="evenodd" d="M 2823,33 H 10913 V 13137 H 2823 z   M 4080,7424 4020,7424 4043,7567 4057,7567z"/>
</clipPath>
</defs>
<polyline points=" 4050,6750 4050,7560" clip-path="url(#cp4)" stroke="#000000" stroke-width="8px"/>
<!-- Forward arrow to point 4050,7560 -->
<polygon points=" 4020,7424 4050,7544 4080,7424 4020,7424" stroke="#000000" stroke-width="8px" stroke-miterlimit="8" fill="#000000"/>
<!-- Line -->
<defs>
<clipPath id="cp5">
	<path clip-rule="evenodd" d="M 2823,33 H 10913 V 13137 H 2823 z   M 5309,8205 5309,8265 5452,8242 5452,8228z"/>
</clipPath>
</defs>
<polyline points=" 4680,8235 5445,8235" clip-path="url(#cp5)" stroke="#000000" stroke-width="8px"/>
<!-- Forward arrow to point 5445,8235 -->
<polygon points=" 5309,8265 5429,8235 5309,8205 5309,8265" stroke="#000000" stroke-width="8px" stroke-miterlimit="8" fill="#000000"/>
<!-- Line -->
<defs>
<clipPath id="cp6">
	<path clip-rule="evenodd" d="M 2823,33 H 10913 V 13137 H 2823 z   M 9930,8009 9870,8009 9893,8152 9907,8152z"/>
</clipPath>
</defs>
<polyline points=" 9900,7020 9900,8145" clip-path="url(#cp6)" stroke="#000000" stroke-width="8px"/>
<!-- Forward arrow to point 9900,8145 -->
<polygon points=" 9870,8009 9900,8129 9930,8009 9870,8009" stroke="#000000" stroke-width="8px" stroke-miterlimit="8" fill="#000000"/>
<!-- Line -->
<defs>
<clipPath id="cp7">
	<path clip-rule="evenodd" d="M 2823,33 H 10913 V 13137 H 2823 z   M 9930,9494 9870,9494 9893,9637 9907,9637z"/>
</clipPath>
</defs>
<polyline points=" 9900,8370 9900,9630" clip-path="url(#cp7)" stroke="#000000" stroke-width="8px"/>
<!-- Forward arrow to point 9900,9630 -->
<polygon points=" 9870,9494 9900,9614 9930,9494 9870,9494" stroke="#000000" stroke-width="8px" stroke-miterlimit="8" fill="#000000"/>
<!-- Line -->
<defs>
<clipPath id="cp8">
	<path clip-rule="evenodd" d="M 2823,33 H 10913 V 13137 H 2823 z   M 9674,8205 9674,8265 9817,8242 9817,8228z"/>
</clipPath>
</defs>
<polyline points=" 7290,8235 9810,8235" clip-path="url(#cp8)" stroke="#000000" stroke-width="8px"/>
<!-- Forward arrow to point 9810,8235 -->
<polygon points=" 9674,8265 9794,8235 9674,8205 9674,8265" stroke="#000000" stroke-width="8px" stroke-miterlimit="8" fill="#000000"/>
<!-- Line -->
<defs>
<clipPath id="cp9">
	<path clip-rule="evenodd" d="M 2823,33 H 10913 V 13137 H 2823 z   M 9930,12554 9870,12554 9893,12697 9907,12697z"/>
</clipPath>
</defs>
<polyline points=" 9900,11700 9900,12690" clip-path="url(#cp9)" stroke="#000000" stroke-width="8px"/>
<!-- Forward arrow to point 9900,12690 -->
<polygon points=" 9870,12554 9900,12674 9930,12554 9870,12554" stroke="#000000" stroke-width="8px" stroke-miterlimit="8" fill="#000000"/>
<!-- Line -->
<defs>
<clipPath id="cp10">
	<path clip-rule="evenodd" d="M 2823,33 H 10913 V 13137 H 2823 z   M 8864,1095 8864,1155 9007,1132 9007,1118z"/>
</clipPath>
</defs>
<polyline points=" 6975,1125 9000,1125" clip-path="url(#cp10)" stroke="#000000" stroke-width="8px"/>
<!-- Forward arrow to point 9000,1125 -->
<polygon points=" 8864,1155 8984,1125 8864,1095 8864,1155" stroke="#000000" stroke-width="8px" stroke-miterlimit="8" fill="#000000"/>
<!-- Text -->
<text xml:space="preserve" x="9900" y="3600" fill="#000000" font-family="Helvetica" font-style="normal" font-weight="bold" font-size="192" text-anchor="middle">Routing</text>
<!-- Text -->
<text xml:space="preserve" x="4050" y="8280" fill="#000000" font-family="Helvetica" font-style="normal" font-weight="bold" font-size="192" text-anchor="middle">Routing</text>
<!-- Text -->
<text xml:space="preserve" x="4005" y="6060" fill="#000000" font-family="Helvetica" font-style="normal" font-weight="bold" font-size="192" text-anchor="middle">in the local</text>
<!-- Text -->
<text xml:space="preserve" x="4005" y="6360" fill="#000000" font-family="Helvetica" font-style="normal" font-weight="bold" font-size="192" text-anchor="middle">system</text>
<!-- Text -->
<text xml:space="preserve" x="4005" y="5760" fill="#000000" font-family="Helvetica" font-style="normal" font-weight="bold" font-size="192" text-anchor="middle">Processes</text>
<!-- Text -->
<text xml:space="preserve" x="9945" y="13050" fill="#000000" font-family="Helvetica" font-style="normal" font-weight="bold" font-size="192" text-anchor="middle">outgoing packet</text>
<!-- Text -->
<text xml:space="preserve" x="7245" y="900" fill="#000000" font-family="Helvetica" font-style="normal" font-weight="bold" font-size="192" text-anchor="middle">incoming packet</text>
<!-- Text -->
<text xml:space="preserve" x="6390" y="9810" fill="#000000" font-family="Helvetica" font-style="normal" font-weight="bold" font-size="192" text-anchor="middle">filter</text>
<!-- Line -->
<rect x="9045" y="9630" width="1800" height="2025" stroke="#000000" stroke-width="8px"/>
<!-- Line -->
<rect x="9270" y="10350" width="1350" height="405" stroke="#000000" stroke-width="8px"/>
<!-- Line -->
<rect x="9270" y="10980" width="1350" height="405" stroke="#000000" stroke-width="8px"/>
<!-- Line -->
<rect x="9000" y="45" width="1800" height="2025" stroke="#000000" stroke-width="8px"/>
<!-- Line -->
<rect x="9225" y="765" width="1350" height="405" stroke="#000000" stroke-width="8px"/>
<!-- Line -->
<rect x="9225" y="1395" width="1350" height="405" stroke="#000000" stroke-width="8px"/>
<!-- Line -->
<rect x="9000" y="4995" width="1800" height="2025" stroke="#000000" stroke-width="8px"/>
<!-- Line -->
<rect x="9225" y="5715" width="1350" height="405" stroke="#000000" stroke-width="8px"/>
<!-- Line -->
<rect x="9225" y="6345" width="1350" height="405" stroke="#000000" stroke-width="8px"/>
<!-- Line -->
<rect x="5445" y="2475" width="1800" height="2025" stroke="#000000" stroke-width="8px"/>
<!-- Line -->
<rect x="5670" y="3195" width="1350" height="405" stroke="#000000" stroke-width="8px"/>
<!-- Line -->
<rect x="5670" y="3825" width="1350" height="405" stroke="#000000" stroke-width="8px"/>
<!-- Line -->
<rect x="5670" y="8235" width="1350" height="405" stroke="#000000" stroke-width="8px"/>
<!-- Line -->
<rect x="5445" y="7515" width="1800" height="2790" stroke="#000000" stroke-width="8px"/>
<!-- Line -->
<rect x="5670" y="8865" width="1350" height="405" stroke="#000000" stroke-width="8px"/>
<!-- Line -->
<rect x="5670" y="9495" width="1350" height="405" stroke="#000000" stroke-width="8px"/>
<!-- Text -->
<text xml:space="preserve" x="9990" y="11250" fill="#000000" font-family="Helvetica" font-style="normal" font-weight="bold" font-size="192" text-anchor="middle">nat</text>
<!-- Text -->
<text xml:space="preserve" x="9990" y="10620" fill="#000000" font-family="Helvetica" font-style="normal" font-weight="bold" font-size="192" text-anchor="middle">mangle</text>
<!-- Text -->
<text xml:space="preserve" x="9945" y="10035" fill="#000000" font-family="Helvetica" font-style="normal" font-weight="bold" font-size="168" text-anchor="middle">POSTROUTING</text>
<!-- Text -->
<text xml:space="preserve" x="9900" y="450" fill="#000000" font-family="Helvetica" font-style="normal" font-weight="bold" font-size="168" text-anchor="middle">PREROUTING</text>
<!-- Text -->
<text xml:space="preserve" x="9945" y="1665" fill="#000000" font-family="Helvetica" font-style="normal" font-weight="bold" font-size="192" text-anchor="middle">nat</text>
<!-- Text -->
<text xml:space="preserve" x="9945" y="1035" fill="#000000" font-family="Helvetica" font-style="normal" font-weight="bold" font-size="192" text-anchor="middle">mangle</text>
<!-- Text -->
<text xml:space="preserve" x="9900" y="5400" fill="#000000" font-family="Helvetica" font-style="normal" font-weight="bold" font-size="168" text-anchor="middle">FORWARD</text>
<!-- Text -->
<text xml:space="preserve" x="9945" y="5985" fill="#000000" font-family="Helvetica" font-style="normal" font-weight="bold" font-size="192" text-anchor="middle">mangle</text>
<!-- Text -->
<text xml:space="preserve" x="9945" y="6615" fill="#000000" font-family="Helvetica" font-style="normal" font-weight="bold" font-size="192" text-anchor="middle">filter</text>
<!-- Text -->
<text xml:space="preserve" x="6345" y="2880" fill="#000000" font-family="Helvetica" font-style="normal" font-weight="bold" font-size="168" text-anchor="middle">INPUT</text>
<!-- Text -->
<text xml:space="preserve" x="6390" y="3465" fill="#000000" font-family="Helvetica" font-style="normal" font-weight="bold" font-size="192" text-anchor="middle">mangle</text>
<!-- Text -->
<text xml:space="preserve" x="6390" y="4095" fill="#000000" font-family="Helvetica" font-style="normal" font-weight="bold" font-size="192" text-anchor="middle">filter</text>
<!-- Text -->
<text xml:space="preserve" x="6345" y="7920" fill="#000000" font-family="Helvetica" font-style="normal" font-weight="bold" font-size="168" text-anchor="middle">OUTPUT</text>
<!-- Text -->
<text xml:space="preserve" x="6390" y="9135" fill="#000000" font-family="Helvetica" font-style="normal" font-weight="bold" font-size="192" text-anchor="middle">nat</text>
<!-- Text -->
<text xml:space="preserve" x="6390" y="8505" fill="#000000" font-family="Helvetica" font-style="normal" font-weight="bold" font-size="192" text-anchor="middle">mangle</text>
</g>
</svg>


