<svg xmlns="http://www.w3.org/2000/svg" width="737.83" height="433.14" viewBox="0 0 195.22 114.6" version="1.1" id="svg7743"><defs id="defs7737"><marker id="DotL" refX="0" refY="0" orient="auto" overflow="visible"><path d="M3.92 0a4 4 0 1 1-8 0 4 4 0 0 1 8 0z" id="path965" fill="#0c322c" fill-opacity="1" fill-rule="evenodd" stroke="#0c322c" stroke-width=".8pt" stroke-opacity="1"/></marker><marker markerWidth="7.12" markerHeight="11.41" refX="3.56" refY="5.71" orient="auto" id="marker840"><path d="m.7.7 5 5-5 5" id="path838" fill="none" stroke="#0c322c" stroke-width="2" stroke-linecap="butt" stroke-linejoin="miter" stroke-miterlimit="4" stroke-dasharray="none" stroke-opacity="1"/></marker><marker markerWidth="3.06" markerHeight="4.71" refX="1.53" refY="2.35" orient="auto" id="marker868"><path d="m2.7.35-2 2 2 2" id="path851-3" fill="none" stroke="#000" stroke-width="1" stroke-linecap="butt" stroke-linejoin="miter" stroke-opacity="1"/></marker><marker markerWidth="3.06" markerHeight="4.71" refX="1.53" refY="2.35" orient="auto" id="marker883"><path d="m.35.35 2 2-2 2" id="path851" fill="none" stroke="#000" stroke-width="1" stroke-linecap="butt" stroke-linejoin="miter" stroke-opacity="1"/></marker><marker markerWidth="3.06" markerHeight="4.71" refX="1.53" refY="2.35" orient="auto" id="marker8684506"><path d="m2.7.35-2 2 2 2" id="path1208" fill="#0c322c" stroke="#000" stroke-width="1" stroke-linecap="butt" stroke-linejoin="miter" stroke-opacity="1"/></marker><marker markerWidth="3.06" markerHeight="4.71" refX="1.53" refY="2.35" orient="auto" id="marker8839976"><path d="m.35.35 2 2-2 2" id="path1211" fill="#0c322c" stroke="#000" stroke-width="1" stroke-linecap="butt" stroke-linejoin="miter" stroke-opacity="1"/></marker><marker markerWidth="3.06" markerHeight="4.71" refX="1.53" refY="2.35" orient="auto" id="marker86845062245"><path d="m2.7.35-2 2 2 2" id="path1299" fill="#fff" stroke="#000" stroke-width="1" stroke-linecap="butt" stroke-linejoin="miter" stroke-opacity="1"/></marker><marker markerWidth="3.06" markerHeight="4.71" refX="1.53" refY="2.35" orient="auto" id="marker88399767239"><path d="m.35.35 2 2-2 2" id="path1302" fill="#fff" stroke="#000" stroke-width="1" stroke-linecap="butt" stroke-linejoin="miter" stroke-opacity="1"/></marker><marker markerWidth="3.06" markerHeight="4.71" refX="1.53" refY="2.35" orient="auto" id="marker868450622454738"><path d="m2.7.35-2 2 2 2" id="path1414" fill="#fff" stroke="#0c322c" stroke-width="1" stroke-linecap="butt" stroke-linejoin="miter" stroke-opacity="1"/></marker><marker markerWidth="3.06" markerHeight="4.71" refX="1.53" refY="2.35" orient="auto" id="marker883997672393450"><path d="m.35.35 2 2-2 2" id="path1417" fill="#fff" stroke="#0c322c" stroke-width="1" stroke-linecap="butt" stroke-linejoin="miter" stroke-opacity="1"/></marker><marker markerWidth="3.06" markerHeight="4.71" refX="1.53" refY="2.35" orient="auto" id="marker8684112"><path d="m2.7.35-2 2 2 2" id="path2096" fill="#fff" fill-opacity="0" stroke="#0c322c" stroke-width="1" stroke-linecap="butt" stroke-linejoin="miter" stroke-opacity="1"/></marker><marker markerWidth="3.06" markerHeight="4.71" refX="1.53" refY="2.35" orient="auto" id="marker8834579"><path d="m.35.35 2 2-2 2" id="path2099" fill="#fff" fill-opacity="0" stroke="#0c322c" stroke-width="1" stroke-linecap="butt" stroke-linejoin="miter" stroke-opacity="1"/></marker><marker markerWidth="3.06" markerHeight="4.71" refX="1.53" refY="2.35" orient="auto" id="marker8836481"><path d="m.35.35 2 2-2 2" id="path2261" fill="#fff" fill-opacity="0" stroke="#0c322c" stroke-width="1" stroke-linecap="butt" stroke-linejoin="miter" stroke-opacity="1"/></marker><marker markerWidth="3.06" markerHeight="4.71" refX="1.53" refY="2.35" orient="auto" id="marker8836481-7"><path d="m.35.35 2 2-2 2" id="path2261-5" fill="#fff" fill-opacity="0" stroke="#0c322c" stroke-width="1" stroke-linecap="butt" stroke-linejoin="miter" stroke-opacity="1"/></marker><marker markerWidth="3.06" markerHeight="4.71" refX="1.53" refY="2.35" orient="auto" id="marker8831574"><path d="m.35.35 2 2-2 2" id="path1828" fill="none" stroke="#fe7c3f" stroke-width="1" stroke-linecap="butt" stroke-linejoin="miter" stroke-opacity="1"/></marker><marker markerWidth="3.06" markerHeight="4.71" refX="1.53" refY="2.35" orient="auto" id="marker8839258"><path d="m.35.35 2 2-2 2" id="path1831" fill="none" stroke="#fe7c3f" stroke-width="1" stroke-linecap="butt" stroke-linejoin="miter" stroke-opacity="1"/></marker><marker markerWidth="3.06" markerHeight="4.71" refX="1.53" refY="2.35" orient="auto" id="marker8836999"><path d="m.35.35 2 2-2 2" id="path1834" fill="none" stroke="#fe7c3f" stroke-width="1" stroke-linecap="butt" stroke-linejoin="miter" stroke-opacity="1"/></marker><marker markerWidth="3.06" markerHeight="4.71" refX="1.53" refY="2.35" orient="auto" id="marker8836252"><path d="m.35.35 2 2-2 2" id="path2077" fill="none" stroke="#30ba78" stroke-width="1" stroke-linecap="butt" stroke-linejoin="miter" stroke-opacity="1"/></marker><marker markerWidth="3.06" markerHeight="4.71" refX="1.53" refY="2.35" orient="auto" id="marker8838541"><path d="m.35.35 2 2-2 2" id="path2080" fill="none" stroke="#30ba78" stroke-width="1" stroke-linecap="butt" stroke-linejoin="miter" stroke-opacity="1"/></marker><marker markerWidth="3.06" markerHeight="4.71" refX="1.53" refY="2.35" orient="auto" id="marker883688"><path d="m.35.35 2 2-2 2" id="path2083" fill="none" stroke="#30ba78" stroke-width="1" stroke-linecap="butt" stroke-linejoin="miter" stroke-opacity="1"/></marker><marker markerWidth="3.06" markerHeight="4.71" refX="1.53" refY="2.35" orient="auto" id="marker8839906"><path d="m.35.35 2 2-2 2" id="path2086" fill="none" stroke="#30ba78" stroke-width="1" stroke-linecap="butt" stroke-linejoin="miter" stroke-opacity="1"/></marker><marker markerWidth="3.06" markerHeight="4.71" refX="1.53" refY="2.35" orient="auto" id="marker8835795"><path d="m.35.35 2 2-2 2" id="path2089" fill="none" stroke="#30ba78" stroke-width="1" stroke-linecap="butt" stroke-linejoin="miter" stroke-opacity="1"/></marker><marker markerWidth="3.06" markerHeight="4.71" refX="1.53" refY="2.35" orient="auto" id="marker8831574-0"><path d="m.35.35 2 2-2 2" id="path1828-2" fill="none" stroke="#fe7c3f" stroke-width="1" stroke-linecap="butt" stroke-linejoin="miter" stroke-opacity="1"/></marker></defs><g id="layer1" transform="translate(-8.5 -27.8)"><g id="g1600" transform="translate(97.5 72.98) scale(.48106)" fill="#0c322c"><g id="g7898" transform="translate(-306.68 76.85) scale(2.52695)"><g id="g7960" transform="translate(0 -21.48)" stroke-width=".65" stroke-miterlimit="4" stroke-dasharray="none"><rect id="rect2335" width="16.5" height="16.5" x="50.32" y="27.11" fill="#fff" fill-opacity="1" stroke="none" stroke-width=".65" stroke-linecap="square" stroke-miterlimit="4" stroke-dasharray="none" paint-order="fill markers stroke" stop-color="#000"/><path d="M50.87 27.66v15.95Z" id="path939" fill="#fff" fill-opacity="1" stroke="#2453ff" stroke-width=".65" stroke-linecap="round" stroke-linejoin="round" stroke-miterlimit="4" stroke-dasharray="none" stroke-opacity="1"/><path d="m66.27 27.11-.02 16.5Z" id="path937" fill="#2453ff" fill-opacity="1" stroke="#2453ff" stroke-width=".65" stroke-linecap="round" stroke-linejoin="round" stroke-miterlimit="4" stroke-dasharray="none" stroke-opacity="1"/><path d="M58.57 24.91c-4.25 0-7.7 1.1-7.7 2.48 0 1.36 3.45 2.47 7.7 2.47s7.7-1.1 7.7-2.47-3.45-2.48-7.7-2.48z" id="path2144" fill="#fff" fill-opacity="1" stroke="#2453ff" stroke-width=".65" stroke-linecap="round" stroke-linejoin="miter" stroke-miterlimit="4" stroke-dasharray="none" stroke-opacity="1"/><path d="M50.87 43.61c3.3 2.75 11.55 2.75 15.4 0" id="path2153" fill="#fff" fill-opacity="1" stroke="#2453ff" stroke-width=".65" stroke-linecap="round" stroke-linejoin="miter" stroke-miterlimit="4" stroke-dasharray="none" stroke-opacity="1"/></g><g id="g7946" transform="translate(16.17 -20.2)" stroke-width=".65" stroke-miterlimit="4" stroke-dasharray="none"><g id="g7953" transform="translate(-38.15 -5.64)" stroke-width=".65" stroke-miterlimit="4" stroke-dasharray="none"><rect id="rect2335-2" width="16.5" height="16.5" x="117.79" y="31.46" fill="#fff" fill-opacity="1" stroke="none" stroke-width=".65" stroke-linecap="square" stroke-miterlimit="4" stroke-dasharray="none" paint-order="fill markers stroke" stop-color="#000"/><path d="M118.34 32.01v15.95Z" id="path939-0" fill="#fff" fill-opacity="1" stroke="#2453ff" stroke-width=".65" stroke-linecap="round" stroke-linejoin="round" stroke-miterlimit="4" stroke-dasharray="none" stroke-opacity="1"/><path d="m133.74 31.46-.02 16.5z" id="path937-6" fill="#2453ff" fill-opacity="1" stroke="#2453ff" stroke-width=".65" stroke-linecap="round" stroke-linejoin="round" stroke-miterlimit="4" stroke-dasharray="none" stroke-opacity="1"/><path d="M126.04 29.26c-4.25 0-7.7 1.11-7.7 2.48 0 1.36 3.45 2.47 7.7 2.47 4.26 0 7.7-1.1 7.7-2.47s-3.44-2.48-7.7-2.48z" id="path2144-1" fill="#fff" fill-opacity="1" stroke="#2453ff" stroke-width=".65" stroke-linecap="round" stroke-linejoin="miter" stroke-miterlimit="4" stroke-dasharray="none" stroke-opacity="1"/><path d="M118.34 47.96c3.3 2.75 11.55 2.75 15.4 0" id="path2153-5" fill="#fff" fill-opacity="1" stroke="#2453ff" stroke-width=".65" stroke-linecap="round" stroke-linejoin="miter" stroke-miterlimit="4" stroke-dasharray="none" stroke-opacity="1"/></g></g><g id="g7967" transform="translate(-18.6 -28.01)" stroke-width=".65" stroke-miterlimit="4" stroke-dasharray="none"><rect id="rect2335-5" width="16.5" height="16.5" x="137.38" y="33.64" fill="#fff" fill-opacity="1" stroke="none" stroke-width=".65" stroke-linecap="square" stroke-miterlimit="4" stroke-dasharray="none" paint-order="fill markers stroke" stop-color="#000"/><path d="M137.93 34.19v15.95Z" id="path939-4" fill="#fff" fill-opacity="1" stroke="#2453ff" stroke-width=".65" stroke-linecap="round" stroke-linejoin="round" stroke-miterlimit="4" stroke-dasharray="none" stroke-opacity="1"/><path d="m153.33 33.64-.02 16.5z" id="path937-7" fill="#2453ff" fill-opacity="1" stroke="#2453ff" stroke-width=".65" stroke-linecap="round" stroke-linejoin="round" stroke-miterlimit="4" stroke-dasharray="none" stroke-opacity="1"/><path d="M145.63 31.44c-4.25 0-7.7 1.1-7.7 2.47s3.45 2.48 7.7 2.48 7.7-1.1 7.7-2.48c0-1.36-3.45-2.47-7.7-2.47z" id="path2144-6" fill="#fff" fill-opacity="1" stroke="#2453ff" stroke-width=".65" stroke-linecap="round" stroke-linejoin="miter" stroke-miterlimit="4" stroke-dasharray="none" stroke-opacity="1"/><path d="M137.93 50.14c3.3 2.75 11.55 2.75 15.4 0" id="path2153-56" fill="#fff" fill-opacity="1" stroke="#2453ff" stroke-width=".65" stroke-linecap="round" stroke-linejoin="miter" stroke-miterlimit="4" stroke-dasharray="none" stroke-opacity="1"/></g><rect id="rect7969" width="21.77" height="15.24" x="69.34" y="6.19" opacity="1" fill="none" stroke="#bfcbfb" stroke-width=".65" stroke-linecap="square" stroke-miterlimit="4" stroke-dasharray="none" stroke-opacity="1" paint-order="stroke fill markers" stop-color="#000"/><rect id="rect7969-9" width="21.77" height="15.24" x="139.1" y="6.19" opacity="1" fill="none" stroke="#bfcbfb" stroke-width=".65" stroke-linecap="square" stroke-miterlimit="4" stroke-dasharray="none" stroke-opacity="1" paint-order="stroke fill markers" stop-color="#000"/><path d="M182.29-64.33h23.94v13.06c-13.06 0-13.06 8.7-23.94 6.53v-19.59" id="path862" fill="#fff" stroke="#bb5318" stroke-width=".65" stroke-linecap="square" stroke-linejoin="miter" stroke-miterlimit="4" stroke-dasharray="none" stroke-opacity="1"/><path d="M180.11-62.15h23.94v13.06c-13.05 0-13.05 8.7-23.94 6.53v-19.6" id="path862-3" fill="#fff" stroke="#e6644b" stroke-width=".65" stroke-linecap="square" stroke-linejoin="miter" stroke-miterlimit="4" stroke-dasharray="none" stroke-opacity="1"/><path d="M177.94-59.98h23.94v13.06c-13.06 0-13.06 8.7-23.94 6.53v-19.59" id="path862-6" fill="#fff" stroke="#fe7c3f" stroke-width=".65" stroke-linecap="square" stroke-linejoin="miter" stroke-miterlimit="4" stroke-dasharray="none" stroke-opacity="1"/><path d="M102.1-64.33h23.94v13.06c-13.06 0-13.06 8.7-23.94 6.53v-19.59" id="path862-7" fill="#fff" stroke="#257912" stroke-width=".65" stroke-linecap="square" stroke-linejoin="miter" stroke-miterlimit="4" stroke-dasharray="none" stroke-opacity="1"/><path d="M99.92-62.15h23.95v13.06c-13.06 0-13.06 8.7-23.95 6.53v-19.6" id="path862-7-5" fill="#fff" stroke="#30ba78" stroke-width=".65" stroke-linecap="square" stroke-linejoin="miter" stroke-miterlimit="4" stroke-dasharray="none" stroke-opacity="1"/><path d="M97.75-59.97h23.94v13.05c-13.06 0-13.06 8.71-23.94 6.53v-19.58" id="path862-7-3" fill="#fff" stroke="#c7f1e3" stroke-width=".65" stroke-linecap="square" stroke-linejoin="miter" stroke-miterlimit="4" stroke-dasharray="none" stroke-opacity="1"/><text xml:space="preserve" style="line-height:1.25;-inkscape-font-specification:'Poppins, Medium'" x="54.22" y="14.46" id="text953" font-weight="500" font-size="2.61" font-family="Poppins" letter-spacing="0" stroke-width=".22"><tspan id="tspan951" x="54.22" y="14.46" font-size="2.61" stroke-width=".22">Target</tspan></text><text xml:space="preserve" style="line-height:1.25;-inkscape-font-specification:'Poppins, Medium'" x="75.11" y="14.9" id="text957" font-weight="500" font-size="2.61" font-family="Poppins" letter-spacing="0" stroke-width=".22"><tspan id="tspan955" x="75.11" y="14.9" font-size="2.61" stroke-width=".22">Initiator</tspan></text><text xml:space="preserve" style="line-height:1.25;-inkscape-font-specification:'Poppins, Medium'" x="99.92" y="14.46" id="text953-1" font-weight="500" font-size="2.61" font-family="Poppins" letter-spacing="0" fill="#0c322c" stroke-width=".22"><tspan id="tspan951-2" x="99.92" y="14.46" font-size="2.61" stroke-width=".22">Target</tspan></text><text xml:space="preserve" style="line-height:1.25;-inkscape-font-specification:'Poppins, Medium'" x="122.56" y="14.46" id="text953-7" font-weight="500" font-size="2.61" font-family="Poppins" letter-spacing="0" fill="#0c322c" stroke-width=".22"><tspan id="tspan951-0" x="122.56" y="14.46" font-size="2.61" stroke-width=".22">Target</tspan></text><text xml:space="preserve" style="line-height:1.25;-inkscape-font-specification:'Poppins, Medium'" x="144.76" y="14.9" id="text957-9" font-weight="500" font-size="2.61" font-family="Poppins" letter-spacing="0" fill="#0c322c" stroke-width=".22"><tspan id="tspan955-3" x="144.76" y="14.9" font-size="2.61" stroke-width=".22">Initiator</tspan></text><path d="M58.57.97v-65.3h40.92" id="path1003" fill="none" stroke="#30ba78" stroke-width=".46" stroke-linecap="butt" stroke-linejoin="miter" stroke-miterlimit="4" stroke-dasharray="none" stroke-opacity="1" marker-end="url(#marker8835795)"/><path d="M80.34.97v-63.12h17.4" id="path1005" fill="none" stroke="#30ba78" stroke-width=".46" stroke-linecap="butt" stroke-linejoin="miter" stroke-miterlimit="4" stroke-dasharray="none" stroke-opacity="1" marker-end="url(#marker8839906)"/><path d="M104.28.97v-34.83" id="path1007" fill="none" stroke="#30ba78" stroke-width=".46" stroke-linecap="butt" stroke-linejoin="miter" stroke-miterlimit="4" stroke-dasharray="none" stroke-opacity="1" marker-end="url(#marker883688)"/><path d="M126.91.97v-43.49l-6.96-.04" id="path1009" fill="none" stroke="#30ba78" stroke-width=".46" stroke-linecap="butt" stroke-linejoin="miter" stroke-miterlimit="4" stroke-dasharray="none" stroke-opacity="1" marker-end="url(#marker8838541)"/><path d="M149.98.97v-46.14h-27.86" id="path1011" fill="none" stroke="#30ba78" stroke-width=".46" stroke-linecap="butt" stroke-linejoin="miter" stroke-miterlimit="4" stroke-dasharray="none" stroke-opacity="1" marker-end="url(#marker8836252)"/><path d="M128.22-64.33h52.24" id="path1013" fill="none" stroke="#fe7c3f" stroke-width=".46" stroke-linecap="butt" stroke-linejoin="miter" stroke-miterlimit="4" stroke-dasharray="none" stroke-opacity="1" marker-end="url(#marker8836999)"/><path d="M126.91-62.15h50.5" id="path1015" fill="none" stroke="#fe7c3f" stroke-width=".46" stroke-linecap="butt" stroke-linejoin="miter" stroke-miterlimit="4" stroke-dasharray="none" stroke-opacity="1" marker-end="url(#marker8839258)"/><path d="M97.75-59.97h23.94v13.05c-13.06 0-13.06 8.71-23.94 6.53v-19.58" id="path862-7-3-0" fill="#fff" stroke="#63da7f" stroke-width=".65" stroke-linecap="square" stroke-linejoin="miter" stroke-miterlimit="4" stroke-dasharray="none" stroke-opacity="1"/><path d="M95.57-57.8h23.94v13.06c-13.06 0-13.06 8.7-23.94 6.53V-57.8" id="path862-7-3-0-6" fill="#fff" stroke="#6ec766" stroke-width=".65" stroke-linecap="square" stroke-linejoin="miter" stroke-miterlimit="4" stroke-dasharray="none" stroke-opacity="1"/><path d="M93.4-55.62h23.94v13.06c-13.06 0-13.06 8.7-23.95 6.53v-19.6" id="path862-7-3-0-2" fill="#fff" stroke="#92d27f" stroke-width=".65" stroke-linecap="square" stroke-linejoin="miter" stroke-miterlimit="4" stroke-dasharray="none" stroke-opacity="1"/><path d="M91.22-53.45h23.94v13.06c-13.06 0-13.06 8.71-23.94 6.53v-19.59" id="path862-7-3-0-61" fill="#fff" stroke="#bfe035" stroke-width=".65" stroke-linecap="square" stroke-linejoin="miter" stroke-miterlimit="4" stroke-dasharray="none" stroke-opacity="1"/><path d="M89.04-51.27h23.94v13.06c-13.06 0-13.06 8.7-23.94 6.53v-19.59" id="path862-7-3-0-8" fill="#fff" stroke="#f2df4b" stroke-width=".65" stroke-linecap="square" stroke-linejoin="miter" stroke-miterlimit="4" stroke-dasharray="none" stroke-opacity="1"/><text xml:space="preserve" style="line-height:1.25;-inkscape-font-specification:'Poppins, Medium'" x="101.32" y="-46.1" id="text914" font-weight="500" font-size="2.61" font-family="Poppins" letter-spacing="0" stroke-width=".22"><tspan id="tspan912" x="101.32" y="-46.1" style="text-align:center" font-size="2.61" text-anchor="middle" stroke-width=".22">Nodes</tspan><tspan x="101.32" y="-42.83" style="text-align:center" id="tspan916" font-size="2.61" text-anchor="middle" stroke-width=".22">Target and </tspan><tspan x="101.32" y="-39.57" style="text-align:center" id="tspan918" font-size="2.61" text-anchor="middle" stroke-width=".22">Initiator</tspan></text><path d="M176.1-57.8h23.94v13.06c-13.05 0-13.05 8.7-23.94 6.53V-57.8" id="path862-6-7" fill="#fff" stroke="#f39b5c" stroke-width=".65" stroke-linecap="square" stroke-linejoin="miter" stroke-miterlimit="4" stroke-dasharray="none" stroke-opacity="1"/><path d="M173.93-55.62h23.94v13.06c-13.06 0-13.06 8.7-23.94 6.53v-19.6" id="path862-6-9" fill="#fff" stroke="#f3b292" stroke-width=".65" stroke-linecap="square" stroke-linejoin="miter" stroke-miterlimit="4" stroke-dasharray="none" stroke-opacity="1"/><path d="M171.75-53.45h23.94v13.06c-13.06 0-13.06 8.71-23.94 6.53v-19.59" id="path862-6-2" fill="#fff" stroke="#f9dac8" stroke-width=".65" stroke-linecap="square" stroke-linejoin="miter" stroke-miterlimit="4" stroke-dasharray="none" stroke-opacity="1"/><text xml:space="preserve" style="line-height:1.25;-inkscape-font-specification:'Poppins, Medium'" x="183.37" y="-46.04" id="text914-5" font-weight="500" font-size="2.61" font-family="Poppins" letter-spacing="0" fill="#0c322c" stroke-width=".22"><tspan x="183.37" y="-46.04" style="text-align:center" id="tspan918-9" font-size="2.61" text-anchor="middle" stroke-width=".22">Discovery</tspan><tspan x="183.37" y="-42.77" style="text-align:center" id="tspan949" font-size="2.61" text-anchor="middle" stroke-width=".22">Domain</tspan></text><path d="M118.2-49.1h51.37" id="path1017" fill="none" stroke="#fe7c3f" stroke-width=".46" stroke-linecap="butt" stroke-linejoin="miter" stroke-miterlimit="4" stroke-dasharray="none" stroke-opacity="1" marker-end="url(#marker8831574)"/><path d="M120.38-53.45h49.2" id="path1017-3" fill="none" stroke="#fe7c3f" stroke-width=".46" stroke-linecap="butt" stroke-linejoin="miter" stroke-miterlimit="4" stroke-dasharray="none" stroke-opacity="1" marker-end="url(#marker8831574-0)"/></g></g></g></svg>
