<svg xmlns="http://www.w3.org/2000/svg" width="800" height="480">
    <path fill="none" stroke="#0c322c" stroke-width="4" d="M200 274.66v58H100v57m100-115v58h100v57m301.39-114.75v58h-100v57m100.01-115v58h99.98v57M400 89.66v58H200v62m200-120v58h199.94v62"/>
    <rect width="240" height="90" x="280" y="9.66" fill="#0c322c" rx="0" ry="0"/>
    <text xml:space="preserve" x="298.97" y="58.96" fill="#fff" font-family="Poppins" font-size="18" font-weight="500" letter-spacing="0" style="line-height:125%;-inkscape-font-specification:'Poppins Medium'" word-spacing="0"><tspan x="298.97" y="58.96" style="-inkscape-font-specification:'Poppins Medium'">dc=example, dc=com</tspan></text>
    <rect width="240" height="90" x="80" y="194.66" fill="#30ba78" rx="0" ry="0"/>
    <text xml:space="preserve" x="157.02" y="246.24" font-family="Poppins" font-size="18" font-weight="500" letter-spacing="0" style="line-height:125%;-inkscape-font-specification:'Poppins Medium'" word-spacing="0"><tspan x="157.02" y="246.24" style="-inkscape-font-specification:'Poppins Medium'">ou=devel</tspan></text>
    <rect width="240" height="90" x="480" y="194.66" fill="#30ba78" rx="0" ry="0"/>
    <text xml:space="preserve" x="564.22" y="246.24" font-family="Poppins" font-size="18" font-weight="500" letter-spacing="0" style="line-height:125%;-inkscape-font-specification:'Poppins Medium'" word-spacing="0"><tspan x="564.22" y="246.24" style="-inkscape-font-specification:'Poppins Medium'">ou=doc</tspan></text>
    <rect width="180.02" height="89.96" x="10.05" y="379.71" fill="#30ba78" rx="0" ry="0"/>
    <rect width="180.02" height="89.96" x="209.81" y="380.16" fill="#30ba78" rx="0" ry="0"/>
    <rect width="180.02" height="89.96" x="410.07" y="380.01" fill="#30ba78" rx="0" ry="0"/>
    <rect width="180.02" height="89.96" x="609.9" y="380.15" fill="#30ba78" rx="0" ry="0"/>
    <text xml:space="preserve" x="645.24" y="431.38" font-family="Poppins" font-size="18" font-weight="500" letter-spacing="0" style="line-height:125%;-inkscape-font-specification:'Poppins Medium'" word-spacing="0"><tspan x="645.24" y="431.38" style="-inkscape-font-specification:'Poppins Medium'">cn=Octocat</tspan></text>
    <text xml:space="preserve" x="453.09" y="431.57" font-family="Poppins" font-size="18" font-weight="500" letter-spacing="0" style="line-height:125%;-inkscape-font-specification:'Poppins Medium'" word-spacing="0"><tspan x="453.09" y="431.57" style="-inkscape-font-specification:'Poppins Medium'">cn=Geeko</tspan></text>
    <text xml:space="preserve" x="252.69" y="431.99" font-family="Poppins" font-size="18" font-weight="500" letter-spacing="0" style="line-height:125%;-inkscape-font-specification:'Poppins Medium'" word-spacing="0"><tspan x="252.69" y="431.99" style="-inkscape-font-specification:'Poppins Medium'">cn=Wilber</tspan></text>
    <text xml:space="preserve" x="66.2" y="430.86" font-family="Poppins" font-size="18" font-weight="500" letter-spacing="0" style="line-height:125%;-inkscape-font-specification:'Poppins Medium'" word-spacing="0"><tspan x="66.2" y="430.86" style="-inkscape-font-specification:'Poppins Medium'">cn=Tux</tspan></text>
</svg>

