<?xml version="1.0" encoding="UTF-8" standalone="no"?>
<svg
   xmlns:dc="http://purl.org/dc/elements/1.1/"
   xmlns:cc="http://creativecommons.org/ns#"
   xmlns:rdf="http://www.w3.org/1999/02/22-rdf-syntax-ns#"
   xmlns:svg="http://www.w3.org/2000/svg"
   xmlns="http://www.w3.org/2000/svg"
   xmlns:xlink="http://www.w3.org/1999/xlink"
   id="svg191"
   version="1.1"
   height="447"
   width="1153">
  <metadata
     id="metadata195">
    <rdf:RDF>
      <cc:Work
         rdf:about="">
        <dc:format>image/svg+xml</dc:format>
        <dc:type
           rdf:resource="http://purl.org/dc/dcmitype/StillImage" />
        <dc:title></dc:title>
      </cc:Work>
    </rdf:RDF>
  </metadata>
  <defs
     id="defs86">
    <linearGradient
       id="linearGradient5393">
      <stop
         id="stop5395"
         offset="0"
         style="stop-color:#ffffff;stop-" />
      <stop
         id="stop5397"
         offset="1"
         style="stop-color:#ffffff;stop-opacity:0;" />
    </linearGradient>
    <linearGradient
       gradientTransform="matrix(1,0,0,1.1566265,68,-1.72289)"
       gradientUnits="userSpaceOnUse"
       y2="41.785362"
       x2="967.62579"
       y1="41.785362"
       x1="1109.5564"
       id="linearGradient5399"
       xlink:href="#linearGradient5393" />
  </defs>
  <path
     id="rect7"
     d="M 4.1894531,409 C 2.4225269,409 1,410.338 1,412 v 22 c 0,1.662 1.4225269,3 3.1894531,3 H 1102 l 50,-14 -50,-14 z"
     style="fill:#71d6e0;stroke-width:1.03108311" />
  <text
     id="text11"
     y="429.6925"
     x="537.9303"
     style="font-weight:600;font-size:18.75px;font-family:'Open Sans';fill:#5f5f5f"
     xml:space="preserve">TIME</text>
  <rect
     id="rect13"
     style="fill:#ededed;stroke-width:1.15785813"
     width="1122"
     height="192"
     x="1"
     y="195"
     rx="5.795455"
     ry="5.7831326" />
  <rect
     id="rect15"
     y="265"
     x="425"
     height="26"
     width="190"
     style="fill:#02d35f" />
  <rect
     id="rect17"
     y="317"
     x="155"
     height="26"
     width="190"
     style="fill:#02d35f" />
  <text
     id="text19"
     y="232.8459"
     x="17.084473"
     style="font-weight:600;font-size:18.75px;font-family:'Open Sans';fill:#00c081"
     xml:space="preserve">SLES 12</text>
  <rect
     id="rect21"
     y="343"
     x="20"
     height="26"
     width="190"
     style="fill:#02d35f" />
  <rect
     id="rect23"
     y="317"
     x="155"
     height="52"
     width="55"
     style="opacity:0.5;fill:#92ecba" />
  <rect
     id="rect25"
     y="291"
     x="290"
     height="26"
     width="190"
     style="fill:#02d35f" />
  <rect
     id="rect27"
     y="291"
     x="290"
     height="52"
     width="55"
     style="opacity:0.5;fill:#92ecba" />
  <rect
     id="rect29"
     y="265"
     x="425"
     height="52"
     width="55"
     style="opacity:0.5;fill:#92ecba" />
  <rect
     id="rect31"
     y="239"
     x="560"
     height="26"
     width="190"
     style="fill:#02d35f;stroke-width:0.90889329" />
  <rect
     id="rect33"
     y="239"
     x="560"
     height="52"
     width="55"
     style="opacity:0.5;fill:#92ecba" />
  <rect
     id="rect35"
     y="343"
     x="210"
     height="26"
     width="160"
     style="fill:#a5efc6" />
  <rect
     id="rect37"
     y="317"
     x="345"
     height="26"
     width="160"
     style="fill:#a5efc6" />
  <rect
     id="rect39"
     y="291"
     x="480"
     height="26"
     width="160"
     style="fill:#a5efc6" />
  <rect
     id="rect41"
     y="265"
     x="615"
     height="26"
     width="160"
     style="fill:#a5efc6" />
  <rect
     id="rect43"
     y="239"
     x="750"
     height="26"
     width="160"
     style="fill:#a5efc6" />
  <rect
     id="rect45"
     style="fill:#a7a9ac;fill-opacity:0.58823529;stroke-width:0.94733095"
     width="350"
     height="2"
     x="560"
     y="263" />
  <rect
     id="rect47"
     style="fill:#a7a9ac;fill-opacity:0.58823529"
     width="350"
     height="2"
     x="155"
     y="341" />
  <rect
     id="rect49"
     style="fill:#a7a9ac;fill-opacity:0.58823529"
     width="350"
     height="2"
     x="20"
     y="367" />
  <rect
     id="rect51"
     style="fill:#a7a9ac;fill-opacity:0.58823529"
     width="350"
     height="2"
     x="290"
     y="315" />
  <rect
     id="rect53"
     style="fill:#a7a9ac;fill-opacity:0.58823529"
     width="350"
     height="2"
     x="425"
     y="289" />
  <rect
     id="rect55"
     ry="3"
     rx="3"
     y="362"
     x="406"
     height="36"
     width="500"
     style="fill:#5f5f5f" />
  <text
     id="text57"
     y="385.1142"
     x="425.20929"
     style="font-size:18.75px;font-family:'Open Sans';fill:#00c081"
     xml:space="preserve">Long Term Service Pack Support (LTSS), up to 3 years</text>
  <path
     id="path59"
     style="fill:#5f5f5f;stroke:none"
     d="m 419.67562,392 -47.49269,-27.41992 -0.27268,2.15197 -6.91025,-8.03109 10.27663,1.89177 -1.65121,1.35607 47.5502,27.45312 z" />
  <path
     id="path61"
     style="fill:#5f5f5f;stroke:none"
     d="M 427,362 V 338.16016 L 425,339 l 3.5,-10 3.5,9.84571 -2,-0.75196 V 362 Z" />
  <rect
     id="rect67"
     style="fill:#dcddde;stroke-width:1.13738668"
     width="642"
     height="192"
     x="510"
     y="11"
     rx="5.5923343"
     ry="5.7831326" />
  <rect
     id="rect69"
     y="81"
     x="934"
     height="26"
     width="190"
     style="fill:#02d35f;stroke-width:1.12546289" />
  <rect
     id="rect71"
     y="133"
     x="664"
     height="26"
     width="190"
     style="fill:#02d35f" />
  <text
     id="text73"
     y="48.727898"
     x="526.08447"
     style="font-weight:600;font-size:18.75px;font-family:'Open Sans';fill:#00c081"
     xml:space="preserve">SLES 15</text>
  <rect
     id="rect75"
     y="159"
     x="529"
     height="26"
     width="190"
     style="fill:#02d35f" />
  <rect
     id="rect77"
     y="133"
     x="664"
     height="52"
     width="55"
     style="opacity:0.5;fill:#92ecba" />
  <rect
     id="rect79"
     y="107"
     x="799"
     height="26"
     width="190"
     style="fill:#02d35f" />
  <rect
     id="rect81"
     y="107"
     x="799"
     height="52"
     width="55"
     style="opacity:0.5;fill:#92ecba" />
  <rect
     id="rect83"
     y="81"
     x="934"
     height="52"
     width="55"
     style="opacity:0.5;fill:#92ecba" />
  <path
     id="path85"
     style="fill:#fd9a2b;stroke:none"
     d="M 331,334 V 311.16016 L 329,312 l 3.5,-10 3.5,9.84571 -2,-0.75196 V 334 Z" />
  <rect
     id="rect89"
     y="159"
     x="719"
     height="26"
     width="160"
     style="fill:#a5efc6" />
  <rect
     id="rect91"
     y="133"
     x="854"
     height="26"
     width="160"
     style="fill:#a5efc6" />
  <rect
     transform="scale(1,-1)"
     id="rect93"
     y="-133"
     x="989"
     height="26"
     width="160"
     style="fill:#a5efc6;stroke-width:1.29777133" />
  <rect
     id="rect95"
     style="fill:#a7a9ac;fill-opacity:0.58823529"
     width="350"
     height="2"
     x="664"
     y="157" />
  <rect
     id="rect97"
     style="fill:#a7a9ac;fill-opacity:0.58823529"
     width="350"
     height="2"
     x="529"
     y="183" />
  <rect
     id="rect99"
     style="fill:#a7a9ac;fill-opacity:0.58823529;stroke-width:1.10818326"
     width="350"
     height="2"
     x="799"
     y="131" />
  <rect
     id="rect93-2"
     y="81"
     x="1124"
     height="26"
     width="28"
     style="fill:#a5efc6;stroke-width:0.54289669" />
  <circle
     id="circle103"
     style="fill:#00c081"
     cx="676"
     cy="146"
     r="18" />
  <text
     id="text107"
     xml:space="preserve"
     style="font-size:18.75px;font-family:'Open Sans';fill:#ffffff"
     x="661.95227"
     y="152.84781">S<tspan
   id="tspan105"
   style="letter-spacing:-1px">P</tspan>1</text>
  <circle
     id="circle109"
     style="fill:#00c081"
     cx="811"
     cy="120"
     r="18" />
  <text
     id="text113"
     xml:space="preserve"
     style="font-size:18.75px;font-family:'Open Sans';fill:#ffffff"
     x="795.11841"
     y="126.82855">S<tspan
   id="tspan111"
   style="letter-spacing:-0.5px">P</tspan>2</text>
  <circle
     id="circle115"
     style="fill:#02a49c"
     cx="541"
     cy="172"
     r="18" />
  <text
     id="text117"
     xml:space="preserve"
     style="font-weight:600;font-size:18.75px;font-family:'Open Sans';fill:#ffffff"
     x="527.44104"
     y="178.86716">GA</text>
  <circle
     id="circle119"
     style="fill:#00c081"
     cx="946"
     cy="94"
     r="18" />
  <text
     id="text123"
     xml:space="preserve"
     style="font-size:18.75px;font-family:'Open Sans';fill:#ffffff"
     x="930.16418"
     y="100.80919">S<tspan
   id="tspan121"
   style="letter-spacing:-0.5px">P</tspan>3</text>
  <path
     id="path127"
     style="fill:#fd9a2b;stroke:none"
     d="m 20,52.999992 v -12.41211 l -2,0.83984 3.5,-10 3.5,9.84571 -2,-0.75196 v 12.47852 z" />
  <text
     id="text129"
     y="48.745605"
     x="34.297119"
     style="font-size:18.75px;font-family:'Open Sans';text-align:start;text-anchor:start;fill:#000000"
     xml:space="preserve">Update/upgrade path</text>
  <path
     id="path131"
     style="fill:#fd9a2b;stroke:none"
     d="M 601,282 V 259.16016 L 599,260 l 3.5,-10 3.5,9.84571 -2,-0.75196 V 282 Z" />
  <path
     id="path133"
     style="fill:#fd9a2b;stroke:none"
     d="M 466,308 V 285.16016 L 464,286 l 3.5,-10 3.5,9.84571 -2,-0.75196 V 308 Z" />
  <path
     id="path135"
     style="fill:#fd9a2b;stroke:none"
     d="M 840,150 V 127.16016 L 838,128 l 3.5,-10 3.5,9.84571 -2,-0.75196 V 150 Z" />
  <path
     id="path137"
     style="fill:#fd9a2b;stroke:none"
     d="M 705,176 V 153.16016 L 703,154 l 3.5,-10 3.5,9.84571 -2,-0.75196 V 176 Z" />
  <path
     id="path141"
     style="fill:#fd9a2b;stroke:none"
     d="M 196,360 V 337.16016 L 194,338 l 3.5,-10 3.5,9.84571 -2,-0.75196 V 360 Z" />
  <path
     id="path147"
     style="fill:#fd9a2b"
     d="M 685,256 V 161.16016 L 683,162 l 3.5,-10 3.5,9.84571 -2,-0.75196 V 256 Z" />
  <path
     id="path149"
     d="m 593.49478,250 -3.50513,10 2.00293,-0.83984 c 0,26.27434 -9.96383,48.62586 -26.89484,58.66406 C 548.15544,327.86912 524.40738,331 497,331 v 3 c 27.61771,0 51.85768,-3.0654 69.66448,-13.61523 18.74255,-11.10423 28.33259,-34.5554 28.33259,-61.29102 L 597,259.8457 Z"
     style="fill:#fd9a2b;stroke-width:1.00073278" />
  <path
     id="path151"
     style="fill:#fd9a2b"
     d="M 865,176 V 127.16016 L 863,128 l 3.5,-10 3.5,9.84571 -2,-0.75196 V 176 Z" />
  <path
     id="path153"
     style="fill:#fd9a2b"
     d="M 491,334 V 285.16016 L 489,286 l 3.5,-10 3.5,9.84571 -2,-0.75196 V 334 Z" />
  <path
     id="path155"
     style="fill:#fd9a2b"
     d="M 626,308 V 259.16016 L 624,260 l 3.5,-10 3.5,9.84571 -2,-0.75196 V 308 Z" />
  <path
     id="path157"
     style="fill:#fd9a2b"
     d="M 356,360 V 311.16016 L 354,312 l 3.5,-10 3.5,9.84571 -2,-0.75196 V 360 Z" />
  <circle
     id="circle159"
     style="fill:#02a49c"
     cx="32"
     cy="356"
     r="18" />
  <text
     id="text161"
     xml:space="preserve"
     style="font-weight:600;font-size:18.75px;font-family:'Open Sans';fill:#ffffff"
     x="18.44104"
     y="362.86716">GA</text>
  <circle
     id="circle163"
     style="fill:#00c081"
     cx="167"
     cy="330"
     r="18" />
  <text
     id="text167"
     xml:space="preserve"
     style="font-size:18.75px;font-family:'Open Sans';fill:#ffffff"
     x="152.95227"
     y="336.84781">S<tspan
   id="tspan165"
   style="letter-spacing:-1px">P</tspan>1</text>
  <circle
     id="circle169"
     style="fill:#00c081"
     cx="302"
     cy="304"
     r="18" />
  <text
     id="text173"
     xml:space="preserve"
     style="font-size:18.75px;font-family:'Open Sans';fill:#ffffff"
     x="286.11841"
     y="310.82855">S<tspan
   id="tspan171"
   style="letter-spacing:-0.5px">P</tspan>2</text>
  <circle
     id="circle175"
     style="fill:#00c081"
     cx="572"
     cy="252"
     r="18" />
  <text
     id="text179"
     xml:space="preserve"
     style="font-size:18.75px;font-family:'Open Sans';fill:#ffffff"
     x="555.80255"
     y="258.8092">S<tspan
   id="tspan177"
   style="letter-spacing:-0.5px">P</tspan>4</text>
  <circle
     id="circle181"
     style="fill:#00c081"
     cx="437"
     cy="278"
     r="18" />
  <text
     id="text185"
     xml:space="preserve"
     style="font-size:18.75px;font-family:'Open Sans';fill:#ffffff"
     x="421.16418"
     y="284.8092">S<tspan
   id="tspan183"
   style="letter-spacing:-0.5px">P</tspan>3</text>
  <path
     id="path189"
     style="fill:#fd9a2b;stroke:none"
     d="M 675,282 V 164.16016 L 673,165 l 3.5,-10 3.5,9.84571 -2,-0.75196 V 282 Z" />
  <rect
     id="rect31-6"
     y="213"
     x="695"
     height="26"
     width="230"
     style="fill:#02d35f" />
  <rect
     id="rect33-2"
     y="213"
     x="695"
     height="52"
     width="55"
     style="opacity:0.5;fill:#92ecba" />
  <rect
     id="rect43-9"
     y="213"
     x="925"
     height="26"
     width="160"
     style="fill:#a5efc6" />
  <rect
     id="rect45-1"
     style="fill:#a7a9ac;fill-opacity:0.58823529"
     width="390"
     height="2"
     x="695"
     y="237" />
  <circle
     id="circle175-2"
     style="fill:#00c081"
     cx="707"
     cy="226"
     r="18" />
  <text
     id="text179-7"
     xml:space="preserve"
     style="font-size:18.75px;font-family:'Open Sans';fill:#ffffff"
     x="690.80255"
     y="232.8092">S<tspan
   id="tspan177-0"
   style="letter-spacing:-0.5px">P5</tspan></text>
  <rect
     id="rect69-6"
     y="55"
     x="1069"
     height="26"
     width="83"
     style="fill:#02d35f;stroke-width:0.74386382" />
  <rect
     id="rect83-1"
     y="55"
     x="1069"
     height="52"
     width="55"
     style="opacity:0.5;fill:#92ecba" />
  <rect
     id="rect101"
     style="fill:#a7a9ac;fill-opacity:0.58823529;stroke-width:1.2055428"
     width="218"
     height="2"
     x="934"
     y="105" />
  <circle
     id="circle119-8"
     style="fill:#00c081"
     cx="1081"
     cy="68"
     r="18" />
  <path
     id="path139"
     style="fill:#fd9a2b;stroke:none"
     d="M 975,124 V 101.16016 L 973,102 l 3.5,-10 3.5,9.84571 -2,-0.75196 V 124 Z" />
  <path
     id="path187"
     style="fill:#5f5f5f;stroke:none"
     d="M 902,287 V 234.16016 L 900,235 l 3.5,-10 3.5,9.84571 -2,-0.75196 V 287 Z" />
  <path
     id="path131-9"
     style="fill:#fd9a2b;stroke:none"
     d="M 736,256 V 233.16016 L 734,234 l 3.5,-10 3.5,9.84571 -2,-0.75196 V 256 Z" />
  <path
     id="path149-0"
     d="m 728.49478,224 -3.50513,10 2.00293,-0.8398 c 0,26.2743 -9.96383,48.62582 -26.89484,58.66402 C 683.15544,301.86912 659.40738,305 632,305 v 3 c 27.61771,0 51.85768,-3.0654 69.66448,-13.61523 18.74255,-11.10423 28.33259,-34.5554 28.33259,-61.29097 L 732,233.8457 Z"
     style="fill:#fd9a2b;stroke-width:1.00073278" />
  <rect
     id="rect63"
     ry="4.5"
     rx="2.0817258"
     y="285.62891"
     x="730.36981"
     height="54"
     width="346.26041"
     style="fill:#5f5f5f;stroke-width:1.02022684" />
  <g
     transform="translate(1.5258789e-5,-1.5020294)"
     id="g4289">
    <text
       xml:space="preserve"
       style="font-size:18.75px;font-family:'Open Sans';fill:#00c081"
       x="751.68268"
       y="309.46191"
       id="text65">Last Service Pack: General Support</text>
    <text
       xml:space="preserve"
       style="font-size:18.75px;font-family:'Open Sans';fill:#00c081"
       x="818.17743"
       y="328.54117"
       id="text65-2">up to GA + 10 years</text>
  </g>
  <path
     id="path143"
     d="m 1037,11 v 192 h 110 c 2.77,0 5,-2.57928 5,-5.78313 V 16.78313 C 1152,13.57928 1149.77,11 1147,11 Z"
     style="fill:url(#linearGradient5399);stroke-width:1.07546568" />
  <path
     id="path145"
     style="fill:#5f5f5f;fill-opacity:0.75"
     d="m 1061.4746,99.5 c -2.4242,0 -4.2752,0.63928 -5.5547,1.91797 -1.2794,1.27869 -1.9199,3.11437 -1.9199,5.50781 0,2.36065 0.6405,4.21432 1.9199,5.55859 1.2795,1.34427 3.1305,2.01563 5.5547,2.01563 2.4243,0 4.2772,-0.67136 5.5566,-2.01563 1.3131,-1.37706 1.9688,-3.23073 1.9688,-5.55859 0,-2.29508 -0.6405,-4.09869 -1.9199,-5.41016 -1.2795,-1.34426 -3.1475,-2.01562 -5.6055,-2.01562 z m 26,0 c -2.4242,0 -4.2752,0.63928 -5.5547,1.91797 -1.2794,1.27869 -1.9199,3.11437 -1.9199,5.50781 0,2.36065 0.6405,4.21432 1.9199,5.55859 1.2795,1.34427 3.1305,2.01563 5.5547,2.01563 2.4243,0 4.2753,-0.67136 5.5547,-2.01563 1.3132,-1.37706 1.9707,-3.23073 1.9707,-5.55859 0,-2.29508 -0.6405,-4.09869 -1.9199,-5.41016 -1.2795,-1.34426 -3.1475,-2.01562 -5.6055,-2.01562 z m 26,0 c -2.4242,0 -4.2752,0.63928 -5.5547,1.91797 -1.2794,1.27869 -1.9199,3.11437 -1.9199,5.50781 0,2.36065 0.6405,4.21432 1.9199,5.55859 1.2795,1.34427 3.1305,2.01563 5.5547,2.01563 2.4243,0 4.2753,-0.67136 5.5547,-2.01563 1.3132,-1.37706 1.9707,-3.23073 1.9707,-5.55859 0,-2.29508 -0.6405,-4.09869 -1.9199,-5.41016 -1.2795,-1.34426 -3.1476,-2.01562 -5.6055,-2.01562 z" />
  <path
     id="path147-3"
     style="fill:#fd9a2b"
     d="M 539,282 V 190.16016 L 537,191 l 3.5,-10 3.5,9.84571 -2,-0.75196 V 282 Z" />
</svg>
