<?xml version="1.0" encoding="UTF-8" standalone="no"?>
<!-- Created with Inkscape (http://www.inkscape.org/) -->

<svg
   width="210mm"
   height="297mm"
   viewBox="0 0 210 297"
   version="1.1"
   id="svg5"
   inkscape:version="1.2.1 (9c6d41e410, 2022-07-14)"
   sodipodi:docname="slemicro_upgrade_paths.svg"
   xml:space="preserve"
   xmlns:inkscape="http://www.inkscape.org/namespaces/inkscape"
   xmlns:sodipodi="http://sodipodi.sourceforge.net/DTD/sodipodi-0.dtd"
   xmlns="http://www.w3.org/2000/svg"
   xmlns:svg="http://www.w3.org/2000/svg"><sodipodi:namedview
     id="namedview7"
     pagecolor="#ffffff"
     bordercolor="#666666"
     borderopacity="1.0"
     inkscape:showpageshadow="2"
     inkscape:pageopacity="0.0"
     inkscape:pagecheckerboard="0"
     inkscape:deskcolor="#d1d1d1"
     inkscape:document-units="mm"
     showgrid="true"
     inkscape:zoom="3.9408307"
     inkscape:cx="299.93676"
     inkscape:cy="230.91578"
     inkscape:window-width="1920"
     inkscape:window-height="1043"
     inkscape:window-x="0"
     inkscape:window-y="0"
     inkscape:window-maximized="1"
     inkscape:current-layer="layer1"><inkscape:grid
       type="xygrid"
       id="grid5503" /></sodipodi:namedview><defs
     id="defs2"><rect
       x="154.27973"
       y="128.51317"
       width="121.18875"
       height="54.450268"
       id="rect3617" /><rect
       x="45.565635"
       y="81.778435"
       width="131.94619"
       height="43.622735"
       id="rect3611" /><rect
       x="36.788941"
       y="146.13665"
       width="158.46972"
       height="41.862069"
       id="rect3543" /><rect
       x="44.545122"
       y="144.55261"
       width="155.98292"
       height="44.723151"
       id="rect3537" /><rect
       x="39.170606"
       y="145.65303"
       width="148.1917"
       height="32.849872"
       id="rect3531" /><marker
       style="overflow:visible"
       id="DotL"
       refX="0.0"
       refY="0.0"
       orient="auto"
       inkscape:stockid="DotL"
       inkscape:isstock="true"><path
         transform="scale(0.8) translate(7.4, 1)"
         style="fill-rule:evenodd;stroke:#0c322c;stroke-width:1pt;stroke-opacity:1;fill:#0c322c;fill-opacity:1"
         d="M -2.5,-1.0 C -2.5,1.7600000 -4.7400000,4.0 -7.5,4.0 C -10.260000,4.0 -12.5,1.7600000 -12.5,-1.0 C -12.5,-3.7600000 -10.260000,-6.0 -7.5,-6.0 C -4.7400000,-6.0 -2.5,-3.7600000 -2.5,-1.0 z "
         id="path965" /></marker><marker
       markerWidth="7.1213202"
       markerHeight="11.414214"
       refX="3.5606601"
       refY="5.7071068"
       orient="auto"
       id="marker840"><path
         style="fill:none;stroke:#0c322c;stroke-width:2;stroke-linecap:butt;stroke-linejoin:miter;stroke-miterlimit:4;stroke-dasharray:none;stroke-opacity:1"
         d="M 0.70710679,0.70710674 5.7071067,5.707107 l -4.99999991,5"
         id="path838" /></marker><marker
       markerWidth="3.0606586"
       markerHeight="4.7071062"
       refX="1.5303293"
       refY="2.3535531"
       orient="auto"
       id="marker868"><path
         style="fill:none;stroke:#000000;stroke-width:0.999999px;stroke-linecap:butt;stroke-linejoin:miter;stroke-opacity:1"
         d="M 2.7071056,0.35355291 0.70710582,2.3535531 2.7071056,4.3535533"
         id="path851-3" /></marker><marker
       markerWidth="3.060659"
       markerHeight="4.7071063"
       refX="1.5303295"
       refY="2.3535531"
       orient="auto"
       id="marker883"><path
         style="fill:none;stroke:#000000;stroke-width:0.999999px;stroke-linecap:butt;stroke-linejoin:miter;stroke-opacity:1"
         d="M 0.35355295,0.35355295 2.3535531,2.3535531 0.35355295,4.3535533"
         id="path851" /></marker><marker
       markerWidth="3.0606586"
       markerHeight="4.7071062"
       refX="1.5303293"
       refY="2.3535531"
       orient="auto"
       id="marker8684506"
       inkscape:stockid="marker8684506"><path
         style="fill:#0c322c;stroke:#000000;stroke-width:0.999999px;stroke-linecap:butt;stroke-linejoin:miter;stroke-opacity:1"
         d="M 2.7071056,0.35355291 0.70710582,2.3535531 2.7071056,4.3535533"
         id="path1208" /></marker><marker
       markerWidth="3.060659"
       markerHeight="4.7071063"
       refX="1.5303295"
       refY="2.3535531"
       orient="auto"
       id="marker8839976"
       inkscape:stockid="marker8839976"><path
         style="fill:#0c322c;stroke:#000000;stroke-width:0.999999px;stroke-linecap:butt;stroke-linejoin:miter;stroke-opacity:1"
         d="M 0.35355295,0.35355295 2.3535531,2.3535531 0.35355295,4.3535533"
         id="path1211" /></marker><marker
       markerWidth="3.0606586"
       markerHeight="4.7071062"
       refX="1.5303293"
       refY="2.3535531"
       orient="auto"
       inkscape:stockid="marker86845062245"
       id="marker86845062245"><path
         style="fill:#ffffff;stroke:#000000;stroke-width:0.999999px;stroke-linecap:butt;stroke-linejoin:miter;stroke-opacity:1"
         d="M 2.7071056,0.35355291 0.70710582,2.3535531 2.7071056,4.3535533"
         id="path1299" /></marker><marker
       markerWidth="3.060659"
       markerHeight="4.7071063"
       refX="1.5303295"
       refY="2.3535531"
       orient="auto"
       inkscape:stockid="marker88399767239"
       id="marker88399767239"><path
         style="fill:#ffffff;stroke:#000000;stroke-width:0.999999px;stroke-linecap:butt;stroke-linejoin:miter;stroke-opacity:1"
         d="M 0.35355295,0.35355295 2.3535531,2.3535531 0.35355295,4.3535533"
         id="path1302" /></marker><marker
       markerWidth="3.0606586"
       markerHeight="4.7071062"
       refX="1.5303293"
       refY="2.3535531"
       orient="auto"
       inkscape:stockid="marker868450622454738"
       id="marker868450622454738"><path
         style="fill:#ffffff;stroke:#0c322c;stroke-width:0.999999px;stroke-linecap:butt;stroke-linejoin:miter;stroke-opacity:1"
         d="M 2.7071056,0.35355291 0.70710582,2.3535531 2.7071056,4.3535533"
         id="path1414" /></marker><marker
       markerWidth="3.060659"
       markerHeight="4.7071063"
       refX="1.5303295"
       refY="2.3535531"
       orient="auto"
       inkscape:stockid="marker883997672393450"
       id="marker883997672393450"><path
         style="fill:#ffffff;stroke:#0c322c;stroke-width:0.999999px;stroke-linecap:butt;stroke-linejoin:miter;stroke-opacity:1"
         d="M 0.35355295,0.35355295 2.3535531,2.3535531 0.35355295,4.3535533"
         id="path1417" /></marker><marker
       markerWidth="3.0606586"
       markerHeight="4.7071062"
       refX="1.5303293"
       refY="2.3535531"
       orient="auto"
       id="marker8684112"
       inkscape:stockid="marker8684112"><path
         style="fill:#ffffff;stroke:#0c322c;stroke-width:0.999999px;stroke-linecap:butt;stroke-linejoin:miter;stroke-opacity:1;fill-opacity:0.0"
         d="M 2.7071056,0.35355291 0.70710582,2.3535531 2.7071056,4.3535533"
         id="path2096" /></marker><marker
       markerWidth="3.060659"
       markerHeight="4.7071063"
       refX="1.5303295"
       refY="2.3535531"
       orient="auto"
       id="marker8834579"
       inkscape:stockid="marker8834579"><path
         style="fill:#ffffff;stroke:#0c322c;stroke-width:0.999999px;stroke-linecap:butt;stroke-linejoin:miter;stroke-opacity:1;fill-opacity:0.0"
         d="M 0.35355295,0.35355295 2.3535531,2.3535531 0.35355295,4.3535533"
         id="path2099" /></marker><marker
       markerWidth="3.060659"
       markerHeight="4.7071063"
       refX="1.5303295"
       refY="2.3535531"
       orient="auto"
       id="marker8836481"
       inkscape:stockid="marker8836481"><path
         style="fill:#ffffff;stroke:#0c322c;stroke-width:0.999999px;stroke-linecap:butt;stroke-linejoin:miter;stroke-opacity:1;fill-opacity:0.0"
         d="M 0.35355295,0.35355295 2.3535531,2.3535531 0.35355295,4.3535533"
         id="path2261" /></marker><marker
       markerWidth="3.06065906"
       markerHeight="4.70710612"
       refX="1.5303295"
       refY="2.3535531"
       orient="auto"
       id="marker8836481-7"
       inkscape:stockid="marker8836481"
       viewBox="0 0 3.06065925 4.70710641"
       preserveAspectRatio="xMidYMid"><path
         style="fill:#ffffff;fill-opacity:0;stroke:#0c322c;stroke-width:0.999999px;stroke-linecap:butt;stroke-linejoin:miter;stroke-opacity:1"
         d="M 0.35355295,0.35355295 2.3535531,2.3535531 0.35355295,4.3535533"
         id="path2261-5" /></marker></defs><g
     inkscape:label="Layer 1"
     inkscape:groupmode="layer"
     id="layer1"><text
       xml:space="preserve"
       transform="scale(0.26458333)"
       id="text3529"
       style="font-size:24px;line-height:1.25;font-family:Poppins;-inkscape-font-specification:'Poppins, Normal';font-variant-ligatures:none;white-space:pre;shape-inside:url(#rect3531);display:inline" /><text
       xml:space="preserve"
       transform="scale(0.26458333)"
       id="text3535"
       style="font-size:24px;line-height:1.25;font-family:Poppins;-inkscape-font-specification:'Poppins, Normal';font-variant-ligatures:none;white-space:pre;shape-inside:url(#rect3537);display:inline" /><text
       xml:space="preserve"
       transform="scale(0.26458333)"
       id="text3541"
       style="font-size:24px;line-height:1.25;font-family:Poppins;-inkscape-font-specification:'Poppins, Normal';font-variant-ligatures:none;white-space:pre;shape-inside:url(#rect3543);display:inline" /><text
       xml:space="preserve"
       transform="scale(0.26458333)"
       id="text3609"
       style="font-size:13.3333px;line-height:1.25;font-family:Poppins;-inkscape-font-specification:'Poppins, Normal';font-variant-ligatures:none;white-space:pre;shape-inside:url(#rect3611);display:inline" /><text
       xml:space="preserve"
       transform="scale(0.26458333)"
       id="text3615"
       style="font-size:13.3333px;line-height:1.25;font-family:Poppins;-inkscape-font-specification:'Poppins, Normal';font-variant-ligatures:none;white-space:pre;shape-inside:url(#rect3617);display:inline" /><g
       id="g3699"
       transform="translate(-0.23288854,-0.38604911)"><rect
         style="fill:#008000;fill-rule:evenodd;stroke:#030202;stroke-width:0;stroke-linejoin:round;stroke-miterlimit:4.1;stroke-dasharray:none;stroke-opacity:1;paint-order:normal"
         id="rect111-2"
         width="26.034161"
         height="10.587911"
         x="14.708077"
         y="66.677269"
         inkscape:highlight-color="#000000"
         inkscape:label="SLE Micro 5.1"
         ry="0.79890555"><title
           id="title3421-1">SLE Micro 5.1</title></rect><text
         xml:space="preserve"
         style="font-style:normal;font-variant:normal;font-weight:normal;font-stretch:normal;font-size:3.52777px;line-height:1.25;font-family:Poppins;-inkscape-font-specification:'Poppins, Normal';font-variant-ligatures:none;font-variant-caps:normal;font-variant-numeric:normal;font-variant-east-asian:normal;stroke-width:0.264583"
         x="16.753796"
         y="73.297668"
         id="text3607-7"><tspan
           sodipodi:role="line"
           id="tspan3691"
           x="16.753796"
           y="73.297668">SLE Micro 5.2</tspan></text></g><g
       id="g3705"
       transform="translate(-0.2328883,-0.35615128)"><path
         id="rect111"
         style="fill:#008000;fill-rule:evenodd;stroke:#030202;stroke-width:0;stroke-linejoin:round;stroke-miterlimit:4.1"
         inkscape:highlight-color="#000000"
         inkscape:label="SLE Micro 5.1"
         d="m 15.506983,21.57416 h 24.436349 c 0.442594,0 0.798906,0.356311 0.798906,0.798905 v 8.9901 c 0,0.442593 -0.356312,0.798905 -0.798906,0.798905 H 15.506983 c -0.442594,0 -0.798906,-0.356312 -0.798906,-0.798905 v -8.9901 c 0,-0.442594 0.356312,-0.798905 0.798906,-0.798905 z"><title
           id="title3421">SLE Micro 5.1</title></path><g
         aria-label="SLE Micro 5.1"
         id="text3607"
         style="font-size:3.52777px;line-height:1.25;font-family:Poppins;-inkscape-font-specification:'Poppins, Normal';font-variant-ligatures:none;stroke-width:0.264583"><path
           d="m 18.344818,28.219252 q -0.243416,0 -0.437443,-0.08467 -0.1905,-0.08819 -0.299861,-0.239888 -0.10936,-0.155222 -0.112888,-0.356305 h 0.342193 q 0.01764,0.172861 0.141111,0.292805 0.127,0.116416 0.366888,0.116416 0.229305,0 0.359833,-0.112888 0.134055,-0.116417 0.134055,-0.296333 0,-0.141111 -0.07761,-0.229305 -0.07761,-0.08819 -0.194027,-0.134055 -0.116417,-0.04586 -0.313972,-0.09878 -0.243416,-0.0635 -0.391582,-0.127 -0.144639,-0.0635 -0.250472,-0.197555 -0.102305,-0.137583 -0.102305,-0.366888 0,-0.201083 0.102305,-0.356305 0.102305,-0.155221 0.28575,-0.239888 0.186971,-0.08467 0.42686,-0.08467 0.345721,0 0.564443,0.17286 0.222249,0.172861 0.250472,0.45861 H 18.78579 q -0.01764,-0.14111 -0.148167,-0.246944 -0.130527,-0.10936 -0.345721,-0.10936 -0.201083,0 -0.328083,0.105833 -0.127,0.102305 -0.127,0.289277 0,0.134055 0.07408,0.218722 0.07761,0.08467 0.186971,0.130527 0.112889,0.04233 0.313972,0.09878 0.243416,0.06703 0.391582,0.134055 0.148167,0.0635 0.254,0.201083 0.105833,0.134055 0.105833,0.366888 0,0.179916 -0.09525,0.338666 -0.09525,0.158749 -0.282221,0.257527 -0.186972,0.09878 -0.440972,0.09878 z"
           id="path7321" /><path
           d="m 19.957009,27.933502 h 0.860776 v 0.261055 h -1.181803 v -2.458856 h 0.321027 z"
           id="path7323" /><path
           d="m 21.481003,25.996756 v 0.821971 h 0.896053 v 0.264583 h -0.896053 v 0.846664 h 1.001886 v 0.264583 h -1.322914 v -2.462383 h 1.322914 v 0.264582 z"
           id="path7325" /><path
           d="m 26.405772,25.75334 v 2.441217 h -0.321027 v -1.820329 l -0.811387,1.820329 H 25.047581 L 24.232666,26.3707 v 1.823857 H 23.911639 V 25.75334 h 0.345721 l 0.903109,2.017885 0.903109,-2.017885 z"
           id="path7327" /><path
           d="m 27.114854,25.947368 q -0.09172,0 -0.155222,-0.0635 -0.0635,-0.0635 -0.0635,-0.155222 0,-0.09172 0.0635,-0.155222 0.0635,-0.0635 0.155222,-0.0635 0.08819,0 0.148166,0.0635 0.0635,0.0635 0.0635,0.155222 0,0.09172 -0.0635,0.155222 -0.05997,0.0635 -0.148166,0.0635 z m 0.155221,0.313971 v 1.933218 h -0.321027 v -1.933218 z"
           id="path7329" /><path
           d="m 27.696937,27.22442 q 0,-0.29986 0.119945,-0.52211 0.119944,-0.225777 0.33161,-0.349249 0.215194,-0.123472 0.49036,-0.123472 0.356305,0 0.58561,0.172861 0.232833,0.172861 0.306916,0.479777 h -0.345722 q -0.04939,-0.176389 -0.194027,-0.278694 -0.141111,-0.102305 -0.352777,-0.102305 -0.275166,0 -0.444499,0.190499 -0.169333,0.186972 -0.169333,0.532693 0,0.34925 0.169333,0.539749 0.169333,0.1905 0.444499,0.1905 0.211666,0 0.352777,-0.09878 0.141111,-0.09878 0.194027,-0.282221 h 0.345722 q -0.07761,0.296332 -0.310444,0.476249 -0.232833,0.176388 -0.582082,0.176388 -0.275166,0 -0.49036,-0.123472 -0.211666,-0.123472 -0.33161,-0.349249 -0.119945,-0.225777 -0.119945,-0.529166 z"
           id="path7331" /><path
           d="m 30.279266,26.575311 q 0.08467,-0.165805 0.239888,-0.257527 0.15875,-0.09172 0.384527,-0.09172 v 0.33161 h -0.08467 q -0.539749,0 -0.539749,0.58561 v 1.051275 h -0.321027 v -1.933218 h 0.321027 z"
           id="path7333" /><path
           d="m 32.117231,28.226307 q -0.271638,0 -0.493888,-0.123472 -0.218722,-0.123472 -0.345721,-0.349249 -0.123472,-0.229305 -0.123472,-0.529166 0,-0.296332 0.127,-0.52211 0.130527,-0.229305 0.352777,-0.349249 0.222249,-0.123472 0.497415,-0.123472 0.275166,0 0.497416,0.123472 0.222249,0.119944 0.349249,0.345722 0.130527,0.225777 0.130527,0.525637 0,0.299861 -0.134055,0.529166 -0.130527,0.225777 -0.356305,0.349249 -0.225777,0.123472 -0.500943,0.123472 z m 0,-0.282221 q 0.172861,0 0.324555,-0.08114 0.151694,-0.08114 0.243416,-0.243416 0.09525,-0.162278 0.09525,-0.395111 0,-0.232832 -0.09172,-0.39511 -0.09172,-0.162277 -0.239889,-0.239888 -0.148166,-0.08114 -0.321027,-0.08114 -0.176388,0 -0.324554,0.08114 -0.144639,0.07761 -0.232833,0.239888 -0.08819,0.162278 -0.08819,0.39511 0,0.236361 0.08467,0.398638 0.08819,0.162278 0.232833,0.243417 0.144638,0.07761 0.317499,0.07761 z"
           id="path7335" /><path
           d="m 36.047166,25.922673 h -1.238247 v 0.804332 q 0.08114,-0.112889 0.239889,-0.183444 0.158749,-0.07408 0.342193,-0.07408 0.292805,0 0.476249,0.123472 0.183444,0.119944 0.261055,0.313971 0.08114,0.1905 0.08114,0.405694 0,0.253999 -0.09525,0.455082 -0.09525,0.201083 -0.292805,0.317499 -0.194027,0.116417 -0.483304,0.116417 -0.370416,0 -0.599721,-0.1905 -0.229305,-0.190499 -0.278694,-0.507999 h 0.313971 q 0.04586,0.201083 0.194028,0.313972 0.148166,0.112888 0.373943,0.112888 0.278694,0 0.419805,-0.165805 0.141111,-0.169333 0.141111,-0.444499 0,-0.275166 -0.141111,-0.423332 -0.141111,-0.151694 -0.416277,-0.151694 -0.186972,0 -0.328082,0.09172 -0.137583,0.08819 -0.201083,0.243416 h -0.303389 v -1.43933 h 1.53458 z"
           id="path7337" /><path
           d="m 36.791527,28.215724 q -0.09172,0 -0.155222,-0.0635 -0.0635,-0.0635 -0.0635,-0.155222 0,-0.09172 0.0635,-0.155222 0.0635,-0.0635 0.155222,-0.0635 0.08819,0 0.148166,0.0635 0.0635,0.0635 0.0635,0.155222 0,0.09172 -0.0635,0.155222 -0.05997,0.0635 -0.148166,0.0635 z"
           id="path7339" /><path
           d="m 37.292466,25.936784 v -0.292805 h 0.663221 v 2.550578 h -0.324555 v -2.257773 z"
           id="path7341" /></g></g><g
       id="g3711"
       transform="translate(-1.275116,-0.98820179)"><path
         id="rect111-5"
         style="fill:#008000;fill-rule:evenodd;stroke:#030202;stroke-width:0;stroke-linejoin:round;stroke-miterlimit:4.1"
         inkscape:highlight-color="#000000"
         inkscape:label="SLE Micro 5.1"
         d="m 78.711671,41.901554 h 24.436349 c 0.44259,0 0.79891,0.356312 0.79891,0.798906 v 8.990099 c 0,0.442594 -0.35632,0.798906 -0.79891,0.798906 H 78.711671 c -0.442594,0 -0.798905,-0.356312 -0.798905,-0.798906 V 42.70046 c 0,-0.442594 0.356311,-0.798906 0.798905,-0.798906 z"><title
           id="title3421-7">SLE Micro 5.1</title></path><g
         aria-label="SLE Micro 5.3"
         id="text3607-4"
         style="font-size:3.52777px;line-height:1.25;font-family:Poppins;-inkscape-font-specification:'Poppins, Normal';font-variant-ligatures:none;stroke-width:0.264583"><path
           d="m 81.016813,48.546644 q -0.243416,0 -0.437443,-0.08467 -0.1905,-0.08819 -0.29986,-0.239889 -0.109361,-0.155222 -0.112889,-0.356304 h 0.342194 q 0.01764,0.17286 0.14111,0.292804 0.127,0.116417 0.366888,0.116417 0.229306,0 0.359833,-0.112889 0.134055,-0.116416 0.134055,-0.296332 0,-0.141111 -0.07761,-0.229306 -0.07761,-0.08819 -0.194027,-0.134055 -0.116416,-0.04586 -0.313972,-0.09878 -0.243416,-0.0635 -0.391582,-0.127 -0.144639,-0.0635 -0.250472,-0.197555 -0.102305,-0.137583 -0.102305,-0.366888 0,-0.201083 0.102305,-0.356305 0.102306,-0.155222 0.28575,-0.239888 0.186972,-0.08467 0.42686,-0.08467 0.345721,0 0.564443,0.172861 0.22225,0.172861 0.250472,0.45861 H 81.457786 Q 81.440146,46.521694 81.309619,46.415861 81.179092,46.3065 80.963898,46.3065 q -0.201083,0 -0.328083,0.105833 -0.126999,0.102306 -0.126999,0.289277 0,0.134056 0.07408,0.218722 0.07761,0.08467 0.186972,0.130528 0.112888,0.04233 0.313971,0.09878 0.243416,0.06703 0.391583,0.134055 0.148166,0.0635 0.253999,0.201083 0.105833,0.134056 0.105833,0.366888 0,0.179917 -0.09525,0.338666 -0.09525,0.15875 -0.282221,0.257528 -0.186972,0.09878 -0.440972,0.09878 z"
           id="path7346" /><path
           d="m 82.629004,48.260895 h 0.860776 v 0.261055 h -1.181803 v -2.458856 h 0.321027 z"
           id="path7348" /><path
           d="m 84.152998,46.324149 v 0.82197 h 0.896053 v 0.264583 h -0.896053 v 0.846665 h 1.001886 v 0.264583 h -1.322913 v -2.462384 h 1.322913 v 0.264583 z"
           id="path7350" /><path
           d="M 89.077767,46.080733 V 48.52195 H 88.75674 v -1.82033 l -0.811387,1.82033 h -0.225777 l -0.814915,-1.823857 v 1.823857 h -0.321027 v -2.441217 h 0.345721 l 0.903109,2.017884 0.90311,-2.017884 z"
           id="path7352" /><path
           d="m 89.786849,46.27476 q -0.09172,0 -0.155222,-0.0635 -0.0635,-0.0635 -0.0635,-0.155221 0,-0.09172 0.0635,-0.155222 0.0635,-0.0635 0.155222,-0.0635 0.08819,0 0.148166,0.0635 0.0635,0.0635 0.0635,0.155222 0,0.09172 -0.0635,0.155221 -0.05997,0.0635 -0.148166,0.0635 z m 0.155222,0.313972 v 1.933218 h -0.321027 v -1.933218 z"
           id="path7354" /><path
           d="m 90.368933,47.551813 q 0,-0.29986 0.119944,-0.52211 0.119944,-0.225777 0.33161,-0.349249 0.215194,-0.123472 0.49036,-0.123472 0.356305,0 0.58561,0.172861 0.232833,0.17286 0.306916,0.479776 h -0.345722 q -0.04939,-0.176388 -0.194027,-0.278694 -0.141111,-0.102305 -0.352777,-0.102305 -0.275166,0 -0.444499,0.1905 -0.169333,0.186972 -0.169333,0.532693 0,0.349249 0.169333,0.539749 0.169333,0.190499 0.444499,0.190499 0.211666,0 0.352777,-0.09878 0.141111,-0.09878 0.194027,-0.282222 h 0.345722 q -0.07761,0.296333 -0.310444,0.476249 -0.232833,0.176389 -0.582082,0.176389 -0.275166,0 -0.49036,-0.123472 -0.211666,-0.123472 -0.33161,-0.349249 -0.119944,-0.225778 -0.119944,-0.529166 z"
           id="path7356" /><path
           d="m 92.951261,46.902703 q 0.08467,-0.165805 0.239889,-0.257527 0.158749,-0.09172 0.384527,-0.09172 v 0.33161 h -0.08467 q -0.539749,0 -0.539749,0.58561 v 1.051276 h -0.321027 v -1.933218 h 0.321027 z"
           id="path7358" /><path
           d="m 94.789226,48.5537 q -0.271638,0 -0.493888,-0.123472 -0.218721,-0.123472 -0.345721,-0.349249 -0.123472,-0.229306 -0.123472,-0.529166 0,-0.296333 0.127,-0.52211 0.130527,-0.229305 0.352777,-0.349249 0.222249,-0.123472 0.497415,-0.123472 0.275166,0 0.497416,0.123472 0.222249,0.119944 0.349249,0.345721 0.130528,0.225778 0.130528,0.525638 0,0.29986 -0.134056,0.529166 -0.130527,0.225777 -0.356304,0.349249 -0.225778,0.123472 -0.500944,0.123472 z m 0,-0.282222 q 0.172861,0 0.324555,-0.08114 0.151694,-0.08114 0.243416,-0.243416 0.09525,-0.162277 0.09525,-0.39511 0,-0.232833 -0.09172,-0.39511 -0.09172,-0.162278 -0.239888,-0.239889 -0.148167,-0.08114 -0.321027,-0.08114 -0.176389,0 -0.324555,0.08114 -0.144639,0.07761 -0.232833,0.239889 -0.08819,0.162277 -0.08819,0.39511 0,0.236361 0.08467,0.398638 0.08819,0.162277 0.232833,0.243416 0.144638,0.07761 0.317499,0.07761 z"
           id="path7360" /><path
           d="m 98.719162,46.250066 h -1.238248 v 0.804331 q 0.08114,-0.112888 0.239889,-0.183444 0.158749,-0.07408 0.342193,-0.07408 0.292805,0 0.476249,0.123472 0.183444,0.119944 0.261055,0.313972 0.08114,0.190499 0.08114,0.405693 0,0.254 -0.09525,0.455083 -0.09525,0.201082 -0.292805,0.317499 -0.194027,0.116416 -0.483304,0.116416 -0.370416,0 -0.599721,-0.190499 -0.229305,-0.1905 -0.278694,-0.507999 h 0.313972 q 0.04586,0.201083 0.194027,0.313971 0.148166,0.112889 0.373944,0.112889 0.278693,0 0.419804,-0.165805 0.141111,-0.169333 0.141111,-0.444499 0,-0.275166 -0.141111,-0.423333 -0.141111,-0.151694 -0.416277,-0.151694 -0.186971,0 -0.328082,0.09172 -0.137583,0.08819 -0.201083,0.243416 h -0.303388 v -1.43933 h 1.53458 z"
           id="path7362" /><path
           d="m 99.463522,48.543116 q -0.09172,0 -0.155222,-0.0635 -0.0635,-0.0635 -0.0635,-0.155222 0,-0.09172 0.0635,-0.155222 0.0635,-0.0635 0.155222,-0.0635 0.08819,0 0.148167,0.0635 0.0635,0.0635 0.0635,0.155222 0,0.09172 -0.0635,0.155222 -0.05997,0.0635 -0.148167,0.0635 z"
           id="path7364" /><path
           d="m 100.04207,46.613426 q 0.0247,-0.324555 0.25047,-0.507999 0.22578,-0.183444 0.58561,-0.183444 0.23989,0 0.41275,0.08819 0.17639,0.08467 0.26459,0.232833 0.0917,0.148167 0.0917,0.335138 0,0.218722 -0.127,0.377472 -0.12347,0.15875 -0.32456,0.204611 v 0.01764 q 0.22931,0.05644 0.36336,0.22225 0.13406,0.165805 0.13406,0.433916 0,0.201083 -0.0917,0.36336 -0.0917,0.15875 -0.27517,0.250472 -0.18344,0.09172 -0.44097,0.09172 -0.37394,0 -0.61383,-0.194028 -0.23989,-0.197555 -0.26811,-0.557387 h 0.31044 q 0.0247,0.211666 0.17286,0.345721 0.14817,0.134055 0.39511,0.134055 0.24695,0 0.37395,-0.126999 0.13052,-0.130528 0.13052,-0.335139 0,-0.264582 -0.17639,-0.380999 -0.17638,-0.116416 -0.53269,-0.116416 h -0.0811 v -0.268111 h 0.0847 q 0.32455,-0.0035 0.49036,-0.105833 0.1658,-0.105833 0.1658,-0.324555 0,-0.186971 -0.12347,-0.29986 -0.11994,-0.112889 -0.34572,-0.112889 -0.21872,0 -0.35278,0.112889 -0.13405,0.112889 -0.15875,0.303388 z"
           id="path7366" /></g></g><path
       style="fill:#ff0000;fill-rule:evenodd;stroke:#ee0615;stroke-width:0.265;stroke-linecap:butt;stroke-linejoin:miter;stroke-dasharray:none;stroke-opacity:0.86666662;marker-end:url(#marker8836481-7);image-rendering:auto"
       d="M 40.50935,30.636251 76.63765,42.08302"
       id="path8628"
       inkscape:connector-type="polyline"
       inkscape:connector-curvature="0"
       inkscape:connection-start="#g3705"
       inkscape:connection-end="#g3711"
       inkscape:highlight-color="#eb182d" /><path
       style="fill:none;fill-rule:evenodd;stroke:#2c07ef;stroke-width:0.264583px;stroke-linecap:butt;stroke-linejoin:miter;stroke-opacity:1;marker-end:url(#marker8836481-7)"
       d="M 27.492269,31.805919 V 66.29122"
       id="path12544"
       inkscape:connector-type="polyline"
       inkscape:connector-curvature="0"
       inkscape:connection-start="#g3705"
       inkscape:connection-end="#g3699" /><path
       style="fill:#ff0000;fill-rule:evenodd;stroke:#ee0615;stroke-width:0.265;stroke-linecap:butt;stroke-linejoin:miter;stroke-opacity:0.86666662;marker-end:url(#marker8836481-7);stroke-dasharray:none"
       d="M 40.145753,66.419382 77.001247,51.373102"
       id="path12720"
       inkscape:connector-type="polyline"
       inkscape:connector-curvature="0"
       inkscape:connection-start="#g3699"
       inkscape:connection-end="#g3711"
       inkscape:highlight-color="#ee3b3b" /></g></svg>
