<?xml version="1.0" encoding="UTF-8" standalone="no"?>
<svg xmlns="http://www.w3.org/2000/svg" width="16" height="16">
  <path d="M 0,4 0,12 0.84375,12 1,12 c 0.177384,-0.008 0.351174,-0.05925 0.5,-0.15625 l 5,-3 C 6.782396,8.66404 6.9375,8.33202 6.9375,8 6.9375,7.66798 6.782396,7.33596 6.5,7.15625 l -5,-3 C 1.351174,4.0592 1.177384,4.008 1,4 L 0.84375,4 0,4 z M 7,4 7,12 7.84375,12 8,12 c 0.177384,-0.008 0.351174,-0.05925 0.5,-0.15625 l 5,-3 C 13.782396,8.66404 13.9375,8.33202 13.9375,8 13.9375,7.66798 13.782396,7.33596 13.5,7.15625 l -5,-3 C 8.351174,4.0592 8.177384,4.008 8,4 L 7.84375,4 7,4 z m 7,0 0,8 2,0 0,-8 -2,0 z"
    style="fill:#000000" />
</svg>
