<svg xmlns="http://www.w3.org/2000/svg" xml:space="preserve" width="205mm" height="180mm" fill-rule="evenodd" stroke-linejoin="round" stroke-width="28.22" preserveAspectRatio="xMidYMid" version="1.2" viewBox="0 0 20500 18000">
    <defs class="ClipPathGroup">
        <marker id="a" markerHeight="4.71" markerWidth="3.06" orient="auto" refX="1.53" refY="2.35">
            <path fill="none" stroke="#505050" stroke-linejoin="miter" stroke-width="1" d="m2.7.35-2 2 2 2"/>
        </marker>
        <marker id="b" markerHeight="4.71" markerWidth="3.06" orient="auto" refX="1.53" refY="2.35">
            <path fill="none" stroke="#505050" stroke-linejoin="miter" stroke-width="1" d="m.35.35 2 2-2 2"/>
        </marker>
        <marker id="c" markerHeight="4.71" markerWidth="3.06" orient="auto" refX="1.53" refY="2.35">
            <path fill="none" stroke="#505050" stroke-linejoin="miter" stroke-width="1" d="m.35.35 2 2-2 2"/>
        </marker>
        <marker id="d" markerHeight="4.71" markerWidth="3.06" orient="auto" refX="1.53" refY="2.35">
            <path fill="none" stroke="#505050" stroke-linejoin="miter" stroke-width="1" d="m.35.35 2 2-2 2"/>
        </marker>
        <marker id="e" markerHeight="4.71" markerWidth="3.06" orient="auto" refX="1.53" refY="2.35">
            <path fill="none" stroke="#505050" stroke-linejoin="miter" stroke-width="1" d="m.35.35 2 2-2 2"/>
        </marker>
        <marker id="f" markerHeight="4.71" markerWidth="3.06" orient="auto" refX="1.53" refY="2.35">
            <path fill="none" stroke="#505050" stroke-linejoin="miter" stroke-width="1" d="m.35.35 2 2-2 2"/>
        </marker>
        <marker id="g" markerHeight="4.71" markerWidth="3.06" orient="auto" refX="1.53" refY="2.35">
            <path fill="none" stroke="#505050" stroke-linejoin="miter" stroke-width="1" d="m.35.35 2 2-2 2"/>
        </marker>
        <marker id="h" markerHeight="4.71" markerWidth="3.06" orient="auto" refX="1.53" refY="2.35">
            <path fill="none" stroke="#505050" stroke-linejoin="miter" stroke-width="1" d="m.35.35 2 2-2 2"/>
        </marker>
        <marker id="i" markerHeight="4.71" markerWidth="3.06" orient="auto" refX="1.53" refY="2.35">
            <path fill="none" stroke="#505050" stroke-linejoin="miter" stroke-width="1" d="m.35.35 2 2-2 2"/>
        </marker>
        <marker id="j" markerHeight="4.71" markerWidth="3.06" orient="auto" refX="1.53" refY="2.35">
            <path fill="none" stroke="#505050" stroke-linejoin="miter" stroke-width="1" d="m.35.35 2 2-2 2"/>
        </marker>
    </defs>
    <g class="SlideGroup">
        <g class="com.sun.star.drawing.TextShape" transform="translate(211.67 317.5)">
            <rect width="1073" height="777" x="2478" y="341" fill="none" class="BoundingBox"/>
            <text class="TextShape" font-family="Poppins" font-weight="500" style="-inkscape-font-specification:'Poppins Medium'"><tspan class="TextParagraph" font-size="388" style="-inkscape-font-specification:'Poppins Medium'"><tspan x="2729" y="881" class="TextPosition" style="-inkscape-font-specification:'Poppins Medium'"><tspan style="-inkscape-font-specification:'Poppins Medium'">PK</tspan></tspan></tspan></text>
        </g>
        <g class="com.sun.star.drawing.TextShape" transform="translate(0 582.08)">
            <rect width="1193" height="777" x="2458" y="4340" fill="none" class="BoundingBox"/>
            <text class="TextShape" font-family="Poppins" font-weight="500" style="-inkscape-font-specification:'Poppins Medium'"><tspan class="TextParagraph" font-size="388" style="-inkscape-font-specification:'Poppins Medium'"><tspan x="2709" y="4880" class="TextPosition" style="-inkscape-font-specification:'Poppins Medium'"><tspan style="-inkscape-font-specification:'Poppins Medium'">KEK</tspan></tspan></tspan></text>
        </g>
        <g class="com.sun.star.drawing.TextShape" transform="translate(-158.75)">
            <rect width="3369" height="777" x="282" y="6590" fill="none" class="BoundingBox"/>
            <text y="317.5" class="TextShape" font-family="Poppins" font-weight="500" style="-inkscape-font-specification:'Poppins Medium'"><tspan class="TextParagraph" font-size="388" style="-inkscape-font-specification:'Poppins Medium'"><tspan x="532" y="7447.5" class="TextPosition" style="-inkscape-font-specification:'Poppins Medium'"><tspan style="-inkscape-font-specification:'Poppins Medium'">SUSE Public Key</tspan></tspan></tspan></text>
        </g>
        <g class="com.sun.star.drawing.TextShape" transform="translate(0 740.83)">
            <rect width="1396" height="777" x="2255" y="9966" fill="none" class="BoundingBox"/>
            <text class="TextShape" font-family="Poppins" font-weight="500" style="-inkscape-font-specification:'Poppins Medium'"><tspan class="TextParagraph" font-size="388" style="-inkscape-font-specification:'Poppins Medium'"><tspan x="2506" y="10506" class="TextPosition" style="-inkscape-font-specification:'Poppins Medium'"><tspan style="-inkscape-font-specification:'Poppins Medium'">MOK</tspan></tspan></tspan></text>
        </g>
        <g class="com.sun.star.drawing.TextShape" transform="translate(317.5 952.5)">
            <rect width="1801" height="1302" x="18900" y="3965" fill="none" class="BoundingBox"/>
            <text class="TextShape" font-family="Poppins" font-weight="500" style="-inkscape-font-specification:'Poppins Medium'"><tspan class="TextParagraph" font-size="388" style="-inkscape-font-specification:'Poppins Medium'"><tspan x="19150" y="4505" class="TextPosition" style="-inkscape-font-specification:'Poppins Medium'"><tspan style="-inkscape-font-specification:'Poppins Medium'">Boot</tspan></tspan></tspan><tspan class="TextParagraph" font-size="388" style="-inkscape-font-specification:'Poppins Medium'"><tspan x="19150" y="5030" class="TextPosition" style="-inkscape-font-specification:'Poppins Medium'"><tspan style="-inkscape-font-specification:'Poppins Medium'">var</tspan></tspan></tspan></text>
        </g>
        <g class="com.sun.star.drawing.TextShape" transform="translate(0 740.83)">
            <rect width="1396" height="777" x="2256" y="14466" fill="none" class="BoundingBox"/>
            <text class="TextShape" font-family="Poppins" font-weight="500" style="-inkscape-font-specification:'Poppins Medium'"><tspan class="TextParagraph" font-size="388" style="-inkscape-font-specification:'Poppins Medium'"><tspan x="2507" y="15006" class="TextPosition" style="-inkscape-font-specification:'Poppins Medium'"><tspan style="-inkscape-font-specification:'Poppins Medium'">MOK</tspan></tspan></tspan></text>
        </g>
        <rect width="4593.67" height="3175" x="12710.08" y="5556.25" fill="#dedfe0" opacity=".99" paint-order="stroke fill markers"/>
        <text xml:space="preserve" x="13890.9" y="6614.59" stroke-width="746.71" font-family="Poppins" font-size="529.17" font-weight="500" letter-spacing="0" style="line-height:1.25;-inkscape-font-specification:'Poppins, Medium'"><tspan x="13890.9" y="6614.59" fill="#505050">MOK List</tspan></text>
        <g stroke="#30ba78" stroke-width="4.32" transform="translate(11683.57 -989.12) scale(32.1597)">
            <rect width="30" height="20" x="161.21" y="195.27" fill="#30ba78" class="st0"/>
            <path fill="none" d="M176.21 179.14a6.2 6.2 0 0 0-6.2 6.2v9.31h12.41v-9.3a6.2 6.2 0 0 0-6.2-6.21z" class="st0"/>
        </g>
        <path fill="none" stroke="#30ba78" stroke-linejoin="miter" stroke-width="148.71" d="m14087.01 8027.85 141.05-110.77m-379.75-197.8 379.15 482.8 197.83-154.84m-558.42-590.21a172.08 171.17 51.86 0 1-28.34 241.06 172.08 171.17 51.86 0 1-240.9-29.62 172.08 171.17 51.86 0 1 28.34-241.06 172.08 171.17 51.86 0 1 240.9 29.62zm1225.56 570.82 141.05-110.77m-379.76-197.8 379.16 482.8 197.83-154.84m-558.42-590.21a172.08 171.17 51.86 0 1-28.34 241.06 172.08 171.17 51.86 0 1-240.9-29.62 172.08 171.17 51.86 0 1 28.34-241.06 172.08 171.17 51.86 0 1 240.9 29.62zm1225.56 570.82 141.05-110.77m-379.76-197.8 379.16 482.8 197.82-154.84m-558.41-590.21a172.08 171.17 51.86 0 1-28.34 241.06 172.08 171.17 51.86 0 1-240.9-29.62 172.08 171.17 51.86 0 1 28.34-241.06 172.08 171.17 51.86 0 1 240.9 29.62z" opacity=".99"/>
        <path fill="none" stroke="#505050" stroke-linejoin="miter" stroke-width="95.25" marker-end="url(#marker88387772776)" marker-start="url(#a)" d="M8995.83 7143.75h3439.59"/>
        <path fill="none" stroke="#505050" stroke-linejoin="miter" stroke-width="63.5" marker-end="url(#b)" d="M19314.58 5556.25h-1058.33"/>
        <g transform="translate(-2910.42)">
            <rect width="3175" height="1852.08" x="8466.67" y="15610.42" fill="#dedfe0" opacity=".99" paint-order="stroke fill markers"/>
            <text xml:space="preserve" x="9272.84" y="16716.97" stroke-width="26.46" font-family="Poppins" font-size="493.89" font-weight="500" letter-spacing="0" style="line-height:1.25;-inkscape-font-specification:'Poppins, Medium'"><tspan x="9272.84" y="16716.97" fill="#505050">Kernel</tspan></text>
            <g stroke="#30ba78" stroke-width="4.32" transform="translate(2846.48 8951) scale(32.1597)">
                <rect width="30" height="20" x="161.21" y="195.27" fill="#30ba78" class="st0"/>
                <path fill="none" d="M176.21 179.14a6.2 6.2 0 0 0-6.2 6.2v9.31h12.41v-9.3a6.2 6.2 0 0 0-6.2-6.21z" class="st0"/>
            </g>
        </g>
        <g transform="translate(-2910.42 -4497.92)">
            <rect width="3175" height="1852.08" x="8466.67" y="15610.42" fill="#dedfe0" opacity=".99" paint-order="stroke fill markers"/>
            <text xml:space="preserve" x="9239.5" y="16716.97" stroke-width="26.46" font-family="Poppins" font-size="493.89" font-weight="500" letter-spacing="0" style="line-height:1.25;-inkscape-font-specification:'Poppins, Medium'"><tspan x="9239.5" y="16716.97" fill="#505050">GRUB2</tspan></text>
            <g stroke="#30ba78" stroke-width="4.32" transform="translate(2846.48 8951) scale(32.1597)">
                <rect width="30" height="20" x="161.21" y="195.27" fill="#30ba78" class="st0"/>
                <path fill="none" d="M176.21 179.14a6.2 6.2 0 0 0-6.2 6.2v9.31h12.41v-9.3a6.2 6.2 0 0 0-6.2-6.21z" class="st0"/>
            </g>
        </g>
        <g transform="translate(-2910.42 -10107.08)">
            <rect width="3175" height="3175" x="8466.67" y="15610.42" fill="#dedfe0" opacity=".99" paint-order="stroke fill markers"/>
            <text xml:space="preserve" x="9425.94" y="16716.97" stroke-width="26.46" font-family="Poppins" font-size="493.89" font-weight="500" letter-spacing="0" style="line-height:1.25;-inkscape-font-specification:'Poppins, Medium'"><tspan x="9425.94" y="16716.97" fill="#505050">Shim</tspan></text>
            <g stroke="#30ba78" stroke-width="4.32" transform="translate(2846.48 8951) scale(32.1597)">
                <rect width="30" height="20" x="161.21" y="195.27" fill="#30ba78" class="st0"/>
                <path fill="none" d="M176.21 179.14a6.2 6.2 0 0 0-6.2 6.2v9.31h12.41v-9.3a6.2 6.2 0 0 0-6.2-6.21z" class="st0"/>
            </g>
        </g>
        <g transform="translate(-2910.42 -14552.08)">
            <rect width="3175" height="1852.08" x="8466.67" y="15610.42" fill="#dedfe0" opacity=".99" paint-order="stroke fill markers"/>
            <text xml:space="preserve" x="9203.94" y="16716.97" stroke-width="26.46" font-family="Poppins" font-size="493.89" font-weight="500" letter-spacing="0" style="line-height:1.25;-inkscape-font-specification:'Poppins, Medium'"><tspan x="9203.94" y="16716.97" fill="#505050">KEK db</tspan></text>
            <g stroke="#30ba78" stroke-width="4.32" transform="translate(2846.48 8951) scale(32.1597)">
                <rect width="30" height="20" x="161.21" y="195.27" fill="#30ba78" class="st0"/>
                <path fill="none" d="M176.21 179.14a6.2 6.2 0 0 0-6.2 6.2v9.31h12.41v-9.3a6.2 6.2 0 0 0-6.2-6.21z" class="st0"/>
            </g>
        </g>
        <path fill="none" stroke="#505050" stroke-linejoin="miter" stroke-width="95.25" marker-end="url(#c)" d="M7143.75 3069.17v2222.5"/>
        <path fill="none" stroke="#505050" stroke-linejoin="miter" stroke-width="95.25" marker-end="url(#d)" d="M7143.75 8995.83v1852.09"/>
        <path fill="none" stroke="#505050" stroke-linejoin="miter" stroke-width="95.25" marker-end="url(#e)" d="M7143.75 13229.17v2116.66"/>
        <path fill="none" stroke="#505050" stroke-linejoin="miter" stroke-width="52.92" marker-end="url(#f)" d="M3704.17 1058.33H4762.5"/>
        <path fill="none" stroke="#505050" stroke-linejoin="miter" stroke-width="52.92" marker-end="url(#g)" d="M3704.17 5291.67H4762.5"/>
        <path fill="none" stroke="#505050" stroke-linejoin="miter" stroke-width="52.92" marker-end="url(#h)" d="M3704.17 7408.33h2381.25"/>
        <path fill="none" stroke="#505050" stroke-linejoin="miter" stroke-width="52.92" marker-end="url(#i)" d="M3704.17 11112.5H4762.5"/>
        <path fill="none" stroke="#505050" stroke-linejoin="miter" stroke-width="52.92" marker-end="url(#j)" d="M3704.17 15610.42H4762.5"/>
    </g>
    <path fill="none" stroke="#30ba78" stroke-linejoin="miter" stroke-width="181.03" d="m7285.76 7848.48 165.56-142.33m-472.53-220.05 487.2 566.7 232.22-199m-711-687.63a209.48 208.37 49.31 0 1-21.44 294.69 209.48 208.37 49.31 0 1-294.58-23.01 209.48 208.37 49.31 0 1 21.45-294.7 209.48 208.37 49.31 0 1 294.57 23.02z" opacity=".99"/>
</svg>

