<?xml version="1.0" encoding="UTF-8" standalone="no"?>
<svg
   xmlns:dc="http://purl.org/dc/elements/1.1/"
   xmlns:cc="http://creativecommons.org/ns#"
   xmlns:rdf="http://www.w3.org/1999/02/22-rdf-syntax-ns#"
   xmlns:svg="http://www.w3.org/2000/svg"
   xmlns="http://www.w3.org/2000/svg"
   xmlns:sodipodi="http://sodipodi.sourceforge.net/DTD/sodipodi-0.dtd"
   xmlns:inkscape="http://www.inkscape.org/namespaces/inkscape"
   version="1.2"
   width="152.73999mm"
   height="169.67001mm"
   viewBox="0 0 15273.999 16967.001"
   preserveAspectRatio="xMidYMid"
   xml:space="preserve"
   id="svg2"
   inkscape:version="0.91 r13725"
   sodipodi:docname="vpn_bridged1.svg"
   style="fill-rule:evenodd;stroke-width:28.22200012;stroke-linejoin:round"><metadata
     id="metadata611"><rdf:RDF><cc:Work
         rdf:about=""><dc:format>image/svg+xml</dc:format><dc:type
           rdf:resource="http://purl.org/dc/dcmitype/StillImage" /><dc:title></dc:title></cc:Work></rdf:RDF></metadata><sodipodi:namedview
     pagecolor="#ffffff"
     bordercolor="#666666"
     borderopacity="1"
     objecttolerance="10"
     gridtolerance="10"
     guidetolerance="10"
     inkscape:pageopacity="0"
     inkscape:pageshadow="2"
     inkscape:window-width="1920"
     inkscape:window-height="1015"
     id="namedview609"
     showgrid="false"
     fit-margin-top="0"
     fit-margin-left="0"
     fit-margin-right="0"
     fit-margin-bottom="0"
     inkscape:zoom="0.26641778"
     inkscape:cx="270.99213"
     inkscape:cy="311.66933"
     inkscape:window-x="0"
     inkscape:window-y="0"
     inkscape:window-maximized="1"
     inkscape:current-layer="svg2" /><defs
     class="ClipPathGroup"
     id="defs4"><clipPath
       id="presentation_clip_path"
       clipPathUnits="userSpaceOnUse"><rect
         x="0"
         y="0"
         width="21000"
         height="25000"
         id="rect7" /></clipPath></defs><defs
     id="defs12" /><defs
     id="defs81" /><defs
     class="TextShapeIndex"
     id="defs108" /><defs
     class="EmbeddedBulletChars"
     id="defs112" /><defs
     class="TextEmbeddedBitmaps"
     id="defs144" /><g
     id="g146"
     transform="translate(-2852,-4329)"><g
       id="id2"
       class="Master_Slide"><g
         id="bg-id2"
         class="Background" /><g
         id="bo-id2"
         class="BackgroundObjects" /></g></g><g
     class="SlideGroup"
     id="g151"
     transform="translate(-2852,-4329)"><g
       id="g153"><g
         id="container-id1"><g
           id="id1"
           class="Slide"
           clip-path="url(#presentation_clip_path)"><g
             class="Page"
             id="g157"><g
               class="Group"
               id="g159"><g
                 class="com.sun.star.drawing.CustomShape"
                 id="g161"><g
                   id="id3"><rect
                     class="BoundingBox"
                     x="14625"
                     y="6455"
                     width="3002"
                     height="892"
                     id="rect164"
                     style="fill:none;stroke:none" /><path
                     d="m 17520,6455 0,0 c -2794,0 -2794,0 -2794,0 -57,0 -101,52 -101,112 0,662 0,662 0,662 0,60 44,112 101,112 2794,0 2794,0 2794,0 57,0 101,-52 101,-112 0,-662 0,-662 0,-662 0,-60 -44,-112 -101,-112 l 0,0 z m 12,774 0,0 c 0,16 -8,28 -12,28 -2794,0 -2794,0 -2794,0 -8,0 -16,-12 -16,-28 0,-662 0,-662 0,-662 0,-16 8,-24 16,-24 2794,0 2794,0 2794,0 4,0 12,8 12,24 l 0,662 0,0 z m -2907,-774 0,0 z m 3001,891 0,0 z"
                     id="path166"
                     inkscape:connector-curvature="0"
                     style="fill:#02d35f;stroke:none" /></g></g><g
                 class="com.sun.star.drawing.CustomShape"
                 id="g168"><g
                   id="id4"><rect
                     class="BoundingBox"
                     x="17053"
                     y="6651"
                     width="197"
                     height="196"
                     id="rect171"
                     style="fill:none;stroke:none" /><path
                     d="m 17212,6651 0,0 c -123,0 -123,0 -123,0 -24,0 -36,12 -36,36 0,122 0,122 0,122 0,16 12,32 36,32 123,0 123,0 123,0 16,0 32,-16 32,-32 0,-122 0,-122 0,-122 0,-24 -16,-36 -32,-36 z m -159,0 0,0 z m 196,195 0,0 z"
                     id="path173"
                     inkscape:connector-curvature="0"
                     style="fill:#02d35f;stroke:none" /></g></g><g
                 class="com.sun.star.drawing.CustomShape"
                 id="g175"><g
                   id="id5"><rect
                     class="BoundingBox"
                     x="16063"
                     y="6651"
                     width="196"
                     height="196"
                     id="rect178"
                     style="fill:none;stroke:none" /><path
                     d="m 16218,6651 0,0 c -116,0 -116,0 -116,0 -24,0 -39,12 -39,36 0,122 0,122 0,122 0,16 15,32 39,32 116,0 116,0 116,0 20,0 36,-16 36,-32 0,-122 0,-122 0,-122 0,-24 -16,-36 -36,-36 z m -155,0 0,0 z m 195,195 0,0 z"
                     id="path180"
                     inkscape:connector-curvature="0"
                     style="fill:#02d35f;stroke:none" /></g></g><g
                 class="com.sun.star.drawing.CustomShape"
                 id="g182"><g
                   id="id6"><rect
                     class="BoundingBox"
                     x="16729"
                     y="6651"
                     width="196"
                     height="196"
                     id="rect185"
                     style="fill:none;stroke:none" /><path
                     d="m 16884,6651 0,0 c -120,0 -120,0 -120,0 -20,0 -35,12 -35,36 0,122 0,122 0,122 0,16 15,32 35,32 120,0 120,0 120,0 16,0 36,-16 36,-32 0,-122 0,-122 0,-122 0,-24 -20,-36 -36,-36 z m -155,0 0,0 z m 195,195 0,0 z"
                     id="path187"
                     inkscape:connector-curvature="0"
                     style="fill:#02d35f;stroke:none" /></g></g><g
                 class="com.sun.star.drawing.CustomShape"
                 id="g189"><g
                   id="id7"><rect
                     class="BoundingBox"
                     x="16403"
                     y="6651"
                     width="197"
                     height="196"
                     id="rect192"
                     style="fill:none;stroke:none" /><path
                     d="m 16562,6651 0,0 c -119,0 -119,0 -119,0 -24,0 -40,12 -40,36 0,122 0,122 0,122 0,16 16,32 40,32 119,0 119,0 119,0 20,0 32,-16 32,-32 0,-122 0,-122 0,-122 0,-24 -12,-36 -32,-36 z m -159,0 0,0 z m 196,195 0,0 z"
                     id="path194"
                     inkscape:connector-curvature="0"
                     style="fill:#02d35f;stroke:none" /></g></g><g
                 class="com.sun.star.drawing.CustomShape"
                 id="g196"><g
                   id="id8"><rect
                     class="BoundingBox"
                     x="15416"
                     y="6651"
                     width="196"
                     height="196"
                     id="rect199"
                     style="fill:none;stroke:none" /><path
                     d="m 15567,6651 0,0 c -116,0 -116,0 -116,0 -20,0 -35,12 -35,36 0,122 0,122 0,122 0,16 15,32 35,32 116,0 116,0 116,0 24,0 40,-16 40,-32 0,-122 0,-122 0,-122 0,-24 -16,-36 -40,-36 z m -151,0 0,0 z m 195,195 0,0 z"
                     id="path201"
                     inkscape:connector-curvature="0"
                     style="fill:#02d35f;stroke:none" /></g></g><g
                 class="com.sun.star.drawing.CustomShape"
                 id="g203"><g
                   id="id9"><rect
                     class="BoundingBox"
                     x="14877"
                     y="6704"
                     width="394"
                     height="107"
                     id="rect206"
                     style="fill:none;stroke:none" /><path
                     d="m 14877,6805 388,0 0,-101 -388,0 0,101 z m 0,-101 0,0 z m 393,106 0,0 z"
                     id="path208"
                     inkscape:connector-curvature="0"
                     style="fill:#02d35f;stroke:none" /></g></g><g
                 class="com.sun.star.drawing.CustomShape"
                 id="g210"><g
                   id="id10"><rect
                     class="BoundingBox"
                     x="15741"
                     y="6651"
                     width="196"
                     height="196"
                     id="rect213"
                     style="fill:none;stroke:none" /><path
                     d="m 15893,6651 0,0 c -113,0 -113,0 -113,0 -20,0 -39,12 -39,36 0,122 0,122 0,122 0,16 19,32 39,32 113,0 113,0 113,0 19,0 39,-16 39,-32 0,-122 0,-122 0,-122 0,-24 -20,-36 -39,-36 z m -152,0 0,0 z m 195,195 0,0 z"
                     id="path215"
                     inkscape:connector-curvature="0"
                     style="fill:#02d35f;stroke:none" /></g></g><g
                 class="com.sun.star.drawing.CustomShape"
                 id="g217"><g
                   id="id11"><rect
                     class="BoundingBox"
                     x="17053"
                     y="6936"
                     width="197"
                     height="196"
                     id="rect220"
                     style="fill:none;stroke:none" /><path
                     d="m 17212,6936 0,0 c -123,0 -123,0 -123,0 -24,0 -36,15 -36,35 0,120 0,120 0,120 0,20 12,36 36,36 123,0 123,0 123,0 16,0 32,-16 32,-36 0,-120 0,-120 0,-120 0,-20 -16,-35 -32,-35 z m -159,0 0,0 z m 196,195 0,0 z"
                     id="path222"
                     inkscape:connector-curvature="0"
                     style="fill:#02d35f;stroke:none" /></g></g><g
                 class="com.sun.star.drawing.CustomShape"
                 id="g224"><g
                   id="id12"><rect
                     class="BoundingBox"
                     x="16063"
                     y="6936"
                     width="196"
                     height="196"
                     id="rect227"
                     style="fill:none;stroke:none" /><path
                     d="m 16218,6936 0,0 c -116,0 -116,0 -116,0 -24,0 -39,15 -39,35 0,120 0,120 0,120 0,20 15,36 39,36 116,0 116,0 116,0 20,0 36,-16 36,-36 0,-120 0,-120 0,-120 0,-20 -16,-35 -36,-35 z m -155,0 0,0 z m 195,195 0,0 z"
                     id="path229"
                     inkscape:connector-curvature="0"
                     style="fill:#02d35f;stroke:none" /></g></g><g
                 class="com.sun.star.drawing.CustomShape"
                 id="g231"><g
                   id="id13"><rect
                     class="BoundingBox"
                     x="16729"
                     y="6936"
                     width="196"
                     height="196"
                     id="rect234"
                     style="fill:none;stroke:none" /><path
                     d="m 16884,6936 0,0 c -120,0 -120,0 -120,0 -20,0 -35,15 -35,35 0,120 0,120 0,120 0,20 15,36 35,36 120,0 120,0 120,0 16,0 36,-16 36,-36 0,-120 0,-120 0,-120 0,-20 -20,-35 -36,-35 z m -155,0 0,0 z m 195,195 0,0 z"
                     id="path236"
                     inkscape:connector-curvature="0"
                     style="fill:#02d35f;stroke:none" /></g></g><g
                 class="com.sun.star.drawing.CustomShape"
                 id="g238"><g
                   id="id14"><rect
                     class="BoundingBox"
                     x="16403"
                     y="6936"
                     width="197"
                     height="196"
                     id="rect241"
                     style="fill:none;stroke:none" /><path
                     d="m 16562,6936 0,0 c -119,0 -119,0 -119,0 -24,0 -40,15 -40,35 0,120 0,120 0,120 0,20 16,36 40,36 119,0 119,0 119,0 20,0 32,-16 32,-36 0,-120 0,-120 0,-120 0,-20 -12,-35 -32,-35 z m -159,0 0,0 z m 196,195 0,0 z"
                     id="path243"
                     inkscape:connector-curvature="0"
                     style="fill:#02d35f;stroke:none" /></g></g><g
                 class="com.sun.star.drawing.CustomShape"
                 id="g245"><g
                   id="id15"><rect
                     class="BoundingBox"
                     x="15416"
                     y="6936"
                     width="196"
                     height="196"
                     id="rect248"
                     style="fill:none;stroke:none" /><path
                     d="m 15567,6936 0,0 c -116,0 -116,0 -116,0 -20,0 -35,15 -35,35 0,120 0,120 0,120 0,20 15,36 35,36 116,0 116,0 116,0 24,0 40,-16 40,-36 0,-120 0,-120 0,-120 0,-20 -16,-35 -40,-35 z m -151,0 0,0 z m 195,195 0,0 z"
                     id="path250"
                     inkscape:connector-curvature="0"
                     style="fill:#02d35f;stroke:none" /></g></g><g
                 class="com.sun.star.drawing.CustomShape"
                 id="g252"><g
                   id="id16"><rect
                     class="BoundingBox"
                     x="15741"
                     y="6936"
                     width="196"
                     height="196"
                     id="rect255"
                     style="fill:none;stroke:none" /><path
                     d="m 15893,6936 0,0 c -113,0 -113,0 -113,0 -20,0 -39,15 -39,35 0,120 0,120 0,120 0,20 19,36 39,36 113,0 113,0 113,0 19,0 39,-16 39,-36 0,-120 0,-120 0,-120 0,-20 -20,-35 -39,-35 z m -152,0 0,0 z m 195,195 0,0 z"
                     id="path257"
                     inkscape:connector-curvature="0"
                     style="fill:#02d35f;stroke:none" /></g></g></g><g
               class="Group"
               id="g259"><g
                 class="com.sun.star.drawing.CustomShape"
                 id="g261"><g
                   id="id17"><rect
                     class="BoundingBox"
                     x="4523"
                     y="5400"
                     width="3002"
                     height="3002"
                     id="rect264"
                     style="fill:none;stroke:none" /><path
                     d="m 7271,5695 0,0 c -1555,0 -1555,0 -1555,0 0,-244 0,-244 0,-244 0,-33 -18,-51 -46,-51 -1096,0 -1096,0 -1096,0 -28,0 -51,18 -51,51 0,2898 0,2898 0,2898 0,23 23,47 51,47 1049,0 1049,0 1049,0 47,0 47,0 47,0 683,0 683,0 683,0 14,0 38,-5 42,-19 10,-14 14,-28 10,-37 -94,-441 -94,-441 -94,-441 960,0 960,0 960,0 103,0 248,-117 248,-235 0,-1683 0,-1683 0,-1683 0,-117 -84,-286 -248,-286 l 0,0 z m -1648,2602 0,0 c -1002,0 -1002,0 -1002,0 0,-698 0,-698 0,-698 1002,0 1002,0 1002,0 l 0,698 0,0 z m 0,-801 0,0 c -1002,0 -1002,0 -1002,0 0,-1998 0,-1998 0,-1998 1002,0 1002,0 1002,0 l 0,1998 0,0 z m 93,801 0,0 c 0,-398 0,-398 0,-398 492,0 492,0 492,0 84,398 84,398 84,398 l -576,0 0,0 z m 1700,-633 0,0 c 0,52 -89,136 -145,136 -1026,0 -1026,0 -1026,0 -529,0 -529,0 -529,0 0,-304 0,-304 0,-304 1700,0 1700,0 1700,0 l 0,168 0,0 z m 0,-267 0,0 c -1700,0 -1700,0 -1700,0 0,-1604 0,-1604 0,-1604 1555,0 1555,0 1555,0 107,0 145,132 145,188 l 0,1416 0,0 z m -2893,-1997 0,0 z m 3001,3001 0,0 z"
                     id="path266"
                     inkscape:connector-curvature="0"
                     style="fill:#02d35f;stroke:none" /></g></g><g
                 class="com.sun.star.drawing.CustomShape"
                 id="g268"><g
                   id="id18"><rect
                     class="BoundingBox"
                     x="4708"
                     y="6495"
                     width="804"
                     height="496"
                     id="rect271"
                     style="fill:none;stroke:none" /><path
                     d="m 4759,6985 0,0 c 695,0 695,0 695,0 28,0 52,-19 52,-46 0,-398 0,-398 0,-398 0,-23 -24,-46 -52,-46 -695,0 -695,0 -695,0 -28,0 -51,23 -51,46 0,398 0,398 0,398 0,27 23,46 51,46 l 0,0 z m 47,-393 0,0 c 602,0 602,0 602,0 0,101 0,101 0,101 -602,0 -602,0 -602,0 l 0,-101 0,0 z m 0,199 0,0 c 602,0 602,0 602,0 0,101 0,101 0,101 -602,0 -602,0 -602,0 l 0,-101 0,0 z m -98,-296 0,0 z m 803,495 0,0 z"
                     id="path273"
                     inkscape:connector-curvature="0"
                     style="fill:#02d35f;stroke:none" /></g></g><g
                 class="com.sun.star.drawing.CustomShape"
                 id="g275"><g
                   id="id19"><rect
                     class="BoundingBox"
                     x="4851"
                     y="7883"
                     width="122"
                     height="122"
                     id="rect278"
                     style="fill:none;stroke:none" /><path
                     d="m 4907,7999 0,0 c 34,0 60,-22 60,-58 0,-36 -26,-58 -60,-58 -31,0 -56,22 -56,58 0,36 25,58 56,58 z m -56,-116 0,0 z m 121,121 0,0 z"
                     id="path280"
                     inkscape:connector-curvature="0"
                     style="fill:#02d35f;stroke:none" /></g></g><g
                 class="com.sun.star.drawing.CustomShape"
                 id="g282"><g
                   id="id20"><rect
                     class="BoundingBox"
                     x="5247"
                     y="7883"
                     width="121"
                     height="122"
                     id="rect285"
                     style="fill:none;stroke:none" /><path
                     d="m 5309,7999 0,0 c 31,0 53,-22 53,-58 0,-36 -22,-58 -53,-58 -36,0 -62,22 -62,58 0,36 26,58 62,58 z m -62,-116 0,0 z m 120,121 0,0 z"
                     id="path287"
                     inkscape:connector-curvature="0"
                     style="fill:#02d35f;stroke:none" /></g></g></g><g
               class="Group"
               id="g289"><g
                 class="com.sun.star.drawing.CustomShape"
                 id="g291"><g
                   id="id21"><rect
                     class="BoundingBox"
                     x="14625"
                     y="17935"
                     width="3002"
                     height="892"
                     id="rect294"
                     style="fill:none;stroke:none" /><path
                     d="m 17520,17935 0,0 c -2794,0 -2794,0 -2794,0 -57,0 -101,52 -101,112 0,662 0,662 0,662 0,60 44,112 101,112 2794,0 2794,0 2794,0 57,0 101,-52 101,-112 0,-662 0,-662 0,-662 0,-60 -44,-112 -101,-112 l 0,0 z m 12,774 0,0 c 0,16 -8,28 -12,28 -2794,0 -2794,0 -2794,0 -8,0 -16,-12 -16,-28 0,-662 0,-662 0,-662 0,-16 8,-24 16,-24 2794,0 2794,0 2794,0 4,0 12,8 12,24 l 0,662 0,0 z m -2907,-774 0,0 z m 3001,891 0,0 z"
                     id="path296"
                     inkscape:connector-curvature="0"
                     style="fill:#02d35f;stroke:none" /></g></g><g
                 class="com.sun.star.drawing.CustomShape"
                 id="g298"><g
                   id="id22"><rect
                     class="BoundingBox"
                     x="17053"
                     y="18131"
                     width="197"
                     height="196"
                     id="rect301"
                     style="fill:none;stroke:none" /><path
                     d="m 17212,18131 0,0 c -123,0 -123,0 -123,0 -24,0 -36,12 -36,36 0,122 0,122 0,122 0,16 12,32 36,32 123,0 123,0 123,0 16,0 32,-16 32,-32 0,-122 0,-122 0,-122 0,-24 -16,-36 -32,-36 z m -159,0 0,0 z m 196,195 0,0 z"
                     id="path303"
                     inkscape:connector-curvature="0"
                     style="fill:#02d35f;stroke:none" /></g></g><g
                 class="com.sun.star.drawing.CustomShape"
                 id="g305"><g
                   id="id23"><rect
                     class="BoundingBox"
                     x="16063"
                     y="18131"
                     width="196"
                     height="196"
                     id="rect308"
                     style="fill:none;stroke:none" /><path
                     d="m 16218,18131 0,0 c -116,0 -116,0 -116,0 -24,0 -39,12 -39,36 0,122 0,122 0,122 0,16 15,32 39,32 116,0 116,0 116,0 20,0 36,-16 36,-32 0,-122 0,-122 0,-122 0,-24 -16,-36 -36,-36 z m -155,0 0,0 z m 195,195 0,0 z"
                     id="path310"
                     inkscape:connector-curvature="0"
                     style="fill:#02d35f;stroke:none" /></g></g><g
                 class="com.sun.star.drawing.CustomShape"
                 id="g312"><g
                   id="id24"><rect
                     class="BoundingBox"
                     x="16729"
                     y="18131"
                     width="196"
                     height="196"
                     id="rect315"
                     style="fill:none;stroke:none" /><path
                     d="m 16884,18131 0,0 c -120,0 -120,0 -120,0 -20,0 -35,12 -35,36 0,122 0,122 0,122 0,16 15,32 35,32 120,0 120,0 120,0 16,0 36,-16 36,-32 0,-122 0,-122 0,-122 0,-24 -20,-36 -36,-36 z m -155,0 0,0 z m 195,195 0,0 z"
                     id="path317"
                     inkscape:connector-curvature="0"
                     style="fill:#02d35f;stroke:none" /></g></g><g
                 class="com.sun.star.drawing.CustomShape"
                 id="g319"><g
                   id="id25"><rect
                     class="BoundingBox"
                     x="16403"
                     y="18131"
                     width="197"
                     height="196"
                     id="rect322"
                     style="fill:none;stroke:none" /><path
                     d="m 16562,18131 0,0 c -119,0 -119,0 -119,0 -24,0 -40,12 -40,36 0,122 0,122 0,122 0,16 16,32 40,32 119,0 119,0 119,0 20,0 32,-16 32,-32 0,-122 0,-122 0,-122 0,-24 -12,-36 -32,-36 z m -159,0 0,0 z m 196,195 0,0 z"
                     id="path324"
                     inkscape:connector-curvature="0"
                     style="fill:#02d35f;stroke:none" /></g></g><g
                 class="com.sun.star.drawing.CustomShape"
                 id="g326"><g
                   id="id26"><rect
                     class="BoundingBox"
                     x="15416"
                     y="18131"
                     width="196"
                     height="196"
                     id="rect329"
                     style="fill:none;stroke:none" /><path
                     d="m 15567,18131 0,0 c -116,0 -116,0 -116,0 -20,0 -35,12 -35,36 0,122 0,122 0,122 0,16 15,32 35,32 116,0 116,0 116,0 24,0 40,-16 40,-32 0,-122 0,-122 0,-122 0,-24 -16,-36 -40,-36 z m -151,0 0,0 z m 195,195 0,0 z"
                     id="path331"
                     inkscape:connector-curvature="0"
                     style="fill:#02d35f;stroke:none" /></g></g><g
                 class="com.sun.star.drawing.CustomShape"
                 id="g333"><g
                   id="id27"><rect
                     class="BoundingBox"
                     x="14877"
                     y="18184"
                     width="394"
                     height="107"
                     id="rect336"
                     style="fill:none;stroke:none" /><path
                     d="m 14877,18285 388,0 0,-101 -388,0 0,101 z m 0,-101 0,0 z m 393,106 0,0 z"
                     id="path338"
                     inkscape:connector-curvature="0"
                     style="fill:#02d35f;stroke:none" /></g></g><g
                 class="com.sun.star.drawing.CustomShape"
                 id="g340"><g
                   id="id28"><rect
                     class="BoundingBox"
                     x="15741"
                     y="18131"
                     width="196"
                     height="196"
                     id="rect343"
                     style="fill:none;stroke:none" /><path
                     d="m 15893,18131 0,0 c -113,0 -113,0 -113,0 -20,0 -39,12 -39,36 0,122 0,122 0,122 0,16 19,32 39,32 113,0 113,0 113,0 19,0 39,-16 39,-32 0,-122 0,-122 0,-122 0,-24 -20,-36 -39,-36 z m -152,0 0,0 z m 195,195 0,0 z"
                     id="path345"
                     inkscape:connector-curvature="0"
                     style="fill:#02d35f;stroke:none" /></g></g><g
                 class="com.sun.star.drawing.CustomShape"
                 id="g347"><g
                   id="id29"><rect
                     class="BoundingBox"
                     x="17053"
                     y="18416"
                     width="197"
                     height="196"
                     id="rect350"
                     style="fill:none;stroke:none" /><path
                     d="m 17212,18416 0,0 c -123,0 -123,0 -123,0 -24,0 -36,15 -36,35 0,120 0,120 0,120 0,20 12,36 36,36 123,0 123,0 123,0 16,0 32,-16 32,-36 0,-120 0,-120 0,-120 0,-20 -16,-35 -32,-35 z m -159,0 0,0 z m 196,195 0,0 z"
                     id="path352"
                     inkscape:connector-curvature="0"
                     style="fill:#02d35f;stroke:none" /></g></g><g
                 class="com.sun.star.drawing.CustomShape"
                 id="g354"><g
                   id="id30"><rect
                     class="BoundingBox"
                     x="16063"
                     y="18416"
                     width="196"
                     height="196"
                     id="rect357"
                     style="fill:none;stroke:none" /><path
                     d="m 16218,18416 0,0 c -116,0 -116,0 -116,0 -24,0 -39,15 -39,35 0,120 0,120 0,120 0,20 15,36 39,36 116,0 116,0 116,0 20,0 36,-16 36,-36 0,-120 0,-120 0,-120 0,-20 -16,-35 -36,-35 z m -155,0 0,0 z m 195,195 0,0 z"
                     id="path359"
                     inkscape:connector-curvature="0"
                     style="fill:#02d35f;stroke:none" /></g></g><g
                 class="com.sun.star.drawing.CustomShape"
                 id="g361"><g
                   id="id31"><rect
                     class="BoundingBox"
                     x="16729"
                     y="18416"
                     width="196"
                     height="196"
                     id="rect364"
                     style="fill:none;stroke:none" /><path
                     d="m 16884,18416 0,0 c -120,0 -120,0 -120,0 -20,0 -35,15 -35,35 0,120 0,120 0,120 0,20 15,36 35,36 120,0 120,0 120,0 16,0 36,-16 36,-36 0,-120 0,-120 0,-120 0,-20 -20,-35 -36,-35 z m -155,0 0,0 z m 195,195 0,0 z"
                     id="path366"
                     inkscape:connector-curvature="0"
                     style="fill:#02d35f;stroke:none" /></g></g><g
                 class="com.sun.star.drawing.CustomShape"
                 id="g368"><g
                   id="id32"><rect
                     class="BoundingBox"
                     x="16403"
                     y="18416"
                     width="197"
                     height="196"
                     id="rect371"
                     style="fill:none;stroke:none" /><path
                     d="m 16562,18416 0,0 c -119,0 -119,0 -119,0 -24,0 -40,15 -40,35 0,120 0,120 0,120 0,20 16,36 40,36 119,0 119,0 119,0 20,0 32,-16 32,-36 0,-120 0,-120 0,-120 0,-20 -12,-35 -32,-35 z m -159,0 0,0 z m 196,195 0,0 z"
                     id="path373"
                     inkscape:connector-curvature="0"
                     style="fill:#02d35f;stroke:none" /></g></g><g
                 class="com.sun.star.drawing.CustomShape"
                 id="g375"><g
                   id="id33"><rect
                     class="BoundingBox"
                     x="15416"
                     y="18416"
                     width="196"
                     height="196"
                     id="rect378"
                     style="fill:none;stroke:none" /><path
                     d="m 15567,18416 0,0 c -116,0 -116,0 -116,0 -20,0 -35,15 -35,35 0,120 0,120 0,120 0,20 15,36 35,36 116,0 116,0 116,0 24,0 40,-16 40,-36 0,-120 0,-120 0,-120 0,-20 -16,-35 -40,-35 z m -151,0 0,0 z m 195,195 0,0 z"
                     id="path380"
                     inkscape:connector-curvature="0"
                     style="fill:#02d35f;stroke:none" /></g></g><g
                 class="com.sun.star.drawing.CustomShape"
                 id="g382"><g
                   id="id34"><rect
                     class="BoundingBox"
                     x="15741"
                     y="18416"
                     width="196"
                     height="196"
                     id="rect385"
                     style="fill:none;stroke:none" /><path
                     d="m 15893,18416 0,0 c -113,0 -113,0 -113,0 -20,0 -39,15 -39,35 0,120 0,120 0,120 0,20 19,36 39,36 113,0 113,0 113,0 19,0 39,-16 39,-36 0,-120 0,-120 0,-120 0,-20 -20,-35 -39,-35 z m -152,0 0,0 z m 195,195 0,0 z"
                     id="path387"
                     inkscape:connector-curvature="0"
                     style="fill:#02d35f;stroke:none" /></g></g></g><g
               class="com.sun.star.drawing.CustomShape"
               id="g389"><g
                 id="id35"><rect
                   class="BoundingBox"
                   x="14625"
                   y="11061"
                   width="3002"
                   height="1742"
                   id="rect392"
                   style="fill:none;stroke:none" /><path
                   d="m 16951,11473 0,0 c -59,0 -115,11 -174,26 -104,-262 -356,-438 -637,-438 -334,0 -611,239 -671,559 -78,-29 -148,-44 -226,-44 -341,0 -618,276 -618,611 0,305 229,563 537,607 1845,4 1845,4 1845,4 344,-26 615,-317 615,-659 0,-368 -300,-666 -671,-666 l 0,0 z m 52,1240 0,0 c -1838,-4 -1838,-4 -1838,-4 -259,-36 -455,-261 -455,-522 0,-291 241,-527 533,-527 82,0 163,23 241,59 15,11 30,11 41,0 11,-7 18,-18 22,-33 30,-305 285,-537 593,-537 259,0 489,165 567,419 3,8 14,19 26,23 7,7 22,7 29,3 67,-22 126,-33 189,-33 326,0 586,261 586,578 0,298 -238,548 -534,574 l 0,0 z m -2378,-1652 0,0 z m 3001,1741 0,0 z"
                   id="path394"
                   inkscape:connector-curvature="0"
                   style="fill:#02d35f;stroke:none" /></g></g><g
               class="Group"
               id="g396"><g
                 class="com.sun.star.drawing.CustomShape"
                 id="g398"><g
                   id="id36"><rect
                     class="BoundingBox"
                     x="4773"
                     y="16520"
                     width="2502"
                     height="3440"
                     id="rect401"
                     style="fill:none;stroke:none" /><path
                     d="m 5019,19953 0,0 c 1996,0 1996,0 1996,0 141,0 253,-110 253,-244 0,-2946 0,-2946 0,-2946 0,-133 -112,-243 -253,-243 -1996,0 -1996,0 -1996,0 -135,0 -246,110 -246,243 0,2946 0,2946 0,2946 0,134 111,244 246,244 l 0,0 z m -123,-3190 0,0 c 0,-64 58,-122 123,-122 1996,0 1996,0 1996,0 71,0 123,58 123,122 0,2946 0,2946 0,2946 0,70 -52,122 -123,122 -1996,0 -1996,0 -1996,0 -65,0 -123,-52 -123,-122 l 0,-2946 0,0 z m -123,-243 0,0 z m 2501,3439 0,0 z"
                     id="path403"
                     inkscape:connector-curvature="0"
                     style="fill:#02d35f;stroke:none" /></g></g><g
                 class="com.sun.star.drawing.CustomShape"
                 id="g405"><g
                   id="id37"><rect
                     class="BoundingBox"
                     x="5368"
                     y="17161"
                     width="1288"
                     height="125"
                     id="rect408"
                     style="fill:none;stroke:none" /><path
                     d="m 5426,17279 0,0 c 1164,0 1164,0 1164,0 29,0 59,-23 59,-56 0,-34 -30,-62 -59,-62 -1164,0 -1164,0 -1164,0 -35,0 -58,28 -58,62 0,33 23,56 58,56 z m -58,-118 0,0 z m 1287,124 0,0 z"
                     id="path410"
                     inkscape:connector-curvature="0"
                     style="fill:#02d35f;stroke:none" /></g></g><g
                 class="com.sun.star.drawing.CustomShape"
                 id="g412"><g
                   id="id38"><rect
                     class="BoundingBox"
                     x="6398"
                     y="20118"
                     width="437"
                     height="125"
                     id="rect415"
                     style="fill:none;stroke:none" /><path
                     d="m 6828,20179 0,0 c 0,-34 -34,-61 -68,-61 -306,0 -306,0 -306,0 -34,0 -56,27 -56,61 0,28 22,56 56,56 306,0 306,0 306,0 34,0 68,-28 68,-56 z m -430,-61 0,0 z m 436,123 0,0 z"
                     id="path417"
                     inkscape:connector-curvature="0"
                     style="fill:#02d35f;stroke:none" /></g></g><g
                 class="com.sun.star.drawing.CustomShape"
                 id="g419"><g
                   id="id39"><rect
                     class="BoundingBox"
                     x="5185"
                     y="20118"
                     width="435"
                     height="125"
                     id="rect422"
                     style="fill:none;stroke:none" /><path
                     d="m 5247,20235 0,0 c 304,0 304,0 304,0 39,0 62,-28 62,-56 0,-34 -23,-61 -62,-61 -304,0 -304,0 -304,0 -34,0 -62,27 -62,61 0,28 28,56 62,56 z m -62,-117 0,0 z m 434,123 0,0 z"
                     id="path424"
                     inkscape:connector-curvature="0"
                     style="fill:#02d35f;stroke:none" /></g></g><g
                 class="com.sun.star.drawing.CustomShape"
                 id="g426"><g
                   id="id40"><rect
                     class="BoundingBox"
                     x="5368"
                     y="17576"
                     width="1288"
                     height="126"
                     id="rect429"
                     style="fill:none;stroke:none" /><path
                     d="m 5426,17695 0,0 c 1164,0 1164,0 1164,0 29,0 59,-29 59,-57 0,-40 -30,-62 -59,-62 -1164,0 -1164,0 -1164,0 -35,0 -58,22 -58,62 0,28 23,57 58,57 z m -58,-119 0,0 z m 1287,125 0,0 z"
                     id="path431"
                     inkscape:connector-curvature="0"
                     style="fill:#02d35f;stroke:none" /></g></g><g
                 class="com.sun.star.drawing.CustomShape"
                 id="g433"><g
                   id="id41"><rect
                     class="BoundingBox"
                     x="5368"
                     y="17987"
                     width="1288"
                     height="124"
                     id="rect436"
                     style="fill:none;stroke:none" /><path
                     d="m 5426,18104 0,0 c 1164,0 1164,0 1164,0 29,0 59,-28 59,-56 0,-34 -30,-61 -59,-61 -1164,0 -1164,0 -1164,0 -35,0 -58,27 -58,61 0,28 23,56 58,56 z m -58,-117 0,0 z m 1287,123 0,0 z"
                     id="path438"
                     inkscape:connector-curvature="0"
                     style="fill:#02d35f;stroke:none" /></g></g></g><g
               class="com.sun.star.drawing.TextShape"
               id="g440"><g
                 id="id42"><rect
                   class="BoundingBox"
                   x="3473"
                   y="20329"
                   width="5101"
                   height="967"
                   id="rect443"
                   style="fill:none;stroke:none" /><text
                   class="TextShape"
                   id="text445"><tspan
                     class="TextParagraph"
                     font-size="529px"
                     font-weight="400"
                     id="tspan447"
                     style="font-weight:400;font-size:529px;font-family:'Open Sans', sans-serif"><tspan
                       class="TextPosition"
                       x="3723"
                       y="21017"
                       id="tspan449"><tspan
                         id="tspan451"
                         style="fill:#000000;stroke:none">Machine 1 (Server) </tspan></tspan></tspan></text>
</g></g><g
               class="com.sun.star.drawing.TextShape"
               id="g453"><g
                 id="id43"><rect
                   class="BoundingBox"
                   x="14125"
                   y="19000"
                   width="4001"
                   height="967"
                   id="rect456"
                   style="fill:none;stroke:none" /><text
                   class="TextShape"
                   id="text458"><tspan
                     class="TextParagraph"
                     font-size="529px"
                     font-weight="400"
                     id="tspan460"
                     style="font-weight:400;font-size:529px;font-family:'Open Sans', sans-serif"><tspan
                       class="TextPosition"
                       x="14375"
                       y="19688"
                       id="tspan462"><tspan
                         id="tspan464"
                         style="fill:#000000;stroke:none">Switch/Router</tspan></tspan></tspan></text>
</g></g><g
               class="com.sun.star.drawing.ConnectorShape"
               id="g466"><g
                 id="id44"><rect
                   class="BoundingBox"
                   x="7246"
                   y="18190"
                   width="7380"
                   height="381"
                   id="rect469"
                   style="fill:none;stroke:none" /><path
                   d="m 7273,18380 6809,0"
                   id="path471"
                   inkscape:connector-curvature="0"
                   style="fill:none;stroke:#000000;stroke-width:53;stroke-linejoin:round" /><path
                   d="m 14625,18380 -568,-189 0,379 568,-190 z"
                   id="path473"
                   inkscape:connector-curvature="0"
                   style="fill:#000000;stroke:none" /></g></g><g
               class="com.sun.star.drawing.TextShape"
               id="g475"><g
                 id="id45"><rect
                   class="BoundingBox"
                   x="10025"
                   y="17400"
                   width="1676"
                   height="967"
                   id="rect478"
                   style="fill:none;stroke:none" /><text
                   class="TextShape"
                   id="text480"><tspan
                     class="TextParagraph"
                     font-size="529px"
                     font-weight="400"
                     id="tspan482"
                     style="font-weight:400;font-size:529px;font-family:'Open Sans', sans-serif"><tspan
                       class="TextPosition"
                       x="10275"
                       y="18088"
                       id="tspan484"><tspan
                         id="tspan486"
                         style="fill:#000000;stroke:none">eth0</tspan></tspan></tspan></text>
</g></g><g
               class="com.sun.star.drawing.TextShape"
               id="g488"><g
                 id="id46"><rect
                   class="BoundingBox"
                   x="2852"
                   y="15429"
                   width="6344"
                   height="967"
                   id="rect491"
                   style="fill:none;stroke:none" /><text
                   class="TextShape"
                   id="text493"><tspan
                     class="TextParagraph"
                     font-size="529px"
                     font-weight="400"
                     id="tspan495"
                     style="font-weight:400;font-size:529px;font-family:'Open Sans', sans-serif"><tspan
                       class="TextPosition"
                       x="3102"
                       y="16117"
                       id="tspan497"><tspan
                         id="tspan499"
                         style="fill:#000000;stroke:none">tap0 (192.168.100.1/24)</tspan></tspan></tspan></text>
</g></g><g
               class="com.sun.star.drawing.TextShape"
               id="g501"><g
                 id="id47"><rect
                   class="BoundingBox"
                   x="3473"
                   y="4329"
                   width="5101"
                   height="967"
                   id="rect504"
                   style="fill:none;stroke:none" /><text
                   class="TextShape"
                   id="text506"><tspan
                     class="TextParagraph"
                     font-size="529px"
                     font-weight="400"
                     id="tspan508"
                     style="font-weight:400;font-size:529px;font-family:'Open Sans', sans-serif"><tspan
                       class="TextPosition"
                       x="3723"
                       y="5017"
                       id="tspan510"><tspan
                         id="tspan512"
                         style="fill:#000000;stroke:none">Machine 2 (Client) </tspan></tspan></tspan></text>
</g></g><g
               class="com.sun.star.drawing.TextShape"
               id="g514"><g
                 id="id48"><rect
                   class="BoundingBox"
                   x="2873"
                   y="8500"
                   width="6301"
                   height="967"
                   id="rect517"
                   style="fill:none;stroke:none" /><text
                   class="TextShape"
                   id="text519"><tspan
                     class="TextParagraph"
                     font-size="529px"
                     font-weight="400"
                     id="tspan521"
                     style="font-weight:400;font-size:529px;font-family:'Open Sans', sans-serif"><tspan
                       class="TextPosition"
                       x="3123"
                       y="9188"
                       id="tspan523"><tspan
                         id="tspan525"
                         style="fill:#000000;stroke:none">tap0 (192.168.100.2/24)</tspan></tspan></tspan></text>
</g></g><g
               class="com.sun.star.drawing.ConnectorShape"
               id="g527"><g
                 id="id49"><rect
                   class="BoundingBox"
                   x="7496"
                   y="6710"
                   width="7130"
                   height="381"
                   id="rect530"
                   style="fill:none;stroke:none" /><path
                   d="m 7523,6900 6559,0"
                   id="path532"
                   inkscape:connector-curvature="0"
                   style="fill:none;stroke:#000000;stroke-width:53;stroke-linejoin:round" /><path
                   d="m 14625,6900 -568,-189 0,379 568,-190 z"
                   id="path534"
                   inkscape:connector-curvature="0"
                   style="fill:#000000;stroke:none" /></g></g><g
               class="com.sun.star.drawing.TextShape"
               id="g536"><g
                 id="id50"><rect
                   class="BoundingBox"
                   x="10026"
                   y="5936"
                   width="1676"
                   height="967"
                   id="rect539"
                   style="fill:none;stroke:none" /><text
                   class="TextShape"
                   id="text541"><tspan
                     class="TextParagraph"
                     font-size="529px"
                     font-weight="400"
                     id="tspan543"
                     style="font-weight:400;font-size:529px;font-family:'Open Sans', sans-serif"><tspan
                       class="TextPosition"
                       x="10276"
                       y="6624"
                       id="tspan545"><tspan
                         id="tspan547"
                         style="fill:#000000;stroke:none">eth0</tspan></tspan></tspan></text>
</g></g><g
               class="com.sun.star.drawing.TextShape"
               id="g549"><g
                 id="id51"><rect
                   class="BoundingBox"
                   x="14875"
                   y="11636"
                   width="2501"
                   height="967"
                   id="rect552"
                   style="fill:none;stroke:none" /><text
                   class="TextShape"
                   id="text554"><tspan
                     class="TextParagraph"
                     font-size="529px"
                     font-weight="400"
                     id="tspan556"
                     style="font-weight:400;font-size:529px;font-family:'Open Sans', sans-serif"><tspan
                       class="TextPosition"
                       x="15125"
                       y="12324"
                       id="tspan558"><tspan
                         id="tspan560"
                         style="fill:#000000;stroke:none">Internet</tspan></tspan></tspan></text>
</g></g><g
               class="com.sun.star.drawing.ConnectorShape"
               id="g562"><g
                 id="id52"><rect
                   class="BoundingBox"
                   x="16098"
                   y="7318"
                   width="55"
                   height="3771"
                   id="rect565"
                   style="fill:none;stroke:none" /><path
                   d="m 16125,7345 0,3716"
                   id="path567"
                   inkscape:connector-curvature="0"
                   style="fill:none;stroke:#000000;stroke-width:53;stroke-linejoin:round" /></g></g><g
               class="com.sun.star.drawing.ConnectorShape"
               id="g569"><g
                 id="id53"><rect
                   class="BoundingBox"
                   x="16098"
                   y="12774"
                   width="55"
                   height="5189"
                   id="rect572"
                   style="fill:none;stroke:none" /><path
                   d="m 16125,12801 0,5134"
                   id="path574"
                   inkscape:connector-curvature="0"
                   style="fill:none;stroke:#000000;stroke-width:53;stroke-linejoin:round" /></g></g><g
               class="com.sun.star.drawing.ConnectorShape"
               id="g576"><g
                 id="id54"><rect
                   class="BoundingBox"
                   x="5996"
                   y="9439"
                   width="55"
                   height="6018"
                   id="rect579"
                   style="fill:none;stroke:none" /><path
                   d="m 6023,15429 0,-5963"
                   id="path581"
                   inkscape:connector-curvature="0"
                   style="fill:none;stroke:#000000;stroke-width:53;stroke-linejoin:round" /></g></g><g
               class="com.sun.star.drawing.TextShape"
               id="g583"><g
                 id="id55"><rect
                   class="BoundingBox"
                   x="6300"
                   y="12200"
                   width="4201"
                   height="1111"
                   id="rect586"
                   style="fill:none;stroke:none" /><text
                   class="TextShape"
                   id="text588"><tspan
                     class="TextParagraph"
                     font-size="635px"
                     font-weight="700"
                     id="tspan590"
                     style="font-weight:700;font-size:635px;font-family:'Open Sans', sans-serif"><tspan
                       class="TextPosition"
                       x="6550"
                       y="13002"
                       id="tspan592"><tspan
                         id="tspan594"
                         style="fill:#000000;stroke:none">VPN Bridge</tspan></tspan></tspan></text>
</g></g><g
               class="com.sun.star.drawing.TextShape"
               id="g596"><g
                 id="id56"><rect
                   class="BoundingBox"
                   x="14125"
                   y="5300"
                   width="4001"
                   height="967"
                   id="rect599"
                   style="fill:none;stroke:none" /><text
                   class="TextShape"
                   id="text601"><tspan
                     class="TextParagraph"
                     font-size="529px"
                     font-weight="400"
                     id="tspan603"
                     style="font-weight:400;font-size:529px;font-family:'Open Sans', sans-serif"><tspan
                       class="TextPosition"
                       x="14375"
                       y="5988"
                       id="tspan605"><tspan
                         id="tspan607"
                         style="fill:#000000;stroke:none">Switch/Router</tspan></tspan></tspan></text>
</g></g></g></g></g></g></g></svg>