<?xml version="1.0" encoding="UTF-8" standalone="no"?>
<svg
   xmlns:dc="http://purl.org/dc/elements/1.1/"
   xmlns:cc="http://creativecommons.org/ns#"
   xmlns:rdf="http://www.w3.org/1999/02/22-rdf-syntax-ns#"
   xmlns:svg="http://www.w3.org/2000/svg"
   xmlns="http://www.w3.org/2000/svg"
   xmlns:sodipodi="http://sodipodi.sourceforge.net/DTD/sodipodi-0.dtd"
   xmlns:inkscape="http://www.inkscape.org/namespaces/inkscape"
   viewBox="0 0 48 31"
   version="1.1"
   id="svg4592"
   sodipodi:docname="day-night-mode-bw.svg"
   inkscape:version="0.92.3 (2405546, 2018-03-11)"
   width="48"
   height="31">
  <metadata
     id="metadata4598">
    <rdf:RDF>
      <cc:Work
         rdf:about="">
        <dc:format>image/svg+xml</dc:format>
        <dc:type
           rdf:resource="http://purl.org/dc/dcmitype/StillImage" />
        <dc:title></dc:title>
      </cc:Work>
    </rdf:RDF>
  </metadata>
  <defs
     id="defs4596" />
  <sodipodi:namedview
     pagecolor="#ffffff"
     bordercolor="#666666"
     borderopacity="1"
     objecttolerance="10"
     gridtolerance="10"
     guidetolerance="10"
     inkscape:pageopacity="0"
     inkscape:pageshadow="2"
     inkscape:window-width="1835"
     inkscape:window-height="1122"
     id="namedview4594"
     showgrid="false"
     inkscape:zoom="19.666667"
     inkscape:cx="20.04574"
     inkscape:cy="14.01707"
     inkscape:window-x="0"
     inkscape:window-y="0"
     inkscape:window-maximized="0"
     inkscape:current-layer="svg4592" />
  <path
     style="fill:#f0f0f0;fill-opacity:1;stroke-width:1.09090912"
     inkscape:connector-curvature="0"
     id="path4588"
     d="m 15,10.545455 c -3.010909,0 -5.454546,2.443636 -5.454546,5.454545 0,3.010909 2.443637,5.454545 5.454546,5.454545 3.010909,0 5.454545,-2.443636 5.454545,-5.454545 0,-3.010909 -2.443636,-5.454545 -5.454545,-5.454545 z M 4.0909091,17.090909 h 2.1818182 c 0.6,0 1.0909091,-0.490909 1.0909091,-1.090909 0,-0.6 -0.4909091,-1.090909 -1.0909091,-1.090909 H 4.0909091 C 3.4909091,14.909091 3,15.4 3,16 c 0,0.6 0.4909091,1.090909 1.0909091,1.090909 z m 19.6363639,0 h 2.181818 C 26.509091,17.090909 27,16.6 27,16 27,15.4 26.509091,14.909091 25.909091,14.909091 h -2.181818 c -0.6,0 -1.090909,0.490909 -1.090909,1.090909 0,0.6 0.490909,1.090909 1.090909,1.090909 z M 13.909091,5.0909095 v 2.1818182 c 0,0.6 0.490909,1.0909087 1.090909,1.0909087 0.6,0 1.090909,-0.4909087 1.090909,-1.0909087 V 5.0909095 c 0,-0.6 -0.490909,-1.0909091 -1.090909,-1.0909091 -0.6,0 -1.090909,0.4909091 -1.090909,1.0909091 z m 0,19.6363635 v 2.181818 C 13.909091,27.509091 14.4,28 15,28 c 0.6,0 1.090909,-0.490909 1.090909,-1.090909 v -2.181818 c 0,-0.6 -0.490909,-1.090909 -1.090909,-1.090909 -0.6,0 -1.090909,0.490909 -1.090909,1.090909 z M 8.4436364,7.9054549 C 8.0181818,7.4800004 7.32,7.4800004 6.9054545,7.9054549 6.48,8.3309094 6.48,9.0290914 6.9054545,9.4436364 L 8.0618182,10.6 C 8.4872727,11.025455 9.185454,11.025455 9.6,10.6 10.014545,10.174545 10.025454,9.4763644 9.6,9.0618184 Z M 21.938182,21.4 c -0.425455,-0.425455 -1.123637,-0.425455 -1.538182,0 -0.425455,0.425455 -0.425455,1.123636 0,1.538182 l 1.156364,1.156363 c 0.425454,0.425455 1.123636,0.425455 1.538181,0 0.425455,-0.425454 0.425455,-1.123636 0,-1.538181 z M 23.094545,9.4436364 c 0.425455,-0.425454 0.425455,-1.123636 0,-1.5381815 -0.425454,-0.4254545 -1.123636,-0.4254545 -1.538181,0 L 20.4,9.0618184 c -0.425455,0.425455 -0.425455,1.1236366 0,1.5381816 0.425455,0.414545 1.123636,0.425455 1.538182,0 z M 9.6,22.938182 C 10.025454,22.512727 10.025454,21.814545 9.6,21.4 9.174545,20.974545 8.4763636,20.974545 8.0618182,21.4 L 6.9054545,22.556364 C 6.48,22.981818 6.48,23.68 6.9054545,24.094545 c 0.4254546,0.414546 1.1236364,0.425455 1.5381819,0 z" />
  <g
     transform="matrix(1.2,0,0,1.2,19.6,1.6)"
     style="fill:#000000"
     id="g5191"
     inkscape:transform-center-x="1.3423729"
     inkscape:transform-center-y="-0.1220339">
    <path
       inkscape:connector-curvature="0"
       d="m 9.5,2 c -1.82,0 -3.53,0.5 -5,1.35 2.99,1.73 5,4.95 5,8.65 0,3.7 -2.01,6.92 -5,8.65 1.47,0.85 3.18,1.35 5,1.35 5.52,0 10,-4.48 10,-10 0,-5.52 -4.48,-10 -10,-10 z"
       id="path5189" />
  </g>
</svg>
