<?xml version="1.0" encoding="UTF-8" standalone="no"?>
<!-- Created with Inkscape (http://www.inkscape.org/) -->

<svg
   xmlns:dc="http://purl.org/dc/elements/1.1/"
   xmlns:cc="http://creativecommons.org/ns#"
   xmlns:rdf="http://www.w3.org/1999/02/22-rdf-syntax-ns#"
   xmlns:svg="http://www.w3.org/2000/svg"
   xmlns="http://www.w3.org/2000/svg"
   xmlns:sodipodi="http://sodipodi.sourceforge.net/DTD/sodipodi-0.dtd"
   xmlns:inkscape="http://www.inkscape.org/namespaces/inkscape"
   width="615"
   height="290"
   id="svg10908"
   version="1.1"
   inkscape:version="0.48.1 "
   sodipodi:docname="lvm.svg">
  <defs
     id="defs10910">
    <inkscape:perspective
       sodipodi:type="inkscape:persp3d"
       inkscape:vp_x="0 : 526.18109 : 1"
       inkscape:vp_y="0 : 1000 : 0"
       inkscape:vp_z="800 : 526.18109 : 1"
       inkscape:persp3d-origin="400 : 350.78739 : 1"
       id="perspective11780" />
  </defs>
  <sodipodi:namedview
     id="base"
     pagecolor="#ffffff"
     bordercolor="#666666"
     borderopacity="1.0"
     inkscape:pageopacity="1"
     inkscape:pageshadow="2"
     inkscape:zoom="1.4142136"
     inkscape:cx="464.95482"
     inkscape:cy="160.88154"
     inkscape:document-units="px"
     inkscape:current-layer="layer1"
     showgrid="true"
     inkscape:window-width="1920"
     inkscape:window-height="1033"
     inkscape:window-x="-4"
     inkscape:window-y="-4"
     inkscape:window-maximized="1">
    <inkscape:grid
       type="xygrid"
       id="grid11700"
       empspacing="5"
       visible="true"
       enabled="true"
       snapvisiblegridlinesonly="true" />
  </sodipodi:namedview>
  <metadata
     id="metadata10913">
    <rdf:RDF>
      <cc:Work
         rdf:about="">
        <dc:format>image/svg+xml</dc:format>
        <dc:type
           rdf:resource="http://purl.org/dc/dcmitype/StillImage" />
        <dc:title />
      </cc:Work>
    </rdf:RDF>
  </metadata>
  <g
     inkscape:label="Ebene 1"
     inkscape:groupmode="layer"
     id="layer1"
     transform="translate(0,-762.36218)">
    <rect
       style="opacity:0.99000005;fill:#7ac142;fill-opacity:1;fill-rule:nonzero;stroke:#464546;stroke-width:2.96099997;stroke-linecap:butt;stroke-linejoin:miter;stroke-miterlimit:4;stroke-opacity:1;stroke-dasharray:none"
       id="rect11698"
       width="207.03893"
       height="247.03891"
       x="21.480541"
       y="783.84271"
       rx="8.2815561"
       ry="8.4026842" />
    <g
       style="font-size:22px;font-style:normal;font-variant:normal;font-weight:normal;font-stretch:normal;line-height:125%;letter-spacing:0px;word-spacing:0px;fill:#000000;fill-opacity:1;stroke:none;font-family:Open Sans;-inkscape-font-specification:Open Sans"
       id="text11756">
      <path
         d="m 59.280273,815.86218 0,-11.45312 3.945313,0 c 0.890619,1e-5 1.570306,0.0547 2.039062,0.16406 0.656243,0.15105 1.216138,0.42449 1.679688,0.82031 0.604157,0.51043 1.05598,1.16277 1.355469,1.95703 0.299468,0.79428 0.449208,1.70183 0.449218,2.72266 -10e-6,0.8698 -0.101573,1.64063 -0.304687,2.3125 -0.203135,0.67188 -0.463552,1.22787 -0.78125,1.66797 -0.317718,0.4401 -0.665374,0.78646 -1.042969,1.03906 -0.377612,0.25261 -0.833341,0.44401 -1.367187,0.57422 -0.533861,0.13021 -1.147142,0.19531 -1.839844,0.19531 z m 1.515625,-1.35156 2.445313,0 c 0.755202,0 1.34765,-0.0703 1.777344,-0.21094 0.42968,-0.14062 0.772127,-0.33854 1.027343,-0.59375 0.359367,-0.35937 0.639315,-0.84244 0.839844,-1.44922 0.200512,-0.60676 0.300772,-1.34244 0.300781,-2.20703 -9e-6,-1.19791 -0.196623,-2.11848 -0.589843,-2.76172 -0.393238,-0.64322 -0.871102,-1.07421 -1.433594,-1.29296 -0.406257,-0.15624 -1.059902,-0.23437 -1.960938,-0.23438 l -2.40625,0 z"
         style="font-size:16px"
         id="path3049" />
      <path
         d="m 69.584961,815.86218 4.398437,-11.45312 1.632813,0 4.6875,11.45312 -1.726563,0 -1.335937,-3.46875 -4.789063,0 -1.257812,3.46875 z m 3.304687,-4.70312 3.882813,0 -1.195313,-3.17188 c -0.364589,-0.96353 -0.635422,-1.7552 -0.8125,-2.375 -0.145838,0.73439 -0.351567,1.46355 -0.617187,2.1875 z"
         style="font-size:16px"
         id="path3051" />
      <path
         d="m 84.444336,815.86218 0,-10.10156 -3.773438,0 0,-1.35156 9.078125,0 0,1.35156 -3.789062,0 0,10.10156 z"
         style="font-size:16px"
         id="path3053" />
      <path
         d="m 91.342773,815.86218 0,-11.45312 8.28125,0 0,1.35156 -6.765625,0 0,3.50781 6.335938,0 0,1.34375 -6.335938,0 0,3.89844 7.03125,0 0,1.35156 z"
         style="font-size:16px"
         id="path3055" />
      <path
         d="m 101.9834,815.86218 0,-11.45312 1.55469,0 6.01562,8.99219 0,-8.99219 1.45313,0 0,11.45312 -1.55469,0 -6.01563,-9 0,9 z"
         style="font-size:16px"
         id="path3057" />
      <path
         d="m 116.47559,815.86218 0,-10.10156 -3.77344,0 0,-1.35156 9.07812,0 0,1.35156 -3.78906,0 0,10.10156 z"
         style="font-size:16px"
         id="path3059" />
      <path
         d="m 123.36621,815.86218 0,-11.45312 5.07813,0 c 1.02082,1e-5 1.79686,0.10287 2.32812,0.30859 0.53124,0.20574 0.95572,0.56902 1.27344,1.08985 0.3177,0.52084 0.47655,1.09636 0.47656,1.72656 -1e-5,0.81251 -0.26303,1.4974 -0.78906,2.05469 -0.52605,0.55729 -1.33855,0.91146 -2.4375,1.0625 0.40103,0.19271 0.70572,0.38281 0.91406,0.57031 0.4427,0.40625 0.86197,0.91406 1.25781,1.52344 l 1.99219,3.11718 -1.90625,0 -1.51562,-2.38281 c -0.44272,-0.6875 -0.8073,-1.21354 -1.09375,-1.57812 -0.28647,-0.36458 -0.54298,-0.61979 -0.76954,-0.76563 -0.22656,-0.14583 -0.45703,-0.24739 -0.6914,-0.30469 -0.17188,-0.0364 -0.45313,-0.0547 -0.84375,-0.0547 l -1.75781,0 0,5.08593 z m 1.51563,-6.39843 3.25781,0 c 0.6927,0 1.23437,-0.0716 1.625,-0.21485 0.39062,-0.14322 0.68749,-0.37239 0.89062,-0.6875 0.20312,-0.3151 0.30468,-0.65754 0.30469,-1.02734 -1e-5,-0.54166 -0.19662,-0.98697 -0.58984,-1.33594 -0.39324,-0.34895 -1.01433,-0.52343 -1.86328,-0.52344 l -3.625,0 z"
         style="font-size:16px"
         id="path3061" />
      <path
         d="m 133.64746,815.86218 4.39844,-11.45312 1.63281,0 4.6875,11.45312 -1.72656,0 -1.33594,-3.46875 -4.78906,0 -1.25781,3.46875 z m 3.30469,-4.70312 3.88281,0 -1.19531,-3.17188 c -0.36459,-0.96353 -0.63542,-1.7552 -0.8125,-2.375 -0.14584,0.73439 -0.35157,1.46355 -0.61719,2.1875 z m -0.30469,-7.46875 0,-1.60156 1.46875,0 0,1.60156 z m 2.91406,0 0,-1.60156 1.46875,0 0,1.60156 z"
         style="font-size:16px"
         id="path3063" />
      <path
         d="m 150.95215,811.37 0,-1.34375 4.85156,-0.008 0,4.25 c -0.7448,0.59375 -1.51303,1.04037 -2.30469,1.33985 -0.79167,0.29948 -1.60417,0.44921 -2.4375,0.44922 -1.125,-10e-6 -2.14714,-0.24089 -3.0664,-0.72266 -0.91928,-0.48177 -1.61329,-1.17838 -2.08203,-2.08984 -0.46876,-0.91146 -0.70313,-1.92969 -0.70313,-3.05469 0,-1.11458 0.23307,-2.15494 0.69922,-3.1211 0.46614,-0.96613 1.13672,-1.68358 2.01172,-2.15234 0.87499,-0.46874 1.88281,-0.70311 3.02344,-0.70312 0.82811,10e-6 1.57681,0.13412 2.24609,0.40234 0.66926,0.26824 1.194,0.64194 1.57422,1.12109 0.3802,0.47918 0.66926,1.10418 0.86719,1.875 l -1.36719,0.375 c -0.17189,-0.58332 -0.38543,-1.04166 -0.64063,-1.375 -0.25521,-0.33332 -0.6198,-0.60025 -1.09375,-0.80078 -0.47396,-0.20051 -1,-0.30077 -1.57812,-0.30078 -0.69272,10e-6 -1.29167,0.10548 -1.79688,0.31641 -0.50521,0.21094 -0.91276,0.48829 -1.22265,0.83203 -0.3099,0.34376 -0.55079,0.72136 -0.72266,1.13281 -0.29167,0.70834 -0.4375,1.47657 -0.4375,2.30469 0,1.02084 0.17578,1.875 0.52734,2.5625 0.35156,0.6875 0.86328,1.19792 1.53516,1.53125 0.67187,0.33333 1.38541,0.5 2.14063,0.5 0.65624,0 1.29686,-0.1263 1.92187,-0.37891 0.62499,-0.2526 1.09895,-0.52213 1.42188,-0.80859 l 0,-2.13281 z"
         style="font-size:16px"
         id="path3065" />
      <path
         d="m 158.06152,815.86218 0,-11.45312 8.28125,0 0,1.35156 -6.76562,0 0,3.50781 6.33594,0 0,1.34375 -6.33594,0 0,3.89844 7.03125,0 0,1.35156 z"
         style="font-size:16px"
         id="path3067" />
      <path
         d="m 168.74121,815.86218 0,-11.45312 5.07813,0 c 1.02082,1e-5 1.79686,0.10287 2.32812,0.30859 0.53124,0.20574 0.95572,0.56902 1.27344,1.08985 0.3177,0.52084 0.47655,1.09636 0.47656,1.72656 -1e-5,0.81251 -0.26303,1.4974 -0.78906,2.05469 -0.52605,0.55729 -1.33855,0.91146 -2.4375,1.0625 0.40103,0.19271 0.70572,0.38281 0.91406,0.57031 0.4427,0.40625 0.86197,0.91406 1.25781,1.52344 l 1.99219,3.11718 -1.90625,0 -1.51562,-2.38281 c -0.44272,-0.6875 -0.8073,-1.21354 -1.09375,-1.57812 -0.28647,-0.36458 -0.54298,-0.61979 -0.76954,-0.76563 -0.22656,-0.14583 -0.45703,-0.24739 -0.6914,-0.30469 -0.17188,-0.0364 -0.45313,-0.0547 -0.84375,-0.0547 l -1.75781,0 0,5.08593 z m 1.51563,-6.39843 3.25781,0 c 0.6927,0 1.23437,-0.0716 1.625,-0.21485 0.39062,-0.14322 0.68749,-0.37239 0.89062,-0.6875 0.20312,-0.3151 0.30468,-0.65754 0.30469,-1.02734 -1e-5,-0.54166 -0.19662,-0.98697 -0.58984,-1.33594 -0.39324,-0.34895 -1.01433,-0.52343 -1.86328,-0.52344 l -3.625,0 z"
         style="font-size:16px"
         id="path3069" />
    </g>
    <path
       style="fill:none;stroke:#464546;stroke-width:2;stroke-linecap:butt;stroke-linejoin:miter;stroke-miterlimit:4;stroke-opacity:1;stroke-dasharray:none"
       d="m 21.483272,980.35374 207.806898,0"
       id="path11866"
       inkscape:connector-curvature="0" />
    <path
       style="fill:none;stroke:#464546;stroke-width:2;stroke-linecap:butt;stroke-linejoin:miter;stroke-miterlimit:4;stroke-opacity:1;stroke-dasharray:none"
       d="m 21.484175,830.3542 208.195365,0"
       id="path11874"
       inkscape:connector-curvature="0" />
    <g
       style="font-size:22px;font-style:normal;font-variant:normal;font-weight:normal;font-stretch:normal;line-height:125%;letter-spacing:0px;word-spacing:0px;fill:#000000;fill-opacity:1;stroke:none;font-family:Open Sans;-inkscape-font-specification:Open Sans"
       id="text11876">
      <path
         d="m 41.047031,915.24695 0,-10.10156 -3.773437,0 0,-1.35157 9.078125,0 0,1.35157 -3.789063,0 0,10.10156 z"
         style="font-size:16px"
         id="path3181" />
      <path
         d="m 47.945469,915.24695 0,-11.45313 8.28125,0 0,1.35157 -6.765625,0 0,3.50781 6.335937,0 0,1.34375 -6.335937,0 0,3.89844 7.03125,0 0,1.35156 z"
         style="font-size:16px"
         id="path3183" />
      <path
         d="m 58.859531,915.24695 0,-11.45313 1.515625,0 0,11.45313 z"
         style="font-size:16px"
         id="path3185" />
      <path
         d="m 62.976719,915.24695 0,-11.45313 1.515625,0 0,10.10157 5.640625,0 0,1.35156 z"
         style="font-size:16px"
         id="path3187" />
    </g>
    <g
       style="font-size:22px;font-style:normal;font-variant:normal;font-weight:normal;font-stretch:normal;line-height:125%;letter-spacing:0px;word-spacing:0px;fill:#000000;fill-opacity:1;stroke:none;font-family:Open Sans;-inkscape-font-specification:Open Sans"
       id="text11876-6">
      <path
         d="m 111.22192,915.24695 0,-10.10156 -3.77343,0 0,-1.35157 9.07812,0 0,1.35157 -3.78906,0 0,10.10156 z"
         style="font-size:16px"
         id="path3190" />
      <path
         d="m 118.12036,915.24695 0,-11.45313 8.28125,0 0,1.35157 -6.76562,0 0,3.50781 6.33593,0 0,1.34375 -6.33593,0 0,3.89844 7.03125,0 0,1.35156 z"
         style="font-size:16px"
         id="path3192" />
      <path
         d="m 129.03442,915.24695 0,-11.45313 1.51563,0 0,11.45313 z"
         style="font-size:16px"
         id="path3194" />
      <path
         d="m 133.15161,915.24695 0,-11.45313 1.51563,0 0,10.10157 5.64062,0 0,1.35156 z"
         style="font-size:16px"
         id="path3196" />
    </g>
    <g
       style="font-size:22px;font-style:normal;font-variant:normal;font-weight:normal;font-stretch:normal;line-height:125%;letter-spacing:0px;word-spacing:0px;fill:#000000;fill-opacity:1;stroke:none;font-family:Open Sans;-inkscape-font-specification:Open Sans"
       id="text11876-1">
      <path
         d="m 179.35039,915.24695 0,-10.10156 -3.77344,0 0,-1.35157 9.07813,0 0,1.35157 -3.78907,0 0,10.10156 z"
         style="font-size:16px"
         id="path3199" />
      <path
         d="m 186.24883,915.24695 0,-11.45313 8.28125,0 0,1.35157 -6.76563,0 0,3.50781 6.33594,0 0,1.34375 -6.33594,0 0,3.89844 7.03125,0 0,1.35156 z"
         style="font-size:16px"
         id="path3201" />
      <path
         d="m 197.16289,915.24695 0,-11.45313 1.51562,0 0,11.45313 z"
         style="font-size:16px"
         id="path3203" />
      <path
         d="m 201.28008,915.24695 0,-11.45313 1.51562,0 0,10.10157 5.64063,0 0,1.35156 z"
         style="font-size:16px"
         id="path3205" />
    </g>
    <path
       style="fill:none;stroke:#464546;stroke-width:2;stroke-linecap:butt;stroke-linejoin:miter;stroke-miterlimit:4;stroke-opacity:1;stroke-dasharray:none"
       d="m 92.052539,830.74357 0,200.22103"
       id="path11910"
       inkscape:connector-curvature="0" />
    <path
       style="fill:none;stroke:#464546;stroke-width:2;stroke-linecap:butt;stroke-linejoin:miter;stroke-miterlimit:4;stroke-opacity:1;stroke-dasharray:none"
       d="m 162.07313,831.04273 0,199.91357"
       id="path11912"
       inkscape:connector-curvature="0" />
    <g
       style="font-size:22px;font-style:normal;font-variant:normal;font-weight:normal;font-stretch:normal;line-height:125%;letter-spacing:0px;word-spacing:0px;fill:#000000;fill-opacity:1;stroke:none;font-family:Open Sans;-inkscape-font-specification:Open Sans"
       id="text11914">
      <path
         d="m 46.628925,1013.9509 0,-11.4531 2.28125,0 2.710938,8.1094 c 0.249993,0.7552 0.432285,1.3203 0.546875,1.6953 0.130201,-0.4167 0.333326,-1.0287 0.609375,-1.8359 l 2.742187,-7.9688 2.039063,0 0,11.4531 -1.460938,0 0,-9.5859 -3.328125,9.5859 -1.367187,0 -3.3125,-9.75 0,9.75 z"
         style="font-size:16px"
         id="path3266" />
      <path
         d="m 60.01955,1013.9509 0,-11.4531 4.320313,0 c 0.76041,0 1.341139,0.037 1.742187,0.1094 0.562492,0.094 1.033846,0.2721 1.414063,0.5351 0.380199,0.2631 0.686188,0.6316 0.917969,1.1055 0.231761,0.474 0.347646,0.9948 0.347656,1.5625 -10e-6,0.974 -0.309906,1.7982 -0.929688,2.4727 -0.6198,0.6744 -1.73959,1.0117 -3.359375,1.0117 l -2.9375,0 0,4.6562 z m 1.515625,-6.0078 2.960938,0 c 0.97916,0 1.674472,-0.1823 2.085937,-0.5469 0.41145,-0.3645 0.617179,-0.8776 0.617188,-1.539 -9e-6,-0.4792 -0.121102,-0.8893 -0.363281,-1.2305 -0.242196,-0.3411 -0.561206,-0.5664 -0.957032,-0.6758 -0.255215,-0.068 -0.726569,-0.1015 -1.414062,-0.1015 l -2.929688,0 z"
         style="font-size:16px"
         id="path3268" />
    </g>
    <g
       style="font-size:22px;font-style:normal;font-variant:normal;font-weight:normal;font-stretch:normal;line-height:125%;letter-spacing:0px;word-spacing:0px;fill:#000000;fill-opacity:1;stroke:none;font-family:Open Sans;-inkscape-font-specification:Open Sans"
       id="text11918">
      <path
         d="m 118.53774,1013.7988 0,-11.4531 2.28125,0 2.71094,8.1094 c 0.24999,0.7552 0.43229,1.3203 0.54688,1.6953 0.1302,-0.4167 0.33332,-1.0287 0.60937,-1.8359 l 2.74219,-7.9688 2.03906,0 0,11.4531 -1.46094,0 0,-9.5859 -3.32812,9.5859 -1.36719,0 -3.3125,-9.75 0,9.75 z"
         style="font-size:16px"
         id="path3261" />
      <path
         d="m 131.92837,1013.7988 0,-11.4531 4.32031,0 c 0.76041,0 1.34114,0.037 1.74219,0.1094 0.56249,0.094 1.03384,0.2721 1.41406,0.5351 0.3802,0.2631 0.68619,0.6316 0.91797,1.1055 0.23176,0.474 0.34765,0.9948 0.34766,1.5625 -1e-5,0.974 -0.30991,1.7982 -0.92969,2.4727 -0.6198,0.6744 -1.73959,1.0117 -3.35938,1.0117 l -2.9375,0 0,4.6562 z m 1.51562,-6.0078 2.96094,0 c 0.97916,0 1.67447,-0.1823 2.08594,-0.5469 0.41145,-0.3645 0.61718,-0.8776 0.61719,-1.539 -1e-5,-0.4792 -0.12111,-0.8893 -0.36329,-1.2305 -0.24219,-0.3411 -0.5612,-0.5664 -0.95703,-0.6758 -0.25521,-0.068 -0.72657,-0.1015 -1.41406,-0.1015 l -2.92969,0 z"
         style="font-size:16px"
         id="path3263" />
    </g>
    <g
       style="font-size:22px;font-style:normal;font-variant:normal;font-weight:normal;font-stretch:normal;line-height:125%;letter-spacing:0px;word-spacing:0px;fill:#000000;fill-opacity:1;stroke:none;font-family:Open Sans;-inkscape-font-specification:Open Sans"
       id="text11922">
      <path
         d="m 182.72903,1013.316 0,-11.4531 2.28125,0 2.71094,8.1093 c 0.25,0.7552 0.43229,1.3203 0.54688,1.6953 0.1302,-0.4166 0.33332,-1.0286 0.60937,-1.8359 l 2.74219,-7.9687 2.03906,0 0,11.4531 -1.46094,0 0,-9.586 -3.32812,9.586 -1.36719,0 -3.3125,-9.75 0,9.75 z"
         style="font-size:16px"
         id="path3256" />
      <path
         d="m 196.11966,1013.316 0,-11.4531 4.32031,0 c 0.76041,0 1.34114,0.036 1.74219,0.1093 0.56249,0.094 1.03385,0.2722 1.41406,0.5352 0.3802,0.263 0.68619,0.6315 0.91797,1.1055 0.23176,0.4739 0.34765,0.9948 0.34766,1.5625 -1e-5,0.9739 -0.30991,1.7981 -0.92969,2.4726 -0.6198,0.6745 -1.73959,1.0117 -3.35938,1.0117 l -2.9375,0 0,4.6563 z m 1.51562,-6.0078 2.96094,0 c 0.97916,0 1.67447,-0.1823 2.08594,-0.5469 0.41145,-0.3646 0.61718,-0.8776 0.61719,-1.5391 -1e-5,-0.4791 -0.12111,-0.8893 -0.36328,-1.2304 -0.2422,-0.3412 -0.56121,-0.5664 -0.95704,-0.6758 -0.25521,-0.068 -0.72656,-0.1016 -1.41406,-0.1016 l -2.92969,0 z"
         style="font-size:16px"
         id="path3258" />
    </g>
    <rect
       style="opacity:0.99000005;fill:#7ac142;fill-opacity:1;fill-rule:nonzero;stroke:#464546;stroke-width:2.91599989;stroke-linecap:butt;stroke-linejoin:miter;stroke-miterlimit:4;stroke-opacity:1;stroke-dasharray:none"
       id="rect11698-7"
       width="346.1778"
       height="246.17776"
       x="247.03612"
       y="784.27325"
       rx="13.84711"
       ry="8.373394" />
    <path
       style="fill:none;stroke:#464546;stroke-width:2.00178909;stroke-linecap:butt;stroke-linejoin:miter;stroke-miterlimit:4;stroke-opacity:1;stroke-dasharray:none"
       d="m 247.80614,830.49433 344.28821,0"
       id="path11874-8"
       inkscape:connector-curvature="0" />
    <path
       style="fill:none;stroke:#464546;stroke-width:2;stroke-linecap:butt;stroke-linejoin:miter;stroke-miterlimit:4;stroke-opacity:1;stroke-dasharray:none"
       d="m 246.80873,980.49592 345.39535,0"
       id="path11866-7"
       inkscape:connector-curvature="0" />
    <path
       style="fill:none;stroke:#464546;stroke-width:2.00178385;stroke-linecap:butt;stroke-linejoin:miter;stroke-miterlimit:4;stroke-opacity:1;stroke-dasharray:none"
       d="m 246.87135,930.99527 345.30672,0"
       id="path11866-7-6"
       inkscape:connector-curvature="0" />
    <path
       style="fill:none;stroke:#464546;stroke-width:2;stroke-linecap:butt;stroke-linejoin:miter;stroke-miterlimit:4;stroke-opacity:1;stroke-dasharray:none"
       d="m 246.8704,880.17754 345.04346,0"
       id="path11866-7-6-6"
       inkscape:connector-curvature="0" />
    <path
       style="fill:none;stroke:#464546;stroke-width:2;stroke-linecap:butt;stroke-linejoin:miter;stroke-miterlimit:4;stroke-opacity:1;stroke-dasharray:none"
       d="m 318.82523,830.47354 0,50.28872"
       id="path11912-1"
       inkscape:connector-curvature="0" />
    <path
       style="fill:none;stroke:#464546;stroke-width:2;stroke-linecap:butt;stroke-linejoin:miter;stroke-miterlimit:4;stroke-opacity:1;stroke-dasharray:none"
       d="m 388.15189,783.6664 0,97.3463"
       id="path11912-1-1"
       inkscape:connector-curvature="0" />
    <path
       style="fill:none;stroke:#464546;stroke-width:2.00931168;stroke-linecap:butt;stroke-linejoin:miter;stroke-miterlimit:4;stroke-opacity:1;stroke-dasharray:none"
       d="m 458.3724,831.37918 0,198.70862"
       id="path11912-1-1-3"
       inkscape:connector-curvature="0" />
    <path
       style="fill:none;stroke:#464546;stroke-width:2;stroke-linecap:butt;stroke-linejoin:miter;stroke-miterlimit:4;stroke-opacity:1;stroke-dasharray:none"
       d="m 528.64817,931.14591 0,98.31909"
       id="path11912-1-1-3-6"
       inkscape:connector-curvature="0" />
    <g
       style="font-size:22px;font-style:normal;font-variant:normal;font-weight:normal;font-stretch:normal;line-height:125%;letter-spacing:0px;word-spacing:0px;fill:#000000;fill-opacity:1;stroke:none;font-family:Open Sans;-inkscape-font-specification:Open Sans"
       id="text12300">
      <path
         d="m 253.10349,815.43677 0,-11.45313 3.94531,0 c 0.89062,10e-6 1.5703,0.0547 2.03906,0.16407 0.65624,0.15105 1.21614,0.42449 1.67969,0.82031 0.60415,0.51042 1.05598,1.16277 1.35547,1.95703 0.29946,0.79428 0.4492,1.70183 0.44922,2.72266 -2e-5,0.86979 -0.10158,1.64062 -0.30469,2.3125 -0.20314,0.67187 -0.46355,1.22786 -0.78125,1.66796 -0.31772,0.44011 -0.66538,0.78646 -1.04297,1.03907 -0.37761,0.2526 -0.83334,0.44401 -1.36719,0.57422 -0.53386,0.1302 -1.14714,0.19531 -1.83984,0.19531 z m 1.51562,-1.35156 2.44531,0 c 0.7552,0 1.34765,-0.0703 1.77735,-0.21094 0.42968,-0.14063 0.77212,-0.33854 1.02734,-0.59375 0.35937,-0.35937 0.63931,-0.84245 0.83984,-1.44922 0.20052,-0.60677 0.30078,-1.34244 0.30079,-2.20703 -1e-5,-1.19791 -0.19663,-2.11848 -0.58985,-2.76172 -0.39324,-0.64322 -0.8711,-1.07421 -1.43359,-1.29297 -0.40626,-0.15624 -1.0599,-0.23436 -1.96094,-0.23437 l -2.40625,0 z"
         style="font-size:16px"
         id="path3072" />
      <path
         d="m 263.40817,815.43677 4.39844,-11.45313 1.63281,0 4.6875,11.45313 -1.72656,0 -1.33594,-3.46875 -4.78906,0 -1.25781,3.46875 z m 3.30469,-4.70313 3.88281,0 -1.19531,-3.17187 c -0.36459,-0.96354 -0.63542,-1.7552 -0.8125,-2.375 -0.14584,0.73438 -0.35157,1.46355 -0.61719,2.1875 z"
         style="font-size:16px"
         id="path3074" />
      <path
         d="m 278.26755,815.43677 0,-10.10156 -3.77344,0 0,-1.35157 9.07813,0 0,1.35157 -3.78907,0 0,10.10156 z"
         style="font-size:16px"
         id="path3076" />
      <path
         d="m 285.16599,815.43677 0,-11.45313 8.28125,0 0,1.35157 -6.76563,0 0,3.50781 6.33594,0 0,1.34375 -6.33594,0 0,3.89844 7.03125,0 0,1.35156 z"
         style="font-size:16px"
         id="path3078" />
      <path
         d="m 295.80661,815.43677 0,-11.45313 1.55469,0 6.01562,8.99219 0,-8.99219 1.45313,0 0,11.45313 -1.55469,0 -6.01562,-9 0,9 z"
         style="font-size:16px"
         id="path3080" />
      <path
         d="m 310.2988,815.43677 0,-10.10156 -3.77344,0 0,-1.35157 9.07813,0 0,1.35157 -3.78907,0 0,10.10156 z"
         style="font-size:16px"
         id="path3082" />
      <path
         d="m 317.18942,815.43677 0,-11.45313 5.07813,0 c 1.02082,10e-6 1.79686,0.10288 2.32812,0.3086 0.53124,0.20574 0.95572,0.56902 1.27344,1.08984 0.3177,0.52084 0.47655,1.09636 0.47656,1.72656 -10e-6,0.81251 -0.26303,1.49741 -0.78906,2.05469 -0.52605,0.5573 -1.33855,0.91146 -2.4375,1.0625 0.40103,0.19271 0.70572,0.38282 0.91406,0.57031 0.4427,0.40626 0.86197,0.91407 1.25782,1.52344 l 1.99218,3.11719 -1.90625,0 -1.51562,-2.38281 c -0.44272,-0.6875 -0.8073,-1.21354 -1.09375,-1.57813 -0.28647,-0.36458 -0.54298,-0.61979 -0.76953,-0.76562 -0.22657,-0.14583 -0.45704,-0.2474 -0.69141,-0.30469 -0.17188,-0.0365 -0.45313,-0.0547 -0.84375,-0.0547 l -1.75781,0 0,5.08594 z m 1.51563,-6.39844 3.25781,0 c 0.6927,10e-6 1.23437,-0.0716 1.625,-0.21484 0.39062,-0.14323 0.68749,-0.37239 0.89063,-0.6875 0.20311,-0.3151 0.30467,-0.65755 0.30468,-1.02735 -10e-6,-0.54166 -0.19662,-0.98697 -0.58984,-1.33593 -0.39324,-0.34895 -1.01433,-0.52343 -1.86328,-0.52344 l -3.625,0 z"
         style="font-size:16px"
         id="path3084" />
      <path
         d="m 327.47067,815.43677 4.39844,-11.45313 1.63281,0 4.6875,11.45313 -1.72656,0 -1.33594,-3.46875 -4.78906,0 -1.25781,3.46875 z m 3.30469,-4.70313 3.88281,0 -1.19531,-3.17187 c -0.36459,-0.96354 -0.63542,-1.7552 -0.8125,-2.375 -0.14584,0.73438 -0.35157,1.46355 -0.61719,2.1875 z m -0.30469,-7.46875 0,-1.60156 1.46875,0 0,1.60156 z m 2.91407,0 0,-1.60156 1.46875,0 0,1.60156 z"
         style="font-size:16px"
         id="path3086" />
      <path
         d="m 344.77536,810.94458 0,-1.34375 4.85156,-0.008 0,4.25 c -0.7448,0.59375 -1.51303,1.04036 -2.30468,1.33984 -0.79168,0.29948 -1.60418,0.44922 -2.4375,0.44922 -1.12501,0 -2.14714,-0.24089 -3.06641,-0.72266 -0.91927,-0.48177 -1.61328,-1.17838 -2.08203,-2.08984 -0.46875,-0.91145 -0.70313,-1.92968 -0.70313,-3.05469 0,-1.11457 0.23307,-2.15494 0.69922,-3.12109 0.46615,-0.96614 1.13672,-1.68358 2.01172,-2.15234 0.875,-0.46874 1.88281,-0.70312 3.02344,-0.70313 0.82812,10e-6 1.57681,0.13413 2.24609,0.40234 0.66926,0.26824 1.194,0.64194 1.57422,1.1211 0.3802,0.47917 0.66926,1.10417 0.86719,1.875 l -1.36719,0.375 c -0.17188,-0.58333 -0.38543,-1.04166 -0.64062,-1.375 -0.25522,-0.33333 -0.61981,-0.60025 -1.09375,-0.80078 -0.47397,-0.20051 -1.00001,-0.30077 -1.57813,-0.30078 -0.69271,1e-5 -1.29167,0.10547 -1.79687,0.3164 -0.50522,0.21095 -0.91277,0.48829 -1.22266,0.83203 -0.3099,0.34376 -0.55079,0.72137 -0.72266,1.13282 -0.29167,0.70834 -0.4375,1.47656 -0.4375,2.30468 0,1.02084 0.17578,1.87501 0.52735,2.5625 0.35156,0.68751 0.86327,1.19792 1.53515,1.53125 0.67187,0.33334 1.38541,0.5 2.14063,0.5 0.65624,0 1.29686,-0.1263 1.92187,-0.3789 0.62499,-0.25261 1.09895,-0.52214 1.42188,-0.8086 l 0,-2.13281 z"
         style="font-size:16px"
         id="path3088" />
      <path
         d="m 351.88474,815.43677 0,-11.45313 8.28125,0 0,1.35157 -6.76563,0 0,3.50781 6.33594,0 0,1.34375 -6.33594,0 0,3.89844 7.03125,0 0,1.35156 z"
         style="font-size:16px"
         id="path3090" />
      <path
         d="m 362.56442,815.43677 0,-11.45313 5.07813,0 c 1.02082,10e-6 1.79686,0.10288 2.32812,0.3086 0.53124,0.20574 0.95572,0.56902 1.27344,1.08984 0.3177,0.52084 0.47655,1.09636 0.47656,1.72656 -10e-6,0.81251 -0.26303,1.49741 -0.78906,2.05469 -0.52605,0.5573 -1.33855,0.91146 -2.4375,1.0625 0.40103,0.19271 0.70572,0.38282 0.91406,0.57031 0.4427,0.40626 0.86197,0.91407 1.25782,1.52344 l 1.99218,3.11719 -1.90625,0 -1.51562,-2.38281 c -0.44272,-0.6875 -0.8073,-1.21354 -1.09375,-1.57813 -0.28647,-0.36458 -0.54298,-0.61979 -0.76953,-0.76562 -0.22657,-0.14583 -0.45704,-0.2474 -0.69141,-0.30469 -0.17188,-0.0365 -0.45313,-0.0547 -0.84375,-0.0547 l -1.75781,0 0,5.08594 z m 1.51563,-6.39844 3.25781,0 c 0.6927,10e-6 1.23437,-0.0716 1.625,-0.21484 0.39062,-0.14323 0.68749,-0.37239 0.89063,-0.6875 0.20311,-0.3151 0.30467,-0.65755 0.30468,-1.02735 -10e-6,-0.54166 -0.19662,-0.98697 -0.58984,-1.33593 -0.39324,-0.34895 -1.01433,-0.52343 -1.86328,-0.52344 l -3.625,0 z"
         style="font-size:16px"
         id="path3092" />
      <path
         d="m 383.26755,815.43677 -1.40625,0 0,-8.96094 c -0.33855,0.32293 -0.78256,0.64584 -1.33203,0.96875 -0.54949,0.32292 -1.04297,0.56511 -1.48047,0.72656 l 0,-1.35937 c 0.78645,-0.36979 1.47395,-0.8177 2.0625,-1.34375 0.58853,-0.52603 1.0052,-1.03645 1.25,-1.53125 l 0.90625,0 z"
         style="font-size:16px"
         id="path3094" />
    </g>
    <g
       style="font-size:22px;font-style:normal;font-variant:normal;font-weight:normal;font-stretch:normal;line-height:125%;letter-spacing:0px;word-spacing:0px;fill:#000000;fill-opacity:1;stroke:none;font-family:Open Sans;-inkscape-font-specification:Open Sans"
       id="text12304">
      <path
         d="m 427.92197,814.953 0,-11.45312 3.94531,0 c 0.89062,1e-5 1.5703,0.0547 2.03906,0.16406 0.65624,0.15105 1.21614,0.42449 1.67969,0.82031 0.60416,0.51043 1.05598,1.16277 1.35547,1.95703 0.29947,0.79428 0.44921,1.70183 0.44922,2.72266 -10e-6,0.8698 -0.10158,1.64063 -0.30469,2.3125 -0.20314,0.67188 -0.46355,1.22787 -0.78125,1.66797 -0.31772,0.4401 -0.66537,0.78646 -1.04297,1.03906 -0.37761,0.25261 -0.83334,0.44401 -1.36719,0.57422 -0.53386,0.13021 -1.14714,0.19531 -1.83984,0.19531 z m 1.51562,-1.35156 2.44531,0 c 0.75521,0 1.34765,-0.0703 1.77735,-0.21094 0.42968,-0.14062 0.77213,-0.33854 1.02734,-0.59375 0.35937,-0.35937 0.63932,-0.84244 0.83985,-1.44922 0.20051,-0.60676 0.30077,-1.34244 0.30078,-2.20703 -10e-6,-1.19791 -0.19663,-2.11848 -0.58985,-2.76172 -0.39323,-0.64322 -0.8711,-1.0742 -1.43359,-1.29296 -0.40626,-0.15624 -1.0599,-0.23437 -1.96094,-0.23438 l -2.40625,0 z"
         style="font-size:16px"
         id="path3097" />
      <path
         d="m 438.22665,814.953 4.39844,-11.45312 1.63281,0 4.6875,11.45312 -1.72656,0 -1.33594,-3.46875 -4.78906,0 -1.25781,3.46875 z m 3.30469,-4.70312 3.88281,0 -1.19531,-3.17188 c -0.36459,-0.96353 -0.63542,-1.7552 -0.8125,-2.375 -0.14584,0.73439 -0.35157,1.46355 -0.61719,2.1875 z"
         style="font-size:16px"
         id="path3099" />
      <path
         d="m 453.08603,814.953 0,-10.10156 -3.77344,0 0,-1.35156 9.07813,0 0,1.35156 -3.78907,0 0,10.10156 z"
         style="font-size:16px"
         id="path3101" />
      <path
         d="m 459.98447,814.953 0,-11.45312 8.28125,0 0,1.35156 -6.76563,0 0,3.50781 6.33594,0 0,1.34375 -6.33594,0 0,3.89844 7.03125,0 0,1.35156 z"
         style="font-size:16px"
         id="path3103" />
      <path
         d="m 470.62509,814.953 0,-11.45312 1.55469,0 6.01562,8.99219 0,-8.99219 1.45313,0 0,11.45312 -1.55469,0 -6.01562,-9 0,9 z"
         style="font-size:16px"
         id="path3105" />
      <path
         d="m 485.11728,814.953 0,-10.10156 -3.77344,0 0,-1.35156 9.07813,0 0,1.35156 -3.78907,0 0,10.10156 z"
         style="font-size:16px"
         id="path3107" />
      <path
         d="m 492.0079,814.953 0,-11.45312 5.07813,0 c 1.02083,1e-5 1.79687,0.10287 2.32812,0.30859 0.53124,0.20574 0.95572,0.56902 1.27344,1.08985 0.3177,0.52084 0.47655,1.09636 0.47656,1.72656 -1e-5,0.81251 -0.26303,1.4974 -0.78906,2.05469 -0.52605,0.55729 -1.33855,0.91146 -2.4375,1.0625 0.40104,0.19271 0.70572,0.38281 0.91406,0.57031 0.4427,0.40625 0.86197,0.91406 1.25782,1.52344 l 1.99218,3.11718 -1.90625,0 -1.51562,-2.38281 c -0.44272,-0.6875 -0.8073,-1.21354 -1.09375,-1.57812 -0.28647,-0.36458 -0.54298,-0.61979 -0.76953,-0.76563 -0.22657,-0.14583 -0.45704,-0.24739 -0.69141,-0.30469 -0.17188,-0.0364 -0.45313,-0.0547 -0.84375,-0.0547 l -1.75781,0 0,5.08593 z m 1.51563,-6.39843 3.25781,0 c 0.6927,0 1.23437,-0.0716 1.625,-0.21485 0.39062,-0.14322 0.68749,-0.37239 0.89063,-0.6875 0.20311,-0.31509 0.30468,-0.65754 0.30468,-1.02734 0,-0.54166 -0.19662,-0.98697 -0.58984,-1.33594 -0.39324,-0.34895 -1.01433,-0.52343 -1.86328,-0.52344 l -3.625,0 z"
         style="font-size:16px"
         id="path3109" />
      <path
         d="m 502.28915,814.953 4.39844,-11.45312 1.63281,0 4.6875,11.45312 -1.72656,0 -1.33594,-3.46875 -4.78906,0 -1.25781,3.46875 z m 3.30469,-4.70312 3.88281,0 -1.19531,-3.17188 c -0.36459,-0.96353 -0.63542,-1.7552 -0.8125,-2.375 -0.14584,0.73439 -0.35157,1.46355 -0.61719,2.1875 z m -0.30469,-7.46875 0,-1.60156 1.46875,0 0,1.60156 z m 2.91407,0 0,-1.60156 1.46875,0 0,1.60156 z"
         style="font-size:16px"
         id="path3111" />
      <path
         d="m 519.59384,810.46082 0,-1.34375 4.85156,-0.008 0,4.25 c -0.7448,0.59375 -1.51303,1.04037 -2.30468,1.33985 -0.79168,0.29948 -1.60418,0.44922 -2.4375,0.44922 -1.12501,0 -2.14714,-0.24089 -3.06641,-0.72266 -0.91927,-0.48177 -1.61328,-1.17838 -2.08203,-2.08984 -0.46875,-0.91146 -0.70313,-1.92969 -0.70313,-3.05469 0,-1.11458 0.23308,-2.15494 0.69922,-3.1211 0.46615,-0.96613 1.13672,-1.68358 2.01172,-2.15234 0.875,-0.46874 1.88281,-0.70311 3.02344,-0.70312 0.82812,10e-6 1.57681,0.13412 2.24609,0.40234 0.66926,0.26824 1.194,0.64194 1.57422,1.12109 0.3802,0.47918 0.66926,1.10418 0.86719,1.875 l -1.36719,0.375 c -0.17188,-0.58332 -0.38542,-1.04165 -0.64062,-1.375 -0.25522,-0.33332 -0.6198,-0.60025 -1.09375,-0.80078 -0.47397,-0.20051 -1.00001,-0.30077 -1.57813,-0.30078 -0.69271,10e-6 -1.29167,0.10548 -1.79687,0.31641 -0.50522,0.21094 -0.91277,0.48829 -1.22266,0.83203 -0.3099,0.34376 -0.55078,0.72136 -0.72266,1.13281 -0.29167,0.70834 -0.4375,1.47657 -0.4375,2.30469 0,1.02084 0.17578,1.875 0.52735,2.5625 0.35156,0.6875 0.86328,1.19792 1.53515,1.53125 0.67187,0.33333 1.38541,0.5 2.14063,0.5 0.65624,0 1.29687,-0.1263 1.92187,-0.37891 0.62499,-0.2526 1.09895,-0.52213 1.42188,-0.80859 l 0,-2.13281 z"
         style="font-size:16px"
         id="path3113" />
      <path
         d="m 526.70322,814.953 0,-11.45312 8.28125,0 0,1.35156 -6.76563,0 0,3.50781 6.33594,0 0,1.34375 -6.33594,0 0,3.89844 7.03125,0 0,1.35156 z"
         style="font-size:16px"
         id="path3115" />
      <path
         d="m 537.3829,814.953 0,-11.45312 5.07813,0 c 1.02083,1e-5 1.79687,0.10287 2.32812,0.30859 0.53124,0.20574 0.95572,0.56902 1.27344,1.08985 0.3177,0.52084 0.47655,1.09636 0.47656,1.72656 -10e-6,0.81251 -0.26303,1.4974 -0.78906,2.05469 -0.52605,0.55729 -1.33855,0.91146 -2.4375,1.0625 0.40104,0.19271 0.70572,0.38281 0.91406,0.57031 0.4427,0.40625 0.86197,0.91406 1.25782,1.52344 l 1.99218,3.11718 -1.90625,0 -1.51562,-2.38281 c -0.44272,-0.6875 -0.8073,-1.21354 -1.09375,-1.57812 -0.28647,-0.36458 -0.54298,-0.61979 -0.76953,-0.76563 -0.22657,-0.14583 -0.45704,-0.24739 -0.69141,-0.30469 -0.17188,-0.0364 -0.45313,-0.0547 -0.84375,-0.0547 l -1.75781,0 0,5.08593 z m 1.51563,-6.39843 3.25781,0 c 0.6927,0 1.23437,-0.0716 1.625,-0.21485 0.39062,-0.14322 0.68749,-0.37239 0.89063,-0.6875 0.20311,-0.31509 0.30468,-0.65754 0.30468,-1.02734 0,-0.54166 -0.19662,-0.98697 -0.58984,-1.33594 -0.39324,-0.34895 -1.01433,-0.52343 -1.86328,-0.52344 l -3.625,0 z"
         style="font-size:16px"
         id="path3117" />
      <path
         d="m 560.17978,813.60144 0,1.35156 -7.57031,0 c -0.0104,-0.33854 0.0443,-0.66406 0.16406,-0.97656 0.19271,-0.51562 0.5013,-1.02344 0.92578,-1.52344 0.42448,-0.49999 1.03776,-1.07812 1.83984,-1.73437 1.24479,-1.02083 2.08594,-1.82942 2.52344,-2.42578 0.4375,-0.59635 0.65624,-1.16015 0.65625,-1.69141 -10e-6,-0.55728 -0.19922,-1.02733 -0.59765,-1.41016 -0.39845,-0.3828 -0.91798,-0.5742 -1.5586,-0.57421 -0.67709,10e-6 -1.21875,0.20313 -1.625,0.60937 -0.40625,0.40626 -0.61198,0.96876 -0.61719,1.6875 l -1.44531,-0.14844 c 0.099,-1.07811 0.47135,-1.89973 1.11719,-2.46484 0.64583,-0.56509 1.51302,-0.84765 2.60156,-0.84766 1.09895,10e-6 1.96875,0.3047 2.60938,0.91407 0.64061,0.60938 0.96093,1.36459 0.96093,2.26562 0,0.45834 -0.0937,0.90886 -0.28125,1.35156 -0.1875,0.44272 -0.4987,0.90886 -0.93359,1.39844 -0.4349,0.48959 -1.15756,1.16146 -2.16797,2.01563 -0.84375,0.70833 -1.38542,1.1888 -1.625,1.4414 -0.23958,0.25261 -0.4375,0.50651 -0.59375,0.76172 z"
         style="font-size:16px"
         id="path3119" />
    </g>
    <path
       style="fill:none;stroke:#464546;stroke-width:2;stroke-linecap:butt;stroke-linejoin:miter;stroke-miterlimit:4;stroke-opacity:1;stroke-dasharray:none"
       d="m 528.8049,831.27924 0,49.06013"
       id="path11912-1-1-3-6-5"
       inkscape:connector-curvature="0" />
    <path
       style="fill:none;stroke:#464546;stroke-width:2;stroke-linecap:butt;stroke-linejoin:miter;stroke-miterlimit:4;stroke-opacity:1;stroke-dasharray:none"
       d="m 353.86718,931.40169 0,99.39951"
       id="path11912-1-1-3-2"
       inkscape:connector-curvature="0" />
    <g
       style="font-size:22px;font-style:normal;font-variant:normal;font-weight:normal;font-stretch:normal;line-height:125%;letter-spacing:0px;word-spacing:0px;fill:#000000;fill-opacity:1;stroke:none;font-family:Open Sans;-inkscape-font-specification:Open Sans"
       id="text11914-9">
      <path
         d="m 290.87354,1012.9647 0,-11.4531 2.28125,0 2.71093,8.1094 c 0.25,0.7552 0.43229,1.3203 0.54688,1.6953 0.1302,-0.4167 0.33332,-1.0287 0.60937,-1.836 l 2.74219,-7.9687 2.03906,0 0,11.4531 -1.46093,0 0,-9.5859 -3.32813,9.5859 -1.36719,0 -3.3125,-9.75 0,9.75 z"
         style="font-size:16px"
         id="path3251" />
      <path
         d="m 304.26416,1012.9647 0,-11.4531 4.32031,0 c 0.76041,0 1.34114,0.036 1.74219,0.1094 0.56249,0.094 1.03385,0.2721 1.41406,0.5351 0.3802,0.2631 0.68619,0.6315 0.91797,1.1055 0.23176,0.474 0.34765,0.9948 0.34766,1.5625 -10e-6,0.974 -0.30991,1.7982 -0.92969,2.4727 -0.6198,0.6744 -1.73959,1.0117 -3.35937,1.0117 l -2.9375,0 0,4.6562 z m 1.51563,-6.0078 2.96093,0 c 0.97916,0 1.67447,-0.1823 2.08594,-0.5469 0.41145,-0.3645 0.61718,-0.8776 0.61719,-1.539 -10e-6,-0.4792 -0.1211,-0.8893 -0.36328,-1.2305 -0.2422,-0.3411 -0.56121,-0.5664 -0.95703,-0.6758 -0.25522,-0.068 -0.72657,-0.1015 -1.41407,-0.1015 l -2.92968,0 z"
         style="font-size:16px"
         id="path3253" />
    </g>
    <g
       style="font-size:22px;font-style:normal;font-variant:normal;font-weight:normal;font-stretch:normal;line-height:125%;letter-spacing:0px;word-spacing:0px;fill:#000000;fill-opacity:1;stroke:none;font-family:Open Sans;-inkscape-font-specification:Open Sans"
       id="text11914-5">
      <path
         d="m 392.62354,1012.7147 0,-11.4531 2.28125,0 2.71093,8.1094 c 0.25,0.7552 0.43229,1.3203 0.54688,1.6953 0.1302,-0.4167 0.33332,-1.0287 0.60937,-1.836 l 2.74219,-7.9687 2.03906,0 0,11.4531 -1.46093,0 0,-9.5859 -3.32813,9.5859 -1.36719,0 -3.3125,-9.75 0,9.75 z"
         style="font-size:16px"
         id="path3246" />
      <path
         d="m 406.01416,1012.7147 0,-11.4531 4.32031,0 c 0.76041,0 1.34114,0.036 1.74219,0.1094 0.56249,0.094 1.03385,0.2721 1.41406,0.5351 0.3802,0.2631 0.68619,0.6315 0.91797,1.1055 0.23176,0.474 0.34765,0.9948 0.34766,1.5625 -10e-6,0.974 -0.30991,1.7982 -0.92969,2.4727 -0.6198,0.6744 -1.73959,1.0117 -3.35937,1.0117 l -2.9375,0 0,4.6562 z m 1.51563,-6.0078 2.96093,0 c 0.97916,0 1.67447,-0.1823 2.08594,-0.5469 0.41145,-0.3645 0.61718,-0.8776 0.61719,-1.539 -10e-6,-0.4792 -0.1211,-0.8893 -0.36328,-1.2305 -0.2422,-0.3411 -0.56121,-0.5664 -0.95703,-0.6758 -0.25522,-0.068 -0.72657,-0.1015 -1.41407,-0.1015 l -2.92968,0 z"
         style="font-size:16px"
         id="path3248" />
    </g>
    <g
       style="font-size:22px;font-style:normal;font-variant:normal;font-weight:normal;font-stretch:normal;line-height:125%;letter-spacing:0px;word-spacing:0px;fill:#000000;fill-opacity:1;stroke:none;font-family:Open Sans;-inkscape-font-specification:Open Sans"
       id="text11914-0">
      <path
         d="m 484.12354,1012.7147 0,-11.4531 2.28125,0 2.71093,8.1094 c 0.25,0.7552 0.43229,1.3203 0.54688,1.6953 0.1302,-0.4167 0.33332,-1.0287 0.60937,-1.836 l 2.74219,-7.9687 2.03906,0 0,11.4531 -1.46093,0 0,-9.5859 -3.32813,9.5859 -1.36719,0 -3.3125,-9.75 0,9.75 z"
         style="font-size:16px"
         id="path3241" />
      <path
         d="m 497.51416,1012.7147 0,-11.4531 4.32031,0 c 0.76041,0 1.34114,0.036 1.74219,0.1094 0.56249,0.094 1.03385,0.2721 1.41406,0.5351 0.3802,0.2631 0.68619,0.6315 0.91797,1.1055 0.23176,0.474 0.34765,0.9948 0.34766,1.5625 -10e-6,0.974 -0.30991,1.7982 -0.92969,2.4727 -0.6198,0.6744 -1.73959,1.0117 -3.35937,1.0117 l -2.9375,0 0,4.6562 z m 1.51563,-6.0078 2.96093,0 c 0.97916,0 1.67447,-0.1823 2.08594,-0.5469 0.41145,-0.3645 0.61718,-0.8776 0.61719,-1.539 -10e-6,-0.4792 -0.1211,-0.8893 -0.36328,-1.2305 -0.2422,-0.3411 -0.56121,-0.5664 -0.95703,-0.6758 -0.25522,-0.068 -0.72657,-0.1015 -1.41407,-0.1015 l -2.92968,0 z"
         style="font-size:16px"
         id="path3243" />
    </g>
    <g
       style="font-size:22px;font-style:normal;font-variant:normal;font-weight:normal;font-stretch:normal;line-height:125%;letter-spacing:0px;word-spacing:0px;fill:#000000;fill-opacity:1;stroke:none;font-family:Open Sans;-inkscape-font-specification:Open Sans"
       id="text11914-97">
      <path
         d="m 549.37354,1013.2147 0,-11.4531 2.28125,0 2.71093,8.1094 c 0.25,0.7552 0.43229,1.3203 0.54688,1.6953 0.1302,-0.4167 0.33332,-1.0287 0.60937,-1.836 l 2.74219,-7.9687 2.03906,0 0,11.4531 -1.46093,0 0,-9.5859 -3.32813,9.5859 -1.36719,0 -3.3125,-9.75 0,9.75 z"
         style="font-size:16px"
         id="path3236" />
      <path
         d="m 562.76416,1013.2147 0,-11.4531 4.32031,0 c 0.76041,0 1.34114,0.036 1.74219,0.1094 0.56249,0.094 1.03385,0.2721 1.41406,0.5351 0.3802,0.2631 0.68619,0.6315 0.91797,1.1055 0.23176,0.474 0.34765,0.9948 0.34766,1.5625 -10e-6,0.974 -0.30991,1.7982 -0.92969,2.4727 -0.6198,0.6744 -1.73959,1.0117 -3.35937,1.0117 l -2.9375,0 0,4.6562 z m 1.51563,-6.0078 2.96093,0 c 0.97916,0 1.67447,-0.1823 2.08594,-0.5469 0.41145,-0.3645 0.61718,-0.8776 0.61719,-1.539 -10e-6,-0.4792 -0.1211,-0.8893 -0.36328,-1.2305 -0.2422,-0.3411 -0.56121,-0.5664 -0.95703,-0.6758 -0.25522,-0.068 -0.72657,-0.1015 -1.41407,-0.1015 l -2.92968,0 z"
         style="font-size:16px"
         id="path3238" />
    </g>
    <g
       style="font-size:22px;font-style:normal;font-variant:normal;font-weight:normal;font-stretch:normal;line-height:125%;letter-spacing:0px;word-spacing:0px;fill:#000000;fill-opacity:1;stroke:none;font-family:Open Sans;-inkscape-font-specification:Open Sans"
       id="text11876-17">
      <path
         d="m 273.10028,862.328 0,-10.10156 -3.77344,0 0,-1.35156 9.07813,0 0,1.35156 -3.78906,0 0,10.10156 z"
         style="font-size:16px"
         id="path3122" />
      <path
         d="m 279.99872,862.328 0,-11.45312 8.28125,0 0,1.35156 -6.76563,0 0,3.50781 6.33594,0 0,1.34375 -6.33594,0 0,3.89844 7.03125,0 0,1.35156 z"
         style="font-size:16px"
         id="path3124" />
      <path
         d="m 290.91278,862.328 0,-11.45312 1.51563,0 0,11.45312 z"
         style="font-size:16px"
         id="path3126" />
      <path
         d="m 295.02997,862.328 0,-11.45312 1.51562,0 0,10.10156 5.64063,0 0,1.35156 z"
         style="font-size:16px"
         id="path3128" />
    </g>
    <g
       style="font-size:22px;font-style:normal;font-variant:normal;font-weight:normal;font-stretch:normal;line-height:125%;letter-spacing:0px;word-spacing:0px;fill:#000000;fill-opacity:1;stroke:none;font-family:Open Sans;-inkscape-font-specification:Open Sans"
       id="text11876-63">
      <path
         d="m 339.39313,863.24695 0,-10.10156 -3.77344,0 0,-1.35157 9.07812,0 0,1.35157 -3.78906,0 0,10.10156 z"
         style="font-size:16px"
         id="path3131" />
      <path
         d="m 346.29156,863.24695 0,-11.45313 8.28125,0 0,1.35157 -6.76562,0 0,3.50781 6.33594,0 0,1.34375 -6.33594,0 0,3.89844 7.03125,0 0,1.35156 z"
         style="font-size:16px"
         id="path3133" />
      <path
         d="m 357.20563,863.24695 0,-11.45313 1.51562,0 0,11.45313 z"
         style="font-size:16px"
         id="path3135" />
      <path
         d="m 361.32281,863.24695 0,-11.45313 1.51563,0 0,10.10157 5.64062,0 0,1.35156 z"
         style="font-size:16px"
         id="path3137" />
    </g>
    <g
       style="font-size:22px;font-style:normal;font-variant:normal;font-weight:normal;font-stretch:normal;line-height:125%;letter-spacing:0px;word-spacing:0px;fill:#000000;fill-opacity:1;stroke:none;font-family:Open Sans;-inkscape-font-specification:Open Sans"
       id="text11876-4">
      <path
         d="m 409.77707,862.9491 0,-10.10157 -3.77344,0 0,-1.35156 9.07813,0 0,1.35156 -3.78907,0 0,10.10157 z"
         style="font-size:16px"
         id="path3140" />
      <path
         d="m 416.67551,862.9491 0,-11.45313 8.28125,0 0,1.35156 -6.76563,0 0,3.50782 6.33594,0 0,1.34375 -6.33594,0 0,3.89843 7.03125,0 0,1.35157 z"
         style="font-size:16px"
         id="path3142" />
      <path
         d="m 427.58957,862.9491 0,-11.45313 1.51562,0 0,11.45313 z"
         style="font-size:16px"
         id="path3144" />
      <path
         d="m 431.70676,862.9491 0,-11.45313 1.51562,0 0,10.10156 5.64063,0 0,1.35157 z"
         style="font-size:16px"
         id="path3146" />
    </g>
    <g
       style="font-size:22px;font-style:normal;font-variant:normal;font-weight:normal;font-stretch:normal;line-height:125%;letter-spacing:0px;word-spacing:0px;fill:#000000;fill-opacity:1;stroke:none;font-family:Open Sans;-inkscape-font-specification:Open Sans"
       id="text11876-636">
      <path
         d="m 480.23254,862.92371 0,-10.10157 -3.77343,0 0,-1.35156 9.07812,0 0,1.35156 -3.78906,0 0,10.10157 z"
         style="font-size:16px"
         id="path3149" />
      <path
         d="m 487.13098,862.92371 0,-11.45313 8.28125,0 0,1.35156 -6.76562,0 0,3.50782 6.33593,0 0,1.34375 -6.33593,0 0,3.89843 7.03125,0 0,1.35157 z"
         style="font-size:16px"
         id="path3151" />
      <path
         d="m 498.04504,862.92371 0,-11.45313 1.51563,0 0,11.45313 z"
         style="font-size:16px"
         id="path3153" />
      <path
         d="m 502.16223,862.92371 0,-11.45313 1.51563,0 0,10.10156 5.64062,0 0,1.35157 z"
         style="font-size:16px"
         id="path3155" />
    </g>
    <g
       style="font-size:22px;font-style:normal;font-variant:normal;font-weight:normal;font-stretch:normal;line-height:125%;letter-spacing:0px;word-spacing:0px;fill:#000000;fill-opacity:1;stroke:none;font-family:Open Sans;-inkscape-font-specification:Open Sans"
       id="text11876-49">
      <path
         d="m 546.34326,862.86316 0,-10.10156 -3.77344,0 0,-1.35157 9.07813,0 0,1.35157 -3.78906,0 0,10.10156 z"
         style="font-size:16px"
         id="path3158" />
      <path
         d="m 553.2417,862.86316 0,-11.45313 8.28125,0 0,1.35157 -6.76563,0 0,3.50781 6.33594,0 0,1.34375 -6.33594,0 0,3.89844 7.03125,0 0,1.35156 z"
         style="font-size:16px"
         id="path3160" />
      <path
         d="m 564.15576,862.86316 0,-11.45313 1.51563,0 0,11.45313 z"
         style="font-size:16px"
         id="path3162" />
      <path
         d="m 568.27295,862.86316 0,-11.45313 1.51562,0 0,10.10157 5.64063,0 0,1.35156 z"
         style="font-size:16px"
         id="path3164" />
    </g>
    <g
       style="font-size:22px;font-style:normal;font-variant:normal;font-weight:normal;font-stretch:normal;line-height:125%;letter-spacing:0px;word-spacing:0px;fill:#000000;fill-opacity:1;stroke:none;font-family:Open Sans;-inkscape-font-specification:Open Sans"
       id="text12471">
      <path
         d="m 337.7757,912.77136 -4.4375,-11.45312 1.64062,0 2.97656,8.32031 c 0.23958,0.66667 0.4401,1.29167 0.60157,1.875 0.17707,-0.625 0.3828,-1.25 0.61718,-1.875 l 3.09375,-8.32031 1.54688,0 -4.48438,11.45312 z"
         style="font-size:16px"
         id="path3167" />
      <path
         d="m 350.54913,908.27917 0,-1.34375 4.85157,-0.008 0,4.25 c -0.74481,0.59375 -1.51303,1.04037 -2.30469,1.33985 -0.79168,0.29948 -1.60418,0.44921 -2.4375,0.44921 -1.12501,0 -2.14714,-0.24088 -3.06641,-0.72265 -0.91927,-0.48177 -1.61328,-1.17839 -2.08203,-2.08985 -0.46875,-0.91145 -0.70313,-1.92968 -0.70312,-3.05468 -10e-6,-1.11458 0.23307,-2.15494 0.69921,-3.1211 0.46615,-0.96613 1.13672,-1.68358 2.01172,-2.15234 0.875,-0.46874 1.88281,-0.70311 3.02344,-0.70313 0.82812,2e-5 1.57682,0.13413 2.24609,0.40235 0.66927,0.26824 1.194,0.64194 1.57422,1.12109 0.3802,0.47918 0.66926,1.10418 0.86719,1.875 l -1.36719,0.375 c -0.17188,-0.58332 -0.38542,-1.04166 -0.64062,-1.375 -0.25522,-0.33332 -0.6198,-0.60025 -1.09375,-0.80078 -0.47397,-0.20051 -1.00001,-0.30077 -1.57813,-0.30078 -0.69271,10e-6 -1.29167,0.10548 -1.79687,0.31641 -0.50521,0.21094 -0.91277,0.48829 -1.22266,0.83203 -0.3099,0.34376 -0.55078,0.72136 -0.72265,1.13281 -0.29167,0.70834 -0.43751,1.47657 -0.4375,2.30469 -10e-6,1.02084 0.17577,1.875 0.52734,2.5625 0.35156,0.6875 0.86328,1.19792 1.53516,1.53125 0.67187,0.33333 1.38541,0.5 2.14062,0.5 0.65624,0 1.29687,-0.1263 1.92188,-0.37891 0.62499,-0.2526 1.09894,-0.52213 1.42187,-0.80859 l 0,-2.13282 z"
         style="font-size:16px"
         id="path3169" />
      <path
         d="m 366.79132,912.77136 -1.40625,0 0,-8.96094 c -0.33855,0.32293 -0.78256,0.64585 -1.33203,0.96875 -0.54948,0.32293 -1.04297,0.56512 -1.48047,0.72657 l 0,-1.35938 c 0.78646,-0.36978 1.47396,-0.8177 2.0625,-1.34375 0.58854,-0.52603 1.0052,-1.03645 1.25,-1.53125 l 0.90625,0 z"
         style="font-size:16px"
         id="path3171" />
    </g>
    <g
       style="font-size:22px;font-style:normal;font-variant:normal;font-weight:normal;font-stretch:normal;line-height:125%;letter-spacing:0px;word-spacing:0px;fill:#000000;fill-opacity:1;stroke:none;font-family:Open Sans;-inkscape-font-specification:Open Sans"
       id="text12475">
      <path
         d="m 507.95248,913.04382 -4.4375,-11.45312 1.64063,0 2.97656,8.32031 c 0.23958,0.66667 0.4401,1.29167 0.60156,1.875 0.17708,-0.625 0.38281,-1.25 0.61719,-1.875 l 3.09375,-8.32031 1.54688,0 -4.48438,11.45312 z"
         style="font-size:16px"
         id="path3174" />
      <path
         d="m 520.72592,908.55164 0,-1.34375 4.85156,-0.008 0,4.25 c -0.7448,0.59375 -1.51303,1.04037 -2.30468,1.33985 -0.79168,0.29948 -1.60418,0.44922 -2.4375,0.44922 -1.12501,0 -2.14714,-0.24089 -3.06641,-0.72266 -0.91927,-0.48177 -1.61328,-1.17838 -2.08203,-2.08984 -0.46875,-0.91146 -0.70313,-1.92969 -0.70313,-3.05469 0,-1.11458 0.23308,-2.15494 0.69922,-3.1211 0.46615,-0.96613 1.13672,-1.68358 2.01172,-2.15234 0.875,-0.46874 1.88281,-0.70311 3.02344,-0.70312 0.82812,10e-6 1.57681,0.13412 2.24609,0.40234 0.66926,0.26824 1.194,0.64194 1.57422,1.12109 0.3802,0.47918 0.66926,1.10418 0.86719,1.875 l -1.36719,0.375 c -0.17188,-0.58332 -0.38542,-1.04165 -0.64062,-1.375 -0.25522,-0.33332 -0.6198,-0.60025 -1.09375,-0.80078 -0.47397,-0.20051 -1.00001,-0.30077 -1.57813,-0.30078 -0.69271,10e-6 -1.29167,0.10548 -1.79687,0.31641 -0.50522,0.21094 -0.91277,0.48829 -1.22266,0.83203 -0.3099,0.34376 -0.55078,0.72136 -0.72266,1.13281 -0.29167,0.70834 -0.4375,1.47657 -0.4375,2.30469 0,1.02084 0.17578,1.875 0.52735,2.5625 0.35156,0.6875 0.86328,1.19792 1.53515,1.53125 0.67187,0.33333 1.38541,0.5 2.14063,0.5 0.65624,0 1.29687,-0.1263 1.92187,-0.37891 0.62499,-0.2526 1.09895,-0.52213 1.42188,-0.80859 l 0,-2.13281 z"
         style="font-size:16px"
         id="path3176" />
      <path
         d="m 539.06186,911.69226 0,1.35156 -7.57031,0 c -0.0104,-0.33854 0.0443,-0.66406 0.16406,-0.97656 0.19271,-0.51562 0.5013,-1.02343 0.92578,-1.52344 0.42448,-0.49999 1.03776,-1.07812 1.83984,-1.73437 1.24479,-1.02083 2.08594,-1.82942 2.52344,-2.42578 0.4375,-0.59635 0.65625,-1.16015 0.65625,-1.69141 0,-0.55728 -0.19922,-1.02733 -0.59765,-1.41016 -0.39845,-0.3828 -0.91798,-0.5742 -1.5586,-0.57421 -0.67709,10e-6 -1.21875,0.20313 -1.625,0.60937 -0.40625,0.40626 -0.61198,0.96876 -0.61719,1.6875 l -1.44531,-0.14844 c 0.099,-1.07811 0.47135,-1.89973 1.11719,-2.46484 0.64583,-0.56509 1.51302,-0.84765 2.60156,-0.84766 1.09895,10e-6 1.96875,0.3047 2.60938,0.91407 0.64061,0.60938 0.96093,1.36459 0.96093,2.26562 0,0.45834 -0.0937,0.90886 -0.28125,1.35156 -0.1875,0.44272 -0.4987,0.90886 -0.93359,1.39844 -0.4349,0.48959 -1.15756,1.16146 -2.16797,2.01563 -0.84375,0.70833 -1.38542,1.1888 -1.625,1.4414 -0.23958,0.25261 -0.4375,0.50651 -0.59375,0.76172 z"
         style="font-size:16px"
         id="path3178" />
    </g>
    <g
       style="font-size:22px;font-style:normal;font-variant:normal;font-weight:normal;font-stretch:normal;line-height:125%;letter-spacing:0px;word-spacing:0px;fill:#000000;fill-opacity:1;stroke:none;font-family:Open Sans;-inkscape-font-specification:Open Sans"
       id="text12479">
      <path
         d="m 287.66647,963.0741 0,-11.45313 1.51563,0 0,10.10156 5.64062,0 0,1.35157 z"
         style="font-size:16px"
         id="path3229" />
      <path
         d="m 299.90866,963.0741 -4.4375,-11.45313 1.64063,0 2.97656,8.32031 c 0.23958,0.66667 0.4401,1.29167 0.60156,1.875 0.17708,-0.62499 0.38281,-1.24999 0.61719,-1.875 l 3.09375,-8.32031 1.54687,0 -4.48437,11.45313 z"
         style="font-size:16px"
         id="path3231" />
      <path
         d="m 316.48679,963.0741 -1.40625,0 0,-8.96094 c -0.33855,0.32292 -0.78256,0.64584 -1.33204,0.96875 -0.54948,0.32292 -1.04297,0.56511 -1.48046,0.72656 l 0,-1.35937 c 0.78645,-0.36979 1.47395,-0.8177 2.0625,-1.34375 0.58853,-0.52603 1.0052,-1.03645 1.25,-1.53125 l 0.90625,0 z"
         style="font-size:16px"
         id="path3233" />
    </g>
    <g
       style="font-size:22px;font-style:normal;font-variant:normal;font-weight:normal;font-stretch:normal;line-height:125%;letter-spacing:0px;word-spacing:0px;fill:#000000;fill-opacity:1;stroke:none;font-family:Open Sans;-inkscape-font-specification:Open Sans"
       id="text12483">
      <path
         d="m 387.62195,963.12488 0,-11.45313 1.51562,0 0,10.10157 5.64063,0 0,1.35156 z"
         style="font-size:16px"
         id="path3222" />
      <path
         d="m 399.86414,963.12488 -4.4375,-11.45313 1.64062,0 2.97656,8.32032 c 0.23958,0.66666 0.4401,1.29166 0.60157,1.875 0.17707,-0.625 0.3828,-1.25 0.61718,-1.875 l 3.09375,-8.32032 1.54688,0 -4.48438,11.45313 z"
         style="font-size:16px"
         id="path3224" />
      <path
         d="m 418.53601,961.77332 0,1.35156 -7.57031,0 c -0.0104,-0.33854 0.0443,-0.66406 0.16406,-0.97656 0.19271,-0.51563 0.5013,-1.02344 0.92578,-1.52344 0.42448,-0.5 1.03776,-1.07812 1.83985,-1.73438 1.24478,-1.02083 2.08593,-1.82942 2.52343,-2.42578 0.4375,-0.59635 0.65625,-1.16015 0.65625,-1.6914 0,-0.55729 -0.19922,-1.02734 -0.59765,-1.41016 -0.39845,-0.3828 -0.91798,-0.57421 -1.5586,-0.57422 -0.67708,10e-6 -1.21875,0.20314 -1.625,0.60938 -0.40625,0.40625 -0.61198,0.96875 -0.61718,1.6875 l -1.44532,-0.14844 c 0.099,-1.07812 0.47136,-1.89973 1.11719,-2.46485 0.64583,-0.56509 1.51302,-0.84764 2.60156,-0.84765 1.09896,1e-5 1.96875,0.3047 2.60938,0.91406 0.64062,0.60939 0.96093,1.36459 0.96094,2.26563 -1e-5,0.45834 -0.0938,0.90886 -0.28125,1.35156 -0.18751,0.44271 -0.49871,0.90886 -0.9336,1.39844 -0.4349,0.48958 -1.15756,1.16146 -2.16797,2.01562 -0.84375,0.70834 -1.38542,1.1888 -1.625,1.44141 -0.23958,0.2526 -0.4375,0.50651 -0.59375,0.76172 z"
         style="font-size:16px"
         id="path3226" />
    </g>
    <g
       style="font-size:22px;font-style:normal;font-variant:normal;font-weight:normal;font-stretch:normal;line-height:125%;letter-spacing:0px;word-spacing:0px;fill:#000000;fill-opacity:1;stroke:none;font-family:Open Sans;-inkscape-font-specification:Open Sans"
       id="text12487">
      <path
         d="m 477.55042,963.00867 0,-11.45313 1.51562,0 0,10.10156 5.64063,0 0,1.35157 z"
         style="font-size:16px"
         id="path3215" />
      <path
         d="m 489.7926,963.00867 -4.4375,-11.45313 1.64063,0 2.97656,8.32031 c 0.23958,0.66667 0.4401,1.29167 0.60156,1.875 0.17708,-0.62499 0.38281,-1.24999 0.61719,-1.875 l 3.09375,-8.32031 1.54688,0 -4.48438,11.45313 z"
         style="font-size:16px"
         id="path3217" />
      <path
         d="m 501.08167,959.98523 1.40625,-0.1875 c 0.16145,0.79688 0.43619,1.3711 0.82421,1.72266 0.38802,0.35156 0.86068,0.52734 1.41797,0.52734 0.66146,0 1.22005,-0.22917 1.67578,-0.6875 0.45573,-0.45833 0.68359,-1.02604 0.6836,-1.70313 -10e-6,-0.64582 -0.21095,-1.17838 -0.63281,-1.59765 -0.42189,-0.41927 -0.95834,-0.6289 -1.60938,-0.62891 -0.26563,1e-5 -0.59636,0.0521 -0.99219,0.15625 l 0.15625,-1.23437 c 0.0937,0.0104 0.16927,0.0156 0.22657,0.0156 0.59895,1e-5 1.13801,-0.15624 1.61718,-0.46875 0.47916,-0.31249 0.71875,-0.79426 0.71875,-1.44531 0,-0.51562 -0.17448,-0.9427 -0.52343,-1.28125 -0.34897,-0.33853 -0.79949,-0.5078 -1.35157,-0.50781 -0.54688,10e-6 -1.0026,0.17188 -1.36718,0.51562 -0.36459,0.34376 -0.59897,0.85939 -0.70313,1.54688 l -1.40625,-0.25 c 0.17187,-0.9427 0.5625,-1.67317 1.17188,-2.19141 0.60937,-0.51822 1.36718,-0.77733 2.27343,-0.77734 0.625,10e-6 1.20052,0.13412 1.72657,0.40234 0.52603,0.26824 0.92837,0.63413 1.20703,1.09766 0.27863,0.46355 0.41796,0.95574 0.41797,1.47656 -10e-6,0.4948 -0.13282,0.94532 -0.39844,1.35156 -0.26563,0.40626 -0.65886,0.72918 -1.17969,0.96875 0.67708,0.15626 1.20312,0.48048 1.57813,0.97266 0.37499,0.49219 0.56249,1.10808 0.5625,1.84765 -10e-6,1.00001 -0.3646,1.84766 -1.09375,2.54297 -0.72918,0.69532 -1.65105,1.04297 -2.76563,1.04297 -1.00521,0 -1.83985,-0.29948 -2.50391,-0.89844 -0.66406,-0.59895 -1.04297,-1.37499 -1.13671,-2.32812 z"
         style="font-size:16px"
         id="path3219" />
    </g>
    <g
       style="font-size:22px;font-style:normal;font-variant:normal;font-weight:normal;font-stretch:normal;line-height:125%;letter-spacing:0px;word-spacing:0px;fill:#000000;fill-opacity:1;stroke:none;font-family:Open Sans;-inkscape-font-specification:Open Sans"
       id="text12491">
      <path
         d="m 546.81836,962.86218 0,-11.45312 1.51562,0 0,10.10156 5.64063,0 0,1.35156 z"
         style="font-size:16px"
         id="path3208" />
      <path
         d="m 559.06055,962.86218 -4.4375,-11.45312 1.64062,0 2.97656,8.32031 c 0.23958,0.66667 0.4401,1.29167 0.60157,1.875 0.17707,-0.625 0.3828,-1.25 0.61718,-1.875 l 3.09375,-8.32031 1.54688,0 -4.48438,11.45312 z"
         style="font-size:16px"
         id="path3210" />
      <path
         d="m 570.41211,962.86218 0,-2.74218 -4.96875,0 0,-1.28907 5.22656,-7.42187 1.14844,0 0,7.42187 1.54687,0 0,1.28907 -1.54687,0 0,2.74218 z m 0,-4.03125 0,-5.16406 -3.58594,5.16406 z"
         style="font-size:16px"
         id="path3212" />
    </g>
  </g>
</svg>
