<?xml version="1.0" encoding="UTF-8" standalone="no"?>
<!-- Created with Inkscape (http://www.inkscape.org/) -->

<svg
   xmlns:dc="http://purl.org/dc/elements/1.1/"
   xmlns:cc="http://creativecommons.org/ns#"
   xmlns:rdf="http://www.w3.org/1999/02/22-rdf-syntax-ns#"
   xmlns:svg="http://www.w3.org/2000/svg"
   xmlns="http://www.w3.org/2000/svg"
   xmlns:sodipodi="http://sodipodi.sourceforge.net/DTD/sodipodi-0.dtd"
   xmlns:inkscape="http://www.inkscape.org/namespaces/inkscape"
   width="615"
   height="290"
   id="svg10908"
   version="1.1"
   inkscape:version="0.48.1 "
   sodipodi:docname="lvm.svg">
  <defs
     id="defs10910">
    <inkscape:perspective
       sodipodi:type="inkscape:persp3d"
       inkscape:vp_x="0 : 526.18109 : 1"
       inkscape:vp_y="0 : 1000 : 0"
       inkscape:vp_z="800 : 526.18109 : 1"
       inkscape:persp3d-origin="400 : 350.78739 : 1"
       id="perspective11780" />
  </defs>
  <sodipodi:namedview
     id="base"
     pagecolor="#ffffff"
     bordercolor="#666666"
     borderopacity="1.0"
     inkscape:pageopacity="1"
     inkscape:pageshadow="2"
     inkscape:zoom="2"
     inkscape:cx="372.52941"
     inkscape:cy="128.57692"
     inkscape:document-units="px"
     inkscape:current-layer="layer1"
     showgrid="true"
     inkscape:window-width="1920"
     inkscape:window-height="1033"
     inkscape:window-x="-4"
     inkscape:window-y="-4"
     inkscape:window-maximized="1">
    <inkscape:grid
       type="xygrid"
       id="grid11700"
       empspacing="5"
       visible="true"
       enabled="true"
       snapvisiblegridlinesonly="true" />
  </sodipodi:namedview>
  <metadata
     id="metadata10913">
    <rdf:RDF>
      <cc:Work
         rdf:about="">
        <dc:format>image/svg+xml</dc:format>
        <dc:type
           rdf:resource="http://purl.org/dc/dcmitype/StillImage" />
        <dc:title />
      </cc:Work>
    </rdf:RDF>
  </metadata>
  <g
     inkscape:label="Ebene 1"
     inkscape:groupmode="layer"
     id="layer1"
     transform="translate(0,-762.36218)">
    <rect
       style="opacity:0.99000005;fill:#7ac142;fill-opacity:1;fill-rule:nonzero;stroke:#464546;stroke-width:2.96099997;stroke-linecap:butt;stroke-linejoin:miter;stroke-miterlimit:4;stroke-opacity:1;stroke-dasharray:none"
       id="rect11698"
       width="207.03893"
       height="247.03891"
       x="21.480541"
       y="783.84271"
       rx="8.2815561"
       ry="8.4026842" />
    <g
       style="font-size:22px;font-style:normal;font-variant:normal;font-weight:normal;font-stretch:normal;line-height:125%;letter-spacing:0px;word-spacing:0px;fill:#000000;fill-opacity:1;stroke:none;font-family:Open Sans;-inkscape-font-specification:Open Sans"
       id="text11756">
      <path
         d="m 107.92676,799.64148 -6.72461,0 c -0.67318,2e-5 -1.210292,0.19337 -1.61133,0.58008 -0.372399,0.37241 -0.558596,0.87371 -0.558593,1.5039 l 0,11.10743 c -3e-6,0.74479 0.207679,1.31771 0.623046,1.71875 0.401037,0.38672 0.995437,0.58007 1.783207,0.58007 1.74739,0 3.37303,-0.13606 4.87695,-0.4082 1.67577,-0.30078 3.08657,-0.75195 4.23242,-1.35351 0.18618,-0.11459 0.30793,-0.25781 0.36524,-0.42969 0.0716,-0.17187 0.0716,-0.32943 0,-0.47266 -0.0573,-0.15755 -0.15757,-0.25781 -0.30079,-0.30078 -0.15756,-0.0573 -0.32944,-0.0286 -0.51562,0.0859 -1.04559,0.54427 -2.33465,0.98112 -3.86719,1.31054 -1.51824,0.31511 -3.10092,0.47266 -4.74804,0.47266 -0.40105,0 -0.69467,-0.0931 -0.88086,-0.2793 -0.20053,-0.20051 -0.30079,-0.50846 -0.30079,-0.92382 l 0,-11.04297 c 0,-0.38671 0.0644,-0.65884 0.19336,-0.81641 0.14323,-0.15754 0.39388,-0.23631 0.75196,-0.23633 l 6.66015,0 c 0.41536,2e-5 0.6302,-0.18618 0.64453,-0.55859 -1e-5,-0.35806 -0.20769,-0.53709 -0.62304,-0.53711 z m 6.03711,16.65039 0,-16.71484 c -2e-5,-0.18619 -0.0716,-0.33658 -0.21485,-0.45118 -0.1146,-0.0859 -0.25783,-0.12888 -0.42968,-0.1289 -0.18622,2e-5 -0.33661,0.043 -0.45118,0.1289 -0.12892,0.1146 -0.19337,0.26499 -0.19336,0.45118 l 0,16.71484 c -1e-5,0.20052 0.0644,0.36523 0.19336,0.49414 0.11457,0.11458 0.26496,0.17187 0.45118,0.17188 0.17185,-10e-6 0.31508,-0.0573 0.42968,-0.17188 0.14321,-0.12891 0.21483,-0.29362 0.21485,-0.49414 z"
         style="font-family:Gulim;-inkscape-font-specification:Gulim"
         id="path3049" />
      <path
         d="m 128.42285,799.89929 c -1e-5,2.22007 -0.76628,4.11785 -2.29883,5.69336 -1.31771,1.36069 -2.86459,2.22006 -4.64062,2.57813 -0.22917,0.043 -0.39388,0.13607 -0.49414,0.27929 -0.10027,0.11459 -0.14323,0.25066 -0.12891,0.40821 0.0286,0.14323 0.10742,0.25782 0.23633,0.34375 0.14323,0.0859 0.32226,0.11459 0.53711,0.0859 1.73307,-0.34374 3.30859,-1.16731 4.72656,-2.4707 1.36067,-1.21744 2.25585,-2.54947 2.68555,-3.99609 0.45832,1.4323 1.3535,2.76433 2.68555,3.99609 1.40363,1.28907 2.93618,2.10548 4.59765,2.44922 0.24347,0.043 0.45115,0.0215 0.62305,-0.0644 0.14321,-0.0859 0.22915,-0.20768 0.25781,-0.36524 0.043,-0.15754 0.0143,-0.30077 -0.0859,-0.42969 -0.1146,-0.14322 -0.27931,-0.23632 -0.49414,-0.27929 -1.87632,-0.38671 -3.459,-1.24609 -4.74804,-2.57813 -1.47528,-1.53254 -2.21291,-3.40168 -2.21289,-5.60742 -2e-5,-0.22915 -0.0716,-0.41535 -0.21485,-0.55859 -0.11459,-0.11457 -0.25066,-0.17186 -0.4082,-0.17188 -0.17189,2e-5 -0.31512,0.0573 -0.42969,0.17188 -0.12892,0.12892 -0.19337,0.30079 -0.19336,0.51562 z m 8.95899,14.48047 -16.67188,0 c -0.42969,0 -0.64453,0.17904 -0.64453,0.53711 0,0.3724 0.21484,0.55859 0.64453,0.55859 l 16.69336,0 c 0.18618,0 0.33657,-0.0573 0.45117,-0.17187 0.11457,-0.11458 0.17186,-0.24349 0.17188,-0.38672 -2e-5,-0.14323 -0.0573,-0.27213 -0.17188,-0.38672 -0.1146,-0.10026 -0.27215,-0.15039 -0.47265,-0.15039 z"
         style="font-family:Gulim;-inkscape-font-specification:Gulim"
         id="path3051" />
      <path
         d="m 156.15918,805.87195 c -1.71876,0.20053 -3.76694,0.35808 -6.14453,0.47265 -2.17709,0.1146 -4.22527,0.17189 -6.14453,0.17188 -0.42969,10e-6 -0.63738,0.17905 -0.62305,0.53711 0.0286,0.3724 0.23632,0.5586 0.62305,0.55859 1.91926,1e-5 4.01041,-0.0644 6.27343,-0.19336 2.20572,-0.12889 4.23241,-0.29361 6.08008,-0.49414 0.35806,-0.043 0.52277,-0.24348 0.49414,-0.60156 -0.0287,-0.35806 -0.21486,-0.50845 -0.55859,-0.45117 z m -0.12891,-6.31641 -11.55859,0 c -0.38672,2e-5 -0.58008,0.18622 -0.58008,0.5586 0,0.37241 0.1862,0.5586 0.5586,0.55859 l 11.51562,0 c 0.35806,10e-6 0.62303,0.0716 0.79492,0.21484 0.17186,0.12892 0.2578,0.33661 0.25781,0.62305 l 0,4.14648 c -1e-5,2.13413 -0.0716,3.681 -0.21484,4.64063 -0.18621,1.31771 -0.58725,2.67839 -1.20312,4.08203 l 1.31054,0 c 0.5729,-1.41797 0.95246,-2.7858 1.13867,-4.10351 0.17186,-1.11719 0.2578,-2.70703 0.25782,-4.76954 l 0,-4.06054 c -2e-5,-0.5729 -0.21486,-1.03124 -0.64453,-1.375 -0.42971,-0.34374 -0.97398,-0.51561 -1.63282,-0.51563 z m 3.33008,14.82422 -16.65039,0 c -0.20052,0 -0.35807,0.0501 -0.47266,0.15039 -0.10026,0.11459 -0.15755,0.24349 -0.17187,0.38672 -0.0143,0.14323 0.0215,0.27214 0.10742,0.38672 0.0859,0.11458 0.20768,0.17187 0.36524,0.17187 l 16.99414,0 c 0.15753,0 0.27927,-0.0573 0.36523,-0.17187 0.0859,-0.11458 0.12889,-0.24349 0.12891,-0.38672 -0.0143,-0.14323 -0.0788,-0.27213 -0.19336,-0.38672 -0.11461,-0.10026 -0.27216,-0.15039 -0.47266,-0.15039 z"
         style="font-family:Gulim;-inkscape-font-specification:Gulim"
         id="path3053" />
    </g>
    <path
       style="fill:none;stroke:#464546;stroke-width:2;stroke-linecap:butt;stroke-linejoin:miter;stroke-miterlimit:4;stroke-opacity:1;stroke-dasharray:none"
       d="m 21.483272,980.35374 207.806898,0"
       id="path11866"
       inkscape:connector-curvature="0" />
    <path
       style="fill:none;stroke:#464546;stroke-width:2;stroke-linecap:butt;stroke-linejoin:miter;stroke-miterlimit:4;stroke-opacity:1;stroke-dasharray:none"
       d="m 21.484175,830.3542 208.195365,0"
       id="path11874"
       inkscape:connector-curvature="0" />
    <g
       style="font-size:22px;font-style:normal;font-variant:normal;font-weight:normal;font-stretch:normal;line-height:125%;letter-spacing:0px;word-spacing:0px;fill:#000000;fill-opacity:1;stroke:none;font-family:Open Sans;-inkscape-font-specification:Open Sans"
       id="text11876">
      <path
         d="m 51.87125,902.18445 0,2.10547 c -1.7e-5,0.3724 -0.07879,0.63022 -0.236328,0.77343 -0.157569,0.15757 -0.422542,0.23634 -0.794922,0.23633 l -9.882812,0 c -0.386725,1e-5 -0.65886,-0.0859 -0.816407,-0.25781 -0.143234,-0.14322 -0.214848,-0.39387 -0.214843,-0.75195 l 0,-2.10547 z m 0,-2.81445 0,1.74023 -11.945312,0 0,-1.74023 c -5e-6,-0.20051 -0.07162,-0.35806 -0.214844,-0.47266 -0.114588,-0.11457 -0.257817,-0.17186 -0.429688,-0.17188 -0.186202,2e-5 -0.336592,0.0573 -0.451171,0.17188 -0.128911,0.1146 -0.193364,0.27931 -0.19336,0.49414 l 0,5.15625 c -4e-6,0.51563 0.157548,0.94532 0.472656,1.28906 0.343746,0.35808 0.802079,0.53712 1.375,0.53711 l 10.591797,0 c 0.673161,10e-6 1.188785,-0.1647 1.546875,-0.49414 0.358055,-0.31509 0.537091,-0.75194 0.53711,-1.31055 l 0,-5.2207 c -1.9e-5,-0.2005 -0.07163,-0.35806 -0.214844,-0.47266 -0.114601,-0.10024 -0.25783,-0.15037 -0.429688,-0.15039 -0.186215,2e-5 -0.336605,0.0573 -0.451171,0.17188 -0.128924,0.1146 -0.193377,0.27215 -0.19336,0.47266 z m 2.40625,9.4746 -16.714844,0 c -0.401044,10e-6 -0.608726,0.17905 -0.623046,0.53711 -0.01432,0.37241 0.164711,0.5586 0.537109,0.5586 l 7.798828,0 0,5.75781 c -1e-5,0.20052 0.06444,0.36523 0.193359,0.49414 0.114573,0.10026 0.257802,0.15039 0.429688,0.15039 0.157541,0 0.293608,-0.0573 0.408203,-0.17187 0.143218,-0.12891 0.214832,-0.29362 0.214844,-0.49414 l 0,-5.73633 7.798828,0 c 0.372376,0 0.558574,-0.18619 0.558594,-0.5586 -0.01434,-0.35806 -0.214864,-0.5371 -0.601563,-0.53711 z"
         style="font-family:Gulim;-inkscape-font-specification:Gulim"
         id="path3079" />
      <path
         d="m 74.773594,898.70398 -13.792969,0 c -0.401045,2e-5 -0.594404,0.17905 -0.580078,0.53711 -3e-6,0.37241 0.193356,0.55861 0.580078,0.55859 l 13.857422,0 c 0.171857,2e-5 0.315086,-0.0573 0.429688,-0.17187 0.08592,-0.11457 0.128887,-0.24348 0.128906,-0.38672 -1.9e-5,-0.14321 -0.05731,-0.27212 -0.171875,-0.38672 -0.114602,-0.10024 -0.264992,-0.15037 -0.451172,-0.15039 z m 0.06445,5.11328 -2.642578,0 0.666016,-3.00781 c 0.04295,-0.18619 0.0071,-0.34374 -0.107422,-0.47266 -0.100277,-0.11457 -0.243506,-0.17902 -0.429688,-0.19336 -0.17189,-0.0143 -0.329442,0.0215 -0.472656,0.10742 -0.157567,0.086 -0.243504,0.22919 -0.257813,0.42969 l -0.666015,3.13672 -6.058594,0 -0.666016,-3.20117 c -0.02865,-0.20051 -0.11459,-0.3509 -0.257812,-0.45117 -0.143236,-0.0859 -0.300788,-0.12173 -0.472656,-0.10742 -0.171882,0.0143 -0.307949,0.0788 -0.408203,0.19335 -0.11459,0.12893 -0.150397,0.29364 -0.107422,0.49415 l 0.644531,3.07226 -2.642578,0 c -0.3724,10e-6 -0.558597,0.17905 -0.558594,0.53711 -0.01433,0.37241 0.150387,0.5586 0.494141,0.55859 l 14.050781,0 c 0.329409,10e-6 0.479799,-0.18618 0.451172,-0.55859 -0.01434,-0.35806 -0.200539,-0.5371 -0.558594,-0.53711 z m 1.460938,2.90039 -16.736329,0 c -0.429689,10e-6 -0.644533,0.17188 -0.644531,0.51563 -2e-6,0.35808 0.20768,0.53711 0.623047,0.53711 l 7.734375,0 0,1.7832 c -1e-5,0.20053 0.06444,0.36524 0.193359,0.49414 0.114573,0.10027 0.257802,0.1504 0.429688,0.15039 0.157541,10e-6 0.293608,-0.0573 0.408203,-0.17187 0.143218,-0.12891 0.214832,-0.30078 0.214844,-0.51563 l 0,-1.74023 7.820312,0 c 0.358053,0 0.53709,-0.17903 0.53711,-0.53711 -0.01434,-0.34375 -0.207702,-0.51562 -0.580078,-0.51563 z m -3.029297,3.11524 -10.828125,0 c -0.558599,0 -1.002609,0.15039 -1.332032,0.45117 -0.315108,0.30078 -0.47266,0.71615 -0.472656,1.24609 l 0,2.68555 c -4e-6,0.5013 0.157548,0.89518 0.472656,1.18164 0.300777,0.28646 0.737626,0.42969 1.310547,0.42969 l 11.021485,0 c 0.515608,0 0.930972,-0.15756 1.246093,-0.47266 0.315086,-0.30078 0.472638,-0.69466 0.472657,-1.18164 l 0,-2.81445 c -1.9e-5,-0.45833 -0.179055,-0.82357 -0.53711,-1.09571 -0.343767,-0.28645 -0.794939,-0.42968 -1.353515,-0.42968 z m 0.601562,1.82617 0,2.38476 c -1.7e-5,0.24349 -0.07879,0.42253 -0.236328,0.53711 -0.143246,0.10026 -0.372412,0.15039 -0.6875,0.15039 l -10.054687,0 c -0.372402,0 -0.630214,-0.0573 -0.773438,-0.17187 -0.128911,-0.11458 -0.193364,-0.3151 -0.193359,-0.60156 l 0,-2.23438 c -5e-6,-0.28645 0.05729,-0.48697 0.171875,-0.60156 0.143223,-0.1289 0.386713,-0.19336 0.730468,-0.19336 l 10.076172,0 c 0.329411,0 0.5729,0.0573 0.730469,0.17187 0.157535,0.10027 0.236311,0.28647 0.236328,0.5586 z"
         style="font-family:Gulim;-inkscape-font-specification:Gulim"
         id="path3081" />
    </g>
    <g
       style="font-size:22px;font-style:normal;font-variant:normal;font-weight:normal;font-stretch:normal;line-height:125%;letter-spacing:0px;word-spacing:0px;fill:#000000;fill-opacity:1;stroke:none;font-family:Open Sans;-inkscape-font-specification:Open Sans"
       id="text11876-6">
      <path
         d="m 122.04614,902.18445 0,2.10547 c -10e-6,0.3724 -0.0788,0.63022 -0.23633,0.77343 -0.15756,0.15757 -0.42254,0.23634 -0.79492,0.23633 l -9.88281,0 c -0.38672,1e-5 -0.65886,-0.0859 -0.81641,-0.25781 -0.14323,-0.14322 -0.21484,-0.39387 -0.21484,-0.75195 l 0,-2.10547 z m 0,-2.81445 0,1.74023 -11.94531,0 0,-1.74023 c 0,-0.20051 -0.0716,-0.35806 -0.21484,-0.47266 -0.11459,-0.11457 -0.25782,-0.17186 -0.42969,-0.17188 -0.1862,2e-5 -0.33659,0.0573 -0.45117,0.17188 -0.12891,0.1146 -0.19337,0.27931 -0.19336,0.49414 l 0,5.15625 c -10e-6,0.51563 0.15755,0.94532 0.47265,1.28906 0.34375,0.35808 0.80208,0.53712 1.375,0.53711 l 10.5918,0 c 0.67316,10e-6 1.18879,-0.1647 1.54688,-0.49414 0.35805,-0.31509 0.53709,-0.75194 0.53711,-1.31055 l 0,-5.2207 c -2e-5,-0.2005 -0.0716,-0.35806 -0.21485,-0.47266 -0.1146,-0.10024 -0.25783,-0.15037 -0.42969,-0.15039 -0.18621,2e-5 -0.3366,0.0573 -0.45117,0.17188 -0.12892,0.1146 -0.19337,0.27215 -0.19336,0.47266 z m 2.40625,9.4746 -16.71484,0 c -0.40105,10e-6 -0.60873,0.17905 -0.62305,0.53711 -0.0143,0.37241 0.16471,0.5586 0.53711,0.5586 l 7.79883,0 0,5.75781 c -1e-5,0.20052 0.0644,0.36523 0.19336,0.49414 0.11457,0.10026 0.2578,0.15039 0.42969,0.15039 0.15754,0 0.2936,-0.0573 0.4082,-0.17187 0.14322,-0.12891 0.21483,-0.29362 0.21484,-0.49414 l 0,-5.73633 7.79883,0 c 0.37238,0 0.55858,-0.18619 0.5586,-0.5586 -0.0144,-0.35806 -0.21487,-0.5371 -0.60157,-0.53711 z"
         style="font-family:Gulim;-inkscape-font-specification:Gulim"
         id="path3084" />
      <path
         d="m 144.94849,898.70398 -13.79297,0 c -0.40105,2e-5 -0.59441,0.17905 -0.58008,0.53711 0,0.37241 0.19336,0.55861 0.58008,0.55859 l 13.85742,0 c 0.17186,2e-5 0.31509,-0.0573 0.42969,-0.17187 0.0859,-0.11457 0.12888,-0.24348 0.1289,-0.38672 -2e-5,-0.14321 -0.0573,-0.27212 -0.17187,-0.38672 -0.1146,-0.10024 -0.26499,-0.15037 -0.45117,-0.15039 z m 0.0644,5.11328 -2.64258,0 0.66602,-3.00781 c 0.0429,-0.18619 0.007,-0.34374 -0.10742,-0.47266 -0.10028,-0.11457 -0.24351,-0.17902 -0.42969,-0.19336 -0.17189,-0.0143 -0.32944,0.0215 -0.47266,0.10742 -0.15757,0.086 -0.2435,0.22919 -0.25781,0.42969 l -0.66602,3.13672 -6.05859,0 -0.66602,-3.20117 c -0.0286,-0.20051 -0.11459,-0.3509 -0.25781,-0.45117 -0.14323,-0.0859 -0.30079,-0.12173 -0.47265,-0.10742 -0.17189,0.0143 -0.30795,0.0788 -0.40821,0.19335 -0.11459,0.12893 -0.15039,0.29364 -0.10742,0.49415 l 0.64453,3.07226 -2.64258,0 c -0.3724,10e-6 -0.55859,0.17905 -0.55859,0.53711 -0.0143,0.37241 0.15039,0.5586 0.49414,0.55859 l 14.05078,0 c 0.32941,10e-6 0.4798,-0.18618 0.45117,-0.55859 -0.0143,-0.35806 -0.20054,-0.5371 -0.55859,-0.53711 z m 1.46094,2.90039 -16.73633,0 c -0.42969,10e-6 -0.64453,0.17188 -0.64453,0.51563 0,0.35808 0.20768,0.53711 0.62304,0.53711 l 7.73438,0 0,1.7832 c -10e-6,0.20053 0.0644,0.36524 0.19336,0.49414 0.11457,0.10027 0.2578,0.1504 0.42969,0.15039 0.15754,10e-6 0.2936,-0.0573 0.4082,-0.17187 0.14322,-0.12891 0.21483,-0.30078 0.21484,-0.51563 l 0,-1.74023 7.82032,0 c 0.35805,0 0.53709,-0.17903 0.53711,-0.53711 -0.0143,-0.34375 -0.20771,-0.51562 -0.58008,-0.51563 z m -3.0293,3.11524 -10.82812,0 c -0.5586,0 -1.00261,0.15039 -1.33204,0.45117 -0.3151,0.30078 -0.47266,0.71615 -0.47265,1.24609 l 0,2.68555 c -1e-5,0.5013 0.15755,0.89518 0.47265,1.18164 0.30078,0.28646 0.73763,0.42969 1.31055,0.42969 l 11.02149,0 c 0.5156,0 0.93097,-0.15756 1.24609,-0.47266 0.31508,-0.30078 0.47264,-0.69466 0.47266,-1.18164 l 0,-2.81445 c -2e-5,-0.45833 -0.17906,-0.82357 -0.53711,-1.09571 -0.34377,-0.28645 -0.79494,-0.42968 -1.35352,-0.42968 z m 0.60156,1.82617 0,2.38476 c -1e-5,0.24349 -0.0788,0.42253 -0.23633,0.53711 -0.14324,0.10026 -0.37241,0.15039 -0.6875,0.15039 l -10.05468,0 c -0.3724,0 -0.63022,-0.0573 -0.77344,-0.17187 -0.12891,-0.11458 -0.19336,-0.3151 -0.19336,-0.60156 l 0,-2.23438 c 0,-0.28645 0.0573,-0.48697 0.17188,-0.60156 0.14322,-0.1289 0.38671,-0.19336 0.73046,-0.19336 l 10.07618,0 c 0.32941,0 0.5729,0.0573 0.73046,0.17187 0.15754,0.10027 0.23632,0.28647 0.23633,0.5586 z"
         style="font-family:Gulim;-inkscape-font-specification:Gulim"
         id="path3086" />
    </g>
    <g
       style="font-size:22px;font-style:normal;font-variant:normal;font-weight:normal;font-stretch:normal;line-height:125%;letter-spacing:0px;word-spacing:0px;fill:#000000;fill-opacity:1;stroke:none;font-family:Open Sans;-inkscape-font-specification:Open Sans"
       id="text11876-1">
      <path
         d="m 192.17461,902.18445 0,2.10547 c -2e-5,0.3724 -0.0788,0.63022 -0.23633,0.77343 -0.15757,0.15757 -0.42254,0.23634 -0.79492,0.23633 l -9.88282,0 c -0.38672,1e-5 -0.65886,-0.0859 -0.8164,-0.25781 -0.14324,-0.14322 -0.21485,-0.39387 -0.21485,-0.75195 l 0,-2.10547 z m 0,-2.81445 0,1.74023 -11.94532,0 0,-1.74023 c 0,-0.20051 -0.0716,-0.35806 -0.21484,-0.47266 -0.11459,-0.11457 -0.25782,-0.17186 -0.42969,-0.17188 -0.1862,2e-5 -0.33659,0.0573 -0.45117,0.17188 -0.12891,0.1146 -0.19336,0.27931 -0.19336,0.49414 l 0,5.15625 c 0,0.51563 0.15755,0.94532 0.47266,1.28906 0.34374,0.35808 0.80208,0.53712 1.375,0.53711 l 10.59179,0 c 0.67316,10e-6 1.18879,-0.1647 1.54688,-0.49414 0.35805,-0.31509 0.53709,-0.75194 0.53711,-1.31055 l 0,-5.2207 c -2e-5,-0.2005 -0.0716,-0.35806 -0.21484,-0.47266 -0.11461,-0.10024 -0.25784,-0.15037 -0.42969,-0.15039 -0.18622,2e-5 -0.33661,0.0573 -0.45117,0.17188 -0.12893,0.1146 -0.19338,0.27215 -0.19336,0.47266 z m 2.40625,9.4746 -16.71485,0 c -0.40104,10e-6 -0.60872,0.17905 -0.62304,0.53711 -0.0143,0.37241 0.16471,0.5586 0.53711,0.5586 l 7.79882,0 0,5.75781 c -1e-5,0.20052 0.0644,0.36523 0.19336,0.49414 0.11458,0.10026 0.2578,0.15039 0.42969,0.15039 0.15754,0 0.29361,-0.0573 0.4082,-0.17187 0.14322,-0.12891 0.21484,-0.29362 0.21485,-0.49414 l 0,-5.73633 7.79883,0 c 0.37237,0 0.55857,-0.18619 0.55859,-0.5586 -0.0143,-0.35806 -0.21486,-0.5371 -0.60156,-0.53711 z"
         style="font-family:Gulim;-inkscape-font-specification:Gulim"
         id="path3089" />
      <path
         d="m 215.07695,898.70398 -13.79297,0 c -0.40104,2e-5 -0.5944,0.17905 -0.58008,0.53711 0,0.37241 0.19336,0.55861 0.58008,0.55859 l 13.85742,0 c 0.17186,2e-5 0.31509,-0.0573 0.42969,-0.17187 0.0859,-0.11457 0.12889,-0.24348 0.12891,-0.38672 -2e-5,-0.14321 -0.0573,-0.27212 -0.17188,-0.38672 -0.1146,-0.10024 -0.26499,-0.15037 -0.45117,-0.15039 z m 0.0644,5.11328 -2.64257,0 0.66601,-3.00781 c 0.0429,-0.18619 0.007,-0.34374 -0.10742,-0.47266 -0.10028,-0.11457 -0.24351,-0.17902 -0.42969,-0.19336 -0.17189,-0.0143 -0.32944,0.0215 -0.47265,0.10742 -0.15757,0.086 -0.24351,0.22919 -0.25782,0.42969 l -0.66601,3.13672 -6.0586,0 -0.66601,-3.20117 c -0.0287,-0.20051 -0.11459,-0.3509 -0.25781,-0.45117 -0.14324,-0.0859 -0.30079,-0.12173 -0.47266,-0.10742 -0.17188,0.0143 -0.30795,0.0788 -0.4082,0.19335 -0.11459,0.12893 -0.1504,0.29364 -0.10743,0.49415 l 0.64454,3.07226 -2.64258,0 c -0.3724,10e-6 -0.5586,0.17905 -0.5586,0.53711 -0.0143,0.37241 0.15039,0.5586 0.49414,0.55859 l 14.05079,0 c 0.3294,10e-6 0.47979,-0.18618 0.45117,-0.55859 -0.0143,-0.35806 -0.20054,-0.5371 -0.5586,-0.53711 z m 1.46094,2.90039 -16.73633,0 c -0.42969,10e-6 -0.64453,0.17188 -0.64453,0.51563 0,0.35808 0.20768,0.53711 0.62305,0.53711 l 7.73437,0 0,1.7832 c -1e-5,0.20053 0.0644,0.36524 0.19336,0.49414 0.11458,0.10027 0.2578,0.1504 0.42969,0.15039 0.15754,10e-6 0.29361,-0.0573 0.4082,-0.17187 0.14322,-0.12891 0.21484,-0.30078 0.21485,-0.51563 l 0,-1.74023 7.82031,0 c 0.35805,0 0.53709,-0.17903 0.53711,-0.53711 -0.0143,-0.34375 -0.2077,-0.51562 -0.58008,-0.51563 z m -3.0293,3.11524 -10.82812,0 c -0.5586,0 -1.00261,0.15039 -1.33203,0.45117 -0.31511,0.30078 -0.47266,0.71615 -0.47266,1.24609 l 0,2.68555 c 0,0.5013 0.15755,0.89518 0.47266,1.18164 0.30077,0.28646 0.73762,0.42969 1.31054,0.42969 l 11.02149,0 c 0.51561,0 0.93097,-0.15756 1.24609,-0.47266 0.31509,-0.30078 0.47264,-0.69466 0.47266,-1.18164 l 0,-2.81445 c -2e-5,-0.45833 -0.17906,-0.82357 -0.53711,-1.09571 -0.34377,-0.28645 -0.79494,-0.42968 -1.35352,-0.42968 z m 0.60157,1.82617 0,2.38476 c -2e-5,0.24349 -0.0788,0.42253 -0.23633,0.53711 -0.14325,0.10026 -0.37241,0.15039 -0.6875,0.15039 l -10.05469,0 c -0.3724,0 -0.63021,-0.0573 -0.77344,-0.17187 -0.12891,-0.11458 -0.19336,-0.3151 -0.19336,-0.60156 l 0,-2.23438 c 0,-0.28645 0.0573,-0.48697 0.17188,-0.60156 0.14322,-0.1289 0.38671,-0.19336 0.73047,-0.19336 l 10.07617,0 c 0.32941,0 0.5729,0.0573 0.73047,0.17187 0.15753,0.10027 0.23631,0.28647 0.23633,0.5586 z"
         style="font-family:Gulim;-inkscape-font-specification:Gulim"
         id="path3091" />
    </g>
    <path
       style="fill:none;stroke:#464546;stroke-width:2;stroke-linecap:butt;stroke-linejoin:miter;stroke-miterlimit:4;stroke-opacity:1;stroke-dasharray:none"
       d="m 92.052539,830.74357 0,200.22103"
       id="path11910"
       inkscape:connector-curvature="0" />
    <path
       style="fill:none;stroke:#464546;stroke-width:2;stroke-linecap:butt;stroke-linejoin:miter;stroke-miterlimit:4;stroke-opacity:1;stroke-dasharray:none"
       d="m 162.07313,831.04273 0,199.91357"
       id="path11912"
       inkscape:connector-curvature="0" />
    <g
       style="font-size:22px;font-style:normal;font-variant:normal;font-weight:normal;font-stretch:normal;line-height:125%;letter-spacing:0px;word-spacing:0px;fill:#000000;fill-opacity:1;stroke:none;font-family:Open Sans;-inkscape-font-specification:Open Sans"
       id="text11914">
      <path
         d="m 55.4352,1015.0507 0,-15.356 -2.288086,0 -4.927979,13.4204 -5.01593,-13.4204 -2.243774,0 0,15.356 1.804016,0 0,-11.1538 0.198059,-0.066 4.00415,11.2196 2.441834,0 4.00415,-11.1981 0.219544,0.044 0,11.1538 z"
         style="font-family:YDIYGO130;-inkscape-font-specification:YDIYGO130"
         id="path3156" />
      <path
         d="m 64.695637,999.56311 -6.358032,0 0,15.57549 2.002075,0 0,-6.1378 4.355957,0 c 1.49584,0 2.757151,-0.4473 3.783935,-1.3418 1.026762,-0.8945 1.540148,-2.0384 1.540161,-3.4318 -1.3e-5,-1.4228 -0.513399,-2.5559 -1.540161,-3.3992 -1.026784,-0.84324 -2.288095,-1.26488 -3.783935,-1.26489 z m 0,7.58999 -4.355957,0 0,-5.7423 4.355957,0 c 0.80655,0 1.536235,0.2127 2.189056,0.6381 0.652801,0.4255 0.979207,1.1516 0.979218,2.1783 -1.1e-5,1.0264 -0.326417,1.7706 -0.979218,2.2327 -0.652821,0.4622 -1.382506,0.6932 -2.189056,0.6932 z"
         style="font-family:YDIYGO130;-inkscape-font-specification:YDIYGO130"
         id="path3158" />
    </g>
    <g
       style="font-size:22px;font-style:normal;font-variant:normal;font-weight:normal;font-stretch:normal;line-height:125%;letter-spacing:0px;word-spacing:0px;fill:#000000;fill-opacity:1;stroke:none;font-family:Open Sans;-inkscape-font-specification:Open Sans"
       id="text11918">
      <path
         d="m 125.34402,1014.8986 0,-15.356 -2.28809,0 -4.92798,13.4204 -5.01593,-13.4204 -2.24377,0 0,15.356 1.80401,0 0,-11.1538 0.19806,-0.066 4.00415,11.2196 2.44184,0 4.00415,-11.1981 0.21954,0.044 0,11.1538 z"
         style="font-family:YDIYGO130;-inkscape-font-specification:YDIYGO130"
         id="path3161" />
      <path
         d="m 134.60445,999.41101 -6.35803,0 0,15.57549 2.00208,0 0,-6.1378 4.35595,0 c 1.49584,0 2.75715,-0.4473 3.78394,-1.3418 1.02676,-0.8945 1.54015,-2.0384 1.54016,-3.4318 -1e-5,-1.4228 -0.5134,-2.5559 -1.54016,-3.3992 -1.02679,-0.84324 -2.2881,-1.26487 -3.78394,-1.26489 z m 0,7.58999 -4.35595,0 0,-5.7423 4.35595,0 c 0.80655,0 1.53624,0.2127 2.18906,0.6381 0.6528,0.4255 0.97921,1.1516 0.97922,2.1783 -1e-5,1.0264 -0.32642,1.7706 -0.97922,2.2327 -0.65282,0.4622 -1.38251,0.6932 -2.18906,0.6932 z"
         style="font-family:YDIYGO130;-inkscape-font-specification:YDIYGO130"
         id="path3163" />
    </g>
    <g
       style="font-size:22px;font-style:normal;font-variant:normal;font-weight:normal;font-stretch:normal;line-height:125%;letter-spacing:0px;word-spacing:0px;fill:#000000;fill-opacity:1;stroke:none;font-family:Open Sans;-inkscape-font-specification:Open Sans"
       id="text11922">
      <path
         d="m 195.53531,1014.4157 0,-15.35595 -2.28809,0 -4.92798,13.42035 -5.01593,-13.42035 -2.24377,0 0,15.35595 1.80402,0 0,-11.1537 0.19805,-0.066 4.00416,11.2195 2.44183,0 4.00415,-11.198 0.21954,0.044 0,11.1537 z"
         style="font-family:YDIYGO130;-inkscape-font-specification:YDIYGO130"
         id="path3166" />
      <path
         d="m 204.79575,998.92816 -6.35804,0 0,15.57554 2.00208,0 0,-6.1379 4.35596,0 c 1.49584,0 2.75715,-0.4472 3.78393,-1.3417 1.02676,-0.8945 1.54015,-2.0385 1.54016,-3.4318 -1e-5,-1.4229 -0.5134,-2.556 -1.54016,-3.3992 -1.02678,-0.84329 -2.28809,-1.26492 -3.78393,-1.26494 z m 0,7.59004 -4.35596,0 0,-5.7424 4.35596,0 c 0.80655,0 1.53623,0.2127 2.18905,0.6382 0.6528,0.4254 0.97921,1.1515 0.97922,2.1783 -1e-5,1.0263 -0.32642,1.7706 -0.97922,2.2327 -0.65282,0.4621 -1.3825,0.6932 -2.18905,0.6932 z"
         style="font-family:YDIYGO130;-inkscape-font-specification:YDIYGO130"
         id="path3168" />
    </g>
    <rect
       style="opacity:0.99000005;fill:#7ac142;fill-opacity:1;fill-rule:nonzero;stroke:#464546;stroke-width:2.91599989;stroke-linecap:butt;stroke-linejoin:miter;stroke-miterlimit:4;stroke-opacity:1;stroke-dasharray:none"
       id="rect11698-7"
       width="346.1778"
       height="246.17776"
       x="247.03612"
       y="784.27325"
       rx="13.84711"
       ry="8.373394" />
    <path
       style="fill:none;stroke:#464546;stroke-width:2.00178909;stroke-linecap:butt;stroke-linejoin:miter;stroke-miterlimit:4;stroke-opacity:1;stroke-dasharray:none"
       d="m 247.80614,830.49433 344.28821,0"
       id="path11874-8"
       inkscape:connector-curvature="0" />
    <path
       style="fill:none;stroke:#464546;stroke-width:2;stroke-linecap:butt;stroke-linejoin:miter;stroke-miterlimit:4;stroke-opacity:1;stroke-dasharray:none"
       d="m 246.80873,980.49592 345.39535,0"
       id="path11866-7"
       inkscape:connector-curvature="0" />
    <path
       style="fill:none;stroke:#464546;stroke-width:2.00178385;stroke-linecap:butt;stroke-linejoin:miter;stroke-miterlimit:4;stroke-opacity:1;stroke-dasharray:none"
       d="m 246.87135,930.99527 345.30672,0"
       id="path11866-7-6"
       inkscape:connector-curvature="0" />
    <path
       style="fill:none;stroke:#464546;stroke-width:2;stroke-linecap:butt;stroke-linejoin:miter;stroke-miterlimit:4;stroke-opacity:1;stroke-dasharray:none"
       d="m 246.8704,880.17754 345.04346,0"
       id="path11866-7-6-6"
       inkscape:connector-curvature="0" />
    <path
       style="fill:none;stroke:#464546;stroke-width:2;stroke-linecap:butt;stroke-linejoin:miter;stroke-miterlimit:4;stroke-opacity:1;stroke-dasharray:none"
       d="m 318.82523,830.47354 0,50.28872"
       id="path11912-1"
       inkscape:connector-curvature="0" />
    <path
       style="fill:none;stroke:#464546;stroke-width:2;stroke-linecap:butt;stroke-linejoin:miter;stroke-miterlimit:4;stroke-opacity:1;stroke-dasharray:none"
       d="m 388.15189,783.6664 0,97.3463"
       id="path11912-1-1"
       inkscape:connector-curvature="0" />
    <path
       style="fill:none;stroke:#464546;stroke-width:2.00931168;stroke-linecap:butt;stroke-linejoin:miter;stroke-miterlimit:4;stroke-opacity:1;stroke-dasharray:none"
       d="m 458.3724,831.37918 0,198.70862"
       id="path11912-1-1-3"
       inkscape:connector-curvature="0" />
    <path
       style="fill:none;stroke:#464546;stroke-width:2;stroke-linecap:butt;stroke-linejoin:miter;stroke-miterlimit:4;stroke-opacity:1;stroke-dasharray:none"
       d="m 528.64817,931.14591 0,98.31909"
       id="path11912-1-1-3-6"
       inkscape:connector-curvature="0" />
    <g
       style="font-size:22px;font-style:normal;font-variant:normal;font-weight:normal;font-stretch:normal;line-height:125%;letter-spacing:0px;word-spacing:0px;fill:#000000;fill-opacity:1;stroke:none;font-family:Open Sans;-inkscape-font-specification:Open Sans"
       id="text12300"
       transform="translate(-4,0)">
      <path
         d="m 293.74997,799.21606 -6.72461,0 c -0.67318,2e-5 -1.21029,0.19338 -1.61133,0.58008 -0.3724,0.37241 -0.55859,0.87372 -0.55859,1.50391 l 0,11.10742 c 0,0.74479 0.20768,1.31771 0.62305,1.71875 0.40103,0.38672 0.99543,0.58008 1.7832,0.58008 1.74739,0 3.37304,-0.13607 4.87695,-0.4082 1.67577,-0.30078 3.08658,-0.75196 4.23242,-1.35352 0.18619,-0.11458 0.30793,-0.25781 0.36524,-0.42969 0.0716,-0.17187 0.0716,-0.32942 0,-0.47265 -0.0573,-0.15755 -0.15757,-0.25781 -0.30078,-0.30078 -0.15757,-0.0573 -0.32944,-0.0286 -0.51563,0.0859 -1.04558,0.54428 -2.33465,0.98112 -3.86719,1.31055 -1.51823,0.31511 -3.10091,0.47266 -4.74804,0.47266 -0.40105,0 -0.69467,-0.0931 -0.88086,-0.2793 -0.20053,-0.20052 -0.30079,-0.50846 -0.30078,-0.92383 l 0,-11.04297 c -10e-6,-0.3867 0.0645,-0.65884 0.19336,-0.8164 0.14322,-0.15754 0.39387,-0.23632 0.75195,-0.23633 l 6.66016,0 c 0.41535,10e-6 0.63019,-0.18619 0.64453,-0.5586 -2e-5,-0.35805 -0.2077,-0.53709 -0.62305,-0.53711 z m 6.03711,16.6504 0,-16.71485 c -2e-5,-0.18618 -0.0716,-0.33657 -0.21484,-0.45117 -0.11461,-0.0859 -0.25783,-0.12889 -0.42969,-0.12891 -0.18622,2e-5 -0.33661,0.043 -0.45117,0.12891 -0.12893,0.1146 -0.19338,0.26499 -0.19336,0.45117 l 0,16.71485 c -2e-5,0.20052 0.0644,0.36523 0.19336,0.49414 0.11456,0.11458 0.26495,0.17187 0.45117,0.17187 0.17186,0 0.31508,-0.0573 0.42969,-0.17187 0.14321,-0.12891 0.21482,-0.29362 0.21484,-0.49414 z"
         style="font-family:Gulim;-inkscape-font-specification:Gulim"
         id="path3056"
         inkscape:connector-curvature="0" />
      <path
         d="m 314.24606,799.47388 c -10e-6,2.22006 -0.76628,4.11785 -2.29882,5.69336 -1.31772,1.36068 -2.86459,2.22006 -4.64063,2.57812 -0.22917,0.043 -0.39388,0.13608 -0.49414,0.2793 -0.10026,0.11459 -0.14323,0.25066 -0.12891,0.4082 0.0287,0.14324 0.10742,0.25782 0.23633,0.34375 0.14323,0.086 0.32226,0.11459 0.53711,0.0859 1.73307,-0.34374 3.30859,-1.16731 4.72656,-2.4707 1.36067,-1.21744 2.25585,-2.54947 2.68555,-3.9961 0.45832,1.43231 1.3535,2.76434 2.68555,3.9961 1.40363,1.28907 2.93618,2.10547 4.59765,2.44921 0.24347,0.043 0.45116,0.0215 0.62305,-0.0644 0.14321,-0.0859 0.22915,-0.20767 0.25781,-0.36523 0.043,-0.15755 0.0143,-0.30078 -0.0859,-0.42969 -0.11461,-0.14322 -0.27932,-0.23632 -0.49415,-0.2793 -1.87631,-0.38671 -3.459,-1.24608 -4.74804,-2.57812 -1.47528,-1.53254 -2.2129,-3.40168 -2.21289,-5.60742 -10e-6,-0.22915 -0.0716,-0.41535 -0.21485,-0.5586 -0.11459,-0.11456 -0.25066,-0.17186 -0.4082,-0.17187 -0.17189,10e-6 -0.31511,0.0573 -0.42969,0.17187 -0.12891,0.12892 -0.19337,0.3008 -0.19336,0.51563 z m 8.95899,14.48047 -16.67188,0 c -0.42969,0 -0.64453,0.17903 -0.64453,0.53711 0,0.37239 0.21484,0.55859 0.64453,0.55859 l 16.69336,0 c 0.18618,0 0.33657,-0.0573 0.45117,-0.17188 0.11457,-0.11458 0.17186,-0.24348 0.17188,-0.38671 -2e-5,-0.14323 -0.0573,-0.27214 -0.17188,-0.38672 -0.1146,-0.10026 -0.27215,-0.15039 -0.47265,-0.15039 z"
         style="font-family:Gulim;-inkscape-font-specification:Gulim"
         id="path3058"
         inkscape:connector-curvature="0" />
      <path
         d="m 341.98239,805.44653 c -1.71876,0.20053 -3.76694,0.35809 -6.14453,0.47266 -2.17709,0.11459 -4.22527,0.17188 -6.14453,0.17187 -0.42969,10e-6 -0.63737,0.17905 -0.62305,0.53711 0.0286,0.37241 0.23633,0.55861 0.62305,0.5586 1.91926,10e-6 4.01041,-0.0645 6.27344,-0.19336 2.20571,-0.1289 4.2324,-0.29361 6.08007,-0.49414 0.35806,-0.043 0.52277,-0.24348 0.49415,-0.60156 -0.0287,-0.35807 -0.21487,-0.50846 -0.5586,-0.45118 z m -0.1289,-6.3164 -11.5586,0 c -0.38672,10e-6 -0.58008,0.18621 -0.58008,0.55859 0,0.37241 0.1862,0.55861 0.5586,0.55859 l 11.51562,0 c 0.35806,2e-5 0.62303,0.0716 0.79492,0.21485 0.17186,0.12892 0.2578,0.3366 0.25782,0.62305 l 0,4.14648 c -2e-5,2.13412 -0.0716,3.681 -0.21485,4.64062 -0.18621,1.31772 -0.58725,2.67839 -1.20312,4.08204 l 1.31054,0 c 0.5729,-1.41797 0.95246,-2.78581 1.13868,-4.10352 0.17185,-1.11718 0.25779,-2.70702 0.25781,-4.76953 l 0,-4.06055 c -2e-5,-0.5729 -0.21486,-1.03123 -0.64453,-1.375 -0.42971,-0.34373 -0.97398,-0.51561 -1.63281,-0.51562 z m 3.33007,14.82422 -16.65039,0 c -0.20052,0 -0.35807,0.0501 -0.47265,0.15039 -0.10027,0.11458 -0.15756,0.24349 -0.17188,0.38672 -0.0143,0.14323 0.0215,0.27213 0.10742,0.38671 0.0859,0.11459 0.20768,0.17188 0.36524,0.17188 l 16.99414,0 c 0.15753,0 0.27928,-0.0573 0.36523,-0.17188 0.0859,-0.11458 0.12889,-0.24348 0.12891,-0.38671 -0.0143,-0.14323 -0.0788,-0.27214 -0.19336,-0.38672 -0.1146,-0.10026 -0.27216,-0.15039 -0.47266,-0.15039 z"
         style="font-family:Gulim;-inkscape-font-specification:Gulim"
         id="path3060"
         inkscape:connector-curvature="0" />
      <path
         d="m 358.84763,803.10474 2.36328,0 0,11.92382 c -1e-5,0.24349 0.0644,0.44401 0.19336,0.60157 0.1289,0.1289 0.28645,0.20052 0.47265,0.21484 0.17187,0 0.32226,-0.0716 0.45117,-0.21484 0.14323,-0.14323 0.21484,-0.33659 0.21485,-0.58008 l 0,-15.23242 c -10e-6,-0.37238 -0.18621,-0.55142 -0.5586,-0.53711 -0.3724,0.0143 -0.56576,0.19337 -0.58007,0.53711 -0.043,0.84506 -0.30795,1.45379 -0.79493,1.82617 -0.41537,0.31512 -1.02409,0.47267 -1.82617,0.47266 -0.32943,1e-5 -0.48698,0.16472 -0.47265,0.49414 0.0143,0.32944 0.19335,0.49415 0.53711,0.49414 z"
         style="font-family:Gulim;-inkscape-font-specification:Gulim"
         id="path3062"
         inkscape:connector-curvature="0" />
    </g>
    <g
       style="font-size:22px;font-style:normal;font-variant:normal;font-weight:normal;font-stretch:normal;line-height:125%;letter-spacing:0px;word-spacing:0px;fill:#000000;fill-opacity:1;stroke:none;font-family:Open Sans;-inkscape-font-specification:Open Sans"
       id="text12304"
       transform="translate(-4,0)">
      <path
         d="m 462.56845,798.7323 -6.72461,0 c -0.67318,2e-5 -1.21029,0.19338 -1.61133,0.58008 -0.3724,0.37241 -0.55859,0.87371 -0.55859,1.5039 l 0,11.10743 c 0,0.74479 0.20768,1.31771 0.62305,1.71875 0.40103,0.38672 0.99543,0.58007 1.7832,0.58007 1.74739,0 3.37304,-0.13606 4.87695,-0.4082 1.67577,-0.30078 3.08658,-0.75195 4.23242,-1.35351 0.18619,-0.11459 0.30793,-0.25781 0.36524,-0.42969 0.0716,-0.17187 0.0716,-0.32943 0,-0.47266 -0.0573,-0.15755 -0.15757,-0.25781 -0.30078,-0.30078 -0.15757,-0.0573 -0.32944,-0.0286 -0.51563,0.0859 -1.04558,0.54427 -2.33464,0.98112 -3.86718,1.31054 -1.51824,0.31511 -3.10092,0.47266 -4.74805,0.47266 -0.40105,0 -0.69467,-0.0931 -0.88086,-0.2793 -0.20053,-0.20051 -0.30079,-0.50846 -0.30078,-0.92382 l 0,-11.04297 c -1e-5,-0.38671 0.0644,-0.65884 0.19336,-0.81641 0.14322,-0.15754 0.39387,-0.23631 0.75195,-0.23633 l 6.66016,0 c 0.41535,2e-5 0.63019,-0.18618 0.64453,-0.55859 -1e-5,-0.35806 -0.2077,-0.53709 -0.62305,-0.53711 z m 6.03711,16.65039 0,-16.71484 c -2e-5,-0.18618 -0.0716,-0.33658 -0.21484,-0.45118 -0.1146,-0.0859 -0.25783,-0.12888 -0.42969,-0.1289 -0.18622,2e-5 -0.33661,0.043 -0.45117,0.1289 -0.12893,0.1146 -0.19338,0.265 -0.19336,0.45118 l 0,16.71484 c -2e-5,0.20052 0.0644,0.36523 0.19336,0.49414 0.11456,0.11458 0.26495,0.17187 0.45117,0.17188 0.17186,-10e-6 0.31509,-0.0573 0.42969,-0.17188 0.14321,-0.12891 0.21482,-0.29362 0.21484,-0.49414 z"
         style="font-family:Gulim;-inkscape-font-specification:Gulim"
         id="path3065"
         inkscape:connector-curvature="0" />
      <path
         d="m 483.06454,798.99011 c -1e-5,2.22007 -0.76628,4.11785 -2.29882,5.69336 -1.31772,1.36069 -2.86459,2.22006 -4.64063,2.57813 -0.22917,0.043 -0.39388,0.13607 -0.49414,0.27929 -0.10026,0.11459 -0.14323,0.25066 -0.12891,0.40821 0.0286,0.14323 0.10742,0.25782 0.23633,0.34375 0.14323,0.0859 0.32227,0.11459 0.53711,0.0859 1.73307,-0.34374 3.30859,-1.16731 4.72656,-2.4707 1.36067,-1.21744 2.25585,-2.54947 2.68555,-3.99609 0.45832,1.4323 1.3535,2.76433 2.68555,3.99609 1.40363,1.28907 2.93618,2.10548 4.59765,2.44922 0.24348,0.043 0.45116,0.0215 0.62305,-0.0644 0.14321,-0.0859 0.22915,-0.20768 0.25781,-0.36524 0.043,-0.15754 0.0143,-0.30077 -0.0859,-0.42969 -0.11461,-0.14322 -0.27932,-0.23632 -0.49414,-0.27929 -1.87632,-0.38671 -3.459,-1.24609 -4.74805,-2.57813 -1.47527,-1.53254 -2.2129,-3.40168 -2.21289,-5.60742 -1e-5,-0.22915 -0.0716,-0.41535 -0.21485,-0.55859 -0.11459,-0.11457 -0.25066,-0.17186 -0.4082,-0.17188 -0.17188,2e-5 -0.31511,0.0573 -0.42969,0.17188 -0.12891,0.12892 -0.19337,0.30079 -0.19336,0.51562 z m 8.95899,14.48047 -16.67188,0 c -0.42969,0 -0.64453,0.17904 -0.64453,0.53711 0,0.3724 0.21484,0.55859 0.64453,0.55859 l 16.69336,0 c 0.18618,0 0.33657,-0.0573 0.45118,-0.17187 0.11456,-0.11458 0.17185,-0.24349 0.17187,-0.38672 -2e-5,-0.14323 -0.0573,-0.27213 -0.17187,-0.38672 -0.11461,-0.10026 -0.27216,-0.15039 -0.47266,-0.15039 z"
         style="font-family:Gulim;-inkscape-font-specification:Gulim"
         id="path3067"
         inkscape:connector-curvature="0" />
      <path
         d="m 510.80087,804.96277 c -1.71876,0.20053 -3.76694,0.35808 -6.14453,0.47265 -2.17709,0.1146 -4.22526,0.17189 -6.14453,0.17188 -0.42969,10e-6 -0.63737,0.17905 -0.62305,0.53711 0.0287,0.3724 0.23633,0.5586 0.62305,0.55859 1.91927,10e-6 4.01041,-0.0644 6.27344,-0.19336 2.20571,-0.12889 4.23241,-0.29361 6.08008,-0.49414 0.35805,-0.043 0.52277,-0.24348 0.49414,-0.60156 -0.0287,-0.35806 -0.21486,-0.50845 -0.5586,-0.45117 z m -0.1289,-6.31641 -11.5586,0 c -0.38672,2e-5 -0.58008,0.18622 -0.58008,0.5586 0,0.37241 0.1862,0.5586 0.5586,0.55859 l 11.51562,0 c 0.35806,10e-6 0.62303,0.0716 0.79493,0.21484 0.17185,0.12892 0.25779,0.33661 0.25781,0.62305 l 0,4.14648 c -2e-5,2.13413 -0.0716,3.681 -0.21485,4.64063 -0.18621,1.31771 -0.58725,2.67839 -1.20312,4.08203 l 1.31055,0 c 0.5729,-1.41796 0.95245,-2.7858 1.13867,-4.10351 0.17185,-1.11719 0.25779,-2.70703 0.25781,-4.76954 l 0,-4.06054 c -2e-5,-0.5729 -0.21486,-1.03124 -0.64453,-1.375 -0.42971,-0.34374 -0.97398,-0.51561 -1.63281,-0.51563 z m 3.33007,14.82422 -16.65039,0 c -0.20052,0 -0.35807,0.0501 -0.47265,0.15039 -0.10026,0.11459 -0.15756,0.24349 -0.17188,0.38672 -0.0143,0.14323 0.0215,0.27214 0.10742,0.38672 0.0859,0.11458 0.20768,0.17187 0.36524,0.17187 l 16.99414,0 c 0.15753,0 0.27928,-0.0573 0.36523,-0.17187 0.0859,-0.11458 0.12889,-0.24349 0.12891,-0.38672 -0.0143,-0.14323 -0.0788,-0.27213 -0.19336,-0.38672 -0.1146,-0.10026 -0.27215,-0.15039 -0.47266,-0.15039 z"
         style="font-family:Gulim;-inkscape-font-specification:Gulim"
         id="path3069"
         inkscape:connector-curvature="0" />
      <path
         d="m 530.39462,798.79675 c -1.46094,2e-5 -2.62109,0.45119 -3.48047,1.35352 -0.75911,0.8021 -1.13867,1.79038 -1.13867,2.96484 l 0,0.5586 c 0,0.2435 0.0644,0.43686 0.19336,0.58007 0.12891,0.12892 0.28646,0.19337 0.47266,0.19336 0.18619,10e-6 0.34375,-0.0644 0.47265,-0.19336 0.14323,-0.12889 0.21484,-0.30077 0.21485,-0.51562 l 0,-0.62305 c -10e-6,-0.85936 0.27213,-1.57551 0.8164,-2.14844 0.60156,-0.64451 1.41797,-0.96678 2.44922,-0.96679 1.03125,1e-5 1.85481,0.32228 2.47071,0.96679 0.54426,0.57293 0.81639,1.28908 0.8164,2.14844 -10e-6,1.04559 -0.32227,1.93361 -0.96679,2.66406 -0.50131,0.54428 -1.46811,1.26043 -2.9004,2.14844 -1.50391,0.90235 -2.60677,1.88347 -3.30859,2.94336 -0.77344,1.16016 -1.153,2.528 -1.13867,4.10352 l 9.38867,0 c 0.18619,0 0.33658,-0.0645 0.45117,-0.19336 0.11457,-0.11459 0.17187,-0.25065 0.17188,-0.40821 -10e-6,-0.17187 -0.0573,-0.3151 -0.17188,-0.42968 -0.11459,-0.11458 -0.26498,-0.17188 -0.45117,-0.17188 l -7.9707,0 c 0.10026,-1.03125 0.39387,-1.8763 0.88086,-2.53515 0.55859,-0.77344 1.597,-1.63281 3.11523,-2.57813 l 0.42969,-0.30078 c 1.40364,-0.88801 2.32746,-1.58984 2.77148,-2.10547 0.70182,-0.80207 1.05273,-1.84764 1.05274,-3.13672 -10e-6,-1.17446 -0.38673,-2.16274 -1.16016,-2.96484 -0.87371,-0.90233 -2.03386,-1.3535 -3.48047,-1.35352 z"
         style="font-family:Gulim;-inkscape-font-specification:Gulim"
         id="path3071"
         inkscape:connector-curvature="0" />
    </g>
    <path
       style="fill:none;stroke:#464546;stroke-width:2;stroke-linecap:butt;stroke-linejoin:miter;stroke-miterlimit:4;stroke-opacity:1;stroke-dasharray:none"
       d="m 528.8049,831.27924 0,49.06013"
       id="path11912-1-1-3-6-5"
       inkscape:connector-curvature="0" />
    <path
       style="fill:none;stroke:#464546;stroke-width:2;stroke-linecap:butt;stroke-linejoin:miter;stroke-miterlimit:4;stroke-opacity:1;stroke-dasharray:none"
       d="m 353.86718,931.40169 0,99.39951"
       id="path11912-1-1-3-2"
       inkscape:connector-curvature="0" />
    <g
       style="font-size:22px;font-style:normal;font-variant:normal;font-weight:normal;font-stretch:normal;line-height:125%;letter-spacing:0px;word-spacing:0px;fill:#000000;fill-opacity:1;stroke:none;font-family:Open Sans;-inkscape-font-specification:Open Sans"
       id="text11914-9">
      <path
         d="m 299.67981,1014.0645 0,-15.356 -2.28809,0 -4.92797,13.4203 -5.01594,-13.4203 -2.24377,0 0,15.356 1.80402,0 0,-11.1538 0.19806,-0.066 4.00415,11.2196 2.44183,0 4.00415,-11.1981 0.21954,0.044 0,11.1538 z"
         style="font-family:YDIYGO130;-inkscape-font-specification:YDIYGO130"
         id="path3171" />
      <path
         d="m 308.94025,998.5769 -6.35804,0 0,15.5755 2.00208,0 0,-6.1378 4.35596,0 c 1.49584,0 2.75715,-0.4473 3.78393,-1.3418 1.02676,-0.8945 1.54015,-2.0384 1.54016,-3.4318 -1e-5,-1.4229 -0.5134,-2.5559 -1.54016,-3.3992 -1.02678,-0.84325 -2.28809,-1.26488 -3.78393,-1.2649 z m 0,7.59 -4.35596,0 0,-5.7423 4.35596,0 c 0.80655,0 1.53623,0.2127 2.18905,0.6381 0.6528,0.4255 0.97921,1.1516 0.97922,2.1783 -10e-6,1.0264 -0.32642,1.7706 -0.97922,2.2327 -0.65282,0.4622 -1.3825,0.6932 -2.18905,0.6932 z"
         style="font-family:YDIYGO130;-inkscape-font-specification:YDIYGO130"
         id="path3173" />
    </g>
    <g
       style="font-size:22px;font-style:normal;font-variant:normal;font-weight:normal;font-stretch:normal;line-height:125%;letter-spacing:0px;word-spacing:0px;fill:#000000;fill-opacity:1;stroke:none;font-family:Open Sans;-inkscape-font-specification:Open Sans"
       id="text11914-5">
      <path
         d="m 409.42981,1013.8145 0,-15.356 -2.28809,0 -4.92797,13.4203 -5.01594,-13.4203 -2.24377,0 0,15.356 1.80402,0 0,-11.1538 0.19806,-0.066 4.00415,11.2196 2.44183,0 4.00415,-11.1981 0.21954,0.044 0,11.1538 z"
         style="font-family:YDIYGO130;-inkscape-font-specification:YDIYGO130"
         id="path3176" />
      <path
         d="m 418.69025,998.3269 -6.35804,0 0,15.5755 2.00208,0 0,-6.1378 4.35596,0 c 1.49584,0 2.75715,-0.4473 3.78393,-1.3418 1.02676,-0.8945 1.54015,-2.0384 1.54016,-3.4318 -1e-5,-1.4229 -0.5134,-2.5559 -1.54016,-3.3992 -1.02678,-0.84325 -2.28809,-1.26488 -3.78393,-1.2649 z m 0,7.59 -4.35596,0 0,-5.7423 4.35596,0 c 0.80655,0 1.53623,0.2127 2.18905,0.6381 0.6528,0.4255 0.97921,1.1516 0.97922,2.1783 -10e-6,1.0264 -0.32642,1.7706 -0.97922,2.2327 -0.65282,0.4622 -1.3825,0.6932 -2.18905,0.6932 z"
         style="font-family:YDIYGO130;-inkscape-font-specification:YDIYGO130"
         id="path3178" />
    </g>
    <g
       style="font-size:22px;font-style:normal;font-variant:normal;font-weight:normal;font-stretch:normal;line-height:125%;letter-spacing:0px;word-spacing:0px;fill:#000000;fill-opacity:1;stroke:none;font-family:Open Sans;-inkscape-font-specification:Open Sans"
       id="text11914-0">
      <path
         d="m 494.92981,1013.8145 0,-15.356 -2.28809,0 -4.92797,13.4203 -5.01594,-13.4203 -2.24377,0 0,15.356 1.80402,0 0,-11.1538 0.19806,-0.066 4.00415,11.2196 2.44183,0 4.00415,-11.1981 0.21954,0.044 0,11.1538 z"
         style="font-family:YDIYGO130;-inkscape-font-specification:YDIYGO130"
         id="path3181" />
      <path
         d="m 504.19025,998.3269 -6.35804,0 0,15.5755 2.00208,0 0,-6.1378 4.35596,0 c 1.49584,0 2.75715,-0.4473 3.78393,-1.3418 1.02676,-0.8945 1.54015,-2.0384 1.54016,-3.4318 -1e-5,-1.4229 -0.5134,-2.5559 -1.54016,-3.3992 -1.02678,-0.84325 -2.28809,-1.26488 -3.78393,-1.2649 z m 0,7.59 -4.35596,0 0,-5.7423 4.35596,0 c 0.80655,0 1.53623,0.2127 2.18905,0.6381 0.6528,0.4255 0.97921,1.1516 0.97922,2.1783 -10e-6,1.0264 -0.32642,1.7706 -0.97922,2.2327 -0.65282,0.4622 -1.3825,0.6932 -2.18905,0.6932 z"
         style="font-family:YDIYGO130;-inkscape-font-specification:YDIYGO130"
         id="path3183" />
    </g>
    <g
       style="font-size:22px;font-style:normal;font-variant:normal;font-weight:normal;font-stretch:normal;line-height:125%;letter-spacing:0px;word-spacing:0px;fill:#000000;fill-opacity:1;stroke:none;font-family:Open Sans;-inkscape-font-specification:Open Sans"
       id="text11914-97">
      <path
         d="m 560.17981,1014.3145 0,-15.356 -2.28809,0 -4.92797,13.4203 -5.01594,-13.4203 -2.24377,0 0,15.356 1.80402,0 0,-11.1538 0.19806,-0.066 4.00415,11.2196 2.44183,0 4.00415,-11.1981 0.21954,0.044 0,11.1538 z"
         style="font-family:YDIYGO130;-inkscape-font-specification:YDIYGO130"
         id="path3186" />
      <path
         d="m 569.44025,998.8269 -6.35804,0 0,15.5755 2.00208,0 0,-6.1378 4.35596,0 c 1.49584,0 2.75715,-0.4473 3.78393,-1.3418 1.02676,-0.8945 1.54015,-2.0384 1.54016,-3.4318 -10e-6,-1.4229 -0.5134,-2.5559 -1.54016,-3.3992 -1.02678,-0.84325 -2.28809,-1.26488 -3.78393,-1.2649 z m 0,7.59 -4.35596,0 0,-5.7423 4.35596,0 c 0.80655,0 1.53623,0.2127 2.18905,0.6381 0.6528,0.4255 0.97921,1.1516 0.97922,2.1783 -10e-6,1.0264 -0.32642,1.7706 -0.97922,2.2327 -0.65282,0.4622 -1.3825,0.6932 -2.18905,0.6932 z"
         style="font-family:YDIYGO130;-inkscape-font-specification:YDIYGO130"
         id="path3188" />
    </g>
    <g
       style="font-size:22px;font-style:normal;font-variant:normal;font-weight:normal;font-stretch:normal;line-height:125%;letter-spacing:0px;word-spacing:0px;fill:#000000;fill-opacity:1;stroke:none;font-family:Open Sans;-inkscape-font-specification:Open Sans"
       id="text11876-17">
      <path
         d="m 277.9245,849.2655 0,2.10547 c -2e-5,0.37241 -0.0788,0.63022 -0.23633,0.77344 -0.15757,0.15756 -0.42254,0.23634 -0.79492,0.23633 l -9.88281,0 c -0.38673,1e-5 -0.65886,-0.0859 -0.81641,-0.25782 -0.14323,-0.14321 -0.21485,-0.39386 -0.21484,-0.75195 l 0,-2.10547 z m 0,-2.81445 0,1.74023 -11.94531,0 0,-1.74023 c -1e-5,-0.2005 -0.0716,-0.35806 -0.21485,-0.47266 -0.11458,-0.11456 -0.25781,-0.17185 -0.42968,-0.17187 -0.18621,2e-5 -0.3366,0.0573 -0.45118,0.17187 -0.12891,0.1146 -0.19336,0.27932 -0.19336,0.49414 l 0,5.15625 c 0,0.51564 0.15755,0.94533 0.47266,1.28907 0.34375,0.35808 0.80208,0.53711 1.375,0.53711 l 10.5918,0 c 0.67316,0 1.18878,-0.16471 1.54687,-0.49414 0.35806,-0.3151 0.53709,-0.75195 0.53711,-1.31055 l 0,-5.2207 c -2e-5,-0.20051 -0.0716,-0.35806 -0.21484,-0.47266 -0.1146,-0.10024 -0.25783,-0.15037 -0.42969,-0.15039 -0.18621,2e-5 -0.33661,0.0573 -0.45117,0.17187 -0.12892,0.1146 -0.19338,0.27216 -0.19336,0.47266 z m 2.40625,9.47461 -16.71484,0 c -0.40105,10e-6 -0.60873,0.17904 -0.62305,0.53711 -0.0143,0.3724 0.16471,0.5586 0.53711,0.55859 l 7.79883,0 0,5.75781 c -10e-6,0.20052 0.0644,0.36524 0.19336,0.49415 0.11457,0.10025 0.2578,0.15038 0.42968,0.15039 0.15754,-10e-6 0.29361,-0.0573 0.40821,-0.17188 0.14321,-0.12891 0.21483,-0.29362 0.21484,-0.49414 l 0,-5.73633 7.79883,0 c 0.37237,1e-5 0.55857,-0.18619 0.55859,-0.55859 -0.0143,-0.35807 -0.21486,-0.5371 -0.60156,-0.53711 z"
         style="font-family:Gulim;-inkscape-font-specification:Gulim"
         id="path3074" />
      <path
         d="m 300.82684,845.78503 -13.79297,0 c -0.40104,2e-5 -0.5944,0.17906 -0.58007,0.53711 -10e-6,0.37242 0.19335,0.55861 0.58007,0.5586 l 13.85743,0 c 0.17185,1e-5 0.31508,-0.0573 0.42968,-0.17188 0.0859,-0.11457 0.12889,-0.24347 0.12891,-0.38672 -2e-5,-0.14321 -0.0573,-0.27212 -0.17187,-0.38672 -0.11461,-0.10024 -0.265,-0.15037 -0.45118,-0.15039 z m 0.0645,5.11329 -2.64258,0 0.66601,-3.00782 c 0.043,-0.18618 0.007,-0.34373 -0.10742,-0.47265 -0.10027,-0.11457 -0.2435,-0.17902 -0.42969,-0.19336 -0.17189,-0.0143 -0.32944,0.0215 -0.47265,0.10742 -0.15757,0.086 -0.24351,0.22918 -0.25781,0.42969 l -0.66602,3.13672 -6.05859,0 -0.66602,-3.20118 c -0.0286,-0.2005 -0.11459,-0.35089 -0.25781,-0.45117 -0.14324,-0.0859 -0.30079,-0.12173 -0.47266,-0.10742 -0.17188,0.0143 -0.30795,0.0788 -0.4082,0.19336 -0.11459,0.12892 -0.1504,0.29363 -0.10742,0.49414 l 0.64453,3.07227 -2.64258,0 c -0.3724,10e-6 -0.5586,0.17904 -0.55859,0.5371 -0.0143,0.37241 0.15038,0.55861 0.49414,0.5586 l 14.05078,0 c 0.32941,10e-6 0.4798,-0.18619 0.45117,-0.5586 -0.0143,-0.35806 -0.20054,-0.53709 -0.55859,-0.5371 z m 1.46093,2.90039 -16.73632,0 c -0.42969,0 -0.64454,0.17188 -0.64454,0.51562 0,0.35808 0.20768,0.53712 0.62305,0.53711 l 7.73438,0 0,1.7832 c -10e-6,0.20053 0.0644,0.36524 0.19336,0.49414 0.11457,0.10027 0.2578,0.1504 0.42968,0.15039 0.15754,10e-6 0.29361,-0.0573 0.40821,-0.17187 0.14321,-0.1289 0.21483,-0.30078 0.21484,-0.51563 l 0,-1.74023 7.82031,0 c 0.35806,10e-6 0.53709,-0.17903 0.53711,-0.53711 -0.0143,-0.34374 -0.2077,-0.51562 -0.58008,-0.51562 z m -3.02929,3.11523 -10.82813,0 c -0.5586,10e-6 -1.00261,0.1504 -1.33203,0.45117 -0.31511,0.30079 -0.47266,0.71615 -0.47266,1.2461 l 0,2.68554 c 0,0.50131 0.15755,0.89519 0.47266,1.18164 0.30078,0.28646 0.73763,0.42969 1.31055,0.42969 l 11.02148,0 c 0.51561,0 0.93097,-0.15755 1.2461,-0.47266 0.31508,-0.30078 0.47263,-0.69466 0.47265,-1.18164 l 0,-2.81445 c -2e-5,-0.45833 -0.17905,-0.82356 -0.53711,-1.0957 -0.34376,-0.28646 -0.79494,-0.42968 -1.35351,-0.42969 z m 0.60156,1.82617 0,2.38477 c -2e-5,0.24349 -0.0788,0.42252 -0.23633,0.53711 -0.14324,0.10026 -0.37241,0.15039 -0.6875,0.15039 l -10.05469,0 c -0.3724,0 -0.63021,-0.0573 -0.77343,-0.17188 -0.12891,-0.11458 -0.19337,-0.3151 -0.19336,-0.60156 l 0,-2.23437 c -1e-5,-0.28646 0.0573,-0.48698 0.17187,-0.60157 0.14323,-0.1289 0.38672,-0.19335 0.73047,-0.19336 l 10.07617,0 c 0.32941,10e-6 0.5729,0.0573 0.73047,0.17188 0.15754,0.10026 0.23631,0.28646 0.23633,0.55859 z"
         style="font-family:Gulim;-inkscape-font-specification:Gulim"
         id="path3076" />
    </g>
    <g
       style="font-size:22px;font-style:normal;font-variant:normal;font-weight:normal;font-stretch:normal;line-height:125%;letter-spacing:0px;word-spacing:0px;fill:#000000;fill-opacity:1;stroke:none;font-family:Open Sans;-inkscape-font-specification:Open Sans"
       id="text11876-63">
      <path
         d="m 348.21735,850.18445 0,2.10547 c -2e-5,0.3724 -0.0788,0.63022 -0.23633,0.77343 -0.15757,0.15757 -0.42254,0.23634 -0.79492,0.23633 l -9.88282,0 c -0.38672,1e-5 -0.65886,-0.0859 -0.8164,-0.25781 -0.14324,-0.14322 -0.21485,-0.39387 -0.21485,-0.75195 l 0,-2.10547 z m 0,-2.81445 0,1.74023 -11.94532,0 0,-1.74023 c 0,-0.20051 -0.0716,-0.35806 -0.21484,-0.47266 -0.11459,-0.11457 -0.25782,-0.17186 -0.42969,-0.17188 -0.1862,2e-5 -0.33659,0.0573 -0.45117,0.17188 -0.12891,0.1146 -0.19336,0.27931 -0.19336,0.49414 l 0,5.15625 c 0,0.51563 0.15755,0.94532 0.47266,1.28906 0.34374,0.35808 0.80208,0.53712 1.375,0.53711 l 10.59179,0 c 0.67316,10e-6 1.18879,-0.1647 1.54688,-0.49414 0.35805,-0.31509 0.53709,-0.75194 0.53711,-1.31055 l 0,-5.2207 c -2e-5,-0.2005 -0.0716,-0.35806 -0.21485,-0.47266 -0.1146,-0.10024 -0.25783,-0.15037 -0.42968,-0.15039 -0.18622,2e-5 -0.33661,0.0573 -0.45117,0.17188 -0.12893,0.1146 -0.19338,0.27215 -0.19336,0.47266 z m 2.40625,9.4746 -16.71485,0 c -0.40104,10e-6 -0.60872,0.17905 -0.62304,0.53711 -0.0143,0.37241 0.16471,0.5586 0.5371,0.5586 l 7.79883,0 0,5.75781 c -1e-5,0.20052 0.0644,0.36523 0.19336,0.49414 0.11458,0.10026 0.2578,0.15039 0.42969,0.15039 0.15754,0 0.29361,-0.0573 0.4082,-0.17187 0.14322,-0.12891 0.21484,-0.29362 0.21485,-0.49414 l 0,-5.73633 7.79882,0 c 0.37238,0 0.55858,-0.18619 0.5586,-0.5586 -0.0143,-0.35806 -0.21486,-0.5371 -0.60156,-0.53711 z"
         style="font-family:Gulim;-inkscape-font-specification:Gulim"
         id="path3094" />
      <path
         d="m 371.11969,846.70398 -13.79297,0 c -0.40104,2e-5 -0.5944,0.17905 -0.58008,0.53711 0,0.37241 0.19336,0.55861 0.58008,0.55859 l 13.85742,0 c 0.17186,2e-5 0.31509,-0.0573 0.42969,-0.17187 0.0859,-0.11457 0.12889,-0.24348 0.12891,-0.38672 -2e-5,-0.14321 -0.0573,-0.27212 -0.17188,-0.38672 -0.1146,-0.10024 -0.26499,-0.15037 -0.45117,-0.15039 z m 0.0645,5.11328 -2.64258,0 0.66602,-3.00781 c 0.043,-0.18619 0.007,-0.34374 -0.10742,-0.47266 -0.10028,-0.11457 -0.24351,-0.17902 -0.42969,-0.19336 -0.17189,-0.0143 -0.32944,0.0215 -0.47266,0.10742 -0.15756,0.086 -0.2435,0.22919 -0.25781,0.42969 l -0.66601,3.13672 -6.0586,0 -0.66601,-3.20117 c -0.0287,-0.20051 -0.11459,-0.3509 -0.25782,-0.45117 -0.14323,-0.0859 -0.30078,-0.12173 -0.47265,-0.10742 -0.17188,0.0143 -0.30795,0.0788 -0.4082,0.19335 -0.11459,0.12893 -0.1504,0.29364 -0.10743,0.49415 l 0.64453,3.07226 -2.64257,0 c -0.3724,10e-6 -0.5586,0.17905 -0.5586,0.53711 -0.0143,0.37241 0.15039,0.5586 0.49414,0.55859 l 14.05078,0 c 0.32941,10e-6 0.4798,-0.18618 0.45118,-0.55859 -0.0143,-0.35806 -0.20054,-0.5371 -0.5586,-0.53711 z m 1.46094,2.90039 -16.73633,0 c -0.42969,10e-6 -0.64453,0.17188 -0.64453,0.51563 0,0.35808 0.20768,0.53711 0.62305,0.53711 l 7.73437,0 0,1.7832 c -1e-5,0.20053 0.0644,0.36524 0.19336,0.49414 0.11458,0.10027 0.2578,0.1504 0.42969,0.15039 0.15754,10e-6 0.29361,-0.0573 0.4082,-0.17187 0.14322,-0.12891 0.21484,-0.30078 0.21485,-0.51563 l 0,-1.74023 7.82031,0 c 0.35805,0 0.53709,-0.17903 0.53711,-0.53711 -0.0143,-0.34375 -0.2077,-0.51562 -0.58008,-0.51563 z m -3.0293,3.11524 -10.82812,0 c -0.5586,0 -1.00261,0.15039 -1.33203,0.45117 -0.31511,0.30078 -0.47266,0.71615 -0.47266,1.24609 l 0,2.68555 c 0,0.5013 0.15755,0.89518 0.47266,1.18164 0.30077,0.28646 0.73762,0.42969 1.31054,0.42969 l 11.02149,0 c 0.51561,0 0.93097,-0.15756 1.24609,-0.47266 0.31509,-0.30078 0.47264,-0.69466 0.47266,-1.18164 l 0,-2.81445 c -2e-5,-0.45833 -0.17906,-0.82357 -0.53711,-1.09571 -0.34377,-0.28645 -0.79494,-0.42968 -1.35352,-0.42968 z m 0.60157,1.82617 0,2.38476 c -2e-5,0.24349 -0.0788,0.42253 -0.23633,0.53711 -0.14325,0.10026 -0.37241,0.15039 -0.6875,0.15039 l -10.05469,0 c -0.3724,0 -0.63021,-0.0573 -0.77344,-0.17187 -0.12891,-0.11458 -0.19336,-0.3151 -0.19336,-0.60156 l 0,-2.23438 c 0,-0.28645 0.0573,-0.48697 0.17188,-0.60156 0.14322,-0.1289 0.38671,-0.19336 0.73047,-0.19336 l 10.07617,0 c 0.32941,0 0.5729,0.0573 0.73047,0.17187 0.15753,0.10027 0.23631,0.28647 0.23633,0.5586 z"
         style="font-family:Gulim;-inkscape-font-specification:Gulim"
         id="path3096" />
    </g>
    <g
       style="font-size:22px;font-style:normal;font-variant:normal;font-weight:normal;font-stretch:normal;line-height:125%;letter-spacing:0px;word-spacing:0px;fill:#000000;fill-opacity:1;stroke:none;font-family:Open Sans;-inkscape-font-specification:Open Sans"
       id="text11876-4"
       transform="translate(-2,0)">
      <path
         d="m 420.60129,849.8866 0,2.10547 c -2e-5,0.3724 -0.0788,0.63021 -0.23633,0.77343 -0.15757,0.15757 -0.42254,0.23634 -0.79492,0.23633 l -9.88281,0 c -0.38673,10e-6 -0.65886,-0.0859 -0.81641,-0.25781 -0.14324,-0.14322 -0.21485,-0.39387 -0.21484,-0.75195 l 0,-2.10547 z m 0,-2.81446 0,1.74024 -11.94531,0 0,-1.74024 c -10e-6,-0.2005 -0.0716,-0.35805 -0.21485,-0.47265 -0.11459,-0.11457 -0.25782,-0.17186 -0.42969,-0.17188 -0.1862,2e-5 -0.33659,0.0573 -0.45117,0.17188 -0.12891,0.1146 -0.19336,0.27931 -0.19336,0.49414 l 0,5.15625 c 0,0.51563 0.15755,0.94532 0.47266,1.28906 0.34374,0.35808 0.80208,0.53712 1.375,0.53711 l 10.5918,0 c 0.67316,10e-6 1.18878,-0.1647 1.54687,-0.49414 0.35806,-0.3151 0.53709,-0.75194 0.53711,-1.31055 l 0,-5.2207 c -2e-5,-0.20051 -0.0716,-0.35806 -0.21484,-0.47266 -0.1146,-0.10024 -0.25783,-0.15037 -0.42969,-0.15039 -0.18622,2e-5 -0.33661,0.0573 -0.45117,0.17188 -0.12893,0.1146 -0.19338,0.27215 -0.19336,0.47265 z m 2.40625,9.47461 -16.71485,0 c -0.40104,10e-6 -0.60872,0.17905 -0.62304,0.53711 -0.0143,0.3724 0.16471,0.5586 0.53711,0.5586 l 7.79882,0 0,5.75781 c -1e-5,0.20052 0.0644,0.36523 0.19336,0.49414 0.11458,0.10026 0.25781,0.15039 0.42969,0.15039 0.15754,0 0.29361,-0.0573 0.4082,-0.17188 0.14322,-0.1289 0.21484,-0.29362 0.21485,-0.49414 l 0,-5.73632 7.79883,0 c 0.37237,0 0.55857,-0.1862 0.55859,-0.5586 -0.0143,-0.35806 -0.21486,-0.5371 -0.60156,-0.53711 z"
         style="font-family:Gulim;-inkscape-font-specification:Gulim"
         id="path3099"
         inkscape:connector-curvature="0" />
      <path
         d="m 443.50363,846.40613 -13.79297,0 c -0.40104,1e-5 -0.5944,0.17905 -0.58008,0.53711 0,0.37241 0.19336,0.55861 0.58008,0.55859 l 13.85742,0 c 0.17186,2e-5 0.31509,-0.0573 0.42969,-0.17187 0.0859,-0.11457 0.12889,-0.24348 0.12891,-0.38672 -2e-5,-0.14322 -0.0573,-0.27212 -0.17188,-0.38672 -0.1146,-0.10025 -0.26499,-0.15038 -0.45117,-0.15039 z m 0.0645,5.11328 -2.64257,0 0.66601,-3.00781 c 0.043,-0.18619 0.007,-0.34374 -0.10742,-0.47266 -0.10028,-0.11457 -0.2435,-0.17902 -0.42969,-0.19336 -0.17189,-0.0143 -0.32944,0.0215 -0.47265,0.10742 -0.15757,0.086 -0.24351,0.22918 -0.25782,0.42969 l -0.66601,3.13672 -6.0586,0 -0.66601,-3.20117 c -0.0286,-0.20051 -0.11459,-0.3509 -0.25781,-0.45117 -0.14324,-0.0859 -0.30079,-0.12173 -0.47266,-0.10743 -0.17188,0.0143 -0.30795,0.0788 -0.4082,0.19336 -0.11459,0.12892 -0.1504,0.29364 -0.10742,0.49414 l 0.64453,3.07227 -2.64258,0 c -0.3724,10e-6 -0.5586,0.17905 -0.5586,0.53711 -0.0143,0.3724 0.15039,0.5586 0.49415,0.55859 l 14.05078,0 c 0.32941,1e-5 0.4798,-0.18619 0.45117,-0.55859 -0.0143,-0.35806 -0.20054,-0.5371 -0.5586,-0.53711 z m 1.46094,2.90039 -16.73633,0 c -0.42969,10e-6 -0.64453,0.17188 -0.64453,0.51562 0,0.35809 0.20768,0.53712 0.62305,0.53711 l 7.73437,0 0,1.78321 c -10e-6,0.20052 0.0644,0.36524 0.19336,0.49414 0.11458,0.10026 0.25781,0.15039 0.42969,0.15039 0.15754,0 0.29361,-0.0573 0.4082,-0.17188 0.14322,-0.1289 0.21484,-0.30077 0.21485,-0.51562 l 0,-1.74024 7.82031,0 c 0.35805,10e-6 0.53709,-0.17902 0.53711,-0.53711 -0.0143,-0.34374 -0.2077,-0.51561 -0.58008,-0.51562 z m -3.02929,3.11523 -10.82813,0 c -0.5586,10e-6 -1.00261,0.1504 -1.33203,0.45118 -0.31511,0.30078 -0.47266,0.71615 -0.47266,1.24609 l 0,2.68555 c 0,0.5013 0.15755,0.89518 0.47266,1.18164 0.30078,0.28646 0.73762,0.42968 1.31055,0.42968 l 11.02148,0 c 0.51561,0 0.93097,-0.15755 1.24609,-0.47265 0.31509,-0.30078 0.47264,-0.69466 0.47266,-1.18164 l 0,-2.81446 c -2e-5,-0.45832 -0.17905,-0.82356 -0.53711,-1.0957 -0.34377,-0.28645 -0.79494,-0.42968 -1.35351,-0.42969 z m 0.60156,1.82618 0,2.38476 c -2e-5,0.24349 -0.0788,0.42253 -0.23633,0.53711 -0.14325,0.10026 -0.37241,0.15039 -0.6875,0.15039 l -10.05469,0 c -0.3724,0 -0.63021,-0.0573 -0.77344,-0.17187 -0.12891,-0.11459 -0.19336,-0.31511 -0.19335,-0.60157 l 0,-2.23437 c -10e-6,-0.28646 0.0573,-0.48698 0.17187,-0.60156 0.14322,-0.12891 0.38671,-0.19336 0.73047,-0.19336 l 10.07617,0 c 0.32941,0 0.5729,0.0573 0.73047,0.17187 0.15753,0.10027 0.23631,0.28646 0.23633,0.5586 z"
         style="font-family:Gulim;-inkscape-font-specification:Gulim"
         id="path3101"
         inkscape:connector-curvature="0" />
    </g>
    <g
       style="font-size:22px;font-style:normal;font-variant:normal;font-weight:normal;font-stretch:normal;line-height:125%;letter-spacing:0px;word-spacing:0px;fill:#000000;fill-opacity:1;stroke:none;font-family:Open Sans;-inkscape-font-specification:Open Sans"
       id="text11876-636">
      <path
         d="m 489.05676,849.86121 0,2.10546 c -10e-6,0.37241 -0.0788,0.63022 -0.23633,0.77344 -0.15756,0.15756 -0.42254,0.23634 -0.79492,0.23633 l -9.88281,0 c -0.38672,10e-6 -0.65886,-0.0859 -0.81641,-0.25781 -0.14323,-0.14322 -0.21484,-0.39387 -0.21484,-0.75196 l 0,-2.10546 z m 0,-2.81446 0,1.74024 -11.94531,0 0,-1.74024 c 0,-0.2005 -0.0716,-0.35805 -0.21484,-0.47265 -0.11459,-0.11457 -0.25782,-0.17186 -0.42969,-0.17188 -0.1862,2e-5 -0.33659,0.0573 -0.45117,0.17188 -0.12891,0.1146 -0.19337,0.27931 -0.19336,0.49414 l 0,5.15625 c -10e-6,0.51563 0.15755,0.94532 0.47265,1.28906 0.34375,0.35808 0.80208,0.53712 1.375,0.53711 l 10.5918,0 c 0.67316,10e-6 1.18879,-0.16471 1.54688,-0.49414 0.35805,-0.3151 0.53709,-0.75194 0.53711,-1.31055 l 0,-5.2207 c -2e-5,-0.20051 -0.0716,-0.35806 -0.21485,-0.47266 -0.1146,-0.10024 -0.25783,-0.15037 -0.42969,-0.15039 -0.18621,2e-5 -0.3366,0.0573 -0.45117,0.17188 -0.12892,0.1146 -0.19337,0.27215 -0.19336,0.47265 z m 2.40625,9.47461 -16.71484,0 c -0.40104,1e-5 -0.60873,0.17904 -0.62305,0.53711 -0.0143,0.3724 0.16471,0.5586 0.53711,0.5586 l 7.79883,0 0,5.75781 c -10e-6,0.20052 0.0644,0.36523 0.19336,0.49414 0.11457,0.10026 0.2578,0.15039 0.42969,0.15039 0.15754,0 0.2936,-0.0573 0.4082,-0.17188 0.14322,-0.1289 0.21483,-0.29362 0.21484,-0.49414 l 0,-5.73632 7.79883,0 c 0.37238,0 0.55858,-0.1862 0.5586,-0.5586 -0.0143,-0.35807 -0.21487,-0.5371 -0.60157,-0.53711 z"
         style="font-family:Gulim;-inkscape-font-specification:Gulim"
         id="path3125" />
      <path
         d="m 511.95911,846.38074 -13.79297,0 c -0.40105,1e-5 -0.59441,0.17905 -0.58008,0.53711 0,0.37241 0.19336,0.55861 0.58008,0.55859 l 13.85742,0 c 0.17186,2e-5 0.31509,-0.0573 0.42969,-0.17187 0.0859,-0.11457 0.12888,-0.24348 0.1289,-0.38672 -2e-5,-0.14322 -0.0573,-0.27212 -0.17187,-0.38672 -0.1146,-0.10025 -0.26499,-0.15038 -0.45117,-0.15039 z m 0.0644,5.11328 -2.64258,0 0.66602,-3.00781 c 0.0429,-0.18619 0.007,-0.34374 -0.10742,-0.47266 -0.10028,-0.11457 -0.24351,-0.17902 -0.42969,-0.19336 -0.17189,-0.0143 -0.32944,0.0215 -0.47266,0.10742 -0.15757,0.086 -0.2435,0.22918 -0.25781,0.42969 l -0.66602,3.13672 -6.05859,0 -0.66602,-3.20117 c -0.0286,-0.20051 -0.11459,-0.3509 -0.25781,-0.45118 -0.14323,-0.0859 -0.30079,-0.12172 -0.47265,-0.10742 -0.17189,0.0143 -0.30795,0.0788 -0.40821,0.19336 -0.11459,0.12892 -0.15039,0.29364 -0.10742,0.49414 l 0.64453,3.07227 -2.64258,0 c -0.3724,10e-6 -0.55859,0.17905 -0.55859,0.53711 -0.0143,0.3724 0.15039,0.5586 0.49414,0.55859 l 14.05078,0 c 0.32941,10e-6 0.4798,-0.18619 0.45117,-0.55859 -0.0143,-0.35806 -0.20054,-0.5371 -0.55859,-0.53711 z m 1.46094,2.90039 -16.73633,0 c -0.42969,10e-6 -0.64453,0.17188 -0.64453,0.51562 0,0.35808 0.20768,0.53712 0.62304,0.53711 l 7.73438,0 0,1.78321 c -10e-6,0.20052 0.0644,0.36524 0.19336,0.49414 0.11457,0.10026 0.2578,0.15039 0.42969,0.15039 0.15754,0 0.2936,-0.0573 0.4082,-0.17188 0.14322,-0.1289 0.21483,-0.30077 0.21484,-0.51562 l 0,-1.74024 7.82032,0 c 0.35805,10e-6 0.53709,-0.17903 0.53711,-0.53711 -0.0143,-0.34374 -0.20771,-0.51561 -0.58008,-0.51562 z m -3.0293,3.11523 -10.82812,0 c -0.5586,10e-6 -1.00261,0.1504 -1.33204,0.45118 -0.3151,0.30078 -0.47266,0.71615 -0.47265,1.24609 l 0,2.68555 c -10e-6,0.5013 0.15755,0.89518 0.47265,1.18164 0.30078,0.28645 0.73763,0.42968 1.31055,0.42968 l 11.02149,0 c 0.5156,0 0.93097,-0.15755 1.24609,-0.47265 0.31509,-0.30078 0.47264,-0.69466 0.47266,-1.18164 l 0,-2.81446 c -2e-5,-0.45832 -0.17906,-0.82356 -0.53711,-1.0957 -0.34377,-0.28645 -0.79494,-0.42968 -1.35352,-0.42969 z m 0.60156,1.82618 0,2.38476 c -10e-6,0.24349 -0.0788,0.42253 -0.23633,0.53711 -0.14324,0.10026 -0.37241,0.15039 -0.6875,0.15039 l -10.05468,0 c -0.3724,0 -0.63022,-0.0573 -0.77344,-0.17187 -0.12891,-0.11459 -0.19336,-0.31511 -0.19336,-0.60157 l 0,-2.23437 c 0,-0.28646 0.0573,-0.48698 0.17188,-0.60156 0.14322,-0.12891 0.38671,-0.19336 0.73046,-0.19336 l 10.07618,0 c 0.32941,0 0.5729,0.0573 0.73046,0.17187 0.15754,0.10027 0.23632,0.28646 0.23633,0.5586 z"
         style="font-family:Gulim;-inkscape-font-specification:Gulim"
         id="path3127" />
    </g>
    <g
       style="font-size:22px;font-style:normal;font-variant:normal;font-weight:normal;font-stretch:normal;line-height:125%;letter-spacing:0px;word-spacing:0px;fill:#000000;fill-opacity:1;stroke:none;font-family:Open Sans;-inkscape-font-specification:Open Sans"
       id="text11876-49">
      <path
         d="m 555.16748,849.80066 0,2.10547 c -2e-5,0.3724 -0.0788,0.63022 -0.23633,0.77344 -0.15757,0.15756 -0.42254,0.23633 -0.79492,0.23632 l -9.88281,0 c -0.38673,10e-6 -0.65886,-0.0859 -0.81641,-0.25781 -0.14323,-0.14322 -0.21485,-0.39387 -0.21484,-0.75195 l 0,-2.10547 z m 0,-2.81445 0,1.74023 -11.94531,0 0,-1.74023 c -10e-6,-0.20051 -0.0716,-0.35806 -0.21485,-0.47266 -0.11458,-0.11457 -0.25781,-0.17186 -0.42968,-0.17188 -0.18621,2e-5 -0.3366,0.0573 -0.45118,0.17188 -0.12891,0.1146 -0.19336,0.27931 -0.19335,0.49414 l 0,5.15625 c -1e-5,0.51564 0.15754,0.94532 0.47265,1.28906 0.34375,0.35808 0.80208,0.53712 1.375,0.53711 l 10.5918,0 c 0.67316,1e-5 1.18878,-0.1647 1.54687,-0.49414 0.35806,-0.31509 0.53709,-0.75194 0.53711,-1.31055 l 0,-5.2207 c -2e-5,-0.2005 -0.0716,-0.35805 -0.21484,-0.47265 -0.1146,-0.10025 -0.25783,-0.15038 -0.42969,-0.1504 -0.18621,2e-5 -0.3366,0.0573 -0.45117,0.17188 -0.12892,0.1146 -0.19338,0.27215 -0.19336,0.47266 z m 2.40625,9.47461 -16.71484,0 c -0.40105,0 -0.60873,0.17904 -0.62305,0.5371 -0.0143,0.37241 0.16471,0.5586 0.53711,0.5586 l 7.79883,0 0,5.75781 c -10e-6,0.20052 0.0644,0.36523 0.19336,0.49414 0.11457,0.10026 0.2578,0.15039 0.42968,0.15039 0.15755,0 0.29361,-0.0573 0.40821,-0.17187 0.14321,-0.12891 0.21483,-0.29362 0.21484,-0.49414 l 0,-5.73633 7.79883,0 c 0.37238,0 0.55857,-0.18619 0.55859,-0.5586 -0.0143,-0.35806 -0.21486,-0.5371 -0.60156,-0.5371 z"
         style="font-family:Gulim;-inkscape-font-specification:Gulim"
         id="path3130" />
      <path
         d="m 578.06982,846.32019 -13.79296,0 c -0.40105,2e-5 -0.59441,0.17905 -0.58008,0.53711 -10e-6,0.37241 0.19335,0.55861 0.58008,0.55859 l 13.85742,0 c 0.17185,2e-5 0.31508,-0.0573 0.42968,-0.17187 0.0859,-0.11457 0.12889,-0.24348 0.12891,-0.38672 -2e-5,-0.14321 -0.0573,-0.27212 -0.17187,-0.38672 -0.11461,-0.10024 -0.265,-0.15037 -0.45118,-0.15039 z m 0.0645,5.11328 -2.64258,0 0.66601,-3.00781 c 0.043,-0.18618 0.007,-0.34374 -0.10742,-0.47266 -0.10027,-0.11457 -0.2435,-0.17902 -0.42968,-0.19336 -0.17189,-0.0143 -0.32945,0.0215 -0.47266,0.10743 -0.15757,0.086 -0.24351,0.22918 -0.25781,0.42968 l -0.66602,3.13672 -6.05859,0 -0.66602,-3.20117 c -0.0286,-0.20051 -0.11459,-0.3509 -0.25781,-0.45117 -0.14324,-0.0859 -0.30079,-0.12173 -0.47266,-0.10742 -0.17188,0.0143 -0.30795,0.0788 -0.4082,0.19336 -0.11459,0.12892 -0.1504,0.29363 -0.10742,0.49414 l 0.64453,3.07226 -2.64258,0 c -0.3724,10e-6 -0.5586,0.17905 -0.55859,0.53711 -0.0143,0.37241 0.15038,0.55861 0.49414,0.55859 l 14.05078,0 c 0.32941,2e-5 0.4798,-0.18618 0.45117,-0.55859 -0.0143,-0.35806 -0.20054,-0.5371 -0.55859,-0.53711 z m 1.46093,2.90039 -16.73632,0 c -0.42969,1e-5 -0.64454,0.17189 -0.64453,0.51563 -1e-5,0.35808 0.20768,0.53711 0.62304,0.53711 l 7.73438,0 0,1.7832 c -10e-6,0.20053 0.0644,0.36524 0.19336,0.49414 0.11457,0.10027 0.2578,0.1504 0.42968,0.15039 0.15755,10e-6 0.29361,-0.0573 0.40821,-0.17187 0.14321,-0.1289 0.21483,-0.30078 0.21484,-0.51563 l 0,-1.74023 7.82031,0 c 0.35806,0 0.53709,-0.17903 0.53711,-0.53711 -0.0143,-0.34374 -0.2077,-0.51562 -0.58008,-0.51563 z m -3.02929,3.11524 -10.82813,0 c -0.5586,0 -1.00261,0.15039 -1.33203,0.45117 -0.31511,0.30078 -0.47266,0.71615 -0.47265,1.24609 l 0,2.68555 c -1e-5,0.5013 0.15754,0.89518 0.47265,1.18164 0.30078,0.28646 0.73763,0.42969 1.31055,0.42969 l 11.02148,0 c 0.51561,0 0.93098,-0.15756 1.2461,-0.47266 0.31508,-0.30078 0.47263,-0.69466 0.47265,-1.18164 l 0,-2.81445 c -2e-5,-0.45833 -0.17905,-0.82357 -0.53711,-1.09571 -0.34376,-0.28645 -0.79494,-0.42968 -1.35351,-0.42968 z m 0.60156,1.82617 0,2.38476 c -2e-5,0.24349 -0.0788,0.42253 -0.23633,0.53711 -0.14324,0.10026 -0.37241,0.15039 -0.6875,0.15039 l -10.05469,0 c -0.3724,0 -0.63021,-0.0573 -0.77343,-0.17187 -0.12891,-0.11458 -0.19337,-0.3151 -0.19336,-0.60156 l 0,-2.23438 c -10e-6,-0.28645 0.0573,-0.48697 0.17187,-0.60156 0.14323,-0.1289 0.38672,-0.19336 0.73047,-0.19336 l 10.07617,0 c 0.32941,0 0.5729,0.0573 0.73047,0.17187 0.15754,0.10027 0.23631,0.28647 0.23633,0.5586 z"
         style="font-family:Gulim;-inkscape-font-specification:Gulim"
         id="path3132" />
    </g>
    <g
       style="font-size:22px;font-style:normal;font-variant:normal;font-weight:normal;font-stretch:normal;line-height:125%;letter-spacing:0px;word-spacing:0px;fill:#000000;fill-opacity:1;stroke:none;font-family:Open Sans;-inkscape-font-specification:Open Sans"
       id="text12471">
      <path
         d="m 348.11761,898.40503 -2.09002,0 -5.36774,13.20013 -5.3241,-13.20013 -2.13366,0 6.22577,15.57617 2.44183,0 z"
         style="font-family:YDIYGO130;-inkscape-font-specification:YDIYGO130"
         id="path3104" />
      <path
         d="m 362.87604,914.02551 0,-7.96399 -6.68769,0 0,1.71607 4.64197,0.0215 c -0.0586,1.29086 -0.51698,2.41666 -1.375,3.37741 -0.85804,0.96076 -2.00589,1.44113 -3.44354,1.44113 -1.61313,0 -2.84501,-0.60133 -3.69565,-1.80401 -0.85065,-1.20268 -1.27597,-2.75738 -1.27597,-4.66412 0,-1.87719 0.42532,-3.3952 1.27597,-4.55402 0.85064,-1.1588 2.08252,-1.73821 3.69565,-1.73822 1.39334,10e-6 2.42011,0.33738 3.08032,1.01211 0.66019,0.67476 1.1221,1.37132 1.38574,2.0897 l 2.26593,0.0221 c -0.23455,-1.01199 -0.89083,-2.09001 -1.96884,-3.23407 -1.07803,-1.14403 -2.66575,-1.71605 -4.76315,-1.71606 -2.22901,10e-6 -3.98155,0.74077 -5.25763,2.22229 -1.27608,1.48153 -1.91412,3.44691 -1.91412,5.89612 0,2.49308 0.63804,4.49862 1.91412,6.01663 1.27608,1.518 3.02862,2.277 5.25763,2.27701 1.0854,-10e-6 2.0645,-0.26397 2.93732,-0.79191 0.87279,-0.52793 1.52179,-1.09245 1.94702,-1.69357 l -0.0222,2.06787 z"
         style="font-family:YDIYGO130;-inkscape-font-specification:YDIYGO130"
         id="path3106" />
      <path
         d="m 377.86273,914.09131 0.0222,-15.97162 -1.49585,0 c -0.0296,0.42523 -0.15431,0.83209 -0.3743,1.22058 -0.22,0.38852 -0.47658,0.6855 -0.76974,0.89093 -0.39613,0.27886 -0.81787,0.48431 -1.26523,0.61633 -0.44737,0.13206 -0.92775,0.20524 -1.44113,0.21955 l 0,1.58447 3.38848,0 0,11.43976 z"
         style="font-family:YDIYGO130;-inkscape-font-specification:YDIYGO130"
         id="path3108" />
    </g>
    <g
       style="font-size:22px;font-style:normal;font-variant:normal;font-weight:normal;font-stretch:normal;line-height:125%;letter-spacing:0px;word-spacing:0px;fill:#000000;fill-opacity:1;stroke:none;font-family:Open Sans;-inkscape-font-specification:Open Sans"
       id="text12475">
      <path
         d="m 518.2944,898.67749 -2.09002,0 -5.36774,13.20013 -5.3241,-13.20013 -2.13366,0 6.22576,15.57617 2.44184,0 z"
         style="font-family:YDIYGO130;-inkscape-font-specification:YDIYGO130"
         id="path3111" />
      <path
         d="m 533.05283,914.29797 0,-7.96399 -6.68769,0 0,1.71607 4.64197,0.0215 c -0.0587,1.29086 -0.51698,2.41666 -1.375,3.37741 -0.85804,0.96076 -2.00589,1.44114 -3.44354,1.44114 -1.61313,0 -2.84501,-0.60134 -3.69565,-1.80402 -0.85065,-1.20267 -1.27597,-2.75738 -1.27597,-4.66412 0,-1.87719 0.42532,-3.3952 1.27597,-4.55402 0.85064,-1.1588 2.08252,-1.73821 3.69565,-1.73822 1.39334,1e-5 2.42011,0.33738 3.08032,1.01212 0.66019,0.67475 1.1221,1.37131 1.38574,2.08969 l 2.26593,0.0222 c -0.23455,-1.01199 -0.89083,-2.09001 -1.96884,-3.23407 -1.07803,-1.14403 -2.66575,-1.71605 -4.76315,-1.71606 -2.22901,10e-6 -3.98155,0.74078 -5.25763,2.22229 -1.27609,1.48154 -1.91413,3.44691 -1.91412,5.89612 -1e-5,2.49308 0.63803,4.49862 1.91412,6.01663 1.27608,1.518 3.02862,2.277 5.25763,2.27701 1.0854,-1e-5 2.0645,-0.26397 2.93732,-0.7919 0.87279,-0.52794 1.52179,-1.09246 1.94702,-1.69358 l -0.0222,2.06787 z"
         style="font-family:YDIYGO130;-inkscape-font-specification:YDIYGO130"
         id="path3113" />
      <path
         d="m 547.88577,897.92957 c -1.73084,10e-6 -2.99953,0.5134 -3.80609,1.54016 -0.80656,1.02678 -1.22461,2.17821 -1.25415,3.45428 l 1.87048,0 c 0.0439,-0.79222 0.28579,-1.5256 0.72577,-2.20013 0.43998,-0.67451 1.24654,-1.01177 2.41968,-1.01178 0.9829,1e-5 1.71639,0.26767 2.20047,0.80298 0.48406,0.53533 0.7261,1.27228 0.72611,2.21087 -1e-5,0.6893 -0.19438,1.3053 -0.5831,1.84799 -0.38874,0.54272 -0.88389,1.02667 -1.48545,1.45188 l -2.61773,1.86981 c -1.49586,1.05632 -2.48581,2.11241 -2.96988,3.16827 -0.48407,1.05587 -0.73349,2.11174 -0.74826,3.16761 l 10.56024,0 0,-1.7154 -8.16205,0 c 0.19067,-0.66019 0.53901,-1.26164 1.04501,-1.80435 0.506,-0.5427 0.96422,-0.96064 1.37467,-1.25381 l 2.59625,-1.78186 c 0.68928,-0.46952 1.39692,-1.10029 2.12293,-1.89231 0.72598,-0.792 1.08897,-1.81866 1.08898,-3.07998 -10e-6,-1.29084 -0.41794,-2.40926 -1.25381,-3.35526 -0.83589,-0.94597 -2.11924,-1.41896 -3.85007,-1.41897 z"
         style="font-family:YDIYGO130;-inkscape-font-specification:YDIYGO130"
         id="path3115" />
    </g>
    <g
       style="font-size:22px;font-style:normal;font-variant:normal;font-weight:normal;font-stretch:normal;line-height:125%;letter-spacing:0px;word-spacing:0px;fill:#000000;fill-opacity:1;stroke:none;font-family:Open Sans;-inkscape-font-specification:Open Sans"
       id="text12479">
      <path
         d="m 294.24252,964.26178 0,-1.78186 -8.33795,0 0,-13.77216 -2.00207,0 0,15.55402 z"
         style="font-family:YDIYGO130;-inkscape-font-specification:YDIYGO130"
         id="path3135" />
      <path
         d="m 309.0748,948.70776 -2.09003,0 -5.36774,13.20014 -5.32409,-13.20014 -2.13367,0 6.22577,15.57618 2.44183,0 z"
         style="font-family:YDIYGO130;-inkscape-font-specification:YDIYGO130"
         id="path3137" />
      <path
         d="m 322.87851,964.39404 0.0222,-15.97162 -1.49585,0 c -0.0295,0.42523 -0.15432,0.83209 -0.3743,1.22059 -0.22,0.38852 -0.47658,0.68549 -0.76975,0.89093 -0.39612,0.27886 -0.81786,0.4843 -1.26523,0.61633 -0.44736,0.13205 -0.92774,0.20523 -1.44113,0.21954 l 0,1.58447 3.38849,0 0,11.43976 z"
         style="font-family:YDIYGO130;-inkscape-font-specification:YDIYGO130"
         id="path3139" />
    </g>
    <g
       style="font-size:22px;font-style:normal;font-variant:normal;font-weight:normal;font-stretch:normal;line-height:125%;letter-spacing:0px;word-spacing:0px;fill:#000000;fill-opacity:1;stroke:none;font-family:Open Sans;-inkscape-font-specification:Open Sans"
       id="text12483">
      <path
         d="m 398.198,964.31256 0,-1.78186 -8.33795,0 0,-13.77216 -2.00208,0 0,15.55402 z"
         style="font-family:YDIYGO130;-inkscape-font-specification:YDIYGO130"
         id="path3142" />
      <path
         d="m 413.03027,948.75854 -2.09002,0 -5.36774,13.20014 -5.3241,-13.20014 -2.13366,0 6.22577,15.57618 2.44183,0 z"
         style="font-family:YDIYGO130;-inkscape-font-specification:YDIYGO130"
         id="path3144" />
      <path
         d="m 426.68024,948.01062 c -1.73084,2e-5 -2.99954,0.5134 -3.80609,1.54016 -0.80657,1.02679 -1.22461,2.17821 -1.25415,3.45429 l 1.87048,0 c 0.0439,-0.79223 0.28578,-1.52561 0.72577,-2.20014 0.43998,-0.67451 1.24653,-1.01176 2.41968,-1.01178 0.9829,2e-5 1.71639,0.26767 2.20047,0.80298 0.48406,0.53533 0.72609,1.27229 0.7261,2.21088 -10e-6,0.6893 -0.19438,1.30529 -0.5831,1.84799 -0.38874,0.54271 -0.88389,1.02667 -1.48544,1.45187 l -2.61774,1.86981 c -1.49585,1.05632 -2.48581,2.11241 -2.96988,3.16828 -0.48407,1.05587 -0.73349,2.11173 -0.74826,3.1676 l 10.56024,0 0,-1.71539 -8.16205,0 c 0.19068,-0.6602 0.53901,-1.26165 1.04502,-1.80435 0.506,-0.54271 0.96422,-0.96064 1.37466,-1.25382 l 2.59625,-1.78186 c 0.68929,-0.46952 1.39693,-1.10028 2.12293,-1.8923 0.72598,-0.79201 1.08898,-1.81867 1.08899,-3.07999 -10e-6,-1.29084 -0.41795,-2.40926 -1.25382,-3.35525 -0.83588,-0.94597 -2.11924,-1.41896 -3.85006,-1.41898 z"
         style="font-family:YDIYGO130;-inkscape-font-specification:YDIYGO130"
         id="path3146" />
    </g>
    <g
       style="font-size:22px;font-style:normal;font-variant:normal;font-weight:normal;font-stretch:normal;line-height:125%;letter-spacing:0px;word-spacing:0px;fill:#000000;fill-opacity:1;stroke:none;font-family:Open Sans;-inkscape-font-specification:Open Sans"
       id="text12487">
      <path
         d="m 484.12646,964.19635 0,-1.78186 -8.33795,0 0,-13.77216 -2.00207,0 0,15.55402 z"
         style="font-family:YDIYGO130;-inkscape-font-specification:YDIYGO130"
         id="path3149" />
      <path
         d="m 498.95874,948.64233 -2.09003,0 -5.36773,13.20014 -5.3241,-13.20014 -2.13367,0 6.22577,15.57618 2.44184,0 z"
         style="font-family:YDIYGO130;-inkscape-font-specification:YDIYGO130"
         id="path3151" />
      <path
         d="m 515.22644,955.92487 c 0.54292,-0.26408 1.05273,-0.68582 1.52942,-1.26523 0.47667,-0.5794 0.71502,-1.36033 0.71503,-2.34281 -1e-5,-1.12926 -0.50244,-2.14126 -1.50727,-3.03601 -1.00485,-0.89472 -2.15986,-1.34208 -3.46502,-1.3421 -1.3495,2e-5 -2.52655,0.39971 -3.53116,1.1991 -1.00462,0.79941 -1.49216,1.94703 -1.46262,3.44287 l 1.86981,0 c 0,-0.71882 0.23465,-1.37891 0.70395,-1.98026 0.4693,-0.60132 1.25404,-0.90199 2.35422,-0.902 0.87996,10e-6 1.57663,0.26039 2.09003,0.78115 0.51338,0.52079 0.77007,1.1332 0.77008,1.83725 -10e-6,0.6159 -0.14302,1.14383 -0.42902,1.5838 -0.28602,0.44 -0.72242,0.79941 -1.3092,1.07825 -0.27886,0.11728 -0.61623,0.19057 -1.01212,0.21988 -0.3959,0.0293 -0.76997,0.044 -1.12222,0.044 l 0,1.69391 c 0.35225,0 0.70439,0.0147 1.05643,0.044 0.35202,0.0293 0.71132,0.0952 1.07791,0.19772 0.55724,0.13205 1.05955,0.43283 1.50692,0.90235 0.44736,0.46953 0.67105,1.04893 0.67106,1.73822 -10e-6,0.86519 -0.28972,1.60573 -0.86911,2.22162 -0.57942,0.61588 -1.36774,0.92383 -2.36496,0.92383 -1.15882,0 -2.0352,-0.35562 -2.62915,-1.06684 -0.59396,-0.71122 -0.89094,-1.44818 -0.89093,-2.21087 l -1.89197,0 c 0,1.37858 0.51338,2.5666 1.54016,3.56405 1.02677,0.99746 2.3174,1.49619 3.87189,1.49619 1.61355,0 2.92634,-0.46203 3.93835,-1.38608 1.01199,-0.92405 1.51799,-2.09014 1.51801,-3.49826 -2e-5,-0.77746 -0.23478,-1.51442 -0.70429,-2.21088 -0.46953,-0.69644 -1.14427,-1.27205 -2.02423,-1.7268 z"
         style="font-family:YDIYGO130;-inkscape-font-specification:YDIYGO130"
         id="path3153" />
    </g>
    <g
       style="font-size:22px;font-style:normal;font-variant:normal;font-weight:normal;font-stretch:normal;line-height:125%;letter-spacing:0px;word-spacing:0px;fill:#000000;fill-opacity:1;stroke:none;font-family:Open Sans;-inkscape-font-specification:Open Sans"
       id="text12491">
      <path
         d="m 553.39441,964.04987 0,-1.78186 -8.33795,0 0,-13.77216 -2.00208,0 0,15.55402 z"
         style="font-family:YDIYGO130;-inkscape-font-specification:YDIYGO130"
         id="path3118" />
      <path
         d="m 568.22668,948.49585 -2.09002,0 -5.36774,13.20013 -5.3241,-13.20013 -2.13366,0 6.22577,15.57617 2.44183,0 z"
         style="font-family:YDIYGO130;-inkscape-font-specification:YDIYGO130"
         id="path3120" />
      <path
         d="m 580.14716,961.16827 0,-1.67242 -2.3982,0 0,-11.35181 -2.02356,0.0222 -7.30401,10.7583 0,2.24377 7.34765,0 0,3.01386 1.97992,0 0,-3.01386 z m -4.37812,-1.67242 -5.45569,0 5.34559,-8.02979 0.1101,0.0443 z"
         style="font-family:YDIYGO130;-inkscape-font-specification:YDIYGO130"
         id="path3122" />
    </g>
  </g>
</svg>
