<?xml version="1.0" encoding="UTF-8" standalone="no"?>
<svg
   xmlns:dc="http://purl.org/dc/elements/1.1/"
   xmlns:cc="http://creativecommons.org/ns#"
   xmlns:rdf="http://www.w3.org/1999/02/22-rdf-syntax-ns#"
   xmlns:svg="http://www.w3.org/2000/svg"
   xmlns="http://www.w3.org/2000/svg"
   xmlns:xlink="http://www.w3.org/1999/xlink"
   xmlns:sodipodi="http://sodipodi.sourceforge.net/DTD/sodipodi-0.dtd"
   xmlns:inkscape="http://www.inkscape.org/namespaces/inkscape"
   width="1087"
   height="395"
   version="1.1"
   id="svg2"
   inkscape:version="0.48.1 "
   sodipodi:docname="new-maintenance-model.svg">
  <metadata
     id="metadata141">
    <rdf:RDF>
      <cc:Work
         rdf:about="">
        <dc:format>image/svg+xml</dc:format>
        <dc:type
           rdf:resource="http://purl.org/dc/dcmitype/StillImage" />
      </cc:Work>
    </rdf:RDF>
  </metadata>
  <sodipodi:namedview
     pagecolor="#ffffff"
     bordercolor="#666666"
     borderopacity="1"
     objecttolerance="10"
     gridtolerance="10"
     guidetolerance="10"
     inkscape:pageopacity="0"
     inkscape:pageshadow="2"
     inkscape:window-width="1920"
     inkscape:window-height="1033"
     id="namedview139"
     showgrid="false"
     inkscape:zoom="1.2432572"
     inkscape:cx="543.5"
     inkscape:cy="197.5"
     inkscape:window-x="-4"
     inkscape:window-y="-4"
     inkscape:window-maximized="1"
     inkscape:current-layer="svg2" />
  <defs
     id="defs86">
    <linearGradient
       id="linearGradient5393">
      <stop
         style="stop-color:#ffffff;stop-"
         offset="0"
         id="stop5395" />
      <stop
         style="stop-color:#ffffff;stop-opacity:0;"
         offset="1"
         id="stop5397" />
    </linearGradient>
    <linearGradient
       xlink:href="#linearGradient5393"
       id="linearGradient5399"
       x1="1109.5564"
       y1="41.785362"
       x2="967.62579"
       y2="41.785362"
       gradientUnits="userSpaceOnUse" />
  </defs>
  <rect
     ry="3"
     rx="3"
     y="357"
     x="1"
     height="28"
     width="1037.5"
     style="fill:#71d6e0"
     id="rect9" />
  <path
     d="M 1086,371 1036,357 l 0,28 50,-14 z"
     style="fill:#71d6e0;"
     id="path11" />
  <g
     style="font-size:18.75px;font-weight:600;fill:#5f5f5f;font-family:Open Sans"
     id="text13">
    <path
       d="m 553.68366,380.26628 0,-16.54415 -2.24132,0 0,16.54415 z m -3.56655,-4.63314 c -1.55412,-0.96511 -2.71169,-2.08282 -3.47271,-3.35312 -0.76104,-1.27029 -1.14155,-2.89744 -1.14155,-4.88148 l 0,-2.73857 -2.33345,0 0,2.73857 c 0,1.95848 -0.37232,3.65258 -1.11694,5.08233 -0.74463,1.42975 -1.98384,2.65064 -3.71761,3.66268 l 1.65023,1.36528 c 0.9037,-0.48447 1.82238,-1.2619 2.75603,-2.33231 0.93364,-1.0704 1.48095,-2.02102 1.64194,-2.85187 0.288,0.93766 0.87728,1.89543 1.76783,2.87333 0.89053,0.9779 1.75122,1.63774 2.58207,1.97954 z"
       style="font-style:normal;font-variant:normal;font-weight:bold;font-stretch:normal;font-family:YDIYGO130;-inkscape-font-specification:YDIYGO130 Bold"
       id="path3079" />
    <path
       d="m 565.23418,364.80703 -8.58364,0 0,1.91059 5.97496,0 c -0.0828,1.17379 -0.79775,2.37132 -2.14491,3.59259 -1.34716,1.22128 -2.97918,2.06633 -4.89606,2.53515 l 1.27315,1.51978 c 2.51236,-0.70191 4.52671,-1.90773 6.04305,-3.61748 1.51634,-1.70974 2.29415,-3.68995 2.33345,-5.94063 z m 7.04098,6.10199 0,-1.91059 -2.33459,0 0,-5.2763 -2.24133,0 0,12.07695 2.24133,0 0,-4.89006 z m -1.81961,8.98933 0,-1.91002 -9.90887,0 0,-3.4933 -2.22301,0 0,5.40332 z"
       style="font-style:normal;font-variant:normal;font-weight:bold;font-stretch:normal;font-family:YDIYGO130;-inkscape-font-specification:YDIYGO130 Bold"
       id="path3081" />
  </g>
  <rect
     ry="5"
     rx="5"
     y="169"
     x="1"
     height="166"
     width="968"
     style="fill:#ededed;"
     id="rect15" />
  <rect
     style="fill:#02d35f"
     width="190"
     height="26"
     x="425"
     y="213"
     id="rect17" />
  <rect
     style="fill:#02d35f"
     width="190"
     height="26"
     x="155"
     y="265"
     id="rect19" />
  <g
     style="font-size:18.75px;font-weight:600;fill:#00c081;font-family:Open Sans"
     id="text21">
    <path
       d="m 26.670044,203.12851 c -10e-6,1.2085 -0.434885,2.16065 -1.304627,2.85644 -0.869758,0.69581 -2.079779,1.04371 -3.630065,1.04371 -1.428226,0 -2.691653,-0.26856 -3.790284,-0.80567 l 0,-2.63672 c 0.903319,0.40284 1.667783,0.68665 2.293396,0.85144 0.625607,0.1648 1.197811,0.2472 1.716614,0.2472 0.622553,0 1.100153,-0.11902 1.4328,-0.35706 0.332635,-0.23803 0.498956,-0.59204 0.498963,-1.06201 -7e-6,-0.26245 -0.07325,-0.49591 -0.219727,-0.70038 -0.146491,-0.20446 -0.361639,-0.4013 -0.645447,-0.59051 -0.283819,-0.18921 -0.862126,-0.49133 -1.734924,-0.90638 -0.817874,-0.38451 -1.431277,-0.75377 -1.84021,-1.10779 -0.408937,-0.35399 -0.735475,-0.76598 -0.979614,-1.23596 -0.244142,-0.46996 -0.366212,-1.01927 -0.366211,-1.64795 -1e-6,-1.18407 0.401305,-2.11485 1.203918,-2.79235 0.80261,-0.67748 1.911923,-1.01623 3.327942,-1.01624 0.695795,1e-5 1.359552,0.0824 1.991272,0.24719 0.631706,0.16481 1.292411,0.39674 1.982117,0.6958 l -0.915527,2.20642 c -0.71412,-0.29295 -1.304634,-0.49742 -1.771546,-0.6134 -0.466925,-0.11595 -0.926214,-0.17394 -1.377868,-0.17395 -0.537115,1e-5 -0.949102,0.12513 -1.235962,0.37537 -0.286869,0.25025 -0.430302,0.57679 -0.430298,0.97961 -4e-6,0.25025 0.05798,0.46846 0.17395,0.6546 0.115963,0.18617 0.300594,0.36622 0.553894,0.54016 0.253291,0.17396 0.852961,0.48677 1.799011,0.93842 1.251213,0.59815 2.108757,1.19782 2.572632,1.79901 0.463858,0.6012 0.695791,1.3382 0.695801,2.211 z"
       style="font-size:18.75px;font-weight:600;fill:#00c081;font-family:Open Sans"
       id="path3053" />
    <path
       d="m 29.096191,206.84555 0,-13.38501 2.838135,0 0,11.04126 5.429077,0 0,2.34375 z"
       style="font-size:18.75px;font-weight:600;fill:#00c081;font-family:Open Sans"
       id="path3055" />
    <path
       d="m 47.388428,206.84555 -7.708741,0 0,-13.38501 7.708741,0 0,2.32544 -4.870606,0 0,2.93884 4.531861,0 0,2.32544 -4.531861,0 0,3.45154 4.870606,0 z"
       style="font-size:18.75px;font-weight:600;fill:#00c081;font-family:Open Sans"
       id="path3057" />
    <path
       d="m 58.090942,203.12851 c -9e-6,1.2085 -0.434884,2.16065 -1.304626,2.85644 -0.869758,0.69581 -2.079779,1.04371 -3.630066,1.04371 -1.428226,0 -2.691652,-0.26856 -3.790283,-0.80567 l 0,-2.63672 c 0.903318,0.40284 1.667783,0.68665 2.293396,0.85144 0.625606,0.1648 1.19781,0.2472 1.716614,0.2472 0.622553,0 1.100152,-0.11902 1.4328,-0.35706 0.332635,-0.23803 0.498955,-0.59204 0.498962,-1.06201 -7e-6,-0.26245 -0.07325,-0.49591 -0.219726,-0.70038 -0.146491,-0.20446 -0.36164,-0.4013 -0.645447,-0.59051 -0.283819,-0.18921 -0.862127,-0.49133 -1.734924,-0.90638 -0.817875,-0.38451 -1.431278,-0.75377 -1.84021,-1.10779 -0.408938,-0.35399 -0.735476,-0.76598 -0.979615,-1.23596 -0.244141,-0.46996 -0.366212,-1.01927 -0.366211,-1.64795 -10e-7,-1.18407 0.401305,-2.11485 1.203919,-2.79235 0.802609,-0.67748 1.911922,-1.01623 3.327942,-1.01624 0.695794,1e-5 1.359551,0.0824 1.991272,0.24719 0.631705,0.16481 1.29241,0.39674 1.982116,0.6958 l -0.915527,2.20642 c -0.714119,-0.29295 -1.304634,-0.49742 -1.771545,-0.6134 -0.466926,-0.11595 -0.926215,-0.17394 -1.377869,-0.17395 -0.537114,1e-5 -0.949101,0.12513 -1.235962,0.37537 -0.286869,0.25025 -0.430301,0.57679 -0.430298,0.97961 -3e-6,0.25025 0.05798,0.46846 0.17395,0.6546 0.115963,0.18617 0.300594,0.36622 0.553895,0.54016 0.253291,0.17396 0.85296,0.48677 1.799011,0.93842 1.251213,0.59815 2.108756,1.19782 2.572632,1.79901 0.463857,0.6012 0.695791,1.3382 0.6958,2.211 z"
       style="font-size:18.75px;font-weight:600;fill:#00c081;font-family:Open Sans"
       id="path3059" />
    <path
       d="m 71.448486,206.84555 -2.828979,0 0,-7.74536 0.02747,-1.27258 0.04578,-1.39161 c -0.469975,0.46999 -0.796513,0.77821 -0.979614,0.92469 l -1.538086,1.23596 -1.364136,-1.70288 4.312134,-3.43323 2.325439,0 z"
       style="font-size:18.75px;font-weight:600;fill:#00c081;font-family:Open Sans"
       id="path3061" />
    <path
       d="m 82.141846,206.84555 -2.82898,0 0,-7.74536 0.02747,-1.27258 0.04578,-1.39161 c -0.469975,0.46999 -0.796513,0.77821 -0.979614,0.92469 l -1.538086,1.23596 -1.364136,-1.70288 4.312134,-3.43323 2.32544,0 z"
       style="font-size:18.75px;font-weight:600;fill:#00c081;font-family:Open Sans"
       id="path3063" />
  </g>
  <rect
     style="fill:#02d35f"
     width="190"
     height="26"
     x="20"
     y="291"
     id="rect23" />
  <rect
     style="opacity:0.5;fill:#92ecba"
     width="55"
     height="52"
     x="155"
     y="265"
     id="rect25" />
  <rect
     style="fill:#02d35f"
     width="190"
     height="26"
     x="290"
     y="239"
     id="rect27" />
  <rect
     style="opacity:0.5;fill:#92ecba"
     width="55"
     height="52"
     x="290"
     y="239"
     id="rect29" />
  <rect
     style="opacity:0.5;fill:#92ecba"
     width="55"
     height="52"
     x="425"
     y="213"
     id="rect31" />
  <rect
     style="fill:#02d35f"
     width="230"
     height="26"
     x="560"
     y="187"
     id="rect33" />
  <rect
     style="opacity:0.5;fill:#92ecba"
     width="55"
     height="52"
     x="560"
     y="187"
     id="rect35" />
  <rect
     y="211"
     x="560"
     height="2"
     width="230"
     style="fill:#a7a9ac;fill-opacity:0.58823529"
     id="rect37" />
  <rect
     y="289"
     x="155"
     height="2"
     width="190"
     style="fill:#a7a9ac;fill-opacity:0.58823529"
     id="rect39" />
  <rect
     y="315"
     x="20"
     height="2"
     width="190"
     style="fill:#a7a9ac;fill-opacity:0.58823529"
     id="rect41" />
  <rect
     y="263"
     x="290"
     height="2"
     width="190"
     style="fill:#a7a9ac;fill-opacity:0.58823529"
     id="rect43" />
  <rect
     y="237"
     x="425"
     height="2"
     width="190"
     style="fill:#a7a9ac;fill-opacity:0.58823529"
     id="rect45" />
  <rect
     ry="5"
     rx="5"
     y="11"
     x="510"
     height="166"
     width="574"
     style="fill:#dcddde;"
     id="rect47" />
  <rect
     style="fill:#02d35f"
     width="150"
     height="26"
     x="934"
     y="55"
     id="rect49" />
  <rect
     style="fill:#02d35f"
     width="190"
     height="26"
     x="664"
     y="107"
     id="rect51" />
  <g
     style="font-size:18.75px;font-weight:600;fill:#00c081;font-family:Open Sans"
     id="text53">
    <path
       d="m 535.67004,45.01115 c -10e-6,1.208499 -0.43488,2.160646 -1.30462,2.856446 -0.86976,0.695801 -2.07978,1.043701 -3.63007,1.043701 -1.42822,0 -2.69165,-0.268555 -3.79028,-0.805664 l 0,-2.636719 c 0.90332,0.402835 1.66778,0.686648 2.29339,0.85144 0.62561,0.164798 1.19781,0.247195 1.71662,0.247193 0.62255,2e-6 1.10015,-0.119016 1.4328,-0.357056 0.33263,-0.238034 0.49895,-0.592038 0.49896,-1.062012 -10e-6,-0.262447 -0.0733,-0.495906 -0.21973,-0.700378 -0.14649,-0.204463 -0.36164,-0.401301 -0.64544,-0.590515 -0.28382,-0.189204 -0.86213,-0.491328 -1.73493,-0.906372 -0.81787,-0.384515 -1.43127,-0.753778 -1.84021,-1.107788 -0.40893,-0.353997 -0.73547,-0.765984 -0.97961,-1.235962 -0.24414,-0.469962 -0.36621,-1.019278 -0.36621,-1.647949 0,-1.184071 0.4013,-2.114857 1.20392,-2.792359 0.80261,-0.677477 1.91192,-1.016222 3.32794,-1.016235 0.69579,1.3e-5 1.35955,0.08241 1.99127,0.247192 0.63171,0.164808 1.29241,0.396742 1.98212,0.695801 l -0.91553,2.206421 c -0.71412,-0.292958 -1.30463,-0.497426 -1.77155,-0.613403 -0.46692,-0.115956 -0.92621,-0.173939 -1.37786,-0.173951 -0.53712,1.2e-5 -0.94911,0.125134 -1.23597,0.375367 -0.28687,0.250254 -0.4303,0.576792 -0.43029,0.979614 -1e-5,0.250254 0.058,0.468454 0.17395,0.654602 0.11596,0.186166 0.30059,0.36622 0.55389,0.540161 0.25329,0.173959 0.85296,0.486764 1.79901,0.938416 1.25121,0.598151 2.10876,1.197821 2.57263,1.799011 0.46386,0.601201 0.69579,1.3382 0.6958,2.210998 z"
       style="font-size:18.75px;font-weight:600;fill:#00c081;font-family:Open Sans"
       id="path3066" />
    <path
       d="m 538.09619,48.728191 0,-13.385009 2.83814,0 0,11.041259 5.42907,0 0,2.34375 z"
       style="font-size:18.75px;font-weight:600;fill:#00c081;font-family:Open Sans"
       id="path3068" />
    <path
       d="m 556.38843,48.728191 -7.70874,0 0,-13.385009 7.70874,0 0,2.325439 -4.87061,0 0,2.938843 4.53186,0 0,2.325439 -4.53186,0 0,3.451538 4.87061,0 z"
       style="font-size:18.75px;font-weight:600;fill:#00c081;font-family:Open Sans"
       id="path3070" />
    <path
       d="m 567.09094,45.01115 c -1e-5,1.208499 -0.43488,2.160646 -1.30462,2.856446 -0.86976,0.695801 -2.07978,1.043701 -3.63007,1.043701 -1.42823,0 -2.69165,-0.268555 -3.79028,-0.805664 l 0,-2.636719 c 0.90332,0.402835 1.66778,0.686648 2.29339,0.85144 0.62561,0.164798 1.19781,0.247195 1.71662,0.247193 0.62255,2e-6 1.10015,-0.119016 1.4328,-0.357056 0.33263,-0.238034 0.49895,-0.592038 0.49896,-1.062012 -10e-6,-0.262447 -0.0732,-0.495906 -0.21973,-0.700378 -0.14649,-0.204463 -0.36164,-0.401301 -0.64544,-0.590515 -0.28382,-0.189204 -0.86213,-0.491328 -1.73493,-0.906372 -0.81787,-0.384515 -1.43128,-0.753778 -1.84021,-1.107788 -0.40894,-0.353997 -0.73547,-0.765984 -0.97961,-1.235962 -0.24414,-0.469962 -0.36621,-1.019278 -0.36621,-1.647949 0,-1.184071 0.4013,-2.114857 1.20391,-2.792359 0.80261,-0.677477 1.91193,-1.016222 3.32795,-1.016235 0.69579,1.3e-5 1.35955,0.08241 1.99127,0.247192 0.6317,0.164808 1.29241,0.396742 1.98212,0.695801 l -0.91553,2.206421 c -0.71412,-0.292958 -1.30464,-0.497426 -1.77155,-0.613403 -0.46692,-0.115956 -0.92621,-0.173939 -1.37787,-0.173951 -0.53711,1.2e-5 -0.9491,0.125134 -1.23596,0.375367 -0.28687,0.250254 -0.4303,0.576792 -0.4303,0.979614 0,0.250254 0.058,0.468454 0.17395,0.654602 0.11597,0.186166 0.3006,0.36622 0.5539,0.540161 0.25329,0.173959 0.85296,0.486764 1.79901,0.938416 1.25121,0.598151 2.10876,1.197821 2.57263,1.799011 0.46386,0.601201 0.69579,1.3382 0.6958,2.210998 z"
       style="font-size:18.75px;font-weight:600;fill:#00c081;font-family:Open Sans"
       id="path3072" />
    <path
       d="m 580.44849,48.728191 -2.82898,0 0,-7.745361 0.0275,-1.272583 0.0458,-1.391602 c -0.46998,0.469981 -0.79651,0.778208 -0.97962,0.924683 l -1.53808,1.235962 -1.36414,-1.702881 4.31214,-3.433227 2.32544,0 z"
       style="font-size:18.75px;font-weight:600;fill:#00c081;font-family:Open Sans"
       id="path3074" />
    <path
       d="m 593.50391,48.728191 -9.35669,0 0,-1.968383 3.35998,-3.396607 c 0.99487,-1.019281 1.64489,-1.725762 1.95008,-2.119446 0.30516,-0.393669 0.52489,-0.758353 0.65918,-1.094055 0.13427,-0.335684 0.2014,-0.683584 0.20141,-1.043701 -10e-6,-0.537099 -0.14802,-0.936879 -0.44403,-1.199341 -0.29603,-0.26244 -0.69123,-0.393665 -1.18561,-0.393677 -0.5188,1.2e-5 -1.02234,0.11903 -1.51062,0.357056 -0.48828,0.238048 -0.99793,0.576793 -1.52893,1.016235 l -1.53808,-1.821899 c 0.65917,-0.561511 1.20544,-0.958239 1.63879,-1.190186 0.43335,-0.23192 0.90637,-0.410448 1.41907,-0.535583 0.51269,-0.125109 1.08642,-0.18767 1.72119,-0.187683 0.83617,1.3e-5 1.5747,0.152601 2.21557,0.457764 0.64087,0.305188 1.1383,0.732434 1.49231,1.281738 0.354,0.549328 0.531,1.177989 0.53101,1.885986 -1e-5,0.616465 -0.10835,1.194772 -0.32501,1.734924 -0.21669,0.540169 -0.55238,1.094063 -1.00708,1.661683 -0.45472,0.567633 -1.25581,1.376348 -2.40326,2.426147 l -1.72119,1.620483 0,0.128174 5.83191,0 z"
       style="font-size:18.75px;font-weight:600;fill:#00c081;font-family:Open Sans"
       id="path3076" />
  </g>
  <rect
     style="fill:#02d35f"
     width="190"
     height="26"
     x="529"
     y="133"
     id="rect55" />
  <rect
     style="opacity:0.5;fill:#92ecba"
     width="55"
     height="52"
     x="664"
     y="107"
     id="rect57" />
  <rect
     style="fill:#02d35f"
     width="190"
     height="26"
     x="799"
     y="81"
     id="rect59" />
  <rect
     style="opacity:0.5;fill:#92ecba"
     width="55"
     height="52"
     x="799"
     y="81"
     id="rect61" />
  <rect
     style="opacity:0.5;fill:#92ecba"
     width="55"
     height="52"
     x="934"
     y="55"
     id="rect63" />
  <rect
     style="opacity:0.5;fill:#92ecba"
     width="15"
     height="52"
     x="1069"
     y="29"
     id="rect65" />
  <rect
     y="131"
     x="664"
     height="2"
     width="190"
     style="fill:#a7a9ac;fill-opacity:0.58823529"
     id="rect67" />
  <rect
     y="157"
     x="529"
     height="2"
     width="190"
     style="fill:#a7a9ac;fill-opacity:0.58823529"
     id="rect69" />
  <rect
     y="105"
     x="799"
     height="2"
     width="190"
     style="fill:#a7a9ac;fill-opacity:0.58823529"
     id="rect71" />
  <rect
     y="79"
     x="934"
     height="2"
     width="150"
     style="fill:#a7a9ac;fill-opacity:0.58823529;"
     id="rect73" />
  <circle
     r="18"
     cy="120"
     cx="676"
     style="fill:#00c081"
     id="circle75" />
  <g
     style="font-size:18.75px;fill:#ffffff;font-family:Open Sans"
     id="text77">
    <path
       d="m 671.34558,123.28641 c -1e-5,1.17798 -0.42725,2.09656 -1.28174,2.75573 -0.8545,0.65918 -2.01416,0.98877 -3.479,0.98877 -1.58692,0 -2.80762,-0.20446 -3.66211,-0.6134 l 0,-1.50146 c 0.54931,0.23193 1.14746,0.41504 1.79443,0.54931 0.64697,0.13428 1.28784,0.20142 1.92261,0.20142 1.03759,0 1.81884,-0.19684 2.34375,-0.59052 0.5249,-0.39367 0.78735,-0.94146 0.78735,-1.64337 0,-0.46386 -0.0931,-0.8438 -0.27923,-1.13983 -0.18617,-0.29602 -0.49745,-0.56915 -0.93384,-0.8194 -0.43641,-0.25024 -1.10016,-0.53405 -1.99127,-0.85144 -1.24512,-0.44555 -2.13471,-0.9735 -2.66876,-1.58386 -0.53406,-0.61034 -0.80109,-1.40685 -0.80109,-2.38953 0,-1.03148 0.38757,-1.8524 1.16272,-2.46276 0.77514,-0.61034 1.80053,-0.91552 3.07617,-0.91553 1.33056,1e-5 2.55431,0.24415 3.67127,0.73242 l -0.48523,1.35498 c -1.10475,-0.46385 -2.17897,-0.69579 -3.22266,-0.6958 -0.82398,1e-5 -1.4679,0.17701 -1.93176,0.53101 -0.46387,0.35401 -0.69581,0.84534 -0.6958,1.47399 -10e-6,0.46388 0.0854,0.84383 0.25634,1.13984 0.1709,0.29603 0.45929,0.56763 0.86518,0.81482 0.40588,0.2472 1.02691,0.52033 1.8631,0.81939 1.4038,0.5005 2.36968,1.03761 2.89764,1.61133 0.52794,0.57374 0.79192,1.31836 0.79193,2.23389 z"
       style="font-size:18.75px;fill:#ffffff;font-family:Open Sans"
       id="path3109" />
    <path
       d="m 682.56995,117.36295 c -10e-6,1.35498 -0.46235,2.39716 -1.38703,3.12652 -0.92469,0.72938 -2.24762,1.09406 -3.96881,1.09406 l -1.57471,0 0,5.26428 -1.55639,0 0,-13.38501 3.46985,0 c 3.34471,1e-5 5.01708,1.30006 5.01709,3.90015 z m -6.93055,2.88391 1.40076,0 c 1.37939,0 2.37731,-0.22277 2.99378,-0.66834 0.61644,-0.44555 0.92467,-1.15966 0.92468,-2.14233 -10e-6,-0.885 -0.28993,-1.54418 -0.86975,-1.97754 -0.57984,-0.43334 -1.48316,-0.65001 -2.70996,-0.65003 l -1.73951,0 z"
       style="letter-spacing:-1px"
       id="path3111" />
    <path
       d="m 689.06812,126.84781 -1.48316,0 0,-9.5398 c 0,-0.79344 0.0244,-1.54417 0.0732,-2.25219 -0.12818,0.12818 -0.27161,0.26246 -0.43029,0.40283 -0.1587,0.14039 -0.88502,0.73548 -2.17896,1.78528 l -0.80566,-1.0437 3.54309,-2.73743 1.28174,0 z"
       style="font-size:18.75px;fill:#ffffff;font-family:Open Sans"
       id="path3113" />
  </g>
  <circle
     r="18"
     cy="94"
     cx="811"
     style="fill:#00c081"
     id="circle81" />
  <g
     style="font-size:18.75px;fill:#ffffff;font-family:Open Sans"
     id="text83">
    <path
       d="m 804.51172,97.267151 c -10e-6,1.177981 -0.42726,2.096559 -1.28174,2.755739 -0.8545,0.65918 -2.01417,0.98877 -3.479,0.98877 -1.58692,0 -2.80762,-0.20447 -3.66211,-0.61341 l 0,-1.50146 c 0.54931,0.231935 1.14746,0.41504 1.79443,0.549316 0.64697,0.134279 1.28784,0.201417 1.92261,0.201416 1.03759,1e-6 1.81884,-0.196837 2.34375,-0.590515 0.52489,-0.393675 0.78734,-0.941465 0.78735,-1.643372 -10e-6,-0.463863 -0.0931,-0.843807 -0.27923,-1.139831 -0.18617,-0.296016 -0.49745,-0.569148 -0.93384,-0.819397 -0.43641,-0.250239 -1.10017,-0.534052 -1.99127,-0.851441 -1.24512,-0.44555 -2.13471,-0.973503 -2.66877,-1.583862 -0.53406,-0.610343 -0.80108,-1.406851 -0.80108,-2.389526 0,-1.031483 0.38757,-1.852405 1.16272,-2.462769 0.77514,-0.610338 1.80053,-0.915514 3.07617,-0.915527 1.33056,1.3e-5 2.55431,0.244154 3.67126,0.732422 l -0.48523,1.35498 c -1.10474,-0.463855 -2.17896,-0.695789 -3.22265,-0.695801 -0.82398,1.2e-5 -1.4679,0.177014 -1.93176,0.531006 -0.46387,0.354015 -0.69581,0.845348 -0.69581,1.473999 0,0.463877 0.0854,0.843821 0.25635,1.139832 0.1709,0.296029 0.45929,0.567635 0.86518,0.814819 0.40587,0.2472 1.02691,0.520332 1.86309,0.819397 1.40381,0.500495 2.36969,1.037604 2.89765,1.611328 0.52794,0.573736 0.79192,1.318364 0.79193,2.233887 z"
       style="font-size:18.75px;fill:#ffffff;font-family:Open Sans"
       id="path3102" />
    <path
       d="m 815.73608,91.343689 c -10e-6,1.354989 -0.46235,2.397163 -1.38702,3.126526 -0.92469,0.729376 -2.24763,1.09406 -3.96881,1.094055 l -1.57471,0 0,5.26428 -1.55639,0 0,-13.385008 3.46984,0 c 3.34472,1.4e-5 5.01708,1.300061 5.01709,3.900147 z m -6.93054,2.883911 1.40076,0 c 1.37939,7e-6 2.37731,-0.222771 2.99377,-0.668335 0.61645,-0.445549 0.92468,-1.159659 0.92469,-2.142334 -1e-5,-0.884999 -0.28993,-1.544178 -0.86976,-1.977539 -0.57984,-0.433338 -1.48316,-0.650012 -2.70996,-0.650024 l -1.7395,0 z"
       style="letter-spacing:-0.5px"
       id="path3104" />
    <path
       d="m 825.90198,100.82855 -8.79822,0 0,-1.309202 3.52478,-3.543091 c 1.07421,-1.08642 1.78222,-1.861565 2.12402,-2.325439 0.34179,-0.46386 0.59814,-0.915519 0.76905,-1.354981 0.17089,-0.439444 0.25634,-0.912466 0.25634,-1.419067 0,-0.714101 -0.21668,-1.280201 -0.65002,-1.698303 -0.43336,-0.418079 -1.03455,-0.627124 -1.80359,-0.627136 -0.55542,1.2e-5 -1.08185,0.09156 -1.57928,0.274658 -0.49744,0.183117 -1.05134,0.515758 -1.66169,0.997925 l -0.80566,-1.034546 c 1.23291,-1.025378 2.57568,-1.538073 4.02832,-1.538086 1.25732,1.3e-5 2.24303,0.321973 2.95715,0.965881 0.71411,0.643933 1.07116,1.509105 1.07117,2.59552 -10e-6,0.848398 -0.23805,1.687631 -0.71411,2.5177 -0.47608,0.830085 -1.3672,1.879889 -2.67334,3.149414 l -2.92969,2.865601 0,0.07324 6.88477,0 z"
       style="font-size:18.75px;fill:#ffffff;font-family:Open Sans"
       id="path3106" />
  </g>
  <circle
     r="18"
     cy="146"
     cx="541"
     style="fill:#02a49c"
     id="circle87" />
  <g
     style="font-size:18.75px;font-weight:600;fill:#ffffff;font-family:Open Sans"
     id="text89">
    <path
       d="m 534.20679,145.35068 5.31006,0 0,6.93969 c -0.86061,0.28077 -1.67085,0.4776 -2.43073,0.59052 -0.7599,0.11291 -1.53657,0.16937 -2.33002,0.16937 -2.02027,0 -3.56293,-0.59356 -4.62799,-1.7807 -1.06506,-1.18713 -1.59759,-2.89153 -1.59759,-5.11322 0,-2.16063 0.61798,-3.8452 1.85394,-5.05371 1.23596,-1.20848 2.94952,-1.81273 5.14069,-1.81274 1.37328,10e-6 2.69774,0.27467 3.97339,0.82397 l -0.943,2.27051 c -0.97657,-0.48827 -1.9928,-0.73241 -3.0487,-0.73242 -1.22682,1e-5 -2.20948,0.412 -2.948,1.23596 -0.73853,0.82398 -1.10779,1.93177 -1.10779,3.32336 0,1.45265 0.29754,2.56196 0.89264,3.32795 0.59509,0.76599 1.46026,1.14898 2.59552,1.14898 0.59203,0 1.19323,-0.061 1.80359,-0.1831 l 0,-2.79236 -2.53601,0 z"
       style="font-size:18.75px;font-weight:600;fill:#ffffff;font-family:Open Sans"
       id="path3116" />
    <path
       d="m 550.90601,152.86716 -0.97046,-3.18604 -4.87976,0 -0.97046,3.18604 -3.05786,0 4.72412,-13.43994 3.46985,0 4.74243,13.43994 z m -1.64795,-5.56641 c -0.89723,-2.88695 -1.40229,-4.51964 -1.5152,-4.89807 -0.11292,-0.37841 -0.19379,-0.67748 -0.24262,-0.89722 -0.20142,0.78126 -0.7782,2.71302 -1.73034,5.79529 z"
       style="font-size:18.75px;font-weight:600;fill:#ffffff;font-family:Open Sans"
       id="path3118" />
  </g>
  <circle
     r="18"
     cy="68"
     cx="946"
     style="fill:#00c081"
     id="circle91" />
  <g
     style="font-size:18.75px;fill:#ffffff;font-family:Open Sans"
     id="text93">
    <path
       d="m 939.5575,71.247787 c -10e-6,1.177981 -0.42726,2.09656 -1.28174,2.755738 -0.8545,0.65918 -2.01417,0.988769 -3.47901,0.988769 -1.58691,0 -2.80762,-0.204467 -3.66211,-0.613403 l 0,-1.501465 c 0.54932,0.231935 1.14746,0.415041 1.79444,0.549317 0.64697,0.134278 1.28783,0.201417 1.9226,0.201416 1.0376,10e-7 1.81885,-0.196837 2.34375,-0.590516 0.5249,-0.393674 0.78735,-0.941464 0.78736,-1.643371 -10e-6,-0.463863 -0.0931,-0.843807 -0.27924,-1.139832 -0.18616,-0.296015 -0.49744,-0.569147 -0.93384,-0.819397 -0.4364,-0.250238 -1.10016,-0.534051 -1.99127,-0.85144 -1.24512,-0.44555 -2.1347,-0.973504 -2.66876,-1.583862 -0.53406,-0.610344 -0.80109,-1.406852 -0.80109,-2.389527 0,-1.031483 0.38758,-1.852405 1.16272,-2.462768 0.77515,-0.610339 1.80054,-0.915514 3.07618,-0.915528 1.33056,1.4e-5 2.55431,0.244154 3.67126,0.732422 l -0.48523,1.354981 c -1.10474,-0.463856 -2.17896,-0.695789 -3.22266,-0.695801 -0.82397,1.2e-5 -1.4679,0.177014 -1.93176,0.531006 -0.46387,0.354015 -0.6958,0.845347 -0.6958,1.473999 0,0.463877 0.0855,0.84382 0.25635,1.139831 0.17089,0.29603 0.45928,0.567636 0.86517,0.81482 0.40588,0.2472 1.02691,0.520332 1.8631,0.819397 1.4038,0.500495 2.36968,1.037604 2.89764,1.611328 0.52795,0.573735 0.79193,1.318364 0.79194,2.233886 z"
       style="font-size:18.75px;fill:#ffffff;font-family:Open Sans"
       id="path3095" />
    <path
       d="m 950.78186,65.324326 c -1e-5,1.354988 -0.46235,2.397162 -1.38702,3.126525 -0.92469,0.729376 -2.24763,1.094061 -3.96881,1.094056 l -1.57471,0 0,5.264282 -1.5564,0 0,-13.38501 3.46985,0 c 3.34472,1.3e-5 5.01708,1.300061 5.01709,3.900147 z m -6.93054,2.883911 1.40076,0 c 1.37938,6e-6 2.37731,-0.222772 2.99377,-0.668335 0.61645,-0.445549 0.92467,-1.15966 0.92468,-2.142334 -10e-6,-0.885 -0.28992,-1.544179 -0.86975,-1.977539 -0.57984,-0.433338 -1.48316,-0.650013 -2.70996,-0.650025 l -1.7395,0 z"
       style="letter-spacing:-0.5px"
       id="path3097" />
    <path
       d="m 960.44421,64.573593 c -10e-6,0.854502 -0.23957,1.553354 -0.71869,2.096558 -0.47913,0.54322 -1.15814,0.906379 -2.03704,1.089477 l 0,0.07324 c 1.07421,0.134285 1.87072,0.476081 2.38952,1.025391 0.51879,0.549322 0.77819,1.269536 0.7782,2.160645 -10e-6,1.275637 -0.44251,2.256776 -1.32751,2.94342 -0.88502,0.686646 -2.14234,1.029968 -3.77198,1.029968 -0.70801,0 -1.35651,-0.05341 -1.94549,-0.160217 -0.58899,-0.106811 -1.1612,-0.294494 -1.71662,-0.563049 l 0,-1.446533 c 0.57984,0.286866 1.19782,0.505067 1.85395,0.654602 0.65612,0.149537 1.27715,0.224305 1.8631,0.224304 2.31322,10e-7 3.46984,-0.90637 3.46984,-2.719116 0,-1.62353 -1.27564,-2.435297 -3.8269,-2.435303 l -1.31836,0 0,-1.309204 1.33667,0 c 1.0437,7e-6 1.87072,-0.2304 2.48108,-0.691223 0.61034,-0.460807 0.91552,-1.10015 0.91553,-1.91803 -10e-6,-0.653066 -0.22431,-1.16576 -0.67292,-1.538086 -0.44861,-0.372303 -1.05744,-0.55846 -1.82647,-0.558472 -0.58594,1.2e-5 -1.13831,0.07936 -1.65711,0.238037 -0.5188,0.158704 -1.11084,0.451672 -1.77612,0.878907 l -0.76904,-1.025391 c 0.54931,-0.433337 1.18255,-0.773608 1.89972,-1.020813 0.71716,-0.247179 1.47246,-0.370775 2.26593,-0.370789 1.30004,1.4e-5 2.31017,0.29756 3.03039,0.892639 0.72021,0.595105 1.08031,1.41145 1.08032,2.449036 z"
       style="font-size:18.75px;fill:#ffffff;font-family:Open Sans"
       id="path3099" />
  </g>
  <path
     style="fill:#00c081"
     d="m 1081,24 a 18,18 0 0 0 -18,18 18,18 0 0 0 18,18 18,18 0 0 0 3,-0.253906 l 0,-35.47461 A 18,18 0 0 0 1081,24 Z"
     id="path97" />
  <path
     style="fill:url(#linearGradient5399);"
     d="m 969,11 0,166 110,0 c 2.77,0 5,-2.23 5,-5 l 0,-156 c 0,-2.77 -2.23,-5 -5,-5 z"
     id="path99" />
  <path
     d="m 993.47461,85 c -2.4242,0 -4.27517,0.639281 -5.55469,1.917969 C 986.64052,88.196657 986,90.03234 986,92.425781 c 0,2.360649 0.64052,4.214321 1.91992,5.558594 1.27952,1.344262 3.13049,2.015625 5.55469,2.015625 2.42431,0 4.27718,-0.671363 5.55664,-2.015625 1.31305,-1.37706 1.96875,-3.230731 1.96875,-5.558594 0,-2.295081 -0.6405,-4.098687 -1.91992,-5.410156 C 997.80056,85.671358 995.93256,85 993.47461,85 Z m 25.99999,0 c -2.4242,0 -4.2752,0.639281 -5.5547,1.917969 -1.2794,1.278688 -1.9199,3.114371 -1.9199,5.507812 0,2.360649 0.6405,4.214321 1.9199,5.558594 1.2795,1.344262 3.1305,2.015625 5.5547,2.015625 2.4243,0 4.2753,-0.671363 5.5547,-2.015625 1.3132,-1.37706 1.9707,-3.230731 1.9707,-5.558594 0,-2.295081 -0.6405,-4.098687 -1.9199,-5.410156 C 1023.8006,85.671358 1021.9326,85 1019.4746,85 Z m 26,0 c -2.4242,0 -4.2752,0.639281 -5.5547,1.917969 -1.2794,1.278688 -1.9199,3.114371 -1.9199,5.507812 0,2.360649 0.6405,4.214321 1.9199,5.558594 1.2795,1.344262 3.1305,2.015625 5.5547,2.015625 2.4243,0 4.2753,-0.671363 5.5547,-2.015625 1.3132,-1.37706 1.9707,-3.230731 1.9707,-5.558594 0,-2.295081 -0.6405,-4.098687 -1.9199,-5.410156 C 1049.8006,85.671358 1047.9325,85 1045.4746,85 Z"
     style="fill:#5f5f5f;fill-opacity:0.75"
     id="path101" />
  <circle
     r="18"
     cy="304"
     cx="32"
     style="fill:#02a49c"
     id="circle103" />
  <g
     style="font-size:18.75px;font-weight:600;fill:#ffffff;font-family:Open Sans"
     id="text105">
    <path
       d="m 25.206787,303.35068 5.310059,0 0,6.93969 c -0.860607,0.28077 -1.670848,0.4776 -2.430725,0.59052 -0.759897,0.11291 -1.536569,0.16937 -2.330017,0.16937 -2.020269,0 -3.562931,-0.59356 -4.627991,-1.7807 -1.065065,-1.18713 -1.597597,-2.89153 -1.597595,-5.11322 -2e-6,-2.16063 0.617979,-3.8452 1.853942,-5.05371 1.235958,-1.20848 2.949518,-1.81273 5.140686,-1.81274 1.373282,10e-6 2.697744,0.27467 3.973389,0.82397 l -0.942993,2.27051 c -0.976573,-0.48827 -1.992807,-0.73241 -3.048706,-0.73242 -1.226814,10e-6 -2.209479,0.412 -2.947998,1.23596 -0.73853,0.82398 -1.107792,1.93177 -1.107788,3.32336 -4e-6,1.45265 0.297542,2.56196 0.892639,3.32795 0.595087,0.76599 1.46026,1.14898 2.59552,1.14898 0.592033,0 1.193229,-0.061 1.803589,-0.1831 l 0,-2.79236 -2.536011,0 z"
       style="font-size:18.75px;font-weight:600;fill:#ffffff;font-family:Open Sans"
       id="path3149" />
    <path
       d="m 41.906006,310.86716 -0.970459,-3.18604 -4.879761,0 -0.970459,3.18604 -3.057861,0 4.724121,-13.43994 3.469849,0 4.742431,13.43994 z m -1.647949,-5.56641 c -0.897224,-2.88695 -1.40229,-4.51964 -1.515198,-4.89807 -0.112922,-0.37841 -0.193793,-0.67748 -0.242615,-0.89722 -0.201422,0.78126 -0.778204,2.71302 -1.730347,5.79529 z"
       style="font-size:18.75px;font-weight:600;fill:#ffffff;font-family:Open Sans"
       id="path3151" />
  </g>
  <circle
     r="18"
     cy="278"
     cx="167"
     style="fill:#00c081"
     id="circle107" />
  <g
     style="font-size:18.75px;fill:#ffffff;font-family:Open Sans"
     id="text109">
    <path
       d="m 162.34558,281.28641 c -1e-5,1.17798 -0.42725,2.09656 -1.28174,2.75573 -0.8545,0.65918 -2.01416,0.98877 -3.479,0.98877 -1.58692,0 -2.80762,-0.20446 -3.66211,-0.6134 l 0,-1.50146 c 0.54931,0.23193 1.14746,0.41504 1.79443,0.54931 0.64697,0.13428 1.28784,0.20142 1.92261,0.20142 1.03759,0 1.81884,-0.19684 2.34375,-0.59052 0.5249,-0.39367 0.78735,-0.94146 0.78735,-1.64337 0,-0.46386 -0.0931,-0.8438 -0.27923,-1.13983 -0.18617,-0.29602 -0.49745,-0.56915 -0.93384,-0.8194 -0.43641,-0.25024 -1.10016,-0.53405 -1.99127,-0.85144 -1.24512,-0.44555 -2.13471,-0.9735 -2.66876,-1.58386 -0.53406,-0.61034 -0.80109,-1.40685 -0.80109,-2.38953 0,-1.03148 0.38757,-1.8524 1.16272,-2.46276 0.77514,-0.61034 1.80053,-0.91552 3.07617,-0.91553 1.33056,1e-5 2.55431,0.24415 3.67127,0.73242 l -0.48523,1.35498 c -1.10475,-0.46385 -2.17897,-0.69579 -3.22266,-0.6958 -0.82398,10e-6 -1.4679,0.17701 -1.93176,0.53101 -0.46387,0.35401 -0.69581,0.84534 -0.6958,1.47399 -1e-5,0.46388 0.0854,0.84383 0.25634,1.13984 0.1709,0.29603 0.45929,0.56763 0.86518,0.81482 0.40588,0.2472 1.02691,0.52033 1.8631,0.81939 1.4038,0.5005 2.36968,1.03761 2.89764,1.61133 0.52794,0.57374 0.79192,1.31836 0.79193,2.23389 z"
       style="font-size:18.75px;fill:#ffffff;font-family:Open Sans"
       id="path3142" />
    <path
       d="m 173.56995,275.36295 c -1e-5,1.35498 -0.46235,2.39716 -1.38703,3.12652 -0.92469,0.72938 -2.24762,1.09406 -3.96881,1.09406 l -1.57471,0 0,5.26428 -1.55639,0 0,-13.38501 3.46985,0 c 3.34471,10e-6 5.01708,1.30006 5.01709,3.90015 z m -6.93055,2.88391 1.40076,0 c 1.37939,0 2.37731,-0.22277 2.99378,-0.66834 0.61644,-0.44555 0.92467,-1.15966 0.92468,-2.14233 -1e-5,-0.885 -0.28993,-1.54418 -0.86975,-1.97754 -0.57984,-0.43334 -1.48316,-0.65001 -2.70996,-0.65003 l -1.73951,0 z"
       style="letter-spacing:-1px"
       id="path3144" />
    <path
       d="m 180.06812,284.84781 -1.48316,0 0,-9.5398 c 0,-0.79344 0.0244,-1.54417 0.0732,-2.25219 -0.12818,0.12818 -0.27161,0.26246 -0.43029,0.40283 -0.1587,0.14039 -0.88502,0.73548 -2.17896,1.78528 l -0.80566,-1.0437 3.54309,-2.73743 1.28174,0 z"
       style="font-size:18.75px;fill:#ffffff;font-family:Open Sans"
       id="path3146" />
  </g>
  <circle
     r="18"
     cy="252"
     cx="302"
     style="fill:#00c081"
     id="circle113" />
  <g
     style="font-size:18.75px;fill:#ffffff;font-family:Open Sans"
     id="text115">
    <path
       d="m 295.51172,255.26715 c -1e-5,1.17798 -0.42726,2.09656 -1.28174,2.75574 -0.8545,0.65918 -2.01417,0.98877 -3.479,0.98877 -1.58692,0 -2.80762,-0.20447 -3.66211,-0.61341 l 0,-1.50146 c 0.54931,0.23193 1.14746,0.41504 1.79443,0.54932 0.64697,0.13427 1.28784,0.20141 1.92261,0.20141 1.03759,0 1.81884,-0.19684 2.34375,-0.59051 0.52489,-0.39368 0.78734,-0.94147 0.78735,-1.64337 -10e-6,-0.46387 -0.0931,-0.84381 -0.27923,-1.13984 -0.18617,-0.29601 -0.49745,-0.56914 -0.93384,-0.81939 -0.43641,-0.25024 -1.10017,-0.53405 -1.99127,-0.85144 -1.24512,-0.44555 -2.13471,-0.97351 -2.66877,-1.58387 -0.53406,-0.61034 -0.80108,-1.40685 -0.80108,-2.38952 0,-1.03149 0.38757,-1.85241 1.16272,-2.46277 0.77514,-0.61034 1.80053,-0.91551 3.07617,-0.91553 1.33056,2e-5 2.55431,0.24416 3.67126,0.73242 l -0.48523,1.35498 c -1.10474,-0.46385 -2.17896,-0.69578 -3.22265,-0.6958 -0.82398,2e-5 -1.4679,0.17702 -1.93176,0.53101 -0.46387,0.35401 -0.69581,0.84535 -0.69581,1.474 0,0.46388 0.0855,0.84382 0.25635,1.13983 0.1709,0.29603 0.45929,0.56764 0.86518,0.81482 0.40587,0.2472 1.02691,0.52033 1.86309,0.8194 1.40381,0.50049 2.36969,1.0376 2.89765,1.61132 0.52794,0.57374 0.79192,1.31837 0.79193,2.23389 z"
       style="font-size:18.75px;fill:#ffffff;font-family:Open Sans"
       id="path3135" />
    <path
       d="m 306.73608,249.34369 c -1e-5,1.35499 -0.46235,2.39716 -1.38702,3.12652 -0.92469,0.72938 -2.24763,1.09407 -3.96881,1.09406 l -1.57471,0 0,5.26428 -1.55639,0 0,-13.38501 3.46984,0 c 3.34472,2e-5 5.01708,1.30006 5.01709,3.90015 z m -6.93054,2.88391 1.40076,0 c 1.37939,1e-5 2.37731,-0.22277 2.99377,-0.66833 0.61645,-0.44555 0.92468,-1.15966 0.92469,-2.14234 -10e-6,-0.885 -0.28993,-1.54418 -0.86976,-1.97754 -0.57984,-0.43334 -1.48316,-0.65001 -2.70996,-0.65002 l -1.7395,0 z"
       style="letter-spacing:-0.5px"
       id="path3137" />
    <path
       d="m 316.90198,258.82855 -8.79822,0 0,-1.3092 3.52478,-3.54309 c 1.07421,-1.08642 1.78222,-1.86157 2.12402,-2.32544 0.34179,-0.46386 0.59814,-0.91552 0.76905,-1.35498 0.17089,-0.43945 0.25634,-0.91247 0.25634,-1.41907 0,-0.7141 -0.21668,-1.2802 -0.65002,-1.6983 -0.43336,-0.41808 -1.03455,-0.62713 -1.80359,-0.62714 -0.55542,1e-5 -1.08185,0.0916 -1.57928,0.27466 -0.49744,0.18312 -1.05134,0.51576 -1.66169,0.99792 l -0.80566,-1.03454 c 1.23291,-1.02538 2.57568,-1.53807 4.02832,-1.53809 1.25732,2e-5 2.24303,0.32198 2.95715,0.96588 0.71411,0.64394 1.07116,1.50911 1.07117,2.59552 -10e-6,0.8484 -0.23805,1.68763 -0.71411,2.5177 -0.47608,0.83009 -1.3672,1.87989 -2.67334,3.14942 l -2.92969,2.8656 0,0.0732 6.88477,0 z"
       style="font-size:18.75px;fill:#ffffff;font-family:Open Sans"
       id="path3139" />
  </g>
  <circle
     r="18"
     cy="200"
     cx="572"
     style="fill:#00c081"
     id="circle119" />
  <g
     style="font-size:18.75px;fill:#ffffff;font-family:Open Sans"
     id="text121">
    <path
       d="m 565.19586,203.24779 c -1e-5,1.17798 -0.42725,2.09656 -1.28174,2.75573 -0.8545,0.65918 -2.01416,0.98877 -3.479,0.98877 -1.58692,0 -2.80762,-0.20446 -3.66211,-0.6134 l 0,-1.50146 c 0.54932,0.23193 1.14746,0.41504 1.79443,0.54931 0.64697,0.13428 1.28784,0.20142 1.92261,0.20142 1.03759,0 1.81884,-0.19684 2.34375,-0.59052 0.5249,-0.39367 0.78735,-0.94146 0.78735,-1.64337 0,-0.46386 -0.0931,-0.8438 -0.27923,-1.13983 -0.18617,-0.29602 -0.49744,-0.56915 -0.93384,-0.8194 -0.43641,-0.25024 -1.10016,-0.53405 -1.99127,-0.85144 -1.24512,-0.44555 -2.13471,-0.9735 -2.66876,-1.58386 -0.53406,-0.61034 -0.80109,-1.40685 -0.80109,-2.38953 0,-1.03148 0.38757,-1.8524 1.16272,-2.46276 0.77514,-0.61034 1.80053,-0.91552 3.07617,-0.91553 1.33056,1e-5 2.55432,0.24415 3.67127,0.73242 l -0.48523,1.35498 c -1.10475,-0.46385 -2.17896,-0.69579 -3.22266,-0.6958 -0.82398,10e-6 -1.4679,0.17701 -1.93176,0.53101 -0.46387,0.35401 -0.69581,0.84534 -0.6958,1.47399 -10e-6,0.46388 0.0854,0.84383 0.25635,1.13984 0.17089,0.29603 0.45928,0.56763 0.86517,0.81482 0.40588,0.2472 1.02691,0.52033 1.8631,0.81939 1.4038,0.5005 2.36968,1.03761 2.89764,1.61133 0.52795,0.57374 0.79192,1.31836 0.79193,2.23389 z"
       style="font-size:18.75px;fill:#ffffff;font-family:Open Sans"
       id="path3121" />
    <path
       d="m 576.42023,197.32433 c -10e-6,1.35498 -0.46235,2.39716 -1.38703,3.12652 -0.92469,0.72938 -2.24762,1.09406 -3.96881,1.09406 l -1.5747,0 0,5.26428 -1.5564,0 0,-13.38501 3.46985,0 c 3.34472,1e-5 5.01708,1.30006 5.01709,3.90015 z m -6.93054,2.88391 1.40075,0 c 1.37939,0 2.37731,-0.22277 2.99378,-0.66834 0.61644,-0.44555 0.92467,-1.15966 0.92468,-2.14233 -10e-6,-0.885 -0.28993,-1.54418 -0.86975,-1.97754 -0.57984,-0.43334 -1.48316,-0.65001 -2.70996,-0.65003 l -1.7395,0 z"
       style="letter-spacing:-0.5px"
       id="path3123" />
    <path
       d="m 587.21783,203.73302 -1.98669,0 0,3.07617 -1.45569,0 0,-3.07617 -6.5094,0 0,-1.32752 6.35376,-9.05456 1.61133,0 0,8.99963 1.98669,0 z m -3.44238,-1.38245 0,-4.44946 c -10e-6,-0.8728 0.0305,-1.85851 0.0915,-2.95716 l -0.0732,0 c -0.29297,0.58595 -0.56763,1.07118 -0.82397,1.45569 l -4.18396,5.95093 z"
       style="font-size:18.75px;fill:#ffffff;font-family:Open Sans"
       id="path3125" />
  </g>
  <circle
     r="18"
     cy="226"
     cx="437"
     style="fill:#00c081"
     id="circle125" />
  <g
     style="font-size:18.75px;fill:#ffffff;font-family:Open Sans"
     id="text127">
    <path
       d="m 430.5575,229.24779 c -1e-5,1.17798 -0.42726,2.09656 -1.28174,2.75573 -0.8545,0.65918 -2.01417,0.98877 -3.47901,0.98877 -1.58691,0 -2.80762,-0.20446 -3.66211,-0.6134 l 0,-1.50146 c 0.54932,0.23193 1.14746,0.41504 1.79444,0.54931 0.64697,0.13428 1.28783,0.20142 1.9226,0.20142 1.0376,0 1.81885,-0.19684 2.34375,-0.59052 0.5249,-0.39367 0.78735,-0.94146 0.78736,-1.64337 -1e-5,-0.46386 -0.0931,-0.8438 -0.27924,-1.13983 -0.18616,-0.29602 -0.49744,-0.56915 -0.93384,-0.8194 -0.4364,-0.25024 -1.10016,-0.53405 -1.99127,-0.85144 -1.24512,-0.44555 -2.1347,-0.9735 -2.66876,-1.58386 -0.53406,-0.61034 -0.80109,-1.40685 -0.80109,-2.38953 0,-1.03148 0.38758,-1.8524 1.16272,-2.46276 0.77515,-0.61034 1.80054,-0.91552 3.07618,-0.91553 1.33056,1e-5 2.55431,0.24415 3.67126,0.73242 l -0.48523,1.35498 c -1.10474,-0.46385 -2.17896,-0.69579 -3.22266,-0.6958 -0.82397,10e-6 -1.4679,0.17701 -1.93176,0.53101 -0.46387,0.35401 -0.6958,0.84534 -0.6958,1.47399 0,0.46388 0.0854,0.84383 0.25635,1.13984 0.17089,0.29603 0.45928,0.56763 0.86517,0.81482 0.40588,0.2472 1.02691,0.52033 1.8631,0.81939 1.4038,0.5005 2.36968,1.03761 2.89764,1.61133 0.52795,0.57374 0.79193,1.31836 0.79194,2.23389 z"
       style="font-size:18.75px;fill:#ffffff;font-family:Open Sans"
       id="path3128" />
    <path
       d="m 441.78186,223.32433 c -10e-6,1.35498 -0.46235,2.39716 -1.38702,3.12652 -0.92469,0.72938 -2.24763,1.09406 -3.96881,1.09406 l -1.57471,0 0,5.26428 -1.5564,0 0,-13.38501 3.46985,0 c 3.34472,1e-5 5.01708,1.30006 5.01709,3.90015 z m -6.93054,2.88391 1.40076,0 c 1.37938,0 2.37731,-0.22277 2.99377,-0.66834 0.61645,-0.44555 0.92467,-1.15966 0.92468,-2.14233 -10e-6,-0.885 -0.28992,-1.54418 -0.86975,-1.97754 -0.57984,-0.43334 -1.48316,-0.65001 -2.70996,-0.65003 l -1.7395,0 z"
       style="letter-spacing:-0.5px"
       id="path3130" />
    <path
       d="m 451.44421,222.57359 c -10e-6,0.8545 -0.23957,1.55336 -0.71869,2.09656 -0.47913,0.54322 -1.15814,0.90638 -2.03704,1.08948 l 0,0.0732 c 1.07421,0.13428 1.87072,0.47608 2.38952,1.02539 0.51879,0.54932 0.77819,1.26954 0.7782,2.16065 -10e-6,1.27563 -0.44251,2.25677 -1.32751,2.94342 -0.88502,0.68664 -2.14234,1.02996 -3.77198,1.02996 -0.70801,0 -1.35651,-0.0534 -1.94549,-0.16021 -0.58899,-0.10681 -1.1612,-0.2945 -1.71662,-0.56305 l 0,-1.44654 c 0.57984,0.28687 1.19782,0.50507 1.85395,0.65461 0.65612,0.14953 1.27715,0.2243 1.8631,0.2243 2.31322,0 3.46984,-0.90637 3.46984,-2.71912 0,-1.62353 -1.27564,-2.43529 -3.8269,-2.4353 l -1.31836,0 0,-1.3092 1.33667,0 c 1.0437,1e-5 1.87072,-0.2304 2.48108,-0.69123 0.61034,-0.4608 0.91552,-1.10014 0.91553,-1.91803 -10e-6,-0.65306 -0.22431,-1.16576 -0.67292,-1.53808 -0.44861,-0.3723 -1.05744,-0.55846 -1.82647,-0.55847 -0.58594,1e-5 -1.13831,0.0794 -1.65711,0.23803 -0.5188,0.15871 -1.11084,0.45168 -1.77612,0.87891 l -0.76904,-1.02539 c 0.54931,-0.43334 1.18255,-0.77361 1.89972,-1.02081 0.71716,-0.24718 1.47246,-0.37078 2.26593,-0.37079 1.30004,1e-5 2.31017,0.29756 3.03039,0.89264 0.72021,0.5951 1.08031,1.41145 1.08032,2.44903 z"
       style="font-size:18.75px;fill:#ffffff;font-family:Open Sans"
       id="path3132" />
  </g>
  <rect
     style="fill:#5f5f5f"
     width="178.78485"
     height="36"
     x="170"
     y="169"
     rx="3"
     ry="3"
     id="rect131" />
  <g
     style="font-size:18.75px;font-weight:bold;fill:#00c081;font-family:Open Sans;-inkscape-font-specification:Gulim Bold"
     id="text133">
    <path
       d="m 211.51096,189.63052 c -1e-5,-0.90179 0.22601,-1.62467 0.67806,-2.16865 0.66032,-0.62255 1.41448,-0.93383 2.2625,-0.93384 0.92505,1e-5 1.6178,0.26665 2.07824,0.79994 0.45471,0.6302 0.68206,1.39161 0.68207,2.28424 -1e-5,0.99908 -0.27428,1.80817 -0.82283,2.4273 -0.49439,0.56991 -1.15834,0.85487 -1.99184,0.85487 -0.84878,0 -1.54134,-0.29621 -2.07768,-0.88864 -0.53902,-0.59509 -0.80853,-1.38682 -0.80852,-2.37522 z m 3.26328,-9.55467 c -1.66741,2e-5 -2.90471,0.81388 -3.71189,2.4416 -0.72365,1.49728 -1.08548,3.43743 -1.08547,5.82046 -1e-5,2.2503 0.46672,3.86696 1.40018,4.85001 0.69351,0.71869 1.64642,1.07803 2.85873,1.07803 1.41296,0 2.45056,-0.39501 3.1128,-1.18503 0.91971,-0.87776 1.37957,-2.07577 1.37958,-3.59402 -1e-5,-1.40113 -0.47017,-2.52017 -1.41048,-3.35712 -0.74693,-0.64888 -1.60657,-0.97332 -2.57893,-0.97332 -0.91019,0 -1.69182,0.18216 -2.34489,0.54645 -0.53597,0.30633 -0.83027,0.68074 -0.88291,1.12324 0.0809,-1.36756 0.34389,-2.53753 0.78907,-3.5099 0.57754,-1.24587 1.39636,-1.86881 2.45647,-1.86882 0.64735,1e-5 1.1568,0.18082 1.52836,0.54245 0.3128,0.30328 0.51421,0.71088 0.60425,1.2228 0.0976,0.49859 0.37288,0.71812 0.82569,0.6586 0.51993,-0.0973 0.75969,-0.37917 0.71926,-0.84571 -0.12361,-0.98533 -0.55047,-1.74083 -1.28059,-2.26651 -0.63287,-0.45546 -1.42595,-0.68319 -2.37923,-0.68321 z"
       style="font-style:normal;font-variant:normal;font-stretch:normal;font-family:Gulim;-inkscape-font-specification:Gulim Bold"
       id="path3084" />
    <path
       d="m 226.20174,180.02206 -3.87783,0 c -0.4696,2e-5 -0.69829,0.21536 -0.68608,0.64602 0,0.42383 0.2346,0.63574 0.70381,0.63572 l 3.75252,0 c 0.26855,2e-5 0.45814,0.0473 0.56877,0.14191 0.15678,0.12552 0.23517,0.30442 0.23518,0.53673 l 0,2.13661 c -1e-5,2.49062 -0.42039,4.37813 -1.26114,5.66254 -0.80796,1.23482 -2.03343,1.94473 -3.67641,2.12974 -0.22355,0.0145 -0.39311,0.0877 -0.50869,0.21973 -0.11559,0.13733 -0.16728,0.29755 -0.15507,0.48065 0.0164,0.16556 0.0874,0.30327 0.21286,0.41313 0.1606,0.12131 0.35362,0.17586 0.57907,0.16365 1.94664,-0.17357 3.47461,-1.09501 4.58393,-2.76432 1.12495,-1.45187 1.68742,-3.58352 1.68743,-6.39496 l 0,-2.22645 c -1e-5,-0.54548 -0.24758,-0.99543 -0.74272,-1.34983 -0.32311,-0.28723 -0.79499,-0.43085 -1.41563,-0.43087 z m 7.66182,0.0933 0,6.4951 -2.14634,0 0,-6.4951 c -2e-5,-0.43333 -0.24664,-0.65001 -0.73986,-0.65002 -0.48143,1e-5 -0.72214,0.21669 -0.72213,0.65002 l 0,14.0213 c -1e-5,0.21744 0.0728,0.39902 0.21859,0.54474 0.13426,0.11788 0.30211,0.17681 0.50354,0.17681 0.19873,0 0.36238,-0.0566 0.49095,-0.16994 0.16592,-0.1503 0.24889,-0.33417 0.24891,-0.55161 l 0,-6.27994 2.14634,0 0,6.31599 c -2e-5,0.20752 0.0761,0.37937 0.22831,0.51556 0.12854,0.1133 0.29314,0.16994 0.49381,0.16994 0.19186,0 0.35895,-0.0711 0.50125,-0.21343 0.14723,-0.11787 0.22085,-0.28133 0.22087,-0.49038 l 0,-14.03904 c -2e-5,-0.43333 -0.24072,-0.65001 -0.72212,-0.65002 -0.48143,1e-5 -0.72214,0.21669 -0.72212,0.65002 z"
       style="font-style:normal;font-variant:normal;font-stretch:normal;font-family:Gulim;-inkscape-font-specification:Gulim Bold"
       id="path3086" />
    <path
       d="m 245.26817,179.55515 c -1.58044,1e-5 -2.80362,0.23499 -3.66955,0.70495 -0.8236,0.44443 -1.23539,1.02445 -1.23539,1.74008 0,0.6939 0.43277,1.26973 1.29833,1.72748 0.82092,0.46655 2.02312,0.69982 3.60661,0.69981 1.56973,1e-5 2.77117,-0.23326 3.60431,-0.69981 0.86745,-0.45813 1.30118,-1.03396 1.3012,-1.72748 -2e-5,-0.71525 -0.41868,-1.29527 -1.25599,-1.74008 -0.86595,-0.46996 -2.08246,-0.70494 -3.64952,-0.70495 z m 0,1.28173 c 1.18712,2e-5 2.06908,0.11961 2.64587,0.35878 0.53176,0.21096 0.79764,0.47913 0.79765,0.80452 -1e-5,0.30366 -0.22546,0.5478 -0.67634,0.73242 -0.63707,0.2636 -1.55946,0.3954 -2.76718,0.39539 -1.22148,10e-6 -2.15989,-0.13179 -2.81525,-0.39539 -0.41848,-0.1831 -0.62771,-0.42724 -0.62771,-0.73242 0,-0.32615 0.23937,-0.58612 0.71812,-0.77992 0.61607,-0.25557 1.52434,-0.38336 2.72484,-0.38338 z m -0.77591,5.56527 0,0.39138 c -10e-6,0.28916 -0.0404,0.53788 -0.12131,0.74616 -0.0626,0.17739 -0.17072,0.35496 -0.32444,0.53272 -0.2411,0.35172 -0.2245,0.65137 0.0498,0.89893 0.36926,0.25025 0.7143,0.24777 1.03512,-0.007 0.23536,-0.30022 0.41427,-0.59814 0.53673,-0.89379 0.16707,-0.38795 0.25061,-0.79536 0.25062,-1.22223 l 0,-0.48923 0.66662,-0.028 c 0.84838,-0.0359 1.4778,-0.0599 1.88828,-0.0721 0.69426,-0.0359 1.25769,-0.0656 1.69029,-0.0893 0.20064,-0.0172 0.362,-0.0868 0.48408,-0.20886 0.11443,-0.1335 0.17165,-0.27655 0.17166,-0.42915 -0.0183,-0.1892 -0.0988,-0.33702 -0.24147,-0.44346 -0.14954,-0.10985 -0.34276,-0.15124 -0.57964,-0.12417 -1.23864,0.0828 -2.82937,0.14211 -4.77219,0.17796 -1.62735,0.0458 -3.34873,0.0687 -5.16414,0.0687 -0.44098,1e-5 -0.66967,0.20887 -0.68608,0.62657 -0.0122,0.43679 0.19856,0.65518 0.63229,0.65517 0.86403,10e-6 1.76277,-0.0118 2.69623,-0.0355 0.62408,-0.0122 1.21993,-0.0303 1.78757,-0.0543 z m 8.75129,1.86367 0,-8.06065 c -1e-5,-0.23116 -0.0616,-0.39614 -0.18482,-0.49496 -0.1732,-0.15104 -0.35821,-0.22658 -0.55504,-0.22659 -0.21058,1e-5 -0.38129,0.0576 -0.51212,0.17281 -0.15222,0.13581 -0.22832,0.31873 -0.22831,0.54874 l 0,6.5134 -3.31707,0 c -0.22775,1e-5 -0.40608,0.0643 -0.53501,0.19284 -0.11293,0.12894 -0.16938,0.28191 -0.16937,0.45891 0.0156,0.15602 0.0763,0.29469 0.18196,0.41599 0.16135,0.14267 0.35933,0.21401 0.59395,0.214 l 3.24554,0 0,0.35534 c -1e-5,0.20791 0.0761,0.37995 0.22831,0.51613 0.13426,0.1133 0.30993,0.16385 0.527,0.15163 0.19377,10e-6 0.36562,-0.075 0.51556,-0.22487 0.1396,-0.1255 0.20941,-0.30307 0.20942,-0.53272 z m -1.72748,0.44517 -9.58672,0 c -0.48905,1e-5 -0.74177,0.21077 -0.75817,0.63229 0,0.42114 0.24662,0.63171 0.73986,0.63171 l 9.35383,0 c 0.19911,0 0.33663,0.0296 0.41256,0.0887 0.0572,0.0443 0.0858,0.13314 0.0858,0.26665 l 0,0.41313 c -1e-5,0.0984 -0.0364,0.16747 -0.10929,0.20714 -0.0763,0.0511 -0.2001,0.0767 -0.37136,0.0767 l -8.34789,0 c -0.53521,0 -0.95349,0.13675 -1.25485,0.41027 -0.29106,0.27771 -0.43659,0.62675 -0.43659,1.04713 l 0,0.79021 c 0,0.42229 0.14171,0.76123 0.42515,1.01681 0.27351,0.24605 0.67767,0.36907 1.2125,0.36907 l 10.1429,0 c 0.22123,0 0.39137,-0.0679 0.5104,-0.2037 0.11748,-0.13428 0.17623,-0.27943 0.17624,-0.43545 -0.0176,-0.17471 -0.0834,-0.32749 -0.19741,-0.45833 -0.15909,-0.12284 -0.34601,-0.18425 -0.56076,-0.18425 l -9.83848,0 c -0.16862,0 -0.2842,-0.0235 -0.34676,-0.0704 -0.0412,-0.0309 -0.0618,-0.0961 -0.0618,-0.19569 l 0,-0.53844 c 0,-0.0954 0.0223,-0.16575 0.0669,-0.21115 0.0626,-0.0484 0.18253,-0.0727 0.35992,-0.0727 l 8.40168,0 c 0.49437,0 0.8909,-0.12321 1.18961,-0.36964 0.34674,-0.25978 0.52012,-0.60444 0.52013,-1.03398 l 0,-0.62828 c -1e-5,-0.5062 -0.16881,-0.90007 -0.5064,-1.1816 -0.29832,-0.24413 -0.70535,-0.3662 -1.22108,-0.36621 z"
       style="font-style:normal;font-variant:normal;font-stretch:normal;font-family:Gulim;-inkscape-font-specification:Gulim Bold"
       id="path3088" />
    <path
       d="m 277.65094,179.75256 -11.5797,0 c -0.4696,1e-5 -0.70439,0.20886 -0.70439,0.62656 -0.0118,0.4368 0.21686,0.65519 0.68608,0.65517 l 5.05886,0 c -0.0656,0.59282 -0.6323,1.14767 -1.70002,1.66455 -1.01052,0.48219 -2.32831,0.80624 -3.95337,0.97217 -0.24643,0.0141 -0.44079,0.10148 -0.58307,0.26207 -0.103,0.14726 -0.13466,0.31453 -0.095,0.50183 0.0305,0.16633 0.107,0.29736 0.22946,0.3931 0.19683,0.14001 0.424,0.20371 0.68149,0.19112 1.48544,-0.16937 2.82325,-0.50887 4.01344,-1.01853 1.15585,-0.50963 1.86615,-1.03758 2.13089,-1.58386 0.27542,0.5478 0.98972,1.06965 2.14291,1.56555 1.20009,0.53369 2.55545,0.87968 4.06609,1.03798 0.2239,0.0118 0.41483,-0.0429 0.57277,-0.16422 0.14838,-0.11443 0.23821,-0.25901 0.26951,-0.43373 0.0282,-0.17967 -0.003,-0.34084 -0.0933,-0.48352 -0.12666,-0.16325 -0.29718,-0.25252 -0.51155,-0.26779 -1.67009,-0.16554 -3.04891,-0.49628 -4.13647,-0.9922 -1.0067,-0.50391 -1.53657,-1.05208 -1.58958,-1.64452 l 5.09491,0 c 0.43333,2e-5 0.65001,-0.21647 0.65002,-0.64945 -10e-6,-0.42151 -0.21669,-0.63227 -0.65002,-0.63228 z m 1.20277,6.427 -13.98525,0 c -0.47646,1e-5 -0.72289,0.19475 -0.73929,0.58422 -0.0244,0.44137 0.19207,0.66205 0.64946,0.66204 l 6.33316,0 0,1.45054 c -10e-6,0.21973 0.0761,0.39768 0.22831,0.53386 0.12854,0.11331 0.29315,0.16995 0.49381,0.16995 0.19187,0 0.36315,-0.0753 0.51384,-0.22602 0.13884,-0.12512 0.20827,-0.30231 0.20828,-0.53158 l 0,-1.39675 6.33316,0 c 0.43371,1e-5 0.65058,-0.19016 0.6506,-0.57049 -0.0191,-0.45051 -0.24778,-0.67576 -0.68608,-0.67577 z m -7.0198,3.08819 c -2.16065,0 -3.79372,0.25806 -4.89922,0.77419 -1.04523,0.49019 -1.56784,1.17283 -1.56784,2.04792 0,0.86517 0.52261,1.54285 1.56784,2.03304 1.1013,0.51422 2.73437,0.77133 4.89922,0.77133 2.15071,0 3.77634,-0.25654 4.8769,-0.76961 1.06009,-0.49095 1.59014,-1.16921 1.59015,-2.03476 -10e-6,-0.88844 -0.5478,-1.57776 -1.64337,-2.06795 -1.05706,-0.50277 -2.66496,-0.75416 -4.82368,-0.75416 z m 0,1.264 c 1.77725,0 3.09466,0.15259 3.95222,0.45776 0.71371,0.25559 1.07058,0.62237 1.07059,1.10035 -10e-6,0.45509 -0.38702,0.81558 -1.161,1.08147 -0.795,0.29411 -2.08227,0.44117 -3.86181,0.44117 -1.79368,0 -3.10002,-0.15145 -3.91903,-0.45434 -0.73586,-0.25672 -1.10379,-0.61282 -1.10378,-1.0683 -1e-5,-0.47912 0.34999,-0.84591 1.04999,-1.10035 0.85716,-0.30517 2.18143,-0.45776 3.97282,-0.45776 z"
       style="font-style:normal;font-variant:normal;font-stretch:normal;font-family:Gulim;-inkscape-font-specification:Gulim Bold"
       id="path3090" />
    <path
       d="m 295.04367,182.6502 0,0.94814 c -1e-5,0.18541 -0.0412,0.31186 -0.1236,0.37937 -0.0885,0.0797 -0.24339,0.11961 -0.46463,0.1196 l -8.47377,0 c -0.19303,1e-5 -0.33131,-0.0418 -0.41485,-0.12532 -0.0679,-0.0679 -0.10186,-0.18653 -0.10185,-0.35591 l 0,-0.96588 z m -9.18789,2.71111 8.85086,0 c 0.51192,0 0.94012,-0.15888 1.2846,-0.47665 0.35513,-0.32767 0.53271,-0.7265 0.53272,-1.19648 l 0,-3.48301 c -10e-6,-0.21895 -0.0628,-0.37859 -0.18825,-0.47894 -0.1713,-0.1499 -0.35516,-0.22486 -0.55161,-0.22487 -0.21592,1e-5 -0.39846,0.0746 -0.5476,0.22373 -0.12857,0.11407 -0.19284,0.28001 -0.19283,0.49782 l 0,1.14555 -9.5787,0 0,-1.1095 c -10e-6,-0.22773 -0.083,-0.41655 -0.24891,-0.56649 -0.13085,-0.11557 -0.2945,-0.17336 -0.49095,-0.17337 -0.21096,1e-5 -0.38491,0.0601 -0.52186,0.18024 -0.14572,0.14535 -0.21858,0.33189 -0.21858,0.55962 l 0,3.42922 c 0,0.48295 0.15564,0.8587 0.46692,1.12724 0.38643,0.36393 0.85449,0.54589 1.40419,0.54589 z m 11.36456,1.35726 -6.26164,0 0,-1.77383 c -1e-5,-0.20217 -0.0883,-0.36487 -0.26493,-0.48809 -0.12666,-0.0961 -0.27905,-0.14419 -0.45719,-0.1442 -0.19914,10e-6 -0.36889,0.0616 -0.50926,0.18483 -0.14192,0.11063 -0.21287,0.2718 -0.21286,0.48351 l 0,1.73778 -6.22559,0 c -0.22278,1e-5 -0.40283,0.0599 -0.54016,0.17968 -0.11711,0.11788 -0.18387,0.25692 -0.20027,0.41713 -0.0118,0.16824 0.0252,0.30538 0.11101,0.41142 0.11863,0.15832 0.28057,0.23747 0.4858,0.23746 l 14.09283,0 c 0.48139,1e-5 0.7221,-0.18996 0.72212,-0.56991 -0.0191,-0.45051 -0.26571,-0.67577 -0.73986,-0.67578 z m -2.67506,2.96231 -10.07194,0 c -0.46922,0 -0.69791,0.21553 -0.68608,0.64659 0,0.42343 0.22869,0.63515 0.68608,0.63515 l 10.01815,0 c 0.21895,0 0.37135,0.0385 0.45719,0.11558 0.0633,0.0565 0.095,0.17224 0.095,0.34733 l 0,2.69279 c -1e-5,0.22965 0.0728,0.41714 0.21858,0.56248 0.13007,0.13008 0.30402,0.19512 0.52185,0.19512 0.20369,0 0.3805,-0.075 0.53044,-0.22487 0.1396,-0.12551 0.20941,-0.30308 0.20942,-0.53273 l 0,-2.72884 c -10e-6,-0.55313 -0.17968,-0.98228 -0.53901,-1.28746 -0.33304,-0.28076 -0.81293,-0.42114 -1.43967,-0.42114 z"
       style="font-style:normal;font-variant:normal;font-stretch:normal;font-family:Gulim;-inkscape-font-specification:Gulim Bold"
       id="path3092" />
  </g>
  <path
     style="fill:#5f5f5f"
     d="m 190.39243,205 0,54.83984 -2,-0.83984 3.5,10 3.5,-9.8457 -2,0.75195 0,-54.90625 -3,0 z"
     id="path135" />
  <path
     style="fill:#5f5f5f"
     d="m 325.39244,205 0,28.83984 -2,-0.83984 3.5,10 3.5,-9.8457 -2,0.75195 0,-28.90625 -3,0 z"
     id="path137" />
</svg>
