<?xml version="1.0" encoding="UTF-8" standalone="no"?>
<!-- Created with Inkscape (http://www.inkscape.org/) -->

<svg
   xmlns:dc="http://purl.org/dc/elements/1.1/"
   xmlns:cc="http://creativecommons.org/ns#"
   xmlns:rdf="http://www.w3.org/1999/02/22-rdf-syntax-ns#"
   xmlns:svg="http://www.w3.org/2000/svg"
   xmlns="http://www.w3.org/2000/svg"
   xmlns:sodipodi="http://sodipodi.sourceforge.net/DTD/sodipodi-0.dtd"
   xmlns:inkscape="http://www.inkscape.org/namespaces/inkscape"
   width="615"
   height="290"
   id="svg10908"
   version="1.1"
   inkscape:version="0.48.1 "
   sodipodi:docname="lvm.svg">
  <defs
     id="defs10910">
    <inkscape:perspective
       sodipodi:type="inkscape:persp3d"
       inkscape:vp_x="0 : 526.18109 : 1"
       inkscape:vp_y="0 : 1000 : 0"
       inkscape:vp_z="800 : 526.18109 : 1"
       inkscape:persp3d-origin="400 : 350.78739 : 1"
       id="perspective11780" />
  </defs>
  <sodipodi:namedview
     id="base"
     pagecolor="#ffffff"
     bordercolor="#666666"
     borderopacity="1.0"
     inkscape:pageopacity="1"
     inkscape:pageshadow="2"
     inkscape:zoom="2.01"
     inkscape:cx="391.24039"
     inkscape:cy="113.87902"
     inkscape:document-units="px"
     inkscape:current-layer="layer1"
     showgrid="true"
     inkscape:window-width="1920"
     inkscape:window-height="1033"
     inkscape:window-x="-4"
     inkscape:window-y="-4"
     inkscape:window-maximized="1">
    <inkscape:grid
       type="xygrid"
       id="grid11700"
       empspacing="5"
       visible="true"
       enabled="true"
       snapvisiblegridlinesonly="true" />
  </sodipodi:namedview>
  <metadata
     id="metadata10913">
    <rdf:RDF>
      <cc:Work
         rdf:about="">
        <dc:format>image/svg+xml</dc:format>
        <dc:type
           rdf:resource="http://purl.org/dc/dcmitype/StillImage" />
        <dc:title />
      </cc:Work>
    </rdf:RDF>
  </metadata>
  <g
     inkscape:label="Ebene 1"
     inkscape:groupmode="layer"
     id="layer1"
     transform="translate(0,-762.36218)">
    <rect
       style="opacity:0.99000005;fill:#7ac142;fill-opacity:1;fill-rule:nonzero;stroke:#464546;stroke-width:2.96099997;stroke-linecap:butt;stroke-linejoin:miter;stroke-miterlimit:4;stroke-opacity:1;stroke-dasharray:none"
       id="rect11698"
       width="207.03893"
       height="247.03891"
       x="21.480541"
       y="783.84271"
       rx="8.2815561"
       ry="8.4026842" />
    <g
       style="font-size:22px;font-style:normal;font-variant:normal;font-weight:normal;font-stretch:normal;line-height:125%;letter-spacing:0px;word-spacing:0px;fill:#000000;fill-opacity:1;stroke:none;font-family:Open Sans;-inkscape-font-specification:Open Sans"
       id="text11756">
      <path
         d="m 95.743164,815.86218 0,-15.74804 5.424806,0 c 1.2246,10e-6 2.15917,0.0752 2.80371,0.22558 0.90233,0.2077 1.67219,0.58368 2.30957,1.12793 0.83072,0.70184 1.45197,1.59881 1.86377,2.69092 0.41177,1.09213 0.61766,2.34002 0.61768,3.74365 -2e-5,1.19597 -0.13967,2.25587 -0.41895,3.17969 -0.27931,0.92383 -0.63738,1.68832 -1.07422,2.29346 -0.43686,0.60514 -0.91489,1.08138 -1.43408,1.42871 -0.51922,0.34733 -1.14584,0.61051 -1.87988,0.78955 -0.73406,0.17903 -1.57732,0.26855 -2.52979,0.26855 z m 2.083984,-1.8584 3.362302,0 c 1.03841,10e-6 1.85302,-0.0967 2.44385,-0.29003 0.59081,-0.19336 1.06168,-0.4655 1.4126,-0.81641 0.49413,-0.49414 0.87906,-1.15836 1.15478,-1.99268 0.27571,-0.8343 0.41357,-1.84586 0.41358,-3.03466 -1e-5,-1.64713 -0.27036,-2.91292 -0.81104,-3.79737 -0.5407,-0.88443 -1.19776,-1.47704 -1.97119,-1.77783 -0.5586,-0.21483 -1.45736,-0.32225 -2.69629,-0.32227 l -3.308592,0 z"
         style=""
         id="path3075" />
      <path
         d="m 111.99609,815.86218 0,-15.74804 2.08399,0 0,15.74804 z"
         style=""
         id="path3077" />
      <path
         d="M 117.03418,810.80261 119,810.63074 c 0.0931,0.78776 0.30973,1.43408 0.6499,1.93896 0.34017,0.50489 0.86832,0.91309 1.58448,1.22461 0.71613,0.31153 1.5218,0.46729 2.41699,0.46729 0.79491,0 1.49673,-0.11817 2.10547,-0.3545 0.60871,-0.23632 1.06167,-0.56038 1.35888,-0.97216 0.29719,-0.41178 0.44579,-0.86117 0.4458,-1.34815 -1e-5,-0.49413 -0.14324,-0.92561 -0.42968,-1.29443 -0.28647,-0.36881 -0.75913,-0.67854 -1.41797,-0.9292 -0.42254,-0.16471 -1.35711,-0.42073 -2.80371,-0.76807 -1.44662,-0.34732 -2.45997,-0.67496 -3.04004,-0.98291 -0.75196,-0.39387 -1.31234,-0.88264 -1.68116,-1.46631 -0.36881,-0.58364 -0.55322,-1.23713 -0.55322,-1.96045 0,-0.7949 0.22559,-1.53791 0.67676,-2.229 0.45117,-0.69107 1.11002,-1.21564 1.97656,-1.57373 0.86653,-0.35806 1.82975,-0.53709 2.88965,-0.53711 1.16731,2e-5 2.19677,0.18801 3.08838,0.56397 0.89159,0.37599 1.5773,0.92921 2.05713,1.65966 0.4798,0.73049 0.73762,1.55763 0.77344,2.48145 l -1.99805,0.15039 c -0.10743,-0.99543 -0.47088,-1.74738 -1.09033,-2.25586 -0.61948,-0.50845 -1.53435,-0.76268 -2.74463,-0.76269 -1.26042,10e-6 -2.17888,0.23097 -2.75537,0.69287 -0.5765,0.46192 -0.86475,1.01873 -0.86475,1.67041 0,0.56576 0.2041,1.03126 0.61231,1.39648 0.40103,0.36525 1.4484,0.73943 3.14209,1.12256 1.69367,0.38315 2.85562,0.71794 3.48584,1.00439 0.91665,0.42254 1.59341,0.95786 2.03027,1.60596 0.43683,0.64812 0.65526,1.3947 0.65527,2.23975 -1e-5,0.83789 -0.23992,1.62744 -0.71972,2.36865 -0.47983,0.74121 -1.16912,1.31771 -2.06788,1.72949 -0.89877,0.41179 -1.91032,0.61768 -3.03466,0.61768 -1.42514,0 -2.61931,-0.20769 -3.58252,-0.62305 -0.96322,-0.41536 -1.71876,-1.0402 -2.2666,-1.87451 -0.54786,-0.83431 -0.83611,-1.77783 -0.86475,-2.83057 z"
         style=""
         id="path3079" />
      <path
         d="m 143.6748,810.3407 2.08399,0.52637 c -0.43686,1.71159 -1.22283,3.01676 -2.35791,3.91552 -1.1351,0.89877 -2.52263,1.34815 -4.1626,1.34815 -1.69727,0 -3.07764,-0.34554 -4.14111,-1.03662 -1.06348,-0.69108 -1.87273,-1.6919 -2.42774,-3.00245 -0.55501,-1.31054 -0.83252,-2.71776 -0.83252,-4.22167 0,-1.63997 0.31332,-3.07047 0.93995,-4.29151 0.62662,-1.22101 1.51822,-2.14842 2.6748,-2.78223 1.15657,-0.63377 2.42952,-0.95066 3.81885,-0.95068 1.57551,2e-5 2.90038,0.40106 3.97461,1.20313 1.0742,0.80209 1.82257,1.93002 2.24511,3.38379 l -2.05175,0.48339 c -0.36525,-1.14582 -0.8952,-1.98013 -1.58985,-2.50293 -0.69467,-0.52277 -1.56837,-0.78416 -2.62109,-0.78418 -1.21029,2e-5 -2.22185,0.29006 -3.03467,0.87012 -0.81283,0.58009 -1.38395,1.3589 -1.71338,2.33643 -0.32943,0.97755 -0.49414,1.98552 -0.49414,3.02392 0,1.3392 0.19515,2.50831 0.58545,3.50733 0.3903,0.99902 0.99723,1.74561 1.8208,2.23974 0.82356,0.49415 1.71516,0.74122 2.67481,0.74121 1.1673,10e-6 2.15558,-0.33658 2.96484,-1.00976 0.80923,-0.67318 1.35708,-1.6722 1.64355,-2.99707 z"
         style=""
         id="path3081" />
      <path
         d="m 147.70312,808.19226 c 0,-2.61392 0.70183,-4.66031 2.10547,-6.13916 1.40365,-1.47883 3.21549,-2.21825 5.43555,-2.21826 1.45377,10e-6 2.76431,0.34735 3.93164,1.04199 1.16731,0.69468 2.05712,1.66326 2.66943,2.90576 0.61229,1.24253 0.91845,2.65154 0.91846,4.22705 -1e-5,1.59702 -0.32228,3.02572 -0.9668,4.28614 -0.64454,1.26042 -1.55763,2.21468 -2.73925,2.86279 -1.18165,0.64811 -2.45639,0.97217 -3.82422,0.97217 -1.48243,0 -2.8073,-0.35808 -3.97461,-1.07422 -1.16732,-0.71615 -2.05176,-1.69368 -2.65332,-2.93262 -0.60157,-1.23893 -0.90235,-2.54947 -0.90235,-3.93164 z m 2.14844,0.0322 c 0,1.89779 0.51025,3.39274 1.53076,4.48486 1.02051,1.09213 2.30062,1.63819 3.84034,1.63818 1.56835,10e-6 2.8592,-0.55143 3.87255,-1.65429 1.01334,-1.10286 1.52001,-2.66764 1.52002,-4.69434 -1e-5,-1.28189 -0.21664,-2.40087 -0.6499,-3.35693 -0.43328,-0.95604 -1.06707,-1.69725 -1.90137,-2.22364 -0.83432,-0.52635 -1.77068,-0.78953 -2.80908,-0.78955 -1.47526,2e-5 -2.74463,0.50669 -3.8081,1.52002 -1.06348,1.01336 -1.59522,2.70525 -1.59522,5.07569 z"
         style=""
         id="path3083" />
    </g>
    <path
       style="fill:none;stroke:#464546;stroke-width:2;stroke-linecap:butt;stroke-linejoin:miter;stroke-miterlimit:4;stroke-opacity:1;stroke-dasharray:none"
       d="m 21.483272,980.35374 207.806898,0"
       id="path11866"
       inkscape:connector-curvature="0" />
    <path
       style="fill:none;stroke:#464546;stroke-width:2;stroke-linecap:butt;stroke-linejoin:miter;stroke-miterlimit:4;stroke-opacity:1;stroke-dasharray:none"
       d="m 21.484175,830.3542 208.195365,0"
       id="path11874"
       inkscape:connector-curvature="0" />
    <g
       style="font-size:22px;font-style:normal;font-variant:normal;font-weight:normal;font-stretch:normal;line-height:125%;letter-spacing:0px;word-spacing:0px;fill:#000000;fill-opacity:1;stroke:none;font-family:Open Sans;-inkscape-font-specification:Open Sans"
       id="text11876">
      <path
         d="m 30.59586,915.24695 0,-15.74805 5.940429,0 c 1.045564,2e-5 1.844066,0.0501 2.395508,0.15039 0.773427,0.12892 1.421538,0.3742 1.944336,0.73584 0.522774,0.36167 0.943509,0.86834 1.262207,1.52002 0.318671,0.65171 0.478014,1.36785 0.478027,2.14844 -1.3e-5,1.3392 -0.42612,2.4725 -1.27832,3.3999 -0.852225,0.92742 -2.391937,1.39112 -4.619141,1.39111 l -4.039062,0 0,6.40235 z m 2.083984,-8.26074 4.071289,0 c 1.346345,0 2.302399,-0.25065 2.868164,-0.75196 0.565744,-0.50129 0.848621,-1.20669 0.848633,-2.11621 -1.2e-5,-0.65884 -0.166515,-1.2228 -0.499512,-1.69189 -0.333018,-0.46906 -0.771657,-0.7788 -1.315918,-0.9292 -0.350921,-0.0931 -0.999032,-0.13964 -1.944336,-0.13965 l -4.02832,0 z"
         style=""
         id="path3104" />
      <path
         d="m 43.56168,915.24695 6.047851,-15.74805 2.245118,0 6.445312,15.74805 -2.374023,0 -1.836914,-4.76953 -6.584961,0 -1.729493,4.76953 z m 4.543945,-6.4668 5.338867,0 -1.643554,-4.36133 c -0.50131,-1.32485 -0.873706,-2.41339 -1.117188,-3.26562 -0.200528,1.00978 -0.483405,2.01238 -0.848633,3.00781 z"
         style=""
         id="path3106" />
      <path
         d="m 60.018711,915.24695 0,-15.74805 6.982422,0 c 1.403636,2e-5 2.470692,0.14146 3.201172,0.42432 0.730456,0.28289 1.314114,0.7824 1.750976,1.49853 0.436835,0.71616 0.65526,1.5075 0.655274,2.37403 -1.4e-5,1.11719 -0.361668,2.05893 -1.084961,2.82519 -0.72332,0.76629 -1.840506,1.25326 -3.351563,1.46094 0.551422,0.26498 0.970367,0.52637 1.256836,0.78418 0.608713,0.5586 1.185209,1.25684 1.729493,2.09473 l 2.739257,4.28613 -2.621093,0 -2.083985,-3.27637 c -0.608734,-0.94531 -1.110036,-1.66861 -1.503906,-2.16992 -0.393889,-0.5013 -0.746591,-0.85221 -1.058106,-1.05274 -0.311531,-0.20051 -0.628425,-0.34016 -0.950683,-0.41894 -0.236335,-0.0501 -0.623054,-0.0752 -1.160156,-0.0752 l -2.416993,0 0,6.99317 z m 2.083984,-8.79785 4.479493,0 c 0.952464,10e-6 1.697255,-0.0985 2.234375,-0.29541 0.537098,-0.19693 0.945301,-0.51204 1.224609,-0.94532 0.279285,-0.43325 0.418933,-0.90412 0.418945,-1.41259 -1.2e-5,-0.74478 -0.270357,-1.35709 -0.811035,-1.83692 -0.540701,-0.4798 -1.394704,-0.71971 -2.562012,-0.71972 l -4.984375,0 z"
         style=""
         id="path3108" />
      <path
         d="m 79.891758,915.24695 0,-13.88965 -5.188477,0 0,-1.8584 12.482422,0 0,1.8584 -5.209961,0 0,13.88965 z"
         style=""
         id="path3110" />
    </g>
    <g
       style="font-size:22px;font-style:normal;font-variant:normal;font-weight:normal;font-stretch:normal;line-height:125%;letter-spacing:0px;word-spacing:0px;fill:#000000;fill-opacity:1;stroke:none;font-family:Open Sans;-inkscape-font-specification:Open Sans"
       id="text11876-6">
      <path
         d="m 100.77075,915.24695 0,-15.74805 5.94043,0 c 1.04557,2e-5 1.84407,0.0501 2.39551,0.15039 0.77343,0.12892 1.42154,0.3742 1.94434,0.73584 0.52277,0.36167 0.9435,0.86834 1.2622,1.52002 0.31867,0.65171 0.47802,1.36785 0.47803,2.14844 -10e-6,1.3392 -0.42612,2.4725 -1.27832,3.3999 -0.85223,0.92742 -2.39194,1.39112 -4.61914,1.39111 l -4.03906,0 0,6.40235 z m 2.08399,-8.26074 4.07129,0 c 1.34634,0 2.30239,-0.25065 2.86816,-0.75196 0.56574,-0.50129 0.84862,-1.20669 0.84863,-2.11621 -1e-5,-0.65884 -0.16651,-1.2228 -0.49951,-1.69189 -0.33302,-0.46906 -0.77166,-0.7788 -1.31592,-0.9292 -0.35092,-0.0931 -0.99903,-0.13964 -1.94433,-0.13965 l -4.02832,0 z"
         style=""
         id="path3095" />
      <path
         d="m 113.73657,915.24695 6.04785,-15.74805 2.24512,0 6.44531,15.74805 -2.37402,0 -1.83691,-4.76953 -6.58496,0 -1.7295,4.76953 z m 4.54395,-6.4668 5.33886,0 -1.64355,-4.36133 c -0.50131,-1.32485 -0.87371,-2.41339 -1.11719,-3.26562 -0.20053,1.00978 -0.4834,2.01238 -0.84863,3.00781 z"
         style=""
         id="path3097" />
      <path
         d="m 130.1936,915.24695 0,-15.74805 6.98243,0 c 1.40363,2e-5 2.47069,0.14146 3.20117,0.42432 0.73045,0.28289 1.31411,0.7824 1.75097,1.49853 0.43684,0.71616 0.65526,1.5075 0.65528,2.37403 -2e-5,1.11719 -0.36167,2.05893 -1.08496,2.82519 -0.72332,0.76629 -1.84051,1.25326 -3.35157,1.46094 0.55143,0.26498 0.97037,0.52637 1.25684,0.78418 0.60871,0.5586 1.18521,1.25684 1.72949,2.09473 l 2.73926,4.28613 -2.62109,0 -2.08399,-3.27637 c -0.60873,-0.94531 -1.11003,-1.66861 -1.5039,-2.16992 -0.39389,-0.5013 -0.7466,-0.85221 -1.05811,-1.05274 -0.31153,-0.20051 -0.62843,-0.34016 -0.95068,-0.41894 -0.23634,-0.0501 -0.62306,-0.0752 -1.16016,-0.0752 l -2.41699,0 0,6.99317 z m 2.08399,-8.79785 4.47949,0 c 0.95246,10e-6 1.69726,-0.0985 2.23438,-0.29541 0.53709,-0.19693 0.9453,-0.51204 1.2246,-0.94532 0.27929,-0.43325 0.41894,-0.90412 0.41895,-1.41259 -1e-5,-0.74478 -0.27036,-1.35709 -0.81104,-1.83692 -0.5407,-0.4798 -1.3947,-0.71971 -2.56201,-0.71972 l -4.98437,0 z"
         style=""
         id="path3099" />
      <path
         d="m 150.06665,915.24695 0,-13.88965 -5.18848,0 0,-1.8584 12.48243,0 0,1.8584 -5.20997,0 0,13.88965 z"
         style=""
         id="path3101" />
    </g>
    <g
       style="font-size:22px;font-style:normal;font-variant:normal;font-weight:normal;font-stretch:normal;line-height:125%;letter-spacing:0px;word-spacing:0px;fill:#000000;fill-opacity:1;stroke:none;font-family:Open Sans;-inkscape-font-specification:Open Sans"
       id="text11876-1">
      <path
         d="m 170.89922,915.24695 0,-15.74805 5.94043,0 c 1.04556,2e-5 1.84406,0.0501 2.3955,0.15039 0.77343,0.12892 1.42154,0.3742 1.94434,0.73584 0.52277,0.36167 0.94351,0.86834 1.26221,1.52002 0.31867,0.65171 0.47801,1.36785 0.47802,2.14844 -1e-5,1.3392 -0.42612,2.4725 -1.27832,3.3999 -0.85222,0.92742 -2.39193,1.39112 -4.61914,1.39111 l -4.03906,0 0,6.40235 z m 2.08398,-8.26074 4.07129,0 c 1.34634,0 2.3024,-0.25065 2.86816,-0.75196 0.56575,-0.50129 0.84862,-1.20669 0.84864,-2.11621 -2e-5,-0.65884 -0.16652,-1.2228 -0.49952,-1.69189 -0.33301,-0.46906 -0.77165,-0.7788 -1.31591,-0.9292 -0.35092,-0.0931 -0.99904,-0.13964 -1.94434,-0.13965 l -4.02832,0 z"
         style=""
         id="path3086" />
      <path
         d="m 183.86504,915.24695 6.04785,-15.74805 2.24511,0 6.44532,15.74805 -2.37403,0 -1.83691,-4.76953 -6.58496,0 -1.72949,4.76953 z m 4.54394,-6.4668 5.33887,0 -1.64356,-4.36133 c -0.50131,-1.32485 -0.8737,-2.41339 -1.11718,-3.26562 -0.20053,1.00978 -0.48341,2.01238 -0.84864,3.00781 z"
         style=""
         id="path3088" />
      <path
         d="m 200.32207,915.24695 0,-15.74805 6.98242,0 c 1.40363,2e-5 2.47069,0.14146 3.20117,0.42432 0.73046,0.28289 1.31412,0.7824 1.75098,1.49853 0.43683,0.71616 0.65526,1.5075 0.65527,2.37403 -1e-5,1.11719 -0.36167,2.05893 -1.08496,2.82519 -0.72332,0.76629 -1.84051,1.25326 -3.35156,1.46094 0.55142,0.26498 0.97036,0.52637 1.25683,0.78418 0.60872,0.5586 1.18521,1.25684 1.7295,2.09473 l 2.73925,4.28613 -2.62109,0 -2.08398,-3.27637 c -0.60874,-0.94531 -1.11004,-1.66861 -1.50391,-2.16992 -0.39389,-0.5013 -0.74659,-0.85221 -1.05811,-1.05274 -0.31153,-0.20051 -0.62842,-0.34016 -0.95068,-0.41894 -0.23634,-0.0501 -0.62305,-0.0752 -1.16016,-0.0752 l -2.41699,0 0,6.99317 z m 2.08398,-8.79785 4.47949,0 c 0.95247,10e-6 1.69726,-0.0985 2.23438,-0.29541 0.5371,-0.19693 0.9453,-0.51204 1.22461,-0.94532 0.27928,-0.43325 0.41893,-0.90412 0.41894,-1.41259 -1e-5,-0.74478 -0.27035,-1.35709 -0.81103,-1.83692 -0.5407,-0.4798 -1.39471,-0.71971 -2.56201,-0.71972 l -4.98438,0 z"
         style=""
         id="path3090" />
      <path
         d="m 220.19511,915.24695 0,-13.88965 -5.18847,0 0,-1.8584 12.48242,0 0,1.8584 -5.20996,0 0,13.88965 z"
         style=""
         id="path3092" />
    </g>
    <path
       style="fill:none;stroke:#464546;stroke-width:2;stroke-linecap:butt;stroke-linejoin:miter;stroke-miterlimit:4;stroke-opacity:1;stroke-dasharray:none"
       d="m 92.052539,830.74357 0,200.22103"
       id="path11910"
       inkscape:connector-curvature="0" />
    <path
       style="fill:none;stroke:#464546;stroke-width:2;stroke-linecap:butt;stroke-linejoin:miter;stroke-miterlimit:4;stroke-opacity:1;stroke-dasharray:none"
       d="m 162.07313,831.04273 0,199.91357"
       id="path11912"
       inkscape:connector-curvature="0" />
    <g
       style="font-size:22px;font-style:normal;font-variant:normal;font-weight:normal;font-stretch:normal;line-height:125%;letter-spacing:0px;word-spacing:0px;fill:#000000;fill-opacity:1;stroke:none;font-family:Open Sans;-inkscape-font-specification:Open Sans"
       id="text11914">
      <path
         d="m 43.138691,1013.9509 0,-15.74802 5.94043,0 c 1.045564,2e-5 1.844066,0.0501 2.395507,0.15039 0.773427,0.12892 1.421538,0.3742 1.944336,0.73584 0.522774,0.36167 0.94351,0.86834 1.262207,1.51999 0.318672,0.6517 0.478014,1.3679 0.478028,2.1485 -1.4e-5,1.3392 -0.42612,2.4725 -1.278321,3.3999 -0.852225,0.9274 -2.391937,1.3911 -4.61914,1.3911 l -4.039063,0 0,6.4023 z m 2.083984,-8.2607 4.071289,0 c 1.346345,0 2.302399,-0.2507 2.868164,-0.752 0.565744,-0.5013 0.848622,-1.2067 0.848633,-2.1162 -1.1e-5,-0.6588 -0.166515,-1.2228 -0.499511,-1.6919 -0.333019,-0.469 -0.771658,-0.7788 -1.315918,-0.9292 -0.350921,-0.093 -0.999033,-0.1396 -1.944336,-0.1396 l -4.028321,0 z"
         style=""
         id="path3210" />
      <path
         d="m 57.76955,1013.9509 0,-15.74802 3.136719,0 3.727539,11.15042 c 0.343741,1.0384 0.594392,1.8154 0.751953,2.331 0.179027,-0.5729 0.458324,-1.4144 0.837891,-2.5244 l 3.770508,-10.95702 2.803711,0 0,15.74802 -2.008789,0 0,-13.1806 -4.576172,13.1806 -1.879883,0 -4.554688,-13.4062 0,13.4062 z"
         style=""
         id="path3212" />
    </g>
    <g
       style="font-size:22px;font-style:normal;font-variant:normal;font-weight:normal;font-stretch:normal;line-height:125%;letter-spacing:0px;word-spacing:0px;fill:#000000;fill-opacity:1;stroke:none;font-family:Open Sans;-inkscape-font-specification:Open Sans"
       id="text11918">
      <path
         d="m 113.04751,1013.7988 0,-15.74802 5.94043,0 c 1.04556,2e-5 1.84406,0.0501 2.39551,0.15039 0.77342,0.12892 1.42153,0.3742 1.94433,0.73584 0.52278,0.36167 0.94351,0.86834 1.26221,1.51999 0.31867,0.6517 0.47801,1.3679 0.47803,2.1485 -2e-5,1.3392 -0.42612,2.4725 -1.27832,3.3999 -0.85223,0.9274 -2.39194,1.3911 -4.61914,1.3911 l -4.03907,0 0,6.4023 z m 2.08398,-8.2607 4.07129,0 c 1.34635,0 2.3024,-0.2507 2.86817,-0.752 0.56574,-0.5013 0.84862,-1.2067 0.84863,-2.1162 -1e-5,-0.6588 -0.16652,-1.2228 -0.49951,-1.6919 -0.33302,-0.469 -0.77166,-0.7788 -1.31592,-0.9292 -0.35092,-0.0931 -0.99903,-0.13961 -1.94434,-0.13962 l -4.02832,0 z"
         style=""
         id="path3205" />
      <path
         d="m 127.67837,1013.7988 0,-15.74802 3.13672,0 3.72754,11.15042 c 0.34374,1.0384 0.59439,1.8154 0.75195,2.331 0.17903,-0.5729 0.45832,-1.4144 0.83789,-2.5244 l 3.77051,-10.95702 2.80371,0 0,15.74802 -2.00879,0 0,-13.1806 -4.57617,13.1806 -1.87989,0 -4.55468,-13.4062 0,13.4062 z"
         style=""
         id="path3207" />
    </g>
    <g
       style="font-size:22px;font-style:normal;font-variant:normal;font-weight:normal;font-stretch:normal;line-height:125%;letter-spacing:0px;word-spacing:0px;fill:#000000;fill-opacity:1;stroke:none;font-family:Open Sans;-inkscape-font-specification:Open Sans"
       id="text11922">
      <path
         d="m 179.2388,1013.316 0,-15.74807 5.94043,0 c 1.04556,2e-5 1.84407,0.0501 2.39551,0.15039 0.77342,0.12892 1.42154,0.3742 1.94433,0.73584 0.52278,0.36167 0.94351,0.86834 1.26221,1.52002 0.31867,0.65172 0.47801,1.36782 0.47803,2.14842 -2e-5,1.3392 -0.42612,2.4725 -1.27832,3.3999 -0.85223,0.9274 -2.39194,1.3911 -4.61914,1.3911 l -4.03907,0 0,6.4024 z m 2.08398,-8.2608 4.07129,0 c 1.34635,0 2.3024,-0.2506 2.86817,-0.7519 0.56574,-0.5013 0.84862,-1.2067 0.84863,-2.1162 -1e-5,-0.6589 -0.16651,-1.2228 -0.49951,-1.6919 -0.33302,-0.4691 -0.77166,-0.77882 -1.31592,-0.92922 -0.35092,-0.0931 -0.99903,-0.13964 -1.94434,-0.13965 l -4.02832,0 z"
         style=""
         id="path3200" />
      <path
         d="m 193.86966,1013.316 0,-15.74807 3.13672,0 3.72754,11.15037 c 0.34374,1.0384 0.59439,1.8155 0.75195,2.3311 0.17903,-0.5729 0.45832,-1.4144 0.83789,-2.5244 l 3.77051,-10.95707 2.80371,0 0,15.74807 -2.00879,0 0,-13.1807 -4.57617,13.1807 -1.87988,0 -4.55469,-13.40627 0,13.40627 z"
         style=""
         id="path3202" />
    </g>
    <rect
       style="opacity:0.99000005;fill:#7ac142;fill-opacity:1;fill-rule:nonzero;stroke:#464546;stroke-width:2.91599989;stroke-linecap:butt;stroke-linejoin:miter;stroke-miterlimit:4;stroke-opacity:1;stroke-dasharray:none"
       id="rect11698-7"
       width="346.1778"
       height="246.17776"
       x="247.03612"
       y="784.27325"
       rx="13.84711"
       ry="8.373394" />
    <path
       style="fill:none;stroke:#464546;stroke-width:2.00178909;stroke-linecap:butt;stroke-linejoin:miter;stroke-miterlimit:4;stroke-opacity:1;stroke-dasharray:none"
       d="m 247.80614,830.49433 344.28821,0"
       id="path11874-8"
       inkscape:connector-curvature="0" />
    <path
       style="fill:none;stroke:#464546;stroke-width:2;stroke-linecap:butt;stroke-linejoin:miter;stroke-miterlimit:4;stroke-opacity:1;stroke-dasharray:none"
       d="m 246.80873,980.49592 345.39535,0"
       id="path11866-7"
       inkscape:connector-curvature="0" />
    <path
       style="fill:none;stroke:#464546;stroke-width:2.00178385;stroke-linecap:butt;stroke-linejoin:miter;stroke-miterlimit:4;stroke-opacity:1;stroke-dasharray:none"
       d="m 246.87135,930.99527 345.30672,0"
       id="path11866-7-6"
       inkscape:connector-curvature="0" />
    <path
       style="fill:none;stroke:#464546;stroke-width:2;stroke-linecap:butt;stroke-linejoin:miter;stroke-miterlimit:4;stroke-opacity:1;stroke-dasharray:none"
       d="m 246.8704,880.17754 345.04346,0"
       id="path11866-7-6-6"
       inkscape:connector-curvature="0" />
    <path
       style="fill:none;stroke:#464546;stroke-width:2;stroke-linecap:butt;stroke-linejoin:miter;stroke-miterlimit:4;stroke-opacity:1;stroke-dasharray:none"
       d="m 318.82523,830.47354 0,50.28872"
       id="path11912-1"
       inkscape:connector-curvature="0" />
    <path
       style="fill:none;stroke:#464546;stroke-width:2;stroke-linecap:butt;stroke-linejoin:miter;stroke-miterlimit:4;stroke-opacity:1;stroke-dasharray:none"
       d="m 388.15189,783.6664 0,97.3463"
       id="path11912-1-1"
       inkscape:connector-curvature="0" />
    <path
       style="fill:none;stroke:#464546;stroke-width:2.00931168;stroke-linecap:butt;stroke-linejoin:miter;stroke-miterlimit:4;stroke-opacity:1;stroke-dasharray:none"
       d="m 458.3724,831.37918 0,198.70862"
       id="path11912-1-1-3"
       inkscape:connector-curvature="0" />
    <path
       style="fill:none;stroke:#464546;stroke-width:2;stroke-linecap:butt;stroke-linejoin:miter;stroke-miterlimit:4;stroke-opacity:1;stroke-dasharray:none"
       d="m 528.64817,931.14591 0,98.31909"
       id="path11912-1-1-3-6"
       inkscape:connector-curvature="0" />
    <g
       style="font-size:22px;font-style:normal;font-variant:normal;font-weight:normal;font-stretch:normal;line-height:125%;letter-spacing:0px;word-spacing:0px;fill:#000000;fill-opacity:1;stroke:none;font-family:Open Sans;-inkscape-font-specification:Open Sans"
       id="text12300">
      <path
         d="m 277.56638,815.43677 0,-15.74805 5.4248,0 c 1.2246,2e-5 2.15917,0.0752 2.80371,0.22559 0.90233,0.20769 1.67219,0.58367 2.30957,1.12793 0.83072,0.70183 1.45197,1.5988 1.86377,2.69091 0.41177,1.09214 0.61766,2.34002 0.61768,3.74366 -2e-5,1.19597 -0.13967,2.25586 -0.41895,3.17968 -0.27931,0.92384 -0.63738,1.68832 -1.07422,2.29346 -0.43686,0.60515 -0.91489,1.08138 -1.43408,1.42871 -0.51922,0.34733 -1.14584,0.61052 -1.87988,0.78955 -0.73406,0.17904 -1.57732,0.26856 -2.52979,0.26856 z m 2.08398,-1.8584 3.3623,0 c 1.03841,0 1.85302,-0.0967 2.44385,-0.29004 0.59081,-0.19336 1.06168,-0.46549 1.4126,-0.81641 0.49413,-0.49413 0.87906,-1.15836 1.15479,-1.99267 0.2757,-0.83431 0.41356,-1.84586 0.41357,-3.03467 -1e-5,-1.64713 -0.27036,-2.91291 -0.81104,-3.79736 -0.5407,-0.88443 -1.19776,-1.47704 -1.97119,-1.77784 -0.5586,-0.21483 -1.45736,-0.32225 -2.69629,-0.32226 l -3.30859,0 z"
         style=""
         id="path3062" />
      <path
         d="m 293.81931,815.43677 0,-15.74805 2.08398,0 0,15.74805 z"
         style=""
         id="path3064" />
      <path
         d="m 298.85739,810.3772 1.96582,-0.17188 c 0.0931,0.78777 0.30973,1.43409 0.6499,1.93897 0.34017,0.50488 0.86833,0.91309 1.58448,1.22461 0.71614,0.31152 1.5218,0.46728 2.41699,0.46728 0.79491,0 1.49673,-0.11816 2.10547,-0.35449 0.60871,-0.23633 1.06167,-0.56038 1.35888,-0.97217 0.29719,-0.41178 0.44579,-0.86116 0.44581,-1.34814 -2e-5,-0.49414 -0.14325,-0.92562 -0.42969,-1.29444 -0.28647,-0.36881 -0.75913,-0.67854 -1.41797,-0.9292 -0.42254,-0.1647 -1.35711,-0.42072 -2.80371,-0.76806 -1.44662,-0.34733 -2.45997,-0.67496 -3.04004,-0.98291 -0.75196,-0.39387 -1.31234,-0.88264 -1.68115,-1.46631 -0.36882,-0.58365 -0.55323,-1.23713 -0.55323,-1.96045 0,-0.79491 0.22559,-1.53791 0.67676,-2.229 0.45117,-0.69107 1.11002,-1.21565 1.97656,-1.57373 0.86654,-0.35806 1.82975,-0.5371 2.88965,-0.53711 1.16731,10e-6 2.19677,0.188 3.08838,0.56396 0.89159,0.37599 1.5773,0.92921 2.05713,1.65967 0.47981,0.73048 0.73762,1.55763 0.77344,2.48144 l -1.99805,0.15039 c -0.10743,-0.99543 -0.47088,-1.74738 -1.09033,-2.25585 -0.61948,-0.50845 -1.53435,-0.76269 -2.74463,-0.7627 -1.26042,10e-6 -2.17888,0.23097 -2.75537,0.69287 -0.5765,0.46193 -0.86475,1.01873 -0.86475,1.67041 0,0.56577 0.2041,1.03126 0.61231,1.39649 0.40103,0.36524 1.4484,0.73943 3.14209,1.12255 1.69367,0.38315 2.85562,0.71795 3.48584,1.0044 0.91665,0.42253 1.59341,0.95785 2.03027,1.60596 0.43684,0.64811 0.65526,1.3947 0.65527,2.23974 -1e-5,0.8379 -0.23992,1.62745 -0.71972,2.36865 -0.47983,0.74122 -1.16912,1.31771 -2.06787,1.7295 -0.89878,0.41178 -1.91033,0.61767 -3.03467,0.61767 -1.42514,0 -2.61931,-0.20768 -3.58252,-0.62304 -0.96322,-0.41537 -1.71875,-1.04021 -2.2666,-1.87452 -0.54786,-0.8343 -0.8361,-1.77782 -0.86475,-2.83056 z"
         style=""
         id="path3066" />
      <path
         d="m 325.49802,809.91528 2.08398,0.52637 c -0.43686,1.71159 -1.22283,3.01677 -2.35791,3.91553 -1.1351,0.89876 -2.52263,1.34814 -4.1626,1.34814 -1.69727,0 -3.07764,-0.34554 -4.14111,-1.03662 -1.06348,-0.69108 -1.87272,-1.69189 -2.42773,-3.00244 -0.55502,-1.31054 -0.83253,-2.71777 -0.83252,-4.22168 -10e-6,-1.63996 0.31331,-3.07046 0.93994,-4.2915 0.62662,-1.22102 1.51822,-2.14843 2.6748,-2.78223 1.15657,-0.63377 2.42952,-0.95067 3.81885,-0.95068 1.57551,10e-6 2.90038,0.40105 3.97461,1.20312 1.0742,0.8021 1.82258,1.93003 2.24512,3.38379 l -2.05176,0.4834 c -0.36525,-1.14582 -0.8952,-1.98013 -1.58985,-2.50293 -0.69467,-0.52277 -1.56836,-0.78417 -2.62109,-0.78418 -1.21029,1e-5 -2.22185,0.29005 -3.03467,0.87012 -0.81283,0.58009 -1.38395,1.3589 -1.71338,2.33642 -0.32943,0.97755 -0.49414,1.98553 -0.49414,3.02393 0,1.3392 0.19515,2.5083 0.58545,3.50732 0.3903,0.99903 0.99723,1.74561 1.8208,2.23975 0.82356,0.49414 1.71517,0.74121 2.67481,0.74121 1.16731,0 2.15559,-0.33659 2.96484,-1.00977 0.80923,-0.67317 1.35709,-1.67219 1.64356,-2.99707 z"
         style=""
         id="path3068" />
      <path
         d="m 329.52634,807.76685 c 0,-2.61393 0.70182,-4.66031 2.10547,-6.13916 1.40364,-1.47883 3.21548,-2.21825 5.43554,-2.21827 1.45377,2e-5 2.76431,0.34735 3.93164,1.042 1.16731,0.69467 2.05712,1.66326 2.66944,2.90576 0.61229,1.24252 0.91844,2.65154 0.91845,4.22705 -1e-5,1.59701 -0.32228,3.02572 -0.96679,4.28613 -0.64455,1.26042 -1.55763,2.21468 -2.73926,2.86279 -1.18165,0.64812 -2.45639,0.97217 -3.82422,0.97217 -1.48243,0 -2.8073,-0.35807 -3.97461,-1.07422 -1.16732,-0.71614 -2.05176,-1.69368 -2.65332,-2.93261 -0.60156,-1.23893 -0.90234,-2.54948 -0.90234,-3.93164 z m 2.14843,0.0322 c 0,1.89779 0.51025,3.39275 1.53077,4.48487 1.0205,1.09212 2.30061,1.63818 3.84033,1.63818 1.56835,0 2.8592,-0.55143 3.87256,-1.6543 1.01333,-1.10286 1.52,-2.66764 1.52002,-4.69433 -2e-5,-1.2819 -0.21665,-2.40087 -0.64991,-3.35694 -0.43328,-0.95604 -1.06707,-1.69725 -1.90136,-2.22363 -0.83432,-0.52635 -1.77068,-0.78954 -2.80909,-0.78955 -1.47526,1e-5 -2.74463,0.50669 -3.8081,1.52002 -1.06348,1.01336 -1.59522,2.70525 -1.59522,5.07568 z"
         style=""
         id="path3070" />
      <path
         d="m 359.86227,815.43677 -1.93359,0 0,-12.32129 c -0.4655,0.44402 -1.07601,0.88803 -1.83154,1.33203 -0.75554,0.44402 -1.43409,0.77703 -2.03565,0.99902 l 0,-1.86914 c 1.08138,-0.50845 2.02669,-1.12433 2.83594,-1.84765 0.80924,-0.7233 1.38216,-1.42512 1.71875,-2.10547 l 1.24609,0 z"
         style=""
         id="path3072" />
    </g>
    <g
       style="font-size:22px;font-style:normal;font-variant:normal;font-weight:normal;font-stretch:normal;line-height:125%;letter-spacing:0px;word-spacing:0px;fill:#000000;fill-opacity:1;stroke:none;font-family:Open Sans;-inkscape-font-specification:Open Sans"
       id="text12304">
      <path
         d="m 450.38486,814.953 0,-15.74804 5.4248,0 c 1.2246,10e-6 2.15917,0.0752 2.80371,0.22558 0.90234,0.2077 1.67219,0.58368 2.30957,1.12793 0.83072,0.70184 1.45198,1.59881 1.86377,2.69092 0.41177,1.09213 0.61766,2.34002 0.61768,3.74365 -2e-5,1.19597 -0.13966,2.25587 -0.41895,3.17969 -0.27931,0.92383 -0.63738,1.68832 -1.07422,2.29346 -0.43686,0.60514 -0.91488,1.08138 -1.43408,1.42871 -0.51921,0.34733 -1.14584,0.61051 -1.87988,0.78955 -0.73406,0.17903 -1.57732,0.26855 -2.52979,0.26855 z m 2.08398,-1.8584 3.36231,0 c 1.0384,10e-6 1.85301,-0.0967 2.44384,-0.29003 0.59081,-0.19336 1.06168,-0.4655 1.4126,-0.81641 0.49413,-0.49414 0.87906,-1.15836 1.15479,-1.99268 0.2757,-0.8343 0.41356,-1.84586 0.41357,-3.03466 -10e-6,-1.64713 -0.27036,-2.91292 -0.81103,-3.79737 -0.54071,-0.88443 -1.19777,-1.47704 -1.9712,-1.77783 -0.5586,-0.21483 -1.45736,-0.32225 -2.69628,-0.32227 l -3.3086,0 z"
         style=""
         id="path3049" />
      <path
         d="m 466.63779,814.953 0,-15.74804 2.08398,0 0,15.74804 z"
         style=""
         id="path3051" />
      <path
         d="m 471.67587,809.89343 1.96582,-0.17187 c 0.0931,0.78776 0.30973,1.43408 0.64991,1.93896 0.34016,0.50489 0.86832,0.91309 1.58447,1.22461 0.71614,0.31153 1.5218,0.46729 2.41699,0.46729 0.79491,0 1.49674,-0.11817 2.10547,-0.3545 0.60871,-0.23632 1.06167,-0.56038 1.35889,-0.97216 0.29718,-0.41178 0.44579,-0.86116 0.4458,-1.34815 -10e-6,-0.49413 -0.14324,-0.92561 -0.42969,-1.29443 -0.28647,-0.36881 -0.75913,-0.67854 -1.41797,-0.9292 -0.42253,-0.16471 -1.3571,-0.42073 -2.80371,-0.76807 -1.44662,-0.34732 -2.45997,-0.67496 -3.04004,-0.98291 -0.75196,-0.39387 -1.31234,-0.88264 -1.68115,-1.46631 -0.36882,-0.58364 -0.55323,-1.23713 -0.55322,-1.96044 -1e-5,-0.79491 0.22558,-1.53791 0.67675,-2.22901 0.45117,-0.69106 1.11003,-1.21564 1.97657,-1.57373 0.86653,-0.35806 1.82974,-0.53709 2.88964,-0.53711 1.16731,2e-5 2.19677,0.18801 3.08838,0.56397 0.89159,0.37599 1.5773,0.92921 2.05713,1.65966 0.47981,0.73049 0.73762,1.55763 0.77344,2.48145 l -1.99805,0.15039 c -0.10743,-0.99543 -0.47087,-1.74738 -1.09033,-2.25586 -0.61948,-0.50845 -1.53435,-0.76268 -2.74463,-0.76269 -1.26042,10e-6 -2.17888,0.23097 -2.75537,0.69287 -0.5765,0.46192 -0.86475,1.01873 -0.86475,1.67041 0,0.56576 0.2041,1.03126 0.61231,1.39648 0.40104,0.36525 1.4484,0.73943 3.14209,1.12256 1.69367,0.38315 2.85562,0.71794 3.48584,1.00439 0.91665,0.42254 1.59341,0.95786 2.03027,1.60596 0.43684,0.64812 0.65526,1.3947 0.65528,2.23975 -2e-5,0.83789 -0.23993,1.62744 -0.71973,2.36865 -0.47983,0.74121 -1.16912,1.31771 -2.06787,1.72949 -0.89877,0.41179 -1.91033,0.61768 -3.03467,0.61768 -1.42514,0 -2.61931,-0.20768 -3.58252,-0.62305 -0.96322,-0.41536 -1.71875,-1.0402 -2.2666,-1.87451 -0.54785,-0.83431 -0.8361,-1.77783 -0.86475,-2.83057 z"
         style=""
         id="path3053" />
      <path
         d="m 498.3165,809.43152 2.08398,0.52637 c -0.43686,1.71159 -1.22283,3.01676 -2.35791,3.91552 -1.1351,0.89877 -2.52263,1.34815 -4.1626,1.34815 -1.69727,0 -3.07764,-0.34554 -4.14111,-1.03662 -1.06348,-0.69108 -1.87272,-1.6919 -2.42773,-3.00244 -0.55502,-1.31055 -0.83252,-2.71777 -0.83252,-4.22168 0,-1.63997 0.31331,-3.07047 0.93994,-4.29151 0.62662,-1.22101 1.51822,-2.14842 2.6748,-2.78223 1.15657,-0.63377 2.42952,-0.95066 3.81885,-0.95068 1.57551,2e-5 2.90038,0.40106 3.97461,1.20313 1.07421,0.80209 1.82258,1.93002 2.24512,3.38379 l -2.05176,0.48339 c -0.36525,-1.14582 -0.89519,-1.98013 -1.58984,-2.50293 -0.69468,-0.52277 -1.56837,-0.78416 -2.6211,-0.78418 -1.21029,2e-5 -2.22185,0.29006 -3.03467,0.87012 -0.81283,0.58009 -1.38395,1.3589 -1.71337,2.33643 -0.32944,0.97755 -0.49415,1.98552 -0.49415,3.02392 0,1.3392 0.19515,2.50831 0.58545,3.50733 0.3903,0.99902 0.99723,1.74561 1.8208,2.23974 0.82357,0.49415 1.71517,0.74122 2.67481,0.74121 1.16731,10e-6 2.15559,-0.33658 2.96484,-1.00976 0.80924,-0.67318 1.35709,-1.6722 1.64356,-2.99707 z"
         style=""
         id="path3055" />
      <path
         d="m 502.34482,807.28308 c 0,-2.61392 0.70182,-4.66031 2.10547,-6.13916 1.40364,-1.47882 3.21549,-2.21824 5.43554,-2.21826 1.45377,2e-5 2.76432,0.34735 3.93164,1.04199 1.16731,0.69468 2.05712,1.66326 2.66944,2.90576 0.61229,1.24253 0.91844,2.65154 0.91845,4.22705 -10e-6,1.59702 -0.32228,3.02572 -0.96679,4.28614 -0.64455,1.26042 -1.55763,2.21468 -2.73926,2.86279 -1.18165,0.64811 -2.45639,0.97217 -3.82422,0.97217 -1.48243,0 -2.8073,-0.35808 -3.97461,-1.07422 -1.16732,-0.71615 -2.05176,-1.69368 -2.65332,-2.93262 -0.60156,-1.23893 -0.90234,-2.54947 -0.90234,-3.93164 z m 2.14844,0.0322 c -1e-5,1.89779 0.51025,3.39274 1.53076,4.48486 1.0205,1.09213 2.30061,1.63819 3.84033,1.63818 1.56835,10e-6 2.8592,-0.55143 3.87256,-1.65429 1.01333,-1.10286 1.52,-2.66764 1.52002,-4.69434 -2e-5,-1.28189 -0.21665,-2.40087 -0.6499,-3.35693 -0.43329,-0.95604 -1.06707,-1.69725 -1.90137,-2.22363 -0.83432,-0.52636 -1.77068,-0.78954 -2.80908,-0.78956 -1.47527,2e-5 -2.74464,0.50669 -3.80811,1.52002 -1.06348,1.01336 -1.59522,2.70525 -1.59521,5.07569 z"
         style=""
         id="path3057" />
      <path
         d="m 535.55966,813.0946 0,1.8584 -10.40918,0 c -0.0143,-0.46549 0.0609,-0.91308 0.22559,-1.34277 0.26497,-0.70898 0.68929,-1.40722 1.27295,-2.09473 0.58365,-0.68749 1.42691,-1.48241 2.52978,-2.38476 1.71158,-1.40364 2.86816,-2.51546 3.46973,-3.33545 0.60155,-0.81998 0.90233,-1.59521 0.90234,-2.32569 -1e-5,-0.76626 -0.27393,-1.41258 -0.82177,-1.93896 -0.54786,-0.52635 -1.26222,-0.78954 -2.14307,-0.78955 -0.931,10e-6 -1.67579,0.27931 -2.23438,0.83789 -0.55859,0.55861 -0.84147,1.33204 -0.84863,2.32031 l -1.9873,-0.2041 c 0.13606,-1.48241 0.64811,-2.61213 1.53613,-3.38916 0.88802,-0.777 2.0804,-1.16551 3.57715,-1.16553 1.51106,2e-5 2.70702,0.41896 3.58789,1.25684 0.88085,0.8379 1.32128,1.87631 1.32129,3.11523 -10e-6,0.63022 -0.12892,1.24969 -0.38672,1.8584 -0.25782,0.60873 -0.68572,1.24968 -1.28369,1.92285 -0.59799,0.67319 -1.59164,1.59701 -2.98096,2.77149 -1.16016,0.97396 -1.90495,1.6346 -2.23437,1.98193 -0.32944,0.34733 -0.60157,0.69646 -0.81641,1.04736 z"
         style=""
         id="path3059" />
    </g>
    <path
       style="fill:none;stroke:#464546;stroke-width:2;stroke-linecap:butt;stroke-linejoin:miter;stroke-miterlimit:4;stroke-opacity:1;stroke-dasharray:none"
       d="m 528.8049,831.27924 0,49.06013"
       id="path11912-1-1-3-6-5"
       inkscape:connector-curvature="0" />
    <path
       style="fill:none;stroke:#464546;stroke-width:2;stroke-linecap:butt;stroke-linejoin:miter;stroke-miterlimit:4;stroke-opacity:1;stroke-dasharray:none"
       d="m 353.86718,931.40169 0,99.39951"
       id="path11912-1-1-3-2"
       inkscape:connector-curvature="0" />
    <g
       style="font-size:22px;font-style:normal;font-variant:normal;font-weight:normal;font-stretch:normal;line-height:125%;letter-spacing:0px;word-spacing:0px;fill:#000000;fill-opacity:1;stroke:none;font-family:Open Sans;-inkscape-font-specification:Open Sans"
       id="text11914-9">
      <path
         d="m 287.3833,1012.9647 0,-15.74803 5.94043,0 c 1.04556,2e-5 1.84407,0.0502 2.39551,0.1504 0.77342,0.12892 1.42154,0.3742 1.94433,0.73584 0.52278,0.36166 0.94351,0.86834 1.26221,1.52001 0.31867,0.65168 0.47801,1.36788 0.47803,2.14848 -2e-5,1.3392 -0.42612,2.4725 -1.27832,3.3999 -0.85223,0.9274 -2.39194,1.3911 -4.61914,1.3911 l -4.03906,0 0,6.4023 z m 2.08399,-8.2607 4.07128,0 c 1.34635,0 2.3024,-0.2507 2.86817,-0.752 0.56574,-0.5013 0.84862,-1.2067 0.84863,-2.1162 -1e-5,-0.6588 -0.16651,-1.2228 -0.49951,-1.6919 -0.33302,-0.46904 -0.77166,-0.77877 -1.31592,-0.92918 -0.35092,-0.0931 -0.99903,-0.13963 -1.94433,-0.13965 l -4.02832,0 z"
         style=""
         id="path3230" />
      <path
         d="m 302.01416,1012.9647 0,-15.74803 3.13672,0 3.72754,11.15043 c 0.34374,1.0384 0.59439,1.8154 0.75195,2.331 0.17903,-0.5729 0.45832,-1.4144 0.83789,-2.5244 l 3.77051,-10.95703 2.80371,0 0,15.74803 -2.00879,0 0,-13.18064 -4.57617,13.18064 -1.87988,0 -4.55469,-13.40623 0,13.40623 z"
         style=""
         id="path3232" />
    </g>
    <g
       style="font-size:22px;font-style:normal;font-variant:normal;font-weight:normal;font-stretch:normal;line-height:125%;letter-spacing:0px;word-spacing:0px;fill:#000000;fill-opacity:1;stroke:none;font-family:Open Sans;-inkscape-font-specification:Open Sans"
       id="text11914-5">
      <path
         d="m 393.1333,1012.7147 0,-15.74803 5.94043,0 c 1.04556,2e-5 1.84407,0.0502 2.39551,0.1504 0.77342,0.12892 1.42154,0.3742 1.94433,0.73584 0.52278,0.36166 0.94351,0.86834 1.26221,1.52001 0.31867,0.65168 0.47801,1.36788 0.47803,2.14848 -2e-5,1.3392 -0.42612,2.4725 -1.27832,3.3999 -0.85223,0.9274 -2.39194,1.3911 -4.61914,1.3911 l -4.03906,0 0,6.4023 z m 2.08399,-8.2607 4.07128,0 c 1.34635,0 2.3024,-0.2507 2.86817,-0.752 0.56574,-0.5013 0.84862,-1.2067 0.84863,-2.1162 -1e-5,-0.6588 -0.16651,-1.2228 -0.49951,-1.69188 -0.33302,-0.46906 -0.77166,-0.77879 -1.31592,-0.9292 -0.35092,-0.0931 -0.99903,-0.13963 -1.94433,-0.13965 l -4.02832,0 z"
         style=""
         id="path3225" />
      <path
         d="m 407.76416,1012.7147 0,-15.74803 3.13672,0 3.72754,11.15043 c 0.34374,1.0384 0.59439,1.8154 0.75195,2.331 0.17903,-0.5729 0.45832,-1.4144 0.83789,-2.5244 l 3.77051,-10.95703 2.80371,0 0,15.74803 -2.00879,0 0,-13.18064 -4.57617,13.18064 -1.87988,0 -4.55469,-13.40623 0,13.40623 z"
         style=""
         id="path3227" />
    </g>
    <g
       style="font-size:22px;font-style:normal;font-variant:normal;font-weight:normal;font-stretch:normal;line-height:125%;letter-spacing:0px;word-spacing:0px;fill:#000000;fill-opacity:1;stroke:none;font-family:Open Sans;-inkscape-font-specification:Open Sans"
       id="text11914-0">
      <path
         d="m 480.6333,1012.7147 0,-15.74803 5.94043,0 c 1.04556,2e-5 1.84407,0.0502 2.39551,0.1504 0.77342,0.12892 1.42154,0.3742 1.94433,0.73584 0.52278,0.36166 0.94351,0.86834 1.26221,1.52001 0.31867,0.65168 0.47801,1.36788 0.47803,2.14848 -2e-5,1.3392 -0.42612,2.4725 -1.27832,3.3999 -0.85223,0.9274 -2.39194,1.3911 -4.61914,1.3911 l -4.03906,0 0,6.4023 z m 2.08399,-8.2607 4.07128,0 c 1.34635,0 2.3024,-0.2507 2.86817,-0.752 0.56574,-0.5013 0.84862,-1.2067 0.84863,-2.1162 -1e-5,-0.6588 -0.16651,-1.2228 -0.49951,-1.69188 -0.33302,-0.46906 -0.77166,-0.77879 -1.31592,-0.9292 -0.35092,-0.0931 -0.99903,-0.13963 -1.94433,-0.13965 l -4.02832,0 z"
         style=""
         id="path3220" />
      <path
         d="m 495.26416,1012.7147 0,-15.74803 3.13672,0 3.72754,11.15043 c 0.34374,1.0384 0.59439,1.8154 0.75195,2.331 0.17903,-0.5729 0.45832,-1.4144 0.83789,-2.5244 l 3.77051,-10.95703 2.80371,0 0,15.74803 -2.00879,0 0,-13.18064 -4.57617,13.18064 -1.87988,0 -4.55469,-13.40623 0,13.40623 z"
         style=""
         id="path3222" />
    </g>
    <g
       style="font-size:22px;font-style:normal;font-variant:normal;font-weight:normal;font-stretch:normal;line-height:125%;letter-spacing:0px;word-spacing:0px;fill:#000000;fill-opacity:1;stroke:none;font-family:Open Sans;-inkscape-font-specification:Open Sans"
       id="text11914-97">
      <path
         d="m 545.8833,1013.2147 0,-15.74803 5.94043,0 c 1.04556,2e-5 1.84407,0.0502 2.39551,0.1504 0.77342,0.12892 1.42154,0.3742 1.94433,0.73584 0.52278,0.36166 0.94351,0.86834 1.26221,1.52001 0.31867,0.65168 0.47801,1.36788 0.47803,2.14848 -2e-5,1.3392 -0.42612,2.4725 -1.27832,3.3999 -0.85223,0.9274 -2.39194,1.3911 -4.61914,1.3911 l -4.03906,0 0,6.4023 z m 2.08399,-8.2607 4.07128,0 c 1.34635,0 2.3024,-0.2507 2.86817,-0.752 0.56574,-0.5013 0.84862,-1.2067 0.84863,-2.1162 -10e-6,-0.6588 -0.16651,-1.2228 -0.49951,-1.6919 -0.33302,-0.46904 -0.77166,-0.77877 -1.31592,-0.92918 -0.35092,-0.0931 -0.99903,-0.13963 -1.94433,-0.13965 l -4.02832,0 z"
         style=""
         id="path3215" />
      <path
         d="m 560.51416,1013.2147 0,-15.74803 3.13672,0 3.72754,11.15043 c 0.34374,1.0384 0.59439,1.8154 0.75195,2.331 0.17903,-0.5729 0.45832,-1.4144 0.83789,-2.5244 l 3.77051,-10.95703 2.80371,0 0,15.74803 -2.00879,0 0,-13.1806 -4.57617,13.1806 -1.87988,0 -4.55469,-13.40623 0,13.40623 z"
         style=""
         id="path3217" />
    </g>
    <g
       style="font-size:22px;font-style:normal;font-variant:normal;font-weight:normal;font-stretch:normal;line-height:125%;letter-spacing:0px;word-spacing:0px;fill:#000000;fill-opacity:1;stroke:none;font-family:Open Sans;-inkscape-font-specification:Open Sans"
       id="text11876-17">
      <path
         d="m 258.64911,862.328 0,-15.74804 5.94043,0 c 1.04556,10e-6 1.84406,0.0501 2.39551,0.15039 0.77342,0.12892 1.42153,0.3742 1.94433,0.73584 0.52278,0.36166 0.94351,0.86834 1.26221,1.52002 0.31867,0.6517 0.47801,1.36785 0.47803,2.14843 -2e-5,1.33921 -0.42612,2.47251 -1.27832,3.39991 -0.85223,0.92741 -2.39194,1.39112 -4.61914,1.39111 l -4.03907,0 0,6.40234 z m 2.08398,-8.26074 4.07129,0 c 1.34635,10e-6 2.3024,-0.25064 2.86817,-0.75195 0.56574,-0.50129 0.84862,-1.2067 0.84863,-2.11621 -1e-5,-0.65885 -0.16652,-1.22281 -0.49951,-1.6919 -0.33302,-0.46906 -0.77166,-0.77879 -1.31592,-0.9292 -0.35092,-0.0931 -0.99903,-0.13963 -1.94434,-0.13965 l -4.02832,0 z"
         style=""
         id="path3149" />
      <path
         d="m 271.61493,862.328 6.04785,-15.74804 2.24512,0 6.44531,15.74804 -2.37402,0 -1.83692,-4.76953 -6.58496,0 -1.72949,4.76953 z m 4.54394,-6.46679 5.33887,0 -1.64355,-4.36133 c -0.50131,-1.32486 -0.87371,-2.4134 -1.11719,-3.26563 -0.20053,1.00978 -0.48341,2.01238 -0.84863,3.00782 z"
         style=""
         id="path3151" />
      <path
         d="m 288.07196,862.328 0,-15.74804 6.98242,0 c 1.40364,10e-6 2.47069,0.14145 3.20117,0.42431 0.73046,0.2829 1.31412,0.78241 1.75098,1.49854 0.43684,0.71616 0.65526,1.5075 0.65527,2.37402 -1e-5,1.1172 -0.36166,2.05893 -1.08496,2.8252 -0.72332,0.76628 -1.8405,1.25326 -3.35156,1.46093 0.55142,0.26498 0.97037,0.52638 1.25684,0.78418 0.60871,0.5586 1.18521,1.25684 1.72949,2.09473 l 2.73926,4.28613 -2.6211,0 -2.08398,-3.27636 c -0.60874,-0.94531 -1.11004,-1.66862 -1.50391,-2.16993 -0.39389,-0.50129 -0.74659,-0.8522 -1.0581,-1.05273 -0.31153,-0.20051 -0.62843,-0.34016 -0.95069,-0.41895 -0.23633,-0.0501 -0.62305,-0.0752 -1.16015,-0.0752 l -2.417,0 0,6.99316 z m 2.08398,-8.79785 4.4795,0 c 0.95246,10e-6 1.69725,-0.0985 2.23437,-0.29541 0.5371,-0.19693 0.9453,-0.51203 1.22461,-0.94531 0.27929,-0.43326 0.41893,-0.90412 0.41895,-1.4126 -2e-5,-0.74478 -0.27036,-1.35708 -0.81104,-1.83691 -0.5407,-0.47981 -1.3947,-0.71972 -2.56201,-0.71973 l -4.98438,0 z"
         style=""
         id="path3153" />
      <path
         d="m 307.94501,862.328 0,-13.88965 -5.18848,0 0,-1.85839 12.48242,0 0,1.85839 -5.20996,0 0,13.88965 z"
         style=""
         id="path3155" />
    </g>
    <g
       style="font-size:22px;font-style:normal;font-variant:normal;font-weight:normal;font-stretch:normal;line-height:125%;letter-spacing:0px;word-spacing:0px;fill:#000000;fill-opacity:1;stroke:none;font-family:Open Sans;-inkscape-font-specification:Open Sans"
       id="text11876-63">
      <path
         d="m 328.94196,863.24695 0,-15.74805 5.94043,0 c 1.04556,2e-5 1.84406,0.0501 2.3955,0.15039 0.77343,0.12892 1.42154,0.3742 1.94434,0.73584 0.52277,0.36167 0.94351,0.86834 1.26221,1.52002 0.31867,0.65171 0.47801,1.36785 0.47802,2.14844 -1e-5,1.3392 -0.42612,2.4725 -1.27832,3.3999 -0.85222,0.92742 -2.39193,1.39112 -4.61914,1.39111 l -4.03906,0 0,6.40235 z m 2.08398,-8.26074 4.07129,0 c 1.34634,0 2.3024,-0.25065 2.86816,-0.75196 0.56575,-0.50129 0.84862,-1.20669 0.84864,-2.11621 -2e-5,-0.65884 -0.16652,-1.2228 -0.49952,-1.69189 -0.33301,-0.46906 -0.77165,-0.7788 -1.31591,-0.9292 -0.35092,-0.0931 -0.99904,-0.13964 -1.94434,-0.13965 l -4.02832,0 z"
         style=""
         id="path3140" />
      <path
         d="m 341.90778,863.24695 6.04785,-15.74805 2.24511,0 6.44532,15.74805 -2.37403,0 -1.83691,-4.76953 -6.58496,0 -1.72949,4.76953 z m 4.54394,-6.4668 5.33887,0 -1.64356,-4.36133 c -0.50131,-1.32485 -0.8737,-2.41339 -1.11718,-3.26562 -0.20053,1.00978 -0.48341,2.01238 -0.84864,3.00781 z"
         style=""
         id="path3142" />
      <path
         d="m 358.36481,863.24695 0,-15.74805 6.98242,0 c 1.40363,2e-5 2.47069,0.14146 3.20117,0.42432 0.73046,0.28289 1.31412,0.7824 1.75098,1.49853 0.43683,0.71616 0.65526,1.5075 0.65527,2.37403 -1e-5,1.11719 -0.36167,2.05893 -1.08496,2.82519 -0.72332,0.76629 -1.84051,1.25326 -3.35156,1.46094 0.55142,0.26498 0.97036,0.52637 1.25683,0.78418 0.60872,0.5586 1.18521,1.25684 1.7295,2.09473 l 2.73925,4.28613 -2.62109,0 -2.08398,-3.27637 c -0.60874,-0.94531 -1.11004,-1.66861 -1.50391,-2.16992 -0.39389,-0.5013 -0.74659,-0.85221 -1.05811,-1.05274 -0.31153,-0.20051 -0.62842,-0.34016 -0.95068,-0.41894 -0.23634,-0.0501 -0.62305,-0.0752 -1.16016,-0.0752 l -2.41699,0 0,6.99317 z m 2.08398,-8.79785 4.47949,0 c 0.95247,10e-6 1.69726,-0.0985 2.23438,-0.29541 0.5371,-0.19693 0.9453,-0.51204 1.22461,-0.94532 0.27928,-0.43325 0.41893,-0.90412 0.41894,-1.41259 -1e-5,-0.74478 -0.27035,-1.35709 -0.81103,-1.83692 -0.5407,-0.4798 -1.39471,-0.71971 -2.56201,-0.71972 l -4.98438,0 z"
         style=""
         id="path3144" />
      <path
         d="m 378.23785,863.24695 0,-13.88965 -5.18847,0 0,-1.8584 12.48242,0 0,1.8584 -5.20996,0 0,13.88965 z"
         style=""
         id="path3146" />
    </g>
    <g
       style="font-size:22px;font-style:normal;font-variant:normal;font-weight:normal;font-stretch:normal;line-height:125%;letter-spacing:0px;word-spacing:0px;fill:#000000;fill-opacity:1;stroke:none;font-family:Open Sans;-inkscape-font-specification:Open Sans"
       id="text11876-4">
      <path
         d="m 397.3259,862.9491 0,-15.74805 5.94043,0 c 1.04556,2e-5 1.84406,0.0502 2.3955,0.15039 0.77343,0.12892 1.42154,0.3742 1.94434,0.73584 0.52277,0.36167 0.94351,0.86834 1.26221,1.52002 0.31867,0.65171 0.47801,1.36785 0.47803,2.14844 -2e-5,1.3392 -0.42613,2.4725 -1.27833,3.3999 -0.85222,0.92742 -2.39193,1.39112 -4.61914,1.39111 l -4.03906,0 0,6.40235 z m 2.08398,-8.26075 4.07129,0 c 1.34635,10e-6 2.3024,-0.25064 2.86816,-0.75195 0.56575,-0.50129 0.84863,-1.20669 0.84864,-2.11621 -10e-6,-0.65884 -0.16652,-1.22281 -0.49951,-1.69189 -0.33302,-0.46907 -0.77166,-0.7788 -1.31592,-0.9292 -0.35092,-0.0931 -0.99903,-0.13964 -1.94434,-0.13965 l -4.02832,0 z"
         style=""
         id="path3131" />
      <path
         d="m 410.29172,862.9491 6.04785,-15.74805 2.24512,0 6.44531,15.74805 -2.37402,0 -1.83692,-4.76953 -6.58496,0 -1.72949,4.76953 z m 4.54394,-6.4668 5.33887,0 -1.64355,-4.36133 c -0.50131,-1.32486 -0.87371,-2.4134 -1.11719,-3.26562 -0.20053,1.00978 -0.48341,2.01238 -0.84863,3.00781 z"
         style=""
         id="path3133" />
      <path
         d="m 426.74875,862.9491 0,-15.74805 6.98242,0 c 1.40364,2e-5 2.47069,0.14145 3.20117,0.42432 0.73046,0.28289 1.31412,0.7824 1.75098,1.49853 0.43683,0.71616 0.65526,1.5075 0.65527,2.37402 -1e-5,1.1172 -0.36167,2.05893 -1.08496,2.8252 -0.72332,0.76628 -1.8405,1.25326 -3.35156,1.46094 0.55142,0.26498 0.97037,0.52637 1.25684,0.78418 0.60871,0.5586 1.1852,1.25684 1.72949,2.09472 l 2.73926,4.28614 -2.6211,0 -2.08398,-3.27637 c -0.60874,-0.94531 -1.11004,-1.66862 -1.50391,-2.16992 -0.39389,-0.5013 -0.74659,-0.85221 -1.0581,-1.05274 -0.31154,-0.20051 -0.62843,-0.34016 -0.95069,-0.41894 -0.23633,-0.0501 -0.62305,-0.0752 -1.16015,-0.0752 l -2.417,0 0,6.99317 z m 2.08398,-8.79785 4.4795,0 c 0.95246,0 1.69725,-0.0985 2.23437,-0.29542 0.5371,-0.19693 0.9453,-0.51203 1.22461,-0.94531 0.27928,-0.43326 0.41893,-0.90412 0.41895,-1.4126 -2e-5,-0.74477 -0.27036,-1.35708 -0.81104,-1.83691 -0.5407,-0.4798 -1.3947,-0.71971 -2.56201,-0.71973 l -4.98438,0 z"
         style=""
         id="path3135" />
      <path
         d="m 446.6218,862.9491 0,-13.88965 -5.18848,0 0,-1.8584 12.48242,0 0,1.8584 -5.20996,0 0,13.88965 z"
         style=""
         id="path3137" />
    </g>
    <g
       style="font-size:22px;font-style:normal;font-variant:normal;font-weight:normal;font-stretch:normal;line-height:125%;letter-spacing:0px;word-spacing:0px;fill:#000000;fill-opacity:1;stroke:none;font-family:Open Sans;-inkscape-font-specification:Open Sans"
       id="text11876-636">
      <path
         d="m 467.78137,862.92371 0,-15.74805 5.94043,0 c 1.04557,10e-6 1.84407,0.0502 2.39551,0.15039 0.77343,0.12892 1.42154,0.3742 1.94434,0.73584 0.52277,0.36167 0.9435,0.86834 1.2622,1.52002 0.31867,0.6517 0.47802,1.36785 0.47803,2.14844 -10e-6,1.3392 -0.42612,2.4725 -1.27832,3.3999 -0.85223,0.92741 -2.39194,1.39112 -4.61914,1.39111 l -4.03906,0 0,6.40235 z m 2.08399,-8.26075 4.07129,0 c 1.34634,10e-6 2.30239,-0.25064 2.86816,-0.75195 0.56574,-0.50129 0.84862,-1.20669 0.84863,-2.11621 -10e-6,-0.65884 -0.16651,-1.22281 -0.49951,-1.69189 -0.33302,-0.46907 -0.77166,-0.7788 -1.31592,-0.9292 -0.35092,-0.0931 -0.99903,-0.13964 -1.94433,-0.13965 l -4.02832,0 z"
         style=""
         id="path3122" />
      <path
         d="m 480.74719,862.92371 6.04785,-15.74805 2.24512,0 6.44531,15.74805 -2.37402,0 -1.83691,-4.76954 -6.58496,0 -1.7295,4.76954 z m 4.54395,-6.4668 5.33886,0 -1.64355,-4.36133 c -0.50131,-1.32486 -0.87371,-2.4134 -1.11719,-3.26562 -0.20053,1.00977 -0.4834,2.01238 -0.84863,3.00781 z"
         style=""
         id="path3124" />
      <path
         d="m 497.20422,862.92371 0,-15.74805 6.98243,0 c 1.40363,10e-6 2.47069,0.14145 3.20117,0.42432 0.73045,0.28289 1.31411,0.7824 1.75097,1.49853 0.43684,0.71616 0.65526,1.5075 0.65528,2.37402 -2e-5,1.1172 -0.36167,2.05893 -1.08496,2.8252 -0.72332,0.76628 -1.84051,1.25326 -3.35157,1.46094 0.55143,0.26498 0.97037,0.52637 1.25684,0.78418 0.60871,0.5586 1.18521,1.25684 1.72949,2.09472 l 2.73926,4.28614 -2.62109,0 -2.08399,-3.27637 c -0.60873,-0.94531 -1.11003,-1.66862 -1.5039,-2.16992 -0.39389,-0.5013 -0.7466,-0.85221 -1.05811,-1.05274 -0.31153,-0.20051 -0.62843,-0.34016 -0.95068,-0.41894 -0.23634,-0.0501 -0.62306,-0.0752 -1.16016,-0.0752 l -2.41699,0 0,6.99317 z m 2.08399,-8.79786 4.47949,0 c 0.95246,10e-6 1.69726,-0.0985 2.23438,-0.29541 0.53709,-0.19693 0.9453,-0.51203 1.2246,-0.94531 0.27929,-0.43326 0.41894,-0.90412 0.41895,-1.4126 -10e-6,-0.74478 -0.27036,-1.35708 -0.81104,-1.83691 -0.5407,-0.4798 -1.3947,-0.71971 -2.56201,-0.71973 l -4.98437,0 z"
         style=""
         id="path3126" />
      <path
         d="m 517.07727,862.92371 0,-13.88965 -5.18848,0 0,-1.8584 12.48243,0 0,1.8584 -5.20997,0 0,13.88965 z"
         style=""
         id="path3128" />
    </g>
    <g
       style="font-size:22px;font-style:normal;font-variant:normal;font-weight:normal;font-stretch:normal;line-height:125%;letter-spacing:0px;word-spacing:0px;fill:#000000;fill-opacity:1;stroke:none;font-family:Open Sans;-inkscape-font-specification:Open Sans"
       id="text11876-49">
      <path
         d="m 535.89209,862.86316 0,-15.74805 5.94043,0 c 1.04556,2e-5 1.84407,0.0502 2.39551,0.15039 0.77342,0.12892 1.42154,0.3742 1.94433,0.73584 0.52278,0.36167 0.94351,0.86834 1.26221,1.52002 0.31867,0.65171 0.47801,1.36785 0.47803,2.14844 -2e-5,1.3392 -0.42612,2.4725 -1.27832,3.3999 -0.85223,0.92742 -2.39194,1.39112 -4.61914,1.39112 l -4.03907,0 0,6.40234 z m 2.08398,-8.26074 4.07129,0 c 1.34635,10e-6 2.3024,-0.25065 2.86817,-0.75196 0.56574,-0.50129 0.84862,-1.20669 0.84863,-2.11621 -10e-6,-0.65884 -0.16652,-1.2228 -0.49951,-1.69189 -0.33302,-0.46906 -0.77166,-0.7788 -1.31592,-0.9292 -0.35092,-0.0931 -0.99903,-0.13964 -1.94434,-0.13965 l -4.02832,0 z"
         style=""
         id="path3113" />
      <path
         d="m 548.85791,862.86316 6.04785,-15.74805 2.24512,0 6.44531,15.74805 -2.37402,0 -1.83692,-4.76953 -6.58496,0 -1.72949,4.76953 z m 4.54395,-6.4668 5.33886,0 -1.64355,-4.36133 c -0.50131,-1.32485 -0.87371,-2.41339 -1.11719,-3.26562 -0.20053,1.00978 -0.4834,2.01238 -0.84863,3.00781 z"
         style=""
         id="path3115" />
      <path
         d="m 565.31494,862.86316 0,-15.74805 6.98242,0 c 1.40364,2e-5 2.4707,0.14146 3.20118,0.42432 0.73045,0.28289 1.31411,0.7824 1.75097,1.49853 0.43684,0.71616 0.65526,1.5075 0.65528,2.37403 -2e-5,1.1172 -0.36167,2.05893 -1.08497,2.82519 -0.72332,0.76629 -1.8405,1.25327 -3.35156,1.46094 0.55142,0.26498 0.97037,0.52637 1.25684,0.78418 0.60871,0.5586 1.18521,1.25684 1.72949,2.09473 l 2.73926,4.28613 -2.6211,0 -2.08398,-3.27637 c -0.60873,-0.94531 -1.11004,-1.66861 -1.50391,-2.16992 -0.39389,-0.5013 -0.74659,-0.85221 -1.0581,-1.05273 -0.31153,-0.20052 -0.62843,-0.34017 -0.95069,-0.41895 -0.23633,-0.0501 -0.62305,-0.0752 -1.16015,-0.0752 l -2.41699,0 0,6.99316 z m 2.08399,-8.79785 4.47949,0 c 0.95246,1e-5 1.69725,-0.0985 2.23437,-0.29541 0.5371,-0.19693 0.9453,-0.51204 1.22461,-0.94532 0.27929,-0.43325 0.41894,-0.90412 0.41895,-1.41259 -10e-6,-0.74478 -0.27036,-1.35709 -0.81104,-1.83692 -0.5407,-0.4798 -1.3947,-0.71971 -2.56201,-0.71972 l -4.98437,0 z"
         style=""
         id="path3117" />
      <path
         d="m 585.18799,862.86316 0,-13.88965 -5.18848,0 0,-1.8584 12.48242,0 0,1.8584 -5.20996,0 0,13.88965 z"
         style=""
         id="path3119" />
    </g>
    <g
       style="font-size:22px;font-style:normal;font-variant:normal;font-weight:normal;font-stretch:normal;line-height:125%;letter-spacing:0px;word-spacing:0px;fill:#000000;fill-opacity:1;stroke:none;font-family:Open Sans;-inkscape-font-specification:Open Sans"
       id="text12471">
      <path
         d="m 342.33429,906.5946 0,-1.84765 6.6709,-0.0107 0,5.84375 c -1.02411,0.8164 -2.08042,1.4305 -3.16895,1.84228 -1.08855,0.41179 -2.20574,0.61768 -3.35156,0.61768 -1.54688,0 -2.95232,-0.33122 -4.21631,-0.99366 -1.264,-0.66243 -2.21826,-1.62027 -2.86279,-2.87353 -0.64453,-1.25325 -0.9668,-2.65331 -0.9668,-4.2002 0,-1.53254 0.32048,-2.96304 0.96143,-4.2915 0.64095,-1.32844 1.56298,-2.31493 2.76611,-2.95947 1.20312,-0.64452 2.58886,-0.96678 4.15723,-0.9668 1.13866,2e-5 2.16812,0.18442 3.08838,0.55322 0.92023,0.36883 1.64175,0.88267 2.16455,1.54151 0.52277,0.65886 0.92023,1.51824 1.19238,2.57812 l -1.87988,0.51563 c -0.23634,-0.80207 -0.52996,-1.43228 -0.88086,-1.89063 -0.35093,-0.45832 -0.85223,-0.82534 -1.50391,-1.10107 -0.6517,-0.2757 -1.37501,-0.41356 -2.16992,-0.41358 -0.95248,2e-5 -1.77605,0.14504 -2.4707,0.43506 -0.69467,0.29006 -1.25505,0.6714 -1.68116,1.14405 -0.42611,0.47266 -0.75732,0.99187 -0.99365,1.55761 -0.40104,0.97397 -0.60156,2.03029 -0.60156,3.16895 0,1.40365 0.24169,2.57813 0.7251,3.52344 0.48339,0.94531 1.187,1.64713 2.11084,2.10546 0.92382,0.45834 1.90494,0.68751 2.94336,0.6875 0.90233,10e-6 1.78319,-0.17366 2.64257,-0.52099 0.85937,-0.34733 1.51106,-0.71794 1.95508,-1.11182 l 0,-2.93262 z"
         style=""
         id="path3165" />
      <path
         d="m 356.56769,912.77136 -6.10156,-15.74804 2.25585,0 4.09278,11.44043 c 0.32942,0.91667 0.60513,1.77604 0.82715,2.57812 0.24348,-0.85937 0.52636,-1.71875 0.84863,-2.57812 l 4.25391,-11.44043 2.12695,0 -6.16602,15.74804 z"
         style=""
         id="path3167" />
      <path
         d="m 379.36261,912.77136 -1.93359,0 0,-12.32129 c -0.4655,0.44403 -1.07602,0.88804 -1.83155,1.33203 -0.75553,0.44403 -1.43408,0.77703 -2.03564,0.99903 l 0,-1.86914 c 1.08138,-0.50845 2.02669,-1.12434 2.83594,-1.84766 0.80923,-0.72329 1.38215,-1.42511 1.71875,-2.10547 l 1.24609,0 z"
         style=""
         id="path3169" />
    </g>
    <g
       style="font-size:22px;font-style:normal;font-variant:normal;font-weight:normal;font-stretch:normal;line-height:125%;letter-spacing:0px;word-spacing:0px;fill:#000000;fill-opacity:1;stroke:none;font-family:Open Sans;-inkscape-font-specification:Open Sans"
       id="text12475">
      <path
         d="m 512.51108,906.86707 0,-1.84766 6.6709,-0.0107 0,5.84375 c -1.02411,0.8164 -2.08042,1.4305 -3.16895,1.84228 -1.08855,0.41179 -2.20574,0.61768 -3.35156,0.61768 -1.54688,0 -2.95232,-0.33122 -4.21631,-0.99365 -1.264,-0.66244 -2.21826,-1.62028 -2.86279,-2.87354 -0.64454,-1.25325 -0.9668,-2.65331 -0.9668,-4.20019 0,-1.53255 0.32047,-2.96305 0.96143,-4.29151 0.64094,-1.32844 1.56298,-2.31493 2.76611,-2.95947 1.20312,-0.64452 2.58886,-0.96678 4.15723,-0.9668 1.13866,2e-5 2.16812,0.18443 3.08837,0.55322 0.92024,0.36883 1.64176,0.88267 2.16456,1.54151 0.52277,0.65887 0.92023,1.51824 1.19238,2.57812 l -1.87988,0.51563 c -0.23635,-0.80207 -0.52997,-1.43228 -0.88086,-1.89063 -0.35093,-0.45832 -0.85223,-0.82534 -1.50391,-1.10107 -0.6517,-0.2757 -1.37501,-0.41356 -2.16992,-0.41358 -0.95248,2e-5 -1.77605,0.14504 -2.47071,0.43506 -0.69466,0.29006 -1.25505,0.6714 -1.68115,1.14405 -0.42611,0.47266 -0.75733,0.99187 -0.99365,1.55761 -0.40105,0.97397 -0.60157,2.03029 -0.60156,3.16895 -10e-6,1.40365 0.24169,2.57813 0.7251,3.52344 0.48339,0.94531 1.187,1.64713 2.11084,2.10547 0.92382,0.45833 1.90493,0.6875 2.94335,0.6875 0.90234,0 1.7832,-0.17367 2.64258,-0.521 0.85936,-0.34733 1.51106,-0.71793 1.95508,-1.11182 l 0,-2.93261 z"
         style=""
         id="path3158" />
      <path
         d="m 526.74448,913.04382 -6.10157,-15.74804 2.25586,0 4.09278,11.44043 c 0.32942,0.91667 0.60513,1.77604 0.82715,2.57812 0.24348,-0.85937 0.52635,-1.71875 0.84863,-2.57812 l 4.2539,-11.44043 2.12696,0 -6.16602,15.74804 z"
         style=""
         id="path3160" />
      <path
         d="m 552.4183,911.18542 0,1.8584 -10.40918,0 c -0.0143,-0.46549 0.0609,-0.91308 0.22559,-1.34277 0.26497,-0.70898 0.68929,-1.40722 1.27295,-2.09473 0.58366,-0.68749 1.42692,-1.48241 2.52979,-2.38476 1.71158,-1.40364 2.86815,-2.51546 3.46972,-3.33545 0.60156,-0.81998 0.90234,-1.59521 0.90235,-2.32569 -1e-5,-0.76626 -0.27394,-1.41258 -0.82178,-1.93896 -0.54786,-0.52635 -1.26222,-0.78954 -2.14307,-0.78955 -0.93099,10e-6 -1.67578,0.27931 -2.23437,0.83789 -0.5586,0.55861 -0.84148,1.33204 -0.84864,2.32031 l -1.9873,-0.2041 c 0.13607,-1.48241 0.64811,-2.61213 1.53613,-3.38916 0.88802,-0.777 2.0804,-1.16551 3.57715,-1.16553 1.51106,2e-5 2.70702,0.41896 3.58789,1.25684 0.88085,0.8379 1.32128,1.87631 1.32129,3.11523 -1e-5,0.63022 -0.12892,1.24969 -0.38672,1.8584 -0.25782,0.60873 -0.68572,1.24968 -1.28369,1.92285 -0.59799,0.67319 -1.59164,1.59701 -2.98096,2.77149 -1.16016,0.97396 -1.90495,1.6346 -2.23437,1.98193 -0.32943,0.34733 -0.60157,0.69646 -0.81641,1.04736 z"
         style=""
         id="path3162" />
    </g>
    <g
       style="font-size:22px;font-style:normal;font-variant:normal;font-weight:normal;font-stretch:normal;line-height:125%;letter-spacing:0px;word-spacing:0px;fill:#000000;fill-opacity:1;stroke:none;font-family:Open Sans;-inkscape-font-specification:Open Sans"
       id="text12479">
      <path
         d="m 288.69284,963.0741 -6.10156,-15.74805 2.25586,0 4.09277,11.44043 c 0.32942,0.91667 0.60514,1.77604 0.82715,2.57812 0.24348,-0.85937 0.52636,-1.71874 0.84863,-2.57812 l 4.25391,-11.44043 2.12695,0 -6.16601,15.74805 z"
         style=""
         id="path3193" />
      <path
         d="m 298.80124,963.0741 0,-15.74805 2.08398,0 0,13.88965 7.75586,0 0,1.8584 z"
         style=""
         id="path3195" />
      <path
         d="m 323.73386,963.0741 -1.9336,0 0,-12.32129 c -0.4655,0.44402 -1.07601,0.88803 -1.83154,1.33203 -0.75554,0.44402 -1.43409,0.77703 -2.03565,0.99902 l 0,-1.86914 c 1.08138,-0.50845 2.02669,-1.12433 2.83594,-1.84765 0.80924,-0.7233 1.38216,-1.42512 1.71875,-2.10547 l 1.2461,0 z"
         style=""
         id="path3197" />
    </g>
    <g
       style="font-size:22px;font-style:normal;font-variant:normal;font-weight:normal;font-stretch:normal;line-height:125%;letter-spacing:0px;word-spacing:0px;fill:#000000;fill-opacity:1;stroke:none;font-family:Open Sans;-inkscape-font-specification:Open Sans"
       id="text12483">
      <path
         d="m 392.64832,963.12488 -6.10157,-15.74805 2.25586,0 4.09278,11.44043 c 0.32942,0.91667 0.60513,1.77604 0.82714,2.57813 0.24349,-0.85938 0.52636,-1.71875 0.84864,-2.57813 l 4.2539,-11.44043 2.12696,0 -6.16602,15.74805 z"
         style=""
         id="path3186" />
      <path
         d="m 402.75671,963.12488 0,-15.74805 2.08399,0 0,13.88965 7.75586,0 0,1.8584 z"
         style=""
         id="path3188" />
      <path
         d="m 430.56824,961.26648 0,1.8584 -10.40918,0 c -0.0143,-0.4655 0.0609,-0.91309 0.22558,-1.34278 0.26498,-0.70898 0.68929,-1.40722 1.27295,-2.09472 0.58366,-0.6875 1.42692,-1.48242 2.52979,-2.38477 1.71158,-1.40364 2.86815,-2.51545 3.46972,-3.33545 0.60156,-0.81997 0.90234,-1.5952 0.90235,-2.32568 -1e-5,-0.76626 -0.27394,-1.41259 -0.82178,-1.93897 -0.54786,-0.52635 -1.26221,-0.78953 -2.14307,-0.78955 -0.93099,2e-5 -1.67578,0.27931 -2.23437,0.83789 -0.5586,0.55861 -0.84147,1.33205 -0.84863,2.32032 l -1.98731,-0.2041 c 0.13607,-1.48241 0.64811,-2.61213 1.53613,-3.38916 0.88802,-0.77701 2.0804,-1.16552 3.57715,-1.16553 1.51106,1e-5 2.70703,0.41896 3.58789,1.25683 0.88085,0.83791 1.32128,1.87632 1.32129,3.11524 -10e-6,0.63022 -0.12891,1.24968 -0.38672,1.8584 -0.25782,0.60873 -0.68572,1.24968 -1.28369,1.92285 -0.59799,0.67318 -1.59164,1.59701 -2.98095,2.77148 -1.16017,0.97396 -1.90496,1.63461 -2.23438,1.98194 -0.32943,0.34733 -0.60157,0.69645 -0.81641,1.04736 z"
         style=""
         id="path3190" />
    </g>
    <g
       style="font-size:22px;font-style:normal;font-variant:normal;font-weight:normal;font-stretch:normal;line-height:125%;letter-spacing:0px;word-spacing:0px;fill:#000000;fill-opacity:1;stroke:none;font-family:Open Sans;-inkscape-font-specification:Open Sans"
       id="text12487">
      <path
         d="m 478.57678,963.00867 -6.10156,-15.74805 2.25586,0 4.09277,11.44043 c 0.32942,0.91667 0.60514,1.77604 0.82715,2.57812 0.24348,-0.85937 0.52636,-1.71874 0.84863,-2.57812 l 4.25391,-11.44043 2.12695,0 -6.16601,15.74805 z"
         style=""
         id="path3179" />
      <path
         d="m 488.68518,963.00867 0,-15.74805 2.08399,0 0,13.88965 7.75585,0 0,1.8584 z"
         style=""
         id="path3181" />
      <path
         d="m 506.34534,958.85144 1.93359,-0.25781 c 0.222,1.0957 0.59977,1.88525 1.1333,2.36865 0.53353,0.4834 1.18343,0.7251 1.94971,0.7251 0.9095,0 1.67756,-0.3151 2.3042,-0.94531 0.62662,-0.63021 0.93993,-1.41081 0.93994,-2.3418 -10e-6,-0.88802 -0.29005,-1.62028 -0.87012,-2.19678 -0.58008,-0.57649 -1.31771,-0.86474 -2.21289,-0.86474 -0.36524,0 -0.81999,0.0716 -1.36426,0.21484 l 0.21485,-1.69727 c 0.1289,0.0143 0.23274,0.0215 0.31152,0.0215 0.82356,1e-5 1.56477,-0.21484 2.22363,-0.64453 0.65885,-0.42968 0.98828,-1.09212 0.98828,-1.98731 0,-0.70897 -0.23991,-1.29621 -0.71972,-1.76172 -0.47983,-0.46548 -1.09929,-0.69823 -1.8584,-0.69824 -0.75196,10e-6 -1.37859,0.23634 -1.87988,0.70899 -0.50131,0.47266 -0.82357,1.18165 -0.9668,2.12695 l -1.93359,-0.34375 c 0.23632,-1.29621 0.77343,-2.30061 1.61132,-3.01319 0.83789,-0.71254 1.87988,-1.06883 3.12598,-1.06884 0.85937,10e-6 1.65071,0.18442 2.37402,0.55322 0.7233,0.36883 1.27652,0.87192 1.65967,1.50928 0.38313,0.63738 0.5747,1.31414 0.57471,2.03027 -10e-6,0.68035 -0.18263,1.29982 -0.54785,1.8584 -0.36525,0.5586 -0.90594,1.00261 -1.62207,1.33203 0.93098,0.21485 1.65428,0.66065 2.16992,1.3374 0.51561,0.67677 0.77343,1.52361 0.77344,2.54053 -10e-6,1.375 -0.50132,2.54053 -1.50391,3.49658 -1.00261,0.95606 -2.27019,1.43408 -3.80273,1.43408 -1.38217,0 -2.52979,-0.41178 -3.44287,-1.23535 -0.91309,-0.82356 -1.43409,-1.89062 -1.56299,-3.20117 z"
         style=""
         id="path3183" />
    </g>
    <g
       style="font-size:22px;font-style:normal;font-variant:normal;font-weight:normal;font-stretch:normal;line-height:125%;letter-spacing:0px;word-spacing:0px;fill:#000000;fill-opacity:1;stroke:none;font-family:Open Sans;-inkscape-font-specification:Open Sans"
       id="text12491">
      <path
         d="m 543.84473,962.86218 -6.10157,-15.74804 2.25586,0 4.09278,11.44043 c 0.32942,0.91667 0.60513,1.77604 0.82715,2.57812 0.24348,-0.85937 0.52635,-1.71875 0.84863,-2.57812 l 4.2539,-11.44043 2.12696,0 -6.16602,15.74804 z"
         style=""
         id="path3172" />
      <path
         d="m 553.95312,962.86218 0,-15.74804 2.08399,0 0,13.88964 7.75586,0 0,1.8584 z"
         style=""
         id="path3174" />
      <path
         d="m 577.80078,962.86218 0,-3.77051 -6.83203,0 0,-1.77246 7.18652,-10.20507 1.5791,0 0,10.20507 2.12696,0 0,1.77246 -2.12696,0 0,3.77051 z m 0,-5.54297 0,-7.10058 -4.93066,7.10058 z"
         style=""
         id="path3176" />
    </g>
  </g>
</svg>
