<?xml version="1.0" encoding="UTF-8" standalone="no"?>
<svg
   xmlns:dc="http://purl.org/dc/elements/1.1/"
   xmlns:cc="http://creativecommons.org/ns#"
   xmlns:rdf="http://www.w3.org/1999/02/22-rdf-syntax-ns#"
   xmlns:svg="http://www.w3.org/2000/svg"
   xmlns="http://www.w3.org/2000/svg"
   xmlns:xlink="http://www.w3.org/1999/xlink"
   xmlns:sodipodi="http://sodipodi.sourceforge.net/DTD/sodipodi-0.dtd"
   xmlns:inkscape="http://www.inkscape.org/namespaces/inkscape"
   width="1087"
   height="395"
   version="1.1"
   id="svg2"
   inkscape:version="0.48.1 "
   sodipodi:docname="new-maintenance-model.svg">
  <metadata
     id="metadata141">
    <rdf:RDF>
      <cc:Work
         rdf:about="">
        <dc:format>image/svg+xml</dc:format>
        <dc:type
           rdf:resource="http://purl.org/dc/dcmitype/StillImage" />
      </cc:Work>
    </rdf:RDF>
  </metadata>
  <sodipodi:namedview
     pagecolor="#ffffff"
     bordercolor="#666666"
     borderopacity="1"
     objecttolerance="10"
     gridtolerance="10"
     guidetolerance="10"
     inkscape:pageopacity="0"
     inkscape:pageshadow="2"
     inkscape:window-width="1920"
     inkscape:window-height="1033"
     id="namedview139"
     showgrid="false"
     inkscape:zoom="1.2432572"
     inkscape:cx="543.5"
     inkscape:cy="197.5"
     inkscape:window-x="-4"
     inkscape:window-y="-4"
     inkscape:window-maximized="1"
     inkscape:current-layer="svg2" />
  <defs
     id="defs86">
    <linearGradient
       id="linearGradient5393">
      <stop
         style="stop-color:#ffffff;stop-"
         offset="0"
         id="stop5395" />
      <stop
         style="stop-color:#ffffff;stop-opacity:0;"
         offset="1"
         id="stop5397" />
    </linearGradient>
    <linearGradient
       xlink:href="#linearGradient5393"
       id="linearGradient5399"
       x1="1109.5564"
       y1="41.785362"
       x2="967.62579"
       y2="41.785362"
       gradientUnits="userSpaceOnUse" />
  </defs>
  <rect
     ry="3"
     rx="3"
     y="357"
     x="1"
     height="28"
     width="1037.5"
     style="fill:#71d6e0"
     id="rect9" />
  <path
     d="M 1086,371 1036,357 l 0,28 50,-14 z"
     style="fill:#71d6e0;"
     id="path11" />
  <g
     style="font-size:18.75px;font-weight:600;fill:#5f5f5f;font-family:Open Sans"
     id="text13">
    <path
       d="m 499.30029,366.47729 c -1.06812,2e-5 -1.89514,0.40132 -2.48108,1.20392 -0.58594,0.80262 -0.87891,1.92109 -0.8789,3.35541 -1e-5,2.98462 1.11999,4.47693 3.35998,4.47693 0.93994,0 2.07824,-0.23498 3.41492,-0.70496 l 0,2.38037 c -1.09864,0.45777 -2.32545,0.68665 -3.68042,0.68665 -1.94703,0 -3.43628,-0.59051 -4.46777,-1.77155 -1.0315,-1.18102 -1.54725,-2.87627 -1.54724,-5.08575 -1e-5,-1.39159 0.25329,-2.61077 0.75988,-3.65753 0.50659,-1.04674 1.23444,-1.84935 2.18354,-2.40784 0.94909,-0.55846 2.06145,-0.83769 3.33709,-0.83771 1.30004,2e-5 2.60619,0.31435 3.91846,0.943 l -0.91553,2.30713 c -0.5005,-0.23803 -1.00404,-0.44555 -1.51062,-0.62256 -0.5066,-0.17699 -1.00403,-0.26549 -1.49231,-0.26551 z"
       style="font-size:18.75px;font-weight:600;fill:#5f5f5f;font-family:Open Sans"
       id="path3051" />
    <path
       d="m 508.39148,370.24927 0.91553,0 c 0.89721,10e-6 1.55944,-0.14953 1.98669,-0.44861 0.42724,-0.29906 0.64086,-0.76904 0.64087,-1.40991 -1e-5,-0.63476 -0.21821,-1.08642 -0.6546,-1.35498 -0.43641,-0.26855 -1.11237,-0.40282 -2.02789,-0.40284 l -0.8606,0 z m 0,2.30713 0,5.1361 -2.83814,0 0,-13.385 3.90015,0 c 1.81884,10e-6 3.16467,0.33112 4.03748,0.99334 0.87279,0.66225 1.30919,1.6678 1.3092,3.01666 -10e-6,0.78737 -0.21668,1.48774 -0.65002,2.10114 -0.43336,0.61341 -1.04677,1.09406 -1.84021,1.44196 2.01415,3.00903 3.3264,4.953 3.93676,5.8319 l -3.14941,0 -3.19519,-5.1361 z"
       style="font-size:18.75px;font-weight:600;fill:#5f5f5f;font-family:Open Sans"
       id="path3053" />
    <path
       d="m 530.08032,370.98169 c -10e-6,2.21558 -0.54933,3.91846 -1.64795,5.10864 -1.09864,1.19019 -2.67335,1.78528 -4.72412,1.78528 -2.05078,0 -3.62549,-0.59509 -4.72412,-1.78528 -1.09863,-1.19018 -1.64795,-2.89916 -1.64795,-5.12695 0,-2.22778 0.55084,-3.92913 1.65253,-5.10407 1.10168,-1.17491 2.68096,-1.76237 4.73785,-1.76239 2.05688,2e-5 3.63006,0.59206 4.71955,1.77613 1.08946,1.18409 1.6342,2.88697 1.63421,5.10864 z m -9.76867,0 c -10e-6,1.49537 0.2838,2.62146 0.85144,3.3783 0.56762,0.75683 1.41601,1.13525 2.54516,1.13525 2.2644,0 3.3966,-1.50451 3.39661,-4.51355 -10e-6,-3.01513 -1.12611,-4.52269 -3.3783,-4.52271 -1.12915,2e-5 -1.98059,0.37996 -2.55432,1.13984 -0.57373,0.75989 -0.8606,1.88752 -0.86059,3.38287 z"
       style="font-size:18.75px;font-weight:600;fill:#5f5f5f;font-family:Open Sans"
       id="path3055" />
    <path
       d="m 544.74707,377.6925 -3.60718,0 -5.82275,-10.12573 -0.0824,0 c 0.11596,1.78834 0.17395,3.06397 0.17395,3.82691 l 0,6.29882 -2.53601,0 0,-13.385 3.57971,0 5.8136,10.02502 0.0641,0 c -0.0916,-1.7395 -0.13734,-2.96935 -0.13733,-3.68958 l 0,-6.33544 2.55432,0 z"
       style="font-size:18.75px;font-weight:600;fill:#5f5f5f;font-family:Open Sans"
       id="path3057" />
    <path
       d="m 560.2561,370.98169 c -10e-6,2.21558 -0.54933,3.91846 -1.64795,5.10864 -1.09864,1.19019 -2.67335,1.78528 -4.72412,1.78528 -2.05078,0 -3.62549,-0.59509 -4.72412,-1.78528 -1.09863,-1.19018 -1.64795,-2.89916 -1.64795,-5.12695 0,-2.22778 0.55084,-3.92913 1.65253,-5.10407 1.10168,-1.17491 2.68096,-1.76237 4.73785,-1.76239 2.05688,2e-5 3.63006,0.59206 4.71955,1.77613 1.08946,1.18409 1.6342,2.88697 1.63421,5.10864 z m -9.76867,0 c -10e-6,1.49537 0.28381,2.62146 0.85144,3.3783 0.56762,0.75683 1.41601,1.13525 2.54516,1.13525 2.2644,0 3.3966,-1.50451 3.39661,-4.51355 -10e-6,-3.01513 -1.12611,-4.52269 -3.3783,-4.52271 -1.12915,2e-5 -1.98059,0.37996 -2.55432,1.13984 -0.57373,0.75989 -0.8606,1.88752 -0.86059,3.38287 z"
       style="font-size:18.75px;font-weight:600;fill:#5f5f5f;font-family:Open Sans"
       id="path3059" />
    <path
       d="m 568.12964,370.17603 5.31006,0 0,6.93969 c -0.86061,0.28076 -1.67085,0.4776 -2.43073,0.59052 -0.75989,0.11291 -1.53657,0.16937 -2.33001,0.16937 -2.02027,0 -3.56294,-0.59357 -4.628,-1.7807 -1.06506,-1.18713 -1.59759,-2.89154 -1.59759,-5.11322 0,-2.16064 0.61798,-3.8452 1.85394,-5.05371 1.23596,-1.20848 2.94952,-1.81273 5.14069,-1.81275 1.37328,2e-5 2.69774,0.27468 3.97339,0.82398 l -0.943,2.27051 c -0.97657,-0.48827 -1.9928,-0.73241 -3.0487,-0.73243 -1.22682,2e-5 -2.20948,0.412 -2.948,1.23597 -0.73853,0.82398 -1.10779,1.93177 -1.10779,3.32336 0,1.45264 0.29754,2.56196 0.89264,3.32794 0.59509,0.766 1.46026,1.14899 2.59552,1.14899 0.59203,0 1.19323,-0.061 1.80359,-0.18311 l 0,-2.79235 -2.53601,0 z"
       style="font-size:18.75px;font-weight:600;fill:#5f5f5f;font-family:Open Sans"
       id="path3061" />
    <path
       d="m 579.47302,370.24927 0.91553,0 c 0.89721,10e-6 1.55944,-0.14953 1.98669,-0.44861 0.42724,-0.29906 0.64087,-0.76904 0.64087,-1.40991 0,-0.63476 -0.21821,-1.08642 -0.6546,-1.35498 -0.43641,-0.26855 -1.11237,-0.40282 -2.02789,-0.40284 l -0.8606,0 z m 0,2.30713 0,5.1361 -2.83813,0 0,-13.385 3.90014,0 c 1.81884,10e-6 3.16467,0.33112 4.03748,0.99334 0.87279,0.66225 1.30919,1.6678 1.3092,3.01666 -10e-6,0.78737 -0.21668,1.48774 -0.65002,2.10114 -0.43336,0.61341 -1.04676,1.09406 -1.84021,1.44196 2.01415,3.00903 3.3264,4.953 3.93677,5.8319 l -3.14942,0 -3.19519,-5.1361 z"
       style="font-size:18.75px;font-weight:600;fill:#5f5f5f;font-family:Open Sans"
       id="path3063" />
    <path
       d="m 597.20679,377.6925 -0.97046,-3.18603 -4.87976,0 -0.97046,3.18603 -3.05786,0 4.72412,-13.43994 3.46985,0 4.74243,13.43994 z m -1.64795,-5.5664 c -0.89723,-2.88696 -1.40229,-4.51964 -1.5152,-4.89807 -0.11292,-0.37841 -0.19379,-0.67748 -0.24261,-0.89722 -0.20143,0.78126 -0.77821,2.71302 -1.73035,5.79529 z"
       style="font-size:18.75px;font-weight:600;fill:#5f5f5f;font-family:Open Sans"
       id="path3065" />
    <path
       d="m 607.60718,377.6925 -3.22266,-10.50109 -0.0824,0 c 0.11597,2.13624 0.17395,3.5614 0.17395,4.27551 l 0,6.22558 -2.53601,0 0,-13.385 3.86353,0 3.16772,10.23559 0.0549,0 3.35998,-10.23559 3.86353,0 0,13.385 -2.64588,0 0,-6.33544 c -10e-6,-0.29907 0.005,-0.64392 0.0137,-1.03455 0.009,-0.39062 0.0503,-1.42821 0.1236,-3.11279 l -0.0824,0 -3.45153,10.48278 z"
       style="font-size:18.75px;font-weight:600;fill:#5f5f5f;font-family:Open Sans"
       id="path3067" />
    <path
       d="m 627.82202,377.6925 -0.97046,-3.18603 -4.87976,0 -0.97046,3.18603 -3.05786,0 4.72412,-13.43994 3.46985,0 4.74243,13.43994 z m -1.64795,-5.5664 c -0.89722,-2.88696 -1.40229,-4.51964 -1.5152,-4.89807 -0.11292,-0.37841 -0.19379,-0.67748 -0.24261,-0.89722 -0.20142,0.78126 -0.7782,2.71302 -1.73035,5.79529 z"
       style="font-size:18.75px;font-weight:600;fill:#5f5f5f;font-family:Open Sans"
       id="path3069" />
  </g>
  <rect
     ry="5"
     rx="5"
     y="169"
     x="1"
     height="166"
     width="968"
     style="fill:#ededed;"
     id="rect15" />
  <rect
     style="fill:#02d35f"
     width="190"
     height="26"
     x="425"
     y="213"
     id="rect17" />
  <rect
     style="fill:#02d35f"
     width="190"
     height="26"
     x="155"
     y="265"
     id="rect19" />
  <g
     style="font-size:18.75px;font-weight:600;fill:#00c081;font-family:Open Sans"
     id="text21">
    <path
       d="m 26.670044,203.12851 c -10e-6,1.2085 -0.434885,2.16065 -1.304627,2.85644 -0.869758,0.69581 -2.079779,1.04371 -3.630065,1.04371 -1.428226,0 -2.691653,-0.26856 -3.790284,-0.80567 l 0,-2.63672 c 0.903319,0.40284 1.667783,0.68665 2.293396,0.85144 0.625607,0.1648 1.197811,0.2472 1.716614,0.2472 0.622553,0 1.100153,-0.11902 1.4328,-0.35706 0.332635,-0.23803 0.498956,-0.59204 0.498963,-1.06201 -7e-6,-0.26245 -0.07325,-0.49591 -0.219727,-0.70038 -0.146491,-0.20446 -0.361639,-0.4013 -0.645447,-0.59051 -0.283819,-0.18921 -0.862126,-0.49133 -1.734924,-0.90638 -0.817874,-0.38451 -1.431277,-0.75377 -1.84021,-1.10779 -0.408937,-0.35399 -0.735475,-0.76598 -0.979614,-1.23596 -0.244142,-0.46996 -0.366212,-1.01927 -0.366211,-1.64795 -1e-6,-1.18407 0.401305,-2.11485 1.203918,-2.79235 0.80261,-0.67748 1.911923,-1.01623 3.327942,-1.01624 0.695795,1e-5 1.359552,0.0824 1.991272,0.24719 0.631706,0.16481 1.292411,0.39674 1.982117,0.6958 l -0.915527,2.20642 c -0.71412,-0.29295 -1.304634,-0.49742 -1.771546,-0.6134 -0.466925,-0.11595 -0.926214,-0.17394 -1.377868,-0.17395 -0.537115,1e-5 -0.949102,0.12513 -1.235962,0.37537 -0.286869,0.25025 -0.430302,0.57679 -0.430298,0.97961 -4e-6,0.25025 0.05798,0.46846 0.17395,0.6546 0.115963,0.18617 0.300594,0.36622 0.553894,0.54016 0.253291,0.17396 0.852961,0.48677 1.799011,0.93842 1.251213,0.59815 2.108757,1.19782 2.572632,1.79901 0.463858,0.6012 0.695791,1.3382 0.695801,2.211 z"
       style="font-size:18.75px;font-weight:600;fill:#00c081;font-family:Open Sans"
       id="path3126" />
    <path
       d="m 29.096191,206.84555 0,-13.38501 2.838135,0 0,11.04126 5.429077,0 0,2.34375 z"
       style="font-size:18.75px;font-weight:600;fill:#00c081;font-family:Open Sans"
       id="path3128" />
    <path
       d="m 47.388428,206.84555 -7.708741,0 0,-13.38501 7.708741,0 0,2.32544 -4.870606,0 0,2.93884 4.531861,0 0,2.32544 -4.531861,0 0,3.45154 4.870606,0 z"
       style="font-size:18.75px;font-weight:600;fill:#00c081;font-family:Open Sans"
       id="path3130" />
    <path
       d="m 58.090942,203.12851 c -9e-6,1.2085 -0.434884,2.16065 -1.304626,2.85644 -0.869758,0.69581 -2.079779,1.04371 -3.630066,1.04371 -1.428226,0 -2.691652,-0.26856 -3.790283,-0.80567 l 0,-2.63672 c 0.903318,0.40284 1.667783,0.68665 2.293396,0.85144 0.625606,0.1648 1.19781,0.2472 1.716614,0.2472 0.622553,0 1.100152,-0.11902 1.4328,-0.35706 0.332635,-0.23803 0.498955,-0.59204 0.498962,-1.06201 -7e-6,-0.26245 -0.07325,-0.49591 -0.219726,-0.70038 -0.146491,-0.20446 -0.36164,-0.4013 -0.645447,-0.59051 -0.283819,-0.18921 -0.862127,-0.49133 -1.734924,-0.90638 -0.817875,-0.38451 -1.431278,-0.75377 -1.84021,-1.10779 -0.408938,-0.35399 -0.735476,-0.76598 -0.979615,-1.23596 -0.244141,-0.46996 -0.366212,-1.01927 -0.366211,-1.64795 -10e-7,-1.18407 0.401305,-2.11485 1.203919,-2.79235 0.802609,-0.67748 1.911922,-1.01623 3.327942,-1.01624 0.695794,1e-5 1.359551,0.0824 1.991272,0.24719 0.631705,0.16481 1.29241,0.39674 1.982116,0.6958 l -0.915527,2.20642 c -0.714119,-0.29295 -1.304634,-0.49742 -1.771545,-0.6134 -0.466926,-0.11595 -0.926215,-0.17394 -1.377869,-0.17395 -0.537114,1e-5 -0.949101,0.12513 -1.235962,0.37537 -0.286869,0.25025 -0.430301,0.57679 -0.430298,0.97961 -3e-6,0.25025 0.05798,0.46846 0.17395,0.6546 0.115963,0.18617 0.300594,0.36622 0.553895,0.54016 0.253291,0.17396 0.85296,0.48677 1.799011,0.93842 1.251213,0.59815 2.108756,1.19782 2.572632,1.79901 0.463857,0.6012 0.695791,1.3382 0.6958,2.211 z"
       style="font-size:18.75px;font-weight:600;fill:#00c081;font-family:Open Sans"
       id="path3132" />
    <path
       d="m 71.448486,206.84555 -2.828979,0 0,-7.74536 0.02747,-1.27258 0.04578,-1.39161 c -0.469975,0.46999 -0.796513,0.77821 -0.979614,0.92469 l -1.538086,1.23596 -1.364136,-1.70288 4.312134,-3.43323 2.325439,0 z"
       style="font-size:18.75px;font-weight:600;fill:#00c081;font-family:Open Sans"
       id="path3134" />
    <path
       d="m 82.141846,206.84555 -2.82898,0 0,-7.74536 0.02747,-1.27258 0.04578,-1.39161 c -0.469975,0.46999 -0.796513,0.77821 -0.979614,0.92469 l -1.538086,1.23596 -1.364136,-1.70288 4.312134,-3.43323 2.32544,0 z"
       style="font-size:18.75px;font-weight:600;fill:#00c081;font-family:Open Sans"
       id="path3136" />
  </g>
  <rect
     style="fill:#02d35f"
     width="190"
     height="26"
     x="20"
     y="291"
     id="rect23" />
  <rect
     style="opacity:0.5;fill:#92ecba"
     width="55"
     height="52"
     x="155"
     y="265"
     id="rect25" />
  <rect
     style="fill:#02d35f"
     width="190"
     height="26"
     x="290"
     y="239"
     id="rect27" />
  <rect
     style="opacity:0.5;fill:#92ecba"
     width="55"
     height="52"
     x="290"
     y="239"
     id="rect29" />
  <rect
     style="opacity:0.5;fill:#92ecba"
     width="55"
     height="52"
     x="425"
     y="213"
     id="rect31" />
  <rect
     style="fill:#02d35f"
     width="230"
     height="26"
     x="560"
     y="187"
     id="rect33" />
  <rect
     style="opacity:0.5;fill:#92ecba"
     width="55"
     height="52"
     x="560"
     y="187"
     id="rect35" />
  <rect
     y="211"
     x="560"
     height="2"
     width="230"
     style="fill:#a7a9ac;fill-opacity:0.58823529"
     id="rect37" />
  <rect
     y="289"
     x="155"
     height="2"
     width="190"
     style="fill:#a7a9ac;fill-opacity:0.58823529"
     id="rect39" />
  <rect
     y="315"
     x="20"
     height="2"
     width="190"
     style="fill:#a7a9ac;fill-opacity:0.58823529"
     id="rect41" />
  <rect
     y="263"
     x="290"
     height="2"
     width="190"
     style="fill:#a7a9ac;fill-opacity:0.58823529"
     id="rect43" />
  <rect
     y="237"
     x="425"
     height="2"
     width="190"
     style="fill:#a7a9ac;fill-opacity:0.58823529"
     id="rect45" />
  <rect
     ry="5"
     rx="5"
     y="11"
     x="510"
     height="166"
     width="574"
     style="fill:#dcddde;"
     id="rect47" />
  <rect
     style="fill:#02d35f"
     width="150"
     height="26"
     x="934"
     y="55"
     id="rect49" />
  <rect
     style="fill:#02d35f"
     width="190"
     height="26"
     x="664"
     y="107"
     id="rect51" />
  <g
     style="font-size:18.75px;font-weight:600;fill:#00c081;font-family:Open Sans"
     id="text53">
    <path
       d="m 535.67004,45.01115 c -10e-6,1.208499 -0.43488,2.160646 -1.30462,2.856446 -0.86976,0.695801 -2.07978,1.043701 -3.63007,1.043701 -1.42822,0 -2.69165,-0.268555 -3.79028,-0.805664 l 0,-2.636719 c 0.90332,0.402835 1.66778,0.686648 2.29339,0.85144 0.62561,0.164798 1.19781,0.247195 1.71662,0.247193 0.62255,2e-6 1.10015,-0.119016 1.4328,-0.357056 0.33263,-0.238034 0.49895,-0.592038 0.49896,-1.062012 -10e-6,-0.262447 -0.0733,-0.495906 -0.21973,-0.700378 -0.14649,-0.204463 -0.36164,-0.401301 -0.64544,-0.590515 -0.28382,-0.189204 -0.86213,-0.491328 -1.73493,-0.906372 -0.81787,-0.384515 -1.43127,-0.753778 -1.84021,-1.107788 -0.40893,-0.353997 -0.73547,-0.765984 -0.97961,-1.235962 -0.24414,-0.469962 -0.36621,-1.019278 -0.36621,-1.647949 0,-1.184071 0.4013,-2.114857 1.20392,-2.792359 0.80261,-0.677477 1.91192,-1.016222 3.32794,-1.016235 0.69579,1.3e-5 1.35955,0.08241 1.99127,0.247192 0.63171,0.164808 1.29241,0.396742 1.98212,0.695801 l -0.91553,2.206421 c -0.71412,-0.292958 -1.30463,-0.497426 -1.77155,-0.613403 -0.46692,-0.115956 -0.92621,-0.173939 -1.37786,-0.173951 -0.53712,1.2e-5 -0.94911,0.125134 -1.23597,0.375367 -0.28687,0.250254 -0.4303,0.576792 -0.43029,0.979614 -1e-5,0.250254 0.058,0.468454 0.17395,0.654602 0.11596,0.186166 0.30059,0.36622 0.55389,0.540161 0.25329,0.173959 0.85296,0.486764 1.79901,0.938416 1.25121,0.598151 2.10876,1.197821 2.57263,1.799011 0.46386,0.601201 0.69579,1.3382 0.6958,2.210998 z"
       style="font-size:18.75px;font-weight:600;fill:#00c081;font-family:Open Sans"
       id="path3113" />
    <path
       d="m 538.09619,48.728191 0,-13.385009 2.83814,0 0,11.041259 5.42907,0 0,2.34375 z"
       style="font-size:18.75px;font-weight:600;fill:#00c081;font-family:Open Sans"
       id="path3115" />
    <path
       d="m 556.38843,48.728191 -7.70874,0 0,-13.385009 7.70874,0 0,2.325439 -4.87061,0 0,2.938843 4.53186,0 0,2.325439 -4.53186,0 0,3.451538 4.87061,0 z"
       style="font-size:18.75px;font-weight:600;fill:#00c081;font-family:Open Sans"
       id="path3117" />
    <path
       d="m 567.09094,45.01115 c -1e-5,1.208499 -0.43488,2.160646 -1.30462,2.856446 -0.86976,0.695801 -2.07978,1.043701 -3.63007,1.043701 -1.42823,0 -2.69165,-0.268555 -3.79028,-0.805664 l 0,-2.636719 c 0.90332,0.402835 1.66778,0.686648 2.29339,0.85144 0.62561,0.164798 1.19781,0.247195 1.71662,0.247193 0.62255,2e-6 1.10015,-0.119016 1.4328,-0.357056 0.33263,-0.238034 0.49895,-0.592038 0.49896,-1.062012 -10e-6,-0.262447 -0.0732,-0.495906 -0.21973,-0.700378 -0.14649,-0.204463 -0.36164,-0.401301 -0.64544,-0.590515 -0.28382,-0.189204 -0.86213,-0.491328 -1.73493,-0.906372 -0.81787,-0.384515 -1.43128,-0.753778 -1.84021,-1.107788 -0.40894,-0.353997 -0.73547,-0.765984 -0.97961,-1.235962 -0.24414,-0.469962 -0.36621,-1.019278 -0.36621,-1.647949 0,-1.184071 0.4013,-2.114857 1.20391,-2.792359 0.80261,-0.677477 1.91193,-1.016222 3.32795,-1.016235 0.69579,1.3e-5 1.35955,0.08241 1.99127,0.247192 0.6317,0.164808 1.29241,0.396742 1.98212,0.695801 l -0.91553,2.206421 c -0.71412,-0.292958 -1.30464,-0.497426 -1.77155,-0.613403 -0.46692,-0.115956 -0.92621,-0.173939 -1.37787,-0.173951 -0.53711,1.2e-5 -0.9491,0.125134 -1.23596,0.375367 -0.28687,0.250254 -0.4303,0.576792 -0.4303,0.979614 0,0.250254 0.058,0.468454 0.17395,0.654602 0.11597,0.186166 0.3006,0.36622 0.5539,0.540161 0.25329,0.173959 0.85296,0.486764 1.79901,0.938416 1.25121,0.598151 2.10876,1.197821 2.57263,1.799011 0.46386,0.601201 0.69579,1.3382 0.6958,2.210998 z"
       style="font-size:18.75px;font-weight:600;fill:#00c081;font-family:Open Sans"
       id="path3119" />
    <path
       d="m 580.44849,48.728191 -2.82898,0 0,-7.745361 0.0275,-1.272583 0.0458,-1.391602 c -0.46998,0.469981 -0.79651,0.778208 -0.97962,0.924683 l -1.53808,1.235962 -1.36414,-1.702881 4.31214,-3.433227 2.32544,0 z"
       style="font-size:18.75px;font-weight:600;fill:#00c081;font-family:Open Sans"
       id="path3121" />
    <path
       d="m 593.50391,48.728191 -9.35669,0 0,-1.968383 3.35998,-3.396607 c 0.99487,-1.019281 1.64489,-1.725762 1.95008,-2.119446 0.30516,-0.393669 0.52489,-0.758353 0.65918,-1.094055 0.13427,-0.335684 0.2014,-0.683584 0.20141,-1.043701 -10e-6,-0.537099 -0.14802,-0.936879 -0.44403,-1.199341 -0.29603,-0.26244 -0.69123,-0.393665 -1.18561,-0.393677 -0.5188,1.2e-5 -1.02234,0.11903 -1.51062,0.357056 -0.48828,0.238048 -0.99793,0.576793 -1.52893,1.016235 l -1.53808,-1.821899 c 0.65917,-0.561511 1.20544,-0.958239 1.63879,-1.190186 0.43335,-0.23192 0.90637,-0.410448 1.41907,-0.535583 0.51269,-0.125109 1.08642,-0.18767 1.72119,-0.187683 0.83617,1.3e-5 1.5747,0.152601 2.21557,0.457764 0.64087,0.305188 1.1383,0.732434 1.49231,1.281738 0.354,0.549328 0.531,1.177989 0.53101,1.885986 -1e-5,0.616465 -0.10835,1.194772 -0.32501,1.734924 -0.21669,0.540169 -0.55238,1.094063 -1.00708,1.661683 -0.45472,0.567633 -1.25581,1.376348 -2.40326,2.426147 l -1.72119,1.620483 0,0.128174 5.83191,0 z"
       style="font-size:18.75px;font-weight:600;fill:#00c081;font-family:Open Sans"
       id="path3123" />
  </g>
  <rect
     style="fill:#02d35f"
     width="190"
     height="26"
     x="529"
     y="133"
     id="rect55" />
  <rect
     style="opacity:0.5;fill:#92ecba"
     width="55"
     height="52"
     x="664"
     y="107"
     id="rect57" />
  <rect
     style="fill:#02d35f"
     width="190"
     height="26"
     x="799"
     y="81"
     id="rect59" />
  <rect
     style="opacity:0.5;fill:#92ecba"
     width="55"
     height="52"
     x="799"
     y="81"
     id="rect61" />
  <rect
     style="opacity:0.5;fill:#92ecba"
     width="55"
     height="52"
     x="934"
     y="55"
     id="rect63" />
  <rect
     style="opacity:0.5;fill:#92ecba"
     width="15"
     height="52"
     x="1069"
     y="29"
     id="rect65" />
  <rect
     y="131"
     x="664"
     height="2"
     width="190"
     style="fill:#a7a9ac;fill-opacity:0.58823529"
     id="rect67" />
  <rect
     y="157"
     x="529"
     height="2"
     width="190"
     style="fill:#a7a9ac;fill-opacity:0.58823529"
     id="rect69" />
  <rect
     y="105"
     x="799"
     height="2"
     width="190"
     style="fill:#a7a9ac;fill-opacity:0.58823529"
     id="rect71" />
  <rect
     y="79"
     x="934"
     height="2"
     width="150"
     style="fill:#a7a9ac;fill-opacity:0.58823529;"
     id="rect73" />
  <circle
     r="18"
     cy="120"
     cx="676"
     style="fill:#00c081"
     id="circle75" />
  <g
     style="font-size:18.75px;fill:#ffffff;font-family:Open Sans"
     id="text77">
    <path
       d="m 671.34558,123.28641 c -1e-5,1.17798 -0.42725,2.09656 -1.28174,2.75573 -0.8545,0.65918 -2.01416,0.98877 -3.479,0.98877 -1.58692,0 -2.80762,-0.20446 -3.66211,-0.6134 l 0,-1.50146 c 0.54931,0.23193 1.14746,0.41504 1.79443,0.54931 0.64697,0.13428 1.28784,0.20142 1.92261,0.20142 1.03759,0 1.81884,-0.19684 2.34375,-0.59052 0.5249,-0.39367 0.78735,-0.94146 0.78735,-1.64337 0,-0.46386 -0.0931,-0.8438 -0.27923,-1.13983 -0.18617,-0.29602 -0.49745,-0.56915 -0.93384,-0.8194 -0.43641,-0.25024 -1.10016,-0.53405 -1.99127,-0.85144 -1.24512,-0.44555 -2.13471,-0.9735 -2.66876,-1.58386 -0.53406,-0.61034 -0.80109,-1.40685 -0.80109,-2.38953 0,-1.03148 0.38757,-1.8524 1.16272,-2.46276 0.77514,-0.61034 1.80053,-0.91552 3.07617,-0.91553 1.33056,1e-5 2.55431,0.24415 3.67127,0.73242 l -0.48523,1.35498 c -1.10475,-0.46385 -2.17897,-0.69579 -3.22266,-0.6958 -0.82398,1e-5 -1.4679,0.17701 -1.93176,0.53101 -0.46387,0.35401 -0.69581,0.84534 -0.6958,1.47399 -10e-6,0.46388 0.0854,0.84383 0.25634,1.13984 0.1709,0.29603 0.45929,0.56763 0.86518,0.81482 0.40588,0.2472 1.02691,0.52033 1.8631,0.81939 1.4038,0.5005 2.36968,1.03761 2.89764,1.61133 0.52794,0.57374 0.79192,1.31836 0.79193,2.23389 z"
       style="font-size:18.75px;fill:#ffffff;font-family:Open Sans"
       id="path3153" />
    <path
       d="m 682.56995,117.36295 c -10e-6,1.35498 -0.46235,2.39716 -1.38703,3.12652 -0.92469,0.72938 -2.24762,1.09406 -3.96881,1.09406 l -1.57471,0 0,5.26428 -1.55639,0 0,-13.38501 3.46985,0 c 3.34471,1e-5 5.01708,1.30006 5.01709,3.90015 z m -6.93055,2.88391 1.40076,0 c 1.37939,0 2.37731,-0.22277 2.99378,-0.66834 0.61644,-0.44555 0.92467,-1.15966 0.92468,-2.14233 -10e-6,-0.885 -0.28993,-1.54418 -0.86975,-1.97754 -0.57984,-0.43334 -1.48316,-0.65001 -2.70996,-0.65003 l -1.73951,0 z"
       style="letter-spacing:-1px"
       id="path3155" />
    <path
       d="m 689.06812,126.84781 -1.48316,0 0,-9.5398 c 0,-0.79344 0.0244,-1.54417 0.0732,-2.25219 -0.12818,0.12818 -0.27161,0.26246 -0.43029,0.40283 -0.1587,0.14039 -0.88502,0.73548 -2.17896,1.78528 l -0.80566,-1.0437 3.54309,-2.73743 1.28174,0 z"
       style="font-size:18.75px;fill:#ffffff;font-family:Open Sans"
       id="path3157" />
  </g>
  <circle
     r="18"
     cy="94"
     cx="811"
     style="fill:#00c081"
     id="circle81" />
  <g
     style="font-size:18.75px;fill:#ffffff;font-family:Open Sans"
     id="text83">
    <path
       d="m 804.51172,97.267151 c -10e-6,1.177981 -0.42726,2.096559 -1.28174,2.755739 -0.8545,0.65918 -2.01417,0.98877 -3.479,0.98877 -1.58692,0 -2.80762,-0.20447 -3.66211,-0.61341 l 0,-1.50146 c 0.54931,0.231935 1.14746,0.41504 1.79443,0.549316 0.64697,0.134279 1.28784,0.201417 1.92261,0.201416 1.03759,1e-6 1.81884,-0.196837 2.34375,-0.590515 0.52489,-0.393675 0.78734,-0.941465 0.78735,-1.643372 -10e-6,-0.463863 -0.0931,-0.843807 -0.27923,-1.139831 -0.18617,-0.296016 -0.49745,-0.569148 -0.93384,-0.819397 -0.43641,-0.250239 -1.10017,-0.534052 -1.99127,-0.851441 -1.24512,-0.44555 -2.13471,-0.973503 -2.66877,-1.583862 -0.53406,-0.610343 -0.80108,-1.406851 -0.80108,-2.389526 0,-1.031483 0.38757,-1.852405 1.16272,-2.462769 0.77514,-0.610338 1.80053,-0.915514 3.07617,-0.915527 1.33056,1.3e-5 2.55431,0.244154 3.67126,0.732422 l -0.48523,1.35498 c -1.10474,-0.463855 -2.17896,-0.695789 -3.22265,-0.695801 -0.82398,1.2e-5 -1.4679,0.177014 -1.93176,0.531006 -0.46387,0.354015 -0.69581,0.845348 -0.69581,1.473999 0,0.463877 0.0854,0.843821 0.25635,1.139832 0.1709,0.296029 0.45929,0.567635 0.86518,0.814819 0.40587,0.2472 1.02691,0.520332 1.86309,0.819397 1.40381,0.500495 2.36969,1.037604 2.89765,1.611328 0.52794,0.573736 0.79192,1.318364 0.79193,2.233887 z"
       style="font-size:18.75px;fill:#ffffff;font-family:Open Sans"
       id="path3146" />
    <path
       d="m 815.73608,91.343689 c -10e-6,1.354989 -0.46235,2.397163 -1.38702,3.126526 -0.92469,0.729376 -2.24763,1.09406 -3.96881,1.094055 l -1.57471,0 0,5.26428 -1.55639,0 0,-13.385008 3.46984,0 c 3.34472,1.4e-5 5.01708,1.300061 5.01709,3.900147 z m -6.93054,2.883911 1.40076,0 c 1.37939,7e-6 2.37731,-0.222771 2.99377,-0.668335 0.61645,-0.445549 0.92468,-1.159659 0.92469,-2.142334 -1e-5,-0.884999 -0.28993,-1.544178 -0.86976,-1.977539 -0.57984,-0.433338 -1.48316,-0.650012 -2.70996,-0.650024 l -1.7395,0 z"
       style="letter-spacing:-0.5px"
       id="path3148" />
    <path
       d="m 825.90198,100.82855 -8.79822,0 0,-1.309202 3.52478,-3.543091 c 1.07421,-1.08642 1.78222,-1.861565 2.12402,-2.325439 0.34179,-0.46386 0.59814,-0.915519 0.76905,-1.354981 0.17089,-0.439444 0.25634,-0.912466 0.25634,-1.419067 0,-0.714101 -0.21668,-1.280201 -0.65002,-1.698303 -0.43336,-0.418079 -1.03455,-0.627124 -1.80359,-0.627136 -0.55542,1.2e-5 -1.08185,0.09156 -1.57928,0.274658 -0.49744,0.183117 -1.05134,0.515758 -1.66169,0.997925 l -0.80566,-1.034546 c 1.23291,-1.025378 2.57568,-1.538073 4.02832,-1.538086 1.25732,1.3e-5 2.24303,0.321973 2.95715,0.965881 0.71411,0.643933 1.07116,1.509105 1.07117,2.59552 -10e-6,0.848398 -0.23805,1.687631 -0.71411,2.5177 -0.47608,0.830085 -1.3672,1.879889 -2.67334,3.149414 l -2.92969,2.865601 0,0.07324 6.88477,0 z"
       style="font-size:18.75px;fill:#ffffff;font-family:Open Sans"
       id="path3150" />
  </g>
  <circle
     r="18"
     cy="146"
     cx="541"
     style="fill:#02a49c"
     id="circle87" />
  <g
     style="font-size:18.75px;font-weight:600;fill:#ffffff;font-family:Open Sans"
     id="text89">
    <path
       d="m 534.20679,145.35068 5.31006,0 0,6.93969 c -0.86061,0.28077 -1.67085,0.4776 -2.43073,0.59052 -0.7599,0.11291 -1.53657,0.16937 -2.33002,0.16937 -2.02027,0 -3.56293,-0.59356 -4.62799,-1.7807 -1.06506,-1.18713 -1.59759,-2.89153 -1.59759,-5.11322 0,-2.16063 0.61798,-3.8452 1.85394,-5.05371 1.23596,-1.20848 2.94952,-1.81273 5.14069,-1.81274 1.37328,10e-6 2.69774,0.27467 3.97339,0.82397 l -0.943,2.27051 c -0.97657,-0.48827 -1.9928,-0.73241 -3.0487,-0.73242 -1.22682,1e-5 -2.20948,0.412 -2.948,1.23596 -0.73853,0.82398 -1.10779,1.93177 -1.10779,3.32336 0,1.45265 0.29754,2.56196 0.89264,3.32795 0.59509,0.76599 1.46026,1.14898 2.59552,1.14898 0.59203,0 1.19323,-0.061 1.80359,-0.1831 l 0,-2.79236 -2.53601,0 z"
       style="font-size:18.75px;font-weight:600;fill:#ffffff;font-family:Open Sans"
       id="path3167" />
    <path
       d="m 550.90601,152.86716 -0.97046,-3.18604 -4.87976,0 -0.97046,3.18604 -3.05786,0 4.72412,-13.43994 3.46985,0 4.74243,13.43994 z m -1.64795,-5.56641 c -0.89723,-2.88695 -1.40229,-4.51964 -1.5152,-4.89807 -0.11292,-0.37841 -0.19379,-0.67748 -0.24262,-0.89722 -0.20142,0.78126 -0.7782,2.71302 -1.73034,5.79529 z"
       style="font-size:18.75px;font-weight:600;fill:#ffffff;font-family:Open Sans"
       id="path3169" />
  </g>
  <circle
     r="18"
     cy="68"
     cx="946"
     style="fill:#00c081"
     id="circle91" />
  <g
     style="font-size:18.75px;fill:#ffffff;font-family:Open Sans"
     id="text93">
    <path
       d="m 939.5575,71.247787 c -10e-6,1.177981 -0.42726,2.09656 -1.28174,2.755738 -0.8545,0.65918 -2.01417,0.988769 -3.47901,0.988769 -1.58691,0 -2.80762,-0.204467 -3.66211,-0.613403 l 0,-1.501465 c 0.54932,0.231935 1.14746,0.415041 1.79444,0.549317 0.64697,0.134278 1.28783,0.201417 1.9226,0.201416 1.0376,10e-7 1.81885,-0.196837 2.34375,-0.590516 0.5249,-0.393674 0.78735,-0.941464 0.78736,-1.643371 -10e-6,-0.463863 -0.0931,-0.843807 -0.27924,-1.139832 -0.18616,-0.296015 -0.49744,-0.569147 -0.93384,-0.819397 -0.4364,-0.250238 -1.10016,-0.534051 -1.99127,-0.85144 -1.24512,-0.44555 -2.1347,-0.973504 -2.66876,-1.583862 -0.53406,-0.610344 -0.80109,-1.406852 -0.80109,-2.389527 0,-1.031483 0.38758,-1.852405 1.16272,-2.462768 0.77515,-0.610339 1.80054,-0.915514 3.07618,-0.915528 1.33056,1.4e-5 2.55431,0.244154 3.67126,0.732422 l -0.48523,1.354981 c -1.10474,-0.463856 -2.17896,-0.695789 -3.22266,-0.695801 -0.82397,1.2e-5 -1.4679,0.177014 -1.93176,0.531006 -0.46387,0.354015 -0.6958,0.845347 -0.6958,1.473999 0,0.463877 0.0855,0.84382 0.25635,1.139831 0.17089,0.29603 0.45928,0.567636 0.86517,0.81482 0.40588,0.2472 1.02691,0.520332 1.8631,0.819397 1.4038,0.500495 2.36968,1.037604 2.89764,1.611328 0.52795,0.573735 0.79193,1.318364 0.79194,2.233886 z"
       style="font-size:18.75px;fill:#ffffff;font-family:Open Sans"
       id="path3139" />
    <path
       d="m 950.78186,65.324326 c -1e-5,1.354988 -0.46235,2.397162 -1.38702,3.126525 -0.92469,0.729376 -2.24763,1.094061 -3.96881,1.094056 l -1.57471,0 0,5.264282 -1.5564,0 0,-13.38501 3.46985,0 c 3.34472,1.3e-5 5.01708,1.300061 5.01709,3.900147 z m -6.93054,2.883911 1.40076,0 c 1.37938,6e-6 2.37731,-0.222772 2.99377,-0.668335 0.61645,-0.445549 0.92467,-1.15966 0.92468,-2.142334 -10e-6,-0.885 -0.28992,-1.544179 -0.86975,-1.977539 -0.57984,-0.433338 -1.48316,-0.650013 -2.70996,-0.650025 l -1.7395,0 z"
       style="letter-spacing:-0.5px"
       id="path3141" />
    <path
       d="m 960.44421,64.573593 c -10e-6,0.854502 -0.23957,1.553354 -0.71869,2.096558 -0.47913,0.54322 -1.15814,0.906379 -2.03704,1.089477 l 0,0.07324 c 1.07421,0.134285 1.87072,0.476081 2.38952,1.025391 0.51879,0.549322 0.77819,1.269536 0.7782,2.160645 -10e-6,1.275637 -0.44251,2.256776 -1.32751,2.94342 -0.88502,0.686646 -2.14234,1.029968 -3.77198,1.029968 -0.70801,0 -1.35651,-0.05341 -1.94549,-0.160217 -0.58899,-0.106811 -1.1612,-0.294494 -1.71662,-0.563049 l 0,-1.446533 c 0.57984,0.286866 1.19782,0.505067 1.85395,0.654602 0.65612,0.149537 1.27715,0.224305 1.8631,0.224304 2.31322,10e-7 3.46984,-0.90637 3.46984,-2.719116 0,-1.62353 -1.27564,-2.435297 -3.8269,-2.435303 l -1.31836,0 0,-1.309204 1.33667,0 c 1.0437,7e-6 1.87072,-0.2304 2.48108,-0.691223 0.61034,-0.460807 0.91552,-1.10015 0.91553,-1.91803 -10e-6,-0.653066 -0.22431,-1.16576 -0.67292,-1.538086 -0.44861,-0.372303 -1.05744,-0.55846 -1.82647,-0.558472 -0.58594,1.2e-5 -1.13831,0.07936 -1.65711,0.238037 -0.5188,0.158704 -1.11084,0.451672 -1.77612,0.878907 l -0.76904,-1.025391 c 0.54931,-0.433337 1.18255,-0.773608 1.89972,-1.020813 0.71716,-0.247179 1.47246,-0.370775 2.26593,-0.370789 1.30004,1.4e-5 2.31017,0.29756 3.03039,0.892639 0.72021,0.595105 1.08031,1.41145 1.08032,2.449036 z"
       style="font-size:18.75px;fill:#ffffff;font-family:Open Sans"
       id="path3143" />
  </g>
  <path
     style="fill:#00c081"
     d="m 1081,24 a 18,18 0 0 0 -18,18 18,18 0 0 0 18,18 18,18 0 0 0 3,-0.253906 l 0,-35.47461 A 18,18 0 0 0 1081,24 Z"
     id="path97" />
  <path
     style="fill:url(#linearGradient5399);"
     d="m 969,11 0,166 110,0 c 2.77,0 5,-2.23 5,-5 l 0,-156 c 0,-2.77 -2.23,-5 -5,-5 z"
     id="path99" />
  <path
     d="m 993.47461,85 c -2.4242,0 -4.27517,0.639281 -5.55469,1.917969 C 986.64052,88.196657 986,90.03234 986,92.425781 c 0,2.360649 0.64052,4.214321 1.91992,5.558594 1.27952,1.344262 3.13049,2.015625 5.55469,2.015625 2.42431,0 4.27718,-0.671363 5.55664,-2.015625 1.31305,-1.37706 1.96875,-3.230731 1.96875,-5.558594 0,-2.295081 -0.6405,-4.098687 -1.91992,-5.410156 C 997.80056,85.671358 995.93256,85 993.47461,85 Z m 25.99999,0 c -2.4242,0 -4.2752,0.639281 -5.5547,1.917969 -1.2794,1.278688 -1.9199,3.114371 -1.9199,5.507812 0,2.360649 0.6405,4.214321 1.9199,5.558594 1.2795,1.344262 3.1305,2.015625 5.5547,2.015625 2.4243,0 4.2753,-0.671363 5.5547,-2.015625 1.3132,-1.37706 1.9707,-3.230731 1.9707,-5.558594 0,-2.295081 -0.6405,-4.098687 -1.9199,-5.410156 C 1023.8006,85.671358 1021.9326,85 1019.4746,85 Z m 26,0 c -2.4242,0 -4.2752,0.639281 -5.5547,1.917969 -1.2794,1.278688 -1.9199,3.114371 -1.9199,5.507812 0,2.360649 0.6405,4.214321 1.9199,5.558594 1.2795,1.344262 3.1305,2.015625 5.5547,2.015625 2.4243,0 4.2753,-0.671363 5.5547,-2.015625 1.3132,-1.37706 1.9707,-3.230731 1.9707,-5.558594 0,-2.295081 -0.6405,-4.098687 -1.9199,-5.410156 C 1049.8006,85.671358 1047.9325,85 1045.4746,85 Z"
     style="fill:#5f5f5f;fill-opacity:0.75"
     id="path101" />
  <circle
     r="18"
     cy="304"
     cx="32"
     style="fill:#02a49c"
     id="circle103" />
  <g
     style="font-size:18.75px;font-weight:600;fill:#ffffff;font-family:Open Sans"
     id="text105">
    <path
       d="m 25.206787,303.35068 5.310059,0 0,6.93969 c -0.860607,0.28077 -1.670848,0.4776 -2.430725,0.59052 -0.759897,0.11291 -1.536569,0.16937 -2.330017,0.16937 -2.020269,0 -3.562931,-0.59356 -4.627991,-1.7807 -1.065065,-1.18713 -1.597597,-2.89153 -1.597595,-5.11322 -2e-6,-2.16063 0.617979,-3.8452 1.853942,-5.05371 1.235958,-1.20848 2.949518,-1.81273 5.140686,-1.81274 1.373282,10e-6 2.697744,0.27467 3.973389,0.82397 l -0.942993,2.27051 c -0.976573,-0.48827 -1.992807,-0.73241 -3.048706,-0.73242 -1.226814,10e-6 -2.209479,0.412 -2.947998,1.23596 -0.73853,0.82398 -1.107792,1.93177 -1.107788,3.32336 -4e-6,1.45265 0.297542,2.56196 0.892639,3.32795 0.595087,0.76599 1.46026,1.14898 2.59552,1.14898 0.592033,0 1.193229,-0.061 1.803589,-0.1831 l 0,-2.79236 -2.536011,0 z"
       style="font-size:18.75px;font-weight:600;fill:#ffffff;font-family:Open Sans"
       id="path3193" />
    <path
       d="m 41.906006,310.86716 -0.970459,-3.18604 -4.879761,0 -0.970459,3.18604 -3.057861,0 4.724121,-13.43994 3.469849,0 4.742431,13.43994 z m -1.647949,-5.56641 c -0.897224,-2.88695 -1.40229,-4.51964 -1.515198,-4.89807 -0.112922,-0.37841 -0.193793,-0.67748 -0.242615,-0.89722 -0.201422,0.78126 -0.778204,2.71302 -1.730347,5.79529 z"
       style="font-size:18.75px;font-weight:600;fill:#ffffff;font-family:Open Sans"
       id="path3195" />
  </g>
  <circle
     r="18"
     cy="278"
     cx="167"
     style="fill:#00c081"
     id="circle107" />
  <g
     style="font-size:18.75px;fill:#ffffff;font-family:Open Sans"
     id="text109">
    <path
       d="m 162.34558,281.28641 c -1e-5,1.17798 -0.42725,2.09656 -1.28174,2.75573 -0.8545,0.65918 -2.01416,0.98877 -3.479,0.98877 -1.58692,0 -2.80762,-0.20446 -3.66211,-0.6134 l 0,-1.50146 c 0.54931,0.23193 1.14746,0.41504 1.79443,0.54931 0.64697,0.13428 1.28784,0.20142 1.92261,0.20142 1.03759,0 1.81884,-0.19684 2.34375,-0.59052 0.5249,-0.39367 0.78735,-0.94146 0.78735,-1.64337 0,-0.46386 -0.0931,-0.8438 -0.27923,-1.13983 -0.18617,-0.29602 -0.49745,-0.56915 -0.93384,-0.8194 -0.43641,-0.25024 -1.10016,-0.53405 -1.99127,-0.85144 -1.24512,-0.44555 -2.13471,-0.9735 -2.66876,-1.58386 -0.53406,-0.61034 -0.80109,-1.40685 -0.80109,-2.38953 0,-1.03148 0.38757,-1.8524 1.16272,-2.46276 0.77514,-0.61034 1.80053,-0.91552 3.07617,-0.91553 1.33056,1e-5 2.55431,0.24415 3.67127,0.73242 l -0.48523,1.35498 c -1.10475,-0.46385 -2.17897,-0.69579 -3.22266,-0.6958 -0.82398,10e-6 -1.4679,0.17701 -1.93176,0.53101 -0.46387,0.35401 -0.69581,0.84534 -0.6958,1.47399 -1e-5,0.46388 0.0854,0.84383 0.25634,1.13984 0.1709,0.29603 0.45929,0.56763 0.86518,0.81482 0.40588,0.2472 1.02691,0.52033 1.8631,0.81939 1.4038,0.5005 2.36968,1.03761 2.89764,1.61133 0.52794,0.57374 0.79192,1.31836 0.79193,2.23389 z"
       style="font-size:18.75px;fill:#ffffff;font-family:Open Sans"
       id="path3186" />
    <path
       d="m 173.56995,275.36295 c -1e-5,1.35498 -0.46235,2.39716 -1.38703,3.12652 -0.92469,0.72938 -2.24762,1.09406 -3.96881,1.09406 l -1.57471,0 0,5.26428 -1.55639,0 0,-13.38501 3.46985,0 c 3.34471,10e-6 5.01708,1.30006 5.01709,3.90015 z m -6.93055,2.88391 1.40076,0 c 1.37939,0 2.37731,-0.22277 2.99378,-0.66834 0.61644,-0.44555 0.92467,-1.15966 0.92468,-2.14233 -1e-5,-0.885 -0.28993,-1.54418 -0.86975,-1.97754 -0.57984,-0.43334 -1.48316,-0.65001 -2.70996,-0.65003 l -1.73951,0 z"
       style="letter-spacing:-1px"
       id="path3188" />
    <path
       d="m 180.06812,284.84781 -1.48316,0 0,-9.5398 c 0,-0.79344 0.0244,-1.54417 0.0732,-2.25219 -0.12818,0.12818 -0.27161,0.26246 -0.43029,0.40283 -0.1587,0.14039 -0.88502,0.73548 -2.17896,1.78528 l -0.80566,-1.0437 3.54309,-2.73743 1.28174,0 z"
       style="font-size:18.75px;fill:#ffffff;font-family:Open Sans"
       id="path3190" />
  </g>
  <circle
     r="18"
     cy="252"
     cx="302"
     style="fill:#00c081"
     id="circle113" />
  <g
     style="font-size:18.75px;fill:#ffffff;font-family:Open Sans"
     id="text115">
    <path
       d="m 295.51172,255.26715 c -1e-5,1.17798 -0.42726,2.09656 -1.28174,2.75574 -0.8545,0.65918 -2.01417,0.98877 -3.479,0.98877 -1.58692,0 -2.80762,-0.20447 -3.66211,-0.61341 l 0,-1.50146 c 0.54931,0.23193 1.14746,0.41504 1.79443,0.54932 0.64697,0.13427 1.28784,0.20141 1.92261,0.20141 1.03759,0 1.81884,-0.19684 2.34375,-0.59051 0.52489,-0.39368 0.78734,-0.94147 0.78735,-1.64337 -10e-6,-0.46387 -0.0931,-0.84381 -0.27923,-1.13984 -0.18617,-0.29601 -0.49745,-0.56914 -0.93384,-0.81939 -0.43641,-0.25024 -1.10017,-0.53405 -1.99127,-0.85144 -1.24512,-0.44555 -2.13471,-0.97351 -2.66877,-1.58387 -0.53406,-0.61034 -0.80108,-1.40685 -0.80108,-2.38952 0,-1.03149 0.38757,-1.85241 1.16272,-2.46277 0.77514,-0.61034 1.80053,-0.91551 3.07617,-0.91553 1.33056,2e-5 2.55431,0.24416 3.67126,0.73242 l -0.48523,1.35498 c -1.10474,-0.46385 -2.17896,-0.69578 -3.22265,-0.6958 -0.82398,2e-5 -1.4679,0.17702 -1.93176,0.53101 -0.46387,0.35401 -0.69581,0.84535 -0.69581,1.474 0,0.46388 0.0855,0.84382 0.25635,1.13983 0.1709,0.29603 0.45929,0.56764 0.86518,0.81482 0.40587,0.2472 1.02691,0.52033 1.86309,0.8194 1.40381,0.50049 2.36969,1.0376 2.89765,1.61132 0.52794,0.57374 0.79192,1.31837 0.79193,2.23389 z"
       style="font-size:18.75px;fill:#ffffff;font-family:Open Sans"
       id="path3179" />
    <path
       d="m 306.73608,249.34369 c -1e-5,1.35499 -0.46235,2.39716 -1.38702,3.12652 -0.92469,0.72938 -2.24763,1.09407 -3.96881,1.09406 l -1.57471,0 0,5.26428 -1.55639,0 0,-13.38501 3.46984,0 c 3.34472,2e-5 5.01708,1.30006 5.01709,3.90015 z m -6.93054,2.88391 1.40076,0 c 1.37939,1e-5 2.37731,-0.22277 2.99377,-0.66833 0.61645,-0.44555 0.92468,-1.15966 0.92469,-2.14234 -10e-6,-0.885 -0.28993,-1.54418 -0.86976,-1.97754 -0.57984,-0.43334 -1.48316,-0.65001 -2.70996,-0.65002 l -1.7395,0 z"
       style="letter-spacing:-0.5px"
       id="path3181" />
    <path
       d="m 316.90198,258.82855 -8.79822,0 0,-1.3092 3.52478,-3.54309 c 1.07421,-1.08642 1.78222,-1.86157 2.12402,-2.32544 0.34179,-0.46386 0.59814,-0.91552 0.76905,-1.35498 0.17089,-0.43945 0.25634,-0.91247 0.25634,-1.41907 0,-0.7141 -0.21668,-1.2802 -0.65002,-1.6983 -0.43336,-0.41808 -1.03455,-0.62713 -1.80359,-0.62714 -0.55542,1e-5 -1.08185,0.0916 -1.57928,0.27466 -0.49744,0.18312 -1.05134,0.51576 -1.66169,0.99792 l -0.80566,-1.03454 c 1.23291,-1.02538 2.57568,-1.53807 4.02832,-1.53809 1.25732,2e-5 2.24303,0.32198 2.95715,0.96588 0.71411,0.64394 1.07116,1.50911 1.07117,2.59552 -10e-6,0.8484 -0.23805,1.68763 -0.71411,2.5177 -0.47608,0.83009 -1.3672,1.87989 -2.67334,3.14942 l -2.92969,2.8656 0,0.0732 6.88477,0 z"
       style="font-size:18.75px;fill:#ffffff;font-family:Open Sans"
       id="path3183" />
  </g>
  <circle
     r="18"
     cy="200"
     cx="572"
     style="fill:#00c081"
     id="circle119" />
  <g
     style="font-size:18.75px;fill:#ffffff;font-family:Open Sans"
     id="text121">
    <path
       d="m 565.19586,203.24779 c -1e-5,1.17798 -0.42725,2.09656 -1.28174,2.75573 -0.8545,0.65918 -2.01416,0.98877 -3.479,0.98877 -1.58692,0 -2.80762,-0.20446 -3.66211,-0.6134 l 0,-1.50146 c 0.54932,0.23193 1.14746,0.41504 1.79443,0.54931 0.64697,0.13428 1.28784,0.20142 1.92261,0.20142 1.03759,0 1.81884,-0.19684 2.34375,-0.59052 0.5249,-0.39367 0.78735,-0.94146 0.78735,-1.64337 0,-0.46386 -0.0931,-0.8438 -0.27923,-1.13983 -0.18617,-0.29602 -0.49744,-0.56915 -0.93384,-0.8194 -0.43641,-0.25024 -1.10016,-0.53405 -1.99127,-0.85144 -1.24512,-0.44555 -2.13471,-0.9735 -2.66876,-1.58386 -0.53406,-0.61034 -0.80109,-1.40685 -0.80109,-2.38953 0,-1.03148 0.38757,-1.8524 1.16272,-2.46276 0.77514,-0.61034 1.80053,-0.91552 3.07617,-0.91553 1.33056,1e-5 2.55432,0.24415 3.67127,0.73242 l -0.48523,1.35498 c -1.10475,-0.46385 -2.17896,-0.69579 -3.22266,-0.6958 -0.82398,10e-6 -1.4679,0.17701 -1.93176,0.53101 -0.46387,0.35401 -0.69581,0.84534 -0.6958,1.47399 -10e-6,0.46388 0.0854,0.84383 0.25635,1.13984 0.17089,0.29603 0.45928,0.56763 0.86517,0.81482 0.40588,0.2472 1.02691,0.52033 1.8631,0.81939 1.4038,0.5005 2.36968,1.03761 2.89764,1.61133 0.52795,0.57374 0.79192,1.31836 0.79193,2.23389 z"
       style="font-size:18.75px;fill:#ffffff;font-family:Open Sans"
       id="path3160" />
    <path
       d="m 576.42023,197.32433 c -10e-6,1.35498 -0.46235,2.39716 -1.38703,3.12652 -0.92469,0.72938 -2.24762,1.09406 -3.96881,1.09406 l -1.5747,0 0,5.26428 -1.5564,0 0,-13.38501 3.46985,0 c 3.34472,1e-5 5.01708,1.30006 5.01709,3.90015 z m -6.93054,2.88391 1.40075,0 c 1.37939,0 2.37731,-0.22277 2.99378,-0.66834 0.61644,-0.44555 0.92467,-1.15966 0.92468,-2.14233 -10e-6,-0.885 -0.28993,-1.54418 -0.86975,-1.97754 -0.57984,-0.43334 -1.48316,-0.65001 -2.70996,-0.65003 l -1.7395,0 z"
       style="letter-spacing:-0.5px"
       id="path3162" />
    <path
       d="m 587.21783,203.73302 -1.98669,0 0,3.07617 -1.45569,0 0,-3.07617 -6.5094,0 0,-1.32752 6.35376,-9.05456 1.61133,0 0,8.99963 1.98669,0 z m -3.44238,-1.38245 0,-4.44946 c -10e-6,-0.8728 0.0305,-1.85851 0.0915,-2.95716 l -0.0732,0 c -0.29297,0.58595 -0.56763,1.07118 -0.82397,1.45569 l -4.18396,5.95093 z"
       style="font-size:18.75px;fill:#ffffff;font-family:Open Sans"
       id="path3164" />
  </g>
  <circle
     r="18"
     cy="226"
     cx="437"
     style="fill:#00c081"
     id="circle125" />
  <g
     style="font-size:18.75px;fill:#ffffff;font-family:Open Sans"
     id="text127">
    <path
       d="m 430.5575,229.24779 c -1e-5,1.17798 -0.42726,2.09656 -1.28174,2.75573 -0.8545,0.65918 -2.01417,0.98877 -3.47901,0.98877 -1.58691,0 -2.80762,-0.20446 -3.66211,-0.6134 l 0,-1.50146 c 0.54932,0.23193 1.14746,0.41504 1.79444,0.54931 0.64697,0.13428 1.28783,0.20142 1.9226,0.20142 1.0376,0 1.81885,-0.19684 2.34375,-0.59052 0.5249,-0.39367 0.78735,-0.94146 0.78736,-1.64337 -1e-5,-0.46386 -0.0931,-0.8438 -0.27924,-1.13983 -0.18616,-0.29602 -0.49744,-0.56915 -0.93384,-0.8194 -0.4364,-0.25024 -1.10016,-0.53405 -1.99127,-0.85144 -1.24512,-0.44555 -2.1347,-0.9735 -2.66876,-1.58386 -0.53406,-0.61034 -0.80109,-1.40685 -0.80109,-2.38953 0,-1.03148 0.38758,-1.8524 1.16272,-2.46276 0.77515,-0.61034 1.80054,-0.91552 3.07618,-0.91553 1.33056,1e-5 2.55431,0.24415 3.67126,0.73242 l -0.48523,1.35498 c -1.10474,-0.46385 -2.17896,-0.69579 -3.22266,-0.6958 -0.82397,10e-6 -1.4679,0.17701 -1.93176,0.53101 -0.46387,0.35401 -0.6958,0.84534 -0.6958,1.47399 0,0.46388 0.0854,0.84383 0.25635,1.13984 0.17089,0.29603 0.45928,0.56763 0.86517,0.81482 0.40588,0.2472 1.02691,0.52033 1.8631,0.81939 1.4038,0.5005 2.36968,1.03761 2.89764,1.61133 0.52795,0.57374 0.79193,1.31836 0.79194,2.23389 z"
       style="font-size:18.75px;fill:#ffffff;font-family:Open Sans"
       id="path3172" />
    <path
       d="m 441.78186,223.32433 c -10e-6,1.35498 -0.46235,2.39716 -1.38702,3.12652 -0.92469,0.72938 -2.24763,1.09406 -3.96881,1.09406 l -1.57471,0 0,5.26428 -1.5564,0 0,-13.38501 3.46985,0 c 3.34472,1e-5 5.01708,1.30006 5.01709,3.90015 z m -6.93054,2.88391 1.40076,0 c 1.37938,0 2.37731,-0.22277 2.99377,-0.66834 0.61645,-0.44555 0.92467,-1.15966 0.92468,-2.14233 -10e-6,-0.885 -0.28992,-1.54418 -0.86975,-1.97754 -0.57984,-0.43334 -1.48316,-0.65001 -2.70996,-0.65003 l -1.7395,0 z"
       style="letter-spacing:-0.5px"
       id="path3174" />
    <path
       d="m 451.44421,222.57359 c -10e-6,0.8545 -0.23957,1.55336 -0.71869,2.09656 -0.47913,0.54322 -1.15814,0.90638 -2.03704,1.08948 l 0,0.0732 c 1.07421,0.13428 1.87072,0.47608 2.38952,1.02539 0.51879,0.54932 0.77819,1.26954 0.7782,2.16065 -10e-6,1.27563 -0.44251,2.25677 -1.32751,2.94342 -0.88502,0.68664 -2.14234,1.02996 -3.77198,1.02996 -0.70801,0 -1.35651,-0.0534 -1.94549,-0.16021 -0.58899,-0.10681 -1.1612,-0.2945 -1.71662,-0.56305 l 0,-1.44654 c 0.57984,0.28687 1.19782,0.50507 1.85395,0.65461 0.65612,0.14953 1.27715,0.2243 1.8631,0.2243 2.31322,0 3.46984,-0.90637 3.46984,-2.71912 0,-1.62353 -1.27564,-2.43529 -3.8269,-2.4353 l -1.31836,0 0,-1.3092 1.33667,0 c 1.0437,1e-5 1.87072,-0.2304 2.48108,-0.69123 0.61034,-0.4608 0.91552,-1.10014 0.91553,-1.91803 -10e-6,-0.65306 -0.22431,-1.16576 -0.67292,-1.53808 -0.44861,-0.3723 -1.05744,-0.55846 -1.82647,-0.55847 -0.58594,1e-5 -1.13831,0.0794 -1.65711,0.23803 -0.5188,0.15871 -1.11084,0.45168 -1.77612,0.87891 l -0.76904,-1.02539 c 0.54931,-0.43334 1.18255,-0.77361 1.89972,-1.02081 0.71716,-0.24718 1.47246,-0.37078 2.26593,-0.37079 1.30004,1e-5 2.31017,0.29756 3.03039,0.89264 0.72021,0.5951 1.08031,1.41145 1.08032,2.44903 z"
       style="font-size:18.75px;fill:#ffffff;font-family:Open Sans"
       id="path3176" />
  </g>
  <rect
     style="fill:#5f5f5f"
     width="243.93629"
     height="36"
     x="143.45682"
     y="169"
     rx="4.0932374"
     ry="3"
     id="rect131" />
  <g
     style="font-size:18.75px;fill:#00c081;font-family:Open Sans"
     id="text133">
    <path
       d="m 162.25725,188.38126 c -1e-5,1.17798 -0.42726,2.09656 -1.28174,2.75573 -0.8545,0.65918 -2.01417,0.98877 -3.479,0.98877 -1.58692,0 -2.80762,-0.20446 -3.66211,-0.6134 l 0,-1.50147 c 0.54931,0.23194 1.14746,0.41505 1.79443,0.54932 0.64697,0.13428 1.28784,0.20142 1.92261,0.20142 1.03759,0 1.81884,-0.19684 2.34375,-0.59052 0.52489,-0.39367 0.78734,-0.94146 0.78735,-1.64337 -10e-6,-0.46386 -0.0931,-0.84381 -0.27923,-1.13983 -0.18617,-0.29602 -0.49745,-0.56915 -0.93384,-0.8194 -0.43641,-0.25024 -1.10017,-0.53405 -1.99127,-0.85144 -1.24513,-0.44555 -2.13471,-0.9735 -2.66877,-1.58386 -0.53406,-0.61034 -0.80108,-1.40685 -0.80108,-2.38953 0,-1.03148 0.38757,-1.8524 1.16272,-2.46277 0.77514,-0.61033 1.80053,-0.91551 3.07617,-0.91552 1.33056,1e-5 2.55431,0.24415 3.67126,0.73242 l -0.48523,1.35498 c -1.10474,-0.46386 -2.17896,-0.69579 -3.22265,-0.6958 -0.82398,1e-5 -1.4679,0.17701 -1.93177,0.531 -0.46387,0.35402 -0.6958,0.84535 -0.6958,1.474 0,0.46388 0.0855,0.84382 0.25635,1.13983 0.1709,0.29603 0.45929,0.56764 0.86517,0.81482 0.40588,0.2472 1.02692,0.52034 1.8631,0.8194 1.4038,0.5005 2.36968,1.03761 2.89765,1.61133 0.52794,0.57374 0.79192,1.31836 0.79193,2.23389 z"
       style="font-size:18.75px;fill:#00c081;font-family:Open Sans"
       id="path3072" />
    <path
       d="m 173.42668,186.91641 c -1e-5,1.63575 -0.412,2.91291 -1.23596,3.83148 -0.82398,0.91858 -1.96229,1.37787 -3.41492,1.37787 -0.89722,0 -1.69373,-0.21057 -2.38952,-0.63171 -0.69581,-0.42114 -1.23292,-1.02539 -1.61133,-1.81275 -0.37842,-0.78735 -0.56763,-1.70898 -0.56763,-2.76489 0,-1.63573 0.40894,-2.90984 1.22681,-3.82232 0.81787,-0.91247 1.95312,-1.36871 3.40576,-1.36872 1.4038,1e-5 2.51922,0.46693 3.34625,1.40076 0.82702,0.93384 1.24053,2.19727 1.24054,3.79028 z m -7.64465,0 c 0,1.28174 0.25634,2.25831 0.76904,2.92969 0.51269,0.67139 1.26648,1.00708 2.26135,1.00708 0.99487,0 1.75018,-0.33417 2.26593,-1.0025 0.51574,-0.66833 0.77362,-1.64642 0.77362,-2.93427 0,-1.27563 -0.25788,-2.24456 -0.77362,-2.9068 -0.51575,-0.66222 -1.27716,-0.99334 -2.28424,-0.99334 -0.99487,0 -1.74561,0.32654 -2.25219,0.97961 -0.5066,0.65308 -0.75989,1.62659 -0.75989,2.92053 z"
       style="font-size:18.75px;fill:#00c081;font-family:Open Sans"
       id="path3074" />
    <path
       d="m 180.7509,181.74368 c 1.31835,10e-6 2.34222,0.45015 3.07159,1.35041 0.72936,0.90027 1.09405,2.17438 1.09406,3.82232 -1e-5,1.64795 -0.36775,2.92817 -1.10321,3.84064 -0.73548,0.91248 -1.75629,1.36871 -3.06244,1.36871 -0.65308,0 -1.2497,-0.12054 -1.78986,-0.36163 -0.54016,-0.24109 -0.99335,-0.61188 -1.35955,-1.11237 l -0.10987,0 -0.32043,1.2909 -1.08948,0 0,-14.24561 1.51978,0 0,3.4607 c -1e-5,0.77515 -0.0244,1.47095 -0.0733,2.0874 l 0.0733,0 c 0.708,-1.00097 1.7578,-1.50146 3.14941,-1.50147 z m -0.21973,1.27259 c -1.0376,0 -1.78528,0.29755 -2.24304,0.89264 -0.45777,0.5951 -0.68665,1.5976 -0.68664,3.0075 -1e-5,1.40992 0.23498,2.41852 0.70495,3.02582 0.46997,0.6073 1.22375,0.91095 2.26135,0.91095 0.93384,0 1.62964,-0.34027 2.08741,-1.02081 0.45775,-0.68054 0.68663,-1.65863 0.68664,-2.93427 -1e-5,-1.30614 -0.22889,-2.27965 -0.68664,-2.92053 -0.45777,-0.64086 -1.16578,-0.9613 -2.12403,-0.9613 z"
       style="font-size:18.75px;fill:#00c081;font-family:Open Sans"
       id="path3076" />
    <path
       d="m 192.15837,181.72537 c 0.44555,1e-5 0.84533,0.0366 1.19934,0.10987 l -0.21057,1.40991 c -0.41505,-0.0915 -0.78126,-0.13732 -1.09863,-0.13733 -0.81178,1e-5 -1.50605,0.3296 -2.08283,0.98877 -0.57678,0.65919 -0.86517,1.48011 -0.86517,2.46277 l 0,5.3833 -1.51978,0 0,-10.03418 1.25428,0 0.17395,1.85852 0.0732,0 c 0.37231,-0.65307 0.82092,-1.15661 1.34582,-1.51062 0.5249,-0.354 1.10168,-0.531 1.73035,-0.53101 z"
       style="font-size:18.75px;fill:#00c081;font-family:Open Sans"
       id="path3078" />
    <path
       d="m 199.47343,192.12576 c -1.48315,0 -2.6535,-0.45166 -3.51104,-1.35498 -0.85755,-0.90332 -1.28632,-2.15759 -1.28632,-3.76281 0,-1.61743 0.39825,-2.90222 1.19476,-3.85438 0.79651,-0.95213 1.86615,-1.42821 3.20893,-1.42822 1.25732,1e-5 2.25219,0.41353 2.98462,1.24054 0.73241,0.82704 1.09862,1.91804 1.09863,3.27301 l 0,0.96131 -6.91223,0 c 0.0305,1.17798 0.32806,2.07214 0.89264,2.68249 0.56457,0.61035 1.35955,0.91553 2.38495,0.91553 1.08031,0 2.14843,-0.22583 3.20434,-0.67749 l 0,1.35498 c -0.53712,0.23193 -1.04523,0.39825 -1.52435,0.49896 -0.47913,0.10071 -1.05744,0.15106 -1.73493,0.15106 z m -0.41198,-9.1278 c -0.80567,0 -1.44807,0.26246 -1.92719,0.78735 -0.47913,0.52491 -0.76141,1.25123 -0.84686,2.17895 l 5.24597,0 c -1e-5,-0.95824 -0.21363,-1.69219 -0.64087,-2.20184 -0.42725,-0.50963 -1.0376,-0.76446 -1.83105,-0.76446 z"
       style="font-size:18.75px;fill:#00c081;font-family:Open Sans"
       id="path3080" />
    <path
       d="m 210.41399,192.12576 c -0.65309,0 -1.2497,-0.12054 -1.78986,-0.36163 -0.54016,-0.24109 -0.99335,-0.61188 -1.35956,-1.11237 l -0.10986,0 c 0.0732,0.58594 0.10986,1.14136 0.10986,1.66626 l 0,4.12903 -1.51977,0 0,-14.53857 1.23596,0 0.21057,1.37329 0.0732,0 c 0.39062,-0.54931 0.84534,-0.94604 1.36414,-1.19019 0.51879,-0.24413 1.11388,-0.3662 1.78528,-0.36621 1.33056,1e-5 2.35747,0.45472 3.08075,1.36414 0.72325,0.90943 1.08489,2.18506 1.0849,3.8269 -1e-5,1.64795 -0.36775,2.92817 -1.10321,3.84064 -0.73549,0.91248 -1.7563,1.36871 -3.06244,1.36871 z m -0.21973,-9.10949 c -1.0254,0 -1.76697,0.28382 -2.22473,0.85144 -0.45777,0.56763 -0.69275,1.47095 -0.70496,2.70996 l 0,0.33874 c 0,1.40992 0.23498,2.41852 0.70496,3.02582 0.46996,0.6073 1.22375,0.91095 2.26135,0.91095 0.86669,0 1.54571,-0.35095 2.03705,-1.05286 0.49132,-0.7019 0.73699,-1.6693 0.737,-2.90222 -1e-5,-1.25121 -0.24568,-2.21099 -0.737,-2.87933 -0.49134,-0.66833 -1.18256,-1.0025 -2.07367,-1.0025 z"
       style="font-size:18.75px;fill:#00c081;font-family:Open Sans"
       id="path3082" />
    <path
       d="m 225.90471,186.91641 c -1e-5,1.63575 -0.412,2.91291 -1.23596,3.83148 -0.82399,0.91858 -1.96229,1.37787 -3.41492,1.37787 -0.89722,0 -1.69373,-0.21057 -2.38953,-0.63171 -0.6958,-0.42114 -1.23291,-1.02539 -1.61132,-1.81275 -0.37842,-0.78735 -0.56763,-1.70898 -0.56763,-2.76489 0,-1.63573 0.40893,-2.90984 1.22681,-3.82232 0.81786,-0.91247 1.95312,-1.36871 3.40576,-1.36872 1.4038,1e-5 2.51921,0.46693 3.34625,1.40076 0.82702,0.93384 1.24053,2.19727 1.24054,3.79028 z m -7.64465,0 c -1e-5,1.28174 0.25634,2.25831 0.76904,2.92969 0.51269,0.67139 1.26647,1.00708 2.26135,1.00708 0.99487,0 1.75018,-0.33417 2.26593,-1.0025 0.51574,-0.66833 0.77361,-1.64642 0.77362,-2.93427 -1e-5,-1.27563 -0.25788,-2.24456 -0.77362,-2.9068 -0.51575,-0.66222 -1.27717,-0.99334 -2.28424,-0.99334 -0.99488,0 -1.74561,0.32654 -2.2522,0.97961 -0.50659,0.65308 -0.75989,1.62659 -0.75988,2.92053 z"
       style="font-size:18.75px;fill:#00c081;font-family:Open Sans"
       id="path3084" />
    <path
       d="m 235.03252,189.20523 c -1e-5,0.93384 -0.34791,1.65405 -1.0437,2.16065 -0.69581,0.50659 -1.67237,0.75988 -2.92969,0.75988 -1.33057,0 -2.36817,-0.21057 -3.1128,-0.63171 l 0,-1.40991 c 0.48218,0.24414 0.99945,0.4364 1.55182,0.57678 0.55237,0.14038 1.0849,0.21057 1.5976,0.21057 0.79345,0 1.4038,-0.12665 1.83105,-0.37994 0.42724,-0.2533 0.64087,-0.63934 0.64087,-1.15815 0,-0.39062 -0.16938,-0.72478 -0.50811,-1.0025 -0.33876,-0.2777 -0.99946,-0.60577 -1.98212,-0.98419 -0.93384,-0.3479 -1.5976,-0.65154 -1.99127,-0.91095 -0.39368,-0.25939 -0.68665,-0.55389 -0.87891,-0.88348 -0.19226,-0.32959 -0.28839,-0.72326 -0.28839,-1.18103 0,-0.81787 0.33264,-1.46331 0.99792,-1.93634 0.66528,-0.47302 1.57776,-0.70953 2.73743,-0.70954 1.08032,1e-5 2.13622,0.21974 3.16773,0.65918 l -0.54017,1.23596 c -1.00708,-0.41503 -1.91956,-0.62255 -2.73742,-0.62255 -0.72022,0 -1.26343,0.11292 -1.62964,0.33874 -0.36621,0.22584 -0.54932,0.53712 -0.54932,0.93384 0,0.26856 0.0687,0.49744 0.206,0.68664 0.13732,0.18922 0.35857,0.36927 0.66375,0.54016 0.30518,0.17091 0.89111,0.4181 1.75782,0.74158 1.19018,0.43336 1.99431,0.86976 2.41241,1.30921 0.41808,0.43945 0.62713,0.99182 0.62714,1.6571 z"
       style="font-size:18.75px;fill:#00c081;font-family:Open Sans"
       id="path3086" />
    <path
       d="m 239.01506,191.94266 -1.51977,0 0,-10.03418 1.51977,0 z m -1.64795,-12.7533 c 0,-0.34789 0.0855,-0.60271 0.25635,-0.76446 0.1709,-0.16173 0.38452,-0.2426 0.64087,-0.24262 0.24414,2e-5 0.45471,0.0824 0.63171,0.24719 0.177,0.16481 0.2655,0.41811 0.2655,0.75989 0,0.34181 -0.0885,0.59663 -0.2655,0.76447 -0.177,0.16786 -0.38757,0.25178 -0.63171,0.25177 -0.25635,1e-5 -0.46997,-0.0839 -0.64087,-0.25177 -0.1709,-0.16784 -0.25635,-0.42266 -0.25635,-0.76447 z"
       style="font-size:18.75px;fill:#00c081;font-family:Open Sans"
       id="path3088" />
    <path
       d="m 246.26604,192.12576 c -1.45264,0 -2.57722,-0.44708 -3.37372,-1.34124 -0.79651,-0.89417 -1.19477,-2.15912 -1.19476,-3.79487 -1e-5,-1.67846 0.40435,-2.97545 1.21307,-3.89099 0.80871,-0.91551 1.96075,-1.37328 3.45611,-1.37329 0.48218,1e-5 0.96435,0.0519 1.44654,0.15564 0.48217,0.10377 0.86059,0.22584 1.13525,0.36621 l -0.46692,1.2909 c -0.3357,-0.13427 -0.70191,-0.24566 -1.09863,-0.33417 -0.39673,-0.0885 -0.74769,-0.13274 -1.05286,-0.13275 -2.03857,1e-5 -3.05786,1.30005 -3.05786,3.90014 0,1.23292 0.24872,2.17896 0.74616,2.83814 0.49743,0.65918 1.23443,0.98877 2.211,0.98877 0.83617,0 1.69371,-0.18005 2.57263,-0.54016 l 0,1.34582 c -0.6714,0.3479 -1.51673,0.52185 -2.53601,0.52185 z m 1.37329,2.46277 c -1e-5,0.59204 -0.23347,1.0498 -0.70038,1.37329 -0.46693,0.32348 -1.15815,0.48523 -2.07367,0.48523 -0.31128,0 -0.60425,-0.0275 -0.87891,-0.0824 l 0,-0.97045 c 0.27466,0.0488 0.59204,0.0732 0.95215,0.0732 0.48218,-1e-5 0.84686,-0.061 1.09406,-0.18311 0.24718,-0.12207 0.37078,-0.3479 0.37079,-0.67749 -1e-5,-0.26245 -0.12055,-0.47455 -0.36164,-0.63629 -0.24109,-0.16174 -0.69428,-0.2945 -1.35956,-0.39825 l 0.80567,-1.62964 1.00708,0 -0.50354,1.05285 c 1.09863,0.23804 1.64794,0.76905 1.64795,1.59302 z"
       style="font-size:18.75px;fill:#00c081;font-family:Open Sans"
       id="path3090" />
    <path
       d="m 257.36223,191.94266 -0.30213,-1.42823 -0.0732,0 c -0.50049,0.62867 -0.99945,1.05439 -1.49689,1.27717 -0.49744,0.22277 -1.11847,0.33416 -1.86309,0.33416 -0.99488,0 -1.7746,-0.25634 -2.33918,-0.76904 -0.56457,-0.51269 -0.84686,-1.24206 -0.84686,-2.18811 0,-2.02636 1.62048,-3.08837 4.86145,-3.18604 l 1.70288,-0.0549 0,-0.62256 c 0,-0.78734 -0.16938,-1.3687 -0.50811,-1.74408 -0.33876,-0.37535 -0.88044,-0.56304 -1.62507,-0.56304 -0.83618,0 -1.78223,0.25635 -2.83813,0.76904 l -0.46692,-1.16272 c 0.49438,-0.26855 1.03607,-0.47912 1.62506,-0.63172 0.58899,-0.15257 1.1795,-0.22887 1.77155,-0.22888 1.19628,10e-6 2.08281,0.26552 2.6596,0.79651 0.57678,0.53102 0.86517,1.38246 0.86518,2.55432 l 0,6.84815 z m -3.43323,-1.07117 c 0.94604,0 1.68914,-0.2594 2.22931,-0.7782 0.54015,-0.51879 0.81023,-1.24511 0.81024,-2.17895 l 0,-0.90637 -1.51977,0.0641 c -1.2085,0.0427 -2.07978,0.23041 -2.61383,0.56305 -0.53406,0.33265 -0.80109,0.84992 -0.80109,1.55182 0,0.54932 0.16632,0.96741 0.49896,1.25427 0.33264,0.28687 0.79803,0.4303 1.39618,0.4303 z m 2.24304,-10.30884 c -0.26245,1e-5 -0.5188,-0.0564 -0.76904,-0.16937 -0.25025,-0.1129 -0.49592,-0.23803 -0.737,-0.37537 -0.24109,-0.13731 -0.47303,-0.26244 -0.6958,-0.37536 -0.22278,-0.11291 -0.43793,-0.16936 -0.64545,-0.16937 -0.30518,10e-6 -0.53558,0.0916 -0.69122,0.27465 -0.15564,0.18312 -0.27619,0.46083 -0.36163,0.83313 l -0.89722,0 c 0.0793,-0.73851 0.29449,-1.31682 0.64545,-1.73492 0.35095,-0.41808 0.80413,-0.62712 1.35955,-0.62714 0.28076,2e-5 0.55237,0.0565 0.81482,0.16938 0.26245,0.11292 0.51269,0.23805 0.75074,0.37536 0.23803,0.13734 0.46691,0.26247 0.68664,0.37537 0.21972,0.11293 0.42724,0.16938 0.62256,0.16937 0.29907,1e-5 0.52184,-0.09 0.66834,-0.27008 0.14647,-0.18004 0.26549,-0.45928 0.35705,-0.83771 l 0.90637,0 c -0.0793,0.73854 -0.29145,1.31685 -0.63629,1.73493 -0.34485,0.4181 -0.80414,0.62714 -1.37787,0.62713 z"
       style="font-size:18.75px;fill:#00c081;font-family:Open Sans"
       id="path3092" />
    <path
       d="m 270.28947,186.91641 c -10e-6,1.63575 -0.41199,2.91291 -1.23596,3.83148 -0.82398,0.91858 -1.96228,1.37787 -3.41491,1.37787 -0.89723,0 -1.69373,-0.21057 -2.38953,-0.63171 -0.6958,-0.42114 -1.23291,-1.02539 -1.61133,-1.81275 -0.37842,-0.78735 -0.56763,-1.70898 -0.56763,-2.76489 0,-1.63573 0.40894,-2.90984 1.22681,-3.82232 0.81787,-0.91247 1.95312,-1.36871 3.40576,-1.36872 1.4038,1e-5 2.51922,0.46693 3.34625,1.40076 0.82702,0.93384 1.24053,2.19727 1.24054,3.79028 z m -7.64465,0 c 0,1.28174 0.25635,2.25831 0.76904,2.92969 0.5127,0.67139 1.26648,1.00708 2.26136,1.00708 0.99486,0 1.75017,-0.33417 2.26593,-1.0025 0.51574,-0.66833 0.77361,-1.64642 0.77362,-2.93427 -10e-6,-1.27563 -0.25788,-2.24456 -0.77362,-2.9068 -0.51576,-0.66222 -1.27717,-0.99334 -2.28424,-0.99334 -0.99488,0 -1.74561,0.32654 -2.2522,0.97961 -0.5066,0.65308 -0.75989,1.62659 -0.75989,2.92053 z"
       style="font-size:18.75px;fill:#00c081;font-family:Open Sans"
       id="path3094" />
    <path
       d="m 284.64494,190.59683 -0.0824,0 c -0.70192,1.01929 -1.75172,1.52893 -3.14942,1.52893 -1.31226,0 -2.33307,-0.44861 -3.06244,-1.34582 -0.72937,-0.89722 -1.09405,-2.17285 -1.09405,-3.82691 0,-1.65404 0.36621,-2.93883 1.09863,-3.85437 0.73242,-0.91551 1.75171,-1.37328 3.05786,-1.37329 1.36108,1e-5 2.40478,0.4944 3.13111,1.48316 l 0.11901,0 -0.0641,-0.72327 -0.0366,-0.70496 0,-4.08325 1.51977,0 0,14.24561 -1.23596,0 z m -3.03955,0.25635 c 1.03759,0 1.78985,-0.28229 2.25678,-0.84686 0.46691,-0.56458 0.70037,-1.47552 0.70038,-2.73285 l 0,-0.32044 c -10e-6,-1.42211 -0.23652,-2.43682 -0.70954,-3.04412 -0.47303,-0.6073 -1.22834,-0.91095 -2.26593,-0.91095 -0.89112,0 -1.57318,0.34638 -2.0462,1.03912 -0.47303,0.69276 -0.70954,1.67084 -0.70954,2.93426 0,1.28175 0.23499,2.24915 0.70496,2.90223 0.46997,0.65307 1.15966,0.97961 2.06909,0.97961 z"
       style="font-size:18.75px;fill:#00c081;font-family:Open Sans"
       id="path3096" />
    <path
       d="m 293.55302,192.12576 c -1.48315,0 -2.6535,-0.45166 -3.51104,-1.35498 -0.85755,-0.90332 -1.28632,-2.15759 -1.28632,-3.76281 0,-1.61743 0.39825,-2.90222 1.19476,-3.85438 0.79651,-0.95213 1.86615,-1.42821 3.20893,-1.42822 1.25732,1e-5 2.25219,0.41353 2.98462,1.24054 0.73241,0.82704 1.09862,1.91804 1.09863,3.27301 l 0,0.96131 -6.91223,0 c 0.0305,1.17798 0.32806,2.07214 0.89264,2.68249 0.56457,0.61035 1.35955,0.91553 2.38495,0.91553 1.08031,0 2.14843,-0.22583 3.20434,-0.67749 l 0,1.35498 c -0.53712,0.23193 -1.04523,0.39825 -1.52435,0.49896 -0.47913,0.10071 -1.05744,0.15106 -1.73493,0.15106 z m -0.41198,-9.1278 c -0.80567,0 -1.44807,0.26246 -1.92719,0.78735 -0.47913,0.52491 -0.76141,1.25123 -0.84686,2.17895 l 5.24597,0 c -10e-6,-0.95824 -0.21363,-1.69219 -0.64087,-2.20184 -0.42725,-0.50963 -1.0376,-0.76446 -1.83105,-0.76446 z"
       style="font-size:18.75px;fill:#00c081;font-family:Open Sans"
       id="path3098" />
    <path
       d="m 304.15483,186.22061 c 0,-2.63061 0.51117,-4.59746 1.53351,-5.90057 1.02233,-1.30309 2.53448,-1.95464 4.53644,-1.95465 0.68969,1e-5 1.2329,0.058 1.62964,0.17395 l 0,1.3092 c -0.46998,-0.15257 -1.00709,-0.22887 -1.61133,-0.22888 -1.43433,1e-5 -2.52991,0.44709 -3.28675,1.34125 -0.75683,0.89417 -1.17187,2.29951 -1.24511,4.216 l 0.10986,0 c 0.67138,-1.0498 1.73339,-1.5747 3.18604,-1.57471 1.20238,1e-5 2.14995,0.36317 2.84271,1.08948 0.69274,0.72633 1.03911,1.71204 1.03912,2.95715 -10e-6,1.39161 -0.37995,2.48566 -1.13983,3.28217 -0.7599,0.79651 -1.78681,1.19476 -3.08075,1.19476 -1.3855,0 -2.48413,-0.52032 -3.2959,-1.56097 -0.81177,-1.04065 -1.21765,-2.48871 -1.21765,-4.34418 z m 4.49524,4.61426 c 0.86669,0 1.5396,-0.27313 2.01874,-0.8194 0.47912,-0.54626 0.71868,-1.33514 0.71869,-2.36664 -10e-6,-0.885 -0.22279,-1.5808 -0.66834,-2.0874 -0.44556,-0.50658 -1.11084,-0.75988 -1.99585,-0.75989 -0.54932,1e-5 -1.05286,0.11293 -1.51062,0.33875 -0.45777,0.22584 -0.82245,0.53711 -1.09405,0.93384 -0.27161,0.39673 -0.40742,0.80872 -0.40741,1.23596 -10e-6,0.62867 0.12206,1.2146 0.36621,1.75781 0.24414,0.54322 0.59051,0.97351 1.03912,1.2909 0.44861,0.31738 0.95977,0.47607 1.53351,0.47607 z"
       style="font-size:18.75px;fill:#00c081;font-family:Open Sans"
       id="path3100" />
    <path
       d="m 333.08549,191.94266 0,-6.52771 c -10e-6,-0.79956 -0.17091,-1.39923 -0.51269,-1.79901 -0.34181,-0.39978 -0.87282,-0.59967 -1.59302,-0.59967 -0.94605,0 -1.64491,0.27161 -2.09656,0.81482 -0.45167,0.54322 -0.6775,1.3794 -0.67749,2.50854 l 0,5.60303 -1.51977,0 0,-6.52771 c -1e-5,-0.79956 -0.17091,-1.39923 -0.5127,-1.79901 -0.3418,-0.39978 -0.87586,-0.59967 -1.60217,-0.59967 -0.95215,0 -1.64948,0.28534 -2.09198,0.85601 -0.44251,0.57069 -0.66376,1.50605 -0.66376,2.8061 l 0,5.26428 -1.51977,0 0,-10.03418 1.23596,0 0.24719,1.37329 0.0732,0 c 0.28687,-0.48827 0.69122,-0.86974 1.21308,-1.14441 0.52184,-0.27465 1.10625,-0.41198 1.75323,-0.41199 1.5686,1e-5 2.59399,0.56764 3.07617,1.70288 l 0.0732,0 c 0.29906,-0.52489 0.73241,-0.93993 1.30005,-1.24511 0.56761,-0.30517 1.21458,-0.45776 1.94091,-0.45777 1.13524,1e-5 1.98516,0.29146 2.54975,0.87433 0.56456,0.5829 0.84684,1.51521 0.84686,2.79694 l 0,6.54602 z"
       style="font-size:18.75px;fill:#00c081;font-family:Open Sans"
       id="path3102" />
    <path
       d="m 341.96611,192.12576 c -1.48316,0 -2.65351,-0.45166 -3.51105,-1.35498 -0.85754,-0.90332 -1.28631,-2.15759 -1.28631,-3.76281 0,-1.61743 0.39825,-2.90222 1.19476,-3.85438 0.79651,-0.95213 1.86615,-1.42821 3.20892,-1.42822 1.25732,1e-5 2.25219,0.41353 2.98462,1.24054 0.73242,0.82704 1.09863,1.91804 1.09864,3.27301 l 0,0.96131 -6.91224,0 c 0.0305,1.17798 0.32806,2.07214 0.89264,2.68249 0.56457,0.61035 1.35956,0.91553 2.38495,0.91553 1.08032,0 2.14843,-0.22583 3.20435,-0.67749 l 0,1.35498 c -0.53712,0.23193 -1.04524,0.39825 -1.52436,0.49896 -0.47913,0.10071 -1.05744,0.15106 -1.73492,0.15106 z m -0.41199,-9.1278 c -0.80567,0 -1.44806,0.26246 -1.92718,0.78735 -0.47913,0.52491 -0.76142,1.25123 -0.84686,2.17895 l 5.24597,0 c -10e-6,-0.95824 -0.21363,-1.69219 -0.64087,-2.20184 -0.42726,-0.50963 -1.03761,-0.76446 -1.83106,-0.76446 z"
       style="font-size:18.75px;fill:#00c081;font-family:Open Sans"
       id="path3104" />
    <path
       d="m 354.71025,189.20523 c -10e-6,0.93384 -0.34791,1.65405 -1.0437,2.16065 -0.69581,0.50659 -1.67237,0.75988 -2.92969,0.75988 -1.33057,0 -2.36816,-0.21057 -3.11279,-0.63171 l 0,-1.40991 c 0.48218,0.24414 0.99945,0.4364 1.55182,0.57678 0.55236,0.14038 1.08489,0.21057 1.59759,0.21057 0.79346,0 1.40381,-0.12665 1.83106,-0.37994 0.42724,-0.2533 0.64086,-0.63934 0.64087,-1.15815 -10e-6,-0.39062 -0.16938,-0.72478 -0.50812,-1.0025 -0.33875,-0.2777 -0.99946,-0.60577 -1.98212,-0.98419 -0.93384,-0.3479 -1.5976,-0.65154 -1.99127,-0.91095 -0.39368,-0.25939 -0.68665,-0.55389 -0.87891,-0.88348 -0.19226,-0.32959 -0.28839,-0.72326 -0.28839,-1.18103 0,-0.81787 0.33264,-1.46331 0.99793,-1.93634 0.66528,-0.47302 1.57775,-0.70953 2.73742,-0.70954 1.08032,1e-5 2.13623,0.21974 3.16773,0.65918 l -0.54016,1.23596 c -1.00709,-0.41503 -1.91956,-0.62255 -2.73743,-0.62255 -0.72022,0 -1.26343,0.11292 -1.62964,0.33874 -0.36621,0.22584 -0.54932,0.53712 -0.54931,0.93384 -10e-6,0.26856 0.0687,0.49744 0.20599,0.68664 0.13733,0.18922 0.35858,0.36927 0.66376,0.54016 0.30517,0.17091 0.89111,0.4181 1.75781,0.74158 1.19018,0.43336 1.99432,0.86976 2.41241,1.30921 0.41809,0.43945 0.62713,0.99182 0.62714,1.6571 z"
       style="font-size:18.75px;fill:#00c081;font-family:Open Sans"
       id="path3106" />
    <path
       d="m 361.41191,192.12576 c -1.48316,0 -2.65351,-0.45166 -3.51105,-1.35498 -0.85754,-0.90332 -1.28631,-2.15759 -1.28631,-3.76281 0,-1.61743 0.39825,-2.90222 1.19476,-3.85438 0.79651,-0.95213 1.86615,-1.42821 3.20892,-1.42822 1.25732,1e-5 2.25219,0.41353 2.98462,1.24054 0.73242,0.82704 1.09863,1.91804 1.09864,3.27301 l 0,0.96131 -6.91224,0 c 0.0305,1.17798 0.32807,2.07214 0.89264,2.68249 0.56458,0.61035 1.35956,0.91553 2.38495,0.91553 1.08032,0 2.14843,-0.22583 3.20435,-0.67749 l 0,1.35498 c -0.53712,0.23193 -1.04524,0.39825 -1.52435,0.49896 -0.47914,0.10071 -1.05745,0.15106 -1.73493,0.15106 z m -0.41199,-9.1278 c -0.80566,0 -1.44806,0.26246 -1.92718,0.78735 -0.47913,0.52491 -0.76142,1.25123 -0.84686,2.17895 l 5.24597,0 c -1e-5,-0.95824 -0.21363,-1.69219 -0.64087,-2.20184 -0.42725,-0.50963 -1.03761,-0.76446 -1.83106,-0.76446 z"
       style="font-size:18.75px;fill:#00c081;font-family:Open Sans"
       id="path3108" />
    <path
       d="m 374.15605,189.20523 c -10e-6,0.93384 -0.34791,1.65405 -1.0437,2.16065 -0.69581,0.50659 -1.67237,0.75988 -2.92969,0.75988 -1.33057,0 -2.36816,-0.21057 -3.11279,-0.63171 l 0,-1.40991 c 0.48218,0.24414 0.99945,0.4364 1.55182,0.57678 0.55236,0.14038 1.0849,0.21057 1.59759,0.21057 0.79346,0 1.40381,-0.12665 1.83106,-0.37994 0.42724,-0.2533 0.64086,-0.63934 0.64087,-1.15815 -1e-5,-0.39062 -0.16938,-0.72478 -0.50812,-1.0025 -0.33875,-0.2777 -0.99946,-0.60577 -1.98212,-0.98419 -0.93384,-0.3479 -1.59759,-0.65154 -1.99127,-0.91095 -0.39368,-0.25939 -0.68665,-0.55389 -0.8789,-0.88348 -0.19227,-0.32959 -0.2884,-0.72326 -0.2884,-1.18103 0,-0.81787 0.33264,-1.46331 0.99793,-1.93634 0.66528,-0.47302 1.57775,-0.70953 2.73743,-0.70954 1.08031,1e-5 2.13622,0.21974 3.16772,0.65918 l -0.54016,1.23596 c -1.00709,-0.41503 -1.91956,-0.62255 -2.73743,-0.62255 -0.72022,0 -1.26343,0.11292 -1.62964,0.33874 -0.36621,0.22584 -0.54932,0.53712 -0.54931,0.93384 -1e-5,0.26856 0.0687,0.49744 0.20599,0.68664 0.13733,0.18922 0.35858,0.36927 0.66376,0.54016 0.30517,0.17091 0.89111,0.4181 1.75781,0.74158 1.19018,0.43336 1.99432,0.86976 2.41242,1.30921 0.41808,0.43945 0.62712,0.99182 0.62713,1.6571 z"
       style="font-size:18.75px;fill:#00c081;font-family:Open Sans"
       id="path3110" />
  </g>
  <path
     style="fill:#5f5f5f"
     d="m 190.39243,205 0,54.83984 -2,-0.83984 3.5,10 3.5,-9.8457 -2,0.75195 0,-54.90625 -3,0 z"
     id="path135" />
  <path
     style="fill:#5f5f5f"
     d="m 325.39244,205 0,28.83984 -2,-0.83984 3.5,10 3.5,-9.8457 -2,0.75195 0,-28.90625 -3,0 z"
     id="path137" />
</svg>
