<?xml version="1.0" encoding="UTF-8" standalone="no"?>
<!-- Created with Inkscape (http://www.inkscape.org/) -->

<svg
   xmlns:dc="http://purl.org/dc/elements/1.1/"
   xmlns:cc="http://creativecommons.org/ns#"
   xmlns:rdf="http://www.w3.org/1999/02/22-rdf-syntax-ns#"
   xmlns:svg="http://www.w3.org/2000/svg"
   xmlns="http://www.w3.org/2000/svg"
   xmlns:sodipodi="http://sodipodi.sourceforge.net/DTD/sodipodi-0.dtd"
   xmlns:inkscape="http://www.inkscape.org/namespaces/inkscape"
   width="724.5"
   height="605"
   id="svg668913"
   version="1.1"
   inkscape:version="0.91 r13725"
   sodipodi:docname="autoyast_rules.svg">
  <defs
     id="defs668915" />
  <sodipodi:namedview
     id="base"
     pagecolor="#ffffff"
     bordercolor="#666666"
     borderopacity="1.0"
     inkscape:pageopacity="1"
     inkscape:pageshadow="2"
     inkscape:zoom="1.4"
     inkscape:cx="344.24002"
     inkscape:cy="204.73515"
     inkscape:document-units="px"
     inkscape:current-layer="layer1"
     showgrid="false"
     inkscape:window-width="1857"
     inkscape:window-height="1016"
     inkscape:window-x="63"
     inkscape:window-y="27"
     inkscape:window-maximized="1"
     showguides="true"
     inkscape:guide-bbox="true">
    <inkscape:grid
       type="xygrid"
       id="grid750074"
       empspacing="5"
       visible="true"
       enabled="true"
       snapvisiblegridlinesonly="true" />
  </sodipodi:namedview>
  <metadata
     id="metadata668918">
    <rdf:RDF>
      <cc:Work
         rdf:about="">
        <dc:format>image/svg+xml</dc:format>
        <dc:type
           rdf:resource="http://purl.org/dc/dcmitype/StillImage" />
        <dc:title />
      </cc:Work>
    </rdf:RDF>
  </metadata>
  <g
     inkscape:label="Ebene 1"
     inkscape:groupmode="layer"
     id="layer1"
     transform="translate(0,-447.36218)">
    <path
       d="m 384.32039,882.10658 c -20.21418,0 -37.54422,12.22996 -45.01021,29.71549 -3.76097,-2.60168 -8.33648,-4.0786 -13.25544,-4.0786 -12.09145,0 -21.99994,9.18919 -23.16059,20.97563 -0.0483,-2.3e-4 -0.0949,0 -0.1465,0 -20.59474,0 -37.29002,16.69521 -37.29002,37.29002 0,20.59458 16.69528,37.28998 37.29002,37.28998 l 125.85381,0 c 16.73323,0 30.29814,-13.5649 30.29814,-30.2981 0,-15.66251 -11.85057,-28.56742 -27.09353,-30.15248 0.93691,-3.7819 1.45664,-7.72765 1.45664,-11.79879 0,-27.0306 -21.91255,-48.94315 -48.94315,-48.94315 z"
       id="path10823-1-2"
       style="color:#000000;display:inline;overflow:visible;visibility:visible;fill:none;stroke:#464546;stroke-width:2;stroke-miterlimit:4;stroke-dasharray:none;stroke-opacity:1;marker:none;enable-background:accumulate"
       inkscape:connector-curvature="0" />
    <path
       inkscape:connector-curvature="0"
       id="path28548"
       style="fill:#02d35f;fill-opacity:1;fill-rule:nonzero;stroke:none"
       d="m 400.89162,919.16927 c 0,9.98125 -8.09,18.075 -18.07375,18.075 -9.98375,0 -18.0775,-8.09375 -18.0775,-18.075 0,-9.98625 8.09375,-18.08 18.0775,-18.08 9.98375,0 18.07375,8.09375 18.07375,18.08" />
    <path
       inkscape:connector-curvature="0"
       id="path28552"
       style="fill:#ffffff;fill-opacity:1;fill-rule:nonzero;stroke:none"
       d="m 389.08012,923.32077 -15.28625,0 5.33375,5.27625 15.28875,0 -5.33625,-5.27625 z m -1.7825,-2.57625 -11.71875,0 0,-9.6 11.71875,0 0,9.6 z m 1.7825,-11.0625 -15.28625,0 0,12.525 15.28625,0 0,-12.525 z" />
    <path
       inkscape:connector-curvature="0"
       id="path30000"
       style="fill:#02d35f;fill-opacity:1;fill-rule:nonzero;stroke:none"
       d="m 325.12634,970.6833 c 0,9.9825 -8.09375,18.07875 -18.07625,18.07875 -9.985,0 -18.07875,-8.09625 -18.07875,-18.07875 0,-9.98375 8.09375,-18.07625 18.07875,-18.07625 9.9825,0 18.07625,8.0925 18.07625,18.07625" />
    <path
       d="m 315.20696,964.8898 -16.2675,0 0,9.1525 16.2675,0 0,-9.1525 z m 2.41,10.5925 c 0,0.5325 -0.4325,0.96375 -0.9675,0.96375 l -19.0375,0 c -0.535,0 -0.9625,-0.43125 -0.9625,-0.96375 l 0,-11.92 c 0,-0.5325 0.4275,-0.965 0.9625,-0.965 l 19.0375,0 c 0.535,0 0.9675,0.4325 0.9675,0.965 l 0,11.92 z"
       style="fill:#ffffff;fill-opacity:1;fill-rule:nonzero;stroke:none"
       id="path30002"
       inkscape:connector-curvature="0" />
    <path
       inkscape:connector-curvature="0"
       id="path30006"
       style="fill:#ffffff;fill-opacity:1;fill-rule:nonzero;stroke:none"
       d="m 313.05596,979.37105 c 0.205,0.43625 -0.0438,0.605 -0.45875,0.58375 l -10.68125,0.0213 c 0.0312,0.004 -0.79125,0.0388 -0.52,-0.58375 l 0.7075,-0.9475 c 0.4275,-0.43625 0.45,-0.4175 1.39625,-0.4175 l 7.305,0 c 0.9475,0 1.09375,-0.0387 1.41625,0.345 l 0.835,0.99875 z" />
    <path
       inkscape:connector-curvature="0"
       id="path30000-6"
       style="fill:#02d35f;fill-opacity:1;fill-rule:nonzero;stroke:none"
       d="m 426.62072,967.90604 c 0,9.9825 -8.09375,18.07875 -18.07625,18.07875 -9.985,0 -18.07875,-8.09625 -18.07875,-18.07875 0,-9.98375 8.09375,-18.07625 18.07875,-18.07625 9.9825,0 18.07625,8.0925 18.07625,18.07625" />
    <path
       d="m 416.70134,962.11254 -16.2675,0 0,9.1525 16.2675,0 0,-9.1525 z m 2.41,10.5925 c 0,0.5325 -0.4325,0.96375 -0.9675,0.96375 l -19.0375,0 c -0.535,0 -0.9625,-0.43125 -0.9625,-0.96375 l 0,-11.92 c 0,-0.5325 0.4275,-0.965 0.9625,-0.965 l 19.0375,0 c 0.535,0 0.9675,0.4325 0.9675,0.965 l 0,11.92 z"
       style="fill:#ffffff;fill-opacity:1;fill-rule:nonzero;stroke:none"
       id="path30002-0"
       inkscape:connector-curvature="0" />
    <path
       inkscape:connector-curvature="0"
       id="path30006-1"
       style="fill:#ffffff;fill-opacity:1;fill-rule:nonzero;stroke:none"
       d="m 414.55034,976.59379 c 0.205,0.43625 -0.0437,0.605 -0.45875,0.58375 l -10.68125,0.0213 c 0.0312,0.004 -0.79125,0.0387 -0.52,-0.58375 l 0.7075,-0.9475 c 0.4275,-0.43625 0.45,-0.4175 1.39625,-0.4175 l 7.305,0 c 0.9475,0 1.09375,-0.0388 1.41625,0.345 l 0.835,0.99875 z" />
    <path
       inkscape:connector-curvature="0"
       id="path28548-7"
       style="fill:#02d35f;fill-opacity:1;fill-rule:nonzero;stroke:none"
       d="m 370.26294,953.19968 c 0,9.98125 -8.09,18.075 -18.07375,18.075 -9.98375,0 -18.0775,-8.09375 -18.0775,-18.075 0,-9.98625 8.09375,-18.08 18.0775,-18.08 9.98375,0 18.07375,8.09375 18.07375,18.08" />
    <path
       inkscape:connector-curvature="0"
       id="path28552-1"
       style="fill:#ffffff;fill-opacity:1;fill-rule:nonzero;stroke:none"
       d="m 358.45144,957.35118 -15.28625,0 5.33375,5.27625 15.28875,0 -5.33625,-5.27625 z m -1.7825,-2.57625 -11.71875,0 0,-9.6 11.71875,0 0,9.6 z m 1.7825,-11.0625 -15.28625,0 0,12.525 15.28625,0 0,-12.525 z" />
    <path
       inkscape:connector-curvature="0"
       id="path695198"
       style="fill:#fd9a2b;fill-opacity:1;fill-rule:nonzero;stroke:none"
       d="m 156.86824,918.34944 c 0,9.98125 -8.09,18.075 -18.07375,18.075 -9.98375,0 -18.0775,-8.09375 -18.0775,-18.075 0,-9.98625 8.09375,-18.08 18.0775,-18.08 9.98375,0 18.07375,8.09375 18.07375,18.08" />
    <path
       inkscape:connector-curvature="0"
       id="path695202"
       style="fill:#ffffff;fill-opacity:1;fill-rule:nonzero;stroke:none"
       d="m 145.05674,922.50094 -15.28625,0 5.33375,5.27625 15.28875,0 -5.33625,-5.27625 z m -1.7825,-2.57625 -11.71875,0 0,-9.6 11.71875,0 0,9.6 z m 1.7825,-11.0625 -15.28625,0 0,12.525 15.28625,0 0,-12.525 z" />
    <path
       inkscape:connector-curvature="0"
       id="path696650"
       style="fill:#fd9a2b;fill-opacity:1;fill-rule:nonzero;stroke:none"
       d="m 81.10868,964.81271 c 0,9.9825 -8.09375,18.07875 -18.07625,18.07875 -9.985,0 -18.07875,-8.09625 -18.07875,-18.07875 0,-9.98375 8.09375,-18.07625 18.07875,-18.07625 9.9825,0 18.07625,8.0925 18.07625,18.07625" />
    <path
       d="m 71.1893,959.01921 -16.2675,0 0,9.1525 16.2675,0 0,-9.1525 z m 2.41,10.5925 c 0,0.5325 -0.4325,0.96375 -0.9675,0.96375 l -19.0375,0 c -0.535,0 -0.9625,-0.43125 -0.9625,-0.96375 l 0,-11.92 c 0,-0.5325 0.4275,-0.965 0.9625,-0.965 l 19.0375,0 c 0.535,0 0.9675,0.4325 0.9675,0.965 l 0,11.92 z"
       style="fill:#ffffff;fill-opacity:1;fill-rule:nonzero;stroke:none"
       id="path696652"
       inkscape:connector-curvature="0" />
    <path
       inkscape:connector-curvature="0"
       id="path696656"
       style="fill:#ffffff;fill-opacity:1;fill-rule:nonzero;stroke:none"
       d="m 69.0383,973.50046 c 0.205,0.43625 -0.0437,0.605 -0.45875,0.58375 l -10.68125,0.0213 c 0.0312,0.004 -0.79125,0.0388 -0.52,-0.58375 l 0.7075,-0.9475 c 0.4275,-0.43625 0.45,-0.4175 1.39625,-0.4175 l 7.305,0 c 0.9475,0 1.09375,-0.0387 1.41625,0.345 l 0.835,0.99875 z" />
    <path
       d="m 139.72119,881.99432 c -20.21418,0 -37.54422,12.22996 -45.01021,29.71549 -3.76097,-2.60168 -8.33648,-4.0786 -13.25544,-4.0786 -12.09145,0 -21.99994,9.18919 -23.16059,20.97563 -0.0483,-2.3e-4 -0.0949,0 -0.1465,0 -20.59474,0 -37.29002,16.69521 -37.29002,37.29002 0,20.59457 16.69528,37.29004 37.29002,37.29004 l 125.85381,0 c 16.73323,0 30.29814,-13.56497 30.29814,-30.29816 0,-15.66251 -11.85057,-28.56742 -27.09353,-30.15248 0.93691,-3.7819 1.45664,-7.72765 1.45664,-11.79879 0,-27.0306 -21.91255,-48.94315 -48.94315,-48.94315 z"
       id="path10823-1-2-1"
       style="color:#000000;display:inline;overflow:visible;visibility:visible;fill:none;stroke:#464546;stroke-width:2;stroke-miterlimit:4;stroke-dasharray:none;stroke-opacity:1;marker:none;enable-background:accumulate"
       inkscape:connector-curvature="0" />
    <path
       inkscape:connector-curvature="0"
       id="path696650-3"
       style="fill:#fd9a2b;fill-opacity:1;fill-rule:nonzero;stroke:none"
       d="m 127.57569,956.73149 c 0,9.9825 -8.09375,18.07875 -18.07625,18.07875 -9.985,0 -18.07875,-8.09625 -18.07875,-18.07875 0,-9.98375 8.09375,-18.07625 18.07875,-18.07625 9.9825,0 18.07625,8.0925 18.07625,18.07625" />
    <path
       d="m 117.65631,950.93799 -16.2675,0 0,9.1525 16.2675,0 0,-9.1525 z m 2.41,10.5925 c 0,0.5325 -0.4325,0.96375 -0.9675,0.96375 l -19.0375,0 c -0.535,0 -0.9625,-0.43125 -0.9625,-0.96375 l 0,-11.92 c 0,-0.5325 0.4275,-0.965 0.9625,-0.965 l 19.0375,0 c 0.535,0 0.9675,0.4325 0.9675,0.965 l 0,11.92 z"
       style="fill:#ffffff;fill-opacity:1;fill-rule:nonzero;stroke:none"
       id="path696652-5"
       inkscape:connector-curvature="0" />
    <path
       inkscape:connector-curvature="0"
       id="path696656-1"
       style="fill:#ffffff;fill-opacity:1;fill-rule:nonzero;stroke:none"
       d="m 115.50531,965.41924 c 0.205,0.43625 -0.0437,0.605 -0.45875,0.58375 l -10.68125,0.0213 c 0.0312,0.004 -0.79125,0.0388 -0.52,-0.58375 l 0.7075,-0.9475 c 0.4275,-0.43625 0.45,-0.4175 1.39625,-0.4175 l 7.305,0 c 0.9475,0 1.09375,-0.0387 1.41625,0.345 l 0.835,0.99875 z" />
    <path
       inkscape:connector-curvature="0"
       id="path695198-4"
       style="fill:#fd9a2b;fill-opacity:1;fill-rule:nonzero;stroke:none"
       d="m 178.08144,965.82662 c 0,9.98125 -8.09,18.075 -18.07375,18.075 -9.98375,0 -18.0775,-8.09375 -18.0775,-18.075 0,-9.98625 8.09375,-18.08 18.0775,-18.08 9.98375,0 18.07375,8.09375 18.07375,18.08" />
    <path
       inkscape:connector-curvature="0"
       id="path695202-8"
       style="fill:#ffffff;fill-opacity:1;fill-rule:nonzero;stroke:none"
       d="m 166.26994,969.97812 -15.28625,0 5.33375,5.27625 15.28875,0 -5.33625,-5.27625 z m -1.7825,-2.57625 -11.71875,0 0,-9.6 11.71875,0 0,9.6 z m 1.7825,-11.0625 -15.28625,0 0,12.525 15.28625,0 0,-12.525 z" />
    <path
       d="m 629.94368,881.99393 c -20.21418,0 -37.54422,12.22996 -45.01021,29.71549 -3.76097,-2.60168 -8.33648,-4.0786 -13.25544,-4.0786 -12.09145,0 -21.99994,9.18919 -23.16059,20.97563 -0.0483,-2.3e-4 -0.0949,0 -0.1465,0 -20.59474,0 -37.29002,16.69521 -37.29002,37.29002 0,20.59458 16.69528,37.29003 37.29002,37.29003 l 125.85381,0 c 16.73323,0 30.29814,-13.56495 30.29814,-30.29815 0,-15.66251 -11.85057,-28.56742 -27.09353,-30.15248 0.93691,-3.7819 1.45664,-7.72765 1.45664,-11.79879 0,-27.0306 -21.91255,-48.94315 -48.94315,-48.94315 z"
       id="path10823-1-2-0"
       style="color:#000000;display:inline;overflow:visible;visibility:visible;fill:none;stroke:#464546;stroke-width:2;stroke-miterlimit:4;stroke-dasharray:none;stroke-opacity:1;marker:none;enable-background:accumulate"
       inkscape:connector-curvature="0" />
    <path
       inkscape:connector-curvature="0"
       id="path704110"
       style="fill:#00b2e2;fill-opacity:1;fill-rule:nonzero;stroke:none"
       d="m 648.10089,913.29891 c 0,9.98 -8.0925,18.07375 -18.07375,18.07375 -9.98375,0 -18.0775,-8.09375 -18.0775,-18.07375 0,-9.9875 8.09375,-18.08 18.0775,-18.08 9.98125,0 18.07375,8.0925 18.07375,18.08" />
    <path
       d="m 634.96202,920.04341 -2.6475,0 0,1.2675 2.6475,0 0,-1.2675 z m -3.5275,0 -2.6475,0 0,1.2675 2.6475,0 0,-1.2675 z m -3.53125,0 -2.645,0 0,1.2675 2.645,0 0,-1.2675 z m 3.36125,-6.43875 -2.77125,0 0,1.2675 2.77125,0 0,-1.2675 z m 3.70625,-7.65375 -2.77125,0 0,1.2675 2.77125,0 0,-1.2675 z m 0,7.65375 -2.77125,0 0,1.2675 2.77125,0 0,-1.2675 z m 1.3275,11.34 -2.46375,0 0,0.98625 2.46375,0 0,-0.98625 z m -12.4725,-15.565 12.4725,0 0,6.67625 -12.4725,0 0,-6.67625 z m 0,7.975 12.4725,0 0,6.91375 -12.4725,0 0,-6.91375 z m 12.4725,-9.2725 -12.4725,0 0,-6.62875 12.4725,0 0,6.62875 z m -10.00875,17.84875 -2.46375,0 0,-0.98625 2.46375,0 0,0.98625 z"
       style="fill:#ffffff;fill-opacity:1;fill-rule:nonzero;stroke:none"
       id="path704112"
       inkscape:connector-curvature="0" />
    <path
       inkscape:connector-curvature="0"
       id="path705718"
       style="fill:#00b2e2;fill-opacity:1;fill-rule:nonzero;stroke:none"
       d="m 576.38068,965.82747 c 0,9.98 -8.09375,18.07375 -18.07375,18.07375 -9.985,0 -18.07875,-8.09375 -18.07875,-18.07375 0,-9.9875 8.09375,-18.08125 18.07875,-18.08125 9.98,0 18.07375,8.09375 18.07375,18.08125" />
    <path
       d="m 563.3643,974.46697 -2.1025,0 0,1.0075 2.1025,0 0,-1.0075 z m -2.8,0 -2.10125,0 0,1.0075 2.10125,0 0,-1.0075 z m -2.80375,0 -2.1,0 0,1.0075 2.1,0 0,-1.0075 z m 6.81625,3.00625 -2.46375,0 0,0.98625 2.46375,0 0,-0.98625 z m -12.47125,-23.48875 12.47125,0 0,22.8125 -12.47125,0 0,-22.8125 z m 2.46375,24.475 -2.46375,0 0,-0.98625 2.46375,0 0,0.98625 z"
       style="fill:#ffffff;fill-opacity:1;fill-rule:nonzero;stroke:none"
       id="path705720"
       inkscape:connector-curvature="0" />
    <path
       inkscape:connector-curvature="0"
       id="path705704"
       style="fill:#00b2e2;fill-opacity:1;fill-rule:nonzero;stroke:none"
       d="m 673.3547,968.8573 c 0,9.98 -8.0925,18.07375 -18.07375,18.07375 -9.98375,0 -18.0775,-8.09375 -18.0775,-18.07375 0,-9.9875 8.09375,-18.08 18.0775,-18.08 9.98125,0 18.07375,8.0925 18.07375,18.08" />
    <path
       d="m 660.3397,978.5018 -2.1025,0 0,-1.005 2.1025,0 z m -2.8,0 -2.10125,0 0,-1.005 2.10125,0 z m -2.805,0 -2.10125,0 0,-1.005 2.10125,0 z m -5.655,1.325 12.4725,0 0,-22.8125 -12.4725,0 z m 10.00875,1.6625 2.46375,0 0,-0.98625 -2.46375,0 z m -10.00875,0 2.46375,0 0,-0.98625 -2.46375,0 z"
       style="fill:#ffffff;fill-opacity:1;fill-rule:nonzero;stroke:none"
       id="path705706"
       inkscape:connector-curvature="0"
       sodipodi:nodetypes="cccccccccccccccccccccccccccccc" />
    <path
       inkscape:connector-curvature="0"
       id="path705486"
       style="fill:#00b2e2;fill-opacity:1;fill-rule:nonzero;stroke:none"
       d="m 624.86675,954.71329 c 0,9.9825 -8.09125,18.07625 -18.07375,18.07625 -9.9825,0 -18.07625,-8.09375 -18.07625,-18.07625 0,-9.985 8.09375,-18.07875 18.07625,-18.07875 9.9825,0 18.07375,8.09375 18.07375,18.07875" />
    <path
       d="m 601.8275,959.88779 0.9325,0 0,4.8475 -0.9325,0 0,-4.8475 z m 1.79375,0 0.9325,0 0,4.8475 -0.9325,0 0,-4.8475 z m 1.795,0 0.935,0 0,4.8475 -0.935,0 0,-4.8475 z m 1.79375,0 0.935,0 0,4.8475 -0.935,0 0,-4.8475 z m 1.7975,0 0.9325,0 0,4.8475 -0.9325,0 0,-4.8475 z m 1.79375,0 0.9325,0 0,4.8475 -0.9325,0 0,-4.8475 z m -10.21,5.7975 12.47375,0 0,-6.91625 -12.47375,0 0,6.91625 z"
       style="fill:#ffffff;fill-opacity:1;fill-rule:nonzero;stroke:none"
       id="path705488"
       inkscape:connector-curvature="0" />
    <path
       d="m 610.60125,967.34654 2.46375,0 0,-0.98625 -2.46375,0 0,0.98625 z"
       style="fill:#ffffff;fill-opacity:1;fill-rule:nonzero;stroke:none"
       id="path705490"
       inkscape:connector-curvature="0" />
    <path
       d="m 601.8275,951.83904 0.9325,0 0,4.8475 -0.9325,0 0,-4.8475 z m 1.79375,0 0.9325,0 0,4.8475 -0.9325,0 0,-4.8475 z m 1.795,0 0.935,0 0,4.8475 -0.935,0 0,-4.8475 z m 1.79375,0 0.935,0 0,4.8475 -0.935,0 0,-4.8475 z m 1.7975,0 0.9325,0 0,4.8475 -0.9325,0 0,-4.8475 z m 1.79375,0 0.9325,0 0,4.8475 -0.9325,0 0,-4.8475 z m -10.21,5.6325 12.47375,0 0,-6.6775 -12.47375,0 0,6.6775 z"
       style="fill:#ffffff;fill-opacity:1;fill-rule:nonzero;stroke:none"
       id="path705492"
       inkscape:connector-curvature="0" />
    <path
       d="m 600.59125,967.34654 2.46375,0 0,-0.98625 -2.46375,0 0,0.98625 z"
       style="fill:#ffffff;fill-opacity:1;fill-rule:nonzero;stroke:none"
       id="path705494"
       inkscape:connector-curvature="0" />
    <path
       d="m 611.735,948.63654 -0.9325,0 0,-4.8475 0.9325,0 0,4.8475 z m -1.795,0 -0.9325,0 0,-4.8475 0.9325,0 0,4.8475 z m -1.795,0 -0.935,0 0,-4.8475 0.935,0 0,4.8475 z m -1.79375,0 -0.935,0 0,-4.8475 0.935,0 0,4.8475 z m -1.7975,0 -0.9325,0 0,-4.8475 0.9325,0 0,4.8475 z m -1.79375,0 -0.9325,0 0,-4.8475 0.9325,0 0,4.8475 z m -2.16875,0.8625 12.47375,0 0,-6.62875 -12.47375,0 0,6.62875 z"
       style="fill:#ffffff;fill-opacity:1;fill-rule:nonzero;stroke:none"
       id="path705496"
       inkscape:connector-curvature="0" />
    <text
       xml:space="preserve"
       style="font-size:22px;font-style:normal;font-variant:normal;font-weight:normal;font-stretch:normal;line-height:125%;letter-spacing:0px;word-spacing:0px;fill:#000000;fill-opacity:1;stroke:none;font-family:Open Sans;-inkscape-font-specification:Open Sans"
       x="286.9003"
       y="1028.1145"
       id="text750098"
       sodipodi:linespacing="125%"><tspan
         sodipodi:role="line"
         id="tspan750100"
         x="286.9003"
         y="1028.1145"
         style="font-size:18px">Sales Department</tspan></text>
    <text
       xml:space="preserve"
       style="font-size:22px;font-style:normal;font-variant:normal;font-weight:normal;font-stretch:normal;line-height:125%;letter-spacing:0px;word-spacing:0px;fill:#000000;fill-opacity:1;stroke:none;font-family:Open Sans;-inkscape-font-specification:Open Sans"
       x="45.592598"
       y="1027.3933"
       id="text750102"
       sodipodi:linespacing="125%"><tspan
         sodipodi:role="line"
         id="tspan750104"
         x="45.592598"
         y="1027.3933"
         style="font-size:18px">Eng. Department</tspan></text>
    <text
       xml:space="preserve"
       style="font-size:22px;font-style:normal;font-variant:normal;font-weight:normal;font-stretch:normal;line-height:125%;letter-spacing:0px;word-spacing:0px;fill:#000000;fill-opacity:1;stroke:none;font-family:Open Sans;-inkscape-font-specification:Open Sans"
       x="580.56897"
       y="1027.3699"
       id="text750106"
       sodipodi:linespacing="125%"><tspan
         sodipodi:role="line"
         id="tspan750108"
         x="580.56897"
         y="1027.3699"
         style="font-size:18px">Server</tspan></text>
    <rect
       width="645"
       height="340"
       rx="9"
       ry="9"
       x="40"
       y="492.7193"
       id="rect6978-9-64-3-0-9-2"
       style="color:#000000;fill:#000000;fill-opacity:0.00784314;fill-rule:nonzero;stroke:#666666;stroke-width:1;stroke-linecap:butt;stroke-linejoin:miter;stroke-miterlimit:4;stroke-opacity:1;stroke-dasharray:1.99999999, 1;stroke-dashoffset:0;marker:none;visibility:visible;display:inline;overflow:visible;enable-background:accumulate" />
    <text
       xml:space="preserve"
       style="font-style:normal;font-variant:normal;font-weight:normal;font-stretch:normal;font-size:22px;line-height:125%;font-family:'Open Sans';-inkscape-font-specification:'Open Sans';letter-spacing:0px;word-spacing:0px;fill:#000000;fill-opacity:1;stroke:none"
       x="263.74707"
       y="480.21771"
       id="text1047613"
       sodipodi:linespacing="125%"><tspan
         sodipodi:role="line"
         id="tspan1047615"
         x="263.74707"
         y="480.21771">AutoYaST Directory</tspan></text>
    <text
       xml:space="preserve"
       style="font-size:22px;font-style:normal;font-variant:normal;font-weight:normal;font-stretch:normal;line-height:125%;letter-spacing:0px;word-spacing:0px;fill:#000000;fill-opacity:1;stroke:none;font-family:Open Sans;-inkscape-font-specification:Open Sans"
       x="302.64648"
       y="516.61841"
       id="text1047617"
       sodipodi:linespacing="125%"><tspan
         sodipodi:role="line"
         id="tspan1047619"
         x="302.64648"
         y="516.61841"
         style="font-size:20px">rules.xml file</tspan></text>
    <text
       xml:space="preserve"
       style="font-style:normal;font-variant:normal;font-weight:normal;font-stretch:normal;font-size:22px;line-height:125%;font-family:'Open Sans';-inkscape-font-specification:'Open Sans';letter-spacing:0px;word-spacing:0px;fill:#000000;fill-opacity:1;stroke:none"
       x="334.30484"
       y="557.1864"
       id="text1047631"
       sodipodi:linespacing="125%"><tspan
         sodipodi:role="line"
         id="tspan1047633"
         x="334.30484"
         y="557.1864"
         style="font-size:18px">Rule 1</tspan></text>
    <text
       xml:space="preserve"
       style="font-style:normal;font-variant:normal;font-weight:normal;font-stretch:normal;font-size:22px;line-height:125%;font-family:'Open Sans';-inkscape-font-specification:'Open Sans';letter-spacing:0px;word-spacing:0px;fill:#000000;fill-opacity:1;stroke:none"
       x="334.33609"
       y="582.1864"
       id="text1047635"
       sodipodi:linespacing="125%"><tspan
         sodipodi:role="line"
         id="tspan1047637"
         x="334.33609"
         y="582.1864"
         style="font-size:18px">Rule 2</tspan></text>
    <text
       xml:space="preserve"
       style="font-style:normal;font-variant:normal;font-weight:normal;font-stretch:normal;font-size:22px;line-height:125%;font-family:'Open Sans';-inkscape-font-specification:'Open Sans';letter-spacing:0px;word-spacing:0px;fill:#000000;fill-opacity:1;stroke:none"
       x="334.02289"
       y="608.1864"
       id="text1047639"
       sodipodi:linespacing="125%"><tspan
         sodipodi:role="line"
         id="tspan1047641"
         x="334.02289"
         y="608.1864"
         style="font-size:18px">Rule 3</tspan></text>
    <path
       style="fill:none;stroke:#464546;stroke-width:1px;stroke-linecap:butt;stroke-linejoin:miter;stroke-opacity:1"
       d="m 324.92745,526.9866 0,95 75,0 0,-80 -15,0 0,-15 z"
       id="path1047653"
       inkscape:connector-curvature="0" />
    <path
       style="fill:none;stroke:#464546;stroke-width:1.00000012px;stroke-linecap:butt;stroke-linejoin:miter;stroke-opacity:1"
       d="m 385.07252,526.86385 15.00002,14.99999"
       id="path1047655"
       inkscape:connector-curvature="0" />
    <path
       inkscape:connector-curvature="0"
       id="path683110"
       style="fill:#5f5f5f;fill-opacity:1;fill-rule:nonzero;stroke:none"
       d="m 382.5,669.73267 c 0,11.04412 -8.95281,20.00138 -19.99931,20.00138 -11.04373,0 -20.00069,-8.95726 -20.00069,-20.00138 0,-11.04688 8.95696,-19.99862 20.00069,-19.99862 11.0465,0 19.99931,8.95174 19.99931,19.99862" />
    <path
       inkscape:connector-curvature="0"
       id="path683114"
       style="fill:#df1e26;fill-opacity:1;fill-rule:nonzero;stroke:none"
       d="m 359.90378,669.58697 0.001,0 -0.001,0 z" />
    <path
       inkscape:connector-curvature="0"
       id="path683118"
       style="fill:#ffffff;fill-opacity:1;fill-rule:nonzero;stroke:none"
       d="m 374.12303,665.32454 c -0.60432,0.2918 -1.33172,0.0346 -1.62213,-0.57253 -0.2904,-0.60573 -0.0346,-1.33454 0.57252,-1.62357 0.60709,-0.2918 1.33172,-0.0346 1.62351,0.57253 0.2904,0.6085 0.036,1.33454 -0.5739,1.62357 m 2.07156,-1.0455 c 0.036,-1.2806 1.24184,-1.00677 1.972,-1.54474 -0.0664,-0.19499 -0.14244,-0.39137 -0.23647,-0.58359 -0.19776,-0.41074 -0.44529,-0.78275 -0.73432,-1.1105 -0.7509,0.39275 -1.21002,1.58899 -2.27899,0.94869 -1.09802,-0.65413 -0.26828,-1.57793 -0.37891,-2.47683 -0.63475,-0.12447 -1.29853,-0.1217 -1.95126,0.0194 -0.0276,0.84497 0.78687,1.831 -0.2904,2.44641 -1.11046,0.63477 -1.50873,-0.5352 -2.34676,-0.88093 -0.35679,0.42179 -0.63751,0.89476 -0.83527,1.40506 0.69698,0.48679 1.96647,0.34573 1.89041,1.58761 -0.0761,1.27507 -1.27364,0.96252 -2.0204,1.47559 0.0719,0.24893 0.16457,0.49647 0.28211,0.73987 0.17148,0.36233 0.38721,0.69147 0.62783,0.98603 0.76889,-0.36509 1.26396,-1.54473 2.31495,-0.86986 1.07312,0.69423 0.21435,1.58346 0.29318,2.48236 0.63336,0.14798 1.29576,0.17011 1.95402,0.0512 0.0512,-0.84497 -0.72879,-1.85866 0.37338,-2.43949 1.12981,-0.59605 1.4866,0.58913 2.31218,0.95975 0.44391,-0.48956 0.78272,-1.05932 0.99568,-1.67473 -0.70804,-0.46467 -1.97476,-0.27797 -1.94296,-1.52123 m -16.60017,11.96515 c -2.54313,0 -4.60224,-2.06057 -4.60224,-4.6024 0,-2.54184 2.05911,-4.60241 4.60224,-4.60241 2.54037,0 4.60087,2.06057 4.60087,4.60241 0,2.54183 -2.0605,4.6024 -4.60087,4.6024 m 9.56128,-5.61471 c -0.10095,-1.4023 2.09646,-1.08284 2.80864,-1.94441 -0.11892,-0.49786 -0.26551,-0.98327 -0.44252,-1.45623 -1.00121,-0.30286 -2.85151,1.07454 -3.47796,-0.1784 -0.63336,-1.2557 1.51703,-1.7992 1.84892,-2.8682 -0.29732,-0.4135 -0.62645,-0.80764 -0.97355,-1.18656 -1.04408,0.10925 -2.22368,2.0827 -3.27883,1.16719 -1.0662,-0.91826 0.71357,-2.2445 0.60986,-3.36053 -0.43146,-0.26137 -0.87814,-0.502 -1.33864,-0.71774 -0.92515,0.49647 -1.26257,2.7797 -2.59015,2.33578 -1.33586,-0.44254 -0.19913,-2.34684 -0.72048,-3.33841 -0.49922,-0.0802 -1.00812,-0.12861 -1.52671,-0.14797 -0.6624,0.81316 -0.0982,3.04384 -1.49213,3.14618 -1.40225,0.10095 -1.08142,-2.09515 -1.94711,-2.80874 -0.49507,0.11893 -0.98046,0.2669 -1.45341,0.437 -0.307,1.00816 1.0745,2.85853 -0.17563,3.485 -1.25704,0.62923 -1.8019,-1.51846 -2.87502,-1.85313 -0.4121,0.30562 -0.80899,0.62923 -1.18513,0.97496 0.10925,1.0455 2.08677,2.22376 1.17407,3.28171 -0.92239,1.06209 -2.24719,-0.71498 -3.36318,-0.60988 -0.26413,0.42871 -0.50614,0.8754 -0.71772,1.34007 0.49231,0.92656 2.77545,1.26123 2.33431,2.58747 -0.4439,1.3373 -2.34814,0.19637 -3.33828,0.72051 -0.0788,0.50062 -0.13138,1.00816 -0.14659,1.52676 0.8159,0.66104 3.04097,0.0996 3.14054,1.49357 0.10509,1.40367 -2.08955,1.08283 -2.80726,1.9444 0.12031,0.49648 0.26413,0.98327 0.44114,1.45623 1.00812,0.30287 2.85704,-1.07592 3.48487,0.17564 0.62783,1.25847 -1.51979,1.80058 -1.85445,2.87097 0.30423,0.41349 0.62783,0.8104 0.97355,1.18241 1.04685,-0.10511 2.22368,-2.07994 3.28159,-1.16305 1.06344,0.91827 -0.71633,2.2445 -0.60847,3.35638 0.4287,0.26829 0.87537,0.50754 1.34002,0.71913 0.92238,-0.49509 1.25843,-2.77694 2.586,-2.3344 1.33448,0.44669 0.19913,2.34823 0.72048,3.33841 0.49784,0.0788 1.00813,0.12723 1.52671,0.14935 0.66378,-0.81316 0.0996,-3.0466 1.4949,-3.14755 1.40363,-0.0996 1.08418,2.09376 1.94434,2.81012 0.49369,-0.11893 0.98323,-0.26829 1.45479,-0.44392 0.30424,-1.00125 -1.07035,-2.84885 0.1784,-3.47532 1.25704,-0.632 1.79775,1.51431 2.86672,1.84484 0.41487,-0.29733 0.81175,-0.62371 1.18652,-0.97221 -0.10649,-1.04273 -2.07986,-2.22099 -1.16578,-3.28032 0.92101,-1.06071 2.24028,0.71636 3.35627,0.61403 0.2669,-0.43286 0.50614,-0.88093 0.72048,-1.34007 -0.49369,-0.92933 -2.77822,-1.26123 -2.33569,-2.59023 0.44252,-1.33454 2.34814,-0.19776 3.34105,-0.72051 0.0774,-0.50063 0.12723,-1.01093 0.14935,-1.52953 -0.8159,-0.65689 -3.04788,-0.0968 -3.14883,-1.4908" />
    <path
       id="path1049603"
       style="font-style:normal;font-variant:normal;font-weight:normal;font-stretch:normal;font-size:18px;line-height:125%;font-family:'Open Sans';-inkscape-font-specification:'Open Sans';text-align:center;letter-spacing:0px;word-spacing:0px;text-anchor:middle;fill:#000000;fill-opacity:1;stroke:none"
       d="m 109.5385,757.18709 -6.1146,0 0,-10.97037 6.1146,0 0,1.13306 -4.83916,0 0,3.53423 4.54655,0 0,1.12555 -4.54655,0 0,4.03697 4.83916,0 0,1.14056"
       inkscape:connector-curvature="0" />
    <path
       id="path1049605"
       style="font-style:normal;font-variant:normal;font-weight:normal;font-stretch:normal;font-size:18px;line-height:125%;font-family:'Open Sans';-inkscape-font-specification:'Open Sans';text-align:center;letter-spacing:0px;word-spacing:0px;text-anchor:middle;fill:#000000;fill-opacity:1;stroke:none"
       d="m 117.4162,757.18709 0,-5.32011 c -1e-5,-0.67031 -0.15256,-1.17056 -0.45766,-1.50073 -0.30511,-0.33015 -0.78277,-0.49523 -1.43299,-0.49524 -0.8603,1e-5 -1.49051,0.23262 -1.89065,0.69784 -0.40014,0.46524 -0.6002,1.23311 -0.6002,2.30363 l 0,4.31461 -1.24544,0 0,-8.22402 1.01286,0 0.20256,1.12555 0.06,0 c 0.25509,-0.40519 0.61271,-0.71784 1.07287,-0.93797 0.46016,-0.2251 0.97283,-0.33765 1.53803,-0.33766 0.99034,10e-6 1.73559,0.24013 2.23577,0.72036 0.50017,0.47524 0.75025,1.23811 0.75026,2.28862 l 0,5.36512 -1.24543,0"
       inkscape:connector-curvature="0" />
    <path
       id="path1049607"
       style="font-style:normal;font-variant:normal;font-weight:normal;font-stretch:normal;font-size:18px;line-height:125%;font-family:'Open Sans';-inkscape-font-specification:'Open Sans';text-align:center;letter-spacing:0px;word-spacing:0px;text-anchor:middle;fill:#000000;fill-opacity:1;stroke:none"
       d="m 127.94231,748.96307 0,0.78788 -1.52302,0.18009 c 0.14004,0.17509 0.26508,0.4052 0.37513,0.69034 0.11003,0.28014 0.16504,0.59779 0.16505,0.95296 -10e-6,0.80541 -0.2751,1.44822 -0.82528,1.92845 -0.5502,0.48023 -1.30545,0.72035 -2.26578,0.72035 -0.24509,0 -0.47517,-0.02 -0.69024,-0.06 -0.53018,0.28014 -0.79527,0.63281 -0.79527,1.05802 0,0.22511 0.0925,0.3927 0.2776,0.50274 0.18506,0.10506 0.50267,0.15758 0.95283,0.15758 l 1.45549,0 c 0.89031,0 1.57304,0.1876 2.04821,0.56278 0.48015,0.37519 0.72024,0.92045 0.72024,1.6358 0,0.91044 -0.36513,1.60329 -1.09537,2.07852 -0.73026,0.48023 -1.79563,0.72034 -3.1961,0.72035 -1.07537,-10e-6 -1.90566,-0.2001 -2.49085,-0.6003 -0.5802,-0.40019 -0.87031,-0.96547 -0.87031,-1.69582 0,-0.50025 0.16006,-0.93296 0.48017,-1.29814 0.32011,-0.36518 0.77027,-0.61279 1.35047,-0.74286 -0.21008,-0.0951 -0.38764,-0.24262 -0.53269,-0.44272 -0.14005,-0.2001 -0.21007,-0.43271 -0.21007,-0.69784 0,-0.30015 0.08,-0.56277 0.24008,-0.78789 0.16006,-0.22511 0.41264,-0.44271 0.75776,-0.65282 -0.42515,-0.17508 -0.77276,-0.47272 -1.04286,-0.89294 -0.26508,-0.4202 -0.39763,-0.90043 -0.39763,-1.44071 0,-0.90042 0.27009,-1.59327 0.81027,-2.07851 0.54019,-0.49023 1.30545,-0.73535 2.2958,-0.73536 0.43014,10e-6 0.81777,0.05 1.16289,0.15008 l 2.84348,0 m -6.55725,9.6047 c 0,0.44522 0.18756,0.78288 0.56269,1.013 0.37512,0.23011 0.91281,0.34516 1.61305,0.34517 1.04536,-10e-6 1.81812,-0.15759 2.3183,-0.47273 0.50517,-0.31016 0.75775,-0.73286 0.75776,-1.26812 -1e-5,-0.44523 -0.13755,-0.75538 -0.41264,-0.93047 -0.2751,-0.17008 -0.79278,-0.25512 -1.55304,-0.25512 l -1.49301,0 c -0.56519,0 -1.00535,0.13507 -1.32045,0.4052 -0.31511,0.27013 -0.47266,0.65782 -0.47266,1.16307 m 0.67523,-6.97091 c 0,0.57528 0.16256,1.0105 0.48767,1.30564 0.32511,0.29514 0.77776,0.44271 1.35796,0.44271 1.21541,0 1.82313,-0.59028 1.82313,-1.77087 0,-1.2356 -0.61522,-1.8534 -1.84564,-1.85341 -0.5852,10e-6 -1.03535,0.15759 -1.35046,0.47273 -0.31511,0.31517 -0.47266,0.78289 -0.47266,1.4032"
       inkscape:connector-curvature="0" />
    <path
       id="path1049609"
       style="font-style:normal;font-variant:normal;font-weight:normal;font-stretch:normal;font-size:18px;line-height:125%;font-family:'Open Sans';-inkscape-font-specification:'Open Sans';text-align:center;letter-spacing:0px;word-spacing:0px;text-anchor:middle;fill:#000000;fill-opacity:1;stroke:none"
       d="m 129.46533,756.39171 c 0,-0.33517 0.075,-0.5878 0.22508,-0.75788 0.15505,-0.17508 0.37513,-0.26262 0.66022,-0.26262 0.29011,0 0.51518,0.0875 0.67524,0.26262 0.16505,0.17008 0.24758,0.42271 0.24758,0.75788 0,0.32516 -0.0825,0.57528 -0.24758,0.75037 -0.16506,0.17508 -0.39014,0.26262 -0.67524,0.26262 -0.25509,0 -0.46766,-0.0775 -0.63772,-0.23261 -0.16506,-0.16008 -0.24758,-0.4202 -0.24758,-0.78038"
       inkscape:connector-curvature="0" />
    <path
       id="path1049611"
       style="font-style:normal;font-variant:normal;font-weight:normal;font-stretch:normal;font-size:18px;line-height:125%;font-family:'Open Sans';-inkscape-font-specification:'Open Sans';text-align:center;letter-spacing:0px;word-spacing:0px;text-anchor:middle;fill:#000000;fill-opacity:1;stroke:none"
       d="m 102.42605,768.6227 c -1e-5,1.11055 -0.38013,1.96596 -1.14038,2.56625 -0.75527,0.5953 -1.838141,0.89294 -3.248621,0.89294 l -1.290444,0 0,4.31462 -1.275437,0 0,-10.97038 2.84348,0 c 2.740932,1e-5 4.111392,1.06553 4.111402,3.19657 m -5.679445,2.36366 1.147897,0 c 1.13038,0 1.948162,-0.18258 2.453338,-0.54778 0.50517,-0.36516 0.75776,-0.95045 0.75776,-1.75586 0,-0.72534 -0.23759,-1.26561 -0.71274,-1.62078 -0.47517,-0.35517 -1.215426,-0.53276 -2.220759,-0.53277 l -1.425496,0 0,4.45719"
       inkscape:connector-curvature="0" />
    <path
       id="path1049613"
       style="font-style:normal;font-variant:normal;font-weight:normal;font-stretch:normal;font-size:18px;line-height:125%;font-family:'Open Sans';-inkscape-font-specification:'Open Sans';text-align:center;letter-spacing:0px;word-spacing:0px;text-anchor:middle;fill:#000000;fill-opacity:1;stroke:none"
       d="m 108.27806,768.02241 c 0.36512,10e-6 0.69274,0.03 0.98284,0.09 l -0.17256,1.15556 c -0.34012,-0.075 -0.64022,-0.11255 -0.90031,-0.11256 -0.66523,10e-6 -1.23543,0.27015 -1.71058,0.8104 -0.47017,0.54027 -0.70525,1.21311 -0.70524,2.01849 l 0,4.41217 -1.24543,0 0,-8.22403 1.02785,0 0.14255,1.52325 0.06,0 c 0.30511,-0.53526 0.67273,-0.94797 1.10288,-1.23812 0.43014,-0.29013 0.9028,-0.43519 1.41798,-0.4352"
       inkscape:connector-curvature="0" />
    <path
       id="path1049615"
       style="font-style:normal;font-variant:normal;font-weight:normal;font-stretch:normal;font-size:18px;line-height:125%;font-family:'Open Sans';-inkscape-font-specification:'Open Sans';text-align:center;letter-spacing:0px;word-spacing:0px;text-anchor:middle;fill:#000000;fill-opacity:1;stroke:none"
       d="m 117.89636,772.27698 c -1e-5,1.34067 -0.33762,2.38868 -1.01284,3.14405 -0.67525,0.75037 -1.60806,1.12555 -2.79846,1.12555 -0.73526,0 -1.38798,-0.17259 -1.95818,-0.51775 -0.57019,-0.34517 -1.01034,-0.84042 -1.32045,-1.48573 -0.31011,-0.64531 -0.46516,-1.40069 -0.46516,-2.26612 0,-1.34064 0.33511,-2.38365 1.00535,-3.12902 0.67022,-0.75036 1.60055,-1.12554 2.79095,-1.12555 1.15039,10e-6 2.0632,0.38269 2.73844,1.14805 0.68022,0.76539 1.02034,1.80089 1.02035,3.10652 m -6.26465,0 c 0,1.05053 0.21007,1.85092 0.63022,2.40118 0.42014,0.55028 1.03785,0.82541 1.85313,0.82541 0.81528,0 1.43299,-0.27263 1.85314,-0.81791 0.42514,-0.55026 0.63771,-1.35315 0.63772,-2.40868 -1e-5,-1.0455 -0.21258,-1.83839 -0.63772,-2.37866 -0.42015,-0.54526 -1.04286,-0.81789 -1.86814,-0.8179 -0.81529,10e-6 -1.43049,0.26764 -1.84563,0.80289 -0.41515,0.53527 -0.62272,1.33316 -0.62272,2.39367"
       inkscape:connector-curvature="0" />
    <path
       id="path1049617"
       style="font-style:normal;font-variant:normal;font-weight:normal;font-stretch:normal;font-size:18px;line-height:125%;font-family:'Open Sans';-inkscape-font-specification:'Open Sans';text-align:center;letter-spacing:0px;word-spacing:0px;text-anchor:middle;fill:#000000;fill-opacity:1;stroke:none"
       d="m 123.77838,769.14045 -2.09322,0 0,7.25606 -1.24543,0 0,-7.25606 -1.4705,0 0,-0.56277 1.4705,-0.45023 0,-0.45772 c 0,-2.02097 0.88281,-3.03148 2.64841,-3.03148 0.43515,0 0.94532,0.0876 1.53053,0.26263 l -0.32261,0.99798 c -0.48017,-0.15507 -0.89031,-0.2326 -1.23043,-0.23261 -0.47016,10e-6 -0.81778,0.15758 -1.04285,0.47273 -0.22508,0.31016 -0.33762,0.81041 -0.33762,1.50073 l 0,0.53277 2.09322,0 0,0.96797 m 2.74594,7.25606 -1.24542,0 0,-8.22403 1.24542,0 0,8.22403 m -1.35046,-10.45262 c -1e-5,-0.28514 0.07,-0.49274 0.21007,-0.62281 0.14004,-0.13506 0.3151,-0.20259 0.52518,-0.2026 0.20007,10e-6 0.37262,0.0675 0.51767,0.2026 0.14505,0.13508 0.21758,0.34268 0.21759,0.62281 -10e-6,0.28014 -0.0726,0.49025 -0.21759,0.63031 -0.14505,0.13507 -0.3176,0.2026 -0.51767,0.20259 -0.21008,10e-6 -0.38514,-0.0675 -0.52518,-0.20259 -0.14006,-0.14006 -0.21008,-0.35017 -0.21007,-0.63031"
       inkscape:connector-curvature="0" />
    <path
       id="path1049619"
       style="font-style:normal;font-variant:normal;font-weight:normal;font-stretch:normal;font-size:18px;line-height:125%;font-family:'Open Sans';-inkscape-font-specification:'Open Sans';text-align:center;letter-spacing:0px;word-spacing:0px;text-anchor:middle;fill:#000000;fill-opacity:1;stroke:none"
       d="m 130.41066,776.39651 -1.24543,0 0,-11.67572 1.24543,0 0,11.67572"
       inkscape:connector-curvature="0" />
    <path
       id="path1049621"
       style="font-style:normal;font-variant:normal;font-weight:normal;font-stretch:normal;font-size:18px;line-height:125%;font-family:'Open Sans';-inkscape-font-specification:'Open Sans';text-align:center;letter-spacing:0px;word-spacing:0px;text-anchor:middle;fill:#000000;fill-opacity:1;stroke:none"
       d="m 136.54026,776.54658 c -1.21542,0 -2.17575,-0.37018 -2.88099,-1.11054 -0.70024,-0.74037 -1.05036,-1.76837 -1.05036,-3.08401 0,-1.32565 0.32511,-2.37866 0.97533,-3.15905 0.65523,-0.78037 1.53302,-1.17056 2.63341,-1.17057 1.03035,10e-6 1.84562,0.34017 2.44584,1.02049 0.60019,0.67534 0.90029,1.56828 0.9003,2.67881 l 0,0.7879 -5.66444,0 c 0.025,0.96547 0.26759,1.69833 0.72775,2.19857 0.46516,0.50025 1.11788,0.75037 1.95818,0.75037 0.88529,0 1.76059,-0.18509 2.6259,-0.55527 l 0,1.11054 c -0.44017,0.19009 -0.8578,0.32516 -1.25294,0.4052 -0.39013,0.085 -0.86279,0.12756 -1.41798,0.12756 m -0.33762,-7.48116 c -0.66023,0 -1.18791,0.21511 -1.58304,0.64531 -0.39013,0.43022 -0.62021,1.02551 -0.69024,1.78587 l 4.29898,0 c -1e-5,-0.78537 -0.17507,-1.38567 -0.52518,-1.80087 -0.35013,-0.4202 -0.8503,-0.63031 -1.50052,-0.63031"
       inkscape:connector-curvature="0" />
    <path
       style="fill:none;stroke:#464546;stroke-width:0.8536889px;stroke-linecap:butt;stroke-linejoin:miter;stroke-opacity:1"
       d="m 85.506509,720.82844 0,81.10641 64.021961,0 0,-68.30013 -12.80439,0 0,-12.80628 z"
       id="path1047653-4"
       inkscape:connector-curvature="0" />
    <path
       style="fill:none;stroke:#464546;stroke-width:0.85368896px;stroke-linecap:butt;stroke-linejoin:miter;stroke-opacity:1"
       d="m 136.84791,720.72364 12.80441,12.80627"
       id="path1047655-9"
       inkscape:connector-curvature="0" />
    <path
       id="path1049649"
       style="font-style:normal;font-variant:normal;font-weight:normal;font-stretch:normal;font-size:18px;line-height:125%;font-family:'Open Sans';-inkscape-font-specification:'Open Sans';text-align:center;letter-spacing:0px;word-spacing:0px;text-anchor:middle;fill:#000000;fill-opacity:1;stroke:none"
       d="m 351.04655,754.29912 c 0,0.96548 -0.35013,1.71835 -1.05037,2.25861 -0.70025,0.54027 -1.65058,0.81039 -2.851,0.81039 -1.30046,0 -2.30081,-0.16757 -3.00105,-0.50274 l 0,-1.2306 c 0.45015,0.19009 0.94032,0.34017 1.47051,0.45022 0.53018,0.11005 1.05537,0.16508 1.57556,0.16508 0.85028,0 1.49051,-0.16007 1.92067,-0.48024 0.43015,-0.32515 0.64522,-0.77538 0.64523,-1.35066 -1e-5,-0.38018 -0.0775,-0.69034 -0.23259,-0.93045 -0.15005,-0.24512 -0.40514,-0.47023 -0.76526,-0.67534 -0.35513,-0.20509 -0.89782,-0.43771 -1.62808,-0.69784 -1.02036,-0.36517 -1.75061,-0.79788 -2.19077,-1.29814 -0.43515,-0.50023 -0.65273,-1.15305 -0.65273,-1.95845 0,-0.84541 0.31762,-1.51824 0.95284,-2.01849 0.63522,-0.50023 1.47551,-0.75035 2.52089,-0.75037 1.09037,2e-5 2.09323,0.20011 3.00855,0.6003 l -0.39764,1.11054 c -0.90533,-0.38018 -1.78563,-0.57027 -2.64093,-0.57028 -0.67524,1e-5 -1.20292,0.14508 -1.58305,0.43522 -0.38014,0.29014 -0.5702,0.69284 -0.5702,1.20809 0,0.38019 0.07,0.69284 0.21007,0.93796 0.14005,0.24012 0.37513,0.46273 0.70525,0.66783 0.33512,0.2001 0.84529,0.42271 1.53053,0.66782 1.1504,0.41021 1.94068,0.85042 2.37084,1.32065 0.43514,0.47023 0.65273,1.08053 0.65273,1.83089"
       inkscape:connector-curvature="0" />
    <path
       id="path1049651"
       style="font-style:normal;font-variant:normal;font-weight:normal;font-stretch:normal;font-size:18px;line-height:125%;font-family:'Open Sans';-inkscape-font-specification:'Open Sans';text-align:center;letter-spacing:0px;word-spacing:0px;text-anchor:middle;fill:#000000;fill-opacity:1;stroke:none"
       d="m 358.15905,757.21805 -0.24758,-1.17057 -0.06,0 c -0.41015,0.51526 -0.82029,0.86542 -1.23043,1.05052 -0.40515,0.18009 -0.91283,0.27012 -1.52304,0.27012 -0.81528,0 -1.45551,-0.2101 -1.92067,-0.63031 -0.46017,-0.42019 -0.69025,-1.01799 -0.69025,-1.79337 0,-1.66081 1.32797,-2.53124 3.98391,-2.61128 l 1.39548,-0.045 0,-0.51025 c 0,-0.64531 -0.14005,-1.12054 -0.42015,-1.4257 -0.2751,-0.31014 -0.71775,-0.46521 -1.32796,-0.46522 -0.68525,10e-6 -1.46052,0.21011 -2.32582,0.63031 l -0.38263,-0.95297 c 0.40514,-0.2201 0.84779,-0.39268 1.32796,-0.51776 0.48517,-0.12505 0.97034,-0.18758 1.45552,-0.18758 0.98033,0 1.70559,0.21761 2.17576,0.65282 0.47516,0.43521 0.71274,1.13305 0.71275,2.09351 l 0,5.61276 -0.92282,0 m -2.81349,-0.87793 c 0.77527,0 1.38298,-0.21261 1.82314,-0.63782 0.44515,-0.4252 0.66773,-1.02049 0.66774,-1.78587 l 0,-0.74286 -1.24544,0.0525 c -0.99036,0.035 -1.70561,0.1901 -2.14576,0.46523 -0.43515,0.27014 -0.65273,0.69285 -0.65273,1.26813 0,0.45022 0.13505,0.79289 0.40514,1.028 0.2751,0.23512 0.65773,0.35267 1.14791,0.35267"
       inkscape:connector-curvature="0" />
    <path
       id="path1049653"
       style="font-style:normal;font-variant:normal;font-weight:normal;font-stretch:normal;font-size:18px;line-height:125%;font-family:'Open Sans';-inkscape-font-specification:'Open Sans';text-align:center;letter-spacing:0px;word-spacing:0px;text-anchor:middle;fill:#000000;fill-opacity:1;stroke:none"
       d="m 362.90072,757.21805 -1.24544,0 0,-11.67572 1.24544,0 0,11.67572"
       inkscape:connector-curvature="0" />
    <path
       id="path1049655"
       style="font-style:normal;font-variant:normal;font-weight:normal;font-stretch:normal;font-size:18px;line-height:125%;font-family:'Open Sans';-inkscape-font-specification:'Open Sans';text-align:center;letter-spacing:0px;word-spacing:0px;text-anchor:middle;fill:#000000;fill-opacity:1;stroke:none"
       d="m 369.03038,757.36812 c -1.21544,0 -2.17577,-0.37018 -2.88102,-1.11054 -0.70025,-0.74036 -1.05037,-1.76836 -1.05037,-3.08401 0,-1.32564 0.32512,-2.37866 0.97535,-3.15905 0.65522,-0.78037 1.53303,-1.17056 2.63342,-1.17057 1.03036,1e-5 1.84564,0.34018 2.44586,1.0205 0.60021,0.67534 0.90031,1.56827 0.90032,2.67881 l 0,0.78789 -5.66449,0 c 0.025,0.96547 0.26759,1.69833 0.72775,2.19857 0.46516,0.50025 1.11789,0.75037 1.95819,0.75037 0.8853,0 1.76061,-0.18508 2.62592,-0.55527 l 0,1.11054 c -0.44016,0.1901 -0.85781,0.32516 -1.25294,0.4052 -0.39014,0.085 -0.86281,0.12756 -1.41799,0.12756 m -0.33762,-7.48116 c -0.66024,10e-6 -1.18793,0.21511 -1.58306,0.64532 -0.39014,0.43021 -0.62022,1.02551 -0.69025,1.78588 l 4.29902,0 c -1e-5,-0.78539 -0.17507,-1.38568 -0.52519,-1.80089 -0.35013,-0.4202 -0.8503,-0.6303 -1.50052,-0.63031"
       inkscape:connector-curvature="0" />
    <path
       id="path1049657"
       style="font-style:normal;font-variant:normal;font-weight:normal;font-stretch:normal;font-size:18px;line-height:125%;font-family:'Open Sans';-inkscape-font-specification:'Open Sans';text-align:center;letter-spacing:0px;word-spacing:0px;text-anchor:middle;fill:#000000;fill-opacity:1;stroke:none"
       d="m 379.47404,754.97445 c 0,0.76538 -0.2851,1.35567 -0.85529,1.77087 -0.57021,0.4152 -1.37049,0.6228 -2.40085,0.6228 -1.09039,0 -1.94068,-0.17257 -2.55089,-0.51775 l 0,-1.15557 c 0.39513,0.20011 0.81778,0.35768 1.26794,0.47273 0.45516,0.11506 0.89281,0.17259 1.31297,0.17259 0.65022,0 1.15039,-0.10254 1.50052,-0.30765 0.35012,-0.2101 0.52518,-0.52775 0.52518,-0.95297 0,-0.32015 -0.14005,-0.59278 -0.42015,-0.8179 -0.2751,-0.2301 -0.81529,-0.50024 -1.62056,-0.8104 -0.76528,-0.28513 -1.31047,-0.53275 -1.63558,-0.74285 -0.32011,-0.21511 -0.5602,-0.45773 -0.72025,-0.72786 -0.15506,-0.27013 -0.23258,-0.59279 -0.23258,-0.96798 0,-0.67032 0.27259,-1.19807 0.81779,-1.58327 0.54519,-0.39018 1.29294,-0.58528 2.24328,-0.58529 0.88531,1e-5 1.75061,0.1801 2.59591,0.54026 l -0.44265,1.01301 c -0.82529,-0.34017 -1.57306,-0.51025 -2.24329,-0.51026 -0.59021,10e-6 -1.03536,0.0926 -1.33547,0.27763 -0.30011,0.18511 -0.45016,0.44023 -0.45016,0.76538 0,0.22012 0.055,0.40771 0.16506,0.56278 0.11504,0.15508 0.2976,0.30265 0.54769,0.44271 0.25009,0.14008 0.73026,0.34268 1.44051,0.6078 0.97534,0.35518 1.63307,0.71285 1.9732,1.07303 0.34511,0.36018 0.51767,0.8129 0.51767,1.35816"
       inkscape:connector-curvature="0" />
    <path
       id="path1049659"
       style="font-style:normal;font-variant:normal;font-weight:normal;font-stretch:normal;font-size:18px;line-height:125%;font-family:'Open Sans';-inkscape-font-specification:'Open Sans';text-align:center;letter-spacing:0px;word-spacing:0px;text-anchor:middle;fill:#000000;fill-opacity:1;stroke:none"
       d="m 347.02514,768.65365 c -1e-5,1.11055 -0.38015,1.96598 -1.1404,2.56626 -0.75527,0.5953 -1.83816,0.89295 -3.24864,0.89294 l -1.29046,0 0,4.31461 -1.27545,0 0,-10.97037 2.8435,0 c 2.74096,10e-6 4.11144,1.06553 4.11145,3.19656 m -5.6795,2.36366 1.1479,0 c 1.1304,1e-5 1.94818,-0.18258 2.45337,-0.54776 0.50517,-0.36518 0.75775,-0.95047 0.75776,-1.75586 -1e-5,-0.72535 -0.23759,-1.26561 -0.71275,-1.6208 -0.47517,-0.35516 -1.21543,-0.53275 -2.22078,-0.53276 l -1.4255,0 0,4.45718"
       inkscape:connector-curvature="0" />
    <path
       id="path1049661"
       style="font-style:normal;font-variant:normal;font-weight:normal;font-stretch:normal;font-size:18px;line-height:125%;font-family:'Open Sans';-inkscape-font-specification:'Open Sans';text-align:center;letter-spacing:0px;word-spacing:0px;text-anchor:middle;fill:#000000;fill-opacity:1;stroke:none"
       d="m 352.8772,768.05336 c 0.36511,10e-6 0.69273,0.03 0.98284,0.0901 l -0.17257,1.15556 c -0.34012,-0.0751 -0.64022,-0.11254 -0.90031,-0.11255 -0.66524,10e-6 -1.23543,0.27013 -1.7106,0.8104 -0.47016,0.54027 -0.70525,1.21309 -0.70525,2.01848 l 0,4.41216 -1.24544,0 0,-8.22403 1.02787,0 0.14255,1.52325 0.06,0 c 0.3051,-0.53525 0.67273,-0.94795 1.10288,-1.2381 0.43015,-0.29014 0.90282,-0.43521 1.41801,-0.43522"
       inkscape:connector-curvature="0" />
    <path
       id="path1049663"
       style="font-style:normal;font-variant:normal;font-weight:normal;font-stretch:normal;font-size:18px;line-height:125%;font-family:'Open Sans';-inkscape-font-specification:'Open Sans';text-align:center;letter-spacing:0px;word-spacing:0px;text-anchor:middle;fill:#000000;fill-opacity:1;stroke:none"
       d="m 362.49557,772.30795 c -10e-6,1.34065 -0.33762,2.38867 -1.01285,3.14404 -0.67524,0.75036 -1.60808,1.12554 -2.79848,1.12554 -0.73526,0 -1.388,-0.17257 -1.9582,-0.51775 -0.5702,-0.34517 -1.01035,-0.8404 -1.32046,-1.48572 -0.3101,-0.64532 -0.46516,-1.40069 -0.46516,-2.26611 0,-1.34066 0.33511,-2.38367 1.00535,-3.12904 0.67024,-0.75036 1.60056,-1.12554 2.79098,-1.12555 1.1504,10e-6 2.06322,0.3827 2.73847,1.14807 0.68023,0.76538 1.02034,1.80088 1.02035,3.10652 m -6.26469,0 c -1e-5,1.05051 0.21007,1.85091 0.63022,2.40117 0.42014,0.55027 1.03785,0.82541 1.85315,0.82541 0.81528,0 1.43299,-0.27264 1.85314,-0.8179 0.42515,-0.55027 0.63773,-1.35316 0.63774,-2.40868 -10e-6,-1.04552 -0.21259,-1.8384 -0.63774,-2.37867 -0.42015,-0.54526 -1.04286,-0.81789 -1.86815,-0.8179 -0.81529,10e-6 -1.43051,0.26764 -1.84565,0.8029 -0.41514,0.53526 -0.62272,1.33315 -0.62271,2.39367"
       inkscape:connector-curvature="0" />
    <path
       id="path1049665"
       style="font-style:normal;font-variant:normal;font-weight:normal;font-stretch:normal;font-size:18px;line-height:125%;font-family:'Open Sans';-inkscape-font-specification:'Open Sans';text-align:center;letter-spacing:0px;word-spacing:0px;text-anchor:middle;fill:#000000;fill-opacity:1;stroke:none"
       d="m 368.37765,769.17141 -2.09324,0 0,7.25605 -1.24544,0 0,-7.25605 -1.47052,0 0,-0.56278 1.47052,-0.45021 0,-0.45773 c 0,-2.02098 0.88281,-3.03147 2.64844,-3.03149 0.43514,2e-5 0.94532,0.0876 1.53053,0.26263 l -0.32262,0.998 c -0.48017,-0.15507 -0.89031,-0.23261 -1.23042,-0.23263 -0.47018,2e-5 -0.81779,0.1576 -1.04287,0.47274 -0.22509,0.31016 -0.33762,0.8104 -0.33762,1.50074 l 0,0.53275 2.09324,0 0,0.96798 m 2.74596,7.25605 -1.24544,0 0,-8.22403 1.24544,0 0,8.22403 m -1.35048,-10.45262 c 0,-0.28512 0.07,-0.49273 0.21008,-0.6228 0.14004,-0.13505 0.3151,-0.20259 0.52518,-0.2026 0.20007,10e-6 0.37263,0.0675 0.51769,0.2026 0.14504,0.13507 0.21756,0.34268 0.21757,0.6228 -10e-6,0.28015 -0.0726,0.49025 -0.21757,0.63031 -0.14506,0.13508 -0.31762,0.20261 -0.51769,0.20261 -0.21008,0 -0.38514,-0.0675 -0.52518,-0.20261 -0.14006,-0.14006 -0.21008,-0.35016 -0.21008,-0.63031"
       inkscape:connector-curvature="0" />
    <path
       id="path1049667"
       style="font-style:normal;font-variant:normal;font-weight:normal;font-stretch:normal;font-size:18px;line-height:125%;font-family:'Open Sans';-inkscape-font-specification:'Open Sans';text-align:center;letter-spacing:0px;word-spacing:0px;text-anchor:middle;fill:#000000;fill-opacity:1;stroke:none"
       d="m 375.00998,776.42746 -1.24544,0 0,-11.67572 1.24544,0 0,11.67572"
       inkscape:connector-curvature="0" />
    <path
       id="path1049669"
       style="font-style:normal;font-variant:normal;font-weight:normal;font-stretch:normal;font-size:18px;line-height:125%;font-family:'Open Sans';-inkscape-font-specification:'Open Sans';text-align:center;letter-spacing:0px;word-spacing:0px;text-anchor:middle;fill:#000000;fill-opacity:1;stroke:none"
       d="m 381.13963,776.57753 c -1.21543,0 -2.17577,-0.37017 -2.88101,-1.11054 -0.70025,-0.74036 -1.05038,-1.76836 -1.05037,-3.08401 -1e-5,-1.32564 0.32511,-2.37866 0.97534,-3.15905 0.65523,-0.78037 1.53304,-1.17056 2.63342,-1.17057 1.03037,10e-6 1.84565,0.34018 2.44587,1.0205 0.6002,0.67534 0.90031,1.56827 0.90032,2.67882 l 0,0.78788 -5.6645,0 c 0.025,0.96547 0.2676,1.69833 0.72776,2.19857 0.46516,0.50025 1.11789,0.75037 1.95819,0.75037 0.8853,0 1.76061,-0.18508 2.62592,-0.55527 l 0,1.11055 c -0.44016,0.19009 -0.85781,0.32516 -1.25294,0.40519 -0.39014,0.085 -0.86281,0.12756 -1.418,0.12756 m -0.33761,-7.48116 c -0.66025,10e-6 -1.18793,0.21511 -1.58307,0.64532 -0.39013,0.43021 -0.62021,1.02551 -0.69024,1.78588 l 4.29901,0 c 0,-0.78539 -0.17506,-1.38568 -0.52518,-1.80089 -0.35012,-0.4202 -0.8503,-0.6303 -1.50052,-0.63031"
       inkscape:connector-curvature="0" />
    <path
       style="fill:none;stroke:#464546;stroke-width:0.85369253px;stroke-linecap:butt;stroke-linejoin:miter;stroke-opacity:1"
       d="m 330.10543,720.85939 0,81.1064 64.02251,0 0,-68.30013 -12.8045,0 0,-12.80627 z"
       id="path1047653-4-1"
       inkscape:connector-curvature="0" />
    <path
       style="fill:none;stroke:#464546;stroke-width:0.85369265px;stroke-linecap:butt;stroke-linejoin:miter;stroke-opacity:1"
       d="m 381.44728,720.75459 12.80452,12.80627"
       id="path1047655-9-5"
       inkscape:connector-curvature="0" />
    <path
       id="path1049624"
       style="font-style:normal;font-variant:normal;font-weight:normal;font-stretch:normal;font-size:18px;line-height:125%;font-family:'Open Sans';-inkscape-font-specification:'Open Sans';text-align:center;letter-spacing:0px;word-spacing:0px;text-anchor:middle;fill:#000000;fill-opacity:1;stroke:none"
       d="m 592.19075,754.45087 c -10e-6,0.96472 -0.35013,1.71699 -1.05037,2.25683 -0.70025,0.53984 -1.65058,0.80976 -2.851,0.80976 -1.30046,0 -2.30081,-0.16745 -3.00105,-0.50235 l 0,-1.22964 c 0.45015,0.18995 0.94033,0.3399 1.47051,0.44987 0.53018,0.10996 1.05537,0.16495 1.57556,0.16495 0.85029,0 1.49051,-0.15995 1.92068,-0.47985 0.43013,-0.32491 0.64521,-0.77478 0.64521,-1.34961 0,-0.37987 -0.0775,-0.68979 -0.23258,-0.92972 -0.15005,-0.24491 -0.40514,-0.46985 -0.76526,-0.6748 -0.35513,-0.20492 -0.89782,-0.43735 -1.62808,-0.69729 -1.02035,-0.36488 -1.75061,-0.79725 -2.19076,-1.29711 -0.43516,-0.49984 -0.65273,-1.15214 -0.65273,-1.95691 0,-0.84474 0.31761,-1.51704 0.95283,-2.0169 0.63522,-0.49983 1.47551,-0.74976 2.52088,-0.74978 1.09038,2e-5 2.09324,0.19995 3.00857,0.59983 l -0.39764,1.10966 c -0.90533,-0.37987 -1.78563,-0.56982 -2.64093,-0.56983 -0.67524,10e-6 -1.20293,0.14498 -1.58306,0.43488 -0.38014,0.28992 -0.57021,0.6923 -0.5702,1.20714 -10e-6,0.37989 0.07,0.6923 0.21007,0.93721 0.14005,0.23994 0.37513,0.46237 0.70525,0.66731 0.33512,0.19994 0.84529,0.42237 1.53054,0.66729 1.1504,0.40989 1.94067,0.84975 2.37084,1.31961 0.43514,0.46986 0.65271,1.07968 0.65272,1.82945"
       inkscape:connector-curvature="0" />
    <path
       id="path1049626"
       style="font-style:normal;font-variant:normal;font-weight:normal;font-stretch:normal;font-size:18px;line-height:125%;font-family:'Open Sans';-inkscape-font-specification:'Open Sans';text-align:center;letter-spacing:0px;word-spacing:0px;text-anchor:middle;fill:#000000;fill-opacity:1;stroke:none"
       d="m 597.72019,757.51746 c -1.21542,0 -2.17576,-0.3699 -2.88101,-1.10968 -0.70024,-0.73977 -1.05037,-1.76696 -1.05037,-3.08157 0,-1.3246 0.32512,-2.37679 0.97535,-3.15656 0.65523,-0.77976 1.53304,-1.16964 2.63342,-1.16965 1.03036,10e-6 1.84565,0.33991 2.44587,1.0197 0.60019,0.67481 0.90031,1.56703 0.90031,2.6767 l 0,0.78726 -5.66449,0 c 0.025,0.96471 0.26759,1.697 0.72775,2.19685 0.46516,0.49984 1.1179,0.74977 1.9582,0.74977 0.8853,0 1.76061,-0.18494 2.62592,-0.55483 l 0,1.10966 c -0.44016,0.18995 -0.85781,0.32491 -1.25294,0.40488 -0.39015,0.085 -0.86281,0.12747 -1.41801,0.12747 m -0.33762,-7.47527 c -0.66023,10e-6 -1.18791,0.21494 -1.58305,0.64481 -0.39014,0.42987 -0.62022,1.0247 -0.69024,1.78447 l 4.29901,0 c -10e-6,-0.78477 -0.17506,-1.38458 -0.52518,-1.79947 -0.35014,-0.41987 -0.85031,-0.6298 -1.50054,-0.62981"
       inkscape:connector-curvature="0" />
    <path
       id="path1049628"
       style="font-style:normal;font-variant:normal;font-weight:normal;font-stretch:normal;font-size:18px;line-height:125%;font-family:'Open Sans';-inkscape-font-specification:'Open Sans';text-align:center;letter-spacing:0px;word-spacing:0px;text-anchor:middle;fill:#000000;fill-opacity:1;stroke:none"
       d="m 606.61082,749 c 0.36513,10e-6 0.69274,0.03 0.98285,0.09 l -0.17256,1.15465 c -0.34012,-0.075 -0.64024,-0.11246 -0.90032,-0.11246 -0.66524,0 -1.23544,0.26992 -1.7106,0.80975 -0.47017,0.53985 -0.70525,1.21214 -0.70525,2.0169 l 0,4.40868 -1.24544,0 0,-8.21754 1.02786,0 0.14255,1.52204 0.06,0 c 0.30511,-0.53483 0.67273,-0.94721 1.10289,-1.23712 0.43014,-0.28991 0.90281,-0.43487 1.418,-0.43488"
       inkscape:connector-curvature="0" />
    <path
       id="path1049630"
       style="font-style:normal;font-variant:normal;font-weight:normal;font-stretch:normal;font-size:18px;line-height:125%;font-family:'Open Sans';-inkscape-font-specification:'Open Sans';text-align:center;letter-spacing:0px;word-spacing:0px;text-anchor:middle;fill:#000000;fill-opacity:1;stroke:none"
       d="m 610.93234,757.3675 -3.1211,-8.21754 1.33547,0 1.77063,4.87354 c 0.40014,1.13966 0.63522,1.87944 0.70525,2.21933 l 0.06,0 c 0.055,-0.26491 0.22757,-0.81225 0.51768,-1.642 0.2951,-0.83475 0.95283,-2.6517 1.9732,-5.45087 l 1.33546,0 -3.12109,8.21754 -1.45552,0"
       inkscape:connector-curvature="0" />
    <path
       id="path1049632"
       style="font-style:normal;font-variant:normal;font-weight:normal;font-stretch:normal;font-size:18px;line-height:125%;font-family:'Open Sans';-inkscape-font-specification:'Open Sans';text-align:center;letter-spacing:0px;word-spacing:0px;text-anchor:middle;fill:#000000;fill-opacity:1;stroke:none"
       d="m 620.31814,757.51746 c -1.21542,0 -2.17576,-0.3699 -2.88101,-1.10968 -0.70024,-0.73977 -1.05037,-1.76696 -1.05037,-3.08157 0,-1.3246 0.32512,-2.37679 0.97535,-3.15656 0.65522,-0.77976 1.53303,-1.16964 2.63342,-1.16965 1.03036,10e-6 1.84564,0.33991 2.44586,1.0197 0.6002,0.67481 0.90031,1.56703 0.90032,2.6767 l 0,0.78726 -5.66449,0 c 0.025,0.96471 0.26759,1.697 0.72775,2.19685 0.46517,0.49984 1.11789,0.74977 1.95819,0.74977 0.88531,0 1.76061,-0.18494 2.62592,-0.55483 l 0,1.10966 c -0.44016,0.18995 -0.8578,0.32491 -1.25294,0.40488 -0.39014,0.085 -0.86281,0.12747 -1.418,0.12747 m -0.33761,-7.47527 c -0.66024,10e-6 -1.18792,0.21494 -1.58306,0.64481 -0.39014,0.42987 -0.62022,1.0247 -0.69024,1.78447 l 4.29901,0 c -1e-5,-0.78477 -0.17507,-1.38458 -0.52519,-1.79947 -0.35013,-0.41987 -0.8503,-0.6298 -1.50052,-0.62981"
       inkscape:connector-curvature="0" />
    <path
       id="path1049634"
       style="font-style:normal;font-variant:normal;font-weight:normal;font-stretch:normal;font-size:18px;line-height:125%;font-family:'Open Sans';-inkscape-font-specification:'Open Sans';text-align:center;letter-spacing:0px;word-spacing:0px;text-anchor:middle;fill:#000000;fill-opacity:1;stroke:none"
       d="m 629.20877,749 c 0.36512,10e-6 0.69274,0.03 0.98285,0.09 l -0.17256,1.15465 c -0.34013,-0.075 -0.64023,-0.11246 -0.90032,-0.11246 -0.66524,0 -1.23544,0.26992 -1.7106,0.80975 -0.47017,0.53985 -0.70525,1.21214 -0.70525,2.0169 l 0,4.40868 -1.24544,0 0,-8.21754 1.02786,0 0.14255,1.52204 0.06,0 c 0.30511,-0.53483 0.67274,-0.94721 1.10289,-1.23712 0.43015,-0.28991 0.90281,-0.43487 1.418,-0.43488"
       inkscape:connector-curvature="0" />
    <path
       id="path1049636"
       style="font-style:normal;font-variant:normal;font-weight:normal;font-stretch:normal;font-size:18px;line-height:125%;font-family:'Open Sans';-inkscape-font-specification:'Open Sans';text-align:center;letter-spacing:0px;word-spacing:0px;text-anchor:middle;fill:#000000;fill-opacity:1;stroke:none"
       d="m 592.71594,768.79409 c -1e-5,1.10966 -0.38014,1.96441 -1.1404,2.56422 -0.75527,0.59484 -1.83816,0.89224 -3.24864,0.89224 l -1.29046,0 0,4.3112 -1.27545,0 0,-10.96172 2.8435,0 c 2.74096,2e-5 4.11144,1.0647 4.11145,3.19406 m -5.6795,2.36179 1.1479,0 c 1.1304,0 1.94818,-0.18244 2.45337,-0.54734 0.50517,-0.36489 0.75775,-0.94971 0.75776,-1.75447 -1e-5,-0.72478 -0.23759,-1.26462 -0.71275,-1.61952 -0.47518,-0.35488 -1.21543,-0.53233 -2.22078,-0.53234 l -1.4255,0 0,4.45367"
       inkscape:connector-curvature="0" />
    <path
       id="path1049638"
       style="font-style:normal;font-variant:normal;font-weight:normal;font-stretch:normal;font-size:18px;line-height:125%;font-family:'Open Sans';-inkscape-font-specification:'Open Sans';text-align:center;letter-spacing:0px;word-spacing:0px;text-anchor:middle;fill:#000000;fill-opacity:1;stroke:none"
       d="m 598.568,768.19426 c 0.36511,10e-6 0.69273,0.03 0.98284,0.09 l -0.17256,1.15464 c -0.34013,-0.075 -0.64023,-0.11245 -0.90031,-0.11246 -0.66524,10e-6 -1.23544,0.26993 -1.71061,0.80976 -0.47016,0.53985 -0.70525,1.21214 -0.70525,2.0169 l 0,4.40867 -1.24543,0 0,-8.21753 1.02786,0 0.14255,1.52204 0.06,0 c 0.3051,-0.53483 0.67273,-0.94721 1.10288,-1.23713 0.43016,-0.28991 0.90282,-0.43486 1.41801,-0.43487"
       inkscape:connector-curvature="0" />
    <path
       id="path1049640"
       style="font-style:normal;font-variant:normal;font-weight:normal;font-stretch:normal;font-size:18px;line-height:125%;font-family:'Open Sans';-inkscape-font-specification:'Open Sans';text-align:center;letter-spacing:0px;word-spacing:0px;text-anchor:middle;fill:#000000;fill-opacity:1;stroke:none"
       d="m 608.18637,772.44549 c 0,1.3396 -0.33762,2.38679 -1.01285,3.14156 -0.67524,0.74977 -1.60807,1.12467 -2.79848,1.12467 -0.73526,0 -1.38799,-0.17245 -1.95819,-0.51735 -0.57021,-0.3449 -1.01036,-0.83975 -1.32047,-1.48455 -0.3101,-0.64481 -0.46516,-1.39959 -0.46516,-2.26433 0,-1.3396 0.33512,-2.38179 1.00535,-3.12656 0.67024,-0.74978 1.60056,-1.12466 2.79098,-1.12467 1.1504,10e-6 2.06323,0.38239 2.73847,1.14716 0.68023,0.76478 1.02035,1.79947 1.02035,3.10407 m -6.26469,0 c 0,1.04969 0.21007,1.84945 0.63022,2.39928 0.42014,0.54984 1.03785,0.82476 1.85315,0.82476 0.81528,0 1.43299,-0.27242 1.85315,-0.81726 0.42514,-0.54983 0.63772,-1.35209 0.63773,-2.40678 -10e-6,-1.04468 -0.21259,-1.83694 -0.63773,-2.37679 -0.42016,-0.54483 -1.04287,-0.81724 -1.86816,-0.81725 -0.81529,10e-6 -1.43051,0.26742 -1.84565,0.80226 -0.41514,0.53484 -0.62271,1.3321 -0.62271,2.39178"
       inkscape:connector-curvature="0" />
    <path
       id="path1049642"
       style="font-style:normal;font-variant:normal;font-weight:normal;font-stretch:normal;font-size:18px;line-height:125%;font-family:'Open Sans';-inkscape-font-specification:'Open Sans';text-align:center;letter-spacing:0px;word-spacing:0px;text-anchor:middle;fill:#000000;fill-opacity:1;stroke:none"
       d="m 614.06845,769.31143 -2.09324,0 0,7.25032 -1.24544,0 0,-7.25032 -1.47052,0 0,-0.56234 1.47052,-0.44986 0,-0.45737 c 0,-2.01938 0.88281,-3.02907 2.64844,-3.02909 0.43515,2e-5 0.94532,0.0875 1.53053,0.26242 l -0.32261,0.99721 c -0.48017,-0.15494 -0.89032,-0.23242 -1.23043,-0.23244 -0.47018,2e-5 -0.81779,0.15747 -1.04287,0.47237 -0.22509,0.30991 -0.33762,0.80977 -0.33762,1.49955 l 0,0.53234 2.09324,0 0,0.96721 m 2.74596,7.25032 -1.24544,0 0,-8.21753 1.24544,0 0,8.21753 m -1.35047,-10.44437 c -10e-6,-0.2849 0.07,-0.49234 0.21007,-0.62231 0.14004,-0.13495 0.3151,-0.20243 0.52518,-0.20244 0.20007,10e-6 0.37263,0.0675 0.51769,0.20244 0.14504,0.13497 0.21756,0.34241 0.21757,0.62231 -10e-6,0.27993 -0.0726,0.48987 -0.21757,0.62981 -0.14506,0.13498 -0.31762,0.20246 -0.51769,0.20245 -0.21008,10e-6 -0.38514,-0.0675 -0.52518,-0.20245 -0.14005,-0.13994 -0.21008,-0.34988 -0.21007,-0.62981"
       inkscape:connector-curvature="0" />
    <path
       id="path1049644"
       style="font-style:normal;font-variant:normal;font-weight:normal;font-stretch:normal;font-size:18px;line-height:125%;font-family:'Open Sans';-inkscape-font-specification:'Open Sans';text-align:center;letter-spacing:0px;word-spacing:0px;text-anchor:middle;fill:#000000;fill-opacity:1;stroke:none"
       d="m 620.70078,776.56175 -1.24544,0 0,-11.6665 1.24544,0 0,11.6665"
       inkscape:connector-curvature="0" />
    <path
       id="path1049646"
       style="font-style:normal;font-variant:normal;font-weight:normal;font-stretch:normal;font-size:18px;line-height:125%;font-family:'Open Sans';-inkscape-font-specification:'Open Sans';text-align:center;letter-spacing:0px;word-spacing:0px;text-anchor:middle;fill:#000000;fill-opacity:1;stroke:none"
       d="m 626.83043,776.71172 c -1.21543,0 -2.17576,-0.3699 -2.88101,-1.10968 -0.70025,-0.73977 -1.05037,-1.76696 -1.05037,-3.08157 0,-1.3246 0.32511,-2.37679 0.97535,-3.15656 0.65522,-0.77976 1.53303,-1.16964 2.63342,-1.16965 1.03036,10e-6 1.84564,0.33991 2.44586,1.01969 0.6002,0.67481 0.90031,1.56704 0.90032,2.67671 l 0,0.78726 -5.66449,0 c 0.025,0.96471 0.26759,1.69699 0.72775,2.19685 0.46516,0.49984 1.11789,0.74977 1.95819,0.74977 0.88531,0 1.76061,-0.18494 2.62592,-0.55484 l 0,1.10967 c -0.44016,0.18995 -0.8578,0.3249 -1.25294,0.40488 -0.39014,0.085 -0.8628,0.12747 -1.418,0.12747 m -0.33761,-7.47527 c -0.66024,10e-6 -1.18793,0.21494 -1.58306,0.64481 -0.39014,0.42987 -0.62022,1.0247 -0.69024,1.78447 l 4.29901,0 c -1e-5,-0.78477 -0.17507,-1.38458 -0.52519,-1.79947 -0.35013,-0.41987 -0.8503,-0.6298 -1.50052,-0.62981"
       inkscape:connector-curvature="0" />
    <path
       style="fill:none;stroke:#464546;stroke-width:0.85335582px;stroke-linecap:butt;stroke-linejoin:miter;stroke-opacity:1"
       d="m 575.72872,720.95879 0,81.04243 64.02251,0 0,-68.24625 -12.8045,0 0,-12.79618 z"
       id="path1047653-4-9"
       inkscape:connector-curvature="0" />
    <path
       style="fill:none;stroke:#464546;stroke-width:0.85335588px;stroke-linecap:butt;stroke-linejoin:miter;stroke-opacity:1"
       d="m 627.07056,720.85408 12.80452,12.79616"
       id="path1047655-9-0"
       inkscape:connector-curvature="0" />
    <path
       style="fill:none;stroke:#464546;stroke-width:2;stroke-linecap:butt;stroke-linejoin:miter;stroke-miterlimit:4;stroke-opacity:1;stroke-dasharray:none"
       d="m 362.47461,624.406 0,21.79624"
       id="path1049739"
       inkscape:connector-curvature="0" />
    <path
       d="m 362.49131,648.11324 4.5335,-7.6931 -4.5335,2.5575 -4.534,-2.6775 z"
       id="path4730-8-3-1-2-6"
       style="fill:#464546;fill-opacity:1;stroke:none"
       inkscape:connector-curvature="0" />
    <path
       style="fill:none;stroke:#464546;stroke-width:2;stroke-linecap:butt;stroke-linejoin:miter;stroke-miterlimit:4;stroke-opacity:1;stroke-dasharray:none"
       d="m 362.47185,691.87892 0,25.18997"
       id="path1049739-3"
       inkscape:connector-curvature="0" />
    <path
       d="m 362.49131,719.03993 4.5335,-7.6931 -4.5335,2.5575 -4.534,-2.6775 z"
       id="path4730-8-3-1-2-6-2"
       style="fill:#464546;fill-opacity:1;stroke:none"
       inkscape:connector-curvature="0" />
    <path
       style="fill:none;stroke:#464546;stroke-width:1.90528655;stroke-linecap:butt;stroke-linejoin:miter;stroke-miterlimit:4;stroke-opacity:1;stroke-dasharray:none"
       d="M 337.91138,672.66648 119.87527,712.40665"
       id="path1050321-2"
       inkscape:connector-curvature="0" />
    <path
       d="m 115.52479,713.60954 6.27775,-6.35029 -1.31246,5.03695 3.74807,3.6984 z"
       id="path4730-8-3-1-2-6-2-5-0"
       style="fill:#464546;fill-opacity:1;stroke:none"
       inkscape:connector-curvature="0" />
    <path
       style="fill:none;stroke:#464546;stroke-width:2;stroke-linecap:butt;stroke-linejoin:miter;stroke-miterlimit:4;stroke-opacity:1;stroke-dasharray:none"
       d="m 362.5254,807.36218 0,65"
       id="path1050383"
       inkscape:connector-curvature="0" />
    <path
       d="m 362.49131,875.03993 4.5335,-7.6931 -4.5335,2.5575 -4.534,-2.6775 z"
       id="path4730-8-3-1-2-6-2-9"
       style="fill:#464546;fill-opacity:1;stroke:none"
       inkscape:connector-curvature="0" />
    <path
       style="fill:none;stroke:#464546;stroke-width:2;stroke-linecap:butt;stroke-linejoin:miter;stroke-miterlimit:4;stroke-opacity:1;stroke-dasharray:none"
       d="m 607.45398,807.25508 0,65"
       id="path1050383-8"
       inkscape:connector-curvature="0" />
    <path
       d="m 607.41989,874.93283 4.5335,-7.6931 -4.5335,2.5575 -4.534,-2.6775 z"
       id="path4730-8-3-1-2-6-2-9-8"
       style="fill:#464546;fill-opacity:1;stroke:none"
       inkscape:connector-curvature="0" />
    <path
       style="fill:none;stroke:#464546;stroke-width:2;stroke-linecap:butt;stroke-linejoin:miter;stroke-miterlimit:4;stroke-opacity:1;stroke-dasharray:none"
       d="m 117.33382,807.3825 0,65"
       id="path1050383-7"
       inkscape:connector-curvature="0" />
    <path
       d="m 117.29973,875.06025 4.5335,-7.6931 -4.5335,2.5575 -4.534,-2.6775 z"
       id="path4730-8-3-1-2-6-2-9-7"
       style="fill:#464546;fill-opacity:1;stroke:none"
       inkscape:connector-curvature="0" />
    <path
       style="fill:none;stroke:#464546;stroke-width:1.90528655;stroke-linecap:butt;stroke-linejoin:miter;stroke-miterlimit:4;stroke-opacity:1;stroke-dasharray:none"
       d="m 387.97745,672.66648 218.03611,39.74017"
       id="path1050321-2-8"
       inkscape:connector-curvature="0" />
    <path
       d="m 610.36404,713.60954 -6.27775,-6.35029 1.31246,5.03695 -3.74807,3.6984 z"
       id="path4730-8-3-1-2-6-2-5-0-7"
       style="fill:#464546;fill-opacity:1;stroke:none"
       inkscape:connector-curvature="0" />
  </g>
</svg>
