<?xml version="1.0" encoding="UTF-8" standalone="no"?>
<svg
   width="790"
   height="151.2"
   viewBox="0 0 209.02 40"
   version="1.1"
   id="svg1948"
   sodipodi:docname="acls_map_mini.svg"
   inkscape:version="1.2.2 (732a01da63, 2022-12-09)"
   xmlns:inkscape="http://www.inkscape.org/namespaces/inkscape"
   xmlns:sodipodi="http://sodipodi.sourceforge.net/DTD/sodipodi-0.dtd"
   xmlns="http://www.w3.org/2000/svg"
   xmlns:svg="http://www.w3.org/2000/svg">
  <sodipodi:namedview
     id="namedview1950"
     pagecolor="#ffffff"
     bordercolor="#000000"
     borderopacity="0.25"
     inkscape:showpageshadow="2"
     inkscape:pageopacity="0.0"
     inkscape:pagecheckerboard="0"
     inkscape:deskcolor="#d1d1d1"
     showgrid="false"
     inkscape:zoom="1.8898734"
     inkscape:cx="494.47757"
     inkscape:cy="75.666444"
     inkscape:window-width="1920"
     inkscape:window-height="1009"
     inkscape:window-x="-8"
     inkscape:window-y="-8"
     inkscape:window-maximized="1"
     inkscape:current-layer="g1946" />
  <defs
     id="defs1880">
    <marker
       id="b"
       markerHeight="4.71"
       markerWidth="3.06"
       orient="auto"
       refX="1.53"
       refY="2.35">
      <path
         fill="#fff"
         fill-opacity="0"
         stroke="#0c322c"
         d="m2.7.35-2 2 2 2"
         id="path1862" />
    </marker>
    <marker
       id="d"
       markerHeight="4.71"
       markerWidth="3.06"
       orient="auto"
       refX="1.53"
       refY="2.35">
      <path
         fill="#fff"
         fill-opacity="0"
         stroke="#0c322c"
         d="m2.7.35-2 2 2 2"
         id="path1865" />
    </marker>
    <marker
       id="f"
       markerHeight="4.71"
       markerWidth="3.06"
       orient="auto"
       refX="1.53"
       refY="2.35">
      <path
         fill="#fff"
         fill-opacity="0"
         stroke="#0c322c"
         d="m2.7.35-2 2 2 2"
         id="path1868" />
    </marker>
    <marker
       id="a"
       markerHeight="4.71"
       markerWidth="3.06"
       orient="auto"
       refX="1.53"
       refY="2.35">
      <path
         fill="#fff"
         fill-opacity="0"
         stroke="#0c322c"
         d="m.35.35 2 2-2 2"
         id="path1871" />
    </marker>
    <marker
       id="c"
       markerHeight="4.71"
       markerWidth="3.06"
       orient="auto"
       refX="1.53"
       refY="2.35">
      <path
         fill="none"
         stroke="#0c322c"
         d="m.35.35 2 2-2 2"
         id="path1874" />
    </marker>
    <marker
       id="e"
       markerHeight="4.71"
       markerWidth="3.06"
       orient="auto"
       refX="1.53"
       refY="2.35">
      <path
         fill="none"
         stroke="#0c322c"
         d="m.35.35 2 2-2 2"
         id="path1877" />
    </marker>
  </defs>
  <g
     transform="translate(-9.94 -15.88)"
     id="g1946">
    <g
       aria-label="拥有者"
       id="text1884"
       style="font-weight:500;font-size:4.94px;line-height:1.25;font-family:Poppins;-inkscape-font-specification:'Poppins, Medium';letter-spacing:0;stroke-width:0.26">
      <path
         d="m 41.669235,25.45472 -0.4693,0.13338 v -0.85462 h 0.52364 v -0.42484 h -0.52364 v -0.95342 h -0.43472 v 0.95342 h -0.57798 v 0.42484 h 0.57798 v 0.98306 c -0.24206,0.0741 -0.4693,0.12844 -0.64714,0.17784 l 0.10374,0.4446 0.5434,-0.16796 v 1.15596 c 0,0.06916 -0.0247,0.08892 -0.08398,0.08892 -0.05434,0 -0.24206,0 -0.43966,-0.0049 0.05928,0.1235 0.11856,0.3211 0.12844,0.43472 0.31616,0.0049 0.51376,-0.01482 0.64714,-0.08892 0.13338,-0.06916 0.18278,-0.1976 0.18278,-0.42978 V 26.0327 c 0.1729,-0.0494 0.35568,-0.10868 0.52858,-0.16302 z m 1.76852,0.46436 v -0.71136 h 0.6916 v 0.71136 z m -1.13126,0 c 0.0099,-0.16796 0.01482,-0.33098 0.01482,-0.47918 v -0.23218 h 0.6916 v 0.71136 z m 0.70642,-1.83768 v 0.7163 h -0.6916 v -0.7163 z m 1.11644,0.7163 h -0.6916 v -0.7163 h 0.6916 z m 0.43966,-1.13126 h -2.67748 v 1.76852 c 0,0.68666 -0.04446,1.56598 -0.51376,2.16866 0.0988,0.05434 0.27664,0.1976 0.35074,0.28652 0.33098,-0.4199 0.48412,-1.00282 0.5434,-1.56598 h 0.741 v 1.44742 h 0.42484 v -1.44742 h 0.6916 v 1.03246 c 0,0.06916 -0.01976,0.09386 -0.08398,0.09386 -0.06422,0 -0.26182,0 -0.47918,-0.0049 0.05928,0.10868 0.11856,0.31122 0.13338,0.42484 0.3211,0 0.53846,-0.0099 0.68172,-0.08398 0.14326,-0.06916 0.18772,-0.1976 0.18772,-0.42484 z"
         style="font-family:'Noto Sans CJK SC';-inkscape-font-specification:'Noto Sans CJK SC Medium';text-align:end;text-anchor:end"
         id="path2343" />
      <path
         d="m 48.521015,25.71654 h -1.93154 v -0.42978 h 1.93154 z m -1.93154,0.8151 v -0.42978 h 1.93154 v 0.42978 z m 2.94918,-2.13902 v -0.42978 h -2.45518 c 0.06422,-0.16796 0.11856,-0.34086 0.1729,-0.50882 l -0.4693,-0.10868 c -0.05434,0.20254 -0.1235,0.41002 -0.20748,0.6175 h -1.35356 v 0.42978 h 1.16584 c -0.31122,0.60762 -0.741,1.17572 -1.29922,1.55116 0.09386,0.08398 0.23218,0.25688 0.30134,0.35568 0.27664,-0.19266 0.52364,-0.42484 0.741,-0.68172 v 2.26252 h 0.45448 v -0.9633 h 1.93154 v 0.42484 c 0,0.0741 -0.0247,0.0988 -0.10868,0.0988 -0.08398,0.0049 -0.38038,0.0049 -0.67184,-0.0099 0.05928,0.1235 0.12844,0.3211 0.14326,0.4446 0.41002,0 0.68666,0 0.85956,-0.0741 0.17784,-0.06916 0.22724,-0.20748 0.22724,-0.45448 v -2.46012 h -2.32674 c 0.08892,-0.15808 0.17784,-0.32604 0.25688,-0.494 z"
         style="font-family:'Noto Sans CJK SC';-inkscape-font-specification:'Noto Sans CJK SC Medium';text-align:end;text-anchor:end"
         id="path2345" />
      <path
         d="m 52.216135,24.87674 v -0.55328 h 0.96824 c -0.20254,0.19266 -0.41496,0.38038 -0.64714,0.55328 z m 1.22512,1.66478 h -1.86238 V 26.1315 h 1.86238 z m -1.86238,0.79534 v -0.43472 h 1.86238 v 0.43472 z m 2.92448,-2.0501 v -0.41002 h -1.29428 c 0.41002,-0.35568 0.78052,-0.741 1.09174,-1.16584 l -0.3952,-0.20748 c -0.15808,0.2223 -0.34086,0.43472 -0.53846,0.63726 v -0.21736 h -1.15102 v -0.57798 h -0.45448 v 0.57798 h -1.20536 v 0.40014 h 1.20536 v 0.55328 h -1.63514 v 0.41002 h 1.80804 c -0.5928,0.37544 -1.24982,0.68172 -1.93154,0.90896 0.08398,0.09386 0.22724,0.27664 0.28158,0.38038 0.28158,-0.10868 0.56316,-0.22724 0.8398,-0.35568 v 1.65984 h 0.45448 v -0.15314 h 1.86238 v 0.13338 h 0.47424 v -2.10938 h -1.91672 c 0.23712,-0.1482 0.4693,-0.2964 0.6916,-0.46436 z"
         style="font-family:'Noto Sans CJK SC';-inkscape-font-specification:'Noto Sans CJK SC Medium';text-align:end;text-anchor:end"
         id="path2347" />
    </g>
    <g
       aria-label="所属组"
       id="text1888"
       style="font-weight:500;font-size:4.94px;line-height:1.25;font-family:Poppins;-inkscape-font-specification:'Poppins, Medium';letter-spacing:0;stroke-width:0.26">
      <path
         d="m 41.69313,36.47542 v 0.70642 h -0.85462 v -0.14326 -0.56316 z m 0.43966,1.12138 V 36.06046 H 40.83851 V 35.6455 c 0.52858,-0.06422 1.10656,-0.16796 1.51164,-0.326041 l -0.2964,-0.38532 c -0.3952,0.16796 -1.08186,0.29146 -1.66972,0.36556 v 1.738881 c 0,0.6422 -0.0247,1.47212 -0.34086,2.05998 0.10374,0.0494 0.2964,0.20254 0.37544,0.29146 0.28158,-0.48412 0.37544,-1.18066 0.40508,-1.79322 z m 2.50458,-1.1115 h -1.63514 v -0.82992 c 0.5434,-0.07904 1.13126,-0.1976 1.5561,-0.360621 l -0.31122,-0.3952 c -0.41002,0.17784 -1.10162,0.32604 -1.70924,0.41496 v 1.580801 c 0,0.6916 -0.05928,1.57092 -0.68172,2.17854 0.10374,0.05928 0.29146,0.2223 0.36556,0.31122 0.6669,-0.6422 0.77558,-1.68948 0.78052,-2.45518 h 0.65702 v 2.4206 h 0.45448 v -2.4206 h 0.52364 z"
         style="font-family:'Noto Sans CJK SC';-inkscape-font-specification:'Noto Sans CJK SC Medium';text-align:end;text-anchor:end"
         id="path2350" />
      <path
         d="m 48.77709,35.40344 v 0.36062 h -2.79604 v -0.36062 z m 0.45448,0.72124 v -1.081861 h -3.70006 v 1.432601 c 0,0.78052 -0.04446,1.8772 -0.5187,2.63796 0.11856,0.03952 0.31616,0.15808 0.3952,0.23218 0.49894,-0.80522 0.57304,-2.03034 0.57304,-2.87014 v -0.35074 z m -0.46436,2.88002 c -0.06422,-0.1729 -0.21736,-0.45942 -0.36062,-0.67184 l -0.2717,0.06916 c 0.03458,0.05928 0.0741,0.1235 0.10868,0.18772 l -0.35074,0.01482 v -0.33098 h 0.99294 v 0.7163 c 0,0.0494 -0.01482,0.05928 -0.06916,0.06422 -0.03458,0.0049 -0.10374,0.0049 -0.20254,0 z m -2.04022,-1.5561 v -0.2964 h 0.74594 v 0.2964 z m 1.93154,-0.2964 v 0.2964 h -0.7657 v -0.2964 z m 0.65208,0.81016 h -1.41778 v -0.23712 h 1.20042 v -0.84968 h -1.20042 v -0.25194 c 0.42978,-0.03458 0.83486,-0.08398 1.14608,-0.1482 l -0.26182,-0.2717 c -0.58786,0.11856 -1.66972,0.18278 -2.54904,0.19266 0.03952,0.08398 0.07904,0.20748 0.08892,0.29146 0.36556,0 0.7657,-0.01482 1.15596,-0.03458 v 0.2223 h -1.15596 v 0.84968 h 1.15596 v 0.23712 h -1.34862 v 1.41284 h 0.41496 v -1.10162 h 0.93366 v 0.3458 c -0.29146,0.0099 -0.55822,0.01976 -0.77558,0.0247 l 0.02964,0.33098 c 0.44954,-0.01976 1.0621,-0.0494 1.66478,-0.08892 0.02964,0.06422 0.05434,0.11362 0.0741,0.16796 l -0.05434,-0.0049 c 0.04446,0.09386 0.09386,0.21736 0.11856,0.31616 0.28652,0 0.48906,0 0.6175,-0.05434 0.12844,-0.05434 0.16302,-0.13832 0.16302,-0.3211 z"
         style="font-family:'Noto Sans CJK SC';-inkscape-font-specification:'Noto Sans CJK SC Medium';text-align:end;text-anchor:end"
         id="path2352" />
      <path
         d="m 50.81237,37.51776 c 0.37544,-0.41496 0.741,-0.92378 1.05222,-1.4326 l -0.35568,-0.2223 c -0.09386,0.1729 -0.20254,0.35074 -0.31122,0.5187 l -0.61256,0.05434 c 0.2964,-0.41002 0.58786,-0.91884 0.81016,-1.412841 l -0.41496,-0.19266 c -0.20254,0.582921 -0.5681,1.210301 -0.68172,1.368381 -0.11362,0.16302 -0.1976,0.2717 -0.2964,0.2964 0.0494,0.11856 0.11856,0.33098 0.14326,0.41496 0.07904,-0.03458 0.1976,-0.06422 0.78052,-0.13832 -0.20748,0.29146 -0.3952,0.5187 -0.48906,0.61256 -0.15808,0.17784 -0.28158,0.2964 -0.39026,0.31616 0.0494,0.11362 0.11362,0.31122 0.13338,0.3952 0.11362,-0.06422 0.30134,-0.11362 1.61044,-0.37544 -0.0099,-0.08892 -0.0049,-0.26182 0.0049,-0.37544 z m 0.92378,0.73606 c -0.62738,0.1482 -1.26958,0.2964 -1.68948,0.38532 l 0.07904,0.43472 c 0.46436,-0.11856 1.07692,-0.27664 1.6549,-0.43472 z m 0.85462,-0.26676 h 1.05716 v 0.86944 h -1.05716 z m 1.05716,-2.48976 v 0.82498 H 52.59077 V 35.4973 Z m -1.05716,1.235 h 1.05716 v 0.84968 h -1.05716 z m 1.51164,2.1242 V 35.082339 H 52.15605 V 38.8565 h -0.4693 v 0.41496 h 2.82568 V 38.8565 Z"
         style="font-family:'Noto Sans CJK SC';-inkscape-font-specification:'Noto Sans CJK SC Medium';text-align:end;text-anchor:end"
         id="path2354" />
    </g>
    <g
       aria-label="其他"
       id="text1892"
       style="font-weight:500;font-size:4.94px;line-height:1.25;font-family:Poppins;-inkscape-font-specification:'Poppins, Medium';letter-spacing:0;stroke-width:0.26">
      <path
         d="m 46.109548,47.638839 h 1.70924 v 0.46436 h -1.70924 z m 1.70924,-1.63514 v 0.41496 h -1.70924 v -0.41496 z m -1.70924,0.80522 h 1.70924 v 0.4446 h -1.70924 z m 3.04798,1.29428 h -0.87438 v -2.0995 h 0.75582 v -0.4199 h -0.75582 v -0.52858 h -0.46436 v 0.52858 h -1.70924 v -0.52858 h -0.45448 v 0.52858 h -0.72618 v 0.4199 h 0.72618 v 2.0995 h -0.86944 v 0.42484 h 4.3719 z m -2.89484,0.46436 c -0.34086,0.23218 -1.00776,0.51376 -1.5314,0.65702 0.0988,0.09386 0.23218,0.25194 0.30134,0.35074 0.52364,-0.16796 1.19054,-0.4446 1.6302,-0.71136 z m 1.01764,0.32604 c 0.56316,0.20254 1.13126,0.47424 1.46718,0.67184 l 0.42484,-0.30134 c -0.37544,-0.19266 -1.00282,-0.46436 -1.56598,-0.65702 z"
         style="font-family:'Noto Sans CJK SC';-inkscape-font-specification:'Noto Sans CJK SC Medium';text-align:end;text-anchor:end"
         id="path2357" />
      <path
         d="m 50.718568,45.065099 c -0.26676,0.72124 -0.70642,1.44248 -1.17078,1.9019 0.0741,0.10868 0.20748,0.35074 0.25194,0.45942 0.13832,-0.1482 0.27664,-0.31616 0.41002,-0.49894 v 2.64784 h 0.44954 v -3.35426 c 0.18278,-0.33098 0.35074,-0.68172 0.47918,-1.02258 z m 1.52646,4.03598 c -0.33592,0 -0.3952,-0.05928 -0.3952,-0.3458 v -1.66478 l 0.6175,-0.23712 v 1.6055 h 0.43472 v -1.7784 l 0.65208,-0.25194 c -0.0049,0.7163 -0.01482,1.1362 -0.04446,1.25476 -0.0247,0.10868 -0.06916,0.12844 -0.14326,0.12844 -0.06422,0 -0.2223,0 -0.3458,-0.0049 0.05434,0.10374 0.0988,0.2964 0.10868,0.4199 0.15314,0.0049 0.37544,0 0.52364,-0.0494 0.15314,-0.0494 0.247,-0.15808 0.27664,-0.39026 0.03952,-0.20748 0.0494,-0.8645 0.05434,-1.74382 l 0.01976,-0.06916 -0.31616,-0.12844 -0.08398,0.06422 -0.06916,0.05434 -0.63232,0.247 v -1.15102 h -0.43472 v 1.31898 l -0.6175,0.23712 v -1.05716 h -0.45448 v 1.235 l -0.61256,0.23712 0.18278,0.41002 0.42978,-0.1729 v 1.482 c 0,0.60268 0.18278,0.76076 0.82004,0.76076 h 1.20042 c 0.57304,0 0.70642,-0.22724 0.78052,-0.92872 -0.12844,-0.0247 -0.31122,-0.10868 -0.42484,-0.18278 -0.03952,0.5681 -0.09386,0.70148 -0.38532,0.70148 z"
         style="font-family:'Noto Sans CJK SC';-inkscape-font-specification:'Noto Sans CJK SC Medium';text-align:end;text-anchor:end"
         id="path2359" />
    </g>
    <g
       aria-label="拥有者类别"
       id="text1896"
       style="font-weight:500;font-size:4.94px;line-height:1.25;font-family:Poppins;-inkscape-font-specification:'Poppins, Medium';letter-spacing:0;stroke-width:0.26">
      <path
         d="m 179.38429,25.37472 -0.4693,0.13338 v -0.85462 h 0.52364 v -0.42484 h -0.52364 v -0.95342 h -0.43472 v 0.95342 h -0.57798 v 0.42484 h 0.57798 v 0.98306 c -0.24206,0.0741 -0.4693,0.12844 -0.64714,0.17784 l 0.10374,0.4446 0.5434,-0.16796 v 1.15596 c 0,0.06916 -0.0247,0.08892 -0.084,0.08892 -0.0543,0 -0.24206,0 -0.43966,-0.0049 0.0593,0.1235 0.11856,0.3211 0.12844,0.43472 0.31616,0.0049 0.51376,-0.01482 0.64714,-0.08892 0.13338,-0.06916 0.18278,-0.1976 0.18278,-0.42978 V 25.9527 c 0.1729,-0.0494 0.35568,-0.10868 0.52858,-0.16302 z m 1.76852,0.46436 v -0.71136 h 0.6916 v 0.71136 z m -1.13126,0 c 0.01,-0.16796 0.0148,-0.33098 0.0148,-0.47918 v -0.23218 h 0.6916 v 0.71136 z m 0.70642,-1.83768 v 0.7163 h -0.6916 v -0.7163 z m 1.11644,0.7163 h -0.6916 v -0.7163 h 0.6916 z m 0.43966,-1.13126 h -2.67748 v 1.76852 c 0,0.68666 -0.0445,1.56598 -0.51376,2.16866 0.0988,0.05434 0.27664,0.1976 0.35074,0.28652 0.33098,-0.4199 0.48412,-1.00282 0.5434,-1.56598 h 0.741 v 1.44742 h 0.42484 v -1.44742 h 0.6916 v 1.03246 c 0,0.06916 -0.0198,0.09386 -0.084,0.09386 -0.0642,0 -0.26182,0 -0.47918,-0.0049 0.0593,0.10868 0.11856,0.31122 0.13338,0.42484 0.3211,0 0.53846,-0.0099 0.68172,-0.08398 0.14326,-0.06916 0.18772,-0.1976 0.18772,-0.42484 z"
         style="font-family:'Noto Sans CJK SC';-inkscape-font-specification:'Noto Sans CJK SC Medium'"
         id="path2362" />
      <path
         d="m 186.23607,25.63654 h -1.93154 v -0.42978 h 1.93154 z m -1.93154,0.8151 v -0.42978 h 1.93154 v 0.42978 z m 2.94918,-2.13902 v -0.42978 h -2.45518 c 0.0642,-0.16796 0.11856,-0.34086 0.1729,-0.50882 l -0.4693,-0.10868 c -0.0543,0.20254 -0.1235,0.41002 -0.20748,0.6175 h -1.35356 v 0.42978 h 1.16584 c -0.31122,0.60762 -0.741,1.17572 -1.29922,1.55116 0.0939,0.08398 0.23218,0.25688 0.30134,0.35568 0.27664,-0.19266 0.52364,-0.42484 0.741,-0.68172 v 2.26252 h 0.45448 v -0.9633 h 1.93154 v 0.42484 c 0,0.0741 -0.0247,0.0988 -0.10868,0.0988 -0.084,0.0049 -0.38038,0.0049 -0.67184,-0.0099 0.0593,0.1235 0.12844,0.3211 0.14326,0.4446 0.41002,0 0.68666,0 0.85956,-0.0741 0.17784,-0.06916 0.22724,-0.20748 0.22724,-0.45448 v -2.46012 h -2.32674 c 0.0889,-0.15808 0.17784,-0.32604 0.25688,-0.494 z"
         style="font-family:'Noto Sans CJK SC';-inkscape-font-specification:'Noto Sans CJK SC Medium'"
         id="path2364" />
      <path
         d="m 189.93119,24.79674 v -0.55328 h 0.96824 c -0.20254,0.19266 -0.41496,0.38038 -0.64714,0.55328 z m 1.22512,1.66478 h -1.86238 V 26.0515 h 1.86238 z m -1.86238,0.79534 v -0.43472 h 1.86238 v 0.43472 z m 2.92448,-2.0501 v -0.41002 h -1.29428 c 0.41002,-0.35568 0.78052,-0.741 1.09174,-1.16584 l -0.3952,-0.20748 c -0.15808,0.2223 -0.34086,0.43472 -0.53846,0.63726 v -0.21736 h -1.15102 v -0.57798 h -0.45448 v 0.57798 h -1.20536 v 0.40014 h 1.20536 v 0.55328 h -1.63514 v 0.41002 h 1.80804 c -0.5928,0.37544 -1.24982,0.68172 -1.93154,0.90896 0.084,0.09386 0.22724,0.27664 0.28158,0.38038 0.28158,-0.10868 0.56316,-0.22724 0.8398,-0.35568 v 1.65984 h 0.45448 v -0.15314 h 1.86238 v 0.13338 h 0.47424 v -2.10938 h -1.91672 c 0.23712,-0.1482 0.4693,-0.2964 0.6916,-0.46436 z"
         style="font-family:'Noto Sans CJK SC';-inkscape-font-specification:'Noto Sans CJK SC Medium'"
         id="path2366" />
      <path
         d="m 196.12101,23.34932 c -0.10868,0.21242 -0.31122,0.50388 -0.47424,0.70148 l 0.38532,0.13338 c 0.16796,-0.1729 0.38532,-0.43472 0.58292,-0.6916 z m -1.38814,2.1983 h 0.45942 v -0.62738 c 0.60268,0.29146 1.30416,0.64714 1.67466,0.87932 l 0.22724,-0.3705 c -0.3705,-0.21242 -1.04728,-0.53846 -1.62032,-0.80522 h 1.62032 V 24.199 h -1.9019 v -0.92872 h -0.45942 V 24.199 h -0.80028 l 0.36062,-0.16302 c -0.0988,-0.20254 -0.32604,-0.47424 -0.52858,-0.67184 l -0.39026,0.17784 c 0.18772,0.19266 0.39026,0.4693 0.48412,0.65702 h -0.99788 v 0.42484 h 1.51164 c -0.3952,0.3705 -1.00282,0.6669 -1.62032,0.81016 0.10374,0.08398 0.23218,0.26182 0.30134,0.37544 0.62738,-0.18278 1.24982,-0.5434 1.6796,-0.99294 z m 2.39096,1.00776 v -0.42484 h -1.98094 c 0.0296,-0.1482 0.0543,-0.31122 0.0741,-0.47918 h -0.48412 c -0.0198,0.1729 -0.0445,0.33592 -0.079,0.47918 h -1.82286 v 0.42484 h 1.64996 c -0.24206,0.3952 -0.72618,0.6669 -1.76358,0.82004 0.0939,0.10374 0.20254,0.30134 0.23712,0.42484 1.19054,-0.20748 1.73888,-0.58292 2.01058,-1.13126 0.40014,0.63726 1.04234,0.98306 2.00564,1.13126 0.0543,-0.13832 0.18278,-0.33098 0.28158,-0.42978 -0.8645,-0.09386 -1.49188,-0.35568 -1.85744,-0.8151 z"
         style="font-family:'Noto Sans CJK SC';-inkscape-font-specification:'Noto Sans CJK SC Medium'"
         id="path2368" />
      <path
         d="m 199.44069,24.7177 h -1.12632 v -0.82498 h 1.12632 z m 0.43966,-1.235 h -1.98588 v 1.64502 h 1.98588 z m -0.9139,2.13408 c 0.01,-0.1235 0.0148,-0.247 0.0198,-0.3705 h -0.42978 c -0.005,0.1235 -0.01,0.247 -0.0198,0.3705 h -0.80028 v 0.4199 h 0.75582 c -0.084,0.63726 -0.29146,1.1362 -0.8892,1.44248 0.0988,0.07904 0.2223,0.23218 0.27664,0.3458 0.70642,-0.38532 0.94848,-1.00776 1.04728,-1.78828 h 0.5928 c -0.0346,0.82992 -0.084,1.15596 -0.15314,1.23994 -0.0395,0.0494 -0.084,0.05928 -0.15808,0.05928 -0.079,0 -0.25194,-0.0049 -0.4446,-0.0247 0.0741,0.1235 0.11856,0.30628 0.12844,0.43966 0.21736,0.0049 0.42484,0.0049 0.5434,-0.0099 0.13832,-0.01976 0.22724,-0.05928 0.31616,-0.16796 0.12844,-0.15314 0.17784,-0.60762 0.2223,-1.76852 0.005,-0.06422 0.01,-0.18772 0.01,-0.18772 z m 1.9513,-1.75864 h -0.4446 v 2.73182 h 0.4446 z m 0.58292,-0.494 v 3.86308 c 0,0.08892 -0.0346,0.11362 -0.11856,0.11856 -0.0889,0 -0.3705,0.0049 -0.67678,-0.0099 0.0642,0.13338 0.12844,0.3458 0.1482,0.4693 0.42978,0.0049 0.70148,-0.0099 0.87438,-0.08892 0.16302,-0.0741 0.22724,-0.21242 0.22724,-0.48906 v -3.86308 z"
         style="font-family:'Noto Sans CJK SC';-inkscape-font-specification:'Noto Sans CJK SC Medium'"
         id="path2370" />
    </g>
    <g
       aria-label="组类别"
       id="text1900"
       style="font-weight:500;font-size:4.94px;line-height:1.25;font-family:Poppins;-inkscape-font-specification:'Poppins, Medium';letter-spacing:0;stroke-width:0.26">
      <path
         d="m 178.71752,36.87776 c 0.37544,-0.41496 0.741,-0.92378 1.05222,-1.4326 l -0.35568,-0.2223 c -0.0939,0.1729 -0.20254,0.35074 -0.31122,0.5187 l -0.61256,0.05434 c 0.2964,-0.41002 0.58786,-0.91884 0.81016,-1.41284 l -0.41496,-0.19266 c -0.20254,0.58292 -0.5681,1.2103 -0.68172,1.36838 -0.11362,0.16302 -0.1976,0.2717 -0.2964,0.2964 0.0494,0.11856 0.11856,0.33098 0.14326,0.41496 0.079,-0.03458 0.1976,-0.06422 0.78052,-0.13832 -0.20748,0.29146 -0.3952,0.5187 -0.48906,0.61256 -0.15808,0.17784 -0.28158,0.2964 -0.39026,0.31616 0.0494,0.11362 0.11362,0.31122 0.13338,0.3952 0.11362,-0.06422 0.30134,-0.11362 1.61044,-0.37544 -0.01,-0.08892 -0.005,-0.26182 0.005,-0.37544 z m 0.92378,0.73606 c -0.62738,0.1482 -1.26958,0.2964 -1.68948,0.38532 l 0.079,0.43472 c 0.46436,-0.11856 1.07692,-0.27664 1.6549,-0.43472 z m 0.85462,-0.26676 h 1.05716 v 0.86944 h -1.05716 z m 1.05716,-2.48976 v 0.82498 h -1.05716 V 34.8573 Z m -1.05716,1.235 h 1.05716 v 0.84968 h -1.05716 z m 1.51164,2.1242 v -3.77416 h -1.94636 v 3.77416 h -0.4693 v 0.41496 h 2.82568 V 38.2165 Z"
         style="font-family:'Noto Sans CJK SC';-inkscape-font-specification:'Noto Sans CJK SC Medium'"
         id="path2373" />
      <path
         d="m 186.25102,34.27932 c -0.10868,0.21242 -0.31122,0.50388 -0.47424,0.70148 l 0.38532,0.13338 c 0.16796,-0.1729 0.38532,-0.43472 0.58292,-0.6916 z m -1.38814,2.1983 h 0.45942 v -0.62738 c 0.60268,0.29146 1.30416,0.64714 1.67466,0.87932 l 0.22724,-0.3705 c -0.3705,-0.21242 -1.04728,-0.53846 -1.62032,-0.80522 h 1.62032 V 35.129 h -1.9019 v -0.92872 h -0.45942 V 35.129 h -0.80028 l 0.36062,-0.16302 c -0.0988,-0.20254 -0.32604,-0.47424 -0.52858,-0.67184 l -0.39026,0.17784 c 0.18772,0.19266 0.39026,0.4693 0.48412,0.65702 h -0.99788 v 0.42484 h 1.51164 c -0.3952,0.3705 -1.00282,0.6669 -1.62032,0.81016 0.10374,0.08398 0.23218,0.26182 0.30134,0.37544 0.62738,-0.18278 1.24982,-0.5434 1.6796,-0.99294 z m 2.39096,1.00776 v -0.42484 h -1.98094 c 0.0296,-0.1482 0.0543,-0.31122 0.0741,-0.47918 h -0.48412 c -0.0198,0.1729 -0.0445,0.33592 -0.079,0.47918 h -1.82286 v 0.42484 h 1.64996 c -0.24206,0.3952 -0.72618,0.6669 -1.76358,0.82004 0.0939,0.10374 0.20254,0.30134 0.23712,0.42484 1.19054,-0.20748 1.73888,-0.58292 2.01058,-1.13126 0.40014,0.63726 1.04234,0.98306 2.00564,1.13126 0.0543,-0.13832 0.18278,-0.33098 0.28158,-0.42978 -0.8645,-0.09386 -1.49188,-0.35568 -1.85744,-0.8151 z"
         style="font-family:'Noto Sans CJK SC';-inkscape-font-specification:'Noto Sans CJK SC Medium'"
         id="path2375" />
      <path
         d="m 189.5707,35.6477 h -1.12632 v -0.82498 h 1.12632 z m 0.43966,-1.235 h -1.98588 v 1.64502 h 1.98588 z m -0.9139,2.13408 c 0.01,-0.1235 0.0148,-0.247 0.0198,-0.3705 h -0.42978 c -0.005,0.1235 -0.01,0.247 -0.0198,0.3705 h -0.80028 v 0.4199 h 0.75582 c -0.084,0.63726 -0.29146,1.1362 -0.8892,1.44248 0.0988,0.07904 0.2223,0.23218 0.27664,0.3458 0.70642,-0.38532 0.94848,-1.00776 1.04728,-1.78828 h 0.5928 c -0.0346,0.82992 -0.084,1.15596 -0.15314,1.23994 -0.0395,0.0494 -0.084,0.05928 -0.15808,0.05928 -0.079,0 -0.25194,-0.0049 -0.4446,-0.0247 0.0741,0.1235 0.11856,0.30628 0.12844,0.43966 0.21736,0.0049 0.42484,0.0049 0.5434,-0.0099 0.13832,-0.01976 0.22724,-0.05928 0.31616,-0.16796 0.12844,-0.15314 0.17784,-0.60762 0.2223,-1.76852 0.005,-0.06422 0.01,-0.18772 0.01,-0.18772 z m 1.9513,-1.75864 h -0.4446 v 2.73182 h 0.4446 z m 0.58292,-0.494 v 3.86308 c 0,0.08892 -0.0346,0.11362 -0.11856,0.11856 -0.0889,0 -0.3705,0.0049 -0.67678,-0.0099 0.0642,0.13338 0.12844,0.3458 0.1482,0.4693 0.42978,0.0049 0.70148,-0.0099 0.87438,-0.08892 0.16302,-0.0741 0.22724,-0.21242 0.22724,-0.48906 v -3.86308 z"
         style="font-family:'Noto Sans CJK SC';-inkscape-font-specification:'Noto Sans CJK SC Medium'"
         id="path2377" />
    </g>
    <g
       aria-label="其他类别"
       id="text1904"
       style="font-weight:500;font-size:4.94px;line-height:1.25;font-family:Poppins;-inkscape-font-specification:'Poppins, Medium';letter-spacing:0;stroke-width:0.26">
      <path
         d="m 179.29043,47.638839 h 1.70924 v 0.46436 h -1.70924 z m 1.70924,-1.63514 v 0.41496 h -1.70924 v -0.41496 z m -1.70924,0.80522 h 1.70924 v 0.4446 h -1.70924 z m 3.04798,1.29428 h -0.87438 v -2.0995 h 0.75582 v -0.4199 h -0.75582 v -0.52858 h -0.46436 v 0.52858 h -1.70924 v -0.52858 h -0.45448 v 0.52858 h -0.72618 v 0.4199 h 0.72618 v 2.0995 h -0.86944 v 0.42484 h 4.3719 z m -2.89484,0.46436 c -0.34086,0.23218 -1.00776,0.51376 -1.5314,0.65702 0.0988,0.09386 0.23218,0.25194 0.30134,0.35074 0.52364,-0.16796 1.19054,-0.4446 1.6302,-0.71136 z m 1.01764,0.32604 c 0.56316,0.20254 1.13126,0.47424 1.46718,0.67184 l 0.42484,-0.30134 c -0.37544,-0.19266 -1.00282,-0.46436 -1.56598,-0.65702 z"
         style="font-family:'Noto Sans CJK SC';-inkscape-font-specification:'Noto Sans CJK SC Medium'"
         id="path2380" />
      <path
         d="m 183.89945,45.065099 c -0.26676,0.72124 -0.70642,1.44248 -1.17078,1.9019 0.0741,0.10868 0.20748,0.35074 0.25194,0.45942 0.13832,-0.1482 0.27664,-0.31616 0.41002,-0.49894 v 2.64784 h 0.44954 v -3.35426 c 0.18278,-0.33098 0.35074,-0.68172 0.47918,-1.02258 z m 1.52646,4.03598 c -0.33592,0 -0.3952,-0.05928 -0.3952,-0.3458 v -1.66478 l 0.6175,-0.23712 v 1.6055 h 0.43472 v -1.7784 l 0.65208,-0.25194 c -0.005,0.7163 -0.0148,1.1362 -0.0445,1.25476 -0.0247,0.10868 -0.0692,0.12844 -0.14326,0.12844 -0.0642,0 -0.2223,0 -0.3458,-0.0049 0.0543,0.10374 0.0988,0.2964 0.10868,0.4199 0.15314,0.0049 0.37544,0 0.52364,-0.0494 0.15314,-0.0494 0.247,-0.15808 0.27664,-0.39026 0.0395,-0.20748 0.0494,-0.8645 0.0543,-1.74382 l 0.0198,-0.06916 -0.31616,-0.12844 -0.084,0.06422 -0.0692,0.05434 -0.63232,0.247 v -1.15102 h -0.43472 v 1.31898 l -0.6175,0.23712 v -1.05716 h -0.45448 v 1.235 l -0.61256,0.23712 0.18278,0.41002 0.42978,-0.1729 v 1.482 c 0,0.60268 0.18278,0.76076 0.82004,0.76076 h 1.20042 c 0.57304,0 0.70642,-0.22724 0.78052,-0.92872 -0.12844,-0.0247 -0.31122,-0.10868 -0.42484,-0.18278 -0.0395,0.5681 -0.0939,0.70148 -0.38532,0.70148 z"
         style="font-family:'Noto Sans CJK SC';-inkscape-font-specification:'Noto Sans CJK SC Medium'"
         id="path2382" />
      <path
         d="m 191.18101,45.129319 c -0.10868,0.21242 -0.31122,0.50388 -0.47424,0.70148 l 0.38532,0.13338 c 0.16796,-0.1729 0.38532,-0.43472 0.58292,-0.6916 z m -1.38814,2.1983 h 0.45942 v -0.62738 c 0.60268,0.29146 1.30416,0.64714 1.67466,0.87932 l 0.22724,-0.3705 c -0.3705,-0.21242 -1.04728,-0.53846 -1.62032,-0.80522 h 1.62032 v -0.42484 h -1.9019 v -0.92872 h -0.45942 v 0.92872 h -0.80028 l 0.36062,-0.16302 c -0.0988,-0.20254 -0.32604,-0.47424 -0.52858,-0.67184 l -0.39026,0.17784 c 0.18772,0.19266 0.39026,0.4693 0.48412,0.65702 h -0.99788 v 0.42484 h 1.51164 c -0.3952,0.3705 -1.00282,0.6669 -1.62032,0.81016 0.10374,0.08398 0.23218,0.26182 0.30134,0.37544 0.62738,-0.18278 1.24982,-0.5434 1.6796,-0.99294 z m 2.39096,1.00776 v -0.42484 h -1.98094 c 0.0296,-0.1482 0.0543,-0.31122 0.0741,-0.47918 h -0.48412 c -0.0198,0.1729 -0.0445,0.33592 -0.079,0.47918 h -1.82286 v 0.42484 h 1.64996 c -0.24206,0.3952 -0.72618,0.6669 -1.76358,0.82004 0.0939,0.10374 0.20254,0.30134 0.23712,0.42484 1.19054,-0.20748 1.73888,-0.58292 2.01058,-1.13126 0.40014,0.63726 1.04234,0.98306 2.00564,1.13126 0.0543,-0.13832 0.18278,-0.33098 0.28158,-0.42978 -0.8645,-0.09386 -1.49188,-0.35568 -1.85744,-0.8151 z"
         style="font-family:'Noto Sans CJK SC';-inkscape-font-specification:'Noto Sans CJK SC Medium'"
         id="path2384" />
      <path
         d="m 194.50069,46.497699 h -1.12632 v -0.82498 h 1.12632 z m 0.43966,-1.235 h -1.98588 v 1.64502 h 1.98588 z m -0.9139,2.13408 c 0.01,-0.1235 0.0148,-0.247 0.0198,-0.3705 h -0.42978 c -0.005,0.1235 -0.01,0.247 -0.0198,0.3705 h -0.80028 v 0.4199 h 0.75582 c -0.084,0.63726 -0.29146,1.1362 -0.8892,1.44248 0.0988,0.07904 0.2223,0.23218 0.27664,0.3458 0.70642,-0.38532 0.94848,-1.00776 1.04728,-1.78828 h 0.5928 c -0.0346,0.82992 -0.084,1.15596 -0.15314,1.23994 -0.0395,0.0494 -0.084,0.05928 -0.15808,0.05928 -0.079,0 -0.25194,-0.0049 -0.4446,-0.0247 0.0741,0.1235 0.11856,0.30628 0.12844,0.43966 0.21736,0.0049 0.42484,0.0049 0.5434,-0.0099 0.13832,-0.01976 0.22724,-0.05928 0.31616,-0.16796 0.12844,-0.15314 0.17784,-0.60762 0.2223,-1.76852 0.005,-0.06422 0.01,-0.18772 0.01,-0.18772 z m 1.9513,-1.75864 h -0.4446 v 2.73182 h 0.4446 z m 0.58292,-0.494 v 3.86308 c 0,0.08892 -0.0346,0.11362 -0.11856,0.11856 -0.0889,0 -0.3705,0.0049 -0.67678,-0.0099 0.0642,0.13338 0.12844,0.3458 0.1482,0.4693 0.42978,0.0049 0.70148,-0.0099 0.87438,-0.08892 0.16302,-0.0741 0.22724,-0.21242 0.22724,-0.48906 v -3.86308 z"
         style="font-family:'Noto Sans CJK SC';-inkscape-font-specification:'Noto Sans CJK SC Medium'"
         id="path2386" />
    </g>
    <g
       aria-label="user : : rw-"
       id="text1908"
       style="font-weight:bold;font-size:4.94px;line-height:1.25;font-family:Poppins;-inkscape-font-specification:'Poppins Bold';letter-spacing:0;stroke-width:0.26">
      <path
         d="M 80.678222,24.73348 V 27.49 h -0.84474 v -0.37544 q -0.12844,0.18278 -0.35074,0.2964 -0.21736,0.10868 -0.48412,0.10868 -0.31616,0 -0.55822,-0.13832 -0.24206,-0.14326 -0.37544,-0.41002 -0.13338,-0.26676 -0.13338,-0.62738 v -1.61044 h 0.8398 v 1.49682 q 0,0.27664 0.14326,0.42978 0.14326,0.15314 0.38532,0.15314 0.247,0 0.39026,-0.15314 0.14326,-0.15314 0.14326,-0.42978 v -1.49682 z"
         id="path2478" />
      <path
         d="m 82.407221,27.52952 q -0.36062,0 -0.6422,-0.1235 -0.28158,-0.1235 -0.4446,-0.33592 -0.16302,-0.21736 -0.18278,-0.48412 h 0.83486 q 0.01482,0.14326 0.13338,0.23218 0.11856,0.08892 0.29146,0.08892 0.15808,0 0.24206,-0.05928 0.08892,-0.06422 0.08892,-0.16302 0,-0.11856 -0.1235,-0.1729 -0.1235,-0.05928 -0.40014,-0.12844 -0.2964,-0.06916 -0.494,-0.14326 -0.1976,-0.07904 -0.34086,-0.24206 -0.14326,-0.16796 -0.14326,-0.44954 0,-0.23712 0.12844,-0.42978 0.13338,-0.1976 0.38532,-0.31122 0.25688,-0.11362 0.60762,-0.11362 0.5187,0 0.8151,0.25688 0.30134,0.25688 0.3458,0.68172 h -0.78052 q -0.01976,-0.14326 -0.12844,-0.22724 -0.10374,-0.08398 -0.27664,-0.08398 -0.1482,0 -0.22724,0.05928 -0.07904,0.05434 -0.07904,0.15314 0,0.11856 0.1235,0.17784 0.12844,0.05928 0.3952,0.11856 0.30628,0.07904 0.49894,0.15808 0.19266,0.0741 0.33592,0.247 0.1482,0.16796 0.15314,0.45448 0,0.24206 -0.13832,0.43472 -0.13338,0.18772 -0.39026,0.2964 -0.25194,0.10868 -0.58786,0.10868 z"
         id="path2480" />
      <path
         d="m 86.640804,26.06728 q 0,0.11856 -0.01482,0.247 h -1.91178 q 0.01976,0.25688 0.16302,0.3952 0.1482,0.13338 0.36062,0.13338 0.31616,0 0.43966,-0.26676 h 0.89908 q -0.06916,0.2717 -0.25194,0.48906 -0.17784,0.21736 -0.44954,0.34086 -0.2717,0.1235 -0.60762,0.1235 -0.40508,0 -0.72124,-0.1729 -0.31616,-0.1729 -0.494,-0.494 -0.17784,-0.3211 -0.17784,-0.75088 0,-0.42978 0.1729,-0.75088 0.17784,-0.3211 0.494,-0.494 0.31616,-0.1729 0.72618,-0.1729 0.40014,0 0.71136,0.16796 0.31122,0.16796 0.48412,0.47918 0.17784,0.31122 0.17784,0.72618 z m -0.8645,-0.2223 q 0,-0.21736 -0.1482,-0.3458 -0.1482,-0.12844 -0.3705,-0.12844 -0.21242,0 -0.36062,0.1235 -0.14326,0.1235 -0.17784,0.35074 z"
         id="path2482" />
      <path
         d="m 87.93014,25.1929 q 0.1482,-0.22724 0.3705,-0.35568 0.2223,-0.13338 0.494,-0.13338 v 0.89414 h -0.23218 q -0.31616,0 -0.47424,0.13832 -0.15808,0.13338 -0.15808,0.47424 V 27.49 h -0.844741 v -2.75652 h 0.844741 z"
         id="path2484" />
      <path
         d="m 90.642197,27.52952 q -0.2223,0 -0.36556,-0.12844 -0.13832,-0.13338 -0.13832,-0.32604 0,-0.1976 0.13832,-0.33098 0.14326,-0.13338 0.36556,-0.13338 0.21736,0 0.35568,0.13338 0.14326,0.13338 0.14326,0.33098 0,0.19266 -0.14326,0.32604 -0.13832,0.12844 -0.35568,0.12844 z m 0,-2.01058 q -0.2223,0 -0.36556,-0.12844 -0.13832,-0.13338 -0.13832,-0.32604 0,-0.1976 0.13832,-0.33098 0.14326,-0.13338 0.36556,-0.13338 0.21736,0 0.35568,0.13338 0.14326,0.13338 0.14326,0.33098 0,0.19266 -0.14326,0.32604 -0.13832,0.12844 -0.35568,0.12844 z"
         id="path2486" />
      <path
         d="m 93.092439,27.52952 q -0.2223,0 -0.36556,-0.12844 -0.13832,-0.13338 -0.13832,-0.32604 0,-0.1976 0.13832,-0.33098 0.14326,-0.13338 0.36556,-0.13338 0.21736,0 0.35568,0.13338 0.14326,0.13338 0.14326,0.33098 0,0.19266 -0.14326,0.32604 -0.13832,0.12844 -0.35568,0.12844 z m 0,-2.01058 q -0.2223,0 -0.36556,-0.12844 -0.13832,-0.13338 -0.13832,-0.32604 0,-0.1976 0.13832,-0.33098 0.14326,-0.13338 0.36556,-0.13338 0.21736,0 0.35568,0.13338 0.14326,0.13338 0.14326,0.33098 0,0.19266 -0.14326,0.32604 -0.13832,0.12844 -0.35568,0.12844 z"
         id="path2488" />
      <path
         d="m 95.99222,25.1929 q 0.1482,-0.22724 0.3705,-0.35568 0.2223,-0.13338 0.494,-0.13338 v 0.89414 h -0.23218 q -0.31616,0 -0.47424,0.13832 -0.15808,0.13338 -0.15808,0.47424 V 27.49 h -0.84474 v -2.75652 h 0.84474 z"
         id="path2490" />
      <path
         d="M 101.21874,24.73348 100.4728,27.49 h -0.933663 l -0.43472,-1.78828 -0.44954,1.78828 h -0.92872 l -0.75088,-2.75652 h 0.84474 l 0.39026,1.97106 0.46436,-1.97106 h 0.89414 l 0.469303,1.96118 0.38532,-1.96118 z"
         id="path2492" />
      <path
         d="m 103.66403,25.40532 v 0.70148 h -2.1736 v -0.70148 z"
         id="path2494" />
    </g>
    <g
       aria-label="mask : : rw-"
       id="text1912"
       style="font-weight:bold;font-size:4.94px;line-height:1.25;font-family:Poppins;-inkscape-font-specification:'Poppins Bold';letter-spacing:0;stroke-width:0.26">
      <path
         d="m 81.453557,36.19384 q 0.51376,0 0.8151,0.31122 0.30628,0.31122 0.30628,0.8645 V 38.98 h -0.8398 v -1.49682 q 0,-0.26676 -0.14326,-0.41002 -0.13832,-0.1482 -0.38532,-0.1482 -0.247,0 -0.39026,0.1482 -0.13832,0.14326 -0.13832,0.41002 V 38.98 h -0.8398 v -1.49682 q 0,-0.26676 -0.14326,-0.41002 -0.13832,-0.1482 -0.38532,-0.1482 -0.247,0 -0.39026,0.1482 -0.13832,0.14326 -0.13832,0.41002 V 38.98 h -0.84474 v -2.75652 h 0.84474 v 0.3458 q 0.12844,-0.1729 0.33592,-0.2717 0.20748,-0.10374 0.4693,-0.10374 0.31122,0 0.55328,0.13338 0.247,0.13338 0.38532,0.38038 0.14326,-0.22724 0.39026,-0.3705 0.247,-0.14326 0.53846,-0.14326 z"
         id="path2497" />
      <path
         d="m 82.999777,37.5968 q 0,-0.42484 0.15808,-0.74594 0.16302,-0.3211 0.43966,-0.494 0.27664,-0.1729 0.6175,-0.1729 0.29146,0 0.50882,0.11856 0.2223,0.11856 0.34086,0.31122 v -0.39026 h 0.84474 V 38.98 h -0.84474 v -0.39026 q -0.1235,0.19266 -0.3458,0.31122 -0.21736,0.11856 -0.50882,0.11856 -0.33592,0 -0.61256,-0.1729 -0.27664,-0.17784 -0.43966,-0.49894 -0.15808,-0.32604 -0.15808,-0.75088 z m 2.06492,0.0049 q 0,-0.31616 -0.17784,-0.49894 -0.1729,-0.18278 -0.42484,-0.18278 -0.25194,0 -0.42978,0.18278 -0.1729,0.17784 -0.1729,0.494 0,0.31616 0.1729,0.50388 0.17784,0.18278 0.42978,0.18278 0.25194,0 0.42484,-0.18278 0.17784,-0.18278 0.17784,-0.49894 z"
         id="path2499" />
      <path
         d="m 87.643381,39.01952 q -0.36062,0 -0.6422,-0.1235 -0.28158,-0.1235 -0.4446,-0.33592 -0.16302,-0.21736 -0.18278,-0.48412 h 0.83486 q 0.01482,0.14326 0.13338,0.23218 0.11856,0.08892 0.29146,0.08892 0.15808,0 0.24206,-0.05928 0.08892,-0.06422 0.08892,-0.16302 0,-0.11856 -0.1235,-0.1729 -0.1235,-0.05928 -0.40014,-0.12844 -0.2964,-0.06916 -0.494,-0.14326 -0.1976,-0.07904 -0.34086,-0.24206 -0.14326,-0.16796 -0.14326,-0.44954 0,-0.23712 0.12844,-0.42978 0.13338,-0.1976 0.38532,-0.31122 0.25688,-0.11362 0.60762,-0.11362 0.5187,0 0.8151,0.25688 0.30134,0.25688 0.3458,0.68172 h -0.78052 q -0.01976,-0.14326 -0.12844,-0.22724 -0.10374,-0.08398 -0.27664,-0.08398 -0.1482,0 -0.22724,0.05928 -0.07904,0.05434 -0.07904,0.15314 0,0.11856 0.1235,0.17784 0.12844,0.05928 0.3952,0.11856 0.30628,0.07904 0.49894,0.15808 0.19266,0.0741 0.33592,0.247 0.1482,0.16796 0.15314,0.45448 0,0.24206 -0.13832,0.43472 -0.13338,0.18772 -0.39026,0.2964 -0.25194,0.10868 -0.58786,0.10868 z"
         id="path2501" />
      <path
         d="m 90.963064,38.98 -0.8398,-1.15596 V 38.98 h -0.84474 v -3.655601 h 0.84474 v 2.020461 l 0.83486,-1.12138 h 1.04234 l -1.14608,1.3832 1.15596,1.37332 z"
         id="path2503" />
      <path
         d="m 93.773924,39.01952 q -0.2223,0 -0.36556,-0.12844 -0.13832,-0.13338 -0.13832,-0.32604 0,-0.1976 0.13832,-0.33098 0.14326,-0.13338 0.36556,-0.13338 0.21736,0 0.35568,0.13338 0.14326,0.13338 0.14326,0.33098 0,0.19266 -0.14326,0.32604 -0.13832,0.12844 -0.35568,0.12844 z m 0,-2.01058 q -0.2223,0 -0.36556,-0.12844 -0.13832,-0.13338 -0.13832,-0.32604 0,-0.1976 0.13832,-0.33098 0.14326,-0.13338 0.36556,-0.13338 0.21736,0 0.35568,0.13338 0.14326,0.13338 0.14326,0.33098 0,0.19266 -0.14326,0.32604 -0.13832,0.12844 -0.35568,0.12844 z"
         id="path2505" />
      <path
         d="m 96.224166,39.01952 q -0.2223,0 -0.36556,-0.12844 -0.13832,-0.13338 -0.13832,-0.32604 0,-0.1976 0.13832,-0.33098 0.14326,-0.13338 0.36556,-0.13338 0.21736,0 0.35568,0.13338 0.14326,0.13338 0.14326,0.33098 0,0.19266 -0.14326,0.32604 -0.13832,0.12844 -0.35568,0.12844 z m 0,-2.01058 q -0.2223,0 -0.36556,-0.12844 -0.13832,-0.13338 -0.13832,-0.32604 0,-0.1976 0.13832,-0.33098 0.14326,-0.13338 0.36556,-0.13338 0.21736,0 0.35568,0.13338 0.14326,0.13338 0.14326,0.33098 0,0.19266 -0.14326,0.32604 -0.13832,0.12844 -0.35568,0.12844 z"
         id="path2507" />
      <path
         d="m 99.123947,36.6829 q 0.1482,-0.22724 0.3705,-0.35568 0.2223,-0.13338 0.494,-0.13338 v 0.89414 h -0.23218 q -0.31616,0 -0.47424,0.13832 -0.15808,0.13338 -0.15808,0.47424 V 38.98 h -0.84474 v -2.75652 h 0.84474 z"
         id="path2509" />
      <path
         d="M 104.35046,36.22348 103.60452,38.98 h -0.93366 L 102.23614,37.19172 101.7866,38.98 h -0.92872 L 100.107,36.22348 h 0.84474 l 0.39026,1.97106 0.46436,-1.97106 h 0.89414 l 0.4693,1.96118 0.38532,-1.96118 z"
         id="path2511" />
      <path
         d="m 106.79576,36.89532 v 0.70148 h -2.1736 v -0.70148 z"
         id="path2513" />
    </g>
    <g
       aria-label="other : :  ---"
       id="text1916"
       style="font-weight:bold;font-size:4.94px;line-height:1.25;font-family:Poppins;-inkscape-font-specification:'Poppins Bold';letter-spacing:0;stroke-width:0.26">
      <path
         d="m 79.371038,49.229519 q -0.40508,0 -0.73112,-0.1729 -0.3211,-0.1729 -0.50882,-0.494 -0.18278,-0.3211 -0.18278,-0.75088 0,-0.42484 0.18772,-0.74594 0.18772,-0.32604 0.51376,-0.49894 0.32604,-0.1729 0.73112,-0.1729 0.40508,0 0.73112,0.1729 0.32604,0.1729 0.51376,0.49894 0.18772,0.3211 0.18772,0.74594 0,0.42484 -0.19266,0.75088 -0.18772,0.3211 -0.5187,0.494 -0.32604,0.1729 -0.73112,0.1729 z m 0,-0.73112 q 0.24206,0 0.41002,-0.17784 0.1729,-0.17784 0.1729,-0.50882 0,-0.33098 -0.16796,-0.50882 -0.16302,-0.17784 -0.40508,-0.17784 -0.247,0 -0.41002,0.17784 -0.16302,0.1729 -0.16302,0.50882 0,0.33098 0.15808,0.50882 0.16302,0.17784 0.40508,0.17784 z"
         id="path2516" />
      <path
         d="m 82.799393,48.473699 v 0.7163 h -0.42978 q -0.45942,0 -0.7163,-0.2223 -0.25688,-0.22724 -0.25688,-0.73606 v -1.09668 h -0.33592 v -0.70148 h 0.33592 v -0.67184 h 0.84474 v 0.67184 h 0.55328 v 0.70148 h -0.55328 v 1.10656 q 0,0.1235 0.05928,0.17784 0.05928,0.05434 0.1976,0.05434 z"
         id="path2518" />
      <path
         d="m 84.963114,46.403839 q 0.47424,0 0.76076,0.31616 0.28652,0.31122 0.28652,0.85956 v 1.61044 h -0.8398 v -1.49682 q 0,-0.27664 -0.14326,-0.42978 -0.14326,-0.15314 -0.38532,-0.15314 -0.24206,0 -0.38532,0.15314 -0.14326,0.15314 -0.14326,0.42978 v 1.49682 h -0.84474 v -3.6556 h 0.84474 v 1.26958 q 0.12844,-0.18278 0.35074,-0.29146 0.2223,-0.10868 0.49894,-0.10868 z"
         id="path2520" />
      <path
         d="m 89.196693,47.767279 q 0,0.11856 -0.01482,0.247 h -1.91178 q 0.01976,0.25688 0.16302,0.3952 0.1482,0.13338 0.36062,0.13338 0.31616,0 0.43966,-0.26676 h 0.89908 q -0.06916,0.2717 -0.25194,0.48906 -0.17784,0.21736 -0.44954,0.34086 -0.2717,0.1235 -0.60762,0.1235 -0.40508,0 -0.72124,-0.1729 -0.31616,-0.1729 -0.494,-0.494 -0.17784,-0.3211 -0.17784,-0.75088 0,-0.42978 0.1729,-0.75088 0.17784,-0.3211 0.494,-0.494 0.31616,-0.1729 0.72618,-0.1729 0.40014,0 0.71136,0.16796 0.31122,0.16796 0.48412,0.47918 0.17784,0.31122 0.17784,0.72618 z m -0.8645,-0.2223 q 0,-0.21736 -0.1482,-0.3458 -0.1482,-0.12844 -0.3705,-0.12844 -0.21242,0 -0.36062,0.1235 -0.14326,0.1235 -0.17784,0.35074 z"
         id="path2522" />
      <path
         d="m 90.48603,46.892899 q 0.1482,-0.22724 0.3705,-0.35568 0.2223,-0.13338 0.494,-0.13338 v 0.89414 h -0.23218 q -0.31616,0 -0.47424,0.13832 -0.15808,0.13338 -0.15808,0.47424 v 1.27946 h -0.84474 v -2.75652 h 0.84474 z"
         id="path2524" />
      <path
         d="m 93.198087,49.229519 q -0.2223,0 -0.36556,-0.12844 -0.13832,-0.13338 -0.13832,-0.32604 0,-0.1976 0.13832,-0.33098 0.14326,-0.13338 0.36556,-0.13338 0.21736,0 0.35568,0.13338 0.14326,0.13338 0.14326,0.33098 0,0.19266 -0.14326,0.32604 -0.13832,0.12844 -0.35568,0.12844 z m 0,-2.01058 q -0.2223,0 -0.36556,-0.12844 -0.13832,-0.13338 -0.13832,-0.32604 0,-0.1976 0.13832,-0.33098 0.14326,-0.13338 0.36556,-0.13338 0.21736,0 0.35568,0.13338 0.14326,0.13338 0.14326,0.33098 0,0.19266 -0.14326,0.32604 -0.13832,0.12844 -0.35568,0.12844 z"
         id="path2526" />
      <path
         d="m 95.648328,49.229519 q -0.2223,0 -0.36556,-0.12844 -0.13832,-0.13338 -0.13832,-0.32604 0,-0.1976 0.13832,-0.33098 0.14326,-0.13338 0.36556,-0.13338 0.21736,0 0.35568,0.13338 0.14326,0.13338 0.14326,0.33098 0,0.19266 -0.14326,0.32604 -0.13832,0.12844 -0.35568,0.12844 z m 0,-2.01058 q -0.2223,0 -0.36556,-0.12844 -0.13832,-0.13338 -0.13832,-0.32604 0,-0.1976 0.13832,-0.33098 0.14326,-0.13338 0.36556,-0.13338 0.21736,0 0.35568,0.13338 0.14326,0.13338 0.14326,0.33098 0,0.19266 -0.14326,0.32604 -0.13832,0.12844 -0.35568,0.12844 z"
         id="path2528" />
      <path
         d="m 100.87485,47.105319 v 0.70148 h -2.173602 v -0.70148 z"
         id="path2530" />
      <path
         d="m 103.74005,47.105319 v 0.70148 h -2.1736 v -0.70148 z"
         id="path2532" />
      <path
         d="m 106.60525,47.105319 v 0.70148 h -2.1736 v -0.70148 z"
         id="path2534" />
    </g>
    <g
       aria-label="rw-"
       id="text1920"
       style="font-weight:bold;font-size:4.94px;line-height:1.25;font-family:Poppins;-inkscape-font-specification:'Poppins Bold';letter-spacing:0;stroke-width:0.26">
      <path
         d="m 158.37102,25.2229 q 0.1482,-0.22724 0.3705,-0.35568 0.2223,-0.13338 0.494,-0.13338 v 0.89414 h -0.23218 q -0.31616,0 -0.47424,0.13832 -0.15808,0.13338 -0.15808,0.47424 V 27.52 h -0.84474 v -2.75652 h 0.84474 z"
         id="path2389" />
      <path
         d="M 163.59754,24.76348 162.8516,27.52 h -0.93366 l -0.43472,-1.78828 -0.44954,1.78828 h -0.92872 l -0.75088,-2.75652 h 0.84474 l 0.39026,1.97106 0.46436,-1.97106 h 0.89414 l 0.4693,1.96118 0.38532,-1.96118 z"
         id="path2391" />
      <path
         d="m 166.04284,25.43532 v 0.70148 h -2.1736 v -0.70148 z"
         id="path2393" />
    </g>
    <g
       aria-label="r--"
       id="text1924"
       style="font-weight:bold;font-size:4.94px;line-height:1.25;font-family:Poppins;-inkscape-font-specification:'Poppins Bold';letter-spacing:0;stroke-width:0.26">
      <path
         d="m 158.37102,36.2729 q 0.1482,-0.22724 0.3705,-0.35568 0.2223,-0.13338 0.494,-0.13338 v 0.89414 h -0.23218 q -0.31616,0 -0.47424,0.13832 -0.15808,0.13338 -0.15808,0.47424 V 38.57 h -0.84474 v -2.75652 h 0.84474 z"
         id="path2396" />
      <path
         d="m 161.7648,36.48532 v 0.70148 h -2.1736 v -0.70148 z"
         id="path2398" />
      <path
         d="m 164.63,36.48532 v 0.70148 h -2.1736 v -0.70148 z"
         id="path2400" />
    </g>
    <g
       aria-label="---"
       id="text1928"
       style="font-weight:bold;font-size:4.94px;line-height:1.25;font-family:Poppins;-inkscape-font-specification:'Poppins Bold';letter-spacing:0;stroke-width:0.26">
      <path
         d="m 159.59048,47.085318 v 0.70148 h -2.1736 v -0.70148 z"
         id="path2403" />
      <path
         d="m 162.45568,47.085318 v 0.70148 h -2.1736 v -0.70148 z"
         id="path2405" />
      <path
         d="m 165.32088,47.085318 v 0.70148 h -2.1736 v -0.70148 z"
         id="path2407" />
    </g>
    <rect
       width="54.98"
       height="34.08"
       x="68.85"
       y="18.84"
       fill="none"
       stroke="#90ebcd"
       stroke-linecap="square"
       stroke-width=".64"
       opacity=".99"
       paint-order="stroke fill markers"
       id="rect1930" />
    <rect
       width="15.88"
       height="7.94"
       x="152.93"
       y="22.22"
       fill="none"
       stroke="#90ebcd"
       stroke-linecap="square"
       stroke-width=".64"
       opacity=".99"
       paint-order="stroke fill markers"
       id="rect1932" />
    <rect
       width="15.88"
       height="7.94"
       x="152.93"
       y="32.81"
       fill="none"
       stroke="#90ebcd"
       stroke-linecap="square"
       stroke-width=".64"
       opacity=".99"
       paint-order="stroke fill markers"
       id="rect1934" />
    <rect
       width="15.88"
       height="7.94"
       x="152.93"
       y="43.39"
       fill="none"
       stroke="#90ebcd"
       stroke-linecap="square"
       stroke-width=".64"
       opacity=".99"
       paint-order="stroke fill markers"
       id="rect1936" />
    <g
       transform="translate(106.63 -19.06)"
       id="g1944">
      <path
         fill="none"
         stroke="#0c322c"
         stroke-linecap="square"
         stroke-width=".66"
         marker-end="url(#a)"
         marker-start="url(#b)"
         d="M20.9 45.52h22.23"
         id="path1938" />
      <path
         fill="none"
         stroke="#0c322c"
         stroke-linecap="square"
         stroke-width=".66"
         marker-end="url(#c)"
         marker-start="url(#d)"
         d="M20.9 56.1h22.23"
         id="path1940" />
      <path
         fill="none"
         stroke="#0c322c"
         stroke-linecap="square"
         stroke-width=".66"
         marker-end="url(#e)"
         marker-start="url(#f)"
         d="M20.9 66.15h22.23"
         id="path1942" />
    </g>
  </g>
</svg>
