<?xml version="1.0" encoding="UTF-8" standalone="no"?>
<!-- Created with Inkscape (http://www.inkscape.org/) -->

<svg
   xmlns:dc="http://purl.org/dc/elements/1.1/"
   xmlns:cc="http://creativecommons.org/ns#"
   xmlns:rdf="http://www.w3.org/1999/02/22-rdf-syntax-ns#"
   xmlns:svg="http://www.w3.org/2000/svg"
   xmlns="http://www.w3.org/2000/svg"
   xmlns:sodipodi="http://sodipodi.sourceforge.net/DTD/sodipodi-0.dtd"
   xmlns:inkscape="http://www.inkscape.org/namespaces/inkscape"
   width="1122.5197"
   height="793.70081"
   id="svg2"
   sodipodi:version="0.32"
   inkscape:version="0.92.4 (5da689c313, 2019-01-14)"
   sodipodi:docname="audit_components.svg"
   version="1.0"
   viewBox="0 0 1052.3622 744.09448">
  <defs
     id="defs4">
    <marker
       inkscape:stockid="Arrow1Lstart"
       orient="auto"
       refY="0"
       refX="0"
       id="Arrow1Lstart"
       style="overflow:visible">
      <path
         id="path7602"
         d="M 0,0 5,-5 -12.5,0 5,5 Z"
         style="fill-rule:evenodd;stroke:#000000;stroke-width:1.00000003pt;marker-start:none"
         transform="matrix(0.8,0,0,0.8,10,0)"
         inkscape:connector-curvature="0" />
    </marker>
    <marker
       inkscape:stockid="Arrow1Lend"
       orient="auto"
       refY="0"
       refX="0"
       id="Arrow1Lend"
       style="overflow:visible">
      <path
         id="path7599"
         d="M 0,0 5,-5 -12.5,0 5,5 Z"
         style="fill-rule:evenodd;stroke:#000000;stroke-width:1.00000003pt;marker-start:none"
         transform="matrix(-0.8,0,0,-0.8,-10,0)"
         inkscape:connector-curvature="0" />
    </marker>
  </defs>
  <sodipodi:namedview
     id="base"
     pagecolor="#ffffff"
     bordercolor="#666666"
     borderopacity="1.0"
     gridtolerance="10000"
     guidetolerance="10"
     objecttolerance="10"
     inkscape:pageopacity="0.0"
     inkscape:pageshadow="2"
     inkscape:zoom="0.94794512"
     inkscape:cx="461.11578"
     inkscape:cy="375.87239"
     inkscape:document-units="px"
     inkscape:current-layer="layer1"
     inkscape:window-width="1920"
     inkscape:window-height="1027"
     inkscape:window-x="-8"
     inkscape:window-y="-8"
     width="1052.3622px"
     height="744.09448px"
     showgrid="true"
     inkscape:window-maximized="1" />
  <metadata
     id="metadata7">
    <rdf:RDF>
      <cc:Work
         rdf:about="">
        <dc:format>image/svg+xml</dc:format>
        <dc:type
           rdf:resource="http://purl.org/dc/dcmitype/StillImage" />
      </cc:Work>
    </rdf:RDF>
  </metadata>
  <g
     inkscape:label="Layer 1"
     inkscape:groupmode="layer"
     id="layer1">
    <g
       id="g3094"
       transform="translate(-191.1083,11.46686)">
      <rect
         y="573.12762"
         x="336.10535"
         height="148.62462"
         width="424.50299"
         id="rect1902"
         style="opacity:0.52284265;fill:none;fill-opacity:1;fill-rule:nonzero;stroke:#000000;stroke-opacity:1" />
      <rect
         y="574.09448"
         x="590"
         height="49.546062"
         width="150.20888"
         id="rect1908"
         style="opacity:0.52284265;fill:none;fill-opacity:1;fill-rule:nonzero;stroke:#000000;stroke-opacity:1" />
      <g
         aria-label="内核"
         style="font-style:normal;font-weight:normal;line-height:0%;font-family:'Andale Sans';text-align:center;text-anchor:middle;fill:#000000;fill-opacity:1;stroke:none;stroke-width:1px;stroke-linecap:butt;stroke-linejoin:miter;stroke-opacity:1"
         id="text1918">
        <path
           d="m 489.79792,638.27046 h -11.584 v -5.472 h -2.368 v 5.472 h -11.584 v 23.808 h 2.336 v -21.472 h 9.216 c -0.192,4.192 -1.344,9.472 -8.384,13.216 0.544,0.416 1.344,1.28 1.696,1.792 4.288,-2.528 6.592,-5.504 7.776,-8.576 2.944,2.752 6.144,6.016 7.776,8.16 l 1.952,-1.536 c -1.952,-2.368 -5.856,-6.112 -9.024,-8.896 0.352,-1.44 0.512,-2.848 0.576,-4.16 h 9.28 v 18.24 c 0,0.576 -0.192,0.768 -0.768,0.8 -0.672,0.032 -2.848,0.032 -5.088,-0.064 0.352,0.64 0.704,1.76 0.8,2.4 2.848,0 4.832,0 5.952,-0.416 1.088,-0.384 1.44,-1.152 1.44,-2.688 z"
           style="font-style:normal;font-variant:normal;font-weight:normal;font-stretch:normal;font-size:32px;line-height:1.25;font-family:'Noto Sans CJK SC';-inkscape-font-specification:'Noto Sans CJK SC'"
           id="path1003"
           inkscape:connector-curvature="0" />
        <path
           d="m 518.05392,642.04646 c -0.48,0.992 -1.152,2.016 -1.888,2.976 l -5.44,0.32 c 1.152,-1.76 2.688,-4.192 3.776,-5.984 h 9.024 v -2.208 h -7.168 l 0.32,-0.128 c -0.256,-1.184 -1.056,-3.008 -1.856,-4.352 l -2.208,0.672 c 0.64,1.184 1.248,2.656 1.6,3.808 h -8.352 v 2.208 h 6.08 c -1.088,1.856 -2.88,4.736 -3.488,5.376 -0.544,0.576 -1.44,0.8 -2.048,0.928 0.192,0.512 0.576,1.696 0.64,2.24 0.608,-0.192 1.536,-0.384 7.264,-0.768 -2.368,2.4 -5.344,4.544 -8.544,6.016 0.448,0.448 1.088,1.28 1.344,1.792 5.632,-2.688 10.464,-7.232 13.184,-12.096 z m -12.8,6.048 c -0.544,-0.896 -2.88,-4.48 -3.744,-5.664 v -1.248 h 3.616 v -2.24 h -3.616 v -6.144 h -2.272 v 6.144 h -4.256 v 2.24 h 4.096 c -0.96,4.352 -2.944,9.408 -4.928,12.064 0.448,0.576 1.024,1.6 1.248,2.304 1.44,-2.048 2.816,-5.344 3.84,-8.8 v 15.264 h 2.272 v -16.672 c 0.864,1.568 1.856,3.424 2.304,4.416 z m 15.136,-0.352 c -2.72,5.376 -8.8,9.952 -16.224,12.352 0.448,0.48 1.12,1.408 1.408,1.952 4,-1.376 7.584,-3.328 10.56,-5.728 2.112,1.76 4.544,3.968 5.76,5.376 l 1.824,-1.568 c -1.28,-1.44 -3.808,-3.552 -5.92,-5.248 2.016,-1.888 3.712,-3.968 5.024,-6.272 z"
           style="font-style:normal;font-variant:normal;font-weight:normal;font-stretch:normal;font-size:32px;line-height:1.25;font-family:'Noto Sans CJK SC';-inkscape-font-specification:'Noto Sans CJK SC'"
           id="path1005"
           inkscape:connector-curvature="0" />
      </g>
      <g
         aria-label="审计"
         style="font-style:normal;font-weight:normal;line-height:0%;font-family:'Andale Sans';text-align:center;text-anchor:middle;fill:#000000;fill-opacity:1;stroke:none;stroke-width:1px;stroke-linecap:butt;stroke-linejoin:miter;stroke-opacity:1"
         id="text1922">
        <path
           d="m 654.678,595.90273 v 3.488 h -7.744 v -3.488 z m -7.744,9.152 v -3.616 h 7.744 v 3.616 z m -10.176,0 v -3.616 h 7.744 v 3.616 z m 7.744,-9.152 v 3.488 h -7.744 v -3.488 z m 2.432,-5.184 h -2.432 v 3.072 h -10.016 v 15.168 h 2.272 v -1.792 h 7.744 v 5.984 h 2.432 v -5.984 h 7.744 v 1.664 h 2.336 v -15.04 h -10.08 z m 0.224,-3.328 0.512,-0.16 c -0.352,-0.896 -1.12,-2.368 -1.76,-3.488 l -2.4,0.704 c 0.512,0.864 1.056,2.048 1.44,2.944 h -12.416 v 5.216 h 2.336 v -2.912 h 21.664 v 2.912 h 2.432 v -5.216 z"
           style="font-style:normal;font-variant:normal;font-weight:normal;font-stretch:normal;font-size:32px;line-height:1.25;font-family:'Noto Sans CJK SC';-inkscape-font-specification:'Noto Sans CJK SC'"
           id="path1008"
           inkscape:connector-curvature="0" />
        <path
           d="m 672.854,589.31073 c -1.088,-1.312 -3.328,-3.36 -5.088,-4.768 l -1.536,1.536 c 1.76,1.472 3.968,3.616 5.024,4.992 z m -2.08,18.24 v -13.568 h -7.424 v 2.336 h 5.024 v 11.456 c 0,1.344 -0.928,2.24 -1.536,2.656 0.416,0.512 1.024,1.536 1.248,2.176 0.512,-0.672 1.408,-1.376 7.36,-5.6 -0.192,-0.48 -0.608,-1.472 -0.768,-2.08 z m 21.568,-12.992 h -8.096 v -10.464 h -2.464 v 10.464 h -8.128 v 2.4 h 8.128 v 16.256 h 2.464 v -16.256 h 8.096 z"
           style="font-style:normal;font-variant:normal;font-weight:normal;font-stretch:normal;font-size:32px;line-height:1.25;font-family:'Noto Sans CJK SC';-inkscape-font-specification:'Noto Sans CJK SC'"
           id="path1010"
           inkscape:connector-curvature="0" />
      </g>
    </g>
    <g
       id="g3102"
       transform="translate(140,38.05719)">
      <rect
         rx="17.485249"
         ry="17.485249"
         y="293.8302"
         x="230.51778"
         height="71.689301"
         width="178.20705"
         id="rect1910"
         style="opacity:0.52284265;fill:none;fill-opacity:1;fill-rule:nonzero;stroke:#000000;stroke-width:1.03557718;stroke-opacity:1" />
      <g
         aria-label="auditd"
         style="font-style:normal;font-weight:normal;line-height:0%;font-family:'Andale Sans';text-align:center;text-anchor:middle;fill:#000000;fill-opacity:1;stroke:none;stroke-width:1px;stroke-linecap:butt;stroke-linejoin:miter;stroke-opacity:1"
         id="text1926"
         transform="translate(0,1.875)">
        <path
           d="m 278.67187,328.20386 q -3.48437,0 -4.82812,0.79687 -1.34375,0.79688 -1.34375,2.71875 0,1.53125 1,2.4375 1.01562,0.89063 2.75,0.89063 2.39062,0 3.82812,-1.6875 1.45313,-1.70313 1.45313,-4.51563 v -0.64062 z m 5.73438,-1.1875 v 9.98437 h -2.875 v -2.65625 q -0.98438,1.59375 -2.45313,2.35938 -1.46875,0.75 -3.59375,0.75 -2.6875,0 -4.28125,-1.5 -1.57812,-1.51563 -1.57812,-4.04688 0,-2.95312 1.96875,-4.45312 1.98437,-1.5 5.90625,-1.5 h 4.03125 v -0.28125 q 0,-1.98438 -1.3125,-3.0625 -1.29688,-1.09375 -3.65625,-1.09375 -1.5,0 -2.92188,0.35937 -1.42187,0.35938 -2.73437,1.07813 v -2.65625 q 1.57812,-0.60938 3.0625,-0.90625 1.48437,-0.3125 2.89062,-0.3125 3.79688,0 5.67188,1.96875 1.875,1.96875 1.875,5.96875 z"
           style="font-size:32px;line-height:1.25"
           id="path981"
           inkscape:connector-curvature="0" />
        <path
           d="m 290.04687,330.09448 v -10.59375 h 2.875 v 10.48438 q 0,2.48437 0.96875,3.73437 0.96875,1.23438 2.90625,1.23438 2.32813,0 3.67188,-1.48438 1.35937,-1.48437 1.35937,-4.04687 v -9.92188 h 2.875 v 17.5 h -2.875 v -2.6875 q -1.04687,1.59375 -2.4375,2.375 -1.375,0.76563 -3.20312,0.76563 -3.01563,0 -4.57813,-1.875 -1.5625,-1.875 -1.5625,-5.48438 z m 7.23438,-11.01562 z"
           style="font-size:32px;line-height:1.25"
           id="path983"
           inkscape:connector-curvature="0" />
        <path
           d="m 322.17187,322.15698 v -9.46875 h 2.875 v 24.3125 h -2.875 v -2.625 q -0.90625,1.5625 -2.29687,2.32813 -1.375,0.75 -3.3125,0.75 -3.17188,0 -5.17188,-2.53125 -1.98437,-2.53125 -1.98437,-6.65625 0,-4.125 1.98437,-6.65625 2,-2.53125 5.17188,-2.53125 1.9375,0 3.3125,0.76562 1.39062,0.75 2.29687,2.3125 z m -9.79687,6.10938 q 0,3.17187 1.29687,4.98437 1.3125,1.79688 3.59375,1.79688 2.28125,0 3.59375,-1.79688 1.3125,-1.8125 1.3125,-4.98437 0,-3.17188 -1.3125,-4.96875 -1.3125,-1.8125 -3.59375,-1.8125 -2.28125,0 -3.59375,1.8125 -1.29687,1.79687 -1.29687,4.96875 z"
           style="font-size:32px;line-height:1.25"
           id="path985"
           inkscape:connector-curvature="0" />
        <path
           d="m 330.96875,319.50073 h 2.875 v 17.5 h -2.875 z m 0,-6.8125 h 2.875 v 3.64063 h -2.875 z"
           style="font-size:32px;line-height:1.25"
           id="path987"
           inkscape:connector-curvature="0" />
        <path
           d="m 342.6875,314.53198 v 4.96875 h 5.92187 v 2.23438 h -5.92187 v 9.5 q 0,2.14062 0.57812,2.75 0.59375,0.60937 2.39063,0.60937 h 2.95312 v 2.40625 h -2.95312 q -3.32813,0 -4.59375,-1.23437 -1.26563,-1.25 -1.26563,-4.53125 v -9.5 h -2.10937 v -2.23438 h 2.10937 v -4.96875 z"
           style="font-size:32px;line-height:1.25"
           id="path989"
           inkscape:connector-curvature="0" />
        <path
           d="m 363.92187,322.15698 v -9.46875 h 2.875 v 24.3125 h -2.875 v -2.625 q -0.90625,1.5625 -2.29687,2.32813 -1.375,0.75 -3.3125,0.75 -3.17188,0 -5.17188,-2.53125 -1.98437,-2.53125 -1.98437,-6.65625 0,-4.125 1.98437,-6.65625 2,-2.53125 5.17188,-2.53125 1.9375,0 3.3125,0.76562 1.39062,0.75 2.29687,2.3125 z m -9.79687,6.10938 q 0,3.17187 1.29687,4.98437 1.3125,1.79688 3.59375,1.79688 2.28125,0 3.59375,-1.79688 1.3125,-1.8125 1.3125,-4.98437 0,-3.17188 -1.3125,-4.96875 -1.3125,-1.8125 -3.59375,-1.8125 -2.28125,0 -3.59375,1.8125 -1.29687,1.79687 -1.29687,4.96875 z"
           style="font-size:32px;line-height:1.25"
           id="path991"
           inkscape:connector-curvature="0" />
      </g>
    </g>
    <g
       id="g3083"
       transform="translate(190.6636,-151.3694)">
      <rect
         ry="0"
         y="154.75812"
         x="180"
         height="70.042175"
         width="199.33636"
         id="rect1914"
         style="opacity:0.52284265;fill:none;fill-opacity:1;fill-rule:nonzero;stroke:#000000;stroke-width:1.32727051;stroke-opacity:1" />
      <a
         transform="translate(8.46875,2.578125)"
         id="a2000">
        <g
           aria-label="auditd.conf"
           style="font-style:normal;font-weight:normal;line-height:0%;font-family:'Andale Sans';text-align:center;text-anchor:middle;fill:#000000;fill-opacity:1;stroke:none;stroke-width:1px;stroke-linecap:butt;stroke-linejoin:miter;stroke-opacity:1"
           id="text1930">
          <path
             d="m 191.0625,188.59448 q -3.48438,0 -4.82813,0.79688 -1.34375,0.79687 -1.34375,2.71875 0,1.53125 1,2.4375 1.01563,0.89062 2.75,0.89062 2.39063,0 3.82813,-1.6875 1.45312,-1.70312 1.45312,-4.51562 v -0.64063 z m 5.73437,-1.1875 v 9.98438 h -2.875 v -2.65625 q -0.98437,1.59375 -2.45312,2.35937 -1.46875,0.75 -3.59375,0.75 -2.6875,0 -4.28125,-1.5 -1.57813,-1.51562 -1.57813,-4.04687 0,-2.95313 1.96875,-4.45313 1.98438,-1.5 5.90625,-1.5 h 4.03125 v -0.28125 q 0,-1.98437 -1.3125,-3.0625 -1.29687,-1.09375 -3.65625,-1.09375 -1.5,0 -2.92187,0.35938 -1.42188,0.35937 -2.73438,1.07812 v -2.65625 q 1.57813,-0.60937 3.0625,-0.90625 1.48438,-0.3125 2.89063,-0.3125 3.79687,0 5.67187,1.96875 1.875,1.96875 1.875,5.96875 z"
             style="font-size:32px;line-height:1.25"
             id="path926"
             inkscape:connector-curvature="0" />
          <path
             d="m 202.4375,190.48511 v -10.59375 h 2.875 v 10.48437 q 0,2.48438 0.96875,3.73438 0.96875,1.23437 2.90625,1.23437 2.32812,0 3.67187,-1.48437 1.35938,-1.48438 1.35938,-4.04688 v -9.92187 h 2.875 v 17.5 h -2.875 v -2.6875 q -1.04688,1.59375 -2.4375,2.375 -1.375,0.76562 -3.20313,0.76562 -3.01562,0 -4.57812,-1.875 -1.5625,-1.875 -1.5625,-5.48437 z m 7.23437,-11.01563 z"
             style="font-size:32px;line-height:1.25"
             id="path928"
             inkscape:connector-curvature="0" />
          <path
             d="m 234.5625,182.54761 v -9.46875 h 2.875 v 24.3125 h -2.875 v -2.625 q -0.90625,1.5625 -2.29688,2.32812 -1.375,0.75 -3.3125,0.75 -3.17187,0 -5.17187,-2.53125 -1.98438,-2.53125 -1.98438,-6.65625 0,-4.125 1.98438,-6.65625 2,-2.53125 5.17187,-2.53125 1.9375,0 3.3125,0.76563 1.39063,0.75 2.29688,2.3125 z m -9.79688,6.10937 q 0,3.17188 1.29688,4.98438 1.3125,1.79687 3.59375,1.79687 2.28125,0 3.59375,-1.79687 1.3125,-1.8125 1.3125,-4.98438 0,-3.17187 -1.3125,-4.96875 -1.3125,-1.8125 -3.59375,-1.8125 -2.28125,0 -3.59375,1.8125 -1.29688,1.79688 -1.29688,4.96875 z"
             style="font-size:32px;line-height:1.25"
             id="path930"
             inkscape:connector-curvature="0" />
          <path
             d="m 243.35937,179.89136 h 2.875 v 17.5 h -2.875 z m 0,-6.8125 h 2.875 v 3.64062 h -2.875 z"
             style="font-size:32px;line-height:1.25"
             id="path932"
             inkscape:connector-curvature="0" />
          <path
             d="m 255.07812,174.92261 v 4.96875 H 261 v 2.23437 h -5.92188 v 9.5 q 0,2.14063 0.57813,2.75 0.59375,0.60938 2.39062,0.60938 H 261 v 2.40625 h -2.95313 q -3.32812,0 -4.59375,-1.23438 -1.26562,-1.25 -1.26562,-4.53125 v -9.5 h -2.10938 v -2.23437 h 2.10938 v -4.96875 z"
             style="font-size:32px;line-height:1.25"
             id="path934"
             inkscape:connector-curvature="0" />
          <path
             d="m 276.3125,182.54761 v -9.46875 h 2.875 v 24.3125 h -2.875 v -2.625 q -0.90625,1.5625 -2.29688,2.32812 -1.375,0.75 -3.3125,0.75 -3.17187,0 -5.17187,-2.53125 -1.98438,-2.53125 -1.98438,-6.65625 0,-4.125 1.98438,-6.65625 2,-2.53125 5.17187,-2.53125 1.9375,0 3.3125,0.76563 1.39063,0.75 2.29688,2.3125 z m -9.79688,6.10937 q 0,3.17188 1.29688,4.98438 1.3125,1.79687 3.59375,1.79687 2.28125,0 3.59375,-1.79687 1.3125,-1.8125 1.3125,-4.98438 0,-3.17187 -1.3125,-4.96875 -1.3125,-1.8125 -3.59375,-1.8125 -2.28125,0 -3.59375,1.8125 -1.29688,1.79688 -1.29688,4.96875 z"
             style="font-size:32px;line-height:1.25"
             id="path936"
             inkscape:connector-curvature="0" />
          <path
             d="m 285.51562,193.42261 h 3.29688 v 3.96875 h -3.29688 z"
             style="font-size:32px;line-height:1.25"
             id="path938"
             inkscape:connector-curvature="0" />
          <path
             d="m 307.89062,180.56323 v 2.6875 q -1.21875,-0.67187 -2.45312,-1 -1.21875,-0.34375 -2.46875,-0.34375 -2.79688,0 -4.34375,1.78125 -1.54688,1.76563 -1.54688,4.96875 0,3.20313 1.54688,4.98438 1.54687,1.76562 4.34375,1.76562 1.25,0 2.46875,-0.32812 1.23437,-0.34375 2.45312,-1.01563 v 2.65625 q -1.20312,0.5625 -2.5,0.84375 -1.28125,0.28125 -2.73437,0.28125 -3.95313,0 -6.28125,-2.48437 -2.32813,-2.48438 -2.32813,-6.70313 0,-4.28125 2.34375,-6.73437 2.35938,-2.45313 6.45313,-2.45313 1.32812,0 2.59375,0.28125 1.26562,0.26563 2.45312,0.8125 z"
             style="font-size:32px;line-height:1.25"
             id="path940"
             inkscape:connector-curvature="0" />
          <path
             d="m 319.70312,181.90698 q -2.3125,0 -3.65625,1.8125 -1.34375,1.79688 -1.34375,4.9375 0,3.14063 1.32813,4.95313 1.34375,1.79687 3.67187,1.79687 2.29688,0 3.64063,-1.8125 1.34375,-1.8125 1.34375,-4.9375 0,-3.10937 -1.34375,-4.92187 -1.34375,-1.82813 -3.64063,-1.82813 z m 0,-2.4375 q 3.75,0 5.89063,2.4375 2.14062,2.4375 2.14062,6.75 0,4.29688 -2.14062,6.75 -2.14063,2.4375 -5.89063,2.4375 -3.76562,0 -5.90625,-2.4375 -2.125,-2.45312 -2.125,-6.75 0,-4.3125 2.125,-6.75 2.14063,-2.4375 5.90625,-2.4375 z"
             style="font-size:32px;line-height:1.25"
             id="path942"
             inkscape:connector-curvature="0" />
          <path
             d="m 347.03125,186.82886 v 10.5625 h -2.875 v -10.46875 q 0,-2.48438 -0.96875,-3.71875 -0.96875,-1.23438 -2.90625,-1.23438 -2.32813,0 -3.67188,1.48438 -1.34375,1.48437 -1.34375,4.04687 v 9.89063 H 332.375 v -17.5 h 2.89062 v 2.71875 q 1.03125,-1.57813 2.42188,-2.35938 1.40625,-0.78125 3.23437,-0.78125 3.01563,0 4.5625,1.875 1.54688,1.85938 1.54688,5.48438 z"
             style="font-size:32px;line-height:1.25"
             id="path944"
             inkscape:connector-curvature="0" />
          <path
             d="m 361.65625,173.07886 v 2.39062 h -2.75 q -1.54688,0 -2.15625,0.625 -0.59375,0.625 -0.59375,2.25 v 1.54688 h 4.73437 v 2.23437 h -4.73437 v 15.26563 h -2.89063 v -15.26563 h -2.75 v -2.23437 h 2.75 v -1.21875 q 0,-2.92188 1.35938,-4.25 1.35937,-1.34375 4.3125,-1.34375 z"
             style="font-size:32px;line-height:1.25"
             id="path946"
             inkscape:connector-curvature="0" />
        </g>
      </a>
    </g>
    <g
       id="g3114"
       transform="translate(-239.6655,-20)">
      <rect
         rx="16.513845"
         ry="16.513845"
         y="184.71448"
         x="490.62"
         height="68.760017"
         width="168.42554"
         id="rect1916"
         style="opacity:0.52284265;fill:none;fill-opacity:1;fill-rule:nonzero;stroke:#000000;stroke-width:1.23998845;stroke-opacity:1" />
      <g
         aria-label="auditctl"
         style="font-style:normal;font-weight:normal;line-height:0%;font-family:'Andale Sans';text-align:center;text-anchor:middle;fill:#000000;fill-opacity:1;stroke:none;stroke-width:1px;stroke-linecap:butt;stroke-linejoin:miter;stroke-opacity:1"
         id="text1934">
        <path
           d="m 522.14062,218.20386 q -3.48437,0 -4.82812,0.79687 -1.34375,0.79688 -1.34375,2.71875 0,1.53125 1,2.4375 1.01562,0.89063 2.75,0.89063 2.39062,0 3.82812,-1.6875 Q 525,221.65698 525,218.84448 v -0.64062 z m 5.73438,-1.1875 v 9.98437 H 525 v -2.65625 q -0.98438,1.59375 -2.45313,2.35938 -1.46875,0.75 -3.59375,0.75 -2.6875,0 -4.28125,-1.5 -1.57812,-1.51563 -1.57812,-4.04688 0,-2.95312 1.96875,-4.45312 1.98437,-1.5 5.90625,-1.5 H 525 v -0.28125 q 0,-1.98438 -1.3125,-3.0625 -1.29688,-1.09375 -3.65625,-1.09375 -1.5,0 -2.92188,0.35937 -1.42187,0.35938 -2.73437,1.07813 v -2.65625 q 1.57812,-0.60938 3.0625,-0.90625 1.48437,-0.3125 2.89062,-0.3125 3.79688,0 5.67188,1.96875 1.875,1.96875 1.875,5.96875 z"
           style="font-size:32px;line-height:1.25"
           id="path949"
           inkscape:connector-curvature="0" />
        <path
           d="m 533.51562,220.09448 v -10.59375 h 2.875 v 10.48438 q 0,2.48437 0.96875,3.73437 0.96875,1.23438 2.90625,1.23438 2.32813,0 3.67188,-1.48438 1.35937,-1.48437 1.35937,-4.04687 v -9.92188 h 2.875 v 17.5 h -2.875 v -2.6875 q -1.04687,1.59375 -2.4375,2.375 -1.375,0.76563 -3.20312,0.76563 -3.01563,0 -4.57813,-1.875 -1.5625,-1.875 -1.5625,-5.48438 z M 540.75,209.07886 Z"
           style="font-size:32px;line-height:1.25"
           id="path951"
           inkscape:connector-curvature="0" />
        <path
           d="m 565.64062,212.15698 v -9.46875 h 2.875 v 24.3125 h -2.875 v -2.625 q -0.90625,1.5625 -2.29687,2.32813 -1.375,0.75 -3.3125,0.75 -3.17188,0 -5.17188,-2.53125 -1.98437,-2.53125 -1.98437,-6.65625 0,-4.125 1.98437,-6.65625 2,-2.53125 5.17188,-2.53125 1.9375,0 3.3125,0.76562 1.39062,0.75 2.29687,2.3125 z m -9.79687,6.10938 q 0,3.17187 1.29687,4.98437 1.3125,1.79688 3.59375,1.79688 2.28125,0 3.59375,-1.79688 1.3125,-1.8125 1.3125,-4.98437 0,-3.17188 -1.3125,-4.96875 -1.3125,-1.8125 -3.59375,-1.8125 -2.28125,0 -3.59375,1.8125 -1.29687,1.79687 -1.29687,4.96875 z"
           style="font-size:32px;line-height:1.25"
           id="path953"
           inkscape:connector-curvature="0" />
        <path
           d="m 574.4375,209.50073 h 2.875 v 17.5 h -2.875 z m 0,-6.8125 h 2.875 v 3.64063 h -2.875 z"
           style="font-size:32px;line-height:1.25"
           id="path955"
           inkscape:connector-curvature="0" />
        <path
           d="m 586.15625,204.53198 v 4.96875 h 5.92187 v 2.23438 h -5.92187 v 9.5 q 0,2.14062 0.57812,2.75 0.59375,0.60937 2.39063,0.60937 h 2.95312 v 2.40625 H 589.125 q -3.32813,0 -4.59375,-1.23437 -1.26563,-1.25 -1.26563,-4.53125 v -9.5 h -2.10937 v -2.23438 h 2.10937 v -4.96875 z"
           style="font-size:32px;line-height:1.25"
           id="path957"
           inkscape:connector-curvature="0" />
        <path
           d="m 608.46875,210.17261 v 2.6875 q -1.21875,-0.67188 -2.45313,-1 -1.21875,-0.34375 -2.46875,-0.34375 -2.79687,0 -4.34375,1.78125 -1.54687,1.76562 -1.54687,4.96875 0,3.20312 1.54687,4.98437 1.54688,1.76563 4.34375,1.76563 1.25,0 2.46875,-0.32813 1.23438,-0.34375 2.45313,-1.01562 v 2.65625 q -1.20313,0.5625 -2.5,0.84375 -1.28125,0.28125 -2.73438,0.28125 -3.95312,0 -6.28125,-2.48438 -2.32812,-2.48437 -2.32812,-6.70312 0,-4.28125 2.34375,-6.73438 2.35937,-2.45312 6.45312,-2.45312 1.32813,0 2.59375,0.28125 1.26563,0.26562 2.45313,0.8125 z"
           style="font-size:32px;line-height:1.25"
           id="path959"
           inkscape:connector-curvature="0" />
        <path
           d="m 616.34375,204.53198 v 4.96875 h 5.92187 v 2.23438 h -5.92187 v 9.5 q 0,2.14062 0.57812,2.75 0.59375,0.60937 2.39063,0.60937 h 2.95312 v 2.40625 h -2.95312 q -3.32813,0 -4.59375,-1.23437 -1.26563,-1.25 -1.26563,-4.53125 v -9.5 h -2.10937 v -2.23438 h 2.10937 v -4.96875 z"
           style="font-size:32px;line-height:1.25"
           id="path961"
           inkscape:connector-curvature="0" />
        <path
           d="m 626.0625,202.68823 h 2.875 v 24.3125 h -2.875 z"
           style="font-size:32px;line-height:1.25"
           id="path963"
           inkscape:connector-curvature="0" />
      </g>
    </g>
    <g
       id="g3109"
       transform="translate(-519.5,-80.5)">
      <rect
         ry="0"
         y="84.094482"
         x="590"
         height="70"
         width="200"
         id="rect1938"
         style="opacity:0.52284265;fill:none;fill-opacity:1;fill-rule:nonzero;stroke:#000000;stroke-opacity:1" />
      <g
         aria-label="audit.rules"
         style="font-style:normal;font-weight:normal;line-height:0%;font-family:'Andale Sans';text-align:center;text-anchor:middle;fill:#000000;fill-opacity:1;stroke:none;stroke-width:1px;stroke-linecap:butt;stroke-linejoin:miter;stroke-opacity:1"
         id="text1940">
        <path
           d="m 614.625,119.29761 q -3.48438,0 -4.82813,0.79687 -1.34375,0.79688 -1.34375,2.71875 0,1.53125 1,2.4375 1.01563,0.89063 2.75,0.89063 2.39063,0 3.82813,-1.6875 1.45312,-1.70313 1.45312,-4.51563 v -0.64062 z m 5.73437,-1.1875 v 9.98437 h -2.875 v -2.65625 q -0.98437,1.59375 -2.45312,2.35938 -1.46875,0.75 -3.59375,0.75 -2.6875,0 -4.28125,-1.5 -1.57813,-1.51563 -1.57813,-4.04688 0,-2.95312 1.96875,-4.45312 1.98438,-1.5 5.90625,-1.5 h 4.03125 v -0.28125 q 0,-1.98438 -1.3125,-3.0625 -1.29687,-1.09375 -3.65625,-1.09375 -1.5,0 -2.92187,0.35937 -1.42188,0.35938 -2.73438,1.07813 v -2.65625 q 1.57813,-0.60938 3.0625,-0.90625 1.48438,-0.3125 2.89063,-0.3125 3.79687,0 5.67187,1.96875 1.875,1.96875 1.875,5.96875 z"
           style="font-size:32px;line-height:1.25"
           id="path903"
           inkscape:connector-curvature="0" />
        <path
           d="m 626,121.18823 v -10.59375 h 2.875 v 10.48438 q 0,2.48437 0.96875,3.73437 0.96875,1.23438 2.90625,1.23438 2.32812,0 3.67187,-1.48438 1.35938,-1.48437 1.35938,-4.04687 v -9.92188 h 2.875 v 17.5 h -2.875 v -2.6875 q -1.04688,1.59375 -2.4375,2.375 -1.375,0.76563 -3.20313,0.76563 -3.01562,0 -4.57812,-1.875 Q 626,124.79761 626,121.18823 Z m 7.23437,-11.01562 z"
           style="font-size:32px;line-height:1.25"
           id="path905"
           inkscape:connector-curvature="0" />
        <path
           d="m 658.125,113.25073 v -9.46875 H 661 v 24.3125 h -2.875 v -2.625 q -0.90625,1.5625 -2.29688,2.32813 -1.375,0.75 -3.3125,0.75 -3.17187,0 -5.17187,-2.53125 -1.98438,-2.53125 -1.98438,-6.65625 0,-4.125 1.98438,-6.65625 2,-2.53125 5.17187,-2.53125 1.9375,0 3.3125,0.76562 1.39063,0.75 2.29688,2.3125 z m -9.79688,6.10938 q 0,3.17187 1.29688,4.98437 1.3125,1.79688 3.59375,1.79688 2.28125,0 3.59375,-1.79688 1.3125,-1.8125 1.3125,-4.98437 0,-3.17188 -1.3125,-4.96875 -1.3125,-1.8125 -3.59375,-1.8125 -2.28125,0 -3.59375,1.8125 -1.29688,1.79687 -1.29688,4.96875 z"
           style="font-size:32px;line-height:1.25"
           id="path907"
           inkscape:connector-curvature="0" />
        <path
           d="m 666.92187,110.59448 h 2.875 v 17.5 h -2.875 z m 0,-6.8125 h 2.875 v 3.64063 h -2.875 z"
           style="font-size:32px;line-height:1.25"
           id="path909"
           inkscape:connector-curvature="0" />
        <path
           d="m 678.64062,105.62573 v 4.96875 h 5.92188 v 2.23438 h -5.92188 v 9.5 q 0,2.14062 0.57813,2.75 0.59375,0.60937 2.39062,0.60937 h 2.95313 v 2.40625 h -2.95313 q -3.32812,0 -4.59375,-1.23437 -1.26562,-1.25 -1.26562,-4.53125 v -9.5 h -2.10938 v -2.23438 H 675.75 v -4.96875 z"
           style="font-size:32px;line-height:1.25"
           id="path911"
           inkscape:connector-curvature="0" />
        <path
           d="m 688.76562,124.12573 h 3.29688 v 3.96875 h -3.29688 z"
           style="font-size:32px;line-height:1.25"
           id="path913"
           inkscape:connector-curvature="0" />
        <path
           d="m 708.6875,113.28198 q -0.48438,-0.28125 -1.0625,-0.40625 -0.5625,-0.14062 -1.25,-0.14062 -2.4375,0 -3.75,1.59375 -1.29688,1.57812 -1.29688,4.54687 v 9.21875 h -2.89062 v -17.5 h 2.89062 v 2.71875 q 0.90625,-1.59375 2.35938,-2.35937 1.45312,-0.78125 3.53125,-0.78125 0.29687,0 0.65625,0.0469 0.35937,0.0312 0.79687,0.10938 z"
           style="font-size:32px;line-height:1.25"
           id="path915"
           inkscape:connector-curvature="0" />
        <path
           d="m 711.4375,121.18823 v -10.59375 h 2.875 v 10.48438 q 0,2.48437 0.96875,3.73437 0.96875,1.23438 2.90625,1.23438 2.32812,0 3.67187,-1.48438 1.35938,-1.48437 1.35938,-4.04687 v -9.92188 h 2.875 v 17.5 h -2.875 v -2.6875 q -1.04688,1.59375 -2.4375,2.375 -1.375,0.76563 -3.20313,0.76563 -3.01562,0 -4.57812,-1.875 -1.5625,-1.875 -1.5625,-5.48438 z m 7.23437,-11.01562 z"
           style="font-size:32px;line-height:1.25"
           id="path917"
           inkscape:connector-curvature="0" />
        <path
           d="m 732.04687,103.78198 h 2.875 v 24.3125 h -2.875 z"
           style="font-size:32px;line-height:1.25"
           id="path919"
           inkscape:connector-curvature="0" />
        <path
           d="m 755.89062,118.62573 v 1.40625 h -13.21875 q 0.1875,2.96875 1.78125,4.53125 1.60938,1.54688 4.46875,1.54688 1.65625,0 3.20313,-0.40625 1.5625,-0.40625 3.09375,-1.21875 v 2.71875 q -1.54688,0.65625 -3.17188,1 -1.625,0.34375 -3.29687,0.34375 -4.1875,0 -6.64063,-2.4375 -2.4375,-2.4375 -2.4375,-6.59375 0,-4.29688 2.3125,-6.8125 2.32813,-2.53125 6.26563,-2.53125 3.53125,0 5.57812,2.28125 2.0625,2.26562 2.0625,6.17187 z m -2.875,-0.84375 q -0.0312,-2.35937 -1.32812,-3.76562 -1.28125,-1.40625 -3.40625,-1.40625 -2.40625,0 -3.85938,1.35937 -1.4375,1.35938 -1.65625,3.82813 z"
           style="font-size:32px;line-height:1.25"
           id="path921"
           inkscape:connector-curvature="0" />
        <path
           d="m 771.76562,111.11011 v 2.71875 q -1.21875,-0.625 -2.53125,-0.9375 -1.3125,-0.3125 -2.71875,-0.3125 -2.14062,0 -3.21875,0.65625 -1.0625,0.65625 -1.0625,1.96875 0,1 0.76563,1.57812 0.76562,0.5625 3.07812,1.07813 l 0.98438,0.21875 q 3.0625,0.65625 4.34375,1.85937 1.29687,1.1875 1.29687,3.32813 0,2.4375 -1.9375,3.85937 -1.92187,1.42188 -5.29687,1.42188 -1.40625,0 -2.9375,-0.28125 -1.51563,-0.26563 -3.20313,-0.8125 v -2.96875 q 1.59375,0.82812 3.14063,1.25 1.54687,0.40625 3.0625,0.40625 2.03125,0 3.125,-0.6875 1.09375,-0.70313 1.09375,-1.96875 0,-1.17188 -0.79688,-1.79688 -0.78125,-0.625 -3.45312,-1.20312 l -1,-0.23438 q -2.67188,-0.5625 -3.85938,-1.71875 -1.1875,-1.17187 -1.1875,-3.20312 0,-2.46875 1.75,-3.8125 1.75,-1.34375 4.96875,-1.34375 1.59375,0 3,0.23437 1.40625,0.23438 2.59375,0.70313 z"
           style="font-size:32px;line-height:1.25"
           id="path923"
           inkscape:connector-curvature="0" />
      </g>
    </g>
    <g
       id="g3119"
       transform="translate(19.99999,150)">
      <rect
         y="244.1461"
         x="620.55164"
         height="69.396751"
         width="178.89676"
         id="rect1952"
         style="opacity:0.52284265;fill:none;fill-opacity:1;fill-rule:nonzero;stroke:#000000;stroke-width:1.10324192;stroke-opacity:1" />
      <g
         aria-label="audit.log"
         style="font-style:normal;font-weight:normal;line-height:0%;font-family:'Andale Sans';text-align:center;text-anchor:middle;fill:#000000;fill-opacity:1;stroke:none;stroke-width:1px;stroke-linecap:butt;stroke-linejoin:miter;stroke-opacity:1"
         id="text1954">
        <path
           d="m 650.03125,278.56323 q -3.48438,0 -4.82813,0.79688 -1.34375,0.79687 -1.34375,2.71875 0,1.53125 1,2.4375 1.01563,0.89062 2.75,0.89062 2.39063,0 3.82813,-1.6875 1.45312,-1.70312 1.45312,-4.51562 v -0.64063 z m 5.73437,-1.1875 v 9.98438 h -2.875 v -2.65625 q -0.98437,1.59375 -2.45312,2.35937 -1.46875,0.75 -3.59375,0.75 -2.6875,0 -4.28125,-1.5 -1.57813,-1.51562 -1.57813,-4.04687 0,-2.95313 1.96875,-4.45313 1.98438,-1.5 5.90625,-1.5 h 4.03125 v -0.28125 q 0,-1.98437 -1.3125,-3.0625 -1.29687,-1.09375 -3.65625,-1.09375 -1.5,0 -2.92187,0.35938 -1.42188,0.35937 -2.73438,1.07812 v -2.65625 q 1.57813,-0.60937 3.0625,-0.90625 1.48438,-0.3125 2.89063,-0.3125 3.79687,0 5.67187,1.96875 1.875,1.96875 1.875,5.96875 z"
           style="font-size:32px;line-height:1.25"
           id="path1013"
           inkscape:connector-curvature="0" />
        <path
           d="m 661.40625,280.45386 v -10.59375 h 2.875 v 10.48437 q 0,2.48438 0.96875,3.73438 0.96875,1.23437 2.90625,1.23437 2.32812,0 3.67187,-1.48437 1.35938,-1.48438 1.35938,-4.04688 v -9.92187 h 2.875 v 17.5 h -2.875 v -2.6875 q -1.04688,1.59375 -2.4375,2.375 -1.375,0.76562 -3.20313,0.76562 -3.01562,0 -4.57812,-1.875 -1.5625,-1.875 -1.5625,-5.48437 z m 7.23437,-11.01563 z"
           style="font-size:32px;line-height:1.25"
           id="path1015"
           inkscape:connector-curvature="0" />
        <path
           d="m 693.53125,272.51636 v -9.46875 h 2.875 v 24.3125 h -2.875 v -2.625 q -0.90625,1.5625 -2.29688,2.32812 -1.375,0.75 -3.3125,0.75 -3.17187,0 -5.17187,-2.53125 -1.98438,-2.53125 -1.98438,-6.65625 0,-4.125 1.98438,-6.65625 2,-2.53125 5.17187,-2.53125 1.9375,0 3.3125,0.76563 1.39063,0.75 2.29688,2.3125 z m -9.79688,6.10937 q 0,3.17188 1.29688,4.98438 1.3125,1.79687 3.59375,1.79687 2.28125,0 3.59375,-1.79687 1.3125,-1.8125 1.3125,-4.98438 0,-3.17187 -1.3125,-4.96875 -1.3125,-1.8125 -3.59375,-1.8125 -2.28125,0 -3.59375,1.8125 -1.29688,1.79688 -1.29688,4.96875 z"
           style="font-size:32px;line-height:1.25"
           id="path1017"
           inkscape:connector-curvature="0" />
        <path
           d="m 702.32812,269.86011 h 2.875 v 17.5 h -2.875 z m 0,-6.8125 h 2.875 v 3.64062 h -2.875 z"
           style="font-size:32px;line-height:1.25"
           id="path1019"
           inkscape:connector-curvature="0" />
        <path
           d="m 714.04687,264.89136 v 4.96875 h 5.92188 v 2.23437 h -5.92188 v 9.5 q 0,2.14063 0.57813,2.75 0.59375,0.60938 2.39062,0.60938 h 2.95313 v 2.40625 h -2.95313 q -3.32812,0 -4.59375,-1.23438 -1.26562,-1.25 -1.26562,-4.53125 v -9.5 h -2.10938 v -2.23437 h 2.10938 v -4.96875 z"
           style="font-size:32px;line-height:1.25"
           id="path1021"
           inkscape:connector-curvature="0" />
        <path
           d="m 724.17187,283.39136 h 3.29688 v 3.96875 h -3.29688 z"
           style="font-size:32px;line-height:1.25"
           id="path1023"
           inkscape:connector-curvature="0" />
        <path
           d="m 733.95312,263.04761 h 2.875 v 24.3125 h -2.875 z"
           style="font-size:32px;line-height:1.25"
           id="path1025"
           inkscape:connector-curvature="0" />
        <path
           d="m 749.60937,271.87573 q -2.3125,0 -3.65625,1.8125 -1.34375,1.79688 -1.34375,4.9375 0,3.14063 1.32813,4.95313 1.34375,1.79687 3.67187,1.79687 2.29688,0 3.64063,-1.8125 1.34375,-1.8125 1.34375,-4.9375 0,-3.10937 -1.34375,-4.92187 -1.34375,-1.82813 -3.64063,-1.82813 z m 0,-2.4375 q 3.75,0 5.89063,2.4375 2.14062,2.4375 2.14062,6.75 0,4.29688 -2.14062,6.75 -2.14063,2.4375 -5.89063,2.4375 -3.76562,0 -5.90625,-2.4375 -2.125,-2.45312 -2.125,-6.75 0,-4.3125 2.125,-6.75 2.14063,-2.4375 5.90625,-2.4375 z"
           style="font-size:32px;line-height:1.25"
           id="path1027"
           inkscape:connector-curvature="0" />
        <path
           d="m 773.90625,278.40698 q 0,-3.125 -1.29688,-4.84375 -1.28125,-1.71875 -3.60937,-1.71875 -2.3125,0 -3.60938,1.71875 -1.28125,1.71875 -1.28125,4.84375 0,3.10938 1.28125,4.82813 1.29688,1.71875 3.60938,1.71875 2.32812,0 3.60937,-1.71875 1.29688,-1.71875 1.29688,-4.82813 z m 2.875,6.78125 q 0,4.46875 -1.98438,6.64063 -1.98437,2.1875 -6.07812,2.1875 -1.51563,0 -2.85938,-0.23438 -1.34375,-0.21875 -2.60937,-0.6875 v -2.79687 q 1.26562,0.6875 2.5,1.01562 1.23437,0.32813 2.51562,0.32813 2.82813,0 4.23438,-1.48438 1.40625,-1.46875 1.40625,-4.45312 v -1.42188 q -0.89063,1.54688 -2.28125,2.3125 -1.39063,0.76563 -3.32813,0.76563 -3.21875,0 -5.1875,-2.45313 -1.96875,-2.45312 -1.96875,-6.5 0,-4.0625 1.96875,-6.51562 1.96875,-2.45313 5.1875,-2.45313 1.9375,0 3.32813,0.76563 1.39062,0.76562 2.28125,2.3125 v -2.65625 h 2.875 z"
           style="font-size:32px;line-height:1.25"
           id="path1029"
           inkscape:connector-curvature="0" />
      </g>
    </g>
    <g
       id="g3142"
       transform="translate(0.291931,-103.0653)">
      <rect
         rx="16.513845"
         ry="16.513845"
         y="344.59448"
         x="630.20807"
         height="62.065338"
         width="159.29195"
         id="rect1966"
         style="opacity:0.52284265;fill:none;fill-opacity:1;fill-rule:nonzero;stroke:#000000;stroke-opacity:1" />
      <g
         aria-label="audispd"
         style="font-style:normal;font-weight:normal;line-height:0%;font-family:'Andale Sans';text-align:center;text-anchor:middle;fill:#000000;fill-opacity:1;stroke:none;stroke-width:1px;stroke-linecap:butt;stroke-linejoin:miter;stroke-opacity:1"
         id="text1968">
        <path
           d="m 658.9375,377.06323 q -3.48438,0 -4.82813,0.79688 -1.34375,0.79687 -1.34375,2.71875 0,1.53125 1,2.4375 1.01563,0.89062 2.75,0.89062 2.39063,0 3.82813,-1.6875 1.45312,-1.70312 1.45312,-4.51562 v -0.64063 z m 5.73437,-1.1875 v 9.98438 h -2.875 v -2.65625 q -0.98437,1.59375 -2.45312,2.35937 -1.46875,0.75 -3.59375,0.75 -2.6875,0 -4.28125,-1.5 -1.57813,-1.51562 -1.57813,-4.04687 0,-2.95313 1.96875,-4.45313 1.98438,-1.5 5.90625,-1.5 h 4.03125 v -0.28125 q 0,-1.98437 -1.3125,-3.0625 -1.29687,-1.09375 -3.65625,-1.09375 -1.5,0 -2.92187,0.35938 -1.42188,0.35937 -2.73438,1.07812 v -2.65625 q 1.57813,-0.60937 3.0625,-0.90625 1.48438,-0.3125 2.89063,-0.3125 3.79687,0 5.67187,1.96875 1.875,1.96875 1.875,5.96875 z"
           style="font-size:32px;line-height:1.25"
           id="path966"
           inkscape:connector-curvature="0" />
        <path
           d="m 670.3125,378.95386 v -10.59375 h 2.875 v 10.48437 q 0,2.48438 0.96875,3.73438 0.96875,1.23437 2.90625,1.23437 2.32812,0 3.67187,-1.48437 1.35938,-1.48438 1.35938,-4.04688 v -9.92187 h 2.875 v 17.5 h -2.875 v -2.6875 q -1.04688,1.59375 -2.4375,2.375 -1.375,0.76562 -3.20313,0.76562 -3.01562,0 -4.57812,-1.875 -1.5625,-1.875 -1.5625,-5.48437 z m 7.23437,-11.01563 z"
           style="font-size:32px;line-height:1.25"
           id="path968"
           inkscape:connector-curvature="0" />
        <path
           d="m 702.4375,371.01636 v -9.46875 h 2.875 v 24.3125 h -2.875 v -2.625 q -0.90625,1.5625 -2.29688,2.32812 -1.375,0.75 -3.3125,0.75 -3.17187,0 -5.17187,-2.53125 -1.98438,-2.53125 -1.98438,-6.65625 0,-4.125 1.98438,-6.65625 2,-2.53125 5.17187,-2.53125 1.9375,0 3.3125,0.76563 1.39063,0.75 2.29688,2.3125 z m -9.79688,6.10937 q 0,3.17188 1.29688,4.98438 1.3125,1.79687 3.59375,1.79687 2.28125,0 3.59375,-1.79687 1.3125,-1.8125 1.3125,-4.98438 0,-3.17187 -1.3125,-4.96875 -1.3125,-1.8125 -3.59375,-1.8125 -2.28125,0 -3.59375,1.8125 -1.29688,1.79688 -1.29688,4.96875 z"
           style="font-size:32px;line-height:1.25"
           id="path970"
           inkscape:connector-curvature="0" />
        <path
           d="m 711.23437,368.36011 h 2.875 v 17.5 h -2.875 z m 0,-6.8125 h 2.875 v 3.64062 h -2.875 z"
           style="font-size:32px;line-height:1.25"
           id="path972"
           inkscape:connector-curvature="0" />
        <path
           d="m 731.26562,368.87573 v 2.71875 q -1.21875,-0.625 -2.53125,-0.9375 -1.3125,-0.3125 -2.71875,-0.3125 -2.14062,0 -3.21875,0.65625 -1.0625,0.65625 -1.0625,1.96875 0,1 0.76563,1.57813 0.76562,0.5625 3.07812,1.07812 l 0.98438,0.21875 q 3.0625,0.65625 4.34375,1.85938 1.29687,1.1875 1.29687,3.32812 0,2.4375 -1.9375,3.85938 -1.92187,1.42187 -5.29687,1.42187 -1.40625,0 -2.9375,-0.28125 -1.51563,-0.26562 -3.20313,-0.8125 v -2.96875 q 1.59375,0.82813 3.14063,1.25 1.54687,0.40625 3.0625,0.40625 2.03125,0 3.125,-0.6875 1.09375,-0.70312 1.09375,-1.96875 0,-1.17187 -0.79688,-1.79687 -0.78125,-0.625 -3.45312,-1.20313 l -1,-0.23437 q -2.67188,-0.5625 -3.85938,-1.71875 -1.1875,-1.17188 -1.1875,-3.20313 0,-2.46875 1.75,-3.8125 1.75,-1.34375 4.96875,-1.34375 1.59375,0 3,0.23438 1.40625,0.23437 2.59375,0.70312 z"
           style="font-size:32px;line-height:1.25"
           id="path974"
           inkscape:connector-curvature="0" />
        <path
           d="m 739.57812,383.23511 v 9.28125 h -2.89062 v -24.15625 h 2.89062 v 2.65625 q 0.90625,-1.5625 2.28125,-2.3125 1.39063,-0.76563 3.3125,-0.76563 3.1875,0 5.17188,2.53125 2,2.53125 2,6.65625 0,4.125 -2,6.65625 -1.98438,2.53125 -5.17188,2.53125 -1.92187,0 -3.3125,-0.75 -1.375,-0.76562 -2.28125,-2.32812 z m 9.78125,-6.10938 q 0,-3.17187 -1.3125,-4.96875 -1.29687,-1.8125 -3.57812,-1.8125 -2.28125,0 -3.59375,1.8125 -1.29688,1.79688 -1.29688,4.96875 0,3.17188 1.29688,4.98438 1.3125,1.79687 3.59375,1.79687 2.28125,0 3.57812,-1.79687 1.3125,-1.8125 1.3125,-4.98438 z"
           style="font-size:32px;line-height:1.25"
           id="path976"
           inkscape:connector-curvature="0" />
        <path
           d="m 768.625,371.01636 v -9.46875 h 2.875 v 24.3125 h -2.875 v -2.625 q -0.90625,1.5625 -2.29688,2.32812 -1.375,0.75 -3.3125,0.75 -3.17187,0 -5.17187,-2.53125 -1.98438,-2.53125 -1.98438,-6.65625 0,-4.125 1.98438,-6.65625 2,-2.53125 5.17187,-2.53125 1.9375,0 3.3125,0.76563 1.39063,0.75 2.29688,2.3125 z m -9.79688,6.10937 q 0,3.17188 1.29688,4.98438 1.3125,1.79687 3.59375,1.79687 2.28125,0 3.59375,-1.79687 1.3125,-1.8125 1.3125,-4.98438 0,-3.17187 -1.3125,-4.96875 -1.3125,-1.8125 -3.59375,-1.8125 -2.28125,0 -3.59375,1.8125 -1.29688,1.79688 -1.29688,4.96875 z"
           style="font-size:32px;line-height:1.25"
           id="path978"
           inkscape:connector-curvature="0" />
      </g>
    </g>
    <g
       id="g3132"
       transform="translate(-175.5024,0.499985)">
      <rect
         rx="17.485249"
         ry="17.485249"
         y="504.23419"
         x="810.63971"
         height="59.220612"
         width="174.22296"
         id="rect1912"
         style="opacity:0.52284265;fill:none;fill-opacity:1;fill-rule:nonzero;stroke:#000000;stroke-width:1.27938879;stroke-opacity:1" />
      <g
         aria-label="autrace"
         style="font-style:normal;font-weight:normal;line-height:0%;font-family:'Andale Sans';text-align:center;text-anchor:middle;fill:#000000;fill-opacity:1;stroke:none;stroke-width:1px;stroke-linecap:butt;stroke-linejoin:miter;stroke-opacity:1"
         id="text1972">
        <path
           d="m 851.90625,534.92261 q -3.48438,0 -4.82813,0.79687 -1.34375,0.79688 -1.34375,2.71875 0,1.53125 1,2.4375 1.01563,0.89063 2.75,0.89063 2.39063,0 3.82813,-1.6875 1.45312,-1.70313 1.45312,-4.51563 v -0.64062 z m 5.73437,-1.1875 v 9.98437 h -2.875 v -2.65625 q -0.98437,1.59375 -2.45312,2.35938 -1.46875,0.75 -3.59375,0.75 -2.6875,0 -4.28125,-1.5 -1.57813,-1.51563 -1.57813,-4.04688 0,-2.95312 1.96875,-4.45312 1.98438,-1.5 5.90625,-1.5 h 4.03125 v -0.28125 q 0,-1.98438 -1.3125,-3.0625 -1.29687,-1.09375 -3.65625,-1.09375 -1.5,0 -2.92187,0.35937 -1.42188,0.35938 -2.73438,1.07813 v -2.65625 q 1.57813,-0.60938 3.0625,-0.90625 1.48438,-0.3125 2.89063,-0.3125 3.79687,0 5.67187,1.96875 1.875,1.96875 1.875,5.96875 z"
           style="font-size:32px;line-height:1.25"
           id="path1049"
           inkscape:connector-curvature="0" />
        <path
           d="m 863.28125,536.81323 v -10.59375 h 2.875 v 10.48438 q 0,2.48437 0.96875,3.73437 0.96875,1.23438 2.90625,1.23438 2.32812,0 3.67187,-1.48438 1.35938,-1.48437 1.35938,-4.04687 v -9.92188 h 2.875 v 17.5 h -2.875 v -2.6875 q -1.04688,1.59375 -2.4375,2.375 -1.375,0.76563 -3.20313,0.76563 -3.01562,0 -4.57812,-1.875 -1.5625,-1.875 -1.5625,-5.48438 z m 7.23437,-11.01562 z"
           style="font-size:32px;line-height:1.25"
           id="path1051"
           inkscape:connector-curvature="0" />
        <path
           d="m 886.73437,521.25073 v 4.96875 h 5.92188 v 2.23438 h -5.92188 v 9.5 q 0,2.14062 0.57813,2.75 0.59375,0.60937 2.39062,0.60937 h 2.95313 v 2.40625 h -2.95313 q -3.32812,0 -4.59375,-1.23437 -1.26562,-1.25 -1.26562,-4.53125 v -9.5 h -2.10938 v -2.23438 h 2.10938 v -4.96875 z"
           style="font-size:32px;line-height:1.25"
           id="path1053"
           inkscape:connector-curvature="0" />
        <path
           d="m 906.59375,528.90698 q -0.48438,-0.28125 -1.0625,-0.40625 -0.5625,-0.14062 -1.25,-0.14062 -2.4375,0 -3.75,1.59375 -1.29688,1.57812 -1.29688,4.54687 v 9.21875 h -2.89062 v -17.5 h 2.89062 v 2.71875 q 0.90625,-1.59375 2.35938,-2.35937 1.45312,-0.78125 3.53125,-0.78125 0.29687,0 0.65625,0.0469 0.35937,0.0312 0.79687,0.10938 z"
           style="font-size:32px;line-height:1.25"
           id="path1055"
           inkscape:connector-curvature="0" />
        <path
           d="m 917.59375,534.92261 q -3.48438,0 -4.82813,0.79687 -1.34375,0.79688 -1.34375,2.71875 0,1.53125 1,2.4375 1.01563,0.89063 2.75,0.89063 2.39063,0 3.82813,-1.6875 1.45312,-1.70313 1.45312,-4.51563 v -0.64062 z m 5.73437,-1.1875 v 9.98437 h -2.875 v -2.65625 q -0.98437,1.59375 -2.45312,2.35938 -1.46875,0.75 -3.59375,0.75 -2.6875,0 -4.28125,-1.5 -1.57813,-1.51563 -1.57813,-4.04688 0,-2.95312 1.96875,-4.45312 1.98438,-1.5 5.90625,-1.5 h 4.03125 v -0.28125 q 0,-1.98438 -1.3125,-3.0625 -1.29687,-1.09375 -3.65625,-1.09375 -1.5,0 -2.92187,0.35937 -1.42188,0.35938 -2.73438,1.07813 v -2.65625 q 1.57813,-0.60938 3.0625,-0.90625 1.48438,-0.3125 2.89063,-0.3125 3.79687,0 5.67187,1.96875 1.875,1.96875 1.875,5.96875 z"
           style="font-size:32px;line-height:1.25"
           id="path1057"
           inkscape:connector-curvature="0" />
        <path
           d="m 941.85937,526.89136 v 2.6875 q -1.21875,-0.67188 -2.45312,-1 -1.21875,-0.34375 -2.46875,-0.34375 -2.79688,0 -4.34375,1.78125 -1.54688,1.76562 -1.54688,4.96875 0,3.20312 1.54688,4.98437 1.54687,1.76563 4.34375,1.76563 1.25,0 2.46875,-0.32813 1.23437,-0.34375 2.45312,-1.01562 v 2.65625 q -1.20312,0.5625 -2.5,0.84375 -1.28125,0.28125 -2.73437,0.28125 -3.95313,0 -6.28125,-2.48438 -2.32813,-2.48437 -2.32813,-6.70312 0,-4.28125 2.34375,-6.73438 2.35938,-2.45312 6.45313,-2.45312 1.32812,0 2.59375,0.28125 1.26562,0.26562 2.45312,0.8125 z"
           style="font-size:32px;line-height:1.25"
           id="path1059"
           inkscape:connector-curvature="0" />
        <path
           d="m 961.85937,534.25073 v 1.40625 h -13.21875 q 0.1875,2.96875 1.78125,4.53125 1.60938,1.54688 4.46875,1.54688 1.65625,0 3.20313,-0.40625 1.5625,-0.40625 3.09375,-1.21875 v 2.71875 q -1.54688,0.65625 -3.17188,1 -1.625,0.34375 -3.29687,0.34375 -4.1875,0 -6.64063,-2.4375 -2.4375,-2.4375 -2.4375,-6.59375 0,-4.29688 2.3125,-6.8125 2.32813,-2.53125 6.26563,-2.53125 3.53125,0 5.57812,2.28125 2.0625,2.26562 2.0625,6.17187 z m -2.875,-0.84375 q -0.0312,-2.35937 -1.32812,-3.76562 -1.28125,-1.40625 -3.40625,-1.40625 -2.40625,0 -3.85938,1.35937 -1.4375,1.35938 -1.65625,3.82813 z"
           style="font-size:32px;line-height:1.25"
           id="path1061"
           inkscape:connector-curvature="0" />
      </g>
    </g>
    <g
       id="g3137"
       transform="translate(12.04193,80)">
      <rect
         rx="16.513845"
         ry="16.513845"
         y="224.65166"
         x="860.55719"
         height="48.885654"
         width="176.8437"
         id="rect1976"
         style="opacity:0.52284265;fill:none;fill-opacity:1;fill-rule:nonzero;stroke:#000000;stroke-width:1.11434877;stroke-opacity:1" />
      <g
         aria-label="aureport"
         style="font-style:normal;font-weight:normal;line-height:0%;font-family:'Andale Sans';text-align:center;text-anchor:middle;fill:#000000;fill-opacity:1;stroke:none;stroke-width:1px;stroke-linecap:butt;stroke-linejoin:miter;stroke-opacity:1"
         id="text1980">
        <path
           d="m 890.59375,248.93823 q -3.48438,0 -4.82813,0.79688 -1.34375,0.79687 -1.34375,2.71875 0,1.53125 1,2.4375 1.01563,0.89062 2.75,0.89062 2.39063,0 3.82813,-1.6875 1.45312,-1.70312 1.45312,-4.51562 v -0.64063 z m 5.73437,-1.1875 v 9.98438 h -2.875 v -2.65625 q -0.98437,1.59375 -2.45312,2.35937 -1.46875,0.75 -3.59375,0.75 -2.6875,0 -4.28125,-1.5 -1.57813,-1.51562 -1.57813,-4.04687 0,-2.95313 1.96875,-4.45313 1.98438,-1.5 5.90625,-1.5 h 4.03125 v -0.28125 q 0,-1.98437 -1.3125,-3.0625 -1.29687,-1.09375 -3.65625,-1.09375 -1.5,0 -2.92187,0.35938 -1.42188,0.35937 -2.73438,1.07812 v -2.65625 q 1.57813,-0.60937 3.0625,-0.90625 1.48438,-0.3125 2.89063,-0.3125 3.79687,0 5.67187,1.96875 1.875,1.96875 1.875,5.96875 z"
           style="font-size:32px;line-height:1.25"
           id="path1032"
           inkscape:connector-curvature="0" />
        <path
           d="m 901.96875,250.82886 v -10.59375 h 2.875 v 10.48437 q 0,2.48438 0.96875,3.73438 0.96875,1.23437 2.90625,1.23437 2.32812,0 3.67187,-1.48437 1.35938,-1.48438 1.35938,-4.04688 v -9.92187 h 2.875 v 17.5 h -2.875 v -2.6875 q -1.04688,1.59375 -2.4375,2.375 -1.375,0.76562 -3.20313,0.76562 -3.01562,0 -4.57812,-1.875 -1.5625,-1.875 -1.5625,-5.48437 z m 7.23437,-11.01563 z"
           style="font-size:32px;line-height:1.25"
           id="path1034"
           inkscape:connector-curvature="0" />
        <path
           d="m 932.71875,242.92261 q -0.48438,-0.28125 -1.0625,-0.40625 -0.5625,-0.14063 -1.25,-0.14063 -2.4375,0 -3.75,1.59375 -1.29688,1.57813 -1.29688,4.54688 v 9.21875 h -2.89062 v -17.5 h 2.89062 v 2.71875 q 0.90625,-1.59375 2.35938,-2.35938 1.45312,-0.78125 3.53125,-0.78125 0.29687,0 0.65625,0.0469 0.35937,0.0312 0.79687,0.10937 z"
           style="font-size:32px;line-height:1.25"
           id="path1036"
           inkscape:connector-curvature="0" />
        <path
           d="m 950.04687,248.26636 v 1.40625 h -13.21875 q 0.1875,2.96875 1.78125,4.53125 1.60938,1.54687 4.46875,1.54687 1.65625,0 3.20313,-0.40625 1.5625,-0.40625 3.09375,-1.21875 v 2.71875 q -1.54688,0.65625 -3.17188,1 -1.625,0.34375 -3.29687,0.34375 -4.1875,0 -6.64063,-2.4375 -2.4375,-2.4375 -2.4375,-6.59375 0,-4.29687 2.3125,-6.8125 2.32813,-2.53125 6.26563,-2.53125 3.53125,0 5.57812,2.28125 2.0625,2.26563 2.0625,6.17188 z m -2.875,-0.84375 q -0.0312,-2.35938 -1.32812,-3.76563 -1.28125,-1.40625 -3.40625,-1.40625 -2.40625,0 -3.85938,1.35938 -1.4375,1.35937 -1.65625,3.82812 z"
           style="font-size:32px;line-height:1.25"
           id="path1038"
           inkscape:connector-curvature="0" />
        <path
           d="m 957.54687,255.11011 v 9.28125 h -2.89062 v -24.15625 h 2.89062 v 2.65625 q 0.90625,-1.5625 2.28125,-2.3125 1.39063,-0.76563 3.3125,-0.76563 3.1875,0 5.17188,2.53125 2,2.53125 2,6.65625 0,4.125 -2,6.65625 -1.98438,2.53125 -5.17188,2.53125 -1.92187,0 -3.3125,-0.75 -1.375,-0.76562 -2.28125,-2.32812 z m 9.78125,-6.10938 q 0,-3.17187 -1.3125,-4.96875 -1.29687,-1.8125 -3.57812,-1.8125 -2.28125,0 -3.59375,1.8125 -1.29688,1.79688 -1.29688,4.96875 0,3.17188 1.29688,4.98438 1.3125,1.79687 3.59375,1.79687 2.28125,0 3.57812,-1.79687 1.3125,-1.8125 1.3125,-4.98438 z"
           style="font-size:32px;line-height:1.25"
           id="path1040"
           inkscape:connector-curvature="0" />
        <path
           d="m 981.85937,242.25073 q -2.3125,0 -3.65625,1.8125 -1.34375,1.79688 -1.34375,4.9375 0,3.14063 1.32813,4.95313 1.34375,1.79687 3.67187,1.79687 2.29688,0 3.64063,-1.8125 1.34375,-1.8125 1.34375,-4.9375 0,-3.10937 -1.34375,-4.92187 -1.34375,-1.82813 -3.64063,-1.82813 z m 0,-2.4375 q 3.75,0 5.89063,2.4375 2.14062,2.4375 2.14062,6.75 0,4.29688 -2.14062,6.75 -2.14063,2.4375 -5.89063,2.4375 -3.76562,0 -5.90625,-2.4375 -2.125,-2.45312 -2.125,-6.75 0,-4.3125 2.125,-6.75 2.14063,-2.4375 5.90625,-2.4375 z"
           style="font-size:32px;line-height:1.25"
           id="path1042"
           inkscape:connector-curvature="0" />
        <path
           d="m 1004.7812,242.92261 q -0.4843,-0.28125 -1.0625,-0.40625 -0.5625,-0.14063 -1.25,-0.14063 -2.4375,0 -3.74995,1.59375 -1.29688,1.57813 -1.29688,4.54688 v 9.21875 h -2.89062 v -17.5 h 2.89062 v 2.71875 q 0.90625,-1.59375 2.35938,-2.35938 1.45315,-0.78125 3.53125,-0.78125 0.2969,0 0.6562,0.0469 0.3594,0.0312 0.7969,0.10937 z"
           style="font-size:32px;line-height:1.25"
           id="path1044"
           inkscape:connector-curvature="0" />
        <path
           d="m 1010.6719,235.26636 v 4.96875 h 5.9218 v 2.23437 h -5.9218 v 9.5 q 0,2.14063 0.5781,2.75 0.5937,0.60938 2.3906,0.60938 h 2.9531 v 2.40625 h -2.9531 q -3.3281,0 -4.5937,-1.23438 -1.2657,-1.25 -1.2657,-4.53125 v -9.5 h -2.1093 v -2.23437 h 2.1093 v -4.96875 z"
           style="font-size:32px;line-height:1.25"
           id="path1046"
           inkscape:connector-curvature="0" />
      </g>
    </g>
    <g
       id="g3147"
       transform="translate(13.31515,211.4467)">
      <rect
         rx="16.513845"
         ry="16.513845"
         y="294.64084"
         x="857.2312"
         height="47.46059"
         width="182.22241"
         id="rect1978"
         style="opacity:0.52284265;fill:none;fill-opacity:1;fill-rule:nonzero;stroke:#000000;stroke-width:1.09271169;stroke-opacity:1" />
      <g
         aria-label="ausearch"
         style="font-style:normal;font-weight:normal;line-height:0%;font-family:'Andale Sans';text-align:center;text-anchor:middle;fill:#000000;fill-opacity:1;stroke:none;stroke-width:1px;stroke-linecap:butt;stroke-linejoin:miter;stroke-opacity:1"
         id="text1984">
        <path
           d="m 884.09375,318.20386 q -3.48438,0 -4.82813,0.79687 -1.34375,0.79688 -1.34375,2.71875 0,1.53125 1,2.4375 1.01563,0.89063 2.75,0.89063 2.39063,0 3.82813,-1.6875 1.45312,-1.70313 1.45312,-4.51563 v -0.64062 z m 5.73437,-1.1875 v 9.98437 h -2.875 v -2.65625 q -0.98437,1.59375 -2.45312,2.35938 -1.46875,0.75 -3.59375,0.75 -2.6875,0 -4.28125,-1.5 -1.57813,-1.51563 -1.57813,-4.04688 0,-2.95312 1.96875,-4.45312 1.98438,-1.5 5.90625,-1.5 h 4.03125 v -0.28125 q 0,-1.98438 -1.3125,-3.0625 -1.29687,-1.09375 -3.65625,-1.09375 -1.5,0 -2.92187,0.35937 -1.42188,0.35938 -2.73438,1.07813 v -2.65625 q 1.57813,-0.60938 3.0625,-0.90625 1.48438,-0.3125 2.89063,-0.3125 3.79687,0 5.67187,1.96875 1.875,1.96875 1.875,5.96875 z"
           style="font-size:32px;line-height:1.25"
           id="path1064"
           inkscape:connector-curvature="0" />
        <path
           d="m 895.46875,320.09448 v -10.59375 h 2.875 v 10.48438 q 0,2.48437 0.96875,3.73437 0.96875,1.23438 2.90625,1.23438 2.32812,0 3.67187,-1.48438 1.35938,-1.48437 1.35938,-4.04687 v -9.92188 h 2.875 v 17.5 h -2.875 v -2.6875 q -1.04688,1.59375 -2.4375,2.375 -1.375,0.76563 -3.20313,0.76563 -3.01562,0 -4.57812,-1.875 -1.5625,-1.875 -1.5625,-5.48438 z m 7.23437,-11.01562 z"
           style="font-size:32px;line-height:1.25"
           id="path1066"
           inkscape:connector-curvature="0" />
        <path
           d="m 927.23437,310.01636 v 2.71875 q -1.21875,-0.625 -2.53125,-0.9375 -1.3125,-0.3125 -2.71875,-0.3125 -2.14062,0 -3.21875,0.65625 -1.0625,0.65625 -1.0625,1.96875 0,1 0.76563,1.57812 0.76562,0.5625 3.07812,1.07813 l 0.98438,0.21875 q 3.0625,0.65625 4.34375,1.85937 1.29687,1.1875 1.29687,3.32813 0,2.4375 -1.9375,3.85937 -1.92187,1.42188 -5.29687,1.42188 -1.40625,0 -2.9375,-0.28125 -1.51563,-0.26563 -3.20313,-0.8125 v -2.96875 q 1.59375,0.82812 3.14063,1.25 1.54687,0.40625 3.0625,0.40625 2.03125,0 3.125,-0.6875 1.09375,-0.70313 1.09375,-1.96875 0,-1.17188 -0.79688,-1.79688 -0.78125,-0.625 -3.45312,-1.20312 l -1,-0.23438 q -2.67188,-0.5625 -3.85938,-1.71875 -1.1875,-1.17187 -1.1875,-3.20312 0,-2.46875 1.75,-3.8125 1.75,-1.34375 4.96875,-1.34375 1.59375,0 3,0.23437 1.40625,0.23438 2.59375,0.70313 z"
           style="font-size:32px;line-height:1.25"
           id="path1068"
           inkscape:connector-curvature="0" />
        <path
           d="m 947.73437,317.53198 v 1.40625 h -13.21875 q 0.1875,2.96875 1.78125,4.53125 1.60938,1.54688 4.46875,1.54688 1.65625,0 3.20313,-0.40625 1.5625,-0.40625 3.09375,-1.21875 v 2.71875 q -1.54688,0.65625 -3.17188,1 -1.625,0.34375 -3.29687,0.34375 -4.1875,0 -6.64063,-2.4375 -2.4375,-2.4375 -2.4375,-6.59375 0,-4.29688 2.3125,-6.8125 2.32813,-2.53125 6.26563,-2.53125 3.53125,0 5.57812,2.28125 2.0625,2.26562 2.0625,6.17187 z m -2.875,-0.84375 q -0.0312,-2.35937 -1.32812,-3.76562 -1.28125,-1.40625 -3.40625,-1.40625 -2.40625,0 -3.85938,1.35937 -1.4375,1.35938 -1.65625,3.82813 z"
           style="font-size:32px;line-height:1.25"
           id="path1070"
           inkscape:connector-curvature="0" />
        <path
           d="m 960.40625,318.20386 q -3.48438,0 -4.82813,0.79687 -1.34375,0.79688 -1.34375,2.71875 0,1.53125 1,2.4375 1.01563,0.89063 2.75,0.89063 2.39063,0 3.82813,-1.6875 1.45312,-1.70313 1.45312,-4.51563 v -0.64062 z m 5.73437,-1.1875 v 9.98437 h -2.875 v -2.65625 q -0.98437,1.59375 -2.45312,2.35938 -1.46875,0.75 -3.59375,0.75 -2.6875,0 -4.28125,-1.5 -1.57813,-1.51563 -1.57813,-4.04688 0,-2.95312 1.96875,-4.45312 1.98438,-1.5 5.90625,-1.5 h 4.03125 v -0.28125 q 0,-1.98438 -1.3125,-3.0625 -1.29687,-1.09375 -3.65625,-1.09375 -1.5,0 -2.92187,0.35937 -1.42188,0.35938 -2.73438,1.07813 v -2.65625 q 1.57813,-0.60938 3.0625,-0.90625 1.48438,-0.3125 2.89063,-0.3125 3.79687,0 5.67187,1.96875 1.875,1.96875 1.875,5.96875 z"
           style="font-size:32px;line-height:1.25"
           id="path1072"
           inkscape:connector-curvature="0" />
        <path
           d="m 982.21875,312.18823 q -0.48438,-0.28125 -1.0625,-0.40625 -0.5625,-0.14062 -1.25,-0.14062 -2.4375,0 -3.75,1.59375 -1.29688,1.57812 -1.29688,4.54687 v 9.21875 h -2.89062 v -17.5 h 2.89062 v 2.71875 q 0.90625,-1.59375 2.35938,-2.35937 1.45312,-0.78125 3.53125,-0.78125 0.29687,0 0.65625,0.0469 0.35937,0.0312 0.79687,0.10938 z"
           style="font-size:32px;line-height:1.25"
           id="path1074"
           inkscape:connector-curvature="0" />
        <path
           d="m 997.17187,310.17261 v 2.6875 q -1.21875,-0.67188 -2.45312,-1 -1.21875,-0.34375 -2.46875,-0.34375 -2.79688,0 -4.34375,1.78125 -1.54688,1.76562 -1.54688,4.96875 0,3.20312 1.54688,4.98437 1.54687,1.76563 4.34375,1.76563 1.25,0 2.46875,-0.32813 1.23437,-0.34375 2.45312,-1.01562 v 2.65625 q -1.20312,0.5625 -2.5,0.84375 -1.28125,0.28125 -2.73437,0.28125 -3.95313,0 -6.28125,-2.48438 -2.32813,-2.48437 -2.32813,-6.70312 0,-4.28125 2.34375,-6.73438 2.35938,-2.45312 6.45313,-2.45312 1.32812,0 2.59375,0.28125 1.26562,0.26562 2.45312,0.8125 z"
           style="font-size:32px;line-height:1.25"
           id="path1076"
           inkscape:connector-curvature="0" />
        <path
           d="m 1016.75,316.43823 v 10.5625 h -2.875 v -10.46875 q 0,-2.48437 -0.9688,-3.71875 -0.9687,-1.23437 -2.9062,-1.23437 -2.3281,0 -3.6719,1.48437 -1.3437,1.48438 -1.3437,4.04688 v 9.89062 h -2.8907 v -24.3125 h 2.8907 v 9.53125 q 1.0312,-1.57812 2.4218,-2.35937 1.4063,-0.78125 3.2344,-0.78125 3.0156,0 4.5625,1.875 1.5469,1.85937 1.5469,5.48437 z"
           style="font-size:32px;line-height:1.25"
           id="path1078"
           inkscape:connector-curvature="0" />
      </g>
    </g>
    <g
       id="g3089">
      <rect
         rx="105"
         ry="25.256472"
         y="404.09448"
         x="20"
         height="100"
         width="240"
         id="rect1988"
         style="opacity:0.52284265;fill:none;fill-opacity:1;fill-rule:nonzero;stroke:#000000;stroke-opacity:1" />
      <g
         aria-label="应用程序"
         style="font-style:normal;font-weight:normal;line-height:0%;font-family:'Andale Sans';text-align:center;text-anchor:middle;fill:#000000;fill-opacity:1;stroke:none;stroke-width:1px;stroke-linecap:butt;stroke-linejoin:miter;stroke-opacity:1"
         id="text1992">
        <path
           d="m 101.90876,441.9717 v -2.272 H 91.220764 c -0.416,-1.12 -1.28,-2.944 -2.08,-4.32 l -2.304,0.576 c 0.608,1.152 1.28,2.624 1.696,3.744 h -12.704 v 8.704 c 0,4.512 -0.224,10.816 -2.656,15.36 0.512,0.224 1.632,0.896 2.016,1.312 2.592,-4.768 3.008,-11.872 3.008,-16.672 v -6.432 z m -9.759996,13.248 c -0.48,-2.976 -1.664,-7.424 -2.752,-10.848 l -2.144,0.576 c 1.056,3.456 2.208,7.968 2.656,10.912 z m -6.144,1.536 c -0.672,-2.944 -2.208,-7.392 -3.616,-10.848 l -2.048,0.832 c 1.312,3.424 2.848,7.968 3.456,10.912 z m 7.68,4.32 c 2.912,-4.928 5.28,-10.72 6.815996,-16 l -2.495996,-0.896 c -1.248,5.472 -3.68,11.968 -6.752,16.896 h -12.64 v 2.272 h 23.711996 v -2.272 z"
           style="font-style:normal;font-variant:normal;font-weight:normal;font-stretch:normal;font-size:32px;line-height:1.25;font-family:'Noto Sans CJK SC';-inkscape-font-specification:'Noto Sans CJK SC'"
           id="path994"
           inkscape:connector-curvature="0" />
        <path
           d="m 121.20476,452.8197 v -5.312 h 8.608 v 5.312 z m -10.144,0 c 0.096,-1.184 0.128,-2.368 0.128,-3.424 v -1.888 h 7.648 v 5.312 z m 7.776,-12.672 v 5.12 h -7.648 v -5.12 z m 10.976,5.12 h -8.608 v -5.12 h 8.608 z m 2.336,-7.392 h -23.296 v 11.52 c 0,4.448 -0.32,10.08 -3.84,14.048 0.512,0.288 1.472,1.088 1.824,1.568 2.432,-2.72 3.52,-6.368 4,-9.92 h 8 v 9.44 h 2.368 v -9.44 h 8.608 v 6.496 c 0,0.608 -0.224,0.8 -0.864,0.832 -0.576,0 -2.752,0.032 -4.992,-0.064 0.32,0.64 0.704,1.664 0.8,2.304 3.008,0.032 4.864,0 5.952,-0.384 1.024,-0.416 1.44,-1.12 1.44,-2.656 z"
           style="font-style:normal;font-variant:normal;font-weight:normal;font-stretch:normal;font-size:32px;line-height:1.25;font-family:'Noto Sans CJK SC';-inkscape-font-specification:'Noto Sans CJK SC'"
           id="path996"
           inkscape:connector-curvature="0" />
        <path
           d="m 162.19676,444.0837 h -10.144 v -5.312 h 10.144 z m 2.304,-7.36 h -14.688 v 9.44 h 14.688 z m -16.16,16.416 c -0.544,-0.896 -2.976,-4.352 -3.872,-5.44 v -0.736 h 3.936 v -2.24 h -3.936 v -5.696 c 1.312,-0.352 2.56,-0.768 3.584,-1.248 l -1.504,-1.92 c -1.984,0.992 -5.472,1.92 -8.448,2.496 0.256,0.544 0.576,1.344 0.704,1.888 1.088,-0.192 2.272,-0.416 3.424,-0.672 v 5.152 h -4.48 v 2.24 h 4.128 c -1.088,3.616 -3.04,7.744 -4.832,10.048 0.416,0.608 1.024,1.632 1.248,2.272 1.44,-1.856 2.816,-4.832 3.936,-7.904 v 13.472 h 2.24 v -14.272 c 0.896,1.6 1.92,3.52 2.336,4.544 z m 10.176,8.64 v -4.416 h 6.4 v -2.144 h -6.4 v -4.16 h 7.104 v -2.176 h -16.416 v 2.176 h 6.976 v 4.16 h -6.208 v 2.144 h 6.208 v 4.416 h -8.384 v 2.208 h 18.528 v -2.208 z"
           style="font-style:normal;font-variant:normal;font-weight:normal;font-stretch:normal;font-size:32px;line-height:1.25;font-family:'Noto Sans CJK SC';-inkscape-font-specification:'Noto Sans CJK SC'"
           id="path998"
           inkscape:connector-curvature="0" />
        <path
           d="m 195.98876,451.6357 h -5.92 l 0.256,-0.256 c -0.64,-0.384 -1.472,-0.8 -2.4,-1.28 2.624,-1.44 5.344,-3.456 7.232,-5.408 l -1.536,-1.184 -0.544,0.128 h -15.968 v 1.984 h 13.888 c -1.472,1.28 -3.36,2.592 -5.12,3.488 -1.568,-0.768 -3.232,-1.472 -4.672,-2.08 l -1.44,1.376 c 2.112,0.928 4.672,2.144 6.72,3.232 h -11.2 v 2.048 h 9.888 v 8.384 c 0,0.448 -0.16,0.576 -0.768,0.608 -0.608,0.032 -2.752,0.064 -5.088,-0.032 0.32,0.672 0.672,1.536 0.8,2.24 2.88,0 4.8,0 5.92,-0.352 1.152,-0.384 1.504,-0.992 1.504,-2.432 v -8.416 h 6.88 c -1.056,1.472 -2.272,2.944 -3.296,3.968 l 1.888,0.96 c 1.6,-1.568 3.424,-4.128 5.056,-6.4 l -1.696,-0.736 z m -8.864,-12.448 c -0.448,-1.056 -1.28,-2.592 -1.92,-3.712 l -2.272,0.672 c 0.48,0.896 1.056,2.08 1.472,3.04 h -12.64 v 8.8 c 0,4.64 -0.224,11.072 -2.816,15.616 0.512,0.256 1.568,0.928 1.984,1.344 2.72,-4.8 3.168,-12.032 3.168,-16.96 v -6.56 h 24.064 v -2.24 z"
           style="font-style:normal;font-variant:normal;font-weight:normal;font-stretch:normal;font-size:32px;line-height:1.25;font-family:'Noto Sans CJK SC';-inkscape-font-specification:'Noto Sans CJK SC'"
           id="path1000"
           inkscape:connector-curvature="0" />
      </g>
    </g>
    <path
       style="fill:none;fill-opacity:0.75;fill-rule:evenodd;stroke:#000000;stroke-width:1px;stroke-linecap:butt;stroke-linejoin:miter;stroke-opacity:1;marker-start:none;marker-end:url(#Arrow1Lend)"
       d="m 820,434.09448 c 11.85676,39.27718 26.10217,74.37424 48.43403,95.32"
       id="path7617"
       inkscape:connector-type="polyline"
       sodipodi:nodetypes="cc"
       inkscape:connector-curvature="0" />
    <path
       style="fill:none;fill-opacity:0.75;fill-rule:evenodd;stroke:#000000;stroke-width:1px;stroke-linecap:butt;stroke-linejoin:miter;stroke-opacity:1;marker-end:url(#Arrow1Lend)"
       d="m 820,424.09448 c 4.63131,-48.13474 24.98392,-75.30775 53.29104,-91.87475"
       id="path7619"
       inkscape:connector-type="polyline"
       sodipodi:nodetypes="cc"
       inkscape:connector-curvature="0" />
    <path
       style="fill:none;fill-opacity:0.75;fill-rule:evenodd;stroke:#000000;stroke-width:1px;stroke-linecap:butt;stroke-linejoin:miter;stroke-opacity:1;marker-end:url(#Arrow1Lend)"
       d="m 463.69466,582.62308 0.5629,-175.13394"
       id="path7621"
       inkscape:connector-type="polyline"
       sodipodi:nodetypes="cc"
       inkscape:connector-curvature="0" />
    <path
       style="fill:none;fill-opacity:0.75;fill-rule:evenodd;stroke:#000000;stroke-width:1px;stroke-linecap:butt;stroke-linejoin:miter;stroke-opacity:1;marker-end:url(#Arrow1Lend)"
       d="m 548.05719,375.06588 c 26.74326,32.87956 56.46425,53.84817 91.10822,55.1249"
       id="path7627"
       inkscape:connector-type="polyline"
       sodipodi:nodetypes="cc"
       inkscape:connector-curvature="0" />
    <path
       style="fill:none;fill-opacity:0.75;fill-rule:evenodd;stroke:#000000;stroke-width:1px;stroke-linecap:butt;stroke-linejoin:miter;stroke-opacity:1;marker-end:url(#Arrow1Lend)"
       d="m 548.05719,364.38045 c 20.7491,-45.63299 51.28591,-66.79669 82.38317,-86.55928"
       id="path7629"
       inkscape:connector-type="polyline"
       sodipodi:nodetypes="cc"
       inkscape:connector-curvature="0" />
    <path
       style="fill:none;fill-opacity:0.75;fill-rule:evenodd;stroke:#000000;stroke-width:1;stroke-linecap:butt;stroke-linejoin:miter;stroke-miterlimit:4;stroke-dasharray:8, 8;stroke-dashoffset:0;stroke-opacity:1;marker-end:url(#Arrow1Lend)"
       d="m 470,74.094482 1.13032,256.182438"
       id="path7633"
       inkscape:connector-type="polyline"
       inkscape:connector-curvature="0" />
    <path
       style="fill:none;fill-opacity:0.75;fill-rule:evenodd;stroke:#000000;stroke-width:1;stroke-linecap:butt;stroke-linejoin:miter;stroke-miterlimit:4;stroke-dasharray:8, 8;stroke-dashoffset:0;stroke-opacity:1;marker-end:url(#Arrow1Lend)"
       d="m 170,74.094482 c 37.66468,59.008348 102.02887,77.967428 170.96235,90.072578"
       id="path7635"
       inkscape:connector-type="polyline"
       sodipodi:nodetypes="cc"
       inkscape:connector-curvature="0" />
    <path
       style="fill:none;fill-opacity:0.75;fill-rule:evenodd;stroke:#000000;stroke-width:1;stroke-linecap:butt;stroke-linejoin:miter;stroke-miterlimit:4;stroke-dasharray:8, 8;stroke-dashoffset:0;stroke-opacity:1;marker-end:url(#Arrow1Lend)"
       d="m 340,234.09448 c 1.85284,45.5341 9.83876,90.19205 30.10444,133.09575"
       id="path7637"
       inkscape:connector-type="polyline"
       sodipodi:nodetypes="cc"
       inkscape:connector-curvature="0" />
    <path
       style="fill:none;fill-opacity:0.75;fill-rule:evenodd;stroke:#000000;stroke-width:1;stroke-linecap:butt;stroke-linejoin:miter;stroke-miterlimit:4;stroke-dasharray:8, 8;stroke-dashoffset:0;stroke-opacity:1;marker-end:url(#Arrow1Lend)"
       d="m 334.57104,232.15167 c -16.3346,132.92731 28.9456,247.37019 62.73267,365.261"
       id="path7639"
       inkscape:connector-type="polyline"
       sodipodi:nodetypes="cc"
       inkscape:connector-curvature="0" />
    <path
       style="fill:none;fill-opacity:0.75;fill-rule:evenodd;stroke:#000000;stroke-width:1px;stroke-linecap:butt;stroke-linejoin:miter;stroke-opacity:1;marker-end:url(#Arrow1Lend)"
       d="m 130,504.09448 35.13846,76.80435"
       id="path7643"
       inkscape:connector-type="polyline"
       inkscape:connector-curvature="0" />
    <path
       style="fill:none;fill-opacity:0.75;fill-rule:evenodd;stroke:#000000;stroke-width:1px;stroke-linecap:butt;stroke-linejoin:miter;stroke-opacity:1;marker-end:url(#Arrow1Lend)"
       d="m 340,654.09448 c 23.70108,-7.88159 42.47463,-23.97572 58.27511,-45.02498"
       id="path7645"
       inkscape:connector-type="polyline"
       sodipodi:nodetypes="cc"
       inkscape:connector-curvature="0" />
    <path
       style="fill:none;fill-opacity:0.75;fill-rule:evenodd;stroke:#000000;stroke-width:1;stroke-linecap:butt;stroke-linejoin:miter;stroke-miterlimit:4;stroke-dasharray:8, 8;stroke-dashoffset:0;stroke-opacity:1;marker-end:url(#Arrow1Lend)"
       d="m 730,564.09448 c -51.96753,40.24655 -114.15979,49.81891 -179.21466,50.80344"
       id="path1947"
       inkscape:connector-type="polyline"
       sodipodi:nodetypes="cc"
       inkscape:connector-curvature="0" />
  </g>
</svg>
