<?xml version="1.0" encoding="UTF-8" standalone="no"?>
<svg
   width="2718.6667"
   height="4402.6665"
   viewBox="2823 33 8090 13104"
   version="1.1"
   id="svg323"
   sodipodi:docname="fire_tables.svg"
   inkscape:version="1.2.2 (732a01da63, 2022-12-09)"
   xmlns:inkscape="http://www.inkscape.org/namespaces/inkscape"
   xmlns:sodipodi="http://sodipodi.sourceforge.net/DTD/sodipodi-0.dtd"
   xmlns="http://www.w3.org/2000/svg"
   xmlns:svg="http://www.w3.org/2000/svg">
  <sodipodi:namedview
     id="namedview325"
     pagecolor="#ffffff"
     bordercolor="#000000"
     borderopacity="0.25"
     inkscape:showpageshadow="2"
     inkscape:pageopacity="0.0"
     inkscape:pagecheckerboard="0"
     inkscape:deskcolor="#d1d1d1"
     showgrid="false"
     inkscape:zoom="0.36614175"
     inkscape:cx="1779.3655"
     inkscape:cy="3397.5913"
     inkscape:window-width="1920"
     inkscape:window-height="1009"
     inkscape:window-x="-8"
     inkscape:window-y="-8"
     inkscape:window-maximized="1"
     inkscape:current-layer="g321" />
  <defs
     id="defs201">
    <marker
       id="a"
       markerHeight="4.7071"
       markerWidth="3.0607"
       orient="auto"
       refX="1.5303"
       refY="2.3536">
      <path
         fill="none"
         stroke="#0c322c"
         d="m.3536.3536 2 2-2 2"
         id="path168" />
    </marker>
    <marker
       id="b"
       markerHeight="4.7071"
       markerWidth="3.0607"
       orient="auto"
       refX="1.5303"
       refY="2.3536">
      <path
         fill="none"
         stroke="#0c322c"
         d="m.3536.3536 2 2-2 2"
         id="path171" />
    </marker>
    <marker
       id="c"
       markerHeight="4.7071"
       markerWidth="3.0607"
       orient="auto"
       refX="1.5303"
       refY="2.3536">
      <path
         fill="none"
         stroke="#0c322c"
         d="m.3536.3536 2 2-2 2"
         id="path174" />
    </marker>
    <marker
       id="d"
       markerHeight="4.7071"
       markerWidth="3.0607"
       orient="auto"
       refX="1.5303"
       refY="2.3536">
      <path
         fill="none"
         stroke="#0c322c"
         d="m.3536.3536 2 2-2 2"
         id="path177" />
    </marker>
    <marker
       id="e"
       markerHeight="4.7071"
       markerWidth="3.0607"
       orient="auto"
       refX="1.5303"
       refY="2.3536">
      <path
         fill="none"
         stroke="#0c322c"
         d="m.3536.3536 2 2-2 2"
         id="path180" />
    </marker>
    <marker
       id="f"
       markerHeight="4.7071"
       markerWidth="3.0607"
       orient="auto"
       refX="1.5303"
       refY="2.3536">
      <path
         fill="none"
         stroke="#0c322c"
         d="m.3536.3536 2 2-2 2"
         id="path183" />
    </marker>
    <marker
       id="g"
       markerHeight="4.7071"
       markerWidth="3.0607"
       orient="auto"
       refX="1.5303"
       refY="2.3536">
      <path
         fill="none"
         stroke="#0c322c"
         d="m.3536.3536 2 2-2 2"
         id="path186" />
    </marker>
    <marker
       id="h"
       markerHeight="4.7071"
       markerWidth="3.0607"
       orient="auto"
       refX="1.5303"
       refY="2.3536">
      <path
         fill="none"
         stroke="#0c322c"
         d="m.3536.3536 2 2-2 2"
         id="path189" />
    </marker>
    <marker
       id="i"
       markerHeight="4.7071"
       markerWidth="3.0607"
       orient="auto"
       refX="1.5303"
       refY="2.3536">
      <path
         fill="none"
         stroke="#0c322c"
         d="m.3536.3536 2 2-2 2"
         id="path192" />
    </marker>
    <marker
       id="j"
       markerHeight="4.7071"
       markerWidth="3.0607"
       orient="auto"
       refX="1.5303"
       refY="2.3536">
      <path
         fill="none"
         stroke="#0c322c"
         d="m.3536.3536 2 2-2 2"
         id="path195" />
    </marker>
    <marker
       id="k"
       markerHeight="4.7071"
       markerWidth="3.0607"
       orient="auto"
       refX="1.5303"
       refY="2.3536">
      <path
         fill="none"
         stroke="#0c322c"
         d="m.3536.3536 2 2-2 2"
         id="path198" />
    </marker>
  </defs>
  <g
     fill="none"
     id="g321">
    <rect
       width="1800"
       height="2025"
       x="9045"
       y="9630"
       fill="#30ba78"
       id="rect203" />
    <rect
       width="1800"
       height="2790"
       x="5445"
       y="7515"
       fill="#30ba78"
       id="rect205" />
    <rect
       width="1800"
       height="2025"
       x="9000"
       y="4995"
       fill="#30ba78"
       id="rect207" />
    <rect
       width="1800"
       height="2025"
       x="9000"
       y="45"
       fill="#30ba78"
       id="rect209" />
    <rect
       width="1800"
       height="2025"
       x="5445"
       y="2475"
       fill="#30ba78"
       id="rect211" />
    <polygon
       fill="#90ebcd"
       points="10172,11004 10172,10260 9782,10260 9782,11004 9469,11004 9978,11513 10485,11004"
       id="polygon213" />
    <polygon
       fill="#90ebcd"
       points="10127,1419 10127,675 9737,675 9737,1419 9424,1419 9933,1928 10440,1419"
       id="polygon215" />
    <polygon
       fill="#90ebcd"
       points="10127,6369 10127,5625 9737,5625 9737,6369 9424,6369 9933,6878 10440,6369"
       id="polygon217" />
    <polygon
       fill="#90ebcd"
       points="6572,3849 6572,3105 6182,3105 6182,3849 5869,3849 6378,4358 6885,3849"
       id="polygon219" />
    <polygon
       fill="#90ebcd"
       points="6572,8889 6572,8145 6182,8145 6182,8889 5869,8889 6378,9398 6885,8889"
       id="polygon221" />
    <circle
       cx="9900"
       cy="3539.7632"
       r="630"
       fill="#fe7c3f"
       id="circle223" />
    <circle
       cx="4050"
       cy="8190"
       r="630"
       fill="#fe7c3f"
       id="circle225" />
    <circle
       cx="9905.9531"
       cy="8235"
       r="90"
       fill="#fe7c3f"
       id="circle227" />
    <rect
       width="2385"
       height="1440"
       x="2876.6685"
       y="5265"
       fill="#dedfe0"
       rx="105"
       id="rect229" />
    <g
       aria-label="路由"
       id="text231"
       style="font-weight:bold;font-size:192px;font-family:Poppins;-inkscape-font-specification:'Poppins Bold';text-anchor:middle;fill:#0c322c">
      <path
         d="m 9830.8823,3535.7313 c 8.448,-5.184 16.32,-10.752 23.616,-17.472 7.296,6.528 15.168,12.288 24,17.472 z m 5.184,44.736 v -25.536 h 36.0959 v 25.536 z m -32.64,-59.712 h -21.12 v -22.464 h 19.2 v -12.288 c 5.184,3.456 12.096,9.6 15.3599,13.056 3.84,-4.032 7.68,-8.448 11.3281,-13.248 3.456,5.568 7.296,11.328 11.9039,16.896 -10.7519,9.984 -23.4239,18.24 -36.6719,24 z m -48.384,-66.432 h 25.536 v 24.384 h -25.344 z m 112.5119,10.944 c -3.8399,8.064 -8.4479,15.552 -14.0159,22.656 -5.3761,-6.528 -10.176,-13.248 -14.016,-19.776 l 1.536,-2.88 z m 13.6321,-20.16 -4.032,0.768 h -26.88 c 1.728,-4.224 3.264,-8.64 4.8,-12.864 l -21.696,-5.376 c -6.336,20.928 -17.856,41.28 -31.872,54.72 v -47.616 h -66.24 v 63.552 h 26.88 v 72.192 l -9.6001,1.92 v -60.672 h -18.6239 v 64.512 l -8.64,1.536 4.032,21.888 c 21.6959,-4.992 50.88,-11.712 77.76,-18.432 l -2.112,-20.16 -22.656,5.184 v -25.536 h 21.12 v -5.568 c 2.88,3.648 5.568,7.872 7.104,10.944 l 4.416,-1.92 v 62.4 h 21.12 v -6.528 h 36.0959 v 5.952 h 21.8881 v -62.784 l 0.384,0.192 c 3.072,-5.952 9.6,-14.784 14.208,-19.2 -15.36,-4.8 -28.608,-12.48 -39.744,-21.312 11.712,-14.4 20.7359,-31.488 26.688,-51.648 z"
         style="font-family:'Noto Sans CJK SC';-inkscape-font-specification:'Noto Sans CJK SC Bold'"
         id="path1277" />
      <path
         d="m 10018.85,3574.1313 v -32.64 h 42.048 v 32.64 z m -64.3197,-32.64 h 40.704 v 32.64 h -40.704 z m 40.704,-54.336 v 32.064 h -40.704 v -32.064 z m 65.6637,0 v 32.064 h -42.048 v -32.064 z m -42.048,-23.04 v -36.288 h -23.6157 v 36.288 h -63.552 v 142.848 h 22.848 v -10.176 h 106.3677 v 9.984 h 24 v -142.656 z"
         style="font-family:'Noto Sans CJK SC';-inkscape-font-specification:'Noto Sans CJK SC Bold'"
         id="path1279" />
    </g>
    <g
       aria-label="路由"
       id="text233"
       style="font-weight:bold;font-size:192px;font-family:Poppins;-inkscape-font-specification:'Poppins Bold';text-anchor:middle;fill:#0c322c">
      <path
         d="m 3968.976,8185.9681 c 8.448,-5.184 16.32,-10.752 23.616,-17.472 7.296,6.528 15.168,12.288 24,17.472 z m 5.184,44.736 v -25.536 h 36.096 v 25.536 z m -32.64,-59.712 h -21.12 v -22.464 h 19.2 v -12.288 c 5.184,3.456 12.096,9.6 15.36,13.056 3.84,-4.032 7.68,-8.448 11.328,-13.248 3.456,5.568 7.296,11.328 11.904,16.896 -10.752,9.984 -23.424,18.24 -36.672,24 z m -48.384,-66.432 h 25.536 v 24.384 h -25.344 z m 112.512,10.944 c -3.84,8.064 -8.448,15.552 -14.016,22.656 -5.376,-6.528 -10.176,-13.248 -14.016,-19.776 l 1.536,-2.88 z m 13.632,-20.16 -4.032,0.768 h -26.88 c 1.728,-4.224 3.264,-8.64 4.8,-12.864 l -21.696,-5.376 c -6.336,20.928 -17.856,41.28 -31.872,54.72 v -47.616 h -66.24 v 63.552 h 26.88 v 72.192 l -9.6,1.92 v -60.672 h -18.624 v 64.512 l -8.64,1.536 4.032,21.888 c 21.696,-4.992 50.88,-11.712 77.76,-18.432 l -2.112,-20.16 -22.656,5.184 v -25.536 h 21.12 v -5.568 c 2.88,3.648 5.568,7.872 7.104,10.944 l 4.416,-1.92 v 62.4 h 21.12 v -6.528 h 36.096 v 5.952 h 21.888 v -62.784 l 0.384,0.192 c 3.072,-5.952 9.6,-14.784 14.208,-19.2 -15.36,-4.8 -28.608,-12.48 -39.744,-21.312 11.712,-14.4 20.736,-31.488 26.688,-51.648 z"
         style="font-family:'Noto Sans CJK SC';-inkscape-font-specification:'Noto Sans CJK SC Bold'"
         id="path1620" />
      <path
         d="m 4156.944,8224.3681 v -32.64 h 42.048 v 32.64 z m -64.32,-32.64 h 40.704 v 32.64 h -40.704 z m 40.704,-54.336 v 32.064 h -40.704 v -32.064 z m 65.664,0 v 32.064 h -42.048 v -32.064 z m -42.048,-23.04 v -36.288 h -23.616 v 36.288 h -63.552 v 142.848 h 22.848 v -10.176 h 106.368 v 9.984 h 24 v -142.656 z"
         style="font-family:'Noto Sans CJK SC';-inkscape-font-specification:'Noto Sans CJK SC Bold'"
         id="path1622" />
    </g>
    <g
       aria-label="本地系统中的进程"
       id="text239"
       style="font-weight:500;font-size:222.236px;font-family:Poppins;-inkscape-font-specification:'Poppins Medium';text-anchor:middle;fill:#000000">
      <path
         d="m 3303.3204,5996.8882 v -77.7826 h 2.4446 c 10.8895,28.8907 26.446,56.448 45.1139,77.7826 z m -70.2266,0 c 18.89,-21.3346 34.6688,-48.6696 45.5584,-77.7826 h 2.889 v 77.7826 z m 156.4541,-77.7826 v -20.8901 h -86.2275 v -44.8917 h -21.7792 v 44.8917 h -85.1164 v 20.8901 h 61.3372 c -15.1121,35.78 -40.2247,69.5599 -68.2265,87.3388 5.1115,4.2225 11.7785,11.5563 15.3343,16.8899 9.5562,-7.1115 18.6678,-15.5565 27.5573,-25.3349 v 19.779 h 49.1141 v 39.3358 h 21.7792 v -39.3358 h 49.1141 v -19.3345 c 8.2227,9.3339 17.3344,17.5566 26.8906,24.2237 3.5557,-6.0004 11.1118,-14.0009 16.2232,-18.2233 -28.4462,-17.3344 -53.7811,-50.2254 -69.1154,-85.3387 z"
         style="font-family:'Noto Sans CJK SC';-inkscape-font-specification:'Noto Sans CJK SC Medium'"
         id="path1409" />
      <path
         d="m 3459.9967,5925.106 h 24.6682 v -19.5568 h -24.6682 v -49.3363 h -19.3345 v 49.3363 h -27.335 v 19.5568 h 27.335 v 66.893 c -11.1118,4.4448 -21.3347,8.445 -29.3351,11.3341 l 8.0004,20.6679 c 19.779,-8.6672 45.114,-20.2234 68.4487,-31.5575 l -4.6669,-18.2233 c -7.556,3.1113 -15.5565,6.4448 -23.1126,9.7784 z m 74.8936,109.1179 c -14.2231,0 -16.6677,-2.4446 -16.6677,-14.8898 v -72.8934 l 24.8904,-10.6674 v 71.56 h 19.3345 v -79.7827 l 25.7794,-11.1118 c 0,34.0021 -0.4445,54.6701 -1.3334,58.8925 -0.889,4.667 -2.8891,5.5559 -5.7782,5.5559 -2.2223,0 -8.2227,0 -12.8896,-0.2222 2.2223,4.4447 4.0002,12.223 4.6669,17.5567 6.4449,0 15.3343,-0.2223 21.3347,-2.4446 6.8893,-1.7779 10.6673,-6.6671 11.7785,-16.001 1.3334,-8.6672 1.7779,-38.8913 1.7779,-80.4495 l 0.8889,-3.5557 -14.4453,-5.5559 -3.5558,2.889 -4.0003,3.1113 -24.2237,10.2229 v -52.8922 h -19.3345 v 61.1149 l -24.8904,10.4451 v -50.6698 h -19.5568 v 58.8925 l -23.1125,9.7784 7.7782,18.4456 15.3343,-6.6671 v 64.2262 c 0,26.6684 7.7783,33.5577 35.1133,33.5577 h 50.892 c 24.2237,0 30.4464,-10.0006 33.3354,-40.6692 -5.5559,-1.1112 -13.5564,-4.4447 -18.2233,-7.7783 -1.7779,24.2237 -4.0003,30.0019 -16.2233,30.0019 z"
         style="font-family:'Noto Sans CJK SC';-inkscape-font-specification:'Noto Sans CJK SC Medium'"
         id="path1411" />
      <path
         d="m 3686.0107,5990.4434 c -11.1118,15.112 -29.1129,30.6686 -46.225,40.6692 5.3336,3.1113 14.0008,9.7784 18.0011,13.7786 16.4454,-11.5563 36.0022,-29.5574 49.1141,-47.114 z m 114.0071,-17.3344 c 6.2226,7.1115 11.1118,14.0009 14.6676,19.779 l 16.2232,-10.0006 c -8.8894,-13.7787 -27.335,-34.2244 -44.0027,-49.5587 l -15.7788,8.2228 c 5.1114,4.8892 10.2229,10.2228 15.5565,15.7787 l -84.0052,5.5559 c 31.1131,-15.112 62.8928,-34.4465 92.4502,-57.3369 l -15.3343,-13.3341 c -10.4451,8.6672 -22.0013,17.1122 -33.3354,24.8904 l -49.7808,2.6668 c 14.6675,-10.445 29.1129,-23.1125 42.6693,-36.4467 28.4462,-2.889 55.7812,-7.1115 77.5603,-12.2229 l -14.8898,-16.89 c -36.2244,8.6672 -99.1172,14.4454 -152.6761,16.89 2.2224,4.6669 4.667,12.8897 5.1114,18.0011 18.0011,-0.6667 36.8912,-1.7779 56.2257,-3.3336 -13.3341,13.3342 -27.335,24.2238 -32.6687,27.7795 -6.667,4.4448 -11.5562,7.7783 -16.4454,8.445 2.0001,4.8892 4.8892,14.2231 5.7781,18.2234 4.667,-1.7779 11.7785,-2.8891 52.2255,-5.5559 -17.1122,10.4451 -31.3353,18.0011 -38.6691,21.3346 -13.5564,6.8893 -22.8903,10.8896 -30.6686,12.0008 2.2224,5.5559 5.1115,15.112 6.2227,18.6678 6.4448,-2.4446 15.5565,-3.778 71.7822,-8.2227 v 53.7811 c 0,2.6668 -0.889,3.3335 -4.4447,3.5557 -3.7781,0.2223 -16.4455,0.2223 -28.8907,-0.4444 3.3335,5.5559 6.6671,14.4453 7.7782,20.2234 16.2233,0 28.0018,-0.2222 36.0023,-3.3335 8.2227,-3.1113 10.6673,-8.8894 10.6673,-19.5568 v -55.7812 z m -34.4466,27.1128 c 17.7789,13.5564 39.7803,32.6687 50.2254,44.8916 l 18.0011,-12.2229 c -11.5563,-12.4452 -34.0021,-30.8908 -51.5588,-43.5583 z"
         style="font-family:'Noto Sans CJK SC';-inkscape-font-specification:'Noto Sans CJK SC Medium'"
         id="path1413" />
      <path
         d="m 4059.5895,5958.8859 c -6.2226,-13.1119 -20.4457,-33.7799 -32.2242,-49.1142 l -16.001,8.2228 c 4.2224,5.5559 8.4449,12.0007 12.8896,18.4455 l -53.3366,4.667 c 9.1117,-11.334 20.0012,-26.2238 28.8907,-38.4468 h 58.4481 v -18.6678 h -61.7817 l 14.0009,-4.2225 c -2.4446,-6.8893 -7.7782,-18.4456 -12.4452,-26.8906 l -19.3345,4.667 c 3.778,8.4449 8.2227,19.1123 10.6673,26.4461 h -51.3365 v 18.6678 h 37.3356 c -9.5561,13.1119 -22.668,30.2241 -27.5572,34.6688 -4.2225,4.2225 -10.4451,6.0004 -14.8898,6.8893 2.0001,4.667 5.7781,15.1121 6.667,20.0012 6.4449,-2.6668 16.4455,-4.0002 94.4503,-11.5562 3.5558,5.7781 6.2226,11.1118 8.2228,15.7787 z m -165.3436,12.6674 c 15.5565,-18.6678 30.4463,-40.4469 42.8915,-62.226 l -18.0011,-11.1118 c -4.0002,8.2227 -8.4449,16.2232 -13.3341,23.7792 l -22.2236,2.2224 c 13.1119,-18.2234 25.7793,-40.8915 35.1133,-62.4483 l -21.1125,-9.5562 c -8.6672,26.0016 -24.0015,53.5589 -29.1129,60.4482 -4.6669,7.3338 -8.8894,12.223 -13.1119,13.3342 2.6668,5.7781 6.2226,16.4454 7.3338,20.8901 3.5558,-1.7778 8.4449,-3.1113 30.8908,-5.7781 -8.2227,11.7785 -15.5565,21.3347 -19.1123,25.1127 -6.8893,8.2227 -12.0008,13.3341 -17.1122,14.4453 2.4446,5.1114 5.7782,15.3343 6.8893,19.3345 4.8892,-3.1113 13.3342,-5.5559 67.1153,-17.5566 -0.8889,-4.4447 -0.8889,-12.6675 -0.4445,-18.4456 z m 36.4467,31.7798 c -26.8906,8.445 -54.4478,17.5566 -72.8934,22.4458 l 5.1114,20.668 c 20.2235,-7.1116 46.6696,-16.4455 71.3378,-25.5572 z m 29.3351,-40.6692 c -1.5556,40.8914 -5.5559,64.2262 -40.4469,77.7826 4.4447,4.0002 10.2229,11.7785 12.6674,17.1122 39.7803,-17.3344 46.2251,-46.8918 48.003,-94.8948 z m 66.2264,73.1156 c -4.0003,0 -4.667,-0.8889 -4.667,-7.1115 v -66.2263 h -20.2235 v 66.2263 c 0,18.6678 4.2225,24.6682 21.3347,24.6682 h 17.3344 c 15.1121,0 19.779,-8.8895 21.3347,-40.8914 -5.1115,-1.5557 -13.3342,-4.667 -17.5567,-8.2228 -0.6667,26.8906 -1.5556,31.5575 -5.5559,31.5575 z"
         style="font-family:'Noto Sans CJK SC';-inkscape-font-specification:'Noto Sans CJK SC Medium'"
         id="path1415" />
      <path
         d="m 4191.8199,5966.2197 v -53.7811 h 57.7813 v 53.7811 z m -79.1161,0 v -53.7811 h 57.5592 v 53.7811 z m 79.1161,-74.0046 v -38.6691 h -21.5569 v 38.6691 h -78.2271 v 107.34 h 20.6679 v -13.112 h 57.5592 v 70.6711 h 21.5569 v -70.6711 h 57.7813 v 12.0008 h 21.5569 v -106.2288 z"
         style="font-family:'Noto Sans CJK SC';-inkscape-font-specification:'Noto Sans CJK SC Medium'"
         id="path1417" />
      <path
         d="m 4330.7173,6016.2228 v -49.1142 h 41.3359 v 49.1142 z m 41.3359,-109.3401 v 42.2248 h -41.3359 v -42.2248 z m 62.8928,-19.1123 c 3.5558,-9.7784 6.4448,-20.0013 9.1117,-30.2241 l -20.0013,-4.667 c -6.667,29.3352 -18.4456,58.8926 -33.1131,78.0048 v -42.0026 h -35.5578 c 3.5558,-9.3339 7.7783,-21.1124 11.5563,-32.2242 l -22.4458,-3.778 c -1.3335,10.6673 -4.667,25.3349 -7.7783,36.0022 h -24.8904 v 162.4546 h 18.89 v -16.89 h 60.226 v -102.0063 c 5.1114,2.8891 12.8897,8.445 16.2232,11.5563 7.1116,-10.2229 14.0009,-23.1126 20.2235,-37.3357 h 52.4477 c -2.8891,83.783 -5.7782,117.3406 -12.8897,124.6744 -2.4446,3.1113 -4.8892,3.778 -9.3339,3.778 -5.5559,0 -18.4456,-0.2222 -32.6687,-1.3334 3.778,5.7781 6.2226,14.4454 6.6671,20.0013 12.6674,0.6667 25.7793,0.8889 33.5576,0 8.445,-1.1112 13.7786,-3.1114 19.3345,-10.4451 8.8895,-11.1118 11.5563,-45.5584 14.6676,-145.7869 0.2222,-2.6668 0.2222,-9.7783 0.2222,-9.7783 z m 28.4462,100.2284 c -6.6671,-13.1119 -21.7791,-34.2243 -33.5576,-49.5586 l -16.2233,9.1116 c 11.7786,16.001 26.2239,37.7802 32.4465,51.3366 z"
         style="font-family:'Noto Sans CJK SC';-inkscape-font-specification:'Noto Sans CJK SC Medium'"
         id="path1419" />
      <path
         d="m 4640.9589,5912.2163 h 31.5575 v 35.78 h -32.002 c 0.2222,-5.1114 0.4445,-10.0006 0.4445,-14.6676 z m 31.5575,55.559 v 53.3367 h 20.4457 v -53.3367 h 31.3353 v -19.779 h -31.3353 v -35.78 h 27.1128 v -19.779 h -27.1128 v -33.7798 h -20.4457 v 33.7798 h -31.5575 v -33.7798 h -20.4458 v 33.7798 h -29.5573 v 19.779 h 29.5573 v 20.8902 c 0,4.8892 0,9.7784 -0.4444,14.8898 h -30.6686 v 19.779 h 28.0017 c -3.3335,15.1121 -10.6673,29.3352 -25.1126,40.6692 4.4447,2.8891 12.4452,10.6673 15.3343,14.8898 18.2233,-14.4453 26.8905,-34.891 30.4463,-55.559 z m -91.1168,-74.449 c -7.1115,-9.7784 -22.4458,-24.8905 -34.4466,-35.5578 l -14.8898,11.5563 c 12.223,11.1118 27.1128,27.1128 33.7799,37.1134 z m -6.2226,39.7802 h -48.4474 v 19.1123 h 28.2239 v 59.1148 c -9.5561,4.2225 -20.6679,13.3341 -31.5575,24.8904 l 13.7786,19.1123 c 9.7784,-14.2231 20.2235,-27.7795 27.1128,-27.7795 5.1115,0 12.223,7.1116 21.7792,12.8897 15.7787,9.1117 34.2243,11.7785 61.5593,11.7785 21.7792,0 60.0038,-1.3334 75.338,-2.4446 0.4445,-5.7781 3.7781,-15.7788 6.2226,-21.5569 -21.7791,2.8891 -56.0034,4.667 -80.6716,4.667 -24.6682,0 -44.225,-1.3334 -58.6703,-10.0007 -6.4449,-3.778 -10.6673,-7.3337 -14.6676,-9.7783 z"
         style="font-family:'Noto Sans CJK SC';-inkscape-font-specification:'Noto Sans CJK SC Medium'"
         id="path1421" />
      <path
         d="m 4917.1982,5910.2162 h -64.004 v -32.2242 h 64.004 z m 20.0012,-49.7809 h -103.1175 v 67.3375 h 103.1175 z m -110.8958,116.0072 c -3.778,-6.0003 -21.3346,-29.1129 -27.5572,-36.6689 v -4.4447 h 25.7794 v -19.1123 h -25.7794 v -36.669 c 8.6672,-2.4446 17.1122,-5.1114 24.2237,-8.0005 l -12.6674,-16.6677 c -14.6676,7.1116 -38.2246,13.3342 -58.8926,17.5567 2.0001,4.4447 4.667,11.334 5.7782,15.7787 7.1115,-1.1111 14.8898,-2.4446 22.4458,-4.0002 v 32.002 h -29.5574 v 19.1123 h 26.4461 c -7.3338,23.1125 -20.0013,49.7808 -32.002,65.1151 3.5558,5.3337 8.445,14.2231 10.4451,20.2235 8.6672,-12.0008 17.5566,-30.0019 24.6682,-49.3364 v 86.0053 h 19.1123 v -92.8946 c 5.7781,10.4451 12.0007,22.4458 14.8898,29.3351 z m 71.1156,56.0035 v -26.2238 h 42.0026 v -18.2234 h -42.0026 v -25.1127 h 47.114 v -18.4456 h -114.0071 v 18.4456 h 46.4474 v 25.1127 h -41.1137 v 18.2234 h 41.1137 v 26.2238 h -55.559 v 19.1123 h 128.0079 v -19.1123 z"
         style="font-family:'Noto Sans CJK SC';-inkscape-font-specification:'Noto Sans CJK SC Medium'"
         id="path1423" />
    </g>
    <g
       aria-label="传出包"
       id="text241"
       style="font-weight:500;font-size:192px;font-family:Poppins;-inkscape-font-specification:'Poppins Medium';text-anchor:middle;fill:#0c322c">
      <path
         d="m 9694.6298,12931.351 c -10.368,28.032 -27.456,56.064 -45.5041,73.92 2.8801,4.224 8.0641,13.824 9.7921,18.24 5.376,-5.76 10.7519,-12.288 15.936,-19.392 v 102.528 h 17.28 v -129.408 c 7.2959,-13.056 14.016,-27.072 19.2,-40.704 z m 133.44,72.768 v -16.512 h -71.232 c 1.728,-6.336 3.456,-13.056 5.184,-19.392 h 56.832 v -16.32 h -52.608 c 1.7279,-5.952 3.2639,-11.904 4.608,-17.472 l -17.664,-2.496 c -1.536,6.144 -3.264,13.056 -4.9921,19.968 h -35.7119 v 16.32 h 31.296 c -1.536,6.336 -3.264,13.056 -5.184,19.392 h -37.056 v 16.512 h 32.448 c -4.224,13.824 -8.2561,26.496 -11.7121,36.672 h 66.4321 c -7.488,8.448 -16.704,18.048 -25.344,27.072 -5.568,-3.648 -11.52,-7.488 -17.28,-10.752 l -12.48,10.752 c 18.432,11.328 40.32,28.224 50.88,39.36 l 12.8639,-13.44 c -4.992,-4.8 -11.9039,-10.56 -19.9679,-16.32 14.784,-15.552 30.528,-32.64 42.24,-46.464 l -12.288,-7.872 -2.688,0.96 h -58.176 c 1.7279,-6.336 3.84,-12.864 5.76,-19.968 z"
         style="font-family:'Noto Sans CJK SC';-inkscape-font-specification:'Noto Sans CJK SC Medium'"
         id="path1714" />
      <path
         d="m 9989.5418,13025.623 v 52.608 h -47.04 v -63.744 h 59.3282 v -67.2 h -19.7763 v 49.92 h -39.5519 v -66.432 h -19.776 v 66.432 h -38.4 v -49.92 h -18.8161 v 67.2 h 57.2161 v 63.744 h -46.464 v -52.608 h -19.968 v 70.464 h 133.248 v 10.56 h 19.7762 v -81.024 z"
         style="font-family:'Noto Sans CJK SC';-inkscape-font-specification:'Noto Sans CJK SC Medium'"
         id="path1716" />
      <path
         d="m 10128.358,13005.655 v 26.688 h -43.968 v -26.688 z m -20.544,80.448 c -20.16,0 -23.424,-2.304 -23.424,-12.864 v -24.768 h 61.44 v -58.56 h -76.416 c 4.608,-5.184 9.216,-11.136 13.44,-17.088 h 96.192 c -1.728,48.576 -3.648,66.816 -6.72,71.04 -1.728,2.304 -3.648,2.88 -6.144,2.688 -3.264,0.192 -10.176,0 -17.664,-0.768 2.496,4.608 4.416,11.904 4.608,16.896 8.832,0.384 17.088,0.384 22.08,-0.192 5.568,-0.768 9.216,-2.304 12.864,-7.488 5.376,-6.912 7.104,-29.376 9.216,-91.2 0,-2.304 0.192,-7.872 0.192,-7.872 h -103.488 c 4.032,-6.72 7.488,-13.824 10.56,-20.928 l -18.048,-5.184 c -10.944,25.536 -29.76,49.92 -50.688,64.896 4.416,3.072 11.712,9.984 14.784,13.44 5.376,-4.608 10.944,-9.792 16.128,-15.36 v 80.448 c 0,23.808 9.408,29.568 41.472,29.568 h 67.968 c 27.264,0 33.984,-7.296 37.248,-33.024 -5.184,-0.96 -12.672,-3.648 -17.28,-6.528 -2.112,19.008 -4.608,22.848 -20.928,22.848 z"
         style="font-family:'Noto Sans CJK SC';-inkscape-font-specification:'Noto Sans CJK SC Medium'"
         id="path1718" />
    </g>
    <g
       aria-label="filter"
       id="text245"
       style="font-weight:500;font-size:192px;font-family:Poppins;-inkscape-font-specification:'Poppins Medium';text-anchor:middle;fill:#0c322c">
      <path
         d="m 6194.088,9679.932 h -22.08 v 90.816 h -17.472 v -90.816 h -13.632 v -14.4 h 13.632 v -7.488 q 0,-17.664 9.024,-25.728 9.216,-8.256 29.376,-8.256 v 14.592 q -11.52,0 -16.32,4.608 -4.608,4.416 -4.608,14.784 v 7.488 h 22.08 z"
         id="path1658" />
      <path
         d="m 6223.4641,9648.444 q -4.992,0 -8.448,-3.456 -3.456,-3.456 -3.456,-8.448 0,-4.992 3.456,-8.448 3.456,-3.456 8.448,-3.456 4.8,0 8.064,3.456 3.456,3.456 3.456,8.448 0,4.992 -3.456,8.448 -3.264,3.456 -8.064,3.456 z m 8.448,17.088 v 105.216 h -17.472 v -105.216 z"
         id="path1660" />
      <path
         d="m 6279.1442,9628.668 v 142.08 h -17.472 v -142.08 z"
         id="path1662" />
      <path
         d="m 6330.2162,9679.932 v 62.016 q 0,7.68 3.264,10.944 3.264,3.072 11.328,3.072 h 12.864 v 14.784 h -15.744 q -14.592,0 -21.888,-6.72 -7.296,-6.72 -7.296,-22.08 v -62.016 h -13.632 v -14.4 h 13.632 v -26.496 h 17.472 v 26.496 h 27.456 v 14.4 z"
         id="path1664" />
      <path
         d="m 6474.7923,9714.108 q 0,4.992 -0.576,10.56 h -84.096 q 0.96,15.552 10.56,24.384 9.792,8.64 23.616,8.64 11.328,0 18.816,-5.184 7.68,-5.376 10.752,-14.208 h 18.816 q -4.224,15.168 -16.896,24.768 -12.672,9.408 -31.488,9.408 -14.976,0 -26.88,-6.72 -11.712,-6.72 -18.432,-19.008 -6.72,-12.48 -6.72,-28.8 0,-16.32 6.528,-28.608 6.528,-12.288 18.24,-18.816 11.904,-6.72 27.264,-6.72 14.976,0 26.496,6.528 11.52,6.528 17.664,18.048 6.336,11.328 6.336,25.728 z m -18.048,-3.648 q 0,-9.984 -4.416,-17.088 -4.416,-7.296 -12.096,-10.944 -7.488,-3.84 -16.704,-3.84 -13.248,0 -22.656,8.448 -9.216,8.448 -10.56,23.424 z"
         id="path1666" />
      <path
         d="m 6515.3045,9682.62 q 4.608,-9.024 13.056,-14.016 8.64,-4.992 20.928,-4.992 v 18.048 h -4.608 q -29.376,0 -29.376,31.872 v 57.216 h -17.472 v -105.216 h 17.472 z"
         id="path1668" />
    </g>
    <rect
       width="1350"
       height="405"
       x="9270"
       y="10350"
       stroke="#0c322c"
       stroke-width="28.2756"
       id="rect247" />
    <g
       aria-label="传入包"
       id="text243"
       style="font-weight:500;font-size:192px;font-family:Poppins;-inkscape-font-specification:'Poppins Medium';text-anchor:middle;fill:#0c322c">
      <path
         d="m 6461.1532,709.91621 c -10.368,28.032 -27.456,56.064 -45.504,73.92 2.88,4.224 8.064,13.824 9.792,18.24 5.376,-5.76 10.752,-12.288 15.936,-19.392 v 102.528 h 17.28 v -129.408 c 7.296,-13.056 14.016,-27.072 19.2,-40.704 z m 133.44,72.768 v -16.512 h -71.232 c 1.728,-6.336 3.456,-13.056 5.184,-19.392 h 56.832 v -16.32 h -52.608 c 1.728,-5.952 3.264,-11.904 4.608,-17.472 l -17.664,-2.496 c -1.536,6.144 -3.264,13.056 -4.992,19.968 h -35.712 v 16.32 h 31.296 c -1.536,6.336 -3.264,13.056 -5.184,19.392 h -37.056 v 16.512 h 32.448 c -4.224,13.824 -8.256,26.496 -11.712,36.672 h 66.432 c -7.488,8.448 -16.704,18.048 -25.344,27.072 -5.568,-3.648 -11.52,-7.488 -17.28,-10.752 l -12.48,10.752 c 18.432,11.328 40.32,28.224 50.88,39.36 l 12.864,-13.44 c -4.992,-4.8 -11.904,-10.56 -19.968,-16.32 14.784,-15.552 30.528,-32.64 42.24,-46.464 l -12.288,-7.872 -2.688,0.96 h -58.176 c 1.728,-6.336 3.84,-12.864 5.76,-19.968 z"
         style="font-family:'Noto Sans CJK SC';-inkscape-font-specification:'Noto Sans CJK SC Medium';text-anchor:start"
         id="path1066" />
      <path
         d="m 6658.7212,727.19621 c 12.48,8.64 22.08,18.816 30.336,30.528 -11.904,52.608 -35.52,90.432 -77.376,111.552 4.608,3.264 13.248,10.752 16.32,14.592 36.864,-21.696 60.864,-55.296 75.456,-102.336 20.16,37.056 34.944,78.72 76.608,102.144 0.96,-5.568 5.568,-15.36 8.64,-20.352 -62.4,-38.208 -58.368,-107.52 -118.848,-151.296 z"
         style="font-family:'Noto Sans CJK SC';-inkscape-font-specification:'Noto Sans CJK SC Medium';text-anchor:start"
         id="path1068" />
      <path
         d="m 6894.8812,784.22021 v 26.688 h -43.968 v -26.688 z m -20.544,80.448 c -20.16,0 -23.424,-2.304 -23.424,-12.864 v -24.768 h 61.44 v -58.56 h -76.416 c 4.608,-5.184 9.216,-11.136 13.44,-17.088 h 96.192 c -1.728,48.576 -3.648,66.816 -6.72,71.04 -1.728,2.304 -3.648,2.88 -6.144,2.688 -3.264,0.192 -10.176,0 -17.664,-0.768 2.496,4.608 4.416,11.904 4.608,16.896 8.832,0.384 17.088,0.384 22.08,-0.192 5.568,-0.768 9.216,-2.304 12.864,-7.488 5.376,-6.912 7.104,-29.376 9.216,-91.2 0,-2.304 0.192,-7.872 0.192,-7.872 h -103.488 c 4.032,-6.72 7.488,-13.824 10.56,-20.928 l -18.048,-5.184 c -10.944,25.536 -29.76,49.92 -50.688,64.896 4.416,3.072 11.712,9.984 14.784,13.44 5.376,-4.608 10.944,-9.792 16.128,-15.36 v 80.448 c 0,23.808 9.408,29.568 41.472,29.568 h 67.968 c 27.264,0 33.984,-7.296 37.248,-33.024 -5.184,-0.96 -12.672,-3.648 -17.28,-6.528 -2.112,19.008 -4.608,22.848 -20.928,22.848 z"
         style="font-family:'Noto Sans CJK SC';-inkscape-font-specification:'Noto Sans CJK SC Medium';text-anchor:start"
         id="path1070" />
    </g>
    <rect
       width="1350"
       height="405"
       x="9270"
       y="10980"
       stroke="#0c322c"
       stroke-width="28.2756"
       id="rect249" />
    <rect
       width="1350"
       height="405"
       x="9225"
       y="765"
       stroke="#0c322c"
       stroke-width="26.7874"
       id="rect251" />
    <rect
       width="1350"
       height="405"
       x="9225"
       y="1395"
       stroke="#0c322c"
       stroke-width="26.7874"
       id="rect253" />
    <rect
       width="1350"
       height="405"
       x="9225"
       y="5715"
       stroke="#0c322c"
       stroke-width="28.2756"
       id="rect255" />
    <rect
       width="1350"
       height="405"
       x="9225"
       y="6345"
       stroke="#0c322c"
       stroke-width="28.2756"
       id="rect257" />
    <rect
       width="1350"
       height="405"
       x="5670"
       y="3195"
       stroke="#0c322c"
       stroke-width="28.2756"
       id="rect259" />
    <rect
       width="1350"
       height="405"
       x="5670"
       y="3825"
       stroke="#0c322c"
       stroke-width="28.2756"
       id="rect261" />
    <rect
       width="1350"
       height="405"
       x="5670"
       y="8235"
       stroke="#0c322c"
       stroke-width="28.2756"
       id="rect263" />
    <rect
       width="1350"
       height="405"
       x="5670"
       y="8865"
       stroke="#0c322c"
       stroke-width="28.2756"
       id="rect265" />
    <rect
       width="1350"
       height="405"
       x="5670"
       y="9495"
       stroke="#0c322c"
       stroke-width="28.2756"
       id="rect267" />
    <g
       aria-label="nat"
       id="text269"
       style="font-weight:500;font-size:192px;font-family:Poppins;-inkscape-font-specification:'Poppins Medium';text-anchor:middle;fill:#0c322c">
      <path
         d="m 9845.4477,11140.548 q 19.2,0 31.104,11.712 11.904,11.52 11.904,33.408 v 62.016 h -17.28 v -59.52 q 0,-15.744 -7.872,-24 -7.872,-8.448 -21.504,-8.448 -13.824,0 -22.08,8.64 -8.064,8.64 -8.064,25.152 v 58.176 h -17.472 v -105.216 h 17.472 v 14.976 q 5.184,-8.064 14.016,-12.48 9.024,-4.416 19.776,-4.416 z"
         id="path1707" />
      <path
         d="m 9910.5355,11194.692 q 0,-16.128 6.528,-28.224 6.528,-12.288 17.856,-19.008 11.52,-6.72 25.536,-6.72 13.824,0 24,5.952 10.176,5.952 15.168,14.976 v -19.2 h 17.6645 v 105.216 h -17.6645 v -19.584 q -5.184,9.216 -15.552,15.36 -10.176,5.952 -23.808,5.952 -14.016,0 -25.344,-6.912 -11.328,-6.912 -17.856,-19.392 -6.528,-12.48 -6.528,-28.416 z m 89.088,0.192 q 0,-11.904 -4.8,-20.736 -4.8,-8.832 -13.056,-13.44 -8.064,-4.8 -17.856,-4.8 -9.792,0 -17.856,4.608 -8.064,4.608 -12.864,13.44 -4.8,8.832 -4.8,20.736 0,12.096 4.8,21.12 4.8,8.832 12.864,13.632 8.064,4.608 17.856,4.608 9.792,0 17.856,-4.608 8.256,-4.8 13.056,-13.632 4.8,-9.024 4.8,-20.928 z"
         id="path1709" />
      <path
         d="m 10068.168,11156.868 v 62.016 q 0,7.68 3.264,10.944 3.264,3.072 11.328,3.072 h 12.864 v 14.784 h -15.744 q -14.592,0 -21.888,-6.72 -7.296,-6.72 -7.296,-22.08 v -62.016 h -13.632 v -14.4 h 13.632 v -26.496 h 17.472 v 26.496 h 27.456 v 14.4 z"
         id="path1711" />
    </g>
    <g
       aria-label="mangle"
       id="text271"
       style="font-weight:500;font-size:192px;font-family:Poppins;-inkscape-font-specification:'Poppins Medium';text-anchor:middle;fill:#0c322c">
      <path
         d="m 9709.4163,10490.292 q 12.288,0 21.888,5.184 9.6,4.992 15.168,15.168 5.568,10.176 5.568,24.768 v 62.016 h -17.28 v -59.52 q 0,-15.744 -7.872,-24 -7.68,-8.448 -20.928,-8.448 -13.632,0 -21.696,8.832 -8.064,8.64 -8.064,25.152 v 57.984 h -17.28 v -59.52 q 0,-15.744 -7.872,-24 -7.68,-8.448 -20.928,-8.448 -13.632,0 -21.696,8.832 -8.064,8.64 -8.064,25.152 v 57.984 h -17.472 v -105.216 h 17.472 v 15.168 q 5.184,-8.256 13.824,-12.672 8.832,-4.416 19.392,-4.416 13.248,0 23.424,5.952 10.176,5.952 15.168,17.472 4.416,-11.136 14.592,-17.28 10.176,-6.144 22.656,-6.144 z"
         id="path1694" />
      <path
         d="m 9774.1204,10544.436 q 0,-16.128 6.528,-28.224 6.528,-12.288 17.856,-19.008 11.52,-6.72 25.536,-6.72 13.824,0 24,5.952 10.176,5.952 15.168,14.976 v -19.2 h 17.664 v 105.216 h -17.664 v -19.584 q -5.184,9.216 -15.552,15.36 -10.176,5.952 -23.808,5.952 -14.016,0 -25.344,-6.912 -11.328,-6.912 -17.856,-19.392 -6.528,-12.48 -6.528,-28.416 z m 89.088,0.192 q 0,-11.904 -4.8,-20.736 -4.8,-8.832 -13.056,-13.44 -8.064,-4.8 -17.856,-4.8 -9.792,0 -17.856,4.608 -8.064,4.608 -12.864,13.44 -4.8,8.832 -4.8,20.736 0,12.096 4.8,21.12 4.8,8.832 12.864,13.632 8.064,4.608 17.856,4.608 9.792,0 17.856,-4.608 8.256,-4.8 13.056,-13.632 4.8,-9.024 4.8,-20.928 z"
         id="path1696" />
      <path
         d="m 9961.7046,10490.292 q 19.2,0 31.104,11.712 11.9044,11.52 11.9044,33.408 v 62.016 h -17.2804 v -59.52 q 0,-15.744 -7.872,-24 -7.872,-8.448 -21.504,-8.448 -13.824,0 -22.08,8.64 -8.064,8.64 -8.064,25.152 v 58.176 h -17.472 v -105.216 h 17.472 v 14.976 q 5.184,-8.064 14.016,-12.48 9.024,-4.416 19.776,-4.416 z"
         id="path1698" />
      <path
         d="m 10076.712,10490.484 q 13.632,0 23.808,5.952 10.368,5.952 15.36,14.976 v -19.2 h 17.664 v 107.52 q 0,14.4 -6.144,25.536 -6.144,11.328 -17.664,17.664 -11.328,6.336 -26.496,6.336 -20.736,0 -34.56,-9.792 -13.824,-9.792 -16.32,-26.688 h 17.28 q 2.88,9.6 11.904,15.36 9.024,5.952 21.696,5.952 14.4,0 23.424,-9.024 9.216,-9.024 9.216,-25.344 v -22.08 q -5.184,9.216 -15.36,15.36 -10.176,6.144 -23.808,6.144 -14.016,0 -25.536,-6.912 -11.328,-6.912 -17.856,-19.392 -6.528,-12.48 -6.528,-28.416 0,-16.128 6.528,-28.224 6.528,-12.288 17.856,-19.008 11.52,-6.72 25.536,-6.72 z m 39.168,54.144 q 0,-11.904 -4.8,-20.736 -4.8,-8.832 -13.056,-13.44 -8.064,-4.8 -17.856,-4.8 -9.792,0 -17.856,4.608 -8.064,4.608 -12.864,13.44 -4.8,8.832 -4.8,20.736 0,12.096 4.8,21.12 4.8,8.832 12.864,13.632 8.064,4.608 17.856,4.608 9.792,0 17.856,-4.608 8.256,-4.8 13.056,-13.632 4.8,-9.024 4.8,-20.928 z"
         id="path1700" />
      <path
         d="m 10180.585,10455.348 v 142.08 h -17.472 v -142.08 z"
         id="path1702" />
      <path
         d="m 10306.345,10540.788 q 0,4.992 -0.576,10.56 h -84.096 q 0.96,15.552 10.56,24.384 9.792,8.64 23.616,8.64 11.328,0 18.816,-5.184 7.68,-5.376 10.752,-14.208 h 18.816 q -4.224,15.168 -16.896,24.768 -12.672,9.408 -31.488,9.408 -14.976,0 -26.88,-6.72 -11.712,-6.72 -18.432,-19.008 -6.72,-12.48 -6.72,-28.8 0,-16.32 6.528,-28.608 6.528,-12.288 18.24,-18.816 11.904,-6.72 27.264,-6.72 14.976,0 26.496,6.528 11.52,6.528 17.664,18.048 6.336,11.328 6.336,25.728 z m -18.048,-3.648 q 0,-9.984 -4.416,-17.088 -4.416,-7.296 -12.096,-10.944 -7.488,-3.84 -16.704,-3.84 -13.248,0 -22.656,8.448 -9.216,8.448 -10.56,23.424 z"
         id="path1704" />
    </g>
    <g
       aria-label="POSTROUTING"
       id="text273"
       style="font-weight:bold;font-size:168px;font-family:Poppins;-inkscape-font-specification:'Poppins Bold';text-anchor:middle;fill:#0c322c">
      <path
         d="m 9441.5036,9955.032 q 0,10.248 -4.704,18.816 -4.704,8.4 -14.448,13.608 -9.744,5.208 -24.192,5.208 h -17.808 V 10035 h -28.728 v -117.936 h 46.536 q 14.112,0 23.856,4.872 9.744,4.872 14.616,13.44 4.872,8.568 4.872,19.656 z m -45.528,14.784 q 8.232,0 12.264,-3.864 4.032,-3.864 4.032,-10.92 0,-7.056 -4.032,-10.92 -4.032,-3.864 -12.264,-3.864 h -15.624 v 29.568 z"
         id="path1671" />
      <path
         d="m 9512.2317,10036.176 q -16.632,0 -30.576,-7.728 -13.776,-7.728 -22.008,-21.504 -8.064,-13.944 -8.064,-31.248 0,-17.304 8.064,-31.08 8.232,-13.776 22.008,-21.504 13.944,-7.728 30.576,-7.728 16.632,0 30.408,7.728 13.944,7.728 21.84,21.504 8.064,13.776 8.064,31.08 0,17.304 -8.064,31.248 -8.064,13.776 -21.84,21.504 -13.776,7.728 -30.408,7.728 z m 0,-26.208 q 14.112,0 22.512,-9.408 8.568,-9.408 8.568,-24.864 0,-15.624 -8.568,-24.864 -8.4,-9.408 -22.512,-9.408 -14.28,0 -22.848,9.24 -8.4,9.24 -8.4,25.032 0,15.624 8.4,25.032 8.568,9.24 22.848,9.24 z"
         id="path1673" />
      <path
         d="m 9631.1756,10036.176 q -12.936,0 -23.184,-4.2 -10.248,-4.2 -16.464,-12.432 -6.048,-8.232 -6.384,-19.824 h 30.576 q 0.672,6.552 4.536,10.08 3.864,3.36 10.08,3.36 6.384,0 10.08,-2.856 3.696,-3.024 3.696,-8.232 0,-4.368 -3.024,-7.224 -2.856,-2.856 -7.224,-4.704 -4.2,-1.848 -12.096,-4.2 -11.424,-3.528 -18.648,-7.056 -7.224,-3.528 -12.432,-10.416 -5.208,-6.888 -5.208,-17.976 0,-16.464 11.928,-25.704 11.928,-9.408 31.08,-9.408 19.488,0 31.416,9.408 11.928,9.24 12.768,25.872 h -31.08 q -0.336,-5.712 -4.2,-8.904 -3.864,-3.36 -9.912,-3.36 -5.208,0 -8.4,2.856 -3.192,2.688 -3.192,7.896 0,5.712 5.376,8.904 5.376,3.192 16.8,6.888 11.424,3.864 18.48,7.392 7.224,3.528 12.432,10.248 5.208,6.72 5.208,17.304 0,10.08 -5.208,18.312 -5.04,8.232 -14.784,13.104 -9.744,4.872 -23.016,4.872 z"
         id="path1675" />
      <path
         d="m 9776.6636,9917.064 v 23.016 h -31.248 v 94.92 h -28.728 v -94.92 h -31.248 v -23.016 z"
         id="path1677" />
      <path
         d="m 9851.2555,10035 -24.528,-44.52 h -6.888 v 44.52 h -28.728 v -117.936 h 48.216 q 13.944,0 23.688,4.872 9.912,4.872 14.784,13.44 4.872,8.4 4.872,18.816 0,11.76 -6.72,21 -6.552,9.24 -19.488,13.104 l 27.216,46.704 z m -31.416,-64.848 h 17.808 q 7.896,0 11.76,-3.864 4.032,-3.864 4.032,-10.92 0,-6.72 -4.032,-10.584 -3.864,-3.864 -11.76,-3.864 h -17.808 z"
         id="path1679" />
      <path
         d="m 9956.4235,10036.176 q -16.632,0 -30.576,-7.728 -13.776,-7.728 -22.008,-21.504 -8.064,-13.944 -8.064,-31.248 0,-17.304 8.064,-31.08 8.232,-13.776 22.008,-21.504 13.944,-7.728 30.576,-7.728 16.632,0 30.408,7.728 13.9445,7.728 21.8405,21.504 8.064,13.776 8.064,31.08 0,17.304 -8.064,31.248 -8.064,13.776 -21.8405,21.504 -13.776,7.728 -30.408,7.728 z m 0,-26.208 q 14.112,0 22.512,-9.408 8.568,-9.408 8.568,-24.864 0,-15.624 -8.568,-24.864 -8.4,-9.408 -22.512,-9.408 -14.28,0 -22.848,9.24 -8.4,9.24 -8.4,25.032 0,15.624 8.4,25.032 8.568,9.24 22.848,9.24 z"
         id="path1681" />
      <path
         d="m 10060.919,9917.064 v 70.56 q 0,10.584 5.208,16.296 5.208,5.712 15.288,5.712 10.08,0 15.456,-5.712 5.376,-5.712 5.376,-16.296 v -70.56 h 28.728 v 70.392 q 0,15.792 -6.72,26.712 -6.72,10.92 -18.144,16.464 -11.256,5.544 -25.2,5.544 -13.944,0 -25.032,-5.376 -10.92,-5.544 -17.304,-16.464 -6.384,-11.088 -6.384,-26.88 v -70.392 z"
         id="path1683" />
      <path
         d="m 10235.975,9917.064 v 23.016 h -31.248 v 94.92 h -28.728 v -94.92 h -31.248 v -23.016 z"
         id="path1685" />
      <path
         d="M 10279.151,9917.064 V 10035 h -28.728 v -117.936 z"
         id="path1687" />
      <path
         d="m 10405.487,10035 h -28.728 l -48.048,-72.744 V 10035 h -28.728 v -117.936 h 28.728 l 48.048,73.08 v -73.08 h 28.728 z"
         id="path1689" />
      <path
         d="m 10504.608,9954.36 q -3.192,-5.88 -9.24,-8.904 -5.88,-3.192 -13.944,-3.192 -13.944,0 -22.344,9.24 -8.4,9.072 -8.4,24.36 0,16.296 8.736,25.536 8.904,9.072 24.36,9.072 10.584,0 17.808,-5.376 7.392,-5.376 10.752,-15.456 h -36.456 v -21.168 h 62.496 v 26.712 q -3.192,10.752 -10.92,19.992 -7.56,9.24 -19.32,14.952 -11.76,5.712 -26.544,5.712 -17.472,0 -31.248,-7.56 -13.608,-7.728 -21.336,-21.336 -7.56,-13.608 -7.56,-31.08 0,-17.472 7.56,-31.08 7.728,-13.776 21.336,-21.336 13.608,-7.728 31.08,-7.728 21.168,0 35.616,10.248 14.616,10.248 19.32,28.392 z"
         id="path1691" />
    </g>
    <g
       aria-label="PREROUTING"
       id="text275"
       style="font-weight:bold;font-size:168px;font-family:Poppins;-inkscape-font-specification:'Poppins Bold';text-anchor:middle;fill:#0c322c">
      <path
         d="m 9463.6194,370.032 q 0,10.248 -4.704,18.816 -4.704,8.4 -14.448,13.608 -9.744,5.208 -24.192,5.208 h -17.808 V 450 h -28.728 V 332.064 h 46.536 q 14.112,0 23.856,4.872 9.744,4.872 14.616,13.44 4.872,8.568 4.872,19.656 z m -45.528,14.784 q 8.232,0 12.264,-3.864 4.032,-3.864 4.032,-10.92 0,-7.056 -4.032,-10.92 -4.032,-3.864 -12.264,-3.864 h -15.624 v 29.568 z"
         id="path1073" />
      <path
         d="m 9538.7155,450 -24.528,-44.52 h -6.888 V 450 h -28.728 V 332.064 h 48.216 q 13.944,0 23.688,4.872 9.912,4.872 14.784,13.44 4.872,8.4 4.872,18.816 0,11.76 -6.72,21 -6.552,9.24 -19.488,13.104 l 27.216,46.704 z m -31.416,-64.848 h 17.808 q 7.896,0 11.76,-3.864 4.032,-3.864 4.032,-10.92 0,-6.72 -4.032,-10.584 -3.864,-3.864 -11.76,-3.864 h -17.808 z"
         id="path1075" />
      <path
         d="m 9616.8356,355.08 v 23.856 h 38.472 v 22.176 h -38.472 v 25.872 h 43.512 V 450 h -72.24 V 332.064 h 72.24 v 23.016 z"
         id="path1077" />
      <path
         d="m 9739.1397,450 -24.528,-44.52 h -6.888 V 450 h -28.728 V 332.064 h 48.216 q 13.944,0 23.688,4.872 9.912,4.872 14.784,13.44 4.872,8.4 4.872,18.816 0,11.76 -6.72,21 -6.552,9.24 -19.488,13.104 l 27.216,46.704 z m -31.416,-64.848 h 17.808 q 7.896,0 11.76,-3.864 4.032,-3.864 4.032,-10.92 0,-6.72 -4.032,-10.584 -3.864,-3.864 -11.76,-3.864 h -17.808 z"
         id="path1079" />
      <path
         d="m 9844.3077,451.176 q -16.632,0 -30.576,-7.728 -13.776,-7.728 -22.008,-21.504 -8.064,-13.944 -8.064,-31.248 0,-17.304 8.064,-31.08 8.232,-13.776 22.008,-21.504 13.944,-7.728 30.576,-7.728 16.632,0 30.408,7.728 13.944,7.728 21.84,21.504 8.064,13.776 8.064,31.08 0,17.304 -8.064,31.248 -8.064,13.776 -21.84,21.504 -13.776,7.728 -30.408,7.728 z m 0,-26.208 q 14.112,0 22.512,-9.408 8.568,-9.408 8.568,-24.864 0,-15.624 -8.568,-24.864 -8.4,-9.408 -22.512,-9.408 -14.28,0 -22.848,9.24 -8.4,9.24 -8.4,25.032 0,15.624 8.4,25.032 8.568,9.24 22.848,9.24 z"
         id="path1081" />
      <path
         d="m 9948.8036,332.064 v 70.56 q 0,10.584 5.208,16.296 5.208,5.712 15.288,5.712 10.08,0 15.456,-5.712 5.376,-5.712 5.376,-16.296 v -70.56 h 28.7284 v 70.392 q 0,15.792 -6.72,26.712 -6.72,10.92 -18.1444,16.464 -11.256,5.544 -25.2,5.544 -13.944,0 -25.032,-5.376 -10.92,-5.544 -17.304,-16.464 -6.384,-11.088 -6.384,-26.88 v -70.392 z"
         id="path1083" />
      <path
         d="m 10123.86,332.064 v 23.016 h -31.248 V 450 h -28.728 v -94.92 h -31.248 v -23.016 z"
         id="path1085" />
      <path
         d="M 10167.036,332.064 V 450 h -28.728 V 332.064 Z"
         id="path1087" />
      <path
         d="m 10293.372,450 h -28.728 l -48.048,-72.744 V 450 h -28.728 V 332.064 h 28.728 l 48.048,73.08 v -73.08 h 28.728 z"
         id="path1089" />
      <path
         d="m 10392.492,369.36 q -3.192,-5.88 -9.24,-8.904 -5.88,-3.192 -13.944,-3.192 -13.944,0 -22.344,9.24 -8.4,9.072 -8.4,24.36 0,16.296 8.736,25.536 8.904,9.072 24.36,9.072 10.584,0 17.808,-5.376 7.392,-5.376 10.752,-15.456 h -36.456 v -21.168 h 62.496 v 26.712 q -3.192,10.752 -10.92,19.992 -7.56,9.24 -19.32,14.952 -11.76,5.712 -26.544,5.712 -17.472,0 -31.248,-7.56 -13.608,-7.728 -21.336,-21.336 -7.56,-13.608 -7.56,-31.08 0,-17.472 7.56,-31.08 7.728,-13.776 21.336,-21.336 13.608,-7.728 31.08,-7.728 21.168,0 35.616,10.248 14.616,10.248 19.32,28.392 z"
         id="path1091" />
    </g>
    <g
       aria-label="nat"
       id="text277"
       style="font-weight:500;font-size:192px;font-family:Poppins;-inkscape-font-specification:'Poppins Medium';text-anchor:middle;fill:#0c322c">
      <path
         d="m 9800.4477,1555.548 q 19.2,0 31.104,11.712 11.904,11.52 11.904,33.408 v 62.016 h -17.28 v -59.52 q 0,-15.744 -7.872,-24 -7.872,-8.448 -21.504,-8.448 -13.824,0 -22.08,8.64 -8.064,8.64 -8.064,25.152 v 58.176 h -17.472 v -105.216 h 17.472 v 14.976 q 5.184,-8.064 14.016,-12.48 9.024,-4.416 19.776,-4.416 z"
         id="path1107" />
      <path
         d="m 9865.5355,1609.692 q 0,-16.128 6.528,-28.224 6.528,-12.288 17.856,-19.008 11.52,-6.72 25.536,-6.72 13.824,0 24,5.952 10.176,5.952 15.168,14.976 v -19.2 h 17.664 v 105.216 h -17.664 V 1643.1 q -5.184,9.216 -15.552,15.36 -10.176,5.952 -23.808,5.952 -14.016,0 -25.344,-6.912 -11.328,-6.912 -17.856,-19.392 -6.528,-12.48 -6.528,-28.416 z m 89.088,0.192 q 0,-11.904 -4.8,-20.736 -4.8,-8.832 -13.056,-13.44 -8.064,-4.8 -17.856,-4.8 -9.792,0 -17.856,4.608 -8.064,4.608 -12.864,13.44 -4.8,8.832 -4.8,20.736 0,12.096 4.8,21.12 4.8,8.832 12.864,13.632 8.064,4.608 17.856,4.608 9.792,0 17.856,-4.608 8.256,-4.8 13.056,-13.632 4.8,-9.024 4.8,-20.928 z"
         id="path1109" />
      <path
         d="m 10023.168,1571.868 v 62.016 q 0,7.68 3.264,10.944 3.264,3.072 11.328,3.072 h 12.864 v 14.784 h -15.744 q -14.592,0 -21.888,-6.72 -7.296,-6.72 -7.296,-22.08 v -62.016 h -13.6323 v -14.4 h 13.6323 v -26.496 h 17.472 v 26.496 h 27.456 v 14.4 z"
         id="path1111" />
    </g>
    <g
       aria-label="mangle"
       id="text279"
       style="font-weight:500;font-size:192px;font-family:Poppins;-inkscape-font-specification:'Poppins Medium';text-anchor:middle;fill:#0c322c">
      <path
         d="m 9664.4163,905.29198 q 12.288,0 21.888,5.184 9.6,4.992 15.168,15.168 5.568,10.176 5.568,24.768 v 62.01602 h -17.28 v -59.52002 q 0,-15.744 -7.872,-24 -7.68,-8.448 -20.928,-8.448 -13.632,0 -21.696,8.832 -8.064,8.64 -8.064,25.152 v 57.98402 h -17.28 v -59.52002 q 0,-15.744 -7.872,-24 -7.68,-8.448 -20.928,-8.448 -13.632,0 -21.696,8.832 -8.064,8.64 -8.064,25.152 v 57.98402 h -17.472 V 907.21198 h 17.472 v 15.168 q 5.184,-8.256 13.824,-12.672 8.832,-4.416 19.392,-4.416 13.248,0 23.424,5.952 10.176,5.952 15.168,17.472 4.416,-11.136 14.592,-17.28 10.176,-6.144 22.656,-6.144 z"
         id="path1094" />
      <path
         d="m 9729.1204,959.43598 q 0,-16.128 6.528,-28.224 6.528,-12.288 17.856,-19.008 11.52,-6.72 25.536,-6.72 13.824,0 24,5.952 10.176,5.952 15.168,14.976 v -19.2 h 17.664 V 1012.428 h -17.664 v -19.58402 q -5.184,9.21602 -15.552,15.36002 -10.176,5.952 -23.808,5.952 -14.016,0 -25.344,-6.912 -11.328,-6.912 -17.856,-19.39202 -6.528,-12.48 -6.528,-28.416 z m 89.088,0.192 q 0,-11.904 -4.8,-20.736 -4.8,-8.832 -13.056,-13.44 -8.064,-4.8 -17.856,-4.8 -9.792,0 -17.856,4.608 -8.064,4.608 -12.864,13.44 -4.8,8.832 -4.8,20.736 0,12.096 4.8,21.12 4.8,8.832 12.864,13.632 8.064,4.608 17.856,4.608 9.792,0 17.856,-4.608 8.256,-4.8 13.056,-13.632 4.8,-9.024 4.8,-20.928 z"
         id="path1096" />
      <path
         d="m 9916.7046,905.29198 q 19.2,0 31.104,11.712 11.904,11.52 11.904,33.408 v 62.01602 h -17.28 v -59.52002 q 0,-15.744 -7.872,-24 -7.872,-8.448 -21.504,-8.448 -13.824,0 -22.08,8.64 -8.064,8.64 -8.064,25.152 v 58.17602 h -17.472 V 907.21198 h 17.472 v 14.976 q 5.184,-8.064 14.016,-12.48 9.024,-4.416 19.776,-4.416 z"
         id="path1098" />
      <path
         d="m 10031.712,905.48398 q 13.632,0 23.808,5.952 10.368,5.952 15.36,14.976 v -19.2 h 17.664 V 1014.732 q 0,14.4 -6.144,25.536 -6.144,11.328 -17.664,17.664 -11.328,6.336 -26.496,6.336 -20.736,0 -34.56,-9.792 -13.8236,-9.792 -16.3196,-26.688 h 17.2796 q 2.88,9.6 11.904,15.36 9.024,5.952 21.696,5.952 14.4,0 23.424,-9.024 9.216,-9.024 9.216,-25.344 v -22.08002 q -5.184,9.21602 -15.36,15.36002 -10.176,6.144 -23.808,6.144 -14.016,0 -25.536,-6.912 -11.3276,-6.912 -17.8556,-19.39202 -6.528,-12.48 -6.528,-28.416 0,-16.128 6.528,-28.224 6.528,-12.288 17.8556,-19.008 11.52,-6.72 25.536,-6.72 z m 39.168,54.144 q 0,-11.904 -4.8,-20.736 -4.8,-8.832 -13.056,-13.44 -8.064,-4.8 -17.856,-4.8 -9.792,0 -17.856,4.608 -8.064,4.608 -12.864,13.44 -4.7996,8.832 -4.7996,20.736 0,12.096 4.7996,21.12 4.8,8.832 12.864,13.632 8.064,4.608 17.856,4.608 9.792,0 17.856,-4.608 8.256,-4.8 13.056,-13.632 4.8,-9.024 4.8,-20.928 z"
         id="path1100" />
      <path
         d="M 10135.585,870.34798 V 1012.428 h -17.472 V 870.34798 Z"
         id="path1102" />
      <path
         d="m 10261.345,955.78798 q 0,4.992 -0.576,10.56 h -84.096 q 0.96,15.552 10.56,24.384 9.792,8.64 23.616,8.64 11.328,0 18.816,-5.184 7.68,-5.376 10.752,-14.208 h 18.816 q -4.224,15.168 -16.896,24.76802 -12.672,9.408 -31.488,9.408 -14.976,0 -26.88,-6.72 -11.712,-6.72 -18.432,-19.00802 -6.72,-12.48 -6.72,-28.8 0,-16.32 6.528,-28.608 6.528,-12.288 18.24,-18.816 11.904,-6.72 27.264,-6.72 14.976,0 26.496,6.528 11.52,6.528 17.664,18.048 6.336,11.328 6.336,25.728 z m -18.048,-3.648 q 0,-9.984 -4.416,-17.088 -4.416,-7.296 -12.096,-10.944 -7.488,-3.84 -16.704,-3.84 -13.248,0 -22.656,8.448 -9.216,8.448 -10.56,23.424 z"
         id="path1104" />
    </g>
    <g
       aria-label="FORWARD"
       id="text281"
       style="font-weight:bold;font-size:168px;font-family:Poppins;-inkscape-font-specification:'Poppins Bold';text-anchor:middle;fill:#0c322c">
      <path
         d="m 9551.9875,5282.064 v 23.016 h -48.048 v 24.864 h 35.952 v 22.344 h -35.952 V 5400 h -28.728 v -117.936 z"
         id="path1426" />
      <path
         d="m 9622.8836,5401.176 q -16.632,0 -30.576,-7.728 -13.776,-7.728 -22.008,-21.504 -8.064,-13.944 -8.064,-31.248 0,-17.304 8.064,-31.08 8.232,-13.776 22.008,-21.504 13.944,-7.728 30.576,-7.728 16.632,0 30.408,7.728 13.944,7.728 21.84,21.504 8.064,13.776 8.064,31.08 0,17.304 -8.064,31.248 -8.064,13.776 -21.84,21.504 -13.776,7.728 -30.408,7.728 z m 0,-26.208 q 14.112,0 22.512,-9.408 8.568,-9.408 8.568,-24.864 0,-15.624 -8.568,-24.864 -8.4,-9.408 -22.512,-9.408 -14.28,0 -22.848,9.24 -8.4,9.24 -8.4,25.032 0,15.624 8.4,25.032 8.568,9.24 22.848,9.24 z"
         id="path1428" />
      <path
         d="m 9759.2995,5400 -24.528,-44.52 h -6.888 V 5400 h -28.728 v -117.936 h 48.216 q 13.944,0 23.688,4.872 9.912,4.872 14.784,13.44 4.872,8.4 4.872,18.816 0,11.76 -6.72,21 -6.552,9.24 -19.488,13.104 l 27.216,46.704 z m -31.416,-64.848 h 17.808 q 7.896,0 11.76,-3.864 4.032,-3.864 4.032,-10.92 0,-6.72 -4.032,-10.584 -3.864,-3.864 -11.76,-3.864 h -17.808 z"
         id="path1430" />
      <path
         d="M 9970.9796,5282.064 9940.2356,5400 h -34.776 l -18.816,-77.616 -19.488,77.616 h -34.776 l -29.904,-117.936 h 30.744 l 16.968,85.848 21,-85.848 h 31.584 l 20.16,85.848 17.136,-85.848 z"
         id="path1432" />
      <path
         d="m 10058.844,5379.168 h -44.016 l -7.056,20.832 h -30.0724 l 42.6724,-117.936 h 33.264 l 42.672,117.936 h -30.408 z m -7.392,-22.176 -14.616,-43.176 -14.448,43.176 z"
         id="path1434" />
      <path
         d="m 10169.388,5400 -24.528,-44.52 h -6.888 V 5400 h -28.728 v -117.936 h 48.216 q 13.944,0 23.688,4.872 9.912,4.872 14.784,13.44 4.872,8.4 4.872,18.816 0,11.76 -6.72,21 -6.552,9.24 -19.488,13.104 l 27.216,46.704 z m -31.416,-64.848 h 17.808 q 7.896,0 11.76,-3.864 4.032,-3.864 4.032,-10.92 0,-6.72 -4.032,-10.584 -3.864,-3.864 -11.76,-3.864 h -17.808 z"
         id="path1436" />
      <path
         d="m 10262.964,5282.064 q 18.648,0 32.592,7.392 13.944,7.392 21.504,20.832 7.728,13.272 7.728,30.744 0,17.304 -7.728,30.744 -7.56,13.44 -21.672,20.832 -13.944,7.392 -32.424,7.392 h -44.184 v -117.936 z m -1.848,93.072 q 16.296,0 25.368,-8.904 9.072,-8.904 9.072,-25.2 0,-16.296 -9.072,-25.368 -9.072,-9.072 -25.368,-9.072 h -13.608 v 68.544 z"
         id="path1438" />
    </g>
    <g
       aria-label="mangle"
       id="text283"
       style="font-weight:500;font-size:192px;font-family:Poppins;-inkscape-font-specification:'Poppins Medium';text-anchor:middle;fill:#0c322c">
      <path
         d="m 9664.4163,5855.2922 q 12.288,0 21.888,5.184 9.6,4.992 15.168,15.168 5.568,10.176 5.568,24.768 v 62.016 h -17.28 v -59.52 q 0,-15.744 -7.872,-24 -7.68,-8.448 -20.928,-8.448 -13.632,0 -21.696,8.832 -8.064,8.64 -8.064,25.152 v 57.984 h -17.28 v -59.52 q 0,-15.744 -7.872,-24 -7.68,-8.448 -20.928,-8.448 -13.632,0 -21.696,8.832 -8.064,8.64 -8.064,25.152 v 57.984 h -17.472 v -105.216 h 17.472 v 15.168 q 5.184,-8.256 13.824,-12.672 8.832,-4.416 19.392,-4.416 13.248,0 23.424,5.952 10.176,5.952 15.168,17.472 4.416,-11.136 14.592,-17.28 10.176,-6.144 22.656,-6.144 z"
         id="path1441" />
      <path
         d="m 9729.1204,5909.4362 q 0,-16.128 6.528,-28.224 6.528,-12.288 17.856,-19.008 11.52,-6.72 25.536,-6.72 13.824,0 24,5.952 10.176,5.952 15.168,14.976 v -19.2 h 17.664 v 105.216 h -17.664 v -19.584 q -5.184,9.216 -15.552,15.36 -10.176,5.952 -23.808,5.952 -14.016,0 -25.344,-6.912 -11.328,-6.912 -17.856,-19.392 -6.528,-12.48 -6.528,-28.416 z m 89.088,0.192 q 0,-11.904 -4.8,-20.736 -4.8,-8.832 -13.056,-13.44 -8.064,-4.8 -17.856,-4.8 -9.792,0 -17.856,4.608 -8.064,4.608 -12.864,13.44 -4.8,8.832 -4.8,20.736 0,12.096 4.8,21.12 4.8,8.832 12.864,13.632 8.064,4.608 17.856,4.608 9.792,0 17.856,-4.608 8.256,-4.8 13.056,-13.632 4.8,-9.024 4.8,-20.928 z"
         id="path1443" />
      <path
         d="m 9916.7046,5855.2922 q 19.2,0 31.104,11.712 11.904,11.52 11.904,33.408 v 62.016 h -17.28 v -59.52 q 0,-15.744 -7.872,-24 -7.872,-8.448 -21.504,-8.448 -13.824,0 -22.08,8.64 -8.064,8.64 -8.064,25.152 v 58.176 h -17.472 v -105.216 h 17.472 v 14.976 q 5.184,-8.064 14.016,-12.48 9.024,-4.416 19.776,-4.416 z"
         id="path1445" />
      <path
         d="m 10031.712,5855.4842 q 13.632,0 23.808,5.952 10.368,5.952 15.36,14.976 v -19.2 h 17.664 v 107.52 q 0,14.4 -6.144,25.536 -6.144,11.328 -17.664,17.664 -11.328,6.336 -26.496,6.336 -20.736,0 -34.56,-9.792 -13.8236,-9.792 -16.3196,-26.688 h 17.2796 q 2.88,9.6 11.904,15.36 9.024,5.952 21.696,5.952 14.4,0 23.424,-9.024 9.216,-9.024 9.216,-25.344 v -22.08 q -5.184,9.216 -15.36,15.36 -10.176,6.144 -23.808,6.144 -14.016,0 -25.536,-6.912 -11.3276,-6.912 -17.8556,-19.392 -6.528,-12.48 -6.528,-28.416 0,-16.128 6.528,-28.224 6.528,-12.288 17.8556,-19.008 11.52,-6.72 25.536,-6.72 z m 39.168,54.144 q 0,-11.904 -4.8,-20.736 -4.8,-8.832 -13.056,-13.44 -8.064,-4.8 -17.856,-4.8 -9.792,0 -17.856,4.608 -8.064,4.608 -12.864,13.44 -4.7996,8.832 -4.7996,20.736 0,12.096 4.7996,21.12 4.8,8.832 12.864,13.632 8.064,4.608 17.856,4.608 9.792,0 17.856,-4.608 8.256,-4.8 13.056,-13.632 4.8,-9.024 4.8,-20.928 z"
         id="path1447" />
      <path
         d="m 10135.585,5820.3482 v 142.08 h -17.472 v -142.08 z"
         id="path1449" />
      <path
         d="m 10261.345,5905.7882 q 0,4.992 -0.576,10.56 h -84.096 q 0.96,15.552 10.56,24.384 9.792,8.64 23.616,8.64 11.328,0 18.816,-5.184 7.68,-5.376 10.752,-14.208 h 18.816 q -4.224,15.168 -16.896,24.768 -12.672,9.408 -31.488,9.408 -14.976,0 -26.88,-6.72 -11.712,-6.72 -18.432,-19.008 -6.72,-12.48 -6.72,-28.8 0,-16.32 6.528,-28.608 6.528,-12.288 18.24,-18.816 11.904,-6.72 27.264,-6.72 14.976,0 26.496,6.528 11.52,6.528 17.664,18.048 6.336,11.328 6.336,25.728 z m -18.048,-3.648 q 0,-9.984 -4.416,-17.088 -4.416,-7.296 -12.096,-10.944 -7.488,-3.84 -16.704,-3.84 -13.248,0 -22.656,8.448 -9.216,8.448 -10.56,23.424 z"
         id="path1451" />
    </g>
    <g
       aria-label="filter"
       id="text285"
       style="font-weight:500;font-size:192px;font-family:Poppins;-inkscape-font-specification:'Poppins Medium';text-anchor:middle;fill:#0c322c">
      <path
         d="m 9749.088,6529.932 h -22.08 v 90.816 h -17.472 v -90.816 h -13.632 v -14.4 h 13.632 v -7.488 q 0,-17.664 9.024,-25.728 9.216,-8.256 29.376,-8.256 v 14.592 q -11.52,0 -16.32,4.608 -4.608,4.416 -4.608,14.784 v 7.488 h 22.08 z"
         id="path1454" />
      <path
         d="m 9778.4641,6498.444 q -4.992,0 -8.448,-3.456 -3.456,-3.456 -3.456,-8.448 0,-4.992 3.456,-8.448 3.456,-3.456 8.448,-3.456 4.8,0 8.064,3.456 3.456,3.456 3.456,8.448 0,4.992 -3.456,8.448 -3.264,3.456 -8.064,3.456 z m 8.448,17.088 v 105.216 h -17.472 v -105.216 z"
         id="path1456" />
      <path
         d="m 9834.1442,6478.668 v 142.08 h -17.472 v -142.08 z"
         id="path1458" />
      <path
         d="m 9885.2162,6529.932 v 62.016 q 0,7.68 3.264,10.944 3.264,3.072 11.328,3.072 h 12.864 v 14.784 h -15.744 q -14.592,0 -21.888,-6.72 -7.296,-6.72 -7.296,-22.08 v -62.016 h -13.632 v -14.4 h 13.632 v -26.496 h 17.472 v 26.496 h 27.456 v 14.4 z"
         id="path1460" />
      <path
         d="m 10029.792,6564.108 q 0,4.992 -0.576,10.56 h -84.0957 q 0.96,15.552 10.56,24.384 9.792,8.64 23.616,8.64 11.328,0 18.816,-5.184 7.6797,-5.376 10.7517,-14.208 h 18.816 q -4.224,15.168 -16.896,24.768 -12.6717,9.408 -31.4877,9.408 -14.976,0 -26.88,-6.72 -11.712,-6.72 -18.432,-19.008 -6.72,-12.48 -6.72,-28.8 0,-16.32 6.528,-28.608 6.528,-12.288 18.24,-18.816 11.904,-6.72 27.264,-6.72 14.976,0 26.4957,6.528 11.52,6.528 17.664,18.048 6.336,11.328 6.336,25.728 z m -18.048,-3.648 q 0,-9.984 -4.416,-17.088 -4.416,-7.296 -12.0957,-10.944 -7.488,-3.84 -16.704,-3.84 -13.248,0 -22.656,8.448 -9.216,8.448 -10.56,23.424 z"
         id="path1462" />
      <path
         d="m 10070.304,6532.62 q 4.608,-9.024 13.056,-14.016 8.64,-4.992 20.928,-4.992 v 18.048 h -4.608 q -29.376,0 -29.376,31.872 v 57.216 h -17.472 v -105.216 h 17.472 z"
         id="path1464" />
    </g>
    <g
       aria-label="INPUT"
       id="text287"
       style="font-weight:bold;font-size:168px;font-family:Poppins;-inkscape-font-specification:'Poppins Bold';text-anchor:middle;fill:#0c322c;stroke:#0c322c">
      <path
         d="M 6131.724,2762.064 V 2880 h -28.728 v -117.936 z"
         id="path1114" />
      <path
         d="m 6258.06,2880 h -28.728 l -48.048,-72.744 V 2880 h -28.728 v -117.936 h 28.728 l 48.048,73.08 v -73.08 h 28.728 z"
         id="path1116" />
      <path
         d="m 6368.7722,2800.032 q 0,10.248 -4.704,18.816 -4.704,8.4 -14.448,13.608 -9.744,5.208 -24.192,5.208 h -17.808 V 2880 h -28.728 v -117.936 h 46.536 q 14.112,0 23.856,4.872 9.744,4.872 14.616,13.44 4.872,8.568 4.872,19.656 z m -45.528,14.784 q 8.232,0 12.264,-3.864 4.032,-3.864 4.032,-10.92 0,-7.056 -4.032,-10.92 -4.032,-3.864 -12.264,-3.864 h -15.624 v 29.568 z"
         id="path1118" />
      <path
         d="m 6411.9483,2762.064 v 70.56 q 0,10.584 5.208,16.296 5.208,5.712 15.288,5.712 10.08,0 15.456,-5.712 5.376,-5.712 5.376,-16.296 v -70.56 h 28.728 v 70.392 q 0,15.792 -6.72,26.712 -6.72,10.92 -18.144,16.464 -11.256,5.544 -25.2,5.544 -13.944,0 -25.032,-5.376 -10.92,-5.544 -17.304,-16.464 -6.384,-11.088 -6.384,-26.88 v -70.392 z"
         id="path1120" />
      <path
         d="m 6587.0042,2762.064 v 23.016 h -31.248 V 2880 h -28.728 v -94.92 h -31.248 v -23.016 z"
         id="path1122" />
    </g>
    <g
       aria-label="mangle"
       id="text289"
       style="font-weight:500;font-size:192px;font-family:Poppins;-inkscape-font-specification:'Poppins Medium';text-anchor:middle;fill:#0c322c">
      <path
         d="m 6109.4158,3335.292 q 12.288,0 21.888,5.184 9.6,4.992 15.168,15.168 5.568,10.176 5.568,24.768 v 62.016 h -17.28 v -59.52 q 0,-15.744 -7.872,-24 -7.68,-8.448 -20.928,-8.448 -13.632,0 -21.696,8.832 -8.064,8.64 -8.064,25.152 v 57.984 h -17.28 v -59.52 q 0,-15.744 -7.872,-24 -7.68,-8.448 -20.928,-8.448 -13.632,0 -21.696,8.832 -8.064,8.64 -8.064,25.152 v 57.984 h -17.472 v -105.216 h 17.472 v 15.168 q 5.184,-8.256 13.824,-12.672 8.832,-4.416 19.392,-4.416 13.248,0 23.424,5.952 10.176,5.952 15.168,17.472 4.416,-11.136 14.592,-17.28 10.176,-6.144 22.656,-6.144 z"
         id="path1125" />
      <path
         d="m 6174.12,3389.436 q 0,-16.128 6.528,-28.224 6.528,-12.288 17.856,-19.008 11.52,-6.72 25.536,-6.72 13.824,0 24,5.952 10.176,5.952 15.168,14.976 v -19.2 h 17.664 v 105.216 h -17.664 v -19.584 q -5.184,9.216 -15.552,15.36 -10.176,5.952 -23.808,5.952 -14.016,0 -25.344,-6.912 -11.328,-6.912 -17.856,-19.392 -6.528,-12.48 -6.528,-28.416 z m 89.088,0.192 q 0,-11.904 -4.8,-20.736 -4.8,-8.832 -13.056,-13.44 -8.064,-4.8 -17.856,-4.8 -9.792,0 -17.856,4.608 -8.064,4.608 -12.864,13.44 -4.8,8.832 -4.8,20.736 0,12.096 4.8,21.12 4.8,8.832 12.864,13.632 8.064,4.608 17.856,4.608 9.792,0 17.856,-4.608 8.256,-4.8 13.056,-13.632 4.8,-9.024 4.8,-20.928 z"
         id="path1127" />
      <path
         d="m 6361.7041,3335.292 q 19.2,0 31.104,11.712 11.904,11.52 11.904,33.408 v 62.016 h -17.28 v -59.52 q 0,-15.744 -7.872,-24 -7.872,-8.448 -21.504,-8.448 -13.824,0 -22.08,8.64 -8.064,8.64 -8.064,25.152 v 58.176 h -17.472 v -105.216 h 17.472 v 14.976 q 5.184,-8.064 14.016,-12.48 9.024,-4.416 19.776,-4.416 z"
         id="path1129" />
      <path
         d="m 6476.7119,3335.484 q 13.632,0 23.808,5.952 10.368,5.952 15.36,14.976 v -19.2 h 17.664 v 107.52 q 0,14.4 -6.144,25.536 -6.144,11.328 -17.664,17.664 -11.328,6.336 -26.496,6.336 -20.736,0 -34.56,-9.792 -13.824,-9.792 -16.32,-26.688 h 17.28 q 2.88,9.6 11.904,15.36 9.024,5.952 21.696,5.952 14.4,0 23.424,-9.024 9.216,-9.024 9.216,-25.344 v -22.08 q -5.184,9.216 -15.36,15.36 -10.176,6.144 -23.808,6.144 -14.016,0 -25.536,-6.912 -11.328,-6.912 -17.856,-19.392 -6.528,-12.48 -6.528,-28.416 0,-16.128 6.528,-28.224 6.528,-12.288 17.856,-19.008 11.52,-6.72 25.536,-6.72 z m 39.168,54.144 q 0,-11.904 -4.8,-20.736 -4.8,-8.832 -13.056,-13.44 -8.064,-4.8 -17.856,-4.8 -9.792,0 -17.856,4.608 -8.064,4.608 -12.864,13.44 -4.8,8.832 -4.8,20.736 0,12.096 4.8,21.12 4.8,8.832 12.864,13.632 8.064,4.608 17.856,4.608 9.792,0 17.856,-4.608 8.256,-4.8 13.056,-13.632 4.8,-9.024 4.8,-20.928 z"
         id="path1131" />
      <path
         d="m 6580.5841,3300.348 v 142.08 h -17.472 v -142.08 z"
         id="path1133" />
      <path
         d="m 6706.3441,3385.788 q 0,4.992 -0.576,10.56 h -84.096 q 0.96,15.552 10.56,24.384 9.792,8.64 23.616,8.64 11.328,0 18.816,-5.184 7.68,-5.376 10.752,-14.208 h 18.816 q -4.224,15.168 -16.896,24.768 -12.672,9.408 -31.488,9.408 -14.976,0 -26.88,-6.72 -11.712,-6.72 -18.432,-19.008 -6.72,-12.48 -6.72,-28.8 0,-16.32 6.528,-28.608 6.528,-12.288 18.24,-18.816 11.904,-6.72 27.264,-6.72 14.976,0 26.496,6.528 11.52,6.528 17.664,18.048 6.336,11.328 6.336,25.728 z m -18.048,-3.648 q 0,-9.984 -4.416,-17.088 -4.416,-7.296 -12.096,-10.944 -7.488,-3.84 -16.704,-3.84 -13.248,0 -22.656,8.448 -9.216,8.448 -10.56,23.424 z"
         id="path1135" />
    </g>
    <g
       aria-label="filter"
       id="text291"
       style="font-weight:500;font-size:192px;font-family:Poppins;-inkscape-font-specification:'Poppins Medium';text-anchor:middle;fill:#0c322c">
      <path
         d="m 6194.088,4009.932 h -22.08 v 90.816 h -17.472 v -90.816 h -13.632 v -14.4 h 13.632 v -7.488 q 0,-17.664 9.024,-25.728 9.216,-8.256 29.376,-8.256 v 14.592 q -11.52,0 -16.32,4.608 -4.608,4.416 -4.608,14.784 v 7.488 h 22.08 z"
         id="path1138" />
      <path
         d="m 6223.4641,3978.444 q -4.992,0 -8.448,-3.456 -3.456,-3.456 -3.456,-8.448 0,-4.992 3.456,-8.448 3.456,-3.456 8.448,-3.456 4.8,0 8.064,3.456 3.456,3.456 3.456,8.448 0,4.992 -3.456,8.448 -3.264,3.456 -8.064,3.456 z m 8.448,17.088 v 105.216 h -17.472 v -105.216 z"
         id="path1140" />
      <path
         d="m 6279.1442,3958.668 v 142.08 h -17.472 v -142.08 z"
         id="path1142" />
      <path
         d="m 6330.2162,4009.932 v 62.016 q 0,7.68 3.264,10.944 3.264,3.072 11.328,3.072 h 12.864 v 14.784 h -15.744 q -14.592,0 -21.888,-6.72 -7.296,-6.72 -7.296,-22.08 v -62.016 h -13.632 v -14.4 h 13.632 v -26.496 h 17.472 v 26.496 h 27.456 v 14.4 z"
         id="path1144" />
      <path
         d="m 6474.7923,4044.108 q 0,4.992 -0.576,10.56 h -84.096 q 0.96,15.552 10.56,24.384 9.792,8.64 23.616,8.64 11.328,0 18.816,-5.184 7.68,-5.376 10.752,-14.208 h 18.816 q -4.224,15.168 -16.896,24.768 -12.672,9.408 -31.488,9.408 -14.976,0 -26.88,-6.72 -11.712,-6.72 -18.432,-19.008 -6.72,-12.48 -6.72,-28.8 0,-16.32 6.528,-28.608 6.528,-12.288 18.24,-18.816 11.904,-6.72 27.264,-6.72 14.976,0 26.496,6.528 11.52,6.528 17.664,18.048 6.336,11.328 6.336,25.728 z m -18.048,-3.648 q 0,-9.984 -4.416,-17.088 -4.416,-7.296 -12.096,-10.944 -7.488,-3.84 -16.704,-3.84 -13.248,0 -22.656,8.448 -9.216,8.448 -10.56,23.424 z"
         id="path1146" />
      <path
         d="m 6515.3045,4012.62 q 4.608,-9.024 13.056,-14.016 8.64,-4.992 20.928,-4.992 v 18.048 h -4.608 q -29.376,0 -29.376,31.872 v 57.216 h -17.472 v -105.216 h 17.472 z"
         id="path1148" />
    </g>
    <g
       aria-label="OUTPUT"
       id="text293"
       style="font-weight:bold;font-size:168px;font-family:Poppins;-inkscape-font-specification:'Poppins Bold';text-anchor:middle;fill:#0c322c">
      <path
         d="m 6074.2682,7921.176 q -16.632,0 -30.576,-7.728 -13.776,-7.728 -22.008,-21.504 -8.064,-13.944 -8.064,-31.248 0,-17.304 8.064,-31.08 8.232,-13.776 22.008,-21.504 13.944,-7.728 30.576,-7.728 16.632,0 30.408,7.728 13.944,7.728 21.84,21.504 8.064,13.776 8.064,31.08 0,17.304 -8.064,31.248 -8.064,13.776 -21.84,21.504 -13.776,7.728 -30.408,7.728 z m 0,-26.208 q 14.112,0 22.512,-9.408 8.568,-9.408 8.568,-24.864 0,-15.624 -8.568,-24.864 -8.4,-9.408 -22.512,-9.408 -14.28,0 -22.848,9.24 -8.4,9.24 -8.4,25.032 0,15.624 8.4,25.032 8.568,9.24 22.848,9.24 z"
         id="path1625" />
      <path
         d="m 6178.7641,7802.064 v 70.56 q 0,10.584 5.208,16.296 5.208,5.712 15.288,5.712 10.08,0 15.456,-5.712 5.376,-5.712 5.376,-16.296 v -70.56 h 28.728 v 70.392 q 0,15.792 -6.72,26.712 -6.72,10.92 -18.144,16.464 -11.256,5.544 -25.2,5.544 -13.944,0 -25.032,-5.376 -10.92,-5.544 -17.304,-16.464 -6.384,-11.088 -6.384,-26.88 v -70.392 z"
         id="path1627" />
      <path
         d="m 6353.8201,7802.064 v 23.016 h -31.248 V 7920 h -28.728 v -94.92 h -31.248 v -23.016 z"
         id="path1629" />
      <path
         d="m 6458.1481,7840.032 q 0,10.248 -4.704,18.816 -4.704,8.4 -14.448,13.608 -9.744,5.208 -24.192,5.208 h -17.808 V 7920 h -28.728 v -117.936 h 46.536 q 14.112,0 23.856,4.872 9.744,4.872 14.616,13.44 4.872,8.568 4.872,19.656 z m -45.528,14.784 q 8.232,0 12.264,-3.864 4.032,-3.864 4.032,-10.92 0,-7.056 -4.032,-10.92 -4.032,-3.864 -12.264,-3.864 h -15.624 v 29.568 z"
         id="path1631" />
      <path
         d="m 6501.3241,7802.064 v 70.56 q 0,10.584 5.208,16.296 5.208,5.712 15.288,5.712 10.08,0 15.456,-5.712 5.376,-5.712 5.376,-16.296 v -70.56 h 28.728 v 70.392 q 0,15.792 -6.72,26.712 -6.72,10.92 -18.144,16.464 -11.256,5.544 -25.2,5.544 -13.944,0 -25.032,-5.376 -10.92,-5.544 -17.304,-16.464 -6.384,-11.088 -6.384,-26.88 v -70.392 z"
         id="path1633" />
      <path
         d="m 6676.3801,7802.064 v 23.016 h -31.248 V 7920 h -28.728 v -94.92 h -31.248 v -23.016 z"
         id="path1635" />
    </g>
    <g
       aria-label="nat"
       id="text295"
       style="font-weight:500;font-size:192px;font-family:Poppins;-inkscape-font-specification:'Poppins Medium';text-anchor:middle;fill:#0c322c">
      <path
         d="m 6245.4481,9025.5476 q 19.2,0 31.104,11.712 11.904,11.52 11.904,33.408 v 62.016 h -17.28 v -59.52 q 0,-15.744 -7.872,-24 -7.872,-8.448 -21.504,-8.448 -13.824,0 -22.08,8.64 -8.064,8.64 -8.064,25.152 v 58.176 h -17.472 v -105.216 h 17.472 v 14.976 q 5.184,-8.064 14.016,-12.48 9.024,-4.416 19.776,-4.416 z"
         id="path1651" />
      <path
         d="m 6310.536,9079.6916 q 0,-16.128 6.528,-28.224 6.528,-12.288 17.856,-19.008 11.52,-6.72 25.536,-6.72 13.824,0 24,5.952 10.176,5.952 15.168,14.976 v -19.2 h 17.664 v 105.216 h -17.664 v -19.584 q -5.184,9.216 -15.552,15.36 -10.176,5.952 -23.808,5.952 -14.016,0 -25.344,-6.912 -11.328,-6.912 -17.856,-19.392 -6.528,-12.48 -6.528,-28.416 z m 89.088,0.192 q 0,-11.904 -4.8,-20.736 -4.8,-8.832 -13.056,-13.44 -8.064,-4.8 -17.856,-4.8 -9.792,0 -17.856,4.608 -8.064,4.608 -12.864,13.44 -4.8,8.832 -4.8,20.736 0,12.096 4.8,21.12 4.8,8.832 12.864,13.632 8.064,4.608 17.856,4.608 9.792,0 17.856,-4.608 8.256,-4.8 13.056,-13.632 4.8,-9.024 4.8,-20.928 z"
         id="path1653" />
      <path
         d="m 6468.1681,9041.8676 v 62.016 q 0,7.68 3.264,10.944 3.264,3.072 11.328,3.072 h 12.864 v 14.784 h -15.744 q -14.592,0 -21.888,-6.72 -7.296,-6.72 -7.296,-22.08 v -62.016 h -13.632 v -14.4 h 13.632 v -26.496 h 17.472 v 26.496 h 27.456 v 14.4 z"
         id="path1655" />
    </g>
    <g
       aria-label="mangle"
       id="text297"
       style="font-weight:500;font-size:192px;font-family:Poppins;-inkscape-font-specification:'Poppins Medium';text-anchor:middle;fill:#0c322c">
      <path
         d="m 6109.4158,8375.2917 q 12.288,0 21.888,5.184 9.6,4.992 15.168,15.168 5.568,10.176 5.568,24.768 v 62.016 h -17.28 v -59.52 q 0,-15.744 -7.872,-24 -7.68,-8.448 -20.928,-8.448 -13.632,0 -21.696,8.832 -8.064,8.64 -8.064,25.152 v 57.984 h -17.28 v -59.52 q 0,-15.744 -7.872,-24 -7.68,-8.448 -20.928,-8.448 -13.632,0 -21.696,8.832 -8.064,8.64 -8.064,25.152 v 57.984 h -17.472 v -105.216 h 17.472 v 15.168 q 5.184,-8.256 13.824,-12.672 8.832,-4.416 19.392,-4.416 13.248,0 23.424,5.952 10.176,5.952 15.168,17.472 4.416,-11.136 14.592,-17.28 10.176,-6.144 22.656,-6.144 z"
         id="path1638" />
      <path
         d="m 6174.12,8429.4357 q 0,-16.128 6.528,-28.224 6.528,-12.288 17.856,-19.008 11.52,-6.72 25.536,-6.72 13.824,0 24,5.952 10.176,5.952 15.168,14.976 v -19.2 h 17.664 v 105.216 h -17.664 v -19.584 q -5.184,9.216 -15.552,15.36 -10.176,5.952 -23.808,5.952 -14.016,0 -25.344,-6.912 -11.328,-6.912 -17.856,-19.392 -6.528,-12.48 -6.528,-28.416 z m 89.088,0.192 q 0,-11.904 -4.8,-20.736 -4.8,-8.832 -13.056,-13.44 -8.064,-4.8 -17.856,-4.8 -9.792,0 -17.856,4.608 -8.064,4.608 -12.864,13.44 -4.8,8.832 -4.8,20.736 0,12.096 4.8,21.12 4.8,8.832 12.864,13.632 8.064,4.608 17.856,4.608 9.792,0 17.856,-4.608 8.256,-4.8 13.056,-13.632 4.8,-9.024 4.8,-20.928 z"
         id="path1640" />
      <path
         d="m 6361.7041,8375.2917 q 19.2,0 31.104,11.712 11.904,11.52 11.904,33.408 v 62.016 h -17.28 v -59.52 q 0,-15.744 -7.872,-24 -7.872,-8.448 -21.504,-8.448 -13.824,0 -22.08,8.64 -8.064,8.64 -8.064,25.152 v 58.176 h -17.472 v -105.216 h 17.472 v 14.976 q 5.184,-8.064 14.016,-12.48 9.024,-4.416 19.776,-4.416 z"
         id="path1642" />
      <path
         d="m 6476.7119,8375.4837 q 13.632,0 23.808,5.952 10.368,5.952 15.36,14.976 v -19.2 h 17.664 v 107.52 q 0,14.4 -6.144,25.536 -6.144,11.328 -17.664,17.664 -11.328,6.336 -26.496,6.336 -20.736,0 -34.56,-9.792 -13.824,-9.792 -16.32,-26.688 h 17.28 q 2.88,9.6 11.904,15.36 9.024,5.952 21.696,5.952 14.4,0 23.424,-9.024 9.216,-9.024 9.216,-25.344 v -22.08 q -5.184,9.216 -15.36,15.36 -10.176,6.144 -23.808,6.144 -14.016,0 -25.536,-6.912 -11.328,-6.912 -17.856,-19.392 -6.528,-12.48 -6.528,-28.416 0,-16.128 6.528,-28.224 6.528,-12.288 17.856,-19.008 11.52,-6.72 25.536,-6.72 z m 39.168,54.144 q 0,-11.904 -4.8,-20.736 -4.8,-8.832 -13.056,-13.44 -8.064,-4.8 -17.856,-4.8 -9.792,0 -17.856,4.608 -8.064,4.608 -12.864,13.44 -4.8,8.832 -4.8,20.736 0,12.096 4.8,21.12 4.8,8.832 12.864,13.632 8.064,4.608 17.856,4.608 9.792,0 17.856,-4.608 8.256,-4.8 13.056,-13.632 4.8,-9.024 4.8,-20.928 z"
         id="path1644" />
      <path
         d="m 6580.5841,8340.3477 v 142.08 h -17.472 v -142.08 z"
         id="path1646" />
      <path
         d="m 6706.3441,8425.7877 q 0,4.992 -0.576,10.56 h -84.096 q 0.96,15.552 10.56,24.384 9.792,8.64 23.616,8.64 11.328,0 18.816,-5.184 7.68,-5.376 10.752,-14.208 h 18.816 q -4.224,15.168 -16.896,24.768 -12.672,9.408 -31.488,9.408 -14.976,0 -26.88,-6.72 -11.712,-6.72 -18.432,-19.008 -6.72,-12.48 -6.72,-28.8 0,-16.32 6.528,-28.608 6.528,-12.288 18.24,-18.816 11.904,-6.72 27.264,-6.72 14.976,0 26.496,6.528 11.52,6.528 17.664,18.048 6.336,11.328 6.336,25.728 z m -18.048,-3.648 q 0,-9.984 -4.416,-17.088 -4.416,-7.296 -12.096,-10.944 -7.488,-3.84 -16.704,-3.84 -13.248,0 -22.656,8.448 -9.216,8.448 -10.56,23.424 z"
         id="path1648" />
    </g>
    <path
       fill="#0c322c"
       stroke="#0c322c"
       stroke-width="26.7874"
       marker-end="url(#a)"
       d="M6316.3773 985.441H8935.59"
       id="path299" />
    <path
       stroke="#0c322c"
       stroke-width="28.2756"
       marker-end="url(#b)"
       d="M9905.8899 2116.4647v732.189"
       id="path301" />
    <path
       stroke="#0c322c"
       stroke-width="28.2756"
       marker-end="url(#c)"
       d="M9911.839 4199.9293v738.1417"
       id="path303" />
    <path
       stroke="#0c322c"
       stroke-width="28.2756"
       marker-end="url(#d)"
       d="M9911.8391 7051.297v1023.8739"
       id="path305" />
    <path
       stroke="#0c322c"
       stroke-width="28.2756"
       marker-end="url(#e)"
       d="M9911.8391 8360.9069v1184.5983"
       id="path307" />
    <path
       stroke="#0c322c"
       stroke-width="28.2756"
       marker-end="url(#f)"
       d="M9917.7898 11706.367v1148.882"
       id="path309" />
    <path
       stroke="#0c322c"
       stroke-width="28.2756"
       marker-end="url(#g)"
       d="M9233.2283 3545.1261H7310.4881"
       id="path311" />
    <path
       stroke="#0c322c"
       stroke-width="26.7874"
       marker-end="url(#h)"
       d="M5381.7952 3545.1262H4072.1888v1666.7717"
       id="path313" />
    <path
       stroke="#0c322c"
       stroke-width="28.2756"
       marker-end="url(#i)"
       d="M4078.1381 6741.7538v750.0472"
       id="path315" />
    <path
       stroke="#0c322c"
       stroke-width="28.2756"
       marker-end="url(#j)"
       d="M4726.9886 8247.8009h642.8975"
       id="path317" />
    <path
       stroke="#0c322c"
       stroke-width="28.2756"
       marker-end="url(#k)"
       d="M7274.7683 8247.8008h2476.3463"
       id="path319" />
  </g>
</svg>
