<?xml version="1.0" encoding="UTF-8" standalone="no"?>
<svg
   width="800"
   height="480"
   version="1.1"
   id="svg1765"
   sodipodi:docname="ldap_tree.svg"
   inkscape:version="1.2.2 (732a01da63, 2022-12-09)"
   xmlns:inkscape="http://www.inkscape.org/namespaces/inkscape"
   xmlns:sodipodi="http://sodipodi.sourceforge.net/DTD/sodipodi-0.dtd"
   xmlns="http://www.w3.org/2000/svg"
   xmlns:svg="http://www.w3.org/2000/svg">
  <defs
     id="defs1769" />
  <sodipodi:namedview
     id="namedview1767"
     pagecolor="#ffffff"
     bordercolor="#000000"
     borderopacity="0.25"
     inkscape:showpageshadow="2"
     inkscape:pageopacity="0.0"
     inkscape:pagecheckerboard="0"
     inkscape:deskcolor="#d1d1d1"
     showgrid="false"
     inkscape:zoom="1.6791667"
     inkscape:cx="399.90074"
     inkscape:cy="240"
     inkscape:window-width="1920"
     inkscape:window-height="1009"
     inkscape:window-x="-8"
     inkscape:window-y="-8"
     inkscape:window-maximized="1"
     inkscape:current-layer="svg1765" />
  <path
     fill="none"
     stroke="#0c322c"
     stroke-width="4"
     d="M200 274.66v58H100v57m100-115v58h100v57m301.39-114.75v58h-100v57m100.01-115v58h99.98v57M400 89.66v58H200v62m200-120v58h199.94v62"
     id="path1721" />
  <rect
     width="240"
     height="90"
     x="280"
     y="9.66"
     fill="#0c322c"
     rx="0"
     ry="0"
     id="rect1723" />
  <g
     aria-label="dc=example, dc=com"
     id="text1727"
     style="font-weight:500;font-size:18px;line-height:125%;font-family:Poppins;-inkscape-font-specification:'Poppins Medium';letter-spacing:0;word-spacing:0;fill:#ffffff">
    <path
       d="m 299.744,53.991999 q 0,-1.512 0.612,-2.646 0.612,-1.152 1.674,-1.782 1.08,-0.63 2.412,-0.63 1.152,0 2.142,0.54 0.99,0.522 1.512,1.386 v -5.22 h 1.656 v 13.32 h -1.656 v -1.854 q -0.486,0.882 -1.44,1.458 -0.954,0.558 -2.232,0.558 -1.314,0 -2.394,-0.648 -1.062,-0.648 -1.674,-1.818 -0.612,-1.17 -0.612,-2.664 z m 8.352,0.018 q 0,-1.116 -0.45,-1.944 -0.45,-0.828 -1.224,-1.26 -0.756,-0.45 -1.674,-0.45 -0.918,0 -1.674,0.432 -0.756,0.432 -1.206,1.26 -0.45,0.828 -0.45,1.944 0,1.134 0.45,1.98 0.45,0.828 1.206,1.278 0.756,0.432 1.674,0.432 0.918,0 1.674,-0.432 0.774,-0.45 1.224,-1.278 0.45,-0.846 0.45,-1.962 z"
       id="path1799" />
    <path
       d="m 311.91201,54.009999 q 0,-1.53 0.612,-2.664 0.612,-1.152 1.692,-1.782 1.098,-0.63 2.502,-0.63 1.818,0 2.988,0.882 1.188,0.882 1.566,2.448 h -1.764 q -0.252,-0.9 -0.99,-1.422 -0.72,-0.522 -1.8,-0.522 -1.404,0 -2.268,0.972 -0.864,0.954 -0.864,2.718 0,1.782 0.864,2.754 0.864,0.972 2.268,0.972 1.08,0 1.8,-0.504 0.72,-0.504 0.99,-1.44 h 1.764 q -0.396,1.512 -1.584,2.43 -1.188,0.9 -2.97,0.9 -1.404,0 -2.502,-0.63 -1.08,-0.63 -1.692,-1.782 -0.612,-1.152 -0.612,-2.7 z"
       id="path1801" />
    <path
       d="m 333.24202,49.743999 v 1.386 h -9.36 v -1.386 z m 0,3.87 v 1.386 h -9.36 v -1.386 z"
       id="path1803" />
    <path
       d="m 345.46401,53.649999 q 0,0.468 -0.054,0.99 h -7.884 q 0.09,1.458 0.99,2.286 0.918,0.81 2.214,0.81 1.062,0 1.764,-0.486 0.72,-0.504 1.008,-1.332 h 1.764 q -0.396,1.422 -1.584,2.322 -1.188,0.882 -2.952,0.882 -1.404,0 -2.52,-0.63 -1.098,-0.63 -1.728,-1.782 -0.63,-1.17 -0.63,-2.7 0,-1.53 0.612,-2.682 0.612,-1.152 1.71,-1.764 1.116,-0.63 2.556,-0.63 1.404,0 2.484,0.612 1.08,0.612 1.656,1.692 0.594,1.062 0.594,2.412 z m -1.692,-0.342 q 0,-0.936 -0.414,-1.602 -0.414,-0.684 -1.134,-1.026 -0.702,-0.36 -1.566,-0.36 -1.242,0 -2.124,0.792 -0.864,0.792 -0.99,2.196 z"
       id="path1805" />
    <path
       d="m 352.77203,58.959999 -2.34,-3.672 -2.25,3.672 h -1.71 l 3.186,-4.896 -3.186,-4.968 h 1.854 l 2.34,3.654 2.232,-3.654 h 1.71 l -3.168,4.878 3.186,4.986 z"
       id="path1807" />
    <path
       d="m 355.63403,53.991999 q 0,-1.512 0.612,-2.646 0.612,-1.152 1.674,-1.782 1.08,-0.63 2.394,-0.63 1.296,0 2.25,0.558 0.954,0.558 1.422,1.404 v -1.8 h 1.656 v 9.864 h -1.656 v -1.836 q -0.486,0.864 -1.458,1.44 -0.954,0.558 -2.232,0.558 -1.314,0 -2.376,-0.648 -1.062,-0.648 -1.674,-1.818 -0.612,-1.17 -0.612,-2.664 z m 8.352,0.018 q 0,-1.116 -0.45,-1.944 -0.45,-0.828 -1.224,-1.26 -0.756,-0.45 -1.674,-0.45 -0.918,0 -1.674,0.432 -0.756,0.432 -1.206,1.26 -0.45,0.828 -0.45,1.944 0,1.134 0.45,1.98 0.45,0.828 1.206,1.278 0.756,0.432 1.674,0.432 0.918,0 1.674,-0.432 0.774,-0.45 1.224,-1.278 0.45,-0.846 0.45,-1.962 z"
       id="path1809" />
    <path
       d="m 380.27604,48.915999 q 1.152,0 2.052,0.486 0.9,0.468 1.422,1.422 0.522,0.954 0.522,2.322 v 5.814 h -1.62 v -5.58 q 0,-1.476 -0.738,-2.25 -0.72,-0.792 -1.962,-0.792 -1.278,0 -2.034,0.828 -0.756,0.81 -0.756,2.358 v 5.436 h -1.62 v -5.58 q 0,-1.476 -0.738,-2.25 -0.72,-0.792 -1.962,-0.792 -1.278,0 -2.034,0.828 -0.756,0.81 -0.756,2.358 v 5.436 h -1.638 v -9.864 h 1.638 v 1.422 q 0.486,-0.774 1.296,-1.188 0.828,-0.414 1.818,-0.414 1.242,0 2.196,0.558 0.954,0.558 1.422,1.638 0.414,-1.044 1.368,-1.62 0.954,-0.576 2.124,-0.576 z"
       id="path1811" />
    <path
       d="m 388.59205,50.913999 q 0.486,-0.846 1.44,-1.404 0.972,-0.576 2.25,-0.576 1.314,0 2.376,0.63 1.08,0.63 1.692,1.782 0.612,1.134 0.612,2.646 0,1.494 -0.612,2.664 -0.612,1.17 -1.692,1.818 -1.062,0.648 -2.376,0.648 -1.26,0 -2.232,-0.558 -0.954,-0.576 -1.458,-1.422 v 6.498 h -1.638 v -14.544 h 1.638 z m 6.696,3.078 q 0,-1.116 -0.45,-1.944 -0.45,-0.828 -1.224,-1.26 -0.756,-0.432 -1.674,-0.432 -0.9,0 -1.674,0.45 -0.756,0.432 -1.224,1.278 -0.45,0.828 -0.45,1.926 0,1.116 0.45,1.962 0.468,0.828 1.224,1.278 0.774,0.432 1.674,0.432 0.918,0 1.674,-0.432 0.774,-0.45 1.224,-1.278 0.45,-0.846 0.45,-1.98 z"
       id="path1813" />
    <path
       d="m 400.76006,45.639999 v 13.32 h -1.638 v -13.32 z"
       id="path1815" />
    <path
       d="m 412.55006,53.649999 q 0,0.468 -0.054,0.99 h -7.884 q 0.09,1.458 0.99,2.286 0.918,0.81 2.214,0.81 1.062,0 1.764,-0.486 0.72,-0.504 1.008,-1.332 h 1.764 q -0.396,1.422 -1.584,2.322 -1.188,0.882 -2.952,0.882 -1.404,0 -2.52,-0.63 -1.098,-0.63 -1.728,-1.782 -0.63,-1.17 -0.63,-2.7 0,-1.53 0.612,-2.682 0.612,-1.152 1.71,-1.764 1.116,-0.63 2.556,-0.63 1.404,0 2.484,0.612 1.08,0.612 1.656,1.692 0.594,1.062 0.594,2.412 z m -1.692,-0.342 q 0,-0.936 -0.414,-1.602 -0.414,-0.684 -1.134,-1.026 -0.702,-0.36 -1.566,-0.36 -1.242,0 -2.124,0.792 -0.864,0.792 -0.99,2.196 z"
       id="path1817" />
    <path
       d="m 414.67408,62.379999 c 1.62,-0.684 2.628,-2.034 2.628,-3.762 0,-1.206 -0.522,-1.944 -1.386,-1.944 -0.666,0 -1.242,0.45 -1.242,1.152 0,0.756 0.576,1.152 1.206,1.152 0.072,0 0.126,0 0.198,-0.018 -0.018,1.098 -0.684,1.962 -1.8,2.448 z"
       style="font-weight:normal;font-family:'Noto Sans CJK SC';-inkscape-font-specification:'Noto Sans CJK SC'"
       id="path1819" />
    <path
       d="m 423.90808,53.991999 q 0,-1.512 0.612,-2.646 0.612,-1.152 1.674,-1.782 1.08,-0.63 2.412,-0.63 1.152,0 2.142,0.54 0.99,0.522 1.512,1.386 v -5.22 h 1.656 v 13.32 h -1.656 v -1.854 q -0.486,0.882 -1.44,1.458 -0.954,0.558 -2.232,0.558 -1.314,0 -2.394,-0.648 -1.062,-0.648 -1.674,-1.818 -0.612,-1.17 -0.612,-2.664 z m 8.352,0.018 q 0,-1.116 -0.45,-1.944 -0.45,-0.828 -1.224,-1.26 -0.756,-0.45 -1.674,-0.45 -0.918,0 -1.674,0.432 -0.756,0.432 -1.206,1.26 -0.45,0.828 -0.45,1.944 0,1.134 0.45,1.98 0.45,0.828 1.206,1.278 0.756,0.432 1.674,0.432 0.918,0 1.674,-0.432 0.774,-0.45 1.224,-1.278 0.45,-0.846 0.45,-1.962 z"
       id="path1821" />
    <path
       d="m 436.07609,54.009999 q 0,-1.53 0.612,-2.664 0.612,-1.152 1.692,-1.782 1.098,-0.63 2.502,-0.63 1.818,0 2.988,0.882 1.188,0.882 1.566,2.448 h -1.764 q -0.252,-0.9 -0.99,-1.422 -0.72,-0.522 -1.8,-0.522 -1.404,0 -2.268,0.972 -0.864,0.954 -0.864,2.718 0,1.782 0.864,2.754 0.864,0.972 2.268,0.972 1.08,0 1.8,-0.504 0.72,-0.504 0.99,-1.44 h 1.764 q -0.396,1.512 -1.584,2.43 -1.188,0.9 -2.97,0.9 -1.404,0 -2.502,-0.63 -1.08,-0.63 -1.692,-1.782 -0.612,-1.152 -0.612,-2.7 z"
       id="path1823" />
    <path
       d="m 457.4061,49.743999 v 1.386 h -9.36 v -1.386 z m 0,3.87 v 1.386 h -9.36 v -1.386 z"
       id="path1825" />
    <path
       d="m 460.0161,54.009999 q 0,-1.53 0.612,-2.664 0.612,-1.152 1.692,-1.782 1.098,-0.63 2.502,-0.63 1.818,0 2.988,0.882 1.188,0.882 1.566,2.448 h -1.764 q -0.252,-0.9 -0.99,-1.422 -0.72,-0.522 -1.8,-0.522 -1.404,0 -2.268,0.972 -0.864,0.954 -0.864,2.718 0,1.782 0.864,2.754 0.864,0.972 2.268,0.972 1.08,0 1.8,-0.504 0.72,-0.504 0.99,-1.44 h 1.764 q -0.396,1.512 -1.584,2.43 -1.188,0.9 -2.97,0.9 -1.404,0 -2.502,-0.63 -1.08,-0.63 -1.692,-1.782 -0.612,-1.152 -0.612,-2.7 z"
       id="path1827" />
    <path
       d="m 475.85609,59.121999 q -1.386,0 -2.52,-0.63 -1.116,-0.63 -1.764,-1.782 -0.63,-1.17 -0.63,-2.7 0,-1.512 0.648,-2.664 0.666,-1.17 1.8,-1.782 1.134,-0.63 2.538,-0.63 1.404,0 2.538,0.63 1.134,0.612 1.782,1.764 0.666,1.152 0.666,2.682 0,1.53 -0.684,2.7 -0.666,1.152 -1.818,1.782 -1.152,0.63 -2.556,0.63 z m 0,-1.44 q 0.882,0 1.656,-0.414 0.774,-0.414 1.242,-1.242 0.486,-0.828 0.486,-2.016 0,-1.188 -0.468,-2.016 -0.468,-0.828 -1.224,-1.224 -0.756,-0.414 -1.638,-0.414 -0.9,0 -1.656,0.414 -0.738,0.396 -1.188,1.224 -0.45,0.828 -0.45,2.016 0,1.206 0.432,2.034 0.45,0.828 1.188,1.242 0.738,0.396 1.62,0.396 z"
       id="path1829" />
    <path
       d="m 494.93608,48.915999 q 1.152,0 2.052,0.486 0.9,0.468 1.422,1.422 0.522,0.954 0.522,2.322 v 5.814 h -1.62 v -5.58 q 0,-1.476 -0.738,-2.25 -0.72,-0.792 -1.962,-0.792 -1.278,0 -2.034,0.828 -0.756,0.81 -0.756,2.358 v 5.436 h -1.62 v -5.58 q 0,-1.476 -0.738,-2.25 -0.72,-0.792 -1.962,-0.792 -1.278,0 -2.034,0.828 -0.756,0.81 -0.756,2.358 v 5.436 h -1.638 v -9.864 h 1.638 v 1.422 q 0.486,-0.774 1.296,-1.188 0.828,-0.414 1.818,-0.414 1.242,0 2.196,0.558 0.954,0.558 1.422,1.638 0.414,-1.044 1.368,-1.62 0.954,-0.576 2.124,-0.576 z"
       id="path1831" />
  </g>
  <rect
     width="240"
     height="90"
     x="80"
     y="194.66"
     fill="#30ba78"
     rx="0"
     ry="0"
     id="rect1729" />
  <g
     aria-label="ou=devel"
     id="text1733"
     style="font-weight:500;font-size:18px;line-height:125%;font-family:Poppins;-inkscape-font-specification:'Poppins Medium';letter-spacing:0;word-spacing:0">
    <path
       d="m 162.708,246.40201 q -1.386,0 -2.52,-0.63 -1.116,-0.63 -1.764,-1.782 -0.63,-1.17 -0.63,-2.7 0,-1.512 0.648,-2.664 0.666,-1.17 1.8,-1.782 1.134,-0.63 2.538,-0.63 1.404,0 2.538,0.63 1.134,0.612 1.782,1.764 0.666,1.152 0.666,2.682 0,1.53 -0.684,2.7 -0.666,1.152 -1.818,1.782 -1.152,0.63 -2.556,0.63 z m 0,-1.44 q 0.882,0 1.656,-0.414 0.774,-0.414 1.242,-1.242 0.486,-0.828 0.486,-2.016 0,-1.188 -0.468,-2.016 -0.468,-0.828 -1.224,-1.224 -0.756,-0.414 -1.638,-0.414 -0.9,0 -1.656,0.414 -0.738,0.396 -1.188,1.224 -0.45,0.828 -0.45,2.016 0,1.206 0.432,2.034 0.45,0.828 1.188,1.242 0.738,0.396 1.62,0.396 z"
       id="path1834" />
    <path
       d="m 178.67399,236.37601 v 9.864 h -1.638 v -1.458 q -0.468,0.756 -1.314,1.188 -0.828,0.414 -1.836,0.414 -1.152,0 -2.07,-0.468 -0.918,-0.486 -1.458,-1.44 -0.522,-0.954 -0.522,-2.322 v -5.778 h 1.62 v 5.562 q 0,1.458 0.738,2.25 0.738,0.774 2.016,0.774 1.314,0 2.07,-0.81 0.756,-0.81 0.756,-2.358 v -5.418 z"
       id="path1836" />
    <path
       d="m 191.23798,237.02401 v 1.386 h -9.36 v -1.386 z m 0,3.87 v 1.386 h -9.36 v -1.386 z"
       id="path1838" />
    <path
       d="m 193.84797,241.27201 q 0,-1.512 0.612,-2.646 0.612,-1.152 1.674,-1.782 1.08,-0.63 2.412,-0.63 1.152,0 2.142,0.54 0.99,0.522 1.512,1.386 v -5.22 h 1.656 v 13.32 h -1.656 v -1.854 q -0.486,0.882 -1.44,1.458 -0.954,0.558 -2.232,0.558 -1.314,0 -2.394,-0.648 -1.062,-0.648 -1.674,-1.818 -0.612,-1.17 -0.612,-2.664 z m 8.352,0.018 q 0,-1.116 -0.45,-1.944 -0.45,-0.828 -1.224,-1.26 -0.756,-0.45 -1.674,-0.45 -0.918,0 -1.674,0.432 -0.756,0.432 -1.206,1.26 -0.45,0.828 -0.45,1.944 0,1.134 0.45,1.98 0.45,0.828 1.206,1.278 0.756,0.432 1.674,0.432 0.918,0 1.674,-0.432 0.774,-0.45 1.224,-1.278 0.45,-0.846 0.45,-1.962 z"
       id="path1840" />
    <path
       d="m 215.62799,240.93001 q 0,0.468 -0.054,0.99 h -7.884 q 0.09,1.458 0.99,2.286 0.918,0.81 2.214,0.81 1.062,0 1.764,-0.486 0.72,-0.504 1.008,-1.332 h 1.764 q -0.396,1.422 -1.584,2.322 -1.188,0.882 -2.952,0.882 -1.404,0 -2.52,-0.63 -1.098,-0.63 -1.728,-1.782 -0.63,-1.17 -0.63,-2.7 0,-1.53 0.612,-2.682 0.612,-1.152 1.71,-1.764 1.116,-0.63 2.556,-0.63 1.404,0 2.484,0.612 1.08,0.612 1.656,1.692 0.594,1.062 0.594,2.412 z m -1.692,-0.342 q 0,-0.936 -0.414,-1.602 -0.414,-0.684 -1.134,-1.026 -0.702,-0.36 -1.566,-0.36 -1.242,0 -2.124,0.792 -0.864,0.792 -0.99,2.196 z"
       id="path1842" />
    <path
       d="m 221.46,244.72801 3.06,-8.352 h 1.746 l -3.87,9.864 h -1.908 l -3.87,-9.864 h 1.764 z"
       id="path1844" />
    <path
       d="m 236.88602,240.93001 q 0,0.468 -0.054,0.99 h -7.884 q 0.09,1.458 0.99,2.286 0.918,0.81 2.214,0.81 1.062,0 1.764,-0.486 0.72,-0.504 1.008,-1.332 h 1.764 q -0.396,1.422 -1.584,2.322 -1.188,0.882 -2.952,0.882 -1.404,0 -2.52,-0.63 -1.098,-0.63 -1.728,-1.782 -0.63,-1.17 -0.63,-2.7 0,-1.53 0.612,-2.682 0.612,-1.152 1.71,-1.764 1.116,-0.63 2.556,-0.63 1.404,0 2.484,0.612 1.08,0.612 1.656,1.692 0.594,1.062 0.594,2.412 z m -1.692,-0.342 q 0,-0.936 -0.414,-1.602 -0.414,-0.684 -1.134,-1.026 -0.702,-0.36 -1.566,-0.36 -1.242,0 -2.124,0.792 -0.864,0.792 -0.99,2.196 z"
       id="path1846" />
    <path
       d="m 240.68403,232.92001 v 13.32 h -1.638 v -13.32 z"
       id="path1848" />
  </g>
  <rect
     width="240"
     height="90"
     x="480"
     y="194.66"
     fill="#30ba78"
     rx="0"
     ry="0"
     id="rect1735" />
  <g
     aria-label="ou=doc"
     id="text1739"
     style="font-weight:500;font-size:18px;line-height:125%;font-family:Poppins;-inkscape-font-specification:'Poppins Medium';letter-spacing:0;word-spacing:0">
    <path
       d="m 569.90797,246.40201 q -1.386,0 -2.52,-0.63 -1.116,-0.63 -1.764,-1.782 -0.63,-1.17 -0.63,-2.7 0,-1.512 0.648,-2.664 0.666,-1.17 1.8,-1.782 1.134,-0.63 2.538,-0.63 1.404,0 2.538,0.63 1.134,0.612 1.782,1.764 0.666,1.152 0.666,2.682 0,1.53 -0.684,2.7 -0.666,1.152 -1.818,1.782 -1.152,0.63 -2.556,0.63 z m 0,-1.44 q 0.882,0 1.656,-0.414 0.774,-0.414 1.242,-1.242 0.486,-0.828 0.486,-2.016 0,-1.188 -0.468,-2.016 -0.468,-0.828 -1.224,-1.224 -0.756,-0.414 -1.638,-0.414 -0.9,0 -1.656,0.414 -0.738,0.396 -1.188,1.224 -0.45,0.828 -0.45,2.016 0,1.206 0.432,2.034 0.45,0.828 1.188,1.242 0.738,0.396 1.62,0.396 z"
       id="path1851" />
    <path
       d="m 585.87396,236.37601 v 9.864 h -1.638 v -1.458 q -0.468,0.756 -1.314,1.188 -0.828,0.414 -1.836,0.414 -1.152,0 -2.07,-0.468 -0.918,-0.486 -1.458,-1.44 -0.522,-0.954 -0.522,-2.322 v -5.778 h 1.62 v 5.562 q 0,1.458 0.738,2.25 0.738,0.774 2.016,0.774 1.314,0 2.07,-0.81 0.756,-0.81 0.756,-2.358 v -5.418 z"
       id="path1853" />
    <path
       d="m 598.43795,237.02401 v 1.386 h -9.36 v -1.386 z m 0,3.87 v 1.386 h -9.36 v -1.386 z"
       id="path1855" />
    <path
       d="m 601.04794,241.27201 q 0,-1.512 0.612,-2.646 0.612,-1.152 1.674,-1.782 1.08,-0.63 2.412,-0.63 1.152,0 2.142,0.54 0.99,0.522 1.512,1.386 v -5.22 h 1.656 v 13.32 h -1.656 v -1.854 q -0.486,0.882 -1.44,1.458 -0.954,0.558 -2.232,0.558 -1.314,0 -2.394,-0.648 -1.062,-0.648 -1.674,-1.818 -0.612,-1.17 -0.612,-2.664 z m 8.352,0.018 q 0,-1.116 -0.45,-1.944 -0.45,-0.828 -1.224,-1.26 -0.756,-0.45 -1.674,-0.45 -0.918,0 -1.674,0.432 -0.756,0.432 -1.206,1.26 -0.45,0.828 -0.45,1.944 0,1.134 0.45,1.98 0.45,0.828 1.206,1.278 0.756,0.432 1.674,0.432 0.918,0 1.674,-0.432 0.774,-0.45 1.224,-1.278 0.45,-0.846 0.45,-1.962 z"
       id="path1857" />
    <path
       d="m 618.12995,246.40201 q -1.386,0 -2.52,-0.63 -1.116,-0.63 -1.764,-1.782 -0.63,-1.17 -0.63,-2.7 0,-1.512 0.648,-2.664 0.666,-1.17 1.8,-1.782 1.134,-0.63 2.538,-0.63 1.404,0 2.538,0.63 1.134,0.612 1.782,1.764 0.666,1.152 0.666,2.682 0,1.53 -0.684,2.7 -0.666,1.152 -1.818,1.782 -1.152,0.63 -2.556,0.63 z m 0,-1.44 q 0.882,0 1.656,-0.414 0.774,-0.414 1.242,-1.242 0.486,-0.828 0.486,-2.016 0,-1.188 -0.468,-2.016 -0.468,-0.828 -1.224,-1.224 -0.756,-0.414 -1.638,-0.414 -0.9,0 -1.656,0.414 -0.738,0.396 -1.188,1.224 -0.45,0.828 -0.45,2.016 0,1.206 0.432,2.034 0.45,0.828 1.188,1.242 0.738,0.396 1.62,0.396 z"
       id="path1859" />
    <path
       d="m 624.73594,241.29001 q 0,-1.53 0.612,-2.664 0.612,-1.152 1.692,-1.782 1.098,-0.63 2.502,-0.63 1.818,0 2.988,0.882 1.188,0.882 1.566,2.448 h -1.764 q -0.252,-0.9 -0.99,-1.422 -0.72,-0.522 -1.8,-0.522 -1.404,0 -2.268,0.972 -0.864,0.954 -0.864,2.718 0,1.782 0.864,2.754 0.864,0.972 2.268,0.972 1.08,0 1.8,-0.504 0.72,-0.504 0.99,-1.44 h 1.764 q -0.396,1.512 -1.584,2.43 -1.188,0.9 -2.97,0.9 -1.404,0 -2.502,-0.63 -1.08,-0.63 -1.692,-1.782 -0.612,-1.152 -0.612,-2.7 z"
       id="path1861" />
  </g>
  <rect
     width="180.02"
     height="89.96"
     x="10.05"
     y="379.71"
     fill="#30ba78"
     rx="0"
     ry="0"
     id="rect1741" />
  <rect
     width="180.02"
     height="89.96"
     x="209.81"
     y="380.16"
     fill="#30ba78"
     rx="0"
     ry="0"
     id="rect1743" />
  <rect
     width="180.02"
     height="89.96"
     x="410.07"
     y="380.01"
     fill="#30ba78"
     rx="0"
     ry="0"
     id="rect1745" />
  <rect
     width="180.02"
     height="89.96"
     x="609.9"
     y="380.15"
     fill="#30ba78"
     rx="0"
     ry="0"
     id="rect1747" />
  <g
     aria-label="cn=Octocat"
     id="text1751"
     style="font-weight:500;font-size:18px;line-height:125%;font-family:Poppins;-inkscape-font-specification:'Poppins Medium';letter-spacing:0;word-spacing:0">
    <path
       d="m 646.01399,426.43 q 0,-1.53 0.612,-2.664 0.612,-1.152 1.692,-1.782 1.098,-0.63 2.502,-0.63 1.818,0 2.988,0.882 1.188,0.882 1.566,2.448 h -1.764 q -0.252,-0.9 -0.99,-1.422 -0.72,-0.522 -1.8,-0.522 -1.404,0 -2.268,0.972 -0.864,0.954 -0.864,2.718 0,1.782 0.864,2.754 0.864,0.972 2.268,0.972 1.08,0 1.8,-0.504 0.72,-0.504 0.99,-1.44 h 1.764 q -0.396,1.512 -1.584,2.43 -1.188,0.9 -2.97,0.9 -1.404,0 -2.502,-0.63 -1.08,-0.63 -1.692,-1.782 -0.612,-1.152 -0.612,-2.7 z"
       id="path1913" />
    <path
       d="m 662.358,421.336 q 1.8,0 2.916,1.098 1.116,1.08 1.116,3.132 v 5.814 h -1.62 v -5.58 q 0,-1.476 -0.738,-2.25 -0.738,-0.792 -2.016,-0.792 -1.296,0 -2.07,0.81 -0.756,0.81 -0.756,2.358 v 5.454 h -1.638 v -9.864 h 1.638 v 1.404 q 0.486,-0.756 1.314,-1.17 0.846,-0.414 1.854,-0.414 z"
       id="path1915" />
    <path
       d="m 678.86399,422.164 v 1.386 h -9.36 v -1.386 z m 0,3.87 v 1.386 h -9.36 v -1.386 z"
       id="path1917" />
    <path
       d="m 687.77398,431.506 q -1.746,0 -3.186,-0.81 -1.44,-0.828 -2.286,-2.286 -0.828,-1.476 -0.828,-3.312 0,-1.836 0.828,-3.294 0.846,-1.476 2.286,-2.286 1.44,-0.828 3.186,-0.828 1.764,0 3.204,0.828 1.44,0.81 2.268,2.268 0.828,1.458 0.828,3.312 0,1.854 -0.828,3.312 -0.828,1.458 -2.268,2.286 -1.44,0.81 -3.204,0.81 z m 0,-1.422 q 1.314,0 2.358,-0.612 1.062,-0.612 1.656,-1.746 0.612,-1.134 0.612,-2.628 0,-1.512 -0.612,-2.628 -0.594,-1.134 -1.638,-1.746 -1.044,-0.612 -2.376,-0.612 -1.332,0 -2.376,0.612 -1.044,0.612 -1.656,1.746 -0.594,1.116 -0.594,2.628 0,1.494 0.594,2.628 0.612,1.134 1.656,1.746 1.062,0.612 2.376,0.612 z"
       id="path1919" />
    <path
       d="m 695.62197,426.43 q 0,-1.53 0.612,-2.664 0.612,-1.152 1.692,-1.782 1.098,-0.63 2.502,-0.63 1.818,0 2.988,0.882 1.188,0.882 1.566,2.448 h -1.764 q -0.252,-0.9 -0.99,-1.422 -0.72,-0.522 -1.8,-0.522 -1.404,0 -2.268,0.972 -0.864,0.954 -0.864,2.718 0,1.782 0.864,2.754 0.864,0.972 2.268,0.972 1.08,0 1.8,-0.504 0.72,-0.504 0.99,-1.44 h 1.764 q -0.396,1.512 -1.584,2.43 -1.188,0.9 -2.97,0.9 -1.404,0 -2.502,-0.63 -1.08,-0.63 -1.692,-1.782 -0.612,-1.152 -0.612,-2.7 z"
       id="path1921" />
    <path
       d="m 709.15797,422.866 v 5.814 q 0,0.72 0.306,1.026 0.306,0.288 1.062,0.288 h 1.206 v 1.386 h -1.476 q -1.368,0 -2.052,-0.63 -0.684,-0.63 -0.684,-2.07 v -5.814 h -1.278 v -1.35 h 1.278 v -2.484 h 1.638 v 2.484 h 2.574 v 1.35 z"
       id="path1923" />
    <path
       d="m 718.01397,431.542 q -1.386,0 -2.52,-0.63 -1.116,-0.63 -1.764,-1.782 -0.63,-1.17 -0.63,-2.7 0,-1.512 0.648,-2.664 0.666,-1.17 1.8,-1.782 1.134,-0.63 2.538,-0.63 1.404,0 2.538,0.63 1.134,0.612 1.782,1.764 0.666,1.152 0.666,2.682 0,1.53 -0.684,2.7 -0.666,1.152 -1.818,1.782 -1.152,0.63 -2.556,0.63 z m 0,-1.44 q 0.882,0 1.656,-0.414 0.774,-0.414 1.242,-1.242 0.486,-0.828 0.486,-2.016 0,-1.188 -0.468,-2.016 -0.468,-0.828 -1.224,-1.224 -0.756,-0.414 -1.638,-0.414 -0.9,0 -1.656,0.414 -0.738,0.396 -1.188,1.224 -0.45,0.828 -0.45,2.016 0,1.206 0.432,2.034 0.45,0.828 1.188,1.242 0.738,0.396 1.62,0.396 z"
       id="path1925" />
    <path
       d="m 724.61996,426.43 q 0,-1.53 0.612,-2.664 0.612,-1.152 1.692,-1.782 1.098,-0.63 2.502,-0.63 1.818,0 2.988,0.882 1.188,0.882 1.566,2.448 h -1.764 q -0.252,-0.9 -0.99,-1.422 -0.72,-0.522 -1.8,-0.522 -1.404,0 -2.268,0.972 -0.864,0.954 -0.864,2.718 0,1.782 0.864,2.754 0.864,0.972 2.268,0.972 1.08,0 1.8,-0.504 0.72,-0.504 0.99,-1.44 h 1.764 q -0.396,1.512 -1.584,2.43 -1.188,0.9 -2.97,0.9 -1.404,0 -2.502,-0.63 -1.08,-0.63 -1.692,-1.782 -0.612,-1.152 -0.612,-2.7 z"
       id="path1927" />
    <path
       d="m 735.54597,426.412 q 0,-1.512 0.612,-2.646 0.612,-1.152 1.674,-1.782 1.08,-0.63 2.394,-0.63 1.296,0 2.25,0.558 0.954,0.558 1.422,1.404 v -1.8 h 1.656 v 9.864 h -1.656 v -1.836 q -0.486,0.864 -1.458,1.44 -0.954,0.558 -2.232,0.558 -1.314,0 -2.376,-0.648 -1.062,-0.648 -1.674,-1.818 -0.612,-1.17 -0.612,-2.664 z m 8.352,0.018 q 0,-1.116 -0.45,-1.944 -0.45,-0.828 -1.224,-1.26 -0.756,-0.45 -1.674,-0.45 -0.918,0 -1.674,0.432 -0.756,0.432 -1.206,1.26 -0.45,0.828 -0.45,1.944 0,1.134 0.45,1.98 0.45,0.828 1.206,1.278 0.756,0.432 1.674,0.432 0.918,0 1.674,-0.432 0.774,-0.45 1.224,-1.278 0.45,-0.846 0.45,-1.962 z"
       id="path1929" />
    <path
       d="m 750.32399,422.866 v 5.814 q 0,0.72 0.306,1.026 0.306,0.288 1.062,0.288 h 1.206 v 1.386 h -1.476 q -1.368,0 -2.052,-0.63 -0.684,-0.63 -0.684,-2.07 v -5.814 h -1.278 v -1.35 h 1.278 v -2.484 h 1.638 v 2.484 h 2.574 v 1.35 z"
       id="path1931" />
  </g>
  <g
     aria-label="cn=Geeko"
     id="text1755"
     style="font-weight:500;font-size:18px;line-height:125%;font-family:Poppins;-inkscape-font-specification:'Poppins Medium';letter-spacing:0;word-spacing:0">
    <path
       d="m 453.864,426.62001 q 0,-1.53 0.612,-2.664 0.612,-1.152 1.692,-1.782 1.098,-0.63 2.502,-0.63 1.818,0 2.988,0.882 1.188,0.882 1.566,2.448 h -1.764 q -0.252,-0.9 -0.99,-1.422 -0.72,-0.522 -1.8,-0.522 -1.404,0 -2.268,0.972 -0.864,0.954 -0.864,2.718 0,1.782 0.864,2.754 0.864,0.972 2.268,0.972 1.08,0 1.8,-0.504 0.72,-0.504 0.99,-1.44 h 1.764 q -0.396,1.512 -1.584,2.43 -1.188,0.9 -2.97,0.9 -1.404,0 -2.502,-0.63 -1.08,-0.63 -1.692,-1.782 -0.612,-1.152 -0.612,-2.7 z"
       id="path1896" />
    <path
       d="m 470.208,421.52601 q 1.8,0 2.916,1.098 1.116,1.08 1.116,3.132 v 5.814 h -1.62 v -5.58 q 0,-1.476 -0.738,-2.25 -0.738,-0.792 -2.016,-0.792 -1.296,0 -2.07,0.81 -0.756,0.81 -0.756,2.358 v 5.454 h -1.638 v -9.864 h 1.638 v 1.404 q 0.486,-0.756 1.314,-1.17 0.846,-0.414 1.854,-0.414 z"
       id="path1898" />
    <path
       d="m 486.71399,422.35401 v 1.386 h -9.36 v -1.386 z m 0,3.87 v 1.386 h -9.36 v -1.386 z"
       id="path1900" />
    <path
       d="m 499.43998,422.66001 q -0.522,-1.098 -1.512,-1.692 -0.99,-0.612 -2.304,-0.612 -1.314,0 -2.376,0.612 -1.044,0.594 -1.656,1.728 -0.594,1.116 -0.594,2.592 0,1.476 0.594,2.592 0.612,1.116 1.656,1.728 1.062,0.594 2.376,0.594 1.836,0 3.024,-1.098 1.188,-1.098 1.386,-2.97 h -5.004 v -1.332 h 6.75 v 1.26 q -0.144,1.548 -0.972,2.844 -0.828,1.278 -2.178,2.034 -1.35,0.738 -3.006,0.738 -1.746,0 -3.186,-0.81 -1.44,-0.828 -2.286,-2.286 -0.828,-1.458 -0.828,-3.294 0,-1.836 0.828,-3.294 0.846,-1.476 2.286,-2.286 1.44,-0.828 3.186,-0.828 1.998,0 3.528,0.99 1.548,0.99 2.25,2.79 z"
       id="path1902" />
    <path
       d="m 512.93998,426.26001 q 0,0.468 -0.054,0.99 h -7.884 q 0.09,1.458 0.99,2.286 0.918,0.81 2.214,0.81 1.062,0 1.764,-0.486 0.72,-0.504 1.008,-1.332 h 1.764 q -0.396,1.422 -1.584,2.322 -1.188,0.882 -2.952,0.882 -1.404,0 -2.52,-0.63 -1.098,-0.63 -1.728,-1.782 -0.63,-1.17 -0.63,-2.7 0,-1.53 0.612,-2.682 0.612,-1.152 1.71,-1.764 1.116,-0.63 2.556,-0.63 1.404,0 2.484,0.612 1.08,0.612 1.656,1.692 0.594,1.062 0.594,2.412 z m -1.692,-0.342 q 0,-0.936 -0.414,-1.602 -0.414,-0.684 -1.134,-1.026 -0.702,-0.36 -1.566,-0.36 -1.242,0 -2.124,0.792 -0.864,0.792 -0.99,2.196 z"
       id="path1904" />
    <path
       d="m 524.1,426.26001 q 0,0.468 -0.054,0.99 h -7.884 q 0.09,1.458 0.99,2.286 0.918,0.81 2.214,0.81 1.062,0 1.764,-0.486 0.72,-0.504 1.008,-1.332 h 1.764 q -0.396,1.422 -1.584,2.322 -1.188,0.882 -2.952,0.882 -1.404,0 -2.52,-0.63 -1.098,-0.63 -1.728,-1.782 -0.63,-1.17 -0.63,-2.7 0,-1.53 0.612,-2.682 0.612,-1.152 1.71,-1.764 1.116,-0.63 2.556,-0.63 1.404,0 2.484,0.612 1.08,0.612 1.656,1.692 0.594,1.062 0.594,2.412 z m -1.692,-0.342 q 0,-0.936 -0.414,-1.602 -0.414,-0.684 -1.134,-1.026 -0.702,-0.36 -1.566,-0.36 -1.242,0 -2.124,0.792 -0.864,0.792 -0.99,2.196 z"
       id="path1906" />
    <path
       d="m 531.76801,431.57001 -3.87,-4.356 v 4.356 h -1.638 v -13.32 h 1.638 v 7.83 l 3.798,-4.374 h 2.286 l -4.644,4.914 4.662,4.95 z"
       id="path1908" />
    <path
       d="m 539.832,431.73201 q -1.386,0 -2.52,-0.63 -1.116,-0.63 -1.764,-1.782 -0.63,-1.17 -0.63,-2.7 0,-1.512 0.648,-2.664 0.666,-1.17 1.8,-1.782 1.134,-0.63 2.538,-0.63 1.404,0 2.538,0.63 1.134,0.612 1.782,1.764 0.666,1.152 0.666,2.682 0,1.53 -0.684,2.7 -0.666,1.152 -1.818,1.782 -1.152,0.63 -2.556,0.63 z m 0,-1.44 q 0.882,0 1.656,-0.414 0.774,-0.414 1.242,-1.242 0.486,-0.828 0.486,-2.016 0,-1.188 -0.468,-2.016 -0.468,-0.828 -1.224,-1.224 -0.756,-0.414 -1.638,-0.414 -0.9,0 -1.656,0.414 -0.738,0.396 -1.188,1.224 -0.45,0.828 -0.45,2.016 0,1.206 0.432,2.034 0.45,0.828 1.188,1.242 0.738,0.396 1.62,0.396 z"
       id="path1910" />
  </g>
  <g
     aria-label="cn=Wilber"
     id="text1759"
     style="font-weight:500;font-size:18px;line-height:125%;font-family:Poppins;-inkscape-font-specification:'Poppins Medium';letter-spacing:0;word-spacing:0">
    <path
       d="m 253.464,427.03999 q 0,-1.53 0.612,-2.664 0.612,-1.152 1.692,-1.782 1.098,-0.63 2.502,-0.63 1.818,0 2.988,0.882 1.188,0.882 1.566,2.448 h -1.764 q -0.252,-0.9 -0.99,-1.422 -0.72,-0.522 -1.8,-0.522 -1.404,0 -2.268,0.972 -0.864,0.954 -0.864,2.718 0,1.782 0.864,2.754 0.864,0.972 2.268,0.972 1.08,0 1.8,-0.504 0.72,-0.504 0.99,-1.44 h 1.764 q -0.396,1.512 -1.584,2.43 -1.188,0.9 -2.97,0.9 -1.404,0 -2.502,-0.63 -1.08,-0.63 -1.692,-1.782 -0.612,-1.152 -0.612,-2.7 z"
       id="path1877" />
    <path
       d="m 269.80801,421.94599 q 1.8,0 2.916,1.098 1.116,1.08 1.116,3.132 v 5.814 h -1.62 v -5.58 q 0,-1.476 -0.738,-2.25 -0.738,-0.792 -2.016,-0.792 -1.296,0 -2.07,0.81 -0.756,0.81 -0.756,2.358 v 5.454 h -1.638 v -9.864 h 1.638 v 1.404 q 0.486,-0.756 1.314,-1.17 0.846,-0.414 1.854,-0.414 z"
       id="path1879" />
    <path
       d="m 286.314,422.77399 v 1.386 h -9.36 v -1.386 z m 0,3.87 v 1.386 h -9.36 v -1.386 z"
       id="path1881" />
    <path
       d="m 305.30399,419.44399 -3.636,12.546 h -1.836 l -2.916,-10.098 -3.024,10.098 -1.818,0.018 -3.51,-12.564 h 1.746 l 2.736,10.638 3.024,-10.638 h 1.836 l 2.88,10.602 2.754,-10.602 z"
       id="path1883" />
    <path
       d="m 307.94999,420.52399 q -0.468,0 -0.792,-0.324 -0.324,-0.324 -0.324,-0.792 0,-0.468 0.324,-0.792 0.324,-0.324 0.792,-0.324 0.45,0 0.756,0.324 0.324,0.324 0.324,0.792 0,0.468 -0.324,0.792 -0.306,0.324 -0.756,0.324 z m 0.792,1.602 v 9.864 h -1.638 v -9.864 z"
       id="path1885" />
    <path
       d="m 313.16999,418.66999 v 13.32 h -1.638 v -13.32 z"
       id="path1887" />
    <path
       d="m 317.598,423.96199 q 0.504,-0.882 1.476,-1.44 0.972,-0.558 2.214,-0.558 1.332,0 2.394,0.63 1.062,0.63 1.674,1.782 0.612,1.134 0.612,2.646 0,1.494 -0.612,2.664 -0.612,1.17 -1.692,1.818 -1.062,0.648 -2.376,0.648 -1.278,0 -2.25,-0.558 -0.954,-0.558 -1.44,-1.422 v 1.818 h -1.638 v -13.32 h 1.638 z m 6.696,3.06 q 0,-1.116 -0.45,-1.944 -0.45,-0.828 -1.224,-1.26 -0.756,-0.432 -1.674,-0.432 -0.9,0 -1.674,0.45 -0.756,0.432 -1.224,1.278 -0.45,0.828 -0.45,1.926 0,1.116 0.45,1.962 0.468,0.828 1.224,1.278 0.774,0.432 1.674,0.432 0.918,0 1.674,-0.432 0.774,-0.45 1.224,-1.278 0.45,-0.846 0.45,-1.98 z"
       id="path1889" />
    <path
       d="m 337.128,426.67999 q 0,0.468 -0.054,0.99 h -7.884 q 0.09,1.458 0.99,2.286 0.918,0.81 2.214,0.81 1.062,0 1.764,-0.486 0.72,-0.504 1.008,-1.332 h 1.764 q -0.396,1.422 -1.584,2.322 -1.188,0.882 -2.952,0.882 -1.404,0 -2.52,-0.63 -1.098,-0.63 -1.728,-1.782 -0.63,-1.17 -0.63,-2.7 0,-1.53 0.612,-2.682 0.612,-1.152 1.71,-1.764 1.116,-0.63 2.556,-0.63 1.404,0 2.484,0.612 1.08,0.612 1.656,1.692 0.594,1.062 0.594,2.412 z m -1.692,-0.342 q 0,-0.936 -0.414,-1.602 -0.414,-0.684 -1.134,-1.026 -0.702,-0.36 -1.566,-0.36 -1.242,0 -2.124,0.792 -0.864,0.792 -0.99,2.196 z"
       id="path1891" />
    <path
       d="m 340.92602,423.72799 q 0.432,-0.846 1.224,-1.314 0.81,-0.468 1.962,-0.468 v 1.692 h -0.432 q -2.754,0 -2.754,2.988 v 5.364 h -1.638 v -9.864 h 1.638 z"
       id="path1893" />
  </g>
  <g
     aria-label="cn=Tux"
     id="text1763"
     style="font-weight:500;font-size:18px;line-height:125%;font-family:Poppins;-inkscape-font-specification:'Poppins Medium';letter-spacing:0;word-spacing:0">
    <path
       d="m 66.973997,425.90999 q 0,-1.53 0.612,-2.664 0.612,-1.152 1.692,-1.782 1.098,-0.63 2.502,-0.63 1.818,0 2.988,0.882 1.188,0.882 1.566,2.448 h -1.764 q -0.252,-0.9 -0.99,-1.422 -0.72,-0.522 -1.8,-0.522 -1.404,0 -2.268,0.972 -0.864,0.954 -0.864,2.718 0,1.782 0.864,2.754 0.864,0.972 2.268,0.972 1.08,0 1.8,-0.504 0.72,-0.504 0.99,-1.44 h 1.764 q -0.396,1.512 -1.584,2.43 -1.188,0.9 -2.97,0.9 -1.404,0 -2.502,-0.63 -1.08,-0.63 -1.692,-1.782 -0.612,-1.152 -0.612,-2.7 z"
       id="path1864" />
    <path
       d="m 83.318003,420.81599 q 1.8,0 2.916,1.098 1.116,1.08 1.116,3.132 v 5.814 h -1.62 v -5.58 q 0,-1.476 -0.738,-2.25 -0.738,-0.792 -2.016,-0.792 -1.296,0 -2.07,0.81 -0.756,0.81 -0.756,2.358 v 5.454 h -1.638 v -9.864 h 1.638 v 1.404 q 0.486,-0.756 1.314,-1.17 0.846,-0.414 1.854,-0.414 z"
       id="path1866" />
    <path
       d="m 99.823992,421.64399 v 1.386 h -9.36 v -1.386 z m 0,3.87 v 1.386 h -9.36 v -1.386 z"
       id="path1868" />
    <path
       d="m 110.76798,418.31399 v 1.332 h -3.42 v 11.214 h -1.638 v -11.214 h -3.438 v -1.332 z"
       id="path1870" />
    <path
       d="m 121.53199,420.99599 v 9.864 h -1.638 v -1.458 q -0.468,0.756 -1.314,1.188 -0.828,0.414 -1.836,0.414 -1.152,0 -2.07,-0.468 -0.918,-0.486 -1.458,-1.44 -0.522,-0.954 -0.522,-2.322 v -5.778 h 1.62 v 5.562 q 0,1.458 0.738,2.25 0.738,0.774 2.016,0.774 1.314,0 2.07,-0.81 0.756,-0.81 0.756,-2.358 v -5.418 z"
       id="path1872" />
    <path
       d="m 129.45198,430.85999 -2.34,-3.672 -2.25,3.672 h -1.71 l 3.186,-4.896 -3.186,-4.968 h 1.854 l 2.34,3.654 2.232,-3.654 h 1.71 l -3.168,4.878 3.186,4.986 z"
       id="path1874" />
  </g>
</svg>
