<?xml version="1.0" encoding="UTF-8" standalone="no"?>
<svg
   xmlns:dc="http://purl.org/dc/elements/1.1/"
   xmlns:cc="http://creativecommons.org/ns#"
   xmlns:rdf="http://www.w3.org/1999/02/22-rdf-syntax-ns#"
   xmlns:svg="http://www.w3.org/2000/svg"
   xmlns="http://www.w3.org/2000/svg"
   xmlns:sodipodi="http://sodipodi.sourceforge.net/DTD/sodipodi-0.dtd"
   xmlns:inkscape="http://www.inkscape.org/namespaces/inkscape"
   version="1.1"
   id="svg3472"
   height="480"
   width="800"
   sodipodi:docname="ldap_tree.svg"
   inkscape:version="0.92.4 (5da689c313, 2019-01-14)">
  <sodipodi:namedview
     pagecolor="#ffffff"
     bordercolor="#666666"
     borderopacity="1"
     objecttolerance="10"
     gridtolerance="10"
     guidetolerance="10"
     inkscape:pageopacity="0"
     inkscape:pageshadow="2"
     inkscape:window-width="1920"
     inkscape:window-height="1027"
     id="namedview33"
     showgrid="false"
     inkscape:zoom="1.0146982"
     inkscape:cx="400"
     inkscape:cy="240"
     inkscape:window-x="-8"
     inkscape:window-y="-8"
     inkscape:window-maximized="1"
     inkscape:current-layer="svg3472" />
  <defs
     id="defs3474" />
  <metadata
     id="metadata3477">
    <rdf:RDF>
      <cc:Work
         rdf:about="">
        <dc:format>image/svg+xml</dc:format>
        <dc:type
           rdf:resource="http://purl.org/dc/dcmitype/StillImage" />
        <dc:title />
      </cc:Work>
    </rdf:RDF>
  </metadata>
  <g
     transform="translate(0,-572.36218)"
     id="layer1">
    <path
       id="path5489"
       d="m 200,847.02283 v 58 H 100 v 57"
       style="fill:none;stroke:#5f5f5f;stroke-width:4;stroke-linecap:butt;stroke-linejoin:miter;stroke-miterlimit:4;stroke-dasharray:none;stroke-opacity:1"
       inkscape:connector-curvature="0" />
    <path
       id="path5489-7"
       d="m 200.00437,847.02141 v 58.00009 h 99.99123 v 57.00009"
       style="fill:none;stroke:#5f5f5f;stroke-width:3.99982786;stroke-linecap:butt;stroke-linejoin:miter;stroke-miterlimit:4;stroke-dasharray:none;stroke-opacity:1"
       inkscape:connector-curvature="0" />
    <path
       id="path5489-8"
       d="m 601.38897,847.27537 v 58 h -100 v 57"
       style="fill:none;stroke:#5f5f5f;stroke-width:4;stroke-linecap:butt;stroke-linejoin:miter;stroke-miterlimit:4;stroke-dasharray:none;stroke-opacity:1"
       inkscape:connector-curvature="0" />
    <path
       id="path5489-7-4"
       d="m 601.39334,847.27395 v 58.00009 h 99.99123 v 57.00009"
       style="fill:none;stroke:#5f5f5f;stroke-width:3.99982786;stroke-linecap:butt;stroke-linejoin:miter;stroke-miterlimit:4;stroke-dasharray:none;stroke-opacity:1"
       inkscape:connector-curvature="0" />
    <path
       id="path5469"
       d="m 400,662.02283 v 58 H 200 v 62"
       style="fill:none;stroke:#5f5f5f;stroke-width:4;stroke-linecap:butt;stroke-linejoin:miter;stroke-miterlimit:4;stroke-dasharray:none;stroke-opacity:1"
       inkscape:connector-curvature="0" />
    <path
       id="path5469-3"
       d="m 399.99528,662.02259 v 58.00026 h 199.94696 v 62.00028"
       style="fill:none;stroke:#5f5f5f;stroke-width:3.9994781;stroke-linecap:butt;stroke-linejoin:miter;stroke-miterlimit:4;stroke-dasharray:none;stroke-opacity:1"
       inkscape:connector-curvature="0" />
    <rect
       ry="10"
       rx="10"
       y="582.02277"
       x="280"
       height="90"
       width="240"
       id="rect3896"
       style="fill:#a0ff5f;fill-opacity:1;fill-rule:nonzero;stroke:none" />
    <g
       aria-label="dc=example, dc=com"
       style="font-style:normal;font-variant:normal;font-weight:normal;font-stretch:normal;font-size:22px;line-height:125%;font-family:'Open Sans';-inkscape-font-specification:'Open Sans';letter-spacing:0px;word-spacing:0px;fill:#000000;fill-opacity:1;stroke:none"
       id="text3900">
      <path
         d="m 301.95605,631.15851 h -0.0967 q -1.23535,1.79394 -3.69531,1.79394 -2.30957,0 -3.59863,-1.5791 -1.27832,-1.5791 -1.27832,-4.49023 0,-2.91114 1.28906,-4.52246 1.28906,-1.61133 3.58789,-1.61133 2.39551,0 3.67383,1.74023 h 0.13965 l -0.0752,-0.84863 -0.043,-0.82715 v -4.79101 h 1.78321 v 16.71484 h -1.4502 z m -3.5664,0.30078 q 1.82617,0 2.64258,-0.98828 0.82714,-0.99903 0.82714,-3.21192 v -0.37597 q 0,-2.50293 -0.83789,-3.56641 -0.82714,-1.07422 -2.65332,-1.07422 -1.56836,0 -2.40625,1.22461 -0.82714,1.21387 -0.82714,3.4375 0,2.25586 0.82714,3.40528 0.82715,1.14941 2.42774,1.14941 z"
         id="path843"
         inkscape:connector-curvature="0" />
      <path
         d="m 312.13965,632.95245 q -2.55664,0 -3.96387,-1.56836 -1.39648,-1.5791 -1.39648,-4.458 0,-2.95411 1.41797,-4.56543 1.42871,-1.61133 4.06054,-1.61133 0.84864,0 1.69727,0.18262 0.84863,0.18261 1.33203,0.42968 l -0.54785,1.51465 q -0.59082,-0.23633 -1.28906,-0.38672 -0.69825,-0.16113 -1.23536,-0.16113 -3.58789,0 -3.58789,4.57617 0,2.16992 0.87012,3.33008 0.88086,1.16016 2.59961,1.16016 1.47168,0 3.01855,-0.63379 v 1.5791 q -1.18164,0.6123 -2.97558,0.6123 z"
         id="path845"
         inkscape:connector-curvature="0" />
      <path
         d="m 317.30664,623.52081 v -1.47168 h 9.99023 v 1.47168 z m 0,4.39356 v -1.47168 h 9.99023 v 1.47168 z"
         id="path847"
         inkscape:connector-curvature="0" />
      <path
         d="m 335.48242,632.95245 q -2.61035,0 -4.125,-1.58984 -1.5039,-1.58984 -1.5039,-4.41504 0,-2.84668 1.39648,-4.52246 1.40723,-1.67578 3.77051,-1.67578 2.21289,0 3.50195,1.46094 1.28906,1.45019 1.28906,3.83496 v 1.12793 h -8.11035 q 0.0537,2.07324 1.04199,3.14746 0.99903,1.07422 2.80371,1.07422 1.90137,0 3.75977,-0.79493 v 1.58985 q -0.94531,0.4082 -1.79394,0.58008 -0.8379,0.18261 -2.03028,0.18261 z m -0.4834,-10.70996 q -1.41797,0 -2.2666,0.92383 -0.83789,0.92383 -0.98828,2.55664 h 6.15527 q 0,-1.68652 -0.75195,-2.57812 -0.75195,-0.90235 -2.14844,-0.90235 z"
         id="path849"
         inkscape:connector-curvature="0" />
      <path
         d="m 345.67676,626.71124 -4.09278,-5.74707 h 2.03028 l 3.10449,4.51172 3.09375,-4.51172 h 2.00879 l -4.09277,5.74707 4.30761,6.02637 h -2.01953 l -3.29785,-4.76953 -3.33008,4.76953 h -2.01953 z"
         id="path851"
         inkscape:connector-curvature="0" />
      <path
         d="m 361.59668,632.73761 -0.35449,-1.67578 h -0.0859 q -0.88086,1.10644 -1.76172,1.5039 -0.87012,0.38672 -2.18066,0.38672 -1.75098,0 -2.75,-0.90234 -0.98828,-0.90234 -0.98828,-2.56738 0,-3.56641 5.7041,-3.73828 l 1.99804,-0.0645 v -0.73047 q 0,-1.38574 -0.60156,-2.04101 -0.59082,-0.66602 -1.90137,-0.66602 -1.47168,0 -3.33007,0.90235 l -0.54786,-1.36426 q 0.87012,-0.47266 1.90137,-0.74121 1.04199,-0.26856 2.08399,-0.26856 2.10547,0 3.11523,0.93457 1.02051,0.93457 1.02051,2.99707 v 8.03516 z m -4.02832,-1.25684 q 1.66504,0 2.61035,-0.91308 0.95606,-0.91309 0.95606,-2.55664 v -1.06348 l -1.78321,0.0752 q -2.12695,0.0752 -3.07226,0.66601 -0.93457,0.58008 -0.93457,1.81543 0,0.9668 0.58007,1.47168 0.59082,0.50488 1.64356,0.50488 z"
         id="path853"
         inkscape:connector-curvature="0" />
      <path
         d="m 381.60937,632.73761 v -7.65918 q 0,-1.40723 -0.60156,-2.10547 -0.60156,-0.70898 -1.86914,-0.70898 -1.66504,0 -2.45996,0.95605 -0.79492,0.95606 -0.79492,2.94336 v 6.57422 h -1.7832 v -7.65918 q 0,-1.40723 -0.60157,-2.10547 -0.60156,-0.70898 -1.87988,-0.70898 -1.67578,0 -2.45996,1.00976 -0.77344,0.99903 -0.77344,3.28711 v 6.17676 h -1.7832 v -11.77344 h 1.45019 l 0.29004,1.61133 h 0.0859 q 0.50488,-0.85937 1.41797,-1.34277 0.92383,-0.4834 2.0625,-0.4834 2.76074,0 3.60937,1.99805 h 0.0859 q 0.52637,-0.92383 1.52539,-1.46094 0.99903,-0.53711 2.27735,-0.53711 1.99804,0 2.98632,1.03125 0.99903,1.02051 0.99903,3.27637 v 7.68066 z"
         id="path855"
         inkscape:connector-curvature="0" />
      <path
         d="m 392.53418,632.95245 q -1.14941,0 -2.10547,-0.41894 -0.94531,-0.42969 -1.58984,-1.31055 h -0.12891 q 0.12891,1.03125 0.12891,1.95508 v 4.84473 h -1.78321 v -17.0586 h 1.4502 l 0.24707,1.61133 h 0.0859 q 0.6875,-0.9668 1.60058,-1.39648 0.91309,-0.42969 2.09473,-0.42969 2.3418,0 3.60937,1.60058 1.27832,1.60059 1.27832,4.49024 0,2.90039 -1.2998,4.51172 -1.28906,1.60058 -3.58789,1.60058 z m -0.25781,-10.68847 q -1.80469,0 -2.61035,0.99902 -0.80567,0.99902 -0.82715,3.17969 v 0.39746 q 0,2.48144 0.82715,3.55566 0.82714,1.06348 2.65332,1.06348 1.52539,0 2.38476,-1.23535 0.87012,-1.23535 0.87012,-3.40528 0,-2.20214 -0.87012,-3.37304 -0.85937,-1.18164 -2.42773,-1.18164 z"
         id="path857"
         inkscape:connector-curvature="0" />
      <path
         d="m 402.33105,632.73761 h -1.7832 v -16.71484 h 1.7832 z"
         id="path859"
         inkscape:connector-curvature="0" />
      <path
         d="m 411.10742,632.95245 q -2.61035,0 -4.125,-1.58984 -1.5039,-1.58984 -1.5039,-4.41504 0,-2.84668 1.39648,-4.52246 1.40723,-1.67578 3.77051,-1.67578 2.21289,0 3.50195,1.46094 1.28906,1.45019 1.28906,3.83496 v 1.12793 h -8.11035 q 0.0537,2.07324 1.04199,3.14746 0.99903,1.07422 2.80371,1.07422 1.90137,0 3.75977,-0.79493 v 1.58985 q -0.94531,0.4082 -1.79394,0.58008 -0.8379,0.18261 -2.03028,0.18261 z m -0.4834,-10.70996 q -1.41797,0 -2.2666,0.92383 -0.83789,0.92383 -0.98828,2.55664 h 6.15527 q 0,-1.68652 -0.75195,-2.57812 -0.75195,-0.90235 -2.14844,-0.90235 z"
         id="path861"
         inkscape:connector-curvature="0" />
      <path
         d="m 420.33496,630.18097 0.16113,0.24707 q -0.27929,1.07422 -0.80566,2.49219 -0.52637,1.42871 -1.0957,2.65332 h -1.34278 q 0.29004,-1.11719 0.63379,-2.76074 0.35449,-1.64356 0.49414,-2.63184 z"
         id="path863"
         inkscape:connector-curvature="0" />
      <path
         d="m 437.6084,631.15851 h -0.0967 q -1.23535,1.79394 -3.69531,1.79394 -2.30957,0 -3.59864,-1.5791 -1.27832,-1.5791 -1.27832,-4.49023 0,-2.91114 1.28907,-4.52246 1.28906,-1.61133 3.58789,-1.61133 2.3955,0 3.67382,1.74023 h 0.13965 l -0.0752,-0.84863 -0.043,-0.82715 v -4.79101 h 1.7832 v 16.71484 h -1.45019 z m -3.56641,0.30078 q 1.82617,0 2.64258,-0.98828 0.82715,-0.99903 0.82715,-3.21192 v -0.37597 q 0,-2.50293 -0.83789,-3.56641 -0.82715,-1.07422 -2.65332,-1.07422 -1.56836,0 -2.40625,1.22461 -0.82715,1.21387 -0.82715,3.4375 0,2.25586 0.82715,3.40528 0.82715,1.14941 2.42773,1.14941 z"
         id="path865"
         inkscape:connector-curvature="0" />
      <path
         d="m 447.79199,632.95245 q -2.55664,0 -3.96387,-1.56836 -1.39648,-1.5791 -1.39648,-4.458 0,-2.95411 1.41797,-4.56543 1.42871,-1.61133 4.06055,-1.61133 0.84863,0 1.69726,0.18262 0.84863,0.18261 1.33203,0.42968 l -0.54785,1.51465 q -0.59082,-0.23633 -1.28906,-0.38672 -0.69824,-0.16113 -1.23535,-0.16113 -3.58789,0 -3.58789,4.57617 0,2.16992 0.87011,3.33008 0.88086,1.16016 2.59961,1.16016 1.47168,0 3.01856,-0.63379 v 1.5791 q -1.18164,0.6123 -2.97559,0.6123 z"
         id="path867"
         inkscape:connector-curvature="0" />
      <path
         d="m 452.95898,623.52081 v -1.47168 h 9.99024 v 1.47168 z m 0,4.39356 v -1.47168 h 9.99024 v 1.47168 z"
         id="path869"
         inkscape:connector-curvature="0" />
      <path
         d="m 470.86621,632.95245 q -2.55664,0 -3.96387,-1.56836 -1.39648,-1.5791 -1.39648,-4.458 0,-2.95411 1.41797,-4.56543 1.42871,-1.61133 4.06054,-1.61133 0.84864,0 1.69727,0.18262 0.84863,0.18261 1.33203,0.42968 l -0.54785,1.51465 q -0.59082,-0.23633 -1.28906,-0.38672 -0.69824,-0.16113 -1.23535,-0.16113 -3.58789,0 -3.58789,4.57617 0,2.16992 0.87011,3.33008 0.88086,1.16016 2.59961,1.16016 1.47168,0 3.01856,-0.63379 v 1.5791 q -1.18164,0.6123 -2.97559,0.6123 z"
         id="path871"
         inkscape:connector-curvature="0" />
      <path
         d="m 486.80762,626.84015 q 0,2.87891 -1.4502,4.50098 -1.45019,1.61132 -4.00683,1.61132 -1.57911,0 -2.80372,-0.74121 -1.2246,-0.74121 -1.89062,-2.12695 -0.66602,-1.38574 -0.66602,-3.24414 0,-2.87891 1.43946,-4.47949 1.43945,-1.61133 3.99609,-1.61133 2.4707,0 3.9209,1.64355 1.46094,1.64356 1.46094,4.44727 z m -8.96973,0 q 0,2.25586 0.90234,3.4375 0.90235,1.18164 2.65332,1.18164 1.75098,0 2.65332,-1.1709 0.91309,-1.18164 0.91309,-3.44824 0,-2.24512 -0.91309,-3.40527 -0.90234,-1.1709 -2.6748,-1.1709 -1.75098,0 -2.64258,1.14941 -0.8916,1.14942 -0.8916,3.42676 z"
         id="path873"
         inkscape:connector-curvature="0" />
      <path
         d="m 504.92969,632.73761 v -7.65918 q 0,-1.40723 -0.60157,-2.10547 -0.60156,-0.70898 -1.86914,-0.70898 -1.66503,0 -2.45996,0.95605 -0.79492,0.95606 -0.79492,2.94336 v 6.57422 h -1.7832 v -7.65918 q 0,-1.40723 -0.60156,-2.10547 -0.60157,-0.70898 -1.87989,-0.70898 -1.67578,0 -2.45996,1.00976 -0.77344,0.99903 -0.77344,3.28711 v 6.17676 h -1.7832 v -11.77344 h 1.4502 l 0.29004,1.61133 h 0.0859 q 0.50489,-0.85937 1.41797,-1.34277 0.92383,-0.4834 2.0625,-0.4834 2.76074,0 3.60938,1.99805 h 0.0859 q 0.52637,-0.92383 1.5254,-1.46094 0.99902,-0.53711 2.27734,-0.53711 1.99805,0 2.98633,1.03125 0.99902,1.02051 0.99902,3.27637 v 7.68066 z"
         id="path875"
         inkscape:connector-curvature="0" />
    </g>
    <rect
       ry="10"
       rx="10"
       y="767.02277"
       x="80"
       height="90"
       width="240"
       id="rect3896-9"
       style="fill:#02d35f;fill-opacity:1;fill-rule:nonzero;stroke:none" />
    <g
       aria-label="ou=devel"
       style="font-style:normal;font-variant:normal;font-weight:normal;font-stretch:normal;font-size:22px;line-height:125%;font-family:'Open Sans';-inkscape-font-specification:'Open Sans';letter-spacing:0px;word-spacing:0px;fill:#000000;fill-opacity:1;stroke:none"
       id="text3900-8">
      <path
         d="m 165.31885,815.4361 q 0,2.8789 -1.4502,4.50097 -1.45019,1.61133 -4.00683,1.61133 -1.57911,0 -2.80371,-0.74121 -1.22461,-0.74121 -1.89063,-2.12695 -0.66602,-1.38575 -0.66602,-3.24414 0,-2.87891 1.43946,-4.4795 1.43945,-1.61132 3.99609,-1.61132 2.4707,0 3.9209,1.64355 1.46094,1.64356 1.46094,4.44727 z m -8.96973,0 q 0,2.25586 0.90234,3.4375 0.90235,1.18164 2.65333,1.18164 1.75097,0 2.65332,-1.1709 0.91308,-1.18164 0.91308,-3.44824 0,-2.24512 -0.91308,-3.40528 -0.90235,-1.1709 -2.67481,-1.1709 -1.75098,0 -2.64258,1.14942 -0.8916,1.14941 -0.8916,3.42676 z"
         id="path878"
         inkscape:connector-curvature="0" />
      <path
         d="m 170.10986,809.56012 v 7.63769 q 0,1.43946 0.65528,2.14844 0.65527,0.70899 2.05175,0.70899 1.84766,0 2.69629,-1.00977 0.85938,-1.00976 0.85938,-3.29785 v -6.1875 h 1.7832 v 11.77344 h -1.47168 l -0.25781,-1.5791 h -0.0967 q -0.54785,0.87011 -1.52539,1.33203 -0.9668,0.46191 -2.21289,0.46191 -2.14844,0 -3.22266,-1.02051 -1.06347,-1.0205 -1.06347,-3.26562 v -7.70215 z"
         id="path880"
         inkscape:connector-curvature="0" />
      <path
         d="m 181.31396,812.11676 v -1.47168 h 9.99024 v 1.47168 z m 0,4.39355 v -1.47167 h 9.99024 v 1.47167 z"
         id="path882"
         inkscape:connector-curvature="0" />
      <path
         d="m 202.52979,819.75446 h -0.0967 q -1.23536,1.79394 -3.69532,1.79394 -2.30957,0 -3.59863,-1.5791 -1.27832,-1.5791 -1.27832,-4.49024 0,-2.91113 1.28906,-4.52246 1.28906,-1.61132 3.58789,-1.61132 2.39551,0 3.67383,1.74023 h 0.13965 l -0.0752,-0.84863 -0.043,-0.82715 v -4.79102 h 1.7832 v 16.71485 h -1.4502 z m -3.56641,0.30078 q 1.82617,0 2.64258,-0.98828 0.82715,-0.99903 0.82715,-3.21192 v -0.37598 q 0,-2.50292 -0.8379,-3.5664 -0.82714,-1.07422 -2.65332,-1.07422 -1.56835,0 -2.40625,1.22461 -0.82714,1.21387 -0.82714,3.4375 0,2.25586 0.82714,3.40527 0.82715,1.14942 2.42774,1.14942 z"
         id="path884"
         inkscape:connector-curvature="0" />
      <path
         d="m 212.98193,821.5484 q -2.61035,0 -4.125,-1.58984 -1.5039,-1.58985 -1.5039,-4.41504 0,-2.84668 1.39648,-4.52246 1.40723,-1.67578 3.77051,-1.67578 2.21289,0 3.50195,1.46093 1.28907,1.4502 1.28907,3.83496 v 1.12793 h -8.11036 q 0.0537,2.07325 1.042,3.14746 0.99902,1.07422 2.80371,1.07422 1.90136,0 3.75976,-0.79492 v 1.58985 q -0.94531,0.4082 -1.79394,0.58007 -0.83789,0.18262 -2.03028,0.18262 z m -0.48339,-10.70996 q -1.41797,0 -2.26661,0.92383 -0.83789,0.92383 -0.98828,2.55664 h 6.15528 q 0,-1.68652 -0.75196,-2.57813 -0.75195,-0.90234 -2.14843,-0.90234 z"
         id="path886"
         inkscape:connector-curvature="0" />
      <path
         d="m 222.91846,821.33356 -4.46875,-11.77344 h 1.91211 l 2.53515,6.98242 q 0.85938,2.44922 1.00977,3.17969 h 0.0859 q 0.11816,-0.56934 0.74121,-2.35254 0.63379,-1.79395 2.82519,-7.80957 h 1.91211 l -4.46875,11.77344 z"
         id="path888"
         inkscape:connector-curvature="0" />
      <path
         d="m 236.35693,821.5484 q -2.61035,0 -4.125,-1.58984 -1.5039,-1.58985 -1.5039,-4.41504 0,-2.84668 1.39648,-4.52246 1.40723,-1.67578 3.77051,-1.67578 2.21289,0 3.50195,1.46093 1.28907,1.4502 1.28907,3.83496 v 1.12793 h -8.11036 q 0.0537,2.07325 1.042,3.14746 0.99902,1.07422 2.80371,1.07422 1.90136,0 3.75976,-0.79492 v 1.58985 q -0.94531,0.4082 -1.79394,0.58007 -0.83789,0.18262 -2.03028,0.18262 z m -0.48339,-10.70996 q -1.41797,0 -2.26661,0.92383 -0.83789,0.92383 -0.98828,2.55664 h 6.15528 q 0,-1.68652 -0.75196,-2.57813 -0.75195,-0.90234 -2.14843,-0.90234 z"
         id="path890"
         inkscape:connector-curvature="0" />
      <path
         d="m 245.49854,821.33356 h -1.78321 v -16.71485 h 1.78321 z"
         id="path892"
         inkscape:connector-curvature="0" />
    </g>
    <rect
       ry="10"
       rx="10"
       y="767.02277"
       x="480"
       height="90"
       width="240"
       id="rect3896-3"
       style="fill:#02d35f;fill-opacity:1;fill-rule:nonzero;stroke:none" />
    <g
       aria-label="ou=doc"
       style="font-style:normal;font-variant:normal;font-weight:normal;font-stretch:normal;font-size:22px;line-height:125%;font-family:'Open Sans';-inkscape-font-specification:'Open Sans';letter-spacing:0px;word-spacing:0px;fill:#000000;fill-opacity:1;stroke:none"
       id="text3900-2">
      <path
         d="m 573.49902,815.32538 q 0,2.8789 -1.45019,4.50097 -1.4502,1.61133 -4.00684,1.61133 -1.5791,0 -2.80371,-0.74121 -1.22461,-0.74121 -1.89062,-2.12695 -0.66602,-1.38574 -0.66602,-3.24414 0,-2.87891 1.43945,-4.47949 1.43946,-1.61133 3.9961,-1.61133 2.4707,0 3.9209,1.64355 1.46093,1.64356 1.46093,4.44727 z m -8.96972,0 q 0,2.25586 0.90234,3.4375 0.90234,1.18164 2.65332,1.18164 1.75098,0 2.65332,-1.1709 0.91309,-1.18164 0.91309,-3.44824 0,-2.24512 -0.91309,-3.40528 -0.90234,-1.17089 -2.6748,-1.17089 -1.75098,0 -2.64258,1.14941 -0.8916,1.14941 -0.8916,3.42676 z"
         id="path895"
         inkscape:connector-curvature="0" />
      <path
         d="m 578.29004,809.4494 v 7.6377 q 0,1.43945 0.65527,2.14843 0.65528,0.70899 2.05176,0.70899 1.84766,0 2.69629,-1.00977 0.85937,-1.00976 0.85937,-3.29785 v -6.1875 h 1.78321 v 11.77344 h -1.47168 l -0.25781,-1.5791 h -0.0967 q -0.54786,0.87011 -1.5254,1.33203 -0.96679,0.46191 -2.21289,0.46191 -2.14843,0 -3.22265,-1.0205 -1.06348,-1.02051 -1.06348,-3.26563 v -7.70215 z"
         id="path897"
         inkscape:connector-curvature="0" />
      <path
         d="m 589.49414,812.00604 v -1.47168 h 9.99023 v 1.47168 z m 0,4.39356 v -1.47168 h 9.99023 v 1.47168 z"
         id="path899"
         inkscape:connector-curvature="0" />
      <path
         d="m 610.70996,819.64374 h -0.0967 q -1.23535,1.79394 -3.69531,1.79394 -2.30957,0 -3.59863,-1.5791 -1.27832,-1.5791 -1.27832,-4.49023 0,-2.91114 1.28906,-4.52246 1.28906,-1.61133 3.58789,-1.61133 2.39551,0 3.67383,1.74023 h 0.13965 l -0.0752,-0.84863 -0.043,-0.82715 V 804.508 h 1.7832 v 16.71484 h -1.45019 z m -3.56641,0.30078 q 1.82618,0 2.64258,-0.98828 0.82715,-0.99903 0.82715,-3.21192 v -0.37597 q 0,-2.50293 -0.83789,-3.56641 -0.82715,-1.07422 -2.65332,-1.07422 -1.56836,0 -2.40625,1.22461 -0.82715,1.21387 -0.82715,3.4375 0,2.25586 0.82715,3.40527 0.82715,1.14942 2.42773,1.14942 z"
         id="path901"
         inkscape:connector-curvature="0" />
      <path
         d="m 626.35059,815.32538 q 0,2.8789 -1.4502,4.50097 -1.45019,1.61133 -4.00684,1.61133 -1.5791,0 -2.80371,-0.74121 -1.22461,-0.74121 -1.89062,-2.12695 -0.66602,-1.38574 -0.66602,-3.24414 0,-2.87891 1.43946,-4.47949 1.43945,-1.61133 3.99609,-1.61133 2.4707,0 3.9209,1.64355 1.46094,1.64356 1.46094,4.44727 z m -8.96973,0 q 0,2.25586 0.90234,3.4375 0.90235,1.18164 2.65332,1.18164 1.75098,0 2.65332,-1.1709 0.91309,-1.18164 0.91309,-3.44824 0,-2.24512 -0.91309,-3.40528 -0.90234,-1.17089 -2.6748,-1.17089 -1.75098,0 -2.64258,1.14941 -0.8916,1.14941 -0.8916,3.42676 z"
         id="path903"
         inkscape:connector-curvature="0" />
      <path
         d="m 634.1709,821.43768 q -2.55664,0 -3.96387,-1.56836 -1.39648,-1.5791 -1.39648,-4.458 0,-2.95411 1.41797,-4.56543 1.42871,-1.61133 4.06054,-1.61133 0.84864,0 1.69727,0.18262 0.84863,0.18261 1.33203,0.42968 l -0.54785,1.51465 q -0.59082,-0.23633 -1.28906,-0.38672 -0.69825,-0.16113 -1.23536,-0.16113 -3.58789,0 -3.58789,4.57617 0,2.16992 0.87012,3.33008 0.88086,1.16016 2.59961,1.16016 1.47168,0 3.01855,-0.63379 v 1.5791 q -1.18164,0.6123 -2.97558,0.6123 z"
         id="path905"
         inkscape:connector-curvature="0" />
    </g>
    <rect
       ry="10"
       rx="10"
       y="952.06787"
       x="10.049383"
       height="89.960693"
       width="180.01648"
       id="rect3896-98-9"
       style="fill:#02d35f;fill-opacity:1;fill-rule:nonzero;stroke:none" />
    <rect
       ry="10"
       rx="10"
       y="952.52289"
       x="209.80583"
       height="89.960693"
       width="180.01648"
       id="rect3896-98-92"
       style="fill:#02d35f;fill-opacity:1;fill-rule:nonzero;stroke:none" />
    <rect
       ry="10"
       rx="10"
       y="952.36884"
       x="410.06595"
       height="89.960693"
       width="180.01648"
       id="rect3896-98-3"
       style="fill:#02d35f;fill-opacity:1;fill-rule:nonzero;stroke:none" />
    <rect
       ry="10"
       rx="10"
       y="952.5108"
       x="609.90094"
       height="89.960693"
       width="180.01648"
       id="rect3896-98-6"
       style="fill:#02d35f;fill-opacity:1;fill-rule:nonzero;stroke:none" />
    <g
       aria-label="cn=Octocat"
       style="font-style:normal;font-variant:normal;font-weight:normal;font-stretch:normal;font-size:22px;line-height:125%;font-family:'Open Sans';-inkscape-font-specification:'Open Sans';letter-spacing:0px;word-spacing:0px;fill:#000000;fill-opacity:1;stroke:none"
       id="text3999">
      <path
         d="m 648.24463,1005.5745 q -2.55664,0 -3.96387,-1.5683 -1.39648,-1.5791 -1.39648,-4.45804 0,-2.9541 1.41797,-4.56543 1.42871,-1.61133 4.06054,-1.61133 0.84864,0 1.69727,0.18262 0.84863,0.18261 1.33203,0.42968 l -0.54785,1.51465 q -0.59082,-0.23633 -1.28906,-0.38672 -0.69825,-0.16113 -1.23536,-0.16113 -3.58789,0 -3.58789,4.57617 0,2.16993 0.87012,3.33013 0.88086,1.1601 2.59961,1.1601 1.47168,0 3.01855,-0.6338 v 1.5791 q -1.18164,0.6123 -2.97558,0.6123 z"
         id="path957"
         inkscape:connector-curvature="0" />
      <path
         d="m 662.08057,1005.3597 v -7.61623 q 0,-1.43945 -0.65528,-2.14844 -0.65527,-0.70898 -2.05175,-0.70898 -1.84766,0 -2.70704,0.99902 -0.85937,0.99902 -0.85937,3.29785 v 6.17678 h -1.7832 v -11.77346 h 1.45019 l 0.29004,1.61133 h 0.0859 q 0.54785,-0.87012 1.53613,-1.34277 0.98828,-0.4834 2.20215,-0.4834 2.12695,0 3.20117,1.03125 1.07422,1.02051 1.07422,3.27637 v 7.68068 z"
         id="path959"
         inkscape:connector-curvature="0" />
      <path
         d="m 666.90381,996.14288 v -1.47168 h 9.99023 v 1.47168 z m 0,4.39352 v -1.47164 h 9.99023 v 1.47164 z"
         id="path961"
         inkscape:connector-curvature="0" />
      <path
         d="m 694.00635,997.48566 q 0,3.77054 -1.91211,5.92964 -1.90137,2.1592 -5.2959,2.1592 -3.46973,0 -5.36035,-2.1162 -1.87988,-2.1269 -1.87988,-5.99413 0,-3.83496 1.89062,-5.94043 1.89063,-2.11621 5.37109,-2.11621 3.38379,0 5.28516,2.14844 1.90137,2.14844 1.90137,5.92969 z m -12.51465,0 q 0,3.19044 1.35351,4.84474 1.36426,1.6435 3.95313,1.6435 2.61035,0 3.94238,-1.6435 1.33203,-1.6436 1.33203,-4.84474 0,-3.16895 -1.33203,-4.80176 -1.32129,-1.64356 -3.9209,-1.64356 -2.61035,0 -3.97461,1.6543 -1.35351,1.64356 -1.35351,4.79102 z"
         id="path963"
         inkscape:connector-curvature="0" />
      <path
         d="m 701.95557,1005.5745 q -2.55664,0 -3.96387,-1.5683 -1.39649,-1.5791 -1.39649,-4.45804 0,-2.9541 1.41797,-4.56543 1.42871,-1.61133 4.06055,-1.61133 0.84863,0 1.69727,0.18262 0.84863,0.18261 1.33203,0.42968 l -0.54785,1.51465 q -0.59082,-0.23633 -1.28907,-0.38672 -0.69824,-0.16113 -1.23535,-0.16113 -3.58789,0 -3.58789,4.57617 0,2.16993 0.87012,3.33013 0.88086,1.1601 2.59961,1.1601 1.47168,0 3.01855,-0.6338 v 1.5791 q -1.18164,0.6123 -2.97558,0.6123 z"
         id="path965"
         inkscape:connector-curvature="0" />
      <path
         d="m 711.5376,1004.1028 q 0.47265,0 0.91308,-0.064 0.44043,-0.075 0.69825,-0.1504 v 1.3643 q -0.29004,0.1396 -0.85938,0.2255 -0.55859,0.097 -1.00976,0.097 -3.41602,0 -3.41602,-3.5986 v -7.00392 h -1.68652 v -0.85937 l 1.68652,-0.74121 0.75195,-2.51367 h 1.03125 v 2.72851 h 3.41602 v 1.38574 h -3.41602 v 6.92872 q 0,1.0635 0.50489,1.6328 0.50488,0.5693 1.38574,0.5693 z"
         id="path967"
         inkscape:connector-curvature="0" />
      <path
         d="m 725.67432,999.46222 q 0,2.87888 -1.4502,4.50098 -1.45019,1.6113 -4.00683,1.6113 -1.57911,0 -2.80372,-0.7412 -1.22461,-0.7412 -1.89062,-2.1269 -0.66602,-1.3858 -0.66602,-3.24418 0,-2.87891 1.43946,-4.47949 1.43945,-1.61133 3.99609,-1.61133 2.4707,0 3.9209,1.64355 1.46094,1.64356 1.46094,4.44727 z m -8.96973,0 q 0,2.25588 0.90234,3.43748 0.90235,1.1817 2.65332,1.1817 1.75098,0 2.65332,-1.1709 0.91309,-1.1817 0.91309,-3.44828 0,-2.24512 -0.91309,-3.40527 -0.90234,-1.1709 -2.6748,-1.1709 -1.75098,0 -2.64258,1.14941 -0.8916,1.14942 -0.8916,3.42676 z"
         id="path969"
         inkscape:connector-curvature="0" />
      <path
         d="m 733.49463,1005.5745 q -2.55664,0 -3.96387,-1.5683 -1.39648,-1.5791 -1.39648,-4.45804 0,-2.9541 1.41797,-4.56543 1.42871,-1.61133 4.06054,-1.61133 0.84864,0 1.69727,0.18262 0.84863,0.18261 1.33203,0.42968 l -0.54785,1.51465 q -0.59082,-0.23633 -1.28906,-0.38672 -0.69825,-0.16113 -1.23536,-0.16113 -3.58789,0 -3.58789,4.57617 0,2.16993 0.87012,3.33013 0.88086,1.1601 2.59961,1.1601 1.47168,0 3.01855,-0.6338 v 1.5791 q -1.18164,0.6123 -2.97558,0.6123 z"
         id="path971"
         inkscape:connector-curvature="0" />
      <path
         d="m 746.51416,1005.3597 -0.35449,-1.6758 h -0.0859 q -0.88086,1.1064 -1.76172,1.5039 -0.87012,0.3867 -2.18066,0.3867 -1.75098,0 -2.75,-0.9023 -0.98828,-0.9024 -0.98828,-2.5674 0,-3.56641 5.7041,-3.73828 l 1.99804,-0.0645 v -0.73047 q 0,-1.38574 -0.60156,-2.04101 -0.59082,-0.66602 -1.90136,-0.66602 -1.47168,0 -3.33008,0.90235 l -0.54785,-1.36426 q 0.87011,-0.47266 1.90136,-0.74121 1.04199,-0.26856 2.08399,-0.26856 2.10547,0 3.11523,0.93457 1.02051,0.93457 1.02051,2.99707 v 8.03522 z m -4.02832,-1.2569 q 1.66504,0 2.61035,-0.913 0.95606,-0.9131 0.95606,-2.5567 v -1.06346 l -1.78321,0.0752 q -2.12695,0.0752 -3.07226,0.66606 -0.93457,0.58 -0.93457,1.8154 0,0.9668 0.58008,1.4717 0.59082,0.5048 1.64355,0.5048 z"
         id="path973"
         inkscape:connector-curvature="0" />
      <path
         d="m 755.32275,1004.1028 q 0.47266,0 0.91309,-0.064 0.44043,-0.075 0.69824,-0.1504 v 1.3643 q -0.29004,0.1396 -0.85937,0.2255 -0.5586,0.097 -1.00977,0.097 -3.41601,0 -3.41601,-3.5986 v -7.00392 h -1.68653 v -0.85937 l 1.68653,-0.74121 0.75195,-2.51367 h 1.03125 v 2.72851 h 3.41601 v 1.38574 h -3.41601 v 6.92872 q 0,1.0635 0.50488,1.6328 0.50488,0.5693 1.38574,0.5693 z"
         id="path975"
         inkscape:connector-curvature="0" />
    </g>
    <g
       aria-label="cn=Geeko"
       style="font-style:normal;font-variant:normal;font-weight:normal;font-stretch:normal;font-size:22px;line-height:125%;font-family:'Open Sans';-inkscape-font-specification:'Open Sans';letter-spacing:0px;word-spacing:0px;fill:#000000;fill-opacity:1;stroke:none"
       id="text3991">
      <path
         d="m 455.61765,1005.814 q -2.55665,0 -3.96387,-1.5684 -1.39649,-1.5791 -1.39649,-4.458 0,-2.9541 1.41797,-4.56543 1.42871,-1.61133 4.06055,-1.61133 0.84863,0 1.69726,0.18262 0.84864,0.18261 1.33204,0.42968 l -0.54786,1.51465 q -0.59082,-0.23633 -1.28906,-0.38672 -0.69824,-0.16113 -1.23535,-0.16113 -3.58789,0 -3.58789,4.57617 0,2.16989 0.87012,3.33009 0.88086,1.1601 2.59961,1.1601 1.47168,0 3.01855,-0.6337 v 1.5791 q -1.18164,0.6123 -2.97558,0.6123 z"
         id="path940"
         inkscape:connector-curvature="0" />
      <path
         d="m 469.45358,1005.5991 v -7.61619 q 0,-1.43945 -0.65527,-2.14844 -0.65527,-0.70898 -2.05176,-0.70898 -1.84765,0 -2.70703,0.99902 -0.85937,0.99903 -0.85937,3.29785 v 6.17674 h -1.78321 v -11.77342 h 1.4502 l 0.29004,1.61133 h 0.0859 q 0.54786,-0.87012 1.53614,-1.34277 0.98828,-0.4834 2.20215,-0.4834 2.12695,0 3.20117,1.03125 1.07422,1.02051 1.07422,3.27637 v 7.68064 z"
         id="path942"
         inkscape:connector-curvature="0" />
      <path
         d="m 474.27682,996.38232 v -1.47168 h 9.99024 v 1.47168 z m 0,4.39358 v -1.4717 h 9.99024 v 1.4717 z"
         id="path944"
         inkscape:connector-curvature="0" />
      <path
         d="m 494.65475,997.37061 h 5.33887 v 7.63769 q -1.24609,0.3975 -2.53515,0.6016 -1.28907,0.2041 -2.98633,0.2041 -3.56641,0 -5.55371,-2.1162 -1.98731,-2.127 -1.98731,-5.95122 0,-2.44922 0.97754,-4.28613 0.98828,-1.84766 2.83594,-2.81445 1.84765,-0.97754 4.3291,-0.97754 2.51367,0 4.68359,0.92383 l -0.70898,1.61132 q -2.12695,-0.90234 -4.09277,-0.90234 -2.86817,0 -4.4795,1.70801 -1.61132,1.70801 -1.61132,4.7373 0,3.17972 1.54687,4.82322 1.55762,1.6436 4.56543,1.6436 1.63281,0 3.19043,-0.376 v -4.83398 h -3.5127 z"
         id="path946"
         inkscape:connector-curvature="0" />
      <path
         d="m 508.47995,1005.814 q -2.61035,0 -4.125,-1.5899 -1.50391,-1.5898 -1.50391,-4.41502 0,-2.84668 1.39649,-4.52246 1.40722,-1.67578 3.77051,-1.67578 2.21289,0 3.50195,1.46094 1.28906,1.45019 1.28906,3.83496 v 1.12796 h -8.11035 q 0.0537,2.0732 1.04199,3.1474 0.99903,1.0742 2.80371,1.0742 1.90137,0 3.75977,-0.7949 v 1.5899 q -0.94531,0.4082 -1.79395,0.58 -0.83789,0.1827 -2.03027,0.1827 z m -0.4834,-10.71 q -1.41797,0 -2.2666,0.92383 -0.83789,0.92383 -0.98828,2.55664 h 6.15527 q 0,-1.68652 -0.75195,-2.57812 -0.75195,-0.90235 -2.14844,-0.90235 z"
         id="path948"
         inkscape:connector-curvature="0" />
      <path
         d="m 520.81198,1005.814 q -2.61035,0 -4.125,-1.5899 -1.50391,-1.5898 -1.50391,-4.41502 0,-2.84668 1.39649,-4.52246 1.40723,-1.67578 3.77051,-1.67578 2.21289,0 3.50195,1.46094 1.28906,1.45019 1.28906,3.83496 v 1.12796 h -8.11035 q 0.0537,2.0732 1.04199,3.1474 0.99903,1.0742 2.80371,1.0742 1.90137,0 3.75977,-0.7949 v 1.5899 q -0.94531,0.4082 -1.79395,0.58 -0.83789,0.1827 -2.03027,0.1827 z m -0.4834,-10.71 q -1.41797,0 -2.2666,0.92383 -0.83789,0.92383 -0.98828,2.55664 h 6.15527 q 0,-1.68652 -0.75195,-2.57812 -0.75195,-0.90235 -2.14844,-0.90235 z"
         id="path950"
         inkscape:connector-curvature="0" />
      <path
         d="m 529.9321,999.57275 q 0.46191,-0.65527 1.40722,-1.71875 l 3.80274,-4.02832 h 2.11621 l -4.76953,5.01661 5.10254,6.75681 h -2.15918 l -4.15723,-5.5644 -1.34277,1.1601 v 4.4043 h -1.76172 v -16.71482 h 1.76172 v 8.8623 q 0,0.59082 -0.0859,1.82617 z"
         id="path952"
         inkscape:connector-curvature="0" />
      <path
         d="m 549.89108,999.70166 q 0,2.87894 -1.45019,4.50094 -1.4502,1.6114 -4.00684,1.6114 -1.5791,0 -2.80371,-0.7412 -1.22461,-0.7413 -1.89062,-2.127 -0.66602,-1.3857 -0.66602,-3.24414 0,-2.87891 1.43945,-4.47949 1.43946,-1.61133 3.9961,-1.61133 2.4707,0 3.9209,1.64355 1.46093,1.64356 1.46093,4.44727 z m -8.96972,0 q 0,2.25584 0.90234,3.43754 0.90234,1.1816 2.65332,1.1816 1.75098,0 2.65332,-1.1709 0.91309,-1.1816 0.91309,-3.44824 0,-2.24512 -0.91309,-3.40527 -0.90234,-1.1709 -2.6748,-1.1709 -1.75098,0 -2.64258,1.14941 -0.8916,1.14942 -0.8916,3.42676 z"
         id="path954"
         inkscape:connector-curvature="0" />
    </g>
    <g
       aria-label="cn=Wilber"
       style="font-style:normal;font-variant:normal;font-weight:normal;font-stretch:normal;font-size:22px;line-height:125%;font-family:'Open Sans';-inkscape-font-specification:'Open Sans';letter-spacing:0px;word-spacing:0px;fill:#000000;fill-opacity:1;stroke:none"
       id="text3995">
      <path
         d="m 254.49278,1005.968 q -2.55664,0 -3.96386,-1.5683 -1.39649,-1.5791 -1.39649,-4.45805 0,-2.9541 1.41797,-4.56543 1.42871,-1.61133 4.06055,-1.61133 0.84863,0 1.69726,0.18262 0.84864,0.18262 1.33203,0.42969 l -0.54785,1.51465 q -0.59082,-0.23633 -1.28906,-0.38672 -0.69824,-0.16114 -1.23535,-0.16114 -3.58789,0 -3.58789,4.57618 0,2.16993 0.87011,3.33003 0.88086,1.1602 2.59961,1.1602 1.47168,0 3.01856,-0.6338 v 1.5791 q -1.18164,0.6123 -2.97559,0.6123 z"
         id="path921"
         inkscape:connector-curvature="0" />
      <path
         d="m 268.32872,1005.7532 v -7.61624 q 0,-1.43945 -0.65527,-2.14843 -0.65528,-0.70899 -2.05176,-0.70899 -1.84766,0 -2.70703,0.99902 -0.85938,0.99903 -0.85938,3.29786 v 6.17678 h -1.7832 v -11.77346 h 1.45019 l 0.29004,1.61132 h 0.0859 q 0.54785,-0.87011 1.53613,-1.34277 0.98829,-0.4834 2.20215,-0.4834 2.12696,0 3.20117,1.03125 1.07422,1.02051 1.07422,3.27637 v 7.68069 z"
         id="path923"
         inkscape:connector-curvature="0" />
      <path
         d="m 273.15196,996.53638 v -1.47168 h 9.99024 v 1.47168 z m 0,4.39352 v -1.47165 h 9.99024 v 1.47165 z"
         id="path925"
         inkscape:connector-curvature="0" />
      <path
         d="m 300.3297,1005.7532 h -1.80469 l -3.16895,-10.51663 q -0.22558,-0.69824 -0.50488,-1.76172 -0.2793,-1.06347 -0.29004,-1.27832 -0.23633,1.41797 -0.75195,3.1045 l -3.07227,10.45217 h -1.80468 l -4.17872,-15.7051 h 1.9336 l 2.48144,9.70019 q 0.51563,2.04101 0.75196,3.69531 0.29004,-1.9658 0.85937,-3.8457 l 2.81446,-9.5498 h 1.93359 l 2.9541,9.63574 q 0.51563,1.66506 0.87012,3.75976 0.2041,-1.5254 0.77344,-3.71679 l 2.4707,-9.67871 h 1.93359 z"
         id="path927"
         inkscape:connector-curvature="0" />
      <path
         d="m 308.5045,1005.7532 h -1.7832 v -11.77346 h 1.7832 z m -1.93359,-14.96389 q 0,-0.61231 0.30078,-0.8916 0.30078,-0.29004 0.75195,-0.29004 0.42969,0 0.74121,0.29004 0.31153,0.29003 0.31153,0.8916 0,0.60156 -0.31153,0.90234 -0.31152,0.29004 -0.74121,0.29004 -0.45117,0 -0.75195,-0.29004 -0.30078,-0.30078 -0.30078,-0.90234 z"
         id="path929"
         inkscape:connector-curvature="0" />
      <path
         d="m 314.09044,1005.7532 h -1.7832 v -16.71487 h 1.7832 z"
         id="path931"
         inkscape:connector-curvature="0" />
      <path
         d="m 323.37169,993.78638 q 2.32031,0 3.59863,1.58984 1.28906,1.5791 1.28906,4.47949 0,2.90039 -1.2998,4.51169 -1.28906,1.6006 -3.58789,1.6006 -1.14942,0 -2.10547,-0.4189 -0.94531,-0.4297 -1.58984,-1.3106 h -0.12891 l -0.37598,1.5147 h -1.27832 v -16.71487 h 1.78321 v 4.06055 q 0,1.36425 -0.0859,2.44922 h 0.0859 q 1.24609,-1.76172 3.69531,-1.76172 z m -0.25781,1.49316 q -1.82618,0 -2.63184,1.05274 -0.80566,1.04199 -0.80566,3.52343 0,2.48149 0.82714,3.55569 0.82715,1.0635 2.65333,1.0635 1.64355,0 2.44921,-1.1924 0.80567,-1.2032 0.80567,-3.44827 0,-2.29883 -0.80567,-3.42676 -0.80566,-1.12793 -2.49218,-1.12793 z"
         id="path933"
         inkscape:connector-curvature="0" />
      <path
         d="m 336.35899,1005.968 q -2.61035,0 -4.125,-1.5898 -1.5039,-1.5899 -1.5039,-4.41507 0,-2.84667 1.39648,-4.52246 1.40723,-1.67578 3.77051,-1.67578 2.21289,0 3.50195,1.46094 1.28907,1.4502 1.28907,3.83496 v 1.12791 h -8.11036 q 0.0537,2.0733 1.042,3.1475 0.99902,1.0742 2.80371,1.0742 1.90136,0 3.75976,-0.7949 v 1.5898 q -0.94531,0.4082 -1.79394,0.5801 -0.83789,0.1826 -2.03028,0.1826 z m -0.48339,-10.70994 q -1.41797,0 -2.26661,0.92382 -0.83789,0.92383 -0.98828,2.55665 h 6.15528 q 0,-1.68653 -0.75196,-2.57813 -0.75195,-0.90234 -2.14843,-0.90234 z"
         id="path935"
         inkscape:connector-curvature="0" />
      <path
         d="m 349.08849,993.76489 q 0.78418,0 1.40722,0.12891 l -0.24707,1.6543 q -0.73047,-0.16114 -1.28906,-0.16114 -1.42871,0 -2.44922,1.16016 -1.00976,1.16016 -1.00976,2.88965 v 6.31643 h -1.78321 v -11.77346 h 1.47168 l 0.2041,2.18066 h 0.0859 q 0.65527,-1.14941 1.5791,-1.77246 0.92383,-0.62305 2.03028,-0.62305 z"
         id="path937"
         inkscape:connector-curvature="0" />
    </g>
    <g
       aria-label="cn=Tux"
       style="font-style:normal;font-variant:normal;font-weight:normal;font-stretch:normal;font-size:22px;line-height:125%;font-family:'Open Sans';-inkscape-font-specification:'Open Sans';letter-spacing:0px;word-spacing:0px;fill:#000000;fill-opacity:1;stroke:none"
       id="text3987">
      <path
         d="m 69.383308,1005.0081 q -2.55664,0 -3.963867,-1.5683 -1.396484,-1.5791 -1.396484,-4.45805 0,-2.9541 1.417969,-4.56543 1.428711,-1.61133 4.060546,-1.61133 0.848633,0 1.697266,0.18262 0.848633,0.18262 1.332031,0.42969 l -0.547851,1.51465 q -0.590821,-0.23633 -1.289063,-0.38672 -0.698242,-0.16114 -1.235351,-0.16114 -3.587891,0 -3.587891,4.57618 0,2.16993 0.870117,3.33003 0.88086,1.1602 2.59961,1.1602 1.471679,0 3.018554,-0.6338 v 1.5791 q -1.18164,0.6123 -2.975586,0.6123 z"
         id="path908"
         inkscape:connector-curvature="0" />
      <path
         d="m 83.219246,1004.7933 v -7.61624 q 0,-1.43945 -0.655274,-2.14843 -0.655273,-0.70899 -2.051757,-0.70899 -1.847657,0 -2.707032,0.99902 -0.859375,0.99903 -0.859375,3.29786 v 6.17678 h -1.783203 v -11.77346 h 1.450196 l 0.290039,1.61132 h 0.08594 q 0.547852,-0.87011 1.536133,-1.34277 0.988281,-0.4834 2.202148,-0.4834 2.126954,0 3.201172,1.03125 1.074219,1.02051 1.074219,3.27637 v 7.68069 z"
         id="path910"
         inkscape:connector-curvature="0" />
      <path
         d="m 88.042488,995.57648 v -1.47168 h 9.990234 v 1.47168 z m 0,4.39355 v -1.47168 h 9.990234 v 1.47168 z"
         id="path912"
         inkscape:connector-curvature="0" />
      <path
         d="M 106.34718,1004.7933 H 104.521 v -14.08303 h -4.973629 v -1.62207 h 11.773439 v 1.62207 h -4.97363 z"
         id="path914"
         inkscape:connector-curvature="0" />
      <path
         d="m 115.08057,993.01984 v 7.63766 q 0,1.4395 0.65528,2.1485 0.65527,0.709 2.05176,0.709 1.84765,0 2.69628,-1.0098 0.85938,-1.0098 0.85938,-3.29786 v -6.1875 h 1.7832 v 11.77346 h -1.47168 l -0.25781,-1.5791 h -0.0967 q -0.54785,0.8701 -1.52539,1.332 -0.9668,0.4619 -2.21289,0.4619 -2.14844,0 -3.22266,-1.0205 -1.06347,-1.0205 -1.06347,-3.2656 v -7.70216 z"
         id="path916"
         inkscape:connector-curvature="0" />
      <path
         d="m 129.73292,998.76691 -4.09278,-5.74707 h 2.03028 l 3.10449,4.51172 3.09375,-4.51172 h 2.00879 l -4.09277,5.74707 4.30761,6.02639 h -2.01953 l -3.29785,-4.7696 -3.33008,4.7696 h -2.01953 z"
         id="path918"
         inkscape:connector-curvature="0" />
    </g>
  </g>
</svg>
