<?xml version="1.0" encoding="UTF-8" standalone="no"?>
<svg
   xmlns:dc="http://purl.org/dc/elements/1.1/"
   xmlns:cc="http://creativecommons.org/ns#"
   xmlns:rdf="http://www.w3.org/1999/02/22-rdf-syntax-ns#"
   xmlns:svg="http://www.w3.org/2000/svg"
   xmlns="http://www.w3.org/2000/svg"
   xmlns:sodipodi="http://sodipodi.sourceforge.net/DTD/sodipodi-0.dtd"
   xmlns:inkscape="http://www.inkscape.org/namespaces/inkscape"
   version="1.1"
   id="svg3472"
   height="480"
   width="800"
   sodipodi:docname="ldap_tree.svg"
   inkscape:version="0.92.4 (5da689c313, 2019-01-14)">
  <sodipodi:namedview
     pagecolor="#ffffff"
     bordercolor="#666666"
     borderopacity="1"
     objecttolerance="10"
     gridtolerance="10"
     guidetolerance="10"
     inkscape:pageopacity="0"
     inkscape:pageshadow="2"
     inkscape:window-width="1920"
     inkscape:window-height="1027"
     id="namedview32"
     showgrid="false"
     inkscape:zoom="1.0146982"
     inkscape:cx="402.77094"
     inkscape:cy="240"
     inkscape:window-x="-8"
     inkscape:window-y="-8"
     inkscape:window-maximized="1"
     inkscape:current-layer="svg3472" />
  <defs
     id="defs3474" />
  <metadata
     id="metadata3477">
    <rdf:RDF>
      <cc:Work
         rdf:about="">
        <dc:format>image/svg+xml</dc:format>
        <dc:type
           rdf:resource="http://purl.org/dc/dcmitype/StillImage" />
        <dc:title />
      </cc:Work>
    </rdf:RDF>
  </metadata>
  <path
     id="path5489"
     d="m 200,274.66065 v 58 H 100 v 57"
     style="fill:none;stroke:#0c322c;stroke-width:4;stroke-linecap:butt;stroke-linejoin:miter;stroke-miterlimit:4;stroke-dasharray:none;stroke-opacity:1" />
  <path
     id="path5489-7"
     d="m 200.00437,274.65923 v 58.00009 h 99.99123 v 57.00009"
     style="fill:none;stroke:#0c322c;stroke-width:3.99983;stroke-linecap:butt;stroke-linejoin:miter;stroke-miterlimit:4;stroke-dasharray:none;stroke-opacity:1" />
  <path
     id="path5489-8"
     d="m 601.38897,274.91319 v 58 h -100 v 57"
     style="fill:none;stroke:#0c322c;stroke-width:4;stroke-linecap:butt;stroke-linejoin:miter;stroke-miterlimit:4;stroke-dasharray:none;stroke-opacity:1" />
  <path
     id="path5489-7-4"
     d="m 601.39334,274.91177 v 58.00009 h 99.99123 v 57.00009"
     style="fill:none;stroke:#0c322c;stroke-width:3.99983;stroke-linecap:butt;stroke-linejoin:miter;stroke-miterlimit:4;stroke-dasharray:none;stroke-opacity:1" />
  <path
     id="path5469"
     d="m 400,89.66065 v 58 H 200 v 62"
     style="fill:none;stroke:#0c322c;stroke-width:4;stroke-linecap:butt;stroke-linejoin:miter;stroke-miterlimit:4;stroke-dasharray:none;stroke-opacity:1" />
  <path
     id="path5469-3"
     d="m 399.99528,89.66041 v 58.00026 h 199.94696 v 62.00028"
     style="fill:none;stroke:#0c322c;stroke-width:3.99948;stroke-linecap:butt;stroke-linejoin:miter;stroke-miterlimit:4;stroke-dasharray:none;stroke-opacity:1" />
  <rect
     ry="10"
     rx="10"
     y="9.6605864"
     x="280"
     height="90"
     width="240"
     id="rect3896"
     style="fill:#0c322c;fill-opacity:1;fill-rule:nonzero;stroke:none" />
  <g
     aria-label="dc=example, dc=com"
     style="font-style:normal;font-variant:normal;font-weight:normal;font-stretch:normal;font-size:22px;line-height:125%;font-family:'Open Sans';-inkscape-font-specification:'Open Sans';letter-spacing:0px;word-spacing:0px;fill:#ffffff;fill-opacity:1;stroke:none"
     id="text3900">
    <path
       d="m 300.75375,58.796329 h -0.0967 q -1.23535,1.793946 -3.69531,1.793946 -2.30957,0 -3.59863,-1.579102 -1.27832,-1.579101 -1.27832,-4.490234 0,-2.911133 1.28906,-4.522461 1.28906,-1.611328 3.58789,-1.611328 2.39551,0 3.67383,1.740234 h 0.13965 l -0.0752,-0.848633 -0.043,-0.827148 v -4.791016 h 1.78321 v 16.714844 h -1.4502 z m -3.5664,0.300782 q 1.82617,0 2.64258,-0.988282 0.82714,-0.999023 0.82714,-3.211914 v -0.375976 q 0,-2.50293 -0.83789,-3.566406 -0.82715,-1.074219 -2.65332,-1.074219 -1.56836,0 -2.40625,1.224609 -0.82715,1.213867 -0.82715,3.4375 0,2.25586 0.82715,3.405274 0.82715,1.149414 2.42774,1.149414 z"
       style="text-align:center;text-anchor:middle;fill:#ffffff"
       id="path838" />
    <path
       d="m 310.93735,60.590275 q -2.55664,0 -3.96387,-1.56836 -1.39648,-1.579101 -1.39648,-4.458007 0,-2.954102 1.41796,-4.56543 1.42872,-1.611328 4.06055,-1.611328 0.84863,0 1.69727,0.182617 0.84863,0.182617 1.33203,0.429687 l -0.54785,1.514649 q -0.59082,-0.236328 -1.28907,-0.386719 -0.69824,-0.161133 -1.23535,-0.161133 -3.58789,0 -3.58789,4.576172 0,2.169922 0.87012,3.330078 0.88086,1.160157 2.59961,1.160157 1.47168,0 3.01855,-0.633789 v 1.579101 q -1.18164,0.612305 -2.97558,0.612305 z"
       style="text-align:center;text-anchor:middle;fill:#ffffff"
       id="path840" />
    <path
       d="m 316.10434,51.158634 v -1.47168 h 9.99023 v 1.47168 z m 0,4.393555 v -1.47168 h 9.99023 v 1.47168 z"
       style="text-align:center;text-anchor:middle;fill:#ffffff"
       id="path842" />
    <path
       d="m 334.28012,60.590275 q -2.61035,0 -4.125,-1.589844 -1.50391,-1.589844 -1.50391,-4.415039 0,-2.84668 1.39649,-4.522461 1.40723,-1.675781 3.77051,-1.675781 2.21289,0 3.50195,1.460937 1.28906,1.450196 1.28906,3.834961 v 1.12793 h -8.11035 q 0.0537,2.073242 1.04199,3.147461 0.99903,1.074219 2.80371,1.074219 1.90137,0 3.75977,-0.794922 v 1.589843 q -0.94531,0.408204 -1.79395,0.580079 -0.83789,0.182617 -2.03027,0.182617 z m -0.4834,-10.709961 q -1.41797,0 -2.2666,0.923828 -0.83789,0.923828 -0.98828,2.556641 h 6.15527 q 0,-1.686524 -0.75195,-2.578125 -0.75195,-0.902344 -2.14844,-0.902344 z"
       style="text-align:center;text-anchor:middle;fill:#ffffff"
       id="path844" />
    <path
       d="m 344.47446,54.349064 -4.09278,-5.74707 h 2.03028 l 3.10449,4.511718 3.09375,-4.511718 h 2.00879 l -4.09278,5.74707 4.30762,6.026367 h -2.01953 l -3.29785,-4.769531 -3.33008,4.769531 h -2.01953 z"
       style="text-align:center;text-anchor:middle;fill:#ffffff"
       id="path846" />
    <path
       d="m 360.39438,60.375431 -0.35449,-1.675781 h -0.0859 q -0.88086,1.106445 -1.76172,1.503906 -0.87012,0.386719 -2.18066,0.386719 -1.75098,0 -2.75,-0.902344 -0.98829,-0.902344 -0.98829,-2.567383 0,-3.566406 5.70411,-3.738281 l 1.99804,-0.06445 v -0.730469 q 0,-1.385742 -0.60156,-2.041016 -0.59082,-0.666015 -1.90137,-0.666015 -1.47168,0 -3.33007,0.902344 L 353.59457,49.4184 q 0.87012,-0.472656 1.90137,-0.741211 1.04199,-0.268555 2.08399,-0.268555 2.10546,0 3.11523,0.93457 1.02051,0.934571 1.02051,2.997071 v 8.035156 z m -4.02832,-1.256836 q 1.66504,0 2.61035,-0.913086 0.95605,-0.913086 0.95605,-2.55664 v -1.063477 l -1.7832,0.0752 q -2.12695,0.0752 -3.07226,0.666016 -0.93457,0.580078 -0.93457,1.81543 0,0.966796 0.58007,1.471679 0.59082,0.504883 1.64356,0.504883 z"
       style="text-align:center;text-anchor:middle;fill:#ffffff"
       id="path848" />
    <path
       d="m 380.40707,60.375431 v -7.65918 q 0,-1.407226 -0.60156,-2.105468 -0.60156,-0.708985 -1.86914,-0.708985 -1.66504,0 -2.45996,0.956055 -0.79492,0.956055 -0.79492,2.943359 v 6.574219 h -1.78321 v -7.65918 q 0,-1.407226 -0.60156,-2.105468 -0.60156,-0.708985 -1.87988,-0.708985 -1.67578,0 -2.45996,1.009766 -0.77344,0.999023 -0.77344,3.287109 v 6.176758 h -1.7832 V 48.601994 h 1.45019 l 0.29004,1.611328 h 0.0859 q 0.50488,-0.859375 1.41797,-1.342774 0.92383,-0.483398 2.0625,-0.483398 2.76074,0 3.60937,1.998047 h 0.0859 q 0.52637,-0.923828 1.52539,-1.460938 0.99903,-0.537109 2.27735,-0.537109 1.99804,0 2.98632,1.03125 0.99903,1.020508 0.99903,3.276367 v 7.680664 z"
       style="text-align:center;text-anchor:middle;fill:#ffffff"
       id="path850" />
    <path
       d="m 391.33188,60.590275 q -1.14942,0 -2.10547,-0.418946 -0.94531,-0.429687 -1.58984,-1.310546 h -0.12891 q 0.12891,1.03125 0.12891,1.955078 v 4.844726 h -1.78321 V 48.601994 h 1.4502 l 0.24707,1.611328 h 0.0859 q 0.6875,-0.966797 1.60058,-1.396485 0.91309,-0.429687 2.09473,-0.429687 2.3418,0 3.60937,1.600586 1.27832,1.600586 1.27832,4.490234 0,2.900391 -1.2998,4.511719 -1.28906,1.600586 -3.58789,1.600586 z m -0.25781,-10.688477 q -1.80469,0 -2.61036,0.999024 -0.80566,0.999023 -0.82714,3.179687 v 0.397461 q 0,2.481445 0.82714,3.555664 0.82715,1.063477 2.65332,1.063477 1.5254,0 2.38477,-1.235352 0.87012,-1.235351 0.87012,-3.405273 0,-2.202149 -0.87012,-3.373047 -0.85937,-1.181641 -2.42773,-1.181641 z"
       style="text-align:center;text-anchor:middle;fill:#ffffff"
       id="path852" />
    <path
       d="m 401.12875,60.375431 h -1.7832 V 43.660587 h 1.7832 z"
       style="text-align:center;text-anchor:middle;fill:#ffffff"
       id="path854" />
    <path
       d="m 409.90512,60.590275 q -2.61035,0 -4.125,-1.589844 -1.50391,-1.589844 -1.50391,-4.415039 0,-2.84668 1.39649,-4.522461 1.40723,-1.675781 3.77051,-1.675781 2.21289,0 3.50195,1.460937 1.28906,1.450196 1.28906,3.834961 v 1.12793 h -8.11035 q 0.0537,2.073242 1.04199,3.147461 0.99903,1.074219 2.80371,1.074219 1.90137,0 3.75977,-0.794922 v 1.589843 q -0.94531,0.408204 -1.79395,0.580079 -0.83789,0.182617 -2.03027,0.182617 z m -0.4834,-10.709961 q -1.41797,0 -2.2666,0.923828 -0.83789,0.923828 -0.98828,2.556641 h 6.15527 q 0,-1.686524 -0.75195,-2.578125 -0.75195,-0.902344 -2.14844,-0.902344 z"
       style="text-align:center;text-anchor:middle;fill:#ffffff"
       id="path856" />
    <path
       d="m 419.13266,57.81879 0.16113,0.247071 q -0.27929,1.074218 -0.80566,2.492187 -0.52637,1.428711 -1.0957,2.653321 h -1.34278 q 0.29004,-1.117188 0.63379,-2.760743 0.35449,-1.643554 0.49414,-2.631836 z"
       style="text-align:center;text-anchor:middle;fill:#ffffff"
       id="path858" />
    <path
       d="m 436.4061,58.796329 h -0.0967 q -1.23535,1.793946 -3.69531,1.793946 -2.30958,0 -3.59864,-1.579102 -1.27832,-1.579101 -1.27832,-4.490234 0,-2.911133 1.28906,-4.522461 1.28907,-1.611328 3.5879,-1.611328 2.3955,0 3.67382,1.740234 h 0.13965 l -0.0752,-0.848633 -0.043,-0.827148 v -4.791016 h 1.7832 v 16.714844 h -1.45019 z m -3.56641,0.300782 q 1.82617,0 2.64258,-0.988282 0.82715,-0.999023 0.82715,-3.211914 v -0.375976 q 0,-2.50293 -0.83789,-3.566406 -0.82715,-1.074219 -2.65332,-1.074219 -1.56836,0 -2.40625,1.224609 -0.82715,1.213867 -0.82715,3.4375 0,2.25586 0.82715,3.405274 0.82715,1.149414 2.42773,1.149414 z"
       style="text-align:center;text-anchor:middle;fill:#ffffff"
       id="path860" />
    <path
       d="m 446.58969,60.590275 q -2.55664,0 -3.96387,-1.56836 -1.39648,-1.579101 -1.39648,-4.458007 0,-2.954102 1.41797,-4.56543 1.42871,-1.611328 4.06055,-1.611328 0.84863,0 1.69726,0.182617 0.84863,0.182617 1.33203,0.429687 l -0.54785,1.514649 q -0.59082,-0.236328 -1.28906,-0.386719 -0.69824,-0.161133 -1.23535,-0.161133 -3.58789,0 -3.58789,4.576172 0,2.169922 0.87011,3.330078 0.88086,1.160157 2.59961,1.160157 1.47168,0 3.01856,-0.633789 v 1.579101 q -1.18164,0.612305 -2.97559,0.612305 z"
       style="text-align:center;text-anchor:middle;fill:#ffffff"
       id="path862" />
    <path
       d="m 451.75668,51.158634 v -1.47168 h 9.99024 v 1.47168 z m 0,4.393555 v -1.47168 h 9.99024 v 1.47168 z"
       style="text-align:center;text-anchor:middle;fill:#ffffff"
       id="path864" />
    <path
       d="m 469.66391,60.590275 q -2.55664,0 -3.96387,-1.56836 -1.39648,-1.579101 -1.39648,-4.458007 0,-2.954102 1.41797,-4.56543 1.42871,-1.611328 4.06054,-1.611328 0.84864,0 1.69727,0.182617 0.84863,0.182617 1.33203,0.429687 l -0.54785,1.514649 q -0.59082,-0.236328 -1.28906,-0.386719 -0.69825,-0.161133 -1.23535,-0.161133 -3.5879,0 -3.5879,4.576172 0,2.169922 0.87012,3.330078 0.88086,1.160157 2.59961,1.160157 1.47168,0 3.01856,-0.633789 v 1.579101 q -1.18164,0.612305 -2.97559,0.612305 z"
       style="text-align:center;text-anchor:middle;fill:#ffffff"
       id="path866" />
    <path
       d="m 485.60532,54.47797 q 0,2.878906 -1.4502,4.500977 -1.45019,1.611328 -4.00684,1.611328 -1.5791,0 -2.80371,-0.741211 -1.22461,-0.741211 -1.89062,-2.126953 -0.66602,-1.385742 -0.66602,-3.244141 0,-2.878906 1.43946,-4.479492 1.43945,-1.611328 3.99609,-1.611328 2.4707,0 3.9209,1.643554 1.46094,1.643555 1.46094,4.447266 z m -8.96973,0 q 0,2.255859 0.90234,3.4375 0.90235,1.181641 2.65332,1.181641 1.75098,0 2.65332,-1.170899 0.91309,-1.18164 0.91309,-3.448242 0,-2.245117 -0.91309,-3.405273 -0.90234,-1.170899 -2.6748,-1.170899 -1.75098,0 -2.64258,1.149414 -0.8916,1.149414 -0.8916,3.426758 z"
       style="text-align:center;text-anchor:middle;fill:#ffffff"
       id="path868" />
    <path
       d="m 503.72739,60.375431 v -7.65918 q 0,-1.407226 -0.60157,-2.105468 -0.60156,-0.708985 -1.86914,-0.708985 -1.66504,0 -2.45996,0.956055 -0.79492,0.956055 -0.79492,2.943359 v 6.574219 h -1.7832 v -7.65918 q 0,-1.407226 -0.60157,-2.105468 -0.60156,-0.708985 -1.87988,-0.708985 -1.67578,0 -2.45996,1.009766 -0.77344,0.999023 -0.77344,3.287109 v 6.176758 h -1.7832 V 48.601994 h 1.4502 l 0.29003,1.611328 h 0.0859 q 0.50489,-0.859375 1.41797,-1.342774 0.92383,-0.483398 2.0625,-0.483398 2.76074,0 3.60938,1.998047 h 0.0859 q 0.52637,-0.923828 1.52539,-1.460938 0.99903,-0.537109 2.27735,-0.537109 1.99804,0 2.98633,1.03125 0.99902,1.020508 0.99902,3.276367 v 7.680664 z"
       style="text-align:center;text-anchor:middle;fill:#ffffff"
       id="path870" />
  </g>
  <rect
     ry="10"
     rx="10"
     y="194.66058"
     x="80"
     height="90"
     width="240"
     id="rect3896-9"
     style="fill:#30ba78;fill-opacity:1;fill-rule:nonzero;stroke:none" />
  <g
     aria-label="ou=devel"
     style="font-style:normal;font-variant:normal;font-weight:normal;font-stretch:normal;font-size:22px;line-height:125%;font-family:'Open Sans';-inkscape-font-specification:'Open Sans';letter-spacing:0px;word-spacing:0px;fill:#000000;fill-opacity:1;stroke:none"
     id="text3900-8">
    <path
       d="m 164.24658,243.07391 q 0,2.87891 -1.45019,4.50098 -1.4502,1.61133 -4.00684,1.61133 -1.5791,0 -2.80371,-0.74121 -1.22461,-0.74121 -1.89063,-2.12696 -0.66601,-1.38574 -0.66601,-3.24414 0,-2.8789 1.43945,-4.47949 1.43946,-1.61133 3.9961,-1.61133 2.4707,0 3.92089,1.64356 1.46094,1.64355 1.46094,4.44726 z m -8.96972,0 q 0,2.25586 0.90234,3.4375 0.90234,1.18164 2.65332,1.18164 1.75098,0 2.65332,-1.17089 0.91309,-1.18164 0.91309,-3.44825 0,-2.24511 -0.91309,-3.40527 -0.90234,-1.1709 -2.6748,-1.1709 -1.75098,0 -2.64258,1.14942 -0.8916,1.14941 -0.8916,3.42675 z"
       style="text-align:center;text-anchor:middle"
       id="path873" />
    <path
       d="m 169.0376,237.19794 v 7.63769 q 0,1.43946 0.65527,2.14844 0.65527,0.70898 2.05176,0.70898 1.84766,0 2.69629,-1.00976 0.85937,-1.00977 0.85937,-3.29785 v -6.1875 h 1.78321 v 11.77343 h -1.47168 l -0.25782,-1.5791 h -0.0967 q -0.54785,0.87012 -1.52539,1.33203 -0.96679,0.46192 -2.21289,0.46192 -2.14843,0 -3.22265,-1.02051 -1.06348,-1.02051 -1.06348,-3.26562 v -7.70215 z"
       style="text-align:center;text-anchor:middle"
       id="path875" />
    <path
       d="m 180.2417,239.75458 v -1.47168 h 9.99023 v 1.47168 z m 0,4.39355 v -1.47168 h 9.99023 v 1.47168 z"
       style="text-align:center;text-anchor:middle"
       id="path877" />
    <path
       d="m 201.45752,247.39227 h -0.0967 q -1.23535,1.79395 -3.69531,1.79395 -2.30957,0 -3.59864,-1.5791 -1.27832,-1.5791 -1.27832,-4.49024 0,-2.91113 1.28907,-4.52246 1.28906,-1.61133 3.58789,-1.61133 2.39551,0 3.67383,1.74024 h 0.13964 l -0.0752,-0.84864 -0.043,-0.82714 v -4.79102 h 1.7832 v 16.71484 h -1.45019 z m -3.56641,0.30078 q 1.82618,0 2.64258,-0.98828 0.82715,-0.99902 0.82715,-3.21191 v -0.37598 q 0,-2.50293 -0.83789,-3.5664 -0.82715,-1.07422 -2.65332,-1.07422 -1.56836,0 -2.40625,1.22461 -0.82715,1.21386 -0.82715,3.4375 0,2.25586 0.82715,3.40527 0.82715,1.14941 2.42773,1.14941 z"
       style="text-align:center;text-anchor:middle"
       id="path879" />
    <path
       d="m 211.90967,249.18622 q -2.61035,0 -4.125,-1.58985 -1.50391,-1.58984 -1.50391,-4.41503 0,-2.84668 1.39649,-4.52247 1.40722,-1.67578 3.7705,-1.67578 2.21289,0 3.50196,1.46094 1.28906,1.4502 1.28906,3.83496 v 1.12793 h -8.11035 q 0.0537,2.07324 1.04199,3.14746 0.99902,1.07422 2.80371,1.07422 1.90137,0 3.75977,-0.79492 v 1.58984 q -0.94532,0.40821 -1.79395,0.58008 -0.83789,0.18262 -2.03027,0.18262 z m -0.4834,-10.70996 q -1.41797,0 -2.2666,0.92383 -0.83789,0.92382 -0.98828,2.55664 h 6.15527 q 0,-1.68653 -0.75195,-2.57813 -0.75196,-0.90234 -2.14844,-0.90234 z"
       style="text-align:center;text-anchor:middle"
       id="path881" />
    <path
       d="m 221.84619,248.97137 -4.46875,-11.77343 h 1.91211 l 2.53516,6.98242 q 0.85937,2.44922 1.00976,3.17969 h 0.0859 q 0.11816,-0.56934 0.74121,-2.35254 0.63379,-1.79395 2.8252,-7.80957 h 1.91211 l -4.46875,11.77343 z"
       style="text-align:center;text-anchor:middle"
       id="path883" />
    <path
       d="m 235.28467,249.18622 q -2.61035,0 -4.125,-1.58985 -1.50391,-1.58984 -1.50391,-4.41503 0,-2.84668 1.39649,-4.52247 1.40722,-1.67578 3.7705,-1.67578 2.21289,0 3.50196,1.46094 1.28906,1.4502 1.28906,3.83496 v 1.12793 h -8.11035 q 0.0537,2.07324 1.04199,3.14746 0.99902,1.07422 2.80371,1.07422 1.90137,0 3.75977,-0.79492 v 1.58984 q -0.94532,0.40821 -1.79395,0.58008 -0.83789,0.18262 -2.03027,0.18262 z m -0.4834,-10.70996 q -1.41797,0 -2.2666,0.92383 -0.83789,0.92382 -0.98828,2.55664 h 6.15527 q 0,-1.68653 -0.75195,-2.57813 -0.75196,-0.90234 -2.14844,-0.90234 z"
       style="text-align:center;text-anchor:middle"
       id="path885" />
    <path
       d="m 244.42627,248.97137 h -1.7832 v -16.71484 h 1.7832 z"
       style="text-align:center;text-anchor:middle"
       id="path887" />
  </g>
  <rect
     ry="10"
     rx="10"
     y="194.66058"
     x="480"
     height="90"
     width="240"
     id="rect3896-3"
     style="fill:#30ba78;fill-opacity:1;fill-rule:nonzero;stroke:none" />
  <g
     aria-label="ou=doc"
     style="font-style:normal;font-variant:normal;font-weight:normal;font-stretch:normal;font-size:22px;line-height:125%;font-family:'Open Sans';-inkscape-font-specification:'Open Sans';letter-spacing:0px;word-spacing:0px;fill:#000000;fill-opacity:1;stroke:none"
     id="text3900-2">
    <path
       d="m 573.19238,242.9632 q 0,2.8789 -1.45019,4.50097 -1.4502,1.61133 -4.00684,1.61133 -1.5791,0 -2.80371,-0.74121 -1.22461,-0.74121 -1.89062,-2.12695 -0.66602,-1.38575 -0.66602,-3.24414 0,-2.87891 1.43945,-4.4795 1.43946,-1.61132 3.9961,-1.61132 2.4707,0 3.9209,1.64355 1.46093,1.64355 1.46093,4.44727 z m -8.96972,0 q 0,2.25586 0.90234,3.4375 0.90234,1.18164 2.65332,1.18164 1.75098,0 2.65332,-1.1709 0.91309,-1.18164 0.91309,-3.44824 0,-2.24512 -0.91309,-3.40528 -0.90234,-1.1709 -2.6748,-1.1709 -1.75098,0 -2.64258,1.14942 -0.8916,1.14941 -0.8916,3.42676 z"
       style="text-align:center;text-anchor:middle"
       id="path890" />
    <path
       d="m 577.9834,237.08722 v 7.63769 q 0,1.43946 0.65527,2.14844 0.65528,0.70899 2.05176,0.70899 1.84766,0 2.69629,-1.00977 0.85937,-1.00976 0.85937,-3.29785 v -6.1875 h 1.78321 v 11.77344 h -1.47168 l -0.25782,-1.5791 h -0.0967 q -0.54785,0.87011 -1.52539,1.33203 -0.96679,0.46191 -2.21289,0.46191 -2.14843,0 -3.22265,-1.02051 -1.06348,-1.02051 -1.06348,-3.26562 v -7.70215 z"
       style="text-align:center;text-anchor:middle"
       id="path892" />
    <path
       d="m 589.1875,239.64386 v -1.47168 h 9.99023 v 1.47168 z m 0,4.39355 v -1.47168 h 9.99023 v 1.47168 z"
       style="text-align:center;text-anchor:middle"
       id="path894" />
    <path
       d="m 610.40332,247.28156 h -0.0967 q -1.23535,1.79394 -3.69531,1.79394 -2.30957,0 -3.59863,-1.5791 -1.27833,-1.5791 -1.27833,-4.49024 0,-2.91113 1.28907,-4.52246 1.28906,-1.61132 3.58789,-1.61132 2.39551,0 3.67383,1.74023 h 0.13964 l -0.0752,-0.84863 -0.043,-0.82715 v -4.79102 h 1.7832 v 16.71485 h -1.45019 z m -3.56641,0.30078 q 1.82618,0 2.64258,-0.98828 0.82715,-0.99903 0.82715,-3.21192 v -0.37598 q 0,-2.50293 -0.83789,-3.5664 -0.82715,-1.07422 -2.65332,-1.07422 -1.56836,0 -2.40625,1.22461 -0.82715,1.21387 -0.82715,3.4375 0,2.25586 0.82715,3.40527 0.82715,1.14942 2.42773,1.14942 z"
       style="text-align:center;text-anchor:middle"
       id="path896" />
    <path
       d="m 626.04395,242.9632 q 0,2.8789 -1.4502,4.50097 -1.4502,1.61133 -4.00684,1.61133 -1.5791,0 -2.80371,-0.74121 -1.22461,-0.74121 -1.89062,-2.12695 -0.66602,-1.38575 -0.66602,-3.24414 0,-2.87891 1.43946,-4.4795 1.43945,-1.61132 3.99609,-1.61132 2.4707,0 3.9209,1.64355 1.46094,1.64355 1.46094,4.44727 z m -8.96973,0 q 0,2.25586 0.90234,3.4375 0.90235,1.18164 2.65332,1.18164 1.75098,0 2.65332,-1.1709 0.91309,-1.18164 0.91309,-3.44824 0,-2.24512 -0.91309,-3.40528 -0.90234,-1.1709 -2.6748,-1.1709 -1.75098,0 -2.64258,1.14942 -0.8916,1.14941 -0.8916,3.42676 z"
       style="text-align:center;text-anchor:middle"
       id="path898" />
    <path
       d="m 633.86426,249.0755 q -2.55664,0 -3.96387,-1.56836 -1.39648,-1.5791 -1.39648,-4.45801 0,-2.9541 1.41796,-4.56543 1.42872,-1.61132 4.06055,-1.61132 0.84863,0 1.69727,0.18261 0.84863,0.18262 1.33203,0.42969 l -0.54785,1.51465 q -0.59082,-0.23633 -1.28907,-0.38672 -0.69824,-0.16113 -1.23535,-0.16113 -3.58789,0 -3.58789,4.57617 0,2.16992 0.87012,3.33008 0.88086,1.16015 2.59961,1.16015 1.47168,0 3.01855,-0.63379 v 1.57911 q -1.18164,0.6123 -2.97558,0.6123 z"
       style="text-align:center;text-anchor:middle"
       id="path900" />
  </g>
  <rect
     ry="10"
     rx="10"
     y="379.70569"
     x="10.049383"
     height="89.960693"
     width="180.01648"
     id="rect3896-98-9"
     style="fill:#30ba78;fill-opacity:1;fill-rule:nonzero;stroke:none" />
  <rect
     ry="10"
     rx="10"
     y="380.16071"
     x="209.80583"
     height="89.960693"
     width="180.01648"
     id="rect3896-98-92"
     style="fill:#30ba78;fill-opacity:1;fill-rule:nonzero;stroke:none" />
  <rect
     ry="10"
     rx="10"
     y="380.00665"
     x="410.06595"
     height="89.960693"
     width="180.01648"
     id="rect3896-98-3"
     style="fill:#30ba78;fill-opacity:1;fill-rule:nonzero;stroke:none" />
  <rect
     ry="10"
     rx="10"
     y="380.14862"
     x="609.90094"
     height="89.960693"
     width="180.01648"
     id="rect3896-98-6"
     style="fill:#30ba78;fill-opacity:1;fill-rule:nonzero;stroke:none" />
  <g
     aria-label="cn=Octocat"
     style="font-style:normal;font-variant:normal;font-weight:normal;font-stretch:normal;font-size:22px;line-height:125%;font-family:'Open Sans';-inkscape-font-specification:'Open Sans';letter-spacing:0px;word-spacing:0px;fill:#000000;fill-opacity:1;stroke:none"
     id="text3999">
    <path
       d="m 650.36572,433.21234 q -2.55664,0 -3.96386,-1.56836 -1.39649,-1.5791 -1.39649,-4.45801 0,-2.9541 1.41797,-4.56543 1.42871,-1.61132 4.06055,-1.61132 0.84863,0 1.69726,0.18261 0.84864,0.18262 1.33203,0.42969 l -0.54785,1.51465 q -0.59082,-0.23633 -1.28906,-0.38672 -0.69824,-0.16113 -1.23535,-0.16113 -3.58789,0 -3.58789,4.57617 0,2.16992 0.87011,3.33008 0.88086,1.16015 2.59961,1.16015 1.47168,0 3.01856,-0.63378 v 1.5791 q -1.18164,0.6123 -2.97559,0.6123 z"
       style="text-align:center;text-anchor:middle"
       id="path952" />
    <path
       d="m 664.20166,432.9975 v -7.61621 q 0,-1.43946 -0.65527,-2.14844 -0.65528,-0.70899 -2.05176,-0.70899 -1.84766,0 -2.70703,0.99903 -0.85938,0.99902 -0.85938,3.29785 v 6.17676 h -1.7832 v -11.77344 h 1.45019 l 0.29004,1.61133 h 0.0859 q 0.54785,-0.87012 1.53613,-1.34278 0.98829,-0.48339 2.20215,-0.48339 2.12696,0 3.20117,1.03125 1.07422,1.0205 1.07422,3.27636 v 7.68067 z"
       style="text-align:center;text-anchor:middle"
       id="path954" />
    <path
       d="m 669.0249,423.7807 v -1.47168 h 9.99024 v 1.47168 z m 0,4.39356 v -1.47168 h 9.99024 v 1.47168 z"
       style="text-align:center;text-anchor:middle"
       id="path956" />
    <path
       d="m 696.12744,425.12347 q 0,3.77051 -1.91211,5.92969 -1.90137,2.15918 -5.2959,2.15918 -3.46972,0 -5.36035,-2.11621 -1.87988,-2.12695 -1.87988,-5.99414 0,-3.83496 1.89062,-5.94043 1.89063,-2.11621 5.3711,-2.11621 3.38379,0 5.28515,2.14844 1.90137,2.14843 1.90137,5.92968 z m -12.51465,0 q 0,3.19043 1.35352,4.84473 1.36426,1.64356 3.95312,1.64356 2.61036,0 3.94239,-1.64356 1.33203,-1.64355 1.33203,-4.84473 0,-3.16894 -1.33203,-4.80175 -1.32129,-1.64356 -3.9209,-1.64356 -2.61035,0 -3.97461,1.6543 -1.35352,1.64355 -1.35352,4.79101 z"
       style="text-align:center;text-anchor:middle"
       id="path958" />
    <path
       d="m 704.07666,433.21234 q -2.55664,0 -3.96387,-1.56836 -1.39648,-1.5791 -1.39648,-4.45801 0,-2.9541 1.41797,-4.56543 1.42871,-1.61132 4.06054,-1.61132 0.84864,0 1.69727,0.18261 0.84863,0.18262 1.33203,0.42969 l -0.54785,1.51465 q -0.59082,-0.23633 -1.28906,-0.38672 -0.69825,-0.16113 -1.23535,-0.16113 -3.5879,0 -3.5879,4.57617 0,2.16992 0.87012,3.33008 0.88086,1.16015 2.59961,1.16015 1.47168,0 3.01856,-0.63378 v 1.5791 q -1.18164,0.6123 -2.97559,0.6123 z"
       style="text-align:center;text-anchor:middle"
       id="path960" />
    <path
       d="m 713.65869,431.74066 q 0.47266,0 0.91309,-0.0644 0.44043,-0.0752 0.69824,-0.15039 v 1.36426 q -0.29004,0.13964 -0.85938,0.22558 -0.55859,0.0967 -1.00976,0.0967 -3.41602,0 -3.41602,-3.59863 v -7.00391 h -1.68652 v -0.85937 l 1.68652,-0.74121 0.75196,-2.51368 h 1.03125 v 2.72852 h 3.41601 v 1.38574 h -3.41601 v 6.92871 q 0,1.06348 0.50488,1.63282 0.50488,0.56933 1.38574,0.56933 z"
       style="text-align:center;text-anchor:middle"
       id="path962" />
    <path
       d="m 727.79541,427.10004 q 0,2.8789 -1.4502,4.50097 -1.45019,1.61133 -4.00683,1.61133 -1.5791,0 -2.80371,-0.74121 -1.22461,-0.74121 -1.89063,-2.12695 -0.66601,-1.38574 -0.66601,-3.24414 0,-2.87891 1.43945,-4.4795 1.43945,-1.61132 3.99609,-1.61132 2.47071,0 3.9209,1.64355 1.46094,1.64356 1.46094,4.44727 z m -8.96973,0 q 0,2.25586 0.90235,3.4375 0.90234,1.18164 2.65332,1.18164 1.75097,0 2.65332,-1.1709 0.91308,-1.18164 0.91308,-3.44824 0,-2.24512 -0.91308,-3.40528 -0.90235,-1.1709 -2.67481,-1.1709 -1.75097,0 -2.64257,1.14942 -0.89161,1.14941 -0.89161,3.42676 z"
       style="text-align:center;text-anchor:middle"
       id="path964" />
    <path
       d="m 735.61572,433.21234 q -2.55664,0 -3.96386,-1.56836 -1.39649,-1.5791 -1.39649,-4.45801 0,-2.9541 1.41797,-4.56543 1.42871,-1.61132 4.06055,-1.61132 0.84863,0 1.69726,0.18261 0.84864,0.18262 1.33203,0.42969 l -0.54785,1.51465 q -0.59082,-0.23633 -1.28906,-0.38672 -0.69824,-0.16113 -1.23535,-0.16113 -3.58789,0 -3.58789,4.57617 0,2.16992 0.87011,3.33008 0.88086,1.16015 2.59961,1.16015 1.47168,0 3.01856,-0.63378 v 1.5791 q -1.18164,0.6123 -2.97559,0.6123 z"
       style="text-align:center;text-anchor:middle"
       id="path966" />
    <path
       d="m 748.63525,432.9975 -0.35449,-1.67578 h -0.0859 q -0.88086,1.10644 -1.76171,1.5039 -0.87012,0.38672 -2.18067,0.38672 -1.75098,0 -2.75,-0.90234 -0.98828,-0.90235 -0.98828,-2.56739 0,-3.5664 5.7041,-3.73828 l 1.99805,-0.0644 v -0.73047 q 0,-1.38574 -0.60156,-2.04101 -0.59082,-0.66602 -1.90137,-0.66602 -1.47168,0 -3.33008,0.90234 l -0.54785,-1.36425 q 0.87012,-0.47266 1.90137,-0.74121 1.04199,-0.26856 2.08398,-0.26856 2.10547,0 3.11524,0.93457 1.0205,0.93457 1.0205,2.99707 v 8.03516 z m -4.02832,-1.25684 q 1.66504,0 2.61036,-0.91308 0.95605,-0.91309 0.95605,-2.55664 v -1.06348 l -1.7832,0.0752 q -2.12696,0.0752 -3.07227,0.66602 -0.93457,0.58008 -0.93457,1.81543 0,0.9668 0.58008,1.47168 0.59082,0.50488 1.64355,0.50488 z"
       style="text-align:center;text-anchor:middle"
       id="path968" />
    <path
       d="m 757.44385,431.74066 q 0.47265,0 0.91308,-0.0644 0.44043,-0.0752 0.69825,-0.15039 v 1.36426 q -0.29004,0.13964 -0.85938,0.22558 -0.55859,0.0967 -1.00976,0.0967 -3.41602,0 -3.41602,-3.59863 v -7.00391 h -1.68652 v -0.85937 l 1.68652,-0.74121 0.75195,-2.51368 h 1.03125 v 2.72852 h 3.41602 v 1.38574 h -3.41602 v 6.92871 q 0,1.06348 0.50489,1.63282 0.50488,0.56933 1.38574,0.56933 z"
       style="text-align:center;text-anchor:middle"
       id="path970" />
  </g>
  <g
     aria-label="cn=Geeko"
     style="font-style:normal;font-variant:normal;font-weight:normal;font-stretch:normal;font-size:22px;line-height:125%;font-family:'Open Sans';-inkscape-font-specification:'Open Sans';letter-spacing:0px;word-spacing:0px;fill:#000000;fill-opacity:1;stroke:none"
     id="text3991">
    <path
       d="m 456.57077,433.45178 q -2.55664,0 -3.96387,-1.56836 -1.39648,-1.5791 -1.39648,-4.458 0,-2.95411 1.41797,-4.56543 1.42871,-1.61133 4.06054,-1.61133 0.84864,0 1.69727,0.18261 0.84863,0.18262 1.33203,0.42969 l -0.54785,1.51465 q -0.59082,-0.23633 -1.28906,-0.38672 -0.69825,-0.16113 -1.23535,-0.16113 -3.5879,0 -3.5879,4.57617 0,2.16992 0.87012,3.33008 0.88086,1.16016 2.59961,1.16016 1.47168,0 3.01856,-0.63379 v 1.5791 q -1.18164,0.6123 -2.97559,0.6123 z"
       style="text-align:center;text-anchor:middle"
       id="path935" />
    <path
       d="m 470.40671,433.23694 v -7.61621 q 0,-1.43946 -0.65528,-2.14844 -0.65527,-0.70898 -2.05175,-0.70898 -1.84766,0 -2.70703,0.99902 -0.85938,0.99902 -0.85938,3.29785 v 6.17676 h -1.7832 V 421.4635 h 1.45019 l 0.29004,1.61133 h 0.0859 q 0.54785,-0.87012 1.53613,-1.34277 0.98828,-0.4834 2.20215,-0.4834 2.12695,0 3.20117,1.03125 1.07422,1.02051 1.07422,3.27636 v 7.68067 z"
       style="text-align:center;text-anchor:middle"
       id="path937" />
    <path
       d="m 475.22995,424.02014 v -1.47168 h 9.99023 v 1.47168 z m 0,4.39356 v -1.47168 h 9.99023 v 1.47168 z"
       style="text-align:center;text-anchor:middle"
       id="path939" />
    <path
       d="m 495.60788,425.00842 h 5.33887 v 7.6377 q -1.2461,0.39746 -2.53516,0.60156 -1.28906,0.2041 -2.98633,0.2041 -3.5664,0 -5.55371,-2.11621 -1.9873,-2.12695 -1.9873,-5.95117 0,-2.44922 0.97754,-4.28613 0.98828,-1.84766 2.83593,-2.81446 1.84766,-0.97754 4.3291,-0.97754 2.51368,0 4.6836,0.92383 l -0.70899,1.61133 q -2.12695,-0.90234 -4.09277,-0.90234 -2.86816,0 -4.47949,1.708 -1.61133,1.70801 -1.61133,4.73731 0,3.17969 1.54688,4.82324 1.55761,1.64356 4.56543,1.64356 1.63281,0 3.19042,-0.37598 v -4.83398 h -3.51269 z"
       style="text-align:center;text-anchor:middle"
       id="path941" />
    <path
       d="m 509.43307,433.45178 q -2.61035,0 -4.125,-1.58984 -1.5039,-1.58985 -1.5039,-4.41504 0,-2.84668 1.39648,-4.52246 1.40723,-1.67578 3.77051,-1.67578 2.21289,0 3.50195,1.46093 1.28907,1.4502 1.28907,3.83497 v 1.12793 h -8.11036 q 0.0537,2.07324 1.042,3.14746 0.99902,1.07422 2.80371,1.07422 1.90137,0 3.75976,-0.79493 v 1.58985 q -0.94531,0.4082 -1.79394,0.58008 -0.83789,0.18261 -2.03028,0.18261 z m -0.48339,-10.70996 q -1.41797,0 -2.26661,0.92383 -0.83789,0.92383 -0.98828,2.55664 h 6.15528 q 0,-1.68652 -0.75196,-2.57812 -0.75195,-0.90235 -2.14843,-0.90235 z"
       style="text-align:center;text-anchor:middle"
       id="path943" />
    <path
       d="m 521.76511,433.45178 q -2.61036,0 -4.125,-1.58984 -1.50391,-1.58985 -1.50391,-4.41504 0,-2.84668 1.39648,-4.52246 1.40723,-1.67578 3.77051,-1.67578 2.21289,0 3.50196,1.46093 1.28906,1.4502 1.28906,3.83497 v 1.12793 h -8.11035 q 0.0537,2.07324 1.04199,3.14746 0.99902,1.07422 2.80371,1.07422 1.90137,0 3.75976,-0.79493 v 1.58985 q -0.94531,0.4082 -1.79394,0.58008 -0.83789,0.18261 -2.03027,0.18261 z m -0.4834,-10.70996 q -1.41797,0 -2.2666,0.92383 -0.83789,0.92383 -0.98829,2.55664 h 6.15528 q 0,-1.68652 -0.75195,-2.57812 -0.75196,-0.90235 -2.14844,-0.90235 z"
       style="text-align:center;text-anchor:middle"
       id="path945" />
    <path
       d="m 530.88522,427.21057 q 0.46192,-0.65527 1.40723,-1.71875 l 3.80273,-4.02832 h 2.11622 l -4.76954,5.0166 5.10254,6.75684 h -2.15918 l -4.15722,-5.56445 -1.34278,1.16015 v 4.4043 h -1.76172 v -16.71485 h 1.76172 v 8.86231 q 0,0.59082 -0.0859,1.82617 z"
       style="text-align:center;text-anchor:middle"
       id="path947" />
    <path
       d="m 550.84421,427.33948 q 0,2.8789 -1.4502,4.50097 -1.45019,1.61133 -4.00683,1.61133 -1.57911,0 -2.80371,-0.74121 -1.22461,-0.74121 -1.89063,-2.12695 -0.66602,-1.38574 -0.66602,-3.24414 0,-2.87891 1.43946,-4.47949 1.43945,-1.61133 3.99609,-1.61133 2.4707,0 3.9209,1.64355 1.46094,1.64356 1.46094,4.44727 z m -8.96973,0 q 0,2.25586 0.90234,3.4375 0.90235,1.18164 2.65333,1.18164 1.75097,0 2.65332,-1.1709 0.91308,-1.18164 0.91308,-3.44824 0,-2.24512 -0.91308,-3.40528 -0.90235,-1.17089 -2.67481,-1.17089 -1.75098,0 -2.64258,1.14941 -0.8916,1.14941 -0.8916,3.42676 z"
       style="text-align:center;text-anchor:middle"
       id="path949" />
  </g>
  <g
     aria-label="cn=Wilber"
     style="font-style:normal;font-variant:normal;font-weight:normal;font-stretch:normal;font-size:22px;line-height:125%;font-family:'Open Sans';-inkscape-font-specification:'Open Sans';letter-spacing:0px;word-spacing:0px;fill:#000000;fill-opacity:1;stroke:none"
     id="text3995">
    <path
       d="m 253.03772,433.60583 q -2.55664,0 -3.96387,-1.56835 -1.39648,-1.57911 -1.39648,-4.45801 0,-2.9541 1.41797,-4.56543 1.42871,-1.61133 4.06054,-1.61133 0.84864,0 1.69727,0.18262 0.84863,0.18261 1.33203,0.42968 l -0.54785,1.51465 q -0.59082,-0.23633 -1.28906,-0.38672 -0.69825,-0.16113 -1.23535,-0.16113 -3.5879,0 -3.5879,4.57617 0,2.16993 0.87012,3.33008 0.88086,1.16016 2.59961,1.16016 1.47168,0 3.01856,-0.63379 v 1.5791 q -1.18164,0.6123 -2.97559,0.6123 z"
       style="text-align:center;text-anchor:middle"
       id="path916" />
    <path
       d="m 266.87366,433.39099 v -7.61621 q 0,-1.43945 -0.65528,-2.14844 -0.65527,-0.70898 -2.05175,-0.70898 -1.84766,0 -2.70704,0.99902 -0.85937,0.99903 -0.85937,3.29785 v 6.17676 h -1.7832 v -11.77344 h 1.45019 l 0.29004,1.61133 h 0.0859 q 0.54785,-0.87012 1.53613,-1.34277 0.98828,-0.4834 2.20215,-0.4834 2.12695,0 3.20117,1.03125 1.07422,1.02051 1.07422,3.27637 v 7.68066 z"
       style="text-align:center;text-anchor:middle"
       id="path918" />
    <path
       d="m 271.6969,424.17419 v -1.47168 h 9.99023 v 1.47168 z m 0,4.39356 v -1.47168 h 9.99023 v 1.47168 z"
       style="text-align:center;text-anchor:middle"
       id="path920" />
    <path
       d="m 298.87463,433.39099 h -1.80468 l -3.16895,-10.5166 q -0.22558,-0.69824 -0.50488,-1.76172 -0.2793,-1.06348 -0.29004,-1.27832 -0.23633,1.41797 -0.75195,3.10449 l -3.07227,10.45215 h -1.80469 l -4.17871,-15.70508 h 1.9336 l 2.48144,9.7002 q 0.51563,2.04101 0.75195,3.69531 0.29004,-1.96582 0.85938,-3.8457 l 2.81445,-9.54981 h 1.9336 l 2.9541,9.63575 q 0.51562,1.66503 0.87011,3.75976 0.20411,-1.52539 0.77344,-3.7168 l 2.47071,-9.67871 h 1.93359 z"
       style="text-align:center;text-anchor:middle"
       id="path922" />
    <path
       d="m 307.04944,433.39099 h -1.7832 v -11.77344 h 1.7832 z m -1.9336,-14.96387 q 0,-0.6123 0.30079,-0.8916 0.30078,-0.29004 0.75195,-0.29004 0.42969,0 0.74121,0.29004 0.31152,0.29004 0.31152,0.8916 0,0.60157 -0.31152,0.90235 -0.31152,0.29004 -0.74121,0.29004 -0.45117,0 -0.75195,-0.29004 -0.30079,-0.30078 -0.30079,-0.90235 z"
       style="text-align:center;text-anchor:middle"
       id="path924" />
    <path
       d="m 312.63538,433.39099 h -1.78321 v -16.71484 h 1.78321 z"
       style="text-align:center;text-anchor:middle"
       id="path926" />
    <path
       d="m 321.91663,421.42419 q 2.32031,0 3.59863,1.58985 1.28906,1.5791 1.28906,4.47949 0,2.90039 -1.2998,4.51172 -1.28907,1.60058 -3.58789,1.60058 -1.14942,0 -2.10547,-0.41894 -0.94532,-0.42969 -1.58985,-1.31055 h -0.1289 l -0.37598,1.51465 h -1.27832 v -16.71484 h 1.7832 v 4.06054 q 0,1.36426 -0.0859,2.44922 h 0.0859 q 1.2461,-1.76172 3.69532,-1.76172 z m -0.25782,1.49317 q -1.82617,0 -2.63183,1.05273 -0.80567,1.04199 -0.80567,3.52344 0,2.48145 0.82715,3.55566 0.82715,1.06348 2.65332,1.06348 1.64356,0 2.44922,-1.19238 0.80567,-1.20313 0.80567,-3.44824 0,-2.29883 -0.80567,-3.42676 -0.80566,-1.12793 -2.49219,-1.12793 z"
       style="text-align:center;text-anchor:middle"
       id="path928" />
    <path
       d="m 334.90393,433.60583 q -2.61035,0 -4.125,-1.58984 -1.50391,-1.58984 -1.50391,-4.41504 0,-2.84668 1.39649,-4.52246 1.40723,-1.67578 3.77051,-1.67578 2.21289,0 3.50195,1.46094 1.28906,1.45019 1.28906,3.83496 v 1.12793 h -8.11035 q 0.0537,2.07324 1.04199,3.14746 0.99903,1.07422 2.80371,1.07422 1.90137,0 3.75977,-0.79492 v 1.58984 q -0.94531,0.4082 -1.79395,0.58008 -0.83789,0.18261 -2.03027,0.18261 z m -0.4834,-10.70996 q -1.41797,0 -2.2666,0.92383 -0.83789,0.92383 -0.98828,2.55664 h 6.15527 q 0,-1.68652 -0.75195,-2.57812 -0.75195,-0.90235 -2.14844,-0.90235 z"
       style="text-align:center;text-anchor:middle"
       id="path930" />
    <path
       d="m 347.63342,421.40271 q 0.78418,0 1.40723,0.12891 l -0.24707,1.65429 q -0.73047,-0.16113 -1.28906,-0.16113 -1.42871,0 -2.44922,1.16016 -1.00977,1.16015 -1.00977,2.88964 v 6.31641 h -1.7832 v -11.77344 h 1.47168 l 0.2041,2.18067 h 0.0859 q 0.65527,-1.14942 1.5791,-1.77246 0.92383,-0.62305 2.03027,-0.62305 z"
       style="text-align:center;text-anchor:middle"
       id="path932" />
  </g>
  <g
     aria-label="cn=Tux"
     style="font-style:normal;font-variant:normal;font-weight:normal;font-stretch:normal;font-size:22px;line-height:125%;font-family:'Open Sans';-inkscape-font-specification:'Open Sans';letter-spacing:0px;word-spacing:0px;fill:#000000;fill-opacity:1;stroke:none"
     id="text3987">
    <path
       d="m 68.516129,432.64594 q -2.556641,0 -3.963868,-1.56836 -1.396484,-1.57911 -1.396484,-4.45801 0,-2.9541 1.417969,-4.56543 1.428711,-1.61133 4.060547,-1.61133 0.848632,0 1.697265,0.18262 0.848633,0.18261 1.332031,0.42968 l -0.547851,1.51465 q -0.59082,-0.23632 -1.289063,-0.38672 -0.698242,-0.16113 -1.235351,-0.16113 -3.587891,0 -3.587891,4.57617 0,2.16993 0.870117,3.33008 0.88086,1.16016 2.59961,1.16016 1.471679,0 3.018554,-0.63379 v 1.5791 q -1.18164,0.61231 -2.975585,0.61231 z"
       style="text-align:center;text-anchor:middle"
       id="path903" />
    <path
       d="m 82.352066,432.43109 v -7.61621 q 0,-1.43945 -0.655273,-2.14844 -0.655274,-0.70898 -2.051758,-0.70898 -1.847656,0 -2.707031,0.99902 -0.859375,0.99903 -0.859375,3.29785 v 6.17676 h -1.783204 v -11.77344 h 1.450196 l 0.290039,1.61133 h 0.08594 q 0.547852,-0.87012 1.536133,-1.34277 0.988281,-0.4834 2.202149,-0.4834 2.126953,0 3.201171,1.03125 1.074219,1.02051 1.074219,3.27637 v 7.68066 z"
       style="text-align:center;text-anchor:middle"
       id="path905" />
    <path
       d="m 87.175308,423.21429 v -1.47168 h 9.990235 v 1.47168 z m 0,4.39356 v -1.47168 h 9.990235 v 1.47168 z"
       style="text-align:center;text-anchor:middle"
       id="path907" />
    <path
       d="m 105.48,432.43109 h -1.82618 v -14.08301 h -4.973629 v -1.62207 h 11.773439 v 1.62207 H 105.48 Z"
       style="text-align:center;text-anchor:middle"
       id="path909" />
    <path
       d="m 114.21339,420.65765 v 7.6377 q 0,1.43945 0.65528,2.14844 0.65527,0.70898 2.05176,0.70898 1.84765,0 2.69628,-1.00976 0.85938,-1.00977 0.85938,-3.29786 v -6.1875 h 1.7832 v 11.77344 h -1.47168 l -0.25781,-1.5791 h -0.0967 q -0.54785,0.87012 -1.52539,1.33203 -0.9668,0.46192 -2.21289,0.46192 -2.14844,0 -3.22266,-1.02051 -1.06347,-1.02051 -1.06347,-3.26563 v -7.70215 z"
       style="text-align:center;text-anchor:middle"
       id="path911" />
    <path
       d="m 128.86574,426.40472 -4.09278,-5.74707 h 2.03028 l 3.10449,4.51172 3.09375,-4.51172 h 2.00879 l -4.09277,5.74707 4.30761,6.02637 h -2.01953 l -3.29785,-4.76953 -3.33008,4.76953 h -2.01953 z"
       style="text-align:center;text-anchor:middle"
       id="path913" />
  </g>
</svg>
