<?xml version="1.0" encoding="UTF-8" standalone="no"?>
<svg
   xmlns:dc="http://purl.org/dc/elements/1.1/"
   xmlns:cc="http://creativecommons.org/ns#"
   xmlns:rdf="http://www.w3.org/1999/02/22-rdf-syntax-ns#"
   xmlns:svg="http://www.w3.org/2000/svg"
   xmlns="http://www.w3.org/2000/svg"
   xmlns:sodipodi="http://sodipodi.sourceforge.net/DTD/sodipodi-0.dtd"
   xmlns:inkscape="http://www.inkscape.org/namespaces/inkscape"
   id="svg2"
   height="200"
   width="900"
   version="1.2"
   sodipodi:docname="net_basic_tcppacket.svg"
   inkscape:version="0.92.4 (5da689c313, 2019-01-14)">
  <sodipodi:namedview
     pagecolor="#ffffff"
     bordercolor="#666666"
     borderopacity="1"
     objecttolerance="10"
     gridtolerance="10"
     guidetolerance="10"
     inkscape:pageopacity="0"
     inkscape:pageshadow="2"
     inkscape:window-width="1920"
     inkscape:window-height="1027"
     id="namedview116"
     showgrid="false"
     inkscape:zoom="1.803908"
     inkscape:cx="683.06176"
     inkscape:cy="100"
     inkscape:window-x="-8"
     inkscape:window-y="-8"
     inkscape:window-maximized="1"
     inkscape:current-layer="svg2" />
  <defs
     id="defs4" />
  <metadata
     id="metadata7">
    <rdf:RDF>
      <cc:Work
         rdf:about="">
        <dc:format>image/svg+xml</dc:format>
        <dc:type
           rdf:resource="http://purl.org/dc/dcmitype/StillImage" />
        <dc:title />
      </cc:Work>
    </rdf:RDF>
  </metadata>
  <rect
     style="fill:#30ba78;fill-opacity:1;fill-rule:nonzero;stroke:none"
     id="rect4438"
     y="20"
     x="20"
     ry="10"
     rx="10"
     height="160"
     width="860" />
  <rect
     style="color:#000000;display:inline;overflow:visible;visibility:visible;fill:#fe7c3f;fill-opacity:1;fill-rule:nonzero;stroke:#ffffff;stroke-width:0;stroke-miterlimit:4;stroke-dasharray:none;stroke-opacity:1;marker:none;enable-background:accumulate"
     id="rect6978-9-64-0-1-5-7"
     y="20"
     x="120"
     height="160"
     width="130" />
  <rect
     style="color:#000000;display:inline;overflow:visible;visibility:visible;fill:#90ebcd;fill-opacity:1;fill-rule:nonzero;stroke:#ffffff;stroke-width:0;stroke-miterlimit:4;stroke-dasharray:none;stroke-opacity:1;marker:none;enable-background:accumulate"
     id="rect6978-9-64-0-1-5-7-5"
     y="20"
     x="250"
     ry="0"
     height="160"
     width="130.00003" />
  <rect
     style="color:#000000;display:inline;overflow:visible;visibility:visible;fill:#dedfe0;fill-opacity:1;fill-rule:nonzero;stroke:#ffffff;stroke-width:0;stroke-miterlimit:4;stroke-dasharray:none;stroke-opacity:1;marker:none;enable-background:accumulate"
     id="rect6978-9-64-0-1-5-7-5-2"
     y="20"
     x="380"
     height="160"
     width="399.99982" />
  <g
     aria-label="以太网"
     style="font-style:normal;font-weight:normal;font-size:40px;line-height:0;font-family:sans-serif;text-align:center;letter-spacing:0px;word-spacing:0px;writing-mode:lr-tb;text-anchor:middle;fill:#000000;fill-opacity:1;stroke:none"
     id="text925">
    <path
       d="m 53.731678,70.299928 c -0.6,-1.3 -1.9,-3.22 -3.08,-4.64 l -1.26,0.66 c 1.16,1.46 2.44,3.48 3,4.76 z m -7,6.9 v -11.86 h -1.58 v 11.7 c 0,0.92 -0.78,1.56 -1.2,1.8 0.26,0.28 0.7,0.88 0.82,1.22 0.5,-0.44 1.22,-0.86 6.98,-3.62 -0.12,-0.34 -0.32,-0.96 -0.38,-1.4 z m 14.4,3.84 c -0.96,-1.4 -2.9,-3.48 -4.62,-5.12 1.32,-2.84 1.86,-6.52 2.14,-11.26 l -1.56,-0.08 c -0.46,8.84 -1.84,13.78 -8.24,16.32 0.34,0.3 0.9,0.96 1.1,1.28 2.7,-1.24 4.56,-2.82 5.86,-4.94 1.6,1.58 3.24,3.48 4.04,4.76 z"
       style="font-style:normal;font-variant:normal;font-weight:normal;font-stretch:normal;font-size:20px;font-family:'Noto Sans CJK SC';-inkscape-font-specification:'Noto Sans CJK SC'"
       id="path849" />
    <path
       d="m 80.691678,70.579928 v -1.5 h -8.28 c 0.22,-1.9 0.24,-3.72 0.26,-5.28 h -1.58 c -0.02,1.52 0,3.36 -0.22,5.28 h -7.7 v 1.5 h 7.46 c -0.72,3.96 -2.66,8.02 -7.92,10.24 0.42,0.3 0.88,0.84 1.1,1.22 2.34,-1.04 4.04,-2.42 5.3,-4.02 1.34,1.16 2.92,2.76 3.66,3.8 l 1.26,-0.98 c -0.82,-1.08 -2.52,-2.7 -3.9,-3.82 l -0.58,0.4 c 1.3,-1.82 2.04,-3.84 2.48,-5.88 1.52,4.84 4.08,8.62 8.06,10.54 0.26,-0.42 0.74,-1.04 1.12,-1.36 -3.98,-1.7 -6.6,-5.5 -7.96,-10.14 z"
       style="font-style:normal;font-variant:normal;font-weight:normal;font-stretch:normal;font-size:20px;font-family:'Noto Sans CJK SC';-inkscape-font-specification:'Noto Sans CJK SC'"
       id="path851" />
    <path
       d="m 92.011678,76.379928 c -0.48,-0.86 -1.18,-1.94 -1.96,-3.06 0.54,-1.64 0.96,-3.46 1.28,-5.4 l -1.36,-0.14 c -0.24,1.48 -0.52,2.86 -0.9,4.18 -0.76,-1.02 -1.56,-2.06 -2.34,-2.96 l -0.92,0.82 c 0.9,1.1 1.88,2.4 2.76,3.66 -0.76,2.12 -1.82,3.9 -3.2,5.24 0.32,0.2 0.94,0.62 1.16,0.82 1.2,-1.28 2.18,-2.86 2.98,-4.74 0.6,0.94 1.14,1.82 1.52,2.54 z m 5.82,0.7 c -0.48,-1.06 -1.24,-2.38 -2.12,-3.72 0.54,-1.64 0.94,-3.44 1.24,-5.4 l -1.34,-0.14 c -0.22,1.46 -0.48,2.84 -0.86,4.14 -0.72,-1 -1.48,-2 -2.24,-2.88 l -0.96,0.74 c 0.9,1.12 1.86,2.42 2.72,3.68 -0.8,2.2 -1.86,4.04 -3.34,5.38 0.34,0.18 0.92,0.6 1.18,0.82 1.26,-1.3 2.24,-2.9 3.04,-4.8 0.68,1.12 1.24,2.18 1.64,3.04 z m 2.280002,-12.08 H 83.731678 v 17.02 h 1.48 v -15.62 h 13.44 v 13.68 c 0,0.34 -0.16,0.46 -0.52,0.48 -0.38,0 -1.68,0.02 -3,-0.04 0.2,0.42 0.48,1.06 0.56,1.48 1.8,0.02 2.88,-0.02 3.52,-0.26 0.64,-0.26 0.900002,-0.72 0.900002,-1.66 z"
       style="font-style:normal;font-variant:normal;font-weight:normal;font-stretch:normal;font-size:20px;font-family:'Noto Sans CJK SC';-inkscape-font-specification:'Noto Sans CJK SC'"
       id="path853" />
  </g>
  <g
     aria-label="报头"
     style="font-style:normal;font-weight:normal;font-size:40px;line-height:0;font-family:sans-serif;text-align:center;letter-spacing:0px;word-spacing:0px;writing-mode:lr-tb;text-anchor:middle;fill:#000000;fill-opacity:1;stroke:none"
     id="text925-5">
    <path
       d="m 61.091689,98.160997 -2.2,0.62 v -3.8 h 2.24 v -1.46 h -2.24 v -4 h -1.48 v 4 h -2.84 v 1.46 h 2.84 v 4.22 c -1.18,0.34 -2.26,0.62 -3.12,0.820003 l 0.4,1.5 c 0.82,-0.22 1.74,-0.5 2.72,-0.78 v 5.18 c 0,0.34 -0.14,0.44 -0.48,0.44 -0.28,0.02 -1.3,0.04 -2.42,0 0.22,0.4 0.44,1.02 0.48,1.42 1.58,0 2.52,-0.02 3.1,-0.28 0.56,-0.24 0.8,-0.66 0.8,-1.58 v -5.62 l 2.4,-0.720003 z m 9.18,0.18 c -0.44,1.6 -1.16,3.140003 -2.14,4.500003 -1.08,-1.34 -1.98,-2.880003 -2.62,-4.500003 z m 0.8,-1.4 -0.26,0.06 h -7.32 v -5.44 h 6.36 c -0.08,1.8 -0.2,2.58 -0.46,2.82 -0.14,0.14 -0.38,0.16 -0.8,0.16 -0.4,0 -1.7,0 -3.02,-0.12 0.24,0.36 0.4,0.86 0.42,1.26 1.32,0.06 2.58,0.08 3.22,0.04 0.66,-0.04 1.08,-0.16 1.46,-0.52 0.42,-0.44 0.6,-1.58 0.72,-4.38 0.02,-0.22 0.02,-0.64 0.02,-0.64 h -9.38 V 107.741 h 1.46 v -9.400003 h 0.6 c 0.76,2.100003 1.8,4.020003 3.12,5.660003 -1.02,1.08 -2.2,2.02 -3.58,2.72 0.34,0.3 0.76,0.74 0.98,1.08 1.34,-0.72 2.54,-1.64 3.54,-2.74 1.06,1.1 2.24,2.02 3.56,2.66 0.22,-0.4 0.68,-0.96 1.04,-1.26 -1.34,-0.56 -2.56,-1.44 -3.64,-2.54 1.42,-1.9 2.4,-4.200003 2.92,-6.660003 z"
       style="font-style:normal;font-variant:normal;font-weight:normal;font-stretch:normal;font-size:20px;font-family:'Noto Sans CJK SC';-inkscape-font-specification:'Noto Sans CJK SC'"
       id="path856" />
    <path
       d="m 82.831689,92.720997 c -1,-0.8 -2.98,-1.76 -4.56,-2.32 l -0.82,1.08 c 1.6,0.6 3.56,1.64 4.54,2.44 z m -1.72,3.76 c -1,-0.84 -2.98,-1.84 -4.54,-2.42 l -0.9,1.04 c 1.6,0.64 3.56,1.72 4.5,2.54 z m 3.18,6.420003 c 2.72,1.34 5.46,3.1 7.06,4.58 l 0.98,-1.12 c -1.64,-1.46 -4.5,-3.22 -7.26,-4.5 z m 0.84,-4.280003 c 0.5,-2.54 0.5,-5.54 0.52,-8.9 h -1.52 c -0.02,3.46 0.02,6.44 -0.5,8.9 h -8.86 V 100.001 h 8.48 c -1.06,3.06 -3.38,5.24 -8.48,6.46 0.3,0.32 0.7,0.88 0.86,1.24 5.64,-1.42 8.1,-4.06 9.16,-7.7 h 7.62 v -1.380003 z"
       style="font-style:normal;font-variant:normal;font-weight:normal;font-stretch:normal;font-size:20px;font-family:'Noto Sans CJK SC';-inkscape-font-specification:'Noto Sans CJK SC'"
       id="path858" />
  </g>
  <g
     aria-label="（14 字节）"
     style="font-style:normal;font-weight:normal;font-size:40px;line-height:0;font-family:sans-serif;text-align:center;letter-spacing:0px;word-spacing:0px;writing-mode:lr-tb;text-anchor:middle;fill:#000000;fill-opacity:1;stroke:none"
     id="text925-5-0">
    <path
       d="m 34.452754,134.80278 1.2,-0.62 c -2.3,-2.38 -3.72,-5.34 -3.72,-8.9 0,-3.56 1.42,-6.52 3.72,-8.9 l -1.2,-0.62 c -2.4,2.44 -3.98,5.62 -3.98,9.52 0,3.9 1.58,7.08 3.98,9.52 z"
       style="font-style:normal;font-variant:normal;font-weight:normal;font-stretch:normal;font-family:'Noto Sans CJK SC';-inkscape-font-specification:'Noto Sans CJK SC'"
       id="path861" />
    <path
       d="M 43.555176,132.88278 H 41.973145 V 122.707 q 0,-1.26953 0.07813,-2.40234 -0.205079,0.20508 -0.458985,0.42968 -0.253906,0.22461 -2.324219,1.9043 l -0.859375,-1.11328 3.779297,-2.91992 h 1.367188 z"
       style="font-style:normal;font-variant:normal;font-weight:normal;font-stretch:normal;font-size:20px;font-family:'Open Sans';-inkscape-font-specification:'Open Sans'"
       id="path863" />
    <path
       d="m 59.053223,129.60153 h -2.119141 v 3.28125 h -1.552734 v -3.28125 h -6.94336 v -1.41601 l 6.777344,-9.65821 h 1.71875 v 9.59961 h 2.119141 z m -3.671875,-1.47461 v -4.74609 q 0,-1.39649 0.09766,-3.1543 h -0.07813 q -0.46875,0.9375 -0.878906,1.55274 l -4.462891,6.34765 z"
       style="font-style:normal;font-variant:normal;font-weight:normal;font-stretch:normal;font-size:20px;font-family:'Open Sans';-inkscape-font-specification:'Open Sans'"
       id="path865" />
    <path
       d="m 67.778691,119.66278 h 13.68 v 2.66 h 1.52 v -4.08 h -7.06 c -0.28,-0.68 -0.82,-1.56 -1.34,-2.24 l -1.42,0.48 c 0.38,0.52 0.76,1.18 1.04,1.76 h -7.88 v 4.08 h 1.46 z m 15.4,7.2 h -7.76 v -0.74 c 1.74,-0.92 3.52,-2.26 4.78,-3.54 l -1.02,-0.78 -0.32,0.08 h -9.5 v 1.4 h 8 c -1,0.88 -2.32,1.78 -3.48,2.34 v 1.24 h -7.8 v 1.42 h 7.8 v 4.28 c 0,0.28 -0.1,0.36 -0.48,0.38 -0.34,0.02 -1.62,0.02 -2.98,-0.02 0.26,0.38 0.56,1.04 0.68,1.46 1.66,0 2.7,-0.02 3.4,-0.26 0.7,-0.22 0.92,-0.66 0.92,-1.54 v -4.3 h 7.76 z"
       style="font-style:normal;font-variant:normal;font-weight:normal;font-stretch:normal;font-family:'Noto Sans CJK SC';-inkscape-font-specification:'Noto Sans CJK SC'"
       id="path867" />
    <path
       d="M 101.57869,123.16278 H 86.678691 v 1.44 h 5.22 v 9.76 h 1.54 v -9.76 h 6.619999 v 5.16 c 0,0.32 -0.1,0.4 -0.479999,0.4 -0.42,0.04 -1.76,0.04 -3.22,-0.02 0.2,0.44 0.42,1.1 0.46,1.54 1.88,0 3.12,0 3.839999,-0.24 0.74,-0.24 0.92,-0.74 0.92,-1.64 z m -2.719999,-4.74 v -2.28 h -1.54 v 2.28 h -5.34 v -2.28 h -1.5 v 2.28 h -4.64 v 1.42 h 4.64 v 2.26 h 1.5 v -2.26 h 5.34 v 2.26 h 1.54 v -2.26 h 4.639999 v -1.42 z"
       style="font-style:normal;font-variant:normal;font-weight:normal;font-stretch:normal;font-family:'Noto Sans CJK SC';-inkscape-font-specification:'Noto Sans CJK SC'"
       id="path869" />
    <path
       d="m 106.77869,115.76278 -1.2,0.62 c 2.3,2.38 3.72,5.34 3.72,8.9 0,3.56 -1.42,6.52 -3.72,8.9 l 1.2,0.62 c 2.4,-2.44 3.98,-5.62 3.98,-9.52 0,-3.9 -1.58,-7.08 -3.98,-9.52 z"
       style="font-style:normal;font-variant:normal;font-weight:normal;font-stretch:normal;font-family:'Noto Sans CJK SC';-inkscape-font-specification:'Noto Sans CJK SC'"
       id="path871" />
  </g>
  <g
     aria-label="IP 报头"
     style="font-style:normal;font-weight:normal;font-size:40px;line-height:0;font-family:sans-serif;text-align:center;letter-spacing:0px;word-spacing:0px;writing-mode:lr-tb;text-anchor:middle;fill:#000000;fill-opacity:1;stroke:none"
     id="text925-4">
    <path
       d="M 154.22295,92.846809 V 78.569466 h 1.66015 v 14.277343 z"
       style="font-style:normal;font-variant:normal;font-weight:normal;font-stretch:normal;font-size:20px;font-family:'Open Sans';-inkscape-font-specification:'Open Sans'"
       id="path874" />
    <path
       d="m 168.86162,82.729622 q 0,2.167969 -1.48438,3.339844 -1.47461,1.162109 -4.22851,1.162109 h -1.67969 v 5.615234 h -1.66016 V 78.569466 h 3.70118 q 5.35156,0 5.35156,4.160156 z m -7.39258,3.076172 h 1.49414 q 2.20703,0 3.19336,-0.712891 0.98633,-0.71289 0.98633,-2.285156 0,-1.416016 -0.92774,-2.109375 -0.92773,-0.693359 -2.89062,-0.693359 h -1.85547 z"
       style="font-style:normal;font-variant:normal;font-weight:normal;font-stretch:normal;font-size:20px;font-family:'Open Sans';-inkscape-font-specification:'Open Sans'"
       id="path876" />
    <path
       d="m 182.61256,84.766809 -2.2,0.62 v -3.8 h 2.24 v -1.46 h -2.24 v -4 h -1.48 v 4 h -2.84 v 1.46 h 2.84 v 4.22 c -1.18,0.34 -2.26,0.62 -3.12,0.82 l 0.4,1.5 c 0.82,-0.22 1.74,-0.5 2.72,-0.78 v 5.18 c 0,0.34 -0.14,0.44 -0.48,0.44 -0.28,0.02 -1.3,0.04 -2.42,0 0.22,0.4 0.44,1.02 0.48,1.42 1.58,0 2.52,-0.02 3.1,-0.28 0.56,-0.24 0.8,-0.66 0.8,-1.58 v -5.62 l 2.4,-0.72 z m 9.18,0.18 c -0.44,1.6 -1.16,3.14 -2.14,4.5 -1.08,-1.34 -1.98,-2.88 -2.62,-4.5 z m 0.8,-1.4 -0.26,0.06 h -7.32 v -5.44 h 6.36 c -0.08,1.8 -0.2,2.58 -0.46,2.82 -0.14,0.14 -0.38,0.16 -0.8,0.16 -0.4,0 -1.7,0 -3.02,-0.12 0.24,0.36 0.4,0.86 0.42,1.26 1.32,0.06 2.58,0.08 3.22,0.04 0.66,-0.04 1.08,-0.16 1.46,-0.52 0.42,-0.44 0.6,-1.58 0.72,-4.38 0.02,-0.22 0.02,-0.64 0.02,-0.64 h -9.38 v 17.56 h 1.46 v -9.4 h 0.6 c 0.76,2.1 1.8,4.02 3.12,5.66 -1.02,1.08 -2.2,2.02 -3.58,2.72 0.34,0.3 0.76,0.74 0.98,1.08 1.34,-0.72 2.54,-1.64 3.54,-2.74 1.06,1.1 2.24,2.02 3.56,2.66 0.22,-0.4 0.68,-0.96 1.04,-1.26 -1.34,-0.56 -2.56,-1.44 -3.64,-2.54 1.42,-1.9 2.4,-4.2 2.92,-6.66 z"
       style="font-style:normal;font-variant:normal;font-weight:normal;font-stretch:normal;font-family:'Noto Sans CJK SC';-inkscape-font-specification:'Noto Sans CJK SC'"
       id="path878" />
    <path
       d="m 204.35256,79.326809 c -1,-0.8 -2.98,-1.76 -4.56,-2.32 l -0.82,1.08 c 1.6,0.6 3.56,1.64 4.54,2.44 z m -1.72,3.76 c -1,-0.84 -2.98,-1.84 -4.54,-2.42 l -0.9,1.04 c 1.6,0.64 3.56,1.72 4.5,2.54 z m 3.18,6.42 c 2.72,1.34 5.46,3.1 7.06,4.58 l 0.98,-1.12 c -1.64,-1.46 -4.5,-3.22 -7.26,-4.5 z m 0.84,-4.28 c 0.5,-2.54 0.5,-5.54 0.52,-8.9 h -1.52 c -0.02,3.46 0.02,6.44 -0.5,8.9 h -8.86 v 1.38 h 8.48 c -1.06,3.06 -3.38,5.24 -8.48,6.46 0.3,0.32 0.7,0.88 0.86,1.24 5.64,-1.42 8.1,-4.06 9.16,-7.7 h 7.62 v -1.38 z"
       style="font-style:normal;font-variant:normal;font-weight:normal;font-stretch:normal;font-family:'Noto Sans CJK SC';-inkscape-font-specification:'Noto Sans CJK SC'"
       id="path880" />
  </g>
  <g
     aria-label="（20 字节）"
     style="font-style:normal;font-weight:normal;font-size:40px;line-height:0;font-family:sans-serif;text-align:center;letter-spacing:0px;word-spacing:0px;writing-mode:lr-tb;text-anchor:middle;fill:#000000;fill-opacity:1;stroke:none"
     id="text925-4-3">
    <path
       d="m 150.16197,119.57164 1.2,-0.62 c -2.3,-2.38 -3.72,-5.34 -3.72,-8.9 0,-3.56 1.42,-6.52 3.72,-8.9 l -1.2,-0.62 c -2.4,2.44 -3.98,5.62 -3.98,9.52 0,3.9 1.58,7.08 3.98,9.52 z"
       style="font-style:normal;font-variant:normal;font-weight:normal;font-stretch:normal;font-family:'Noto Sans CJK SC';-inkscape-font-specification:'Noto Sans CJK SC'"
       id="path883" />
    <path
       d="m 162.6433,117.65164 h -9.38477 v -1.39648 l 3.75977,-3.7793 q 1.71875,-1.73828 2.26562,-2.48047 0.54688,-0.74219 0.82031,-1.44531 0.27344,-0.70313 0.27344,-1.51367 0,-1.14258 -0.69336,-1.80664 -0.69336,-0.67383 -1.92383,-0.67383 -0.88867,0 -1.68945,0.29297 -0.79102,0.29297 -1.76758,1.06445 l -0.85937,-1.10352 q 1.97265,-1.64062 4.29687,-1.64062 2.01172,0 3.1543,1.03516 1.14258,1.02539 1.14258,2.76367 0,1.35742 -0.76172,2.68554 -0.76172,1.32813 -2.85156,3.35938 l -3.125,3.05664 v 0.0781 h 7.34375 z"
       style="font-style:normal;font-variant:normal;font-weight:normal;font-stretch:normal;font-size:20px;font-family:'Open Sans';-inkscape-font-specification:'Open Sans'"
       id="path885" />
    <path
       d="m 174.16673,110.49344 q 0,3.70117 -1.17187,5.52734 -1.16211,1.82617 -3.56446,1.82617 -2.30468,0 -3.50585,-1.86523 -1.20118,-1.875 -1.20118,-5.48828 0,-3.73047 1.16211,-5.53711 1.16211,-1.80664 3.54492,-1.80664 2.32422,0 3.5254,1.88476 1.21093,1.88477 1.21093,5.45899 z m -7.80273,0 q 0,3.11523 0.73242,4.54101 0.73242,1.41602 2.33398,1.41602 1.6211,0 2.34375,-1.43555 0.73243,-1.44531 0.73243,-4.52148 0,-3.07617 -0.73243,-4.50195 -0.72265,-1.43555 -2.34375,-1.43555 -1.60156,0 -2.33398,1.41601 -0.73242,1.40625 -0.73242,4.52149 z"
       style="font-style:normal;font-variant:normal;font-weight:normal;font-stretch:normal;font-size:20px;font-family:'Open Sans';-inkscape-font-specification:'Open Sans'"
       id="path887" />
    <path
       d="m 183.4879,104.43164 h 13.68 v 2.66 h 1.52 v -4.08 h -7.06 c -0.28,-0.68 -0.82,-1.56 -1.34,-2.24 l -1.42,0.48 c 0.38,0.52 0.76,1.18 1.04,1.76 h -7.88 v 4.08 h 1.46 z m 15.4,7.2 h -7.76 v -0.74 c 1.74,-0.92 3.52,-2.26 4.78,-3.54 l -1.02,-0.78 -0.32,0.08 h -9.5 v 1.4 h 8 c -1,0.88 -2.32,1.78 -3.48,2.34 v 1.24 h -7.8 v 1.42 h 7.8 v 4.28 c 0,0.28 -0.1,0.36 -0.48,0.38 -0.34,0.02 -1.62,0.02 -2.98,-0.02 0.26,0.38 0.56,1.04 0.68,1.46 1.66,0 2.7,-0.02 3.4,-0.26 0.7,-0.22 0.92,-0.66 0.92,-1.54 v -4.3 h 7.76 z"
       style="font-style:normal;font-variant:normal;font-weight:normal;font-stretch:normal;font-family:'Noto Sans CJK SC';-inkscape-font-specification:'Noto Sans CJK SC'"
       id="path889" />
    <path
       d="m 217.2879,107.93164 h -14.9 v 1.44 h 5.22 v 9.76 h 1.54 v -9.76 h 6.62 v 5.16 c 0,0.32 -0.1,0.4 -0.48,0.4 -0.42,0.04 -1.76,0.04 -3.22,-0.02 0.2,0.44 0.42,1.1 0.46,1.54 1.88,0 3.12,0 3.84,-0.24 0.74,-0.24 0.92,-0.74 0.92,-1.64 z m -2.72,-4.74 v -2.28 h -1.54 v 2.28 h -5.34 v -2.28 h -1.5 v 2.28 h -4.64 v 1.42 h 4.64 v 2.26 h 1.5 v -2.26 h 5.34 v 2.26 h 1.54 v -2.26 h 4.64 v -1.42 z"
       style="font-style:normal;font-variant:normal;font-weight:normal;font-stretch:normal;font-family:'Noto Sans CJK SC';-inkscape-font-specification:'Noto Sans CJK SC'"
       id="path891" />
    <path
       d="m 222.4879,100.53164 -1.2,0.62 c 2.3,2.38 3.72,5.34 3.72,8.9 0,3.56 -1.42,6.52 -3.72,8.9 l 1.2,0.62 c 2.4,-2.44 3.98,-5.62 3.98,-9.52 0,-3.9 -1.58,-7.08 -3.98,-9.52 z"
       style="font-style:normal;font-variant:normal;font-weight:normal;font-stretch:normal;font-family:'Noto Sans CJK SC';-inkscape-font-specification:'Noto Sans CJK SC'"
       id="path893" />
  </g>
  <g
     aria-label="TCP 报头"
     style="font-style:normal;font-weight:normal;font-size:40px;line-height:0;font-family:sans-serif;text-align:center;letter-spacing:0px;word-spacing:0px;writing-mode:lr-tb;text-anchor:middle;fill:#000000;fill-opacity:1;stroke:none"
     id="text925-4-8">
    <path
       d="m 281.26642,92.575058 h -1.66016 V 79.772324 h -4.52148 v -1.47461 h 10.70312 v 1.47461 h -4.52148 z"
       style="font-style:normal;font-variant:normal;font-weight:normal;font-stretch:normal;font-size:20px;font-family:'Open Sans';-inkscape-font-specification:'Open Sans'"
       id="path896" />
    <path
       d="m 294.03986,79.577011 q -2.35352,0 -3.72071,1.572266 -1.35742,1.5625 -1.35742,4.287109 0,2.802734 1.30859,4.335938 1.31836,1.523437 3.75,1.523437 1.49415,0 3.40821,-0.537109 v 1.455078 q -1.48438,0.55664 -3.66211,0.55664 -3.1543,0 -4.87305,-1.914062 -1.70898,-1.914063 -1.70898,-5.439453 0,-2.207031 0.82031,-3.867188 0.83008,-1.660156 2.38281,-2.558593 1.5625,-0.898438 3.67188,-0.898438 2.24609,0 3.92578,0.820313 l -0.70313,1.425781 q -1.62109,-0.761719 -3.24218,-0.761719 z"
       style="font-style:normal;font-variant:normal;font-weight:normal;font-stretch:normal;font-size:20px;font-family:'Open Sans';-inkscape-font-specification:'Open Sans'"
       id="path898" />
    <path
       d="m 309.5965,82.45787 q 0,2.167969 -1.48438,3.339844 -1.47461,1.16211 -4.22851,1.16211 h -1.67969 v 5.615234 h -1.66016 V 78.297714 h 3.70117 q 5.35157,0 5.35157,4.160156 z m -7.39258,3.076172 h 1.49414 q 2.20703,0 3.19336,-0.71289 0.98633,-0.712891 0.98633,-2.285157 0,-1.416015 -0.92774,-2.109375 -0.92773,-0.693359 -2.89062,-0.693359 h -1.85547 z"
       style="font-style:normal;font-variant:normal;font-weight:normal;font-stretch:normal;font-size:20px;font-family:'Open Sans';-inkscape-font-specification:'Open Sans'"
       id="path900" />
    <path
       d="m 323.34743,84.495058 -2.2,0.62 v -3.8 h 2.24 v -1.46 h -2.24 v -4 h -1.48 v 4 h -2.84 v 1.46 h 2.84 v 4.22 c -1.18,0.34 -2.26,0.62 -3.12,0.82 l 0.4,1.5 c 0.82,-0.22 1.74,-0.5 2.72,-0.78 v 5.18 c 0,0.34 -0.14,0.44 -0.48,0.44 -0.28,0.02 -1.3,0.04 -2.42,0 0.22,0.4 0.44,1.02 0.48,1.42 1.58,0 2.52,-0.02 3.1,-0.28 0.56,-0.24 0.8,-0.66 0.8,-1.58 v -5.62 l 2.4,-0.72 z m 9.18,0.18 c -0.44,1.6 -1.16,3.14 -2.14,4.5 -1.08,-1.34 -1.98,-2.88 -2.62,-4.5 z m 0.8,-1.4 -0.26,0.06 h -7.32 v -5.44 h 6.36 c -0.08,1.8 -0.2,2.58 -0.46,2.82 -0.14,0.14 -0.38,0.16 -0.8,0.16 -0.4,0 -1.7,0 -3.02,-0.12 0.24,0.36 0.4,0.86 0.42,1.26 1.32,0.06 2.58,0.08 3.22,0.04 0.66,-0.04 1.08,-0.16 1.46,-0.52 0.42,-0.44 0.6,-1.58 0.72,-4.38 0.02,-0.22 0.02,-0.64 0.02,-0.64 h -9.38 v 17.56 h 1.46 v -9.4 h 0.6 c 0.76,2.1 1.8,4.02 3.12,5.66 -1.02,1.08 -2.2,2.02 -3.58,2.72 0.34,0.3 0.76,0.74 0.98,1.08 1.34,-0.72 2.54,-1.64 3.54,-2.74 1.06,1.1 2.24,2.02 3.56,2.66 0.22,-0.4 0.68,-0.96 1.04,-1.26 -1.34,-0.56 -2.56,-1.44 -3.64,-2.54 1.42,-1.9 2.4,-4.2 2.92,-6.66 z"
       style="font-style:normal;font-variant:normal;font-weight:normal;font-stretch:normal;font-family:'Noto Sans CJK SC';-inkscape-font-specification:'Noto Sans CJK SC'"
       id="path902" />
    <path
       d="m 345.08743,79.055058 c -1,-0.8 -2.98,-1.76 -4.56,-2.32 l -0.82,1.08 c 1.6,0.6 3.56,1.64 4.54,2.44 z m -1.72,3.76 c -1,-0.84 -2.98,-1.84 -4.54,-2.42 l -0.9,1.04 c 1.6,0.64 3.56,1.72 4.5,2.54 z m 3.18,6.42 c 2.72,1.34 5.46,3.1 7.06,4.58 l 0.98,-1.12 c -1.64,-1.46 -4.5,-3.22 -7.26,-4.5 z m 0.84,-4.28 c 0.5,-2.54 0.5,-5.54 0.52,-8.9 h -1.52 c -0.02,3.46 0.02,6.44 -0.5,8.9 h -8.86 v 1.38 h 8.48 c -1.06,3.06 -3.38,5.24 -8.48,6.46 0.3,0.32 0.7,0.88 0.86,1.24 5.64,-1.42 8.1,-4.06 9.16,-7.7 h 7.62 v -1.38 z"
       style="font-style:normal;font-variant:normal;font-weight:normal;font-stretch:normal;font-family:'Noto Sans CJK SC';-inkscape-font-specification:'Noto Sans CJK SC'"
       id="path904" />
  </g>
  <g
     aria-label="（20 字节）"
     style="font-style:normal;font-weight:normal;font-size:40px;line-height:0;font-family:sans-serif;text-align:center;letter-spacing:0px;word-spacing:0px;writing-mode:lr-tb;text-anchor:middle;fill:#000000;fill-opacity:1;stroke:none"
     id="text925-4-8-7">
    <path
       d="m 278.78588,119.35423 1.2,-0.62 c -2.3,-2.38 -3.72,-5.34 -3.72,-8.9 0,-3.56 1.42,-6.52 3.72,-8.9 l -1.2,-0.62 c -2.4,2.44 -3.98,5.62 -3.98,9.52 0,3.9 1.58,7.08 3.98,9.52 z"
       style="font-style:normal;font-variant:normal;font-weight:normal;font-stretch:normal;font-family:'Noto Sans CJK SC';-inkscape-font-specification:'Noto Sans CJK SC'"
       id="path907" />
    <path
       d="m 291.26721,117.43423 h -9.38476 v -1.39649 l 3.75976,-3.77929 q 1.71875,-1.73829 2.26563,-2.48047 0.54687,-0.74219 0.82031,-1.44532 0.27344,-0.70312 0.27344,-1.51367 0,-1.14258 -0.69336,-1.80664 -0.69336,-0.67383 -1.92383,-0.67383 -0.88867,0 -1.68945,0.29297 -0.79102,0.29297 -1.76758,1.06446 l -0.85938,-1.10352 q 1.97266,-1.64062 4.29688,-1.64062 2.01172,0 3.1543,1.03515 1.14257,1.02539 1.14257,2.76367 0,1.35743 -0.76172,2.68555 -0.76171,1.32813 -2.85156,3.35938 l -3.125,3.05664 v 0.0781 h 7.34375 z"
       style="font-style:normal;font-variant:normal;font-weight:normal;font-stretch:normal;font-size:20px;font-family:'Open Sans';-inkscape-font-specification:'Open Sans'"
       id="path909" />
    <path
       d="m 302.79065,110.27602 q 0,3.70118 -1.17188,5.52735 -1.1621,1.82617 -3.56445,1.82617 -2.30469,0 -3.50586,-1.86523 -1.20117,-1.875 -1.20117,-5.48829 0,-3.73046 1.16211,-5.53711 1.16211,-1.80664 3.54492,-1.80664 2.32422,0 3.52539,1.88477 1.21094,1.88477 1.21094,5.45898 z m -7.80273,0 q 0,3.11524 0.73242,4.54102 0.73242,1.41602 2.33398,1.41602 1.6211,0 2.34375,-1.43555 0.73242,-1.44531 0.73242,-4.52149 0,-3.07617 -0.73242,-4.50195 -0.72265,-1.43555 -2.34375,-1.43555 -1.60156,0 -2.33398,1.41602 -0.73242,1.40625 -0.73242,4.52148 z"
       style="font-style:normal;font-variant:normal;font-weight:normal;font-stretch:normal;font-size:20px;font-family:'Open Sans';-inkscape-font-specification:'Open Sans'"
       id="path911" />
    <path
       d="m 312.11182,104.21423 h 13.68 v 2.66 h 1.52 v -4.08 h -7.06 c -0.28,-0.68 -0.82,-1.56 -1.34,-2.24 l -1.42,0.48 c 0.38,0.52 0.76,1.18 1.04,1.76 h -7.88 v 4.08 h 1.46 z m 15.4,7.2 h -7.76 v -0.74 c 1.74,-0.92 3.52,-2.26 4.78,-3.54 l -1.02,-0.78 -0.32,0.08 h -9.5 v 1.4 h 8 c -1,0.88 -2.32,1.78 -3.48,2.34 v 1.24 h -7.8 v 1.42 h 7.8 v 4.28 c 0,0.28 -0.1,0.36 -0.48,0.38 -0.34,0.02 -1.62,0.02 -2.98,-0.02 0.26,0.38 0.56,1.04 0.68,1.46 1.66,0 2.7,-0.02 3.4,-0.26 0.7,-0.22 0.92,-0.66 0.92,-1.54 v -4.3 h 7.76 z"
       style="font-style:normal;font-variant:normal;font-weight:normal;font-stretch:normal;font-family:'Noto Sans CJK SC';-inkscape-font-specification:'Noto Sans CJK SC'"
       id="path913" />
    <path
       d="m 345.91182,107.71423 h -14.9 v 1.44 h 5.22 v 9.76 h 1.54 v -9.76 h 6.62 v 5.16 c 0,0.32 -0.1,0.4 -0.48,0.4 -0.42,0.04 -1.76,0.04 -3.22,-0.02 0.2,0.44 0.42,1.1 0.46,1.54 1.88,0 3.12,0 3.84,-0.24 0.74,-0.24 0.92,-0.74 0.92,-1.64 z m -2.72,-4.74 v -2.28 h -1.54 v 2.28 h -5.34 v -2.28 h -1.5 v 2.28 h -4.64 v 1.42 h 4.64 v 2.26 h 1.5 v -2.26 h 5.34 v 2.26 h 1.54 v -2.26 h 4.64 v -1.42 z"
       style="font-style:normal;font-variant:normal;font-weight:normal;font-stretch:normal;font-family:'Noto Sans CJK SC';-inkscape-font-specification:'Noto Sans CJK SC'"
       id="path915" />
    <path
       d="m 351.11182,100.31423 -1.2,0.62 c 2.3,2.38 3.72,5.34 3.72,8.9 0,3.56 -1.42,6.52 -3.72,8.9 l 1.2,0.62 c 2.4,-2.44 3.98,-5.62 3.98,-9.52 0,-3.9 -1.58,-7.08 -3.98,-9.52 z"
       style="font-style:normal;font-variant:normal;font-weight:normal;font-stretch:normal;font-family:'Noto Sans CJK SC';-inkscape-font-specification:'Noto Sans CJK SC'"
       id="path917" />
  </g>
  <g
     aria-label="使用数据"
     style="font-style:normal;font-weight:normal;font-size:40px;line-height:0;font-family:sans-serif;text-align:center;letter-spacing:0px;word-spacing:0px;writing-mode:lr-tb;text-anchor:middle;fill:#000000;fill-opacity:1;stroke:none"
     id="text925-4-8-0">
    <path
       d="m 545.44108,75.523864 c -1.16,3.02 -3.1,6 -5.12,7.9 0.28,0.34 0.7,1.1 0.84,1.44 0.74,-0.74 1.5,-1.62 2.2,-2.6 v 11.66 h 1.42 v -13.8 c 0.78,-1.34 1.5,-2.76 2.06,-4.16 z m 2.82,9.8 v -2.96 h 3.56 v 2.06 c 0,0.3 0,0.6 -0.02,0.9 z m 8.7,-2.96 v 2.96 h -3.7 c 0.02,-0.3 0.02,-0.6 0.02,-0.9 v -2.06 z m 1.42,4.22 v -5.48 h -5.1 v -1.96 h 5.76 v -1.36 h -5.76 v -2.14 h -1.46 v 2.14 h -5.52 v 1.36 h 5.52 v 1.96 h -4.94 v 5.48 h 4.84 c -0.14,1.1 -0.44,2.14 -1.08,3.08 -1.06,-0.74 -1.92,-1.62 -2.52,-2.66 l -1.24,0.4 c 0.74,1.28 1.72,2.36 2.9,3.26 -0.92,0.82 -2.26,1.52 -4.22,2.02 0.32,0.28 0.74,0.9 0.9,1.22 2.08,-0.62 3.52,-1.46 4.52,-2.44 2.04,1.22 4.54,2 7.36,2.42 0.2,-0.44 0.56,-1.02 0.88,-1.34 -2.84,-0.34 -5.36,-1.02 -7.36,-2.12 0.8,-1.16 1.16,-2.46 1.32,-3.84 z"
       style="font-style:normal;font-variant:normal;font-weight:normal;font-stretch:normal;font-size:20px;font-family:'Noto Sans CJK SC';-inkscape-font-specification:'Noto Sans CJK SC'"
       id="path920" />
    <path
       d="m 570.70108,86.323864 v -3.32 h 5.38 v 3.32 z m -6.34,0 c 0.06,-0.74 0.08,-1.48 0.08,-2.14 v -1.18 h 4.78 v 3.32 z m 4.86,-7.92 v 3.2 h -4.78 v -3.2 z m 6.86,3.2 h -5.38 v -3.2 h 5.38 z m 1.46,-4.62 h -14.56 v 7.2 c 0,2.78 -0.2,6.3 -2.4,8.78 0.32,0.18 0.92,0.68 1.14,0.98 1.52,-1.7 2.2,-3.98 2.5,-6.2 h 5 v 5.9 h 1.48 v -5.9 h 5.38 v 4.06 c 0,0.38 -0.14,0.5 -0.54,0.52 -0.36,0 -1.72,0.02 -3.12,-0.04 0.2,0.4 0.44,1.04 0.5,1.44 1.88,0.02 3.04,0 3.72,-0.24 0.64,-0.26 0.9,-0.7 0.9,-1.66 z"
       style="font-style:normal;font-variant:normal;font-weight:normal;font-stretch:normal;font-size:20px;font-family:'Noto Sans CJK SC';-inkscape-font-specification:'Noto Sans CJK SC'"
       id="path922" />
    <path
       d="m 588.74108,75.943864 c -0.34,0.8 -1,1.94 -1.5,2.66 l 0.96,0.46 c 0.56,-0.66 1.2,-1.66 1.78,-2.56 z m -4.68,2.7 c -0.2,-0.74 -0.74,-1.8 -1.3,-2.58 l -1.08,0.44 c 0.54,0.82 1.06,1.92 1.24,2.62 z m 0.98,5.6 h 1.38 v -2.74 c 0.96,0.68 2.2,1.66 2.68,2.12 l 0.82,-1.08 c -0.46,-0.34 -2.18,-1.46 -3.18,-2.04 h 3.76 v -1.24 h -4.08 v -3.7 h -1.38 v 3.7 h -4.12 v 1.24 h 3.66 c -0.98,1.3 -2.46,2.52 -3.86,3.12 0.28,0.28 0.64,0.78 0.8,1.12 1.22,-0.64 2.52,-1.74 3.52,-2.92 z m 3.04,2.86 c -0.44,1.04 -1.08,1.92 -1.86,2.64 -0.72,-0.36 -1.52,-0.74 -2.26,-1.06 0.28,-0.46 0.58,-1.02 0.88,-1.58 z m 0.98,4.3 c -0.44,-0.32 -1.04,-0.68 -1.68,-1.04 1.06,-1.12 1.88,-2.52 2.4,-4.24 l -0.84,-0.34 -0.22,0.06 h -3.26 c 0.16,-0.36 0.28,-0.7 0.42,-1.04 l -1.32,-0.24 c -0.14,0.42 -0.32,0.84 -0.52,1.28 h -2.7 v 1.26 h 2.08 c -0.42,0.78 -0.86,1.52 -1.28,2.12 0.98,0.36 2.06,0.86 3.06,1.38 -1.3,0.92 -2.82,1.56 -4.44,1.92 0.26,0.28 0.56,0.82 0.7,1.14 1.82,-0.48 3.52,-1.26 4.94,-2.4 0.68,0.38 1.28,0.78 1.74,1.12 z m 6.94,-10.6 c -0.3,2.3 -0.78,4.3 -1.5,5.98 -0.76,-1.78 -1.32,-3.82 -1.7,-5.98 z m 2.74,0 v -1.38 h -5.64 c 0.28,-1.12 0.52,-2.28 0.68,-3.46 l -1.36,-0.2 c -0.5,3.46 -1.4,6.8 -2.92,8.9 0.32,0.2 0.88,0.66 1.12,0.9 0.5,-0.76 0.96,-1.64 1.36,-2.62 0.44,1.98 1,3.78 1.76,5.34 -1.12,1.9 -2.68,3.36 -4.84,4.42 0.26,0.28 0.68,0.88 0.82,1.2 2.04,-1.1 3.56,-2.5 4.74,-4.24 0.98,1.7 2.24,3.06 3.78,4 0.22,-0.38 0.64,-0.88 0.98,-1.16 -1.66,-0.88 -2.96,-2.36 -3.98,-4.18 1.06,-2.06 1.72,-4.54 2.18,-7.52 z"
       style="font-style:normal;font-variant:normal;font-weight:normal;font-stretch:normal;font-size:20px;font-family:'Noto Sans CJK SC';-inkscape-font-specification:'Noto Sans CJK SC'"
       id="path924" />
    <path
       d="m 606.92108,85.623864 -0.2,-1.36 -2.08,0.66 v -3.96 h 2.26 v -1.38 h -2.26 v -4 h -1.38 v 4 h -2.48 v 1.38 h 2.48 v 4.38 c -1.04,0.3 -1.98,0.58 -2.72,0.8 l 0.36,1.42 c 0.72,-0.22 1.52,-0.46 2.36,-0.74 v 5.14 c 0,0.3 -0.1,0.38 -0.34,0.38 -0.22,0 -1.02,0 -1.88,-0.02 0.2,0.42 0.38,1.02 0.44,1.38 1.26,0.02 2.02,-0.04 2.48,-0.28 0.5,-0.24 0.68,-0.62 0.68,-1.44 v -5.62 z m 2.28,-1.84 c 0.02,-0.48 0.02,-0.9 0.02,-1.34 v -0.86 h 3.86 v 2.2 z m 7.64,-6.04 v 2.54 h -7.62 v -2.54 z m 0.14,14.06 h -6.14 v -3.02 h 6.14 z m 1.96,-6.74 v -1.28 h -4.44 v -2.2 h 3.76 v -5.14 h -10.48 v 6 c 0,3.16 -0.18,7.5 -2.24,10.56 0.34,0.14 0.96,0.56 1.2,0.84 1.68,-2.46 2.22,-5.82 2.4,-8.78 h 3.94 v 2.46 h -3.54 v 6.34 h 1.3 v -0.82 h 6.14 v 0.74 h 1.36 v -6.26 h -3.84 v -2.46 z"
       style="font-style:normal;font-variant:normal;font-weight:normal;font-stretch:normal;font-size:20px;font-family:'Noto Sans CJK SC';-inkscape-font-specification:'Noto Sans CJK SC'"
       id="path926" />
  </g>
  <g
     aria-label="（最大 1460 字节）"
     style="font-style:normal;font-weight:normal;font-size:40px;line-height:0;font-family:sans-serif;text-align:center;letter-spacing:0px;word-spacing:0px;writing-mode:lr-tb;text-anchor:middle;fill:#000000;fill-opacity:1;stroke:none"
     id="text925-4-8-0-4">
    <path
       d="m 509.67303,119.15613 1.2,-0.62 c -2.3,-2.38 -3.72,-5.34 -3.72,-8.9 0,-3.56 1.42,-6.52 3.72,-8.9 l -1.2,-0.62 c -2.4,2.44 -3.98,5.62 -3.98,9.52 0,3.9 1.58,7.08 3.98,9.52 z"
       style="font-style:normal;font-variant:normal;font-weight:normal;font-stretch:normal;font-family:'Noto Sans CJK SC';-inkscape-font-specification:'Noto Sans CJK SC'"
       id="path929" />
    <path
       d="m 526.83303,103.57613 h -10.06 v -1.36 h 10.06 z m 0,2.42 h -10.06 v -1.42 h 10.06 z m 1.46,-4.84 h -12.94 v 5.9 h 12.94 z m -12.18,13.2 h 3.62 v 1.24 c -1.26,0.16 -2.48,0.3 -3.62,0.42 z m 3.62,-4.96 v 1.34 h -3.62 v -1.34 z m -3.62,2.46 h 3.62 v 1.4 h -3.62 z m 6.12,4.66 v -1.2 l -1.08,0.12 v -6.04 h 9.54 v -1.24 h -17.84 v 1.24 h 1.9 v 6.74 c -0.7,0.08 -1.38,0.14 -1.96,0.2 l 0.16,1.32 c 1.86,-0.22 4.3,-0.52 6.78,-0.82 v 1.94 h 1.42 v -2.12 z m 6.18,-4.66 c -0.54,1.18 -1.32,2.2 -2.22,3.08 -0.92,-0.88 -1.64,-1.92 -2.16,-3.08 z m 0.88,-1.26 -0.28,0.04 h -7.08 v 1.22 h 1.2 l -0.4,0.12 c 0.6,1.44 1.42,2.74 2.46,3.8 -1.1,0.82 -2.34,1.44 -3.58,1.84 0.26,0.26 0.62,0.76 0.76,1.1 1.32,-0.48 2.62,-1.16 3.78,-2.06 1.14,0.92 2.46,1.6 3.96,2.06 0.2,-0.38 0.58,-0.9 0.88,-1.18 -1.44,-0.38 -2.72,-0.98 -3.8,-1.76 1.3,-1.28 2.32,-2.86 2.94,-4.82 z"
       style="font-style:normal;font-variant:normal;font-weight:normal;font-stretch:normal;font-family:'Noto Sans CJK SC';-inkscape-font-specification:'Noto Sans CJK SC'"
       id="path931" />
    <path
       d="m 550.57303,107.73613 v -1.52 h -8.26 c 0.28,-2.1 0.3,-4.08 0.32,-5.68 h -1.6 c -0.02,1.58 0,3.58 -0.3,5.68 h -7.62 v 1.52 h 7.38 c -0.82,3.78 -2.82,7.62 -7.78,9.78 0.42,0.3 0.9,0.82 1.12,1.22 4.86,-2.22 7.02,-6.06 7.98,-9.9 1.58,4.54 4.12,8.08 7.96,9.9 0.26,-0.44 0.76,-1.06 1.12,-1.4 -3.86,-1.58 -6.46,-5.2 -7.86,-9.6 z"
       style="font-style:normal;font-variant:normal;font-weight:normal;font-stretch:normal;font-family:'Noto Sans CJK SC';-inkscape-font-specification:'Noto Sans CJK SC'"
       id="path933" />
    <path
       d="m 563.97076,117.23613 h -1.58203 v -10.17578 q 0,-1.26953 0.0781,-2.40235 -0.20508,0.20508 -0.45899,0.42969 -0.2539,0.22461 -2.32422,1.9043 l -0.85937,-1.11328 3.7793,-2.91992 h 1.36718 z"
       style="font-style:normal;font-variant:normal;font-weight:normal;font-stretch:normal;font-size:20px;font-family:'Open Sans';-inkscape-font-specification:'Open Sans'"
       id="path935" />
    <path
       d="m 579.46881,113.95488 h -2.11914 v 3.28125 h -1.55273 v -3.28125 h -6.94336 v -1.41602 l 6.77734,-9.6582 h 1.71875 v 9.59961 h 2.11914 z m -3.67187,-1.47461 v -4.74609 q 0,-1.39649 0.0977,-3.1543 h -0.0781 q -0.46875,0.9375 -0.87891,1.55273 l -4.46289,6.34766 z"
       style="font-style:normal;font-variant:normal;font-weight:normal;font-stretch:normal;font-size:20px;font-family:'Open Sans';-inkscape-font-specification:'Open Sans'"
       id="path937" />
    <path
       d="m 581.02155,111.13261 q 0,-4.20898 1.63085,-6.28906 1.64063,-2.08984 4.84375,-2.08984 1.10352,0 1.73829,0.18554 v 1.39649 q -0.75196,-0.24414 -1.71875,-0.24414 -2.29493,0 -3.50586,1.43555 -1.21094,1.42578 -1.32813,4.49218 h 0.11719 q 1.07422,-1.67968 3.39844,-1.67968 1.92382,0 3.02734,1.1621 1.11328,1.16211 1.11328,3.1543 0,2.22656 -1.2207,3.50586 -1.21094,1.26953 -3.28125,1.26953 -2.2168,0 -3.51563,-1.66015 -1.29882,-1.66993 -1.29882,-4.63868 z m 4.79492,4.92188 q 1.38672,0 2.14843,-0.86914 0.77149,-0.87891 0.77149,-2.5293 0,-1.41601 -0.71289,-2.22656 -0.71289,-0.81055 -2.12891,-0.81055 -0.8789,0 -1.61133,0.36133 -0.73242,0.36133 -1.17187,0.99609 -0.42969,0.63477 -0.42969,1.31836 0,1.00586 0.39063,1.875 0.39062,0.86914 1.10351,1.37696 0.72266,0.50781 1.64063,0.50781 z"
       style="font-style:normal;font-variant:normal;font-weight:normal;font-stretch:normal;font-size:20px;font-family:'Open Sans';-inkscape-font-specification:'Open Sans'"
       id="path939" />
    <path
       d="m 601.76373,110.07793 q 0,3.70117 -1.17187,5.52734 -1.16211,1.82617 -3.56446,1.82617 -2.30468,0 -3.50585,-1.86523 -1.20118,-1.875 -1.20118,-5.48828 0,-3.73047 1.16211,-5.53711 1.16211,-1.80664 3.54492,-1.80664 2.32422,0 3.5254,1.88476 1.21093,1.88477 1.21093,5.45899 z m -7.80273,0 q 0,3.11523 0.73242,4.54101 0.73242,1.41602 2.33398,1.41602 1.6211,0 2.34375,-1.43555 0.73243,-1.44531 0.73243,-4.52148 0,-3.07618 -0.73243,-4.50196 -0.72265,-1.43554 -2.34375,-1.43554 -1.60156,0 -2.33398,1.41601 -0.73242,1.40625 -0.73242,4.52149 z"
       style="font-style:normal;font-variant:normal;font-weight:normal;font-stretch:normal;font-size:20px;font-family:'Open Sans';-inkscape-font-specification:'Open Sans'"
       id="path941" />
    <path
       d="m 611.0849,104.01613 h 13.68 v 2.66 h 1.52 v -4.08 h -7.06 c -0.28,-0.68 -0.82,-1.56 -1.34,-2.24 l -1.42,0.48 c 0.38,0.52 0.76,1.18 1.04,1.76 h -7.88 v 4.08 h 1.46 z m 15.4,7.2 h -7.76 v -0.74 c 1.74,-0.92 3.52,-2.26 4.78,-3.54 l -1.02,-0.78 -0.32,0.08 h -9.5 v 1.4 h 8 c -1,0.88 -2.32,1.78 -3.48,2.34 v 1.24 h -7.8 v 1.42 h 7.8 v 4.28 c 0,0.28 -0.1,0.36 -0.48,0.38 -0.34,0.02 -1.62,0.02 -2.98,-0.02 0.26,0.38 0.56,1.04 0.68,1.46 1.66,0 2.7,-0.02 3.4,-0.26 0.7,-0.22 0.92,-0.66 0.92,-1.54 v -4.3 h 7.76 z"
       style="font-style:normal;font-variant:normal;font-weight:normal;font-stretch:normal;font-family:'Noto Sans CJK SC';-inkscape-font-specification:'Noto Sans CJK SC'"
       id="path943" />
    <path
       d="m 644.8849,107.51613 h -14.9 v 1.44 h 5.22 v 9.76 h 1.54 v -9.76 h 6.62 v 5.16 c 0,0.32 -0.1,0.4 -0.48,0.4 -0.42,0.04 -1.76,0.04 -3.22,-0.02 0.2,0.44 0.42,1.1 0.46,1.54 1.88,0 3.12,0 3.84,-0.24 0.74,-0.24 0.92,-0.74 0.92,-1.64 z m -2.72,-4.74 v -2.28 h -1.54 v 2.28 h -5.34 v -2.28 h -1.5 v 2.28 h -4.64 v 1.42 h 4.64 v 2.26 h 1.5 v -2.26 h 5.34 v 2.26 h 1.54 v -2.26 h 4.64 v -1.42 z"
       style="font-style:normal;font-variant:normal;font-weight:normal;font-stretch:normal;font-family:'Noto Sans CJK SC';-inkscape-font-specification:'Noto Sans CJK SC'"
       id="path945" />
    <path
       d="m 650.0849,100.11613 -1.2,0.62 c 2.3,2.38 3.72,5.34 3.72,8.9 0,3.56 -1.42,6.52 -3.72,8.9 l 1.2,0.62 c 2.4,-2.44 3.98,-5.62 3.98,-9.52 0,-3.9 -1.58,-7.08 -3.98,-9.52 z"
       style="font-style:normal;font-variant:normal;font-weight:normal;font-stretch:normal;font-family:'Noto Sans CJK SC';-inkscape-font-specification:'Noto Sans CJK SC'"
       id="path947" />
  </g>
  <g
     aria-label="校验和"
     style="font-style:normal;font-weight:normal;font-size:40px;line-height:0;font-family:sans-serif;text-align:center;letter-spacing:0px;word-spacing:0px;writing-mode:lr-tb;text-anchor:middle;fill:#000000;fill-opacity:1;stroke:none"
     id="text925-4-8-0-0">
    <path
       d="m 818.81172,78.272128 h -5.82 l 1.3,-0.6 c -0.32,-0.7 -1,-1.7 -1.68,-2.44 l -1.24,0.54 c 0.62,0.74 1.26,1.8 1.58,2.5 h -5.04 v 1.38 h 10.9 z m -4.56,2.58 c 1.28,1.26 2.78,3.06 3.42,4.24 l 1.1,-0.92 c -0.66,-1.14 -2.2,-2.88 -3.5,-4.1 z m -3.7,-0.68 c -0.7,1.4 -1.96,3.08 -3.26,4.14 0.32,0.24 0.8,0.64 1.04,0.9 1.32,-1.16 2.66,-2.86 3.56,-4.44 z m -3.02,5.48 c -0.34,-0.6 -1.88,-3.22 -2.36,-3.9 v -0.8 h 2.24 v -1.4 h -2.24 v -4.22 h -1.36 v 4.22 h -2.6 v 1.4 h 2.32 c -0.56,2.74 -1.76,5.92 -2.98,7.58 0.28,0.36 0.64,1 0.8,1.42 0.92,-1.4 1.8,-3.68 2.46,-6.04 v 9.68 h 1.36 v -9.9 c 0.54,1.08 1.2,2.4 1.46,3.08 z m 7.54,-1.98 c -0.44,1.6 -1.1,3.02 -2,4.28 -0.98,-1.24 -1.74,-2.64 -2.3,-4.2 l -1.28,0.36 c 0.66,1.84 1.54,3.52 2.66,4.96 -1.32,1.4 -2.98,2.56 -5,3.44 0.32,0.26 0.74,0.8 0.94,1.12 2,-0.9 3.66,-2.06 5,-3.46 1.38,1.44 3.08,2.58 5.04,3.3 0.22,-0.4 0.66,-1 1,-1.28 -1.98,-0.66 -3.68,-1.74 -5.08,-3.14 1.08,-1.44 1.9,-3.12 2.44,-5.02 z"
       style="font-style:normal;font-variant:normal;font-weight:normal;font-stretch:normal;font-size:20px;font-family:'Noto Sans CJK SC';-inkscape-font-specification:'Noto Sans CJK SC'"
       id="path950" />
    <path
       d="m 825.87172,87.772128 c -1.96,0.5 -3.9,1.02 -5.26,1.32 l 0.28,1.24 c 1.5,-0.4 3.32,-0.92 5.12,-1.42 z m 0.74,-3.14 c 0.26,-2.16 0.54,-5.72 0.74,-8.4 h -6.1 v 1.3 h 4.74 c -0.16,2.4 -0.42,5.2 -0.66,7.1 h -2.46 c 0.18,-1.66 0.38,-3.82 0.5,-5.56 l -1.28,-0.06 c -0.12,2.12 -0.38,5.1 -0.62,6.84 h 5.32 c -0.26,4.08 -0.56,5.7 -0.98,6.12 -0.18,0.22 -0.38,0.24 -0.7,0.24 -0.38,0 -1.3,-0.02 -2.28,-0.12 0.24,0.36 0.38,0.86 0.42,1.26 0.94,0.04 1.88,0.06 2.36,0.02 0.6,-0.04 0.96,-0.18 1.32,-0.58 0.6,-0.64 0.9,-2.52 1.22,-7.54 0.02,-0.18 0.02,-0.62 0.02,-0.62 z m 6.58,-9.44 c -1.2,2.8 -3.4,5.24 -5.76,6.76 0.24,0.28 0.7,0.9 0.88,1.18 1.88,-1.32 3.68,-3.18 5.02,-5.36 1.4,1.94 3.44,4 5.22,5.32 0.14,-0.42 0.48,-1.04 0.74,-1.38 -1.82,-1.2 -3.98,-3.3 -5.24,-5.18 0.14,-0.3 0.3,-0.58 0.44,-0.9 z m 3.28,6.32 h -5.92 v 1.28 h 5.92 z m -1.7,7.4 c -0.12,-1.3 -0.48,-3.22 -0.86,-4.74 l -1.18,0.16 c 0.36,1.52 0.72,3.48 0.8,4.76 z m -5.52,-4.08 c 0.56,1.52 1.12,3.48 1.26,4.78 l 1.22,-0.34 c -0.2,-1.26 -0.74,-3.22 -1.32,-4.72 z m 7.98,-0.4 c -0.66,2.1 -1.86,5.06 -2.84,6.9 h -5.78 v 1.3 h 10.12 v -1.3 h -3.06 c 0.98,-1.82 2.08,-4.44 2.92,-6.54 z"
       style="font-style:normal;font-variant:normal;font-weight:normal;font-stretch:normal;font-size:20px;font-family:'Noto Sans CJK SC';-inkscape-font-specification:'Noto Sans CJK SC'"
       id="path952" />
    <path
       d="m 846.33172,77.612128 c 1.24,-0.26 2.42,-0.58 3.34,-0.92 l -1,-1.16 c -1.76,0.7 -4.88,1.3 -7.52,1.66 0.18,0.34 0.34,0.82 0.42,1.18 1.06,-0.14 2.18,-0.3 3.3,-0.48 v 3.32 h -3.9 v 1.38 h 3.52 c -0.9,2.5 -2.5,5.24 -4.02,6.76 0.28,0.36 0.66,0.96 0.82,1.36 1.28,-1.38 2.6,-3.64 3.58,-5.96 v 8.8 h 1.46 v -8.74 c 0.86,1.12 1.98,2.62 2.44,3.38 l 0.9,-1.22 c -0.5,-0.62 -2.58,-3.06 -3.34,-3.86 v -0.52 h 3.48 v -1.38 h -3.48 z m 5.62,12.02 v -11.02 h 4.46 v 11.02 z m -1.46,-12.44 v 15.52 h 1.46 v -1.64 h 4.46 v 1.5 h 1.48 v -15.38 z"
       style="font-style:normal;font-variant:normal;font-weight:normal;font-stretch:normal;font-size:20px;font-family:'Noto Sans CJK SC';-inkscape-font-specification:'Noto Sans CJK SC'"
       id="path954" />
  </g>
  <g
     aria-label="（2 字节）"
     style="font-style:normal;font-weight:normal;font-size:40px;line-height:0;font-family:sans-serif;text-align:center;letter-spacing:0px;word-spacing:0px;writing-mode:lr-tb;text-anchor:middle;fill:#000000;fill-opacity:1;stroke:none"
     id="text925-4-8-0-0-7-0">
    <path
       d="m 799.72393,118.27118 1.2,-0.62 c -2.3,-2.38 -3.72,-5.34 -3.72,-8.9 0,-3.56 1.42,-6.52 3.72,-8.899999 l -1.2,-0.62 c -2.4,2.439999 -3.98,5.619999 -3.98,9.519999 0,3.9 1.58,7.08 3.98,9.52 z"
       style="font-style:normal;font-variant:normal;font-weight:normal;font-stretch:normal;font-family:'Noto Sans CJK SC';-inkscape-font-specification:'Noto Sans CJK SC'"
       id="path957" />
    <path
       d="m 812.20526,116.35118 h -9.38476 v -1.39648 l 3.75976,-3.7793 q 1.71875,-1.73828 2.26563,-2.48047 0.54687,-0.74219 0.82031,-1.44531 0.27344,-0.70313 0.27344,-1.51367 0,-1.14258 -0.69336,-1.80664 -0.69336,-0.67383 -1.92383,-0.67383 -0.88867,0 -1.68945,0.29297 -0.79102,0.29297 -1.76758,1.06445 l -0.85938,-1.10352 q 1.97266,-1.64062 4.29688,-1.64062 2.01172,0 3.15429,1.03516 1.14258,1.02539 1.14258,2.76367 0,1.35742 -0.76172,2.68554 -0.76172,1.32813 -2.85156,3.35938 l -3.125,3.05664 v 0.0781 h 7.34375 z"
       style="font-style:normal;font-variant:normal;font-weight:normal;font-stretch:normal;font-size:20px;font-family:'Open Sans';-inkscape-font-specification:'Open Sans'"
       id="path959" />
    <path
       d="m 821.60456,103.13118 h 13.68 v 2.66 h 1.52 v -4.08 h -7.06 c -0.28,-0.68 -0.82,-1.56 -1.34,-2.239999 l -1.42,0.48 c 0.38,0.519999 0.76,1.179999 1.04,1.759999 h -7.88 v 4.08 h 1.46 z m 15.4,7.2 h -7.76 v -0.74 c 1.74,-0.92 3.52,-2.26 4.78,-3.54 l -1.02,-0.78 -0.32,0.08 h -9.5 v 1.4 h 8 c -1,0.88 -2.32,1.78 -3.48,2.34 v 1.24 h -7.8 v 1.42 h 7.8 v 4.28 c 0,0.28 -0.1,0.36 -0.48,0.38 -0.34,0.02 -1.62,0.02 -2.98,-0.02 0.26,0.38 0.56,1.04 0.68,1.46 1.66,0 2.7,-0.02 3.4,-0.26 0.7,-0.22 0.92,-0.66 0.92,-1.54 v -4.3 h 7.76 z"
       style="font-style:normal;font-variant:normal;font-weight:normal;font-stretch:normal;font-family:'Noto Sans CJK SC';-inkscape-font-specification:'Noto Sans CJK SC'"
       id="path961" />
    <path
       d="m 855.40456,106.63118 h -14.9 v 1.44 h 5.22 v 9.76 h 1.54 v -9.76 h 6.62 v 5.16 c 0,0.32 -0.1,0.4 -0.48,0.4 -0.42,0.04 -1.76,0.04 -3.22,-0.02 0.2,0.44 0.42,1.1 0.46,1.54 1.88,0 3.12,0 3.84,-0.24 0.74,-0.24 0.92,-0.74 0.92,-1.64 z m -2.72,-4.74 v -2.279999 h -1.54 v 2.279999 h -5.34 v -2.279999 h -1.5 v 2.279999 h -4.64 v 1.42 h 4.64 v 2.26 h 1.5 v -2.26 h 5.34 v 2.26 h 1.54 v -2.26 h 4.64 v -1.42 z"
       style="font-style:normal;font-variant:normal;font-weight:normal;font-stretch:normal;font-family:'Noto Sans CJK SC';-inkscape-font-specification:'Noto Sans CJK SC'"
       id="path963" />
    <path
       d="m 860.60456,99.231181 -1.2,0.62 c 2.3,2.379999 3.72,5.339999 3.72,8.899999 0,3.56 -1.42,6.52 -3.72,8.9 l 1.2,0.62 c 2.4,-2.44 3.98,-5.62 3.98,-9.52 0,-3.9 -1.58,-7.08 -3.98,-9.519999 z"
       style="font-style:normal;font-variant:normal;font-weight:normal;font-stretch:normal;font-family:'Noto Sans CJK SC';-inkscape-font-specification:'Noto Sans CJK SC'"
       id="path965" />
  </g>
</svg>
