<?xml version="1.0" encoding="UTF-8" standalone="no"?>
<svg
   xmlns:dc="http://purl.org/dc/elements/1.1/"
   xmlns:cc="http://creativecommons.org/ns#"
   xmlns:rdf="http://www.w3.org/1999/02/22-rdf-syntax-ns#"
   xmlns:svg="http://www.w3.org/2000/svg"
   xmlns="http://www.w3.org/2000/svg"
   xmlns:xlink="http://www.w3.org/1999/xlink"
   id="svg137"
   version="1.1"
   height="447"
   width="1087">
  <metadata
     id="metadata141">
    <rdf:RDF>
      <cc:Work
         rdf:about="">
        <dc:format>image/svg+xml</dc:format>
        <dc:type
           rdf:resource="http://purl.org/dc/dcmitype/StillImage" />
        <dc:title></dc:title>
      </cc:Work>
    </rdf:RDF>
  </metadata>
  <defs
     id="defs86">
    <linearGradient
       id="linearGradient5393">
      <stop
         id="stop5395"
         offset="0"
         style="stop-color:#ffffff;stop-" />
      <stop
         id="stop5397"
         offset="1"
         style="stop-color:#ffffff;stop-opacity:0;" />
    </linearGradient>
    <linearGradient
       gradientTransform="matrix(1,0,0,1.1566265,0,-1.722893)"
       gradientUnits="userSpaceOnUse"
       y2="41.785362"
       x2="967.62579"
       y1="41.785362"
       x1="1109.5564"
       id="linearGradient5399"
       xlink:href="#linearGradient5393" />
  </defs>
  <rect
     id="rect7"
     style="fill:#71d6e0"
     width="1037.5"
     height="28"
     x="1"
     y="409"
     rx="3"
     ry="3" />
  <path
     id="path9"
     style="fill:#71d6e0"
     d="m 1086,423 -50,-14 v 28 z" />
  <text
     id="text11"
     y="429.6925"
     x="537.9303"
     style="font-weight:600;font-size:18.75px;font-family:'Open Sans';fill:#5f5f5f"
     xml:space="preserve">TIME</text>
  <rect
     id="rect13"
     style="fill:#ededed;stroke-width:1.07546568"
     width="968"
     height="192"
     x="1"
     y="195"
     rx="5"
     ry="5.7831326" />
  <rect
     id="rect15"
     y="265"
     x="425"
     height="26"
     width="190"
     style="fill:#02d35f" />
  <rect
     id="rect17"
     y="317"
     x="155"
     height="26"
     width="190"
     style="fill:#02d35f" />
  <text
     id="text19"
     y="232.8459"
     x="17.084473"
     style="font-weight:600;font-size:18.75px;font-family:'Open Sans';fill:#00c081"
     xml:space="preserve">SLES 12</text>
  <rect
     id="rect21"
     y="343"
     x="20"
     height="26"
     width="190"
     style="fill:#02d35f" />
  <rect
     id="rect23"
     y="317"
     x="155"
     height="52"
     width="55"
     style="opacity:0.5;fill:#92ecba" />
  <rect
     id="rect25"
     y="291"
     x="290"
     height="26"
     width="190"
     style="fill:#02d35f" />
  <rect
     id="rect27"
     y="291"
     x="290"
     height="52"
     width="55"
     style="opacity:0.5;fill:#92ecba" />
  <rect
     id="rect29"
     y="265"
     x="425"
     height="52"
     width="55"
     style="opacity:0.5;fill:#92ecba" />
  <rect
     id="rect31"
     y="239"
     x="560"
     height="26"
     width="230"
     style="fill:#02d35f" />
  <rect
     id="rect33"
     y="239"
     x="560"
     height="52"
     width="55"
     style="opacity:0.5;fill:#92ecba" />
  <rect
     id="rect37"
     style="fill:#a7a9ac;fill-opacity:0.58823529"
     width="190"
     height="2"
     x="155"
     y="341" />
  <rect
     id="rect39"
     style="fill:#a7a9ac;fill-opacity:0.58823529"
     width="190"
     height="2"
     x="20"
     y="367" />
  <rect
     id="rect41"
     style="fill:#a7a9ac;fill-opacity:0.58823529"
     width="190"
     height="2"
     x="290"
     y="315" />
  <rect
     id="rect43"
     style="fill:#a7a9ac;fill-opacity:0.58823529"
     width="190"
     height="2"
     x="425"
     y="289" />
  <rect
     id="rect45"
     style="fill:#dcddde;stroke-width:1.07546568"
     width="574"
     height="192"
     x="510"
     y="11"
     rx="5"
     ry="5.7831326" />
  <rect
     id="rect47"
     y="81"
     x="934"
     height="26"
     width="150"
     style="fill:#02d35f" />
  <rect
     id="rect49"
     y="133"
     x="664"
     height="26"
     width="190"
     style="fill:#02d35f" />
  <text
     id="text51"
     y="48.727894"
     x="526.08447"
     style="font-weight:600;font-size:18.75px;font-family:'Open Sans';fill:#00c081"
     xml:space="preserve">SLES 15</text>
  <rect
     id="rect53"
     y="159"
     x="529"
     height="26"
     width="190"
     style="fill:#02d35f" />
  <rect
     id="rect55"
     y="133"
     x="664"
     height="52"
     width="55"
     style="opacity:0.5;fill:#92ecba" />
  <rect
     id="rect57"
     y="107"
     x="799"
     height="26"
     width="190"
     style="fill:#02d35f" />
  <rect
     id="rect59"
     y="107"
     x="799"
     height="52"
     width="55"
     style="opacity:0.5;fill:#92ecba" />
  <rect
     id="rect61"
     y="81"
     x="934"
     height="52"
     width="55"
     style="opacity:0.5;fill:#92ecba" />
  <rect
     id="rect63"
     y="55"
     x="1069"
     height="52"
     width="15"
     style="opacity:0.5;fill:#92ecba" />
  <rect
     id="rect65"
     style="fill:#a7a9ac;fill-opacity:0.58823529"
     width="190"
     height="2"
     x="664"
     y="157" />
  <rect
     id="rect67"
     style="fill:#a7a9ac;fill-opacity:0.58823529"
     width="190"
     height="2"
     x="529"
     y="183" />
  <rect
     id="rect69"
     style="fill:#a7a9ac;fill-opacity:0.58823529"
     width="190"
     height="2"
     x="799"
     y="131" />
  <rect
     id="rect71"
     style="fill:#a7a9ac;fill-opacity:0.58823529"
     width="150"
     height="2"
     x="934"
     y="105" />
  <circle
     id="circle73"
     style="fill:#00c081"
     cx="676"
     cy="146"
     r="18" />
  <text
     id="text77"
     xml:space="preserve"
     style="font-size:18.75px;font-family:'Open Sans';fill:#ffffff"
     x="661.95227"
     y="152.84781">S<tspan
   id="tspan75"
   style="letter-spacing:-1px">P</tspan>1</text>
  <circle
     id="circle79"
     style="fill:#00c081"
     cx="811"
     cy="120"
     r="18" />
  <text
     id="text83"
     xml:space="preserve"
     style="font-size:18.75px;font-family:'Open Sans';fill:#ffffff"
     x="795.11841"
     y="126.82855">S<tspan
   id="tspan81"
   style="letter-spacing:-0.5px">P</tspan>2</text>
  <circle
     id="circle85"
     style="fill:#02a49c"
     cx="541"
     cy="172"
     r="18" />
  <text
     id="text87"
     xml:space="preserve"
     style="font-weight:600;font-size:18.75px;font-family:'Open Sans';fill:#ffffff"
     x="527.44104"
     y="178.86716">GA</text>
  <circle
     id="circle89"
     style="fill:#00c081"
     cx="946"
     cy="94"
     r="18" />
  <text
     id="text93"
     xml:space="preserve"
     style="font-size:18.75px;font-family:'Open Sans';fill:#ffffff"
     x="930.16418"
     y="100.80919">S<tspan
   id="tspan91"
   style="letter-spacing:-0.5px">P</tspan>3</text>
  <path
     id="path95"
     d="m 1081,50 a 18,18 0 0 0 -18,18 18,18 0 0 0 18,18 18,18 0 0 0 3,-0.253906 V 50.271484 A 18,18 0 0 0 1081,50 Z"
     style="fill:#00c081" />
  <path
     id="path97"
     d="m 969,11 v 192 h 110 c 2.77,0 5,-2.57927 5,-5.78313 V 16.783135 C 1084,13.579276 1081.77,11 1079,11 Z"
     style="fill:url(#linearGradient5399);stroke-width:1.07546568" />
  <path
     id="path99"
     style="fill:#5f5f5f;fill-opacity:0.75"
     d="m 993.47461,111 c -2.4242,0 -4.27517,0.63928 -5.55469,1.91797 -1.2794,1.27869 -1.91992,3.11437 -1.91992,5.50781 0,2.36065 0.64052,4.21432 1.91992,5.5586 1.27952,1.34426 3.13049,2.01562 5.55469,2.01562 2.42431,0 4.27718,-0.67136 5.55664,-2.01562 1.31305,-1.37706 1.96875,-3.23074 1.96875,-5.5586 0,-2.29508 -0.6405,-4.09869 -1.91992,-5.41015 C 997.80056,111.67136 995.93256,111 993.47461,111 Z m 25.99999,0 c -2.4242,0 -4.2752,0.63928 -5.5547,1.91797 -1.2794,1.27869 -1.9199,3.11437 -1.9199,5.50781 0,2.36065 0.6405,4.21432 1.9199,5.5586 1.2795,1.34426 3.1305,2.01562 5.5547,2.01562 2.4243,0 4.2753,-0.67136 5.5547,-2.01562 1.3132,-1.37706 1.9707,-3.23074 1.9707,-5.5586 0,-2.29508 -0.6405,-4.09869 -1.9199,-5.41015 C 1023.8006,111.67136 1021.9326,111 1019.4746,111 Z m 26,0 c -2.4242,0 -4.2752,0.63928 -5.5547,1.91797 -1.2794,1.27869 -1.9199,3.11437 -1.9199,5.50781 0,2.36065 0.6405,4.21432 1.9199,5.5586 1.2795,1.34426 3.1305,2.01562 5.5547,2.01562 2.4243,0 4.2753,-0.67136 5.5547,-2.01562 1.3132,-1.37706 1.9707,-3.23074 1.9707,-5.5586 0,-2.29508 -0.6405,-4.09869 -1.9199,-5.41015 C 1049.8006,111.67136 1047.9325,111 1045.4746,111 Z" />
  <circle
     id="circle101"
     style="fill:#02a49c"
     cx="32"
     cy="356"
     r="18" />
  <text
     id="text103"
     xml:space="preserve"
     style="font-weight:600;font-size:18.75px;font-family:'Open Sans';fill:#ffffff"
     x="18.44104"
     y="362.86716">GA</text>
  <circle
     id="circle105"
     style="fill:#00c081"
     cx="167"
     cy="330"
     r="18" />
  <text
     id="text109"
     xml:space="preserve"
     style="font-size:18.75px;font-family:'Open Sans';fill:#ffffff"
     x="152.95227"
     y="336.84781">S<tspan
   id="tspan107"
   style="letter-spacing:-1px">P</tspan>1</text>
  <circle
     id="circle111"
     style="fill:#00c081"
     cx="302"
     cy="304"
     r="18" />
  <text
     id="text115"
     xml:space="preserve"
     style="font-size:18.75px;font-family:'Open Sans';fill:#ffffff"
     x="286.11841"
     y="310.82855">S<tspan
   id="tspan113"
   style="letter-spacing:-0.5px">P</tspan>2</text>
  <circle
     id="circle123"
     style="fill:#00c081"
     cx="437"
     cy="278"
     r="18" />
  <text
     id="text127"
     xml:space="preserve"
     style="font-size:18.75px;font-family:'Open Sans';fill:#ffffff"
     x="421.16418"
     y="284.8092">S<tspan
   id="tspan125"
   style="letter-spacing:-0.5px">P</tspan>3</text>
  <rect
     id="rect129"
     ry="3"
     rx="3"
     y="221"
     x="170"
     height="36"
     width="178.78485"
     style="fill:#5f5f5f" />
  <text
     id="text131"
     y="243.94266"
     x="184.86394"
     style="font-size:18.75px;font-family:'Open Sans';fill:#00c081"
     xml:space="preserve">6 month overlap</text>
  <path
     id="path133"
     d="m 190.39243,257 v 54.83984 l -2,-0.83984 3.5,10 3.5,-9.8457 -2,0.75195 V 257 Z"
     style="fill:#5f5f5f" />
  <path
     id="path135"
     d="m 325.39244,257 v 28.83984 l -2,-0.83984 3.5,10 3.5,-9.8457 -2,0.75195 V 257 Z"
     style="fill:#5f5f5f" />
  <rect
     id="rect31-5"
     y="213"
     x="735"
     height="26"
     width="230"
     style="fill:#02d35f" />
  <rect
     id="rect35-2"
     style="fill:#a7a9ac;fill-opacity:0.58823529"
     width="230"
     height="2"
     x="735"
     y="237" />
  <rect
     id="rect33-6"
     y="213"
     x="735"
     height="52"
     width="55"
     style="opacity:0.5;fill:#92ecba" />
  <rect
     id="rect35"
     style="fill:#a7a9ac;fill-opacity:0.58823529"
     width="230"
     height="2"
     x="560"
     y="263" />
  <circle
     id="circle117"
     style="fill:#00c081"
     cx="572"
     cy="252"
     r="18" />
  <text
     id="text121"
     xml:space="preserve"
     style="font-size:18.75px;font-family:'Open Sans';fill:#ffffff"
     x="555.80255"
     y="258.8092">S<tspan
   id="tspan119"
   style="letter-spacing:-0.5px">P</tspan>4</text>
  <circle
     id="circle117-9"
     style="fill:#00c081"
     cx="747"
     cy="226"
     r="18" />
  <text
     id="text121-1"
     xml:space="preserve"
     style="font-size:18.75px;font-family:'Open Sans';fill:#ffffff"
     x="730.80249"
     y="232.80919">S<tspan
   id="tspan119-2"
   style="letter-spacing:-0.5px">P5</tspan></text>
</svg>
