<?xml version="1.0" encoding="UTF-8" standalone="no"?>
<svg
   xml:space="preserve"
   width="205mm"
   height="180mm"
   fill-rule="evenodd"
   stroke-linejoin="round"
   stroke-width="28.22"
   preserveAspectRatio="xMidYMid"
   version="1.2"
   viewBox="0 0 20500 18000"
   id="svg2308"
   sodipodi:docname="uefi-secure-boot-mok2.svg"
   inkscape:version="1.2.2 (732a01da63, 2022-12-09)"
   xmlns:inkscape="http://www.inkscape.org/namespaces/inkscape"
   xmlns:sodipodi="http://sodipodi.sourceforge.net/DTD/sodipodi-0.dtd"
   xmlns="http://www.w3.org/2000/svg"
   xmlns:svg="http://www.w3.org/2000/svg"><sodipodi:namedview
   id="namedview2310"
   pagecolor="#ffffff"
   bordercolor="#000000"
   borderopacity="0.25"
   inkscape:showpageshadow="2"
   inkscape:pageopacity="0.0"
   inkscape:pagecheckerboard="0"
   inkscape:deskcolor="#d1d1d1"
   inkscape:document-units="mm"
   showgrid="false"
   inkscape:zoom="4.7389815"
   inkscape:cx="333.61599"
   inkscape:cy="136.10519"
   inkscape:window-width="1920"
   inkscape:window-height="1009"
   inkscape:window-x="-8"
   inkscape:window-y="-8"
   inkscape:window-maximized="1"
   inkscape:current-layer="text2278" />
    <defs
   class="ClipPathGroup"
   id="defs2134">
        <marker
   id="a"
   markerHeight="4.71"
   markerWidth="3.06"
   orient="auto"
   refX="1.53"
   refY="2.35">
            <path
   fill="none"
   stroke="#505050"
   stroke-linejoin="miter"
   stroke-width="1"
   d="m2.7.35-2 2 2 2"
   id="path2104" />
        </marker>
        <marker
   id="b"
   markerHeight="4.71"
   markerWidth="3.06"
   orient="auto"
   refX="1.53"
   refY="2.35">
            <path
   fill="none"
   stroke="#505050"
   stroke-linejoin="miter"
   stroke-width="1"
   d="m.35.35 2 2-2 2"
   id="path2107" />
        </marker>
        <marker
   id="c"
   markerHeight="4.71"
   markerWidth="3.06"
   orient="auto"
   refX="1.53"
   refY="2.35">
            <path
   fill="none"
   stroke="#505050"
   stroke-linejoin="miter"
   stroke-width="1"
   d="m.35.35 2 2-2 2"
   id="path2110" />
        </marker>
        <marker
   id="d"
   markerHeight="4.71"
   markerWidth="3.06"
   orient="auto"
   refX="1.53"
   refY="2.35">
            <path
   fill="none"
   stroke="#505050"
   stroke-linejoin="miter"
   stroke-width="1"
   d="m.35.35 2 2-2 2"
   id="path2113" />
        </marker>
        <marker
   id="e"
   markerHeight="4.71"
   markerWidth="3.06"
   orient="auto"
   refX="1.53"
   refY="2.35">
            <path
   fill="none"
   stroke="#505050"
   stroke-linejoin="miter"
   stroke-width="1"
   d="m.35.35 2 2-2 2"
   id="path2116" />
        </marker>
        <marker
   id="f"
   markerHeight="4.71"
   markerWidth="3.06"
   orient="auto"
   refX="1.53"
   refY="2.35">
            <path
   fill="none"
   stroke="#505050"
   stroke-linejoin="miter"
   stroke-width="1"
   d="m.35.35 2 2-2 2"
   id="path2119" />
        </marker>
        <marker
   id="g"
   markerHeight="4.71"
   markerWidth="3.06"
   orient="auto"
   refX="1.53"
   refY="2.35">
            <path
   fill="none"
   stroke="#505050"
   stroke-linejoin="miter"
   stroke-width="1"
   d="m.35.35 2 2-2 2"
   id="path2122" />
        </marker>
        <marker
   id="h"
   markerHeight="4.71"
   markerWidth="3.06"
   orient="auto"
   refX="1.53"
   refY="2.35">
            <path
   fill="none"
   stroke="#505050"
   stroke-linejoin="miter"
   stroke-width="1"
   d="m.35.35 2 2-2 2"
   id="path2125" />
        </marker>
        <marker
   id="i"
   markerHeight="4.71"
   markerWidth="3.06"
   orient="auto"
   refX="1.53"
   refY="2.35">
            <path
   fill="none"
   stroke="#505050"
   stroke-linejoin="miter"
   stroke-width="1"
   d="m.35.35 2 2-2 2"
   id="path2128" />
        </marker>
        <marker
   id="j"
   markerHeight="4.71"
   markerWidth="3.06"
   orient="auto"
   refX="1.53"
   refY="2.35">
            <path
   fill="none"
   stroke="#505050"
   stroke-linejoin="miter"
   stroke-width="1"
   d="m.35.35 2 2-2 2"
   id="path2131" />
        </marker>
    </defs>
    <g
   class="SlideGroup"
   id="g2304"
   transform="translate(-105.83333)">
        <g
   class="com.sun.star.drawing.TextShape"
   transform="translate(211.67,317.5)"
   id="g2146">
            <rect
   width="1073"
   height="777"
   x="2478"
   y="341"
   fill="none"
   class="BoundingBox"
   id="rect2136" />
            <g
   aria-label="PK"
   id="text2144"
   style="font-weight:500;font-family:Poppins;-inkscape-font-specification:'Poppins Medium'"
   class="TextShape"><path
     d="m 2939.684,689.716 q 0,33.756 -23.28,56.26 -22.892,22.116 -70.228,22.116 h -51.992 V 881 h -35.308 V 610.564 h 87.3 q 45.784,0 69.452,22.116 24.056,22.116 24.056,57.036 z m -93.508,49.276 q 29.488,0 43.456,-12.804 13.968,-12.804 13.968,-36.472 0,-50.052 -57.424,-50.052 h -51.992 v 99.328 z"
     id="path3444" /><path
     d="M 3130.1922,881 3018.8362,757.616 V 881 h -35.308 V 610.564 h 35.308 v 125.324 l 111.744,-125.324 h 44.62 L 3052.5922,745.976 3176.3642,881 Z"
     id="path3446" /></g>
        </g>
        <g
   class="com.sun.star.drawing.TextShape"
   transform="translate(0,582.08)"
   id="g2158">
            <rect
   width="1193"
   height="777"
   x="2458"
   y="4340"
   fill="none"
   class="BoundingBox"
   id="rect2148" />
            <g
   aria-label="KEK"
   id="text2156"
   style="font-weight:500;font-family:Poppins;-inkscape-font-specification:'Poppins Medium'"
   class="TextShape"><path
     d="M 2885.54,4880 2774.184,4756.616 V 4880 h -35.308 v -270.436 h 35.308 v 125.324 l 111.744,-125.324 h 44.62 L 2807.94,4744.976 2931.712,4880 Z"
     id="path3449" /><path
     d="m 3006.5964,4638.276 v 90.404 h 98.552 v 29.1 h -98.552 v 93.12 h 110.192 v 29.1 h -145.5 v -270.824 h 145.5 v 29.1 z"
     id="path3451" /><path
     d="m 3316.9965,4880 -111.356,-123.384 V 4880 h -35.308 v -270.436 h 35.308 v 125.324 l 111.744,-125.324 h 44.62 l -122.608,135.412 123.772,135.024 z"
     id="path3453" /></g>
        </g>
        <g
   class="com.sun.star.drawing.TextShape"
   transform="translate(-158.75)"
   id="g2170">
            <rect
   width="3369"
   height="777"
   x="282"
   y="6590"
   fill="none"
   class="BoundingBox"
   id="rect2160" />
            <g
   aria-label="SUSE 公共密钥"
   id="text2168"
   style="font-weight:500;font-family:Poppins;-inkscape-font-specification:'Poppins Medium'"
   class="TextShape"><path
     d="m 1144.7389,7503.1325 q -26.772,0 -48.112,-9.312 -20.952,-9.7 -32.98,-26.384 -12.028,-17.072 -12.416,-39.188 h 37.636 q 1.94,19.012 15.52,32.204 13.968,12.804 40.352,12.804 25.22,0 39.576,-12.416 14.744,-12.804 14.744,-32.592 0,-15.52 -8.536,-25.22 -8.536,-9.7 -21.34,-14.744 -12.804,-5.044 -34.532,-10.864 -26.772,-6.984 -43.068,-13.968 -15.908,-6.984 -27.548,-21.728 -11.252,-15.132 -11.252,-40.352 0,-22.116 11.252,-39.188 11.252,-17.072 31.428,-26.384 20.564,-9.312 46.948,-9.312 38.024,0 62.08,19.012 24.444,19.012 27.548,50.44 h -38.8 q -1.94,-15.52 -16.296,-27.16 -14.356,-12.028 -38.024,-12.028 -22.116,0 -36.084,11.64 -13.968,11.252 -13.968,31.816 0,14.744 8.148,24.056 8.536,9.312 20.564,14.356 12.416,4.656 34.532,10.864 26.772,7.372 43.068,14.744 16.296,6.984 27.936,22.116 11.64,14.744 11.64,40.352 0,19.788 -10.476,37.248 -10.476,17.46 -31.04,28.324 -20.564,10.864 -48.5,10.864 z"
     style="text-align:end;text-anchor:end"
     id="path3456" /><path
     d="m 1321.2788,7229.9805 v 171.108 q 0,36.084 17.46,53.544 17.848,17.46 49.276,17.46 31.04,0 48.5,-17.46 17.848,-17.46 17.848,-53.544 v -171.108 h 35.308 v 170.72 q 0,33.756 -13.58,57.036 -13.58,22.892 -36.86,34.144 -22.892,11.252 -51.604,11.252 -28.712,0 -51.992,-11.252 -22.892,-11.252 -36.472,-34.144 -13.192,-23.28 -13.192,-57.036 v -170.72 z"
     style="text-align:end;text-anchor:end"
     id="path3458" /><path
     d="m 1634.3945,7503.1325 q -26.772,0 -48.112,-9.312 -20.952,-9.7 -32.98,-26.384 -12.028,-17.072 -12.416,-39.188 h 37.636 q 1.94,19.012 15.52,32.204 13.968,12.804 40.352,12.804 25.22,0 39.576,-12.416 14.744,-12.804 14.744,-32.592 0,-15.52 -8.536,-25.22 -8.536,-9.7 -21.34,-14.744 -12.804,-5.044 -34.532,-10.864 -26.772,-6.984 -43.068,-13.968 -15.908,-6.984 -27.548,-21.728 -11.252,-15.132 -11.252,-40.352 0,-22.116 11.252,-39.188 11.252,-17.072 31.428,-26.384 20.564,-9.312 46.948,-9.312 38.024,0 62.08,19.012 24.444,19.012 27.548,50.44 h -38.8 q -1.94,-15.52 -16.296,-27.16 -14.356,-12.028 -38.024,-12.028 -22.116,0 -36.084,11.64 -13.968,11.252 -13.968,31.816 0,14.744 8.148,24.056 8.536,9.312 20.564,14.356 12.416,4.656 34.532,10.864 26.772,7.372 43.068,14.744 16.296,6.984 27.936,22.116 11.64,14.744 11.64,40.352 0,19.788 -10.476,37.248 -10.476,17.46 -31.04,28.324 -20.564,10.864 -48.5,10.864 z"
     style="text-align:end;text-anchor:end"
     id="path3460" /><path
     d="m 1811.7105,7258.6925 v 90.404 h 98.552 v 29.1 h -98.552 v 93.12 h 110.192 v 29.1 h -145.5 v -270.824 h 145.5 v 29.1 z"
     style="text-align:end;text-anchor:end"
     id="path3462" /><path
     d="m 2175.6547,7187.3005 c -22.892,57.812 -61.692,113.296 -105.148,147.44 7.372,4.656 20.564,14.744 26.772,20.564 41.904,-38.024 83.032,-96.612 109.028,-159.468 z m 110.58,206.804 c 15.132,19.012 31.816,41.516 47.336,63.244 l -180.42,10.864 c 38.024,-45.008 76.048,-102.432 107.864,-161.02 l -31.04,-13.968 c -31.04,64.408 -77.988,131.532 -93.12,148.992 -14.744,18.236 -25.22,29.876 -35.308,32.204 4.268,8.148 9.7,24.056 11.252,30.264 14.356,-5.432 35.308,-6.596 239.008,-20.564 10.088,15.908 19.4,31.04 25.608,43.456 l 27.936,-15.52 c -19.012,-34.92 -58.588,-89.24 -92.344,-130.368 z m -7.76,-198.656 c 29.876,58.2 79.152,122.996 119.116,159.856 5.82,-7.76 16.684,-18.624 24.056,-24.444 -39.964,-32.204 -89.24,-93.508 -114.848,-146.276 z"
     style="font-weight:normal;font-family:'Noto Sans CJK SC';-inkscape-font-specification:'Noto Sans CJK SC'"
     id="path3464" /><path
     d="m 2565.5947,7427.4725 c -21.728,29.1 -65.184,62.856 -103.208,82.644 6.984,5.432 17.46,14.744 22.892,20.564 38.8,-22.504 82.644,-58.2 110.192,-91.568 z m 99.328,14.356 c 36.472,27.16 83.032,65.572 105.924,88.464 l 27.16,-17.848 c -24.444,-22.892 -72.556,-60.14 -108.252,-85.36 z m -88.852,-156.364 h 110.192 v 91.568 h -110.192 z m 139.68,91.568 v -91.568 h 76.824 v -27.936 h -76.824 v -78.376 h -29.488 v 78.376 h -110.192 v -78.376 h -29.1 v 78.376 h -73.72 v 27.936 h 73.72 v 91.568 h -89.24 v 27.936 h 348.812 v -27.936 z"
     style="font-weight:normal;font-family:'Noto Sans CJK SC';-inkscape-font-specification:'Noto Sans CJK SC'"
     id="path3466" /><path
     d="m 2884.5307,7235.0245 h 269.272 v 49.276 h 29.1 v -75.272 h -146.276 c -2.716,-11.252 -7.372,-25.608 -12.416,-37.248 l -27.16,4.656 c 3.88,9.7 7.372,22.116 9.7,32.592 h -150.544 v 75.272 h 28.324 z m 159.468,46.56 c -14.356,-13.58 -43.456,-30.652 -66.736,-40.74 l -15.132,16.684 c 24.056,10.864 52.768,28.712 66.736,42.68 z m -147.44,4.656 c -10.476,23.28 -29.1,51.992 -51.604,69.064 l 23.28,13.968 c 22.504,-18.624 39.576,-48.112 51.992,-72.168 z m 180.032,104.372 c 33.756,0 41.904,-11.252 45.784,-56.648 -7.372,-1.552 -17.848,-5.432 -24.056,-10.088 -1.94,37.636 -5.044,43.068 -23.668,43.068 h -78.376 c -6.208,0 -11.252,0 -15.132,-0.776 53.156,-25.996 101.268,-59.364 135.024,-100.492 l -24.832,-12.028 c -29.1,36.472 -72.556,66.348 -122.22,90.404 v -63.632 h -25.996 v 74.108 1.164 c -32.204,13.58 -67.124,24.444 -102.044,33.368 5.432,5.82 13.58,17.848 17.072,24.056 31.04,-8.924 62.08,-19.788 92.344,-32.592 6.984,7.76 20.564,10.088 44.232,10.088 z m 47.336,94.672 h -91.18 v -82.256 h -28.712 v 82.256 h -86.912 v -61.692 h -28.324 v 89.24 h 235.128 v 16.684 h 28.324 v -109.028 h -28.324 z m -15.908,-182.748 c 24.056,21.34 52.38,51.992 64.408,72.556 l 22.116,-15.908 c -13.192,-20.564 -41.904,-50.052 -65.96,-71.004 z"
     style="font-weight:normal;font-family:'Noto Sans CJK SC';-inkscape-font-specification:'Noto Sans CJK SC'"
     id="path3468" /><path
     d="m 3385.0509,7246.6645 v -26.772 h -88.076 c 5.82,-11.64 10.864,-23.668 15.132,-35.696 l -25.608,-7.76 c -12.416,36.084 -34.144,70.616 -58.588,93.12 5.044,6.596 12.804,20.952 15.132,26.772 13.968,-13.968 27.16,-30.652 38.8,-49.664 z m -65.572,229.696 v -83.42 h 62.468 v -25.996 h -62.468 v -52.38 h 57.036 v -26.384 h -120.28 v 26.384 h 34.92 v 52.38 h -54.32 v 25.996 h 54.32 v 79.928 c 0,15.132 -10.864,22.504 -18.236,25.608 5.044,7.372 9.7,20.564 12.028,28.712 6.596,-6.596 17.848,-13.192 91.956,-52.38 -1.94,-5.432 -3.88,-17.072 -4.656,-24.444 z m 121.056,-98.552 c 0.388,-8.148 0.388,-15.52 0.388,-23.28 v -43.068 h 98.164 v 66.348 z m 98.552,-157.14 v 64.408 h -98.164 v -64.408 z m 28.324,-26.384 h -154.812 v 160.244 c 0,53.544 -4.268,117.176 -47.724,161.408 7.372,3.104 19.4,11.252 24.444,16.296 32.98,-34.532 45.396,-82.256 49.664,-128.04 h 100.104 v 85.36 c 0,6.208 -2.328,7.76 -8.148,8.148 -5.044,0 -24.056,0 -43.844,-0.388 3.492,7.76 7.76,20.564 8.924,28.324 28.712,0 46.172,-0.776 56.648,-5.432 10.864,-5.044 14.744,-13.58 14.744,-30.264 z"
     style="font-weight:normal;font-family:'Noto Sans CJK SC';-inkscape-font-specification:'Noto Sans CJK SC'"
     id="path3470" /></g>
        </g>
        <g
   class="com.sun.star.drawing.TextShape"
   transform="translate(0,740.83)"
   id="g2182">
            <rect
   width="1396"
   height="777"
   x="2255"
   y="9966"
   fill="none"
   class="BoundingBox"
   id="rect2172" />
            <g
   aria-label="MOK"
   id="text2180"
   style="font-weight:500;font-family:Poppins;-inkscape-font-specification:'Poppins Medium'"
   class="TextShape"><path
     d="M 2810.192,10237.504 V 10506 h -35.308 v -200.208 l -89.24,200.208 h -24.832 l -89.628,-200.596 V 10506 h -35.308 v -268.496 h 38.024 l 99.328,221.936 99.328,-221.936 z"
     id="path3473" /><path
     d="m 2992.552,10508.716 q -37.636,0 -68.676,-17.46 -31.04,-17.848 -49.276,-49.276 -17.848,-31.816 -17.848,-71.392 0,-39.576 17.848,-71.004 18.236,-31.816 49.276,-49.276 31.04,-17.848 68.676,-17.848 38.024,0 69.064,17.848 31.04,17.46 48.888,48.888 17.848,31.428 17.848,71.392 0,39.964 -17.848,71.392 -17.848,31.428 -48.888,49.276 -31.04,17.46 -69.064,17.46 z m 0,-30.652 q 28.324,0 50.828,-13.192 22.892,-13.192 35.696,-37.636 13.192,-24.444 13.192,-56.648 0,-32.592 -13.192,-56.648 -12.804,-24.444 -35.308,-37.636 -22.504,-13.192 -51.216,-13.192 -28.712,0 -51.216,13.192 -22.504,13.192 -35.696,37.636 -12.804,24.056 -12.804,56.648 0,32.204 12.804,56.648 13.192,24.444 35.696,37.636 22.892,13.192 51.216,13.192 z"
     id="path3475" /><path
     d="m 3321.5758,10506 -111.356,-123.384 V 10506 h -35.308 v -270.436 h 35.308 v 125.324 l 111.744,-125.324 h 44.62 l -122.608,135.412 123.772,135.024 z"
     id="path3477" /></g>
        </g>
        <g
   class="com.sun.star.drawing.TextShape"
   transform="translate(317.5,952.5)"
   id="g2200">
            <rect
   width="1801"
   height="1302"
   x="18900"
   y="3965"
   fill="none"
   class="BoundingBox"
   id="rect2184" />
            
        </g>
        <g
   class="com.sun.star.drawing.TextShape"
   transform="translate(0,740.83)"
   id="g2212">
            <rect
   width="1396"
   height="777"
   x="2256"
   y="14466"
   fill="none"
   class="BoundingBox"
   id="rect2202" />
            <g
   aria-label="MOK"
   id="text2210"
   style="font-weight:500;font-family:Poppins;-inkscape-font-specification:'Poppins Medium'"
   class="TextShape"><path
     d="M 2811.192,14737.504 V 15006 h -35.308 v -200.208 l -89.24,200.208 h -24.832 l -89.628,-200.596 V 15006 h -35.308 v -268.496 h 38.024 l 99.328,221.936 99.328,-221.936 z"
     id="path3480" /><path
     d="m 2993.552,15008.716 q -37.636,0 -68.676,-17.46 -31.04,-17.848 -49.276,-49.276 -17.848,-31.816 -17.848,-71.392 0,-39.576 17.848,-71.004 18.236,-31.816 49.276,-49.276 31.04,-17.848 68.676,-17.848 38.024,0 69.064,17.848 31.04,17.46 48.888,48.888 17.848,31.428 17.848,71.392 0,39.964 -17.848,71.392 -17.848,31.428 -48.888,49.276 -31.04,17.46 -69.064,17.46 z m 0,-30.652 q 28.324,0 50.828,-13.192 22.892,-13.192 35.696,-37.636 13.192,-24.444 13.192,-56.648 0,-32.592 -13.192,-56.648 -12.804,-24.444 -35.308,-37.636 -22.504,-13.192 -51.216,-13.192 -28.712,0 -51.216,13.192 -22.504,13.192 -35.696,37.636 -12.804,24.056 -12.804,56.648 0,32.204 12.804,56.648 13.192,24.444 35.696,37.636 22.892,13.192 51.216,13.192 z"
     id="path3482" /><path
     d="m 3322.5758,15006 -111.356,-123.384 V 15006 h -35.308 v -270.436 h 35.308 v 125.324 l 111.744,-125.324 h 44.62 l -122.608,135.412 123.772,135.024 z"
     id="path3484" /></g>
        </g>
        <rect
   width="4593.6699"
   height="3175"
   x="12710.08"
   y="5556.25"
   fill="#dedfe0"
   opacity="0.99"
   paint-order="stroke fill markers"
   id="rect2214" />
        <g
   aria-label="MOK 列表"
   id="text2218"
   style="font-weight:500;font-size:529.17px;line-height:1.25;font-family:Poppins;-inkscape-font-specification:'Poppins, Medium';letter-spacing:0;stroke-width:746.71"><path
     d="m 14170.031,6248.4042 v 366.1856 h -48.154 v -273.0517 l -121.709,273.0517 h -33.867 l -122.238,-273.5808 v 273.5808 h -48.155 v -366.1856 h 51.859 l 135.467,302.6852 135.468,-302.6852 z"
     style="text-align:center;text-anchor:middle;fill:#505050"
     id="path3609" /><path
     d="m 14418.741,6618.294 q -51.329,0 -93.663,-23.8126 -42.333,-24.3418 -67.204,-67.2046 -24.342,-43.3919 -24.342,-97.3673 0,-53.9753 24.342,-96.8381 24.871,-43.3919 67.204,-67.2046 42.334,-24.3418 93.663,-24.3418 51.859,0 94.193,24.3418 42.333,23.8127 66.675,66.6754 24.342,42.8628 24.342,97.3673 0,54.5045 -24.342,97.3673 -24.342,42.8628 -66.675,67.2046 -42.334,23.8126 -94.193,23.8126 z m 0,-41.8044 q 38.63,0 69.322,-17.9918 31.221,-17.9918 48.683,-51.3295 17.992,-33.3377 17.992,-77.2588 0,-44.4503 -17.992,-77.2588 -17.462,-33.3377 -48.154,-51.3295 -30.692,-17.9918 -69.851,-17.9918 -39.158,0 -69.85,17.9918 -30.692,17.9918 -48.684,51.3295 -17.462,32.8085 -17.462,77.2588 0,43.9211 17.462,77.2588 17.992,33.3377 48.684,51.3295 31.221,17.9918 69.85,17.9918 z"
     style="text-align:center;text-anchor:middle;fill:#505050"
     id="path3611" /><path
     d="m 14867.477,6614.5898 -151.872,-168.276 v 168.276 h -48.154 v -368.8314 h 48.154 v 170.9219 l 152.401,-170.9219 h 60.855 l -167.218,184.6803 168.805,184.1511 z"
     style="text-align:center;text-anchor:middle;fill:#505050"
     id="path3613" /><path
     d="m 15119.363,6238.35 h 85.196 c -18.521,80.4338 -48.154,155.0468 -89.959,203.7304 8.996,5.8209 24.342,19.0501 30.692,25.9294 24.871,-30.6919 45.509,-69.8505 62.971,-113.7716 h 120.122 c -10.054,49.742 -25.4,92.6048 -46.038,130.1758 -20.638,-19.0501 -52.388,-42.3336 -78.317,-58.7378 l -22.225,29.1043 c 26.458,17.9918 59.267,43.9211 79.904,62.9712 -35.454,51.3295 -81.492,86.7839 -133.35,107.4215 8.466,7.9376 19.05,22.7544 23.812,33.3378 111.126,-50.8004 192.618,-152.9302 218.547,-334.9646 l -23.812,-7.4084 -6.879,1.5875 h -118.005 c 7.937,-25.4002 15.346,-51.8587 21.696,-79.3755 h 142.346 v -38.1003 h -266.701 z m 343.431,-4.7625 h -38.629 v 293.6893 h 38.629 z m 69.85,-59.2671 v 429.686 c 0,8.4668 -3.175,11.1126 -11.641,11.6418 -7.938,0 -35.455,0 -64.559,-0.5292 5.292,10.5834 11.642,27.5169 13.229,38.1003 40.217,0 65.088,-0.5292 80.434,-7.4084 14.817,-6.3501 21.696,-16.9335 21.696,-41.8045 v -429.686 z"
     style="font-weight:normal;font-family:'Noto Sans CJK SC';-inkscape-font-specification:'Noto Sans CJK SC';text-align:center;text-anchor:middle;fill:#505050;fill-opacity:1"
     id="path3615" /><path
     d="m 16060.227,6431.497 c -22.754,22.2252 -59.796,51.3295 -91.547,73.0255 -23.283,-27.5169 -41.804,-58.7379 -56.092,-93.6631 h 193.677 v -33.8669 h -209.023 v -47.0961 h 168.806 v -32.8085 h -168.806 v -44.4503 h 192.618 v -33.8669 h -192.618 v -47.0961 h -39.158 v 47.0961 h -186.797 v 33.8669 h 186.797 v 44.4503 h -159.809 v 32.8085 h 159.809 v 47.0961 h -207.435 v 33.8669 h 174.626 c -49.742,44.4503 -124.355,85.7255 -189.972,106.3632 8.467,7.9375 20.109,22.2251 25.401,31.7502 29.104,-11.1126 60.854,-25.4002 91.017,-42.8628 v 78.3172 c 0,20.6376 -11.642,30.1626 -20.109,34.396 6.35,8.9959 14.288,25.9293 16.934,35.9836 12.171,-8.4668 31.221,-14.8168 177.801,-61.9129 -2.117,-7.9376 -5.292,-23.2835 -6.35,-33.8669 l -128.059,38.6294 v -116.9466 c 31.221,-21.1668 59.796,-44.9794 82.55,-69.8504 40.217,110.5965 114.301,189.972 222.781,226.4848 5.821,-10.5834 17.462,-25.9294 25.929,-33.8669 -52.388,-15.346 -96.309,-41.2753 -132.822,-75.6713 33.338,-20.6377 71.968,-47.6253 102.13,-73.5547 z"
     style="font-weight:normal;font-family:'Noto Sans CJK SC';-inkscape-font-specification:'Noto Sans CJK SC';text-align:center;text-anchor:middle;fill:#505050;fill-opacity:1"
     id="path3617" /></g>
        <g
   stroke="#30ba78"
   stroke-width="4.32"
   transform="matrix(32.1597,0,0,32.1597,11683.57,-989.12)"
   id="g2224">
            <rect
   width="30"
   height="20"
   x="161.21001"
   y="195.27"
   fill="#30ba78"
   class="st0"
   id="rect2220" />
            <path
   fill="none"
   d="m 176.21,179.14 a 6.2,6.2 0 0 0 -6.2,6.2 v 9.31 h 12.41 v -9.3 a 6.2,6.2 0 0 0 -6.2,-6.21 z"
   class="st0"
   id="path2222" />
        </g>
        <path
   fill="none"
   stroke="#30ba78"
   stroke-linejoin="miter"
   stroke-width="148.71"
   d="m 14087.01,8027.85 141.05,-110.77 m -379.75,-197.8 379.15,482.8 197.83,-154.84 m -558.42,-590.21 a 172.08,171.17 51.86 0 1 -28.34,241.06 172.08,171.17 51.86 0 1 -240.9,-29.62 172.08,171.17 51.86 0 1 28.34,-241.06 172.08,171.17 51.86 0 1 240.9,29.62 z m 1225.56,570.82 141.05,-110.77 m -379.76,-197.8 379.16,482.8 197.83,-154.84 m -558.42,-590.21 a 172.08,171.17 51.86 0 1 -28.34,241.06 172.08,171.17 51.86 0 1 -240.9,-29.62 172.08,171.17 51.86 0 1 28.34,-241.06 172.08,171.17 51.86 0 1 240.9,29.62 z m 1225.56,570.82 141.05,-110.77 m -379.76,-197.8 379.16,482.8 197.82,-154.84 m -558.41,-590.21 a 172.08,171.17 51.86 0 1 -28.34,241.06 172.08,171.17 51.86 0 1 -240.9,-29.62 172.08,171.17 51.86 0 1 28.34,-241.06 172.08,171.17 51.86 0 1 240.9,29.62 z"
   opacity="0.99"
   id="path2226" />
        <path
   fill="none"
   stroke="#505050"
   stroke-linejoin="miter"
   stroke-width="95.25"
   marker-end="url(#marker88387772776)"
   marker-start="url(#a)"
   d="m 8995.83,7143.75 h 3439.59"
   id="path2228" />
        <path
   fill="none"
   stroke="#505050"
   stroke-linejoin="miter"
   stroke-width="63.5"
   marker-end="url(#b)"
   d="M 19314.58,5556.25 H 18256.25"
   id="path2230" />
        <g
   transform="translate(-2910.42)"
   id="g2244">
            <rect
   width="3175"
   height="1852.08"
   x="8466.6699"
   y="15610.42"
   fill="#dedfe0"
   opacity="0.99"
   paint-order="stroke fill markers"
   id="rect2232" />
            <g
   aria-label="内核"
   id="text2236"
   style="font-weight:500;font-size:493.89px;line-height:1.25;font-family:Poppins;-inkscape-font-specification:'Poppins, Medium';letter-spacing:0;stroke-width:26.46"><path
     d="m 9964.2858,16388.04 h -178.7882 v -84.455 h -36.5478 v 84.455 h -178.7882 v 367.454 h 36.0539 v -331.4 h 142.2404 c -2.9634,64.7 -20.7434,146.191 -129.3992,203.977 8.3961,6.42 20.7434,19.755 26.1762,27.657 66.1812,-39.017 101.7413,-84.949 120.0152,-132.362 45.4379,42.474 94.8269,92.851 120.0153,125.942 l 30.1273,-23.707 c -30.1273,-36.548 -90.3819,-94.333 -139.277,-137.301 5.4328,-22.225 7.9022,-43.957 8.89,-64.206 h 143.2281 v 281.517 c 0,8.89 -2.9633,11.854 -11.8533,12.347 -10.3717,0.494 -43.9562,0.494 -78.5285,-0.987 5.4327,9.878 10.8655,27.164 12.3472,37.041 43.9562,0 74.5774,0 91.8636,-6.42 16.7922,-5.927 22.225,-17.78 22.225,-41.487 z"
     style="font-weight:normal;font-family:'Noto Sans CJK SC';-inkscape-font-specification:'Noto Sans CJK SC';text-align:center;text-anchor:middle;fill:#505050"
     id="path4198" /><path
     d="m 10400.391,16446.319 c -7.409,15.311 -17.78,31.115 -29.14,45.932 l -83.961,4.939 c 17.78,-27.164 41.487,-64.7 58.279,-92.358 h 139.277 v -34.078 h -110.631 l 4.938,-1.976 c -3.951,-18.274 -16.298,-46.425 -28.645,-67.169 l -34.079,10.372 c 9.878,18.274 19.262,40.993 24.695,58.773 h -128.905 v 34.078 h 93.839 c -16.793,28.646 -44.45,73.096 -53.834,82.974 -8.396,8.89 -22.225,12.347 -31.609,14.323 2.963,7.902 8.89,26.176 9.878,34.572 9.383,-2.963 23.706,-5.927 112.113,-11.854 -36.548,37.042 -82.48,70.133 -131.869,92.852 6.914,6.914 16.792,19.755 20.743,27.658 86.925,-41.487 161.502,-111.619 203.483,-186.691 z m -197.556,93.345 c -8.396,-13.829 -44.45,-69.144 -57.785,-87.418 v -19.262 h 55.809 v -34.572 h -55.809 v -94.827 h -35.067 v 94.827 h -65.687 v 34.572 h 63.218 c -14.817,67.169 -45.438,145.204 -76.059,186.196 6.914,8.891 15.804,24.695 19.262,35.561 22.225,-31.609 43.462,-82.48 59.266,-135.82 v 235.585 h 35.067 v -257.316 c 13.335,24.2 28.645,52.846 35.56,68.156 z m 233.61,-5.433 c -41.981,82.974 -135.82,153.6 -250.403,190.642 6.915,7.408 17.287,21.731 21.732,30.127 61.736,-21.237 117.052,-51.364 162.983,-88.406 32.597,27.164 70.133,61.242 88.9,82.973 l 28.152,-24.2 c -19.755,-22.225 -58.773,-54.822 -91.369,-80.998 31.115,-29.14 57.291,-61.242 77.54,-96.803 z"
     style="font-weight:normal;font-family:'Noto Sans CJK SC';-inkscape-font-specification:'Noto Sans CJK SC';text-align:center;text-anchor:middle;fill:#505050"
     id="path4200" /></g>
            <g
   stroke="#30ba78"
   stroke-width="4.32"
   transform="matrix(32.1597,0,0,32.1597,2846.48,8951)"
   id="g2242">
                <rect
   width="30"
   height="20"
   x="161.21001"
   y="195.27"
   fill="#30ba78"
   class="st0"
   id="rect2238" />
                <path
   fill="none"
   d="m 176.21,179.14 a 6.2,6.2 0 0 0 -6.2,6.2 v 9.31 h 12.41 v -9.3 a 6.2,6.2 0 0 0 -6.2,-6.21 z"
   class="st0"
   id="path2240" />
            </g>
        </g>
        <g
   transform="translate(-2910.42,-4497.92)"
   id="g2258">
            <rect
   width="3175"
   height="1852.08"
   x="8466.6699"
   y="15610.42"
   fill="#dedfe0"
   opacity="0.99"
   paint-order="stroke fill markers"
   id="rect2246" />
            <g
   aria-label="GRUB2"
   id="text2250"
   style="font-weight:500;font-size:493.89px;line-height:1.25;font-family:Poppins;-inkscape-font-specification:'Poppins, Medium';letter-spacing:0;stroke-width:26.46"><path
     d="m 9538.3035,16472.495 q -14.3229,-30.127 -41.4868,-46.426 -27.164,-16.792 -63.2179,-16.792 -36.054,0 -65.1935,16.792 -28.6456,16.299 -45.4379,47.414 -16.2984,30.621 -16.2984,71.12 0,40.499 16.2984,71.12 16.7923,30.621 45.4379,47.414 29.1395,16.298 65.1935,16.298 50.3768,0 82.9735,-30.127 32.5967,-30.128 38.0295,-81.492 h -137.3014 v -36.548 h 185.2088 v 34.572 q -3.9512,42.475 -26.6701,78.035 -22.7189,35.066 -59.7607,55.81 -37.0417,20.249 -82.4796,20.249 -47.9074,0 -87.4186,-22.225 -39.5112,-22.719 -62.724,-62.724 -22.7189,-40.005 -22.7189,-90.382 0,-50.377 22.7189,-90.382 23.2128,-40.499 62.724,-62.724 39.5112,-22.719 87.4186,-22.719 54.8218,0 96.8024,27.164 42.4746,27.164 61.7363,76.553 z"
     style="fill:#505050"
     id="path4187" /><path
     d="m 9843.0335,16716.971 -81.9857,-140.759 h -54.3279 v 140.759 h -44.944 v -344.242 h 111.1253 q 39.0173,0 65.6873,13.335 27.164,13.335 40.499,36.054 13.335,22.719 13.335,51.859 0,35.56 -20.7433,62.724 -20.2495,27.164 -61.2424,36.054 l 86.4307,144.216 z m -136.3136,-176.813 h 66.1813 q 36.5478,0 54.8217,-17.78 18.274,-18.274 18.274,-48.401 0,-30.621 -18.274,-47.414 -17.78,-16.792 -54.8217,-16.792 h -66.1813 z"
     style="fill:#505050"
     id="path4189" /><path
     d="m 10006.017,16372.729 v 217.806 q 0,45.932 22.225,68.157 22.719,22.225 62.724,22.225 39.511,0 61.736,-22.225 22.719,-22.225 22.719,-68.157 v -217.806 h 44.944 v 217.312 q 0,42.968 -17.286,72.602 -17.286,29.139 -46.919,43.462 -29.14,14.323 -65.688,14.323 -36.548,0 -66.181,-14.323 -29.1395,-14.323 -46.4256,-43.462 -16.7923,-29.634 -16.7923,-72.602 v -217.312 z"
     style="fill:#505050"
     id="path4191" /><path
     d="m 10467.804,16539.664 q 18.768,2.964 34.078,15.311 15.805,12.347 24.695,30.621 9.384,18.274 9.384,39.017 0,26.176 -13.335,47.414 -13.335,20.743 -39.018,33.09 -25.188,11.854 -59.76,11.854 h -128.412 v -344.242 h 123.473 q 35.066,0 59.761,11.854 24.694,11.359 37.041,31.115 12.348,19.755 12.348,44.45 0,30.621 -16.793,50.871 -16.298,19.755 -43.462,28.645 z m -127.424,-18.274 h 75.565 q 31.609,0 48.896,-14.816 17.286,-14.817 17.286,-40.993 0,-26.176 -17.286,-40.993 -17.287,-14.817 -49.883,-14.817 h -74.578 z m 79.517,158.539 q 33.584,0 52.352,-15.805 18.768,-15.804 18.768,-43.956 0,-28.645 -19.756,-44.944 -19.755,-16.792 -52.846,-16.792 h -78.035 v 121.497 z"
     style="fill:#505050"
     id="path4193" /><path
     d="m 10585.35,16680.917 q 62.724,-50.377 98.284,-82.48 35.56,-32.597 59.761,-67.663 24.695,-35.56 24.695,-69.638 0,-32.103 -15.805,-50.377 -15.311,-18.768 -49.883,-18.768 -33.584,0 -52.352,21.237 -18.274,20.744 -19.756,55.81 h -43.462 q 1.975,-55.316 33.584,-85.443 31.609,-30.127 81.492,-30.127 50.871,0 80.504,28.151 30.128,28.152 30.128,77.541 0,40.993 -24.695,80.01 -24.2,38.524 -55.316,68.157 -31.115,29.14 -79.516,68.157 h 169.898 v 37.536 h -237.561 z"
     style="fill:#505050"
     id="path4195" /></g>
            <g
   stroke="#30ba78"
   stroke-width="4.32"
   transform="matrix(32.1597,0,0,32.1597,2846.48,8951)"
   id="g2256">
                <rect
   width="30"
   height="20"
   x="161.21001"
   y="195.27"
   fill="#30ba78"
   class="st0"
   id="rect2252" />
                <path
   fill="none"
   d="m 176.21,179.14 a 6.2,6.2 0 0 0 -6.2,6.2 v 9.31 h 12.41 v -9.3 a 6.2,6.2 0 0 0 -6.2,-6.21 z"
   class="st0"
   id="path2254" />
            </g>
        </g>
        <g
   transform="translate(-2910.42,-10107.08)"
   id="g2272">
            <rect
   width="3175"
   height="3175"
   x="8466.6699"
   y="15610.42"
   fill="#dedfe0"
   opacity="0.99"
   paint-order="stroke fill markers"
   id="rect2260" />
            <g
   aria-label="Shim"
   id="text2264"
   style="font-weight:500;font-size:493.89px;line-height:1.25;font-family:Poppins;-inkscape-font-specification:'Poppins, Medium';letter-spacing:0;stroke-width:26.46"><path
     d="m 9573.1197,16720.428 q -34.0785,0 -61.2424,-11.853 -26.6701,-12.348 -41.9807,-33.585 -15.3105,-21.731 -15.8044,-49.883 h 47.9073 q 2.4694,24.201 19.7556,40.993 17.78,16.298 51.3646,16.298 32.1028,0 50.3767,-15.804 18.7679,-16.298 18.7679,-41.487 0,-19.755 -10.8656,-32.103 -10.8656,-12.347 -27.164,-18.768 -16.2983,-6.42 -43.9562,-13.828 -34.0784,-8.89 -54.8218,-17.78 -20.2495,-8.89 -35.0662,-27.658 -14.3228,-19.262 -14.3228,-51.365 0,-28.152 14.3228,-49.883 14.3228,-21.731 40.0051,-33.584 26.1762,-11.854 59.7607,-11.854 48.4012,0 79.0224,24.201 31.1151,24.201 35.0662,64.206 h -49.389 q -2.4694,-19.756 -20.7434,-34.573 -18.2739,-15.31 -48.4012,-15.31 -28.1517,0 -45.9318,14.816 -17.78,14.323 -17.78,40.499 0,18.768 10.3717,30.622 10.8656,11.853 26.1762,18.274 15.8044,5.926 43.9562,13.828 34.0784,9.384 54.8218,18.768 20.7433,8.89 35.56,28.152 14.8167,18.768 14.8167,51.365 0,25.188 -13.335,47.413 -13.335,22.225 -39.5112,36.054 -26.1762,13.829 -61.7362,13.829 z"
     style="fill:#505050"
     id="path4178" /><path
     d="m 9888.2214,16441.38 q 30.6212,0 55.3157,13.335 24.6945,12.841 38.5234,39.017 14.3228,26.177 14.3228,63.712 v 159.527 h -44.4501 v -153.106 q 0,-40.499 -20.2494,-61.736 -20.2495,-21.732 -55.3157,-21.732 -35.5601,0 -56.7974,22.225 -20.7434,22.225 -20.7434,64.7 v 149.649 h -44.9439 v -365.479 h 44.9439 v 133.35 q 13.3351,-20.743 36.5479,-32.102 23.7067,-11.36 52.8462,-11.36 z"
     style="fill:#505050"
     id="path4180" /><path
     d="m 10093.185,16402.363 q -12.841,0 -21.731,-8.89 -8.89,-8.89 -8.89,-21.731 0,-12.842 8.89,-21.732 8.89,-8.89 21.731,-8.89 12.348,0 20.744,8.89 8.89,8.89 8.89,21.732 0,12.841 -8.89,21.731 -8.396,8.89 -20.744,8.89 z m 21.732,43.956 v 270.652 h -44.944 v -270.652 z"
     style="fill:#505050"
     id="path4182" /><path
     d="m 10516.943,16441.38 q 31.609,0 56.304,13.335 24.694,12.841 39.017,39.017 14.323,26.177 14.323,63.712 v 159.527 h -44.45 v -153.106 q 0,-40.499 -20.25,-61.736 -19.755,-21.732 -53.834,-21.732 -35.066,0 -55.809,22.719 -20.744,22.225 -20.744,64.7 v 149.155 h -44.45 v -153.106 q 0,-40.499 -20.249,-61.736 -19.756,-21.732 -53.834,-21.732 -35.067,0 -55.81,22.719 -20.743,22.225 -20.743,64.7 v 149.155 h -44.944 v -270.652 h 44.944 v 39.017 q 13.335,-21.237 35.56,-32.596 22.719,-11.36 49.883,-11.36 34.078,0 60.254,15.311 26.176,15.31 39.018,44.944 11.359,-28.646 37.535,-44.45 26.176,-15.805 58.279,-15.805 z"
     style="fill:#505050"
     id="path4184" /></g>
            <g
   stroke="#30ba78"
   stroke-width="4.32"
   transform="matrix(32.1597,0,0,32.1597,2846.48,8951)"
   id="g2270">
                <rect
   width="30"
   height="20"
   x="161.21001"
   y="195.27"
   fill="#30ba78"
   class="st0"
   id="rect2266" />
                <path
   fill="none"
   d="m 176.21,179.14 a 6.2,6.2 0 0 0 -6.2,6.2 v 9.31 h 12.41 v -9.3 a 6.2,6.2 0 0 0 -6.2,-6.21 z"
   class="st0"
   id="path2268" />
            </g>
        </g>
        <g
   transform="translate(-2910.42,-14552.08)"
   id="g2286">
            <rect
   width="3175"
   height="1852.08"
   x="8466.6699"
   y="15610.42"
   fill="#dedfe0"
   opacity="0.99"
   paint-order="stroke fill markers"
   id="rect2274" />
            <g
   aria-label="KEK 数据库"
   id="text2278"
   style="font-weight:500;font-size:493.89px;line-height:1.25;font-family:Poppins;-inkscape-font-specification:'Poppins, Medium';letter-spacing:0;stroke-width:26.46"><path
     d="M 9046.0365,16716.971 8904.29,16559.914 v 157.057 h -44.944 v -344.242 h 44.944 v 159.527 l 142.2403,-159.527 h 56.7974 l -156.0692,172.368 157.5509,171.874 z"
     style="text-align:center;text-anchor:middle;fill:#505050"
     id="path4165" /><path
     d="m 9200.1306,16409.277 v 115.077 h 125.4481 v 37.041 h -125.4481 v 118.534 h 140.2648 v 37.042 h -185.2088 v -344.736 h 185.2088 v 37.042 z"
     style="text-align:center;text-anchor:middle;fill:#505050"
     id="path4167" /><path
     d="m 9595.2429,16716.971 -141.7465,-157.057 v 157.057 h -44.9439 v -344.242 h 44.9439 v 159.527 l 142.2404,-159.527 h 56.7973 l -156.0692,172.368 157.5509,171.874 z"
     style="text-align:center;text-anchor:middle;fill:#505050"
     id="path4169" /><path
     d="m 10017.519,16312.969 c -8.396,19.755 -24.6941,47.907 -37.0414,65.687 l 23.7064,11.36 c 13.829,-16.299 29.634,-40.993 43.957,-63.218 z m -115.5699,66.675 c -4.9389,-18.274 -18.2739,-44.45 -32.1028,-63.712 l -26.6701,10.866 c 13.335,20.249 26.1762,47.413 30.6212,64.699 z m 24.2006,138.289 h 34.0784 v -67.663 c 23.7068,16.792 54.3279,40.993 66.1809,52.352 l 20.25,-26.67 c -11.36,-8.396 -53.8341,-36.054 -78.5286,-50.376 h 92.8516 v -30.622 h -100.7539 v -91.369 h -34.0784 v 91.369 h -101.7413 v 30.622 h 90.3819 c -24.2007,32.102 -60.7485,62.23 -95.3208,77.046 6.9144,6.915 15.8045,19.262 19.7556,27.658 30.1273,-15.804 62.2301,-42.968 86.9246,-72.108 z m 75.0713,70.626 c -10.8656,25.683 -26.6701,47.414 -45.9318,65.194 -17.78,-8.89 -37.5356,-18.274 -55.8095,-26.176 6.9144,-11.36 14.3228,-25.189 21.7311,-39.018 z m 24.201,106.187 c -10.866,-7.903 -25.6827,-16.793 -41.4871,-25.683 26.1761,-27.657 46.4261,-62.23 59.2671,-104.704 l -20.744,-8.396 -5.433,1.481 h -80.5036 c 3.9511,-8.89 6.9145,-17.286 10.3717,-25.682 l -32.5967,-5.927 c -3.4573,10.372 -7.9023,20.744 -12.8412,31.609 h -66.6751 v 31.115 h 51.3645 c -10.3717,19.262 -21.2372,37.536 -31.6089,52.353 24.2006,8.89 50.8706,21.237 75.5651,34.078 -32.1028,22.719 -69.6384,38.523 -109.6435,47.413 6.4205,6.915 13.8289,20.25 17.2861,28.152 44.944,-11.853 86.9247,-31.115 121.9908,-59.267 16.7923,9.384 31.609,19.262 42.9688,27.658 z m 171.379,-261.762 c -7.408,56.797 -19.261,106.186 -37.041,147.673 -18.768,-43.956 -32.597,-94.333 -41.981,-147.673 z m 67.663,0 v -34.078 h -139.277 c 6.915,-27.658 12.842,-56.304 16.793,-85.443 l -33.585,-4.939 c -12.347,85.443 -34.572,167.922 -72.108,219.781 7.902,4.939 21.731,16.298 27.658,22.225 12.347,-18.768 23.707,-40.499 33.585,-64.7 10.865,48.895 24.694,93.345 43.462,131.869 -27.658,46.919 -66.181,82.973 -119.522,109.15 6.421,6.914 16.793,21.731 20.25,29.633 50.377,-27.164 87.912,-61.736 117.052,-104.705 24.201,41.981 55.316,75.565 93.345,98.778 5.433,-9.384 15.805,-21.731 24.201,-28.645 -40.993,-21.732 -73.096,-58.279 -98.284,-103.223 26.176,-50.871 42.474,-112.113 53.834,-185.703 z"
     style="font-weight:normal;font-family:'Noto Sans CJK SC';-inkscape-font-specification:'Noto Sans CJK SC';text-align:center;text-anchor:middle;fill:#505050;fill-opacity:1"
     id="path4171" /><path
     d="m 10466.465,16552.011 -4.939,-33.584 -51.364,16.298 v -97.79 h 55.809 v -34.078 h -55.809 v -98.778 h -34.079 v 98.778 h -61.242 v 34.078 h 61.242 v 108.162 c -25.682,7.408 -48.895,14.323 -67.169,19.756 l 8.89,35.066 c 17.78,-5.433 37.536,-11.36 58.279,-18.274 v 126.93 c 0,7.408 -2.469,9.383 -8.396,9.383 -5.432,0 -25.188,0 -46.425,-0.493 4.939,10.371 9.384,25.188 10.865,34.078 31.115,0.494 49.883,-0.988 61.243,-6.914 12.347,-5.927 16.792,-15.311 16.792,-35.561 v -138.783 z m 56.304,-45.437 c 0.494,-11.854 0.494,-22.225 0.494,-33.091 v -21.237 h 95.32 v 54.328 z m 188.666,-149.155 v 62.724 h -188.172 v -62.724 z m 3.457,347.204 h -151.624 v -74.577 h 151.624 z m 48.401,-166.44 v -31.609 h -109.643 v -54.328 h 92.851 v -126.93 h -258.798 v 148.167 c 0,78.035 -4.445,185.209 -55.316,260.774 8.396,3.457 23.707,13.829 29.633,20.743 41.487,-60.748 54.822,-143.722 59.267,-216.817 h 97.296 v 60.748 h -87.418 v 156.563 h 32.103 v -20.249 h 151.624 v 18.274 h 33.585 v -154.588 h -94.827 v -60.748 z"
     style="font-weight:normal;font-family:'Noto Sans CJK SC';-inkscape-font-specification:'Noto Sans CJK SC';text-align:center;text-anchor:middle;fill:#505050;fill-opacity:1"
     id="path4173" /><path
     d="m 11254.22,16388.04 v -34.572 h -172.368 c -6.42,-15.311 -16.792,-35.067 -28.645,-49.883 l -35.56,9.878 c 8.396,11.359 16.792,26.67 22.719,40.005 h -193.111 v 141.252 c 0,71.614 -3.458,170.886 -43.463,241.512 8.396,3.458 24.201,14.323 31.115,21.238 41.981,-74.578 48.402,-185.703 48.402,-262.75 v -106.68 z m 0.494,257.317 h -140.265 v -56.798 h 108.656 v -33.09 h -108.656 v -51.859 h -36.054 v 51.859 h -93.345 c 15.31,-22.225 30.621,-48.402 44.45,-75.566 h 204.964 v -33.09 h -188.666 c 5.927,-11.853 11.36,-23.707 16.299,-35.56 l -38.03,-13.335 c -5.433,16.792 -11.359,33.09 -18.768,48.895 h -89.888 v 33.09 h 74.578 c -12.347,24.201 -23.213,43.463 -28.646,51.365 -9.878,15.805 -18.274,26.67 -26.67,28.646 4.445,9.877 9.878,28.151 11.853,36.054 4.939,-4.445 21.732,-7.409 46.426,-7.409 h 85.443 v 56.798 h -177.306 v 33.584 h 177.306 v 75.565 h 36.054 v -75.565 h 140.265 z"
     style="font-weight:normal;font-family:'Noto Sans CJK SC';-inkscape-font-specification:'Noto Sans CJK SC';text-align:center;text-anchor:middle;fill:#505050;fill-opacity:1"
     id="path4175" /></g>
            <g
   stroke="#30ba78"
   stroke-width="4.32"
   transform="matrix(32.1597,0,0,32.1597,2846.48,8951)"
   id="g2284">
                <rect
   width="30"
   height="20"
   x="161.21001"
   y="195.27"
   fill="#30ba78"
   class="st0"
   id="rect2280" />
                <path
   fill="none"
   d="m 176.21,179.14 a 6.2,6.2 0 0 0 -6.2,6.2 v 9.31 h 12.41 v -9.3 a 6.2,6.2 0 0 0 -6.2,-6.21 z"
   class="st0"
   id="path2282" />
            </g>
        </g>
        <path
   fill="none"
   stroke="#505050"
   stroke-linejoin="miter"
   stroke-width="95.25"
   marker-end="url(#c)"
   d="m 7143.75,3069.17 v 2222.5"
   id="path2288" />
        <path
   fill="none"
   stroke="#505050"
   stroke-linejoin="miter"
   stroke-width="95.25"
   marker-end="url(#d)"
   d="m 7143.75,8995.83 v 1852.09"
   id="path2290" />
        <path
   fill="none"
   stroke="#505050"
   stroke-linejoin="miter"
   stroke-width="95.25"
   marker-end="url(#e)"
   d="m 7143.75,13229.17 v 2116.66"
   id="path2292" />
        <path
   fill="none"
   stroke="#505050"
   stroke-linejoin="miter"
   stroke-width="52.92"
   marker-end="url(#f)"
   d="M 3704.17,1058.33 H 4762.5"
   id="path2294" />
        <path
   fill="none"
   stroke="#505050"
   stroke-linejoin="miter"
   stroke-width="52.92"
   marker-end="url(#g)"
   d="M 3704.17,5291.67 H 4762.5"
   id="path2296" />
        <path
   fill="none"
   stroke="#505050"
   stroke-linejoin="miter"
   stroke-width="52.92"
   marker-end="url(#h)"
   d="M 3704.17,7408.33 H 6085.42"
   id="path2298" />
        <path
   fill="none"
   stroke="#505050"
   stroke-linejoin="miter"
   stroke-width="52.92"
   marker-end="url(#i)"
   d="M 3704.17,11112.5 H 4762.5"
   id="path2300" />
        <path
   fill="none"
   stroke="#505050"
   stroke-linejoin="miter"
   stroke-width="52.92"
   marker-end="url(#j)"
   d="M 3704.17,15610.42 H 4762.5"
   id="path2302" />
    </g>
    <path
   fill="none"
   stroke="#30ba78"
   stroke-linejoin="miter"
   stroke-width="181.03"
   d="m 7179.9266,7848.48 165.56,-142.33 m -472.53,-220.05 487.2,566.7 232.22,-199 m -711,-687.63 a 209.48,208.37 49.31 0 1 -21.44,294.69 209.48,208.37 49.31 0 1 -294.58,-23.01 209.48,208.37 49.31 0 1 21.45,-294.7 209.48,208.37 49.31 0 1 294.57,23.02 z"
   opacity="0.99"
   id="path2306" />
<g
   aria-label="引导"
   id="text2768"
   style="font-size:388.056px;font-family:'Noto Sans CJK SC';-inkscape-font-specification:'Noto Sans CJK SC';text-align:center;text-anchor:middle;stroke-width:28.222;stop-color:#000000"><path
     d="m 19418.954,5293.6199 c 3.493,-18.2386 6.985,-39.1936 10.478,-59.3725 h 129.222 v -116.0288 h -168.028 v 27.1639 h 139.7 v 61.7009 h -125.342 c -5.044,36.4773 -13.97,83.4321 -21.343,113.7005 l 29.492,-0.3881 h 116.805 c -5.432,65.1934 -11.641,93.5215 -20.567,100.8946 -4.268,3.8805 -8.537,4.2686 -17.074,4.2686 -9.701,0 -34.925,0 -60.537,-2.3284 5.821,8.1492 9.702,20.179 10.478,29.4923 24.447,1.5522 48.507,1.5522 60.536,0.7761 14.358,-0.7761 22.896,-3.4925 31.045,-12.4178 12.806,-13.1939 19.403,-47.7309 26,-133.8793 0.776,-4.2686 1.164,-13.582 1.164,-13.582 z m 232.058,-187.431 v 350.4146 h 28.716 v -350.4146 z"
     style="text-align:start;text-anchor:start"
     id="path3599" /><path
     d="m 20027.814,5142.6662 v 40.7458 h -207.998 v -40.7458 z m -1.552,131.1629 c 48.895,0 61.313,-9.3134 66.358,-48.507 -8.538,-1.5522 -20.179,-5.0447 -27.552,-9.3134 -3.105,28.3281 -8.926,33.7609 -40.358,33.7609 h -154.447 c -42.298,0 -50.447,-3.8806 -50.447,-20.1789 v -20.567 h 236.326 v -91.5812 h -265.818 v 112.5363 c 0,36.0892 19.015,43.8503 81.88,43.8503 z m 75.671,39.9697 h -85.372 v -29.8803 h -29.105 v 29.8803 h -225.848 v 26.7759 h 74.895 l -17.075,14.7461 c 24.06,20.179 51.224,49.6712 62.865,69.8501 l 21.343,-19.0147 c -12.029,-19.4028 -38.029,-45.7906 -61.701,-65.5815 h 145.521 v 80.7157 c 0,6.2089 -2.328,8.1491 -9.701,8.1491 -7.373,0.3881 -35.313,0.7761 -63.641,-0.388 4.268,7.7611 8.537,18.2386 10.089,25.9997 37.254,0 60.537,0 74.119,-4.2686 13.582,-3.8805 18.239,-11.6417 18.239,-29.1042 v -81.1037 h 84.984 z"
     style="text-align:start;text-anchor:start"
     id="path3601" /></g><g
   aria-label="变量"
   id="text2768-6"
   style="font-size:388.056px;font-family:'Noto Sans CJK SC';-inkscape-font-specification:'Noto Sans CJK SC';text-align:center;text-anchor:middle;stroke-width:28.222;stop-color:#000000"><path
     d="m 19483.372,5760.5566 h 28.716 v -117.1929 h 59.76 v 116.8048 h 28.717 v -116.8048 h 107.491 v -25.6117 h -139.7 c -5.433,-12.0298 -15.522,-29.8803 -24.448,-43.0742 l -27.94,6.985 c 7.373,10.8655 14.746,24.8356 19.791,36.0892 h -158.715 v 25.6117 h 106.328 z m 132.327,-86.1484 c 23.671,21.7311 51.999,53.9397 65.969,74.8948 l 22.507,-14.7462 c -13.581,-19.7908 -41.91,-50.8353 -66.745,-72.5664 z m -180.058,-14.7462 c -11.254,27.9401 -30.657,55.104 -52,73.7307 6.597,3.4925 17.463,10.8655 22.507,15.5222 20.955,-20.1789 42.687,-51.2234 55.492,-82.2679 z m 187.819,137.3719 c -20.179,25.9997 -47.731,46.5667 -81.104,62.865 -32.597,-16.6864 -59.372,-37.6414 -79.163,-62.865 z m 24.835,-27.164 -5.044,1.5523 h -242.535 v 25.6117 h 31.432 c 20.567,30.2683 47.731,55.492 80.716,76.0589 -43.074,17.0745 -92.746,28.3281 -143.193,34.9251 5.045,6.2089 11.642,18.2386 14.358,25.6117 55.104,-8.9253 109.82,-22.8953 157.551,-45.0145 45.791,22.5072 99.73,37.2533 159.879,45.0145 3.493,-7.7612 10.09,-19.0148 16.298,-25.2237 -54.327,-6.2089 -103.999,-17.4625 -145.909,-34.925 39.582,-22.8953 72.955,-52.3876 95.074,-90.4171 z"
     style="text-align:start;text-anchor:start"
     id="path3604" /><path
     d="m 20025.874,5629.0056 h -192.088 v -20.955 h 192.088 z m 0,38.0295 h -192.088 v -21.3431 h 192.088 z m 28.328,-76.447 h -247.968 v 93.9095 h 247.968 z m 49.283,109.8198 h -345.37 v 22.1192 h 345.37 z m -277.46,118.3571 v -22.1192 h 90.029 v 22.1192 z m 0,-60.9248 h 90.029 v 21.7311 h -90.029 z m 211.491,21.7311 h -93.91 v -21.7311 h 93.91 z m 0,39.1937 h -93.91 v -22.1192 h 93.91 z m -93.91,81.8798 v -22.5072 h 130.387 v -20.179 h -130.387 v -21.343 h 122.238 v -96.626 h -266.595 v 96.626 h 116.805 v 21.343 h -128.058 v 20.179 h 128.058 v 22.5072 h -160.267 v 22.5073 h 349.638 v -22.5073 z"
     style="text-align:start;text-anchor:start"
     id="path3606" /></g></svg>
