<?xml version="1.0" encoding="UTF-8" standalone="no"?>
<!-- Created with Inkscape (http://www.inkscape.org/) -->

<svg
   xmlns:dc="http://purl.org/dc/elements/1.1/"
   xmlns:cc="http://creativecommons.org/ns#"
   xmlns:rdf="http://www.w3.org/1999/02/22-rdf-syntax-ns#"
   xmlns:svg="http://www.w3.org/2000/svg"
   xmlns="http://www.w3.org/2000/svg"
   xmlns:sodipodi="http://sodipodi.sourceforge.net/DTD/sodipodi-0.dtd"
   xmlns:inkscape="http://www.inkscape.org/namespaces/inkscape"
   version="1.2"
   width="900"
   height="200"
   id="svg2"
   inkscape:version="0.48.1 "
   sodipodi:docname="net_basic_tcppacket.svg">
  <sodipodi:namedview
     pagecolor="#ffffff"
     bordercolor="#666666"
     borderopacity="1"
     objecttolerance="10"
     gridtolerance="10"
     guidetolerance="10"
     inkscape:pageopacity="1"
     inkscape:pageshadow="2"
     inkscape:window-width="1920"
     inkscape:window-height="1033"
     id="namedview27"
     showgrid="true"
     inkscape:zoom="1.403607"
     inkscape:cx="497.05441"
     inkscape:cy="74.017495"
     inkscape:window-x="-4"
     inkscape:window-y="-4"
     inkscape:window-maximized="1"
     inkscape:current-layer="g3222">
    <inkscape:grid
       type="xygrid"
       id="grid3299"
       empspacing="5"
       visible="true"
       enabled="true"
       snapvisiblegridlinesonly="true" />
  </sodipodi:namedview>
  <defs
     id="defs4" />
  <metadata
     id="metadata7">
    <rdf:RDF>
      <cc:Work
         rdf:about="">
        <dc:format>image/svg+xml</dc:format>
        <dc:type
           rdf:resource="http://purl.org/dc/dcmitype/StillImage" />
        <dc:title />
      </cc:Work>
    </rdf:RDF>
  </metadata>
  <g
     transform="translate(601,-466.8125)"
     id="g3222">
    <rect
       width="860"
       height="160"
       rx="10"
       ry="10"
       x="-581"
       y="486.8125"
       id="rect4438"
       style="fill:#7ac142;fill-opacity:1;fill-rule:nonzero;stroke:none" />
    <rect
       width="130"
       height="160"
       x="-481"
       y="486.8125"
       id="rect6978-9-64-0-1-5-7"
       style="color:#000000;fill:#87cefa;fill-opacity:1;fill-rule:nonzero;stroke:#ffffff;stroke-width:0;stroke-miterlimit:4;stroke-opacity:1;stroke-dasharray:none;marker:none;visibility:visible;display:inline;overflow:visible;enable-background:accumulate" />
    <rect
       width="130.00003"
       height="160"
       ry="0"
       x="-351"
       y="486.8125"
       id="rect6978-9-64-0-1-5-7-5"
       style="color:#000000;fill:#f5deb3;fill-opacity:1;fill-rule:nonzero;stroke:#ffffff;stroke-width:0;stroke-miterlimit:4;stroke-opacity:1;stroke-dasharray:none;marker:none;visibility:visible;display:inline;overflow:visible;enable-background:accumulate" />
    <rect
       width="399.99982"
       height="160"
       x="-221"
       y="486.8125"
       id="rect6978-9-64-0-1-5-7-5-2"
       style="color:#000000;fill:#e6e6e6;fill-opacity:1;fill-rule:nonzero;stroke:#ffffff;stroke-width:0;stroke-miterlimit:4;stroke-opacity:1;stroke-dasharray:none;marker:none;visibility:visible;display:inline;overflow:visible;enable-background:accumulate" />
    <g
       style="font-size:40px;font-style:normal;font-weight:normal;line-height:125%;letter-spacing:0px;word-spacing:0px;fill:#000000;fill-opacity:1;stroke:none;font-family:Sans"
       id="text3094">
      <path
         d="m -570.58984,542.8125 0,-14.31641 10.35156,0 0,1.68946 -8.45703,0 0,4.38476 7.91992,0 0,1.67969 -7.91992,0 0,4.87305 8.78906,0 0,1.68945 z"
         style="font-size:20px;text-align:center;text-anchor:middle"
         id="path3159" />
      <path
         d="m -553.65625,541.24023 0.25391,1.55274 c -0.4948,0.10417 -0.93751,0.15625 -1.32813,0.15625 -0.63802,0 -1.13281,-0.10091 -1.48437,-0.30274 -0.35157,-0.20182 -0.59896,-0.46712 -0.74219,-0.79589 -0.14323,-0.32878 -0.21485,-1.02051 -0.21484,-2.0752 l 0,-5.9668 -1.28907,0 0,-1.36718 1.28907,0 0,-2.56836 1.74804,-1.05469 0,3.62305 1.76758,0 0,1.36718 -1.76758,0 0,6.06446 c 0,0.5013 0.0309,0.82357 0.0928,0.96679 0.0618,0.14323 0.16275,0.25717 0.30273,0.3418 0.13997,0.0846 0.34016,0.12696 0.60059,0.12695 0.1953,10e-6 0.45246,-0.0228 0.77148,-0.0684 z"
         style="font-size:20px;text-align:center;text-anchor:middle"
         id="path3161" />
      <path
         d="m -551.94727,542.8125 0,-14.31641 1.75782,0 0,5.13672 c 0.82031,-0.95051 1.85546,-1.42577 3.10547,-1.42578 0.76822,10e-6 1.43553,0.15138 2.00195,0.4541 0.5664,0.30275 0.97167,0.72104 1.21582,1.25489 0.24413,0.53386 0.3662,1.3086 0.36621,2.32421 l 0,6.57227 -1.75781,0 0,-6.57227 c -1e-5,-0.87889 -0.19044,-1.51854 -0.57129,-1.91894 -0.38087,-0.40038 -0.9196,-0.60058 -1.61621,-0.60059 -0.52084,1e-5 -1.01075,0.1351 -1.46973,0.40528 -0.45899,0.27019 -0.78614,0.6364 -0.98144,1.09863 -0.19532,0.46225 -0.29298,1.10027 -0.29297,1.91406 l 0,5.67383 z"
         style="font-size:20px;text-align:center;text-anchor:middle"
         id="path3163" />
      <path
         d="m -533.71484,539.47266 1.8164,0.22461 c -0.28647,1.0612 -0.81706,1.88476 -1.59179,2.4707 -0.77475,0.58594 -1.76433,0.8789 -2.96875,0.8789 -1.51694,0 -2.71973,-0.46712 -3.6084,-1.40136 -0.88868,-0.93424 -1.33301,-2.24446 -1.33301,-3.93067 0,-1.74478 0.44922,-3.09895 1.34766,-4.0625 0.89843,-0.96353 2.06379,-1.4453 3.49609,-1.44531 1.38671,10e-6 2.51952,0.47202 3.39844,1.41602 0.87889,0.94402 1.31835,2.27214 1.31836,3.98437 -10e-6,0.10417 -0.003,0.26042 -0.01,0.46875 l -7.73437,0 c 0.0651,1.13933 0.38736,2.01172 0.96679,2.61719 0.57943,0.60547 1.30208,0.9082 2.16797,0.9082 0.64453,0 1.19466,-0.16927 1.65039,-0.50781 0.45572,-0.33854 0.81705,-0.8789 1.08399,-1.62109 z m -5.77149,-2.8418 5.79102,0 c -0.0781,-0.87239 -0.29949,-1.52669 -0.66406,-1.96289 -0.55991,-0.67708 -1.28582,-1.01562 -2.17774,-1.01563 -0.8073,10e-6 -1.48601,0.27019 -2.03613,0.81055 -0.55014,0.54037 -0.8545,1.26303 -0.91309,2.16797 z"
         style="font-size:20px;text-align:center;text-anchor:middle"
         id="path3165" />
      <path
         d="m -529.70117,542.8125 0,-10.37109 1.58203,0 0,1.57226 c 0.40364,-0.73567 0.77636,-1.22069 1.11816,-1.45508 0.3418,-0.23436 0.71777,-0.35155 1.12793,-0.35156 0.59245,10e-6 1.19466,0.18881 1.80664,0.56641 l -0.60546,1.63086 c -0.4297,-0.2539 -0.85939,-0.38085 -1.28907,-0.38086 -0.38412,10e-6 -0.72917,0.11557 -1.03515,0.34668 -0.306,0.23113 -0.5241,0.55176 -0.6543,0.96191 -0.19532,0.62501 -0.29297,1.3086 -0.29297,2.05078 l 0,5.42969 z"
         style="font-size:20px;text-align:center;text-anchor:middle"
         id="path3167" />
      <path
         d="m -523.00195,542.8125 0,-10.37109 1.58203,0 0,1.47461 c 0.76171,-1.13932 1.86197,-1.70898 3.30078,-1.70899 0.62499,10e-6 1.19954,0.11232 1.72363,0.33692 0.52408,0.22461 0.91633,0.51921 1.17676,0.88378 0.26041,0.3646 0.4427,0.79754 0.54688,1.29883 0.0651,0.32553 0.0976,0.89519 0.0977,1.70899 l 0,6.37695 -1.75781,0 0,-6.30859 c -10e-6,-0.71614 -0.0684,-1.25162 -0.20508,-1.60645 -0.13673,-0.35481 -0.37924,-0.63801 -0.72754,-0.84961 -0.34831,-0.21158 -0.75684,-0.31737 -1.22558,-0.31738 -0.74871,10e-6 -1.39487,0.23764 -1.93848,0.71289 -0.54362,0.47527 -0.81543,1.37696 -0.81543,2.70508 l 0,5.66406 z"
         style="font-size:20px;text-align:center;text-anchor:middle"
         id="path3169" />
      <path
         d="m -504.76953,539.47266 1.81641,0.22461 c -0.28647,1.0612 -0.81707,1.88476 -1.5918,2.4707 -0.77475,0.58594 -1.76433,0.8789 -2.96875,0.8789 -1.51693,0 -2.71973,-0.46712 -3.6084,-1.40136 -0.88867,-0.93424 -1.33301,-2.24446 -1.33301,-3.93067 0,-1.74478 0.44922,-3.09895 1.34766,-4.0625 0.89843,-0.96353 2.0638,-1.4453 3.49609,-1.44531 1.38671,10e-6 2.51953,0.47202 3.39844,1.41602 0.8789,0.94402 1.31835,2.27214 1.31836,3.98437 -1e-5,0.10417 -0.003,0.26042 -0.01,0.46875 l -7.73437,0 c 0.0651,1.13933 0.38736,2.01172 0.9668,2.61719 0.57942,0.60547 1.30207,0.9082 2.16796,0.9082 0.64453,0 1.19466,-0.16927 1.65039,-0.50781 0.45573,-0.33854 0.81705,-0.8789 1.08399,-1.62109 z m -5.77149,-2.8418 5.79102,0 c -0.0781,-0.87239 -0.29949,-1.52669 -0.66406,-1.96289 -0.55991,-0.67708 -1.28582,-1.01562 -2.17774,-1.01563 -0.80729,10e-6 -1.486,0.27019 -2.03613,0.81055 -0.55013,0.54037 -0.85449,1.26303 -0.91309,2.16797 z"
         style="font-size:20px;text-align:center;text-anchor:middle"
         id="path3171" />
      <path
         d="m -496.89844,541.24023 0.25391,1.55274 c -0.4948,0.10417 -0.93751,0.15625 -1.32813,0.15625 -0.63802,0 -1.13281,-0.10091 -1.48437,-0.30274 -0.35157,-0.20182 -0.59896,-0.46712 -0.74219,-0.79589 -0.14323,-0.32878 -0.21484,-1.02051 -0.21484,-2.0752 l 0,-5.9668 -1.28906,0 0,-1.36718 1.28906,0 0,-2.56836 1.74804,-1.05469 0,3.62305 1.76758,0 0,1.36718 -1.76758,0 0,6.06446 c 0,0.5013 0.0309,0.82357 0.0928,0.96679 0.0618,0.14323 0.16275,0.25717 0.30273,0.3418 0.13997,0.0846 0.34017,0.12696 0.60059,0.12695 0.19531,10e-6 0.45247,-0.0228 0.77148,-0.0684 z"
         style="font-size:20px;text-align:center;text-anchor:middle"
         id="path3173" />
      <path
         d="m -495.87305,538.51562 0,-1.76757 5.40039,0 0,1.76757 z"
         style="font-size:20px;text-align:center;text-anchor:middle"
         id="path3175" />
      <path
         d="m -562.23047,567.8125 0,-14.31641 1.89453,0 0,5.87891 7.44141,0 0,-5.87891 1.89453,0 0,14.31641 -1.89453,0 0,-6.74805 -7.44141,0 0,6.74805 z"
         style="font-size:20px;text-align:center;text-anchor:middle"
         id="path3177" />
      <path
         d="m -540.96094,564.47266 1.81641,0.22461 c -0.28647,1.0612 -0.81707,1.88476 -1.5918,2.4707 -0.77475,0.58594 -1.76433,0.8789 -2.96875,0.8789 -1.51693,0 -2.71973,-0.46712 -3.6084,-1.40136 -0.88867,-0.93424 -1.33301,-2.24446 -1.333,-3.93067 -10e-6,-1.74478 0.44921,-3.09895 1.34765,-4.0625 0.89844,-0.96353 2.0638,-1.4453 3.4961,-1.44531 1.38671,10e-6 2.51952,0.47202 3.39843,1.41602 0.8789,0.94402 1.31835,2.27214 1.31836,3.98437 -10e-6,0.10417 -0.003,0.26042 -0.01,0.46875 l -7.73438,0 c 0.0651,1.13933 0.38737,2.01172 0.9668,2.61719 0.57942,0.60547 1.30208,0.9082 2.16797,0.9082 0.64452,0 1.19465,-0.16927 1.65039,-0.50781 0.45572,-0.33854 0.81705,-0.8789 1.08398,-1.62109 z m -5.77148,-2.8418 5.79101,0 c -0.0781,-0.87239 -0.29948,-1.52669 -0.66406,-1.96289 -0.5599,-0.67708 -1.28581,-1.01562 -2.17773,-1.01563 -0.8073,10e-6 -1.48601,0.27019 -2.03614,0.81055 -0.55013,0.54037 -0.85449,1.26303 -0.91308,2.16797 z"
         style="font-size:20px;text-align:center;text-anchor:middle"
         id="path3179" />
      <path
         d="m -530.16016,566.5332 c -0.65105,0.55339 -1.27767,0.94401 -1.87988,1.17188 -0.60222,0.22786 -1.24838,0.34179 -1.93848,0.34179 -1.13932,0 -2.01497,-0.27832 -2.62695,-0.83496 -0.61198,-0.55664 -0.91797,-1.2679 -0.91797,-2.13379 0,-0.5078 0.11556,-0.97167 0.34668,-1.3916 0.23112,-0.41991 0.53385,-0.75683 0.90821,-1.01074 0.37434,-0.2539 0.79589,-0.44596 1.26464,-0.57617 0.34505,-0.0911 0.86589,-0.17903 1.5625,-0.26367 1.41927,-0.16927 2.46419,-0.37109 3.13477,-0.60547 0.006,-0.24088 0.01,-0.39387 0.01,-0.45899 -10e-6,-0.71613 -0.16603,-1.22069 -0.49805,-1.51367 -0.44923,-0.39712 -1.11654,-0.59569 -2.00195,-0.5957 -0.82683,10e-6 -1.43718,0.14487 -1.83106,0.43457 -0.39388,0.28972 -0.68522,0.80242 -0.87402,1.53809 l -1.71875,-0.23438 c 0.15625,-0.73567 0.41341,-1.32974 0.77148,-1.78223 0.35807,-0.45246 0.87565,-0.80077 1.55274,-1.04492 0.67707,-0.24413 1.46158,-0.3662 2.35351,-0.36621 0.88541,10e-6 1.60481,0.10418 2.1582,0.3125 0.55338,0.20834 0.96028,0.47039 1.22071,0.78613 0.2604,0.31577 0.4427,0.71453 0.54687,1.19629 0.0586,0.29949 0.0879,0.83985 0.0879,1.6211 l 0,2.34375 c -10e-6,1.63411 0.0374,2.66764 0.11231,3.10058 0.0749,0.43295 0.22297,0.84798 0.44433,1.24512 l -1.83593,0 c -0.1823,-0.36458 -0.29949,-0.79101 -0.35157,-1.2793 z m -0.14648,-3.92578 c -0.63803,0.26042 -1.59506,0.48178 -2.87109,0.66406 -0.72266,0.10418 -1.23373,0.22136 -1.53321,0.35157 -0.29948,0.13021 -0.5306,0.32064 -0.69336,0.57129 -0.16276,0.25065 -0.24414,0.52897 -0.24414,0.83496 0,0.46875 0.17741,0.85937 0.53223,1.17187 0.35481,0.3125 0.87402,0.46875 1.55762,0.46875 0.67707,0 1.27929,-0.14811 1.80664,-0.44433 0.52733,-0.29623 0.9147,-0.7015 1.16211,-1.21582 0.18879,-0.39714 0.28319,-0.98307 0.2832,-1.75782 z"
         style="font-size:20px;text-align:center;text-anchor:middle"
         id="path3181" />
      <path
         d="m -519.06641,567.8125 0,-1.30859 c -0.65756,1.02864 -1.62435,1.54296 -2.90039,1.54296 -0.82682,0 -1.58691,-0.22786 -2.28027,-0.68359 -0.69336,-0.45573 -1.23047,-1.09212 -1.61133,-1.90918 -0.38086,-0.81705 -0.57129,-1.75618 -0.57129,-2.81738 0,-1.03515 0.17253,-1.97428 0.51758,-2.81738 0.34505,-0.84309 0.86263,-1.48925 1.55274,-1.93848 0.6901,-0.44921 1.46158,-0.67382 2.31445,-0.67383 0.62499,10e-6 1.18163,0.13185 1.66992,0.39551 0.48827,0.26368 0.88541,0.60711 1.19141,1.03027 l 0,-5.13672 1.74804,0 0,14.31641 z m -5.55664,-5.17578 c 0,1.32813 0.27995,2.32097 0.83985,2.97851 0.55989,0.65756 1.2207,0.98633 1.98242,0.98633 0.76822,0 1.42089,-0.31412 1.95801,-0.94238 0.5371,-0.62825 0.80565,-1.58691 0.80566,-2.87598 -10e-6,-1.41926 -0.27344,-2.46093 -0.82031,-3.125 -0.54688,-0.66405 -1.22071,-0.99608 -2.02149,-0.99609 -0.78125,10e-6 -1.43392,0.31902 -1.958,0.95703 -0.5241,0.63803 -0.78614,1.64389 -0.78614,3.01758 z"
         style="font-size:20px;text-align:center;text-anchor:middle"
         id="path3183" />
      <path
         d="m -507.5625,564.47266 1.81641,0.22461 c -0.28647,1.0612 -0.81707,1.88476 -1.5918,2.4707 -0.77475,0.58594 -1.76433,0.8789 -2.96875,0.8789 -1.51693,0 -2.71973,-0.46712 -3.6084,-1.40136 -0.88867,-0.93424 -1.33301,-2.24446 -1.33301,-3.93067 0,-1.74478 0.44922,-3.09895 1.34766,-4.0625 0.89843,-0.96353 2.0638,-1.4453 3.49609,-1.44531 1.38671,10e-6 2.51953,0.47202 3.39844,1.41602 0.8789,0.94402 1.31835,2.27214 1.31836,3.98437 -10e-6,0.10417 -0.003,0.26042 -0.01,0.46875 l -7.73437,0 c 0.0651,1.13933 0.38737,2.01172 0.9668,2.61719 0.57942,0.60547 1.30207,0.9082 2.16797,0.9082 0.64452,0 1.19465,-0.16927 1.65039,-0.50781 0.45572,-0.33854 0.81704,-0.8789 1.08398,-1.62109 z m -5.77148,-2.8418 5.79101,0 c -0.0781,-0.87239 -0.29949,-1.52669 -0.66406,-1.96289 -0.5599,-0.67708 -1.28582,-1.01562 -2.17774,-1.01563 -0.80729,10e-6 -1.486,0.27019 -2.03613,0.81055 -0.55013,0.54037 -0.85449,1.26303 -0.91308,2.16797 z"
         style="font-size:20px;text-align:center;text-anchor:middle"
         id="path3185" />
      <path
         d="m -503.54883,567.8125 0,-10.37109 1.58203,0 0,1.57226 c 0.40365,-0.73567 0.77637,-1.22069 1.11817,-1.45508 0.34179,-0.23436 0.71777,-0.35155 1.12793,-0.35156 0.59244,10e-6 1.19465,0.18881 1.80664,0.56641 l -0.60547,1.63086 c -0.42969,-0.2539 -0.85938,-0.38085 -1.28906,-0.38086 -0.38412,10e-6 -0.72917,0.11557 -1.03516,0.34668 -0.30599,0.23113 -0.52409,0.55176 -0.6543,0.96191 -0.19531,0.62501 -0.29297,1.3086 -0.29297,2.05078 l 0,5.42969 z"
         style="font-size:20px;text-align:center;text-anchor:middle"
         id="path3187" />
      <path
         d="m -566.92773,597.02148 c -0.97006,-1.22396 -1.79037,-2.65625 -2.46094,-4.29687 -0.67058,-1.64062 -1.00586,-3.33984 -1.00586,-5.09766 0,-1.54947 0.25065,-3.03384 0.75195,-4.45312 0.58594,-1.64713 1.49088,-3.28775 2.71485,-4.92188 l 1.25976,0 c -0.78776,1.35418 -1.3086,2.32098 -1.5625,2.90039 -0.39714,0.89845 -0.70964,1.83595 -0.9375,2.8125 -0.27995,1.21746 -0.41992,2.44142 -0.41992,3.67188 0,3.13151 0.9733,6.25976 2.91992,9.38476 z"
         style="font-size:20px;text-align:center;text-anchor:middle"
         id="path3189" />
      <path
         d="m -557.47461,592.8125 -1.75781,0 0,-11.20117 c -0.42318,0.40365 -0.9782,0.8073 -1.66504,1.21094 -0.68685,0.40365 -1.30371,0.70639 -1.85059,0.9082 l 0,-1.69922 c 0.98307,-0.46223 1.84245,-1.02212 2.57813,-1.67969 0.73567,-0.65754 1.2565,-1.29556 1.5625,-1.91406 l 1.13281,0 z"
         style="font-size:20px;text-align:center;text-anchor:middle"
         id="path3191" />
      <path
         d="m -547.32812,592.8125 0,-3.42773 -6.21094,0 0,-1.61133 6.5332,-9.27735 1.43555,0 0,9.27735 1.93359,0 0,1.61133 -1.93359,0 0,3.42773 z m 0,-5.03906 0,-6.45508 -4.48243,6.45508 z"
         style="font-size:20px;text-align:center;text-anchor:middle"
         id="path3193" />
      <path
         d="m -535.64844,592.8125 0,-14.31641 5.3711,0 c 1.09374,2e-5 1.97102,0.14487 2.63183,0.43457 0.6608,0.28973 1.17838,0.73569 1.55274,1.33789 0.37433,0.60223 0.56151,1.23211 0.56152,1.88965 -10e-6,0.61199 -0.16603,1.18816 -0.49805,1.72852 -0.33204,0.54037 -0.83334,0.97657 -1.5039,1.30859 0.86587,0.25392 1.53156,0.68686 1.99707,1.29883 0.46548,0.61199 0.69823,1.33464 0.69824,2.16797 -10e-6,0.67058 -0.14161,1.29395 -0.42481,1.87012 -0.28321,0.57617 -0.63314,1.02051 -1.0498,1.333 -0.41668,0.31251 -0.93914,0.54851 -1.56738,0.70801 -0.62827,0.15951 -1.39812,0.23926 -2.30957,0.23926 z m 1.89453,-8.30078 3.09571,0 c 0.83983,10e-6 1.44205,-0.0553 1.80664,-0.16602 0.48176,-0.14322 0.84471,-0.38085 1.08886,-0.71289 0.24414,-0.33202 0.36621,-0.74869 0.36622,-1.25 -10e-6,-0.47525 -0.11395,-0.89354 -0.3418,-1.25488 -0.22787,-0.36132 -0.5534,-0.60871 -0.97656,-0.74219 -0.42319,-0.13345 -1.1491,-0.20018 -2.17774,-0.20019 l -2.86133,0 z m 0,6.61133 3.56446,0 c 0.61197,0 1.04166,-0.0228 1.28906,-0.0684 0.43619,-0.0781 0.80077,-0.20833 1.09375,-0.39063 0.29296,-0.18229 0.53384,-0.44759 0.72266,-0.7959 0.18879,-0.3483 0.28319,-0.75032 0.2832,-1.20605 -10e-6,-0.53385 -0.13673,-0.99772 -0.41016,-1.3916 -0.27344,-0.39388 -0.65268,-0.67057 -1.13769,-0.83008 -0.48504,-0.1595 -1.18328,-0.23925 -2.09473,-0.23926 l -3.31055,0 z"
         style="font-size:20px;text-align:center;text-anchor:middle"
         id="path3195" />
      <path
         d="m -522.51367,596.80664 -0.19531,-1.65039 c 0.38411,0.10416 0.71939,0.15625 1.00586,0.15625 0.39062,0 0.70312,-0.0651 0.9375,-0.19531 0.23437,-0.13021 0.42642,-0.3125 0.57617,-0.54688 0.11067,-0.17578 0.28971,-0.61198 0.53711,-1.30859 0.0325,-0.0977 0.0846,-0.24089 0.15625,-0.42969 l -3.93555,-10.39062 1.89453,0 2.1582,6.00586 c 0.27995,0.76172 0.5306,1.5625 0.75196,2.40234 0.20181,-0.80729 0.4427,-1.59505 0.72265,-2.36328 l 2.2168,-6.04492 1.75781,0 -3.94531,10.54687 c -0.42318,1.13932 -0.75196,1.92383 -0.98633,2.35352 -0.3125,0.57942 -0.67058,1.00423 -1.07422,1.27441 -0.40365,0.27018 -0.88542,0.40527 -1.44531,0.40527 -0.33854,0 -0.71615,-0.0716 -1.13281,-0.21484 z"
         style="font-size:20px;text-align:center;text-anchor:middle"
         id="path3197" />
      <path
         d="m -508.59766,591.24023 0.25391,1.55274 c -0.4948,0.10417 -0.9375,0.15625 -1.32812,0.15625 -0.63803,0 -1.13282,-0.10091 -1.48438,-0.30274 -0.35156,-0.20182 -0.59896,-0.46712 -0.74219,-0.79589 -0.14323,-0.32878 -0.21484,-1.02051 -0.21484,-2.0752 l 0,-5.9668 -1.28906,0 0,-1.36718 1.28906,0 0,-2.56836 1.74805,-1.05469 0,3.62305 1.76757,0 0,1.36718 -1.76757,0 0,6.06446 c -10e-6,0.5013 0.0309,0.82357 0.0928,0.96679 0.0618,0.14323 0.16276,0.25717 0.30273,0.3418 0.13997,0.0846 0.34017,0.12696 0.60059,0.12695 0.19531,10e-6 0.45247,-0.0228 0.77148,-0.0684 z"
         style="font-size:20px;text-align:center;text-anchor:middle"
         id="path3199" />
      <path
         d="m -499.78906,589.47266 1.8164,0.22461 c -0.28646,1.0612 -0.81706,1.88476 -1.59179,2.4707 -0.77475,0.58594 -1.76433,0.8789 -2.96875,0.8789 -1.51693,0 -2.71973,-0.46712 -3.6084,-1.40136 -0.88867,-0.93424 -1.33301,-2.24446 -1.33301,-3.93067 0,-1.74478 0.44922,-3.09895 1.34766,-4.0625 0.89843,-0.96353 2.06379,-1.4453 3.49609,-1.44531 1.38671,10e-6 2.51952,0.47202 3.39844,1.41602 0.87889,0.94402 1.31835,2.27214 1.31836,3.98437 -10e-6,0.10417 -0.003,0.26042 -0.01,0.46875 l -7.73437,0 c 0.0651,1.13933 0.38736,2.01172 0.96679,2.61719 0.57943,0.60547 1.30208,0.9082 2.16797,0.9082 0.64453,0 1.19466,-0.16927 1.65039,-0.50781 0.45572,-0.33854 0.81705,-0.8789 1.08399,-1.62109 z m -5.77149,-2.8418 5.79102,0 c -0.0781,-0.87239 -0.29949,-1.52669 -0.66406,-1.96289 -0.55991,-0.67708 -1.28582,-1.01562 -2.17774,-1.01563 -0.80729,10e-6 -1.486,0.27019 -2.03613,0.81055 -0.55013,0.54037 -0.8545,1.26303 -0.91309,2.16797 z"
         style="font-size:20px;text-align:center;text-anchor:middle"
         id="path3201" />
      <path
         d="m -494.60352,597.02148 -1.25976,0 c 1.94661,-3.125 2.91992,-6.25325 2.91992,-9.38476 0,-1.22395 -0.13998,-2.43814 -0.41992,-3.64258 -0.22136,-0.97655 -0.5306,-1.91405 -0.92774,-2.8125 -0.2539,-0.58592 -0.77799,-1.56249 -1.57226,-2.92969 l 1.25976,0 c 1.22396,1.63413 2.12891,3.27475 2.71485,4.92188 0.50129,1.41928 0.75195,2.90365 0.75195,4.45312 0,1.75782 -0.33692,3.45704 -1.01074,5.09766 -0.67383,1.64062 -1.49252,3.07291 -2.45606,4.29687 z"
         style="font-size:20px;text-align:center;text-anchor:middle"
         id="path3203" />
    </g>
    <g
       style="font-size:40px;font-style:normal;font-weight:normal;line-height:125%;letter-spacing:0px;word-spacing:0px;fill:#000000;fill-opacity:1;stroke:none;font-family:Sans"
       id="text3094-4">
      <path
         d="m -460.75977,556.8125 0,-14.31641 1.89454,0 0,14.31641 z"
         style="font-size:20px;text-align:center;text-anchor:middle"
         id="path3124" />
      <path
         d="m -455.53516,556.8125 0,-14.31641 5.40039,0 c 0.95052,2e-5 1.67643,0.0456 2.17774,0.13672 0.70311,0.1172 1.29231,0.34019 1.76758,0.66895 0.47525,0.32879 0.85773,0.7894 1.14746,1.38183 0.2897,0.59246 0.43456,1.2435 0.43457,1.95313 -1e-5,1.21746 -0.38738,2.24773 -1.16211,3.09082 -0.77475,0.8431 -2.17449,1.26465 -4.19922,1.26465 l -3.67187,0 0,5.82031 z m 1.89454,-7.50977 3.70117,0 c 1.22395,10e-6 2.09309,-0.22785 2.60742,-0.68359 0.51431,-0.45572 0.77147,-1.097 0.77148,-1.92383 -1e-5,-0.59895 -0.15137,-1.11164 -0.4541,-1.53808 -0.30274,-0.42642 -0.70151,-0.708 -1.19629,-0.84473 -0.31902,-0.0846 -0.90821,-0.12694 -1.76758,-0.12695 l -3.6621,0 z"
         style="font-size:20px;text-align:center;text-anchor:middle"
         id="path3126" />
      <path
         d="m -443.08398,552.51562 0,-1.76757 5.40039,0 0,1.76757 z"
         style="font-size:20px;text-align:center;text-anchor:middle"
         id="path3128" />
      <path
         d="m -435.4375,556.8125 0,-14.31641 1.89453,0 0,5.87891 7.44141,0 0,-5.87891 1.89453,0 0,14.31641 -1.89453,0 0,-6.74805 -7.44141,0 0,6.74805 z"
         style="font-size:20px;text-align:center;text-anchor:middle"
         id="path3130" />
      <path
         d="m -414.16797,553.47266 1.81641,0.22461 c -0.28647,1.0612 -0.81707,1.88476 -1.5918,2.4707 -0.77475,0.58594 -1.76433,0.8789 -2.96875,0.8789 -1.51693,0 -2.71973,-0.46712 -3.6084,-1.40136 -0.88867,-0.93424 -1.33301,-2.24446 -1.33301,-3.93067 0,-1.74478 0.44922,-3.09895 1.34766,-4.0625 0.89844,-0.96353 2.0638,-1.4453 3.49609,-1.44531 1.38672,10e-6 2.51953,0.47202 3.39844,1.41602 0.8789,0.94402 1.31835,2.27214 1.31836,3.98437 -10e-6,0.10417 -0.003,0.26042 -0.01,0.46875 l -7.73438,0 c 0.0651,1.13933 0.38737,2.01172 0.9668,2.61719 0.57942,0.60547 1.30208,0.9082 2.16797,0.9082 0.64452,0 1.19465,-0.16927 1.65039,-0.50781 0.45572,-0.33854 0.81705,-0.8789 1.08398,-1.62109 z m -5.77148,-2.8418 5.79101,0 c -0.0781,-0.87239 -0.29948,-1.52669 -0.66406,-1.96289 -0.5599,-0.67708 -1.28581,-1.01562 -2.17773,-1.01563 -0.8073,10e-6 -1.48601,0.27019 -2.03614,0.81055 -0.55013,0.54037 -0.85449,1.26303 -0.91308,2.16797 z"
         style="font-size:20px;text-align:center;text-anchor:middle"
         id="path3132" />
      <path
         d="m -403.36719,555.5332 c -0.65105,0.55339 -1.27767,0.94401 -1.87988,1.17188 -0.60222,0.22786 -1.24838,0.34179 -1.93848,0.34179 -1.13932,0 -2.01497,-0.27832 -2.62695,-0.83496 -0.61198,-0.55664 -0.91797,-1.2679 -0.91797,-2.13379 0,-0.5078 0.11556,-0.97167 0.34668,-1.3916 0.23112,-0.41991 0.53385,-0.75683 0.9082,-1.01074 0.37435,-0.2539 0.7959,-0.44596 1.26465,-0.57617 0.34505,-0.0911 0.86588,-0.17903 1.5625,-0.26367 1.41927,-0.16927 2.46419,-0.37109 3.13477,-0.60547 0.007,-0.24088 0.01,-0.39387 0.01,-0.45899 0,-0.71613 -0.16602,-1.22069 -0.49804,-1.51367 -0.44923,-0.39712 -1.11655,-0.59569 -2.00196,-0.5957 -0.82682,10e-6 -1.43717,0.14487 -1.83105,0.43457 -0.39388,0.28972 -0.68523,0.80242 -0.87402,1.53809 l -1.71875,-0.23438 c 0.15624,-0.73567 0.41341,-1.32974 0.77148,-1.78223 0.35807,-0.45246 0.87565,-0.80077 1.55273,-1.04492 0.67708,-0.24413 1.46159,-0.3662 2.35352,-0.36621 0.88541,10e-6 1.60481,0.10418 2.1582,0.3125 0.55338,0.20834 0.96028,0.47039 1.22071,0.78613 0.2604,0.31577 0.4427,0.71453 0.54687,1.19629 0.0586,0.29949 0.0879,0.83985 0.0879,1.6211 l 0,2.34375 c -10e-6,1.63411 0.0374,2.66764 0.11231,3.10058 0.0749,0.43295 0.22297,0.84798 0.44433,1.24512 l -1.83593,0 c -0.1823,-0.36458 -0.29949,-0.79101 -0.35157,-1.2793 z m -0.14648,-3.92578 c -0.63803,0.26042 -1.59506,0.48178 -2.8711,0.66406 -0.72266,0.10418 -1.23372,0.22136 -1.5332,0.35157 -0.29948,0.13021 -0.5306,0.32064 -0.69336,0.57129 -0.16276,0.25065 -0.24414,0.52897 -0.24414,0.83496 0,0.46875 0.17741,0.85937 0.53223,1.17187 0.35481,0.3125 0.87402,0.46875 1.55762,0.46875 0.67707,0 1.27929,-0.14811 1.80664,-0.44433 0.52733,-0.29623 0.9147,-0.7015 1.16211,-1.21582 0.18879,-0.39714 0.28319,-0.98307 0.2832,-1.75782 z"
         style="font-size:20px;text-align:center;text-anchor:middle"
         id="path3134" />
      <path
         d="m -392.27344,556.8125 0,-1.30859 c -0.65756,1.02864 -1.62435,1.54296 -2.90039,1.54296 -0.82683,0 -1.58692,-0.22786 -2.28027,-0.68359 -0.69336,-0.45573 -1.23047,-1.09212 -1.61133,-1.90918 -0.38086,-0.81705 -0.57129,-1.75618 -0.57129,-2.81738 0,-1.03515 0.17253,-1.97428 0.51758,-2.81738 0.34505,-0.84309 0.86263,-1.48925 1.55273,-1.93848 0.6901,-0.44921 1.46159,-0.67382 2.31446,-0.67383 0.62499,10e-6 1.18163,0.13185 1.66992,0.39551 0.48827,0.26368 0.88541,0.60711 1.19141,1.03027 l 0,-5.13672 1.74804,0 0,14.31641 z m -5.55664,-5.17578 c 0,1.32813 0.27995,2.32097 0.83985,2.97851 0.55989,0.65756 1.22069,0.98633 1.98242,0.98633 0.76822,0 1.42089,-0.31412 1.95801,-0.94238 0.5371,-0.62825 0.80565,-1.58691 0.80566,-2.87598 -10e-6,-1.41926 -0.27345,-2.46093 -0.82031,-3.125 -0.54688,-0.66405 -1.22071,-0.99608 -2.02149,-0.99609 -0.78125,10e-6 -1.43392,0.31902 -1.95801,0.95703 -0.52409,0.63803 -0.78613,1.64389 -0.78613,3.01758 z"
         style="font-size:20px;text-align:center;text-anchor:middle"
         id="path3136" />
      <path
         d="m -380.76953,553.47266 1.81641,0.22461 c -0.28647,1.0612 -0.81707,1.88476 -1.5918,2.4707 -0.77475,0.58594 -1.76433,0.8789 -2.96875,0.8789 -1.51693,0 -2.71973,-0.46712 -3.6084,-1.40136 -0.88867,-0.93424 -1.33301,-2.24446 -1.33301,-3.93067 0,-1.74478 0.44922,-3.09895 1.34766,-4.0625 0.89843,-0.96353 2.0638,-1.4453 3.49609,-1.44531 1.38671,10e-6 2.51953,0.47202 3.39844,1.41602 0.8789,0.94402 1.31835,2.27214 1.31836,3.98437 -1e-5,0.10417 -0.003,0.26042 -0.01,0.46875 l -7.73437,0 c 0.0651,1.13933 0.38736,2.01172 0.9668,2.61719 0.57942,0.60547 1.30207,0.9082 2.16796,0.9082 0.64453,0 1.19466,-0.16927 1.65039,-0.50781 0.45573,-0.33854 0.81705,-0.8789 1.08399,-1.62109 z m -5.77149,-2.8418 5.79102,0 c -0.0781,-0.87239 -0.29949,-1.52669 -0.66406,-1.96289 -0.55991,-0.67708 -1.28582,-1.01562 -2.17774,-1.01563 -0.80729,10e-6 -1.486,0.27019 -2.03613,0.81055 -0.55013,0.54037 -0.85449,1.26303 -0.91309,2.16797 z"
         style="font-size:20px;text-align:center;text-anchor:middle"
         id="path3138" />
      <path
         d="m -376.75586,556.8125 0,-10.37109 1.58203,0 0,1.57226 c 0.40364,-0.73567 0.77637,-1.22069 1.11817,-1.45508 0.34179,-0.23436 0.71776,-0.35155 1.12793,-0.35156 0.59244,10e-6 1.19465,0.18881 1.80664,0.56641 l -0.60547,1.63086 c -0.4297,-0.2539 -0.85938,-0.38085 -1.28906,-0.38086 -0.38412,10e-6 -0.72918,0.11557 -1.03516,0.34668 -0.30599,0.23113 -0.52409,0.55176 -0.6543,0.96191 -0.19531,0.62501 -0.29297,1.3086 -0.29297,2.05078 l 0,5.42969 z"
         style="font-size:20px;text-align:center;text-anchor:middle"
         id="path3140" />
      <path
         d="m -452.92773,586.02148 c -0.97006,-1.22396 -1.79037,-2.65625 -2.46094,-4.29687 -0.67058,-1.64062 -1.00586,-3.33984 -1.00586,-5.09766 0,-1.54947 0.25065,-3.03384 0.75195,-4.45312 0.58594,-1.64713 1.49088,-3.28775 2.71485,-4.92188 l 1.25976,0 c -0.78776,1.35418 -1.3086,2.32098 -1.5625,2.90039 -0.39714,0.89845 -0.70964,1.83595 -0.9375,2.8125 -0.27995,1.21746 -0.41992,2.44142 -0.41992,3.67188 0,3.13151 0.9733,6.25976 2.91992,9.38476 z"
         style="font-size:20px;text-align:center;text-anchor:middle"
         id="path3142" />
      <path
         d="m -440.85742,580.12305 0,1.68945 -9.46289,0 c -0.013,-0.42318 0.0553,-0.83008 0.20508,-1.2207 0.24088,-0.64453 0.62662,-1.2793 1.15722,-1.9043 0.5306,-0.625 1.2972,-1.34765 2.29981,-2.16797 1.55598,-1.27603 2.60741,-2.28678 3.15429,-3.03223 0.54687,-0.74543 0.82031,-1.45018 0.82032,-2.11425 -1e-5,-0.69661 -0.24904,-1.28417 -0.74707,-1.7627 -0.49806,-0.4785 -1.14747,-0.71776 -1.94825,-0.71777 -0.84636,1e-5 -1.52344,0.25392 -2.03125,0.76172 -0.50781,0.50782 -0.76497,1.21095 -0.77148,2.10937 l -1.80664,-0.18555 c 0.1237,-1.34764 0.58919,-2.37466 1.39648,-3.08105 0.80729,-0.70637 1.89127,-1.05956 3.25196,-1.05957 1.37369,10e-6 2.46093,0.38087 3.26172,1.14258 0.80077,0.76173 1.20116,1.70574 1.20117,2.83203 -10e-6,0.57293 -0.1172,1.13608 -0.35157,1.68945 -0.23438,0.5534 -0.62338,1.13608 -1.16699,1.74805 -0.54363,0.61198 -1.44694,1.45183 -2.70996,2.51953 -1.05469,0.88542 -1.73177,1.48601 -2.03125,1.80176 -0.29948,0.31576 -0.54688,0.63314 -0.74219,0.95215 z"
         style="font-size:20px;text-align:center;text-anchor:middle"
         id="path3144" />
      <path
         d="m -438.96289,574.75195 c 0,-1.6927 0.17415,-3.055 0.52246,-4.08691 0.34831,-1.03189 0.86588,-1.82779 1.55273,-2.3877 0.68685,-0.55988 1.55111,-0.83983 2.59278,-0.83984 0.76822,10e-6 1.44205,0.15464 2.02148,0.46387 0.57942,0.30926 1.05794,0.75522 1.43555,1.33789 0.37759,0.58269 0.67382,1.29233 0.88867,2.1289 0.21483,0.8366 0.32226,1.96453 0.32227,3.38379 -10e-6,1.6797 -0.17254,3.03549 -0.51758,4.06739 -0.34506,1.0319 -0.86101,1.82942 -1.54785,2.39257 -0.68686,0.56316 -1.55437,0.84473 -2.60254,0.84473 -1.38021,0 -2.4642,-0.49479 -3.25195,-1.48437 -0.94402,-1.19141 -1.41602,-3.13151 -1.41602,-5.82032 z m 1.80664,0 c 0,2.35027 0.27506,3.91439 0.8252,4.69239 0.55012,0.77799 1.22883,1.16699 2.03613,1.16699 0.80728,0 1.48599,-0.39063 2.03613,-1.17188 0.55012,-0.78124 0.82519,-2.34374 0.8252,-4.6875 -1e-5,-2.35676 -0.27508,-3.92251 -0.8252,-4.69726 -0.55014,-0.77473 -1.23536,-1.1621 -2.05566,-1.16211 -0.8073,1e-5 -1.45183,0.34181 -1.9336,1.02539 -0.60547,0.87241 -0.9082,2.48373 -0.9082,4.83398 z"
         style="font-size:20px;text-align:center;text-anchor:middle"
         id="path3146" />
      <path
         d="m -421.64844,581.8125 0,-14.31641 5.3711,0 c 1.09374,2e-5 1.97102,0.14487 2.63183,0.43457 0.6608,0.28973 1.17838,0.73569 1.55274,1.33789 0.37433,0.60223 0.56151,1.23211 0.56152,1.88965 -10e-6,0.61199 -0.16603,1.18816 -0.49805,1.72852 -0.33204,0.54037 -0.83334,0.97657 -1.5039,1.30859 0.86587,0.25392 1.53156,0.68686 1.99707,1.29883 0.46548,0.61199 0.69823,1.33464 0.69824,2.16797 -10e-6,0.67058 -0.14161,1.29395 -0.42481,1.87012 -0.28321,0.57617 -0.63314,1.02051 -1.0498,1.333 -0.41668,0.31251 -0.93914,0.54851 -1.56738,0.70801 -0.62827,0.15951 -1.39812,0.23926 -2.30957,0.23926 z m 1.89453,-8.30078 3.09571,0 c 0.83983,10e-6 1.44205,-0.0553 1.80664,-0.16602 0.48176,-0.14322 0.84471,-0.38085 1.08886,-0.71289 0.24414,-0.33202 0.36621,-0.74869 0.36622,-1.25 -10e-6,-0.47525 -0.11395,-0.89354 -0.3418,-1.25488 -0.22787,-0.36132 -0.5534,-0.60871 -0.97656,-0.74219 -0.42319,-0.13345 -1.1491,-0.20018 -2.17774,-0.20019 l -2.86133,0 z m 0,6.61133 3.56446,0 c 0.61197,0 1.04166,-0.0228 1.28906,-0.0684 0.43619,-0.0781 0.80077,-0.20833 1.09375,-0.39063 0.29296,-0.18229 0.53384,-0.44759 0.72266,-0.7959 0.18879,-0.3483 0.28319,-0.75032 0.2832,-1.20605 -1e-5,-0.53385 -0.13673,-0.99772 -0.41016,-1.3916 -0.27344,-0.39388 -0.65268,-0.67057 -1.13769,-0.83008 -0.48504,-0.1595 -1.18328,-0.23925 -2.09473,-0.23926 l -3.31055,0 z"
         style="font-size:20px;text-align:center;text-anchor:middle"
         id="path3148" />
      <path
         d="m -408.51367,585.80664 -0.19531,-1.65039 c 0.38411,0.10416 0.71939,0.15625 1.00586,0.15625 0.39062,0 0.70312,-0.0651 0.9375,-0.19531 0.23437,-0.13021 0.42642,-0.3125 0.57617,-0.54688 0.11067,-0.17578 0.28971,-0.61198 0.53711,-1.30859 0.0325,-0.0977 0.0846,-0.24089 0.15625,-0.42969 l -3.93555,-10.39062 1.89453,0 2.1582,6.00586 c 0.27995,0.76172 0.5306,1.5625 0.75196,2.40234 0.20181,-0.80729 0.4427,-1.59505 0.72265,-2.36328 l 2.2168,-6.04492 1.75781,0 -3.94531,10.54687 c -0.42318,1.13932 -0.75196,1.92383 -0.98633,2.35352 -0.3125,0.57942 -0.67058,1.00423 -1.07422,1.27441 -0.40365,0.27018 -0.88542,0.40527 -1.44531,0.40527 -0.33854,0 -0.71615,-0.0716 -1.13281,-0.21484 z"
         style="font-size:20px;text-align:center;text-anchor:middle"
         id="path3150" />
      <path
         d="m -394.59766,580.24023 0.25391,1.55274 c -0.4948,0.10417 -0.9375,0.15625 -1.32812,0.15625 -0.63803,0 -1.13282,-0.10091 -1.48438,-0.30274 -0.35156,-0.20182 -0.59896,-0.46712 -0.74219,-0.79589 -0.14323,-0.32878 -0.21484,-1.02051 -0.21484,-2.0752 l 0,-5.9668 -1.28906,0 0,-1.36718 1.28906,0 0,-2.56836 1.74805,-1.05469 0,3.62305 1.76757,0 0,1.36718 -1.76757,0 0,6.06446 c -10e-6,0.5013 0.0309,0.82357 0.0928,0.96679 0.0618,0.14323 0.16276,0.25717 0.30273,0.3418 0.13997,0.0846 0.34017,0.12696 0.60059,0.12695 0.19531,10e-6 0.45247,-0.0228 0.77148,-0.0684 z"
         style="font-size:20px;text-align:center;text-anchor:middle"
         id="path3152" />
      <path
         d="m -385.78906,578.47266 1.8164,0.22461 c -0.28646,1.0612 -0.81706,1.88476 -1.59179,2.4707 -0.77475,0.58594 -1.76433,0.8789 -2.96875,0.8789 -1.51693,0 -2.71973,-0.46712 -3.6084,-1.40136 -0.88867,-0.93424 -1.33301,-2.24446 -1.33301,-3.93067 0,-1.74478 0.44922,-3.09895 1.34766,-4.0625 0.89843,-0.96353 2.06379,-1.4453 3.49609,-1.44531 1.38671,10e-6 2.51952,0.47202 3.39844,1.41602 0.87889,0.94402 1.31835,2.27214 1.31836,3.98437 -10e-6,0.10417 -0.003,0.26042 -0.01,0.46875 l -7.73437,0 c 0.0651,1.13933 0.38736,2.01172 0.96679,2.61719 0.57943,0.60547 1.30208,0.9082 2.16797,0.9082 0.64453,0 1.19466,-0.16927 1.65039,-0.50781 0.45572,-0.33854 0.81705,-0.8789 1.08399,-1.62109 z m -5.77149,-2.8418 5.79102,0 c -0.0781,-0.87239 -0.29949,-1.52669 -0.66406,-1.96289 -0.55991,-0.67708 -1.28582,-1.01562 -2.17774,-1.01563 -0.80729,10e-6 -1.486,0.27019 -2.03613,0.81055 -0.55013,0.54037 -0.8545,1.26303 -0.91309,2.16797 z"
         style="font-size:20px;text-align:center;text-anchor:middle"
         id="path3154" />
      <path
         d="m -380.60352,586.02148 -1.25976,0 c 1.94661,-3.125 2.91992,-6.25325 2.91992,-9.38476 0,-1.22395 -0.13998,-2.43814 -0.41992,-3.64258 -0.22136,-0.97655 -0.5306,-1.91405 -0.92774,-2.8125 -0.2539,-0.58592 -0.77799,-1.56249 -1.57226,-2.92969 l 1.25976,0 c 1.22396,1.63413 2.12891,3.27475 2.71485,4.92188 0.50129,1.41928 0.75195,2.90365 0.75195,4.45312 0,1.75782 -0.33692,3.45704 -1.01074,5.09766 -0.67383,1.64062 -1.49252,3.07291 -2.45606,4.29687 z"
         style="font-size:20px;text-align:center;text-anchor:middle"
         id="path3156" />
    </g>
    <g
       style="font-size:40px;font-style:normal;font-weight:normal;line-height:125%;letter-spacing:0px;word-spacing:0px;fill:#000000;fill-opacity:1;stroke:none;font-family:Sans"
       id="text3094-4-4">
      <path
         d="m -338.00586,556.8125 0,-12.62695 -4.7168,0 0,-1.68946 11.34766,0 0,1.68946 -4.73633,0 0,12.62695 z"
         style="font-size:20px;text-align:center;text-anchor:middle"
         id="path3087" />
      <path
         d="m -319.20703,551.79297 1.89453,0.47851 c -0.39715,1.556 -1.11167,2.74252 -2.14355,3.55957 -1.03192,0.81706 -2.29331,1.22559 -3.78418,1.22559 -1.54298,0 -2.79786,-0.31413 -3.76465,-0.94238 -0.9668,-0.62826 -1.70248,-1.53809 -2.20703,-2.72949 -0.50456,-1.19141 -0.75684,-2.4707 -0.75684,-3.8379 0,-1.49087 0.28483,-2.79133 0.85449,-3.90136 0.56966,-1.11002 1.38021,-1.95311 2.43164,-2.5293 1.05143,-0.57616 2.20866,-0.86424 3.47168,-0.86426 1.43228,2e-5 2.63671,0.3646 3.61328,1.09375 0.97655,0.72918 1.65689,1.75457 2.04102,3.07617 l -1.86523,0.43946 c -0.33205,-1.04166 -0.81382,-1.80012 -1.44532,-2.27539 -0.63152,-0.47525 -1.42579,-0.71288 -2.38281,-0.71289 -1.10027,10e-6 -2.01986,0.26368 -2.75879,0.79101 -0.73894,0.52736 -1.25814,1.23536 -1.55762,2.12403 -0.29948,0.88868 -0.44922,1.80502 -0.44921,2.74902 -10e-6,1.21745 0.1774,2.28028 0.53222,3.18848 0.35482,0.9082 0.90657,1.58691 1.65528,2.03613 0.74869,0.44922 1.55923,0.67383 2.43164,0.67383 1.06118,0 1.95962,-0.30599 2.69531,-0.91797 0.73566,-0.61198 1.23371,-1.52018 1.49414,-2.72461 z"
         style="font-size:20px;text-align:center;text-anchor:middle"
         id="path3089" />
      <path
         d="m -314.96875,556.8125 0,-14.31641 5.40039,0 c 0.95051,2e-5 1.67642,0.0456 2.17774,0.13672 0.70311,0.1172 1.2923,0.34019 1.76757,0.66895 0.47525,0.32879 0.85774,0.7894 1.14746,1.38183 0.28971,0.59246 0.43456,1.2435 0.43457,1.95313 -10e-6,1.21746 -0.38738,2.24773 -1.1621,3.09082 -0.77476,0.8431 -2.17449,1.26465 -4.19922,1.26465 l -3.67188,0 0,5.82031 z m 1.89453,-7.50977 3.70117,0 c 1.22395,10e-6 2.09309,-0.22785 2.60743,-0.68359 0.51431,-0.45572 0.77147,-1.097 0.77148,-1.92383 -10e-6,-0.59895 -0.15138,-1.11164 -0.4541,-1.53808 -0.30275,-0.42642 -0.70151,-0.708 -1.19629,-0.84473 -0.31902,-0.0846 -0.90821,-0.12694 -1.76758,-0.12695 l -3.66211,0 z"
         style="font-size:20px;text-align:center;text-anchor:middle"
         id="path3091" />
      <path
         d="m -302.51758,552.51562 0,-1.76757 5.40039,0 0,1.76757 z"
         style="font-size:20px;text-align:center;text-anchor:middle"
         id="path3093" />
      <path
         d="m -294.87109,556.8125 0,-14.31641 1.89453,0 0,5.87891 7.4414,0 0,-5.87891 1.89454,0 0,14.31641 -1.89454,0 0,-6.74805 -7.4414,0 0,6.74805 z"
         style="font-size:20px;text-align:center;text-anchor:middle"
         id="path3095" />
      <path
         d="m -273.60156,553.47266 1.8164,0.22461 c -0.28646,1.0612 -0.81706,1.88476 -1.59179,2.4707 -0.77475,0.58594 -1.76433,0.8789 -2.96875,0.8789 -1.51693,0 -2.71973,-0.46712 -3.6084,-1.40136 -0.88867,-0.93424 -1.33301,-2.24446 -1.33301,-3.93067 0,-1.74478 0.44922,-3.09895 1.34766,-4.0625 0.89843,-0.96353 2.06379,-1.4453 3.49609,-1.44531 1.38671,10e-6 2.51952,0.47202 3.39844,1.41602 0.87889,0.94402 1.31835,2.27214 1.31836,3.98437 -10e-6,0.10417 -0.003,0.26042 -0.01,0.46875 l -7.73437,0 c 0.0651,1.13933 0.38736,2.01172 0.96679,2.61719 0.57943,0.60547 1.30208,0.9082 2.16797,0.9082 0.64453,0 1.19466,-0.16927 1.65039,-0.50781 0.45572,-0.33854 0.81705,-0.8789 1.08399,-1.62109 z m -5.77149,-2.8418 5.79102,0 c -0.0781,-0.87239 -0.29949,-1.52669 -0.66406,-1.96289 -0.55991,-0.67708 -1.28582,-1.01562 -2.17774,-1.01563 -0.80729,10e-6 -1.486,0.27019 -2.03613,0.81055 -0.55013,0.54037 -0.8545,1.26303 -0.91309,2.16797 z"
         style="font-size:20px;text-align:center;text-anchor:middle"
         id="path3097" />
      <path
         d="m -262.80078,555.5332 c -0.65105,0.55339 -1.27768,0.94401 -1.87988,1.17188 -0.60222,0.22786 -1.24838,0.34179 -1.93848,0.34179 -1.13933,0 -2.01498,-0.27832 -2.62695,-0.83496 -0.61198,-0.55664 -0.91797,-1.2679 -0.91797,-2.13379 0,-0.5078 0.11556,-0.97167 0.34668,-1.3916 0.23112,-0.41991 0.53385,-0.75683 0.9082,-1.01074 0.37435,-0.2539 0.7959,-0.44596 1.26465,-0.57617 0.34505,-0.0911 0.86588,-0.17903 1.5625,-0.26367 1.41926,-0.16927 2.46418,-0.37109 3.13476,-0.60547 0.007,-0.24088 0.01,-0.39387 0.01,-0.45899 -10e-6,-0.71613 -0.16602,-1.22069 -0.49805,-1.51367 -0.44922,-0.39712 -1.11654,-0.59569 -2.00195,-0.5957 -0.82683,10e-6 -1.43718,0.14487 -1.83105,0.43457 -0.39389,0.28972 -0.68523,0.80242 -0.87403,1.53809 l -1.71875,-0.23438 c 0.15625,-0.73567 0.41341,-1.32974 0.77149,-1.78223 0.35807,-0.45246 0.87564,-0.80077 1.55273,-1.04492 0.67708,-0.24413 1.46158,-0.3662 2.35352,-0.36621 0.88541,10e-6 1.60481,0.10418 2.1582,0.3125 0.55338,0.20834 0.96028,0.47039 1.2207,0.78613 0.26041,0.31577 0.4427,0.71453 0.54688,1.19629 0.0586,0.29949 0.0879,0.83985 0.0879,1.6211 l 0,2.34375 c -1e-5,1.63411 0.0374,2.66764 0.1123,3.10058 0.0749,0.43295 0.22297,0.84798 0.44434,1.24512 l -1.83594,0 c -0.1823,-0.36458 -0.29949,-0.79101 -0.35156,-1.2793 z m -0.14649,-3.92578 c -0.63802,0.26042 -1.59505,0.48178 -2.87109,0.66406 -0.72266,0.10418 -1.23373,0.22136 -1.5332,0.35157 -0.29948,0.13021 -0.5306,0.32064 -0.69336,0.57129 -0.16276,0.25065 -0.24415,0.52897 -0.24414,0.83496 -10e-6,0.46875 0.1774,0.85937 0.53222,1.17187 0.35482,0.3125 0.87402,0.46875 1.55762,0.46875 0.67708,0 1.27929,-0.14811 1.80664,-0.44433 0.52734,-0.29623 0.91471,-0.7015 1.16211,-1.21582 0.1888,-0.39714 0.2832,-0.98307 0.2832,-1.75782 z"
         style="font-size:20px;text-align:center;text-anchor:middle"
         id="path3099" />
      <path
         d="m -251.70703,556.8125 0,-1.30859 c -0.65756,1.02864 -1.62436,1.54296 -2.90039,1.54296 -0.82683,0 -1.58692,-0.22786 -2.28028,-0.68359 -0.69336,-0.45573 -1.23047,-1.09212 -1.61132,-1.90918 -0.38086,-0.81705 -0.57129,-1.75618 -0.57129,-2.81738 0,-1.03515 0.17252,-1.97428 0.51758,-2.81738 0.34505,-0.84309 0.86262,-1.48925 1.55273,-1.93848 0.6901,-0.44921 1.46158,-0.67382 2.31445,-0.67383 0.625,10e-6 1.18164,0.13185 1.66993,0.39551 0.48827,0.26368 0.8854,0.60711 1.1914,1.03027 l 0,-5.13672 1.74805,0 0,14.31641 z m -5.55664,-5.17578 c 0,1.32813 0.27994,2.32097 0.83984,2.97851 0.55989,0.65756 1.2207,0.98633 1.98242,0.98633 0.76823,0 1.4209,-0.31412 1.95801,-0.94238 0.5371,-0.62825 0.80566,-1.58691 0.80567,-2.87598 -1e-5,-1.41926 -0.27345,-2.46093 -0.82032,-3.125 -0.54688,-0.66405 -1.22071,-0.99608 -2.02148,-0.99609 -0.78126,10e-6 -1.43392,0.31902 -1.95801,0.95703 -0.52409,0.63803 -0.78613,1.64389 -0.78613,3.01758 z"
         style="font-size:20px;text-align:center;text-anchor:middle"
         id="path3101" />
      <path
         d="m -240.20312,553.47266 1.8164,0.22461 c -0.28647,1.0612 -0.81707,1.88476 -1.5918,2.4707 -0.77474,0.58594 -1.76433,0.8789 -2.96875,0.8789 -1.51693,0 -2.71973,-0.46712 -3.60839,-1.40136 -0.88868,-0.93424 -1.33301,-2.24446 -1.33301,-3.93067 0,-1.74478 0.44922,-3.09895 1.34765,-4.0625 0.89844,-0.96353 2.0638,-1.4453 3.4961,-1.44531 1.38671,10e-6 2.51952,0.47202 3.39844,1.41602 0.87889,0.94402 1.31834,2.27214 1.31836,3.98437 -2e-5,0.10417 -0.003,0.26042 -0.01,0.46875 l -7.73438,0 c 0.0651,1.13933 0.38737,2.01172 0.9668,2.61719 0.57942,0.60547 1.30208,0.9082 2.16797,0.9082 0.64452,0 1.19465,-0.16927 1.65039,-0.50781 0.45572,-0.33854 0.81705,-0.8789 1.08399,-1.62109 z m -5.77149,-2.8418 5.79102,0 c -0.0781,-0.87239 -0.29949,-1.52669 -0.66407,-1.96289 -0.5599,-0.67708 -1.28581,-1.01562 -2.17773,-1.01563 -0.8073,10e-6 -1.48601,0.27019 -2.03613,0.81055 -0.55014,0.54037 -0.8545,1.26303 -0.91309,2.16797 z"
         style="font-size:20px;text-align:center;text-anchor:middle"
         id="path3103" />
      <path
         d="m -236.18945,556.8125 0,-10.37109 1.58203,0 0,1.57226 c 0.40364,-0.73567 0.77636,-1.22069 1.11816,-1.45508 0.34179,-0.23436 0.71777,-0.35155 1.12793,-0.35156 0.59244,10e-6 1.19466,0.18881 1.80664,0.56641 l -0.60547,1.63086 c -0.42969,-0.2539 -0.85938,-0.38085 -1.28906,-0.38086 -0.38412,10e-6 -0.72917,0.11557 -1.03515,0.34668 -0.306,0.23113 -0.5241,0.55176 -0.6543,0.96191 -0.19532,0.62501 -0.29297,1.3086 -0.29297,2.05078 l 0,5.42969 z"
         style="font-size:20px;text-align:center;text-anchor:middle"
         id="path3105" />
      <path
         d="m -322.92773,586.02148 c -0.97006,-1.22396 -1.79037,-2.65625 -2.46094,-4.29687 -0.67058,-1.64062 -1.00586,-3.33984 -1.00586,-5.09766 0,-1.54947 0.25065,-3.03384 0.75195,-4.45312 0.58594,-1.64713 1.49088,-3.28775 2.71485,-4.92188 l 1.25976,0 c -0.78776,1.35418 -1.3086,2.32098 -1.5625,2.90039 -0.39714,0.89845 -0.70964,1.83595 -0.9375,2.8125 -0.27995,1.21746 -0.41992,2.44142 -0.41992,3.67188 0,3.13151 0.9733,6.25976 2.91992,9.38476 z"
         style="font-size:20px;text-align:center;text-anchor:middle"
         id="path3107" />
      <path
         d="m -310.85742,580.12305 0,1.68945 -9.46289,0 c -0.013,-0.42318 0.0553,-0.83008 0.20508,-1.2207 0.24088,-0.64453 0.62662,-1.2793 1.15722,-1.9043 0.5306,-0.625 1.2972,-1.34765 2.29981,-2.16797 1.55598,-1.27603 2.60741,-2.28678 3.15429,-3.03223 0.54687,-0.74543 0.82031,-1.45018 0.82032,-2.11425 -1e-5,-0.69661 -0.24904,-1.28417 -0.74707,-1.7627 -0.49806,-0.4785 -1.14747,-0.71776 -1.94825,-0.71777 -0.84636,1e-5 -1.52344,0.25392 -2.03125,0.76172 -0.50781,0.50782 -0.76497,1.21095 -0.77148,2.10937 l -1.80664,-0.18555 c 0.1237,-1.34764 0.58919,-2.37466 1.39648,-3.08105 0.80729,-0.70637 1.89127,-1.05956 3.25196,-1.05957 1.37369,10e-6 2.46093,0.38087 3.26172,1.14258 0.80077,0.76173 1.20116,1.70574 1.20117,2.83203 -10e-6,0.57293 -0.1172,1.13608 -0.35157,1.68945 -0.23438,0.5534 -0.62338,1.13608 -1.16699,1.74805 -0.54363,0.61198 -1.44694,1.45183 -2.70996,2.51953 -1.05469,0.88542 -1.73177,1.48601 -2.03125,1.80176 -0.29948,0.31576 -0.54688,0.63314 -0.74219,0.95215 z"
         style="font-size:20px;text-align:center;text-anchor:middle"
         id="path3109" />
      <path
         d="m -308.96289,574.75195 c 0,-1.6927 0.17415,-3.055 0.52246,-4.08691 0.34831,-1.03189 0.86588,-1.82779 1.55273,-2.3877 0.68685,-0.55988 1.55111,-0.83983 2.59278,-0.83984 0.76822,10e-6 1.44205,0.15464 2.02148,0.46387 0.57942,0.30926 1.05794,0.75522 1.43555,1.33789 0.37759,0.58269 0.67382,1.29233 0.88867,2.1289 0.21483,0.8366 0.32226,1.96453 0.32227,3.38379 -10e-6,1.6797 -0.17254,3.03549 -0.51758,4.06739 -0.34506,1.0319 -0.86101,1.82942 -1.54785,2.39257 -0.68686,0.56316 -1.55437,0.84473 -2.60254,0.84473 -1.38021,0 -2.4642,-0.49479 -3.25195,-1.48437 -0.94402,-1.19141 -1.41602,-3.13151 -1.41602,-5.82032 z m 1.80664,0 c 0,2.35027 0.27506,3.91439 0.8252,4.69239 0.55012,0.77799 1.22883,1.16699 2.03613,1.16699 0.80728,0 1.48599,-0.39063 2.03613,-1.17188 0.55012,-0.78124 0.82519,-2.34374 0.8252,-4.6875 -1e-5,-2.35676 -0.27508,-3.92251 -0.8252,-4.69726 -0.55014,-0.77473 -1.23536,-1.1621 -2.05566,-1.16211 -0.8073,1e-5 -1.45183,0.34181 -1.9336,1.02539 -0.60547,0.87241 -0.9082,2.48373 -0.9082,4.83398 z"
         style="font-size:20px;text-align:center;text-anchor:middle"
         id="path3111" />
      <path
         d="m -291.64844,581.8125 0,-14.31641 5.3711,0 c 1.09374,2e-5 1.97102,0.14487 2.63183,0.43457 0.6608,0.28973 1.17838,0.73569 1.55274,1.33789 0.37433,0.60223 0.56151,1.23211 0.56152,1.88965 -10e-6,0.61199 -0.16603,1.18816 -0.49805,1.72852 -0.33204,0.54037 -0.83334,0.97657 -1.5039,1.30859 0.86587,0.25392 1.53156,0.68686 1.99707,1.29883 0.46548,0.61199 0.69823,1.33464 0.69824,2.16797 -10e-6,0.67058 -0.14161,1.29395 -0.42481,1.87012 -0.28321,0.57617 -0.63314,1.02051 -1.0498,1.333 -0.41668,0.31251 -0.93914,0.54851 -1.56738,0.70801 -0.62827,0.15951 -1.39812,0.23926 -2.30957,0.23926 z m 1.89453,-8.30078 3.09571,0 c 0.83983,10e-6 1.44205,-0.0553 1.80664,-0.16602 0.48176,-0.14322 0.84471,-0.38085 1.08886,-0.71289 0.24414,-0.33202 0.36621,-0.74869 0.36622,-1.25 -10e-6,-0.47525 -0.11395,-0.89354 -0.3418,-1.25488 -0.22787,-0.36132 -0.5534,-0.60871 -0.97656,-0.74219 -0.42319,-0.13345 -1.1491,-0.20018 -2.17774,-0.20019 l -2.86133,0 z m 0,6.61133 3.56446,0 c 0.61197,0 1.04166,-0.0228 1.28906,-0.0684 0.43619,-0.0781 0.80077,-0.20833 1.09375,-0.39063 0.29296,-0.18229 0.53384,-0.44759 0.72266,-0.7959 0.18879,-0.3483 0.28319,-0.75032 0.2832,-1.20605 -1e-5,-0.53385 -0.13673,-0.99772 -0.41016,-1.3916 -0.27344,-0.39388 -0.65268,-0.67057 -1.13769,-0.83008 -0.48504,-0.1595 -1.18328,-0.23925 -2.09473,-0.23926 l -3.31055,0 z"
         style="font-size:20px;text-align:center;text-anchor:middle"
         id="path3113" />
      <path
         d="m -278.51367,585.80664 -0.19531,-1.65039 c 0.38411,0.10416 0.71939,0.15625 1.00586,0.15625 0.39062,0 0.70312,-0.0651 0.9375,-0.19531 0.23437,-0.13021 0.42642,-0.3125 0.57617,-0.54688 0.11067,-0.17578 0.28971,-0.61198 0.53711,-1.30859 0.0325,-0.0977 0.0846,-0.24089 0.15625,-0.42969 l -3.93555,-10.39062 1.89453,0 2.1582,6.00586 c 0.27995,0.76172 0.5306,1.5625 0.75196,2.40234 0.20181,-0.80729 0.4427,-1.59505 0.72265,-2.36328 l 2.2168,-6.04492 1.75781,0 -3.94531,10.54687 c -0.42318,1.13932 -0.75196,1.92383 -0.98633,2.35352 -0.3125,0.57942 -0.67058,1.00423 -1.07422,1.27441 -0.40365,0.27018 -0.88542,0.40527 -1.44531,0.40527 -0.33854,0 -0.71615,-0.0716 -1.13281,-0.21484 z"
         style="font-size:20px;text-align:center;text-anchor:middle"
         id="path3115" />
      <path
         d="m -264.59766,580.24023 0.25391,1.55274 c -0.4948,0.10417 -0.9375,0.15625 -1.32812,0.15625 -0.63803,0 -1.13282,-0.10091 -1.48438,-0.30274 -0.35156,-0.20182 -0.59896,-0.46712 -0.74219,-0.79589 -0.14323,-0.32878 -0.21484,-1.02051 -0.21484,-2.0752 l 0,-5.9668 -1.28906,0 0,-1.36718 1.28906,0 0,-2.56836 1.74805,-1.05469 0,3.62305 1.76757,0 0,1.36718 -1.76757,0 0,6.06446 c -10e-6,0.5013 0.0309,0.82357 0.0928,0.96679 0.0618,0.14323 0.16276,0.25717 0.30273,0.3418 0.13997,0.0846 0.34017,0.12696 0.60059,0.12695 0.19531,10e-6 0.45247,-0.0228 0.77148,-0.0684 z"
         style="font-size:20px;text-align:center;text-anchor:middle"
         id="path3117" />
      <path
         d="m -255.78906,578.47266 1.8164,0.22461 c -0.28646,1.0612 -0.81706,1.88476 -1.59179,2.4707 -0.77475,0.58594 -1.76433,0.8789 -2.96875,0.8789 -1.51693,0 -2.71973,-0.46712 -3.6084,-1.40136 -0.88867,-0.93424 -1.33301,-2.24446 -1.33301,-3.93067 0,-1.74478 0.44922,-3.09895 1.34766,-4.0625 0.89843,-0.96353 2.06379,-1.4453 3.49609,-1.44531 1.38671,10e-6 2.51952,0.47202 3.39844,1.41602 0.87889,0.94402 1.31835,2.27214 1.31836,3.98437 -1e-5,0.10417 -0.003,0.26042 -0.01,0.46875 l -7.73437,0 c 0.0651,1.13933 0.38736,2.01172 0.96679,2.61719 0.57943,0.60547 1.30208,0.9082 2.16797,0.9082 0.64453,0 1.19466,-0.16927 1.65039,-0.50781 0.45572,-0.33854 0.81705,-0.8789 1.08399,-1.62109 z m -5.77149,-2.8418 5.79102,0 c -0.0781,-0.87239 -0.29949,-1.52669 -0.66406,-1.96289 -0.55991,-0.67708 -1.28582,-1.01562 -2.17774,-1.01563 -0.80729,10e-6 -1.486,0.27019 -2.03613,0.81055 -0.55013,0.54037 -0.8545,1.26303 -0.91309,2.16797 z"
         style="font-size:20px;text-align:center;text-anchor:middle"
         id="path3119" />
      <path
         d="m -250.60352,586.02148 -1.25976,0 c 1.94661,-3.125 2.91992,-6.25325 2.91992,-9.38476 0,-1.22395 -0.13998,-2.43814 -0.41992,-3.64258 -0.22136,-0.97655 -0.5306,-1.91405 -0.92774,-2.8125 -0.2539,-0.58592 -0.77799,-1.56249 -1.57226,-2.92969 l 1.25976,0 c 1.22396,1.63413 2.12891,3.27475 2.71485,4.92188 0.50129,1.41928 0.75195,2.90365 0.75195,4.45312 0,1.75782 -0.33692,3.45704 -1.01074,5.09766 -0.67383,1.64062 -1.49252,3.07291 -2.45606,4.29687 z"
         style="font-size:20px;text-align:center;text-anchor:middle"
         id="path3121" />
    </g>
    <g
       style="font-size:40px;font-style:normal;font-weight:normal;line-height:125%;letter-spacing:0px;word-spacing:0px;fill:#000000;fill-opacity:1;stroke:none;font-family:Sans"
       id="text3094-4-4-5">
      <path
         d="m -65.082031,556.8125 0,-14.31641 1.943359,0 7.519531,11.24024 0,-11.24024 1.816407,0 0,14.31641 -1.94336,0 -7.519531,-11.25 0,11.25 z"
         style="font-size:20px;text-align:center;text-anchor:middle"
         id="path3040" />
      <path
         d="m -44.037109,556.8125 0,-1.52344 c -0.807299,1.17188 -1.904303,1.75781 -3.291016,1.75781 -0.611983,0 -1.183272,-0.11718 -1.713867,-0.35156 -0.530602,-0.23437 -0.924482,-0.52897 -1.181641,-0.88379 -0.257163,-0.35481 -0.437827,-0.78938 -0.541992,-1.30371 -0.07162,-0.34505 -0.107423,-0.89192 -0.107422,-1.64062 l 0,-6.42578 1.757813,0 0,5.75195 c -3e-6,0.91797 0.0358,1.53646 0.107422,1.85547 0.110673,0.46224 0.345048,0.8252 0.703125,1.08887 0.358068,0.26367 0.800776,0.3955 1.328125,0.3955 0.527338,0 1.022129,-0.13509 1.484375,-0.40527 0.462232,-0.27018 0.78938,-0.63802 0.981445,-1.10352 0.192049,-0.46549 0.288078,-1.14094 0.288086,-2.02636 l 0,-5.55664 1.757812,0 0,10.37109 z"
         style="font-size:20px;text-align:center;text-anchor:middle"
         id="path3042" />
      <path
         d="m -35.863281,555.24023 0.253906,1.55274 c -0.494797,0.10417 -0.937504,0.15625 -1.328125,0.15625 -0.638024,0 -1.132815,-0.10091 -1.484375,-0.30274 -0.351565,-0.20182 -0.59896,-0.46712 -0.742187,-0.79589 -0.143231,-0.32878 -0.214846,-1.02051 -0.214844,-2.0752 l 0,-5.9668 -1.289063,0 0,-1.36718 1.289063,0 0,-2.56836 1.748047,-1.05469 0,3.62305 1.767578,0 0,1.36718 -1.767578,0 0,6.06446 c -4e-6,0.5013 0.03092,0.82357 0.09277,0.96679 0.06184,0.14323 0.162757,0.25717 0.302734,0.3418 0.13997,0.0846 0.340166,0.12696 0.600586,0.12695 0.195308,10e-6 0.452469,-0.0228 0.771485,-0.0684 z"
         style="font-size:20px;text-align:center;text-anchor:middle"
         id="path3044" />
      <path
         d="m -35.082031,556.8125 0,-1.42578 6.601562,-7.57813 c -0.748704,0.0391 -1.409511,0.0586 -1.982422,0.0586 l -4.228515,0 0,-1.42578 8.476562,0 0,1.16211 -5.615234,6.58203 -1.083984,1.20117 c 0.787757,-0.0586 1.526688,-0.0879 2.216796,-0.0879 l 4.794922,0 0,1.51367 z"
         style="font-size:20px;text-align:center;text-anchor:middle"
         id="path3046" />
      <path
         d="m -17.425781,556.8125 0,-1.30859 c -0.65756,1.02864 -1.624356,1.54296 -2.900391,1.54296 -0.826827,0 -1.586917,-0.22786 -2.280273,-0.68359 -0.693362,-0.45573 -1.230471,-1.09212 -1.611328,-1.90918 -0.380861,-0.81705 -0.57129,-1.75618 -0.571289,-2.81738 -10e-7,-1.03515 0.172525,-1.97428 0.517578,-2.81738 0.34505,-0.84309 0.862628,-1.48925 1.552734,-1.93848 0.690101,-0.44921 1.461584,-0.67382 2.314453,-0.67383 0.624994,10e-6 1.181635,0.13185 1.669922,0.39551 0.488274,0.26368 0.885409,0.60711 1.191406,1.03027 l 0,-5.13672 1.748047,0 0,14.31641 z m -5.556641,-5.17578 c -2e-6,1.32813 0.279945,2.32097 0.839844,2.97851 0.559892,0.65756 1.220698,0.98633 1.982422,0.98633 0.768223,0 1.420891,-0.31412 1.958008,-0.94238 0.537101,-0.62825 0.805656,-1.58691 0.805664,-2.87598 -8e-6,-1.41926 -0.273446,-2.46093 -0.820313,-3.125 -0.546882,-0.66405 -1.220709,-0.99608 -2.021484,-0.99609 -0.781255,10e-6 -1.433923,0.31902 -1.958008,0.95703 -0.524091,0.63803 -0.786135,1.64389 -0.786133,3.01758 z"
         style="font-size:20px;text-align:center;text-anchor:middle"
         id="path3048" />
      <path
         d="m -6.2539062,555.5332 c -0.6510492,0.55339 -1.2776761,0.94401 -1.8798829,1.17188 -0.6022191,0.22786 -1.2483773,0.34179 -1.9384769,0.34179 -1.139326,0 -2.014976,-0.27832 -2.626953,-0.83496 -0.61198,-0.55664 -0.917969,-1.2679 -0.917969,-2.13379 0,-0.5078 0.11556,-0.97167 0.34668,-1.3916 0.231119,-0.41991 0.533853,-0.75683 0.908203,-1.01074 0.374347,-0.2539 0.795896,-0.44596 1.264649,-0.57617 0.345048,-0.0911 0.865881,-0.17903 1.5624997,-0.26367 1.4192647,-0.16927 2.4641855,-0.37109 3.1347657,-0.60547 0.0065,-0.24088 0.00976,-0.39387 0.00977,-0.45899 -7.9e-6,-0.71613 -0.1660234,-1.22069 -0.4980469,-1.51367 -0.4492257,-0.39712 -1.1165428,-0.59569 -2.0019531,-0.5957 -0.8268275,10e-6 -1.437178,0.14487 -1.831055,0.43457 -0.393883,0.28972 -0.685224,0.80242 -0.874023,1.53809 l -1.71875,-0.23438 c 0.156249,-0.73567 0.41341,-1.32974 0.771484,-1.78223 0.358071,-0.45246 0.875649,-0.80077 1.552735,-1.04492 0.677079,-0.24413 1.4615834,-0.3662 2.3535152,-0.36621 0.8854101,10e-6 1.6048105,0.10418 2.1582032,0.3125 0.553377,0.20834 0.9602776,0.47039 1.2207031,0.78613 0.2604073,0.31577 0.4426988,0.71453 0.546875,1.19629 0.058584,0.29949 0.087881,0.83985 0.087891,1.6211 l 0,2.34375 c -9.7e-6,1.63411 0.037425,2.66764 0.1123047,3.10058 0.07486,0.43295 0.2229717,0.84798 0.444336,1.24512 l -1.8359375,0 c -0.1823,-0.36458 -0.2994874,-0.79101 -0.3515625,-1.2793 z m -0.1464844,-3.92578 c -0.6380282,0.26042 -1.5950585,0.48178 -2.8710938,0.66406 -0.7226606,0.10418 -1.2337276,0.22136 -1.5332036,0.35157 -0.299482,0.13021 -0.530601,0.32064 -0.693359,0.57129 -0.162763,0.25065 -0.244143,0.52897 -0.244141,0.83496 -2e-6,0.46875 0.177407,0.85937 0.532227,1.17187 0.354814,0.3125 0.874019,0.46875 1.5576172,0.46875 0.677078,0 1.279291,-0.14811 1.8066407,-0.44433 0.5273367,-0.29623 0.9147061,-0.7015 1.1621094,-1.21582 0.1887942,-0.39714 0.2831951,-0.98307 0.2832031,-1.75782 z"
         style="font-size:20px;text-align:center;text-anchor:middle"
         id="path3050" />
      <path
         d="m 1.9492187,555.24023 0.2539063,1.55274 c -0.4947966,0.10417 -0.9375045,0.15625 -1.328125,0.15625 -0.63802428,0 -1.13281545,-0.10091 -1.484375,-0.30274 -0.35156475,-0.20182 -0.5989603,-0.46712 -0.7421875,-0.79589 -0.1432309,-0.32878 -0.2148454,-1.02051 -0.2148437,-2.0752 l 0,-5.9668 -1.2890626,0 0,-1.36718 1.2890626,0 0,-2.56836 1.74804682,-1.05469 0,3.62305 1.76757808,0 0,1.36718 -1.76757808,0 0,6.06446 c -3.38e-6,0.5013 0.0309211,0.82357 0.0927734,0.96679 0.0618454,0.14323 0.16275677,0.25717 0.30273438,0.3418 0.13997003,0.0846 0.34016514,0.12696 0.60058596,0.12695 0.1953079,10e-6 0.4524691,-0.0228 0.7714843,-0.0684 z"
         style="font-size:20px;text-align:center;text-anchor:middle"
         id="path3052" />
      <path
         d="m 10.757813,553.47266 1.816406,0.22461 c -0.286469,1.0612 -0.817067,1.88476 -1.591797,2.4707 -0.774748,0.58594 -1.7643299,0.8789 -2.9687501,0.8789 -1.5169313,0 -2.7197295,-0.46712 -3.6083985,-1.40136 -0.888673,-0.93424 -1.3330085,-2.24446 -1.3330078,-3.93067 -7e-7,-1.74478 0.4492176,-3.09895 1.3476563,-4.0625 0.8984345,-0.96353 2.0637979,-1.4453 3.4960937,-1.44531 1.3867118,10e-6 2.5195234,0.47202 3.3984374,1.41602 0.878897,0.94402 1.318349,2.27214 1.31836,3.98437 -1.1e-5,0.10417 -0.0033,0.26042 -0.0098,0.46875 l -7.7343751,0 c 0.065101,1.13933 0.3873668,2.01172 0.9667968,2.61719 0.579423,0.60547 1.3020786,0.9082 2.1679688,0.9082 0.6445249,0 1.1946546,-0.16927 1.6503906,-0.50781 0.4557219,-0.33854 0.8170489,-0.8789 1.0839849,-1.62109 z m -5.7714849,-2.8418 5.7910159,0 c -0.07813,-0.87239 -0.299488,-1.52669 -0.664063,-1.96289 -0.5599028,-0.67708 -1.2858135,-1.01562 -2.1777341,-1.01563 -0.8072965,10e-6 -1.4860067,0.27019 -2.0361328,0.81055 -0.5501333,0.54037 -0.8544949,1.26303 -0.913086,2.16797 z"
         style="font-size:20px;text-align:center;text-anchor:middle"
         id="path3054" />
      <path
         d="m 14.791016,556.8125 0,-10.37109 1.582031,0 0,1.47461 c 0.761715,-1.13932 1.861974,-1.70898 3.300781,-1.70899 0.624993,10e-6 1.199537,0.11232 1.723633,0.33692 0.52408,0.22461 0.916332,0.51921 1.176758,0.88378 0.260407,0.3646 0.442699,0.79754 0.546875,1.29883 0.06509,0.32553 0.09765,0.89519 0.09766,1.70899 l 0,6.37695 -1.757813,0 0,-6.30859 c -7e-6,-0.71614 -0.06837,-1.25162 -0.205078,-1.60645 -0.136726,-0.35481 -0.379239,-0.63801 -0.727539,-0.84961 -0.348314,-0.21158 -0.756842,-0.31737 -1.225586,-0.31738 -0.748703,10e-6 -1.394861,0.23764 -1.938476,0.71289 -0.543623,0.47527 -0.815433,1.37696 -0.81543,2.70508 l 0,5.66406 z"
         style="font-size:20px;text-align:center;text-anchor:middle"
         id="path3056" />
      <path
         d="m -92.513672,586.02148 c -0.970056,-1.22396 -1.790367,-2.65625 -2.460937,-4.29687 -0.670575,-1.64062 -1.005861,-3.33984 -1.00586,-5.09766 -10e-7,-1.54947 0.25065,-3.03384 0.751953,-4.45312 0.585935,-1.64713 1.490882,-3.28775 2.714844,-4.92188 l 1.259766,0 c -0.787766,1.35418 -1.308599,2.32098 -1.5625,2.90039 -0.39714,0.89845 -0.709639,1.83595 -0.9375,2.8125 -0.279951,1.21746 -0.419925,2.44142 -0.419922,3.67188 -3e-6,3.13151 0.973303,6.25976 2.919922,9.38476 z"
         style="font-size:20px;text-align:center;text-anchor:middle"
         id="path3058" />
      <path
         d="m -89.193359,581.8125 0,-10.37109 1.572265,0 0,1.45507 c 0.325518,-0.5078 0.75846,-0.91633 1.298828,-1.22558 0.54036,-0.30924 1.155594,-0.46386 1.845704,-0.46387 0.768222,10e-6 1.398104,0.15952 1.889648,0.47852 0.491528,0.31902 0.838207,0.76498 1.040039,1.33789 0.820303,-1.21093 1.88801,-1.8164 3.203125,-1.81641 1.028633,10e-6 1.819647,0.28484 2.373047,0.85449 0.55337,0.56967 0.830063,1.44695 0.830078,2.63184 l 0,7.11914 -1.748047,0 0,-6.5332 c -1.3e-5,-0.70312 -0.05698,-1.20931 -0.170898,-1.51856 -0.113946,-0.30923 -0.320651,-0.55826 -0.620117,-0.74707 -0.299492,-0.18879 -0.651054,-0.28319 -1.054688,-0.2832 -0.729178,10e-6 -1.334646,0.24252 -1.816406,0.72754 -0.481781,0.48503 -0.722666,1.2614 -0.722656,2.3291 l 0,6.02539 -1.757813,0 0,-6.73828 c -7e-6,-0.78124 -0.143237,-1.36718 -0.429687,-1.75781 -0.286466,-0.39062 -0.755215,-0.58593 -1.40625,-0.58594 -0.494797,10e-6 -0.952154,0.13022 -1.372071,0.39062 -0.419926,0.26043 -0.724287,0.64129 -0.913086,1.14258 -0.188805,0.50131 -0.283206,1.22397 -0.283203,2.16797 l 0,5.38086 z"
         style="font-size:20px;text-align:center;text-anchor:middle"
         id="path3060" />
      <path
         d="m -65.746094,580.5332 c -0.651049,0.55339 -1.277676,0.94401 -1.879883,1.17188 -0.602219,0.22786 -1.248377,0.34179 -1.938476,0.34179 -1.139326,0 -2.014976,-0.27832 -2.626953,-0.83496 -0.61198,-0.55664 -0.91797,-1.2679 -0.917969,-2.13379 -10e-7,-0.5078 0.115559,-0.97167 0.34668,-1.3916 0.231118,-0.41991 0.533852,-0.75683 0.908203,-1.01074 0.374346,-0.2539 0.795895,-0.44596 1.264648,-0.57617 0.345049,-0.0911 0.865882,-0.17903 1.5625,-0.26367 1.419265,-0.16927 2.464186,-0.37109 3.134766,-0.60547 0.0065,-0.24088 0.0098,-0.39387 0.0098,-0.45899 -8e-6,-0.71613 -0.166024,-1.22069 -0.498047,-1.51367 -0.449226,-0.39712 -1.116543,-0.59569 -2.001953,-0.5957 -0.826828,10e-6 -1.437179,0.14487 -1.831055,0.43457 -0.393884,0.28972 -0.685224,0.80242 -0.874024,1.53809 l -1.71875,-0.23438 c 0.156249,-0.73567 0.41341,-1.32974 0.771485,-1.78223 0.358071,-0.45246 0.875648,-0.80077 1.552734,-1.04492 0.677079,-0.24413 1.461584,-0.3662 2.353516,-0.36621 0.88541,10e-6 1.60481,0.10418 2.158203,0.3125 0.553377,0.20834 0.960278,0.47039 1.220703,0.78613 0.260407,0.31577 0.442699,0.71453 0.546875,1.19629 0.05858,0.29949 0.08788,0.83985 0.08789,1.6211 l 0,2.34375 c -1e-5,1.63411 0.03742,2.66764 0.112304,3.10058 0.07486,0.43295 0.222972,0.84798 0.444336,1.24512 l -1.835937,0 c -0.1823,-0.36458 -0.299488,-0.79101 -0.351563,-1.2793 z m -0.146484,-3.92578 c -0.638028,0.26042 -1.595059,0.48178 -2.871094,0.66406 -0.72266,0.10418 -1.233728,0.22136 -1.533203,0.35157 -0.299482,0.13021 -0.530602,0.32064 -0.693359,0.57129 -0.162763,0.25065 -0.244144,0.52897 -0.244141,0.83496 -3e-6,0.46875 0.177406,0.85937 0.532227,1.17187 0.354814,0.3125 0.874019,0.46875 1.557617,0.46875 0.677078,0 1.279291,-0.14811 1.80664,-0.44433 0.527337,-0.29623 0.914707,-0.7015 1.16211,-1.21582 0.188794,-0.39714 0.283195,-0.98307 0.283203,-1.75782 z"
         style="font-size:20px;text-align:center;text-anchor:middle"
         id="path3062" />
      <path
         d="m -62.552734,581.8125 3.789062,-5.39063 -3.505859,-4.98046 2.197265,0 1.591797,2.43164 c 0.299475,0.46224 0.54036,0.84961 0.722657,1.16211 0.286453,-0.42968 0.550124,-0.81054 0.791015,-1.14258 l 1.748047,-2.45117 2.099609,0 -3.583984,4.88281 3.857422,5.48828 -2.158203,0 -2.128906,-3.22266 -0.566407,-0.86914 -2.724609,4.0918 z"
         style="font-size:20px;text-align:center;text-anchor:middle"
         id="path3064" />
      <path
         d="m -50.882812,581.8125 0,-2.00195 2.001953,0 0,2.00195 z"
         style="font-size:20px;text-align:center;text-anchor:middle"
         id="path3066" />
      <path
         d="m -34.154297,581.8125 -1.757812,0 0,-11.20117 c -0.423183,0.40365 -0.978195,0.8073 -1.665039,1.21094 -0.686853,0.40365 -1.303714,0.70639 -1.850586,0.9082 l 0,-1.69922 c 0.983069,-0.46223 1.842444,-1.02212 2.578125,-1.67969 0.735671,-0.65754 1.256504,-1.29556 1.5625,-1.91406 l 1.132812,0 z"
         style="font-size:20px;text-align:center;text-anchor:middle"
         id="path3068" />
      <path
         d="m -24.007812,581.8125 0,-3.42773 -6.210938,0 0,-1.61133 6.533203,-9.27735 1.435547,0 0,9.27735 1.933594,0 0,1.61133 -1.933594,0 0,3.42773 z m 0,-5.03906 0,-6.45508 -4.482422,6.45508 z"
         style="font-size:20px;text-align:center;text-anchor:middle"
         id="path3070" />
      <path
         d="m -9.3886719,571.00195 -1.7480471,0.13672 c -0.156258,-0.69009 -0.377612,-1.19139 -0.664062,-1.5039 -0.475268,-0.50129 -1.061205,-0.75194 -1.757813,-0.75196 -0.559901,2e-5 -1.051437,0.15627 -1.474609,0.46875 -0.553389,0.40366 -0.989587,0.99285 -1.308594,1.76758 -0.319013,0.77475 -0.485028,1.87826 -0.498047,3.31055 0.423174,-0.64453 0.940752,-1.12304 1.552735,-1.43555 0.611974,-0.31249 1.25325,-0.46874 1.923828,-0.46875 1.171868,10e-6 2.169588,0.43132 2.993164,1.29395 0.8235577,0.86263 1.2353412,1.97754 1.2353514,3.34472 -1.02e-5,0.89844 -0.1936949,1.7334 -0.5810547,2.50489 -0.3873787,0.77148 -0.9196047,1.3623 -1.5966797,1.77246 -0.677091,0.41015 -1.445319,0.61523 -2.304688,0.61523 -1.464848,0 -2.659508,-0.53874 -3.583984,-1.61621 -0.92448,-1.07747 -1.386719,-2.85319 -1.386719,-5.32715 0,-2.76692 0.511067,-4.77863 1.533204,-6.03516 0.891923,-1.09373 2.093094,-1.64061 3.603515,-1.64062 1.126295,10e-6 2.049146,0.31577 2.768555,0.94727 0.7193915,0.63152 1.1507062,1.50391 1.2939451,2.61718 z m -7.1777341,6.17188 c -3e-6,0.60547 0.128578,1.1849 0.385742,1.73828 0.257158,0.55339 0.616858,0.97494 1.079101,1.26465 0.462235,0.28971 0.947261,0.43457 1.455079,0.43457 0.742181,0 1.380201,-0.29948 1.914062,-0.89844 0.533846,-0.59896 0.800773,-1.41276 0.800781,-2.44141 -8e-6,-0.98957 -0.26368,-1.7692 -0.791015,-2.33886 -0.527351,-0.56966 -1.191413,-0.85449 -1.992188,-0.8545 -0.794275,10e-6 -1.468103,0.28484 -2.021484,0.8545 -0.553389,0.56966 -0.830081,1.31673 -0.830078,2.24121 z"
         style="font-size:20px;text-align:center;text-anchor:middle"
         id="path3072" />
      <path
         d="m -7.3769531,574.75195 c -9e-7,-1.6927 0.1741526,-3.055 0.5224609,-4.08691 0.3483056,-1.03189 0.8658832,-1.82779 1.5527344,-2.3877 0.6868454,-0.55988 1.5511023,-0.83983 2.5927734,-0.83984 0.7682229,10e-6 1.4420504,0.15464 2.0214844,0.46387 0.57941898,0.30926 1.05793413,0.75522 1.43554687,1.33789 0.37759483,0.58269 0.67381853,1.29233 0.88867183,2.1289 0.2148337,0.8366 0.3222555,1.96453 0.3222657,3.38379 -1.02e-5,1.6797 -0.1725361,3.03549 -0.5175782,4.06739 -0.3450613,1.0319 -0.86101134,1.82942 -1.54785151,2.39257 -0.68685637,0.56316 -1.55436849,0.84473 -2.60253909,0.84473 -1.3802124,0 -2.4641957,-0.49479 -3.2519531,-1.48437 -0.9440117,-1.19141 -1.4160165,-3.13151 -1.4160156,-5.82032 z m 1.8066406,0 c -2.6e-6,2.35027 0.2750622,3.91439 0.8251953,4.69239 0.5501262,0.77799 1.2288365,1.16699 2.0361328,1.16699 0.8072854,0 1.4859956,-0.39063 2.03613284,-1.17188 0.55012212,-0.78124 0.82518695,-2.34374 0.82519531,-4.6875 -8.36e-6,-2.35676 -0.27507319,-3.92251 -0.82519531,-4.69726 -0.55013724,-0.77473 -1.23535784,-1.1621 -2.05566404,-1.16211 -0.8072964,1e-5 -1.451827,0.34181 -1.9335938,1.02539 -0.6054717,0.87241 -0.9082057,2.48373 -0.9082031,4.83398 z"
         style="font-size:20px;text-align:center;text-anchor:middle"
         id="path3074" />
      <path
         d="m 9.9375,581.8125 0,-14.31641 5.371094,0 c 1.093742,2e-5 1.97102,0.14487 2.631836,0.43457 0.660797,0.28973 1.178374,0.73569 1.552734,1.33789 0.374338,0.60223 0.561512,1.23211 0.561523,1.88965 -1.1e-5,0.61199 -0.166027,1.18816 -0.498046,1.72852 -0.332042,0.54037 -0.833344,0.97657 -1.503907,1.30859 0.865875,0.25392 1.531565,0.68686 1.997071,1.29883 0.465482,0.61199 0.69823,1.33464 0.698242,2.16797 -1.2e-5,0.67058 -0.141614,1.29395 -0.424805,1.87012 -0.283215,0.57617 -0.633149,1.02051 -1.049805,1.333 -0.416677,0.31251 -0.939137,0.54851 -1.567382,0.70801 -0.628264,0.15951 -1.39812,0.23926 -2.309571,0.23926 z m 1.894531,-8.30078 3.095703,0 c 0.839837,10e-6 1.44205,-0.0553 1.806641,-0.16602 0.481762,-0.14322 0.844717,-0.38085 1.088867,-0.71289 0.244131,-0.33202 0.366201,-0.74869 0.366211,-1.25 -10e-6,-0.47525 -0.113942,-0.89354 -0.341797,-1.25488 -0.227873,-0.36132 -0.553394,-0.60871 -0.976562,-0.74219 -0.423185,-0.13345 -1.149096,-0.20018 -2.177735,-0.20019 l -2.861328,0 z m 0,6.61133 3.564453,0 c 0.611972,0 1.041659,-0.0228 1.289063,-0.0684 0.436189,-0.0781 0.800772,-0.20833 1.09375,-0.39063 0.292959,-0.18229 0.533844,-0.44759 0.722656,-0.7959 0.188792,-0.3483 0.283193,-0.75032 0.283203,-1.20605 -10e-6,-0.53385 -0.136729,-0.99772 -0.410156,-1.3916 -0.273447,-0.39388 -0.652679,-0.67057 -1.137695,-0.83008 -0.485035,-0.1595 -1.183276,-0.23925 -2.094727,-0.23926 l -3.310547,0 z"
         style="font-size:20px;text-align:center;text-anchor:middle"
         id="path3076" />
      <path
         d="m 23.072266,585.80664 -0.195313,-1.65039 c 0.384113,0.10416 0.719399,0.15625 1.005859,0.15625 0.390623,0 0.703123,-0.0651 0.9375,-0.19531 0.234372,-0.13021 0.426429,-0.3125 0.576172,-0.54688 0.110674,-0.17578 0.28971,-0.61198 0.53711,-1.30859 0.03255,-0.0977 0.08463,-0.24089 0.15625,-0.42969 l -3.935547,-10.39062 1.894531,0 2.158203,6.00586 c 0.279944,0.76172 0.530594,1.5625 0.751953,2.40234 0.201818,-0.80729 0.442703,-1.59505 0.722657,-2.36328 l 2.216796,-6.04492 1.757813,0 -3.945313,10.54687 c -0.423182,1.13932 -0.751958,1.92383 -0.986328,2.35352 -0.312504,0.57942 -0.670577,1.00423 -1.074218,1.27441 -0.40365,0.27018 -0.88542,0.40527 -1.445313,0.40527 -0.338544,0 -0.716147,-0.0716 -1.132812,-0.21484 z"
         style="font-size:20px;text-align:center;text-anchor:middle"
         id="path3078" />
      <path
         d="m 36.988281,580.24023 0.253906,1.55274 c -0.494796,0.10417 -0.937504,0.15625 -1.328125,0.15625 -0.638024,0 -1.132815,-0.10091 -1.484375,-0.30274 -0.351564,-0.20182 -0.59896,-0.46712 -0.742187,-0.79589 -0.143231,-0.32878 -0.214845,-1.02051 -0.214844,-2.0752 l 0,-5.9668 -1.289062,0 0,-1.36718 1.289062,0 0,-2.56836 1.748047,-1.05469 0,3.62305 1.767578,0 0,1.36718 -1.767578,0 0,6.06446 c -3e-6,0.5013 0.03092,0.82357 0.09277,0.96679 0.06184,0.14323 0.162756,0.25717 0.302734,0.3418 0.13997,0.0846 0.340165,0.12696 0.600586,0.12695 0.195308,10e-6 0.452469,-0.0228 0.771484,-0.0684 z"
         style="font-size:20px;text-align:center;text-anchor:middle"
         id="path3080" />
      <path
         d="m 45.796875,578.47266 1.816406,0.22461 c -0.286468,1.0612 -0.817066,1.88476 -1.591797,2.4707 -0.774747,0.58594 -1.764329,0.8789 -2.96875,0.8789 -1.516931,0 -2.719729,-0.46712 -3.608398,-1.40136 -0.888673,-0.93424 -1.333009,-2.24446 -1.333008,-3.93067 -10e-7,-1.74478 0.449218,-3.09895 1.347656,-4.0625 0.898435,-0.96353 2.063798,-1.4453 3.496094,-1.44531 1.386712,10e-6 2.519523,0.47202 3.398438,1.41602 0.878896,0.94402 1.318349,2.27214 1.318359,3.98437 -1e-5,0.10417 -0.0033,0.26042 -0.0098,0.46875 l -7.734375,0 c 0.0651,1.13933 0.387367,2.01172 0.966797,2.61719 0.579423,0.60547 1.302079,0.9082 2.167969,0.9082 0.644525,0 1.194655,-0.16927 1.650391,-0.50781 0.455721,-0.33854 0.817049,-0.8789 1.083984,-1.62109 z m -5.771484,-2.8418 5.791015,0 c -0.07813,-0.87239 -0.299487,-1.52669 -0.664062,-1.96289 -0.559903,-0.67708 -1.285814,-1.01562 -2.177735,-1.01563 -0.807296,10e-6 -1.486006,0.27019 -2.036132,0.81055 -0.550134,0.54037 -0.854495,1.26303 -0.913086,2.16797 z"
         style="font-size:20px;text-align:center;text-anchor:middle"
         id="path3082" />
      <path
         d="m 50.982422,586.02148 -1.259766,0 c 1.946612,-3.125 2.919918,-6.25325 2.919922,-9.38476 -4e-6,-1.22395 -0.139978,-2.43814 -0.419922,-3.64258 -0.221357,-0.97655 -0.530602,-1.91405 -0.927734,-2.8125 -0.253909,-0.58592 -0.777997,-1.56249 -1.572266,-2.92969 l 1.259766,0 c 1.223955,1.63413 2.128902,3.27475 2.714844,4.92188 0.501296,1.41928 0.751947,2.90365 0.751953,4.45312 -6e-6,1.75782 -0.33692,3.45704 -1.010742,5.09766 -0.673833,1.64062 -1.492517,3.07291 -2.456055,4.29687 z"
         style="font-size:20px;text-align:center;text-anchor:middle"
         id="path3084" />
    </g>
    <g
       style="font-size:40px;font-style:normal;font-weight:normal;line-height:125%;letter-spacing:0px;word-spacing:0px;fill:#000000;fill-opacity:1;stroke:none;font-family:Sans"
       id="text3094-4-4-5-6">
      <path
         d="m 208.84375,546.8125 0,-14.31641 5.40039,0 c 0.95051,2e-5 1.67642,0.0456 2.17773,0.13672 0.70312,0.1172 1.29231,0.34019 1.76758,0.66895 0.47525,0.32879 0.85774,0.7894 1.14746,1.38183 0.28971,0.59246 0.43456,1.2435 0.43457,1.95313 -1e-5,1.21746 -0.38738,2.24773 -1.16211,3.09082 -0.77475,0.8431 -2.17448,1.26465 -4.19921,1.26465 l -3.67188,0 0,5.82031 z m 1.89453,-7.50977 3.70117,0 c 1.22395,10e-6 2.09309,-0.22785 2.60742,-0.68359 0.51432,-0.45572 0.77148,-1.097 0.77149,-1.92383 -1e-5,-0.59895 -0.15138,-1.11164 -0.4541,-1.53808 -0.30275,-0.42642 -0.70151,-0.708 -1.19629,-0.84473 -0.31902,-0.0846 -0.90821,-0.12694 -1.76758,-0.12695 l -3.66211,0 z"
         style="font-size:20px;text-align:center;text-anchor:middle"
         id="path3005" />
      <path
         d="m 221.95898,546.8125 0,-10.37109 1.58204,0 0,1.57226 c 0.40364,-0.73567 0.77636,-1.22069 1.11816,-1.45508 0.34179,-0.23436 0.71777,-0.35155 1.12793,-0.35156 0.59244,10e-6 1.19465,0.18881 1.80664,0.56641 l -0.60547,1.63086 c -0.42969,-0.2539 -0.85938,-0.38085 -1.28906,-0.38086 -0.38412,10e-6 -0.72917,0.11557 -1.03516,0.34668 -0.30599,0.23113 -0.52409,0.55176 -0.65429,0.96191 -0.19532,0.62501 -0.29298,1.3086 -0.29297,2.05078 l 0,5.42969 z"
         style="font-size:20px;text-align:center;text-anchor:middle"
         id="path3007" />
      <path
         d="m 235.45508,546.8125 0,-1.52344 c -0.8073,1.17188 -1.9043,1.75781 -3.29102,1.75781 -0.61198,0 -1.18327,-0.11718 -1.71386,-0.35156 -0.53061,-0.23437 -0.92449,-0.52897 -1.18165,-0.88379 -0.25716,-0.35481 -0.43782,-0.78938 -0.54199,-1.30371 -0.0716,-0.34505 -0.10742,-0.89192 -0.10742,-1.64062 l 0,-6.42578 1.75781,0 0,5.75195 c 0,0.91797 0.0358,1.53646 0.10742,1.85547 0.11068,0.46224 0.34505,0.8252 0.70313,1.08887 0.35807,0.26367 0.80078,0.3955 1.32812,0.3955 0.52734,0 1.02213,-0.13509 1.48438,-0.40527 0.46223,-0.27018 0.78938,-0.63802 0.98145,-1.10352 0.19204,-0.46549 0.28807,-1.14094 0.28808,-2.02636 l 0,-5.55664 1.75781,0 0,10.37109 z m -5.3711,-12.40234 0,-2.00196 1.83594,0 0,2.00196 z m 3.64258,0 0,-2.00196 1.83594,0 0,2.00196 z"
         style="font-size:20px;text-align:center;text-anchor:middle"
         id="path3009" />
      <path
         d="m 240.21094,546.8125 0,-9.00391 -1.55274,0 0,-1.36718 1.55274,0 0,-1.10352 c 0,-0.6966 0.0618,-1.21418 0.18554,-1.55273 0.16927,-0.45572 0.46712,-0.82519 0.89356,-1.1084 0.42643,-0.28319 1.02376,-0.42479 1.79199,-0.42481 0.49479,2e-5 1.04166,0.0586 1.64063,0.17578 l -0.26368,1.53321 c -0.36458,-0.0651 -0.70964,-0.0977 -1.03515,-0.0977 -0.53386,10e-6 -0.91146,0.11395 -1.13281,0.3418 -0.22136,0.22788 -0.33204,0.65431 -0.33204,1.27929 l 0,0.95704 2.02149,0 0,1.36718 -2.02149,0 0,9.00391 z"
         style="font-size:20px;text-align:center;text-anchor:middle"
         id="path3011" />
      <path
         d="m 244.6543,542.51562 0,-1.76757 5.40039,0 0,1.76757 z"
         style="font-size:20px;text-align:center;text-anchor:middle"
         id="path3013" />
      <path
         d="m 196.80273,568.7168 1.73829,-0.27344 c 0.0976,0.69662 0.36946,1.23047 0.81543,1.60156 0.44596,0.3711 1.06933,0.55664 1.87011,0.55664 0.80729,0 1.40625,-0.16438 1.79688,-0.49316 0.39062,-0.32878 0.58593,-0.71452 0.58593,-1.15723 0,-0.39713 -0.17253,-0.70963 -0.51757,-0.9375 -0.2409,-0.15624 -0.83985,-0.35481 -1.79688,-0.5957 -1.28906,-0.32552 -2.18262,-0.60709 -2.68066,-0.84473 -0.49805,-0.23762 -0.87565,-0.5664 -1.13281,-0.98633 -0.25717,-0.41991 -0.38575,-0.88378 -0.38575,-1.3916 0,-0.46223 0.1058,-0.89029 0.31739,-1.28418 0.21158,-0.39387 0.49967,-0.72102 0.86425,-0.98144 0.27344,-0.20182 0.64616,-0.37271 1.11817,-0.5127 0.472,-0.13996 0.97818,-0.20995 1.51855,-0.20996 0.8138,10e-6 1.52832,0.1172 2.14356,0.35156 0.61522,0.23439 1.06933,0.55177 1.3623,0.95215 0.29296,0.4004 0.49478,0.93588 0.60547,1.60645 l -1.71875,0.23437 c -0.0781,-0.53384 -0.30437,-0.95051 -0.67871,-1.25 -0.37436,-0.29947 -0.90333,-0.44921 -1.58691,-0.44922 -0.8073,10e-6 -1.38347,0.13348 -1.72852,0.40039 -0.34505,0.26694 -0.51758,0.57944 -0.51758,0.9375 0,0.22788 0.0716,0.43295 0.21485,0.61524 0.14322,0.18881 0.36783,0.34506 0.67382,0.46875 0.17578,0.0651 0.69336,0.21485 1.55274,0.44922 1.24348,0.33203 2.11099,0.60384 2.60254,0.81543 0.49153,0.21159 0.87727,0.51921 1.15722,0.92285 0.27994,0.40365 0.41992,0.90495 0.41993,1.5039 -1e-5,0.58594 -0.17091,1.1377 -0.5127,1.65528 -0.3418,0.51758 -0.83497,0.91797 -1.47949,1.20117 -0.64454,0.2832 -1.37371,0.4248 -2.1875,0.4248 -1.34766,0 -2.37468,-0.27994 -3.08106,-0.83984 -0.70638,-0.55989 -1.15722,-1.38997 -1.35254,-2.49023 z"
         style="font-size:20px;text-align:center;text-anchor:middle"
         id="path3015" />
      <path
         d="m 214.30273,571.8125 0,-1.52344 c -0.80729,1.17188 -1.9043,1.75781 -3.29101,1.75781 -0.61198,0 -1.18327,-0.11718 -1.71387,-0.35156 -0.5306,-0.23437 -0.92448,-0.52897 -1.18164,-0.88379 -0.25716,-0.35481 -0.43783,-0.78938 -0.54199,-1.30371 -0.0716,-0.34505 -0.10742,-0.89192 -0.10742,-1.64062 l 0,-6.42578 1.75781,0 0,5.75195 c 0,0.91797 0.0358,1.53646 0.10742,1.85547 0.11068,0.46224 0.34505,0.8252 0.70313,1.08887 0.35806,0.26367 0.80077,0.3955 1.32812,0.3955 0.52734,0 1.02213,-0.13509 1.48438,-0.40527 0.46223,-0.27018 0.78938,-0.63802 0.98144,-1.10352 0.19205,-0.46549 0.28808,-1.14094 0.28809,-2.02636 l 0,-5.55664 1.75781,0 0,10.37109 z"
         style="font-size:20px;text-align:center;text-anchor:middle"
         id="path3017" />
      <path
         d="m 218.63867,571.8125 0,-10.37109 1.57227,0 0,1.45507 c 0.32552,-0.5078 0.75846,-0.91633 1.29883,-1.22558 0.54036,-0.30924 1.15559,-0.46386 1.8457,-0.46387 0.76822,10e-6 1.3981,0.15952 1.88965,0.47852 0.49153,0.31902 0.8382,0.76498 1.04004,1.33789 0.8203,-1.21093 1.88801,-1.8164 3.20312,-1.81641 1.02863,10e-6 1.81965,0.28484 2.37305,0.85449 0.55337,0.56967 0.83006,1.44695 0.83008,2.63184 l 0,7.11914 -1.74805,0 0,-6.5332 c -1e-5,-0.70312 -0.057,-1.20931 -0.1709,-1.51856 -0.11394,-0.30923 -0.32065,-0.55826 -0.62012,-0.74707 -0.29949,-0.18879 -0.65105,-0.28319 -1.05468,-0.2832 -0.72918,10e-6 -1.33465,0.24252 -1.81641,0.72754 -0.48178,0.48503 -0.72267,1.2614 -0.72266,2.3291 l 0,6.02539 -1.75781,0 0,-6.73828 c -1e-5,-0.78124 -0.14324,-1.36718 -0.42969,-1.75781 -0.28646,-0.39062 -0.75521,-0.58593 -1.40625,-0.58594 -0.49479,10e-6 -0.95215,0.13022 -1.37207,0.39062 -0.41992,0.26043 -0.72428,0.64129 -0.91308,1.14258 -0.18881,0.50131 -0.28321,1.22397 -0.28321,2.16797 l 0,5.38086 z"
         style="font-size:20px;text-align:center;text-anchor:middle"
         id="path3019" />
      <path
         d="m 235.31836,571.8125 0,-10.37109 1.57226,0 0,1.45507 c 0.32552,-0.5078 0.75846,-0.91633 1.29883,-1.22558 0.54036,-0.30924 1.1556,-0.46386 1.84571,-0.46387 0.76822,10e-6 1.3981,0.15952 1.88964,0.47852 0.49153,0.31902 0.83821,0.76498 1.04004,1.33789 0.82031,-1.21093 1.88801,-1.8164 3.20313,-1.81641 1.02863,10e-6 1.81965,0.28484 2.37305,0.85449 0.55337,0.56967 0.83006,1.44695 0.83007,2.63184 l 0,7.11914 -1.74804,0 0,-6.5332 c -2e-5,-0.70312 -0.057,-1.20931 -0.1709,-1.51856 -0.11395,-0.30923 -0.32065,-0.55826 -0.62012,-0.74707 -0.29949,-0.18879 -0.65105,-0.28319 -1.05469,-0.2832 -0.72917,10e-6 -1.33464,0.24252 -1.8164,0.72754 -0.48178,0.48503 -0.72267,1.2614 -0.72266,2.3291 l 0,6.02539 -1.75781,0 0,-6.73828 c -1e-5,-0.78124 -0.14324,-1.36718 -0.42969,-1.75781 -0.28646,-0.39062 -0.75521,-0.58593 -1.40625,-0.58594 -0.4948,10e-6 -0.95215,0.13022 -1.37207,0.39062 -0.41992,0.26043 -0.72429,0.64129 -0.91309,1.14258 -0.1888,0.50131 -0.2832,1.22397 -0.2832,2.16797 l 0,5.38086 z"
         style="font-size:20px;text-align:center;text-anchor:middle"
         id="path3021" />
      <path
         d="m 259.09766,568.47266 1.8164,0.22461 c -0.28647,1.0612 -0.81706,1.88476 -1.59179,2.4707 -0.77475,0.58594 -1.76433,0.8789 -2.96875,0.8789 -1.51694,0 -2.71973,-0.46712 -3.6084,-1.40136 -0.88868,-0.93424 -1.33301,-2.24446 -1.33301,-3.93067 0,-1.74478 0.44922,-3.09895 1.34766,-4.0625 0.89843,-0.96353 2.06379,-1.4453 3.49609,-1.44531 1.38671,10e-6 2.51952,0.47202 3.39844,1.41602 0.87889,0.94402 1.31835,2.27214 1.31836,3.98437 -1e-5,0.10417 -0.003,0.26042 -0.01,0.46875 l -7.73437,0 c 0.0651,1.13933 0.38736,2.01172 0.96679,2.61719 0.57943,0.60547 1.30208,0.9082 2.16797,0.9082 0.64453,0 1.19466,-0.16927 1.65039,-0.50781 0.45572,-0.33854 0.81705,-0.8789 1.08399,-1.62109 z m -5.77149,-2.8418 5.79102,0 c -0.0781,-0.87239 -0.29949,-1.52669 -0.66407,-1.96289 -0.5599,-0.67708 -1.28581,-1.01562 -2.17773,-1.01563 -0.8073,10e-6 -1.48601,0.27019 -2.03613,0.81055 -0.55014,0.54037 -0.8545,1.26303 -0.91309,2.16797 z"
         style="font-size:20px;text-align:center;text-anchor:middle"
         id="path3023" />
      <path
         d="m 198.63867,601.02148 c -0.97005,-1.22396 -1.79037,-2.65625 -2.46094,-4.29687 -0.67057,-1.64062 -1.00586,-3.33984 -1.00586,-5.09766 0,-1.54947 0.25065,-3.03384 0.75196,-4.45312 0.58593,-1.64713 1.49088,-3.28775 2.71484,-4.92188 l 1.25977,0 c -0.78777,1.35418 -1.3086,2.32098 -1.5625,2.90039 -0.39714,0.89845 -0.70964,1.83595 -0.9375,2.8125 -0.27995,1.21746 -0.41993,2.44142 -0.41992,3.67188 -1e-5,3.13151 0.9733,6.25976 2.91992,9.38476 z"
         style="font-size:20px;text-align:center;text-anchor:middle"
         id="path3025" />
      <path
         d="m 210.70898,595.12305 0,1.68945 -9.46289,0 c -0.013,-0.42318 0.0553,-0.83008 0.20508,-1.2207 0.24089,-0.64453 0.62663,-1.2793 1.15723,-1.9043 0.53059,-0.625 1.2972,-1.34765 2.2998,-2.16797 1.55599,-1.27603 2.60742,-2.28678 3.1543,-3.03223 0.54687,-0.74543 0.8203,-1.45018 0.82031,-2.11425 -1e-5,-0.69661 -0.24903,-1.28417 -0.74707,-1.7627 -0.49805,-0.4785 -1.14747,-0.71776 -1.94824,-0.71777 -0.84636,1e-5 -1.52344,0.25392 -2.03125,0.76172 -0.50782,0.50782 -0.76498,1.21095 -0.77148,2.10937 l -1.80665,-0.18555 c 0.1237,-1.34764 0.5892,-2.37466 1.39649,-3.08105 0.80729,-0.70637 1.89127,-1.05956 3.25195,-1.05957 1.37369,10e-6 2.46093,0.38087 3.26172,1.14258 0.80077,0.76173 1.20116,1.70574 1.20117,2.83203 -1e-5,0.57293 -0.11719,1.13608 -0.35156,1.68945 -0.23438,0.5534 -0.62338,1.13608 -1.16699,1.74805 -0.54363,0.61198 -1.44695,1.45183 -2.70996,2.51953 -1.05469,0.88542 -1.73178,1.48601 -2.03125,1.80176 -0.29949,0.31576 -0.54688,0.63314 -0.74219,0.95215 z"
         style="font-size:20px;text-align:center;text-anchor:middle"
         id="path3027" />
      <path
         d="m 218.78516,596.8125 0,-14.31641 5.37109,0 c 1.09374,2e-5 1.97102,0.14487 2.63184,0.43457 0.66079,0.28973 1.17837,0.73569 1.55273,1.33789 0.37434,0.60223 0.56151,1.23211 0.56152,1.88965 -1e-5,0.61199 -0.16602,1.18816 -0.49804,1.72852 -0.33205,0.54037 -0.83335,0.97657 -1.50391,1.30859 0.86588,0.25392 1.53157,0.68686 1.99707,1.29883 0.46548,0.61199 0.69823,1.33464 0.69824,2.16797 -1e-5,0.67058 -0.14161,1.29395 -0.4248,1.87012 -0.28322,0.57617 -0.63315,1.02051 -1.04981,1.333 -0.41667,0.31251 -0.93913,0.54851 -1.56738,0.70801 -0.62826,0.15951 -1.39812,0.23926 -2.30957,0.23926 z m 1.89453,-8.30078 3.0957,0 c 0.83984,10e-6 1.44205,-0.0553 1.80664,-0.16602 0.48176,-0.14322 0.84472,-0.38085 1.08887,-0.71289 0.24413,-0.33202 0.3662,-0.74869 0.36621,-1.25 -1e-5,-0.47525 -0.11394,-0.89354 -0.3418,-1.25488 -0.22787,-0.36132 -0.55339,-0.60871 -0.97656,-0.74219 -0.42319,-0.13345 -1.1491,-0.20018 -2.17773,-0.20019 l -2.86133,0 z m 0,6.61133 3.56445,0 c 0.61197,0 1.04166,-0.0228 1.28906,-0.0684 0.43619,-0.0781 0.80078,-0.20833 1.09375,-0.39063 0.29296,-0.18229 0.53385,-0.44759 0.72266,-0.7959 0.18879,-0.3483 0.28319,-0.75032 0.2832,-1.20605 -1e-5,-0.53385 -0.13673,-0.99772 -0.41015,-1.3916 -0.27345,-0.39388 -0.65268,-0.67057 -1.1377,-0.83008 -0.48503,-0.1595 -1.18327,-0.23925 -2.09473,-0.23926 l -3.31054,0 z"
         style="font-size:20px;text-align:center;text-anchor:middle"
         id="path3029" />
      <path
         d="m 231.91992,600.80664 -0.19531,-1.65039 c 0.38411,0.10416 0.7194,0.15625 1.00586,0.15625 0.39062,0 0.70312,-0.0651 0.9375,-0.19531 0.23437,-0.13021 0.42643,-0.3125 0.57617,-0.54688 0.11067,-0.17578 0.28971,-0.61198 0.53711,-1.30859 0.0325,-0.0977 0.0846,-0.24089 0.15625,-0.42969 l -3.93555,-10.39062 1.89453,0 2.15821,6.00586 c 0.27994,0.76172 0.53059,1.5625 0.75195,2.40234 0.20182,-0.80729 0.4427,-1.59505 0.72266,-2.36328 l 2.21679,-6.04492 1.75782,0 -3.94532,10.54687 c -0.42318,1.13932 -0.75195,1.92383 -0.98632,2.35352 -0.31251,0.57942 -0.67058,1.00423 -1.07422,1.27441 -0.40365,0.27018 -0.88542,0.40527 -1.44532,0.40527 -0.33854,0 -0.71614,-0.0716 -1.13281,-0.21484 z"
         style="font-size:20px;text-align:center;text-anchor:middle"
         id="path3031" />
      <path
         d="m 245.83594,595.24023 0.2539,1.55274 c -0.49479,0.10417 -0.9375,0.15625 -1.32812,0.15625 -0.63803,0 -1.13282,-0.10091 -1.48438,-0.30274 -0.35156,-0.20182 -0.59896,-0.46712 -0.74218,-0.79589 -0.14323,-0.32878 -0.21485,-1.02051 -0.21485,-2.0752 l 0,-5.9668 -1.28906,0 0,-1.36718 1.28906,0 0,-2.56836 1.74805,-1.05469 0,3.62305 1.76758,0 0,1.36718 -1.76758,0 0,6.06446 c 0,0.5013 0.0309,0.82357 0.0928,0.96679 0.0618,0.14323 0.16276,0.25717 0.30274,0.3418 0.13997,0.0846 0.34016,0.12696 0.60058,0.12695 0.19531,10e-6 0.45247,-0.0228 0.77149,-0.0684 z"
         style="font-size:20px;text-align:center;text-anchor:middle"
         id="path3033" />
      <path
         d="m 254.64453,593.47266 1.81641,0.22461 c -0.28647,1.0612 -0.81707,1.88476 -1.5918,2.4707 -0.77475,0.58594 -1.76433,0.8789 -2.96875,0.8789 -1.51693,0 -2.71973,-0.46712 -3.6084,-1.40136 -0.88867,-0.93424 -1.33301,-2.24446 -1.33301,-3.93067 0,-1.74478 0.44922,-3.09895 1.34766,-4.0625 0.89844,-0.96353 2.0638,-1.4453 3.49609,-1.44531 1.38672,10e-6 2.51953,0.47202 3.39844,1.41602 0.8789,0.94402 1.31835,2.27214 1.31836,3.98437 -10e-6,0.10417 -0.003,0.26042 -0.01,0.46875 l -7.73438,0 c 0.0651,1.13933 0.38737,2.01172 0.9668,2.61719 0.57942,0.60547 1.30208,0.9082 2.16797,0.9082 0.64452,0 1.19465,-0.16927 1.65039,-0.50781 0.45572,-0.33854 0.81705,-0.8789 1.08398,-1.62109 z m -5.77148,-2.8418 5.79101,0 c -0.0781,-0.87239 -0.29948,-1.52669 -0.66406,-1.96289 -0.5599,-0.67708 -1.28581,-1.01562 -2.17773,-1.01563 -0.8073,10e-6 -1.48601,0.27019 -2.03614,0.81055 -0.55013,0.54037 -0.85449,1.26303 -0.91308,2.16797 z"
         style="font-size:20px;text-align:center;text-anchor:middle"
         id="path3035" />
      <path
         d="m 259.83008,601.02148 -1.25977,0 c 1.94661,-3.125 2.91992,-6.25325 2.91992,-9.38476 0,-1.22395 -0.13997,-2.43814 -0.41992,-3.64258 -0.22136,-0.97655 -0.5306,-1.91405 -0.92773,-2.8125 -0.25391,-0.58592 -0.778,-1.56249 -1.57227,-2.92969 l 1.25977,0 c 1.22395,1.63413 2.1289,3.27475 2.71484,4.92188 0.5013,1.41928 0.75195,2.90365 0.75195,4.45312 0,1.75782 -0.33691,3.45704 -1.01074,5.09766 -0.67383,1.64062 -1.49251,3.07291 -2.45605,4.29687 z"
         style="font-size:20px;text-align:center;text-anchor:middle"
         id="path3037" />
    </g>
  </g>
</svg>
