<?xml version="1.0" encoding="UTF-8" standalone="no"?>
<svg
   xmlns:dc="http://purl.org/dc/elements/1.1/"
   xmlns:cc="http://creativecommons.org/ns#"
   xmlns:rdf="http://www.w3.org/1999/02/22-rdf-syntax-ns#"
   xmlns:svg="http://www.w3.org/2000/svg"
   xmlns="http://www.w3.org/2000/svg"
   xmlns:sodipodi="http://sodipodi.sourceforge.net/DTD/sodipodi-0.dtd"
   xmlns:inkscape="http://www.inkscape.org/namespaces/inkscape"
   id="svg2"
   height="200"
   width="900"
   version="1.2"
   inkscape:version="0.48.1 "
   sodipodi:docname="net_basic_tcppacket.svg">
  <sodipodi:namedview
     pagecolor="#ffffff"
     bordercolor="#666666"
     borderopacity="1"
     objecttolerance="10"
     gridtolerance="10"
     guidetolerance="10"
     inkscape:pageopacity="0"
     inkscape:pageshadow="2"
     inkscape:window-width="1920"
     inkscape:window-height="1033"
     id="namedview117"
     showgrid="false"
     inkscape:zoom="1.3"
     inkscape:cx="539.75219"
     inkscape:cy="100"
     inkscape:window-x="-4"
     inkscape:window-y="-4"
     inkscape:window-maximized="1"
     inkscape:current-layer="g3222" />
  <defs
     id="defs4" />
  <metadata
     id="metadata7">
    <rdf:RDF>
      <cc:Work
         rdf:about="">
        <dc:format>image/svg+xml</dc:format>
        <dc:type
           rdf:resource="http://purl.org/dc/dcmitype/StillImage" />
        <dc:title />
      </cc:Work>
    </rdf:RDF>
  </metadata>
  <g
     id="g3222"
     transform="translate(601,-466.8125)">
    <rect
       style="fill:#02d35f;fill-opacity:1;fill-rule:nonzero;stroke:none"
       id="rect4438"
       y="486.8125"
       x="-581"
       ry="10"
       rx="10"
       height="160"
       width="860" />
    <rect
       style="color:#000000;fill:#71d6e0;fill-opacity:1;fill-rule:nonzero;stroke:#ffffff;stroke-width:0;stroke-miterlimit:4;stroke-opacity:1;stroke-dasharray:none;marker:none;visibility:visible;display:inline;overflow:visible;enable-background:accumulate"
       id="rect6978-9-64-0-1-5-7"
       y="486.8125"
       x="-481"
       height="160"
       width="130" />
    <rect
       style="color:#000000;fill:#ffef8d;fill-opacity:1;fill-rule:nonzero;stroke:#ffffff;stroke-width:0;stroke-miterlimit:4;stroke-opacity:1;stroke-dasharray:none;marker:none;visibility:visible;display:inline;overflow:visible;enable-background:accumulate"
       id="rect6978-9-64-0-1-5-7-5"
       y="486.8125"
       x="-351"
       ry="0"
       height="160"
       width="130.00003" />
    <rect
       style="color:#000000;fill:#dcddde;fill-opacity:1;fill-rule:nonzero;stroke:#ffffff;stroke-width:0;stroke-miterlimit:4;stroke-opacity:1;stroke-dasharray:none;marker:none;visibility:visible;display:inline;overflow:visible;enable-background:accumulate"
       id="rect6978-9-64-0-1-5-7-5-2"
       y="486.8125"
       x="-221"
       height="160"
       width="399.99982" />
    <g
       style="font-size:22px;font-style:normal;font-weight:normal;text-align:center;line-height:125%;letter-spacing:0px;word-spacing:0px;text-anchor:middle;fill:#000000;fill-opacity:1;stroke:none;font-family:Sans"
       id="text3094">
      <path
         d="m -566.93774,546.85114 0,-12.88477 9.3164,0 0,1.52051 -7.61133,0 0,3.94629 7.12793,0 0,1.51172 -7.12793,0 0,4.38574 7.91016,0 0,1.52051 z"
         style="font-size:18px"
         id="path3154" />
      <path
         d="m -551.69751,545.4361 0.22852,1.39746 c -0.44532,0.0937 -0.84376,0.14062 -1.19532,0.14062 -0.57422,0 -1.01953,-0.0908 -1.33593,-0.27246 -0.31641,-0.18164 -0.53907,-0.42041 -0.66797,-0.71631 -0.12891,-0.29589 -0.19336,-0.91845 -0.19336,-1.86767 l 0,-5.37012 -1.16016,0 0,-1.23047 1.16016,0 0,-2.31152 1.57324,-0.94922 0,3.26074 1.59082,0 0,1.23047 -1.59082,0 0,5.45801 c 0,0.45117 0.0278,0.74121 0.0835,0.87011 0.0557,0.12891 0.14648,0.23145 0.27246,0.30762 0.12597,0.0762 0.30615,0.11426 0.54052,0.11426 0.17578,0 0.40723,-0.0205 0.69434,-0.0615 z"
         style="font-size:18px"
         id="path3156" />
      <path
         d="m -550.15942,546.85114 0,-12.88477 1.58203,0 0,4.62305 c 0.73828,-0.85546 1.66991,-1.2832 2.79492,-1.28321 0.6914,1e-5 1.29198,0.13624 1.80176,0.40869 0.50975,0.27247 0.8745,0.64894 1.09424,1.1294 0.21971,0.48048 0.32958,1.17774 0.32959,2.0918 l 0,5.91504 -1.58204,0 0,-5.91504 c 0,-0.79101 -0.17139,-1.3667 -0.51416,-1.72705 -0.34278,-0.36035 -0.82764,-0.54052 -1.45459,-0.54053 -0.46875,1e-5 -0.90967,0.12159 -1.32275,0.36474 -0.41309,0.24318 -0.70752,0.57277 -0.8833,0.98877 -0.17578,0.41603 -0.26368,0.99024 -0.26367,1.72266 l 0,5.10645 z"
         style="font-size:18px"
         id="path3158" />
      <path
         d="m -533.75024,543.84528 1.63476,0.20214 c -0.25782,0.95508 -0.73536,1.69629 -1.43262,2.22364 -0.69727,0.52734 -1.58789,0.79101 -2.67187,0.79101 -1.36524,0 -2.44776,-0.42041 -3.24756,-1.26123 -0.79981,-0.84082 -1.19971,-2.02001 -1.19971,-3.5376 0,-1.5703 0.4043,-2.78905 1.21289,-3.65625 0.8086,-0.86717 1.85742,-1.30077 3.14649,-1.30078 1.24804,1e-5 2.26757,0.42482 3.05859,1.27442 0.79101,0.84961 1.18652,2.04493 1.18653,3.58593 -1e-5,0.0938 -0.003,0.23438 -0.009,0.42188 l -6.96094,0 c 0.0586,1.02539 0.34863,1.81055 0.87012,2.35547 0.52148,0.54492 1.17187,0.81738 1.95117,0.81738 0.58007,0 1.07519,-0.15234 1.48535,-0.45703 0.41015,-0.30469 0.73534,-0.79101 0.97559,-1.45898 z m -5.19434,-2.55762 5.21191,0 c -0.0703,-0.78515 -0.26953,-1.37402 -0.59765,-1.7666 -0.50392,-0.60937 -1.15723,-0.91406 -1.95996,-0.91407 -0.72657,10e-6 -1.33741,0.24318 -1.83252,0.7295 -0.49512,0.48633 -0.76905,1.13672 -0.82178,1.95117 z"
         style="font-size:18px"
         id="path3160" />
      <path
         d="m -530.13794,546.85114 0,-9.33399 1.42383,0 0,1.41504 c 0.36328,-0.6621 0.69873,-1.09862 1.00635,-1.30957 0.30761,-0.21093 0.64599,-0.3164 1.01513,-0.31641 0.5332,1e-5 1.07519,0.16993 1.62598,0.50977 l -0.54492,1.46777 c -0.38673,-0.22851 -0.77344,-0.34276 -1.16016,-0.34277 -0.34571,1e-5 -0.65625,0.10401 -0.93164,0.31201 -0.27539,0.20802 -0.47168,0.49659 -0.58887,0.86572 -0.17578,0.56251 -0.26367,1.17774 -0.26367,1.84571 l 0,4.88672 z"
         style="font-size:18px"
         id="path3162" />
      <path
         d="m -524.10864,546.85114 0,-9.33399 1.42383,0 0,1.32715 c 0.68554,-1.02538 1.67577,-1.53808 2.9707,-1.53809 0.56249,1e-5 1.07958,0.10109 1.55127,0.30323 0.47167,0.20215 0.8247,0.46729 1.05908,0.79541 0.23437,0.32813 0.39843,0.71778 0.49219,1.16894 0.0586,0.29298 0.0879,0.80567 0.0879,1.53809 l 0,5.73926 -1.58203,0 0,-5.67774 c -10e-6,-0.64452 -0.0615,-1.12646 -0.18457,-1.4458 -0.12306,-0.31933 -0.34132,-0.57421 -0.65479,-0.76465 -0.31348,-0.19042 -0.68116,-0.28563 -1.10303,-0.28564 -0.67383,10e-6 -1.25537,0.21387 -1.74462,0.6416 -0.48927,0.42774 -0.73389,1.23926 -0.73389,2.43457 l 0,5.09766 z"
         style="font-size:18px"
         id="path3164" />
      <path
         d="m -507.69946,543.84528 1.63476,0.20214 c -0.25782,0.95508 -0.73536,1.69629 -1.43261,2.22364 -0.69728,0.52734 -1.5879,0.79101 -2.67188,0.79101 -1.36524,0 -2.44776,-0.42041 -3.24756,-1.26123 -0.7998,-0.84082 -1.19971,-2.02001 -1.19971,-3.5376 0,-1.5703 0.4043,-2.78905 1.2129,-3.65625 0.80859,-0.86717 1.85741,-1.30077 3.14648,-1.30078 1.24804,1e-5 2.26757,0.42482 3.05859,1.27442 0.79101,0.84961 1.18652,2.04493 1.18653,3.58593 -1e-5,0.0938 -0.003,0.23438 -0.009,0.42188 l -6.96094,0 c 0.0586,1.02539 0.34863,1.81055 0.87012,2.35547 0.52148,0.54492 1.17187,0.81738 1.95117,0.81738 0.58007,0 1.07519,-0.15234 1.48535,-0.45703 0.41015,-0.30469 0.73535,-0.79101 0.97559,-1.45898 z m -5.19434,-2.55762 5.21192,0 c -0.0703,-0.78515 -0.26954,-1.37402 -0.59766,-1.7666 -0.50391,-0.60937 -1.15723,-0.91406 -1.95996,-0.91407 -0.72657,10e-6 -1.33741,0.24318 -1.83252,0.7295 -0.49512,0.48633 -0.76905,1.13672 -0.82178,1.95117 z"
         style="font-size:18px"
         id="path3166" />
      <path
         d="m -500.61548,545.4361 0.22852,1.39746 c -0.44532,0.0937 -0.84376,0.14062 -1.19532,0.14062 -0.57422,0 -1.01953,-0.0908 -1.33593,-0.27246 -0.31641,-0.18164 -0.53907,-0.42041 -0.66797,-0.71631 -0.12891,-0.29589 -0.19336,-0.91845 -0.19336,-1.86767 l 0,-5.37012 -1.16016,0 0,-1.23047 1.16016,0 0,-2.31152 1.57324,-0.94922 0,3.26074 1.59082,0 0,1.23047 -1.59082,0 0,5.45801 c 0,0.45117 0.0278,0.74121 0.0835,0.87011 0.0557,0.12891 0.14648,0.23145 0.27246,0.30762 0.12597,0.0762 0.30615,0.11426 0.54053,0.11426 0.17577,0 0.40722,-0.0205 0.69433,-0.0615 z"
         style="font-size:18px"
         id="path3168" />
      <path
         d="m -499.69263,542.98395 0,-1.59082 4.86035,0 0,1.59082 z"
         style="font-size:18px"
         id="path3170" />
      <path
         d="m -559.41431,569.35114 0,-12.88477 1.70508,0 0,5.29102 6.69727,0 0,-5.29102 1.70508,0 0,12.88477 -1.70508,0 0,-6.07325 -6.69727,0 0,6.07325 z"
         style="font-size:18px"
         id="path3172" />
      <path
         d="m -540.27173,566.34528 1.63477,0.20214 c -0.25782,0.95508 -0.73536,1.69629 -1.43262,2.22364 -0.69727,0.52734 -1.5879,0.79101 -2.67188,0.79101 -1.36523,0 -2.44775,-0.42041 -3.24755,-1.26123 -0.79981,-0.84082 -1.19971,-2.02001 -1.19971,-3.5376 0,-1.5703 0.4043,-2.78905 1.21289,-3.65625 0.80859,-0.86717 1.85742,-1.30077 3.14648,-1.30078 1.24804,1e-5 2.26758,0.42482 3.0586,1.27442 0.791,0.84961 1.18651,2.04493 1.18652,3.58593 -10e-6,0.0938 -0.003,0.23438 -0.009,0.42188 l -6.96094,0 c 0.0586,1.02539 0.34864,1.81055 0.87012,2.35547 0.52148,0.54492 1.17187,0.81738 1.95117,0.81738 0.58008,0 1.07519,-0.15234 1.48536,-0.45703 0.41014,-0.30469 0.73534,-0.79101 0.97558,-1.45898 z m -5.19433,-2.55762 5.21191,0 c -0.0703,-0.78515 -0.26954,-1.37402 -0.59766,-1.7666 -0.50391,-0.60937 -1.15723,-0.91406 -1.95996,-0.91407 -0.72656,10e-6 -1.3374,0.24318 -1.83252,0.7295 -0.49512,0.48633 -0.76904,1.13672 -0.82177,1.95117 z"
         style="font-size:18px"
         id="path3174" />
      <path
         d="m -530.55103,568.19977 c -0.58594,0.49805 -1.1499,0.84961 -1.69189,1.05469 -0.542,0.20507 -1.12354,0.30761 -1.74463,0.30761 -1.02539,0 -1.81348,-0.25049 -2.36426,-0.75146 -0.55078,-0.50098 -0.82617,-1.14111 -0.82617,-1.92041 0,-0.45703 0.104,-0.87451 0.31201,-1.25244 0.20801,-0.37793 0.48047,-0.68115 0.81739,-0.90967 0.33691,-0.22851 0.7163,-0.40136 1.13818,-0.51856 0.31054,-0.082 0.77929,-0.16112 1.40625,-0.2373 1.27734,-0.15234 2.21777,-0.33398 2.82129,-0.54492 0.006,-0.21679 0.009,-0.35449 0.009,-0.41309 -10e-6,-0.64452 -0.14942,-1.09862 -0.44824,-1.3623 -0.40431,-0.35742 -1.00489,-0.53613 -1.80176,-0.53614 -0.74415,10e-6 -1.29346,0.13038 -1.64795,0.39112 -0.3545,0.26075 -0.6167,0.72217 -0.78662,1.38427 l -1.54688,-0.21093 c 0.14063,-0.66211 0.37207,-1.19677 0.69434,-1.60401 0.32226,-0.40721 0.78808,-0.72069 1.39746,-0.94043 0.60937,-0.21971 1.31542,-0.32958 2.11816,-0.32959 0.79687,1e-5 1.44433,0.0938 1.94239,0.28125 0.49804,0.18751 0.86425,0.42335 1.09863,0.70752 0.23437,0.28419 0.39843,0.64308 0.49219,1.07666 0.0527,0.26954 0.0791,0.75587 0.0791,1.45899 l 0,2.10937 c -10e-6,1.47071 0.0337,2.40088 0.10107,2.79053 0.0674,0.38965 0.20068,0.76318 0.3999,1.12061 l -1.65234,0 c -0.16407,-0.32813 -0.26954,-0.71192 -0.31641,-1.15137 z m -0.13183,-3.53321 c -0.57423,0.23438 -1.43555,0.4336 -2.58399,0.59766 -0.65039,0.0938 -1.11035,0.19922 -1.37988,0.31641 -0.26953,0.11719 -0.47754,0.28858 -0.62402,0.51416 -0.14649,0.22559 -0.21973,0.47607 -0.21973,0.75146 0,0.42188 0.15967,0.77344 0.47901,1.05469 0.31933,0.28125 0.78661,0.42188 1.40185,0.42187 0.60937,10e-6 1.15136,-0.13329 1.62598,-0.3999 0.4746,-0.2666 0.82323,-0.63134 1.0459,-1.09424 0.16991,-0.35741 0.25487,-0.88476 0.25488,-1.58203 z"
         style="font-size:18px"
         id="path3176" />
      <path
         d="m -520.56665,569.35114 0,-1.17774 c -0.5918,0.92578 -1.46192,1.38867 -2.61035,1.38867 -0.74415,0 -1.42823,-0.20508 -2.05225,-0.61523 -0.62402,-0.41016 -1.10742,-0.98291 -1.45019,-1.71826 -0.34278,-0.73535 -0.51416,-1.58057 -0.51416,-2.53565 0,-0.93163 0.15527,-1.77685 0.46582,-2.53564 0.31054,-0.75878 0.77636,-1.34033 1.39746,-1.74463 0.62109,-0.40429 1.31542,-0.60644 2.08301,-0.60645 0.56249,1e-5 1.06347,0.11867 1.50293,0.35596 0.43944,0.23731 0.79686,0.5464 1.07226,0.92725 l 0,-4.62305 1.57324,0 0,12.88477 z m -5.00098,-4.65821 c 0,1.19532 0.25195,2.08887 0.75586,2.68067 0.50391,0.59179 1.09863,0.88769 1.78418,0.88769 0.6914,0 1.2788,-0.28271 1.76221,-0.84814 0.48339,-0.56543 0.72509,-1.42822 0.7251,-2.58838 -10e-6,-1.27734 -0.2461,-2.21484 -0.73828,-2.8125 -0.4922,-0.59765 -1.09864,-0.89648 -1.81934,-0.89649 -0.70313,10e-6 -1.29053,0.28712 -1.76221,0.86133 -0.47168,0.57423 -0.70752,1.4795 -0.70752,2.71582 z"
         style="font-size:18px"
         id="path3178" />
      <path
         d="m -510.21313,566.34528 1.63476,0.20214 c -0.25782,0.95508 -0.73536,1.69629 -1.43262,2.22364 -0.69727,0.52734 -1.58789,0.79101 -2.67187,0.79101 -1.36524,0 -2.44776,-0.42041 -3.24756,-1.26123 -0.79981,-0.84082 -1.19971,-2.02001 -1.19971,-3.5376 0,-1.5703 0.4043,-2.78905 1.21289,-3.65625 0.80859,-0.86717 1.85742,-1.30077 3.14649,-1.30078 1.24804,1e-5 2.26757,0.42482 3.05859,1.27442 0.79101,0.84961 1.18652,2.04493 1.18653,3.58593 -1e-5,0.0938 -0.003,0.23438 -0.009,0.42188 l -6.96094,0 c 0.0586,1.02539 0.34863,1.81055 0.87012,2.35547 0.52148,0.54492 1.17187,0.81738 1.95117,0.81738 0.58007,0 1.07519,-0.15234 1.48535,-0.45703 0.41015,-0.30469 0.73534,-0.79101 0.97559,-1.45898 z m -5.19434,-2.55762 5.21191,0 c -0.0703,-0.78515 -0.26954,-1.37402 -0.59765,-1.7666 -0.50392,-0.60937 -1.15724,-0.91406 -1.95996,-0.91407 -0.72657,10e-6 -1.33741,0.24318 -1.83252,0.7295 -0.49512,0.48633 -0.76905,1.13672 -0.82178,1.95117 z"
         style="font-size:18px"
         id="path3180" />
      <path
         d="m -506.60083,569.35114 0,-9.33399 1.42383,0 0,1.41504 c 0.36328,-0.6621 0.69873,-1.09862 1.00635,-1.30957 0.30761,-0.21093 0.64599,-0.3164 1.01513,-0.31641 0.5332,1e-5 1.07519,0.16993 1.62598,0.50977 l -0.54492,1.46777 c -0.38673,-0.22851 -0.77345,-0.34276 -1.16016,-0.34277 -0.34571,1e-5 -0.65625,0.10401 -0.93164,0.31201 -0.27539,0.20802 -0.47168,0.49659 -0.58887,0.86572 -0.17578,0.56251 -0.26367,1.17774 -0.26367,1.84571 l 0,4.88672 z"
         style="font-size:18px"
         id="path3182" />
      <path
         d="m -563.64185,595.63922 c -0.87305,-1.10156 -1.61133,-2.39063 -2.21484,-3.86719 -0.60352,-1.47656 -0.90527,-3.00585 -0.90527,-4.58789 0,-1.39452 0.22558,-2.73046 0.67675,-4.00781 0.52735,-1.48241 1.3418,-2.95897 2.44336,-4.42969 l 1.13379,0 c -0.70899,1.21876 -1.17774,2.08888 -1.40625,2.61035 -0.35742,0.80861 -0.63867,1.65236 -0.84375,2.53125 -0.25195,1.09571 -0.37793,2.19728 -0.37793,3.30469 0,2.81836 0.87598,5.63379 2.62793,8.44629 z"
         style="font-size:18px"
         id="path3184" />
      <path
         d="m -555.13403,591.85114 -1.58203,0 0,-10.08106 c -0.38087,0.36329 -0.88038,0.72657 -1.49854,1.08984 -0.61817,0.36329 -1.17334,0.63575 -1.66553,0.81739 l 0,-1.5293 c 0.88477,-0.41601 1.6582,-0.91991 2.32032,-1.51172 0.6621,-0.59178 1.13085,-1.166 1.40625,-1.72265 l 1.01953,0 z"
         style="font-size:18px"
         id="path3186" />
      <path
         d="m -546.0022,591.85114 0,-3.08497 -5.58984,0 0,-1.45019 5.87988,-8.34961 1.29199,0 0,8.34961 1.74024,0 0,1.45019 -1.74024,0 0,3.08497 z m 0,-4.53516 0,-5.80957 -4.03418,5.80957 z"
         style="font-size:18px"
         id="path3188" />
      <path
         d="m -535.49048,591.85114 0,-12.88477 4.83399,0 c 0.98436,10e-6 1.77391,0.13038 2.36865,0.39111 0.59472,0.26076 1.06054,0.66212 1.39746,1.2041 0.3369,0.54201 0.50536,1.1089 0.50537,1.70069 -1e-5,0.55079 -0.14942,1.06934 -0.44824,1.55566 -0.29884,0.48634 -0.75001,0.87892 -1.35352,1.17774 0.77929,0.22852 1.37841,0.61817 1.79737,1.16894 0.41893,0.55079 0.6284,1.20118 0.62841,1.95117 -10e-6,0.60352 -0.12745,1.16456 -0.38232,1.68311 -0.25489,0.51856 -0.56983,0.91846 -0.94482,1.19971 -0.37501,0.28125 -0.84523,0.49365 -1.41065,0.6372 -0.56544,0.14356 -1.25831,0.21534 -2.07861,0.21534 z m 1.70508,-7.47071 2.78613,0 c 0.75586,10e-6 1.29785,-0.0498 1.62598,-0.14941 0.43358,-0.1289 0.76024,-0.34277 0.97998,-0.6416 0.21972,-0.29882 0.32958,-0.67382 0.32959,-1.125 -10e-6,-0.42773 -0.10255,-0.80419 -0.30762,-1.1294 -0.20508,-0.32518 -0.49805,-0.54784 -0.8789,-0.66797 -0.38087,-0.1201 -1.03419,-0.18016 -1.95997,-0.18017 l -2.57519,0 z m 0,5.9502 3.20801,0 c 0.55077,0 0.93749,-0.0205 1.16015,-0.0615 0.39257,-0.0703 0.7207,-0.18749 0.98438,-0.35156 0.26366,-0.16406 0.48046,-0.40283 0.65039,-0.71631 0.16991,-0.31347 0.25487,-0.67529 0.25488,-1.08545 -10e-6,-0.48046 -0.12305,-0.89794 -0.36914,-1.25244 -0.2461,-0.35448 -0.58741,-0.60351 -1.02392,-0.74707 -0.43654,-0.14355 -1.06495,-0.21532 -1.88526,-0.21533 l -2.97949,0 z"
         style="font-size:18px"
         id="path3190" />
      <path
         d="m -523.66919,595.44586 -0.17578,-1.48535 c 0.3457,0.0937 0.64746,0.14062 0.90527,0.14063 0.35156,-10e-6 0.63281,-0.0586 0.84375,-0.17579 0.21094,-0.11719 0.38379,-0.28125 0.51856,-0.49218 0.0996,-0.15821 0.26074,-0.55079 0.4834,-1.17774 0.0293,-0.0879 0.0762,-0.21679 0.14062,-0.38672 l -3.54199,-9.35156 1.70508,0 1.94238,5.40527 c 0.25195,0.68555 0.47753,1.40626 0.67676,2.16211 0.18163,-0.72656 0.39843,-1.43554 0.65039,-2.12695 l 1.99512,-5.44043 1.58203,0 -3.55078,9.49219 c -0.38087,1.02539 -0.67677,1.73144 -0.8877,2.11816 -0.28125,0.52148 -0.60352,0.90381 -0.9668,1.14698 -0.36328,0.24316 -0.79687,0.36474 -1.30078,0.36474 -0.30469,0 -0.64453,-0.0645 -1.01953,-0.19336 z"
         style="font-size:18px"
         id="path3192" />
      <path
         d="m -511.14478,590.4361 0.22852,1.39746 c -0.44532,0.0937 -0.84375,0.14062 -1.19531,0.14062 -0.57422,0 -1.01954,-0.0908 -1.33594,-0.27246 -0.31641,-0.18164 -0.53906,-0.42041 -0.66797,-0.71631 -0.12891,-0.29589 -0.19336,-0.91845 -0.19336,-1.86767 l 0,-5.37012 -1.16015,0 0,-1.23047 1.16015,0 0,-2.31152 1.57324,-0.94922 0,3.26074 1.59082,0 0,1.23047 -1.59082,0 0,5.45801 c 0,0.45117 0.0278,0.74121 0.0835,0.87011 0.0557,0.12891 0.14648,0.23145 0.27246,0.30762 0.12597,0.0762 0.30615,0.11426 0.54053,0.11426 0.17578,0 0.40722,-0.0205 0.69433,-0.0615 z"
         style="font-size:18px"
         id="path3194" />
      <path
         d="m -503.21704,588.84528 1.63476,0.20214 c -0.25782,0.95508 -0.73536,1.69629 -1.43261,2.22364 -0.69728,0.52734 -1.5879,0.79101 -2.67188,0.79101 -1.36524,0 -2.44775,-0.42041 -3.24756,-1.26123 -0.7998,-0.84082 -1.1997,-2.02001 -1.1997,-3.5376 0,-1.5703 0.40429,-2.78905 1.21289,-3.65625 0.80859,-0.86717 1.85742,-1.30077 3.14648,-1.30078 1.24804,1e-5 2.26757,0.42482 3.0586,1.27442 0.791,0.84961 1.18651,2.04493 1.18652,3.58593 -10e-6,0.0938 -0.003,0.23438 -0.009,0.42188 l -6.96094,0 c 0.0586,1.02539 0.34863,1.81055 0.87012,2.35547 0.52148,0.54492 1.17187,0.81738 1.95117,0.81738 0.58007,0 1.07519,-0.15234 1.48535,-0.45703 0.41015,-0.30469 0.73535,-0.79101 0.97559,-1.45898 z m -5.19434,-2.55762 5.21192,0 c -0.0703,-0.78515 -0.26954,-1.37402 -0.59766,-1.7666 -0.50391,-0.60937 -1.15723,-0.91406 -1.95996,-0.91407 -0.72657,10e-6 -1.33741,0.24318 -1.83252,0.7295 -0.49512,0.48633 -0.76905,1.13672 -0.82178,1.95117 z"
         style="font-size:18px"
         id="path3196" />
      <path
         d="m -498.55005,595.63922 -1.13379,0 c 1.75195,-2.8125 2.62793,-5.62793 2.62793,-8.44629 0,-1.10155 -0.12598,-2.19433 -0.37793,-3.27832 -0.19922,-0.8789 -0.47754,-1.72264 -0.83496,-2.53125 -0.22852,-0.52733 -0.7002,-1.40624 -1.41504,-2.63672 l 1.13379,0 c 1.10156,1.47072 1.91601,2.94728 2.44336,4.42969 0.45117,1.27735 0.67675,2.61329 0.67676,4.00781 -10e-6,1.58204 -0.30323,3.11133 -0.90967,4.58789 -0.60645,1.47656 -1.34326,2.76563 -2.21045,3.86719 z"
         style="font-size:18px"
         id="path3198" />
    </g>
    <g
       style="font-size:22px;font-style:normal;font-weight:normal;text-align:center;line-height:125%;letter-spacing:0px;word-spacing:0px;text-anchor:middle;fill:#000000;fill-opacity:1;stroke:none;font-family:Sans"
       id="text3094-1">
      <path
         d="m -458.10742,560.00427 0,-12.88476 1.70508,0 0,12.88476 z"
         style="font-size:18px"
         id="path3119" />
      <path
         d="m -453.40527,560.00427 0,-12.88476 4.86035,0 c 0.85546,10e-6 1.50878,0.041 1.95996,0.12304 0.6328,0.10549 1.16308,0.30617 1.59082,0.60205 0.42772,0.29591 0.77196,0.71047 1.03271,1.24366 0.26074,0.53321 0.39111,1.11915 0.39112,1.75781 -10e-6,1.09571 -0.34865,2.02296 -1.0459,2.78174 -0.69728,0.75879 -1.95704,1.13819 -3.7793,1.13818 l -3.30469,0 0,5.23828 z m 1.70507,-6.75879 3.33106,0 c 1.10155,10e-6 1.88378,-0.20507 2.34668,-0.61523 0.46288,-0.41015 0.69433,-0.9873 0.69434,-1.73145 -10e-6,-0.53905 -0.13624,-1.00047 -0.4087,-1.38427 -0.27247,-0.38378 -0.63135,-0.6372 -1.07666,-0.76026 -0.28711,-0.0762 -0.81739,-0.11424 -1.59082,-0.11426 l -3.2959,0 z"
         style="font-size:18px"
         id="path3121" />
      <path
         d="m -442.19922,556.13708 0,-1.59082 4.86035,0 0,1.59082 z"
         style="font-size:18px"
         id="path3123" />
      <path
         d="m -435.31738,560.00427 0,-12.88476 1.70508,0 0,5.29101 6.69726,0 0,-5.29101 1.70508,0 0,12.88476 -1.70508,0 0,-6.07324 -6.69726,0 0,6.07324 z"
         style="font-size:18px"
         id="path3125" />
      <path
         d="m -416.1748,556.99841 1.63476,0.20215 c -0.25782,0.95508 -0.73536,1.69629 -1.43262,2.22363 -0.69727,0.52735 -1.58789,0.79102 -2.67187,0.79102 -1.36524,0 -2.44776,-0.42041 -3.24756,-1.26123 -0.79981,-0.84082 -1.19971,-2.02002 -1.19971,-3.5376 0,-1.5703 0.4043,-2.78905 1.21289,-3.65625 0.80859,-0.86718 1.85742,-1.30077 3.14649,-1.30078 1.24804,10e-6 2.26757,0.42481 3.05859,1.27441 0.79101,0.84962 1.18652,2.04493 1.18653,3.58594 -10e-6,0.0938 -0.003,0.23438 -0.009,0.42188 l -6.96094,0 c 0.0586,1.02539 0.34863,1.81055 0.87012,2.35547 0.52148,0.54492 1.17187,0.81738 1.95117,0.81738 0.58007,0 1.07519,-0.15234 1.48535,-0.45703 0.41015,-0.30469 0.73534,-0.79102 0.97559,-1.45899 z m -5.19434,-2.55761 5.21191,0 c -0.0703,-0.78515 -0.26954,-1.37402 -0.59765,-1.76661 -0.50392,-0.60936 -1.15724,-0.91405 -1.95996,-0.91406 -0.72657,10e-6 -1.33741,0.24317 -1.83252,0.72949 -0.49512,0.48634 -0.76905,1.13673 -0.82178,1.95118 z"
         style="font-size:18px"
         id="path3127" />
      <path
         d="m -406.4541,558.85291 c -0.58595,0.49804 -1.14991,0.8496 -1.6919,1.05468 -0.54199,0.20508 -1.12354,0.30762 -1.74462,0.30762 -1.0254,0 -1.81348,-0.25049 -2.36426,-0.75146 -0.55078,-0.50098 -0.82618,-1.14112 -0.82617,-1.92042 -10e-6,-0.45702 0.104,-0.8745 0.31201,-1.25244 0.208,-0.37792 0.48046,-0.68114 0.81738,-0.90966 0.33691,-0.22852 0.71631,-0.40137 1.13818,-0.51856 0.31055,-0.082 0.7793,-0.16113 1.40625,-0.2373 1.27734,-0.15234 2.21777,-0.33398 2.82129,-0.54493 0.006,-0.21679 0.009,-0.35448 0.009,-0.41308 -10e-6,-0.64453 -0.14942,-1.09863 -0.44824,-1.36231 -0.4043,-0.35741 -1.00489,-0.53612 -1.80176,-0.53613 -0.74414,10e-6 -1.29346,0.13038 -1.64795,0.39111 -0.35449,0.26075 -0.6167,0.72218 -0.78662,1.38428 l -1.54687,-0.21094 c 0.14062,-0.6621 0.37207,-1.19677 0.69433,-1.604 0.32227,-0.40722 0.78809,-0.72069 1.39746,-0.94043 0.60937,-0.21972 1.31543,-0.32958 2.11817,-0.32959 0.79687,10e-6 1.44433,0.0938 1.94238,0.28125 0.49804,0.18751 0.86425,0.42335 1.09863,0.70752 0.23437,0.28419 0.39843,0.64307 0.49219,1.07666 0.0527,0.26954 0.0791,0.75587 0.0791,1.45898 l 0,2.10938 c -10e-6,1.47071 0.0337,2.40088 0.10108,2.79053 0.0674,0.38965 0.20067,0.76318 0.3999,1.1206 l -1.65235,0 c -0.16407,-0.32812 -0.26953,-0.71191 -0.3164,-1.15136 z m -0.13184,-3.53321 c -0.57422,0.23438 -1.43555,0.4336 -2.58398,0.59766 -0.6504,0.0937 -1.11036,0.19922 -1.37988,0.3164 -0.26954,0.1172 -0.47755,0.28858 -0.62403,0.51416 -0.14648,0.22559 -0.21973,0.47608 -0.21972,0.75147 -10e-6,0.42188 0.15966,0.77344 0.479,1.05469 0.31933,0.28125 0.78662,0.42187 1.40185,0.42187 0.60937,0 1.15137,-0.1333 1.62598,-0.3999 0.4746,-0.2666 0.82324,-0.63135 1.0459,-1.09424 0.16991,-0.35742 0.25488,-0.88476 0.25488,-1.58203 z"
         style="font-size:18px"
         id="path3129" />
      <path
         d="m -396.46973,560.00427 0,-1.17773 c -0.5918,0.92578 -1.46192,1.38867 -2.61035,1.38867 -0.74414,0 -1.42822,-0.20508 -2.05224,-0.61523 -0.62403,-0.41016 -1.10743,-0.98291 -1.4502,-1.71827 -0.34277,-0.73534 -0.51416,-1.58056 -0.51416,-2.53564 0,-0.93164 0.15527,-1.77685 0.46582,-2.53565 0.31055,-0.75878 0.77637,-1.34032 1.39746,-1.74462 0.62109,-0.40429 1.31543,-0.60644 2.08301,-0.60645 0.56249,10e-6 1.06347,0.11866 1.50293,0.35596 0.43945,0.23731 0.79687,0.54639 1.07226,0.92724 l 0,-4.62304 1.57325,0 0,12.88476 z m -5.00097,-4.6582 c -10e-6,1.19532 0.25195,2.08887 0.75586,2.68066 0.5039,0.5918 1.09862,0.8877 1.78418,0.8877 0.6914,0 1.2788,-0.28271 1.7622,-0.84815 0.48339,-0.56542 0.72509,-1.42822 0.7251,-2.58837 -1e-5,-1.27734 -0.2461,-2.21484 -0.73828,-2.8125 -0.49219,-0.59765 -1.09864,-0.89648 -1.81934,-0.89649 -0.70313,10e-6 -1.29053,0.28712 -1.7622,0.86133 -0.47169,0.57422 -0.70753,1.4795 -0.70752,2.71582 z"
         style="font-size:18px"
         id="path3131" />
      <path
         d="m -386.11621,556.99841 1.63476,0.20215 c -0.25782,0.95508 -0.73536,1.69629 -1.43261,2.22363 -0.69728,0.52735 -1.5879,0.79102 -2.67188,0.79102 -1.36524,0 -2.44775,-0.42041 -3.24756,-1.26123 -0.7998,-0.84082 -1.1997,-2.02002 -1.1997,-3.5376 0,-1.5703 0.40429,-2.78905 1.21289,-3.65625 0.80859,-0.86718 1.85742,-1.30077 3.14648,-1.30078 1.24804,10e-6 2.26757,0.42481 3.0586,1.27441 0.791,0.84962 1.18651,2.04493 1.18652,3.58594 -10e-6,0.0938 -0.003,0.23438 -0.009,0.42188 l -6.96094,0 c 0.0586,1.02539 0.34863,1.81055 0.87012,2.35547 0.52148,0.54492 1.17187,0.81738 1.95117,0.81738 0.58007,0 1.07519,-0.15234 1.48535,-0.45703 0.41015,-0.30469 0.73535,-0.79102 0.97559,-1.45899 z m -5.19434,-2.55761 5.21192,0 c -0.0703,-0.78515 -0.26954,-1.37402 -0.59766,-1.76661 -0.50391,-0.60936 -1.15723,-0.91405 -1.95996,-0.91406 -0.72657,10e-6 -1.33741,0.24317 -1.83252,0.72949 -0.49512,0.48634 -0.76904,1.13673 -0.82178,1.95118 z"
         style="font-size:18px"
         id="path3133" />
      <path
         d="m -382.50391,560.00427 0,-9.33398 1.42383,0 0,1.41504 c 0.36328,-0.6621 0.69873,-1.09863 1.00635,-1.30957 0.30761,-0.21093 0.64599,-0.3164 1.01514,-0.31641 0.53319,10e-6 1.07519,0.16993 1.62597,0.50977 l -0.54492,1.46777 c -0.38672,-0.22851 -0.77344,-0.34277 -1.16016,-0.34277 -0.3457,0 -0.65625,0.10401 -0.93164,0.31201 -0.27539,0.20801 -0.47168,0.49659 -0.58886,0.86572 -0.17579,0.56251 -0.26368,1.17774 -0.26367,1.8457 l 0,4.88672 z"
         style="font-size:18px"
         id="path3135" />
      <path
         d="m -451.05859,586.29236 c -0.87305,-1.10157 -1.61133,-2.39063 -2.21485,-3.86719 -0.60351,-1.47656 -0.90527,-3.00586 -0.90527,-4.58789 0,-1.39452 0.22558,-2.73046 0.67676,-4.00781 0.52734,-1.48241 1.34179,-2.95897 2.44336,-4.42969 l 1.13379,0 c -0.70899,1.21876 -1.17774,2.08888 -1.40625,2.61035 -0.35743,0.80861 -0.63868,1.65235 -0.84375,2.53125 -0.25196,1.09571 -0.37794,2.19727 -0.37793,3.30469 -10e-6,2.81836 0.87597,5.63379 2.62793,8.44629 z"
         style="font-size:18px"
         id="path3137" />
      <path
         d="m -440.19531,580.98376 0,1.52051 -8.5166,0 c -0.0117,-0.38086 0.0498,-0.74707 0.18457,-1.09863 0.21679,-0.58008 0.56396,-1.15137 1.0415,-1.71387 0.47754,-0.56249 1.16748,-1.21288 2.06982,-1.95117 1.40039,-1.14843 2.34668,-2.0581 2.83887,-2.729 0.49218,-0.67089 0.73828,-1.30517 0.73828,-1.90284 0,-0.62694 -0.22413,-1.15575 -0.67236,-1.58642 -0.44825,-0.43065 -1.03272,-0.64599 -1.75342,-0.646 -0.76172,10e-6 -1.3711,0.22853 -1.82812,0.68555 -0.45704,0.45704 -0.68848,1.08985 -0.69434,1.89844 l -1.62598,-0.167 c 0.11133,-1.21288 0.53028,-2.13719 1.25684,-2.77294 0.72656,-0.63573 1.70214,-0.9536 2.92676,-0.95362 1.23632,2e-5 2.21483,0.34279 2.93554,1.02832 0.7207,0.68556 1.08105,1.53517 1.08106,2.54883 -10e-6,0.51563 -0.10548,1.02247 -0.31641,1.52051 -0.21094,0.49805 -0.56104,1.02247 -1.05029,1.57324 -0.48926,0.55079 -1.30225,1.30665 -2.43896,2.26758 -0.94923,0.79688 -1.5586,1.3374 -1.82813,1.62158 -0.26953,0.28418 -0.49219,0.56983 -0.66797,0.85693 z"
         style="font-size:18px"
         id="path3139" />
      <path
         d="m -438.49023,576.14978 c -10e-6,-1.52343 0.15673,-2.7495 0.47021,-3.67822 0.31348,-0.9287 0.7793,-1.64501 1.39746,-2.14893 0.61816,-0.50389 1.39599,-0.75584 2.3335,-0.75586 0.6914,2e-5 1.29784,0.13918 1.81933,0.41748 0.52148,0.27834 0.95214,0.6797 1.292,1.2041 0.33983,0.52443 0.60643,1.1631 0.7998,1.91602 0.19335,0.75294 0.29003,1.76807 0.29004,3.04541 -10e-6,1.51172 -0.15528,2.73194 -0.46582,3.66064 -0.31056,0.92872 -0.77491,1.64649 -1.39307,2.15333 -0.61817,0.50683 -1.39893,0.76025 -2.34228,0.76025 -1.24219,0 -2.21778,-0.44531 -2.92676,-1.33594 -0.84961,-1.07226 -1.27442,-2.81835 -1.27441,-5.23828 z m 1.62597,0 c 0,2.11524 0.24756,3.52295 0.74268,4.22314 0.49511,0.7002 1.10595,1.0503 1.83252,1.0503 0.72655,0 1.33739,-0.35156 1.83252,-1.05469 0.49511,-0.70312 0.74267,-2.10937 0.74267,-4.21875 0,-2.12109 -0.24756,-3.53026 -0.74267,-4.22754 -0.49513,-0.69725 -1.11183,-1.04589 -1.8501,-1.0459 -0.72657,10e-6 -1.30664,0.30763 -1.74023,0.92285 -0.54493,0.78517 -0.81739,2.23536 -0.81739,4.35059 z"
         style="font-size:18px"
         id="path3141" />
      <path
         d="m -422.90723,582.50427 0,-12.88476 4.83399,0 c 0.98437,10e-6 1.77392,0.13038 2.36865,0.39111 0.59472,0.26075 1.06054,0.66212 1.39746,1.2041 0.3369,0.542 0.50536,1.1089 0.50537,1.70069 -10e-6,0.55079 -0.14942,1.06934 -0.44824,1.55566 -0.29884,0.48634 -0.75001,0.87891 -1.35352,1.17773 0.77929,0.22853 1.37841,0.61817 1.79737,1.16895 0.41893,0.55079 0.6284,1.20118 0.62842,1.95117 -2e-5,0.60352 -0.12746,1.16455 -0.38233,1.68311 -0.25489,0.51855 -0.56983,0.91845 -0.94482,1.1997 -0.37501,0.28125 -0.84523,0.49366 -1.41065,0.63721 -0.56543,0.14356 -1.25831,0.21533 -2.07861,0.21533 z m 1.70508,-7.4707 2.78613,0 c 0.75586,10e-6 1.29785,-0.0498 1.62598,-0.14941 0.43359,-0.1289 0.76025,-0.34277 0.97998,-0.64161 0.21972,-0.29882 0.32958,-0.67382 0.32959,-1.125 -10e-6,-0.42772 -0.10255,-0.80419 -0.30762,-1.12939 -0.20508,-0.32519 -0.49805,-0.54784 -0.8789,-0.66797 -0.38087,-0.12011 -1.03419,-0.18016 -1.95996,-0.18018 l -2.5752,0 z m 0,5.95019 3.20801,0 c 0.55077,1e-5 0.93749,-0.0205 1.16016,-0.0615 0.39257,-0.0703 0.72069,-0.1875 0.98437,-0.35156 0.26366,-0.16406 0.48046,-0.40283 0.65039,-0.71631 0.16991,-0.31347 0.25487,-0.67529 0.25488,-1.08545 -10e-6,-0.48046 -0.12305,-0.89794 -0.36914,-1.25244 -0.2461,-0.35449 -0.58741,-0.60351 -1.02392,-0.74707 -0.43653,-0.14355 -1.06495,-0.21533 -1.88526,-0.21533 l -2.97949,0 z"
         style="font-size:18px"
         id="path3143" />
      <path
         d="m -411.08594,586.099 -0.17578,-1.48535 c 0.3457,0.0937 0.64746,0.14062 0.90527,0.14062 0.35156,0 0.63281,-0.0586 0.84375,-0.17578 0.21094,-0.11719 0.38379,-0.28125 0.51856,-0.49219 0.0996,-0.1582 0.26074,-0.55078 0.4834,-1.17773 0.0293,-0.0879 0.0762,-0.2168 0.14062,-0.38672 l -3.54199,-9.35156 1.70508,0 1.94238,5.40527 c 0.25195,0.68555 0.47754,1.40625 0.67676,2.16211 0.18164,-0.72656 0.39843,-1.43554 0.65039,-2.12695 l 1.99512,-5.44043 1.58203,0 -3.55078,9.49219 c -0.38087,1.02539 -0.67677,1.73144 -0.8877,2.11816 -0.28125,0.52148 -0.60352,0.90381 -0.96679,1.14697 -0.36329,0.24316 -0.79688,0.36474 -1.30079,0.36475 -0.30469,-10e-6 -0.64453,-0.0645 -1.01953,-0.19336 z"
         style="font-size:18px"
         id="path3145" />
      <path
         d="m -398.56152,581.08923 0.22851,1.39746 c -0.44531,0.0937 -0.84375,0.14063 -1.19531,0.14063 -0.57422,0 -1.01953,-0.0908 -1.33594,-0.27246 -0.31641,-0.18164 -0.53906,-0.42041 -0.66797,-0.71631 -0.1289,-0.2959 -0.19336,-0.91846 -0.19336,-1.86768 l 0,-5.37011 -1.16015,0 0,-1.23047 1.16015,0 0,-2.31153 1.57325,-0.94921 0,3.26074 1.59082,0 0,1.23047 -1.59082,0 0,5.458 c -1e-5,0.45118 0.0278,0.74122 0.0835,0.87012 0.0557,0.12891 0.14648,0.23145 0.27246,0.30762 0.12598,0.0762 0.30615,0.11426 0.54053,0.11426 0.17578,0 0.40722,-0.0205 0.69434,-0.0615 z"
         style="font-size:18px"
         id="path3147" />
      <path
         d="m -390.63379,579.49841 1.63477,0.20215 c -0.25782,0.95508 -0.73536,1.69629 -1.43262,2.22363 -0.69727,0.52735 -1.5879,0.79102 -2.67188,0.79102 -1.36523,0 -2.44775,-0.42041 -3.24755,-1.26123 -0.79981,-0.84082 -1.19971,-2.02002 -1.19971,-3.5376 0,-1.5703 0.40429,-2.78905 1.21289,-3.65625 0.80859,-0.86718 1.85742,-1.30077 3.14648,-1.30078 1.24804,10e-6 2.26757,0.42481 3.0586,1.27441 0.791,0.84962 1.18651,2.04493 1.18652,3.58594 -1e-5,0.0938 -0.003,0.23438 -0.009,0.42188 l -6.96094,0 c 0.0586,1.02539 0.34863,1.81055 0.87012,2.35547 0.52148,0.54492 1.17187,0.81738 1.95117,0.81738 0.58008,0 1.07519,-0.15234 1.48536,-0.45703 0.41014,-0.30469 0.73534,-0.79102 0.97558,-1.45899 z m -5.19433,-2.55761 5.21191,0 c -0.0703,-0.78515 -0.26954,-1.37402 -0.59766,-1.76661 -0.50391,-0.60936 -1.15723,-0.91405 -1.95996,-0.91406 -0.72656,10e-6 -1.3374,0.24317 -1.83252,0.72949 -0.49512,0.48634 -0.76904,1.13673 -0.82177,1.95118 z"
         style="font-size:18px"
         id="path3149" />
      <path
         d="m -385.9668,586.29236 -1.13379,0 c 1.75195,-2.8125 2.62793,-5.62793 2.62793,-8.44629 0,-1.10156 -0.12598,-2.19433 -0.37793,-3.27832 -0.19922,-0.8789 -0.47754,-1.72265 -0.83496,-2.53125 -0.22851,-0.52733 -0.70019,-1.40624 -1.41504,-2.63672 l 1.13379,0 c 1.10156,1.47072 1.91601,2.94728 2.44336,4.42969 0.45117,1.27735 0.67675,2.61329 0.67676,4.00781 -1e-5,1.58203 -0.30323,3.11133 -0.90967,4.58789 -0.60645,1.47656 -1.34326,2.76562 -2.21045,3.86719 z"
         style="font-size:18px"
         id="path3151" />
    </g>
    <g
       style="font-size:22px;font-style:normal;font-weight:normal;text-align:center;line-height:125%;letter-spacing:0px;word-spacing:0px;text-anchor:middle;fill:#000000;fill-opacity:1;stroke:none;font-family:Sans"
       id="text3094-1-0">
      <path
         d="m -333.73633,559.39838 0,-11.36426 -4.24512,0 0,-1.52051 10.2129,0 0,1.52051 -4.2627,0 0,11.36426 z"
         style="font-size:18px"
         id="path3082" />
      <path
         d="m -316.81738,554.8808 1.70508,0.43066 c -0.35744,1.4004 -1.0005,2.46827 -1.9292,3.20362 -0.92872,0.73535 -2.06398,1.10302 -3.40577,1.10302 -1.38867,0 -2.51807,-0.28271 -3.38818,-0.84814 -0.87012,-0.56543 -1.53223,-1.38428 -1.98633,-2.45654 -0.4541,-1.07227 -0.68115,-2.22363 -0.68115,-3.45411 0,-1.34179 0.25635,-2.51219 0.76904,-3.51123 0.5127,-0.99901 1.24219,-1.7578 2.18848,-2.27636 0.94628,-0.51855 1.98779,-0.77782 3.12451,-0.77784 1.28906,2e-5 2.37304,0.32814 3.25195,0.98438 0.8789,0.65626 1.4912,1.57911 1.83692,2.76855 l -1.67871,0.39551 c -0.29884,-0.93749 -0.73243,-1.6201 -1.30078,-2.04785 -0.56837,-0.42772 -1.28321,-0.64159 -2.14453,-0.6416 -0.99025,10e-6 -1.81788,0.23731 -2.48291,0.71191 -0.66505,0.47462 -1.13233,1.11183 -1.40186,1.91162 -0.26953,0.79982 -0.4043,1.62452 -0.4043,2.47412 0,1.09571 0.15967,2.05226 0.47901,2.86963 0.31933,0.81739 0.81591,1.42823 1.48974,1.83252 0.67383,0.4043 1.40332,0.60645 2.18848,0.60645 0.95507,0 1.76366,-0.27539 2.42578,-0.82617 0.6621,-0.55078 1.11034,-1.36816 1.34473,-2.45215 z"
         style="font-size:18px"
         id="path3084" />
      <path
         d="m -313.00293,559.39838 0,-12.88477 4.86035,0 c 0.85546,10e-6 1.50878,0.041 1.95996,0.12305 0.63281,0.10548 1.16308,0.30616 1.59082,0.60205 0.42773,0.29591 0.77197,0.71046 1.03272,1.24365 0.26073,0.53321 0.3911,1.11915 0.39111,1.75781 -10e-6,1.09571 -0.34864,2.02296 -1.0459,2.78174 -0.69727,0.7588 -1.95704,1.13819 -3.77929,1.13819 l -3.30469,0 0,5.23828 z m 1.70508,-6.75879 3.33105,0 c 1.10156,0 1.88378,-0.20507 2.34668,-0.61524 0.46288,-0.41015 0.69433,-0.98729 0.69434,-1.73144 -1e-5,-0.53906 -0.13624,-1.00048 -0.40869,-1.38428 -0.27247,-0.38378 -0.63136,-0.6372 -1.07666,-0.76025 -0.28712,-0.0762 -0.81739,-0.11425 -1.59082,-0.11426 l -3.2959,0 z"
         style="font-size:18px"
         id="path3086" />
      <path
         d="m -301.79687,555.53119 0,-1.59082 4.86035,0 0,1.59082 z"
         style="font-size:18px"
         id="path3088" />
      <path
         d="m -294.91504,559.39838 0,-12.88477 1.70508,0 0,5.29102 6.69726,0 0,-5.29102 1.70508,0 0,12.88477 -1.70508,0 0,-6.07325 -6.69726,0 0,6.07325 z"
         style="font-size:18px"
         id="path3090" />
      <path
         d="m -275.77246,556.39252 1.63476,0.20215 c -0.25782,0.95508 -0.73536,1.69629 -1.43261,2.22363 -0.69728,0.52734 -1.5879,0.79101 -2.67188,0.79101 -1.36524,0 -2.44775,-0.42041 -3.24756,-1.26123 -0.7998,-0.84081 -1.1997,-2.02001 -1.1997,-3.53759 0,-1.57031 0.40429,-2.78906 1.21289,-3.65625 0.80859,-0.86718 1.85742,-1.30078 3.14648,-1.30079 1.24804,1e-5 2.26757,0.42482 3.0586,1.27442 0.791,0.84962 1.18651,2.04493 1.18652,3.58594 -10e-6,0.0937 -0.003,0.23438 -0.009,0.42187 l -6.96094,0 c 0.0586,1.0254 0.34863,1.81055 0.87012,2.35547 0.52148,0.54492 1.17187,0.81738 1.95117,0.81738 0.58007,0 1.07519,-0.15234 1.48535,-0.45703 0.41015,-0.30468 0.73535,-0.79101 0.97559,-1.45898 z m -5.19434,-2.55762 5.21192,0 c -0.0703,-0.78515 -0.26954,-1.37402 -0.59766,-1.7666 -0.50391,-0.60937 -1.15723,-0.91406 -1.95996,-0.91406 -0.72657,0 -1.33741,0.24317 -1.83252,0.72949 -0.49512,0.48633 -0.76904,1.13672 -0.82178,1.95117 z"
         style="font-size:18px"
         id="path3092" />
      <path
         d="m -266.05176,558.24701 c -0.58594,0.49805 -1.14991,0.84961 -1.69189,1.05469 -0.542,0.20507 -1.12354,0.30761 -1.74463,0.30761 -1.02539,0 -1.81348,-0.25048 -2.36426,-0.75146 -0.55078,-0.50098 -0.82617,-1.14111 -0.82617,-1.92041 0,-0.45703 0.104,-0.87451 0.31201,-1.25244 0.20801,-0.37793 0.48047,-0.68115 0.81738,-0.90967 0.33692,-0.22851 0.71631,-0.40136 1.13819,-0.51856 0.31054,-0.082 0.77929,-0.16112 1.40625,-0.2373 1.27734,-0.15234 2.21776,-0.33398 2.82129,-0.54492 0.006,-0.21679 0.009,-0.35449 0.009,-0.41309 -10e-6,-0.64452 -0.14943,-1.09862 -0.44825,-1.3623 -0.4043,-0.35742 -1.00489,-0.53613 -1.80175,-0.53614 -0.74415,1e-5 -1.29347,0.13038 -1.64795,0.39112 -0.3545,0.26075 -0.61671,0.72217 -0.78662,1.38428 l -1.54688,-0.21094 c 0.14062,-0.6621 0.37207,-1.19677 0.69434,-1.60401 0.32226,-0.40721 0.78808,-0.72069 1.39746,-0.94043 0.60937,-0.21971 1.31542,-0.32958 2.11816,-0.32959 0.79687,1e-5 1.44433,0.0938 1.94238,0.28125 0.49804,0.18751 0.86425,0.42335 1.09864,0.70752 0.23436,0.28419 0.39843,0.64308 0.49218,1.07666 0.0527,0.26954 0.0791,0.75587 0.0791,1.45899 l 0,2.10937 c -10e-6,1.47071 0.0337,2.40088 0.10107,2.79053 0.0674,0.38965 0.20067,0.76318 0.3999,1.12061 l -1.65234,0 c -0.16407,-0.32813 -0.26954,-0.71192 -0.31641,-1.15137 z m -0.13183,-3.5332 c -0.57423,0.23438 -1.43556,0.43359 -2.58399,0.59765 -0.65039,0.0938 -1.11035,0.19923 -1.37988,0.31641 -0.26954,0.11719 -0.47754,0.28858 -0.62402,0.51416 -0.14649,0.22559 -0.21973,0.47608 -0.21973,0.75146 0,0.42188 0.15966,0.77344 0.479,1.05469 0.31934,0.28125 0.78662,0.42188 1.40186,0.42188 0.60937,0 1.15136,-0.1333 1.62598,-0.39991 0.4746,-0.2666 0.82323,-0.63134 1.04589,-1.09423 0.16992,-0.35742 0.25488,-0.88477 0.25489,-1.58204 z"
         style="font-size:18px"
         id="path3094" />
      <path
         d="m -256.06738,559.39838 0,-1.17774 c -0.59181,0.92578 -1.46192,1.38867 -2.61035,1.38867 -0.74415,0 -1.42823,-0.20507 -2.05225,-0.61523 -0.62403,-0.41016 -1.10742,-0.98291 -1.4502,-1.71826 -0.34277,-0.73535 -0.51416,-1.58056 -0.51416,-2.53565 0,-0.93163 0.15528,-1.77685 0.46582,-2.53564 0.31055,-0.75878 0.77637,-1.34032 1.39747,-1.74463 0.62109,-0.40429 1.31542,-0.60644 2.083,-0.60645 0.5625,1e-5 1.06347,0.11867 1.50293,0.35596 0.43945,0.23732 0.79687,0.5464 1.07227,0.92725 l 0,-4.62305 1.57324,0 0,12.88477 z m -5.00098,-4.65821 c 0,1.19532 0.25195,2.08887 0.75586,2.68067 0.5039,0.5918 1.09863,0.88769 1.78418,0.88769 0.6914,0 1.2788,-0.28271 1.76221,-0.84814 0.48339,-0.56543 0.72509,-1.42822 0.72509,-2.58838 0,-1.27734 -0.2461,-2.21484 -0.73828,-2.8125 -0.49219,-0.59765 -1.09864,-0.89648 -1.81933,-0.89649 -0.70313,1e-5 -1.29053,0.28712 -1.76221,0.86133 -0.47168,0.57423 -0.70752,1.4795 -0.70752,2.71582 z"
         style="font-size:18px"
         id="path3096" />
      <path
         d="m -245.71387,556.39252 1.63477,0.20215 c -0.25782,0.95508 -0.73536,1.69629 -1.43262,2.22363 -0.69727,0.52734 -1.5879,0.79101 -2.67187,0.79101 -1.36524,0 -2.44776,-0.42041 -3.24756,-1.26123 -0.79981,-0.84081 -1.19971,-2.02001 -1.19971,-3.53759 0,-1.57031 0.4043,-2.78906 1.21289,-3.65625 0.80859,-0.86718 1.85742,-1.30078 3.14649,-1.30079 1.24804,1e-5 2.26757,0.42482 3.05859,1.27442 0.79101,0.84962 1.18651,2.04493 1.18652,3.58594 -1e-5,0.0937 -0.003,0.23438 -0.009,0.42187 l -6.96093,0 c 0.0586,1.0254 0.34863,1.81055 0.87011,2.35547 0.52148,0.54492 1.17187,0.81738 1.95118,0.81738 0.58007,0 1.07518,-0.15234 1.48535,-0.45703 0.41015,-0.30468 0.73534,-0.79101 0.97558,-1.45898 z m -5.19433,-2.55762 5.21191,0 c -0.0703,-0.78515 -0.26954,-1.37402 -0.59766,-1.7666 -0.50391,-0.60937 -1.15723,-0.91406 -1.95996,-0.91406 -0.72656,0 -1.3374,0.24317 -1.83252,0.72949 -0.49512,0.48633 -0.76904,1.13672 -0.82177,1.95117 z"
         style="font-size:18px"
         id="path3098" />
      <path
         d="m -242.10156,559.39838 0,-9.33399 1.42383,0 0,1.41504 c 0.36327,-0.6621 0.69872,-1.09862 1.00634,-1.30957 0.30762,-0.21093 0.646,-0.3164 1.01514,-0.31641 0.5332,1e-5 1.07519,0.16994 1.62598,0.50977 l -0.54493,1.46777 c -0.38672,-0.2285 -0.77344,-0.34276 -1.16015,-0.34277 -0.34571,1e-5 -0.65626,0.10401 -0.93164,0.31201 -0.2754,0.20802 -0.47169,0.49659 -0.58887,0.86572 -0.17578,0.56251 -0.26367,1.17774 -0.26367,1.84571 l 0,4.88672 z"
         style="font-size:18px"
         id="path3100" />
      <path
         d="m -320.16602,585.68646 c -0.87305,-1.10156 -1.61133,-2.39062 -2.21484,-3.86719 -0.60352,-1.47656 -0.90527,-3.00585 -0.90527,-4.58789 0,-1.39452 0.22558,-2.73046 0.67676,-4.00781 0.52734,-1.48241 1.34179,-2.95897 2.44335,-4.42969 l 1.13379,0 c -0.70899,1.21877 -1.17774,2.08888 -1.40625,2.61036 -0.35742,0.8086 -0.63867,1.65235 -0.84375,2.53125 -0.25195,1.09571 -0.37793,2.19727 -0.37793,3.30468 0,2.81836 0.87598,5.63379 2.62793,8.44629 z"
         style="font-size:18px"
         id="path3102" />
      <path
         d="m -309.30273,580.37787 0,1.52051 -8.51661,0 c -0.0117,-0.38086 0.0498,-0.74707 0.18457,-1.09864 0.2168,-0.58007 0.56397,-1.15136 1.04151,-1.71386 0.47754,-0.5625 1.16748,-1.21289 2.06982,-1.95118 1.40039,-1.14843 2.34668,-2.05809 2.83887,-2.729 0.49218,-0.67089 0.73827,-1.30517 0.73828,-1.90283 -1e-5,-0.62694 -0.22413,-1.15575 -0.67236,-1.58643 -0.44825,-0.43065 -1.03272,-0.64598 -1.75342,-0.64599 -0.76172,10e-6 -1.3711,0.22852 -1.82813,0.68554 -0.45703,0.45705 -0.68847,1.08986 -0.69433,1.89844 l -1.62598,-0.16699 c 0.11133,-1.21288 0.53027,-2.1372 1.25684,-2.77295 0.72656,-0.63573 1.70214,-0.9536 2.92676,-0.95361 1.23632,10e-6 2.21483,0.34278 2.93554,1.02832 0.7207,0.68555 1.08105,1.53516 1.08106,2.54882 -10e-6,0.51564 -0.10548,1.02247 -0.31641,1.52051 -0.21094,0.49806 -0.56104,1.02247 -1.05029,1.57324 -0.48927,0.55079 -1.30225,1.30665 -2.43897,2.26758 -0.94922,0.79688 -1.55859,1.33741 -1.82812,1.62159 -0.26954,0.28418 -0.49219,0.56982 -0.66797,0.85693 z"
         style="font-size:18px"
         id="path3104" />
      <path
         d="m -307.59766,575.54388 c 0,-1.52343 0.15674,-2.7495 0.47022,-3.67822 0.31347,-0.9287 0.77929,-1.64501 1.39746,-2.14892 0.61816,-0.5039 1.39599,-0.75585 2.3335,-0.75586 0.6914,10e-6 1.29784,0.13917 1.81933,0.41748 0.52148,0.27833 0.95214,0.6797 1.29199,1.2041 0.33984,0.52442 0.60644,1.16309 0.79981,1.91601 0.19335,0.75294 0.29003,1.76808 0.29004,3.04541 -10e-6,1.51173 -0.15528,2.73194 -0.46582,3.66065 -0.31056,0.92871 -0.77491,1.64648 -1.39307,2.15332 -0.61817,0.50684 -1.39893,0.76025 -2.34228,0.76025 -1.2422,0 -2.21778,-0.44531 -2.92676,-1.33593 -0.84961,-1.07227 -1.27442,-2.81836 -1.27442,-5.23829 z m 1.62598,0 c 0,2.11524 0.24756,3.52296 0.74268,4.22315 0.49511,0.7002 1.10595,1.05029 1.83252,1.05029 0.72655,0 1.33739,-0.35156 1.83252,-1.05469 0.49511,-0.70312 0.74266,-2.10937 0.74267,-4.21875 -1e-5,-2.12108 -0.24756,-3.53026 -0.74267,-4.22753 -0.49513,-0.69726 -1.11183,-1.04589 -1.8501,-1.0459 -0.72657,10e-6 -1.30665,0.30763 -1.74024,0.92285 -0.54492,0.78516 -0.81738,2.23536 -0.81738,4.35058 z"
         style="font-size:18px"
         id="path3106" />
      <path
         d="m -292.01465,581.89838 0,-12.88477 4.83399,0 c 0.98436,10e-6 1.77391,0.13038 2.36865,0.39111 0.59472,0.26076 1.06054,0.66213 1.39746,1.20411 0.3369,0.542 0.50536,1.10889 0.50537,1.70068 -1e-5,0.55079 -0.14942,1.06934 -0.44824,1.55566 -0.29884,0.48634 -0.75001,0.87892 -1.35352,1.17774 0.77929,0.22852 1.37841,0.61817 1.79737,1.16894 0.41893,0.55079 0.6284,1.20118 0.62841,1.95117 -10e-6,0.60352 -0.12745,1.16456 -0.38232,1.68311 -0.25489,0.51856 -0.56983,0.91846 -0.94482,1.19971 -0.37501,0.28125 -0.84523,0.49365 -1.41065,0.6372 -0.56544,0.14356 -1.25831,0.21534 -2.07861,0.21534 z m 1.70508,-7.47071 2.78613,0 c 0.75586,10e-6 1.29785,-0.0498 1.62598,-0.14941 0.43358,-0.1289 0.76024,-0.34277 0.97998,-0.6416 0.21972,-0.29882 0.32958,-0.67382 0.32959,-1.125 -10e-6,-0.42773 -0.10255,-0.80419 -0.30762,-1.1294 -0.20508,-0.32518 -0.49805,-0.54784 -0.8789,-0.66797 -0.38087,-0.1201 -1.03419,-0.18016 -1.95996,-0.18017 l -2.5752,0 z m 0,5.9502 3.20801,0 c 0.55077,0 0.93749,-0.0205 1.16015,-0.0615 0.39257,-0.0703 0.7207,-0.1875 0.98438,-0.35157 0.26366,-0.16406 0.48046,-0.40283 0.65039,-0.71631 0.16991,-0.31347 0.25487,-0.67529 0.25488,-1.08545 -10e-6,-0.48046 -0.12305,-0.89794 -0.36914,-1.25244 -0.2461,-0.35448 -0.58741,-0.60351 -1.02392,-0.74707 -0.43654,-0.14355 -1.06495,-0.21532 -1.88526,-0.21533 l -2.97949,0 z"
         style="font-size:18px"
         id="path3108" />
      <path
         d="m -280.19336,585.4931 -0.17578,-1.48535 c 0.3457,0.0937 0.64746,0.14062 0.90527,0.14063 0.35156,-10e-6 0.63281,-0.0586 0.84375,-0.17578 0.21094,-0.11719 0.38379,-0.28126 0.51856,-0.49219 0.0996,-0.15821 0.26074,-0.55078 0.4834,-1.17774 0.0293,-0.0879 0.0762,-0.21679 0.14062,-0.38672 l -3.54199,-9.35156 1.70508,0 1.94238,5.40528 c 0.25195,0.68555 0.47753,1.40625 0.67676,2.1621 0.18163,-0.72656 0.39843,-1.43554 0.65039,-2.12695 l 1.99512,-5.44043 1.58203,0 -3.55078,9.49219 c -0.38087,1.02539 -0.67677,1.73144 -0.8877,2.11816 -0.28125,0.52149 -0.60352,0.90381 -0.9668,1.14698 -0.36328,0.24316 -0.79687,0.36474 -1.30078,0.36474 -0.30469,0 -0.64453,-0.0644 -1.01953,-0.19336 z"
         style="font-size:18px"
         id="path3110" />
      <path
         d="m -267.66895,580.48334 0.22852,1.39746 c -0.44532,0.0937 -0.84375,0.14062 -1.19531,0.14062 -0.57422,0 -1.01954,-0.0908 -1.33594,-0.27246 -0.31641,-0.18164 -0.53906,-0.42041 -0.66797,-0.71631 -0.12891,-0.29589 -0.19336,-0.91845 -0.19336,-1.86767 l 0,-5.37012 -1.16015,0 0,-1.23047 1.16015,0 0,-2.31152 1.57324,-0.94922 0,3.26074 1.59082,0 0,1.23047 -1.59082,0 0,5.45801 c 0,0.45117 0.0278,0.74121 0.0835,0.87012 0.0557,0.1289 0.14648,0.23144 0.27246,0.30761 0.12597,0.0762 0.30615,0.11426 0.54053,0.11426 0.17578,0 0.40722,-0.0205 0.69433,-0.0615 z"
         style="font-size:18px"
         id="path3112" />
      <path
         d="m -259.74121,578.89252 1.63476,0.20215 c -0.25782,0.95508 -0.73536,1.69629 -1.43261,2.22363 -0.69728,0.52734 -1.5879,0.79101 -2.67188,0.79101 -1.36524,0 -2.44775,-0.42041 -3.24756,-1.26123 -0.7998,-0.84081 -1.1997,-2.02001 -1.1997,-3.53759 0,-1.57031 0.40429,-2.78906 1.21289,-3.65625 0.80859,-0.86718 1.85742,-1.30078 3.14648,-1.30079 1.24804,1e-5 2.26757,0.42482 3.0586,1.27442 0.791,0.84962 1.18651,2.04493 1.18652,3.58594 -10e-6,0.0937 -0.003,0.23438 -0.009,0.42187 l -6.96094,0 c 0.0586,1.0254 0.34863,1.81055 0.87012,2.35547 0.52148,0.54492 1.17187,0.81738 1.95117,0.81738 0.58007,0 1.07519,-0.15234 1.48535,-0.45703 0.41015,-0.30468 0.73535,-0.79101 0.97559,-1.45898 z m -5.19434,-2.55762 5.21192,0 c -0.0703,-0.78515 -0.26954,-1.37402 -0.59766,-1.7666 -0.50391,-0.60937 -1.15723,-0.91406 -1.95996,-0.91406 -0.72657,0 -1.33741,0.24317 -1.83252,0.72949 -0.49512,0.48633 -0.76904,1.13672 -0.82178,1.95117 z"
         style="font-size:18px"
         id="path3114" />
      <path
         d="m -255.07422,585.68646 -1.13379,0 c 1.75195,-2.8125 2.62793,-5.62793 2.62793,-8.44629 0,-1.10155 -0.12598,-2.19433 -0.37793,-3.27832 -0.19922,-0.87889 -0.47754,-1.72264 -0.83496,-2.53125 -0.22852,-0.52733 -0.7002,-1.40624 -1.41504,-2.63672 l 1.13379,0 c 1.10156,1.47072 1.91601,2.94728 2.44336,4.42969 0.45117,1.27735 0.67675,2.61329 0.67676,4.00781 -10e-6,1.58204 -0.30323,3.11133 -0.90967,4.58789 -0.60645,1.47657 -1.34326,2.76563 -2.21045,3.86719 z"
         style="font-size:18px"
         id="path3116" />
    </g>
    <g
       style="font-size:22px;font-style:normal;font-weight:normal;text-align:center;line-height:125%;letter-spacing:0px;word-spacing:0px;text-anchor:middle;fill:#000000;fill-opacity:1;stroke:none;font-family:Sans"
       id="text3094-1-0-7">
      <path
         d="m -131.24224,573.61633 0,-12.88476 1.74903,0 6.76757,10.11621 0,-10.11621 1.63477,0 0,12.88476 -1.74902,0 -6.76758,-10.125 0,10.125 z"
         style="font-size:18px"
         id="path3035" />
      <path
         d="m -112.30181,573.61633 0,-1.37109 c -0.72657,1.05469 -1.71387,1.58203 -2.96191,1.58203 -0.55079,0 -1.06495,-0.10547 -1.54248,-0.31641 -0.47754,-0.21093 -0.83204,-0.47607 -1.06348,-0.79541 -0.23145,-0.31933 -0.39404,-0.71044 -0.48779,-1.17334 -0.0645,-0.31054 -0.0967,-0.80273 -0.0967,-1.47656 l 0,-5.7832 1.58203,0 0,5.17676 c 0,0.82617 0.0322,1.38281 0.0967,1.66992 0.0996,0.41602 0.31054,0.74268 0.63281,0.97998 0.32226,0.2373 0.7207,0.35596 1.19531,0.35596 0.47461,0 0.91992,-0.12158 1.33594,-0.36475 0.41601,-0.24316 0.71044,-0.57422 0.8833,-0.99316 0.17285,-0.41895 0.25927,-1.02686 0.25928,-1.82373 l 0,-5.00098 1.58203,0 0,9.33398 z"
         style="font-size:18px"
         id="path3037" />
      <path
         d="m -104.94536,572.20129 0.22851,1.39746 c -0.44531,0.0937 -0.84375,0.14063 -1.19531,0.14063 -0.57422,0 -1.01953,-0.0908 -1.33594,-0.27246 -0.3164,-0.18164 -0.53906,-0.42041 -0.66797,-0.71631 -0.1289,-0.2959 -0.19336,-0.91845 -0.19335,-1.86768 l 0,-5.37011 -1.16016,0 0,-1.23047 1.16016,0 0,-2.31152 1.57324,-0.94922 0,3.26074 1.59082,0 0,1.23047 -1.59082,0 0,5.45801 c -1e-5,0.45117 0.0278,0.74121 0.0835,0.87011 0.0557,0.12891 0.14648,0.23145 0.27246,0.30762 0.12598,0.0762 0.30615,0.11426 0.54053,0.11426 0.17578,0 0.40722,-0.0205 0.69434,-0.0615 z"
         style="font-size:18px"
         id="path3039" />
      <path
         d="m -104.24224,573.61633 0,-1.2832 5.941409,-6.82031 c -0.673834,0.0352 -1.26856,0.0527 -1.784179,0.0527 l -3.80566,0 0,-1.2832 7.628902,0 0,1.0459 -5.053712,5.92383 -0.97559,1.08105 c 0.70899,-0.0527 1.37402,-0.0791 1.99512,-0.0791 l 4.315432,0 0,1.3623 z"
         style="font-size:18px"
         id="path3041" />
      <path
         d="m -88.351612,573.61633 0,-1.17773 c -0.591804,0.92578 -1.46192,1.38867 -2.610352,1.38867 -0.744144,0 -1.428226,-0.20508 -2.052246,-0.61523 -0.624025,-0.41016 -1.107423,-0.98291 -1.450195,-1.71827 -0.342774,-0.73534 -0.514161,-1.58056 -0.51416,-2.53564 -10e-7,-0.93164 0.155272,-1.77685 0.46582,-2.53564 0.310546,-0.75879 0.776365,-1.34033 1.397461,-1.74463 0.621091,-0.40429 1.315426,-0.60644 2.083008,-0.60645 0.562495,10e-6 1.063471,0.11866 1.50293,0.35596 0.439446,0.23731 0.796868,0.54639 1.072265,0.92724 l 0,-4.62304 1.573242,0 0,12.88476 z m -5.000977,-4.6582 c -2e-6,1.19532 0.251951,2.08887 0.75586,2.68066 0.503902,0.5918 1.098628,0.8877 1.784179,0.8877 0.691401,0 1.278803,-0.28271 1.762207,-0.84815 0.483392,-0.56542 0.725091,-1.42821 0.725098,-2.58837 -7e-6,-1.27734 -0.246101,-2.21484 -0.738281,-2.8125 -0.492194,-0.59765 -1.098638,-0.89648 -1.819336,-0.89649 -0.703129,10e-6 -1.290531,0.28712 -1.762207,0.86133 -0.471682,0.57423 -0.707522,1.4795 -0.70752,2.71582 z"
         style="font-size:18px"
         id="path3043" />
      <path
         d="m -78.296925,572.46497 c -0.585944,0.49804 -1.149908,0.84961 -1.691894,1.05468 -0.541997,0.20508 -1.12354,0.30762 -1.744629,0.30762 -1.025393,0 -1.813479,-0.25049 -2.364258,-0.75146 -0.550782,-0.50098 -0.826172,-1.14112 -0.826172,-1.92041 0,-0.45703 0.104003,-0.87451 0.312012,-1.25245 0.208007,-0.37792 0.480467,-0.68114 0.817383,-0.90966 0.336912,-0.22851 0.716306,-0.40137 1.138183,-0.51856 0.310544,-0.082 0.779294,-0.16113 1.40625,-0.2373 1.277339,-0.15234 2.217767,-0.33398 2.821289,-0.54493 0.0059,-0.21679 0.0088,-0.35448 0.0088,-0.41308 -8e-6,-0.64453 -0.149422,-1.09863 -0.448243,-1.36231 -0.404303,-0.35741 -1.004888,-0.53612 -1.801757,-0.53613 -0.744145,10e-6 -1.293461,0.13038 -1.64795,0.39111 -0.354495,0.26075 -0.616702,0.72218 -0.786621,1.38428 l -1.546875,-0.21094 c 0.140624,-0.6621 0.372069,-1.19676 0.694336,-1.604 0.322264,-0.40722 0.788084,-0.72069 1.397461,-0.94043 0.609371,-0.21972 1.315425,-0.32958 2.118164,-0.32959 0.796869,10e-6 1.44433,0.0938 1.942383,0.28125 0.498039,0.18751 0.86425,0.42335 1.098633,0.70752 0.234366,0.28419 0.398429,0.64307 0.492187,1.07666 0.05273,0.26954 0.07909,0.75587 0.0791,1.45899 l 0,2.10937 c -9e-6,1.47071 0.03368,2.40088 0.101074,2.79053 0.06737,0.38965 0.200675,0.76318 0.399902,1.1206 l -1.652343,0 c -0.16407,-0.32812 -0.269539,-0.71191 -0.316407,-1.15136 z m -0.131836,-3.53321 c -0.574225,0.23438 -1.435552,0.4336 -2.583984,0.59766 -0.650394,0.0937 -1.110355,0.19922 -1.379883,0.31641 -0.269534,0.11719 -0.477541,0.28857 -0.624023,0.51416 -0.146487,0.22558 -0.219729,0.47607 -0.219727,0.75146 -2e-6,0.42188 0.159666,0.77344 0.479004,1.05469 0.319333,0.28125 0.786618,0.42187 1.401856,0.42187 0.60937,0 1.151361,-0.1333 1.625976,-0.3999 0.474603,-0.2666 0.823236,-0.63135 1.045899,-1.09424 0.169914,-0.35742 0.254875,-0.88476 0.254882,-1.58203 z"
         style="font-size:18px"
         id="path3045" />
      <path
         d="m -70.914112,572.20129 0.228516,1.39746 c -0.445317,0.0937 -0.843754,0.14063 -1.195313,0.14063 -0.574222,0 -1.019534,-0.0908 -1.335937,-0.27246 -0.316409,-0.18164 -0.539065,-0.42041 -0.667969,-0.71631 -0.128908,-0.2959 -0.193361,-0.91845 -0.19336,-1.86768 l 0,-5.37011 -1.160156,0 0,-1.23047 1.160156,0 0,-2.31152 1.573243,-0.94922 0,3.26074 1.59082,0 0,1.23047 -1.59082,0 0,5.45801 c -3e-6,0.45117 0.02783,0.74121 0.0835,0.87011 0.05566,0.12891 0.146481,0.23145 0.272461,0.30762 0.125973,0.0762 0.306148,0.11426 0.540527,0.11426 0.175777,0 0.407222,-0.0205 0.694336,-0.0615 z"
         style="font-size:18px"
         id="path3047" />
      <path
         d="m -62.986378,570.61047 1.634766,0.20215 c -0.257822,0.95508 -0.73536,1.69629 -1.432617,2.22363 -0.697273,0.52735 -1.587897,0.79102 -2.671875,0.79102 -1.365238,0 -2.447757,-0.42041 -3.247559,-1.26123 -0.799806,-0.84082 -1.199708,-2.02002 -1.199707,-3.5376 -1e-6,-1.5703 0.404296,-2.78905 1.212891,-3.65625 0.808591,-0.86718 1.857418,-1.30077 3.146484,-1.30078 1.248041,10e-6 2.267571,0.42481 3.058594,1.27442 0.791007,0.84961 1.186514,2.04492 1.186523,3.58593 -9e-6,0.0938 -0.0029,0.23438 -0.0088,0.42188 l -6.960937,0 c 0.05859,1.02539 0.34863,1.81055 0.870117,2.35547 0.521481,0.54492 1.171871,0.81738 1.951172,0.81738 0.580072,0 1.075189,-0.15234 1.485351,-0.45703 0.41015,-0.30469 0.735345,-0.79102 0.975586,-1.45899 z m -5.194336,-2.55761 5.211914,0 c -0.07032,-0.78515 -0.269538,-1.37402 -0.597656,-1.76661 -0.503913,-0.60936 -1.157232,-0.91405 -1.959961,-0.91406 -0.726567,10e-6 -1.337406,0.24317 -1.832519,0.72949 -0.49512,0.48634 -0.769046,1.13673 -0.821778,1.95118 z"
         style="font-size:18px"
         id="path3049" />
      <path
         d="m -59.356495,573.61633 0,-9.33398 1.423828,0 0,1.32715 c 0.685544,-1.02538 1.675777,-1.53808 2.970703,-1.53809 0.562494,10e-6 1.079584,0.10108 1.55127,0.30322 0.471672,0.20216 0.824699,0.4673 1.059082,0.79541 0.234366,0.32814 0.398429,0.71779 0.492187,1.16895 0.05859,0.29297 0.08788,0.80567 0.08789,1.53809 l 0,5.73925 -1.582031,0 0,-5.67773 c -7e-6,-0.64453 -0.06153,-1.12646 -0.184571,-1.4458 -0.123053,-0.31933 -0.341315,-0.57421 -0.654785,-0.76465 -0.313482,-0.19042 -0.681158,-0.28564 -1.103027,-0.28565 -0.673833,10e-6 -1.255375,0.21388 -1.744629,0.64161 -0.489261,0.42774 -0.733889,1.23926 -0.733887,2.43457 l 0,5.09765 z"
         style="font-size:18px"
         id="path3051" />
      <path
         d="m -41.321339,577.40442 c -0.87305,-1.10157 -1.61133,-2.39063 -2.214843,-3.86719 -0.603517,-1.47656 -0.905275,-3.00585 -0.905274,-4.58789 -10e-7,-1.39452 0.225585,-2.73046 0.676758,-4.00781 0.527341,-1.48241 1.341794,-2.95897 2.443359,-4.42969 l 1.133789,0 c -0.708989,1.21876 -1.177738,2.08888 -1.40625,2.61035 -0.357425,0.80861 -0.638675,1.65235 -0.84375,2.53125 -0.251956,1.09571 -0.377932,2.19727 -0.377929,3.30469 -3e-6,2.81836 0.875973,5.63379 2.627929,8.44629 z"
         style="font-size:18px"
         id="path3053" />
      <path
         d="m -38.333057,573.61633 0,-9.33398 1.415039,0 0,1.30957 c 0.292966,-0.45702 0.682614,-0.8247 1.168945,-1.10303 0.486324,-0.27831 1.040034,-0.41747 1.661133,-0.41748 0.6914,10e-6 1.258294,0.14357 1.700683,0.43067 0.442376,0.28711 0.754387,0.68848 0.936036,1.2041 0.738272,-1.08984 1.699209,-1.63476 2.882812,-1.63477 0.925769,10e-6 1.637683,0.25636 2.135742,0.76904 0.498034,0.51271 0.747057,1.30226 0.747071,2.36866 l 0,6.40722 -1.573243,0 0,-5.87988 c -1.2e-5,-0.63281 -0.05128,-1.08837 -0.153808,-1.3667 -0.102551,-0.27831 -0.288586,-0.50243 -0.558106,-0.67236 -0.269542,-0.16992 -0.585948,-0.25488 -0.949218,-0.25489 -0.65626,10e-6 -1.201182,0.21827 -1.634766,0.65479 -0.433602,0.43653 -0.650399,1.13526 -0.650391,2.09619 l 0,5.42285 -1.582031,0 0,-6.06445 c -7e-6,-0.70312 -0.128913,-1.23046 -0.386719,-1.58203 -0.257818,-0.35156 -0.679693,-0.52734 -1.265625,-0.52735 -0.445317,10e-6 -0.856938,0.1172 -1.234863,0.35157 -0.377933,0.23438 -0.651859,0.57715 -0.821777,1.02832 -0.169925,0.45118 -0.254886,1.10157 -0.254883,1.95117 l 0,4.84277 z"
         style="font-size:18px"
         id="path3055" />
      <path
         d="m -17.230518,572.46497 c -0.585945,0.49804 -1.149909,0.84961 -1.691895,1.05468 -0.541997,0.20508 -1.123539,0.30762 -1.744629,0.30762 -1.025393,0 -1.813478,-0.25049 -2.364258,-0.75146 -0.550782,-0.50098 -0.826172,-1.14112 -0.826171,-1.92041 -1e-6,-0.45703 0.104003,-0.87451 0.312011,-1.25245 0.208007,-0.37792 0.480468,-0.68114 0.817383,-0.90966 0.336912,-0.22851 0.716306,-0.40137 1.138184,-0.51856 0.310543,-0.082 0.779293,-0.16113 1.40625,-0.2373 1.277338,-0.15234 2.217767,-0.33398 2.821289,-0.54493 0.0059,-0.21679 0.0088,-0.35448 0.0088,-0.41308 -7e-6,-0.64453 -0.149421,-1.09863 -0.448242,-1.36231 -0.404304,-0.35741 -1.004889,-0.53612 -1.801758,-0.53613 -0.744145,10e-6 -1.293461,0.13038 -1.647949,0.39111 -0.354496,0.26075 -0.616702,0.72218 -0.786622,1.38428 l -1.546875,-0.21094 c 0.140624,-0.6621 0.372069,-1.19676 0.694336,-1.604 0.322264,-0.40722 0.788084,-0.72069 1.397461,-0.94043 0.609372,-0.21972 1.315426,-0.32958 2.118164,-0.32959 0.796869,10e-6 1.44433,0.0938 1.942383,0.28125 0.49804,0.18751 0.86425,0.42335 1.098633,0.70752 0.234367,0.28419 0.398429,0.64307 0.492188,1.07666 0.05273,0.26954 0.07909,0.75587 0.0791,1.45899 l 0,2.10937 c -9e-6,1.47071 0.03368,2.40088 0.101074,2.79053 0.06737,0.38965 0.200675,0.76318 0.399903,1.1206 l -1.652344,0 c -0.16407,-0.32812 -0.269539,-0.71191 -0.316406,-1.15136 z m -0.131836,-3.53321 c -0.574226,0.23438 -1.435553,0.4336 -2.583985,0.59766 -0.650394,0.0937 -1.110355,0.19922 -1.379882,0.31641 -0.269535,0.11719 -0.477542,0.28857 -0.624024,0.51416 -0.146487,0.22558 -0.219729,0.47607 -0.219726,0.75146 -3e-6,0.42188 0.159665,0.77344 0.479003,1.05469 0.319333,0.28125 0.786618,0.42187 1.401856,0.42187 0.60937,0 1.151362,-0.1333 1.625976,-0.3999 0.474604,-0.2666 0.823236,-0.63135 1.045899,-1.09424 0.169915,-0.35742 0.254876,-0.88476 0.254883,-1.58203 z"
         style="font-size:18px"
         id="path3057" />
      <path
         d="m -14.356495,573.61633 3.410156,-4.85156 -3.155273,-4.48242 1.977539,0 1.432617,2.18848 c 0.269527,0.41602 0.486324,0.76465 0.650391,1.04589 0.2578076,-0.38671 0.495112,-0.72948 0.7119138,-1.02832 l 1.5732422,-2.20605 1.8896485,0 -3.225586,4.39453 3.4716797,4.93945 -1.9423828,0 -1.9160156,-2.90039 -0.5097656,-0.78222 -2.4521482,3.68261 z"
         style="font-size:18px"
         id="path3059" />
      <path
         d="m -3.8535652,573.61633 0,-1.80175 1.8017578,0 0,1.80175 z"
         style="font-size:18px"
         id="path3061" />
      <path
         d="m 11.202099,573.61633 -1.5820314,0 0,-10.08105 c -0.3808641,0.36329 -0.8803753,0.72657 -1.4985352,1.08984 -0.618167,0.36329 -1.1733423,0.63575 -1.6655273,0.81738 l 0,-1.52929 c 0.8847628,-0.41601 1.6581995,-0.91991 2.3203125,-1.51172 0.6621044,-0.59179 1.130854,-1.166 1.4062504,-1.72266 l 1.019531,0 z"
         style="font-size:18px"
         id="path3063" />
      <path
         d="m 20.333935,573.61633 0,-3.08496 -5.589844,0 0,-1.45019 5.879883,-8.34961 1.291992,0 0,8.34961 1.740234,0 0,1.45019 -1.740234,0 0,3.08496 z m 0,-4.53515 0,-5.80957 -4.03418,5.80957 z"
         style="font-size:18px"
         id="path3065" />
      <path
         d="m 33.491161,563.88684 -1.573242,0.12305 c -0.140632,-0.62109 -0.339851,-1.07226 -0.597656,-1.35352 -0.427741,-0.45116 -0.955084,-0.67674 -1.582031,-0.67676 -0.503911,2e-5 -0.946294,0.14064 -1.327149,0.42188 -0.49805,0.36329 -0.890628,0.89356 -1.177734,1.59082 -0.287112,0.69727 -0.436526,1.69044 -0.448242,2.97949 0.380856,-0.58007 0.846676,-1.01073 1.397461,-1.29199 0.550777,-0.28124 1.127925,-0.42187 1.731445,-0.42188 1.054681,10e-6 1.952629,0.3882 2.693848,1.16456 0.741202,0.77637 1.111807,1.77979 1.111816,3.01025 -9e-6,0.8086 -0.174325,1.56006 -0.522949,2.25439 -0.348641,0.69434 -0.827645,1.22608 -1.437012,1.59522 -0.609382,0.36914 -1.300787,0.55371 -2.074219,0.55371 -1.318363,0 -2.393557,-0.48486 -3.225586,-1.45459 -0.832032,-0.96972 -1.248047,-2.56787 -1.248047,-4.79443 0,-2.49023 0.45996,-4.30077 1.379883,-5.43164 0.802732,-0.98437 1.883785,-1.47655 3.243164,-1.47657 1.013666,2e-5 1.844231,0.2842 2.4917,0.85254 0.647452,0.56837 1.035635,1.35353 1.16455,2.35547 z m -6.459961,5.55469 c -2e-6,0.54492 0.11572,1.06641 0.347168,1.56445 0.231443,0.49805 0.555173,0.87744 0.971192,1.13819 0.416011,0.26074 0.852534,0.39111 1.30957,0.39111 0.667963,0 1.242181,-0.26953 1.722656,-0.8086 0.480462,-0.53906 0.720696,-1.27148 0.720703,-2.19726 -7e-6,-0.89062 -0.237312,-1.59228 -0.711914,-2.10498 -0.474615,-0.51269 -1.072271,-0.76904 -1.792968,-0.76904 -0.714848,0 -1.321293,0.25635 -1.819336,0.76904 -0.49805,0.5127 -0.747073,1.18506 -0.747071,2.01709 z"
         style="font-size:18px"
         id="path3067" />
      <path
         d="m 35.301708,567.26184 c -10e-7,-1.52343 0.156738,-2.7495 0.470215,-3.67822 0.313475,-0.9287 0.779295,-1.64501 1.397461,-2.14893 0.618161,-0.50389 1.395992,-0.75584 2.333496,-0.75586 0.691401,2e-5 1.297845,0.13918 1.819336,0.41748 0.521477,0.27834 0.952141,0.6797 1.291992,1.20411 0.339836,0.52442 0.606437,1.16309 0.799805,1.91601 0.19335,0.75294 0.29003,1.76807 0.290039,3.04541 -9e-6,1.51172 -0.155282,2.73194 -0.46582,3.66065 -0.310556,0.92871 -0.774911,1.64648 -1.393067,2.15332 -0.61817,0.50683 -1.398931,0.76025 -2.342285,0.76025 -1.242191,0 -2.217776,-0.44531 -2.926758,-1.33594 -0.84961,-1.07226 -1.274415,-2.81835 -1.274414,-5.23828 z m 1.625977,0 c -3e-6,2.11524 0.247556,3.52295 0.742676,4.22315 0.495113,0.70019 1.105952,1.05029 1.832519,1.05029 0.726557,0 1.337396,-0.35156 1.83252,-1.05469 0.49511,-0.70312 0.742668,-2.10937 0.742675,-4.21875 -7e-6,-2.12108 -0.247565,-3.53026 -0.742675,-4.22754 -0.495124,-0.69725 -1.111822,-1.04589 -1.850098,-1.0459 -0.726567,1e-5 -1.306644,0.30763 -1.740234,0.92285 -0.544925,0.78517 -0.817386,2.23536 -0.817383,4.35059 z"
         style="font-size:18px"
         id="path3069" />
      <path
         d="m 50.884716,573.61633 0,-12.88476 4.833984,0 c 0.984368,10e-6 1.773918,0.13038 2.368653,0.39111 0.594717,0.26076 1.060537,0.66212 1.397461,1.2041 0.336903,0.54201 0.50536,1.1089 0.505371,1.70069 -1.1e-5,0.55079 -0.149425,1.06934 -0.448242,1.55566 -0.298838,0.48634 -0.75001,0.87891 -1.353516,1.17773 0.779287,0.22853 1.378408,0.61817 1.797363,1.16895 0.418935,0.55079 0.628407,1.20118 0.628418,1.95117 -1.1e-5,0.60352 -0.127452,1.16455 -0.382324,1.68311 -0.254893,0.51855 -0.569834,0.91846 -0.944824,1.1997 -0.37501,0.28125 -0.845224,0.49366 -1.410645,0.63721 -0.565437,0.14356 -1.258308,0.21533 -2.078613,0.21533 z m 1.705078,-7.4707 2.786133,0 c 0.755853,10e-6 1.297844,-0.0498 1.625977,-0.14941 0.433585,-0.1289 0.760245,-0.34277 0.97998,-0.64161 0.219718,-0.29882 0.329581,-0.67381 0.32959,-1.125 -9e-6,-0.42772 -0.102548,-0.80418 -0.307617,-1.12939 -0.205087,-0.32518 -0.498055,-0.54784 -0.878907,-0.66797 -0.380866,-0.1201 -1.034186,-0.18016 -1.959961,-0.18017 l -2.575195,0 z m 0,5.9502 3.208008,0 c 0.550774,0 0.937493,-0.0205 1.160156,-0.0615 0.392571,-0.0703 0.720695,-0.1875 0.984375,-0.35156 0.263663,-0.16406 0.48046,-0.40283 0.650391,-0.71631 0.169913,-0.31347 0.254873,-0.67529 0.254883,-1.08545 -1e-5,-0.48046 -0.123056,-0.89794 -0.369141,-1.25244 -0.246102,-0.35449 -0.587411,-0.60351 -1.023926,-0.74707 -0.436531,-0.14355 -1.064948,-0.21533 -1.885254,-0.21533 l -2.979492,0 z"
         style="font-size:18px"
         id="path3071" />
      <path
         d="m 62.706005,577.21106 -0.175781,-1.48535 c 0.345702,0.0937 0.647459,0.14062 0.905273,0.14062 0.351561,0 0.63281,-0.0586 0.84375,-0.17578 0.210935,-0.11719 0.383786,-0.28125 0.518555,-0.49219 0.09961,-0.1582 0.260739,-0.55078 0.483398,-1.17773 0.02929,-0.0879 0.07617,-0.2168 0.140625,-0.38672 l -3.541992,-9.35156 1.705078,0 1.942383,5.40527 c 0.251949,0.68555 0.477535,1.40625 0.676758,2.16211 0.181636,-0.72656 0.398432,-1.43554 0.650391,-2.12695 l 1.995117,-5.44043 1.582031,0 -3.550781,9.49219 c -0.380865,1.02539 -0.676763,1.73144 -0.887696,2.11816 -0.281254,0.52148 -0.603519,0.90381 -0.966796,1.14697 -0.363285,0.24316 -0.796878,0.36475 -1.300782,0.36475 -0.304689,0 -0.644532,-0.0645 -1.019531,-0.19336 z"
         style="font-size:18px"
         id="path3073" />
      <path
         d="m 75.230419,572.20129 0.228516,1.39746 c -0.445317,0.0937 -0.843754,0.14063 -1.195313,0.14063 -0.574222,0 -1.019534,-0.0908 -1.335937,-0.27246 -0.316408,-0.18164 -0.539065,-0.42041 -0.667969,-0.71631 -0.128908,-0.2959 -0.193361,-0.91845 -0.193359,-1.86768 l 0,-5.37011 -1.160157,0 0,-1.23047 1.160157,0 0,-2.31152 1.573242,-0.94922 0,3.26074 1.59082,0 0,1.23047 -1.59082,0 0,5.45801 c -3e-6,0.45117 0.02783,0.74121 0.0835,0.87011 0.05566,0.12891 0.146481,0.23145 0.272461,0.30762 0.125973,0.0762 0.306149,0.11426 0.540527,0.11426 0.175777,0 0.407222,-0.0205 0.694336,-0.0615 z"
         style="font-size:18px"
         id="path3075" />
      <path
         d="m 83.158154,570.61047 1.634765,0.20215 c -0.257821,0.95508 -0.73536,1.69629 -1.432617,2.22363 -0.697273,0.52735 -1.587897,0.79102 -2.671875,0.79102 -1.365238,0 -2.447757,-0.42041 -3.247559,-1.26123 -0.799805,-0.84082 -1.199707,-2.02002 -1.199707,-3.5376 0,-1.5703 0.404296,-2.78905 1.212891,-3.65625 0.808591,-0.86718 1.857418,-1.30077 3.146484,-1.30078 1.248041,10e-6 2.267571,0.42481 3.058594,1.27442 0.791007,0.84961 1.186514,2.04492 1.186524,3.58593 -1e-5,0.0938 -0.0029,0.23438 -0.0088,0.42188 l -6.960937,0 c 0.05859,1.02539 0.34863,1.81055 0.870117,2.35547 0.521481,0.54492 1.171871,0.81738 1.951172,0.81738 0.580072,0 1.075189,-0.15234 1.485352,-0.45703 0.410149,-0.30469 0.735344,-0.79102 0.975586,-1.45899 z m -5.194336,-2.55761 5.211914,0 c -0.07032,-0.78515 -0.269539,-1.37402 -0.597657,-1.76661 -0.503912,-0.60936 -1.157232,-0.91405 -1.959961,-0.91406 -0.726566,10e-6 -1.337406,0.24317 -1.832519,0.72949 -0.49512,0.48634 -0.769045,1.13673 -0.821777,1.95118 z"
         style="font-size:18px"
         id="path3077" />
      <path
         d="m 87.825146,577.40442 -1.133789,0 c 1.75195,-2.8125 2.627926,-5.62793 2.627929,-8.44629 -3e-6,-1.10156 -0.12598,-2.19433 -0.377929,-3.27832 -0.199222,-0.8789 -0.477542,-1.72265 -0.834961,-2.53125 -0.228518,-0.52733 -0.700197,-1.40624 -1.415039,-2.63672 l 1.133789,0 c 1.101559,1.47072 1.916011,2.94728 2.443359,4.42969 0.451167,1.27735 0.676753,2.61329 0.676758,4.00781 -5e-6,1.58204 -0.303228,3.11133 -0.909668,4.58789 -0.606449,1.47656 -1.343265,2.76562 -2.210449,3.86719 z"
         style="font-size:18px"
         id="path3079" />
    </g>
    <g
       style="font-size:22px;font-style:normal;font-weight:normal;text-align:center;line-height:125%;letter-spacing:0px;word-spacing:0px;text-anchor:middle;fill:#000000;fill-opacity:1;stroke:none;font-family:Sans"
       id="text3094-1-0-7-5">
      <path
         d="m 184.30856,562.06934 0,-12.88477 4.86035,0 c 0.85547,10e-6 1.50879,0.041 1.95997,0.12305 0.6328,0.10548 1.16307,0.30616 1.59082,0.60205 0.42772,0.29591 0.77196,0.71046 1.03271,1.24365 0.26073,0.53321 0.3911,1.11915 0.39111,1.75781 -1e-5,1.09571 -0.34864,2.02296 -1.04589,2.78174 -0.69728,0.7588 -1.95704,1.13819 -3.7793,1.13818 l -3.30469,0 0,5.23829 z m 1.70508,-6.75879 3.33106,0 c 1.10155,0 1.88378,-0.20507 2.34668,-0.61524 0.46288,-0.41015 0.69432,-0.98729 0.69433,-1.73144 -10e-6,-0.53906 -0.13624,-1.00048 -0.40869,-1.38428 -0.27247,-0.38378 -0.63136,-0.6372 -1.07666,-0.76025 -0.28712,-0.0762 -0.81739,-0.11425 -1.59082,-0.11426 l -3.2959,0 z"
         style="font-size:18px"
         id="path3002" />
      <path
         d="m 196.11227,562.06934 0,-9.33399 1.42383,0 0,1.41504 c 0.36328,-0.6621 0.69873,-1.09862 1.00635,-1.30957 0.30761,-0.21093 0.64599,-0.3164 1.01514,-0.31641 0.53319,10e-6 1.07519,0.16994 1.62597,0.50977 l -0.54492,1.46777 c -0.38672,-0.2285 -0.77344,-0.34276 -1.16015,-0.34277 -0.34571,10e-6 -0.65626,0.10401 -0.93165,0.31201 -0.27539,0.20802 -0.47168,0.49659 -0.58886,0.86572 -0.17579,0.56251 -0.26368,1.17774 -0.26367,1.84571 l 0,4.88672 z"
         style="font-size:18px"
         id="path3004" />
      <path
         d="m 208.25876,562.06934 0,-1.3711 c -0.72657,1.05469 -1.71387,1.58203 -2.96192,1.58203 -0.55078,0 -1.06494,-0.10547 -1.54248,-0.3164 -0.47754,-0.21094 -0.83203,-0.47608 -1.06347,-0.79541 -0.23145,-0.31934 -0.39405,-0.71045 -0.4878,-1.17334 -0.0644,-0.31055 -0.0967,-0.80273 -0.0967,-1.47657 l 0,-5.7832 1.58204,0 0,5.17676 c -10e-6,0.82617 0.0322,1.38281 0.0967,1.66992 0.0996,0.41602 0.31054,0.74268 0.63281,0.97998 0.32226,0.23731 0.7207,0.35596 1.19531,0.35596 0.4746,0 0.91992,-0.12158 1.33594,-0.36475 0.41601,-0.24316 0.71044,-0.57421 0.8833,-0.99316 0.17284,-0.41894 0.25927,-1.02685 0.25928,-1.82373 l 0,-5.00098 1.58203,0 0,9.33399 z m -4.83399,-11.16211 0,-1.80176 1.65235,0 0,1.80176 z m 3.27832,0 0,-1.80176 1.65235,0 0,1.80176 z"
         style="font-size:18px"
         id="path3006" />
      <path
         d="m 212.53903,562.06934 0,-8.10352 -1.39746,0 0,-1.23047 1.39746,0 0,-0.99316 c 0,-0.62694 0.0557,-1.09276 0.16699,-1.39746 0.15235,-0.41015 0.42041,-0.74267 0.8042,-0.99756 0.38379,-0.25487 0.92139,-0.38231 1.6128,-0.38233 0.4453,2e-5 0.93749,0.0528 1.47656,0.15821 l -0.23731,1.37988 c -0.32813,-0.0586 -0.63867,-0.0879 -0.93164,-0.0879 -0.48047,10e-6 -0.82031,0.10255 -1.01953,0.30762 -0.19922,0.20509 -0.29883,0.58887 -0.29883,1.15136 l 0,0.86133 1.81934,0 0,1.23047 -1.81934,0 0,8.10352 z"
         style="font-size:18px"
         id="path3008" />
      <path
         d="m 216.52048,559.2832 1.56445,-0.24609 c 0.0879,0.62695 0.33252,1.10742 0.73389,1.44141 0.40136,0.33398 0.9624,0.50097 1.6831,0.50097 0.72656,0 1.26562,-0.14795 1.61719,-0.44385 0.35156,-0.29589 0.52734,-0.64306 0.52734,-1.0415 0,-0.35742 -0.15528,-0.63867 -0.46582,-0.84375 -0.2168,-0.14062 -0.75586,-0.31933 -1.61718,-0.53613 -1.16016,-0.29297 -1.96436,-0.54638 -2.4126,-0.76026 -0.44825,-0.21386 -0.78809,-0.50976 -1.01953,-0.88769 -0.23145,-0.37793 -0.34717,-0.79541 -0.34717,-1.25244 0,-0.41601 0.0952,-0.80126 0.28564,-1.15576 0.19043,-0.35449 0.44971,-0.64892 0.77784,-0.88331 0.24609,-0.18163 0.58154,-0.33544 1.00634,-0.46142 0.4248,-0.12597 0.88037,-0.18896 1.3667,-0.18897 0.73242,10e-6 1.37549,0.10548 1.9292,0.31641 0.55371,0.21095 0.9624,0.49659 1.22608,0.85693 0.26366,0.36036 0.4453,0.8423 0.54492,1.4458 l -1.54688,0.21094 c -0.0703,-0.48046 -0.27393,-0.85546 -0.61084,-1.125 -0.33692,-0.26952 -0.81299,-0.40429 -1.42822,-0.40429 -0.72657,0 -1.24512,0.12012 -1.55566,0.36035 -0.31055,0.24024 -0.46583,0.52149 -0.46582,0.84375 -10e-6,0.20508 0.0645,0.38965 0.19336,0.55371 0.1289,0.16993 0.33105,0.31055 0.60644,0.42187 0.1582,0.0586 0.62402,0.19337 1.39746,0.4043 1.11914,0.29883 1.8999,0.54346 2.34229,0.73389 0.44237,0.19043 0.78954,0.46729 1.0415,0.83056 0.25195,0.36329 0.37792,0.81446 0.37793,1.35352 -1e-5,0.52734 -0.15382,1.02393 -0.46143,1.48974 -0.30762,0.46583 -0.75147,0.82618 -1.33154,1.08106 -0.58008,0.25488 -1.23633,0.38232 -1.96875,0.38232 -1.21289,0 -2.13721,-0.25195 -2.77295,-0.75586 -0.63574,-0.5039 -1.0415,-1.25097 -1.21728,-2.24121 z"
         style="font-size:18px"
         id="path3010" />
      <path
         d="m 232.27048,562.06934 0,-1.3711 c -0.72657,1.05469 -1.71388,1.58203 -2.96192,1.58203 -0.55078,0 -1.06494,-0.10547 -1.54248,-0.3164 -0.47754,-0.21094 -0.83203,-0.47608 -1.06347,-0.79541 -0.23145,-0.31934 -0.39405,-0.71045 -0.4878,-1.17334 -0.0644,-0.31055 -0.0967,-0.80273 -0.0967,-1.47657 l 0,-5.7832 1.58203,0 0,5.17676 c 0,0.82617 0.0322,1.38281 0.0967,1.66992 0.0996,0.41602 0.31055,0.74268 0.63282,0.97998 0.32226,0.23731 0.7207,0.35596 1.19531,0.35596 0.4746,0 0.91992,-0.12158 1.33594,-0.36475 0.41601,-0.24316 0.71044,-0.57421 0.8833,-0.99316 0.17284,-0.41894 0.25927,-1.02685 0.25928,-1.82373 l 0,-5.00098 1.58203,0 0,9.33399 z"
         style="font-size:18px"
         id="path3012" />
      <path
         d="m 236.17282,562.06934 0,-9.33399 1.41504,0 0,1.30957 c 0.29297,-0.45702 0.68261,-0.8247 1.16895,-1.10303 0.48632,-0.27831 1.04003,-0.41747 1.66113,-0.41748 0.6914,10e-6 1.25829,0.14357 1.70068,0.43067 0.44238,0.28712 0.75439,0.68848 0.93604,1.2041 0.73827,-1.08984 1.69921,-1.63476 2.88281,-1.63477 0.92577,10e-6 1.63768,0.25636 2.13574,0.76905 0.49803,0.5127 0.74706,1.30225 0.74707,2.36865 l 0,6.40723 -1.57324,0 0,-5.87989 c -1e-5,-0.6328 -0.0513,-1.08837 -0.15381,-1.3667 -0.10255,-0.27831 -0.28858,-0.50243 -0.5581,-0.67236 -0.26955,-0.16991 -0.58595,-0.25487 -0.94922,-0.25488 -0.65626,1e-5 -1.20118,0.21827 -1.63477,0.65478 -0.4336,0.43653 -0.6504,1.13526 -0.65039,2.09619 l 0,5.42286 -1.58203,0 0,-6.06446 c -1e-5,-0.70312 -0.12891,-1.23046 -0.38672,-1.58203 -0.25782,-0.35155 -0.67969,-0.52733 -1.26562,-0.52734 -0.44532,1e-5 -0.85694,0.11719 -1.23487,0.35156 -0.37793,0.23438 -0.65186,0.57716 -0.82177,1.02832 -0.16993,0.45118 -0.25489,1.10157 -0.25489,1.95117 l 0,4.84278 z"
         style="font-size:18px"
         id="path3014" />
      <path
         d="m 251.18454,562.06934 0,-9.33399 1.41504,0 0,1.30957 c 0.29296,-0.45702 0.68261,-0.8247 1.16894,-1.10303 0.48633,-0.27831 1.04004,-0.41747 1.66114,-0.41748 0.6914,10e-6 1.25829,0.14357 1.70068,0.43067 0.44238,0.28712 0.75439,0.68848 0.93604,1.2041 0.73827,-1.08984 1.6992,-1.63476 2.88281,-1.63477 0.92577,10e-6 1.63768,0.25636 2.13574,0.76905 0.49803,0.5127 0.74706,1.30225 0.74707,2.36865 l 0,6.40723 -1.57324,0 0,-5.87989 c -10e-6,-0.6328 -0.0513,-1.08837 -0.15381,-1.3667 -0.10255,-0.27831 -0.28859,-0.50243 -0.55811,-0.67236 -0.26954,-0.16991 -0.58594,-0.25487 -0.94921,-0.25488 -0.65626,1e-5 -1.20119,0.21827 -1.63477,0.65478 -0.4336,0.43653 -0.6504,1.13526 -0.65039,2.09619 l 0,5.42286 -1.58203,0 0,-6.06446 c -10e-6,-0.70312 -0.12891,-1.23046 -0.38672,-1.58203 -0.25782,-0.35155 -0.67969,-0.52733 -1.26563,-0.52734 -0.44531,1e-5 -0.85693,0.11719 -1.23486,0.35156 -0.37793,0.23438 -0.65186,0.57716 -0.82178,1.02832 -0.16992,0.45118 -0.25488,1.10157 -0.25488,1.95117 l 0,4.84278 z"
         style="font-size:18px"
         id="path3016" />
      <path
         d="m 272.58591,559.06348 1.63476,0.20214 c -0.25782,0.95508 -0.73536,1.6963 -1.43261,2.22364 -0.69728,0.52734 -1.5879,0.79101 -2.67188,0.79101 -1.36524,0 -2.44776,-0.42041 -3.24756,-1.26123 -0.7998,-0.84082 -1.19971,-2.02001 -1.19971,-3.53759 0,-1.57031 0.4043,-2.78906 1.2129,-3.65625 0.80859,-0.86718 1.85741,-1.30078 3.14648,-1.30079 1.24804,10e-6 2.26757,0.42482 3.05859,1.27442 0.79101,0.84961 1.18652,2.04493 1.18653,3.58594 -1e-5,0.0937 -0.003,0.23438 -0.009,0.42187 l -6.96094,0 c 0.0586,1.02539 0.34863,1.81055 0.87012,2.35547 0.52148,0.54492 1.17187,0.81738 1.95117,0.81738 0.58007,0 1.07519,-0.15234 1.48535,-0.45703 0.41015,-0.30468 0.73535,-0.79101 0.97559,-1.45898 z m -5.19434,-2.55762 5.21192,0 c -0.0703,-0.78515 -0.26954,-1.37402 -0.59766,-1.7666 -0.50391,-0.60937 -1.15723,-0.91406 -1.95996,-0.91406 -0.72657,0 -1.33741,0.24317 -1.83252,0.72949 -0.49512,0.48633 -0.76905,1.13672 -0.82178,1.95117 z"
         style="font-size:18px"
         id="path3018" />
      <path
         d="m 201.64938,588.35742 c -0.87305,-1.10156 -1.61133,-2.39062 -2.21484,-3.86719 -0.60352,-1.47656 -0.90527,-3.00585 -0.90527,-4.58789 0,-1.39452 0.22558,-2.73046 0.67675,-4.00781 0.52735,-1.48241 1.3418,-2.95897 2.44336,-4.42969 l 1.13379,0 c -0.70899,1.21877 -1.17774,2.08888 -1.40625,2.61036 -0.35742,0.8086 -0.63867,1.65235 -0.84375,2.53125 -0.25195,1.09571 -0.37793,2.19727 -0.37793,3.30468 0,2.81836 0.87598,5.63379 2.62793,8.44629 z"
         style="font-size:18px"
         id="path3020" />
      <path
         d="m 212.51266,583.04883 0,1.52051 -8.5166,0 c -0.0117,-0.38086 0.0498,-0.74707 0.18457,-1.09864 0.2168,-0.58007 0.56397,-1.15136 1.04151,-1.71386 0.47753,-0.5625 1.16747,-1.21289 2.06982,-1.95118 1.40039,-1.14843 2.34668,-2.05809 2.83887,-2.729 0.49218,-0.67089 0.73827,-1.30517 0.73828,-1.90283 -1e-5,-0.62694 -0.22413,-1.15575 -0.67236,-1.58643 -0.44825,-0.43065 -1.03272,-0.64598 -1.75342,-0.64599 -0.76172,10e-6 -1.3711,0.22852 -1.82813,0.68554 -0.45703,0.45704 -0.68848,1.08986 -0.69433,1.89844 l -1.62598,-0.16699 c 0.11133,-1.21288 0.53027,-2.1372 1.25684,-2.77295 0.72656,-0.63573 1.70214,-0.9536 2.92676,-0.95361 1.23632,10e-6 2.21483,0.34278 2.93554,1.02832 0.7207,0.68555 1.08105,1.53516 1.08106,2.54882 -1e-5,0.51564 -0.10548,1.02247 -0.31641,1.52051 -0.21095,0.49806 -0.56104,1.02247 -1.05029,1.57324 -0.48927,0.55079 -1.30226,1.30665 -2.43897,2.26758 -0.94922,0.79688 -1.55859,1.33741 -1.82812,1.62158 -0.26954,0.28419 -0.49219,0.56983 -0.66797,0.85694 z"
         style="font-size:18px"
         id="path3022" />
      <path
         d="m 219.78122,584.56934 0,-12.88477 4.83398,0 c 0.98437,10e-6 1.77392,0.13038 2.36866,0.39111 0.59471,0.26076 1.06053,0.66212 1.39746,1.20411 0.3369,0.542 0.50536,1.10889 0.50537,1.70068 -10e-6,0.55079 -0.14943,1.06934 -0.44824,1.55566 -0.29884,0.48634 -0.75001,0.87892 -1.35352,1.17774 0.77929,0.22852 1.37841,0.61817 1.79736,1.16894 0.41894,0.55079 0.62841,1.20118 0.62842,1.95117 -10e-6,0.60352 -0.12745,1.16456 -0.38232,1.68311 -0.2549,0.51856 -0.56984,0.91846 -0.94483,1.19971 -0.37501,0.28125 -0.84522,0.49365 -1.41064,0.6372 -0.56544,0.14356 -1.25831,0.21534 -2.07861,0.21534 z m 1.70508,-7.47071 2.78613,0 c 0.75585,1e-5 1.29784,-0.0498 1.62598,-0.14941 0.43358,-0.1289 0.76024,-0.34277 0.97998,-0.6416 0.21972,-0.29882 0.32958,-0.67382 0.32959,-1.125 -1e-5,-0.42773 -0.10255,-0.80419 -0.30762,-1.1294 -0.20509,-0.32518 -0.49805,-0.54784 -0.87891,-0.66797 -0.38086,-0.1201 -1.03418,-0.18016 -1.95996,-0.18017 l -2.57519,0 z m 0,5.9502 3.20801,0 c 0.55077,0 0.93749,-0.0205 1.16015,-0.0615 0.39257,-0.0703 0.7207,-0.18749 0.98438,-0.35156 0.26366,-0.16406 0.48046,-0.40283 0.65039,-0.71631 0.16991,-0.31347 0.25487,-0.67529 0.25488,-1.08545 -1e-5,-0.48046 -0.12306,-0.89794 -0.36914,-1.25244 -0.2461,-0.35448 -0.58741,-0.60351 -1.02393,-0.74707 -0.43653,-0.14355 -1.06494,-0.21532 -1.88525,-0.21533 l -2.97949,0 z"
         style="font-size:18px"
         id="path3024" />
      <path
         d="m 231.60251,588.16406 -0.17578,-1.48535 c 0.3457,0.0937 0.64746,0.14062 0.90527,0.14063 0.35156,-10e-6 0.63281,-0.0586 0.84375,-0.17579 0.21094,-0.11718 0.38379,-0.28125 0.51856,-0.49218 0.0996,-0.15821 0.26073,-0.55079 0.48339,-1.17774 0.0293,-0.0879 0.0762,-0.21679 0.14063,-0.38672 l -3.54199,-9.35156 1.70507,0 1.94239,5.40527 c 0.25195,0.68556 0.47753,1.40626 0.67676,2.16211 0.18163,-0.72656 0.39843,-1.43554 0.65039,-2.12695 l 1.99511,-5.44043 1.58203,0 -3.55078,9.49219 c -0.38086,1.02539 -0.67676,1.73144 -0.88769,2.11816 -0.28126,0.52148 -0.60352,0.90381 -0.9668,1.14698 -0.36328,0.24316 -0.79688,0.36474 -1.30078,0.36474 -0.30469,0 -0.64453,-0.0645 -1.01953,-0.19336 z"
         style="font-size:18px"
         id="path3026" />
      <path
         d="m 244.12692,583.1543 0.22852,1.39746 c -0.44532,0.0937 -0.84376,0.14062 -1.19531,0.14062 -0.57423,0 -1.01954,-0.0908 -1.33594,-0.27246 -0.31641,-0.18164 -0.53907,-0.42041 -0.66797,-0.71631 -0.12891,-0.29589 -0.19336,-0.91845 -0.19336,-1.86767 l 0,-5.37012 -1.16016,0 0,-1.23047 1.16016,0 0,-2.31152 1.57324,-0.94922 0,3.26074 1.59082,0 0,1.23047 -1.59082,0 0,5.45801 c 0,0.45117 0.0278,0.74121 0.0835,0.87012 0.0557,0.1289 0.14648,0.23144 0.27246,0.30761 0.12597,0.0762 0.30615,0.11426 0.54053,0.11426 0.17577,0 0.40722,-0.0205 0.69433,-0.0615 z"
         style="font-size:18px"
         id="path3028" />
      <path
         d="m 252.05466,581.56348 1.63476,0.20214 c -0.25782,0.95508 -0.73536,1.6963 -1.43261,2.22364 -0.69728,0.52734 -1.5879,0.79101 -2.67188,0.79101 -1.36524,0 -2.44776,-0.42041 -3.24756,-1.26123 -0.7998,-0.84082 -1.19971,-2.02001 -1.19971,-3.53759 0,-1.57031 0.4043,-2.78906 1.2129,-3.65625 0.80859,-0.86718 1.85741,-1.30078 3.14648,-1.30079 1.24804,10e-6 2.26757,0.42482 3.05859,1.27442 0.79101,0.84961 1.18652,2.04493 1.18653,3.58594 -1e-5,0.0937 -0.003,0.23438 -0.009,0.42187 l -6.96094,0 c 0.0586,1.02539 0.34863,1.81055 0.87012,2.35547 0.52148,0.54492 1.17187,0.81738 1.95117,0.81738 0.58007,0 1.07519,-0.15234 1.48535,-0.45703 0.41015,-0.30468 0.73535,-0.79101 0.97559,-1.45898 z m -5.19434,-2.55762 5.21192,0 c -0.0703,-0.78515 -0.26954,-1.37402 -0.59766,-1.7666 -0.50391,-0.60937 -1.15723,-0.91406 -1.95996,-0.91406 -0.72657,0 -1.33741,0.24317 -1.83252,0.72949 -0.49512,0.48633 -0.76905,1.13672 -0.82178,1.95117 z"
         style="font-size:18px"
         id="path3030" />
      <path
         d="m 256.72165,588.35742 -1.13379,0 c 1.75195,-2.8125 2.62793,-5.62793 2.62793,-8.44629 0,-1.10155 -0.12598,-2.19433 -0.37793,-3.27832 -0.19922,-0.87889 -0.47754,-1.72264 -0.83496,-2.53125 -0.22852,-0.52733 -0.7002,-1.40624 -1.41504,-2.63672 l 1.13379,0 c 1.10156,1.47072 1.91601,2.94728 2.44336,4.42969 0.45117,1.27735 0.67675,2.61329 0.67676,4.00781 -10e-6,1.58204 -0.30323,3.11133 -0.90967,4.58789 -0.60645,1.47657 -1.34327,2.76563 -2.21045,3.86719 z"
         style="font-size:18px"
         id="path3032" />
    </g>
  </g>
</svg>
