<?xml version="1.0" encoding="UTF-8" standalone="no"?>
<svg
   xmlns:dc="http://purl.org/dc/elements/1.1/"
   xmlns:cc="http://creativecommons.org/ns#"
   xmlns:rdf="http://www.w3.org/1999/02/22-rdf-syntax-ns#"
   xmlns:svg="http://www.w3.org/2000/svg"
   xmlns="http://www.w3.org/2000/svg"
   xmlns:sodipodi="http://sodipodi.sourceforge.net/DTD/sodipodi-0.dtd"
   xmlns:inkscape="http://www.inkscape.org/namespaces/inkscape"
   id="svg2"
   height="550"
   width="700"
   version="1.2"
   sodipodi:docname="net_basic_osi.svg"
   inkscape:version="0.92.4 (5da689c313, 2019-01-14)">
  <sodipodi:namedview
     pagecolor="#ffffff"
     bordercolor="#666666"
     borderopacity="1"
     objecttolerance="10"
     gridtolerance="10"
     guidetolerance="10"
     inkscape:pageopacity="0"
     inkscape:pageshadow="2"
     inkscape:window-width="1920"
     inkscape:window-height="1027"
     id="namedview51"
     showgrid="false"
     inkscape:zoom="1.1596551"
     inkscape:cx="261.00507"
     inkscape:cy="275"
     inkscape:window-x="-8"
     inkscape:window-y="-8"
     inkscape:window-maximized="1"
     inkscape:current-layer="svg2" />
  <defs
     id="defs4" />
  <metadata
     id="metadata7">
    <rdf:RDF>
      <cc:Work
         rdf:about="">
        <dc:format>image/svg+xml</dc:format>
        <dc:type
           rdf:resource="http://purl.org/dc/dcmitype/StillImage" />
        <dc:title />
      </cc:Work>
    </rdf:RDF>
  </metadata>
  <rect
     width="679.81348"
     height="165.17542"
     rx="10"
     x="10.186552"
     y="109.82458"
     id="rect6978-9-64-0-1-4-0-6-1"
     style="color:#000000;display:inline;overflow:visible;visibility:visible;fill:#dedfe0;fill-opacity:1;fill-rule:nonzero;stroke:none;stroke-width:1;marker:none;enable-background:accumulate"
     ry="10" />
  <rect
     width="320"
     height="145"
     rx="5"
     ry="5"
     x="20"
     y="120"
     id="rect6978-9-9-5-0-1-7"
     style="color:#000000;display:inline;overflow:visible;visibility:visible;fill:#30ba78;fill-opacity:1;fill-rule:nonzero;stroke:none;stroke-width:1;marker:none;enable-background:accumulate" />
  <rect
     width="320"
     height="45"
     rx="5"
     ry="5"
     x="360"
     y="120"
     id="rect6978-9-9-5-0-1-7-7"
     style="color:#000000;display:inline;overflow:visible;visibility:visible;fill:#0c322c;fill-opacity:1;fill-rule:nonzero;stroke:none;stroke-width:1;marker:none;enable-background:accumulate" />
  <rect
     width="320"
     height="45"
     rx="5"
     ry="5"
     x="360"
     y="170"
     id="rect6978-9-9-5-0-1-7-7-9"
     style="color:#000000;display:inline;overflow:visible;visibility:visible;fill:#0c322c;fill-opacity:1;fill-rule:nonzero;stroke:none;stroke-width:1;marker:none;enable-background:accumulate" />
  <rect
     width="320"
     height="45"
     rx="5"
     ry="5"
     x="360"
     y="220"
     id="rect6978-9-9-5-0-1-7-7-9-6"
     style="color:#000000;display:inline;overflow:visible;visibility:visible;fill:#0c322c;fill-opacity:1;fill-rule:nonzero;stroke:none;stroke-width:1;marker:none;enable-background:accumulate" />
  <rect
     width="680"
     height="65"
     rx="10.001314"
     x="10"
     y="280"
     id="rect6978-9-64-0-1-4-0-6-1-9"
     style="color:#000000;display:inline;overflow:visible;visibility:visible;fill:#dedfe0;fill-opacity:1;fill-rule:nonzero;stroke:none;stroke-width:1;marker:none;enable-background:accumulate"
     ry="10" />
  <rect
     width="320"
     height="45"
     rx="5"
     ry="5"
     x="20"
     y="290"
     id="rect6978-9-9-5-0-1-7-7-9-6-2"
     style="color:#000000;display:inline;overflow:visible;visibility:visible;fill:#30ba78;fill-opacity:1;fill-rule:nonzero;stroke:none;stroke-width:1;marker:none;enable-background:accumulate" />
  <rect
     width="320"
     height="45"
     rx="5"
     ry="5"
     x="360"
     y="290"
     id="rect6978-9-9-5-0-1-7-7-9-6-0"
     style="color:#000000;display:inline;overflow:visible;visibility:visible;fill:#0c322c;fill-opacity:1;fill-rule:nonzero;stroke:none;stroke-width:1;marker:none;enable-background:accumulate" />
  <rect
     width="680"
     height="65"
     rx="10.001314"
     x="10"
     y="350"
     id="rect6978-9-64-0-1-4-0-6-1-9-4"
     style="color:#000000;display:inline;overflow:visible;visibility:visible;fill:#dedfe0;fill-opacity:1;fill-rule:nonzero;stroke:none;stroke-width:1;marker:none;enable-background:accumulate"
     ry="10" />
  <rect
     width="320"
     height="45"
     rx="5"
     ry="5"
     x="20"
     y="360"
     id="rect6978-9-9-5-0-1-7-7-9-6-2-8"
     style="color:#000000;display:inline;overflow:visible;visibility:visible;fill:#30ba78;fill-opacity:1;fill-rule:nonzero;stroke:none;stroke-width:1;marker:none;enable-background:accumulate" />
  <rect
     width="320"
     height="45"
     rx="5"
     ry="5"
     x="360"
     y="360"
     id="rect6978-9-9-5-0-1-7-7-9-6-0-3"
     style="color:#000000;display:inline;overflow:visible;visibility:visible;fill:#0c322c;fill-opacity:1;fill-rule:nonzero;stroke:none;stroke-width:1;marker:none;enable-background:accumulate" />
  <rect
     width="680"
     height="115"
     rx="10.00515"
     x="10"
     y="425"
     id="rect6978-9-64-0-1-4-0-6-1-3"
     style="color:#000000;display:inline;overflow:visible;visibility:visible;fill:#dedfe0;fill-opacity:1;fill-rule:nonzero;stroke:none;stroke-width:1;marker:none;enable-background:accumulate"
     ry="10" />
  <rect
     width="320"
     height="95"
     rx="5"
     ry="5"
     x="20"
     y="435"
     id="rect6978-9-9-5-0-1-7-5"
     style="color:#000000;display:inline;overflow:visible;visibility:visible;fill:#30ba78;fill-opacity:1;fill-rule:nonzero;stroke:none;stroke-width:1;marker:none;enable-background:accumulate" />
  <rect
     width="320"
     height="45"
     rx="5"
     ry="5"
     x="360"
     y="435"
     id="rect6978-9-9-5-0-1-7-7-7"
     style="color:#000000;display:inline;overflow:visible;visibility:visible;fill:#0c322c;fill-opacity:1;fill-rule:nonzero;stroke:none;stroke-width:1;marker:none;enable-background:accumulate" />
  <rect
     width="320"
     height="45"
     rx="5"
     ry="5"
     x="360"
     y="485"
     id="rect6978-9-9-5-0-1-7-7-9-0"
     style="color:#000000;display:inline;overflow:visible;visibility:visible;fill:#0c322c;fill-opacity:1;fill-rule:nonzero;stroke:none;stroke-width:1;marker:none;enable-background:accumulate" />
  <text
     xml:space="preserve"
     style="font-style:normal;font-variant:normal;font-weight:normal;font-stretch:normal;font-size:40px;line-height:125%;font-family:'Open Sans';-inkscape-font-specification:'Open Sans';letter-spacing:0px;word-spacing:0px;fill:#000000;fill-opacity:1;stroke:none"
     x="-179.99081"
     y="87.715889"
     id="text4080"><tspan
       id="tspan4082"
       x="-179.99081"
       y="87.715889" /></text>
  <g
     aria-label="アプリケーション層"
     style="font-style:normal;font-weight:normal;font-size:22px;line-height:125%;font-family:Sans;letter-spacing:0px;word-spacing:0px;fill:#000000;fill-opacity:1;stroke:none"
     id="text4084">
    <path
       d="m 90.729371,186.28536 c 0.066,0.572 0.088,1.056 0.088,1.584 0,3.674 -0.484,6.82 -3.894,8.91 -0.616,0.418 -1.364,0.77 -1.958,0.968 l 1.606,1.32 c 5.61,-2.794 6.138,-6.82 6.138,-12.782 z m 9.679999,-3.938 c -0.33,0.066 -1.121999,0.132 -1.539999,0.132 h -12.628 c -0.814,0 -1.738,-0.088 -2.508,-0.176 v 1.98 c 0.88,-0.088 1.694,-0.132 2.508,-0.132 h 12.518 c -0.704,1.364 -2.772,3.74 -4.796,4.928 l 1.452,1.166 c 2.508,-1.738 4.597999,-4.576 5.477999,-6.072 0.154,-0.242 0.44,-0.572 0.594,-0.792 z"
       style="font-style:normal;font-variant:normal;font-weight:normal;font-stretch:normal;font-family:'Noto Sans CJK JP';-inkscape-font-specification:'Noto Sans CJK JP';text-align:center;text-anchor:middle"
       id="path881" />
    <path
       d="m 122.16737,183.90936 c -0.814,0 -1.452,-0.66 -1.452,-1.452 0,-0.792 0.638,-1.474 1.452,-1.474 0.792,0 1.452,0.682 1.452,1.474 0,0.792 -0.66,1.452 -1.452,1.452 z m -14.102,-0.726 c -0.726,0 -1.606,-0.066 -2.2,-0.132 v 1.936 c 0.55,-0.022 1.32,-0.066 2.178,-0.066 h 11.264 c -0.308,2.112 -1.32,5.17 -2.882,7.172 -1.848,2.354 -4.312,4.224 -8.58,5.28 l 1.496,1.65 c 4.026,-1.254 6.644,-3.3 8.668,-5.874 1.738,-2.266 2.794,-5.808 3.278,-8.118 l 0.044,-0.242 c 0.264,0.088 0.55,0.132 0.836,0.132 1.364,0 2.464,-1.1 2.464,-2.464 0,-1.364 -1.1,-2.486 -2.464,-2.486 -1.364,0 -2.464,1.122 -2.464,2.486 0,0.242 0.044,0.484 0.11,0.704 -0.264,0.022 -0.506,0.022 -0.726,0.022 z"
       style="font-style:normal;font-variant:normal;font-weight:normal;font-stretch:normal;font-family:'Noto Sans CJK JP';-inkscape-font-specification:'Noto Sans CJK JP';text-align:center;text-anchor:middle"
       id="path883" />
    <path
       d="m 129.86737,181.73136 c 0.044,0.418 0.088,1.188 0.088,1.584 v 7.326 c 0,0.66 -0.066,1.364 -0.088,1.694 h 2.024 c -0.044,-0.396 -0.066,-1.122 -0.066,-1.672 v -7.348 c 0,-0.528 0.022,-1.166 0.066,-1.584 z m 10.186,-0.154 c 0.044,0.528 0.11,1.166 0.11,1.892 v 3.476 c 0,4.158 -0.264,5.94 -1.848,7.766 -1.364,1.54 -3.256,2.42 -5.28,2.926 l 1.43,1.518 c 1.606,-0.55 3.806,-1.496 5.236,-3.212 1.584,-1.892 2.288,-3.63 2.288,-8.91 v -3.564 c 0,-0.726 0.044,-1.364 0.088,-1.892 z"
       style="font-style:normal;font-variant:normal;font-weight:normal;font-stretch:normal;font-family:'Noto Sans CJK JP';-inkscape-font-specification:'Noto Sans CJK JP';text-align:center;text-anchor:middle"
       id="path885" />
    <path
       d="m 154.68337,185.00936 c 0.33,-0.792 0.616,-1.584 0.836,-2.222 0.154,-0.462 0.352,-1.034 0.55,-1.54 l -2.112,-0.418 c -0.044,0.638 -0.176,1.232 -0.33,1.76 -0.242,0.836 -0.638,1.98 -1.254,3.08 -0.748,1.342 -2.332,3.586 -3.916,4.73 l 1.738,1.034 c 1.298,-1.056 2.772,-3.058 3.674,-4.708 h 5.632 c -0.308,5.588 -2.684,8.47 -4.84,10.098 -0.484,0.396 -1.166,0.77 -1.782,1.012 l 1.87,1.276 c 3.784,-2.42 6.248,-6.094 6.6,-12.386 h 3.718 c 0.506,0 1.364,0.022 2.068,0.066 v -1.892 c -0.638,0.088 -1.518,0.11 -2.068,0.11 z"
       style="font-style:normal;font-variant:normal;font-weight:normal;font-stretch:normal;font-family:'Noto Sans CJK JP';-inkscape-font-specification:'Noto Sans CJK JP';text-align:center;text-anchor:middle"
       id="path887" />
    <path
       d="m 171.24937,190.88336 c 0.682,-0.066 1.848,-0.11 3.058,-0.11 h 12.078 c 0.99,0 1.914,0.088 2.354,0.11 v -2.156 c -0.484,0.044 -1.276,0.11 -2.376,0.11 h -12.056 c -1.232,0 -2.398,-0.066 -3.058,-0.11 z"
       style="font-style:normal;font-variant:normal;font-weight:normal;font-stretch:normal;font-family:'Noto Sans CJK JP';-inkscape-font-specification:'Noto Sans CJK JP';text-align:center;text-anchor:middle"
       id="path889" />
    <path
       d="m 197.19768,181.35736 -0.99,1.474 c 1.298,0.748 3.674,2.332 4.73,3.124 l 1.034,-1.496 c -0.946,-0.704 -3.476,-2.376 -4.774,-3.102 z m -3.3,15.708 1.012,1.804 c 2.046,-0.418 5.082,-1.452 7.304,-2.728 3.498,-2.068 6.534,-4.906 8.448,-7.876 l -1.056,-1.804 c -1.782,3.102 -4.686,5.962 -8.338,8.052 -2.222,1.276 -4.95,2.134 -7.37,2.552 z m -0.022,-10.758 -0.968,1.496 c 1.32,0.682 3.718,2.222 4.796,3.014 l 1.012,-1.54 c -0.968,-0.704 -3.52,-2.266 -4.84,-2.97 z"
       style="font-style:normal;font-variant:normal;font-weight:normal;font-stretch:normal;font-family:'Noto Sans CJK JP';-inkscape-font-specification:'Noto Sans CJK JP';text-align:center;text-anchor:middle"
       id="path891" />
    <path
       d="m 229.60368,199.48536 c -0.022,-0.308 -0.044,-0.836 -0.044,-1.188 v -10.956 c 0,-0.418 0,-0.88 0.022,-1.122 -0.286,0.022 -0.858,0.044 -1.342,0.044 h -8.514 c -0.572,0 -1.826,-0.044 -2.244,-0.088 v 1.716 c 0.396,-0.022 1.672,-0.066 2.244,-0.066 h 8.162 v 3.674 h -7.964 c -0.748,0 -1.54,-0.066 -1.958,-0.088 v 1.694 c 0.44,-0.022 1.21,-0.044 1.98,-0.044 h 7.942 v 3.916 h -8.866 c -0.748,0 -1.452,-0.044 -1.804,-0.088 v 1.76 c 0.352,-0.022 1.122,-0.066 1.804,-0.066 h 8.866 c 0,0.352 0,0.704 -0.022,0.902 z"
       style="font-style:normal;font-variant:normal;font-weight:normal;font-stretch:normal;font-family:'Noto Sans CJK JP';-inkscape-font-specification:'Noto Sans CJK JP';text-align:center;text-anchor:middle"
       id="path893" />
    <path
       d="m 239.56968,182.12736 -1.254,1.342 c 1.628,1.1 4.378,3.454 5.478,4.598 l 1.386,-1.386 c -1.232,-1.232 -4.048,-3.52 -5.61,-4.554 z m -1.892,14.74 1.166,1.804 c 3.674,-0.682 6.446,-2.024 8.646,-3.432 3.322,-2.068 5.874,-5.06 7.392,-7.81 l -1.056,-1.87 c -1.276,2.706 -3.96,5.962 -7.348,8.096 -2.09,1.298 -4.95,2.64 -8.8,3.212 z"
       style="font-style:normal;font-variant:normal;font-weight:normal;font-stretch:normal;font-family:'Noto Sans CJK JP';-inkscape-font-specification:'Noto Sans CJK JP';text-align:center;text-anchor:middle"
       id="path895" />
    <path
       d="m 273.51568,194.60136 v 1.232 h -8.492 v -1.232 z m -8.492,3.542 v -1.298 h 8.492 v 1.298 z m -1.562,1.782 h 1.562 v -0.66 h 8.492 v 0.616 h 1.65 v -6.38 h -11.704 z m 10.956,-15.906 h -13.046 v -1.826 h 13.046 z m -7.48,2.772 c -0.198,-0.44 -0.616,-0.99 -1.056,-1.452 h 6.292 c -0.33,0.462 -0.748,1.034 -1.1,1.452 z m 7.502,2.354 h -4.554 v -1.32 h 4.554 z m 0,2.354 h -4.554 v -1.364 h 4.554 z m -10.45,-1.364 h 4.378 v 1.364 h -4.378 z m 0,-2.31 h 4.378 v 1.32 h -4.378 z m 12.056,-6.952 h -16.302 v 6.358 c 0,3.52 -0.198,8.338 -2.376,11.748 0.418,0.176 1.122,0.594 1.43,0.836 2.244,-3.542 2.574,-8.866 2.574,-12.584 v -1.892 h 3.542 l -0.528,0.198 c 0.352,0.374 0.704,0.814 0.968,1.254 h -2.882 v 5.742 h 13.53 v -5.742 h -3.344 c 0.374,-0.396 0.748,-0.836 1.1,-1.298 l -0.462,-0.154 h 2.75 z"
       style="font-style:normal;font-variant:normal;font-weight:normal;font-stretch:normal;font-family:'Noto Sans CJK JP';-inkscape-font-specification:'Noto Sans CJK JP';text-align:center;text-anchor:middle"
       id="path897" />
  </g>
  <g
     aria-label="アプリケーション層"
     style="font-style:normal;font-weight:normal;font-size:22px;line-height:125%;font-family:Sans;letter-spacing:0px;word-spacing:0px;fill:#ffffff;fill-opacity:1;stroke:none"
     id="text4084-7">
    <path
       d="m 428.72937,138.63581 c 0.066,0.572 0.088,1.056 0.088,1.584 0,3.674 -0.484,6.82 -3.894,8.91 -0.616,0.418 -1.364,0.77 -1.958,0.968 l 1.606,1.32 c 5.61,-2.794 6.138,-6.82 6.138,-12.782 z m 9.68,-3.938 c -0.33,0.066 -1.122,0.132 -1.54,0.132 h -12.628 c -0.814,0 -1.738,-0.088 -2.508,-0.176 v 1.98 c 0.88,-0.088 1.694,-0.132 2.508,-0.132 h 12.518 c -0.704,1.364 -2.772,3.74 -4.796,4.928 l 1.452,1.166 c 2.508,-1.738 4.598,-4.576 5.478,-6.072 0.154,-0.242 0.44,-0.572 0.594,-0.792 z"
       style="font-style:normal;font-variant:normal;font-weight:normal;font-stretch:normal;font-family:'Noto Sans CJK JP';-inkscape-font-specification:'Noto Sans CJK JP';text-align:center;text-anchor:middle;fill:#ffffff"
       id="path970" />
    <path
       d="m 460.16737,136.25981 c -0.814,0 -1.452,-0.66 -1.452,-1.452 0,-0.792 0.638,-1.474 1.452,-1.474 0.792,0 1.452,0.682 1.452,1.474 0,0.792 -0.66,1.452 -1.452,1.452 z m -14.102,-0.726 c -0.726,0 -1.606,-0.066 -2.2,-0.132 v 1.936 c 0.55,-0.022 1.32,-0.066 2.178,-0.066 h 11.264 c -0.308,2.112 -1.32,5.17 -2.882,7.172 -1.848,2.354 -4.312,4.224 -8.58,5.28 l 1.496,1.65 c 4.026,-1.254 6.644,-3.3 8.668,-5.874 1.738,-2.266 2.794,-5.808 3.278,-8.118 l 0.044,-0.242 c 0.264,0.088 0.55,0.132 0.836,0.132 1.364,0 2.464,-1.1 2.464,-2.464 0,-1.364 -1.1,-2.486 -2.464,-2.486 -1.364,0 -2.464,1.122 -2.464,2.486 0,0.242 0.044,0.484 0.11,0.704 -0.264,0.022 -0.506,0.022 -0.726,0.022 z"
       style="font-style:normal;font-variant:normal;font-weight:normal;font-stretch:normal;font-family:'Noto Sans CJK JP';-inkscape-font-specification:'Noto Sans CJK JP';text-align:center;text-anchor:middle;fill:#ffffff"
       id="path972" />
    <path
       d="m 467.86737,134.08181 c 0.044,0.418 0.088,1.188 0.088,1.584 v 7.326 c 0,0.66 -0.066,1.364 -0.088,1.694 h 2.024 c -0.044,-0.396 -0.066,-1.122 -0.066,-1.672 v -7.348 c 0,-0.528 0.022,-1.166 0.066,-1.584 z m 10.186,-0.154 c 0.044,0.528 0.11,1.166 0.11,1.892 v 3.476 c 0,4.158 -0.264,5.94 -1.848,7.766 -1.364,1.54 -3.256,2.42 -5.28,2.926 l 1.43,1.518 c 1.606,-0.55 3.806,-1.496 5.236,-3.212 1.584,-1.892 2.288,-3.63 2.288,-8.91 v -3.564 c 0,-0.726 0.044,-1.364 0.088,-1.892 z"
       style="font-style:normal;font-variant:normal;font-weight:normal;font-stretch:normal;font-family:'Noto Sans CJK JP';-inkscape-font-specification:'Noto Sans CJK JP';text-align:center;text-anchor:middle;fill:#ffffff"
       id="path974" />
    <path
       d="m 492.68337,137.35981 c 0.33,-0.792 0.616,-1.584 0.836,-2.222 0.154,-0.462 0.352,-1.034 0.55,-1.54 l -2.112,-0.418 c -0.044,0.638 -0.176,1.232 -0.33,1.76 -0.242,0.836 -0.638,1.98 -1.254,3.08 -0.748,1.342 -2.332,3.586 -3.916,4.73 l 1.738,1.034 c 1.298,-1.056 2.772,-3.058 3.674,-4.708 h 5.632 c -0.308,5.588 -2.684,8.47 -4.84,10.098 -0.484,0.396 -1.166,0.77 -1.782,1.012 l 1.87,1.276 c 3.784,-2.42 6.248,-6.094 6.6,-12.386 h 3.718 c 0.506,0 1.364,0.022 2.068,0.066 v -1.892 c -0.638,0.088 -1.518,0.11 -2.068,0.11 z"
       style="font-style:normal;font-variant:normal;font-weight:normal;font-stretch:normal;font-family:'Noto Sans CJK JP';-inkscape-font-specification:'Noto Sans CJK JP';text-align:center;text-anchor:middle;fill:#ffffff"
       id="path976" />
    <path
       d="m 509.24937,143.23381 c 0.682,-0.066 1.848,-0.11 3.058,-0.11 h 12.078 c 0.99,0 1.914,0.088 2.354,0.11 v -2.156 c -0.484,0.044 -1.276,0.11 -2.376,0.11 h -12.056 c -1.232,0 -2.398,-0.066 -3.058,-0.11 z"
       style="font-style:normal;font-variant:normal;font-weight:normal;font-stretch:normal;font-family:'Noto Sans CJK JP';-inkscape-font-specification:'Noto Sans CJK JP';text-align:center;text-anchor:middle;fill:#ffffff"
       id="path978" />
    <path
       d="m 535.19768,133.70781 -0.99,1.474 c 1.298,0.748 3.674,2.332 4.73,3.124 l 1.034,-1.496 c -0.946,-0.704 -3.476,-2.376 -4.774,-3.102 z m -3.3,15.708 1.012,1.804 c 2.046,-0.418 5.082,-1.452 7.304,-2.728 3.498,-2.068 6.534,-4.906 8.448,-7.876 l -1.056,-1.804 c -1.782,3.102 -4.686,5.962 -8.338,8.052 -2.222,1.276 -4.95,2.134 -7.37,2.552 z m -0.022,-10.758 -0.968,1.496 c 1.32,0.682 3.718,2.222 4.796,3.014 l 1.012,-1.54 c -0.968,-0.704 -3.52,-2.266 -4.84,-2.97 z"
       style="font-style:normal;font-variant:normal;font-weight:normal;font-stretch:normal;font-family:'Noto Sans CJK JP';-inkscape-font-specification:'Noto Sans CJK JP';text-align:center;text-anchor:middle;fill:#ffffff"
       id="path980" />
    <path
       d="m 567.60368,151.83581 c -0.022,-0.308 -0.044,-0.836 -0.044,-1.188 v -10.956 c 0,-0.418 0,-0.88 0.022,-1.122 -0.286,0.022 -0.858,0.044 -1.342,0.044 h -8.514 c -0.572,0 -1.826,-0.044 -2.244,-0.088 v 1.716 c 0.396,-0.022 1.672,-0.066 2.244,-0.066 h 8.162 v 3.674 h -7.964 c -0.748,0 -1.54,-0.066 -1.958,-0.088 v 1.694 c 0.44,-0.022 1.21,-0.044 1.98,-0.044 h 7.942 v 3.916 h -8.866 c -0.748,0 -1.452,-0.044 -1.804,-0.088 v 1.76 c 0.352,-0.022 1.122,-0.066 1.804,-0.066 h 8.866 c 0,0.352 0,0.704 -0.022,0.902 z"
       style="font-style:normal;font-variant:normal;font-weight:normal;font-stretch:normal;font-family:'Noto Sans CJK JP';-inkscape-font-specification:'Noto Sans CJK JP';text-align:center;text-anchor:middle;fill:#ffffff"
       id="path982" />
    <path
       d="m 577.56968,134.47781 -1.254,1.342 c 1.628,1.1 4.378,3.454 5.478,4.598 l 1.386,-1.386 c -1.232,-1.232 -4.048,-3.52 -5.61,-4.554 z m -1.892,14.74 1.166,1.804 c 3.674,-0.682 6.446,-2.024 8.646,-3.432 3.322,-2.068 5.874,-5.06 7.392,-7.81 l -1.056,-1.87 c -1.276,2.706 -3.96,5.962 -7.348,8.096 -2.09,1.298 -4.95,2.64 -8.8,3.212 z"
       style="font-style:normal;font-variant:normal;font-weight:normal;font-stretch:normal;font-family:'Noto Sans CJK JP';-inkscape-font-specification:'Noto Sans CJK JP';text-align:center;text-anchor:middle;fill:#ffffff"
       id="path984" />
    <path
       d="m 611.51568,146.95181 v 1.232 h -8.492 v -1.232 z m -8.492,3.542 v -1.298 h 8.492 v 1.298 z m -1.562,1.782 h 1.562 v -0.66 h 8.492 v 0.616 h 1.65 v -6.38 h -11.704 z m 10.956,-15.906 h -13.046 v -1.826 h 13.046 z m -7.48,2.772 c -0.198,-0.44 -0.616,-0.99 -1.056,-1.452 h 6.292 c -0.33,0.462 -0.748,1.034 -1.1,1.452 z m 7.502,2.354 h -4.554 v -1.32 h 4.554 z m 0,2.354 h -4.554 v -1.364 h 4.554 z m -10.45,-1.364 h 4.378 v 1.364 h -4.378 z m 0,-2.31 h 4.378 v 1.32 h -4.378 z m 12.056,-6.952 h -16.302 v 6.358 c 0,3.52 -0.198,8.338 -2.376,11.748 0.418,0.176 1.122,0.594 1.43,0.836 2.244,-3.542 2.574,-8.866 2.574,-12.584 v -1.892 h 3.542 l -0.528,0.198 c 0.352,0.374 0.704,0.814 0.968,1.254 h -2.882 v 5.742 h 13.53 v -5.742 h -3.344 c 0.374,-0.396 0.748,-0.836 1.1,-1.298 l -0.462,-0.154 h 2.75 z"
       style="font-style:normal;font-variant:normal;font-weight:normal;font-stretch:normal;font-family:'Noto Sans CJK JP';-inkscape-font-specification:'Noto Sans CJK JP';text-align:center;text-anchor:middle;fill:#ffffff"
       id="path986" />
  </g>
  <g
     aria-label="プレゼンテーション層"
     style="font-style:normal;font-weight:normal;font-size:22px;line-height:125%;font-family:Sans;letter-spacing:0px;word-spacing:0px;fill:#ffffff;fill-opacity:1;stroke:none"
     id="text4084-4">
    <path
       d="m 428.05262,185.70178 c -0.81399,0 -1.452,-0.66 -1.452,-1.452 0,-0.792 0.63801,-1.474 1.452,-1.474 0.792,0 1.452,0.682 1.452,1.474 0,0.792 -0.66,1.452 -1.452,1.452 z m -14.102,-0.726 c -0.726,0 -1.606,-0.066 -2.19999,-0.132 v 1.936 c 0.55,-0.022 1.31999,-0.066 2.17799,-0.066 h 11.26401 c -0.308,2.112 -1.32,5.17 -2.882,7.172 -1.84801,2.354 -4.31201,4.224 -8.58001,5.28 l 1.49601,1.65 c 4.026,-1.254 6.644,-3.3 8.668,-5.874 1.738,-2.266 2.79399,-5.808 3.27799,-8.118 l 0.044,-0.242 c 0.26399,0.088 0.54999,0.132 0.83599,0.132 1.364,0 2.464,-1.1 2.464,-2.464 0,-1.364 -1.1,-2.486 -2.464,-2.486 -1.364,0 -2.464,1.122 -2.464,2.486 0,0.242 0.044,0.484 0.11,0.704 -0.264,0.022 -0.50599,0.022 -0.726,0.022 z"
       style="font-style:normal;font-variant:normal;font-weight:normal;font-stretch:normal;font-family:'Noto Sans CJK JP';-inkscape-font-specification:'Noto Sans CJK JP';text-align:center;text-anchor:middle;fill:#ffffff"
       id="path989" />
    <path
       d="m 437.05063,200.44178 c 0.32999,-0.22 0.68199,-0.33 0.92399,-0.396 5.478,-1.606 10.01,-4.312 12.87,-7.854 l -0.99,-1.54 c -2.728,3.542 -7.832,6.446 -12.034,7.502 v -12.474 c 0,-0.638 0.066,-1.452 0.154,-2.002 h -2.156 c 0.066,0.44 0.176,1.408 0.176,2.002 v 12.584 c 0,0.44 -0.066,0.726 -0.21999,1.078 z"
       style="font-style:normal;font-variant:normal;font-weight:normal;font-stretch:normal;font-family:'Noto Sans CJK JP';-inkscape-font-specification:'Noto Sans CJK JP';text-align:center;text-anchor:middle;fill:#ffffff"
       id="path991" />
    <path
       d="m 471.45862,185.54778 c -0.462,-0.88 -1.25399,-2.222 -1.804,-3.014 l -1.16599,0.506 c 0.59399,0.836 1.34199,2.156 1.78199,3.036 z m -10.36199,-0.088 c 0,-0.638 0.066,-1.386 0.154,-2.024 h -2.06801 c 0.11,0.638 0.132,1.364 0.132,2.024 v 3.762 c -2.332,0.44 -4.4,0.814 -5.39,0.924 l 0.33,1.848 c 0.90201,-0.198 2.838,-0.594 5.06,-1.034 v 6.644 c 0,2.156 0.77001,3.234 4.862,3.234 2.75,0 4.95,-0.176 6.90801,-0.462 l 0.066,-1.892 c -2.178,0.44 -4.28999,0.66 -6.842,0.66 -2.63999,0 -3.21199,-0.484 -3.21199,-2.002 v -6.556 c 3.894,-0.792 7.964,-1.606 8.33799,-1.672 -0.65999,1.298 -2.26599,3.718 -3.916,5.236 l 1.51801,0.902 c 1.78199,-1.804 3.49799,-4.576 4.50999,-6.402 0.154,-0.264 0.39601,-0.638 0.55001,-0.88 l -1.298,-1.012 c -0.26401,0.176 -0.68201,0.286 -1.166,0.396 -0.92401,0.22 -4.796,1.012 -8.536,1.738 z m 9.812,-3.3 c 0.63799,0.814 1.342,2.068 1.82599,3.014 l 1.188,-0.528 c -0.418,-0.814 -1.276,-2.178 -1.84799,-2.992 z"
       style="font-style:normal;font-variant:normal;font-weight:normal;font-stretch:normal;font-family:'Noto Sans CJK JP';-inkscape-font-specification:'Noto Sans CJK JP';text-align:center;text-anchor:middle;fill:#ffffff"
       id="path993" />
    <path
       d="m 479.88463,183.91978 -1.25401,1.342 c 1.628,1.1 4.378,3.454 5.47801,4.598 l 1.38599,-1.386 c -1.23199,-1.232 -4.048,-3.52 -5.60999,-4.554 z m -1.89201,14.74 1.166,1.804 c 3.674,-0.682 6.446,-2.024 8.646,-3.432 3.322,-2.068 5.874,-5.06 7.392,-7.81 l -1.056,-1.87 c -1.276,2.706 -3.95999,5.962 -7.348,8.096 -2.09,1.298 -4.95,2.64 -8.8,3.212 z"
       style="font-style:normal;font-variant:normal;font-weight:normal;font-stretch:normal;font-family:'Noto Sans CJK JP';-inkscape-font-specification:'Noto Sans CJK JP';text-align:center;text-anchor:middle;fill:#ffffff"
       id="path995" />
    <path
       d="m 512.51062,185.52578 c 0.63801,0 1.40801,0.022 2.04601,0.066 v -1.826 c -0.638,0.088 -1.43001,0.132 -2.04601,0.132 h -8.91 c -0.704,0 -1.364,-0.066 -1.97999,-0.132 v 1.826 c 0.54999,-0.044 1.27599,-0.066 2.002,-0.066 z m -11.594,3.872 c -0.682,0 -1.31999,-0.044 -1.91399,-0.11 v 1.826 c 0.594,-0.044 1.23199,-0.044 1.91399,-0.044 h 6.578 c -0.066,2.068 -0.308,3.916 -1.276,5.456 -0.85799,1.386 -2.44199,2.662 -4.15799,3.366 l 1.62799,1.188 c 1.87,-0.946 3.542,-2.53 4.334,-4.004 0.88,-1.628 1.232,-3.63 1.298,-6.006 h 5.984 c 0.528,0 1.232,0.022 1.716,0.044 v -1.826 c -0.528,0.088 -1.254,0.11 -1.716,0.11 z"
       style="font-style:normal;font-variant:normal;font-weight:normal;font-stretch:normal;font-family:'Noto Sans CJK JP';-inkscape-font-specification:'Noto Sans CJK JP';text-align:center;text-anchor:middle;fill:#ffffff"
       id="path997" />
    <path
       d="m 521.13463,192.67578 c 0.682,-0.066 1.84799,-0.11 3.058,-0.11 h 12.07799 c 0.99,0 1.914,0.088 2.35401,0.11 v -2.156 c -0.48401,0.044 -1.27601,0.11 -2.37601,0.11 h -12.05599 c -1.232,0 -2.39801,-0.066 -3.058,-0.11 z"
       style="font-style:normal;font-variant:normal;font-weight:normal;font-stretch:normal;font-family:'Noto Sans CJK JP';-inkscape-font-specification:'Noto Sans CJK JP';text-align:center;text-anchor:middle;fill:#ffffff"
       id="path999" />
    <path
       d="m 547.08294,183.14978 -0.99,1.474 c 1.298,0.748 3.674,2.332 4.73,3.124 l 1.034,-1.496 c -0.946,-0.704 -3.476,-2.376 -4.774,-3.102 z m -3.3,15.708 1.012,1.804 c 2.046,-0.418 5.082,-1.452 7.304,-2.728 3.498,-2.068 6.534,-4.906 8.448,-7.876 l -1.056,-1.804 c -1.782,3.102 -4.686,5.962 -8.338,8.052 -2.222,1.276 -4.95,2.134 -7.37,2.552 z m -0.022,-10.758 -0.968,1.496 c 1.32,0.682 3.718,2.222 4.796,3.014 l 1.012,-1.54 c -0.968,-0.704 -3.52,-2.266 -4.84,-2.97 z"
       style="font-style:normal;font-variant:normal;font-weight:normal;font-stretch:normal;font-family:'Noto Sans CJK JP';-inkscape-font-specification:'Noto Sans CJK JP';text-align:center;text-anchor:middle;fill:#ffffff"
       id="path1001" />
    <path
       d="m 579.48894,201.27778 c -0.022,-0.308 -0.044,-0.836 -0.044,-1.188 v -10.956 c 0,-0.418 0,-0.88 0.022,-1.122 -0.286,0.022 -0.858,0.044 -1.342,0.044 h -8.514 c -0.572,0 -1.826,-0.044 -2.244,-0.088 v 1.716 c 0.396,-0.022 1.672,-0.066 2.244,-0.066 h 8.162 v 3.674 h -7.964 c -0.748,0 -1.54,-0.066 -1.958,-0.088 v 1.694 c 0.44,-0.022 1.21,-0.044 1.98,-0.044 h 7.942 v 3.916 h -8.866 c -0.748,0 -1.452,-0.044 -1.804,-0.088 v 1.76 c 0.352,-0.022 1.122,-0.066 1.804,-0.066 h 8.866 c 0,0.352 0,0.704 -0.022,0.902 z"
       style="font-style:normal;font-variant:normal;font-weight:normal;font-stretch:normal;font-family:'Noto Sans CJK JP';-inkscape-font-specification:'Noto Sans CJK JP';text-align:center;text-anchor:middle;fill:#ffffff"
       id="path1003" />
    <path
       d="m 589.45494,183.91978 -1.254,1.342 c 1.628,1.1 4.378,3.454 5.478,4.598 l 1.386,-1.386 c -1.232,-1.232 -4.048,-3.52 -5.61,-4.554 z m -1.892,14.74 1.166,1.804 c 3.674,-0.682 6.446,-2.024 8.646,-3.432 3.322,-2.068 5.874,-5.06 7.392,-7.81 l -1.056,-1.87 c -1.276,2.706 -3.96,5.962 -7.348,8.096 -2.09,1.298 -4.95,2.64 -8.8,3.212 z"
       style="font-style:normal;font-variant:normal;font-weight:normal;font-stretch:normal;font-family:'Noto Sans CJK JP';-inkscape-font-specification:'Noto Sans CJK JP';text-align:center;text-anchor:middle;fill:#ffffff"
       id="path1005" />
    <path
       d="m 623.40094,196.39378 v 1.232 h -8.492 v -1.232 z m -8.492,3.542 v -1.298 h 8.492 v 1.298 z m -1.562,1.782 h 1.562 v -0.66 h 8.492 v 0.616 h 1.65 v -6.38 h -11.704 z m 10.956,-15.906 h -13.046 v -1.826 h 13.046 z m -7.48,2.772 c -0.198,-0.44 -0.616,-0.99 -1.056,-1.452 h 6.292 c -0.33,0.462 -0.748,1.034 -1.1,1.452 z m 7.502,2.354 h -4.554 v -1.32 h 4.554 z m 0,2.354 h -4.554 v -1.364 h 4.554 z m -10.45,-1.364 h 4.378 v 1.364 h -4.378 z m 0,-2.31 h 4.378 v 1.32 h -4.378 z m 12.056,-6.952 h -16.302 v 6.358 c 0,3.52 -0.198,8.338 -2.376,11.748 0.418,0.176 1.122,0.594 1.43,0.836 2.244,-3.542 2.574,-8.866 2.574,-12.584 v -1.892 h 3.542 l -0.528,0.198 c 0.352,0.374 0.704,0.814 0.968,1.254 h -2.882 v 5.742 h 13.53 v -5.742 h -3.344 c 0.374,-0.396 0.748,-0.836 1.1,-1.298 l -0.462,-0.154 h 2.75 z"
       style="font-style:normal;font-variant:normal;font-weight:normal;font-stretch:normal;font-family:'Noto Sans CJK JP';-inkscape-font-specification:'Noto Sans CJK JP';text-align:center;text-anchor:middle;fill:#ffffff"
       id="path1007" />
  </g>
  <g
     aria-label="セッション層"
     style="font-style:normal;font-weight:normal;font-size:22px;line-height:125%;font-family:Sans;letter-spacing:0px;word-spacing:0px;fill:#ffffff;fill-opacity:1;stroke:none"
     id="text4084-6">
    <path
       d="m 470.28066,243.54013 c 1.76,-1.826 3.476,-4.576 4.488,-6.402 0.154,-0.286 0.396,-0.66 0.55,-0.88 l -1.298,-1.012 c -0.264,0.154 -0.682,0.286 -1.166,0.396 -0.924,0.198 -4.774,0.99 -8.514,1.716 v -3.432 c 0,-0.638 0.044,-1.386 0.154,-2.024 h -2.09 c 0.11,0.638 0.154,1.364 0.154,2.024 v 3.762 c -2.332,0.44 -4.422,0.814 -5.412,0.946 l 0.352,1.848 c 0.88,-0.198 2.838,-0.616 5.06,-1.056 v 6.644 c 0,2.178 0.748,3.234 4.84,3.234 2.75,0 4.95,-0.176 6.908,-0.44 l 0.088,-1.892 c -2.2,0.418 -4.312,0.638 -6.864,0.638 -2.64,0 -3.19,-0.484 -3.19,-2.002 v -6.534 c 3.894,-0.792 7.942,-1.606 8.316,-1.694 -0.66,1.32 -2.266,3.74 -3.916,5.236 z"
       style="font-style:normal;font-variant:normal;font-weight:normal;font-stretch:normal;font-family:'Noto Sans CJK JP';-inkscape-font-specification:'Noto Sans CJK JP';text-align:center;text-anchor:middle;fill:#ffffff"
       id="path1010" />
    <path
       d="m 488.45266,236.23613 -1.606,0.55 c 0.462,0.99 1.474,3.784 1.716,4.774 l 1.628,-0.572 c -0.286,-0.968 -1.364,-3.872 -1.738,-4.752 z m 6.072,0.638 c -0.33,2.816 -1.474,5.61 -3.036,7.524 -1.804,2.266 -4.598,3.938 -7.15,4.664 l 1.452,1.496 c 2.464,-0.946 5.148,-2.662 7.172,-5.236 1.584,-1.98 2.53,-4.334 3.124,-6.754 0.088,-0.286 0.176,-0.638 0.33,-1.1 z m -11.176,0.462 -1.628,0.638 c 0.44,0.77 1.628,3.806 1.958,4.95 l 1.672,-0.616 c -0.418,-1.144 -1.562,-4.026 -2.002,-4.972 z"
       style="font-style:normal;font-variant:normal;font-weight:normal;font-stretch:normal;font-family:'Noto Sans CJK JP';-inkscape-font-specification:'Noto Sans CJK JP';text-align:center;text-anchor:middle;fill:#ffffff"
       id="path1012" />
    <path
       d="m 506.44866,232.01213 -0.99,1.474 c 1.298,0.748 3.674,2.332 4.73,3.124 l 1.034,-1.496 c -0.946,-0.704 -3.476,-2.376 -4.774,-3.102 z m -3.3,15.708 1.012,1.804 c 2.046,-0.418 5.082,-1.452 7.304,-2.728 3.498,-2.068 6.534,-4.906 8.448,-7.876 l -1.056,-1.804 c -1.782,3.102 -4.686,5.962 -8.338,8.052 -2.222,1.276 -4.95,2.134 -7.37,2.552 z m -0.022,-10.758 -0.968,1.496 c 1.32,0.682 3.718,2.222 4.796,3.014 l 1.012,-1.54 c -0.968,-0.704 -3.52,-2.266 -4.84,-2.97 z"
       style="font-style:normal;font-variant:normal;font-weight:normal;font-stretch:normal;font-family:'Noto Sans CJK JP';-inkscape-font-specification:'Noto Sans CJK JP';text-align:center;text-anchor:middle;fill:#ffffff"
       id="path1014" />
    <path
       d="m 538.85466,250.14013 c -0.022,-0.308 -0.044,-0.836 -0.044,-1.188 v -10.956 c 0,-0.418 0,-0.88 0.022,-1.122 -0.286,0.022 -0.858,0.044 -1.342,0.044 h -8.514 c -0.572,0 -1.826,-0.044 -2.244,-0.088 v 1.716 c 0.396,-0.022 1.672,-0.066 2.244,-0.066 h 8.162 v 3.674 h -7.964 c -0.748,0 -1.54,-0.066 -1.958,-0.088 v 1.694 c 0.44,-0.022 1.21,-0.044 1.98,-0.044 h 7.942 v 3.916 h -8.866 c -0.748,0 -1.452,-0.044 -1.804,-0.088 v 1.76 c 0.352,-0.022 1.122,-0.066 1.804,-0.066 h 8.866 c 0,0.352 0,0.704 -0.022,0.902 z"
       style="font-style:normal;font-variant:normal;font-weight:normal;font-stretch:normal;font-family:'Noto Sans CJK JP';-inkscape-font-specification:'Noto Sans CJK JP';text-align:center;text-anchor:middle;fill:#ffffff"
       id="path1016" />
    <path
       d="m 548.82066,232.78213 -1.254,1.342 c 1.628,1.1 4.378,3.454 5.478,4.598 l 1.386,-1.386 c -1.232,-1.232 -4.048,-3.52 -5.61,-4.554 z m -1.892,14.74 1.166,1.804 c 3.674,-0.682 6.446,-2.024 8.646,-3.432 3.322,-2.068 5.874,-5.06 7.392,-7.81 l -1.056,-1.87 c -1.276,2.706 -3.96,5.962 -7.348,8.096 -2.09,1.298 -4.95,2.64 -8.8,3.212 z"
       style="font-style:normal;font-variant:normal;font-weight:normal;font-stretch:normal;font-family:'Noto Sans CJK JP';-inkscape-font-specification:'Noto Sans CJK JP';text-align:center;text-anchor:middle;fill:#ffffff"
       id="path1018" />
    <path
       d="m 582.76666,245.25613 v 1.232 h -8.492 v -1.232 z m -8.492,3.542 v -1.298 h 8.492 v 1.298 z m -1.562,1.782 h 1.562 v -0.66 h 8.492 v 0.616 h 1.65 v -6.38 h -11.704 z m 10.956,-15.906 h -13.046 v -1.826 h 13.046 z m -7.48,2.772 c -0.198,-0.44 -0.616,-0.99 -1.056,-1.452 h 6.292 c -0.33,0.462 -0.748,1.034 -1.1,1.452 z m 7.502,2.354 h -4.554 v -1.32 h 4.554 z m 0,2.354 h -4.554 v -1.364 h 4.554 z m -10.45,-1.364 h 4.378 v 1.364 h -4.378 z m 0,-2.31 h 4.378 v 1.32 h -4.378 z m 12.056,-6.952 h -16.302 v 6.358 c 0,3.52 -0.198,8.338 -2.376,11.748 0.418,0.176 1.122,0.594 1.43,0.836 2.244,-3.542 2.574,-8.866 2.574,-12.584 v -1.892 h 3.542 l -0.528,0.198 c 0.352,0.374 0.704,0.814 0.968,1.254 h -2.882 v 5.742 h 13.53 v -5.742 h -3.344 c 0.374,-0.396 0.748,-0.836 1.1,-1.298 l -0.462,-0.154 h 2.75 z"
       style="font-style:normal;font-variant:normal;font-weight:normal;font-stretch:normal;font-family:'Noto Sans CJK JP';-inkscape-font-specification:'Noto Sans CJK JP';text-align:center;text-anchor:middle;fill:#ffffff"
       id="path1020" />
  </g>
  <g
     aria-label="トランスポート層"
     style="font-style:normal;font-weight:normal;font-size:22px;line-height:125%;font-family:Sans;letter-spacing:0px;word-spacing:0px;fill:#ffffff;fill-opacity:1;stroke:none"
     id="text4084-5">
    <path
       d="m 451.55887,314.23216 c -2.332,-1.166 -6.49,-2.75 -9.394,-3.63 v -3.586 c 0,-0.66 0.088,-1.606 0.154,-2.288 h -2.156 c 0.132,0.682 0.176,1.672 0.176,2.288 v 12.804 c 0,0.814 -0.044,1.892 -0.132,2.596 h 2.112 c -0.088,-0.726 -0.132,-1.892 -0.132,-2.596 l -0.022,-7.26 c 2.442,0.77 6.248,2.244 8.646,3.542 z"
       style="font-style:normal;font-variant:normal;font-weight:normal;font-stretch:normal;font-family:'Noto Sans CJK JP';-inkscape-font-specification:'Noto Sans CJK JP';text-align:center;text-anchor:middle;fill:#ffffff"
       id="path1023" />
    <path
       d="m 472.98687,310.38216 c -0.242,0.132 -0.704,0.176 -1.21,0.176 h -11.594 c -0.594,0 -1.342,-0.044 -2.134,-0.132 v 1.848 c 0.77,-0.044 1.606,-0.066 2.134,-0.066 h 11.682 c -0.396,1.584 -1.276,3.454 -2.618,4.862 -1.87,1.958 -4.62,3.388 -7.744,4.026 l 1.364,1.562 c 2.794,-0.77 5.566,-2.068 7.876,-4.598 1.628,-1.782 2.618,-4.07 3.212,-6.248 0.044,-0.154 0.176,-0.44 0.286,-0.638 z m -12.98,-3.19 c 0.594,-0.044 1.298,-0.066 1.98,-0.066 h 8.624 c 0.748,0 1.496,0.022 2.024,0.066 v -1.826 c -0.528,0.088 -1.298,0.11 -2.002,0.11 h -8.646 c -0.704,0 -1.408,-0.022 -1.98,-0.11 z"
       style="font-style:normal;font-variant:normal;font-weight:normal;font-stretch:normal;font-family:'Noto Sans CJK JP';-inkscape-font-specification:'Noto Sans CJK JP';text-align:center;text-anchor:middle;fill:#ffffff"
       id="path1025" />
    <path
       d="m 481.91887,305.63016 -1.254,1.342 c 1.628,1.1 4.378,3.454 5.478,4.598 l 1.386,-1.386 c -1.232,-1.232 -4.048,-3.52 -5.61,-4.554 z m -1.892,14.74 1.166,1.804 c 3.674,-0.682 6.446,-2.024 8.646,-3.432 3.322,-2.068 5.874,-5.06 7.392,-7.81 l -1.056,-1.87 c -1.276,2.706 -3.96,5.962 -7.348,8.096 -2.09,1.298 -4.95,2.64 -8.8,3.212 z"
       style="font-style:normal;font-variant:normal;font-weight:normal;font-stretch:normal;font-family:'Noto Sans CJK JP';-inkscape-font-specification:'Noto Sans CJK JP';text-align:center;text-anchor:middle;fill:#ffffff"
       id="path1027" />
    <path
       d="m 514.97318,306.18016 c -0.352,0.11 -0.924,0.198 -1.65,0.198 h -8.492 c -0.66,0 -1.914,-0.11 -2.222,-0.154 v 2.002 c 0.242,-0.022 1.452,-0.11 2.222,-0.11 h 8.58 c -0.55,1.804 -2.156,4.422 -3.652,6.116 -2.266,2.53 -5.522,5.148 -9.064,6.534 l 1.408,1.474 c 3.256,-1.474 6.226,-3.894 8.58,-6.424 2.244,2.002 4.576,4.598 6.05,6.534 l 1.54,-1.342 c -1.43,-1.716 -4.114,-4.576 -6.424,-6.556 1.562,-1.98 2.948,-4.554 3.696,-6.446 0.132,-0.308 0.418,-0.792 0.55,-0.968 z"
       style="font-style:normal;font-variant:normal;font-weight:normal;font-stretch:normal;font-family:'Noto Sans CJK JP';-inkscape-font-specification:'Noto Sans CJK JP';text-align:center;text-anchor:middle;fill:#ffffff"
       id="path1029" />
    <path
       d="m 538.49118,304.09016 c 0.792,0 1.408,0.638 1.408,1.408 0,0.792 -0.616,1.408 -1.408,1.408 -0.77,0 -1.386,-0.616 -1.386,-1.408 0,-0.77 0.616,-1.408 1.386,-1.408 z m 0,3.806 c 1.342,0 2.42,-1.056 2.42,-2.398 0,-1.32 -1.078,-2.42 -2.42,-2.42 -1.32,0 -2.398,1.1 -2.398,2.42 0,1.342 1.078,2.398 2.398,2.398 z m -12.452,5.038 c -0.858,1.782 -2.75,4.4 -4.202,5.764 l 1.518,1.034 c 1.232,-1.364 3.3,-4.158 4.224,-6.05 z m 12.078,-2.64 c 0.528,0 1.188,0 1.782,0.044 v -1.826 c -0.55,0.088 -1.276,0.11 -1.804,0.11 h -5.808 v -2.244 c 0,-0.484 0.066,-1.276 0.132,-1.584 h -2.068 c 0.088,0.33 0.154,1.078 0.154,1.562 v 2.266 h -6.116 c -0.704,0 -1.254,-0.044 -1.87,-0.11 v 1.848 c 0.594,-0.044 1.21,-0.066 1.87,-0.066 h 6.116 v 9.922 c 0,0.572 -0.264,0.836 -0.858,0.836 -0.572,0 -1.584,-0.088 -2.552,-0.264 l 0.176,1.76 c 0.88,0.088 2.2,0.154 3.124,0.154 1.32,0 1.892,-0.594 1.892,-1.76 v -10.648 z m -2.838,3.454 c 1.166,1.386 2.816,4.136 3.674,5.852 l 1.628,-0.902 c -0.88,-1.584 -2.64,-4.334 -3.806,-5.742 z"
       style="font-style:normal;font-variant:normal;font-weight:normal;font-stretch:normal;font-family:'Noto Sans CJK JP';-inkscape-font-specification:'Noto Sans CJK JP';text-align:center;text-anchor:middle;fill:#ffffff"
       id="path1031" />
    <path
       d="m 544.73918,314.38616 c 0.682,-0.066 1.848,-0.11 3.058,-0.11 h 12.078 c 0.99,0 1.914,0.088 2.354,0.11 v -2.156 c -0.484,0.044 -1.276,0.11 -2.376,0.11 h -12.056 c -1.232,0 -2.398,-0.066 -3.058,-0.11 z"
       style="font-style:normal;font-variant:normal;font-weight:normal;font-stretch:normal;font-family:'Noto Sans CJK JP';-inkscape-font-specification:'Noto Sans CJK JP';text-align:center;text-anchor:middle;fill:#ffffff"
       id="path1033" />
    <path
       d="m 583.12918,314.23216 c -2.332,-1.166 -6.49,-2.75 -9.394,-3.63 v -3.586 c 0,-0.66 0.088,-1.606 0.154,-2.288 h -2.156 c 0.132,0.682 0.176,1.672 0.176,2.288 v 12.804 c 0,0.814 -0.044,1.892 -0.132,2.596 h 2.112 c -0.088,-0.726 -0.132,-1.892 -0.132,-2.596 l -0.022,-7.26 c 2.442,0.77 6.248,2.244 8.646,3.542 z"
       style="font-style:normal;font-variant:normal;font-weight:normal;font-stretch:normal;font-family:'Noto Sans CJK JP';-inkscape-font-specification:'Noto Sans CJK JP';text-align:center;text-anchor:middle;fill:#ffffff"
       id="path1035" />
    <path
       d="m 603.43518,318.10416 v 1.232 h -8.492 v -1.232 z m -8.492,3.542 v -1.298 h 8.492 v 1.298 z m -1.562,1.782 h 1.562 v -0.66 h 8.492 v 0.616 h 1.65 v -6.38 h -11.704 z m 10.956,-15.906 h -13.046 v -1.826 h 13.046 z m -7.48,2.772 c -0.198,-0.44 -0.616,-0.99 -1.056,-1.452 h 6.292 c -0.33,0.462 -0.748,1.034 -1.1,1.452 z m 7.502,2.354 h -4.554 v -1.32 h 4.554 z m 0,2.354 h -4.554 v -1.364 h 4.554 z m -10.45,-1.364 h 4.378 v 1.364 h -4.378 z m 0,-2.31 h 4.378 v 1.32 h -4.378 z m 12.056,-6.952 h -16.302 v 6.358 c 0,3.52 -0.198,8.338 -2.376,11.748 0.418,0.176 1.122,0.594 1.43,0.836 2.244,-3.542 2.574,-8.866 2.574,-12.584 v -1.892 h 3.542 l -0.528,0.198 c 0.352,0.374 0.704,0.814 0.968,1.254 h -2.882 v 5.742 h 13.53 v -5.742 h -3.344 c 0.374,-0.396 0.748,-0.836 1.1,-1.298 l -0.462,-0.154 h 2.75 z"
       style="font-style:normal;font-variant:normal;font-weight:normal;font-stretch:normal;font-family:'Noto Sans CJK JP';-inkscape-font-specification:'Noto Sans CJK JP';text-align:center;text-anchor:middle;fill:#ffffff"
       id="path1037" />
  </g>
  <g
     aria-label="ネットワーク層"
     style="font-style:normal;font-weight:normal;font-size:22px;line-height:125%;font-family:Sans;letter-spacing:0px;word-spacing:0px;fill:#ffffff;fill-opacity:1;stroke:none"
     id="text4084-1">
    <path
       d="m 462.44478,375.74662 c -0.374,0.11 -0.88,0.132 -1.386,0.132 h -3.63 v -1.408 c 0,-0.616 0.044,-1.452 0.132,-1.936 h -2.024 c 0.088,0.484 0.132,1.32 0.132,1.936 v 1.408 h -4.312 c -0.748,0 -1.98,-0.022 -2.662,-0.11 v 1.848 c 0.66,-0.044 1.914,-0.088 2.684,-0.088 h 9.13 c -0.748,1.034 -2.508,2.75 -4.466,4.026 -2.002,1.298 -4.752,2.75 -8.91,3.74 l 1.056,1.628 c 2.97,-0.902 5.39,-1.87 7.436,-3.058 0,1.496 -0.022,3.52 -0.022,4.796 0,0.77 -0.044,1.782 -0.132,2.42 h 2.002 c -0.044,-0.682 -0.11,-1.65 -0.11,-2.42 0,-1.474 0.022,-4.114 0.022,-5.918 2.024,-1.408 3.872,-3.256 4.972,-4.576 0.352,-0.396 0.836,-0.902 1.232,-1.32 z m -3.124,8.074 c 2.068,1.1 3.388,1.98 5.302,3.388 l 1.144,-1.496 c -2.046,-1.386 -3.234,-2.068 -5.302,-3.19 z"
       style="font-style:normal;font-variant:normal;font-weight:normal;font-stretch:normal;font-family:'Noto Sans CJK JP';-inkscape-font-specification:'Noto Sans CJK JP';text-align:center;text-anchor:middle;fill:#ffffff"
       id="path1040" />
    <path
       d="m 478.02078,377.48462 -1.606,0.55 c 0.462,0.99 1.474,3.784 1.716,4.774 l 1.628,-0.572 c -0.286,-0.968 -1.364,-3.872 -1.738,-4.752 z m 6.072,0.638 c -0.33,2.816 -1.474,5.61 -3.036,7.524 -1.804,2.266 -4.598,3.938 -7.15,4.664 l 1.452,1.496 c 2.464,-0.946 5.148,-2.662 7.172,-5.236 1.584,-1.98 2.53,-4.334 3.124,-6.754 0.088,-0.286 0.176,-0.638 0.33,-1.1 z m -11.176,0.462 -1.628,0.638 c 0.44,0.77 1.628,3.806 1.958,4.95 l 1.672,-0.616 c -0.418,-1.144 -1.562,-4.026 -2.002,-4.972 z"
       style="font-style:normal;font-variant:normal;font-weight:normal;font-stretch:normal;font-family:'Noto Sans CJK JP';-inkscape-font-specification:'Noto Sans CJK JP';text-align:center;text-anchor:middle;fill:#ffffff"
       id="path1042" />
    <path
       d="m 508.02878,382.63262 c -2.332,-1.166 -6.49,-2.75 -9.394,-3.63 v -3.586 c 0,-0.66 0.088,-1.606 0.154,-2.288 h -2.156 c 0.132,0.682 0.176,1.672 0.176,2.288 v 12.804 c 0,0.814 -0.044,1.892 -0.132,2.596 h 2.112 c -0.088,-0.726 -0.132,-1.892 -0.132,-2.596 l -0.022,-7.26 c 2.442,0.77 6.248,2.244 8.646,3.542 z"
       style="font-style:normal;font-variant:normal;font-weight:normal;font-stretch:normal;font-family:'Noto Sans CJK JP';-inkscape-font-specification:'Noto Sans CJK JP';text-align:center;text-anchor:middle;fill:#ffffff"
       id="path1044" />
    <path
       d="m 529.32478,374.62462 c -0.374,0.088 -0.902,0.132 -1.386,0.132 h -11.286 c -0.946,0 -1.76,-0.022 -2.354,-0.066 0.066,0.484 0.088,0.968 0.088,1.474 v 4.686 c 0,0.418 -0.022,0.88 -0.088,1.408 h 2.002 c -0.044,-0.528 -0.066,-1.078 -0.066,-1.408 v -4.4 h 12.144 c -0.22,2.596 -0.836,5.412 -2.09,7.37 -1.804,2.816 -4.95,4.73 -8.184,5.588 l 1.496,1.518 c 3.542,-1.144 6.556,-3.388 8.338,-6.204 1.584,-2.486 2.046,-5.61 2.442,-8.228 0.044,-0.198 0.198,-0.792 0.286,-1.012 z"
       style="font-style:normal;font-variant:normal;font-weight:normal;font-stretch:normal;font-family:'Noto Sans CJK JP';-inkscape-font-specification:'Noto Sans CJK JP';text-align:center;text-anchor:middle;fill:#ffffff"
       id="path1046" />
    <path
       d="m 535.63878,382.78662 c 0.682,-0.066 1.848,-0.11 3.058,-0.11 h 12.078 c 0.99,0 1.914,0.088 2.354,0.11 v -2.156 c -0.484,0.044 -1.276,0.11 -2.376,0.11 h -12.056 c -1.232,0 -2.398,-0.066 -3.058,-0.11 z"
       style="font-style:normal;font-variant:normal;font-weight:normal;font-stretch:normal;font-family:'Noto Sans CJK JP';-inkscape-font-specification:'Noto Sans CJK JP';text-align:center;text-anchor:middle;fill:#ffffff"
       id="path1048" />
    <path
       d="m 573.10478,375.52662 c -0.352,0.132 -0.836,0.198 -1.43,0.198 h -5.984 c 0.198,-0.308 0.374,-0.616 0.528,-0.924 0.22,-0.418 0.616,-1.144 0.99,-1.716 l -2.046,-0.682 c -0.132,0.572 -0.44,1.364 -0.682,1.738 -0.946,1.98 -3.102,5.17 -6.908,7.436 l 1.518,1.144 c 2.398,-1.606 4.246,-3.564 5.566,-5.412 h 7.436 c -0.44,2.002 -1.782,4.84 -3.498,6.864 -2.002,2.332 -4.752,4.334 -8.778,5.522 l 1.584,1.43 c 4.136,-1.518 6.754,-3.542 8.756,-5.984 1.958,-2.376 3.3,-5.368 3.894,-7.568 0.132,-0.352 0.352,-0.858 0.528,-1.166 z"
       style="font-style:normal;font-variant:normal;font-weight:normal;font-stretch:normal;font-family:'Noto Sans CJK JP';-inkscape-font-specification:'Noto Sans CJK JP';text-align:center;text-anchor:middle;fill:#ffffff"
       id="path1050" />
    <path
       d="m 594.33478,386.50462 v 1.232 h -8.492 v -1.232 z m -8.492,3.542 v -1.298 h 8.492 v 1.298 z m -1.562,1.782 h 1.562 v -0.66 h 8.492 v 0.616 h 1.65 v -6.38 h -11.704 z m 10.956,-15.906 h -13.046 v -1.826 h 13.046 z m -7.48,2.772 c -0.198,-0.44 -0.616,-0.99 -1.056,-1.452 h 6.292 c -0.33,0.462 -0.748,1.034 -1.1,1.452 z m 7.502,2.354 h -4.554 v -1.32 h 4.554 z m 0,2.354 h -4.554 v -1.364 h 4.554 z m -10.45,-1.364 h 4.378 v 1.364 h -4.378 z m 0,-2.31 h 4.378 v 1.32 h -4.378 z m 12.056,-6.952 h -16.302 v 6.358 c 0,3.52 -0.198,8.338 -2.376,11.748 0.418,0.176 1.122,0.594 1.43,0.836 2.244,-3.542 2.574,-8.866 2.574,-12.584 v -1.892 h 3.542 l -0.528,0.198 c 0.352,0.374 0.704,0.814 0.968,1.254 h -2.882 v 5.742 h 13.53 v -5.742 h -3.344 c 0.374,-0.396 0.748,-0.836 1.1,-1.298 l -0.462,-0.154 h 2.75 z"
       style="font-style:normal;font-variant:normal;font-weight:normal;font-stretch:normal;font-family:'Noto Sans CJK JP';-inkscape-font-specification:'Noto Sans CJK JP';text-align:center;text-anchor:middle;fill:#ffffff"
       id="path1052" />
  </g>
  <g
     aria-label="データリンク層"
     style="font-style:normal;font-weight:normal;font-size:22px;line-height:125%;font-family:Sans;letter-spacing:0px;word-spacing:0px;fill:#ffffff;fill-opacity:1;stroke:none"
     id="text4084-8">
    <path
       d="m 464.1827,450.32603 c -0.462,-0.902 -1.254,-2.222 -1.804,-3.014 l -1.166,0.506 c 0.594,0.814 1.342,2.134 1.782,3.036 z m -4.994,0.528 c 0.638,0 1.408,0.022 2.046,0.066 v -1.826 c -0.638,0.088 -1.43,0.132 -2.046,0.132 h -7.612 c -0.704,0 -1.364,-0.066 -2.002,-0.132 v 1.826 c 0.572,-0.044 1.298,-0.066 2.024,-0.066 z m -10.296,3.872 c -0.682,0 -1.32,-0.044 -1.914,-0.088 v 1.804 c 0.594,-0.044 1.232,-0.044 1.914,-0.044 h 6.578 c -0.066,2.068 -0.308,3.916 -1.276,5.456 -0.858,1.386 -2.442,2.662 -4.158,3.366 l 1.628,1.21 c 1.87,-0.968 3.542,-2.552 4.334,-4.026 0.88,-1.628 1.232,-3.63 1.298,-6.006 h 5.984 c 0.528,0 1.232,0.022 1.716,0.044 v -1.804 c -0.528,0.066 -1.254,0.088 -1.716,0.088 z m 14.74,-7.81 c 0.638,0.836 1.342,2.068 1.826,3.036 l 1.188,-0.528 c -0.418,-0.814 -1.276,-2.2 -1.848,-2.992 z"
       style="font-style:normal;font-variant:normal;font-weight:normal;font-stretch:normal;font-family:'Noto Sans CJK JP';-inkscape-font-specification:'Noto Sans CJK JP';text-align:center;text-anchor:middle;fill:#ffffff"
       id="path1055" />
    <path
       d="m 469.3527,457.80603 c 0.682,-0.066 1.848,-0.11 3.058,-0.11 h 12.078 c 0.99,0 1.914,0.088 2.354,0.11 v -2.156 c -0.484,0.044 -1.276,0.11 -2.376,0.11 h -12.056 c -1.232,0 -2.398,-0.066 -3.058,-0.11 z"
       style="font-style:normal;font-variant:normal;font-weight:normal;font-stretch:normal;font-family:'Noto Sans CJK JP';-inkscape-font-specification:'Noto Sans CJK JP';text-align:center;text-anchor:middle;fill:#ffffff"
       id="path1057" />
    <path
       d="m 506.8627,450.19403 c -0.374,0.154 -0.858,0.22 -1.452,0.22 h -6.006 c 0.176,-0.286 0.33,-0.55 0.462,-0.814 0.22,-0.418 0.616,-1.166 0.968,-1.738 l -1.98,-0.638 c -0.154,0.572 -0.484,1.364 -0.704,1.76 -0.99,2.002 -3.278,5.302 -7.062,7.634 l 1.474,1.144 c 2.464,-1.672 4.422,-3.828 5.83,-5.786 h 7.48 c -0.418,1.738 -1.496,4.004 -2.838,5.874 -1.716,-1.034 -3.564,-2.09 -4.84,-2.75 l -1.122,1.298 c 1.232,0.682 3.08,1.782 4.818,2.904 -2.002,2.2 -4.862,4.312 -8.69,5.478 l 1.584,1.364 c 3.872,-1.43 6.644,-3.586 8.624,-5.852 0.836,0.572 1.562,1.1 2.09,1.518 l 1.21,-1.584 c -0.55,-0.396 -1.298,-0.902 -2.134,-1.43 1.54,-2.156 2.662,-4.598 3.212,-6.534 0.132,-0.352 0.33,-0.88 0.506,-1.188 z"
       style="font-style:normal;font-variant:normal;font-weight:normal;font-stretch:normal;font-family:'Noto Sans CJK JP';-inkscape-font-specification:'Noto Sans CJK JP';text-align:center;text-anchor:middle;fill:#ffffff"
       id="path1059" />
    <path
       d="m 515.9707,448.65403 c 0.044,0.418 0.088,1.188 0.088,1.584 v 7.326 c 0,0.66 -0.066,1.364 -0.088,1.694 h 2.024 c -0.044,-0.396 -0.066,-1.122 -0.066,-1.672 v -7.348 c 0,-0.528 0.022,-1.166 0.066,-1.584 z m 10.186,-0.154 c 0.044,0.528 0.11,1.166 0.11,1.892 v 3.476 c 0,4.158 -0.264,5.94 -1.848,7.766 -1.364,1.54 -3.256,2.42 -5.28,2.926 l 1.43,1.518 c 1.606,-0.55 3.806,-1.496 5.236,-3.212 1.584,-1.892 2.288,-3.63 2.288,-8.91 v -3.564 c 0,-0.726 0.044,-1.364 0.088,-1.892 z"
       style="font-style:normal;font-variant:normal;font-weight:normal;font-stretch:normal;font-family:'Noto Sans CJK JP';-inkscape-font-specification:'Noto Sans CJK JP';text-align:center;text-anchor:middle;fill:#ffffff"
       id="path1061" />
    <path
       d="m 538.1027,449.05003 -1.254,1.342 c 1.628,1.1 4.378,3.454 5.478,4.598 l 1.386,-1.386 c -1.232,-1.232 -4.048,-3.52 -5.61,-4.554 z m -1.892,14.74 1.166,1.804 c 3.674,-0.682 6.446,-2.024 8.646,-3.432 3.322,-2.068 5.874,-5.06 7.392,-7.81 l -1.056,-1.87 c -1.276,2.706 -3.96,5.962 -7.348,8.096 -2.09,1.298 -4.95,2.64 -8.8,3.212 z"
       style="font-style:normal;font-variant:normal;font-weight:normal;font-stretch:normal;font-family:'Noto Sans CJK JP';-inkscape-font-specification:'Noto Sans CJK JP';text-align:center;text-anchor:middle;fill:#ffffff"
       id="path1063" />
    <path
       d="m 572.8187,450.54603 c -0.352,0.132 -0.836,0.198 -1.43,0.198 h -5.984 c 0.198,-0.308 0.374,-0.616 0.528,-0.924 0.22,-0.418 0.616,-1.144 0.99,-1.716 l -2.046,-0.682 c -0.132,0.572 -0.44,1.364 -0.682,1.738 -0.946,1.98 -3.102,5.17 -6.908,7.436 l 1.518,1.144 c 2.398,-1.606 4.246,-3.564 5.566,-5.412 h 7.436 c -0.44,2.002 -1.782,4.84 -3.498,6.864 -2.002,2.332 -4.752,4.334 -8.778,5.522 l 1.584,1.43 c 4.136,-1.518 6.754,-3.542 8.756,-5.984 1.958,-2.376 3.3,-5.368 3.894,-7.568 0.132,-0.352 0.352,-0.858 0.528,-1.166 z"
       style="font-style:normal;font-variant:normal;font-weight:normal;font-stretch:normal;font-family:'Noto Sans CJK JP';-inkscape-font-specification:'Noto Sans CJK JP';text-align:center;text-anchor:middle;fill:#ffffff"
       id="path1065" />
    <path
       d="m 594.0487,461.52403 v 1.232 h -8.492 v -1.232 z m -8.492,3.542 v -1.298 h 8.492 v 1.298 z m -1.562,1.782 h 1.562 v -0.66 h 8.492 v 0.616 h 1.65 v -6.38 h -11.704 z m 10.956,-15.906 h -13.046 v -1.826 h 13.046 z m -7.48,2.772 c -0.198,-0.44 -0.616,-0.99 -1.056,-1.452 h 6.292 c -0.33,0.462 -0.748,1.034 -1.1,1.452 z m 7.502,2.354 h -4.554 v -1.32 h 4.554 z m 0,2.354 h -4.554 v -1.364 h 4.554 z m -10.45,-1.364 h 4.378 v 1.364 h -4.378 z m 0,-2.31 h 4.378 v 1.32 h -4.378 z m 12.056,-6.952 h -16.302 v 6.358 c 0,3.52 -0.198,8.338 -2.376,11.748 0.418,0.176 1.122,0.594 1.43,0.836 2.244,-3.542 2.574,-8.866 2.574,-12.584 v -1.892 h 3.542 l -0.528,0.198 c 0.352,0.374 0.704,0.814 0.968,1.254 h -2.882 v 5.742 h 13.53 v -5.742 h -3.344 c 0.374,-0.396 0.748,-0.836 1.1,-1.298 l -0.462,-0.154 h 2.75 z"
       style="font-style:normal;font-variant:normal;font-weight:normal;font-stretch:normal;font-family:'Noto Sans CJK JP';-inkscape-font-specification:'Noto Sans CJK JP';text-align:center;text-anchor:middle;fill:#ffffff"
       id="path1067" />
  </g>
  <g
     aria-label="物理層"
     style="font-style:normal;font-weight:normal;font-size:22px;line-height:125%;font-family:Sans;letter-spacing:0px;word-spacing:0px;fill:#ffffff;fill-opacity:1;stroke:none"
     id="text4084-12">
    <path
       d="m 499.26616,507.98398 -0.22,-1.452 -2.552,0.792 v -4.488 h 2.266 v -1.584 h -2.266 v -4.466 h -1.518 v 4.466 h -1.694 c 0.154,-0.968 0.308,-1.98 0.418,-2.97 l -1.43,-0.242 c -0.264,2.684 -0.682,5.456 -1.518,7.326 0.352,0.132 0.968,0.528 1.254,0.726 0.396,-0.902 0.704,-2.024 0.968,-3.256 h 2.002 v 4.906 c -1.54,0.484 -2.948,0.858 -4.07,1.166 l 0.44,1.562 c 1.078,-0.33 2.332,-0.726 3.63,-1.122 v 7.524 h 1.518 v -8.008 z m 10.076,-7.546 v 0.022 h -7.04 c 0.396,-1.078 0.726,-2.222 0.99,-3.388 l -1.496,-0.308 c -0.726,3.322 -2.046,6.49 -3.85,8.448 0.33,0.22 0.99,0.682 1.254,0.946 0.946,-1.122 1.782,-2.574 2.508,-4.18 h 1.892 c -1.012,3.52 -2.97,7.194 -5.302,9.02 0.462,0.242 0.99,0.616 1.298,0.946 2.398,-2.09 4.422,-6.204 5.412,-9.966 h 1.804 c -1.144,5.522 -3.52,10.934 -7.128,13.53 0.484,0.242 1.056,0.638 1.364,0.99 3.652,-2.904 6.072,-8.756 7.172,-14.52 h 1.056 c -0.44,8.712 -0.924,11.968 -1.628,12.738 -0.242,0.286 -0.462,0.374 -0.814,0.374 -0.44,0 -1.32,-0.022 -2.31,-0.11 0.286,0.44 0.44,1.122 0.462,1.606 0.968,0.066 1.914,0.088 2.508,0 0.66,-0.066 1.1,-0.264 1.518,-0.836 0.88,-1.1 1.364,-4.51 1.848,-14.476 0.022,-0.198 0.022,-0.814 0.022,-0.814 z"
       style="font-style:normal;font-variant:normal;font-weight:normal;font-stretch:normal;font-family:'Noto Sans CJK JP';-inkscape-font-specification:'Noto Sans CJK JP';text-align:center;text-anchor:middle;fill:#ffffff"
       id="path1070" />
    <path
       d="m 519.81416,510.75598 -2.398,0.792 v -5.434 h 2.222 v -1.54 h -2.222 v -4.774 h 2.53 v -1.54 h -6.82 v 1.54 h 2.728 v 4.774 h -2.508 v 1.54 h 2.508 v 5.918 c -1.122,0.374 -2.134,0.682 -2.948,0.924 l 0.374,1.65 c 1.958,-0.638 4.466,-1.496 6.82,-2.288 z m 2.706,-7.436 h 3.344 v 2.816 h -3.344 z m 0,-4.114 h 3.344 v 2.772 h -3.344 z m 8.118,2.772 h -3.366 v -2.772 h 3.366 z m 0,4.158 h -3.366 v -2.816 h 3.366 z m -3.234,8.514 v -3.014 h 5.126 v -1.496 h -5.126 v -2.574 h 4.796 v -9.79 h -11.176 v 9.79 h 4.73 v 2.574 h -4.994 v 1.496 h 4.994 v 3.014 h -6.688 v 1.496 h 14.168 v -1.496 z"
       style="font-style:normal;font-variant:normal;font-weight:normal;font-stretch:normal;font-family:'Noto Sans CJK JP';-inkscape-font-specification:'Noto Sans CJK JP';text-align:center;text-anchor:middle;fill:#ffffff"
       id="path1072" />
    <path
       d="m 550.98816,511.52598 v 1.232 h -8.492 v -1.232 z m -8.492,3.542 v -1.298 h 8.492 v 1.298 z m -1.562,1.782 h 1.562 v -0.66 h 8.492 v 0.616 h 1.65 v -6.38 h -11.704 z m 10.956,-15.906 h -13.046 v -1.826 h 13.046 z m -7.48,2.772 c -0.198,-0.44 -0.616,-0.99 -1.056,-1.452 h 6.292 c -0.33,0.462 -0.748,1.034 -1.1,1.452 z m 7.502,2.354 h -4.554 v -1.32 h 4.554 z m 0,2.354 h -4.554 v -1.364 h 4.554 z m -10.45,-1.364 h 4.378 v 1.364 h -4.378 z m 0,-2.31 h 4.378 v 1.32 h -4.378 z m 12.056,-6.952 h -16.302 v 6.358 c 0,3.52 -0.198,8.338 -2.376,11.748 0.418,0.176 1.122,0.594 1.43,0.836 2.244,-3.542 2.574,-8.866 2.574,-12.584 v -1.892 h 3.542 l -0.528,0.198 c 0.352,0.374 0.704,0.814 0.968,1.254 h -2.882 v 5.742 h 13.53 v -5.742 h -3.344 c 0.374,-0.396 0.748,-0.836 1.1,-1.298 l -0.462,-0.154 h 2.75 z"
       style="font-style:normal;font-variant:normal;font-weight:normal;font-stretch:normal;font-family:'Noto Sans CJK JP';-inkscape-font-specification:'Noto Sans CJK JP';text-align:center;text-anchor:middle;fill:#ffffff"
       id="path1074" />
  </g>
  <g
     aria-label="ネットワークアクセス層"
     style="font-style:normal;font-weight:normal;font-size:22px;line-height:125%;font-family:Sans;letter-spacing:0px;word-spacing:0px;fill:#000000;fill-opacity:1;stroke:none"
     id="text4084-85">
    <path
       d="m 75.996625,473.78836 c -0.374,0.11 -0.88,0.132 -1.386,0.132 h -3.63 v -1.408 c 0,-0.616 0.044,-1.452 0.132,-1.936 h -2.024 c 0.088,0.484 0.132,1.32 0.132,1.936 v 1.408 h -4.312 c -0.748,0 -1.98,-0.022 -2.662,-0.11 v 1.848 c 0.66,-0.044 1.914,-0.088 2.684,-0.088 h 9.13 c -0.748,1.034 -2.508,2.75 -4.466,4.026 -2.002,1.298 -4.752,2.75 -8.91,3.74 l 1.056,1.628 c 2.97,-0.902 5.39,-1.87 7.436,-3.058 0,1.496 -0.022,3.52 -0.022,4.796 0,0.77 -0.044,1.782 -0.132,2.42 h 2.002 c -0.044,-0.682 -0.11,-1.65 -0.11,-2.42 0,-1.474 0.022,-4.114 0.022,-5.918 2.024,-1.408 3.872,-3.256 4.972,-4.576 0.352,-0.396 0.836,-0.902 1.232,-1.32 z m -3.124,8.074 c 2.068,1.1 3.388,1.98 5.302,3.388 l 1.144,-1.496 c -2.046,-1.386 -3.234,-2.068 -5.302,-3.19 z"
       style="font-style:normal;font-variant:normal;font-weight:normal;font-stretch:normal;font-family:'Noto Sans CJK JP';-inkscape-font-specification:'Noto Sans CJK JP';text-align:center;text-anchor:middle"
       id="path934" />
    <path
       d="m 91.572625,475.52636 -1.606,0.55 c 0.462,0.99 1.474,3.784 1.716,4.774 l 1.628,-0.572 c -0.286,-0.968 -1.364,-3.872 -1.738,-4.752 z m 6.072,0.638 c -0.33,2.816 -1.474,5.61 -3.036,7.524 -1.804,2.266 -4.598,3.938 -7.15,4.664 l 1.452,1.496 c 2.464,-0.946 5.148,-2.662 7.172,-5.236 1.584,-1.98 2.53,-4.334 3.124,-6.754 0.088,-0.286 0.176,-0.638 0.33,-1.1 z m -11.176,0.462 -1.628,0.638 c 0.44,0.77 1.628,3.806 1.958,4.95 l 1.672,-0.616 c -0.418,-1.144 -1.562,-4.026 -2.002,-4.972 z"
       style="font-style:normal;font-variant:normal;font-weight:normal;font-stretch:normal;font-family:'Noto Sans CJK JP';-inkscape-font-specification:'Noto Sans CJK JP';text-align:center;text-anchor:middle"
       id="path936" />
    <path
       d="m 121.58062,480.67436 c -2.332,-1.166 -6.49,-2.75 -9.394,-3.63 v -3.586 c 0,-0.66 0.088,-1.606 0.154,-2.288 h -2.156 c 0.132,0.682 0.176,1.672 0.176,2.288 v 12.804 c 0,0.814 -0.044,1.892 -0.132,2.596 h 2.112 c -0.088,-0.726 -0.132,-1.892 -0.132,-2.596 l -0.022,-7.26 c 2.442,0.77 6.248,2.244 8.646,3.542 z"
       style="font-style:normal;font-variant:normal;font-weight:normal;font-stretch:normal;font-family:'Noto Sans CJK JP';-inkscape-font-specification:'Noto Sans CJK JP';text-align:center;text-anchor:middle"
       id="path938" />
    <path
       d="m 142.87662,472.66636 c -0.374,0.088 -0.902,0.132 -1.386,0.132 h -11.286 c -0.946,0 -1.76,-0.022 -2.354,-0.066 0.066,0.484 0.088,0.968 0.088,1.474 v 4.686 c 0,0.418 -0.022,0.88 -0.088,1.408 h 2.002 c -0.044,-0.528 -0.066,-1.078 -0.066,-1.408 v -4.4 h 12.144 c -0.22,2.596 -0.836,5.412 -2.09,7.37 -1.804,2.816 -4.95,4.73 -8.184,5.588 l 1.496,1.518 c 3.542,-1.144 6.556,-3.388 8.338,-6.204 1.584,-2.486 2.046,-5.61 2.442,-8.228 0.044,-0.198 0.198,-0.792 0.286,-1.012 z"
       style="font-style:normal;font-variant:normal;font-weight:normal;font-stretch:normal;font-family:'Noto Sans CJK JP';-inkscape-font-specification:'Noto Sans CJK JP';text-align:center;text-anchor:middle"
       id="path940" />
    <path
       d="m 149.19062,480.82836 c 0.682,-0.066 1.848,-0.11 3.058,-0.11 h 12.078 c 0.99,0 1.914,0.088 2.354,0.11 v -2.156 c -0.484,0.044 -1.276,0.11 -2.376,0.11 h -12.056 c -1.232,0 -2.398,-0.066 -3.058,-0.11 z"
       style="font-style:normal;font-variant:normal;font-weight:normal;font-stretch:normal;font-family:'Noto Sans CJK JP';-inkscape-font-specification:'Noto Sans CJK JP';text-align:center;text-anchor:middle"
       id="path942" />
    <path
       d="m 186.65662,473.56836 c -0.352,0.132 -0.836,0.198 -1.43,0.198 h -5.984 c 0.198,-0.308 0.374,-0.616 0.528,-0.924 0.22,-0.418 0.616,-1.144 0.99,-1.716 l -2.046,-0.682 c -0.132,0.572 -0.44,1.364 -0.682,1.738 -0.946,1.98 -3.102,5.17 -6.908,7.436 l 1.518,1.144 c 2.398,-1.606 4.246,-3.564 5.566,-5.412 h 7.436 c -0.44,2.002 -1.782,4.84 -3.498,6.864 -2.002,2.332 -4.752,4.334 -8.778,5.522 l 1.584,1.43 c 4.136,-1.518 6.754,-3.542 8.756,-5.984 1.958,-2.376 3.3,-5.368 3.894,-7.568 0.132,-0.352 0.352,-0.858 0.528,-1.166 z"
       style="font-style:normal;font-variant:normal;font-weight:normal;font-stretch:normal;font-family:'Noto Sans CJK JP';-inkscape-font-specification:'Noto Sans CJK JP';text-align:center;text-anchor:middle"
       id="path944" />
    <path
       d="m 200.67062,476.23036 c 0.066,0.572 0.088,1.056 0.088,1.584 0,3.674 -0.484,6.82 -3.894,8.91 -0.616,0.418 -1.364,0.77 -1.958,0.968 l 1.606,1.32 c 5.61,-2.794 6.138,-6.82 6.138,-12.782 z m 9.68,-3.938 c -0.33,0.066 -1.122,0.132 -1.54,0.132 h -12.628 c -0.814,0 -1.738,-0.088 -2.508,-0.176 v 1.98 c 0.88,-0.088 1.694,-0.132 2.508,-0.132 h 12.518 c -0.704,1.364 -2.772,3.74 -4.796,4.928 l 1.452,1.166 c 2.508,-1.738 4.598,-4.576 5.478,-6.072 0.154,-0.242 0.44,-0.572 0.594,-0.792 z"
       style="font-style:normal;font-variant:normal;font-weight:normal;font-stretch:normal;font-family:'Noto Sans CJK JP';-inkscape-font-specification:'Noto Sans CJK JP';text-align:center;text-anchor:middle"
       id="path946" />
    <path
       d="m 229.53944,473.56836 c -0.352,0.132 -0.836,0.198 -1.43,0.198 h -5.984 c 0.198,-0.308 0.374,-0.616 0.528,-0.924 0.22,-0.418 0.616,-1.144 0.99,-1.716 l -2.046,-0.682 c -0.132,0.572 -0.44,1.364 -0.682,1.738 -0.946,1.98 -3.102,5.17 -6.908,7.436 l 1.518,1.144 c 2.398,-1.606 4.246,-3.564 5.566,-5.412 h 7.436 c -0.44,2.002 -1.782,4.84 -3.498,6.864 -2.002,2.332 -4.752,4.334 -8.778,5.522 l 1.584,1.43 c 4.136,-1.518 6.754,-3.542 8.756,-5.984 1.958,-2.376 3.3,-5.368 3.894,-7.568 0.132,-0.352 0.352,-0.858 0.528,-1.166 z"
       style="font-style:normal;font-variant:normal;font-weight:normal;font-stretch:normal;font-family:'Noto Sans CJK JP';-inkscape-font-specification:'Noto Sans CJK JP';text-align:center;text-anchor:middle"
       id="path948" />
    <path
       d="m 248.28344,482.83036 c 1.76,-1.826 3.476,-4.576 4.488,-6.402 0.154,-0.286 0.396,-0.66 0.55,-0.88 l -1.298,-1.012 c -0.264,0.154 -0.682,0.286 -1.166,0.396 -0.924,0.198 -4.774,0.99 -8.514,1.716 v -3.432 c 0,-0.638 0.044,-1.386 0.154,-2.024 h -2.09 c 0.11,0.638 0.154,1.364 0.154,2.024 v 3.762 c -2.332,0.44 -4.422,0.814 -5.412,0.946 l 0.352,1.848 c 0.88,-0.198 2.838,-0.616 5.06,-1.056 v 6.644 c 0,2.178 0.748,3.234 4.84,3.234 2.75,0 4.95,-0.176 6.908,-0.44 l 0.088,-1.892 c -2.2,0.418 -4.312,0.638 -6.864,0.638 -2.64,0 -3.19,-0.484 -3.19,-2.002 v -6.534 c 3.894,-0.792 7.942,-1.606 8.316,-1.694 -0.66,1.32 -2.266,3.74 -3.916,5.236 z"
       style="font-style:normal;font-variant:normal;font-weight:normal;font-stretch:normal;font-family:'Noto Sans CJK JP';-inkscape-font-specification:'Noto Sans CJK JP';text-align:center;text-anchor:middle"
       id="path950" />
    <path
       d="m 272.30744,472.62236 c -0.352,0.11 -0.924,0.198 -1.65,0.198 h -8.492 c -0.66,0 -1.914,-0.11 -2.222,-0.154 v 2.002 c 0.242,-0.022 1.452,-0.11 2.222,-0.11 h 8.58 c -0.55,1.804 -2.156,4.422 -3.652,6.116 -2.266,2.53 -5.522,5.148 -9.064,6.534 l 1.408,1.474 c 3.256,-1.474 6.226,-3.894 8.58,-6.424 2.244,2.002 4.576,4.598 6.05,6.534 l 1.54,-1.342 c -1.43,-1.716 -4.114,-4.576 -6.424,-6.556 1.562,-1.98 2.948,-4.554 3.696,-6.446 0.132,-0.308 0.418,-0.792 0.55,-0.968 z"
       style="font-style:normal;font-variant:normal;font-weight:normal;font-stretch:normal;font-family:'Noto Sans CJK JP';-inkscape-font-specification:'Noto Sans CJK JP';text-align:center;text-anchor:middle"
       id="path952" />
    <path
       d="m 294.76944,484.54636 v 1.232 h -8.492 v -1.232 z m -8.492,3.542 v -1.298 h 8.492 v 1.298 z m -1.562,1.782 h 1.562 v -0.66 h 8.492 v 0.616 h 1.65 v -6.38 h -11.704 z m 10.956,-15.906 h -13.046 v -1.826 h 13.046 z m -7.48,2.772 c -0.198,-0.44 -0.616,-0.99 -1.056,-1.452 h 6.292 c -0.33,0.462 -0.748,1.034 -1.1,1.452 z m 7.502,2.354 h -4.554 v -1.32 h 4.554 z m 0,2.354 h -4.554 v -1.364 h 4.554 z m -10.45,-1.364 h 4.378 v 1.364 h -4.378 z m 0,-2.31 h 4.378 v 1.32 h -4.378 z m 12.056,-6.952 h -16.302 v 6.358 c 0,3.52 -0.198,8.338 -2.376,11.748 0.418,0.176 1.122,0.594 1.43,0.836 2.244,-3.542 2.574,-8.866 2.574,-12.584 v -1.892 h 3.542 l -0.528,0.198 c 0.352,0.374 0.704,0.814 0.968,1.254 h -2.882 v 5.742 h 13.53 v -5.742 h -3.344 c 0.374,-0.396 0.748,-0.836 1.1,-1.298 l -0.462,-0.154 h 2.75 z"
       style="font-style:normal;font-variant:normal;font-weight:normal;font-stretch:normal;font-family:'Noto Sans CJK JP';-inkscape-font-specification:'Noto Sans CJK JP';text-align:center;text-anchor:middle"
       id="path954" />
  </g>
  <g
     aria-label="インターネット層"
     style="font-style:normal;font-weight:normal;font-size:22px;line-height:125%;font-family:Sans;letter-spacing:0px;word-spacing:0px;fill:#000000;fill-opacity:1;stroke:none"
     id="text4084-0">
    <path
       d="m 108.56007,372.39774 c -1.232,1.562 -3.542,3.476 -5.786,4.862 -2.42,1.518 -6.160002,3.19 -9.834002,4.048 l 1.012,1.716 c 2.882,-0.858 5.918,-2.134 8.272002,-3.432 v 8.316 c 0,0.836 -0.066,1.936 -0.132,2.354 h 2.156 c -0.088,-0.44 -0.132,-1.518 -0.132,-2.354 v -9.416 c 2.266,-1.43 4.378,-3.234 5.896,-4.774 z"
       style="font-style:normal;font-variant:normal;font-weight:normal;font-stretch:normal;font-family:'Noto Sans CJK JP';-inkscape-font-specification:'Noto Sans CJK JP';text-align:center;text-anchor:middle"
       id="path917" />
    <path
       d="m 118.06407,373.45374 -1.254,1.342 c 1.628,1.1 4.378,3.454 5.478,4.598 l 1.386,-1.386 c -1.232,-1.232 -4.048,-3.52 -5.61,-4.554 z m -1.892,14.74 1.166,1.804 c 3.674,-0.682 6.446,-2.024 8.646,-3.432 3.322,-2.068 5.874,-5.06 7.392,-7.81 l -1.056,-1.87 c -1.276,2.706 -3.96,5.962 -7.348,8.096 -2.09,1.298 -4.95,2.64 -8.8,3.212 z"
       style="font-style:normal;font-variant:normal;font-weight:normal;font-stretch:normal;font-family:'Noto Sans CJK JP';-inkscape-font-specification:'Noto Sans CJK JP';text-align:center;text-anchor:middle"
       id="path919" />
    <path
       d="m 152.82407,374.59774 c -0.374,0.154 -0.858,0.22 -1.452,0.22 h -6.006 c 0.176,-0.286 0.33,-0.55 0.462,-0.814 0.22,-0.418 0.616,-1.166 0.968,-1.738 l -1.98,-0.638 c -0.154,0.572 -0.484,1.364 -0.704,1.76 -0.99,2.002 -3.278,5.302 -7.062,7.634 l 1.474,1.144 c 2.464,-1.672 4.422,-3.828 5.83,-5.786 h 7.48 c -0.418,1.738 -1.496,4.004 -2.838,5.874 -1.716,-1.034 -3.564,-2.09 -4.84,-2.75 l -1.122,1.298 c 1.232,0.682 3.08,1.782 4.818,2.904 -2.002,2.2 -4.862,4.312 -8.69,5.478 l 1.584,1.364 c 3.872,-1.43 6.644,-3.586 8.624,-5.852 0.836,0.572 1.562,1.1 2.09,1.518 l 1.21,-1.584 c -0.55,-0.396 -1.298,-0.902 -2.134,-1.43 1.54,-2.156 2.662,-4.598 3.212,-6.534 0.132,-0.352 0.33,-0.88 0.506,-1.188 z"
       style="font-style:normal;font-variant:normal;font-weight:normal;font-stretch:normal;font-family:'Noto Sans CJK JP';-inkscape-font-specification:'Noto Sans CJK JP';text-align:center;text-anchor:middle"
       id="path921" />
    <path
       d="m 159.31407,382.20974 c 0.682,-0.066 1.848,-0.11 3.058,-0.11 h 12.078 c 0.99,0 1.914,0.088 2.354,0.11 v -2.156 c -0.484,0.044 -1.276,0.11 -2.376,0.11 h -12.056 c -1.232,0 -2.398,-0.066 -3.058,-0.11 z"
       style="font-style:normal;font-variant:normal;font-weight:normal;font-stretch:normal;font-family:'Noto Sans CJK JP';-inkscape-font-specification:'Noto Sans CJK JP';text-align:center;text-anchor:middle"
       id="path923" />
    <path
       d="m 196.12007,375.16974 c -0.374,0.11 -0.88,0.132 -1.386,0.132 h -3.63 v -1.408 c 0,-0.616 0.044,-1.452 0.132,-1.936 h -2.024 c 0.088,0.484 0.132,1.32 0.132,1.936 v 1.408 h -4.312 c -0.748,0 -1.98,-0.022 -2.662,-0.11 v 1.848 c 0.66,-0.044 1.914,-0.088 2.684,-0.088 h 9.13 c -0.748,1.034 -2.508,2.75 -4.466,4.026 -2.002,1.298 -4.752,2.75 -8.91,3.74 l 1.056,1.628 c 2.97,-0.902 5.39,-1.87 7.436,-3.058 0,1.496 -0.022,3.52 -0.022,4.796 0,0.77 -0.044,1.782 -0.132,2.42 h 2.002 c -0.044,-0.682 -0.11,-1.65 -0.11,-2.42 0,-1.474 0.022,-4.114 0.022,-5.918 2.024,-1.408 3.872,-3.256 4.972,-4.576 0.352,-0.396 0.836,-0.902 1.232,-1.32 z m -3.124,8.074 c 2.068,1.1 3.388,1.98 5.302,3.388 l 1.144,-1.496 c -2.046,-1.386 -3.234,-2.068 -5.302,-3.19 z"
       style="font-style:normal;font-variant:normal;font-weight:normal;font-stretch:normal;font-family:'Noto Sans CJK JP';-inkscape-font-specification:'Noto Sans CJK JP';text-align:center;text-anchor:middle"
       id="path925" />
    <path
       d="m 211.69607,376.90774 -1.606,0.55 c 0.462,0.99 1.474,3.784 1.716,4.774 l 1.628,-0.572 c -0.286,-0.968 -1.364,-3.872 -1.738,-4.752 z m 6.072,0.638 c -0.33,2.816 -1.474,5.61 -3.036,7.524 -1.804,2.266 -4.598,3.938 -7.15,4.664 l 1.452,1.496 c 2.464,-0.946 5.148,-2.662 7.172,-5.236 1.584,-1.98 2.53,-4.334 3.124,-6.754 0.088,-0.286 0.176,-0.638 0.33,-1.1 z m -11.176,0.462 -1.628,0.638 c 0.44,0.77 1.628,3.806 1.958,4.95 l 1.672,-0.616 c -0.418,-1.144 -1.562,-4.026 -2.002,-4.972 z"
       style="font-style:normal;font-variant:normal;font-weight:normal;font-stretch:normal;font-family:'Noto Sans CJK JP';-inkscape-font-specification:'Noto Sans CJK JP';text-align:center;text-anchor:middle"
       id="path927" />
    <path
       d="m 241.70407,382.05574 c -2.332,-1.166 -6.49,-2.75 -9.394,-3.63 v -3.586 c 0,-0.66 0.088,-1.606 0.154,-2.288 h -2.156 c 0.132,0.682 0.176,1.672 0.176,2.288 v 12.804 c 0,0.814 -0.044,1.892 -0.132,2.596 h 2.112 c -0.088,-0.726 -0.132,-1.892 -0.132,-2.596 l -0.022,-7.26 c 2.442,0.77 6.248,2.244 8.646,3.542 z"
       style="font-style:normal;font-variant:normal;font-weight:normal;font-stretch:normal;font-family:'Noto Sans CJK JP';-inkscape-font-specification:'Noto Sans CJK JP';text-align:center;text-anchor:middle"
       id="path929" />
    <path
       d="m 262.01007,385.92774 v 1.232 h -8.492 v -1.232 z m -8.492,3.542 v -1.298 h 8.492 v 1.298 z m -1.562,1.782 h 1.562 v -0.66 h 8.492 v 0.616 h 1.65 v -6.38 h -11.704 z m 10.956,-15.906 h -13.046 v -1.826 h 13.046 z m -7.48,2.772 c -0.198,-0.44 -0.616,-0.99 -1.056,-1.452 h 6.292 c -0.33,0.462 -0.748,1.034 -1.1,1.452 z m 7.502,2.354 h -4.554 v -1.32 h 4.554 z m 0,2.354 h -4.554 v -1.364 h 4.554 z m -10.45,-1.364 h 4.378 v 1.364 h -4.378 z m 0,-2.31 h 4.378 v 1.32 h -4.378 z m 12.056,-6.952 h -16.302 v 6.358 c 0,3.52 -0.198,8.338 -2.376,11.748 0.418,0.176 1.122,0.594 1.43,0.836 2.244,-3.542 2.574,-8.866 2.574,-12.584 v -1.892 h 3.542 l -0.528,0.198 c 0.352,0.374 0.704,0.814 0.968,1.254 h -2.882 v 5.742 h 13.53 v -5.742 h -3.344 c 0.374,-0.396 0.748,-0.836 1.1,-1.298 l -0.462,-0.154 h 2.75 z"
       style="font-style:normal;font-variant:normal;font-weight:normal;font-stretch:normal;font-family:'Noto Sans CJK JP';-inkscape-font-specification:'Noto Sans CJK JP';text-align:center;text-anchor:middle"
       id="path931" />
  </g>
  <g
     aria-label="トランスポート層"
     style="font-style:normal;font-weight:normal;font-size:22px;line-height:125%;font-family:Sans;letter-spacing:0px;word-spacing:0px;fill:#000000;fill-opacity:1;stroke:none"
     id="text4084-64">
    <path
       d="m 109.59158,314.1602 c -2.332,-1.166 -6.49,-2.75 -9.394,-3.63 v -3.586 c 0,-0.66 0.088,-1.606 0.154,-2.288 h -2.155999 c 0.132,0.682 0.176,1.672 0.176,2.288 v 12.804 c 0,0.814 -0.044,1.892 -0.132,2.596 h 2.111999 c -0.088,-0.726 -0.132,-1.892 -0.132,-2.596 l -0.022,-7.26 c 2.442,0.77 6.248,2.244 8.646,3.542 z"
       style="font-style:normal;font-variant:normal;font-weight:normal;font-stretch:normal;font-family:'Noto Sans CJK JP';-inkscape-font-specification:'Noto Sans CJK JP';text-align:center;text-anchor:middle"
       id="path900" />
    <path
       d="m 131.01958,310.3102 c -0.242,0.132 -0.704,0.176 -1.21,0.176 h -11.594 c -0.594,0 -1.342,-0.044 -2.134,-0.132 v 1.848 c 0.77,-0.044 1.606,-0.066 2.134,-0.066 h 11.682 c -0.396,1.584 -1.276,3.454 -2.618,4.862 -1.87,1.958 -4.62,3.388 -7.744,4.026 l 1.364,1.562 c 2.794,-0.77 5.566,-2.068 7.876,-4.598 1.628,-1.782 2.618,-4.07 3.212,-6.248 0.044,-0.154 0.176,-0.44 0.286,-0.638 z m -12.98,-3.19 c 0.594,-0.044 1.298,-0.066 1.98,-0.066 h 8.624 c 0.748,0 1.496,0.022 2.024,0.066 v -1.826 c -0.528,0.088 -1.298,0.11 -2.002,0.11 h -8.646 c -0.704,0 -1.408,-0.022 -1.98,-0.11 z"
       style="font-style:normal;font-variant:normal;font-weight:normal;font-stretch:normal;font-family:'Noto Sans CJK JP';-inkscape-font-specification:'Noto Sans CJK JP';text-align:center;text-anchor:middle"
       id="path902" />
    <path
       d="m 139.95158,305.5582 -1.254,1.342 c 1.628,1.1 4.378,3.454 5.478,4.598 l 1.386,-1.386 c -1.232,-1.232 -4.048,-3.52 -5.61,-4.554 z m -1.892,14.74 1.166,1.804 c 3.674,-0.682 6.446,-2.024 8.646,-3.432 3.322,-2.068 5.874,-5.06 7.392,-7.81 l -1.056,-1.87 c -1.276,2.706 -3.96,5.962 -7.348,8.096 -2.09,1.298 -4.95,2.64 -8.8,3.212 z"
       style="font-style:normal;font-variant:normal;font-weight:normal;font-stretch:normal;font-family:'Noto Sans CJK JP';-inkscape-font-specification:'Noto Sans CJK JP';text-align:center;text-anchor:middle"
       id="path904" />
    <path
       d="m 173.00589,306.1082 c -0.352,0.11 -0.924,0.198 -1.65,0.198 h -8.492 c -0.66,0 -1.914,-0.11 -2.222,-0.154 v 2.002 c 0.242,-0.022 1.452,-0.11 2.222,-0.11 h 8.58 c -0.55,1.804 -2.156,4.422 -3.652,6.116 -2.266,2.53 -5.522,5.148 -9.064,6.534 l 1.408,1.474 c 3.256,-1.474 6.226,-3.894 8.58,-6.424 2.244,2.002 4.576,4.598 6.05,6.534 l 1.54,-1.342 c -1.43,-1.716 -4.114,-4.576 -6.424,-6.556 1.562,-1.98 2.948,-4.554 3.696,-6.446 0.132,-0.308 0.418,-0.792 0.55,-0.968 z"
       style="font-style:normal;font-variant:normal;font-weight:normal;font-stretch:normal;font-family:'Noto Sans CJK JP';-inkscape-font-specification:'Noto Sans CJK JP';text-align:center;text-anchor:middle"
       id="path906" />
    <path
       d="m 196.52389,304.0182 c 0.792,0 1.408,0.638 1.408,1.408 0,0.792 -0.616,1.408 -1.408,1.408 -0.77,0 -1.386,-0.616 -1.386,-1.408 0,-0.77 0.616,-1.408 1.386,-1.408 z m 0,3.806 c 1.342,0 2.42,-1.056 2.42,-2.398 0,-1.32 -1.078,-2.42 -2.42,-2.42 -1.32,0 -2.398,1.1 -2.398,2.42 0,1.342 1.078,2.398 2.398,2.398 z m -12.452,5.038 c -0.858,1.782 -2.75,4.4 -4.202,5.764 l 1.518,1.034 c 1.232,-1.364 3.3,-4.158 4.224,-6.05 z m 12.078,-2.64 c 0.528,0 1.188,0 1.782,0.044 v -1.826 c -0.55,0.088 -1.276,0.11 -1.804,0.11 h -5.808 v -2.244 c 0,-0.484 0.066,-1.276 0.132,-1.584 h -2.068 c 0.088,0.33 0.154,1.078 0.154,1.562 v 2.266 h -6.116 c -0.704,0 -1.254,-0.044 -1.87,-0.11 v 1.848 c 0.594,-0.044 1.21,-0.066 1.87,-0.066 h 6.116 v 9.922 c 0,0.572 -0.264,0.836 -0.858,0.836 -0.572,0 -1.584,-0.088 -2.552,-0.264 l 0.176,1.76 c 0.88,0.088 2.2,0.154 3.124,0.154 1.32,0 1.892,-0.594 1.892,-1.76 v -10.648 z m -2.838,3.454 c 1.166,1.386 2.816,4.136 3.674,5.852 l 1.628,-0.902 c -0.88,-1.584 -2.64,-4.334 -3.806,-5.742 z"
       style="font-style:normal;font-variant:normal;font-weight:normal;font-stretch:normal;font-family:'Noto Sans CJK JP';-inkscape-font-specification:'Noto Sans CJK JP';text-align:center;text-anchor:middle"
       id="path908" />
    <path
       d="m 202.77189,314.3142 c 0.682,-0.066 1.848,-0.11 3.058,-0.11 h 12.078 c 0.99,0 1.914,0.088 2.354,0.11 v -2.156 c -0.484,0.044 -1.276,0.11 -2.376,0.11 h -12.056 c -1.232,0 -2.398,-0.066 -3.058,-0.11 z"
       style="font-style:normal;font-variant:normal;font-weight:normal;font-stretch:normal;font-family:'Noto Sans CJK JP';-inkscape-font-specification:'Noto Sans CJK JP';text-align:center;text-anchor:middle"
       id="path910" />
    <path
       d="m 241.16189,314.1602 c -2.332,-1.166 -6.49,-2.75 -9.394,-3.63 v -3.586 c 0,-0.66 0.088,-1.606 0.154,-2.288 h -2.156 c 0.132,0.682 0.176,1.672 0.176,2.288 v 12.804 c 0,0.814 -0.044,1.892 -0.132,2.596 h 2.112 c -0.088,-0.726 -0.132,-1.892 -0.132,-2.596 l -0.022,-7.26 c 2.442,0.77 6.248,2.244 8.646,3.542 z"
       style="font-style:normal;font-variant:normal;font-weight:normal;font-stretch:normal;font-family:'Noto Sans CJK JP';-inkscape-font-specification:'Noto Sans CJK JP';text-align:center;text-anchor:middle"
       id="path912" />
    <path
       d="m 261.46789,318.0322 v 1.232 h -8.492 v -1.232 z m -8.492,3.542 v -1.298 h 8.492 v 1.298 z m -1.562,1.782 h 1.562 v -0.66 h 8.492 v 0.616 h 1.65 v -6.38 h -11.704 z m 10.956,-15.906 h -13.046 v -1.826 h 13.046 z m -7.48,2.772 c -0.198,-0.44 -0.616,-0.99 -1.056,-1.452 h 6.292 c -0.33,0.462 -0.748,1.034 -1.1,1.452 z m 7.502,2.354 h -4.554 v -1.32 h 4.554 z m 0,2.354 h -4.554 v -1.364 h 4.554 z m -10.45,-1.364 h 4.378 v 1.364 h -4.378 z m 0,-2.31 h 4.378 v 1.32 h -4.378 z m 12.056,-6.952 h -16.302 v 6.358 c 0,3.52 -0.198,8.338 -2.376,11.748 0.418,0.176 1.122,0.594 1.43,0.836 2.244,-3.542 2.574,-8.866 2.574,-12.584 v -1.892 h 3.542 l -0.528,0.198 c 0.352,0.374 0.704,0.814 0.968,1.254 h -2.882 v 5.742 h 13.53 v -5.742 h -3.344 c 0.374,-0.396 0.748,-0.836 1.1,-1.298 l -0.462,-0.154 h 2.75 z"
       style="font-style:normal;font-variant:normal;font-weight:normal;font-stretch:normal;font-family:'Noto Sans CJK JP';-inkscape-font-specification:'Noto Sans CJK JP';text-align:center;text-anchor:middle"
       id="path914" />
  </g>
  <text
     xml:space="preserve"
     style="font-style:normal;font-variant:normal;font-weight:normal;font-stretch:normal;font-size:22px;line-height:125%;font-family:'Open Sans';-inkscape-font-specification:'Open Sans';letter-spacing:0px;word-spacing:0px;fill:#000000;fill-opacity:1;stroke:none"
     x="-152.29993"
     y="109.25325"
     id="text3039"><tspan
       id="tspan3041"
       x="-152.29993"
       y="109.25325" /><tspan
       id="tspan3043"
       x="-152.29993"
       y="136.75325" /></text>
  <g
     aria-label="TCP/IPモデル"
     style="font-style:normal;font-variant:normal;font-weight:normal;font-stretch:normal;font-size:22px;line-height:125%;font-family:'Open Sans';-inkscape-font-specification:'Open Sans';letter-spacing:0px;word-spacing:0px;fill:#30ba78;fill-opacity:1;stroke:none"
     id="text3045">
    <path
       d="M 90.173828,69.648437 H 87.185547 V 46.603516 H 79.046875 V 43.949219 H 98.3125 v 2.654297 h -8.138672 z"
       style="font-size:36px;text-align:center;text-anchor:middle;fill:#30ba78"
       id="path862" />
    <path
       d="m 113.16602,46.251953 q -4.23633,0 -6.69727,2.830078 -2.44336,2.8125 -2.44336,7.716797 0,5.044922 2.35547,7.804688 2.37305,2.742187 6.75,2.742187 2.68945,0 6.13477,-0.966797 v 2.619141 Q 116.59375,70 112.67383,70 q -5.67774,0 -8.77149,-3.445313 -3.07617,-3.445312 -3.07617,-9.791015 0,-3.972656 1.47656,-6.960938 1.49415,-2.988281 4.28907,-4.605468 2.8125,-1.617188 6.60937,-1.617188 4.04297,0 7.06641,1.476563 l -1.26563,2.566406 q -2.91797,-1.371094 -5.83593,-1.371094 z"
       style="font-size:36px;text-align:center;text-anchor:middle;fill:#30ba78"
       id="path864" />
    <path
       d="m 141.16797,51.4375 q 0,3.902344 -2.67188,6.011719 -2.65429,2.091797 -7.61132,2.091797 h -3.02344 v 10.107421 h -2.98828 V 43.949219 h 6.66211 q 9.63281,0 9.63281,7.488281 z m -13.30664,5.537109 h 2.68945 q 3.97266,0 5.74805,-1.283203 1.77539,-1.283203 1.77539,-4.113281 0,-2.548828 -1.66992,-3.796875 -1.66993,-1.248047 -5.20313,-1.248047 h -3.33984 z"
       style="font-size:36px;text-align:center;text-anchor:middle;fill:#30ba78"
       id="path866" />
    <path
       d="m 155.8457,43.949219 -9.58008,25.699218 h -2.91796 l 9.58007,-25.699218 z"
       style="font-size:36px;text-align:center;text-anchor:middle;fill:#30ba78"
       id="path868" />
    <path
       d="M 159.74805,69.648437 V 43.949219 h 2.98828 v 25.699218 z"
       style="font-size:36px;text-align:center;text-anchor:middle;fill:#30ba78"
       id="path870" />
    <path
       d="m 186.09766,51.4375 q 0,3.902344 -2.67188,6.011719 -2.6543,2.091797 -7.61133,2.091797 h -3.02343 v 10.107421 h -2.98829 V 43.949219 h 6.66211 q 9.63282,0 9.63282,7.488281 z m -13.30664,5.537109 h 2.68945 q 3.97265,0 5.74805,-1.283203 1.77539,-1.283203 1.77539,-4.113281 0,-2.548828 -1.66993,-3.796875 -1.66992,-1.248047 -5.20312,-1.248047 h -3.33984 z"
       style="font-size:36px;text-align:center;text-anchor:middle;fill:#30ba78"
       id="path872" />
    <path
       d="m 217.66178,57.192437 c 0.792,0 2.088,0 2.916,0.108 v -2.951999 c -0.828,0.072 -2.232,0.143999 -2.988,0.143999 h -12.132 v -7.631999 h 9.36 c 1.26,0 2.088,0.072 2.952,0.107999 v -2.88 c -0.792,0.072 -1.8,0.144001 -2.952,0.144001 h -17.136 c -1.224,0 -2.268,-0.072 -3.24,-0.144001 v 2.88 c 0.972,-0.072 2.016,-0.107999 3.24,-0.107999 h 4.788 v 7.631999 h -6.984 c -0.972,0 -2.448,-0.107999 -3.42,-0.179999 v 3.024 c 1.008,-0.072 2.484,-0.144001 3.42,-0.144001 h 6.984 v 8.136001 c 0,2.952 1.692,4.86 7.128,4.86 3.456,0 6.912,-0.144001 9.72,-0.36 l 0.18,-3.024 c -3.096,0.36 -6.048,0.503999 -9.468,0.503999 -3.312,0 -4.572,-1.08 -4.572,-2.88 v -7.236 z"
       style="font-style:normal;font-variant:normal;font-weight:normal;font-stretch:normal;font-family:'Noto Sans CJK JP';-inkscape-font-specification:'Noto Sans CJK JP'"
       id="path874" />
    <path
       d="m 255.13778,45.348438 c -0.756,-1.476 -2.052,-3.636001 -2.952,-4.932001 l -1.908,0.828001 c 0.972,1.331999 2.196,3.491999 2.916,4.967999 z m -8.172,0.863999 c 1.044,0 2.304,0.036 3.348,0.108 v -2.988 c -1.044,0.144001 -2.34,0.216001 -3.348,0.216001 h -12.456 c -1.152,0 -2.232,-0.108 -3.276,-0.216001 v 2.988 c 0.936,-0.072 2.124,-0.108 3.312,-0.108 z m -16.848,6.336 c -1.116,0 -2.16,-0.072 -3.132,-0.144 v 2.952 c 0.972,-0.072 2.016,-0.072 3.132,-0.072 h 10.764 c -0.108,3.384 -0.504,6.408 -2.088,8.928 -1.404,2.268 -3.996,4.356001 -6.804,5.508001 l 2.664,1.98 c 3.06,-1.584 5.796,-4.176 7.092,-6.588001 1.44,-2.664 2.016,-5.94 2.124,-9.828 h 9.792 c 0.864,0 2.016,0.036 2.808,0.072 v -2.952 c -0.864,0.108 -2.052,0.144 -2.808,0.144 z m 24.12,-12.78 c 1.044,1.368 2.196,3.384001 2.988,4.968 l 1.944,-0.863999 c -0.684,-1.332001 -2.088,-3.600001 -3.024,-4.896 z"
       style="font-style:normal;font-variant:normal;font-weight:normal;font-stretch:normal;font-family:'Noto Sans CJK JP';-inkscape-font-specification:'Noto Sans CJK JP'"
       id="path876" />
    <path
       d="m 265.00178,70.512438 c 3.024,-2.484001 5.328,-6.012 6.408,-9.864001 0.972,-3.6 1.116,-11.304 1.116,-15.299999 0,-1.08 0.144,-2.160001 0.18,-2.592 h -3.312 c 0.144,0.756 0.252,1.548 0.252,2.627999 0,3.996 -0.036,11.16 -1.08,14.472 -1.08,3.492001 -3.24,6.696 -6.264,8.856 z m 15.696,-0.036 c 0.36,-0.288 0.684,-0.540001 1.224,-0.828001 4.176,-2.087999 9.18,-5.759999 12.276,-9.972 l -1.728,-2.448 c -2.736,4.068 -7.164,7.344001 -10.476,8.856001 v -20.772 c 0,-1.368001 0.108,-2.376001 0.144,-2.664001 h -3.312 c 0.036,0.288 0.216,1.296 0.216,2.664001 v 21.563999 c 0,0.72 -0.108,1.440001 -0.252,2.016 z"
       style="font-style:normal;font-variant:normal;font-weight:normal;font-stretch:normal;font-family:'Noto Sans CJK JP';-inkscape-font-specification:'Noto Sans CJK JP'"
       id="path878" />
  </g>
  <g
     aria-label="OSIモデル"
     style="font-style:normal;font-variant:normal;font-weight:normal;font-stretch:normal;font-size:22px;line-height:125%;font-family:'Open Sans';-inkscape-font-specification:'Open Sans';letter-spacing:0px;word-spacing:0px;fill:#0c322c;fill-opacity:1;stroke:none"
     id="text3049">
    <path
       d="m 460.95801,56.763672 q 0,6.169922 -3.12891,9.703125 Q 454.71777,70 449.16309,70 q -5.67774,0 -8.77149,-3.462891 -3.07617,-3.480468 -3.07617,-9.808593 0,-6.275391 3.09375,-9.720704 3.09375,-3.46289 8.78906,-3.46289 5.53711,0 8.64844,3.515625 3.11133,3.515625 3.11133,9.703125 z m -20.47852,0 q 0,5.220703 2.21485,7.927734 2.23242,2.689453 6.46875,2.689453 4.27148,0 6.45117,-2.689453 2.17969,-2.689453 2.17969,-7.927734 0,-5.185547 -2.17969,-7.857422 -2.16211,-2.689453 -6.41602,-2.689453 -4.27148,0 -6.5039,2.707031 -2.21485,2.689453 -2.21485,7.839844 z"
       style="font-size:36px;text-align:center;text-anchor:middle;fill:#0c322c"
       id="path957" />
    <path
       d="m 481.20801,62.810547 q 0,3.392578 -2.46094,5.291015 Q 476.28613,70 472.06738,70 q -4.57031,0 -7.03125,-1.177734 v -2.882813 q 1.58203,0.667969 3.44532,1.054688 1.86328,0.386718 3.6914,0.386718 2.98828,0 4.5,-1.125 1.51172,-1.142578 1.51172,-3.164062 0,-1.335938 -0.54492,-2.179688 -0.52735,-0.861328 -1.79297,-1.582031 -1.24805,-0.720703 -3.81445,-1.634766 -3.58594,-1.283203 -5.13282,-3.041015 -1.52929,-1.757813 -1.52929,-4.587891 0,-2.970703 2.23242,-4.728515 2.23242,-1.757813 5.90625,-1.757813 3.83203,0 7.04883,1.40625 l -0.93164,2.601563 q -3.18164,-1.335938 -6.1875,-1.335938 -2.37305,0 -3.70899,1.019531 -1.33594,1.019532 -1.33594,2.830078 0,1.335938 0.49219,2.197266 0.49219,0.84375 1.65235,1.564453 1.17773,0.703125 3.58593,1.564453 4.04297,1.441407 5.55469,3.09375 1.5293,1.652344 1.5293,4.289063 z"
       style="font-size:36px;text-align:center;text-anchor:middle;fill:#0c322c"
       id="path959" />
    <path
       d="M 486.46387,69.648437 V 43.949219 h 2.98828 v 25.699218 z"
       style="font-size:36px;text-align:center;text-anchor:middle;fill:#0c322c"
       id="path961" />
    <path
       d="m 522.72135,57.192437 c 0.792,0 2.088,0 2.916,0.108 v -2.951999 c -0.828,0.072 -2.232,0.143999 -2.988,0.143999 h -12.132 v -7.631999 h 9.36 c 1.26,0 2.088,0.072 2.952,0.107999 v -2.88 c -0.792,0.072 -1.8,0.144001 -2.952,0.144001 h -17.136 c -1.224,0 -2.268,-0.072 -3.24,-0.144001 v 2.88 c 0.972,-0.072 2.016,-0.107999 3.24,-0.107999 h 4.788 v 7.631999 h -6.984 c -0.972,0 -2.448,-0.107999 -3.42,-0.179999 v 3.024 c 1.008,-0.072 2.484,-0.144001 3.42,-0.144001 h 6.984 v 8.136001 c 0,2.952 1.692,4.86 7.128,4.86 3.456,0 6.912,-0.144001 9.72,-0.36 l 0.18,-3.024 c -3.096,0.36 -6.048,0.503999 -9.468,0.503999 -3.312,0 -4.572,-1.08 -4.572,-2.88 v -7.236 z"
       style="font-style:normal;font-variant:normal;font-weight:normal;font-stretch:normal;font-family:'Noto Sans CJK JP';-inkscape-font-specification:'Noto Sans CJK JP'"
       id="path963" />
    <path
       d="m 560.19735,45.348438 c -0.756,-1.476 -2.052,-3.636001 -2.952,-4.932001 l -1.908,0.828001 c 0.972,1.331999 2.196,3.491999 2.916,4.967999 z m -8.172,0.863999 c 1.044,0 2.304,0.036 3.348,0.108 v -2.988 c -1.044,0.144001 -2.34,0.216001 -3.348,0.216001 h -12.456 c -1.152,0 -2.232,-0.108 -3.276,-0.216001 v 2.988 c 0.936,-0.072 2.124,-0.108 3.312,-0.108 z m -16.848,6.336 c -1.116,0 -2.16,-0.072 -3.132,-0.144 v 2.952 c 0.972,-0.072 2.016,-0.072 3.132,-0.072 h 10.764 c -0.108,3.384 -0.504,6.408 -2.088,8.928 -1.404,2.268 -3.996,4.356001 -6.804,5.508001 l 2.664,1.98 c 3.06,-1.584 5.796,-4.176 7.092,-6.588001 1.44,-2.664 2.016,-5.94 2.124,-9.828 h 9.792 c 0.864,0 2.016,0.036 2.808,0.072 v -2.952 c -0.864,0.108 -2.052,0.144 -2.808,0.144 z m 24.12,-12.78 c 1.044,1.368 2.196,3.384001 2.988,4.968 l 1.944,-0.863999 c -0.684,-1.332001 -2.088,-3.600001 -3.024,-4.896 z"
       style="font-style:normal;font-variant:normal;font-weight:normal;font-stretch:normal;font-family:'Noto Sans CJK JP';-inkscape-font-specification:'Noto Sans CJK JP'"
       id="path965" />
    <path
       d="m 570.06135,70.512438 c 3.024,-2.484001 5.328,-6.012 6.408,-9.864001 0.972,-3.6 1.116,-11.304 1.116,-15.299999 0,-1.08 0.144,-2.160001 0.18,-2.592 h -3.312 c 0.144,0.756 0.252,1.548 0.252,2.627999 0,3.996 -0.036,11.16 -1.08,14.472 -1.08,3.492001 -3.24,6.696 -6.264,8.856 z m 15.696,-0.036 c 0.36,-0.288 0.684,-0.540001 1.224,-0.828001 4.176,-2.087999 9.18,-5.759999 12.276,-9.972 l -1.728,-2.448 c -2.736,4.068 -7.164,7.344001 -10.476,8.856001 v -20.772 c 0,-1.368001 0.108,-2.376001 0.144,-2.664001 h -3.312 c 0.036,0.288 0.216,1.296 0.216,2.664001 v 21.563999 c 0,0.72 -0.108,1.440001 -0.252,2.016 z"
       style="font-style:normal;font-variant:normal;font-weight:normal;font-stretch:normal;font-family:'Noto Sans CJK JP';-inkscape-font-specification:'Noto Sans CJK JP'"
       id="path967" />
  </g>
</svg>
