<?xml version="1.0" encoding="UTF-8" standalone="no"?>
<svg
   xml:space="preserve"
   width="205mm"
   height="180mm"
   fill-rule="evenodd"
   stroke-linejoin="round"
   stroke-width="28.22"
   preserveAspectRatio="xMidYMid"
   version="1.2"
   viewBox="0 0 20500 18000"
   id="svg1774"
   sodipodi:docname="uefi-secure-boot-mok2.svg"
   inkscape:version="1.2.2 (732a01da63, 2022-12-09)"
   xmlns:inkscape="http://www.inkscape.org/namespaces/inkscape"
   xmlns:sodipodi="http://sodipodi.sourceforge.net/DTD/sodipodi-0.dtd"
   xmlns="http://www.w3.org/2000/svg"
   xmlns:svg="http://www.w3.org/2000/svg"><sodipodi:namedview
   id="namedview1776"
   pagecolor="#ffffff"
   bordercolor="#000000"
   borderopacity="0.25"
   inkscape:showpageshadow="2"
   inkscape:pageopacity="0.0"
   inkscape:pagecheckerboard="0"
   inkscape:deskcolor="#d1d1d1"
   inkscape:document-units="mm"
   showgrid="false"
   inkscape:zoom="3.350966"
   inkscape:cx="507.31639"
   inkscape:cy="281.70981"
   inkscape:window-width="1920"
   inkscape:window-height="1009"
   inkscape:window-x="-8"
   inkscape:window-y="-8"
   inkscape:window-maximized="1"
   inkscape:current-layer="text1684" />
    <defs
   class="ClipPathGroup"
   id="defs1600">
        <marker
   id="a"
   markerHeight="4.71"
   markerWidth="3.06"
   orient="auto"
   refX="1.53"
   refY="2.35">
            <path
   fill="none"
   stroke="#505050"
   stroke-linejoin="miter"
   stroke-width="1"
   d="m2.7.35-2 2 2 2"
   id="path1570" />
        </marker>
        <marker
   id="b"
   markerHeight="4.71"
   markerWidth="3.06"
   orient="auto"
   refX="1.53"
   refY="2.35">
            <path
   fill="none"
   stroke="#505050"
   stroke-linejoin="miter"
   stroke-width="1"
   d="m.35.35 2 2-2 2"
   id="path1573" />
        </marker>
        <marker
   id="c"
   markerHeight="4.71"
   markerWidth="3.06"
   orient="auto"
   refX="1.53"
   refY="2.35">
            <path
   fill="none"
   stroke="#505050"
   stroke-linejoin="miter"
   stroke-width="1"
   d="m.35.35 2 2-2 2"
   id="path1576" />
        </marker>
        <marker
   id="d"
   markerHeight="4.71"
   markerWidth="3.06"
   orient="auto"
   refX="1.53"
   refY="2.35">
            <path
   fill="none"
   stroke="#505050"
   stroke-linejoin="miter"
   stroke-width="1"
   d="m.35.35 2 2-2 2"
   id="path1579" />
        </marker>
        <marker
   id="e"
   markerHeight="4.71"
   markerWidth="3.06"
   orient="auto"
   refX="1.53"
   refY="2.35">
            <path
   fill="none"
   stroke="#505050"
   stroke-linejoin="miter"
   stroke-width="1"
   d="m.35.35 2 2-2 2"
   id="path1582" />
        </marker>
        <marker
   id="f"
   markerHeight="4.71"
   markerWidth="3.06"
   orient="auto"
   refX="1.53"
   refY="2.35">
            <path
   fill="none"
   stroke="#505050"
   stroke-linejoin="miter"
   stroke-width="1"
   d="m.35.35 2 2-2 2"
   id="path1585" />
        </marker>
        <marker
   id="g"
   markerHeight="4.71"
   markerWidth="3.06"
   orient="auto"
   refX="1.53"
   refY="2.35">
            <path
   fill="none"
   stroke="#505050"
   stroke-linejoin="miter"
   stroke-width="1"
   d="m.35.35 2 2-2 2"
   id="path1588" />
        </marker>
        <marker
   id="h"
   markerHeight="4.71"
   markerWidth="3.06"
   orient="auto"
   refX="1.53"
   refY="2.35">
            <path
   fill="none"
   stroke="#505050"
   stroke-linejoin="miter"
   stroke-width="1"
   d="m.35.35 2 2-2 2"
   id="path1591" />
        </marker>
        <marker
   id="i"
   markerHeight="4.71"
   markerWidth="3.06"
   orient="auto"
   refX="1.53"
   refY="2.35">
            <path
   fill="none"
   stroke="#505050"
   stroke-linejoin="miter"
   stroke-width="1"
   d="m.35.35 2 2-2 2"
   id="path1594" />
        </marker>
        <marker
   id="j"
   markerHeight="4.71"
   markerWidth="3.06"
   orient="auto"
   refX="1.53"
   refY="2.35">
            <path
   fill="none"
   stroke="#505050"
   stroke-linejoin="miter"
   stroke-width="1"
   d="m.35.35 2 2-2 2"
   id="path1597" />
        </marker>
    </defs>
    <g
   class="SlideGroup"
   id="g1770"
   transform="translate(-529.16667)">
        <g
   class="com.sun.star.drawing.TextShape"
   transform="translate(211.67,317.5)"
   id="g1612">
            <rect
   width="1073"
   height="777"
   x="2478"
   y="341"
   fill="none"
   class="BoundingBox"
   id="rect1602" />
            <g
   aria-label="PK"
   id="text1610"
   style="font-weight:500;font-family:Poppins;-inkscape-font-specification:'Poppins Medium'"
   class="TextShape"><path
     d="m 2939.684,689.716 q 0,33.756 -23.28,56.26 -22.892,22.116 -70.228,22.116 h -51.992 V 881 h -35.308 V 610.564 h 87.3 q 45.784,0 69.452,22.116 24.056,22.116 24.056,57.036 z m -93.508,49.276 q 29.488,0 43.456,-12.804 13.968,-12.804 13.968,-36.472 0,-50.052 -57.424,-50.052 h -51.992 v 99.328 z"
     id="path2980" /><path
     d="M 3130.1922,881 3018.8362,757.616 V 881 h -35.308 V 610.564 h 35.308 v 125.324 l 111.744,-125.324 h 44.62 L 3052.5922,745.976 3176.3642,881 Z"
     id="path2982" /></g>
        </g>
        <g
   class="com.sun.star.drawing.TextShape"
   transform="translate(0,582.08)"
   id="g1624">
            <rect
   width="1193"
   height="777"
   x="2458"
   y="4340"
   fill="none"
   class="BoundingBox"
   id="rect1614" />
            <g
   aria-label="KEK"
   id="text1622"
   style="font-weight:500;font-family:Poppins;-inkscape-font-specification:'Poppins Medium'"
   class="TextShape"><path
     d="M 2885.54,4880 2774.184,4756.616 V 4880 h -35.308 v -270.436 h 35.308 v 125.324 l 111.744,-125.324 h 44.62 L 2807.94,4744.976 2931.712,4880 Z"
     id="path2985" /><path
     d="m 3006.5964,4638.276 v 90.404 h 98.552 v 29.1 h -98.552 v 93.12 h 110.192 v 29.1 h -145.5 v -270.824 h 145.5 v 29.1 z"
     id="path2987" /><path
     d="m 3316.9965,4880 -111.356,-123.384 V 4880 h -35.308 v -270.436 h 35.308 v 125.324 l 111.744,-125.324 h 44.62 l -122.608,135.412 123.772,135.024 z"
     id="path2989" /></g>
        </g>
        <g
   class="com.sun.star.drawing.TextShape"
   transform="translate(-158.75)"
   id="g1636">
            <rect
   width="3369"
   height="777"
   x="282"
   y="6590"
   fill="none"
   class="BoundingBox"
   id="rect1626" />
            <g
   aria-label="SUSE公開鍵"
   id="text1634"
   style="font-weight:500;font-family:Poppins;-inkscape-font-specification:'Poppins Medium'"
   class="TextShape"><path
     d="m 1689.2524,7503.1325 q -26.772,0 -48.112,-9.312 -20.952,-9.7 -32.98,-26.384 -12.028,-17.072 -12.416,-39.188 h 37.636 q 1.94,19.012 15.52,32.204 13.968,12.804 40.352,12.804 25.22,0 39.576,-12.416 14.744,-12.804 14.744,-32.592 0,-15.52 -8.536,-25.22 -8.536,-9.7 -21.34,-14.744 -12.804,-5.044 -34.532,-10.864 -26.772,-6.984 -43.068,-13.968 -15.908,-6.984 -27.548,-21.728 -11.252,-15.132 -11.252,-40.352 0,-22.116 11.252,-39.188 11.252,-17.072 31.428,-26.384 20.564,-9.312 46.948,-9.312 38.024,0 62.08,19.012 24.444,19.012 27.548,50.44 h -38.8 q -1.94,-15.52 -16.296,-27.16 -14.356,-12.028 -38.024,-12.028 -22.116,0 -36.084,11.64 -13.968,11.252 -13.968,31.816 0,14.744 8.148,24.056 8.536,9.312 20.564,14.356 12.416,4.656 34.532,10.864 26.772,7.372 43.068,14.744 16.296,6.984 27.936,22.116 11.64,14.744 11.64,40.352 0,19.788 -10.476,37.248 -10.476,17.46 -31.04,28.324 -20.564,10.864 -48.5,10.864 z"
     style="text-align:end;text-anchor:end"
     id="path2992" /><path
     d="m 1865.7924,7229.9805 v 171.108 q 0,36.084 17.46,53.544 17.848,17.46 49.276,17.46 31.04,0 48.5,-17.46 17.848,-17.46 17.848,-53.544 v -171.108 h 35.308 v 170.72 q 0,33.756 -13.58,57.036 -13.58,22.892 -36.86,34.144 -22.892,11.252 -51.604,11.252 -28.712,0 -51.992,-11.252 -22.892,-11.252 -36.472,-34.144 -13.192,-23.28 -13.192,-57.036 v -170.72 z"
     style="text-align:end;text-anchor:end"
     id="path2994" /><path
     d="m 2178.9081,7503.1325 q -26.772,0 -48.112,-9.312 -20.952,-9.7 -32.98,-26.384 -12.028,-17.072 -12.416,-39.188 h 37.636 q 1.94,19.012 15.52,32.204 13.968,12.804 40.352,12.804 25.22,0 39.576,-12.416 14.744,-12.804 14.744,-32.592 0,-15.52 -8.536,-25.22 -8.536,-9.7 -21.34,-14.744 -12.804,-5.044 -34.532,-10.864 -26.772,-6.984 -43.068,-13.968 -15.908,-6.984 -27.548,-21.728 -11.252,-15.132 -11.252,-40.352 0,-22.116 11.252,-39.188 11.252,-17.072 31.428,-26.384 20.564,-9.312 46.948,-9.312 38.024,0 62.08,19.012 24.444,19.012 27.548,50.44 h -38.8 q -1.94,-15.52 -16.296,-27.16 -14.356,-12.028 -38.024,-12.028 -22.116,0 -36.084,11.64 -13.968,11.252 -13.968,31.816 0,14.744 8.148,24.056 8.536,9.312 20.564,14.356 12.416,4.656 34.532,10.864 26.772,7.372 43.068,14.744 16.296,6.984 27.936,22.116 11.64,14.744 11.64,40.352 0,19.788 -10.476,37.248 -10.476,17.46 -31.04,28.324 -20.564,10.864 -48.5,10.864 z"
     style="text-align:end;text-anchor:end"
     id="path2996" /><path
     d="m 2356.224,7258.6925 v 90.404 h 98.552 v 29.1 h -98.552 v 93.12 h 110.192 v 29.1 h -145.5 v -270.824 h 145.5 v 29.1 z"
     style="text-align:end;text-anchor:end"
     id="path2998" /><path
     d="m 2613.8562,7186.9125 c -22.892,57.036 -60.916,112.52 -103.208,147.44 8.148,4.268 21.34,15.132 27.548,20.564 41.128,-38.024 81.092,-97 107.088,-159.08 z m 112.908,212.624 c 18.236,21.728 38.024,48.112 55.484,73.332 -58.588,2.716 -118.34,5.432 -170.72,7.372 25.608,-45.784 53.544,-106.312 74.496,-156.364 l -33.368,-8.148 c -16.684,50.052 -47.336,118.728 -73.332,166.064 -19.4,0.388 -37.248,1.164 -53.156,1.552 l 3.88,30.264 c 69.064,-3.492 172.272,-8.148 270.048,-13.968 7.372,11.64 13.968,22.892 19.012,32.204 l 28.324,-15.908 c -19.012,-34.532 -58.588,-88.464 -93.896,-128.816 z m -3.88,-200.984 c 29.488,54.32 77.988,119.116 113.684,156.364 5.82,-7.76 16.296,-19.012 24.056,-24.444 -35.308,-32.592 -83.808,-93.12 -109.804,-143.56 z"
     style="font-weight:normal;font-family:'Noto Sans CJK JP';-inkscape-font-specification:'Noto Sans CJK JP'"
     id="path3000" /><path
     d="m 3027.0762,7214.4605 v 31.428 h -84.972 v -31.428 z m -84.972,85.36 v -33.368 h 84.972 v 33.368 z m 112.132,22.116 v -129.592 h -140.456 v 337.948 h 28.324 v -208.356 z m -10.864,90.016 v -41.904 h 54.32 v 41.904 z m 132.696,24.444 v -24.444 h -52.768 v -41.904 h 44.232 v -23.668 h -191.284 v 23.668 h 41.904 v 41.904 h -49.276 v 24.444 h 48.5 c -2.328,22.504 -13.192,54.708 -45.784,74.496 6.208,3.88 14.744,12.028 19.012,17.072 37.248,-25.22 49.664,-65.572 51.992,-91.568 h 55.096 v 86.524 h 25.608 v -86.524 z m -60.14,-136.188 v -33.756 h 88.076 v 33.756 z m 88.076,-85.748 v 31.428 h -88.076 v -31.428 z m 28.324,-22.116 h -143.948 v 129.98 h 115.624 v 169.944 c 0,6.208 -1.94,8.536 -8.148,8.536 -5.82,0.388 -26.772,0.388 -48.112,-0.388 4.268,7.76 8.536,21.34 9.312,28.712 29.1,0.388 48.5,-0.388 60.14,-5.044 11.252,-5.044 15.132,-14.356 15.132,-31.428 z"
     style="font-weight:normal;font-family:'Noto Sans CJK JP';-inkscape-font-specification:'Noto Sans CJK JP'"
     id="path3002" /><path
     d="m 3597.4362,7231.1445 v 28.712 h -32.204 v -28.712 z m -32.204,81.868 v -30.264 h 32.204 v 30.264 z m -24.056,-53.156 h -58.2 v 22.892 h 58.2 v 30.264 h -40.352 v 22.504 h 40.352 v 29.488 h -46.172 v 23.668 h 46.172 v 30.264 h -55.096 v 24.444 h 55.096 v 41.904 h 24.056 v -41.904 h 69.84 v -24.444 h -69.84 v -30.264 h 58.588 v -23.668 h -58.588 v -29.488 h 53.932 v -51.216 h 20.952 v -25.608 h -20.952 v -50.052 h -53.932 v -31.816 h -24.056 v 31.816 h -40.74 v 22.504 h 40.74 z m -63.632,55.872 -4.656,0.776 h -24.056 c 13.192,-39.188 26.384,-82.644 34.92,-112.908 l -16.684,-3.88 -4.268,1.164 h -49.276 v 25.608 h 39.188 c -10.088,34.532 -25.22,83.032 -38.412,118.728 l 23.28,5.044 3.492,-10.476 h 25.608 c -3.492,31.428 -8.924,58.588 -16.296,81.48 -5.432,-15.132 -9.7,-33.368 -13.192,-55.096 l -20.176,5.82 c 5.432,32.592 12.804,58.2 21.728,78.376 -6.596,13.968 -14.356,25.608 -22.892,35.696 l -1.552,-18.624 -50.44,10.088 v -116.4 h 45.784 v -24.832 h -45.784 v -40.352 h 39.576 v -24.056 h -90.404 c 19.788,-23.28 34.532,-47.724 45.396,-68.288 17.072,19.012 34.92,45.008 44.232,60.916 l 18.624,-20.176 c -10.864,-19.012 -34.92,-48.112 -55.096,-68.288 h -24.056 c -12.028,30.652 -34.92,70.228 -68.288,100.104 5.432,3.492 14.356,12.028 18.236,17.848 3.492,-3.104 6.984,-6.596 10.088,-10.088 v 12.028 h 37.636 v 40.352 h -53.156 v 24.832 h 53.156 v 121.056 c -21.728,3.88 -41.516,7.76 -57.424,10.476 l 6.596,25.608 c 33.756,-6.984 77.988,-16.296 120.668,-25.22 -7.76,7.76 -16.296,14.356 -25.608,20.176 5.432,3.492 14.744,12.416 18.624,17.072 19.788,-12.804 36.472,-30.652 49.664,-54.708 25.608,37.636 61.304,47.336 108.252,47.336 h 72.556 c 1.164,-6.984 5.044,-18.624 8.924,-25.22 -13.58,0.388 -70.228,0.388 -80.316,0.388 -41.904,0 -74.884,-8.924 -97.388,-46.56 13.968,-34.144 22.892,-77.6 27.548,-133.084 z m -184.3,71.392 c 6.596,23.668 12.028,53.544 12.416,73.72 l 20.176,-5.044 c -1.164,-19.4 -6.596,-49.664 -13.968,-72.944 z m 98.164,65.572 c 5.044,-18.236 11.252,-45.784 16.296,-69.452 l -19.788,-4.656 c -2.716,20.176 -9.312,51.216 -13.968,69.84 z"
     style="font-weight:normal;font-family:'Noto Sans CJK JP';-inkscape-font-specification:'Noto Sans CJK JP'"
     id="path3004" /></g>
        </g>
        <g
   class="com.sun.star.drawing.TextShape"
   transform="translate(0,740.83)"
   id="g1648">
            <rect
   width="1396"
   height="777"
   x="2255"
   y="9966"
   fill="none"
   class="BoundingBox"
   id="rect1638" />
            <g
   aria-label="MOK"
   id="text1646"
   style="font-weight:500;font-family:Poppins;-inkscape-font-specification:'Poppins Medium'"
   class="TextShape"><path
     d="M 2810.192,10237.504 V 10506 h -35.308 v -200.208 l -89.24,200.208 h -24.832 l -89.628,-200.596 V 10506 h -35.308 v -268.496 h 38.024 l 99.328,221.936 99.328,-221.936 z"
     id="path3007" /><path
     d="m 2992.552,10508.716 q -37.636,0 -68.676,-17.46 -31.04,-17.848 -49.276,-49.276 -17.848,-31.816 -17.848,-71.392 0,-39.576 17.848,-71.004 18.236,-31.816 49.276,-49.276 31.04,-17.848 68.676,-17.848 38.024,0 69.064,17.848 31.04,17.46 48.888,48.888 17.848,31.428 17.848,71.392 0,39.964 -17.848,71.392 -17.848,31.428 -48.888,49.276 -31.04,17.46 -69.064,17.46 z m 0,-30.652 q 28.324,0 50.828,-13.192 22.892,-13.192 35.696,-37.636 13.192,-24.444 13.192,-56.648 0,-32.592 -13.192,-56.648 -12.804,-24.444 -35.308,-37.636 -22.504,-13.192 -51.216,-13.192 -28.712,0 -51.216,13.192 -22.504,13.192 -35.696,37.636 -12.804,24.056 -12.804,56.648 0,32.204 12.804,56.648 13.192,24.444 35.696,37.636 22.892,13.192 51.216,13.192 z"
     id="path3009" /><path
     d="m 3321.5758,10506 -111.356,-123.384 V 10506 h -35.308 v -270.436 h 35.308 v 125.324 l 111.744,-125.324 h 44.62 l -122.608,135.412 123.772,135.024 z"
     id="path3011" /></g>
        </g>
        <g
   class="com.sun.star.drawing.TextShape"
   transform="translate(317.5,952.5)"
   id="g1666">
            <rect
   width="1801"
   height="1302"
   x="18900"
   y="3965"
   fill="none"
   class="BoundingBox"
   id="rect1650" />
            
        </g>
        <g
   class="com.sun.star.drawing.TextShape"
   transform="translate(0,740.83)"
   id="g1678">
            <rect
   width="1396"
   height="777"
   x="2256"
   y="14466"
   fill="none"
   class="BoundingBox"
   id="rect1668" />
            <g
   aria-label="MOK"
   id="text1676"
   style="font-weight:500;font-family:Poppins;-inkscape-font-specification:'Poppins Medium'"
   class="TextShape"><path
     d="M 2811.192,14737.504 V 15006 h -35.308 v -200.208 l -89.24,200.208 h -24.832 l -89.628,-200.596 V 15006 h -35.308 v -268.496 h 38.024 l 99.328,221.936 99.328,-221.936 z"
     id="path3014" /><path
     d="m 2993.552,15008.716 q -37.636,0 -68.676,-17.46 -31.04,-17.848 -49.276,-49.276 -17.848,-31.816 -17.848,-71.392 0,-39.576 17.848,-71.004 18.236,-31.816 49.276,-49.276 31.04,-17.848 68.676,-17.848 38.024,0 69.064,17.848 31.04,17.46 48.888,48.888 17.848,31.428 17.848,71.392 0,39.964 -17.848,71.392 -17.848,31.428 -48.888,49.276 -31.04,17.46 -69.064,17.46 z m 0,-30.652 q 28.324,0 50.828,-13.192 22.892,-13.192 35.696,-37.636 13.192,-24.444 13.192,-56.648 0,-32.592 -13.192,-56.648 -12.804,-24.444 -35.308,-37.636 -22.504,-13.192 -51.216,-13.192 -28.712,0 -51.216,13.192 -22.504,13.192 -35.696,37.636 -12.804,24.056 -12.804,56.648 0,32.204 12.804,56.648 13.192,24.444 35.696,37.636 22.892,13.192 51.216,13.192 z"
     id="path3016" /><path
     d="m 3322.5758,15006 -111.356,-123.384 V 15006 h -35.308 v -270.436 h 35.308 v 125.324 l 111.744,-125.324 h 44.62 l -122.608,135.412 123.772,135.024 z"
     id="path3018" /></g>
        </g>
        <rect
   width="4593.6699"
   height="3175"
   x="12710.08"
   y="5556.25"
   fill="#dedfe0"
   opacity="0.99"
   paint-order="stroke fill markers"
   id="rect1680" />
        <g
   aria-label="MOKリスト"
   id="text1684"
   style="font-weight:500;font-size:529.17px;line-height:1.25;font-family:Poppins;-inkscape-font-specification:'Poppins, Medium';letter-spacing:0;stroke-width:746.71"><path
     d="m 14029.008,6248.4042 v 366.1856 h -48.155 v -273.0517 l -121.709,273.0517 h -33.867 l -122.238,-273.5808 v 273.5808 h -48.154 v -366.1856 h 51.858 l 135.468,302.6852 135.467,-302.6852 z"
     style="text-align:center;text-anchor:middle;fill:#505050"
     id="path2799" /><path
     d="m 14277.718,6618.294 q -51.33,0 -93.663,-23.8126 -42.334,-24.3418 -67.205,-67.2046 -24.342,-43.3919 -24.342,-97.3673 0,-53.9753 24.342,-96.8381 24.871,-43.3919 67.205,-67.2046 42.333,-24.3418 93.663,-24.3418 51.858,0 94.192,24.3418 42.333,23.8127 66.675,66.6754 24.342,42.8628 24.342,97.3673 0,54.5045 -24.342,97.3673 -24.342,42.8628 -66.675,67.2046 -42.334,23.8126 -94.192,23.8126 z m 0,-41.8044 q 38.629,0 69.321,-17.9918 31.221,-17.9918 48.684,-51.3295 17.991,-33.3377 17.991,-77.2588 0,-44.4503 -17.991,-77.2588 -17.463,-33.3377 -48.155,-51.3295 -30.692,-17.9918 -69.85,-17.9918 -39.159,0 -69.851,17.9918 -30.692,17.9918 -48.683,51.3295 -17.463,32.8085 -17.463,77.2588 0,43.9211 17.463,77.2588 17.991,33.3377 48.683,51.3295 31.221,17.9918 69.851,17.9918 z"
     style="text-align:center;text-anchor:middle;fill:#505050"
     id="path2801" /><path
     d="m 14726.453,6614.5898 -151.871,-168.276 v 168.276 h -48.155 v -368.8314 h 48.155 v 170.9219 l 152.401,-170.9219 h 60.854 l -167.218,184.6803 168.806,184.1511 z"
     style="text-align:center;text-anchor:middle;fill:#505050"
     id="path2803" /><path
     d="m 14919.601,6217.1832 c 1.058,10.0542 2.117,28.5752 2.117,38.1002 v 176.2136 c 0,15.8751 -1.588,32.8086 -2.117,40.7461 h 48.683 c -1.058,-9.525 -1.587,-26.9877 -1.587,-40.2169 v -176.7428 c 0,-12.7001 0.529,-28.046 1.587,-38.1002 z m 245.006,-3.7042 c 1.058,12.7001 2.645,28.046 2.645,45.5086 v 83.6089 c 0,100.0131 -6.35,142.8759 -44.45,186.797 -32.808,37.0419 -78.317,58.2087 -127.001,70.3796 l 34.396,36.5127 c 38.63,-13.2292 91.547,-35.9835 125.943,-77.2588 38.1,-45.5086 55.034,-87.3131 55.034,-214.3138 v -85.7256 c 0,-17.4626 1.058,-32.8085 2.116,-45.5086 z"
     style="font-weight:normal;font-family:'Noto Sans CJK JP';-inkscape-font-specification:'Noto Sans CJK JP';fill:#505050;fill-opacity:1"
     id="path2805" /><path
     d="m 15728.173,6239.9375 c -8.467,2.6458 -22.225,4.7625 -39.688,4.7625 h -204.26 c -15.875,0 -46.037,-2.6458 -53.446,-3.7042 v 48.1545 c 5.821,-0.5292 34.925,-2.6458 53.446,-2.6458 h 206.377 c -13.23,43.3919 -51.859,106.3631 -87.843,147.1092 -54.504,60.8546 -132.821,123.8258 -218.018,157.1635 l 33.867,35.4544 c 78.317,-35.4544 149.755,-93.6631 206.377,-154.5177 53.975,48.1545 110.067,110.5966 145.521,157.1635 l 37.042,-32.2793 c -34.396,-41.2753 -98.955,-110.0674 -154.517,-157.6927 37.571,-47.6253 70.908,-109.5382 88.9,-155.0468 3.175,-7.4084 10.054,-19.0501 13.229,-23.2835 z"
     style="font-weight:normal;font-family:'Noto Sans CJK JP';-inkscape-font-specification:'Noto Sans CJK JP';fill:#505050;fill-opacity:1"
     id="path2807" /><path
     d="m 16309.201,6433.6137 c -56.092,-28.046 -156.105,-66.1462 -225.955,-87.313 v -86.2547 c 0,-15.8751 2.116,-38.6295 3.704,-55.0337 h -51.859 c 3.175,16.4042 4.234,40.2169 4.234,55.0337 v 307.9769 c 0,19.5793 -1.059,45.5086 -3.175,62.442 h 50.8 c -2.117,-17.4626 -3.175,-45.5086 -3.175,-62.442 l -0.529,-174.6261 c 58.738,18.5209 150.284,53.9753 207.964,85.1964 z"
     style="font-weight:normal;font-family:'Noto Sans CJK JP';-inkscape-font-specification:'Noto Sans CJK JP';fill:#505050;fill-opacity:1"
     id="path2809" /></g>
        <g
   stroke="#30ba78"
   stroke-width="4.32"
   transform="matrix(32.1597,0,0,32.1597,11683.57,-989.12)"
   id="g1690">
            <rect
   width="30"
   height="20"
   x="161.21001"
   y="195.27"
   fill="#30ba78"
   class="st0"
   id="rect1686" />
            <path
   fill="none"
   d="m 176.21,179.14 a 6.2,6.2 0 0 0 -6.2,6.2 v 9.31 h 12.41 v -9.3 a 6.2,6.2 0 0 0 -6.2,-6.21 z"
   class="st0"
   id="path1688" />
        </g>
        <path
   fill="none"
   stroke="#30ba78"
   stroke-linejoin="miter"
   stroke-width="148.71"
   d="m 14087.01,8027.85 141.05,-110.77 m -379.75,-197.8 379.15,482.8 197.83,-154.84 m -558.42,-590.21 a 172.08,171.17 51.86 0 1 -28.34,241.06 172.08,171.17 51.86 0 1 -240.9,-29.62 172.08,171.17 51.86 0 1 28.34,-241.06 172.08,171.17 51.86 0 1 240.9,29.62 z m 1225.56,570.82 141.05,-110.77 m -379.76,-197.8 379.16,482.8 197.83,-154.84 m -558.42,-590.21 a 172.08,171.17 51.86 0 1 -28.34,241.06 172.08,171.17 51.86 0 1 -240.9,-29.62 172.08,171.17 51.86 0 1 28.34,-241.06 172.08,171.17 51.86 0 1 240.9,29.62 z m 1225.56,570.82 141.05,-110.77 m -379.76,-197.8 379.16,482.8 197.82,-154.84 m -558.41,-590.21 a 172.08,171.17 51.86 0 1 -28.34,241.06 172.08,171.17 51.86 0 1 -240.9,-29.62 172.08,171.17 51.86 0 1 28.34,-241.06 172.08,171.17 51.86 0 1 240.9,29.62 z"
   opacity="0.99"
   id="path1692" />
        <path
   fill="none"
   stroke="#505050"
   stroke-linejoin="miter"
   stroke-width="95.25"
   marker-end="url(#marker88387772776)"
   marker-start="url(#a)"
   d="m 8995.83,7143.75 h 3439.59"
   id="path1694" />
        <path
   fill="none"
   stroke="#505050"
   stroke-linejoin="miter"
   stroke-width="63.5"
   marker-end="url(#b)"
   d="M 19314.58,5556.25 H 18256.25"
   id="path1696" />
        <g
   transform="translate(-2910.42)"
   id="g1710">
            <rect
   width="3175"
   height="1852.08"
   x="8466.6699"
   y="15610.42"
   fill="#dedfe0"
   opacity="0.99"
   paint-order="stroke fill markers"
   id="rect1698" />
            <g
   aria-label="カーネル"
   id="text1702"
   style="font-weight:500;font-size:493.89px;line-height:1.25;font-family:Poppins;-inkscape-font-specification:'Poppins, Medium';letter-spacing:0;stroke-width:26.46"><path
     d="m 9420.5129,16417.179 c -8.3961,1.482 -18.2739,2.47 -31.609,2.47 h -117.5458 c 0.9878,-16.298 1.9756,-33.091 2.4695,-50.871 0.4939,-11.853 1.4816,-29.139 2.9633,-40.499 h -46.4257 c 1.9756,11.854 3.4573,30.128 3.4573,40.993 0,17.78 -0.9878,34.572 -1.9756,50.377 h -86.9246 c -18.7679,0 -39.0173,-0.988 -56.3035,-2.963 v 41.98 c 17.2862,-1.975 37.0418,-1.975 56.7974,-1.975 h 82.9735 c -13.335,101.741 -48.8951,163.477 -97.7902,207.927 -14.8167,14.323 -35.0662,28.152 -50.3768,36.548 l 35.5601,29.14 c 82.4796,-56.798 133.8442,-131.869 151.6242,-273.615 h 138.2892 c 0,52.846 -6.4206,174.343 -25.1884,211.878 -5.4328,12.348 -14.3228,16.299 -28.6456,16.299 -20.7434,0 -46.9196,-1.976 -73.5896,-5.433 l 4.9389,40.993 c 25.6823,1.482 54.3279,2.963 79.5163,2.963 27.1639,0 42.9684,-8.89 52.8462,-29.633 22.225,-47.414 28.1517,-191.136 30.1273,-238.549 0,-6.421 0.9878,-15.804 2.4694,-24.201 z"
     style="font-weight:normal;font-family:'Noto Sans CJK JP';-inkscape-font-specification:'Noto Sans CJK JP';text-align:center;text-anchor:middle;fill:#505050"
     id="path2843" /><path
     d="m 9570.1616,16551.518 c 15.3106,-1.482 41.4867,-2.47 68.6507,-2.47 h 271.1456 c 22.2251,0 42.9684,1.976 52.8462,2.47 v -48.402 c -10.8655,0.988 -28.6456,2.47 -53.3401,2.47 h -270.6517 c -27.6579,0 -53.834,-1.482 -68.6507,-2.47 z"
     style="font-weight:normal;font-family:'Noto Sans CJK JP';-inkscape-font-specification:'Noto Sans CJK JP';text-align:center;text-anchor:middle;fill:#505050"
     id="path2845" /><path
     d="m 10396.44,16393.473 c -8.397,2.469 -19.756,2.963 -31.116,2.963 h -81.491 v -31.609 c 0,-13.829 0.987,-32.597 2.963,-43.462 h -45.438 c 1.976,10.865 2.963,29.633 2.963,43.462 v 31.609 h -96.802 c -16.792,0 -44.45,-0.494 -59.761,-2.469 v 41.486 c 14.817,-0.987 42.969,-1.975 60.255,-1.975 h 204.964 c -16.792,23.213 -56.303,61.736 -100.259,90.382 -44.944,29.139 -106.681,61.736 -200.026,83.961 l 23.707,36.548 c 66.675,-20.25 121.003,-41.981 166.935,-68.651 0,33.585 -0.494,79.023 -0.494,107.668 0,17.286 -0.988,40.005 -2.964,54.328 h 44.944 c -0.987,-15.311 -2.469,-37.042 -2.469,-54.328 0,-33.09 0.494,-92.357 0.494,-132.856 45.438,-31.609 86.925,-73.096 111.619,-102.729 7.902,-8.89 18.768,-20.25 27.658,-29.634 z m -70.133,181.257 c 46.426,24.695 76.059,44.45 119.028,76.059 l 25.682,-33.584 c -45.932,-31.115 -72.602,-46.426 -119.028,-71.614 z"
     style="font-weight:normal;font-family:'Noto Sans CJK JP';-inkscape-font-specification:'Noto Sans CJK JP';text-align:center;text-anchor:middle;fill:#505050"
     id="path2847" /><path
     d="m 10577.203,16728.824 c 41.487,-34.078 73.096,-82.48 87.913,-135.326 13.335,-49.389 15.31,-155.081 15.31,-209.903 0,-14.817 1.976,-29.633 2.47,-35.56 h -45.438 c 1.975,10.372 3.457,21.237 3.457,36.054 0,54.822 -0.494,153.106 -14.817,198.544 -14.816,47.907 -44.45,91.863 -85.936,121.497 z m 215.336,-0.494 c 4.939,-3.951 9.384,-7.408 16.793,-11.359 57.291,-28.646 125.942,-79.023 168.416,-136.808 l -23.707,-33.584 c -37.535,55.809 -98.284,100.753 -143.722,121.497 v -284.975 c 0,-18.768 1.482,-32.597 1.976,-36.548 h -45.438 c 0.494,3.951 2.963,17.78 2.963,36.548 v 295.84 c 0,9.878 -1.481,19.756 -3.457,27.658 z"
     style="font-weight:normal;font-family:'Noto Sans CJK JP';-inkscape-font-specification:'Noto Sans CJK JP';text-align:center;text-anchor:middle;fill:#505050"
     id="path2849" /></g>
            <g
   stroke="#30ba78"
   stroke-width="4.32"
   transform="matrix(32.1597,0,0,32.1597,2846.48,8951)"
   id="g1708">
                <rect
   width="30"
   height="20"
   x="161.21001"
   y="195.27"
   fill="#30ba78"
   class="st0"
   id="rect1704" />
                <path
   fill="none"
   d="m 176.21,179.14 a 6.2,6.2 0 0 0 -6.2,6.2 v 9.31 h 12.41 v -9.3 a 6.2,6.2 0 0 0 -6.2,-6.21 z"
   class="st0"
   id="path1706" />
            </g>
        </g>
        <g
   transform="translate(-2910.42,-4497.92)"
   id="g1724">
            <rect
   width="3175"
   height="1852.08"
   x="8466.6699"
   y="15610.42"
   fill="#dedfe0"
   opacity="0.99"
   paint-order="stroke fill markers"
   id="rect1712" />
            <g
   aria-label="GRUB2"
   id="text1716"
   style="font-weight:500;font-size:493.89px;line-height:1.25;font-family:Poppins;-inkscape-font-specification:'Poppins, Medium';letter-spacing:0;stroke-width:26.46"><path
     d="m 9538.3035,16472.495 q -14.3229,-30.127 -41.4868,-46.426 -27.164,-16.792 -63.2179,-16.792 -36.054,0 -65.1935,16.792 -28.6456,16.299 -45.4379,47.414 -16.2984,30.621 -16.2984,71.12 0,40.499 16.2984,71.12 16.7923,30.621 45.4379,47.414 29.1395,16.298 65.1935,16.298 50.3768,0 82.9735,-30.127 32.5967,-30.128 38.0295,-81.492 h -137.3014 v -36.548 h 185.2088 v 34.572 q -3.9512,42.475 -26.6701,78.035 -22.7189,35.066 -59.7607,55.81 -37.0417,20.249 -82.4796,20.249 -47.9074,0 -87.4186,-22.225 -39.5112,-22.719 -62.724,-62.724 -22.7189,-40.005 -22.7189,-90.382 0,-50.377 22.7189,-90.382 23.2128,-40.499 62.724,-62.724 39.5112,-22.719 87.4186,-22.719 54.8218,0 96.8024,27.164 42.4746,27.164 61.7363,76.553 z"
     style="fill:#505050"
     id="path2832" /><path
     d="m 9843.0335,16716.971 -81.9857,-140.759 h -54.3279 v 140.759 h -44.944 v -344.242 h 111.1253 q 39.0173,0 65.6873,13.335 27.164,13.335 40.499,36.054 13.335,22.719 13.335,51.859 0,35.56 -20.7433,62.724 -20.2495,27.164 -61.2424,36.054 l 86.4307,144.216 z m -136.3136,-176.813 h 66.1813 q 36.5478,0 54.8217,-17.78 18.274,-18.274 18.274,-48.401 0,-30.621 -18.274,-47.414 -17.78,-16.792 -54.8217,-16.792 h -66.1813 z"
     style="fill:#505050"
     id="path2834" /><path
     d="m 10006.017,16372.729 v 217.806 q 0,45.932 22.225,68.157 22.719,22.225 62.724,22.225 39.511,0 61.736,-22.225 22.719,-22.225 22.719,-68.157 v -217.806 h 44.944 v 217.312 q 0,42.968 -17.286,72.602 -17.286,29.139 -46.919,43.462 -29.14,14.323 -65.688,14.323 -36.548,0 -66.181,-14.323 -29.1395,-14.323 -46.4256,-43.462 -16.7923,-29.634 -16.7923,-72.602 v -217.312 z"
     style="fill:#505050"
     id="path2836" /><path
     d="m 10467.804,16539.664 q 18.768,2.964 34.078,15.311 15.805,12.347 24.695,30.621 9.384,18.274 9.384,39.017 0,26.176 -13.335,47.414 -13.335,20.743 -39.018,33.09 -25.188,11.854 -59.76,11.854 h -128.412 v -344.242 h 123.473 q 35.066,0 59.761,11.854 24.694,11.359 37.041,31.115 12.348,19.755 12.348,44.45 0,30.621 -16.793,50.871 -16.298,19.755 -43.462,28.645 z m -127.424,-18.274 h 75.565 q 31.609,0 48.896,-14.816 17.286,-14.817 17.286,-40.993 0,-26.176 -17.286,-40.993 -17.287,-14.817 -49.883,-14.817 h -74.578 z m 79.517,158.539 q 33.584,0 52.352,-15.805 18.768,-15.804 18.768,-43.956 0,-28.645 -19.756,-44.944 -19.755,-16.792 -52.846,-16.792 h -78.035 v 121.497 z"
     style="fill:#505050"
     id="path2838" /><path
     d="m 10585.35,16680.917 q 62.724,-50.377 98.284,-82.48 35.56,-32.597 59.761,-67.663 24.695,-35.56 24.695,-69.638 0,-32.103 -15.805,-50.377 -15.311,-18.768 -49.883,-18.768 -33.584,0 -52.352,21.237 -18.274,20.744 -19.756,55.81 h -43.462 q 1.975,-55.316 33.584,-85.443 31.609,-30.127 81.492,-30.127 50.871,0 80.504,28.151 30.128,28.152 30.128,77.541 0,40.993 -24.695,80.01 -24.2,38.524 -55.316,68.157 -31.115,29.14 -79.516,68.157 h 169.898 v 37.536 h -237.561 z"
     style="fill:#505050"
     id="path2840" /></g>
            <g
   stroke="#30ba78"
   stroke-width="4.32"
   transform="matrix(32.1597,0,0,32.1597,2846.48,8951)"
   id="g1722">
                <rect
   width="30"
   height="20"
   x="161.21001"
   y="195.27"
   fill="#30ba78"
   class="st0"
   id="rect1718" />
                <path
   fill="none"
   d="m 176.21,179.14 a 6.2,6.2 0 0 0 -6.2,6.2 v 9.31 h 12.41 v -9.3 a 6.2,6.2 0 0 0 -6.2,-6.21 z"
   class="st0"
   id="path1720" />
            </g>
        </g>
        <g
   transform="translate(-2910.42,-10107.08)"
   id="g1738">
            <rect
   width="3175"
   height="3175"
   x="8466.6699"
   y="15610.42"
   fill="#dedfe0"
   opacity="0.99"
   paint-order="stroke fill markers"
   id="rect1726" />
            <g
   aria-label="Shim"
   id="text1730"
   style="font-weight:500;font-size:493.89px;line-height:1.25;font-family:Poppins;-inkscape-font-specification:'Poppins, Medium';letter-spacing:0;stroke-width:26.46"><path
     d="m 9573.1197,16720.428 q -34.0785,0 -61.2424,-11.853 -26.6701,-12.348 -41.9807,-33.585 -15.3105,-21.731 -15.8044,-49.883 h 47.9073 q 2.4694,24.201 19.7556,40.993 17.78,16.298 51.3646,16.298 32.1028,0 50.3767,-15.804 18.7679,-16.298 18.7679,-41.487 0,-19.755 -10.8656,-32.103 -10.8656,-12.347 -27.164,-18.768 -16.2983,-6.42 -43.9562,-13.828 -34.0784,-8.89 -54.8218,-17.78 -20.2495,-8.89 -35.0662,-27.658 -14.3228,-19.262 -14.3228,-51.365 0,-28.152 14.3228,-49.883 14.3228,-21.731 40.0051,-33.584 26.1762,-11.854 59.7607,-11.854 48.4012,0 79.0224,24.201 31.1151,24.201 35.0662,64.206 h -49.389 q -2.4694,-19.756 -20.7434,-34.573 -18.2739,-15.31 -48.4012,-15.31 -28.1517,0 -45.9318,14.816 -17.78,14.323 -17.78,40.499 0,18.768 10.3717,30.622 10.8656,11.853 26.1762,18.274 15.8044,5.926 43.9562,13.828 34.0784,9.384 54.8218,18.768 20.7433,8.89 35.56,28.152 14.8167,18.768 14.8167,51.365 0,25.188 -13.335,47.413 -13.335,22.225 -39.5112,36.054 -26.1762,13.829 -61.7362,13.829 z"
     style="fill:#505050"
     id="path2823" /><path
     d="m 9888.2214,16441.38 q 30.6212,0 55.3157,13.335 24.6945,12.841 38.5234,39.017 14.3228,26.177 14.3228,63.712 v 159.527 h -44.4501 v -153.106 q 0,-40.499 -20.2494,-61.736 -20.2495,-21.732 -55.3157,-21.732 -35.5601,0 -56.7974,22.225 -20.7434,22.225 -20.7434,64.7 v 149.649 h -44.9439 v -365.479 h 44.9439 v 133.35 q 13.3351,-20.743 36.5479,-32.102 23.7067,-11.36 52.8462,-11.36 z"
     style="fill:#505050"
     id="path2825" /><path
     d="m 10093.185,16402.363 q -12.841,0 -21.731,-8.89 -8.89,-8.89 -8.89,-21.731 0,-12.842 8.89,-21.732 8.89,-8.89 21.731,-8.89 12.348,0 20.744,8.89 8.89,8.89 8.89,21.732 0,12.841 -8.89,21.731 -8.396,8.89 -20.744,8.89 z m 21.732,43.956 v 270.652 h -44.944 v -270.652 z"
     style="fill:#505050"
     id="path2827" /><path
     d="m 10516.943,16441.38 q 31.609,0 56.304,13.335 24.694,12.841 39.017,39.017 14.323,26.177 14.323,63.712 v 159.527 h -44.45 v -153.106 q 0,-40.499 -20.25,-61.736 -19.755,-21.732 -53.834,-21.732 -35.066,0 -55.809,22.719 -20.744,22.225 -20.744,64.7 v 149.155 h -44.45 v -153.106 q 0,-40.499 -20.249,-61.736 -19.756,-21.732 -53.834,-21.732 -35.067,0 -55.81,22.719 -20.743,22.225 -20.743,64.7 v 149.155 h -44.944 v -270.652 h 44.944 v 39.017 q 13.335,-21.237 35.56,-32.596 22.719,-11.36 49.883,-11.36 34.078,0 60.254,15.311 26.176,15.31 39.018,44.944 11.359,-28.646 37.535,-44.45 26.176,-15.805 58.279,-15.805 z"
     style="fill:#505050"
     id="path2829" /></g>
            <g
   stroke="#30ba78"
   stroke-width="4.32"
   transform="matrix(32.1597,0,0,32.1597,2846.48,8951)"
   id="g1736">
                <rect
   width="30"
   height="20"
   x="161.21001"
   y="195.27"
   fill="#30ba78"
   class="st0"
   id="rect1732" />
                <path
   fill="none"
   d="m 176.21,179.14 a 6.2,6.2 0 0 0 -6.2,6.2 v 9.31 h 12.41 v -9.3 a 6.2,6.2 0 0 0 -6.2,-6.21 z"
   class="st0"
   id="path1734" />
            </g>
        </g>
        <g
   transform="translate(-2910.42,-14552.08)"
   id="g1752">
            <rect
   width="3175"
   height="1852.08"
   x="8466.6699"
   y="15610.42"
   fill="#dedfe0"
   opacity="0.99"
   paint-order="stroke fill markers"
   id="rect1740" />
            <g
   aria-label="KEK db"
   id="text1744"
   style="font-weight:500;font-size:493.89px;line-height:1.25;font-family:Poppins;-inkscape-font-specification:'Poppins, Medium';letter-spacing:0;stroke-width:26.46"><path
     d="m 9428.6604,16716.971 -141.7464,-157.057 v 157.057 h -44.944 v -344.242 h 44.944 v 159.527 l 142.2403,-159.527 h 56.7973 l -156.0692,172.368 157.5509,171.874 z"
     style="fill:#505050"
     id="path2812" /><path
     d="m 9582.7545,16409.277 v 115.077 h 125.4481 v 37.041 h -125.4481 v 118.534 h 140.2648 v 37.042 h -185.2088 v -344.736 h 185.2088 v 37.042 z"
     style="fill:#505050"
     id="path2814" /><path
     d="m 9977.8668,16716.971 -141.7464,-157.057 v 157.057 h -44.944 v -344.242 h 44.944 v 159.527 l 142.2403,-159.527 h 56.7973 l -156.0692,172.368 157.5512,171.874 z"
     style="fill:#505050"
     id="path2816" /><path
     d="m 10202.093,16580.657 q 0,-41.487 16.793,-72.602 16.792,-31.609 45.931,-48.895 29.634,-17.286 66.182,-17.286 31.609,0 58.773,14.817 27.164,14.322 41.486,38.029 v -143.228 h 45.438 v 365.479 h -45.438 v -50.871 q -13.335,24.201 -39.511,40.005 -26.176,15.311 -61.242,15.311 -36.054,0 -65.688,-17.78 -29.139,-17.78 -45.931,-49.883 -16.793,-32.103 -16.793,-73.096 z m 229.165,0.494 q 0,-30.621 -12.347,-53.34 -12.347,-22.719 -33.584,-34.572 -20.744,-12.348 -45.932,-12.348 -25.189,0 -45.932,11.854 -20.743,11.853 -33.091,34.572 -12.347,22.719 -12.347,53.34 0,31.115 12.347,54.328 12.348,22.719 33.091,35.066 20.743,11.854 45.932,11.854 25.188,0 45.932,-11.854 21.237,-12.347 33.584,-35.066 12.347,-23.213 12.347,-53.834 z"
     style="fill:#505050"
     id="path2818" /><path
     d="m 10597.7,16496.696 q 13.829,-24.201 40.499,-39.511 26.67,-15.311 60.748,-15.311 36.548,0 65.687,17.286 29.14,17.286 45.932,48.895 16.792,31.115 16.792,72.602 0,40.993 -16.792,73.096 -16.792,32.103 -46.425,49.883 -29.14,17.78 -65.194,17.78 -35.066,0 -61.736,-15.311 -26.176,-15.31 -39.511,-39.017 v 49.883 h -44.944 v -365.479 h 44.944 z m 183.727,83.961 q 0,-30.621 -12.348,-53.34 -12.347,-22.719 -33.584,-34.572 -20.743,-11.854 -45.932,-11.854 -24.694,0 -45.932,12.348 -20.743,11.853 -33.584,35.066 -12.347,22.719 -12.347,52.846 0,30.621 12.347,53.834 12.841,22.719 33.584,35.066 21.238,11.854 45.932,11.854 25.189,0 45.932,-11.854 21.237,-12.347 33.584,-35.066 12.348,-23.213 12.348,-54.328 z"
     style="fill:#505050"
     id="path2820" /></g>
            <g
   stroke="#30ba78"
   stroke-width="4.32"
   transform="matrix(32.1597,0,0,32.1597,2846.48,8951)"
   id="g1750">
                <rect
   width="30"
   height="20"
   x="161.21001"
   y="195.27"
   fill="#30ba78"
   class="st0"
   id="rect1746" />
                <path
   fill="none"
   d="m 176.21,179.14 a 6.2,6.2 0 0 0 -6.2,6.2 v 9.31 h 12.41 v -9.3 a 6.2,6.2 0 0 0 -6.2,-6.21 z"
   class="st0"
   id="path1748" />
            </g>
        </g>
        <path
   fill="none"
   stroke="#505050"
   stroke-linejoin="miter"
   stroke-width="95.25"
   marker-end="url(#c)"
   d="m 7143.75,3069.17 v 2222.5"
   id="path1754" />
        <path
   fill="none"
   stroke="#505050"
   stroke-linejoin="miter"
   stroke-width="95.25"
   marker-end="url(#d)"
   d="m 7143.75,8995.83 v 1852.09"
   id="path1756" />
        <path
   fill="none"
   stroke="#505050"
   stroke-linejoin="miter"
   stroke-width="95.25"
   marker-end="url(#e)"
   d="m 7143.75,13229.17 v 2116.66"
   id="path1758" />
        <path
   fill="none"
   stroke="#505050"
   stroke-linejoin="miter"
   stroke-width="52.92"
   marker-end="url(#f)"
   d="M 3704.17,1058.33 H 4762.5"
   id="path1760" />
        <path
   fill="none"
   stroke="#505050"
   stroke-linejoin="miter"
   stroke-width="52.92"
   marker-end="url(#g)"
   d="M 3704.17,5291.67 H 4762.5"
   id="path1762" />
        <path
   fill="none"
   stroke="#505050"
   stroke-linejoin="miter"
   stroke-width="52.92"
   marker-end="url(#h)"
   d="M 3704.17,7408.33 H 6085.42"
   id="path1764" />
        <path
   fill="none"
   stroke="#505050"
   stroke-linejoin="miter"
   stroke-width="52.92"
   marker-end="url(#i)"
   d="M 3704.17,11112.5 H 4762.5"
   id="path1766" />
        <path
   fill="none"
   stroke="#505050"
   stroke-linejoin="miter"
   stroke-width="52.92"
   marker-end="url(#j)"
   d="M 3704.17,15610.42 H 4762.5"
   id="path1768" />
    </g>
    <path
   fill="none"
   stroke="#30ba78"
   stroke-linejoin="miter"
   stroke-width="181.03"
   d="m 6756.5933,7848.48 165.56,-142.33 m -472.53,-220.05 487.2,566.7 232.22,-199 m -711,-687.63 a 209.48,208.37 49.31 0 1 -21.44,294.69 209.48,208.37 49.31 0 1 -294.58,-23.01 209.48,208.37 49.31 0 1 21.45,-294.7 209.48,208.37 49.31 0 1 294.57,23.02 z"
   opacity="0.99"
   id="path1772" />
<g
   aria-label="ブート"
   id="text2269"
   style="font-size:388.056px;font-family:'Noto Sans CJK JP';-inkscape-font-specification:'Noto Sans CJK JP';text-align:center;text-anchor:middle;stroke-width:28.222;stop-color:#000000"><path
     d="m 19224.537,5203.9071 c -7.762,-14.7462 -21.732,-38.0295 -31.045,-51.2234 l -20.955,8.9253 c 8.537,12.4177 20.179,31.8205 28.328,46.5667 -6.209,1.1641 -11.642,1.1641 -16.686,1.1641 h -194.416 c -12.806,0 -28.328,-1.1641 -38.806,-2.3283 v 34.1489 c 9.701,-0.388 23.283,-1.1641 38.418,-1.1641 h 198.684 c -5.433,37.2533 -23.283,91.1931 -50.835,126.5062 -32.597,41.522 -76.059,74.5068 -151.342,93.1335 l 26.388,29.1042 c 71.014,-22.1192 117.193,-58.2084 152.894,-103.611 30.656,-39.9698 49.283,-102.4468 57.82,-143.1927 1.553,-7.7611 3.105,-13.97 5.821,-19.4028 l -19.015,-12.0297 z m -2.329,-52.3876 c 10.478,13.582 23.284,35.7012 31.821,51.6114 l 21.343,-9.3133 c -8.149,-14.7461 -22.119,-38.0295 -31.821,-51.2234 z"
     style="text-align:start;text-anchor:start"
     id="path2787" /><path
     d="m 19328.147,5345.1594 c 12.03,-1.1641 32.597,-1.9402 53.94,-1.9402 h 213.043 c 17.463,0 33.761,1.5522 41.522,1.9402 V 5307.13 c -8.537,0.7761 -22.507,1.9402 -41.91,1.9402 h -212.655 c -21.731,0 -42.298,-1.1641 -53.94,-1.9402 z"
     style="text-align:start;text-anchor:start"
     id="path2789" /><path
     d="m 20005.305,5342.4431 c -41.134,-20.567 -114.476,-48.507 -165.7,-64.0293 v -63.2531 c 0,-11.6417 1.553,-28.3281 2.717,-40.3578 h -38.03 c 2.329,12.0297 3.105,29.4922 3.105,40.3578 v 225.8486 c 0,14.358 -0.776,33.3728 -2.329,45.7906 h 37.254 c -1.553,-12.8059 -2.329,-33.3728 -2.329,-45.7906 l -0.388,-128.0585 c 43.075,13.582 110.208,39.5817 152.506,62.477 z"
     style="text-align:start;text-anchor:start"
     id="path2791" /></g><g
   aria-label="変数"
   id="text2269-1"
   style="font-size:388.056px;font-family:'Noto Sans CJK JP';-inkscape-font-specification:'Noto Sans CJK JP';text-align:center;text-anchor:middle;stroke-width:28.222;stop-color:#000000"><path
     d="m 19100.271,5693.739 c 0,32.5967 -4.656,76.059 -60.924,109.0438 6.597,4.2686 16.686,13.1939 20.955,19.4028 60.924,-36.8654 67.133,-88.4768 67.133,-128.0585 v -2.3284 h 53.552 v 84.9843 c 0,4.2686 -1.164,5.4328 -6.209,5.8208 -5.045,0 -21.731,0 -41.134,-0.388 3.493,7.3731 6.985,17.8506 8.149,25.2236 25.612,0 43.463,0 53.94,-3.8805 10.866,-4.6567 13.194,-12.0298 13.194,-26.3878 v -85.3724 h 104.775 v -26.3878 h -155.222 v -38.4175 h -29.104 v 38.4175 h -153.282 v 26.3878 h 124.177 z m 128.835,29.8803 c 24.836,22.8953 54.328,55.492 67.134,76.8351 l 24.059,-15.1342 c -13.97,-21.343 -43.85,-52.7756 -69.074,-74.8948 z m -194.804,-11.6416 c -12.03,24.4475 -38.418,51.9995 -65.194,67.9098 5.821,4.2686 14.747,12.0297 19.791,17.0744 28.328,-18.2386 56.268,-48.1189 72.567,-77.2231 z m 53.164,142.0284 h 127.282 c -17.075,21.7312 -40.746,39.5818 -68.298,54.3279 -25.612,-14.3581 -46.179,-31.8206 -61.313,-51.9995 z m 151.341,-25.2236 -5.432,1.1642 h -120.298 c 7.373,-7.7611 13.97,-15.5223 20.179,-23.6714 l -31.044,-5.4328 c -21.731,30.2683 -63.641,64.0292 -123.014,86.9245 5.821,4.6567 14.358,13.97 18.239,20.955 25.611,-10.8655 47.73,-23.6714 67.521,-37.2533 14.358,19.0147 32.209,35.7011 52.776,50.0592 -43.462,17.8506 -95.074,28.7161 -148.237,35.3131 5.432,5.4328 12.029,18.2386 13.97,25.2236 57.432,-8.1491 113.7,-21.7311 161.819,-44.2384 43.85,22.8953 97.79,37.2534 159.879,43.8504 3.104,-7.7611 10.478,-20.1789 16.686,-26.3878 -55.88,-4.6567 -105.551,-15.9103 -146.685,-32.9848 34.537,-20.567 63.253,-46.9548 82.656,-80.7156 z"
     style="text-align:start;text-anchor:start"
     id="path2794" /><path
     d="m 19508.118,5634.3665 c -6.209,15.1341 -19.403,37.6414 -28.716,51.2233 l 19.403,9.3134 c 10.089,-12.8059 23.283,-32.2087 34.537,-50.0592 z m -89.641,51.2233 c -3.88,-13.5819 -14.358,-34.1489 -25.223,-49.6711 l -21.731,8.9253 c 10.477,15.9103 20.567,37.2533 24.059,50.8353 z m 169.969,39.1937 h 67.522 c -6.985,48.1189 -17.463,89.2529 -34.149,123.7899 -15.523,-36.0892 -26.388,-77.9993 -33.761,-122.6257 z m -105.939,131.551 c -5.045,20.955 -12.806,38.0295 -24.448,51.9995 -15.134,-7.3731 -30.656,-14.3581 -46.179,-20.567 5.045,-10.0894 10.866,-20.5669 16.299,-31.4325 z m 226.624,-131.551 v -27.1639 h -112.536 c 5.433,-21.3431 10.478,-43.8503 14.358,-66.7457 l -29.492,-4.2686 c -10.478,68.2979 -30.657,133.1032 -63.253,173.8491 6.597,4.6567 19.014,14.3581 23.283,19.7909 10.478,-13.97 20.179,-30.2684 28.328,-48.507 8.925,39.5817 20.179,75.6709 34.925,107.1034 -19.015,29.1042 -44.626,52.3876 -77.611,70.6262 -12.03,-8.9253 -27.552,-19.0147 -44.626,-28.3281 13.193,-17.4625 22.119,-38.8056 27.552,-64.8053 h 33.76 v -24.0595 h -103.611 c 4.657,-9.3133 8.926,-18.6267 13.194,-27.1639 l -6.597,-1.5522 h 16.687 v -57.8204 c 18.627,13.97 43.074,32.5967 53.164,41.9101 l 15.91,-20.567 c -10.478,-7.7611 -52.388,-34.1489 -69.074,-43.8503 v -1.9403 h 78.775 v -23.6714 h -78.775 v -71.0143 h -26.776 v 71.0143 h -79.552 v 23.6714 h 71.791 c -19.015,25.2236 -48.507,49.2831 -76.059,61.7009 5.433,5.0447 12.418,15.1342 15.91,21.7311 23.672,-12.8058 48.507,-34.1489 67.91,-57.0442 v 53.5517 l -10.089,-2.3283 c -4.657,10.4775 -10.09,21.7311 -15.911,33.3728 h -55.88 v 24.0595 h 43.85 c -10.477,20.1789 -20.955,39.9698 -29.492,54.7159 l 24.836,8.9253 6.209,-10.8656 c 12.806,5.4328 25.611,11.6417 38.029,17.8506 -19.791,14.358 -46.955,24.0594 -82.656,30.2683 5.433,5.4328 11.254,15.9103 13.194,23.6715 41.522,-8.9253 72.179,-21.7312 94.686,-40.3579 17.85,10.4775 33.373,20.9551 45.402,30.6565 l 8.926,-9.3134 c 5.044,6.597 10.089,15.1342 12.417,20.1789 38.03,-19.4028 67.134,-44.2384 90.029,-74.5067 19.015,31.0445 42.687,55.88 72.567,73.3426 3.88,-7.7612 13.194,-19.0148 19.791,-24.4476 -31.045,-16.2983 -55.492,-42.6861 -74.895,-76.0589 23.671,-41.522 38.418,-92.7454 48.119,-155.6105 z"
     style="text-align:start;text-anchor:start"
     id="path2796" /></g></svg>
