<?xml version="1.0" encoding="UTF-8" standalone="no"?>
<!-- Created with Inkscape (http://www.inkscape.org/) -->

<svg
   xmlns:dc="http://purl.org/dc/elements/1.1/"
   xmlns:cc="http://creativecommons.org/ns#"
   xmlns:rdf="http://www.w3.org/1999/02/22-rdf-syntax-ns#"
   xmlns:svg="http://www.w3.org/2000/svg"
   xmlns="http://www.w3.org/2000/svg"
   xmlns:sodipodi="http://sodipodi.sourceforge.net/DTD/sodipodi-0.dtd"
   xmlns:inkscape="http://www.inkscape.org/namespaces/inkscape"
   width="615"
   height="290"
   id="svg10908"
   version="1.1"
   inkscape:version="0.48.1 "
   sodipodi:docname="lvm.svg">
  <defs
     id="defs10910">
    <inkscape:perspective
       sodipodi:type="inkscape:persp3d"
       inkscape:vp_x="0 : 526.18109 : 1"
       inkscape:vp_y="0 : 1000 : 0"
       inkscape:vp_z="800 : 526.18109 : 1"
       inkscape:persp3d-origin="400 : 350.78739 : 1"
       id="perspective11780" />
  </defs>
  <sodipodi:namedview
     id="base"
     pagecolor="#ffffff"
     bordercolor="#666666"
     borderopacity="1.0"
     inkscape:pageopacity="1"
     inkscape:pageshadow="2"
     inkscape:zoom="1.5"
     inkscape:cx="420.37425"
     inkscape:cy="84.92016"
     inkscape:document-units="px"
     inkscape:current-layer="layer1"
     showgrid="true"
     inkscape:window-width="1920"
     inkscape:window-height="1033"
     inkscape:window-x="-4"
     inkscape:window-y="-4"
     inkscape:window-maximized="1">
    <inkscape:grid
       type="xygrid"
       id="grid11700"
       empspacing="5"
       visible="true"
       enabled="true"
       snapvisiblegridlinesonly="true" />
  </sodipodi:namedview>
  <metadata
     id="metadata10913">
    <rdf:RDF>
      <cc:Work
         rdf:about="">
        <dc:format>image/svg+xml</dc:format>
        <dc:type
           rdf:resource="http://purl.org/dc/dcmitype/StillImage" />
        <dc:title />
      </cc:Work>
    </rdf:RDF>
  </metadata>
  <g
     inkscape:label="Ebene 1"
     inkscape:groupmode="layer"
     id="layer1"
     transform="translate(0,-762.36218)">
    <rect
       style="opacity:0.99000005;fill:#7ac142;fill-opacity:1;fill-rule:nonzero;stroke:#464546;stroke-width:2.96099997;stroke-linecap:butt;stroke-linejoin:miter;stroke-miterlimit:4;stroke-opacity:1;stroke-dasharray:none"
       id="rect11698"
       width="207.03893"
       height="247.03891"
       x="21.480541"
       y="783.84271"
       rx="8.2815561"
       ry="8.4026842" />
    <g
       style="font-size:22px;font-style:normal;font-variant:normal;font-weight:normal;font-stretch:normal;line-height:125%;letter-spacing:0px;word-spacing:0px;fill:#000000;fill-opacity:1;stroke:none;font-family:Open Sans;-inkscape-font-specification:Open Sans"
       id="text11756">
      <path
         d="m 115.31934,797.98718 0,3.35157 -1.46094,0 0,-3.35157 z m -2.32032,0 0,3.35157 -1.46093,0 0,-3.35157 z m -11.60156,1.80469 9.45313,0 0,1.63281 -9.45313,0 z m -2.062499,5.75781 14.867189,0 0,1.89063 -6.10156,0 0,2.83594 c -1e-5,3.49479 -1.57553,5.87239 -4.72657,7.13281 l -1.11718,-1.63281 c 1.54687,-0.45834 2.63541,-1.17448 3.26562,-2.14844 0.57291,-0.85937 0.85937,-1.97656 0.85938,-3.35156 l 0,-2.83594 -7.046879,0 z"
         style="font-family:MS UI Gothic;-inkscape-font-specification:MS UI Gothic"
         id="path3049" />
      <path
         d="m 121.59277,807.01062 c 1.71875,-1.48957 3.00781,-3.03645 3.86719,-4.64062 l 1.54688,0.85937 c -0.74481,1.20314 -1.8047,2.46355 -3.17969,3.78125 l 0,10.22656 -1.46094,0 0,-8.76562 c -1.66146,1.48959 -3.35156,2.63542 -5.07031,3.4375 l -0.85938,-1.375 c 1.89063,-0.97395 3.60937,-2.14843 5.15625,-3.52344 z"
         style="font-family:MS UI Gothic;-inkscape-font-specification:MS UI Gothic"
         id="path3051" />
      <path
         d="m 141.44434,802.19812 c -2e-5,2.40626 -0.65887,4.72657 -1.97657,6.96094 1.94791,1.83334 3.78124,3.83854 5.5,6.01562 l -1.375,1.63282 c -2.00522,-2.92188 -3.69532,-4.98438 -5.07031,-6.1875 -2.1198,3.03646 -4.78386,5.27083 -7.99219,6.70312 l -1.03125,-1.71875 c 2.92187,-1.20312 5.35677,-3.15104 7.30469,-5.84375 1.83332,-2.46353 2.74999,-4.86978 2.75,-7.21875 l -8.67969,0 0,-1.89062 10.57032,0 0,1.54687 z"
         style="font-family:MS UI Gothic;-inkscape-font-specification:MS UI Gothic"
         id="path3053" />
      <path
         d="m 159.14746,801.42468 0,2.83594 c -1e-5,3.26563 -0.85939,6.04428 -2.57812,8.33594 -1.4896,2.11979 -3.63803,3.69531 -6.44532,4.72656 l -1.375,-1.63281 c 2.92187,-1.03125 5.09895,-2.46354 6.53125,-4.29688 1.43228,-1.89062 2.14843,-4.26822 2.14844,-7.13281 l 0,-1.20312 -6.70312,0 c -0.45834,2.75001 -1.48959,4.92709 -3.09375,6.53125 l -1.375,-1.375 c 1.20312,-1.14583 2.0052,-2.49218 2.40625,-4.03907 0.34374,-1.31769 0.48697,-3.06509 0.42968,-5.24218 l 1.89063,0 c -10e-6,0.91668 -0.0286,1.74741 -0.0859,2.49218 z"
         style="font-family:MS UI Gothic;-inkscape-font-specification:MS UI Gothic"
         id="path3055" />
    </g>
    <path
       style="fill:none;stroke:#464546;stroke-width:2;stroke-linecap:butt;stroke-linejoin:miter;stroke-miterlimit:4;stroke-opacity:1;stroke-dasharray:none"
       d="m 21.483272,980.35374 207.806898,0"
       id="path11866"
       inkscape:connector-curvature="0" />
    <path
       style="fill:none;stroke:#464546;stroke-width:2;stroke-linecap:butt;stroke-linejoin:miter;stroke-miterlimit:4;stroke-opacity:1;stroke-dasharray:none"
       d="m 21.484175,830.3542 208.195365,0"
       id="path11874"
       inkscape:connector-curvature="0" />
    <g
       style="font-size:22px;font-style:normal;font-variant:normal;font-weight:normal;font-stretch:normal;line-height:125%;letter-spacing:0px;word-spacing:0px;fill:#000000;fill-opacity:1;stroke:none;font-family:Open Sans;-inkscape-font-specification:Open Sans"
       id="text11876">
      <path
         d="m 46.281406,896.94226 c 0.687484,-0.0573 1.289046,0.14325 1.804688,0.60156 0.572899,0.51565 0.859357,1.11721 0.859375,1.80469 -0.05731,0.74481 -0.315122,1.34637 -0.773438,1.80469 -0.45835,0.51564 -1.031266,0.7448 -1.71875,0.6875 -0.744806,10e-6 -1.346368,-0.28645 -1.804687,-0.85938 -0.458347,-0.51561 -0.658867,-1.11717 -0.601563,-1.80468 0.05728,-0.5729 0.286445,-1.08853 0.6875,-1.54688 0.458319,-0.45831 0.973944,-0.68748 1.546875,-0.6875 z m -3.09375,2.57813 c 1.260404,2.06251 2.320298,4.44011 3.179688,7.13281 0.973942,2.97917 1.604149,5.67188 1.890625,8.07812 l -1.976563,0.85938 c -0.286473,-2.69271 -0.859389,-5.41406 -1.71875,-8.16406 -0.859387,-2.86458 -1.833345,-5.18489 -2.921875,-6.96094 l 1.546875,-0.94531 z m -11.515625,14.86718 c 2.749997,-3.66666 4.124996,-8.62238 4.125,-14.86718 l 1.890625,0.34375 c -6e-6,6.41667 -1.460942,11.80208 -4.382812,16.15625 l -1.632813,-1.63282 z m 14.695313,-13.83593 c 0.458317,10e-6 0.802067,-0.11457 1.03125,-0.34375 0.286441,-0.22916 0.401025,-0.51561 0.34375,-0.85938 -1.7e-5,-0.34373 -0.1146,-0.63019 -0.34375,-0.85937 -0.229183,-0.22915 -0.544287,-0.34374 -0.945313,-0.34375 -0.343765,10e-6 -0.630223,0.1146 -0.859375,0.34375 -0.229181,0.22918 -0.343764,0.51564 -0.34375,0.85937 -1.4e-5,0.34377 0.114569,0.63022 0.34375,0.85938 0.229152,0.22918 0.486964,0.34376 0.773438,0.34375 z"
         style="font-family:MS UI Gothic;-inkscape-font-specification:MS UI Gothic"
         id="path3094" />
      <path
         d="m 65.531406,906.05164 0,1.89062 -14.953125,0 0,-1.89062 z"
         style="font-family:MS UI Gothic;-inkscape-font-specification:MS UI Gothic"
         id="path3096" />
      <path
         d="m 74.898594,898.91882 c 1.031241,1.66148 1.947907,3.40887 2.75,5.24219 l -1.976563,0.94531 c -0.802091,-2.23436 -1.604173,-4.06769 -2.40625,-5.5 z m 3.953125,10.39844 c 1.203112,-2.11978 1.776028,-5.27082 1.71875,-9.45312 l 2.0625,0.25781 c -0.05731,4.46876 -0.802098,7.87761 -2.234375,10.22656 -1.489595,2.63542 -4.010426,4.72656 -7.5625,6.27344 l -1.203125,-1.80469 c 3.552075,-1.26041 5.958323,-3.09375 7.21875,-5.5 z m -8.679688,-8.16406 c 0.687497,0.91668 1.575517,2.69272 2.664063,5.32812 l -1.976563,0.85938 c -0.802086,-2.23437 -1.604168,-4.03905 -2.40625,-5.41406 z"
         style="font-family:MS UI Gothic;-inkscape-font-specification:MS UI Gothic"
         id="path3098" />
    </g>
    <g
       style="font-size:22px;font-style:normal;font-variant:normal;font-weight:normal;font-stretch:normal;line-height:125%;letter-spacing:0px;word-spacing:0px;fill:#000000;fill-opacity:1;stroke:none;font-family:Open Sans;-inkscape-font-specification:Open Sans"
       id="text11876-6">
      <path
         d="m 116.4563,896.94226 c 0.68748,-0.0573 1.28904,0.14325 1.80469,0.60156 0.5729,0.51565 0.85935,1.11721 0.85937,1.80469 -0.0573,0.74481 -0.31512,1.34637 -0.77344,1.80469 -0.45835,0.51564 -1.03126,0.7448 -1.71875,0.6875 -0.7448,10e-6 -1.34636,-0.28645 -1.80468,-0.85938 -0.45835,-0.51561 -0.65887,-1.11717 -0.60157,-1.80468 0.0573,-0.5729 0.28645,-1.08853 0.6875,-1.54688 0.45832,-0.45831 0.97395,-0.68748 1.54688,-0.6875 z m -3.09375,2.57813 c 1.2604,2.06251 2.3203,4.44011 3.17969,7.13281 0.97394,2.97917 1.60415,5.67188 1.89062,8.07812 l -1.97656,0.85938 c -0.28647,-2.69271 -0.85939,-5.41406 -1.71875,-8.16406 -0.85939,-2.86458 -1.83335,-5.18489 -2.92188,-6.96094 l 1.54688,-0.94531 z m -11.51563,14.86718 c 2.75,-3.66666 4.125,-8.62238 4.125,-14.86718 l 1.89063,0.34375 c -1e-5,6.41667 -1.46094,11.80208 -4.38281,16.15625 l -1.63282,-1.63282 z m 14.69532,-13.83593 c 0.45831,10e-6 0.80206,-0.11457 1.03125,-0.34375 0.28644,-0.22916 0.40102,-0.51561 0.34375,-0.85938 -2e-5,-0.34373 -0.1146,-0.63019 -0.34375,-0.85937 -0.22919,-0.22915 -0.54429,-0.34374 -0.94532,-0.34375 -0.34376,10e-6 -0.63022,0.1146 -0.85937,0.34375 -0.22918,0.22918 -0.34377,0.51564 -0.34375,0.85937 -2e-5,0.34377 0.11457,0.63022 0.34375,0.85938 0.22915,0.22918 0.48696,0.34376 0.77344,0.34375 z"
         style="font-family:MS UI Gothic;-inkscape-font-specification:MS UI Gothic"
         id="path3087" />
      <path
         d="m 135.7063,906.05164 0,1.89062 -14.95313,0 0,-1.89062 z"
         style="font-family:MS UI Gothic;-inkscape-font-specification:MS UI Gothic"
         id="path3089" />
      <path
         d="m 145.07349,898.91882 c 1.03124,1.66148 1.9479,3.40887 2.75,5.24219 l -1.97657,0.94531 c -0.80209,-2.23436 -1.60417,-4.06769 -2.40625,-5.5 z m 3.95312,10.39844 c 1.20311,-2.11978 1.77603,-5.27082 1.71875,-9.45312 l 2.0625,0.25781 c -0.0573,4.46876 -0.8021,7.87761 -2.23437,10.22656 -1.4896,2.63542 -4.01043,4.72656 -7.5625,6.27344 l -1.20313,-1.80469 c 3.55208,-1.26041 5.95832,-3.09375 7.21875,-5.5 z m -8.67969,-8.16406 c 0.6875,0.91668 1.57552,2.69272 2.66407,5.32812 l -1.97657,0.85938 c -0.80208,-2.23437 -1.60416,-4.03905 -2.40625,-5.41406 z"
         style="font-family:MS UI Gothic;-inkscape-font-specification:MS UI Gothic"
         id="path3091" />
    </g>
    <g
       style="font-size:22px;font-style:normal;font-variant:normal;font-weight:normal;font-stretch:normal;line-height:125%;letter-spacing:0px;word-spacing:0px;fill:#000000;fill-opacity:1;stroke:none;font-family:Open Sans;-inkscape-font-specification:Open Sans"
       id="text11876-1">
      <path
         d="m 184.58476,896.94226 c 0.68749,-0.0573 1.28905,0.14325 1.80469,0.60156 0.5729,0.51565 0.85936,1.11721 0.85938,1.80469 -0.0573,0.74481 -0.31513,1.34637 -0.77344,1.80469 -0.45835,0.51564 -1.03127,0.7448 -1.71875,0.6875 -0.74481,10e-6 -1.34637,-0.28645 -1.80469,-0.85938 -0.45835,-0.51561 -0.65887,-1.11717 -0.60156,-1.80468 0.0573,-0.5729 0.28644,-1.08853 0.6875,-1.54688 0.45832,-0.45831 0.97394,-0.68748 1.54687,-0.6875 z m -3.09375,2.57813 c 1.26041,2.06251 2.3203,4.44011 3.17969,7.13281 0.97394,2.97917 1.60415,5.67188 1.89063,8.07812 l -1.97657,0.85938 c -0.28647,-2.69271 -0.85939,-5.41406 -1.71875,-8.16406 -0.85939,-2.86458 -1.83334,-5.18489 -2.92187,-6.96094 l 1.54687,-0.94531 z m -11.51562,14.86718 c 2.74999,-3.66666 4.12499,-8.62238 4.125,-14.86718 l 1.89062,0.34375 c 0,6.41667 -1.46094,11.80208 -4.38281,16.15625 l -1.63281,-1.63282 z m 14.69531,-13.83593 c 0.45832,10e-6 0.80207,-0.11457 1.03125,-0.34375 0.28644,-0.22916 0.40102,-0.51561 0.34375,-0.85938 -2e-5,-0.34373 -0.1146,-0.63019 -0.34375,-0.85937 -0.22918,-0.22915 -0.54429,-0.34374 -0.94531,-0.34375 -0.34377,10e-6 -0.63023,0.1146 -0.85938,0.34375 -0.22918,0.22918 -0.34376,0.51564 -0.34375,0.85937 -10e-6,0.34377 0.11457,0.63022 0.34375,0.85938 0.22915,0.22918 0.48697,0.34376 0.77344,0.34375 z"
         style="font-family:MS UI Gothic;-inkscape-font-specification:MS UI Gothic"
         id="path3080" />
      <path
         d="m 203.83476,906.05164 0,1.89062 -14.95312,0 0,-1.89062 z"
         style="font-family:MS UI Gothic;-inkscape-font-specification:MS UI Gothic"
         id="path3082" />
      <path
         d="m 213.20195,898.91882 c 1.03124,1.66148 1.94791,3.40887 2.75,5.24219 l -1.97656,0.94531 c -0.80209,-2.23436 -1.60418,-4.06769 -2.40625,-5.5 z m 3.95313,10.39844 c 1.20311,-2.11978 1.77602,-5.27082 1.71875,-9.45312 l 2.0625,0.25781 c -0.0573,4.46876 -0.8021,7.87761 -2.23438,10.22656 -1.4896,2.63542 -4.01043,4.72656 -7.5625,6.27344 l -1.20312,-1.80469 c 3.55207,-1.26041 5.95832,-3.09375 7.21875,-5.5 z m -8.67969,-8.16406 c 0.68749,0.91668 1.57551,2.69272 2.66406,5.32812 l -1.97656,0.85938 c -0.80209,-2.23437 -1.60417,-4.03905 -2.40625,-5.41406 z"
         style="font-family:MS UI Gothic;-inkscape-font-specification:MS UI Gothic"
         id="path3084" />
    </g>
    <path
       style="fill:none;stroke:#464546;stroke-width:2;stroke-linecap:butt;stroke-linejoin:miter;stroke-miterlimit:4;stroke-opacity:1;stroke-dasharray:none"
       d="m 92.052539,830.74357 0,200.22103"
       id="path11910"
       inkscape:connector-curvature="0" />
    <path
       style="fill:none;stroke:#464546;stroke-width:2;stroke-linecap:butt;stroke-linejoin:miter;stroke-miterlimit:4;stroke-opacity:1;stroke-dasharray:none"
       d="m 162.07313,831.04273 0,199.91357"
       id="path11912"
       inkscape:connector-curvature="0" />
    <g
       style="font-size:22px;font-style:normal;font-variant:normal;font-weight:normal;font-stretch:normal;line-height:125%;letter-spacing:0px;word-spacing:0px;fill:#000000;fill-opacity:1;stroke:none;font-family:Open Sans;-inkscape-font-specification:Open Sans"
       id="text11914">
      <path
         d="m 40.9883,998.9978 2.664063,0 3.953125,11.4297 3.953125,-11.4297 2.664062,0 0,14.6953 -1.976562,0 0,-11.2578 -3.953125,11.2578 -1.375,0 -3.953125,-11.2578 0,11.2578 -1.976563,0 z"
         style="font-family:MS UI Gothic;-inkscape-font-specification:MS UI Gothic"
         id="path3188" />
      <path
         d="m 57.14455,998.9978 6.875,0 c 1.260407,2e-5 2.291656,0.40106 3.09375,1.2031 0.802072,0.8021 1.203113,1.9193 1.203125,3.3516 -1.2e-5,1.4323 -0.372408,2.5208 -1.117187,3.2656 -0.744803,0.7448 -1.804697,1.1172 -3.179688,1.1172 l -4.898437,0 0,5.7578 -1.976563,0 z m 1.976563,1.6328 0,5.6719 4.46875,0 c 0.802075,0 1.432282,-0.2292 1.890625,-0.6875 0.515615,-0.5156 0.773427,-1.2031 0.773437,-2.0625 -10e-6,-0.974 -0.229177,-1.6901 -0.6875,-2.1484 -0.515634,-0.5157 -1.174487,-0.7735 -1.976562,-0.7735 z"
         style="font-family:MS UI Gothic;-inkscape-font-specification:MS UI Gothic"
         id="path3190" />
    </g>
    <g
       style="font-size:22px;font-style:normal;font-variant:normal;font-weight:normal;font-stretch:normal;line-height:125%;letter-spacing:0px;word-spacing:0px;fill:#000000;fill-opacity:1;stroke:none;font-family:Open Sans;-inkscape-font-specification:Open Sans"
       id="text11918">
      <path
         d="m 110.89712,998.8457 2.66406,0 3.95313,11.4297 3.95312,-11.4297 2.66406,0 0,14.6953 -1.97656,0 0,-11.2578 -3.95312,11.2578 -1.375,0 -3.95313,-11.2578 0,11.2578 -1.97656,0 z"
         style="font-family:MS UI Gothic;-inkscape-font-specification:MS UI Gothic"
         id="path3183" />
      <path
         d="m 127.05337,998.8457 6.875,0 c 1.2604,2e-5 2.29165,0.40106 3.09375,1.2031 0.80207,0.8021 1.20311,1.9193 1.20312,3.3516 -1e-5,1.4323 -0.37241,2.5208 -1.11718,3.2656 -0.74481,0.7448 -1.8047,1.1172 -3.17969,1.1172 l -4.89844,0 0,5.7578 -1.97656,0 z m 1.97656,1.6328 0,5.6719 4.46875,0 c 0.80207,0 1.43228,-0.2292 1.89063,-0.6875 0.51561,-0.5156 0.77342,-1.2031 0.77343,-2.0625 -1e-5,-0.974 -0.22917,-1.6901 -0.6875,-2.1484 -0.51563,-0.5157 -1.17449,-0.7735 -1.97656,-0.7735 z"
         style="font-family:MS UI Gothic;-inkscape-font-specification:MS UI Gothic"
         id="path3185" />
    </g>
    <g
       style="font-size:22px;font-style:normal;font-variant:normal;font-weight:normal;font-stretch:normal;line-height:125%;letter-spacing:0px;word-spacing:0px;fill:#000000;fill-opacity:1;stroke:none;font-family:Open Sans;-inkscape-font-specification:Open Sans"
       id="text11922">
      <path
         d="m 181.08841,998.36285 2.66406,0 3.95313,11.42965 3.95312,-11.42965 2.66406,0 0,14.69535 -1.97656,0 0,-11.2578 -3.95312,11.2578 -1.375,0 -3.95313,-11.2578 0,11.2578 -1.97656,0 z"
         style="font-family:MS UI Gothic;-inkscape-font-specification:MS UI Gothic"
         id="path3178" />
      <path
         d="m 197.24466,998.36285 6.875,0 c 1.26041,2e-5 2.29166,0.40106 3.09375,1.20313 0.80207,0.80212 1.20311,1.91932 1.20312,3.35152 -1e-5,1.4323 -0.3724,2.5209 -1.11718,3.2657 -0.74481,0.7448 -1.8047,1.1172 -3.17969,1.1172 l -4.89844,0 0,5.7578 -1.97656,0 z m 1.97656,1.63282 0,5.67183 4.46875,0 c 0.80208,0 1.43228,-0.2291 1.89063,-0.6875 0.51561,-0.5156 0.77342,-1.2031 0.77343,-2.0625 -1e-5,-0.9739 -0.22917,-1.6901 -0.6875,-2.1484 -0.51563,-0.5156 -1.17448,-0.77342 -1.97656,-0.77343 z"
         style="font-family:MS UI Gothic;-inkscape-font-specification:MS UI Gothic"
         id="path3180" />
    </g>
    <rect
       style="opacity:0.99000005;fill:#7ac142;fill-opacity:1;fill-rule:nonzero;stroke:#464546;stroke-width:2.91599989;stroke-linecap:butt;stroke-linejoin:miter;stroke-miterlimit:4;stroke-opacity:1;stroke-dasharray:none"
       id="rect11698-7"
       width="346.1778"
       height="246.17776"
       x="247.03612"
       y="784.27325"
       rx="13.84711"
       ry="8.373394" />
    <path
       style="fill:none;stroke:#464546;stroke-width:2.00178909;stroke-linecap:butt;stroke-linejoin:miter;stroke-miterlimit:4;stroke-opacity:1;stroke-dasharray:none"
       d="m 247.80614,830.49433 344.28821,0"
       id="path11874-8"
       inkscape:connector-curvature="0" />
    <path
       style="fill:none;stroke:#464546;stroke-width:2;stroke-linecap:butt;stroke-linejoin:miter;stroke-miterlimit:4;stroke-opacity:1;stroke-dasharray:none"
       d="m 246.80873,980.49592 345.39535,0"
       id="path11866-7"
       inkscape:connector-curvature="0" />
    <path
       style="fill:none;stroke:#464546;stroke-width:2.00178385;stroke-linecap:butt;stroke-linejoin:miter;stroke-miterlimit:4;stroke-opacity:1;stroke-dasharray:none"
       d="m 246.87135,930.99527 345.30672,0"
       id="path11866-7-6"
       inkscape:connector-curvature="0" />
    <path
       style="fill:none;stroke:#464546;stroke-width:2;stroke-linecap:butt;stroke-linejoin:miter;stroke-miterlimit:4;stroke-opacity:1;stroke-dasharray:none"
       d="m 246.8704,880.17754 345.04346,0"
       id="path11866-7-6-6"
       inkscape:connector-curvature="0" />
    <path
       style="fill:none;stroke:#464546;stroke-width:2;stroke-linecap:butt;stroke-linejoin:miter;stroke-miterlimit:4;stroke-opacity:1;stroke-dasharray:none"
       d="m 318.82523,830.47354 0,50.28872"
       id="path11912-1"
       inkscape:connector-curvature="0" />
    <path
       style="fill:none;stroke:#464546;stroke-width:2;stroke-linecap:butt;stroke-linejoin:miter;stroke-miterlimit:4;stroke-opacity:1;stroke-dasharray:none"
       d="m 388.15189,783.6664 0,97.3463"
       id="path11912-1-1"
       inkscape:connector-curvature="0" />
    <path
       style="fill:none;stroke:#464546;stroke-width:2.00931168;stroke-linecap:butt;stroke-linejoin:miter;stroke-miterlimit:4;stroke-opacity:1;stroke-dasharray:none"
       d="m 458.3724,831.37918 0,198.70862"
       id="path11912-1-1-3"
       inkscape:connector-curvature="0" />
    <path
       style="fill:none;stroke:#464546;stroke-width:2;stroke-linecap:butt;stroke-linejoin:miter;stroke-miterlimit:4;stroke-opacity:1;stroke-dasharray:none"
       d="m 528.64817,931.14591 0,98.31909"
       id="path11912-1-1-3-6"
       inkscape:connector-curvature="0" />
    <g
       style="font-size:22px;font-style:normal;font-variant:normal;font-weight:normal;font-stretch:normal;line-height:125%;letter-spacing:0px;word-spacing:0px;fill:#000000;fill-opacity:1;stroke:none;font-family:Open Sans;-inkscape-font-specification:Open Sans"
       id="text12300">
      <path
         d="m 305.14255,797.56177 0,3.35156 -1.46094,0 0,-3.35156 z m -2.32031,0 0,3.35156 -1.46094,0 0,-3.35156 z m -11.60157,1.80469 9.45313,0 0,1.63281 -9.45313,0 z m -2.0625,5.75781 14.86719,0 0,1.89062 -6.10156,0 0,2.83594 c -1e-5,3.49479 -1.57553,5.8724 -4.72656,7.13281 l -1.11719,-1.63281 c 1.54687,-0.45833 2.63541,-1.17448 3.26562,-2.14844 0.57291,-0.85937 0.85937,-1.97656 0.85938,-3.35156 l 0,-2.83594 -7.04688,0 z"
         style="font-family:MS UI Gothic;-inkscape-font-specification:MS UI Gothic"
         id="path3058" />
      <path
         d="m 311.41599,806.58521 c 1.71874,-1.48958 3.0078,-3.03645 3.86718,-4.64063 l 1.54688,0.85938 c -0.7448,1.20313 -1.8047,2.46355 -3.17969,3.78125 l 0,10.22656 -1.46094,0 0,-8.76563 c -1.66146,1.48959 -3.35156,2.63542 -5.07031,3.4375 l -0.85937,-1.375 c 1.89062,-0.97395 3.60937,-2.14843 5.15625,-3.52343 z"
         style="font-family:MS UI Gothic;-inkscape-font-specification:MS UI Gothic"
         id="path3060" />
      <path
         d="m 331.26755,801.77271 c -2e-5,2.40626 -0.65887,4.72657 -1.97656,6.96093 1.9479,1.83334 3.78123,3.83855 5.5,6.01563 l -1.375,1.63281 c -2.00523,-2.92187 -3.69533,-4.98437 -5.07032,-6.1875 -2.1198,3.03646 -4.78386,5.27083 -7.99218,6.70313 l -1.03125,-1.71875 c 2.92187,-1.20313 5.35676,-3.15104 7.30468,-5.84375 1.83333,-2.46354 2.74999,-4.86979 2.75,-7.21875 l -8.67968,0 0,-1.89063 10.57031,0 0,1.54688 z"
         style="font-family:MS UI Gothic;-inkscape-font-specification:MS UI Gothic"
         id="path3062" />
      <path
         d="m 348.97067,800.99927 0,2.83594 c -10e-6,3.26563 -0.85939,6.04427 -2.57812,8.33593 -1.4896,2.1198 -3.63803,3.69531 -6.44531,4.72657 l -1.375,-1.63282 c 2.92186,-1.03125 5.09894,-2.46354 6.53125,-4.29687 1.43228,-1.89062 2.14842,-4.26822 2.14843,-7.13281 l 0,-1.20313 -6.70312,0 c -0.45834,2.75001 -1.48959,4.92709 -3.09375,6.53125 l -1.375,-1.375 c 1.20312,-1.14582 2.0052,-2.49218 2.40625,-4.03906 0.34374,-1.3177 0.48697,-3.06509 0.42969,-5.24219 l 1.89062,0 c -10e-6,0.91668 -0.0286,1.74741 -0.0859,2.49219 z"
         style="font-family:MS UI Gothic;-inkscape-font-specification:MS UI Gothic"
         id="path3064" />
      <path
         d="m 355.33005,801.94458 c 0.51562,-0.51561 0.80208,-1.08853 0.85937,-1.71875 l 1.03125,0 0,14.86719 -1.97656,0 0,-11.42969 -2.57812,0 0,-1.03125 0.77343,0 c 0.80208,10e-6 1.43229,-0.22915 1.89063,-0.6875 z"
         style="font-family:MS UI Gothic;-inkscape-font-specification:MS UI Gothic"
         id="path3066" />
    </g>
    <g
       style="font-size:22px;font-style:normal;font-variant:normal;font-weight:normal;font-stretch:normal;line-height:125%;letter-spacing:0px;word-spacing:0px;fill:#000000;fill-opacity:1;stroke:none;font-family:Open Sans;-inkscape-font-specification:Open Sans"
       id="text12304">
      <path
         d="m 471.96103,797.078 0,3.35157 -1.46094,0 0,-3.35157 z m -2.32031,0 0,3.35157 -1.46094,0 0,-3.35157 z m -11.60157,1.80469 9.45313,0 0,1.63281 -9.45313,0 z m -2.0625,5.75781 14.86719,0 0,1.89063 -6.10156,0 0,2.83594 c -10e-6,3.49479 -1.57553,5.87239 -4.72656,7.13281 l -1.11719,-1.63281 c 1.54687,-0.45834 2.63541,-1.17448 3.26562,-2.14844 0.57291,-0.85937 0.85937,-1.97656 0.85938,-3.35156 l 0,-2.83594 -7.04688,0 z"
         style="font-family:MS UI Gothic;-inkscape-font-specification:MS UI Gothic"
         id="path3069" />
      <path
         d="m 478.23447,806.10144 c 1.71874,-1.48957 3.0078,-3.03645 3.86718,-4.64062 l 1.54688,0.85937 c -0.7448,1.20314 -1.8047,2.46355 -3.17969,3.78125 l 0,10.22656 -1.46094,0 0,-8.76562 c -1.66146,1.48959 -3.35156,2.63542 -5.07031,3.4375 l -0.85937,-1.375 c 1.89062,-0.97395 3.60937,-2.14843 5.15625,-3.52344 z"
         style="font-family:MS UI Gothic;-inkscape-font-specification:MS UI Gothic"
         id="path3071" />
      <path
         d="m 498.08603,801.28894 c -10e-6,2.40626 -0.65887,4.72657 -1.97656,6.96094 1.9479,1.83334 3.78123,3.83854 5.5,6.01562 l -1.375,1.63282 c -2.00522,-2.92188 -3.69533,-4.98438 -5.07032,-6.1875 -2.1198,3.03646 -4.78386,5.27083 -7.99218,6.70312 l -1.03125,-1.71875 c 2.92187,-1.20312 5.35676,-3.15104 7.30468,-5.84375 1.83333,-2.46353 2.74999,-4.86978 2.75,-7.21875 l -8.67968,0 0,-1.89062 10.57031,0 0,1.54687 z"
         style="font-family:MS UI Gothic;-inkscape-font-specification:MS UI Gothic"
         id="path3073" />
      <path
         d="m 515.78915,800.5155 0,2.83594 c -10e-6,3.26563 -0.85938,6.04428 -2.57812,8.33594 -1.48959,2.11979 -3.63803,3.69531 -6.44531,4.72656 l -1.375,-1.63281 c 2.92187,-1.03125 5.09895,-2.46354 6.53125,-4.29688 1.43228,-1.89062 2.14842,-4.26822 2.14843,-7.13281 l 0,-1.20312 -6.70312,0 c -0.45834,2.75001 -1.48959,4.92709 -3.09375,6.53125 l -1.375,-1.375 c 1.20312,-1.14583 2.0052,-2.49218 2.40625,-4.03907 0.34375,-1.31769 0.48697,-3.06509 0.42969,-5.24218 l 1.89062,0 c 0,0.91668 -0.0287,1.74741 -0.0859,2.49218 z"
         style="font-family:MS UI Gothic;-inkscape-font-specification:MS UI Gothic"
         id="path3075" />
      <path
         d="m 518.62509,804.98425 c 0,-1.77603 0.45833,-3.12238 1.375,-4.03906 0.74479,-0.74478 1.63281,-1.11717 2.66406,-1.11719 1.26041,2e-5 2.26302,0.37241 3.00782,1.11719 0.74478,0.74481 1.11717,1.66147 1.11718,2.75 -10e-6,1.37501 -0.42969,2.57813 -1.28906,3.60938 -0.80209,0.97396 -1.63282,1.91927 -2.49219,2.83593 -0.45833,0.51563 -0.91667,1.03126 -1.375,1.54688 -0.40104,0.45833 -0.74479,0.91667 -1.03125,1.375 l 6.44532,0 0,1.63281 -8.76563,0 0,-1.46094 c 0.11458,-0.57291 0.60156,-1.37499 1.46094,-2.40625 1.43229,-1.54687 2.60676,-2.83593 3.52344,-3.86718 0.97395,-1.03125 1.46093,-2.11979 1.46093,-3.26563 0,-0.68749 -0.22917,-1.2604 -0.6875,-1.71875 -0.34375,-0.34374 -0.77344,-0.51561 -1.28906,-0.51562 -0.45834,10e-6 -0.85938,0.17188 -1.20312,0.51562 -0.63022,0.63022 -0.94532,1.63282 -0.94532,3.00781 z"
         style="font-family:MS UI Gothic;-inkscape-font-specification:MS UI Gothic"
         id="path3077" />
    </g>
    <path
       style="fill:none;stroke:#464546;stroke-width:2;stroke-linecap:butt;stroke-linejoin:miter;stroke-miterlimit:4;stroke-opacity:1;stroke-dasharray:none"
       d="m 528.8049,831.27924 0,49.06013"
       id="path11912-1-1-3-6-5"
       inkscape:connector-curvature="0" />
    <path
       style="fill:none;stroke:#464546;stroke-width:2;stroke-linecap:butt;stroke-linejoin:miter;stroke-miterlimit:4;stroke-opacity:1;stroke-dasharray:none"
       d="m 353.86718,931.40169 0,99.39951"
       id="path11912-1-1-3-2"
       inkscape:connector-curvature="0" />
    <g
       style="font-size:22px;font-style:normal;font-variant:normal;font-weight:normal;font-stretch:normal;line-height:125%;letter-spacing:0px;word-spacing:0px;fill:#000000;fill-opacity:1;stroke:none;font-family:Open Sans;-inkscape-font-specification:Open Sans"
       id="text11914-9">
      <path
         d="m 285.23291,998.0116 2.66406,0 3.95313,11.4297 3.95312,-11.4297 2.66407,0 0,14.6953 -1.97657,0 0,-11.2578 -3.95312,11.2578 -1.375,0 -3.95313,-11.2578 0,11.2578 -1.97656,0 z"
         style="font-family:MS UI Gothic;-inkscape-font-specification:MS UI Gothic"
         id="path3208" />
      <path
         d="m 301.38916,998.0116 6.875,0 c 1.26041,10e-6 2.29166,0.40105 3.09375,1.20312 0.80207,0.80208 1.20311,1.91928 1.20313,3.35158 -2e-5,1.4323 -0.37241,2.5208 -1.11719,3.2656 -0.7448,0.7448 -1.8047,1.1172 -3.17969,1.1172 l -4.89844,0 0,5.7578 -1.97656,0 z m 1.97656,1.63281 0,5.67189 4.46875,0 c 0.80208,0 1.43229,-0.2292 1.89063,-0.6875 0.51561,-0.5156 0.77342,-1.2031 0.77344,-2.0625 -2e-5,-0.974 -0.22918,-1.6901 -0.6875,-2.1485 -0.51564,-0.51557 -1.17449,-0.77338 -1.97657,-0.77339 z"
         style="font-family:MS UI Gothic;-inkscape-font-specification:MS UI Gothic"
         id="path3210" />
    </g>
    <g
       style="font-size:22px;font-style:normal;font-variant:normal;font-weight:normal;font-stretch:normal;line-height:125%;letter-spacing:0px;word-spacing:0px;fill:#000000;fill-opacity:1;stroke:none;font-family:Open Sans;-inkscape-font-specification:Open Sans"
       id="text11914-5">
      <path
         d="m 394.98291,997.7616 2.66406,0 3.95313,11.4297 3.95312,-11.4297 2.66407,0 0,14.6953 -1.97657,0 0,-11.2578 -3.95312,11.2578 -1.375,0 -3.95313,-11.2578 0,11.2578 -1.97656,0 z"
         style="font-family:MS UI Gothic;-inkscape-font-specification:MS UI Gothic"
         id="path3203" />
      <path
         d="m 411.13916,997.7616 6.875,0 c 1.26041,10e-6 2.29166,0.40105 3.09375,1.20312 0.80207,0.8021 1.20311,1.91928 1.20313,3.35158 -2e-5,1.4323 -0.37241,2.5208 -1.11719,3.2656 -0.7448,0.7448 -1.8047,1.1172 -3.17969,1.1172 l -4.89844,0 0,5.7578 -1.97656,0 z m 1.97656,1.63281 0,5.67189 4.46875,0 c 0.80208,0 1.43229,-0.2292 1.89063,-0.6875 0.51561,-0.5156 0.77342,-1.2031 0.77344,-2.0625 -2e-5,-0.974 -0.22918,-1.6901 -0.6875,-2.1485 -0.51564,-0.51557 -1.17449,-0.77338 -1.97657,-0.77339 z"
         style="font-family:MS UI Gothic;-inkscape-font-specification:MS UI Gothic"
         id="path3205" />
    </g>
    <g
       style="font-size:22px;font-style:normal;font-variant:normal;font-weight:normal;font-stretch:normal;line-height:125%;letter-spacing:0px;word-spacing:0px;fill:#000000;fill-opacity:1;stroke:none;font-family:Open Sans;-inkscape-font-specification:Open Sans"
       id="text11914-0">
      <path
         d="m 480.48291,997.7616 2.66406,0 3.95313,11.4297 3.95312,-11.4297 2.66407,0 0,14.6953 -1.97657,0 0,-11.2578 -3.95312,11.2578 -1.375,0 -3.95313,-11.2578 0,11.2578 -1.97656,0 z"
         style="font-family:MS UI Gothic;-inkscape-font-specification:MS UI Gothic"
         id="path3198" />
      <path
         d="m 496.63916,997.7616 6.875,0 c 1.26041,10e-6 2.29166,0.40105 3.09375,1.20312 0.80207,0.8021 1.20311,1.91928 1.20313,3.35158 -2e-5,1.4323 -0.37241,2.5208 -1.11719,3.2656 -0.7448,0.7448 -1.8047,1.1172 -3.17969,1.1172 l -4.89844,0 0,5.7578 -1.97656,0 z m 1.97656,1.63281 0,5.67189 4.46875,0 c 0.80208,0 1.43229,-0.2292 1.89063,-0.6875 0.51561,-0.5156 0.77342,-1.2031 0.77344,-2.0625 -2e-5,-0.974 -0.22918,-1.6901 -0.6875,-2.1485 -0.51564,-0.51557 -1.17449,-0.77338 -1.97657,-0.77339 z"
         style="font-family:MS UI Gothic;-inkscape-font-specification:MS UI Gothic"
         id="path3200" />
    </g>
    <g
       style="font-size:22px;font-style:normal;font-variant:normal;font-weight:normal;font-stretch:normal;line-height:125%;letter-spacing:0px;word-spacing:0px;fill:#000000;fill-opacity:1;stroke:none;font-family:Open Sans;-inkscape-font-specification:Open Sans"
       id="text11914-97">
      <path
         d="m 545.73291,998.2616 2.66406,0 3.95313,11.4297 3.95312,-11.4297 2.66407,0 0,14.6953 -1.97657,0 0,-11.2578 -3.95312,11.2578 -1.375,0 -3.95313,-11.2578 0,11.2578 -1.97656,0 z"
         style="font-family:MS UI Gothic;-inkscape-font-specification:MS UI Gothic"
         id="path3193" />
      <path
         d="m 561.88916,998.2616 6.875,0 c 1.26041,10e-6 2.29166,0.40105 3.09375,1.20312 0.80207,0.80208 1.20311,1.91928 1.20313,3.35158 -2e-5,1.4323 -0.37241,2.5208 -1.11719,3.2656 -0.7448,0.7448 -1.8047,1.1172 -3.17969,1.1172 l -4.89844,0 0,5.7578 -1.97656,0 z m 1.97656,1.63281 0,5.67189 4.46875,0 c 0.80208,0 1.43229,-0.2292 1.89063,-0.6875 0.51561,-0.5156 0.77342,-1.2031 0.77344,-2.0625 -2e-5,-0.974 -0.22918,-1.6901 -0.6875,-2.1485 -0.51564,-0.5156 -1.17449,-0.77338 -1.97657,-0.77339 z"
         style="font-family:MS UI Gothic;-inkscape-font-specification:MS UI Gothic"
         id="path3195" />
    </g>
    <g
       style="font-size:22px;font-style:normal;font-variant:normal;font-weight:normal;font-stretch:normal;line-height:125%;letter-spacing:0px;word-spacing:0px;fill:#000000;fill-opacity:1;stroke:none;font-family:Open Sans;-inkscape-font-specification:Open Sans"
       id="text11876-17">
      <path
         d="m 272.33466,844.02332 c 0.68748,-0.0573 1.28904,0.14324 1.80468,0.60156 0.5729,0.51564 0.85936,1.1172 0.85938,1.80469 -0.0573,0.7448 -0.31512,1.34636 -0.77344,1.80468 -0.45835,0.51564 -1.03127,0.74481 -1.71875,0.6875 -0.74481,2e-5 -1.34637,-0.28644 -1.80469,-0.85937 -0.45834,-0.51561 -0.65886,-1.11717 -0.60156,-1.80469 0.0573,-0.5729 0.28645,-1.08852 0.6875,-1.54687 0.45832,-0.45832 0.97394,-0.68749 1.54688,-0.6875 z m -3.09375,2.57812 c 1.2604,2.06251 2.32029,4.44012 3.17968,7.13281 0.97395,2.97918 1.60415,5.67188 1.89063,8.07813 l -1.97656,0.85937 c -0.28648,-2.6927 -0.85939,-5.41405 -1.71875,-8.16406 -0.85939,-2.86457 -1.83335,-5.18488 -2.92188,-6.96094 l 1.54688,-0.94531 z m -11.51563,14.86719 c 2.75,-3.66666 4.125,-8.62239 4.125,-14.86719 l 1.89063,0.34375 c -10e-6,6.41668 -1.46095,11.80209 -4.38282,16.15625 l -1.63281,-1.63281 z m 14.69531,-13.83594 c 0.45832,2e-5 0.80207,-0.11457 1.03125,-0.34375 0.28644,-0.22915 0.40103,-0.51561 0.34375,-0.85937 -1e-5,-0.34374 -0.1146,-0.6302 -0.34375,-0.85938 -0.22918,-0.22915 -0.54428,-0.34373 -0.94531,-0.34375 -0.34376,2e-5 -0.63022,0.1146 -0.85937,0.34375 -0.22919,0.22918 -0.34377,0.51564 -0.34375,0.85938 -2e-5,0.34376 0.11456,0.63022 0.34375,0.85937 0.22915,0.22918 0.48696,0.34377 0.77343,0.34375 z"
         style="font-family:MS UI Gothic;-inkscape-font-specification:MS UI Gothic"
         id="path3129" />
      <path
         d="m 291.58466,853.13269 0,1.89063 -14.95313,0 0,-1.89063 z"
         style="font-family:MS UI Gothic;-inkscape-font-specification:MS UI Gothic"
         id="path3131" />
      <path
         d="m 300.95184,845.99988 c 1.03124,1.66147 1.94791,3.40887 2.75,5.24219 l -1.97656,0.94531 c -0.80209,-2.23436 -1.60417,-4.0677 -2.40625,-5.5 z m 3.95313,10.39844 c 1.20311,-2.11979 1.77603,-5.27083 1.71875,-9.45313 l 2.0625,0.25781 c -0.0573,4.46876 -0.8021,7.87761 -2.23438,10.22657 -1.48959,2.63541 -4.01042,4.72656 -7.5625,6.27343 l -1.20312,-1.80468 c 3.55207,-1.26042 5.95832,-3.09375 7.21875,-5.5 z m -8.67969,-8.16407 c 0.6875,0.91668 1.57552,2.69272 2.66406,5.32813 l -1.97656,0.85937 c -0.80209,-2.23436 -1.60417,-4.03905 -2.40625,-5.41406 z"
         style="font-family:MS UI Gothic;-inkscape-font-specification:MS UI Gothic"
         id="path3133" />
    </g>
    <g
       style="font-size:22px;font-style:normal;font-variant:normal;font-weight:normal;font-stretch:normal;line-height:125%;letter-spacing:0px;word-spacing:0px;fill:#000000;fill-opacity:1;stroke:none;font-family:Open Sans;-inkscape-font-specification:Open Sans"
       id="text11876-63">
      <path
         d="m 342.6275,844.94226 c 0.68749,-0.0573 1.28905,0.14325 1.80469,0.60156 0.5729,0.51565 0.85936,1.11721 0.85937,1.80469 -0.0573,0.74481 -0.31512,1.34637 -0.77343,1.80469 -0.45835,0.51564 -1.03127,0.7448 -1.71875,0.6875 -0.74481,10e-6 -1.34637,-0.28645 -1.80469,-0.85938 -0.45835,-0.51561 -0.65887,-1.11717 -0.60156,-1.80468 0.0573,-0.5729 0.28644,-1.08853 0.6875,-1.54688 0.45832,-0.45831 0.97394,-0.68748 1.54687,-0.6875 z m -3.09375,2.57813 c 1.26041,2.06251 2.3203,4.44011 3.17969,7.13281 0.97394,2.97917 1.60415,5.67188 1.89062,8.07812 l -1.97656,0.85938 c -0.28647,-2.69271 -0.85939,-5.41406 -1.71875,-8.16406 -0.85939,-2.86458 -1.83334,-5.18489 -2.92187,-6.96094 l 1.54687,-0.94531 z m -11.51562,14.86718 c 2.74999,-3.66666 4.12499,-8.62238 4.125,-14.86718 l 1.89062,0.34375 c 0,6.41667 -1.46094,11.80208 -4.38281,16.15625 l -1.63281,-1.63282 z m 14.69531,-13.83593 c 0.45832,10e-6 0.80207,-0.11457 1.03125,-0.34375 0.28644,-0.22916 0.40102,-0.51561 0.34375,-0.85938 -2e-5,-0.34373 -0.1146,-0.63019 -0.34375,-0.85937 -0.22918,-0.22915 -0.54429,-0.34374 -0.94531,-0.34375 -0.34377,10e-6 -0.63023,0.1146 -0.85938,0.34375 -0.22918,0.22918 -0.34376,0.51564 -0.34375,0.85937 -10e-6,0.34377 0.11457,0.63022 0.34375,0.85938 0.22915,0.22918 0.48697,0.34376 0.77344,0.34375 z"
         style="font-family:MS UI Gothic;-inkscape-font-specification:MS UI Gothic"
         id="path3122" />
      <path
         d="m 361.8775,854.05164 0,1.89062 -14.95312,0 0,-1.89062 z"
         style="font-family:MS UI Gothic;-inkscape-font-specification:MS UI Gothic"
         id="path3124" />
      <path
         d="m 371.24469,846.91882 c 1.03124,1.66148 1.94791,3.40887 2.75,5.24219 l -1.97656,0.94531 c -0.80209,-2.23436 -1.60418,-4.06769 -2.40625,-5.5 z m 3.95312,10.39844 c 1.20312,-2.11978 1.77603,-5.27082 1.71875,-9.45312 l 2.0625,0.25781 c -0.0573,4.46876 -0.80209,7.87761 -2.23437,10.22656 -1.4896,2.63542 -4.01043,4.72656 -7.5625,6.27344 l -1.20313,-1.80469 c 3.55208,-1.26041 5.95833,-3.09375 7.21875,-5.5 z m -8.67968,-8.16406 c 0.68749,0.91668 1.57551,2.69272 2.66406,5.32812 l -1.97656,0.85938 c -0.80209,-2.23437 -1.60417,-4.03905 -2.40625,-5.41406 z"
         style="font-family:MS UI Gothic;-inkscape-font-specification:MS UI Gothic"
         id="path3126" />
    </g>
    <g
       style="font-size:22px;font-style:normal;font-variant:normal;font-weight:normal;font-stretch:normal;line-height:125%;letter-spacing:0px;word-spacing:0px;fill:#000000;fill-opacity:1;stroke:none;font-family:Open Sans;-inkscape-font-specification:Open Sans"
       id="text11876-4">
      <path
         d="m 411.01144,844.64441 c 0.68749,-0.0573 1.28905,0.14325 1.80469,0.60156 0.5729,0.51564 0.85936,1.11721 0.85938,1.80469 -0.0573,0.74481 -0.31513,1.34637 -0.77344,1.80469 -0.45835,0.51564 -1.03127,0.7448 -1.71875,0.6875 -0.74481,10e-6 -1.34637,-0.28645 -1.80469,-0.85938 -0.45835,-0.51561 -0.65887,-1.11717 -0.60156,-1.80469 0.0573,-0.5729 0.28644,-1.08852 0.6875,-1.54687 0.45832,-0.45832 0.97394,-0.68748 1.54687,-0.6875 z m -3.09375,2.57812 c 1.26041,2.06252 2.3203,4.44012 3.17969,7.13282 0.97394,2.97917 1.60415,5.67187 1.89063,8.07812 l -1.97657,0.85938 c -0.28647,-2.69271 -0.85939,-5.41406 -1.71875,-8.16407 -0.85938,-2.86457 -1.83334,-5.18488 -2.92187,-6.96093 l 1.54687,-0.94532 z m -11.51562,14.86719 c 2.75,-3.66666 4.12499,-8.62238 4.125,-14.86719 l 1.89062,0.34375 c 0,6.41668 -1.46094,11.80209 -4.38281,16.15625 l -1.63281,-1.63281 z m 14.69531,-13.83594 c 0.45832,2e-5 0.80207,-0.11456 1.03125,-0.34375 0.28644,-0.22915 0.40103,-0.51561 0.34375,-0.85937 -2e-5,-0.34373 -0.1146,-0.63019 -0.34375,-0.85938 -0.22918,-0.22915 -0.54429,-0.34373 -0.94531,-0.34375 -0.34377,2e-5 -0.63022,0.1146 -0.85938,0.34375 -0.22918,0.22919 -0.34376,0.51565 -0.34375,0.85938 -10e-6,0.34376 0.11457,0.63022 0.34375,0.85937 0.22916,0.22919 0.48697,0.34377 0.77344,0.34375 z"
         style="font-family:MS UI Gothic;-inkscape-font-specification:MS UI Gothic"
         id="path3115" />
      <path
         d="m 430.26144,853.75378 0,1.89063 -14.95312,0 0,-1.89063 z"
         style="font-family:MS UI Gothic;-inkscape-font-specification:MS UI Gothic"
         id="path3117" />
      <path
         d="m 439.62863,846.62097 c 1.03124,1.66147 1.94791,3.40887 2.75,5.24219 l -1.97656,0.94531 c -0.80209,-2.23436 -1.60417,-4.06769 -2.40625,-5.5 z m 3.95313,10.39844 c 1.20311,-2.11978 1.77602,-5.27082 1.71875,-9.45313 l 2.0625,0.25782 c -0.0573,4.46876 -0.8021,7.87761 -2.23438,10.22656 -1.48959,2.63542 -4.01042,4.72656 -7.5625,6.27344 l -1.20312,-1.80469 c 3.55207,-1.26042 5.95832,-3.09375 7.21875,-5.5 z m -8.67969,-8.16406 c 0.6875,0.91668 1.57552,2.69272 2.66406,5.32812 l -1.97656,0.85938 c -0.80209,-2.23437 -1.60417,-4.03905 -2.40625,-5.41407 z"
         style="font-family:MS UI Gothic;-inkscape-font-specification:MS UI Gothic"
         id="path3119" />
    </g>
    <g
       style="font-size:22px;font-style:normal;font-variant:normal;font-weight:normal;font-stretch:normal;line-height:125%;letter-spacing:0px;word-spacing:0px;fill:#000000;fill-opacity:1;stroke:none;font-family:Open Sans;-inkscape-font-specification:Open Sans"
       id="text11876-636">
      <path
         d="m 481.46692,844.61902 c 0.68748,-0.0573 1.28904,0.14325 1.80469,0.60156 0.5729,0.51564 0.85935,1.11721 0.85937,1.80469 -0.0573,0.74481 -0.31512,1.34637 -0.77344,1.80469 -0.45835,0.51563 -1.03126,0.7448 -1.71875,0.6875 -0.7448,10e-6 -1.34636,-0.28645 -1.80468,-0.85938 -0.45835,-0.51561 -0.65887,-1.11717 -0.60157,-1.80469 0.0573,-0.5729 0.28645,-1.08852 0.6875,-1.54687 0.45832,-0.45832 0.97395,-0.68748 1.54688,-0.6875 z m -3.09375,2.57812 c 1.2604,2.06252 2.3203,4.44012 3.17969,7.13282 0.97394,2.97917 1.60415,5.67187 1.89062,8.07812 l -1.97656,0.85938 c -0.28647,-2.69271 -0.85939,-5.41406 -1.71875,-8.16407 -0.85939,-2.86457 -1.83335,-5.18488 -2.92188,-6.96093 l 1.54688,-0.94532 z m -11.51563,14.86719 c 2.75,-3.66666 4.125,-8.62239 4.125,-14.86719 l 1.89063,0.34375 c -1e-5,6.41668 -1.46094,11.80209 -4.38281,16.15625 l -1.63282,-1.63281 z m 14.69532,-13.83594 c 0.45831,2e-5 0.80206,-0.11456 1.03125,-0.34375 0.28644,-0.22915 0.40102,-0.51561 0.34375,-0.85937 -2e-5,-0.34374 -0.1146,-0.63019 -0.34375,-0.85938 -0.22919,-0.22915 -0.54429,-0.34373 -0.94532,-0.34375 -0.34376,2e-5 -0.63022,0.1146 -0.85937,0.34375 -0.22918,0.22919 -0.34377,0.51564 -0.34375,0.85938 -2e-5,0.34376 0.11457,0.63022 0.34375,0.85937 0.22915,0.22919 0.48696,0.34377 0.77344,0.34375 z"
         style="font-family:MS UI Gothic;-inkscape-font-specification:MS UI Gothic"
         id="path3108" />
      <path
         d="m 500.71692,853.72839 0,1.89063 -14.95313,0 0,-1.89063 z"
         style="font-family:MS UI Gothic;-inkscape-font-specification:MS UI Gothic"
         id="path3110" />
      <path
         d="m 510.08411,846.59558 c 1.03124,1.66147 1.9479,3.40887 2.75,5.24219 l -1.97657,0.94531 c -0.80209,-2.23436 -1.60417,-4.06769 -2.40625,-5.5 z m 3.95312,10.39844 c 1.20311,-2.11979 1.77603,-5.27082 1.71875,-9.45313 l 2.0625,0.25782 c -0.0573,4.46876 -0.8021,7.87761 -2.23437,10.22656 -1.4896,2.63542 -4.01043,4.72656 -7.5625,6.27344 l -1.20313,-1.80469 c 3.55208,-1.26042 5.95832,-3.09375 7.21875,-5.5 z m -8.67969,-8.16406 c 0.6875,0.91668 1.57552,2.69272 2.66407,5.32812 l -1.97657,0.85938 c -0.80208,-2.23437 -1.60416,-4.03905 -2.40625,-5.41407 z"
         style="font-family:MS UI Gothic;-inkscape-font-specification:MS UI Gothic"
         id="path3112" />
    </g>
    <g
       style="font-size:22px;font-style:normal;font-variant:normal;font-weight:normal;font-stretch:normal;line-height:125%;letter-spacing:0px;word-spacing:0px;fill:#000000;fill-opacity:1;stroke:none;font-family:Open Sans;-inkscape-font-specification:Open Sans"
       id="text11876-49">
      <path
         d="m 549.57764,844.55847 c 0.68748,-0.0573 1.28904,0.14325 1.80468,0.60156 0.5729,0.51565 0.85936,1.11721 0.85938,1.80469 -0.0573,0.74481 -0.31512,1.34637 -0.77344,1.80469 -0.45835,0.51564 -1.03126,0.7448 -1.71875,0.6875 -0.7448,10e-6 -1.34637,-0.28645 -1.80469,-0.85938 -0.45834,-0.51561 -0.65886,-1.11717 -0.60156,-1.80468 0.0573,-0.5729 0.28645,-1.08853 0.6875,-1.54688 0.45832,-0.45831 0.97395,-0.68748 1.54688,-0.6875 z m -3.09375,2.57813 c 1.2604,2.06251 2.32029,4.44011 3.17968,7.13281 0.97395,2.97917 1.60415,5.67188 1.89063,8.07812 l -1.97656,0.85938 c -0.28648,-2.69271 -0.85939,-5.41406 -1.71875,-8.16406 -0.85939,-2.86458 -1.83335,-5.18489 -2.92188,-6.96094 l 1.54688,-0.94531 z m -11.51563,14.86718 c 2.75,-3.66666 4.125,-8.62238 4.125,-14.86718 l 1.89063,0.34375 c -10e-6,6.41667 -1.46095,11.80208 -4.38282,16.15625 l -1.63281,-1.63282 z m 14.69531,-13.83593 c 0.45832,10e-6 0.80207,-0.11457 1.03125,-0.34375 0.28645,-0.22915 0.40103,-0.51561 0.34375,-0.85938 -1e-5,-0.34373 -0.1146,-0.63019 -0.34375,-0.85937 -0.22918,-0.22915 -0.54428,-0.34374 -0.94531,-0.34375 -0.34376,10e-6 -0.63022,0.1146 -0.85937,0.34375 -0.22918,0.22918 -0.34377,0.51564 -0.34375,0.85937 -2e-5,0.34377 0.11457,0.63023 0.34375,0.85938 0.22915,0.22918 0.48696,0.34376 0.77343,0.34375 z"
         style="font-family:MS UI Gothic;-inkscape-font-specification:MS UI Gothic"
         id="path3101" />
      <path
         d="m 568.82764,853.66785 0,1.89062 -14.95313,0 0,-1.89062 z"
         style="font-family:MS UI Gothic;-inkscape-font-specification:MS UI Gothic"
         id="path3103" />
      <path
         d="m 578.19482,846.53503 c 1.03125,1.66148 1.94791,3.40887 2.75,5.24219 l -1.97656,0.94531 c -0.80209,-2.23436 -1.60417,-4.06769 -2.40625,-5.5 z m 3.95313,10.39844 c 1.20311,-2.11978 1.77603,-5.27082 1.71875,-9.45312 l 2.0625,0.25781 c -0.0573,4.46876 -0.8021,7.87761 -2.23438,10.22656 -1.48959,2.63542 -4.01042,4.72656 -7.5625,6.27344 l -1.20312,-1.80469 c 3.55207,-1.26041 5.95832,-3.09374 7.21875,-5.5 z m -8.67969,-8.16406 c 0.6875,0.91668 1.57552,2.69272 2.66406,5.32812 l -1.97656,0.85938 c -0.80208,-2.23437 -1.60417,-4.03905 -2.40625,-5.41406 z"
         style="font-family:MS UI Gothic;-inkscape-font-specification:MS UI Gothic"
         id="path3105" />
    </g>
    <g
       style="font-size:22px;font-style:normal;font-variant:normal;font-weight:normal;font-stretch:normal;line-height:125%;letter-spacing:0px;word-spacing:0px;fill:#000000;fill-opacity:1;stroke:none;font-family:Open Sans;-inkscape-font-specification:Open Sans"
       id="text12471">
      <path
         d="m 333.61163,897.7323 2.0625,0 4.55469,11.94531 4.55469,-11.94531 2.0625,0 -5.84375,14.86719 -1.54688,0 z"
         style="font-family:MS UI Gothic;-inkscape-font-specification:MS UI Gothic"
         id="path3143" />
      <path
         d="m 348.56476,905.20886 c 0,-2.52082 0.65885,-4.44009 1.97656,-5.75781 1.20312,-1.20311 2.66406,-1.80467 4.38281,-1.80469 1.71874,2e-5 3.12239,0.54429 4.21094,1.63281 0.91665,0.91668 1.40363,2.03387 1.46094,3.35157 l -2.0625,0 c -0.0573,-0.97395 -0.40105,-1.77603 -1.03125,-2.40625 -0.63022,-0.6302 -1.48959,-0.9453 -2.57813,-0.94532 -1.08855,2e-5 -2.00521,0.37241 -2.75,1.11719 -1.03125,1.03126 -1.54688,2.63543 -1.54687,4.8125 -10e-6,2.06251 0.54427,3.63803 1.63281,4.72656 0.74479,0.7448 1.77604,1.11719 3.09375,1.11719 0.97395,0 1.77603,-0.3151 2.40625,-0.94531 0.6302,-0.63021 1.00259,-1.28906 1.11719,-1.97656 l 0,-1.375 -2.49219,0 0,-1.63282 4.46875,0 0,7.5625 -1.46094,0 -0.51562,-1.46093 c -0.97397,0.97396 -2.20574,1.46093 -3.69531,1.46093 -1.83334,0 -3.32293,-0.57291 -4.46875,-1.71875 -1.4323,-1.43228 -2.14844,-3.35155 -2.14844,-5.75781 z"
         style="font-family:MS UI Gothic;-inkscape-font-specification:MS UI Gothic"
         id="path3145" />
      <path
         d="m 373.83038,899.27917 c 0.51562,-0.51561 0.80208,-1.08852 0.85938,-1.71875 l 1.03125,0 0,14.86719 -1.97656,0 0,-11.42969 -2.57813,0 0,-1.03125 0.77344,0 c 0.80208,2e-5 1.43229,-0.22915 1.89062,-0.6875 z"
         style="font-family:MS UI Gothic;-inkscape-font-specification:MS UI Gothic"
         id="path3147" />
    </g>
    <g
       style="font-size:22px;font-style:normal;font-variant:normal;font-weight:normal;font-stretch:normal;line-height:125%;letter-spacing:0px;word-spacing:0px;fill:#000000;fill-opacity:1;stroke:none;font-family:Open Sans;-inkscape-font-specification:Open Sans"
       id="text12475">
      <path
         d="m 503.78842,898.00476 2.0625,0 4.55469,11.94531 4.55469,-11.94531 2.0625,0 -5.84375,14.86719 -1.54688,0 z"
         style="font-family:MS UI Gothic;-inkscape-font-specification:MS UI Gothic"
         id="path3136" />
      <path
         d="m 518.74155,905.48132 c 0,-2.52082 0.65885,-4.44009 1.97656,-5.75781 1.20312,-1.20311 2.66406,-1.80467 4.38281,-1.80469 1.71874,2e-5 3.12239,0.54429 4.21094,1.63282 0.91665,0.91667 1.40363,2.03386 1.46094,3.35156 l -2.0625,0 c -0.0573,-0.97395 -0.40106,-1.77603 -1.03125,-2.40625 -0.63022,-0.6302 -1.4896,-0.9453 -2.57813,-0.94531 -1.08855,10e-6 -2.00521,0.3724 -2.75,1.11718 -1.03125,1.03126 -1.54688,2.63543 -1.54687,4.8125 -10e-6,2.06251 0.54426,3.63803 1.63281,4.72657 0.74478,0.74479 1.77603,1.11718 3.09375,1.11718 0.97395,0 1.77603,-0.3151 2.40625,-0.94531 0.6302,-0.6302 1.00259,-1.28906 1.11719,-1.97656 l 0,-1.375 -2.49219,0 0,-1.63281 4.46875,0 0,7.5625 -1.46094,0 -0.51562,-1.46094 c -0.97397,0.97396 -2.20574,1.46094 -3.69532,1.46094 -1.83334,0 -3.32292,-0.57292 -4.46875,-1.71875 -1.43229,-1.43229 -2.14843,-3.35156 -2.14843,-5.75782 z"
         style="font-family:MS UI Gothic;-inkscape-font-specification:MS UI Gothic"
         id="path3138" />
      <path
         d="m 540.48373,903.07507 c 0,-1.77603 0.45834,-3.12238 1.375,-4.03906 0.74479,-0.74478 1.63281,-1.11717 2.66407,-1.11719 1.26041,2e-5 2.26301,0.37241 3.00781,1.11719 0.74478,0.74481 1.11718,1.66147 1.11719,2.75 -10e-6,1.37501 -0.4297,2.57813 -1.28907,3.60938 -0.80209,0.97396 -1.63282,1.91927 -2.49218,2.83593 -0.45834,0.51563 -0.91667,1.03126 -1.375,1.54688 -0.40105,0.45833 -0.7448,0.91667 -1.03125,1.375 l 6.44531,0 0,1.63281 -8.76563,0 0,-1.46094 c 0.11459,-0.57291 0.60156,-1.37499 1.46094,-2.40625 1.43229,-1.54687 2.60677,-2.83593 3.52344,-3.86718 0.97395,-1.03125 1.46093,-2.11979 1.46094,-3.26563 -10e-6,-0.68749 -0.22918,-1.2604 -0.6875,-1.71875 -0.34376,-0.34374 -0.77345,-0.51561 -1.28907,-0.51562 -0.45833,10e-6 -0.85938,0.17188 -1.20312,0.51562 -0.63021,0.63022 -0.94532,1.63282 -0.94531,3.00781 z"
         style="font-family:MS UI Gothic;-inkscape-font-specification:MS UI Gothic"
         id="path3140" />
    </g>
    <g
       style="font-size:22px;font-style:normal;font-variant:normal;font-weight:normal;font-stretch:normal;line-height:125%;letter-spacing:0px;word-spacing:0px;fill:#000000;fill-opacity:1;stroke:none;font-family:Open Sans;-inkscape-font-specification:Open Sans"
       id="text12479">
      <path
         d="m 284.21335,948.12097 1.97656,0 0,13.0625 7.90625,0 0,1.63281 -9.88281,0 z"
         style="font-family:MS UI Gothic;-inkscape-font-specification:MS UI Gothic"
         id="path3171" />
      <path
         d="m 294.69772,948.03503 2.0625,0 4.55469,11.94532 4.55469,-11.94532 2.0625,0 -5.84375,14.86719 -1.54688,0 z"
         style="font-family:MS UI Gothic;-inkscape-font-specification:MS UI Gothic"
         id="path3173" />
      <path
         d="m 319.96335,949.58191 c 0.51562,-0.51561 0.80208,-1.08853 0.85937,-1.71875 l 1.03125,0 0,14.86719 -1.97656,0 0,-11.42969 -2.57812,0 0,-1.03125 0.77343,0 c 0.80208,10e-6 1.43229,-0.22915 1.89063,-0.6875 z"
         style="font-family:MS UI Gothic;-inkscape-font-specification:MS UI Gothic"
         id="path3175" />
    </g>
    <g
       style="font-size:22px;font-style:normal;font-variant:normal;font-weight:normal;font-stretch:normal;line-height:125%;letter-spacing:0px;word-spacing:0px;fill:#000000;fill-opacity:1;stroke:none;font-family:Open Sans;-inkscape-font-specification:Open Sans"
       id="text12483">
      <path
         d="m 388.16882,948.17175 1.97657,0 0,13.0625 7.90625,0 0,1.63282 -9.88282,0 z"
         style="font-family:MS UI Gothic;-inkscape-font-specification:MS UI Gothic"
         id="path3164" />
      <path
         d="m 398.6532,948.08582 2.0625,0 4.55469,11.94531 4.55468,-11.94531 2.0625,0 -5.84375,14.86718 -1.54687,0 z"
         style="font-family:MS UI Gothic;-inkscape-font-specification:MS UI Gothic"
         id="path3166" />
      <path
         d="m 420.39539,953.15613 c -1e-5,-1.77603 0.45833,-3.12238 1.375,-4.03906 0.74478,-0.74478 1.6328,-1.11718 2.66406,-1.11719 1.26041,1e-5 2.26301,0.37241 3.00781,1.11719 0.74478,0.7448 1.11718,1.66147 1.11719,2.75 -1e-5,1.37501 -0.4297,2.57813 -1.28906,3.60937 -0.8021,0.97397 -1.63282,1.91928 -2.49219,2.83594 -0.45834,0.51563 -0.91667,1.03125 -1.375,1.54687 -0.40105,0.45834 -0.7448,0.91667 -1.03125,1.375 l 6.44531,0 0,1.63282 -8.76562,0 0,-1.46094 c 0.11458,-0.57292 0.60156,-1.375 1.46093,-2.40625 1.43229,-1.54687 2.60677,-2.83593 3.52344,-3.86719 0.97395,-1.03124 1.46093,-2.11978 1.46094,-3.26562 -1e-5,-0.68749 -0.22918,-1.26041 -0.6875,-1.71875 -0.34376,-0.34374 -0.77345,-0.51562 -1.28906,-0.51563 -0.45834,10e-6 -0.85938,0.17189 -1.20313,0.51563 -0.63021,0.63022 -0.94532,1.63282 -0.94531,3.00781 z"
         style="font-family:MS UI Gothic;-inkscape-font-specification:MS UI Gothic"
         id="path3168" />
    </g>
    <g
       style="font-size:22px;font-style:normal;font-variant:normal;font-weight:normal;font-stretch:normal;line-height:125%;letter-spacing:0px;word-spacing:0px;fill:#000000;fill-opacity:1;stroke:none;font-family:Open Sans;-inkscape-font-specification:Open Sans"
       id="text12487">
      <path
         d="m 474.09729,948.05554 1.97656,0 0,13.0625 7.90625,0 0,1.63281 -9.88281,0 z"
         style="font-family:MS UI Gothic;-inkscape-font-specification:MS UI Gothic"
         id="path3157" />
      <path
         d="m 484.58167,947.9696 2.0625,0 4.55468,11.94532 4.55469,-11.94532 2.0625,0 -5.84375,14.86719 -1.54687,0 z"
         style="font-family:MS UI Gothic;-inkscape-font-specification:MS UI Gothic"
         id="path3159" />
      <path
         d="m 506.32385,952.26648 c 0,-1.3177 0.42969,-2.40624 1.28907,-3.26563 0.74478,-0.74477 1.66145,-1.11717 2.75,-1.11718 1.2604,10e-6 2.26301,0.37241 3.00781,1.11718 0.68749,0.68752 1.03124,1.60418 1.03125,2.75 -10e-6,1.14585 -0.28647,2.00522 -0.85938,2.57813 -0.40105,0.40105 -0.83073,0.63022 -1.28906,0.6875 0.57291,0.17188 1.05989,0.45834 1.46094,0.85937 0.68749,0.68751 1.03124,1.60418 1.03125,2.75 -10e-6,1.26042 -0.40105,2.29167 -1.20313,3.09375 -0.80209,0.80209 -1.91928,1.20313 -3.35156,1.20313 -1.20313,0 -2.20573,-0.40104 -3.00781,-1.20313 -0.80209,-0.80208 -1.20313,-1.74739 -1.20313,-2.83593 l 0,-0.6875 1.97657,0 0,0.60156 c -10e-6,0.74479 0.2578,1.375 0.77343,1.89062 0.40104,0.40105 0.88802,0.60157 1.46094,0.60157 0.74479,0 1.34635,-0.22917 1.80469,-0.6875 0.45832,-0.45833 0.68749,-1.17448 0.6875,-2.14844 -10e-6,-0.80208 -0.22918,-1.43229 -0.6875,-1.89063 -0.45834,-0.45832 -0.97397,-0.68749 -1.54688,-0.6875 l -0.6875,0 0,-1.46093 0.51563,0 c 0.51562,10e-6 1.0026,-0.22916 1.46094,-0.6875 0.45832,-0.45833 0.68749,-1.11718 0.6875,-1.97657 -10e-6,-0.74478 -0.22918,-1.34634 -0.6875,-1.80468 -0.34376,-0.34374 -0.80209,-0.51561 -1.375,-0.51563 -0.51563,2e-5 -0.97397,0.20054 -1.375,0.60156 -0.45834,0.45835 -0.71615,1.20314 -0.77344,2.23438 z"
         style="font-family:MS UI Gothic;-inkscape-font-specification:MS UI Gothic"
         id="path3161" />
    </g>
    <g
       style="font-size:22px;font-style:normal;font-variant:normal;font-weight:normal;font-stretch:normal;line-height:125%;letter-spacing:0px;word-spacing:0px;fill:#000000;fill-opacity:1;stroke:none;font-family:Open Sans;-inkscape-font-specification:Open Sans"
       id="text12491">
      <path
         d="m 543.36523,947.90906 1.97657,0 0,13.0625 7.90625,0 0,1.63281 -9.88282,0 z"
         style="font-family:MS UI Gothic;-inkscape-font-specification:MS UI Gothic"
         id="path3150" />
      <path
         d="m 553.84961,947.82312 2.0625,0 4.55469,11.94531 4.55468,-11.94531 2.0625,0 -5.84375,14.86719 -1.54687,0 z"
         style="font-family:MS UI Gothic;-inkscape-font-specification:MS UI Gothic"
         id="path3152" />
      <path
         d="m 573.95898,947.73718 1.97657,0 0,9.45313 1.80468,0 0,1.63281 -1.80468,0 0,3.78125 -1.97657,0 0,-3.78125 -5.75781,0 0,-1.71875 z m 0,3.17969 -3.86718,6.27344 3.86718,0 z"
         style="font-family:MS UI Gothic;-inkscape-font-specification:MS UI Gothic"
         id="path3154" />
    </g>
  </g>
</svg>
