<?xml version="1.0" encoding="UTF-8" standalone="no"?>
<!-- Created with Inkscape (http://www.inkscape.org/) -->

<svg
   xmlns:dc="http://purl.org/dc/elements/1.1/"
   xmlns:cc="http://creativecommons.org/ns#"
   xmlns:rdf="http://www.w3.org/1999/02/22-rdf-syntax-ns#"
   xmlns:svg="http://www.w3.org/2000/svg"
   xmlns="http://www.w3.org/2000/svg"
   xmlns:sodipodi="http://sodipodi.sourceforge.net/DTD/sodipodi-0.dtd"
   xmlns:inkscape="http://www.inkscape.org/namespaces/inkscape"
   version="1.2"
   width="900"
   height="200"
   id="svg2"
   inkscape:version="0.48.1 "
   sodipodi:docname="net_basic_tcppacket.svg">
  <sodipodi:namedview
     pagecolor="#ffffff"
     bordercolor="#666666"
     borderopacity="1"
     objecttolerance="10"
     gridtolerance="10"
     guidetolerance="10"
     inkscape:pageopacity="1"
     inkscape:pageshadow="2"
     inkscape:window-width="1920"
     inkscape:window-height="1033"
     id="namedview27"
     showgrid="true"
     inkscape:zoom="1.403607"
     inkscape:cx="497.05441"
     inkscape:cy="74.017495"
     inkscape:window-x="-4"
     inkscape:window-y="-4"
     inkscape:window-maximized="1"
     inkscape:current-layer="g3222">
    <inkscape:grid
       type="xygrid"
       id="grid3299"
       empspacing="5"
       visible="true"
       enabled="true"
       snapvisiblegridlinesonly="true" />
  </sodipodi:namedview>
  <defs
     id="defs4" />
  <metadata
     id="metadata7">
    <rdf:RDF>
      <cc:Work
         rdf:about="">
        <dc:format>image/svg+xml</dc:format>
        <dc:type
           rdf:resource="http://purl.org/dc/dcmitype/StillImage" />
        <dc:title />
      </cc:Work>
    </rdf:RDF>
  </metadata>
  <g
     transform="translate(601,-466.8125)"
     id="g3222">
    <rect
       width="860"
       height="160"
       rx="10"
       ry="10"
       x="-581"
       y="486.8125"
       id="rect4438"
       style="fill:#7ac142;fill-opacity:1;fill-rule:nonzero;stroke:none" />
    <rect
       width="130"
       height="160"
       x="-481"
       y="486.8125"
       id="rect6978-9-64-0-1-5-7"
       style="color:#000000;fill:#87cefa;fill-opacity:1;fill-rule:nonzero;stroke:#ffffff;stroke-width:0;stroke-miterlimit:4;stroke-opacity:1;stroke-dasharray:none;marker:none;visibility:visible;display:inline;overflow:visible;enable-background:accumulate" />
    <rect
       width="130.00003"
       height="160"
       ry="0"
       x="-351"
       y="486.8125"
       id="rect6978-9-64-0-1-5-7-5"
       style="color:#000000;fill:#f5deb3;fill-opacity:1;fill-rule:nonzero;stroke:#ffffff;stroke-width:0;stroke-miterlimit:4;stroke-opacity:1;stroke-dasharray:none;marker:none;visibility:visible;display:inline;overflow:visible;enable-background:accumulate" />
    <rect
       width="399.99982"
       height="160"
       x="-221"
       y="486.8125"
       id="rect6978-9-64-0-1-5-7-5-2"
       style="color:#000000;fill:#e6e6e6;fill-opacity:1;fill-rule:nonzero;stroke:#ffffff;stroke-width:0;stroke-miterlimit:4;stroke-opacity:1;stroke-dasharray:none;marker:none;visibility:visible;display:inline;overflow:visible;enable-background:accumulate" />
    <g
       style="font-size:40px;font-style:normal;font-weight:normal;line-height:125%;letter-spacing:0px;word-spacing:0px;fill:#000000;fill-opacity:1;stroke:none;font-family:Sans"
       id="text3094">
      <path
         d="m -565.84375,529.21875 8.59375,0 0,1.48437 -6.79687,0 0,4.14063 6.32812,0 0,1.48437 -6.32812,0 0,4.76563 7.1875,0 0,1.48437 -8.98438,0 z"
         style="font-size:20px;font-variant:normal;font-stretch:normal;text-align:center;text-anchor:middle;font-family:MS UI Gothic;-inkscape-font-specification:MS UI Gothic"
         id="path3004" />
      <path
         d="m -553.96875,530.78125 1.5625,0 0,3.04687 2.65625,0 0,1.25 -2.65625,0 0,5.07813 c 0,0.3125 0.1302,0.59896 0.39063,0.85937 0.20832,0.20834 0.54687,0.31251 1.01562,0.3125 0.72916,10e-6 1.3802,-0.18228 1.95313,-0.54687 l 0,1.48437 c -0.57293,0.31251 -1.19793,0.46876 -1.875,0.46875 -1.04168,10e-6 -1.79688,-0.23437 -2.26563,-0.70312 -0.52084,-0.52083 -0.78125,-1.09375 -0.78125,-1.71875 l 0,-5.23438 -1.875,0 0,-1.25 1.875,0 z"
         style="font-size:20px;font-variant:normal;font-stretch:normal;text-align:center;text-anchor:middle;font-family:MS UI Gothic;-inkscape-font-specification:MS UI Gothic"
         id="path3006" />
      <path
         d="m -547.64062,529.21875 1.5625,0 0,6.17187 c 0.88541,-1.14582 1.84895,-1.71874 2.89062,-1.71875 1.09374,10e-6 1.90103,0.26043 2.42188,0.78125 0.52082,0.52085 0.78124,1.14585 0.78125,1.875 l 0,6.25 -1.5625,0 0,-5.85937 c -10e-6,-0.57291 -0.1823,-1.04166 -0.54688,-1.40625 -0.26042,-0.26041 -0.62501,-0.39062 -1.09375,-0.39063 -0.57292,10e-6 -1.09375,0.23439 -1.5625,0.70313 -0.57292,0.57292 -1.01563,1.38021 -1.32812,2.42187 l 0,4.53125 -1.5625,0 z"
         style="font-size:20px;font-variant:normal;font-stretch:normal;text-align:center;text-anchor:middle;font-family:MS UI Gothic;-inkscape-font-specification:MS UI Gothic"
         id="path3008" />
      <path
         d="m -537.875,538.20312 c 0,-1.40624 0.44271,-2.55207 1.32813,-3.4375 0.72916,-0.72915 1.66666,-1.09374 2.8125,-1.09375 1.09374,10e-6 2.03124,0.39064 2.8125,1.17188 0.72915,0.72917 1.09374,1.84896 1.09375,3.35937 l -6.32813,0 c 0,1.09376 0.26041,1.90105 0.78125,2.42188 0.46875,0.46875 1.0677,0.70313 1.79688,0.70312 0.72916,10e-6 1.24999,-0.15624 1.5625,-0.46875 0.36457,-0.36458 0.54686,-0.78124 0.54687,-1.25 l 1.71875,0 c -0.20834,0.93751 -0.54688,1.64063 -1.01562,2.10938 -0.6771,0.67708 -1.61459,1.01563 -2.8125,1.01562 -1.25001,10e-6 -2.26563,-0.39062 -3.04688,-1.17187 -0.83333,-0.83333 -1.25,-1.95312 -1.25,-3.35938 z M -533.8125,535 c -0.625,10e-6 -1.14584,0.20834 -1.5625,0.625 -0.36459,0.36459 -0.59896,0.8073 -0.70312,1.32812 l 4.45312,0 c -10e-6,-0.52082 -0.20834,-0.98957 -0.625,-1.40625 -0.36459,-0.36457 -0.88542,-0.54686 -1.5625,-0.54687 z"
         style="font-size:20px;font-variant:normal;font-stretch:normal;text-align:center;text-anchor:middle;font-family:MS UI Gothic;-inkscape-font-specification:MS UI Gothic"
         id="path3010" />
      <path
         d="m -525.29687,534.92187 c 0.83332,-0.83332 1.95311,-1.24999 3.35937,-1.25 l 0,1.71875 c -0.20834,-0.0521 -0.4948,-0.0781 -0.85937,-0.0781 -0.78126,10e-6 -1.51043,0.33855 -2.1875,1.01562 -0.57292,0.57293 -0.96355,1.17189 -1.17188,1.79688 l 0,4.45312 -1.5625,0 0,-8.75 1.5625,0 0,2.1875 c 0.26041,-0.41665 0.54687,-0.78124 0.85938,-1.09375 z"
         style="font-size:20px;font-variant:normal;font-stretch:normal;text-align:center;text-anchor:middle;font-family:MS UI Gothic;-inkscape-font-specification:MS UI Gothic"
         id="path3012" />
      <path
         d="m -519.125,542.57812 -1.5625,0 0,-8.75 1.5625,0 0,1.5625 c 0.9375,-1.14582 1.92708,-1.71874 2.96875,-1.71875 1.04166,10e-6 1.87499,0.31251 2.5,0.9375 0.41666,0.41668 0.62499,0.91147 0.625,1.48438 l 0,6.48437 -1.5625,0 0,-6.01562 c -10e-6,-0.46874 -0.15626,-0.85937 -0.46875,-1.17188 -0.31251,-0.31249 -0.75521,-0.46874 -1.32812,-0.46875 -0.52084,10e-6 -1.04168,0.26043 -1.5625,0.78125 -0.78126,0.78126 -1.17188,1.61459 -1.17188,2.5 z"
         style="font-size:20px;font-variant:normal;font-stretch:normal;text-align:center;text-anchor:middle;font-family:MS UI Gothic;-inkscape-font-specification:MS UI Gothic"
         id="path3014" />
      <path
         d="m -510.92187,538.20312 c -10e-6,-1.40624 0.4427,-2.55207 1.32812,-3.4375 0.72916,-0.72915 1.66666,-1.09374 2.8125,-1.09375 1.09374,10e-6 2.03124,0.39064 2.8125,1.17188 0.72916,0.72917 1.09374,1.84896 1.09375,3.35937 l -6.32812,0 c -10e-6,1.09376 0.26041,1.90105 0.78125,2.42188 0.46874,0.46875 1.0677,0.70313 1.79687,0.70312 0.72916,10e-6 1.24999,-0.15624 1.5625,-0.46875 0.36458,-0.36458 0.54687,-0.78124 0.54688,-1.25 l 1.71875,0 c -0.20835,0.93751 -0.54689,1.64063 -1.01563,2.10938 -0.67709,0.67708 -1.61459,1.01563 -2.8125,1.01562 -1.25,10e-6 -2.26563,-0.39062 -3.04687,-1.17187 -0.83334,-0.83333 -1.25001,-1.95312 -1.25,-3.35938 z M -506.85937,535 c -0.62501,10e-6 -1.14584,0.20834 -1.5625,0.625 -0.36459,0.36459 -0.59897,0.8073 -0.70313,1.32812 l 4.45313,0 c -10e-6,-0.52082 -0.20835,-0.98957 -0.625,-1.40625 -0.36459,-0.36457 -0.88543,-0.54686 -1.5625,-0.54687 z"
         style="font-size:20px;font-variant:normal;font-stretch:normal;text-align:center;text-anchor:middle;font-family:MS UI Gothic;-inkscape-font-specification:MS UI Gothic"
         id="path3016" />
      <path
         d="m -499.98437,530.78125 1.5625,0 0,3.04687 2.65625,0 0,1.25 -2.65625,0 0,5.07813 c -10e-6,0.3125 0.1302,0.59896 0.39062,0.85937 0.20833,0.20834 0.54687,0.31251 1.01563,0.3125 0.72916,10e-6 1.3802,-0.18228 1.95312,-0.54687 l 0,1.48437 c -0.57292,0.31251 -1.19792,0.46876 -1.875,0.46875 -1.04167,10e-6 -1.79688,-0.23437 -2.26562,-0.70312 -0.52084,-0.52083 -0.78126,-1.09375 -0.78125,-1.71875 l 0,-5.23438 -1.875,0 0,-1.25 1.875,0 z"
         style="font-size:20px;font-variant:normal;font-stretch:normal;text-align:center;text-anchor:middle;font-family:MS UI Gothic;-inkscape-font-specification:MS UI Gothic"
         id="path3018" />
      <path
         d="m -545.29687,554.375 c 0.62499,10e-6 1.0677,0.23439 1.32812,0.70312 2.13541,4.21876 4.66145,7.91668 7.57813,11.09375 l -1.25,1.71875 c -1.40627,-1.77083 -2.78648,-3.72395 -4.14063,-5.85937 -1.04168,-1.61458 -2.0573,-3.41145 -3.04687,-5.39063 -0.15626,-0.31248 -0.31251,-0.46873 -0.46875,-0.46875 -0.10418,2e-5 -0.20835,0.0521 -0.3125,0.15625 -0.0521,0.20835 -0.10418,0.3646 -0.15625,0.46875 -1.04168,2.44793 -2.26563,4.8698 -3.67188,7.26563 l -1.64062,-1.48438 c 0.72916,-0.98957 1.58853,-2.29165 2.57812,-3.90625 0.625,-1.04165 1.27604,-2.23957 1.95313,-3.59375 0.20832,-0.46873 0.62499,-0.70311 1.25,-0.70312 z"
         style="font-size:20px;font-variant:normal;font-stretch:normal;text-align:center;text-anchor:middle;font-family:MS UI Gothic;-inkscape-font-specification:MS UI Gothic"
         id="path3020" />
      <path
         d="m -530.21875,556.09375 c 0.72916,1.14584 1.3802,2.42188 1.95313,3.82812 L -529.75,560.625 c -0.62501,-1.61457 -1.22396,-2.91666 -1.79687,-3.90625 z m 2.65625,7.65625 c 0.93749,-1.56249 1.3802,-3.85416 1.32813,-6.875 l 1.48437,0.15625 c -0.0521,3.17709 -0.59897,5.67709 -1.64062,7.5 -1.04168,1.875 -2.83855,3.38542 -5.39063,4.53125 l -1.01562,-1.32813 c 2.55207,-0.88541 4.29686,-2.21353 5.23437,-3.98437 z m -6.09375,-6.01563 c 0.46875,0.6771 1.09375,1.97918 1.875,3.90625 l -1.48437,0.70313 c -0.62501,-1.61458 -1.22396,-2.9427 -1.79688,-3.98438 z"
         style="font-size:20px;font-variant:normal;font-stretch:normal;text-align:center;text-anchor:middle;font-family:MS UI Gothic;-inkscape-font-specification:MS UI Gothic"
         id="path3022" />
      <path
         d="m -510.45312,551.25 0,3.04687 -1.32813,0 0,-3.04687 z m -2.10938,0 0,3.04687 -1.32812,0 0,-3.04687 z m 0.23438,5.54687 c -2e-5,2.18751 -0.41668,4.16668 -1.25,5.9375 0.5729,0.46876 1.06769,0.91147 1.48437,1.32813 l -1.17187,1.5625 c -0.20835,-0.3125 -0.59897,-0.72916 -1.17188,-1.25 -1.45834,2.29167 -3.46355,3.93229 -6.01562,4.92187 l -1.17188,-1.32812 c 2.60416,-1.09375 4.55728,-2.65625 5.85938,-4.6875 -1.6146,-1.40624 -2.86459,-2.36978 -3.75,-2.89063 l 0.78125,-1.25 c 1.04166,0.62501 2.3177,1.48439 3.82812,2.57813 0.62499,-1.45833 0.96353,-3.09895 1.01563,-4.92188 l 0,-0.54687 -5.15625,0 c -0.57293,2.55209 -1.64063,4.5573 -3.20313,6.01562 l -1.25,-1.17187 c 2.13541,-1.97916 3.17708,-4.86978 3.125,-8.67188 l 1.79688,0 c -10e-6,0.83335 -0.0521,1.6146 -0.15625,2.34375 l 6.40625,0 0,2.03125 z"
         style="font-size:20px;font-variant:normal;font-stretch:normal;text-align:center;text-anchor:middle;font-family:MS UI Gothic;-inkscape-font-specification:MS UI Gothic"
         id="path3024" />
      <path
         d="m -565.25781,594.375 c -2.60417,-2.44792 -3.90625,-5.28645 -3.90625,-8.51563 0,-3.22915 1.30208,-6.06769 3.90625,-8.51562 l 0.85937,0.85937 c -2.39583,2.2396 -3.59375,4.79168 -3.59375,7.65625 0,2.86459 1.19792,5.41667 3.59375,7.65625 z"
         style="font-size:20px;font-variant:normal;font-stretch:normal;text-align:center;text-anchor:middle;font-family:MS UI Gothic;-inkscape-font-specification:MS UI Gothic"
         id="path3026" />
      <path
         d="m -559.24219,580.54687 c 0.46875,-0.46873 0.72916,-0.98957 0.78125,-1.5625 l 0.9375,0 0,13.51563 -1.79687,0 0,-10.39063 -2.34375,0 0,-0.9375 0.70312,0 c 0.72917,2e-5 1.30208,-0.20832 1.71875,-0.625 z"
         style="font-size:20px;font-variant:normal;font-stretch:normal;text-align:center;text-anchor:middle;font-family:MS UI Gothic;-inkscape-font-specification:MS UI Gothic"
         id="path3028" />
      <path
         d="m -547.83594,579.0625 1.79688,0 0,8.59375 1.64062,0 0,1.48437 -1.64062,0 0,3.4375 -1.79688,0 0,-3.4375 -5.23437,0 0,-1.5625 z m 0,2.89062 -3.51562,5.70313 3.51562,0 z"
         style="font-size:20px;font-variant:normal;font-stretch:normal;text-align:center;text-anchor:middle;font-family:MS UI Gothic;-inkscape-font-specification:MS UI Gothic"
         id="path3030" />
      <path
         d="m -527.44531,576.5625 0,3.04687 -1.32813,0 0,-3.04687 z m -2.10938,0 0,3.04687 -1.32812,0 0,-3.04687 z m -2.65625,1.95312 c 1.14582,1.9271 2.10936,4.1146 2.89063,6.5625 0.83332,2.44793 1.40623,4.8698 1.71875,7.26563 l -1.79688,0.78125 c -0.20834,-2.44791 -0.72918,-4.92187 -1.5625,-7.42188 -0.78126,-2.60415 -1.66668,-4.71352 -2.65625,-6.32812 l 1.40625,-0.85938 z m -10.46875,13.51563 c 2.55208,-3.33333 3.80208,-7.83853 3.75,-13.51563 l 1.71875,0.3125 c 0,5.83335 -1.32813,10.72917 -3.98437,14.6875 l -1.48438,-1.48437 z"
         style="font-size:20px;font-variant:normal;font-stretch:normal;text-align:center;text-anchor:middle;font-family:MS UI Gothic;-inkscape-font-specification:MS UI Gothic"
         id="path3032" />
      <path
         d="m -520.10156,582.34375 c 1.92707,-1.66665 3.35936,-3.3854 4.29687,-5.15625 l 1.64063,1.01562 c -0.83335,1.40627 -2.03126,2.83856 -3.59375,4.29688 l 0,11.5625 -1.5625,0 0,-10 c -1.97917,1.77084 -3.90626,3.09896 -5.78125,3.98437 l -1.01563,-1.5625 c 2.1875,-1.09374 4.19271,-2.47394 6.01563,-4.14062 z"
         style="font-size:20px;font-variant:normal;font-stretch:normal;text-align:center;text-anchor:middle;font-family:MS UI Gothic;-inkscape-font-specification:MS UI Gothic"
         id="path3034" />
      <path
         d="m -506.11719,582.89062 c 2.76041,0.93751 5.07812,1.95314 6.95313,3.04688 l -1.01563,1.71875 c -0.57293,-0.41666 -1.45834,-0.91145 -2.65625,-1.48438 -1.19792,-0.5729 -2.29167,-1.04165 -3.28125,-1.40625 l 0,9.21875 -1.5625,0 0,-16.71875 1.5625,0 z"
         style="font-size:20px;font-variant:normal;font-stretch:normal;text-align:center;text-anchor:middle;font-family:MS UI Gothic;-inkscape-font-specification:MS UI Gothic"
         id="path3036" />
      <path
         d="m -494.08594,585.85937 c 0,-2.86457 -1.19792,-5.41665 -3.59375,-7.65625 l 0.85938,-0.85937 c 2.60416,2.44793 3.90624,5.28647 3.90625,8.51562 -10e-6,3.22918 -1.30209,6.06771 -3.90625,8.51563 l -0.85938,-0.85938 c 2.39583,-2.23958 3.59375,-4.79166 3.59375,-7.65625 z"
         style="font-size:20px;font-variant:normal;font-stretch:normal;text-align:center;text-anchor:middle;font-family:MS UI Gothic;-inkscape-font-specification:MS UI Gothic"
         id="path3038" />
    </g>
    <g
       style="font-size:40px;font-style:normal;font-weight:normal;line-height:125%;letter-spacing:0px;word-spacing:0px;fill:#000000;fill-opacity:1;stroke:none;font-family:Sans"
       id="text3094-4">
      <path
         d="m -446.10156,543.21875 3.51562,0 0,1.71875 -0.85937,0 0,9.92187 0.85937,0 0,1.71875 -3.51562,0 0,-1.71875 0.85937,0 0,-9.92187 -0.85937,0 z"
         style="font-size:20px;font-variant:normal;font-stretch:normal;text-align:center;text-anchor:middle;font-family:MS UI Gothic;-inkscape-font-specification:MS UI Gothic"
         id="path3041" />
      <path
         d="m -440.63281,543.21875 6.25,0 c 1.14582,10e-6 2.08332,0.3646 2.8125,1.09375 0.72915,0.72918 1.09374,1.7448 1.09375,3.04687 -10e-6,1.3021 -0.33856,2.29168 -1.01563,2.96875 -0.67709,0.67709 -1.64063,1.01564 -2.89062,1.01563 l -4.45313,0 0,5.23437 -1.79687,0 z m 1.79687,1.48437 0,5.15625 4.0625,0 c 0.72916,10e-6 1.30208,-0.20832 1.71875,-0.625 0.46874,-0.46874 0.70312,-1.09374 0.70313,-1.875 -10e-6,-0.8854 -0.20835,-1.53644 -0.625,-1.95312 -0.46876,-0.46874 -1.06772,-0.70311 -1.79688,-0.70313 z"
         style="font-size:20px;font-variant:normal;font-stretch:normal;text-align:center;text-anchor:middle;font-family:MS UI Gothic;-inkscape-font-specification:MS UI Gothic"
         id="path3043" />
      <path
         d="m -422.66406,543.375 c 0.62499,10e-6 1.0677,0.23439 1.32812,0.70312 2.13541,4.21876 4.66145,7.91668 7.57813,11.09375 l -1.25,1.71875 c -1.40627,-1.77083 -2.78647,-3.72395 -4.14063,-5.85937 -1.04167,-1.61458 -2.0573,-3.41145 -3.04687,-5.39063 -0.15626,-0.31248 -0.31251,-0.46873 -0.46875,-0.46875 -0.10418,2e-5 -0.20834,0.0521 -0.3125,0.15625 -0.0521,0.20835 -0.10418,0.3646 -0.15625,0.46875 -1.04167,2.44793 -2.26563,4.8698 -3.67188,7.26563 l -1.64062,-1.48438 c 0.72916,-0.98957 1.58854,-2.29165 2.57812,-3.90625 0.625,-1.04165 1.27604,-2.23957 1.95313,-3.59375 0.20833,-0.46873 0.62499,-0.70311 1.25,-0.70312 z"
         style="font-size:20px;font-variant:normal;font-stretch:normal;text-align:center;text-anchor:middle;font-family:MS UI Gothic;-inkscape-font-specification:MS UI Gothic"
         id="path3045" />
      <path
         d="m -407.58594,545.09375 c 0.72916,1.14584 1.3802,2.42188 1.95313,3.82812 l -1.48438,0.70313 c -0.625,-1.61457 -1.22396,-2.91666 -1.79687,-3.90625 z m 2.65625,7.65625 c 0.93749,-1.56249 1.3802,-3.85416 1.32813,-6.875 l 1.48437,0.15625 c -0.0521,3.17709 -0.59897,5.67709 -1.64062,7.5 -1.04168,1.875 -2.83855,3.38542 -5.39063,4.53125 l -1.01562,-1.32813 c 2.55208,-0.88541 4.29687,-2.21353 5.23437,-3.98437 z m -6.09375,-6.01563 c 0.46875,0.6771 1.09375,1.97918 1.875,3.90625 l -1.48437,0.70313 c -0.625,-1.61458 -1.22396,-2.9427 -1.79688,-3.98438 z"
         style="font-size:20px;font-variant:normal;font-stretch:normal;text-align:center;text-anchor:middle;font-family:MS UI Gothic;-inkscape-font-specification:MS UI Gothic"
         id="path3047" />
      <path
         d="m -387.82031,540.25 0,3.04687 -1.32813,0 0,-3.04687 z m -2.10938,0 0,3.04687 -1.32812,0 0,-3.04687 z m 0.23438,5.54687 c -10e-6,2.18751 -0.41668,4.16668 -1.25,5.9375 0.5729,0.46876 1.06769,0.91147 1.48437,1.32813 l -1.17187,1.5625 c -0.20835,-0.3125 -0.59897,-0.72916 -1.17188,-1.25 -1.45834,2.29167 -3.46355,3.93229 -6.01562,4.92187 l -1.17188,-1.32812 c 2.60416,-1.09375 4.55729,-2.65625 5.85938,-4.6875 -1.61459,-1.40624 -2.86459,-2.36978 -3.75,-2.89063 l 0.78125,-1.25 c 1.04166,0.62501 2.3177,1.48439 3.82812,2.57813 0.62499,-1.45833 0.96353,-3.09895 1.01563,-4.92188 l 0,-0.54687 -5.15625,0 c -0.57292,2.55209 -1.64063,4.5573 -3.20313,6.01562 l -1.25,-1.17187 c 2.13542,-1.97916 3.17708,-4.86978 3.125,-8.67188 l 1.79688,0 c -10e-6,0.83335 -0.0521,1.6146 -0.15625,2.34375 l 6.40625,0 0,2.03125 z"
         style="font-size:20px;font-variant:normal;font-stretch:normal;text-align:center;text-anchor:middle;font-family:MS UI Gothic;-inkscape-font-specification:MS UI Gothic"
         id="path3049" />
      <path
         d="m -451.25781,583.375 c -2.60417,-2.44792 -3.90625,-5.28645 -3.90625,-8.51563 0,-3.22915 1.30208,-6.06769 3.90625,-8.51562 l 0.85937,0.85937 c -2.39583,2.2396 -3.59375,4.79168 -3.59375,7.65625 0,2.86459 1.19792,5.41667 3.59375,7.65625 z"
         style="font-size:20px;font-variant:normal;font-stretch:normal;text-align:center;text-anchor:middle;font-family:MS UI Gothic;-inkscape-font-specification:MS UI Gothic"
         id="path3051" />
      <path
         d="m -448.44531,572.75 c 0,-1.61457 0.41666,-2.83853 1.25,-3.67188 0.67708,-0.67706 1.48437,-1.01561 2.42187,-1.01562 1.14583,10e-6 2.05729,0.33856 2.73438,1.01562 0.67707,0.6771 1.01561,1.51043 1.01562,2.5 -1e-5,1.25001 -0.39063,2.34376 -1.17187,3.28125 -0.72918,0.88543 -1.48438,1.7448 -2.26563,2.57813 -0.41667,0.46875 -0.83334,0.9375 -1.25,1.40625 -0.36458,0.41667 -0.67708,0.83334 -0.9375,1.25 l 5.85938,0 0,1.48437 -7.96875,0 0,-1.32812 c 0.10416,-0.52083 0.54687,-1.25 1.32812,-2.1875 1.30208,-1.40624 2.36979,-2.57812 3.20313,-3.51563 0.88541,-0.93749 1.32812,-1.92707 1.32812,-2.96875 0,-0.62498 -0.20834,-1.14582 -0.625,-1.5625 -0.3125,-0.31248 -0.70313,-0.46873 -1.17187,-0.46875 -0.41667,2e-5 -0.78126,0.15627 -1.09375,0.46875 -0.57292,0.57293 -0.85938,1.48439 -0.85938,2.73438 z"
         style="font-size:20px;font-variant:normal;font-stretch:normal;text-align:center;text-anchor:middle;font-family:MS UI Gothic;-inkscape-font-specification:MS UI Gothic"
         id="path3053" />
      <path
         d="m -439.07031,574.07812 c 0,-2.29165 0.52083,-3.95832 1.5625,-5 0.72916,-0.72915 1.64062,-1.09373 2.73437,-1.09375 1.09375,2e-5 2.0052,0.3646 2.73438,1.09375 1.04166,1.04168 1.56249,2.70835 1.5625,5 l 0,1.5625 c -10e-6,2.23959 -0.52084,3.88022 -1.5625,4.92188 -0.72918,0.72917 -1.64063,1.09375 -2.73438,1.09375 -1.09375,0 -2.00521,-0.36458 -2.73437,-1.09375 -1.04167,-1.04166 -1.5625,-2.68229 -1.5625,-4.92188 z m 4.29687,-4.60937 c -0.52084,10e-6 -0.98958,0.20835 -1.40625,0.625 -0.67708,0.67709 -1.01563,1.95313 -1.01562,3.82812 l 0,1.79688 c -10e-6,1.82292 0.36458,3.09896 1.09375,3.82812 0.41666,0.41667 0.85937,0.62501 1.32812,0.625 0.52083,10e-6 0.98958,-0.20833 1.40625,-0.625 0.67708,-0.67708 1.01562,-1.95312 1.01563,-3.82812 l 0,-1.79688 c -10e-6,-1.87499 -0.33855,-3.15103 -1.01563,-3.82812 -0.41667,-0.41665 -0.88542,-0.62499 -1.40625,-0.625 z"
         style="font-size:20px;font-variant:normal;font-stretch:normal;text-align:center;text-anchor:middle;font-family:MS UI Gothic;-inkscape-font-specification:MS UI Gothic"
         id="path3055" />
      <path
         d="m -413.44531,565.5625 0,3.04687 -1.32813,0 0,-3.04687 z m -2.10938,0 0,3.04687 -1.32812,0 0,-3.04687 z m -2.65625,1.95312 c 1.14582,1.9271 2.10936,4.1146 2.89063,6.5625 0.83332,2.44793 1.40623,4.8698 1.71875,7.26563 l -1.79688,0.78125 c -0.20834,-2.44791 -0.72918,-4.92187 -1.5625,-7.42188 -0.78126,-2.60415 -1.66668,-4.71352 -2.65625,-6.32812 l 1.40625,-0.85938 z m -10.46875,13.51563 c 2.55208,-3.33333 3.80208,-7.83853 3.75,-13.51563 l 1.71875,0.3125 c 0,5.83335 -1.32813,10.72917 -3.98437,14.6875 l -1.48438,-1.48437 z"
         style="font-size:20px;font-variant:normal;font-stretch:normal;text-align:center;text-anchor:middle;font-family:MS UI Gothic;-inkscape-font-specification:MS UI Gothic"
         id="path3057" />
      <path
         d="m -406.10156,571.34375 c 1.92707,-1.66665 3.35936,-3.3854 4.29687,-5.15625 l 1.64063,1.01562 c -0.83335,1.40627 -2.03126,2.83856 -3.59375,4.29688 l 0,11.5625 -1.5625,0 0,-10 c -1.97917,1.77084 -3.90626,3.09896 -5.78125,3.98437 l -1.01563,-1.5625 c 2.1875,-1.09374 4.19271,-2.47394 6.01563,-4.14062 z"
         style="font-size:20px;font-variant:normal;font-stretch:normal;text-align:center;text-anchor:middle;font-family:MS UI Gothic;-inkscape-font-specification:MS UI Gothic"
         id="path3059" />
      <path
         d="m -392.11719,571.89062 c 2.76041,0.93751 5.07812,1.95314 6.95313,3.04688 l -1.01563,1.71875 c -0.57293,-0.41666 -1.45834,-0.91145 -2.65625,-1.48438 -1.19792,-0.5729 -2.29167,-1.04165 -3.28125,-1.40625 l 0,9.21875 -1.5625,0 0,-16.71875 1.5625,0 z"
         style="font-size:20px;font-variant:normal;font-stretch:normal;text-align:center;text-anchor:middle;font-family:MS UI Gothic;-inkscape-font-specification:MS UI Gothic"
         id="path3061" />
      <path
         d="m -380.08594,574.85937 c 0,-2.86457 -1.19792,-5.41665 -3.59375,-7.65625 l 0.85938,-0.85937 c 2.60416,2.44793 3.90624,5.28647 3.90625,8.51562 -10e-6,3.22918 -1.30209,6.06771 -3.90625,8.51563 l -0.85938,-0.85938 c 2.39583,-2.23958 3.59375,-4.79166 3.59375,-7.65625 z"
         style="font-size:20px;font-variant:normal;font-stretch:normal;text-align:center;text-anchor:middle;font-family:MS UI Gothic;-inkscape-font-specification:MS UI Gothic"
         id="path3063" />
    </g>
    <g
       style="font-size:40px;font-style:normal;font-weight:normal;line-height:125%;letter-spacing:0px;word-spacing:0px;fill:#000000;fill-opacity:1;stroke:none;font-family:Sans"
       id="text3094-4-4">
      <path
         d="m -326.33594,543.21875 10.70313,0 0,1.48437 -4.45313,0 0,11.875 -1.79687,0 0,-11.875 -4.45313,0 z"
         style="font-size:20px;font-variant:normal;font-stretch:normal;text-align:center;text-anchor:middle;font-family:MS UI Gothic;-inkscape-font-specification:MS UI Gothic"
         id="path3066" />
      <path
         d="m -313.99219,549.9375 c 0,-2.29166 0.65104,-4.08853 1.95313,-5.39063 0.98958,-0.98957 2.26562,-1.48436 3.82812,-1.48437 1.56249,10e-6 2.78645,0.44272 3.67188,1.32812 0.93749,0.93752 1.43228,2.13543 1.48437,3.59375 l -1.875,0 c -0.10417,-1.09374 -0.44272,-1.92707 -1.01562,-2.5 -0.62501,-0.62498 -1.38022,-0.93748 -2.26563,-0.9375 -0.9375,2e-5 -1.77084,0.3646 -2.5,1.09375 -0.9375,0.93752 -1.40625,2.36981 -1.40625,4.29688 0,1.92709 0.46875,3.35938 1.40625,4.29687 0.67708,0.67709 1.51041,1.01563 2.5,1.01563 1.04166,0 1.84895,-0.28646 2.42188,-0.85938 0.72915,-0.72916 1.09374,-1.77082 1.09375,-3.125 l 1.875,0 c -0.0521,1.77084 -0.57293,3.15105 -1.5625,4.14063 -0.88543,0.88542 -2.16147,1.32813 -3.82813,1.32812 -1.5625,10e-6 -2.83854,-0.49479 -3.82812,-1.48437 -1.30209,-1.30208 -1.95313,-3.07291 -1.95313,-5.3125 z"
         style="font-size:20px;font-variant:normal;font-stretch:normal;text-align:center;text-anchor:middle;font-family:MS UI Gothic;-inkscape-font-specification:MS UI Gothic"
         id="path3068" />
      <path
         d="m -300.55469,543.21875 6.25,0 c 1.14583,10e-6 2.08333,0.3646 2.8125,1.09375 0.72916,0.72918 1.09374,1.7448 1.09375,3.04687 -1e-5,1.3021 -0.33855,2.29168 -1.01562,2.96875 -0.6771,0.67709 -1.64064,1.01564 -2.89063,1.01563 l -4.45312,0 0,5.23437 -1.79688,0 z m 1.79688,1.48437 0,5.15625 4.0625,0 c 0.72916,10e-6 1.30207,-0.20832 1.71875,-0.625 0.46874,-0.46874 0.70311,-1.09374 0.70312,-1.875 -1e-5,-0.8854 -0.20834,-1.53644 -0.625,-1.95312 -0.46876,-0.46874 -1.06771,-0.70311 -1.79687,-0.70313 z"
         style="font-size:20px;font-variant:normal;font-stretch:normal;text-align:center;text-anchor:middle;font-family:MS UI Gothic;-inkscape-font-specification:MS UI Gothic"
         id="path3070" />
      <path
         d="m -282.58594,543.375 c 0.625,10e-6 1.0677,0.23439 1.32813,0.70312 2.1354,4.21876 4.66144,7.91668 7.57812,11.09375 l -1.25,1.71875 c -1.40626,-1.77083 -2.78647,-3.72395 -4.14062,-5.85937 -1.04168,-1.61458 -2.0573,-3.41145 -3.04688,-5.39063 -0.15625,-0.31248 -0.3125,-0.46873 -0.46875,-0.46875 -0.10417,2e-5 -0.20834,0.0521 -0.3125,0.15625 -0.0521,0.20835 -0.10417,0.3646 -0.15625,0.46875 -1.04167,2.44793 -2.26563,4.8698 -3.67187,7.26563 l -1.64063,-1.48438 c 0.72917,-0.98957 1.58854,-2.29165 2.57813,-3.90625 0.62499,-1.04165 1.27603,-2.23957 1.95312,-3.59375 0.20833,-0.46873 0.625,-0.70311 1.25,-0.70312 z"
         style="font-size:20px;font-variant:normal;font-stretch:normal;text-align:center;text-anchor:middle;font-family:MS UI Gothic;-inkscape-font-specification:MS UI Gothic"
         id="path3072" />
      <path
         d="m -267.50781,545.09375 c 0.72916,1.14584 1.3802,2.42188 1.95312,3.82812 l -1.48437,0.70313 c -0.62501,-1.61457 -1.22397,-2.91666 -1.79688,-3.90625 z m 2.65625,7.65625 c 0.93749,-1.56249 1.3802,-3.85416 1.32812,-6.875 l 1.48438,0.15625 c -0.0521,3.17709 -0.59897,5.67709 -1.64063,7.5 -1.04167,1.875 -2.83855,3.38542 -5.39062,4.53125 l -1.01563,-1.32813 c 2.55208,-0.88541 4.29687,-2.21353 5.23438,-3.98437 z m -6.09375,-6.01563 c 0.46874,0.6771 1.09374,1.97918 1.875,3.90625 l -1.48438,0.70313 c -0.625,-1.61458 -1.22396,-2.9427 -1.79687,-3.98438 z"
         style="font-size:20px;font-variant:normal;font-stretch:normal;text-align:center;text-anchor:middle;font-family:MS UI Gothic;-inkscape-font-specification:MS UI Gothic"
         id="path3074" />
      <path
         d="m -247.74219,540.25 0,3.04687 -1.32812,0 0,-3.04687 z m -2.10937,0 0,3.04687 -1.32813,0 0,-3.04687 z m 0.23437,5.54687 c -1e-5,2.18751 -0.41668,4.16668 -1.25,5.9375 0.57291,0.46876 1.0677,0.91147 1.48438,1.32813 l -1.17188,1.5625 c -0.20834,-0.3125 -0.59897,-0.72916 -1.17187,-1.25 -1.45834,2.29167 -3.46355,3.93229 -6.01563,4.92187 l -1.17187,-1.32812 c 2.60416,-1.09375 4.55728,-2.65625 5.85937,-4.6875 -1.61459,-1.40624 -2.86459,-2.36978 -3.75,-2.89063 l 0.78125,-1.25 c 1.04166,0.62501 2.3177,1.48439 3.82813,2.57813 0.62499,-1.45833 0.96353,-3.09895 1.01562,-4.92188 l 0,-0.54687 -5.15625,0 c -0.57292,2.55209 -1.64063,4.5573 -3.20312,6.01562 l -1.25,-1.17187 c 2.13541,-1.97916 3.17708,-4.86978 3.125,-8.67188 l 1.79687,0 c 0,0.83335 -0.0521,1.6146 -0.15625,2.34375 l 6.40625,0 0,2.03125 z"
         style="font-size:20px;font-variant:normal;font-stretch:normal;text-align:center;text-anchor:middle;font-family:MS UI Gothic;-inkscape-font-specification:MS UI Gothic"
         id="path3076" />
      <path
         d="m -321.25781,583.375 c -2.60417,-2.44792 -3.90625,-5.28645 -3.90625,-8.51563 0,-3.22915 1.30208,-6.06769 3.90625,-8.51562 l 0.85937,0.85937 c -2.39583,2.2396 -3.59375,4.79168 -3.59375,7.65625 0,2.86459 1.19792,5.41667 3.59375,7.65625 z"
         style="font-size:20px;font-variant:normal;font-stretch:normal;text-align:center;text-anchor:middle;font-family:MS UI Gothic;-inkscape-font-specification:MS UI Gothic"
         id="path3078" />
      <path
         d="m -318.44531,572.75 c 0,-1.61457 0.41666,-2.83853 1.25,-3.67188 0.67708,-0.67706 1.48437,-1.01561 2.42187,-1.01562 1.14583,10e-6 2.05729,0.33856 2.73438,1.01562 0.67707,0.6771 1.01561,1.51043 1.01562,2.5 -1e-5,1.25001 -0.39063,2.34376 -1.17187,3.28125 -0.72918,0.88543 -1.48438,1.7448 -2.26563,2.57813 -0.41667,0.46875 -0.83334,0.9375 -1.25,1.40625 -0.36458,0.41667 -0.67708,0.83334 -0.9375,1.25 l 5.85938,0 0,1.48437 -7.96875,0 0,-1.32812 c 0.10416,-0.52083 0.54687,-1.25 1.32812,-2.1875 1.30208,-1.40624 2.36979,-2.57812 3.20313,-3.51563 0.88541,-0.93749 1.32812,-1.92707 1.32812,-2.96875 0,-0.62498 -0.20834,-1.14582 -0.625,-1.5625 -0.3125,-0.31248 -0.70313,-0.46873 -1.17187,-0.46875 -0.41667,2e-5 -0.78126,0.15627 -1.09375,0.46875 -0.57292,0.57293 -0.85938,1.48439 -0.85938,2.73438 z"
         style="font-size:20px;font-variant:normal;font-stretch:normal;text-align:center;text-anchor:middle;font-family:MS UI Gothic;-inkscape-font-specification:MS UI Gothic"
         id="path3080" />
      <path
         d="m -309.07031,574.07812 c 0,-2.29165 0.52083,-3.95832 1.5625,-5 0.72916,-0.72915 1.64062,-1.09373 2.73437,-1.09375 1.09375,2e-5 2.0052,0.3646 2.73438,1.09375 1.04166,1.04168 1.56249,2.70835 1.5625,5 l 0,1.5625 c -10e-6,2.23959 -0.52084,3.88022 -1.5625,4.92188 -0.72918,0.72917 -1.64063,1.09375 -2.73438,1.09375 -1.09375,0 -2.00521,-0.36458 -2.73437,-1.09375 -1.04167,-1.04166 -1.5625,-2.68229 -1.5625,-4.92188 z m 4.29687,-4.60937 c -0.52084,10e-6 -0.98958,0.20835 -1.40625,0.625 -0.67708,0.67709 -1.01563,1.95313 -1.01562,3.82812 l 0,1.79688 c -10e-6,1.82292 0.36458,3.09896 1.09375,3.82812 0.41666,0.41667 0.85937,0.62501 1.32812,0.625 0.52083,10e-6 0.98958,-0.20833 1.40625,-0.625 0.67708,-0.67708 1.01562,-1.95312 1.01563,-3.82812 l 0,-1.79688 c -10e-6,-1.87499 -0.33855,-3.15103 -1.01563,-3.82812 -0.41667,-0.41665 -0.88542,-0.62499 -1.40625,-0.625 z"
         style="font-size:20px;font-variant:normal;font-stretch:normal;text-align:center;text-anchor:middle;font-family:MS UI Gothic;-inkscape-font-specification:MS UI Gothic"
         id="path3082" />
      <path
         d="m -283.44531,565.5625 0,3.04687 -1.32813,0 0,-3.04687 z m -2.10938,0 0,3.04687 -1.32812,0 0,-3.04687 z m -2.65625,1.95312 c 1.14582,1.9271 2.10936,4.1146 2.89063,6.5625 0.83332,2.44793 1.40623,4.8698 1.71875,7.26563 l -1.79688,0.78125 c -0.20834,-2.44791 -0.72918,-4.92187 -1.5625,-7.42188 -0.78126,-2.60415 -1.66668,-4.71352 -2.65625,-6.32812 l 1.40625,-0.85938 z m -10.46875,13.51563 c 2.55208,-3.33333 3.80208,-7.83853 3.75,-13.51563 l 1.71875,0.3125 c 0,5.83335 -1.32813,10.72917 -3.98437,14.6875 l -1.48438,-1.48437 z"
         style="font-size:20px;font-variant:normal;font-stretch:normal;text-align:center;text-anchor:middle;font-family:MS UI Gothic;-inkscape-font-specification:MS UI Gothic"
         id="path3084" />
      <path
         d="m -276.10156,571.34375 c 1.92707,-1.66665 3.35936,-3.3854 4.29687,-5.15625 l 1.64063,1.01562 c -0.83335,1.40627 -2.03126,2.83856 -3.59375,4.29688 l 0,11.5625 -1.5625,0 0,-10 c -1.97917,1.77084 -3.90626,3.09896 -5.78125,3.98437 l -1.01563,-1.5625 c 2.1875,-1.09374 4.19271,-2.47394 6.01563,-4.14062 z"
         style="font-size:20px;font-variant:normal;font-stretch:normal;text-align:center;text-anchor:middle;font-family:MS UI Gothic;-inkscape-font-specification:MS UI Gothic"
         id="path3086" />
      <path
         d="m -262.11719,571.89062 c 2.76041,0.93751 5.07812,1.95314 6.95313,3.04688 l -1.01563,1.71875 c -0.57293,-0.41666 -1.45834,-0.91145 -2.65625,-1.48438 -1.19792,-0.5729 -2.29167,-1.04165 -3.28125,-1.40625 l 0,9.21875 -1.5625,0 0,-16.71875 1.5625,0 z"
         style="font-size:20px;font-variant:normal;font-stretch:normal;text-align:center;text-anchor:middle;font-family:MS UI Gothic;-inkscape-font-specification:MS UI Gothic"
         id="path3088" />
      <path
         d="m -250.08594,574.85937 c 0,-2.86457 -1.19792,-5.41665 -3.59375,-7.65625 l 0.85938,-0.85937 c 2.60416,2.44793 3.90624,5.28647 3.90625,8.51562 -1e-5,3.22918 -1.30209,6.06771 -3.90625,8.51563 l -0.85938,-0.85938 c 2.39583,-2.23958 3.59375,-4.79166 3.59375,-7.65625 z"
         style="font-size:20px;font-variant:normal;font-stretch:normal;text-align:center;text-anchor:middle;font-family:MS UI Gothic;-inkscape-font-specification:MS UI Gothic"
         id="path3090" />
    </g>
    <g
       style="font-size:40px;font-style:normal;font-weight:normal;line-height:125%;letter-spacing:0px;word-spacing:0px;fill:#000000;fill-opacity:1;stroke:none;font-family:Sans"
       id="text3094-4-4-5">
      <path
         d="m -59.476562,545.95312 c 0.520828,0.0521 0.546869,0.20835 0.07813,0.46875 l 0,12.1875 -1.5625,0 0,-10 c -0.468753,0.93751 -0.989586,1.71876 -1.5625,2.34375 l -1.015625,-1.64062 c 1.822914,-1.87499 3.046871,-4.71353 3.671875,-8.51563 l 1.71875,0.46875 c 0.468743,0.15627 0.41666,0.33856 -0.15625,0.54688 -0.312506,1.45835 -0.703131,2.83855 -1.171875,4.14062 z m 8.046875,-5.3125 c 0.416653,0.0521 0.442695,0.20835 0.07813,0.46875 l 0,1.95313 5.546875,0 0,1.48437 -5.546875,0 0,1.71875 4.453125,0 0,5.9375 -1.5625,0 0,-0.625 -2.890625,0 c -1.3e-5,1.04168 -0.208347,2.0573 -0.625,3.04688 1.302069,0.88542 3.489567,1.58854 6.5625,2.10937 l -0.546875,1.71875 c -2.760433,-0.36458 -5.026055,-1.19791 -6.796875,-2.5 -1.302094,1.35417 -3.15105,2.26563 -5.546875,2.73438 l -0.546875,-1.48438 c 2.187492,-0.36458 3.828115,-1.09374 4.921875,-2.1875 -1.041676,-0.93749 -1.770842,-1.87499 -2.1875,-2.8125 l 0.9375,-0.625 -2.1875,0 0,-5.3125 4.453125,0 0,-1.71875 -5.3125,0 0,-1.48437 5.3125,0 0,-2.42188 z m -1.484375,9.6875 0,-2.8125 -2.890625,0 0,2.8125 z m 4.453125,0 0,-2.8125 -2.890625,0 0,2.8125 z m -4.765625,3.35938 c 0.208322,-0.625 0.312488,-1.32812 0.3125,-2.10938 l -1.953125,0 c 0.416656,0.72918 0.963531,1.4323 1.640625,2.10938 z"
         style="font-size:20px;font-variant:normal;font-stretch:normal;text-align:center;text-anchor:middle;font-family:MS UI Gothic;-inkscape-font-specification:MS UI Gothic"
         id="path3093" />
      <path
         d="m -28.070312,551.96875 -5.078125,0 0,5.9375 -1.5625,0 0,-5.9375 -4.6875,0 c -0.104172,2.70834 -0.911463,4.86979 -2.421875,6.48437 l -1.25,-1.25 c 1.406247,-1.56249 2.109371,-3.38541 2.109375,-5.46875 l 0,-10 14.453125,0 0,14.92188 c -1.8e-5,0.83333 -0.416684,1.25 -1.25,1.25 l -2.1875,0 -0.390625,-1.71875 1.953125,0 c 0.208317,0 0.312483,-0.10417 0.3125,-0.3125 z m -11.328125,-4.375 0,2.89062 4.6875,0 0,-2.89062 z m 0,-4.375 0,2.89062 4.6875,0 0,-2.89062 z m 6.25,4.375 0,2.89062 5.078125,0 0,-2.89062 z m 0,-4.375 0,2.89062 5.078125,0 0,-2.89062 z"
         style="font-size:20px;font-variant:normal;font-stretch:normal;text-align:center;text-anchor:middle;font-family:MS UI Gothic;-inkscape-font-specification:MS UI Gothic"
         id="path3095" />
      <path
         d="m -8.5390625,540.5625 0,3.04687 -1.328125,0 0,-3.04687 z m -2.1093755,0 0,3.04687 -1.328125,0 0,-3.04687 z m -10.546874,1.64062 8.593749,0 0,1.48438 -8.593749,0 z m -1.875,5.23438 13.5156245,0 0,1.71875 -5.5468755,0 0,2.57812 c -9e-6,3.17709 -1.432299,5.33855 -4.296874,6.48438 l -1.015625,-1.48438 c 1.406244,-0.41666 2.395827,-1.0677 2.96875,-1.95312 0.520826,-0.78125 0.781242,-1.79687 0.78125,-3.04688 l 0,-2.57812 -6.40625,0 z"
         style="font-size:20px;font-variant:normal;font-stretch:normal;text-align:center;text-anchor:middle;font-family:MS UI Gothic;-inkscape-font-specification:MS UI Gothic"
         id="path3097" />
      <path
         d="m 6.9296875,548.45312 0,1.71875 -13.59375,0 0,-1.71875 z"
         style="font-size:20px;font-variant:normal;font-stretch:normal;text-align:center;text-anchor:middle;font-family:MS UI Gothic;-inkscape-font-specification:MS UI Gothic"
         id="path3099" />
      <path
         d="m 20.289062,545.71875 c -1.1e-5,2.18751 -0.416678,4.16667 -1.25,5.9375 0.624989,0.46875 1.145822,0.91146 1.5625,1.32812 l -1.171875,1.5625 c -0.208344,-0.26041 -0.598968,-0.65103 -1.171875,-1.17187 -1.458341,2.29167 -3.463548,3.90625 -6.015624,4.84375 l -1.171875,-1.32813 c 2.604161,-1.04166 4.557284,-2.60416 5.859374,-4.6875 -1.61459,-1.40624 -2.864588,-2.36978 -3.749999,-2.89062 l 0.78125,-1.25 c 1.04166,0.62501 2.3177,1.48438 3.828124,2.57812 0.62499,-1.45832 0.93749,-3.09894 0.9375,-4.92187 l 0,-0.54688 -5.078124,0 c -0.572922,2.5521 -1.640629,4.5573 -3.203125,6.01563 l -1.2500005,-1.17188 c 2.1354135,-1.97915 3.1770795,-4.86978 3.1250005,-8.67187 l 1.796875,0 c -6e-6,0.83335 -0.05209,1.6146 -0.15625,2.34375 l 6.328124,0 0,2.03125 z"
         style="font-size:20px;font-variant:normal;font-stretch:normal;text-align:center;text-anchor:middle;font-family:MS UI Gothic;-inkscape-font-specification:MS UI Gothic"
         id="path3101" />
      <path
         d="m -85.257812,583.375 c -2.604169,-2.44792 -3.906251,-5.28645 -3.90625,-8.51563 -10e-7,-3.22915 1.302081,-6.06769 3.90625,-8.51562 l 0.859375,0.85937 c -2.395837,2.2396 -3.593752,4.79168 -3.59375,7.65625 -2e-6,2.86459 1.197913,5.41667 3.59375,7.65625 z"
         style="font-size:20px;font-variant:normal;font-stretch:normal;text-align:center;text-anchor:middle;font-family:MS UI Gothic;-inkscape-font-specification:MS UI Gothic"
         id="path3103" />
      <path
         d="m -69.710937,581.26562 c -1.302097,1.14584 -2.604179,1.92709 -3.90625,2.34375 l -0.859375,-1.5625 c 1.406239,-0.41666 2.604154,-1.01562 3.59375,-1.79687 -0.937512,-1.09375 -1.666678,-2.29166 -2.1875,-3.59375 l -1.171875,0 0,-1.48438 6.71875,0 0.15625,-0.3125 1.328125,1.01563 c 0.05206,0.20834 -0.07814,0.33855 -0.390625,0.39062 -0.572934,1.51043 -1.328142,2.81251 -2.265625,3.90625 0.781234,0.62501 2.135399,1.17188 4.0625,1.64063 l -0.546875,1.64062 c -1.510434,-0.3125 -3.020849,-1.04166 -4.53125,-2.1875 z m -1.875,-4.60937 c 0.67707,1.30209 1.276028,2.16146 1.796875,2.57812 0.468735,-0.46874 1.015609,-1.32812 1.640625,-2.57812 l -3.4375,0 z m -4.609375,3.75 0,-1.32813 -2.890625,0 0,1.5625 z m 1.328125,3.20312 -1.328125,0 0,-1.95312 -5.46875,0.78125 c -0.260419,0.36458 -0.416669,0.44271 -0.46875,0.23437 l -0.46875,-1.875 2.1875,-0.0781 0,-6.71875 -2.421875,0 0,-1.25 17.890625,0 0,1.25 -9.921875,0 z m -5,-11.79687 0,-5.70313 11.953125,0 0,5.70313 z m 0.78125,2.1875 0,1.25 2.890625,0 0,-1.25 z m 0,2.5 0,1.32812 2.890625,0 0,-1.32812 z m 0.78125,-6.95313 0,1.01563 8.828125,0 0,-1.01563 z m 0,-2.1875 0,0.9375 8.828125,0 0,-0.9375 z"
         style="font-size:20px;font-variant:normal;font-stretch:normal;text-align:center;text-anchor:middle;font-family:MS UI Gothic;-inkscape-font-specification:MS UI Gothic"
         id="path3105" />
      <path
         d="m -62.523437,581.42187 c 4.79166,-1.66666 7.317699,-4.86978 7.578125,-9.60937 l -7.03125,0 0,-1.71875 7.1875,0 0,-4.14063 1.71875,0 c 0.520822,0.10419 0.546863,0.31252 0.07813,0.625 l 0,3.51563 7.5,0 0,1.71875 -7.34375,0 c 1.093737,4.32292 3.749985,7.39584 7.96875,9.21875 l -1.015625,1.875 c -3.645848,-1.66667 -6.223971,-4.47916 -7.734375,-8.4375 -0.885426,4.27084 -3.619799,7.21354 -8.203125,8.82812 z"
         style="font-size:20px;font-variant:normal;font-stretch:normal;text-align:center;text-anchor:middle;font-family:MS UI Gothic;-inkscape-font-specification:MS UI Gothic"
         id="path3107" />
      <path
         d="m -39.242187,569.54687 c 0.468744,-0.46873 0.729161,-0.98957 0.78125,-1.5625 l 0.9375,0 0,13.51563 -1.796875,0 0,-10.39063 -2.34375,0 0,-0.9375 0.703125,0 c 0.729163,2e-5 1.302079,-0.20832 1.71875,-0.625 z"
         style="font-size:20px;font-variant:normal;font-stretch:normal;text-align:center;text-anchor:middle;font-family:MS UI Gothic;-inkscape-font-specification:MS UI Gothic"
         id="path3109" />
      <path
         d="m -27.835937,568.0625 1.796875,0 0,8.59375 1.640625,0 0,1.48437 -1.640625,0 0,3.4375 -1.796875,0 0,-3.4375 -5.234375,0 0,-1.5625 z m 0,2.89062 -3.515625,5.70313 3.515625,0 z"
         style="font-size:20px;font-variant:normal;font-stretch:normal;text-align:center;text-anchor:middle;font-family:MS UI Gothic;-inkscape-font-specification:MS UI Gothic"
         id="path3111" />
      <path
         d="m -22.679687,575.17187 c -2e-6,-2.86457 0.624998,-4.92186 1.875,-6.17187 0.624996,-0.62499 1.406245,-0.93749 2.34375,-0.9375 0.989577,10e-6 1.796867,0.31251 2.421875,0.9375 0.677074,0.6771 1.015616,1.53647 1.015624,2.57812 l -1.796874,0 c -7e-6,-0.72915 -0.156257,-1.24998 -0.46875,-1.5625 -0.312507,-0.31248 -0.703131,-0.46873 -1.171875,-0.46875 -0.468755,2e-5 -0.85938,0.15627 -1.171875,0.46875 -0.833337,0.83335 -1.250003,2.29168 -1.25,4.375 0.20833,-0.36457 0.468746,-0.70311 0.78125,-1.01562 0.468745,-0.46874 1.041661,-0.70312 1.71875,-0.70313 0.937493,10e-6 1.718742,0.31251 2.34375,0.9375 0.781241,0.78126 1.171866,1.95314 1.171874,3.51563 -8e-6,1.61459 -0.416675,2.83854 -1.249999,3.67187 -0.625008,0.62501 -1.484382,0.93751 -2.578125,0.9375 -0.937505,10e-6 -1.796879,-0.39062 -2.578125,-1.17187 -0.937502,-0.9375 -1.406252,-2.73437 -1.40625,-5.39063 z m 4.140625,-1.09375 c -0.520839,10e-6 -0.963546,0.1823 -1.328125,0.54688 -0.57292,0.57292 -0.859379,1.35417 -0.859375,2.34375 -4e-6,1.25 0.312496,2.1875 0.9375,2.8125 0.364578,0.36459 0.755203,0.54688 1.171875,0.54687 0.468744,10e-6 0.859368,-0.15624 1.171875,-0.46875 0.468743,-0.46874 0.703117,-1.3802 0.703125,-2.73437 -8e-6,-1.19791 -0.234382,-2.03124 -0.703125,-2.5 -0.36459,-0.36458 -0.729173,-0.54687 -1.09375,-0.54688 z"
         style="font-size:20px;font-variant:normal;font-stretch:normal;text-align:center;text-anchor:middle;font-family:MS UI Gothic;-inkscape-font-specification:MS UI Gothic"
         id="path3113" />
      <path
         d="m -13.070313,574.07812 c 0,-2.29165 0.520833,-3.95832 1.5625,-5 0.729164,-0.72915 1.6406216,-1.09373 2.7343755,-1.09375 1.0937439,2e-5 2.0052013,0.3646 2.734375,1.09375 1.0416579,1.04168 1.5624907,2.70835 1.5625,5 l 0,1.5625 c -9.3e-6,2.23959 -0.5208421,3.88022 -1.5625,4.92188 -0.7291737,0.72917 -1.6406311,1.09375 -2.734375,1.09375 -1.0937539,0 -2.0052115,-0.36458 -2.7343755,-1.09375 -1.041667,-1.04166 -1.5625,-2.68229 -1.5625,-4.92188 z m 4.2968755,-4.60937 c -0.5208378,10e-6 -0.9895873,0.20835 -1.4062505,0.625 -0.677086,0.67709 -1.015627,1.95313 -1.015625,3.82812 l 0,1.79688 c -2e-6,1.82292 0.364581,3.09896 1.09375,3.82812 0.4166631,0.41667 0.859371,0.62501 1.3281255,0.625 0.5208278,10e-6 0.9895773,-0.20833 1.40625,-0.625 0.6770762,-0.67708 1.0156176,-1.95312 1.015625,-3.82812 l 0,-1.79688 c -7.4e-6,-1.87499 -0.3385488,-3.15103 -1.015625,-3.82812 -0.4166727,-0.41665 -0.8854222,-0.62499 -1.40625,-0.625 z"
         style="font-size:20px;font-variant:normal;font-stretch:normal;text-align:center;text-anchor:middle;font-family:MS UI Gothic;-inkscape-font-specification:MS UI Gothic"
         id="path3115" />
      <path
         d="m 12.554688,565.5625 0,3.04687 -1.328125,0 0,-3.04687 z m -2.109375,0 0,3.04687 -1.3281255,0 0,-3.04687 z m -2.6562505,1.95312 c 1.1458206,1.9271 2.1093613,4.1146 2.8906255,6.5625 0.833318,2.44793 1.406234,4.8698 1.71875,7.26563 l -1.796875,0.78125 c -0.208348,-2.44791 -0.7291808,-4.92187 -1.5625005,-7.42188 -0.781262,-2.60415 -1.6666778,-4.71352 -2.65625,-6.32812 l 1.40625,-0.85938 z m -10.46875,13.51563 c 2.55207969,-3.33333 3.8020784,-7.83853 3.75,-13.51563 l 1.71875,0.3125 c -6.6e-6,5.83335 -1.3281302,10.72917 -3.984375,14.6875 l -1.484375,-1.48437 z"
         style="font-size:20px;font-variant:normal;font-stretch:normal;text-align:center;text-anchor:middle;font-family:MS UI Gothic;-inkscape-font-specification:MS UI Gothic"
         id="path3117" />
      <path
         d="m 19.898437,571.34375 c 1.927075,-1.66665 3.359365,-3.3854 4.296875,-5.15625 l 1.640625,1.01562 c -0.833345,1.40627 -2.03126,2.83856 -3.59375,4.29688 l 0,11.5625 -1.5625,0 0,-10 c -1.979172,1.77084 -3.906253,3.09896 -5.781249,3.98437 l -1.015625,-1.5625 c 2.187497,-1.09374 4.192703,-2.47394 6.015624,-4.14062 z"
         style="font-size:20px;font-variant:normal;font-stretch:normal;text-align:center;text-anchor:middle;font-family:MS UI Gothic;-inkscape-font-specification:MS UI Gothic"
         id="path3119" />
      <path
         d="m 33.882812,571.89062 c 2.760408,0.93751 5.078114,1.95314 6.953125,3.04688 l -1.015625,1.71875 c -0.572928,-0.41666 -1.458344,-0.91145 -2.65625,-1.48438 -1.197924,-0.5729 -2.291673,-1.04165 -3.28125,-1.40625 l 0,9.21875 -1.5625,0 0,-16.71875 1.5625,0 z"
         style="font-size:20px;font-variant:normal;font-stretch:normal;text-align:center;text-anchor:middle;font-family:MS UI Gothic;-inkscape-font-specification:MS UI Gothic"
         id="path3121" />
      <path
         d="m 45.914062,574.85937 c -4e-6,-2.86457 -1.197919,-5.41665 -3.59375,-7.65625 l 0.859375,-0.85937 c 2.604163,2.44793 3.906245,5.28647 3.90625,8.51562 -5e-6,3.22918 -1.302087,6.06771 -3.90625,8.51563 l -0.859375,-0.85938 c 2.395831,-2.23958 3.593746,-4.79166 3.59375,-7.65625 z"
         style="font-size:20px;font-variant:normal;font-stretch:normal;text-align:center;text-anchor:middle;font-family:MS UI Gothic;-inkscape-font-specification:MS UI Gothic"
         id="path3123" />
    </g>
    <g
       style="font-size:40px;font-style:normal;font-weight:normal;line-height:125%;letter-spacing:0px;word-spacing:0px;fill:#000000;fill-opacity:1;stroke:none;font-family:Sans"
       id="text3094-4-4-5-6">
      <path
         d="m 195.36719,547.67187 5.54687,0 0,1.48438 -5.54687,0 0,1.32812 c -1e-5,3.43751 -1.69272,6.01563 -5.07813,7.73438 l -1.01562,-1.40625 c 3.02082,-1.19792 4.53124,-3.30729 4.53125,-6.32813 l 0,-1.32812 -6.5625,0 0,-1.48438 6.5625,0 0,-3.59375 c -1.97917,0.31252 -3.64584,0.49481 -5,0.54688 l -0.625,-1.48438 c 4.47916,-0.31248 8.09895,-0.85936 10.85937,-1.64062 l 0.78125,1.5625 c -1.25001,0.31251 -2.73438,0.57293 -4.45312,0.78125 z"
         style="font-size:20px;font-variant:normal;font-stretch:normal;text-align:center;text-anchor:middle;font-family:MS UI Gothic;-inkscape-font-specification:MS UI Gothic"
         id="path3126" />
      <path
         d="m 212.94531,555.64062 0,1.25 -10.39062,0 0,-1.25 4.53125,0 0,-8.35937 -3.75,0 0,-1.25 8.82812,0 0,1.25 -3.75,0 0,8.35937 z"
         style="font-size:20px;font-variant:normal;font-stretch:normal;text-align:center;text-anchor:middle;font-family:MS UI Gothic;-inkscape-font-specification:MS UI Gothic"
         id="path3128" />
      <path
         d="m 219.42969,545.09375 c 0.72916,1.14584 1.3802,2.42188 1.95312,3.82812 l -1.48437,0.70313 c -0.62501,-1.61457 -1.22397,-2.91666 -1.79688,-3.90625 z m 2.65625,7.65625 c 0.93749,-1.56249 1.3802,-3.85416 1.32812,-6.875 l 1.48438,0.15625 c -0.0521,3.17709 -0.59897,5.67709 -1.64063,7.5 -1.04167,1.875 -2.83855,3.38542 -5.39062,4.53125 l -1.01563,-1.32813 c 2.55208,-0.88541 4.29687,-2.21353 5.23438,-3.98437 z m -6.09375,-6.01563 c 0.46874,0.6771 1.09374,1.97918 1.875,3.90625 l -1.48438,0.70313 c -0.625,-1.61458 -1.22396,-2.9427 -1.79687,-3.98438 z"
         style="font-size:20px;font-variant:normal;font-stretch:normal;text-align:center;text-anchor:middle;font-family:MS UI Gothic;-inkscape-font-specification:MS UI Gothic"
         id="path3130" />
      <path
         d="m 237.94531,543.6875 0,2.57812 c -1e-5,2.96876 -0.78126,5.4948 -2.34375,7.57813 -1.35417,1.92708 -3.3073,3.35937 -5.85937,4.29687 l -1.25,-1.48437 c 2.65624,-0.9375 4.63541,-2.23958 5.9375,-3.90625 1.30207,-1.71874 1.95311,-3.8802 1.95312,-6.48438 l 0,-1.09375 -6.09375,0 c -0.41667,2.50001 -1.35417,4.47918 -2.8125,5.9375 l -1.25,-1.25 c 1.09375,-1.04165 1.82292,-2.26561 2.1875,-3.67187 0.3125,-1.1979 0.44271,-2.78644 0.39063,-4.76563 l 1.71875,0 c -1e-5,0.83335 -0.026,1.58856 -0.0781,2.26563 z"
         style="font-size:20px;font-variant:normal;font-stretch:normal;text-align:center;text-anchor:middle;font-family:MS UI Gothic;-inkscape-font-specification:MS UI Gothic"
         id="path3132" />
      <path
         d="m 251.46094,545.79687 3.20312,0 0,1.48438 -3.20312,0 0,2.26562 c -1e-5,2.34376 -0.41668,4.14063 -1.25,5.39063 -0.88543,1.35417 -2.52605,2.42187 -4.92188,3.20312 l -0.9375,-1.5625 c 2.23958,-0.62499 3.69791,-1.43228 4.375,-2.42187 0.78124,-0.98958 1.17187,-2.52604 1.17188,-4.60938 l 0,-2.26562 -5.39063,0 0,4.53125 -1.5625,0 0,-4.53125 -2.73437,0 0,-1.48438 2.73437,0 0,-4.21875 1.5625,0 0,4.21875 5.39063,0 0,-4.53125 1.5625,0 z"
         style="font-size:20px;font-variant:normal;font-stretch:normal;text-align:center;text-anchor:middle;font-family:MS UI Gothic;-inkscape-font-specification:MS UI Gothic"
         id="path3134" />
      <path
         d="m 267.08594,549.46875 c 1.97915,2.65625 3.43748,5.18229 4.375,7.57812 l -1.71875,0.78125 c -0.15627,-0.57291 -0.39064,-1.19791 -0.70313,-1.875 -4.73959,0.78126 -8.75,1.30209 -12.03125,1.5625 l -0.39062,-1.79687 c 0.625,0 1.27604,-0.0521 1.95312,-0.15625 1.5625,-4.53124 2.68229,-9.16666 3.35938,-13.90625 l 1.79687,0.3125 c -1.04167,5.31251 -2.1875,9.81771 -3.4375,13.51562 2.65625,-0.20833 5.33853,-0.52083 8.04688,-0.9375 -0.72918,-1.45832 -1.58856,-2.89061 -2.57813,-4.29687 z"
         style="font-size:20px;font-variant:normal;font-stretch:normal;text-align:center;text-anchor:middle;font-family:MS UI Gothic;-inkscape-font-specification:MS UI Gothic"
         id="path3136" />
      <path
         d="m 199.74219,583.375 c -2.60417,-2.44792 -3.90625,-5.28645 -3.90625,-8.51563 0,-3.22915 1.30208,-6.06769 3.90625,-8.51562 l 0.85937,0.85937 c -2.39583,2.2396 -3.59375,4.79168 -3.59375,7.65625 0,2.86459 1.19792,5.41667 3.59375,7.65625 z"
         style="font-size:20px;font-variant:normal;font-stretch:normal;text-align:center;text-anchor:middle;font-family:MS UI Gothic;-inkscape-font-specification:MS UI Gothic"
         id="path3138" />
      <path
         d="m 202.55469,572.75 c 0,-1.61457 0.41666,-2.83853 1.25,-3.67188 0.67708,-0.67706 1.48437,-1.01561 2.42187,-1.01562 1.14583,10e-6 2.05729,0.33856 2.73438,1.01562 0.67707,0.6771 1.01561,1.51043 1.01562,2.5 -1e-5,1.25001 -0.39063,2.34376 -1.17187,3.28125 -0.72918,0.88543 -1.48438,1.7448 -2.26563,2.57813 -0.41667,0.46875 -0.83334,0.9375 -1.25,1.40625 -0.36458,0.41667 -0.67708,0.83334 -0.9375,1.25 l 5.85938,0 0,1.48437 -7.96875,0 0,-1.32812 c 0.10416,-0.52083 0.54687,-1.25 1.32812,-2.1875 1.30208,-1.40624 2.36979,-2.57812 3.20313,-3.51563 0.88541,-0.93749 1.32812,-1.92707 1.32812,-2.96875 0,-0.62498 -0.20834,-1.14582 -0.625,-1.5625 -0.3125,-0.31248 -0.70313,-0.46873 -1.17187,-0.46875 -0.41667,2e-5 -0.78126,0.15627 -1.09375,0.46875 -0.57292,0.57293 -0.85938,1.48439 -0.85938,2.73438 z"
         style="font-size:20px;font-variant:normal;font-stretch:normal;text-align:center;text-anchor:middle;font-family:MS UI Gothic;-inkscape-font-specification:MS UI Gothic"
         id="path3140" />
      <path
         d="m 227.55469,565.5625 0,3.04687 -1.32813,0 0,-3.04687 z m -2.10938,0 0,3.04687 -1.32812,0 0,-3.04687 z m -2.65625,1.95312 c 1.14582,1.9271 2.10936,4.1146 2.89063,6.5625 0.83332,2.44793 1.40623,4.8698 1.71875,7.26563 l -1.79688,0.78125 c -0.20835,-2.44791 -0.72918,-4.92187 -1.5625,-7.42188 -0.78126,-2.60415 -1.66668,-4.71352 -2.65625,-6.32812 l 1.40625,-0.85938 z m -10.46875,13.51563 c 2.55208,-3.33333 3.80208,-7.83853 3.75,-13.51563 l 1.71875,0.3125 c 0,5.83335 -1.32813,10.72917 -3.98437,14.6875 l -1.48438,-1.48437 z"
         style="font-size:20px;font-variant:normal;font-stretch:normal;text-align:center;text-anchor:middle;font-family:MS UI Gothic;-inkscape-font-specification:MS UI Gothic"
         id="path3142" />
      <path
         d="m 234.89844,571.34375 c 1.92707,-1.66665 3.35936,-3.3854 4.29687,-5.15625 l 1.64063,1.01562 c -0.83335,1.40627 -2.03126,2.83856 -3.59375,4.29688 l 0,11.5625 -1.5625,0 0,-10 c -1.97917,1.77084 -3.90626,3.09896 -5.78125,3.98437 l -1.01563,-1.5625 c 2.1875,-1.09374 4.19271,-2.47394 6.01563,-4.14062 z"
         style="font-size:20px;font-variant:normal;font-stretch:normal;text-align:center;text-anchor:middle;font-family:MS UI Gothic;-inkscape-font-specification:MS UI Gothic"
         id="path3144" />
      <path
         d="m 248.88281,571.89062 c 2.76041,0.93751 5.07812,1.95314 6.95313,3.04688 l -1.01563,1.71875 c -0.57293,-0.41666 -1.45834,-0.91145 -2.65625,-1.48438 -1.19792,-0.5729 -2.29167,-1.04165 -3.28125,-1.40625 l 0,9.21875 -1.5625,0 0,-16.71875 1.5625,0 z"
         style="font-size:20px;font-variant:normal;font-stretch:normal;text-align:center;text-anchor:middle;font-family:MS UI Gothic;-inkscape-font-specification:MS UI Gothic"
         id="path3146" />
      <path
         d="m 260.91406,574.85937 c 0,-2.86457 -1.19792,-5.41665 -3.59375,-7.65625 l 0.85938,-0.85937 c 2.60416,2.44793 3.90624,5.28647 3.90625,8.51562 -10e-6,3.22918 -1.30209,6.06771 -3.90625,8.51563 l -0.85938,-0.85938 c 2.39583,-2.23958 3.59375,-4.79166 3.59375,-7.65625 z"
         style="font-size:20px;font-variant:normal;font-stretch:normal;text-align:center;text-anchor:middle;font-family:MS UI Gothic;-inkscape-font-specification:MS UI Gothic"
         id="path3148" />
    </g>
  </g>
</svg>
